<svg width="804" height="242" viewBox="0 0 804 242" fill="none" xmlns="http://www.w3.org/2000/svg">
<rect width="804" height="242" fill="#F9FAFB"/>
<rect x="230" y="100" width="44" height="24" rx="12" fill="#217CF5"/>
<circle cx="262" cy="112" r="10" fill="white"/>
<path d="M287.039 115V105.545H290.409C291.141 105.545 291.749 105.672 292.232 105.924C292.719 106.176 293.082 106.526 293.322 106.972C293.562 107.415 293.682 107.928 293.682 108.509C293.682 109.088 293.56 109.597 293.317 110.037C293.077 110.474 292.714 110.814 292.228 111.058C291.744 111.301 291.137 111.422 290.404 111.422H287.851V110.194H290.275C290.737 110.194 291.112 110.128 291.401 109.996C291.694 109.863 291.908 109.671 292.043 109.419C292.178 109.166 292.246 108.863 292.246 108.509C292.246 108.152 292.177 107.843 292.038 107.581C291.903 107.32 291.689 107.12 291.397 106.981C291.107 106.84 290.727 106.769 290.256 106.769H288.465V115H287.039ZM291.706 110.734L294.042 115H292.417L290.127 110.734H291.706ZM298.274 115.143C297.575 115.143 296.974 114.994 296.469 114.695C295.967 114.394 295.58 113.971 295.306 113.426C295.035 112.878 294.899 112.236 294.899 111.501C294.899 110.774 295.035 110.134 295.306 109.58C295.58 109.026 295.961 108.594 296.451 108.283C296.943 107.972 297.518 107.817 298.177 107.817C298.577 107.817 298.965 107.883 299.34 108.015C299.716 108.148 300.053 108.355 300.351 108.638C300.65 108.922 300.885 109.289 301.058 109.742C301.23 110.191 301.316 110.737 301.316 111.381V111.87H295.68V110.836H299.964C299.964 110.473 299.89 110.151 299.742 109.871C299.594 109.588 299.387 109.365 299.119 109.202C298.854 109.039 298.543 108.957 298.186 108.957C297.799 108.957 297.46 109.052 297.171 109.243C296.884 109.431 296.663 109.677 296.506 109.982C296.352 110.283 296.275 110.611 296.275 110.965V111.773C296.275 112.247 296.358 112.65 296.524 112.983C296.694 113.315 296.929 113.569 297.231 113.744C297.532 113.917 297.885 114.003 298.288 114.003C298.55 114.003 298.788 113.966 299.003 113.892C299.219 113.815 299.405 113.701 299.562 113.55C299.719 113.4 299.839 113.213 299.922 112.992L301.229 113.227C301.124 113.612 300.936 113.949 300.665 114.238C300.398 114.525 300.061 114.748 299.654 114.908C299.251 115.065 298.791 115.143 298.274 115.143ZM302.848 115V107.909H304.173V109.063H304.26C304.408 108.672 304.65 108.368 304.985 108.149C305.321 107.928 305.722 107.817 306.19 107.817C306.664 107.817 307.061 107.928 307.381 108.149C307.704 108.371 307.943 108.675 308.097 109.063H308.171C308.34 108.685 308.609 108.383 308.979 108.158C309.348 107.931 309.788 107.817 310.299 107.817C310.942 107.817 311.467 108.018 311.873 108.422C312.282 108.825 312.487 109.433 312.487 110.245V115H311.107V110.374C311.107 109.894 310.976 109.546 310.714 109.331C310.453 109.116 310.14 109.008 309.777 109.008C309.328 109.008 308.979 109.146 308.729 109.423C308.48 109.697 308.355 110.05 308.355 110.48V115H306.98V110.287C306.98 109.902 306.86 109.593 306.619 109.359C306.379 109.125 306.067 109.008 305.682 109.008C305.421 109.008 305.179 109.077 304.958 109.216C304.739 109.351 304.562 109.54 304.427 109.783C304.294 110.027 304.228 110.308 304.228 110.628V115H302.848ZM317.393 115.143C316.695 115.143 316.093 114.994 315.588 114.695C315.086 114.394 314.699 113.971 314.425 113.426C314.154 112.878 314.019 112.236 314.019 111.501C314.019 110.774 314.154 110.134 314.425 109.58C314.699 109.026 315.08 108.594 315.57 108.283C316.062 107.972 316.638 107.817 317.296 107.817C317.696 107.817 318.084 107.883 318.46 108.015C318.835 108.148 319.172 108.355 319.471 108.638C319.769 108.922 320.005 109.289 320.177 109.742C320.349 110.191 320.435 110.737 320.435 111.381V111.87H314.799V110.836H319.083C319.083 110.473 319.009 110.151 318.861 109.871C318.714 109.588 318.506 109.365 318.238 109.202C317.973 109.039 317.662 108.957 317.305 108.957C316.918 108.957 316.579 109.052 316.29 109.243C316.004 109.431 315.782 109.677 315.625 109.982C315.471 110.283 315.394 110.611 315.394 110.965V111.773C315.394 112.247 315.477 112.65 315.644 112.983C315.813 113.315 316.048 113.569 316.35 113.744C316.651 113.917 317.004 114.003 317.407 114.003C317.669 114.003 317.907 113.966 318.123 113.892C318.338 113.815 318.524 113.701 318.681 113.55C318.838 113.4 318.958 113.213 319.041 112.992L320.348 113.227C320.243 113.612 320.055 113.949 319.785 114.238C319.517 114.525 319.18 114.748 318.774 114.908C318.37 115.065 317.91 115.143 317.393 115.143ZM321.967 115V107.909H323.292V109.063H323.38C323.527 108.672 323.769 108.368 324.104 108.149C324.44 107.928 324.842 107.817 325.309 107.817C325.783 107.817 326.18 107.928 326.5 108.149C326.824 108.371 327.062 108.675 327.216 109.063H327.29C327.459 108.685 327.728 108.383 328.098 108.158C328.467 107.931 328.907 107.817 329.418 107.817C330.061 107.817 330.586 108.018 330.992 108.422C331.402 108.825 331.606 109.433 331.606 110.245V115H330.226V110.374C330.226 109.894 330.095 109.546 329.833 109.331C329.572 109.116 329.259 109.008 328.896 109.008C328.447 109.008 328.098 109.146 327.848 109.423C327.599 109.697 327.474 110.05 327.474 110.48V115H326.099V110.287C326.099 109.902 325.979 109.593 325.739 109.359C325.499 109.125 325.186 109.008 324.801 109.008C324.54 109.008 324.298 109.077 324.077 109.216C323.858 109.351 323.681 109.54 323.546 109.783C323.413 110.027 323.347 110.308 323.347 110.628V115H321.967ZM333.567 115V105.545H334.947V109.059H335.03C335.11 108.911 335.226 108.74 335.377 108.546C335.527 108.352 335.737 108.183 336.005 108.038C336.272 107.891 336.626 107.817 337.066 107.817C337.639 107.817 338.15 107.961 338.599 108.251C339.048 108.54 339.401 108.957 339.656 109.502C339.915 110.047 340.044 110.702 340.044 111.468C340.044 112.235 339.916 112.892 339.661 113.44C339.405 113.984 339.054 114.404 338.608 114.7C338.162 114.992 337.653 115.138 337.08 115.138C336.649 115.138 336.297 115.066 336.023 114.922C335.752 114.777 335.54 114.608 335.386 114.414C335.232 114.22 335.114 114.047 335.03 113.897H334.915V115H333.567ZM334.92 111.455C334.92 111.953 334.992 112.39 335.137 112.766C335.281 113.141 335.491 113.435 335.764 113.647C336.038 113.857 336.374 113.961 336.771 113.961C337.183 113.961 337.528 113.852 337.805 113.634C338.082 113.412 338.291 113.112 338.433 112.733C338.577 112.355 338.65 111.929 338.65 111.455C338.65 110.987 338.579 110.567 338.437 110.194C338.299 109.822 338.09 109.528 337.81 109.312C337.533 109.097 337.186 108.989 336.771 108.989C336.371 108.989 336.032 109.092 335.755 109.299C335.481 109.505 335.274 109.793 335.132 110.162C334.99 110.531 334.92 110.962 334.92 111.455ZM344.65 115.143C343.951 115.143 343.35 114.994 342.845 114.695C342.343 114.394 341.956 113.971 341.682 113.426C341.411 112.878 341.275 112.236 341.275 111.501C341.275 110.774 341.411 110.134 341.682 109.58C341.956 109.026 342.337 108.594 342.827 108.283C343.319 107.972 343.894 107.817 344.553 107.817C344.953 107.817 345.341 107.883 345.716 108.015C346.092 108.148 346.429 108.355 346.727 108.638C347.026 108.922 347.261 109.289 347.434 109.742C347.606 110.191 347.692 110.737 347.692 111.381V111.87H342.056V110.836H346.34C346.34 110.473 346.266 110.151 346.118 109.871C345.97 109.588 345.763 109.365 345.495 109.202C345.23 109.039 344.919 108.957 344.562 108.957C344.175 108.957 343.836 109.052 343.547 109.243C343.26 109.431 343.039 109.677 342.882 109.982C342.728 110.283 342.651 110.611 342.651 110.965V111.773C342.651 112.247 342.734 112.65 342.9 112.983C343.07 113.315 343.305 113.569 343.607 113.744C343.908 113.917 344.261 114.003 344.664 114.003C344.925 114.003 345.164 113.966 345.379 113.892C345.595 113.815 345.781 113.701 345.938 113.55C346.095 113.4 346.215 113.213 346.298 112.992L347.605 113.227C347.5 113.612 347.312 113.949 347.041 114.238C346.774 114.525 346.437 114.748 346.03 114.908C345.627 115.065 345.167 115.143 344.65 115.143ZM349.224 115V107.909H350.558V109.036H350.632C350.761 108.654 350.989 108.354 351.315 108.135C351.644 107.914 352.017 107.803 352.432 107.803C352.518 107.803 352.62 107.806 352.737 107.812C352.857 107.818 352.951 107.826 353.019 107.835V109.156C352.963 109.14 352.865 109.123 352.723 109.105C352.582 109.083 352.44 109.072 352.298 109.072C351.972 109.072 351.681 109.142 351.426 109.28C351.174 109.416 350.973 109.605 350.826 109.848C350.678 110.088 350.604 110.362 350.604 110.67V115H349.224ZM357.653 115V107.909H358.978V109.063H359.066C359.214 108.672 359.455 108.368 359.791 108.149C360.126 107.928 360.528 107.817 360.996 107.817C361.47 107.817 361.867 107.928 362.187 108.149C362.51 108.371 362.749 108.675 362.902 109.063H362.976C363.146 108.685 363.415 108.383 363.784 108.158C364.153 107.931 364.594 107.817 365.104 107.817C365.748 107.817 366.272 108.018 366.679 108.422C367.088 108.825 367.293 109.433 367.293 110.245V115H365.912V110.374C365.912 109.894 365.782 109.546 365.52 109.331C365.258 109.116 364.946 109.008 364.583 109.008C364.133 109.008 363.784 109.146 363.535 109.423C363.286 109.697 363.161 110.05 363.161 110.48V115H361.785V110.287C361.785 109.902 361.665 109.593 361.425 109.359C361.185 109.125 360.873 109.008 360.488 109.008C360.226 109.008 359.985 109.077 359.763 109.216C359.545 109.351 359.368 109.54 359.232 109.783C359.1 110.027 359.034 110.308 359.034 110.628V115H357.653ZM372.199 115.143C371.5 115.143 370.899 114.994 370.394 114.695C369.892 114.394 369.504 113.971 369.23 113.426C368.96 112.878 368.824 112.236 368.824 111.501C368.824 110.774 368.96 110.134 369.23 109.58C369.504 109.026 369.886 108.594 370.375 108.283C370.868 107.972 371.443 107.817 372.102 107.817C372.502 107.817 372.89 107.883 373.265 108.015C373.641 108.148 373.978 108.355 374.276 108.638C374.575 108.922 374.81 109.289 374.983 109.742C375.155 110.191 375.241 110.737 375.241 111.381V111.87H369.604V110.836H373.888C373.888 110.473 373.815 110.151 373.667 109.871C373.519 109.588 373.311 109.365 373.044 109.202C372.779 109.039 372.468 108.957 372.111 108.957C371.723 108.957 371.385 109.052 371.096 109.243C370.809 109.431 370.588 109.677 370.431 109.982C370.277 110.283 370.2 110.611 370.2 110.965V111.773C370.2 112.247 370.283 112.65 370.449 112.983C370.618 113.315 370.854 113.569 371.156 113.744C371.457 113.917 371.81 114.003 372.213 114.003C372.474 114.003 372.713 113.966 372.928 113.892C373.144 113.815 373.33 113.701 373.487 113.55C373.644 113.4 373.764 113.213 373.847 112.992L375.153 113.227C375.049 113.612 374.861 113.949 374.59 114.238C374.322 114.525 373.985 114.748 373.579 114.908C373.176 115.065 372.716 115.143 372.199 115.143Z" fill="#344054"/>
<path d="M292.315 129.909C292.26 129.441 292.035 129.078 291.641 128.82C291.247 128.561 290.764 128.432 290.192 128.432C289.773 128.432 289.407 128.5 289.093 128.635C288.782 128.77 288.539 128.957 288.364 129.194C288.191 129.431 288.105 129.7 288.105 130.001C288.105 130.254 288.165 130.471 288.285 130.652C288.408 130.831 288.565 130.98 288.756 131.1C288.947 131.217 289.147 131.314 289.356 131.391C289.565 131.465 289.758 131.525 289.933 131.571L290.893 131.83C291.14 131.894 291.414 131.983 291.715 132.097C292.02 132.211 292.311 132.367 292.588 132.564C292.868 132.757 293.099 133.007 293.28 133.311C293.462 133.616 293.553 133.99 293.553 134.433C293.553 134.944 293.419 135.406 293.151 135.818C292.886 136.231 292.498 136.558 291.988 136.801C291.48 137.045 290.863 137.166 290.136 137.166C289.459 137.166 288.873 137.057 288.377 136.838C287.885 136.62 287.497 136.315 287.214 135.924C286.934 135.533 286.776 135.08 286.739 134.562H287.92C287.951 134.92 288.071 135.215 288.281 135.449C288.493 135.68 288.761 135.852 289.084 135.966C289.41 136.077 289.761 136.132 290.136 136.132C290.573 136.132 290.966 136.061 291.314 135.92C291.661 135.775 291.937 135.575 292.14 135.32C292.343 135.061 292.445 134.759 292.445 134.415C292.445 134.101 292.357 133.845 292.181 133.648C292.006 133.451 291.775 133.291 291.489 133.168C291.203 133.045 290.893 132.937 290.561 132.845L289.398 132.513C288.659 132.3 288.074 131.997 287.643 131.603C287.213 131.209 286.997 130.694 286.997 130.057C286.997 129.527 287.14 129.066 287.426 128.672C287.716 128.275 288.104 127.967 288.59 127.749C289.079 127.527 289.625 127.416 290.229 127.416C290.838 127.416 291.38 127.525 291.854 127.744C292.328 127.959 292.703 128.255 292.98 128.63C293.26 129.006 293.408 129.432 293.423 129.909H292.315ZM297.374 137.166C296.925 137.166 296.517 137.082 296.15 136.912C295.784 136.74 295.493 136.492 295.278 136.169C295.063 135.843 294.955 135.449 294.955 134.987C294.955 134.581 295.035 134.252 295.195 133.999C295.355 133.744 295.569 133.544 295.837 133.399C296.104 133.254 296.4 133.147 296.723 133.076C297.049 133.002 297.377 132.944 297.706 132.901C298.137 132.845 298.486 132.804 298.754 132.776C299.025 132.745 299.222 132.694 299.345 132.624C299.471 132.553 299.534 132.43 299.534 132.254V132.217C299.534 131.762 299.41 131.408 299.16 131.156C298.914 130.903 298.54 130.777 298.039 130.777C297.518 130.777 297.111 130.891 296.815 131.119C296.52 131.346 296.312 131.589 296.192 131.848L295.158 131.479C295.343 131.048 295.589 130.712 295.897 130.472C296.207 130.229 296.546 130.06 296.912 129.964C297.282 129.866 297.645 129.817 298.002 129.817C298.229 129.817 298.491 129.844 298.786 129.9C299.085 129.952 299.373 130.061 299.65 130.228C299.93 130.394 300.162 130.645 300.347 130.98C300.532 131.316 300.624 131.765 300.624 132.328V137H299.534V136.04H299.479C299.405 136.194 299.282 136.358 299.11 136.534C298.937 136.709 298.708 136.858 298.422 136.982C298.136 137.105 297.786 137.166 297.374 137.166ZM297.54 136.188C297.971 136.188 298.334 136.103 298.63 135.934C298.928 135.764 299.153 135.546 299.304 135.278C299.457 135.01 299.534 134.729 299.534 134.433V133.436C299.488 133.491 299.387 133.542 299.23 133.588C299.076 133.632 298.897 133.67 298.694 133.704C298.494 133.735 298.299 133.762 298.108 133.787C297.92 133.808 297.768 133.827 297.651 133.842C297.368 133.879 297.103 133.939 296.857 134.022C296.614 134.102 296.417 134.224 296.266 134.387C296.118 134.547 296.044 134.766 296.044 135.043C296.044 135.421 296.184 135.707 296.464 135.901C296.748 136.092 297.106 136.188 297.54 136.188ZM308.157 129.909L305.535 137H304.427L301.805 129.909H302.986L304.944 135.56H305.018L306.975 129.909H308.157ZM312.314 137.148C311.631 137.148 311.041 136.997 310.546 136.695C310.053 136.391 309.673 135.966 309.406 135.421C309.141 134.873 309.009 134.236 309.009 133.51C309.009 132.784 309.141 132.143 309.406 131.589C309.673 131.032 310.046 130.598 310.523 130.288C311.003 129.974 311.563 129.817 312.203 129.817C312.572 129.817 312.937 129.878 313.297 130.001C313.657 130.125 313.985 130.325 314.281 130.602C314.576 130.875 314.811 131.239 314.987 131.691C315.162 132.143 315.25 132.701 315.25 133.362V133.824H309.784V132.882H314.142C314.142 132.482 314.062 132.125 313.902 131.811C313.745 131.497 313.52 131.249 313.228 131.068C312.939 130.886 312.597 130.795 312.203 130.795C311.769 130.795 311.394 130.903 311.077 131.119C310.763 131.331 310.521 131.608 310.352 131.95C310.183 132.291 310.098 132.657 310.098 133.048V133.676C310.098 134.212 310.19 134.666 310.375 135.038C310.563 135.407 310.823 135.689 311.155 135.883C311.488 136.074 311.874 136.169 312.314 136.169C312.6 136.169 312.859 136.129 313.089 136.049C313.323 135.966 313.525 135.843 313.694 135.68C313.864 135.513 313.994 135.307 314.087 135.061L315.139 135.357C315.028 135.714 314.842 136.027 314.581 136.298C314.319 136.566 313.996 136.775 313.611 136.926C313.226 137.074 312.794 137.148 312.314 137.148ZM320.564 137V129.909H321.616V131.017H321.708C321.856 130.638 322.095 130.345 322.424 130.135C322.753 129.923 323.149 129.817 323.61 129.817C324.078 129.817 324.468 129.923 324.778 130.135C325.092 130.345 325.337 130.638 325.512 131.017H325.586C325.768 130.651 326.04 130.36 326.403 130.145C326.767 129.926 327.202 129.817 327.71 129.817C328.344 129.817 328.862 130.015 329.266 130.412C329.669 130.806 329.87 131.42 329.87 132.254V137H328.781V132.254C328.781 131.731 328.638 131.357 328.352 131.132C328.065 130.908 327.728 130.795 327.341 130.795C326.842 130.795 326.456 130.946 326.182 131.248C325.908 131.546 325.771 131.925 325.771 132.384V137H324.663V132.143C324.663 131.74 324.532 131.416 324.271 131.169C324.009 130.92 323.672 130.795 323.26 130.795C322.976 130.795 322.712 130.871 322.466 131.022C322.222 131.172 322.025 131.382 321.875 131.65C321.727 131.914 321.653 132.22 321.653 132.568V137H320.564ZM332.31 139.659C332.126 139.659 331.961 139.644 331.816 139.613C331.672 139.585 331.572 139.558 331.516 139.53L331.793 138.57C332.058 138.637 332.292 138.662 332.495 138.643C332.698 138.625 332.878 138.534 333.035 138.371C333.195 138.211 333.341 137.951 333.474 137.591L333.677 137.037L331.055 129.909H332.236L334.194 135.56H334.268L336.225 129.909H337.407L334.397 138.034C334.261 138.4 334.094 138.703 333.894 138.944C333.694 139.187 333.461 139.367 333.197 139.484C332.935 139.601 332.64 139.659 332.31 139.659ZM343.591 127.545V137H342.501V127.545H343.591ZM348.467 137.148C347.827 137.148 347.265 136.995 346.782 136.691C346.302 136.386 345.926 135.96 345.655 135.412C345.388 134.864 345.254 134.224 345.254 133.491C345.254 132.753 345.388 132.108 345.655 131.557C345.926 131.006 346.302 130.578 346.782 130.274C347.265 129.969 347.827 129.817 348.467 129.817C349.107 129.817 349.667 129.969 350.147 130.274C350.63 130.578 351.006 131.006 351.274 131.557C351.544 132.108 351.68 132.753 351.68 133.491C351.68 134.224 351.544 134.864 351.274 135.412C351.006 135.96 350.63 136.386 350.147 136.691C349.667 136.995 349.107 137.148 348.467 137.148ZM348.467 136.169C348.953 136.169 349.353 136.044 349.667 135.795C349.981 135.546 350.213 135.218 350.364 134.812C350.515 134.406 350.59 133.965 350.59 133.491C350.59 133.018 350.515 132.576 350.364 132.167C350.213 131.757 349.981 131.426 349.667 131.174C349.353 130.922 348.953 130.795 348.467 130.795C347.98 130.795 347.58 130.922 347.266 131.174C346.953 131.426 346.72 131.757 346.569 132.167C346.419 132.576 346.343 133.018 346.343 133.491C346.343 133.965 346.419 134.406 346.569 134.812C346.72 135.218 346.953 135.546 347.266 135.795C347.58 136.044 347.98 136.169 348.467 136.169ZM356.205 139.807C355.679 139.807 355.226 139.739 354.848 139.604C354.469 139.471 354.154 139.296 353.901 139.077C353.652 138.862 353.454 138.631 353.306 138.385L354.174 137.776C354.272 137.905 354.397 138.053 354.548 138.219C354.699 138.388 354.905 138.534 355.166 138.657C355.431 138.783 355.777 138.847 356.205 138.847C356.778 138.847 357.25 138.708 357.622 138.431C357.995 138.154 358.181 137.72 358.181 137.129V135.689H358.089C358.009 135.818 357.895 135.978 357.747 136.169C357.602 136.357 357.393 136.525 357.119 136.672C356.848 136.817 356.482 136.889 356.02 136.889C355.448 136.889 354.934 136.754 354.479 136.483C354.026 136.212 353.668 135.818 353.403 135.301C353.141 134.784 353.01 134.156 353.01 133.418C353.01 132.691 353.138 132.059 353.394 131.52C353.649 130.979 354.005 130.56 354.46 130.265C354.916 129.966 355.442 129.817 356.039 129.817C356.501 129.817 356.867 129.894 357.138 130.048C357.412 130.198 357.621 130.371 357.765 130.565C357.913 130.755 358.027 130.912 358.107 131.036H358.218V129.909H359.27V137.203C359.27 137.812 359.132 138.308 358.855 138.69C358.581 139.074 358.212 139.356 357.747 139.534C357.285 139.716 356.771 139.807 356.205 139.807ZM356.168 135.911C356.605 135.911 356.974 135.81 357.276 135.61C357.578 135.41 357.807 135.123 357.964 134.747C358.121 134.372 358.199 133.922 358.199 133.399C358.199 132.888 358.122 132.437 357.969 132.047C357.815 131.656 357.587 131.349 357.285 131.128C356.984 130.906 356.611 130.795 356.168 130.795C355.706 130.795 355.322 130.912 355.014 131.146C354.709 131.38 354.48 131.694 354.326 132.088C354.175 132.482 354.1 132.919 354.1 133.399C354.1 133.892 354.177 134.327 354.331 134.706C354.488 135.081 354.719 135.377 355.023 135.592C355.331 135.804 355.713 135.911 356.168 135.911ZM361.265 137V129.909H362.354V137H361.265ZM361.819 128.727C361.606 128.727 361.423 128.655 361.269 128.51C361.119 128.366 361.043 128.192 361.043 127.989C361.043 127.786 361.119 127.612 361.269 127.467C361.423 127.322 361.606 127.25 361.819 127.25C362.031 127.25 362.213 127.322 362.363 127.467C362.517 127.612 362.594 127.786 362.594 127.989C362.594 128.192 362.517 128.366 362.363 128.51C362.213 128.655 362.031 128.727 361.819 128.727ZM365.439 132.734V137H364.35V129.909H365.402V131.017H365.495C365.661 130.657 365.913 130.368 366.252 130.149C366.59 129.928 367.027 129.817 367.563 129.817C368.043 129.817 368.463 129.915 368.823 130.112C369.183 130.306 369.463 130.602 369.663 130.999C369.863 131.393 369.963 131.891 369.963 132.494V137H368.874V132.568C368.874 132.011 368.729 131.577 368.44 131.266C368.151 130.952 367.754 130.795 367.249 130.795C366.901 130.795 366.59 130.871 366.316 131.022C366.045 131.172 365.832 131.393 365.675 131.682C365.518 131.971 365.439 132.322 365.439 132.734ZM378.288 137.148C377.697 137.148 377.175 136.998 376.723 136.7C376.271 136.398 375.917 135.974 375.661 135.426C375.406 134.875 375.278 134.224 375.278 133.473C375.278 132.728 375.406 132.082 375.661 131.534C375.917 130.986 376.272 130.563 376.728 130.265C377.183 129.966 377.709 129.817 378.306 129.817C378.768 129.817 379.133 129.894 379.401 130.048C379.671 130.198 379.878 130.371 380.019 130.565C380.164 130.755 380.276 130.912 380.356 131.036H380.449V127.545H381.538V137H380.485V135.911H380.356C380.276 136.04 380.162 136.203 380.015 136.4C379.867 136.594 379.656 136.768 379.382 136.922C379.108 137.072 378.743 137.148 378.288 137.148ZM378.436 136.169C378.873 136.169 379.242 136.055 379.544 135.827C379.845 135.597 380.075 135.278 380.232 134.872C380.388 134.462 380.467 133.99 380.467 133.455C380.467 132.925 380.39 132.462 380.236 132.065C380.082 131.665 379.855 131.354 379.553 131.132C379.251 130.908 378.879 130.795 378.436 130.795C377.974 130.795 377.589 130.914 377.282 131.151C376.977 131.385 376.748 131.703 376.594 132.107C376.443 132.507 376.368 132.956 376.368 133.455C376.368 133.959 376.444 134.418 376.598 134.83C376.755 135.24 376.986 135.566 377.291 135.809C377.599 136.049 377.98 136.169 378.436 136.169ZM386.658 137.148C385.974 137.148 385.385 136.997 384.89 136.695C384.397 136.391 384.017 135.966 383.749 135.421C383.485 134.873 383.352 134.236 383.352 133.51C383.352 132.784 383.485 132.143 383.749 131.589C384.017 131.032 384.389 130.598 384.866 130.288C385.347 129.974 385.907 129.817 386.547 129.817C386.916 129.817 387.281 129.878 387.641 130.001C388.001 130.125 388.329 130.325 388.624 130.602C388.92 130.875 389.155 131.239 389.331 131.691C389.506 132.143 389.594 132.701 389.594 133.362V133.824H384.128V132.882H388.486C388.486 132.482 388.406 132.125 388.246 131.811C388.089 131.497 387.864 131.249 387.572 131.068C387.282 130.886 386.941 130.795 386.547 130.795C386.113 130.795 385.737 130.903 385.42 131.119C385.107 131.331 384.865 131.608 384.696 131.95C384.526 132.291 384.442 132.657 384.442 133.048V133.676C384.442 134.212 384.534 134.666 384.719 135.038C384.906 135.407 385.167 135.689 385.499 135.883C385.831 136.074 386.218 136.169 386.658 136.169C386.944 136.169 387.202 136.129 387.433 136.049C387.667 135.966 387.869 135.843 388.038 135.68C388.207 135.513 388.338 135.307 388.43 135.061L389.483 135.357C389.372 135.714 389.186 136.027 388.924 136.298C388.663 136.566 388.34 136.775 387.955 136.926C387.57 137.074 387.138 137.148 386.658 137.148ZM394.335 129.909V130.832H390.66V129.909H394.335ZM391.731 128.21H392.821V134.969C392.821 135.277 392.865 135.507 392.955 135.661C393.047 135.812 393.164 135.914 393.305 135.966C393.45 136.015 393.602 136.04 393.762 136.04C393.882 136.04 393.981 136.034 394.058 136.021C394.135 136.006 394.196 135.994 394.243 135.984L394.464 136.963C394.39 136.991 394.287 137.018 394.155 137.046C394.022 137.077 393.855 137.092 393.652 137.092C393.344 137.092 393.042 137.026 392.747 136.894C392.454 136.761 392.211 136.56 392.017 136.289C391.827 136.018 391.731 135.677 391.731 135.264V128.21ZM398.06 137.166C397.611 137.166 397.203 137.082 396.837 136.912C396.471 136.74 396.18 136.492 395.964 136.169C395.749 135.843 395.641 135.449 395.641 134.987C395.641 134.581 395.721 134.252 395.881 133.999C396.041 133.744 396.255 133.544 396.523 133.399C396.791 133.254 397.086 133.147 397.409 133.076C397.736 133.002 398.063 132.944 398.393 132.901C398.824 132.845 399.173 132.804 399.441 132.776C399.712 132.745 399.908 132.694 400.032 132.624C400.158 132.553 400.221 132.43 400.221 132.254V132.217C400.221 131.762 400.096 131.408 399.847 131.156C399.601 130.903 399.227 130.777 398.725 130.777C398.205 130.777 397.797 130.891 397.502 131.119C397.206 131.346 396.999 131.589 396.879 131.848L395.844 131.479C396.029 131.048 396.275 130.712 396.583 130.472C396.894 130.229 397.232 130.06 397.599 129.964C397.968 129.866 398.331 129.817 398.688 129.817C398.916 129.817 399.178 129.844 399.473 129.9C399.772 129.952 400.059 130.061 400.336 130.228C400.616 130.394 400.849 130.645 401.033 130.98C401.218 131.316 401.31 131.765 401.31 132.328V137H400.221V136.04H400.165C400.092 136.194 399.969 136.358 399.796 136.534C399.624 136.709 399.395 136.858 399.108 136.982C398.822 137.105 398.473 137.166 398.06 137.166ZM398.227 136.188C398.657 136.188 399.021 136.103 399.316 135.934C399.615 135.764 399.839 135.546 399.99 135.278C400.144 135.01 400.221 134.729 400.221 134.433V133.436C400.175 133.491 400.073 133.542 399.916 133.588C399.762 133.632 399.584 133.67 399.381 133.704C399.181 133.735 398.985 133.762 398.794 133.787C398.607 133.808 398.454 133.827 398.337 133.842C398.054 133.879 397.79 133.939 397.543 134.022C397.3 134.102 397.103 134.224 396.952 134.387C396.805 134.547 396.731 134.766 396.731 135.043C396.731 135.421 396.871 135.707 397.151 135.901C397.434 136.092 397.793 136.188 398.227 136.188ZM403.299 137V129.909H404.388V137H403.299ZM403.853 128.727C403.641 128.727 403.457 128.655 403.304 128.51C403.153 128.366 403.077 128.192 403.077 127.989C403.077 127.786 403.153 127.612 403.304 127.467C403.457 127.322 403.641 127.25 403.853 127.25C404.065 127.25 404.247 127.322 404.398 127.467C404.552 127.612 404.628 127.786 404.628 127.989C404.628 128.192 404.552 128.366 404.398 128.51C404.247 128.655 404.065 128.727 403.853 128.727ZM407.473 127.545V137H406.384V127.545H407.473ZM414.492 131.497L413.513 131.774C413.451 131.611 413.361 131.453 413.241 131.299C413.124 131.142 412.964 131.012 412.76 130.911C412.557 130.809 412.297 130.759 411.98 130.759C411.546 130.759 411.185 130.859 410.895 131.059C410.609 131.256 410.466 131.506 410.466 131.811C410.466 132.082 410.564 132.296 410.761 132.453C410.958 132.61 411.266 132.741 411.685 132.845L412.737 133.104C413.371 133.258 413.844 133.493 414.155 133.81C414.465 134.124 414.621 134.529 414.621 135.024C414.621 135.43 414.504 135.794 414.27 136.114C414.039 136.434 413.716 136.686 413.301 136.871C412.885 137.055 412.402 137.148 411.851 137.148C411.128 137.148 410.529 136.991 410.055 136.677C409.581 136.363 409.281 135.904 409.155 135.301L410.189 135.043C410.287 135.424 410.474 135.71 410.748 135.901C411.025 136.092 411.386 136.188 411.832 136.188C412.34 136.188 412.743 136.08 413.042 135.864C413.344 135.646 413.494 135.384 413.494 135.08C413.494 134.833 413.408 134.627 413.236 134.461C413.064 134.292 412.799 134.165 412.442 134.082L411.26 133.805C410.611 133.652 410.134 133.413 409.829 133.09C409.527 132.764 409.377 132.356 409.377 131.866C409.377 131.466 409.489 131.112 409.714 130.805C409.941 130.497 410.251 130.255 410.641 130.08C411.035 129.904 411.482 129.817 411.98 129.817C412.682 129.817 413.233 129.971 413.633 130.278C414.036 130.586 414.322 130.992 414.492 131.497ZM423.075 129.909V130.832H419.252V129.909H423.075ZM420.397 137V128.93C420.397 128.524 420.493 128.186 420.683 127.915C420.874 127.644 421.122 127.441 421.427 127.305C421.731 127.17 422.053 127.102 422.392 127.102C422.659 127.102 422.878 127.124 423.047 127.167C423.216 127.21 423.343 127.25 423.426 127.287L423.112 128.229C423.056 128.21 422.979 128.187 422.881 128.159C422.785 128.132 422.659 128.118 422.502 128.118C422.142 128.118 421.882 128.209 421.722 128.39C421.565 128.572 421.487 128.838 421.487 129.189V137H420.397ZM427.19 137.148C426.55 137.148 425.989 136.995 425.505 136.691C425.025 136.386 424.65 135.96 424.379 135.412C424.111 134.864 423.977 134.224 423.977 133.491C423.977 132.753 424.111 132.108 424.379 131.557C424.65 131.006 425.025 130.578 425.505 130.274C425.989 129.969 426.55 129.817 427.19 129.817C427.83 129.817 428.391 129.969 428.871 130.274C429.354 130.578 429.729 131.006 429.997 131.557C430.268 132.108 430.403 132.753 430.403 133.491C430.403 134.224 430.268 134.864 429.997 135.412C429.729 135.96 429.354 136.386 428.871 136.691C428.391 136.995 427.83 137.148 427.19 137.148ZM427.19 136.169C427.677 136.169 428.077 136.044 428.391 135.795C428.705 135.546 428.937 135.218 429.088 134.812C429.239 134.406 429.314 133.965 429.314 133.491C429.314 133.018 429.239 132.576 429.088 132.167C428.937 131.757 428.705 131.426 428.391 131.174C428.077 130.922 427.677 130.795 427.19 130.795C426.704 130.795 426.304 130.922 425.99 131.174C425.676 131.426 425.444 131.757 425.293 132.167C425.142 132.576 425.067 133.018 425.067 133.491C425.067 133.965 425.142 134.406 425.293 134.812C425.444 135.218 425.676 135.546 425.99 135.795C426.304 136.044 426.704 136.169 427.19 136.169ZM432.066 137V129.909H433.119V130.98H433.193C433.322 130.629 433.556 130.345 433.895 130.126C434.233 129.908 434.615 129.798 435.04 129.798C435.12 129.798 435.22 129.8 435.34 129.803C435.46 129.806 435.55 129.811 435.612 129.817V130.925C435.575 130.915 435.49 130.902 435.358 130.883C435.229 130.862 435.092 130.851 434.947 130.851C434.602 130.851 434.295 130.923 434.024 131.068C433.756 131.209 433.544 131.406 433.387 131.659C433.233 131.908 433.156 132.193 433.156 132.513V137H432.066ZM441.649 132.734V137H440.56V129.909H441.612V131.017H441.705C441.871 130.657 442.123 130.368 442.462 130.149C442.8 129.928 443.237 129.817 443.773 129.817C444.253 129.817 444.673 129.915 445.033 130.112C445.393 130.306 445.673 130.602 445.873 130.999C446.073 131.393 446.173 131.891 446.173 132.494V137H445.084V132.568C445.084 132.011 444.939 131.577 444.65 131.266C444.361 130.952 443.964 130.795 443.459 130.795C443.111 130.795 442.8 130.871 442.526 131.022C442.255 131.172 442.042 131.393 441.885 131.682C441.728 131.971 441.649 132.322 441.649 132.734ZM451.137 137.148C450.454 137.148 449.865 136.997 449.369 136.695C448.877 136.391 448.497 135.966 448.229 135.421C447.964 134.873 447.832 134.236 447.832 133.51C447.832 132.784 447.964 132.143 448.229 131.589C448.497 131.032 448.869 130.598 449.346 130.288C449.826 129.974 450.386 129.817 451.026 129.817C451.396 129.817 451.76 129.878 452.12 130.001C452.481 130.125 452.808 130.325 453.104 130.602C453.399 130.875 453.635 131.239 453.81 131.691C453.986 132.143 454.073 132.701 454.073 133.362V133.824H448.607V132.882H452.965C452.965 132.482 452.885 132.125 452.725 131.811C452.568 131.497 452.344 131.249 452.051 131.068C451.762 130.886 451.42 130.795 451.026 130.795C450.592 130.795 450.217 130.903 449.9 131.119C449.586 131.331 449.344 131.608 449.175 131.95C449.006 132.291 448.921 132.657 448.921 133.048V133.676C448.921 134.212 449.014 134.666 449.198 135.038C449.386 135.407 449.646 135.689 449.978 135.883C450.311 136.074 450.697 136.169 451.137 136.169C451.423 136.169 451.682 136.129 451.913 136.049C452.147 135.966 452.348 135.843 452.517 135.68C452.687 135.513 452.818 135.307 452.91 135.061L453.962 135.357C453.852 135.714 453.665 136.027 453.404 136.298C453.142 136.566 452.819 136.775 452.434 136.926C452.05 137.074 451.617 137.148 451.137 137.148ZM456.353 129.909L458.051 132.808L459.75 129.909H461.006L458.716 133.455L461.006 137H459.75L458.051 134.249L456.353 137H455.097L457.35 133.455L455.097 129.909H456.353ZM465.644 129.909V130.832H461.97V129.909H465.644ZM463.041 128.21H464.13V134.969C464.13 135.277 464.175 135.507 464.264 135.661C464.356 135.812 464.473 135.914 464.615 135.966C464.76 136.015 464.912 136.04 465.072 136.04C465.192 136.04 465.291 136.034 465.367 136.021C465.444 136.006 465.506 135.994 465.552 135.984L465.774 136.963C465.7 136.991 465.597 137.018 465.464 137.046C465.332 137.077 465.164 137.092 464.961 137.092C464.653 137.092 464.352 137.026 464.056 136.894C463.764 136.761 463.521 136.56 463.327 136.289C463.136 136.018 463.041 135.677 463.041 135.264V128.21ZM474.023 129.909V130.832H470.349V129.909H474.023ZM471.42 128.21H472.509V134.969C472.509 135.277 472.554 135.507 472.643 135.661C472.735 135.812 472.852 135.914 472.994 135.966C473.139 136.015 473.291 136.04 473.451 136.04C473.571 136.04 473.669 136.034 473.746 136.021C473.823 136.006 473.885 135.994 473.931 135.984L474.153 136.963C474.079 136.991 473.976 137.018 473.843 137.046C473.711 137.077 473.543 137.092 473.34 137.092C473.032 137.092 472.731 137.026 472.435 136.894C472.143 136.761 471.9 136.56 471.706 136.289C471.515 136.018 471.42 135.677 471.42 135.264V128.21ZM475.662 137V129.909H476.752V137H475.662ZM476.216 128.727C476.004 128.727 475.821 128.655 475.667 128.51C475.516 128.366 475.441 128.192 475.441 127.989C475.441 127.786 475.516 127.612 475.667 127.467C475.821 127.322 476.004 127.25 476.216 127.25C476.429 127.25 476.61 127.322 476.761 127.467C476.915 127.612 476.992 127.786 476.992 127.989C476.992 128.192 476.915 128.366 476.761 128.51C476.61 128.655 476.429 128.727 476.216 128.727ZM478.747 137V129.909H479.8V131.017H479.892C480.04 130.638 480.278 130.345 480.608 130.135C480.937 129.923 481.332 129.817 481.794 129.817C482.262 129.817 482.651 129.923 482.962 130.135C483.276 130.345 483.521 130.638 483.696 131.017H483.77C483.951 130.651 484.224 130.36 484.587 130.145C484.95 129.926 485.386 129.817 485.893 129.817C486.527 129.817 487.046 130.015 487.449 130.412C487.852 130.806 488.054 131.42 488.054 132.254V137H486.964V132.254C486.964 131.731 486.821 131.357 486.535 131.132C486.249 130.908 485.912 130.795 485.524 130.795C485.026 130.795 484.639 130.946 484.365 131.248C484.092 131.546 483.955 131.925 483.955 132.384V137H482.847V132.143C482.847 131.74 482.716 131.416 482.454 131.169C482.193 130.92 481.856 130.795 481.443 130.795C481.16 130.795 480.895 130.871 480.649 131.022C480.406 131.172 480.209 131.382 480.058 131.65C479.911 131.914 479.837 132.22 479.837 132.568V137H478.747ZM493.019 137.148C492.336 137.148 491.746 136.997 491.251 136.695C490.758 136.391 490.378 135.966 490.111 135.421C489.846 134.873 489.714 134.236 489.714 133.51C489.714 132.784 489.846 132.143 490.111 131.589C490.378 131.032 490.751 130.598 491.228 130.288C491.708 129.974 492.268 129.817 492.908 129.817C493.278 129.817 493.642 129.878 494.002 130.001C494.362 130.125 494.69 130.325 494.986 130.602C495.281 130.875 495.517 131.239 495.692 131.691C495.867 132.143 495.955 132.701 495.955 133.362V133.824H490.489V132.882H494.847C494.847 132.482 494.767 132.125 494.607 131.811C494.45 131.497 494.225 131.249 493.933 131.068C493.644 130.886 493.302 130.795 492.908 130.795C492.474 130.795 492.099 130.903 491.782 131.119C491.468 131.331 491.226 131.608 491.057 131.95C490.888 132.291 490.803 132.657 490.803 133.048V133.676C490.803 134.212 490.895 134.666 491.08 135.038C491.268 135.407 491.528 135.689 491.86 135.883C492.193 136.074 492.579 136.169 493.019 136.169C493.305 136.169 493.564 136.129 493.795 136.049C494.028 135.966 494.23 135.843 494.399 135.68C494.569 135.513 494.699 135.307 494.792 135.061L495.844 135.357C495.733 135.714 495.547 136.027 495.286 136.298C495.024 136.566 494.701 136.775 494.316 136.926C493.932 137.074 493.499 137.148 493.019 137.148ZM498.406 137.074C498.179 137.074 497.983 136.992 497.82 136.829C497.657 136.666 497.575 136.471 497.575 136.243C497.575 136.015 497.657 135.82 497.82 135.657C497.983 135.493 498.179 135.412 498.406 135.412C498.634 135.412 498.83 135.493 498.993 135.657C499.156 135.82 499.237 136.015 499.237 136.243C499.237 136.394 499.199 136.532 499.122 136.658C499.048 136.785 498.948 136.886 498.822 136.963C498.699 137.037 498.56 137.074 498.406 137.074Z" fill="#959BA3"/>
<g clip-path="url(#clip0_425_26763)">
<rect x="182" y="112" width="48" height="1" fill="#C54600"/>
<g clip-path="url(#clip1_425_26763)">
<rect x="182" y="100" width="24" height="24" rx="12" fill="#C54600"/>
<path d="M195.183 107.273V116H194.126V108.381H194.075L191.944 109.795V108.722L194.126 107.273H195.183Z" fill="white"/>
</g>
</g>
<g clip-path="url(#clip2_425_26763)">
<rect x="331.141" y="52" width="1" height="53.5455" fill="#C54600"/>
<g clip-path="url(#clip3_425_26763)">
<rect x="319.141" y="52" width="24" height="24" rx="12" fill="#C54600"/>
<path d="M328.411 68V67.233L331.292 64.0795C331.63 63.7102 331.908 63.3892 332.127 63.1165C332.346 62.8409 332.508 62.5824 332.613 62.3409C332.721 62.0966 332.775 61.8409 332.775 61.5739C332.775 61.267 332.701 61.0014 332.553 60.777C332.408 60.5526 332.21 60.3793 331.957 60.2571C331.704 60.1349 331.42 60.0739 331.104 60.0739C330.769 60.0739 330.477 60.1435 330.227 60.2827C329.979 60.419 329.788 60.6108 329.651 60.858C329.518 61.1051 329.451 61.3949 329.451 61.7273H328.445C328.445 61.2159 328.563 60.767 328.799 60.3807C329.035 59.9943 329.356 59.6932 329.762 59.4773C330.171 59.2614 330.63 59.1534 331.138 59.1534C331.65 59.1534 332.103 59.2614 332.498 59.4773C332.893 59.6932 333.202 59.9844 333.427 60.3509C333.651 60.7173 333.763 61.125 333.763 61.5739C333.763 61.8949 333.705 62.2088 333.589 62.5156C333.475 62.8196 333.276 63.1591 332.992 63.5341C332.711 63.9062 332.32 64.3608 331.82 64.8977L329.86 66.9943V67.0625H333.917V68H328.411Z" fill="white"/>
</g>
</g>
<g clip-path="url(#clip4_425_26763)">
<rect x="392.988" y="139.805" width="1" height="50.1932" fill="#C54600"/>
<g clip-path="url(#clip5_425_26763)">
<rect x="380.988" y="166" width="24" height="24" rx="12" fill="#C54600"/>
<path d="M393.02 182.119C392.458 182.119 391.956 182.023 391.516 181.83C391.078 181.636 390.73 181.368 390.472 181.024C390.216 180.678 390.077 180.276 390.054 179.818H391.128C391.151 180.099 391.248 180.342 391.418 180.547C391.588 180.749 391.811 180.905 392.087 181.016C392.363 181.126 392.668 181.182 393.003 181.182C393.378 181.182 393.711 181.116 394 180.986C394.29 180.855 394.517 180.673 394.682 180.44C394.847 180.207 394.929 179.938 394.929 179.631C394.929 179.31 394.85 179.027 394.691 178.783C394.532 178.536 394.299 178.342 393.992 178.203C393.685 178.064 393.31 177.994 392.867 177.994H392.168V177.057H392.867C393.213 177.057 393.517 176.994 393.779 176.869C394.043 176.744 394.249 176.568 394.397 176.341C394.547 176.114 394.623 175.847 394.623 175.54C394.623 175.244 394.557 174.987 394.426 174.768C394.296 174.55 394.111 174.379 393.873 174.257C393.637 174.135 393.358 174.074 393.037 174.074C392.736 174.074 392.452 174.129 392.185 174.24C391.921 174.348 391.705 174.506 391.537 174.713C391.37 174.918 391.279 175.165 391.265 175.455H390.242C390.259 174.997 390.397 174.597 390.655 174.253C390.914 173.906 391.252 173.636 391.669 173.443C392.09 173.25 392.551 173.153 393.054 173.153C393.594 173.153 394.057 173.263 394.444 173.482C394.83 173.697 395.127 173.983 395.334 174.338C395.542 174.693 395.645 175.077 395.645 175.489C395.645 175.98 395.516 176.399 395.257 176.746C395.002 177.092 394.654 177.332 394.213 177.466V177.534C394.765 177.625 395.195 177.859 395.505 178.237C395.814 178.612 395.969 179.077 395.969 179.631C395.969 180.105 395.84 180.531 395.581 180.909C395.326 181.284 394.976 181.58 394.533 181.795C394.09 182.011 393.586 182.119 393.02 182.119Z" fill="white"/>
</g>
</g>
<defs>
<clipPath id="clip0_425_26763">
<rect width="48" height="24" fill="white" transform="translate(182 100)"/>
</clipPath>
<clipPath id="clip1_425_26763">
<rect x="182" y="100" width="24" height="24" rx="12" fill="white"/>
</clipPath>
<clipPath id="clip2_425_26763">
<rect width="24" height="53.5455" fill="white" transform="translate(319.141 52)"/>
</clipPath>
<clipPath id="clip3_425_26763">
<rect x="319.141" y="52" width="24" height="24" rx="12" fill="white"/>
</clipPath>
<clipPath id="clip4_425_26763">
<rect width="24" height="50.1932" fill="white" transform="translate(380.988 139.805)"/>
</clipPath>
<clipPath id="clip5_425_26763">
<rect x="380.988" y="166" width="24" height="24" rx="12" fill="white"/>
</clipPath>
</defs>
</svg>
