<svg width="390" height="200" viewBox="0 0 390 200" fill="none" xmlns="http://www.w3.org/2000/svg">
<rect width="390" height="200" rx="8" fill="#4CA154" fill-opacity="0.1"/>
<line x1="38" y1="59" x2="352" y2="59" stroke="#4CA154" stroke-width="2" stroke-linecap="round"/>
<path d="M37 90C37 84.4772 41.4772 80 47 80H63C68.5228 80 73 84.4772 73 90V90C73 95.5228 68.5228 100 63 100H47C41.4772 100 37 95.5228 37 90V90Z" fill="#217CF5"/>
<circle cx="63" cy="90" r="8" fill="#FCFCFD"/>
<path d="M88.7727 89.2727C88.7045 88.697 88.428 88.25 87.9432 87.9318C87.4583 87.6136 86.8636 87.4545 86.1591 87.4545C85.6439 87.4545 85.1932 87.5379 84.8068 87.7045C84.4242 87.8712 84.125 88.1004 83.9091 88.392C83.697 88.6837 83.5909 89.0152 83.5909 89.3864C83.5909 89.697 83.6648 89.964 83.8125 90.1875C83.964 90.4072 84.1572 90.5909 84.392 90.7386C84.6269 90.8826 84.8731 91.0019 85.1307 91.0966C85.3883 91.1875 85.625 91.2614 85.8409 91.3182L87.0227 91.6364C87.3258 91.7159 87.6629 91.8258 88.0341 91.9659C88.4091 92.1061 88.767 92.2973 89.108 92.5398C89.4527 92.7784 89.7367 93.0852 89.9602 93.4602C90.1837 93.8352 90.2955 94.2955 90.2955 94.8409C90.2955 95.4697 90.1307 96.0379 89.8011 96.5455C89.4754 97.053 88.9981 97.4564 88.3693 97.7557C87.7443 98.0549 86.9848 98.2045 86.0909 98.2045C85.2576 98.2045 84.536 98.0701 83.9261 97.8011C83.3201 97.5322 82.8428 97.1572 82.4943 96.6761C82.1496 96.1951 81.9545 95.6364 81.9091 95H83.3636C83.4015 95.4394 83.5492 95.803 83.8068 96.0909C84.0682 96.375 84.3977 96.5871 84.7955 96.7273C85.197 96.8636 85.6288 96.9318 86.0909 96.9318C86.6288 96.9318 87.1117 96.8447 87.5398 96.6705C87.9678 96.4924 88.3068 96.2462 88.5568 95.9318C88.8068 95.6136 88.9318 95.2424 88.9318 94.8182C88.9318 94.4318 88.8239 94.1174 88.608 93.875C88.392 93.6326 88.108 93.4356 87.7557 93.2841C87.4034 93.1326 87.0227 93 86.6136 92.8864L85.1818 92.4773C84.2727 92.2159 83.553 91.8428 83.0227 91.358C82.4924 90.8731 82.2273 90.2386 82.2273 89.4545C82.2273 88.803 82.4034 88.2348 82.7557 87.75C83.1117 87.2614 83.589 86.8826 84.1875 86.6136C84.7898 86.3409 85.4621 86.2045 86.2045 86.2045C86.9545 86.2045 87.6212 86.339 88.2045 86.608C88.7879 86.8731 89.25 87.2367 89.5909 87.6989C89.9356 88.161 90.1174 88.6856 90.1364 89.2727H88.7727ZM95.8395 98.1818C94.9986 98.1818 94.2732 97.9962 93.6634 97.625C93.0573 97.25 92.5895 96.7273 92.2599 96.0568C91.9342 95.3826 91.7713 94.5985 91.7713 93.7045C91.7713 92.8106 91.9342 92.0227 92.2599 91.3409C92.5895 90.6553 93.0478 90.1212 93.6349 89.7386C94.2259 89.3523 94.9152 89.1591 95.7031 89.1591C96.1577 89.1591 96.6065 89.2348 97.0497 89.3864C97.4929 89.5379 97.8963 89.7841 98.2599 90.125C98.6236 90.4621 98.9134 90.9091 99.1293 91.4659C99.3452 92.0227 99.4531 92.7083 99.4531 93.5227V94.0909H92.7259V92.9318H98.0895C98.0895 92.4394 97.991 92 97.794 91.6136C97.6009 91.2273 97.3243 90.9223 96.9645 90.6989C96.6084 90.4754 96.188 90.3636 95.7031 90.3636C95.169 90.3636 94.7069 90.4962 94.3168 90.7614C93.9304 91.0227 93.633 91.3636 93.4247 91.7841C93.2164 92.2045 93.1122 92.6553 93.1122 93.1364V93.9091C93.1122 94.5682 93.2259 95.1269 93.4531 95.5852C93.6842 96.0398 94.0043 96.3864 94.4134 96.625C94.8224 96.8598 95.2978 96.9773 95.8395 96.9773C96.1918 96.9773 96.5099 96.928 96.794 96.8295C97.0819 96.7273 97.33 96.5758 97.5384 96.375C97.7467 96.1705 97.9077 95.9167 98.0213 95.6136L99.3168 95.9773C99.1804 96.4167 98.9512 96.803 98.6293 97.1364C98.3073 97.4659 97.9096 97.7235 97.4361 97.9091C96.9626 98.0909 96.4304 98.1818 95.8395 98.1818ZM107.197 101.273V96.6591H107.084C106.985 96.8182 106.845 97.0189 106.663 97.2614C106.482 97.5 106.222 97.714 105.885 97.9034C105.548 98.089 105.099 98.1818 104.538 98.1818C103.811 98.1818 103.169 97.9981 102.612 97.6307C102.055 97.2595 101.62 96.7367 101.305 96.0625C100.991 95.3845 100.834 94.5833 100.834 93.6591C100.834 92.7424 100.991 91.947 101.305 91.2727C101.62 90.5985 102.057 90.0777 102.618 89.7102C103.179 89.3428 103.826 89.1591 104.561 89.1591C105.129 89.1591 105.578 89.2538 105.908 89.4432C106.241 89.6288 106.495 89.8409 106.669 90.0795C106.847 90.3144 106.985 90.5076 107.084 90.6591H107.243V89.2727H108.538V101.273H107.197ZM104.72 96.9773C105.258 96.9773 105.713 96.8371 106.084 96.5568C106.455 96.2727 106.737 95.8807 106.93 95.3807C107.124 94.8769 107.22 94.2955 107.22 93.6364C107.22 92.9848 107.125 92.4148 106.936 91.9261C106.747 91.4337 106.466 91.0511 106.095 90.7784C105.724 90.5019 105.266 90.3636 104.72 90.3636C104.152 90.3636 103.679 90.5095 103.3 90.8011C102.925 91.089 102.643 91.4811 102.453 91.9773C102.268 92.4697 102.175 93.0227 102.175 93.6364C102.175 94.2576 102.269 94.822 102.459 95.3295C102.652 95.8333 102.936 96.2348 103.311 96.5341C103.69 96.8295 104.16 96.9773 104.72 96.9773ZM116.243 94.4318V89.2727H117.584V98H116.243V96.5227H116.152C115.947 96.9659 115.629 97.3428 115.197 97.6534C114.766 97.9602 114.22 98.1136 113.561 98.1136C113.016 98.1136 112.531 97.9943 112.107 97.7557C111.682 97.5133 111.349 97.1496 111.107 96.6648C110.864 96.1761 110.743 95.5606 110.743 94.8182V89.2727H112.084V94.7273C112.084 95.3636 112.262 95.8712 112.618 96.25C112.978 96.6288 113.436 96.8182 113.993 96.8182C114.326 96.8182 114.665 96.733 115.01 96.5625C115.358 96.392 115.65 96.1307 115.885 95.7784C116.124 95.4261 116.243 94.9773 116.243 94.4318ZM119.79 98V89.2727H121.131V98H119.79ZM120.472 87.8182C120.21 87.8182 119.985 87.7292 119.795 87.5511C119.61 87.3731 119.517 87.1591 119.517 86.9091C119.517 86.6591 119.61 86.4451 119.795 86.267C119.985 86.089 120.21 86 120.472 86C120.733 86 120.956 86.089 121.142 86.267C121.331 86.4451 121.426 86.6591 121.426 86.9091C121.426 87.1591 121.331 87.3731 121.142 87.5511C120.956 87.7292 120.733 87.8182 120.472 87.8182ZM128.928 92.75V98H127.587V89.2727H128.882V90.6364H128.996C129.2 90.1932 129.511 89.8371 129.928 89.5682C130.344 89.2955 130.882 89.1591 131.541 89.1591C132.132 89.1591 132.649 89.2803 133.092 89.5227C133.536 89.7614 133.88 90.125 134.126 90.6136C134.373 91.0985 134.496 91.7121 134.496 92.4545V98H133.155V92.5455C133.155 91.8598 132.977 91.3258 132.621 90.9432C132.265 90.5568 131.776 90.3636 131.155 90.3636C130.727 90.3636 130.344 90.4564 130.007 90.642C129.674 90.8277 129.411 91.0985 129.217 91.4545C129.024 91.8106 128.928 92.2424 128.928 92.75ZM140.241 98.1818C139.454 98.1818 138.762 97.9943 138.168 97.6193C137.577 97.2443 137.115 96.7197 136.781 96.0455C136.452 95.3712 136.287 94.5833 136.287 93.6818C136.287 92.7727 136.452 91.9792 136.781 91.3011C137.115 90.6231 137.577 90.0966 138.168 89.7216C138.762 89.3466 139.454 89.1591 140.241 89.1591C141.029 89.1591 141.719 89.3466 142.31 89.7216C142.904 90.0966 143.366 90.6231 143.696 91.3011C144.029 91.9792 144.196 92.7727 144.196 93.6818C144.196 94.5833 144.029 95.3712 143.696 96.0455C143.366 96.7197 142.904 97.2443 142.31 97.6193C141.719 97.9943 141.029 98.1818 140.241 98.1818ZM140.241 96.9773C140.84 96.9773 141.332 96.8239 141.719 96.517C142.105 96.2102 142.391 95.8068 142.577 95.3068C142.762 94.8068 142.855 94.2652 142.855 93.6818C142.855 93.0985 142.762 92.5549 142.577 92.0511C142.391 91.5473 142.105 91.1402 141.719 90.8295C141.332 90.5189 140.84 90.3636 140.241 90.3636C139.643 90.3636 139.151 90.5189 138.764 90.8295C138.378 91.1402 138.092 91.5473 137.906 92.0511C137.721 92.5549 137.628 93.0985 137.628 93.6818C137.628 94.2652 137.721 94.8068 137.906 95.3068C138.092 95.8068 138.378 96.2102 138.764 96.517C139.151 96.8239 139.643 96.9773 140.241 96.9773ZM147.334 92.75V98H145.993V89.2727H147.288V90.6364H147.402C147.607 90.1932 147.917 89.8371 148.334 89.5682C148.75 89.2955 149.288 89.1591 149.947 89.1591C150.538 89.1591 151.055 89.2803 151.499 89.5227C151.942 89.7614 152.286 90.125 152.533 90.6136C152.779 91.0985 152.902 91.7121 152.902 92.4545V98H151.561V92.5455C151.561 91.8598 151.383 91.3258 151.027 90.9432C150.671 90.5568 150.182 90.3636 149.561 90.3636C149.133 90.3636 148.75 90.4564 148.413 90.642C148.08 90.8277 147.817 91.0985 147.624 91.4545C147.43 91.8106 147.334 92.2424 147.334 92.75ZM162.898 98.1818C162.11 98.1818 161.419 97.9943 160.824 97.6193C160.233 97.2443 159.771 96.7197 159.438 96.0455C159.108 95.3712 158.943 94.5833 158.943 93.6818C158.943 92.7727 159.108 91.9792 159.438 91.3011C159.771 90.6231 160.233 90.0966 160.824 89.7216C161.419 89.3466 162.11 89.1591 162.898 89.1591C163.686 89.1591 164.375 89.3466 164.966 89.7216C165.561 90.0966 166.023 90.6231 166.352 91.3011C166.686 91.9792 166.852 92.7727 166.852 93.6818C166.852 94.5833 166.686 95.3712 166.352 96.0455C166.023 96.7197 165.561 97.2443 164.966 97.6193C164.375 97.9943 163.686 98.1818 162.898 98.1818ZM162.898 96.9773C163.496 96.9773 163.989 96.8239 164.375 96.517C164.761 96.2102 165.047 95.8068 165.233 95.3068C165.419 94.8068 165.511 94.2652 165.511 93.6818C165.511 93.0985 165.419 92.5549 165.233 92.0511C165.047 91.5473 164.761 91.1402 164.375 90.8295C163.989 90.5189 163.496 90.3636 162.898 90.3636C162.299 90.3636 161.807 90.5189 161.42 90.8295C161.034 91.1402 160.748 91.5473 160.562 92.0511C160.377 92.5549 160.284 93.0985 160.284 93.6818C160.284 94.2652 160.377 94.8068 160.562 95.3068C160.748 95.8068 161.034 96.2102 161.42 96.517C161.807 96.8239 162.299 96.9773 162.898 96.9773ZM168.649 98V89.2727H169.945V90.6364H170.058C170.24 90.1705 170.534 89.8087 170.939 89.5511C171.344 89.2898 171.831 89.1591 172.399 89.1591C172.975 89.1591 173.454 89.2898 173.837 89.5511C174.223 89.8087 174.524 90.1705 174.74 90.6364H174.831C175.054 90.1856 175.39 89.8277 175.837 89.5625C176.284 89.2936 176.82 89.1591 177.445 89.1591C178.225 89.1591 178.863 89.4034 179.359 89.892C179.856 90.3769 180.104 91.1326 180.104 92.1591V98H178.763V92.1591C178.763 91.5152 178.587 91.0549 178.234 90.7784C177.882 90.5019 177.467 90.3636 176.99 90.3636C176.376 90.3636 175.901 90.5492 175.564 90.9205C175.227 91.2879 175.058 91.7538 175.058 92.3182V98H173.695V92.0227C173.695 91.5265 173.534 91.1269 173.212 90.8239C172.89 90.517 172.475 90.3636 171.967 90.3636C171.619 90.3636 171.293 90.4564 170.99 90.642C170.691 90.8277 170.448 91.0852 170.263 91.4148C170.081 91.7405 169.99 92.1174 169.99 92.5455V98H168.649ZM183.646 92.75V98H182.305V89.2727H183.601V90.6364H183.714C183.919 90.1932 184.23 89.8371 184.646 89.5682C185.063 89.2955 185.601 89.1591 186.26 89.1591C186.851 89.1591 187.368 89.2803 187.811 89.5227C188.254 89.7614 188.599 90.125 188.845 90.6136C189.091 91.0985 189.214 91.7121 189.214 92.4545V98H187.874V92.5455C187.874 91.8598 187.696 91.3258 187.339 90.9432C186.983 90.5568 186.495 90.3636 185.874 90.3636C185.446 90.3636 185.063 90.4564 184.726 90.642C184.393 90.8277 184.129 91.0985 183.936 91.4545C183.743 91.8106 183.646 92.2424 183.646 92.75ZM191.415 98V89.2727H192.756V98H191.415ZM192.097 87.8182C191.835 87.8182 191.61 87.7292 191.42 87.5511C191.235 87.3731 191.142 87.1591 191.142 86.9091C191.142 86.6591 191.235 86.4451 191.42 86.267C191.61 86.089 191.835 86 192.097 86C192.358 86 192.581 86.089 192.767 86.267C192.956 86.4451 193.051 86.6591 193.051 86.9091C193.051 87.1591 192.956 87.3731 192.767 87.5511C192.581 87.7292 192.358 87.8182 192.097 87.8182ZM201.143 91.2273L199.939 91.5682C199.863 91.3674 199.751 91.1723 199.604 90.983C199.46 90.7898 199.263 90.6307 199.013 90.5057C198.763 90.3807 198.443 90.3182 198.053 90.3182C197.518 90.3182 197.073 90.4413 196.717 90.6875C196.365 90.9299 196.189 91.2386 196.189 91.6136C196.189 91.947 196.31 92.2102 196.553 92.4034C196.795 92.5966 197.174 92.7576 197.689 92.8864L198.984 93.2045C199.765 93.3939 200.346 93.6837 200.729 94.0739C201.111 94.4602 201.303 94.9583 201.303 95.5682C201.303 96.0682 201.159 96.5152 200.871 96.9091C200.587 97.303 200.189 97.6136 199.678 97.8409C199.166 98.0682 198.571 98.1818 197.893 98.1818C197.003 98.1818 196.267 97.9886 195.683 97.6023C195.1 97.2159 194.731 96.6515 194.575 95.9091L195.848 95.5909C195.969 96.0606 196.198 96.4129 196.536 96.6477C196.876 96.8826 197.321 97 197.871 97C198.496 97 198.992 96.8674 199.359 96.6023C199.731 96.3333 199.916 96.0114 199.916 95.6364C199.916 95.3333 199.81 95.0795 199.598 94.875C199.386 94.6667 199.06 94.5114 198.621 94.4091L197.166 94.0682C196.367 93.8788 195.78 93.5852 195.405 93.1875C195.034 92.786 194.848 92.2841 194.848 91.6818C194.848 91.1894 194.986 90.7538 195.263 90.375C195.543 89.9962 195.924 89.6989 196.405 89.483C196.89 89.267 197.439 89.1591 198.053 89.1591C198.916 89.1591 199.594 89.3485 200.087 89.7273C200.583 90.1061 200.935 90.6061 201.143 91.2273ZM214.457 89.2727L211.23 98H209.866L206.639 89.2727H208.094L210.503 96.2273H210.594L213.003 89.2727H214.457ZM219.324 98.1818C218.483 98.1818 217.758 97.9962 217.148 97.625C216.542 97.25 216.074 96.7273 215.744 96.0568C215.419 95.3826 215.256 94.5985 215.256 93.7045C215.256 92.8106 215.419 92.0227 215.744 91.3409C216.074 90.6553 216.532 90.1212 217.119 89.7386C217.71 89.3523 218.4 89.1591 219.188 89.1591C219.642 89.1591 220.091 89.2348 220.534 89.3864C220.977 89.5379 221.381 89.7841 221.744 90.125C222.108 90.4621 222.398 90.9091 222.614 91.4659C222.83 92.0227 222.938 92.7083 222.938 93.5227V94.0909H216.21V92.9318H221.574C221.574 92.4394 221.475 92 221.278 91.6136C221.085 91.2273 220.809 90.9223 220.449 90.6989C220.093 90.4754 219.672 90.3636 219.188 90.3636C218.653 90.3636 218.191 90.4962 217.801 90.7614C217.415 91.0227 217.117 91.3636 216.909 91.7841C216.701 92.2045 216.597 92.6553 216.597 93.1364V93.9091C216.597 94.5682 216.71 95.1269 216.938 95.5852C217.169 96.0398 217.489 96.3864 217.898 96.625C218.307 96.8598 218.782 96.9773 219.324 96.9773C219.676 96.9773 219.994 96.928 220.278 96.8295C220.566 96.7273 220.814 96.5758 221.023 96.375C221.231 96.1705 221.392 95.9167 221.506 95.6136L222.801 95.9773C222.665 96.4167 222.436 96.803 222.114 97.1364C221.792 97.4659 221.394 97.7235 220.92 97.9091C220.447 98.0909 219.915 98.1818 219.324 98.1818ZM226.068 86.3636V98H224.727V86.3636H226.068ZM228.274 98V89.2727H229.615V98H228.274ZM228.956 87.8182C228.695 87.8182 228.469 87.7292 228.28 87.5511C228.094 87.3731 228.001 87.1591 228.001 86.9091C228.001 86.6591 228.094 86.4451 228.28 86.267C228.469 86.089 228.695 86 228.956 86C229.217 86 229.441 86.089 229.626 86.267C229.816 86.4451 229.911 86.6591 229.911 86.9091C229.911 87.1591 229.816 87.3731 229.626 87.5511C229.441 87.7292 229.217 87.8182 228.956 87.8182ZM235.616 89.2727V90.4091H231.094V89.2727H235.616ZM232.412 87.1818H233.753V95.5C233.753 95.8788 233.808 96.1629 233.918 96.3523C234.031 96.5379 234.175 96.6629 234.349 96.7273C234.527 96.7879 234.715 96.8182 234.912 96.8182C235.06 96.8182 235.181 96.8106 235.276 96.7955C235.37 96.7765 235.446 96.7614 235.503 96.75L235.776 97.9545C235.685 97.9886 235.558 98.0227 235.395 98.0568C235.232 98.0947 235.026 98.1136 234.776 98.1136C234.397 98.1136 234.026 98.0322 233.662 97.8693C233.302 97.7064 233.003 97.4583 232.764 97.125C232.529 96.7917 232.412 96.3712 232.412 95.8636V87.1818ZM242.974 92.75V98H241.634V89.2727H242.929V90.6364H243.043C243.247 90.1932 243.558 89.8371 243.974 89.5682C244.391 89.2955 244.929 89.1591 245.588 89.1591C246.179 89.1591 246.696 89.2803 247.139 89.5227C247.582 89.7614 247.927 90.125 248.173 90.6136C248.42 91.0985 248.543 91.7121 248.543 92.4545V98H247.202V92.5455C247.202 91.8598 247.024 91.3258 246.668 90.9432C246.312 90.5568 245.823 90.3636 245.202 90.3636C244.774 90.3636 244.391 90.4564 244.054 90.642C243.721 90.8277 243.457 91.0985 243.264 91.4545C243.071 91.8106 242.974 92.2424 242.974 92.75ZM254.288 98.1818C253.5 98.1818 252.809 97.9943 252.214 97.6193C251.624 97.2443 251.161 96.7197 250.828 96.0455C250.499 95.3712 250.334 94.5833 250.334 93.6818C250.334 92.7727 250.499 91.9792 250.828 91.3011C251.161 90.6231 251.624 90.0966 252.214 89.7216C252.809 89.3466 253.5 89.1591 254.288 89.1591C255.076 89.1591 255.766 89.3466 256.357 89.7216C256.951 90.0966 257.413 90.6231 257.743 91.3011C258.076 91.9792 258.243 92.7727 258.243 93.6818C258.243 94.5833 258.076 95.3712 257.743 96.0455C257.413 96.7197 256.951 97.2443 256.357 97.6193C255.766 97.9943 255.076 98.1818 254.288 98.1818ZM254.288 96.9773C254.887 96.9773 255.379 96.8239 255.766 96.517C256.152 96.2102 256.438 95.8068 256.624 95.3068C256.809 94.8068 256.902 94.2652 256.902 93.6818C256.902 93.0985 256.809 92.5549 256.624 92.0511C256.438 91.5473 256.152 91.1402 255.766 90.8295C255.379 90.5189 254.887 90.3636 254.288 90.3636C253.69 90.3636 253.197 90.5189 252.811 90.8295C252.425 91.1402 252.139 91.5473 251.953 92.0511C251.768 92.5549 251.675 93.0985 251.675 93.6818C251.675 94.2652 251.768 94.8068 251.953 95.3068C252.139 95.8068 252.425 96.2102 252.811 96.517C253.197 96.8239 253.69 96.9773 254.288 96.9773ZM261.381 92.75V98H260.04V89.2727H261.335V90.6364H261.449C261.653 90.1932 261.964 89.8371 262.381 89.5682C262.797 89.2955 263.335 89.1591 263.994 89.1591C264.585 89.1591 265.102 89.2803 265.545 89.5227C265.989 89.7614 266.333 90.125 266.58 90.6136C266.826 91.0985 266.949 91.7121 266.949 92.4545V98H265.608V92.5455C265.608 91.8598 265.43 91.3258 265.074 90.9432C264.718 90.5568 264.229 90.3636 263.608 90.3636C263.18 90.3636 262.797 90.4564 262.46 90.642C262.127 90.8277 261.864 91.0985 261.67 91.4545C261.477 91.8106 261.381 92.2424 261.381 92.75ZM277.058 98.1818C276.217 98.1818 275.492 97.9962 274.882 97.625C274.276 97.25 273.808 96.7273 273.479 96.0568C273.153 95.3826 272.99 94.5985 272.99 93.7045C272.99 92.8106 273.153 92.0227 273.479 91.3409C273.808 90.6553 274.267 90.1212 274.854 89.7386C275.445 89.3523 276.134 89.1591 276.922 89.1591C277.376 89.1591 277.825 89.2348 278.268 89.3864C278.712 89.5379 279.115 89.7841 279.479 90.125C279.842 90.4621 280.132 90.9091 280.348 91.4659C280.564 92.0227 280.672 92.7083 280.672 93.5227V94.0909H273.945V92.9318H279.308C279.308 92.4394 279.21 92 279.013 91.6136C278.82 91.2273 278.543 90.9223 278.183 90.6989C277.827 90.4754 277.407 90.3636 276.922 90.3636C276.388 90.3636 275.926 90.4962 275.536 90.7614C275.149 91.0227 274.852 91.3636 274.643 91.7841C274.435 92.2045 274.331 92.6553 274.331 93.1364V93.9091C274.331 94.5682 274.445 95.1269 274.672 95.5852C274.903 96.0398 275.223 96.3864 275.632 96.625C276.041 96.8598 276.517 96.9773 277.058 96.9773C277.411 96.9773 277.729 96.928 278.013 96.8295C278.301 96.7273 278.549 96.5758 278.757 96.375C278.965 96.1705 279.126 95.9167 279.24 95.6136L280.536 95.9773C280.399 96.4167 280.17 96.803 279.848 97.1364C279.526 97.4659 279.128 97.7235 278.655 97.9091C278.181 98.0909 277.649 98.1818 277.058 98.1818ZM288.643 91.2273L287.439 91.5682C287.363 91.3674 287.251 91.1723 287.104 90.983C286.96 90.7898 286.763 90.6307 286.513 90.5057C286.263 90.3807 285.943 90.3182 285.553 90.3182C285.018 90.3182 284.573 90.4413 284.217 90.6875C283.865 90.9299 283.689 91.2386 283.689 91.6136C283.689 91.947 283.81 92.2102 284.053 92.4034C284.295 92.5966 284.674 92.7576 285.189 92.8864L286.484 93.2045C287.265 93.3939 287.846 93.6837 288.229 94.0739C288.611 94.4602 288.803 94.9583 288.803 95.5682C288.803 96.0682 288.659 96.5152 288.371 96.9091C288.087 97.303 287.689 97.6136 287.178 97.8409C286.666 98.0682 286.071 98.1818 285.393 98.1818C284.503 98.1818 283.767 97.9886 283.183 97.6023C282.6 97.2159 282.231 96.6515 282.075 95.9091L283.348 95.5909C283.469 96.0606 283.698 96.4129 284.036 96.6477C284.376 96.8826 284.821 97 285.371 97C285.996 97 286.492 96.8674 286.859 96.6023C287.231 96.3333 287.416 96.0114 287.416 95.6364C287.416 95.3333 287.31 95.0795 287.098 94.875C286.886 94.6667 286.56 94.5114 286.121 94.4091L284.666 94.0682C283.867 93.8788 283.28 93.5852 282.905 93.1875C282.534 92.786 282.348 92.2841 282.348 91.6818C282.348 91.1894 282.486 90.7538 282.763 90.375C283.043 89.9962 283.424 89.6989 283.905 89.483C284.39 89.267 284.939 89.1591 285.553 89.1591C286.416 89.1591 287.094 89.3485 287.587 89.7273C288.083 90.1061 288.435 90.6061 288.643 91.2273ZM294.366 89.2727V90.4091H289.844V89.2727H294.366ZM291.162 87.1818H292.503V95.5C292.503 95.8788 292.558 96.1629 292.668 96.3523C292.781 96.5379 292.925 96.6629 293.099 96.7273C293.277 96.7879 293.465 96.8182 293.662 96.8182C293.81 96.8182 293.931 96.8106 294.026 96.7955C294.12 96.7765 294.196 96.7614 294.253 96.75L294.526 97.9545C294.435 97.9886 294.308 98.0227 294.145 98.0568C293.982 98.0947 293.776 98.1136 293.526 98.1136C293.147 98.1136 292.776 98.0322 292.412 97.8693C292.052 97.7064 291.753 97.4583 291.514 97.125C291.279 96.7917 291.162 96.3712 291.162 95.8636V87.1818ZM300.384 101.273V89.2727H301.679V90.6591H301.838C301.937 90.5076 302.073 90.3144 302.247 90.0795C302.425 89.8409 302.679 89.6288 303.009 89.4432C303.342 89.2538 303.793 89.1591 304.361 89.1591C305.096 89.1591 305.743 89.3428 306.304 89.7102C306.865 90.0777 307.302 90.5985 307.616 91.2727C307.931 91.947 308.088 92.7424 308.088 93.6591C308.088 94.5833 307.931 95.3845 307.616 96.0625C307.302 96.7367 306.866 97.2595 306.31 97.6307C305.753 97.9981 305.111 98.1818 304.384 98.1818C303.823 98.1818 303.374 98.089 303.037 97.9034C302.7 97.714 302.44 97.5 302.259 97.2614C302.077 97.0189 301.937 96.8182 301.838 96.6591H301.724V101.273H300.384ZM301.702 93.6364C301.702 94.2955 301.798 94.8769 301.991 95.3807C302.185 95.8807 302.467 96.2727 302.838 96.5568C303.209 96.8371 303.664 96.9773 304.202 96.9773C304.762 96.9773 305.23 96.8295 305.605 96.5341C305.984 96.2348 306.268 95.8333 306.457 95.3295C306.651 94.822 306.747 94.2576 306.747 93.6364C306.747 93.0227 306.652 92.4697 306.463 91.9773C306.277 91.4811 305.995 91.089 305.616 90.8011C305.241 90.5095 304.77 90.3636 304.202 90.3636C303.656 90.3636 303.198 90.5019 302.827 90.7784C302.455 91.0511 302.175 91.4337 301.986 91.9261C301.796 92.4148 301.702 92.9848 301.702 93.6364ZM313.429 98.1818C312.641 98.1818 311.95 97.9943 311.355 97.6193C310.764 97.2443 310.302 96.7197 309.969 96.0455C309.639 95.3712 309.474 94.5833 309.474 93.6818C309.474 92.7727 309.639 91.9792 309.969 91.3011C310.302 90.6231 310.764 90.0966 311.355 89.7216C311.95 89.3466 312.641 89.1591 313.429 89.1591C314.217 89.1591 314.906 89.3466 315.497 89.7216C316.092 90.0966 316.554 90.6231 316.884 91.3011C317.217 91.9792 317.384 92.7727 317.384 93.6818C317.384 94.5833 317.217 95.3712 316.884 96.0455C316.554 96.7197 316.092 97.2443 315.497 97.6193C314.906 97.9943 314.217 98.1818 313.429 98.1818ZM313.429 96.9773C314.027 96.9773 314.52 96.8239 314.906 96.517C315.293 96.2102 315.579 95.8068 315.764 95.3068C315.95 94.8068 316.043 94.2652 316.043 93.6818C316.043 93.0985 315.95 92.5549 315.764 92.0511C315.579 91.5473 315.293 91.1402 314.906 90.8295C314.52 90.5189 314.027 90.3636 313.429 90.3636C312.83 90.3636 312.338 90.5189 311.952 90.8295C311.565 91.1402 311.279 91.5473 311.094 92.0511C310.908 92.5549 310.815 93.0985 310.815 93.6818C310.815 94.2652 310.908 94.8068 311.094 95.3068C311.279 95.8068 311.565 96.2102 311.952 96.517C312.338 96.8239 312.83 96.9773 313.429 96.9773ZM319.18 98V89.2727H320.476V90.5909H320.567C320.726 90.1591 321.014 89.8087 321.43 89.5398C321.847 89.2708 322.317 89.1364 322.839 89.1364C322.938 89.1364 323.061 89.1383 323.209 89.142C323.357 89.1458 323.468 89.1515 323.544 89.1591V90.5227C323.499 90.5114 323.394 90.4943 323.232 90.4716C323.072 90.4451 322.904 90.4318 322.726 90.4318C322.302 90.4318 321.923 90.5208 321.589 90.6989C321.26 90.8731 320.999 91.1155 320.805 91.4261C320.616 91.733 320.521 92.0833 320.521 92.4773V98H319.18ZM324.884 98V89.2727H326.179V90.5909H326.27C326.429 90.1591 326.717 89.8087 327.134 89.5398C327.55 89.2708 328.02 89.1364 328.543 89.1364C328.641 89.1364 328.764 89.1383 328.912 89.142C329.06 89.1458 329.171 89.1515 329.247 89.1591V90.5227C329.202 90.5114 329.098 90.4943 328.935 90.4716C328.776 90.4451 328.607 90.4318 328.429 90.4318C328.005 90.4318 327.626 90.5208 327.293 90.6989C326.963 90.8731 326.702 91.1155 326.509 91.4261C326.319 91.733 326.224 92.0833 326.224 92.4773V98H324.884ZM333.866 98.1818C333.079 98.1818 332.387 97.9943 331.793 97.6193C331.202 97.2443 330.74 96.7197 330.406 96.0455C330.077 95.3712 329.912 94.5833 329.912 93.6818C329.912 92.7727 330.077 91.9792 330.406 91.3011C330.74 90.6231 331.202 90.0966 331.793 89.7216C332.387 89.3466 333.079 89.1591 333.866 89.1591C334.654 89.1591 335.344 89.3466 335.935 89.7216C336.529 90.0966 336.991 90.6231 337.321 91.3011C337.654 91.9792 337.821 92.7727 337.821 93.6818C337.821 94.5833 337.654 95.3712 337.321 96.0455C336.991 96.7197 336.529 97.2443 335.935 97.6193C335.344 97.9943 334.654 98.1818 333.866 98.1818ZM333.866 96.9773C334.465 96.9773 334.957 96.8239 335.344 96.517C335.73 96.2102 336.016 95.8068 336.202 95.3068C336.387 94.8068 336.48 94.2652 336.48 93.6818C336.48 93.0985 336.387 92.5549 336.202 92.0511C336.016 91.5473 335.73 91.1402 335.344 90.8295C334.957 90.5189 334.465 90.3636 333.866 90.3636C333.268 90.3636 332.776 90.5189 332.389 90.8295C332.003 91.1402 331.717 91.5473 331.531 92.0511C331.346 92.5549 331.253 93.0985 331.253 93.6818C331.253 94.2652 331.346 94.8068 331.531 95.3068C331.717 95.8068 332.003 96.2102 332.389 96.517C332.776 96.8239 333.268 96.9773 333.866 96.9773ZM85.8864 122.182C85.0455 122.182 84.3201 121.996 83.7102 121.625C83.1042 121.25 82.6364 120.727 82.3068 120.057C81.9811 119.383 81.8182 118.598 81.8182 117.705C81.8182 116.811 81.9811 116.023 82.3068 115.341C82.6364 114.655 83.0947 114.121 83.6818 113.739C84.2727 113.352 84.9621 113.159 85.75 113.159C86.2045 113.159 86.6534 113.235 87.0966 113.386C87.5398 113.538 87.9432 113.784 88.3068 114.125C88.6705 114.462 88.9602 114.909 89.1761 115.466C89.392 116.023 89.5 116.708 89.5 117.523V118.091H82.7727V116.932H88.1364C88.1364 116.439 88.0379 116 87.8409 115.614C87.6477 115.227 87.3712 114.922 87.0114 114.699C86.6553 114.475 86.2348 114.364 85.75 114.364C85.2159 114.364 84.7538 114.496 84.3636 114.761C83.9773 115.023 83.6799 115.364 83.4716 115.784C83.2633 116.205 83.1591 116.655 83.1591 117.136V117.909C83.1591 118.568 83.2727 119.127 83.5 119.585C83.7311 120.04 84.0511 120.386 84.4602 120.625C84.8693 120.86 85.3447 120.977 85.8864 120.977C86.2386 120.977 86.5568 120.928 86.8409 120.83C87.1288 120.727 87.3769 120.576 87.5852 120.375C87.7936 120.17 87.9545 119.917 88.0682 119.614L89.3636 119.977C89.2273 120.417 88.9981 120.803 88.6761 121.136C88.3542 121.466 87.9564 121.723 87.483 121.909C87.0095 122.091 86.4773 122.182 85.8864 122.182ZM91.2898 122V113.273H92.5852V114.591H92.6761C92.8352 114.159 93.1231 113.809 93.5398 113.54C93.9564 113.271 94.4261 113.136 94.9489 113.136C95.0473 113.136 95.1705 113.138 95.3182 113.142C95.4659 113.146 95.5777 113.152 95.6534 113.159V114.523C95.608 114.511 95.5038 114.494 95.3409 114.472C95.1818 114.445 95.0133 114.432 94.8352 114.432C94.411 114.432 94.0322 114.521 93.6989 114.699C93.3693 114.873 93.108 115.116 92.9148 115.426C92.7254 115.733 92.6307 116.083 92.6307 116.477V122H91.2898ZM96.9929 122V113.273H98.2884V114.591H98.3793C98.5384 114.159 98.8262 113.809 99.2429 113.54C99.6596 113.271 100.129 113.136 100.652 113.136C100.75 113.136 100.874 113.138 101.021 113.142C101.169 113.146 101.281 113.152 101.357 113.159V114.523C101.311 114.511 101.207 114.494 101.044 114.472C100.885 114.445 100.716 114.432 100.538 114.432C100.114 114.432 99.7353 114.521 99.402 114.699C99.0724 114.873 98.8111 115.116 98.6179 115.426C98.4285 115.733 98.3338 116.083 98.3338 116.477V122H96.9929ZM105.976 122.182C105.188 122.182 104.497 121.994 103.902 121.619C103.311 121.244 102.849 120.72 102.516 120.045C102.186 119.371 102.021 118.583 102.021 117.682C102.021 116.773 102.186 115.979 102.516 115.301C102.849 114.623 103.311 114.097 103.902 113.722C104.497 113.347 105.188 113.159 105.976 113.159C106.764 113.159 107.453 113.347 108.044 113.722C108.639 114.097 109.101 114.623 109.43 115.301C109.764 115.979 109.93 116.773 109.93 117.682C109.93 118.583 109.764 119.371 109.43 120.045C109.101 120.72 108.639 121.244 108.044 121.619C107.453 121.994 106.764 122.182 105.976 122.182ZM105.976 120.977C106.574 120.977 107.067 120.824 107.453 120.517C107.839 120.21 108.125 119.807 108.311 119.307C108.497 118.807 108.589 118.265 108.589 117.682C108.589 117.098 108.497 116.555 108.311 116.051C108.125 115.547 107.839 115.14 107.453 114.83C107.067 114.519 106.574 114.364 105.976 114.364C105.377 114.364 104.885 114.519 104.499 114.83C104.112 115.14 103.826 115.547 103.641 116.051C103.455 116.555 103.362 117.098 103.362 117.682C103.362 118.265 103.455 118.807 103.641 119.307C103.826 119.807 104.112 120.21 104.499 120.517C104.885 120.824 105.377 120.977 105.976 120.977ZM111.727 122V113.273H113.023V114.591H113.114C113.273 114.159 113.561 113.809 113.977 113.54C114.394 113.271 114.864 113.136 115.386 113.136C115.485 113.136 115.608 113.138 115.756 113.142C115.903 113.146 116.015 113.152 116.091 113.159V114.523C116.045 114.511 115.941 114.494 115.778 114.472C115.619 114.445 115.451 114.432 115.273 114.432C114.848 114.432 114.47 114.521 114.136 114.699C113.807 114.873 113.545 115.116 113.352 115.426C113.163 115.733 113.068 116.083 113.068 116.477V122H111.727ZM117.408 122.091C117.127 122.091 116.887 121.991 116.686 121.79C116.485 121.589 116.385 121.348 116.385 121.068C116.385 120.788 116.485 120.547 116.686 120.347C116.887 120.146 117.127 120.045 117.408 120.045C117.688 120.045 117.929 120.146 118.129 120.347C118.33 120.547 118.43 120.788 118.43 121.068C118.43 121.254 118.383 121.424 118.288 121.58C118.197 121.735 118.074 121.86 117.919 121.955C117.768 122.045 117.597 122.091 117.408 122.091Z" fill="#121826"/>
<path d="M28 159C25.4288 159 22.9154 159.762 20.7776 161.191C18.6398 162.619 16.9735 164.65 15.9896 167.025C15.0056 169.401 14.7482 172.014 15.2498 174.536C15.7514 177.058 16.9895 179.374 18.8076 181.192C20.6257 183.01 22.9421 184.249 25.4638 184.75C27.9856 185.252 30.5995 184.994 32.9749 184.01C35.3503 183.026 37.3807 181.36 38.8091 179.222C40.2376 177.085 41 174.571 41 172C40.9964 168.553 39.6256 165.249 37.1884 162.812C34.7512 160.374 31.4467 159.004 28 159ZM33.7075 169.708L26.7075 176.708C26.6146 176.8 26.5043 176.874 26.3829 176.925C26.2615 176.975 26.1314 177.001 26 177.001C25.8686 177.001 25.7385 176.975 25.6171 176.925C25.4957 176.874 25.3854 176.8 25.2925 176.708L22.2925 173.708C22.1049 173.52 21.9994 173.265 21.9994 173C21.9994 172.735 22.1049 172.48 22.2925 172.292C22.4801 172.105 22.7346 171.999 23 171.999C23.2654 171.999 23.5199 172.105 23.7075 172.292L26 174.586L32.2925 168.292C32.3854 168.2 32.4957 168.126 32.6171 168.076C32.7385 168.025 32.8686 167.999 33 167.999C33.1314 167.999 33.2615 168.025 33.3829 168.076C33.5043 168.126 33.6146 168.2 33.7075 168.292C33.8004 168.385 33.8741 168.496 33.9244 168.617C33.9747 168.738 34.0006 168.869 34.0006 169C34.0006 169.131 33.9747 169.262 33.9244 169.383C33.8741 169.504 33.8004 169.615 33.7075 169.708Z" fill="#4CA154"/>
<rect x="0.5" y="0.5" width="389" height="199" rx="7.5" stroke="#4CA154" stroke-opacity="0.1"/>
</svg>
