<svg width="390" height="200" viewBox="0 0 390 200" fill="none" xmlns="http://www.w3.org/2000/svg">
<rect width="390" height="200" rx="8" fill="#4CA154" fill-opacity="0.1"/>
<path d="M28 159C25.4288 159 22.9154 159.762 20.7776 161.191C18.6398 162.619 16.9735 164.65 15.9896 167.025C15.0056 169.401 14.7482 172.014 15.2498 174.536C15.7514 177.058 16.9895 179.374 18.8076 181.192C20.6257 183.01 22.9421 184.249 25.4638 184.75C27.9856 185.252 30.5995 184.994 32.9749 184.01C35.3503 183.026 37.3807 181.36 38.8091 179.222C40.2376 177.085 41 174.571 41 172C40.9964 168.553 39.6256 165.249 37.1884 162.812C34.7512 160.374 31.4467 159.004 28 159ZM33.7075 169.708L26.7075 176.708C26.6146 176.8 26.5043 176.874 26.3829 176.925C26.2615 176.975 26.1314 177.001 26 177.001C25.8686 177.001 25.7385 176.975 25.6171 176.925C25.4957 176.874 25.3854 176.8 25.2925 176.708L22.2925 173.708C22.1049 173.52 21.9994 173.265 21.9994 173C21.9994 172.735 22.1049 172.48 22.2925 172.292C22.4801 172.105 22.7346 171.999 23 171.999C23.2654 171.999 23.5199 172.105 23.7075 172.292L26 174.586L32.2925 168.292C32.3854 168.2 32.4957 168.126 32.6171 168.076C32.7385 168.025 32.8686 167.999 33 167.999C33.1314 167.999 33.2615 168.025 33.3829 168.076C33.5043 168.126 33.6146 168.2 33.7075 168.292C33.8004 168.385 33.8741 168.496 33.9244 168.617C33.9747 168.738 34.0006 168.869 34.0006 169C34.0006 169.131 33.9747 169.262 33.9244 169.383C33.8741 169.504 33.8004 169.615 33.7075 169.708Z" fill="#4CA154"/>
<path d="M177 100C177 94.4772 181.477 90 187 90H203C208.523 90 213 94.4772 213 100V100C213 105.523 208.523 110 203 110H187C181.477 110 177 105.523 177 100V100Z" fill="#217CF5"/>
<circle cx="203" cy="100" r="8" fill="#FCFCFD"/>
<rect x="0.5" y="0.5" width="389" height="199" rx="7.5" stroke="#4CA154" stroke-opacity="0.1"/>
</svg>
