<svg width="390" height="200" viewBox="0 0 390 200" fill="none" xmlns="http://www.w3.org/2000/svg">
<rect width="390" height="200" rx="8" fill="#CA3A31" fill-opacity="0.1"/>
<path d="M41.6013 179.511L30.6701 160.528C30.3969 160.062 30.007 159.677 29.5388 159.409C29.0707 159.141 28.5407 159 28.0013 159C27.462 159 26.9319 159.141 26.4638 159.409C25.9957 159.677 25.6058 160.062 25.3326 160.528L14.4013 179.511C14.1385 179.961 14 180.473 14 180.994C14 181.515 14.1385 182.026 14.4013 182.476C14.671 182.944 15.0603 183.332 15.5293 183.6C15.9983 183.868 16.5301 184.006 17.0701 184H38.9326C39.4722 184.005 40.0035 183.867 40.472 183.599C40.9405 183.331 41.3294 182.944 41.5988 182.476C41.8621 182.027 42.001 181.515 42.0014 180.994C42.0019 180.473 41.8638 179.961 41.6013 179.511ZM27.0013 169C27.0013 168.735 27.1067 168.481 27.2942 168.293C27.4818 168.105 27.7361 168 28.0013 168C28.2666 168 28.5209 168.105 28.7084 168.293C28.896 168.481 29.0013 168.735 29.0013 169V174C29.0013 174.265 28.896 174.52 28.7084 174.707C28.5209 174.895 28.2666 175 28.0013 175C27.7361 175 27.4818 174.895 27.2942 174.707C27.1067 174.52 27.0013 174.265 27.0013 174V169ZM28.0013 180C27.7047 180 27.4147 179.912 27.168 179.747C26.9213 179.582 26.7291 179.348 26.6155 179.074C26.502 178.8 26.4723 178.498 26.5302 178.207C26.588 177.916 26.7309 177.649 26.9407 177.439C27.1505 177.23 27.4177 177.087 27.7087 177.029C27.9997 176.971 28.3013 177.001 28.5754 177.114C28.8495 177.228 29.0837 177.42 29.2485 177.667C29.4134 177.913 29.5013 178.203 29.5013 178.5C29.5013 178.898 29.3433 179.279 29.062 179.561C28.7807 179.842 28.3992 180 28.0013 180Z" fill="#CA3A31"/>
<path d="M161 100C161 94.4772 165.477 90 171 90H187C192.523 90 197 94.4772 197 100V100C197 105.523 192.523 110 187 110H171C165.477 110 161 105.523 161 100V100Z" fill="#217CF5"/>
<circle cx="187" cy="100" r="8" fill="#FCFCFD"/>
<path d="M216.227 100.182C216.227 101.409 216.006 102.47 215.562 103.364C215.119 104.258 214.511 104.947 213.739 105.432C212.966 105.917 212.083 106.159 211.091 106.159C210.098 106.159 209.216 105.917 208.443 105.432C207.67 104.947 207.063 104.258 206.619 103.364C206.176 102.47 205.955 101.409 205.955 100.182C205.955 98.9545 206.176 97.8939 206.619 97C207.063 96.1061 207.67 95.4167 208.443 94.9318C209.216 94.447 210.098 94.2045 211.091 94.2045C212.083 94.2045 212.966 94.447 213.739 94.9318C214.511 95.4167 215.119 96.1061 215.562 97C216.006 97.8939 216.227 98.9545 216.227 100.182ZM214.864 100.182C214.864 99.1742 214.695 98.3239 214.358 97.6307C214.025 96.9375 213.572 96.4129 213 96.0568C212.432 95.7008 211.795 95.5227 211.091 95.5227C210.386 95.5227 209.748 95.7008 209.176 96.0568C208.608 96.4129 208.155 96.9375 207.818 97.6307C207.485 98.3239 207.318 99.1742 207.318 100.182C207.318 101.189 207.485 102.04 207.818 102.733C208.155 103.426 208.608 103.951 209.176 104.307C209.748 104.663 210.386 104.841 211.091 104.841C211.795 104.841 212.432 104.663 213 104.307C213.572 103.951 214.025 103.426 214.358 102.733C214.695 102.04 214.864 101.189 214.864 100.182ZM227.574 94.3636V106H226.21L219.869 96.8636H219.756V106H218.347V94.3636H219.71L226.074 103.523H226.188V94.3636H227.574Z" fill="#121826"/>
<rect x="0.5" y="0.5" width="389" height="199" rx="7.5" stroke="#CA3A31" stroke-opacity="0.1"/>
</svg>
