<svg width="390" height="200" viewBox="0 0 390 200" fill="none" xmlns="http://www.w3.org/2000/svg">
<rect width="390" height="200" rx="8" fill="#CA3A31" fill-opacity="0.1"/>
<path d="M41.6013 179.511L30.6701 160.528C30.3969 160.062 30.007 159.677 29.5388 159.409C29.0707 159.141 28.5407 159 28.0013 159C27.462 159 26.9319 159.141 26.4638 159.409C25.9957 159.677 25.6058 160.062 25.3326 160.528L14.4013 179.511C14.1385 179.961 14 180.473 14 180.994C14 181.515 14.1385 182.026 14.4013 182.476C14.671 182.944 15.0603 183.332 15.5293 183.6C15.9983 183.868 16.5301 184.006 17.0701 184H38.9326C39.4722 184.005 40.0035 183.867 40.472 183.599C40.9405 183.331 41.3294 182.944 41.5988 182.476C41.8621 182.027 42.001 181.515 42.0014 180.994C42.0019 180.473 41.8638 179.961 41.6013 179.511ZM27.0013 169C27.0013 168.735 27.1067 168.481 27.2942 168.293C27.4818 168.105 27.7361 168 28.0013 168C28.2666 168 28.5209 168.105 28.7084 168.293C28.896 168.481 29.0013 168.735 29.0013 169V174C29.0013 174.265 28.896 174.52 28.7084 174.707C28.5209 174.895 28.2666 175 28.0013 175C27.7361 175 27.4818 174.895 27.2942 174.707C27.1067 174.52 27.0013 174.265 27.0013 174V169ZM28.0013 180C27.7047 180 27.4147 179.912 27.168 179.747C26.9213 179.582 26.7291 179.348 26.6155 179.074C26.502 178.8 26.4723 178.498 26.5302 178.207C26.588 177.916 26.7309 177.649 26.9407 177.439C27.1505 177.23 27.4177 177.087 27.7087 177.029C27.9997 176.971 28.3013 177.001 28.5754 177.114C28.8495 177.228 29.0837 177.42 29.2485 177.667C29.4134 177.913 29.5013 178.203 29.5013 178.5C29.5013 178.898 29.3433 179.279 29.062 179.561C28.7807 179.842 28.3992 180 28.0013 180Z" fill="#CA3A31"/>
<path d="M37 100C37 94.4772 41.4772 90 47 90H63C68.5228 90 73 94.4772 73 100V100C73 105.523 68.5228 110 63 110H47C41.4772 110 37 105.523 37 100V100Z" fill="#217CF5"/>
<circle cx="63" cy="100" r="8" fill="#FCFCFD"/>
<path d="M88.7727 85.2727C88.7045 84.697 88.428 84.25 87.9432 83.9318C87.4583 83.6136 86.8636 83.4545 86.1591 83.4545C85.6439 83.4545 85.1932 83.5379 84.8068 83.7045C84.4242 83.8712 84.125 84.1004 83.9091 84.392C83.697 84.6837 83.5909 85.0152 83.5909 85.3864C83.5909 85.697 83.6648 85.964 83.8125 86.1875C83.964 86.4072 84.1572 86.5909 84.392 86.7386C84.6269 86.8826 84.8731 87.0019 85.1307 87.0966C85.3883 87.1875 85.625 87.2614 85.8409 87.3182L87.0227 87.6364C87.3258 87.7159 87.6629 87.8258 88.0341 87.9659C88.4091 88.1061 88.767 88.2973 89.108 88.5398C89.4527 88.7784 89.7367 89.0852 89.9602 89.4602C90.1837 89.8352 90.2955 90.2955 90.2955 90.8409C90.2955 91.4697 90.1307 92.0379 89.8011 92.5455C89.4754 93.053 88.9981 93.4564 88.3693 93.7557C87.7443 94.0549 86.9848 94.2045 86.0909 94.2045C85.2576 94.2045 84.536 94.0701 83.9261 93.8011C83.3201 93.5322 82.8428 93.1572 82.4943 92.6761C82.1496 92.1951 81.9545 91.6364 81.9091 91H83.3636C83.4015 91.4394 83.5492 91.803 83.8068 92.0909C84.0682 92.375 84.3977 92.5871 84.7955 92.7273C85.197 92.8636 85.6288 92.9318 86.0909 92.9318C86.6288 92.9318 87.1117 92.8447 87.5398 92.6705C87.9678 92.4924 88.3068 92.2462 88.5568 91.9318C88.8068 91.6136 88.9318 91.2424 88.9318 90.8182C88.9318 90.4318 88.8239 90.1174 88.608 89.875C88.392 89.6326 88.108 89.4356 87.7557 89.2841C87.4034 89.1326 87.0227 89 86.6136 88.8864L85.1818 88.4773C84.2727 88.2159 83.553 87.8428 83.0227 87.358C82.4924 86.8731 82.2273 86.2386 82.2273 85.4545C82.2273 84.803 82.4034 84.2348 82.7557 83.75C83.1117 83.2614 83.589 82.8826 84.1875 82.6136C84.7898 82.3409 85.4621 82.2045 86.2045 82.2045C86.9545 82.2045 87.6212 82.339 88.2045 82.608C88.7879 82.8731 89.25 83.2367 89.5909 83.6989C89.9356 84.161 90.1174 84.6856 90.1364 85.2727H88.7727ZM95.8395 94.1818C94.9986 94.1818 94.2732 93.9962 93.6634 93.625C93.0573 93.25 92.5895 92.7273 92.2599 92.0568C91.9342 91.3826 91.7713 90.5985 91.7713 89.7045C91.7713 88.8106 91.9342 88.0227 92.2599 87.3409C92.5895 86.6553 93.0478 86.1212 93.6349 85.7386C94.2259 85.3523 94.9152 85.1591 95.7031 85.1591C96.1577 85.1591 96.6065 85.2348 97.0497 85.3864C97.4929 85.5379 97.8963 85.7841 98.2599 86.125C98.6236 86.4621 98.9134 86.9091 99.1293 87.4659C99.3452 88.0227 99.4531 88.7083 99.4531 89.5227V90.0909H92.7259V88.9318H98.0895C98.0895 88.4394 97.991 88 97.794 87.6136C97.6009 87.2273 97.3243 86.9223 96.9645 86.6989C96.6084 86.4754 96.188 86.3636 95.7031 86.3636C95.169 86.3636 94.7069 86.4962 94.3168 86.7614C93.9304 87.0227 93.633 87.3636 93.4247 87.7841C93.2164 88.2045 93.1122 88.6553 93.1122 89.1364V89.9091C93.1122 90.5682 93.2259 91.1269 93.4531 91.5852C93.6842 92.0398 94.0043 92.3864 94.4134 92.625C94.8224 92.8598 95.2978 92.9773 95.8395 92.9773C96.1918 92.9773 96.5099 92.928 96.794 92.8295C97.0819 92.7273 97.33 92.5758 97.5384 92.375C97.7467 92.1705 97.9077 91.9167 98.0213 91.6136L99.3168 91.9773C99.1804 92.4167 98.9512 92.803 98.6293 93.1364C98.3073 93.4659 97.9096 93.7235 97.4361 93.9091C96.9626 94.0909 96.4304 94.1818 95.8395 94.1818ZM107.197 97.2727V92.6591H107.084C106.985 92.8182 106.845 93.0189 106.663 93.2614C106.482 93.5 106.222 93.714 105.885 93.9034C105.548 94.089 105.099 94.1818 104.538 94.1818C103.811 94.1818 103.169 93.9981 102.612 93.6307C102.055 93.2595 101.62 92.7367 101.305 92.0625C100.991 91.3845 100.834 90.5833 100.834 89.6591C100.834 88.7424 100.991 87.947 101.305 87.2727C101.62 86.5985 102.057 86.0777 102.618 85.7102C103.179 85.3428 103.826 85.1591 104.561 85.1591C105.129 85.1591 105.578 85.2538 105.908 85.4432C106.241 85.6288 106.495 85.8409 106.669 86.0795C106.847 86.3144 106.985 86.5076 107.084 86.6591H107.243V85.2727H108.538V97.2727H107.197ZM104.72 92.9773C105.258 92.9773 105.713 92.8371 106.084 92.5568C106.455 92.2727 106.737 91.8807 106.93 91.3807C107.124 90.8769 107.22 90.2955 107.22 89.6364C107.22 88.9848 107.125 88.4148 106.936 87.9261C106.747 87.4337 106.466 87.0511 106.095 86.7784C105.724 86.5019 105.266 86.3636 104.72 86.3636C104.152 86.3636 103.679 86.5095 103.3 86.8011C102.925 87.089 102.643 87.4811 102.453 87.9773C102.268 88.4697 102.175 89.0227 102.175 89.6364C102.175 90.2576 102.269 90.822 102.459 91.3295C102.652 91.8333 102.936 92.2348 103.311 92.5341C103.69 92.8295 104.16 92.9773 104.72 92.9773ZM116.243 90.4318V85.2727H117.584V94H116.243V92.5227H116.152C115.947 92.9659 115.629 93.3428 115.197 93.6534C114.766 93.9602 114.22 94.1136 113.561 94.1136C113.016 94.1136 112.531 93.9943 112.107 93.7557C111.682 93.5133 111.349 93.1496 111.107 92.6648C110.864 92.1761 110.743 91.5606 110.743 90.8182V85.2727H112.084V90.7273C112.084 91.3636 112.262 91.8712 112.618 92.25C112.978 92.6288 113.436 92.8182 113.993 92.8182C114.326 92.8182 114.665 92.733 115.01 92.5625C115.358 92.392 115.65 92.1307 115.885 91.7784C116.124 91.4261 116.243 90.9773 116.243 90.4318ZM119.79 94V85.2727H121.131V94H119.79ZM120.472 83.8182C120.21 83.8182 119.985 83.7292 119.795 83.5511C119.61 83.3731 119.517 83.1591 119.517 82.9091C119.517 82.6591 119.61 82.4451 119.795 82.267C119.985 82.089 120.21 82 120.472 82C120.733 82 120.956 82.089 121.142 82.267C121.331 82.4451 121.426 82.6591 121.426 82.9091C121.426 83.1591 121.331 83.3731 121.142 83.5511C120.956 83.7292 120.733 83.8182 120.472 83.8182ZM128.928 88.75V94H127.587V85.2727H128.882V86.6364H128.996C129.2 86.1932 129.511 85.8371 129.928 85.5682C130.344 85.2955 130.882 85.1591 131.541 85.1591C132.132 85.1591 132.649 85.2803 133.092 85.5227C133.536 85.7614 133.88 86.125 134.126 86.6136C134.373 87.0985 134.496 87.7121 134.496 88.4545V94H133.155V88.5455C133.155 87.8598 132.977 87.3258 132.621 86.9432C132.265 86.5568 131.776 86.3636 131.155 86.3636C130.727 86.3636 130.344 86.4564 130.007 86.642C129.674 86.8277 129.411 87.0985 129.217 87.4545C129.024 87.8106 128.928 88.2424 128.928 88.75ZM140.241 94.1818C139.454 94.1818 138.762 93.9943 138.168 93.6193C137.577 93.2443 137.115 92.7197 136.781 92.0455C136.452 91.3712 136.287 90.5833 136.287 89.6818C136.287 88.7727 136.452 87.9792 136.781 87.3011C137.115 86.6231 137.577 86.0966 138.168 85.7216C138.762 85.3466 139.454 85.1591 140.241 85.1591C141.029 85.1591 141.719 85.3466 142.31 85.7216C142.904 86.0966 143.366 86.6231 143.696 87.3011C144.029 87.9792 144.196 88.7727 144.196 89.6818C144.196 90.5833 144.029 91.3712 143.696 92.0455C143.366 92.7197 142.904 93.2443 142.31 93.6193C141.719 93.9943 141.029 94.1818 140.241 94.1818ZM140.241 92.9773C140.84 92.9773 141.332 92.8239 141.719 92.517C142.105 92.2102 142.391 91.8068 142.577 91.3068C142.762 90.8068 142.855 90.2652 142.855 89.6818C142.855 89.0985 142.762 88.5549 142.577 88.0511C142.391 87.5473 142.105 87.1402 141.719 86.8295C141.332 86.5189 140.84 86.3636 140.241 86.3636C139.643 86.3636 139.151 86.5189 138.764 86.8295C138.378 87.1402 138.092 87.5473 137.906 88.0511C137.721 88.5549 137.628 89.0985 137.628 89.6818C137.628 90.2652 137.721 90.8068 137.906 91.3068C138.092 91.8068 138.378 92.2102 138.764 92.517C139.151 92.8239 139.643 92.9773 140.241 92.9773ZM147.334 88.75V94H145.993V85.2727H147.288V86.6364H147.402C147.607 86.1932 147.917 85.8371 148.334 85.5682C148.75 85.2955 149.288 85.1591 149.947 85.1591C150.538 85.1591 151.055 85.2803 151.499 85.5227C151.942 85.7614 152.286 86.125 152.533 86.6136C152.779 87.0985 152.902 87.7121 152.902 88.4545V94H151.561V88.5455C151.561 87.8598 151.383 87.3258 151.027 86.9432C150.671 86.5568 150.182 86.3636 149.561 86.3636C149.133 86.3636 148.75 86.4564 148.413 86.642C148.08 86.8277 147.817 87.0985 147.624 87.4545C147.43 87.8106 147.334 88.2424 147.334 88.75ZM162.898 94.1818C162.11 94.1818 161.419 93.9943 160.824 93.6193C160.233 93.2443 159.771 92.7197 159.438 92.0455C159.108 91.3712 158.943 90.5833 158.943 89.6818C158.943 88.7727 159.108 87.9792 159.438 87.3011C159.771 86.6231 160.233 86.0966 160.824 85.7216C161.419 85.3466 162.11 85.1591 162.898 85.1591C163.686 85.1591 164.375 85.3466 164.966 85.7216C165.561 86.0966 166.023 86.6231 166.352 87.3011C166.686 87.9792 166.852 88.7727 166.852 89.6818C166.852 90.5833 166.686 91.3712 166.352 92.0455C166.023 92.7197 165.561 93.2443 164.966 93.6193C164.375 93.9943 163.686 94.1818 162.898 94.1818ZM162.898 92.9773C163.496 92.9773 163.989 92.8239 164.375 92.517C164.761 92.2102 165.047 91.8068 165.233 91.3068C165.419 90.8068 165.511 90.2652 165.511 89.6818C165.511 89.0985 165.419 88.5549 165.233 88.0511C165.047 87.5473 164.761 87.1402 164.375 86.8295C163.989 86.5189 163.496 86.3636 162.898 86.3636C162.299 86.3636 161.807 86.5189 161.42 86.8295C161.034 87.1402 160.748 87.5473 160.562 88.0511C160.377 88.5549 160.284 89.0985 160.284 89.6818C160.284 90.2652 160.377 90.8068 160.562 91.3068C160.748 91.8068 161.034 92.2102 161.42 92.517C161.807 92.8239 162.299 92.9773 162.898 92.9773ZM168.649 94V85.2727H169.945V86.6364H170.058C170.24 86.1705 170.534 85.8087 170.939 85.5511C171.344 85.2898 171.831 85.1591 172.399 85.1591C172.975 85.1591 173.454 85.2898 173.837 85.5511C174.223 85.8087 174.524 86.1705 174.74 86.6364H174.831C175.054 86.1856 175.39 85.8277 175.837 85.5625C176.284 85.2936 176.82 85.1591 177.445 85.1591C178.225 85.1591 178.863 85.4034 179.359 85.892C179.856 86.3769 180.104 87.1326 180.104 88.1591V94H178.763V88.1591C178.763 87.5152 178.587 87.0549 178.234 86.7784C177.882 86.5019 177.467 86.3636 176.99 86.3636C176.376 86.3636 175.901 86.5492 175.564 86.9205C175.227 87.2879 175.058 87.7538 175.058 88.3182V94H173.695V88.0227C173.695 87.5265 173.534 87.1269 173.212 86.8239C172.89 86.517 172.475 86.3636 171.967 86.3636C171.619 86.3636 171.293 86.4564 170.99 86.642C170.691 86.8277 170.448 87.0852 170.263 87.4148C170.081 87.7405 169.99 88.1174 169.99 88.5455V94H168.649ZM183.646 88.75V94H182.305V85.2727H183.601V86.6364H183.714C183.919 86.1932 184.23 85.8371 184.646 85.5682C185.063 85.2955 185.601 85.1591 186.26 85.1591C186.851 85.1591 187.368 85.2803 187.811 85.5227C188.254 85.7614 188.599 86.125 188.845 86.6136C189.091 87.0985 189.214 87.7121 189.214 88.4545V94H187.874V88.5455C187.874 87.8598 187.696 87.3258 187.339 86.9432C186.983 86.5568 186.495 86.3636 185.874 86.3636C185.446 86.3636 185.063 86.4564 184.726 86.642C184.393 86.8277 184.129 87.0985 183.936 87.4545C183.743 87.8106 183.646 88.2424 183.646 88.75ZM191.415 94V85.2727H192.756V94H191.415ZM192.097 83.8182C191.835 83.8182 191.61 83.7292 191.42 83.5511C191.235 83.3731 191.142 83.1591 191.142 82.9091C191.142 82.6591 191.235 82.4451 191.42 82.267C191.61 82.089 191.835 82 192.097 82C192.358 82 192.581 82.089 192.767 82.267C192.956 82.4451 193.051 82.6591 193.051 82.9091C193.051 83.1591 192.956 83.3731 192.767 83.5511C192.581 83.7292 192.358 83.8182 192.097 83.8182ZM201.143 87.2273L199.939 87.5682C199.863 87.3674 199.751 87.1723 199.604 86.983C199.46 86.7898 199.263 86.6307 199.013 86.5057C198.763 86.3807 198.443 86.3182 198.053 86.3182C197.518 86.3182 197.073 86.4413 196.717 86.6875C196.365 86.9299 196.189 87.2386 196.189 87.6136C196.189 87.947 196.31 88.2102 196.553 88.4034C196.795 88.5966 197.174 88.7576 197.689 88.8864L198.984 89.2045C199.765 89.3939 200.346 89.6837 200.729 90.0739C201.111 90.4602 201.303 90.9583 201.303 91.5682C201.303 92.0682 201.159 92.5152 200.871 92.9091C200.587 93.303 200.189 93.6136 199.678 93.8409C199.166 94.0682 198.571 94.1818 197.893 94.1818C197.003 94.1818 196.267 93.9886 195.683 93.6023C195.1 93.2159 194.731 92.6515 194.575 91.9091L195.848 91.5909C195.969 92.0606 196.198 92.4129 196.536 92.6477C196.876 92.8826 197.321 93 197.871 93C198.496 93 198.992 92.8674 199.359 92.6023C199.731 92.3333 199.916 92.0114 199.916 91.6364C199.916 91.3333 199.81 91.0795 199.598 90.875C199.386 90.6667 199.06 90.5114 198.621 90.4091L197.166 90.0682C196.367 89.8788 195.78 89.5852 195.405 89.1875C195.034 88.786 194.848 88.2841 194.848 87.6818C194.848 87.1894 194.986 86.7538 195.263 86.375C195.543 85.9962 195.924 85.6989 196.405 85.483C196.89 85.267 197.439 85.1591 198.053 85.1591C198.916 85.1591 199.594 85.3485 200.087 85.7273C200.583 86.1061 200.935 86.6061 201.143 87.2273ZM214.457 85.2727L211.23 94H209.866L206.639 85.2727H208.094L210.503 92.2273H210.594L213.003 85.2727H214.457ZM219.324 94.1818C218.483 94.1818 217.758 93.9962 217.148 93.625C216.542 93.25 216.074 92.7273 215.744 92.0568C215.419 91.3826 215.256 90.5985 215.256 89.7045C215.256 88.8106 215.419 88.0227 215.744 87.3409C216.074 86.6553 216.532 86.1212 217.119 85.7386C217.71 85.3523 218.4 85.1591 219.188 85.1591C219.642 85.1591 220.091 85.2348 220.534 85.3864C220.977 85.5379 221.381 85.7841 221.744 86.125C222.108 86.4621 222.398 86.9091 222.614 87.4659C222.83 88.0227 222.938 88.7083 222.938 89.5227V90.0909H216.21V88.9318H221.574C221.574 88.4394 221.475 88 221.278 87.6136C221.085 87.2273 220.809 86.9223 220.449 86.6989C220.093 86.4754 219.672 86.3636 219.188 86.3636C218.653 86.3636 218.191 86.4962 217.801 86.7614C217.415 87.0227 217.117 87.3636 216.909 87.7841C216.701 88.2045 216.597 88.6553 216.597 89.1364V89.9091C216.597 90.5682 216.71 91.1269 216.938 91.5852C217.169 92.0398 217.489 92.3864 217.898 92.625C218.307 92.8598 218.782 92.9773 219.324 92.9773C219.676 92.9773 219.994 92.928 220.278 92.8295C220.566 92.7273 220.814 92.5758 221.023 92.375C221.231 92.1705 221.392 91.9167 221.506 91.6136L222.801 91.9773C222.665 92.4167 222.436 92.803 222.114 93.1364C221.792 93.4659 221.394 93.7235 220.92 93.9091C220.447 94.0909 219.915 94.1818 219.324 94.1818ZM226.068 82.3636V94H224.727V82.3636H226.068ZM228.274 94V85.2727H229.615V94H228.274ZM228.956 83.8182C228.695 83.8182 228.469 83.7292 228.28 83.5511C228.094 83.3731 228.001 83.1591 228.001 82.9091C228.001 82.6591 228.094 82.4451 228.28 82.267C228.469 82.089 228.695 82 228.956 82C229.217 82 229.441 82.089 229.626 82.267C229.816 82.4451 229.911 82.6591 229.911 82.9091C229.911 83.1591 229.816 83.3731 229.626 83.5511C229.441 83.7292 229.217 83.8182 228.956 83.8182ZM235.616 85.2727V86.4091H231.094V85.2727H235.616ZM232.412 83.1818H233.753V91.5C233.753 91.8788 233.808 92.1629 233.918 92.3523C234.031 92.5379 234.175 92.6629 234.349 92.7273C234.527 92.7879 234.715 92.8182 234.912 92.8182C235.06 92.8182 235.181 92.8106 235.276 92.7955C235.37 92.7765 235.446 92.7614 235.503 92.75L235.776 93.9545C235.685 93.9886 235.558 94.0227 235.395 94.0568C235.232 94.0947 235.026 94.1136 234.776 94.1136C234.397 94.1136 234.026 94.0322 233.662 93.8693C233.302 93.7064 233.003 93.4583 232.764 93.125C232.529 92.7917 232.412 92.3712 232.412 91.8636V83.1818ZM242.974 88.75V94H241.634V85.2727H242.929V86.6364H243.043C243.247 86.1932 243.558 85.8371 243.974 85.5682C244.391 85.2955 244.929 85.1591 245.588 85.1591C246.179 85.1591 246.696 85.2803 247.139 85.5227C247.582 85.7614 247.927 86.125 248.173 86.6136C248.42 87.0985 248.543 87.7121 248.543 88.4545V94H247.202V88.5455C247.202 87.8598 247.024 87.3258 246.668 86.9432C246.312 86.5568 245.823 86.3636 245.202 86.3636C244.774 86.3636 244.391 86.4564 244.054 86.642C243.721 86.8277 243.457 87.0985 243.264 87.4545C243.071 87.8106 242.974 88.2424 242.974 88.75ZM254.288 94.1818C253.5 94.1818 252.809 93.9943 252.214 93.6193C251.624 93.2443 251.161 92.7197 250.828 92.0455C250.499 91.3712 250.334 90.5833 250.334 89.6818C250.334 88.7727 250.499 87.9792 250.828 87.3011C251.161 86.6231 251.624 86.0966 252.214 85.7216C252.809 85.3466 253.5 85.1591 254.288 85.1591C255.076 85.1591 255.766 85.3466 256.357 85.7216C256.951 86.0966 257.413 86.6231 257.743 87.3011C258.076 87.9792 258.243 88.7727 258.243 89.6818C258.243 90.5833 258.076 91.3712 257.743 92.0455C257.413 92.7197 256.951 93.2443 256.357 93.6193C255.766 93.9943 255.076 94.1818 254.288 94.1818ZM254.288 92.9773C254.887 92.9773 255.379 92.8239 255.766 92.517C256.152 92.2102 256.438 91.8068 256.624 91.3068C256.809 90.8068 256.902 90.2652 256.902 89.6818C256.902 89.0985 256.809 88.5549 256.624 88.0511C256.438 87.5473 256.152 87.1402 255.766 86.8295C255.379 86.5189 254.887 86.3636 254.288 86.3636C253.69 86.3636 253.197 86.5189 252.811 86.8295C252.425 87.1402 252.139 87.5473 251.953 88.0511C251.768 88.5549 251.675 89.0985 251.675 89.6818C251.675 90.2652 251.768 90.8068 251.953 91.3068C252.139 91.8068 252.425 92.2102 252.811 92.517C253.197 92.8239 253.69 92.9773 254.288 92.9773ZM261.381 88.75V94H260.04V85.2727H261.335V86.6364H261.449C261.653 86.1932 261.964 85.8371 262.381 85.5682C262.797 85.2955 263.335 85.1591 263.994 85.1591C264.585 85.1591 265.102 85.2803 265.545 85.5227C265.989 85.7614 266.333 86.125 266.58 86.6136C266.826 87.0985 266.949 87.7121 266.949 88.4545V94H265.608V88.5455C265.608 87.8598 265.43 87.3258 265.074 86.9432C264.718 86.5568 264.229 86.3636 263.608 86.3636C263.18 86.3636 262.797 86.4564 262.46 86.642C262.127 86.8277 261.864 87.0985 261.67 87.4545C261.477 87.8106 261.381 88.2424 261.381 88.75ZM277.058 94.1818C276.217 94.1818 275.492 93.9962 274.882 93.625C274.276 93.25 273.808 92.7273 273.479 92.0568C273.153 91.3826 272.99 90.5985 272.99 89.7045C272.99 88.8106 273.153 88.0227 273.479 87.3409C273.808 86.6553 274.267 86.1212 274.854 85.7386C275.445 85.3523 276.134 85.1591 276.922 85.1591C277.376 85.1591 277.825 85.2348 278.268 85.3864C278.712 85.5379 279.115 85.7841 279.479 86.125C279.842 86.4621 280.132 86.9091 280.348 87.4659C280.564 88.0227 280.672 88.7083 280.672 89.5227V90.0909H273.945V88.9318H279.308C279.308 88.4394 279.21 88 279.013 87.6136C278.82 87.2273 278.543 86.9223 278.183 86.6989C277.827 86.4754 277.407 86.3636 276.922 86.3636C276.388 86.3636 275.926 86.4962 275.536 86.7614C275.149 87.0227 274.852 87.3636 274.643 87.7841C274.435 88.2045 274.331 88.6553 274.331 89.1364V89.9091C274.331 90.5682 274.445 91.1269 274.672 91.5852C274.903 92.0398 275.223 92.3864 275.632 92.625C276.041 92.8598 276.517 92.9773 277.058 92.9773C277.411 92.9773 277.729 92.928 278.013 92.8295C278.301 92.7273 278.549 92.5758 278.757 92.375C278.965 92.1705 279.126 91.9167 279.24 91.6136L280.536 91.9773C280.399 92.4167 280.17 92.803 279.848 93.1364C279.526 93.4659 279.128 93.7235 278.655 93.9091C278.181 94.0909 277.649 94.1818 277.058 94.1818ZM288.643 87.2273L287.439 87.5682C287.363 87.3674 287.251 87.1723 287.104 86.983C286.96 86.7898 286.763 86.6307 286.513 86.5057C286.263 86.3807 285.943 86.3182 285.553 86.3182C285.018 86.3182 284.573 86.4413 284.217 86.6875C283.865 86.9299 283.689 87.2386 283.689 87.6136C283.689 87.947 283.81 88.2102 284.053 88.4034C284.295 88.5966 284.674 88.7576 285.189 88.8864L286.484 89.2045C287.265 89.3939 287.846 89.6837 288.229 90.0739C288.611 90.4602 288.803 90.9583 288.803 91.5682C288.803 92.0682 288.659 92.5152 288.371 92.9091C288.087 93.303 287.689 93.6136 287.178 93.8409C286.666 94.0682 286.071 94.1818 285.393 94.1818C284.503 94.1818 283.767 93.9886 283.183 93.6023C282.6 93.2159 282.231 92.6515 282.075 91.9091L283.348 91.5909C283.469 92.0606 283.698 92.4129 284.036 92.6477C284.376 92.8826 284.821 93 285.371 93C285.996 93 286.492 92.8674 286.859 92.6023C287.231 92.3333 287.416 92.0114 287.416 91.6364C287.416 91.3333 287.31 91.0795 287.098 90.875C286.886 90.6667 286.56 90.5114 286.121 90.4091L284.666 90.0682C283.867 89.8788 283.28 89.5852 282.905 89.1875C282.534 88.786 282.348 88.2841 282.348 87.6818C282.348 87.1894 282.486 86.7538 282.763 86.375C283.043 85.9962 283.424 85.6989 283.905 85.483C284.39 85.267 284.939 85.1591 285.553 85.1591C286.416 85.1591 287.094 85.3485 287.587 85.7273C288.083 86.1061 288.435 86.6061 288.643 87.2273ZM294.366 85.2727V86.4091H289.844V85.2727H294.366ZM291.162 83.1818H292.503V91.5C292.503 91.8788 292.558 92.1629 292.668 92.3523C292.781 92.5379 292.925 92.6629 293.099 92.7273C293.277 92.7879 293.465 92.8182 293.662 92.8182C293.81 92.8182 293.931 92.8106 294.026 92.7955C294.12 92.7765 294.196 92.7614 294.253 92.75L294.526 93.9545C294.435 93.9886 294.308 94.0227 294.145 94.0568C293.982 94.0947 293.776 94.1136 293.526 94.1136C293.147 94.1136 292.776 94.0322 292.412 93.8693C292.052 93.7064 291.753 93.4583 291.514 93.125C291.279 92.7917 291.162 92.3712 291.162 91.8636V83.1818ZM304.043 94.1818C303.202 94.1818 302.476 93.9962 301.866 93.625C301.26 93.25 300.793 92.7273 300.463 92.0568C300.137 91.3826 299.974 90.5985 299.974 89.7045C299.974 88.8106 300.137 88.0227 300.463 87.3409C300.793 86.6553 301.251 86.1212 301.838 85.7386C302.429 85.3523 303.118 85.1591 303.906 85.1591C304.361 85.1591 304.81 85.2348 305.253 85.3864C305.696 85.5379 306.099 85.7841 306.463 86.125C306.827 86.4621 307.116 86.9091 307.332 87.4659C307.548 88.0227 307.656 88.7083 307.656 89.5227V90.0909H300.929V88.9318H306.293C306.293 88.4394 306.194 88 305.997 87.6136C305.804 87.2273 305.527 86.9223 305.168 86.6989C304.812 86.4754 304.391 86.3636 303.906 86.3636C303.372 86.3636 302.91 86.4962 302.52 86.7614C302.134 87.0227 301.836 87.3636 301.628 87.7841C301.42 88.2045 301.315 88.6553 301.315 89.1364V89.9091C301.315 90.5682 301.429 91.1269 301.656 91.5852C301.887 92.0398 302.207 92.3864 302.616 92.625C303.026 92.8598 303.501 92.9773 304.043 92.9773C304.395 92.9773 304.713 92.928 304.997 92.8295C305.285 92.7273 305.533 92.5758 305.741 92.375C305.95 92.1705 306.111 91.9167 306.224 91.6136L307.52 91.9773C307.384 92.4167 307.154 92.803 306.832 93.1364C306.51 93.4659 306.113 93.7235 305.639 93.9091C305.166 94.0909 304.634 94.1818 304.043 94.1818ZM309.446 94V85.2727H310.741V86.5909H310.832C310.991 86.1591 311.279 85.8087 311.696 85.5398C312.113 85.2708 312.582 85.1364 313.105 85.1364C313.204 85.1364 313.327 85.1383 313.474 85.142C313.622 85.1458 313.734 85.1515 313.81 85.1591V86.5227C313.764 86.5114 313.66 86.4943 313.497 86.4716C313.338 86.4451 313.17 86.4318 312.991 86.4318C312.567 86.4318 312.188 86.5208 311.855 86.6989C311.526 86.8731 311.264 87.1155 311.071 87.4261C310.882 87.733 310.787 88.0833 310.787 88.4773V94H309.446ZM315.149 94V85.2727H316.445V86.5909H316.536C316.695 86.1591 316.982 85.8087 317.399 85.5398C317.816 85.2708 318.286 85.1364 318.808 85.1364C318.907 85.1364 319.03 85.1383 319.178 85.142C319.325 85.1458 319.437 85.1515 319.513 85.1591V86.5227C319.467 86.5114 319.363 86.4943 319.2 86.4716C319.041 86.4451 318.873 86.4318 318.695 86.4318C318.27 86.4318 317.892 86.5208 317.558 86.6989C317.229 86.8731 316.967 87.1155 316.774 87.4261C316.585 87.733 316.49 88.0833 316.49 88.4773V94H315.149ZM324.132 94.1818C323.344 94.1818 322.653 93.9943 322.058 93.6193C321.467 93.2443 321.005 92.7197 320.672 92.0455C320.342 91.3712 320.178 90.5833 320.178 89.6818C320.178 88.7727 320.342 87.9792 320.672 87.3011C321.005 86.6231 321.467 86.0966 322.058 85.7216C322.653 85.3466 323.344 85.1591 324.132 85.1591C324.92 85.1591 325.609 85.3466 326.2 85.7216C326.795 86.0966 327.257 86.6231 327.587 87.3011C327.92 87.9792 328.087 88.7727 328.087 89.6818C328.087 90.5833 327.92 91.3712 327.587 92.0455C327.257 92.7197 326.795 93.2443 326.2 93.6193C325.609 93.9943 324.92 94.1818 324.132 94.1818ZM324.132 92.9773C324.731 92.9773 325.223 92.8239 325.609 92.517C325.996 92.2102 326.282 91.8068 326.467 91.3068C326.653 90.8068 326.746 90.2652 326.746 89.6818C326.746 89.0985 326.653 88.5549 326.467 88.0511C326.282 87.5473 325.996 87.1402 325.609 86.8295C325.223 86.5189 324.731 86.3636 324.132 86.3636C323.534 86.3636 323.041 86.5189 322.655 86.8295C322.268 87.1402 321.982 87.5473 321.797 88.0511C321.611 88.5549 321.518 89.0985 321.518 89.6818C321.518 90.2652 321.611 90.8068 321.797 91.3068C321.982 91.8068 322.268 92.2102 322.655 92.517C323.041 92.8239 323.534 92.9773 324.132 92.9773ZM329.884 94V85.2727H331.179V86.5909H331.27C331.429 86.1591 331.717 85.8087 332.134 85.5398C332.55 85.2708 333.02 85.1364 333.543 85.1364C333.641 85.1364 333.764 85.1383 333.912 85.142C334.06 85.1458 334.171 85.1515 334.247 85.1591V86.5227C334.202 86.5114 334.098 86.4943 333.935 86.4716C333.776 86.4451 333.607 86.4318 333.429 86.4318C333.005 86.4318 332.626 86.5208 332.293 86.6989C331.963 86.8731 331.702 87.1155 331.509 87.4261C331.319 87.733 331.224 88.0833 331.224 88.4773V94H329.884ZM89.3636 109.273L86.1364 118H84.7727L81.5455 109.273H83L85.4091 116.227H85.5L87.9091 109.273H89.3636ZM94.1165 118.182C93.3286 118.182 92.6373 117.994 92.0426 117.619C91.4517 117.244 90.9896 116.72 90.6562 116.045C90.3267 115.371 90.1619 114.583 90.1619 113.682C90.1619 112.773 90.3267 111.979 90.6562 111.301C90.9896 110.623 91.4517 110.097 92.0426 109.722C92.6373 109.347 93.3286 109.159 94.1165 109.159C94.9044 109.159 95.5938 109.347 96.1847 109.722C96.7794 110.097 97.2415 110.623 97.571 111.301C97.9044 111.979 98.071 112.773 98.071 113.682C98.071 114.583 97.9044 115.371 97.571 116.045C97.2415 116.72 96.7794 117.244 96.1847 117.619C95.5938 117.994 94.9044 118.182 94.1165 118.182ZM94.1165 116.977C94.715 116.977 95.2074 116.824 95.5938 116.517C95.9801 116.21 96.2661 115.807 96.4517 115.307C96.6373 114.807 96.7301 114.265 96.7301 113.682C96.7301 113.098 96.6373 112.555 96.4517 112.051C96.2661 111.547 95.9801 111.14 95.5938 110.83C95.2074 110.519 94.715 110.364 94.1165 110.364C93.518 110.364 93.0256 110.519 92.6392 110.83C92.2528 111.14 91.9669 111.547 91.7812 112.051C91.5956 112.555 91.5028 113.098 91.5028 113.682C91.5028 114.265 91.5956 114.807 91.7812 115.307C91.9669 115.807 92.2528 116.21 92.6392 116.517C93.0256 116.824 93.518 116.977 94.1165 116.977ZM101.209 106.364V118H99.8679V106.364H101.209ZM108.915 114.432V109.273H110.256V118H108.915V116.523H108.824C108.619 116.966 108.301 117.343 107.869 117.653C107.438 117.96 106.892 118.114 106.233 118.114C105.688 118.114 105.203 117.994 104.778 117.756C104.354 117.513 104.021 117.15 103.778 116.665C103.536 116.176 103.415 115.561 103.415 114.818V109.273H104.756V114.727C104.756 115.364 104.934 115.871 105.29 116.25C105.65 116.629 106.108 116.818 106.665 116.818C106.998 116.818 107.337 116.733 107.682 116.562C108.03 116.392 108.322 116.131 108.557 115.778C108.795 115.426 108.915 114.977 108.915 114.432ZM112.462 121.273V109.273H113.757V110.659H113.916C114.015 110.508 114.151 110.314 114.325 110.08C114.503 109.841 114.757 109.629 115.087 109.443C115.42 109.254 115.871 109.159 116.439 109.159C117.174 109.159 117.821 109.343 118.382 109.71C118.943 110.078 119.38 110.598 119.695 111.273C120.009 111.947 120.166 112.742 120.166 113.659C120.166 114.583 120.009 115.384 119.695 116.062C119.38 116.737 118.945 117.259 118.388 117.631C117.831 117.998 117.189 118.182 116.462 118.182C115.901 118.182 115.452 118.089 115.115 117.903C114.778 117.714 114.518 117.5 114.337 117.261C114.155 117.019 114.015 116.818 113.916 116.659H113.803V121.273H112.462ZM113.78 113.636C113.78 114.295 113.876 114.877 114.07 115.381C114.263 115.881 114.545 116.273 114.916 116.557C115.287 116.837 115.742 116.977 116.28 116.977C116.84 116.977 117.308 116.83 117.683 116.534C118.062 116.235 118.346 115.833 118.536 115.33C118.729 114.822 118.825 114.258 118.825 113.636C118.825 113.023 118.731 112.47 118.541 111.977C118.356 111.481 118.073 111.089 117.695 110.801C117.32 110.509 116.848 110.364 116.28 110.364C115.734 110.364 115.276 110.502 114.905 110.778C114.534 111.051 114.253 111.434 114.064 111.926C113.875 112.415 113.78 112.985 113.78 113.636ZM125.757 109.273V110.409H121.234V109.273H125.757ZM122.553 107.182H123.893V115.5C123.893 115.879 123.948 116.163 124.058 116.352C124.172 116.538 124.316 116.663 124.49 116.727C124.668 116.788 124.856 116.818 125.053 116.818C125.2 116.818 125.321 116.811 125.416 116.795C125.511 116.777 125.587 116.761 125.643 116.75L125.916 117.955C125.825 117.989 125.698 118.023 125.536 118.057C125.373 118.095 125.166 118.114 124.916 118.114C124.537 118.114 124.166 118.032 123.803 117.869C123.443 117.706 123.143 117.458 122.905 117.125C122.67 116.792 122.553 116.371 122.553 115.864V107.182ZM130.092 118.205C129.539 118.205 129.037 118.1 128.587 117.892C128.136 117.68 127.778 117.375 127.513 116.977C127.248 116.576 127.115 116.091 127.115 115.523C127.115 115.023 127.214 114.617 127.411 114.307C127.607 113.992 127.871 113.746 128.2 113.568C128.53 113.39 128.893 113.258 129.291 113.17C129.693 113.08 130.096 113.008 130.501 112.955C131.032 112.886 131.462 112.835 131.791 112.801C132.125 112.763 132.367 112.701 132.518 112.614C132.674 112.527 132.751 112.375 132.751 112.159V112.114C132.751 111.553 132.598 111.117 132.291 110.807C131.988 110.496 131.528 110.341 130.911 110.341C130.27 110.341 129.768 110.481 129.405 110.761C129.041 111.042 128.786 111.341 128.638 111.659L127.365 111.205C127.592 110.674 127.895 110.261 128.274 109.966C128.657 109.667 129.073 109.458 129.524 109.341C129.979 109.22 130.426 109.159 130.865 109.159C131.145 109.159 131.467 109.193 131.831 109.261C132.198 109.326 132.553 109.46 132.893 109.665C133.238 109.869 133.524 110.178 133.751 110.591C133.979 111.004 134.092 111.557 134.092 112.25V118H132.751V116.818H132.683C132.592 117.008 132.441 117.21 132.229 117.426C132.017 117.642 131.734 117.826 131.382 117.977C131.03 118.129 130.6 118.205 130.092 118.205ZM130.297 117C130.827 117 131.274 116.896 131.638 116.688C132.005 116.479 132.282 116.21 132.467 115.881C132.657 115.551 132.751 115.205 132.751 114.841V113.614C132.695 113.682 132.57 113.744 132.376 113.801C132.187 113.854 131.967 113.902 131.717 113.943C131.471 113.981 131.231 114.015 130.996 114.045C130.765 114.072 130.577 114.095 130.433 114.114C130.085 114.159 129.759 114.233 129.456 114.335C129.157 114.434 128.914 114.583 128.729 114.784C128.547 114.981 128.456 115.25 128.456 115.591C128.456 116.057 128.628 116.409 128.973 116.648C129.321 116.883 129.763 117 130.297 117ZM140.085 109.273V110.409H135.562V109.273H140.085ZM136.881 107.182H138.222V115.5C138.222 115.879 138.277 116.163 138.386 116.352C138.5 116.538 138.644 116.663 138.818 116.727C138.996 116.788 139.184 116.818 139.381 116.818C139.528 116.818 139.65 116.811 139.744 116.795C139.839 116.777 139.915 116.761 139.972 116.75L140.244 117.955C140.153 117.989 140.027 118.023 139.864 118.057C139.701 118.095 139.494 118.114 139.244 118.114C138.866 118.114 138.494 118.032 138.131 117.869C137.771 117.706 137.472 117.458 137.233 117.125C136.998 116.792 136.881 116.371 136.881 115.864V107.182ZM141.852 118V109.273H143.193V118H141.852ZM142.534 107.818C142.273 107.818 142.047 107.729 141.858 107.551C141.672 107.373 141.58 107.159 141.58 106.909C141.58 106.659 141.672 106.445 141.858 106.267C142.047 106.089 142.273 106 142.534 106C142.795 106 143.019 106.089 143.205 106.267C143.394 106.445 143.489 106.659 143.489 106.909C143.489 107.159 143.394 107.373 143.205 107.551C143.019 107.729 142.795 107.818 142.534 107.818ZM145.581 118V106.364H146.922V110.659H147.036C147.134 110.508 147.27 110.314 147.445 110.08C147.623 109.841 147.876 109.629 148.206 109.443C148.539 109.254 148.99 109.159 149.558 109.159C150.293 109.159 150.941 109.343 151.501 109.71C152.062 110.078 152.5 110.598 152.814 111.273C153.128 111.947 153.286 112.742 153.286 113.659C153.286 114.583 153.128 115.384 152.814 116.062C152.5 116.737 152.064 117.259 151.507 117.631C150.95 117.998 150.308 118.182 149.581 118.182C149.02 118.182 148.571 118.089 148.234 117.903C147.897 117.714 147.638 117.5 147.456 117.261C147.274 117.019 147.134 116.818 147.036 116.659H146.876V118H145.581ZM146.899 113.636C146.899 114.295 146.996 114.877 147.189 115.381C147.382 115.881 147.664 116.273 148.036 116.557C148.407 116.837 148.861 116.977 149.399 116.977C149.96 116.977 150.428 116.83 150.803 116.534C151.181 116.235 151.465 115.833 151.655 115.33C151.848 114.822 151.945 114.258 151.945 113.636C151.945 113.023 151.85 112.47 151.661 111.977C151.475 111.481 151.193 111.089 150.814 110.801C150.439 110.509 149.967 110.364 149.399 110.364C148.854 110.364 148.395 110.502 148.024 110.778C147.653 111.051 147.373 111.434 147.183 111.926C146.994 112.415 146.899 112.985 146.899 113.636ZM160.587 114.432V109.273H161.928V118H160.587V116.523H160.496C160.291 116.966 159.973 117.343 159.541 117.653C159.109 117.96 158.564 118.114 157.905 118.114C157.359 118.114 156.875 117.994 156.45 117.756C156.026 117.513 155.693 117.15 155.45 116.665C155.208 116.176 155.087 115.561 155.087 114.818V109.273H156.428V114.727C156.428 115.364 156.606 115.871 156.962 116.25C157.321 116.629 157.78 116.818 158.337 116.818C158.67 116.818 159.009 116.733 159.354 116.562C159.702 116.392 159.994 116.131 160.229 115.778C160.467 115.426 160.587 114.977 160.587 114.432ZM170.315 111.227L169.111 111.568C169.035 111.367 168.923 111.172 168.776 110.983C168.632 110.79 168.435 110.631 168.185 110.506C167.935 110.381 167.615 110.318 167.224 110.318C166.69 110.318 166.245 110.441 165.889 110.688C165.537 110.93 165.361 111.239 165.361 111.614C165.361 111.947 165.482 112.21 165.724 112.403C165.967 112.597 166.346 112.758 166.861 112.886L168.156 113.205C168.937 113.394 169.518 113.684 169.901 114.074C170.283 114.46 170.474 114.958 170.474 115.568C170.474 116.068 170.33 116.515 170.043 116.909C169.759 117.303 169.361 117.614 168.849 117.841C168.338 118.068 167.743 118.182 167.065 118.182C166.175 118.182 165.438 117.989 164.855 117.602C164.272 117.216 163.902 116.652 163.747 115.909L165.02 115.591C165.141 116.061 165.37 116.413 165.707 116.648C166.048 116.883 166.493 117 167.043 117C167.668 117 168.164 116.867 168.531 116.602C168.902 116.333 169.088 116.011 169.088 115.636C169.088 115.333 168.982 115.08 168.77 114.875C168.558 114.667 168.232 114.511 167.793 114.409L166.338 114.068C165.539 113.879 164.952 113.585 164.577 113.188C164.205 112.786 164.02 112.284 164.02 111.682C164.02 111.189 164.158 110.754 164.435 110.375C164.715 109.996 165.096 109.699 165.577 109.483C166.062 109.267 166.611 109.159 167.224 109.159C168.088 109.159 168.766 109.348 169.259 109.727C169.755 110.106 170.107 110.606 170.315 111.227ZM173.22 118.091C172.94 118.091 172.699 117.991 172.499 117.79C172.298 117.589 172.197 117.348 172.197 117.068C172.197 116.788 172.298 116.547 172.499 116.347C172.699 116.146 172.94 116.045 173.22 116.045C173.5 116.045 173.741 116.146 173.942 116.347C174.143 116.547 174.243 116.788 174.243 117.068C174.243 117.254 174.196 117.424 174.101 117.58C174.01 117.735 173.887 117.86 173.732 117.955C173.58 118.045 173.41 118.091 173.22 118.091Z" fill="#121826"/>
<path d="M353 64L68 64C65.7909 64 64 65.7909 64 68L64 74C64 76.2091 62.2091 78 60 78L40 78" stroke="#CA3A31" stroke-width="2" stroke-linecap="round"/>
<rect x="0.5" y="0.5" width="389" height="199" rx="7.5" stroke="#CA3A31" stroke-opacity="0.1"/>
</svg>
