<svg width="805" height="160" viewBox="0 0 805 160" fill="none" xmlns="http://www.w3.org/2000/svg">
<rect width="805" height="160" fill="#F9FAFB"/>
<rect x="113" y="56" width="36" height="20" rx="10" fill="#D8DEE9"/>
<circle cx="123" cy="66" r="8" fill="white"/>
<path d="M117.104 100V91.2727H122.337V92.2102H118.161V95.1591H121.945V96.0966H118.161V100H117.104ZM125.936 100.153C125.522 100.153 125.145 100.075 124.807 99.919C124.469 99.7599 124.201 99.5312 124.002 99.233C123.803 98.9318 123.703 98.5682 123.703 98.142C123.703 97.767 123.777 97.4631 123.925 97.2301C124.073 96.9943 124.27 96.8097 124.517 96.6761C124.765 96.5426 125.037 96.4432 125.336 96.3778C125.637 96.3097 125.939 96.2557 126.243 96.2159C126.641 96.1648 126.963 96.1264 127.211 96.1009C127.461 96.0724 127.642 96.0256 127.756 95.9602C127.873 95.8949 127.931 95.7812 127.931 95.6193V95.5852C127.931 95.1648 127.816 94.8381 127.586 94.6051C127.358 94.3722 127.013 94.2557 126.55 94.2557C126.07 94.2557 125.694 94.3608 125.421 94.571C125.148 94.7812 124.956 95.0057 124.846 95.2443L123.891 94.9034C124.061 94.5057 124.289 94.196 124.573 93.9744C124.86 93.75 125.172 93.5937 125.51 93.5057C125.851 93.4148 126.186 93.3693 126.516 93.3693C126.726 93.3693 126.968 93.3949 127.24 93.446C127.516 93.4943 127.782 93.5952 128.037 93.7486C128.296 93.902 128.51 94.1335 128.681 94.4432C128.851 94.7528 128.936 95.1676 128.936 95.6875V100H127.931V99.1136H127.88C127.811 99.2557 127.698 99.4077 127.539 99.5696C127.38 99.7315 127.168 99.8693 126.904 99.983C126.64 100.097 126.317 100.153 125.936 100.153ZM126.09 99.25C126.488 99.25 126.823 99.1719 127.096 99.0156C127.371 98.8594 127.578 98.6577 127.718 98.4105C127.86 98.1634 127.931 97.9034 127.931 97.6307V96.7102C127.888 96.7614 127.794 96.8082 127.65 96.8509C127.507 96.8906 127.343 96.9261 127.155 96.9574C126.971 96.9858 126.79 97.0114 126.614 97.0341C126.441 97.054 126.3 97.071 126.192 97.0852C125.931 97.1193 125.686 97.1747 125.459 97.2514C125.235 97.3253 125.053 97.4375 124.914 97.5881C124.777 97.7358 124.709 97.9375 124.709 98.1932C124.709 98.5426 124.838 98.8068 125.097 98.9858C125.358 99.1619 125.689 99.25 126.09 99.25ZM131.778 91.2727V100H130.772V91.2727H131.778ZM138.256 94.9205L137.353 95.1761C137.296 95.0256 137.212 94.8793 137.101 94.7372C136.993 94.5923 136.846 94.473 136.658 94.3793C136.471 94.2855 136.23 94.2386 135.938 94.2386C135.537 94.2386 135.203 94.331 134.936 94.5156C134.672 94.6974 134.54 94.929 134.54 95.2102C134.54 95.4602 134.631 95.6577 134.813 95.8026C134.995 95.9474 135.279 96.0682 135.665 96.1648L136.637 96.4034C137.222 96.5455 137.658 96.7628 137.945 97.0554C138.232 97.3452 138.375 97.7187 138.375 98.1761C138.375 98.5511 138.267 98.8864 138.051 99.1818C137.838 99.4773 137.54 99.7102 137.157 99.8807C136.773 100.051 136.327 100.136 135.819 100.136C135.151 100.136 134.598 99.9915 134.161 99.7017C133.723 99.4119 133.446 98.9886 133.33 98.4318L134.284 98.1932C134.375 98.5455 134.547 98.8097 134.8 98.9858C135.056 99.1619 135.39 99.25 135.801 99.25C136.27 99.25 136.642 99.1506 136.918 98.9517C137.196 98.75 137.336 98.5085 137.336 98.2273C137.336 98 137.256 97.8097 137.097 97.6562C136.938 97.5 136.694 97.3835 136.364 97.3068L135.273 97.0511C134.674 96.9091 134.233 96.6889 133.952 96.3906C133.674 96.0895 133.534 95.7131 133.534 95.2614C133.534 94.892 133.638 94.5653 133.846 94.2812C134.056 93.9972 134.341 93.7741 134.702 93.6122C135.066 93.4503 135.478 93.3693 135.938 93.3693C136.586 93.3693 137.094 93.5114 137.463 93.7955C137.836 94.0795 138.1 94.4545 138.256 94.9205ZM142.634 100.136C142.003 100.136 141.459 99.9972 141.001 99.7188C140.547 99.4375 140.196 99.0455 139.949 98.5426C139.705 98.0369 139.582 97.4489 139.582 96.7784C139.582 96.108 139.705 95.517 139.949 95.0057C140.196 94.4915 140.54 94.0909 140.98 93.804C141.423 93.5142 141.94 93.3693 142.531 93.3693C142.872 93.3693 143.209 93.4261 143.541 93.5398C143.874 93.6534 144.176 93.8381 144.449 94.0938C144.722 94.3466 144.939 94.6818 145.101 95.0994C145.263 95.517 145.344 96.0312 145.344 96.642V97.0682H140.298V96.1989H144.321C144.321 95.8295 144.247 95.5 144.099 95.2102C143.955 94.9205 143.747 94.6918 143.477 94.5241C143.21 94.3565 142.895 94.2727 142.531 94.2727C142.131 94.2727 141.784 94.3722 141.491 94.571C141.202 94.767 140.979 95.0227 140.822 95.3381C140.666 95.6534 140.588 95.9915 140.588 96.3523V96.9318C140.588 97.4261 140.673 97.8452 140.844 98.1889C141.017 98.5298 141.257 98.7898 141.564 98.9688C141.871 99.1449 142.227 99.233 142.634 99.233C142.898 99.233 143.136 99.196 143.349 99.1222C143.565 99.0455 143.751 98.9318 143.908 98.7812C144.064 98.6278 144.185 98.4375 144.27 98.2102L145.241 98.483C145.139 98.8125 144.967 99.1023 144.726 99.3523C144.484 99.5994 144.186 99.7926 143.831 99.9318C143.476 100.068 143.077 100.136 142.634 100.136Z" fill="black"/>
<rect x="216" y="56" width="36" height="20" rx="10" fill="#217CF5"/>
<circle cx="242" cy="66" r="8" fill="white"/>
<path d="M221.859 92.2102V91.2727H228.404V92.2102H225.66V100H224.603V92.2102H221.859ZM229.219 100V93.4545H230.191V94.4432H230.259C230.378 94.1193 230.594 93.8565 230.907 93.6548C231.219 93.4531 231.572 93.3523 231.964 93.3523C232.037 93.3523 232.13 93.3537 232.241 93.3565C232.351 93.3594 232.435 93.3636 232.492 93.3693V94.392C232.458 94.3835 232.38 94.3707 232.258 94.3537C232.138 94.3338 232.012 94.3239 231.878 94.3239C231.56 94.3239 231.276 94.3906 231.026 94.5241C230.779 94.6548 230.583 94.8366 230.438 95.0696C230.296 95.2997 230.225 95.5625 230.225 95.858V100H229.219ZM237.809 97.3239V93.4545H238.815V100H237.809V98.892H237.741C237.588 99.2244 237.349 99.5071 237.025 99.7401C236.701 99.9702 236.292 100.085 235.798 100.085C235.389 100.085 235.025 99.9957 234.707 99.8168C234.389 99.6349 234.139 99.3622 233.957 98.9986C233.775 98.6321 233.684 98.1705 233.684 97.6136V93.4545H234.69V97.5455C234.69 98.0227 234.823 98.4034 235.09 98.6875C235.36 98.9716 235.704 99.1136 236.122 99.1136C236.372 99.1136 236.626 99.0497 236.884 98.9219C237.146 98.794 237.365 98.598 237.541 98.3338C237.72 98.0696 237.809 97.733 237.809 97.3239ZM243.401 100.136C242.77 100.136 242.226 99.9972 241.769 99.7188C241.314 99.4375 240.964 99.0455 240.716 98.5426C240.472 98.0369 240.35 97.4489 240.35 96.7784C240.35 96.108 240.472 95.517 240.716 95.0057C240.964 94.4915 241.307 94.0909 241.748 93.804C242.191 93.5142 242.708 93.3693 243.299 93.3693C243.64 93.3693 243.976 93.4261 244.309 93.5398C244.641 93.6534 244.944 93.8381 245.216 94.0938C245.489 94.3466 245.706 94.6818 245.868 95.0994C246.03 95.517 246.111 96.0312 246.111 96.642V97.0682H241.066V96.1989H245.089C245.089 95.8295 245.015 95.5 244.867 95.2102C244.722 94.9205 244.515 94.6918 244.245 94.5241C243.978 94.3565 243.662 94.2727 243.299 94.2727C242.898 94.2727 242.552 94.3722 242.259 94.571C241.969 94.767 241.746 95.0227 241.59 95.3381C241.434 95.6534 241.356 95.9915 241.356 96.3523V96.9318C241.356 97.4261 241.441 97.8452 241.611 98.1889C241.785 98.5298 242.025 98.7898 242.331 98.9688C242.638 99.1449 242.995 99.233 243.401 99.233C243.665 99.233 243.904 99.196 244.117 99.1222C244.333 99.0455 244.519 98.9318 244.675 98.7812C244.831 98.6278 244.952 98.4375 245.037 98.2102L246.009 98.483C245.907 98.8125 245.735 99.1023 245.493 99.3523C245.252 99.5994 244.954 99.7926 244.599 99.9318C244.243 100.068 243.844 100.136 243.401 100.136Z" fill="black"/>
<rect x="319" y="56" width="36" height="20" rx="10" fill="#D8DEE9"/>
<circle cx="329" cy="66" r="8" fill="white"/>
<path d="M321.205 100V91.2727H322.262V95.1591H326.915V91.2727H327.972V100H326.915V96.0966H322.262V100H321.205ZM332.611 100.136C332.02 100.136 331.501 99.9957 331.055 99.7145C330.612 99.4332 330.266 99.0398 330.016 98.5341C329.768 98.0284 329.645 97.4375 329.645 96.7614C329.645 96.0795 329.768 95.4844 330.016 94.9759C330.266 94.4673 330.612 94.0724 331.055 93.7912C331.501 93.5099 332.02 93.3693 332.611 93.3693C333.202 93.3693 333.719 93.5099 334.162 93.7912C334.608 94.0724 334.955 94.4673 335.202 94.9759C335.452 95.4844 335.577 96.0795 335.577 96.7614C335.577 97.4375 335.452 98.0284 335.202 98.5341C334.955 99.0398 334.608 99.4332 334.162 99.7145C333.719 99.9957 333.202 100.136 332.611 100.136ZM332.611 99.233C333.06 99.233 333.429 99.1179 333.719 98.8878C334.009 98.6577 334.223 98.3551 334.362 97.9801C334.501 97.6051 334.571 97.1989 334.571 96.7614C334.571 96.3239 334.501 95.9162 334.362 95.5384C334.223 95.1605 334.009 94.8551 333.719 94.6222C333.429 94.3892 333.06 94.2727 332.611 94.2727C332.162 94.2727 331.793 94.3892 331.503 94.6222C331.213 94.8551 330.999 95.1605 330.859 95.5384C330.72 95.9162 330.651 96.3239 330.651 96.7614C330.651 97.1989 330.72 97.6051 330.859 97.9801C330.999 98.3551 331.213 98.6577 331.503 98.8878C331.793 99.1179 332.162 99.233 332.611 99.233ZM342.23 93.4545L339.809 100H338.787L336.366 93.4545H337.457L339.264 98.6705H339.332L341.139 93.4545H342.23ZM346.067 100.136C345.436 100.136 344.892 99.9972 344.435 99.7188C343.98 99.4375 343.63 99.0455 343.382 98.5426C343.138 98.0369 343.016 97.4489 343.016 96.7784C343.016 96.108 343.138 95.517 343.382 95.0057C343.63 94.4915 343.973 94.0909 344.414 93.804C344.857 93.5142 345.374 93.3693 345.965 93.3693C346.306 93.3693 346.642 93.4261 346.975 93.5398C347.307 93.6534 347.61 93.8381 347.882 94.0938C348.155 94.3466 348.373 94.6818 348.534 95.0994C348.696 95.517 348.777 96.0312 348.777 96.642V97.0682H343.732V96.1989H347.755C347.755 95.8295 347.681 95.5 347.533 95.2102C347.388 94.9205 347.181 94.6918 346.911 94.5241C346.644 94.3565 346.328 94.2727 345.965 94.2727C345.564 94.2727 345.218 94.3722 344.925 94.571C344.635 94.767 344.412 95.0227 344.256 95.3381C344.1 95.6534 344.022 95.9915 344.022 96.3523V96.9318C344.022 97.4261 344.107 97.8452 344.277 98.1889C344.451 98.5298 344.691 98.7898 344.998 98.9688C345.304 99.1449 345.661 99.233 346.067 99.233C346.331 99.233 346.57 99.196 346.783 99.1222C346.999 99.0455 347.185 98.9318 347.341 98.7812C347.498 98.6278 347.618 98.4375 347.703 98.2102L348.675 98.483C348.573 98.8125 348.401 99.1023 348.159 99.3523C347.918 99.5994 347.62 99.7926 347.265 99.9318C346.909 100.068 346.51 100.136 346.067 100.136ZM350.307 100V93.4545H351.279V94.4432H351.347C351.466 94.1193 351.682 93.8565 351.995 93.6548C352.307 93.4531 352.659 93.3523 353.051 93.3523C353.125 93.3523 353.218 93.3537 353.328 93.3565C353.439 93.3594 353.523 93.3636 353.58 93.3693V94.392C353.546 94.3835 353.468 94.3707 353.346 94.3537C353.226 94.3338 353.1 94.3239 352.966 94.3239C352.648 94.3239 352.364 94.3906 352.114 94.5241C351.867 94.6548 351.671 94.8366 351.526 95.0696C351.384 95.2997 351.313 95.5625 351.313 95.858V100H350.307Z" fill="black"/>
<rect x="422" y="56" width="36" height="20" rx="10" fill="#B8BFC7"/>
<circle cx="432" cy="66" r="8" fill="white"/>
<path d="M424.223 100V91.2727H429.456V92.2102H425.28V95.1591H429.064V96.0966H425.28V100H424.223ZM433.308 100.136C432.717 100.136 432.199 99.9957 431.753 99.7145C431.309 99.4332 430.963 99.0398 430.713 98.5341C430.466 98.0284 430.342 97.4375 430.342 96.7614C430.342 96.0795 430.466 95.4844 430.713 94.9759C430.963 94.4673 431.309 94.0724 431.753 93.7912C432.199 93.5099 432.717 93.3693 433.308 93.3693C433.899 93.3693 434.416 93.5099 434.859 93.7912C435.305 94.0724 435.652 94.4673 435.899 94.9759C436.149 95.4844 436.274 96.0795 436.274 96.7614C436.274 97.4375 436.149 98.0284 435.899 98.5341C435.652 99.0398 435.305 99.4332 434.859 99.7145C434.416 99.9957 433.899 100.136 433.308 100.136ZM433.308 99.233C433.757 99.233 434.126 99.1179 434.416 98.8878C434.706 98.6577 434.92 98.3551 435.059 97.9801C435.199 97.6051 435.268 97.1989 435.268 96.7614C435.268 96.3239 435.199 95.9162 435.059 95.5384C434.92 95.1605 434.706 94.8551 434.416 94.6222C434.126 94.3892 433.757 94.2727 433.308 94.2727C432.859 94.2727 432.49 94.3892 432.2 94.6222C431.91 94.8551 431.696 95.1605 431.557 95.5384C431.417 95.9162 431.348 96.3239 431.348 96.7614C431.348 97.1989 431.417 97.6051 431.557 97.9801C431.696 98.3551 431.91 98.6577 432.2 98.8878C432.49 99.1179 432.859 99.233 433.308 99.233ZM440.468 100.136C439.855 100.136 439.326 99.9915 438.883 99.7017C438.44 99.4119 438.099 99.0128 437.86 98.5043C437.622 97.9957 437.502 97.4148 437.502 96.7614C437.502 96.0966 437.624 95.5099 437.869 95.0014C438.116 94.4901 438.46 94.0909 438.9 93.804C439.343 93.5142 439.86 93.3693 440.451 93.3693C440.911 93.3693 441.326 93.4545 441.695 93.625C442.065 93.7955 442.367 94.0341 442.603 94.3409C442.839 94.6477 442.985 95.0057 443.042 95.4148H442.036C441.96 95.1165 441.789 94.8523 441.525 94.6222C441.264 94.3892 440.911 94.2727 440.468 94.2727C440.076 94.2727 439.732 94.375 439.437 94.5795C439.144 94.7812 438.916 95.0668 438.751 95.4361C438.589 95.8026 438.508 96.233 438.508 96.7273C438.508 97.233 438.588 97.6733 438.747 98.0483C438.909 98.4233 439.136 98.7145 439.428 98.9219C439.724 99.1293 440.07 99.233 440.468 99.233C440.73 99.233 440.967 99.1875 441.18 99.0966C441.393 99.0057 441.573 98.875 441.721 98.7045C441.869 98.5341 441.974 98.3295 442.036 98.0909H443.042C442.985 98.4773 442.845 98.8253 442.62 99.1349C442.399 99.4418 442.105 99.6861 441.738 99.8679C441.374 100.047 440.951 100.136 440.468 100.136ZM448.637 97.3239V93.4545H449.643V100H448.637V98.892H448.569C448.416 99.2244 448.177 99.5071 447.853 99.7401C447.529 99.9702 447.12 100.085 446.626 100.085C446.217 100.085 445.853 99.9957 445.535 99.8168C445.217 99.6349 444.967 99.3622 444.785 98.9986C444.603 98.6321 444.512 98.1705 444.512 97.6136V93.4545H445.518V97.5455C445.518 98.0227 445.651 98.4034 445.919 98.6875C446.188 98.9716 446.532 99.1136 446.95 99.1136C447.2 99.1136 447.454 99.0497 447.713 98.9219C447.974 98.794 448.193 98.598 448.369 98.3338C448.548 98.0696 448.637 97.733 448.637 97.3239ZM456.121 94.9205L455.218 95.1761C455.161 95.0256 455.077 94.8793 454.966 94.7372C454.858 94.5923 454.711 94.473 454.523 94.3793C454.336 94.2855 454.096 94.2386 453.803 94.2386C453.403 94.2386 453.069 94.331 452.802 94.5156C452.537 94.6974 452.405 94.929 452.405 95.2102C452.405 95.4602 452.496 95.6577 452.678 95.8026C452.86 95.9474 453.144 96.0682 453.53 96.1648L454.502 96.4034C455.087 96.5455 455.523 96.7628 455.81 97.0554C456.097 97.3452 456.241 97.7187 456.241 98.1761C456.241 98.5511 456.133 98.8864 455.917 99.1818C455.704 99.4773 455.405 99.7102 455.022 99.8807C454.638 100.051 454.192 100.136 453.684 100.136C453.016 100.136 452.464 99.9915 452.026 99.7017C451.589 99.4119 451.312 98.9886 451.195 98.4318L452.15 98.1932C452.241 98.5455 452.412 98.8097 452.665 98.9858C452.921 99.1619 453.255 99.25 453.667 99.25C454.135 99.25 454.508 99.1506 454.783 98.9517C455.062 98.75 455.201 98.5085 455.201 98.2273C455.201 98 455.121 97.8097 454.962 97.6562C454.803 97.5 454.559 97.3835 454.229 97.3068L453.138 97.0511C452.539 96.9091 452.099 96.6889 451.817 96.3906C451.539 96.0895 451.4 95.7131 451.4 95.2614C451.4 94.892 451.503 94.5653 451.711 94.2812C451.921 93.9972 452.206 93.7741 452.567 93.6122C452.931 93.4503 453.343 93.3693 453.803 93.3693C454.451 93.3693 454.959 93.5114 455.329 93.7955C455.701 94.0795 455.965 94.4545 456.121 94.9205Z" fill="black"/>
<rect x="532" y="56" width="36" height="20" rx="10" fill="#EAECF0"/>
<circle cx="542" cy="66" r="8" fill="#F9FAFB"/>
<path d="M529.129 100H526.436V91.2727H529.248C530.095 91.2727 530.819 91.4474 531.422 91.7969C532.024 92.1435 532.485 92.642 532.806 93.2926C533.127 93.9403 533.288 94.7159 533.288 95.6193C533.288 96.5284 533.126 97.3111 532.802 97.9673C532.478 98.6207 532.007 99.1236 531.387 99.4759C530.768 99.8253 530.015 100 529.129 100ZM527.493 99.0625H529.061C529.782 99.0625 530.38 98.9233 530.855 98.6449C531.329 98.3665 531.683 97.9702 531.916 97.456C532.149 96.9418 532.265 96.3295 532.265 95.6193C532.265 94.9148 532.15 94.3082 531.92 93.7997C531.69 93.2884 531.346 92.8963 530.889 92.6236C530.431 92.348 529.862 92.2102 529.18 92.2102H527.493V99.0625ZM534.924 100V93.4545H535.93V100H534.924ZM535.436 92.3636C535.24 92.3636 535.071 92.2969 534.929 92.1634C534.789 92.0298 534.72 91.8693 534.72 91.6818C534.72 91.4943 534.789 91.3338 534.929 91.2003C535.071 91.0668 535.24 91 535.436 91C535.632 91 535.799 91.0668 535.939 91.2003C536.081 91.3338 536.152 91.4943 536.152 91.6818C536.152 91.8693 536.081 92.0298 535.939 92.1634C535.799 92.2969 535.632 92.3636 535.436 92.3636ZM542.408 94.9205L541.505 95.1761C541.448 95.0256 541.364 94.8793 541.254 94.7372C541.146 94.5923 540.998 94.473 540.81 94.3793C540.623 94.2855 540.383 94.2386 540.09 94.2386C539.69 94.2386 539.356 94.331 539.089 94.5156C538.825 94.6974 538.692 94.929 538.692 95.2102C538.692 95.4602 538.783 95.6577 538.965 95.8026C539.147 95.9474 539.431 96.0682 539.817 96.1648L540.789 96.4034C541.374 96.5455 541.81 96.7628 542.097 97.0554C542.384 97.3452 542.528 97.7187 542.528 98.1761C542.528 98.5511 542.42 98.8864 542.204 99.1818C541.991 99.4773 541.692 99.7102 541.309 99.8807C540.925 100.051 540.479 100.136 539.971 100.136C539.303 100.136 538.751 99.9915 538.313 99.7017C537.876 99.4119 537.599 98.9886 537.482 98.4318L538.437 98.1932C538.528 98.5455 538.7 98.8097 538.952 98.9858C539.208 99.1619 539.542 99.25 539.954 99.25C540.423 99.25 540.795 99.1506 541.07 98.9517C541.349 98.75 541.488 98.5085 541.488 98.2273C541.488 98 541.408 97.8097 541.249 97.6562C541.09 97.5 540.846 97.3835 540.516 97.3068L539.425 97.0511C538.826 96.9091 538.386 96.6889 538.104 96.3906C537.826 96.0895 537.687 95.7131 537.687 95.2614C537.687 94.892 537.79 94.5653 537.998 94.2812C538.208 93.9972 538.494 93.7741 538.854 93.6122C539.218 93.4503 539.63 93.3693 540.09 93.3693C540.738 93.3693 541.246 93.5114 541.616 93.7955C541.988 94.0795 542.252 94.4545 542.408 94.9205ZM545.968 100.153C545.553 100.153 545.176 100.075 544.838 99.919C544.5 99.7599 544.232 99.5312 544.033 99.233C543.834 98.9318 543.735 98.5682 543.735 98.142C543.735 97.767 543.809 97.4631 543.956 97.2301C544.104 96.9943 544.301 96.8097 544.549 96.6761C544.796 96.5426 545.069 96.4432 545.367 96.3778C545.668 96.3097 545.971 96.2557 546.275 96.2159C546.672 96.1648 546.995 96.1264 547.242 96.1009C547.492 96.0724 547.674 96.0256 547.787 95.9602C547.904 95.8949 547.962 95.7812 547.962 95.6193V95.5852C547.962 95.1648 547.847 94.8381 547.617 94.6051C547.39 94.3722 547.044 94.2557 546.581 94.2557C546.101 94.2557 545.725 94.3608 545.452 94.571C545.179 94.7812 544.988 95.0057 544.877 95.2443L543.922 94.9034C544.093 94.5057 544.32 94.196 544.604 93.9744C544.891 93.75 545.203 93.5937 545.542 93.5057C545.882 93.4148 546.218 93.3693 546.547 93.3693C546.757 93.3693 546.999 93.3949 547.272 93.446C547.547 93.4943 547.813 93.5952 548.069 93.7486C548.327 93.902 548.542 94.1335 548.712 94.4432C548.882 94.7528 548.968 95.1676 548.968 95.6875V100H547.962V99.1136H547.911C547.843 99.2557 547.729 99.4077 547.57 99.5696C547.411 99.7315 547.199 99.8693 546.935 99.983C546.671 100.097 546.348 100.153 545.968 100.153ZM546.121 99.25C546.519 99.25 546.854 99.1719 547.127 99.0156C547.402 98.8594 547.61 98.6577 547.749 98.4105C547.891 98.1634 547.962 97.9034 547.962 97.6307V96.7102C547.919 96.7614 547.826 96.8082 547.681 96.8509C547.539 96.8906 547.374 96.9261 547.186 96.9574C547.002 96.9858 546.821 97.0114 546.645 97.0341C546.472 97.054 546.331 97.071 546.223 97.0852C545.962 97.1193 545.718 97.1747 545.49 97.2514C545.266 97.3253 545.084 97.4375 544.945 97.5881C544.809 97.7358 544.74 97.9375 544.74 98.1932C544.74 98.5426 544.87 98.8068 545.128 98.9858C545.39 99.1619 545.721 99.25 546.121 99.25ZM550.94 100V91.2727H551.945V94.4943H552.031C552.104 94.3807 552.207 94.2358 552.337 94.0597C552.471 93.8807 552.661 93.7216 552.908 93.5824C553.158 93.4403 553.496 93.3693 553.923 93.3693C554.474 93.3693 554.96 93.5071 555.38 93.7827C555.8 94.0582 556.129 94.4489 556.364 94.9545C556.6 95.4602 556.718 96.0568 556.718 96.7443C556.718 97.4375 556.6 98.0384 556.364 98.5469C556.129 99.0526 555.802 99.4446 555.384 99.723C554.967 99.9986 554.485 100.136 553.94 100.136C553.519 100.136 553.183 100.067 552.93 99.9276C552.677 99.7855 552.482 99.625 552.346 99.446C552.21 99.2642 552.104 99.1136 552.031 98.9943H551.911V100H550.94ZM551.928 96.7273C551.928 97.2216 552.001 97.6577 552.146 98.0355C552.29 98.4105 552.502 98.7045 552.781 98.9176C553.059 99.1278 553.4 99.233 553.803 99.233C554.224 99.233 554.575 99.1222 554.856 98.9006C555.14 98.6761 555.353 98.375 555.495 97.9972C555.64 97.6165 555.712 97.1932 555.712 96.7273C555.712 96.267 555.641 95.8523 555.499 95.483C555.36 95.1108 555.148 94.8168 554.864 94.6009C554.583 94.3821 554.229 94.2727 553.803 94.2727C553.394 94.2727 553.05 94.3764 552.772 94.5838C552.494 94.7884 552.283 95.0753 552.141 95.4446C551.999 95.8111 551.928 96.2386 551.928 96.7273ZM559.262 91.2727V100H558.256V91.2727H559.262ZM563.848 100.136C563.218 100.136 562.674 99.9972 562.216 99.7188C561.762 99.4375 561.411 99.0455 561.164 98.5426C560.919 98.0369 560.797 97.4489 560.797 96.7784C560.797 96.108 560.919 95.517 561.164 95.0057C561.411 94.4915 561.755 94.0909 562.195 93.804C562.638 93.5142 563.155 93.3693 563.746 93.3693C564.087 93.3693 564.424 93.4261 564.756 93.5398C565.088 93.6534 565.391 93.8381 565.664 94.0938C565.936 94.3466 566.154 94.6818 566.316 95.0994C566.478 95.517 566.559 96.0312 566.559 96.642V97.0682H561.513V96.1989H565.536C565.536 95.8295 565.462 95.5 565.314 95.2102C565.169 94.9205 564.962 94.6918 564.692 94.5241C564.425 94.3565 564.11 94.2727 563.746 94.2727C563.346 94.2727 562.999 94.3722 562.706 94.571C562.417 94.767 562.194 95.0227 562.037 95.3381C561.881 95.6534 561.803 95.9915 561.803 96.3523V96.9318C561.803 97.4261 561.888 97.8452 562.059 98.1889C562.232 98.5298 562.472 98.7898 562.779 98.9688C563.086 99.1449 563.442 99.233 563.848 99.233C564.113 99.233 564.351 99.196 564.564 99.1222C564.78 99.0455 564.966 98.9318 565.123 98.7812C565.279 98.6278 565.4 98.4375 565.485 98.2102L566.456 98.483C566.354 98.8125 566.182 99.1023 565.941 99.3523C565.699 99.5994 565.401 99.7926 565.046 99.9318C564.691 100.068 564.292 100.136 563.848 100.136ZM570.56 100.136C570.015 100.136 569.533 99.9986 569.115 99.723C568.698 99.4446 568.371 99.0526 568.135 98.5469C567.9 98.0384 567.782 97.4375 567.782 96.7443C567.782 96.0568 567.9 95.4602 568.135 94.9545C568.371 94.4489 568.699 94.0582 569.12 93.7827C569.54 93.5071 570.026 93.3693 570.577 93.3693C571.003 93.3693 571.34 93.4403 571.587 93.5824C571.837 93.7216 572.027 93.8807 572.158 94.0597C572.292 94.2358 572.395 94.3807 572.469 94.4943H572.554V91.2727H573.56V100H572.588V98.9943H572.469C572.395 99.1136 572.29 99.2642 572.154 99.446C572.017 99.625 571.823 99.7855 571.57 99.9276C571.317 100.067 570.98 100.136 570.56 100.136ZM570.696 99.233C571.1 99.233 571.441 99.1278 571.719 98.9176C571.998 98.7045 572.209 98.4105 572.354 98.0355C572.499 97.6577 572.571 97.2216 572.571 96.7273C572.571 96.2386 572.5 95.8111 572.358 95.4446C572.216 95.0753 572.006 94.7884 571.728 94.5838C571.449 94.3764 571.105 94.2727 570.696 94.2727C570.27 94.2727 569.915 94.3821 569.631 94.6009C569.35 94.8168 569.138 95.1108 568.996 95.483C568.857 95.8523 568.787 96.267 568.787 96.7273C568.787 97.1932 568.858 97.6165 569 97.9972C569.145 98.375 569.358 98.6761 569.64 98.9006C569.924 99.1222 570.276 99.233 570.696 99.233Z" fill="black"/>
<rect x="649" y="56" width="36" height="20" rx="10" fill="#DEECFE"/>
<circle cx="675" cy="66" r="8" fill="#F9FAFB"/>
<path d="M646.129 100H643.436V91.2727H646.248C647.095 91.2727 647.819 91.4474 648.422 91.7969C649.024 92.1435 649.485 92.642 649.806 93.2926C650.127 93.9403 650.288 94.7159 650.288 95.6193C650.288 96.5284 650.126 97.3111 649.802 97.9673C649.478 98.6207 649.007 99.1236 648.387 99.4759C647.768 99.8253 647.015 100 646.129 100ZM644.493 99.0625H646.061C646.782 99.0625 647.38 98.9233 647.855 98.6449C648.329 98.3665 648.683 97.9702 648.916 97.456C649.149 96.9418 649.265 96.3295 649.265 95.6193C649.265 94.9148 649.15 94.3082 648.92 93.7997C648.69 93.2884 648.346 92.8963 647.889 92.6236C647.431 92.348 646.862 92.2102 646.18 92.2102H644.493V99.0625ZM651.924 100V93.4545H652.93V100H651.924ZM652.436 92.3636C652.24 92.3636 652.071 92.2969 651.929 92.1634C651.789 92.0298 651.72 91.8693 651.72 91.6818C651.72 91.4943 651.789 91.3338 651.929 91.2003C652.071 91.0668 652.24 91 652.436 91C652.632 91 652.799 91.0668 652.939 91.2003C653.081 91.3338 653.152 91.4943 653.152 91.6818C653.152 91.8693 653.081 92.0298 652.939 92.1634C652.799 92.2969 652.632 92.3636 652.436 92.3636ZM659.408 94.9205L658.505 95.1761C658.448 95.0256 658.364 94.8793 658.254 94.7372C658.146 94.5923 657.998 94.473 657.81 94.3793C657.623 94.2855 657.383 94.2386 657.09 94.2386C656.69 94.2386 656.356 94.331 656.089 94.5156C655.825 94.6974 655.692 94.929 655.692 95.2102C655.692 95.4602 655.783 95.6577 655.965 95.8026C656.147 95.9474 656.431 96.0682 656.817 96.1648L657.789 96.4034C658.374 96.5455 658.81 96.7628 659.097 97.0554C659.384 97.3452 659.528 97.7187 659.528 98.1761C659.528 98.5511 659.42 98.8864 659.204 99.1818C658.991 99.4773 658.692 99.7102 658.309 99.8807C657.925 100.051 657.479 100.136 656.971 100.136C656.303 100.136 655.751 99.9915 655.313 99.7017C654.876 99.4119 654.599 98.9886 654.482 98.4318L655.437 98.1932C655.528 98.5455 655.7 98.8097 655.952 98.9858C656.208 99.1619 656.542 99.25 656.954 99.25C657.423 99.25 657.795 99.1506 658.07 98.9517C658.349 98.75 658.488 98.5085 658.488 98.2273C658.488 98 658.408 97.8097 658.249 97.6562C658.09 97.5 657.846 97.3835 657.516 97.3068L656.425 97.0511C655.826 96.9091 655.386 96.6889 655.104 96.3906C654.826 96.0895 654.687 95.7131 654.687 95.2614C654.687 94.892 654.79 94.5653 654.998 94.2812C655.208 93.9972 655.494 93.7741 655.854 93.6122C656.218 93.4503 656.63 93.3693 657.09 93.3693C657.738 93.3693 658.246 93.5114 658.616 93.7955C658.988 94.0795 659.252 94.4545 659.408 94.9205ZM662.968 100.153C662.553 100.153 662.176 100.075 661.838 99.919C661.5 99.7599 661.232 99.5312 661.033 99.233C660.834 98.9318 660.735 98.5682 660.735 98.142C660.735 97.767 660.809 97.4631 660.956 97.2301C661.104 96.9943 661.301 96.8097 661.549 96.6761C661.796 96.5426 662.069 96.4432 662.367 96.3778C662.668 96.3097 662.971 96.2557 663.275 96.2159C663.672 96.1648 663.995 96.1264 664.242 96.1009C664.492 96.0724 664.674 96.0256 664.787 95.9602C664.904 95.8949 664.962 95.7812 664.962 95.6193V95.5852C664.962 95.1648 664.847 94.8381 664.617 94.6051C664.39 94.3722 664.044 94.2557 663.581 94.2557C663.101 94.2557 662.725 94.3608 662.452 94.571C662.179 94.7812 661.988 95.0057 661.877 95.2443L660.922 94.9034C661.093 94.5057 661.32 94.196 661.604 93.9744C661.891 93.75 662.203 93.5937 662.542 93.5057C662.882 93.4148 663.218 93.3693 663.547 93.3693C663.757 93.3693 663.999 93.3949 664.272 93.446C664.547 93.4943 664.813 93.5952 665.069 93.7486C665.327 93.902 665.542 94.1335 665.712 94.4432C665.882 94.7528 665.968 95.1676 665.968 95.6875V100H664.962V99.1136H664.911C664.843 99.2557 664.729 99.4077 664.57 99.5696C664.411 99.7315 664.199 99.8693 663.935 99.983C663.671 100.097 663.348 100.153 662.968 100.153ZM663.121 99.25C663.519 99.25 663.854 99.1719 664.127 99.0156C664.402 98.8594 664.61 98.6577 664.749 98.4105C664.891 98.1634 664.962 97.9034 664.962 97.6307V96.7102C664.919 96.7614 664.826 96.8082 664.681 96.8509C664.539 96.8906 664.374 96.9261 664.186 96.9574C664.002 96.9858 663.821 97.0114 663.645 97.0341C663.472 97.054 663.331 97.071 663.223 97.0852C662.962 97.1193 662.718 97.1747 662.49 97.2514C662.266 97.3253 662.084 97.4375 661.945 97.5881C661.809 97.7358 661.74 97.9375 661.74 98.1932C661.74 98.5426 661.87 98.8068 662.128 98.9858C662.39 99.1619 662.721 99.25 663.121 99.25ZM667.94 100V91.2727H668.945V94.4943H669.031C669.104 94.3807 669.207 94.2358 669.337 94.0597C669.471 93.8807 669.661 93.7216 669.908 93.5824C670.158 93.4403 670.496 93.3693 670.923 93.3693C671.474 93.3693 671.96 93.5071 672.38 93.7827C672.8 94.0582 673.129 94.4489 673.364 94.9545C673.6 95.4602 673.718 96.0568 673.718 96.7443C673.718 97.4375 673.6 98.0384 673.364 98.5469C673.129 99.0526 672.802 99.4446 672.384 99.723C671.967 99.9986 671.485 100.136 670.94 100.136C670.519 100.136 670.183 100.067 669.93 99.9276C669.677 99.7855 669.482 99.625 669.346 99.446C669.21 99.2642 669.104 99.1136 669.031 98.9943H668.911V100H667.94ZM668.928 96.7273C668.928 97.2216 669.001 97.6577 669.146 98.0355C669.29 98.4105 669.502 98.7045 669.781 98.9176C670.059 99.1278 670.4 99.233 670.803 99.233C671.224 99.233 671.575 99.1222 671.856 98.9006C672.14 98.6761 672.353 98.375 672.495 97.9972C672.64 97.6165 672.712 97.1932 672.712 96.7273C672.712 96.267 672.641 95.8523 672.499 95.483C672.36 95.1108 672.148 94.8168 671.864 94.6009C671.583 94.3821 671.229 94.2727 670.803 94.2727C670.394 94.2727 670.05 94.3764 669.772 94.5838C669.494 94.7884 669.283 95.0753 669.141 95.4446C668.999 95.8111 668.928 96.2386 668.928 96.7273ZM676.262 91.2727V100H675.256V91.2727H676.262ZM680.848 100.136C680.218 100.136 679.674 99.9972 679.216 99.7188C678.762 99.4375 678.411 99.0455 678.164 98.5426C677.919 98.0369 677.797 97.4489 677.797 96.7784C677.797 96.108 677.919 95.517 678.164 95.0057C678.411 94.4915 678.755 94.0909 679.195 93.804C679.638 93.5142 680.155 93.3693 680.746 93.3693C681.087 93.3693 681.424 93.4261 681.756 93.5398C682.088 93.6534 682.391 93.8381 682.664 94.0938C682.936 94.3466 683.154 94.6818 683.316 95.0994C683.478 95.517 683.559 96.0312 683.559 96.642V97.0682H678.513V96.1989H682.536C682.536 95.8295 682.462 95.5 682.314 95.2102C682.169 94.9205 681.962 94.6918 681.692 94.5241C681.425 94.3565 681.11 94.2727 680.746 94.2727C680.346 94.2727 679.999 94.3722 679.706 94.571C679.417 94.767 679.194 95.0227 679.037 95.3381C678.881 95.6534 678.803 95.9915 678.803 96.3523V96.9318C678.803 97.4261 678.888 97.8452 679.059 98.1889C679.232 98.5298 679.472 98.7898 679.779 98.9688C680.086 99.1449 680.442 99.233 680.848 99.233C681.113 99.233 681.351 99.196 681.564 99.1222C681.78 99.0455 681.966 98.9318 682.123 98.7812C682.279 98.6278 682.4 98.4375 682.485 98.2102L683.456 98.483C683.354 98.8125 683.182 99.1023 682.941 99.3523C682.699 99.5994 682.401 99.7926 682.046 99.9318C681.691 100.068 681.292 100.136 680.848 100.136ZM687.56 100.136C687.015 100.136 686.533 99.9986 686.115 99.723C685.698 99.4446 685.371 99.0526 685.135 98.5469C684.9 98.0384 684.782 97.4375 684.782 96.7443C684.782 96.0568 684.9 95.4602 685.135 94.9545C685.371 94.4489 685.699 94.0582 686.12 93.7827C686.54 93.5071 687.026 93.3693 687.577 93.3693C688.003 93.3693 688.34 93.4403 688.587 93.5824C688.837 93.7216 689.027 93.8807 689.158 94.0597C689.292 94.2358 689.395 94.3807 689.469 94.4943H689.554V91.2727H690.56V100H689.588V98.9943H689.469C689.395 99.1136 689.29 99.2642 689.154 99.446C689.017 99.625 688.823 99.7855 688.57 99.9276C688.317 100.067 687.98 100.136 687.56 100.136ZM687.696 99.233C688.1 99.233 688.441 99.1278 688.719 98.9176C688.998 98.7045 689.209 98.4105 689.354 98.0355C689.499 97.6577 689.571 97.2216 689.571 96.7273C689.571 96.2386 689.5 95.8111 689.358 95.4446C689.216 95.0753 689.006 94.7884 688.728 94.5838C688.449 94.3764 688.105 94.2727 687.696 94.2727C687.27 94.2727 686.915 94.3821 686.631 94.6009C686.35 94.8168 686.138 95.1108 685.996 95.483C685.857 95.8523 685.787 96.267 685.787 96.7273C685.787 97.1932 685.858 97.6165 686 97.9972C686.145 98.375 686.358 98.6761 686.64 98.9006C686.924 99.1222 687.276 99.233 687.696 99.233Z" fill="black"/>
</svg>
