<svg width="804" height="160" viewBox="0 0 804 160" fill="none" xmlns="http://www.w3.org/2000/svg">
<rect width="804" height="160" fill="#F9FAFB"/>
<rect x="402" y="59" width="44" height="24" rx="12" fill="#217CF5"/>
<circle cx="434" cy="71" r="10" fill="white"/>
<path d="M459.039 74V64.5455H462.409C463.141 64.5455 463.749 64.6716 464.232 64.924C464.719 65.1764 465.082 65.5257 465.322 65.9719C465.562 66.4151 465.682 66.9276 465.682 67.5092C465.682 68.0878 465.56 68.5972 465.317 69.0373C465.077 69.4743 464.714 69.8144 464.228 70.0575C463.744 70.3007 463.137 70.4222 462.404 70.4222H459.851V69.1942H462.275C462.737 69.1942 463.112 69.1281 463.401 68.9957C463.694 68.8634 463.908 68.671 464.043 68.4187C464.178 68.1663 464.246 67.8632 464.246 67.5092C464.246 67.1522 464.177 66.8429 464.038 66.5813C463.903 66.3197 463.689 66.1197 463.397 65.9812C463.107 65.8396 462.727 65.7688 462.256 65.7688H460.465V74H459.039ZM463.706 69.7344L466.042 74H464.417L462.127 69.7344H463.706ZM470.274 74.1431C469.575 74.1431 468.974 73.9938 468.469 73.6953C467.967 73.3937 467.58 72.9705 467.306 72.4258C467.035 71.878 466.899 71.2363 466.899 70.5007C466.899 69.7744 467.035 69.1342 467.306 68.5803C467.58 68.0263 467.961 67.5939 468.451 67.283C468.943 66.9722 469.518 66.8168 470.177 66.8168C470.577 66.8168 470.965 66.8829 471.34 67.0153C471.716 67.1476 472.053 67.3554 472.351 67.6385C472.65 67.9216 472.885 68.2894 473.058 68.7418C473.23 69.1912 473.316 69.7375 473.316 70.3807V70.87H467.68V69.8359H471.964C471.964 69.4728 471.89 69.1512 471.742 68.8711C471.594 68.5879 471.387 68.3648 471.119 68.2017C470.854 68.0386 470.543 67.957 470.186 67.957C469.799 67.957 469.46 68.0524 469.171 68.2433C468.884 68.431 468.663 68.6772 468.506 68.9819C468.352 69.2835 468.275 69.6113 468.275 69.9652V70.7731C468.275 71.247 468.358 71.6502 468.524 71.9826C468.694 72.315 468.929 72.5689 469.231 72.7443C469.532 72.9167 469.885 73.0028 470.288 73.0028C470.55 73.0028 470.788 72.9659 471.003 72.892C471.219 72.8151 471.405 72.7012 471.562 72.5504C471.719 72.3996 471.839 72.2134 471.922 71.9918L473.229 72.2273C473.124 72.612 472.936 72.949 472.665 73.2383C472.398 73.5245 472.061 73.7476 471.654 73.9077C471.251 74.0646 470.791 74.1431 470.274 74.1431ZM474.848 74V66.9091H476.173V68.0632H476.26C476.408 67.6723 476.65 67.3677 476.985 67.1491C477.321 66.9276 477.722 66.8168 478.19 66.8168C478.664 66.8168 479.061 66.9276 479.381 67.1491C479.704 67.3707 479.943 67.6754 480.097 68.0632H480.171C480.34 67.6847 480.609 67.383 480.979 67.1584C481.348 66.9306 481.788 66.8168 482.299 66.8168C482.942 66.8168 483.467 67.0183 483.873 67.4215C484.282 67.8247 484.487 68.4325 484.487 69.245V74H483.107V69.3743C483.107 68.8942 482.976 68.5464 482.714 68.331C482.453 68.1155 482.14 68.0078 481.777 68.0078C481.328 68.0078 480.979 68.1463 480.729 68.4233C480.48 68.6972 480.355 69.0496 480.355 69.4805V74H478.98V69.2866C478.98 68.9019 478.86 68.5926 478.619 68.3587C478.379 68.1248 478.067 68.0078 477.682 68.0078C477.421 68.0078 477.179 68.0771 476.958 68.2156C476.739 68.351 476.562 68.5402 476.427 68.7834C476.294 69.0265 476.228 69.3081 476.228 69.6282V74H474.848ZM489.393 74.1431C488.695 74.1431 488.093 73.9938 487.588 73.6953C487.086 73.3937 486.699 72.9705 486.425 72.4258C486.154 71.878 486.019 71.2363 486.019 70.5007C486.019 69.7744 486.154 69.1342 486.425 68.5803C486.699 68.0263 487.08 67.5939 487.57 67.283C488.062 66.9722 488.638 66.8168 489.296 66.8168C489.696 66.8168 490.084 66.8829 490.46 67.0153C490.835 67.1476 491.172 67.3554 491.471 67.6385C491.769 67.9216 492.005 68.2894 492.177 68.7418C492.349 69.1912 492.435 69.7375 492.435 70.3807V70.87H486.799V69.8359H491.083C491.083 69.4728 491.009 69.1512 490.861 68.8711C490.714 68.5879 490.506 68.3648 490.238 68.2017C489.973 68.0386 489.662 67.957 489.305 67.957C488.918 67.957 488.579 68.0524 488.29 68.2433C488.004 68.431 487.782 68.6772 487.625 68.9819C487.471 69.2835 487.394 69.6113 487.394 69.9652V70.7731C487.394 71.247 487.477 71.6502 487.644 71.9826C487.813 72.315 488.048 72.5689 488.35 72.7443C488.651 72.9167 489.004 73.0028 489.407 73.0028C489.669 73.0028 489.907 72.9659 490.123 72.892C490.338 72.8151 490.524 72.7012 490.681 72.5504C490.838 72.3996 490.958 72.2134 491.041 71.9918L492.348 72.2273C492.243 72.612 492.055 72.949 491.785 73.2383C491.517 73.5245 491.18 73.7476 490.774 73.9077C490.37 74.0646 489.91 74.1431 489.393 74.1431ZM493.967 74V66.9091H495.292V68.0632H495.38C495.527 67.6723 495.769 67.3677 496.104 67.1491C496.44 66.9276 496.842 66.8168 497.309 66.8168C497.783 66.8168 498.18 66.9276 498.5 67.1491C498.824 67.3707 499.062 67.6754 499.216 68.0632H499.29C499.459 67.6847 499.728 67.383 500.098 67.1584C500.467 66.9306 500.907 66.8168 501.418 66.8168C502.061 66.8168 502.586 67.0183 502.992 67.4215C503.402 67.8247 503.606 68.4325 503.606 69.245V74H502.226V69.3743C502.226 68.8942 502.095 68.5464 501.833 68.331C501.572 68.1155 501.259 68.0078 500.896 68.0078C500.447 68.0078 500.098 68.1463 499.848 68.4233C499.599 68.6972 499.474 69.0496 499.474 69.4805V74H498.099V69.2866C498.099 68.9019 497.979 68.5926 497.739 68.3587C497.499 68.1248 497.186 68.0078 496.801 68.0078C496.54 68.0078 496.298 68.0771 496.077 68.2156C495.858 68.351 495.681 68.5402 495.546 68.7834C495.413 69.0265 495.347 69.3081 495.347 69.6282V74H493.967ZM505.567 74V64.5455H506.947V68.0586H507.03C507.11 67.9109 507.226 67.7401 507.377 67.5462C507.527 67.3523 507.737 67.183 508.005 67.0384C508.272 66.8906 508.626 66.8168 509.066 66.8168C509.639 66.8168 510.15 66.9614 510.599 67.2507C511.048 67.54 511.401 67.957 511.656 68.5018C511.915 69.0465 512.044 69.7021 512.044 70.4684C512.044 71.2347 511.916 71.8918 511.661 72.4396C511.405 72.9844 511.054 73.4045 510.608 73.6999C510.162 73.9923 509.653 74.1385 509.08 74.1385C508.649 74.1385 508.297 74.0662 508.023 73.9215C507.752 73.7769 507.54 73.6076 507.386 73.4137C507.232 73.2198 507.114 73.0475 507.03 72.8967H506.915V74H505.567ZM506.92 70.4545C506.92 70.9531 506.992 71.3902 507.137 71.7656C507.281 72.1411 507.491 72.435 507.764 72.6474C508.038 72.8567 508.374 72.9613 508.771 72.9613C509.183 72.9613 509.528 72.852 509.805 72.6335C510.082 72.4119 510.291 72.1119 510.433 71.7333C510.577 71.3548 510.65 70.9285 510.65 70.4545C510.65 69.9867 510.579 69.5666 510.437 69.1942C510.299 68.8219 510.09 68.5279 509.81 68.3125C509.533 68.0971 509.186 67.9893 508.771 67.9893C508.371 67.9893 508.032 68.0924 507.755 68.2987C507.481 68.5049 507.274 68.7926 507.132 69.1619C506.99 69.5312 506.92 69.9621 506.92 70.4545ZM516.65 74.1431C515.951 74.1431 515.35 73.9938 514.845 73.6953C514.343 73.3937 513.956 72.9705 513.682 72.4258C513.411 71.878 513.275 71.2363 513.275 70.5007C513.275 69.7744 513.411 69.1342 513.682 68.5803C513.956 68.0263 514.337 67.5939 514.827 67.283C515.319 66.9722 515.894 66.8168 516.553 66.8168C516.953 66.8168 517.341 66.8829 517.716 67.0153C518.092 67.1476 518.429 67.3554 518.727 67.6385C519.026 67.9216 519.261 68.2894 519.434 68.7418C519.606 69.1912 519.692 69.7375 519.692 70.3807V70.87H514.056V69.8359H518.34C518.34 69.4728 518.266 69.1512 518.118 68.8711C517.97 68.5879 517.763 68.3648 517.495 68.2017C517.23 68.0386 516.919 67.957 516.562 67.957C516.175 67.957 515.836 68.0524 515.547 68.2433C515.26 68.431 515.039 68.6772 514.882 68.9819C514.728 69.2835 514.651 69.6113 514.651 69.9652V70.7731C514.651 71.247 514.734 71.6502 514.9 71.9826C515.07 72.315 515.305 72.5689 515.607 72.7443C515.908 72.9167 516.261 73.0028 516.664 73.0028C516.925 73.0028 517.164 72.9659 517.379 72.892C517.595 72.8151 517.781 72.7012 517.938 72.5504C518.095 72.3996 518.215 72.2134 518.298 71.9918L519.605 72.2273C519.5 72.612 519.312 72.949 519.041 73.2383C518.774 73.5245 518.437 73.7476 518.03 73.9077C517.627 74.0646 517.167 74.1431 516.65 74.1431ZM521.224 74V66.9091H522.558V68.0355H522.632C522.761 67.6539 522.989 67.3538 523.315 67.1353C523.644 66.9137 524.017 66.8029 524.432 66.8029C524.518 66.8029 524.62 66.806 524.737 66.8121C524.857 66.8183 524.951 66.826 525.019 66.8352V68.1555C524.963 68.1402 524.865 68.1232 524.723 68.1048C524.582 68.0832 524.44 68.0724 524.298 68.0724C523.972 68.0724 523.681 68.1417 523.426 68.2802C523.174 68.4156 522.973 68.6049 522.826 68.848C522.678 69.0881 522.604 69.362 522.604 69.6697V74H521.224ZM529.653 74V66.9091H530.978V68.0632H531.066C531.214 67.6723 531.455 67.3677 531.791 67.1491C532.126 66.9276 532.528 66.8168 532.996 66.8168C533.47 66.8168 533.867 66.9276 534.187 67.1491C534.51 67.3707 534.749 67.6754 534.902 68.0632H534.976C535.146 67.6847 535.415 67.383 535.784 67.1584C536.153 66.9306 536.594 66.8168 537.104 66.8168C537.748 66.8168 538.272 67.0183 538.679 67.4215C539.088 67.8247 539.293 68.4325 539.293 69.245V74H537.912V69.3743C537.912 68.8942 537.782 68.5464 537.52 68.331C537.258 68.1155 536.946 68.0078 536.583 68.0078C536.133 68.0078 535.784 68.1463 535.535 68.4233C535.286 68.6972 535.161 69.0496 535.161 69.4805V74H533.785V69.2866C533.785 68.9019 533.665 68.5926 533.425 68.3587C533.185 68.1248 532.873 68.0078 532.488 68.0078C532.226 68.0078 531.985 68.0771 531.763 68.2156C531.545 68.351 531.368 68.5402 531.232 68.7834C531.1 69.0265 531.034 69.3081 531.034 69.6282V74H529.653ZM544.199 74.1431C543.5 74.1431 542.899 73.9938 542.394 73.6953C541.892 73.3937 541.504 72.9705 541.23 72.4258C540.96 71.878 540.824 71.2363 540.824 70.5007C540.824 69.7744 540.96 69.1342 541.23 68.5803C541.504 68.0263 541.886 67.5939 542.375 67.283C542.868 66.9722 543.443 66.8168 544.102 66.8168C544.502 66.8168 544.89 66.8829 545.265 67.0153C545.641 67.1476 545.978 67.3554 546.276 67.6385C546.575 67.9216 546.81 68.2894 546.983 68.7418C547.155 69.1912 547.241 69.7375 547.241 70.3807V70.87H541.604V69.8359H545.888C545.888 69.4728 545.815 69.1512 545.667 68.8711C545.519 68.5879 545.311 68.3648 545.044 68.2017C544.779 68.0386 544.468 67.957 544.111 67.957C543.723 67.957 543.385 68.0524 543.096 68.2433C542.809 68.431 542.588 68.6772 542.431 68.9819C542.277 69.2835 542.2 69.6113 542.2 69.9652V70.7731C542.2 71.247 542.283 71.6502 542.449 71.9826C542.618 72.315 542.854 72.5689 543.156 72.7443C543.457 72.9167 543.81 73.0028 544.213 73.0028C544.474 73.0028 544.713 72.9659 544.928 72.892C545.144 72.8151 545.33 72.7012 545.487 72.5504C545.644 72.3996 545.764 72.2134 545.847 71.9918L547.153 72.2273C547.049 72.612 546.861 72.949 546.59 73.2383C546.322 73.5245 545.985 73.7476 545.579 73.9077C545.176 74.0646 544.716 74.1431 544.199 74.1431Z" fill="#344054"/>
<path d="M464.315 88.9091C464.26 88.4413 464.035 88.0781 463.641 87.8196C463.247 87.5611 462.764 87.4318 462.192 87.4318C461.773 87.4318 461.407 87.4995 461.093 87.6349C460.782 87.7704 460.539 87.9566 460.364 88.1935C460.191 88.4305 460.105 88.6998 460.105 89.0014C460.105 89.2538 460.165 89.4708 460.285 89.6523C460.408 89.8308 460.565 89.9801 460.756 90.1001C460.947 90.2171 461.147 90.314 461.356 90.391C461.565 90.4648 461.758 90.5249 461.933 90.571L462.893 90.8295C463.14 90.8942 463.414 90.9834 463.715 91.0973C464.02 91.2112 464.311 91.3666 464.588 91.5636C464.868 91.7575 465.099 92.0067 465.28 92.3114C465.462 92.6161 465.553 92.9901 465.553 93.4332C465.553 93.9441 465.419 94.4058 465.151 94.8182C464.886 95.2306 464.498 95.5584 463.988 95.8015C463.48 96.0446 462.863 96.1662 462.136 96.1662C461.459 96.1662 460.873 96.0569 460.377 95.8384C459.885 95.6199 459.497 95.3152 459.214 94.9244C458.934 94.5335 458.776 94.0795 458.739 93.5625H459.92C459.951 93.9195 460.071 94.215 460.281 94.4489C460.493 94.6797 460.761 94.852 461.084 94.9659C461.41 95.0767 461.761 95.1321 462.136 95.1321C462.573 95.1321 462.966 95.0613 463.314 94.9197C463.661 94.7751 463.937 94.575 464.14 94.3196C464.343 94.0611 464.445 93.7595 464.445 93.4148C464.445 93.1009 464.357 92.8454 464.181 92.6484C464.006 92.4515 463.775 92.2914 463.489 92.1683C463.203 92.0452 462.893 91.9375 462.561 91.8452L461.398 91.5128C460.659 91.3004 460.074 90.9973 459.643 90.6033C459.213 90.2094 458.997 89.6939 458.997 89.0568C458.997 88.5275 459.14 88.0658 459.426 87.6719C459.716 87.2749 460.104 86.9671 460.59 86.7486C461.079 86.527 461.625 86.4162 462.229 86.4162C462.838 86.4162 463.38 86.5254 463.854 86.744C464.328 86.9594 464.703 87.2549 464.98 87.6303C465.26 88.0058 465.408 88.4321 465.423 88.9091H464.315ZM469.374 96.1662C468.925 96.1662 468.517 96.0816 468.15 95.9123C467.784 95.7399 467.493 95.4922 467.278 95.169C467.063 94.8428 466.955 94.4489 466.955 93.9872C466.955 93.581 467.035 93.2517 467.195 92.9993C467.355 92.7438 467.569 92.5438 467.837 92.3991C468.104 92.2545 468.4 92.1468 468.723 92.076C469.049 92.0021 469.377 91.9437 469.706 91.9006C470.137 91.8452 470.486 91.8036 470.754 91.7759C471.025 91.7451 471.222 91.6944 471.345 91.6236C471.471 91.5528 471.534 91.4297 471.534 91.2543V91.2173C471.534 90.7618 471.41 90.4079 471.16 90.1555C470.914 89.9032 470.54 89.777 470.039 89.777C469.518 89.777 469.111 89.8909 468.815 90.1186C468.52 90.3464 468.312 90.5895 468.192 90.848L467.158 90.4787C467.343 90.0478 467.589 89.7124 467.897 89.4723C468.207 89.2292 468.546 89.0599 468.912 88.9645C469.282 88.866 469.645 88.8168 470.002 88.8168C470.229 88.8168 470.491 88.8445 470.786 88.8999C471.085 88.9522 471.373 89.0614 471.65 89.2276C471.93 89.3938 472.162 89.6446 472.347 89.9801C472.532 90.3156 472.624 90.7649 472.624 91.3281V96H471.534V95.0398H471.479C471.405 95.1937 471.282 95.3583 471.11 95.5337C470.937 95.7092 470.708 95.8584 470.422 95.9815C470.136 96.1046 469.786 96.1662 469.374 96.1662ZM469.54 95.1875C469.971 95.1875 470.334 95.1029 470.63 94.9336C470.928 94.7643 471.153 94.5458 471.304 94.2781C471.457 94.0103 471.534 93.7287 471.534 93.4332V92.4361C471.488 92.4915 471.387 92.5423 471.23 92.5884C471.076 92.6315 470.897 92.67 470.694 92.7038C470.494 92.7346 470.299 92.7623 470.108 92.7869C469.92 92.8085 469.768 92.8269 469.651 92.8423C469.368 92.8793 469.103 92.9393 468.857 93.0224C468.614 93.1024 468.417 93.224 468.266 93.3871C468.118 93.5471 468.044 93.7656 468.044 94.0426C468.044 94.4212 468.184 94.7074 468.464 94.9013C468.748 95.0921 469.106 95.1875 469.54 95.1875ZM480.157 88.9091L477.535 96H476.427L473.805 88.9091H474.986L476.944 94.5597H477.018L478.975 88.9091H480.157ZM484.314 96.1477C483.631 96.1477 483.041 95.9969 482.546 95.6953C482.053 95.3906 481.673 94.9659 481.406 94.4212C481.141 93.8733 481.009 93.2363 481.009 92.5099C481.009 91.7836 481.141 91.1435 481.406 90.5895C481.673 90.0324 482.046 89.5985 482.523 89.2876C483.003 88.9737 483.563 88.8168 484.203 88.8168C484.572 88.8168 484.937 88.8783 485.297 89.0014C485.657 89.1245 485.985 89.3246 486.281 89.6016C486.576 89.8755 486.811 90.2386 486.987 90.6911C487.162 91.1435 487.25 91.7005 487.25 92.3622V92.8239H481.784V91.8821H486.142C486.142 91.482 486.062 91.125 485.902 90.8111C485.745 90.4972 485.52 90.2494 485.228 90.0678C484.939 89.8862 484.597 89.7955 484.203 89.7955C483.769 89.7955 483.394 89.9032 483.077 90.1186C482.763 90.331 482.521 90.608 482.352 90.9496C482.183 91.2912 482.098 91.6574 482.098 92.0483V92.6761C482.098 93.2116 482.19 93.6656 482.375 94.038C482.563 94.4073 482.823 94.6889 483.155 94.8828C483.488 95.0736 483.874 95.169 484.314 95.169C484.6 95.169 484.859 95.129 485.089 95.049C485.323 94.9659 485.525 94.8428 485.694 94.6797C485.864 94.5135 485.994 94.3073 486.087 94.0611L487.139 94.3565C487.028 94.7135 486.842 95.0275 486.581 95.2983C486.319 95.5661 485.996 95.7753 485.611 95.9261C485.226 96.0739 484.794 96.1477 484.314 96.1477ZM492.564 96V88.9091H493.616V90.017H493.708C493.856 89.6385 494.095 89.3446 494.424 89.1353C494.753 88.9229 495.149 88.8168 495.61 88.8168C496.078 88.8168 496.468 88.9229 496.778 89.1353C497.092 89.3446 497.337 89.6385 497.512 90.017H497.586C497.768 89.6508 498.04 89.36 498.403 89.1445C498.767 88.926 499.202 88.8168 499.71 88.8168C500.344 88.8168 500.862 89.0153 501.266 89.4123C501.669 89.8062 501.87 90.4202 501.87 91.2543V96H500.781V91.2543C500.781 90.7311 500.638 90.3571 500.352 90.1325C500.065 89.9078 499.728 89.7955 499.341 89.7955C498.842 89.7955 498.456 89.9463 498.182 90.2479C497.908 90.5464 497.771 90.925 497.771 91.3835V96H496.663V91.1435C496.663 90.7403 496.532 90.4156 496.271 90.1694C496.009 89.9201 495.672 89.7955 495.26 89.7955C494.976 89.7955 494.712 89.8709 494.466 90.0217C494.222 90.1725 494.025 90.3817 493.875 90.6495C493.727 90.9142 493.653 91.2204 493.653 91.5682V96H492.564ZM504.31 98.6591C504.126 98.6591 503.961 98.6437 503.816 98.6129C503.672 98.5852 503.572 98.5575 503.516 98.5298L503.793 97.5696C504.058 97.6373 504.292 97.6619 504.495 97.6435C504.698 97.625 504.878 97.5342 505.035 97.3711C505.195 97.2111 505.341 96.951 505.474 96.5909L505.677 96.0369L503.055 88.9091H504.236L506.194 94.5597H506.268L508.225 88.9091H509.407L506.397 97.0341C506.261 97.4003 506.094 97.7035 505.894 97.9435C505.694 98.1867 505.461 98.3667 505.197 98.4837C504.935 98.6006 504.64 98.6591 504.31 98.6591ZM515.591 86.5455V96H514.501V86.5455H515.591ZM520.467 96.1477C519.827 96.1477 519.265 95.9954 518.782 95.6907C518.302 95.386 517.926 94.9598 517.655 94.4119C517.388 93.8641 517.254 93.224 517.254 92.4915C517.254 91.7528 517.388 91.1081 517.655 90.5572C517.926 90.0063 518.302 89.5785 518.782 89.2738C519.265 88.9691 519.827 88.8168 520.467 88.8168C521.107 88.8168 521.667 88.9691 522.147 89.2738C522.63 89.5785 523.006 90.0063 523.274 90.5572C523.544 91.1081 523.68 91.7528 523.68 92.4915C523.68 93.224 523.544 93.8641 523.274 94.4119C523.006 94.9598 522.63 95.386 522.147 95.6907C521.667 95.9954 521.107 96.1477 520.467 96.1477ZM520.467 95.169C520.953 95.169 521.353 95.0444 521.667 94.7951C521.981 94.5458 522.213 94.218 522.364 93.8118C522.515 93.4055 522.59 92.9654 522.59 92.4915C522.59 92.0175 522.515 91.5759 522.364 91.1665C522.213 90.7572 521.981 90.4264 521.667 90.174C521.353 89.9216 520.953 89.7955 520.467 89.7955C519.98 89.7955 519.58 89.9216 519.266 90.174C518.953 90.4264 518.72 90.7572 518.569 91.1665C518.419 91.5759 518.343 92.0175 518.343 92.4915C518.343 92.9654 518.419 93.4055 518.569 93.8118C518.72 94.218 518.953 94.5458 519.266 94.7951C519.58 95.0444 519.98 95.169 520.467 95.169ZM528.205 98.8068C527.679 98.8068 527.226 98.7391 526.848 98.6037C526.469 98.4714 526.154 98.2959 525.901 98.0774C525.652 97.862 525.454 97.6312 525.306 97.3849L526.174 96.7756C526.272 96.9048 526.397 97.0526 526.548 97.2188C526.699 97.388 526.905 97.5342 527.166 97.6573C527.431 97.7835 527.777 97.8466 528.205 97.8466C528.778 97.8466 529.25 97.7081 529.622 97.4311C529.995 97.1541 530.181 96.7202 530.181 96.1293V94.6889H530.089C530.009 94.8182 529.895 94.9782 529.747 95.169C529.602 95.3568 529.393 95.5245 529.119 95.6722C528.848 95.8169 528.482 95.8892 528.02 95.8892C527.448 95.8892 526.934 95.7538 526.479 95.483C526.026 95.2121 525.668 94.8182 525.403 94.3011C525.141 93.7841 525.01 93.1562 525.01 92.4176C525.01 91.6913 525.138 91.0588 525.394 90.5202C525.649 89.9786 526.005 89.56 526.46 89.2646C526.916 88.966 527.442 88.8168 528.039 88.8168C528.501 88.8168 528.867 88.8937 529.138 89.0476C529.412 89.1984 529.621 89.3707 529.765 89.5646C529.913 89.7554 530.027 89.9124 530.107 90.0355H530.218V88.9091H531.27V96.2031C531.27 96.8125 531.132 97.308 530.855 97.6896C530.581 98.0743 530.212 98.3559 529.747 98.5344C529.285 98.716 528.771 98.8068 528.205 98.8068ZM528.168 94.9105C528.605 94.9105 528.974 94.8105 529.276 94.6104C529.578 94.4104 529.807 94.1226 529.964 93.7472C530.121 93.3717 530.199 92.9223 530.199 92.3991C530.199 91.8883 530.122 91.4374 529.969 91.0465C529.815 90.6557 529.587 90.3494 529.285 90.1278C528.984 89.9062 528.611 89.7955 528.168 89.7955C527.706 89.7955 527.322 89.9124 527.014 90.1463C526.709 90.3802 526.48 90.6941 526.326 91.0881C526.175 91.482 526.1 91.919 526.1 92.3991C526.1 92.8916 526.177 93.3271 526.331 93.7056C526.488 94.0811 526.719 94.3765 527.023 94.592C527.331 94.8043 527.713 94.9105 528.168 94.9105ZM533.265 96V88.9091H534.354V96H533.265ZM533.819 87.7273C533.606 87.7273 533.423 87.6549 533.269 87.5103C533.119 87.3656 533.043 87.1918 533.043 86.9886C533.043 86.7855 533.119 86.6116 533.269 86.467C533.423 86.3223 533.606 86.25 533.819 86.25C534.031 86.25 534.213 86.3223 534.363 86.467C534.517 86.6116 534.594 86.7855 534.594 86.9886C534.594 87.1918 534.517 87.3656 534.363 87.5103C534.213 87.6549 534.031 87.7273 533.819 87.7273ZM537.439 91.7344V96H536.35V88.9091H537.402V90.017H537.495C537.661 89.657 537.913 89.3677 538.252 89.1491C538.59 88.9276 539.027 88.8168 539.563 88.8168C540.043 88.8168 540.463 88.9152 540.823 89.1122C541.183 89.3061 541.463 89.6016 541.663 89.9986C541.863 90.3925 541.963 90.8911 541.963 91.4943V96H540.874V91.5682C540.874 91.0111 540.729 90.5772 540.44 90.2663C540.151 89.9524 539.754 89.7955 539.249 89.7955C538.901 89.7955 538.59 89.8709 538.316 90.0217C538.045 90.1725 537.832 90.3925 537.675 90.6818C537.518 90.9711 537.439 91.322 537.439 91.7344ZM550.288 96.1477C549.697 96.1477 549.175 95.9985 548.723 95.6999C548.271 95.3983 547.917 94.9736 547.661 94.4258C547.406 93.8749 547.278 93.224 547.278 92.473C547.278 91.7282 547.406 91.0819 547.661 90.5341C547.917 89.9863 548.272 89.5631 548.728 89.2646C549.183 88.966 549.709 88.8168 550.306 88.8168C550.768 88.8168 551.133 88.8937 551.401 89.0476C551.671 89.1984 551.878 89.3707 552.019 89.5646C552.164 89.7554 552.276 89.9124 552.356 90.0355H552.449V86.5455H553.538V96H552.485V94.9105H552.356C552.276 95.0398 552.162 95.2029 552.015 95.3999C551.867 95.5937 551.656 95.7676 551.382 95.9215C551.108 96.0723 550.743 96.1477 550.288 96.1477ZM550.436 95.169C550.873 95.169 551.242 95.0552 551.544 94.8274C551.845 94.5966 552.075 94.2781 552.232 93.8718C552.388 93.4625 552.467 92.9901 552.467 92.4545C552.467 91.9252 552.39 91.462 552.236 91.065C552.082 90.6649 551.855 90.354 551.553 90.1325C551.251 89.9078 550.879 89.7955 550.436 89.7955C549.974 89.7955 549.589 89.9139 549.282 90.1509C548.977 90.3848 548.748 90.7034 548.594 91.1065C548.443 91.5066 548.368 91.956 548.368 92.4545C548.368 92.9593 548.444 93.4179 548.598 93.8303C548.755 94.2396 548.986 94.5658 549.291 94.8089C549.599 95.049 549.98 95.169 550.436 95.169ZM558.658 96.1477C557.974 96.1477 557.385 95.9969 556.89 95.6953C556.397 95.3906 556.017 94.9659 555.749 94.4212C555.485 93.8733 555.352 93.2363 555.352 92.5099C555.352 91.7836 555.485 91.1435 555.749 90.5895C556.017 90.0324 556.389 89.5985 556.866 89.2876C557.347 88.9737 557.907 88.8168 558.547 88.8168C558.916 88.8168 559.281 88.8783 559.641 89.0014C560.001 89.1245 560.329 89.3246 560.624 89.6016C560.92 89.8755 561.155 90.2386 561.331 90.6911C561.506 91.1435 561.594 91.7005 561.594 92.3622V92.8239H556.128V91.8821H560.486C560.486 91.482 560.406 91.125 560.246 90.8111C560.089 90.4972 559.864 90.2494 559.572 90.0678C559.282 89.8862 558.941 89.7955 558.547 89.7955C558.113 89.7955 557.737 89.9032 557.42 90.1186C557.107 90.331 556.865 90.608 556.696 90.9496C556.526 91.2912 556.442 91.6574 556.442 92.0483V92.6761C556.442 93.2116 556.534 93.6656 556.719 94.038C556.906 94.4073 557.167 94.6889 557.499 94.8828C557.831 95.0736 558.218 95.169 558.658 95.169C558.944 95.169 559.202 95.129 559.433 95.049C559.667 94.9659 559.869 94.8428 560.038 94.6797C560.207 94.5135 560.338 94.3073 560.43 94.0611L561.483 94.3565C561.372 94.7135 561.186 95.0275 560.924 95.2983C560.663 95.5661 560.34 95.7753 559.955 95.9261C559.57 96.0739 559.138 96.1477 558.658 96.1477ZM566.335 88.9091V89.8324H562.66V88.9091H566.335ZM563.731 87.2102H564.821V93.9688C564.821 94.2765 564.865 94.5073 564.955 94.6612C565.047 94.812 565.164 94.9136 565.305 94.9659C565.45 95.0152 565.602 95.0398 565.762 95.0398C565.882 95.0398 565.981 95.0336 566.058 95.0213C566.135 95.0059 566.196 94.9936 566.243 94.9844L566.464 95.9631C566.39 95.9908 566.287 96.0185 566.155 96.0462C566.022 96.0769 565.855 96.0923 565.652 96.0923C565.344 96.0923 565.042 96.0262 564.747 95.8938C564.454 95.7615 564.211 95.5599 564.017 95.2891C563.827 95.0182 563.731 94.6766 563.731 94.2642V87.2102ZM570.06 96.1662C569.611 96.1662 569.203 96.0816 568.837 95.9123C568.471 95.7399 568.18 95.4922 567.964 95.169C567.749 94.8428 567.641 94.4489 567.641 93.9872C567.641 93.581 567.721 93.2517 567.881 92.9993C568.041 92.7438 568.255 92.5438 568.523 92.3991C568.791 92.2545 569.086 92.1468 569.409 92.076C569.736 92.0021 570.063 91.9437 570.393 91.9006C570.824 91.8452 571.173 91.8036 571.441 91.7759C571.712 91.7451 571.908 91.6944 572.032 91.6236C572.158 91.5528 572.221 91.4297 572.221 91.2543V91.2173C572.221 90.7618 572.096 90.4079 571.847 90.1555C571.601 89.9032 571.227 89.777 570.725 89.777C570.205 89.777 569.797 89.8909 569.502 90.1186C569.206 90.3464 568.999 90.5895 568.879 90.848L567.844 90.4787C568.029 90.0478 568.275 89.7124 568.583 89.4723C568.894 89.2292 569.232 89.0599 569.599 88.9645C569.968 88.866 570.331 88.8168 570.688 88.8168C570.916 88.8168 571.178 88.8445 571.473 88.8999C571.772 88.9522 572.059 89.0614 572.336 89.2276C572.616 89.3938 572.849 89.6446 573.033 89.9801C573.218 90.3156 573.31 90.7649 573.31 91.3281V96H572.221V95.0398H572.165C572.092 95.1937 571.969 95.3583 571.796 95.5337C571.624 95.7092 571.395 95.8584 571.108 95.9815C570.822 96.1046 570.473 96.1662 570.06 96.1662ZM570.227 95.1875C570.657 95.1875 571.021 95.1029 571.316 94.9336C571.615 94.7643 571.839 94.5458 571.99 94.2781C572.144 94.0103 572.221 93.7287 572.221 93.4332V92.4361C572.175 92.4915 572.073 92.5423 571.916 92.5884C571.762 92.6315 571.584 92.67 571.381 92.7038C571.181 92.7346 570.985 92.7623 570.794 92.7869C570.607 92.8085 570.454 92.8269 570.337 92.8423C570.054 92.8793 569.79 92.9393 569.543 93.0224C569.3 93.1024 569.103 93.224 568.952 93.3871C568.805 93.5471 568.731 93.7656 568.731 94.0426C568.731 94.4212 568.871 94.7074 569.151 94.9013C569.434 95.0921 569.793 95.1875 570.227 95.1875ZM575.299 96V88.9091H576.388V96H575.299ZM575.853 87.7273C575.641 87.7273 575.457 87.6549 575.304 87.5103C575.153 87.3656 575.077 87.1918 575.077 86.9886C575.077 86.7855 575.153 86.6116 575.304 86.467C575.457 86.3223 575.641 86.25 575.853 86.25C576.065 86.25 576.247 86.3223 576.398 86.467C576.552 86.6116 576.628 86.7855 576.628 86.9886C576.628 87.1918 576.552 87.3656 576.398 87.5103C576.247 87.6549 576.065 87.7273 575.853 87.7273ZM579.473 86.5455V96H578.384V86.5455H579.473ZM586.492 90.4972L585.513 90.7741C585.451 90.611 585.361 90.4525 585.241 90.2987C585.124 90.1417 584.964 90.0124 584.76 89.9109C584.557 89.8093 584.297 89.7585 583.98 89.7585C583.546 89.7585 583.185 89.8585 582.895 90.0586C582.609 90.2556 582.466 90.5064 582.466 90.8111C582.466 91.0819 582.564 91.2958 582.761 91.4528C582.958 91.6097 583.266 91.7405 583.685 91.8452L584.737 92.1037C585.371 92.2576 585.844 92.493 586.155 92.81C586.465 93.1239 586.621 93.5286 586.621 94.0241C586.621 94.4304 586.504 94.7936 586.27 95.1136C586.039 95.4337 585.716 95.6861 585.301 95.8707C584.885 96.0554 584.402 96.1477 583.851 96.1477C583.128 96.1477 582.529 95.9908 582.055 95.6768C581.581 95.3629 581.281 94.9044 581.155 94.3011L582.189 94.0426C582.287 94.4242 582.474 94.7105 582.748 94.9013C583.025 95.0921 583.386 95.1875 583.832 95.1875C584.34 95.1875 584.743 95.0798 585.042 94.8643C585.344 94.6458 585.494 94.3842 585.494 94.0795C585.494 93.8333 585.408 93.6271 585.236 93.4609C585.064 93.2917 584.799 93.1655 584.442 93.0824L583.26 92.8054C582.611 92.6515 582.134 92.413 581.829 92.0898C581.527 91.7636 581.377 91.3558 581.377 90.8665C581.377 90.4664 581.489 90.1125 581.714 89.8047C581.941 89.4969 582.251 89.2553 582.641 89.0799C583.035 88.9045 583.482 88.8168 583.98 88.8168C584.682 88.8168 585.233 88.9706 585.633 89.2784C586.036 89.5862 586.322 89.9924 586.492 90.4972ZM595.075 88.9091V89.8324H591.252V88.9091H595.075ZM592.397 96V87.9304C592.397 87.5241 592.493 87.1856 592.683 86.9148C592.874 86.6439 593.122 86.4408 593.427 86.3054C593.731 86.17 594.053 86.1023 594.392 86.1023C594.659 86.1023 594.878 86.1238 595.047 86.1669C595.216 86.21 595.343 86.25 595.426 86.2869L595.112 87.2287C595.056 87.2102 594.979 87.1871 594.881 87.1594C594.785 87.1317 594.659 87.1179 594.502 87.1179C594.142 87.1179 593.882 87.2087 593.722 87.3903C593.565 87.5719 593.487 87.8381 593.487 88.1889V96H592.397ZM599.19 96.1477C598.55 96.1477 597.989 95.9954 597.505 95.6907C597.025 95.386 596.65 94.9598 596.379 94.4119C596.111 93.8641 595.977 93.224 595.977 92.4915C595.977 91.7528 596.111 91.1081 596.379 90.5572C596.65 90.0063 597.025 89.5785 597.505 89.2738C597.989 88.9691 598.55 88.8168 599.19 88.8168C599.83 88.8168 600.391 88.9691 600.871 89.2738C601.354 89.5785 601.729 90.0063 601.997 90.5572C602.268 91.1081 602.403 91.7528 602.403 92.4915C602.403 93.224 602.268 93.8641 601.997 94.4119C601.729 94.9598 601.354 95.386 600.871 95.6907C600.391 95.9954 599.83 96.1477 599.19 96.1477ZM599.19 95.169C599.677 95.169 600.077 95.0444 600.391 94.7951C600.705 94.5458 600.937 94.218 601.088 93.8118C601.239 93.4055 601.314 92.9654 601.314 92.4915C601.314 92.0175 601.239 91.5759 601.088 91.1665C600.937 90.7572 600.705 90.4264 600.391 90.174C600.077 89.9216 599.677 89.7955 599.19 89.7955C598.704 89.7955 598.304 89.9216 597.99 90.174C597.676 90.4264 597.444 90.7572 597.293 91.1665C597.142 91.5759 597.067 92.0175 597.067 92.4915C597.067 92.9654 597.142 93.4055 597.293 93.8118C597.444 94.218 597.676 94.5458 597.99 94.7951C598.304 95.0444 598.704 95.169 599.19 95.169ZM604.066 96V88.9091H605.119V89.9801H605.193C605.322 89.6293 605.556 89.3446 605.895 89.1261C606.233 88.9076 606.615 88.7983 607.04 88.7983C607.12 88.7983 607.22 88.7998 607.34 88.8029C607.46 88.806 607.55 88.8106 607.612 88.8168V89.9247C607.575 89.9155 607.49 89.9016 607.358 89.8832C607.229 89.8616 607.092 89.8509 606.947 89.8509C606.602 89.8509 606.295 89.9232 606.024 90.0678C605.756 90.2094 605.544 90.4064 605.387 90.6587C605.233 90.908 605.156 91.1927 605.156 91.5128V96H604.066ZM613.649 91.7344V96H612.56V88.9091H613.612V90.017H613.705C613.871 89.657 614.123 89.3677 614.462 89.1491C614.8 88.9276 615.237 88.8168 615.773 88.8168C616.253 88.8168 616.673 88.9152 617.033 89.1122C617.393 89.3061 617.673 89.6016 617.873 89.9986C618.073 90.3925 618.173 90.8911 618.173 91.4943V96H617.084V91.5682C617.084 91.0111 616.939 90.5772 616.65 90.2663C616.361 89.9524 615.964 89.7955 615.459 89.7955C615.111 89.7955 614.8 89.8709 614.526 90.0217C614.255 90.1725 614.042 90.3925 613.885 90.6818C613.728 90.9711 613.649 91.322 613.649 91.7344ZM623.137 96.1477C622.454 96.1477 621.865 95.9969 621.369 95.6953C620.877 95.3906 620.497 94.9659 620.229 94.4212C619.964 93.8733 619.832 93.2363 619.832 92.5099C619.832 91.7836 619.964 91.1435 620.229 90.5895C620.497 90.0324 620.869 89.5985 621.346 89.2876C621.826 88.9737 622.386 88.8168 623.026 88.8168C623.396 88.8168 623.76 88.8783 624.12 89.0014C624.481 89.1245 624.808 89.3246 625.104 89.6016C625.399 89.8755 625.635 90.2386 625.81 90.6911C625.986 91.1435 626.073 91.7005 626.073 92.3622V92.8239H620.607V91.8821H624.965C624.965 91.482 624.885 91.125 624.725 90.8111C624.568 90.4972 624.344 90.2494 624.051 90.0678C623.762 89.8862 623.42 89.7955 623.026 89.7955C622.592 89.7955 622.217 89.9032 621.9 90.1186C621.586 90.331 621.344 90.608 621.175 90.9496C621.006 91.2912 620.921 91.6574 620.921 92.0483V92.6761C620.921 93.2116 621.014 93.6656 621.198 94.038C621.386 94.4073 621.646 94.6889 621.978 94.8828C622.311 95.0736 622.697 95.169 623.137 95.169C623.423 95.169 623.682 95.129 623.913 95.049C624.147 94.9659 624.348 94.8428 624.517 94.6797C624.687 94.5135 624.818 94.3073 624.91 94.0611L625.962 94.3565C625.852 94.7135 625.665 95.0275 625.404 95.2983C625.142 95.5661 624.819 95.7753 624.434 95.9261C624.05 96.0739 623.617 96.1477 623.137 96.1477ZM628.353 88.9091L630.051 91.8082L631.75 88.9091H633.006L630.716 92.4545L633.006 96H631.75L630.051 93.2486L628.353 96H627.097L629.35 92.4545L627.097 88.9091H628.353ZM637.644 88.9091V89.8324H633.97V88.9091H637.644ZM635.041 87.2102H636.13V93.9688C636.13 94.2765 636.175 94.5073 636.264 94.6612C636.356 94.812 636.473 94.9136 636.615 94.9659C636.76 95.0152 636.912 95.0398 637.072 95.0398C637.192 95.0398 637.291 95.0336 637.367 95.0213C637.444 95.0059 637.506 94.9936 637.552 94.9844L637.774 95.9631C637.7 95.9908 637.597 96.0185 637.464 96.0462C637.332 96.0769 637.164 96.0923 636.961 96.0923C636.653 96.0923 636.352 96.0262 636.056 95.8938C635.764 95.7615 635.521 95.5599 635.327 95.2891C635.136 95.0182 635.041 94.6766 635.041 94.2642V87.2102ZM646.023 88.9091V89.8324H642.349V88.9091H646.023ZM643.42 87.2102H644.509V93.9688C644.509 94.2765 644.554 94.5073 644.643 94.6612C644.735 94.812 644.852 94.9136 644.994 94.9659C645.139 95.0152 645.291 95.0398 645.451 95.0398C645.571 95.0398 645.669 95.0336 645.746 95.0213C645.823 95.0059 645.885 94.9936 645.931 94.9844L646.153 95.9631C646.079 95.9908 645.976 96.0185 645.843 96.0462C645.711 96.0769 645.543 96.0923 645.34 96.0923C645.032 96.0923 644.731 96.0262 644.435 95.8938C644.143 95.7615 643.9 95.5599 643.706 95.2891C643.515 95.0182 643.42 94.6766 643.42 94.2642V87.2102ZM647.662 96V88.9091H648.752V96H647.662ZM648.216 87.7273C648.004 87.7273 647.821 87.6549 647.667 87.5103C647.516 87.3656 647.441 87.1918 647.441 86.9886C647.441 86.7855 647.516 86.6116 647.667 86.467C647.821 86.3223 648.004 86.25 648.216 86.25C648.429 86.25 648.61 86.3223 648.761 86.467C648.915 86.6116 648.992 86.7855 648.992 86.9886C648.992 87.1918 648.915 87.3656 648.761 87.5103C648.61 87.6549 648.429 87.7273 648.216 87.7273ZM650.747 96V88.9091H651.8V90.017H651.892C652.04 89.6385 652.278 89.3446 652.608 89.1353C652.937 88.9229 653.332 88.8168 653.794 88.8168C654.262 88.8168 654.651 88.9229 654.962 89.1353C655.276 89.3446 655.521 89.6385 655.696 90.017H655.77C655.951 89.6508 656.224 89.36 656.587 89.1445C656.95 88.926 657.386 88.8168 657.893 88.8168C658.527 88.8168 659.046 89.0153 659.449 89.4123C659.852 89.8062 660.054 90.4202 660.054 91.2543V96H658.964V91.2543C658.964 90.7311 658.821 90.3571 658.535 90.1325C658.249 89.9078 657.912 89.7955 657.524 89.7955C657.026 89.7955 656.639 89.9463 656.365 90.2479C656.092 90.5464 655.955 90.925 655.955 91.3835V96H654.847V91.1435C654.847 90.7403 654.716 90.4156 654.454 90.1694C654.193 89.9201 653.856 89.7955 653.443 89.7955C653.16 89.7955 652.895 89.8709 652.649 90.0217C652.406 90.1725 652.209 90.3817 652.058 90.6495C651.911 90.9142 651.837 91.2204 651.837 91.5682V96H650.747ZM665.019 96.1477C664.336 96.1477 663.746 95.9969 663.251 95.6953C662.758 95.3906 662.378 94.9659 662.111 94.4212C661.846 93.8733 661.714 93.2363 661.714 92.5099C661.714 91.7836 661.846 91.1435 662.111 90.5895C662.378 90.0324 662.751 89.5985 663.228 89.2876C663.708 88.9737 664.268 88.8168 664.908 88.8168C665.278 88.8168 665.642 88.8783 666.002 89.0014C666.362 89.1245 666.69 89.3246 666.986 89.6016C667.281 89.8755 667.517 90.2386 667.692 90.6911C667.867 91.1435 667.955 91.7005 667.955 92.3622V92.8239H662.489V91.8821H666.847C666.847 91.482 666.767 91.125 666.607 90.8111C666.45 90.4972 666.225 90.2494 665.933 90.0678C665.644 89.8862 665.302 89.7955 664.908 89.7955C664.474 89.7955 664.099 89.9032 663.782 90.1186C663.468 90.331 663.226 90.608 663.057 90.9496C662.888 91.2912 662.803 91.6574 662.803 92.0483V92.6761C662.803 93.2116 662.895 93.6656 663.08 94.038C663.268 94.4073 663.528 94.6889 663.86 94.8828C664.193 95.0736 664.579 95.169 665.019 95.169C665.305 95.169 665.564 95.129 665.795 95.049C666.028 94.9659 666.23 94.8428 666.399 94.6797C666.569 94.5135 666.699 94.3073 666.792 94.0611L667.844 94.3565C667.733 94.7135 667.547 95.0275 667.286 95.2983C667.024 95.5661 666.701 95.7753 666.316 95.9261C665.932 96.0739 665.499 96.1477 665.019 96.1477ZM670.406 96.0739C670.179 96.0739 669.983 95.9923 669.82 95.8292C669.657 95.6661 669.575 95.4706 669.575 95.2429C669.575 95.0152 669.657 94.8197 669.82 94.6566C669.983 94.4935 670.179 94.4119 670.406 94.4119C670.634 94.4119 670.83 94.4935 670.993 94.6566C671.156 94.8197 671.237 95.0152 671.237 95.2429C671.237 95.3937 671.199 95.5322 671.122 95.6584C671.048 95.7846 670.948 95.8861 670.822 95.9631C670.699 96.0369 670.56 96.0739 670.406 96.0739Z" fill="#959BA3"/>
<rect x="212" y="64" width="36" height="20" rx="10" fill="#217CF5"/>
<circle cx="238" cy="74" r="8" fill="white"/>
<path d="M256.959 77V68.2727H260.07C260.746 68.2727 261.307 68.3892 261.753 68.6222C262.202 68.8551 262.537 69.1776 262.759 69.5895C262.98 69.9986 263.091 70.4716 263.091 71.0085C263.091 71.5426 262.979 72.0128 262.754 72.419C262.533 72.8224 262.197 73.1364 261.749 73.3608C261.303 73.5852 260.741 73.6974 260.065 73.6974H257.709V72.5639H259.946C260.372 72.5639 260.719 72.5028 260.986 72.3807C261.256 72.2585 261.453 72.081 261.578 71.848C261.703 71.6151 261.766 71.3352 261.766 71.0085C261.766 70.679 261.702 70.3935 261.574 70.152C261.449 69.9105 261.251 69.7259 260.982 69.598C260.714 69.4673 260.364 69.402 259.929 69.402H258.276V77H256.959ZM261.267 73.0625L263.423 77H261.923L259.81 73.0625H261.267ZM267.33 77.1321C266.685 77.1321 266.13 76.9943 265.664 76.7188C265.201 76.4403 264.843 76.0497 264.59 75.5469C264.34 75.0412 264.215 74.4489 264.215 73.7699C264.215 73.0994 264.34 72.5085 264.59 71.9972C264.843 71.4858 265.195 71.0866 265.647 70.7997C266.101 70.5128 266.632 70.3693 267.24 70.3693C267.61 70.3693 267.968 70.4304 268.314 70.5526C268.661 70.6747 268.972 70.8665 269.248 71.1278C269.523 71.3892 269.74 71.7287 269.9 72.1463C270.059 72.5611 270.138 73.0653 270.138 73.6591V74.1108H264.935V73.1562H268.89C268.89 72.821 268.821 72.5241 268.685 72.2656C268.549 72.0043 268.357 71.7983 268.11 71.6477C267.865 71.4972 267.578 71.4219 267.249 71.4219C266.891 71.4219 266.578 71.5099 266.311 71.6861C266.047 71.8594 265.843 72.0866 265.698 72.3679C265.556 72.6463 265.485 72.9489 265.485 73.2756V74.0213C265.485 74.4588 265.561 74.831 265.715 75.1378C265.871 75.4446 266.088 75.679 266.367 75.8409C266.645 76 266.971 76.0795 267.343 76.0795C267.584 76.0795 267.804 76.0455 268.003 75.9773C268.202 75.9062 268.374 75.8011 268.519 75.6619C268.664 75.5227 268.775 75.3509 268.851 75.1463L270.057 75.3636C269.961 75.7187 269.787 76.0298 269.537 76.2969C269.29 76.5611 268.979 76.767 268.604 76.9148C268.232 77.0597 267.807 77.1321 267.33 77.1321ZM271.552 77V70.4545H272.775V71.5199H272.856C272.992 71.1591 273.215 70.8778 273.525 70.6761C273.835 70.4716 274.205 70.3693 274.637 70.3693C275.075 70.3693 275.441 70.4716 275.737 70.6761C276.035 70.8807 276.255 71.1619 276.397 71.5199H276.465C276.621 71.1705 276.87 70.892 277.211 70.6847C277.552 70.4744 277.958 70.3693 278.43 70.3693C279.023 70.3693 279.508 70.5554 279.883 70.9276C280.261 71.2997 280.45 71.8608 280.45 72.6108V77H279.175V72.7301C279.175 72.2869 279.055 71.9659 278.813 71.767C278.572 71.5682 278.283 71.4688 277.948 71.4688C277.533 71.4688 277.211 71.5966 276.981 71.8523C276.751 72.1051 276.636 72.4304 276.636 72.8281V77H275.366V72.6491C275.366 72.294 275.255 72.0085 275.033 71.7926C274.812 71.5767 274.523 71.4688 274.168 71.4688C273.927 71.4688 273.704 71.5327 273.499 71.6605C273.298 71.7855 273.134 71.9602 273.009 72.1847C272.887 72.4091 272.826 72.669 272.826 72.9645V77H271.552ZM284.978 77.1321C284.333 77.1321 283.778 76.9943 283.312 76.7188C282.849 76.4403 282.491 76.0497 282.238 75.5469C281.988 75.0412 281.863 74.4489 281.863 73.7699C281.863 73.0994 281.988 72.5085 282.238 71.9972C282.491 71.4858 282.843 71.0866 283.295 70.7997C283.75 70.5128 284.281 70.3693 284.889 70.3693C285.258 70.3693 285.616 70.4304 285.963 70.5526C286.309 70.6747 286.62 70.8665 286.896 71.1278C287.172 71.3892 287.389 71.7287 287.548 72.1463C287.707 72.5611 287.787 73.0653 287.787 73.6591V74.1108H282.583V73.1562H286.538C286.538 72.821 286.47 72.5241 286.333 72.2656C286.197 72.0043 286.005 71.7983 285.758 71.6477C285.514 71.4972 285.227 71.4219 284.897 71.4219C284.539 71.4219 284.227 71.5099 283.96 71.6861C283.696 71.8594 283.491 72.0866 283.346 72.3679C283.204 72.6463 283.133 72.9489 283.133 73.2756V74.0213C283.133 74.4588 283.21 74.831 283.363 75.1378C283.52 75.4446 283.737 75.679 284.015 75.8409C284.294 76 284.619 76.0795 284.991 76.0795C285.233 76.0795 285.453 76.0455 285.652 75.9773C285.85 75.9062 286.022 75.8011 286.167 75.6619C286.312 75.5227 286.423 75.3509 286.5 75.1463L287.706 75.3636C287.609 75.7187 287.436 76.0298 287.186 76.2969C286.939 76.5611 286.627 76.767 286.252 76.9148C285.88 77.0597 285.456 77.1321 284.978 77.1321ZM289.2 77V70.4545H290.423V71.5199H290.504C290.641 71.1591 290.864 70.8778 291.173 70.6761C291.483 70.4716 291.854 70.3693 292.286 70.3693C292.723 70.3693 293.089 70.4716 293.385 70.6761C293.683 70.8807 293.903 71.1619 294.045 71.5199H294.114C294.27 71.1705 294.518 70.892 294.859 70.6847C295.2 70.4744 295.607 70.3693 296.078 70.3693C296.672 70.3693 297.156 70.5554 297.531 70.9276C297.909 71.2997 298.098 71.8608 298.098 72.6108V77H296.824V72.7301C296.824 72.2869 296.703 71.9659 296.462 71.767C296.22 71.5682 295.932 71.4688 295.597 71.4688C295.182 71.4688 294.859 71.5966 294.629 71.8523C294.399 72.1051 294.284 72.4304 294.284 72.8281V77H293.014V72.6491C293.014 72.294 292.903 72.0085 292.682 71.7926C292.46 71.5767 292.172 71.4688 291.817 71.4688C291.575 71.4688 291.352 71.5327 291.148 71.6605C290.946 71.7855 290.783 71.9602 290.658 72.1847C290.536 72.4091 290.474 72.669 290.474 72.9645V77H289.2ZM299.908 77V68.2727H301.182V71.5156H301.259C301.333 71.3793 301.439 71.2216 301.578 71.0426C301.718 70.8636 301.911 70.7074 302.158 70.5739C302.405 70.4375 302.732 70.3693 303.138 70.3693C303.667 70.3693 304.138 70.5028 304.553 70.7699C304.968 71.0369 305.293 71.4219 305.529 71.9247C305.767 72.4276 305.887 73.0327 305.887 73.7401C305.887 74.4474 305.769 75.054 305.533 75.5597C305.297 76.0625 304.973 76.4503 304.561 76.723C304.15 76.9929 303.679 77.1278 303.151 77.1278C302.753 77.1278 302.428 77.0611 302.175 76.9276C301.925 76.794 301.729 76.6378 301.587 76.4588C301.445 76.2798 301.336 76.1207 301.259 75.9815H301.152V77H299.908ZM301.157 73.7273C301.157 74.1875 301.223 74.5909 301.357 74.9375C301.49 75.2841 301.684 75.5554 301.936 75.7514C302.189 75.9446 302.499 76.0412 302.865 76.0412C303.246 76.0412 303.564 75.9403 303.82 75.7386C304.076 75.5341 304.269 75.2571 304.4 74.9077C304.533 74.5582 304.6 74.1648 304.6 73.7273C304.6 73.2955 304.534 72.9077 304.404 72.5639C304.276 72.2202 304.083 71.9489 303.824 71.75C303.569 71.5511 303.249 71.4517 302.865 71.4517C302.496 71.4517 302.184 71.5469 301.928 71.7372C301.675 71.9276 301.483 72.1932 301.353 72.5341C301.222 72.875 301.157 73.2727 301.157 73.7273ZM310.138 77.1321C309.494 77.1321 308.938 76.9943 308.472 76.7188C308.009 76.4403 307.651 76.0497 307.398 75.5469C307.148 75.0412 307.023 74.4489 307.023 73.7699C307.023 73.0994 307.148 72.5085 307.398 71.9972C307.651 71.4858 308.004 71.0866 308.455 70.7997C308.91 70.5128 309.441 70.3693 310.049 70.3693C310.418 70.3693 310.776 70.4304 311.123 70.5526C311.469 70.6747 311.781 70.8665 312.056 71.1278C312.332 71.3892 312.549 71.7287 312.708 72.1463C312.867 72.5611 312.947 73.0653 312.947 73.6591V74.1108H307.744V73.1562H311.698C311.698 72.821 311.63 72.5241 311.494 72.2656C311.357 72.0043 311.165 71.7983 310.918 71.6477C310.674 71.4972 310.387 71.4219 310.058 71.4219C309.7 71.4219 309.387 71.5099 309.12 71.6861C308.856 71.8594 308.651 72.0866 308.506 72.3679C308.364 72.6463 308.293 72.9489 308.293 73.2756V74.0213C308.293 74.4588 308.37 74.831 308.523 75.1378C308.68 75.4446 308.897 75.679 309.175 75.8409C309.454 76 309.779 76.0795 310.151 76.0795C310.393 76.0795 310.613 76.0455 310.812 75.9773C311.011 75.9062 311.183 75.8011 311.327 75.6619C311.472 75.5227 311.583 75.3509 311.66 75.1463L312.866 75.3636C312.769 75.7187 312.596 76.0298 312.346 76.2969C312.099 76.5611 311.788 76.767 311.413 76.9148C311.04 77.0597 310.616 77.1321 310.138 77.1321ZM314.36 77V70.4545H315.592V71.4943H315.66C315.779 71.142 315.99 70.8651 316.291 70.6634C316.595 70.4588 316.939 70.3565 317.322 70.3565C317.402 70.3565 317.495 70.3594 317.603 70.3651C317.714 70.3707 317.801 70.3778 317.863 70.3864V71.6051C317.812 71.5909 317.721 71.5753 317.591 71.5582C317.46 71.5384 317.329 71.5284 317.199 71.5284C316.897 71.5284 316.629 71.5923 316.393 71.7202C316.16 71.8452 315.975 72.0199 315.839 72.2443C315.703 72.4659 315.635 72.7187 315.635 73.0028V77H314.36ZM322.142 77V70.4545H323.365V71.5199H323.446C323.582 71.1591 323.805 70.8778 324.115 70.6761C324.424 70.4716 324.795 70.3693 325.227 70.3693C325.664 70.3693 326.031 70.4716 326.326 70.6761C326.625 70.8807 326.845 71.1619 326.987 71.5199H327.055C327.211 71.1705 327.46 70.892 327.801 70.6847C328.142 70.4744 328.548 70.3693 329.02 70.3693C329.613 70.3693 330.098 70.5554 330.473 70.9276C330.85 71.2997 331.039 71.8608 331.039 72.6108V77H329.765V72.7301C329.765 72.2869 329.645 71.9659 329.403 71.767C329.162 71.5682 328.873 71.4688 328.538 71.4688C328.123 71.4688 327.801 71.5966 327.571 71.8523C327.341 72.1051 327.225 72.4304 327.225 72.8281V77H325.956V72.6491C325.956 72.294 325.845 72.0085 325.623 71.7926C325.402 71.5767 325.113 71.4688 324.758 71.4688C324.517 71.4688 324.294 71.5327 324.089 71.6605C323.887 71.7855 323.724 71.9602 323.599 72.1847C323.477 72.4091 323.416 72.669 323.416 72.9645V77H322.142ZM335.568 77.1321C334.923 77.1321 334.368 76.9943 333.902 76.7188C333.439 76.4403 333.081 76.0497 332.828 75.5469C332.578 75.0412 332.453 74.4489 332.453 73.7699C332.453 73.0994 332.578 72.5085 332.828 71.9972C333.081 71.4858 333.433 71.0866 333.885 70.7997C334.339 70.5128 334.871 70.3693 335.479 70.3693C335.848 70.3693 336.206 70.4304 336.553 70.5526C336.899 70.6747 337.21 70.8665 337.486 71.1278C337.761 71.3892 337.979 71.7287 338.138 72.1463C338.297 72.5611 338.376 73.0653 338.376 73.6591V74.1108H333.173V73.1562H337.128C337.128 72.821 337.06 72.5241 336.923 72.2656C336.787 72.0043 336.595 71.7983 336.348 71.6477C336.104 71.4972 335.817 71.4219 335.487 71.4219C335.129 71.4219 334.817 71.5099 334.55 71.6861C334.286 71.8594 334.081 72.0866 333.936 72.3679C333.794 72.6463 333.723 72.9489 333.723 73.2756V74.0213C333.723 74.4588 333.8 74.831 333.953 75.1378C334.109 75.4446 334.327 75.679 334.605 75.8409C334.884 76 335.209 76.0795 335.581 76.0795C335.822 76.0795 336.043 76.0455 336.241 75.9773C336.44 75.9062 336.612 75.8011 336.757 75.6619C336.902 75.5227 337.013 75.3509 337.089 75.1463L338.295 75.3636C338.199 75.7187 338.026 76.0298 337.776 76.2969C337.528 76.5611 337.217 76.767 336.842 76.9148C336.47 77.0597 336.045 77.1321 335.568 77.1321Z" fill="#344054"/>
</svg>
