<svg width="803" height="377" viewBox="0 0 803 377" fill="none" xmlns="http://www.w3.org/2000/svg">
<rect opacity="0.35" width="803" height="377" fill="#F9FAFB"/>
<rect x="373" y="69" width="56" height="56" rx="4" fill="#217CF5"/>
<path fill-rule="evenodd" clip-rule="evenodd" d="M413.921 85L408.668 101.836L405.575 92.1697L403.097 99.4921L406.441 109H410.883L419.176 85H413.921Z" fill="white"/>
<path fill-rule="evenodd" clip-rule="evenodd" d="M398.027 85L396.027 91.9648L395.216 94.7915L393.193 101.836L388.168 85H383L390.939 109H395.192L397.468 102.09L398.407 99.2412L400.592 92.6061L403.098 85H398.027Z" fill="white"/>
<rect x="281.5" y="69.5" width="55" height="55" fill="white" stroke="#D9D9D9"/>
<path fill-rule="evenodd" clip-rule="evenodd" d="M321.921 85L316.668 101.836L313.575 92.1697L311.097 99.4921L314.441 109H318.883L327.176 85H321.921Z" fill="#217CF5"/>
<path fill-rule="evenodd" clip-rule="evenodd" d="M306.027 85L304.027 91.9648L303.216 94.7915L301.193 101.836L296.168 85H291L298.939 109H303.192L305.468 102.09L306.407 99.2412L308.592 92.6061L311.098 85H306.027Z" fill="#1F243D"/>
<rect x="465" y="69" width="56" height="56" fill="#022276"/>
<path fill-rule="evenodd" clip-rule="evenodd" d="M505.921 85L500.668 101.836L497.575 92.1697L495.097 99.4921L498.441 109H502.883L511.176 85H505.921Z" fill="white"/>
<path fill-rule="evenodd" clip-rule="evenodd" d="M490.027 85L488.027 91.9648L487.216 94.7915L485.193 101.836L480.168 85H475L482.939 109H487.192L489.468 102.09L490.407 99.2412L492.592 92.6061L495.098 85H490.027Z" fill="white"/>
<rect x="373" y="161" width="56" height="56" rx="4" fill="#217CF5"/>
<path fill-rule="evenodd" clip-rule="evenodd" d="M413.921 177L408.668 193.836L405.575 184.17L403.097 191.492L406.441 201H410.883L419.176 177H413.921Z" fill="white"/>
<path fill-rule="evenodd" clip-rule="evenodd" d="M398.027 177L396.027 183.965L395.216 186.792L393.193 193.836L388.168 177H383L390.939 201H395.192L397.468 194.09L398.407 191.241L400.592 184.606L403.098 177H398.027Z" fill="white"/>
<rect x="281.5" y="161.5" width="55" height="55" rx="3.5" fill="white" stroke="#D9D9D9"/>
<path fill-rule="evenodd" clip-rule="evenodd" d="M321.921 177L316.668 193.836L313.575 184.17L311.097 191.492L314.441 201H318.883L327.176 177H321.921Z" fill="#217CF5"/>
<path fill-rule="evenodd" clip-rule="evenodd" d="M306.027 177L304.027 183.965L303.216 186.792L301.193 193.836L296.168 177H291L298.939 201H303.192L305.468 194.09L306.407 191.241L308.592 184.606L311.098 177H306.027Z" fill="#1F243D"/>
<rect x="465" y="161" width="56" height="56" rx="4" fill="#022276"/>
<path fill-rule="evenodd" clip-rule="evenodd" d="M505.921 177L500.668 193.836L497.575 184.17L495.097 191.492L498.441 201H502.883L511.176 177H505.921Z" fill="white"/>
<path fill-rule="evenodd" clip-rule="evenodd" d="M490.027 177L488.027 183.965L487.216 186.792L485.193 193.836L480.168 177H475L482.939 201H487.192L489.468 194.09L490.407 191.241L492.592 184.606L495.098 177H490.027Z" fill="white"/>
<rect x="373" y="253" width="56" height="56" rx="28" fill="#217CF5"/>
<path fill-rule="evenodd" clip-rule="evenodd" d="M413.921 271L408.668 287.836L405.575 278.17L403.097 285.492L406.441 295H410.883L419.176 271H413.921Z" fill="white"/>
<path fill-rule="evenodd" clip-rule="evenodd" d="M398.027 271L396.027 277.965L395.216 280.792L393.193 287.836L388.168 271H383L390.939 295H395.192L397.468 288.09L398.407 285.241L400.592 278.606L403.098 271H398.027Z" fill="white"/>
<rect x="281.5" y="253.5" width="55" height="55" rx="27.5" fill="white" stroke="#D9D9D9"/>
<path fill-rule="evenodd" clip-rule="evenodd" d="M321.921 271L316.668 287.836L313.575 278.17L311.097 285.492L314.441 295H318.883L327.176 271H321.921Z" fill="#217CF5"/>
<path fill-rule="evenodd" clip-rule="evenodd" d="M306.027 271L304.027 277.965L303.216 280.792L301.193 287.836L296.168 271H291L298.939 295H303.192L305.468 288.09L306.407 285.241L308.592 278.606L311.098 271H306.027Z" fill="#1F243D"/>
<rect x="465" y="253" width="56" height="56" rx="28" fill="#022276"/>
<path fill-rule="evenodd" clip-rule="evenodd" d="M505.921 271L500.668 287.836L497.575 278.17L495.097 285.492L498.441 295H502.883L511.176 271H505.921Z" fill="white"/>
<path fill-rule="evenodd" clip-rule="evenodd" d="M490.027 271L488.027 277.965L487.216 280.792L485.193 287.836L480.168 271H475L482.939 295H487.192L489.468 288.09L490.407 285.241L492.592 278.606L495.098 271H490.027Z" fill="white"/>
</svg>
