<svg width="804" height="220" viewBox="0 0 804 220" fill="none" xmlns="http://www.w3.org/2000/svg">
<rect x="0.5" y="0.5" width="803" height="219" fill="#217CF5" stroke="#E3E3E3"/>
<path fill-rule="evenodd" clip-rule="evenodd" d="M354.461 125.562C349.435 125.562 345.495 121.433 345.495 116.158V116.036C345.495 110.657 349.215 106.753 354.339 106.753C359.367 106.753 363.305 110.884 363.305 116.158V116.281C363.305 121.661 359.587 125.562 354.461 125.562ZM336.9 116.156V116.279C336.9 125.654 344.559 133 354.341 133C364.187 133 371.901 125.602 371.901 116.156V116.034C371.901 106.502 364.405 99.3135 354.462 99.3135C344.616 99.3135 336.9 106.711 336.9 116.156Z" fill="white"/>
<path fill-rule="evenodd" clip-rule="evenodd" d="M386.768 107.774V99.9135H378.05V132.248H386.768V120.385C386.768 112.695 390.434 108.461 397.089 108.461H397.268V99.2903C392.607 99.1621 389.427 101.432 387.361 106.366L386.768 107.774Z" fill="white"/>
<path fill-rule="evenodd" clip-rule="evenodd" d="M422.576 99.924L411.201 112.397V88H402.483V132.258H411.201V122.424L414.811 118.606L415.022 118.939L423.529 132.258H433.481L420.697 112.55L432.892 99.924H422.576Z" fill="white"/>
<path fill-rule="evenodd" clip-rule="evenodd" d="M446.888 104.478L446.34 105.186V88H437.622V132.258H446.34V114.186C446.34 109.731 448.578 107.177 452.482 107.177C456.321 107.177 458.438 109.666 458.438 114.186V132.258H467.159V111.234C467.159 103.767 463.095 99.3098 456.29 99.3098C451.545 99.3098 448.875 101.922 446.888 104.478Z" fill="white"/>
<path fill-rule="evenodd" clip-rule="evenodd" d="M485.264 127.031C481.983 127.031 479.861 125.342 479.861 122.727V122.606C479.861 119.521 482.325 117.751 486.617 117.751C488.786 117.751 490.948 118.196 492.701 119.006L492.881 119.089V120.945C492.881 124.529 489.748 127.031 485.264 127.031ZM474.345 102.064L476.494 108.627C479.46 107.553 481.915 106.935 485.389 106.935C490.141 106.935 492.757 109.185 492.757 113.266V114.249L492.35 114.109C490.422 113.45 487.967 112.773 484.405 112.773C476.17 112.773 471.45 116.494 471.45 122.978V123.102C471.45 129.854 476.968 132.875 482.438 132.875C486.506 132.875 489.687 131.541 492.161 128.796L492.696 128.204V132.261H501.106V113.45C501.106 108.926 499.94 105.463 497.636 103.155C495.252 100.768 491.584 99.5576 486.74 99.5576C481.299 99.5576 477.82 100.557 474.345 102.064Z" fill="white"/>
<path fill-rule="evenodd" clip-rule="evenodd" d="M516.458 132.258V88H507.74V132.258H516.458Z" fill="white"/>
<path fill-rule="evenodd" clip-rule="evenodd" d="M532.542 132.258V88H523.824V132.258H532.542Z" fill="white"/>
<path fill-rule="evenodd" clip-rule="evenodd" d="M318.999 119.25L313.371 101.308L308.863 114.899L314.947 132.546H323.029L338.117 88H328.556L318.999 119.25Z" fill="white"/>
<path fill-rule="evenodd" clip-rule="evenodd" d="M295.759 100.927L294.217 106.174L290.371 119.25L280.822 88H271L286.088 132.546H294.172L298.496 119.72L300.281 114.433L304.434 102.118L309.197 88H299.559L295.759 100.927Z" fill="white"/>
</svg>
