<svg width="443" height="215" viewBox="0 0 443 215" fill="none" xmlns="http://www.w3.org/2000/svg">
<rect width="443" height="215" fill="#F9FAFB"/>
<path d="M127.977 103.273V112H126.955L122.199 105.148H122.114V112H121.057V103.273H122.08L126.852 110.142H126.938V103.273H127.977ZM132.615 112.136C132.024 112.136 131.505 111.996 131.059 111.714C130.616 111.433 130.27 111.04 130.02 110.534C129.772 110.028 129.649 109.437 129.649 108.761C129.649 108.08 129.772 107.484 130.02 106.976C130.27 106.467 130.616 106.072 131.059 105.791C131.505 105.51 132.024 105.369 132.615 105.369C133.206 105.369 133.723 105.51 134.166 105.791C134.612 106.072 134.958 106.467 135.206 106.976C135.456 107.484 135.581 108.08 135.581 108.761C135.581 109.437 135.456 110.028 135.206 110.534C134.958 111.04 134.612 111.433 134.166 111.714C133.723 111.996 133.206 112.136 132.615 112.136ZM132.615 111.233C133.064 111.233 133.433 111.118 133.723 110.888C134.012 110.658 134.227 110.355 134.366 109.98C134.505 109.605 134.575 109.199 134.575 108.761C134.575 108.324 134.505 107.916 134.366 107.538C134.227 107.161 134.012 106.855 133.723 106.622C133.433 106.389 133.064 106.273 132.615 106.273C132.166 106.273 131.797 106.389 131.507 106.622C131.217 106.855 131.002 107.161 130.863 107.538C130.724 107.916 130.654 108.324 130.654 108.761C130.654 109.199 130.724 109.605 130.863 109.98C131.002 110.355 131.217 110.658 131.507 110.888C131.797 111.118 132.166 111.233 132.615 111.233ZM137.116 112V105.455H138.087V106.443H138.156C138.275 106.119 138.491 105.857 138.803 105.655C139.116 105.453 139.468 105.352 139.86 105.352C139.934 105.352 140.026 105.354 140.137 105.357C140.248 105.359 140.332 105.364 140.388 105.369V106.392C140.354 106.384 140.276 106.371 140.154 106.354C140.035 106.334 139.908 106.324 139.775 106.324C139.457 106.324 139.173 106.391 138.923 106.524C138.675 106.655 138.479 106.837 138.335 107.07C138.192 107.3 138.121 107.562 138.121 107.858V112H137.116ZM141.581 112V105.455H142.552V106.477H142.637C142.774 106.128 142.994 105.857 143.298 105.663C143.602 105.467 143.967 105.369 144.393 105.369C144.825 105.369 145.184 105.467 145.471 105.663C145.761 105.857 145.987 106.128 146.149 106.477H146.217C146.385 106.139 146.636 105.871 146.971 105.672C147.306 105.47 147.708 105.369 148.177 105.369C148.762 105.369 149.241 105.553 149.613 105.919C149.985 106.283 150.172 106.849 150.172 107.619V112H149.166V107.619C149.166 107.136 149.034 106.791 148.77 106.584C148.505 106.376 148.194 106.273 147.836 106.273C147.376 106.273 147.02 106.412 146.767 106.69C146.514 106.966 146.387 107.315 146.387 107.739V112H145.365V107.517C145.365 107.145 145.244 106.845 145.002 106.618C144.761 106.388 144.45 106.273 144.069 106.273C143.808 106.273 143.564 106.342 143.336 106.482C143.112 106.621 142.93 106.814 142.791 107.061C142.654 107.305 142.586 107.588 142.586 107.909V112H141.581ZM153.936 112.153C153.522 112.153 153.145 112.075 152.807 111.919C152.469 111.76 152.201 111.531 152.002 111.233C151.803 110.932 151.703 110.568 151.703 110.142C151.703 109.767 151.777 109.463 151.925 109.23C152.073 108.994 152.27 108.81 152.517 108.676C152.765 108.543 153.037 108.443 153.336 108.378C153.637 108.31 153.939 108.256 154.243 108.216C154.641 108.165 154.963 108.126 155.211 108.101C155.461 108.072 155.642 108.026 155.756 107.96C155.873 107.895 155.931 107.781 155.931 107.619V107.585C155.931 107.165 155.816 106.838 155.586 106.605C155.358 106.372 155.013 106.256 154.55 106.256C154.07 106.256 153.694 106.361 153.421 106.571C153.148 106.781 152.956 107.006 152.846 107.244L151.891 106.903C152.061 106.506 152.289 106.196 152.573 105.974C152.86 105.75 153.172 105.594 153.51 105.506C153.851 105.415 154.186 105.369 154.516 105.369C154.726 105.369 154.968 105.395 155.24 105.446C155.516 105.494 155.782 105.595 156.037 105.749C156.296 105.902 156.51 106.134 156.681 106.443C156.851 106.753 156.936 107.168 156.936 107.688V112H155.931V111.114H155.88C155.811 111.256 155.698 111.408 155.539 111.57C155.38 111.732 155.168 111.869 154.904 111.983C154.64 112.097 154.317 112.153 153.936 112.153ZM154.09 111.25C154.488 111.25 154.823 111.172 155.096 111.016C155.371 110.859 155.578 110.658 155.718 110.411C155.86 110.163 155.931 109.903 155.931 109.631V108.71C155.888 108.761 155.794 108.808 155.65 108.851C155.507 108.891 155.343 108.926 155.155 108.957C154.971 108.986 154.79 109.011 154.614 109.034C154.441 109.054 154.3 109.071 154.192 109.085C153.931 109.119 153.686 109.175 153.459 109.251C153.235 109.325 153.053 109.437 152.914 109.588C152.777 109.736 152.709 109.937 152.709 110.193C152.709 110.543 152.838 110.807 153.097 110.986C153.358 111.162 153.689 111.25 154.09 111.25ZM159.778 103.273V112H158.772V103.273H159.778ZM171.455 102.864L168.642 113.312H167.722L170.534 102.864H171.455Z" fill="#1F243D"/>
<path d="M179.533 112V103.273H180.59V107.159H185.244V103.273H186.3V112H185.244V108.097H180.59V112H179.533ZM190.939 112.136C190.348 112.136 189.83 111.996 189.384 111.714C188.94 111.433 188.594 111.04 188.344 110.534C188.097 110.028 187.973 109.437 187.973 108.761C187.973 108.08 188.097 107.484 188.344 106.976C188.594 106.467 188.94 106.072 189.384 105.791C189.83 105.51 190.348 105.369 190.939 105.369C191.53 105.369 192.047 105.51 192.49 105.791C192.936 106.072 193.283 106.467 193.53 106.976C193.78 107.484 193.905 108.08 193.905 108.761C193.905 109.437 193.78 110.028 193.53 110.534C193.283 111.04 192.936 111.433 192.49 111.714C192.047 111.996 191.53 112.136 190.939 112.136ZM190.939 111.233C191.388 111.233 191.757 111.118 192.047 110.888C192.337 110.658 192.551 110.355 192.69 109.98C192.83 109.605 192.899 109.199 192.899 108.761C192.899 108.324 192.83 107.916 192.69 107.538C192.551 107.161 192.337 106.855 192.047 106.622C191.757 106.389 191.388 106.273 190.939 106.273C190.49 106.273 190.121 106.389 189.831 106.622C189.541 106.855 189.327 107.161 189.188 107.538C189.048 107.916 188.979 108.324 188.979 108.761C188.979 109.199 189.048 109.605 189.188 109.98C189.327 110.355 189.541 110.658 189.831 110.888C190.121 111.118 190.49 111.233 190.939 111.233ZM200.558 105.455L198.137 112H197.115L194.694 105.455H195.785L197.592 110.67H197.66L199.467 105.455H200.558ZM204.395 112.136C203.765 112.136 203.221 111.997 202.763 111.719C202.309 111.438 201.958 111.045 201.711 110.543C201.466 110.037 201.344 109.449 201.344 108.778C201.344 108.108 201.466 107.517 201.711 107.006C201.958 106.491 202.301 106.091 202.742 105.804C203.185 105.514 203.702 105.369 204.293 105.369C204.634 105.369 204.971 105.426 205.303 105.54C205.635 105.653 205.938 105.838 206.211 106.094C206.483 106.347 206.701 106.682 206.863 107.099C207.025 107.517 207.105 108.031 207.105 108.642V109.068H202.06V108.199H206.083C206.083 107.83 206.009 107.5 205.861 107.21C205.716 106.92 205.509 106.692 205.239 106.524C204.972 106.357 204.657 106.273 204.293 106.273C203.892 106.273 203.546 106.372 203.253 106.571C202.963 106.767 202.74 107.023 202.584 107.338C202.428 107.653 202.35 107.991 202.35 108.352V108.932C202.35 109.426 202.435 109.845 202.605 110.189C202.779 110.53 203.019 110.79 203.326 110.969C203.632 111.145 203.989 111.233 204.395 111.233C204.659 111.233 204.898 111.196 205.111 111.122C205.327 111.045 205.513 110.932 205.669 110.781C205.826 110.628 205.946 110.437 206.032 110.21L207.003 110.483C206.901 110.812 206.729 111.102 206.488 111.352C206.246 111.599 205.948 111.793 205.593 111.932C205.238 112.068 204.838 112.136 204.395 112.136ZM208.635 112V105.455H209.607V106.443H209.675C209.794 106.119 210.01 105.857 210.323 105.655C210.635 105.453 210.988 105.352 211.38 105.352C211.453 105.352 211.546 105.354 211.657 105.357C211.767 105.359 211.851 105.364 211.908 105.369V106.392C211.874 106.384 211.796 106.371 211.674 106.354C211.554 106.334 211.428 106.324 211.294 106.324C210.976 106.324 210.692 106.391 210.442 106.524C210.195 106.655 209.999 106.837 209.854 107.07C209.712 107.3 209.641 107.562 209.641 107.858V112H208.635ZM221.384 105.455C221.333 105.023 221.126 104.688 220.762 104.449C220.398 104.21 219.952 104.091 219.424 104.091C219.038 104.091 218.7 104.153 218.41 104.278C218.123 104.403 217.898 104.575 217.737 104.794C217.577 105.013 217.498 105.261 217.498 105.54C217.498 105.773 217.553 105.973 217.664 106.141C217.778 106.305 217.923 106.443 218.099 106.554C218.275 106.662 218.46 106.751 218.653 106.822C218.846 106.891 219.023 106.946 219.185 106.989L220.072 107.227C220.299 107.287 220.552 107.369 220.83 107.474C221.112 107.58 221.38 107.723 221.636 107.905C221.894 108.084 222.107 108.314 222.275 108.595C222.442 108.876 222.526 109.222 222.526 109.631C222.526 110.102 222.403 110.528 222.156 110.909C221.911 111.29 221.553 111.592 221.082 111.817C220.613 112.041 220.043 112.153 219.373 112.153C218.748 112.153 218.207 112.053 217.749 111.851C217.295 111.649 216.937 111.368 216.675 111.007C216.417 110.646 216.271 110.227 216.237 109.75H217.327C217.356 110.08 217.467 110.352 217.66 110.568C217.856 110.781 218.103 110.94 218.401 111.045C218.702 111.148 219.026 111.199 219.373 111.199C219.776 111.199 220.138 111.134 220.46 111.003C220.781 110.869 221.035 110.685 221.222 110.449C221.41 110.21 221.504 109.932 221.504 109.614C221.504 109.324 221.423 109.088 221.261 108.906C221.099 108.724 220.886 108.577 220.621 108.463C220.357 108.349 220.072 108.25 219.765 108.165L218.691 107.858C218.009 107.662 217.469 107.382 217.072 107.018C216.674 106.655 216.475 106.179 216.475 105.591C216.475 105.102 216.607 104.676 216.871 104.312C217.138 103.946 217.496 103.662 217.945 103.46C218.397 103.256 218.901 103.153 219.458 103.153C220.021 103.153 220.521 103.254 220.958 103.456C221.396 103.655 221.742 103.928 221.998 104.274C222.256 104.621 222.393 105.014 222.407 105.455H221.384ZM226.974 105.455V106.307H223.582V105.455H226.974ZM224.571 103.886H225.576V110.125C225.576 110.409 225.618 110.622 225.7 110.764C225.785 110.903 225.893 110.997 226.024 111.045C226.157 111.091 226.298 111.114 226.446 111.114C226.556 111.114 226.647 111.108 226.718 111.097C226.789 111.082 226.846 111.071 226.889 111.062L227.093 111.966C227.025 111.991 226.93 112.017 226.808 112.043C226.686 112.071 226.531 112.085 226.343 112.085C226.059 112.085 225.781 112.024 225.508 111.902C225.238 111.78 225.014 111.594 224.835 111.344C224.659 111.094 224.571 110.778 224.571 110.398V103.886ZM230.413 112.153C229.998 112.153 229.622 112.075 229.284 111.919C228.946 111.76 228.677 111.531 228.478 111.233C228.279 110.932 228.18 110.568 228.18 110.142C228.18 109.767 228.254 109.463 228.402 109.23C228.549 108.994 228.747 108.81 228.994 108.676C229.241 108.543 229.514 108.443 229.812 108.378C230.113 108.31 230.416 108.256 230.72 108.216C231.118 108.165 231.44 108.126 231.687 108.101C231.937 108.072 232.119 108.026 232.233 107.96C232.349 107.895 232.407 107.781 232.407 107.619V107.585C232.407 107.165 232.292 106.838 232.062 106.605C231.835 106.372 231.49 106.256 231.027 106.256C230.547 106.256 230.17 106.361 229.897 106.571C229.625 106.781 229.433 107.006 229.322 107.244L228.368 106.903C228.538 106.506 228.765 106.196 229.049 105.974C229.336 105.75 229.649 105.594 229.987 105.506C230.328 105.415 230.663 105.369 230.993 105.369C231.203 105.369 231.444 105.395 231.717 105.446C231.993 105.494 232.258 105.595 232.514 105.749C232.772 105.902 232.987 106.134 233.157 106.443C233.328 106.753 233.413 107.168 233.413 107.688V112H232.407V111.114H232.356C232.288 111.256 232.174 111.408 232.015 111.57C231.856 111.732 231.645 111.869 231.38 111.983C231.116 112.097 230.794 112.153 230.413 112.153ZM230.566 111.25C230.964 111.25 231.299 111.172 231.572 111.016C231.848 110.859 232.055 110.658 232.194 110.411C232.336 110.163 232.407 109.903 232.407 109.631V108.71C232.365 108.761 232.271 108.808 232.126 108.851C231.984 108.891 231.819 108.926 231.632 108.957C231.447 108.986 231.267 109.011 231.091 109.034C230.917 109.054 230.777 109.071 230.669 109.085C230.407 109.119 230.163 109.175 229.936 109.251C229.711 109.325 229.529 109.437 229.39 109.588C229.254 109.736 229.186 109.937 229.186 110.193C229.186 110.543 229.315 110.807 229.574 110.986C229.835 111.162 230.166 111.25 230.566 111.25ZM238.095 105.455V106.307H234.703V105.455H238.095ZM235.692 103.886H236.697V110.125C236.697 110.409 236.739 110.622 236.821 110.764C236.906 110.903 237.014 110.997 237.145 111.045C237.278 111.091 237.419 111.114 237.567 111.114C237.678 111.114 237.768 111.108 237.839 111.097C237.911 111.082 237.967 111.071 238.01 111.062L238.214 111.966C238.146 111.991 238.051 112.017 237.929 112.043C237.807 112.071 237.652 112.085 237.464 112.085C237.18 112.085 236.902 112.024 236.629 111.902C236.359 111.78 236.135 111.594 235.956 111.344C235.78 111.094 235.692 110.778 235.692 110.398V103.886ZM242.282 112.136C241.651 112.136 241.107 111.997 240.65 111.719C240.195 111.438 239.844 111.045 239.597 110.543C239.353 110.037 239.231 109.449 239.231 108.778C239.231 108.108 239.353 107.517 239.597 107.006C239.844 106.491 240.188 106.091 240.629 105.804C241.072 105.514 241.589 105.369 242.18 105.369C242.521 105.369 242.857 105.426 243.19 105.54C243.522 105.653 243.825 105.838 244.097 106.094C244.37 106.347 244.587 106.682 244.749 107.099C244.911 107.517 244.992 108.031 244.992 108.642V109.068H239.947V108.199H243.969C243.969 107.83 243.896 107.5 243.748 107.21C243.603 106.92 243.396 106.692 243.126 106.524C242.859 106.357 242.543 106.273 242.18 106.273C241.779 106.273 241.433 106.372 241.14 106.571C240.85 106.767 240.627 107.023 240.471 107.338C240.315 107.653 240.237 107.991 240.237 108.352V108.932C240.237 109.426 240.322 109.845 240.492 110.189C240.665 110.53 240.906 110.79 241.212 110.969C241.519 111.145 241.876 111.233 242.282 111.233C242.546 111.233 242.785 111.196 242.998 111.122C243.214 111.045 243.4 110.932 243.556 110.781C243.712 110.628 243.833 110.437 243.918 110.21L244.89 110.483C244.788 110.812 244.616 111.102 244.374 111.352C244.133 111.599 243.835 111.793 243.479 111.932C243.124 112.068 242.725 112.136 242.282 112.136Z" fill="#217CF5"/>
<path d="M258.006 102.864L255.193 113.312H254.273L257.085 102.864H258.006ZM266.084 112V103.273H269.033C269.715 103.273 270.275 103.389 270.712 103.622C271.15 103.852 271.473 104.169 271.684 104.572C271.894 104.976 271.999 105.435 271.999 105.949C271.999 106.463 271.894 106.919 271.684 107.317C271.473 107.714 271.151 108.027 270.716 108.254C270.282 108.479 269.726 108.591 269.05 108.591H266.664V107.636H269.016C269.482 107.636 269.857 107.568 270.141 107.432C270.428 107.295 270.635 107.102 270.763 106.852C270.894 106.599 270.959 106.298 270.959 105.949C270.959 105.599 270.894 105.294 270.763 105.033C270.632 104.771 270.424 104.57 270.137 104.428C269.85 104.283 269.471 104.21 268.999 104.21H267.141V112H266.084ZM270.192 108.08L272.34 112H271.113L268.999 108.08H270.192ZM276.298 112.136C275.667 112.136 275.123 111.997 274.665 111.719C274.211 111.438 273.86 111.045 273.613 110.543C273.369 110.037 273.246 109.449 273.246 108.778C273.246 108.108 273.369 107.517 273.613 107.006C273.86 106.491 274.204 106.091 274.644 105.804C275.087 105.514 275.604 105.369 276.195 105.369C276.536 105.369 276.873 105.426 277.205 105.54C277.538 105.653 277.84 105.838 278.113 106.094C278.386 106.347 278.603 106.682 278.765 107.099C278.927 107.517 279.008 108.031 279.008 108.642V109.068H273.962V108.199H277.985C277.985 107.83 277.911 107.5 277.763 107.21C277.619 106.92 277.411 106.692 277.141 106.524C276.874 106.357 276.559 106.273 276.195 106.273C275.795 106.273 275.448 106.372 275.156 106.571C274.866 106.767 274.643 107.023 274.487 107.338C274.33 107.653 274.252 107.991 274.252 108.352V108.932C274.252 109.426 274.337 109.845 274.508 110.189C274.681 110.53 274.921 110.79 275.228 110.969C275.535 111.145 275.891 111.233 276.298 111.233C276.562 111.233 276.8 111.196 277.013 111.122C277.229 111.045 277.415 110.932 277.572 110.781C277.728 110.628 277.849 110.437 277.934 110.21L278.906 110.483C278.803 110.812 278.631 111.102 278.39 111.352C278.148 111.599 277.85 111.793 277.495 111.932C277.14 112.068 276.741 112.136 276.298 112.136ZM282.464 112.153C282.049 112.153 281.673 112.075 281.335 111.919C280.996 111.76 280.728 111.531 280.529 111.233C280.33 110.932 280.231 110.568 280.231 110.142C280.231 109.767 280.305 109.463 280.452 109.23C280.6 108.994 280.798 108.81 281.045 108.676C281.292 108.543 281.565 108.443 281.863 108.378C282.164 108.31 282.467 108.256 282.771 108.216C283.168 108.165 283.491 108.126 283.738 108.101C283.988 108.072 284.17 108.026 284.283 107.96C284.4 107.895 284.458 107.781 284.458 107.619V107.585C284.458 107.165 284.343 106.838 284.113 106.605C283.886 106.372 283.54 106.256 283.077 106.256C282.597 106.256 282.221 106.361 281.948 106.571C281.675 106.781 281.484 107.006 281.373 107.244L280.418 106.903C280.589 106.506 280.816 106.196 281.1 105.974C281.387 105.75 281.7 105.594 282.038 105.506C282.379 105.415 282.714 105.369 283.043 105.369C283.254 105.369 283.495 105.395 283.768 105.446C284.043 105.494 284.309 105.595 284.565 105.749C284.823 105.902 285.038 106.134 285.208 106.443C285.379 106.753 285.464 107.168 285.464 107.688V112H284.458V111.114H284.407C284.339 111.256 284.225 111.408 284.066 111.57C283.907 111.732 283.695 111.869 283.431 111.983C283.167 112.097 282.844 112.153 282.464 112.153ZM282.617 111.25C283.015 111.25 283.35 111.172 283.623 111.016C283.898 110.859 284.106 110.658 284.245 110.411C284.387 110.163 284.458 109.903 284.458 109.631V108.71C284.415 108.761 284.322 108.808 284.177 108.851C284.035 108.891 283.87 108.926 283.683 108.957C283.498 108.986 283.317 109.011 283.141 109.034C282.968 109.054 282.827 109.071 282.719 109.085C282.458 109.119 282.214 109.175 281.987 109.251C281.762 109.325 281.58 109.437 281.441 109.588C281.305 109.736 281.237 109.937 281.237 110.193C281.237 110.543 281.366 110.807 281.624 110.986C281.886 111.162 282.217 111.25 282.617 111.25ZM289.771 112.136C289.225 112.136 288.744 111.999 288.326 111.723C287.909 111.445 287.582 111.053 287.346 110.547C287.11 110.038 286.993 109.438 286.993 108.744C286.993 108.057 287.11 107.46 287.346 106.955C287.582 106.449 287.91 106.058 288.331 105.783C288.751 105.507 289.237 105.369 289.788 105.369C290.214 105.369 290.551 105.44 290.798 105.582C291.048 105.722 291.238 105.881 291.369 106.06C291.502 106.236 291.606 106.381 291.68 106.494H291.765V103.273H292.771V112H291.799V110.994H291.68C291.606 111.114 291.501 111.264 291.365 111.446C291.228 111.625 291.034 111.786 290.781 111.928C290.528 112.067 290.191 112.136 289.771 112.136ZM289.907 111.233C290.311 111.233 290.652 111.128 290.93 110.918C291.208 110.705 291.42 110.411 291.565 110.036C291.71 109.658 291.782 109.222 291.782 108.727C291.782 108.239 291.711 107.811 291.569 107.445C291.427 107.075 291.217 106.788 290.939 106.584C290.66 106.376 290.316 106.273 289.907 106.273C289.481 106.273 289.126 106.382 288.842 106.601C288.561 106.817 288.349 107.111 288.207 107.483C288.068 107.852 287.998 108.267 287.998 108.727C287.998 109.193 288.069 109.616 288.211 109.997C288.356 110.375 288.569 110.676 288.85 110.901C289.135 111.122 289.487 111.233 289.907 111.233ZM305.627 107.636C305.627 108.557 305.461 109.352 305.129 110.023C304.797 110.693 304.341 111.21 303.761 111.574C303.181 111.938 302.52 112.119 301.775 112.119C301.031 112.119 300.369 111.938 299.789 111.574C299.21 111.21 298.754 110.693 298.422 110.023C298.089 109.352 297.923 108.557 297.923 107.636C297.923 106.716 298.089 105.92 298.422 105.25C298.754 104.58 299.21 104.062 299.789 103.699C300.369 103.335 301.031 103.153 301.775 103.153C302.52 103.153 303.181 103.335 303.761 103.699C304.341 104.062 304.797 104.58 305.129 105.25C305.461 105.92 305.627 106.716 305.627 107.636ZM304.605 107.636C304.605 106.881 304.478 106.243 304.225 105.723C303.975 105.203 303.636 104.81 303.207 104.543C302.781 104.276 302.304 104.142 301.775 104.142C301.247 104.142 300.768 104.276 300.339 104.543C299.913 104.81 299.574 105.203 299.321 105.723C299.071 106.243 298.946 106.881 298.946 107.636C298.946 108.392 299.071 109.03 299.321 109.55C299.574 110.07 299.913 110.463 300.339 110.73C300.768 110.997 301.247 111.131 301.775 111.131C302.304 111.131 302.781 110.997 303.207 110.73C303.636 110.463 303.975 110.07 304.225 109.55C304.478 109.03 304.605 108.392 304.605 107.636ZM308.274 108.062V112H307.268V105.455H308.24V106.477H308.325C308.478 106.145 308.711 105.878 309.024 105.676C309.336 105.472 309.74 105.369 310.234 105.369C310.677 105.369 311.065 105.46 311.397 105.642C311.73 105.821 311.988 106.094 312.173 106.46C312.358 106.824 312.45 107.284 312.45 107.841V112H311.444V107.909C311.444 107.395 311.311 106.994 311.044 106.707C310.777 106.418 310.41 106.273 309.944 106.273C309.623 106.273 309.336 106.342 309.083 106.482C308.833 106.621 308.636 106.824 308.491 107.091C308.346 107.358 308.274 107.682 308.274 108.062ZM315.293 103.273V112H314.288V103.273H315.293ZM317.783 114.455C317.613 114.455 317.461 114.44 317.327 114.412C317.194 114.386 317.101 114.361 317.05 114.335L317.306 113.449C317.55 113.511 317.766 113.534 317.953 113.517C318.141 113.5 318.307 113.416 318.452 113.266C318.6 113.118 318.735 112.878 318.857 112.545L319.044 112.034L316.624 105.455H317.715L319.522 110.67H319.59L321.397 105.455H322.488L319.709 112.955C319.584 113.293 319.429 113.572 319.245 113.794C319.06 114.018 318.846 114.185 318.601 114.293C318.36 114.401 318.087 114.455 317.783 114.455Z" fill="#9BA0A5"/>
<g clip-path="url(#clip0_880_20944)">
<rect x="72" y="107.5" width="48" height="1" fill="#C54600"/>
<g clip-path="url(#clip1_880_20944)">
<rect x="72" y="95.5" width="24" height="24" rx="12" fill="#C54600"/>
<path d="M85.1825 102.773V111.5H84.1257V103.881H84.0746L81.9439 105.295V104.222L84.1257 102.773H85.1825Z" fill="white"/>
</g>
</g>
<g clip-path="url(#clip2_880_20944)">
<rect x="183.025" y="113.312" width="1" height="49.6875" fill="#C54600"/>
<g clip-path="url(#clip3_880_20944)">
<rect x="171.025" y="139" width="24" height="24" rx="12" fill="#C54600"/>
<path d="M180.296 155V154.233L183.177 151.08C183.515 150.71 183.793 150.389 184.012 150.116C184.231 149.841 184.393 149.582 184.498 149.341C184.606 149.097 184.66 148.841 184.66 148.574C184.66 148.267 184.586 148.001 184.438 147.777C184.293 147.553 184.094 147.379 183.841 147.257C183.589 147.135 183.305 147.074 182.989 147.074C182.654 147.074 182.361 147.143 182.111 147.283C181.864 147.419 181.672 147.611 181.536 147.858C181.403 148.105 181.336 148.395 181.336 148.727H180.33C180.33 148.216 180.448 147.767 180.684 147.381C180.92 146.994 181.241 146.693 181.647 146.477C182.056 146.261 182.515 146.153 183.023 146.153C183.535 146.153 183.988 146.261 184.383 146.477C184.778 146.693 185.087 146.984 185.312 147.351C185.536 147.717 185.648 148.125 185.648 148.574C185.648 148.895 185.59 149.209 185.474 149.516C185.36 149.82 185.161 150.159 184.877 150.534C184.596 150.906 184.205 151.361 183.705 151.898L181.745 153.994V154.062H185.802V155H180.296Z" fill="white"/>
</g>
</g>
<g clip-path="url(#clip4_880_20944)">
<rect x="322.488" y="108.66" width="48.5117" height="1" fill="#C54600"/>
<g clip-path="url(#clip5_880_20944)">
<rect x="347" y="96.6602" width="24" height="24" rx="12" fill="#C54600"/>
<path d="M359.032 112.779C358.469 112.779 357.968 112.683 357.528 112.49C357.09 112.297 356.742 112.028 356.484 111.684C356.228 111.338 356.089 110.936 356.066 110.478H357.14C357.163 110.76 357.259 111.002 357.43 111.207C357.6 111.409 357.823 111.565 358.099 111.676C358.374 111.787 358.68 111.842 359.015 111.842C359.39 111.842 359.722 111.777 360.012 111.646C360.302 111.515 360.529 111.333 360.694 111.1C360.859 110.868 360.941 110.598 360.941 110.291C360.941 109.97 360.862 109.687 360.702 109.443C360.543 109.196 360.31 109.002 360.004 108.863C359.697 108.724 359.322 108.654 358.879 108.654H358.18V107.717H358.879C359.225 107.717 359.529 107.654 359.79 107.529C360.055 107.404 360.261 107.228 360.408 107.001C360.559 106.774 360.634 106.507 360.634 106.2C360.634 105.904 360.569 105.647 360.438 105.429C360.308 105.21 360.123 105.039 359.884 104.917C359.648 104.795 359.37 104.734 359.049 104.734C358.748 104.734 358.464 104.789 358.197 104.9C357.933 105.008 357.717 105.166 357.549 105.373C357.381 105.578 357.29 105.825 357.276 106.115H356.254C356.271 105.657 356.408 105.257 356.667 104.913C356.925 104.566 357.263 104.297 357.681 104.103C358.102 103.91 358.563 103.814 359.066 103.814C359.606 103.814 360.069 103.923 360.455 104.142C360.842 104.358 361.138 104.643 361.346 104.998C361.553 105.353 361.657 105.737 361.657 106.149C361.657 106.64 361.528 107.059 361.269 107.406C361.013 107.752 360.665 107.993 360.225 108.126V108.194C360.776 108.285 361.207 108.52 361.516 108.897C361.826 109.272 361.981 109.737 361.981 110.291C361.981 110.765 361.852 111.191 361.593 111.569C361.337 111.944 360.988 112.24 360.545 112.456C360.102 112.672 359.597 112.779 359.032 112.779Z" fill="white"/>
</g>
</g>
<defs>
<clipPath id="clip0_880_20944">
<rect width="48" height="24" fill="white" transform="translate(72 95.5)"/>
</clipPath>
<clipPath id="clip1_880_20944">
<rect x="72" y="95.5" width="24" height="24" rx="12" fill="white"/>
</clipPath>
<clipPath id="clip2_880_20944">
<rect width="24" height="49.6875" fill="white" transform="translate(171.025 113.312)"/>
</clipPath>
<clipPath id="clip3_880_20944">
<rect x="171.025" y="139" width="24" height="24" rx="12" fill="white"/>
</clipPath>
<clipPath id="clip4_880_20944">
<rect width="48.5117" height="24" fill="white" transform="translate(322.488 96.6602)"/>
</clipPath>
<clipPath id="clip5_880_20944">
<rect x="347" y="96.6602" width="24" height="24" rx="12" fill="white"/>
</clipPath>
</defs>
</svg>
