<svg width="390" height="160" viewBox="0 0 390 160" fill="none" xmlns="http://www.w3.org/2000/svg">
<rect width="390" height="160" rx="8" fill="#4CA154" fill-opacity="0.1"/>
<path d="M28 119C25.4288 119 22.9154 119.762 20.7776 121.191C18.6398 122.619 16.9735 124.65 15.9896 127.025C15.0056 129.401 14.7482 132.014 15.2498 134.536C15.7514 137.058 16.9895 139.374 18.8076 141.192C20.6257 143.01 22.9421 144.249 25.4638 144.75C27.9856 145.252 30.5995 144.994 32.9749 144.01C35.3503 143.026 37.3807 141.36 38.8091 139.222C40.2376 137.085 41 134.571 41 132C40.9964 128.553 39.6256 125.249 37.1884 122.812C34.7512 120.374 31.4467 119.004 28 119ZM33.7075 129.708L26.7075 136.708C26.6146 136.8 26.5043 136.874 26.3829 136.925C26.2615 136.975 26.1314 137.001 26 137.001C25.8686 137.001 25.7385 136.975 25.6171 136.925C25.4957 136.874 25.3854 136.8 25.2925 136.708L22.2925 133.708C22.1049 133.52 21.9994 133.265 21.9994 133C21.9994 132.735 22.1049 132.48 22.2925 132.292C22.4801 132.105 22.7346 131.999 23 131.999C23.2654 131.999 23.5199 132.105 23.7075 132.292L26 134.586L32.2925 128.292C32.3854 128.2 32.4957 128.126 32.6171 128.076C32.7385 128.025 32.8686 127.999 33 127.999C33.1314 127.999 33.2615 128.025 33.3829 128.076C33.5043 128.126 33.6146 128.2 33.7075 128.292C33.8004 128.385 33.8741 128.496 33.9244 128.617C33.9747 128.738 34.0006 128.869 34.0006 129C34.0006 129.131 33.9747 129.262 33.9244 129.383C33.8741 129.504 33.8004 129.615 33.7075 129.708Z" fill="#4CA154"/>
<g filter="url(#filter0_d_591_14161)">
<path d="M105 65.8C105 61.3196 105 59.0794 105.872 57.3681C106.639 55.8628 107.863 54.6389 109.368 53.8719C111.079 53 113.32 53 117.8 53H273.2C277.68 53 279.921 53 281.632 53.8719C283.137 54.6389 284.361 55.8628 285.128 57.3681C286 59.0794 286 61.3196 286 65.8V88.2C286 92.6804 286 94.9206 285.128 96.6319C284.361 98.1372 283.137 99.3611 281.632 100.128C279.921 101 277.68 101 273.2 101H117.8C113.32 101 111.079 101 109.368 100.128C107.863 99.3611 106.639 98.1372 105.872 96.6319C105 94.9206 105 92.6804 105 88.2V65.8Z" fill="#394150" shape-rendering="crispEdges"/>
<path d="M123.784 64.2727H124.841V70.0511C124.841 70.6477 124.7 71.1804 124.419 71.6491C124.141 72.1151 123.747 72.483 123.239 72.7528C122.73 73.0199 122.134 73.1534 121.449 73.1534C120.764 73.1534 120.168 73.0199 119.659 72.7528C119.151 72.483 118.756 72.1151 118.474 71.6491C118.196 71.1804 118.057 70.6477 118.057 70.0511V64.2727H119.114V69.9659C119.114 70.392 119.207 70.7713 119.395 71.1037C119.582 71.4332 119.849 71.6932 120.196 71.8835C120.545 72.071 120.963 72.1648 121.449 72.1648C121.935 72.1648 122.352 72.071 122.702 71.8835C123.051 71.6932 123.318 71.4332 123.503 71.1037C123.69 70.7713 123.784 70.392 123.784 69.9659V64.2727ZM131.201 67.9205L130.298 68.1761C130.241 68.0256 130.157 67.8793 130.047 67.7372C129.939 67.5923 129.791 67.473 129.603 67.3793C129.416 67.2855 129.176 67.2386 128.883 67.2386C128.483 67.2386 128.149 67.331 127.882 67.5156C127.618 67.6974 127.485 67.929 127.485 68.2102C127.485 68.4602 127.576 68.6577 127.758 68.8026C127.94 68.9474 128.224 69.0682 128.61 69.1648L129.582 69.4034C130.167 69.5455 130.603 69.7628 130.89 70.0554C131.177 70.3452 131.321 70.7187 131.321 71.1761C131.321 71.5511 131.213 71.8864 130.997 72.1818C130.784 72.4773 130.485 72.7102 130.102 72.8807C129.718 73.0511 129.272 73.1364 128.764 73.1364C128.096 73.1364 127.544 72.9915 127.106 72.7017C126.669 72.4119 126.392 71.9886 126.275 71.4318L127.23 71.1932C127.321 71.5455 127.493 71.8097 127.745 71.9858C128.001 72.1619 128.335 72.25 128.747 72.25C129.216 72.25 129.588 72.1506 129.863 71.9517C130.142 71.75 130.281 71.5085 130.281 71.2273C130.281 71 130.201 70.8097 130.042 70.6562C129.883 70.5 129.639 70.3835 129.309 70.3068L128.218 70.0511C127.619 69.9091 127.179 69.6889 126.897 69.3906C126.619 69.0895 126.48 68.7131 126.48 68.2614C126.48 67.892 126.583 67.5653 126.791 67.2812C127.001 66.9972 127.287 66.7741 127.647 66.6122C128.011 66.4503 128.423 66.3693 128.883 66.3693C129.531 66.3693 130.039 66.5114 130.409 66.7955C130.781 67.0795 131.045 67.4545 131.201 67.9205ZM135.329 73.1364C134.698 73.1364 134.154 72.9972 133.697 72.7188C133.242 72.4375 132.891 72.0455 132.644 71.5426C132.4 71.0369 132.278 70.4489 132.278 69.7784C132.278 69.108 132.4 68.517 132.644 68.0057C132.891 67.4915 133.235 67.0909 133.675 66.804C134.119 66.5142 134.636 66.3693 135.227 66.3693C135.567 66.3693 135.904 66.4261 136.237 66.5398C136.569 66.6534 136.871 66.8381 137.144 67.0938C137.417 67.3466 137.634 67.6818 137.796 68.0994C137.958 68.517 138.039 69.0312 138.039 69.642V70.0682H132.994V69.1989H137.016C137.016 68.8295 136.942 68.5 136.795 68.2102C136.65 67.9205 136.442 67.6918 136.173 67.5241C135.906 67.3565 135.59 67.2727 135.227 67.2727C134.826 67.2727 134.479 67.3722 134.187 67.571C133.897 67.767 133.674 68.0227 133.518 68.3381C133.362 68.6534 133.283 68.9915 133.283 69.3523V69.9318C133.283 70.4261 133.369 70.8452 133.539 71.1889C133.712 71.5298 133.952 71.7898 134.259 71.9688C134.566 72.1449 134.923 72.233 135.329 72.233C135.593 72.233 135.832 72.196 136.045 72.1222C136.261 72.0455 136.447 71.9318 136.603 71.7812C136.759 71.6278 136.88 71.4375 136.965 71.2102L137.937 71.483C137.835 71.8125 137.663 72.1023 137.421 72.3523C137.18 72.5994 136.881 72.7926 136.526 72.9318C136.171 73.0682 135.772 73.1364 135.329 73.1364ZM139.319 73V66.4545H140.29V67.4432H140.359C140.478 67.1193 140.694 66.8565 141.006 66.6548C141.319 66.4531 141.671 66.3523 142.063 66.3523C142.137 66.3523 142.229 66.3537 142.34 66.3565C142.451 66.3594 142.535 66.3636 142.592 66.3693V67.392C142.558 67.3835 142.479 67.3707 142.357 67.3537C142.238 67.3338 142.112 67.3239 141.978 67.3239C141.66 67.3239 141.376 67.3906 141.126 67.5241C140.879 67.6548 140.683 67.8366 140.538 68.0696C140.396 68.2997 140.325 68.5625 140.325 68.858V73H139.319ZM144.539 69.0625V73H143.534V66.4545H144.505V67.4773H144.591C144.744 67.1449 144.977 66.8778 145.289 66.6761C145.602 66.4716 146.005 66.3693 146.5 66.3693C146.943 66.3693 147.331 66.4602 147.663 66.642C147.995 66.821 148.254 67.0938 148.439 67.4602C148.623 67.8239 148.716 68.2841 148.716 68.8409V73H147.71V68.9091C147.71 68.3949 147.576 67.9943 147.309 67.7074C147.042 67.4176 146.676 67.2727 146.21 67.2727C145.889 67.2727 145.602 67.3423 145.349 67.4815C145.099 67.6207 144.902 67.8239 144.757 68.0909C144.612 68.358 144.539 68.6818 144.539 69.0625ZM152.229 73.1534C151.815 73.1534 151.438 73.0753 151.1 72.919C150.762 72.7599 150.494 72.5312 150.295 72.233C150.096 71.9318 149.996 71.5682 149.996 71.142C149.996 70.767 150.07 70.4631 150.218 70.2301C150.366 69.9943 150.563 69.8097 150.81 69.6761C151.058 69.5426 151.33 69.4432 151.629 69.3778C151.93 69.3097 152.232 69.2557 152.536 69.2159C152.934 69.1648 153.256 69.1264 153.504 69.1009C153.754 69.0724 153.935 69.0256 154.049 68.9602C154.165 68.8949 154.224 68.7812 154.224 68.6193V68.5852C154.224 68.1648 154.109 67.8381 153.879 67.6051C153.651 67.3722 153.306 67.2557 152.843 67.2557C152.363 67.2557 151.987 67.3608 151.714 67.571C151.441 67.7812 151.249 68.0057 151.138 68.2443L150.184 67.9034C150.354 67.5057 150.582 67.196 150.866 66.9744C151.153 66.75 151.465 66.5937 151.803 66.5057C152.144 66.4148 152.479 66.3693 152.809 66.3693C153.019 66.3693 153.261 66.3949 153.533 66.446C153.809 66.4943 154.075 66.5952 154.33 66.7486C154.589 66.902 154.803 67.1335 154.974 67.4432C155.144 67.7528 155.229 68.1676 155.229 68.6875V73H154.224V72.1136H154.173C154.104 72.2557 153.991 72.4077 153.832 72.5696C153.673 72.7315 153.461 72.8693 153.197 72.983C152.933 73.0966 152.61 73.1534 152.229 73.1534ZM152.383 72.25C152.781 72.25 153.116 72.1719 153.388 72.0156C153.664 71.8594 153.871 71.6577 154.011 71.4105C154.153 71.1634 154.224 70.9034 154.224 70.6307V69.7102C154.181 69.7614 154.087 69.8082 153.942 69.8509C153.8 69.8906 153.636 69.9261 153.448 69.9574C153.263 69.9858 153.083 70.0114 152.907 70.0341C152.734 70.054 152.593 70.071 152.485 70.0852C152.224 70.1193 151.979 70.1747 151.752 70.2514C151.528 70.3253 151.346 70.4375 151.207 70.5881C151.07 70.7358 151.002 70.9375 151.002 71.1932C151.002 71.5426 151.131 71.8068 151.39 71.9858C151.651 72.1619 151.982 72.25 152.383 72.25ZM156.815 73V66.4545H157.787V67.4773H157.872C158.008 67.1278 158.228 66.8565 158.532 66.6634C158.836 66.4673 159.201 66.3693 159.627 66.3693C160.059 66.3693 160.419 66.4673 160.706 66.6634C160.995 66.8565 161.221 67.1278 161.383 67.4773H161.451C161.619 67.1392 161.87 66.8707 162.206 66.6719C162.541 66.4702 162.943 66.3693 163.412 66.3693C163.997 66.3693 164.475 66.5526 164.848 66.919C165.22 67.2827 165.406 67.8494 165.406 68.6193V73H164.4V68.6193C164.4 68.1364 164.268 67.7912 164.004 67.5838C163.74 67.3764 163.429 67.2727 163.071 67.2727C162.61 67.2727 162.254 67.4119 162.001 67.6903C161.748 67.9659 161.622 68.3153 161.622 68.7386V73H160.599V68.517C160.599 68.1449 160.478 67.8452 160.237 67.6179C159.995 67.3878 159.684 67.2727 159.304 67.2727C159.042 67.2727 158.798 67.3423 158.571 67.4815C158.346 67.6207 158.164 67.8139 158.025 68.0611C157.889 68.3054 157.821 68.5881 157.821 68.9091V73H156.815ZM169.739 73.1364C169.108 73.1364 168.564 72.9972 168.107 72.7188C167.652 72.4375 167.301 72.0455 167.054 71.5426C166.81 71.0369 166.688 70.4489 166.688 69.7784C166.688 69.108 166.81 68.517 167.054 68.0057C167.301 67.4915 167.645 67.0909 168.086 66.804C168.529 66.5142 169.046 66.3693 169.637 66.3693C169.978 66.3693 170.314 66.4261 170.647 66.5398C170.979 66.6534 171.282 66.8381 171.554 67.0938C171.827 67.3466 172.044 67.6818 172.206 68.0994C172.368 68.517 172.449 69.0312 172.449 69.642V70.0682H167.404V69.1989H171.426C171.426 68.8295 171.353 68.5 171.205 68.2102C171.06 67.9205 170.853 67.6918 170.583 67.5241C170.316 67.3565 170 67.2727 169.637 67.2727C169.236 67.2727 168.89 67.3722 168.597 67.571C168.307 67.767 168.084 68.0227 167.928 68.3381C167.772 68.6534 167.694 68.9915 167.694 69.3523V69.9318C167.694 70.4261 167.779 70.8452 167.949 71.1889C168.123 71.5298 168.363 71.7898 168.669 71.9688C168.976 72.1449 169.333 72.233 169.739 72.233C170.003 72.233 170.242 72.196 170.455 72.1222C170.671 72.0455 170.857 71.9318 171.013 71.7812C171.169 71.6278 171.29 71.4375 171.375 71.2102L172.347 71.483C172.245 71.8125 172.073 72.1023 171.831 72.3523C171.59 72.5994 171.292 72.7926 170.936 72.9318C170.581 73.0682 170.182 73.1364 169.739 73.1364ZM181.49 67.9205L180.587 68.1761C180.53 68.0256 180.446 67.8793 180.336 67.7372C180.228 67.5923 180.08 67.473 179.892 67.3793C179.705 67.2855 179.465 67.2386 179.172 67.2386C178.772 67.2386 178.438 67.331 178.171 67.5156C177.907 67.6974 177.775 67.929 177.775 68.2102C177.775 68.4602 177.865 68.6577 178.047 68.8026C178.229 68.9474 178.513 69.0682 178.9 69.1648L179.871 69.4034C180.456 69.5455 180.892 69.7628 181.179 70.0554C181.466 70.3452 181.61 70.7187 181.61 71.1761C181.61 71.5511 181.502 71.8864 181.286 72.1818C181.073 72.4773 180.775 72.7102 180.391 72.8807C180.007 73.0511 179.561 73.1364 179.053 73.1364C178.385 73.1364 177.833 72.9915 177.395 72.7017C176.958 72.4119 176.681 71.9886 176.564 71.4318L177.519 71.1932C177.61 71.5455 177.782 71.8097 178.034 71.9858C178.29 72.1619 178.624 72.25 179.036 72.25C179.505 72.25 179.877 72.1506 180.152 71.9517C180.431 71.75 180.57 71.5085 180.57 71.2273C180.57 71 180.49 70.8097 180.331 70.6562C180.172 70.5 179.928 70.3835 179.598 70.3068L178.507 70.0511C177.908 69.9091 177.468 69.6889 177.186 69.3906C176.908 69.0895 176.769 68.7131 176.769 68.2614C176.769 67.892 176.873 67.5653 177.08 67.2812C177.29 66.9972 177.576 66.7741 177.936 66.6122C178.3 66.4503 178.712 66.3693 179.172 66.3693C179.82 66.3693 180.328 66.5114 180.698 66.7955C181.07 67.0795 181.334 67.4545 181.49 67.9205ZM183.879 69.0625V73H182.874V64.2727H183.879V67.4773H183.964C184.118 67.1392 184.348 66.8707 184.655 66.6719C184.964 66.4702 185.376 66.3693 185.891 66.3693C186.337 66.3693 186.727 66.4588 187.062 66.6378C187.398 66.8139 187.658 67.0852 187.842 67.4517C188.03 67.8153 188.124 68.2784 188.124 68.8409V73H187.118V68.9091C187.118 68.3892 186.983 67.9872 186.713 67.7031C186.446 67.4162 186.075 67.2727 185.601 67.2727C185.271 67.2727 184.976 67.3423 184.714 67.4815C184.456 67.6207 184.251 67.8239 184.101 68.0909C183.953 68.358 183.879 68.6818 183.879 69.0625ZM192.373 73.1364C191.782 73.1364 191.263 72.9957 190.817 72.7145C190.374 72.4332 190.027 72.0398 189.777 71.5341C189.53 71.0284 189.407 70.4375 189.407 69.7614C189.407 69.0795 189.53 68.4844 189.777 67.9759C190.027 67.4673 190.374 67.0724 190.817 66.7912C191.263 66.5099 191.782 66.3693 192.373 66.3693C192.963 66.3693 193.48 66.5099 193.924 66.7912C194.37 67.0724 194.716 67.4673 194.963 67.9759C195.213 68.4844 195.338 69.0795 195.338 69.7614C195.338 70.4375 195.213 71.0284 194.963 71.5341C194.716 72.0398 194.37 72.4332 193.924 72.7145C193.48 72.9957 192.963 73.1364 192.373 73.1364ZM192.373 72.233C192.821 72.233 193.191 72.1179 193.48 71.8878C193.77 71.6577 193.985 71.3551 194.124 70.9801C194.263 70.6051 194.333 70.1989 194.333 69.7614C194.333 69.3239 194.263 68.9162 194.124 68.5384C193.985 68.1605 193.77 67.8551 193.48 67.6222C193.191 67.3892 192.821 67.2727 192.373 67.2727C191.924 67.2727 191.554 67.3892 191.265 67.6222C190.975 67.8551 190.76 68.1605 190.621 68.5384C190.482 68.9162 190.412 69.3239 190.412 69.7614C190.412 70.1989 190.482 70.6051 190.621 70.9801C190.76 71.3551 190.975 71.6577 191.265 71.8878C191.554 72.1179 191.924 72.233 192.373 72.233ZM197.884 73L195.89 66.4545H196.946L198.361 71.4659H198.429L199.827 66.4545H200.901L202.282 71.4489H202.35L203.765 66.4545H204.821L202.827 73H201.838L200.407 67.9716H200.304L198.873 73H197.884ZM210.537 67.9205L209.634 68.1761C209.577 68.0256 209.493 67.8793 209.382 67.7372C209.275 67.5923 209.127 67.473 208.939 67.3793C208.752 67.2855 208.512 67.2386 208.219 67.2386C207.819 67.2386 207.485 67.331 207.218 67.5156C206.953 67.6974 206.821 67.929 206.821 68.2102C206.821 68.4602 206.912 68.6577 207.094 68.8026C207.276 68.9474 207.56 69.0682 207.946 69.1648L208.918 69.4034C209.503 69.5455 209.939 69.7628 210.226 70.0554C210.513 70.3452 210.657 70.7187 210.657 71.1761C210.657 71.5511 210.549 71.8864 210.333 72.1818C210.12 72.4773 209.821 72.7102 209.438 72.8807C209.054 73.0511 208.608 73.1364 208.1 73.1364C207.432 73.1364 206.88 72.9915 206.442 72.7017C206.005 72.4119 205.728 71.9886 205.611 71.4318L206.566 71.1932C206.657 71.5455 206.828 71.8097 207.081 71.9858C207.337 72.1619 207.671 72.25 208.083 72.25C208.551 72.25 208.924 72.1506 209.199 71.9517C209.478 71.75 209.617 71.5085 209.617 71.2273C209.617 71 209.537 70.8097 209.378 70.6562C209.219 70.5 208.975 70.3835 208.645 70.3068L207.554 70.0511C206.955 69.9091 206.515 69.6889 206.233 69.3906C205.955 69.0895 205.816 68.7131 205.816 68.2614C205.816 67.892 205.919 67.5653 206.127 67.2812C206.337 66.9972 206.623 66.7741 206.983 66.6122C207.347 66.4503 207.759 66.3693 208.219 66.3693C208.867 66.3693 209.375 66.5114 209.745 66.7955C210.117 67.0795 210.381 67.4545 210.537 67.9205ZM219.17 70.3239V66.4545H220.176V73H219.17V71.892H219.102C218.949 72.2244 218.71 72.5071 218.386 72.7401C218.063 72.9702 217.653 73.0852 217.159 73.0852C216.75 73.0852 216.386 72.9957 216.068 72.8168C215.75 72.6349 215.5 72.3622 215.318 71.9986C215.136 71.6321 215.045 71.1705 215.045 70.6136V66.4545H216.051V70.5455C216.051 71.0227 216.185 71.4034 216.452 71.6875C216.722 71.9716 217.065 72.1136 217.483 72.1136C217.733 72.1136 217.987 72.0497 218.246 71.9219C218.507 71.794 218.726 71.598 218.902 71.3338C219.081 71.0696 219.17 70.733 219.17 70.3239ZM221.768 75.4545V66.4545H222.74V67.4943H222.859C222.933 67.3807 223.035 67.2358 223.166 67.0597C223.299 66.8807 223.49 66.7216 223.737 66.5824C223.987 66.4403 224.325 66.3693 224.751 66.3693C225.302 66.3693 225.788 66.5071 226.208 66.7827C226.629 67.0582 226.957 67.4489 227.193 67.9545C227.429 68.4602 227.547 69.0568 227.547 69.7443C227.547 70.4375 227.429 71.0384 227.193 71.5469C226.957 72.0526 226.63 72.4446 226.213 72.723C225.795 72.9986 225.314 73.1364 224.768 73.1364C224.348 73.1364 224.011 73.0668 223.758 72.9276C223.505 72.7855 223.311 72.625 223.174 72.446C223.038 72.2642 222.933 72.1136 222.859 71.9943H222.774V75.4545H221.768ZM222.757 69.7273C222.757 70.2216 222.829 70.6577 222.974 71.0355C223.119 71.4105 223.331 71.7045 223.609 71.9176C223.887 72.1278 224.228 72.233 224.632 72.233C225.052 72.233 225.403 72.1222 225.684 71.9006C225.968 71.6761 226.181 71.375 226.324 70.9972C226.468 70.6165 226.541 70.1932 226.541 69.7273C226.541 69.267 226.47 68.8523 226.328 68.483C226.189 68.1108 225.977 67.8168 225.693 67.6009C225.412 67.3821 225.058 67.2727 224.632 67.2727C224.223 67.2727 223.879 67.3764 223.6 67.5838C223.322 67.7884 223.112 68.0753 222.97 68.4446C222.828 68.8111 222.757 69.2386 222.757 69.7273ZM231.956 73V66.4545H232.961V73H231.956ZM232.467 65.3636C232.271 65.3636 232.102 65.2969 231.96 65.1634C231.821 65.0298 231.751 64.8693 231.751 64.6818C231.751 64.4943 231.821 64.3338 231.96 64.2003C232.102 64.0668 232.271 64 232.467 64C232.663 64 232.831 64.0668 232.97 64.2003C233.112 64.3338 233.183 64.4943 233.183 64.6818C233.183 64.8693 233.112 65.0298 232.97 65.1634C232.831 65.2969 232.663 65.3636 232.467 65.3636ZM235.559 69.0625V73H234.553V66.4545H235.525V67.4773H235.61C235.763 67.1449 235.996 66.8778 236.309 66.6761C236.621 66.4716 237.025 66.3693 237.519 66.3693C237.962 66.3693 238.35 66.4602 238.683 66.642C239.015 66.821 239.273 67.0938 239.458 67.4602C239.643 67.8239 239.735 68.2841 239.735 68.8409V73H238.729V68.9091C238.729 68.3949 238.596 67.9943 238.329 67.7074C238.062 67.4176 237.695 67.2727 237.229 67.2727C236.908 67.2727 236.621 67.3423 236.369 67.4815C236.119 67.6207 235.921 67.8239 235.776 68.0909C235.631 68.358 235.559 68.6818 235.559 69.0625ZM245.096 75.4545C244.925 75.4545 244.773 75.4403 244.64 75.4119C244.506 75.3864 244.414 75.3608 244.363 75.3352L244.618 74.4489C244.863 74.5114 245.078 74.5341 245.266 74.517C245.453 74.5 245.62 74.4162 245.765 74.2656C245.912 74.1179 246.047 73.8778 246.169 73.5455L246.357 73.0341L243.936 66.4545H245.027L246.834 71.6705H246.902L248.709 66.4545H249.8L247.022 73.9545C246.897 74.2926 246.742 74.5724 246.557 74.794C246.373 75.0185 246.158 75.1847 245.914 75.2926C245.672 75.4006 245.4 75.4545 245.096 75.4545ZM253.302 73.1364C252.711 73.1364 252.193 72.9957 251.747 72.7145C251.304 72.4332 250.957 72.0398 250.707 71.5341C250.46 71.0284 250.336 70.4375 250.336 69.7614C250.336 69.0795 250.46 68.4844 250.707 67.9759C250.957 67.4673 251.304 67.0724 251.747 66.7912C252.193 66.5099 252.711 66.3693 253.302 66.3693C253.893 66.3693 254.41 66.5099 254.853 66.7912C255.299 67.0724 255.646 67.4673 255.893 67.9759C256.143 68.4844 256.268 69.0795 256.268 69.7614C256.268 70.4375 256.143 71.0284 255.893 71.5341C255.646 72.0398 255.299 72.4332 254.853 72.7145C254.41 72.9957 253.893 73.1364 253.302 73.1364ZM253.302 72.233C253.751 72.233 254.12 72.1179 254.41 71.8878C254.7 71.6577 254.914 71.3551 255.054 70.9801C255.193 70.6051 255.262 70.1989 255.262 69.7614C255.262 69.3239 255.193 68.9162 255.054 68.5384C254.914 68.1605 254.7 67.8551 254.41 67.6222C254.12 67.3892 253.751 67.2727 253.302 67.2727C252.853 67.2727 252.484 67.3892 252.194 67.6222C251.904 67.8551 251.69 68.1605 251.551 68.5384C251.412 68.9162 251.342 69.3239 251.342 69.7614C251.342 70.1989 251.412 70.6051 251.551 70.9801C251.69 71.3551 251.904 71.6577 252.194 71.8878C252.484 72.1179 252.853 72.233 253.302 72.233ZM261.678 70.3239V66.4545H262.684V73H261.678V71.892H261.61C261.457 72.2244 261.218 72.5071 260.894 72.7401C260.57 72.9702 260.161 73.0852 259.667 73.0852C259.258 73.0852 258.894 72.9957 258.576 72.8168C258.258 72.6349 258.008 72.3622 257.826 71.9986C257.644 71.6321 257.553 71.1705 257.553 70.6136V66.4545H258.559V70.5455C258.559 71.0227 258.692 71.4034 258.96 71.6875C259.229 71.9716 259.573 72.1136 259.991 72.1136C260.241 72.1136 260.495 72.0497 260.754 71.9219C261.015 71.794 261.234 71.598 261.41 71.3338C261.589 71.0696 261.678 70.733 261.678 70.3239ZM264.276 73V66.4545H265.248V67.4432H265.316C265.435 67.1193 265.651 66.8565 265.963 66.6548C266.276 66.4531 266.628 66.3523 267.02 66.3523C267.094 66.3523 267.186 66.3537 267.297 66.3565C267.408 66.3594 267.492 66.3636 267.549 66.3693V67.392C267.515 67.3835 267.436 67.3707 267.314 67.3537C267.195 67.3338 267.069 67.3239 266.935 67.3239C266.617 67.3239 266.333 67.3906 266.083 67.5241C265.836 67.6548 265.64 67.8366 265.495 68.0696C265.353 68.2997 265.282 68.5625 265.282 68.858V73H264.276ZM117.92 91.4545V82.4545H118.892V83.4943H119.011C119.085 83.3807 119.188 83.2358 119.318 83.0597C119.452 82.8807 119.642 82.7216 119.889 82.5824C120.139 82.4403 120.477 82.3693 120.903 82.3693C121.455 82.3693 121.94 82.5071 122.361 82.7827C122.781 83.0582 123.109 83.4489 123.345 83.9545C123.581 84.4602 123.699 85.0568 123.699 85.7443C123.699 86.4375 123.581 87.0384 123.345 87.5469C123.109 88.0526 122.783 88.4446 122.365 88.723C121.947 88.9986 121.466 89.1364 120.92 89.1364C120.5 89.1364 120.163 89.0668 119.911 88.9276C119.658 88.7855 119.463 88.625 119.327 88.446C119.19 88.2642 119.085 88.1136 119.011 87.9943H118.926V91.4545H117.92ZM118.909 85.7273C118.909 86.2216 118.982 86.6577 119.126 87.0355C119.271 87.4105 119.483 87.7045 119.761 87.9176C120.04 88.1278 120.381 88.233 120.784 88.233C121.205 88.233 121.555 88.1222 121.837 87.9006C122.121 87.6761 122.334 87.375 122.476 86.9972C122.621 86.6165 122.693 86.1932 122.693 85.7273C122.693 85.267 122.622 84.8523 122.48 84.483C122.341 84.1108 122.129 83.8168 121.845 83.6009C121.564 83.3821 121.21 83.2727 120.784 83.2727C120.375 83.2727 120.031 83.3764 119.753 83.5838C119.474 83.7884 119.264 84.0753 119.122 84.4446C118.98 84.8111 118.909 85.2386 118.909 85.7273ZM124.983 89V82.4545H125.955V83.4432H126.023C126.142 83.1193 126.358 82.8565 126.67 82.6548C126.983 82.4531 127.335 82.3523 127.727 82.3523C127.801 82.3523 127.893 82.3537 128.004 82.3565C128.115 82.3594 128.199 82.3636 128.256 82.3693V83.392C128.222 83.3835 128.143 83.3707 128.021 83.3537C127.902 83.3338 127.776 83.3239 127.642 83.3239C127.324 83.3239 127.04 83.3906 126.79 83.5241C126.543 83.6548 126.347 83.8366 126.202 84.0696C126.06 84.2997 125.989 84.5625 125.989 84.858V89H124.983ZM131.658 89.1364C131.067 89.1364 130.548 88.9957 130.102 88.7145C129.659 88.4332 129.312 88.0398 129.062 87.5341C128.815 87.0284 128.692 86.4375 128.692 85.7614C128.692 85.0795 128.815 84.4844 129.062 83.9759C129.312 83.4673 129.659 83.0724 130.102 82.7912C130.548 82.5099 131.067 82.3693 131.658 82.3693C132.249 82.3693 132.766 82.5099 133.209 82.7912C133.655 83.0724 134.001 83.4673 134.249 83.9759C134.499 84.4844 134.624 85.0795 134.624 85.7614C134.624 86.4375 134.499 87.0284 134.249 87.5341C134.001 88.0398 133.655 88.4332 133.209 88.7145C132.766 88.9957 132.249 89.1364 131.658 89.1364ZM131.658 88.233C132.107 88.233 132.476 88.1179 132.766 87.8878C133.055 87.6577 133.27 87.3551 133.409 86.9801C133.548 86.6051 133.618 86.1989 133.618 85.7614C133.618 85.3239 133.548 84.9162 133.409 84.5384C133.27 84.1605 133.055 83.8551 132.766 83.6222C132.476 83.3892 132.107 83.2727 131.658 83.2727C131.209 83.2727 130.839 83.3892 130.55 83.6222C130.26 83.8551 130.045 84.1605 129.906 84.5384C129.767 84.9162 129.697 85.3239 129.697 85.7614C129.697 86.1989 129.767 86.6051 129.906 86.9801C130.045 87.3551 130.26 87.6577 130.55 87.8878C130.839 88.1179 131.209 88.233 131.658 88.233ZM138.824 82.4545V83.3068H135.295V82.4545H138.824ZM136.352 89V81.5511C136.352 81.1761 136.44 80.8636 136.616 80.6136C136.792 80.3636 137.021 80.1761 137.302 80.0511C137.583 79.9261 137.88 79.8636 138.193 79.8636C138.44 79.8636 138.642 79.8835 138.798 79.9233C138.954 79.9631 139.071 80 139.147 80.0341L138.858 80.9034C138.806 80.8864 138.735 80.8651 138.645 80.8395C138.556 80.8139 138.44 80.8011 138.295 80.8011C137.963 80.8011 137.723 80.8849 137.575 81.0526C137.43 81.2202 137.358 81.4659 137.358 81.7898V89H136.352ZM139.983 89V82.4545H140.989V89H139.983ZM140.494 81.3636C140.298 81.3636 140.129 81.2969 139.987 81.1634C139.848 81.0298 139.778 80.8693 139.778 80.6818C139.778 80.4943 139.848 80.3338 139.987 80.2003C140.129 80.0668 140.298 80 140.494 80C140.69 80 140.858 80.0668 140.997 80.2003C141.139 80.3338 141.21 80.4943 141.21 80.6818C141.21 80.8693 141.139 81.0298 140.997 81.1634C140.858 81.2969 140.69 81.3636 140.494 81.3636ZM143.586 80.2727V89H142.581V80.2727H143.586ZM147.923 89.1364C147.292 89.1364 146.748 88.9972 146.29 88.7188C145.836 88.4375 145.485 88.0455 145.238 87.5426C144.994 87.0369 144.871 86.4489 144.871 85.7784C144.871 85.108 144.994 84.517 145.238 84.0057C145.485 83.4915 145.829 83.0909 146.269 82.804C146.712 82.5142 147.229 82.3693 147.82 82.3693C148.161 82.3693 148.498 82.4261 148.83 82.5398C149.163 82.6534 149.465 82.8381 149.738 83.0938C150.011 83.3466 150.228 83.6818 150.39 84.0994C150.552 84.517 150.633 85.0312 150.633 85.642V86.0682H145.587V85.1989H149.61C149.61 84.8295 149.536 84.5 149.388 84.2102C149.244 83.9205 149.036 83.6918 148.766 83.5241C148.499 83.3565 148.184 83.2727 147.82 83.2727C147.42 83.2727 147.073 83.3722 146.781 83.571C146.491 83.767 146.268 84.0227 146.112 84.3381C145.955 84.6534 145.877 84.9915 145.877 85.3523V85.9318C145.877 86.4261 145.962 86.8452 146.133 87.1889C146.306 87.5298 146.546 87.7898 146.853 87.9688C147.16 88.1449 147.516 88.233 147.923 88.233C148.187 88.233 148.425 88.196 148.638 88.1222C148.854 88.0455 149.04 87.9318 149.197 87.7812C149.353 87.6278 149.474 87.4375 149.559 87.2102L150.531 87.483C150.428 87.8125 150.256 88.1023 150.015 88.3523C149.773 88.5994 149.475 88.7926 149.12 88.9318C148.765 89.0682 148.366 89.1364 147.923 89.1364ZM152.646 89.0682C152.435 89.0682 152.255 88.9929 152.104 88.8423C151.954 88.6918 151.879 88.5114 151.879 88.3011C151.879 88.0909 151.954 87.9105 152.104 87.7599C152.255 87.6094 152.435 87.5341 152.646 87.5341C152.856 87.5341 153.036 87.6094 153.187 87.7599C153.337 87.9105 153.413 88.0909 153.413 88.3011C153.413 88.4403 153.377 88.5682 153.306 88.6847C153.238 88.8011 153.146 88.8949 153.029 88.9659C152.915 89.0341 152.788 89.0682 152.646 89.0682Z" fill="#FCFCFD"/>
</g>
<path d="M196.914 105.586L201.5 101H189.5L194.086 105.586C194.867 106.367 196.133 106.367 196.914 105.586Z" fill="#394150"/>
<rect x="0.5" y="0.5" width="389" height="159" rx="7.5" stroke="#4CA154" stroke-opacity="0.1"/>
<defs>
<filter id="filter0_d_591_14161" x="81" y="41" width="229" height="96" filterUnits="userSpaceOnUse" color-interpolation-filters="sRGB">
<feFlood flood-opacity="0" result="BackgroundImageFix"/>
<feColorMatrix in="SourceAlpha" type="matrix" values="0 0 0 0 0 0 0 0 0 0 0 0 0 0 0 0 0 0 127 0" result="hardAlpha"/>
<feOffset dy="12"/>
<feGaussianBlur stdDeviation="12"/>
<feComposite in2="hardAlpha" operator="out"/>
<feColorMatrix type="matrix" values="0 0 0 0 0 0 0 0 0 0 0 0 0 0 0 0 0 0 0.15 0"/>
<feBlend mode="normal" in2="BackgroundImageFix" result="effect1_dropShadow_591_14161"/>
<feBlend mode="normal" in="SourceGraphic" in2="effect1_dropShadow_591_14161" result="shape"/>
</filter>
</defs>
</svg>
