<svg width="390" height="157" viewBox="0 0 390 157" fill="none" xmlns="http://www.w3.org/2000/svg">
<rect width="390" height="157" fill="#F9FAFB"/>
<rect x="86.5" y="65.5" width="47" height="47" rx="2.5" fill="white"/>
<path d="M104 99.5V93.5H106.5V99.5H104ZM110.25 99.5V88.5H112.75V99.5H110.25ZM116.5 99.5V83.5H119V99.5H116.5Z" fill="#959BA3"/>
<path d="M101 99.5V91.8125H103.5V99.5H101ZM107.25 99.5V85.4062H109.75V99.5H107.25ZM113.5 99.5V79H116V99.5H113.5Z" fill="#959BA3"/>
<rect x="86.5" y="65.5" width="47" height="47" rx="2.5" stroke="#D8DEE9"/>
<rect x="255.5" y="65.5" width="47" height="47" rx="2.5" fill="white"/>
<path d="M273 99.5V93.5H275.5V99.5H273ZM279.25 99.5V88.5H281.75V99.5H279.25ZM285.5 99.5V83.5H288V99.5H285.5Z" fill="#959BA3"/>
<path d="M270 99.5V91.8125H272.5V99.5H270ZM276.25 99.5V85.4062H278.75V99.5H276.25ZM282.5 99.5V79H285V99.5H282.5Z" fill="#959BA3"/>
<rect x="255.5" y="65.5" width="47" height="47" rx="2.5" stroke="#D8DEE9"/>
<g filter="url(#filter0_dd_851_11964)">
<rect x="182" y="27" width="118" height="32" rx="8" fill="white"/>
<path d="M195.106 39.5611V38.5455H202.197V39.5611H199.224V48H198.079V39.5611H195.106ZM204.905 43.7344V48H203.816V38.5455H204.905V42.017H204.998C205.164 41.6508 205.413 41.36 205.746 41.1445C206.081 40.926 206.527 40.8168 207.084 40.8168C207.568 40.8168 207.991 40.9137 208.354 41.1076C208.717 41.2984 208.999 41.5923 209.199 41.9893C209.402 42.3833 209.504 42.8849 209.504 43.4943V48H208.414V43.5682C208.414 43.005 208.268 42.5695 207.975 42.2617C207.686 41.9509 207.285 41.7955 206.771 41.7955C206.414 41.7955 206.093 41.8709 205.81 42.0217C205.53 42.1725 205.309 42.3925 205.146 42.6818C204.986 42.9711 204.905 43.322 204.905 43.7344ZM211.497 48V40.9091H212.586V48H211.497ZM212.051 39.7273C211.838 39.7273 211.655 39.6549 211.501 39.5103C211.35 39.3656 211.275 39.1918 211.275 38.9886C211.275 38.7855 211.35 38.6116 211.501 38.467C211.655 38.3223 211.838 38.25 212.051 38.25C212.263 38.25 212.445 38.3223 212.595 38.467C212.749 38.6116 212.826 38.7855 212.826 38.9886C212.826 39.1918 212.749 39.3656 212.595 39.5103C212.445 39.6549 212.263 39.7273 212.051 39.7273ZM219.604 42.4972L218.626 42.7741C218.564 42.611 218.473 42.4525 218.353 42.2987C218.236 42.1417 218.076 42.0124 217.873 41.9109C217.67 41.8093 217.41 41.7585 217.093 41.7585C216.659 41.7585 216.297 41.8585 216.008 42.0586C215.722 42.2556 215.579 42.5064 215.579 42.8111C215.579 43.0819 215.677 43.2958 215.874 43.4528C216.071 43.6097 216.379 43.7405 216.798 43.8452L217.85 44.1037C218.484 44.2576 218.957 44.493 219.267 44.81C219.578 45.1239 219.734 45.5286 219.734 46.0241C219.734 46.4304 219.617 46.7936 219.383 47.1136C219.152 47.4337 218.829 47.6861 218.413 47.8707C217.998 48.0554 217.515 48.1477 216.964 48.1477C216.24 48.1477 215.642 47.9908 215.168 47.6768C214.694 47.3629 214.394 46.9044 214.268 46.3011L215.302 46.0426C215.4 46.4242 215.586 46.7105 215.86 46.9013C216.137 47.0921 216.499 47.1875 216.945 47.1875C217.453 47.1875 217.856 47.0798 218.155 46.8643C218.456 46.6458 218.607 46.3842 218.607 46.0795C218.607 45.8333 218.521 45.6271 218.349 45.4609C218.176 45.2917 217.912 45.1655 217.555 45.0824L216.373 44.8054C215.723 44.6515 215.246 44.413 214.942 44.0898C214.64 43.7636 214.489 43.3558 214.489 42.8665C214.489 42.4664 214.602 42.1125 214.826 41.8047C215.054 41.4969 215.363 41.2553 215.754 41.0799C216.148 40.9045 216.594 40.8168 217.093 40.8168C217.795 40.8168 218.346 40.9706 218.746 41.2784C219.149 41.5862 219.435 41.9924 219.604 42.4972ZM225.03 48V40.9091H226.119V48H225.03ZM225.584 39.7273C225.371 39.7273 225.188 39.6549 225.034 39.5103C224.884 39.3656 224.808 39.1918 224.808 38.9886C224.808 38.7855 224.884 38.6116 225.034 38.467C225.188 38.3223 225.371 38.25 225.584 38.25C225.796 38.25 225.978 38.3223 226.129 38.467C226.282 38.6116 226.359 38.7855 226.359 38.9886C226.359 39.1918 226.282 39.3656 226.129 39.5103C225.978 39.6549 225.796 39.7273 225.584 39.7273ZM233.138 42.4972L232.159 42.7741C232.097 42.611 232.007 42.4525 231.886 42.2987C231.77 42.1417 231.61 42.0124 231.406 41.9109C231.203 41.8093 230.943 41.7585 230.626 41.7585C230.192 41.7585 229.831 41.8585 229.541 42.0586C229.255 42.2556 229.112 42.5064 229.112 42.8111C229.112 43.0819 229.21 43.2958 229.407 43.4528C229.604 43.6097 229.912 43.7405 230.331 43.8452L231.383 44.1037C232.017 44.2576 232.49 44.493 232.801 44.81C233.111 45.1239 233.267 45.5286 233.267 46.0241C233.267 46.4304 233.15 46.7936 232.916 47.1136C232.685 47.4337 232.362 47.6861 231.947 47.8707C231.531 48.0554 231.048 48.1477 230.497 48.1477C229.774 48.1477 229.175 47.9908 228.701 47.6768C228.227 47.3629 227.927 46.9044 227.801 46.3011L228.835 46.0426C228.933 46.4242 229.12 46.7105 229.394 46.9013C229.671 47.0921 230.032 47.1875 230.478 47.1875C230.986 47.1875 231.389 47.0798 231.688 46.8643C231.99 46.6458 232.14 46.3842 232.14 46.0795C232.14 45.8333 232.054 45.6271 231.882 45.4609C231.71 45.2917 231.445 45.1655 231.088 45.0824L229.906 44.8054C229.257 44.6515 228.78 44.413 228.475 44.0898C228.173 43.7636 228.023 43.3558 228.023 42.8665C228.023 42.4664 228.135 42.1125 228.36 41.8047C228.587 41.4969 228.897 41.2553 229.287 41.0799C229.681 40.9045 230.128 40.8168 230.626 40.8168C231.328 40.8168 231.879 40.9706 232.279 41.2784C232.682 41.5862 232.968 41.9924 233.138 42.4972ZM240.65 48.1662C240.2 48.1662 239.793 48.0816 239.426 47.9123C239.06 47.7399 238.769 47.4922 238.554 47.169C238.338 46.8428 238.231 46.4489 238.231 45.9872C238.231 45.581 238.311 45.2517 238.471 44.9993C238.631 44.7438 238.845 44.5438 239.112 44.3991C239.38 44.2545 239.676 44.1468 239.999 44.076C240.325 44.0021 240.653 43.9437 240.982 43.9006C241.413 43.8452 241.762 43.8036 242.03 43.7759C242.301 43.7451 242.498 43.6944 242.621 43.6236C242.747 43.5528 242.81 43.4297 242.81 43.2543V43.2173C242.81 42.7618 242.686 42.4079 242.436 42.1555C242.19 41.9032 241.816 41.777 241.314 41.777C240.794 41.777 240.387 41.8909 240.091 42.1186C239.796 42.3464 239.588 42.5895 239.468 42.848L238.434 42.4787C238.618 42.0478 238.865 41.7124 239.172 41.4723C239.483 41.2292 239.822 41.0599 240.188 40.9645C240.557 40.866 240.921 40.8168 241.278 40.8168C241.505 40.8168 241.767 40.8445 242.062 40.8999C242.361 40.9522 242.649 41.0614 242.926 41.2276C243.206 41.3938 243.438 41.6446 243.623 41.9801C243.807 42.3156 243.9 42.7649 243.9 43.3281V48H242.81V47.0398H242.755C242.681 47.1937 242.558 47.3583 242.386 47.5337C242.213 47.7092 241.984 47.8584 241.698 47.9815C241.411 48.1046 241.062 48.1662 240.65 48.1662ZM240.816 47.1875C241.247 47.1875 241.61 47.1029 241.905 46.9336C242.204 46.7643 242.429 46.5458 242.579 46.2781C242.733 46.0103 242.81 45.7287 242.81 45.4332V44.4361C242.764 44.4915 242.663 44.5423 242.506 44.5884C242.352 44.6315 242.173 44.67 241.97 44.7038C241.77 44.7346 241.575 44.7623 241.384 44.7869C241.196 44.8085 241.044 44.8269 240.927 44.8423C240.644 44.8793 240.379 44.9393 240.133 45.0224C239.89 45.1024 239.693 45.224 239.542 45.3871C239.394 45.5471 239.32 45.7656 239.32 46.0426C239.32 46.4212 239.46 46.7074 239.74 46.9013C240.023 47.0921 240.382 47.1875 240.816 47.1875ZM252.628 40.9091V41.8324H248.954V40.9091H252.628ZM250.025 39.2102H251.114V45.9688C251.114 46.2765 251.159 46.5073 251.248 46.6612C251.34 46.812 251.457 46.9136 251.599 46.9659C251.744 47.0152 251.896 47.0398 252.056 47.0398C252.176 47.0398 252.274 47.0336 252.351 47.0213C252.428 47.0059 252.49 46.9936 252.536 46.9844L252.758 47.9631C252.684 47.9908 252.581 48.0185 252.448 48.0462C252.316 48.0769 252.148 48.0923 251.945 48.0923C251.637 48.0923 251.336 48.0262 251.04 47.8938C250.748 47.7615 250.505 47.5599 250.311 47.2891C250.12 47.0182 250.025 46.6766 250.025 46.2642V39.2102ZM257.072 48.1477C256.432 48.1477 255.87 47.9954 255.387 47.6907C254.907 47.386 254.531 46.9598 254.26 46.4119C253.992 45.8641 253.859 45.224 253.859 44.4915C253.859 43.7528 253.992 43.1081 254.26 42.5572C254.531 42.0063 254.907 41.5785 255.387 41.2738C255.87 40.9691 256.432 40.8168 257.072 40.8168C257.712 40.8168 258.272 40.9691 258.752 41.2738C259.235 41.5785 259.611 42.0063 259.879 42.5572C260.149 43.1081 260.285 43.7528 260.285 44.4915C260.285 45.224 260.149 45.8641 259.879 46.4119C259.611 46.9598 259.235 47.386 258.752 47.6907C258.272 47.9954 257.712 48.1477 257.072 48.1477ZM257.072 47.169C257.558 47.169 257.958 47.0444 258.272 46.7951C258.586 46.5458 258.818 46.218 258.969 45.8118C259.12 45.4055 259.195 44.9654 259.195 44.4915C259.195 44.0175 259.12 43.5759 258.969 43.1665C258.818 42.7572 258.586 42.4264 258.272 42.174C257.958 41.9216 257.558 41.7955 257.072 41.7955C256.585 41.7955 256.185 41.9216 255.871 42.174C255.557 42.4264 255.325 42.7572 255.174 43.1665C255.024 43.5759 254.948 44.0175 254.948 44.4915C254.948 44.9654 255.024 45.4055 255.174 45.8118C255.325 46.218 255.557 46.5458 255.871 46.7951C256.185 47.0444 256.585 47.169 257.072 47.169ZM264.829 48.1477C264.188 48.1477 263.627 47.9954 263.144 47.6907C262.663 47.386 262.288 46.9598 262.017 46.4119C261.749 45.8641 261.615 45.224 261.615 44.4915C261.615 43.7528 261.749 43.1081 262.017 42.5572C262.288 42.0063 262.663 41.5785 263.144 41.2738C263.627 40.9691 264.188 40.8168 264.829 40.8168C265.469 40.8168 266.029 40.9691 266.509 41.2738C266.992 41.5785 267.368 42.0063 267.635 42.5572C267.906 43.1081 268.042 43.7528 268.042 44.4915C268.042 45.224 267.906 45.8641 267.635 46.4119C267.368 46.9598 266.992 47.386 266.509 47.6907C266.029 47.9954 265.469 48.1477 264.829 48.1477ZM264.829 47.169C265.315 47.169 265.715 47.0444 266.029 46.7951C266.343 46.5458 266.575 46.218 266.726 45.8118C266.877 45.4055 266.952 44.9654 266.952 44.4915C266.952 44.0175 266.877 43.5759 266.726 43.1665C266.575 42.7572 266.343 42.4264 266.029 42.174C265.715 41.9216 265.315 41.7955 264.829 41.7955C264.342 41.7955 263.942 41.9216 263.628 42.174C263.314 42.4264 263.082 42.7572 262.931 43.1665C262.78 43.5759 262.705 44.0175 262.705 44.4915C262.705 44.9654 262.78 45.4055 262.931 45.8118C263.082 46.218 263.314 46.5458 263.628 46.7951C263.942 47.0444 264.342 47.169 264.829 47.169ZM270.794 38.5455V48H269.705V38.5455H270.794ZM275.873 40.9091V41.8324H272.199V40.9091H275.873ZM273.27 39.2102H274.359V45.9688C274.359 46.2765 274.404 46.5073 274.493 46.6612C274.585 46.812 274.702 46.9136 274.844 46.9659C274.989 47.0152 275.141 47.0398 275.301 47.0398C275.421 47.0398 275.52 47.0336 275.596 47.0213C275.673 47.0059 275.735 46.9936 275.781 46.9844L276.003 47.9631C275.929 47.9908 275.826 48.0185 275.693 48.0462C275.561 48.0769 275.393 48.0923 275.19 48.0923C274.882 48.0923 274.581 48.0262 274.285 47.8938C273.993 47.7615 273.75 47.5599 273.556 47.2891C273.365 47.0182 273.27 46.6766 273.27 46.2642V39.2102ZM277.512 48V40.9091H278.602V48H277.512ZM278.066 39.7273C277.854 39.7273 277.671 39.6549 277.517 39.5103C277.366 39.3656 277.291 39.1918 277.291 38.9886C277.291 38.7855 277.366 38.6116 277.517 38.467C277.671 38.3223 277.854 38.25 278.066 38.25C278.279 38.25 278.46 38.3223 278.611 38.467C278.765 38.6116 278.842 38.7855 278.842 38.9886C278.842 39.1918 278.765 39.3656 278.611 39.5103C278.46 39.6549 278.279 39.7273 278.066 39.7273ZM280.597 50.6591V40.9091H281.65V42.0355H281.779C281.859 41.9124 281.97 41.7554 282.111 41.5646C282.256 41.3707 282.462 41.1984 282.73 41.0476C283.001 40.8937 283.367 40.8168 283.829 40.8168C284.426 40.8168 284.952 40.966 285.408 41.2646C285.863 41.5631 286.219 41.9863 286.474 42.5341C286.729 43.0819 286.857 43.7282 286.857 44.473C286.857 45.224 286.729 45.8749 286.474 46.4258C286.219 46.9736 285.865 47.3983 285.412 47.6999C284.96 47.9985 284.438 48.1477 283.847 48.1477C283.392 48.1477 283.027 48.0723 282.753 47.9215C282.479 47.7676 282.268 47.5937 282.121 47.3999C281.973 47.2029 281.859 47.0398 281.779 46.9105H281.687V50.6591H280.597ZM281.668 44.4545C281.668 44.9901 281.747 45.4625 281.904 45.8718C282.061 46.2781 282.29 46.5966 282.592 46.8274C282.893 47.0552 283.263 47.169 283.7 47.169C284.155 47.169 284.535 47.049 284.84 46.8089C285.148 46.5658 285.378 46.2396 285.532 45.8303C285.689 45.4179 285.768 44.9593 285.768 44.4545C285.768 43.956 285.691 43.5066 285.537 43.1065C285.386 42.7034 285.157 42.3848 284.849 42.1509C284.544 41.9139 284.161 41.7955 283.7 41.7955C283.256 41.7955 282.884 41.9078 282.582 42.1325C282.281 42.354 282.053 42.6649 281.899 43.065C281.745 43.462 281.668 43.9252 281.668 44.4545Z" fill="#344054"/>
<path d="M286.071 56.4853C286.962 56.4853 287.408 57.5624 286.778 58.1924L280.707 64.2635C280.317 64.654 279.683 64.654 279.293 64.2635L273.222 58.1924C272.592 57.5624 273.038 56.4853 273.929 56.4853H286.071Z" fill="white"/>
</g>
<g filter="url(#filter1_d_851_11964)">
<path fill-rule="evenodd" clip-rule="evenodd" d="M285.831 117.473C285.553 117.097 285.215 116.328 284.614 115.394C284.274 114.866 283.429 113.871 283.178 113.366C282.96 112.92 282.983 112.72 283.035 112.35C283.127 111.692 283.757 111.179 284.429 111.248C284.937 111.3 285.368 111.659 285.755 111.999C285.989 112.203 286.277 112.6 286.45 112.824C286.609 113.03 286.649 113.115 286.819 113.358C287.044 113.68 287.114 113.839 287.028 113.485C286.959 112.965 286.845 112.077 286.681 111.292C286.556 110.697 286.525 110.604 286.406 110.147C286.28 109.661 286.215 109.32 286.097 108.805C286.015 108.44 285.867 107.695 285.827 107.276C285.771 106.702 285.742 105.768 286.085 105.338C286.354 105.002 286.971 104.9 287.354 105.107C287.855 105.379 288.14 106.159 288.27 106.47C288.504 107.029 288.649 107.676 288.775 108.525C288.935 109.605 289.231 111.105 289.24 111.42C289.264 111.034 289.174 110.219 289.237 109.848C289.293 109.512 289.557 109.121 289.888 109.015C290.168 108.926 290.496 108.894 290.784 108.958C291.091 109.025 291.414 109.259 291.534 109.48C291.888 110.134 291.895 111.471 291.91 111.399C291.994 111.005 291.979 110.111 292.188 109.739C292.325 109.494 292.674 109.273 292.86 109.237C293.147 109.183 293.501 109.166 293.803 109.229C294.047 109.28 294.376 109.591 294.465 109.739C294.679 110.1 294.8 111.119 294.836 111.477C294.851 111.625 294.909 111.066 295.123 110.706C295.52 110.036 296.926 109.906 296.98 111.375C297.004 112.06 297 112.029 297 112.49C297 113.032 296.988 113.358 296.96 113.75C296.93 114.169 296.846 115.116 296.724 115.575C296.64 115.891 296.361 116.6 296.086 117.026C296.086 117.026 295.035 118.336 294.92 118.926C294.805 119.514 294.843 119.519 294.821 119.937C294.798 120.354 294.939 120.903 294.939 120.903C294.939 120.903 294.154 121.012 293.732 120.94C293.349 120.874 292.875 120.058 292.753 119.809C292.585 119.465 292.226 119.531 292.086 119.785C291.866 120.186 291.392 120.906 291.057 120.951C290.404 121.039 289.048 120.984 287.986 120.972C287.986 120.972 288.167 119.913 287.764 119.549C287.466 119.278 286.952 118.727 286.645 118.438L285.831 117.473Z" fill="white"/>
<path fill-rule="evenodd" clip-rule="evenodd" d="M285.831 117.473C285.553 117.097 285.215 116.328 284.614 115.394C284.274 114.866 283.429 113.871 283.178 113.366C282.96 112.92 282.983 112.72 283.035 112.35C283.127 111.692 283.757 111.179 284.429 111.248C284.937 111.3 285.368 111.659 285.755 111.999C285.989 112.203 286.277 112.6 286.45 112.824C286.609 113.03 286.649 113.115 286.819 113.358C287.044 113.68 287.114 113.839 287.028 113.485C286.959 112.965 286.845 112.077 286.681 111.292C286.556 110.697 286.525 110.604 286.406 110.147C286.28 109.661 286.215 109.32 286.097 108.805C286.015 108.44 285.867 107.695 285.827 107.276C285.771 106.702 285.742 105.768 286.085 105.338C286.354 105.002 286.971 104.9 287.354 105.107C287.855 105.379 288.14 106.159 288.27 106.47C288.504 107.029 288.649 107.676 288.775 108.525C288.935 109.605 289.231 111.105 289.24 111.42C289.264 111.034 289.174 110.219 289.237 109.848C289.293 109.512 289.557 109.121 289.888 109.015C290.168 108.926 290.496 108.894 290.784 108.958C291.091 109.025 291.414 109.259 291.534 109.48C291.888 110.134 291.895 111.471 291.91 111.399C291.994 111.005 291.979 110.111 292.188 109.739C292.325 109.494 292.674 109.273 292.86 109.237C293.147 109.183 293.501 109.166 293.803 109.229C294.047 109.28 294.376 109.591 294.465 109.739C294.679 110.1 294.8 111.119 294.836 111.477C294.851 111.625 294.909 111.066 295.123 110.706C295.52 110.036 296.926 109.906 296.98 111.375C297.004 112.06 297 112.029 297 112.49C297 113.032 296.988 113.358 296.96 113.75C296.93 114.169 296.846 115.116 296.724 115.575C296.64 115.891 296.361 116.6 296.086 117.026C296.086 117.026 295.035 118.336 294.92 118.926C294.805 119.514 294.843 119.519 294.821 119.937C294.798 120.354 294.939 120.903 294.939 120.903C294.939 120.903 294.154 121.012 293.732 120.94C293.349 120.874 292.875 120.058 292.753 119.809C292.585 119.465 292.226 119.531 292.086 119.785C291.866 120.186 291.392 120.906 291.057 120.951C290.404 121.039 289.048 120.984 287.986 120.972C287.986 120.972 288.167 119.913 287.764 119.549C287.466 119.278 286.952 118.727 286.645 118.438L285.831 117.473Z" stroke="#1F243D" stroke-width="0.75" stroke-linecap="round" stroke-linejoin="round"/>
</g>
<path fill-rule="evenodd" clip-rule="evenodd" d="M290 114.5C290 114.224 289.776 114 289.5 114C289.224 114 289 114.224 289 114.5V117.5C289 117.776 289.224 118 289.5 118C289.776 118 290 117.776 290 117.5V114.5ZM291.5 114C291.776 114 292 114.224 292 114.5V117.5C292 117.776 291.776 118 291.5 118C291.224 118 291 117.776 291 117.5V114.5C291 114.224 291.224 114 291.5 114ZM293.5 114C293.776 114 294 114.224 294 114.5V117.5C294 117.776 293.776 118 293.5 118C293.224 118 293 117.776 293 117.5V114.5C293 114.224 293.224 114 293.5 114Z" fill="#1F243D"/>
<defs>
<filter id="filter0_dd_851_11964" x="170" y="27" width="142" height="62" filterUnits="userSpaceOnUse" color-interpolation-filters="sRGB">
<feFlood flood-opacity="0" result="BackgroundImageFix"/>
<feColorMatrix in="SourceAlpha" type="matrix" values="0 0 0 0 0 0 0 0 0 0 0 0 0 0 0 0 0 0 127 0" result="hardAlpha"/>
<feMorphology radius="2" operator="erode" in="SourceAlpha" result="effect1_dropShadow_851_11964"/>
<feOffset dy="4"/>
<feGaussianBlur stdDeviation="3"/>
<feColorMatrix type="matrix" values="0 0 0 0 0.0627451 0 0 0 0 0.0941176 0 0 0 0 0.156863 0 0 0 0.03 0"/>
<feBlend mode="normal" in2="BackgroundImageFix" result="effect1_dropShadow_851_11964"/>
<feColorMatrix in="SourceAlpha" type="matrix" values="0 0 0 0 0 0 0 0 0 0 0 0 0 0 0 0 0 0 127 0" result="hardAlpha"/>
<feMorphology radius="4" operator="erode" in="SourceAlpha" result="effect2_dropShadow_851_11964"/>
<feOffset dy="12"/>
<feGaussianBlur stdDeviation="8"/>
<feColorMatrix type="matrix" values="0 0 0 0 0.0627451 0 0 0 0 0.0941176 0 0 0 0 0.156863 0 0 0 0.08 0"/>
<feBlend mode="normal" in2="effect1_dropShadow_851_11964" result="effect2_dropShadow_851_11964"/>
<feBlend mode="normal" in="SourceGraphic" in2="effect2_dropShadow_851_11964" result="shape"/>
</filter>
<filter id="filter1_d_851_11964" x="280.625" y="103.625" width="18.75" height="20.75" filterUnits="userSpaceOnUse" color-interpolation-filters="sRGB">
<feFlood flood-opacity="0" result="BackgroundImageFix"/>
<feColorMatrix in="SourceAlpha" type="matrix" values="0 0 0 0 0 0 0 0 0 0 0 0 0 0 0 0 0 0 127 0" result="hardAlpha"/>
<feOffset dy="1"/>
<feGaussianBlur stdDeviation="1"/>
<feColorMatrix type="matrix" values="0 0 0 0 0 0 0 0 0 0 0 0 0 0 0 0 0 0 0.24 0"/>
<feBlend mode="normal" in2="BackgroundImageFix" result="effect1_dropShadow_851_11964"/>
<feBlend mode="normal" in="SourceGraphic" in2="effect1_dropShadow_851_11964" result="shape"/>
</filter>
</defs>
</svg>
