<svg width="390" height="232" viewBox="0 0 390 232" fill="none" xmlns="http://www.w3.org/2000/svg">
<rect width="390" height="232" fill="#F9FAFB"/>
<g opacity="0.2" filter="url(#filter0_dd_380_24243)">
<rect x="136" y="100" width="118" height="32" rx="8" fill="white"/>
<path d="M149.106 112.561V111.545H156.197V112.561H153.224V121H152.079V112.561H149.106ZM158.905 116.734V121H157.816V111.545H158.905V115.017H158.998C159.164 114.651 159.413 114.36 159.746 114.145C160.081 113.926 160.527 113.817 161.084 113.817C161.568 113.817 161.991 113.914 162.354 114.108C162.717 114.298 162.999 114.592 163.199 114.989C163.402 115.383 163.504 115.885 163.504 116.494V121H162.414V116.568C162.414 116.005 162.268 115.569 161.975 115.262C161.686 114.951 161.285 114.795 160.771 114.795C160.414 114.795 160.093 114.871 159.81 115.022C159.53 115.172 159.309 115.393 159.146 115.682C158.986 115.971 158.905 116.322 158.905 116.734ZM165.497 121V113.909H166.586V121H165.497ZM166.051 112.727C165.838 112.727 165.655 112.655 165.501 112.51C165.35 112.366 165.275 112.192 165.275 111.989C165.275 111.786 165.35 111.612 165.501 111.467C165.655 111.322 165.838 111.25 166.051 111.25C166.263 111.25 166.445 111.322 166.595 111.467C166.749 111.612 166.826 111.786 166.826 111.989C166.826 112.192 166.749 112.366 166.595 112.51C166.445 112.655 166.263 112.727 166.051 112.727ZM173.604 115.497L172.626 115.774C172.564 115.611 172.473 115.453 172.353 115.299C172.236 115.142 172.076 115.012 171.873 114.911C171.67 114.809 171.41 114.759 171.093 114.759C170.659 114.759 170.297 114.859 170.008 115.059C169.722 115.256 169.579 115.506 169.579 115.811C169.579 116.082 169.677 116.296 169.874 116.453C170.071 116.61 170.379 116.741 170.798 116.845L171.85 117.104C172.484 117.258 172.957 117.493 173.267 117.81C173.578 118.124 173.734 118.529 173.734 119.024C173.734 119.43 173.617 119.794 173.383 120.114C173.152 120.434 172.829 120.686 172.413 120.871C171.998 121.055 171.515 121.148 170.964 121.148C170.24 121.148 169.642 120.991 169.168 120.677C168.694 120.363 168.394 119.904 168.268 119.301L169.302 119.043C169.4 119.424 169.586 119.71 169.86 119.901C170.137 120.092 170.499 120.188 170.945 120.188C171.453 120.188 171.856 120.08 172.155 119.864C172.456 119.646 172.607 119.384 172.607 119.08C172.607 118.833 172.521 118.627 172.349 118.461C172.176 118.292 171.912 118.165 171.555 118.082L170.373 117.805C169.723 117.652 169.246 117.413 168.942 117.09C168.64 116.764 168.489 116.356 168.489 115.866C168.489 115.466 168.602 115.112 168.826 114.805C169.054 114.497 169.363 114.255 169.754 114.08C170.148 113.904 170.594 113.817 171.093 113.817C171.795 113.817 172.346 113.971 172.746 114.278C173.149 114.586 173.435 114.992 173.604 115.497ZM179.03 121V113.909H180.119V121H179.03ZM179.584 112.727C179.371 112.727 179.188 112.655 179.034 112.51C178.884 112.366 178.808 112.192 178.808 111.989C178.808 111.786 178.884 111.612 179.034 111.467C179.188 111.322 179.371 111.25 179.584 111.25C179.796 111.25 179.978 111.322 180.129 111.467C180.282 111.612 180.359 111.786 180.359 111.989C180.359 112.192 180.282 112.366 180.129 112.51C179.978 112.655 179.796 112.727 179.584 112.727ZM187.138 115.497L186.159 115.774C186.097 115.611 186.007 115.453 185.886 115.299C185.77 115.142 185.61 115.012 185.406 114.911C185.203 114.809 184.943 114.759 184.626 114.759C184.192 114.759 183.831 114.859 183.541 115.059C183.255 115.256 183.112 115.506 183.112 115.811C183.112 116.082 183.21 116.296 183.407 116.453C183.604 116.61 183.912 116.741 184.331 116.845L185.383 117.104C186.017 117.258 186.49 117.493 186.801 117.81C187.111 118.124 187.267 118.529 187.267 119.024C187.267 119.43 187.15 119.794 186.916 120.114C186.685 120.434 186.362 120.686 185.947 120.871C185.531 121.055 185.048 121.148 184.497 121.148C183.774 121.148 183.175 120.991 182.701 120.677C182.227 120.363 181.927 119.904 181.801 119.301L182.835 119.043C182.933 119.424 183.12 119.71 183.394 119.901C183.671 120.092 184.032 120.188 184.478 120.188C184.986 120.188 185.389 120.08 185.688 119.864C185.99 119.646 186.14 119.384 186.14 119.08C186.14 118.833 186.054 118.627 185.882 118.461C185.71 118.292 185.445 118.165 185.088 118.082L183.906 117.805C183.257 117.652 182.78 117.413 182.475 117.09C182.173 116.764 182.023 116.356 182.023 115.866C182.023 115.466 182.135 115.112 182.36 114.805C182.587 114.497 182.897 114.255 183.287 114.08C183.681 113.904 184.128 113.817 184.626 113.817C185.328 113.817 185.879 113.971 186.279 114.278C186.682 114.586 186.968 114.992 187.138 115.497ZM194.65 121.166C194.2 121.166 193.793 121.082 193.426 120.912C193.06 120.74 192.769 120.492 192.554 120.169C192.338 119.843 192.231 119.449 192.231 118.987C192.231 118.581 192.311 118.252 192.471 117.999C192.631 117.744 192.845 117.544 193.112 117.399C193.38 117.254 193.676 117.147 193.999 117.076C194.325 117.002 194.653 116.944 194.982 116.901C195.413 116.845 195.762 116.804 196.03 116.776C196.301 116.745 196.498 116.694 196.621 116.624C196.747 116.553 196.81 116.43 196.81 116.254V116.217C196.81 115.762 196.686 115.408 196.436 115.156C196.19 114.903 195.816 114.777 195.314 114.777C194.794 114.777 194.387 114.891 194.091 115.119C193.796 115.346 193.588 115.589 193.468 115.848L192.434 115.479C192.618 115.048 192.865 114.712 193.172 114.472C193.483 114.229 193.822 114.06 194.188 113.964C194.557 113.866 194.921 113.817 195.278 113.817C195.505 113.817 195.767 113.844 196.062 113.9C196.361 113.952 196.649 114.061 196.926 114.228C197.206 114.394 197.438 114.645 197.623 114.98C197.807 115.316 197.9 115.765 197.9 116.328V121H196.81V120.04H196.755C196.681 120.194 196.558 120.358 196.386 120.534C196.213 120.709 195.984 120.858 195.698 120.982C195.411 121.105 195.062 121.166 194.65 121.166ZM194.816 120.188C195.247 120.188 195.61 120.103 195.905 119.934C196.204 119.764 196.429 119.546 196.579 119.278C196.733 119.01 196.81 118.729 196.81 118.433V117.436C196.764 117.491 196.663 117.542 196.506 117.588C196.352 117.632 196.173 117.67 195.97 117.704C195.77 117.735 195.575 117.762 195.384 117.787C195.196 117.808 195.044 117.827 194.927 117.842C194.644 117.879 194.379 117.939 194.133 118.022C193.89 118.102 193.693 118.224 193.542 118.387C193.394 118.547 193.32 118.766 193.32 119.043C193.32 119.421 193.46 119.707 193.74 119.901C194.023 120.092 194.382 120.188 194.816 120.188ZM206.628 113.909V114.832H202.954V113.909H206.628ZM204.025 112.21H205.114V118.969C205.114 119.277 205.159 119.507 205.248 119.661C205.34 119.812 205.457 119.914 205.599 119.966C205.744 120.015 205.896 120.04 206.056 120.04C206.176 120.04 206.274 120.034 206.351 120.021C206.428 120.006 206.49 119.994 206.536 119.984L206.758 120.963C206.684 120.991 206.581 121.018 206.448 121.046C206.316 121.077 206.148 121.092 205.945 121.092C205.637 121.092 205.336 121.026 205.04 120.894C204.748 120.761 204.505 120.56 204.311 120.289C204.12 120.018 204.025 119.677 204.025 119.264V112.21ZM211.072 121.148C210.432 121.148 209.87 120.995 209.387 120.691C208.907 120.386 208.531 119.96 208.26 119.412C207.992 118.864 207.859 118.224 207.859 117.491C207.859 116.753 207.992 116.108 208.26 115.557C208.531 115.006 208.907 114.578 209.387 114.274C209.87 113.969 210.432 113.817 211.072 113.817C211.712 113.817 212.272 113.969 212.752 114.274C213.235 114.578 213.611 115.006 213.879 115.557C214.149 116.108 214.285 116.753 214.285 117.491C214.285 118.224 214.149 118.864 213.879 119.412C213.611 119.96 213.235 120.386 212.752 120.691C212.272 120.995 211.712 121.148 211.072 121.148ZM211.072 120.169C211.558 120.169 211.958 120.044 212.272 119.795C212.586 119.546 212.818 119.218 212.969 118.812C213.12 118.406 213.195 117.965 213.195 117.491C213.195 117.018 213.12 116.576 212.969 116.167C212.818 115.757 212.586 115.426 212.272 115.174C211.958 114.922 211.558 114.795 211.072 114.795C210.585 114.795 210.185 114.922 209.871 115.174C209.557 115.426 209.325 115.757 209.174 116.167C209.024 116.576 208.948 117.018 208.948 117.491C208.948 117.965 209.024 118.406 209.174 118.812C209.325 119.218 209.557 119.546 209.871 119.795C210.185 120.044 210.585 120.169 211.072 120.169ZM218.829 121.148C218.188 121.148 217.627 120.995 217.144 120.691C216.663 120.386 216.288 119.96 216.017 119.412C215.749 118.864 215.615 118.224 215.615 117.491C215.615 116.753 215.749 116.108 216.017 115.557C216.288 115.006 216.663 114.578 217.144 114.274C217.627 113.969 218.188 113.817 218.829 113.817C219.469 113.817 220.029 113.969 220.509 114.274C220.992 114.578 221.368 115.006 221.635 115.557C221.906 116.108 222.042 116.753 222.042 117.491C222.042 118.224 221.906 118.864 221.635 119.412C221.368 119.96 220.992 120.386 220.509 120.691C220.029 120.995 219.469 121.148 218.829 121.148ZM218.829 120.169C219.315 120.169 219.715 120.044 220.029 119.795C220.343 119.546 220.575 119.218 220.726 118.812C220.877 118.406 220.952 117.965 220.952 117.491C220.952 117.018 220.877 116.576 220.726 116.167C220.575 115.757 220.343 115.426 220.029 115.174C219.715 114.922 219.315 114.795 218.829 114.795C218.342 114.795 217.942 114.922 217.628 115.174C217.314 115.426 217.082 115.757 216.931 116.167C216.78 116.576 216.705 117.018 216.705 117.491C216.705 117.965 216.78 118.406 216.931 118.812C217.082 119.218 217.314 119.546 217.628 119.795C217.942 120.044 218.342 120.169 218.829 120.169ZM224.794 111.545V121H223.705V111.545H224.794ZM229.873 113.909V114.832H226.199V113.909H229.873ZM227.27 112.21H228.359V118.969C228.359 119.277 228.404 119.507 228.493 119.661C228.585 119.812 228.702 119.914 228.844 119.966C228.989 120.015 229.141 120.04 229.301 120.04C229.421 120.04 229.52 120.034 229.596 120.021C229.673 120.006 229.735 119.994 229.781 119.984L230.003 120.963C229.929 120.991 229.826 121.018 229.693 121.046C229.561 121.077 229.393 121.092 229.19 121.092C228.882 121.092 228.581 121.026 228.285 120.894C227.993 120.761 227.75 120.56 227.556 120.289C227.365 120.018 227.27 119.677 227.27 119.264V112.21ZM231.512 121V113.909H232.602V121H231.512ZM232.066 112.727C231.854 112.727 231.671 112.655 231.517 112.51C231.366 112.366 231.291 112.192 231.291 111.989C231.291 111.786 231.366 111.612 231.517 111.467C231.671 111.322 231.854 111.25 232.066 111.25C232.279 111.25 232.46 111.322 232.611 111.467C232.765 111.612 232.842 111.786 232.842 111.989C232.842 112.192 232.765 112.366 232.611 112.51C232.46 112.655 232.279 112.727 232.066 112.727ZM234.597 123.659V113.909H235.65V115.036H235.779C235.859 114.912 235.97 114.755 236.111 114.565C236.256 114.371 236.462 114.198 236.73 114.048C237.001 113.894 237.367 113.817 237.829 113.817C238.426 113.817 238.952 113.966 239.408 114.265C239.863 114.563 240.219 114.986 240.474 115.534C240.729 116.082 240.857 116.728 240.857 117.473C240.857 118.224 240.729 118.875 240.474 119.426C240.219 119.974 239.865 120.398 239.412 120.7C238.96 120.998 238.438 121.148 237.847 121.148C237.392 121.148 237.027 121.072 236.753 120.922C236.479 120.768 236.268 120.594 236.121 120.4C235.973 120.203 235.859 120.04 235.779 119.911H235.687V123.659H234.597ZM235.668 117.455C235.668 117.99 235.747 118.462 235.904 118.872C236.061 119.278 236.29 119.597 236.592 119.827C236.893 120.055 237.263 120.169 237.7 120.169C238.155 120.169 238.535 120.049 238.84 119.809C239.148 119.566 239.378 119.24 239.532 118.83C239.689 118.418 239.768 117.959 239.768 117.455C239.768 116.956 239.691 116.507 239.537 116.107C239.386 115.703 239.157 115.385 238.849 115.151C238.544 114.914 238.161 114.795 237.7 114.795C237.256 114.795 236.884 114.908 236.582 115.132C236.281 115.354 236.053 115.665 235.899 116.065C235.745 116.462 235.668 116.925 235.668 117.455Z" fill="#344054"/>
</g>
<rect x="136" y="100" width="118" height="32" rx="8" fill="white"/>
<path d="M149.106 112.561V111.545H156.197V112.561H153.224V121H152.079V112.561H149.106ZM158.905 116.734V121H157.816V111.545H158.905V115.017H158.998C159.164 114.651 159.413 114.36 159.746 114.145C160.081 113.926 160.527 113.817 161.084 113.817C161.568 113.817 161.991 113.914 162.354 114.108C162.717 114.298 162.999 114.592 163.199 114.989C163.402 115.383 163.504 115.885 163.504 116.494V121H162.414V116.568C162.414 116.005 162.268 115.569 161.975 115.262C161.686 114.951 161.285 114.795 160.771 114.795C160.414 114.795 160.093 114.871 159.81 115.022C159.53 115.172 159.309 115.393 159.146 115.682C158.986 115.971 158.905 116.322 158.905 116.734ZM165.497 121V113.909H166.586V121H165.497ZM166.051 112.727C165.838 112.727 165.655 112.655 165.501 112.51C165.35 112.366 165.275 112.192 165.275 111.989C165.275 111.786 165.35 111.612 165.501 111.467C165.655 111.322 165.838 111.25 166.051 111.25C166.263 111.25 166.445 111.322 166.595 111.467C166.749 111.612 166.826 111.786 166.826 111.989C166.826 112.192 166.749 112.366 166.595 112.51C166.445 112.655 166.263 112.727 166.051 112.727ZM173.604 115.497L172.626 115.774C172.564 115.611 172.473 115.453 172.353 115.299C172.236 115.142 172.076 115.012 171.873 114.911C171.67 114.809 171.41 114.759 171.093 114.759C170.659 114.759 170.297 114.859 170.008 115.059C169.722 115.256 169.579 115.506 169.579 115.811C169.579 116.082 169.677 116.296 169.874 116.453C170.071 116.61 170.379 116.741 170.798 116.845L171.85 117.104C172.484 117.258 172.957 117.493 173.267 117.81C173.578 118.124 173.734 118.529 173.734 119.024C173.734 119.43 173.617 119.794 173.383 120.114C173.152 120.434 172.829 120.686 172.413 120.871C171.998 121.055 171.515 121.148 170.964 121.148C170.24 121.148 169.642 120.991 169.168 120.677C168.694 120.363 168.394 119.904 168.268 119.301L169.302 119.043C169.4 119.424 169.586 119.71 169.86 119.901C170.137 120.092 170.499 120.188 170.945 120.188C171.453 120.188 171.856 120.08 172.155 119.864C172.456 119.646 172.607 119.384 172.607 119.08C172.607 118.833 172.521 118.627 172.349 118.461C172.176 118.292 171.912 118.165 171.555 118.082L170.373 117.805C169.723 117.652 169.246 117.413 168.942 117.09C168.64 116.764 168.489 116.356 168.489 115.866C168.489 115.466 168.602 115.112 168.826 114.805C169.054 114.497 169.363 114.255 169.754 114.08C170.148 113.904 170.594 113.817 171.093 113.817C171.795 113.817 172.346 113.971 172.746 114.278C173.149 114.586 173.435 114.992 173.604 115.497ZM179.03 121V113.909H180.119V121H179.03ZM179.584 112.727C179.371 112.727 179.188 112.655 179.034 112.51C178.884 112.366 178.808 112.192 178.808 111.989C178.808 111.786 178.884 111.612 179.034 111.467C179.188 111.322 179.371 111.25 179.584 111.25C179.796 111.25 179.978 111.322 180.129 111.467C180.282 111.612 180.359 111.786 180.359 111.989C180.359 112.192 180.282 112.366 180.129 112.51C179.978 112.655 179.796 112.727 179.584 112.727ZM187.138 115.497L186.159 115.774C186.097 115.611 186.007 115.453 185.886 115.299C185.77 115.142 185.61 115.012 185.406 114.911C185.203 114.809 184.943 114.759 184.626 114.759C184.192 114.759 183.831 114.859 183.541 115.059C183.255 115.256 183.112 115.506 183.112 115.811C183.112 116.082 183.21 116.296 183.407 116.453C183.604 116.61 183.912 116.741 184.331 116.845L185.383 117.104C186.017 117.258 186.49 117.493 186.801 117.81C187.111 118.124 187.267 118.529 187.267 119.024C187.267 119.43 187.15 119.794 186.916 120.114C186.685 120.434 186.362 120.686 185.947 120.871C185.531 121.055 185.048 121.148 184.497 121.148C183.774 121.148 183.175 120.991 182.701 120.677C182.227 120.363 181.927 119.904 181.801 119.301L182.835 119.043C182.933 119.424 183.12 119.71 183.394 119.901C183.671 120.092 184.032 120.188 184.478 120.188C184.986 120.188 185.389 120.08 185.688 119.864C185.99 119.646 186.14 119.384 186.14 119.08C186.14 118.833 186.054 118.627 185.882 118.461C185.71 118.292 185.445 118.165 185.088 118.082L183.906 117.805C183.257 117.652 182.78 117.413 182.475 117.09C182.173 116.764 182.023 116.356 182.023 115.866C182.023 115.466 182.135 115.112 182.36 114.805C182.587 114.497 182.897 114.255 183.287 114.08C183.681 113.904 184.128 113.817 184.626 113.817C185.328 113.817 185.879 113.971 186.279 114.278C186.682 114.586 186.968 114.992 187.138 115.497ZM194.65 121.166C194.2 121.166 193.793 121.082 193.426 120.912C193.06 120.74 192.769 120.492 192.554 120.169C192.338 119.843 192.231 119.449 192.231 118.987C192.231 118.581 192.311 118.252 192.471 117.999C192.631 117.744 192.845 117.544 193.112 117.399C193.38 117.254 193.676 117.147 193.999 117.076C194.325 117.002 194.653 116.944 194.982 116.901C195.413 116.845 195.762 116.804 196.03 116.776C196.301 116.745 196.498 116.694 196.621 116.624C196.747 116.553 196.81 116.43 196.81 116.254V116.217C196.81 115.762 196.686 115.408 196.436 115.156C196.19 114.903 195.816 114.777 195.314 114.777C194.794 114.777 194.387 114.891 194.091 115.119C193.796 115.346 193.588 115.589 193.468 115.848L192.434 115.479C192.618 115.048 192.865 114.712 193.172 114.472C193.483 114.229 193.822 114.06 194.188 113.964C194.557 113.866 194.921 113.817 195.278 113.817C195.505 113.817 195.767 113.844 196.062 113.9C196.361 113.952 196.649 114.061 196.926 114.228C197.206 114.394 197.438 114.645 197.623 114.98C197.807 115.316 197.9 115.765 197.9 116.328V121H196.81V120.04H196.755C196.681 120.194 196.558 120.358 196.386 120.534C196.213 120.709 195.984 120.858 195.698 120.982C195.411 121.105 195.062 121.166 194.65 121.166ZM194.816 120.188C195.247 120.188 195.61 120.103 195.905 119.934C196.204 119.764 196.429 119.546 196.579 119.278C196.733 119.01 196.81 118.729 196.81 118.433V117.436C196.764 117.491 196.663 117.542 196.506 117.588C196.352 117.632 196.173 117.67 195.97 117.704C195.77 117.735 195.575 117.762 195.384 117.787C195.196 117.808 195.044 117.827 194.927 117.842C194.644 117.879 194.379 117.939 194.133 118.022C193.89 118.102 193.693 118.224 193.542 118.387C193.394 118.547 193.32 118.766 193.32 119.043C193.32 119.421 193.46 119.707 193.74 119.901C194.023 120.092 194.382 120.188 194.816 120.188ZM206.628 113.909V114.832H202.954V113.909H206.628ZM204.025 112.21H205.114V118.969C205.114 119.277 205.159 119.507 205.248 119.661C205.34 119.812 205.457 119.914 205.599 119.966C205.744 120.015 205.896 120.04 206.056 120.04C206.176 120.04 206.274 120.034 206.351 120.021C206.428 120.006 206.49 119.994 206.536 119.984L206.758 120.963C206.684 120.991 206.581 121.018 206.448 121.046C206.316 121.077 206.148 121.092 205.945 121.092C205.637 121.092 205.336 121.026 205.04 120.894C204.748 120.761 204.505 120.56 204.311 120.289C204.12 120.018 204.025 119.677 204.025 119.264V112.21ZM211.072 121.148C210.432 121.148 209.87 120.995 209.387 120.691C208.907 120.386 208.531 119.96 208.26 119.412C207.992 118.864 207.859 118.224 207.859 117.491C207.859 116.753 207.992 116.108 208.26 115.557C208.531 115.006 208.907 114.578 209.387 114.274C209.87 113.969 210.432 113.817 211.072 113.817C211.712 113.817 212.272 113.969 212.752 114.274C213.235 114.578 213.611 115.006 213.879 115.557C214.149 116.108 214.285 116.753 214.285 117.491C214.285 118.224 214.149 118.864 213.879 119.412C213.611 119.96 213.235 120.386 212.752 120.691C212.272 120.995 211.712 121.148 211.072 121.148ZM211.072 120.169C211.558 120.169 211.958 120.044 212.272 119.795C212.586 119.546 212.818 119.218 212.969 118.812C213.12 118.406 213.195 117.965 213.195 117.491C213.195 117.018 213.12 116.576 212.969 116.167C212.818 115.757 212.586 115.426 212.272 115.174C211.958 114.922 211.558 114.795 211.072 114.795C210.585 114.795 210.185 114.922 209.871 115.174C209.557 115.426 209.325 115.757 209.174 116.167C209.024 116.576 208.948 117.018 208.948 117.491C208.948 117.965 209.024 118.406 209.174 118.812C209.325 119.218 209.557 119.546 209.871 119.795C210.185 120.044 210.585 120.169 211.072 120.169ZM218.829 121.148C218.188 121.148 217.627 120.995 217.144 120.691C216.663 120.386 216.288 119.96 216.017 119.412C215.749 118.864 215.615 118.224 215.615 117.491C215.615 116.753 215.749 116.108 216.017 115.557C216.288 115.006 216.663 114.578 217.144 114.274C217.627 113.969 218.188 113.817 218.829 113.817C219.469 113.817 220.029 113.969 220.509 114.274C220.992 114.578 221.368 115.006 221.635 115.557C221.906 116.108 222.042 116.753 222.042 117.491C222.042 118.224 221.906 118.864 221.635 119.412C221.368 119.96 220.992 120.386 220.509 120.691C220.029 120.995 219.469 121.148 218.829 121.148ZM218.829 120.169C219.315 120.169 219.715 120.044 220.029 119.795C220.343 119.546 220.575 119.218 220.726 118.812C220.877 118.406 220.952 117.965 220.952 117.491C220.952 117.018 220.877 116.576 220.726 116.167C220.575 115.757 220.343 115.426 220.029 115.174C219.715 114.922 219.315 114.795 218.829 114.795C218.342 114.795 217.942 114.922 217.628 115.174C217.314 115.426 217.082 115.757 216.931 116.167C216.78 116.576 216.705 117.018 216.705 117.491C216.705 117.965 216.78 118.406 216.931 118.812C217.082 119.218 217.314 119.546 217.628 119.795C217.942 120.044 218.342 120.169 218.829 120.169ZM224.794 111.545V121H223.705V111.545H224.794ZM229.873 113.909V114.832H226.199V113.909H229.873ZM227.27 112.21H228.359V118.969C228.359 119.277 228.404 119.507 228.493 119.661C228.585 119.812 228.702 119.914 228.844 119.966C228.989 120.015 229.141 120.04 229.301 120.04C229.421 120.04 229.52 120.034 229.596 120.021C229.673 120.006 229.735 119.994 229.781 119.984L230.003 120.963C229.929 120.991 229.826 121.018 229.693 121.046C229.561 121.077 229.393 121.092 229.19 121.092C228.882 121.092 228.581 121.026 228.285 120.894C227.993 120.761 227.75 120.56 227.556 120.289C227.365 120.018 227.27 119.677 227.27 119.264V112.21ZM231.512 121V113.909H232.602V121H231.512ZM232.066 112.727C231.854 112.727 231.671 112.655 231.517 112.51C231.366 112.366 231.291 112.192 231.291 111.989C231.291 111.786 231.366 111.612 231.517 111.467C231.671 111.322 231.854 111.25 232.066 111.25C232.279 111.25 232.46 111.322 232.611 111.467C232.765 111.612 232.842 111.786 232.842 111.989C232.842 112.192 232.765 112.366 232.611 112.51C232.46 112.655 232.279 112.727 232.066 112.727ZM234.597 123.659V113.909H235.65V115.036H235.779C235.859 114.912 235.97 114.755 236.111 114.565C236.256 114.371 236.462 114.198 236.73 114.048C237.001 113.894 237.367 113.817 237.829 113.817C238.426 113.817 238.952 113.966 239.408 114.265C239.863 114.563 240.219 114.986 240.474 115.534C240.729 116.082 240.857 116.728 240.857 117.473C240.857 118.224 240.729 118.875 240.474 119.426C240.219 119.974 239.865 120.398 239.412 120.7C238.96 120.998 238.438 121.148 237.847 121.148C237.392 121.148 237.027 121.072 236.753 120.922C236.479 120.768 236.268 120.594 236.121 120.4C235.973 120.203 235.859 120.04 235.779 119.911H235.687V123.659H234.597ZM235.668 117.455C235.668 117.99 235.747 118.462 235.904 118.872C236.061 119.278 236.29 119.597 236.592 119.827C236.893 120.055 237.263 120.169 237.7 120.169C238.155 120.169 238.535 120.049 238.84 119.809C239.148 119.566 239.378 119.24 239.532 118.83C239.689 118.418 239.768 117.959 239.768 117.455C239.768 116.956 239.691 116.507 239.537 116.107C239.386 115.703 239.157 115.385 238.849 115.151C238.544 114.914 238.161 114.795 237.7 114.795C237.256 114.795 236.884 114.908 236.582 115.132C236.281 115.354 236.053 115.665 235.899 116.065C235.745 116.462 235.668 116.925 235.668 117.455Z" fill="#344054"/>
<rect x="135.5" y="99.5" width="119" height="33" stroke="#0D69D4"/>
<g clip-path="url(#clip0_380_24243)">
<mask maskUnits="userSpaceOnUse" x="0" y="0" width="0" height="0" fill="black">
<rect fill="white" width="0" height="0"/>
</mask>
<path d="M88.7071 44.2929C88.3166 43.9024 87.6834 43.9024 87.2929 44.2929L80.9289 50.6569C80.5384 51.0474 80.5384 51.6805 80.9289 52.0711C81.3195 52.4616 81.9526 52.4616 82.3431 52.0711L88 46.4142L93.6569 52.0711C94.0474 52.4616 94.6805 52.4616 95.0711 52.0711C95.4616 51.6805 95.4616 51.0474 95.0711 50.6569L88.7071 44.2929ZM87.2929 75.7071C87.6834 76.0976 88.3166 76.0976 88.7071 75.7071L95.0711 69.3431C95.4616 68.9526 95.4616 68.3195 95.0711 67.9289C94.6805 67.5384 94.0474 67.5384 93.6569 67.9289L88 73.5858L82.3431 67.9289C81.9526 67.5384 81.3195 67.5384 80.9289 67.9289C80.5384 68.3195 80.5384 68.9526 80.9289 69.3431L87.2929 75.7071ZM87 45V75H89V45H87Z" fill="#6B6B6B" mask="url(#)"/>
</g>
<path fill-rule="evenodd" clip-rule="evenodd" d="M90.0113 44H85.9891H84.9891H81.0001H80.0001L80 45V49.024V50.024V50.031L80.0001 54.0186L80 55.0186L80.0001 59.014L80 60.014H81.0001H84.9891H85.9891H90.0113H91.0113H95H96V59.014V55.0186V54.0186V50.024V49.024V45V44H95H91.0113H90.0113ZM81.0001 59.014H84.9891V55.0186H81.0001V59.014ZM81.0001 54.0186H84.9891V50.031H81.0001V54.0186ZM95 55.0186V59.014H91.0113V55.0186H95ZM95 50.024V54.0186H91.0113V50.024H95ZM95 45V49.024H91.0113V45H95ZM90.0113 45H85.9891V49.024H90.0113V45ZM90.0113 50.024H85.9891V50.031V54.0186H90.0113V50.024ZM90.0113 55.0186H85.9891V59.014H90.0113V55.0186Z" fill="#6B6B6B"/>
<g clip-path="url(#clip1_380_24243)">
<g clip-path="url(#clip2_380_24243)">
<mask maskUnits="userSpaceOnUse" x="0" y="0" width="0" height="0" fill="black">
<rect fill="white" width="0" height="0"/>
</mask>
<path d="M89.2803 90.2197C88.9874 89.9268 88.5126 89.9268 88.2197 90.2197L83.4467 94.9926C83.1538 95.2855 83.1538 95.7604 83.4467 96.0533C83.7396 96.3462 84.2145 96.3462 84.5074 96.0533L88.75 91.8107L92.9926 96.0533C93.2855 96.3462 93.7604 96.3462 94.0533 96.0533C94.3462 95.7604 94.3462 95.2855 94.0533 94.9926L89.2803 90.2197ZM88.2197 115.28C88.5126 115.573 88.9874 115.573 89.2803 115.28L94.0533 110.507C94.3462 110.214 94.3462 109.74 94.0533 109.447C93.7604 109.154 93.2855 109.154 92.9926 109.447L88.75 113.689L84.5074 109.447C84.2145 109.154 83.7396 109.154 83.4467 109.447C83.1538 109.74 83.1538 110.214 83.4467 110.507L88.2197 115.28ZM88 90.75V114.75H89.5V90.75H88Z" fill="#0D69D4" mask="url(#)"/>
<mask maskUnits="userSpaceOnUse" x="0" y="0" width="0" height="0" fill="black">
<rect fill="white" width="0" height="0"/>
</mask>
<path d="M89.2803 116.72C88.9874 116.427 88.5126 116.427 88.2197 116.72L83.4467 121.493C83.1538 121.786 83.1538 122.26 83.4467 122.553C83.7396 122.846 84.2145 122.846 84.5074 122.553L88.75 118.311L92.9926 122.553C93.2855 122.846 93.7604 122.846 94.0533 122.553C94.3462 122.26 94.3462 121.786 94.0533 121.493L89.2803 116.72ZM88.2197 141.78C88.5126 142.073 88.9874 142.073 89.2803 141.78L94.0533 137.007C94.3462 136.714 94.3462 136.24 94.0533 135.947C93.7604 135.654 93.2855 135.654 92.9926 135.947L88.75 140.189L84.5074 135.947C84.2145 135.654 83.7396 135.654 83.4467 135.947C83.1538 136.24 83.1538 136.714 83.4467 137.007L88.2197 141.78ZM88 117.25V141.25H89.5V117.25H88Z" fill="#0D69D4" mask="url(#)"/>
</g>
</g>
<mask maskUnits="userSpaceOnUse" x="0" y="0" width="0" height="0" fill="black">
<rect fill="white" width="0" height="0"/>
</mask>
<path d="M136.22 51.2197C135.927 51.5126 135.927 51.9874 136.22 52.2803L140.993 57.0533C141.286 57.3462 141.76 57.3462 142.053 57.0533C142.346 56.7604 142.346 56.2855 142.053 55.9926L137.811 51.75L142.053 47.5074C142.346 47.2145 142.346 46.7396 142.053 46.4467C141.76 46.1538 141.286 46.1538 140.993 46.4467L136.22 51.2197ZM253.78 52.2803C254.073 51.9874 254.073 51.5126 253.78 51.2197L249.007 46.4467C248.714 46.1538 248.24 46.1538 247.947 46.4467C247.654 46.7396 247.654 47.2145 247.947 47.5074L252.189 51.75L247.947 55.9926C247.654 56.2855 247.654 56.7604 247.947 57.0533C248.24 57.3462 248.714 57.3462 249.007 57.0533L253.78 52.2803ZM136.75 52.5H253.25V51H136.75V52.5Z" fill="#0D69D4" mask="url(#)"/>
<g clip-path="url(#clip3_380_24243)">
<g clip-path="url(#clip4_380_24243)">
<mask maskUnits="userSpaceOnUse" x="0" y="0" width="0" height="0" fill="black">
<rect fill="white" width="0" height="0"/>
</mask>
<path d="M128.854 98.1464C128.658 97.9512 128.342 97.9512 128.146 98.1464L124.964 101.328C124.769 101.524 124.769 101.84 124.964 102.036C125.16 102.231 125.476 102.231 125.672 102.036L128.5 99.2071L131.328 102.036C131.524 102.231 131.84 102.231 132.036 102.036C132.231 101.84 132.231 101.524 132.036 101.328L128.854 98.1464ZM128.146 115.354C128.342 115.549 128.658 115.549 128.854 115.354L132.036 112.172C132.231 111.976 132.231 111.66 132.036 111.464C131.84 111.269 131.524 111.269 131.328 111.464L128.5 114.293L125.672 111.464C125.476 111.269 125.16 111.269 124.964 111.464C124.769 111.66 124.769 111.976 124.964 112.172L128.146 115.354ZM128 98.5V115H129V98.5H128Z" fill="#0D69D4" mask="url(#)"/>
<mask maskUnits="userSpaceOnUse" x="0" y="0" width="0" height="0" fill="black">
<rect fill="white" width="0" height="0"/>
</mask>
<path d="M128.854 116.646C128.658 116.451 128.342 116.451 128.146 116.646L124.964 119.828C124.769 120.024 124.769 120.34 124.964 120.536C125.16 120.731 125.476 120.731 125.672 120.536L128.5 117.707L131.328 120.536C131.524 120.731 131.84 120.731 132.036 120.536C132.231 120.34 132.231 120.024 132.036 119.828L128.854 116.646ZM128.146 133.854C128.342 134.049 128.658 134.049 128.854 133.854L132.036 130.672C132.231 130.476 132.231 130.16 132.036 129.964C131.84 129.769 131.524 129.769 131.328 129.964L128.5 132.793L125.672 129.964C125.476 129.769 125.16 129.769 124.964 129.964C124.769 130.16 124.769 130.476 124.964 130.672L128.146 133.854ZM128 117V133.5H129V117H128Z" fill="#0D69D4" mask="url(#)"/>
</g>
</g>
<rect x="136" y="100" width="118" height="8" fill="#007D00" fill-opacity="0.3"/>
<line x1="120" y1="100.5" x2="254" y2="100.5" stroke="#007D00"/>
<line x1="120" y1="107.5" x2="254" y2="107.5" stroke="#007D00"/>
<path d="M111.963 108.119C111.307 108.119 110.723 108.013 110.212 107.8C109.703 107.584 109.304 107.29 109.014 106.918C108.724 106.545 108.58 106.124 108.58 105.652C108.58 105.288 108.662 104.955 108.827 104.651C108.994 104.344 109.222 104.089 109.509 103.888C109.795 103.683 110.116 103.553 110.472 103.496V103.436C110.006 103.342 109.628 103.116 109.338 102.759C109.048 102.398 108.903 101.979 108.903 101.501C108.903 101.05 109.036 100.648 109.3 100.295C109.564 99.9403 109.926 99.6619 110.386 99.4602C110.849 99.2557 111.375 99.1534 111.963 99.1534C112.551 99.1534 113.075 99.2557 113.536 99.4602C113.999 99.6648 114.362 99.9446 114.626 100.3C114.891 100.652 115.024 101.053 115.027 101.501C115.024 101.982 114.876 102.401 114.584 102.759C114.291 103.116 113.916 103.342 113.459 103.436V103.496C113.808 103.553 114.125 103.683 114.409 103.888C114.696 104.089 114.923 104.344 115.091 104.651C115.261 104.955 115.348 105.288 115.351 105.652C115.348 106.124 115.202 106.545 114.912 106.918C114.622 107.29 114.222 107.584 113.71 107.8C113.202 108.013 112.619 108.119 111.963 108.119ZM111.963 106.764C112.256 106.764 112.511 106.712 112.73 106.607C112.949 106.499 113.119 106.351 113.241 106.163C113.366 105.973 113.429 105.754 113.429 105.507C113.429 105.254 113.365 105.031 113.237 104.838C113.109 104.642 112.936 104.489 112.717 104.378C112.499 104.264 112.247 104.207 111.963 104.207C111.682 104.207 111.43 104.264 111.209 104.378C110.987 104.489 110.813 104.642 110.685 104.838C110.56 105.031 110.497 105.254 110.497 105.507C110.497 105.754 110.558 105.973 110.68 106.163C110.803 106.351 110.974 106.499 111.196 106.607C111.418 106.712 111.673 106.764 111.963 106.764ZM111.963 102.865C112.207 102.865 112.425 102.815 112.615 102.716C112.805 102.616 112.955 102.479 113.062 102.303C113.17 102.126 113.224 101.923 113.224 101.693C113.224 101.466 113.17 101.267 113.062 101.097C112.955 100.923 112.807 100.788 112.619 100.692C112.432 100.592 112.213 100.543 111.963 100.543C111.716 100.543 111.497 100.592 111.307 100.692C111.116 100.788 110.967 100.923 110.859 101.097C110.754 101.267 110.702 101.466 110.702 101.693C110.702 101.923 110.756 102.126 110.864 102.303C110.972 102.479 111.121 102.616 111.311 102.716C111.501 102.815 111.719 102.865 111.963 102.865Z" fill="#007D00"/>
<rect x="136" y="124" width="118" height="8" fill="#007D00" fill-opacity="0.3"/>
<line x1="120" y1="124.5" x2="254" y2="124.5" stroke="#007D00"/>
<line x1="120" y1="131.5" x2="254" y2="131.5" stroke="#007D00"/>
<path d="M111.963 132.119C111.307 132.119 110.723 132.013 110.212 131.8C109.703 131.584 109.304 131.29 109.014 130.918C108.724 130.545 108.58 130.124 108.58 129.652C108.58 129.288 108.662 128.955 108.827 128.651C108.994 128.344 109.222 128.089 109.509 127.888C109.795 127.683 110.116 127.553 110.472 127.496V127.436C110.006 127.342 109.628 127.116 109.338 126.759C109.048 126.398 108.903 125.979 108.903 125.501C108.903 125.05 109.036 124.648 109.3 124.295C109.564 123.94 109.926 123.662 110.386 123.46C110.849 123.256 111.375 123.153 111.963 123.153C112.551 123.153 113.075 123.256 113.536 123.46C113.999 123.665 114.362 123.945 114.626 124.3C114.891 124.652 115.024 125.053 115.027 125.501C115.024 125.982 114.876 126.401 114.584 126.759C114.291 127.116 113.916 127.342 113.459 127.436V127.496C113.808 127.553 114.125 127.683 114.409 127.888C114.696 128.089 114.923 128.344 115.091 128.651C115.261 128.955 115.348 129.288 115.351 129.652C115.348 130.124 115.202 130.545 114.912 130.918C114.622 131.29 114.222 131.584 113.71 131.8C113.202 132.013 112.619 132.119 111.963 132.119ZM111.963 130.764C112.256 130.764 112.511 130.712 112.73 130.607C112.949 130.499 113.119 130.351 113.241 130.163C113.366 129.973 113.429 129.754 113.429 129.507C113.429 129.254 113.365 129.031 113.237 128.838C113.109 128.642 112.936 128.489 112.717 128.378C112.499 128.264 112.247 128.207 111.963 128.207C111.682 128.207 111.43 128.264 111.209 128.378C110.987 128.489 110.813 128.642 110.685 128.838C110.56 129.031 110.497 129.254 110.497 129.507C110.497 129.754 110.558 129.973 110.68 130.163C110.803 130.351 110.974 130.499 111.196 130.607C111.418 130.712 111.673 130.764 111.963 130.764ZM111.963 126.865C112.207 126.865 112.425 126.815 112.615 126.716C112.805 126.616 112.955 126.479 113.062 126.303C113.17 126.126 113.224 125.923 113.224 125.693C113.224 125.466 113.17 125.267 113.062 125.097C112.955 124.923 112.807 124.788 112.619 124.692C112.432 124.592 112.213 124.543 111.963 124.543C111.716 124.543 111.497 124.592 111.307 124.692C111.116 124.788 110.967 124.923 110.859 125.097C110.754 125.267 110.702 125.466 110.702 125.693C110.702 125.923 110.756 126.126 110.864 126.303C110.972 126.479 111.121 126.616 111.311 126.716C111.501 126.815 111.719 126.865 111.963 126.865Z" fill="#007D00"/>
<rect x="136" y="108" width="12" height="16" fill="#007D00" fill-opacity="0.3"/>
<line x1="136.5" y1="84" x2="136.5" y2="132" stroke="#007D00"/>
<line x1="147.5" y1="84" x2="147.5" y2="132" stroke="#007D00"/>
<path d="M139.504 71.2727V80H137.659V73.0241H137.608L135.609 74.277V72.6406L137.77 71.2727H139.504ZM141.578 80V78.6705L144.685 75.794C144.949 75.5384 145.171 75.3082 145.35 75.1037C145.532 74.8991 145.669 74.6989 145.763 74.5028C145.857 74.304 145.904 74.0895 145.904 73.8594C145.904 73.6037 145.846 73.3835 145.729 73.1989C145.613 73.0114 145.453 72.8679 145.252 72.7685C145.05 72.6662 144.821 72.6151 144.566 72.6151C144.299 72.6151 144.066 72.669 143.867 72.777C143.668 72.8849 143.515 73.0398 143.407 73.2415C143.299 73.4432 143.245 73.6832 143.245 73.9616H141.493C141.493 73.3906 141.623 72.8949 141.881 72.4744C142.14 72.054 142.502 71.7287 142.968 71.4986C143.434 71.2685 143.971 71.1534 144.578 71.1534C145.203 71.1534 145.748 71.2642 146.211 71.4858C146.676 71.7045 147.039 72.0085 147.297 72.3977C147.556 72.7869 147.685 73.233 147.685 73.7358C147.685 74.0653 147.62 74.3906 147.489 74.7116C147.361 75.0327 147.132 75.3892 146.803 75.7812C146.473 76.1705 146.009 76.6378 145.409 77.1832L144.135 78.4318V78.4915H147.8V80H141.578Z" fill="#007D00"/>
<rect x="242" y="108" width="12" height="16" fill="#007D00" fill-opacity="0.3"/>
<line x1="242.5" y1="84" x2="242.5" y2="132" stroke="#007D00"/>
<line x1="253.5" y1="84" x2="253.5" y2="132" stroke="#007D00"/>
<path d="M245.504 71.2727V80H243.659V73.0241H243.608L241.609 74.277V72.6406L243.77 71.2727H245.504ZM247.578 80V78.6705L250.685 75.794C250.949 75.5384 251.171 75.3082 251.35 75.1037C251.532 74.8991 251.669 74.6989 251.763 74.5028C251.857 74.304 251.904 74.0895 251.904 73.8594C251.904 73.6037 251.846 73.3835 251.729 73.1989C251.613 73.0114 251.453 72.8679 251.252 72.7685C251.05 72.6662 250.821 72.6151 250.566 72.6151C250.299 72.6151 250.066 72.669 249.867 72.777C249.668 72.8849 249.515 73.0398 249.407 73.2415C249.299 73.4432 249.245 73.6832 249.245 73.9616H247.493C247.493 73.3906 247.623 72.8949 247.881 72.4744C248.14 72.054 248.502 71.7287 248.968 71.4986C249.434 71.2685 249.971 71.1534 250.578 71.1534C251.203 71.1534 251.748 71.2642 252.211 71.4858C252.676 71.7045 253.039 72.0085 253.297 72.3977C253.556 72.7869 253.685 73.233 253.685 73.7358C253.685 74.0653 253.62 74.3906 253.489 74.7116C253.361 75.0327 253.132 75.3892 252.803 75.7812C252.473 76.1705 252.009 76.6378 251.409 77.1832L250.135 78.4318V78.4915H253.8V80H247.578Z" fill="#007D00"/>
<defs>
<filter id="filter0_dd_380_24243" x="124" y="100" width="142" height="56" filterUnits="userSpaceOnUse" color-interpolation-filters="sRGB">
<feFlood flood-opacity="0" result="BackgroundImageFix"/>
<feColorMatrix in="SourceAlpha" type="matrix" values="0 0 0 0 0 0 0 0 0 0 0 0 0 0 0 0 0 0 127 0" result="hardAlpha"/>
<feMorphology radius="2" operator="erode" in="SourceAlpha" result="effect1_dropShadow_380_24243"/>
<feOffset dy="4"/>
<feGaussianBlur stdDeviation="3"/>
<feColorMatrix type="matrix" values="0 0 0 0 0.0627451 0 0 0 0 0.0941176 0 0 0 0 0.156863 0 0 0 0.03 0"/>
<feBlend mode="normal" in2="BackgroundImageFix" result="effect1_dropShadow_380_24243"/>
<feColorMatrix in="SourceAlpha" type="matrix" values="0 0 0 0 0 0 0 0 0 0 0 0 0 0 0 0 0 0 127 0" result="hardAlpha"/>
<feMorphology radius="4" operator="erode" in="SourceAlpha" result="effect2_dropShadow_380_24243"/>
<feOffset dy="12"/>
<feGaussianBlur stdDeviation="8"/>
<feColorMatrix type="matrix" values="0 0 0 0 0.0627451 0 0 0 0 0.0941176 0 0 0 0 0.156863 0 0 0 0.08 0"/>
<feBlend mode="normal" in2="effect1_dropShadow_380_24243" result="effect2_dropShadow_380_24243"/>
<feBlend mode="normal" in="SourceGraphic" in2="effect2_dropShadow_380_24243" result="shape"/>
</filter>
<clipPath id="clip0_380_24243">
<rect width="16" height="16" fill="white" transform="matrix(0 1 -1 0 96 60)"/>
</clipPath>
<clipPath id="clip1_380_24243">
<rect width="32" height="16" fill="white" transform="matrix(0 1 -1 0 96 100)"/>
</clipPath>
<clipPath id="clip2_380_24243">
<rect width="52" height="16" fill="white" transform="matrix(0 1 -1 0 96 90)"/>
</clipPath>
<clipPath id="clip3_380_24243">
<rect width="16" height="16" fill="white" transform="matrix(0 1 -1 0 136 108)"/>
</clipPath>
<clipPath id="clip4_380_24243">
<rect width="36" height="16" fill="white" transform="matrix(0 1 -1 0 136 98)"/>
</clipPath>
</defs>
</svg>
