<svg width="804" height="180" viewBox="0 0 804 180" fill="none" xmlns="http://www.w3.org/2000/svg">
<rect width="804" height="180" fill="#F9FAFB"/>
<g filter="url(#filter0_dd_380_24050)">
<path d="M76 59C76 55.6863 78.6863 53 82 53H188C191.314 53 194 55.6863 194 59V79C194 82.3137 191.314 85 188 85H82C78.6863 85 76 82.3137 76 79V59Z" fill="#1A1A1A"/>
<path d="M89.1059 65.5611V64.5455H96.1968V65.5611H93.2238V74H92.0789V65.5611H89.1059ZM98.9055 69.7344V74H97.816V64.5455H98.9055V68.017H98.9978C99.164 67.6508 99.4133 67.36 99.7457 67.1445C100.081 66.926 100.527 66.8168 101.084 66.8168C101.568 66.8168 101.991 66.9137 102.354 67.1076C102.717 67.2984 102.999 67.5923 103.199 67.9893C103.402 68.3833 103.504 68.8849 103.504 69.4943V74H102.414V69.5682C102.414 69.005 102.268 68.5695 101.975 68.2617C101.686 67.9509 101.285 67.7955 100.771 67.7955C100.414 67.7955 100.093 67.8709 99.8103 68.0217C99.5303 68.1725 99.3087 68.3925 99.1456 68.6818C98.9855 68.9711 98.9055 69.322 98.9055 69.7344ZM105.497 74V66.9091H106.586V74H105.497ZM106.051 65.7273C105.838 65.7273 105.655 65.6549 105.501 65.5103C105.35 65.3656 105.275 65.1918 105.275 64.9886C105.275 64.7855 105.35 64.6116 105.501 64.467C105.655 64.3223 105.838 64.25 106.051 64.25C106.263 64.25 106.445 64.3223 106.595 64.467C106.749 64.6116 106.826 64.7855 106.826 64.9886C106.826 65.1918 106.749 65.3656 106.595 65.5103C106.445 65.6549 106.263 65.7273 106.051 65.7273ZM113.604 68.4972L112.626 68.7741C112.564 68.611 112.473 68.4525 112.353 68.2987C112.236 68.1417 112.076 68.0124 111.873 67.9109C111.67 67.8093 111.41 67.7585 111.093 67.7585C110.659 67.7585 110.297 67.8585 110.008 68.0586C109.722 68.2556 109.579 68.5064 109.579 68.8111C109.579 69.0819 109.677 69.2958 109.874 69.4528C110.071 69.6097 110.379 69.7405 110.798 69.8452L111.85 70.1037C112.484 70.2576 112.957 70.493 113.267 70.81C113.578 71.1239 113.734 71.5286 113.734 72.0241C113.734 72.4304 113.617 72.7936 113.383 73.1136C113.152 73.4337 112.829 73.6861 112.413 73.8707C111.998 74.0554 111.515 74.1477 110.964 74.1477C110.24 74.1477 109.642 73.9908 109.168 73.6768C108.694 73.3629 108.394 72.9044 108.268 72.3011L109.302 72.0426C109.4 72.4242 109.586 72.7105 109.86 72.9013C110.137 73.0921 110.499 73.1875 110.945 73.1875C111.453 73.1875 111.856 73.0798 112.155 72.8643C112.456 72.6458 112.607 72.3842 112.607 72.0795C112.607 71.8333 112.521 71.6271 112.349 71.4609C112.176 71.2917 111.912 71.1655 111.555 71.0824L110.373 70.8054C109.723 70.6515 109.246 70.413 108.942 70.0898C108.64 69.7636 108.489 69.3558 108.489 68.8665C108.489 68.4664 108.602 68.1125 108.826 67.8047C109.054 67.4969 109.363 67.2553 109.754 67.0799C110.148 66.9045 110.594 66.8168 111.093 66.8168C111.795 66.8168 112.346 66.9706 112.746 67.2784C113.149 67.5862 113.435 67.9924 113.604 68.4972ZM119.03 74V66.9091H120.119V74H119.03ZM119.584 65.7273C119.371 65.7273 119.188 65.6549 119.034 65.5103C118.884 65.3656 118.808 65.1918 118.808 64.9886C118.808 64.7855 118.884 64.6116 119.034 64.467C119.188 64.3223 119.371 64.25 119.584 64.25C119.796 64.25 119.978 64.3223 120.129 64.467C120.282 64.6116 120.359 64.7855 120.359 64.9886C120.359 65.1918 120.282 65.3656 120.129 65.5103C119.978 65.6549 119.796 65.7273 119.584 65.7273ZM127.138 68.4972L126.159 68.7741C126.097 68.611 126.007 68.4525 125.886 68.2987C125.77 68.1417 125.61 68.0124 125.406 67.9109C125.203 67.8093 124.943 67.7585 124.626 67.7585C124.192 67.7585 123.831 67.8585 123.541 68.0586C123.255 68.2556 123.112 68.5064 123.112 68.8111C123.112 69.0819 123.21 69.2958 123.407 69.4528C123.604 69.6097 123.912 69.7405 124.331 69.8452L125.383 70.1037C126.017 70.2576 126.49 70.493 126.801 70.81C127.111 71.1239 127.267 71.5286 127.267 72.0241C127.267 72.4304 127.15 72.7936 126.916 73.1136C126.685 73.4337 126.362 73.6861 125.947 73.8707C125.531 74.0554 125.048 74.1477 124.497 74.1477C123.774 74.1477 123.175 73.9908 122.701 73.6768C122.227 73.3629 121.927 72.9044 121.801 72.3011L122.835 72.0426C122.933 72.4242 123.12 72.7105 123.394 72.9013C123.671 73.0921 124.032 73.1875 124.478 73.1875C124.986 73.1875 125.389 73.0798 125.688 72.8643C125.99 72.6458 126.14 72.3842 126.14 72.0795C126.14 71.8333 126.054 71.6271 125.882 71.4609C125.71 71.2917 125.445 71.1655 125.088 71.0824L123.906 70.8054C123.257 70.6515 122.78 70.413 122.475 70.0898C122.173 69.7636 122.023 69.3558 122.023 68.8665C122.023 68.4664 122.135 68.1125 122.36 67.8047C122.587 67.4969 122.897 67.2553 123.287 67.0799C123.681 66.9045 124.128 66.8168 124.626 66.8168C125.328 66.8168 125.879 66.9706 126.279 67.2784C126.682 67.5862 126.968 67.9924 127.138 68.4972ZM134.65 74.1662C134.2 74.1662 133.793 74.0816 133.426 73.9123C133.06 73.7399 132.769 73.4922 132.554 73.169C132.338 72.8428 132.231 72.4489 132.231 71.9872C132.231 71.581 132.311 71.2517 132.471 70.9993C132.631 70.7438 132.845 70.5438 133.112 70.3991C133.38 70.2545 133.676 70.1468 133.999 70.076C134.325 70.0021 134.653 69.9437 134.982 69.9006C135.413 69.8452 135.762 69.8036 136.03 69.7759C136.301 69.7451 136.498 69.6944 136.621 69.6236C136.747 69.5528 136.81 69.4297 136.81 69.2543V69.2173C136.81 68.7618 136.686 68.4079 136.436 68.1555C136.19 67.9032 135.816 67.777 135.314 67.777C134.794 67.777 134.387 67.8909 134.091 68.1186C133.796 68.3464 133.588 68.5895 133.468 68.848L132.434 68.4787C132.618 68.0478 132.865 67.7124 133.172 67.4723C133.483 67.2292 133.822 67.0599 134.188 66.9645C134.557 66.866 134.921 66.8168 135.278 66.8168C135.505 66.8168 135.767 66.8445 136.062 66.8999C136.361 66.9522 136.649 67.0614 136.926 67.2276C137.206 67.3938 137.438 67.6446 137.623 67.9801C137.807 68.3156 137.9 68.7649 137.9 69.3281V74H136.81V73.0398H136.755C136.681 73.1937 136.558 73.3583 136.386 73.5337C136.213 73.7092 135.984 73.8584 135.698 73.9815C135.411 74.1046 135.062 74.1662 134.65 74.1662ZM134.816 73.1875C135.247 73.1875 135.61 73.1029 135.905 72.9336C136.204 72.7643 136.429 72.5458 136.579 72.2781C136.733 72.0103 136.81 71.7287 136.81 71.4332V70.4361C136.764 70.4915 136.663 70.5423 136.506 70.5884C136.352 70.6315 136.173 70.67 135.97 70.7038C135.77 70.7346 135.575 70.7623 135.384 70.7869C135.196 70.8085 135.044 70.8269 134.927 70.8423C134.644 70.8793 134.379 70.9393 134.133 71.0224C133.89 71.1024 133.693 71.224 133.542 71.3871C133.394 71.5471 133.32 71.7656 133.32 72.0426C133.32 72.4212 133.46 72.7074 133.74 72.9013C134.023 73.0921 134.382 73.1875 134.816 73.1875ZM146.628 66.9091V67.8324H142.954V66.9091H146.628ZM144.025 65.2102H145.114V71.9688C145.114 72.2765 145.159 72.5073 145.248 72.6612C145.34 72.812 145.457 72.9136 145.599 72.9659C145.744 73.0152 145.896 73.0398 146.056 73.0398C146.176 73.0398 146.274 73.0336 146.351 73.0213C146.428 73.0059 146.49 72.9936 146.536 72.9844L146.758 73.9631C146.684 73.9908 146.581 74.0185 146.448 74.0462C146.316 74.0769 146.148 74.0923 145.945 74.0923C145.637 74.0923 145.336 74.0262 145.04 73.8938C144.748 73.7615 144.505 73.5599 144.311 73.2891C144.12 73.0182 144.025 72.6766 144.025 72.2642V65.2102ZM151.072 74.1477C150.432 74.1477 149.87 73.9954 149.387 73.6907C148.907 73.386 148.531 72.9598 148.26 72.4119C147.992 71.8641 147.859 71.224 147.859 70.4915C147.859 69.7528 147.992 69.1081 148.26 68.5572C148.531 68.0063 148.907 67.5785 149.387 67.2738C149.87 66.9691 150.432 66.8168 151.072 66.8168C151.712 66.8168 152.272 66.9691 152.752 67.2738C153.235 67.5785 153.611 68.0063 153.879 68.5572C154.149 69.1081 154.285 69.7528 154.285 70.4915C154.285 71.224 154.149 71.8641 153.879 72.4119C153.611 72.9598 153.235 73.386 152.752 73.6907C152.272 73.9954 151.712 74.1477 151.072 74.1477ZM151.072 73.169C151.558 73.169 151.958 73.0444 152.272 72.7951C152.586 72.5458 152.818 72.218 152.969 71.8118C153.12 71.4055 153.195 70.9654 153.195 70.4915C153.195 70.0175 153.12 69.5759 152.969 69.1665C152.818 68.7572 152.586 68.4264 152.272 68.174C151.958 67.9216 151.558 67.7955 151.072 67.7955C150.585 67.7955 150.185 67.9216 149.871 68.174C149.557 68.4264 149.325 68.7572 149.174 69.1665C149.024 69.5759 148.948 70.0175 148.948 70.4915C148.948 70.9654 149.024 71.4055 149.174 71.8118C149.325 72.218 149.557 72.5458 149.871 72.7951C150.185 73.0444 150.585 73.169 151.072 73.169ZM158.829 74.1477C158.188 74.1477 157.627 73.9954 157.144 73.6907C156.663 73.386 156.288 72.9598 156.017 72.4119C155.749 71.8641 155.615 71.224 155.615 70.4915C155.615 69.7528 155.749 69.1081 156.017 68.5572C156.288 68.0063 156.663 67.5785 157.144 67.2738C157.627 66.9691 158.188 66.8168 158.829 66.8168C159.469 66.8168 160.029 66.9691 160.509 67.2738C160.992 67.5785 161.368 68.0063 161.635 68.5572C161.906 69.1081 162.042 69.7528 162.042 70.4915C162.042 71.224 161.906 71.8641 161.635 72.4119C161.368 72.9598 160.992 73.386 160.509 73.6907C160.029 73.9954 159.469 74.1477 158.829 74.1477ZM158.829 73.169C159.315 73.169 159.715 73.0444 160.029 72.7951C160.343 72.5458 160.575 72.218 160.726 71.8118C160.877 71.4055 160.952 70.9654 160.952 70.4915C160.952 70.0175 160.877 69.5759 160.726 69.1665C160.575 68.7572 160.343 68.4264 160.029 68.174C159.715 67.9216 159.315 67.7955 158.829 67.7955C158.342 67.7955 157.942 67.9216 157.628 68.174C157.314 68.4264 157.082 68.7572 156.931 69.1665C156.78 69.5759 156.705 70.0175 156.705 70.4915C156.705 70.9654 156.78 71.4055 156.931 71.8118C157.082 72.218 157.314 72.5458 157.628 72.7951C157.942 73.0444 158.342 73.169 158.829 73.169ZM164.794 64.5455V74H163.705V64.5455H164.794ZM169.873 66.9091V67.8324H166.199V66.9091H169.873ZM167.27 65.2102H168.359V71.9688C168.359 72.2765 168.404 72.5073 168.493 72.6612C168.585 72.812 168.702 72.9136 168.844 72.9659C168.989 73.0152 169.141 73.0398 169.301 73.0398C169.421 73.0398 169.52 73.0336 169.596 73.0213C169.673 73.0059 169.735 72.9936 169.781 72.9844L170.003 73.9631C169.929 73.9908 169.826 74.0185 169.693 74.0462C169.561 74.0769 169.393 74.0923 169.19 74.0923C168.882 74.0923 168.581 74.0262 168.285 73.8938C167.993 73.7615 167.75 73.5599 167.556 73.2891C167.365 73.0182 167.27 72.6766 167.27 72.2642V65.2102ZM171.512 74V66.9091H172.602V74H171.512ZM172.066 65.7273C171.854 65.7273 171.671 65.6549 171.517 65.5103C171.366 65.3656 171.291 65.1918 171.291 64.9886C171.291 64.7855 171.366 64.6116 171.517 64.467C171.671 64.3223 171.854 64.25 172.066 64.25C172.279 64.25 172.46 64.3223 172.611 64.467C172.765 64.6116 172.842 64.7855 172.842 64.9886C172.842 65.1918 172.765 65.3656 172.611 65.5103C172.46 65.6549 172.279 65.7273 172.066 65.7273ZM174.597 76.6591V66.9091H175.65V68.0355H175.779C175.859 67.9124 175.97 67.7554 176.111 67.5646C176.256 67.3707 176.462 67.1984 176.73 67.0476C177.001 66.8937 177.367 66.8168 177.829 66.8168C178.426 66.8168 178.952 66.966 179.408 67.2646C179.863 67.5631 180.219 67.9863 180.474 68.5341C180.729 69.0819 180.857 69.7282 180.857 70.473C180.857 71.224 180.729 71.8749 180.474 72.4258C180.219 72.9736 179.865 73.3983 179.412 73.6999C178.96 73.9985 178.438 74.1477 177.847 74.1477C177.392 74.1477 177.027 74.0723 176.753 73.9215C176.479 73.7676 176.268 73.5937 176.121 73.3999C175.973 73.2029 175.859 73.0398 175.779 72.9105H175.687V76.6591H174.597ZM175.668 70.4545C175.668 70.9901 175.747 71.4625 175.904 71.8718C176.061 72.2781 176.29 72.5966 176.592 72.8274C176.893 73.0552 177.263 73.169 177.7 73.169C178.155 73.169 178.535 73.049 178.84 72.8089C179.148 72.5658 179.378 72.2396 179.532 71.8303C179.689 71.4179 179.768 70.9593 179.768 70.4545C179.768 69.956 179.691 69.5066 179.537 69.1065C179.386 68.7034 179.157 68.3848 178.849 68.1509C178.544 67.9139 178.161 67.7955 177.7 67.7955C177.256 67.7955 176.884 67.9078 176.582 68.1325C176.281 68.354 176.053 68.6649 175.899 69.065C175.745 69.462 175.668 69.9252 175.668 70.4545Z" fill="white"/>
</g>
<path d="M94.0568 127V118.273H97.0057C97.6903 118.273 98.25 118.396 98.6847 118.643C99.1222 118.888 99.446 119.219 99.6562 119.636C99.8665 120.054 99.9716 120.52 99.9716 121.034C99.9716 121.548 99.8665 122.016 99.6562 122.436C99.4489 122.857 99.1278 123.192 98.6932 123.442C98.2585 123.689 97.7017 123.812 97.0227 123.812H94.9091V122.875H96.9886C97.4574 122.875 97.8338 122.794 98.1179 122.632C98.402 122.47 98.608 122.251 98.7358 121.976C98.8665 121.697 98.9318 121.384 98.9318 121.034C98.9318 120.685 98.8665 120.372 98.7358 120.097C98.608 119.821 98.4006 119.605 98.1136 119.449C97.8267 119.29 97.446 119.21 96.9716 119.21H95.1136V127H94.0568ZM104.126 127.136C103.536 127.136 103.017 126.996 102.571 126.714C102.128 126.433 101.781 126.04 101.531 125.534C101.284 125.028 101.161 124.437 101.161 123.761C101.161 123.08 101.284 122.484 101.531 121.976C101.781 121.467 102.128 121.072 102.571 120.791C103.017 120.51 103.536 120.369 104.126 120.369C104.717 120.369 105.234 120.51 105.678 120.791C106.124 121.072 106.47 121.467 106.717 121.976C106.967 122.484 107.092 123.08 107.092 123.761C107.092 124.437 106.967 125.028 106.717 125.534C106.47 126.04 106.124 126.433 105.678 126.714C105.234 126.996 104.717 127.136 104.126 127.136ZM104.126 126.233C104.575 126.233 104.945 126.118 105.234 125.888C105.524 125.658 105.739 125.355 105.878 124.98C106.017 124.605 106.087 124.199 106.087 123.761C106.087 123.324 106.017 122.916 105.878 122.538C105.739 122.161 105.524 121.855 105.234 121.622C104.945 121.389 104.575 121.273 104.126 121.273C103.678 121.273 103.308 121.389 103.018 121.622C102.729 121.855 102.514 122.161 102.375 122.538C102.236 122.916 102.166 123.324 102.166 123.761C102.166 124.199 102.236 124.605 102.375 124.98C102.514 125.355 102.729 125.658 103.018 125.888C103.308 126.118 103.678 126.233 104.126 126.233ZM113.264 121.92L112.36 122.176C112.304 122.026 112.22 121.879 112.109 121.737C112.001 121.592 111.853 121.473 111.666 121.379C111.478 121.286 111.238 121.239 110.946 121.239C110.545 121.239 110.211 121.331 109.944 121.516C109.68 121.697 109.548 121.929 109.548 122.21C109.548 122.46 109.639 122.658 109.821 122.803C110.002 122.947 110.287 123.068 110.673 123.165L111.645 123.403C112.23 123.545 112.666 123.763 112.953 124.055C113.24 124.345 113.383 124.719 113.383 125.176C113.383 125.551 113.275 125.886 113.059 126.182C112.846 126.477 112.548 126.71 112.164 126.881C111.781 127.051 111.335 127.136 110.826 127.136C110.159 127.136 109.606 126.991 109.169 126.702C108.731 126.412 108.454 125.989 108.338 125.432L109.292 125.193C109.383 125.545 109.555 125.81 109.808 125.986C110.064 126.162 110.397 126.25 110.809 126.25C111.278 126.25 111.65 126.151 111.926 125.952C112.204 125.75 112.343 125.509 112.343 125.227C112.343 125 112.264 124.81 112.105 124.656C111.946 124.5 111.701 124.384 111.372 124.307L110.281 124.051C109.681 123.909 109.241 123.689 108.96 123.391C108.681 123.089 108.542 122.713 108.542 122.261C108.542 121.892 108.646 121.565 108.853 121.281C109.064 120.997 109.349 120.774 109.71 120.612C110.074 120.45 110.485 120.369 110.946 120.369C111.593 120.369 112.102 120.511 112.471 120.795C112.843 121.08 113.108 121.455 113.264 121.92ZM114.897 127V120.455H115.903V127H114.897ZM115.408 119.364C115.212 119.364 115.043 119.297 114.901 119.163C114.762 119.03 114.692 118.869 114.692 118.682C114.692 118.494 114.762 118.334 114.901 118.2C115.043 118.067 115.212 118 115.408 118C115.604 118 115.772 118.067 115.911 118.2C116.053 118.334 116.124 118.494 116.124 118.682C116.124 118.869 116.053 119.03 115.911 119.163C115.772 119.297 115.604 119.364 115.408 119.364ZM120.591 120.455V121.307H117.199V120.455H120.591ZM118.188 118.886H119.194V125.125C119.194 125.409 119.235 125.622 119.317 125.764C119.402 125.903 119.51 125.997 119.641 126.045C119.775 126.091 119.915 126.114 120.063 126.114C120.174 126.114 120.265 126.108 120.336 126.097C120.407 126.082 120.463 126.071 120.506 126.062L120.711 126.966C120.642 126.991 120.547 127.017 120.425 127.043C120.303 127.071 120.148 127.085 119.961 127.085C119.676 127.085 119.398 127.024 119.125 126.902C118.855 126.78 118.631 126.594 118.452 126.344C118.276 126.094 118.188 125.778 118.188 125.398V118.886ZM122.104 127V120.455H123.11V127H122.104ZM122.615 119.364C122.419 119.364 122.25 119.297 122.108 119.163C121.969 119.03 121.9 118.869 121.9 118.682C121.9 118.494 121.969 118.334 122.108 118.2C122.25 118.067 122.419 118 122.615 118C122.811 118 122.979 118.067 123.118 118.2C123.26 118.334 123.331 118.494 123.331 118.682C123.331 118.869 123.26 119.03 123.118 119.163C122.979 119.297 122.811 119.364 122.615 119.364ZM127.611 127.136C127.02 127.136 126.501 126.996 126.055 126.714C125.612 126.433 125.266 126.04 125.016 125.534C124.768 125.028 124.645 124.437 124.645 123.761C124.645 123.08 124.768 122.484 125.016 121.976C125.266 121.467 125.612 121.072 126.055 120.791C126.501 120.51 127.02 120.369 127.611 120.369C128.202 120.369 128.719 120.51 129.162 120.791C129.608 121.072 129.955 121.467 130.202 121.976C130.452 122.484 130.577 123.08 130.577 123.761C130.577 124.437 130.452 125.028 130.202 125.534C129.955 126.04 129.608 126.433 129.162 126.714C128.719 126.996 128.202 127.136 127.611 127.136ZM127.611 126.233C128.06 126.233 128.429 126.118 128.719 125.888C129.009 125.658 129.223 125.355 129.362 124.98C129.501 124.605 129.571 124.199 129.571 123.761C129.571 123.324 129.501 122.916 129.362 122.538C129.223 122.161 129.009 121.855 128.719 121.622C128.429 121.389 128.06 121.273 127.611 121.273C127.162 121.273 126.793 121.389 126.503 121.622C126.213 121.855 125.999 122.161 125.859 122.538C125.72 122.916 125.651 123.324 125.651 123.761C125.651 124.199 125.72 124.605 125.859 124.98C125.999 125.355 126.213 125.658 126.503 125.888C126.793 126.118 127.162 126.233 127.611 126.233ZM133.118 123.062V127H132.112V120.455H133.083V121.477H133.169C133.322 121.145 133.555 120.878 133.868 120.676C134.18 120.472 134.583 120.369 135.078 120.369C135.521 120.369 135.909 120.46 136.241 120.642C136.574 120.821 136.832 121.094 137.017 121.46C137.201 121.824 137.294 122.284 137.294 122.841V127H136.288V122.909C136.288 122.395 136.154 121.994 135.887 121.707C135.62 121.418 135.254 121.273 134.788 121.273C134.467 121.273 134.18 121.342 133.927 121.482C133.677 121.621 133.48 121.824 133.335 122.091C133.19 122.358 133.118 122.682 133.118 123.062ZM139.864 127.068C139.654 127.068 139.474 126.993 139.323 126.842C139.173 126.692 139.097 126.511 139.097 126.301C139.097 126.091 139.173 125.911 139.323 125.76C139.474 125.609 139.654 125.534 139.864 125.534C140.075 125.534 140.255 125.609 140.406 125.76C140.556 125.911 140.631 126.091 140.631 126.301C140.631 126.44 140.596 126.568 140.525 126.685C140.457 126.801 140.364 126.895 140.248 126.966C140.134 127.034 140.006 127.068 139.864 127.068ZM139.864 122.21C139.654 122.21 139.474 122.135 139.323 121.984C139.173 121.834 139.097 121.653 139.097 121.443C139.097 121.233 139.173 121.053 139.323 120.902C139.474 120.751 139.654 120.676 139.864 120.676C140.075 120.676 140.255 120.751 140.406 120.902C140.556 121.053 140.631 121.233 140.631 121.443C140.631 121.582 140.596 121.71 140.525 121.827C140.457 121.943 140.364 122.037 140.248 122.108C140.134 122.176 140.006 122.21 139.864 122.21ZM152.868 118.273V127H151.845L147.089 120.148H147.004V127H145.947V118.273H146.97L151.743 125.142H151.828V118.273H152.868ZM157.505 127.136C156.914 127.136 156.396 126.996 155.95 126.714C155.507 126.433 155.16 126.04 154.91 125.534C154.663 125.028 154.539 124.437 154.539 123.761C154.539 123.08 154.663 122.484 154.91 121.976C155.16 121.467 155.507 121.072 155.95 120.791C156.396 120.51 156.914 120.369 157.505 120.369C158.096 120.369 158.613 120.51 159.056 120.791C159.502 121.072 159.849 121.467 160.096 121.976C160.346 122.484 160.471 123.08 160.471 123.761C160.471 124.437 160.346 125.028 160.096 125.534C159.849 126.04 159.502 126.433 159.056 126.714C158.613 126.996 158.096 127.136 157.505 127.136ZM157.505 126.233C157.954 126.233 158.324 126.118 158.613 125.888C158.903 125.658 159.118 125.355 159.257 124.98C159.396 124.605 159.466 124.199 159.466 123.761C159.466 123.324 159.396 122.916 159.257 122.538C159.118 122.161 158.903 121.855 158.613 121.622C158.324 121.389 157.954 121.273 157.505 121.273C157.056 121.273 156.687 121.389 156.397 121.622C156.108 121.855 155.893 122.161 155.754 122.538C155.615 122.916 155.545 123.324 155.545 123.761C155.545 124.199 155.615 124.605 155.754 124.98C155.893 125.355 156.108 125.658 156.397 125.888C156.687 126.118 157.056 126.233 157.505 126.233ZM163.012 123.062V127H162.006V120.455H162.978V121.477H163.063C163.217 121.145 163.45 120.878 163.762 120.676C164.075 120.472 164.478 120.369 164.972 120.369C165.415 120.369 165.803 120.46 166.136 120.642C166.468 120.821 166.727 121.094 166.911 121.46C167.096 121.824 167.188 122.284 167.188 122.841V127H166.183V122.909C166.183 122.395 166.049 121.994 165.782 121.707C165.515 121.418 165.148 121.273 164.683 121.273C164.362 121.273 164.075 121.342 163.822 121.482C163.572 121.621 163.374 121.824 163.229 122.091C163.085 122.358 163.012 122.682 163.012 123.062ZM171.77 127.136C171.14 127.136 170.596 126.997 170.138 126.719C169.684 126.438 169.333 126.045 169.086 125.543C168.841 125.037 168.719 124.449 168.719 123.778C168.719 123.108 168.841 122.517 169.086 122.006C169.333 121.491 169.676 121.091 170.117 120.804C170.56 120.514 171.077 120.369 171.668 120.369C172.009 120.369 172.346 120.426 172.678 120.54C173.01 120.653 173.313 120.838 173.586 121.094C173.858 121.347 174.076 121.682 174.238 122.099C174.4 122.517 174.48 123.031 174.48 123.642V124.068H169.435V123.199H173.458C173.458 122.83 173.384 122.5 173.236 122.21C173.091 121.92 172.884 121.692 172.614 121.524C172.347 121.357 172.032 121.273 171.668 121.273C171.267 121.273 170.921 121.372 170.628 121.571C170.338 121.767 170.115 122.023 169.959 122.338C169.803 122.653 169.725 122.991 169.725 123.352V123.932C169.725 124.426 169.81 124.845 169.98 125.189C170.154 125.53 170.394 125.79 170.701 125.969C171.007 126.145 171.364 126.233 171.77 126.233C172.034 126.233 172.273 126.196 172.486 126.122C172.702 126.045 172.888 125.932 173.044 125.781C173.201 125.628 173.321 125.437 173.407 125.21L174.378 125.483C174.276 125.812 174.104 126.102 173.863 126.352C173.621 126.599 173.323 126.793 172.968 126.932C172.613 127.068 172.213 127.136 171.77 127.136Z" fill="black"/>
<g filter="url(#filter1_dd_380_24050)">
<rect x="254" y="53" width="118" height="32" rx="8" fill="white"/>
<path d="M267.106 65.5611V64.5455H274.197V65.5611H271.224V74H270.079V65.5611H267.106ZM276.905 69.7344V74H275.816V64.5455H276.905V68.017H276.998C277.164 67.6508 277.413 67.36 277.746 67.1445C278.081 66.926 278.527 66.8168 279.084 66.8168C279.568 66.8168 279.991 66.9137 280.354 67.1076C280.717 67.2984 280.999 67.5923 281.199 67.9893C281.402 68.3833 281.504 68.8849 281.504 69.4943V74H280.414V69.5682C280.414 69.005 280.268 68.5695 279.975 68.2617C279.686 67.9509 279.285 67.7955 278.771 67.7955C278.414 67.7955 278.093 67.8709 277.81 68.0217C277.53 68.1725 277.309 68.3925 277.146 68.6818C276.986 68.9711 276.905 69.322 276.905 69.7344ZM283.497 74V66.9091H284.586V74H283.497ZM284.051 65.7273C283.838 65.7273 283.655 65.6549 283.501 65.5103C283.35 65.3656 283.275 65.1918 283.275 64.9886C283.275 64.7855 283.35 64.6116 283.501 64.467C283.655 64.3223 283.838 64.25 284.051 64.25C284.263 64.25 284.445 64.3223 284.595 64.467C284.749 64.6116 284.826 64.7855 284.826 64.9886C284.826 65.1918 284.749 65.3656 284.595 65.5103C284.445 65.6549 284.263 65.7273 284.051 65.7273ZM291.604 68.4972L290.626 68.7741C290.564 68.611 290.473 68.4525 290.353 68.2987C290.236 68.1417 290.076 68.0124 289.873 67.9109C289.67 67.8093 289.41 67.7585 289.093 67.7585C288.659 67.7585 288.297 67.8585 288.008 68.0586C287.722 68.2556 287.579 68.5064 287.579 68.8111C287.579 69.0819 287.677 69.2958 287.874 69.4528C288.071 69.6097 288.379 69.7405 288.798 69.8452L289.85 70.1037C290.484 70.2576 290.957 70.493 291.267 70.81C291.578 71.1239 291.734 71.5286 291.734 72.0241C291.734 72.4304 291.617 72.7936 291.383 73.1136C291.152 73.4337 290.829 73.6861 290.413 73.8707C289.998 74.0554 289.515 74.1477 288.964 74.1477C288.24 74.1477 287.642 73.9908 287.168 73.6768C286.694 73.3629 286.394 72.9044 286.268 72.3011L287.302 72.0426C287.4 72.4242 287.586 72.7105 287.86 72.9013C288.137 73.0921 288.499 73.1875 288.945 73.1875C289.453 73.1875 289.856 73.0798 290.155 72.8643C290.456 72.6458 290.607 72.3842 290.607 72.0795C290.607 71.8333 290.521 71.6271 290.349 71.4609C290.176 71.2917 289.912 71.1655 289.555 71.0824L288.373 70.8054C287.723 70.6515 287.246 70.413 286.942 70.0898C286.64 69.7636 286.489 69.3558 286.489 68.8665C286.489 68.4664 286.602 68.1125 286.826 67.8047C287.054 67.4969 287.363 67.2553 287.754 67.0799C288.148 66.9045 288.594 66.8168 289.093 66.8168C289.795 66.8168 290.346 66.9706 290.746 67.2784C291.149 67.5862 291.435 67.9924 291.604 68.4972ZM297.03 74V66.9091H298.119V74H297.03ZM297.584 65.7273C297.371 65.7273 297.188 65.6549 297.034 65.5103C296.884 65.3656 296.808 65.1918 296.808 64.9886C296.808 64.7855 296.884 64.6116 297.034 64.467C297.188 64.3223 297.371 64.25 297.584 64.25C297.796 64.25 297.978 64.3223 298.129 64.467C298.282 64.6116 298.359 64.7855 298.359 64.9886C298.359 65.1918 298.282 65.3656 298.129 65.5103C297.978 65.6549 297.796 65.7273 297.584 65.7273ZM305.138 68.4972L304.159 68.7741C304.097 68.611 304.007 68.4525 303.886 68.2987C303.77 68.1417 303.61 68.0124 303.406 67.9109C303.203 67.8093 302.943 67.7585 302.626 67.7585C302.192 67.7585 301.831 67.8585 301.541 68.0586C301.255 68.2556 301.112 68.5064 301.112 68.8111C301.112 69.0819 301.21 69.2958 301.407 69.4528C301.604 69.6097 301.912 69.7405 302.331 69.8452L303.383 70.1037C304.017 70.2576 304.49 70.493 304.801 70.81C305.111 71.1239 305.267 71.5286 305.267 72.0241C305.267 72.4304 305.15 72.7936 304.916 73.1136C304.685 73.4337 304.362 73.6861 303.947 73.8707C303.531 74.0554 303.048 74.1477 302.497 74.1477C301.774 74.1477 301.175 73.9908 300.701 73.6768C300.227 73.3629 299.927 72.9044 299.801 72.3011L300.835 72.0426C300.933 72.4242 301.12 72.7105 301.394 72.9013C301.671 73.0921 302.032 73.1875 302.478 73.1875C302.986 73.1875 303.389 73.0798 303.688 72.8643C303.99 72.6458 304.14 72.3842 304.14 72.0795C304.14 71.8333 304.054 71.6271 303.882 71.4609C303.71 71.2917 303.445 71.1655 303.088 71.0824L301.906 70.8054C301.257 70.6515 300.78 70.413 300.475 70.0898C300.173 69.7636 300.023 69.3558 300.023 68.8665C300.023 68.4664 300.135 68.1125 300.36 67.8047C300.587 67.4969 300.897 67.2553 301.287 67.0799C301.681 66.9045 302.128 66.8168 302.626 66.8168C303.328 66.8168 303.879 66.9706 304.279 67.2784C304.682 67.5862 304.968 67.9924 305.138 68.4972ZM312.65 74.1662C312.2 74.1662 311.793 74.0816 311.426 73.9123C311.06 73.7399 310.769 73.4922 310.554 73.169C310.338 72.8428 310.231 72.4489 310.231 71.9872C310.231 71.581 310.311 71.2517 310.471 70.9993C310.631 70.7438 310.845 70.5438 311.112 70.3991C311.38 70.2545 311.676 70.1468 311.999 70.076C312.325 70.0021 312.653 69.9437 312.982 69.9006C313.413 69.8452 313.762 69.8036 314.03 69.7759C314.301 69.7451 314.498 69.6944 314.621 69.6236C314.747 69.5528 314.81 69.4297 314.81 69.2543V69.2173C314.81 68.7618 314.686 68.4079 314.436 68.1555C314.19 67.9032 313.816 67.777 313.314 67.777C312.794 67.777 312.387 67.8909 312.091 68.1186C311.796 68.3464 311.588 68.5895 311.468 68.848L310.434 68.4787C310.618 68.0478 310.865 67.7124 311.172 67.4723C311.483 67.2292 311.822 67.0599 312.188 66.9645C312.557 66.866 312.921 66.8168 313.278 66.8168C313.505 66.8168 313.767 66.8445 314.062 66.8999C314.361 66.9522 314.649 67.0614 314.926 67.2276C315.206 67.3938 315.438 67.6446 315.623 67.9801C315.807 68.3156 315.9 68.7649 315.9 69.3281V74H314.81V73.0398H314.755C314.681 73.1937 314.558 73.3583 314.386 73.5337C314.213 73.7092 313.984 73.8584 313.698 73.9815C313.411 74.1046 313.062 74.1662 312.65 74.1662ZM312.816 73.1875C313.247 73.1875 313.61 73.1029 313.905 72.9336C314.204 72.7643 314.429 72.5458 314.579 72.2781C314.733 72.0103 314.81 71.7287 314.81 71.4332V70.4361C314.764 70.4915 314.663 70.5423 314.506 70.5884C314.352 70.6315 314.173 70.67 313.97 70.7038C313.77 70.7346 313.575 70.7623 313.384 70.7869C313.196 70.8085 313.044 70.8269 312.927 70.8423C312.644 70.8793 312.379 70.9393 312.133 71.0224C311.89 71.1024 311.693 71.224 311.542 71.3871C311.394 71.5471 311.32 71.7656 311.32 72.0426C311.32 72.4212 311.46 72.7074 311.74 72.9013C312.023 73.0921 312.382 73.1875 312.816 73.1875ZM324.628 66.9091V67.8324H320.954V66.9091H324.628ZM322.025 65.2102H323.114V71.9688C323.114 72.2765 323.159 72.5073 323.248 72.6612C323.34 72.812 323.457 72.9136 323.599 72.9659C323.744 73.0152 323.896 73.0398 324.056 73.0398C324.176 73.0398 324.274 73.0336 324.351 73.0213C324.428 73.0059 324.49 72.9936 324.536 72.9844L324.758 73.9631C324.684 73.9908 324.581 74.0185 324.448 74.0462C324.316 74.0769 324.148 74.0923 323.945 74.0923C323.637 74.0923 323.336 74.0262 323.04 73.8938C322.748 73.7615 322.505 73.5599 322.311 73.2891C322.12 73.0182 322.025 72.6766 322.025 72.2642V65.2102ZM329.072 74.1477C328.432 74.1477 327.87 73.9954 327.387 73.6907C326.907 73.386 326.531 72.9598 326.26 72.4119C325.992 71.8641 325.859 71.224 325.859 70.4915C325.859 69.7528 325.992 69.1081 326.26 68.5572C326.531 68.0063 326.907 67.5785 327.387 67.2738C327.87 66.9691 328.432 66.8168 329.072 66.8168C329.712 66.8168 330.272 66.9691 330.752 67.2738C331.235 67.5785 331.611 68.0063 331.879 68.5572C332.149 69.1081 332.285 69.7528 332.285 70.4915C332.285 71.224 332.149 71.8641 331.879 72.4119C331.611 72.9598 331.235 73.386 330.752 73.6907C330.272 73.9954 329.712 74.1477 329.072 74.1477ZM329.072 73.169C329.558 73.169 329.958 73.0444 330.272 72.7951C330.586 72.5458 330.818 72.218 330.969 71.8118C331.12 71.4055 331.195 70.9654 331.195 70.4915C331.195 70.0175 331.12 69.5759 330.969 69.1665C330.818 68.7572 330.586 68.4264 330.272 68.174C329.958 67.9216 329.558 67.7955 329.072 67.7955C328.585 67.7955 328.185 67.9216 327.871 68.174C327.557 68.4264 327.325 68.7572 327.174 69.1665C327.024 69.5759 326.948 70.0175 326.948 70.4915C326.948 70.9654 327.024 71.4055 327.174 71.8118C327.325 72.218 327.557 72.5458 327.871 72.7951C328.185 73.0444 328.585 73.169 329.072 73.169ZM336.829 74.1477C336.188 74.1477 335.627 73.9954 335.144 73.6907C334.663 73.386 334.288 72.9598 334.017 72.4119C333.749 71.8641 333.615 71.224 333.615 70.4915C333.615 69.7528 333.749 69.1081 334.017 68.5572C334.288 68.0063 334.663 67.5785 335.144 67.2738C335.627 66.9691 336.188 66.8168 336.829 66.8168C337.469 66.8168 338.029 66.9691 338.509 67.2738C338.992 67.5785 339.368 68.0063 339.635 68.5572C339.906 69.1081 340.042 69.7528 340.042 70.4915C340.042 71.224 339.906 71.8641 339.635 72.4119C339.368 72.9598 338.992 73.386 338.509 73.6907C338.029 73.9954 337.469 74.1477 336.829 74.1477ZM336.829 73.169C337.315 73.169 337.715 73.0444 338.029 72.7951C338.343 72.5458 338.575 72.218 338.726 71.8118C338.877 71.4055 338.952 70.9654 338.952 70.4915C338.952 70.0175 338.877 69.5759 338.726 69.1665C338.575 68.7572 338.343 68.4264 338.029 68.174C337.715 67.9216 337.315 67.7955 336.829 67.7955C336.342 67.7955 335.942 67.9216 335.628 68.174C335.314 68.4264 335.082 68.7572 334.931 69.1665C334.78 69.5759 334.705 70.0175 334.705 70.4915C334.705 70.9654 334.78 71.4055 334.931 71.8118C335.082 72.218 335.314 72.5458 335.628 72.7951C335.942 73.0444 336.342 73.169 336.829 73.169ZM342.794 64.5455V74H341.705V64.5455H342.794ZM347.873 66.9091V67.8324H344.199V66.9091H347.873ZM345.27 65.2102H346.359V71.9688C346.359 72.2765 346.404 72.5073 346.493 72.6612C346.585 72.812 346.702 72.9136 346.844 72.9659C346.989 73.0152 347.141 73.0398 347.301 73.0398C347.421 73.0398 347.52 73.0336 347.596 73.0213C347.673 73.0059 347.735 72.9936 347.781 72.9844L348.003 73.9631C347.929 73.9908 347.826 74.0185 347.693 74.0462C347.561 74.0769 347.393 74.0923 347.19 74.0923C346.882 74.0923 346.581 74.0262 346.285 73.8938C345.993 73.7615 345.75 73.5599 345.556 73.2891C345.365 73.0182 345.27 72.6766 345.27 72.2642V65.2102ZM349.512 74V66.9091H350.602V74H349.512ZM350.066 65.7273C349.854 65.7273 349.671 65.6549 349.517 65.5103C349.366 65.3656 349.291 65.1918 349.291 64.9886C349.291 64.7855 349.366 64.6116 349.517 64.467C349.671 64.3223 349.854 64.25 350.066 64.25C350.279 64.25 350.46 64.3223 350.611 64.467C350.765 64.6116 350.842 64.7855 350.842 64.9886C350.842 65.1918 350.765 65.3656 350.611 65.5103C350.46 65.6549 350.279 65.7273 350.066 65.7273ZM352.597 76.6591V66.9091H353.65V68.0355H353.779C353.859 67.9124 353.97 67.7554 354.111 67.5646C354.256 67.3707 354.462 67.1984 354.73 67.0476C355.001 66.8937 355.367 66.8168 355.829 66.8168C356.426 66.8168 356.952 66.966 357.408 67.2646C357.863 67.5631 358.219 67.9863 358.474 68.5341C358.729 69.0819 358.857 69.7282 358.857 70.473C358.857 71.224 358.729 71.8749 358.474 72.4258C358.219 72.9736 357.865 73.3983 357.412 73.6999C356.96 73.9985 356.438 74.1477 355.847 74.1477C355.392 74.1477 355.027 74.0723 354.753 73.9215C354.479 73.7676 354.268 73.5937 354.121 73.3999C353.973 73.2029 353.859 73.0398 353.779 72.9105H353.687V76.6591H352.597ZM353.668 70.4545C353.668 70.9901 353.747 71.4625 353.904 71.8718C354.061 72.2781 354.29 72.5966 354.592 72.8274C354.893 73.0552 355.263 73.169 355.7 73.169C356.155 73.169 356.535 73.049 356.84 72.8089C357.148 72.5658 357.378 72.2396 357.532 71.8303C357.689 71.4179 357.768 70.9593 357.768 70.4545C357.768 69.956 357.691 69.5066 357.537 69.1065C357.386 68.7034 357.157 68.3848 356.849 68.1509C356.544 67.9139 356.161 67.7955 355.7 67.7955C355.256 67.7955 354.884 67.9078 354.582 68.1325C354.281 68.354 354.053 68.6649 353.899 69.065C353.745 69.462 353.668 69.9252 353.668 70.4545Z" fill="#344054"/>
</g>
<path d="M272.057 127V118.273H275.006C275.69 118.273 276.25 118.396 276.685 118.643C277.122 118.888 277.446 119.219 277.656 119.636C277.866 120.054 277.972 120.52 277.972 121.034C277.972 121.548 277.866 122.016 277.656 122.436C277.449 122.857 277.128 123.192 276.693 123.442C276.259 123.689 275.702 123.812 275.023 123.812H272.909V122.875H274.989C275.457 122.875 275.834 122.794 276.118 122.632C276.402 122.47 276.608 122.251 276.736 121.976C276.866 121.697 276.932 121.384 276.932 121.034C276.932 120.685 276.866 120.372 276.736 120.097C276.608 119.821 276.401 119.605 276.114 119.449C275.827 119.29 275.446 119.21 274.972 119.21H273.114V127H272.057ZM282.126 127.136C281.536 127.136 281.017 126.996 280.571 126.714C280.128 126.433 279.781 126.04 279.531 125.534C279.284 125.028 279.161 124.437 279.161 123.761C279.161 123.08 279.284 122.484 279.531 121.976C279.781 121.467 280.128 121.072 280.571 120.791C281.017 120.51 281.536 120.369 282.126 120.369C282.717 120.369 283.234 120.51 283.678 120.791C284.124 121.072 284.47 121.467 284.717 121.976C284.967 122.484 285.092 123.08 285.092 123.761C285.092 124.437 284.967 125.028 284.717 125.534C284.47 126.04 284.124 126.433 283.678 126.714C283.234 126.996 282.717 127.136 282.126 127.136ZM282.126 126.233C282.575 126.233 282.945 126.118 283.234 125.888C283.524 125.658 283.739 125.355 283.878 124.98C284.017 124.605 284.087 124.199 284.087 123.761C284.087 123.324 284.017 122.916 283.878 122.538C283.739 122.161 283.524 121.855 283.234 121.622C282.945 121.389 282.575 121.273 282.126 121.273C281.678 121.273 281.308 121.389 281.018 121.622C280.729 121.855 280.514 122.161 280.375 122.538C280.236 122.916 280.166 123.324 280.166 123.761C280.166 124.199 280.236 124.605 280.375 124.98C280.514 125.355 280.729 125.658 281.018 125.888C281.308 126.118 281.678 126.233 282.126 126.233ZM291.264 121.92L290.36 122.176C290.304 122.026 290.22 121.879 290.109 121.737C290.001 121.592 289.853 121.473 289.666 121.379C289.478 121.286 289.238 121.239 288.946 121.239C288.545 121.239 288.211 121.331 287.944 121.516C287.68 121.697 287.548 121.929 287.548 122.21C287.548 122.46 287.639 122.658 287.821 122.803C288.002 122.947 288.287 123.068 288.673 123.165L289.645 123.403C290.23 123.545 290.666 123.763 290.953 124.055C291.24 124.345 291.383 124.719 291.383 125.176C291.383 125.551 291.275 125.886 291.059 126.182C290.846 126.477 290.548 126.71 290.164 126.881C289.781 127.051 289.335 127.136 288.826 127.136C288.159 127.136 287.606 126.991 287.169 126.702C286.731 126.412 286.454 125.989 286.338 125.432L287.292 125.193C287.383 125.545 287.555 125.81 287.808 125.986C288.064 126.162 288.397 126.25 288.809 126.25C289.278 126.25 289.65 126.151 289.926 125.952C290.204 125.75 290.343 125.509 290.343 125.227C290.343 125 290.264 124.81 290.105 124.656C289.946 124.5 289.701 124.384 289.372 124.307L288.281 124.051C287.681 123.909 287.241 123.689 286.96 123.391C286.681 123.089 286.542 122.713 286.542 122.261C286.542 121.892 286.646 121.565 286.853 121.281C287.064 120.997 287.349 120.774 287.71 120.612C288.074 120.45 288.485 120.369 288.946 120.369C289.593 120.369 290.102 120.511 290.471 120.795C290.843 121.08 291.108 121.455 291.264 121.92ZM292.897 127V120.455H293.903V127H292.897ZM293.408 119.364C293.212 119.364 293.043 119.297 292.901 119.163C292.762 119.03 292.692 118.869 292.692 118.682C292.692 118.494 292.762 118.334 292.901 118.2C293.043 118.067 293.212 118 293.408 118C293.604 118 293.772 118.067 293.911 118.2C294.053 118.334 294.124 118.494 294.124 118.682C294.124 118.869 294.053 119.03 293.911 119.163C293.772 119.297 293.604 119.364 293.408 119.364ZM298.591 120.455V121.307H295.199V120.455H298.591ZM296.188 118.886H297.194V125.125C297.194 125.409 297.235 125.622 297.317 125.764C297.402 125.903 297.51 125.997 297.641 126.045C297.775 126.091 297.915 126.114 298.063 126.114C298.174 126.114 298.265 126.108 298.336 126.097C298.407 126.082 298.463 126.071 298.506 126.062L298.711 126.966C298.642 126.991 298.547 127.017 298.425 127.043C298.303 127.071 298.148 127.085 297.961 127.085C297.676 127.085 297.398 127.024 297.125 126.902C296.855 126.78 296.631 126.594 296.452 126.344C296.276 126.094 296.188 125.778 296.188 125.398V118.886ZM300.104 127V120.455H301.11V127H300.104ZM300.615 119.364C300.419 119.364 300.25 119.297 300.108 119.163C299.969 119.03 299.9 118.869 299.9 118.682C299.9 118.494 299.969 118.334 300.108 118.2C300.25 118.067 300.419 118 300.615 118C300.811 118 300.979 118.067 301.118 118.2C301.26 118.334 301.331 118.494 301.331 118.682C301.331 118.869 301.26 119.03 301.118 119.163C300.979 119.297 300.811 119.364 300.615 119.364ZM305.611 127.136C305.02 127.136 304.501 126.996 304.055 126.714C303.612 126.433 303.266 126.04 303.016 125.534C302.768 125.028 302.645 124.437 302.645 123.761C302.645 123.08 302.768 122.484 303.016 121.976C303.266 121.467 303.612 121.072 304.055 120.791C304.501 120.51 305.02 120.369 305.611 120.369C306.202 120.369 306.719 120.51 307.162 120.791C307.608 121.072 307.955 121.467 308.202 121.976C308.452 122.484 308.577 123.08 308.577 123.761C308.577 124.437 308.452 125.028 308.202 125.534C307.955 126.04 307.608 126.433 307.162 126.714C306.719 126.996 306.202 127.136 305.611 127.136ZM305.611 126.233C306.06 126.233 306.429 126.118 306.719 125.888C307.009 125.658 307.223 125.355 307.362 124.98C307.501 124.605 307.571 124.199 307.571 123.761C307.571 123.324 307.501 122.916 307.362 122.538C307.223 122.161 307.009 121.855 306.719 121.622C306.429 121.389 306.06 121.273 305.611 121.273C305.162 121.273 304.793 121.389 304.503 121.622C304.213 121.855 303.999 122.161 303.859 122.538C303.72 122.916 303.651 123.324 303.651 123.761C303.651 124.199 303.72 124.605 303.859 124.98C303.999 125.355 304.213 125.658 304.503 125.888C304.793 126.118 305.162 126.233 305.611 126.233ZM311.118 123.062V127H310.112V120.455H311.083V121.477H311.169C311.322 121.145 311.555 120.878 311.868 120.676C312.18 120.472 312.583 120.369 313.078 120.369C313.521 120.369 313.909 120.46 314.241 120.642C314.574 120.821 314.832 121.094 315.017 121.46C315.201 121.824 315.294 122.284 315.294 122.841V127H314.288V122.909C314.288 122.395 314.154 121.994 313.887 121.707C313.62 121.418 313.254 121.273 312.788 121.273C312.467 121.273 312.18 121.342 311.927 121.482C311.677 121.621 311.48 121.824 311.335 122.091C311.19 122.358 311.118 122.682 311.118 123.062ZM317.864 127.068C317.654 127.068 317.474 126.993 317.323 126.842C317.173 126.692 317.097 126.511 317.097 126.301C317.097 126.091 317.173 125.911 317.323 125.76C317.474 125.609 317.654 125.534 317.864 125.534C318.075 125.534 318.255 125.609 318.406 125.76C318.556 125.911 318.631 126.091 318.631 126.301C318.631 126.44 318.596 126.568 318.525 126.685C318.457 126.801 318.364 126.895 318.248 126.966C318.134 127.034 318.006 127.068 317.864 127.068ZM317.864 122.21C317.654 122.21 317.474 122.135 317.323 121.984C317.173 121.834 317.097 121.653 317.097 121.443C317.097 121.233 317.173 121.053 317.323 120.902C317.474 120.751 317.654 120.676 317.864 120.676C318.075 120.676 318.255 120.751 318.406 120.902C318.556 121.053 318.631 121.233 318.631 121.443C318.631 121.582 318.596 121.71 318.525 121.827C318.457 121.943 318.364 122.037 318.248 122.108C318.134 122.176 318.006 122.21 317.864 122.21ZM330.868 118.273V127H329.845L325.089 120.148H325.004V127H323.947V118.273H324.97L329.743 125.142H329.828V118.273H330.868ZM335.505 127.136C334.914 127.136 334.396 126.996 333.95 126.714C333.507 126.433 333.16 126.04 332.91 125.534C332.663 125.028 332.539 124.437 332.539 123.761C332.539 123.08 332.663 122.484 332.91 121.976C333.16 121.467 333.507 121.072 333.95 120.791C334.396 120.51 334.914 120.369 335.505 120.369C336.096 120.369 336.613 120.51 337.056 120.791C337.502 121.072 337.849 121.467 338.096 121.976C338.346 122.484 338.471 123.08 338.471 123.761C338.471 124.437 338.346 125.028 338.096 125.534C337.849 126.04 337.502 126.433 337.056 126.714C336.613 126.996 336.096 127.136 335.505 127.136ZM335.505 126.233C335.954 126.233 336.324 126.118 336.613 125.888C336.903 125.658 337.118 125.355 337.257 124.98C337.396 124.605 337.466 124.199 337.466 123.761C337.466 123.324 337.396 122.916 337.257 122.538C337.118 122.161 336.903 121.855 336.613 121.622C336.324 121.389 335.954 121.273 335.505 121.273C335.056 121.273 334.687 121.389 334.397 121.622C334.108 121.855 333.893 122.161 333.754 122.538C333.615 122.916 333.545 123.324 333.545 123.761C333.545 124.199 333.615 124.605 333.754 124.98C333.893 125.355 334.108 125.658 334.397 125.888C334.687 126.118 335.056 126.233 335.505 126.233ZM341.012 123.062V127H340.006V120.455H340.978V121.477H341.063C341.217 121.145 341.45 120.878 341.762 120.676C342.075 120.472 342.478 120.369 342.972 120.369C343.415 120.369 343.803 120.46 344.136 120.642C344.468 120.821 344.727 121.094 344.911 121.46C345.096 121.824 345.188 122.284 345.188 122.841V127H344.183V122.909C344.183 122.395 344.049 121.994 343.782 121.707C343.515 121.418 343.148 121.273 342.683 121.273C342.362 121.273 342.075 121.342 341.822 121.482C341.572 121.621 341.374 121.824 341.229 122.091C341.085 122.358 341.012 122.682 341.012 123.062ZM349.77 127.136C349.14 127.136 348.596 126.997 348.138 126.719C347.684 126.438 347.333 126.045 347.086 125.543C346.841 125.037 346.719 124.449 346.719 123.778C346.719 123.108 346.841 122.517 347.086 122.006C347.333 121.491 347.676 121.091 348.117 120.804C348.56 120.514 349.077 120.369 349.668 120.369C350.009 120.369 350.346 120.426 350.678 120.54C351.01 120.653 351.313 120.838 351.586 121.094C351.858 121.347 352.076 121.682 352.238 122.099C352.4 122.517 352.48 123.031 352.48 123.642V124.068H347.435V123.199H351.458C351.458 122.83 351.384 122.5 351.236 122.21C351.091 121.92 350.884 121.692 350.614 121.524C350.347 121.357 350.032 121.273 349.668 121.273C349.267 121.273 348.921 121.372 348.628 121.571C348.338 121.767 348.115 122.023 347.959 122.338C347.803 122.653 347.725 122.991 347.725 123.352V123.932C347.725 124.426 347.81 124.845 347.98 125.189C348.154 125.53 348.394 125.79 348.701 125.969C349.007 126.145 349.364 126.233 349.77 126.233C350.034 126.233 350.273 126.196 350.486 126.122C350.702 126.045 350.888 125.932 351.044 125.781C351.201 125.628 351.321 125.437 351.407 125.21L352.378 125.483C352.276 125.812 352.104 126.102 351.863 126.352C351.621 126.599 351.323 126.793 350.968 126.932C350.613 127.068 350.213 127.136 349.77 127.136Z" fill="black"/>
<g filter="url(#filter2_dd_380_24050)">
<rect x="432" y="50" width="118" height="32" rx="8" fill="white"/>
<path d="M445.106 62.5611V61.5455H452.197V62.5611H449.224V71H448.079V62.5611H445.106ZM454.905 66.7344V71H453.816V61.5455H454.905V65.017H454.998C455.164 64.6508 455.413 64.36 455.746 64.1445C456.081 63.926 456.527 63.8168 457.084 63.8168C457.568 63.8168 457.991 63.9137 458.354 64.1076C458.717 64.2984 458.999 64.5923 459.199 64.9893C459.402 65.3833 459.504 65.8849 459.504 66.4943V71H458.414V66.5682C458.414 66.005 458.268 65.5695 457.975 65.2617C457.686 64.9509 457.285 64.7955 456.771 64.7955C456.414 64.7955 456.093 64.8709 455.81 65.0217C455.53 65.1725 455.309 65.3925 455.146 65.6818C454.986 65.9711 454.905 66.322 454.905 66.7344ZM461.497 71V63.9091H462.586V71H461.497ZM462.051 62.7273C461.838 62.7273 461.655 62.6549 461.501 62.5103C461.35 62.3656 461.275 62.1918 461.275 61.9886C461.275 61.7855 461.35 61.6116 461.501 61.467C461.655 61.3223 461.838 61.25 462.051 61.25C462.263 61.25 462.445 61.3223 462.595 61.467C462.749 61.6116 462.826 61.7855 462.826 61.9886C462.826 62.1918 462.749 62.3656 462.595 62.5103C462.445 62.6549 462.263 62.7273 462.051 62.7273ZM469.604 65.4972L468.626 65.7741C468.564 65.611 468.473 65.4525 468.353 65.2987C468.236 65.1417 468.076 65.0124 467.873 64.9109C467.67 64.8093 467.41 64.7585 467.093 64.7585C466.659 64.7585 466.297 64.8585 466.008 65.0586C465.722 65.2556 465.579 65.5064 465.579 65.8111C465.579 66.0819 465.677 66.2958 465.874 66.4528C466.071 66.6097 466.379 66.7405 466.798 66.8452L467.85 67.1037C468.484 67.2576 468.957 67.493 469.267 67.81C469.578 68.1239 469.734 68.5286 469.734 69.0241C469.734 69.4304 469.617 69.7936 469.383 70.1136C469.152 70.4337 468.829 70.6861 468.413 70.8707C467.998 71.0554 467.515 71.1477 466.964 71.1477C466.24 71.1477 465.642 70.9908 465.168 70.6768C464.694 70.3629 464.394 69.9044 464.268 69.3011L465.302 69.0426C465.4 69.4242 465.586 69.7105 465.86 69.9013C466.137 70.0921 466.499 70.1875 466.945 70.1875C467.453 70.1875 467.856 70.0798 468.155 69.8643C468.456 69.6458 468.607 69.3842 468.607 69.0795C468.607 68.8333 468.521 68.6271 468.349 68.4609C468.176 68.2917 467.912 68.1655 467.555 68.0824L466.373 67.8054C465.723 67.6515 465.246 67.413 464.942 67.0898C464.64 66.7636 464.489 66.3558 464.489 65.8665C464.489 65.4664 464.602 65.1125 464.826 64.8047C465.054 64.4969 465.363 64.2553 465.754 64.0799C466.148 63.9045 466.594 63.8168 467.093 63.8168C467.795 63.8168 468.346 63.9706 468.746 64.2784C469.149 64.5862 469.435 64.9924 469.604 65.4972ZM475.03 71V63.9091H476.119V71H475.03ZM475.584 62.7273C475.371 62.7273 475.188 62.6549 475.034 62.5103C474.884 62.3656 474.808 62.1918 474.808 61.9886C474.808 61.7855 474.884 61.6116 475.034 61.467C475.188 61.3223 475.371 61.25 475.584 61.25C475.796 61.25 475.978 61.3223 476.129 61.467C476.282 61.6116 476.359 61.7855 476.359 61.9886C476.359 62.1918 476.282 62.3656 476.129 62.5103C475.978 62.6549 475.796 62.7273 475.584 62.7273ZM483.138 65.4972L482.159 65.7741C482.097 65.611 482.007 65.4525 481.886 65.2987C481.77 65.1417 481.61 65.0124 481.406 64.9109C481.203 64.8093 480.943 64.7585 480.626 64.7585C480.192 64.7585 479.831 64.8585 479.541 65.0586C479.255 65.2556 479.112 65.5064 479.112 65.8111C479.112 66.0819 479.21 66.2958 479.407 66.4528C479.604 66.6097 479.912 66.7405 480.331 66.8452L481.383 67.1037C482.017 67.2576 482.49 67.493 482.801 67.81C483.111 68.1239 483.267 68.5286 483.267 69.0241C483.267 69.4304 483.15 69.7936 482.916 70.1136C482.685 70.4337 482.362 70.6861 481.947 70.8707C481.531 71.0554 481.048 71.1477 480.497 71.1477C479.774 71.1477 479.175 70.9908 478.701 70.6768C478.227 70.3629 477.927 69.9044 477.801 69.3011L478.835 69.0426C478.933 69.4242 479.12 69.7105 479.394 69.9013C479.671 70.0921 480.032 70.1875 480.478 70.1875C480.986 70.1875 481.389 70.0798 481.688 69.8643C481.99 69.6458 482.14 69.3842 482.14 69.0795C482.14 68.8333 482.054 68.6271 481.882 68.4609C481.71 68.2917 481.445 68.1655 481.088 68.0824L479.906 67.8054C479.257 67.6515 478.78 67.413 478.475 67.0898C478.173 66.7636 478.023 66.3558 478.023 65.8665C478.023 65.4664 478.135 65.1125 478.36 64.8047C478.587 64.4969 478.897 64.2553 479.287 64.0799C479.681 63.9045 480.128 63.8168 480.626 63.8168C481.328 63.8168 481.879 63.9706 482.279 64.2784C482.682 64.5862 482.968 64.9924 483.138 65.4972ZM490.65 71.1662C490.2 71.1662 489.793 71.0816 489.426 70.9123C489.06 70.7399 488.769 70.4922 488.554 70.169C488.338 69.8428 488.231 69.4489 488.231 68.9872C488.231 68.581 488.311 68.2517 488.471 67.9993C488.631 67.7438 488.845 67.5438 489.112 67.3991C489.38 67.2545 489.676 67.1468 489.999 67.076C490.325 67.0021 490.653 66.9437 490.982 66.9006C491.413 66.8452 491.762 66.8036 492.03 66.7759C492.301 66.7451 492.498 66.6944 492.621 66.6236C492.747 66.5528 492.81 66.4297 492.81 66.2543V66.2173C492.81 65.7618 492.686 65.4079 492.436 65.1555C492.19 64.9032 491.816 64.777 491.314 64.777C490.794 64.777 490.387 64.8909 490.091 65.1186C489.796 65.3464 489.588 65.5895 489.468 65.848L488.434 65.4787C488.618 65.0478 488.865 64.7124 489.172 64.4723C489.483 64.2292 489.822 64.0599 490.188 63.9645C490.557 63.866 490.921 63.8168 491.278 63.8168C491.505 63.8168 491.767 63.8445 492.062 63.8999C492.361 63.9522 492.649 64.0614 492.926 64.2276C493.206 64.3938 493.438 64.6446 493.623 64.9801C493.807 65.3156 493.9 65.7649 493.9 66.3281V71H492.81V70.0398H492.755C492.681 70.1937 492.558 70.3583 492.386 70.5337C492.213 70.7092 491.984 70.8584 491.698 70.9815C491.411 71.1046 491.062 71.1662 490.65 71.1662ZM490.816 70.1875C491.247 70.1875 491.61 70.1029 491.905 69.9336C492.204 69.7643 492.429 69.5458 492.579 69.2781C492.733 69.0103 492.81 68.7287 492.81 68.4332V67.4361C492.764 67.4915 492.663 67.5423 492.506 67.5884C492.352 67.6315 492.173 67.67 491.97 67.7038C491.77 67.7346 491.575 67.7623 491.384 67.7869C491.196 67.8085 491.044 67.8269 490.927 67.8423C490.644 67.8793 490.379 67.9393 490.133 68.0224C489.89 68.1024 489.693 68.224 489.542 68.3871C489.394 68.5471 489.32 68.7656 489.32 69.0426C489.32 69.4212 489.46 69.7074 489.74 69.9013C490.023 70.0921 490.382 70.1875 490.816 70.1875ZM502.628 63.9091V64.8324H498.954V63.9091H502.628ZM500.025 62.2102H501.114V68.9688C501.114 69.2765 501.159 69.5073 501.248 69.6612C501.34 69.812 501.457 69.9136 501.599 69.9659C501.744 70.0152 501.896 70.0398 502.056 70.0398C502.176 70.0398 502.274 70.0336 502.351 70.0213C502.428 70.0059 502.49 69.9936 502.536 69.9844L502.758 70.9631C502.684 70.9908 502.581 71.0185 502.448 71.0462C502.316 71.0769 502.148 71.0923 501.945 71.0923C501.637 71.0923 501.336 71.0262 501.04 70.8938C500.748 70.7615 500.505 70.5599 500.311 70.2891C500.12 70.0182 500.025 69.6766 500.025 69.2642V62.2102ZM507.072 71.1477C506.432 71.1477 505.87 70.9954 505.387 70.6907C504.907 70.386 504.531 69.9598 504.26 69.4119C503.992 68.8641 503.859 68.224 503.859 67.4915C503.859 66.7528 503.992 66.1081 504.26 65.5572C504.531 65.0063 504.907 64.5785 505.387 64.2738C505.87 63.9691 506.432 63.8168 507.072 63.8168C507.712 63.8168 508.272 63.9691 508.752 64.2738C509.235 64.5785 509.611 65.0063 509.879 65.5572C510.149 66.1081 510.285 66.7528 510.285 67.4915C510.285 68.224 510.149 68.8641 509.879 69.4119C509.611 69.9598 509.235 70.386 508.752 70.6907C508.272 70.9954 507.712 71.1477 507.072 71.1477ZM507.072 70.169C507.558 70.169 507.958 70.0444 508.272 69.7951C508.586 69.5458 508.818 69.218 508.969 68.8118C509.12 68.4055 509.195 67.9654 509.195 67.4915C509.195 67.0175 509.12 66.5759 508.969 66.1665C508.818 65.7572 508.586 65.4264 508.272 65.174C507.958 64.9216 507.558 64.7955 507.072 64.7955C506.585 64.7955 506.185 64.9216 505.871 65.174C505.557 65.4264 505.325 65.7572 505.174 66.1665C505.024 66.5759 504.948 67.0175 504.948 67.4915C504.948 67.9654 505.024 68.4055 505.174 68.8118C505.325 69.218 505.557 69.5458 505.871 69.7951C506.185 70.0444 506.585 70.169 507.072 70.169ZM514.829 71.1477C514.188 71.1477 513.627 70.9954 513.144 70.6907C512.663 70.386 512.288 69.9598 512.017 69.4119C511.749 68.8641 511.615 68.224 511.615 67.4915C511.615 66.7528 511.749 66.1081 512.017 65.5572C512.288 65.0063 512.663 64.5785 513.144 64.2738C513.627 63.9691 514.188 63.8168 514.829 63.8168C515.469 63.8168 516.029 63.9691 516.509 64.2738C516.992 64.5785 517.368 65.0063 517.635 65.5572C517.906 66.1081 518.042 66.7528 518.042 67.4915C518.042 68.224 517.906 68.8641 517.635 69.4119C517.368 69.9598 516.992 70.386 516.509 70.6907C516.029 70.9954 515.469 71.1477 514.829 71.1477ZM514.829 70.169C515.315 70.169 515.715 70.0444 516.029 69.7951C516.343 69.5458 516.575 69.218 516.726 68.8118C516.877 68.4055 516.952 67.9654 516.952 67.4915C516.952 67.0175 516.877 66.5759 516.726 66.1665C516.575 65.7572 516.343 65.4264 516.029 65.174C515.715 64.9216 515.315 64.7955 514.829 64.7955C514.342 64.7955 513.942 64.9216 513.628 65.174C513.314 65.4264 513.082 65.7572 512.931 66.1665C512.78 66.5759 512.705 67.0175 512.705 67.4915C512.705 67.9654 512.78 68.4055 512.931 68.8118C513.082 69.218 513.314 69.5458 513.628 69.7951C513.942 70.0444 514.342 70.169 514.829 70.169ZM520.794 61.5455V71H519.705V61.5455H520.794ZM525.873 63.9091V64.8324H522.199V63.9091H525.873ZM523.27 62.2102H524.359V68.9688C524.359 69.2765 524.404 69.5073 524.493 69.6612C524.585 69.812 524.702 69.9136 524.844 69.9659C524.989 70.0152 525.141 70.0398 525.301 70.0398C525.421 70.0398 525.52 70.0336 525.596 70.0213C525.673 70.0059 525.735 69.9936 525.781 69.9844L526.003 70.9631C525.929 70.9908 525.826 71.0185 525.693 71.0462C525.561 71.0769 525.393 71.0923 525.19 71.0923C524.882 71.0923 524.581 71.0262 524.285 70.8938C523.993 70.7615 523.75 70.5599 523.556 70.2891C523.365 70.0182 523.27 69.6766 523.27 69.2642V62.2102ZM527.512 71V63.9091H528.602V71H527.512ZM528.066 62.7273C527.854 62.7273 527.671 62.6549 527.517 62.5103C527.366 62.3656 527.291 62.1918 527.291 61.9886C527.291 61.7855 527.366 61.6116 527.517 61.467C527.671 61.3223 527.854 61.25 528.066 61.25C528.279 61.25 528.46 61.3223 528.611 61.467C528.765 61.6116 528.842 61.7855 528.842 61.9886C528.842 62.1918 528.765 62.3656 528.611 62.5103C528.46 62.6549 528.279 62.7273 528.066 62.7273ZM530.597 73.6591V63.9091H531.65V65.0355H531.779C531.859 64.9124 531.97 64.7554 532.111 64.5646C532.256 64.3707 532.462 64.1984 532.73 64.0476C533.001 63.8937 533.367 63.8168 533.829 63.8168C534.426 63.8168 534.952 63.966 535.408 64.2646C535.863 64.5631 536.219 64.9863 536.474 65.5341C536.729 66.0819 536.857 66.7282 536.857 67.473C536.857 68.224 536.729 68.8749 536.474 69.4258C536.219 69.9736 535.865 70.3983 535.412 70.6999C534.96 70.9985 534.438 71.1477 533.847 71.1477C533.392 71.1477 533.027 71.0723 532.753 70.9215C532.479 70.7676 532.268 70.5937 532.121 70.3999C531.973 70.2029 531.859 70.0398 531.779 69.9105H531.687V73.6591H530.597ZM531.668 67.4545C531.668 67.9901 531.747 68.4625 531.904 68.8718C532.061 69.2781 532.29 69.5966 532.592 69.8274C532.893 70.0552 533.263 70.169 533.7 70.169C534.155 70.169 534.535 70.049 534.84 69.8089C535.148 69.5658 535.378 69.2396 535.532 68.8303C535.689 68.4179 535.768 67.9593 535.768 67.4545C535.768 66.956 535.691 66.5066 535.537 66.1065C535.386 65.7034 535.157 65.3848 534.849 65.1509C534.544 64.9139 534.161 64.7955 533.7 64.7955C533.256 64.7955 532.884 64.9078 532.582 65.1325C532.281 65.354 532.053 65.6649 531.899 66.065C531.745 66.462 531.668 66.9252 531.668 67.4545Z" fill="#344054"/>
<path d="M458.071 79.4853C458.962 79.4853 459.408 80.5624 458.778 81.1924L452.707 87.2635C452.317 87.654 451.683 87.654 451.293 87.2635L445.222 81.1924C444.592 80.5624 445.038 79.4853 445.929 79.4853H458.071Z" fill="white"/>
</g>
<path d="M460.057 127V118.273H463.108C463.716 118.273 464.217 118.378 464.612 118.588C465.007 118.795 465.301 119.075 465.494 119.428C465.688 119.777 465.784 120.165 465.784 120.591C465.784 120.966 465.717 121.276 465.584 121.52C465.453 121.764 465.28 121.957 465.064 122.099C464.851 122.241 464.619 122.347 464.369 122.415V122.5C464.636 122.517 464.905 122.611 465.175 122.781C465.445 122.952 465.67 123.196 465.852 123.514C466.034 123.832 466.125 124.222 466.125 124.682C466.125 125.119 466.026 125.513 465.827 125.862C465.628 126.212 465.314 126.489 464.885 126.693C464.456 126.898 463.898 127 463.21 127H460.057ZM461.114 126.062H463.21C463.901 126.062 464.391 125.929 464.68 125.662C464.973 125.392 465.119 125.065 465.119 124.682C465.119 124.386 465.044 124.114 464.893 123.864C464.743 123.611 464.528 123.409 464.25 123.259C463.972 123.105 463.642 123.028 463.261 123.028H461.114V126.062ZM461.114 122.108H463.074C463.392 122.108 463.679 122.045 463.935 121.92C464.193 121.795 464.398 121.619 464.548 121.392C464.702 121.165 464.778 120.898 464.778 120.591C464.778 120.207 464.645 119.882 464.378 119.615C464.111 119.345 463.688 119.21 463.108 119.21H461.114V122.108ZM470.384 127.136C469.793 127.136 469.275 126.996 468.829 126.714C468.386 126.433 468.039 126.04 467.789 125.534C467.542 125.028 467.418 124.437 467.418 123.761C467.418 123.08 467.542 122.484 467.789 121.976C468.039 121.467 468.386 121.072 468.829 120.791C469.275 120.51 469.793 120.369 470.384 120.369C470.975 120.369 471.492 120.51 471.935 120.791C472.381 121.072 472.728 121.467 472.975 121.976C473.225 122.484 473.35 123.08 473.35 123.761C473.35 124.437 473.225 125.028 472.975 125.534C472.728 126.04 472.381 126.433 471.935 126.714C471.492 126.996 470.975 127.136 470.384 127.136ZM470.384 126.233C470.833 126.233 471.202 126.118 471.492 125.888C471.782 125.658 471.996 125.355 472.136 124.98C472.275 124.605 472.344 124.199 472.344 123.761C472.344 123.324 472.275 122.916 472.136 122.538C471.996 122.161 471.782 121.855 471.492 121.622C471.202 121.389 470.833 121.273 470.384 121.273C469.935 121.273 469.566 121.389 469.276 121.622C468.987 121.855 468.772 122.161 468.633 122.538C468.494 122.916 468.424 123.324 468.424 123.761C468.424 124.199 468.494 124.605 468.633 124.98C468.772 125.355 468.987 125.658 469.276 125.888C469.566 126.118 469.935 126.233 470.384 126.233ZM477.732 120.455V121.307H474.34V120.455H477.732ZM475.328 118.886H476.334V125.125C476.334 125.409 476.375 125.622 476.458 125.764C476.543 125.903 476.651 125.997 476.782 126.045C476.915 126.091 477.056 126.114 477.203 126.114C477.314 126.114 477.405 126.108 477.476 126.097C477.547 126.082 477.604 126.071 477.647 126.062L477.851 126.966C477.783 126.991 477.688 127.017 477.566 127.043C477.444 127.071 477.289 127.085 477.101 127.085C476.817 127.085 476.539 127.024 476.266 126.902C475.996 126.78 475.772 126.594 475.593 126.344C475.417 126.094 475.328 125.778 475.328 125.398V118.886ZM482.091 120.455V121.307H478.699V120.455H482.091ZM479.688 118.886H480.694V125.125C480.694 125.409 480.735 125.622 480.817 125.764C480.902 125.903 481.01 125.997 481.141 126.045C481.275 126.091 481.415 126.114 481.563 126.114C481.674 126.114 481.765 126.108 481.836 126.097C481.907 126.082 481.963 126.071 482.006 126.062L482.211 126.966C482.142 126.991 482.047 127.017 481.925 127.043C481.803 127.071 481.648 127.085 481.461 127.085C481.176 127.085 480.898 127.024 480.625 126.902C480.355 126.78 480.131 126.594 479.952 126.344C479.776 126.094 479.688 125.778 479.688 125.398V118.886ZM486.193 127.136C485.602 127.136 485.083 126.996 484.637 126.714C484.194 126.433 483.848 126.04 483.598 125.534C483.35 125.028 483.227 124.437 483.227 123.761C483.227 123.08 483.35 122.484 483.598 121.976C483.848 121.467 484.194 121.072 484.637 120.791C485.083 120.51 485.602 120.369 486.193 120.369C486.784 120.369 487.301 120.51 487.744 120.791C488.19 121.072 488.537 121.467 488.784 121.976C489.034 122.484 489.159 123.08 489.159 123.761C489.159 124.437 489.034 125.028 488.784 125.534C488.537 126.04 488.19 126.433 487.744 126.714C487.301 126.996 486.784 127.136 486.193 127.136ZM486.193 126.233C486.642 126.233 487.011 126.118 487.301 125.888C487.591 125.658 487.805 125.355 487.944 124.98C488.083 124.605 488.153 124.199 488.153 123.761C488.153 123.324 488.083 122.916 487.944 122.538C487.805 122.161 487.591 121.855 487.301 121.622C487.011 121.389 486.642 121.273 486.193 121.273C485.744 121.273 485.375 121.389 485.085 121.622C484.795 121.855 484.581 122.161 484.441 122.538C484.302 122.916 484.233 123.324 484.233 123.761C484.233 124.199 484.302 124.605 484.441 124.98C484.581 125.355 484.795 125.658 485.085 125.888C485.375 126.118 485.744 126.233 486.193 126.233ZM490.694 127V120.455H491.665V121.477H491.751C491.887 121.128 492.107 120.857 492.411 120.663C492.715 120.467 493.08 120.369 493.506 120.369C493.938 120.369 494.298 120.467 494.585 120.663C494.874 120.857 495.1 121.128 495.262 121.477H495.33C495.498 121.139 495.749 120.871 496.085 120.672C496.42 120.47 496.822 120.369 497.29 120.369C497.876 120.369 498.354 120.553 498.727 120.919C499.099 121.283 499.285 121.849 499.285 122.619V127H498.279V122.619C498.279 122.136 498.147 121.791 497.883 121.584C497.619 121.376 497.308 121.273 496.95 121.273C496.489 121.273 496.133 121.412 495.88 121.69C495.627 121.966 495.501 122.315 495.501 122.739V127H494.478V122.517C494.478 122.145 494.357 121.845 494.116 121.618C493.874 121.388 493.563 121.273 493.183 121.273C492.921 121.273 492.677 121.342 492.45 121.482C492.225 121.621 492.043 121.814 491.904 122.061C491.768 122.305 491.7 122.588 491.7 122.909V127H490.694ZM505.504 118.273V127H504.499V118.273H505.504ZM510.091 127.136C509.46 127.136 508.916 126.997 508.458 126.719C508.004 126.438 507.653 126.045 507.406 125.543C507.162 125.037 507.039 124.449 507.039 123.778C507.039 123.108 507.162 122.517 507.406 122.006C507.653 121.491 507.997 121.091 508.437 120.804C508.88 120.514 509.397 120.369 509.988 120.369C510.329 120.369 510.666 120.426 510.998 120.54C511.331 120.653 511.633 120.838 511.906 121.094C512.179 121.347 512.396 121.682 512.558 122.099C512.72 122.517 512.801 123.031 512.801 123.642V124.068H507.755V123.199H511.778C511.778 122.83 511.704 122.5 511.556 122.21C511.412 121.92 511.204 121.692 510.934 121.524C510.667 121.357 510.352 121.273 509.988 121.273C509.588 121.273 509.241 121.372 508.949 121.571C508.659 121.767 508.436 122.023 508.279 122.338C508.123 122.653 508.045 122.991 508.045 123.352V123.932C508.045 124.426 508.13 124.845 508.301 125.189C508.474 125.53 508.714 125.79 509.021 125.969C509.328 126.145 509.684 126.233 510.091 126.233C510.355 126.233 510.593 126.196 510.806 126.122C511.022 126.045 511.208 125.932 511.365 125.781C511.521 125.628 511.642 125.437 511.727 125.21L512.699 125.483C512.596 125.812 512.424 126.102 512.183 126.352C511.941 126.599 511.643 126.793 511.288 126.932C510.933 127.068 510.534 127.136 510.091 127.136ZM517.245 120.455V121.307H513.717V120.455H517.245ZM514.774 127V119.551C514.774 119.176 514.862 118.864 515.038 118.614C515.214 118.364 515.443 118.176 515.724 118.051C516.005 117.926 516.302 117.864 516.615 117.864C516.862 117.864 517.064 117.884 517.22 117.923C517.376 117.963 517.493 118 517.569 118.034L517.279 118.903C517.228 118.886 517.157 118.865 517.066 118.839C516.978 118.814 516.862 118.801 516.717 118.801C516.385 118.801 516.145 118.885 515.997 119.053C515.852 119.22 515.779 119.466 515.779 119.79V127H514.774ZM521.501 120.455V121.307H518.109V120.455H521.501ZM519.098 118.886H520.104V125.125C520.104 125.409 520.145 125.622 520.227 125.764C520.313 125.903 520.42 125.997 520.551 126.045C520.685 126.091 520.825 126.114 520.973 126.114C521.084 126.114 521.175 126.108 521.246 126.097C521.317 126.082 521.374 126.071 521.416 126.062L521.621 126.966C521.553 126.991 521.457 127.017 521.335 127.043C521.213 127.071 521.058 127.085 520.871 127.085C520.587 127.085 520.308 127.024 520.036 126.902C519.766 126.78 519.541 126.594 519.362 126.344C519.186 126.094 519.098 125.778 519.098 125.398V118.886Z" fill="black"/>
<g filter="url(#filter3_dd_380_24050)">
<rect x="610" y="50" width="118" height="32" rx="8" fill="white"/>
<path d="M623.106 62.5611V61.5455H630.197V62.5611H627.224V71H626.079V62.5611H623.106ZM632.905 66.7344V71H631.816V61.5455H632.905V65.017H632.998C633.164 64.6508 633.413 64.36 633.746 64.1445C634.081 63.926 634.527 63.8168 635.084 63.8168C635.568 63.8168 635.991 63.9137 636.354 64.1076C636.717 64.2984 636.999 64.5923 637.199 64.9893C637.402 65.3833 637.504 65.8849 637.504 66.4943V71H636.414V66.5682C636.414 66.005 636.268 65.5695 635.975 65.2617C635.686 64.9509 635.285 64.7955 634.771 64.7955C634.414 64.7955 634.093 64.8709 633.81 65.0217C633.53 65.1725 633.309 65.3925 633.146 65.6818C632.986 65.9711 632.905 66.322 632.905 66.7344ZM639.497 71V63.9091H640.586V71H639.497ZM640.051 62.7273C639.838 62.7273 639.655 62.6549 639.501 62.5103C639.35 62.3656 639.275 62.1918 639.275 61.9886C639.275 61.7855 639.35 61.6116 639.501 61.467C639.655 61.3223 639.838 61.25 640.051 61.25C640.263 61.25 640.445 61.3223 640.595 61.467C640.749 61.6116 640.826 61.7855 640.826 61.9886C640.826 62.1918 640.749 62.3656 640.595 62.5103C640.445 62.6549 640.263 62.7273 640.051 62.7273ZM647.604 65.4972L646.626 65.7741C646.564 65.611 646.473 65.4525 646.353 65.2987C646.236 65.1417 646.076 65.0124 645.873 64.9109C645.67 64.8093 645.41 64.7585 645.093 64.7585C644.659 64.7585 644.297 64.8585 644.008 65.0586C643.722 65.2556 643.579 65.5064 643.579 65.8111C643.579 66.0819 643.677 66.2958 643.874 66.4528C644.071 66.6097 644.379 66.7405 644.798 66.8452L645.85 67.1037C646.484 67.2576 646.957 67.493 647.267 67.81C647.578 68.1239 647.734 68.5286 647.734 69.0241C647.734 69.4304 647.617 69.7936 647.383 70.1136C647.152 70.4337 646.829 70.6861 646.413 70.8707C645.998 71.0554 645.515 71.1477 644.964 71.1477C644.24 71.1477 643.642 70.9908 643.168 70.6768C642.694 70.3629 642.394 69.9044 642.268 69.3011L643.302 69.0426C643.4 69.4242 643.586 69.7105 643.86 69.9013C644.137 70.0921 644.499 70.1875 644.945 70.1875C645.453 70.1875 645.856 70.0798 646.155 69.8643C646.456 69.6458 646.607 69.3842 646.607 69.0795C646.607 68.8333 646.521 68.6271 646.349 68.4609C646.176 68.2917 645.912 68.1655 645.555 68.0824L644.373 67.8054C643.723 67.6515 643.246 67.413 642.942 67.0898C642.64 66.7636 642.489 66.3558 642.489 65.8665C642.489 65.4664 642.602 65.1125 642.826 64.8047C643.054 64.4969 643.363 64.2553 643.754 64.0799C644.148 63.9045 644.594 63.8168 645.093 63.8168C645.795 63.8168 646.346 63.9706 646.746 64.2784C647.149 64.5862 647.435 64.9924 647.604 65.4972ZM653.03 71V63.9091H654.119V71H653.03ZM653.584 62.7273C653.371 62.7273 653.188 62.6549 653.034 62.5103C652.884 62.3656 652.808 62.1918 652.808 61.9886C652.808 61.7855 652.884 61.6116 653.034 61.467C653.188 61.3223 653.371 61.25 653.584 61.25C653.796 61.25 653.978 61.3223 654.129 61.467C654.282 61.6116 654.359 61.7855 654.359 61.9886C654.359 62.1918 654.282 62.3656 654.129 62.5103C653.978 62.6549 653.796 62.7273 653.584 62.7273ZM661.138 65.4972L660.159 65.7741C660.097 65.611 660.007 65.4525 659.886 65.2987C659.77 65.1417 659.61 65.0124 659.406 64.9109C659.203 64.8093 658.943 64.7585 658.626 64.7585C658.192 64.7585 657.831 64.8585 657.541 65.0586C657.255 65.2556 657.112 65.5064 657.112 65.8111C657.112 66.0819 657.21 66.2958 657.407 66.4528C657.604 66.6097 657.912 66.7405 658.331 66.8452L659.383 67.1037C660.017 67.2576 660.49 67.493 660.801 67.81C661.111 68.1239 661.267 68.5286 661.267 69.0241C661.267 69.4304 661.15 69.7936 660.916 70.1136C660.685 70.4337 660.362 70.6861 659.947 70.8707C659.531 71.0554 659.048 71.1477 658.497 71.1477C657.774 71.1477 657.175 70.9908 656.701 70.6768C656.227 70.3629 655.927 69.9044 655.801 69.3011L656.835 69.0426C656.933 69.4242 657.12 69.7105 657.394 69.9013C657.671 70.0921 658.032 70.1875 658.478 70.1875C658.986 70.1875 659.389 70.0798 659.688 69.8643C659.99 69.6458 660.14 69.3842 660.14 69.0795C660.14 68.8333 660.054 68.6271 659.882 68.4609C659.71 68.2917 659.445 68.1655 659.088 68.0824L657.906 67.8054C657.257 67.6515 656.78 67.413 656.475 67.0898C656.173 66.7636 656.023 66.3558 656.023 65.8665C656.023 65.4664 656.135 65.1125 656.36 64.8047C656.587 64.4969 656.897 64.2553 657.287 64.0799C657.681 63.9045 658.128 63.8168 658.626 63.8168C659.328 63.8168 659.879 63.9706 660.279 64.2784C660.682 64.5862 660.968 64.9924 661.138 65.4972ZM668.65 71.1662C668.2 71.1662 667.793 71.0816 667.426 70.9123C667.06 70.7399 666.769 70.4922 666.554 70.169C666.338 69.8428 666.231 69.4489 666.231 68.9872C666.231 68.581 666.311 68.2517 666.471 67.9993C666.631 67.7438 666.845 67.5438 667.112 67.3991C667.38 67.2545 667.676 67.1468 667.999 67.076C668.325 67.0021 668.653 66.9437 668.982 66.9006C669.413 66.8452 669.762 66.8036 670.03 66.7759C670.301 66.7451 670.498 66.6944 670.621 66.6236C670.747 66.5528 670.81 66.4297 670.81 66.2543V66.2173C670.81 65.7618 670.686 65.4079 670.436 65.1555C670.19 64.9032 669.816 64.777 669.314 64.777C668.794 64.777 668.387 64.8909 668.091 65.1186C667.796 65.3464 667.588 65.5895 667.468 65.848L666.434 65.4787C666.618 65.0478 666.865 64.7124 667.172 64.4723C667.483 64.2292 667.822 64.0599 668.188 63.9645C668.557 63.866 668.921 63.8168 669.278 63.8168C669.505 63.8168 669.767 63.8445 670.062 63.8999C670.361 63.9522 670.649 64.0614 670.926 64.2276C671.206 64.3938 671.438 64.6446 671.623 64.9801C671.807 65.3156 671.9 65.7649 671.9 66.3281V71H670.81V70.0398H670.755C670.681 70.1937 670.558 70.3583 670.386 70.5337C670.213 70.7092 669.984 70.8584 669.698 70.9815C669.411 71.1046 669.062 71.1662 668.65 71.1662ZM668.816 70.1875C669.247 70.1875 669.61 70.1029 669.905 69.9336C670.204 69.7643 670.429 69.5458 670.579 69.2781C670.733 69.0103 670.81 68.7287 670.81 68.4332V67.4361C670.764 67.4915 670.663 67.5423 670.506 67.5884C670.352 67.6315 670.173 67.67 669.97 67.7038C669.77 67.7346 669.575 67.7623 669.384 67.7869C669.196 67.8085 669.044 67.8269 668.927 67.8423C668.644 67.8793 668.379 67.9393 668.133 68.0224C667.89 68.1024 667.693 68.224 667.542 68.3871C667.394 68.5471 667.32 68.7656 667.32 69.0426C667.32 69.4212 667.46 69.7074 667.74 69.9013C668.023 70.0921 668.382 70.1875 668.816 70.1875ZM680.628 63.9091V64.8324H676.954V63.9091H680.628ZM678.025 62.2102H679.114V68.9688C679.114 69.2765 679.159 69.5073 679.248 69.6612C679.34 69.812 679.457 69.9136 679.599 69.9659C679.744 70.0152 679.896 70.0398 680.056 70.0398C680.176 70.0398 680.274 70.0336 680.351 70.0213C680.428 70.0059 680.49 69.9936 680.536 69.9844L680.758 70.9631C680.684 70.9908 680.581 71.0185 680.448 71.0462C680.316 71.0769 680.148 71.0923 679.945 71.0923C679.637 71.0923 679.336 71.0262 679.04 70.8938C678.748 70.7615 678.505 70.5599 678.311 70.2891C678.12 70.0182 678.025 69.6766 678.025 69.2642V62.2102ZM685.072 71.1477C684.432 71.1477 683.87 70.9954 683.387 70.6907C682.907 70.386 682.531 69.9598 682.26 69.4119C681.992 68.8641 681.859 68.224 681.859 67.4915C681.859 66.7528 681.992 66.1081 682.26 65.5572C682.531 65.0063 682.907 64.5785 683.387 64.2738C683.87 63.9691 684.432 63.8168 685.072 63.8168C685.712 63.8168 686.272 63.9691 686.752 64.2738C687.235 64.5785 687.611 65.0063 687.879 65.5572C688.149 66.1081 688.285 66.7528 688.285 67.4915C688.285 68.224 688.149 68.8641 687.879 69.4119C687.611 69.9598 687.235 70.386 686.752 70.6907C686.272 70.9954 685.712 71.1477 685.072 71.1477ZM685.072 70.169C685.558 70.169 685.958 70.0444 686.272 69.7951C686.586 69.5458 686.818 69.218 686.969 68.8118C687.12 68.4055 687.195 67.9654 687.195 67.4915C687.195 67.0175 687.12 66.5759 686.969 66.1665C686.818 65.7572 686.586 65.4264 686.272 65.174C685.958 64.9216 685.558 64.7955 685.072 64.7955C684.585 64.7955 684.185 64.9216 683.871 65.174C683.557 65.4264 683.325 65.7572 683.174 66.1665C683.024 66.5759 682.948 67.0175 682.948 67.4915C682.948 67.9654 683.024 68.4055 683.174 68.8118C683.325 69.218 683.557 69.5458 683.871 69.7951C684.185 70.0444 684.585 70.169 685.072 70.169ZM692.829 71.1477C692.188 71.1477 691.627 70.9954 691.144 70.6907C690.663 70.386 690.288 69.9598 690.017 69.4119C689.749 68.8641 689.615 68.224 689.615 67.4915C689.615 66.7528 689.749 66.1081 690.017 65.5572C690.288 65.0063 690.663 64.5785 691.144 64.2738C691.627 63.9691 692.188 63.8168 692.829 63.8168C693.469 63.8168 694.029 63.9691 694.509 64.2738C694.992 64.5785 695.368 65.0063 695.635 65.5572C695.906 66.1081 696.042 66.7528 696.042 67.4915C696.042 68.224 695.906 68.8641 695.635 69.4119C695.368 69.9598 694.992 70.386 694.509 70.6907C694.029 70.9954 693.469 71.1477 692.829 71.1477ZM692.829 70.169C693.315 70.169 693.715 70.0444 694.029 69.7951C694.343 69.5458 694.575 69.218 694.726 68.8118C694.877 68.4055 694.952 67.9654 694.952 67.4915C694.952 67.0175 694.877 66.5759 694.726 66.1665C694.575 65.7572 694.343 65.4264 694.029 65.174C693.715 64.9216 693.315 64.7955 692.829 64.7955C692.342 64.7955 691.942 64.9216 691.628 65.174C691.314 65.4264 691.082 65.7572 690.931 66.1665C690.78 66.5759 690.705 67.0175 690.705 67.4915C690.705 67.9654 690.78 68.4055 690.931 68.8118C691.082 69.218 691.314 69.5458 691.628 69.7951C691.942 70.0444 692.342 70.169 692.829 70.169ZM698.794 61.5455V71H697.705V61.5455H698.794ZM703.873 63.9091V64.8324H700.199V63.9091H703.873ZM701.27 62.2102H702.359V68.9688C702.359 69.2765 702.404 69.5073 702.493 69.6612C702.585 69.812 702.702 69.9136 702.844 69.9659C702.989 70.0152 703.141 70.0398 703.301 70.0398C703.421 70.0398 703.52 70.0336 703.596 70.0213C703.673 70.0059 703.735 69.9936 703.781 69.9844L704.003 70.9631C703.929 70.9908 703.826 71.0185 703.693 71.0462C703.561 71.0769 703.393 71.0923 703.19 71.0923C702.882 71.0923 702.581 71.0262 702.285 70.8938C701.993 70.7615 701.75 70.5599 701.556 70.2891C701.365 70.0182 701.27 69.6766 701.27 69.2642V62.2102ZM705.512 71V63.9091H706.602V71H705.512ZM706.066 62.7273C705.854 62.7273 705.671 62.6549 705.517 62.5103C705.366 62.3656 705.291 62.1918 705.291 61.9886C705.291 61.7855 705.366 61.6116 705.517 61.467C705.671 61.3223 705.854 61.25 706.066 61.25C706.279 61.25 706.46 61.3223 706.611 61.467C706.765 61.6116 706.842 61.7855 706.842 61.9886C706.842 62.1918 706.765 62.3656 706.611 62.5103C706.46 62.6549 706.279 62.7273 706.066 62.7273ZM708.597 73.6591V63.9091H709.65V65.0355H709.779C709.859 64.9124 709.97 64.7554 710.111 64.5646C710.256 64.3707 710.462 64.1984 710.73 64.0476C711.001 63.8937 711.367 63.8168 711.829 63.8168C712.426 63.8168 712.952 63.966 713.408 64.2646C713.863 64.5631 714.219 64.9863 714.474 65.5341C714.729 66.0819 714.857 66.7282 714.857 67.473C714.857 68.224 714.729 68.8749 714.474 69.4258C714.219 69.9736 713.865 70.3983 713.412 70.6999C712.96 70.9985 712.438 71.1477 711.847 71.1477C711.392 71.1477 711.027 71.0723 710.753 70.9215C710.479 70.7676 710.268 70.5937 710.121 70.3999C709.973 70.2029 709.859 70.0398 709.779 69.9105H709.687V73.6591H708.597ZM709.668 67.4545C709.668 67.9901 709.747 68.4625 709.904 68.8718C710.061 69.2781 710.29 69.5966 710.592 69.8274C710.893 70.0552 711.263 70.169 711.7 70.169C712.155 70.169 712.535 70.049 712.84 69.8089C713.148 69.5658 713.378 69.2396 713.532 68.8303C713.689 68.4179 713.768 67.9593 713.768 67.4545C713.768 66.956 713.691 66.5066 713.537 66.1065C713.386 65.7034 713.157 65.3848 712.849 65.1509C712.544 64.9139 712.161 64.7955 711.7 64.7955C711.256 64.7955 710.884 64.9078 710.582 65.1325C710.281 65.354 710.053 65.6649 709.899 66.065C709.745 66.462 709.668 66.9252 709.668 67.4545Z" fill="#344054"/>
<path d="M714.071 79.4853C714.962 79.4853 715.408 80.5624 714.778 81.1924L708.707 87.2635C708.317 87.654 707.683 87.654 707.293 87.2635L701.222 81.1924C700.592 80.5624 701.038 79.4853 701.929 79.4853H714.071Z" fill="white"/>
</g>
<path d="M634.057 127V118.273H637.108C637.716 118.273 638.217 118.378 638.612 118.588C639.007 118.795 639.301 119.075 639.494 119.428C639.688 119.777 639.784 120.165 639.784 120.591C639.784 120.966 639.717 121.276 639.584 121.52C639.453 121.764 639.28 121.957 639.064 122.099C638.851 122.241 638.619 122.347 638.369 122.415V122.5C638.636 122.517 638.905 122.611 639.175 122.781C639.445 122.952 639.67 123.196 639.852 123.514C640.034 123.832 640.125 124.222 640.125 124.682C640.125 125.119 640.026 125.513 639.827 125.862C639.628 126.212 639.314 126.489 638.885 126.693C638.456 126.898 637.898 127 637.21 127H634.057ZM635.114 126.062H637.21C637.901 126.062 638.391 125.929 638.68 125.662C638.973 125.392 639.119 125.065 639.119 124.682C639.119 124.386 639.044 124.114 638.893 123.864C638.743 123.611 638.528 123.409 638.25 123.259C637.972 123.105 637.642 123.028 637.261 123.028H635.114V126.062ZM635.114 122.108H637.074C637.392 122.108 637.679 122.045 637.935 121.92C638.193 121.795 638.398 121.619 638.548 121.392C638.702 121.165 638.778 120.898 638.778 120.591C638.778 120.207 638.645 119.882 638.378 119.615C638.111 119.345 637.688 119.21 637.108 119.21H635.114V122.108ZM644.384 127.136C643.793 127.136 643.275 126.996 642.829 126.714C642.386 126.433 642.039 126.04 641.789 125.534C641.542 125.028 641.418 124.437 641.418 123.761C641.418 123.08 641.542 122.484 641.789 121.976C642.039 121.467 642.386 121.072 642.829 120.791C643.275 120.51 643.793 120.369 644.384 120.369C644.975 120.369 645.492 120.51 645.935 120.791C646.381 121.072 646.728 121.467 646.975 121.976C647.225 122.484 647.35 123.08 647.35 123.761C647.35 124.437 647.225 125.028 646.975 125.534C646.728 126.04 646.381 126.433 645.935 126.714C645.492 126.996 644.975 127.136 644.384 127.136ZM644.384 126.233C644.833 126.233 645.202 126.118 645.492 125.888C645.782 125.658 645.996 125.355 646.136 124.98C646.275 124.605 646.344 124.199 646.344 123.761C646.344 123.324 646.275 122.916 646.136 122.538C645.996 122.161 645.782 121.855 645.492 121.622C645.202 121.389 644.833 121.273 644.384 121.273C643.935 121.273 643.566 121.389 643.276 121.622C642.987 121.855 642.772 122.161 642.633 122.538C642.494 122.916 642.424 123.324 642.424 123.761C642.424 124.199 642.494 124.605 642.633 124.98C642.772 125.355 642.987 125.658 643.276 125.888C643.566 126.118 643.935 126.233 644.384 126.233ZM651.732 120.455V121.307H648.34V120.455H651.732ZM649.328 118.886H650.334V125.125C650.334 125.409 650.375 125.622 650.458 125.764C650.543 125.903 650.651 125.997 650.782 126.045C650.915 126.091 651.056 126.114 651.203 126.114C651.314 126.114 651.405 126.108 651.476 126.097C651.547 126.082 651.604 126.071 651.647 126.062L651.851 126.966C651.783 126.991 651.688 127.017 651.566 127.043C651.444 127.071 651.289 127.085 651.101 127.085C650.817 127.085 650.539 127.024 650.266 126.902C649.996 126.78 649.772 126.594 649.593 126.344C649.417 126.094 649.328 125.778 649.328 125.398V118.886ZM656.091 120.455V121.307H652.699V120.455H656.091ZM653.688 118.886H654.694V125.125C654.694 125.409 654.735 125.622 654.817 125.764C654.902 125.903 655.01 125.997 655.141 126.045C655.275 126.091 655.415 126.114 655.563 126.114C655.674 126.114 655.765 126.108 655.836 126.097C655.907 126.082 655.963 126.071 656.006 126.062L656.211 126.966C656.142 126.991 656.047 127.017 655.925 127.043C655.803 127.071 655.648 127.085 655.461 127.085C655.176 127.085 654.898 127.024 654.625 126.902C654.355 126.78 654.131 126.594 653.952 126.344C653.776 126.094 653.688 125.778 653.688 125.398V118.886ZM660.193 127.136C659.602 127.136 659.083 126.996 658.637 126.714C658.194 126.433 657.848 126.04 657.598 125.534C657.35 125.028 657.227 124.437 657.227 123.761C657.227 123.08 657.35 122.484 657.598 121.976C657.848 121.467 658.194 121.072 658.637 120.791C659.083 120.51 659.602 120.369 660.193 120.369C660.784 120.369 661.301 120.51 661.744 120.791C662.19 121.072 662.537 121.467 662.784 121.976C663.034 122.484 663.159 123.08 663.159 123.761C663.159 124.437 663.034 125.028 662.784 125.534C662.537 126.04 662.19 126.433 661.744 126.714C661.301 126.996 660.784 127.136 660.193 127.136ZM660.193 126.233C660.642 126.233 661.011 126.118 661.301 125.888C661.591 125.658 661.805 125.355 661.944 124.98C662.083 124.605 662.153 124.199 662.153 123.761C662.153 123.324 662.083 122.916 661.944 122.538C661.805 122.161 661.591 121.855 661.301 121.622C661.011 121.389 660.642 121.273 660.193 121.273C659.744 121.273 659.375 121.389 659.085 121.622C658.795 121.855 658.581 122.161 658.441 122.538C658.302 122.916 658.233 123.324 658.233 123.761C658.233 124.199 658.302 124.605 658.441 124.98C658.581 125.355 658.795 125.658 659.085 125.888C659.375 126.118 659.744 126.233 660.193 126.233ZM664.694 127V120.455H665.665V121.477H665.751C665.887 121.128 666.107 120.857 666.411 120.663C666.715 120.467 667.08 120.369 667.506 120.369C667.938 120.369 668.298 120.467 668.585 120.663C668.874 120.857 669.1 121.128 669.262 121.477H669.33C669.498 121.139 669.749 120.871 670.085 120.672C670.42 120.47 670.822 120.369 671.29 120.369C671.876 120.369 672.354 120.553 672.727 120.919C673.099 121.283 673.285 121.849 673.285 122.619V127H672.279V122.619C672.279 122.136 672.147 121.791 671.883 121.584C671.619 121.376 671.308 121.273 670.95 121.273C670.489 121.273 670.133 121.412 669.88 121.69C669.627 121.966 669.501 122.315 669.501 122.739V127H668.478V122.517C668.478 122.145 668.357 121.845 668.116 121.618C667.874 121.388 667.563 121.273 667.183 121.273C666.921 121.273 666.677 121.342 666.45 121.482C666.225 121.621 666.043 121.814 665.904 122.061C665.768 122.305 665.7 122.588 665.7 122.909V127H664.694ZM678.499 127V120.455H679.47V121.443H679.538C679.658 121.119 679.874 120.857 680.186 120.655C680.499 120.453 680.851 120.352 681.243 120.352C681.317 120.352 681.409 120.354 681.52 120.357C681.631 120.359 681.714 120.364 681.771 120.369V121.392C681.737 121.384 681.659 121.371 681.537 121.354C681.418 121.334 681.291 121.324 681.158 121.324C680.839 121.324 680.555 121.391 680.305 121.524C680.058 121.655 679.862 121.837 679.717 122.07C679.575 122.3 679.504 122.562 679.504 122.858V127H678.499ZM682.963 127V120.455H683.969V127H682.963ZM683.475 119.364C683.279 119.364 683.11 119.297 682.968 119.163C682.828 119.03 682.759 118.869 682.759 118.682C682.759 118.494 682.828 118.334 682.968 118.2C683.11 118.067 683.279 118 683.475 118C683.671 118 683.838 118.067 683.978 118.2C684.12 118.334 684.191 118.494 684.191 118.682C684.191 118.869 684.12 119.03 683.978 119.163C683.838 119.297 683.671 119.364 683.475 119.364ZM688.453 129.591C687.967 129.591 687.55 129.528 687.2 129.403C686.851 129.281 686.56 129.119 686.327 128.918C686.097 128.719 685.913 128.506 685.777 128.278L686.578 127.716C686.669 127.835 686.784 127.972 686.923 128.125C687.063 128.281 687.253 128.416 687.494 128.53C687.739 128.646 688.058 128.705 688.453 128.705C688.982 128.705 689.418 128.577 689.761 128.321C690.105 128.065 690.277 127.665 690.277 127.119V125.79H690.192C690.118 125.909 690.013 126.057 689.876 126.233C689.743 126.406 689.55 126.561 689.297 126.697C689.047 126.831 688.709 126.898 688.283 126.898C687.754 126.898 687.28 126.773 686.859 126.523C686.442 126.273 686.111 125.909 685.866 125.432C685.625 124.955 685.504 124.375 685.504 123.693C685.504 123.023 685.622 122.439 685.858 121.942C686.094 121.442 686.422 121.055 686.842 120.783C687.263 120.507 687.749 120.369 688.3 120.369C688.726 120.369 689.064 120.44 689.314 120.582C689.567 120.722 689.76 120.881 689.893 121.06C690.03 121.236 690.135 121.381 690.209 121.494H690.311V120.455H691.283V127.188C691.283 127.75 691.155 128.207 690.899 128.56C690.646 128.915 690.305 129.175 689.876 129.339C689.45 129.507 688.976 129.591 688.453 129.591ZM688.419 125.994C688.822 125.994 689.163 125.902 689.442 125.717C689.72 125.533 689.932 125.267 690.077 124.92C690.222 124.574 690.294 124.159 690.294 123.676C690.294 123.205 690.223 122.788 690.081 122.428C689.939 122.067 689.729 121.784 689.45 121.58C689.172 121.375 688.828 121.273 688.419 121.273C687.993 121.273 687.638 121.381 687.354 121.597C687.072 121.812 686.861 122.102 686.719 122.466C686.58 122.83 686.51 123.233 686.51 123.676C686.51 124.131 686.581 124.533 686.723 124.882C686.868 125.229 687.081 125.501 687.362 125.7C687.646 125.896 687.999 125.994 688.419 125.994ZM694.129 123.062V127H693.124V118.273H694.129V121.477H694.214C694.368 121.139 694.598 120.871 694.905 120.672C695.214 120.47 695.626 120.369 696.141 120.369C696.587 120.369 696.977 120.459 697.312 120.638C697.648 120.814 697.908 121.085 698.092 121.452C698.28 121.815 698.374 122.278 698.374 122.841V127H697.368V122.909C697.368 122.389 697.233 121.987 696.963 121.703C696.696 121.416 696.325 121.273 695.851 121.273C695.521 121.273 695.226 121.342 694.964 121.482C694.706 121.621 694.501 121.824 694.351 122.091C694.203 122.358 694.129 122.682 694.129 123.062ZM703.06 120.455V121.307H699.668V120.455H703.06ZM700.657 118.886H701.662V125.125C701.662 125.409 701.703 125.622 701.786 125.764C701.871 125.903 701.979 125.997 702.11 126.045C702.243 126.091 702.384 126.114 702.532 126.114C702.642 126.114 702.733 126.108 702.804 126.097C702.875 126.082 702.932 126.071 702.975 126.062L703.179 126.966C703.111 126.991 703.016 127.017 702.894 127.043C702.772 127.071 702.617 127.085 702.429 127.085C702.145 127.085 701.867 127.024 701.594 126.902C701.324 126.78 701.1 126.594 700.921 126.344C700.745 126.094 700.657 125.778 700.657 125.398V118.886Z" fill="black"/>
<defs>
<filter id="filter0_dd_380_24050" x="64" y="53" width="142" height="56" filterUnits="userSpaceOnUse" color-interpolation-filters="sRGB">
<feFlood flood-opacity="0" result="BackgroundImageFix"/>
<feColorMatrix in="SourceAlpha" type="matrix" values="0 0 0 0 0 0 0 0 0 0 0 0 0 0 0 0 0 0 127 0" result="hardAlpha"/>
<feMorphology radius="2" operator="erode" in="SourceAlpha" result="effect1_dropShadow_380_24050"/>
<feOffset dy="4"/>
<feGaussianBlur stdDeviation="3"/>
<feColorMatrix type="matrix" values="0 0 0 0 0.0627451 0 0 0 0 0.0941176 0 0 0 0 0.156863 0 0 0 0.03 0"/>
<feBlend mode="normal" in2="BackgroundImageFix" result="effect1_dropShadow_380_24050"/>
<feColorMatrix in="SourceAlpha" type="matrix" values="0 0 0 0 0 0 0 0 0 0 0 0 0 0 0 0 0 0 127 0" result="hardAlpha"/>
<feMorphology radius="4" operator="erode" in="SourceAlpha" result="effect2_dropShadow_380_24050"/>
<feOffset dy="12"/>
<feGaussianBlur stdDeviation="8"/>
<feColorMatrix type="matrix" values="0 0 0 0 0.0627451 0 0 0 0 0.0941176 0 0 0 0 0.156863 0 0 0 0.08 0"/>
<feBlend mode="normal" in2="effect1_dropShadow_380_24050" result="effect2_dropShadow_380_24050"/>
<feBlend mode="normal" in="SourceGraphic" in2="effect2_dropShadow_380_24050" result="shape"/>
</filter>
<filter id="filter1_dd_380_24050" x="242" y="53" width="142" height="56" filterUnits="userSpaceOnUse" color-interpolation-filters="sRGB">
<feFlood flood-opacity="0" result="BackgroundImageFix"/>
<feColorMatrix in="SourceAlpha" type="matrix" values="0 0 0 0 0 0 0 0 0 0 0 0 0 0 0 0 0 0 127 0" result="hardAlpha"/>
<feMorphology radius="2" operator="erode" in="SourceAlpha" result="effect1_dropShadow_380_24050"/>
<feOffset dy="4"/>
<feGaussianBlur stdDeviation="3"/>
<feColorMatrix type="matrix" values="0 0 0 0 0.0627451 0 0 0 0 0.0941176 0 0 0 0 0.156863 0 0 0 0.03 0"/>
<feBlend mode="normal" in2="BackgroundImageFix" result="effect1_dropShadow_380_24050"/>
<feColorMatrix in="SourceAlpha" type="matrix" values="0 0 0 0 0 0 0 0 0 0 0 0 0 0 0 0 0 0 127 0" result="hardAlpha"/>
<feMorphology radius="4" operator="erode" in="SourceAlpha" result="effect2_dropShadow_380_24050"/>
<feOffset dy="12"/>
<feGaussianBlur stdDeviation="8"/>
<feColorMatrix type="matrix" values="0 0 0 0 0.0627451 0 0 0 0 0.0941176 0 0 0 0 0.156863 0 0 0 0.08 0"/>
<feBlend mode="normal" in2="effect1_dropShadow_380_24050" result="effect2_dropShadow_380_24050"/>
<feBlend mode="normal" in="SourceGraphic" in2="effect2_dropShadow_380_24050" result="shape"/>
</filter>
<filter id="filter2_dd_380_24050" x="420" y="50" width="142" height="62" filterUnits="userSpaceOnUse" color-interpolation-filters="sRGB">
<feFlood flood-opacity="0" result="BackgroundImageFix"/>
<feColorMatrix in="SourceAlpha" type="matrix" values="0 0 0 0 0 0 0 0 0 0 0 0 0 0 0 0 0 0 127 0" result="hardAlpha"/>
<feMorphology radius="2" operator="erode" in="SourceAlpha" result="effect1_dropShadow_380_24050"/>
<feOffset dy="4"/>
<feGaussianBlur stdDeviation="3"/>
<feColorMatrix type="matrix" values="0 0 0 0 0.0627451 0 0 0 0 0.0941176 0 0 0 0 0.156863 0 0 0 0.03 0"/>
<feBlend mode="normal" in2="BackgroundImageFix" result="effect1_dropShadow_380_24050"/>
<feColorMatrix in="SourceAlpha" type="matrix" values="0 0 0 0 0 0 0 0 0 0 0 0 0 0 0 0 0 0 127 0" result="hardAlpha"/>
<feMorphology radius="4" operator="erode" in="SourceAlpha" result="effect2_dropShadow_380_24050"/>
<feOffset dy="12"/>
<feGaussianBlur stdDeviation="8"/>
<feColorMatrix type="matrix" values="0 0 0 0 0.0627451 0 0 0 0 0.0941176 0 0 0 0 0.156863 0 0 0 0.08 0"/>
<feBlend mode="normal" in2="effect1_dropShadow_380_24050" result="effect2_dropShadow_380_24050"/>
<feBlend mode="normal" in="SourceGraphic" in2="effect2_dropShadow_380_24050" result="shape"/>
</filter>
<filter id="filter3_dd_380_24050" x="598" y="50" width="142" height="62" filterUnits="userSpaceOnUse" color-interpolation-filters="sRGB">
<feFlood flood-opacity="0" result="BackgroundImageFix"/>
<feColorMatrix in="SourceAlpha" type="matrix" values="0 0 0 0 0 0 0 0 0 0 0 0 0 0 0 0 0 0 127 0" result="hardAlpha"/>
<feMorphology radius="2" operator="erode" in="SourceAlpha" result="effect1_dropShadow_380_24050"/>
<feOffset dy="4"/>
<feGaussianBlur stdDeviation="3"/>
<feColorMatrix type="matrix" values="0 0 0 0 0.0627451 0 0 0 0 0.0941176 0 0 0 0 0.156863 0 0 0 0.03 0"/>
<feBlend mode="normal" in2="BackgroundImageFix" result="effect1_dropShadow_380_24050"/>
<feColorMatrix in="SourceAlpha" type="matrix" values="0 0 0 0 0 0 0 0 0 0 0 0 0 0 0 0 0 0 127 0" result="hardAlpha"/>
<feMorphology radius="4" operator="erode" in="SourceAlpha" result="effect2_dropShadow_380_24050"/>
<feOffset dy="12"/>
<feGaussianBlur stdDeviation="8"/>
<feColorMatrix type="matrix" values="0 0 0 0 0.0627451 0 0 0 0 0.0941176 0 0 0 0 0.156863 0 0 0 0.08 0"/>
<feBlend mode="normal" in2="effect1_dropShadow_380_24050" result="effect2_dropShadow_380_24050"/>
<feBlend mode="normal" in="SourceGraphic" in2="effect2_dropShadow_380_24050" result="shape"/>
</filter>
</defs>
</svg>
