<svg width="804" height="224" viewBox="0 0 804 224" fill="none" xmlns="http://www.w3.org/2000/svg">
<rect width="804" height="224" fill="#F9FAFB"/>
<rect x="266" y="102" width="320" height="8" rx="4" fill="#EFEFEF"/>
<rect x="266" y="102" width="80" height="8" rx="4" fill="#217CF5"/>
<g filter="url(#filter0_dd_862_12628)">
<circle cx="266" cy="106" r="12" fill="white"/>
<circle cx="266" cy="106" r="11.5" stroke="#217CF5"/>
</g>
<g filter="url(#filter1_dd_862_12628)">
<circle cx="346" cy="106" r="12" fill="white"/>
<circle cx="346" cy="106" r="11.5" stroke="#217CF5"/>
</g>
<g clip-path="url(#clip0_862_12628)">
<rect x="218" y="110" width="30" height="1" fill="#C54600"/>
<g clip-path="url(#clip1_862_12628)">
<rect x="218" y="98" width="24" height="24" rx="12" fill="#C54600"/>
<path d="M231.183 105.273V114H230.126V106.381H230.075L227.944 107.795V106.722L230.126 105.273H231.183Z" fill="white"/>
</g>
</g>
<g clip-path="url(#clip2_862_12628)">
<rect x="426" y="46" width="1" height="56" fill="#C54600"/>
<g clip-path="url(#clip3_862_12628)">
<rect x="414" y="46" width="24" height="24" rx="12" fill="#C54600"/>
<path d="M423.271 62V61.233L426.151 58.0795C426.489 57.7102 426.768 57.3892 426.987 57.1165C427.205 56.8409 427.367 56.5824 427.472 56.3409C427.58 56.0966 427.634 55.8409 427.634 55.5739C427.634 55.267 427.56 55.0014 427.413 54.777C427.268 54.5526 427.069 54.3793 426.816 54.2571C426.563 54.1349 426.279 54.0739 425.964 54.0739C425.629 54.0739 425.336 54.1435 425.086 54.2827C424.839 54.419 424.647 54.6108 424.511 54.858C424.377 55.1051 424.31 55.3949 424.31 55.7273H423.305C423.305 55.2159 423.423 54.767 423.658 54.3807C423.894 53.9943 424.215 53.6932 424.621 53.4773C425.031 53.2614 425.489 53.1534 425.998 53.1534C426.509 53.1534 426.962 53.2614 427.357 53.4773C427.752 53.6932 428.062 53.9844 428.286 54.3509C428.511 54.7173 428.623 55.125 428.623 55.5739C428.623 55.8949 428.565 56.2088 428.448 56.5156C428.335 56.8196 428.136 57.1591 427.852 57.5341C427.57 57.9062 427.18 58.3608 426.68 58.8977L424.719 60.9943V61.0625H428.776V62H423.271Z" fill="white"/>
</g>
</g>
<g clip-path="url(#clip4_862_12628)">
<rect x="306" y="110" width="1" height="68" fill="#C54600"/>
<g clip-path="url(#clip5_862_12628)">
<rect x="294" y="154" width="24" height="24" rx="12" fill="#C54600"/>
<path d="M306.032 170.119C305.469 170.119 304.968 170.023 304.528 169.83C304.09 169.636 303.742 169.368 303.484 169.024C303.228 168.678 303.089 168.276 303.066 167.818H304.14C304.163 168.099 304.259 168.342 304.43 168.547C304.6 168.749 304.823 168.905 305.099 169.016C305.374 169.126 305.68 169.182 306.015 169.182C306.39 169.182 306.722 169.116 307.012 168.986C307.302 168.855 307.529 168.673 307.694 168.44C307.859 168.207 307.941 167.938 307.941 167.631C307.941 167.31 307.862 167.027 307.702 166.783C307.543 166.536 307.31 166.342 307.004 166.203C306.697 166.064 306.322 165.994 305.879 165.994H305.18V165.057H305.879C306.225 165.057 306.529 164.994 306.79 164.869C307.055 164.744 307.261 164.568 307.408 164.341C307.559 164.114 307.634 163.847 307.634 163.54C307.634 163.244 307.569 162.987 307.438 162.768C307.308 162.55 307.123 162.379 306.884 162.257C306.648 162.135 306.37 162.074 306.049 162.074C305.748 162.074 305.464 162.129 305.197 162.24C304.933 162.348 304.717 162.506 304.549 162.713C304.381 162.918 304.29 163.165 304.276 163.455H303.254C303.271 162.997 303.408 162.597 303.667 162.253C303.925 161.906 304.263 161.636 304.681 161.443C305.102 161.25 305.563 161.153 306.066 161.153C306.606 161.153 307.069 161.263 307.455 161.482C307.842 161.697 308.138 161.983 308.346 162.338C308.553 162.693 308.657 163.077 308.657 163.489C308.657 163.98 308.528 164.399 308.269 164.746C308.013 165.092 307.665 165.332 307.225 165.466V165.534C307.776 165.625 308.207 165.859 308.516 166.237C308.826 166.612 308.981 167.077 308.981 167.631C308.981 168.105 308.852 168.531 308.593 168.909C308.337 169.284 307.988 169.58 307.545 169.795C307.102 170.011 306.597 170.119 306.032 170.119Z" fill="white"/>
</g>
</g>
<g clip-path="url(#clip6_862_12628)">
<rect x="266" y="46" width="1" height="46" fill="#C54600"/>
<g clip-path="url(#clip7_862_12628)">
<rect x="254" y="46" width="24" height="24" rx="12" fill="#C54600"/>
<path d="M262.849 60.2102V59.3409L266.684 53.2727H267.315V54.6193H266.889L263.991 59.2045V59.2727H269.156V60.2102H262.849ZM266.957 62V59.946V59.5412V53.2727H267.963V62H266.957Z" fill="white"/>
</g>
</g>
<g clip-path="url(#clip8_862_12628)">
<rect x="346" y="46" width="1" height="46" fill="#C54600"/>
<g clip-path="url(#clip9_862_12628)">
<rect x="334" y="46" width="24" height="24" rx="12" fill="#C54600"/>
<path d="M345.98 62.1193C345.48 62.1193 345.03 62.0199 344.629 61.821C344.229 61.6222 343.908 61.3494 343.666 61.0028C343.425 60.6562 343.293 60.2614 343.27 59.8182H344.293C344.333 60.2131 344.512 60.5398 344.83 60.7983C345.151 61.054 345.534 61.1818 345.98 61.1818C346.338 61.1818 346.656 61.098 346.935 60.9304C347.216 60.7628 347.436 60.5327 347.595 60.2401C347.757 59.9446 347.838 59.6108 347.838 59.2386C347.838 58.858 347.754 58.5185 347.587 58.2202C347.422 57.919 347.195 57.6818 346.905 57.5085C346.615 57.3352 346.284 57.2472 345.912 57.2443C345.645 57.2415 345.371 57.2827 345.09 57.3679C344.808 57.4503 344.577 57.5568 344.395 57.6875L343.406 57.5682L343.935 53.2727H348.469V54.2102H344.821L344.514 56.7841H344.566C344.744 56.642 344.969 56.5241 345.239 56.4304C345.509 56.3366 345.79 56.2898 346.083 56.2898C346.617 56.2898 347.093 56.4176 347.51 56.6733C347.931 56.9261 348.26 57.2727 348.499 57.7131C348.74 58.1534 348.861 58.6562 348.861 59.2216C348.861 59.7784 348.736 60.2756 348.486 60.7131C348.239 61.1477 347.898 61.4915 347.463 61.7443C347.029 61.9943 346.534 62.1193 345.98 62.1193Z" fill="white"/>
</g>
</g>
<g filter="url(#filter2_dd_862_12628)">
<path d="M258.429 130.515C257.538 130.515 257.092 129.438 257.722 128.808L263.793 122.737C264.183 122.346 264.817 122.346 265.207 122.737L271.278 128.808C271.908 129.438 271.462 130.515 270.571 130.515H258.429Z" fill="white"/>
<rect x="243" y="128" width="43" height="32" rx="8" fill="white"/>
<path d="M259.219 149.129C258.523 149.129 257.931 148.94 257.441 148.561C256.952 148.18 256.578 147.627 256.32 146.904C256.061 146.178 255.932 145.301 255.932 144.273C255.932 143.251 256.061 142.378 256.32 141.655C256.581 140.929 256.957 140.375 257.446 139.993C257.938 139.609 258.529 139.416 259.219 139.416C259.908 139.416 260.498 139.609 260.987 139.993C261.479 140.375 261.855 140.929 262.113 141.655C262.375 142.378 262.506 143.251 262.506 144.273C262.506 145.301 262.376 146.178 262.118 146.904C261.859 147.627 261.485 148.18 260.996 148.561C260.507 148.94 259.914 149.129 259.219 149.129ZM259.219 148.114C259.908 148.114 260.444 147.781 260.825 147.116C261.207 146.452 261.398 145.504 261.398 144.273C261.398 143.454 261.31 142.757 261.135 142.181C260.962 141.606 260.713 141.167 260.387 140.866C260.064 140.564 259.674 140.413 259.219 140.413C258.536 140.413 258.002 140.75 257.617 141.424C257.232 142.095 257.04 143.045 257.04 144.273C257.04 145.091 257.126 145.787 257.298 146.359C257.471 146.932 257.718 147.367 258.042 147.666C258.368 147.964 258.76 148.114 259.219 148.114ZM269.08 147.227V146.729C269.08 146.384 269.15 146.069 269.292 145.782C269.437 145.493 269.646 145.262 269.92 145.09C270.197 144.914 270.532 144.827 270.926 144.827C271.326 144.827 271.662 144.914 271.933 145.09C272.203 145.262 272.408 145.493 272.547 145.782C272.685 146.069 272.754 146.384 272.754 146.729V147.227C272.754 147.572 272.683 147.889 272.542 148.178C272.403 148.464 272.197 148.695 271.923 148.871C271.652 149.043 271.32 149.129 270.926 149.129C270.526 149.129 270.189 149.043 269.915 148.871C269.641 148.695 269.433 148.464 269.292 148.178C269.15 147.889 269.08 147.572 269.08 147.227ZM270.021 146.729V147.227C270.021 147.513 270.089 147.77 270.224 147.998C270.36 148.223 270.594 148.335 270.926 148.335C271.249 148.335 271.477 148.223 271.609 147.998C271.745 147.77 271.812 147.513 271.812 147.227V146.729C271.812 146.442 271.748 146.187 271.619 145.962C271.489 145.735 271.259 145.621 270.926 145.621C270.603 145.621 270.371 145.735 270.229 145.962C270.091 146.187 270.021 146.442 270.021 146.729ZM264.371 141.817V141.318C264.371 140.973 264.442 140.658 264.583 140.372C264.728 140.083 264.937 139.852 265.211 139.679C265.488 139.504 265.823 139.416 266.217 139.416C266.617 139.416 266.953 139.504 267.224 139.679C267.495 139.852 267.699 140.083 267.838 140.372C267.976 140.658 268.045 140.973 268.045 141.318V141.817C268.045 142.161 267.975 142.478 267.833 142.768C267.695 143.054 267.488 143.285 267.214 143.46C266.944 143.633 266.611 143.719 266.217 143.719C265.817 143.719 265.48 143.633 265.206 143.46C264.932 143.285 264.725 143.054 264.583 142.768C264.442 142.478 264.371 142.161 264.371 141.817ZM265.312 141.318V141.817C265.312 142.103 265.38 142.36 265.516 142.588C265.651 142.812 265.885 142.925 266.217 142.925C266.54 142.925 266.768 142.812 266.901 142.588C267.036 142.36 267.104 142.103 267.104 141.817V141.318C267.104 141.032 267.039 140.777 266.91 140.552C266.781 140.324 266.55 140.21 266.217 140.21C265.894 140.21 265.662 140.324 265.52 140.552C265.382 140.777 265.312 141.032 265.312 141.318ZM264.722 149L271.222 139.545H272.274L265.774 149H264.722Z" fill="#1A1A1A"/>
</g>
<g filter="url(#filter3_dd_862_12628)">
<path d="M338.429 130.515C337.538 130.515 337.092 129.438 337.722 128.808L343.793 122.737C344.183 122.346 344.817 122.346 345.207 122.737L351.278 128.808C351.908 129.438 351.462 130.515 350.571 130.515H338.429Z" fill="white"/>
<rect x="319" y="128" width="51" height="32" rx="8" fill="white"/>
<path d="M332.307 149V148.169L335.428 144.753C335.794 144.353 336.096 144.005 336.333 143.71C336.57 143.411 336.745 143.131 336.859 142.869C336.976 142.605 337.035 142.328 337.035 142.038C337.035 141.706 336.955 141.418 336.795 141.175C336.638 140.932 336.422 140.744 336.148 140.612C335.874 140.48 335.567 140.413 335.225 140.413C334.862 140.413 334.545 140.489 334.274 140.64C334.006 140.787 333.798 140.995 333.651 141.263C333.506 141.531 333.434 141.844 333.434 142.205H332.344C332.344 141.651 332.472 141.164 332.727 140.746C332.983 140.327 333.331 140.001 333.771 139.767C334.214 139.533 334.711 139.416 335.262 139.416C335.816 139.416 336.307 139.533 336.735 139.767C337.162 140.001 337.498 140.316 337.741 140.713C337.984 141.11 338.106 141.552 338.106 142.038C338.106 142.386 338.043 142.726 337.916 143.059C337.793 143.388 337.578 143.756 337.27 144.162C336.965 144.565 336.542 145.058 336 145.639L333.877 147.911V147.984H338.272V149H332.307ZM343.133 149.129C342.591 149.129 342.103 149.022 341.67 148.806C341.236 148.591 340.888 148.295 340.626 147.92C340.365 147.544 340.221 147.116 340.197 146.636H341.305C341.348 147.064 341.542 147.418 341.886 147.698C342.234 147.975 342.65 148.114 343.133 148.114C343.521 148.114 343.865 148.023 344.167 147.841C344.472 147.66 344.71 147.41 344.883 147.093C345.058 146.773 345.146 146.412 345.146 146.009C345.146 145.596 345.055 145.228 344.873 144.905C344.695 144.579 344.449 144.322 344.135 144.134C343.821 143.946 343.462 143.851 343.059 143.848C342.77 143.845 342.473 143.89 342.168 143.982C341.863 144.071 341.613 144.187 341.416 144.328L340.345 144.199L340.917 139.545H345.829V140.561H341.877L341.545 143.349H341.6C341.794 143.196 342.037 143.068 342.33 142.966C342.622 142.865 342.927 142.814 343.244 142.814C343.822 142.814 344.338 142.952 344.79 143.229C345.246 143.503 345.603 143.879 345.861 144.356C346.123 144.833 346.254 145.378 346.254 145.99C346.254 146.593 346.118 147.132 345.847 147.606C345.58 148.077 345.21 148.449 344.739 148.723C344.269 148.994 343.733 149.129 343.133 149.129ZM352.907 147.227V146.729C352.907 146.384 352.978 146.069 353.12 145.782C353.264 145.493 353.473 145.262 353.747 145.09C354.024 144.914 354.36 144.827 354.754 144.827C355.154 144.827 355.489 144.914 355.76 145.09C356.031 145.262 356.236 145.493 356.374 145.782C356.513 146.069 356.582 146.384 356.582 146.729V147.227C356.582 147.572 356.511 147.889 356.37 148.178C356.231 148.464 356.025 148.695 355.751 148.871C355.48 149.043 355.148 149.129 354.754 149.129C354.354 149.129 354.017 149.043 353.743 148.871C353.469 148.695 353.261 148.464 353.12 148.178C352.978 147.889 352.907 147.572 352.907 147.227ZM353.849 146.729V147.227C353.849 147.513 353.917 147.77 354.052 147.998C354.187 148.223 354.421 148.335 354.754 148.335C355.077 148.335 355.305 148.223 355.437 147.998C355.572 147.77 355.64 147.513 355.64 147.227V146.729C355.64 146.442 355.576 146.187 355.446 145.962C355.317 145.735 355.086 145.621 354.754 145.621C354.431 145.621 354.198 145.735 354.057 145.962C353.918 146.187 353.849 146.442 353.849 146.729ZM348.198 141.817V141.318C348.198 140.973 348.269 140.658 348.411 140.372C348.555 140.083 348.765 139.852 349.039 139.679C349.316 139.504 349.651 139.416 350.045 139.416C350.445 139.416 350.781 139.504 351.051 139.679C351.322 139.852 351.527 140.083 351.665 140.372C351.804 140.658 351.873 140.973 351.873 141.318V141.817C351.873 142.161 351.802 142.478 351.661 142.768C351.522 143.054 351.316 143.285 351.042 143.46C350.771 143.633 350.439 143.719 350.045 143.719C349.645 143.719 349.308 143.633 349.034 143.46C348.76 143.285 348.552 143.054 348.411 142.768C348.269 142.478 348.198 142.161 348.198 141.817ZM349.14 141.318V141.817C349.14 142.103 349.208 142.36 349.343 142.588C349.479 142.812 349.713 142.925 350.045 142.925C350.368 142.925 350.596 142.812 350.728 142.588C350.864 142.36 350.931 142.103 350.931 141.817V141.318C350.931 141.032 350.867 140.777 350.737 140.552C350.608 140.324 350.377 140.21 350.045 140.21C349.722 140.21 349.489 140.324 349.348 140.552C349.209 140.777 349.14 141.032 349.14 141.318ZM348.549 149L355.049 139.545H356.102L349.602 149H348.549Z" fill="#1A1A1A"/>
</g>
<defs>
<filter id="filter0_dd_862_12628" x="248" y="92" width="36" height="36" filterUnits="userSpaceOnUse" color-interpolation-filters="sRGB">
<feFlood flood-opacity="0" result="BackgroundImageFix"/>
<feColorMatrix in="SourceAlpha" type="matrix" values="0 0 0 0 0 0 0 0 0 0 0 0 0 0 0 0 0 0 127 0" result="hardAlpha"/>
<feMorphology radius="2" operator="erode" in="SourceAlpha" result="effect1_dropShadow_862_12628"/>
<feOffset dy="2"/>
<feGaussianBlur stdDeviation="2"/>
<feColorMatrix type="matrix" values="0 0 0 0 0.0627451 0 0 0 0 0.0941176 0 0 0 0 0.156863 0 0 0 0.06 0"/>
<feBlend mode="normal" in2="BackgroundImageFix" result="effect1_dropShadow_862_12628"/>
<feColorMatrix in="SourceAlpha" type="matrix" values="0 0 0 0 0 0 0 0 0 0 0 0 0 0 0 0 0 0 127 0" result="hardAlpha"/>
<feMorphology radius="2" operator="erode" in="SourceAlpha" result="effect2_dropShadow_862_12628"/>
<feOffset dy="4"/>
<feGaussianBlur stdDeviation="4"/>
<feColorMatrix type="matrix" values="0 0 0 0 0.0627451 0 0 0 0 0.0941176 0 0 0 0 0.156863 0 0 0 0.1 0"/>
<feBlend mode="normal" in2="effect1_dropShadow_862_12628" result="effect2_dropShadow_862_12628"/>
<feBlend mode="normal" in="SourceGraphic" in2="effect2_dropShadow_862_12628" result="shape"/>
</filter>
<filter id="filter1_dd_862_12628" x="328" y="92" width="36" height="36" filterUnits="userSpaceOnUse" color-interpolation-filters="sRGB">
<feFlood flood-opacity="0" result="BackgroundImageFix"/>
<feColorMatrix in="SourceAlpha" type="matrix" values="0 0 0 0 0 0 0 0 0 0 0 0 0 0 0 0 0 0 127 0" result="hardAlpha"/>
<feMorphology radius="2" operator="erode" in="SourceAlpha" result="effect1_dropShadow_862_12628"/>
<feOffset dy="2"/>
<feGaussianBlur stdDeviation="2"/>
<feColorMatrix type="matrix" values="0 0 0 0 0.0627451 0 0 0 0 0.0941176 0 0 0 0 0.156863 0 0 0 0.06 0"/>
<feBlend mode="normal" in2="BackgroundImageFix" result="effect1_dropShadow_862_12628"/>
<feColorMatrix in="SourceAlpha" type="matrix" values="0 0 0 0 0 0 0 0 0 0 0 0 0 0 0 0 0 0 127 0" result="hardAlpha"/>
<feMorphology radius="2" operator="erode" in="SourceAlpha" result="effect2_dropShadow_862_12628"/>
<feOffset dy="4"/>
<feGaussianBlur stdDeviation="4"/>
<feColorMatrix type="matrix" values="0 0 0 0 0.0627451 0 0 0 0 0.0941176 0 0 0 0 0.156863 0 0 0 0.1 0"/>
<feBlend mode="normal" in2="effect1_dropShadow_862_12628" result="effect2_dropShadow_862_12628"/>
<feBlend mode="normal" in="SourceGraphic" in2="effect2_dropShadow_862_12628" result="shape"/>
</filter>
<filter id="filter2_dd_862_12628" x="231" y="122" width="67" height="62" filterUnits="userSpaceOnUse" color-interpolation-filters="sRGB">
<feFlood flood-opacity="0" result="BackgroundImageFix"/>
<feColorMatrix in="SourceAlpha" type="matrix" values="0 0 0 0 0 0 0 0 0 0 0 0 0 0 0 0 0 0 127 0" result="hardAlpha"/>
<feMorphology radius="2" operator="erode" in="SourceAlpha" result="effect1_dropShadow_862_12628"/>
<feOffset dy="4"/>
<feGaussianBlur stdDeviation="3"/>
<feColorMatrix type="matrix" values="0 0 0 0 0.0627451 0 0 0 0 0.0941176 0 0 0 0 0.156863 0 0 0 0.03 0"/>
<feBlend mode="normal" in2="BackgroundImageFix" result="effect1_dropShadow_862_12628"/>
<feColorMatrix in="SourceAlpha" type="matrix" values="0 0 0 0 0 0 0 0 0 0 0 0 0 0 0 0 0 0 127 0" result="hardAlpha"/>
<feMorphology radius="4" operator="erode" in="SourceAlpha" result="effect2_dropShadow_862_12628"/>
<feOffset dy="12"/>
<feGaussianBlur stdDeviation="8"/>
<feColorMatrix type="matrix" values="0 0 0 0 0.0627451 0 0 0 0 0.0941176 0 0 0 0 0.156863 0 0 0 0.08 0"/>
<feBlend mode="normal" in2="effect1_dropShadow_862_12628" result="effect2_dropShadow_862_12628"/>
<feBlend mode="normal" in="SourceGraphic" in2="effect2_dropShadow_862_12628" result="shape"/>
</filter>
<filter id="filter3_dd_862_12628" x="307" y="122" width="75" height="62" filterUnits="userSpaceOnUse" color-interpolation-filters="sRGB">
<feFlood flood-opacity="0" result="BackgroundImageFix"/>
<feColorMatrix in="SourceAlpha" type="matrix" values="0 0 0 0 0 0 0 0 0 0 0 0 0 0 0 0 0 0 127 0" result="hardAlpha"/>
<feMorphology radius="2" operator="erode" in="SourceAlpha" result="effect1_dropShadow_862_12628"/>
<feOffset dy="4"/>
<feGaussianBlur stdDeviation="3"/>
<feColorMatrix type="matrix" values="0 0 0 0 0.0627451 0 0 0 0 0.0941176 0 0 0 0 0.156863 0 0 0 0.03 0"/>
<feBlend mode="normal" in2="BackgroundImageFix" result="effect1_dropShadow_862_12628"/>
<feColorMatrix in="SourceAlpha" type="matrix" values="0 0 0 0 0 0 0 0 0 0 0 0 0 0 0 0 0 0 127 0" result="hardAlpha"/>
<feMorphology radius="4" operator="erode" in="SourceAlpha" result="effect2_dropShadow_862_12628"/>
<feOffset dy="12"/>
<feGaussianBlur stdDeviation="8"/>
<feColorMatrix type="matrix" values="0 0 0 0 0.0627451 0 0 0 0 0.0941176 0 0 0 0 0.156863 0 0 0 0.08 0"/>
<feBlend mode="normal" in2="effect1_dropShadow_862_12628" result="effect2_dropShadow_862_12628"/>
<feBlend mode="normal" in="SourceGraphic" in2="effect2_dropShadow_862_12628" result="shape"/>
</filter>
<clipPath id="clip0_862_12628">
<rect width="30" height="24" fill="white" transform="translate(218 98)"/>
</clipPath>
<clipPath id="clip1_862_12628">
<rect x="218" y="98" width="24" height="24" rx="12" fill="white"/>
</clipPath>
<clipPath id="clip2_862_12628">
<rect width="24" height="56" fill="white" transform="translate(414 46)"/>
</clipPath>
<clipPath id="clip3_862_12628">
<rect x="414" y="46" width="24" height="24" rx="12" fill="white"/>
</clipPath>
<clipPath id="clip4_862_12628">
<rect width="24" height="68" fill="white" transform="translate(294 110)"/>
</clipPath>
<clipPath id="clip5_862_12628">
<rect x="294" y="154" width="24" height="24" rx="12" fill="white"/>
</clipPath>
<clipPath id="clip6_862_12628">
<rect width="24" height="46" fill="white" transform="translate(254 46)"/>
</clipPath>
<clipPath id="clip7_862_12628">
<rect x="254" y="46" width="24" height="24" rx="12" fill="white"/>
</clipPath>
<clipPath id="clip8_862_12628">
<rect width="24" height="46" fill="white" transform="translate(334 46)"/>
</clipPath>
<clipPath id="clip9_862_12628">
<rect x="334" y="46" width="24" height="24" rx="12" fill="white"/>
</clipPath>
</defs>
</svg>
