<svg width="804" height="325" viewBox="0 0 804 325" fill="none" xmlns="http://www.w3.org/2000/svg">
<rect width="804" height="325" fill="#F9FAFB"/>
<rect x="438" y="80" width="216" height="8" rx="4" fill="#EFEFEF"/>
<rect x="438" y="80" width="54" height="8" rx="4" fill="#217CF5"/>
<g filter="url(#filter0_dd_862_12713)">
<circle cx="438" cy="84" r="12" fill="white"/>
<circle cx="438" cy="84" r="11.5" stroke="#217CF5"/>
</g>
<path d="M430.062 121.129C429.367 121.129 428.775 120.94 428.285 120.561C427.796 120.18 427.422 119.627 427.163 118.904C426.905 118.178 426.776 117.301 426.776 116.273C426.776 115.251 426.905 114.378 427.163 113.655C427.425 112.929 427.8 112.375 428.29 111.993C428.782 111.609 429.373 111.416 430.062 111.416C430.752 111.416 431.341 111.609 431.831 111.993C432.323 112.375 432.699 112.929 432.957 113.655C433.219 114.378 433.349 115.251 433.349 116.273C433.349 117.301 433.22 118.178 432.962 118.904C432.703 119.627 432.329 120.18 431.84 120.561C431.35 120.94 430.758 121.129 430.062 121.129ZM430.062 120.114C430.752 120.114 431.287 119.781 431.669 119.116C432.051 118.452 432.241 117.504 432.241 116.273C432.241 115.454 432.154 114.757 431.978 114.181C431.806 113.606 431.557 113.167 431.23 112.866C430.907 112.564 430.518 112.413 430.062 112.413C429.379 112.413 428.845 112.75 428.461 113.424C428.076 114.095 427.884 115.045 427.884 116.273C427.884 117.091 427.97 117.787 428.142 118.359C428.314 118.932 428.562 119.367 428.885 119.666C429.212 119.964 429.604 120.114 430.062 120.114ZM439.923 119.227V118.729C439.923 118.384 439.994 118.069 440.136 117.782C440.28 117.493 440.49 117.262 440.763 117.09C441.04 116.914 441.376 116.827 441.77 116.827C442.17 116.827 442.505 116.914 442.776 117.09C443.047 117.262 443.252 117.493 443.39 117.782C443.529 118.069 443.598 118.384 443.598 118.729V119.227C443.598 119.572 443.527 119.889 443.386 120.178C443.247 120.464 443.041 120.695 442.767 120.871C442.496 121.043 442.164 121.129 441.77 121.129C441.37 121.129 441.033 121.043 440.759 120.871C440.485 120.695 440.277 120.464 440.136 120.178C439.994 119.889 439.923 119.572 439.923 119.227ZM440.865 118.729V119.227C440.865 119.513 440.933 119.77 441.068 119.998C441.204 120.223 441.438 120.335 441.77 120.335C442.093 120.335 442.321 120.223 442.453 119.998C442.589 119.77 442.656 119.513 442.656 119.227V118.729C442.656 118.442 442.592 118.187 442.462 117.962C442.333 117.735 442.102 117.621 441.77 117.621C441.447 117.621 441.214 117.735 441.073 117.962C440.934 118.187 440.865 118.442 440.865 118.729ZM435.214 113.817V113.318C435.214 112.973 435.285 112.658 435.427 112.372C435.571 112.083 435.781 111.852 436.055 111.679C436.332 111.504 436.667 111.416 437.061 111.416C437.461 111.416 437.797 111.504 438.067 111.679C438.338 111.852 438.543 112.083 438.681 112.372C438.82 112.658 438.889 112.973 438.889 113.318V113.817C438.889 114.161 438.818 114.478 438.677 114.768C438.538 115.054 438.332 115.285 438.058 115.46C437.787 115.633 437.455 115.719 437.061 115.719C436.661 115.719 436.324 115.633 436.05 115.46C435.776 115.285 435.568 115.054 435.427 114.768C435.285 114.478 435.214 114.161 435.214 113.817ZM436.156 113.318V113.817C436.156 114.103 436.224 114.36 436.359 114.588C436.495 114.812 436.729 114.925 437.061 114.925C437.384 114.925 437.612 114.812 437.744 114.588C437.88 114.36 437.947 114.103 437.947 113.817V113.318C437.947 113.032 437.883 112.777 437.754 112.552C437.624 112.324 437.393 112.21 437.061 112.21C436.738 112.21 436.506 112.324 436.364 112.552C436.225 112.777 436.156 113.032 436.156 113.318ZM435.565 121L442.065 111.545H443.118L436.618 121H435.565Z" fill="#1A1A1A"/>
<g filter="url(#filter1_dd_862_12713)">
<circle cx="492" cy="84" r="12" fill="white"/>
<circle cx="492" cy="84" r="11.5" stroke="#217CF5"/>
</g>
<path d="M480.307 121V120.169L483.428 116.753C483.794 116.353 484.096 116.005 484.333 115.71C484.57 115.411 484.745 115.131 484.859 114.869C484.976 114.605 485.035 114.328 485.035 114.038C485.035 113.706 484.955 113.418 484.795 113.175C484.638 112.932 484.422 112.744 484.148 112.612C483.874 112.48 483.567 112.413 483.225 112.413C482.862 112.413 482.545 112.489 482.274 112.64C482.006 112.787 481.798 112.995 481.651 113.263C481.506 113.531 481.434 113.844 481.434 114.205H480.344C480.344 113.651 480.472 113.164 480.727 112.746C480.983 112.327 481.331 112.001 481.771 111.767C482.214 111.533 482.711 111.416 483.262 111.416C483.816 111.416 484.307 111.533 484.735 111.767C485.162 112.001 485.498 112.316 485.741 112.713C485.984 113.11 486.106 113.552 486.106 114.038C486.106 114.386 486.043 114.726 485.916 115.059C485.793 115.388 485.578 115.756 485.27 116.162C484.965 116.565 484.542 117.058 484 117.639L481.877 119.911V119.984H486.272V121H480.307ZM491.133 121.129C490.591 121.129 490.103 121.022 489.67 120.806C489.236 120.591 488.888 120.295 488.626 119.92C488.365 119.544 488.221 119.116 488.197 118.636H489.305C489.348 119.064 489.542 119.418 489.886 119.698C490.234 119.975 490.65 120.114 491.133 120.114C491.521 120.114 491.865 120.023 492.167 119.841C492.472 119.66 492.71 119.41 492.883 119.093C493.058 118.773 493.146 118.412 493.146 118.009C493.146 117.596 493.055 117.228 492.873 116.905C492.695 116.579 492.449 116.322 492.135 116.134C491.821 115.946 491.462 115.851 491.059 115.848C490.77 115.845 490.473 115.89 490.168 115.982C489.863 116.071 489.613 116.187 489.416 116.328L488.345 116.199L488.917 111.545H493.829V112.561H489.877L489.545 115.349H489.6C489.794 115.196 490.037 115.068 490.33 114.966C490.622 114.865 490.927 114.814 491.244 114.814C491.822 114.814 492.338 114.952 492.79 115.229C493.246 115.503 493.603 115.879 493.861 116.356C494.123 116.833 494.254 117.378 494.254 117.99C494.254 118.593 494.118 119.132 493.847 119.606C493.58 120.077 493.21 120.449 492.739 120.723C492.269 120.994 491.733 121.129 491.133 121.129ZM500.907 119.227V118.729C500.907 118.384 500.978 118.069 501.12 117.782C501.264 117.493 501.473 117.262 501.747 117.09C502.024 116.914 502.36 116.827 502.754 116.827C503.154 116.827 503.489 116.914 503.76 117.09C504.031 117.262 504.236 117.493 504.374 117.782C504.513 118.069 504.582 118.384 504.582 118.729V119.227C504.582 119.572 504.511 119.889 504.37 120.178C504.231 120.464 504.025 120.695 503.751 120.871C503.48 121.043 503.148 121.129 502.754 121.129C502.354 121.129 502.017 121.043 501.743 120.871C501.469 120.695 501.261 120.464 501.12 120.178C500.978 119.889 500.907 119.572 500.907 119.227ZM501.849 118.729V119.227C501.849 119.513 501.917 119.77 502.052 119.998C502.187 120.223 502.421 120.335 502.754 120.335C503.077 120.335 503.305 120.223 503.437 119.998C503.572 119.77 503.64 119.513 503.64 119.227V118.729C503.64 118.442 503.576 118.187 503.446 117.962C503.317 117.735 503.086 117.621 502.754 117.621C502.431 117.621 502.198 117.735 502.057 117.962C501.918 118.187 501.849 118.442 501.849 118.729ZM496.198 113.817V113.318C496.198 112.973 496.269 112.658 496.411 112.372C496.555 112.083 496.765 111.852 497.039 111.679C497.316 111.504 497.651 111.416 498.045 111.416C498.445 111.416 498.781 111.504 499.051 111.679C499.322 111.852 499.527 112.083 499.665 112.372C499.804 112.658 499.873 112.973 499.873 113.318V113.817C499.873 114.161 499.802 114.478 499.661 114.768C499.522 115.054 499.316 115.285 499.042 115.46C498.771 115.633 498.439 115.719 498.045 115.719C497.645 115.719 497.308 115.633 497.034 115.46C496.76 115.285 496.552 115.054 496.411 114.768C496.269 114.478 496.198 114.161 496.198 113.817ZM497.14 113.318V113.817C497.14 114.103 497.208 114.36 497.343 114.588C497.479 114.812 497.713 114.925 498.045 114.925C498.368 114.925 498.596 114.812 498.728 114.588C498.864 114.36 498.931 114.103 498.931 113.817V113.318C498.931 113.032 498.867 112.777 498.737 112.552C498.608 112.324 498.377 112.21 498.045 112.21C497.722 112.21 497.489 112.324 497.348 112.552C497.209 112.777 497.14 113.032 497.14 113.318ZM496.549 121L503.049 111.545H504.102L497.602 121H496.549Z" fill="#1A1A1A"/>
<path d="M427.057 62V53.2727H430.108C430.716 53.2727 431.217 53.3778 431.612 53.5881C432.007 53.7955 432.301 54.0753 432.494 54.4276C432.688 54.777 432.784 55.1648 432.784 55.5909C432.784 55.9659 432.717 56.2756 432.584 56.5199C432.453 56.7642 432.28 56.9574 432.064 57.0994C431.851 57.2415 431.619 57.3466 431.369 57.4148V57.5C431.636 57.517 431.905 57.6108 432.175 57.7812C432.445 57.9517 432.67 58.196 432.852 58.5142C433.034 58.8324 433.125 59.2216 433.125 59.6818C433.125 60.1193 433.026 60.5128 432.827 60.8622C432.628 61.2116 432.314 61.4886 431.885 61.6932C431.456 61.8977 430.898 62 430.21 62H427.057ZM428.114 61.0625H430.21C430.901 61.0625 431.391 60.929 431.68 60.6619C431.973 60.392 432.119 60.0653 432.119 59.6818C432.119 59.3864 432.044 59.1136 431.893 58.8636C431.743 58.6108 431.528 58.4091 431.25 58.2585C430.972 58.1051 430.642 58.0284 430.261 58.0284H428.114V61.0625ZM428.114 57.108H430.074C430.392 57.108 430.679 57.0455 430.935 56.9205C431.193 56.7955 431.398 56.6193 431.548 56.392C431.702 56.1648 431.778 55.8977 431.778 55.5909C431.778 55.2074 431.645 54.8821 431.378 54.6151C431.111 54.3452 430.688 54.2102 430.108 54.2102H428.114V57.108ZM437.384 62.1364C436.793 62.1364 436.275 61.9957 435.829 61.7145C435.386 61.4332 435.039 61.0398 434.789 60.5341C434.542 60.0284 434.418 59.4375 434.418 58.7614C434.418 58.0795 434.542 57.4844 434.789 56.9759C435.039 56.4673 435.386 56.0724 435.829 55.7912C436.275 55.5099 436.793 55.3693 437.384 55.3693C437.975 55.3693 438.492 55.5099 438.935 55.7912C439.381 56.0724 439.728 56.4673 439.975 56.9759C440.225 57.4844 440.35 58.0795 440.35 58.7614C440.35 59.4375 440.225 60.0284 439.975 60.5341C439.728 61.0398 439.381 61.4332 438.935 61.7145C438.492 61.9957 437.975 62.1364 437.384 62.1364ZM437.384 61.233C437.833 61.233 438.202 61.1179 438.492 60.8878C438.782 60.6577 438.996 60.3551 439.136 59.9801C439.275 59.6051 439.344 59.1989 439.344 58.7614C439.344 58.3239 439.275 57.9162 439.136 57.5384C438.996 57.1605 438.782 56.8551 438.492 56.6222C438.202 56.3892 437.833 56.2727 437.384 56.2727C436.935 56.2727 436.566 56.3892 436.276 56.6222C435.987 56.8551 435.772 57.1605 435.633 57.5384C435.494 57.9162 435.424 58.3239 435.424 58.7614C435.424 59.1989 435.494 59.6051 435.633 59.9801C435.772 60.3551 435.987 60.6577 436.276 60.8878C436.566 61.1179 436.935 61.233 437.384 61.233ZM444.732 55.4545V56.3068H441.34V55.4545H444.732ZM442.328 53.8864H443.334V60.125C443.334 60.4091 443.375 60.6222 443.458 60.7642C443.543 60.9034 443.651 60.9972 443.782 61.0455C443.915 61.0909 444.056 61.1136 444.203 61.1136C444.314 61.1136 444.405 61.108 444.476 61.0966C444.547 61.0824 444.604 61.071 444.647 61.0625L444.851 61.9659C444.783 61.9915 444.688 62.017 444.566 62.0426C444.444 62.071 444.289 62.0852 444.101 62.0852C443.817 62.0852 443.539 62.0241 443.266 61.902C442.996 61.7798 442.772 61.5938 442.593 61.3438C442.417 61.0938 442.328 60.7784 442.328 60.3977V53.8864ZM449.091 55.4545V56.3068H445.699V55.4545H449.091ZM446.688 53.8864H447.694V60.125C447.694 60.4091 447.735 60.6222 447.817 60.7642C447.902 60.9034 448.01 60.9972 448.141 61.0455C448.275 61.0909 448.415 61.1136 448.563 61.1136C448.674 61.1136 448.765 61.108 448.836 61.0966C448.907 61.0824 448.963 61.071 449.006 61.0625L449.211 61.9659C449.142 61.9915 449.047 62.017 448.925 62.0426C448.803 62.071 448.648 62.0852 448.461 62.0852C448.176 62.0852 447.898 62.0241 447.625 61.902C447.355 61.7798 447.131 61.5938 446.952 61.3438C446.776 61.0938 446.688 60.7784 446.688 60.3977V53.8864ZM453.193 62.1364C452.602 62.1364 452.083 61.9957 451.637 61.7145C451.194 61.4332 450.848 61.0398 450.598 60.5341C450.35 60.0284 450.227 59.4375 450.227 58.7614C450.227 58.0795 450.35 57.4844 450.598 56.9759C450.848 56.4673 451.194 56.0724 451.637 55.7912C452.083 55.5099 452.602 55.3693 453.193 55.3693C453.784 55.3693 454.301 55.5099 454.744 55.7912C455.19 56.0724 455.537 56.4673 455.784 56.9759C456.034 57.4844 456.159 58.0795 456.159 58.7614C456.159 59.4375 456.034 60.0284 455.784 60.5341C455.537 61.0398 455.19 61.4332 454.744 61.7145C454.301 61.9957 453.784 62.1364 453.193 62.1364ZM453.193 61.233C453.642 61.233 454.011 61.1179 454.301 60.8878C454.591 60.6577 454.805 60.3551 454.944 59.9801C455.083 59.6051 455.153 59.1989 455.153 58.7614C455.153 58.3239 455.083 57.9162 454.944 57.5384C454.805 57.1605 454.591 56.8551 454.301 56.6222C454.011 56.3892 453.642 56.2727 453.193 56.2727C452.744 56.2727 452.375 56.3892 452.085 56.6222C451.795 56.8551 451.581 57.1605 451.441 57.5384C451.302 57.9162 451.233 58.3239 451.233 58.7614C451.233 59.1989 451.302 59.6051 451.441 59.9801C451.581 60.3551 451.795 60.6577 452.085 60.8878C452.375 61.1179 452.744 61.233 453.193 61.233ZM457.694 62V55.4545H458.665V56.4773H458.751C458.887 56.1278 459.107 55.8565 459.411 55.6634C459.715 55.4673 460.08 55.3693 460.506 55.3693C460.938 55.3693 461.298 55.4673 461.585 55.6634C461.874 55.8565 462.1 56.1278 462.262 56.4773H462.33C462.498 56.1392 462.749 55.8707 463.085 55.6719C463.42 55.4702 463.822 55.3693 464.29 55.3693C464.876 55.3693 465.354 55.5526 465.727 55.919C466.099 56.2827 466.285 56.8494 466.285 57.6193V62H465.279V57.6193C465.279 57.1364 465.147 56.7912 464.883 56.5838C464.619 56.3764 464.308 56.2727 463.95 56.2727C463.489 56.2727 463.133 56.4119 462.88 56.6903C462.627 56.9659 462.501 57.3153 462.501 57.7386V62H461.478V57.517C461.478 57.1449 461.357 56.8452 461.116 56.6179C460.874 56.3878 460.563 56.2727 460.183 56.2727C459.921 56.2727 459.677 56.3423 459.45 56.4815C459.225 56.6207 459.043 56.8139 458.904 57.0611C458.768 57.3054 458.7 57.5881 458.7 57.9091V62H457.694Z" fill="black"/>
<rect x="436" y="248" width="216" height="8" rx="4" fill="#EFEFEF"/>
<rect x="436" y="248" width="54" height="8" rx="4" fill="#217CF5"/>
<g filter="url(#filter2_dd_862_12713)">
<circle cx="436" cy="252" r="12" fill="white"/>
<circle cx="436" cy="252" r="11.5" stroke="#217CF5"/>
</g>
<g filter="url(#filter3_dd_862_12713)">
<rect x="414.5" y="198" width="43" height="32" rx="8" fill="white"/>
<path d="M430.719 219.129C430.023 219.129 429.431 218.94 428.941 218.561C428.452 218.18 428.078 217.627 427.82 216.904C427.561 216.178 427.432 215.301 427.432 214.273C427.432 213.251 427.561 212.378 427.82 211.655C428.081 210.929 428.457 210.375 428.946 209.993C429.438 209.609 430.029 209.416 430.719 209.416C431.408 209.416 431.998 209.609 432.487 209.993C432.979 210.375 433.355 210.929 433.613 211.655C433.875 212.378 434.006 213.251 434.006 214.273C434.006 215.301 433.876 216.178 433.618 216.904C433.359 217.627 432.985 218.18 432.496 218.561C432.007 218.94 431.414 219.129 430.719 219.129ZM430.719 218.114C431.408 218.114 431.944 217.781 432.325 217.116C432.707 216.452 432.898 215.504 432.898 214.273C432.898 213.454 432.81 212.757 432.635 212.181C432.462 211.606 432.213 211.167 431.887 210.866C431.564 210.564 431.174 210.413 430.719 210.413C430.036 210.413 429.502 210.75 429.117 211.424C428.732 212.095 428.54 213.045 428.54 214.273C428.54 215.091 428.626 215.787 428.798 216.359C428.971 216.932 429.218 217.367 429.542 217.666C429.868 217.964 430.26 218.114 430.719 218.114ZM440.58 217.227V216.729C440.58 216.384 440.65 216.069 440.792 215.782C440.937 215.493 441.146 215.262 441.42 215.09C441.697 214.914 442.032 214.827 442.426 214.827C442.826 214.827 443.162 214.914 443.433 215.09C443.703 215.262 443.908 215.493 444.047 215.782C444.185 216.069 444.254 216.384 444.254 216.729V217.227C444.254 217.572 444.183 217.889 444.042 218.178C443.903 218.464 443.697 218.695 443.423 218.871C443.152 219.043 442.82 219.129 442.426 219.129C442.026 219.129 441.689 219.043 441.415 218.871C441.141 218.695 440.933 218.464 440.792 218.178C440.65 217.889 440.58 217.572 440.58 217.227ZM441.521 216.729V217.227C441.521 217.513 441.589 217.77 441.724 217.998C441.86 218.223 442.094 218.335 442.426 218.335C442.749 218.335 442.977 218.223 443.109 217.998C443.245 217.77 443.312 217.513 443.312 217.227V216.729C443.312 216.442 443.248 216.187 443.119 215.962C442.989 215.735 442.759 215.621 442.426 215.621C442.103 215.621 441.871 215.735 441.729 215.962C441.591 216.187 441.521 216.442 441.521 216.729ZM435.871 211.817V211.318C435.871 210.973 435.942 210.658 436.083 210.372C436.228 210.083 436.437 209.852 436.711 209.679C436.988 209.504 437.323 209.416 437.717 209.416C438.117 209.416 438.453 209.504 438.724 209.679C438.995 209.852 439.199 210.083 439.338 210.372C439.476 210.658 439.545 210.973 439.545 211.318V211.817C439.545 212.161 439.475 212.478 439.333 212.768C439.195 213.054 438.988 213.285 438.714 213.46C438.444 213.633 438.111 213.719 437.717 213.719C437.317 213.719 436.98 213.633 436.706 213.46C436.432 213.285 436.225 213.054 436.083 212.768C435.942 212.478 435.871 212.161 435.871 211.817ZM436.812 211.318V211.817C436.812 212.103 436.88 212.36 437.016 212.588C437.151 212.812 437.385 212.925 437.717 212.925C438.04 212.925 438.268 212.812 438.401 212.588C438.536 212.36 438.604 212.103 438.604 211.817V211.318C438.604 211.032 438.539 210.777 438.41 210.552C438.281 210.324 438.05 210.21 437.717 210.21C437.394 210.21 437.162 210.324 437.02 210.552C436.882 210.777 436.812 211.032 436.812 211.318ZM436.222 219L442.722 209.545H443.774L437.274 219H436.222Z" fill="#1A1A1A"/>
<path d="M442.071 227.485C442.962 227.485 443.408 228.562 442.778 229.192L436.707 235.263C436.317 235.654 435.683 235.654 435.293 235.263L429.222 229.192C428.592 228.562 429.038 227.485 429.929 227.485H442.071Z" fill="white"/>
</g>
<g filter="url(#filter4_dd_862_12713)">
<circle cx="490" cy="252" r="12" fill="white"/>
<circle cx="490" cy="252" r="11.5" stroke="#217CF5"/>
</g>
<g filter="url(#filter5_dd_862_12713)">
<rect x="464.5" y="198" width="51" height="32" rx="8" fill="white"/>
<path d="M477.807 219V218.169L480.928 214.753C481.294 214.353 481.596 214.005 481.833 213.71C482.07 213.411 482.245 213.131 482.359 212.869C482.476 212.605 482.535 212.328 482.535 212.038C482.535 211.706 482.455 211.418 482.295 211.175C482.138 210.932 481.922 210.744 481.648 210.612C481.374 210.48 481.067 210.413 480.725 210.413C480.362 210.413 480.045 210.489 479.774 210.64C479.506 210.787 479.298 210.995 479.151 211.263C479.006 211.531 478.934 211.844 478.934 212.205H477.844C477.844 211.651 477.972 211.164 478.227 210.746C478.483 210.327 478.831 210.001 479.271 209.767C479.714 209.533 480.211 209.416 480.762 209.416C481.316 209.416 481.807 209.533 482.235 209.767C482.662 210.001 482.998 210.316 483.241 210.713C483.484 211.11 483.606 211.552 483.606 212.038C483.606 212.386 483.543 212.726 483.416 213.059C483.293 213.388 483.078 213.756 482.77 214.162C482.465 214.565 482.042 215.058 481.5 215.639L479.377 217.911V217.984H483.772V219H477.807ZM488.633 219.129C488.091 219.129 487.603 219.022 487.17 218.806C486.736 218.591 486.388 218.295 486.126 217.92C485.865 217.544 485.721 217.116 485.697 216.636H486.805C486.848 217.064 487.042 217.418 487.386 217.698C487.734 217.975 488.15 218.114 488.633 218.114C489.021 218.114 489.365 218.023 489.667 217.841C489.972 217.66 490.21 217.41 490.383 217.093C490.558 216.773 490.646 216.412 490.646 216.009C490.646 215.596 490.555 215.228 490.373 214.905C490.195 214.579 489.949 214.322 489.635 214.134C489.321 213.946 488.962 213.851 488.559 213.848C488.27 213.845 487.973 213.89 487.668 213.982C487.363 214.071 487.113 214.187 486.916 214.328L485.845 214.199L486.417 209.545H491.329V210.561H487.377L487.045 213.349H487.1C487.294 213.196 487.537 213.068 487.83 212.966C488.122 212.865 488.427 212.814 488.744 212.814C489.322 212.814 489.838 212.952 490.29 213.229C490.746 213.503 491.103 213.879 491.361 214.356C491.623 214.833 491.754 215.378 491.754 215.99C491.754 216.593 491.618 217.132 491.347 217.606C491.08 218.077 490.71 218.449 490.239 218.723C489.769 218.994 489.233 219.129 488.633 219.129ZM498.407 217.227V216.729C498.407 216.384 498.478 216.069 498.62 215.782C498.764 215.493 498.973 215.262 499.247 215.09C499.524 214.914 499.86 214.827 500.254 214.827C500.654 214.827 500.989 214.914 501.26 215.09C501.531 215.262 501.736 215.493 501.874 215.782C502.013 216.069 502.082 216.384 502.082 216.729V217.227C502.082 217.572 502.011 217.889 501.87 218.178C501.731 218.464 501.525 218.695 501.251 218.871C500.98 219.043 500.648 219.129 500.254 219.129C499.854 219.129 499.517 219.043 499.243 218.871C498.969 218.695 498.761 218.464 498.62 218.178C498.478 217.889 498.407 217.572 498.407 217.227ZM499.349 216.729V217.227C499.349 217.513 499.417 217.77 499.552 217.998C499.687 218.223 499.921 218.335 500.254 218.335C500.577 218.335 500.805 218.223 500.937 217.998C501.072 217.77 501.14 217.513 501.14 217.227V216.729C501.14 216.442 501.076 216.187 500.946 215.962C500.817 215.735 500.586 215.621 500.254 215.621C499.931 215.621 499.698 215.735 499.557 215.962C499.418 216.187 499.349 216.442 499.349 216.729ZM493.698 211.817V211.318C493.698 210.973 493.769 210.658 493.911 210.372C494.055 210.083 494.265 209.852 494.539 209.679C494.816 209.504 495.151 209.416 495.545 209.416C495.945 209.416 496.281 209.504 496.551 209.679C496.822 209.852 497.027 210.083 497.165 210.372C497.304 210.658 497.373 210.973 497.373 211.318V211.817C497.373 212.161 497.302 212.478 497.161 212.768C497.022 213.054 496.816 213.285 496.542 213.46C496.271 213.633 495.939 213.719 495.545 213.719C495.145 213.719 494.808 213.633 494.534 213.46C494.26 213.285 494.052 213.054 493.911 212.768C493.769 212.478 493.698 212.161 493.698 211.817ZM494.64 211.318V211.817C494.64 212.103 494.708 212.36 494.843 212.588C494.979 212.812 495.213 212.925 495.545 212.925C495.868 212.925 496.096 212.812 496.228 212.588C496.364 212.36 496.431 212.103 496.431 211.817V211.318C496.431 211.032 496.367 210.777 496.237 210.552C496.108 210.324 495.877 210.21 495.545 210.21C495.222 210.21 494.989 210.324 494.848 210.552C494.709 210.777 494.64 211.032 494.64 211.318ZM494.049 219L500.549 209.545H501.602L495.102 219H494.049Z" fill="#1A1A1A"/>
<path d="M496.071 227.485C496.962 227.485 497.408 228.562 496.778 229.192L490.707 235.263C490.317 235.654 489.683 235.654 489.293 235.263L483.222 229.192C482.592 228.562 483.038 227.485 483.929 227.485H496.071Z" fill="white"/>
</g>
<path d="M426.58 180.21V179.273H433.125V180.21H430.381V188H429.324V180.21H426.58ZM436.33 188.136C435.739 188.136 435.22 187.996 434.774 187.714C434.331 187.433 433.984 187.04 433.734 186.534C433.487 186.028 433.364 185.437 433.364 184.761C433.364 184.08 433.487 183.484 433.734 182.976C433.984 182.467 434.331 182.072 434.774 181.791C435.22 181.51 435.739 181.369 436.33 181.369C436.92 181.369 437.438 181.51 437.881 181.791C438.327 182.072 438.673 182.467 438.92 182.976C439.17 183.484 439.295 184.08 439.295 184.761C439.295 185.437 439.17 186.028 438.92 186.534C438.673 187.04 438.327 187.433 437.881 187.714C437.438 187.996 436.92 188.136 436.33 188.136ZM436.33 187.233C436.778 187.233 437.148 187.118 437.438 186.888C437.727 186.658 437.942 186.355 438.081 185.98C438.22 185.605 438.29 185.199 438.29 184.761C438.29 184.324 438.22 183.916 438.081 183.538C437.942 183.161 437.727 182.855 437.438 182.622C437.148 182.389 436.778 182.273 436.33 182.273C435.881 182.273 435.511 182.389 435.222 182.622C434.932 182.855 434.717 183.161 434.578 183.538C434.439 183.916 434.369 184.324 434.369 184.761C434.369 185.199 434.439 185.605 434.578 185.98C434.717 186.355 434.932 186.658 435.222 186.888C435.511 187.118 435.881 187.233 436.33 187.233ZM440.831 190.455V181.455H441.802V182.494H441.922C441.995 182.381 442.098 182.236 442.228 182.06C442.362 181.881 442.552 181.722 442.799 181.582C443.049 181.44 443.387 181.369 443.814 181.369C444.365 181.369 444.85 181.507 445.271 181.783C445.691 182.058 446.02 182.449 446.255 182.955C446.491 183.46 446.609 184.057 446.609 184.744C446.609 185.438 446.491 186.038 446.255 186.547C446.02 187.053 445.693 187.445 445.275 187.723C444.858 187.999 444.376 188.136 443.831 188.136C443.41 188.136 443.074 188.067 442.821 187.928C442.568 187.786 442.373 187.625 442.237 187.446C442.1 187.264 441.995 187.114 441.922 186.994H441.836V190.455H440.831ZM441.819 184.727C441.819 185.222 441.892 185.658 442.037 186.036C442.181 186.411 442.393 186.705 442.672 186.918C442.95 187.128 443.291 187.233 443.694 187.233C444.115 187.233 444.466 187.122 444.747 186.901C445.031 186.676 445.244 186.375 445.386 185.997C445.531 185.616 445.603 185.193 445.603 184.727C445.603 184.267 445.532 183.852 445.39 183.483C445.251 183.111 445.039 182.817 444.755 182.601C444.474 182.382 444.12 182.273 443.694 182.273C443.285 182.273 442.941 182.376 442.663 182.584C442.385 182.788 442.174 183.075 442.032 183.445C441.89 183.811 441.819 184.239 441.819 184.727ZM454.433 181.455V182.307H450.904V181.455H454.433ZM451.961 188V180.551C451.961 180.176 452.049 179.864 452.225 179.614C452.402 179.364 452.63 179.176 452.912 179.051C453.193 178.926 453.49 178.864 453.802 178.864C454.049 178.864 454.251 178.884 454.407 178.923C454.564 178.963 454.68 179 454.757 179.034L454.467 179.903C454.416 179.886 454.345 179.865 454.254 179.839C454.166 179.814 454.049 179.801 453.904 179.801C453.572 179.801 453.332 179.885 453.184 180.053C453.039 180.22 452.967 180.466 452.967 180.79V188H451.961ZM456.848 179.273V188H455.842V179.273H456.848ZM461.349 188.136C460.758 188.136 460.24 187.996 459.794 187.714C459.35 187.433 459.004 187.04 458.754 186.534C458.507 186.028 458.383 185.437 458.383 184.761C458.383 184.08 458.507 183.484 458.754 182.976C459.004 182.467 459.35 182.072 459.794 181.791C460.24 181.51 460.758 181.369 461.349 181.369C461.94 181.369 462.457 181.51 462.9 181.791C463.346 182.072 463.693 182.467 463.94 182.976C464.19 183.484 464.315 184.08 464.315 184.761C464.315 185.437 464.19 186.028 463.94 186.534C463.693 187.04 463.346 187.433 462.9 187.714C462.457 187.996 461.94 188.136 461.349 188.136ZM461.349 187.233C461.798 187.233 462.167 187.118 462.457 186.888C462.747 186.658 462.961 186.355 463.1 185.98C463.24 185.605 463.309 185.199 463.309 184.761C463.309 184.324 463.24 183.916 463.1 183.538C462.961 183.161 462.747 182.855 462.457 182.622C462.167 182.389 461.798 182.273 461.349 182.273C460.9 182.273 460.531 182.389 460.241 182.622C459.951 182.855 459.737 183.161 459.598 183.538C459.458 183.916 459.389 184.324 459.389 184.761C459.389 185.199 459.458 185.605 459.598 185.98C459.737 186.355 459.951 186.658 460.241 186.888C460.531 187.118 460.9 187.233 461.349 187.233ZM467.776 188.153C467.362 188.153 466.985 188.075 466.647 187.919C466.309 187.76 466.04 187.531 465.842 187.233C465.643 186.932 465.543 186.568 465.543 186.142C465.543 185.767 465.617 185.463 465.765 185.23C465.913 184.994 466.11 184.81 466.357 184.676C466.604 184.543 466.877 184.443 467.175 184.378C467.477 184.31 467.779 184.256 468.083 184.216C468.481 184.165 468.803 184.126 469.05 184.101C469.3 184.072 469.482 184.026 469.596 183.96C469.712 183.895 469.771 183.781 469.771 183.619V183.585C469.771 183.165 469.656 182.838 469.425 182.605C469.198 182.372 468.853 182.256 468.39 182.256C467.91 182.256 467.533 182.361 467.261 182.571C466.988 182.781 466.796 183.006 466.685 183.244L465.731 182.903C465.901 182.506 466.129 182.196 466.413 181.974C466.7 181.75 467.012 181.594 467.35 181.506C467.691 181.415 468.026 181.369 468.356 181.369C468.566 181.369 468.808 181.395 469.08 181.446C469.356 181.494 469.621 181.595 469.877 181.749C470.136 181.902 470.35 182.134 470.521 182.443C470.691 182.753 470.776 183.168 470.776 183.688V188H469.771V187.114H469.719C469.651 187.256 469.538 187.408 469.379 187.57C469.219 187.732 469.008 187.869 468.744 187.983C468.479 188.097 468.157 188.153 467.776 188.153ZM467.93 187.25C468.327 187.25 468.663 187.172 468.935 187.016C469.211 186.859 469.418 186.658 469.558 186.411C469.7 186.163 469.771 185.903 469.771 185.631V184.71C469.728 184.761 469.634 184.808 469.489 184.851C469.347 184.891 469.183 184.926 468.995 184.957C468.81 184.986 468.63 185.011 468.454 185.034C468.281 185.054 468.14 185.071 468.032 185.085C467.771 185.119 467.526 185.175 467.299 185.251C467.075 185.325 466.893 185.437 466.754 185.588C466.617 185.736 466.549 185.937 466.549 186.193C466.549 186.543 466.678 186.807 466.937 186.986C467.198 187.162 467.529 187.25 467.93 187.25ZM475.458 181.455V182.307H472.066V181.455H475.458ZM473.055 179.886H474.061V186.125C474.061 186.409 474.102 186.622 474.184 186.764C474.27 186.903 474.377 186.997 474.508 187.045C474.642 187.091 474.782 187.114 474.93 187.114C475.041 187.114 475.132 187.108 475.203 187.097C475.274 187.082 475.331 187.071 475.373 187.062L475.578 187.966C475.51 187.991 475.414 188.017 475.292 188.043C475.17 188.071 475.015 188.085 474.828 188.085C474.544 188.085 474.265 188.024 473.993 187.902C473.723 187.78 473.498 187.594 473.319 187.344C473.143 187.094 473.055 186.778 473.055 186.398V179.886ZM476.971 188V181.455H477.977V188H476.971ZM477.483 180.364C477.287 180.364 477.118 180.297 476.975 180.163C476.836 180.03 476.767 179.869 476.767 179.682C476.767 179.494 476.836 179.334 476.975 179.2C477.118 179.067 477.287 179 477.483 179C477.679 179 477.846 179.067 477.985 179.2C478.127 179.334 478.199 179.494 478.199 179.682C478.199 179.869 478.127 180.03 477.985 180.163C477.846 180.297 477.679 180.364 477.483 180.364ZM480.825 184.062V188H479.819V181.455H480.79V182.477H480.876C481.029 182.145 481.262 181.878 481.575 181.676C481.887 181.472 482.29 181.369 482.785 181.369C483.228 181.369 483.616 181.46 483.948 181.642C484.281 181.821 484.539 182.094 484.724 182.46C484.908 182.824 485.001 183.284 485.001 183.841V188H483.995V183.909C483.995 183.395 483.862 182.994 483.594 182.707C483.327 182.418 482.961 182.273 482.495 182.273C482.174 182.273 481.887 182.342 481.634 182.482C481.384 182.621 481.187 182.824 481.042 183.091C480.897 183.358 480.825 183.682 480.825 184.062ZM489.48 190.591C488.995 190.591 488.577 190.528 488.228 190.403C487.878 190.281 487.587 190.119 487.354 189.918C487.124 189.719 486.941 189.506 486.804 189.278L487.605 188.716C487.696 188.835 487.811 188.972 487.951 189.125C488.09 189.281 488.28 189.416 488.522 189.53C488.766 189.646 489.086 189.705 489.48 189.705C490.009 189.705 490.445 189.577 490.789 189.321C491.132 189.065 491.304 188.665 491.304 188.119V186.79H491.219C491.145 186.909 491.04 187.057 490.904 187.233C490.77 187.406 490.577 187.561 490.324 187.697C490.074 187.831 489.736 187.898 489.31 187.898C488.782 187.898 488.307 187.773 487.887 187.523C487.469 187.273 487.138 186.909 486.894 186.432C486.652 185.955 486.532 185.375 486.532 184.693C486.532 184.023 486.65 183.439 486.885 182.942C487.121 182.442 487.449 182.055 487.87 181.783C488.29 181.507 488.776 181.369 489.327 181.369C489.753 181.369 490.091 181.44 490.341 181.582C490.594 181.722 490.787 181.881 490.921 182.06C491.057 182.236 491.162 182.381 491.236 182.494H491.338V181.455H492.31V188.188C492.31 188.75 492.182 189.207 491.926 189.56C491.674 189.915 491.333 190.175 490.904 190.339C490.478 190.507 490.003 190.591 489.48 190.591ZM489.446 186.994C489.85 186.994 490.191 186.902 490.469 186.717C490.748 186.533 490.959 186.267 491.104 185.92C491.249 185.574 491.321 185.159 491.321 184.676C491.321 184.205 491.25 183.788 491.108 183.428C490.966 183.067 490.756 182.784 490.478 182.58C490.199 182.375 489.855 182.273 489.446 182.273C489.02 182.273 488.665 182.381 488.381 182.597C488.1 182.812 487.888 183.102 487.746 183.466C487.607 183.83 487.537 184.233 487.537 184.676C487.537 185.131 487.608 185.533 487.75 185.882C487.895 186.229 488.108 186.501 488.39 186.7C488.674 186.896 489.026 186.994 489.446 186.994Z" fill="black"/>
<rect x="162" y="90" width="216" height="8" rx="4" fill="#EFEFEF"/>
<rect x="162" y="90" width="54" height="8" rx="4" fill="#217CF5"/>
<g filter="url(#filter6_dd_862_12713)">
<circle cx="162" cy="94" r="12" fill="white"/>
<circle cx="162" cy="94" r="11.5" stroke="#217CF5"/>
</g>
<g filter="url(#filter7_dd_862_12713)">
<circle cx="216" cy="94" r="12" fill="white"/>
<circle cx="216" cy="94" r="11.5" stroke="#217CF5"/>
</g>
<path d="M152.057 67V58.2727H153.114V66.0625H157.17V67H152.057ZM160.597 67.1534C160.182 67.1534 159.805 67.0753 159.467 66.919C159.129 66.7599 158.861 66.5312 158.662 66.233C158.463 65.9318 158.364 65.5682 158.364 65.142C158.364 64.767 158.438 64.4631 158.585 64.2301C158.733 63.9943 158.93 63.8097 159.178 63.6761C159.425 63.5426 159.697 63.4432 159.996 63.3778C160.297 63.3097 160.599 63.2557 160.903 63.2159C161.301 63.1648 161.624 63.1264 161.871 63.1009C162.121 63.0724 162.303 63.0256 162.416 62.9602C162.533 62.8949 162.591 62.7812 162.591 62.6193V62.5852C162.591 62.1648 162.476 61.8381 162.246 61.6051C162.018 61.3722 161.673 61.2557 161.21 61.2557C160.73 61.2557 160.354 61.3608 160.081 61.571C159.808 61.7812 159.616 62.0057 159.506 62.2443L158.551 61.9034C158.722 61.5057 158.949 61.196 159.233 60.9744C159.52 60.75 159.832 60.5937 160.17 60.5057C160.511 60.4148 160.847 60.3693 161.176 60.3693C161.386 60.3693 161.628 60.3949 161.901 60.446C162.176 60.4943 162.442 60.5952 162.697 60.7486C162.956 60.902 163.17 61.1335 163.341 61.4432C163.511 61.7528 163.597 62.1676 163.597 62.6875V67H162.591V66.1136H162.54C162.472 66.2557 162.358 66.4077 162.199 66.5696C162.04 66.7315 161.828 66.8693 161.564 66.983C161.3 67.0966 160.977 67.1534 160.597 67.1534ZM160.75 66.25C161.148 66.25 161.483 66.1719 161.756 66.0156C162.031 65.8594 162.239 65.6577 162.378 65.4105C162.52 65.1634 162.591 64.9034 162.591 64.6307V63.7102C162.548 63.7614 162.455 63.8082 162.31 63.8509C162.168 63.8906 162.003 63.9261 161.815 63.9574C161.631 63.9858 161.45 64.0114 161.274 64.0341C161.101 64.054 160.96 64.071 160.852 64.0852C160.591 64.1193 160.347 64.1747 160.119 64.2514C159.895 64.3253 159.713 64.4375 159.574 64.5881C159.438 64.7358 159.369 64.9375 159.369 65.1932C159.369 65.5426 159.499 65.8068 159.757 65.9858C160.018 66.1619 160.349 66.25 160.75 66.25ZM165.569 67V58.2727H166.574V61.4943H166.659C166.733 61.3807 166.836 61.2358 166.966 61.0597C167.1 60.8807 167.29 60.7216 167.537 60.5824C167.787 60.4403 168.125 60.3693 168.551 60.3693C169.103 60.3693 169.588 60.5071 170.009 60.7827C170.429 61.0582 170.757 61.4489 170.993 61.9545C171.229 62.4602 171.347 63.0568 171.347 63.7443C171.347 64.4375 171.229 65.0384 170.993 65.5469C170.757 66.0526 170.431 66.4446 170.013 66.723C169.596 66.9986 169.114 67.1364 168.569 67.1364C168.148 67.1364 167.811 67.0668 167.559 66.9276C167.306 66.7855 167.111 66.625 166.975 66.446C166.838 66.2642 166.733 66.1136 166.659 65.9943H166.54V67H165.569ZM166.557 63.7273C166.557 64.2216 166.63 64.6577 166.775 65.0355C166.919 65.4105 167.131 65.7045 167.409 65.9176C167.688 66.1278 168.029 66.233 168.432 66.233C168.853 66.233 169.203 66.1222 169.485 65.9006C169.769 65.6761 169.982 65.375 170.124 64.9972C170.269 64.6165 170.341 64.1932 170.341 63.7273C170.341 63.267 170.27 62.8523 170.128 62.483C169.989 62.1108 169.777 61.8168 169.493 61.6009C169.212 61.3821 168.858 61.2727 168.432 61.2727C168.023 61.2727 167.679 61.3764 167.401 61.5838C167.123 61.7884 166.912 62.0753 166.77 62.4446C166.628 62.8111 166.557 63.2386 166.557 63.7273ZM175.63 67.1364C174.999 67.1364 174.455 66.9972 173.998 66.7188C173.543 66.4375 173.192 66.0455 172.945 65.5426C172.701 65.0369 172.578 64.4489 172.578 63.7784C172.578 63.108 172.701 62.517 172.945 62.0057C173.192 61.4915 173.536 61.0909 173.976 60.804C174.419 60.5142 174.936 60.3693 175.527 60.3693C175.868 60.3693 176.205 60.4261 176.537 60.5398C176.87 60.6534 177.172 60.8381 177.445 61.0938C177.718 61.3466 177.935 61.6818 178.097 62.0994C178.259 62.517 178.34 63.0312 178.34 63.642V64.0682H173.294V63.1989H177.317C177.317 62.8295 177.243 62.5 177.096 62.2102C176.951 61.9205 176.743 61.6918 176.473 61.5241C176.206 61.3565 175.891 61.2727 175.527 61.2727C175.127 61.2727 174.78 61.3722 174.488 61.571C174.198 61.767 173.975 62.0227 173.819 62.3381C173.662 62.6534 173.584 62.9915 173.584 63.3523V63.9318C173.584 64.4261 173.669 64.8452 173.84 65.1889C174.013 65.5298 174.253 65.7898 174.56 65.9688C174.867 66.1449 175.223 66.233 175.63 66.233C175.894 66.233 176.132 66.196 176.346 66.1222C176.561 66.0455 176.748 65.9318 176.904 65.7812C177.06 65.6278 177.181 65.4375 177.266 65.2102L178.238 65.483C178.135 65.8125 177.963 66.1023 177.722 66.3523C177.48 66.5994 177.182 66.7926 176.827 66.9318C176.472 67.0682 176.073 67.1364 175.63 67.1364ZM180.875 58.2727V67H179.87V58.2727H180.875ZM186.825 65.8835C186.615 65.8835 186.435 65.8082 186.284 65.6577C186.134 65.5071 186.058 65.3267 186.058 65.1165C186.058 64.9062 186.134 64.7259 186.284 64.5753C186.435 64.4247 186.615 64.3494 186.825 64.3494C187.036 64.3494 187.216 64.4247 187.366 64.5753C187.517 64.7259 187.592 64.9062 187.592 65.1165C187.592 65.2557 187.557 65.3835 187.486 65.5C187.418 65.6165 187.325 65.7102 187.209 65.7812C187.095 65.8494 186.967 65.8835 186.825 65.8835ZM186.825 61.4688C186.615 61.4688 186.435 61.3935 186.284 61.2429C186.134 61.0923 186.058 60.9119 186.058 60.7017C186.058 60.4915 186.134 60.3111 186.284 60.1605C186.435 60.0099 186.615 59.9347 186.825 59.9347C187.036 59.9347 187.216 60.0099 187.366 60.1605C187.517 60.3111 187.592 60.4915 187.592 60.7017C187.592 60.8409 187.557 60.9688 187.486 61.0852C187.418 61.2017 187.325 61.2955 187.209 61.3665C187.095 61.4347 186.967 61.4688 186.825 61.4688ZM192.908 67V58.2727H198.141V59.2102H193.965V62.1591H197.749V63.0966H193.965V67H192.908ZM201.741 67.1534C201.326 67.1534 200.95 67.0753 200.612 66.919C200.274 66.7599 200.005 66.5312 199.806 66.233C199.608 65.9318 199.508 65.5682 199.508 65.142C199.508 64.767 199.582 64.4631 199.73 64.2301C199.877 63.9943 200.075 63.8097 200.322 63.6761C200.569 63.5426 200.842 63.4432 201.14 63.3778C201.441 63.3097 201.744 63.2557 202.048 63.2159C202.446 63.1648 202.768 63.1264 203.015 63.1009C203.265 63.0724 203.447 63.0256 203.561 62.9602C203.677 62.8949 203.735 62.7812 203.735 62.6193V62.5852C203.735 62.1648 203.62 61.8381 203.39 61.6051C203.163 61.3722 202.818 61.2557 202.355 61.2557C201.875 61.2557 201.498 61.3608 201.225 61.571C200.953 61.7812 200.761 62.0057 200.65 62.2443L199.696 61.9034C199.866 61.5057 200.093 61.196 200.377 60.9744C200.664 60.75 200.977 60.5937 201.315 60.5057C201.656 60.4148 201.991 60.3693 202.321 60.3693C202.531 60.3693 202.772 60.3949 203.045 60.446C203.321 60.4943 203.586 60.5952 203.842 60.7486C204.1 60.902 204.315 61.1335 204.485 61.4432C204.656 61.7528 204.741 62.1676 204.741 62.6875V67H203.735V66.1136H203.684C203.616 66.2557 203.502 66.4077 203.343 66.5696C203.184 66.7315 202.973 66.8693 202.708 66.983C202.444 67.0966 202.122 67.1534 201.741 67.1534ZM201.895 66.25C202.292 66.25 202.627 66.1719 202.9 66.0156C203.176 65.8594 203.383 65.6577 203.522 65.4105C203.664 65.1634 203.735 64.9034 203.735 64.6307V63.7102C203.693 63.7614 203.599 63.8082 203.454 63.8509C203.312 63.8906 203.147 63.9261 202.96 63.9574C202.775 63.9858 202.595 64.0114 202.419 64.0341C202.245 64.054 202.105 64.071 201.997 64.0852C201.735 64.1193 201.491 64.1747 201.264 64.2514C201.039 64.3253 200.858 64.4375 200.718 64.5881C200.582 64.7358 200.514 64.9375 200.514 65.1932C200.514 65.5426 200.643 65.8068 200.902 65.9858C201.163 66.1619 201.494 66.25 201.895 66.25ZM207.582 58.2727V67H206.577V58.2727H207.582ZM214.061 61.9205L213.157 62.1761C213.1 62.0256 213.017 61.8793 212.906 61.7372C212.798 61.5923 212.65 61.473 212.463 61.3793C212.275 61.2855 212.035 61.2386 211.743 61.2386C211.342 61.2386 211.008 61.331 210.741 61.5156C210.477 61.6974 210.345 61.929 210.345 62.2102C210.345 62.4602 210.436 62.6577 210.618 62.8026C210.799 62.9474 211.083 63.0682 211.47 63.1648L212.441 63.4034C213.027 63.5455 213.463 63.7628 213.75 64.0554C214.037 64.3452 214.18 64.7187 214.18 65.1761C214.18 65.5511 214.072 65.8864 213.856 66.1818C213.643 66.4773 213.345 66.7102 212.961 66.8807C212.578 67.0511 212.132 67.1364 211.623 67.1364C210.956 67.1364 210.403 66.9915 209.966 66.7017C209.528 66.4119 209.251 65.9886 209.135 65.4318L210.089 65.1932C210.18 65.5455 210.352 65.8097 210.605 65.9858C210.86 66.1619 211.194 66.25 211.606 66.25C212.075 66.25 212.447 66.1506 212.723 65.9517C213.001 65.75 213.14 65.5085 213.14 65.2273C213.14 65 213.061 64.8097 212.902 64.6562C212.743 64.5 212.498 64.3835 212.169 64.3068L211.078 64.0511C210.478 63.9091 210.038 63.6889 209.757 63.3906C209.478 63.0895 209.339 62.7131 209.339 62.2614C209.339 61.892 209.443 61.5653 209.65 61.2812C209.86 60.9972 210.146 60.7741 210.507 60.6122C210.87 60.4503 211.282 60.3693 211.743 60.3693C212.39 60.3693 212.899 60.5114 213.268 60.7955C213.64 61.0795 213.904 61.4545 214.061 61.9205ZM218.438 67.1364C217.808 67.1364 217.263 66.9972 216.806 66.7188C216.352 66.4375 216.001 66.0455 215.754 65.5426C215.509 65.0369 215.387 64.4489 215.387 63.7784C215.387 63.108 215.509 62.517 215.754 62.0057C216.001 61.4915 216.344 61.0909 216.785 60.804C217.228 60.5142 217.745 60.3693 218.336 60.3693C218.677 60.3693 219.013 60.4261 219.346 60.5398C219.678 60.6534 219.981 60.8381 220.254 61.0938C220.526 61.3466 220.744 61.6818 220.906 62.0994C221.067 62.517 221.148 63.0312 221.148 63.642V64.0682H216.103V63.1989H220.126C220.126 62.8295 220.052 62.5 219.904 62.2102C219.759 61.9205 219.552 61.6918 219.282 61.5241C219.015 61.3565 218.7 61.2727 218.336 61.2727C217.935 61.2727 217.589 61.3722 217.296 61.571C217.006 61.767 216.783 62.0227 216.627 62.3381C216.471 62.6534 216.393 62.9915 216.393 63.3523V63.9318C216.393 64.4261 216.478 64.8452 216.648 65.1889C216.822 65.5298 217.062 65.7898 217.369 65.9688C217.675 66.1449 218.032 66.233 218.438 66.233C218.702 66.233 218.941 66.196 219.154 66.1222C219.37 66.0455 219.556 65.9318 219.712 65.7812C219.869 65.6278 219.989 65.4375 220.075 65.2102L221.046 65.483C220.944 65.8125 220.772 66.1023 220.531 66.3523C220.289 66.5994 219.991 66.7926 219.636 66.9318C219.281 67.0682 218.881 67.1364 218.438 67.1364Z" fill="black"/>
<rect x="159" y="224" width="216" height="8" rx="4" fill="#EFEFEF"/>
<rect x="159" y="224" width="54" height="8" rx="4" fill="#217CF5"/>
<g filter="url(#filter8_dd_862_12713)">
<circle cx="159" cy="228" r="12" fill="white"/>
<circle cx="159" cy="228" r="11.5" stroke="#217CF5"/>
</g>
<g filter="url(#filter9_dd_862_12713)">
<path d="M152.929 252.515C152.038 252.515 151.592 251.438 152.222 250.808L158.293 244.737C158.683 244.346 159.317 244.346 159.707 244.737L165.778 250.808C166.408 251.438 165.962 252.515 165.071 252.515H152.929Z" fill="white"/>
<rect x="137.5" y="250" width="43" height="32" rx="8" fill="white"/>
<path d="M153.719 271.129C153.023 271.129 152.431 270.94 151.941 270.561C151.452 270.18 151.078 269.627 150.82 268.904C150.561 268.178 150.432 267.301 150.432 266.273C150.432 265.251 150.561 264.378 150.82 263.655C151.081 262.929 151.457 262.375 151.946 261.993C152.438 261.609 153.029 261.416 153.719 261.416C154.408 261.416 154.998 261.609 155.487 261.993C155.979 262.375 156.355 262.929 156.613 263.655C156.875 264.378 157.006 265.251 157.006 266.273C157.006 267.301 156.876 268.178 156.618 268.904C156.359 269.627 155.985 270.18 155.496 270.561C155.007 270.94 154.414 271.129 153.719 271.129ZM153.719 270.114C154.408 270.114 154.944 269.781 155.325 269.116C155.707 268.452 155.898 267.504 155.898 266.273C155.898 265.454 155.81 264.757 155.635 264.181C155.462 263.606 155.213 263.167 154.887 262.866C154.564 262.564 154.174 262.413 153.719 262.413C153.036 262.413 152.502 262.75 152.117 263.424C151.732 264.095 151.54 265.045 151.54 266.273C151.54 267.091 151.626 267.787 151.798 268.359C151.971 268.932 152.218 269.367 152.542 269.666C152.868 269.964 153.26 270.114 153.719 270.114ZM163.58 269.227V268.729C163.58 268.384 163.65 268.069 163.792 267.782C163.937 267.493 164.146 267.262 164.42 267.09C164.697 266.914 165.032 266.827 165.426 266.827C165.826 266.827 166.162 266.914 166.433 267.09C166.703 267.262 166.908 267.493 167.047 267.782C167.185 268.069 167.254 268.384 167.254 268.729V269.227C167.254 269.572 167.183 269.889 167.042 270.178C166.903 270.464 166.697 270.695 166.423 270.871C166.152 271.043 165.82 271.129 165.426 271.129C165.026 271.129 164.689 271.043 164.415 270.871C164.141 270.695 163.933 270.464 163.792 270.178C163.65 269.889 163.58 269.572 163.58 269.227ZM164.521 268.729V269.227C164.521 269.513 164.589 269.77 164.724 269.998C164.86 270.223 165.094 270.335 165.426 270.335C165.749 270.335 165.977 270.223 166.109 269.998C166.245 269.77 166.312 269.513 166.312 269.227V268.729C166.312 268.442 166.248 268.187 166.119 267.962C165.989 267.735 165.759 267.621 165.426 267.621C165.103 267.621 164.871 267.735 164.729 267.962C164.591 268.187 164.521 268.442 164.521 268.729ZM158.871 263.817V263.318C158.871 262.973 158.942 262.658 159.083 262.372C159.228 262.083 159.437 261.852 159.711 261.679C159.988 261.504 160.323 261.416 160.717 261.416C161.117 261.416 161.453 261.504 161.724 261.679C161.995 261.852 162.199 262.083 162.338 262.372C162.476 262.658 162.545 262.973 162.545 263.318V263.817C162.545 264.161 162.475 264.478 162.333 264.768C162.195 265.054 161.988 265.285 161.714 265.46C161.444 265.633 161.111 265.719 160.717 265.719C160.317 265.719 159.98 265.633 159.706 265.46C159.432 265.285 159.225 265.054 159.083 264.768C158.942 264.478 158.871 264.161 158.871 263.817ZM159.812 263.318V263.817C159.812 264.103 159.88 264.36 160.016 264.588C160.151 264.812 160.385 264.925 160.717 264.925C161.04 264.925 161.268 264.812 161.401 264.588C161.536 264.36 161.604 264.103 161.604 263.817V263.318C161.604 263.032 161.539 262.777 161.41 262.552C161.281 262.324 161.05 262.21 160.717 262.21C160.394 262.21 160.162 262.324 160.02 262.552C159.882 262.777 159.812 263.032 159.812 263.318ZM159.222 271L165.722 261.545H166.774L160.274 271H159.222Z" fill="#1A1A1A"/>
</g>
<g filter="url(#filter10_dd_862_12713)">
<circle cx="213" cy="228" r="12" fill="white"/>
<circle cx="213" cy="228" r="11.5" stroke="#217CF5"/>
</g>
<g filter="url(#filter11_dd_862_12713)">
<path d="M206.929 252.515C206.038 252.515 205.592 251.438 206.222 250.808L212.293 244.737C212.683 244.346 213.317 244.346 213.707 244.737L219.778 250.808C220.408 251.438 219.962 252.515 219.071 252.515H206.929Z" fill="white"/>
<rect x="187.5" y="250" width="51" height="32" rx="8" fill="white"/>
<path d="M200.807 271V270.169L203.928 266.753C204.294 266.353 204.596 266.005 204.833 265.71C205.07 265.411 205.245 265.131 205.359 264.869C205.476 264.605 205.535 264.328 205.535 264.038C205.535 263.706 205.455 263.418 205.295 263.175C205.138 262.932 204.922 262.744 204.648 262.612C204.374 262.48 204.067 262.413 203.725 262.413C203.362 262.413 203.045 262.489 202.774 262.64C202.506 262.787 202.298 262.995 202.151 263.263C202.006 263.531 201.934 263.844 201.934 264.205H200.844C200.844 263.651 200.972 263.164 201.227 262.746C201.483 262.327 201.831 262.001 202.271 261.767C202.714 261.533 203.211 261.416 203.762 261.416C204.316 261.416 204.807 261.533 205.235 261.767C205.662 262.001 205.998 262.316 206.241 262.713C206.484 263.11 206.606 263.552 206.606 264.038C206.606 264.386 206.543 264.726 206.416 265.059C206.293 265.388 206.078 265.756 205.77 266.162C205.465 266.565 205.042 267.058 204.5 267.639L202.377 269.911V269.984H206.772V271H200.807ZM211.633 271.129C211.091 271.129 210.603 271.022 210.17 270.806C209.736 270.591 209.388 270.295 209.126 269.92C208.865 269.544 208.721 269.116 208.697 268.636H209.805C209.848 269.064 210.042 269.418 210.386 269.698C210.734 269.975 211.15 270.114 211.633 270.114C212.021 270.114 212.365 270.023 212.667 269.841C212.972 269.66 213.21 269.41 213.383 269.093C213.558 268.773 213.646 268.412 213.646 268.009C213.646 267.596 213.555 267.228 213.373 266.905C213.195 266.579 212.949 266.322 212.635 266.134C212.321 265.946 211.962 265.851 211.559 265.848C211.27 265.845 210.973 265.89 210.668 265.982C210.363 266.071 210.113 266.187 209.916 266.328L208.845 266.199L209.417 261.545H214.329V262.561H210.377L210.045 265.349H210.1C210.294 265.196 210.537 265.068 210.83 264.966C211.122 264.865 211.427 264.814 211.744 264.814C212.322 264.814 212.838 264.952 213.29 265.229C213.746 265.503 214.103 265.879 214.361 266.356C214.623 266.833 214.754 267.378 214.754 267.99C214.754 268.593 214.618 269.132 214.347 269.606C214.08 270.077 213.71 270.449 213.239 270.723C212.769 270.994 212.233 271.129 211.633 271.129ZM221.407 269.227V268.729C221.407 268.384 221.478 268.069 221.62 267.782C221.764 267.493 221.973 267.262 222.247 267.09C222.524 266.914 222.86 266.827 223.254 266.827C223.654 266.827 223.989 266.914 224.26 267.09C224.531 267.262 224.736 267.493 224.874 267.782C225.013 268.069 225.082 268.384 225.082 268.729V269.227C225.082 269.572 225.011 269.889 224.87 270.178C224.731 270.464 224.525 270.695 224.251 270.871C223.98 271.043 223.648 271.129 223.254 271.129C222.854 271.129 222.517 271.043 222.243 270.871C221.969 270.695 221.761 270.464 221.62 270.178C221.478 269.889 221.407 269.572 221.407 269.227ZM222.349 268.729V269.227C222.349 269.513 222.417 269.77 222.552 269.998C222.687 270.223 222.921 270.335 223.254 270.335C223.577 270.335 223.805 270.223 223.937 269.998C224.072 269.77 224.14 269.513 224.14 269.227V268.729C224.14 268.442 224.076 268.187 223.946 267.962C223.817 267.735 223.586 267.621 223.254 267.621C222.931 267.621 222.698 267.735 222.557 267.962C222.418 268.187 222.349 268.442 222.349 268.729ZM216.698 263.817V263.318C216.698 262.973 216.769 262.658 216.911 262.372C217.055 262.083 217.265 261.852 217.539 261.679C217.816 261.504 218.151 261.416 218.545 261.416C218.945 261.416 219.281 261.504 219.551 261.679C219.822 261.852 220.027 262.083 220.165 262.372C220.304 262.658 220.373 262.973 220.373 263.318V263.817C220.373 264.161 220.302 264.478 220.161 264.768C220.022 265.054 219.816 265.285 219.542 265.46C219.271 265.633 218.939 265.719 218.545 265.719C218.145 265.719 217.808 265.633 217.534 265.46C217.26 265.285 217.052 265.054 216.911 264.768C216.769 264.478 216.698 264.161 216.698 263.817ZM217.64 263.318V263.817C217.64 264.103 217.708 264.36 217.843 264.588C217.979 264.812 218.213 264.925 218.545 264.925C218.868 264.925 219.096 264.812 219.228 264.588C219.364 264.36 219.431 264.103 219.431 263.817V263.318C219.431 263.032 219.367 262.777 219.237 262.552C219.108 262.324 218.877 262.21 218.545 262.21C218.222 262.21 217.989 262.324 217.848 262.552C217.709 262.777 217.64 263.032 217.64 263.318ZM217.049 271L223.549 261.545H224.602L218.102 271H217.049Z" fill="#1A1A1A"/>
</g>
<path d="M152.057 190V181.273H155.108C155.716 181.273 156.217 181.378 156.612 181.588C157.007 181.795 157.301 182.075 157.494 182.428C157.688 182.777 157.784 183.165 157.784 183.591C157.784 183.966 157.717 184.276 157.584 184.52C157.453 184.764 157.28 184.957 157.064 185.099C156.851 185.241 156.619 185.347 156.369 185.415V185.5C156.636 185.517 156.905 185.611 157.175 185.781C157.445 185.952 157.67 186.196 157.852 186.514C158.034 186.832 158.125 187.222 158.125 187.682C158.125 188.119 158.026 188.513 157.827 188.862C157.628 189.212 157.314 189.489 156.885 189.693C156.456 189.898 155.898 190 155.21 190H152.057ZM153.114 189.062H155.21C155.901 189.062 156.391 188.929 156.68 188.662C156.973 188.392 157.119 188.065 157.119 187.682C157.119 187.386 157.044 187.114 156.893 186.864C156.743 186.611 156.528 186.409 156.25 186.259C155.972 186.105 155.642 186.028 155.261 186.028H153.114V189.062ZM153.114 185.108H155.074C155.392 185.108 155.679 185.045 155.935 184.92C156.193 184.795 156.398 184.619 156.548 184.392C156.702 184.165 156.778 183.898 156.778 183.591C156.778 183.207 156.645 182.882 156.378 182.615C156.111 182.345 155.688 182.21 155.108 182.21H153.114V185.108ZM162.384 190.136C161.793 190.136 161.275 189.996 160.829 189.714C160.386 189.433 160.039 189.04 159.789 188.534C159.542 188.028 159.418 187.437 159.418 186.761C159.418 186.08 159.542 185.484 159.789 184.976C160.039 184.467 160.386 184.072 160.829 183.791C161.275 183.51 161.793 183.369 162.384 183.369C162.975 183.369 163.492 183.51 163.935 183.791C164.381 184.072 164.728 184.467 164.975 184.976C165.225 185.484 165.35 186.08 165.35 186.761C165.35 187.437 165.225 188.028 164.975 188.534C164.728 189.04 164.381 189.433 163.935 189.714C163.492 189.996 162.975 190.136 162.384 190.136ZM162.384 189.233C162.833 189.233 163.202 189.118 163.492 188.888C163.782 188.658 163.996 188.355 164.136 187.98C164.275 187.605 164.344 187.199 164.344 186.761C164.344 186.324 164.275 185.916 164.136 185.538C163.996 185.161 163.782 184.855 163.492 184.622C163.202 184.389 162.833 184.273 162.384 184.273C161.935 184.273 161.566 184.389 161.276 184.622C160.987 184.855 160.772 185.161 160.633 185.538C160.494 185.916 160.424 186.324 160.424 186.761C160.424 187.199 160.494 187.605 160.633 187.98C160.772 188.355 160.987 188.658 161.276 188.888C161.566 189.118 161.935 189.233 162.384 189.233ZM169.732 183.455V184.307H166.34V183.455H169.732ZM167.328 181.886H168.334V188.125C168.334 188.409 168.375 188.622 168.458 188.764C168.543 188.903 168.651 188.997 168.782 189.045C168.915 189.091 169.056 189.114 169.203 189.114C169.314 189.114 169.405 189.108 169.476 189.097C169.547 189.082 169.604 189.071 169.647 189.062L169.851 189.966C169.783 189.991 169.688 190.017 169.566 190.043C169.444 190.071 169.289 190.085 169.101 190.085C168.817 190.085 168.539 190.024 168.266 189.902C167.996 189.78 167.772 189.594 167.593 189.344C167.417 189.094 167.328 188.778 167.328 188.398V181.886ZM174.091 183.455V184.307H170.699V183.455H174.091ZM171.688 181.886H172.694V188.125C172.694 188.409 172.735 188.622 172.817 188.764C172.902 188.903 173.01 188.997 173.141 189.045C173.275 189.091 173.415 189.114 173.563 189.114C173.674 189.114 173.765 189.108 173.836 189.097C173.907 189.082 173.963 189.071 174.006 189.062L174.211 189.966C174.142 189.991 174.047 190.017 173.925 190.043C173.803 190.071 173.648 190.085 173.461 190.085C173.176 190.085 172.898 190.024 172.625 189.902C172.355 189.78 172.131 189.594 171.952 189.344C171.776 189.094 171.688 188.778 171.688 188.398V181.886ZM178.193 190.136C177.602 190.136 177.083 189.996 176.637 189.714C176.194 189.433 175.848 189.04 175.598 188.534C175.35 188.028 175.227 187.437 175.227 186.761C175.227 186.08 175.35 185.484 175.598 184.976C175.848 184.467 176.194 184.072 176.637 183.791C177.083 183.51 177.602 183.369 178.193 183.369C178.784 183.369 179.301 183.51 179.744 183.791C180.19 184.072 180.537 184.467 180.784 184.976C181.034 185.484 181.159 186.08 181.159 186.761C181.159 187.437 181.034 188.028 180.784 188.534C180.537 189.04 180.19 189.433 179.744 189.714C179.301 189.996 178.784 190.136 178.193 190.136ZM178.193 189.233C178.642 189.233 179.011 189.118 179.301 188.888C179.591 188.658 179.805 188.355 179.944 187.98C180.083 187.605 180.153 187.199 180.153 186.761C180.153 186.324 180.083 185.916 179.944 185.538C179.805 185.161 179.591 184.855 179.301 184.622C179.011 184.389 178.642 184.273 178.193 184.273C177.744 184.273 177.375 184.389 177.085 184.622C176.795 184.855 176.581 185.161 176.441 185.538C176.302 185.916 176.233 186.324 176.233 186.761C176.233 187.199 176.302 187.605 176.441 187.98C176.581 188.355 176.795 188.658 177.085 188.888C177.375 189.118 177.744 189.233 178.193 189.233ZM182.694 190V183.455H183.665V184.477H183.751C183.887 184.128 184.107 183.857 184.411 183.663C184.715 183.467 185.08 183.369 185.506 183.369C185.938 183.369 186.298 183.467 186.585 183.663C186.874 183.857 187.1 184.128 187.262 184.477H187.33C187.498 184.139 187.749 183.871 188.085 183.672C188.42 183.47 188.822 183.369 189.29 183.369C189.876 183.369 190.354 183.553 190.727 183.919C191.099 184.283 191.285 184.849 191.285 185.619V190H190.279V185.619C190.279 185.136 190.147 184.791 189.883 184.584C189.619 184.376 189.308 184.273 188.95 184.273C188.489 184.273 188.133 184.412 187.88 184.69C187.627 184.966 187.501 185.315 187.501 185.739V190H186.478V185.517C186.478 185.145 186.357 184.845 186.116 184.618C185.874 184.388 185.563 184.273 185.183 184.273C184.921 184.273 184.677 184.342 184.45 184.482C184.225 184.621 184.043 184.814 183.904 185.061C183.768 185.305 183.7 185.588 183.7 185.909V190H182.694ZM199.413 183.455V184.307H195.885V183.455H199.413ZM196.942 190V182.551C196.942 182.176 197.03 181.864 197.206 181.614C197.382 181.364 197.611 181.176 197.892 181.051C198.173 180.926 198.47 180.864 198.783 180.864C199.03 180.864 199.232 180.884 199.388 180.923C199.544 180.963 199.661 181 199.737 181.034L199.447 181.903C199.396 181.886 199.325 181.865 199.234 181.839C199.146 181.814 199.03 181.801 198.885 181.801C198.553 181.801 198.313 181.885 198.165 182.053C198.02 182.22 197.947 182.466 197.947 182.79V190H196.942ZM201.828 181.273V190H200.823V181.273H201.828ZM206.33 190.136C205.739 190.136 205.22 189.996 204.774 189.714C204.331 189.433 203.984 189.04 203.734 188.534C203.487 188.028 203.364 187.437 203.364 186.761C203.364 186.08 203.487 185.484 203.734 184.976C203.984 184.467 204.331 184.072 204.774 183.791C205.22 183.51 205.739 183.369 206.33 183.369C206.92 183.369 207.438 183.51 207.881 183.791C208.327 184.072 208.673 184.467 208.92 184.976C209.17 185.484 209.295 186.08 209.295 186.761C209.295 187.437 209.17 188.028 208.92 188.534C208.673 189.04 208.327 189.433 207.881 189.714C207.438 189.996 206.92 190.136 206.33 190.136ZM206.33 189.233C206.778 189.233 207.148 189.118 207.438 188.888C207.727 188.658 207.942 188.355 208.081 187.98C208.22 187.605 208.29 187.199 208.29 186.761C208.29 186.324 208.22 185.916 208.081 185.538C207.942 185.161 207.727 184.855 207.438 184.622C207.148 184.389 206.778 184.273 206.33 184.273C205.881 184.273 205.511 184.389 205.222 184.622C204.932 184.855 204.717 185.161 204.578 185.538C204.439 185.916 204.369 186.324 204.369 186.761C204.369 187.199 204.439 187.605 204.578 187.98C204.717 188.355 204.932 188.658 205.222 188.888C205.511 189.118 205.881 189.233 206.33 189.233ZM212.757 190.153C212.342 190.153 211.966 190.075 211.627 189.919C211.289 189.76 211.021 189.531 210.822 189.233C210.623 188.932 210.524 188.568 210.524 188.142C210.524 187.767 210.598 187.463 210.745 187.23C210.893 186.994 211.091 186.81 211.338 186.676C211.585 186.543 211.858 186.443 212.156 186.378C212.457 186.31 212.76 186.256 213.064 186.216C213.461 186.165 213.784 186.126 214.031 186.101C214.281 186.072 214.463 186.026 214.576 185.96C214.693 185.895 214.751 185.781 214.751 185.619V185.585C214.751 185.165 214.636 184.838 214.406 184.605C214.179 184.372 213.833 184.256 213.37 184.256C212.89 184.256 212.514 184.361 212.241 184.571C211.968 184.781 211.777 185.006 211.666 185.244L210.711 184.903C210.882 184.506 211.109 184.196 211.393 183.974C211.68 183.75 211.993 183.594 212.331 183.506C212.672 183.415 213.007 183.369 213.336 183.369C213.547 183.369 213.788 183.395 214.061 183.446C214.336 183.494 214.602 183.595 214.858 183.749C215.116 183.902 215.331 184.134 215.501 184.443C215.672 184.753 215.757 185.168 215.757 185.688V190H214.751V189.114H214.7C214.632 189.256 214.518 189.408 214.359 189.57C214.2 189.732 213.988 189.869 213.724 189.983C213.46 190.097 213.137 190.153 212.757 190.153ZM212.91 189.25C213.308 189.25 213.643 189.172 213.916 189.016C214.191 188.859 214.399 188.658 214.538 188.411C214.68 188.163 214.751 187.903 214.751 187.631V186.71C214.708 186.761 214.615 186.808 214.47 186.851C214.328 186.891 214.163 186.926 213.975 186.957C213.791 186.986 213.61 187.011 213.434 187.034C213.261 187.054 213.12 187.071 213.012 187.085C212.751 187.119 212.507 187.175 212.279 187.251C212.055 187.325 211.873 187.437 211.734 187.588C211.598 187.736 211.529 187.937 211.529 188.193C211.529 188.543 211.659 188.807 211.917 188.986C212.179 189.162 212.51 189.25 212.91 189.25ZM220.439 183.455V184.307H217.047V183.455H220.439ZM218.036 181.886H219.041V188.125C219.041 188.409 219.082 188.622 219.165 188.764C219.25 188.903 219.358 188.997 219.489 189.045C219.622 189.091 219.763 189.114 219.911 189.114C220.021 189.114 220.112 189.108 220.183 189.097C220.254 189.082 220.311 189.071 220.354 189.062L220.558 189.966C220.49 189.991 220.395 190.017 220.273 190.043C220.151 190.071 219.996 190.085 219.808 190.085C219.524 190.085 219.246 190.024 218.973 189.902C218.703 189.78 218.479 189.594 218.3 189.344C218.124 189.094 218.036 188.778 218.036 188.398V181.886ZM221.952 190V183.455H222.957V190H221.952ZM222.463 182.364C222.267 182.364 222.098 182.297 221.956 182.163C221.817 182.03 221.747 181.869 221.747 181.682C221.747 181.494 221.817 181.334 221.956 181.2C222.098 181.067 222.267 181 222.463 181C222.659 181 222.827 181.067 222.966 181.2C223.108 181.334 223.179 181.494 223.179 181.682C223.179 181.869 223.108 182.03 222.966 182.163C222.827 182.297 222.659 182.364 222.463 182.364ZM225.805 186.062V190H224.799V183.455H225.771V184.477H225.856C226.01 184.145 226.243 183.878 226.555 183.676C226.868 183.472 227.271 183.369 227.765 183.369C228.208 183.369 228.596 183.46 228.929 183.642C229.261 183.821 229.52 184.094 229.704 184.46C229.889 184.824 229.981 185.284 229.981 185.841V190H228.975V185.909C228.975 185.395 228.842 184.994 228.575 184.707C228.308 184.418 227.941 184.273 227.475 184.273C227.154 184.273 226.868 184.342 226.615 184.482C226.365 184.621 226.167 184.824 226.022 185.091C225.877 185.358 225.805 185.682 225.805 186.062ZM234.461 192.591C233.975 192.591 233.558 192.528 233.208 192.403C232.859 192.281 232.567 192.119 232.335 191.918C232.104 191.719 231.921 191.506 231.785 191.278L232.586 190.716C232.677 190.835 232.792 190.972 232.931 191.125C233.07 191.281 233.261 191.416 233.502 191.53C233.746 191.646 234.066 191.705 234.461 191.705C234.989 191.705 235.425 191.577 235.769 191.321C236.113 191.065 236.285 190.665 236.285 190.119V188.79H236.2C236.126 188.909 236.021 189.057 235.884 189.233C235.751 189.406 235.558 189.561 235.305 189.697C235.055 189.831 234.717 189.898 234.29 189.898C233.762 189.898 233.288 189.773 232.867 189.523C232.45 189.273 232.119 188.909 231.874 188.432C231.633 187.955 231.512 187.375 231.512 186.693C231.512 186.023 231.63 185.439 231.866 184.942C232.102 184.442 232.43 184.055 232.85 183.783C233.271 183.507 233.756 183.369 234.308 183.369C234.734 183.369 235.072 183.44 235.322 183.582C235.575 183.722 235.768 183.881 235.901 184.06C236.038 184.236 236.143 184.381 236.217 184.494H236.319V183.455H237.29V190.188C237.29 190.75 237.163 191.207 236.907 191.56C236.654 191.915 236.313 192.175 235.884 192.339C235.458 192.507 234.984 192.591 234.461 192.591ZM234.427 188.994C234.83 188.994 235.171 188.902 235.45 188.717C235.728 188.533 235.94 188.267 236.085 187.92C236.229 187.574 236.302 187.159 236.302 186.676C236.302 186.205 236.231 185.788 236.089 185.428C235.947 185.067 235.737 184.784 235.458 184.58C235.18 184.375 234.836 184.273 234.427 184.273C234.001 184.273 233.646 184.381 233.362 184.597C233.08 184.812 232.869 185.102 232.727 185.466C232.587 185.83 232.518 186.233 232.518 186.676C232.518 187.131 232.589 187.533 232.731 187.882C232.876 188.229 233.089 188.501 233.37 188.7C233.654 188.896 234.006 188.994 234.427 188.994Z" fill="black"/>
<defs>
<filter id="filter0_dd_862_12713" x="420" y="70" width="36" height="36" filterUnits="userSpaceOnUse" color-interpolation-filters="sRGB">
<feFlood flood-opacity="0" result="BackgroundImageFix"/>
<feColorMatrix in="SourceAlpha" type="matrix" values="0 0 0 0 0 0 0 0 0 0 0 0 0 0 0 0 0 0 127 0" result="hardAlpha"/>
<feMorphology radius="2" operator="erode" in="SourceAlpha" result="effect1_dropShadow_862_12713"/>
<feOffset dy="2"/>
<feGaussianBlur stdDeviation="2"/>
<feColorMatrix type="matrix" values="0 0 0 0 0.0627451 0 0 0 0 0.0941176 0 0 0 0 0.156863 0 0 0 0.06 0"/>
<feBlend mode="normal" in2="BackgroundImageFix" result="effect1_dropShadow_862_12713"/>
<feColorMatrix in="SourceAlpha" type="matrix" values="0 0 0 0 0 0 0 0 0 0 0 0 0 0 0 0 0 0 127 0" result="hardAlpha"/>
<feMorphology radius="2" operator="erode" in="SourceAlpha" result="effect2_dropShadow_862_12713"/>
<feOffset dy="4"/>
<feGaussianBlur stdDeviation="4"/>
<feColorMatrix type="matrix" values="0 0 0 0 0.0627451 0 0 0 0 0.0941176 0 0 0 0 0.156863 0 0 0 0.1 0"/>
<feBlend mode="normal" in2="effect1_dropShadow_862_12713" result="effect2_dropShadow_862_12713"/>
<feBlend mode="normal" in="SourceGraphic" in2="effect2_dropShadow_862_12713" result="shape"/>
</filter>
<filter id="filter1_dd_862_12713" x="474" y="70" width="36" height="36" filterUnits="userSpaceOnUse" color-interpolation-filters="sRGB">
<feFlood flood-opacity="0" result="BackgroundImageFix"/>
<feColorMatrix in="SourceAlpha" type="matrix" values="0 0 0 0 0 0 0 0 0 0 0 0 0 0 0 0 0 0 127 0" result="hardAlpha"/>
<feMorphology radius="2" operator="erode" in="SourceAlpha" result="effect1_dropShadow_862_12713"/>
<feOffset dy="2"/>
<feGaussianBlur stdDeviation="2"/>
<feColorMatrix type="matrix" values="0 0 0 0 0.0627451 0 0 0 0 0.0941176 0 0 0 0 0.156863 0 0 0 0.06 0"/>
<feBlend mode="normal" in2="BackgroundImageFix" result="effect1_dropShadow_862_12713"/>
<feColorMatrix in="SourceAlpha" type="matrix" values="0 0 0 0 0 0 0 0 0 0 0 0 0 0 0 0 0 0 127 0" result="hardAlpha"/>
<feMorphology radius="2" operator="erode" in="SourceAlpha" result="effect2_dropShadow_862_12713"/>
<feOffset dy="4"/>
<feGaussianBlur stdDeviation="4"/>
<feColorMatrix type="matrix" values="0 0 0 0 0.0627451 0 0 0 0 0.0941176 0 0 0 0 0.156863 0 0 0 0.1 0"/>
<feBlend mode="normal" in2="effect1_dropShadow_862_12713" result="effect2_dropShadow_862_12713"/>
<feBlend mode="normal" in="SourceGraphic" in2="effect2_dropShadow_862_12713" result="shape"/>
</filter>
<filter id="filter2_dd_862_12713" x="418" y="238" width="36" height="36" filterUnits="userSpaceOnUse" color-interpolation-filters="sRGB">
<feFlood flood-opacity="0" result="BackgroundImageFix"/>
<feColorMatrix in="SourceAlpha" type="matrix" values="0 0 0 0 0 0 0 0 0 0 0 0 0 0 0 0 0 0 127 0" result="hardAlpha"/>
<feMorphology radius="2" operator="erode" in="SourceAlpha" result="effect1_dropShadow_862_12713"/>
<feOffset dy="2"/>
<feGaussianBlur stdDeviation="2"/>
<feColorMatrix type="matrix" values="0 0 0 0 0.0627451 0 0 0 0 0.0941176 0 0 0 0 0.156863 0 0 0 0.06 0"/>
<feBlend mode="normal" in2="BackgroundImageFix" result="effect1_dropShadow_862_12713"/>
<feColorMatrix in="SourceAlpha" type="matrix" values="0 0 0 0 0 0 0 0 0 0 0 0 0 0 0 0 0 0 127 0" result="hardAlpha"/>
<feMorphology radius="2" operator="erode" in="SourceAlpha" result="effect2_dropShadow_862_12713"/>
<feOffset dy="4"/>
<feGaussianBlur stdDeviation="4"/>
<feColorMatrix type="matrix" values="0 0 0 0 0.0627451 0 0 0 0 0.0941176 0 0 0 0 0.156863 0 0 0 0.1 0"/>
<feBlend mode="normal" in2="effect1_dropShadow_862_12713" result="effect2_dropShadow_862_12713"/>
<feBlend mode="normal" in="SourceGraphic" in2="effect2_dropShadow_862_12713" result="shape"/>
</filter>
<filter id="filter3_dd_862_12713" x="402.5" y="198" width="67" height="62" filterUnits="userSpaceOnUse" color-interpolation-filters="sRGB">
<feFlood flood-opacity="0" result="BackgroundImageFix"/>
<feColorMatrix in="SourceAlpha" type="matrix" values="0 0 0 0 0 0 0 0 0 0 0 0 0 0 0 0 0 0 127 0" result="hardAlpha"/>
<feMorphology radius="2" operator="erode" in="SourceAlpha" result="effect1_dropShadow_862_12713"/>
<feOffset dy="4"/>
<feGaussianBlur stdDeviation="3"/>
<feColorMatrix type="matrix" values="0 0 0 0 0.0627451 0 0 0 0 0.0941176 0 0 0 0 0.156863 0 0 0 0.03 0"/>
<feBlend mode="normal" in2="BackgroundImageFix" result="effect1_dropShadow_862_12713"/>
<feColorMatrix in="SourceAlpha" type="matrix" values="0 0 0 0 0 0 0 0 0 0 0 0 0 0 0 0 0 0 127 0" result="hardAlpha"/>
<feMorphology radius="4" operator="erode" in="SourceAlpha" result="effect2_dropShadow_862_12713"/>
<feOffset dy="12"/>
<feGaussianBlur stdDeviation="8"/>
<feColorMatrix type="matrix" values="0 0 0 0 0.0627451 0 0 0 0 0.0941176 0 0 0 0 0.156863 0 0 0 0.08 0"/>
<feBlend mode="normal" in2="effect1_dropShadow_862_12713" result="effect2_dropShadow_862_12713"/>
<feBlend mode="normal" in="SourceGraphic" in2="effect2_dropShadow_862_12713" result="shape"/>
</filter>
<filter id="filter4_dd_862_12713" x="472" y="238" width="36" height="36" filterUnits="userSpaceOnUse" color-interpolation-filters="sRGB">
<feFlood flood-opacity="0" result="BackgroundImageFix"/>
<feColorMatrix in="SourceAlpha" type="matrix" values="0 0 0 0 0 0 0 0 0 0 0 0 0 0 0 0 0 0 127 0" result="hardAlpha"/>
<feMorphology radius="2" operator="erode" in="SourceAlpha" result="effect1_dropShadow_862_12713"/>
<feOffset dy="2"/>
<feGaussianBlur stdDeviation="2"/>
<feColorMatrix type="matrix" values="0 0 0 0 0.0627451 0 0 0 0 0.0941176 0 0 0 0 0.156863 0 0 0 0.06 0"/>
<feBlend mode="normal" in2="BackgroundImageFix" result="effect1_dropShadow_862_12713"/>
<feColorMatrix in="SourceAlpha" type="matrix" values="0 0 0 0 0 0 0 0 0 0 0 0 0 0 0 0 0 0 127 0" result="hardAlpha"/>
<feMorphology radius="2" operator="erode" in="SourceAlpha" result="effect2_dropShadow_862_12713"/>
<feOffset dy="4"/>
<feGaussianBlur stdDeviation="4"/>
<feColorMatrix type="matrix" values="0 0 0 0 0.0627451 0 0 0 0 0.0941176 0 0 0 0 0.156863 0 0 0 0.1 0"/>
<feBlend mode="normal" in2="effect1_dropShadow_862_12713" result="effect2_dropShadow_862_12713"/>
<feBlend mode="normal" in="SourceGraphic" in2="effect2_dropShadow_862_12713" result="shape"/>
</filter>
<filter id="filter5_dd_862_12713" x="452.5" y="198" width="75" height="62" filterUnits="userSpaceOnUse" color-interpolation-filters="sRGB">
<feFlood flood-opacity="0" result="BackgroundImageFix"/>
<feColorMatrix in="SourceAlpha" type="matrix" values="0 0 0 0 0 0 0 0 0 0 0 0 0 0 0 0 0 0 127 0" result="hardAlpha"/>
<feMorphology radius="2" operator="erode" in="SourceAlpha" result="effect1_dropShadow_862_12713"/>
<feOffset dy="4"/>
<feGaussianBlur stdDeviation="3"/>
<feColorMatrix type="matrix" values="0 0 0 0 0.0627451 0 0 0 0 0.0941176 0 0 0 0 0.156863 0 0 0 0.03 0"/>
<feBlend mode="normal" in2="BackgroundImageFix" result="effect1_dropShadow_862_12713"/>
<feColorMatrix in="SourceAlpha" type="matrix" values="0 0 0 0 0 0 0 0 0 0 0 0 0 0 0 0 0 0 127 0" result="hardAlpha"/>
<feMorphology radius="4" operator="erode" in="SourceAlpha" result="effect2_dropShadow_862_12713"/>
<feOffset dy="12"/>
<feGaussianBlur stdDeviation="8"/>
<feColorMatrix type="matrix" values="0 0 0 0 0.0627451 0 0 0 0 0.0941176 0 0 0 0 0.156863 0 0 0 0.08 0"/>
<feBlend mode="normal" in2="effect1_dropShadow_862_12713" result="effect2_dropShadow_862_12713"/>
<feBlend mode="normal" in="SourceGraphic" in2="effect2_dropShadow_862_12713" result="shape"/>
</filter>
<filter id="filter6_dd_862_12713" x="144" y="80" width="36" height="36" filterUnits="userSpaceOnUse" color-interpolation-filters="sRGB">
<feFlood flood-opacity="0" result="BackgroundImageFix"/>
<feColorMatrix in="SourceAlpha" type="matrix" values="0 0 0 0 0 0 0 0 0 0 0 0 0 0 0 0 0 0 127 0" result="hardAlpha"/>
<feMorphology radius="2" operator="erode" in="SourceAlpha" result="effect1_dropShadow_862_12713"/>
<feOffset dy="2"/>
<feGaussianBlur stdDeviation="2"/>
<feColorMatrix type="matrix" values="0 0 0 0 0.0627451 0 0 0 0 0.0941176 0 0 0 0 0.156863 0 0 0 0.06 0"/>
<feBlend mode="normal" in2="BackgroundImageFix" result="effect1_dropShadow_862_12713"/>
<feColorMatrix in="SourceAlpha" type="matrix" values="0 0 0 0 0 0 0 0 0 0 0 0 0 0 0 0 0 0 127 0" result="hardAlpha"/>
<feMorphology radius="2" operator="erode" in="SourceAlpha" result="effect2_dropShadow_862_12713"/>
<feOffset dy="4"/>
<feGaussianBlur stdDeviation="4"/>
<feColorMatrix type="matrix" values="0 0 0 0 0.0627451 0 0 0 0 0.0941176 0 0 0 0 0.156863 0 0 0 0.1 0"/>
<feBlend mode="normal" in2="effect1_dropShadow_862_12713" result="effect2_dropShadow_862_12713"/>
<feBlend mode="normal" in="SourceGraphic" in2="effect2_dropShadow_862_12713" result="shape"/>
</filter>
<filter id="filter7_dd_862_12713" x="198" y="80" width="36" height="36" filterUnits="userSpaceOnUse" color-interpolation-filters="sRGB">
<feFlood flood-opacity="0" result="BackgroundImageFix"/>
<feColorMatrix in="SourceAlpha" type="matrix" values="0 0 0 0 0 0 0 0 0 0 0 0 0 0 0 0 0 0 127 0" result="hardAlpha"/>
<feMorphology radius="2" operator="erode" in="SourceAlpha" result="effect1_dropShadow_862_12713"/>
<feOffset dy="2"/>
<feGaussianBlur stdDeviation="2"/>
<feColorMatrix type="matrix" values="0 0 0 0 0.0627451 0 0 0 0 0.0941176 0 0 0 0 0.156863 0 0 0 0.06 0"/>
<feBlend mode="normal" in2="BackgroundImageFix" result="effect1_dropShadow_862_12713"/>
<feColorMatrix in="SourceAlpha" type="matrix" values="0 0 0 0 0 0 0 0 0 0 0 0 0 0 0 0 0 0 127 0" result="hardAlpha"/>
<feMorphology radius="2" operator="erode" in="SourceAlpha" result="effect2_dropShadow_862_12713"/>
<feOffset dy="4"/>
<feGaussianBlur stdDeviation="4"/>
<feColorMatrix type="matrix" values="0 0 0 0 0.0627451 0 0 0 0 0.0941176 0 0 0 0 0.156863 0 0 0 0.1 0"/>
<feBlend mode="normal" in2="effect1_dropShadow_862_12713" result="effect2_dropShadow_862_12713"/>
<feBlend mode="normal" in="SourceGraphic" in2="effect2_dropShadow_862_12713" result="shape"/>
</filter>
<filter id="filter8_dd_862_12713" x="141" y="214" width="36" height="36" filterUnits="userSpaceOnUse" color-interpolation-filters="sRGB">
<feFlood flood-opacity="0" result="BackgroundImageFix"/>
<feColorMatrix in="SourceAlpha" type="matrix" values="0 0 0 0 0 0 0 0 0 0 0 0 0 0 0 0 0 0 127 0" result="hardAlpha"/>
<feMorphology radius="2" operator="erode" in="SourceAlpha" result="effect1_dropShadow_862_12713"/>
<feOffset dy="2"/>
<feGaussianBlur stdDeviation="2"/>
<feColorMatrix type="matrix" values="0 0 0 0 0.0627451 0 0 0 0 0.0941176 0 0 0 0 0.156863 0 0 0 0.06 0"/>
<feBlend mode="normal" in2="BackgroundImageFix" result="effect1_dropShadow_862_12713"/>
<feColorMatrix in="SourceAlpha" type="matrix" values="0 0 0 0 0 0 0 0 0 0 0 0 0 0 0 0 0 0 127 0" result="hardAlpha"/>
<feMorphology radius="2" operator="erode" in="SourceAlpha" result="effect2_dropShadow_862_12713"/>
<feOffset dy="4"/>
<feGaussianBlur stdDeviation="4"/>
<feColorMatrix type="matrix" values="0 0 0 0 0.0627451 0 0 0 0 0.0941176 0 0 0 0 0.156863 0 0 0 0.1 0"/>
<feBlend mode="normal" in2="effect1_dropShadow_862_12713" result="effect2_dropShadow_862_12713"/>
<feBlend mode="normal" in="SourceGraphic" in2="effect2_dropShadow_862_12713" result="shape"/>
</filter>
<filter id="filter9_dd_862_12713" x="125.5" y="244" width="67" height="62" filterUnits="userSpaceOnUse" color-interpolation-filters="sRGB">
<feFlood flood-opacity="0" result="BackgroundImageFix"/>
<feColorMatrix in="SourceAlpha" type="matrix" values="0 0 0 0 0 0 0 0 0 0 0 0 0 0 0 0 0 0 127 0" result="hardAlpha"/>
<feMorphology radius="2" operator="erode" in="SourceAlpha" result="effect1_dropShadow_862_12713"/>
<feOffset dy="4"/>
<feGaussianBlur stdDeviation="3"/>
<feColorMatrix type="matrix" values="0 0 0 0 0.0627451 0 0 0 0 0.0941176 0 0 0 0 0.156863 0 0 0 0.03 0"/>
<feBlend mode="normal" in2="BackgroundImageFix" result="effect1_dropShadow_862_12713"/>
<feColorMatrix in="SourceAlpha" type="matrix" values="0 0 0 0 0 0 0 0 0 0 0 0 0 0 0 0 0 0 127 0" result="hardAlpha"/>
<feMorphology radius="4" operator="erode" in="SourceAlpha" result="effect2_dropShadow_862_12713"/>
<feOffset dy="12"/>
<feGaussianBlur stdDeviation="8"/>
<feColorMatrix type="matrix" values="0 0 0 0 0.0627451 0 0 0 0 0.0941176 0 0 0 0 0.156863 0 0 0 0.08 0"/>
<feBlend mode="normal" in2="effect1_dropShadow_862_12713" result="effect2_dropShadow_862_12713"/>
<feBlend mode="normal" in="SourceGraphic" in2="effect2_dropShadow_862_12713" result="shape"/>
</filter>
<filter id="filter10_dd_862_12713" x="195" y="214" width="36" height="36" filterUnits="userSpaceOnUse" color-interpolation-filters="sRGB">
<feFlood flood-opacity="0" result="BackgroundImageFix"/>
<feColorMatrix in="SourceAlpha" type="matrix" values="0 0 0 0 0 0 0 0 0 0 0 0 0 0 0 0 0 0 127 0" result="hardAlpha"/>
<feMorphology radius="2" operator="erode" in="SourceAlpha" result="effect1_dropShadow_862_12713"/>
<feOffset dy="2"/>
<feGaussianBlur stdDeviation="2"/>
<feColorMatrix type="matrix" values="0 0 0 0 0.0627451 0 0 0 0 0.0941176 0 0 0 0 0.156863 0 0 0 0.06 0"/>
<feBlend mode="normal" in2="BackgroundImageFix" result="effect1_dropShadow_862_12713"/>
<feColorMatrix in="SourceAlpha" type="matrix" values="0 0 0 0 0 0 0 0 0 0 0 0 0 0 0 0 0 0 127 0" result="hardAlpha"/>
<feMorphology radius="2" operator="erode" in="SourceAlpha" result="effect2_dropShadow_862_12713"/>
<feOffset dy="4"/>
<feGaussianBlur stdDeviation="4"/>
<feColorMatrix type="matrix" values="0 0 0 0 0.0627451 0 0 0 0 0.0941176 0 0 0 0 0.156863 0 0 0 0.1 0"/>
<feBlend mode="normal" in2="effect1_dropShadow_862_12713" result="effect2_dropShadow_862_12713"/>
<feBlend mode="normal" in="SourceGraphic" in2="effect2_dropShadow_862_12713" result="shape"/>
</filter>
<filter id="filter11_dd_862_12713" x="175.5" y="244" width="75" height="62" filterUnits="userSpaceOnUse" color-interpolation-filters="sRGB">
<feFlood flood-opacity="0" result="BackgroundImageFix"/>
<feColorMatrix in="SourceAlpha" type="matrix" values="0 0 0 0 0 0 0 0 0 0 0 0 0 0 0 0 0 0 127 0" result="hardAlpha"/>
<feMorphology radius="2" operator="erode" in="SourceAlpha" result="effect1_dropShadow_862_12713"/>
<feOffset dy="4"/>
<feGaussianBlur stdDeviation="3"/>
<feColorMatrix type="matrix" values="0 0 0 0 0.0627451 0 0 0 0 0.0941176 0 0 0 0 0.156863 0 0 0 0.03 0"/>
<feBlend mode="normal" in2="BackgroundImageFix" result="effect1_dropShadow_862_12713"/>
<feColorMatrix in="SourceAlpha" type="matrix" values="0 0 0 0 0 0 0 0 0 0 0 0 0 0 0 0 0 0 127 0" result="hardAlpha"/>
<feMorphology radius="4" operator="erode" in="SourceAlpha" result="effect2_dropShadow_862_12713"/>
<feOffset dy="12"/>
<feGaussianBlur stdDeviation="8"/>
<feColorMatrix type="matrix" values="0 0 0 0 0.0627451 0 0 0 0 0.0941176 0 0 0 0 0.156863 0 0 0 0.08 0"/>
<feBlend mode="normal" in2="effect1_dropShadow_862_12713" result="effect2_dropShadow_862_12713"/>
<feBlend mode="normal" in="SourceGraphic" in2="effect2_dropShadow_862_12713" result="shape"/>
</filter>
</defs>
</svg>
