<svg width="396" height="184" viewBox="0 0 396 184" fill="none" xmlns="http://www.w3.org/2000/svg">
<rect y="0.852539" width="395.324" height="182.31" rx="3.8381" fill="#4CA154" fill-opacity="0.1"/>
<path d="M13.4322 163.492C12.1987 163.492 10.9928 163.858 9.96718 164.543C8.94153 165.229 8.14213 166.203 7.67007 167.342C7.19801 168.482 7.0745 169.736 7.31516 170.946C7.55581 172.156 8.14982 173.267 9.02206 174.139C9.89431 175.011 11.0056 175.606 12.2155 175.846C13.4253 176.087 14.6793 175.963 15.819 175.491C16.9586 175.019 17.9327 174.22 18.618 173.194C19.3033 172.168 19.6691 170.963 19.6691 169.729C19.6674 168.075 19.0097 166.49 17.8404 165.321C16.6712 164.152 15.0858 163.494 13.4322 163.492ZM16.1705 168.629L12.8121 171.988C12.7676 172.032 12.7147 172.068 12.6564 172.092C12.5982 172.116 12.5357 172.128 12.4727 172.128C12.4096 172.128 12.3472 172.116 12.289 172.092C12.2307 172.068 12.1778 172.032 12.1333 171.988L10.694 170.548C10.604 170.458 10.5534 170.336 10.5534 170.209C10.5534 170.082 10.604 169.959 10.694 169.869C10.784 169.779 10.9061 169.729 11.0334 169.729C11.1607 169.729 11.2828 169.779 11.3728 169.869L12.4727 170.97L15.4916 167.95C15.5362 167.906 15.5891 167.87 15.6473 167.846C15.7056 167.822 15.768 167.81 15.831 167.81C15.8941 167.81 15.9565 167.822 16.0147 167.846C16.073 167.87 16.1259 167.906 16.1705 167.95C16.215 167.995 16.2504 168.048 16.2745 168.106C16.2986 168.164 16.3111 168.227 16.3111 168.29C16.3111 168.353 16.2986 168.415 16.2745 168.474C16.2504 168.532 16.215 168.585 16.1705 168.629Z" fill="#4CA154"/>
<path d="M143.294 91.3087H142.274C142.245 91.1415 142.192 90.9934 142.113 90.8644C142.035 90.7336 141.938 90.6227 141.822 90.5319C141.705 90.441 141.573 90.3728 141.424 90.3274C141.277 90.2802 141.118 90.2565 140.947 90.2565C140.643 90.2565 140.374 90.3329 140.14 90.4855C139.905 90.6363 139.722 90.8581 139.589 91.1506C139.457 91.4414 139.39 91.7967 139.39 92.2165C139.39 92.6435 139.457 93.0034 139.589 93.2959C139.724 93.5867 139.907 93.8066 140.14 93.9556C140.374 94.1028 140.642 94.1764 140.944 94.1764C141.111 94.1764 141.267 94.1546 141.413 94.111C141.56 94.0656 141.692 93.9992 141.808 93.912C141.926 93.8248 142.025 93.7175 142.105 93.5903C142.187 93.4631 142.243 93.3177 142.274 93.1542L143.294 93.1596C143.256 93.425 143.173 93.6739 143.046 93.9065C142.92 94.1392 142.756 94.3445 142.552 94.5226C142.349 94.6989 142.111 94.837 141.838 94.9369C141.565 95.0351 141.263 95.0841 140.93 95.0841C140.44 95.0841 140.002 94.9706 139.616 94.7434C139.231 94.5162 138.928 94.1882 138.706 93.7593C138.484 93.3305 138.373 92.8162 138.373 92.2165C138.373 91.615 138.485 91.1007 138.709 90.6736C138.932 90.2447 139.237 89.9167 139.622 89.6895C140.007 89.4624 140.443 89.3488 140.93 89.3488C141.241 89.3488 141.53 89.3924 141.797 89.4796C142.064 89.5669 142.302 89.695 142.511 89.864C142.72 90.0312 142.892 90.2365 143.027 90.4801C143.163 90.7218 143.252 90.998 143.294 91.3087ZM145.261 95.0923C144.996 95.0923 144.757 95.0451 144.544 94.9506C144.333 94.8543 144.166 94.7125 144.043 94.5253C143.921 94.3381 143.86 94.1074 143.86 93.8329C143.86 93.5967 143.904 93.4013 143.991 93.2469C144.078 93.0924 144.197 92.9688 144.348 92.8761C144.499 92.7835 144.669 92.7135 144.858 92.6662C145.049 92.6172 145.246 92.5817 145.449 92.5599C145.695 92.5345 145.894 92.5118 146.046 92.4918C146.199 92.47 146.31 92.4373 146.379 92.3937C146.45 92.3482 146.485 92.2783 146.485 92.1838V92.1674C146.485 91.9621 146.424 91.803 146.302 91.6904C146.181 91.5777 146.005 91.5214 145.776 91.5214C145.535 91.5214 145.343 91.5741 145.201 91.6795C145.061 91.7849 144.967 91.9094 144.918 92.0529L143.996 91.9221C144.069 91.6677 144.189 91.455 144.356 91.2842C144.523 91.1116 144.728 90.9825 144.969 90.8971C145.211 90.8099 145.478 90.7663 145.771 90.7663C145.973 90.7663 146.173 90.7899 146.373 90.8372C146.573 90.8844 146.756 90.9625 146.921 91.0716C147.087 91.1788 147.219 91.3251 147.319 91.5105C147.421 91.6958 147.472 91.9275 147.472 92.2056V95.0078H146.523V94.4326H146.491C146.431 94.5489 146.346 94.658 146.237 94.7598C146.13 94.8597 145.994 94.9406 145.831 95.0024C145.669 95.0623 145.479 95.0923 145.261 95.0923ZM145.517 94.3672C145.715 94.3672 145.887 94.3281 146.033 94.25C146.178 94.17 146.29 94.0646 146.368 93.9338C146.448 93.803 146.488 93.6603 146.488 93.5058V93.0124C146.457 93.0379 146.404 93.0615 146.33 93.0833C146.257 93.1051 146.175 93.1242 146.084 93.1406C145.993 93.1569 145.904 93.1715 145.814 93.1842C145.725 93.1969 145.648 93.2078 145.583 93.2169C145.436 93.2369 145.304 93.2696 145.188 93.315C145.071 93.3604 144.979 93.4241 144.912 93.5058C144.845 93.5858 144.811 93.6894 144.811 93.8166C144.811 93.9983 144.878 94.1355 145.01 94.2282C145.143 94.3209 145.312 94.3672 145.517 94.3672ZM149.331 92.5545V95.0078H148.344V90.8208H149.287V91.5323H149.336C149.433 91.2978 149.586 91.1116 149.797 90.9735C150.01 90.8353 150.272 90.7663 150.585 90.7663C150.874 90.7663 151.125 90.8281 151.34 90.9516C151.556 91.0752 151.723 91.2542 151.842 91.4886C151.961 91.7231 152.021 92.0075 152.019 92.3419V95.0078H151.032V92.4945C151.032 92.2147 150.959 91.9957 150.814 91.8376C150.67 91.6795 150.471 91.6004 150.217 91.6004C150.044 91.6004 149.891 91.6386 149.756 91.7149C149.624 91.7894 149.519 91.8975 149.443 92.0393C149.368 92.181 149.331 92.3528 149.331 92.5545ZM154.728 95.0896C154.31 95.0896 153.951 94.9978 153.652 94.8143C153.353 94.6307 153.124 94.3772 152.962 94.0537C152.802 93.7284 152.722 93.3541 152.722 92.9307C152.722 92.5054 152.804 92.1301 152.967 91.8049C153.131 91.4777 153.362 91.2233 153.66 91.0416C153.96 90.8581 154.314 90.7663 154.723 90.7663C155.063 90.7663 155.363 90.829 155.625 90.9544C155.889 91.0779 156.098 91.2533 156.255 91.4805C156.411 91.7058 156.5 91.9693 156.522 92.271H155.579C155.541 92.0693 155.45 91.9012 155.306 91.7667C155.164 91.6304 154.974 91.5622 154.736 91.5622C154.535 91.5622 154.358 91.6168 154.205 91.7258C154.052 91.833 153.933 91.9875 153.848 92.1892C153.764 92.3909 153.722 92.6326 153.722 92.9143C153.722 93.1996 153.764 93.445 153.848 93.6503C153.931 93.8538 154.049 94.011 154.199 94.1219C154.352 94.2309 154.531 94.2854 154.736 94.2854C154.882 94.2854 155.012 94.2582 155.126 94.2037C155.243 94.1473 155.34 94.0665 155.418 93.9611C155.496 93.8557 155.55 93.7275 155.579 93.5767H156.522C156.498 93.8729 156.411 94.1355 156.26 94.3645C156.109 94.5917 155.904 94.7697 155.644 94.8988C155.384 95.026 155.079 95.0896 154.728 95.0896ZM159.066 95.0896C158.646 95.0896 158.284 95.0024 157.978 94.8279C157.675 94.6516 157.441 94.4027 157.278 94.081C157.114 93.7575 157.032 93.3768 157.032 92.9388C157.032 92.5081 157.114 92.1301 157.278 91.8049C157.443 91.4777 157.674 91.2233 157.97 91.0416C158.266 90.8581 158.614 90.7663 159.014 90.7663C159.272 90.7663 159.516 90.8081 159.745 90.8917C159.975 90.9735 160.179 91.1007 160.355 91.2733C160.533 91.4459 160.673 91.6658 160.775 91.933C160.877 92.1983 160.928 92.5145 160.928 92.8816V93.1842H157.496V92.519H159.982C159.98 92.3301 159.939 92.162 159.859 92.0148C159.779 91.8657 159.667 91.7485 159.524 91.6631C159.382 91.5777 159.217 91.535 159.028 91.535C158.826 91.535 158.649 91.5841 158.496 91.6822C158.344 91.7785 158.224 91.9057 158.139 92.0638C158.055 92.2201 158.013 92.3918 158.011 92.579V93.1596C158.011 93.4032 158.055 93.6121 158.145 93.7866C158.234 93.9592 158.358 94.0919 158.518 94.1846C158.678 94.2754 158.865 94.3209 159.08 94.3209C159.223 94.3209 159.353 94.3009 159.469 94.2609C159.586 94.2191 159.686 94.1582 159.772 94.0783C159.857 93.9983 159.922 93.8993 159.965 93.7811L160.887 93.8847C160.829 94.1282 160.718 94.3409 160.554 94.5226C160.392 94.7025 160.185 94.8424 159.933 94.9424C159.68 95.0405 159.391 95.0896 159.066 95.0896ZM162.629 89.4251V95.0078H161.643V89.4251H162.629Z" fill="#121826"/>
<path d="M131.028 79.054H170.077C170.622 79.054 171.002 79.0544 171.298 79.0785C171.589 79.1023 171.756 79.1465 171.882 79.2109C172.153 79.3488 172.373 79.569 172.511 79.8398C172.575 79.9662 172.619 80.133 172.643 80.4233C172.667 80.7193 172.668 81.0994 172.668 81.6447V102.37C172.668 102.916 172.667 103.296 172.643 103.592C172.619 103.882 172.575 104.049 172.511 104.175C172.373 104.446 172.153 104.666 171.882 104.804C171.756 104.869 171.589 104.913 171.298 104.937C171.002 104.961 170.622 104.961 170.077 104.961H131.028C130.482 104.961 130.102 104.961 129.806 104.937C129.516 104.913 129.349 104.869 129.223 104.804C128.952 104.666 128.732 104.446 128.594 104.175C128.529 104.049 128.485 103.882 128.461 103.592C128.437 103.296 128.437 102.916 128.437 102.37V81.6447C128.437 81.0994 128.437 80.7193 128.461 80.4233C128.485 80.133 128.529 79.9662 128.594 79.8398C128.732 79.569 128.952 79.3488 129.223 79.2109C129.349 79.1465 129.516 79.1023 129.806 79.0785C130.102 79.0544 130.482 79.054 131.028 79.054Z" stroke="#D2D5DA" stroke-width="0.959524"/>
<path d="M180.824 81.6447C180.824 80.5699 180.824 80.0325 181.033 79.622C181.217 79.2609 181.511 78.9674 181.872 78.7834C182.283 78.5742 182.82 78.5742 183.895 78.5742H264.297C265.371 78.5742 265.909 78.5742 266.319 78.7834C266.68 78.9674 266.974 79.2609 267.158 79.622C267.367 80.0325 267.367 80.5699 267.367 81.6447V102.37C267.367 103.445 267.367 103.983 267.158 104.393C266.974 104.754 266.68 105.048 266.319 105.232C265.909 105.441 265.371 105.441 264.297 105.441H183.895C182.82 105.441 182.283 105.441 181.872 105.232C181.511 105.048 181.217 104.754 181.033 104.393C180.824 103.983 180.824 103.445 180.824 102.37V81.6447Z" fill="#217CF5"/>
<path d="M196.178 87.3301C195.253 87.3301 194.348 87.6044 193.579 88.1184C192.81 88.6324 192.21 89.363 191.856 90.2177C191.502 91.0724 191.409 92.0129 191.59 92.9203C191.77 93.8277 192.216 94.6612 192.87 95.3154C193.524 95.9696 194.358 96.4151 195.265 96.5956C196.172 96.776 197.113 96.6834 197.968 96.3294C198.822 95.9753 199.553 95.3758 200.067 94.6065C200.581 93.8373 200.855 92.9329 200.855 92.0078C200.854 90.7676 200.361 89.5785 199.484 88.7016C198.607 87.8246 197.418 87.3314 196.178 87.3301ZM196.178 95.9658C195.395 95.9658 194.63 95.7337 193.979 95.2987C193.328 94.8638 192.821 94.2457 192.521 93.5224C192.221 92.7992 192.143 92.0034 192.296 91.2356C192.448 90.4678 192.825 89.7625 193.379 89.209C193.932 88.6555 194.638 88.2785 195.406 88.1258C196.173 87.9731 196.969 88.0514 197.692 88.351C198.416 88.6506 199.034 89.1579 199.469 89.8088C199.904 90.4597 200.136 91.2249 200.136 92.0078C200.135 93.0571 199.717 94.0632 198.975 94.8052C198.233 95.5472 197.227 95.9646 196.178 95.9658Z" fill="#FCFCFD"/>
<path d="M209.5 90.9598C209.474 90.7218 209.367 90.5364 209.178 90.4037C208.991 90.2711 208.747 90.2047 208.447 90.2047C208.237 90.2047 208.056 90.2365 207.905 90.3001C207.754 90.3638 207.639 90.4501 207.559 90.5591C207.479 90.6681 207.438 90.7926 207.436 90.9326C207.436 91.0489 207.462 91.1497 207.515 91.2351C207.57 91.3206 207.643 91.3932 207.736 91.4532C207.829 91.5114 207.931 91.5604 208.044 91.6004C208.157 91.6404 208.27 91.674 208.385 91.7013L208.908 91.8321C209.119 91.8812 209.322 91.9475 209.516 92.0311C209.712 92.1147 209.888 92.2201 210.042 92.3473C210.198 92.4745 210.322 92.6281 210.413 92.808C210.504 92.9879 210.549 93.1987 210.549 93.4404C210.549 93.7675 210.465 94.0556 210.298 94.3045C210.131 94.5517 209.889 94.7452 209.573 94.8851C209.259 95.0233 208.878 95.0923 208.431 95.0923C207.997 95.0923 207.62 95.0251 207.3 94.8906C206.982 94.7561 206.733 94.5599 206.553 94.3018C206.375 94.0437 206.278 93.7294 206.264 93.3586H207.259C207.273 93.5531 207.333 93.7148 207.439 93.8438C207.544 93.9729 207.681 94.0692 207.85 94.1328C208.021 94.1964 208.212 94.2282 208.423 94.2282C208.643 94.2282 208.835 94.1955 209.001 94.1301C209.168 94.0628 209.299 93.9701 209.393 93.852C209.488 93.7321 209.536 93.5922 209.538 93.4322C209.536 93.2868 209.493 93.1669 209.41 93.0724C209.326 92.9761 209.209 92.8961 209.058 92.8325C208.909 92.7671 208.735 92.709 208.535 92.6581L207.899 92.4945C207.44 92.3764 207.076 92.1974 206.809 91.9575C206.544 91.7158 206.411 91.3951 206.411 90.9953C206.411 90.6663 206.5 90.3783 206.678 90.1311C206.858 89.884 207.103 89.6923 207.412 89.556C207.72 89.4179 208.07 89.3488 208.461 89.3488C208.857 89.3488 209.204 89.4179 209.502 89.556C209.802 89.6923 210.038 89.8822 210.208 90.1257C210.379 90.3674 210.467 90.6454 210.473 90.9598H209.5ZM212.492 95.0923C212.227 95.0923 211.988 95.0451 211.775 94.9506C211.564 94.8543 211.397 94.7125 211.273 94.5253C211.152 94.3381 211.091 94.1074 211.091 93.8329C211.091 93.5967 211.134 93.4013 211.222 93.2469C211.309 93.0924 211.428 92.9688 211.579 92.8761C211.73 92.7835 211.9 92.7135 212.089 92.6662C212.279 92.6172 212.477 92.5817 212.68 92.5599C212.925 92.5345 213.124 92.5118 213.277 92.4918C213.43 92.47 213.541 92.4373 213.61 92.3937C213.68 92.3482 213.716 92.2783 213.716 92.1838V92.1674C213.716 91.9621 213.655 91.803 213.533 91.6904C213.412 91.5777 213.236 91.5214 213.007 91.5214C212.765 91.5214 212.574 91.5741 212.432 91.6795C212.292 91.7849 212.198 91.9094 212.149 92.0529L211.227 91.9221C211.3 91.6677 211.42 91.455 211.587 91.2842C211.754 91.1116 211.959 90.9825 212.2 90.8971C212.442 90.8099 212.709 90.7663 213.002 90.7663C213.203 90.7663 213.404 90.7899 213.604 90.8372C213.804 90.8844 213.987 90.9625 214.152 91.0716C214.317 91.1788 214.45 91.3251 214.55 91.5105C214.652 91.6958 214.703 91.9275 214.703 92.2056V95.0078H213.754V94.4326H213.721C213.661 94.5489 213.577 94.658 213.468 94.7598C213.361 94.8597 213.225 94.9406 213.062 95.0024C212.9 95.0623 212.71 95.0923 212.492 95.0923ZM212.748 94.3672C212.946 94.3672 213.118 94.3281 213.263 94.25C213.409 94.17 213.521 94.0646 213.599 93.9338C213.679 93.803 213.719 93.6603 213.719 93.5058V93.0124C213.688 93.0379 213.635 93.0615 213.561 93.0833C213.488 93.1051 213.406 93.1242 213.315 93.1406C213.224 93.1569 213.134 93.1715 213.045 93.1842C212.956 93.1969 212.879 93.2078 212.814 93.2169C212.666 93.2369 212.535 93.2696 212.418 93.315C212.302 93.3604 212.21 93.4241 212.143 93.5058C212.076 93.5858 212.042 93.6894 212.042 93.8166C212.042 93.9983 212.109 94.1355 212.241 94.2282C212.374 94.3209 212.543 94.3672 212.748 94.3672ZM219.165 90.8208L217.674 95.0078H216.584L215.093 90.8208H216.145L217.107 93.9311H217.151L218.116 90.8208H219.165ZM221.439 95.0896C221.019 95.0896 220.657 95.0024 220.351 94.8279C220.048 94.6516 219.814 94.4027 219.651 94.081C219.487 93.7575 219.406 93.3768 219.406 92.9388C219.406 92.5081 219.487 92.1301 219.651 91.8049C219.816 91.4777 220.047 91.2233 220.343 91.0416C220.64 90.8581 220.988 90.7663 221.387 90.7663C221.645 90.7663 221.889 90.8081 222.118 90.8917C222.349 90.9735 222.552 91.1007 222.728 91.2733C222.907 91.4459 223.047 91.6658 223.148 91.933C223.25 92.1983 223.301 92.5145 223.301 92.8816V93.1842H219.869V92.519H222.355C222.353 92.3301 222.312 92.162 222.232 92.0148C222.152 91.8657 222.041 91.7485 221.897 91.6631C221.755 91.5777 221.59 91.535 221.401 91.535C221.199 91.535 221.022 91.5841 220.869 91.6822C220.717 91.7785 220.598 91.9057 220.512 92.0638C220.429 92.2201 220.386 92.3918 220.384 92.579V93.1596C220.384 93.4032 220.429 93.6121 220.518 93.7866C220.607 93.9592 220.731 94.0919 220.891 94.1846C221.051 94.2754 221.238 94.3209 221.453 94.3209C221.596 94.3209 221.726 94.3009 221.843 94.2609C221.959 94.2191 222.06 94.1582 222.145 94.0783C222.231 93.9983 222.295 93.8993 222.339 93.7811L223.26 93.8847C223.202 94.1282 223.091 94.3409 222.927 94.5226C222.766 94.7025 222.559 94.8424 222.306 94.9424C222.053 95.0405 221.764 95.0896 221.439 95.0896ZM230.622 91.3087H229.603C229.574 91.1415 229.52 90.9934 229.442 90.8644C229.364 90.7336 229.266 90.6227 229.15 90.5319C229.034 90.441 228.901 90.3728 228.752 90.3274C228.605 90.2802 228.446 90.2565 228.275 90.2565C227.972 90.2565 227.703 90.3329 227.468 90.4855C227.234 90.6363 227.05 90.8581 226.918 91.1506C226.785 91.4414 226.719 91.7967 226.719 92.2165C226.719 92.6435 226.785 93.0034 226.918 93.2959C227.052 93.5867 227.236 93.8066 227.468 93.9556C227.703 94.1028 227.971 94.1764 228.272 94.1764C228.44 94.1764 228.596 94.1546 228.741 94.111C228.888 94.0656 229.02 93.9992 229.136 93.912C229.255 93.8248 229.354 93.7175 229.434 93.5903C229.515 93.4631 229.572 93.3177 229.603 93.1542L230.622 93.1596C230.584 93.425 230.501 93.6739 230.374 93.9065C230.249 94.1392 230.084 94.3445 229.881 94.5226C229.677 94.6989 229.439 94.837 229.166 94.9369C228.894 95.0351 228.591 95.0841 228.259 95.0841C227.768 95.0841 227.33 94.9706 226.945 94.7434C226.56 94.5162 226.256 94.1882 226.034 93.7593C225.813 93.3305 225.702 92.8162 225.702 92.2165C225.702 91.615 225.814 91.1007 226.037 90.6736C226.261 90.2447 226.565 89.9167 226.95 89.6895C227.336 89.4624 227.772 89.3488 228.259 89.3488C228.569 89.3488 228.858 89.3924 229.126 89.4796C229.393 89.5669 229.631 89.695 229.84 89.864C230.049 90.0312 230.22 90.2365 230.355 90.4801C230.491 90.7218 230.58 90.998 230.622 91.3087ZM232.371 92.5545V95.0078H231.385V89.4251H232.35V91.5323H232.399C232.497 91.296 232.649 91.1097 232.854 90.9735C233.061 90.8353 233.325 90.7663 233.644 90.7663C233.935 90.7663 234.189 90.8272 234.405 90.9489C234.621 91.0707 234.788 91.2488 234.907 91.4832C235.026 91.7176 235.086 92.0038 235.086 92.3419V95.0078H234.1V92.4945C234.1 92.2128 234.027 91.9939 233.882 91.8376C233.738 91.6795 233.536 91.6004 233.276 91.6004C233.102 91.6004 232.946 91.6386 232.808 91.7149C232.671 91.7894 232.564 91.8975 232.486 92.0393C232.41 92.181 232.371 92.3528 232.371 92.5545ZM237.177 95.0923C236.912 95.0923 236.673 95.0451 236.46 94.9506C236.25 94.8543 236.082 94.7125 235.959 94.5253C235.837 94.3381 235.776 94.1074 235.776 93.8329C235.776 93.5967 235.82 93.4013 235.907 93.2469C235.994 93.0924 236.113 92.9688 236.264 92.8761C236.415 92.7835 236.585 92.7135 236.774 92.6662C236.965 92.6172 237.162 92.5817 237.365 92.5599C237.611 92.5345 237.81 92.5118 237.962 92.4918C238.115 92.47 238.226 92.4373 238.295 92.3937C238.366 92.3482 238.401 92.2783 238.401 92.1838V92.1674C238.401 91.9621 238.34 91.803 238.219 91.6904C238.097 91.5777 237.921 91.5214 237.692 91.5214C237.451 91.5214 237.259 91.5741 237.117 91.6795C236.977 91.7849 236.883 91.9094 236.834 92.0529L235.912 91.9221C235.985 91.6677 236.105 91.455 236.272 91.2842C236.439 91.1116 236.644 90.9825 236.886 90.8971C237.127 90.8099 237.394 90.7663 237.687 90.7663C237.889 90.7663 238.09 90.7899 238.289 90.8372C238.489 90.8844 238.672 90.9625 238.837 91.0716C239.003 91.1788 239.135 91.3251 239.235 91.5105C239.337 91.6958 239.388 91.9275 239.388 92.2056V95.0078H238.439V94.4326H238.407C238.347 94.5489 238.262 94.658 238.153 94.7598C238.046 94.8597 237.911 94.9406 237.747 95.0024C237.585 95.0623 237.395 95.0923 237.177 95.0923ZM237.433 94.3672C237.632 94.3672 237.803 94.3281 237.949 94.25C238.094 94.17 238.206 94.0646 238.284 93.9338C238.364 93.803 238.404 93.6603 238.404 93.5058V93.0124C238.373 93.0379 238.32 93.0615 238.246 93.0833C238.173 93.1051 238.091 93.1242 238 93.1406C237.91 93.1569 237.82 93.1715 237.731 93.1842C237.642 93.1969 237.564 93.2078 237.499 93.2169C237.352 93.2369 237.22 93.2696 237.104 93.315C236.987 93.3604 236.896 93.4241 236.828 93.5058C236.761 93.5858 236.727 93.6894 236.727 93.8166C236.727 93.9983 236.794 94.1355 236.926 94.2282C237.059 94.3209 237.228 94.3672 237.433 94.3672ZM241.247 92.5545V95.0078H240.26V90.8208H241.203V91.5323H241.252C241.349 91.2978 241.502 91.1116 241.713 90.9735C241.926 90.8353 242.188 90.7663 242.501 90.7663C242.79 90.7663 243.042 90.8281 243.256 90.9516C243.472 91.0752 243.639 91.2542 243.758 91.4886C243.878 91.7231 243.937 92.0075 243.935 92.3419V95.0078H242.948V92.4945C242.948 92.2147 242.875 91.9957 242.73 91.8376C242.586 91.6795 242.387 91.6004 242.133 91.6004C241.96 91.6004 241.807 91.6386 241.672 91.7149C241.54 91.7894 241.435 91.8975 241.359 92.0393C241.284 92.181 241.247 92.3528 241.247 92.5545ZM246.639 96.6652C246.285 96.6652 245.98 96.617 245.726 96.5207C245.471 96.4262 245.267 96.299 245.112 96.1391C244.958 95.9791 244.851 95.802 244.791 95.6075L245.679 95.3922C245.719 95.4739 245.778 95.5548 245.854 95.6348C245.93 95.7166 246.033 95.7838 246.162 95.8365C246.293 95.891 246.457 95.9183 246.655 95.9183C246.935 95.9183 247.167 95.8501 247.35 95.7138C247.534 95.5793 247.626 95.3576 247.626 95.0487V94.2555H247.577C247.526 94.3572 247.451 94.4617 247.353 94.5689C247.257 94.6762 247.129 94.7661 246.969 94.8388C246.811 94.9115 246.612 94.9478 246.372 94.9478C246.05 94.9478 245.758 94.8724 245.497 94.7216C245.237 94.5689 245.03 94.3418 244.875 94.0401C244.723 93.7366 244.646 93.3568 244.646 92.9007C244.646 92.4409 244.723 92.0529 244.875 91.7367C245.03 91.4187 245.238 91.1779 245.499 91.0143C245.761 90.849 246.053 90.7663 246.374 90.7663C246.62 90.7663 246.822 90.8081 246.98 90.8917C247.14 90.9735 247.267 91.0725 247.361 91.1888C247.456 91.3033 247.528 91.4114 247.577 91.5132H247.631V90.8208H248.604V95.076C248.604 95.434 248.519 95.7302 248.348 95.9646C248.177 96.199 247.944 96.3744 247.647 96.4907C247.351 96.607 247.015 96.6652 246.639 96.6652ZM246.647 94.1737C246.856 94.1737 247.034 94.1228 247.181 94.021C247.329 93.9193 247.44 93.773 247.517 93.5822C247.593 93.3913 247.631 93.1624 247.631 92.8952C247.631 92.6317 247.593 92.4009 247.517 92.2028C247.442 92.0048 247.331 91.8512 247.184 91.7422C247.039 91.6313 246.86 91.5759 246.647 91.5759C246.427 91.5759 246.244 91.6331 246.096 91.7476C245.949 91.8621 245.838 92.0193 245.764 92.2192C245.689 92.4173 245.652 92.6426 245.652 92.8952C245.652 93.1515 245.689 93.3759 245.764 93.5685C245.84 93.7593 245.952 93.9084 246.099 94.0156C246.248 94.121 246.431 94.1737 246.647 94.1737ZM251.349 95.0896C250.929 95.0896 250.567 95.0024 250.262 94.8279C249.958 94.6516 249.725 94.4027 249.561 94.081C249.398 93.7575 249.316 93.3768 249.316 92.9388C249.316 92.5081 249.398 92.1301 249.561 91.8049C249.726 91.4777 249.957 91.2233 250.253 91.0416C250.55 90.8581 250.898 90.7663 251.297 90.7663C251.556 90.7663 251.799 90.8081 252.028 90.8917C252.259 90.9735 252.462 91.1007 252.639 91.2733C252.817 91.4459 252.957 91.6658 253.058 91.933C253.16 92.1983 253.211 92.5145 253.211 92.8816V93.1842H249.779V92.519H252.265C252.263 92.3301 252.222 92.162 252.143 92.0148C252.063 91.8657 251.951 91.7485 251.807 91.6631C251.665 91.5777 251.5 91.535 251.311 91.535C251.109 91.535 250.932 91.5841 250.78 91.6822C250.627 91.7785 250.508 91.9057 250.422 92.0638C250.339 92.2201 250.296 92.3918 250.294 92.579V93.1596C250.294 93.4032 250.339 93.6121 250.428 93.7866C250.517 93.9592 250.641 94.0919 250.801 94.1846C250.961 94.2754 251.148 94.3209 251.363 94.3209C251.506 94.3209 251.636 94.3009 251.753 94.2609C251.869 94.2191 251.97 94.1582 252.055 94.0783C252.141 93.9983 252.205 93.8993 252.249 93.7811L253.17 93.8847C253.112 94.1282 253.001 94.3409 252.838 94.5226C252.676 94.7025 252.469 94.8424 252.216 94.9424C251.964 95.0405 251.675 95.0896 251.349 95.0896ZM257.235 91.9275L256.336 92.0257C256.31 91.9348 256.266 91.8494 256.202 91.7694C256.14 91.6895 256.057 91.6249 255.951 91.5759C255.846 91.5268 255.717 91.5023 255.564 91.5023C255.359 91.5023 255.186 91.5468 255.046 91.6358C254.908 91.7249 254.84 91.8403 254.842 91.982C254.84 92.1038 254.885 92.2028 254.975 92.2792C255.068 92.3555 255.221 92.4182 255.433 92.4673L256.148 92.6199C256.544 92.7053 256.838 92.8407 257.031 93.0261C257.225 93.2114 257.323 93.454 257.325 93.7539C257.323 94.0174 257.246 94.25 257.093 94.4517C256.943 94.6516 256.733 94.8079 256.464 94.9206C256.195 95.0333 255.886 95.0896 255.537 95.0896C255.025 95.0896 254.612 94.9824 254.299 94.7679C253.987 94.5517 253.801 94.2509 253.741 93.8657L254.703 93.773C254.746 93.962 254.839 94.1046 254.981 94.2009C255.123 94.2973 255.307 94.3454 255.534 94.3454C255.769 94.3454 255.957 94.2973 256.099 94.2009C256.242 94.1046 256.314 93.9856 256.314 93.8438C256.314 93.7239 256.268 93.6249 256.175 93.5467C256.084 93.4686 255.942 93.4086 255.75 93.3668L255.035 93.2169C254.634 93.1333 254.337 92.9924 254.144 92.7944C253.951 92.5945 253.856 92.3419 253.858 92.0366C253.856 91.7785 253.926 91.555 254.068 91.366C254.211 91.1752 254.41 91.028 254.665 90.9244C254.921 90.819 255.216 90.7663 255.551 90.7663C256.041 90.7663 256.427 90.8708 256.709 91.0798C256.993 91.2887 257.168 91.5713 257.235 91.9275Z" fill="#FCFCFD"/>
<rect x="0.239881" y="1.09242" width="394.844" height="181.83" rx="3.59821" stroke="#4CA154" stroke-opacity="0.1" stroke-width="0.479762"/>
</svg>
