<svg width="396" height="184" viewBox="0 0 396 184" fill="none" xmlns="http://www.w3.org/2000/svg">
<rect x="0.675781" y="0.852539" width="395.324" height="182.31" rx="3.8381" fill="#CA3A31" fill-opacity="0.1"/>
<path d="M20.6366 173.333L15.3922 164.225C15.2612 164.002 15.0741 163.817 14.8495 163.688C14.6249 163.56 14.3706 163.492 14.1118 163.492C13.8531 163.492 13.5988 163.56 13.3742 163.688C13.1496 163.817 12.9625 164.002 12.8315 164.225L7.58708 173.333C7.46098 173.549 7.39453 173.794 7.39453 174.044C7.39453 174.294 7.46098 174.539 7.58708 174.755C7.71645 174.98 7.90322 175.166 8.12823 175.294C8.35323 175.423 8.60836 175.489 8.86744 175.486H19.3562C19.6151 175.489 19.87 175.422 20.0948 175.294C20.3195 175.165 20.5061 174.98 20.6354 174.755C20.7617 174.54 20.8283 174.294 20.8286 174.044C20.8288 173.794 20.7625 173.549 20.6366 173.333ZM13.6321 168.29C13.6321 168.163 13.6826 168.041 13.7726 167.951C13.8626 167.861 13.9846 167.81 14.1118 167.81C14.2391 167.81 14.3611 167.861 14.4511 167.951C14.5411 168.041 14.5916 168.163 14.5916 168.29V170.689C14.5916 170.816 14.5411 170.938 14.4511 171.028C14.3611 171.118 14.2391 171.168 14.1118 171.168C13.9846 171.168 13.8626 171.118 13.7726 171.028C13.6826 170.938 13.6321 170.816 13.6321 170.689V168.29ZM14.1118 173.567C13.9695 173.567 13.8304 173.525 13.712 173.446C13.5937 173.367 13.5014 173.254 13.447 173.123C13.3925 172.991 13.3783 172.847 13.406 172.707C13.4338 172.568 13.5023 172.439 13.603 172.339C13.7036 172.238 13.8318 172.17 13.9714 172.142C14.111 172.114 14.2557 172.128 14.3872 172.183C14.5187 172.237 14.6311 172.329 14.7102 172.448C14.7893 172.566 14.8315 172.705 14.8315 172.848C14.8315 173.038 14.7557 173.221 14.6207 173.356C14.4857 173.491 14.3027 173.567 14.1118 173.567Z" fill="#CA3A31"/>
<path d="M128.633 81.6447C128.633 80.5699 128.633 80.0325 128.842 79.622C129.026 79.2609 129.32 78.9674 129.681 78.7834C130.091 78.5742 130.629 78.5742 131.703 78.5742H170.753C171.828 78.5742 172.365 78.5742 172.775 78.7834C173.137 78.9674 173.43 79.2609 173.614 79.622C173.823 80.0325 173.823 80.5699 173.823 81.6447V102.37C173.823 103.445 173.823 103.983 173.614 104.393C173.43 104.754 173.137 105.048 172.775 105.232C172.365 105.441 171.828 105.441 170.753 105.441H131.703C130.629 105.441 130.091 105.441 129.681 105.232C129.32 105.048 129.026 104.754 128.842 104.393C128.633 103.983 128.633 103.445 128.633 102.37V81.6447Z" fill="#217CF5"/>
<path d="M143.969 91.3087H142.95C142.921 91.1415 142.867 90.9934 142.789 90.8644C142.711 90.7336 142.614 90.6227 142.497 90.5319C142.381 90.441 142.249 90.3728 142.1 90.3274C141.952 90.2802 141.793 90.2565 141.622 90.2565C141.319 90.2565 141.05 90.3329 140.816 90.4855C140.581 90.6363 140.398 90.8581 140.265 91.1506C140.132 91.4414 140.066 91.7967 140.066 92.2165C140.066 92.6435 140.132 93.0034 140.265 93.2959C140.399 93.5867 140.583 93.8066 140.816 93.9556C141.05 94.1028 141.318 94.1764 141.62 94.1764C141.787 94.1764 141.943 94.1546 142.089 94.111C142.236 94.0656 142.368 93.9992 142.484 93.912C142.602 93.8248 142.701 93.7175 142.781 93.5903C142.863 93.4631 142.919 93.3177 142.95 93.1542L143.969 93.1596C143.931 93.425 143.849 93.6739 143.721 93.9065C143.596 94.1392 143.432 94.3445 143.228 94.5226C143.024 94.6989 142.786 94.837 142.514 94.9369C142.241 95.0351 141.939 95.0841 141.606 95.0841C141.115 95.0841 140.677 94.9706 140.292 94.7434C139.907 94.5162 139.603 94.1882 139.382 93.7593C139.16 93.3305 139.049 92.8162 139.049 92.2165C139.049 91.615 139.161 91.1007 139.384 90.6736C139.608 90.2447 139.912 89.9167 140.298 89.6895C140.683 89.4624 141.119 89.3488 141.606 89.3488C141.917 89.3488 142.206 89.3924 142.473 89.4796C142.74 89.5669 142.978 89.695 143.187 89.864C143.396 90.0312 143.568 90.2365 143.702 90.4801C143.839 90.7218 143.928 90.998 143.969 91.3087ZM145.937 95.0923C145.672 95.0923 145.433 95.0451 145.22 94.9506C145.009 94.8543 144.842 94.7125 144.718 94.5253C144.597 94.3381 144.536 94.1074 144.536 93.8329C144.536 93.5967 144.579 93.4013 144.667 93.2469C144.754 93.0924 144.873 92.9688 145.024 92.8761C145.175 92.7835 145.344 92.7135 145.533 92.6662C145.724 92.6172 145.921 92.5817 146.125 92.5599C146.37 92.5345 146.569 92.5118 146.722 92.4918C146.875 92.47 146.985 92.4373 147.055 92.3937C147.125 92.3482 147.161 92.2783 147.161 92.1838V92.1674C147.161 91.9621 147.1 91.803 146.978 91.6904C146.856 91.5777 146.681 91.5214 146.452 91.5214C146.21 91.5214 146.019 91.5741 145.877 91.6795C145.737 91.7849 145.643 91.9094 145.593 92.0529L144.672 91.9221C144.745 91.6677 144.865 91.455 145.032 91.2842C145.199 91.1116 145.404 90.9825 145.645 90.8971C145.887 90.8099 146.154 90.7663 146.447 90.7663C146.648 90.7663 146.849 90.7899 147.049 90.8372C147.249 90.8844 147.432 90.9625 147.597 91.0716C147.762 91.1788 147.895 91.3251 147.995 91.5105C148.097 91.6958 148.148 91.9275 148.148 92.2056V95.0078H147.199V94.4326H147.166C147.106 94.5489 147.022 94.658 146.913 94.7598C146.806 94.8597 146.67 94.9406 146.507 95.0024C146.345 95.0623 146.155 95.0923 145.937 95.0923ZM146.193 94.3672C146.391 94.3672 146.563 94.3281 146.708 94.25C146.854 94.17 146.965 94.0646 147.044 93.9338C147.124 93.803 147.164 93.6603 147.164 93.5058V93.0124C147.133 93.0379 147.08 93.0615 147.005 93.0833C146.933 93.1051 146.851 93.1242 146.76 93.1406C146.669 93.1569 146.579 93.1715 146.49 93.1842C146.401 93.1969 146.324 93.2078 146.259 93.2169C146.111 93.2369 145.98 93.2696 145.863 93.315C145.747 93.3604 145.655 93.4241 145.588 93.5058C145.521 93.5858 145.487 93.6894 145.487 93.8166C145.487 93.9983 145.553 94.1355 145.686 94.2282C145.819 94.3209 145.988 94.3672 146.193 94.3672ZM150.007 92.5545V95.0078H149.02V90.8208H149.963V91.5323H150.012C150.108 91.2978 150.262 91.1116 150.473 90.9735C150.685 90.8353 150.948 90.7663 151.261 90.7663C151.55 90.7663 151.801 90.8281 152.016 90.9516C152.232 91.0752 152.399 91.2542 152.517 91.4886C152.637 91.7231 152.696 92.0075 152.694 92.3419V95.0078H151.708V92.4945C151.708 92.2147 151.635 91.9957 151.49 91.8376C151.346 91.6795 151.147 91.6004 150.893 91.6004C150.72 91.6004 150.566 91.6386 150.432 91.7149C150.299 91.7894 150.195 91.8975 150.118 92.0393C150.044 92.181 150.007 92.3528 150.007 92.5545ZM155.404 95.0896C154.986 95.0896 154.627 94.9978 154.327 94.8143C154.029 94.6307 153.799 94.3772 153.638 94.0537C153.478 93.7284 153.398 93.3541 153.398 92.9307C153.398 92.5054 153.48 92.1301 153.643 91.8049C153.807 91.4777 154.037 91.2233 154.335 91.0416C154.635 90.8581 154.99 90.7663 155.399 90.7663C155.738 90.7663 156.039 90.829 156.301 90.9544C156.564 91.0779 156.774 91.2533 156.931 91.4805C157.087 91.7058 157.176 91.9693 157.198 92.271H156.255C156.216 92.0693 156.125 91.9012 155.982 91.7667C155.84 91.6304 155.65 91.5622 155.412 91.5622C155.21 91.5622 155.033 91.6168 154.881 91.7258C154.728 91.833 154.609 91.9875 154.524 92.1892C154.44 92.3909 154.398 92.6326 154.398 92.9143C154.398 93.1996 154.44 93.445 154.524 93.6503C154.607 93.8538 154.724 94.011 154.875 94.1219C155.028 94.2309 155.207 94.2854 155.412 94.2854C155.558 94.2854 155.688 94.2582 155.802 94.2037C155.918 94.1473 156.016 94.0665 156.094 93.9611C156.172 93.8557 156.225 93.7275 156.255 93.5767H157.198C157.174 93.8729 157.087 94.1355 156.936 94.3645C156.785 94.5917 156.58 94.7697 156.32 94.8988C156.06 95.026 155.755 95.0896 155.404 95.0896ZM159.742 95.0896C159.322 95.0896 158.959 95.0024 158.654 94.8279C158.351 94.6516 158.117 94.4027 157.953 94.081C157.79 93.7575 157.708 93.3768 157.708 92.9388C157.708 92.5081 157.79 92.1301 157.953 91.8049C158.119 91.4777 158.35 91.2233 158.646 91.0416C158.942 90.8581 159.29 90.7663 159.69 90.7663C159.948 90.7663 160.191 90.8081 160.42 90.8917C160.651 90.9735 160.855 91.1007 161.031 91.2733C161.209 91.4459 161.349 91.6658 161.451 91.933C161.553 92.1983 161.603 92.5145 161.603 92.8816V93.1842H158.172V92.519H160.658C160.656 92.3301 160.615 92.162 160.535 92.0148C160.455 91.8657 160.343 91.7485 160.2 91.6631C160.058 91.5777 159.892 91.535 159.703 91.535C159.502 91.535 159.325 91.5841 159.172 91.6822C159.019 91.7785 158.9 91.9057 158.815 92.0638C158.731 92.2201 158.689 92.3918 158.687 92.579V93.1596C158.687 93.4032 158.731 93.6121 158.82 93.7866C158.909 93.9592 159.034 94.0919 159.194 94.1846C159.354 94.2754 159.541 94.3209 159.755 94.3209C159.899 94.3209 160.029 94.3009 160.145 94.2609C160.261 94.2191 160.362 94.1582 160.448 94.0783C160.533 93.9983 160.598 93.8993 160.641 93.7811L161.563 93.8847C161.504 94.1282 161.394 94.3409 161.23 94.5226C161.068 94.7025 160.861 94.8424 160.608 94.9424C160.356 95.0405 160.067 95.0896 159.742 95.0896ZM163.305 89.4251V95.0078H162.318V89.4251H163.305Z" fill="#FCFCFD"/>
<path d="M181.5 81.6447C181.5 80.5699 181.5 80.0325 181.709 79.622C181.893 79.2609 182.187 78.9674 182.548 78.7834C182.958 78.5742 183.496 78.5742 184.57 78.5742H264.972C266.047 78.5742 266.585 78.5742 266.995 78.7834C267.356 78.9674 267.65 79.2609 267.834 79.622C268.043 80.0325 268.043 80.5699 268.043 81.6447V102.37C268.043 103.445 268.043 103.983 267.834 104.393C267.65 104.754 267.356 105.048 266.995 105.232C266.585 105.441 266.047 105.441 264.972 105.441H184.57C183.496 105.441 182.958 105.441 182.548 105.232C182.187 105.048 181.893 104.754 181.709 104.393C181.5 103.983 181.5 103.445 181.5 102.37V81.6447Z" fill="#217CF5"/>
<path d="M196.853 87.3301C195.928 87.3301 195.024 87.6044 194.255 88.1184C193.485 88.6324 192.886 89.363 192.532 90.2177C192.178 91.0724 192.085 92.0129 192.266 92.9203C192.446 93.8277 192.892 94.6612 193.546 95.3154C194.2 95.9696 195.034 96.4151 195.941 96.5956C196.848 96.776 197.789 96.6834 198.644 96.3294C199.498 95.9753 200.229 95.3758 200.743 94.6065C201.257 93.8373 201.531 92.9329 201.531 92.0078C201.53 90.7676 201.037 89.5785 200.16 88.7016C199.283 87.8246 198.094 87.3314 196.853 87.3301ZM196.853 95.9658C196.071 95.9658 195.305 95.7337 194.654 95.2987C194.004 94.8638 193.496 94.2457 193.197 93.5224C192.897 92.7992 192.819 92.0034 192.971 91.2356C193.124 90.4678 193.501 89.7625 194.055 89.209C194.608 88.6555 195.314 88.2785 196.081 88.1258C196.849 87.9731 197.645 88.0514 198.368 88.351C199.091 88.6506 199.71 89.1579 200.144 89.8088C200.579 90.4597 200.811 91.2249 200.811 92.0078C200.81 93.0571 200.393 94.0632 199.651 94.8052C198.909 95.5472 197.903 95.9646 196.853 95.9658Z" fill="#FCFCFD"/>
<path d="M210.175 90.9598C210.15 90.7218 210.043 90.5364 209.854 90.4037C209.667 90.2711 209.423 90.2047 209.123 90.2047C208.912 90.2047 208.732 90.2365 208.581 90.3001C208.43 90.3638 208.314 90.4501 208.235 90.5591C208.155 90.6681 208.114 90.7926 208.112 90.9326C208.112 91.0489 208.138 91.1497 208.191 91.2351C208.245 91.3206 208.319 91.3932 208.412 91.4532C208.504 91.5114 208.607 91.5604 208.72 91.6004C208.832 91.6404 208.946 91.674 209.06 91.7013L209.584 91.8321C209.795 91.8812 209.997 91.9475 210.192 92.0311C210.388 92.1147 210.563 92.2201 210.718 92.3473C210.874 92.4745 210.998 92.6281 211.089 92.808C211.179 92.9879 211.225 93.1987 211.225 93.4404C211.225 93.7675 211.141 94.0556 210.974 94.3045C210.807 94.5517 210.565 94.7452 210.249 94.8851C209.935 95.0233 209.554 95.0923 209.107 95.0923C208.672 95.0923 208.295 95.0251 207.976 94.8906C207.658 94.7561 207.409 94.5599 207.229 94.3018C207.051 94.0437 206.954 93.7294 206.94 93.3586H207.935C207.949 93.5531 208.009 93.7148 208.115 93.8438C208.22 93.9729 208.357 94.0692 208.526 94.1328C208.697 94.1964 208.888 94.2282 209.099 94.2282C209.319 94.2282 209.511 94.1955 209.677 94.1301C209.844 94.0628 209.975 93.9701 210.069 93.852C210.164 93.7321 210.212 93.5922 210.214 93.4322C210.212 93.2868 210.169 93.1669 210.085 93.0724C210.002 92.9761 209.885 92.8961 209.734 92.8325C209.585 92.7671 209.41 92.709 209.21 92.6581L208.575 92.4945C208.115 92.3764 207.752 92.1974 207.485 91.9575C207.22 91.7158 207.087 91.3951 207.087 90.9953C207.087 90.6663 207.176 90.3783 207.354 90.1311C207.534 89.884 207.778 89.6923 208.087 89.556C208.396 89.4179 208.746 89.3488 209.137 89.3488C209.533 89.3488 209.88 89.4179 210.178 89.556C210.478 89.6923 210.713 89.8822 210.884 90.1257C211.055 90.3674 211.143 90.6454 211.149 90.9598H210.175ZM213.168 95.0923C212.902 95.0923 212.663 95.0451 212.451 94.9506C212.24 94.8543 212.073 94.7125 211.949 94.5253C211.828 94.3381 211.767 94.1074 211.767 93.8329C211.767 93.5967 211.81 93.4013 211.897 93.2469C211.985 93.0924 212.104 92.9688 212.255 92.8761C212.405 92.7835 212.575 92.7135 212.764 92.6662C212.955 92.6172 213.152 92.5817 213.356 92.5599C213.601 92.5345 213.8 92.5118 213.953 92.4918C214.105 92.47 214.216 92.4373 214.285 92.3937C214.356 92.3482 214.392 92.2783 214.392 92.1838V92.1674C214.392 91.9621 214.331 91.803 214.209 91.6904C214.087 91.5777 213.912 91.5214 213.683 91.5214C213.441 91.5214 213.25 91.5741 213.108 91.6795C212.968 91.7849 212.873 91.9094 212.824 92.0529L211.903 91.9221C211.976 91.6677 212.096 91.455 212.263 91.2842C212.43 91.1116 212.634 90.9825 212.876 90.8971C213.118 90.8099 213.385 90.7663 213.678 90.7663C213.879 90.7663 214.08 90.7899 214.28 90.8372C214.48 90.8844 214.662 90.9625 214.828 91.0716C214.993 91.1788 215.126 91.3251 215.226 91.5105C215.328 91.6958 215.378 91.9275 215.378 92.2056V95.0078H214.43V94.4326H214.397C214.337 94.5489 214.253 94.658 214.144 94.7598C214.036 94.8597 213.901 94.9406 213.737 95.0024C213.576 95.0623 213.386 95.0923 213.168 95.0923ZM213.424 94.3672C213.622 94.3672 213.794 94.3281 213.939 94.25C214.085 94.17 214.196 94.0646 214.274 93.9338C214.354 93.803 214.394 93.6603 214.394 93.5058V93.0124C214.364 93.0379 214.311 93.0615 214.236 93.0833C214.164 93.1051 214.082 93.1242 213.991 93.1406C213.9 93.1569 213.81 93.1715 213.721 93.1842C213.632 93.1969 213.555 93.2078 213.489 93.2169C213.342 93.2369 213.21 93.2696 213.094 93.315C212.978 93.3604 212.886 93.4241 212.819 93.5058C212.752 93.5858 212.718 93.6894 212.718 93.8166C212.718 93.9983 212.784 94.1355 212.917 94.2282C213.05 94.3209 213.219 94.3672 213.424 94.3672ZM219.841 90.8208L218.35 95.0078H217.259L215.768 90.8208H216.82L217.783 93.9311H217.826L218.791 90.8208H219.841ZM222.115 95.0896C221.695 95.0896 221.333 95.0024 221.027 94.8279C220.724 94.6516 220.49 94.4027 220.327 94.081C220.163 93.7575 220.081 93.3768 220.081 92.9388C220.081 92.5081 220.163 92.1301 220.327 91.8049C220.492 91.4777 220.723 91.2233 221.019 91.0416C221.315 90.8581 221.663 90.7663 222.063 90.7663C222.321 90.7663 222.565 90.8081 222.794 90.8917C223.024 90.9735 223.228 91.1007 223.404 91.2733C223.582 91.4459 223.722 91.6658 223.824 91.933C223.926 92.1983 223.977 92.5145 223.977 92.8816V93.1842H220.545V92.519H223.031C223.029 92.3301 222.988 92.162 222.908 92.0148C222.828 91.8657 222.716 91.7485 222.573 91.6631C222.431 91.5777 222.266 91.535 222.077 91.535C221.875 91.535 221.698 91.5841 221.545 91.6822C221.393 91.7785 221.274 91.9057 221.188 92.0638C221.105 92.2201 221.062 92.3918 221.06 92.579V93.1596C221.06 93.4032 221.105 93.6121 221.194 93.7866C221.283 93.9592 221.407 94.0919 221.567 94.1846C221.727 94.2754 221.914 94.3209 222.129 94.3209C222.272 94.3209 222.402 94.3009 222.518 94.2609C222.635 94.2191 222.736 94.1582 222.821 94.0783C222.906 93.9983 222.971 93.8993 223.014 93.7811L223.936 93.8847C223.878 94.1282 223.767 94.3409 223.603 94.5226C223.442 94.7025 223.234 94.8424 222.982 94.9424C222.729 95.0405 222.44 95.0896 222.115 95.0896ZM231.298 91.3087H230.278C230.249 91.1415 230.196 90.9934 230.118 90.8644C230.039 90.7336 229.942 90.6227 229.826 90.5319C229.71 90.441 229.577 90.3728 229.428 90.3274C229.281 90.2802 229.122 90.2565 228.951 90.2565C228.647 90.2565 228.378 90.3329 228.144 90.4855C227.91 90.6363 227.726 90.8581 227.593 91.1506C227.461 91.4414 227.394 91.7967 227.394 92.2165C227.394 92.6435 227.461 93.0034 227.593 93.2959C227.728 93.5867 227.911 93.8066 228.144 93.9556C228.378 94.1028 228.646 94.1764 228.948 94.1764C229.115 94.1764 229.272 94.1546 229.417 94.111C229.564 94.0656 229.696 93.9992 229.812 93.912C229.93 93.8248 230.029 93.7175 230.109 93.5903C230.191 93.4631 230.247 93.3177 230.278 93.1542L231.298 93.1596C231.26 93.425 231.177 93.6739 231.05 93.9065C230.924 94.1392 230.76 94.3445 230.556 94.5226C230.353 94.6989 230.115 94.837 229.842 94.9369C229.57 95.0351 229.267 95.0841 228.934 95.0841C228.444 95.0841 228.006 94.9706 227.621 94.7434C227.235 94.5162 226.932 94.1882 226.71 93.7593C226.488 93.3305 226.378 92.8162 226.378 92.2165C226.378 91.615 226.489 91.1007 226.713 90.6736C226.936 90.2447 227.241 89.9167 227.626 89.6895C228.011 89.4624 228.447 89.3488 228.934 89.3488C229.245 89.3488 229.534 89.3924 229.801 89.4796C230.068 89.5669 230.307 89.695 230.516 89.864C230.725 90.0312 230.896 90.2365 231.031 90.4801C231.167 90.7218 231.256 90.998 231.298 91.3087ZM233.047 92.5545V95.0078H232.06V89.4251H233.025V91.5323H233.074C233.173 91.296 233.324 91.1097 233.53 90.9735C233.737 90.8353 234 90.7663 234.32 90.7663C234.611 90.7663 234.864 90.8272 235.081 90.9489C235.297 91.0707 235.464 91.2488 235.582 91.4832C235.702 91.7176 235.762 92.0038 235.762 92.3419V95.0078H234.775V92.4945C234.775 92.2128 234.703 91.9939 234.557 91.8376C234.414 91.6795 234.212 91.6004 233.952 91.6004C233.778 91.6004 233.621 91.6386 233.483 91.7149C233.347 91.7894 233.24 91.8975 233.162 92.0393C233.085 92.181 233.047 92.3528 233.047 92.5545ZM237.853 95.0923C237.588 95.0923 237.349 95.0451 237.136 94.9506C236.925 94.8543 236.758 94.7125 236.635 94.5253C236.513 94.3381 236.452 94.1074 236.452 93.8329C236.452 93.5967 236.496 93.4013 236.583 93.2469C236.67 93.0924 236.789 92.9688 236.94 92.8761C237.091 92.7835 237.261 92.7135 237.45 92.6662C237.64 92.6172 237.838 92.5817 238.041 92.5599C238.286 92.5345 238.485 92.5118 238.638 92.4918C238.791 92.47 238.902 92.4373 238.971 92.3937C239.042 92.3482 239.077 92.2783 239.077 92.1838V92.1674C239.077 91.9621 239.016 91.803 238.894 91.6904C238.773 91.5777 238.597 91.5214 238.368 91.5214C238.127 91.5214 237.935 91.5741 237.793 91.6795C237.653 91.7849 237.559 91.9094 237.51 92.0529L236.588 91.9221C236.661 91.6677 236.781 91.455 236.948 91.2842C237.115 91.1116 237.32 90.9825 237.561 90.8971C237.803 90.8099 238.07 90.7663 238.363 90.7663C238.564 90.7663 238.765 90.7899 238.965 90.8372C239.165 90.8844 239.348 90.9625 239.513 91.0716C239.678 91.1788 239.811 91.3251 239.911 91.5105C240.013 91.6958 240.064 91.9275 240.064 92.2056V95.0078H239.115V94.4326H239.082C239.022 94.5489 238.938 94.658 238.829 94.7598C238.722 94.8597 238.586 94.9406 238.423 95.0024C238.261 95.0623 238.071 95.0923 237.853 95.0923ZM238.109 94.3672C238.307 94.3672 238.479 94.3281 238.624 94.25C238.77 94.17 238.882 94.0646 238.96 93.9338C239.04 93.803 239.08 93.6603 239.08 93.5058V93.0124C239.049 93.0379 238.996 93.0615 238.922 93.0833C238.849 93.1051 238.767 93.1242 238.676 93.1406C238.585 93.1569 238.495 93.1715 238.406 93.1842C238.317 93.1969 238.24 93.2078 238.175 93.2169C238.027 93.2369 237.896 93.2696 237.779 93.315C237.663 93.3604 237.571 93.4241 237.504 93.5058C237.437 93.5858 237.403 93.6894 237.403 93.8166C237.403 93.9983 237.47 94.1355 237.602 94.2282C237.735 94.3209 237.904 94.3672 238.109 94.3672ZM241.923 92.5545V95.0078H240.936V90.8208H241.879V91.5323H241.928C242.025 91.2978 242.178 91.1116 242.389 90.9735C242.602 90.8353 242.864 90.7663 243.177 90.7663C243.466 90.7663 243.717 90.8281 243.932 90.9516C244.148 91.0752 244.315 91.2542 244.433 91.4886C244.553 91.7231 244.612 92.0075 244.611 92.3419V95.0078H243.624V92.4945C243.624 92.2147 243.551 91.9957 243.406 91.8376C243.262 91.6795 243.063 91.6004 242.809 91.6004C242.636 91.6004 242.483 91.6386 242.348 91.7149C242.215 91.7894 242.111 91.8975 242.035 92.0393C241.96 92.181 241.923 92.3528 241.923 92.5545ZM247.315 96.6652C246.96 96.6652 246.656 96.617 246.402 96.5207C246.147 96.4262 245.943 96.299 245.788 96.1391C245.634 95.9791 245.526 95.802 245.467 95.6075L246.355 95.3922C246.395 95.4739 246.453 95.5548 246.53 95.6348C246.606 95.7166 246.709 95.7838 246.838 95.8365C246.968 95.891 247.133 95.9183 247.331 95.9183C247.611 95.9183 247.843 95.8501 248.026 95.7138C248.21 95.5793 248.301 95.3576 248.301 95.0487V94.2555H248.252C248.202 94.3572 248.127 94.4617 248.029 94.5689C247.933 94.6762 247.804 94.7661 247.645 94.8388C247.486 94.9115 247.287 94.9478 247.048 94.9478C246.726 94.9478 246.434 94.8724 246.173 94.7216C245.913 94.5689 245.705 94.3418 245.551 94.0401C245.398 93.7366 245.322 93.3568 245.322 92.9007C245.322 92.4409 245.398 92.0529 245.551 91.7367C245.705 91.4187 245.914 91.1779 246.175 91.0143C246.437 90.849 246.729 90.7663 247.05 90.7663C247.296 90.7663 247.497 90.8081 247.655 90.8917C247.815 90.9735 247.943 91.0725 248.037 91.1888C248.132 91.3033 248.203 91.4114 248.252 91.5132H248.307V90.8208H249.28V95.076C249.28 95.434 249.195 95.7302 249.024 95.9646C248.853 96.199 248.619 96.3744 248.323 96.4907C248.027 96.607 247.691 96.6652 247.315 96.6652ZM247.323 94.1737C247.532 94.1737 247.71 94.1228 247.857 94.021C248.004 93.9193 248.116 93.773 248.192 93.5822C248.269 93.3913 248.307 93.1624 248.307 92.8952C248.307 92.6317 248.269 92.4009 248.192 92.2028C248.118 92.0048 248.007 91.8512 247.86 91.7422C247.714 91.6313 247.535 91.5759 247.323 91.5759C247.103 91.5759 246.919 91.6331 246.772 91.7476C246.625 91.8621 246.514 92.0193 246.44 92.2192C246.365 92.4173 246.328 92.6426 246.328 92.8952C246.328 93.1515 246.365 93.3759 246.44 93.5685C246.516 93.7593 246.628 93.9084 246.775 94.0156C246.924 94.121 247.107 94.1737 247.323 94.1737ZM252.025 95.0896C251.605 95.0896 251.243 95.0024 250.937 94.8279C250.634 94.6516 250.4 94.4027 250.237 94.081C250.073 93.7575 249.992 93.3768 249.992 92.9388C249.992 92.5081 250.073 92.1301 250.237 91.8049C250.402 91.4777 250.633 91.2233 250.929 91.0416C251.225 90.8581 251.573 90.7663 251.973 90.7663C252.231 90.7663 252.475 90.8081 252.704 90.8917C252.935 90.9735 253.138 91.1007 253.314 91.2733C253.493 91.4459 253.632 91.6658 253.734 91.933C253.836 92.1983 253.887 92.5145 253.887 92.8816V93.1842H250.455V92.519H252.941C252.939 92.3301 252.898 92.162 252.818 92.0148C252.738 91.8657 252.627 91.7485 252.483 91.6631C252.341 91.5777 252.176 91.535 251.987 91.535C251.785 91.535 251.608 91.5841 251.455 91.6822C251.303 91.7785 251.184 91.9057 251.098 92.0638C251.015 92.2201 250.972 92.3918 250.97 92.579V93.1596C250.97 93.4032 251.015 93.6121 251.104 93.7866C251.193 93.9592 251.317 94.0919 251.477 94.1846C251.637 94.2754 251.824 94.3209 252.039 94.3209C252.182 94.3209 252.312 94.3009 252.429 94.2609C252.545 94.2191 252.646 94.1582 252.731 94.0783C252.816 93.9983 252.881 93.8993 252.925 93.7811L253.846 93.8847C253.788 94.1282 253.677 94.3409 253.513 94.5226C253.352 94.7025 253.145 94.8424 252.892 94.9424C252.639 95.0405 252.35 95.0896 252.025 95.0896ZM257.911 91.9275L257.011 92.0257C256.986 91.9348 256.941 91.8494 256.878 91.7694C256.816 91.6895 256.733 91.6249 256.627 91.5759C256.522 91.5268 256.393 91.5023 256.24 91.5023C256.035 91.5023 255.862 91.5468 255.722 91.6358C255.584 91.7249 255.516 91.8403 255.518 91.982C255.516 92.1038 255.56 92.2028 255.651 92.2792C255.744 92.3555 255.897 92.4182 256.109 92.4673L256.823 92.6199C257.22 92.7053 257.514 92.8407 257.707 93.0261C257.901 93.2114 257.999 93.454 258.001 93.7539C257.999 94.0174 257.922 94.25 257.769 94.4517C257.618 94.6516 257.409 94.8079 257.14 94.9206C256.871 95.0333 256.562 95.0896 256.213 95.0896C255.7 95.0896 255.288 94.9824 254.975 94.7679C254.663 94.5517 254.476 94.2509 254.416 93.8657L255.379 93.773C255.422 93.962 255.515 94.1046 255.657 94.2009C255.798 94.2973 255.983 94.3454 256.21 94.3454C256.444 94.3454 256.633 94.2973 256.774 94.2009C256.918 94.1046 256.99 93.9856 256.99 93.8438C256.99 93.7239 256.943 93.6249 256.851 93.5467C256.76 93.4686 256.618 93.4086 256.425 93.3668L255.711 93.2169C255.31 93.1333 255.012 92.9924 254.82 92.7944C254.627 92.5945 254.532 92.3419 254.534 92.0366C254.532 91.7785 254.602 91.555 254.743 91.366C254.887 91.1752 255.086 91.028 255.34 90.9244C255.597 90.819 255.892 90.7663 256.226 90.7663C256.717 90.7663 257.103 90.8708 257.385 91.0798C257.668 91.2887 257.844 91.5713 257.911 91.9275Z" fill="#FCFCFD"/>
<rect x="0.915662" y="1.09242" width="394.844" height="181.83" rx="3.59821" stroke="#CA3A31" stroke-opacity="0.1" stroke-width="0.479762"/>
</svg>
