<svg width="804" height="167" viewBox="0 0 804 167" fill="none" xmlns="http://www.w3.org/2000/svg">
<rect width="804" height="167" fill="#F9FAFB"/>
<rect x="177.5" y="68.5" width="89" height="31" rx="2.5" fill="#217CF5"/>
<path d="M189.959 88V79.2727H193.155C193.774 79.2727 194.287 79.375 194.693 79.5795C195.099 79.7812 195.403 80.0554 195.605 80.402C195.807 80.7457 195.908 81.1335 195.908 81.5653C195.908 81.929 195.841 82.2358 195.707 82.4858C195.574 82.733 195.395 82.9318 195.17 83.0824C194.949 83.2301 194.705 83.3381 194.438 83.4062V83.4915C194.727 83.5057 195.01 83.5994 195.286 83.7727C195.564 83.9432 195.794 84.1861 195.976 84.5014C196.158 84.8168 196.249 85.2003 196.249 85.652C196.249 86.098 196.143 86.4986 195.933 86.8537C195.726 87.206 195.405 87.4858 194.97 87.6932C194.536 87.8977 193.98 88 193.304 88H189.959ZM191.276 86.8707H193.176C193.807 86.8707 194.259 86.7486 194.531 86.5043C194.804 86.2599 194.94 85.9545 194.94 85.5881C194.94 85.3125 194.871 85.0597 194.732 84.8295C194.592 84.5994 194.393 84.4162 194.135 84.2798C193.879 84.1435 193.575 84.0753 193.223 84.0753H191.276V86.8707ZM191.276 83.0483H193.04C193.335 83.0483 193.601 82.9915 193.837 82.8778C194.075 82.7642 194.264 82.6051 194.403 82.4006C194.545 82.1932 194.616 81.9489 194.616 81.6676C194.616 81.3068 194.49 81.0043 194.237 80.7599C193.984 80.5156 193.597 80.3935 193.074 80.3935H191.276V83.0483ZM201.854 85.2855V81.4545H203.133V88H201.88V86.8665H201.812C201.661 87.2159 201.42 87.5071 201.087 87.7401C200.758 87.9702 200.347 88.0852 199.856 88.0852C199.435 88.0852 199.063 87.9929 198.739 87.8082C198.418 87.6207 198.165 87.3438 197.981 86.9773C197.799 86.6108 197.708 86.1577 197.708 85.6179V81.4545H198.982V85.4645C198.982 85.9105 199.106 86.2656 199.353 86.5298C199.6 86.794 199.921 86.9261 200.316 86.9261C200.555 86.9261 200.792 86.8665 201.028 86.7472C201.266 86.6278 201.464 86.4474 201.62 86.206C201.779 85.9645 201.857 85.6577 201.854 85.2855ZM207.9 81.4545V82.4773H204.325V81.4545H207.9ZM205.284 79.8864H206.558V86.0781C206.558 86.3253 206.595 86.5114 206.669 86.6364C206.743 86.7585 206.838 86.8423 206.954 86.8878C207.074 86.9304 207.203 86.9517 207.342 86.9517C207.444 86.9517 207.534 86.9446 207.61 86.9304C207.687 86.9162 207.747 86.9048 207.789 86.8963L208.02 87.9489C207.946 87.9773 207.841 88.0057 207.704 88.0341C207.568 88.0653 207.397 88.0824 207.193 88.0852C206.858 88.0909 206.545 88.0312 206.255 87.9062C205.966 87.7812 205.731 87.5881 205.552 87.3267C205.373 87.0653 205.284 86.7372 205.284 86.3423V79.8864ZM212.365 81.4545V82.4773H208.79V81.4545H212.365ZM209.749 79.8864H211.023V86.0781C211.023 86.3253 211.06 86.5114 211.134 86.6364C211.207 86.7585 211.303 86.8423 211.419 86.8878C211.538 86.9304 211.668 86.9517 211.807 86.9517C211.909 86.9517 211.999 86.9446 212.075 86.9304C212.152 86.9162 212.212 86.9048 212.254 86.8963L212.484 87.9489C212.411 87.9773 212.305 88.0057 212.169 88.0341C212.033 88.0653 211.862 88.0824 211.658 88.0852C211.322 88.0909 211.01 88.0312 210.72 87.9062C210.43 87.7812 210.196 87.5881 210.017 87.3267C209.838 87.0653 209.749 86.7372 209.749 86.3423V79.8864ZM216.461 88.1321C215.848 88.1321 215.312 87.9915 214.855 87.7102C214.397 87.429 214.042 87.0355 213.789 86.5298C213.537 86.0241 213.41 85.4332 213.41 84.7571C213.41 84.0781 213.537 83.4844 213.789 82.9759C214.042 82.4673 214.397 82.0724 214.855 81.7912C215.312 81.5099 215.848 81.3693 216.461 81.3693C217.075 81.3693 217.61 81.5099 218.068 81.7912C218.525 82.0724 218.88 82.4673 219.133 82.9759C219.386 83.4844 219.512 84.0781 219.512 84.7571C219.512 85.4332 219.386 86.0241 219.133 86.5298C218.88 87.0355 218.525 87.429 218.068 87.7102C217.61 87.9915 217.075 88.1321 216.461 88.1321ZM216.466 87.0625C216.863 87.0625 217.193 86.9574 217.454 86.7472C217.716 86.5369 217.909 86.2571 218.034 85.9077C218.162 85.5582 218.225 85.1733 218.225 84.7528C218.225 84.3352 218.162 83.9517 218.034 83.6023C217.909 83.25 217.716 82.9673 217.454 82.7543C217.193 82.5412 216.863 82.4347 216.466 82.4347C216.065 82.4347 215.733 82.5412 215.468 82.7543C215.207 82.9673 215.012 83.25 214.885 83.6023C214.76 83.9517 214.697 84.3352 214.697 84.7528C214.697 85.1733 214.76 85.5582 214.885 85.9077C215.012 86.2571 215.207 86.5369 215.468 86.7472C215.733 86.9574 216.065 87.0625 216.466 87.0625ZM222.209 84.1136V88H220.935V81.4545H222.158V82.5199H222.239C222.389 82.1733 222.625 81.8949 222.946 81.6847C223.27 81.4744 223.678 81.3693 224.169 81.3693C224.615 81.3693 225.006 81.4631 225.341 81.6506C225.676 81.8352 225.936 82.1108 226.121 82.4773C226.305 82.8437 226.398 83.2969 226.398 83.8366V88H225.124V83.9901C225.124 83.5156 225 83.1449 224.753 82.8778C224.506 82.608 224.166 82.473 223.734 82.473C223.439 82.473 223.176 82.5369 222.946 82.6648C222.719 82.7926 222.538 82.9801 222.405 83.2273C222.274 83.4716 222.209 83.767 222.209 84.1136ZM238.633 82.1108H237.304C237.252 81.8267 237.157 81.5767 237.018 81.3608C236.879 81.1449 236.708 80.9616 236.507 80.8111C236.305 80.6605 236.079 80.5469 235.829 80.4702C235.582 80.3935 235.319 80.3551 235.041 80.3551C234.538 80.3551 234.088 80.4815 233.69 80.7344C233.295 80.9872 232.983 81.358 232.752 81.8466C232.525 82.3352 232.412 82.9318 232.412 83.6364C232.412 84.3466 232.525 84.946 232.752 85.4347C232.983 85.9233 233.297 86.2926 233.694 86.5426C234.092 86.7926 234.539 86.9176 235.037 86.9176C235.312 86.9176 235.574 86.8807 235.821 86.8068C236.071 86.7301 236.297 86.6179 236.498 86.4702C236.7 86.3224 236.87 86.142 237.01 85.929C237.152 85.7131 237.25 85.4659 237.304 85.1875L238.633 85.1918C238.562 85.6207 238.424 86.0156 238.22 86.3764C238.018 86.7344 237.758 87.044 237.44 87.3054C237.125 87.5639 236.764 87.7642 236.358 87.9062C235.951 88.0483 235.508 88.1193 235.028 88.1193C234.272 88.1193 233.599 87.9403 233.008 87.5824C232.417 87.2216 231.951 86.706 231.61 86.0355C231.272 85.3651 231.103 84.5653 231.103 83.6364C231.103 82.7045 231.274 81.9048 231.615 81.2372C231.956 80.5668 232.422 80.0526 233.012 79.6946C233.603 79.3338 234.275 79.1534 235.028 79.1534C235.491 79.1534 235.923 79.2202 236.324 79.3537C236.727 79.4844 237.089 79.6776 237.41 79.9332C237.731 80.1861 237.997 80.4957 238.207 80.8622C238.417 81.2259 238.559 81.642 238.633 82.1108ZM239.778 80.4062V79.2727H246.533V80.4062H243.81V88H242.497V80.4062H239.778ZM247.731 88H246.333L249.474 79.2727H250.995L254.136 88H252.738L250.271 80.858H250.203L247.731 88ZM247.966 84.5824H252.5V85.6903H247.966V84.5824Z" fill="white"/>
<rect x="177.5" y="68.5" width="89" height="31" rx="2.5" stroke="#217CF5"/>
<path d="M171 68H155V100H171" stroke="#FF0000"/>
<path d="M155 84L135 84" stroke="#FF0000"/>
<path d="M80.7614 84.0526L79.6065 84.2571C79.5582 84.1094 79.4815 83.9687 79.3764 83.8352C79.2741 83.7017 79.1349 83.5923 78.9588 83.5071C78.7827 83.4219 78.5625 83.3793 78.2983 83.3793C77.9375 83.3793 77.6364 83.4602 77.3949 83.6222C77.1534 83.7812 77.0327 83.9872 77.0327 84.2401C77.0327 84.4588 77.1136 84.6349 77.2756 84.7685C77.4375 84.902 77.6989 85.0114 78.0597 85.0966L79.0994 85.3352C79.7017 85.4744 80.1506 85.6889 80.446 85.9787C80.7415 86.2685 80.8892 86.6449 80.8892 87.108C80.8892 87.5 80.7756 87.8494 80.5483 88.1562C80.3239 88.4602 80.0099 88.6989 79.6065 88.8722C79.206 89.0455 78.7415 89.1321 78.2131 89.1321C77.4801 89.1321 76.8821 88.9759 76.419 88.6634C75.956 88.348 75.6719 87.9006 75.5668 87.321L76.7983 87.1335C76.875 87.4545 77.0327 87.6974 77.2713 87.8622C77.5099 88.0241 77.821 88.1051 78.2045 88.1051C78.6222 88.1051 78.956 88.0185 79.206 87.8452C79.456 87.669 79.581 87.4545 79.581 87.2017C79.581 86.9972 79.5043 86.8253 79.3509 86.6861C79.2003 86.5469 78.9688 86.4418 78.6562 86.3707L77.5483 86.1278C76.9375 85.9886 76.4858 85.767 76.1932 85.4631C75.9034 85.1591 75.7585 84.7741 75.7585 84.3082C75.7585 83.9219 75.8665 83.5838 76.0824 83.294C76.2983 83.0043 76.5966 82.7784 76.9773 82.6165C77.358 82.4517 77.794 82.3693 78.2855 82.3693C78.9929 82.3693 79.5497 82.5227 79.956 82.8295C80.3622 83.1335 80.6307 83.5412 80.7614 84.0526ZM82.2901 89V82.4545H83.5131V83.5199H83.5941C83.7305 83.1591 83.9535 82.8778 84.2631 82.6761C84.5728 82.4716 84.9435 82.3693 85.3754 82.3693C85.8129 82.3693 86.1793 82.4716 86.4748 82.6761C86.7731 82.8807 86.9933 83.1619 87.1353 83.5199H87.2035C87.3597 83.1705 87.6083 82.892 87.9492 82.6847C88.2901 82.4744 88.6964 82.3693 89.168 82.3693C89.7617 82.3693 90.2461 82.5554 90.6211 82.9276C90.9989 83.2997 91.1879 83.8608 91.1879 84.6108V89H89.9137V84.7301C89.9137 84.2869 89.793 83.9659 89.5515 83.767C89.31 83.5682 89.0217 83.4688 88.6864 83.4688C88.2717 83.4688 87.9492 83.5966 87.7191 83.8523C87.489 84.1051 87.3739 84.4304 87.3739 84.8281V89H86.104V84.6491C86.104 84.294 85.9933 84.0085 85.7717 83.7926C85.5501 83.5767 85.2617 83.4688 84.9066 83.4688C84.6651 83.4688 84.4421 83.5327 84.2376 83.6605C84.0359 83.7855 83.8725 83.9602 83.7475 84.1847C83.6254 84.4091 83.5643 84.669 83.5643 84.9645V89H82.2901ZM96.7521 84.7599V85.8636H92.8828V84.7599H96.7521ZM101.354 89.1193C100.769 89.1193 100.246 89.0185 99.7862 88.8168C99.3288 88.6151 98.9666 88.3352 98.6996 87.9773C98.4354 87.6165 98.2933 87.1989 98.2734 86.7244H99.6115C99.6286 86.983 99.7152 87.2074 99.8714 87.3977C100.031 87.5852 100.238 87.7301 100.494 87.8324C100.749 87.9347 101.033 87.9858 101.346 87.9858C101.69 87.9858 101.994 87.9261 102.258 87.8068C102.525 87.6875 102.734 87.5213 102.884 87.3082C103.035 87.0923 103.11 86.8438 103.11 86.5625C103.11 86.2699 103.035 86.0128 102.884 85.7912C102.737 85.5668 102.519 85.3906 102.232 85.2628C101.948 85.1349 101.604 85.071 101.201 85.071H100.464V83.9972H101.201C101.525 83.9972 101.809 83.9389 102.053 83.8224C102.3 83.706 102.494 83.544 102.633 83.3366C102.772 83.1264 102.842 82.8807 102.842 82.5994C102.842 82.3295 102.781 82.0952 102.658 81.8963C102.539 81.6946 102.369 81.5369 102.147 81.4233C101.928 81.3097 101.67 81.2528 101.371 81.2528C101.087 81.2528 100.822 81.3054 100.575 81.4105C100.33 81.5128 100.131 81.6605 99.978 81.8537C99.8246 82.044 99.7422 82.2727 99.7308 82.5398H98.4567C98.4709 82.0682 98.6101 81.6534 98.8743 81.2955C99.1413 80.9375 99.4936 80.6577 99.9311 80.456C100.369 80.2543 100.854 80.1534 101.388 80.1534C101.948 80.1534 102.431 80.2628 102.837 80.4815C103.246 80.6974 103.562 80.9858 103.783 81.3466C104.008 81.7074 104.119 82.1023 104.116 82.5312C104.119 83.0199 103.982 83.4347 103.707 83.7756C103.434 84.1165 103.07 84.3452 102.616 84.4616V84.5298C103.195 84.6179 103.644 84.848 103.962 85.2202C104.283 85.5923 104.442 86.054 104.44 86.6051C104.442 87.0852 104.309 87.5156 104.039 87.8963C103.772 88.277 103.407 88.5767 102.944 88.7955C102.481 89.0114 101.951 89.1193 101.354 89.1193ZM106.05 89V88.0455L109.004 84.9858C109.319 84.6534 109.579 84.3622 109.783 84.1122C109.991 83.8594 110.146 83.6193 110.248 83.392C110.35 83.1648 110.401 82.9233 110.401 82.6676C110.401 82.3778 110.333 82.1278 110.197 81.9176C110.06 81.7045 109.874 81.5412 109.638 81.4276C109.403 81.3111 109.137 81.2528 108.842 81.2528C108.529 81.2528 108.256 81.3168 108.023 81.4446C107.79 81.5724 107.612 81.7528 107.487 81.9858C107.362 82.2187 107.299 82.4915 107.299 82.804H106.042C106.042 82.2727 106.164 81.8082 106.408 81.4105C106.653 81.0128 106.988 80.7045 107.414 80.4858C107.84 80.2642 108.325 80.1534 108.867 80.1534C109.415 80.1534 109.898 80.2628 110.316 80.4815C110.737 80.6974 111.065 80.9929 111.3 81.3679C111.536 81.7401 111.654 82.1605 111.654 82.6293C111.654 82.9531 111.593 83.2699 111.471 83.5795C111.352 83.8892 111.143 84.2344 110.844 84.6151C110.546 84.9929 110.131 85.4517 109.6 85.9915L107.866 87.8068V87.8707H111.795V89H106.05ZM113.427 91.4545V82.4545H114.671V83.5156H114.778C114.852 83.3793 114.958 83.2216 115.097 83.0426C115.237 82.8636 115.43 82.7074 115.677 82.5739C115.924 82.4375 116.251 82.3693 116.657 82.3693C117.185 82.3693 117.657 82.5028 118.072 82.7699C118.487 83.0369 118.812 83.4219 119.048 83.9247C119.286 84.4276 119.406 85.0327 119.406 85.7401C119.406 86.4474 119.288 87.054 119.052 87.5597C118.816 88.0625 118.492 88.4503 118.08 88.723C117.668 88.9929 117.198 89.1278 116.67 89.1278C116.272 89.1278 115.947 89.0611 115.694 88.9276C115.444 88.794 115.248 88.6378 115.106 88.4588C114.964 88.2798 114.854 88.1207 114.778 87.9815H114.701V91.4545H113.427ZM114.675 85.7273C114.675 86.1875 114.742 86.5909 114.876 86.9375C115.009 87.2841 115.202 87.5554 115.455 87.7514C115.708 87.9446 116.018 88.0412 116.384 88.0412C116.765 88.0412 117.083 87.9403 117.339 87.7386C117.594 87.5341 117.788 87.2571 117.918 86.9077C118.052 86.5582 118.119 86.1648 118.119 85.7273C118.119 85.2955 118.053 84.9077 117.923 84.5639C117.795 84.2202 117.602 83.9489 117.343 83.75C117.087 83.5511 116.768 83.4517 116.384 83.4517C116.015 83.4517 115.702 83.5469 115.447 83.7372C115.194 83.9276 115.002 84.1932 114.871 84.5341C114.741 84.875 114.675 85.2727 114.675 85.7273ZM121.581 82.4545L123.026 85.0028L124.483 82.4545H125.876L123.835 85.7273L125.893 89H124.5L123.026 86.554L121.555 89H120.158L122.195 85.7273L120.183 82.4545H121.581Z" fill="black"/>
<rect x="402.5" y="66.5" width="97" height="35" rx="2.5" fill="#217CF5"/>
<path d="M418.959 88V79.2727H422.155C422.774 79.2727 423.287 79.375 423.693 79.5795C424.099 79.7812 424.403 80.0554 424.605 80.402C424.807 80.7457 424.908 81.1335 424.908 81.5653C424.908 81.929 424.841 82.2358 424.707 82.4858C424.574 82.733 424.395 82.9318 424.17 83.0824C423.949 83.2301 423.705 83.3381 423.438 83.4062V83.4915C423.727 83.5057 424.01 83.5994 424.286 83.7727C424.564 83.9432 424.794 84.1861 424.976 84.5014C425.158 84.8168 425.249 85.2003 425.249 85.652C425.249 86.098 425.143 86.4986 424.933 86.8537C424.726 87.206 424.405 87.4858 423.97 87.6932C423.536 87.8977 422.98 88 422.304 88H418.959ZM420.276 86.8707H422.176C422.807 86.8707 423.259 86.7486 423.531 86.5043C423.804 86.2599 423.94 85.9545 423.94 85.5881C423.94 85.3125 423.871 85.0597 423.732 84.8295C423.592 84.5994 423.393 84.4162 423.135 84.2798C422.879 84.1435 422.575 84.0753 422.223 84.0753H420.276V86.8707ZM420.276 83.0483H422.04C422.335 83.0483 422.601 82.9915 422.837 82.8778C423.075 82.7642 423.264 82.6051 423.403 82.4006C423.545 82.1932 423.616 81.9489 423.616 81.6676C423.616 81.3068 423.49 81.0043 423.237 80.7599C422.984 80.5156 422.597 80.3935 422.074 80.3935H420.276V83.0483ZM430.854 85.2855V81.4545H432.133V88H430.88V86.8665H430.812C430.661 87.2159 430.42 87.5071 430.087 87.7401C429.758 87.9702 429.347 88.0852 428.856 88.0852C428.435 88.0852 428.063 87.9929 427.739 87.8082C427.418 87.6207 427.165 87.3438 426.981 86.9773C426.799 86.6108 426.708 86.1577 426.708 85.6179V81.4545H427.982V85.4645C427.982 85.9105 428.106 86.2656 428.353 86.5298C428.6 86.794 428.921 86.9261 429.316 86.9261C429.555 86.9261 429.792 86.8665 430.028 86.7472C430.266 86.6278 430.464 86.4474 430.62 86.206C430.779 85.9645 430.857 85.6577 430.854 85.2855ZM436.9 81.4545V82.4773H433.325V81.4545H436.9ZM434.284 79.8864H435.558V86.0781C435.558 86.3253 435.595 86.5114 435.669 86.6364C435.743 86.7585 435.838 86.8423 435.954 86.8878C436.074 86.9304 436.203 86.9517 436.342 86.9517C436.444 86.9517 436.534 86.9446 436.61 86.9304C436.687 86.9162 436.747 86.9048 436.789 86.8963L437.02 87.9489C436.946 87.9773 436.841 88.0057 436.704 88.0341C436.568 88.0653 436.397 88.0824 436.193 88.0852C435.858 88.0909 435.545 88.0312 435.255 87.9062C434.966 87.7812 434.731 87.5881 434.552 87.3267C434.373 87.0653 434.284 86.7372 434.284 86.3423V79.8864ZM441.365 81.4545V82.4773H437.79V81.4545H441.365ZM438.749 79.8864H440.023V86.0781C440.023 86.3253 440.06 86.5114 440.134 86.6364C440.207 86.7585 440.303 86.8423 440.419 86.8878C440.538 86.9304 440.668 86.9517 440.807 86.9517C440.909 86.9517 440.999 86.9446 441.075 86.9304C441.152 86.9162 441.212 86.9048 441.254 86.8963L441.484 87.9489C441.411 87.9773 441.305 88.0057 441.169 88.0341C441.033 88.0653 440.862 88.0824 440.658 88.0852C440.322 88.0909 440.01 88.0312 439.72 87.9062C439.43 87.7812 439.196 87.5881 439.017 87.3267C438.838 87.0653 438.749 86.7372 438.749 86.3423V79.8864ZM445.461 88.1321C444.848 88.1321 444.312 87.9915 443.855 87.7102C443.397 87.429 443.042 87.0355 442.789 86.5298C442.537 86.0241 442.41 85.4332 442.41 84.7571C442.41 84.0781 442.537 83.4844 442.789 82.9759C443.042 82.4673 443.397 82.0724 443.855 81.7912C444.312 81.5099 444.848 81.3693 445.461 81.3693C446.075 81.3693 446.61 81.5099 447.068 81.7912C447.525 82.0724 447.88 82.4673 448.133 82.9759C448.386 83.4844 448.512 84.0781 448.512 84.7571C448.512 85.4332 448.386 86.0241 448.133 86.5298C447.88 87.0355 447.525 87.429 447.068 87.7102C446.61 87.9915 446.075 88.1321 445.461 88.1321ZM445.466 87.0625C445.863 87.0625 446.193 86.9574 446.454 86.7472C446.716 86.5369 446.909 86.2571 447.034 85.9077C447.162 85.5582 447.225 85.1733 447.225 84.7528C447.225 84.3352 447.162 83.9517 447.034 83.6023C446.909 83.25 446.716 82.9673 446.454 82.7543C446.193 82.5412 445.863 82.4347 445.466 82.4347C445.065 82.4347 444.733 82.5412 444.468 82.7543C444.207 82.9673 444.012 83.25 443.885 83.6023C443.76 83.9517 443.697 84.3352 443.697 84.7528C443.697 85.1733 443.76 85.5582 443.885 85.9077C444.012 86.2571 444.207 86.5369 444.468 86.7472C444.733 86.9574 445.065 87.0625 445.466 87.0625ZM451.209 84.1136V88H449.935V81.4545H451.158V82.5199H451.239C451.389 82.1733 451.625 81.8949 451.946 81.6847C452.27 81.4744 452.678 81.3693 453.169 81.3693C453.615 81.3693 454.006 81.4631 454.341 81.6506C454.676 81.8352 454.936 82.1108 455.121 82.4773C455.305 82.8437 455.398 83.2969 455.398 83.8366V88H454.124V83.9901C454.124 83.5156 454 83.1449 453.753 82.8778C453.506 82.608 453.166 82.473 452.734 82.473C452.439 82.473 452.176 82.5369 451.946 82.6648C451.719 82.7926 451.538 82.9801 451.405 83.2273C451.274 83.4716 451.209 83.767 451.209 84.1136ZM467.633 82.1108H466.304C466.252 81.8267 466.157 81.5767 466.018 81.3608C465.879 81.1449 465.708 80.9616 465.507 80.8111C465.305 80.6605 465.079 80.5469 464.829 80.4702C464.582 80.3935 464.319 80.3551 464.041 80.3551C463.538 80.3551 463.088 80.4815 462.69 80.7344C462.295 80.9872 461.983 81.358 461.752 81.8466C461.525 82.3352 461.412 82.9318 461.412 83.6364C461.412 84.3466 461.525 84.946 461.752 85.4347C461.983 85.9233 462.297 86.2926 462.694 86.5426C463.092 86.7926 463.539 86.9176 464.037 86.9176C464.312 86.9176 464.574 86.8807 464.821 86.8068C465.071 86.7301 465.297 86.6179 465.498 86.4702C465.7 86.3224 465.87 86.142 466.01 85.929C466.152 85.7131 466.25 85.4659 466.304 85.1875L467.633 85.1918C467.562 85.6207 467.424 86.0156 467.22 86.3764C467.018 86.7344 466.758 87.044 466.44 87.3054C466.125 87.5639 465.764 87.7642 465.358 87.9062C464.951 88.0483 464.508 88.1193 464.028 88.1193C463.272 88.1193 462.599 87.9403 462.008 87.5824C461.417 87.2216 460.951 86.706 460.61 86.0355C460.272 85.3651 460.103 84.5653 460.103 83.6364C460.103 82.7045 460.274 81.9048 460.615 81.2372C460.956 80.5668 461.422 80.0526 462.012 79.6946C462.603 79.3338 463.275 79.1534 464.028 79.1534C464.491 79.1534 464.923 79.2202 465.324 79.3537C465.727 79.4844 466.089 79.6776 466.41 79.9332C466.731 80.1861 466.997 80.4957 467.207 80.8622C467.417 81.2259 467.559 81.642 467.633 82.1108ZM468.778 80.4062V79.2727H475.533V80.4062H472.81V88H471.497V80.4062H468.778ZM476.731 88H475.333L478.474 79.2727H479.995L483.136 88H481.738L479.271 80.858H479.203L476.731 88ZM476.966 84.5824H481.5V85.6903H476.966V84.5824Z" fill="white"/>
<rect x="402.5" y="66.5" width="97" height="35" rx="2.5" stroke="#217CF5"/>
<path d="M396 66H380V102H396" stroke="#FF0000"/>
<path d="M380 84L360 84" stroke="#FF0000"/>
<path d="M299.857 89V82.4545H301.08V83.5199H301.161C301.297 83.1591 301.52 82.8778 301.83 82.6761C302.139 82.4716 302.51 82.3693 302.942 82.3693C303.379 82.3693 303.746 82.4716 304.041 82.6761C304.339 82.8807 304.56 83.1619 304.702 83.5199H304.77C304.926 83.1705 305.175 82.892 305.516 82.6847C305.857 82.4744 306.263 82.3693 306.734 82.3693C307.328 82.3693 307.812 82.5554 308.188 82.9276C308.565 83.2997 308.754 83.8608 308.754 84.6108V89H307.48V84.7301C307.48 84.2869 307.359 83.9659 307.118 83.767C306.876 83.5682 306.588 83.4688 306.253 83.4688C305.838 83.4688 305.516 83.5966 305.286 83.8523C305.055 84.1051 304.94 84.4304 304.94 84.8281V89H303.67V84.6491C303.67 84.294 303.56 84.0085 303.338 83.7926C303.116 83.5767 302.828 83.4688 302.473 83.4688C302.232 83.4688 302.009 83.5327 301.804 83.6605C301.602 83.7855 301.439 83.9602 301.314 84.1847C301.192 84.4091 301.131 84.669 301.131 84.9645V89H299.857ZM312.912 89.1278C312.384 89.1278 311.912 88.9929 311.498 88.723C311.086 88.4503 310.762 88.0625 310.526 87.5597C310.293 87.054 310.176 86.4474 310.176 85.7401C310.176 85.0327 310.294 84.4276 310.53 83.9247C310.769 83.4219 311.096 83.0369 311.51 82.7699C311.925 82.5028 312.395 82.3693 312.921 82.3693C313.327 82.3693 313.654 82.4375 313.901 82.5739C314.151 82.7074 314.344 82.8636 314.48 83.0426C314.62 83.2216 314.728 83.3793 314.804 83.5156H314.881V80.2727H316.155V89H314.911V87.9815H314.804C314.728 88.1207 314.617 88.2798 314.472 88.4588C314.33 88.6378 314.134 88.794 313.884 88.9276C313.634 89.0611 313.31 89.1278 312.912 89.1278ZM313.194 88.0412C313.56 88.0412 313.87 87.9446 314.123 87.7514C314.378 87.5554 314.571 87.2841 314.702 86.9375C314.836 86.5909 314.902 86.1875 314.902 85.7273C314.902 85.2727 314.837 84.875 314.706 84.5341C314.576 84.1932 314.384 83.9276 314.131 83.7372C313.878 83.5469 313.566 83.4517 313.194 83.4517C312.81 83.4517 312.49 83.5511 312.235 83.75C311.979 83.9489 311.786 84.2202 311.655 84.5639C311.527 84.9077 311.463 85.2955 311.463 85.7273C311.463 86.1648 311.529 86.5582 311.659 86.9077C311.79 87.2571 311.983 87.5341 312.239 87.7386C312.498 87.9403 312.816 88.0412 313.194 88.0412ZM321.83 84.7599V85.8636H317.961V84.7599H321.83ZM326.433 89.1193C325.847 89.1193 325.325 89.0185 324.864 88.8168C324.407 88.6151 324.045 88.3352 323.778 87.9773C323.513 87.6165 323.371 87.1989 323.352 86.7244H324.69C324.707 86.983 324.793 87.2074 324.95 87.3977C325.109 87.5852 325.316 87.7301 325.572 87.8324C325.827 87.9347 326.112 87.9858 326.424 87.9858C326.768 87.9858 327.072 87.9261 327.336 87.8068C327.603 87.6875 327.812 87.5213 327.962 87.3082C328.113 87.0923 328.188 86.8438 328.188 86.5625C328.188 86.2699 328.113 86.0128 327.962 85.7912C327.815 85.5668 327.597 85.3906 327.31 85.2628C327.026 85.1349 326.683 85.071 326.279 85.071H325.542V83.9972H326.279C326.603 83.9972 326.887 83.9389 327.131 83.8224C327.379 83.706 327.572 83.544 327.711 83.3366C327.85 83.1264 327.92 82.8807 327.92 82.5994C327.92 82.3295 327.859 82.0952 327.737 81.8963C327.617 81.6946 327.447 81.5369 327.225 81.4233C327.006 81.3097 326.748 81.2528 326.45 81.2528C326.165 81.2528 325.9 81.3054 325.653 81.4105C325.408 81.5128 325.21 81.6605 325.056 81.8537C324.903 82.044 324.82 82.2727 324.809 82.5398H323.535C323.549 82.0682 323.688 81.6534 323.952 81.2955C324.219 80.9375 324.572 80.6577 325.009 80.456C325.447 80.2543 325.933 80.1534 326.467 80.1534C327.026 80.1534 327.509 80.2628 327.915 80.4815C328.325 80.6974 328.64 80.9858 328.862 81.3466C329.086 81.7074 329.197 82.1023 329.194 82.5312C329.197 83.0199 329.06 83.4347 328.785 83.7756C328.512 84.1165 328.148 84.3452 327.694 84.4616V84.5298C328.273 84.6179 328.722 84.848 329.04 85.2202C329.362 85.5923 329.521 86.054 329.518 86.6051C329.521 87.0852 329.387 87.5156 329.117 87.8963C328.85 88.277 328.485 88.5767 328.022 88.7955C327.559 89.0114 327.029 89.1193 326.433 89.1193ZM334.175 89.1193C333.786 89.1136 333.403 89.0426 333.025 88.9062C332.65 88.7699 332.309 88.5426 332.002 88.2244C331.695 87.9062 331.45 87.4787 331.265 86.9418C331.083 86.4048 330.992 85.7344 330.992 84.9304C330.992 84.169 331.067 83.4929 331.218 82.902C331.371 82.3111 331.592 81.8125 331.879 81.4062C332.165 80.9972 332.512 80.6861 332.918 80.473C333.325 80.2599 333.781 80.1534 334.286 80.1534C334.806 80.1534 335.268 80.2557 335.671 80.4602C336.075 80.6648 336.401 80.9474 336.651 81.3082C336.904 81.669 337.065 82.0795 337.133 82.5398H335.833C335.745 82.1761 335.57 81.8793 335.309 81.6491C335.048 81.419 334.707 81.304 334.286 81.304C333.647 81.304 333.148 81.5824 332.79 82.1392C332.435 82.696 332.256 83.4702 332.254 84.4616H332.317C332.468 84.2145 332.653 84.0043 332.871 83.831C333.093 83.6548 333.34 83.5199 333.613 83.4261C333.888 83.3295 334.178 83.2812 334.482 83.2812C334.988 83.2812 335.445 83.4048 335.854 83.652C336.266 83.8963 336.594 84.2344 336.839 84.6662C337.083 85.098 337.205 85.5923 337.205 86.1491C337.205 86.706 337.079 87.2102 336.826 87.6619C336.576 88.1136 336.224 88.4716 335.769 88.7358C335.315 88.9972 334.783 89.125 334.175 89.1193ZM334.171 88.0114C334.506 88.0114 334.806 87.929 335.07 87.7642C335.335 87.5994 335.543 87.3778 335.697 87.0994C335.85 86.821 335.927 86.5099 335.927 86.1662C335.927 85.831 335.852 85.5256 335.701 85.25C335.553 84.9744 335.349 84.7557 335.087 84.5938C334.829 84.4318 334.533 84.3509 334.201 84.3509C333.948 84.3509 333.714 84.3991 333.498 84.4957C333.285 84.5923 333.097 84.7259 332.935 84.8963C332.773 85.0668 332.646 85.2628 332.552 85.4844C332.461 85.7031 332.415 85.9347 332.415 86.179C332.415 86.5057 332.491 86.8082 332.641 87.0866C332.795 87.3651 333.004 87.5895 333.268 87.7599C333.535 87.9276 333.836 88.0114 334.171 88.0114ZM338.775 91.4545V82.4545H340.019V83.5156H340.125C340.199 83.3793 340.306 83.2216 340.445 83.0426C340.584 82.8636 340.777 82.7074 341.025 82.5739C341.272 82.4375 341.598 82.3693 342.005 82.3693C342.533 82.3693 343.005 82.5028 343.419 82.7699C343.834 83.0369 344.159 83.4219 344.395 83.9247C344.634 84.4276 344.753 85.0327 344.753 85.7401C344.753 86.4474 344.635 87.054 344.4 87.5597C344.164 88.0625 343.84 88.4503 343.428 88.723C343.016 88.9929 342.546 89.1278 342.017 89.1278C341.62 89.1278 341.294 89.0611 341.042 88.9276C340.792 88.794 340.596 88.6378 340.453 88.4588C340.311 88.2798 340.202 88.1207 340.125 87.9815H340.049V91.4545H338.775ZM340.023 85.7273C340.023 86.1875 340.09 86.5909 340.223 86.9375C340.357 87.2841 340.55 87.5554 340.803 87.7514C341.056 87.9446 341.365 88.0412 341.732 88.0412C342.113 88.0412 342.431 87.9403 342.686 87.7386C342.942 87.5341 343.135 87.2571 343.266 86.9077C343.4 86.5582 343.466 86.1648 343.466 85.7273C343.466 85.2955 343.401 84.9077 343.27 84.5639C343.142 84.2202 342.949 83.9489 342.691 83.75C342.435 83.5511 342.115 83.4517 341.732 83.4517C341.363 83.4517 341.05 83.5469 340.794 83.7372C340.542 83.9276 340.35 84.1932 340.219 84.5341C340.088 84.875 340.023 85.2727 340.023 85.7273ZM346.929 82.4545L348.373 85.0028L349.831 82.4545H351.224L349.183 85.7273L351.241 89H349.848L348.373 86.554L346.903 89H345.505L347.542 85.7273L345.531 82.4545H346.929Z" fill="black"/>
<rect x="628.5" y="64.5" width="101" height="39" rx="2.5" fill="#217CF5"/>
<path d="M646.959 88V79.2727H650.155C650.774 79.2727 651.287 79.375 651.693 79.5795C652.099 79.7812 652.403 80.0554 652.605 80.402C652.807 80.7457 652.908 81.1335 652.908 81.5653C652.908 81.929 652.841 82.2358 652.707 82.4858C652.574 82.733 652.395 82.9318 652.17 83.0824C651.949 83.2301 651.705 83.3381 651.438 83.4062V83.4915C651.727 83.5057 652.01 83.5994 652.286 83.7727C652.564 83.9432 652.794 84.1861 652.976 84.5014C653.158 84.8168 653.249 85.2003 653.249 85.652C653.249 86.098 653.143 86.4986 652.933 86.8537C652.726 87.206 652.405 87.4858 651.97 87.6932C651.536 87.8977 650.98 88 650.304 88H646.959ZM648.276 86.8707H650.176C650.807 86.8707 651.259 86.7486 651.531 86.5043C651.804 86.2599 651.94 85.9545 651.94 85.5881C651.94 85.3125 651.871 85.0597 651.732 84.8295C651.592 84.5994 651.393 84.4162 651.135 84.2798C650.879 84.1435 650.575 84.0753 650.223 84.0753H648.276V86.8707ZM648.276 83.0483H650.04C650.335 83.0483 650.601 82.9915 650.837 82.8778C651.075 82.7642 651.264 82.6051 651.403 82.4006C651.545 82.1932 651.616 81.9489 651.616 81.6676C651.616 81.3068 651.49 81.0043 651.237 80.7599C650.984 80.5156 650.597 80.3935 650.074 80.3935H648.276V83.0483ZM658.854 85.2855V81.4545H660.133V88H658.88V86.8665H658.812C658.661 87.2159 658.42 87.5071 658.087 87.7401C657.758 87.9702 657.347 88.0852 656.856 88.0852C656.435 88.0852 656.063 87.9929 655.739 87.8082C655.418 87.6207 655.165 87.3438 654.981 86.9773C654.799 86.6108 654.708 86.1577 654.708 85.6179V81.4545H655.982V85.4645C655.982 85.9105 656.106 86.2656 656.353 86.5298C656.6 86.794 656.921 86.9261 657.316 86.9261C657.555 86.9261 657.792 86.8665 658.028 86.7472C658.266 86.6278 658.464 86.4474 658.62 86.206C658.779 85.9645 658.857 85.6577 658.854 85.2855ZM664.9 81.4545V82.4773H661.325V81.4545H664.9ZM662.284 79.8864H663.558V86.0781C663.558 86.3253 663.595 86.5114 663.669 86.6364C663.743 86.7585 663.838 86.8423 663.954 86.8878C664.074 86.9304 664.203 86.9517 664.342 86.9517C664.444 86.9517 664.534 86.9446 664.61 86.9304C664.687 86.9162 664.747 86.9048 664.789 86.8963L665.02 87.9489C664.946 87.9773 664.841 88.0057 664.704 88.0341C664.568 88.0653 664.397 88.0824 664.193 88.0852C663.858 88.0909 663.545 88.0312 663.255 87.9062C662.966 87.7812 662.731 87.5881 662.552 87.3267C662.373 87.0653 662.284 86.7372 662.284 86.3423V79.8864ZM669.365 81.4545V82.4773H665.79V81.4545H669.365ZM666.749 79.8864H668.023V86.0781C668.023 86.3253 668.06 86.5114 668.134 86.6364C668.207 86.7585 668.303 86.8423 668.419 86.8878C668.538 86.9304 668.668 86.9517 668.807 86.9517C668.909 86.9517 668.999 86.9446 669.075 86.9304C669.152 86.9162 669.212 86.9048 669.254 86.8963L669.484 87.9489C669.411 87.9773 669.305 88.0057 669.169 88.0341C669.033 88.0653 668.862 88.0824 668.658 88.0852C668.322 88.0909 668.01 88.0312 667.72 87.9062C667.43 87.7812 667.196 87.5881 667.017 87.3267C666.838 87.0653 666.749 86.7372 666.749 86.3423V79.8864ZM673.461 88.1321C672.848 88.1321 672.312 87.9915 671.855 87.7102C671.397 87.429 671.042 87.0355 670.789 86.5298C670.537 86.0241 670.41 85.4332 670.41 84.7571C670.41 84.0781 670.537 83.4844 670.789 82.9759C671.042 82.4673 671.397 82.0724 671.855 81.7912C672.312 81.5099 672.848 81.3693 673.461 81.3693C674.075 81.3693 674.61 81.5099 675.068 81.7912C675.525 82.0724 675.88 82.4673 676.133 82.9759C676.386 83.4844 676.512 84.0781 676.512 84.7571C676.512 85.4332 676.386 86.0241 676.133 86.5298C675.88 87.0355 675.525 87.429 675.068 87.7102C674.61 87.9915 674.075 88.1321 673.461 88.1321ZM673.466 87.0625C673.863 87.0625 674.193 86.9574 674.454 86.7472C674.716 86.5369 674.909 86.2571 675.034 85.9077C675.162 85.5582 675.225 85.1733 675.225 84.7528C675.225 84.3352 675.162 83.9517 675.034 83.6023C674.909 83.25 674.716 82.9673 674.454 82.7543C674.193 82.5412 673.863 82.4347 673.466 82.4347C673.065 82.4347 672.733 82.5412 672.468 82.7543C672.207 82.9673 672.012 83.25 671.885 83.6023C671.76 83.9517 671.697 84.3352 671.697 84.7528C671.697 85.1733 671.76 85.5582 671.885 85.9077C672.012 86.2571 672.207 86.5369 672.468 86.7472C672.733 86.9574 673.065 87.0625 673.466 87.0625ZM679.209 84.1136V88H677.935V81.4545H679.158V82.5199H679.239C679.389 82.1733 679.625 81.8949 679.946 81.6847C680.27 81.4744 680.678 81.3693 681.169 81.3693C681.615 81.3693 682.006 81.4631 682.341 81.6506C682.676 81.8352 682.936 82.1108 683.121 82.4773C683.305 82.8437 683.398 83.2969 683.398 83.8366V88H682.124V83.9901C682.124 83.5156 682 83.1449 681.753 82.8778C681.506 82.608 681.166 82.473 680.734 82.473C680.439 82.473 680.176 82.5369 679.946 82.6648C679.719 82.7926 679.538 82.9801 679.405 83.2273C679.274 83.4716 679.209 83.767 679.209 84.1136ZM695.633 82.1108H694.304C694.252 81.8267 694.157 81.5767 694.018 81.3608C693.879 81.1449 693.708 80.9616 693.507 80.8111C693.305 80.6605 693.079 80.5469 692.829 80.4702C692.582 80.3935 692.319 80.3551 692.041 80.3551C691.538 80.3551 691.088 80.4815 690.69 80.7344C690.295 80.9872 689.983 81.358 689.752 81.8466C689.525 82.3352 689.412 82.9318 689.412 83.6364C689.412 84.3466 689.525 84.946 689.752 85.4347C689.983 85.9233 690.297 86.2926 690.694 86.5426C691.092 86.7926 691.539 86.9176 692.037 86.9176C692.312 86.9176 692.574 86.8807 692.821 86.8068C693.071 86.7301 693.297 86.6179 693.498 86.4702C693.7 86.3224 693.87 86.142 694.01 85.929C694.152 85.7131 694.25 85.4659 694.304 85.1875L695.633 85.1918C695.562 85.6207 695.424 86.0156 695.22 86.3764C695.018 86.7344 694.758 87.044 694.44 87.3054C694.125 87.5639 693.764 87.7642 693.358 87.9062C692.951 88.0483 692.508 88.1193 692.028 88.1193C691.272 88.1193 690.599 87.9403 690.008 87.5824C689.417 87.2216 688.951 86.706 688.61 86.0355C688.272 85.3651 688.103 84.5653 688.103 83.6364C688.103 82.7045 688.274 81.9048 688.615 81.2372C688.956 80.5668 689.422 80.0526 690.012 79.6946C690.603 79.3338 691.275 79.1534 692.028 79.1534C692.491 79.1534 692.923 79.2202 693.324 79.3537C693.727 79.4844 694.089 79.6776 694.41 79.9332C694.731 80.1861 694.997 80.4957 695.207 80.8622C695.417 81.2259 695.559 81.642 695.633 82.1108ZM696.778 80.4062V79.2727H703.533V80.4062H700.81V88H699.497V80.4062H696.778ZM704.731 88H703.333L706.474 79.2727H707.995L711.136 88H709.738L707.271 80.858H707.203L704.731 88ZM704.966 84.5824H709.5V85.6903H704.966V84.5824Z" fill="white"/>
<rect x="628.5" y="64.5" width="101" height="39" rx="2.5" stroke="#217CF5"/>
<path d="M622 64H606V104H622" stroke="#FF0000"/>
<path d="M606 81.8564H586" stroke="#FF0000"/>
<path d="M534.131 76.2727V85H532.857V76.2727H534.131ZM538.589 87.5909C538.069 87.5909 537.622 87.5227 537.247 87.3864C536.875 87.25 536.571 87.0696 536.335 86.8452C536.099 86.6207 535.923 86.375 535.806 86.108L536.902 85.6562C536.978 85.7812 537.081 85.9134 537.208 86.0526C537.339 86.1946 537.515 86.3153 537.737 86.4148C537.961 86.5142 538.25 86.5639 538.602 86.5639C539.085 86.5639 539.484 86.446 539.799 86.2102C540.115 85.9773 540.272 85.6051 540.272 85.0938V83.8068H540.191C540.115 83.946 540.004 84.1009 539.859 84.2713C539.717 84.4418 539.521 84.5895 539.271 84.7145C539.021 84.8395 538.696 84.902 538.295 84.902C537.778 84.902 537.312 84.7812 536.897 84.5398C536.485 84.2955 536.159 83.9361 535.917 83.4616C535.679 82.9844 535.559 82.3977 535.559 81.7017C535.559 81.0057 535.677 80.4091 535.913 79.9119C536.152 79.4148 536.478 79.0341 536.893 78.7699C537.308 78.5028 537.778 78.3693 538.304 78.3693C538.71 78.3693 539.038 78.4375 539.288 78.5739C539.538 78.7074 539.733 78.8636 539.872 79.0426C540.014 79.2216 540.123 79.3793 540.2 79.5156H540.294V78.4545H541.542V85.1449C541.542 85.7074 541.412 86.169 541.15 86.5298C540.889 86.8906 540.535 87.1577 540.089 87.331C539.646 87.5043 539.146 87.5909 538.589 87.5909ZM538.576 83.8452C538.943 83.8452 539.252 83.7599 539.505 83.5895C539.761 83.4162 539.954 83.169 540.085 82.848C540.218 82.5241 540.285 82.1364 540.285 81.6847C540.285 81.2443 540.22 80.8565 540.089 80.5213C539.958 80.1861 539.767 79.9247 539.514 79.7372C539.261 79.5469 538.949 79.4517 538.576 79.4517C538.193 79.4517 537.873 79.5511 537.618 79.75C537.362 79.946 537.169 80.2131 537.038 80.5511C536.91 80.8892 536.846 81.267 536.846 81.6847C536.846 82.1136 536.912 82.4901 537.042 82.8139C537.173 83.1378 537.366 83.3906 537.622 83.5724C537.88 83.7543 538.199 83.8452 538.576 83.8452ZM547.108 80.7599V81.8636H543.238V80.7599H547.108ZM548.605 83.2955V82.2301L552.377 76.2727H553.216V77.8409H552.684L549.986 82.1108V82.179H555.155V83.2955H548.605ZM552.743 85V82.9716L552.752 82.4858V76.2727H554V85H552.743ZM559.679 85.1449C559.005 85.142 558.43 84.9645 557.953 84.6122C557.475 84.2599 557.11 83.7472 556.858 83.0739C556.605 82.4006 556.478 81.5895 556.478 80.6406C556.478 79.6946 556.605 78.8864 556.858 78.2159C557.113 77.5455 557.48 77.0341 557.957 76.6818C558.437 76.3295 559.011 76.1534 559.679 76.1534C560.346 76.1534 560.919 76.331 561.396 76.6861C561.873 77.0384 562.238 77.5497 562.491 78.2202C562.747 78.8878 562.875 79.6946 562.875 80.6406C562.875 81.5923 562.748 82.4048 562.495 83.0781C562.243 83.7486 561.877 84.2614 561.4 84.6165C560.923 84.9688 560.349 85.1449 559.679 85.1449ZM559.679 84.0071C560.27 84.0071 560.731 83.7188 561.064 83.142C561.399 82.5653 561.566 81.7315 561.566 80.6406C561.566 79.9162 561.49 79.304 561.336 78.804C561.186 78.3011 560.968 77.9205 560.684 77.6619C560.403 77.4006 560.068 77.2699 559.679 77.2699C559.091 77.2699 558.629 77.5597 558.294 78.1392C557.958 78.7187 557.789 79.5526 557.787 80.6406C557.787 81.3679 557.862 81.983 558.012 82.4858C558.166 82.9858 558.383 83.3651 558.664 83.6236C558.946 83.8793 559.284 84.0071 559.679 84.0071ZM564.403 87.4545V78.4545H565.648V79.5156H565.754C565.828 79.3793 565.935 79.2216 566.074 79.0426C566.213 78.8636 566.406 78.7074 566.653 78.5739C566.901 78.4375 567.227 78.3693 567.634 78.3693C568.162 78.3693 568.634 78.5028 569.048 78.7699C569.463 79.0369 569.788 79.4219 570.024 79.9247C570.263 80.4276 570.382 81.0327 570.382 81.7401C570.382 82.4474 570.264 83.054 570.028 83.5597C569.793 84.0625 569.469 84.4503 569.057 84.723C568.645 84.9929 568.175 85.1278 567.646 85.1278C567.249 85.1278 566.923 85.0611 566.67 84.9276C566.42 84.794 566.224 84.6378 566.082 84.4588C565.94 84.2798 565.831 84.1207 565.754 83.9815H565.678V87.4545H564.403ZM565.652 81.7273C565.652 82.1875 565.719 82.5909 565.852 82.9375C565.986 83.2841 566.179 83.5554 566.432 83.7514C566.685 83.9446 566.994 84.0412 567.361 84.0412C567.741 84.0412 568.06 83.9403 568.315 83.7386C568.571 83.5341 568.764 83.2571 568.895 82.9077C569.028 82.5582 569.095 82.1648 569.095 81.7273C569.095 81.2955 569.03 80.9077 568.899 80.5639C568.771 80.2202 568.578 79.9489 568.32 79.75C568.064 79.5511 567.744 79.4517 567.361 79.4517C566.991 79.4517 566.679 79.5469 566.423 79.7372C566.17 79.9276 565.979 80.1932 565.848 80.5341C565.717 80.875 565.652 81.2727 565.652 81.7273ZM572.558 78.4545L574.002 81.0028L575.46 78.4545H576.853L574.812 81.7273L576.87 85H575.477L574.002 82.554L572.532 85H571.134L573.171 81.7273L571.16 78.4545H572.558Z" fill="black"/>
</svg>
