<svg width="804" height="256" viewBox="0 0 804 256" fill="none" xmlns="http://www.w3.org/2000/svg">
<rect width="804" height="255" transform="translate(0 0.0625)" fill="#F9FAFB"/>
<g filter="url(#filter0_dd_814_9469)">
<g clip-path="url(#clip0_814_9469)">
<rect x="81" y="50.0625" width="145" height="150.311" rx="7.10373" fill="white"/>
<rect width="85" height="71" transform="translate(141 50.0625)" fill="#217CF5"/>
<rect width="145" height="71" transform="translate(81 50.0625)" fill="#0A72BA"/>
<path d="M92.9983 147.719L97.5088 138.799V138.723H92.292V137.386H99.1232V138.768L94.6279 147.719H92.9983ZM104.253 147.89C103.456 147.887 102.775 147.677 102.21 147.26C101.645 146.843 101.212 146.235 100.913 145.438C100.614 144.641 100.464 143.681 100.464 142.557C100.464 141.437 100.614 140.48 100.913 139.687C101.216 138.893 101.65 138.287 102.215 137.87C102.783 137.453 103.463 137.245 104.253 137.245C105.043 137.245 105.721 137.455 106.286 137.875C106.851 138.293 107.284 138.898 107.583 139.692C107.886 140.482 108.037 141.437 108.037 142.557C108.037 143.684 107.887 144.646 107.588 145.443C107.289 146.237 106.856 146.844 106.291 147.265C105.726 147.682 105.047 147.89 104.253 147.89ZM104.253 146.543C104.953 146.543 105.499 146.202 105.893 145.519C106.29 144.836 106.488 143.849 106.488 142.557C106.488 141.7 106.397 140.975 106.216 140.383C106.037 139.788 105.78 139.337 105.444 139.031C105.111 138.721 104.714 138.567 104.253 138.567C103.557 138.567 103.01 138.91 102.613 139.596C102.216 140.282 102.016 141.269 102.013 142.557C102.013 143.419 102.102 144.147 102.28 144.742C102.462 145.334 102.719 145.783 103.052 146.089C103.385 146.392 103.785 146.543 104.253 146.543ZM113.424 147.89C112.627 147.887 111.946 147.677 111.381 147.26C110.816 146.843 110.383 146.235 110.084 145.438C109.785 144.641 109.635 143.681 109.635 142.557C109.635 141.437 109.785 140.48 110.084 139.687C110.387 138.893 110.821 138.287 111.386 137.87C111.954 137.453 112.634 137.245 113.424 137.245C114.214 137.245 114.892 137.455 115.457 137.875C116.022 138.293 116.455 138.898 116.754 139.692C117.057 140.482 117.208 141.437 117.208 142.557C117.208 143.684 117.058 144.646 116.759 145.443C116.46 146.237 116.027 146.844 115.462 147.265C114.897 147.682 114.218 147.89 113.424 147.89ZM113.424 146.543C114.124 146.543 114.67 146.202 115.064 145.519C115.461 144.836 115.659 143.849 115.659 142.557C115.659 141.7 115.568 140.975 115.387 140.383C115.208 139.788 114.951 139.337 114.615 139.031C114.282 138.721 113.885 138.567 113.424 138.567C112.728 138.567 112.181 138.91 111.784 139.596C111.387 140.282 111.187 141.269 111.184 142.557C111.184 143.419 111.273 144.147 111.451 144.742C111.633 145.334 111.89 145.783 112.223 146.089C112.556 146.392 112.957 146.543 113.424 146.543Z" fill="#1F243D"/>
<path d="M92.6729 166.719V158.323H93.6895V162.062H98.1659V158.323H99.1825V166.719H98.1659V162.964H93.6895V166.719H92.6729ZM103.727 166.85C103.12 166.85 102.597 166.716 102.157 166.448C101.719 166.178 101.382 165.801 101.144 165.317C100.909 164.83 100.791 164.265 100.791 163.62C100.791 162.975 100.909 162.406 101.144 161.914C101.382 161.42 101.712 161.034 102.136 160.758C102.562 160.48 103.06 160.34 103.628 160.34C103.956 160.34 104.28 160.395 104.6 160.504C104.919 160.614 105.211 160.791 105.473 161.037C105.735 161.28 105.944 161.603 106.1 162.005C106.256 162.406 106.334 162.901 106.334 163.489V163.898H101.48V163.062H105.35C105.35 162.707 105.279 162.39 105.137 162.111C104.997 161.832 104.798 161.612 104.538 161.451C104.281 161.29 103.978 161.209 103.628 161.209C103.243 161.209 102.909 161.305 102.628 161.496C102.349 161.685 102.135 161.931 101.984 162.234C101.834 162.537 101.759 162.863 101.759 163.21V163.767C101.759 164.243 101.841 164.646 102.005 164.977C102.172 165.304 102.403 165.555 102.698 165.727C102.993 165.896 103.336 165.981 103.727 165.981C103.981 165.981 104.21 165.945 104.415 165.874C104.623 165.801 104.802 165.691 104.952 165.546C105.103 165.399 105.219 165.216 105.301 164.997L106.235 165.259C106.137 165.576 105.972 165.855 105.739 166.096C105.507 166.333 105.22 166.519 104.878 166.653C104.537 166.784 104.153 166.85 103.727 166.85ZM108.358 160.422L109.866 162.997L111.375 160.422H112.49L110.457 163.571L112.49 166.719H111.375L109.866 164.276L108.358 166.719H107.243L109.243 163.571L107.243 160.422H108.358ZM117.822 166.784C117.62 166.784 117.446 166.712 117.301 166.567C117.156 166.422 117.084 166.249 117.084 166.046C117.084 165.844 117.156 165.671 117.301 165.526C117.446 165.381 117.62 165.309 117.822 165.309C118.024 165.309 118.198 165.381 118.343 165.526C118.487 165.671 118.56 165.844 118.56 166.046C118.56 166.18 118.526 166.303 118.457 166.415C118.392 166.527 118.303 166.618 118.191 166.686C118.082 166.752 117.959 166.784 117.822 166.784ZM117.822 162.111C117.62 162.111 117.446 162.039 117.301 161.894C117.156 161.749 117.084 161.576 117.084 161.373C117.084 161.171 117.156 160.998 117.301 160.853C117.446 160.708 117.62 160.635 117.822 160.635C118.024 160.635 118.198 160.708 118.343 160.853C118.487 160.998 118.56 161.171 118.56 161.373C118.56 161.507 118.526 161.63 118.457 161.742C118.392 161.854 118.303 161.944 118.191 162.013C118.082 162.078 117.959 162.111 117.822 162.111ZM126.674 166.719L128.052 158.323H128.872L127.494 166.719H126.674ZM122.854 164.39L122.985 163.571H129.249L129.118 164.39H122.854ZM123.723 166.719L125.1 158.323H125.92L124.543 166.719H123.723ZM123.346 161.472L123.477 160.652H129.741L129.609 161.472H123.346ZM130.808 166.719V165.981L133.58 162.947C133.905 162.592 134.173 162.283 134.383 162.021C134.593 161.756 134.749 161.507 134.85 161.275C134.954 161.04 135.006 160.794 135.006 160.537C135.006 160.242 134.935 159.986 134.793 159.77C134.654 159.555 134.462 159.388 134.219 159.27C133.976 159.153 133.703 159.094 133.399 159.094C133.077 159.094 132.795 159.161 132.555 159.295C132.317 159.426 132.133 159.611 132.001 159.848C131.873 160.086 131.809 160.365 131.809 160.685H130.841C130.841 160.193 130.955 159.761 131.181 159.389C131.408 159.018 131.717 158.728 132.108 158.52C132.501 158.312 132.943 158.209 133.432 158.209C133.924 158.209 134.36 158.312 134.74 158.52C135.12 158.728 135.417 159.008 135.633 159.361C135.849 159.713 135.957 160.105 135.957 160.537C135.957 160.846 135.901 161.148 135.789 161.443C135.68 161.735 135.488 162.062 135.215 162.423C134.945 162.781 134.569 163.218 134.088 163.734L132.202 165.751V165.817H136.105V166.719H130.808ZM140.749 158.323V166.719H139.733V159.389H139.683L137.634 160.75V159.717L139.733 158.323H140.749ZM143.426 166.719L147.181 159.291V159.225H142.852V158.323H148.23V159.274L144.492 166.719H143.426ZM156.662 160.947H155.645C155.585 160.655 155.48 160.398 155.329 160.176C155.182 159.955 155.001 159.769 154.788 159.619C154.578 159.466 154.344 159.351 154.087 159.274C153.83 159.198 153.563 159.16 153.284 159.16C152.775 159.16 152.315 159.288 151.902 159.545C151.492 159.802 151.166 160.18 150.923 160.681C150.682 161.181 150.562 161.794 150.562 162.521C150.562 163.248 150.682 163.862 150.923 164.362C151.166 164.862 151.492 165.24 151.902 165.497C152.315 165.754 152.775 165.882 153.284 165.882C153.563 165.882 153.83 165.844 154.087 165.768C154.344 165.691 154.578 165.578 154.788 165.427C155.001 165.274 155.182 165.087 155.329 164.866C155.48 164.642 155.585 164.385 155.645 164.095H156.662C156.585 164.524 156.446 164.908 156.243 165.247C156.041 165.586 155.79 165.874 155.489 166.112C155.189 166.347 154.851 166.526 154.477 166.649C154.105 166.772 153.707 166.834 153.284 166.834C152.568 166.834 151.931 166.659 151.374 166.309C150.816 165.959 150.377 165.462 150.058 164.817C149.738 164.172 149.578 163.407 149.578 162.521C149.578 161.636 149.738 160.87 150.058 160.225C150.377 159.581 150.816 159.083 151.374 158.733C151.931 158.384 152.568 158.209 153.284 158.209C153.707 158.209 154.105 158.27 154.477 158.393C154.851 158.516 155.189 158.696 155.489 158.934C155.79 159.169 156.041 159.456 156.243 159.795C156.446 160.131 156.585 160.515 156.662 160.947ZM158.304 166.719V158.323H163.338V159.225H159.321V162.062H162.961V162.964H159.321V166.719H158.304ZM167.555 166.834C167.074 166.834 166.641 166.738 166.256 166.547C165.871 166.355 165.562 166.093 165.33 165.76C165.097 165.426 164.97 165.046 164.948 164.62H165.932C165.97 165 166.143 165.314 166.449 165.563C166.757 165.809 167.126 165.932 167.555 165.932C167.9 165.932 168.206 165.851 168.474 165.69C168.744 165.529 168.956 165.307 169.109 165.026C169.265 164.742 169.343 164.42 169.343 164.062C169.343 163.696 169.262 163.37 169.101 163.083C168.942 162.793 168.724 162.565 168.445 162.398C168.166 162.231 167.848 162.147 167.49 162.144C167.233 162.141 166.969 162.181 166.699 162.263C166.428 162.342 166.205 162.445 166.03 162.57L165.079 162.456L165.588 158.323H169.949V159.225H166.44L166.145 161.701H166.194C166.367 161.565 166.583 161.451 166.842 161.361C167.102 161.271 167.372 161.226 167.654 161.226C168.168 161.226 168.625 161.349 169.027 161.595C169.432 161.838 169.749 162.171 169.978 162.595C170.21 163.018 170.327 163.502 170.327 164.046C170.327 164.582 170.206 165.06 169.966 165.481C169.728 165.899 169.4 166.23 168.982 166.473C168.564 166.713 168.088 166.834 167.555 166.834Z" fill="#959BA3"/>
<path d="M99.4285 178.947H98.4119C98.3517 178.655 98.2465 178.398 98.0962 178.176C97.9486 177.955 97.7683 177.769 97.5551 177.619C97.3447 177.466 97.111 177.351 96.8541 177.274C96.5972 177.198 96.3294 177.16 96.0507 177.16C95.5424 177.16 95.0819 177.288 94.6692 177.545C94.2593 177.802 93.9327 178.18 93.6895 178.681C93.449 179.181 93.3288 179.794 93.3288 180.521C93.3288 181.248 93.449 181.862 93.6895 182.362C93.9327 182.862 94.2593 183.24 94.6692 183.497C95.0819 183.754 95.5424 183.882 96.0507 183.882C96.3294 183.882 96.5972 183.844 96.8541 183.768C97.111 183.691 97.3447 183.578 97.5551 183.427C97.7683 183.274 97.9486 183.087 98.0962 182.866C98.2465 182.642 98.3517 182.385 98.4119 182.095H99.4285C99.352 182.524 99.2126 182.908 99.0104 183.247C98.8081 183.586 98.5567 183.874 98.2561 184.112C97.9555 184.347 97.618 184.526 97.2436 184.649C96.8719 184.772 96.4743 184.834 96.0507 184.834C95.3347 184.834 94.6979 184.659 94.1404 184.309C93.5829 183.959 93.1443 183.462 92.8245 182.817C92.5048 182.172 92.3449 181.407 92.3449 180.521C92.3449 179.636 92.5048 178.87 92.8245 178.225C93.1443 177.581 93.5829 177.083 94.1404 176.733C94.6979 176.384 95.3347 176.209 96.0507 176.209C96.4743 176.209 96.8719 176.27 97.2436 176.393C97.618 176.516 97.9555 176.696 98.2561 176.934C98.5567 177.169 98.8081 177.456 99.0104 177.795C99.2126 178.131 99.352 178.515 99.4285 178.947ZM101.071 176.323H102.285L105.138 183.292H105.236L108.089 176.323H109.303V184.719H108.352V178.34H108.27L105.646 184.719H104.728L102.104 178.34H102.022V184.719H101.071V176.323ZM110.62 176.323H111.784L114.112 180.242H114.21L116.539 176.323H117.703L114.67 181.259V184.719H113.653V181.259L110.62 176.323ZM119.018 184.719V176.323H120.035V180.488H120.133L123.904 176.323H125.232L121.707 180.111L125.232 184.719H124.003L121.084 180.816L120.035 181.997V184.719H119.018ZM130.369 183.645C130.167 183.645 129.993 183.572 129.848 183.427C129.703 183.283 129.631 183.109 129.631 182.907C129.631 182.705 129.703 182.531 129.848 182.386C129.993 182.241 130.167 182.169 130.369 182.169C130.571 182.169 130.745 182.241 130.889 182.386C131.034 182.531 131.107 182.705 131.107 182.907C131.107 183.041 131.073 183.164 131.004 183.276C130.939 183.388 130.85 183.478 130.738 183.546C130.628 183.612 130.505 183.645 130.369 183.645ZM130.369 179.398C130.167 179.398 129.993 179.325 129.848 179.181C129.703 179.036 129.631 178.862 129.631 178.66C129.631 178.458 129.703 178.284 129.848 178.139C129.993 177.995 130.167 177.922 130.369 177.922C130.571 177.922 130.745 177.995 130.889 178.139C131.034 178.284 131.107 178.458 131.107 178.66C131.107 178.794 131.073 178.917 131.004 179.029C130.939 179.141 130.85 179.231 130.738 179.3C130.628 179.365 130.505 179.398 130.369 179.398ZM138.762 184.834C138.199 184.834 137.702 184.734 137.27 184.534C136.841 184.332 136.506 184.055 136.266 183.702C136.025 183.347 135.906 182.942 135.909 182.489C135.906 182.133 135.976 181.806 136.118 181.505C136.26 181.202 136.454 180.949 136.7 180.747C136.949 180.542 137.226 180.412 137.532 180.357V180.308C137.131 180.204 136.811 179.979 136.573 179.632C136.335 179.282 136.218 178.884 136.221 178.439C136.218 178.012 136.326 177.631 136.544 177.295C136.763 176.959 137.064 176.694 137.446 176.5C137.832 176.306 138.27 176.209 138.762 176.209C139.249 176.209 139.683 176.306 140.066 176.5C140.448 176.694 140.749 176.959 140.968 177.295C141.189 177.631 141.301 178.012 141.304 178.439C141.301 178.884 141.179 179.282 140.939 179.632C140.701 179.979 140.385 180.204 139.992 180.308V180.357C140.295 180.412 140.569 180.542 140.812 180.747C141.055 180.949 141.249 181.202 141.394 181.505C141.539 181.806 141.612 182.133 141.615 182.489C141.612 182.942 141.489 183.347 141.246 183.702C141.006 184.055 140.671 184.332 140.242 184.534C139.816 184.734 139.322 184.834 138.762 184.834ZM138.762 183.932C139.142 183.932 139.47 183.87 139.746 183.747C140.022 183.624 140.235 183.451 140.385 183.227C140.536 183.003 140.612 182.74 140.615 182.44C140.612 182.123 140.53 181.842 140.369 181.599C140.208 181.356 139.988 181.165 139.709 181.025C139.433 180.886 139.117 180.816 138.762 180.816C138.404 180.816 138.084 180.886 137.803 181.025C137.524 181.165 137.304 181.356 137.143 181.599C136.984 181.842 136.906 182.123 136.909 182.44C136.906 182.74 136.979 183.003 137.126 183.227C137.277 183.451 137.491 183.624 137.77 183.747C138.049 183.87 138.379 183.932 138.762 183.932ZM138.762 179.947C139.063 179.947 139.329 179.887 139.561 179.767C139.796 179.647 139.981 179.479 140.115 179.263C140.249 179.047 140.317 178.794 140.32 178.504C140.317 178.22 140.25 177.973 140.119 177.762C139.988 177.549 139.806 177.385 139.574 177.27C139.341 177.153 139.071 177.094 138.762 177.094C138.448 177.094 138.173 177.153 137.938 177.27C137.703 177.385 137.521 177.549 137.393 177.762C137.264 177.973 137.202 178.22 137.204 178.504C137.202 178.794 137.266 179.047 137.397 179.263C137.531 179.479 137.715 179.647 137.95 179.767C138.185 179.887 138.456 179.947 138.762 179.947ZM143.449 184.719L147.204 177.291V177.225H142.875V176.323H148.253V177.274L144.514 184.719H143.449ZM154.487 183.571L154.421 184.014C154.375 184.325 154.304 184.659 154.208 185.014C154.115 185.369 154.018 185.704 153.917 186.018C153.816 186.332 153.733 186.583 153.667 186.768H152.929C152.965 186.593 153.011 186.363 153.069 186.076C153.126 185.789 153.183 185.468 153.241 185.112C153.301 184.76 153.35 184.399 153.388 184.03L153.438 183.571H154.487ZM158.717 184.834C158.236 184.834 157.803 184.738 157.418 184.547C157.033 184.355 156.724 184.093 156.491 183.76C156.259 183.426 156.132 183.046 156.11 182.62H157.094C157.132 183 157.304 183.314 157.611 183.563C157.919 183.809 158.288 183.932 158.717 183.932C159.062 183.932 159.368 183.851 159.636 183.69C159.906 183.529 160.118 183.307 160.271 183.026C160.427 182.742 160.505 182.42 160.505 182.062C160.505 181.696 160.424 181.37 160.263 181.083C160.104 180.793 159.886 180.565 159.607 180.398C159.328 180.231 159.01 180.147 158.652 180.144C158.395 180.141 158.131 180.181 157.861 180.263C157.59 180.342 157.367 180.445 157.192 180.57L156.241 180.456L156.75 176.323H161.111V177.225H157.602L157.307 179.701H157.356C157.529 179.565 157.744 179.451 158.004 179.361C158.264 179.271 158.534 179.226 158.816 179.226C159.33 179.226 159.787 179.349 160.189 179.595C160.593 179.838 160.91 180.171 161.14 180.595C161.372 181.018 161.488 181.502 161.488 182.046C161.488 182.582 161.368 183.06 161.128 183.481C160.89 183.899 160.562 184.23 160.144 184.473C159.726 184.713 159.25 184.834 158.717 184.834ZM163.117 184.719V183.981L165.888 180.947C166.213 180.592 166.481 180.283 166.691 180.021C166.902 179.756 167.058 179.507 167.159 179.275C167.263 179.04 167.315 178.794 167.315 178.537C167.315 178.242 167.244 177.986 167.101 177.77C166.962 177.555 166.771 177.388 166.528 177.27C166.284 177.153 166.011 177.094 165.708 177.094C165.385 177.094 165.104 177.161 164.863 177.295C164.625 177.426 164.441 177.611 164.31 177.848C164.181 178.086 164.117 178.365 164.117 178.685H163.15C163.15 178.193 163.263 177.761 163.49 177.389C163.717 177.018 164.026 176.728 164.416 176.52C164.81 176.312 165.251 176.209 165.74 176.209C166.232 176.209 166.668 176.312 167.048 176.52C167.428 176.728 167.726 177.008 167.942 177.361C168.158 177.713 168.266 178.105 168.266 178.537C168.266 178.846 168.21 179.148 168.098 179.443C167.988 179.735 167.797 180.062 167.524 180.423C167.253 180.781 166.877 181.218 166.396 181.734L164.511 183.751V183.817H168.413V184.719H163.117ZM174.812 183.571L174.747 184.014C174.7 184.325 174.629 184.659 174.533 185.014C174.441 185.369 174.343 185.704 174.242 186.018C174.141 186.332 174.058 186.583 173.992 186.768H173.254C173.29 186.593 173.336 186.363 173.394 186.076C173.451 185.789 173.509 185.468 173.566 185.112C173.626 184.76 173.675 184.399 173.714 184.03L173.763 183.571H174.812ZM179.033 184.834C178.416 184.834 177.89 184.665 177.455 184.329C177.021 183.99 176.689 183.5 176.459 182.858C176.229 182.213 176.115 181.434 176.115 180.521C176.115 179.614 176.229 178.839 176.459 178.197C176.691 177.552 177.025 177.06 177.459 176.721C177.897 176.379 178.421 176.209 179.033 176.209C179.646 176.209 180.169 176.379 180.603 176.721C181.041 177.06 181.374 177.552 181.604 178.197C181.836 178.839 181.952 179.614 181.952 180.521C181.952 181.434 181.837 182.213 181.608 182.858C181.378 183.5 181.046 183.99 180.612 184.329C180.177 184.665 179.651 184.834 179.033 184.834ZM179.033 183.932C179.646 183.932 180.121 183.637 180.46 183.046C180.799 182.456 180.968 181.614 180.968 180.521C180.968 179.794 180.89 179.175 180.735 178.664C180.582 178.153 180.36 177.764 180.071 177.496C179.784 177.228 179.438 177.094 179.033 177.094C178.427 177.094 177.953 177.393 177.611 177.992C177.269 178.588 177.099 179.431 177.099 180.521C177.099 181.248 177.175 181.866 177.328 182.374C177.481 182.882 177.701 183.269 177.988 183.534C178.278 183.799 178.626 183.932 179.033 183.932ZM188.216 183.571L188.15 184.014C188.104 184.325 188.033 184.659 187.937 185.014C187.844 185.369 187.747 185.704 187.646 186.018C187.545 186.332 187.462 186.583 187.396 186.768H186.658C186.694 186.593 186.74 186.363 186.797 186.076C186.855 185.789 186.912 185.468 186.97 185.112C187.03 184.76 187.079 184.399 187.117 184.03L187.166 183.571H188.216ZM195.977 184.834C195.359 184.834 194.833 184.665 194.399 184.329C193.964 183.99 193.632 183.5 193.402 182.858C193.173 182.213 193.058 181.434 193.058 180.521C193.058 179.614 193.173 178.839 193.402 178.197C193.635 177.552 193.968 177.06 194.403 176.721C194.84 176.379 195.365 176.209 195.977 176.209C196.589 176.209 197.112 176.379 197.547 176.721C197.984 177.06 198.317 177.552 198.547 178.197C198.779 178.839 198.895 179.614 198.895 180.521C198.895 181.434 198.781 182.213 198.551 182.858C198.322 183.5 197.989 183.99 197.555 184.329C197.12 184.665 196.594 184.834 195.977 184.834ZM195.977 183.932C196.589 183.932 197.064 183.637 197.403 183.046C197.742 182.456 197.912 181.614 197.912 180.521C197.912 179.794 197.834 179.175 197.678 178.664C197.525 178.153 197.304 177.764 197.014 177.496C196.727 177.228 196.381 177.094 195.977 177.094C195.37 177.094 194.896 177.393 194.554 177.992C194.213 178.588 194.042 179.431 194.042 180.521C194.042 181.248 194.118 181.866 194.271 182.374C194.424 182.882 194.644 183.269 194.931 183.534C195.221 183.799 195.57 183.932 195.977 183.932Z" fill="#959BA3"/>
</g>
</g>
<g filter="url(#filter1_dd_814_9469)">
<g clip-path="url(#clip1_814_9469)">
<rect x="247" y="50.0625" width="145" height="150.311" rx="7.10373" fill="white"/>
<rect width="73" height="71" transform="translate(319 50.0625)" fill="#022276"/>
<rect width="145" height="71" transform="translate(247 50.0625)" fill="#28316E"/>
<path d="M262.086 137.245C262.547 137.248 263.001 137.332 263.448 137.497C263.896 137.662 264.299 137.931 264.659 138.304C265.022 138.678 265.312 139.182 265.527 139.818C265.745 140.45 265.856 141.237 265.86 142.179C265.86 143.084 265.769 143.889 265.587 144.596C265.406 145.299 265.145 145.892 264.805 146.377C264.469 146.861 264.06 147.229 263.579 147.482C263.098 147.734 262.557 147.86 261.955 147.86C261.339 147.86 260.793 147.739 260.315 147.497C259.837 147.255 259.449 146.92 259.15 146.493C258.85 146.062 258.664 145.568 258.59 145.009H260.128C260.229 145.453 260.435 145.813 260.744 146.089C261.057 146.362 261.46 146.498 261.955 146.498C262.712 146.498 263.302 146.168 263.726 145.509C264.15 144.846 264.363 143.921 264.366 142.734H264.286C264.111 143.023 263.892 143.272 263.63 143.481C263.371 143.689 263.08 143.851 262.757 143.965C262.434 144.079 262.089 144.137 261.723 144.137C261.127 144.137 260.586 143.99 260.098 143.698C259.61 143.405 259.222 143.003 258.933 142.492C258.643 141.981 258.499 141.397 258.499 140.741C258.499 140.089 258.647 139.497 258.943 138.965C259.242 138.434 259.659 138.013 260.194 137.704C260.732 137.391 261.363 137.238 262.086 137.245ZM262.091 138.557C261.698 138.557 261.343 138.654 261.026 138.849C260.714 139.041 260.466 139.302 260.285 139.631C260.103 139.957 260.012 140.321 260.012 140.721C260.012 141.121 260.1 141.484 260.275 141.811C260.453 142.134 260.695 142.391 261.001 142.583C261.311 142.771 261.664 142.865 262.061 142.865C262.357 142.865 262.633 142.808 262.888 142.694C263.144 142.579 263.367 142.421 263.559 142.219C263.751 142.014 263.901 141.782 264.008 141.523C264.116 141.264 264.17 140.992 264.17 140.706C264.17 140.326 264.079 139.973 263.897 139.646C263.719 139.32 263.473 139.058 263.161 138.859C262.848 138.657 262.491 138.557 262.091 138.557ZM271.28 147.89C270.483 147.887 269.801 147.677 269.236 147.26C268.671 146.843 268.239 146.235 267.94 145.438C267.64 144.641 267.491 143.681 267.491 142.557C267.491 141.437 267.64 140.48 267.94 139.687C268.242 138.893 268.676 138.287 269.241 137.87C269.81 137.453 270.489 137.245 271.28 137.245C272.07 137.245 272.748 137.455 273.313 137.875C273.878 138.293 274.31 138.898 274.61 139.692C274.912 140.482 275.064 141.437 275.064 142.557C275.064 143.684 274.914 144.646 274.615 145.443C274.315 146.237 273.883 146.844 273.318 147.265C272.753 147.682 272.074 147.89 271.28 147.89ZM271.28 146.543C271.979 146.543 272.526 146.202 272.919 145.519C273.316 144.836 273.515 143.849 273.515 142.557C273.515 141.7 273.424 140.975 273.242 140.383C273.064 139.788 272.807 139.337 272.47 139.031C272.137 138.721 271.741 138.567 271.28 138.567C270.583 138.567 270.037 138.91 269.64 139.596C269.243 140.282 269.043 141.269 269.04 142.557C269.04 143.419 269.129 144.147 269.307 144.742C269.489 145.334 269.746 145.783 270.079 146.089C270.412 146.392 270.812 146.543 271.28 146.543ZM280.451 147.89C279.654 147.887 278.972 147.677 278.407 147.26C277.842 146.843 277.41 146.235 277.111 145.438C276.811 144.641 276.662 143.681 276.662 142.557C276.662 141.437 276.811 140.48 277.111 139.687C277.414 138.893 277.847 138.287 278.412 137.87C278.981 137.453 279.66 137.245 280.451 137.245C281.241 137.245 281.919 137.455 282.484 137.875C283.049 138.293 283.481 138.898 283.781 139.692C284.083 140.482 284.235 141.437 284.235 142.557C284.235 143.684 284.085 144.646 283.786 145.443C283.486 146.237 283.054 146.844 282.489 147.265C281.924 147.682 281.245 147.89 280.451 147.89ZM280.451 146.543C281.15 146.543 281.697 146.202 282.09 145.519C282.487 144.836 282.686 143.849 282.686 142.557C282.686 141.7 282.595 140.975 282.413 140.383C282.235 139.788 281.978 139.337 281.641 139.031C281.308 138.721 280.912 138.567 280.451 138.567C279.755 138.567 279.208 138.91 278.811 139.596C278.414 140.282 278.214 141.269 278.211 142.557C278.211 143.419 278.3 144.147 278.478 144.742C278.66 145.334 278.917 145.783 279.25 146.089C279.583 146.392 279.983 146.543 280.451 146.543Z" fill="#1F243D"/>
<path d="M258.673 166.719V158.323H259.689V162.062H264.166V158.323H265.183V166.719H264.166V162.964H259.689V166.719H258.673ZM269.727 166.85C269.12 166.85 268.597 166.716 268.157 166.448C267.719 166.178 267.382 165.801 267.144 165.317C266.909 164.83 266.791 164.265 266.791 163.62C266.791 162.975 266.909 162.406 267.144 161.914C267.382 161.42 267.712 161.034 268.136 160.758C268.562 160.48 269.06 160.34 269.628 160.34C269.956 160.34 270.28 160.395 270.6 160.504C270.919 160.614 271.211 160.791 271.473 161.037C271.735 161.28 271.944 161.603 272.1 162.005C272.256 162.406 272.334 162.901 272.334 163.489V163.898H267.48V163.062H271.35C271.35 162.707 271.279 162.39 271.137 162.111C270.997 161.832 270.798 161.612 270.538 161.451C270.281 161.29 269.978 161.209 269.628 161.209C269.243 161.209 268.909 161.305 268.628 161.496C268.349 161.685 268.135 161.931 267.984 162.234C267.834 162.537 267.759 162.863 267.759 163.21V163.767C267.759 164.243 267.841 164.646 268.005 164.977C268.172 165.304 268.403 165.555 268.698 165.727C268.993 165.896 269.336 165.981 269.727 165.981C269.981 165.981 270.21 165.945 270.415 165.874C270.623 165.801 270.802 165.691 270.952 165.546C271.103 165.399 271.219 165.216 271.301 164.997L272.235 165.259C272.137 165.576 271.972 165.855 271.739 166.096C271.507 166.333 271.22 166.519 270.878 166.653C270.537 166.784 270.153 166.85 269.727 166.85ZM274.358 160.422L275.866 162.997L277.375 160.422H278.49L276.457 163.571L278.49 166.719H277.375L275.866 164.276L274.358 166.719H273.243L275.243 163.571L273.243 160.422H274.358ZM283.822 166.784C283.62 166.784 283.446 166.712 283.301 166.567C283.156 166.422 283.084 166.249 283.084 166.046C283.084 165.844 283.156 165.671 283.301 165.526C283.446 165.381 283.62 165.309 283.822 165.309C284.024 165.309 284.198 165.381 284.343 165.526C284.487 165.671 284.56 165.844 284.56 166.046C284.56 166.18 284.526 166.303 284.457 166.415C284.392 166.527 284.303 166.618 284.191 166.686C284.082 166.752 283.959 166.784 283.822 166.784ZM283.822 162.111C283.62 162.111 283.446 162.039 283.301 161.894C283.156 161.749 283.084 161.576 283.084 161.373C283.084 161.171 283.156 160.998 283.301 160.853C283.446 160.708 283.62 160.635 283.822 160.635C284.024 160.635 284.198 160.708 284.343 160.853C284.487 160.998 284.56 161.171 284.56 161.373C284.56 161.507 284.526 161.63 284.457 161.742C284.392 161.854 284.303 161.944 284.191 162.013C284.082 162.078 283.959 162.111 283.822 162.111ZM292.674 166.719L294.052 158.323H294.872L293.494 166.719H292.674ZM288.854 164.39L288.985 163.571H295.249L295.118 164.39H288.854ZM289.723 166.719L291.1 158.323H291.92L290.543 166.719H289.723ZM289.346 161.472L289.477 160.652H295.741L295.609 161.472H289.346ZM299.547 166.834C298.929 166.834 298.403 166.665 297.969 166.329C297.534 165.99 297.202 165.5 296.972 164.858C296.743 164.213 296.628 163.434 296.628 162.521C296.628 161.614 296.743 160.839 296.972 160.197C297.205 159.552 297.538 159.06 297.973 158.721C298.41 158.379 298.935 158.209 299.547 158.209C300.159 158.209 300.682 158.379 301.117 158.721C301.554 159.06 301.887 159.552 302.117 160.197C302.349 160.839 302.465 161.614 302.465 162.521C302.465 163.434 302.351 164.213 302.121 164.858C301.892 165.5 301.56 165.99 301.125 166.329C300.69 166.665 300.164 166.834 299.547 166.834ZM299.547 165.932C300.159 165.932 300.634 165.637 300.973 165.046C301.312 164.456 301.482 163.614 301.482 162.521C301.482 161.794 301.404 161.175 301.248 160.664C301.095 160.153 300.874 159.764 300.584 159.496C300.297 159.228 299.951 159.094 299.547 159.094C298.94 159.094 298.466 159.393 298.124 159.992C297.783 160.588 297.612 161.431 297.612 162.521C297.612 163.248 297.688 163.866 297.841 164.374C297.995 164.882 298.215 165.269 298.501 165.534C298.791 165.799 299.14 165.932 299.547 165.932ZM304.023 166.719V165.981L306.794 162.947C307.12 162.592 307.387 162.283 307.598 162.021C307.808 161.756 307.964 161.507 308.065 161.275C308.169 161.04 308.221 160.794 308.221 160.537C308.221 160.242 308.15 159.986 308.008 159.77C307.868 159.555 307.677 159.388 307.434 159.27C307.191 159.153 306.917 159.094 306.614 159.094C306.291 159.094 306.01 159.161 305.769 159.295C305.532 159.426 305.347 159.611 305.216 159.848C305.088 160.086 305.023 160.365 305.023 160.685H304.056C304.056 160.193 304.169 159.761 304.396 159.389C304.623 159.018 304.932 158.728 305.323 158.52C305.716 158.312 306.158 158.209 306.647 158.209C307.139 158.209 307.575 158.312 307.954 158.52C308.334 158.728 308.632 159.008 308.848 159.361C309.064 159.713 309.172 160.105 309.172 160.537C309.172 160.846 309.116 161.148 309.004 161.443C308.895 161.735 308.703 162.062 308.43 162.423C308.159 162.781 307.784 163.218 307.303 163.734L305.417 165.751V165.817H309.319V166.719H304.023ZM311.012 166.719V165.981L313.784 162.947C314.109 162.592 314.377 162.283 314.587 162.021C314.797 161.756 314.953 161.507 315.054 161.275C315.158 161.04 315.21 160.794 315.21 160.537C315.21 160.242 315.139 159.986 314.997 159.77C314.858 159.555 314.666 159.388 314.423 159.27C314.18 159.153 313.907 159.094 313.603 159.094C313.281 159.094 312.999 159.161 312.759 159.295C312.521 159.426 312.337 159.611 312.205 159.848C312.077 160.086 312.013 160.365 312.013 160.685H311.045C311.045 160.193 311.159 159.761 311.385 159.389C311.612 159.018 311.921 158.728 312.312 158.52C312.705 158.312 313.147 158.209 313.636 158.209C314.128 158.209 314.564 158.312 314.944 158.52C315.324 158.728 315.621 159.008 315.837 159.361C316.053 159.713 316.161 160.105 316.161 160.537C316.161 160.846 316.105 161.148 315.993 161.443C315.884 161.735 315.692 162.062 315.419 162.423C315.149 162.781 314.773 163.218 314.292 163.734L312.406 165.751V165.817H316.309V166.719H311.012ZM318.002 166.719V165.981L320.773 162.947C321.098 162.592 321.366 162.283 321.576 162.021C321.787 161.756 321.943 161.507 322.044 161.275C322.147 161.04 322.199 160.794 322.199 160.537C322.199 160.242 322.128 159.986 321.986 159.77C321.847 159.555 321.656 159.388 321.412 159.27C321.169 159.153 320.896 159.094 320.592 159.094C320.27 159.094 319.989 159.161 319.748 159.295C319.51 159.426 319.326 159.611 319.195 159.848C319.066 160.086 319.002 160.365 319.002 160.685H318.035C318.035 160.193 318.148 159.761 318.375 159.389C318.602 159.018 318.91 158.728 319.301 158.52C319.695 158.312 320.136 158.209 320.625 158.209C321.117 158.209 321.553 158.312 321.933 158.52C322.313 158.728 322.611 159.008 322.827 159.361C323.042 159.713 323.15 160.105 323.15 160.537C323.15 160.846 323.094 161.148 322.982 161.443C322.873 161.735 322.682 162.062 322.408 162.423C322.138 162.781 321.762 163.218 321.281 163.734L319.395 165.751V165.817H323.298V166.719H318.002ZM325.253 166.719L329.008 159.291V159.225H324.679V158.323H330.058V159.274L326.319 166.719H325.253ZM334.193 166.834C333.849 166.828 333.504 166.762 333.16 166.637C332.815 166.511 332.501 166.299 332.217 166.001C331.933 165.701 331.705 165.295 331.532 164.784C331.36 164.27 331.274 163.625 331.274 162.849C331.274 162.106 331.344 161.447 331.483 160.873C331.623 160.297 331.825 159.811 332.09 159.418C332.355 159.022 332.675 158.721 333.049 158.516C333.426 158.311 333.851 158.209 334.324 158.209C334.794 158.209 335.212 158.303 335.578 158.491C335.947 158.677 336.248 158.937 336.48 159.27C336.713 159.604 336.863 159.988 336.931 160.422H335.931C335.838 160.045 335.658 159.732 335.39 159.484C335.122 159.235 334.767 159.11 334.324 159.11C333.674 159.11 333.161 159.393 332.787 159.959C332.415 160.525 332.228 161.319 332.225 162.341H332.291C332.444 162.108 332.626 161.91 332.836 161.746C333.049 161.58 333.284 161.451 333.541 161.361C333.798 161.271 334.07 161.226 334.357 161.226C334.838 161.226 335.278 161.346 335.677 161.586C336.076 161.824 336.396 162.154 336.636 162.574C336.877 162.993 336.997 163.472 336.997 164.013C336.997 164.532 336.881 165.008 336.648 165.44C336.416 165.869 336.089 166.21 335.669 166.465C335.25 166.716 334.759 166.839 334.193 166.834ZM334.193 165.932C334.537 165.932 334.846 165.846 335.119 165.673C335.395 165.501 335.613 165.27 335.771 164.981C335.932 164.691 336.013 164.368 336.013 164.013C336.013 163.666 335.935 163.351 335.779 163.066C335.626 162.779 335.414 162.551 335.144 162.382C334.876 162.212 334.57 162.128 334.226 162.128C333.966 162.128 333.724 162.179 333.5 162.283C333.276 162.384 333.079 162.524 332.91 162.701C332.743 162.879 332.612 163.083 332.516 163.312C332.421 163.539 332.373 163.778 332.373 164.03C332.373 164.363 332.451 164.675 332.606 164.964C332.765 165.254 332.981 165.488 333.254 165.665C333.53 165.843 333.843 165.932 334.193 165.932Z" fill="#959BA3"/>
<path d="M265.428 178.947H264.412C264.352 178.655 264.247 178.398 264.096 178.176C263.949 177.955 263.768 177.769 263.555 177.619C263.345 177.466 263.111 177.351 262.854 177.274C262.597 177.198 262.329 177.16 262.051 177.16C261.542 177.16 261.082 177.288 260.669 177.545C260.259 177.802 259.933 178.18 259.689 178.681C259.449 179.181 259.329 179.794 259.329 180.521C259.329 181.248 259.449 181.862 259.689 182.362C259.933 182.862 260.259 183.24 260.669 183.497C261.082 183.754 261.542 183.882 262.051 183.882C262.329 183.882 262.597 183.844 262.854 183.768C263.111 183.691 263.345 183.578 263.555 183.427C263.768 183.274 263.949 183.087 264.096 182.866C264.247 182.642 264.352 182.385 264.412 182.095H265.428C265.352 182.524 265.213 182.908 265.01 183.247C264.808 183.586 264.557 183.874 264.256 184.112C263.955 184.347 263.618 184.526 263.244 184.649C262.872 184.772 262.474 184.834 262.051 184.834C261.335 184.834 260.698 184.659 260.14 184.309C259.583 183.959 259.144 183.462 258.825 182.817C258.505 182.172 258.345 181.407 258.345 180.521C258.345 179.636 258.505 178.87 258.825 178.225C259.144 177.581 259.583 177.083 260.14 176.733C260.698 176.384 261.335 176.209 262.051 176.209C262.474 176.209 262.872 176.27 263.244 176.393C263.618 176.516 263.955 176.696 264.256 176.934C264.557 177.169 264.808 177.456 265.01 177.795C265.213 178.131 265.352 178.515 265.428 178.947ZM267.071 176.323H268.285L271.138 183.292H271.236L274.089 176.323H275.303V184.719H274.352V178.34H274.27L271.646 184.719H270.728L268.104 178.34H268.022V184.719H267.071V176.323ZM276.62 176.323H277.784L280.112 180.242H280.21L282.539 176.323H283.703L280.67 181.259V184.719H279.653V181.259L276.62 176.323ZM285.018 184.719V176.323H286.035V180.488H286.133L289.904 176.323H291.232L287.707 180.111L291.232 184.719H290.003L287.084 180.816L286.035 181.997V184.719H285.018ZM296.369 183.645C296.167 183.645 295.993 183.572 295.848 183.427C295.703 183.283 295.631 183.109 295.631 182.907C295.631 182.705 295.703 182.531 295.848 182.386C295.993 182.241 296.167 182.169 296.369 182.169C296.571 182.169 296.745 182.241 296.889 182.386C297.034 182.531 297.107 182.705 297.107 182.907C297.107 183.041 297.073 183.164 297.004 183.276C296.939 183.388 296.85 183.478 296.738 183.546C296.628 183.612 296.505 183.645 296.369 183.645ZM296.369 179.398C296.167 179.398 295.993 179.325 295.848 179.181C295.703 179.036 295.631 178.862 295.631 178.66C295.631 178.458 295.703 178.284 295.848 178.139C295.993 177.995 296.167 177.922 296.369 177.922C296.571 177.922 296.745 177.995 296.889 178.139C297.034 178.284 297.107 178.458 297.107 178.66C297.107 178.794 297.073 178.917 297.004 179.029C296.939 179.141 296.85 179.231 296.738 179.3C296.628 179.365 296.505 179.398 296.369 179.398ZM305.024 176.323V184.719H304.008V177.389H303.959L301.909 178.75V177.717L304.008 176.323H305.024ZM310.177 184.834C309.56 184.834 309.034 184.665 308.599 184.329C308.164 183.99 307.832 183.5 307.603 182.858C307.373 182.213 307.259 181.434 307.259 180.521C307.259 179.614 307.373 178.839 307.603 178.197C307.835 177.552 308.169 177.06 308.603 176.721C309.04 176.379 309.565 176.209 310.177 176.209C310.789 176.209 311.313 176.379 311.747 176.721C312.185 177.06 312.518 177.552 312.747 178.197C312.98 178.839 313.096 179.614 313.096 180.521C313.096 181.434 312.981 182.213 312.752 182.858C312.522 183.5 312.19 183.99 311.755 184.329C311.321 184.665 310.795 184.834 310.177 184.834ZM310.177 183.932C310.789 183.932 311.265 183.637 311.604 183.046C311.943 182.456 312.112 181.614 312.112 180.521C312.112 179.794 312.034 179.175 311.878 178.664C311.725 178.153 311.504 177.764 311.214 177.496C310.927 177.228 310.582 177.094 310.177 177.094C309.571 177.094 309.096 177.393 308.755 177.992C308.413 178.588 308.242 179.431 308.242 180.521C308.242 181.248 308.319 181.866 308.472 182.374C308.625 182.882 308.845 183.269 309.132 183.534C309.422 183.799 309.77 183.932 310.177 183.932ZM317.392 184.834C316.774 184.834 316.248 184.665 315.814 184.329C315.379 183.99 315.047 183.5 314.818 182.858C314.588 182.213 314.473 181.434 314.473 180.521C314.473 179.614 314.588 178.839 314.818 178.197C315.05 177.552 315.383 177.06 315.818 176.721C316.255 176.379 316.78 176.209 317.392 176.209C318.004 176.209 318.527 176.379 318.962 176.721C319.399 177.06 319.733 177.552 319.962 178.197C320.195 178.839 320.311 179.614 320.311 180.521C320.311 181.434 320.196 182.213 319.966 182.858C319.737 183.5 319.405 183.99 318.97 184.329C318.536 184.665 318.01 184.834 317.392 184.834ZM317.392 183.932C318.004 183.932 318.48 183.637 318.819 183.046C319.157 182.456 319.327 181.614 319.327 180.521C319.327 179.794 319.249 179.175 319.093 178.664C318.94 178.153 318.719 177.764 318.429 177.496C318.142 177.228 317.796 177.094 317.392 177.094C316.785 177.094 316.311 177.393 315.97 177.992C315.628 178.588 315.457 179.431 315.457 180.521C315.457 181.248 315.534 181.866 315.687 182.374C315.84 182.882 316.06 183.269 316.347 183.534C316.636 183.799 316.985 183.932 317.392 183.932ZM326.574 183.571L326.509 184.014C326.462 184.325 326.391 184.659 326.296 185.014C326.203 185.369 326.106 185.704 326.005 186.018C325.903 186.332 325.82 186.583 325.754 186.768H325.017C325.052 186.593 325.099 186.363 325.156 186.076C325.213 185.789 325.271 185.468 325.328 185.112C325.388 184.76 325.437 184.399 325.476 184.03L325.525 183.571H326.574ZM330.944 176.209C331.289 176.211 331.633 176.277 331.977 176.405C332.322 176.534 332.636 176.747 332.92 177.045C333.204 177.34 333.432 177.743 333.605 178.254C333.777 178.765 333.863 179.406 333.863 180.177C333.863 180.923 333.792 181.586 333.65 182.165C333.51 182.742 333.308 183.228 333.043 183.624C332.781 184.021 332.461 184.321 332.084 184.526C331.709 184.731 331.286 184.834 330.813 184.834C330.343 184.834 329.923 184.741 329.555 184.555C329.188 184.366 328.888 184.105 328.653 183.772C328.42 183.436 328.271 183.046 328.206 182.604H329.206C329.296 182.989 329.475 183.307 329.743 183.559C330.014 183.807 330.37 183.932 330.813 183.932C331.461 183.932 331.972 183.649 332.346 183.083C332.723 182.517 332.912 181.718 332.912 180.685H332.846C332.693 180.915 332.511 181.113 332.301 181.279C332.091 181.446 331.857 181.575 331.6 181.665C331.343 181.755 331.07 181.8 330.78 181.8C330.299 181.8 329.858 181.681 329.456 181.443C329.057 181.203 328.737 180.874 328.497 180.456C328.259 180.035 328.14 179.554 328.14 179.013C328.14 178.499 328.255 178.029 328.485 177.602C328.717 177.173 329.042 176.832 329.46 176.578C329.881 176.323 330.376 176.2 330.944 176.209ZM330.944 177.11C330.6 177.11 330.29 177.197 330.014 177.369C329.74 177.538 329.523 177.768 329.362 178.057C329.203 178.344 329.124 178.663 329.124 179.013C329.124 179.362 329.201 179.681 329.354 179.968C329.509 180.252 329.721 180.479 329.989 180.648C330.26 180.815 330.567 180.898 330.911 180.898C331.171 180.898 331.413 180.848 331.637 180.747C331.861 180.643 332.056 180.502 332.223 180.324C332.393 180.144 332.525 179.94 332.621 179.714C332.716 179.484 332.764 179.245 332.764 178.996C332.764 178.668 332.685 178.361 332.527 178.074C332.371 177.787 332.155 177.555 331.879 177.377C331.606 177.199 331.294 177.11 330.944 177.11ZM335.278 182.997V182.161L338.967 176.323H339.574V177.619H339.164L336.377 182.03V182.095H341.345V182.997H335.278ZM339.23 184.719V182.743V182.353V176.323H340.197V184.719H339.23ZM347.587 183.571L347.522 184.014C347.475 184.325 347.404 184.659 347.308 185.014C347.216 185.369 347.119 185.704 347.017 186.018C346.916 186.332 346.833 186.583 346.767 186.768H346.03C346.065 186.593 346.112 186.363 346.169 186.076C346.226 185.789 346.284 185.468 346.341 185.112C346.401 184.76 346.45 184.399 346.489 184.03L346.538 183.571H347.587ZM349.363 184.719V183.981L352.134 180.947C352.46 180.592 352.727 180.283 352.938 180.021C353.148 179.756 353.304 179.507 353.405 179.275C353.509 179.04 353.561 178.794 353.561 178.537C353.561 178.242 353.49 177.986 353.348 177.77C353.208 177.555 353.017 177.388 352.774 177.27C352.531 177.153 352.257 177.094 351.954 177.094C351.632 177.094 351.35 177.161 351.11 177.295C350.872 177.426 350.687 177.611 350.556 177.848C350.428 178.086 350.363 178.365 350.363 178.685H349.396C349.396 178.193 349.509 177.761 349.736 177.389C349.963 177.018 350.272 176.728 350.663 176.52C351.056 176.312 351.498 176.209 351.987 176.209C352.479 176.209 352.915 176.312 353.294 176.52C353.674 176.728 353.972 177.008 354.188 177.361C354.404 177.713 354.512 178.105 354.512 178.537C354.512 178.846 354.456 179.148 354.344 179.443C354.235 179.735 354.043 180.062 353.77 180.423C353.499 180.781 353.124 181.218 352.643 181.734L350.757 183.751V183.817H354.66V184.719H349.363ZM359.14 184.834C358.796 184.828 358.451 184.762 358.107 184.637C357.763 184.511 357.448 184.299 357.164 184.001C356.88 183.701 356.652 183.295 356.48 182.784C356.307 182.27 356.221 181.625 356.221 180.849C356.221 180.106 356.291 179.447 356.43 178.873C356.57 178.297 356.772 177.811 357.037 177.418C357.302 177.022 357.622 176.721 357.996 176.516C358.373 176.311 358.798 176.209 359.271 176.209C359.741 176.209 360.159 176.303 360.526 176.491C360.895 176.677 361.195 176.937 361.427 177.27C361.66 177.604 361.81 177.988 361.878 178.422H360.878C360.785 178.045 360.605 177.732 360.337 177.484C360.069 177.235 359.714 177.11 359.271 177.11C358.621 177.11 358.108 177.393 357.734 177.959C357.362 178.525 357.175 179.319 357.172 180.341H357.238C357.391 180.108 357.573 179.91 357.783 179.746C357.996 179.58 358.231 179.451 358.488 179.361C358.745 179.271 359.017 179.226 359.304 179.226C359.785 179.226 360.225 179.346 360.624 179.586C361.023 179.824 361.343 180.154 361.583 180.574C361.824 180.993 361.944 181.472 361.944 182.013C361.944 182.532 361.828 183.008 361.596 183.44C361.363 183.869 361.037 184.21 360.616 184.465C360.198 184.716 359.706 184.839 359.14 184.834ZM359.14 183.932C359.484 183.932 359.793 183.846 360.066 183.673C360.343 183.501 360.56 183.27 360.718 182.981C360.88 182.691 360.96 182.368 360.96 182.013C360.96 181.666 360.882 181.351 360.726 181.066C360.573 180.779 360.362 180.551 360.091 180.382C359.823 180.212 359.517 180.128 359.173 180.128C358.913 180.128 358.671 180.179 358.447 180.283C358.223 180.384 358.026 180.524 357.857 180.701C357.69 180.879 357.559 181.083 357.463 181.312C357.368 181.539 357.32 181.778 357.32 182.03C357.32 182.363 357.398 182.675 357.554 182.964C357.712 183.254 357.928 183.488 358.201 183.665C358.477 183.843 358.79 183.932 359.14 183.932ZM368.262 183.571L368.196 184.014C368.15 184.325 368.079 184.659 367.983 185.014C367.89 185.369 367.793 185.704 367.692 186.018C367.591 186.332 367.508 186.583 367.442 186.768H366.704C366.74 186.593 366.786 186.363 366.844 186.076C366.901 185.789 366.958 185.468 367.016 185.112C367.076 184.76 367.125 184.399 367.163 184.03L367.213 183.571H368.262ZM371.986 176.323V184.719H370.97V177.389H370.92L368.871 178.75V177.717L370.97 176.323H371.986ZM374.204 182.997V182.161L377.893 176.323H378.5V177.619H378.09L375.302 182.03V182.095H380.271V182.997H374.204ZM378.156 184.719V182.743V182.353V176.323H379.123V184.719H378.156Z" fill="#959BA3"/>
</g>
</g>
<g filter="url(#filter2_dd_814_9469)">
<g clip-path="url(#clip2_814_9469)">
<rect x="413" y="50.0625" width="145" height="150.311" rx="7.10373" fill="white"/>
<mask id="path-10-inside-1_814_9469" fill="white">
<path d="M413 50.0625H562V121.062H413V50.0625Z"/>
</mask>
<path d="M413 50.0625H562V121.062H413V50.0625Z" fill="white"/>
<path d="M562 120.062H413V122.062H562V120.062Z" fill="#E3E3E3" mask="url(#path-10-inside-1_814_9469)"/>
<path d="M428.247 147.89C427.45 147.887 426.769 147.677 426.204 147.26C425.639 146.843 425.207 146.235 424.907 145.438C424.608 144.641 424.458 143.681 424.458 142.557C424.458 141.437 424.608 140.48 424.907 139.687C425.21 138.893 425.644 138.287 426.209 137.87C426.778 137.453 427.457 137.245 428.247 137.245C429.038 137.245 429.716 137.455 430.281 137.875C430.846 138.293 431.278 138.898 431.577 139.692C431.88 140.482 432.031 141.437 432.031 142.557C432.031 143.684 431.882 144.646 431.582 145.443C431.283 146.237 430.851 146.844 430.286 147.265C429.721 147.682 429.041 147.89 428.247 147.89ZM428.247 146.543C428.947 146.543 429.494 146.202 429.887 145.519C430.284 144.836 430.482 143.849 430.482 142.557C430.482 141.7 430.392 140.975 430.21 140.383C430.032 139.788 429.774 139.337 429.438 139.031C429.105 138.721 428.708 138.567 428.247 138.567C427.551 138.567 427.005 138.91 426.608 139.596C426.211 140.282 426.011 141.269 426.007 142.557C426.007 143.419 426.096 144.147 426.275 144.742C426.456 145.334 426.714 145.783 427.047 146.089C427.38 146.392 427.78 146.543 428.247 146.543ZM437.418 147.89C436.621 147.887 435.94 147.677 435.375 147.26C434.81 146.843 434.378 146.235 434.079 145.438C433.779 144.641 433.629 143.681 433.629 142.557C433.629 141.437 433.779 140.48 434.079 139.687C434.381 138.893 434.815 138.287 435.38 137.87C435.949 137.453 436.628 137.245 437.418 137.245C438.209 137.245 438.887 137.455 439.452 137.875C440.017 138.293 440.449 138.898 440.748 139.692C441.051 140.482 441.202 141.437 441.202 142.557C441.202 143.684 441.053 144.646 440.753 145.443C440.454 146.237 440.022 146.844 439.457 147.265C438.892 147.682 438.212 147.89 437.418 147.89ZM437.418 146.543C438.118 146.543 438.665 146.202 439.058 145.519C439.455 144.836 439.654 143.849 439.654 142.557C439.654 141.7 439.563 140.975 439.381 140.383C439.203 139.788 438.946 139.337 438.609 139.031C438.276 138.721 437.879 138.567 437.418 138.567C436.722 138.567 436.176 138.91 435.779 139.596C435.382 140.282 435.182 141.269 435.178 142.557C435.178 143.419 435.268 144.147 435.446 144.742C435.627 145.334 435.885 145.783 436.218 146.089C436.551 146.392 436.951 146.543 437.418 146.543Z" fill="#1F243D"/>
<path d="M424.673 166.719V158.323H425.689V162.062H430.166V158.323H431.183V166.719H430.166V162.964H425.689V166.719H424.673ZM435.727 166.85C435.12 166.85 434.597 166.716 434.157 166.448C433.719 166.178 433.382 165.801 433.144 165.317C432.909 164.83 432.791 164.265 432.791 163.62C432.791 162.975 432.909 162.406 433.144 161.914C433.382 161.42 433.712 161.034 434.136 160.758C434.562 160.48 435.06 160.34 435.628 160.34C435.956 160.34 436.28 160.395 436.6 160.504C436.919 160.614 437.211 160.791 437.473 161.037C437.735 161.28 437.944 161.603 438.1 162.005C438.256 162.406 438.334 162.901 438.334 163.489V163.898H433.48V163.062H437.35C437.35 162.707 437.279 162.39 437.137 162.111C436.997 161.832 436.798 161.612 436.538 161.451C436.281 161.29 435.978 161.209 435.628 161.209C435.243 161.209 434.909 161.305 434.628 161.496C434.349 161.685 434.135 161.931 433.984 162.234C433.834 162.537 433.759 162.863 433.759 163.21V163.767C433.759 164.243 433.841 164.646 434.005 164.977C434.172 165.304 434.403 165.555 434.698 165.727C434.993 165.896 435.336 165.981 435.727 165.981C435.981 165.981 436.21 165.945 436.415 165.874C436.623 165.801 436.802 165.691 436.952 165.546C437.103 165.399 437.219 165.216 437.301 164.997L438.235 165.259C438.137 165.576 437.972 165.855 437.739 166.096C437.507 166.333 437.22 166.519 436.878 166.653C436.537 166.784 436.153 166.85 435.727 166.85ZM440.358 160.422L441.866 162.997L443.375 160.422H444.49L442.457 163.571L444.49 166.719H443.375L441.866 164.276L440.358 166.719H439.243L441.243 163.571L439.243 160.422H440.358ZM449.822 166.784C449.62 166.784 449.446 166.712 449.301 166.567C449.156 166.422 449.084 166.249 449.084 166.046C449.084 165.844 449.156 165.671 449.301 165.526C449.446 165.381 449.62 165.309 449.822 165.309C450.024 165.309 450.198 165.381 450.343 165.526C450.487 165.671 450.56 165.844 450.56 166.046C450.56 166.18 450.526 166.303 450.457 166.415C450.392 166.527 450.303 166.618 450.191 166.686C450.082 166.752 449.959 166.784 449.822 166.784ZM449.822 162.111C449.62 162.111 449.446 162.039 449.301 161.894C449.156 161.749 449.084 161.576 449.084 161.373C449.084 161.171 449.156 160.998 449.301 160.853C449.446 160.708 449.62 160.635 449.822 160.635C450.024 160.635 450.198 160.708 450.343 160.853C450.487 160.998 450.56 161.171 450.56 161.373C450.56 161.507 450.526 161.63 450.457 161.742C450.392 161.854 450.303 161.944 450.191 162.013C450.082 162.078 449.959 162.111 449.822 162.111ZM458.674 166.719L460.052 158.323H460.872L459.494 166.719H458.674ZM454.854 164.39L454.985 163.571H461.249L461.118 164.39H454.854ZM455.723 166.719L457.1 158.323H457.92L456.543 166.719H455.723ZM455.346 161.472L455.477 160.652H461.741L461.609 161.472H455.346ZM462.956 166.719V158.323H467.99V159.225H463.973V162.062H467.613V162.964H463.973V166.719H462.956ZM469.731 166.719V158.323H474.765V159.225H470.748V162.062H474.388V162.964H470.748V166.719H469.731ZM476.506 166.719V158.323H481.54V159.225H477.523V162.062H481.163V162.964H477.523V166.719H476.506ZM483.281 166.719V158.323H488.315V159.225H484.298V162.062H487.938V162.964H484.298V166.719H483.281ZM490.056 166.719V158.323H495.09V159.225H491.073V162.062H494.713V162.964H491.073V166.719H490.056ZM496.831 166.719V158.323H501.865V159.225H497.848V162.062H501.488V162.964H497.848V166.719H496.831Z" fill="#959BA3"/>
<path d="M431.428 178.947H430.412C430.352 178.655 430.247 178.398 430.096 178.176C429.949 177.955 429.768 177.769 429.555 177.619C429.345 177.466 429.111 177.351 428.854 177.274C428.597 177.198 428.329 177.16 428.051 177.16C427.542 177.16 427.082 177.288 426.669 177.545C426.259 177.802 425.933 178.18 425.689 178.681C425.449 179.181 425.329 179.794 425.329 180.521C425.329 181.248 425.449 181.862 425.689 182.362C425.933 182.862 426.259 183.24 426.669 183.497C427.082 183.754 427.542 183.882 428.051 183.882C428.329 183.882 428.597 183.844 428.854 183.768C429.111 183.691 429.345 183.578 429.555 183.427C429.768 183.274 429.949 183.087 430.096 182.866C430.247 182.642 430.352 182.385 430.412 182.095H431.428C431.352 182.524 431.213 182.908 431.01 183.247C430.808 183.586 430.557 183.874 430.256 184.112C429.955 184.347 429.618 184.526 429.244 184.649C428.872 184.772 428.474 184.834 428.051 184.834C427.335 184.834 426.698 184.659 426.14 184.309C425.583 183.959 425.144 183.462 424.825 182.817C424.505 182.172 424.345 181.407 424.345 180.521C424.345 179.636 424.505 178.87 424.825 178.225C425.144 177.581 425.583 177.083 426.14 176.733C426.698 176.384 427.335 176.209 428.051 176.209C428.474 176.209 428.872 176.27 429.244 176.393C429.618 176.516 429.955 176.696 430.256 176.934C430.557 177.169 430.808 177.456 431.01 177.795C431.213 178.131 431.352 178.515 431.428 178.947ZM433.071 176.323H434.285L437.138 183.292H437.236L440.089 176.323H441.303V184.719H440.352V178.34H440.27L437.646 184.719H436.728L434.104 178.34H434.022V184.719H433.071V176.323ZM442.62 176.323H443.784L446.112 180.242H446.21L448.539 176.323H449.703L446.67 181.259V184.719H445.653V181.259L442.62 176.323ZM451.018 184.719V176.323H452.035V180.488H452.133L455.904 176.323H457.232L453.707 180.111L457.232 184.719H456.003L453.084 180.816L452.035 181.997V184.719H451.018ZM462.369 183.645C462.167 183.645 461.993 183.572 461.848 183.427C461.703 183.283 461.631 183.109 461.631 182.907C461.631 182.705 461.703 182.531 461.848 182.386C461.993 182.241 462.167 182.169 462.369 182.169C462.571 182.169 462.745 182.241 462.889 182.386C463.034 182.531 463.107 182.705 463.107 182.907C463.107 183.041 463.073 183.164 463.004 183.276C462.939 183.388 462.85 183.478 462.738 183.546C462.628 183.612 462.505 183.645 462.369 183.645ZM462.369 179.398C462.167 179.398 461.993 179.325 461.848 179.181C461.703 179.036 461.631 178.862 461.631 178.66C461.631 178.458 461.703 178.284 461.848 178.139C461.993 177.995 462.167 177.922 462.369 177.922C462.571 177.922 462.745 177.995 462.889 178.139C463.034 178.284 463.107 178.458 463.107 178.66C463.107 178.794 463.073 178.917 463.004 179.029C462.939 179.141 462.85 179.231 462.738 179.3C462.628 179.365 462.505 179.398 462.369 179.398ZM470.811 184.834C470.194 184.834 469.668 184.665 469.233 184.329C468.799 183.99 468.466 183.5 468.237 182.858C468.007 182.213 467.893 181.434 467.893 180.521C467.893 179.614 468.007 178.839 468.237 178.197C468.469 177.552 468.803 177.06 469.237 176.721C469.674 176.379 470.199 176.209 470.811 176.209C471.423 176.209 471.947 176.379 472.381 176.721C472.819 177.06 473.152 177.552 473.382 178.197C473.614 178.839 473.73 179.614 473.73 180.521C473.73 181.434 473.615 182.213 473.386 182.858C473.156 183.5 472.824 183.99 472.39 184.329C471.955 184.665 471.429 184.834 470.811 184.834ZM470.811 183.932C471.423 183.932 471.899 183.637 472.238 183.046C472.577 182.456 472.746 181.614 472.746 180.521C472.746 179.794 472.668 179.175 472.512 178.664C472.359 178.153 472.138 177.764 471.848 177.496C471.561 177.228 471.216 177.094 470.811 177.094C470.205 177.094 469.73 177.393 469.389 177.992C469.047 178.588 468.876 179.431 468.876 180.521C468.876 181.248 468.953 181.866 469.106 182.374C469.259 182.882 469.479 183.269 469.766 183.534C470.056 183.799 470.404 183.932 470.811 183.932ZM479.994 183.571L479.928 184.014C479.882 184.325 479.811 184.659 479.715 185.014C479.622 185.369 479.525 185.704 479.424 186.018C479.323 186.332 479.239 186.583 479.174 186.768H478.436C478.471 186.593 478.518 186.363 478.575 186.076C478.633 185.789 478.69 185.468 478.747 185.112C478.808 184.76 478.857 184.399 478.895 184.03L478.944 183.571H479.994ZM484.215 184.834C483.597 184.834 483.071 184.665 482.637 184.329C482.202 183.99 481.87 183.5 481.641 182.858C481.411 182.213 481.296 181.434 481.296 180.521C481.296 179.614 481.411 178.839 481.641 178.197C481.873 177.552 482.206 177.06 482.641 176.721C483.078 176.379 483.603 176.209 484.215 176.209C484.827 176.209 485.35 176.379 485.785 176.721C486.222 177.06 486.556 177.552 486.785 178.197C487.017 178.839 487.134 179.614 487.134 180.521C487.134 181.434 487.019 182.213 486.789 182.858C486.56 183.5 486.228 183.99 485.793 184.329C485.359 184.665 484.833 184.834 484.215 184.834ZM484.215 183.932C484.827 183.932 485.303 183.637 485.641 183.046C485.98 182.456 486.15 181.614 486.15 180.521C486.15 179.794 486.072 179.175 485.916 178.664C485.763 178.153 485.542 177.764 485.252 177.496C484.965 177.228 484.619 177.094 484.215 177.094C483.608 177.094 483.134 177.393 482.792 177.992C482.451 178.588 482.28 179.431 482.28 180.521C482.28 181.248 482.357 181.866 482.51 182.374C482.663 182.882 482.883 183.269 483.17 183.534C483.459 183.799 483.808 183.932 484.215 183.932ZM493.397 183.571L493.332 184.014C493.285 184.325 493.214 184.659 493.119 185.014C493.026 185.369 492.929 185.704 492.827 186.018C492.726 186.332 492.643 186.583 492.577 186.768H491.84C491.875 186.593 491.922 186.363 491.979 186.076C492.036 185.789 492.094 185.468 492.151 185.112C492.211 184.76 492.26 184.399 492.299 184.03L492.348 183.571H493.397ZM497.619 184.834C497.001 184.834 496.475 184.665 496.04 184.329C495.606 183.99 495.274 183.5 495.044 182.858C494.815 182.213 494.7 181.434 494.7 180.521C494.7 179.614 494.815 178.839 495.044 178.197C495.276 177.552 495.61 177.06 496.044 176.721C496.482 176.379 497.006 176.209 497.619 176.209C498.231 176.209 498.754 176.379 499.189 176.721C499.626 177.06 499.959 177.552 500.189 178.197C500.421 178.839 500.537 179.614 500.537 180.521C500.537 181.434 500.422 182.213 500.193 182.858C499.963 183.5 499.631 183.99 499.197 184.329C498.762 184.665 498.236 184.834 497.619 184.834ZM497.619 183.932C498.231 183.932 498.706 183.637 499.045 183.046C499.384 182.456 499.553 181.614 499.553 180.521C499.553 179.794 499.475 179.175 499.32 178.664C499.167 178.153 498.945 177.764 498.656 177.496C498.369 177.228 498.023 177.094 497.619 177.094C497.012 177.094 496.538 177.393 496.196 177.992C495.854 178.588 495.684 179.431 495.684 180.521C495.684 181.248 495.76 181.866 495.913 182.374C496.066 182.882 496.286 183.269 496.573 183.534C496.863 183.799 497.211 183.932 497.619 183.932ZM506.801 183.571L506.735 184.014C506.689 184.325 506.618 184.659 506.522 185.014C506.429 185.369 506.332 185.704 506.231 186.018C506.13 186.332 506.047 186.583 505.981 186.768H505.243C505.279 186.593 505.325 186.363 505.383 186.076C505.44 185.789 505.497 185.468 505.555 185.112C505.615 184.76 505.664 184.399 505.702 184.03L505.751 183.571H506.801ZM511.022 184.834C510.405 184.834 509.878 184.665 509.444 184.329C509.009 183.99 508.677 183.5 508.448 182.858C508.218 182.213 508.103 181.434 508.103 180.521C508.103 179.614 508.218 178.839 508.448 178.197C508.68 177.552 509.013 177.06 509.448 176.721C509.885 176.379 510.41 176.209 511.022 176.209C511.634 176.209 512.158 176.379 512.592 176.721C513.029 177.06 513.363 177.552 513.592 178.197C513.825 178.839 513.941 179.614 513.941 180.521C513.941 181.434 513.826 182.213 513.596 182.858C513.367 183.5 513.035 183.99 512.6 184.329C512.166 184.665 511.64 184.834 511.022 184.834ZM511.022 183.932C511.634 183.932 512.11 183.637 512.449 183.046C512.788 182.456 512.957 181.614 512.957 180.521C512.957 179.794 512.879 179.175 512.723 178.664C512.57 178.153 512.349 177.764 512.059 177.496C511.772 177.228 511.427 177.094 511.022 177.094C510.415 177.094 509.941 177.393 509.6 177.992C509.258 178.588 509.087 179.431 509.087 180.521C509.087 181.248 509.164 181.866 509.317 182.374C509.47 182.882 509.69 183.269 509.977 183.534C510.266 183.799 510.615 183.932 511.022 183.932Z" fill="#959BA3"/>
</g>
</g>
<g filter="url(#filter3_dd_814_9469)">
<g clip-path="url(#clip3_814_9469)">
<rect x="579" y="50.0625" width="145" height="150.311" rx="7.10373" fill="white"/>
<rect width="73" height="71" transform="translate(579 50.0625)" fill="#1F243D"/>
<rect width="73" height="71" transform="translate(651 50.0625)" fill="#1F243D"/>
<path d="M594.247 147.89C593.45 147.887 592.769 147.677 592.204 147.26C591.639 146.843 591.207 146.235 590.907 145.438C590.608 144.641 590.458 143.681 590.458 142.557C590.458 141.437 590.608 140.48 590.907 139.687C591.21 138.893 591.644 138.287 592.209 137.87C592.778 137.453 593.457 137.245 594.247 137.245C595.038 137.245 595.716 137.455 596.281 137.875C596.846 138.293 597.278 138.898 597.577 139.692C597.88 140.482 598.031 141.437 598.031 142.557C598.031 143.684 597.882 144.646 597.582 145.443C597.283 146.237 596.851 146.844 596.286 147.265C595.721 147.682 595.041 147.89 594.247 147.89ZM594.247 146.543C594.947 146.543 595.494 146.202 595.887 145.519C596.284 144.836 596.482 143.849 596.482 142.557C596.482 141.7 596.392 140.975 596.21 140.383C596.032 139.788 595.774 139.337 595.438 139.031C595.105 138.721 594.708 138.567 594.247 138.567C593.551 138.567 593.005 138.91 592.608 139.596C592.211 140.282 592.011 141.269 592.007 142.557C592.007 143.419 592.096 144.147 592.275 144.742C592.456 145.334 592.714 145.783 593.047 146.089C593.38 146.392 593.78 146.543 594.247 146.543ZM603.418 147.89C602.621 147.887 601.94 147.677 601.375 147.26C600.81 146.843 600.378 146.235 600.079 145.438C599.779 144.641 599.629 143.681 599.629 142.557C599.629 141.437 599.779 140.48 600.079 139.687C600.381 138.893 600.815 138.287 601.38 137.87C601.949 137.453 602.628 137.245 603.418 137.245C604.209 137.245 604.887 137.455 605.452 137.875C606.017 138.293 606.449 138.898 606.748 139.692C607.051 140.482 607.202 141.437 607.202 142.557C607.202 143.684 607.053 144.646 606.753 145.443C606.454 146.237 606.022 146.844 605.457 147.265C604.892 147.682 604.212 147.89 603.418 147.89ZM603.418 146.543C604.118 146.543 604.665 146.202 605.058 145.519C605.455 144.836 605.654 143.849 605.654 142.557C605.654 141.7 605.563 140.975 605.381 140.383C605.203 139.788 604.946 139.337 604.609 139.031C604.276 138.721 603.879 138.567 603.418 138.567C602.722 138.567 602.176 138.91 601.779 139.596C601.382 140.282 601.182 141.269 601.178 142.557C601.178 143.419 601.268 144.147 601.446 144.742C601.627 145.334 601.885 145.783 602.218 146.089C602.551 146.392 602.951 146.543 603.418 146.543Z" fill="#1F243D"/>
<path d="M590.673 166.719V158.323H591.689V162.062H596.166V158.323H597.183V166.719H596.166V162.964H591.689V166.719H590.673ZM601.727 166.85C601.12 166.85 600.597 166.716 600.157 166.448C599.719 166.178 599.382 165.801 599.144 165.317C598.909 164.83 598.791 164.265 598.791 163.62C598.791 162.975 598.909 162.406 599.144 161.914C599.382 161.42 599.712 161.034 600.136 160.758C600.562 160.48 601.06 160.34 601.628 160.34C601.956 160.34 602.28 160.395 602.6 160.504C602.919 160.614 603.211 160.791 603.473 161.037C603.735 161.28 603.944 161.603 604.1 162.005C604.256 162.406 604.334 162.901 604.334 163.489V163.898H599.48V163.062H603.35C603.35 162.707 603.279 162.39 603.137 162.111C602.997 161.832 602.798 161.612 602.538 161.451C602.281 161.29 601.978 161.209 601.628 161.209C601.243 161.209 600.909 161.305 600.628 161.496C600.349 161.685 600.135 161.931 599.984 162.234C599.834 162.537 599.759 162.863 599.759 163.21V163.767C599.759 164.243 599.841 164.646 600.005 164.977C600.172 165.304 600.403 165.555 600.698 165.727C600.993 165.896 601.336 165.981 601.727 165.981C601.981 165.981 602.21 165.945 602.415 165.874C602.623 165.801 602.802 165.691 602.952 165.546C603.103 165.399 603.219 165.216 603.301 164.997L604.235 165.259C604.137 165.576 603.972 165.855 603.739 166.096C603.507 166.333 603.22 166.519 602.878 166.653C602.537 166.784 602.153 166.85 601.727 166.85ZM606.358 160.422L607.866 162.997L609.375 160.422H610.49L608.457 163.571L610.49 166.719H609.375L607.866 164.276L606.358 166.719H605.243L607.243 163.571L605.243 160.422H606.358ZM615.822 166.784C615.62 166.784 615.446 166.712 615.301 166.567C615.156 166.422 615.084 166.249 615.084 166.046C615.084 165.844 615.156 165.671 615.301 165.526C615.446 165.381 615.62 165.309 615.822 165.309C616.024 165.309 616.198 165.381 616.343 165.526C616.487 165.671 616.56 165.844 616.56 166.046C616.56 166.18 616.526 166.303 616.457 166.415C616.392 166.527 616.303 166.618 616.191 166.686C616.082 166.752 615.959 166.784 615.822 166.784ZM615.822 162.111C615.62 162.111 615.446 162.039 615.301 161.894C615.156 161.749 615.084 161.576 615.084 161.373C615.084 161.171 615.156 160.998 615.301 160.853C615.446 160.708 615.62 160.635 615.822 160.635C616.024 160.635 616.198 160.708 616.343 160.853C616.487 160.998 616.56 161.171 616.56 161.373C616.56 161.507 616.526 161.63 616.457 161.742C616.392 161.854 616.303 161.944 616.191 162.013C616.082 162.078 615.959 162.111 615.822 162.111ZM624.674 166.719L626.052 158.323H626.872L625.494 166.719H624.674ZM620.854 164.39L620.985 163.571H627.249L627.118 164.39H620.854ZM621.723 166.719L623.1 158.323H623.92L622.543 166.719H621.723ZM621.346 161.472L621.477 160.652H627.741L627.609 161.472H621.346ZM631.76 158.323V166.719H630.743V159.389H630.694L628.644 160.75V159.717L630.743 158.323H631.76ZM634.322 166.719V158.323H639.356V159.225H635.339V162.062H638.979V162.964H635.339V166.719H634.322ZM640.949 166.719V165.981L643.721 162.947C644.046 162.592 644.314 162.283 644.524 162.021C644.734 161.756 644.89 161.507 644.991 161.275C645.095 161.04 645.147 160.794 645.147 160.537C645.147 160.242 645.076 159.986 644.934 159.77C644.795 159.555 644.603 159.388 644.36 159.27C644.117 159.153 643.844 159.094 643.54 159.094C643.218 159.094 642.936 159.161 642.696 159.295C642.458 159.426 642.274 159.611 642.142 159.848C642.014 160.086 641.95 160.365 641.95 160.685H640.982C640.982 160.193 641.096 159.761 641.323 159.389C641.549 159.018 641.858 158.728 642.249 158.52C642.643 158.312 643.084 158.209 643.573 158.209C644.065 158.209 644.501 158.312 644.881 158.52C645.261 158.728 645.558 159.008 645.774 159.361C645.99 159.713 646.098 160.105 646.098 160.537C646.098 160.846 646.042 161.148 645.93 161.443C645.821 161.735 645.63 162.062 645.356 162.423C645.086 162.781 644.71 163.218 644.229 163.734L642.343 165.751V165.817H646.246V166.719H640.949ZM647.562 164.997V164.161L651.251 158.323H651.858V159.619H651.448L648.66 164.03V164.095H653.629V164.997H647.562ZM651.513 166.719V164.743V164.353V158.323H652.481V166.719H651.513ZM658.001 166.834C657.46 166.834 656.978 166.741 656.554 166.555C656.134 166.369 655.799 166.111 655.55 165.78C655.304 165.447 655.17 165.06 655.148 164.62H656.181C656.203 164.89 656.296 165.124 656.46 165.321C656.624 165.515 656.839 165.665 657.104 165.772C657.369 165.878 657.663 165.932 657.985 165.932C658.346 165.932 658.666 165.869 658.944 165.743C659.223 165.617 659.442 165.443 659.6 165.218C659.759 164.994 659.838 164.735 659.838 164.44C659.838 164.131 659.761 163.859 659.608 163.624C659.455 163.386 659.231 163.2 658.936 163.066C658.641 162.932 658.28 162.865 657.854 162.865H657.182V161.964H657.854C658.187 161.964 658.48 161.903 658.731 161.783C658.985 161.663 659.183 161.494 659.326 161.275C659.47 161.056 659.543 160.799 659.543 160.504C659.543 160.22 659.48 159.973 659.354 159.762C659.229 159.552 659.051 159.388 658.821 159.27C658.594 159.153 658.327 159.094 658.018 159.094C657.728 159.094 657.455 159.147 657.198 159.254C656.944 159.358 656.736 159.509 656.575 159.709C656.414 159.906 656.326 160.144 656.313 160.422H655.329C655.345 159.982 655.478 159.597 655.726 159.266C655.975 158.933 656.3 158.673 656.702 158.487C657.106 158.302 657.551 158.209 658.034 158.209C658.554 158.209 658.999 158.314 659.371 158.524C659.742 158.732 660.028 159.007 660.227 159.348C660.427 159.69 660.527 160.059 660.527 160.455C660.527 160.928 660.402 161.331 660.154 161.664C659.908 161.998 659.573 162.229 659.149 162.357V162.423C659.679 162.51 660.093 162.736 660.391 163.099C660.689 163.46 660.838 163.907 660.838 164.44C660.838 164.896 660.714 165.306 660.465 165.669C660.219 166.03 659.883 166.314 659.457 166.522C659.03 166.73 658.545 166.834 658.001 166.834ZM665.253 166.719H662.662V158.323H665.368C666.182 158.323 666.879 158.491 667.459 158.828C668.038 159.161 668.482 159.641 668.791 160.266C669.1 160.89 669.254 161.636 669.254 162.505C669.254 163.379 669.098 164.132 668.787 164.763C668.475 165.392 668.021 165.876 667.426 166.215C666.83 166.551 666.106 166.719 665.253 166.719ZM663.679 165.817H665.188C665.882 165.817 666.457 165.683 666.913 165.415C667.37 165.147 667.71 164.766 667.934 164.271C668.158 163.777 668.27 163.188 668.27 162.505C668.27 161.827 668.159 161.243 667.938 160.754C667.717 160.262 667.386 159.885 666.946 159.623C666.506 159.358 665.958 159.225 665.302 159.225H663.679V165.817Z" fill="#959BA3"/>
<path d="M597.428 178.947H596.412C596.352 178.655 596.247 178.398 596.096 178.176C595.949 177.955 595.768 177.769 595.555 177.619C595.345 177.466 595.111 177.351 594.854 177.274C594.597 177.198 594.329 177.16 594.051 177.16C593.542 177.16 593.082 177.288 592.669 177.545C592.259 177.802 591.933 178.18 591.689 178.681C591.449 179.181 591.329 179.794 591.329 180.521C591.329 181.248 591.449 181.862 591.689 182.362C591.933 182.862 592.259 183.24 592.669 183.497C593.082 183.754 593.542 183.882 594.051 183.882C594.329 183.882 594.597 183.844 594.854 183.768C595.111 183.691 595.345 183.578 595.555 183.427C595.768 183.274 595.949 183.087 596.096 182.866C596.247 182.642 596.352 182.385 596.412 182.095H597.428C597.352 182.524 597.213 182.908 597.01 183.247C596.808 183.586 596.557 183.874 596.256 184.112C595.955 184.347 595.618 184.526 595.244 184.649C594.872 184.772 594.474 184.834 594.051 184.834C593.335 184.834 592.698 184.659 592.14 184.309C591.583 183.959 591.144 183.462 590.825 182.817C590.505 182.172 590.345 181.407 590.345 180.521C590.345 179.636 590.505 178.87 590.825 178.225C591.144 177.581 591.583 177.083 592.14 176.733C592.698 176.384 593.335 176.209 594.051 176.209C594.474 176.209 594.872 176.27 595.244 176.393C595.618 176.516 595.955 176.696 596.256 176.934C596.557 177.169 596.808 177.456 597.01 177.795C597.213 178.131 597.352 178.515 597.428 178.947ZM599.071 176.323H600.285L603.138 183.292H603.236L606.089 176.323H607.303V184.719H606.352V178.34H606.27L603.646 184.719H602.728L600.104 178.34H600.022V184.719H599.071V176.323ZM608.62 176.323H609.784L612.112 180.242H612.21L614.539 176.323H615.703L612.67 181.259V184.719H611.653V181.259L608.62 176.323ZM617.018 184.719V176.323H618.035V180.488H618.133L621.904 176.323H623.232L619.707 180.111L623.232 184.719H622.003L619.084 180.816L618.035 181.997V184.719H617.018ZM628.369 183.645C628.167 183.645 627.993 183.572 627.848 183.427C627.703 183.283 627.631 183.109 627.631 182.907C627.631 182.705 627.703 182.531 627.848 182.386C627.993 182.241 628.167 182.169 628.369 182.169C628.571 182.169 628.745 182.241 628.889 182.386C629.034 182.531 629.107 182.705 629.107 182.907C629.107 183.041 629.073 183.164 629.004 183.276C628.939 183.388 628.85 183.478 628.738 183.546C628.628 183.612 628.505 183.645 628.369 183.645ZM628.369 179.398C628.167 179.398 627.993 179.325 627.848 179.181C627.703 179.036 627.631 178.862 627.631 178.66C627.631 178.458 627.703 178.284 627.848 178.139C627.993 177.995 628.167 177.922 628.369 177.922C628.571 177.922 628.745 177.995 628.889 178.139C629.034 178.284 629.107 178.458 629.107 178.66C629.107 178.794 629.073 178.917 629.004 179.029C628.939 179.141 628.85 179.231 628.738 179.3C628.628 179.365 628.505 179.398 628.369 179.398ZM636.762 184.834C636.199 184.834 635.702 184.734 635.27 184.534C634.841 184.332 634.506 184.055 634.266 183.702C634.025 183.347 633.906 182.942 633.909 182.489C633.906 182.133 633.976 181.806 634.118 181.505C634.26 181.202 634.454 180.949 634.7 180.747C634.949 180.542 635.226 180.412 635.532 180.357V180.308C635.131 180.204 634.811 179.979 634.573 179.632C634.335 179.282 634.218 178.884 634.221 178.439C634.218 178.012 634.326 177.631 634.544 177.295C634.763 176.959 635.064 176.694 635.446 176.5C635.832 176.306 636.27 176.209 636.762 176.209C637.249 176.209 637.683 176.306 638.066 176.5C638.448 176.694 638.749 176.959 638.968 177.295C639.189 177.631 639.301 178.012 639.304 178.439C639.301 178.884 639.179 179.282 638.939 179.632C638.701 179.979 638.385 180.204 637.992 180.308V180.357C638.295 180.412 638.569 180.542 638.812 180.747C639.055 180.949 639.249 181.202 639.394 181.505C639.539 181.806 639.612 182.133 639.615 182.489C639.612 182.942 639.489 183.347 639.246 183.702C639.006 184.055 638.671 184.332 638.242 184.534C637.816 184.734 637.322 184.834 636.762 184.834ZM636.762 183.932C637.142 183.932 637.47 183.87 637.746 183.747C638.022 183.624 638.235 183.451 638.385 183.227C638.536 183.003 638.612 182.74 638.615 182.44C638.612 182.123 638.53 181.842 638.369 181.599C638.208 181.356 637.988 181.165 637.709 181.025C637.433 180.886 637.117 180.816 636.762 180.816C636.404 180.816 636.084 180.886 635.803 181.025C635.524 181.165 635.304 181.356 635.143 181.599C634.984 181.842 634.906 182.123 634.909 182.44C634.906 182.74 634.979 183.003 635.126 183.227C635.277 183.451 635.491 183.624 635.77 183.747C636.049 183.87 636.379 183.932 636.762 183.932ZM636.762 179.947C637.063 179.947 637.329 179.887 637.561 179.767C637.796 179.647 637.981 179.479 638.115 179.263C638.249 179.047 638.317 178.794 638.32 178.504C638.317 178.22 638.25 177.973 638.119 177.762C637.988 177.549 637.806 177.385 637.574 177.27C637.341 177.153 637.071 177.094 636.762 177.094C636.448 177.094 636.173 177.153 635.938 177.27C635.703 177.385 635.521 177.549 635.393 177.762C635.264 177.973 635.202 178.22 635.204 178.504C635.202 178.794 635.266 179.047 635.397 179.263C635.531 179.479 635.715 179.647 635.95 179.767C636.185 179.887 636.456 179.947 636.762 179.947ZM643.859 176.209C644.203 176.211 644.548 176.277 644.892 176.405C645.236 176.534 645.551 176.747 645.835 177.045C646.119 177.34 646.347 177.743 646.519 178.254C646.692 178.765 646.778 179.406 646.778 180.177C646.778 180.923 646.707 181.586 646.564 182.165C646.425 182.742 646.223 183.228 645.958 183.624C645.695 184.021 645.376 184.321 644.999 184.526C644.624 184.731 644.201 184.834 643.728 184.834C643.258 184.834 642.838 184.741 642.469 184.555C642.103 184.366 641.802 184.105 641.567 183.772C641.335 183.436 641.186 183.046 641.121 182.604H642.121C642.211 182.989 642.39 183.307 642.658 183.559C642.928 183.807 643.285 183.932 643.728 183.932C644.375 183.932 644.887 183.649 645.261 183.083C645.638 182.517 645.827 181.718 645.827 180.685H645.761C645.608 180.915 645.426 181.113 645.216 181.279C645.005 181.446 644.772 181.575 644.515 181.665C644.258 181.755 643.985 181.8 643.695 181.8C643.214 181.8 642.773 181.681 642.371 181.443C641.972 181.203 641.652 180.874 641.412 180.456C641.174 180.035 641.055 179.554 641.055 179.013C641.055 178.499 641.17 178.029 641.399 177.602C641.632 177.173 641.957 176.832 642.375 176.578C642.796 176.323 643.291 176.2 643.859 176.209ZM643.859 177.11C643.515 177.11 643.204 177.197 642.928 177.369C642.655 177.538 642.438 177.768 642.277 178.057C642.118 178.344 642.039 178.663 642.039 179.013C642.039 179.362 642.115 179.681 642.268 179.968C642.424 180.252 642.636 180.479 642.904 180.648C643.174 180.815 643.482 180.898 643.826 180.898C644.086 180.898 644.328 180.848 644.552 180.747C644.776 180.643 644.971 180.502 645.138 180.324C645.307 180.144 645.44 179.94 645.536 179.714C645.631 179.484 645.679 179.245 645.679 178.996C645.679 178.668 645.6 178.361 645.441 178.074C645.286 177.787 645.07 177.555 644.794 177.377C644.52 177.199 644.209 177.11 643.859 177.11ZM653.096 183.571L653.03 184.014C652.984 184.325 652.913 184.659 652.817 185.014C652.724 185.369 652.627 185.704 652.526 186.018C652.425 186.332 652.341 186.583 652.276 186.768H651.538C651.573 186.593 651.62 186.363 651.677 186.076C651.735 185.789 651.792 185.468 651.849 185.112C651.91 184.76 651.959 184.399 651.997 184.03L652.046 183.571H653.096ZM657.302 184.834C656.739 184.834 656.241 184.734 655.809 184.534C655.38 184.332 655.046 184.055 654.805 183.702C654.565 183.347 654.446 182.942 654.448 182.489C654.446 182.133 654.515 181.806 654.657 181.505C654.8 181.202 654.994 180.949 655.24 180.747C655.488 180.542 655.766 180.412 656.072 180.357V180.308C655.67 180.204 655.35 179.979 655.113 179.632C654.875 179.282 654.757 178.884 654.76 178.439C654.757 178.012 654.865 177.631 655.084 177.295C655.302 176.959 655.603 176.694 655.986 176.5C656.371 176.306 656.81 176.209 657.302 176.209C657.788 176.209 658.222 176.306 658.605 176.5C658.988 176.694 659.288 176.959 659.507 177.295C659.728 177.631 659.84 178.012 659.843 178.439C659.84 178.884 659.719 179.282 659.478 179.632C659.24 179.979 658.925 180.204 658.531 180.308V180.357C658.835 180.412 659.108 180.542 659.351 180.747C659.594 180.949 659.788 181.202 659.933 181.505C660.078 181.806 660.152 182.133 660.155 182.489C660.152 182.942 660.029 183.347 659.786 183.702C659.545 184.055 659.21 184.332 658.781 184.534C658.355 184.734 657.862 184.834 657.302 184.834ZM657.302 183.932C657.681 183.932 658.009 183.87 658.285 183.747C658.561 183.624 658.775 183.451 658.925 183.227C659.075 183.003 659.152 182.74 659.154 182.44C659.152 182.123 659.07 181.842 658.908 181.599C658.747 181.356 658.527 181.165 658.248 181.025C657.972 180.886 657.657 180.816 657.302 180.816C656.944 180.816 656.624 180.886 656.342 181.025C656.064 181.165 655.844 181.356 655.682 181.599C655.524 181.842 655.446 182.123 655.449 182.44C655.446 182.74 655.518 183.003 655.666 183.227C655.816 183.451 656.031 183.624 656.309 183.747C656.588 183.87 656.919 183.932 657.302 183.932ZM657.302 179.947C657.602 179.947 657.869 179.887 658.101 179.767C658.336 179.647 658.52 179.479 658.654 179.263C658.788 179.047 658.857 178.794 658.859 178.504C658.857 178.22 658.79 177.973 658.658 177.762C658.527 177.549 658.345 177.385 658.113 177.27C657.881 177.153 657.61 177.094 657.302 177.094C656.987 177.094 656.713 177.153 656.478 177.27C656.243 177.385 656.061 177.549 655.932 177.762C655.804 177.973 655.741 178.22 655.744 178.504C655.741 178.794 655.805 179.047 655.936 179.263C656.07 179.479 656.255 179.647 656.49 179.767C656.725 179.887 656.995 179.947 657.302 179.947ZM661.726 184.719V183.981L664.497 180.947C664.822 180.592 665.09 180.283 665.3 180.021C665.511 179.756 665.666 179.507 665.768 179.275C665.871 179.04 665.923 178.794 665.923 178.537C665.923 178.242 665.852 177.986 665.71 177.77C665.571 177.555 665.379 177.388 665.136 177.27C664.893 177.153 664.62 177.094 664.316 177.094C663.994 177.094 663.712 177.161 663.472 177.295C663.234 177.426 663.05 177.611 662.919 177.848C662.79 178.086 662.726 178.365 662.726 178.685H661.758C661.758 178.193 661.872 177.761 662.099 177.389C662.326 177.018 662.634 176.728 663.025 176.52C663.419 176.312 663.86 176.209 664.349 176.209C664.841 176.209 665.277 176.312 665.657 176.52C666.037 176.728 666.335 177.008 666.551 177.361C666.766 177.713 666.874 178.105 666.874 178.537C666.874 178.846 666.818 179.148 666.706 179.443C666.597 179.735 666.406 180.062 666.132 180.423C665.862 180.781 665.486 181.218 665.005 181.734L663.119 183.751V183.817H667.022V184.719H661.726ZM673.421 183.571L673.355 184.014C673.309 184.325 673.238 184.659 673.142 185.014C673.049 185.369 672.952 185.704 672.851 186.018C672.75 186.332 672.667 186.583 672.601 186.768H671.863C671.899 186.593 671.945 186.363 672.003 186.076C672.06 185.789 672.117 185.468 672.175 185.112C672.235 184.76 672.284 184.399 672.322 184.03L672.371 183.571H673.421ZM675 182.997V182.161L678.69 176.323H679.296V177.619H678.886L676.099 182.03V182.095H681.067V182.997H675ZM678.952 184.719V182.743V182.353V176.323H679.919V184.719H678.952ZM682.866 184.719L686.621 177.291V177.225H682.292V176.323H687.67V177.274L683.931 184.719H682.866ZM693.904 183.571L693.838 184.014C693.792 184.325 693.721 184.659 693.625 185.014C693.532 185.369 693.435 185.704 693.334 186.018C693.233 186.332 693.15 186.583 693.084 186.768H692.346C692.382 186.593 692.428 186.363 692.486 186.076C692.543 185.789 692.6 185.468 692.658 185.112C692.718 184.76 692.767 184.399 692.805 184.03L692.855 183.571H693.904ZM698.134 184.834C697.653 184.834 697.22 184.738 696.835 184.547C696.45 184.355 696.141 184.093 695.909 183.76C695.676 183.426 695.549 183.046 695.527 182.62H696.511C696.549 183 696.722 183.314 697.028 183.563C697.336 183.809 697.705 183.932 698.134 183.932C698.479 183.932 698.785 183.851 699.053 183.69C699.323 183.529 699.535 183.307 699.688 183.026C699.844 182.742 699.922 182.42 699.922 182.062C699.922 181.696 699.841 181.37 699.68 181.083C699.521 180.793 699.303 180.565 699.024 180.398C698.745 180.231 698.427 180.147 698.069 180.144C697.812 180.141 697.548 180.181 697.278 180.263C697.007 180.342 696.784 180.445 696.61 180.57L695.658 180.456L696.167 176.323H700.528V177.225H697.019L696.724 179.701H696.773C696.946 179.565 697.162 179.451 697.421 179.361C697.681 179.271 697.951 179.226 698.233 179.226C698.747 179.226 699.204 179.349 699.606 179.595C700.011 179.838 700.328 180.171 700.557 180.595C700.789 181.018 700.906 181.502 700.906 182.046C700.906 182.582 700.785 183.06 700.545 183.481C700.307 183.899 699.979 184.23 699.561 184.473C699.143 184.713 698.667 184.834 698.134 184.834ZM705.371 184.834C704.83 184.834 704.347 184.741 703.924 184.555C703.503 184.369 703.168 184.111 702.919 183.78C702.673 183.447 702.539 183.06 702.518 182.62H703.551C703.572 182.89 703.665 183.124 703.829 183.321C703.993 183.515 704.208 183.665 704.473 183.772C704.738 183.878 705.032 183.932 705.354 183.932C705.715 183.932 706.035 183.869 706.314 183.743C706.592 183.617 706.811 183.443 706.969 183.218C707.128 182.994 707.207 182.735 707.207 182.44C707.207 182.131 707.131 181.859 706.978 181.624C706.825 181.386 706.6 181.2 706.305 181.066C706.01 180.932 705.649 180.865 705.223 180.865H704.551V179.964H705.223C705.557 179.964 705.849 179.903 706.1 179.783C706.355 179.663 706.553 179.494 706.695 179.275C706.84 179.056 706.912 178.799 706.912 178.504C706.912 178.22 706.849 177.973 706.723 177.762C706.598 177.552 706.42 177.388 706.191 177.27C705.964 177.153 705.696 177.094 705.387 177.094C705.097 177.094 704.824 177.147 704.567 177.254C704.313 177.358 704.105 177.509 703.944 177.709C703.783 177.906 703.695 178.144 703.682 178.422H702.698C702.714 177.982 702.847 177.597 703.096 177.266C703.344 176.933 703.669 176.673 704.071 176.487C704.476 176.302 704.92 176.209 705.403 176.209C705.923 176.209 706.368 176.314 706.74 176.524C707.112 176.732 707.397 177.007 707.597 177.348C707.796 177.69 707.896 178.059 707.896 178.455C707.896 178.928 707.771 179.331 707.523 179.664C707.277 179.998 706.942 180.229 706.518 180.357V180.423C707.049 180.51 707.463 180.736 707.761 181.099C708.058 181.46 708.207 181.907 708.207 182.44C708.207 182.896 708.083 183.306 707.834 183.669C707.588 184.03 707.252 184.314 706.826 184.522C706.4 184.73 705.915 184.834 705.371 184.834Z" fill="#959BA3"/>
</g>
</g>
<defs>
<filter id="filter0_dd_814_9469" x="70.3444" y="50.0625" width="166.311" height="171.622" filterUnits="userSpaceOnUse" color-interpolation-filters="sRGB">
<feFlood flood-opacity="0" result="BackgroundImageFix"/>
<feColorMatrix in="SourceAlpha" type="matrix" values="0 0 0 0 0 0 0 0 0 0 0 0 0 0 0 0 0 0 127 0" result="hardAlpha"/>
<feMorphology radius="1.77593" operator="erode" in="SourceAlpha" result="effect1_dropShadow_814_9469"/>
<feOffset dy="3.55187"/>
<feGaussianBlur stdDeviation="2.6639"/>
<feColorMatrix type="matrix" values="0 0 0 0 0.0627451 0 0 0 0 0.0941176 0 0 0 0 0.156863 0 0 0 0.03 0"/>
<feBlend mode="normal" in2="BackgroundImageFix" result="effect1_dropShadow_814_9469"/>
<feColorMatrix in="SourceAlpha" type="matrix" values="0 0 0 0 0 0 0 0 0 0 0 0 0 0 0 0 0 0 127 0" result="hardAlpha"/>
<feMorphology radius="3.55187" operator="erode" in="SourceAlpha" result="effect2_dropShadow_814_9469"/>
<feOffset dy="10.6556"/>
<feGaussianBlur stdDeviation="7.10373"/>
<feColorMatrix type="matrix" values="0 0 0 0 0.0627451 0 0 0 0 0.0941176 0 0 0 0 0.156863 0 0 0 0.08 0"/>
<feBlend mode="normal" in2="effect1_dropShadow_814_9469" result="effect2_dropShadow_814_9469"/>
<feBlend mode="normal" in="SourceGraphic" in2="effect2_dropShadow_814_9469" result="shape"/>
</filter>
<filter id="filter1_dd_814_9469" x="236.344" y="50.0625" width="166.311" height="171.622" filterUnits="userSpaceOnUse" color-interpolation-filters="sRGB">
<feFlood flood-opacity="0" result="BackgroundImageFix"/>
<feColorMatrix in="SourceAlpha" type="matrix" values="0 0 0 0 0 0 0 0 0 0 0 0 0 0 0 0 0 0 127 0" result="hardAlpha"/>
<feMorphology radius="1.77593" operator="erode" in="SourceAlpha" result="effect1_dropShadow_814_9469"/>
<feOffset dy="3.55187"/>
<feGaussianBlur stdDeviation="2.6639"/>
<feColorMatrix type="matrix" values="0 0 0 0 0.0627451 0 0 0 0 0.0941176 0 0 0 0 0.156863 0 0 0 0.03 0"/>
<feBlend mode="normal" in2="BackgroundImageFix" result="effect1_dropShadow_814_9469"/>
<feColorMatrix in="SourceAlpha" type="matrix" values="0 0 0 0 0 0 0 0 0 0 0 0 0 0 0 0 0 0 127 0" result="hardAlpha"/>
<feMorphology radius="3.55187" operator="erode" in="SourceAlpha" result="effect2_dropShadow_814_9469"/>
<feOffset dy="10.6556"/>
<feGaussianBlur stdDeviation="7.10373"/>
<feColorMatrix type="matrix" values="0 0 0 0 0.0627451 0 0 0 0 0.0941176 0 0 0 0 0.156863 0 0 0 0.08 0"/>
<feBlend mode="normal" in2="effect1_dropShadow_814_9469" result="effect2_dropShadow_814_9469"/>
<feBlend mode="normal" in="SourceGraphic" in2="effect2_dropShadow_814_9469" result="shape"/>
</filter>
<filter id="filter2_dd_814_9469" x="402.344" y="50.0625" width="166.311" height="171.622" filterUnits="userSpaceOnUse" color-interpolation-filters="sRGB">
<feFlood flood-opacity="0" result="BackgroundImageFix"/>
<feColorMatrix in="SourceAlpha" type="matrix" values="0 0 0 0 0 0 0 0 0 0 0 0 0 0 0 0 0 0 127 0" result="hardAlpha"/>
<feMorphology radius="1.77593" operator="erode" in="SourceAlpha" result="effect1_dropShadow_814_9469"/>
<feOffset dy="3.55187"/>
<feGaussianBlur stdDeviation="2.6639"/>
<feColorMatrix type="matrix" values="0 0 0 0 0.0627451 0 0 0 0 0.0941176 0 0 0 0 0.156863 0 0 0 0.03 0"/>
<feBlend mode="normal" in2="BackgroundImageFix" result="effect1_dropShadow_814_9469"/>
<feColorMatrix in="SourceAlpha" type="matrix" values="0 0 0 0 0 0 0 0 0 0 0 0 0 0 0 0 0 0 127 0" result="hardAlpha"/>
<feMorphology radius="3.55187" operator="erode" in="SourceAlpha" result="effect2_dropShadow_814_9469"/>
<feOffset dy="10.6556"/>
<feGaussianBlur stdDeviation="7.10373"/>
<feColorMatrix type="matrix" values="0 0 0 0 0.0627451 0 0 0 0 0.0941176 0 0 0 0 0.156863 0 0 0 0.08 0"/>
<feBlend mode="normal" in2="effect1_dropShadow_814_9469" result="effect2_dropShadow_814_9469"/>
<feBlend mode="normal" in="SourceGraphic" in2="effect2_dropShadow_814_9469" result="shape"/>
</filter>
<filter id="filter3_dd_814_9469" x="568.344" y="50.0625" width="166.311" height="171.622" filterUnits="userSpaceOnUse" color-interpolation-filters="sRGB">
<feFlood flood-opacity="0" result="BackgroundImageFix"/>
<feColorMatrix in="SourceAlpha" type="matrix" values="0 0 0 0 0 0 0 0 0 0 0 0 0 0 0 0 0 0 127 0" result="hardAlpha"/>
<feMorphology radius="1.77593" operator="erode" in="SourceAlpha" result="effect1_dropShadow_814_9469"/>
<feOffset dy="3.55187"/>
<feGaussianBlur stdDeviation="2.6639"/>
<feColorMatrix type="matrix" values="0 0 0 0 0.0627451 0 0 0 0 0.0941176 0 0 0 0 0.156863 0 0 0 0.03 0"/>
<feBlend mode="normal" in2="BackgroundImageFix" result="effect1_dropShadow_814_9469"/>
<feColorMatrix in="SourceAlpha" type="matrix" values="0 0 0 0 0 0 0 0 0 0 0 0 0 0 0 0 0 0 127 0" result="hardAlpha"/>
<feMorphology radius="3.55187" operator="erode" in="SourceAlpha" result="effect2_dropShadow_814_9469"/>
<feOffset dy="10.6556"/>
<feGaussianBlur stdDeviation="7.10373"/>
<feColorMatrix type="matrix" values="0 0 0 0 0.0627451 0 0 0 0 0.0941176 0 0 0 0 0.156863 0 0 0 0.08 0"/>
<feBlend mode="normal" in2="effect1_dropShadow_814_9469" result="effect2_dropShadow_814_9469"/>
<feBlend mode="normal" in="SourceGraphic" in2="effect2_dropShadow_814_9469" result="shape"/>
</filter>
<clipPath id="clip0_814_9469">
<rect x="81" y="50.0625" width="145" height="150.311" rx="7.10373" fill="white"/>
</clipPath>
<clipPath id="clip1_814_9469">
<rect x="247" y="50.0625" width="145" height="150.311" rx="7.10373" fill="white"/>
</clipPath>
<clipPath id="clip2_814_9469">
<rect x="413" y="50.0625" width="145" height="150.311" rx="7.10373" fill="white"/>
</clipPath>
<clipPath id="clip3_814_9469">
<rect x="579" y="50.0625" width="145" height="150.311" rx="7.10373" fill="white"/>
</clipPath>
</defs>
</svg>
