<svg width="804" height="284" viewBox="0 0 804 284" fill="none" xmlns="http://www.w3.org/2000/svg">
<rect width="804" height="284" fill="#F9FAFB"/>
<path d="M242.959 115V106.273H248.43V107.406H244.276V110.065H248.145V111.195H244.276V113.866H248.482V115H242.959ZM250.087 115V108.455H251.31V109.52H251.391C251.527 109.159 251.75 108.878 252.06 108.676C252.37 108.472 252.74 108.369 253.172 108.369C253.61 108.369 253.976 108.472 254.272 108.676C254.57 108.881 254.79 109.162 254.932 109.52H255C255.157 109.17 255.405 108.892 255.746 108.685C256.087 108.474 256.493 108.369 256.965 108.369C257.559 108.369 258.043 108.555 258.418 108.928C258.796 109.3 258.985 109.861 258.985 110.611V115H257.711V110.73C257.711 110.287 257.59 109.966 257.348 109.767C257.107 109.568 256.819 109.469 256.483 109.469C256.069 109.469 255.746 109.597 255.516 109.852C255.286 110.105 255.171 110.43 255.171 110.828V115H253.901V110.649C253.901 110.294 253.79 110.009 253.569 109.793C253.347 109.577 253.059 109.469 252.703 109.469C252.462 109.469 252.239 109.533 252.034 109.661C251.833 109.786 251.669 109.96 251.544 110.185C251.422 110.409 251.361 110.669 251.361 110.964V115H250.087ZM262.597 115.145C262.183 115.145 261.808 115.068 261.472 114.915C261.137 114.759 260.871 114.533 260.675 114.237C260.482 113.942 260.386 113.58 260.386 113.151C260.386 112.781 260.457 112.477 260.599 112.239C260.741 112 260.933 111.811 261.174 111.672C261.415 111.533 261.685 111.428 261.984 111.357C262.282 111.286 262.586 111.232 262.896 111.195C263.288 111.149 263.606 111.112 263.85 111.084C264.094 111.053 264.272 111.003 264.383 110.935C264.494 110.866 264.549 110.756 264.549 110.602V110.572C264.549 110.2 264.444 109.912 264.234 109.707C264.026 109.503 263.717 109.401 263.305 109.401C262.876 109.401 262.538 109.496 262.29 109.686C262.046 109.874 261.877 110.082 261.783 110.312L260.586 110.04C260.728 109.642 260.935 109.321 261.208 109.077C261.484 108.83 261.8 108.651 262.158 108.54C262.516 108.426 262.893 108.369 263.288 108.369C263.549 108.369 263.826 108.401 264.119 108.463C264.414 108.523 264.69 108.634 264.945 108.795C265.204 108.957 265.415 109.189 265.58 109.49C265.745 109.788 265.827 110.176 265.827 110.653V115H264.583V114.105H264.532C264.45 114.27 264.326 114.432 264.161 114.591C263.996 114.75 263.785 114.882 263.526 114.987C263.268 115.092 262.958 115.145 262.597 115.145ZM262.874 114.122C263.227 114.122 263.528 114.053 263.778 113.913C264.031 113.774 264.222 113.592 264.353 113.368C264.487 113.141 264.553 112.898 264.553 112.639V111.795C264.508 111.841 264.42 111.884 264.289 111.923C264.161 111.96 264.015 111.993 263.85 112.021C263.685 112.047 263.525 112.071 263.369 112.094C263.212 112.114 263.082 112.131 262.977 112.145C262.729 112.176 262.504 112.229 262.299 112.303C262.097 112.376 261.935 112.483 261.813 112.622C261.694 112.759 261.634 112.94 261.634 113.168C261.634 113.483 261.751 113.722 261.984 113.884C262.217 114.043 262.513 114.122 262.874 114.122ZM267.525 115V108.455H268.799V115H267.525ZM268.168 107.445C267.946 107.445 267.756 107.371 267.597 107.223C267.441 107.072 267.363 106.893 267.363 106.686C267.363 106.476 267.441 106.297 267.597 106.149C267.756 105.999 267.946 105.923 268.168 105.923C268.39 105.923 268.578 105.999 268.735 106.149C268.894 106.297 268.973 106.476 268.973 106.686C268.973 106.893 268.894 107.072 268.735 107.223C268.578 107.371 268.39 107.445 268.168 107.445ZM271.787 106.273V115H270.513V106.273H271.787Z" fill="#344054"/>
<rect x="242.5" y="124.5" width="319" height="35" rx="2.5" fill="white"/>
<path d="M272.335 136.999C272.335 136.082 271.585 135.332 270.668 135.332H257.335C256.418 135.332 255.668 136.082 255.668 136.999M272.335 136.999V146.999C272.335 147.915 271.585 148.665 270.668 148.665H257.335C256.418 148.665 255.668 147.915 255.668 146.999V136.999M272.335 136.999L264.001 142.832L255.668 136.999" stroke="#959BA3" stroke-width="1.66667" stroke-linecap="round" stroke-linejoin="round"/>
<path d="M285.878 147.148C285.238 147.148 284.676 146.995 284.193 146.691C283.713 146.386 283.337 145.96 283.066 145.412C282.799 144.864 282.665 144.224 282.665 143.491C282.665 142.753 282.799 142.108 283.066 141.557C283.337 141.006 283.713 140.578 284.193 140.274C284.676 139.969 285.238 139.817 285.878 139.817C286.518 139.817 287.078 139.969 287.558 140.274C288.041 140.578 288.417 141.006 288.685 141.557C288.955 142.108 289.091 142.753 289.091 143.491C289.091 144.224 288.955 144.864 288.685 145.412C288.417 145.96 288.041 146.386 287.558 146.691C287.078 146.995 286.518 147.148 285.878 147.148ZM285.878 146.169C286.364 146.169 286.764 146.044 287.078 145.795C287.392 145.546 287.624 145.218 287.775 144.812C287.926 144.406 288.001 143.965 288.001 143.491C288.001 143.018 287.926 142.576 287.775 142.167C287.624 141.757 287.392 141.426 287.078 141.174C286.764 140.922 286.364 140.795 285.878 140.795C285.392 140.795 284.991 140.922 284.678 141.174C284.364 141.426 284.131 141.757 283.98 142.167C283.83 142.576 283.754 143.018 283.754 143.491C283.754 143.965 283.83 144.406 283.98 144.812C284.131 145.218 284.364 145.546 284.678 145.795C284.991 146.044 285.392 146.169 285.878 146.169ZM291.843 137.545V147H290.754V137.545H291.843ZM293.839 147V139.909H294.928V147H293.839ZM294.393 138.727C294.181 138.727 293.997 138.655 293.844 138.51C293.693 138.366 293.617 138.192 293.617 137.989C293.617 137.786 293.693 137.612 293.844 137.467C293.997 137.322 294.181 137.25 294.393 137.25C294.605 137.25 294.787 137.322 294.938 137.467C295.092 137.612 295.169 137.786 295.169 137.989C295.169 138.192 295.092 138.366 294.938 138.51C294.787 138.655 294.605 138.727 294.393 138.727ZM302.722 139.909L300.1 147H298.992L296.37 139.909H297.552L299.509 145.56H299.583L301.54 139.909H302.722ZM304.16 147V139.909H305.25V147H304.16ZM304.714 138.727C304.502 138.727 304.319 138.655 304.165 138.51C304.014 138.366 303.939 138.192 303.939 137.989C303.939 137.786 304.014 137.612 304.165 137.467C304.319 137.322 304.502 137.25 304.714 137.25C304.927 137.25 305.108 137.322 305.259 137.467C305.413 137.612 305.49 137.786 305.49 137.989C305.49 138.192 305.413 138.366 305.259 138.51C305.108 138.655 304.927 138.727 304.714 138.727ZM309.332 147.166C308.883 147.166 308.475 147.082 308.108 146.912C307.742 146.74 307.451 146.492 307.236 146.169C307.021 145.843 306.913 145.449 306.913 144.987C306.913 144.581 306.993 144.252 307.153 143.999C307.313 143.744 307.527 143.544 307.795 143.399C308.062 143.254 308.358 143.147 308.681 143.076C309.007 143.002 309.335 142.944 309.664 142.901C310.095 142.845 310.444 142.804 310.712 142.776C310.983 142.745 311.18 142.694 311.303 142.624C311.429 142.553 311.492 142.43 311.492 142.254V142.217C311.492 141.762 311.368 141.408 311.118 141.156C310.872 140.903 310.498 140.777 309.997 140.777C309.477 140.777 309.069 140.891 308.773 141.119C308.478 141.346 308.27 141.589 308.15 141.848L307.116 141.479C307.301 141.048 307.547 140.712 307.855 140.472C308.165 140.229 308.504 140.06 308.87 139.964C309.24 139.866 309.603 139.817 309.96 139.817C310.187 139.817 310.449 139.844 310.744 139.9C311.043 139.952 311.331 140.061 311.608 140.228C311.888 140.394 312.12 140.645 312.305 140.98C312.49 141.316 312.582 141.765 312.582 142.328V147H311.492V146.04H311.437C311.363 146.194 311.24 146.358 311.068 146.534C310.895 146.709 310.666 146.858 310.38 146.982C310.094 147.105 309.744 147.166 309.332 147.166ZM309.498 146.188C309.929 146.188 310.292 146.103 310.588 145.934C310.886 145.764 311.111 145.546 311.262 145.278C311.415 145.01 311.492 144.729 311.492 144.433V143.436C311.446 143.491 311.345 143.542 311.188 143.588C311.034 143.632 310.855 143.67 310.652 143.704C310.452 143.735 310.257 143.762 310.066 143.787C309.878 143.808 309.726 143.827 309.609 143.842C309.326 143.879 309.061 143.939 308.815 144.022C308.572 144.102 308.375 144.224 308.224 144.387C308.076 144.547 308.002 144.766 308.002 145.043C308.002 145.421 308.142 145.707 308.422 145.901C308.706 146.092 309.064 146.188 309.498 146.188ZM320.018 149.493C319.076 149.493 318.244 149.364 317.52 149.105C316.797 148.85 316.189 148.473 315.697 147.974C315.204 147.475 314.832 146.865 314.58 146.141C314.327 145.418 314.201 144.59 314.201 143.658C314.201 142.756 314.329 141.95 314.584 141.239C314.843 140.528 315.217 139.924 315.706 139.429C316.198 138.93 316.796 138.55 317.497 138.289C318.202 138.027 318.999 137.896 319.889 137.896C320.753 137.896 321.511 138.038 322.16 138.321C322.812 138.601 323.357 138.981 323.794 139.461C324.234 139.938 324.564 140.475 324.782 141.072C325.004 141.67 325.114 142.285 325.114 142.919C325.114 143.365 325.093 143.818 325.05 144.276C325.007 144.735 324.916 145.156 324.777 145.541C324.639 145.923 324.425 146.231 324.136 146.464C323.85 146.698 323.462 146.815 322.972 146.815C322.757 146.815 322.52 146.781 322.261 146.714C322.003 146.646 321.774 146.534 321.574 146.377C321.374 146.22 321.255 146.009 321.218 145.744H321.163C321.089 145.923 320.975 146.092 320.821 146.252C320.67 146.412 320.472 146.54 320.226 146.635C319.982 146.731 319.685 146.772 319.335 146.76C318.935 146.745 318.582 146.655 318.277 146.492C317.973 146.326 317.717 146.101 317.511 145.818C317.308 145.532 317.154 145.201 317.049 144.826C316.948 144.447 316.897 144.039 316.897 143.602C316.897 143.187 316.959 142.807 317.082 142.462C317.205 142.117 317.376 141.816 317.594 141.557C317.816 141.299 318.074 141.092 318.37 140.939C318.668 140.782 318.99 140.685 319.335 140.648C319.642 140.617 319.922 140.631 320.175 140.689C320.427 140.745 320.635 140.829 320.798 140.943C320.961 141.054 321.064 141.177 321.107 141.312H321.163V140.795H322.141V144.969C322.141 145.227 322.214 145.455 322.358 145.652C322.503 145.849 322.714 145.947 322.991 145.947C323.305 145.947 323.545 145.84 323.711 145.624C323.88 145.409 323.996 145.076 324.057 144.627C324.122 144.178 324.154 143.602 324.154 142.901C324.154 142.488 324.097 142.082 323.983 141.682C323.873 141.279 323.703 140.902 323.476 140.551C323.251 140.2 322.966 139.891 322.622 139.623C322.277 139.355 321.872 139.146 321.407 138.995C320.946 138.841 320.421 138.764 319.833 138.764C319.11 138.764 318.462 138.877 317.89 139.101C317.32 139.323 316.836 139.647 316.435 140.075C316.038 140.5 315.735 141.017 315.526 141.626C315.32 142.233 315.217 142.922 315.217 143.695C315.217 144.479 315.32 145.176 315.526 145.786C315.735 146.395 316.043 146.909 316.449 147.328C316.859 147.746 317.365 148.063 317.968 148.279C318.571 148.497 319.267 148.607 320.055 148.607C320.393 148.607 320.727 148.574 321.057 148.51C321.386 148.445 321.677 148.374 321.929 148.297C322.181 148.22 322.363 148.163 322.474 148.126L322.732 148.976C322.542 149.056 322.292 149.136 321.984 149.216C321.68 149.296 321.354 149.362 321.006 149.414C320.661 149.467 320.332 149.493 320.018 149.493ZM319.482 145.818C319.895 145.818 320.229 145.735 320.484 145.569C320.74 145.403 320.926 145.152 321.043 144.816C321.16 144.481 321.218 144.058 321.218 143.547C321.218 143.03 321.153 142.627 321.024 142.337C320.895 142.048 320.704 141.845 320.452 141.728C320.199 141.611 319.889 141.553 319.519 141.553C319.168 141.553 318.868 141.645 318.619 141.83C318.373 142.011 318.184 142.254 318.051 142.559C317.922 142.861 317.857 143.19 317.857 143.547C317.857 143.941 317.91 144.312 318.014 144.659C318.119 145.004 318.29 145.284 318.527 145.5C318.764 145.712 319.082 145.818 319.482 145.818ZM331.214 144.101V139.909H332.303V147H331.214V145.8H331.14C330.974 146.16 330.715 146.466 330.365 146.718C330.014 146.968 329.57 147.092 329.035 147.092C328.592 147.092 328.198 146.995 327.853 146.801C327.508 146.605 327.238 146.309 327.041 145.915C326.844 145.518 326.745 145.018 326.745 144.415V139.909H327.835V144.341C327.835 144.858 327.979 145.27 328.269 145.578C328.561 145.886 328.933 146.04 329.386 146.04C329.657 146.04 329.932 145.971 330.212 145.832C330.495 145.694 330.732 145.481 330.923 145.195C331.117 144.909 331.214 144.544 331.214 144.101ZM335.388 142.734V147H334.299V139.909H335.351V141.017H335.444C335.61 140.657 335.862 140.368 336.201 140.149C336.539 139.928 336.976 139.817 337.512 139.817C337.992 139.817 338.412 139.915 338.772 140.112C339.132 140.306 339.412 140.602 339.612 140.999C339.813 141.393 339.913 141.891 339.913 142.494V147H338.823V142.568C338.823 142.011 338.678 141.577 338.389 141.266C338.1 140.952 337.703 140.795 337.198 140.795C336.85 140.795 336.539 140.871 336.266 141.022C335.995 141.172 335.781 141.393 335.624 141.682C335.467 141.971 335.388 142.322 335.388 142.734ZM344.987 139.909V140.832H341.312V139.909H344.987ZM342.384 138.21H343.473V144.969C343.473 145.277 343.518 145.507 343.607 145.661C343.699 145.812 343.816 145.914 343.958 145.966C344.102 146.015 344.255 146.04 344.415 146.04C344.535 146.04 344.633 146.034 344.71 146.021C344.787 146.006 344.849 145.994 344.895 145.984L345.116 146.963C345.043 146.991 344.94 147.018 344.807 147.046C344.675 147.077 344.507 147.092 344.304 147.092C343.996 147.092 343.695 147.026 343.399 146.894C343.107 146.761 342.864 146.56 342.67 146.289C342.479 146.018 342.384 145.677 342.384 145.264V138.21ZM346.626 147V139.909H347.716V147H346.626ZM347.18 138.727C346.968 138.727 346.785 138.655 346.631 138.51C346.48 138.366 346.404 138.192 346.404 137.989C346.404 137.786 346.48 137.612 346.631 137.467C346.785 137.322 346.968 137.25 347.18 137.25C347.392 137.25 347.574 137.322 347.725 137.467C347.879 137.612 347.956 137.786 347.956 137.989C347.956 138.192 347.879 138.366 347.725 138.51C347.574 138.655 347.392 138.727 347.18 138.727ZM352.795 139.909V140.832H349.12V139.909H352.795ZM350.191 138.21H351.281V144.969C351.281 145.277 351.325 145.507 351.415 145.661C351.507 145.812 351.624 145.914 351.765 145.966C351.91 146.015 352.062 146.04 352.222 146.04C352.342 146.04 352.441 146.034 352.518 146.021C352.595 146.006 352.656 145.994 352.703 145.984L352.924 146.963C352.85 146.991 352.747 147.018 352.615 147.046C352.482 147.077 352.315 147.092 352.112 147.092C351.804 147.092 351.502 147.026 351.207 146.894C350.914 146.761 350.671 146.56 350.477 146.289C350.287 146.018 350.191 145.677 350.191 145.264V138.21ZM355.676 137.545V147H354.586V137.545H355.676ZM360.644 147.148C359.961 147.148 359.371 146.997 358.876 146.695C358.383 146.391 358.003 145.966 357.736 145.421C357.471 144.873 357.339 144.236 357.339 143.51C357.339 142.784 357.471 142.143 357.736 141.589C358.003 141.032 358.376 140.598 358.853 140.288C359.333 139.974 359.893 139.817 360.533 139.817C360.903 139.817 361.267 139.878 361.627 140.001C361.987 140.125 362.315 140.325 362.611 140.602C362.906 140.875 363.142 141.239 363.317 141.691C363.492 142.143 363.58 142.701 363.58 143.362V143.824H358.114V142.882H362.472C362.472 142.482 362.392 142.125 362.232 141.811C362.075 141.497 361.85 141.249 361.558 141.068C361.269 140.886 360.927 140.795 360.533 140.795C360.099 140.795 359.724 140.903 359.407 141.119C359.093 141.331 358.851 141.608 358.682 141.95C358.513 142.291 358.428 142.657 358.428 143.048V143.676C358.428 144.212 358.52 144.666 358.705 145.038C358.893 145.407 359.153 145.689 359.485 145.883C359.818 146.074 360.204 146.169 360.644 146.169C360.93 146.169 361.189 146.129 361.42 146.049C361.653 145.966 361.855 145.843 362.024 145.68C362.194 145.513 362.324 145.307 362.417 145.061L363.469 145.357C363.358 145.714 363.172 146.027 362.911 146.298C362.649 146.566 362.326 146.775 361.941 146.926C361.557 147.074 361.124 147.148 360.644 147.148ZM367.915 147.148C367.324 147.148 366.802 146.998 366.35 146.7C365.898 146.398 365.544 145.974 365.288 145.426C365.033 144.875 364.905 144.224 364.905 143.473C364.905 142.728 365.033 142.082 365.288 141.534C365.544 140.986 365.899 140.563 366.355 140.265C366.81 139.966 367.336 139.817 367.933 139.817C368.395 139.817 368.76 139.894 369.028 140.048C369.298 140.198 369.505 140.371 369.646 140.565C369.791 140.755 369.903 140.912 369.983 141.036H370.075V137.545H371.165V147H370.112V145.911H369.983C369.903 146.04 369.789 146.203 369.642 146.4C369.494 146.594 369.283 146.768 369.009 146.922C368.735 147.072 368.37 147.148 367.915 147.148ZM368.063 146.169C368.5 146.169 368.869 146.055 369.171 145.827C369.472 145.597 369.702 145.278 369.858 144.872C370.015 144.462 370.094 143.99 370.094 143.455C370.094 142.925 370.017 142.462 369.863 142.065C369.709 141.665 369.481 141.354 369.18 141.132C368.878 140.908 368.506 140.795 368.063 140.795C367.601 140.795 367.216 140.914 366.909 141.151C366.604 141.385 366.375 141.703 366.221 142.107C366.07 142.507 365.994 142.956 365.994 143.455C365.994 143.959 366.071 144.418 366.225 144.83C366.382 145.24 366.613 145.566 366.918 145.809C367.226 146.049 367.607 146.169 368.063 146.169ZM377.78 144.101V139.909H378.87V147H377.78V145.8H377.706C377.54 146.16 377.282 146.466 376.931 146.718C376.58 146.968 376.137 147.092 375.601 147.092C375.158 147.092 374.764 146.995 374.42 146.801C374.075 146.605 373.804 146.309 373.607 145.915C373.41 145.518 373.312 145.018 373.312 144.415V139.909H374.401V144.341C374.401 144.858 374.546 145.27 374.835 145.578C375.127 145.886 375.5 146.04 375.952 146.04C376.223 146.04 376.499 145.971 376.779 145.832C377.062 145.694 377.299 145.481 377.49 145.195C377.683 144.909 377.78 144.544 377.78 144.101ZM380.865 147V139.909H381.955V147H380.865ZM381.419 138.727C381.207 138.727 381.024 138.655 380.87 138.51C380.719 138.366 380.644 138.192 380.644 137.989C380.644 137.786 380.719 137.612 380.87 137.467C381.024 137.322 381.207 137.25 381.419 137.25C381.632 137.25 381.813 137.322 381.964 137.467C382.118 137.612 382.195 137.786 382.195 137.989C382.195 138.192 382.118 138.366 381.964 138.51C381.813 138.655 381.632 138.727 381.419 138.727ZM384.744 147.074C384.517 147.074 384.321 146.992 384.158 146.829C383.995 146.666 383.913 146.471 383.913 146.243C383.913 146.015 383.995 145.82 384.158 145.657C384.321 145.493 384.517 145.412 384.744 145.412C384.972 145.412 385.167 145.493 385.331 145.657C385.494 145.82 385.575 146.015 385.575 146.243C385.575 146.394 385.537 146.532 385.46 146.658C385.386 146.785 385.286 146.886 385.16 146.963C385.037 147.037 384.898 147.074 384.744 147.074ZM390.411 147.148C389.746 147.148 389.174 146.991 388.694 146.677C388.214 146.363 387.844 145.931 387.586 145.38C387.327 144.829 387.198 144.199 387.198 143.491C387.198 142.771 387.33 142.136 387.595 141.585C387.863 141.031 388.235 140.598 388.712 140.288C389.192 139.974 389.752 139.817 390.393 139.817C390.891 139.817 391.34 139.909 391.741 140.094C392.141 140.278 392.468 140.537 392.724 140.869C392.979 141.202 393.138 141.589 393.199 142.033H392.11C392.027 141.71 391.842 141.423 391.556 141.174C391.273 140.922 390.891 140.795 390.411 140.795C389.986 140.795 389.614 140.906 389.294 141.128C388.977 141.346 388.729 141.656 388.551 142.056C388.375 142.453 388.287 142.919 388.287 143.455C388.287 144.002 388.374 144.479 388.546 144.886C388.721 145.292 388.968 145.607 389.285 145.832C389.605 146.057 389.98 146.169 390.411 146.169C390.694 146.169 390.951 146.12 391.182 146.021C391.413 145.923 391.608 145.781 391.768 145.597C391.928 145.412 392.042 145.19 392.11 144.932H393.199C393.138 145.35 392.985 145.727 392.742 146.063C392.502 146.395 392.184 146.66 391.787 146.857C391.393 147.051 390.934 147.148 390.411 147.148ZM397.673 147.148C397.033 147.148 396.471 146.995 395.988 146.691C395.508 146.386 395.132 145.96 394.861 145.412C394.594 144.864 394.46 144.224 394.46 143.491C394.46 142.753 394.594 142.108 394.861 141.557C395.132 141.006 395.508 140.578 395.988 140.274C396.471 139.969 397.033 139.817 397.673 139.817C398.313 139.817 398.873 139.969 399.353 140.274C399.836 140.578 400.212 141.006 400.48 141.557C400.75 142.108 400.886 142.753 400.886 143.491C400.886 144.224 400.75 144.864 400.48 145.412C400.212 145.96 399.836 146.386 399.353 146.691C398.873 146.995 398.313 147.148 397.673 147.148ZM397.673 146.169C398.159 146.169 398.559 146.044 398.873 145.795C399.187 145.546 399.419 145.218 399.57 144.812C399.721 144.406 399.796 143.965 399.796 143.491C399.796 143.018 399.721 142.576 399.57 142.167C399.419 141.757 399.187 141.426 398.873 141.174C398.559 140.922 398.159 140.795 397.673 140.795C397.186 140.795 396.786 140.922 396.472 141.174C396.159 141.426 395.926 141.757 395.775 142.167C395.625 142.576 395.549 143.018 395.549 143.491C395.549 143.965 395.625 144.406 395.775 144.812C395.926 145.218 396.159 145.546 396.472 145.795C396.786 146.044 397.186 146.169 397.673 146.169ZM402.549 147V139.909H403.601V141.017H403.694C403.842 140.638 404.08 140.345 404.409 140.135C404.739 139.923 405.134 139.817 405.596 139.817C406.064 139.817 406.453 139.923 406.764 140.135C407.078 140.345 407.322 140.638 407.498 141.017H407.572C407.753 140.651 408.026 140.36 408.389 140.145C408.752 139.926 409.187 139.817 409.695 139.817C410.329 139.817 410.848 140.015 411.251 140.412C411.654 140.806 411.856 141.42 411.856 142.254V147H410.766V142.254C410.766 141.731 410.623 141.357 410.337 141.132C410.051 140.908 409.714 140.795 409.326 140.795C408.827 140.795 408.441 140.946 408.167 141.248C407.893 141.546 407.756 141.925 407.756 142.384V147H406.648V142.143C406.648 141.74 406.518 141.416 406.256 141.169C405.994 140.92 405.657 140.795 405.245 140.795C404.962 140.795 404.697 140.871 404.451 141.022C404.208 141.172 404.011 141.382 403.86 141.65C403.712 141.914 403.638 142.22 403.638 142.568V147H402.549Z" fill="#959BA3"/>
<g clip-path="url(#clip0_437_49331)">
<path d="M540.059 139.999C540.215 139.553 540.525 139.177 540.932 138.938C541.339 138.699 541.818 138.611 542.283 138.691C542.749 138.771 543.171 139.013 543.475 139.374C543.78 139.736 543.946 140.193 543.945 140.665C543.945 141.999 541.945 142.665 541.945 142.665M541.999 145.332H542.005M548.665 141.999C548.665 145.681 545.681 148.665 541.999 148.665C538.317 148.665 535.332 145.681 535.332 141.999C535.332 138.317 538.317 135.332 541.999 135.332C545.681 135.332 548.665 138.317 548.665 141.999Z" stroke="#B8BFC7" stroke-width="1.33333" stroke-linecap="round" stroke-linejoin="round"/>
</g>
<rect x="242.5" y="124.5" width="319" height="35" rx="2.5" stroke="#D8DEE9"/>
<path d="M242.58 169.21V168.273H249.125V169.21H246.381V177H245.324V169.21H242.58ZM251.625 173.062V177H250.62V168.273H251.625V171.477H251.711C251.864 171.139 252.094 170.871 252.401 170.672C252.711 170.47 253.123 170.369 253.637 170.369C254.083 170.369 254.473 170.459 254.809 170.638C255.144 170.814 255.404 171.085 255.588 171.452C255.776 171.815 255.87 172.278 255.87 172.841V177H254.864V172.909C254.864 172.389 254.729 171.987 254.459 171.703C254.192 171.416 253.821 171.273 253.347 171.273C253.017 171.273 252.722 171.342 252.461 171.482C252.202 171.621 251.998 171.824 251.847 172.091C251.699 172.358 251.625 172.682 251.625 173.062ZM257.71 177V170.455H258.715V177H257.71ZM258.221 169.364C258.025 169.364 257.856 169.297 257.714 169.163C257.575 169.03 257.505 168.869 257.505 168.682C257.505 168.494 257.575 168.334 257.714 168.2C257.856 168.067 258.025 168 258.221 168C258.417 168 258.585 168.067 258.724 168.2C258.866 168.334 258.937 168.494 258.937 168.682C258.937 168.869 258.866 169.03 258.724 169.163C258.585 169.297 258.417 169.364 258.221 169.364ZM265.194 171.92L264.29 172.176C264.233 172.026 264.15 171.879 264.039 171.737C263.931 171.592 263.783 171.473 263.596 171.379C263.408 171.286 263.168 171.239 262.875 171.239C262.475 171.239 262.141 171.331 261.874 171.516C261.61 171.697 261.478 171.929 261.478 172.21C261.478 172.46 261.569 172.658 261.75 172.803C261.932 172.947 262.216 173.068 262.603 173.165L263.574 173.403C264.159 173.545 264.596 173.763 264.882 174.055C265.169 174.345 265.313 174.719 265.313 175.176C265.313 175.551 265.205 175.886 264.989 176.182C264.776 176.477 264.478 176.71 264.094 176.881C263.711 177.051 263.265 177.136 262.756 177.136C262.088 177.136 261.536 176.991 261.098 176.702C260.661 176.412 260.384 175.989 260.267 175.432L261.222 175.193C261.313 175.545 261.485 175.81 261.738 175.986C261.993 176.162 262.327 176.25 262.739 176.25C263.208 176.25 263.58 176.151 263.855 175.952C264.134 175.75 264.273 175.509 264.273 175.227C264.273 175 264.194 174.81 264.034 174.656C263.875 174.5 263.631 174.384 263.301 174.307L262.211 174.051C261.611 173.909 261.171 173.689 260.89 173.391C260.611 173.089 260.472 172.713 260.472 172.261C260.472 171.892 260.576 171.565 260.783 171.281C260.993 170.997 261.279 170.774 261.64 170.612C262.003 170.45 262.415 170.369 262.875 170.369C263.523 170.369 264.032 170.511 264.401 170.795C264.773 171.08 265.037 171.455 265.194 171.92ZM270.202 177V170.455H271.207V177H270.202ZM270.713 169.364C270.517 169.364 270.348 169.297 270.206 169.163C270.067 169.03 269.997 168.869 269.997 168.682C269.997 168.494 270.067 168.334 270.206 168.2C270.348 168.067 270.517 168 270.713 168C270.909 168 271.077 168.067 271.216 168.2C271.358 168.334 271.429 168.494 271.429 168.682C271.429 168.869 271.358 169.03 271.216 169.163C271.077 169.297 270.909 169.364 270.713 169.364ZM277.686 171.92L276.782 172.176C276.725 172.026 276.642 171.879 276.531 171.737C276.423 171.592 276.275 171.473 276.088 171.379C275.9 171.286 275.66 171.239 275.368 171.239C274.967 171.239 274.633 171.331 274.366 171.516C274.102 171.697 273.97 171.929 273.97 172.21C273.97 172.46 274.061 172.658 274.243 172.803C274.424 172.947 274.708 173.068 275.095 173.165L276.066 173.403C276.652 173.545 277.088 173.763 277.375 174.055C277.662 174.345 277.805 174.719 277.805 175.176C277.805 175.551 277.697 175.886 277.481 176.182C277.268 176.477 276.97 176.71 276.586 176.881C276.203 177.051 275.757 177.136 275.248 177.136C274.581 177.136 274.028 176.991 273.591 176.702C273.153 176.412 272.876 175.989 272.76 175.432L273.714 175.193C273.805 175.545 273.977 175.81 274.23 175.986C274.485 176.162 274.819 176.25 275.231 176.25C275.7 176.25 276.072 176.151 276.348 175.952C276.626 175.75 276.765 175.509 276.765 175.227C276.765 175 276.686 174.81 276.527 174.656C276.368 174.5 276.123 174.384 275.794 174.307L274.703 174.051C274.103 173.909 273.663 173.689 273.382 173.391C273.103 173.089 272.964 172.713 272.964 172.261C272.964 171.892 273.068 171.565 273.275 171.281C273.485 170.997 273.771 170.774 274.132 170.612C274.495 170.45 274.907 170.369 275.368 170.369C276.015 170.369 276.524 170.511 276.893 170.795C277.265 171.08 277.529 171.455 277.686 171.92ZM284.62 177.153C284.205 177.153 283.829 177.075 283.491 176.919C283.153 176.76 282.884 176.531 282.685 176.233C282.487 175.932 282.387 175.568 282.387 175.142C282.387 174.767 282.461 174.463 282.609 174.23C282.756 173.994 282.954 173.81 283.201 173.676C283.448 173.543 283.721 173.443 284.019 173.378C284.32 173.31 284.623 173.256 284.927 173.216C285.325 173.165 285.647 173.126 285.894 173.101C286.144 173.072 286.326 173.026 286.44 172.96C286.556 172.895 286.614 172.781 286.614 172.619V172.585C286.614 172.165 286.499 171.838 286.269 171.605C286.042 171.372 285.697 171.256 285.234 171.256C284.754 171.256 284.377 171.361 284.104 171.571C283.832 171.781 283.64 172.006 283.529 172.244L282.575 171.903C282.745 171.506 282.972 171.196 283.256 170.974C283.543 170.75 283.856 170.594 284.194 170.506C284.535 170.415 284.87 170.369 285.2 170.369C285.41 170.369 285.651 170.395 285.924 170.446C286.2 170.494 286.465 170.595 286.721 170.749C286.979 170.902 287.194 171.134 287.364 171.443C287.535 171.753 287.62 172.168 287.62 172.688V177H286.614V176.114H286.563C286.495 176.256 286.381 176.408 286.222 176.57C286.063 176.732 285.852 176.869 285.587 176.983C285.323 177.097 285.001 177.153 284.62 177.153ZM284.773 176.25C285.171 176.25 285.506 176.172 285.779 176.016C286.055 175.859 286.262 175.658 286.401 175.411C286.543 175.163 286.614 174.903 286.614 174.631V173.71C286.572 173.761 286.478 173.808 286.333 173.851C286.191 173.891 286.026 173.926 285.839 173.957C285.654 173.986 285.474 174.011 285.298 174.034C285.124 174.054 284.984 174.071 284.876 174.085C284.614 174.119 284.37 174.175 284.143 174.251C283.918 174.325 283.737 174.437 283.597 174.588C283.461 174.736 283.393 174.937 283.393 175.193C283.393 175.543 283.522 175.807 283.781 175.986C284.042 176.162 284.373 176.25 284.773 176.25ZM293.836 173.062V177H292.831V168.273H293.836V171.477H293.922C294.075 171.139 294.305 170.871 294.612 170.672C294.922 170.47 295.333 170.369 295.848 170.369C296.294 170.369 296.684 170.459 297.02 170.638C297.355 170.814 297.615 171.085 297.799 171.452C297.987 171.815 298.081 172.278 298.081 172.841V177H297.075V172.909C297.075 172.389 296.94 171.987 296.67 171.703C296.403 171.416 296.032 171.273 295.558 171.273C295.228 171.273 294.933 171.342 294.672 171.482C294.413 171.621 294.208 171.824 294.058 172.091C293.91 172.358 293.836 172.682 293.836 173.062ZM299.92 177V170.455H300.926V177H299.92ZM300.432 169.364C300.236 169.364 300.067 169.297 299.925 169.163C299.786 169.03 299.716 168.869 299.716 168.682C299.716 168.494 299.786 168.334 299.925 168.2C300.067 168.067 300.236 168 300.432 168C300.628 168 300.795 168.067 300.935 168.2C301.077 168.334 301.148 168.494 301.148 168.682C301.148 168.869 301.077 169.03 300.935 169.163C300.795 169.297 300.628 169.364 300.432 169.364ZM303.774 173.062V177H302.768V170.455H303.74V171.477H303.825C303.978 171.145 304.211 170.878 304.524 170.676C304.836 170.472 305.24 170.369 305.734 170.369C306.177 170.369 306.565 170.46 306.897 170.642C307.23 170.821 307.488 171.094 307.673 171.46C307.858 171.824 307.95 172.284 307.95 172.841V177H306.944V172.909C306.944 172.395 306.811 171.994 306.544 171.707C306.277 171.418 305.91 171.273 305.444 171.273C305.123 171.273 304.836 171.342 304.583 171.482C304.333 171.621 304.136 171.824 303.991 172.091C303.846 172.358 303.774 172.682 303.774 173.062ZM312.634 170.455V171.307H309.242V170.455H312.634ZM310.231 168.886H311.237V175.125C311.237 175.409 311.278 175.622 311.36 175.764C311.445 175.903 311.553 175.997 311.684 176.045C311.817 176.091 311.958 176.114 312.106 176.114C312.217 176.114 312.308 176.108 312.379 176.097C312.45 176.082 312.506 176.071 312.549 176.062L312.754 176.966C312.685 176.991 312.59 177.017 312.468 177.043C312.346 177.071 312.191 177.085 312.004 177.085C311.719 177.085 311.441 177.024 311.168 176.902C310.898 176.78 310.674 176.594 310.495 176.344C310.319 176.094 310.231 175.778 310.231 175.398V168.886ZM320.369 170.455V171.307H316.977V170.455H320.369ZM317.965 168.886H318.971V175.125C318.971 175.409 319.012 175.622 319.094 175.764C319.18 175.903 319.288 175.997 319.418 176.045C319.552 176.091 319.692 176.114 319.84 176.114C319.951 176.114 320.042 176.108 320.113 176.097C320.184 176.082 320.241 176.071 320.283 176.062L320.488 176.966C320.42 176.991 320.325 177.017 320.202 177.043C320.08 177.071 319.925 177.085 319.738 177.085C319.454 177.085 319.175 177.024 318.903 176.902C318.633 176.78 318.408 176.594 318.229 176.344C318.053 176.094 317.965 175.778 317.965 175.398V168.886ZM324.555 177.136C323.925 177.136 323.381 176.997 322.923 176.719C322.469 176.438 322.118 176.045 321.871 175.543C321.626 175.037 321.504 174.449 321.504 173.778C321.504 173.108 321.626 172.517 321.871 172.006C322.118 171.491 322.462 171.091 322.902 170.804C323.345 170.514 323.862 170.369 324.453 170.369C324.794 170.369 325.131 170.426 325.463 170.54C325.795 170.653 326.098 170.838 326.371 171.094C326.643 171.347 326.861 171.682 327.023 172.099C327.185 172.517 327.266 173.031 327.266 173.642V174.068H322.22V173.199H326.243C326.243 172.83 326.169 172.5 326.021 172.21C325.876 171.92 325.669 171.692 325.399 171.524C325.132 171.357 324.817 171.273 324.453 171.273C324.053 171.273 323.706 171.372 323.413 171.571C323.124 171.767 322.901 172.023 322.744 172.338C322.588 172.653 322.51 172.991 322.51 173.352V173.932C322.51 174.426 322.595 174.845 322.766 175.189C322.939 175.53 323.179 175.79 323.486 175.969C323.793 176.145 324.149 176.233 324.555 176.233C324.82 176.233 325.058 176.196 325.271 176.122C325.487 176.045 325.673 175.932 325.83 175.781C325.986 175.628 326.107 175.437 326.192 175.21L327.163 175.483C327.061 175.812 326.889 176.102 326.648 176.352C326.406 176.599 326.108 176.793 325.753 176.932C325.398 177.068 324.999 177.136 324.555 177.136ZM329.37 170.455L330.938 173.131L332.506 170.455H333.665L331.551 173.727L333.665 177H332.506L330.938 174.46L329.37 177H328.211L330.29 173.727L328.211 170.455H329.37ZM337.947 170.455V171.307H334.555V170.455H337.947ZM335.543 168.886H336.549V175.125C336.549 175.409 336.59 175.622 336.673 175.764C336.758 175.903 336.866 175.997 336.996 176.045C337.13 176.091 337.271 176.114 337.418 176.114C337.529 176.114 337.62 176.108 337.691 176.097C337.762 176.082 337.819 176.071 337.862 176.062L338.066 176.966C337.998 176.991 337.903 177.017 337.781 177.043C337.658 177.071 337.504 177.085 337.316 177.085C337.032 177.085 336.754 177.024 336.481 176.902C336.211 176.78 335.987 176.594 335.808 176.344C335.631 176.094 335.543 175.778 335.543 175.398V168.886ZM345.681 170.455V171.307H342.289V170.455H345.681ZM343.278 168.886H344.283V175.125C344.283 175.409 344.325 175.622 344.407 175.764C344.492 175.903 344.6 175.997 344.731 176.045C344.864 176.091 345.005 176.114 345.153 176.114C345.263 176.114 345.354 176.108 345.425 176.097C345.496 176.082 345.553 176.071 345.596 176.062L345.8 176.966C345.732 176.991 345.637 177.017 345.515 177.043C345.393 177.071 345.238 177.085 345.05 177.085C344.766 177.085 344.488 177.024 344.215 176.902C343.945 176.78 343.721 176.594 343.542 176.344C343.366 176.094 343.278 175.778 343.278 175.398V168.886ZM349.783 177.136C349.192 177.136 348.673 176.996 348.227 176.714C347.784 176.433 347.438 176.04 347.188 175.534C346.94 175.028 346.817 174.437 346.817 173.761C346.817 173.08 346.94 172.484 347.188 171.976C347.438 171.467 347.784 171.072 348.227 170.791C348.673 170.51 349.192 170.369 349.783 170.369C350.374 170.369 350.891 170.51 351.334 170.791C351.78 171.072 352.126 171.467 352.374 171.976C352.624 172.484 352.749 173.08 352.749 173.761C352.749 174.437 352.624 175.028 352.374 175.534C352.126 176.04 351.78 176.433 351.334 176.714C350.891 176.996 350.374 177.136 349.783 177.136ZM349.783 176.233C350.232 176.233 350.601 176.118 350.891 175.888C351.18 175.658 351.395 175.355 351.534 174.98C351.673 174.605 351.743 174.199 351.743 173.761C351.743 173.324 351.673 172.916 351.534 172.538C351.395 172.161 351.18 171.855 350.891 171.622C350.601 171.389 350.232 171.273 349.783 171.273C349.334 171.273 348.964 171.389 348.675 171.622C348.385 171.855 348.17 172.161 348.031 172.538C347.892 172.916 347.822 173.324 347.822 173.761C347.822 174.199 347.892 174.605 348.031 174.98C348.17 175.355 348.385 175.658 348.675 175.888C348.964 176.118 349.334 176.233 349.783 176.233ZM358.664 173.062V177H357.659V168.273H358.664V171.477H358.75C358.903 171.139 359.133 170.871 359.44 170.672C359.75 170.47 360.162 170.369 360.676 170.369C361.122 170.369 361.512 170.459 361.848 170.638C362.183 170.814 362.443 171.085 362.627 171.452C362.815 171.815 362.909 172.278 362.909 172.841V177H361.903V172.909C361.903 172.389 361.768 171.987 361.498 171.703C361.231 171.416 360.86 171.273 360.386 171.273C360.056 171.273 359.761 171.342 359.5 171.482C359.241 171.621 359.037 171.824 358.886 172.091C358.738 172.358 358.664 172.682 358.664 173.062ZM367.493 177.136C366.862 177.136 366.318 176.997 365.861 176.719C365.406 176.438 365.055 176.045 364.808 175.543C364.564 175.037 364.442 174.449 364.442 173.778C364.442 173.108 364.564 172.517 364.808 172.006C365.055 171.491 365.399 171.091 365.839 170.804C366.283 170.514 366.8 170.369 367.391 170.369C367.732 170.369 368.068 170.426 368.401 170.54C368.733 170.653 369.036 170.838 369.308 171.094C369.581 171.347 369.798 171.682 369.96 172.099C370.122 172.517 370.203 173.031 370.203 173.642V174.068H365.158V173.199H369.18C369.18 172.83 369.107 172.5 368.959 172.21C368.814 171.92 368.607 171.692 368.337 171.524C368.07 171.357 367.754 171.273 367.391 171.273C366.99 171.273 366.643 171.372 366.351 171.571C366.061 171.767 365.838 172.023 365.682 172.338C365.526 172.653 365.447 172.991 365.447 173.352V173.932C365.447 174.426 365.533 174.845 365.703 175.189C365.876 175.53 366.116 175.79 366.423 175.969C366.73 176.145 367.087 176.233 367.493 176.233C367.757 176.233 367.996 176.196 368.209 176.122C368.425 176.045 368.611 175.932 368.767 175.781C368.923 175.628 369.044 175.437 369.129 175.21L370.101 175.483C369.999 175.812 369.827 176.102 369.585 176.352C369.344 176.599 369.045 176.793 368.69 176.932C368.335 177.068 367.936 177.136 367.493 177.136ZM372.739 168.273V177H371.733V168.273H372.739ZM374.581 179.455V170.455H375.552V171.494H375.672C375.745 171.381 375.848 171.236 375.978 171.06C376.112 170.881 376.302 170.722 376.549 170.582C376.799 170.44 377.137 170.369 377.564 170.369C378.115 170.369 378.6 170.507 379.021 170.783C379.441 171.058 379.77 171.449 380.005 171.955C380.241 172.46 380.359 173.057 380.359 173.744C380.359 174.438 380.241 175.038 380.005 175.547C379.77 176.053 379.443 176.445 379.025 176.723C378.608 176.999 378.126 177.136 377.581 177.136C377.16 177.136 376.824 177.067 376.571 176.928C376.318 176.786 376.123 176.625 375.987 176.446C375.85 176.264 375.745 176.114 375.672 175.994H375.586V179.455H374.581ZM375.569 173.727C375.569 174.222 375.642 174.658 375.787 175.036C375.931 175.411 376.143 175.705 376.422 175.918C376.7 176.128 377.041 176.233 377.444 176.233C377.865 176.233 378.216 176.122 378.497 175.901C378.781 175.676 378.994 175.375 379.136 174.997C379.281 174.616 379.353 174.193 379.353 173.727C379.353 173.267 379.282 172.852 379.14 172.483C379.001 172.111 378.789 171.817 378.505 171.601C378.224 171.382 377.87 171.273 377.444 171.273C377.035 171.273 376.691 171.376 376.413 171.584C376.135 171.788 375.924 172.075 375.782 172.445C375.64 172.811 375.569 173.239 375.569 173.727ZM389.393 174.324V170.455H390.399V177H389.393V175.892H389.325C389.172 176.224 388.933 176.507 388.609 176.74C388.285 176.97 387.876 177.085 387.382 177.085C386.973 177.085 386.609 176.996 386.291 176.817C385.973 176.635 385.723 176.362 385.541 175.999C385.359 175.632 385.268 175.17 385.268 174.614V170.455H386.274V174.545C386.274 175.023 386.407 175.403 386.674 175.688C386.944 175.972 387.288 176.114 387.706 176.114C387.956 176.114 388.21 176.05 388.468 175.922C388.73 175.794 388.949 175.598 389.125 175.334C389.304 175.07 389.393 174.733 389.393 174.324ZM396.877 171.92L395.974 172.176C395.917 172.026 395.833 171.879 395.722 171.737C395.614 171.592 395.467 171.473 395.279 171.379C395.092 171.286 394.852 171.239 394.559 171.239C394.158 171.239 393.825 171.331 393.558 171.516C393.293 171.697 393.161 171.929 393.161 172.21C393.161 172.46 393.252 172.658 393.434 172.803C393.616 172.947 393.9 173.068 394.286 173.165L395.258 173.403C395.843 173.545 396.279 173.763 396.566 174.055C396.853 174.345 396.996 174.719 396.996 175.176C396.996 175.551 396.888 175.886 396.673 176.182C396.46 176.477 396.161 176.71 395.778 176.881C395.394 177.051 394.948 177.136 394.44 177.136C393.772 177.136 393.219 176.991 392.782 176.702C392.344 176.412 392.067 175.989 391.951 175.432L392.906 175.193C392.996 175.545 393.168 175.81 393.421 175.986C393.677 176.162 394.011 176.25 394.423 176.25C394.891 176.25 395.263 176.151 395.539 175.952C395.817 175.75 395.957 175.509 395.957 175.227C395.957 175 395.877 174.81 395.718 174.656C395.559 174.5 395.315 174.384 394.985 174.307L393.894 174.051C393.295 173.909 392.854 173.689 392.573 173.391C392.295 173.089 392.156 172.713 392.156 172.261C392.156 171.892 392.259 171.565 392.467 171.281C392.677 170.997 392.962 170.774 393.323 170.612C393.687 170.45 394.099 170.369 394.559 170.369C395.207 170.369 395.715 170.511 396.085 170.795C396.457 171.08 396.721 171.455 396.877 171.92ZM401.255 177.136C400.624 177.136 400.08 176.997 399.623 176.719C399.168 176.438 398.817 176.045 398.57 175.543C398.326 175.037 398.203 174.449 398.203 173.778C398.203 173.108 398.326 172.517 398.57 172.006C398.817 171.491 399.161 171.091 399.601 170.804C400.044 170.514 400.561 170.369 401.152 170.369C401.493 170.369 401.83 170.426 402.162 170.54C402.495 170.653 402.797 170.838 403.07 171.094C403.343 171.347 403.56 171.682 403.722 172.099C403.884 172.517 403.965 173.031 403.965 173.642V174.068H398.919V173.199H402.942C402.942 172.83 402.868 172.5 402.721 172.21C402.576 171.92 402.368 171.692 402.098 171.524C401.831 171.357 401.516 171.273 401.152 171.273C400.752 171.273 400.405 171.372 400.113 171.571C399.823 171.767 399.6 172.023 399.444 172.338C399.287 172.653 399.209 172.991 399.209 173.352V173.932C399.209 174.426 399.294 174.845 399.465 175.189C399.638 175.53 399.878 175.79 400.185 175.969C400.492 176.145 400.848 176.233 401.255 176.233C401.519 176.233 401.757 176.196 401.971 176.122C402.186 176.045 402.373 175.932 402.529 175.781C402.685 175.628 402.806 175.437 402.891 175.21L403.863 175.483C403.76 175.812 403.588 176.102 403.347 176.352C403.105 176.599 402.807 176.793 402.452 176.932C402.097 177.068 401.698 177.136 401.255 177.136ZM405.495 177V170.455H406.466V171.443H406.534C406.654 171.119 406.87 170.857 407.182 170.655C407.495 170.453 407.847 170.352 408.239 170.352C408.313 170.352 408.405 170.354 408.516 170.357C408.627 170.359 408.711 170.364 408.767 170.369V171.392C408.733 171.384 408.655 171.371 408.533 171.354C408.414 171.334 408.287 171.324 408.154 171.324C407.836 171.324 407.551 171.391 407.301 171.524C407.054 171.655 406.858 171.837 406.713 172.07C406.571 172.3 406.5 172.562 406.5 172.858V177H405.495ZM409.942 177.068C409.732 177.068 409.552 176.993 409.401 176.842C409.251 176.692 409.175 176.511 409.175 176.301C409.175 176.091 409.251 175.911 409.401 175.76C409.552 175.609 409.732 175.534 409.942 175.534C410.153 175.534 410.333 175.609 410.484 175.76C410.634 175.911 410.71 176.091 410.71 176.301C410.71 176.44 410.674 176.568 410.603 176.685C410.535 176.801 410.442 176.895 410.326 176.966C410.212 177.034 410.085 177.068 409.942 177.068Z" fill="#959BA3"/>
<g clip-path="url(#clip1_437_49331)">
<rect x="194" y="109" width="48" height="1" fill="#C54600"/>
<g clip-path="url(#clip2_437_49331)">
<rect x="194" y="97" width="24" height="24" rx="12" fill="#C54600"/>
<path d="M207.83 103.818V114H205.677V105.862H205.618L203.286 107.323V105.414L205.807 103.818H207.83Z" fill="white"/>
</g>
</g>
<g clip-path="url(#clip3_437_49331)">
<rect x="194" y="142" width="48" height="1" fill="#C54600"/>
<g clip-path="url(#clip4_437_49331)">
<rect x="194" y="130" width="24" height="24" rx="12" fill="#C54600"/>
<path d="M202.416 147V145.449L206.04 142.093C206.349 141.795 206.607 141.526 206.816 141.288C207.028 141.049 207.189 140.815 207.298 140.587C207.408 140.355 207.462 140.104 207.462 139.836C207.462 139.538 207.394 139.281 207.258 139.065C207.123 138.847 206.937 138.679 206.702 138.563C206.466 138.444 206.199 138.384 205.901 138.384C205.59 138.384 205.318 138.447 205.086 138.573C204.854 138.699 204.675 138.88 204.549 139.115C204.423 139.35 204.36 139.63 204.36 139.955H202.317C202.317 139.289 202.467 138.711 202.769 138.22C203.071 137.73 203.493 137.35 204.037 137.082C204.58 136.813 205.207 136.679 205.916 136.679C206.645 136.679 207.28 136.808 207.82 137.067C208.364 137.322 208.786 137.677 209.088 138.131C209.39 138.585 209.54 139.105 209.54 139.692C209.54 140.076 209.464 140.456 209.312 140.83C209.163 141.205 208.896 141.621 208.511 142.078C208.127 142.532 207.585 143.077 206.886 143.714L205.399 145.17V145.24H209.675V147H202.416Z" fill="white"/>
</g>
</g>
<g clip-path="url(#clip5_437_49331)">
<rect x="264" y="52" width="1" height="80" fill="#C54600"/>
<g clip-path="url(#clip6_437_49331)">
<rect x="252" y="52" width="24" height="24" rx="12" fill="#C54600"/>
<path d="M263.975 69.1392C263.232 69.1392 262.571 69.0116 261.991 68.7564C261.414 68.4979 260.958 68.1432 260.624 67.6925C260.292 67.2384 260.122 66.7147 260.112 66.1214H262.279C262.292 66.37 262.374 66.5888 262.523 66.7777C262.675 66.9633 262.877 67.1075 263.129 67.2102C263.381 67.313 263.665 67.3643 263.979 67.3643C264.308 67.3643 264.598 67.3063 264.85 67.1903C265.101 67.0743 265.299 66.9136 265.441 66.7081C265.584 66.5026 265.655 66.2656 265.655 65.9972C265.655 65.7254 265.579 65.4851 265.426 65.2763C265.277 65.0642 265.062 64.8984 264.78 64.7791C264.502 64.6598 264.17 64.6001 263.786 64.6001H262.836V63.0192H263.786C264.11 63.0192 264.397 62.9628 264.646 62.8501C264.898 62.7375 265.093 62.5817 265.232 62.3828C265.372 62.1806 265.441 61.9453 265.441 61.6768C265.441 61.4216 265.38 61.1979 265.257 61.0057C265.138 60.8101 264.969 60.6577 264.75 60.5483C264.535 60.4389 264.283 60.3842 263.994 60.3842C263.703 60.3842 263.436 60.4373 263.194 60.5433C262.952 60.6461 262.758 60.7936 262.612 60.9858C262.466 61.178 262.389 61.4034 262.379 61.6619H260.315C260.325 61.0753 260.493 60.5582 260.818 60.1108C261.142 59.6634 261.58 59.3137 262.13 59.0618C262.684 58.8066 263.308 58.679 264.004 58.679C264.707 58.679 265.322 58.8066 265.849 59.0618C266.376 59.317 266.785 59.6617 267.077 60.0959C267.372 60.5268 267.518 61.0107 267.514 61.5476C267.518 62.1177 267.34 62.5933 266.982 62.9744C266.628 63.3556 266.165 63.5975 265.595 63.7003V63.7798C266.344 63.8759 266.914 64.1361 267.305 64.5604C267.7 64.9813 267.895 65.5083 267.892 66.1413C267.895 66.7214 267.728 67.2367 267.39 67.6875C267.055 68.1383 266.593 68.4929 266.003 68.7514C265.413 69.0099 264.737 69.1392 263.975 69.1392Z" fill="white"/>
</g>
</g>
<g clip-path="url(#clip7_437_49331)">
<rect x="404" y="52" width="1" height="80" fill="#C54600"/>
<g clip-path="url(#clip8_437_49331)">
<rect x="392" y="52" width="24" height="24" rx="12" fill="#C54600"/>
<path d="M399.927 67.2102V65.5149L404.178 58.8182H405.639V61.1648H404.774L402.095 65.4055V65.4851H408.135V67.2102H399.927ZM404.814 69V66.6932L404.854 65.9425V58.8182H406.872V69H404.814Z" fill="white"/>
</g>
</g>
<g clip-path="url(#clip9_437_49331)">
<rect x="542" y="52" width="1" height="82" fill="#C54600"/>
<g clip-path="url(#clip10_437_49331)">
<rect x="530" y="52" width="24" height="24" rx="12" fill="#C54600"/>
<path d="M542.032 69.1392C541.33 69.1392 540.703 69.0099 540.153 68.7514C539.606 68.4929 539.172 68.1366 538.85 67.6825C538.529 67.2285 538.362 66.7081 538.348 66.1214H540.436C540.46 66.5159 540.625 66.8357 540.934 67.081C541.242 67.3262 541.608 67.4489 542.032 67.4489C542.37 67.4489 542.669 67.3743 542.927 67.2251C543.189 67.0727 543.393 66.8622 543.539 66.5938C543.688 66.322 543.762 66.0104 543.762 65.6591C543.762 65.3011 543.686 64.9863 543.534 64.7145C543.385 64.4427 543.177 64.2306 542.912 64.0781C542.647 63.9257 542.344 63.8478 542.002 63.8445C541.704 63.8445 541.414 63.9058 541.132 64.0284C540.854 64.151 540.637 64.3184 540.481 64.5305L538.567 64.1875L539.049 58.8182H545.274V60.5781H540.824L540.561 63.1286H540.62C540.799 62.8767 541.069 62.6679 541.431 62.5021C541.792 62.3364 542.196 62.2536 542.644 62.2536C543.257 62.2536 543.804 62.3977 544.284 62.6861C544.765 62.9744 545.145 63.3705 545.423 63.8743C545.701 64.3748 545.839 64.9515 545.836 65.6044C545.839 66.2905 545.68 66.9003 545.358 67.4339C545.04 67.9643 544.594 68.3819 544.021 68.6868C543.451 68.9884 542.788 69.1392 542.032 69.1392Z" fill="white"/>
</g>
</g>
<g clip-path="url(#clip11_437_49331)">
<rect x="194" y="175" width="48" height="1" fill="#C54600"/>
<g clip-path="url(#clip12_437_49331)">
<rect x="194" y="163" width="24" height="24" rx="12" fill="#C54600"/>
<path d="M206.112 180.139C205.588 180.136 205.083 180.048 204.596 179.876C204.112 179.703 203.677 179.423 203.293 179.036C202.908 178.648 202.604 178.134 202.378 177.494C202.156 176.855 202.045 176.069 202.045 175.138C202.048 174.283 202.146 173.519 202.338 172.846C202.534 172.17 202.812 171.596 203.174 171.126C203.538 170.655 203.974 170.297 204.481 170.052C204.988 169.803 205.557 169.679 206.186 169.679C206.866 169.679 207.466 169.812 207.986 170.077C208.507 170.339 208.924 170.695 209.239 171.146C209.557 171.596 209.749 172.102 209.816 172.662H207.693C207.61 172.307 207.436 172.029 207.171 171.827C206.906 171.625 206.578 171.523 206.186 171.523C205.524 171.523 205.02 171.812 204.675 172.388C204.334 172.965 204.16 173.749 204.153 174.74H204.223C204.375 174.438 204.581 174.182 204.839 173.969C205.101 173.754 205.398 173.59 205.729 173.477C206.064 173.361 206.417 173.303 206.788 173.303C207.391 173.303 207.928 173.446 208.399 173.731C208.869 174.013 209.241 174.4 209.512 174.894C209.784 175.388 209.92 175.953 209.92 176.589C209.92 177.279 209.759 177.892 209.438 178.429C209.12 178.966 208.674 179.387 208.1 179.692C207.53 179.993 206.868 180.143 206.112 180.139ZM206.102 178.449C206.433 178.449 206.73 178.369 206.992 178.21C207.254 178.051 207.459 177.836 207.608 177.564C207.757 177.292 207.832 176.987 207.832 176.649C207.832 176.311 207.757 176.008 207.608 175.739C207.462 175.471 207.26 175.257 207.002 175.098C206.743 174.939 206.448 174.859 206.117 174.859C205.868 174.859 205.638 174.906 205.426 174.999C205.217 175.091 205.033 175.221 204.874 175.386C204.718 175.552 204.596 175.744 204.506 175.963C204.417 176.179 204.372 176.409 204.372 176.654C204.372 176.982 204.446 177.282 204.596 177.554C204.748 177.826 204.953 178.043 205.212 178.205C205.474 178.368 205.77 178.449 206.102 178.449Z" fill="white"/>
</g>
</g>
<defs>
<clipPath id="clip0_437_49331">
<rect width="16" height="16" fill="white" transform="translate(534 134)"/>
</clipPath>
<clipPath id="clip1_437_49331">
<rect width="48" height="24" fill="white" transform="translate(194 97)"/>
</clipPath>
<clipPath id="clip2_437_49331">
<rect x="194" y="97" width="24" height="24" rx="12" fill="white"/>
</clipPath>
<clipPath id="clip3_437_49331">
<rect width="48" height="24" fill="white" transform="translate(194 130)"/>
</clipPath>
<clipPath id="clip4_437_49331">
<rect x="194" y="130" width="24" height="24" rx="12" fill="white"/>
</clipPath>
<clipPath id="clip5_437_49331">
<rect width="24" height="80" fill="white" transform="translate(252 52)"/>
</clipPath>
<clipPath id="clip6_437_49331">
<rect x="252" y="52" width="24" height="24" rx="12" fill="white"/>
</clipPath>
<clipPath id="clip7_437_49331">
<rect width="24" height="80" fill="white" transform="translate(392 52)"/>
</clipPath>
<clipPath id="clip8_437_49331">
<rect x="392" y="52" width="24" height="24" rx="12" fill="white"/>
</clipPath>
<clipPath id="clip9_437_49331">
<rect width="24" height="82" fill="white" transform="translate(530 52)"/>
</clipPath>
<clipPath id="clip10_437_49331">
<rect x="530" y="52" width="24" height="24" rx="12" fill="white"/>
</clipPath>
<clipPath id="clip11_437_49331">
<rect width="48" height="24" fill="white" transform="translate(194 163)"/>
</clipPath>
<clipPath id="clip12_437_49331">
<rect x="194" y="163" width="24" height="24" rx="12" fill="white"/>
</clipPath>
</defs>
</svg>
