<svg width="804" height="176" viewBox="0 0 804 176" fill="none" xmlns="http://www.w3.org/2000/svg">
<rect width="804" height="176" fill="#F9FAFB"/>
<rect x="74.5" y="70.5" width="319" height="35" rx="2.5" fill="white"/>
<path d="M89.8778 93.1477C89.2377 93.1477 88.676 92.9954 88.1928 92.6907C87.7127 92.386 87.3372 91.9598 87.0664 91.4119C86.7987 90.8641 86.6648 90.224 86.6648 89.4915C86.6648 88.7528 86.7987 88.1081 87.0664 87.5572C87.3372 87.0063 87.7127 86.5785 88.1928 86.2738C88.676 85.9691 89.2377 85.8168 89.8778 85.8168C90.518 85.8168 91.0781 85.9691 91.5582 86.2738C92.0414 86.5785 92.4169 87.0063 92.6847 87.5572C92.9555 88.1081 93.0909 88.7528 93.0909 89.4915C93.0909 90.224 92.9555 90.8641 92.6847 91.4119C92.4169 91.9598 92.0414 92.386 91.5582 92.6907C91.0781 92.9954 90.518 93.1477 89.8778 93.1477ZM89.8778 92.169C90.3641 92.169 90.7642 92.0444 91.0781 91.7951C91.392 91.5458 91.6244 91.218 91.7752 90.8118C91.926 90.4055 92.0014 89.9654 92.0014 89.4915C92.0014 89.0175 91.926 88.5759 91.7752 88.1665C91.6244 87.7572 91.392 87.4264 91.0781 87.174C90.7642 86.9216 90.3641 86.7955 89.8778 86.7955C89.3916 86.7955 88.9915 86.9216 88.6776 87.174C88.3636 87.4264 88.1313 87.7572 87.9805 88.1665C87.8297 88.5759 87.7543 89.0175 87.7543 89.4915C87.7543 89.9654 87.8297 90.4055 87.9805 90.8118C88.1313 91.218 88.3636 91.5458 88.6776 91.7951C88.9915 92.0444 89.3916 92.169 89.8778 92.169ZM95.8435 83.5455V93H94.754V83.5455H95.8435ZM97.839 93V85.9091H98.9284V93H97.839ZM98.3929 84.7273C98.1806 84.7273 97.9975 84.6549 97.8436 84.5103C97.6928 84.3656 97.6174 84.1918 97.6174 83.9886C97.6174 83.7855 97.6928 83.6116 97.8436 83.467C97.9975 83.3223 98.1806 83.25 98.3929 83.25C98.6053 83.25 98.7869 83.3223 98.9377 83.467C99.0916 83.6116 99.1685 83.7855 99.1685 83.9886C99.1685 84.1918 99.0916 84.3656 98.9377 84.5103C98.7869 84.6549 98.6053 84.7273 98.3929 84.7273ZM106.722 85.9091L104.1 93H102.992L100.37 85.9091H101.552L103.509 91.5597H103.583L105.54 85.9091H106.722ZM108.16 93V85.9091H109.25V93H108.16ZM108.714 84.7273C108.502 84.7273 108.319 84.6549 108.165 84.5103C108.014 84.3656 107.939 84.1918 107.939 83.9886C107.939 83.7855 108.014 83.6116 108.165 83.467C108.319 83.3223 108.502 83.25 108.714 83.25C108.927 83.25 109.108 83.3223 109.259 83.467C109.413 83.6116 109.49 83.7855 109.49 83.9886C109.49 84.1918 109.413 84.3656 109.259 84.5103C109.108 84.6549 108.927 84.7273 108.714 84.7273ZM113.332 93.1662C112.883 93.1662 112.475 93.0816 112.108 92.9123C111.742 92.7399 111.451 92.4922 111.236 92.169C111.021 91.8428 110.913 91.4489 110.913 90.9872C110.913 90.581 110.993 90.2517 111.153 89.9993C111.313 89.7438 111.527 89.5438 111.795 89.3991C112.062 89.2545 112.358 89.1468 112.681 89.076C113.007 89.0021 113.335 88.9437 113.664 88.9006C114.095 88.8452 114.444 88.8036 114.712 88.7759C114.983 88.7451 115.18 88.6944 115.303 88.6236C115.429 88.5528 115.492 88.4297 115.492 88.2543V88.2173C115.492 87.7618 115.368 87.4079 115.118 87.1555C114.872 86.9032 114.498 86.777 113.997 86.777C113.477 86.777 113.069 86.8909 112.773 87.1186C112.478 87.3464 112.27 87.5895 112.15 87.848L111.116 87.4787C111.301 87.0478 111.547 86.7124 111.855 86.4723C112.165 86.2292 112.504 86.0599 112.87 85.9645C113.24 85.866 113.603 85.8168 113.96 85.8168C114.187 85.8168 114.449 85.8445 114.744 85.8999C115.043 85.9522 115.331 86.0614 115.608 86.2276C115.888 86.3938 116.12 86.6446 116.305 86.9801C116.49 87.3156 116.582 87.7649 116.582 88.3281V93H115.492V92.0398H115.437C115.363 92.1937 115.24 92.3583 115.068 92.5337C114.895 92.7092 114.666 92.8584 114.38 92.9815C114.094 93.1046 113.744 93.1662 113.332 93.1662ZM113.498 92.1875C113.929 92.1875 114.292 92.1029 114.588 91.9336C114.886 91.7643 115.111 91.5458 115.262 91.2781C115.415 91.0103 115.492 90.7287 115.492 90.4332V89.4361C115.446 89.4915 115.345 89.5423 115.188 89.5884C115.034 89.6315 114.855 89.67 114.652 89.7038C114.452 89.7346 114.257 89.7623 114.066 89.7869C113.878 89.8085 113.726 89.8269 113.609 89.8423C113.326 89.8793 113.061 89.9393 112.815 90.0224C112.572 90.1024 112.375 90.224 112.224 90.3871C112.076 90.5471 112.002 90.7656 112.002 91.0426C112.002 91.4212 112.142 91.7074 112.422 91.9013C112.706 92.0921 113.064 92.1875 113.498 92.1875ZM124.018 95.4929C123.076 95.4929 122.244 95.3636 121.52 95.1051C120.797 94.8497 120.189 94.4727 119.697 93.9741C119.204 93.4755 118.832 92.8646 118.58 92.1413C118.327 91.4181 118.201 90.5902 118.201 89.6577C118.201 88.7559 118.329 87.9496 118.584 87.2386C118.843 86.5277 119.217 85.9245 119.706 85.429C120.198 84.9304 120.796 84.5503 121.497 84.2887C122.202 84.0271 122.999 83.8963 123.889 83.8963C124.753 83.8963 125.511 84.0379 126.16 84.321C126.812 84.6011 127.357 84.9812 127.794 85.4613C128.234 85.9383 128.564 86.4754 128.782 87.0724C129.004 87.6695 129.114 88.285 129.114 88.919C129.114 89.3653 129.093 89.8177 129.05 90.2763C129.007 90.7348 128.916 91.1565 128.777 91.5412C128.639 91.9228 128.425 92.2306 128.136 92.4645C127.85 92.6984 127.462 92.8153 126.972 92.8153C126.757 92.8153 126.52 92.7815 126.261 92.7138C126.003 92.6461 125.774 92.5337 125.574 92.3768C125.374 92.2198 125.255 92.009 125.218 91.7443H125.163C125.089 91.9228 124.975 92.0921 124.821 92.2521C124.67 92.4122 124.472 92.5399 124.226 92.6353C123.982 92.7307 123.685 92.7723 123.335 92.7599C122.935 92.7446 122.582 92.6553 122.277 92.4922C121.973 92.326 121.717 92.1013 121.511 91.8182C121.308 91.532 121.154 91.2011 121.049 90.8256C120.948 90.4471 120.897 90.0393 120.897 89.6023C120.897 89.1868 120.959 88.8067 121.082 88.462C121.205 88.1173 121.376 87.8157 121.594 87.5572C121.816 87.2987 122.074 87.0924 122.37 86.9386C122.668 86.7816 122.99 86.6847 123.335 86.6477C123.642 86.617 123.922 86.6308 124.175 86.6893C124.427 86.7447 124.635 86.8293 124.798 86.9432C124.961 87.054 125.064 87.1771 125.107 87.3125H125.163V86.7955H126.141V90.9688C126.141 91.2273 126.214 91.455 126.358 91.652C126.503 91.849 126.714 91.9474 126.991 91.9474C127.305 91.9474 127.545 91.8397 127.711 91.6243C127.88 91.4089 127.996 91.0765 128.057 90.6271C128.122 90.1778 128.154 89.6023 128.154 88.9006C128.154 88.4882 128.097 88.0819 127.983 87.6818C127.873 87.2786 127.703 86.9016 127.476 86.5508C127.251 86.1999 126.966 85.8906 126.622 85.6229C126.277 85.3551 125.872 85.1458 125.407 84.995C124.946 84.8411 124.421 84.7642 123.833 84.7642C123.11 84.7642 122.462 84.8765 121.89 85.1012C121.32 85.3228 120.836 85.6475 120.435 86.0753C120.038 86.5 119.735 87.017 119.526 87.6264C119.32 88.2327 119.217 88.9221 119.217 89.6946C119.217 90.4794 119.32 91.1765 119.526 91.7859C119.735 92.3952 120.043 92.9092 120.449 93.3278C120.859 93.7463 121.365 94.0633 121.968 94.2788C122.571 94.4973 123.267 94.6065 124.055 94.6065C124.393 94.6065 124.727 94.5742 125.057 94.5096C125.386 94.445 125.677 94.3742 125.929 94.2972C126.181 94.2203 126.363 94.1634 126.474 94.1264L126.732 94.9759C126.542 95.0559 126.292 95.1359 125.984 95.2159C125.68 95.2959 125.354 95.3621 125.006 95.4144C124.661 95.4667 124.332 95.4929 124.018 95.4929ZM123.482 91.8182C123.895 91.8182 124.229 91.7351 124.484 91.5689C124.74 91.4027 124.926 91.1519 125.043 90.8164C125.16 90.4809 125.218 90.0578 125.218 89.5469C125.218 89.0298 125.153 88.6267 125.024 88.3374C124.895 88.0481 124.704 87.8449 124.452 87.728C124.199 87.611 123.889 87.5526 123.519 87.5526C123.168 87.5526 122.868 87.6449 122.619 87.8295C122.373 88.0111 122.184 88.2543 122.051 88.5589C121.922 88.8606 121.857 89.1899 121.857 89.5469C121.857 89.9408 121.91 90.3117 122.014 90.6594C122.119 91.0041 122.29 91.2842 122.527 91.4996C122.764 91.712 123.082 91.8182 123.482 91.8182ZM135.214 90.1009V85.9091H136.303V93H135.214V91.7997H135.14C134.974 92.1598 134.715 92.466 134.365 92.7184C134.014 92.9677 133.57 93.0923 133.035 93.0923C132.592 93.0923 132.198 92.9954 131.853 92.8015C131.508 92.6045 131.238 92.3091 131.041 91.9151C130.844 91.5181 130.745 91.018 130.745 90.4148V85.9091H131.835V90.3409C131.835 90.858 131.979 91.2704 132.269 91.5781C132.561 91.8859 132.933 92.0398 133.386 92.0398C133.657 92.0398 133.932 91.9705 134.212 91.832C134.495 91.6935 134.732 91.4812 134.923 91.195C135.117 90.9087 135.214 90.544 135.214 90.1009ZM139.388 88.7344V93H138.299V85.9091H139.351V87.017H139.444C139.61 86.657 139.862 86.3677 140.201 86.1491C140.539 85.9276 140.976 85.8168 141.512 85.8168C141.992 85.8168 142.412 85.9152 142.772 86.1122C143.132 86.3061 143.412 86.6016 143.612 86.9986C143.813 87.3925 143.913 87.8911 143.913 88.4943V93H142.823V88.5682C142.823 88.0111 142.678 87.5772 142.389 87.2663C142.1 86.9524 141.703 86.7955 141.198 86.7955C140.85 86.7955 140.539 86.8709 140.266 87.0217C139.995 87.1725 139.781 87.3925 139.624 87.6818C139.467 87.9711 139.388 88.322 139.388 88.7344ZM148.987 85.9091V86.8324H145.312V85.9091H148.987ZM146.384 84.2102H147.473V90.9688C147.473 91.2765 147.518 91.5073 147.607 91.6612C147.699 91.812 147.816 91.9136 147.958 91.9659C148.102 92.0152 148.255 92.0398 148.415 92.0398C148.535 92.0398 148.633 92.0336 148.71 92.0213C148.787 92.0059 148.849 91.9936 148.895 91.9844L149.116 92.9631C149.043 92.9908 148.94 93.0185 148.807 93.0462C148.675 93.0769 148.507 93.0923 148.304 93.0923C147.996 93.0923 147.695 93.0262 147.399 92.8938C147.107 92.7615 146.864 92.5599 146.67 92.2891C146.479 92.0182 146.384 91.6766 146.384 91.2642V84.2102ZM150.626 93V85.9091H151.716V93H150.626ZM151.18 84.7273C150.968 84.7273 150.785 84.6549 150.631 84.5103C150.48 84.3656 150.404 84.1918 150.404 83.9886C150.404 83.7855 150.48 83.6116 150.631 83.467C150.785 83.3223 150.968 83.25 151.18 83.25C151.392 83.25 151.574 83.3223 151.725 83.467C151.879 83.6116 151.956 83.7855 151.956 83.9886C151.956 84.1918 151.879 84.3656 151.725 84.5103C151.574 84.6549 151.392 84.7273 151.18 84.7273ZM156.795 85.9091V86.8324H153.12V85.9091H156.795ZM154.191 84.2102H155.281V90.9688C155.281 91.2765 155.325 91.5073 155.415 91.6612C155.507 91.812 155.624 91.9136 155.765 91.9659C155.91 92.0152 156.062 92.0398 156.222 92.0398C156.342 92.0398 156.441 92.0336 156.518 92.0213C156.595 92.0059 156.656 91.9936 156.703 91.9844L156.924 92.9631C156.85 92.9908 156.747 93.0185 156.615 93.0462C156.482 93.0769 156.315 93.0923 156.112 93.0923C155.804 93.0923 155.502 93.0262 155.207 92.8938C154.914 92.7615 154.671 92.5599 154.477 92.2891C154.287 92.0182 154.191 91.6766 154.191 91.2642V84.2102ZM159.676 83.5455V93H158.586V83.5455H159.676ZM164.644 93.1477C163.961 93.1477 163.371 92.9969 162.876 92.6953C162.383 92.3906 162.003 91.9659 161.736 91.4212C161.471 90.8733 161.339 90.2363 161.339 89.5099C161.339 88.7836 161.471 88.1435 161.736 87.5895C162.003 87.0324 162.376 86.5985 162.853 86.2876C163.333 85.9737 163.893 85.8168 164.533 85.8168C164.903 85.8168 165.267 85.8783 165.627 86.0014C165.987 86.1245 166.315 86.3246 166.611 86.6016C166.906 86.8755 167.142 87.2386 167.317 87.6911C167.492 88.1435 167.58 88.7005 167.58 89.3622V89.8239H162.114V88.8821H166.472C166.472 88.482 166.392 88.125 166.232 87.8111C166.075 87.4972 165.85 87.2494 165.558 87.0678C165.269 86.8862 164.927 86.7955 164.533 86.7955C164.099 86.7955 163.724 86.9032 163.407 87.1186C163.093 87.331 162.851 87.608 162.682 87.9496C162.513 88.2912 162.428 88.6574 162.428 89.0483V89.6761C162.428 90.2116 162.52 90.6656 162.705 91.038C162.893 91.4073 163.153 91.6889 163.485 91.8828C163.818 92.0736 164.204 92.169 164.644 92.169C164.93 92.169 165.189 92.129 165.42 92.049C165.653 91.9659 165.855 91.8428 166.024 91.6797C166.194 91.5135 166.324 91.3073 166.417 91.0611L167.469 91.3565C167.358 91.7135 167.172 92.0275 166.911 92.2983C166.649 92.5661 166.326 92.7753 165.941 92.9261C165.557 93.0739 165.124 93.1477 164.644 93.1477ZM171.915 93.1477C171.324 93.1477 170.802 92.9985 170.35 92.6999C169.898 92.3983 169.544 91.9736 169.288 91.4258C169.033 90.8749 168.905 90.224 168.905 89.473C168.905 88.7282 169.033 88.0819 169.288 87.5341C169.544 86.9863 169.899 86.5631 170.355 86.2646C170.81 85.966 171.336 85.8168 171.933 85.8168C172.395 85.8168 172.76 85.8937 173.028 86.0476C173.298 86.1984 173.505 86.3707 173.646 86.5646C173.791 86.7554 173.903 86.9124 173.983 87.0355H174.075V83.5455H175.165V93H174.112V91.9105H173.983C173.903 92.0398 173.789 92.2029 173.642 92.3999C173.494 92.5937 173.283 92.7676 173.009 92.9215C172.735 93.0723 172.37 93.1477 171.915 93.1477ZM172.063 92.169C172.5 92.169 172.869 92.0552 173.171 91.8274C173.472 91.5966 173.702 91.2781 173.858 90.8718C174.015 90.4625 174.094 89.9901 174.094 89.4545C174.094 88.9252 174.017 88.462 173.863 88.065C173.709 87.6649 173.481 87.354 173.18 87.1325C172.878 86.9078 172.506 86.7955 172.063 86.7955C171.601 86.7955 171.216 86.9139 170.909 87.1509C170.604 87.3848 170.375 87.7034 170.221 88.1065C170.07 88.5066 169.994 88.956 169.994 89.4545C169.994 89.9593 170.071 90.4179 170.225 90.8303C170.382 91.2396 170.613 91.5658 170.918 91.8089C171.226 92.049 171.607 92.169 172.063 92.169ZM181.78 90.1009V85.9091H182.87V93H181.78V91.7997H181.706C181.54 92.1598 181.282 92.466 180.931 92.7184C180.58 92.9677 180.137 93.0923 179.601 93.0923C179.158 93.0923 178.764 92.9954 178.42 92.8015C178.075 92.6045 177.804 92.3091 177.607 91.9151C177.41 91.5181 177.312 91.018 177.312 90.4148V85.9091H178.401V90.3409C178.401 90.858 178.546 91.2704 178.835 91.5781C179.127 91.8859 179.5 92.0398 179.952 92.0398C180.223 92.0398 180.499 91.9705 180.779 91.832C181.062 91.6935 181.299 91.4812 181.49 91.195C181.683 90.9087 181.78 90.544 181.78 90.1009ZM184.865 93V85.9091H185.955V93H184.865ZM185.419 84.7273C185.207 84.7273 185.024 84.6549 184.87 84.5103C184.719 84.3656 184.644 84.1918 184.644 83.9886C184.644 83.7855 184.719 83.6116 184.87 83.467C185.024 83.3223 185.207 83.25 185.419 83.25C185.632 83.25 185.813 83.3223 185.964 83.467C186.118 83.6116 186.195 83.7855 186.195 83.9886C186.195 84.1918 186.118 84.3656 185.964 84.5103C185.813 84.6549 185.632 84.7273 185.419 84.7273ZM188.744 93.0739C188.517 93.0739 188.321 92.9923 188.158 92.8292C187.995 92.6661 187.913 92.4706 187.913 92.2429C187.913 92.0152 187.995 91.8197 188.158 91.6566C188.321 91.4935 188.517 91.4119 188.744 91.4119C188.972 91.4119 189.167 91.4935 189.331 91.6566C189.494 91.8197 189.575 92.0152 189.575 92.2429C189.575 92.3937 189.537 92.5322 189.46 92.6584C189.386 92.7846 189.286 92.8861 189.16 92.9631C189.037 93.0369 188.898 93.0739 188.744 93.0739ZM194.411 93.1477C193.746 93.1477 193.174 92.9908 192.694 92.6768C192.214 92.3629 191.844 91.9305 191.586 91.3796C191.327 90.8287 191.198 90.1993 191.198 89.4915C191.198 88.7713 191.33 88.1358 191.595 87.5849C191.863 87.0309 192.235 86.5985 192.712 86.2876C193.192 85.9737 193.752 85.8168 194.393 85.8168C194.891 85.8168 195.34 85.9091 195.741 86.0938C196.141 86.2784 196.468 86.5369 196.724 86.8693C196.979 87.2017 197.138 87.5895 197.199 88.0327H196.11C196.027 87.7095 195.842 87.4233 195.556 87.174C195.273 86.9216 194.891 86.7955 194.411 86.7955C193.986 86.7955 193.614 86.9062 193.294 87.1278C192.977 87.3464 192.729 87.6557 192.551 88.0558C192.375 88.4528 192.287 88.919 192.287 89.4545C192.287 90.0024 192.374 90.4794 192.546 90.8857C192.721 91.2919 192.968 91.6074 193.285 91.832C193.605 92.0567 193.98 92.169 194.411 92.169C194.694 92.169 194.951 92.1198 195.182 92.0213C195.413 91.9228 195.608 91.7812 195.768 91.5966C195.928 91.4119 196.042 91.1903 196.11 90.9318H197.199C197.138 91.3504 196.985 91.7274 196.742 92.0629C196.502 92.3952 196.184 92.6599 195.787 92.8569C195.393 93.0508 194.934 93.1477 194.411 93.1477ZM201.673 93.1477C201.033 93.1477 200.471 92.9954 199.988 92.6907C199.508 92.386 199.132 91.9598 198.861 91.4119C198.594 90.8641 198.46 90.224 198.46 89.4915C198.46 88.7528 198.594 88.1081 198.861 87.5572C199.132 87.0063 199.508 86.5785 199.988 86.2738C200.471 85.9691 201.033 85.8168 201.673 85.8168C202.313 85.8168 202.873 85.9691 203.353 86.2738C203.836 86.5785 204.212 87.0063 204.48 87.5572C204.75 88.1081 204.886 88.7528 204.886 89.4915C204.886 90.224 204.75 90.8641 204.48 91.4119C204.212 91.9598 203.836 92.386 203.353 92.6907C202.873 92.9954 202.313 93.1477 201.673 93.1477ZM201.673 92.169C202.159 92.169 202.559 92.0444 202.873 91.7951C203.187 91.5458 203.419 91.218 203.57 90.8118C203.721 90.4055 203.796 89.9654 203.796 89.4915C203.796 89.0175 203.721 88.5759 203.57 88.1665C203.419 87.7572 203.187 87.4264 202.873 87.174C202.559 86.9216 202.159 86.7955 201.673 86.7955C201.186 86.7955 200.786 86.9216 200.472 87.174C200.159 87.4264 199.926 87.7572 199.775 88.1665C199.625 88.5759 199.549 89.0175 199.549 89.4915C199.549 89.9654 199.625 90.4055 199.775 90.8118C199.926 91.218 200.159 91.5458 200.472 91.7951C200.786 92.0444 201.186 92.169 201.673 92.169ZM206.549 93V85.9091H207.601V87.017H207.694C207.842 86.6385 208.08 86.3446 208.409 86.1353C208.739 85.9229 209.134 85.8168 209.596 85.8168C210.064 85.8168 210.453 85.9229 210.764 86.1353C211.078 86.3446 211.322 86.6385 211.498 87.017H211.572C211.753 86.6508 212.026 86.36 212.389 86.1445C212.752 85.926 213.187 85.8168 213.695 85.8168C214.329 85.8168 214.848 86.0153 215.251 86.4123C215.654 86.8062 215.856 87.4202 215.856 88.2543V93H214.766V88.2543C214.766 87.7311 214.623 87.3571 214.337 87.1325C214.051 86.9078 213.714 86.7955 213.326 86.7955C212.827 86.7955 212.441 86.9463 212.167 87.2479C211.893 87.5464 211.756 87.925 211.756 88.3835V93H210.648V88.1435C210.648 87.7403 210.518 87.4156 210.256 87.1694C209.994 86.9201 209.657 86.7955 209.245 86.7955C208.962 86.7955 208.697 86.8709 208.451 87.0217C208.208 87.1725 208.011 87.3817 207.86 87.6495C207.712 87.9142 207.638 88.2204 207.638 88.5682V93H206.549Z" fill="#959BA3"/>
<rect x="74.5" y="70.5" width="319" height="35" rx="2.5" stroke="#D8DEE9"/>
<path d="M410.959 59V50.2727H416.43V51.4062H412.276V54.0653H416.145V55.1946H412.276V57.8665H416.482V59H410.959ZM418.087 59V52.4545H419.31V53.5199H419.391C419.527 53.1591 419.75 52.8778 420.06 52.6761C420.37 52.4716 420.74 52.3693 421.172 52.3693C421.61 52.3693 421.976 52.4716 422.272 52.6761C422.57 52.8807 422.79 53.1619 422.932 53.5199H423C423.157 53.1705 423.405 52.892 423.746 52.6847C424.087 52.4744 424.493 52.3693 424.965 52.3693C425.559 52.3693 426.043 52.5554 426.418 52.9276C426.796 53.2997 426.985 53.8608 426.985 54.6108V59H425.711V54.7301C425.711 54.2869 425.59 53.9659 425.348 53.767C425.107 53.5682 424.819 53.4688 424.483 53.4688C424.069 53.4688 423.746 53.5966 423.516 53.8523C423.286 54.1051 423.171 54.4304 423.171 54.8281V59H421.901V54.6491C421.901 54.294 421.79 54.0085 421.569 53.7926C421.347 53.5767 421.059 53.4688 420.703 53.4688C420.462 53.4688 420.239 53.5327 420.034 53.6605C419.833 53.7855 419.669 53.9602 419.544 54.1847C419.422 54.4091 419.361 54.669 419.361 54.9645V59H418.087ZM430.597 59.1449C430.183 59.1449 429.808 59.0682 429.472 58.9148C429.137 58.7585 428.871 58.5327 428.675 58.2372C428.482 57.9418 428.386 57.5795 428.386 57.1506C428.386 56.7812 428.457 56.4773 428.599 56.2386C428.741 56 428.933 55.8111 429.174 55.6719C429.415 55.5327 429.685 55.4276 429.984 55.3565C430.282 55.2855 430.586 55.2315 430.896 55.1946C431.288 55.1491 431.606 55.1122 431.85 55.0838C432.094 55.0526 432.272 55.0028 432.383 54.9347C432.494 54.8665 432.549 54.7557 432.549 54.6023V54.5724C432.549 54.2003 432.444 53.9119 432.234 53.7074C432.026 53.5028 431.717 53.4006 431.305 53.4006C430.876 53.4006 430.538 53.4957 430.29 53.6861C430.046 53.8736 429.877 54.0824 429.783 54.3125L428.586 54.0398C428.728 53.642 428.935 53.321 429.208 53.0767C429.484 52.8295 429.8 52.6506 430.158 52.5398C430.516 52.4261 430.893 52.3693 431.288 52.3693C431.549 52.3693 431.826 52.4006 432.119 52.4631C432.414 52.5227 432.69 52.6335 432.945 52.7955C433.204 52.9574 433.415 53.1889 433.58 53.4901C433.745 53.7884 433.827 54.1761 433.827 54.6534V59H432.583V58.1051H432.532C432.45 58.2699 432.326 58.4318 432.161 58.5909C431.996 58.75 431.785 58.8821 431.526 58.9872C431.268 59.0923 430.958 59.1449 430.597 59.1449ZM430.874 58.1222C431.227 58.1222 431.528 58.0526 431.778 57.9134C432.031 57.7741 432.222 57.5923 432.353 57.3679C432.487 57.1406 432.553 56.8977 432.553 56.6392V55.7955C432.508 55.8409 432.42 55.8835 432.289 55.9233C432.161 55.9602 432.015 55.9929 431.85 56.0213C431.685 56.0469 431.525 56.071 431.369 56.0938C431.212 56.1136 431.082 56.1307 430.977 56.1449C430.729 56.1761 430.504 56.2287 430.299 56.3026C430.097 56.3764 429.935 56.483 429.813 56.6222C429.694 56.7585 429.634 56.9403 429.634 57.1676C429.634 57.483 429.751 57.7216 429.984 57.8835C430.217 58.0426 430.513 58.1222 430.874 58.1222ZM435.525 59V52.4545H436.799V59H435.525ZM436.168 51.4446C435.946 51.4446 435.756 51.3707 435.597 51.223C435.441 51.0724 435.363 50.8935 435.363 50.6861C435.363 50.4759 435.441 50.2969 435.597 50.1491C435.756 49.9986 435.946 49.9233 436.168 49.9233C436.39 49.9233 436.578 49.9986 436.735 50.1491C436.894 50.2969 436.973 50.4759 436.973 50.6861C436.973 50.8935 436.894 51.0724 436.735 51.223C436.578 51.3707 436.39 51.4446 436.168 51.4446ZM439.787 50.2727V59H438.513V50.2727H439.787Z" fill="#344054"/>
<rect x="410.5" y="70.5" width="319" height="35" rx="2.5" fill="white"/>
<path d="M440.335 82.9987C440.335 82.082 439.585 81.332 438.668 81.332H425.335C424.418 81.332 423.668 82.082 423.668 82.9987M440.335 82.9987V92.9987C440.335 93.9154 439.585 94.6654 438.668 94.6654H425.335C424.418 94.6654 423.668 93.9154 423.668 92.9987V82.9987M440.335 82.9987L432.001 88.832L423.668 82.9987" stroke="#959BA3" stroke-width="1.66667" stroke-linecap="round" stroke-linejoin="round"/>
<path d="M453.878 93.1477C453.238 93.1477 452.676 92.9954 452.193 92.6907C451.713 92.386 451.337 91.9598 451.066 91.4119C450.799 90.8641 450.665 90.224 450.665 89.4915C450.665 88.7528 450.799 88.1081 451.066 87.5572C451.337 87.0063 451.713 86.5785 452.193 86.2738C452.676 85.9691 453.238 85.8168 453.878 85.8168C454.518 85.8168 455.078 85.9691 455.558 86.2738C456.041 86.5785 456.417 87.0063 456.685 87.5572C456.955 88.1081 457.091 88.7528 457.091 89.4915C457.091 90.224 456.955 90.8641 456.685 91.4119C456.417 91.9598 456.041 92.386 455.558 92.6907C455.078 92.9954 454.518 93.1477 453.878 93.1477ZM453.878 92.169C454.364 92.169 454.764 92.0444 455.078 91.7951C455.392 91.5458 455.624 91.218 455.775 90.8118C455.926 90.4055 456.001 89.9654 456.001 89.4915C456.001 89.0175 455.926 88.5759 455.775 88.1665C455.624 87.7572 455.392 87.4264 455.078 87.174C454.764 86.9216 454.364 86.7955 453.878 86.7955C453.392 86.7955 452.991 86.9216 452.678 87.174C452.364 87.4264 452.131 87.7572 451.98 88.1665C451.83 88.5759 451.754 89.0175 451.754 89.4915C451.754 89.9654 451.83 90.4055 451.98 90.8118C452.131 91.218 452.364 91.5458 452.678 91.7951C452.991 92.0444 453.392 92.169 453.878 92.169ZM459.843 83.5455V93H458.754V83.5455H459.843ZM461.839 93V85.9091H462.928V93H461.839ZM462.393 84.7273C462.181 84.7273 461.997 84.6549 461.844 84.5103C461.693 84.3656 461.617 84.1918 461.617 83.9886C461.617 83.7855 461.693 83.6116 461.844 83.467C461.997 83.3223 462.181 83.25 462.393 83.25C462.605 83.25 462.787 83.3223 462.938 83.467C463.092 83.6116 463.169 83.7855 463.169 83.9886C463.169 84.1918 463.092 84.3656 462.938 84.5103C462.787 84.6549 462.605 84.7273 462.393 84.7273ZM470.722 85.9091L468.1 93H466.992L464.37 85.9091H465.552L467.509 91.5597H467.583L469.54 85.9091H470.722ZM472.16 93V85.9091H473.25V93H472.16ZM472.714 84.7273C472.502 84.7273 472.319 84.6549 472.165 84.5103C472.014 84.3656 471.939 84.1918 471.939 83.9886C471.939 83.7855 472.014 83.6116 472.165 83.467C472.319 83.3223 472.502 83.25 472.714 83.25C472.927 83.25 473.108 83.3223 473.259 83.467C473.413 83.6116 473.49 83.7855 473.49 83.9886C473.49 84.1918 473.413 84.3656 473.259 84.5103C473.108 84.6549 472.927 84.7273 472.714 84.7273ZM477.332 93.1662C476.883 93.1662 476.475 93.0816 476.108 92.9123C475.742 92.7399 475.451 92.4922 475.236 92.169C475.021 91.8428 474.913 91.4489 474.913 90.9872C474.913 90.581 474.993 90.2517 475.153 89.9993C475.313 89.7438 475.527 89.5438 475.795 89.3991C476.062 89.2545 476.358 89.1468 476.681 89.076C477.007 89.0021 477.335 88.9437 477.664 88.9006C478.095 88.8452 478.444 88.8036 478.712 88.7759C478.983 88.7451 479.18 88.6944 479.303 88.6236C479.429 88.5528 479.492 88.4297 479.492 88.2543V88.2173C479.492 87.7618 479.368 87.4079 479.118 87.1555C478.872 86.9032 478.498 86.777 477.997 86.777C477.477 86.777 477.069 86.8909 476.773 87.1186C476.478 87.3464 476.27 87.5895 476.15 87.848L475.116 87.4787C475.301 87.0478 475.547 86.7124 475.855 86.4723C476.165 86.2292 476.504 86.0599 476.87 85.9645C477.24 85.866 477.603 85.8168 477.96 85.8168C478.187 85.8168 478.449 85.8445 478.744 85.8999C479.043 85.9522 479.331 86.0614 479.608 86.2276C479.888 86.3938 480.12 86.6446 480.305 86.9801C480.49 87.3156 480.582 87.7649 480.582 88.3281V93H479.492V92.0398H479.437C479.363 92.1937 479.24 92.3583 479.068 92.5337C478.895 92.7092 478.666 92.8584 478.38 92.9815C478.094 93.1046 477.744 93.1662 477.332 93.1662ZM477.498 92.1875C477.929 92.1875 478.292 92.1029 478.588 91.9336C478.886 91.7643 479.111 91.5458 479.262 91.2781C479.415 91.0103 479.492 90.7287 479.492 90.4332V89.4361C479.446 89.4915 479.345 89.5423 479.188 89.5884C479.034 89.6315 478.855 89.67 478.652 89.7038C478.452 89.7346 478.257 89.7623 478.066 89.7869C477.878 89.8085 477.726 89.8269 477.609 89.8423C477.326 89.8793 477.061 89.9393 476.815 90.0224C476.572 90.1024 476.375 90.224 476.224 90.3871C476.076 90.5471 476.002 90.7656 476.002 91.0426C476.002 91.4212 476.142 91.7074 476.422 91.9013C476.706 92.0921 477.064 92.1875 477.498 92.1875ZM488.018 95.4929C487.076 95.4929 486.244 95.3636 485.52 95.1051C484.797 94.8497 484.189 94.4727 483.697 93.9741C483.204 93.4755 482.832 92.8646 482.58 92.1413C482.327 91.4181 482.201 90.5902 482.201 89.6577C482.201 88.7559 482.329 87.9496 482.584 87.2386C482.843 86.5277 483.217 85.9245 483.706 85.429C484.198 84.9304 484.796 84.5503 485.497 84.2887C486.202 84.0271 486.999 83.8963 487.889 83.8963C488.753 83.8963 489.511 84.0379 490.16 84.321C490.812 84.6011 491.357 84.9812 491.794 85.4613C492.234 85.9383 492.564 86.4754 492.782 87.0724C493.004 87.6695 493.114 88.285 493.114 88.919C493.114 89.3653 493.093 89.8177 493.05 90.2763C493.007 90.7348 492.916 91.1565 492.777 91.5412C492.639 91.9228 492.425 92.2306 492.136 92.4645C491.85 92.6984 491.462 92.8153 490.972 92.8153C490.757 92.8153 490.52 92.7815 490.261 92.7138C490.003 92.6461 489.774 92.5337 489.574 92.3768C489.374 92.2198 489.255 92.009 489.218 91.7443H489.163C489.089 91.9228 488.975 92.0921 488.821 92.2521C488.67 92.4122 488.472 92.5399 488.226 92.6353C487.982 92.7307 487.685 92.7723 487.335 92.7599C486.935 92.7446 486.582 92.6553 486.277 92.4922C485.973 92.326 485.717 92.1013 485.511 91.8182C485.308 91.532 485.154 91.2011 485.049 90.8256C484.948 90.4471 484.897 90.0393 484.897 89.6023C484.897 89.1868 484.959 88.8067 485.082 88.462C485.205 88.1173 485.376 87.8157 485.594 87.5572C485.816 87.2987 486.074 87.0924 486.37 86.9386C486.668 86.7816 486.99 86.6847 487.335 86.6477C487.642 86.617 487.922 86.6308 488.175 86.6893C488.427 86.7447 488.635 86.8293 488.798 86.9432C488.961 87.054 489.064 87.1771 489.107 87.3125H489.163V86.7955H490.141V90.9688C490.141 91.2273 490.214 91.455 490.358 91.652C490.503 91.849 490.714 91.9474 490.991 91.9474C491.305 91.9474 491.545 91.8397 491.711 91.6243C491.88 91.4089 491.996 91.0765 492.057 90.6271C492.122 90.1778 492.154 89.6023 492.154 88.9006C492.154 88.4882 492.097 88.0819 491.983 87.6818C491.873 87.2786 491.703 86.9016 491.476 86.5508C491.251 86.1999 490.966 85.8906 490.622 85.6229C490.277 85.3551 489.872 85.1458 489.407 84.995C488.946 84.8411 488.421 84.7642 487.833 84.7642C487.11 84.7642 486.462 84.8765 485.89 85.1012C485.32 85.3228 484.836 85.6475 484.435 86.0753C484.038 86.5 483.735 87.017 483.526 87.6264C483.32 88.2327 483.217 88.9221 483.217 89.6946C483.217 90.4794 483.32 91.1765 483.526 91.7859C483.735 92.3952 484.043 92.9092 484.449 93.3278C484.859 93.7463 485.365 94.0633 485.968 94.2788C486.571 94.4973 487.267 94.6065 488.055 94.6065C488.393 94.6065 488.727 94.5742 489.057 94.5096C489.386 94.445 489.677 94.3742 489.929 94.2972C490.181 94.2203 490.363 94.1634 490.474 94.1264L490.732 94.9759C490.542 95.0559 490.292 95.1359 489.984 95.2159C489.68 95.2959 489.354 95.3621 489.006 95.4144C488.661 95.4667 488.332 95.4929 488.018 95.4929ZM487.482 91.8182C487.895 91.8182 488.229 91.7351 488.484 91.5689C488.74 91.4027 488.926 91.1519 489.043 90.8164C489.16 90.4809 489.218 90.0578 489.218 89.5469C489.218 89.0298 489.153 88.6267 489.024 88.3374C488.895 88.0481 488.704 87.8449 488.452 87.728C488.199 87.611 487.889 87.5526 487.519 87.5526C487.168 87.5526 486.868 87.6449 486.619 87.8295C486.373 88.0111 486.184 88.2543 486.051 88.5589C485.922 88.8606 485.857 89.1899 485.857 89.5469C485.857 89.9408 485.91 90.3117 486.014 90.6594C486.119 91.0041 486.29 91.2842 486.527 91.4996C486.764 91.712 487.082 91.8182 487.482 91.8182ZM499.214 90.1009V85.9091H500.303V93H499.214V91.7997H499.14C498.974 92.1598 498.715 92.466 498.365 92.7184C498.014 92.9677 497.57 93.0923 497.035 93.0923C496.592 93.0923 496.198 92.9954 495.853 92.8015C495.508 92.6045 495.238 92.3091 495.041 91.9151C494.844 91.5181 494.745 91.018 494.745 90.4148V85.9091H495.835V90.3409C495.835 90.858 495.979 91.2704 496.269 91.5781C496.561 91.8859 496.933 92.0398 497.386 92.0398C497.657 92.0398 497.932 91.9705 498.212 91.832C498.495 91.6935 498.732 91.4812 498.923 91.195C499.117 90.9087 499.214 90.544 499.214 90.1009ZM503.388 88.7344V93H502.299V85.9091H503.351V87.017H503.444C503.61 86.657 503.862 86.3677 504.201 86.1491C504.539 85.9276 504.976 85.8168 505.512 85.8168C505.992 85.8168 506.412 85.9152 506.772 86.1122C507.132 86.3061 507.412 86.6016 507.612 86.9986C507.813 87.3925 507.913 87.8911 507.913 88.4943V93H506.823V88.5682C506.823 88.0111 506.678 87.5772 506.389 87.2663C506.1 86.9524 505.703 86.7955 505.198 86.7955C504.85 86.7955 504.539 86.8709 504.266 87.0217C503.995 87.1725 503.781 87.3925 503.624 87.6818C503.467 87.9711 503.388 88.322 503.388 88.7344ZM512.987 85.9091V86.8324H509.312V85.9091H512.987ZM510.384 84.2102H511.473V90.9688C511.473 91.2765 511.518 91.5073 511.607 91.6612C511.699 91.812 511.816 91.9136 511.958 91.9659C512.102 92.0152 512.255 92.0398 512.415 92.0398C512.535 92.0398 512.633 92.0336 512.71 92.0213C512.787 92.0059 512.849 91.9936 512.895 91.9844L513.116 92.9631C513.043 92.9908 512.94 93.0185 512.807 93.0462C512.675 93.0769 512.507 93.0923 512.304 93.0923C511.996 93.0923 511.695 93.0262 511.399 92.8938C511.107 92.7615 510.864 92.5599 510.67 92.2891C510.479 92.0182 510.384 91.6766 510.384 91.2642V84.2102ZM514.626 93V85.9091H515.716V93H514.626ZM515.18 84.7273C514.968 84.7273 514.785 84.6549 514.631 84.5103C514.48 84.3656 514.404 84.1918 514.404 83.9886C514.404 83.7855 514.48 83.6116 514.631 83.467C514.785 83.3223 514.968 83.25 515.18 83.25C515.392 83.25 515.574 83.3223 515.725 83.467C515.879 83.6116 515.956 83.7855 515.956 83.9886C515.956 84.1918 515.879 84.3656 515.725 84.5103C515.574 84.6549 515.392 84.7273 515.18 84.7273ZM520.795 85.9091V86.8324H517.12V85.9091H520.795ZM518.191 84.2102H519.281V90.9688C519.281 91.2765 519.325 91.5073 519.415 91.6612C519.507 91.812 519.624 91.9136 519.765 91.9659C519.91 92.0152 520.062 92.0398 520.222 92.0398C520.342 92.0398 520.441 92.0336 520.518 92.0213C520.595 92.0059 520.656 91.9936 520.703 91.9844L520.924 92.9631C520.85 92.9908 520.747 93.0185 520.615 93.0462C520.482 93.0769 520.315 93.0923 520.112 93.0923C519.804 93.0923 519.502 93.0262 519.207 92.8938C518.914 92.7615 518.671 92.5599 518.477 92.2891C518.287 92.0182 518.191 91.6766 518.191 91.2642V84.2102ZM523.676 83.5455V93H522.586V83.5455H523.676ZM528.644 93.1477C527.961 93.1477 527.371 92.9969 526.876 92.6953C526.383 92.3906 526.003 91.9659 525.736 91.4212C525.471 90.8733 525.339 90.2363 525.339 89.5099C525.339 88.7836 525.471 88.1435 525.736 87.5895C526.003 87.0324 526.376 86.5985 526.853 86.2876C527.333 85.9737 527.893 85.8168 528.533 85.8168C528.903 85.8168 529.267 85.8783 529.627 86.0014C529.987 86.1245 530.315 86.3246 530.611 86.6016C530.906 86.8755 531.142 87.2386 531.317 87.6911C531.492 88.1435 531.58 88.7005 531.58 89.3622V89.8239H526.114V88.8821H530.472C530.472 88.482 530.392 88.125 530.232 87.8111C530.075 87.4972 529.85 87.2494 529.558 87.0678C529.269 86.8862 528.927 86.7955 528.533 86.7955C528.099 86.7955 527.724 86.9032 527.407 87.1186C527.093 87.331 526.851 87.608 526.682 87.9496C526.513 88.2912 526.428 88.6574 526.428 89.0483V89.6761C526.428 90.2116 526.52 90.6656 526.705 91.038C526.893 91.4073 527.153 91.6889 527.485 91.8828C527.818 92.0736 528.204 92.169 528.644 92.169C528.93 92.169 529.189 92.129 529.42 92.049C529.653 91.9659 529.855 91.8428 530.024 91.6797C530.194 91.5135 530.324 91.3073 530.417 91.0611L531.469 91.3565C531.358 91.7135 531.172 92.0275 530.911 92.2983C530.649 92.5661 530.326 92.7753 529.941 92.9261C529.557 93.0739 529.124 93.1477 528.644 93.1477ZM535.915 93.1477C535.324 93.1477 534.802 92.9985 534.35 92.6999C533.898 92.3983 533.544 91.9736 533.288 91.4258C533.033 90.8749 532.905 90.224 532.905 89.473C532.905 88.7282 533.033 88.0819 533.288 87.5341C533.544 86.9863 533.899 86.5631 534.355 86.2646C534.81 85.966 535.336 85.8168 535.933 85.8168C536.395 85.8168 536.76 85.8937 537.028 86.0476C537.298 86.1984 537.505 86.3707 537.646 86.5646C537.791 86.7554 537.903 86.9124 537.983 87.0355H538.075V83.5455H539.165V93H538.112V91.9105H537.983C537.903 92.0398 537.789 92.2029 537.642 92.3999C537.494 92.5937 537.283 92.7676 537.009 92.9215C536.735 93.0723 536.37 93.1477 535.915 93.1477ZM536.063 92.169C536.5 92.169 536.869 92.0552 537.171 91.8274C537.472 91.5966 537.702 91.2781 537.858 90.8718C538.015 90.4625 538.094 89.9901 538.094 89.4545C538.094 88.9252 538.017 88.462 537.863 88.065C537.709 87.6649 537.481 87.354 537.18 87.1325C536.878 86.9078 536.506 86.7955 536.063 86.7955C535.601 86.7955 535.216 86.9139 534.909 87.1509C534.604 87.3848 534.375 87.7034 534.221 88.1065C534.07 88.5066 533.994 88.956 533.994 89.4545C533.994 89.9593 534.071 90.4179 534.225 90.8303C534.382 91.2396 534.613 91.5658 534.918 91.8089C535.226 92.049 535.607 92.169 536.063 92.169ZM545.78 90.1009V85.9091H546.87V93H545.78V91.7997H545.706C545.54 92.1598 545.282 92.466 544.931 92.7184C544.58 92.9677 544.137 93.0923 543.601 93.0923C543.158 93.0923 542.764 92.9954 542.42 92.8015C542.075 92.6045 541.804 92.3091 541.607 91.9151C541.41 91.5181 541.312 91.018 541.312 90.4148V85.9091H542.401V90.3409C542.401 90.858 542.546 91.2704 542.835 91.5781C543.127 91.8859 543.5 92.0398 543.952 92.0398C544.223 92.0398 544.499 91.9705 544.779 91.832C545.062 91.6935 545.299 91.4812 545.49 91.195C545.683 90.9087 545.78 90.544 545.78 90.1009ZM548.865 93V85.9091H549.955V93H548.865ZM549.419 84.7273C549.207 84.7273 549.024 84.6549 548.87 84.5103C548.719 84.3656 548.644 84.1918 548.644 83.9886C548.644 83.7855 548.719 83.6116 548.87 83.467C549.024 83.3223 549.207 83.25 549.419 83.25C549.632 83.25 549.813 83.3223 549.964 83.467C550.118 83.6116 550.195 83.7855 550.195 83.9886C550.195 84.1918 550.118 84.3656 549.964 84.5103C549.813 84.6549 549.632 84.7273 549.419 84.7273ZM552.744 93.0739C552.517 93.0739 552.321 92.9923 552.158 92.8292C551.995 92.6661 551.913 92.4706 551.913 92.2429C551.913 92.0152 551.995 91.8197 552.158 91.6566C552.321 91.4935 552.517 91.4119 552.744 91.4119C552.972 91.4119 553.167 91.4935 553.331 91.6566C553.494 91.8197 553.575 92.0152 553.575 92.2429C553.575 92.3937 553.537 92.5322 553.46 92.6584C553.386 92.7846 553.286 92.8861 553.16 92.9631C553.037 93.0369 552.898 93.0739 552.744 93.0739ZM558.411 93.1477C557.746 93.1477 557.174 92.9908 556.694 92.6768C556.214 92.3629 555.844 91.9305 555.586 91.3796C555.327 90.8287 555.198 90.1993 555.198 89.4915C555.198 88.7713 555.33 88.1358 555.595 87.5849C555.863 87.0309 556.235 86.5985 556.712 86.2876C557.192 85.9737 557.752 85.8168 558.393 85.8168C558.891 85.8168 559.34 85.9091 559.741 86.0938C560.141 86.2784 560.468 86.5369 560.724 86.8693C560.979 87.2017 561.138 87.5895 561.199 88.0327H560.11C560.027 87.7095 559.842 87.4233 559.556 87.174C559.273 86.9216 558.891 86.7955 558.411 86.7955C557.986 86.7955 557.614 86.9062 557.294 87.1278C556.977 87.3464 556.729 87.6557 556.551 88.0558C556.375 88.4528 556.287 88.919 556.287 89.4545C556.287 90.0024 556.374 90.4794 556.546 90.8857C556.721 91.2919 556.968 91.6074 557.285 91.832C557.605 92.0567 557.98 92.169 558.411 92.169C558.694 92.169 558.951 92.1198 559.182 92.0213C559.413 91.9228 559.608 91.7812 559.768 91.5966C559.928 91.4119 560.042 91.1903 560.11 90.9318H561.199C561.138 91.3504 560.985 91.7274 560.742 92.0629C560.502 92.3952 560.184 92.6599 559.787 92.8569C559.393 93.0508 558.934 93.1477 558.411 93.1477ZM565.673 93.1477C565.033 93.1477 564.471 92.9954 563.988 92.6907C563.508 92.386 563.132 91.9598 562.861 91.4119C562.594 90.8641 562.46 90.224 562.46 89.4915C562.46 88.7528 562.594 88.1081 562.861 87.5572C563.132 87.0063 563.508 86.5785 563.988 86.2738C564.471 85.9691 565.033 85.8168 565.673 85.8168C566.313 85.8168 566.873 85.9691 567.353 86.2738C567.836 86.5785 568.212 87.0063 568.48 87.5572C568.75 88.1081 568.886 88.7528 568.886 89.4915C568.886 90.224 568.75 90.8641 568.48 91.4119C568.212 91.9598 567.836 92.386 567.353 92.6907C566.873 92.9954 566.313 93.1477 565.673 93.1477ZM565.673 92.169C566.159 92.169 566.559 92.0444 566.873 91.7951C567.187 91.5458 567.419 91.218 567.57 90.8118C567.721 90.4055 567.796 89.9654 567.796 89.4915C567.796 89.0175 567.721 88.5759 567.57 88.1665C567.419 87.7572 567.187 87.4264 566.873 87.174C566.559 86.9216 566.159 86.7955 565.673 86.7955C565.186 86.7955 564.786 86.9216 564.472 87.174C564.159 87.4264 563.926 87.7572 563.775 88.1665C563.625 88.5759 563.549 89.0175 563.549 89.4915C563.549 89.9654 563.625 90.4055 563.775 90.8118C563.926 91.218 564.159 91.5458 564.472 91.7951C564.786 92.0444 565.186 92.169 565.673 92.169ZM570.549 93V85.9091H571.601V87.017H571.694C571.842 86.6385 572.08 86.3446 572.409 86.1353C572.739 85.9229 573.134 85.8168 573.596 85.8168C574.064 85.8168 574.453 85.9229 574.764 86.1353C575.078 86.3446 575.322 86.6385 575.498 87.017H575.572C575.753 86.6508 576.026 86.36 576.389 86.1445C576.752 85.926 577.187 85.8168 577.695 85.8168C578.329 85.8168 578.848 86.0153 579.251 86.4123C579.654 86.8062 579.856 87.4202 579.856 88.2543V93H578.766V88.2543C578.766 87.7311 578.623 87.3571 578.337 87.1325C578.051 86.9078 577.714 86.7955 577.326 86.7955C576.827 86.7955 576.441 86.9463 576.167 87.2479C575.893 87.5464 575.756 87.925 575.756 88.3835V93H574.648V88.1435C574.648 87.7403 574.518 87.4156 574.256 87.1694C573.994 86.9201 573.657 86.7955 573.245 86.7955C572.962 86.7955 572.697 86.8709 572.451 87.0217C572.208 87.1725 572.011 87.3817 571.86 87.6495C571.712 87.9142 571.638 88.2204 571.638 88.5682V93H570.549Z" fill="#959BA3"/>
<rect x="410.5" y="70.5" width="319" height="35" rx="2.5" stroke="#D8DEE9"/>
<path d="M410.58 117.21V116.273H417.125V117.21H414.381V125H413.324V117.21H410.58ZM419.625 121.062V125H418.62V116.273H419.625V119.477H419.711C419.864 119.139 420.094 118.871 420.401 118.672C420.711 118.47 421.123 118.369 421.637 118.369C422.083 118.369 422.473 118.459 422.809 118.638C423.144 118.814 423.404 119.085 423.588 119.452C423.776 119.815 423.87 120.278 423.87 120.841V125H422.864V120.909C422.864 120.389 422.729 119.987 422.459 119.703C422.192 119.416 421.821 119.273 421.347 119.273C421.017 119.273 420.722 119.342 420.461 119.482C420.202 119.621 419.998 119.824 419.847 120.091C419.699 120.358 419.625 120.682 419.625 121.062ZM425.71 125V118.455H426.715V125H425.71ZM426.221 117.364C426.025 117.364 425.856 117.297 425.714 117.163C425.575 117.03 425.505 116.869 425.505 116.682C425.505 116.494 425.575 116.334 425.714 116.2C425.856 116.067 426.025 116 426.221 116C426.417 116 426.585 116.067 426.724 116.2C426.866 116.334 426.937 116.494 426.937 116.682C426.937 116.869 426.866 117.03 426.724 117.163C426.585 117.297 426.417 117.364 426.221 117.364ZM433.194 119.92L432.29 120.176C432.233 120.026 432.15 119.879 432.039 119.737C431.931 119.592 431.783 119.473 431.596 119.379C431.408 119.286 431.168 119.239 430.875 119.239C430.475 119.239 430.141 119.331 429.874 119.516C429.61 119.697 429.478 119.929 429.478 120.21C429.478 120.46 429.569 120.658 429.75 120.803C429.932 120.947 430.216 121.068 430.603 121.165L431.574 121.403C432.159 121.545 432.596 121.763 432.882 122.055C433.169 122.345 433.313 122.719 433.313 123.176C433.313 123.551 433.205 123.886 432.989 124.182C432.776 124.477 432.478 124.71 432.094 124.881C431.711 125.051 431.265 125.136 430.756 125.136C430.088 125.136 429.536 124.991 429.098 124.702C428.661 124.412 428.384 123.989 428.267 123.432L429.222 123.193C429.313 123.545 429.485 123.81 429.738 123.986C429.993 124.162 430.327 124.25 430.739 124.25C431.208 124.25 431.58 124.151 431.855 123.952C432.134 123.75 432.273 123.509 432.273 123.227C432.273 123 432.194 122.81 432.034 122.656C431.875 122.5 431.631 122.384 431.301 122.307L430.211 122.051C429.611 121.909 429.171 121.689 428.89 121.391C428.611 121.089 428.472 120.713 428.472 120.261C428.472 119.892 428.576 119.565 428.783 119.281C428.993 118.997 429.279 118.774 429.64 118.612C430.003 118.45 430.415 118.369 430.875 118.369C431.523 118.369 432.032 118.511 432.401 118.795C432.773 119.08 433.037 119.455 433.194 119.92ZM438.202 125V118.455H439.207V125H438.202ZM438.713 117.364C438.517 117.364 438.348 117.297 438.206 117.163C438.067 117.03 437.997 116.869 437.997 116.682C437.997 116.494 438.067 116.334 438.206 116.2C438.348 116.067 438.517 116 438.713 116C438.909 116 439.077 116.067 439.216 116.2C439.358 116.334 439.429 116.494 439.429 116.682C439.429 116.869 439.358 117.03 439.216 117.163C439.077 117.297 438.909 117.364 438.713 117.364ZM445.686 119.92L444.782 120.176C444.725 120.026 444.642 119.879 444.531 119.737C444.423 119.592 444.275 119.473 444.088 119.379C443.9 119.286 443.66 119.239 443.368 119.239C442.967 119.239 442.633 119.331 442.366 119.516C442.102 119.697 441.97 119.929 441.97 120.21C441.97 120.46 442.061 120.658 442.243 120.803C442.424 120.947 442.708 121.068 443.095 121.165L444.066 121.403C444.652 121.545 445.088 121.763 445.375 122.055C445.662 122.345 445.805 122.719 445.805 123.176C445.805 123.551 445.697 123.886 445.481 124.182C445.268 124.477 444.97 124.71 444.586 124.881C444.203 125.051 443.757 125.136 443.248 125.136C442.581 125.136 442.028 124.991 441.591 124.702C441.153 124.412 440.876 123.989 440.76 123.432L441.714 123.193C441.805 123.545 441.977 123.81 442.23 123.986C442.485 124.162 442.819 124.25 443.231 124.25C443.7 124.25 444.072 124.151 444.348 123.952C444.626 123.75 444.765 123.509 444.765 123.227C444.765 123 444.686 122.81 444.527 122.656C444.368 122.5 444.123 122.384 443.794 122.307L442.703 122.051C442.103 121.909 441.663 121.689 441.382 121.391C441.103 121.089 440.964 120.713 440.964 120.261C440.964 119.892 441.068 119.565 441.275 119.281C441.485 118.997 441.771 118.774 442.132 118.612C442.495 118.45 442.907 118.369 443.368 118.369C444.015 118.369 444.524 118.511 444.893 118.795C445.265 119.08 445.529 119.455 445.686 119.92ZM452.62 125.153C452.205 125.153 451.829 125.075 451.491 124.919C451.153 124.76 450.884 124.531 450.685 124.233C450.487 123.932 450.387 123.568 450.387 123.142C450.387 122.767 450.461 122.463 450.609 122.23C450.756 121.994 450.954 121.81 451.201 121.676C451.448 121.543 451.721 121.443 452.019 121.378C452.32 121.31 452.623 121.256 452.927 121.216C453.325 121.165 453.647 121.126 453.894 121.101C454.144 121.072 454.326 121.026 454.44 120.96C454.556 120.895 454.614 120.781 454.614 120.619V120.585C454.614 120.165 454.499 119.838 454.269 119.605C454.042 119.372 453.697 119.256 453.234 119.256C452.754 119.256 452.377 119.361 452.104 119.571C451.832 119.781 451.64 120.006 451.529 120.244L450.575 119.903C450.745 119.506 450.972 119.196 451.256 118.974C451.543 118.75 451.856 118.594 452.194 118.506C452.535 118.415 452.87 118.369 453.2 118.369C453.41 118.369 453.651 118.395 453.924 118.446C454.2 118.494 454.465 118.595 454.721 118.749C454.979 118.902 455.194 119.134 455.364 119.443C455.535 119.753 455.62 120.168 455.62 120.688V125H454.614V124.114H454.563C454.495 124.256 454.381 124.408 454.222 124.57C454.063 124.732 453.852 124.869 453.587 124.983C453.323 125.097 453.001 125.153 452.62 125.153ZM452.773 124.25C453.171 124.25 453.506 124.172 453.779 124.016C454.055 123.859 454.262 123.658 454.401 123.411C454.543 123.163 454.614 122.903 454.614 122.631V121.71C454.572 121.761 454.478 121.808 454.333 121.851C454.191 121.891 454.026 121.926 453.839 121.957C453.654 121.986 453.474 122.011 453.298 122.034C453.124 122.054 452.984 122.071 452.876 122.085C452.614 122.119 452.37 122.175 452.143 122.251C451.918 122.325 451.737 122.437 451.597 122.588C451.461 122.736 451.393 122.937 451.393 123.193C451.393 123.543 451.522 123.807 451.781 123.986C452.042 124.162 452.373 124.25 452.773 124.25ZM461.836 121.062V125H460.831V116.273H461.836V119.477H461.922C462.075 119.139 462.305 118.871 462.612 118.672C462.922 118.47 463.333 118.369 463.848 118.369C464.294 118.369 464.684 118.459 465.02 118.638C465.355 118.814 465.615 119.085 465.799 119.452C465.987 119.815 466.081 120.278 466.081 120.841V125H465.075V120.909C465.075 120.389 464.94 119.987 464.67 119.703C464.403 119.416 464.032 119.273 463.558 119.273C463.228 119.273 462.933 119.342 462.672 119.482C462.413 119.621 462.208 119.824 462.058 120.091C461.91 120.358 461.836 120.682 461.836 121.062ZM467.92 125V118.455H468.926V125H467.92ZM468.432 117.364C468.236 117.364 468.067 117.297 467.925 117.163C467.786 117.03 467.716 116.869 467.716 116.682C467.716 116.494 467.786 116.334 467.925 116.2C468.067 116.067 468.236 116 468.432 116C468.628 116 468.795 116.067 468.935 116.2C469.077 116.334 469.148 116.494 469.148 116.682C469.148 116.869 469.077 117.03 468.935 117.163C468.795 117.297 468.628 117.364 468.432 117.364ZM471.774 121.062V125H470.768V118.455H471.74V119.477H471.825C471.978 119.145 472.211 118.878 472.524 118.676C472.836 118.472 473.24 118.369 473.734 118.369C474.177 118.369 474.565 118.46 474.897 118.642C475.23 118.821 475.488 119.094 475.673 119.46C475.858 119.824 475.95 120.284 475.95 120.841V125H474.944V120.909C474.944 120.395 474.811 119.994 474.544 119.707C474.277 119.418 473.91 119.273 473.444 119.273C473.123 119.273 472.836 119.342 472.583 119.482C472.333 119.621 472.136 119.824 471.991 120.091C471.846 120.358 471.774 120.682 471.774 121.062ZM480.634 118.455V119.307H477.242V118.455H480.634ZM478.231 116.886H479.237V123.125C479.237 123.409 479.278 123.622 479.36 123.764C479.445 123.903 479.553 123.997 479.684 124.045C479.817 124.091 479.958 124.114 480.106 124.114C480.217 124.114 480.308 124.108 480.379 124.097C480.45 124.082 480.506 124.071 480.549 124.062L480.754 124.966C480.685 124.991 480.59 125.017 480.468 125.043C480.346 125.071 480.191 125.085 480.004 125.085C479.719 125.085 479.441 125.024 479.168 124.902C478.898 124.78 478.674 124.594 478.495 124.344C478.319 124.094 478.231 123.778 478.231 123.398V116.886ZM488.369 118.455V119.307H484.977V118.455H488.369ZM485.965 116.886H486.971V123.125C486.971 123.409 487.012 123.622 487.094 123.764C487.18 123.903 487.288 123.997 487.418 124.045C487.552 124.091 487.692 124.114 487.84 124.114C487.951 124.114 488.042 124.108 488.113 124.097C488.184 124.082 488.241 124.071 488.283 124.062L488.488 124.966C488.42 124.991 488.325 125.017 488.202 125.043C488.08 125.071 487.925 125.085 487.738 125.085C487.454 125.085 487.175 125.024 486.903 124.902C486.633 124.78 486.408 124.594 486.229 124.344C486.053 124.094 485.965 123.778 485.965 123.398V116.886ZM492.555 125.136C491.925 125.136 491.381 124.997 490.923 124.719C490.469 124.438 490.118 124.045 489.871 123.543C489.626 123.037 489.504 122.449 489.504 121.778C489.504 121.108 489.626 120.517 489.871 120.006C490.118 119.491 490.462 119.091 490.902 118.804C491.345 118.514 491.862 118.369 492.453 118.369C492.794 118.369 493.131 118.426 493.463 118.54C493.795 118.653 494.098 118.838 494.371 119.094C494.643 119.347 494.861 119.682 495.023 120.099C495.185 120.517 495.266 121.031 495.266 121.642V122.068H490.22V121.199H494.243C494.243 120.83 494.169 120.5 494.021 120.21C493.876 119.92 493.669 119.692 493.399 119.524C493.132 119.357 492.817 119.273 492.453 119.273C492.053 119.273 491.706 119.372 491.413 119.571C491.124 119.767 490.901 120.023 490.744 120.338C490.588 120.653 490.51 120.991 490.51 121.352V121.932C490.51 122.426 490.595 122.845 490.766 123.189C490.939 123.53 491.179 123.79 491.486 123.969C491.793 124.145 492.149 124.233 492.555 124.233C492.82 124.233 493.058 124.196 493.271 124.122C493.487 124.045 493.673 123.932 493.83 123.781C493.986 123.628 494.107 123.437 494.192 123.21L495.163 123.483C495.061 123.812 494.889 124.102 494.648 124.352C494.406 124.599 494.108 124.793 493.753 124.932C493.398 125.068 492.999 125.136 492.555 125.136ZM497.37 118.455L498.938 121.131L500.506 118.455H501.665L499.551 121.727L501.665 125H500.506L498.938 122.46L497.37 125H496.211L498.29 121.727L496.211 118.455H497.37ZM505.947 118.455V119.307H502.555V118.455H505.947ZM503.543 116.886H504.549V123.125C504.549 123.409 504.59 123.622 504.673 123.764C504.758 123.903 504.866 123.997 504.996 124.045C505.13 124.091 505.271 124.114 505.418 124.114C505.529 124.114 505.62 124.108 505.691 124.097C505.762 124.082 505.819 124.071 505.862 124.062L506.066 124.966C505.998 124.991 505.903 125.017 505.781 125.043C505.658 125.071 505.504 125.085 505.316 125.085C505.032 125.085 504.754 125.024 504.481 124.902C504.211 124.78 503.987 124.594 503.808 124.344C503.631 124.094 503.543 123.778 503.543 123.398V116.886ZM513.681 118.455V119.307H510.289V118.455H513.681ZM511.278 116.886H512.283V123.125C512.283 123.409 512.325 123.622 512.407 123.764C512.492 123.903 512.6 123.997 512.731 124.045C512.864 124.091 513.005 124.114 513.153 124.114C513.263 124.114 513.354 124.108 513.425 124.097C513.496 124.082 513.553 124.071 513.596 124.062L513.8 124.966C513.732 124.991 513.637 125.017 513.515 125.043C513.393 125.071 513.238 125.085 513.05 125.085C512.766 125.085 512.488 125.024 512.215 124.902C511.945 124.78 511.721 124.594 511.542 124.344C511.366 124.094 511.278 123.778 511.278 123.398V116.886ZM517.783 125.136C517.192 125.136 516.673 124.996 516.227 124.714C515.784 124.433 515.438 124.04 515.188 123.534C514.94 123.028 514.817 122.437 514.817 121.761C514.817 121.08 514.94 120.484 515.188 119.976C515.438 119.467 515.784 119.072 516.227 118.791C516.673 118.51 517.192 118.369 517.783 118.369C518.374 118.369 518.891 118.51 519.334 118.791C519.78 119.072 520.126 119.467 520.374 119.976C520.624 120.484 520.749 121.08 520.749 121.761C520.749 122.437 520.624 123.028 520.374 123.534C520.126 124.04 519.78 124.433 519.334 124.714C518.891 124.996 518.374 125.136 517.783 125.136ZM517.783 124.233C518.232 124.233 518.601 124.118 518.891 123.888C519.18 123.658 519.395 123.355 519.534 122.98C519.673 122.605 519.743 122.199 519.743 121.761C519.743 121.324 519.673 120.916 519.534 120.538C519.395 120.161 519.18 119.855 518.891 119.622C518.601 119.389 518.232 119.273 517.783 119.273C517.334 119.273 516.964 119.389 516.675 119.622C516.385 119.855 516.17 120.161 516.031 120.538C515.892 120.916 515.822 121.324 515.822 121.761C515.822 122.199 515.892 122.605 516.031 122.98C516.17 123.355 516.385 123.658 516.675 123.888C516.964 124.118 517.334 124.233 517.783 124.233ZM526.664 121.062V125H525.659V116.273H526.664V119.477H526.75C526.903 119.139 527.133 118.871 527.44 118.672C527.75 118.47 528.162 118.369 528.676 118.369C529.122 118.369 529.512 118.459 529.848 118.638C530.183 118.814 530.443 119.085 530.627 119.452C530.815 119.815 530.909 120.278 530.909 120.841V125H529.903V120.909C529.903 120.389 529.768 119.987 529.498 119.703C529.231 119.416 528.86 119.273 528.386 119.273C528.056 119.273 527.761 119.342 527.5 119.482C527.241 119.621 527.037 119.824 526.886 120.091C526.738 120.358 526.664 120.682 526.664 121.062ZM535.493 125.136C534.862 125.136 534.318 124.997 533.861 124.719C533.406 124.438 533.055 124.045 532.808 123.543C532.564 123.037 532.442 122.449 532.442 121.778C532.442 121.108 532.564 120.517 532.808 120.006C533.055 119.491 533.399 119.091 533.839 118.804C534.283 118.514 534.8 118.369 535.391 118.369C535.732 118.369 536.068 118.426 536.401 118.54C536.733 118.653 537.036 118.838 537.308 119.094C537.581 119.347 537.798 119.682 537.96 120.099C538.122 120.517 538.203 121.031 538.203 121.642V122.068H533.158V121.199H537.18C537.18 120.83 537.107 120.5 536.959 120.21C536.814 119.92 536.607 119.692 536.337 119.524C536.07 119.357 535.754 119.273 535.391 119.273C534.99 119.273 534.643 119.372 534.351 119.571C534.061 119.767 533.838 120.023 533.682 120.338C533.526 120.653 533.447 120.991 533.447 121.352V121.932C533.447 122.426 533.533 122.845 533.703 123.189C533.876 123.53 534.116 123.79 534.423 123.969C534.73 124.145 535.087 124.233 535.493 124.233C535.757 124.233 535.996 124.196 536.209 124.122C536.425 124.045 536.611 123.932 536.767 123.781C536.923 123.628 537.044 123.437 537.129 123.21L538.101 123.483C537.999 123.812 537.827 124.102 537.585 124.352C537.344 124.599 537.045 124.793 536.69 124.932C536.335 125.068 535.936 125.136 535.493 125.136ZM540.739 116.273V125H539.733V116.273H540.739ZM542.581 127.455V118.455H543.552V119.494H543.672C543.745 119.381 543.848 119.236 543.978 119.06C544.112 118.881 544.302 118.722 544.549 118.582C544.799 118.44 545.137 118.369 545.564 118.369C546.115 118.369 546.6 118.507 547.021 118.783C547.441 119.058 547.77 119.449 548.005 119.955C548.241 120.46 548.359 121.057 548.359 121.744C548.359 122.438 548.241 123.038 548.005 123.547C547.77 124.053 547.443 124.445 547.025 124.723C546.608 124.999 546.126 125.136 545.581 125.136C545.16 125.136 544.824 125.067 544.571 124.928C544.318 124.786 544.123 124.625 543.987 124.446C543.85 124.264 543.745 124.114 543.672 123.994H543.586V127.455H542.581ZM543.569 121.727C543.569 122.222 543.642 122.658 543.787 123.036C543.931 123.411 544.143 123.705 544.422 123.918C544.7 124.128 545.041 124.233 545.444 124.233C545.865 124.233 546.216 124.122 546.497 123.901C546.781 123.676 546.994 123.375 547.136 122.997C547.281 122.616 547.353 122.193 547.353 121.727C547.353 121.267 547.282 120.852 547.14 120.483C547.001 120.111 546.789 119.817 546.505 119.601C546.224 119.382 545.87 119.273 545.444 119.273C545.035 119.273 544.691 119.376 544.413 119.584C544.135 119.788 543.924 120.075 543.782 120.445C543.64 120.811 543.569 121.239 543.569 121.727ZM557.393 122.324V118.455H558.399V125H557.393V123.892H557.325C557.172 124.224 556.933 124.507 556.609 124.74C556.285 124.97 555.876 125.085 555.382 125.085C554.973 125.085 554.609 124.996 554.291 124.817C553.973 124.635 553.723 124.362 553.541 123.999C553.359 123.632 553.268 123.17 553.268 122.614V118.455H554.274V122.545C554.274 123.023 554.407 123.403 554.674 123.688C554.944 123.972 555.288 124.114 555.706 124.114C555.956 124.114 556.21 124.05 556.468 123.922C556.73 123.794 556.949 123.598 557.125 123.334C557.304 123.07 557.393 122.733 557.393 122.324ZM564.877 119.92L563.974 120.176C563.917 120.026 563.833 119.879 563.722 119.737C563.614 119.592 563.467 119.473 563.279 119.379C563.092 119.286 562.852 119.239 562.559 119.239C562.158 119.239 561.825 119.331 561.558 119.516C561.293 119.697 561.161 119.929 561.161 120.21C561.161 120.46 561.252 120.658 561.434 120.803C561.616 120.947 561.9 121.068 562.286 121.165L563.258 121.403C563.843 121.545 564.279 121.763 564.566 122.055C564.853 122.345 564.996 122.719 564.996 123.176C564.996 123.551 564.888 123.886 564.673 124.182C564.46 124.477 564.161 124.71 563.778 124.881C563.394 125.051 562.948 125.136 562.44 125.136C561.772 125.136 561.219 124.991 560.782 124.702C560.344 124.412 560.067 123.989 559.951 123.432L560.906 123.193C560.996 123.545 561.168 123.81 561.421 123.986C561.677 124.162 562.011 124.25 562.423 124.25C562.891 124.25 563.263 124.151 563.539 123.952C563.817 123.75 563.957 123.509 563.957 123.227C563.957 123 563.877 122.81 563.718 122.656C563.559 122.5 563.315 122.384 562.985 122.307L561.894 122.051C561.295 121.909 560.854 121.689 560.573 121.391C560.295 121.089 560.156 120.713 560.156 120.261C560.156 119.892 560.259 119.565 560.467 119.281C560.677 118.997 560.962 118.774 561.323 118.612C561.687 118.45 562.099 118.369 562.559 118.369C563.207 118.369 563.715 118.511 564.085 118.795C564.457 119.08 564.721 119.455 564.877 119.92ZM569.255 125.136C568.624 125.136 568.08 124.997 567.623 124.719C567.168 124.438 566.817 124.045 566.57 123.543C566.326 123.037 566.203 122.449 566.203 121.778C566.203 121.108 566.326 120.517 566.57 120.006C566.817 119.491 567.161 119.091 567.601 118.804C568.044 118.514 568.561 118.369 569.152 118.369C569.493 118.369 569.83 118.426 570.162 118.54C570.495 118.653 570.797 118.838 571.07 119.094C571.343 119.347 571.56 119.682 571.722 120.099C571.884 120.517 571.965 121.031 571.965 121.642V122.068H566.919V121.199H570.942C570.942 120.83 570.868 120.5 570.721 120.21C570.576 119.92 570.368 119.692 570.098 119.524C569.831 119.357 569.516 119.273 569.152 119.273C568.752 119.273 568.405 119.372 568.113 119.571C567.823 119.767 567.6 120.023 567.444 120.338C567.287 120.653 567.209 120.991 567.209 121.352V121.932C567.209 122.426 567.294 122.845 567.465 123.189C567.638 123.53 567.878 123.79 568.185 123.969C568.492 124.145 568.848 124.233 569.255 124.233C569.519 124.233 569.757 124.196 569.971 124.122C570.186 124.045 570.373 123.932 570.529 123.781C570.685 123.628 570.806 123.437 570.891 123.21L571.863 123.483C571.76 123.812 571.588 124.102 571.347 124.352C571.105 124.599 570.807 124.793 570.452 124.932C570.097 125.068 569.698 125.136 569.255 125.136ZM573.495 125V118.455H574.466V119.443H574.534C574.654 119.119 574.87 118.857 575.182 118.655C575.495 118.453 575.847 118.352 576.239 118.352C576.313 118.352 576.405 118.354 576.516 118.357C576.627 118.359 576.711 118.364 576.767 118.369V119.392C576.733 119.384 576.655 119.371 576.533 119.354C576.414 119.334 576.287 119.324 576.154 119.324C575.836 119.324 575.551 119.391 575.301 119.524C575.054 119.655 574.858 119.837 574.713 120.07C574.571 120.3 574.5 120.562 574.5 120.858V125H573.495ZM577.942 125.068C577.732 125.068 577.552 124.993 577.401 124.842C577.251 124.692 577.175 124.511 577.175 124.301C577.175 124.091 577.251 123.911 577.401 123.76C577.552 123.609 577.732 123.534 577.942 123.534C578.153 123.534 578.333 123.609 578.484 123.76C578.634 123.911 578.71 124.091 578.71 124.301C578.71 124.44 578.674 124.568 578.603 124.685C578.535 124.801 578.442 124.895 578.326 124.966C578.212 125.034 578.085 125.068 577.942 125.068Z" fill="#959BA3"/>
</svg>
