<svg width="804" height="232" viewBox="0 0 804 232" fill="none" xmlns="http://www.w3.org/2000/svg">
<rect width="804" height="232" fill="#F9FAFB"/>
<g opacity="0.2">
<path d="M242.959 117V108.273H248.43V109.406H244.276V112.065H248.145V113.195H244.276V115.866H248.482V117H242.959ZM250.087 117V110.455H251.31V111.52H251.391C251.527 111.159 251.75 110.878 252.06 110.676C252.37 110.472 252.74 110.369 253.172 110.369C253.61 110.369 253.976 110.472 254.272 110.676C254.57 110.881 254.79 111.162 254.932 111.52H255C255.157 111.17 255.405 110.892 255.746 110.685C256.087 110.474 256.493 110.369 256.965 110.369C257.559 110.369 258.043 110.555 258.418 110.928C258.796 111.3 258.985 111.861 258.985 112.611V117H257.711V112.73C257.711 112.287 257.59 111.966 257.348 111.767C257.107 111.568 256.819 111.469 256.483 111.469C256.069 111.469 255.746 111.597 255.516 111.852C255.286 112.105 255.171 112.43 255.171 112.828V117H253.901V112.649C253.901 112.294 253.79 112.009 253.569 111.793C253.347 111.577 253.059 111.469 252.703 111.469C252.462 111.469 252.239 111.533 252.034 111.661C251.833 111.786 251.669 111.96 251.544 112.185C251.422 112.409 251.361 112.669 251.361 112.964V117H250.087ZM262.597 117.145C262.183 117.145 261.808 117.068 261.472 116.915C261.137 116.759 260.871 116.533 260.675 116.237C260.482 115.942 260.386 115.58 260.386 115.151C260.386 114.781 260.457 114.477 260.599 114.239C260.741 114 260.933 113.811 261.174 113.672C261.415 113.533 261.685 113.428 261.984 113.357C262.282 113.286 262.586 113.232 262.896 113.195C263.288 113.149 263.606 113.112 263.85 113.084C264.094 113.053 264.272 113.003 264.383 112.935C264.494 112.866 264.549 112.756 264.549 112.602V112.572C264.549 112.2 264.444 111.912 264.234 111.707C264.026 111.503 263.717 111.401 263.305 111.401C262.876 111.401 262.538 111.496 262.29 111.686C262.046 111.874 261.877 112.082 261.783 112.312L260.586 112.04C260.728 111.642 260.935 111.321 261.208 111.077C261.484 110.83 261.8 110.651 262.158 110.54C262.516 110.426 262.893 110.369 263.288 110.369C263.549 110.369 263.826 110.401 264.119 110.463C264.414 110.523 264.69 110.634 264.945 110.795C265.204 110.957 265.415 111.189 265.58 111.49C265.745 111.788 265.827 112.176 265.827 112.653V117H264.583V116.105H264.532C264.45 116.27 264.326 116.432 264.161 116.591C263.996 116.75 263.785 116.882 263.526 116.987C263.268 117.092 262.958 117.145 262.597 117.145ZM262.874 116.122C263.227 116.122 263.528 116.053 263.778 115.913C264.031 115.774 264.222 115.592 264.353 115.368C264.487 115.141 264.553 114.898 264.553 114.639V113.795C264.508 113.841 264.42 113.884 264.289 113.923C264.161 113.96 264.015 113.993 263.85 114.021C263.685 114.047 263.525 114.071 263.369 114.094C263.212 114.114 263.082 114.131 262.977 114.145C262.729 114.176 262.504 114.229 262.299 114.303C262.097 114.376 261.935 114.483 261.813 114.622C261.694 114.759 261.634 114.94 261.634 115.168C261.634 115.483 261.751 115.722 261.984 115.884C262.217 116.043 262.513 116.122 262.874 116.122ZM267.525 117V110.455H268.799V117H267.525ZM268.168 109.445C267.946 109.445 267.756 109.371 267.597 109.223C267.441 109.072 267.363 108.893 267.363 108.686C267.363 108.476 267.441 108.297 267.597 108.149C267.756 107.999 267.946 107.923 268.168 107.923C268.39 107.923 268.578 107.999 268.735 108.149C268.894 108.297 268.973 108.476 268.973 108.686C268.973 108.893 268.894 109.072 268.735 109.223C268.578 109.371 268.39 109.445 268.168 109.445ZM271.787 108.273V117H270.513V108.273H271.787Z" fill="#344054"/>
<rect x="242.5" y="126.5" width="319" height="35" rx="2.5" fill="white"/>
<path d="M272.335 138.999C272.335 138.082 271.585 137.332 270.668 137.332H257.335C256.418 137.332 255.668 138.082 255.668 138.999M272.335 138.999V148.999C272.335 149.915 271.585 150.665 270.668 150.665H257.335C256.418 150.665 255.668 149.915 255.668 148.999V138.999M272.335 138.999L264.001 144.832L255.668 138.999" stroke="#959BA3" stroke-width="1.66667" stroke-linecap="round" stroke-linejoin="round"/>
<path d="M285.878 149.148C285.238 149.148 284.676 148.995 284.193 148.691C283.713 148.386 283.337 147.96 283.066 147.412C282.799 146.864 282.665 146.224 282.665 145.491C282.665 144.753 282.799 144.108 283.066 143.557C283.337 143.006 283.713 142.578 284.193 142.274C284.676 141.969 285.238 141.817 285.878 141.817C286.518 141.817 287.078 141.969 287.558 142.274C288.041 142.578 288.417 143.006 288.685 143.557C288.955 144.108 289.091 144.753 289.091 145.491C289.091 146.224 288.955 146.864 288.685 147.412C288.417 147.96 288.041 148.386 287.558 148.691C287.078 148.995 286.518 149.148 285.878 149.148ZM285.878 148.169C286.364 148.169 286.764 148.044 287.078 147.795C287.392 147.546 287.624 147.218 287.775 146.812C287.926 146.406 288.001 145.965 288.001 145.491C288.001 145.018 287.926 144.576 287.775 144.167C287.624 143.757 287.392 143.426 287.078 143.174C286.764 142.922 286.364 142.795 285.878 142.795C285.392 142.795 284.991 142.922 284.678 143.174C284.364 143.426 284.131 143.757 283.98 144.167C283.83 144.576 283.754 145.018 283.754 145.491C283.754 145.965 283.83 146.406 283.98 146.812C284.131 147.218 284.364 147.546 284.678 147.795C284.991 148.044 285.392 148.169 285.878 148.169ZM291.843 139.545V149H290.754V139.545H291.843ZM293.839 149V141.909H294.928V149H293.839ZM294.393 140.727C294.181 140.727 293.997 140.655 293.844 140.51C293.693 140.366 293.617 140.192 293.617 139.989C293.617 139.786 293.693 139.612 293.844 139.467C293.997 139.322 294.181 139.25 294.393 139.25C294.605 139.25 294.787 139.322 294.938 139.467C295.092 139.612 295.169 139.786 295.169 139.989C295.169 140.192 295.092 140.366 294.938 140.51C294.787 140.655 294.605 140.727 294.393 140.727ZM302.722 141.909L300.1 149H298.992L296.37 141.909H297.552L299.509 147.56H299.583L301.54 141.909H302.722ZM304.16 149V141.909H305.25V149H304.16ZM304.714 140.727C304.502 140.727 304.319 140.655 304.165 140.51C304.014 140.366 303.939 140.192 303.939 139.989C303.939 139.786 304.014 139.612 304.165 139.467C304.319 139.322 304.502 139.25 304.714 139.25C304.927 139.25 305.108 139.322 305.259 139.467C305.413 139.612 305.49 139.786 305.49 139.989C305.49 140.192 305.413 140.366 305.259 140.51C305.108 140.655 304.927 140.727 304.714 140.727ZM309.332 149.166C308.883 149.166 308.475 149.082 308.108 148.912C307.742 148.74 307.451 148.492 307.236 148.169C307.021 147.843 306.913 147.449 306.913 146.987C306.913 146.581 306.993 146.252 307.153 145.999C307.313 145.744 307.527 145.544 307.795 145.399C308.062 145.254 308.358 145.147 308.681 145.076C309.007 145.002 309.335 144.944 309.664 144.901C310.095 144.845 310.444 144.804 310.712 144.776C310.983 144.745 311.18 144.694 311.303 144.624C311.429 144.553 311.492 144.43 311.492 144.254V144.217C311.492 143.762 311.368 143.408 311.118 143.156C310.872 142.903 310.498 142.777 309.997 142.777C309.477 142.777 309.069 142.891 308.773 143.119C308.478 143.346 308.27 143.589 308.15 143.848L307.116 143.479C307.301 143.048 307.547 142.712 307.855 142.472C308.165 142.229 308.504 142.06 308.87 141.964C309.24 141.866 309.603 141.817 309.96 141.817C310.187 141.817 310.449 141.844 310.744 141.9C311.043 141.952 311.331 142.061 311.608 142.228C311.888 142.394 312.12 142.645 312.305 142.98C312.49 143.316 312.582 143.765 312.582 144.328V149H311.492V148.04H311.437C311.363 148.194 311.24 148.358 311.068 148.534C310.895 148.709 310.666 148.858 310.38 148.982C310.094 149.105 309.744 149.166 309.332 149.166ZM309.498 148.188C309.929 148.188 310.292 148.103 310.588 147.934C310.886 147.764 311.111 147.546 311.262 147.278C311.415 147.01 311.492 146.729 311.492 146.433V145.436C311.446 145.491 311.345 145.542 311.188 145.588C311.034 145.632 310.855 145.67 310.652 145.704C310.452 145.735 310.257 145.762 310.066 145.787C309.878 145.808 309.726 145.827 309.609 145.842C309.326 145.879 309.061 145.939 308.815 146.022C308.572 146.102 308.375 146.224 308.224 146.387C308.076 146.547 308.002 146.766 308.002 147.043C308.002 147.421 308.142 147.707 308.422 147.901C308.706 148.092 309.064 148.188 309.498 148.188ZM320.018 151.493C319.076 151.493 318.244 151.364 317.52 151.105C316.797 150.85 316.189 150.473 315.697 149.974C315.204 149.475 314.832 148.865 314.58 148.141C314.327 147.418 314.201 146.59 314.201 145.658C314.201 144.756 314.329 143.95 314.584 143.239C314.843 142.528 315.217 141.924 315.706 141.429C316.198 140.93 316.796 140.55 317.497 140.289C318.202 140.027 318.999 139.896 319.889 139.896C320.753 139.896 321.511 140.038 322.16 140.321C322.812 140.601 323.357 140.981 323.794 141.461C324.234 141.938 324.564 142.475 324.782 143.072C325.004 143.67 325.114 144.285 325.114 144.919C325.114 145.365 325.093 145.818 325.05 146.276C325.007 146.735 324.916 147.156 324.777 147.541C324.639 147.923 324.425 148.231 324.136 148.464C323.85 148.698 323.462 148.815 322.972 148.815C322.757 148.815 322.52 148.781 322.261 148.714C322.003 148.646 321.774 148.534 321.574 148.377C321.374 148.22 321.255 148.009 321.218 147.744H321.163C321.089 147.923 320.975 148.092 320.821 148.252C320.67 148.412 320.472 148.54 320.226 148.635C319.982 148.731 319.685 148.772 319.335 148.76C318.935 148.745 318.582 148.655 318.277 148.492C317.973 148.326 317.717 148.101 317.511 147.818C317.308 147.532 317.154 147.201 317.049 146.826C316.948 146.447 316.897 146.039 316.897 145.602C316.897 145.187 316.959 144.807 317.082 144.462C317.205 144.117 317.376 143.816 317.594 143.557C317.816 143.299 318.074 143.092 318.37 142.939C318.668 142.782 318.99 142.685 319.335 142.648C319.642 142.617 319.922 142.631 320.175 142.689C320.427 142.745 320.635 142.829 320.798 142.943C320.961 143.054 321.064 143.177 321.107 143.312H321.163V142.795H322.141V146.969C322.141 147.227 322.214 147.455 322.358 147.652C322.503 147.849 322.714 147.947 322.991 147.947C323.305 147.947 323.545 147.84 323.711 147.624C323.88 147.409 323.996 147.076 324.057 146.627C324.122 146.178 324.154 145.602 324.154 144.901C324.154 144.488 324.097 144.082 323.983 143.682C323.873 143.279 323.703 142.902 323.476 142.551C323.251 142.2 322.966 141.891 322.622 141.623C322.277 141.355 321.872 141.146 321.407 140.995C320.946 140.841 320.421 140.764 319.833 140.764C319.11 140.764 318.462 140.877 317.89 141.101C317.32 141.323 316.836 141.647 316.435 142.075C316.038 142.5 315.735 143.017 315.526 143.626C315.32 144.233 315.217 144.922 315.217 145.695C315.217 146.479 315.32 147.176 315.526 147.786C315.735 148.395 316.043 148.909 316.449 149.328C316.859 149.746 317.365 150.063 317.968 150.279C318.571 150.497 319.267 150.607 320.055 150.607C320.393 150.607 320.727 150.574 321.057 150.51C321.386 150.445 321.677 150.374 321.929 150.297C322.181 150.22 322.363 150.163 322.474 150.126L322.732 150.976C322.542 151.056 322.292 151.136 321.984 151.216C321.68 151.296 321.354 151.362 321.006 151.414C320.661 151.467 320.332 151.493 320.018 151.493ZM319.482 147.818C319.895 147.818 320.229 147.735 320.484 147.569C320.74 147.403 320.926 147.152 321.043 146.816C321.16 146.481 321.218 146.058 321.218 145.547C321.218 145.03 321.153 144.627 321.024 144.337C320.895 144.048 320.704 143.845 320.452 143.728C320.199 143.611 319.889 143.553 319.519 143.553C319.168 143.553 318.868 143.645 318.619 143.83C318.373 144.011 318.184 144.254 318.051 144.559C317.922 144.861 317.857 145.19 317.857 145.547C317.857 145.941 317.91 146.312 318.014 146.659C318.119 147.004 318.29 147.284 318.527 147.5C318.764 147.712 319.082 147.818 319.482 147.818ZM331.214 146.101V141.909H332.303V149H331.214V147.8H331.14C330.974 148.16 330.715 148.466 330.365 148.718C330.014 148.968 329.57 149.092 329.035 149.092C328.592 149.092 328.198 148.995 327.853 148.801C327.508 148.605 327.238 148.309 327.041 147.915C326.844 147.518 326.745 147.018 326.745 146.415V141.909H327.835V146.341C327.835 146.858 327.979 147.27 328.269 147.578C328.561 147.886 328.933 148.04 329.386 148.04C329.657 148.04 329.932 147.971 330.212 147.832C330.495 147.694 330.732 147.481 330.923 147.195C331.117 146.909 331.214 146.544 331.214 146.101ZM335.388 144.734V149H334.299V141.909H335.351V143.017H335.444C335.61 142.657 335.862 142.368 336.201 142.149C336.539 141.928 336.976 141.817 337.512 141.817C337.992 141.817 338.412 141.915 338.772 142.112C339.132 142.306 339.412 142.602 339.612 142.999C339.813 143.393 339.913 143.891 339.913 144.494V149H338.823V144.568C338.823 144.011 338.678 143.577 338.389 143.266C338.1 142.952 337.703 142.795 337.198 142.795C336.85 142.795 336.539 142.871 336.266 143.022C335.995 143.172 335.781 143.393 335.624 143.682C335.467 143.971 335.388 144.322 335.388 144.734ZM344.987 141.909V142.832H341.312V141.909H344.987ZM342.384 140.21H343.473V146.969C343.473 147.277 343.518 147.507 343.607 147.661C343.699 147.812 343.816 147.914 343.958 147.966C344.102 148.015 344.255 148.04 344.415 148.04C344.535 148.04 344.633 148.034 344.71 148.021C344.787 148.006 344.849 147.994 344.895 147.984L345.116 148.963C345.043 148.991 344.94 149.018 344.807 149.046C344.675 149.077 344.507 149.092 344.304 149.092C343.996 149.092 343.695 149.026 343.399 148.894C343.107 148.761 342.864 148.56 342.67 148.289C342.479 148.018 342.384 147.677 342.384 147.264V140.21ZM346.626 149V141.909H347.716V149H346.626ZM347.18 140.727C346.968 140.727 346.785 140.655 346.631 140.51C346.48 140.366 346.404 140.192 346.404 139.989C346.404 139.786 346.48 139.612 346.631 139.467C346.785 139.322 346.968 139.25 347.18 139.25C347.392 139.25 347.574 139.322 347.725 139.467C347.879 139.612 347.956 139.786 347.956 139.989C347.956 140.192 347.879 140.366 347.725 140.51C347.574 140.655 347.392 140.727 347.18 140.727ZM352.795 141.909V142.832H349.12V141.909H352.795ZM350.191 140.21H351.281V146.969C351.281 147.277 351.325 147.507 351.415 147.661C351.507 147.812 351.624 147.914 351.765 147.966C351.91 148.015 352.062 148.04 352.222 148.04C352.342 148.04 352.441 148.034 352.518 148.021C352.595 148.006 352.656 147.994 352.703 147.984L352.924 148.963C352.85 148.991 352.747 149.018 352.615 149.046C352.482 149.077 352.315 149.092 352.112 149.092C351.804 149.092 351.502 149.026 351.207 148.894C350.914 148.761 350.671 148.56 350.477 148.289C350.287 148.018 350.191 147.677 350.191 147.264V140.21ZM355.676 139.545V149H354.586V139.545H355.676ZM360.644 149.148C359.961 149.148 359.371 148.997 358.876 148.695C358.383 148.391 358.003 147.966 357.736 147.421C357.471 146.873 357.339 146.236 357.339 145.51C357.339 144.784 357.471 144.143 357.736 143.589C358.003 143.032 358.376 142.598 358.853 142.288C359.333 141.974 359.893 141.817 360.533 141.817C360.903 141.817 361.267 141.878 361.627 142.001C361.987 142.125 362.315 142.325 362.611 142.602C362.906 142.875 363.142 143.239 363.317 143.691C363.492 144.143 363.58 144.701 363.58 145.362V145.824H358.114V144.882H362.472C362.472 144.482 362.392 144.125 362.232 143.811C362.075 143.497 361.85 143.249 361.558 143.068C361.269 142.886 360.927 142.795 360.533 142.795C360.099 142.795 359.724 142.903 359.407 143.119C359.093 143.331 358.851 143.608 358.682 143.95C358.513 144.291 358.428 144.657 358.428 145.048V145.676C358.428 146.212 358.52 146.666 358.705 147.038C358.893 147.407 359.153 147.689 359.485 147.883C359.818 148.074 360.204 148.169 360.644 148.169C360.93 148.169 361.189 148.129 361.42 148.049C361.653 147.966 361.855 147.843 362.024 147.68C362.194 147.513 362.324 147.307 362.417 147.061L363.469 147.357C363.358 147.714 363.172 148.027 362.911 148.298C362.649 148.566 362.326 148.775 361.941 148.926C361.557 149.074 361.124 149.148 360.644 149.148ZM367.915 149.148C367.324 149.148 366.802 148.998 366.35 148.7C365.898 148.398 365.544 147.974 365.288 147.426C365.033 146.875 364.905 146.224 364.905 145.473C364.905 144.728 365.033 144.082 365.288 143.534C365.544 142.986 365.899 142.563 366.355 142.265C366.81 141.966 367.336 141.817 367.933 141.817C368.395 141.817 368.76 141.894 369.028 142.048C369.298 142.198 369.505 142.371 369.646 142.565C369.791 142.755 369.903 142.912 369.983 143.036H370.075V139.545H371.165V149H370.112V147.911H369.983C369.903 148.04 369.789 148.203 369.642 148.4C369.494 148.594 369.283 148.768 369.009 148.922C368.735 149.072 368.37 149.148 367.915 149.148ZM368.063 148.169C368.5 148.169 368.869 148.055 369.171 147.827C369.472 147.597 369.702 147.278 369.858 146.872C370.015 146.462 370.094 145.99 370.094 145.455C370.094 144.925 370.017 144.462 369.863 144.065C369.709 143.665 369.481 143.354 369.18 143.132C368.878 142.908 368.506 142.795 368.063 142.795C367.601 142.795 367.216 142.914 366.909 143.151C366.604 143.385 366.375 143.703 366.221 144.107C366.07 144.507 365.994 144.956 365.994 145.455C365.994 145.959 366.071 146.418 366.225 146.83C366.382 147.24 366.613 147.566 366.918 147.809C367.226 148.049 367.607 148.169 368.063 148.169ZM377.78 146.101V141.909H378.87V149H377.78V147.8H377.706C377.54 148.16 377.282 148.466 376.931 148.718C376.58 148.968 376.137 149.092 375.601 149.092C375.158 149.092 374.764 148.995 374.42 148.801C374.075 148.605 373.804 148.309 373.607 147.915C373.41 147.518 373.312 147.018 373.312 146.415V141.909H374.401V146.341C374.401 146.858 374.546 147.27 374.835 147.578C375.127 147.886 375.5 148.04 375.952 148.04C376.223 148.04 376.499 147.971 376.779 147.832C377.062 147.694 377.299 147.481 377.49 147.195C377.683 146.909 377.78 146.544 377.78 146.101ZM380.865 149V141.909H381.955V149H380.865ZM381.419 140.727C381.207 140.727 381.024 140.655 380.87 140.51C380.719 140.366 380.644 140.192 380.644 139.989C380.644 139.786 380.719 139.612 380.87 139.467C381.024 139.322 381.207 139.25 381.419 139.25C381.632 139.25 381.813 139.322 381.964 139.467C382.118 139.612 382.195 139.786 382.195 139.989C382.195 140.192 382.118 140.366 381.964 140.51C381.813 140.655 381.632 140.727 381.419 140.727ZM384.744 149.074C384.517 149.074 384.321 148.992 384.158 148.829C383.995 148.666 383.913 148.471 383.913 148.243C383.913 148.015 383.995 147.82 384.158 147.657C384.321 147.493 384.517 147.412 384.744 147.412C384.972 147.412 385.167 147.493 385.331 147.657C385.494 147.82 385.575 148.015 385.575 148.243C385.575 148.394 385.537 148.532 385.46 148.658C385.386 148.785 385.286 148.886 385.16 148.963C385.037 149.037 384.898 149.074 384.744 149.074ZM390.411 149.148C389.746 149.148 389.174 148.991 388.694 148.677C388.214 148.363 387.844 147.931 387.586 147.38C387.327 146.829 387.198 146.199 387.198 145.491C387.198 144.771 387.33 144.136 387.595 143.585C387.863 143.031 388.235 142.598 388.712 142.288C389.192 141.974 389.752 141.817 390.393 141.817C390.891 141.817 391.34 141.909 391.741 142.094C392.141 142.278 392.468 142.537 392.724 142.869C392.979 143.202 393.138 143.589 393.199 144.033H392.11C392.027 143.71 391.842 143.423 391.556 143.174C391.273 142.922 390.891 142.795 390.411 142.795C389.986 142.795 389.614 142.906 389.294 143.128C388.977 143.346 388.729 143.656 388.551 144.056C388.375 144.453 388.287 144.919 388.287 145.455C388.287 146.002 388.374 146.479 388.546 146.886C388.721 147.292 388.968 147.607 389.285 147.832C389.605 148.057 389.98 148.169 390.411 148.169C390.694 148.169 390.951 148.12 391.182 148.021C391.413 147.923 391.608 147.781 391.768 147.597C391.928 147.412 392.042 147.19 392.11 146.932H393.199C393.138 147.35 392.985 147.727 392.742 148.063C392.502 148.395 392.184 148.66 391.787 148.857C391.393 149.051 390.934 149.148 390.411 149.148ZM397.673 149.148C397.033 149.148 396.471 148.995 395.988 148.691C395.508 148.386 395.132 147.96 394.861 147.412C394.594 146.864 394.46 146.224 394.46 145.491C394.46 144.753 394.594 144.108 394.861 143.557C395.132 143.006 395.508 142.578 395.988 142.274C396.471 141.969 397.033 141.817 397.673 141.817C398.313 141.817 398.873 141.969 399.353 142.274C399.836 142.578 400.212 143.006 400.48 143.557C400.75 144.108 400.886 144.753 400.886 145.491C400.886 146.224 400.75 146.864 400.48 147.412C400.212 147.96 399.836 148.386 399.353 148.691C398.873 148.995 398.313 149.148 397.673 149.148ZM397.673 148.169C398.159 148.169 398.559 148.044 398.873 147.795C399.187 147.546 399.419 147.218 399.57 146.812C399.721 146.406 399.796 145.965 399.796 145.491C399.796 145.018 399.721 144.576 399.57 144.167C399.419 143.757 399.187 143.426 398.873 143.174C398.559 142.922 398.159 142.795 397.673 142.795C397.186 142.795 396.786 142.922 396.472 143.174C396.159 143.426 395.926 143.757 395.775 144.167C395.625 144.576 395.549 145.018 395.549 145.491C395.549 145.965 395.625 146.406 395.775 146.812C395.926 147.218 396.159 147.546 396.472 147.795C396.786 148.044 397.186 148.169 397.673 148.169ZM402.549 149V141.909H403.601V143.017H403.694C403.842 142.638 404.08 142.345 404.409 142.135C404.739 141.923 405.134 141.817 405.596 141.817C406.064 141.817 406.453 141.923 406.764 142.135C407.078 142.345 407.322 142.638 407.498 143.017H407.572C407.753 142.651 408.026 142.36 408.389 142.145C408.752 141.926 409.187 141.817 409.695 141.817C410.329 141.817 410.848 142.015 411.251 142.412C411.654 142.806 411.856 143.42 411.856 144.254V149H410.766V144.254C410.766 143.731 410.623 143.357 410.337 143.132C410.051 142.908 409.714 142.795 409.326 142.795C408.827 142.795 408.441 142.946 408.167 143.248C407.893 143.546 407.756 143.925 407.756 144.384V149H406.648V144.143C406.648 143.74 406.518 143.416 406.256 143.169C405.994 142.92 405.657 142.795 405.245 142.795C404.962 142.795 404.697 142.871 404.451 143.022C404.208 143.172 404.011 143.382 403.86 143.65C403.712 143.914 403.638 144.22 403.638 144.568V149H402.549Z" fill="#959BA3"/>
<g clip-path="url(#clip0_893_10522)">
<path d="M540.059 141.999C540.215 141.553 540.525 141.177 540.932 140.938C541.339 140.699 541.818 140.611 542.283 140.691C542.749 140.771 543.171 141.013 543.475 141.374C543.78 141.736 543.946 142.193 543.945 142.665C543.945 143.999 541.945 144.665 541.945 144.665M541.999 147.332H542.005M548.665 143.999C548.665 147.681 545.681 150.665 541.999 150.665C538.317 150.665 535.332 147.681 535.332 143.999C535.332 140.317 538.317 137.332 541.999 137.332C545.681 137.332 548.665 140.317 548.665 143.999Z" stroke="#B8BFC7" stroke-width="1.33333" stroke-linecap="round" stroke-linejoin="round"/>
</g>
<rect x="242.5" y="126.5" width="319" height="35" rx="2.5" stroke="#D8DEE9"/>
<path d="M242.58 171.21V170.273H249.125V171.21H246.381V179H245.324V171.21H242.58ZM251.625 175.062V179H250.62V170.273H251.625V173.477H251.711C251.864 173.139 252.094 172.871 252.401 172.672C252.711 172.47 253.123 172.369 253.637 172.369C254.083 172.369 254.473 172.459 254.809 172.638C255.144 172.814 255.404 173.085 255.588 173.452C255.776 173.815 255.87 174.278 255.87 174.841V179H254.864V174.909C254.864 174.389 254.729 173.987 254.459 173.703C254.192 173.416 253.821 173.273 253.347 173.273C253.017 173.273 252.722 173.342 252.461 173.482C252.202 173.621 251.998 173.824 251.847 174.091C251.699 174.358 251.625 174.682 251.625 175.062ZM257.71 179V172.455H258.715V179H257.71ZM258.221 171.364C258.025 171.364 257.856 171.297 257.714 171.163C257.575 171.03 257.505 170.869 257.505 170.682C257.505 170.494 257.575 170.334 257.714 170.2C257.856 170.067 258.025 170 258.221 170C258.417 170 258.585 170.067 258.724 170.2C258.866 170.334 258.937 170.494 258.937 170.682C258.937 170.869 258.866 171.03 258.724 171.163C258.585 171.297 258.417 171.364 258.221 171.364ZM265.194 173.92L264.29 174.176C264.233 174.026 264.15 173.879 264.039 173.737C263.931 173.592 263.783 173.473 263.596 173.379C263.408 173.286 263.168 173.239 262.875 173.239C262.475 173.239 262.141 173.331 261.874 173.516C261.61 173.697 261.478 173.929 261.478 174.21C261.478 174.46 261.569 174.658 261.75 174.803C261.932 174.947 262.216 175.068 262.603 175.165L263.574 175.403C264.159 175.545 264.596 175.763 264.882 176.055C265.169 176.345 265.313 176.719 265.313 177.176C265.313 177.551 265.205 177.886 264.989 178.182C264.776 178.477 264.478 178.71 264.094 178.881C263.711 179.051 263.265 179.136 262.756 179.136C262.088 179.136 261.536 178.991 261.098 178.702C260.661 178.412 260.384 177.989 260.267 177.432L261.222 177.193C261.313 177.545 261.485 177.81 261.738 177.986C261.993 178.162 262.327 178.25 262.739 178.25C263.208 178.25 263.58 178.151 263.855 177.952C264.134 177.75 264.273 177.509 264.273 177.227C264.273 177 264.194 176.81 264.034 176.656C263.875 176.5 263.631 176.384 263.301 176.307L262.211 176.051C261.611 175.909 261.171 175.689 260.89 175.391C260.611 175.089 260.472 174.713 260.472 174.261C260.472 173.892 260.576 173.565 260.783 173.281C260.993 172.997 261.279 172.774 261.64 172.612C262.003 172.45 262.415 172.369 262.875 172.369C263.523 172.369 264.032 172.511 264.401 172.795C264.773 173.08 265.037 173.455 265.194 173.92ZM270.202 179V172.455H271.207V179H270.202ZM270.713 171.364C270.517 171.364 270.348 171.297 270.206 171.163C270.067 171.03 269.997 170.869 269.997 170.682C269.997 170.494 270.067 170.334 270.206 170.2C270.348 170.067 270.517 170 270.713 170C270.909 170 271.077 170.067 271.216 170.2C271.358 170.334 271.429 170.494 271.429 170.682C271.429 170.869 271.358 171.03 271.216 171.163C271.077 171.297 270.909 171.364 270.713 171.364ZM277.686 173.92L276.782 174.176C276.725 174.026 276.642 173.879 276.531 173.737C276.423 173.592 276.275 173.473 276.088 173.379C275.9 173.286 275.66 173.239 275.368 173.239C274.967 173.239 274.633 173.331 274.366 173.516C274.102 173.697 273.97 173.929 273.97 174.21C273.97 174.46 274.061 174.658 274.243 174.803C274.424 174.947 274.708 175.068 275.095 175.165L276.066 175.403C276.652 175.545 277.088 175.763 277.375 176.055C277.662 176.345 277.805 176.719 277.805 177.176C277.805 177.551 277.697 177.886 277.481 178.182C277.268 178.477 276.97 178.71 276.586 178.881C276.203 179.051 275.757 179.136 275.248 179.136C274.581 179.136 274.028 178.991 273.591 178.702C273.153 178.412 272.876 177.989 272.76 177.432L273.714 177.193C273.805 177.545 273.977 177.81 274.23 177.986C274.485 178.162 274.819 178.25 275.231 178.25C275.7 178.25 276.072 178.151 276.348 177.952C276.626 177.75 276.765 177.509 276.765 177.227C276.765 177 276.686 176.81 276.527 176.656C276.368 176.5 276.123 176.384 275.794 176.307L274.703 176.051C274.103 175.909 273.663 175.689 273.382 175.391C273.103 175.089 272.964 174.713 272.964 174.261C272.964 173.892 273.068 173.565 273.275 173.281C273.485 172.997 273.771 172.774 274.132 172.612C274.495 172.45 274.907 172.369 275.368 172.369C276.015 172.369 276.524 172.511 276.893 172.795C277.265 173.08 277.529 173.455 277.686 173.92ZM284.62 179.153C284.205 179.153 283.829 179.075 283.491 178.919C283.153 178.76 282.884 178.531 282.685 178.233C282.487 177.932 282.387 177.568 282.387 177.142C282.387 176.767 282.461 176.463 282.609 176.23C282.756 175.994 282.954 175.81 283.201 175.676C283.448 175.543 283.721 175.443 284.019 175.378C284.32 175.31 284.623 175.256 284.927 175.216C285.325 175.165 285.647 175.126 285.894 175.101C286.144 175.072 286.326 175.026 286.44 174.96C286.556 174.895 286.614 174.781 286.614 174.619V174.585C286.614 174.165 286.499 173.838 286.269 173.605C286.042 173.372 285.697 173.256 285.234 173.256C284.754 173.256 284.377 173.361 284.104 173.571C283.832 173.781 283.64 174.006 283.529 174.244L282.575 173.903C282.745 173.506 282.972 173.196 283.256 172.974C283.543 172.75 283.856 172.594 284.194 172.506C284.535 172.415 284.87 172.369 285.2 172.369C285.41 172.369 285.651 172.395 285.924 172.446C286.2 172.494 286.465 172.595 286.721 172.749C286.979 172.902 287.194 173.134 287.364 173.443C287.535 173.753 287.62 174.168 287.62 174.688V179H286.614V178.114H286.563C286.495 178.256 286.381 178.408 286.222 178.57C286.063 178.732 285.852 178.869 285.587 178.983C285.323 179.097 285.001 179.153 284.62 179.153ZM284.773 178.25C285.171 178.25 285.506 178.172 285.779 178.016C286.055 177.859 286.262 177.658 286.401 177.411C286.543 177.163 286.614 176.903 286.614 176.631V175.71C286.572 175.761 286.478 175.808 286.333 175.851C286.191 175.891 286.026 175.926 285.839 175.957C285.654 175.986 285.474 176.011 285.298 176.034C285.124 176.054 284.984 176.071 284.876 176.085C284.614 176.119 284.37 176.175 284.143 176.251C283.918 176.325 283.737 176.437 283.597 176.588C283.461 176.736 283.393 176.937 283.393 177.193C283.393 177.543 283.522 177.807 283.781 177.986C284.042 178.162 284.373 178.25 284.773 178.25ZM293.836 175.062V179H292.831V170.273H293.836V173.477H293.922C294.075 173.139 294.305 172.871 294.612 172.672C294.922 172.47 295.333 172.369 295.848 172.369C296.294 172.369 296.684 172.459 297.02 172.638C297.355 172.814 297.615 173.085 297.799 173.452C297.987 173.815 298.081 174.278 298.081 174.841V179H297.075V174.909C297.075 174.389 296.94 173.987 296.67 173.703C296.403 173.416 296.032 173.273 295.558 173.273C295.228 173.273 294.933 173.342 294.672 173.482C294.413 173.621 294.208 173.824 294.058 174.091C293.91 174.358 293.836 174.682 293.836 175.062ZM299.92 179V172.455H300.926V179H299.92ZM300.432 171.364C300.236 171.364 300.067 171.297 299.925 171.163C299.786 171.03 299.716 170.869 299.716 170.682C299.716 170.494 299.786 170.334 299.925 170.2C300.067 170.067 300.236 170 300.432 170C300.628 170 300.795 170.067 300.935 170.2C301.077 170.334 301.148 170.494 301.148 170.682C301.148 170.869 301.077 171.03 300.935 171.163C300.795 171.297 300.628 171.364 300.432 171.364ZM303.774 175.062V179H302.768V172.455H303.74V173.477H303.825C303.978 173.145 304.211 172.878 304.524 172.676C304.836 172.472 305.24 172.369 305.734 172.369C306.177 172.369 306.565 172.46 306.897 172.642C307.23 172.821 307.488 173.094 307.673 173.46C307.858 173.824 307.95 174.284 307.95 174.841V179H306.944V174.909C306.944 174.395 306.811 173.994 306.544 173.707C306.277 173.418 305.91 173.273 305.444 173.273C305.123 173.273 304.836 173.342 304.583 173.482C304.333 173.621 304.136 173.824 303.991 174.091C303.846 174.358 303.774 174.682 303.774 175.062ZM312.634 172.455V173.307H309.242V172.455H312.634ZM310.231 170.886H311.237V177.125C311.237 177.409 311.278 177.622 311.36 177.764C311.445 177.903 311.553 177.997 311.684 178.045C311.817 178.091 311.958 178.114 312.106 178.114C312.217 178.114 312.308 178.108 312.379 178.097C312.45 178.082 312.506 178.071 312.549 178.062L312.754 178.966C312.685 178.991 312.59 179.017 312.468 179.043C312.346 179.071 312.191 179.085 312.004 179.085C311.719 179.085 311.441 179.024 311.168 178.902C310.898 178.78 310.674 178.594 310.495 178.344C310.319 178.094 310.231 177.778 310.231 177.398V170.886ZM320.369 172.455V173.307H316.977V172.455H320.369ZM317.965 170.886H318.971V177.125C318.971 177.409 319.012 177.622 319.094 177.764C319.18 177.903 319.288 177.997 319.418 178.045C319.552 178.091 319.692 178.114 319.84 178.114C319.951 178.114 320.042 178.108 320.113 178.097C320.184 178.082 320.241 178.071 320.283 178.062L320.488 178.966C320.42 178.991 320.325 179.017 320.202 179.043C320.08 179.071 319.925 179.085 319.738 179.085C319.454 179.085 319.175 179.024 318.903 178.902C318.633 178.78 318.408 178.594 318.229 178.344C318.053 178.094 317.965 177.778 317.965 177.398V170.886ZM324.555 179.136C323.925 179.136 323.381 178.997 322.923 178.719C322.469 178.438 322.118 178.045 321.871 177.543C321.626 177.037 321.504 176.449 321.504 175.778C321.504 175.108 321.626 174.517 321.871 174.006C322.118 173.491 322.462 173.091 322.902 172.804C323.345 172.514 323.862 172.369 324.453 172.369C324.794 172.369 325.131 172.426 325.463 172.54C325.795 172.653 326.098 172.838 326.371 173.094C326.643 173.347 326.861 173.682 327.023 174.099C327.185 174.517 327.266 175.031 327.266 175.642V176.068H322.22V175.199H326.243C326.243 174.83 326.169 174.5 326.021 174.21C325.876 173.92 325.669 173.692 325.399 173.524C325.132 173.357 324.817 173.273 324.453 173.273C324.053 173.273 323.706 173.372 323.413 173.571C323.124 173.767 322.901 174.023 322.744 174.338C322.588 174.653 322.51 174.991 322.51 175.352V175.932C322.51 176.426 322.595 176.845 322.766 177.189C322.939 177.53 323.179 177.79 323.486 177.969C323.793 178.145 324.149 178.233 324.555 178.233C324.82 178.233 325.058 178.196 325.271 178.122C325.487 178.045 325.673 177.932 325.83 177.781C325.986 177.628 326.107 177.437 326.192 177.21L327.163 177.483C327.061 177.812 326.889 178.102 326.648 178.352C326.406 178.599 326.108 178.793 325.753 178.932C325.398 179.068 324.999 179.136 324.555 179.136ZM329.37 172.455L330.938 175.131L332.506 172.455H333.665L331.551 175.727L333.665 179H332.506L330.938 176.46L329.37 179H328.211L330.29 175.727L328.211 172.455H329.37ZM337.947 172.455V173.307H334.555V172.455H337.947ZM335.543 170.886H336.549V177.125C336.549 177.409 336.59 177.622 336.673 177.764C336.758 177.903 336.866 177.997 336.996 178.045C337.13 178.091 337.271 178.114 337.418 178.114C337.529 178.114 337.62 178.108 337.691 178.097C337.762 178.082 337.819 178.071 337.862 178.062L338.066 178.966C337.998 178.991 337.903 179.017 337.781 179.043C337.658 179.071 337.504 179.085 337.316 179.085C337.032 179.085 336.754 179.024 336.481 178.902C336.211 178.78 335.987 178.594 335.808 178.344C335.631 178.094 335.543 177.778 335.543 177.398V170.886ZM345.681 172.455V173.307H342.289V172.455H345.681ZM343.278 170.886H344.283V177.125C344.283 177.409 344.325 177.622 344.407 177.764C344.492 177.903 344.6 177.997 344.731 178.045C344.864 178.091 345.005 178.114 345.153 178.114C345.263 178.114 345.354 178.108 345.425 178.097C345.496 178.082 345.553 178.071 345.596 178.062L345.8 178.966C345.732 178.991 345.637 179.017 345.515 179.043C345.393 179.071 345.238 179.085 345.05 179.085C344.766 179.085 344.488 179.024 344.215 178.902C343.945 178.78 343.721 178.594 343.542 178.344C343.366 178.094 343.278 177.778 343.278 177.398V170.886ZM349.783 179.136C349.192 179.136 348.673 178.996 348.227 178.714C347.784 178.433 347.438 178.04 347.188 177.534C346.94 177.028 346.817 176.437 346.817 175.761C346.817 175.08 346.94 174.484 347.188 173.976C347.438 173.467 347.784 173.072 348.227 172.791C348.673 172.51 349.192 172.369 349.783 172.369C350.374 172.369 350.891 172.51 351.334 172.791C351.78 173.072 352.126 173.467 352.374 173.976C352.624 174.484 352.749 175.08 352.749 175.761C352.749 176.437 352.624 177.028 352.374 177.534C352.126 178.04 351.78 178.433 351.334 178.714C350.891 178.996 350.374 179.136 349.783 179.136ZM349.783 178.233C350.232 178.233 350.601 178.118 350.891 177.888C351.18 177.658 351.395 177.355 351.534 176.98C351.673 176.605 351.743 176.199 351.743 175.761C351.743 175.324 351.673 174.916 351.534 174.538C351.395 174.161 351.18 173.855 350.891 173.622C350.601 173.389 350.232 173.273 349.783 173.273C349.334 173.273 348.964 173.389 348.675 173.622C348.385 173.855 348.17 174.161 348.031 174.538C347.892 174.916 347.822 175.324 347.822 175.761C347.822 176.199 347.892 176.605 348.031 176.98C348.17 177.355 348.385 177.658 348.675 177.888C348.964 178.118 349.334 178.233 349.783 178.233ZM358.664 175.062V179H357.659V170.273H358.664V173.477H358.75C358.903 173.139 359.133 172.871 359.44 172.672C359.75 172.47 360.162 172.369 360.676 172.369C361.122 172.369 361.512 172.459 361.848 172.638C362.183 172.814 362.443 173.085 362.627 173.452C362.815 173.815 362.909 174.278 362.909 174.841V179H361.903V174.909C361.903 174.389 361.768 173.987 361.498 173.703C361.231 173.416 360.86 173.273 360.386 173.273C360.056 173.273 359.761 173.342 359.5 173.482C359.241 173.621 359.037 173.824 358.886 174.091C358.738 174.358 358.664 174.682 358.664 175.062ZM367.493 179.136C366.862 179.136 366.318 178.997 365.861 178.719C365.406 178.438 365.055 178.045 364.808 177.543C364.564 177.037 364.442 176.449 364.442 175.778C364.442 175.108 364.564 174.517 364.808 174.006C365.055 173.491 365.399 173.091 365.839 172.804C366.283 172.514 366.8 172.369 367.391 172.369C367.732 172.369 368.068 172.426 368.401 172.54C368.733 172.653 369.036 172.838 369.308 173.094C369.581 173.347 369.798 173.682 369.96 174.099C370.122 174.517 370.203 175.031 370.203 175.642V176.068H365.158V175.199H369.18C369.18 174.83 369.107 174.5 368.959 174.21C368.814 173.92 368.607 173.692 368.337 173.524C368.07 173.357 367.754 173.273 367.391 173.273C366.99 173.273 366.643 173.372 366.351 173.571C366.061 173.767 365.838 174.023 365.682 174.338C365.526 174.653 365.447 174.991 365.447 175.352V175.932C365.447 176.426 365.533 176.845 365.703 177.189C365.876 177.53 366.116 177.79 366.423 177.969C366.73 178.145 367.087 178.233 367.493 178.233C367.757 178.233 367.996 178.196 368.209 178.122C368.425 178.045 368.611 177.932 368.767 177.781C368.923 177.628 369.044 177.437 369.129 177.21L370.101 177.483C369.999 177.812 369.827 178.102 369.585 178.352C369.344 178.599 369.045 178.793 368.69 178.932C368.335 179.068 367.936 179.136 367.493 179.136ZM372.739 170.273V179H371.733V170.273H372.739ZM374.581 181.455V172.455H375.552V173.494H375.672C375.745 173.381 375.848 173.236 375.978 173.06C376.112 172.881 376.302 172.722 376.549 172.582C376.799 172.44 377.137 172.369 377.564 172.369C378.115 172.369 378.6 172.507 379.021 172.783C379.441 173.058 379.77 173.449 380.005 173.955C380.241 174.46 380.359 175.057 380.359 175.744C380.359 176.438 380.241 177.038 380.005 177.547C379.77 178.053 379.443 178.445 379.025 178.723C378.608 178.999 378.126 179.136 377.581 179.136C377.16 179.136 376.824 179.067 376.571 178.928C376.318 178.786 376.123 178.625 375.987 178.446C375.85 178.264 375.745 178.114 375.672 177.994H375.586V181.455H374.581ZM375.569 175.727C375.569 176.222 375.642 176.658 375.787 177.036C375.931 177.411 376.143 177.705 376.422 177.918C376.7 178.128 377.041 178.233 377.444 178.233C377.865 178.233 378.216 178.122 378.497 177.901C378.781 177.676 378.994 177.375 379.136 176.997C379.281 176.616 379.353 176.193 379.353 175.727C379.353 175.267 379.282 174.852 379.14 174.483C379.001 174.111 378.789 173.817 378.505 173.601C378.224 173.382 377.87 173.273 377.444 173.273C377.035 173.273 376.691 173.376 376.413 173.584C376.135 173.788 375.924 174.075 375.782 174.445C375.64 174.811 375.569 175.239 375.569 175.727ZM389.393 176.324V172.455H390.399V179H389.393V177.892H389.325C389.172 178.224 388.933 178.507 388.609 178.74C388.285 178.97 387.876 179.085 387.382 179.085C386.973 179.085 386.609 178.996 386.291 178.817C385.973 178.635 385.723 178.362 385.541 177.999C385.359 177.632 385.268 177.17 385.268 176.614V172.455H386.274V176.545C386.274 177.023 386.407 177.403 386.674 177.688C386.944 177.972 387.288 178.114 387.706 178.114C387.956 178.114 388.21 178.05 388.468 177.922C388.73 177.794 388.949 177.598 389.125 177.334C389.304 177.07 389.393 176.733 389.393 176.324ZM396.877 173.92L395.974 174.176C395.917 174.026 395.833 173.879 395.722 173.737C395.614 173.592 395.467 173.473 395.279 173.379C395.092 173.286 394.852 173.239 394.559 173.239C394.158 173.239 393.825 173.331 393.558 173.516C393.293 173.697 393.161 173.929 393.161 174.21C393.161 174.46 393.252 174.658 393.434 174.803C393.616 174.947 393.9 175.068 394.286 175.165L395.258 175.403C395.843 175.545 396.279 175.763 396.566 176.055C396.853 176.345 396.996 176.719 396.996 177.176C396.996 177.551 396.888 177.886 396.673 178.182C396.46 178.477 396.161 178.71 395.778 178.881C395.394 179.051 394.948 179.136 394.44 179.136C393.772 179.136 393.219 178.991 392.782 178.702C392.344 178.412 392.067 177.989 391.951 177.432L392.906 177.193C392.996 177.545 393.168 177.81 393.421 177.986C393.677 178.162 394.011 178.25 394.423 178.25C394.891 178.25 395.263 178.151 395.539 177.952C395.817 177.75 395.957 177.509 395.957 177.227C395.957 177 395.877 176.81 395.718 176.656C395.559 176.5 395.315 176.384 394.985 176.307L393.894 176.051C393.295 175.909 392.854 175.689 392.573 175.391C392.295 175.089 392.156 174.713 392.156 174.261C392.156 173.892 392.259 173.565 392.467 173.281C392.677 172.997 392.962 172.774 393.323 172.612C393.687 172.45 394.099 172.369 394.559 172.369C395.207 172.369 395.715 172.511 396.085 172.795C396.457 173.08 396.721 173.455 396.877 173.92ZM401.255 179.136C400.624 179.136 400.08 178.997 399.623 178.719C399.168 178.438 398.817 178.045 398.57 177.543C398.326 177.037 398.203 176.449 398.203 175.778C398.203 175.108 398.326 174.517 398.57 174.006C398.817 173.491 399.161 173.091 399.601 172.804C400.044 172.514 400.561 172.369 401.152 172.369C401.493 172.369 401.83 172.426 402.162 172.54C402.495 172.653 402.797 172.838 403.07 173.094C403.343 173.347 403.56 173.682 403.722 174.099C403.884 174.517 403.965 175.031 403.965 175.642V176.068H398.919V175.199H402.942C402.942 174.83 402.868 174.5 402.721 174.21C402.576 173.92 402.368 173.692 402.098 173.524C401.831 173.357 401.516 173.273 401.152 173.273C400.752 173.273 400.405 173.372 400.113 173.571C399.823 173.767 399.6 174.023 399.444 174.338C399.287 174.653 399.209 174.991 399.209 175.352V175.932C399.209 176.426 399.294 176.845 399.465 177.189C399.638 177.53 399.878 177.79 400.185 177.969C400.492 178.145 400.848 178.233 401.255 178.233C401.519 178.233 401.757 178.196 401.971 178.122C402.186 178.045 402.373 177.932 402.529 177.781C402.685 177.628 402.806 177.437 402.891 177.21L403.863 177.483C403.76 177.812 403.588 178.102 403.347 178.352C403.105 178.599 402.807 178.793 402.452 178.932C402.097 179.068 401.698 179.136 401.255 179.136ZM405.495 179V172.455H406.466V173.443H406.534C406.654 173.119 406.87 172.857 407.182 172.655C407.495 172.453 407.847 172.352 408.239 172.352C408.313 172.352 408.405 172.354 408.516 172.357C408.627 172.359 408.711 172.364 408.767 172.369V173.392C408.733 173.384 408.655 173.371 408.533 173.354C408.414 173.334 408.287 173.324 408.154 173.324C407.836 173.324 407.551 173.391 407.301 173.524C407.054 173.655 406.858 173.837 406.713 174.07C406.571 174.3 406.5 174.562 406.5 174.858V179H405.495ZM409.942 179.068C409.732 179.068 409.552 178.993 409.401 178.842C409.251 178.692 409.175 178.511 409.175 178.301C409.175 178.091 409.251 177.911 409.401 177.76C409.552 177.609 409.732 177.534 409.942 177.534C410.153 177.534 410.333 177.609 410.484 177.76C410.634 177.911 410.71 178.091 410.71 178.301C410.71 178.44 410.674 178.568 410.603 178.685C410.535 178.801 410.442 178.895 410.326 178.966C410.212 179.034 410.085 179.068 409.942 179.068Z" fill="#959BA3"/>
</g>
<g opacity="0.2">
<path d="M242.959 117V108.273H248.43V109.406H244.276V112.065H248.145V113.195H244.276V115.866H248.482V117H242.959ZM250.087 117V110.455H251.31V111.52H251.391C251.527 111.159 251.75 110.878 252.06 110.676C252.37 110.472 252.74 110.369 253.172 110.369C253.61 110.369 253.976 110.472 254.272 110.676C254.57 110.881 254.79 111.162 254.932 111.52H255C255.157 111.17 255.405 110.892 255.746 110.685C256.087 110.474 256.493 110.369 256.965 110.369C257.559 110.369 258.043 110.555 258.418 110.928C258.796 111.3 258.985 111.861 258.985 112.611V117H257.711V112.73C257.711 112.287 257.59 111.966 257.348 111.767C257.107 111.568 256.819 111.469 256.483 111.469C256.069 111.469 255.746 111.597 255.516 111.852C255.286 112.105 255.171 112.43 255.171 112.828V117H253.901V112.649C253.901 112.294 253.79 112.009 253.569 111.793C253.347 111.577 253.059 111.469 252.703 111.469C252.462 111.469 252.239 111.533 252.034 111.661C251.833 111.786 251.669 111.96 251.544 112.185C251.422 112.409 251.361 112.669 251.361 112.964V117H250.087ZM262.597 117.145C262.183 117.145 261.808 117.068 261.472 116.915C261.137 116.759 260.871 116.533 260.675 116.237C260.482 115.942 260.386 115.58 260.386 115.151C260.386 114.781 260.457 114.477 260.599 114.239C260.741 114 260.933 113.811 261.174 113.672C261.415 113.533 261.685 113.428 261.984 113.357C262.282 113.286 262.586 113.232 262.896 113.195C263.288 113.149 263.606 113.112 263.85 113.084C264.094 113.053 264.272 113.003 264.383 112.935C264.494 112.866 264.549 112.756 264.549 112.602V112.572C264.549 112.2 264.444 111.912 264.234 111.707C264.026 111.503 263.717 111.401 263.305 111.401C262.876 111.401 262.538 111.496 262.29 111.686C262.046 111.874 261.877 112.082 261.783 112.312L260.586 112.04C260.728 111.642 260.935 111.321 261.208 111.077C261.484 110.83 261.8 110.651 262.158 110.54C262.516 110.426 262.893 110.369 263.288 110.369C263.549 110.369 263.826 110.401 264.119 110.463C264.414 110.523 264.69 110.634 264.945 110.795C265.204 110.957 265.415 111.189 265.58 111.49C265.745 111.788 265.827 112.176 265.827 112.653V117H264.583V116.105H264.532C264.45 116.27 264.326 116.432 264.161 116.591C263.996 116.75 263.785 116.882 263.526 116.987C263.268 117.092 262.958 117.145 262.597 117.145ZM262.874 116.122C263.227 116.122 263.528 116.053 263.778 115.913C264.031 115.774 264.222 115.592 264.353 115.368C264.487 115.141 264.553 114.898 264.553 114.639V113.795C264.508 113.841 264.42 113.884 264.289 113.923C264.161 113.96 264.015 113.993 263.85 114.021C263.685 114.047 263.525 114.071 263.369 114.094C263.212 114.114 263.082 114.131 262.977 114.145C262.729 114.176 262.504 114.229 262.299 114.303C262.097 114.376 261.935 114.483 261.813 114.622C261.694 114.759 261.634 114.94 261.634 115.168C261.634 115.483 261.751 115.722 261.984 115.884C262.217 116.043 262.513 116.122 262.874 116.122ZM267.525 117V110.455H268.799V117H267.525ZM268.168 109.445C267.946 109.445 267.756 109.371 267.597 109.223C267.441 109.072 267.363 108.893 267.363 108.686C267.363 108.476 267.441 108.297 267.597 108.149C267.756 107.999 267.946 107.923 268.168 107.923C268.39 107.923 268.578 107.999 268.735 108.149C268.894 108.297 268.973 108.476 268.973 108.686C268.973 108.893 268.894 109.072 268.735 109.223C268.578 109.371 268.39 109.445 268.168 109.445ZM271.787 108.273V117H270.513V108.273H271.787Z" fill="#344054"/>
<rect x="242.5" y="126.5" width="319" height="35" rx="2.5" fill="white"/>
<path d="M272.335 138.999C272.335 138.082 271.585 137.332 270.668 137.332H257.335C256.418 137.332 255.668 138.082 255.668 138.999M272.335 138.999V148.999C272.335 149.915 271.585 150.665 270.668 150.665H257.335C256.418 150.665 255.668 149.915 255.668 148.999V138.999M272.335 138.999L264.001 144.832L255.668 138.999" stroke="#959BA3" stroke-width="1.66667" stroke-linecap="round" stroke-linejoin="round"/>
<path d="M285.878 149.148C285.238 149.148 284.676 148.995 284.193 148.691C283.713 148.386 283.337 147.96 283.066 147.412C282.799 146.864 282.665 146.224 282.665 145.491C282.665 144.753 282.799 144.108 283.066 143.557C283.337 143.006 283.713 142.578 284.193 142.274C284.676 141.969 285.238 141.817 285.878 141.817C286.518 141.817 287.078 141.969 287.558 142.274C288.041 142.578 288.417 143.006 288.685 143.557C288.955 144.108 289.091 144.753 289.091 145.491C289.091 146.224 288.955 146.864 288.685 147.412C288.417 147.96 288.041 148.386 287.558 148.691C287.078 148.995 286.518 149.148 285.878 149.148ZM285.878 148.169C286.364 148.169 286.764 148.044 287.078 147.795C287.392 147.546 287.624 147.218 287.775 146.812C287.926 146.406 288.001 145.965 288.001 145.491C288.001 145.018 287.926 144.576 287.775 144.167C287.624 143.757 287.392 143.426 287.078 143.174C286.764 142.922 286.364 142.795 285.878 142.795C285.392 142.795 284.991 142.922 284.678 143.174C284.364 143.426 284.131 143.757 283.98 144.167C283.83 144.576 283.754 145.018 283.754 145.491C283.754 145.965 283.83 146.406 283.98 146.812C284.131 147.218 284.364 147.546 284.678 147.795C284.991 148.044 285.392 148.169 285.878 148.169ZM291.843 139.545V149H290.754V139.545H291.843ZM293.839 149V141.909H294.928V149H293.839ZM294.393 140.727C294.181 140.727 293.997 140.655 293.844 140.51C293.693 140.366 293.617 140.192 293.617 139.989C293.617 139.786 293.693 139.612 293.844 139.467C293.997 139.322 294.181 139.25 294.393 139.25C294.605 139.25 294.787 139.322 294.938 139.467C295.092 139.612 295.169 139.786 295.169 139.989C295.169 140.192 295.092 140.366 294.938 140.51C294.787 140.655 294.605 140.727 294.393 140.727ZM302.722 141.909L300.1 149H298.992L296.37 141.909H297.552L299.509 147.56H299.583L301.54 141.909H302.722ZM304.16 149V141.909H305.25V149H304.16ZM304.714 140.727C304.502 140.727 304.319 140.655 304.165 140.51C304.014 140.366 303.939 140.192 303.939 139.989C303.939 139.786 304.014 139.612 304.165 139.467C304.319 139.322 304.502 139.25 304.714 139.25C304.927 139.25 305.108 139.322 305.259 139.467C305.413 139.612 305.49 139.786 305.49 139.989C305.49 140.192 305.413 140.366 305.259 140.51C305.108 140.655 304.927 140.727 304.714 140.727ZM309.332 149.166C308.883 149.166 308.475 149.082 308.108 148.912C307.742 148.74 307.451 148.492 307.236 148.169C307.021 147.843 306.913 147.449 306.913 146.987C306.913 146.581 306.993 146.252 307.153 145.999C307.313 145.744 307.527 145.544 307.795 145.399C308.062 145.254 308.358 145.147 308.681 145.076C309.007 145.002 309.335 144.944 309.664 144.901C310.095 144.845 310.444 144.804 310.712 144.776C310.983 144.745 311.18 144.694 311.303 144.624C311.429 144.553 311.492 144.43 311.492 144.254V144.217C311.492 143.762 311.368 143.408 311.118 143.156C310.872 142.903 310.498 142.777 309.997 142.777C309.477 142.777 309.069 142.891 308.773 143.119C308.478 143.346 308.27 143.589 308.15 143.848L307.116 143.479C307.301 143.048 307.547 142.712 307.855 142.472C308.165 142.229 308.504 142.06 308.87 141.964C309.24 141.866 309.603 141.817 309.96 141.817C310.187 141.817 310.449 141.844 310.744 141.9C311.043 141.952 311.331 142.061 311.608 142.228C311.888 142.394 312.12 142.645 312.305 142.98C312.49 143.316 312.582 143.765 312.582 144.328V149H311.492V148.04H311.437C311.363 148.194 311.24 148.358 311.068 148.534C310.895 148.709 310.666 148.858 310.38 148.982C310.094 149.105 309.744 149.166 309.332 149.166ZM309.498 148.188C309.929 148.188 310.292 148.103 310.588 147.934C310.886 147.764 311.111 147.546 311.262 147.278C311.415 147.01 311.492 146.729 311.492 146.433V145.436C311.446 145.491 311.345 145.542 311.188 145.588C311.034 145.632 310.855 145.67 310.652 145.704C310.452 145.735 310.257 145.762 310.066 145.787C309.878 145.808 309.726 145.827 309.609 145.842C309.326 145.879 309.061 145.939 308.815 146.022C308.572 146.102 308.375 146.224 308.224 146.387C308.076 146.547 308.002 146.766 308.002 147.043C308.002 147.421 308.142 147.707 308.422 147.901C308.706 148.092 309.064 148.188 309.498 148.188ZM320.018 151.493C319.076 151.493 318.244 151.364 317.52 151.105C316.797 150.85 316.189 150.473 315.697 149.974C315.204 149.475 314.832 148.865 314.58 148.141C314.327 147.418 314.201 146.59 314.201 145.658C314.201 144.756 314.329 143.95 314.584 143.239C314.843 142.528 315.217 141.924 315.706 141.429C316.198 140.93 316.796 140.55 317.497 140.289C318.202 140.027 318.999 139.896 319.889 139.896C320.753 139.896 321.511 140.038 322.16 140.321C322.812 140.601 323.357 140.981 323.794 141.461C324.234 141.938 324.564 142.475 324.782 143.072C325.004 143.67 325.114 144.285 325.114 144.919C325.114 145.365 325.093 145.818 325.05 146.276C325.007 146.735 324.916 147.156 324.777 147.541C324.639 147.923 324.425 148.231 324.136 148.464C323.85 148.698 323.462 148.815 322.972 148.815C322.757 148.815 322.52 148.781 322.261 148.714C322.003 148.646 321.774 148.534 321.574 148.377C321.374 148.22 321.255 148.009 321.218 147.744H321.163C321.089 147.923 320.975 148.092 320.821 148.252C320.67 148.412 320.472 148.54 320.226 148.635C319.982 148.731 319.685 148.772 319.335 148.76C318.935 148.745 318.582 148.655 318.277 148.492C317.973 148.326 317.717 148.101 317.511 147.818C317.308 147.532 317.154 147.201 317.049 146.826C316.948 146.447 316.897 146.039 316.897 145.602C316.897 145.187 316.959 144.807 317.082 144.462C317.205 144.117 317.376 143.816 317.594 143.557C317.816 143.299 318.074 143.092 318.37 142.939C318.668 142.782 318.99 142.685 319.335 142.648C319.642 142.617 319.922 142.631 320.175 142.689C320.427 142.745 320.635 142.829 320.798 142.943C320.961 143.054 321.064 143.177 321.107 143.312H321.163V142.795H322.141V146.969C322.141 147.227 322.214 147.455 322.358 147.652C322.503 147.849 322.714 147.947 322.991 147.947C323.305 147.947 323.545 147.84 323.711 147.624C323.88 147.409 323.996 147.076 324.057 146.627C324.122 146.178 324.154 145.602 324.154 144.901C324.154 144.488 324.097 144.082 323.983 143.682C323.873 143.279 323.703 142.902 323.476 142.551C323.251 142.2 322.966 141.891 322.622 141.623C322.277 141.355 321.872 141.146 321.407 140.995C320.946 140.841 320.421 140.764 319.833 140.764C319.11 140.764 318.462 140.877 317.89 141.101C317.32 141.323 316.836 141.647 316.435 142.075C316.038 142.5 315.735 143.017 315.526 143.626C315.32 144.233 315.217 144.922 315.217 145.695C315.217 146.479 315.32 147.176 315.526 147.786C315.735 148.395 316.043 148.909 316.449 149.328C316.859 149.746 317.365 150.063 317.968 150.279C318.571 150.497 319.267 150.607 320.055 150.607C320.393 150.607 320.727 150.574 321.057 150.51C321.386 150.445 321.677 150.374 321.929 150.297C322.181 150.22 322.363 150.163 322.474 150.126L322.732 150.976C322.542 151.056 322.292 151.136 321.984 151.216C321.68 151.296 321.354 151.362 321.006 151.414C320.661 151.467 320.332 151.493 320.018 151.493ZM319.482 147.818C319.895 147.818 320.229 147.735 320.484 147.569C320.74 147.403 320.926 147.152 321.043 146.816C321.16 146.481 321.218 146.058 321.218 145.547C321.218 145.03 321.153 144.627 321.024 144.337C320.895 144.048 320.704 143.845 320.452 143.728C320.199 143.611 319.889 143.553 319.519 143.553C319.168 143.553 318.868 143.645 318.619 143.83C318.373 144.011 318.184 144.254 318.051 144.559C317.922 144.861 317.857 145.19 317.857 145.547C317.857 145.941 317.91 146.312 318.014 146.659C318.119 147.004 318.29 147.284 318.527 147.5C318.764 147.712 319.082 147.818 319.482 147.818ZM331.214 146.101V141.909H332.303V149H331.214V147.8H331.14C330.974 148.16 330.715 148.466 330.365 148.718C330.014 148.968 329.57 149.092 329.035 149.092C328.592 149.092 328.198 148.995 327.853 148.801C327.508 148.605 327.238 148.309 327.041 147.915C326.844 147.518 326.745 147.018 326.745 146.415V141.909H327.835V146.341C327.835 146.858 327.979 147.27 328.269 147.578C328.561 147.886 328.933 148.04 329.386 148.04C329.657 148.04 329.932 147.971 330.212 147.832C330.495 147.694 330.732 147.481 330.923 147.195C331.117 146.909 331.214 146.544 331.214 146.101ZM335.388 144.734V149H334.299V141.909H335.351V143.017H335.444C335.61 142.657 335.862 142.368 336.201 142.149C336.539 141.928 336.976 141.817 337.512 141.817C337.992 141.817 338.412 141.915 338.772 142.112C339.132 142.306 339.412 142.602 339.612 142.999C339.813 143.393 339.913 143.891 339.913 144.494V149H338.823V144.568C338.823 144.011 338.678 143.577 338.389 143.266C338.1 142.952 337.703 142.795 337.198 142.795C336.85 142.795 336.539 142.871 336.266 143.022C335.995 143.172 335.781 143.393 335.624 143.682C335.467 143.971 335.388 144.322 335.388 144.734ZM344.987 141.909V142.832H341.312V141.909H344.987ZM342.384 140.21H343.473V146.969C343.473 147.277 343.518 147.507 343.607 147.661C343.699 147.812 343.816 147.914 343.958 147.966C344.102 148.015 344.255 148.04 344.415 148.04C344.535 148.04 344.633 148.034 344.71 148.021C344.787 148.006 344.849 147.994 344.895 147.984L345.116 148.963C345.043 148.991 344.94 149.018 344.807 149.046C344.675 149.077 344.507 149.092 344.304 149.092C343.996 149.092 343.695 149.026 343.399 148.894C343.107 148.761 342.864 148.56 342.67 148.289C342.479 148.018 342.384 147.677 342.384 147.264V140.21ZM346.626 149V141.909H347.716V149H346.626ZM347.18 140.727C346.968 140.727 346.785 140.655 346.631 140.51C346.48 140.366 346.404 140.192 346.404 139.989C346.404 139.786 346.48 139.612 346.631 139.467C346.785 139.322 346.968 139.25 347.18 139.25C347.392 139.25 347.574 139.322 347.725 139.467C347.879 139.612 347.956 139.786 347.956 139.989C347.956 140.192 347.879 140.366 347.725 140.51C347.574 140.655 347.392 140.727 347.18 140.727ZM352.795 141.909V142.832H349.12V141.909H352.795ZM350.191 140.21H351.281V146.969C351.281 147.277 351.325 147.507 351.415 147.661C351.507 147.812 351.624 147.914 351.765 147.966C351.91 148.015 352.062 148.04 352.222 148.04C352.342 148.04 352.441 148.034 352.518 148.021C352.595 148.006 352.656 147.994 352.703 147.984L352.924 148.963C352.85 148.991 352.747 149.018 352.615 149.046C352.482 149.077 352.315 149.092 352.112 149.092C351.804 149.092 351.502 149.026 351.207 148.894C350.914 148.761 350.671 148.56 350.477 148.289C350.287 148.018 350.191 147.677 350.191 147.264V140.21ZM355.676 139.545V149H354.586V139.545H355.676ZM360.644 149.148C359.961 149.148 359.371 148.997 358.876 148.695C358.383 148.391 358.003 147.966 357.736 147.421C357.471 146.873 357.339 146.236 357.339 145.51C357.339 144.784 357.471 144.143 357.736 143.589C358.003 143.032 358.376 142.598 358.853 142.288C359.333 141.974 359.893 141.817 360.533 141.817C360.903 141.817 361.267 141.878 361.627 142.001C361.987 142.125 362.315 142.325 362.611 142.602C362.906 142.875 363.142 143.239 363.317 143.691C363.492 144.143 363.58 144.701 363.58 145.362V145.824H358.114V144.882H362.472C362.472 144.482 362.392 144.125 362.232 143.811C362.075 143.497 361.85 143.249 361.558 143.068C361.269 142.886 360.927 142.795 360.533 142.795C360.099 142.795 359.724 142.903 359.407 143.119C359.093 143.331 358.851 143.608 358.682 143.95C358.513 144.291 358.428 144.657 358.428 145.048V145.676C358.428 146.212 358.52 146.666 358.705 147.038C358.893 147.407 359.153 147.689 359.485 147.883C359.818 148.074 360.204 148.169 360.644 148.169C360.93 148.169 361.189 148.129 361.42 148.049C361.653 147.966 361.855 147.843 362.024 147.68C362.194 147.513 362.324 147.307 362.417 147.061L363.469 147.357C363.358 147.714 363.172 148.027 362.911 148.298C362.649 148.566 362.326 148.775 361.941 148.926C361.557 149.074 361.124 149.148 360.644 149.148ZM367.915 149.148C367.324 149.148 366.802 148.998 366.35 148.7C365.898 148.398 365.544 147.974 365.288 147.426C365.033 146.875 364.905 146.224 364.905 145.473C364.905 144.728 365.033 144.082 365.288 143.534C365.544 142.986 365.899 142.563 366.355 142.265C366.81 141.966 367.336 141.817 367.933 141.817C368.395 141.817 368.76 141.894 369.028 142.048C369.298 142.198 369.505 142.371 369.646 142.565C369.791 142.755 369.903 142.912 369.983 143.036H370.075V139.545H371.165V149H370.112V147.911H369.983C369.903 148.04 369.789 148.203 369.642 148.4C369.494 148.594 369.283 148.768 369.009 148.922C368.735 149.072 368.37 149.148 367.915 149.148ZM368.063 148.169C368.5 148.169 368.869 148.055 369.171 147.827C369.472 147.597 369.702 147.278 369.858 146.872C370.015 146.462 370.094 145.99 370.094 145.455C370.094 144.925 370.017 144.462 369.863 144.065C369.709 143.665 369.481 143.354 369.18 143.132C368.878 142.908 368.506 142.795 368.063 142.795C367.601 142.795 367.216 142.914 366.909 143.151C366.604 143.385 366.375 143.703 366.221 144.107C366.07 144.507 365.994 144.956 365.994 145.455C365.994 145.959 366.071 146.418 366.225 146.83C366.382 147.24 366.613 147.566 366.918 147.809C367.226 148.049 367.607 148.169 368.063 148.169ZM377.78 146.101V141.909H378.87V149H377.78V147.8H377.706C377.54 148.16 377.282 148.466 376.931 148.718C376.58 148.968 376.137 149.092 375.601 149.092C375.158 149.092 374.764 148.995 374.42 148.801C374.075 148.605 373.804 148.309 373.607 147.915C373.41 147.518 373.312 147.018 373.312 146.415V141.909H374.401V146.341C374.401 146.858 374.546 147.27 374.835 147.578C375.127 147.886 375.5 148.04 375.952 148.04C376.223 148.04 376.499 147.971 376.779 147.832C377.062 147.694 377.299 147.481 377.49 147.195C377.683 146.909 377.78 146.544 377.78 146.101ZM380.865 149V141.909H381.955V149H380.865ZM381.419 140.727C381.207 140.727 381.024 140.655 380.87 140.51C380.719 140.366 380.644 140.192 380.644 139.989C380.644 139.786 380.719 139.612 380.87 139.467C381.024 139.322 381.207 139.25 381.419 139.25C381.632 139.25 381.813 139.322 381.964 139.467C382.118 139.612 382.195 139.786 382.195 139.989C382.195 140.192 382.118 140.366 381.964 140.51C381.813 140.655 381.632 140.727 381.419 140.727ZM384.744 149.074C384.517 149.074 384.321 148.992 384.158 148.829C383.995 148.666 383.913 148.471 383.913 148.243C383.913 148.015 383.995 147.82 384.158 147.657C384.321 147.493 384.517 147.412 384.744 147.412C384.972 147.412 385.167 147.493 385.331 147.657C385.494 147.82 385.575 148.015 385.575 148.243C385.575 148.394 385.537 148.532 385.46 148.658C385.386 148.785 385.286 148.886 385.16 148.963C385.037 149.037 384.898 149.074 384.744 149.074ZM390.411 149.148C389.746 149.148 389.174 148.991 388.694 148.677C388.214 148.363 387.844 147.931 387.586 147.38C387.327 146.829 387.198 146.199 387.198 145.491C387.198 144.771 387.33 144.136 387.595 143.585C387.863 143.031 388.235 142.598 388.712 142.288C389.192 141.974 389.752 141.817 390.393 141.817C390.891 141.817 391.34 141.909 391.741 142.094C392.141 142.278 392.468 142.537 392.724 142.869C392.979 143.202 393.138 143.589 393.199 144.033H392.11C392.027 143.71 391.842 143.423 391.556 143.174C391.273 142.922 390.891 142.795 390.411 142.795C389.986 142.795 389.614 142.906 389.294 143.128C388.977 143.346 388.729 143.656 388.551 144.056C388.375 144.453 388.287 144.919 388.287 145.455C388.287 146.002 388.374 146.479 388.546 146.886C388.721 147.292 388.968 147.607 389.285 147.832C389.605 148.057 389.98 148.169 390.411 148.169C390.694 148.169 390.951 148.12 391.182 148.021C391.413 147.923 391.608 147.781 391.768 147.597C391.928 147.412 392.042 147.19 392.11 146.932H393.199C393.138 147.35 392.985 147.727 392.742 148.063C392.502 148.395 392.184 148.66 391.787 148.857C391.393 149.051 390.934 149.148 390.411 149.148ZM397.673 149.148C397.033 149.148 396.471 148.995 395.988 148.691C395.508 148.386 395.132 147.96 394.861 147.412C394.594 146.864 394.46 146.224 394.46 145.491C394.46 144.753 394.594 144.108 394.861 143.557C395.132 143.006 395.508 142.578 395.988 142.274C396.471 141.969 397.033 141.817 397.673 141.817C398.313 141.817 398.873 141.969 399.353 142.274C399.836 142.578 400.212 143.006 400.48 143.557C400.75 144.108 400.886 144.753 400.886 145.491C400.886 146.224 400.75 146.864 400.48 147.412C400.212 147.96 399.836 148.386 399.353 148.691C398.873 148.995 398.313 149.148 397.673 149.148ZM397.673 148.169C398.159 148.169 398.559 148.044 398.873 147.795C399.187 147.546 399.419 147.218 399.57 146.812C399.721 146.406 399.796 145.965 399.796 145.491C399.796 145.018 399.721 144.576 399.57 144.167C399.419 143.757 399.187 143.426 398.873 143.174C398.559 142.922 398.159 142.795 397.673 142.795C397.186 142.795 396.786 142.922 396.472 143.174C396.159 143.426 395.926 143.757 395.775 144.167C395.625 144.576 395.549 145.018 395.549 145.491C395.549 145.965 395.625 146.406 395.775 146.812C395.926 147.218 396.159 147.546 396.472 147.795C396.786 148.044 397.186 148.169 397.673 148.169ZM402.549 149V141.909H403.601V143.017H403.694C403.842 142.638 404.08 142.345 404.409 142.135C404.739 141.923 405.134 141.817 405.596 141.817C406.064 141.817 406.453 141.923 406.764 142.135C407.078 142.345 407.322 142.638 407.498 143.017H407.572C407.753 142.651 408.026 142.36 408.389 142.145C408.752 141.926 409.187 141.817 409.695 141.817C410.329 141.817 410.848 142.015 411.251 142.412C411.654 142.806 411.856 143.42 411.856 144.254V149H410.766V144.254C410.766 143.731 410.623 143.357 410.337 143.132C410.051 142.908 409.714 142.795 409.326 142.795C408.827 142.795 408.441 142.946 408.167 143.248C407.893 143.546 407.756 143.925 407.756 144.384V149H406.648V144.143C406.648 143.74 406.518 143.416 406.256 143.169C405.994 142.92 405.657 142.795 405.245 142.795C404.962 142.795 404.697 142.871 404.451 143.022C404.208 143.172 404.011 143.382 403.86 143.65C403.712 143.914 403.638 144.22 403.638 144.568V149H402.549Z" fill="#959BA3"/>
<g clip-path="url(#clip1_893_10522)">
<path d="M540.059 141.999C540.215 141.553 540.525 141.177 540.932 140.938C541.339 140.699 541.818 140.611 542.283 140.691C542.749 140.771 543.171 141.013 543.475 141.374C543.78 141.736 543.946 142.193 543.945 142.665C543.945 143.999 541.945 144.665 541.945 144.665M541.999 147.332H542.005M548.665 143.999C548.665 147.681 545.681 150.665 541.999 150.665C538.317 150.665 535.332 147.681 535.332 143.999C535.332 140.317 538.317 137.332 541.999 137.332C545.681 137.332 548.665 140.317 548.665 143.999Z" stroke="#B8BFC7" stroke-width="1.33333" stroke-linecap="round" stroke-linejoin="round"/>
</g>
<rect x="242.5" y="126.5" width="319" height="35" rx="2.5" stroke="#D8DEE9"/>
<path d="M242.58 171.21V170.273H249.125V171.21H246.381V179H245.324V171.21H242.58ZM251.625 175.062V179H250.62V170.273H251.625V173.477H251.711C251.864 173.139 252.094 172.871 252.401 172.672C252.711 172.47 253.123 172.369 253.637 172.369C254.083 172.369 254.473 172.459 254.809 172.638C255.144 172.814 255.404 173.085 255.588 173.452C255.776 173.815 255.87 174.278 255.87 174.841V179H254.864V174.909C254.864 174.389 254.729 173.987 254.459 173.703C254.192 173.416 253.821 173.273 253.347 173.273C253.017 173.273 252.722 173.342 252.461 173.482C252.202 173.621 251.998 173.824 251.847 174.091C251.699 174.358 251.625 174.682 251.625 175.062ZM257.71 179V172.455H258.715V179H257.71ZM258.221 171.364C258.025 171.364 257.856 171.297 257.714 171.163C257.575 171.03 257.505 170.869 257.505 170.682C257.505 170.494 257.575 170.334 257.714 170.2C257.856 170.067 258.025 170 258.221 170C258.417 170 258.585 170.067 258.724 170.2C258.866 170.334 258.937 170.494 258.937 170.682C258.937 170.869 258.866 171.03 258.724 171.163C258.585 171.297 258.417 171.364 258.221 171.364ZM265.194 173.92L264.29 174.176C264.233 174.026 264.15 173.879 264.039 173.737C263.931 173.592 263.783 173.473 263.596 173.379C263.408 173.286 263.168 173.239 262.875 173.239C262.475 173.239 262.141 173.331 261.874 173.516C261.61 173.697 261.478 173.929 261.478 174.21C261.478 174.46 261.569 174.658 261.75 174.803C261.932 174.947 262.216 175.068 262.603 175.165L263.574 175.403C264.159 175.545 264.596 175.763 264.882 176.055C265.169 176.345 265.313 176.719 265.313 177.176C265.313 177.551 265.205 177.886 264.989 178.182C264.776 178.477 264.478 178.71 264.094 178.881C263.711 179.051 263.265 179.136 262.756 179.136C262.088 179.136 261.536 178.991 261.098 178.702C260.661 178.412 260.384 177.989 260.267 177.432L261.222 177.193C261.313 177.545 261.485 177.81 261.738 177.986C261.993 178.162 262.327 178.25 262.739 178.25C263.208 178.25 263.58 178.151 263.855 177.952C264.134 177.75 264.273 177.509 264.273 177.227C264.273 177 264.194 176.81 264.034 176.656C263.875 176.5 263.631 176.384 263.301 176.307L262.211 176.051C261.611 175.909 261.171 175.689 260.89 175.391C260.611 175.089 260.472 174.713 260.472 174.261C260.472 173.892 260.576 173.565 260.783 173.281C260.993 172.997 261.279 172.774 261.64 172.612C262.003 172.45 262.415 172.369 262.875 172.369C263.523 172.369 264.032 172.511 264.401 172.795C264.773 173.08 265.037 173.455 265.194 173.92ZM270.202 179V172.455H271.207V179H270.202ZM270.713 171.364C270.517 171.364 270.348 171.297 270.206 171.163C270.067 171.03 269.997 170.869 269.997 170.682C269.997 170.494 270.067 170.334 270.206 170.2C270.348 170.067 270.517 170 270.713 170C270.909 170 271.077 170.067 271.216 170.2C271.358 170.334 271.429 170.494 271.429 170.682C271.429 170.869 271.358 171.03 271.216 171.163C271.077 171.297 270.909 171.364 270.713 171.364ZM277.686 173.92L276.782 174.176C276.725 174.026 276.642 173.879 276.531 173.737C276.423 173.592 276.275 173.473 276.088 173.379C275.9 173.286 275.66 173.239 275.368 173.239C274.967 173.239 274.633 173.331 274.366 173.516C274.102 173.697 273.97 173.929 273.97 174.21C273.97 174.46 274.061 174.658 274.243 174.803C274.424 174.947 274.708 175.068 275.095 175.165L276.066 175.403C276.652 175.545 277.088 175.763 277.375 176.055C277.662 176.345 277.805 176.719 277.805 177.176C277.805 177.551 277.697 177.886 277.481 178.182C277.268 178.477 276.97 178.71 276.586 178.881C276.203 179.051 275.757 179.136 275.248 179.136C274.581 179.136 274.028 178.991 273.591 178.702C273.153 178.412 272.876 177.989 272.76 177.432L273.714 177.193C273.805 177.545 273.977 177.81 274.23 177.986C274.485 178.162 274.819 178.25 275.231 178.25C275.7 178.25 276.072 178.151 276.348 177.952C276.626 177.75 276.765 177.509 276.765 177.227C276.765 177 276.686 176.81 276.527 176.656C276.368 176.5 276.123 176.384 275.794 176.307L274.703 176.051C274.103 175.909 273.663 175.689 273.382 175.391C273.103 175.089 272.964 174.713 272.964 174.261C272.964 173.892 273.068 173.565 273.275 173.281C273.485 172.997 273.771 172.774 274.132 172.612C274.495 172.45 274.907 172.369 275.368 172.369C276.015 172.369 276.524 172.511 276.893 172.795C277.265 173.08 277.529 173.455 277.686 173.92ZM284.62 179.153C284.205 179.153 283.829 179.075 283.491 178.919C283.153 178.76 282.884 178.531 282.685 178.233C282.487 177.932 282.387 177.568 282.387 177.142C282.387 176.767 282.461 176.463 282.609 176.23C282.756 175.994 282.954 175.81 283.201 175.676C283.448 175.543 283.721 175.443 284.019 175.378C284.32 175.31 284.623 175.256 284.927 175.216C285.325 175.165 285.647 175.126 285.894 175.101C286.144 175.072 286.326 175.026 286.44 174.96C286.556 174.895 286.614 174.781 286.614 174.619V174.585C286.614 174.165 286.499 173.838 286.269 173.605C286.042 173.372 285.697 173.256 285.234 173.256C284.754 173.256 284.377 173.361 284.104 173.571C283.832 173.781 283.64 174.006 283.529 174.244L282.575 173.903C282.745 173.506 282.972 173.196 283.256 172.974C283.543 172.75 283.856 172.594 284.194 172.506C284.535 172.415 284.87 172.369 285.2 172.369C285.41 172.369 285.651 172.395 285.924 172.446C286.2 172.494 286.465 172.595 286.721 172.749C286.979 172.902 287.194 173.134 287.364 173.443C287.535 173.753 287.62 174.168 287.62 174.688V179H286.614V178.114H286.563C286.495 178.256 286.381 178.408 286.222 178.57C286.063 178.732 285.852 178.869 285.587 178.983C285.323 179.097 285.001 179.153 284.62 179.153ZM284.773 178.25C285.171 178.25 285.506 178.172 285.779 178.016C286.055 177.859 286.262 177.658 286.401 177.411C286.543 177.163 286.614 176.903 286.614 176.631V175.71C286.572 175.761 286.478 175.808 286.333 175.851C286.191 175.891 286.026 175.926 285.839 175.957C285.654 175.986 285.474 176.011 285.298 176.034C285.124 176.054 284.984 176.071 284.876 176.085C284.614 176.119 284.37 176.175 284.143 176.251C283.918 176.325 283.737 176.437 283.597 176.588C283.461 176.736 283.393 176.937 283.393 177.193C283.393 177.543 283.522 177.807 283.781 177.986C284.042 178.162 284.373 178.25 284.773 178.25ZM293.836 175.062V179H292.831V170.273H293.836V173.477H293.922C294.075 173.139 294.305 172.871 294.612 172.672C294.922 172.47 295.333 172.369 295.848 172.369C296.294 172.369 296.684 172.459 297.02 172.638C297.355 172.814 297.615 173.085 297.799 173.452C297.987 173.815 298.081 174.278 298.081 174.841V179H297.075V174.909C297.075 174.389 296.94 173.987 296.67 173.703C296.403 173.416 296.032 173.273 295.558 173.273C295.228 173.273 294.933 173.342 294.672 173.482C294.413 173.621 294.208 173.824 294.058 174.091C293.91 174.358 293.836 174.682 293.836 175.062ZM299.92 179V172.455H300.926V179H299.92ZM300.432 171.364C300.236 171.364 300.067 171.297 299.925 171.163C299.786 171.03 299.716 170.869 299.716 170.682C299.716 170.494 299.786 170.334 299.925 170.2C300.067 170.067 300.236 170 300.432 170C300.628 170 300.795 170.067 300.935 170.2C301.077 170.334 301.148 170.494 301.148 170.682C301.148 170.869 301.077 171.03 300.935 171.163C300.795 171.297 300.628 171.364 300.432 171.364ZM303.774 175.062V179H302.768V172.455H303.74V173.477H303.825C303.978 173.145 304.211 172.878 304.524 172.676C304.836 172.472 305.24 172.369 305.734 172.369C306.177 172.369 306.565 172.46 306.897 172.642C307.23 172.821 307.488 173.094 307.673 173.46C307.858 173.824 307.95 174.284 307.95 174.841V179H306.944V174.909C306.944 174.395 306.811 173.994 306.544 173.707C306.277 173.418 305.91 173.273 305.444 173.273C305.123 173.273 304.836 173.342 304.583 173.482C304.333 173.621 304.136 173.824 303.991 174.091C303.846 174.358 303.774 174.682 303.774 175.062ZM312.634 172.455V173.307H309.242V172.455H312.634ZM310.231 170.886H311.237V177.125C311.237 177.409 311.278 177.622 311.36 177.764C311.445 177.903 311.553 177.997 311.684 178.045C311.817 178.091 311.958 178.114 312.106 178.114C312.217 178.114 312.308 178.108 312.379 178.097C312.45 178.082 312.506 178.071 312.549 178.062L312.754 178.966C312.685 178.991 312.59 179.017 312.468 179.043C312.346 179.071 312.191 179.085 312.004 179.085C311.719 179.085 311.441 179.024 311.168 178.902C310.898 178.78 310.674 178.594 310.495 178.344C310.319 178.094 310.231 177.778 310.231 177.398V170.886ZM320.369 172.455V173.307H316.977V172.455H320.369ZM317.965 170.886H318.971V177.125C318.971 177.409 319.012 177.622 319.094 177.764C319.18 177.903 319.288 177.997 319.418 178.045C319.552 178.091 319.692 178.114 319.84 178.114C319.951 178.114 320.042 178.108 320.113 178.097C320.184 178.082 320.241 178.071 320.283 178.062L320.488 178.966C320.42 178.991 320.325 179.017 320.202 179.043C320.08 179.071 319.925 179.085 319.738 179.085C319.454 179.085 319.175 179.024 318.903 178.902C318.633 178.78 318.408 178.594 318.229 178.344C318.053 178.094 317.965 177.778 317.965 177.398V170.886ZM324.555 179.136C323.925 179.136 323.381 178.997 322.923 178.719C322.469 178.438 322.118 178.045 321.871 177.543C321.626 177.037 321.504 176.449 321.504 175.778C321.504 175.108 321.626 174.517 321.871 174.006C322.118 173.491 322.462 173.091 322.902 172.804C323.345 172.514 323.862 172.369 324.453 172.369C324.794 172.369 325.131 172.426 325.463 172.54C325.795 172.653 326.098 172.838 326.371 173.094C326.643 173.347 326.861 173.682 327.023 174.099C327.185 174.517 327.266 175.031 327.266 175.642V176.068H322.22V175.199H326.243C326.243 174.83 326.169 174.5 326.021 174.21C325.876 173.92 325.669 173.692 325.399 173.524C325.132 173.357 324.817 173.273 324.453 173.273C324.053 173.273 323.706 173.372 323.413 173.571C323.124 173.767 322.901 174.023 322.744 174.338C322.588 174.653 322.51 174.991 322.51 175.352V175.932C322.51 176.426 322.595 176.845 322.766 177.189C322.939 177.53 323.179 177.79 323.486 177.969C323.793 178.145 324.149 178.233 324.555 178.233C324.82 178.233 325.058 178.196 325.271 178.122C325.487 178.045 325.673 177.932 325.83 177.781C325.986 177.628 326.107 177.437 326.192 177.21L327.163 177.483C327.061 177.812 326.889 178.102 326.648 178.352C326.406 178.599 326.108 178.793 325.753 178.932C325.398 179.068 324.999 179.136 324.555 179.136ZM329.37 172.455L330.938 175.131L332.506 172.455H333.665L331.551 175.727L333.665 179H332.506L330.938 176.46L329.37 179H328.211L330.29 175.727L328.211 172.455H329.37ZM337.947 172.455V173.307H334.555V172.455H337.947ZM335.543 170.886H336.549V177.125C336.549 177.409 336.59 177.622 336.673 177.764C336.758 177.903 336.866 177.997 336.996 178.045C337.13 178.091 337.271 178.114 337.418 178.114C337.529 178.114 337.62 178.108 337.691 178.097C337.762 178.082 337.819 178.071 337.862 178.062L338.066 178.966C337.998 178.991 337.903 179.017 337.781 179.043C337.658 179.071 337.504 179.085 337.316 179.085C337.032 179.085 336.754 179.024 336.481 178.902C336.211 178.78 335.987 178.594 335.808 178.344C335.631 178.094 335.543 177.778 335.543 177.398V170.886ZM345.681 172.455V173.307H342.289V172.455H345.681ZM343.278 170.886H344.283V177.125C344.283 177.409 344.325 177.622 344.407 177.764C344.492 177.903 344.6 177.997 344.731 178.045C344.864 178.091 345.005 178.114 345.153 178.114C345.263 178.114 345.354 178.108 345.425 178.097C345.496 178.082 345.553 178.071 345.596 178.062L345.8 178.966C345.732 178.991 345.637 179.017 345.515 179.043C345.393 179.071 345.238 179.085 345.05 179.085C344.766 179.085 344.488 179.024 344.215 178.902C343.945 178.78 343.721 178.594 343.542 178.344C343.366 178.094 343.278 177.778 343.278 177.398V170.886ZM349.783 179.136C349.192 179.136 348.673 178.996 348.227 178.714C347.784 178.433 347.438 178.04 347.188 177.534C346.94 177.028 346.817 176.437 346.817 175.761C346.817 175.08 346.94 174.484 347.188 173.976C347.438 173.467 347.784 173.072 348.227 172.791C348.673 172.51 349.192 172.369 349.783 172.369C350.374 172.369 350.891 172.51 351.334 172.791C351.78 173.072 352.126 173.467 352.374 173.976C352.624 174.484 352.749 175.08 352.749 175.761C352.749 176.437 352.624 177.028 352.374 177.534C352.126 178.04 351.78 178.433 351.334 178.714C350.891 178.996 350.374 179.136 349.783 179.136ZM349.783 178.233C350.232 178.233 350.601 178.118 350.891 177.888C351.18 177.658 351.395 177.355 351.534 176.98C351.673 176.605 351.743 176.199 351.743 175.761C351.743 175.324 351.673 174.916 351.534 174.538C351.395 174.161 351.18 173.855 350.891 173.622C350.601 173.389 350.232 173.273 349.783 173.273C349.334 173.273 348.964 173.389 348.675 173.622C348.385 173.855 348.17 174.161 348.031 174.538C347.892 174.916 347.822 175.324 347.822 175.761C347.822 176.199 347.892 176.605 348.031 176.98C348.17 177.355 348.385 177.658 348.675 177.888C348.964 178.118 349.334 178.233 349.783 178.233ZM358.664 175.062V179H357.659V170.273H358.664V173.477H358.75C358.903 173.139 359.133 172.871 359.44 172.672C359.75 172.47 360.162 172.369 360.676 172.369C361.122 172.369 361.512 172.459 361.848 172.638C362.183 172.814 362.443 173.085 362.627 173.452C362.815 173.815 362.909 174.278 362.909 174.841V179H361.903V174.909C361.903 174.389 361.768 173.987 361.498 173.703C361.231 173.416 360.86 173.273 360.386 173.273C360.056 173.273 359.761 173.342 359.5 173.482C359.241 173.621 359.037 173.824 358.886 174.091C358.738 174.358 358.664 174.682 358.664 175.062ZM367.493 179.136C366.862 179.136 366.318 178.997 365.861 178.719C365.406 178.438 365.055 178.045 364.808 177.543C364.564 177.037 364.442 176.449 364.442 175.778C364.442 175.108 364.564 174.517 364.808 174.006C365.055 173.491 365.399 173.091 365.839 172.804C366.283 172.514 366.8 172.369 367.391 172.369C367.732 172.369 368.068 172.426 368.401 172.54C368.733 172.653 369.036 172.838 369.308 173.094C369.581 173.347 369.798 173.682 369.96 174.099C370.122 174.517 370.203 175.031 370.203 175.642V176.068H365.158V175.199H369.18C369.18 174.83 369.107 174.5 368.959 174.21C368.814 173.92 368.607 173.692 368.337 173.524C368.07 173.357 367.754 173.273 367.391 173.273C366.99 173.273 366.643 173.372 366.351 173.571C366.061 173.767 365.838 174.023 365.682 174.338C365.526 174.653 365.447 174.991 365.447 175.352V175.932C365.447 176.426 365.533 176.845 365.703 177.189C365.876 177.53 366.116 177.79 366.423 177.969C366.73 178.145 367.087 178.233 367.493 178.233C367.757 178.233 367.996 178.196 368.209 178.122C368.425 178.045 368.611 177.932 368.767 177.781C368.923 177.628 369.044 177.437 369.129 177.21L370.101 177.483C369.999 177.812 369.827 178.102 369.585 178.352C369.344 178.599 369.045 178.793 368.69 178.932C368.335 179.068 367.936 179.136 367.493 179.136ZM372.739 170.273V179H371.733V170.273H372.739ZM374.581 181.455V172.455H375.552V173.494H375.672C375.745 173.381 375.848 173.236 375.978 173.06C376.112 172.881 376.302 172.722 376.549 172.582C376.799 172.44 377.137 172.369 377.564 172.369C378.115 172.369 378.6 172.507 379.021 172.783C379.441 173.058 379.77 173.449 380.005 173.955C380.241 174.46 380.359 175.057 380.359 175.744C380.359 176.438 380.241 177.038 380.005 177.547C379.77 178.053 379.443 178.445 379.025 178.723C378.608 178.999 378.126 179.136 377.581 179.136C377.16 179.136 376.824 179.067 376.571 178.928C376.318 178.786 376.123 178.625 375.987 178.446C375.85 178.264 375.745 178.114 375.672 177.994H375.586V181.455H374.581ZM375.569 175.727C375.569 176.222 375.642 176.658 375.787 177.036C375.931 177.411 376.143 177.705 376.422 177.918C376.7 178.128 377.041 178.233 377.444 178.233C377.865 178.233 378.216 178.122 378.497 177.901C378.781 177.676 378.994 177.375 379.136 176.997C379.281 176.616 379.353 176.193 379.353 175.727C379.353 175.267 379.282 174.852 379.14 174.483C379.001 174.111 378.789 173.817 378.505 173.601C378.224 173.382 377.87 173.273 377.444 173.273C377.035 173.273 376.691 173.376 376.413 173.584C376.135 173.788 375.924 174.075 375.782 174.445C375.64 174.811 375.569 175.239 375.569 175.727ZM389.393 176.324V172.455H390.399V179H389.393V177.892H389.325C389.172 178.224 388.933 178.507 388.609 178.74C388.285 178.97 387.876 179.085 387.382 179.085C386.973 179.085 386.609 178.996 386.291 178.817C385.973 178.635 385.723 178.362 385.541 177.999C385.359 177.632 385.268 177.17 385.268 176.614V172.455H386.274V176.545C386.274 177.023 386.407 177.403 386.674 177.688C386.944 177.972 387.288 178.114 387.706 178.114C387.956 178.114 388.21 178.05 388.468 177.922C388.73 177.794 388.949 177.598 389.125 177.334C389.304 177.07 389.393 176.733 389.393 176.324ZM396.877 173.92L395.974 174.176C395.917 174.026 395.833 173.879 395.722 173.737C395.614 173.592 395.467 173.473 395.279 173.379C395.092 173.286 394.852 173.239 394.559 173.239C394.158 173.239 393.825 173.331 393.558 173.516C393.293 173.697 393.161 173.929 393.161 174.21C393.161 174.46 393.252 174.658 393.434 174.803C393.616 174.947 393.9 175.068 394.286 175.165L395.258 175.403C395.843 175.545 396.279 175.763 396.566 176.055C396.853 176.345 396.996 176.719 396.996 177.176C396.996 177.551 396.888 177.886 396.673 178.182C396.46 178.477 396.161 178.71 395.778 178.881C395.394 179.051 394.948 179.136 394.44 179.136C393.772 179.136 393.219 178.991 392.782 178.702C392.344 178.412 392.067 177.989 391.951 177.432L392.906 177.193C392.996 177.545 393.168 177.81 393.421 177.986C393.677 178.162 394.011 178.25 394.423 178.25C394.891 178.25 395.263 178.151 395.539 177.952C395.817 177.75 395.957 177.509 395.957 177.227C395.957 177 395.877 176.81 395.718 176.656C395.559 176.5 395.315 176.384 394.985 176.307L393.894 176.051C393.295 175.909 392.854 175.689 392.573 175.391C392.295 175.089 392.156 174.713 392.156 174.261C392.156 173.892 392.259 173.565 392.467 173.281C392.677 172.997 392.962 172.774 393.323 172.612C393.687 172.45 394.099 172.369 394.559 172.369C395.207 172.369 395.715 172.511 396.085 172.795C396.457 173.08 396.721 173.455 396.877 173.92ZM401.255 179.136C400.624 179.136 400.08 178.997 399.623 178.719C399.168 178.438 398.817 178.045 398.57 177.543C398.326 177.037 398.203 176.449 398.203 175.778C398.203 175.108 398.326 174.517 398.57 174.006C398.817 173.491 399.161 173.091 399.601 172.804C400.044 172.514 400.561 172.369 401.152 172.369C401.493 172.369 401.83 172.426 402.162 172.54C402.495 172.653 402.797 172.838 403.07 173.094C403.343 173.347 403.56 173.682 403.722 174.099C403.884 174.517 403.965 175.031 403.965 175.642V176.068H398.919V175.199H402.942C402.942 174.83 402.868 174.5 402.721 174.21C402.576 173.92 402.368 173.692 402.098 173.524C401.831 173.357 401.516 173.273 401.152 173.273C400.752 173.273 400.405 173.372 400.113 173.571C399.823 173.767 399.6 174.023 399.444 174.338C399.287 174.653 399.209 174.991 399.209 175.352V175.932C399.209 176.426 399.294 176.845 399.465 177.189C399.638 177.53 399.878 177.79 400.185 177.969C400.492 178.145 400.848 178.233 401.255 178.233C401.519 178.233 401.757 178.196 401.971 178.122C402.186 178.045 402.373 177.932 402.529 177.781C402.685 177.628 402.806 177.437 402.891 177.21L403.863 177.483C403.76 177.812 403.588 178.102 403.347 178.352C403.105 178.599 402.807 178.793 402.452 178.932C402.097 179.068 401.698 179.136 401.255 179.136ZM405.495 179V172.455H406.466V173.443H406.534C406.654 173.119 406.87 172.857 407.182 172.655C407.495 172.453 407.847 172.352 408.239 172.352C408.313 172.352 408.405 172.354 408.516 172.357C408.627 172.359 408.711 172.364 408.767 172.369V173.392C408.733 173.384 408.655 173.371 408.533 173.354C408.414 173.334 408.287 173.324 408.154 173.324C407.836 173.324 407.551 173.391 407.301 173.524C407.054 173.655 406.858 173.837 406.713 174.07C406.571 174.3 406.5 174.562 406.5 174.858V179H405.495ZM409.942 179.068C409.732 179.068 409.552 178.993 409.401 178.842C409.251 178.692 409.175 178.511 409.175 178.301C409.175 178.091 409.251 177.911 409.401 177.76C409.552 177.609 409.732 177.534 409.942 177.534C410.153 177.534 410.333 177.609 410.484 177.76C410.634 177.911 410.71 178.091 410.71 178.301C410.71 178.44 410.674 178.568 410.603 178.685C410.535 178.801 410.442 178.895 410.326 178.966C410.212 179.034 410.085 179.068 409.942 179.068Z" fill="#959BA3"/>
</g>
<rect x="241.5" y="101.5" width="321" height="85" stroke="#0D69D4"/>
<g clip-path="url(#clip2_893_10522)">
<mask maskUnits="userSpaceOnUse" x="0" y="0" width="0" height="0" fill="black">
<rect fill="white" width="0" height="0"/>
</mask>
<path d="M194.707 46.2929C194.317 45.9024 193.683 45.9024 193.293 46.2929L186.929 52.6569C186.538 53.0474 186.538 53.6805 186.929 54.0711C187.319 54.4616 187.953 54.4616 188.343 54.0711L194 48.4142L199.657 54.0711C200.047 54.4616 200.681 54.4616 201.071 54.0711C201.462 53.6805 201.462 53.0474 201.071 52.6569L194.707 46.2929ZM193.293 77.7071C193.683 78.0976 194.317 78.0976 194.707 77.7071L201.071 71.3431C201.462 70.9526 201.462 70.3195 201.071 69.9289C200.681 69.5384 200.047 69.5384 199.657 69.9289L194 75.5858L188.343 69.9289C187.953 69.5384 187.319 69.5384 186.929 69.9289C186.538 70.3195 186.538 70.9526 186.929 71.3431L193.293 77.7071ZM193 47V77H195V47H193Z" fill="#6B6B6B" mask="url(#)"/>
</g>
<path fill-rule="evenodd" clip-rule="evenodd" d="M196.011 46H191.989H190.989H187H186L186 47V51.024V52.024V52.031L186 56.0186L186 57.0186L186 61.014L186 62.014H187H190.989H191.989H196.011H197.011H201H202V61.014V57.0186V56.0186V52.024V51.024V47V46H201H197.011H196.011ZM187 61.014H190.989V57.0186H187V61.014ZM187 56.0186H190.989V52.031H187V56.0186ZM201 57.0186V61.014H197.011V57.0186H201ZM201 52.024V56.0186H197.011V52.024H201ZM201 47V51.024H197.011V47H201ZM196.011 47H191.989V51.024H196.011V47ZM196.011 52.024H191.989V52.031V56.0186H196.011V52.024ZM196.011 57.0186H191.989V61.014H196.011V57.0186Z" fill="#6B6B6B"/>
<g clip-path="url(#clip3_893_10522)">
<g clip-path="url(#clip4_893_10522)">
<mask maskUnits="userSpaceOnUse" x="0" y="0" width="0" height="0" fill="black">
<rect fill="white" width="0" height="0"/>
</mask>
<path d="M195.28 92.2197C194.987 91.9268 194.513 91.9268 194.22 92.2197L189.447 96.9926C189.154 97.2855 189.154 97.7604 189.447 98.0533C189.74 98.3462 190.214 98.3462 190.507 98.0533L194.75 93.8107L198.993 98.0533C199.286 98.3462 199.76 98.3462 200.053 98.0533C200.346 97.7604 200.346 97.2855 200.053 96.9926L195.28 92.2197ZM194.22 143.28C194.513 143.573 194.987 143.573 195.28 143.28L200.053 138.507C200.346 138.214 200.346 137.74 200.053 137.447C199.76 137.154 199.286 137.154 198.993 137.447L194.75 141.689L190.507 137.447C190.214 137.154 189.74 137.154 189.447 137.447C189.154 137.74 189.154 138.214 189.447 138.507L194.22 143.28ZM194 92.75V142.75H195.5V92.75H194Z" fill="#0D69D4" mask="url(#)"/>
<mask maskUnits="userSpaceOnUse" x="0" y="0" width="0" height="0" fill="black">
<rect fill="white" width="0" height="0"/>
</mask>
<path d="M195.28 144.72C194.987 144.427 194.513 144.427 194.22 144.72L189.447 149.493C189.154 149.786 189.154 150.26 189.447 150.553C189.74 150.846 190.214 150.846 190.507 150.553L194.75 146.311L198.993 150.553C199.286 150.846 199.76 150.846 200.053 150.553C200.346 150.26 200.346 149.786 200.053 149.493L195.28 144.72ZM194.22 195.78C194.513 196.073 194.987 196.073 195.28 195.78L200.053 191.007C200.346 190.714 200.346 190.24 200.053 189.947C199.76 189.654 199.286 189.654 198.993 189.947L194.75 194.189L190.507 189.947C190.214 189.654 189.74 189.654 189.447 189.947C189.154 190.24 189.154 190.714 189.447 191.007L194.22 195.78ZM194 145.25V195.25H195.5V145.25H194Z" fill="#0D69D4" mask="url(#)"/>
</g>
</g>
<line x1="242.75" y1="53.75" x2="561.25" y2="53.75" stroke="#0D69D4" stroke-width="1.5" stroke-linecap="square"/>
<line x1="242.75" y1="48.75" x2="242.75" y2="59.25" stroke="#0D69D4" stroke-width="1.5" stroke-linecap="round"/>
<line x1="561.25" y1="59.25" x2="561.25" y2="48.75" stroke="#0D69D4" stroke-width="1.5" stroke-linecap="round"/>
<rect x="242" y="162" width="320" height="6" fill="#C54600" fill-opacity="0.3"/>
<line x1="226" y1="162.5" x2="562" y2="162.5" stroke="#C54600"/>
<line x1="226" y1="167.5" x2="562" y2="167.5" stroke="#C54600"/>
<path d="M218.057 169.119C217.608 169.116 217.175 169.041 216.757 168.893C216.342 168.746 215.97 168.506 215.641 168.173C215.311 167.841 215.05 167.401 214.857 166.852C214.666 166.304 214.571 165.631 214.571 164.832C214.574 164.099 214.658 163.445 214.822 162.868C214.99 162.288 215.229 161.797 215.538 161.393C215.851 160.99 216.224 160.683 216.659 160.473C217.094 160.26 217.581 160.153 218.121 160.153C218.703 160.153 219.217 160.267 219.663 160.494C220.109 160.719 220.467 161.024 220.737 161.411C221.01 161.797 221.175 162.23 221.232 162.71H219.412C219.341 162.406 219.192 162.168 218.964 161.994C218.737 161.821 218.456 161.734 218.121 161.734C217.553 161.734 217.121 161.982 216.825 162.476C216.533 162.97 216.384 163.642 216.378 164.491H216.438C216.568 164.233 216.744 164.013 216.966 163.831C217.19 163.646 217.445 163.506 217.729 163.409C218.016 163.31 218.318 163.26 218.636 163.26C219.153 163.26 219.614 163.382 220.017 163.626C220.42 163.868 220.739 164.2 220.972 164.624C221.205 165.047 221.321 165.531 221.321 166.077C221.321 166.668 221.183 167.193 220.908 167.653C220.635 168.114 220.253 168.474 219.761 168.736C219.273 168.994 218.705 169.122 218.057 169.119ZM218.048 167.67C218.332 167.67 218.587 167.602 218.811 167.466C219.036 167.33 219.212 167.145 219.339 166.912C219.467 166.679 219.531 166.418 219.531 166.128C219.531 165.838 219.467 165.578 219.339 165.348C219.214 165.118 219.041 164.935 218.82 164.798C218.598 164.662 218.345 164.594 218.061 164.594C217.848 164.594 217.651 164.634 217.469 164.713C217.29 164.793 217.132 164.903 216.996 165.045C216.862 165.187 216.757 165.352 216.68 165.54C216.604 165.724 216.565 165.922 216.565 166.132C216.565 166.413 216.629 166.67 216.757 166.903C216.888 167.136 217.064 167.322 217.286 167.462C217.51 167.601 217.764 167.67 218.048 167.67Z" fill="#C54600"/>
<g clip-path="url(#clip5_893_10522)">
<g clip-path="url(#clip6_893_10522)">
<mask maskUnits="userSpaceOnUse" x="0" y="0" width="0" height="0" fill="black">
<rect fill="white" width="0" height="0"/>
</mask>
<path d="M234.854 92.1464C234.658 91.9512 234.342 91.9512 234.146 92.1464L230.964 95.3284C230.769 95.5237 230.769 95.8403 230.964 96.0355C231.16 96.2308 231.476 96.2308 231.672 96.0355L234.5 93.2071L237.328 96.0355C237.524 96.2308 237.84 96.2308 238.036 96.0355C238.231 95.8403 238.231 95.5237 238.036 95.3284L234.854 92.1464ZM234.146 131.354C234.342 131.549 234.658 131.549 234.854 131.354L238.036 128.172C238.231 127.976 238.231 127.66 238.036 127.464C237.84 127.269 237.524 127.269 237.328 127.464L234.5 130.293L231.672 127.464C231.476 127.269 231.16 127.269 230.964 127.464C230.769 127.66 230.769 127.976 230.964 128.172L234.146 131.354ZM234 92.5V131H235V92.5H234Z" fill="#0D69D4" mask="url(#)"/>
<mask maskUnits="userSpaceOnUse" x="0" y="0" width="0" height="0" fill="black">
<rect fill="white" width="0" height="0"/>
</mask>
<path d="M234.854 132.646C234.658 132.451 234.342 132.451 234.146 132.646L230.964 135.828C230.769 136.024 230.769 136.34 230.964 136.536C231.16 136.731 231.476 136.731 231.672 136.536L234.5 133.707L237.328 136.536C237.524 136.731 237.84 136.731 238.036 136.536C238.231 136.34 238.231 136.024 238.036 135.828L234.854 132.646ZM234.146 171.854C234.342 172.049 234.658 172.049 234.854 171.854L238.036 168.672C238.231 168.476 238.231 168.16 238.036 167.964C237.84 167.769 237.524 167.769 237.328 167.964L234.5 170.793L231.672 167.964C231.476 167.769 231.16 167.769 230.964 167.964C230.769 168.16 230.769 168.476 230.964 168.672L234.146 171.854ZM234 133V171.5H235V133H234Z" fill="#0D69D4" mask="url(#)"/>
</g>
</g>
<rect x="242" y="102" width="320" height="60" fill="#0D69D4" fill-opacity="0.2"/>
<g clip-path="url(#clip7_893_10522)">
<g clip-path="url(#clip8_893_10522)">
<mask maskUnits="userSpaceOnUse" x="0" y="0" width="0" height="0" fill="black">
<rect fill="white" width="0" height="0"/>
</mask>
<path d="M234.854 158.146C234.658 157.951 234.342 157.951 234.146 158.146L230.964 161.328C230.769 161.524 230.769 161.84 230.964 162.036C231.16 162.231 231.476 162.231 231.672 162.036L234.5 159.207L237.328 162.036C237.524 162.231 237.84 162.231 238.036 162.036C238.231 161.84 238.231 161.524 238.036 161.328L234.854 158.146ZM234.146 176.354C234.342 176.549 234.658 176.549 234.854 176.354L238.036 173.172C238.231 172.976 238.231 172.66 238.036 172.464C237.84 172.269 237.524 172.269 237.328 172.464L234.5 175.293L231.672 172.464C231.476 172.269 231.16 172.269 230.964 172.464C230.769 172.66 230.769 172.976 230.964 173.172L234.146 176.354ZM234 158.5V176H235V158.5H234Z" fill="#0D69D4" mask="url(#)"/>
<mask maskUnits="userSpaceOnUse" x="0" y="0" width="0" height="0" fill="black">
<rect fill="white" width="0" height="0"/>
</mask>
<path d="M234.854 177.646C234.658 177.451 234.342 177.451 234.146 177.646L230.964 180.828C230.769 181.024 230.769 181.34 230.964 181.536C231.16 181.731 231.476 181.731 231.672 181.536L234.5 178.707L237.328 181.536C237.524 181.731 237.84 181.731 238.036 181.536C238.231 181.34 238.231 181.024 238.036 180.828L234.854 177.646ZM234.146 195.854C234.342 196.049 234.658 196.049 234.854 195.854L238.036 192.672C238.231 192.476 238.231 192.16 238.036 191.964C237.84 191.769 237.524 191.769 237.328 191.964L234.5 194.793L231.672 191.964C231.476 191.769 231.16 191.769 230.964 191.964C230.769 192.16 230.769 192.476 230.964 192.672L234.146 195.854ZM234 178V195.5H235V178H234Z" fill="#0D69D4" mask="url(#)"/>
</g>
</g>
<rect x="242" y="168" width="320" height="18" fill="#0D69D4" fill-opacity="0.2"/>
<defs>
<clipPath id="clip0_893_10522">
<rect width="16" height="16" fill="white" transform="translate(534 136)"/>
</clipPath>
<clipPath id="clip1_893_10522">
<rect width="16" height="16" fill="white" transform="translate(534 136)"/>
</clipPath>
<clipPath id="clip2_893_10522">
<rect width="16" height="16" fill="white" transform="matrix(0 1 -1 0 202 62)"/>
</clipPath>
<clipPath id="clip3_893_10522">
<rect width="84" height="16" fill="white" transform="matrix(0 1 -1 0 202 102)"/>
</clipPath>
<clipPath id="clip4_893_10522">
<rect width="104" height="16" fill="white" transform="matrix(0 1 -1 0 202 92)"/>
</clipPath>
<clipPath id="clip5_893_10522">
<rect width="60" height="16" fill="white" transform="matrix(0 1 -1 0 242 102)"/>
</clipPath>
<clipPath id="clip6_893_10522">
<rect width="80" height="16" fill="white" transform="matrix(0 1 -1 0 242 92)"/>
</clipPath>
<clipPath id="clip7_893_10522">
<rect width="18" height="16" fill="white" transform="matrix(0 1 -1 0 242 168)"/>
</clipPath>
<clipPath id="clip8_893_10522">
<rect width="38" height="16" fill="white" transform="matrix(0 1 -1 0 242 158)"/>
</clipPath>
</defs>
</svg>
