<svg width="804" height="232" viewBox="0 0 804 232" fill="none" xmlns="http://www.w3.org/2000/svg">
<rect width="804" height="232" fill="#F9FAFB"/>
<g opacity="0.2">
<path d="M242.959 118V109.273H248.43V110.406H244.276V113.065H248.145V114.195H244.276V116.866H248.482V118H242.959ZM250.087 118V111.455H251.31V112.52H251.391C251.527 112.159 251.75 111.878 252.06 111.676C252.37 111.472 252.74 111.369 253.172 111.369C253.61 111.369 253.976 111.472 254.272 111.676C254.57 111.881 254.79 112.162 254.932 112.52H255C255.157 112.17 255.405 111.892 255.746 111.685C256.087 111.474 256.493 111.369 256.965 111.369C257.559 111.369 258.043 111.555 258.418 111.928C258.796 112.3 258.985 112.861 258.985 113.611V118H257.711V113.73C257.711 113.287 257.59 112.966 257.348 112.767C257.107 112.568 256.819 112.469 256.483 112.469C256.069 112.469 255.746 112.597 255.516 112.852C255.286 113.105 255.171 113.43 255.171 113.828V118H253.901V113.649C253.901 113.294 253.79 113.009 253.569 112.793C253.347 112.577 253.059 112.469 252.703 112.469C252.462 112.469 252.239 112.533 252.034 112.661C251.833 112.786 251.669 112.96 251.544 113.185C251.422 113.409 251.361 113.669 251.361 113.964V118H250.087ZM262.597 118.145C262.183 118.145 261.808 118.068 261.472 117.915C261.137 117.759 260.871 117.533 260.675 117.237C260.482 116.942 260.386 116.58 260.386 116.151C260.386 115.781 260.457 115.477 260.599 115.239C260.741 115 260.933 114.811 261.174 114.672C261.415 114.533 261.685 114.428 261.984 114.357C262.282 114.286 262.586 114.232 262.896 114.195C263.288 114.149 263.606 114.112 263.85 114.084C264.094 114.053 264.272 114.003 264.383 113.935C264.494 113.866 264.549 113.756 264.549 113.602V113.572C264.549 113.2 264.444 112.912 264.234 112.707C264.026 112.503 263.717 112.401 263.305 112.401C262.876 112.401 262.538 112.496 262.29 112.686C262.046 112.874 261.877 113.082 261.783 113.312L260.586 113.04C260.728 112.642 260.935 112.321 261.208 112.077C261.484 111.83 261.8 111.651 262.158 111.54C262.516 111.426 262.893 111.369 263.288 111.369C263.549 111.369 263.826 111.401 264.119 111.463C264.414 111.523 264.69 111.634 264.945 111.795C265.204 111.957 265.415 112.189 265.58 112.49C265.745 112.788 265.827 113.176 265.827 113.653V118H264.583V117.105H264.532C264.45 117.27 264.326 117.432 264.161 117.591C263.996 117.75 263.785 117.882 263.526 117.987C263.268 118.092 262.958 118.145 262.597 118.145ZM262.874 117.122C263.227 117.122 263.528 117.053 263.778 116.913C264.031 116.774 264.222 116.592 264.353 116.368C264.487 116.141 264.553 115.898 264.553 115.639V114.795C264.508 114.841 264.42 114.884 264.289 114.923C264.161 114.96 264.015 114.993 263.85 115.021C263.685 115.047 263.525 115.071 263.369 115.094C263.212 115.114 263.082 115.131 262.977 115.145C262.729 115.176 262.504 115.229 262.299 115.303C262.097 115.376 261.935 115.483 261.813 115.622C261.694 115.759 261.634 115.94 261.634 116.168C261.634 116.483 261.751 116.722 261.984 116.884C262.217 117.043 262.513 117.122 262.874 117.122ZM267.525 118V111.455H268.799V118H267.525ZM268.168 110.445C267.946 110.445 267.756 110.371 267.597 110.223C267.441 110.072 267.363 109.893 267.363 109.686C267.363 109.476 267.441 109.297 267.597 109.149C267.756 108.999 267.946 108.923 268.168 108.923C268.39 108.923 268.578 108.999 268.735 109.149C268.894 109.297 268.973 109.476 268.973 109.686C268.973 109.893 268.894 110.072 268.735 110.223C268.578 110.371 268.39 110.445 268.168 110.445ZM271.787 109.273V118H270.513V109.273H271.787Z" fill="#344054"/>
<rect x="242.5" y="127.5" width="319" height="35" rx="2.5" fill="white"/>
<path d="M272.335 139.999C272.335 139.082 271.585 138.332 270.668 138.332H257.335C256.418 138.332 255.668 139.082 255.668 139.999M272.335 139.999V149.999C272.335 150.915 271.585 151.665 270.668 151.665H257.335C256.418 151.665 255.668 150.915 255.668 149.999V139.999M272.335 139.999L264.001 145.832L255.668 139.999" stroke="#959BA3" stroke-width="1.66667" stroke-linecap="round" stroke-linejoin="round"/>
<path d="M285.878 150.148C285.238 150.148 284.676 149.995 284.193 149.691C283.713 149.386 283.337 148.96 283.066 148.412C282.799 147.864 282.665 147.224 282.665 146.491C282.665 145.753 282.799 145.108 283.066 144.557C283.337 144.006 283.713 143.578 284.193 143.274C284.676 142.969 285.238 142.817 285.878 142.817C286.518 142.817 287.078 142.969 287.558 143.274C288.041 143.578 288.417 144.006 288.685 144.557C288.955 145.108 289.091 145.753 289.091 146.491C289.091 147.224 288.955 147.864 288.685 148.412C288.417 148.96 288.041 149.386 287.558 149.691C287.078 149.995 286.518 150.148 285.878 150.148ZM285.878 149.169C286.364 149.169 286.764 149.044 287.078 148.795C287.392 148.546 287.624 148.218 287.775 147.812C287.926 147.406 288.001 146.965 288.001 146.491C288.001 146.018 287.926 145.576 287.775 145.167C287.624 144.757 287.392 144.426 287.078 144.174C286.764 143.922 286.364 143.795 285.878 143.795C285.392 143.795 284.991 143.922 284.678 144.174C284.364 144.426 284.131 144.757 283.98 145.167C283.83 145.576 283.754 146.018 283.754 146.491C283.754 146.965 283.83 147.406 283.98 147.812C284.131 148.218 284.364 148.546 284.678 148.795C284.991 149.044 285.392 149.169 285.878 149.169ZM291.843 140.545V150H290.754V140.545H291.843ZM293.839 150V142.909H294.928V150H293.839ZM294.393 141.727C294.181 141.727 293.997 141.655 293.844 141.51C293.693 141.366 293.617 141.192 293.617 140.989C293.617 140.786 293.693 140.612 293.844 140.467C293.997 140.322 294.181 140.25 294.393 140.25C294.605 140.25 294.787 140.322 294.938 140.467C295.092 140.612 295.169 140.786 295.169 140.989C295.169 141.192 295.092 141.366 294.938 141.51C294.787 141.655 294.605 141.727 294.393 141.727ZM302.722 142.909L300.1 150H298.992L296.37 142.909H297.552L299.509 148.56H299.583L301.54 142.909H302.722ZM304.16 150V142.909H305.25V150H304.16ZM304.714 141.727C304.502 141.727 304.319 141.655 304.165 141.51C304.014 141.366 303.939 141.192 303.939 140.989C303.939 140.786 304.014 140.612 304.165 140.467C304.319 140.322 304.502 140.25 304.714 140.25C304.927 140.25 305.108 140.322 305.259 140.467C305.413 140.612 305.49 140.786 305.49 140.989C305.49 141.192 305.413 141.366 305.259 141.51C305.108 141.655 304.927 141.727 304.714 141.727ZM309.332 150.166C308.883 150.166 308.475 150.082 308.108 149.912C307.742 149.74 307.451 149.492 307.236 149.169C307.021 148.843 306.913 148.449 306.913 147.987C306.913 147.581 306.993 147.252 307.153 146.999C307.313 146.744 307.527 146.544 307.795 146.399C308.062 146.254 308.358 146.147 308.681 146.076C309.007 146.002 309.335 145.944 309.664 145.901C310.095 145.845 310.444 145.804 310.712 145.776C310.983 145.745 311.18 145.694 311.303 145.624C311.429 145.553 311.492 145.43 311.492 145.254V145.217C311.492 144.762 311.368 144.408 311.118 144.156C310.872 143.903 310.498 143.777 309.997 143.777C309.477 143.777 309.069 143.891 308.773 144.119C308.478 144.346 308.27 144.589 308.15 144.848L307.116 144.479C307.301 144.048 307.547 143.712 307.855 143.472C308.165 143.229 308.504 143.06 308.87 142.964C309.24 142.866 309.603 142.817 309.96 142.817C310.187 142.817 310.449 142.844 310.744 142.9C311.043 142.952 311.331 143.061 311.608 143.228C311.888 143.394 312.12 143.645 312.305 143.98C312.49 144.316 312.582 144.765 312.582 145.328V150H311.492V149.04H311.437C311.363 149.194 311.24 149.358 311.068 149.534C310.895 149.709 310.666 149.858 310.38 149.982C310.094 150.105 309.744 150.166 309.332 150.166ZM309.498 149.188C309.929 149.188 310.292 149.103 310.588 148.934C310.886 148.764 311.111 148.546 311.262 148.278C311.415 148.01 311.492 147.729 311.492 147.433V146.436C311.446 146.491 311.345 146.542 311.188 146.588C311.034 146.632 310.855 146.67 310.652 146.704C310.452 146.735 310.257 146.762 310.066 146.787C309.878 146.808 309.726 146.827 309.609 146.842C309.326 146.879 309.061 146.939 308.815 147.022C308.572 147.102 308.375 147.224 308.224 147.387C308.076 147.547 308.002 147.766 308.002 148.043C308.002 148.421 308.142 148.707 308.422 148.901C308.706 149.092 309.064 149.188 309.498 149.188ZM320.018 152.493C319.076 152.493 318.244 152.364 317.52 152.105C316.797 151.85 316.189 151.473 315.697 150.974C315.204 150.475 314.832 149.865 314.58 149.141C314.327 148.418 314.201 147.59 314.201 146.658C314.201 145.756 314.329 144.95 314.584 144.239C314.843 143.528 315.217 142.924 315.706 142.429C316.198 141.93 316.796 141.55 317.497 141.289C318.202 141.027 318.999 140.896 319.889 140.896C320.753 140.896 321.511 141.038 322.16 141.321C322.812 141.601 323.357 141.981 323.794 142.461C324.234 142.938 324.564 143.475 324.782 144.072C325.004 144.67 325.114 145.285 325.114 145.919C325.114 146.365 325.093 146.818 325.05 147.276C325.007 147.735 324.916 148.156 324.777 148.541C324.639 148.923 324.425 149.231 324.136 149.464C323.85 149.698 323.462 149.815 322.972 149.815C322.757 149.815 322.52 149.781 322.261 149.714C322.003 149.646 321.774 149.534 321.574 149.377C321.374 149.22 321.255 149.009 321.218 148.744H321.163C321.089 148.923 320.975 149.092 320.821 149.252C320.67 149.412 320.472 149.54 320.226 149.635C319.982 149.731 319.685 149.772 319.335 149.76C318.935 149.745 318.582 149.655 318.277 149.492C317.973 149.326 317.717 149.101 317.511 148.818C317.308 148.532 317.154 148.201 317.049 147.826C316.948 147.447 316.897 147.039 316.897 146.602C316.897 146.187 316.959 145.807 317.082 145.462C317.205 145.117 317.376 144.816 317.594 144.557C317.816 144.299 318.074 144.092 318.37 143.939C318.668 143.782 318.99 143.685 319.335 143.648C319.642 143.617 319.922 143.631 320.175 143.689C320.427 143.745 320.635 143.829 320.798 143.943C320.961 144.054 321.064 144.177 321.107 144.312H321.163V143.795H322.141V147.969C322.141 148.227 322.214 148.455 322.358 148.652C322.503 148.849 322.714 148.947 322.991 148.947C323.305 148.947 323.545 148.84 323.711 148.624C323.88 148.409 323.996 148.076 324.057 147.627C324.122 147.178 324.154 146.602 324.154 145.901C324.154 145.488 324.097 145.082 323.983 144.682C323.873 144.279 323.703 143.902 323.476 143.551C323.251 143.2 322.966 142.891 322.622 142.623C322.277 142.355 321.872 142.146 321.407 141.995C320.946 141.841 320.421 141.764 319.833 141.764C319.11 141.764 318.462 141.877 317.89 142.101C317.32 142.323 316.836 142.647 316.435 143.075C316.038 143.5 315.735 144.017 315.526 144.626C315.32 145.233 315.217 145.922 315.217 146.695C315.217 147.479 315.32 148.176 315.526 148.786C315.735 149.395 316.043 149.909 316.449 150.328C316.859 150.746 317.365 151.063 317.968 151.279C318.571 151.497 319.267 151.607 320.055 151.607C320.393 151.607 320.727 151.574 321.057 151.51C321.386 151.445 321.677 151.374 321.929 151.297C322.181 151.22 322.363 151.163 322.474 151.126L322.732 151.976C322.542 152.056 322.292 152.136 321.984 152.216C321.68 152.296 321.354 152.362 321.006 152.414C320.661 152.467 320.332 152.493 320.018 152.493ZM319.482 148.818C319.895 148.818 320.229 148.735 320.484 148.569C320.74 148.403 320.926 148.152 321.043 147.816C321.16 147.481 321.218 147.058 321.218 146.547C321.218 146.03 321.153 145.627 321.024 145.337C320.895 145.048 320.704 144.845 320.452 144.728C320.199 144.611 319.889 144.553 319.519 144.553C319.168 144.553 318.868 144.645 318.619 144.83C318.373 145.011 318.184 145.254 318.051 145.559C317.922 145.861 317.857 146.19 317.857 146.547C317.857 146.941 317.91 147.312 318.014 147.659C318.119 148.004 318.29 148.284 318.527 148.5C318.764 148.712 319.082 148.818 319.482 148.818ZM331.214 147.101V142.909H332.303V150H331.214V148.8H331.14C330.974 149.16 330.715 149.466 330.365 149.718C330.014 149.968 329.57 150.092 329.035 150.092C328.592 150.092 328.198 149.995 327.853 149.801C327.508 149.605 327.238 149.309 327.041 148.915C326.844 148.518 326.745 148.018 326.745 147.415V142.909H327.835V147.341C327.835 147.858 327.979 148.27 328.269 148.578C328.561 148.886 328.933 149.04 329.386 149.04C329.657 149.04 329.932 148.971 330.212 148.832C330.495 148.694 330.732 148.481 330.923 148.195C331.117 147.909 331.214 147.544 331.214 147.101ZM335.388 145.734V150H334.299V142.909H335.351V144.017H335.444C335.61 143.657 335.862 143.368 336.201 143.149C336.539 142.928 336.976 142.817 337.512 142.817C337.992 142.817 338.412 142.915 338.772 143.112C339.132 143.306 339.412 143.602 339.612 143.999C339.813 144.393 339.913 144.891 339.913 145.494V150H338.823V145.568C338.823 145.011 338.678 144.577 338.389 144.266C338.1 143.952 337.703 143.795 337.198 143.795C336.85 143.795 336.539 143.871 336.266 144.022C335.995 144.172 335.781 144.393 335.624 144.682C335.467 144.971 335.388 145.322 335.388 145.734ZM344.987 142.909V143.832H341.312V142.909H344.987ZM342.384 141.21H343.473V147.969C343.473 148.277 343.518 148.507 343.607 148.661C343.699 148.812 343.816 148.914 343.958 148.966C344.102 149.015 344.255 149.04 344.415 149.04C344.535 149.04 344.633 149.034 344.71 149.021C344.787 149.006 344.849 148.994 344.895 148.984L345.116 149.963C345.043 149.991 344.94 150.018 344.807 150.046C344.675 150.077 344.507 150.092 344.304 150.092C343.996 150.092 343.695 150.026 343.399 149.894C343.107 149.761 342.864 149.56 342.67 149.289C342.479 149.018 342.384 148.677 342.384 148.264V141.21ZM346.626 150V142.909H347.716V150H346.626ZM347.18 141.727C346.968 141.727 346.785 141.655 346.631 141.51C346.48 141.366 346.404 141.192 346.404 140.989C346.404 140.786 346.48 140.612 346.631 140.467C346.785 140.322 346.968 140.25 347.18 140.25C347.392 140.25 347.574 140.322 347.725 140.467C347.879 140.612 347.956 140.786 347.956 140.989C347.956 141.192 347.879 141.366 347.725 141.51C347.574 141.655 347.392 141.727 347.18 141.727ZM352.795 142.909V143.832H349.12V142.909H352.795ZM350.191 141.21H351.281V147.969C351.281 148.277 351.325 148.507 351.415 148.661C351.507 148.812 351.624 148.914 351.765 148.966C351.91 149.015 352.062 149.04 352.222 149.04C352.342 149.04 352.441 149.034 352.518 149.021C352.595 149.006 352.656 148.994 352.703 148.984L352.924 149.963C352.85 149.991 352.747 150.018 352.615 150.046C352.482 150.077 352.315 150.092 352.112 150.092C351.804 150.092 351.502 150.026 351.207 149.894C350.914 149.761 350.671 149.56 350.477 149.289C350.287 149.018 350.191 148.677 350.191 148.264V141.21ZM355.676 140.545V150H354.586V140.545H355.676ZM360.644 150.148C359.961 150.148 359.371 149.997 358.876 149.695C358.383 149.391 358.003 148.966 357.736 148.421C357.471 147.873 357.339 147.236 357.339 146.51C357.339 145.784 357.471 145.143 357.736 144.589C358.003 144.032 358.376 143.598 358.853 143.288C359.333 142.974 359.893 142.817 360.533 142.817C360.903 142.817 361.267 142.878 361.627 143.001C361.987 143.125 362.315 143.325 362.611 143.602C362.906 143.875 363.142 144.239 363.317 144.691C363.492 145.143 363.58 145.701 363.58 146.362V146.824H358.114V145.882H362.472C362.472 145.482 362.392 145.125 362.232 144.811C362.075 144.497 361.85 144.249 361.558 144.068C361.269 143.886 360.927 143.795 360.533 143.795C360.099 143.795 359.724 143.903 359.407 144.119C359.093 144.331 358.851 144.608 358.682 144.95C358.513 145.291 358.428 145.657 358.428 146.048V146.676C358.428 147.212 358.52 147.666 358.705 148.038C358.893 148.407 359.153 148.689 359.485 148.883C359.818 149.074 360.204 149.169 360.644 149.169C360.93 149.169 361.189 149.129 361.42 149.049C361.653 148.966 361.855 148.843 362.024 148.68C362.194 148.513 362.324 148.307 362.417 148.061L363.469 148.357C363.358 148.714 363.172 149.027 362.911 149.298C362.649 149.566 362.326 149.775 361.941 149.926C361.557 150.074 361.124 150.148 360.644 150.148ZM367.915 150.148C367.324 150.148 366.802 149.998 366.35 149.7C365.898 149.398 365.544 148.974 365.288 148.426C365.033 147.875 364.905 147.224 364.905 146.473C364.905 145.728 365.033 145.082 365.288 144.534C365.544 143.986 365.899 143.563 366.355 143.265C366.81 142.966 367.336 142.817 367.933 142.817C368.395 142.817 368.76 142.894 369.028 143.048C369.298 143.198 369.505 143.371 369.646 143.565C369.791 143.755 369.903 143.912 369.983 144.036H370.075V140.545H371.165V150H370.112V148.911H369.983C369.903 149.04 369.789 149.203 369.642 149.4C369.494 149.594 369.283 149.768 369.009 149.922C368.735 150.072 368.37 150.148 367.915 150.148ZM368.063 149.169C368.5 149.169 368.869 149.055 369.171 148.827C369.472 148.597 369.702 148.278 369.858 147.872C370.015 147.462 370.094 146.99 370.094 146.455C370.094 145.925 370.017 145.462 369.863 145.065C369.709 144.665 369.481 144.354 369.18 144.132C368.878 143.908 368.506 143.795 368.063 143.795C367.601 143.795 367.216 143.914 366.909 144.151C366.604 144.385 366.375 144.703 366.221 145.107C366.07 145.507 365.994 145.956 365.994 146.455C365.994 146.959 366.071 147.418 366.225 147.83C366.382 148.24 366.613 148.566 366.918 148.809C367.226 149.049 367.607 149.169 368.063 149.169ZM377.78 147.101V142.909H378.87V150H377.78V148.8H377.706C377.54 149.16 377.282 149.466 376.931 149.718C376.58 149.968 376.137 150.092 375.601 150.092C375.158 150.092 374.764 149.995 374.42 149.801C374.075 149.605 373.804 149.309 373.607 148.915C373.41 148.518 373.312 148.018 373.312 147.415V142.909H374.401V147.341C374.401 147.858 374.546 148.27 374.835 148.578C375.127 148.886 375.5 149.04 375.952 149.04C376.223 149.04 376.499 148.971 376.779 148.832C377.062 148.694 377.299 148.481 377.49 148.195C377.683 147.909 377.78 147.544 377.78 147.101ZM380.865 150V142.909H381.955V150H380.865ZM381.419 141.727C381.207 141.727 381.024 141.655 380.87 141.51C380.719 141.366 380.644 141.192 380.644 140.989C380.644 140.786 380.719 140.612 380.87 140.467C381.024 140.322 381.207 140.25 381.419 140.25C381.632 140.25 381.813 140.322 381.964 140.467C382.118 140.612 382.195 140.786 382.195 140.989C382.195 141.192 382.118 141.366 381.964 141.51C381.813 141.655 381.632 141.727 381.419 141.727ZM384.744 150.074C384.517 150.074 384.321 149.992 384.158 149.829C383.995 149.666 383.913 149.471 383.913 149.243C383.913 149.015 383.995 148.82 384.158 148.657C384.321 148.493 384.517 148.412 384.744 148.412C384.972 148.412 385.167 148.493 385.331 148.657C385.494 148.82 385.575 149.015 385.575 149.243C385.575 149.394 385.537 149.532 385.46 149.658C385.386 149.785 385.286 149.886 385.16 149.963C385.037 150.037 384.898 150.074 384.744 150.074ZM390.411 150.148C389.746 150.148 389.174 149.991 388.694 149.677C388.214 149.363 387.844 148.931 387.586 148.38C387.327 147.829 387.198 147.199 387.198 146.491C387.198 145.771 387.33 145.136 387.595 144.585C387.863 144.031 388.235 143.598 388.712 143.288C389.192 142.974 389.752 142.817 390.393 142.817C390.891 142.817 391.34 142.909 391.741 143.094C392.141 143.278 392.468 143.537 392.724 143.869C392.979 144.202 393.138 144.589 393.199 145.033H392.11C392.027 144.71 391.842 144.423 391.556 144.174C391.273 143.922 390.891 143.795 390.411 143.795C389.986 143.795 389.614 143.906 389.294 144.128C388.977 144.346 388.729 144.656 388.551 145.056C388.375 145.453 388.287 145.919 388.287 146.455C388.287 147.002 388.374 147.479 388.546 147.886C388.721 148.292 388.968 148.607 389.285 148.832C389.605 149.057 389.98 149.169 390.411 149.169C390.694 149.169 390.951 149.12 391.182 149.021C391.413 148.923 391.608 148.781 391.768 148.597C391.928 148.412 392.042 148.19 392.11 147.932H393.199C393.138 148.35 392.985 148.727 392.742 149.063C392.502 149.395 392.184 149.66 391.787 149.857C391.393 150.051 390.934 150.148 390.411 150.148ZM397.673 150.148C397.033 150.148 396.471 149.995 395.988 149.691C395.508 149.386 395.132 148.96 394.861 148.412C394.594 147.864 394.46 147.224 394.46 146.491C394.46 145.753 394.594 145.108 394.861 144.557C395.132 144.006 395.508 143.578 395.988 143.274C396.471 142.969 397.033 142.817 397.673 142.817C398.313 142.817 398.873 142.969 399.353 143.274C399.836 143.578 400.212 144.006 400.48 144.557C400.75 145.108 400.886 145.753 400.886 146.491C400.886 147.224 400.75 147.864 400.48 148.412C400.212 148.96 399.836 149.386 399.353 149.691C398.873 149.995 398.313 150.148 397.673 150.148ZM397.673 149.169C398.159 149.169 398.559 149.044 398.873 148.795C399.187 148.546 399.419 148.218 399.57 147.812C399.721 147.406 399.796 146.965 399.796 146.491C399.796 146.018 399.721 145.576 399.57 145.167C399.419 144.757 399.187 144.426 398.873 144.174C398.559 143.922 398.159 143.795 397.673 143.795C397.186 143.795 396.786 143.922 396.472 144.174C396.159 144.426 395.926 144.757 395.775 145.167C395.625 145.576 395.549 146.018 395.549 146.491C395.549 146.965 395.625 147.406 395.775 147.812C395.926 148.218 396.159 148.546 396.472 148.795C396.786 149.044 397.186 149.169 397.673 149.169ZM402.549 150V142.909H403.601V144.017H403.694C403.842 143.638 404.08 143.345 404.409 143.135C404.739 142.923 405.134 142.817 405.596 142.817C406.064 142.817 406.453 142.923 406.764 143.135C407.078 143.345 407.322 143.638 407.498 144.017H407.572C407.753 143.651 408.026 143.36 408.389 143.145C408.752 142.926 409.187 142.817 409.695 142.817C410.329 142.817 410.848 143.015 411.251 143.412C411.654 143.806 411.856 144.42 411.856 145.254V150H410.766V145.254C410.766 144.731 410.623 144.357 410.337 144.132C410.051 143.908 409.714 143.795 409.326 143.795C408.827 143.795 408.441 143.946 408.167 144.248C407.893 144.546 407.756 144.925 407.756 145.384V150H406.648V145.143C406.648 144.74 406.518 144.416 406.256 144.169C405.994 143.92 405.657 143.795 405.245 143.795C404.962 143.795 404.697 143.871 404.451 144.022C404.208 144.172 404.011 144.382 403.86 144.65C403.712 144.914 403.638 145.22 403.638 145.568V150H402.549Z" fill="#959BA3"/>
<g clip-path="url(#clip0_893_10552)">
<path d="M540.059 142.999C540.215 142.553 540.525 142.177 540.932 141.938C541.339 141.699 541.818 141.611 542.283 141.691C542.749 141.771 543.171 142.013 543.475 142.374C543.78 142.736 543.946 143.193 543.945 143.665C543.945 144.999 541.945 145.665 541.945 145.665M541.999 148.332H542.005M548.665 144.999C548.665 148.681 545.681 151.665 541.999 151.665C538.317 151.665 535.332 148.681 535.332 144.999C535.332 141.317 538.317 138.332 541.999 138.332C545.681 138.332 548.665 141.317 548.665 144.999Z" stroke="#B8BFC7" stroke-width="1.33333" stroke-linecap="round" stroke-linejoin="round"/>
</g>
<rect x="242.5" y="127.5" width="319" height="35" rx="2.5" stroke="#D8DEE9"/>
<path d="M242.58 172.21V171.273H249.125V172.21H246.381V180H245.324V172.21H242.58ZM251.625 176.062V180H250.62V171.273H251.625V174.477H251.711C251.864 174.139 252.094 173.871 252.401 173.672C252.711 173.47 253.123 173.369 253.637 173.369C254.083 173.369 254.473 173.459 254.809 173.638C255.144 173.814 255.404 174.085 255.588 174.452C255.776 174.815 255.87 175.278 255.87 175.841V180H254.864V175.909C254.864 175.389 254.729 174.987 254.459 174.703C254.192 174.416 253.821 174.273 253.347 174.273C253.017 174.273 252.722 174.342 252.461 174.482C252.202 174.621 251.998 174.824 251.847 175.091C251.699 175.358 251.625 175.682 251.625 176.062ZM257.71 180V173.455H258.715V180H257.71ZM258.221 172.364C258.025 172.364 257.856 172.297 257.714 172.163C257.575 172.03 257.505 171.869 257.505 171.682C257.505 171.494 257.575 171.334 257.714 171.2C257.856 171.067 258.025 171 258.221 171C258.417 171 258.585 171.067 258.724 171.2C258.866 171.334 258.937 171.494 258.937 171.682C258.937 171.869 258.866 172.03 258.724 172.163C258.585 172.297 258.417 172.364 258.221 172.364ZM265.194 174.92L264.29 175.176C264.233 175.026 264.15 174.879 264.039 174.737C263.931 174.592 263.783 174.473 263.596 174.379C263.408 174.286 263.168 174.239 262.875 174.239C262.475 174.239 262.141 174.331 261.874 174.516C261.61 174.697 261.478 174.929 261.478 175.21C261.478 175.46 261.569 175.658 261.75 175.803C261.932 175.947 262.216 176.068 262.603 176.165L263.574 176.403C264.159 176.545 264.596 176.763 264.882 177.055C265.169 177.345 265.313 177.719 265.313 178.176C265.313 178.551 265.205 178.886 264.989 179.182C264.776 179.477 264.478 179.71 264.094 179.881C263.711 180.051 263.265 180.136 262.756 180.136C262.088 180.136 261.536 179.991 261.098 179.702C260.661 179.412 260.384 178.989 260.267 178.432L261.222 178.193C261.313 178.545 261.485 178.81 261.738 178.986C261.993 179.162 262.327 179.25 262.739 179.25C263.208 179.25 263.58 179.151 263.855 178.952C264.134 178.75 264.273 178.509 264.273 178.227C264.273 178 264.194 177.81 264.034 177.656C263.875 177.5 263.631 177.384 263.301 177.307L262.211 177.051C261.611 176.909 261.171 176.689 260.89 176.391C260.611 176.089 260.472 175.713 260.472 175.261C260.472 174.892 260.576 174.565 260.783 174.281C260.993 173.997 261.279 173.774 261.64 173.612C262.003 173.45 262.415 173.369 262.875 173.369C263.523 173.369 264.032 173.511 264.401 173.795C264.773 174.08 265.037 174.455 265.194 174.92ZM270.202 180V173.455H271.207V180H270.202ZM270.713 172.364C270.517 172.364 270.348 172.297 270.206 172.163C270.067 172.03 269.997 171.869 269.997 171.682C269.997 171.494 270.067 171.334 270.206 171.2C270.348 171.067 270.517 171 270.713 171C270.909 171 271.077 171.067 271.216 171.2C271.358 171.334 271.429 171.494 271.429 171.682C271.429 171.869 271.358 172.03 271.216 172.163C271.077 172.297 270.909 172.364 270.713 172.364ZM277.686 174.92L276.782 175.176C276.725 175.026 276.642 174.879 276.531 174.737C276.423 174.592 276.275 174.473 276.088 174.379C275.9 174.286 275.66 174.239 275.368 174.239C274.967 174.239 274.633 174.331 274.366 174.516C274.102 174.697 273.97 174.929 273.97 175.21C273.97 175.46 274.061 175.658 274.243 175.803C274.424 175.947 274.708 176.068 275.095 176.165L276.066 176.403C276.652 176.545 277.088 176.763 277.375 177.055C277.662 177.345 277.805 177.719 277.805 178.176C277.805 178.551 277.697 178.886 277.481 179.182C277.268 179.477 276.97 179.71 276.586 179.881C276.203 180.051 275.757 180.136 275.248 180.136C274.581 180.136 274.028 179.991 273.591 179.702C273.153 179.412 272.876 178.989 272.76 178.432L273.714 178.193C273.805 178.545 273.977 178.81 274.23 178.986C274.485 179.162 274.819 179.25 275.231 179.25C275.7 179.25 276.072 179.151 276.348 178.952C276.626 178.75 276.765 178.509 276.765 178.227C276.765 178 276.686 177.81 276.527 177.656C276.368 177.5 276.123 177.384 275.794 177.307L274.703 177.051C274.103 176.909 273.663 176.689 273.382 176.391C273.103 176.089 272.964 175.713 272.964 175.261C272.964 174.892 273.068 174.565 273.275 174.281C273.485 173.997 273.771 173.774 274.132 173.612C274.495 173.45 274.907 173.369 275.368 173.369C276.015 173.369 276.524 173.511 276.893 173.795C277.265 174.08 277.529 174.455 277.686 174.92ZM284.62 180.153C284.205 180.153 283.829 180.075 283.491 179.919C283.153 179.76 282.884 179.531 282.685 179.233C282.487 178.932 282.387 178.568 282.387 178.142C282.387 177.767 282.461 177.463 282.609 177.23C282.756 176.994 282.954 176.81 283.201 176.676C283.448 176.543 283.721 176.443 284.019 176.378C284.32 176.31 284.623 176.256 284.927 176.216C285.325 176.165 285.647 176.126 285.894 176.101C286.144 176.072 286.326 176.026 286.44 175.96C286.556 175.895 286.614 175.781 286.614 175.619V175.585C286.614 175.165 286.499 174.838 286.269 174.605C286.042 174.372 285.697 174.256 285.234 174.256C284.754 174.256 284.377 174.361 284.104 174.571C283.832 174.781 283.64 175.006 283.529 175.244L282.575 174.903C282.745 174.506 282.972 174.196 283.256 173.974C283.543 173.75 283.856 173.594 284.194 173.506C284.535 173.415 284.87 173.369 285.2 173.369C285.41 173.369 285.651 173.395 285.924 173.446C286.2 173.494 286.465 173.595 286.721 173.749C286.979 173.902 287.194 174.134 287.364 174.443C287.535 174.753 287.62 175.168 287.62 175.688V180H286.614V179.114H286.563C286.495 179.256 286.381 179.408 286.222 179.57C286.063 179.732 285.852 179.869 285.587 179.983C285.323 180.097 285.001 180.153 284.62 180.153ZM284.773 179.25C285.171 179.25 285.506 179.172 285.779 179.016C286.055 178.859 286.262 178.658 286.401 178.411C286.543 178.163 286.614 177.903 286.614 177.631V176.71C286.572 176.761 286.478 176.808 286.333 176.851C286.191 176.891 286.026 176.926 285.839 176.957C285.654 176.986 285.474 177.011 285.298 177.034C285.124 177.054 284.984 177.071 284.876 177.085C284.614 177.119 284.37 177.175 284.143 177.251C283.918 177.325 283.737 177.437 283.597 177.588C283.461 177.736 283.393 177.937 283.393 178.193C283.393 178.543 283.522 178.807 283.781 178.986C284.042 179.162 284.373 179.25 284.773 179.25ZM293.836 176.062V180H292.831V171.273H293.836V174.477H293.922C294.075 174.139 294.305 173.871 294.612 173.672C294.922 173.47 295.333 173.369 295.848 173.369C296.294 173.369 296.684 173.459 297.02 173.638C297.355 173.814 297.615 174.085 297.799 174.452C297.987 174.815 298.081 175.278 298.081 175.841V180H297.075V175.909C297.075 175.389 296.94 174.987 296.67 174.703C296.403 174.416 296.032 174.273 295.558 174.273C295.228 174.273 294.933 174.342 294.672 174.482C294.413 174.621 294.208 174.824 294.058 175.091C293.91 175.358 293.836 175.682 293.836 176.062ZM299.92 180V173.455H300.926V180H299.92ZM300.432 172.364C300.236 172.364 300.067 172.297 299.925 172.163C299.786 172.03 299.716 171.869 299.716 171.682C299.716 171.494 299.786 171.334 299.925 171.2C300.067 171.067 300.236 171 300.432 171C300.628 171 300.795 171.067 300.935 171.2C301.077 171.334 301.148 171.494 301.148 171.682C301.148 171.869 301.077 172.03 300.935 172.163C300.795 172.297 300.628 172.364 300.432 172.364ZM303.774 176.062V180H302.768V173.455H303.74V174.477H303.825C303.978 174.145 304.211 173.878 304.524 173.676C304.836 173.472 305.24 173.369 305.734 173.369C306.177 173.369 306.565 173.46 306.897 173.642C307.23 173.821 307.488 174.094 307.673 174.46C307.858 174.824 307.95 175.284 307.95 175.841V180H306.944V175.909C306.944 175.395 306.811 174.994 306.544 174.707C306.277 174.418 305.91 174.273 305.444 174.273C305.123 174.273 304.836 174.342 304.583 174.482C304.333 174.621 304.136 174.824 303.991 175.091C303.846 175.358 303.774 175.682 303.774 176.062ZM312.634 173.455V174.307H309.242V173.455H312.634ZM310.231 171.886H311.237V178.125C311.237 178.409 311.278 178.622 311.36 178.764C311.445 178.903 311.553 178.997 311.684 179.045C311.817 179.091 311.958 179.114 312.106 179.114C312.217 179.114 312.308 179.108 312.379 179.097C312.45 179.082 312.506 179.071 312.549 179.062L312.754 179.966C312.685 179.991 312.59 180.017 312.468 180.043C312.346 180.071 312.191 180.085 312.004 180.085C311.719 180.085 311.441 180.024 311.168 179.902C310.898 179.78 310.674 179.594 310.495 179.344C310.319 179.094 310.231 178.778 310.231 178.398V171.886ZM320.369 173.455V174.307H316.977V173.455H320.369ZM317.965 171.886H318.971V178.125C318.971 178.409 319.012 178.622 319.094 178.764C319.18 178.903 319.288 178.997 319.418 179.045C319.552 179.091 319.692 179.114 319.84 179.114C319.951 179.114 320.042 179.108 320.113 179.097C320.184 179.082 320.241 179.071 320.283 179.062L320.488 179.966C320.42 179.991 320.325 180.017 320.202 180.043C320.08 180.071 319.925 180.085 319.738 180.085C319.454 180.085 319.175 180.024 318.903 179.902C318.633 179.78 318.408 179.594 318.229 179.344C318.053 179.094 317.965 178.778 317.965 178.398V171.886ZM324.555 180.136C323.925 180.136 323.381 179.997 322.923 179.719C322.469 179.438 322.118 179.045 321.871 178.543C321.626 178.037 321.504 177.449 321.504 176.778C321.504 176.108 321.626 175.517 321.871 175.006C322.118 174.491 322.462 174.091 322.902 173.804C323.345 173.514 323.862 173.369 324.453 173.369C324.794 173.369 325.131 173.426 325.463 173.54C325.795 173.653 326.098 173.838 326.371 174.094C326.643 174.347 326.861 174.682 327.023 175.099C327.185 175.517 327.266 176.031 327.266 176.642V177.068H322.22V176.199H326.243C326.243 175.83 326.169 175.5 326.021 175.21C325.876 174.92 325.669 174.692 325.399 174.524C325.132 174.357 324.817 174.273 324.453 174.273C324.053 174.273 323.706 174.372 323.413 174.571C323.124 174.767 322.901 175.023 322.744 175.338C322.588 175.653 322.51 175.991 322.51 176.352V176.932C322.51 177.426 322.595 177.845 322.766 178.189C322.939 178.53 323.179 178.79 323.486 178.969C323.793 179.145 324.149 179.233 324.555 179.233C324.82 179.233 325.058 179.196 325.271 179.122C325.487 179.045 325.673 178.932 325.83 178.781C325.986 178.628 326.107 178.437 326.192 178.21L327.163 178.483C327.061 178.812 326.889 179.102 326.648 179.352C326.406 179.599 326.108 179.793 325.753 179.932C325.398 180.068 324.999 180.136 324.555 180.136ZM329.37 173.455L330.938 176.131L332.506 173.455H333.665L331.551 176.727L333.665 180H332.506L330.938 177.46L329.37 180H328.211L330.29 176.727L328.211 173.455H329.37ZM337.947 173.455V174.307H334.555V173.455H337.947ZM335.543 171.886H336.549V178.125C336.549 178.409 336.59 178.622 336.673 178.764C336.758 178.903 336.866 178.997 336.996 179.045C337.13 179.091 337.271 179.114 337.418 179.114C337.529 179.114 337.62 179.108 337.691 179.097C337.762 179.082 337.819 179.071 337.862 179.062L338.066 179.966C337.998 179.991 337.903 180.017 337.781 180.043C337.658 180.071 337.504 180.085 337.316 180.085C337.032 180.085 336.754 180.024 336.481 179.902C336.211 179.78 335.987 179.594 335.808 179.344C335.631 179.094 335.543 178.778 335.543 178.398V171.886ZM345.681 173.455V174.307H342.289V173.455H345.681ZM343.278 171.886H344.283V178.125C344.283 178.409 344.325 178.622 344.407 178.764C344.492 178.903 344.6 178.997 344.731 179.045C344.864 179.091 345.005 179.114 345.153 179.114C345.263 179.114 345.354 179.108 345.425 179.097C345.496 179.082 345.553 179.071 345.596 179.062L345.8 179.966C345.732 179.991 345.637 180.017 345.515 180.043C345.393 180.071 345.238 180.085 345.05 180.085C344.766 180.085 344.488 180.024 344.215 179.902C343.945 179.78 343.721 179.594 343.542 179.344C343.366 179.094 343.278 178.778 343.278 178.398V171.886ZM349.783 180.136C349.192 180.136 348.673 179.996 348.227 179.714C347.784 179.433 347.438 179.04 347.188 178.534C346.94 178.028 346.817 177.437 346.817 176.761C346.817 176.08 346.94 175.484 347.188 174.976C347.438 174.467 347.784 174.072 348.227 173.791C348.673 173.51 349.192 173.369 349.783 173.369C350.374 173.369 350.891 173.51 351.334 173.791C351.78 174.072 352.126 174.467 352.374 174.976C352.624 175.484 352.749 176.08 352.749 176.761C352.749 177.437 352.624 178.028 352.374 178.534C352.126 179.04 351.78 179.433 351.334 179.714C350.891 179.996 350.374 180.136 349.783 180.136ZM349.783 179.233C350.232 179.233 350.601 179.118 350.891 178.888C351.18 178.658 351.395 178.355 351.534 177.98C351.673 177.605 351.743 177.199 351.743 176.761C351.743 176.324 351.673 175.916 351.534 175.538C351.395 175.161 351.18 174.855 350.891 174.622C350.601 174.389 350.232 174.273 349.783 174.273C349.334 174.273 348.964 174.389 348.675 174.622C348.385 174.855 348.17 175.161 348.031 175.538C347.892 175.916 347.822 176.324 347.822 176.761C347.822 177.199 347.892 177.605 348.031 177.98C348.17 178.355 348.385 178.658 348.675 178.888C348.964 179.118 349.334 179.233 349.783 179.233ZM358.664 176.062V180H357.659V171.273H358.664V174.477H358.75C358.903 174.139 359.133 173.871 359.44 173.672C359.75 173.47 360.162 173.369 360.676 173.369C361.122 173.369 361.512 173.459 361.848 173.638C362.183 173.814 362.443 174.085 362.627 174.452C362.815 174.815 362.909 175.278 362.909 175.841V180H361.903V175.909C361.903 175.389 361.768 174.987 361.498 174.703C361.231 174.416 360.86 174.273 360.386 174.273C360.056 174.273 359.761 174.342 359.5 174.482C359.241 174.621 359.037 174.824 358.886 175.091C358.738 175.358 358.664 175.682 358.664 176.062ZM367.493 180.136C366.862 180.136 366.318 179.997 365.861 179.719C365.406 179.438 365.055 179.045 364.808 178.543C364.564 178.037 364.442 177.449 364.442 176.778C364.442 176.108 364.564 175.517 364.808 175.006C365.055 174.491 365.399 174.091 365.839 173.804C366.283 173.514 366.8 173.369 367.391 173.369C367.732 173.369 368.068 173.426 368.401 173.54C368.733 173.653 369.036 173.838 369.308 174.094C369.581 174.347 369.798 174.682 369.96 175.099C370.122 175.517 370.203 176.031 370.203 176.642V177.068H365.158V176.199H369.18C369.18 175.83 369.107 175.5 368.959 175.21C368.814 174.92 368.607 174.692 368.337 174.524C368.07 174.357 367.754 174.273 367.391 174.273C366.99 174.273 366.643 174.372 366.351 174.571C366.061 174.767 365.838 175.023 365.682 175.338C365.526 175.653 365.447 175.991 365.447 176.352V176.932C365.447 177.426 365.533 177.845 365.703 178.189C365.876 178.53 366.116 178.79 366.423 178.969C366.73 179.145 367.087 179.233 367.493 179.233C367.757 179.233 367.996 179.196 368.209 179.122C368.425 179.045 368.611 178.932 368.767 178.781C368.923 178.628 369.044 178.437 369.129 178.21L370.101 178.483C369.999 178.812 369.827 179.102 369.585 179.352C369.344 179.599 369.045 179.793 368.69 179.932C368.335 180.068 367.936 180.136 367.493 180.136ZM372.739 171.273V180H371.733V171.273H372.739ZM374.581 182.455V173.455H375.552V174.494H375.672C375.745 174.381 375.848 174.236 375.978 174.06C376.112 173.881 376.302 173.722 376.549 173.582C376.799 173.44 377.137 173.369 377.564 173.369C378.115 173.369 378.6 173.507 379.021 173.783C379.441 174.058 379.77 174.449 380.005 174.955C380.241 175.46 380.359 176.057 380.359 176.744C380.359 177.438 380.241 178.038 380.005 178.547C379.77 179.053 379.443 179.445 379.025 179.723C378.608 179.999 378.126 180.136 377.581 180.136C377.16 180.136 376.824 180.067 376.571 179.928C376.318 179.786 376.123 179.625 375.987 179.446C375.85 179.264 375.745 179.114 375.672 178.994H375.586V182.455H374.581ZM375.569 176.727C375.569 177.222 375.642 177.658 375.787 178.036C375.931 178.411 376.143 178.705 376.422 178.918C376.7 179.128 377.041 179.233 377.444 179.233C377.865 179.233 378.216 179.122 378.497 178.901C378.781 178.676 378.994 178.375 379.136 177.997C379.281 177.616 379.353 177.193 379.353 176.727C379.353 176.267 379.282 175.852 379.14 175.483C379.001 175.111 378.789 174.817 378.505 174.601C378.224 174.382 377.87 174.273 377.444 174.273C377.035 174.273 376.691 174.376 376.413 174.584C376.135 174.788 375.924 175.075 375.782 175.445C375.64 175.811 375.569 176.239 375.569 176.727ZM389.393 177.324V173.455H390.399V180H389.393V178.892H389.325C389.172 179.224 388.933 179.507 388.609 179.74C388.285 179.97 387.876 180.085 387.382 180.085C386.973 180.085 386.609 179.996 386.291 179.817C385.973 179.635 385.723 179.362 385.541 178.999C385.359 178.632 385.268 178.17 385.268 177.614V173.455H386.274V177.545C386.274 178.023 386.407 178.403 386.674 178.688C386.944 178.972 387.288 179.114 387.706 179.114C387.956 179.114 388.21 179.05 388.468 178.922C388.73 178.794 388.949 178.598 389.125 178.334C389.304 178.07 389.393 177.733 389.393 177.324ZM396.877 174.92L395.974 175.176C395.917 175.026 395.833 174.879 395.722 174.737C395.614 174.592 395.467 174.473 395.279 174.379C395.092 174.286 394.852 174.239 394.559 174.239C394.158 174.239 393.825 174.331 393.558 174.516C393.293 174.697 393.161 174.929 393.161 175.21C393.161 175.46 393.252 175.658 393.434 175.803C393.616 175.947 393.9 176.068 394.286 176.165L395.258 176.403C395.843 176.545 396.279 176.763 396.566 177.055C396.853 177.345 396.996 177.719 396.996 178.176C396.996 178.551 396.888 178.886 396.673 179.182C396.46 179.477 396.161 179.71 395.778 179.881C395.394 180.051 394.948 180.136 394.44 180.136C393.772 180.136 393.219 179.991 392.782 179.702C392.344 179.412 392.067 178.989 391.951 178.432L392.906 178.193C392.996 178.545 393.168 178.81 393.421 178.986C393.677 179.162 394.011 179.25 394.423 179.25C394.891 179.25 395.263 179.151 395.539 178.952C395.817 178.75 395.957 178.509 395.957 178.227C395.957 178 395.877 177.81 395.718 177.656C395.559 177.5 395.315 177.384 394.985 177.307L393.894 177.051C393.295 176.909 392.854 176.689 392.573 176.391C392.295 176.089 392.156 175.713 392.156 175.261C392.156 174.892 392.259 174.565 392.467 174.281C392.677 173.997 392.962 173.774 393.323 173.612C393.687 173.45 394.099 173.369 394.559 173.369C395.207 173.369 395.715 173.511 396.085 173.795C396.457 174.08 396.721 174.455 396.877 174.92ZM401.255 180.136C400.624 180.136 400.08 179.997 399.623 179.719C399.168 179.438 398.817 179.045 398.57 178.543C398.326 178.037 398.203 177.449 398.203 176.778C398.203 176.108 398.326 175.517 398.57 175.006C398.817 174.491 399.161 174.091 399.601 173.804C400.044 173.514 400.561 173.369 401.152 173.369C401.493 173.369 401.83 173.426 402.162 173.54C402.495 173.653 402.797 173.838 403.07 174.094C403.343 174.347 403.56 174.682 403.722 175.099C403.884 175.517 403.965 176.031 403.965 176.642V177.068H398.919V176.199H402.942C402.942 175.83 402.868 175.5 402.721 175.21C402.576 174.92 402.368 174.692 402.098 174.524C401.831 174.357 401.516 174.273 401.152 174.273C400.752 174.273 400.405 174.372 400.113 174.571C399.823 174.767 399.6 175.023 399.444 175.338C399.287 175.653 399.209 175.991 399.209 176.352V176.932C399.209 177.426 399.294 177.845 399.465 178.189C399.638 178.53 399.878 178.79 400.185 178.969C400.492 179.145 400.848 179.233 401.255 179.233C401.519 179.233 401.757 179.196 401.971 179.122C402.186 179.045 402.373 178.932 402.529 178.781C402.685 178.628 402.806 178.437 402.891 178.21L403.863 178.483C403.76 178.812 403.588 179.102 403.347 179.352C403.105 179.599 402.807 179.793 402.452 179.932C402.097 180.068 401.698 180.136 401.255 180.136ZM405.495 180V173.455H406.466V174.443H406.534C406.654 174.119 406.87 173.857 407.182 173.655C407.495 173.453 407.847 173.352 408.239 173.352C408.313 173.352 408.405 173.354 408.516 173.357C408.627 173.359 408.711 173.364 408.767 173.369V174.392C408.733 174.384 408.655 174.371 408.533 174.354C408.414 174.334 408.287 174.324 408.154 174.324C407.836 174.324 407.551 174.391 407.301 174.524C407.054 174.655 406.858 174.837 406.713 175.07C406.571 175.3 406.5 175.562 406.5 175.858V180H405.495ZM409.942 180.068C409.732 180.068 409.552 179.993 409.401 179.842C409.251 179.692 409.175 179.511 409.175 179.301C409.175 179.091 409.251 178.911 409.401 178.76C409.552 178.609 409.732 178.534 409.942 178.534C410.153 178.534 410.333 178.609 410.484 178.76C410.634 178.911 410.71 179.091 410.71 179.301C410.71 179.44 410.674 179.568 410.603 179.685C410.535 179.801 410.442 179.895 410.326 179.966C410.212 180.034 410.085 180.068 409.942 180.068Z" fill="#959BA3"/>
</g>
<path d="M242.959 116V107.273H248.43V108.406H244.276V111.065H248.145V112.195H244.276V114.866H248.482V116H242.959ZM250.087 116V109.455H251.31V110.52H251.391C251.527 110.159 251.75 109.878 252.06 109.676C252.37 109.472 252.74 109.369 253.172 109.369C253.61 109.369 253.976 109.472 254.272 109.676C254.57 109.881 254.79 110.162 254.932 110.52H255C255.157 110.17 255.405 109.892 255.746 109.685C256.087 109.474 256.493 109.369 256.965 109.369C257.559 109.369 258.043 109.555 258.418 109.928C258.796 110.3 258.985 110.861 258.985 111.611V116H257.711V111.73C257.711 111.287 257.59 110.966 257.348 110.767C257.107 110.568 256.819 110.469 256.483 110.469C256.069 110.469 255.746 110.597 255.516 110.852C255.286 111.105 255.171 111.43 255.171 111.828V116H253.901V111.649C253.901 111.294 253.79 111.009 253.569 110.793C253.347 110.577 253.059 110.469 252.703 110.469C252.462 110.469 252.239 110.533 252.034 110.661C251.833 110.786 251.669 110.96 251.544 111.185C251.422 111.409 251.361 111.669 251.361 111.964V116H250.087ZM262.597 116.145C262.183 116.145 261.808 116.068 261.472 115.915C261.137 115.759 260.871 115.533 260.675 115.237C260.482 114.942 260.386 114.58 260.386 114.151C260.386 113.781 260.457 113.477 260.599 113.239C260.741 113 260.933 112.811 261.174 112.672C261.415 112.533 261.685 112.428 261.984 112.357C262.282 112.286 262.586 112.232 262.896 112.195C263.288 112.149 263.606 112.112 263.85 112.084C264.094 112.053 264.272 112.003 264.383 111.935C264.494 111.866 264.549 111.756 264.549 111.602V111.572C264.549 111.2 264.444 110.912 264.234 110.707C264.026 110.503 263.717 110.401 263.305 110.401C262.876 110.401 262.538 110.496 262.29 110.686C262.046 110.874 261.877 111.082 261.783 111.312L260.586 111.04C260.728 110.642 260.935 110.321 261.208 110.077C261.484 109.83 261.8 109.651 262.158 109.54C262.516 109.426 262.893 109.369 263.288 109.369C263.549 109.369 263.826 109.401 264.119 109.463C264.414 109.523 264.69 109.634 264.945 109.795C265.204 109.957 265.415 110.189 265.58 110.49C265.745 110.788 265.827 111.176 265.827 111.653V116H264.583V115.105H264.532C264.45 115.27 264.326 115.432 264.161 115.591C263.996 115.75 263.785 115.882 263.526 115.987C263.268 116.092 262.958 116.145 262.597 116.145ZM262.874 115.122C263.227 115.122 263.528 115.053 263.778 114.913C264.031 114.774 264.222 114.592 264.353 114.368C264.487 114.141 264.553 113.898 264.553 113.639V112.795C264.508 112.841 264.42 112.884 264.289 112.923C264.161 112.96 264.015 112.993 263.85 113.021C263.685 113.047 263.525 113.071 263.369 113.094C263.212 113.114 263.082 113.131 262.977 113.145C262.729 113.176 262.504 113.229 262.299 113.303C262.097 113.376 261.935 113.483 261.813 113.622C261.694 113.759 261.634 113.94 261.634 114.168C261.634 114.483 261.751 114.722 261.984 114.884C262.217 115.043 262.513 115.122 262.874 115.122ZM267.525 116V109.455H268.799V116H267.525ZM268.168 108.445C267.946 108.445 267.756 108.371 267.597 108.223C267.441 108.072 267.363 107.893 267.363 107.686C267.363 107.476 267.441 107.297 267.597 107.149C267.756 106.999 267.946 106.923 268.168 106.923C268.39 106.923 268.578 106.999 268.735 107.149C268.894 107.297 268.973 107.476 268.973 107.686C268.973 107.893 268.894 108.072 268.735 108.223C268.578 108.371 268.39 108.445 268.168 108.445ZM271.787 107.273V116H270.513V107.273H271.787Z" fill="#344054"/>
<rect x="242.5" y="127.5" width="319" height="35" rx="2.5" fill="white"/>
<path d="M272.335 139.999C272.335 139.082 271.585 138.332 270.668 138.332H257.335C256.418 138.332 255.668 139.082 255.668 139.999M272.335 139.999V149.999C272.335 150.915 271.585 151.665 270.668 151.665H257.335C256.418 151.665 255.668 150.915 255.668 149.999V139.999M272.335 139.999L264.001 145.832L255.668 139.999" stroke="#959BA3" stroke-width="1.66667" stroke-linecap="round" stroke-linejoin="round"/>
<path d="M285.878 150.148C285.238 150.148 284.676 149.995 284.193 149.691C283.713 149.386 283.337 148.96 283.066 148.412C282.799 147.864 282.665 147.224 282.665 146.491C282.665 145.753 282.799 145.108 283.066 144.557C283.337 144.006 283.713 143.578 284.193 143.274C284.676 142.969 285.238 142.817 285.878 142.817C286.518 142.817 287.078 142.969 287.558 143.274C288.041 143.578 288.417 144.006 288.685 144.557C288.955 145.108 289.091 145.753 289.091 146.491C289.091 147.224 288.955 147.864 288.685 148.412C288.417 148.96 288.041 149.386 287.558 149.691C287.078 149.995 286.518 150.148 285.878 150.148ZM285.878 149.169C286.364 149.169 286.764 149.044 287.078 148.795C287.392 148.546 287.624 148.218 287.775 147.812C287.926 147.406 288.001 146.965 288.001 146.491C288.001 146.018 287.926 145.576 287.775 145.167C287.624 144.757 287.392 144.426 287.078 144.174C286.764 143.922 286.364 143.795 285.878 143.795C285.392 143.795 284.991 143.922 284.678 144.174C284.364 144.426 284.131 144.757 283.98 145.167C283.83 145.576 283.754 146.018 283.754 146.491C283.754 146.965 283.83 147.406 283.98 147.812C284.131 148.218 284.364 148.546 284.678 148.795C284.991 149.044 285.392 149.169 285.878 149.169ZM291.843 140.545V150H290.754V140.545H291.843ZM293.839 150V142.909H294.928V150H293.839ZM294.393 141.727C294.181 141.727 293.997 141.655 293.844 141.51C293.693 141.366 293.617 141.192 293.617 140.989C293.617 140.786 293.693 140.612 293.844 140.467C293.997 140.322 294.181 140.25 294.393 140.25C294.605 140.25 294.787 140.322 294.938 140.467C295.092 140.612 295.169 140.786 295.169 140.989C295.169 141.192 295.092 141.366 294.938 141.51C294.787 141.655 294.605 141.727 294.393 141.727ZM302.722 142.909L300.1 150H298.992L296.37 142.909H297.552L299.509 148.56H299.583L301.54 142.909H302.722ZM304.16 150V142.909H305.25V150H304.16ZM304.714 141.727C304.502 141.727 304.319 141.655 304.165 141.51C304.014 141.366 303.939 141.192 303.939 140.989C303.939 140.786 304.014 140.612 304.165 140.467C304.319 140.322 304.502 140.25 304.714 140.25C304.927 140.25 305.108 140.322 305.259 140.467C305.413 140.612 305.49 140.786 305.49 140.989C305.49 141.192 305.413 141.366 305.259 141.51C305.108 141.655 304.927 141.727 304.714 141.727ZM309.332 150.166C308.883 150.166 308.475 150.082 308.108 149.912C307.742 149.74 307.451 149.492 307.236 149.169C307.021 148.843 306.913 148.449 306.913 147.987C306.913 147.581 306.993 147.252 307.153 146.999C307.313 146.744 307.527 146.544 307.795 146.399C308.062 146.254 308.358 146.147 308.681 146.076C309.007 146.002 309.335 145.944 309.664 145.901C310.095 145.845 310.444 145.804 310.712 145.776C310.983 145.745 311.18 145.694 311.303 145.624C311.429 145.553 311.492 145.43 311.492 145.254V145.217C311.492 144.762 311.368 144.408 311.118 144.156C310.872 143.903 310.498 143.777 309.997 143.777C309.477 143.777 309.069 143.891 308.773 144.119C308.478 144.346 308.27 144.589 308.15 144.848L307.116 144.479C307.301 144.048 307.547 143.712 307.855 143.472C308.165 143.229 308.504 143.06 308.87 142.964C309.24 142.866 309.603 142.817 309.96 142.817C310.187 142.817 310.449 142.844 310.744 142.9C311.043 142.952 311.331 143.061 311.608 143.228C311.888 143.394 312.12 143.645 312.305 143.98C312.49 144.316 312.582 144.765 312.582 145.328V150H311.492V149.04H311.437C311.363 149.194 311.24 149.358 311.068 149.534C310.895 149.709 310.666 149.858 310.38 149.982C310.094 150.105 309.744 150.166 309.332 150.166ZM309.498 149.188C309.929 149.188 310.292 149.103 310.588 148.934C310.886 148.764 311.111 148.546 311.262 148.278C311.415 148.01 311.492 147.729 311.492 147.433V146.436C311.446 146.491 311.345 146.542 311.188 146.588C311.034 146.632 310.855 146.67 310.652 146.704C310.452 146.735 310.257 146.762 310.066 146.787C309.878 146.808 309.726 146.827 309.609 146.842C309.326 146.879 309.061 146.939 308.815 147.022C308.572 147.102 308.375 147.224 308.224 147.387C308.076 147.547 308.002 147.766 308.002 148.043C308.002 148.421 308.142 148.707 308.422 148.901C308.706 149.092 309.064 149.188 309.498 149.188ZM320.018 152.493C319.076 152.493 318.244 152.364 317.52 152.105C316.797 151.85 316.189 151.473 315.697 150.974C315.204 150.475 314.832 149.865 314.58 149.141C314.327 148.418 314.201 147.59 314.201 146.658C314.201 145.756 314.329 144.95 314.584 144.239C314.843 143.528 315.217 142.924 315.706 142.429C316.198 141.93 316.796 141.55 317.497 141.289C318.202 141.027 318.999 140.896 319.889 140.896C320.753 140.896 321.511 141.038 322.16 141.321C322.812 141.601 323.357 141.981 323.794 142.461C324.234 142.938 324.564 143.475 324.782 144.072C325.004 144.67 325.114 145.285 325.114 145.919C325.114 146.365 325.093 146.818 325.05 147.276C325.007 147.735 324.916 148.156 324.777 148.541C324.639 148.923 324.425 149.231 324.136 149.464C323.85 149.698 323.462 149.815 322.972 149.815C322.757 149.815 322.52 149.781 322.261 149.714C322.003 149.646 321.774 149.534 321.574 149.377C321.374 149.22 321.255 149.009 321.218 148.744H321.163C321.089 148.923 320.975 149.092 320.821 149.252C320.67 149.412 320.472 149.54 320.226 149.635C319.982 149.731 319.685 149.772 319.335 149.76C318.935 149.745 318.582 149.655 318.277 149.492C317.973 149.326 317.717 149.101 317.511 148.818C317.308 148.532 317.154 148.201 317.049 147.826C316.948 147.447 316.897 147.039 316.897 146.602C316.897 146.187 316.959 145.807 317.082 145.462C317.205 145.117 317.376 144.816 317.594 144.557C317.816 144.299 318.074 144.092 318.37 143.939C318.668 143.782 318.99 143.685 319.335 143.648C319.642 143.617 319.922 143.631 320.175 143.689C320.427 143.745 320.635 143.829 320.798 143.943C320.961 144.054 321.064 144.177 321.107 144.312H321.163V143.795H322.141V147.969C322.141 148.227 322.214 148.455 322.358 148.652C322.503 148.849 322.714 148.947 322.991 148.947C323.305 148.947 323.545 148.84 323.711 148.624C323.88 148.409 323.996 148.076 324.057 147.627C324.122 147.178 324.154 146.602 324.154 145.901C324.154 145.488 324.097 145.082 323.983 144.682C323.873 144.279 323.703 143.902 323.476 143.551C323.251 143.2 322.966 142.891 322.622 142.623C322.277 142.355 321.872 142.146 321.407 141.995C320.946 141.841 320.421 141.764 319.833 141.764C319.11 141.764 318.462 141.877 317.89 142.101C317.32 142.323 316.836 142.647 316.435 143.075C316.038 143.5 315.735 144.017 315.526 144.626C315.32 145.233 315.217 145.922 315.217 146.695C315.217 147.479 315.32 148.176 315.526 148.786C315.735 149.395 316.043 149.909 316.449 150.328C316.859 150.746 317.365 151.063 317.968 151.279C318.571 151.497 319.267 151.607 320.055 151.607C320.393 151.607 320.727 151.574 321.057 151.51C321.386 151.445 321.677 151.374 321.929 151.297C322.181 151.22 322.363 151.163 322.474 151.126L322.732 151.976C322.542 152.056 322.292 152.136 321.984 152.216C321.68 152.296 321.354 152.362 321.006 152.414C320.661 152.467 320.332 152.493 320.018 152.493ZM319.482 148.818C319.895 148.818 320.229 148.735 320.484 148.569C320.74 148.403 320.926 148.152 321.043 147.816C321.16 147.481 321.218 147.058 321.218 146.547C321.218 146.03 321.153 145.627 321.024 145.337C320.895 145.048 320.704 144.845 320.452 144.728C320.199 144.611 319.889 144.553 319.519 144.553C319.168 144.553 318.868 144.645 318.619 144.83C318.373 145.011 318.184 145.254 318.051 145.559C317.922 145.861 317.857 146.19 317.857 146.547C317.857 146.941 317.91 147.312 318.014 147.659C318.119 148.004 318.29 148.284 318.527 148.5C318.764 148.712 319.082 148.818 319.482 148.818ZM331.214 147.101V142.909H332.303V150H331.214V148.8H331.14C330.974 149.16 330.715 149.466 330.365 149.718C330.014 149.968 329.57 150.092 329.035 150.092C328.592 150.092 328.198 149.995 327.853 149.801C327.508 149.605 327.238 149.309 327.041 148.915C326.844 148.518 326.745 148.018 326.745 147.415V142.909H327.835V147.341C327.835 147.858 327.979 148.27 328.269 148.578C328.561 148.886 328.933 149.04 329.386 149.04C329.657 149.04 329.932 148.971 330.212 148.832C330.495 148.694 330.732 148.481 330.923 148.195C331.117 147.909 331.214 147.544 331.214 147.101ZM335.388 145.734V150H334.299V142.909H335.351V144.017H335.444C335.61 143.657 335.862 143.368 336.201 143.149C336.539 142.928 336.976 142.817 337.512 142.817C337.992 142.817 338.412 142.915 338.772 143.112C339.132 143.306 339.412 143.602 339.612 143.999C339.813 144.393 339.913 144.891 339.913 145.494V150H338.823V145.568C338.823 145.011 338.678 144.577 338.389 144.266C338.1 143.952 337.703 143.795 337.198 143.795C336.85 143.795 336.539 143.871 336.266 144.022C335.995 144.172 335.781 144.393 335.624 144.682C335.467 144.971 335.388 145.322 335.388 145.734ZM344.987 142.909V143.832H341.312V142.909H344.987ZM342.384 141.21H343.473V147.969C343.473 148.277 343.518 148.507 343.607 148.661C343.699 148.812 343.816 148.914 343.958 148.966C344.102 149.015 344.255 149.04 344.415 149.04C344.535 149.04 344.633 149.034 344.71 149.021C344.787 149.006 344.849 148.994 344.895 148.984L345.116 149.963C345.043 149.991 344.94 150.018 344.807 150.046C344.675 150.077 344.507 150.092 344.304 150.092C343.996 150.092 343.695 150.026 343.399 149.894C343.107 149.761 342.864 149.56 342.67 149.289C342.479 149.018 342.384 148.677 342.384 148.264V141.21ZM346.626 150V142.909H347.716V150H346.626ZM347.18 141.727C346.968 141.727 346.785 141.655 346.631 141.51C346.48 141.366 346.404 141.192 346.404 140.989C346.404 140.786 346.48 140.612 346.631 140.467C346.785 140.322 346.968 140.25 347.18 140.25C347.392 140.25 347.574 140.322 347.725 140.467C347.879 140.612 347.956 140.786 347.956 140.989C347.956 141.192 347.879 141.366 347.725 141.51C347.574 141.655 347.392 141.727 347.18 141.727ZM352.795 142.909V143.832H349.12V142.909H352.795ZM350.191 141.21H351.281V147.969C351.281 148.277 351.325 148.507 351.415 148.661C351.507 148.812 351.624 148.914 351.765 148.966C351.91 149.015 352.062 149.04 352.222 149.04C352.342 149.04 352.441 149.034 352.518 149.021C352.595 149.006 352.656 148.994 352.703 148.984L352.924 149.963C352.85 149.991 352.747 150.018 352.615 150.046C352.482 150.077 352.315 150.092 352.112 150.092C351.804 150.092 351.502 150.026 351.207 149.894C350.914 149.761 350.671 149.56 350.477 149.289C350.287 149.018 350.191 148.677 350.191 148.264V141.21ZM355.676 140.545V150H354.586V140.545H355.676ZM360.644 150.148C359.961 150.148 359.371 149.997 358.876 149.695C358.383 149.391 358.003 148.966 357.736 148.421C357.471 147.873 357.339 147.236 357.339 146.51C357.339 145.784 357.471 145.143 357.736 144.589C358.003 144.032 358.376 143.598 358.853 143.288C359.333 142.974 359.893 142.817 360.533 142.817C360.903 142.817 361.267 142.878 361.627 143.001C361.987 143.125 362.315 143.325 362.611 143.602C362.906 143.875 363.142 144.239 363.317 144.691C363.492 145.143 363.58 145.701 363.58 146.362V146.824H358.114V145.882H362.472C362.472 145.482 362.392 145.125 362.232 144.811C362.075 144.497 361.85 144.249 361.558 144.068C361.269 143.886 360.927 143.795 360.533 143.795C360.099 143.795 359.724 143.903 359.407 144.119C359.093 144.331 358.851 144.608 358.682 144.95C358.513 145.291 358.428 145.657 358.428 146.048V146.676C358.428 147.212 358.52 147.666 358.705 148.038C358.893 148.407 359.153 148.689 359.485 148.883C359.818 149.074 360.204 149.169 360.644 149.169C360.93 149.169 361.189 149.129 361.42 149.049C361.653 148.966 361.855 148.843 362.024 148.68C362.194 148.513 362.324 148.307 362.417 148.061L363.469 148.357C363.358 148.714 363.172 149.027 362.911 149.298C362.649 149.566 362.326 149.775 361.941 149.926C361.557 150.074 361.124 150.148 360.644 150.148ZM367.915 150.148C367.324 150.148 366.802 149.998 366.35 149.7C365.898 149.398 365.544 148.974 365.288 148.426C365.033 147.875 364.905 147.224 364.905 146.473C364.905 145.728 365.033 145.082 365.288 144.534C365.544 143.986 365.899 143.563 366.355 143.265C366.81 142.966 367.336 142.817 367.933 142.817C368.395 142.817 368.76 142.894 369.028 143.048C369.298 143.198 369.505 143.371 369.646 143.565C369.791 143.755 369.903 143.912 369.983 144.036H370.075V140.545H371.165V150H370.112V148.911H369.983C369.903 149.04 369.789 149.203 369.642 149.4C369.494 149.594 369.283 149.768 369.009 149.922C368.735 150.072 368.37 150.148 367.915 150.148ZM368.063 149.169C368.5 149.169 368.869 149.055 369.171 148.827C369.472 148.597 369.702 148.278 369.858 147.872C370.015 147.462 370.094 146.99 370.094 146.455C370.094 145.925 370.017 145.462 369.863 145.065C369.709 144.665 369.481 144.354 369.18 144.132C368.878 143.908 368.506 143.795 368.063 143.795C367.601 143.795 367.216 143.914 366.909 144.151C366.604 144.385 366.375 144.703 366.221 145.107C366.07 145.507 365.994 145.956 365.994 146.455C365.994 146.959 366.071 147.418 366.225 147.83C366.382 148.24 366.613 148.566 366.918 148.809C367.226 149.049 367.607 149.169 368.063 149.169ZM377.78 147.101V142.909H378.87V150H377.78V148.8H377.706C377.54 149.16 377.282 149.466 376.931 149.718C376.58 149.968 376.137 150.092 375.601 150.092C375.158 150.092 374.764 149.995 374.42 149.801C374.075 149.605 373.804 149.309 373.607 148.915C373.41 148.518 373.312 148.018 373.312 147.415V142.909H374.401V147.341C374.401 147.858 374.546 148.27 374.835 148.578C375.127 148.886 375.5 149.04 375.952 149.04C376.223 149.04 376.499 148.971 376.779 148.832C377.062 148.694 377.299 148.481 377.49 148.195C377.683 147.909 377.78 147.544 377.78 147.101ZM380.865 150V142.909H381.955V150H380.865ZM381.419 141.727C381.207 141.727 381.024 141.655 380.87 141.51C380.719 141.366 380.644 141.192 380.644 140.989C380.644 140.786 380.719 140.612 380.87 140.467C381.024 140.322 381.207 140.25 381.419 140.25C381.632 140.25 381.813 140.322 381.964 140.467C382.118 140.612 382.195 140.786 382.195 140.989C382.195 141.192 382.118 141.366 381.964 141.51C381.813 141.655 381.632 141.727 381.419 141.727ZM384.744 150.074C384.517 150.074 384.321 149.992 384.158 149.829C383.995 149.666 383.913 149.471 383.913 149.243C383.913 149.015 383.995 148.82 384.158 148.657C384.321 148.493 384.517 148.412 384.744 148.412C384.972 148.412 385.167 148.493 385.331 148.657C385.494 148.82 385.575 149.015 385.575 149.243C385.575 149.394 385.537 149.532 385.46 149.658C385.386 149.785 385.286 149.886 385.16 149.963C385.037 150.037 384.898 150.074 384.744 150.074ZM390.411 150.148C389.746 150.148 389.174 149.991 388.694 149.677C388.214 149.363 387.844 148.931 387.586 148.38C387.327 147.829 387.198 147.199 387.198 146.491C387.198 145.771 387.33 145.136 387.595 144.585C387.863 144.031 388.235 143.598 388.712 143.288C389.192 142.974 389.752 142.817 390.393 142.817C390.891 142.817 391.34 142.909 391.741 143.094C392.141 143.278 392.468 143.537 392.724 143.869C392.979 144.202 393.138 144.589 393.199 145.033H392.11C392.027 144.71 391.842 144.423 391.556 144.174C391.273 143.922 390.891 143.795 390.411 143.795C389.986 143.795 389.614 143.906 389.294 144.128C388.977 144.346 388.729 144.656 388.551 145.056C388.375 145.453 388.287 145.919 388.287 146.455C388.287 147.002 388.374 147.479 388.546 147.886C388.721 148.292 388.968 148.607 389.285 148.832C389.605 149.057 389.98 149.169 390.411 149.169C390.694 149.169 390.951 149.12 391.182 149.021C391.413 148.923 391.608 148.781 391.768 148.597C391.928 148.412 392.042 148.19 392.11 147.932H393.199C393.138 148.35 392.985 148.727 392.742 149.063C392.502 149.395 392.184 149.66 391.787 149.857C391.393 150.051 390.934 150.148 390.411 150.148ZM397.673 150.148C397.033 150.148 396.471 149.995 395.988 149.691C395.508 149.386 395.132 148.96 394.861 148.412C394.594 147.864 394.46 147.224 394.46 146.491C394.46 145.753 394.594 145.108 394.861 144.557C395.132 144.006 395.508 143.578 395.988 143.274C396.471 142.969 397.033 142.817 397.673 142.817C398.313 142.817 398.873 142.969 399.353 143.274C399.836 143.578 400.212 144.006 400.48 144.557C400.75 145.108 400.886 145.753 400.886 146.491C400.886 147.224 400.75 147.864 400.48 148.412C400.212 148.96 399.836 149.386 399.353 149.691C398.873 149.995 398.313 150.148 397.673 150.148ZM397.673 149.169C398.159 149.169 398.559 149.044 398.873 148.795C399.187 148.546 399.419 148.218 399.57 147.812C399.721 147.406 399.796 146.965 399.796 146.491C399.796 146.018 399.721 145.576 399.57 145.167C399.419 144.757 399.187 144.426 398.873 144.174C398.559 143.922 398.159 143.795 397.673 143.795C397.186 143.795 396.786 143.922 396.472 144.174C396.159 144.426 395.926 144.757 395.775 145.167C395.625 145.576 395.549 146.018 395.549 146.491C395.549 146.965 395.625 147.406 395.775 147.812C395.926 148.218 396.159 148.546 396.472 148.795C396.786 149.044 397.186 149.169 397.673 149.169ZM402.549 150V142.909H403.601V144.017H403.694C403.842 143.638 404.08 143.345 404.409 143.135C404.739 142.923 405.134 142.817 405.596 142.817C406.064 142.817 406.453 142.923 406.764 143.135C407.078 143.345 407.322 143.638 407.498 144.017H407.572C407.753 143.651 408.026 143.36 408.389 143.145C408.752 142.926 409.187 142.817 409.695 142.817C410.329 142.817 410.848 143.015 411.251 143.412C411.654 143.806 411.856 144.42 411.856 145.254V150H410.766V145.254C410.766 144.731 410.623 144.357 410.337 144.132C410.051 143.908 409.714 143.795 409.326 143.795C408.827 143.795 408.441 143.946 408.167 144.248C407.893 144.546 407.756 144.925 407.756 145.384V150H406.648V145.143C406.648 144.74 406.518 144.416 406.256 144.169C405.994 143.92 405.657 143.795 405.245 143.795C404.962 143.795 404.697 143.871 404.451 144.022C404.208 144.172 404.011 144.382 403.86 144.65C403.712 144.914 403.638 145.22 403.638 145.568V150H402.549Z" fill="#959BA3"/>
<g clip-path="url(#clip1_893_10552)">
<path d="M540.059 142.999C540.215 142.553 540.525 142.177 540.932 141.938C541.339 141.699 541.818 141.611 542.283 141.691C542.749 141.771 543.171 142.013 543.475 142.374C543.78 142.736 543.946 143.193 543.945 143.665C543.945 144.999 541.945 145.665 541.945 145.665M541.999 148.332H542.005M548.665 144.999C548.665 148.681 545.681 151.665 541.999 151.665C538.317 151.665 535.332 148.681 535.332 144.999C535.332 141.317 538.317 138.332 541.999 138.332C545.681 138.332 548.665 141.317 548.665 144.999Z" stroke="#B8BFC7" stroke-width="1.33333" stroke-linecap="round" stroke-linejoin="round"/>
</g>
<rect x="242.5" y="127.5" width="319" height="35" rx="2.5" stroke="#D8DEE9"/>
<rect x="241.5" y="102.5" width="321" height="61" stroke="#0D69D4"/>
<g clip-path="url(#clip2_893_10552)">
<mask maskUnits="userSpaceOnUse" x="0" y="0" width="0" height="0" fill="black">
<rect fill="white" width="0" height="0"/>
</mask>
<path d="M194.707 47.2929C194.317 46.9024 193.683 46.9024 193.293 47.2929L186.929 53.6569C186.538 54.0474 186.538 54.6805 186.929 55.0711C187.319 55.4616 187.953 55.4616 188.343 55.0711L194 49.4142L199.657 55.0711C200.047 55.4616 200.681 55.4616 201.071 55.0711C201.462 54.6805 201.462 54.0474 201.071 53.6569L194.707 47.2929ZM193.293 78.7071C193.683 79.0976 194.317 79.0976 194.707 78.7071L201.071 72.3431C201.462 71.9526 201.462 71.3195 201.071 70.9289C200.681 70.5384 200.047 70.5384 199.657 70.9289L194 76.5858L188.343 70.9289C187.953 70.5384 187.319 70.5384 186.929 70.9289C186.538 71.3195 186.538 71.9526 186.929 72.3431L193.293 78.7071ZM193 48V78H195V48H193Z" fill="#6B6B6B" mask="url(#)"/>
</g>
<path fill-rule="evenodd" clip-rule="evenodd" d="M196.011 47H191.989H190.989H187H186L186 48V52.024V53.024V53.031L186 57.0186L186 58.0186L186 62.014L186 63.014H187H190.989H191.989H196.011H197.011H201H202V62.014V58.0186V57.0186V53.024V52.024V48V47H201H197.011H196.011ZM187 62.014H190.989V58.0186H187V62.014ZM187 57.0186H190.989V53.031H187V57.0186ZM201 58.0186V62.014H197.011V58.0186H201ZM201 53.024V57.0186H197.011V53.024H201ZM201 48V52.024H197.011V48H201ZM196.011 48H191.989V52.024H196.011V48ZM196.011 53.024H191.989V53.031V57.0186H196.011V53.024ZM196.011 58.0186H191.989V62.014H196.011V58.0186Z" fill="#6B6B6B"/>
<g clip-path="url(#clip3_893_10552)">
<g clip-path="url(#clip4_893_10552)">
<mask maskUnits="userSpaceOnUse" x="0" y="0" width="0" height="0" fill="black">
<rect fill="white" width="0" height="0"/>
</mask>
<path d="M195.28 93.2197C194.987 92.9268 194.513 92.9268 194.22 93.2197L189.447 97.9926C189.154 98.2855 189.154 98.7604 189.447 99.0533C189.74 99.3462 190.214 99.3462 190.507 99.0533L194.75 94.8107L198.993 99.0533C199.286 99.3462 199.76 99.3462 200.053 99.0533C200.346 98.7604 200.346 98.2855 200.053 97.9926L195.28 93.2197ZM194.22 132.28C194.513 132.573 194.987 132.573 195.28 132.28L200.053 127.507C200.346 127.214 200.346 126.74 200.053 126.447C199.76 126.154 199.286 126.154 198.993 126.447L194.75 130.689L190.507 126.447C190.214 126.154 189.74 126.154 189.447 126.447C189.154 126.74 189.154 127.214 189.447 127.507L194.22 132.28ZM194 93.75V131.75H195.5V93.75H194Z" fill="#0D69D4" mask="url(#)"/>
<mask maskUnits="userSpaceOnUse" x="0" y="0" width="0" height="0" fill="black">
<rect fill="white" width="0" height="0"/>
</mask>
<path d="M195.28 133.72C194.987 133.427 194.513 133.427 194.22 133.72L189.447 138.493C189.154 138.786 189.154 139.26 189.447 139.553C189.74 139.846 190.214 139.846 190.507 139.553L194.75 135.311L198.993 139.553C199.286 139.846 199.76 139.846 200.053 139.553C200.346 139.26 200.346 138.786 200.053 138.493L195.28 133.72ZM194.22 172.78C194.513 173.073 194.987 173.073 195.28 172.78L200.053 168.007C200.346 167.714 200.346 167.24 200.053 166.947C199.76 166.654 199.286 166.654 198.993 166.947L194.75 171.189L190.507 166.947C190.214 166.654 189.74 166.654 189.447 166.947C189.154 167.24 189.154 167.714 189.447 168.007L194.22 172.78ZM194 134.25V172.25H195.5V134.25H194Z" fill="#0D69D4" mask="url(#)"/>
</g>
</g>
<mask maskUnits="userSpaceOnUse" x="0" y="0" width="0" height="0" fill="black">
<rect fill="white" width="0" height="0"/>
</mask>
<path d="M242.22 54.2197C241.927 54.5126 241.927 54.9874 242.22 55.2803L246.993 60.0533C247.286 60.3462 247.76 60.3462 248.053 60.0533C248.346 59.7604 248.346 59.2855 248.053 58.9926L243.811 54.75L248.053 50.5074C248.346 50.2145 248.346 49.7396 248.053 49.4467C247.76 49.1538 247.286 49.1538 246.993 49.4467L242.22 54.2197ZM561.78 55.2803C562.073 54.9874 562.073 54.5126 561.78 54.2197L557.007 49.4467C556.714 49.1538 556.24 49.1538 555.947 49.4467C555.654 49.7396 555.654 50.2145 555.947 50.5074L560.189 54.75L555.947 58.9926C555.654 59.2855 555.654 59.7604 555.947 60.0533C556.24 60.3462 556.714 60.3462 557.007 60.0533L561.78 55.2803ZM242.75 55.5H561.25V54H242.75V55.5Z" fill="#0D69D4" mask="url(#)"/>
<rect x="242" y="121" width="320" height="6" fill="#C54600" fill-opacity="0.3"/>
<line x1="226" y1="121.5" x2="562" y2="121.5" stroke="#C54600"/>
<line x1="226" y1="126.5" x2="562" y2="126.5" stroke="#C54600"/>
<path d="M218.057 128.119C217.608 128.116 217.175 128.041 216.757 127.893C216.342 127.746 215.97 127.506 215.641 127.173C215.311 126.841 215.05 126.401 214.857 125.852C214.666 125.304 214.571 124.631 214.571 123.832C214.574 123.099 214.658 122.445 214.822 121.868C214.99 121.288 215.229 120.797 215.538 120.393C215.851 119.99 216.224 119.683 216.659 119.473C217.094 119.26 217.581 119.153 218.121 119.153C218.703 119.153 219.217 119.267 219.663 119.494C220.109 119.719 220.467 120.024 220.737 120.411C221.01 120.797 221.175 121.23 221.232 121.71H219.412C219.341 121.406 219.192 121.168 218.964 120.994C218.737 120.821 218.456 120.734 218.121 120.734C217.553 120.734 217.121 120.982 216.825 121.476C216.533 121.97 216.384 122.642 216.378 123.491H216.438C216.568 123.233 216.744 123.013 216.966 122.831C217.19 122.646 217.445 122.506 217.729 122.409C218.016 122.31 218.318 122.26 218.636 122.26C219.153 122.26 219.614 122.382 220.017 122.626C220.42 122.868 220.739 123.2 220.972 123.624C221.205 124.047 221.321 124.531 221.321 125.077C221.321 125.668 221.183 126.193 220.908 126.653C220.635 127.114 220.253 127.474 219.761 127.736C219.273 127.994 218.705 128.122 218.057 128.119ZM218.048 126.67C218.332 126.67 218.587 126.602 218.811 126.466C219.036 126.33 219.212 126.145 219.339 125.912C219.467 125.679 219.531 125.418 219.531 125.128C219.531 124.838 219.467 124.578 219.339 124.348C219.214 124.118 219.041 123.935 218.82 123.798C218.598 123.662 218.345 123.594 218.061 123.594C217.848 123.594 217.651 123.634 217.469 123.713C217.29 123.793 217.132 123.903 216.996 124.045C216.862 124.187 216.757 124.352 216.68 124.54C216.604 124.724 216.565 124.922 216.565 125.132C216.565 125.413 216.629 125.67 216.757 125.903C216.888 126.136 217.064 126.322 217.286 126.462C217.51 126.601 217.764 126.67 218.048 126.67Z" fill="#C54600"/>
<g clip-path="url(#clip5_893_10552)">
<g clip-path="url(#clip6_893_10552)">
<mask maskUnits="userSpaceOnUse" x="0" y="0" width="0" height="0" fill="black">
<rect fill="white" width="0" height="0"/>
</mask>
<path d="M234.854 93.1464C234.658 92.9512 234.342 92.9512 234.146 93.1464L230.964 96.3284C230.769 96.5237 230.769 96.8403 230.964 97.0355C231.16 97.2308 231.476 97.2308 231.672 97.0355L234.5 94.2071L237.328 97.0355C237.524 97.2308 237.84 97.2308 238.036 97.0355C238.231 96.8403 238.231 96.5237 238.036 96.3284L234.854 93.1464ZM234.146 111.354C234.342 111.549 234.658 111.549 234.854 111.354L238.036 108.172C238.231 107.976 238.231 107.66 238.036 107.464C237.84 107.269 237.524 107.269 237.328 107.464L234.5 110.293L231.672 107.464C231.476 107.269 231.16 107.269 230.964 107.464C230.769 107.66 230.769 107.976 230.964 108.172L234.146 111.354ZM234 93.5V111H235V93.5H234Z" fill="#0D69D4" mask="url(#)"/>
<mask maskUnits="userSpaceOnUse" x="0" y="0" width="0" height="0" fill="black">
<rect fill="white" width="0" height="0"/>
</mask>
<path d="M234.854 112.646C234.658 112.451 234.342 112.451 234.146 112.646L230.964 115.828C230.769 116.024 230.769 116.34 230.964 116.536C231.16 116.731 231.476 116.731 231.672 116.536L234.5 113.707L237.328 116.536C237.524 116.731 237.84 116.731 238.036 116.536C238.231 116.34 238.231 116.024 238.036 115.828L234.854 112.646ZM234.146 130.854C234.342 131.049 234.658 131.049 234.854 130.854L238.036 127.672C238.231 127.476 238.231 127.16 238.036 126.964C237.84 126.769 237.524 126.769 237.328 126.964L234.5 129.793L231.672 126.964C231.476 126.769 231.16 126.769 230.964 126.964C230.769 127.16 230.769 127.476 230.964 127.672L234.146 130.854ZM234 113V130.5H235V113H234Z" fill="#0D69D4" mask="url(#)"/>
</g>
</g>
<rect x="242" y="103" width="31" height="18" fill="#0D69D4" fill-opacity="0.2"/>
<g clip-path="url(#clip7_893_10552)">
<g clip-path="url(#clip8_893_10552)">
<mask maskUnits="userSpaceOnUse" x="0" y="0" width="0" height="0" fill="black">
<rect fill="white" width="0" height="0"/>
</mask>
<path d="M234.854 117.146C234.658 116.951 234.342 116.951 234.146 117.146L230.964 120.328C230.769 120.524 230.769 120.84 230.964 121.036C231.16 121.231 231.476 121.231 231.672 121.036L234.5 118.207L237.328 121.036C237.524 121.231 237.84 121.231 238.036 121.036C238.231 120.84 238.231 120.524 238.036 120.328L234.854 117.146ZM234.146 144.354C234.342 144.549 234.658 144.549 234.854 144.354L238.036 141.172C238.231 140.976 238.231 140.66 238.036 140.464C237.84 140.269 237.524 140.269 237.328 140.464L234.5 143.293L231.672 140.464C231.476 140.269 231.16 140.269 230.964 140.464C230.769 140.66 230.769 140.976 230.964 141.172L234.146 144.354ZM234 117.5V144H235V117.5H234Z" fill="#0D69D4" mask="url(#)"/>
<mask maskUnits="userSpaceOnUse" x="0" y="0" width="0" height="0" fill="black">
<rect fill="white" width="0" height="0"/>
</mask>
<path d="M234.854 145.646C234.658 145.451 234.342 145.451 234.146 145.646L230.964 148.828C230.769 149.024 230.769 149.34 230.964 149.536C231.16 149.731 231.476 149.731 231.672 149.536L234.5 146.707L237.328 149.536C237.524 149.731 237.84 149.731 238.036 149.536C238.231 149.34 238.231 149.024 238.036 148.828L234.854 145.646ZM234.146 172.854C234.342 173.049 234.658 173.049 234.854 172.854L238.036 169.672C238.231 169.476 238.231 169.16 238.036 168.964C237.84 168.769 237.524 168.769 237.328 168.964L234.5 171.793L231.672 168.964C231.476 168.769 231.16 168.769 230.964 168.964C230.769 169.16 230.769 169.476 230.964 169.672L234.146 172.854ZM234 146V172.5H235V146H234Z" fill="#0D69D4" mask="url(#)"/>
</g>
</g>
<rect x="242" y="127" width="320" height="36" fill="#0D69D4" fill-opacity="0.2"/>
<defs>
<clipPath id="clip0_893_10552">
<rect width="16" height="16" fill="white" transform="translate(534 137)"/>
</clipPath>
<clipPath id="clip1_893_10552">
<rect width="16" height="16" fill="white" transform="translate(534 137)"/>
</clipPath>
<clipPath id="clip2_893_10552">
<rect width="16" height="16" fill="white" transform="matrix(0 1 -1 0 202 63)"/>
</clipPath>
<clipPath id="clip3_893_10552">
<rect width="60" height="16" fill="white" transform="matrix(0 1 -1 0 202 103)"/>
</clipPath>
<clipPath id="clip4_893_10552">
<rect width="80" height="16" fill="white" transform="matrix(0 1 -1 0 202 93)"/>
</clipPath>
<clipPath id="clip5_893_10552">
<rect width="18" height="16" fill="white" transform="matrix(0 1 -1 0 242 103)"/>
</clipPath>
<clipPath id="clip6_893_10552">
<rect width="38" height="16" fill="white" transform="matrix(0 1 -1 0 242 93)"/>
</clipPath>
<clipPath id="clip7_893_10552">
<rect width="36" height="16" fill="white" transform="matrix(0 1 -1 0 242 127)"/>
</clipPath>
<clipPath id="clip8_893_10552">
<rect width="56" height="16" fill="white" transform="matrix(0 1 -1 0 242 117)"/>
</clipPath>
</defs>
</svg>
