<svg width="804" height="232" viewBox="0 0 804 232" fill="none" xmlns="http://www.w3.org/2000/svg">
<rect width="804" height="232" fill="#F9FAFB"/>
<g opacity="0.2">
<path d="M242.959 106V97.2727H248.43V98.4062H244.276V101.065H248.145V102.195H244.276V104.866H248.482V106H242.959ZM250.087 106V99.4545H251.31V100.52H251.391C251.527 100.159 251.75 99.8778 252.06 99.6761C252.37 99.4716 252.74 99.3693 253.172 99.3693C253.61 99.3693 253.976 99.4716 254.272 99.6761C254.57 99.8807 254.79 100.162 254.932 100.52H255C255.157 100.17 255.405 99.892 255.746 99.6847C256.087 99.4744 256.493 99.3693 256.965 99.3693C257.559 99.3693 258.043 99.5554 258.418 99.9276C258.796 100.3 258.985 100.861 258.985 101.611V106H257.711V101.73C257.711 101.287 257.59 100.966 257.348 100.767C257.107 100.568 256.819 100.469 256.483 100.469C256.069 100.469 255.746 100.597 255.516 100.852C255.286 101.105 255.171 101.43 255.171 101.828V106H253.901V101.649C253.901 101.294 253.79 101.009 253.569 100.793C253.347 100.577 253.059 100.469 252.703 100.469C252.462 100.469 252.239 100.533 252.034 100.661C251.833 100.786 251.669 100.96 251.544 101.185C251.422 101.409 251.361 101.669 251.361 101.964V106H250.087ZM262.597 106.145C262.183 106.145 261.808 106.068 261.472 105.915C261.137 105.759 260.871 105.533 260.675 105.237C260.482 104.942 260.386 104.58 260.386 104.151C260.386 103.781 260.457 103.477 260.599 103.239C260.741 103 260.933 102.811 261.174 102.672C261.415 102.533 261.685 102.428 261.984 102.357C262.282 102.286 262.586 102.232 262.896 102.195C263.288 102.149 263.606 102.112 263.85 102.084C264.094 102.053 264.272 102.003 264.383 101.935C264.494 101.866 264.549 101.756 264.549 101.602V101.572C264.549 101.2 264.444 100.912 264.234 100.707C264.026 100.503 263.717 100.401 263.305 100.401C262.876 100.401 262.538 100.496 262.29 100.686C262.046 100.874 261.877 101.082 261.783 101.312L260.586 101.04C260.728 100.642 260.935 100.321 261.208 100.077C261.484 99.8295 261.8 99.6506 262.158 99.5398C262.516 99.4261 262.893 99.3693 263.288 99.3693C263.549 99.3693 263.826 99.4006 264.119 99.4631C264.414 99.5227 264.69 99.6335 264.945 99.7955C265.204 99.9574 265.415 100.189 265.58 100.49C265.745 100.788 265.827 101.176 265.827 101.653V106H264.583V105.105H264.532C264.45 105.27 264.326 105.432 264.161 105.591C263.996 105.75 263.785 105.882 263.526 105.987C263.268 106.092 262.958 106.145 262.597 106.145ZM262.874 105.122C263.227 105.122 263.528 105.053 263.778 104.913C264.031 104.774 264.222 104.592 264.353 104.368C264.487 104.141 264.553 103.898 264.553 103.639V102.795C264.508 102.841 264.42 102.884 264.289 102.923C264.161 102.96 264.015 102.993 263.85 103.021C263.685 103.047 263.525 103.071 263.369 103.094C263.212 103.114 263.082 103.131 262.977 103.145C262.729 103.176 262.504 103.229 262.299 103.303C262.097 103.376 261.935 103.483 261.813 103.622C261.694 103.759 261.634 103.94 261.634 104.168C261.634 104.483 261.751 104.722 261.984 104.884C262.217 105.043 262.513 105.122 262.874 105.122ZM267.525 106V99.4545H268.799V106H267.525ZM268.168 98.4446C267.946 98.4446 267.756 98.3707 267.597 98.223C267.441 98.0724 267.363 97.8935 267.363 97.6861C267.363 97.4759 267.441 97.2969 267.597 97.1491C267.756 96.9986 267.946 96.9233 268.168 96.9233C268.39 96.9233 268.578 96.9986 268.735 97.1491C268.894 97.2969 268.973 97.4759 268.973 97.6861C268.973 97.8935 268.894 98.0724 268.735 98.223C268.578 98.3707 268.39 98.4446 268.168 98.4446ZM271.787 97.2727V106H270.513V97.2727H271.787Z" fill="#344054"/>
<rect x="242.5" y="115.5" width="319" height="35" rx="2.5" fill="white"/>
<path d="M272.335 127.999C272.335 127.082 271.585 126.332 270.668 126.332H257.335C256.418 126.332 255.668 127.082 255.668 127.999M272.335 127.999V137.999C272.335 138.915 271.585 139.665 270.668 139.665H257.335C256.418 139.665 255.668 138.915 255.668 137.999V127.999M272.335 127.999L264.001 133.832L255.668 127.999" stroke="#959BA3" stroke-width="1.66667" stroke-linecap="round" stroke-linejoin="round"/>
<path d="M285.878 138.148C285.238 138.148 284.676 137.995 284.193 137.691C283.713 137.386 283.337 136.96 283.066 136.412C282.799 135.864 282.665 135.224 282.665 134.491C282.665 133.753 282.799 133.108 283.066 132.557C283.337 132.006 283.713 131.578 284.193 131.274C284.676 130.969 285.238 130.817 285.878 130.817C286.518 130.817 287.078 130.969 287.558 131.274C288.041 131.578 288.417 132.006 288.685 132.557C288.955 133.108 289.091 133.753 289.091 134.491C289.091 135.224 288.955 135.864 288.685 136.412C288.417 136.96 288.041 137.386 287.558 137.691C287.078 137.995 286.518 138.148 285.878 138.148ZM285.878 137.169C286.364 137.169 286.764 137.044 287.078 136.795C287.392 136.546 287.624 136.218 287.775 135.812C287.926 135.406 288.001 134.965 288.001 134.491C288.001 134.018 287.926 133.576 287.775 133.167C287.624 132.757 287.392 132.426 287.078 132.174C286.764 131.922 286.364 131.795 285.878 131.795C285.392 131.795 284.991 131.922 284.678 132.174C284.364 132.426 284.131 132.757 283.98 133.167C283.83 133.576 283.754 134.018 283.754 134.491C283.754 134.965 283.83 135.406 283.98 135.812C284.131 136.218 284.364 136.546 284.678 136.795C284.991 137.044 285.392 137.169 285.878 137.169ZM291.843 128.545V138H290.754V128.545H291.843ZM293.839 138V130.909H294.928V138H293.839ZM294.393 129.727C294.181 129.727 293.997 129.655 293.844 129.51C293.693 129.366 293.617 129.192 293.617 128.989C293.617 128.786 293.693 128.612 293.844 128.467C293.997 128.322 294.181 128.25 294.393 128.25C294.605 128.25 294.787 128.322 294.938 128.467C295.092 128.612 295.169 128.786 295.169 128.989C295.169 129.192 295.092 129.366 294.938 129.51C294.787 129.655 294.605 129.727 294.393 129.727ZM302.722 130.909L300.1 138H298.992L296.37 130.909H297.552L299.509 136.56H299.583L301.54 130.909H302.722ZM304.16 138V130.909H305.25V138H304.16ZM304.714 129.727C304.502 129.727 304.319 129.655 304.165 129.51C304.014 129.366 303.939 129.192 303.939 128.989C303.939 128.786 304.014 128.612 304.165 128.467C304.319 128.322 304.502 128.25 304.714 128.25C304.927 128.25 305.108 128.322 305.259 128.467C305.413 128.612 305.49 128.786 305.49 128.989C305.49 129.192 305.413 129.366 305.259 129.51C305.108 129.655 304.927 129.727 304.714 129.727ZM309.332 138.166C308.883 138.166 308.475 138.082 308.108 137.912C307.742 137.74 307.451 137.492 307.236 137.169C307.021 136.843 306.913 136.449 306.913 135.987C306.913 135.581 306.993 135.252 307.153 134.999C307.313 134.744 307.527 134.544 307.795 134.399C308.062 134.254 308.358 134.147 308.681 134.076C309.007 134.002 309.335 133.944 309.664 133.901C310.095 133.845 310.444 133.804 310.712 133.776C310.983 133.745 311.18 133.694 311.303 133.624C311.429 133.553 311.492 133.43 311.492 133.254V133.217C311.492 132.762 311.368 132.408 311.118 132.156C310.872 131.903 310.498 131.777 309.997 131.777C309.477 131.777 309.069 131.891 308.773 132.119C308.478 132.346 308.27 132.589 308.15 132.848L307.116 132.479C307.301 132.048 307.547 131.712 307.855 131.472C308.165 131.229 308.504 131.06 308.87 130.964C309.24 130.866 309.603 130.817 309.96 130.817C310.187 130.817 310.449 130.844 310.744 130.9C311.043 130.952 311.331 131.061 311.608 131.228C311.888 131.394 312.12 131.645 312.305 131.98C312.49 132.316 312.582 132.765 312.582 133.328V138H311.492V137.04H311.437C311.363 137.194 311.24 137.358 311.068 137.534C310.895 137.709 310.666 137.858 310.38 137.982C310.094 138.105 309.744 138.166 309.332 138.166ZM309.498 137.188C309.929 137.188 310.292 137.103 310.588 136.934C310.886 136.764 311.111 136.546 311.262 136.278C311.415 136.01 311.492 135.729 311.492 135.433V134.436C311.446 134.491 311.345 134.542 311.188 134.588C311.034 134.632 310.855 134.67 310.652 134.704C310.452 134.735 310.257 134.762 310.066 134.787C309.878 134.808 309.726 134.827 309.609 134.842C309.326 134.879 309.061 134.939 308.815 135.022C308.572 135.102 308.375 135.224 308.224 135.387C308.076 135.547 308.002 135.766 308.002 136.043C308.002 136.421 308.142 136.707 308.422 136.901C308.706 137.092 309.064 137.188 309.498 137.188ZM320.018 140.493C319.076 140.493 318.244 140.364 317.52 140.105C316.797 139.85 316.189 139.473 315.697 138.974C315.204 138.475 314.832 137.865 314.58 137.141C314.327 136.418 314.201 135.59 314.201 134.658C314.201 133.756 314.329 132.95 314.584 132.239C314.843 131.528 315.217 130.924 315.706 130.429C316.198 129.93 316.796 129.55 317.497 129.289C318.202 129.027 318.999 128.896 319.889 128.896C320.753 128.896 321.511 129.038 322.16 129.321C322.812 129.601 323.357 129.981 323.794 130.461C324.234 130.938 324.564 131.475 324.782 132.072C325.004 132.67 325.114 133.285 325.114 133.919C325.114 134.365 325.093 134.818 325.05 135.276C325.007 135.735 324.916 136.156 324.777 136.541C324.639 136.923 324.425 137.231 324.136 137.464C323.85 137.698 323.462 137.815 322.972 137.815C322.757 137.815 322.52 137.781 322.261 137.714C322.003 137.646 321.774 137.534 321.574 137.377C321.374 137.22 321.255 137.009 321.218 136.744H321.163C321.089 136.923 320.975 137.092 320.821 137.252C320.67 137.412 320.472 137.54 320.226 137.635C319.982 137.731 319.685 137.772 319.335 137.76C318.935 137.745 318.582 137.655 318.277 137.492C317.973 137.326 317.717 137.101 317.511 136.818C317.308 136.532 317.154 136.201 317.049 135.826C316.948 135.447 316.897 135.039 316.897 134.602C316.897 134.187 316.959 133.807 317.082 133.462C317.205 133.117 317.376 132.816 317.594 132.557C317.816 132.299 318.074 132.092 318.37 131.939C318.668 131.782 318.99 131.685 319.335 131.648C319.642 131.617 319.922 131.631 320.175 131.689C320.427 131.745 320.635 131.829 320.798 131.943C320.961 132.054 321.064 132.177 321.107 132.312H321.163V131.795H322.141V135.969C322.141 136.227 322.214 136.455 322.358 136.652C322.503 136.849 322.714 136.947 322.991 136.947C323.305 136.947 323.545 136.84 323.711 136.624C323.88 136.409 323.996 136.076 324.057 135.627C324.122 135.178 324.154 134.602 324.154 133.901C324.154 133.488 324.097 133.082 323.983 132.682C323.873 132.279 323.703 131.902 323.476 131.551C323.251 131.2 322.966 130.891 322.622 130.623C322.277 130.355 321.872 130.146 321.407 129.995C320.946 129.841 320.421 129.764 319.833 129.764C319.11 129.764 318.462 129.877 317.89 130.101C317.32 130.323 316.836 130.647 316.435 131.075C316.038 131.5 315.735 132.017 315.526 132.626C315.32 133.233 315.217 133.922 315.217 134.695C315.217 135.479 315.32 136.176 315.526 136.786C315.735 137.395 316.043 137.909 316.449 138.328C316.859 138.746 317.365 139.063 317.968 139.279C318.571 139.497 319.267 139.607 320.055 139.607C320.393 139.607 320.727 139.574 321.057 139.51C321.386 139.445 321.677 139.374 321.929 139.297C322.181 139.22 322.363 139.163 322.474 139.126L322.732 139.976C322.542 140.056 322.292 140.136 321.984 140.216C321.68 140.296 321.354 140.362 321.006 140.414C320.661 140.467 320.332 140.493 320.018 140.493ZM319.482 136.818C319.895 136.818 320.229 136.735 320.484 136.569C320.74 136.403 320.926 136.152 321.043 135.816C321.16 135.481 321.218 135.058 321.218 134.547C321.218 134.03 321.153 133.627 321.024 133.337C320.895 133.048 320.704 132.845 320.452 132.728C320.199 132.611 319.889 132.553 319.519 132.553C319.168 132.553 318.868 132.645 318.619 132.83C318.373 133.011 318.184 133.254 318.051 133.559C317.922 133.861 317.857 134.19 317.857 134.547C317.857 134.941 317.91 135.312 318.014 135.659C318.119 136.004 318.29 136.284 318.527 136.5C318.764 136.712 319.082 136.818 319.482 136.818ZM331.214 135.101V130.909H332.303V138H331.214V136.8H331.14C330.974 137.16 330.715 137.466 330.365 137.718C330.014 137.968 329.57 138.092 329.035 138.092C328.592 138.092 328.198 137.995 327.853 137.801C327.508 137.605 327.238 137.309 327.041 136.915C326.844 136.518 326.745 136.018 326.745 135.415V130.909H327.835V135.341C327.835 135.858 327.979 136.27 328.269 136.578C328.561 136.886 328.933 137.04 329.386 137.04C329.657 137.04 329.932 136.971 330.212 136.832C330.495 136.694 330.732 136.481 330.923 136.195C331.117 135.909 331.214 135.544 331.214 135.101ZM335.388 133.734V138H334.299V130.909H335.351V132.017H335.444C335.61 131.657 335.862 131.368 336.201 131.149C336.539 130.928 336.976 130.817 337.512 130.817C337.992 130.817 338.412 130.915 338.772 131.112C339.132 131.306 339.412 131.602 339.612 131.999C339.813 132.393 339.913 132.891 339.913 133.494V138H338.823V133.568C338.823 133.011 338.678 132.577 338.389 132.266C338.1 131.952 337.703 131.795 337.198 131.795C336.85 131.795 336.539 131.871 336.266 132.022C335.995 132.172 335.781 132.393 335.624 132.682C335.467 132.971 335.388 133.322 335.388 133.734ZM344.987 130.909V131.832H341.312V130.909H344.987ZM342.384 129.21H343.473V135.969C343.473 136.277 343.518 136.507 343.607 136.661C343.699 136.812 343.816 136.914 343.958 136.966C344.102 137.015 344.255 137.04 344.415 137.04C344.535 137.04 344.633 137.034 344.71 137.021C344.787 137.006 344.849 136.994 344.895 136.984L345.116 137.963C345.043 137.991 344.94 138.018 344.807 138.046C344.675 138.077 344.507 138.092 344.304 138.092C343.996 138.092 343.695 138.026 343.399 137.894C343.107 137.761 342.864 137.56 342.67 137.289C342.479 137.018 342.384 136.677 342.384 136.264V129.21ZM346.626 138V130.909H347.716V138H346.626ZM347.18 129.727C346.968 129.727 346.785 129.655 346.631 129.51C346.48 129.366 346.404 129.192 346.404 128.989C346.404 128.786 346.48 128.612 346.631 128.467C346.785 128.322 346.968 128.25 347.18 128.25C347.392 128.25 347.574 128.322 347.725 128.467C347.879 128.612 347.956 128.786 347.956 128.989C347.956 129.192 347.879 129.366 347.725 129.51C347.574 129.655 347.392 129.727 347.18 129.727ZM352.795 130.909V131.832H349.12V130.909H352.795ZM350.191 129.21H351.281V135.969C351.281 136.277 351.325 136.507 351.415 136.661C351.507 136.812 351.624 136.914 351.765 136.966C351.91 137.015 352.062 137.04 352.222 137.04C352.342 137.04 352.441 137.034 352.518 137.021C352.595 137.006 352.656 136.994 352.703 136.984L352.924 137.963C352.85 137.991 352.747 138.018 352.615 138.046C352.482 138.077 352.315 138.092 352.112 138.092C351.804 138.092 351.502 138.026 351.207 137.894C350.914 137.761 350.671 137.56 350.477 137.289C350.287 137.018 350.191 136.677 350.191 136.264V129.21ZM355.676 128.545V138H354.586V128.545H355.676ZM360.644 138.148C359.961 138.148 359.371 137.997 358.876 137.695C358.383 137.391 358.003 136.966 357.736 136.421C357.471 135.873 357.339 135.236 357.339 134.51C357.339 133.784 357.471 133.143 357.736 132.589C358.003 132.032 358.376 131.598 358.853 131.288C359.333 130.974 359.893 130.817 360.533 130.817C360.903 130.817 361.267 130.878 361.627 131.001C361.987 131.125 362.315 131.325 362.611 131.602C362.906 131.875 363.142 132.239 363.317 132.691C363.492 133.143 363.58 133.701 363.58 134.362V134.824H358.114V133.882H362.472C362.472 133.482 362.392 133.125 362.232 132.811C362.075 132.497 361.85 132.249 361.558 132.068C361.269 131.886 360.927 131.795 360.533 131.795C360.099 131.795 359.724 131.903 359.407 132.119C359.093 132.331 358.851 132.608 358.682 132.95C358.513 133.291 358.428 133.657 358.428 134.048V134.676C358.428 135.212 358.52 135.666 358.705 136.038C358.893 136.407 359.153 136.689 359.485 136.883C359.818 137.074 360.204 137.169 360.644 137.169C360.93 137.169 361.189 137.129 361.42 137.049C361.653 136.966 361.855 136.843 362.024 136.68C362.194 136.513 362.324 136.307 362.417 136.061L363.469 136.357C363.358 136.714 363.172 137.027 362.911 137.298C362.649 137.566 362.326 137.775 361.941 137.926C361.557 138.074 361.124 138.148 360.644 138.148ZM367.915 138.148C367.324 138.148 366.802 137.998 366.35 137.7C365.898 137.398 365.544 136.974 365.288 136.426C365.033 135.875 364.905 135.224 364.905 134.473C364.905 133.728 365.033 133.082 365.288 132.534C365.544 131.986 365.899 131.563 366.355 131.265C366.81 130.966 367.336 130.817 367.933 130.817C368.395 130.817 368.76 130.894 369.028 131.048C369.298 131.198 369.505 131.371 369.646 131.565C369.791 131.755 369.903 131.912 369.983 132.036H370.075V128.545H371.165V138H370.112V136.911H369.983C369.903 137.04 369.789 137.203 369.642 137.4C369.494 137.594 369.283 137.768 369.009 137.922C368.735 138.072 368.37 138.148 367.915 138.148ZM368.063 137.169C368.5 137.169 368.869 137.055 369.171 136.827C369.472 136.597 369.702 136.278 369.858 135.872C370.015 135.462 370.094 134.99 370.094 134.455C370.094 133.925 370.017 133.462 369.863 133.065C369.709 132.665 369.481 132.354 369.18 132.132C368.878 131.908 368.506 131.795 368.063 131.795C367.601 131.795 367.216 131.914 366.909 132.151C366.604 132.385 366.375 132.703 366.221 133.107C366.07 133.507 365.994 133.956 365.994 134.455C365.994 134.959 366.071 135.418 366.225 135.83C366.382 136.24 366.613 136.566 366.918 136.809C367.226 137.049 367.607 137.169 368.063 137.169ZM377.78 135.101V130.909H378.87V138H377.78V136.8H377.706C377.54 137.16 377.282 137.466 376.931 137.718C376.58 137.968 376.137 138.092 375.601 138.092C375.158 138.092 374.764 137.995 374.42 137.801C374.075 137.605 373.804 137.309 373.607 136.915C373.41 136.518 373.312 136.018 373.312 135.415V130.909H374.401V135.341C374.401 135.858 374.546 136.27 374.835 136.578C375.127 136.886 375.5 137.04 375.952 137.04C376.223 137.04 376.499 136.971 376.779 136.832C377.062 136.694 377.299 136.481 377.49 136.195C377.683 135.909 377.78 135.544 377.78 135.101ZM380.865 138V130.909H381.955V138H380.865ZM381.419 129.727C381.207 129.727 381.024 129.655 380.87 129.51C380.719 129.366 380.644 129.192 380.644 128.989C380.644 128.786 380.719 128.612 380.87 128.467C381.024 128.322 381.207 128.25 381.419 128.25C381.632 128.25 381.813 128.322 381.964 128.467C382.118 128.612 382.195 128.786 382.195 128.989C382.195 129.192 382.118 129.366 381.964 129.51C381.813 129.655 381.632 129.727 381.419 129.727ZM384.744 138.074C384.517 138.074 384.321 137.992 384.158 137.829C383.995 137.666 383.913 137.471 383.913 137.243C383.913 137.015 383.995 136.82 384.158 136.657C384.321 136.493 384.517 136.412 384.744 136.412C384.972 136.412 385.167 136.493 385.331 136.657C385.494 136.82 385.575 137.015 385.575 137.243C385.575 137.394 385.537 137.532 385.46 137.658C385.386 137.785 385.286 137.886 385.16 137.963C385.037 138.037 384.898 138.074 384.744 138.074ZM390.411 138.148C389.746 138.148 389.174 137.991 388.694 137.677C388.214 137.363 387.844 136.931 387.586 136.38C387.327 135.829 387.198 135.199 387.198 134.491C387.198 133.771 387.33 133.136 387.595 132.585C387.863 132.031 388.235 131.598 388.712 131.288C389.192 130.974 389.752 130.817 390.393 130.817C390.891 130.817 391.34 130.909 391.741 131.094C392.141 131.278 392.468 131.537 392.724 131.869C392.979 132.202 393.138 132.589 393.199 133.033H392.11C392.027 132.71 391.842 132.423 391.556 132.174C391.273 131.922 390.891 131.795 390.411 131.795C389.986 131.795 389.614 131.906 389.294 132.128C388.977 132.346 388.729 132.656 388.551 133.056C388.375 133.453 388.287 133.919 388.287 134.455C388.287 135.002 388.374 135.479 388.546 135.886C388.721 136.292 388.968 136.607 389.285 136.832C389.605 137.057 389.98 137.169 390.411 137.169C390.694 137.169 390.951 137.12 391.182 137.021C391.413 136.923 391.608 136.781 391.768 136.597C391.928 136.412 392.042 136.19 392.11 135.932H393.199C393.138 136.35 392.985 136.727 392.742 137.063C392.502 137.395 392.184 137.66 391.787 137.857C391.393 138.051 390.934 138.148 390.411 138.148ZM397.673 138.148C397.033 138.148 396.471 137.995 395.988 137.691C395.508 137.386 395.132 136.96 394.861 136.412C394.594 135.864 394.46 135.224 394.46 134.491C394.46 133.753 394.594 133.108 394.861 132.557C395.132 132.006 395.508 131.578 395.988 131.274C396.471 130.969 397.033 130.817 397.673 130.817C398.313 130.817 398.873 130.969 399.353 131.274C399.836 131.578 400.212 132.006 400.48 132.557C400.75 133.108 400.886 133.753 400.886 134.491C400.886 135.224 400.75 135.864 400.48 136.412C400.212 136.96 399.836 137.386 399.353 137.691C398.873 137.995 398.313 138.148 397.673 138.148ZM397.673 137.169C398.159 137.169 398.559 137.044 398.873 136.795C399.187 136.546 399.419 136.218 399.57 135.812C399.721 135.406 399.796 134.965 399.796 134.491C399.796 134.018 399.721 133.576 399.57 133.167C399.419 132.757 399.187 132.426 398.873 132.174C398.559 131.922 398.159 131.795 397.673 131.795C397.186 131.795 396.786 131.922 396.472 132.174C396.159 132.426 395.926 132.757 395.775 133.167C395.625 133.576 395.549 134.018 395.549 134.491C395.549 134.965 395.625 135.406 395.775 135.812C395.926 136.218 396.159 136.546 396.472 136.795C396.786 137.044 397.186 137.169 397.673 137.169ZM402.549 138V130.909H403.601V132.017H403.694C403.842 131.638 404.08 131.345 404.409 131.135C404.739 130.923 405.134 130.817 405.596 130.817C406.064 130.817 406.453 130.923 406.764 131.135C407.078 131.345 407.322 131.638 407.498 132.017H407.572C407.753 131.651 408.026 131.36 408.389 131.145C408.752 130.926 409.187 130.817 409.695 130.817C410.329 130.817 410.848 131.015 411.251 131.412C411.654 131.806 411.856 132.42 411.856 133.254V138H410.766V133.254C410.766 132.731 410.623 132.357 410.337 132.132C410.051 131.908 409.714 131.795 409.326 131.795C408.827 131.795 408.441 131.946 408.167 132.248C407.893 132.546 407.756 132.925 407.756 133.384V138H406.648V133.143C406.648 132.74 406.518 132.416 406.256 132.169C405.994 131.92 405.657 131.795 405.245 131.795C404.962 131.795 404.697 131.871 404.451 132.022C404.208 132.172 404.011 132.382 403.86 132.65C403.712 132.914 403.638 133.22 403.638 133.568V138H402.549Z" fill="#959BA3"/>
<g clip-path="url(#clip0_893_10586)">
<path d="M540.059 130.999C540.215 130.553 540.525 130.177 540.932 129.938C541.339 129.699 541.818 129.611 542.283 129.691C542.749 129.771 543.171 130.013 543.475 130.374C543.78 130.736 543.946 131.193 543.945 131.665C543.945 132.999 541.945 133.665 541.945 133.665M541.999 136.332H542.005M548.665 132.999C548.665 136.681 545.681 139.665 541.999 139.665C538.317 139.665 535.332 136.681 535.332 132.999C535.332 129.317 538.317 126.332 541.999 126.332C545.681 126.332 548.665 129.317 548.665 132.999Z" stroke="#B8BFC7" stroke-width="1.33333" stroke-linecap="round" stroke-linejoin="round"/>
</g>
<rect x="242.5" y="115.5" width="319" height="35" rx="2.5" stroke="#D8DEE9"/>
<path d="M242.58 160.21V159.273H249.125V160.21H246.381V168H245.324V160.21H242.58ZM251.625 164.062V168H250.62V159.273H251.625V162.477H251.711C251.864 162.139 252.094 161.871 252.401 161.672C252.711 161.47 253.123 161.369 253.637 161.369C254.083 161.369 254.473 161.459 254.809 161.638C255.144 161.814 255.404 162.085 255.588 162.452C255.776 162.815 255.87 163.278 255.87 163.841V168H254.864V163.909C254.864 163.389 254.729 162.987 254.459 162.703C254.192 162.416 253.821 162.273 253.347 162.273C253.017 162.273 252.722 162.342 252.461 162.482C252.202 162.621 251.998 162.824 251.847 163.091C251.699 163.358 251.625 163.682 251.625 164.062ZM257.71 168V161.455H258.715V168H257.71ZM258.221 160.364C258.025 160.364 257.856 160.297 257.714 160.163C257.575 160.03 257.505 159.869 257.505 159.682C257.505 159.494 257.575 159.334 257.714 159.2C257.856 159.067 258.025 159 258.221 159C258.417 159 258.585 159.067 258.724 159.2C258.866 159.334 258.937 159.494 258.937 159.682C258.937 159.869 258.866 160.03 258.724 160.163C258.585 160.297 258.417 160.364 258.221 160.364ZM265.194 162.92L264.29 163.176C264.233 163.026 264.15 162.879 264.039 162.737C263.931 162.592 263.783 162.473 263.596 162.379C263.408 162.286 263.168 162.239 262.875 162.239C262.475 162.239 262.141 162.331 261.874 162.516C261.61 162.697 261.478 162.929 261.478 163.21C261.478 163.46 261.569 163.658 261.75 163.803C261.932 163.947 262.216 164.068 262.603 164.165L263.574 164.403C264.159 164.545 264.596 164.763 264.882 165.055C265.169 165.345 265.313 165.719 265.313 166.176C265.313 166.551 265.205 166.886 264.989 167.182C264.776 167.477 264.478 167.71 264.094 167.881C263.711 168.051 263.265 168.136 262.756 168.136C262.088 168.136 261.536 167.991 261.098 167.702C260.661 167.412 260.384 166.989 260.267 166.432L261.222 166.193C261.313 166.545 261.485 166.81 261.738 166.986C261.993 167.162 262.327 167.25 262.739 167.25C263.208 167.25 263.58 167.151 263.855 166.952C264.134 166.75 264.273 166.509 264.273 166.227C264.273 166 264.194 165.81 264.034 165.656C263.875 165.5 263.631 165.384 263.301 165.307L262.211 165.051C261.611 164.909 261.171 164.689 260.89 164.391C260.611 164.089 260.472 163.713 260.472 163.261C260.472 162.892 260.576 162.565 260.783 162.281C260.993 161.997 261.279 161.774 261.64 161.612C262.003 161.45 262.415 161.369 262.875 161.369C263.523 161.369 264.032 161.511 264.401 161.795C264.773 162.08 265.037 162.455 265.194 162.92ZM270.202 168V161.455H271.207V168H270.202ZM270.713 160.364C270.517 160.364 270.348 160.297 270.206 160.163C270.067 160.03 269.997 159.869 269.997 159.682C269.997 159.494 270.067 159.334 270.206 159.2C270.348 159.067 270.517 159 270.713 159C270.909 159 271.077 159.067 271.216 159.2C271.358 159.334 271.429 159.494 271.429 159.682C271.429 159.869 271.358 160.03 271.216 160.163C271.077 160.297 270.909 160.364 270.713 160.364ZM277.686 162.92L276.782 163.176C276.725 163.026 276.642 162.879 276.531 162.737C276.423 162.592 276.275 162.473 276.088 162.379C275.9 162.286 275.66 162.239 275.368 162.239C274.967 162.239 274.633 162.331 274.366 162.516C274.102 162.697 273.97 162.929 273.97 163.21C273.97 163.46 274.061 163.658 274.243 163.803C274.424 163.947 274.708 164.068 275.095 164.165L276.066 164.403C276.652 164.545 277.088 164.763 277.375 165.055C277.662 165.345 277.805 165.719 277.805 166.176C277.805 166.551 277.697 166.886 277.481 167.182C277.268 167.477 276.97 167.71 276.586 167.881C276.203 168.051 275.757 168.136 275.248 168.136C274.581 168.136 274.028 167.991 273.591 167.702C273.153 167.412 272.876 166.989 272.76 166.432L273.714 166.193C273.805 166.545 273.977 166.81 274.23 166.986C274.485 167.162 274.819 167.25 275.231 167.25C275.7 167.25 276.072 167.151 276.348 166.952C276.626 166.75 276.765 166.509 276.765 166.227C276.765 166 276.686 165.81 276.527 165.656C276.368 165.5 276.123 165.384 275.794 165.307L274.703 165.051C274.103 164.909 273.663 164.689 273.382 164.391C273.103 164.089 272.964 163.713 272.964 163.261C272.964 162.892 273.068 162.565 273.275 162.281C273.485 161.997 273.771 161.774 274.132 161.612C274.495 161.45 274.907 161.369 275.368 161.369C276.015 161.369 276.524 161.511 276.893 161.795C277.265 162.08 277.529 162.455 277.686 162.92ZM284.62 168.153C284.205 168.153 283.829 168.075 283.491 167.919C283.153 167.76 282.884 167.531 282.685 167.233C282.487 166.932 282.387 166.568 282.387 166.142C282.387 165.767 282.461 165.463 282.609 165.23C282.756 164.994 282.954 164.81 283.201 164.676C283.448 164.543 283.721 164.443 284.019 164.378C284.32 164.31 284.623 164.256 284.927 164.216C285.325 164.165 285.647 164.126 285.894 164.101C286.144 164.072 286.326 164.026 286.44 163.96C286.556 163.895 286.614 163.781 286.614 163.619V163.585C286.614 163.165 286.499 162.838 286.269 162.605C286.042 162.372 285.697 162.256 285.234 162.256C284.754 162.256 284.377 162.361 284.104 162.571C283.832 162.781 283.64 163.006 283.529 163.244L282.575 162.903C282.745 162.506 282.972 162.196 283.256 161.974C283.543 161.75 283.856 161.594 284.194 161.506C284.535 161.415 284.87 161.369 285.2 161.369C285.41 161.369 285.651 161.395 285.924 161.446C286.2 161.494 286.465 161.595 286.721 161.749C286.979 161.902 287.194 162.134 287.364 162.443C287.535 162.753 287.62 163.168 287.62 163.688V168H286.614V167.114H286.563C286.495 167.256 286.381 167.408 286.222 167.57C286.063 167.732 285.852 167.869 285.587 167.983C285.323 168.097 285.001 168.153 284.62 168.153ZM284.773 167.25C285.171 167.25 285.506 167.172 285.779 167.016C286.055 166.859 286.262 166.658 286.401 166.411C286.543 166.163 286.614 165.903 286.614 165.631V164.71C286.572 164.761 286.478 164.808 286.333 164.851C286.191 164.891 286.026 164.926 285.839 164.957C285.654 164.986 285.474 165.011 285.298 165.034C285.124 165.054 284.984 165.071 284.876 165.085C284.614 165.119 284.37 165.175 284.143 165.251C283.918 165.325 283.737 165.437 283.597 165.588C283.461 165.736 283.393 165.937 283.393 166.193C283.393 166.543 283.522 166.807 283.781 166.986C284.042 167.162 284.373 167.25 284.773 167.25ZM293.836 164.062V168H292.831V159.273H293.836V162.477H293.922C294.075 162.139 294.305 161.871 294.612 161.672C294.922 161.47 295.333 161.369 295.848 161.369C296.294 161.369 296.684 161.459 297.02 161.638C297.355 161.814 297.615 162.085 297.799 162.452C297.987 162.815 298.081 163.278 298.081 163.841V168H297.075V163.909C297.075 163.389 296.94 162.987 296.67 162.703C296.403 162.416 296.032 162.273 295.558 162.273C295.228 162.273 294.933 162.342 294.672 162.482C294.413 162.621 294.208 162.824 294.058 163.091C293.91 163.358 293.836 163.682 293.836 164.062ZM299.92 168V161.455H300.926V168H299.92ZM300.432 160.364C300.236 160.364 300.067 160.297 299.925 160.163C299.786 160.03 299.716 159.869 299.716 159.682C299.716 159.494 299.786 159.334 299.925 159.2C300.067 159.067 300.236 159 300.432 159C300.628 159 300.795 159.067 300.935 159.2C301.077 159.334 301.148 159.494 301.148 159.682C301.148 159.869 301.077 160.03 300.935 160.163C300.795 160.297 300.628 160.364 300.432 160.364ZM303.774 164.062V168H302.768V161.455H303.74V162.477H303.825C303.978 162.145 304.211 161.878 304.524 161.676C304.836 161.472 305.24 161.369 305.734 161.369C306.177 161.369 306.565 161.46 306.897 161.642C307.23 161.821 307.488 162.094 307.673 162.46C307.858 162.824 307.95 163.284 307.95 163.841V168H306.944V163.909C306.944 163.395 306.811 162.994 306.544 162.707C306.277 162.418 305.91 162.273 305.444 162.273C305.123 162.273 304.836 162.342 304.583 162.482C304.333 162.621 304.136 162.824 303.991 163.091C303.846 163.358 303.774 163.682 303.774 164.062ZM312.634 161.455V162.307H309.242V161.455H312.634ZM310.231 159.886H311.237V166.125C311.237 166.409 311.278 166.622 311.36 166.764C311.445 166.903 311.553 166.997 311.684 167.045C311.817 167.091 311.958 167.114 312.106 167.114C312.217 167.114 312.308 167.108 312.379 167.097C312.45 167.082 312.506 167.071 312.549 167.062L312.754 167.966C312.685 167.991 312.59 168.017 312.468 168.043C312.346 168.071 312.191 168.085 312.004 168.085C311.719 168.085 311.441 168.024 311.168 167.902C310.898 167.78 310.674 167.594 310.495 167.344C310.319 167.094 310.231 166.778 310.231 166.398V159.886ZM320.369 161.455V162.307H316.977V161.455H320.369ZM317.965 159.886H318.971V166.125C318.971 166.409 319.012 166.622 319.094 166.764C319.18 166.903 319.288 166.997 319.418 167.045C319.552 167.091 319.692 167.114 319.84 167.114C319.951 167.114 320.042 167.108 320.113 167.097C320.184 167.082 320.241 167.071 320.283 167.062L320.488 167.966C320.42 167.991 320.325 168.017 320.202 168.043C320.08 168.071 319.925 168.085 319.738 168.085C319.454 168.085 319.175 168.024 318.903 167.902C318.633 167.78 318.408 167.594 318.229 167.344C318.053 167.094 317.965 166.778 317.965 166.398V159.886ZM324.555 168.136C323.925 168.136 323.381 167.997 322.923 167.719C322.469 167.438 322.118 167.045 321.871 166.543C321.626 166.037 321.504 165.449 321.504 164.778C321.504 164.108 321.626 163.517 321.871 163.006C322.118 162.491 322.462 162.091 322.902 161.804C323.345 161.514 323.862 161.369 324.453 161.369C324.794 161.369 325.131 161.426 325.463 161.54C325.795 161.653 326.098 161.838 326.371 162.094C326.643 162.347 326.861 162.682 327.023 163.099C327.185 163.517 327.266 164.031 327.266 164.642V165.068H322.22V164.199H326.243C326.243 163.83 326.169 163.5 326.021 163.21C325.876 162.92 325.669 162.692 325.399 162.524C325.132 162.357 324.817 162.273 324.453 162.273C324.053 162.273 323.706 162.372 323.413 162.571C323.124 162.767 322.901 163.023 322.744 163.338C322.588 163.653 322.51 163.991 322.51 164.352V164.932C322.51 165.426 322.595 165.845 322.766 166.189C322.939 166.53 323.179 166.79 323.486 166.969C323.793 167.145 324.149 167.233 324.555 167.233C324.82 167.233 325.058 167.196 325.271 167.122C325.487 167.045 325.673 166.932 325.83 166.781C325.986 166.628 326.107 166.437 326.192 166.21L327.163 166.483C327.061 166.812 326.889 167.102 326.648 167.352C326.406 167.599 326.108 167.793 325.753 167.932C325.398 168.068 324.999 168.136 324.555 168.136ZM329.37 161.455L330.938 164.131L332.506 161.455H333.665L331.551 164.727L333.665 168H332.506L330.938 165.46L329.37 168H328.211L330.29 164.727L328.211 161.455H329.37ZM337.947 161.455V162.307H334.555V161.455H337.947ZM335.543 159.886H336.549V166.125C336.549 166.409 336.59 166.622 336.673 166.764C336.758 166.903 336.866 166.997 336.996 167.045C337.13 167.091 337.271 167.114 337.418 167.114C337.529 167.114 337.62 167.108 337.691 167.097C337.762 167.082 337.819 167.071 337.862 167.062L338.066 167.966C337.998 167.991 337.903 168.017 337.781 168.043C337.658 168.071 337.504 168.085 337.316 168.085C337.032 168.085 336.754 168.024 336.481 167.902C336.211 167.78 335.987 167.594 335.808 167.344C335.631 167.094 335.543 166.778 335.543 166.398V159.886ZM345.681 161.455V162.307H342.289V161.455H345.681ZM343.278 159.886H344.283V166.125C344.283 166.409 344.325 166.622 344.407 166.764C344.492 166.903 344.6 166.997 344.731 167.045C344.864 167.091 345.005 167.114 345.153 167.114C345.263 167.114 345.354 167.108 345.425 167.097C345.496 167.082 345.553 167.071 345.596 167.062L345.8 167.966C345.732 167.991 345.637 168.017 345.515 168.043C345.393 168.071 345.238 168.085 345.05 168.085C344.766 168.085 344.488 168.024 344.215 167.902C343.945 167.78 343.721 167.594 343.542 167.344C343.366 167.094 343.278 166.778 343.278 166.398V159.886ZM349.783 168.136C349.192 168.136 348.673 167.996 348.227 167.714C347.784 167.433 347.438 167.04 347.188 166.534C346.94 166.028 346.817 165.437 346.817 164.761C346.817 164.08 346.94 163.484 347.188 162.976C347.438 162.467 347.784 162.072 348.227 161.791C348.673 161.51 349.192 161.369 349.783 161.369C350.374 161.369 350.891 161.51 351.334 161.791C351.78 162.072 352.126 162.467 352.374 162.976C352.624 163.484 352.749 164.08 352.749 164.761C352.749 165.437 352.624 166.028 352.374 166.534C352.126 167.04 351.78 167.433 351.334 167.714C350.891 167.996 350.374 168.136 349.783 168.136ZM349.783 167.233C350.232 167.233 350.601 167.118 350.891 166.888C351.18 166.658 351.395 166.355 351.534 165.98C351.673 165.605 351.743 165.199 351.743 164.761C351.743 164.324 351.673 163.916 351.534 163.538C351.395 163.161 351.18 162.855 350.891 162.622C350.601 162.389 350.232 162.273 349.783 162.273C349.334 162.273 348.964 162.389 348.675 162.622C348.385 162.855 348.17 163.161 348.031 163.538C347.892 163.916 347.822 164.324 347.822 164.761C347.822 165.199 347.892 165.605 348.031 165.98C348.17 166.355 348.385 166.658 348.675 166.888C348.964 167.118 349.334 167.233 349.783 167.233ZM358.664 164.062V168H357.659V159.273H358.664V162.477H358.75C358.903 162.139 359.133 161.871 359.44 161.672C359.75 161.47 360.162 161.369 360.676 161.369C361.122 161.369 361.512 161.459 361.848 161.638C362.183 161.814 362.443 162.085 362.627 162.452C362.815 162.815 362.909 163.278 362.909 163.841V168H361.903V163.909C361.903 163.389 361.768 162.987 361.498 162.703C361.231 162.416 360.86 162.273 360.386 162.273C360.056 162.273 359.761 162.342 359.5 162.482C359.241 162.621 359.037 162.824 358.886 163.091C358.738 163.358 358.664 163.682 358.664 164.062ZM367.493 168.136C366.862 168.136 366.318 167.997 365.861 167.719C365.406 167.438 365.055 167.045 364.808 166.543C364.564 166.037 364.442 165.449 364.442 164.778C364.442 164.108 364.564 163.517 364.808 163.006C365.055 162.491 365.399 162.091 365.839 161.804C366.283 161.514 366.8 161.369 367.391 161.369C367.732 161.369 368.068 161.426 368.401 161.54C368.733 161.653 369.036 161.838 369.308 162.094C369.581 162.347 369.798 162.682 369.96 163.099C370.122 163.517 370.203 164.031 370.203 164.642V165.068H365.158V164.199H369.18C369.18 163.83 369.107 163.5 368.959 163.21C368.814 162.92 368.607 162.692 368.337 162.524C368.07 162.357 367.754 162.273 367.391 162.273C366.99 162.273 366.643 162.372 366.351 162.571C366.061 162.767 365.838 163.023 365.682 163.338C365.526 163.653 365.447 163.991 365.447 164.352V164.932C365.447 165.426 365.533 165.845 365.703 166.189C365.876 166.53 366.116 166.79 366.423 166.969C366.73 167.145 367.087 167.233 367.493 167.233C367.757 167.233 367.996 167.196 368.209 167.122C368.425 167.045 368.611 166.932 368.767 166.781C368.923 166.628 369.044 166.437 369.129 166.21L370.101 166.483C369.999 166.812 369.827 167.102 369.585 167.352C369.344 167.599 369.045 167.793 368.69 167.932C368.335 168.068 367.936 168.136 367.493 168.136ZM372.739 159.273V168H371.733V159.273H372.739ZM374.581 170.455V161.455H375.552V162.494H375.672C375.745 162.381 375.848 162.236 375.978 162.06C376.112 161.881 376.302 161.722 376.549 161.582C376.799 161.44 377.137 161.369 377.564 161.369C378.115 161.369 378.6 161.507 379.021 161.783C379.441 162.058 379.77 162.449 380.005 162.955C380.241 163.46 380.359 164.057 380.359 164.744C380.359 165.438 380.241 166.038 380.005 166.547C379.77 167.053 379.443 167.445 379.025 167.723C378.608 167.999 378.126 168.136 377.581 168.136C377.16 168.136 376.824 168.067 376.571 167.928C376.318 167.786 376.123 167.625 375.987 167.446C375.85 167.264 375.745 167.114 375.672 166.994H375.586V170.455H374.581ZM375.569 164.727C375.569 165.222 375.642 165.658 375.787 166.036C375.931 166.411 376.143 166.705 376.422 166.918C376.7 167.128 377.041 167.233 377.444 167.233C377.865 167.233 378.216 167.122 378.497 166.901C378.781 166.676 378.994 166.375 379.136 165.997C379.281 165.616 379.353 165.193 379.353 164.727C379.353 164.267 379.282 163.852 379.14 163.483C379.001 163.111 378.789 162.817 378.505 162.601C378.224 162.382 377.87 162.273 377.444 162.273C377.035 162.273 376.691 162.376 376.413 162.584C376.135 162.788 375.924 163.075 375.782 163.445C375.64 163.811 375.569 164.239 375.569 164.727ZM389.393 165.324V161.455H390.399V168H389.393V166.892H389.325C389.172 167.224 388.933 167.507 388.609 167.74C388.285 167.97 387.876 168.085 387.382 168.085C386.973 168.085 386.609 167.996 386.291 167.817C385.973 167.635 385.723 167.362 385.541 166.999C385.359 166.632 385.268 166.17 385.268 165.614V161.455H386.274V165.545C386.274 166.023 386.407 166.403 386.674 166.688C386.944 166.972 387.288 167.114 387.706 167.114C387.956 167.114 388.21 167.05 388.468 166.922C388.73 166.794 388.949 166.598 389.125 166.334C389.304 166.07 389.393 165.733 389.393 165.324ZM396.877 162.92L395.974 163.176C395.917 163.026 395.833 162.879 395.722 162.737C395.614 162.592 395.467 162.473 395.279 162.379C395.092 162.286 394.852 162.239 394.559 162.239C394.158 162.239 393.825 162.331 393.558 162.516C393.293 162.697 393.161 162.929 393.161 163.21C393.161 163.46 393.252 163.658 393.434 163.803C393.616 163.947 393.9 164.068 394.286 164.165L395.258 164.403C395.843 164.545 396.279 164.763 396.566 165.055C396.853 165.345 396.996 165.719 396.996 166.176C396.996 166.551 396.888 166.886 396.673 167.182C396.46 167.477 396.161 167.71 395.778 167.881C395.394 168.051 394.948 168.136 394.44 168.136C393.772 168.136 393.219 167.991 392.782 167.702C392.344 167.412 392.067 166.989 391.951 166.432L392.906 166.193C392.996 166.545 393.168 166.81 393.421 166.986C393.677 167.162 394.011 167.25 394.423 167.25C394.891 167.25 395.263 167.151 395.539 166.952C395.817 166.75 395.957 166.509 395.957 166.227C395.957 166 395.877 165.81 395.718 165.656C395.559 165.5 395.315 165.384 394.985 165.307L393.894 165.051C393.295 164.909 392.854 164.689 392.573 164.391C392.295 164.089 392.156 163.713 392.156 163.261C392.156 162.892 392.259 162.565 392.467 162.281C392.677 161.997 392.962 161.774 393.323 161.612C393.687 161.45 394.099 161.369 394.559 161.369C395.207 161.369 395.715 161.511 396.085 161.795C396.457 162.08 396.721 162.455 396.877 162.92ZM401.255 168.136C400.624 168.136 400.08 167.997 399.623 167.719C399.168 167.438 398.817 167.045 398.57 166.543C398.326 166.037 398.203 165.449 398.203 164.778C398.203 164.108 398.326 163.517 398.57 163.006C398.817 162.491 399.161 162.091 399.601 161.804C400.044 161.514 400.561 161.369 401.152 161.369C401.493 161.369 401.83 161.426 402.162 161.54C402.495 161.653 402.797 161.838 403.07 162.094C403.343 162.347 403.56 162.682 403.722 163.099C403.884 163.517 403.965 164.031 403.965 164.642V165.068H398.919V164.199H402.942C402.942 163.83 402.868 163.5 402.721 163.21C402.576 162.92 402.368 162.692 402.098 162.524C401.831 162.357 401.516 162.273 401.152 162.273C400.752 162.273 400.405 162.372 400.113 162.571C399.823 162.767 399.6 163.023 399.444 163.338C399.287 163.653 399.209 163.991 399.209 164.352V164.932C399.209 165.426 399.294 165.845 399.465 166.189C399.638 166.53 399.878 166.79 400.185 166.969C400.492 167.145 400.848 167.233 401.255 167.233C401.519 167.233 401.757 167.196 401.971 167.122C402.186 167.045 402.373 166.932 402.529 166.781C402.685 166.628 402.806 166.437 402.891 166.21L403.863 166.483C403.76 166.812 403.588 167.102 403.347 167.352C403.105 167.599 402.807 167.793 402.452 167.932C402.097 168.068 401.698 168.136 401.255 168.136ZM405.495 168V161.455H406.466V162.443H406.534C406.654 162.119 406.87 161.857 407.182 161.655C407.495 161.453 407.847 161.352 408.239 161.352C408.313 161.352 408.405 161.354 408.516 161.357C408.627 161.359 408.711 161.364 408.767 161.369V162.392C408.733 162.384 408.655 162.371 408.533 162.354C408.414 162.334 408.287 162.324 408.154 162.324C407.836 162.324 407.551 162.391 407.301 162.524C407.054 162.655 406.858 162.837 406.713 163.07C406.571 163.3 406.5 163.562 406.5 163.858V168H405.495ZM409.942 168.068C409.732 168.068 409.552 167.993 409.401 167.842C409.251 167.692 409.175 167.511 409.175 167.301C409.175 167.091 409.251 166.911 409.401 166.76C409.552 166.609 409.732 166.534 409.942 166.534C410.153 166.534 410.333 166.609 410.484 166.76C410.634 166.911 410.71 167.091 410.71 167.301C410.71 167.44 410.674 167.568 410.603 167.685C410.535 167.801 410.442 167.895 410.326 167.966C410.212 168.034 410.085 168.068 409.942 168.068Z" fill="#959BA3"/>
</g>
<rect x="242.5" y="115.5" width="319" height="35" rx="2.5" fill="white"/>
<path d="M272.335 127.999C272.335 127.082 271.585 126.332 270.668 126.332H257.335C256.418 126.332 255.668 127.082 255.668 127.999M272.335 127.999V137.999C272.335 138.915 271.585 139.665 270.668 139.665H257.335C256.418 139.665 255.668 138.915 255.668 137.999V127.999M272.335 127.999L264.001 133.832L255.668 127.999" stroke="#959BA3" stroke-width="1.66667" stroke-linecap="round" stroke-linejoin="round"/>
<path d="M285.878 138.148C285.238 138.148 284.676 137.995 284.193 137.691C283.713 137.386 283.337 136.96 283.066 136.412C282.799 135.864 282.665 135.224 282.665 134.491C282.665 133.753 282.799 133.108 283.066 132.557C283.337 132.006 283.713 131.578 284.193 131.274C284.676 130.969 285.238 130.817 285.878 130.817C286.518 130.817 287.078 130.969 287.558 131.274C288.041 131.578 288.417 132.006 288.685 132.557C288.955 133.108 289.091 133.753 289.091 134.491C289.091 135.224 288.955 135.864 288.685 136.412C288.417 136.96 288.041 137.386 287.558 137.691C287.078 137.995 286.518 138.148 285.878 138.148ZM285.878 137.169C286.364 137.169 286.764 137.044 287.078 136.795C287.392 136.546 287.624 136.218 287.775 135.812C287.926 135.406 288.001 134.965 288.001 134.491C288.001 134.018 287.926 133.576 287.775 133.167C287.624 132.757 287.392 132.426 287.078 132.174C286.764 131.922 286.364 131.795 285.878 131.795C285.392 131.795 284.991 131.922 284.678 132.174C284.364 132.426 284.131 132.757 283.98 133.167C283.83 133.576 283.754 134.018 283.754 134.491C283.754 134.965 283.83 135.406 283.98 135.812C284.131 136.218 284.364 136.546 284.678 136.795C284.991 137.044 285.392 137.169 285.878 137.169ZM291.843 128.545V138H290.754V128.545H291.843ZM293.839 138V130.909H294.928V138H293.839ZM294.393 129.727C294.181 129.727 293.997 129.655 293.844 129.51C293.693 129.366 293.617 129.192 293.617 128.989C293.617 128.786 293.693 128.612 293.844 128.467C293.997 128.322 294.181 128.25 294.393 128.25C294.605 128.25 294.787 128.322 294.938 128.467C295.092 128.612 295.169 128.786 295.169 128.989C295.169 129.192 295.092 129.366 294.938 129.51C294.787 129.655 294.605 129.727 294.393 129.727ZM302.722 130.909L300.1 138H298.992L296.37 130.909H297.552L299.509 136.56H299.583L301.54 130.909H302.722ZM304.16 138V130.909H305.25V138H304.16ZM304.714 129.727C304.502 129.727 304.319 129.655 304.165 129.51C304.014 129.366 303.939 129.192 303.939 128.989C303.939 128.786 304.014 128.612 304.165 128.467C304.319 128.322 304.502 128.25 304.714 128.25C304.927 128.25 305.108 128.322 305.259 128.467C305.413 128.612 305.49 128.786 305.49 128.989C305.49 129.192 305.413 129.366 305.259 129.51C305.108 129.655 304.927 129.727 304.714 129.727ZM309.332 138.166C308.883 138.166 308.475 138.082 308.108 137.912C307.742 137.74 307.451 137.492 307.236 137.169C307.021 136.843 306.913 136.449 306.913 135.987C306.913 135.581 306.993 135.252 307.153 134.999C307.313 134.744 307.527 134.544 307.795 134.399C308.062 134.254 308.358 134.147 308.681 134.076C309.007 134.002 309.335 133.944 309.664 133.901C310.095 133.845 310.444 133.804 310.712 133.776C310.983 133.745 311.18 133.694 311.303 133.624C311.429 133.553 311.492 133.43 311.492 133.254V133.217C311.492 132.762 311.368 132.408 311.118 132.156C310.872 131.903 310.498 131.777 309.997 131.777C309.477 131.777 309.069 131.891 308.773 132.119C308.478 132.346 308.27 132.589 308.15 132.848L307.116 132.479C307.301 132.048 307.547 131.712 307.855 131.472C308.165 131.229 308.504 131.06 308.87 130.964C309.24 130.866 309.603 130.817 309.96 130.817C310.187 130.817 310.449 130.844 310.744 130.9C311.043 130.952 311.331 131.061 311.608 131.228C311.888 131.394 312.12 131.645 312.305 131.98C312.49 132.316 312.582 132.765 312.582 133.328V138H311.492V137.04H311.437C311.363 137.194 311.24 137.358 311.068 137.534C310.895 137.709 310.666 137.858 310.38 137.982C310.094 138.105 309.744 138.166 309.332 138.166ZM309.498 137.188C309.929 137.188 310.292 137.103 310.588 136.934C310.886 136.764 311.111 136.546 311.262 136.278C311.415 136.01 311.492 135.729 311.492 135.433V134.436C311.446 134.491 311.345 134.542 311.188 134.588C311.034 134.632 310.855 134.67 310.652 134.704C310.452 134.735 310.257 134.762 310.066 134.787C309.878 134.808 309.726 134.827 309.609 134.842C309.326 134.879 309.061 134.939 308.815 135.022C308.572 135.102 308.375 135.224 308.224 135.387C308.076 135.547 308.002 135.766 308.002 136.043C308.002 136.421 308.142 136.707 308.422 136.901C308.706 137.092 309.064 137.188 309.498 137.188ZM320.018 140.493C319.076 140.493 318.244 140.364 317.52 140.105C316.797 139.85 316.189 139.473 315.697 138.974C315.204 138.475 314.832 137.865 314.58 137.141C314.327 136.418 314.201 135.59 314.201 134.658C314.201 133.756 314.329 132.95 314.584 132.239C314.843 131.528 315.217 130.924 315.706 130.429C316.198 129.93 316.796 129.55 317.497 129.289C318.202 129.027 318.999 128.896 319.889 128.896C320.753 128.896 321.511 129.038 322.16 129.321C322.812 129.601 323.357 129.981 323.794 130.461C324.234 130.938 324.564 131.475 324.782 132.072C325.004 132.67 325.114 133.285 325.114 133.919C325.114 134.365 325.093 134.818 325.05 135.276C325.007 135.735 324.916 136.156 324.777 136.541C324.639 136.923 324.425 137.231 324.136 137.464C323.85 137.698 323.462 137.815 322.972 137.815C322.757 137.815 322.52 137.781 322.261 137.714C322.003 137.646 321.774 137.534 321.574 137.377C321.374 137.22 321.255 137.009 321.218 136.744H321.163C321.089 136.923 320.975 137.092 320.821 137.252C320.67 137.412 320.472 137.54 320.226 137.635C319.982 137.731 319.685 137.772 319.335 137.76C318.935 137.745 318.582 137.655 318.277 137.492C317.973 137.326 317.717 137.101 317.511 136.818C317.308 136.532 317.154 136.201 317.049 135.826C316.948 135.447 316.897 135.039 316.897 134.602C316.897 134.187 316.959 133.807 317.082 133.462C317.205 133.117 317.376 132.816 317.594 132.557C317.816 132.299 318.074 132.092 318.37 131.939C318.668 131.782 318.99 131.685 319.335 131.648C319.642 131.617 319.922 131.631 320.175 131.689C320.427 131.745 320.635 131.829 320.798 131.943C320.961 132.054 321.064 132.177 321.107 132.312H321.163V131.795H322.141V135.969C322.141 136.227 322.214 136.455 322.358 136.652C322.503 136.849 322.714 136.947 322.991 136.947C323.305 136.947 323.545 136.84 323.711 136.624C323.88 136.409 323.996 136.076 324.057 135.627C324.122 135.178 324.154 134.602 324.154 133.901C324.154 133.488 324.097 133.082 323.983 132.682C323.873 132.279 323.703 131.902 323.476 131.551C323.251 131.2 322.966 130.891 322.622 130.623C322.277 130.355 321.872 130.146 321.407 129.995C320.946 129.841 320.421 129.764 319.833 129.764C319.11 129.764 318.462 129.877 317.89 130.101C317.32 130.323 316.836 130.647 316.435 131.075C316.038 131.5 315.735 132.017 315.526 132.626C315.32 133.233 315.217 133.922 315.217 134.695C315.217 135.479 315.32 136.176 315.526 136.786C315.735 137.395 316.043 137.909 316.449 138.328C316.859 138.746 317.365 139.063 317.968 139.279C318.571 139.497 319.267 139.607 320.055 139.607C320.393 139.607 320.727 139.574 321.057 139.51C321.386 139.445 321.677 139.374 321.929 139.297C322.181 139.22 322.363 139.163 322.474 139.126L322.732 139.976C322.542 140.056 322.292 140.136 321.984 140.216C321.68 140.296 321.354 140.362 321.006 140.414C320.661 140.467 320.332 140.493 320.018 140.493ZM319.482 136.818C319.895 136.818 320.229 136.735 320.484 136.569C320.74 136.403 320.926 136.152 321.043 135.816C321.16 135.481 321.218 135.058 321.218 134.547C321.218 134.03 321.153 133.627 321.024 133.337C320.895 133.048 320.704 132.845 320.452 132.728C320.199 132.611 319.889 132.553 319.519 132.553C319.168 132.553 318.868 132.645 318.619 132.83C318.373 133.011 318.184 133.254 318.051 133.559C317.922 133.861 317.857 134.19 317.857 134.547C317.857 134.941 317.91 135.312 318.014 135.659C318.119 136.004 318.29 136.284 318.527 136.5C318.764 136.712 319.082 136.818 319.482 136.818ZM331.214 135.101V130.909H332.303V138H331.214V136.8H331.14C330.974 137.16 330.715 137.466 330.365 137.718C330.014 137.968 329.57 138.092 329.035 138.092C328.592 138.092 328.198 137.995 327.853 137.801C327.508 137.605 327.238 137.309 327.041 136.915C326.844 136.518 326.745 136.018 326.745 135.415V130.909H327.835V135.341C327.835 135.858 327.979 136.27 328.269 136.578C328.561 136.886 328.933 137.04 329.386 137.04C329.657 137.04 329.932 136.971 330.212 136.832C330.495 136.694 330.732 136.481 330.923 136.195C331.117 135.909 331.214 135.544 331.214 135.101ZM335.388 133.734V138H334.299V130.909H335.351V132.017H335.444C335.61 131.657 335.862 131.368 336.201 131.149C336.539 130.928 336.976 130.817 337.512 130.817C337.992 130.817 338.412 130.915 338.772 131.112C339.132 131.306 339.412 131.602 339.612 131.999C339.813 132.393 339.913 132.891 339.913 133.494V138H338.823V133.568C338.823 133.011 338.678 132.577 338.389 132.266C338.1 131.952 337.703 131.795 337.198 131.795C336.85 131.795 336.539 131.871 336.266 132.022C335.995 132.172 335.781 132.393 335.624 132.682C335.467 132.971 335.388 133.322 335.388 133.734ZM344.987 130.909V131.832H341.312V130.909H344.987ZM342.384 129.21H343.473V135.969C343.473 136.277 343.518 136.507 343.607 136.661C343.699 136.812 343.816 136.914 343.958 136.966C344.102 137.015 344.255 137.04 344.415 137.04C344.535 137.04 344.633 137.034 344.71 137.021C344.787 137.006 344.849 136.994 344.895 136.984L345.116 137.963C345.043 137.991 344.94 138.018 344.807 138.046C344.675 138.077 344.507 138.092 344.304 138.092C343.996 138.092 343.695 138.026 343.399 137.894C343.107 137.761 342.864 137.56 342.67 137.289C342.479 137.018 342.384 136.677 342.384 136.264V129.21ZM346.626 138V130.909H347.716V138H346.626ZM347.18 129.727C346.968 129.727 346.785 129.655 346.631 129.51C346.48 129.366 346.404 129.192 346.404 128.989C346.404 128.786 346.48 128.612 346.631 128.467C346.785 128.322 346.968 128.25 347.18 128.25C347.392 128.25 347.574 128.322 347.725 128.467C347.879 128.612 347.956 128.786 347.956 128.989C347.956 129.192 347.879 129.366 347.725 129.51C347.574 129.655 347.392 129.727 347.18 129.727ZM352.795 130.909V131.832H349.12V130.909H352.795ZM350.191 129.21H351.281V135.969C351.281 136.277 351.325 136.507 351.415 136.661C351.507 136.812 351.624 136.914 351.765 136.966C351.91 137.015 352.062 137.04 352.222 137.04C352.342 137.04 352.441 137.034 352.518 137.021C352.595 137.006 352.656 136.994 352.703 136.984L352.924 137.963C352.85 137.991 352.747 138.018 352.615 138.046C352.482 138.077 352.315 138.092 352.112 138.092C351.804 138.092 351.502 138.026 351.207 137.894C350.914 137.761 350.671 137.56 350.477 137.289C350.287 137.018 350.191 136.677 350.191 136.264V129.21ZM355.676 128.545V138H354.586V128.545H355.676ZM360.644 138.148C359.961 138.148 359.371 137.997 358.876 137.695C358.383 137.391 358.003 136.966 357.736 136.421C357.471 135.873 357.339 135.236 357.339 134.51C357.339 133.784 357.471 133.143 357.736 132.589C358.003 132.032 358.376 131.598 358.853 131.288C359.333 130.974 359.893 130.817 360.533 130.817C360.903 130.817 361.267 130.878 361.627 131.001C361.987 131.125 362.315 131.325 362.611 131.602C362.906 131.875 363.142 132.239 363.317 132.691C363.492 133.143 363.58 133.701 363.58 134.362V134.824H358.114V133.882H362.472C362.472 133.482 362.392 133.125 362.232 132.811C362.075 132.497 361.85 132.249 361.558 132.068C361.269 131.886 360.927 131.795 360.533 131.795C360.099 131.795 359.724 131.903 359.407 132.119C359.093 132.331 358.851 132.608 358.682 132.95C358.513 133.291 358.428 133.657 358.428 134.048V134.676C358.428 135.212 358.52 135.666 358.705 136.038C358.893 136.407 359.153 136.689 359.485 136.883C359.818 137.074 360.204 137.169 360.644 137.169C360.93 137.169 361.189 137.129 361.42 137.049C361.653 136.966 361.855 136.843 362.024 136.68C362.194 136.513 362.324 136.307 362.417 136.061L363.469 136.357C363.358 136.714 363.172 137.027 362.911 137.298C362.649 137.566 362.326 137.775 361.941 137.926C361.557 138.074 361.124 138.148 360.644 138.148ZM367.915 138.148C367.324 138.148 366.802 137.998 366.35 137.7C365.898 137.398 365.544 136.974 365.288 136.426C365.033 135.875 364.905 135.224 364.905 134.473C364.905 133.728 365.033 133.082 365.288 132.534C365.544 131.986 365.899 131.563 366.355 131.265C366.81 130.966 367.336 130.817 367.933 130.817C368.395 130.817 368.76 130.894 369.028 131.048C369.298 131.198 369.505 131.371 369.646 131.565C369.791 131.755 369.903 131.912 369.983 132.036H370.075V128.545H371.165V138H370.112V136.911H369.983C369.903 137.04 369.789 137.203 369.642 137.4C369.494 137.594 369.283 137.768 369.009 137.922C368.735 138.072 368.37 138.148 367.915 138.148ZM368.063 137.169C368.5 137.169 368.869 137.055 369.171 136.827C369.472 136.597 369.702 136.278 369.858 135.872C370.015 135.462 370.094 134.99 370.094 134.455C370.094 133.925 370.017 133.462 369.863 133.065C369.709 132.665 369.481 132.354 369.18 132.132C368.878 131.908 368.506 131.795 368.063 131.795C367.601 131.795 367.216 131.914 366.909 132.151C366.604 132.385 366.375 132.703 366.221 133.107C366.07 133.507 365.994 133.956 365.994 134.455C365.994 134.959 366.071 135.418 366.225 135.83C366.382 136.24 366.613 136.566 366.918 136.809C367.226 137.049 367.607 137.169 368.063 137.169ZM377.78 135.101V130.909H378.87V138H377.78V136.8H377.706C377.54 137.16 377.282 137.466 376.931 137.718C376.58 137.968 376.137 138.092 375.601 138.092C375.158 138.092 374.764 137.995 374.42 137.801C374.075 137.605 373.804 137.309 373.607 136.915C373.41 136.518 373.312 136.018 373.312 135.415V130.909H374.401V135.341C374.401 135.858 374.546 136.27 374.835 136.578C375.127 136.886 375.5 137.04 375.952 137.04C376.223 137.04 376.499 136.971 376.779 136.832C377.062 136.694 377.299 136.481 377.49 136.195C377.683 135.909 377.78 135.544 377.78 135.101ZM380.865 138V130.909H381.955V138H380.865ZM381.419 129.727C381.207 129.727 381.024 129.655 380.87 129.51C380.719 129.366 380.644 129.192 380.644 128.989C380.644 128.786 380.719 128.612 380.87 128.467C381.024 128.322 381.207 128.25 381.419 128.25C381.632 128.25 381.813 128.322 381.964 128.467C382.118 128.612 382.195 128.786 382.195 128.989C382.195 129.192 382.118 129.366 381.964 129.51C381.813 129.655 381.632 129.727 381.419 129.727ZM384.744 138.074C384.517 138.074 384.321 137.992 384.158 137.829C383.995 137.666 383.913 137.471 383.913 137.243C383.913 137.015 383.995 136.82 384.158 136.657C384.321 136.493 384.517 136.412 384.744 136.412C384.972 136.412 385.167 136.493 385.331 136.657C385.494 136.82 385.575 137.015 385.575 137.243C385.575 137.394 385.537 137.532 385.46 137.658C385.386 137.785 385.286 137.886 385.16 137.963C385.037 138.037 384.898 138.074 384.744 138.074ZM390.411 138.148C389.746 138.148 389.174 137.991 388.694 137.677C388.214 137.363 387.844 136.931 387.586 136.38C387.327 135.829 387.198 135.199 387.198 134.491C387.198 133.771 387.33 133.136 387.595 132.585C387.863 132.031 388.235 131.598 388.712 131.288C389.192 130.974 389.752 130.817 390.393 130.817C390.891 130.817 391.34 130.909 391.741 131.094C392.141 131.278 392.468 131.537 392.724 131.869C392.979 132.202 393.138 132.589 393.199 133.033H392.11C392.027 132.71 391.842 132.423 391.556 132.174C391.273 131.922 390.891 131.795 390.411 131.795C389.986 131.795 389.614 131.906 389.294 132.128C388.977 132.346 388.729 132.656 388.551 133.056C388.375 133.453 388.287 133.919 388.287 134.455C388.287 135.002 388.374 135.479 388.546 135.886C388.721 136.292 388.968 136.607 389.285 136.832C389.605 137.057 389.98 137.169 390.411 137.169C390.694 137.169 390.951 137.12 391.182 137.021C391.413 136.923 391.608 136.781 391.768 136.597C391.928 136.412 392.042 136.19 392.11 135.932H393.199C393.138 136.35 392.985 136.727 392.742 137.063C392.502 137.395 392.184 137.66 391.787 137.857C391.393 138.051 390.934 138.148 390.411 138.148ZM397.673 138.148C397.033 138.148 396.471 137.995 395.988 137.691C395.508 137.386 395.132 136.96 394.861 136.412C394.594 135.864 394.46 135.224 394.46 134.491C394.46 133.753 394.594 133.108 394.861 132.557C395.132 132.006 395.508 131.578 395.988 131.274C396.471 130.969 397.033 130.817 397.673 130.817C398.313 130.817 398.873 130.969 399.353 131.274C399.836 131.578 400.212 132.006 400.48 132.557C400.75 133.108 400.886 133.753 400.886 134.491C400.886 135.224 400.75 135.864 400.48 136.412C400.212 136.96 399.836 137.386 399.353 137.691C398.873 137.995 398.313 138.148 397.673 138.148ZM397.673 137.169C398.159 137.169 398.559 137.044 398.873 136.795C399.187 136.546 399.419 136.218 399.57 135.812C399.721 135.406 399.796 134.965 399.796 134.491C399.796 134.018 399.721 133.576 399.57 133.167C399.419 132.757 399.187 132.426 398.873 132.174C398.559 131.922 398.159 131.795 397.673 131.795C397.186 131.795 396.786 131.922 396.472 132.174C396.159 132.426 395.926 132.757 395.775 133.167C395.625 133.576 395.549 134.018 395.549 134.491C395.549 134.965 395.625 135.406 395.775 135.812C395.926 136.218 396.159 136.546 396.472 136.795C396.786 137.044 397.186 137.169 397.673 137.169ZM402.549 138V130.909H403.601V132.017H403.694C403.842 131.638 404.08 131.345 404.409 131.135C404.739 130.923 405.134 130.817 405.596 130.817C406.064 130.817 406.453 130.923 406.764 131.135C407.078 131.345 407.322 131.638 407.498 132.017H407.572C407.753 131.651 408.026 131.36 408.389 131.145C408.752 130.926 409.187 130.817 409.695 130.817C410.329 130.817 410.848 131.015 411.251 131.412C411.654 131.806 411.856 132.42 411.856 133.254V138H410.766V133.254C410.766 132.731 410.623 132.357 410.337 132.132C410.051 131.908 409.714 131.795 409.326 131.795C408.827 131.795 408.441 131.946 408.167 132.248C407.893 132.546 407.756 132.925 407.756 133.384V138H406.648V133.143C406.648 132.74 406.518 132.416 406.256 132.169C405.994 131.92 405.657 131.795 405.245 131.795C404.962 131.795 404.697 131.871 404.451 132.022C404.208 132.172 404.011 132.382 403.86 132.65C403.712 132.914 403.638 133.22 403.638 133.568V138H402.549Z" fill="#959BA3"/>
<g clip-path="url(#clip1_893_10586)">
<path d="M540.059 130.999C540.215 130.553 540.525 130.177 540.932 129.938C541.339 129.699 541.818 129.611 542.283 129.691C542.749 129.771 543.171 130.013 543.475 130.374C543.78 130.736 543.946 131.193 543.945 131.665C543.945 132.999 541.945 133.665 541.945 133.665M541.999 136.332H542.005M548.665 132.999C548.665 136.681 545.681 139.665 541.999 139.665C538.317 139.665 535.332 136.681 535.332 132.999C535.332 129.317 538.317 126.332 541.999 126.332C545.681 126.332 548.665 129.317 548.665 132.999Z" stroke="#B8BFC7" stroke-width="1.33333" stroke-linecap="round" stroke-linejoin="round"/>
</g>
<rect x="242.5" y="115.5" width="319" height="35" rx="2.5" stroke="#D8DEE9"/>
<rect x="241.5" y="114.5" width="321" height="37" stroke="#0D69D4"/>
<g clip-path="url(#clip2_893_10586)">
<mask maskUnits="userSpaceOnUse" x="0" y="0" width="0" height="0" fill="black">
<rect fill="white" width="0" height="0"/>
</mask>
<path d="M186.293 66.2929C185.902 66.6834 185.902 67.3166 186.293 67.7071L192.657 74.0711C193.047 74.4616 193.681 74.4616 194.071 74.0711C194.462 73.6805 194.462 73.0474 194.071 72.6569L188.414 67L194.071 61.3431C194.462 60.9526 194.462 60.3195 194.071 59.9289C193.681 59.5384 193.047 59.5384 192.657 59.9289L186.293 66.2929ZM217.707 67.7071C218.098 67.3166 218.098 66.6834 217.707 66.2929L211.343 59.9289C210.953 59.5384 210.319 59.5384 209.929 59.9289C209.538 60.3195 209.538 60.9526 209.929 61.3431L215.586 67L209.929 72.6569C209.538 73.0474 209.538 73.6805 209.929 74.0711C210.319 74.4616 210.953 74.4616 211.343 74.0711L217.707 67.7071ZM187 68H217V66H187V68Z" fill="#6B6B6B" mask="url(#)"/>
</g>
<path fill-rule="evenodd" clip-rule="evenodd" d="M186 59L186 60L186 63.9915L186 64.024V65.024V69.0185V70.0185V70.0225L186 74.014L186 75.014H187H190.989H191.989H196.011H197.011H201H202V74.014V70.0185V69.0185V65.024V64.024V60V59H201H197.011H196.011H191.989H190.989H187H186ZM187 60V63.9915H190.989V60H187ZM187 70.0225V74.014H190.989V70.0225H187ZM201 70.0185V74.014H197.011V70.0185H201ZM201 65.024V69.0185H197.011V65.024H201ZM201 60V64.024H197.011V60H201ZM196.011 60H191.989V63.9915V64.024H196.011V60ZM196.011 65.024H191.989V69.0185H196.011V65.024ZM196.011 70.0185H191.989V70.0225V74.014H196.011V70.0185Z" fill="#6B6B6B"/>
<g clip-path="url(#clip3_893_10586)">
<g clip-path="url(#clip4_893_10586)">
<mask maskUnits="userSpaceOnUse" x="0" y="0" width="0" height="0" fill="black">
<rect fill="white" width="0" height="0"/>
</mask>
<path d="M195.28 105.22C194.987 104.927 194.513 104.927 194.22 105.22L189.447 109.993C189.154 110.286 189.154 110.76 189.447 111.053C189.74 111.346 190.214 111.346 190.507 111.053L194.75 106.811L198.993 111.053C199.286 111.346 199.76 111.346 200.053 111.053C200.346 110.76 200.346 110.286 200.053 109.993L195.28 105.22ZM194.22 132.28C194.513 132.573 194.987 132.573 195.28 132.28L200.053 127.507C200.346 127.214 200.346 126.74 200.053 126.447C199.76 126.154 199.286 126.154 198.993 126.447L194.75 130.689L190.507 126.447C190.214 126.154 189.74 126.154 189.447 126.447C189.154 126.74 189.154 127.214 189.447 127.507L194.22 132.28ZM194 105.75V131.75H195.5V105.75H194Z" fill="#0D69D4" mask="url(#)"/>
<mask maskUnits="userSpaceOnUse" x="0" y="0" width="0" height="0" fill="black">
<rect fill="white" width="0" height="0"/>
</mask>
<path d="M195.28 133.72C194.987 133.427 194.513 133.427 194.22 133.72L189.447 138.493C189.154 138.786 189.154 139.26 189.447 139.553C189.74 139.846 190.214 139.846 190.507 139.553L194.75 135.311L198.993 139.553C199.286 139.846 199.76 139.846 200.053 139.553C200.346 139.26 200.346 138.786 200.053 138.493L195.28 133.72ZM194.22 160.78C194.513 161.073 194.987 161.073 195.28 160.78L200.053 156.007C200.346 155.714 200.346 155.24 200.053 154.947C199.76 154.654 199.286 154.654 198.993 154.947L194.75 159.189L190.507 154.947C190.214 154.654 189.74 154.654 189.447 154.947C189.154 155.24 189.154 155.714 189.447 156.007L194.22 160.78ZM194 134.25V160.25H195.5V134.25H194Z" fill="#0D69D4" mask="url(#)"/>
</g>
</g>
<mask maskUnits="userSpaceOnUse" x="0" y="0" width="0" height="0" fill="black">
<rect fill="white" width="0" height="0"/>
</mask>
<path d="M242.22 66.2197C241.927 66.5126 241.927 66.9874 242.22 67.2803L246.993 72.0533C247.286 72.3462 247.76 72.3462 248.053 72.0533C248.346 71.7604 248.346 71.2855 248.053 70.9926L243.811 66.75L248.053 62.5074C248.346 62.2145 248.346 61.7396 248.053 61.4467C247.76 61.1538 247.286 61.1538 246.993 61.4467L242.22 66.2197ZM561.78 67.2803C562.073 66.9874 562.073 66.5126 561.78 66.2197L557.007 61.4467C556.714 61.1538 556.24 61.1538 555.947 61.4467C555.654 61.7396 555.654 62.2145 555.947 62.5074L560.189 66.75L555.947 70.9926C555.654 71.2855 555.654 71.7604 555.947 72.0533C556.24 72.3462 556.714 72.3462 557.007 72.0533L561.78 67.2803ZM242.75 67.5H561.25V66H242.75V67.5Z" fill="#0D69D4" mask="url(#)"/>
<rect x="526" y="123" width="8" height="20" fill="#C54600" fill-opacity="0.3"/>
<line x1="526.5" y1="99" x2="526.5" y2="151" stroke="#C54600"/>
<line x1="533.5" y1="99" x2="533.5" y2="151" stroke="#C54600"/>
<path d="M529.963 95.1193C529.307 95.1193 528.723 95.0128 528.212 94.7997C527.703 94.5838 527.304 94.2898 527.014 93.9176C526.724 93.5455 526.58 93.1236 526.58 92.652C526.58 92.2884 526.662 91.9545 526.827 91.6506C526.994 91.3438 527.222 91.0895 527.509 90.8878C527.795 90.6832 528.116 90.5526 528.472 90.4957V90.4361C528.006 90.3423 527.628 90.1165 527.338 89.7585C527.048 89.3977 526.903 88.9787 526.903 88.5014C526.903 88.0497 527.036 87.6477 527.3 87.2955C527.564 86.9403 527.926 86.6619 528.386 86.4602C528.849 86.2557 529.375 86.1534 529.963 86.1534C530.551 86.1534 531.075 86.2557 531.536 86.4602C531.999 86.6648 532.362 86.9446 532.626 87.2997C532.891 87.652 533.024 88.0526 533.027 88.5014C533.024 88.9815 532.876 89.4006 532.584 89.7585C532.291 90.1165 531.916 90.3423 531.459 90.4361V90.4957C531.808 90.5526 532.125 90.6832 532.409 90.8878C532.696 91.0895 532.923 91.3438 533.091 91.6506C533.261 91.9545 533.348 92.2884 533.351 92.652C533.348 93.1236 533.202 93.5455 532.912 93.9176C532.622 94.2898 532.222 94.5838 531.71 94.7997C531.202 95.0128 530.619 95.1193 529.963 95.1193ZM529.963 93.7642C530.256 93.7642 530.511 93.7116 530.73 93.6065C530.949 93.4986 531.119 93.3509 531.241 93.1634C531.366 92.973 531.429 92.7543 531.429 92.5071C531.429 92.2543 531.365 92.0312 531.237 91.8381C531.109 91.642 530.936 91.4886 530.717 91.3778C530.499 91.2642 530.247 91.2074 529.963 91.2074C529.682 91.2074 529.43 91.2642 529.209 91.3778C528.987 91.4886 528.813 91.642 528.685 91.8381C528.56 92.0312 528.497 92.2543 528.497 92.5071C528.497 92.7543 528.558 92.973 528.68 93.1634C528.803 93.3509 528.974 93.4986 529.196 93.6065C529.418 93.7116 529.673 93.7642 529.963 93.7642ZM529.963 89.8651C530.207 89.8651 530.425 89.8153 530.615 89.7159C530.805 89.6165 530.955 89.4787 531.062 89.3026C531.17 89.1264 531.224 88.9233 531.224 88.6932C531.224 88.4659 531.17 88.267 531.062 88.0966C530.955 87.9233 530.807 87.7884 530.619 87.6918C530.432 87.5923 530.213 87.5426 529.963 87.5426C529.716 87.5426 529.497 87.5923 529.307 87.6918C529.116 87.7884 528.967 87.9233 528.859 88.0966C528.754 88.267 528.702 88.4659 528.702 88.6932C528.702 88.9233 528.756 89.1264 528.864 89.3026C528.972 89.4787 529.121 89.6165 529.311 89.7159C529.501 89.8153 529.719 89.8651 529.963 89.8651Z" fill="#C54600"/>
<mask maskUnits="userSpaceOnUse" x="0" y="0" width="0" height="0" fill="black">
<rect fill="white" width="0" height="0"/>
</mask>
<path d="M254.146 106.146C253.951 106.342 253.951 106.658 254.146 106.854L257.328 110.036C257.524 110.231 257.84 110.231 258.036 110.036C258.231 109.84 258.231 109.524 258.036 109.328L255.207 106.5L258.036 103.672C258.231 103.476 258.231 103.16 258.036 102.964C257.84 102.769 257.524 102.769 257.328 102.964L254.146 106.146ZM525.854 106.854C526.049 106.658 526.049 106.342 525.854 106.146L522.672 102.964C522.476 102.769 522.16 102.769 521.964 102.964C521.769 103.16 521.769 103.476 521.964 103.672L524.793 106.5L521.964 109.328C521.769 109.524 521.769 109.84 521.964 110.036C522.16 110.231 522.476 110.231 522.672 110.036L525.854 106.854ZM254.5 107H525.5V106H254.5V107Z" fill="#0D69D4" mask="url(#)"/>
<rect x="254" y="123" width="272" height="20" fill="#0D69D4" fill-opacity="0.2"/>
<rect x="534" y="125" width="16" height="16" fill="#0D69D4" fill-opacity="0.2"/>
<rect x="242" y="115" width="320" height="8" fill="#007D00" fill-opacity="0.3"/>
<line x1="226" y1="115.5" x2="562" y2="115.5" stroke="#007D00"/>
<line x1="226" y1="122.5" x2="562" y2="122.5" stroke="#007D00"/>
<path d="M217.963 123.119C217.307 123.119 216.723 123.013 216.212 122.8C215.703 122.584 215.304 122.29 215.014 121.918C214.724 121.545 214.58 121.124 214.58 120.652C214.58 120.288 214.662 119.955 214.827 119.651C214.994 119.344 215.222 119.089 215.509 118.888C215.795 118.683 216.116 118.553 216.472 118.496V118.436C216.006 118.342 215.628 118.116 215.338 117.759C215.048 117.398 214.903 116.979 214.903 116.501C214.903 116.05 215.036 115.648 215.3 115.295C215.564 114.94 215.926 114.662 216.386 114.46C216.849 114.256 217.375 114.153 217.963 114.153C218.551 114.153 219.075 114.256 219.536 114.46C219.999 114.665 220.362 114.945 220.626 115.3C220.891 115.652 221.024 116.053 221.027 116.501C221.024 116.982 220.876 117.401 220.584 117.759C220.291 118.116 219.916 118.342 219.459 118.436V118.496C219.808 118.553 220.125 118.683 220.409 118.888C220.696 119.089 220.923 119.344 221.091 119.651C221.261 119.955 221.348 120.288 221.351 120.652C221.348 121.124 221.202 121.545 220.912 121.918C220.622 122.29 220.222 122.584 219.71 122.8C219.202 123.013 218.619 123.119 217.963 123.119ZM217.963 121.764C218.256 121.764 218.511 121.712 218.73 121.607C218.949 121.499 219.119 121.351 219.241 121.163C219.366 120.973 219.429 120.754 219.429 120.507C219.429 120.254 219.365 120.031 219.237 119.838C219.109 119.642 218.936 119.489 218.717 119.378C218.499 119.264 218.247 119.207 217.963 119.207C217.682 119.207 217.43 119.264 217.209 119.378C216.987 119.489 216.813 119.642 216.685 119.838C216.56 120.031 216.497 120.254 216.497 120.507C216.497 120.754 216.558 120.973 216.68 121.163C216.803 121.351 216.974 121.499 217.196 121.607C217.418 121.712 217.673 121.764 217.963 121.764ZM217.963 117.865C218.207 117.865 218.425 117.815 218.615 117.716C218.805 117.616 218.955 117.479 219.062 117.303C219.17 117.126 219.224 116.923 219.224 116.693C219.224 116.466 219.17 116.267 219.062 116.097C218.955 115.923 218.807 115.788 218.619 115.692C218.432 115.592 218.213 115.543 217.963 115.543C217.716 115.543 217.497 115.592 217.307 115.692C217.116 115.788 216.967 115.923 216.859 116.097C216.754 116.267 216.702 116.466 216.702 116.693C216.702 116.923 216.756 117.126 216.864 117.303C216.972 117.479 217.121 117.616 217.311 117.716C217.501 117.815 217.719 117.865 217.963 117.865Z" fill="#007D00"/>
<rect x="242" y="143" width="320" height="8" fill="#007D00" fill-opacity="0.3"/>
<line x1="226" y1="143.5" x2="562" y2="143.5" stroke="#007D00"/>
<line x1="226" y1="150.5" x2="562" y2="150.5" stroke="#007D00"/>
<path d="M217.963 151.119C217.307 151.119 216.723 151.013 216.212 150.8C215.703 150.584 215.304 150.29 215.014 149.918C214.724 149.545 214.58 149.124 214.58 148.652C214.58 148.288 214.662 147.955 214.827 147.651C214.994 147.344 215.222 147.089 215.509 146.888C215.795 146.683 216.116 146.553 216.472 146.496V146.436C216.006 146.342 215.628 146.116 215.338 145.759C215.048 145.398 214.903 144.979 214.903 144.501C214.903 144.05 215.036 143.648 215.3 143.295C215.564 142.94 215.926 142.662 216.386 142.46C216.849 142.256 217.375 142.153 217.963 142.153C218.551 142.153 219.075 142.256 219.536 142.46C219.999 142.665 220.362 142.945 220.626 143.3C220.891 143.652 221.024 144.053 221.027 144.501C221.024 144.982 220.876 145.401 220.584 145.759C220.291 146.116 219.916 146.342 219.459 146.436V146.496C219.808 146.553 220.125 146.683 220.409 146.888C220.696 147.089 220.923 147.344 221.091 147.651C221.261 147.955 221.348 148.288 221.351 148.652C221.348 149.124 221.202 149.545 220.912 149.918C220.622 150.29 220.222 150.584 219.71 150.8C219.202 151.013 218.619 151.119 217.963 151.119ZM217.963 149.764C218.256 149.764 218.511 149.712 218.73 149.607C218.949 149.499 219.119 149.351 219.241 149.163C219.366 148.973 219.429 148.754 219.429 148.507C219.429 148.254 219.365 148.031 219.237 147.838C219.109 147.642 218.936 147.489 218.717 147.378C218.499 147.264 218.247 147.207 217.963 147.207C217.682 147.207 217.43 147.264 217.209 147.378C216.987 147.489 216.813 147.642 216.685 147.838C216.56 148.031 216.497 148.254 216.497 148.507C216.497 148.754 216.558 148.973 216.68 149.163C216.803 149.351 216.974 149.499 217.196 149.607C217.418 149.712 217.673 149.764 217.963 149.764ZM217.963 145.865C218.207 145.865 218.425 145.815 218.615 145.716C218.805 145.616 218.955 145.479 219.062 145.303C219.17 145.126 219.224 144.923 219.224 144.693C219.224 144.466 219.17 144.267 219.062 144.097C218.955 143.923 218.807 143.788 218.619 143.692C218.432 143.592 218.213 143.543 217.963 143.543C217.716 143.543 217.497 143.592 217.307 143.692C217.116 143.788 216.967 143.923 216.859 144.097C216.754 144.267 216.702 144.466 216.702 144.693C216.702 144.923 216.756 145.126 216.864 145.303C216.972 145.479 217.121 145.616 217.311 145.716C217.501 145.815 217.719 145.865 217.963 145.865Z" fill="#007D00"/>
<rect x="242" y="123" width="12" height="20" fill="#007D00" fill-opacity="0.3"/>
<line x1="242.5" y1="99" x2="242.5" y2="151" stroke="#007D00"/>
<line x1="253.5" y1="99" x2="253.5" y2="151" stroke="#007D00"/>
<path d="M245.504 86.2727V95H243.659V88.0241H243.608L241.609 89.277V87.6406L243.77 86.2727H245.504ZM247.578 95V93.6705L250.685 90.794C250.949 90.5384 251.171 90.3082 251.35 90.1037C251.532 89.8991 251.669 89.6989 251.763 89.5028C251.857 89.304 251.904 89.0895 251.904 88.8594C251.904 88.6037 251.846 88.3835 251.729 88.1989C251.613 88.0114 251.453 87.8679 251.252 87.7685C251.05 87.6662 250.821 87.6151 250.566 87.6151C250.299 87.6151 250.066 87.669 249.867 87.777C249.668 87.8849 249.515 88.0398 249.407 88.2415C249.299 88.4432 249.245 88.6832 249.245 88.9616H247.493C247.493 88.3906 247.623 87.8949 247.881 87.4744C248.14 87.054 248.502 86.7287 248.968 86.4986C249.434 86.2685 249.971 86.1534 250.578 86.1534C251.203 86.1534 251.748 86.2642 252.211 86.4858C252.676 86.7045 253.039 87.0085 253.297 87.3977C253.556 87.7869 253.685 88.233 253.685 88.7358C253.685 89.0653 253.62 89.3906 253.489 89.7116C253.361 90.0327 253.132 90.3892 252.803 90.7812C252.473 91.1705 252.009 91.6378 251.409 92.1832L250.135 93.4318V93.4915H253.8V95H247.578Z" fill="#007D00"/>
<rect x="550" y="123" width="12" height="20" fill="#007D00" fill-opacity="0.3"/>
<line x1="550.5" y1="99" x2="550.5" y2="151" stroke="#007D00"/>
<line x1="561.5" y1="99" x2="561.5" y2="151" stroke="#007D00"/>
<path d="M553.504 86.2727V95H551.659V88.0241H551.608L549.609 89.277V87.6406L551.77 86.2727H553.504ZM555.578 95V93.6705L558.685 90.794C558.949 90.5384 559.171 90.3082 559.35 90.1037C559.532 89.8991 559.669 89.6989 559.763 89.5028C559.857 89.304 559.904 89.0895 559.904 88.8594C559.904 88.6037 559.846 88.3835 559.729 88.1989C559.613 88.0114 559.453 87.8679 559.252 87.7685C559.05 87.6662 558.821 87.6151 558.566 87.6151C558.299 87.6151 558.066 87.669 557.867 87.777C557.668 87.8849 557.515 88.0398 557.407 88.2415C557.299 88.4432 557.245 88.6832 557.245 88.9616H555.493C555.493 88.3906 555.623 87.8949 555.881 87.4744C556.14 87.054 556.502 86.7287 556.968 86.4986C557.434 86.2685 557.971 86.1534 558.578 86.1534C559.203 86.1534 559.748 86.2642 560.211 86.4858C560.676 86.7045 561.039 87.0085 561.297 87.3977C561.556 87.7869 561.685 88.233 561.685 88.7358C561.685 89.0653 561.62 89.3906 561.489 89.7116C561.361 90.0327 561.132 90.3892 560.803 90.7812C560.473 91.1705 560.009 91.6378 559.409 92.1832L558.135 93.4318V93.4915H561.8V95H555.578Z" fill="#007D00"/>
<defs>
<clipPath id="clip0_893_10586">
<rect width="16" height="16" fill="white" transform="translate(534 125)"/>
</clipPath>
<clipPath id="clip1_893_10586">
<rect width="16" height="16" fill="white" transform="translate(534 125)"/>
</clipPath>
<clipPath id="clip2_893_10586">
<rect width="16" height="16" fill="white" transform="translate(202 59)"/>
</clipPath>
<clipPath id="clip3_893_10586">
<rect width="36" height="16" fill="white" transform="matrix(0 1 -1 0 202 115)"/>
</clipPath>
<clipPath id="clip4_893_10586">
<rect width="56" height="16" fill="white" transform="matrix(0 1 -1 0 202 105)"/>
</clipPath>
</defs>
</svg>
