<svg width="804" height="232" viewBox="0 0 804 232" fill="none" xmlns="http://www.w3.org/2000/svg">
<rect width="804" height="232" fill="#F9FAFB"/>
<g opacity="0.2">
<path d="M242.959 102V93.2727H248.43V94.4062H244.276V97.0653H248.145V98.1946H244.276V100.866H248.482V102H242.959ZM250.087 102V95.4545H251.31V96.5199H251.391C251.527 96.1591 251.75 95.8778 252.06 95.6761C252.37 95.4716 252.74 95.3693 253.172 95.3693C253.61 95.3693 253.976 95.4716 254.272 95.6761C254.57 95.8807 254.79 96.1619 254.932 96.5199H255C255.157 96.1705 255.405 95.892 255.746 95.6847C256.087 95.4744 256.493 95.3693 256.965 95.3693C257.559 95.3693 258.043 95.5554 258.418 95.9276C258.796 96.2997 258.985 96.8608 258.985 97.6108V102H257.711V97.7301C257.711 97.2869 257.59 96.9659 257.348 96.767C257.107 96.5682 256.819 96.4688 256.483 96.4688C256.069 96.4688 255.746 96.5966 255.516 96.8523C255.286 97.1051 255.171 97.4304 255.171 97.8281V102H253.901V97.6491C253.901 97.294 253.79 97.0085 253.569 96.7926C253.347 96.5767 253.059 96.4688 252.703 96.4688C252.462 96.4688 252.239 96.5327 252.034 96.6605C251.833 96.7855 251.669 96.9602 251.544 97.1847C251.422 97.4091 251.361 97.669 251.361 97.9645V102H250.087ZM262.597 102.145C262.183 102.145 261.808 102.068 261.472 101.915C261.137 101.759 260.871 101.533 260.675 101.237C260.482 100.942 260.386 100.58 260.386 100.151C260.386 99.7812 260.457 99.4773 260.599 99.2386C260.741 99 260.933 98.8111 261.174 98.6719C261.415 98.5327 261.685 98.4276 261.984 98.3565C262.282 98.2855 262.586 98.2315 262.896 98.1946C263.288 98.1491 263.606 98.1122 263.85 98.0838C264.094 98.0526 264.272 98.0028 264.383 97.9347C264.494 97.8665 264.549 97.7557 264.549 97.6023V97.5724C264.549 97.2003 264.444 96.9119 264.234 96.7074C264.026 96.5028 263.717 96.4006 263.305 96.4006C262.876 96.4006 262.538 96.4957 262.29 96.6861C262.046 96.8736 261.877 97.0824 261.783 97.3125L260.586 97.0398C260.728 96.642 260.935 96.321 261.208 96.0767C261.484 95.8295 261.8 95.6506 262.158 95.5398C262.516 95.4261 262.893 95.3693 263.288 95.3693C263.549 95.3693 263.826 95.4006 264.119 95.4631C264.414 95.5227 264.69 95.6335 264.945 95.7955C265.204 95.9574 265.415 96.1889 265.58 96.4901C265.745 96.7884 265.827 97.1761 265.827 97.6534V102H264.583V101.105H264.532C264.45 101.27 264.326 101.432 264.161 101.591C263.996 101.75 263.785 101.882 263.526 101.987C263.268 102.092 262.958 102.145 262.597 102.145ZM262.874 101.122C263.227 101.122 263.528 101.053 263.778 100.913C264.031 100.774 264.222 100.592 264.353 100.368C264.487 100.141 264.553 99.8977 264.553 99.6392V98.7955C264.508 98.8409 264.42 98.8835 264.289 98.9233C264.161 98.9602 264.015 98.9929 263.85 99.0213C263.685 99.0469 263.525 99.071 263.369 99.0938C263.212 99.1136 263.082 99.1307 262.977 99.1449C262.729 99.1761 262.504 99.2287 262.299 99.3026C262.097 99.3764 261.935 99.483 261.813 99.6222C261.694 99.7585 261.634 99.9403 261.634 100.168C261.634 100.483 261.751 100.722 261.984 100.884C262.217 101.043 262.513 101.122 262.874 101.122ZM267.525 102V95.4545H268.799V102H267.525ZM268.168 94.4446C267.946 94.4446 267.756 94.3707 267.597 94.223C267.441 94.0724 267.363 93.8935 267.363 93.6861C267.363 93.4759 267.441 93.2969 267.597 93.1491C267.756 92.9986 267.946 92.9233 268.168 92.9233C268.39 92.9233 268.578 92.9986 268.735 93.1491C268.894 93.2969 268.973 93.4759 268.973 93.6861C268.973 93.8935 268.894 94.0724 268.735 94.223C268.578 94.3707 268.39 94.4446 268.168 94.4446ZM271.787 93.2727V102H270.513V93.2727H271.787Z" fill="#344054"/>
<rect x="242.5" y="111.5" width="319" height="35" rx="2.5" fill="white"/>
<path d="M272.335 123.999C272.335 123.082 271.585 122.332 270.668 122.332H257.335C256.418 122.332 255.668 123.082 255.668 123.999M272.335 123.999V133.999C272.335 134.915 271.585 135.665 270.668 135.665H257.335C256.418 135.665 255.668 134.915 255.668 133.999V123.999M272.335 123.999L264.001 129.832L255.668 123.999" stroke="#959BA3" stroke-width="1.66667" stroke-linecap="round" stroke-linejoin="round"/>
<path d="M285.878 134.148C285.238 134.148 284.676 133.995 284.193 133.691C283.713 133.386 283.337 132.96 283.066 132.412C282.799 131.864 282.665 131.224 282.665 130.491C282.665 129.753 282.799 129.108 283.066 128.557C283.337 128.006 283.713 127.578 284.193 127.274C284.676 126.969 285.238 126.817 285.878 126.817C286.518 126.817 287.078 126.969 287.558 127.274C288.041 127.578 288.417 128.006 288.685 128.557C288.955 129.108 289.091 129.753 289.091 130.491C289.091 131.224 288.955 131.864 288.685 132.412C288.417 132.96 288.041 133.386 287.558 133.691C287.078 133.995 286.518 134.148 285.878 134.148ZM285.878 133.169C286.364 133.169 286.764 133.044 287.078 132.795C287.392 132.546 287.624 132.218 287.775 131.812C287.926 131.406 288.001 130.965 288.001 130.491C288.001 130.018 287.926 129.576 287.775 129.167C287.624 128.757 287.392 128.426 287.078 128.174C286.764 127.922 286.364 127.795 285.878 127.795C285.392 127.795 284.991 127.922 284.678 128.174C284.364 128.426 284.131 128.757 283.98 129.167C283.83 129.576 283.754 130.018 283.754 130.491C283.754 130.965 283.83 131.406 283.98 131.812C284.131 132.218 284.364 132.546 284.678 132.795C284.991 133.044 285.392 133.169 285.878 133.169ZM291.843 124.545V134H290.754V124.545H291.843ZM293.839 134V126.909H294.928V134H293.839ZM294.393 125.727C294.181 125.727 293.997 125.655 293.844 125.51C293.693 125.366 293.617 125.192 293.617 124.989C293.617 124.786 293.693 124.612 293.844 124.467C293.997 124.322 294.181 124.25 294.393 124.25C294.605 124.25 294.787 124.322 294.938 124.467C295.092 124.612 295.169 124.786 295.169 124.989C295.169 125.192 295.092 125.366 294.938 125.51C294.787 125.655 294.605 125.727 294.393 125.727ZM302.722 126.909L300.1 134H298.992L296.37 126.909H297.552L299.509 132.56H299.583L301.54 126.909H302.722ZM304.16 134V126.909H305.25V134H304.16ZM304.714 125.727C304.502 125.727 304.319 125.655 304.165 125.51C304.014 125.366 303.939 125.192 303.939 124.989C303.939 124.786 304.014 124.612 304.165 124.467C304.319 124.322 304.502 124.25 304.714 124.25C304.927 124.25 305.108 124.322 305.259 124.467C305.413 124.612 305.49 124.786 305.49 124.989C305.49 125.192 305.413 125.366 305.259 125.51C305.108 125.655 304.927 125.727 304.714 125.727ZM309.332 134.166C308.883 134.166 308.475 134.082 308.108 133.912C307.742 133.74 307.451 133.492 307.236 133.169C307.021 132.843 306.913 132.449 306.913 131.987C306.913 131.581 306.993 131.252 307.153 130.999C307.313 130.744 307.527 130.544 307.795 130.399C308.062 130.254 308.358 130.147 308.681 130.076C309.007 130.002 309.335 129.944 309.664 129.901C310.095 129.845 310.444 129.804 310.712 129.776C310.983 129.745 311.18 129.694 311.303 129.624C311.429 129.553 311.492 129.43 311.492 129.254V129.217C311.492 128.762 311.368 128.408 311.118 128.156C310.872 127.903 310.498 127.777 309.997 127.777C309.477 127.777 309.069 127.891 308.773 128.119C308.478 128.346 308.27 128.589 308.15 128.848L307.116 128.479C307.301 128.048 307.547 127.712 307.855 127.472C308.165 127.229 308.504 127.06 308.87 126.964C309.24 126.866 309.603 126.817 309.96 126.817C310.187 126.817 310.449 126.844 310.744 126.9C311.043 126.952 311.331 127.061 311.608 127.228C311.888 127.394 312.12 127.645 312.305 127.98C312.49 128.316 312.582 128.765 312.582 129.328V134H311.492V133.04H311.437C311.363 133.194 311.24 133.358 311.068 133.534C310.895 133.709 310.666 133.858 310.38 133.982C310.094 134.105 309.744 134.166 309.332 134.166ZM309.498 133.188C309.929 133.188 310.292 133.103 310.588 132.934C310.886 132.764 311.111 132.546 311.262 132.278C311.415 132.01 311.492 131.729 311.492 131.433V130.436C311.446 130.491 311.345 130.542 311.188 130.588C311.034 130.632 310.855 130.67 310.652 130.704C310.452 130.735 310.257 130.762 310.066 130.787C309.878 130.808 309.726 130.827 309.609 130.842C309.326 130.879 309.061 130.939 308.815 131.022C308.572 131.102 308.375 131.224 308.224 131.387C308.076 131.547 308.002 131.766 308.002 132.043C308.002 132.421 308.142 132.707 308.422 132.901C308.706 133.092 309.064 133.188 309.498 133.188ZM320.018 136.493C319.076 136.493 318.244 136.364 317.52 136.105C316.797 135.85 316.189 135.473 315.697 134.974C315.204 134.475 314.832 133.865 314.58 133.141C314.327 132.418 314.201 131.59 314.201 130.658C314.201 129.756 314.329 128.95 314.584 128.239C314.843 127.528 315.217 126.924 315.706 126.429C316.198 125.93 316.796 125.55 317.497 125.289C318.202 125.027 318.999 124.896 319.889 124.896C320.753 124.896 321.511 125.038 322.16 125.321C322.812 125.601 323.357 125.981 323.794 126.461C324.234 126.938 324.564 127.475 324.782 128.072C325.004 128.67 325.114 129.285 325.114 129.919C325.114 130.365 325.093 130.818 325.05 131.276C325.007 131.735 324.916 132.156 324.777 132.541C324.639 132.923 324.425 133.231 324.136 133.464C323.85 133.698 323.462 133.815 322.972 133.815C322.757 133.815 322.52 133.781 322.261 133.714C322.003 133.646 321.774 133.534 321.574 133.377C321.374 133.22 321.255 133.009 321.218 132.744H321.163C321.089 132.923 320.975 133.092 320.821 133.252C320.67 133.412 320.472 133.54 320.226 133.635C319.982 133.731 319.685 133.772 319.335 133.76C318.935 133.745 318.582 133.655 318.277 133.492C317.973 133.326 317.717 133.101 317.511 132.818C317.308 132.532 317.154 132.201 317.049 131.826C316.948 131.447 316.897 131.039 316.897 130.602C316.897 130.187 316.959 129.807 317.082 129.462C317.205 129.117 317.376 128.816 317.594 128.557C317.816 128.299 318.074 128.092 318.37 127.939C318.668 127.782 318.99 127.685 319.335 127.648C319.642 127.617 319.922 127.631 320.175 127.689C320.427 127.745 320.635 127.829 320.798 127.943C320.961 128.054 321.064 128.177 321.107 128.312H321.163V127.795H322.141V131.969C322.141 132.227 322.214 132.455 322.358 132.652C322.503 132.849 322.714 132.947 322.991 132.947C323.305 132.947 323.545 132.84 323.711 132.624C323.88 132.409 323.996 132.076 324.057 131.627C324.122 131.178 324.154 130.602 324.154 129.901C324.154 129.488 324.097 129.082 323.983 128.682C323.873 128.279 323.703 127.902 323.476 127.551C323.251 127.2 322.966 126.891 322.622 126.623C322.277 126.355 321.872 126.146 321.407 125.995C320.946 125.841 320.421 125.764 319.833 125.764C319.11 125.764 318.462 125.877 317.89 126.101C317.32 126.323 316.836 126.647 316.435 127.075C316.038 127.5 315.735 128.017 315.526 128.626C315.32 129.233 315.217 129.922 315.217 130.695C315.217 131.479 315.32 132.176 315.526 132.786C315.735 133.395 316.043 133.909 316.449 134.328C316.859 134.746 317.365 135.063 317.968 135.279C318.571 135.497 319.267 135.607 320.055 135.607C320.393 135.607 320.727 135.574 321.057 135.51C321.386 135.445 321.677 135.374 321.929 135.297C322.181 135.22 322.363 135.163 322.474 135.126L322.732 135.976C322.542 136.056 322.292 136.136 321.984 136.216C321.68 136.296 321.354 136.362 321.006 136.414C320.661 136.467 320.332 136.493 320.018 136.493ZM319.482 132.818C319.895 132.818 320.229 132.735 320.484 132.569C320.74 132.403 320.926 132.152 321.043 131.816C321.16 131.481 321.218 131.058 321.218 130.547C321.218 130.03 321.153 129.627 321.024 129.337C320.895 129.048 320.704 128.845 320.452 128.728C320.199 128.611 319.889 128.553 319.519 128.553C319.168 128.553 318.868 128.645 318.619 128.83C318.373 129.011 318.184 129.254 318.051 129.559C317.922 129.861 317.857 130.19 317.857 130.547C317.857 130.941 317.91 131.312 318.014 131.659C318.119 132.004 318.29 132.284 318.527 132.5C318.764 132.712 319.082 132.818 319.482 132.818ZM331.214 131.101V126.909H332.303V134H331.214V132.8H331.14C330.974 133.16 330.715 133.466 330.365 133.718C330.014 133.968 329.57 134.092 329.035 134.092C328.592 134.092 328.198 133.995 327.853 133.801C327.508 133.605 327.238 133.309 327.041 132.915C326.844 132.518 326.745 132.018 326.745 131.415V126.909H327.835V131.341C327.835 131.858 327.979 132.27 328.269 132.578C328.561 132.886 328.933 133.04 329.386 133.04C329.657 133.04 329.932 132.971 330.212 132.832C330.495 132.694 330.732 132.481 330.923 132.195C331.117 131.909 331.214 131.544 331.214 131.101ZM335.388 129.734V134H334.299V126.909H335.351V128.017H335.444C335.61 127.657 335.862 127.368 336.201 127.149C336.539 126.928 336.976 126.817 337.512 126.817C337.992 126.817 338.412 126.915 338.772 127.112C339.132 127.306 339.412 127.602 339.612 127.999C339.813 128.393 339.913 128.891 339.913 129.494V134H338.823V129.568C338.823 129.011 338.678 128.577 338.389 128.266C338.1 127.952 337.703 127.795 337.198 127.795C336.85 127.795 336.539 127.871 336.266 128.022C335.995 128.172 335.781 128.393 335.624 128.682C335.467 128.971 335.388 129.322 335.388 129.734ZM344.987 126.909V127.832H341.312V126.909H344.987ZM342.384 125.21H343.473V131.969C343.473 132.277 343.518 132.507 343.607 132.661C343.699 132.812 343.816 132.914 343.958 132.966C344.102 133.015 344.255 133.04 344.415 133.04C344.535 133.04 344.633 133.034 344.71 133.021C344.787 133.006 344.849 132.994 344.895 132.984L345.116 133.963C345.043 133.991 344.94 134.018 344.807 134.046C344.675 134.077 344.507 134.092 344.304 134.092C343.996 134.092 343.695 134.026 343.399 133.894C343.107 133.761 342.864 133.56 342.67 133.289C342.479 133.018 342.384 132.677 342.384 132.264V125.21ZM346.626 134V126.909H347.716V134H346.626ZM347.18 125.727C346.968 125.727 346.785 125.655 346.631 125.51C346.48 125.366 346.404 125.192 346.404 124.989C346.404 124.786 346.48 124.612 346.631 124.467C346.785 124.322 346.968 124.25 347.18 124.25C347.392 124.25 347.574 124.322 347.725 124.467C347.879 124.612 347.956 124.786 347.956 124.989C347.956 125.192 347.879 125.366 347.725 125.51C347.574 125.655 347.392 125.727 347.18 125.727ZM352.795 126.909V127.832H349.12V126.909H352.795ZM350.191 125.21H351.281V131.969C351.281 132.277 351.325 132.507 351.415 132.661C351.507 132.812 351.624 132.914 351.765 132.966C351.91 133.015 352.062 133.04 352.222 133.04C352.342 133.04 352.441 133.034 352.518 133.021C352.595 133.006 352.656 132.994 352.703 132.984L352.924 133.963C352.85 133.991 352.747 134.018 352.615 134.046C352.482 134.077 352.315 134.092 352.112 134.092C351.804 134.092 351.502 134.026 351.207 133.894C350.914 133.761 350.671 133.56 350.477 133.289C350.287 133.018 350.191 132.677 350.191 132.264V125.21ZM355.676 124.545V134H354.586V124.545H355.676ZM360.644 134.148C359.961 134.148 359.371 133.997 358.876 133.695C358.383 133.391 358.003 132.966 357.736 132.421C357.471 131.873 357.339 131.236 357.339 130.51C357.339 129.784 357.471 129.143 357.736 128.589C358.003 128.032 358.376 127.598 358.853 127.288C359.333 126.974 359.893 126.817 360.533 126.817C360.903 126.817 361.267 126.878 361.627 127.001C361.987 127.125 362.315 127.325 362.611 127.602C362.906 127.875 363.142 128.239 363.317 128.691C363.492 129.143 363.58 129.701 363.58 130.362V130.824H358.114V129.882H362.472C362.472 129.482 362.392 129.125 362.232 128.811C362.075 128.497 361.85 128.249 361.558 128.068C361.269 127.886 360.927 127.795 360.533 127.795C360.099 127.795 359.724 127.903 359.407 128.119C359.093 128.331 358.851 128.608 358.682 128.95C358.513 129.291 358.428 129.657 358.428 130.048V130.676C358.428 131.212 358.52 131.666 358.705 132.038C358.893 132.407 359.153 132.689 359.485 132.883C359.818 133.074 360.204 133.169 360.644 133.169C360.93 133.169 361.189 133.129 361.42 133.049C361.653 132.966 361.855 132.843 362.024 132.68C362.194 132.513 362.324 132.307 362.417 132.061L363.469 132.357C363.358 132.714 363.172 133.027 362.911 133.298C362.649 133.566 362.326 133.775 361.941 133.926C361.557 134.074 361.124 134.148 360.644 134.148ZM367.915 134.148C367.324 134.148 366.802 133.998 366.35 133.7C365.898 133.398 365.544 132.974 365.288 132.426C365.033 131.875 364.905 131.224 364.905 130.473C364.905 129.728 365.033 129.082 365.288 128.534C365.544 127.986 365.899 127.563 366.355 127.265C366.81 126.966 367.336 126.817 367.933 126.817C368.395 126.817 368.76 126.894 369.028 127.048C369.298 127.198 369.505 127.371 369.646 127.565C369.791 127.755 369.903 127.912 369.983 128.036H370.075V124.545H371.165V134H370.112V132.911H369.983C369.903 133.04 369.789 133.203 369.642 133.4C369.494 133.594 369.283 133.768 369.009 133.922C368.735 134.072 368.37 134.148 367.915 134.148ZM368.063 133.169C368.5 133.169 368.869 133.055 369.171 132.827C369.472 132.597 369.702 132.278 369.858 131.872C370.015 131.462 370.094 130.99 370.094 130.455C370.094 129.925 370.017 129.462 369.863 129.065C369.709 128.665 369.481 128.354 369.18 128.132C368.878 127.908 368.506 127.795 368.063 127.795C367.601 127.795 367.216 127.914 366.909 128.151C366.604 128.385 366.375 128.703 366.221 129.107C366.07 129.507 365.994 129.956 365.994 130.455C365.994 130.959 366.071 131.418 366.225 131.83C366.382 132.24 366.613 132.566 366.918 132.809C367.226 133.049 367.607 133.169 368.063 133.169ZM377.78 131.101V126.909H378.87V134H377.78V132.8H377.706C377.54 133.16 377.282 133.466 376.931 133.718C376.58 133.968 376.137 134.092 375.601 134.092C375.158 134.092 374.764 133.995 374.42 133.801C374.075 133.605 373.804 133.309 373.607 132.915C373.41 132.518 373.312 132.018 373.312 131.415V126.909H374.401V131.341C374.401 131.858 374.546 132.27 374.835 132.578C375.127 132.886 375.5 133.04 375.952 133.04C376.223 133.04 376.499 132.971 376.779 132.832C377.062 132.694 377.299 132.481 377.49 132.195C377.683 131.909 377.78 131.544 377.78 131.101ZM380.865 134V126.909H381.955V134H380.865ZM381.419 125.727C381.207 125.727 381.024 125.655 380.87 125.51C380.719 125.366 380.644 125.192 380.644 124.989C380.644 124.786 380.719 124.612 380.87 124.467C381.024 124.322 381.207 124.25 381.419 124.25C381.632 124.25 381.813 124.322 381.964 124.467C382.118 124.612 382.195 124.786 382.195 124.989C382.195 125.192 382.118 125.366 381.964 125.51C381.813 125.655 381.632 125.727 381.419 125.727ZM384.744 134.074C384.517 134.074 384.321 133.992 384.158 133.829C383.995 133.666 383.913 133.471 383.913 133.243C383.913 133.015 383.995 132.82 384.158 132.657C384.321 132.493 384.517 132.412 384.744 132.412C384.972 132.412 385.167 132.493 385.331 132.657C385.494 132.82 385.575 133.015 385.575 133.243C385.575 133.394 385.537 133.532 385.46 133.658C385.386 133.785 385.286 133.886 385.16 133.963C385.037 134.037 384.898 134.074 384.744 134.074ZM390.411 134.148C389.746 134.148 389.174 133.991 388.694 133.677C388.214 133.363 387.844 132.931 387.586 132.38C387.327 131.829 387.198 131.199 387.198 130.491C387.198 129.771 387.33 129.136 387.595 128.585C387.863 128.031 388.235 127.598 388.712 127.288C389.192 126.974 389.752 126.817 390.393 126.817C390.891 126.817 391.34 126.909 391.741 127.094C392.141 127.278 392.468 127.537 392.724 127.869C392.979 128.202 393.138 128.589 393.199 129.033H392.11C392.027 128.71 391.842 128.423 391.556 128.174C391.273 127.922 390.891 127.795 390.411 127.795C389.986 127.795 389.614 127.906 389.294 128.128C388.977 128.346 388.729 128.656 388.551 129.056C388.375 129.453 388.287 129.919 388.287 130.455C388.287 131.002 388.374 131.479 388.546 131.886C388.721 132.292 388.968 132.607 389.285 132.832C389.605 133.057 389.98 133.169 390.411 133.169C390.694 133.169 390.951 133.12 391.182 133.021C391.413 132.923 391.608 132.781 391.768 132.597C391.928 132.412 392.042 132.19 392.11 131.932H393.199C393.138 132.35 392.985 132.727 392.742 133.063C392.502 133.395 392.184 133.66 391.787 133.857C391.393 134.051 390.934 134.148 390.411 134.148ZM397.673 134.148C397.033 134.148 396.471 133.995 395.988 133.691C395.508 133.386 395.132 132.96 394.861 132.412C394.594 131.864 394.46 131.224 394.46 130.491C394.46 129.753 394.594 129.108 394.861 128.557C395.132 128.006 395.508 127.578 395.988 127.274C396.471 126.969 397.033 126.817 397.673 126.817C398.313 126.817 398.873 126.969 399.353 127.274C399.836 127.578 400.212 128.006 400.48 128.557C400.75 129.108 400.886 129.753 400.886 130.491C400.886 131.224 400.75 131.864 400.48 132.412C400.212 132.96 399.836 133.386 399.353 133.691C398.873 133.995 398.313 134.148 397.673 134.148ZM397.673 133.169C398.159 133.169 398.559 133.044 398.873 132.795C399.187 132.546 399.419 132.218 399.57 131.812C399.721 131.406 399.796 130.965 399.796 130.491C399.796 130.018 399.721 129.576 399.57 129.167C399.419 128.757 399.187 128.426 398.873 128.174C398.559 127.922 398.159 127.795 397.673 127.795C397.186 127.795 396.786 127.922 396.472 128.174C396.159 128.426 395.926 128.757 395.775 129.167C395.625 129.576 395.549 130.018 395.549 130.491C395.549 130.965 395.625 131.406 395.775 131.812C395.926 132.218 396.159 132.546 396.472 132.795C396.786 133.044 397.186 133.169 397.673 133.169ZM402.549 134V126.909H403.601V128.017H403.694C403.842 127.638 404.08 127.345 404.409 127.135C404.739 126.923 405.134 126.817 405.596 126.817C406.064 126.817 406.453 126.923 406.764 127.135C407.078 127.345 407.322 127.638 407.498 128.017H407.572C407.753 127.651 408.026 127.36 408.389 127.145C408.752 126.926 409.187 126.817 409.695 126.817C410.329 126.817 410.848 127.015 411.251 127.412C411.654 127.806 411.856 128.42 411.856 129.254V134H410.766V129.254C410.766 128.731 410.623 128.357 410.337 128.132C410.051 127.908 409.714 127.795 409.326 127.795C408.827 127.795 408.441 127.946 408.167 128.248C407.893 128.546 407.756 128.925 407.756 129.384V134H406.648V129.143C406.648 128.74 406.518 128.416 406.256 128.169C405.994 127.92 405.657 127.795 405.245 127.795C404.962 127.795 404.697 127.871 404.451 128.022C404.208 128.172 404.011 128.382 403.86 128.65C403.712 128.914 403.638 129.22 403.638 129.568V134H402.549Z" fill="#959BA3"/>
<g clip-path="url(#clip0_893_10632)">
<path d="M540.059 126.999C540.215 126.553 540.525 126.177 540.932 125.938C541.339 125.699 541.818 125.611 542.283 125.691C542.749 125.771 543.171 126.013 543.475 126.374C543.78 126.736 543.946 127.193 543.945 127.665C543.945 128.999 541.945 129.665 541.945 129.665M541.999 132.332H542.005M548.665 128.999C548.665 132.681 545.681 135.665 541.999 135.665C538.317 135.665 535.332 132.681 535.332 128.999C535.332 125.317 538.317 122.332 541.999 122.332C545.681 122.332 548.665 125.317 548.665 128.999Z" stroke="#B8BFC7" stroke-width="1.33333" stroke-linecap="round" stroke-linejoin="round"/>
</g>
<rect x="242.5" y="111.5" width="319" height="35" rx="2.5" stroke="#D8DEE9"/>
<path d="M242.58 156.21V155.273H249.125V156.21H246.381V164H245.324V156.21H242.58ZM251.625 160.062V164H250.62V155.273H251.625V158.477H251.711C251.864 158.139 252.094 157.871 252.401 157.672C252.711 157.47 253.123 157.369 253.637 157.369C254.083 157.369 254.473 157.459 254.809 157.638C255.144 157.814 255.404 158.085 255.588 158.452C255.776 158.815 255.87 159.278 255.87 159.841V164H254.864V159.909C254.864 159.389 254.729 158.987 254.459 158.703C254.192 158.416 253.821 158.273 253.347 158.273C253.017 158.273 252.722 158.342 252.461 158.482C252.202 158.621 251.998 158.824 251.847 159.091C251.699 159.358 251.625 159.682 251.625 160.062ZM257.71 164V157.455H258.715V164H257.71ZM258.221 156.364C258.025 156.364 257.856 156.297 257.714 156.163C257.575 156.03 257.505 155.869 257.505 155.682C257.505 155.494 257.575 155.334 257.714 155.2C257.856 155.067 258.025 155 258.221 155C258.417 155 258.585 155.067 258.724 155.2C258.866 155.334 258.937 155.494 258.937 155.682C258.937 155.869 258.866 156.03 258.724 156.163C258.585 156.297 258.417 156.364 258.221 156.364ZM265.194 158.92L264.29 159.176C264.233 159.026 264.15 158.879 264.039 158.737C263.931 158.592 263.783 158.473 263.596 158.379C263.408 158.286 263.168 158.239 262.875 158.239C262.475 158.239 262.141 158.331 261.874 158.516C261.61 158.697 261.478 158.929 261.478 159.21C261.478 159.46 261.569 159.658 261.75 159.803C261.932 159.947 262.216 160.068 262.603 160.165L263.574 160.403C264.159 160.545 264.596 160.763 264.882 161.055C265.169 161.345 265.313 161.719 265.313 162.176C265.313 162.551 265.205 162.886 264.989 163.182C264.776 163.477 264.478 163.71 264.094 163.881C263.711 164.051 263.265 164.136 262.756 164.136C262.088 164.136 261.536 163.991 261.098 163.702C260.661 163.412 260.384 162.989 260.267 162.432L261.222 162.193C261.313 162.545 261.485 162.81 261.738 162.986C261.993 163.162 262.327 163.25 262.739 163.25C263.208 163.25 263.58 163.151 263.855 162.952C264.134 162.75 264.273 162.509 264.273 162.227C264.273 162 264.194 161.81 264.034 161.656C263.875 161.5 263.631 161.384 263.301 161.307L262.211 161.051C261.611 160.909 261.171 160.689 260.89 160.391C260.611 160.089 260.472 159.713 260.472 159.261C260.472 158.892 260.576 158.565 260.783 158.281C260.993 157.997 261.279 157.774 261.64 157.612C262.003 157.45 262.415 157.369 262.875 157.369C263.523 157.369 264.032 157.511 264.401 157.795C264.773 158.08 265.037 158.455 265.194 158.92ZM270.202 164V157.455H271.207V164H270.202ZM270.713 156.364C270.517 156.364 270.348 156.297 270.206 156.163C270.067 156.03 269.997 155.869 269.997 155.682C269.997 155.494 270.067 155.334 270.206 155.2C270.348 155.067 270.517 155 270.713 155C270.909 155 271.077 155.067 271.216 155.2C271.358 155.334 271.429 155.494 271.429 155.682C271.429 155.869 271.358 156.03 271.216 156.163C271.077 156.297 270.909 156.364 270.713 156.364ZM277.686 158.92L276.782 159.176C276.725 159.026 276.642 158.879 276.531 158.737C276.423 158.592 276.275 158.473 276.088 158.379C275.9 158.286 275.66 158.239 275.368 158.239C274.967 158.239 274.633 158.331 274.366 158.516C274.102 158.697 273.97 158.929 273.97 159.21C273.97 159.46 274.061 159.658 274.243 159.803C274.424 159.947 274.708 160.068 275.095 160.165L276.066 160.403C276.652 160.545 277.088 160.763 277.375 161.055C277.662 161.345 277.805 161.719 277.805 162.176C277.805 162.551 277.697 162.886 277.481 163.182C277.268 163.477 276.97 163.71 276.586 163.881C276.203 164.051 275.757 164.136 275.248 164.136C274.581 164.136 274.028 163.991 273.591 163.702C273.153 163.412 272.876 162.989 272.76 162.432L273.714 162.193C273.805 162.545 273.977 162.81 274.23 162.986C274.485 163.162 274.819 163.25 275.231 163.25C275.7 163.25 276.072 163.151 276.348 162.952C276.626 162.75 276.765 162.509 276.765 162.227C276.765 162 276.686 161.81 276.527 161.656C276.368 161.5 276.123 161.384 275.794 161.307L274.703 161.051C274.103 160.909 273.663 160.689 273.382 160.391C273.103 160.089 272.964 159.713 272.964 159.261C272.964 158.892 273.068 158.565 273.275 158.281C273.485 157.997 273.771 157.774 274.132 157.612C274.495 157.45 274.907 157.369 275.368 157.369C276.015 157.369 276.524 157.511 276.893 157.795C277.265 158.08 277.529 158.455 277.686 158.92ZM284.62 164.153C284.205 164.153 283.829 164.075 283.491 163.919C283.153 163.76 282.884 163.531 282.685 163.233C282.487 162.932 282.387 162.568 282.387 162.142C282.387 161.767 282.461 161.463 282.609 161.23C282.756 160.994 282.954 160.81 283.201 160.676C283.448 160.543 283.721 160.443 284.019 160.378C284.32 160.31 284.623 160.256 284.927 160.216C285.325 160.165 285.647 160.126 285.894 160.101C286.144 160.072 286.326 160.026 286.44 159.96C286.556 159.895 286.614 159.781 286.614 159.619V159.585C286.614 159.165 286.499 158.838 286.269 158.605C286.042 158.372 285.697 158.256 285.234 158.256C284.754 158.256 284.377 158.361 284.104 158.571C283.832 158.781 283.64 159.006 283.529 159.244L282.575 158.903C282.745 158.506 282.972 158.196 283.256 157.974C283.543 157.75 283.856 157.594 284.194 157.506C284.535 157.415 284.87 157.369 285.2 157.369C285.41 157.369 285.651 157.395 285.924 157.446C286.2 157.494 286.465 157.595 286.721 157.749C286.979 157.902 287.194 158.134 287.364 158.443C287.535 158.753 287.62 159.168 287.62 159.688V164H286.614V163.114H286.563C286.495 163.256 286.381 163.408 286.222 163.57C286.063 163.732 285.852 163.869 285.587 163.983C285.323 164.097 285.001 164.153 284.62 164.153ZM284.773 163.25C285.171 163.25 285.506 163.172 285.779 163.016C286.055 162.859 286.262 162.658 286.401 162.411C286.543 162.163 286.614 161.903 286.614 161.631V160.71C286.572 160.761 286.478 160.808 286.333 160.851C286.191 160.891 286.026 160.926 285.839 160.957C285.654 160.986 285.474 161.011 285.298 161.034C285.124 161.054 284.984 161.071 284.876 161.085C284.614 161.119 284.37 161.175 284.143 161.251C283.918 161.325 283.737 161.437 283.597 161.588C283.461 161.736 283.393 161.937 283.393 162.193C283.393 162.543 283.522 162.807 283.781 162.986C284.042 163.162 284.373 163.25 284.773 163.25ZM293.836 160.062V164H292.831V155.273H293.836V158.477H293.922C294.075 158.139 294.305 157.871 294.612 157.672C294.922 157.47 295.333 157.369 295.848 157.369C296.294 157.369 296.684 157.459 297.02 157.638C297.355 157.814 297.615 158.085 297.799 158.452C297.987 158.815 298.081 159.278 298.081 159.841V164H297.075V159.909C297.075 159.389 296.94 158.987 296.67 158.703C296.403 158.416 296.032 158.273 295.558 158.273C295.228 158.273 294.933 158.342 294.672 158.482C294.413 158.621 294.208 158.824 294.058 159.091C293.91 159.358 293.836 159.682 293.836 160.062ZM299.92 164V157.455H300.926V164H299.92ZM300.432 156.364C300.236 156.364 300.067 156.297 299.925 156.163C299.786 156.03 299.716 155.869 299.716 155.682C299.716 155.494 299.786 155.334 299.925 155.2C300.067 155.067 300.236 155 300.432 155C300.628 155 300.795 155.067 300.935 155.2C301.077 155.334 301.148 155.494 301.148 155.682C301.148 155.869 301.077 156.03 300.935 156.163C300.795 156.297 300.628 156.364 300.432 156.364ZM303.774 160.062V164H302.768V157.455H303.74V158.477H303.825C303.978 158.145 304.211 157.878 304.524 157.676C304.836 157.472 305.24 157.369 305.734 157.369C306.177 157.369 306.565 157.46 306.897 157.642C307.23 157.821 307.488 158.094 307.673 158.46C307.858 158.824 307.95 159.284 307.95 159.841V164H306.944V159.909C306.944 159.395 306.811 158.994 306.544 158.707C306.277 158.418 305.91 158.273 305.444 158.273C305.123 158.273 304.836 158.342 304.583 158.482C304.333 158.621 304.136 158.824 303.991 159.091C303.846 159.358 303.774 159.682 303.774 160.062ZM312.634 157.455V158.307H309.242V157.455H312.634ZM310.231 155.886H311.237V162.125C311.237 162.409 311.278 162.622 311.36 162.764C311.445 162.903 311.553 162.997 311.684 163.045C311.817 163.091 311.958 163.114 312.106 163.114C312.217 163.114 312.308 163.108 312.379 163.097C312.45 163.082 312.506 163.071 312.549 163.062L312.754 163.966C312.685 163.991 312.59 164.017 312.468 164.043C312.346 164.071 312.191 164.085 312.004 164.085C311.719 164.085 311.441 164.024 311.168 163.902C310.898 163.78 310.674 163.594 310.495 163.344C310.319 163.094 310.231 162.778 310.231 162.398V155.886ZM320.369 157.455V158.307H316.977V157.455H320.369ZM317.965 155.886H318.971V162.125C318.971 162.409 319.012 162.622 319.094 162.764C319.18 162.903 319.288 162.997 319.418 163.045C319.552 163.091 319.692 163.114 319.84 163.114C319.951 163.114 320.042 163.108 320.113 163.097C320.184 163.082 320.241 163.071 320.283 163.062L320.488 163.966C320.42 163.991 320.325 164.017 320.202 164.043C320.08 164.071 319.925 164.085 319.738 164.085C319.454 164.085 319.175 164.024 318.903 163.902C318.633 163.78 318.408 163.594 318.229 163.344C318.053 163.094 317.965 162.778 317.965 162.398V155.886ZM324.555 164.136C323.925 164.136 323.381 163.997 322.923 163.719C322.469 163.438 322.118 163.045 321.871 162.543C321.626 162.037 321.504 161.449 321.504 160.778C321.504 160.108 321.626 159.517 321.871 159.006C322.118 158.491 322.462 158.091 322.902 157.804C323.345 157.514 323.862 157.369 324.453 157.369C324.794 157.369 325.131 157.426 325.463 157.54C325.795 157.653 326.098 157.838 326.371 158.094C326.643 158.347 326.861 158.682 327.023 159.099C327.185 159.517 327.266 160.031 327.266 160.642V161.068H322.22V160.199H326.243C326.243 159.83 326.169 159.5 326.021 159.21C325.876 158.92 325.669 158.692 325.399 158.524C325.132 158.357 324.817 158.273 324.453 158.273C324.053 158.273 323.706 158.372 323.413 158.571C323.124 158.767 322.901 159.023 322.744 159.338C322.588 159.653 322.51 159.991 322.51 160.352V160.932C322.51 161.426 322.595 161.845 322.766 162.189C322.939 162.53 323.179 162.79 323.486 162.969C323.793 163.145 324.149 163.233 324.555 163.233C324.82 163.233 325.058 163.196 325.271 163.122C325.487 163.045 325.673 162.932 325.83 162.781C325.986 162.628 326.107 162.437 326.192 162.21L327.163 162.483C327.061 162.812 326.889 163.102 326.648 163.352C326.406 163.599 326.108 163.793 325.753 163.932C325.398 164.068 324.999 164.136 324.555 164.136ZM329.37 157.455L330.938 160.131L332.506 157.455H333.665L331.551 160.727L333.665 164H332.506L330.938 161.46L329.37 164H328.211L330.29 160.727L328.211 157.455H329.37ZM337.947 157.455V158.307H334.555V157.455H337.947ZM335.543 155.886H336.549V162.125C336.549 162.409 336.59 162.622 336.673 162.764C336.758 162.903 336.866 162.997 336.996 163.045C337.13 163.091 337.271 163.114 337.418 163.114C337.529 163.114 337.62 163.108 337.691 163.097C337.762 163.082 337.819 163.071 337.862 163.062L338.066 163.966C337.998 163.991 337.903 164.017 337.781 164.043C337.658 164.071 337.504 164.085 337.316 164.085C337.032 164.085 336.754 164.024 336.481 163.902C336.211 163.78 335.987 163.594 335.808 163.344C335.631 163.094 335.543 162.778 335.543 162.398V155.886ZM345.681 157.455V158.307H342.289V157.455H345.681ZM343.278 155.886H344.283V162.125C344.283 162.409 344.325 162.622 344.407 162.764C344.492 162.903 344.6 162.997 344.731 163.045C344.864 163.091 345.005 163.114 345.153 163.114C345.263 163.114 345.354 163.108 345.425 163.097C345.496 163.082 345.553 163.071 345.596 163.062L345.8 163.966C345.732 163.991 345.637 164.017 345.515 164.043C345.393 164.071 345.238 164.085 345.05 164.085C344.766 164.085 344.488 164.024 344.215 163.902C343.945 163.78 343.721 163.594 343.542 163.344C343.366 163.094 343.278 162.778 343.278 162.398V155.886ZM349.783 164.136C349.192 164.136 348.673 163.996 348.227 163.714C347.784 163.433 347.438 163.04 347.188 162.534C346.94 162.028 346.817 161.437 346.817 160.761C346.817 160.08 346.94 159.484 347.188 158.976C347.438 158.467 347.784 158.072 348.227 157.791C348.673 157.51 349.192 157.369 349.783 157.369C350.374 157.369 350.891 157.51 351.334 157.791C351.78 158.072 352.126 158.467 352.374 158.976C352.624 159.484 352.749 160.08 352.749 160.761C352.749 161.437 352.624 162.028 352.374 162.534C352.126 163.04 351.78 163.433 351.334 163.714C350.891 163.996 350.374 164.136 349.783 164.136ZM349.783 163.233C350.232 163.233 350.601 163.118 350.891 162.888C351.18 162.658 351.395 162.355 351.534 161.98C351.673 161.605 351.743 161.199 351.743 160.761C351.743 160.324 351.673 159.916 351.534 159.538C351.395 159.161 351.18 158.855 350.891 158.622C350.601 158.389 350.232 158.273 349.783 158.273C349.334 158.273 348.964 158.389 348.675 158.622C348.385 158.855 348.17 159.161 348.031 159.538C347.892 159.916 347.822 160.324 347.822 160.761C347.822 161.199 347.892 161.605 348.031 161.98C348.17 162.355 348.385 162.658 348.675 162.888C348.964 163.118 349.334 163.233 349.783 163.233ZM358.664 160.062V164H357.659V155.273H358.664V158.477H358.75C358.903 158.139 359.133 157.871 359.44 157.672C359.75 157.47 360.162 157.369 360.676 157.369C361.122 157.369 361.512 157.459 361.848 157.638C362.183 157.814 362.443 158.085 362.627 158.452C362.815 158.815 362.909 159.278 362.909 159.841V164H361.903V159.909C361.903 159.389 361.768 158.987 361.498 158.703C361.231 158.416 360.86 158.273 360.386 158.273C360.056 158.273 359.761 158.342 359.5 158.482C359.241 158.621 359.037 158.824 358.886 159.091C358.738 159.358 358.664 159.682 358.664 160.062ZM367.493 164.136C366.862 164.136 366.318 163.997 365.861 163.719C365.406 163.438 365.055 163.045 364.808 162.543C364.564 162.037 364.442 161.449 364.442 160.778C364.442 160.108 364.564 159.517 364.808 159.006C365.055 158.491 365.399 158.091 365.839 157.804C366.283 157.514 366.8 157.369 367.391 157.369C367.732 157.369 368.068 157.426 368.401 157.54C368.733 157.653 369.036 157.838 369.308 158.094C369.581 158.347 369.798 158.682 369.96 159.099C370.122 159.517 370.203 160.031 370.203 160.642V161.068H365.158V160.199H369.18C369.18 159.83 369.107 159.5 368.959 159.21C368.814 158.92 368.607 158.692 368.337 158.524C368.07 158.357 367.754 158.273 367.391 158.273C366.99 158.273 366.643 158.372 366.351 158.571C366.061 158.767 365.838 159.023 365.682 159.338C365.526 159.653 365.447 159.991 365.447 160.352V160.932C365.447 161.426 365.533 161.845 365.703 162.189C365.876 162.53 366.116 162.79 366.423 162.969C366.73 163.145 367.087 163.233 367.493 163.233C367.757 163.233 367.996 163.196 368.209 163.122C368.425 163.045 368.611 162.932 368.767 162.781C368.923 162.628 369.044 162.437 369.129 162.21L370.101 162.483C369.999 162.812 369.827 163.102 369.585 163.352C369.344 163.599 369.045 163.793 368.69 163.932C368.335 164.068 367.936 164.136 367.493 164.136ZM372.739 155.273V164H371.733V155.273H372.739ZM374.581 166.455V157.455H375.552V158.494H375.672C375.745 158.381 375.848 158.236 375.978 158.06C376.112 157.881 376.302 157.722 376.549 157.582C376.799 157.44 377.137 157.369 377.564 157.369C378.115 157.369 378.6 157.507 379.021 157.783C379.441 158.058 379.77 158.449 380.005 158.955C380.241 159.46 380.359 160.057 380.359 160.744C380.359 161.438 380.241 162.038 380.005 162.547C379.77 163.053 379.443 163.445 379.025 163.723C378.608 163.999 378.126 164.136 377.581 164.136C377.16 164.136 376.824 164.067 376.571 163.928C376.318 163.786 376.123 163.625 375.987 163.446C375.85 163.264 375.745 163.114 375.672 162.994H375.586V166.455H374.581ZM375.569 160.727C375.569 161.222 375.642 161.658 375.787 162.036C375.931 162.411 376.143 162.705 376.422 162.918C376.7 163.128 377.041 163.233 377.444 163.233C377.865 163.233 378.216 163.122 378.497 162.901C378.781 162.676 378.994 162.375 379.136 161.997C379.281 161.616 379.353 161.193 379.353 160.727C379.353 160.267 379.282 159.852 379.14 159.483C379.001 159.111 378.789 158.817 378.505 158.601C378.224 158.382 377.87 158.273 377.444 158.273C377.035 158.273 376.691 158.376 376.413 158.584C376.135 158.788 375.924 159.075 375.782 159.445C375.64 159.811 375.569 160.239 375.569 160.727ZM389.393 161.324V157.455H390.399V164H389.393V162.892H389.325C389.172 163.224 388.933 163.507 388.609 163.74C388.285 163.97 387.876 164.085 387.382 164.085C386.973 164.085 386.609 163.996 386.291 163.817C385.973 163.635 385.723 163.362 385.541 162.999C385.359 162.632 385.268 162.17 385.268 161.614V157.455H386.274V161.545C386.274 162.023 386.407 162.403 386.674 162.688C386.944 162.972 387.288 163.114 387.706 163.114C387.956 163.114 388.21 163.05 388.468 162.922C388.73 162.794 388.949 162.598 389.125 162.334C389.304 162.07 389.393 161.733 389.393 161.324ZM396.877 158.92L395.974 159.176C395.917 159.026 395.833 158.879 395.722 158.737C395.614 158.592 395.467 158.473 395.279 158.379C395.092 158.286 394.852 158.239 394.559 158.239C394.158 158.239 393.825 158.331 393.558 158.516C393.293 158.697 393.161 158.929 393.161 159.21C393.161 159.46 393.252 159.658 393.434 159.803C393.616 159.947 393.9 160.068 394.286 160.165L395.258 160.403C395.843 160.545 396.279 160.763 396.566 161.055C396.853 161.345 396.996 161.719 396.996 162.176C396.996 162.551 396.888 162.886 396.673 163.182C396.46 163.477 396.161 163.71 395.778 163.881C395.394 164.051 394.948 164.136 394.44 164.136C393.772 164.136 393.219 163.991 392.782 163.702C392.344 163.412 392.067 162.989 391.951 162.432L392.906 162.193C392.996 162.545 393.168 162.81 393.421 162.986C393.677 163.162 394.011 163.25 394.423 163.25C394.891 163.25 395.263 163.151 395.539 162.952C395.817 162.75 395.957 162.509 395.957 162.227C395.957 162 395.877 161.81 395.718 161.656C395.559 161.5 395.315 161.384 394.985 161.307L393.894 161.051C393.295 160.909 392.854 160.689 392.573 160.391C392.295 160.089 392.156 159.713 392.156 159.261C392.156 158.892 392.259 158.565 392.467 158.281C392.677 157.997 392.962 157.774 393.323 157.612C393.687 157.45 394.099 157.369 394.559 157.369C395.207 157.369 395.715 157.511 396.085 157.795C396.457 158.08 396.721 158.455 396.877 158.92ZM401.255 164.136C400.624 164.136 400.08 163.997 399.623 163.719C399.168 163.438 398.817 163.045 398.57 162.543C398.326 162.037 398.203 161.449 398.203 160.778C398.203 160.108 398.326 159.517 398.57 159.006C398.817 158.491 399.161 158.091 399.601 157.804C400.044 157.514 400.561 157.369 401.152 157.369C401.493 157.369 401.83 157.426 402.162 157.54C402.495 157.653 402.797 157.838 403.07 158.094C403.343 158.347 403.56 158.682 403.722 159.099C403.884 159.517 403.965 160.031 403.965 160.642V161.068H398.919V160.199H402.942C402.942 159.83 402.868 159.5 402.721 159.21C402.576 158.92 402.368 158.692 402.098 158.524C401.831 158.357 401.516 158.273 401.152 158.273C400.752 158.273 400.405 158.372 400.113 158.571C399.823 158.767 399.6 159.023 399.444 159.338C399.287 159.653 399.209 159.991 399.209 160.352V160.932C399.209 161.426 399.294 161.845 399.465 162.189C399.638 162.53 399.878 162.79 400.185 162.969C400.492 163.145 400.848 163.233 401.255 163.233C401.519 163.233 401.757 163.196 401.971 163.122C402.186 163.045 402.373 162.932 402.529 162.781C402.685 162.628 402.806 162.437 402.891 162.21L403.863 162.483C403.76 162.812 403.588 163.102 403.347 163.352C403.105 163.599 402.807 163.793 402.452 163.932C402.097 164.068 401.698 164.136 401.255 164.136ZM405.495 164V157.455H406.466V158.443H406.534C406.654 158.119 406.87 157.857 407.182 157.655C407.495 157.453 407.847 157.352 408.239 157.352C408.313 157.352 408.405 157.354 408.516 157.357C408.627 157.359 408.711 157.364 408.767 157.369V158.392C408.733 158.384 408.655 158.371 408.533 158.354C408.414 158.334 408.287 158.324 408.154 158.324C407.836 158.324 407.551 158.391 407.301 158.524C407.054 158.655 406.858 158.837 406.713 159.07C406.571 159.3 406.5 159.562 406.5 159.858V164H405.495ZM409.942 164.068C409.732 164.068 409.552 163.993 409.401 163.842C409.251 163.692 409.175 163.511 409.175 163.301C409.175 163.091 409.251 162.911 409.401 162.76C409.552 162.609 409.732 162.534 409.942 162.534C410.153 162.534 410.333 162.609 410.484 162.76C410.634 162.911 410.71 163.091 410.71 163.301C410.71 163.44 410.674 163.568 410.603 163.685C410.535 163.801 410.442 163.895 410.326 163.966C410.212 164.034 410.085 164.068 409.942 164.068Z" fill="#959BA3"/>
</g>
<path d="M272.335 123.999C272.335 123.082 271.585 122.332 270.668 122.332H257.335C256.418 122.332 255.668 123.082 255.668 123.999M272.335 123.999V133.999C272.335 134.915 271.585 135.665 270.668 135.665H257.335C256.418 135.665 255.668 134.915 255.668 133.999V123.999M272.335 123.999L264.001 129.832L255.668 123.999" stroke="#959BA3" stroke-width="1.66667" stroke-linecap="round" stroke-linejoin="round"/>
<path d="M285.878 134.148C285.238 134.148 284.676 133.995 284.193 133.691C283.713 133.386 283.337 132.96 283.066 132.412C282.799 131.864 282.665 131.224 282.665 130.491C282.665 129.753 282.799 129.108 283.066 128.557C283.337 128.006 283.713 127.578 284.193 127.274C284.676 126.969 285.238 126.817 285.878 126.817C286.518 126.817 287.078 126.969 287.558 127.274C288.041 127.578 288.417 128.006 288.685 128.557C288.955 129.108 289.091 129.753 289.091 130.491C289.091 131.224 288.955 131.864 288.685 132.412C288.417 132.96 288.041 133.386 287.558 133.691C287.078 133.995 286.518 134.148 285.878 134.148ZM285.878 133.169C286.364 133.169 286.764 133.044 287.078 132.795C287.392 132.546 287.624 132.218 287.775 131.812C287.926 131.406 288.001 130.965 288.001 130.491C288.001 130.018 287.926 129.576 287.775 129.167C287.624 128.757 287.392 128.426 287.078 128.174C286.764 127.922 286.364 127.795 285.878 127.795C285.392 127.795 284.991 127.922 284.678 128.174C284.364 128.426 284.131 128.757 283.98 129.167C283.83 129.576 283.754 130.018 283.754 130.491C283.754 130.965 283.83 131.406 283.98 131.812C284.131 132.218 284.364 132.546 284.678 132.795C284.991 133.044 285.392 133.169 285.878 133.169ZM291.843 124.545V134H290.754V124.545H291.843ZM293.839 134V126.909H294.928V134H293.839ZM294.393 125.727C294.181 125.727 293.997 125.655 293.844 125.51C293.693 125.366 293.617 125.192 293.617 124.989C293.617 124.786 293.693 124.612 293.844 124.467C293.997 124.322 294.181 124.25 294.393 124.25C294.605 124.25 294.787 124.322 294.938 124.467C295.092 124.612 295.169 124.786 295.169 124.989C295.169 125.192 295.092 125.366 294.938 125.51C294.787 125.655 294.605 125.727 294.393 125.727ZM302.722 126.909L300.1 134H298.992L296.37 126.909H297.552L299.509 132.56H299.583L301.54 126.909H302.722ZM304.16 134V126.909H305.25V134H304.16ZM304.714 125.727C304.502 125.727 304.319 125.655 304.165 125.51C304.014 125.366 303.939 125.192 303.939 124.989C303.939 124.786 304.014 124.612 304.165 124.467C304.319 124.322 304.502 124.25 304.714 124.25C304.927 124.25 305.108 124.322 305.259 124.467C305.413 124.612 305.49 124.786 305.49 124.989C305.49 125.192 305.413 125.366 305.259 125.51C305.108 125.655 304.927 125.727 304.714 125.727ZM309.332 134.166C308.883 134.166 308.475 134.082 308.108 133.912C307.742 133.74 307.451 133.492 307.236 133.169C307.021 132.843 306.913 132.449 306.913 131.987C306.913 131.581 306.993 131.252 307.153 130.999C307.313 130.744 307.527 130.544 307.795 130.399C308.062 130.254 308.358 130.147 308.681 130.076C309.007 130.002 309.335 129.944 309.664 129.901C310.095 129.845 310.444 129.804 310.712 129.776C310.983 129.745 311.18 129.694 311.303 129.624C311.429 129.553 311.492 129.43 311.492 129.254V129.217C311.492 128.762 311.368 128.408 311.118 128.156C310.872 127.903 310.498 127.777 309.997 127.777C309.477 127.777 309.069 127.891 308.773 128.119C308.478 128.346 308.27 128.589 308.15 128.848L307.116 128.479C307.301 128.048 307.547 127.712 307.855 127.472C308.165 127.229 308.504 127.06 308.87 126.964C309.24 126.866 309.603 126.817 309.96 126.817C310.187 126.817 310.449 126.844 310.744 126.9C311.043 126.952 311.331 127.061 311.608 127.228C311.888 127.394 312.12 127.645 312.305 127.98C312.49 128.316 312.582 128.765 312.582 129.328V134H311.492V133.04H311.437C311.363 133.194 311.24 133.358 311.068 133.534C310.895 133.709 310.666 133.858 310.38 133.982C310.094 134.105 309.744 134.166 309.332 134.166ZM309.498 133.188C309.929 133.188 310.292 133.103 310.588 132.934C310.886 132.764 311.111 132.546 311.262 132.278C311.415 132.01 311.492 131.729 311.492 131.433V130.436C311.446 130.491 311.345 130.542 311.188 130.588C311.034 130.632 310.855 130.67 310.652 130.704C310.452 130.735 310.257 130.762 310.066 130.787C309.878 130.808 309.726 130.827 309.609 130.842C309.326 130.879 309.061 130.939 308.815 131.022C308.572 131.102 308.375 131.224 308.224 131.387C308.076 131.547 308.002 131.766 308.002 132.043C308.002 132.421 308.142 132.707 308.422 132.901C308.706 133.092 309.064 133.188 309.498 133.188ZM320.018 136.493C319.076 136.493 318.244 136.364 317.52 136.105C316.797 135.85 316.189 135.473 315.697 134.974C315.204 134.475 314.832 133.865 314.58 133.141C314.327 132.418 314.201 131.59 314.201 130.658C314.201 129.756 314.329 128.95 314.584 128.239C314.843 127.528 315.217 126.924 315.706 126.429C316.198 125.93 316.796 125.55 317.497 125.289C318.202 125.027 318.999 124.896 319.889 124.896C320.753 124.896 321.511 125.038 322.16 125.321C322.812 125.601 323.357 125.981 323.794 126.461C324.234 126.938 324.564 127.475 324.782 128.072C325.004 128.67 325.114 129.285 325.114 129.919C325.114 130.365 325.093 130.818 325.05 131.276C325.007 131.735 324.916 132.156 324.777 132.541C324.639 132.923 324.425 133.231 324.136 133.464C323.85 133.698 323.462 133.815 322.972 133.815C322.757 133.815 322.52 133.781 322.261 133.714C322.003 133.646 321.774 133.534 321.574 133.377C321.374 133.22 321.255 133.009 321.218 132.744H321.163C321.089 132.923 320.975 133.092 320.821 133.252C320.67 133.412 320.472 133.54 320.226 133.635C319.982 133.731 319.685 133.772 319.335 133.76C318.935 133.745 318.582 133.655 318.277 133.492C317.973 133.326 317.717 133.101 317.511 132.818C317.308 132.532 317.154 132.201 317.049 131.826C316.948 131.447 316.897 131.039 316.897 130.602C316.897 130.187 316.959 129.807 317.082 129.462C317.205 129.117 317.376 128.816 317.594 128.557C317.816 128.299 318.074 128.092 318.37 127.939C318.668 127.782 318.99 127.685 319.335 127.648C319.642 127.617 319.922 127.631 320.175 127.689C320.427 127.745 320.635 127.829 320.798 127.943C320.961 128.054 321.064 128.177 321.107 128.312H321.163V127.795H322.141V131.969C322.141 132.227 322.214 132.455 322.358 132.652C322.503 132.849 322.714 132.947 322.991 132.947C323.305 132.947 323.545 132.84 323.711 132.624C323.88 132.409 323.996 132.076 324.057 131.627C324.122 131.178 324.154 130.602 324.154 129.901C324.154 129.488 324.097 129.082 323.983 128.682C323.873 128.279 323.703 127.902 323.476 127.551C323.251 127.2 322.966 126.891 322.622 126.623C322.277 126.355 321.872 126.146 321.407 125.995C320.946 125.841 320.421 125.764 319.833 125.764C319.11 125.764 318.462 125.877 317.89 126.101C317.32 126.323 316.836 126.647 316.435 127.075C316.038 127.5 315.735 128.017 315.526 128.626C315.32 129.233 315.217 129.922 315.217 130.695C315.217 131.479 315.32 132.176 315.526 132.786C315.735 133.395 316.043 133.909 316.449 134.328C316.859 134.746 317.365 135.063 317.968 135.279C318.571 135.497 319.267 135.607 320.055 135.607C320.393 135.607 320.727 135.574 321.057 135.51C321.386 135.445 321.677 135.374 321.929 135.297C322.181 135.22 322.363 135.163 322.474 135.126L322.732 135.976C322.542 136.056 322.292 136.136 321.984 136.216C321.68 136.296 321.354 136.362 321.006 136.414C320.661 136.467 320.332 136.493 320.018 136.493ZM319.482 132.818C319.895 132.818 320.229 132.735 320.484 132.569C320.74 132.403 320.926 132.152 321.043 131.816C321.16 131.481 321.218 131.058 321.218 130.547C321.218 130.03 321.153 129.627 321.024 129.337C320.895 129.048 320.704 128.845 320.452 128.728C320.199 128.611 319.889 128.553 319.519 128.553C319.168 128.553 318.868 128.645 318.619 128.83C318.373 129.011 318.184 129.254 318.051 129.559C317.922 129.861 317.857 130.19 317.857 130.547C317.857 130.941 317.91 131.312 318.014 131.659C318.119 132.004 318.29 132.284 318.527 132.5C318.764 132.712 319.082 132.818 319.482 132.818ZM331.214 131.101V126.909H332.303V134H331.214V132.8H331.14C330.974 133.16 330.715 133.466 330.365 133.718C330.014 133.968 329.57 134.092 329.035 134.092C328.592 134.092 328.198 133.995 327.853 133.801C327.508 133.605 327.238 133.309 327.041 132.915C326.844 132.518 326.745 132.018 326.745 131.415V126.909H327.835V131.341C327.835 131.858 327.979 132.27 328.269 132.578C328.561 132.886 328.933 133.04 329.386 133.04C329.657 133.04 329.932 132.971 330.212 132.832C330.495 132.694 330.732 132.481 330.923 132.195C331.117 131.909 331.214 131.544 331.214 131.101ZM335.388 129.734V134H334.299V126.909H335.351V128.017H335.444C335.61 127.657 335.862 127.368 336.201 127.149C336.539 126.928 336.976 126.817 337.512 126.817C337.992 126.817 338.412 126.915 338.772 127.112C339.132 127.306 339.412 127.602 339.612 127.999C339.813 128.393 339.913 128.891 339.913 129.494V134H338.823V129.568C338.823 129.011 338.678 128.577 338.389 128.266C338.1 127.952 337.703 127.795 337.198 127.795C336.85 127.795 336.539 127.871 336.266 128.022C335.995 128.172 335.781 128.393 335.624 128.682C335.467 128.971 335.388 129.322 335.388 129.734ZM344.987 126.909V127.832H341.312V126.909H344.987ZM342.384 125.21H343.473V131.969C343.473 132.277 343.518 132.507 343.607 132.661C343.699 132.812 343.816 132.914 343.958 132.966C344.102 133.015 344.255 133.04 344.415 133.04C344.535 133.04 344.633 133.034 344.71 133.021C344.787 133.006 344.849 132.994 344.895 132.984L345.116 133.963C345.043 133.991 344.94 134.018 344.807 134.046C344.675 134.077 344.507 134.092 344.304 134.092C343.996 134.092 343.695 134.026 343.399 133.894C343.107 133.761 342.864 133.56 342.67 133.289C342.479 133.018 342.384 132.677 342.384 132.264V125.21ZM346.626 134V126.909H347.716V134H346.626ZM347.18 125.727C346.968 125.727 346.785 125.655 346.631 125.51C346.48 125.366 346.404 125.192 346.404 124.989C346.404 124.786 346.48 124.612 346.631 124.467C346.785 124.322 346.968 124.25 347.18 124.25C347.392 124.25 347.574 124.322 347.725 124.467C347.879 124.612 347.956 124.786 347.956 124.989C347.956 125.192 347.879 125.366 347.725 125.51C347.574 125.655 347.392 125.727 347.18 125.727ZM352.795 126.909V127.832H349.12V126.909H352.795ZM350.191 125.21H351.281V131.969C351.281 132.277 351.325 132.507 351.415 132.661C351.507 132.812 351.624 132.914 351.765 132.966C351.91 133.015 352.062 133.04 352.222 133.04C352.342 133.04 352.441 133.034 352.518 133.021C352.595 133.006 352.656 132.994 352.703 132.984L352.924 133.963C352.85 133.991 352.747 134.018 352.615 134.046C352.482 134.077 352.315 134.092 352.112 134.092C351.804 134.092 351.502 134.026 351.207 133.894C350.914 133.761 350.671 133.56 350.477 133.289C350.287 133.018 350.191 132.677 350.191 132.264V125.21ZM355.676 124.545V134H354.586V124.545H355.676ZM360.644 134.148C359.961 134.148 359.371 133.997 358.876 133.695C358.383 133.391 358.003 132.966 357.736 132.421C357.471 131.873 357.339 131.236 357.339 130.51C357.339 129.784 357.471 129.143 357.736 128.589C358.003 128.032 358.376 127.598 358.853 127.288C359.333 126.974 359.893 126.817 360.533 126.817C360.903 126.817 361.267 126.878 361.627 127.001C361.987 127.125 362.315 127.325 362.611 127.602C362.906 127.875 363.142 128.239 363.317 128.691C363.492 129.143 363.58 129.701 363.58 130.362V130.824H358.114V129.882H362.472C362.472 129.482 362.392 129.125 362.232 128.811C362.075 128.497 361.85 128.249 361.558 128.068C361.269 127.886 360.927 127.795 360.533 127.795C360.099 127.795 359.724 127.903 359.407 128.119C359.093 128.331 358.851 128.608 358.682 128.95C358.513 129.291 358.428 129.657 358.428 130.048V130.676C358.428 131.212 358.52 131.666 358.705 132.038C358.893 132.407 359.153 132.689 359.485 132.883C359.818 133.074 360.204 133.169 360.644 133.169C360.93 133.169 361.189 133.129 361.42 133.049C361.653 132.966 361.855 132.843 362.024 132.68C362.194 132.513 362.324 132.307 362.417 132.061L363.469 132.357C363.358 132.714 363.172 133.027 362.911 133.298C362.649 133.566 362.326 133.775 361.941 133.926C361.557 134.074 361.124 134.148 360.644 134.148ZM367.915 134.148C367.324 134.148 366.802 133.998 366.35 133.7C365.898 133.398 365.544 132.974 365.288 132.426C365.033 131.875 364.905 131.224 364.905 130.473C364.905 129.728 365.033 129.082 365.288 128.534C365.544 127.986 365.899 127.563 366.355 127.265C366.81 126.966 367.336 126.817 367.933 126.817C368.395 126.817 368.76 126.894 369.028 127.048C369.298 127.198 369.505 127.371 369.646 127.565C369.791 127.755 369.903 127.912 369.983 128.036H370.075V124.545H371.165V134H370.112V132.911H369.983C369.903 133.04 369.789 133.203 369.642 133.4C369.494 133.594 369.283 133.768 369.009 133.922C368.735 134.072 368.37 134.148 367.915 134.148ZM368.063 133.169C368.5 133.169 368.869 133.055 369.171 132.827C369.472 132.597 369.702 132.278 369.858 131.872C370.015 131.462 370.094 130.99 370.094 130.455C370.094 129.925 370.017 129.462 369.863 129.065C369.709 128.665 369.481 128.354 369.18 128.132C368.878 127.908 368.506 127.795 368.063 127.795C367.601 127.795 367.216 127.914 366.909 128.151C366.604 128.385 366.375 128.703 366.221 129.107C366.07 129.507 365.994 129.956 365.994 130.455C365.994 130.959 366.071 131.418 366.225 131.83C366.382 132.24 366.613 132.566 366.918 132.809C367.226 133.049 367.607 133.169 368.063 133.169ZM377.78 131.101V126.909H378.87V134H377.78V132.8H377.706C377.54 133.16 377.282 133.466 376.931 133.718C376.58 133.968 376.137 134.092 375.601 134.092C375.158 134.092 374.764 133.995 374.42 133.801C374.075 133.605 373.804 133.309 373.607 132.915C373.41 132.518 373.312 132.018 373.312 131.415V126.909H374.401V131.341C374.401 131.858 374.546 132.27 374.835 132.578C375.127 132.886 375.5 133.04 375.952 133.04C376.223 133.04 376.499 132.971 376.779 132.832C377.062 132.694 377.299 132.481 377.49 132.195C377.683 131.909 377.78 131.544 377.78 131.101ZM380.865 134V126.909H381.955V134H380.865ZM381.419 125.727C381.207 125.727 381.024 125.655 380.87 125.51C380.719 125.366 380.644 125.192 380.644 124.989C380.644 124.786 380.719 124.612 380.87 124.467C381.024 124.322 381.207 124.25 381.419 124.25C381.632 124.25 381.813 124.322 381.964 124.467C382.118 124.612 382.195 124.786 382.195 124.989C382.195 125.192 382.118 125.366 381.964 125.51C381.813 125.655 381.632 125.727 381.419 125.727ZM384.744 134.074C384.517 134.074 384.321 133.992 384.158 133.829C383.995 133.666 383.913 133.471 383.913 133.243C383.913 133.015 383.995 132.82 384.158 132.657C384.321 132.493 384.517 132.412 384.744 132.412C384.972 132.412 385.167 132.493 385.331 132.657C385.494 132.82 385.575 133.015 385.575 133.243C385.575 133.394 385.537 133.532 385.46 133.658C385.386 133.785 385.286 133.886 385.16 133.963C385.037 134.037 384.898 134.074 384.744 134.074ZM390.411 134.148C389.746 134.148 389.174 133.991 388.694 133.677C388.214 133.363 387.844 132.931 387.586 132.38C387.327 131.829 387.198 131.199 387.198 130.491C387.198 129.771 387.33 129.136 387.595 128.585C387.863 128.031 388.235 127.598 388.712 127.288C389.192 126.974 389.752 126.817 390.393 126.817C390.891 126.817 391.34 126.909 391.741 127.094C392.141 127.278 392.468 127.537 392.724 127.869C392.979 128.202 393.138 128.589 393.199 129.033H392.11C392.027 128.71 391.842 128.423 391.556 128.174C391.273 127.922 390.891 127.795 390.411 127.795C389.986 127.795 389.614 127.906 389.294 128.128C388.977 128.346 388.729 128.656 388.551 129.056C388.375 129.453 388.287 129.919 388.287 130.455C388.287 131.002 388.374 131.479 388.546 131.886C388.721 132.292 388.968 132.607 389.285 132.832C389.605 133.057 389.98 133.169 390.411 133.169C390.694 133.169 390.951 133.12 391.182 133.021C391.413 132.923 391.608 132.781 391.768 132.597C391.928 132.412 392.042 132.19 392.11 131.932H393.199C393.138 132.35 392.985 132.727 392.742 133.063C392.502 133.395 392.184 133.66 391.787 133.857C391.393 134.051 390.934 134.148 390.411 134.148ZM397.673 134.148C397.033 134.148 396.471 133.995 395.988 133.691C395.508 133.386 395.132 132.96 394.861 132.412C394.594 131.864 394.46 131.224 394.46 130.491C394.46 129.753 394.594 129.108 394.861 128.557C395.132 128.006 395.508 127.578 395.988 127.274C396.471 126.969 397.033 126.817 397.673 126.817C398.313 126.817 398.873 126.969 399.353 127.274C399.836 127.578 400.212 128.006 400.48 128.557C400.75 129.108 400.886 129.753 400.886 130.491C400.886 131.224 400.75 131.864 400.48 132.412C400.212 132.96 399.836 133.386 399.353 133.691C398.873 133.995 398.313 134.148 397.673 134.148ZM397.673 133.169C398.159 133.169 398.559 133.044 398.873 132.795C399.187 132.546 399.419 132.218 399.57 131.812C399.721 131.406 399.796 130.965 399.796 130.491C399.796 130.018 399.721 129.576 399.57 129.167C399.419 128.757 399.187 128.426 398.873 128.174C398.559 127.922 398.159 127.795 397.673 127.795C397.186 127.795 396.786 127.922 396.472 128.174C396.159 128.426 395.926 128.757 395.775 129.167C395.625 129.576 395.549 130.018 395.549 130.491C395.549 130.965 395.625 131.406 395.775 131.812C395.926 132.218 396.159 132.546 396.472 132.795C396.786 133.044 397.186 133.169 397.673 133.169ZM402.549 134V126.909H403.601V128.017H403.694C403.842 127.638 404.08 127.345 404.409 127.135C404.739 126.923 405.134 126.817 405.596 126.817C406.064 126.817 406.453 126.923 406.764 127.135C407.078 127.345 407.322 127.638 407.498 128.017H407.572C407.753 127.651 408.026 127.36 408.389 127.145C408.752 126.926 409.187 126.817 409.695 126.817C410.329 126.817 410.848 127.015 411.251 127.412C411.654 127.806 411.856 128.42 411.856 129.254V134H410.766V129.254C410.766 128.731 410.623 128.357 410.337 128.132C410.051 127.908 409.714 127.795 409.326 127.795C408.827 127.795 408.441 127.946 408.167 128.248C407.893 128.546 407.756 128.925 407.756 129.384V134H406.648V129.143C406.648 128.74 406.518 128.416 406.256 128.169C405.994 127.92 405.657 127.795 405.245 127.795C404.962 127.795 404.697 127.871 404.451 128.022C404.208 128.172 404.011 128.382 403.86 128.65C403.712 128.914 403.638 129.22 403.638 129.568V134H402.549Z" fill="#959BA3"/>
<rect x="253.5" y="118.5" width="273" height="21" stroke="#0D69D4"/>
<g clip-path="url(#clip1_893_10632)">
<mask maskUnits="userSpaceOnUse" x="0" y="0" width="0" height="0" fill="black">
<rect fill="white" width="0" height="0"/>
</mask>
<path d="M198.293 70.2929C197.902 70.6834 197.902 71.3166 198.293 71.7071L204.657 78.0711C205.047 78.4616 205.681 78.4616 206.071 78.0711C206.462 77.6805 206.462 77.0474 206.071 76.6569L200.414 71L206.071 65.3431C206.462 64.9526 206.462 64.3195 206.071 63.9289C205.681 63.5384 205.047 63.5384 204.657 63.9289L198.293 70.2929ZM229.707 71.7071C230.098 71.3166 230.098 70.6834 229.707 70.2929L223.343 63.9289C222.953 63.5384 222.319 63.5384 221.929 63.9289C221.538 64.3195 221.538 64.9526 221.929 65.3431L227.586 71L221.929 76.6569C221.538 77.0474 221.538 77.6805 221.929 78.0711C222.319 78.4616 222.953 78.4616 223.343 78.0711L229.707 71.7071ZM199 72H229V70H199V72Z" fill="#6B6B6B" mask="url(#)"/>
</g>
<path fill-rule="evenodd" clip-rule="evenodd" d="M198 63L198 64L198 67.9915L198 68.024V69.024V73.0185V74.0185V74.0225L198 78.014L198 79.014H199H202.989H203.989H208.011H209.011H213H214V78.014V74.0185V73.0185V69.024V68.024V64V63H213H209.011H208.011H203.989H202.989H199H198ZM199 64V67.9915H202.989V64H199ZM199 74.0225V78.014H202.989V74.0225H199ZM213 74.0185V78.014H209.011V74.0185H213ZM213 69.024V73.0185H209.011V69.024H213ZM213 64V68.024H209.011V64H213ZM208.011 64H203.989V67.9915V68.024H208.011V64ZM208.011 69.024H203.989V73.0185H208.011V69.024ZM208.011 74.0185H203.989V74.0225V78.014H208.011V74.0185Z" fill="#6B6B6B"/>
<g clip-path="url(#clip2_893_10632)">
<g clip-path="url(#clip3_893_10632)">
<mask maskUnits="userSpaceOnUse" x="0" y="0" width="0" height="0" fill="black">
<rect fill="white" width="0" height="0"/>
</mask>
<path d="M207.28 109.22C206.987 108.927 206.513 108.927 206.22 109.22L201.447 113.993C201.154 114.286 201.154 114.76 201.447 115.053C201.74 115.346 202.214 115.346 202.507 115.053L206.75 110.811L210.993 115.053C211.286 115.346 211.76 115.346 212.053 115.053C212.346 114.76 212.346 114.286 212.053 113.993L207.28 109.22ZM206.22 128.28C206.513 128.573 206.987 128.573 207.28 128.28L212.053 123.507C212.346 123.214 212.346 122.74 212.053 122.447C211.76 122.154 211.286 122.154 210.993 122.447L206.75 126.689L202.507 122.447C202.214 122.154 201.74 122.154 201.447 122.447C201.154 122.74 201.154 123.214 201.447 123.507L206.22 128.28ZM206 109.75V127.75H207.5V109.75H206Z" fill="#0D69D4" mask="url(#)"/>
<mask maskUnits="userSpaceOnUse" x="0" y="0" width="0" height="0" fill="black">
<rect fill="white" width="0" height="0"/>
</mask>
<path d="M207.28 129.72C206.987 129.427 206.513 129.427 206.22 129.72L201.447 134.493C201.154 134.786 201.154 135.26 201.447 135.553C201.74 135.846 202.214 135.846 202.507 135.553L206.75 131.311L210.993 135.553C211.286 135.846 211.76 135.846 212.053 135.553C212.346 135.26 212.346 134.786 212.053 134.493L207.28 129.72ZM206.22 148.78C206.513 149.073 206.987 149.073 207.28 148.78L212.053 144.007C212.346 143.714 212.346 143.24 212.053 142.947C211.76 142.654 211.286 142.654 210.993 142.947L206.75 147.189L202.507 142.947C202.214 142.654 201.74 142.654 201.447 142.947C201.154 143.24 201.154 143.714 201.447 144.007L206.22 148.78ZM206 130.25V148.25H207.5V130.25H206Z" fill="#0D69D4" mask="url(#)"/>
</g>
</g>
<mask maskUnits="userSpaceOnUse" x="0" y="0" width="0" height="0" fill="black">
<rect fill="white" width="0" height="0"/>
</mask>
<path d="M254.22 70.2197C253.927 70.5126 253.927 70.9874 254.22 71.2803L258.993 76.0533C259.286 76.3462 259.76 76.3462 260.053 76.0533C260.346 75.7604 260.346 75.2855 260.053 74.9926L255.811 70.75L260.053 66.5074C260.346 66.2145 260.346 65.7396 260.053 65.4467C259.76 65.1538 259.286 65.1538 258.993 65.4467L254.22 70.2197ZM525.78 71.2803C526.073 70.9874 526.073 70.5126 525.78 70.2197L521.007 65.4467C520.714 65.1538 520.24 65.1538 519.947 65.4467C519.654 65.7396 519.654 66.2145 519.947 66.5074L524.189 70.75L519.947 74.9926C519.654 75.2855 519.654 75.7604 519.947 76.0533C520.24 76.3462 520.714 76.3462 521.007 76.0533L525.78 71.2803ZM254.75 71.5H525.25V70H254.75V71.5Z" fill="#0D69D4" mask="url(#)"/>
<rect x="274" y="119" width="8" height="20" fill="#C54600" fill-opacity="0.3"/>
<line x1="274.5" y1="103" x2="274.5" y2="139" stroke="#C54600"/>
<line x1="281.5" y1="103" x2="281.5" y2="139" stroke="#C54600"/>
<path d="M277.963 99.1193C277.307 99.1193 276.723 99.0128 276.212 98.7997C275.703 98.5838 275.304 98.2898 275.014 97.9176C274.724 97.5455 274.58 97.1236 274.58 96.652C274.58 96.2884 274.662 95.9545 274.827 95.6506C274.994 95.3438 275.222 95.0895 275.509 94.8878C275.795 94.6832 276.116 94.5526 276.472 94.4957V94.4361C276.006 94.3423 275.628 94.1165 275.338 93.7585C275.048 93.3977 274.903 92.9787 274.903 92.5014C274.903 92.0497 275.036 91.6477 275.3 91.2955C275.564 90.9403 275.926 90.6619 276.386 90.4602C276.849 90.2557 277.375 90.1534 277.963 90.1534C278.551 90.1534 279.075 90.2557 279.536 90.4602C279.999 90.6648 280.362 90.9446 280.626 91.2997C280.891 91.652 281.024 92.0526 281.027 92.5014C281.024 92.9815 280.876 93.4006 280.584 93.7585C280.291 94.1165 279.916 94.3423 279.459 94.4361V94.4957C279.808 94.5526 280.125 94.6832 280.409 94.8878C280.696 95.0895 280.923 95.3438 281.091 95.6506C281.261 95.9545 281.348 96.2884 281.351 96.652C281.348 97.1236 281.202 97.5455 280.912 97.9176C280.622 98.2898 280.222 98.5838 279.71 98.7997C279.202 99.0128 278.619 99.1193 277.963 99.1193ZM277.963 97.7642C278.256 97.7642 278.511 97.7116 278.73 97.6065C278.949 97.4986 279.119 97.3509 279.241 97.1634C279.366 96.973 279.429 96.7543 279.429 96.5071C279.429 96.2543 279.365 96.0312 279.237 95.8381C279.109 95.642 278.936 95.4886 278.717 95.3778C278.499 95.2642 278.247 95.2074 277.963 95.2074C277.682 95.2074 277.43 95.2642 277.209 95.3778C276.987 95.4886 276.813 95.642 276.685 95.8381C276.56 96.0312 276.497 96.2543 276.497 96.5071C276.497 96.7543 276.558 96.973 276.68 97.1634C276.803 97.3509 276.974 97.4986 277.196 97.6065C277.418 97.7116 277.673 97.7642 277.963 97.7642ZM277.963 93.8651C278.207 93.8651 278.425 93.8153 278.615 93.7159C278.805 93.6165 278.955 93.4787 279.062 93.3026C279.17 93.1264 279.224 92.9233 279.224 92.6932C279.224 92.4659 279.17 92.267 279.062 92.0966C278.955 91.9233 278.807 91.7884 278.619 91.6918C278.432 91.5923 278.213 91.5426 277.963 91.5426C277.716 91.5426 277.497 91.5923 277.307 91.6918C277.116 91.7884 276.967 91.9233 276.859 92.0966C276.754 92.267 276.702 92.4659 276.702 92.6932C276.702 92.9233 276.756 93.1264 276.864 93.3026C276.972 93.4787 277.121 93.6165 277.311 93.7159C277.501 93.8153 277.719 93.8651 277.963 93.8651Z" fill="#C54600"/>
<rect x="254" y="119" width="20" height="20" fill="#0D69D4" fill-opacity="0.2"/>
<mask maskUnits="userSpaceOnUse" x="0" y="0" width="0" height="0" fill="black">
<rect fill="white" width="0" height="0"/>
</mask>
<path d="M282.146 110.146C281.951 110.342 281.951 110.658 282.146 110.854L285.328 114.036C285.524 114.231 285.84 114.231 286.036 114.036C286.231 113.84 286.231 113.524 286.036 113.328L283.207 110.5L286.036 107.672C286.231 107.476 286.231 107.16 286.036 106.964C285.84 106.769 285.524 106.769 285.328 106.964L282.146 110.146ZM525.854 110.854C526.049 110.658 526.049 110.342 525.854 110.146L522.672 106.964C522.476 106.769 522.16 106.769 521.964 106.964C521.769 107.16 521.769 107.476 521.964 107.672L524.793 110.5L521.964 113.328C521.769 113.524 521.769 113.84 521.964 114.036C522.16 114.231 522.476 114.231 522.672 114.036L525.854 110.854ZM282.5 111H525.5V110H282.5V111Z" fill="#0D69D4" mask="url(#)"/>
<rect x="282" y="119" width="244" height="20" fill="#0D69D4" fill-opacity="0.2"/>
<defs>
<clipPath id="clip0_893_10632">
<rect width="16" height="16" fill="white" transform="translate(534 121)"/>
</clipPath>
<clipPath id="clip1_893_10632">
<rect width="16" height="16" fill="white" transform="translate(214 63)"/>
</clipPath>
<clipPath id="clip2_893_10632">
<rect width="20" height="16" fill="white" transform="matrix(0 1 -1 0 214 119)"/>
</clipPath>
<clipPath id="clip3_893_10632">
<rect width="40" height="16" fill="white" transform="matrix(0 1 -1 0 214 109)"/>
</clipPath>
</defs>
</svg>
