<svg width="804" height="176" viewBox="0 0 804 176" fill="none" xmlns="http://www.w3.org/2000/svg">
<rect width="804" height="176" fill="#F9FAFB"/>
<path d="M46.7188 52.5653C46.6733 52.1619 46.4858 51.8494 46.1562 51.6278C45.8267 51.4034 45.4119 51.2912 44.9119 51.2912C44.554 51.2912 44.2443 51.348 43.983 51.4616C43.7216 51.5724 43.5185 51.7259 43.3736 51.9219C43.2315 52.1151 43.1605 52.3352 43.1605 52.5824C43.1605 52.7898 43.2088 52.9687 43.3054 53.1193C43.4048 53.2699 43.5341 53.3963 43.6932 53.4986C43.8551 53.598 44.0284 53.6818 44.2131 53.75C44.3977 53.8153 44.5753 53.8693 44.7457 53.9119L45.598 54.1335C45.8764 54.2017 46.1619 54.294 46.4545 54.4105C46.7472 54.527 47.0185 54.6804 47.2685 54.8707C47.5185 55.0611 47.7202 55.2969 47.8736 55.5781C48.0298 55.8594 48.108 56.196 48.108 56.5881C48.108 57.0824 47.9801 57.5213 47.7244 57.9048C47.4716 58.2884 47.1037 58.5909 46.6207 58.8125C46.1406 59.0341 45.5597 59.1449 44.8778 59.1449C44.2244 59.1449 43.6591 59.0412 43.1818 58.8338C42.7045 58.6264 42.331 58.3324 42.0611 57.9517C41.7912 57.5682 41.642 57.1136 41.6136 56.5881H42.9347C42.9602 56.9034 43.0625 57.1662 43.2415 57.3764C43.4233 57.5838 43.6548 57.7386 43.9361 57.8409C44.2202 57.9403 44.5312 57.9901 44.8693 57.9901C45.2415 57.9901 45.5724 57.9318 45.8622 57.8153C46.1548 57.696 46.3849 57.5312 46.5526 57.321C46.7202 57.108 46.804 56.8594 46.804 56.5753C46.804 56.3168 46.7301 56.1051 46.5824 55.9403C46.4375 55.7756 46.2401 55.6392 45.9901 55.5312C45.7429 55.4233 45.4631 55.3281 45.1506 55.2457L44.1193 54.9645C43.4205 54.7741 42.8665 54.4943 42.4574 54.125C42.0511 53.7557 41.848 53.267 41.848 52.6591C41.848 52.1562 41.9844 51.7173 42.2571 51.3423C42.5298 50.9673 42.8991 50.6761 43.3651 50.4688C43.831 50.2585 44.3565 50.1534 44.9418 50.1534C45.5327 50.1534 46.054 50.2571 46.5057 50.4645C46.9602 50.6719 47.3182 50.9574 47.5795 51.321C47.8409 51.6818 47.9773 52.0966 47.9886 52.5653H46.7188ZM51.484 59.1449C51.0692 59.1449 50.6942 59.0682 50.359 58.9148C50.0238 58.7585 49.7582 58.5327 49.5621 58.2372C49.369 57.9418 49.2724 57.5795 49.2724 57.1506C49.2724 56.7812 49.3434 56.4773 49.4854 56.2386C49.6275 56 49.8192 55.8111 50.0607 55.6719C50.3022 55.5327 50.5721 55.4276 50.8704 55.3565C51.1687 55.2855 51.4727 55.2315 51.7823 55.1946C52.1744 55.1491 52.4925 55.1122 52.7369 55.0838C52.9812 55.0526 53.1587 55.0028 53.2695 54.9347C53.3803 54.8665 53.4357 54.7557 53.4357 54.6023V54.5724C53.4357 54.2003 53.3306 53.9119 53.1204 53.7074C52.913 53.5028 52.6033 53.4006 52.1914 53.4006C51.7624 53.4006 51.4244 53.4957 51.1772 53.6861C50.9329 53.8736 50.7638 54.0824 50.6701 54.3125L49.4727 54.0398C49.6147 53.642 49.8221 53.321 50.0948 53.0767C50.3704 52.8295 50.6871 52.6506 51.0451 52.5398C51.4031 52.4261 51.7795 52.3693 52.1744 52.3693C52.4357 52.3693 52.7127 52.4006 53.0053 52.4631C53.3008 52.5227 53.5763 52.6335 53.832 52.7955C54.0906 52.9574 54.3022 53.1889 54.467 53.4901C54.6317 53.7884 54.7141 54.1761 54.7141 54.6534V59H53.4698V58.1051H53.4187C53.3363 58.2699 53.2127 58.4318 53.0479 58.5909C52.8832 58.75 52.6715 58.8821 52.413 58.9872C52.1545 59.0923 51.8448 59.1449 51.484 59.1449ZM51.761 58.1222C52.1133 58.1222 52.4144 58.0526 52.6644 57.9134C52.9173 57.7741 53.109 57.5923 53.2397 57.3679C53.3732 57.1406 53.44 56.8977 53.44 56.6392V55.7955C53.3945 55.8409 53.3065 55.8835 53.1758 55.9233C53.0479 55.9602 52.9016 55.9929 52.7369 56.0213C52.5721 56.0469 52.4116 56.071 52.2553 56.0938C52.0991 56.1136 51.9684 56.1307 51.8633 56.1449C51.6161 56.1761 51.3903 56.2287 51.1857 56.3026C50.984 56.3764 50.8221 56.483 50.6999 56.6222C50.5806 56.7585 50.521 56.9403 50.521 57.1676C50.521 57.483 50.6374 57.7216 50.8704 57.8835C51.1033 58.0426 51.4002 58.1222 51.761 58.1222ZM57.6854 50.2727V59H56.4112V50.2727H57.6854ZM62.2205 59.1321C61.5756 59.1321 61.0202 58.9943 60.5543 58.7188C60.0913 58.4403 59.7333 58.0497 59.4805 57.5469C59.2305 57.0412 59.1055 56.4489 59.1055 55.7699C59.1055 55.0994 59.2305 54.5085 59.4805 53.9972C59.7333 53.4858 60.0856 53.0866 60.5373 52.7997C60.9918 52.5128 61.5231 52.3693 62.131 52.3693C62.5004 52.3693 62.8583 52.4304 63.2049 52.5526C63.5515 52.6747 63.8626 52.8665 64.1381 53.1278C64.4137 53.3892 64.631 53.7287 64.7901 54.1463C64.9492 54.5611 65.0288 55.0653 65.0288 55.6591V56.1108H59.8256V55.1562H63.7802C63.7802 54.821 63.712 54.5241 63.5756 54.2656C63.4393 54.0043 63.2475 53.7983 63.0004 53.6477C62.756 53.4972 62.4691 53.4219 62.1396 53.4219C61.7816 53.4219 61.4691 53.5099 61.2021 53.6861C60.9379 53.8594 60.7333 54.0866 60.5884 54.3679C60.4464 54.6463 60.3754 54.9489 60.3754 55.2756V56.0213C60.3754 56.4588 60.4521 56.831 60.6055 57.1378C60.7617 57.4446 60.979 57.679 61.2575 57.8409C61.5359 58 61.8612 58.0795 62.2333 58.0795C62.4748 58.0795 62.695 58.0455 62.8938 57.9773C63.0927 57.9062 63.2646 57.8011 63.4094 57.6619C63.5543 57.5227 63.6651 57.3509 63.7418 57.1463L64.9478 57.3636C64.8512 57.7187 64.6779 58.0298 64.4279 58.2969C64.1808 58.5611 63.8697 58.767 63.4947 58.9148C63.1225 59.0597 62.6978 59.1321 62.2205 59.1321ZM71.5231 59.1449C71.1083 59.1449 70.7333 59.0682 70.3981 58.9148C70.0629 58.7585 69.7972 58.5327 69.6012 58.2372C69.408 57.9418 69.3114 57.5795 69.3114 57.1506C69.3114 56.7812 69.3825 56.4773 69.5245 56.2386C69.6665 56 69.8583 55.8111 70.0998 55.6719C70.3413 55.5327 70.6112 55.4276 70.9094 55.3565C71.2077 55.2855 71.5117 55.2315 71.8214 55.1946C72.2134 55.1491 72.5316 55.1122 72.7759 55.0838C73.0202 55.0526 73.1978 55.0028 73.3086 54.9347C73.4194 54.8665 73.4748 54.7557 73.4748 54.6023V54.5724C73.4748 54.2003 73.3697 53.9119 73.1594 53.7074C72.9521 53.5028 72.6424 53.4006 72.2305 53.4006C71.8015 53.4006 71.4634 53.4957 71.2163 53.6861C70.9719 53.8736 70.8029 54.0824 70.7092 54.3125L69.5117 54.0398C69.6538 53.642 69.8612 53.321 70.1339 53.0767C70.4094 52.8295 70.7262 52.6506 71.0842 52.5398C71.4421 52.4261 71.8185 52.3693 72.2134 52.3693C72.4748 52.3693 72.7518 52.4006 73.0444 52.4631C73.3398 52.5227 73.6154 52.6335 73.8711 52.7955C74.1296 52.9574 74.3413 53.1889 74.506 53.4901C74.6708 53.7884 74.7532 54.1761 74.7532 54.6534V59H73.5089V58.1051H73.4577C73.3754 58.2699 73.2518 58.4318 73.087 58.5909C72.9222 58.75 72.7106 58.8821 72.4521 58.9872C72.1935 59.0923 71.8839 59.1449 71.5231 59.1449ZM71.8001 58.1222C72.1523 58.1222 72.4535 58.0526 72.7035 57.9134C72.9563 57.7741 73.1481 57.5923 73.2788 57.3679C73.4123 57.1406 73.479 56.8977 73.479 56.6392V55.7955C73.4336 55.8409 73.3455 55.8835 73.2148 55.9233C73.087 55.9602 72.9407 55.9929 72.7759 56.0213C72.6112 56.0469 72.4506 56.071 72.2944 56.0938C72.1381 56.1136 72.0075 56.1307 71.9023 56.1449C71.6552 56.1761 71.4293 56.2287 71.2248 56.3026C71.0231 56.3764 70.8612 56.483 70.739 56.6222C70.6197 56.7585 70.56 56.9403 70.56 57.1676C70.56 57.483 70.6765 57.7216 70.9094 57.8835C71.1424 58.0426 71.4393 58.1222 71.8001 58.1222ZM76.4503 59V52.4545H77.6733V53.5199H77.7543C77.8906 53.1591 78.1136 52.8778 78.4233 52.6761C78.733 52.4716 79.1037 52.3693 79.5355 52.3693C79.973 52.3693 80.3395 52.4716 80.6349 52.6761C80.9332 52.8807 81.1534 53.1619 81.2955 53.5199H81.3636C81.5199 53.1705 81.7685 52.892 82.1094 52.6847C82.4503 52.4744 82.8565 52.3693 83.3281 52.3693C83.9219 52.3693 84.4062 52.5554 84.7812 52.9276C85.1591 53.2997 85.348 53.8608 85.348 54.6108V59H84.0739V54.7301C84.0739 54.2869 83.9531 53.9659 83.7116 53.767C83.4702 53.5682 83.1818 53.4688 82.8466 53.4688C82.4318 53.4688 82.1094 53.5966 81.8793 53.8523C81.6491 54.1051 81.5341 54.4304 81.5341 54.8281V59H80.2642V54.6491C80.2642 54.294 80.1534 54.0085 79.9318 53.7926C79.7102 53.5767 79.4219 53.4688 79.0668 53.4688C78.8253 53.4688 78.6023 53.5327 78.3977 53.6605C78.196 53.7855 78.0327 53.9602 77.9077 54.1847C77.7855 54.4091 77.7244 54.669 77.7244 54.9645V59H76.4503ZM89.8129 59.1321C89.1992 59.1321 88.6637 58.9915 88.2063 58.7102C87.7489 58.429 87.3938 58.0355 87.141 57.5298C86.8881 57.0241 86.7617 56.4332 86.7617 55.7571C86.7617 55.0781 86.8881 54.4844 87.141 53.9759C87.3938 53.4673 87.7489 53.0724 88.2063 52.7912C88.6637 52.5099 89.1992 52.3693 89.8129 52.3693C90.4265 52.3693 90.962 52.5099 91.4194 52.7912C91.8768 53.0724 92.2319 53.4673 92.4847 53.9759C92.7376 54.4844 92.864 55.0781 92.864 55.7571C92.864 56.4332 92.7376 57.0241 92.4847 57.5298C92.2319 58.0355 91.8768 58.429 91.4194 58.7102C90.962 58.9915 90.4265 59.1321 89.8129 59.1321ZM89.8171 58.0625C90.2148 58.0625 90.5444 57.9574 90.8058 57.7472C91.0671 57.5369 91.2603 57.2571 91.3853 56.9077C91.5131 56.5582 91.5771 56.1733 91.5771 55.7528C91.5771 55.3352 91.5131 54.9517 91.3853 54.6023C91.2603 54.25 91.0671 53.9673 90.8058 53.7543C90.5444 53.5412 90.2148 53.4347 89.8171 53.4347C89.4165 53.4347 89.0842 53.5412 88.82 53.7543C88.5586 53.9673 88.364 54.25 88.2362 54.6023C88.1112 54.9517 88.0487 55.3352 88.0487 55.7528C88.0487 56.1733 88.1112 56.5582 88.2362 56.9077C88.364 57.2571 88.5586 57.5369 88.82 57.7472C89.0842 57.9574 89.4165 58.0625 89.8171 58.0625ZM98.4325 56.2855V52.4545H99.7109V59H98.4581V57.8665H98.3899C98.2393 58.2159 97.9979 58.5071 97.6655 58.7401C97.3359 58.9702 96.9254 59.0852 96.4339 59.0852C96.0135 59.0852 95.6413 58.9929 95.3175 58.8082C94.9964 58.6207 94.7436 58.3438 94.5589 57.9773C94.3771 57.6108 94.2862 57.1577 94.2862 56.6179V52.4545H95.5604V56.4645C95.5604 56.9105 95.6839 57.2656 95.9311 57.5298C96.1783 57.794 96.4993 57.9261 96.8942 57.9261C97.1328 57.9261 97.37 57.8665 97.6058 57.7472C97.8445 57.6278 98.0419 57.4474 98.1982 57.206C98.3572 56.9645 98.4354 56.6577 98.4325 56.2855ZM102.697 55.1136V59H101.423V52.4545H102.646V53.5199H102.727C102.877 53.1733 103.113 52.8949 103.434 52.6847C103.758 52.4744 104.166 52.3693 104.657 52.3693C105.103 52.3693 105.494 52.4631 105.829 52.6506C106.164 52.8352 106.424 53.1108 106.609 53.4773C106.794 53.8437 106.886 54.2969 106.886 54.8366V59H105.612V54.9901C105.612 54.5156 105.488 54.1449 105.241 53.8778C104.994 53.608 104.654 53.473 104.223 53.473C103.927 53.473 103.664 53.5369 103.434 53.6648C103.207 53.7926 103.027 53.9801 102.893 54.2273C102.762 54.4716 102.697 54.767 102.697 55.1136ZM111.65 52.4545V53.4773H108.075V52.4545H111.65ZM109.034 50.8864H110.308V57.0781C110.308 57.3253 110.345 57.5114 110.419 57.6364C110.493 57.7585 110.588 57.8423 110.704 57.8878C110.824 57.9304 110.953 57.9517 111.092 57.9517C111.194 57.9517 111.284 57.9446 111.36 57.9304C111.437 57.9162 111.497 57.9048 111.539 57.8963L111.77 58.9489C111.696 58.9773 111.591 59.0057 111.454 59.0341C111.318 59.0653 111.147 59.0824 110.943 59.0852C110.608 59.0909 110.295 59.0312 110.005 58.9062C109.716 58.7812 109.481 58.5881 109.302 58.3267C109.123 58.0653 109.034 57.7372 109.034 57.3423V50.8864Z" fill="#344054"/>
<g clip-path="url(#clip0_893_29242)">
<rect x="41" y="70" width="286" height="36" rx="3" fill="white"/>
<path d="M56.767 94.1818V82.3636H57.5241V94.1818H56.767ZM59.3153 85.9091C59.2599 85.4413 59.0353 85.0781 58.6413 84.8196C58.2474 84.5611 57.7642 84.4318 57.1918 84.4318C56.7732 84.4318 56.407 84.4995 56.093 84.6349C55.7822 84.7704 55.5391 84.9566 55.3636 85.1935C55.1913 85.4305 55.1051 85.6998 55.1051 86.0014C55.1051 86.2538 55.1651 86.4708 55.2852 86.6523C55.4083 86.8308 55.5652 86.9801 55.756 87.1001C55.9469 87.2171 56.1469 87.314 56.3562 87.391C56.5655 87.4648 56.7578 87.5249 56.9332 87.571L57.8935 87.8295C58.1397 87.8942 58.4136 87.9834 58.7152 88.0973C59.0199 88.2112 59.3107 88.3666 59.5877 88.5636C59.8678 88.7575 60.0986 89.0067 60.2802 89.3114C60.4618 89.6161 60.5526 89.9901 60.5526 90.4332C60.5526 90.9441 60.4187 91.4058 60.1509 91.8182C59.8862 92.2306 59.4985 92.5584 58.9876 92.8015C58.4798 93.0446 57.8627 93.1662 57.1364 93.1662C56.4593 93.1662 55.873 93.0569 55.3775 92.8384C54.8851 92.6199 54.4973 92.3152 54.2141 91.9244C53.9341 91.5335 53.7756 91.0795 53.7386 90.5625H54.9205C54.9512 90.9195 55.0713 91.215 55.2805 91.4489C55.4929 91.6797 55.7607 91.852 56.0838 91.9659C56.41 92.0767 56.7609 92.1321 57.1364 92.1321C57.5734 92.1321 57.9658 92.0613 58.3136 91.9197C58.6613 91.7751 58.9368 91.575 59.1399 91.3196C59.343 91.0611 59.4446 90.7595 59.4446 90.4148C59.4446 90.1009 59.3569 89.8454 59.1815 89.6484C59.006 89.4515 58.7752 89.2914 58.489 89.1683C58.2028 89.0452 57.8935 88.9375 57.5611 88.8452L56.3977 88.5128C55.6591 88.3004 55.0743 87.9973 54.6435 87.6033C54.2126 87.2094 53.9972 86.6939 53.9972 86.0568C53.9972 85.5275 54.1403 85.0658 54.4265 84.6719C54.7158 84.2749 55.1036 83.9671 55.5898 83.7486C56.0792 83.527 56.6255 83.4162 57.2287 83.4162C57.8381 83.4162 58.3797 83.5254 58.8537 83.744C59.3277 83.9594 59.7031 84.2549 59.9801 84.6303C60.2602 85.0058 60.4079 85.4321 60.4233 85.9091H59.3153Z" fill="#959BA3"/>
<path d="M74.3026 83.5455V93H73.1577V84.7457H73.1023L70.794 86.2784V85.1151L73.1577 83.5455H74.3026ZM78.1065 91.7074L78.0327 92.206C77.9804 92.5568 77.9003 92.9323 77.7926 93.3324C77.688 93.7325 77.5787 94.1095 77.4648 94.4634C77.351 94.8174 77.2571 95.099 77.1832 95.3082H76.3523C76.3923 95.1113 76.4446 94.8512 76.5092 94.5281C76.5739 94.2049 76.6385 93.8433 76.7031 93.4432C76.7708 93.0462 76.8262 92.6399 76.8693 92.2244L76.9247 91.7074H78.1065ZM82.8604 93.1293C82.1648 93.1293 81.5724 92.94 81.083 92.5614C80.5937 92.1798 80.2197 91.6274 79.9612 90.9041C79.7027 90.1778 79.5734 89.3007 79.5734 88.2727C79.5734 87.2509 79.7027 86.3784 79.9612 85.6552C80.2228 84.9289 80.5983 84.3749 81.0876 83.9933C81.58 83.6085 82.171 83.4162 82.8604 83.4162C83.5497 83.4162 84.1391 83.6085 84.6285 83.9933C85.1209 84.3749 85.4964 84.9289 85.7549 85.6552C86.0165 86.3784 86.1473 87.2509 86.1473 88.2727C86.1473 89.3007 86.018 90.1778 85.7595 90.9041C85.501 91.6274 85.127 92.1798 84.6377 92.5614C84.1483 92.94 83.5559 93.1293 82.8604 93.1293ZM82.8604 92.1136C83.5497 92.1136 84.0853 91.7812 84.4669 91.1165C84.8485 90.4517 85.0393 89.5038 85.0393 88.2727C85.0393 87.4541 84.9516 86.757 84.7762 86.1815C84.6038 85.6059 84.3546 85.1674 84.0283 84.8658C83.7052 84.5642 83.3158 84.4134 82.8604 84.4134C82.1771 84.4134 81.6431 84.7504 81.2584 85.4244C80.8737 86.0953 80.6814 87.0447 80.6814 88.2727C80.6814 89.0914 80.7675 89.7869 80.9399 90.3594C81.1122 90.9318 81.36 91.3673 81.6831 91.6658C82.0094 91.9644 82.4018 92.1136 82.8604 92.1136ZM90.9854 93.1293C90.2898 93.1293 89.6974 92.94 89.208 92.5614C88.7187 92.1798 88.3447 91.6274 88.0862 90.9041C87.8277 90.1778 87.6984 89.3007 87.6984 88.2727C87.6984 87.2509 87.8277 86.3784 88.0862 85.6552C88.3478 84.9289 88.7233 84.3749 89.2126 83.9933C89.705 83.6085 90.296 83.4162 90.9854 83.4162C91.6747 83.4162 92.2641 83.6085 92.7535 83.9933C93.2459 84.3749 93.6214 84.9289 93.8799 85.6552C94.1415 86.3784 94.2723 87.2509 94.2723 88.2727C94.2723 89.3007 94.143 90.1778 93.8845 90.9041C93.626 91.6274 93.252 92.1798 92.7627 92.5614C92.2733 92.94 91.6809 93.1293 90.9854 93.1293ZM90.9854 92.1136C91.6747 92.1136 92.2103 91.7812 92.5919 91.1165C92.9735 90.4517 93.1643 89.5038 93.1643 88.2727C93.1643 87.4541 93.0766 86.757 92.9012 86.1815C92.7288 85.6059 92.4796 85.1674 92.1533 84.8658C91.8302 84.5642 91.4408 84.4134 90.9854 84.4134C90.3021 84.4134 89.7681 84.7504 89.3834 85.4244C88.9987 86.0953 88.8064 87.0447 88.8064 88.2727C88.8064 89.0914 88.8925 89.7869 89.0649 90.3594C89.2372 90.9318 89.485 91.3673 89.8081 91.6658C90.1344 91.9644 90.5268 92.1136 90.9854 92.1136ZM99.1104 93.1293C98.4148 93.1293 97.8224 92.94 97.333 92.5614C96.8437 92.1798 96.4697 91.6274 96.2112 90.9041C95.9527 90.1778 95.8234 89.3007 95.8234 88.2727C95.8234 87.2509 95.9527 86.3784 96.2112 85.6552C96.4728 84.9289 96.8483 84.3749 97.3376 83.9933C97.83 83.6085 98.421 83.4162 99.1104 83.4162C99.7997 83.4162 100.389 83.6085 100.878 83.9933C101.371 84.3749 101.746 84.9289 102.005 85.6552C102.266 86.3784 102.397 87.2509 102.397 88.2727C102.397 89.3007 102.268 90.1778 102.009 90.9041C101.751 91.6274 101.377 92.1798 100.888 92.5614C100.398 92.94 99.8059 93.1293 99.1104 93.1293ZM99.1104 92.1136C99.7997 92.1136 100.335 91.7812 100.717 91.1165C101.099 90.4517 101.289 89.5038 101.289 88.2727C101.289 87.4541 101.202 86.757 101.026 86.1815C100.854 85.6059 100.605 85.1674 100.278 84.8658C99.9552 84.5642 99.5658 84.4134 99.1104 84.4134C98.4271 84.4134 97.8931 84.7504 97.5084 85.4244C97.1237 86.0953 96.9314 87.0447 96.9314 88.2727C96.9314 89.0914 97.0175 89.7869 97.1899 90.3594C97.3622 90.9318 97.61 91.3673 97.9331 91.6658C98.2594 91.9644 98.6518 92.1136 99.1104 92.1136ZM104.634 93.0739C104.406 93.0739 104.211 92.9923 104.048 92.8292C103.885 92.6661 103.803 92.4706 103.803 92.2429C103.803 92.0152 103.885 91.8197 104.048 91.6566C104.211 91.4935 104.406 91.4119 104.634 91.4119C104.862 91.4119 105.057 91.4935 105.22 91.6566C105.383 91.8197 105.465 92.0152 105.465 92.2429C105.465 92.3937 105.426 92.5322 105.35 92.6584C105.276 92.7846 105.176 92.8861 105.049 92.9631C104.926 93.0369 104.788 93.0739 104.634 93.0739ZM110.155 93.1293C109.46 93.1293 108.867 92.94 108.378 92.5614C107.889 92.1798 107.515 91.6274 107.256 90.9041C106.998 90.1778 106.868 89.3007 106.868 88.2727C106.868 87.2509 106.998 86.3784 107.256 85.6552C107.518 84.9289 107.893 84.3749 108.383 83.9933C108.875 83.6085 109.466 83.4162 110.155 83.4162C110.845 83.4162 111.434 83.6085 111.923 83.9933C112.416 84.3749 112.791 84.9289 113.05 85.6552C113.311 86.3784 113.442 87.2509 113.442 88.2727C113.442 89.3007 113.313 90.1778 113.054 90.9041C112.796 91.6274 112.422 92.1798 111.933 92.5614C111.443 92.94 110.851 93.1293 110.155 93.1293ZM110.155 92.1136C110.845 92.1136 111.38 91.7812 111.762 91.1165C112.143 90.4517 112.334 89.5038 112.334 88.2727C112.334 87.4541 112.247 86.757 112.071 86.1815C111.899 85.6059 111.649 85.1674 111.323 84.8658C111 84.5642 110.611 84.4134 110.155 84.4134C109.472 84.4134 108.938 84.7504 108.553 85.4244C108.169 86.0953 107.976 87.0447 107.976 88.2727C107.976 89.0914 108.062 89.7869 108.235 90.3594C108.407 90.9318 108.655 91.3673 108.978 91.6658C109.304 91.9644 109.697 92.1136 110.155 92.1136ZM118.28 93.1293C117.585 93.1293 116.992 92.94 116.503 92.5614C116.014 92.1798 115.64 91.6274 115.381 90.9041C115.123 90.1778 114.993 89.3007 114.993 88.2727C114.993 87.2509 115.123 86.3784 115.381 85.6552C115.643 84.9289 116.018 84.3749 116.508 83.9933C117 83.6085 117.591 83.4162 118.28 83.4162C118.97 83.4162 119.559 83.6085 120.048 83.9933C120.541 84.3749 120.916 84.9289 121.175 85.6552C121.436 86.3784 121.567 87.2509 121.567 88.2727C121.567 89.3007 121.438 90.1778 121.179 90.9041C120.921 91.6274 120.547 92.1798 120.058 92.5614C119.568 92.94 118.976 93.1293 118.28 93.1293ZM118.28 92.1136C118.97 92.1136 119.505 91.7812 119.887 91.1165C120.268 90.4517 120.459 89.5038 120.459 88.2727C120.459 87.4541 120.372 86.757 120.196 86.1815C120.024 85.6059 119.774 85.1674 119.448 84.8658C119.125 84.5642 118.736 84.4134 118.28 84.4134C117.597 84.4134 117.063 84.7504 116.678 85.4244C116.294 86.0953 116.101 87.0447 116.101 88.2727C116.101 89.0914 116.187 89.7869 116.36 90.3594C116.532 90.9318 116.78 91.3673 117.103 91.6658C117.429 91.9644 117.822 92.1136 118.28 92.1136Z" fill="#959BA3"/>
<path d="M272.349 83.5455H273.494V89.8054C273.494 90.4517 273.342 91.0288 273.037 91.5366C272.736 92.0413 272.309 92.4399 271.759 92.7322C271.208 93.0215 270.561 93.1662 269.82 93.1662C269.078 93.1662 268.432 93.0215 267.881 92.7322C267.33 92.4399 266.902 92.0413 266.597 91.5366C266.296 91.0288 266.145 90.4517 266.145 89.8054V83.5455H267.29V89.7131C267.29 90.1747 267.391 90.5856 267.594 90.9457C267.798 91.3027 268.087 91.5843 268.462 91.7905C268.841 91.9936 269.293 92.0952 269.82 92.0952C270.346 92.0952 270.798 91.9936 271.177 91.7905C271.555 91.5843 271.845 91.3027 272.045 90.9457C272.248 90.5856 272.349 90.1747 272.349 89.7131V83.5455ZM280.951 85.9091C280.896 85.4413 280.671 85.0781 280.277 84.8196C279.883 84.5611 279.4 84.4318 278.828 84.4318C278.409 84.4318 278.043 84.4995 277.729 84.6349C277.418 84.7704 277.175 84.9566 276.999 85.1935C276.827 85.4305 276.741 85.6998 276.741 86.0014C276.741 86.2538 276.801 86.4708 276.921 86.6523C277.044 86.8308 277.201 86.9801 277.392 87.1001C277.583 87.2171 277.783 87.314 277.992 87.391C278.201 87.4648 278.394 87.5249 278.569 87.571L279.529 87.8295C279.775 87.8942 280.049 87.9834 280.351 88.0973C280.656 88.2112 280.946 88.3666 281.223 88.5636C281.504 88.7575 281.734 89.0067 281.916 89.3114C282.098 89.6161 282.188 89.9901 282.188 90.4332C282.188 90.9441 282.054 91.4058 281.787 91.8182C281.522 92.2306 281.134 92.5584 280.623 92.8015C280.116 93.0446 279.498 93.1662 278.772 93.1662C278.095 93.1662 277.509 93.0569 277.013 92.8384C276.521 92.6199 276.133 92.3152 275.85 91.9244C275.57 91.5335 275.411 91.0795 275.374 90.5625H276.556C276.587 90.9195 276.707 91.215 276.916 91.4489C277.129 91.6797 277.396 91.852 277.72 91.9659C278.046 92.0767 278.397 92.1321 278.772 92.1321C279.209 92.1321 279.602 92.0613 279.949 91.9197C280.297 91.7751 280.573 91.575 280.776 91.3196C280.979 91.0611 281.08 90.7595 281.08 90.4148C281.08 90.1009 280.993 89.8454 280.817 89.6484C280.642 89.4515 280.411 89.2914 280.125 89.1683C279.839 89.0452 279.529 88.9375 279.197 88.8452L278.033 88.5128C277.295 88.3004 276.71 87.9973 276.279 87.6033C275.848 87.2094 275.633 86.6939 275.633 86.0568C275.633 85.5275 275.776 85.0658 276.062 84.6719C276.352 84.2749 276.739 83.9671 277.226 83.7486C277.715 83.527 278.261 83.4162 278.864 83.4162C279.474 83.4162 280.015 83.5254 280.489 83.744C280.963 83.9594 281.339 84.2549 281.616 84.6303C281.896 85.0058 282.044 85.4321 282.059 85.9091H280.951ZM286.988 93H284.071V83.5455H287.118C288.035 83.5455 288.819 83.7347 289.472 84.1133C290.124 84.4888 290.625 85.0289 290.972 85.7337C291.32 86.4354 291.494 87.2756 291.494 88.2543C291.494 89.2391 291.319 90.087 290.968 90.7979C290.617 91.5058 290.106 92.0505 289.435 92.4322C288.764 92.8107 287.949 93 286.988 93ZM285.216 91.9844H286.914C287.696 91.9844 288.344 91.8336 288.858 91.532C289.372 91.2304 289.755 90.801 290.007 90.244C290.26 89.6869 290.386 89.0237 290.386 88.2543C290.386 87.491 290.261 86.8339 290.012 86.283C289.763 85.729 289.39 85.3043 288.895 85.0089C288.399 84.7103 287.782 84.5611 287.044 84.5611H285.216V91.9844Z" fill="#1F243D"/>
<path d="M298 85.5L303 90.5L308 85.5" stroke="#959BA3" stroke-width="1.66667" stroke-linecap="round" stroke-linejoin="round"/>
</g>
<rect x="41.5" y="70.5" width="285" height="35" rx="2.5" stroke="#D8DEE9"/>
<path d="M41.5795 117.21V116.273H48.125V117.21H45.3807V125H44.3239V117.21H41.5795ZM50.6254 121.062V125H49.6197V116.273H50.6254V119.477H50.7106C50.864 119.139 51.0941 118.871 51.4009 118.672C51.7106 118.47 52.1225 118.369 52.6367 118.369C53.0827 118.369 53.4734 118.459 53.8086 118.638C54.1438 118.814 54.4038 119.085 54.5884 119.452C54.7759 119.815 54.8697 120.278 54.8697 120.841V125H53.864V120.909C53.864 120.389 53.729 119.987 53.4592 119.703C53.1921 119.416 52.8214 119.273 52.3469 119.273C52.0174 119.273 51.7219 119.342 51.4606 119.482C51.2021 119.621 50.9975 119.824 50.8469 120.091C50.6992 120.358 50.6254 120.682 50.6254 121.062ZM56.7095 125V118.455H57.7152V125H56.7095ZM57.2209 117.364C57.0249 117.364 56.8558 117.297 56.7138 117.163C56.5746 117.03 56.505 116.869 56.505 116.682C56.505 116.494 56.5746 116.334 56.7138 116.2C56.8558 116.067 57.0249 116 57.2209 116C57.4169 116 57.5845 116.067 57.7237 116.2C57.8658 116.334 57.9368 116.494 57.9368 116.682C57.9368 116.869 57.8658 117.03 57.7237 117.163C57.5845 117.297 57.4169 117.364 57.2209 117.364ZM64.1935 119.92L63.2901 120.176C63.2333 120.026 63.1495 119.879 63.0387 119.737C62.9308 119.592 62.783 119.473 62.5955 119.379C62.408 119.286 62.168 119.239 61.8754 119.239C61.4748 119.239 61.141 119.331 60.8739 119.516C60.6097 119.697 60.4776 119.929 60.4776 120.21C60.4776 120.46 60.5685 120.658 60.7504 120.803C60.9322 120.947 61.2163 121.068 61.6026 121.165L62.5742 121.403C63.1594 121.545 63.5955 121.763 63.8825 122.055C64.1694 122.345 64.3129 122.719 64.3129 123.176C64.3129 123.551 64.2049 123.886 63.989 124.182C63.7759 124.477 63.4776 124.71 63.0941 124.881C62.7106 125.051 62.2646 125.136 61.756 125.136C61.0884 125.136 60.5359 124.991 60.0984 124.702C59.6609 124.412 59.3839 123.989 59.2674 123.432L60.2219 123.193C60.3129 123.545 60.4847 123.81 60.7376 123.986C60.9933 124.162 61.3271 124.25 61.739 124.25C62.2077 124.25 62.5799 124.151 62.8555 123.952C63.1339 123.75 63.2731 123.509 63.2731 123.227C63.2731 123 63.1935 122.81 63.0344 122.656C62.8754 122.5 62.631 122.384 62.3015 122.307L61.2106 122.051C60.6112 121.909 60.1708 121.689 59.8896 121.391C59.6112 121.089 59.4719 120.713 59.4719 120.261C59.4719 119.892 59.5756 119.565 59.783 119.281C59.9933 118.997 60.2788 118.774 60.6396 118.612C61.0032 118.45 61.4151 118.369 61.8754 118.369C62.5231 118.369 63.0316 118.511 63.4009 118.795C63.7731 119.08 64.0373 119.455 64.1935 119.92ZM69.2017 125V118.455H70.2074V125H69.2017ZM69.7131 117.364C69.517 117.364 69.348 117.297 69.206 117.163C69.0668 117.03 68.9972 116.869 68.9972 116.682C68.9972 116.494 69.0668 116.334 69.206 116.2C69.348 116.067 69.517 116 69.7131 116C69.9091 116 70.0767 116.067 70.2159 116.2C70.358 116.334 70.429 116.494 70.429 116.682C70.429 116.869 70.358 117.03 70.2159 117.163C70.0767 117.297 69.9091 117.364 69.7131 117.364ZM76.6857 119.92L75.7823 120.176C75.7255 120.026 75.6417 119.879 75.5309 119.737C75.4229 119.592 75.2752 119.473 75.0877 119.379C74.9002 119.286 74.6602 119.239 74.3675 119.239C73.967 119.239 73.6332 119.331 73.3661 119.516C73.1019 119.697 72.9698 119.929 72.9698 120.21C72.9698 120.46 73.0607 120.658 73.2425 120.803C73.4244 120.947 73.7085 121.068 74.0948 121.165L75.0664 121.403C75.6516 121.545 76.0877 121.763 76.3746 122.055C76.6616 122.345 76.805 122.719 76.805 123.176C76.805 123.551 76.6971 123.886 76.4812 124.182C76.2681 124.477 75.9698 124.71 75.5863 124.881C75.2028 125.051 74.7567 125.136 74.2482 125.136C73.5806 125.136 73.0281 124.991 72.5906 124.702C72.1531 124.412 71.8761 123.989 71.7596 123.432L72.7141 123.193C72.805 123.545 72.9769 123.81 73.2298 123.986C73.4854 124.162 73.8192 124.25 74.2312 124.25C74.6999 124.25 75.0721 124.151 75.3477 123.952C75.6261 123.75 75.7653 123.509 75.7653 123.227C75.7653 123 75.6857 122.81 75.5266 122.656C75.3675 122.5 75.1232 122.384 74.7937 122.307L73.7028 122.051C73.1033 121.909 72.663 121.689 72.3817 121.391C72.1033 121.089 71.9641 120.713 71.9641 120.261C71.9641 119.892 72.0678 119.565 72.2752 119.281C72.4854 118.997 72.771 118.774 73.1317 118.612C73.4954 118.45 73.9073 118.369 74.3675 118.369C75.0153 118.369 75.5238 118.511 75.8931 118.795C76.2653 119.08 76.5295 119.455 76.6857 119.92ZM83.62 125.153C83.2053 125.153 82.8288 125.075 82.4908 124.919C82.1527 124.76 81.8842 124.531 81.6854 124.233C81.4865 123.932 81.3871 123.568 81.3871 123.142C81.3871 122.767 81.4609 122.463 81.6087 122.23C81.7564 121.994 81.9538 121.81 82.201 121.676C82.4482 121.543 82.7209 121.443 83.0192 121.378C83.3203 121.31 83.6229 121.256 83.9268 121.216C84.3246 121.165 84.647 121.126 84.8942 121.101C85.1442 121.072 85.326 121.026 85.4396 120.96C85.5561 120.895 85.6143 120.781 85.6143 120.619V120.585C85.6143 120.165 85.4993 119.838 85.2692 119.605C85.0419 119.372 84.6967 119.256 84.2337 119.256C83.7536 119.256 83.3771 119.361 83.1044 119.571C82.8317 119.781 82.6399 120.006 82.5291 120.244L81.5746 119.903C81.745 119.506 81.9723 119.196 82.2564 118.974C82.5433 118.75 82.8558 118.594 83.1939 118.506C83.5348 118.415 83.87 118.369 84.1996 118.369C84.4098 118.369 84.6513 118.395 84.924 118.446C85.1996 118.494 85.4652 118.595 85.7209 118.749C85.9794 118.902 86.1939 119.134 86.3643 119.443C86.5348 119.753 86.62 120.168 86.62 120.688V125H85.6143V124.114H85.5632C85.495 124.256 85.3814 124.408 85.2223 124.57C85.0632 124.732 84.8516 124.869 84.5874 124.983C84.3232 125.097 84.0007 125.153 83.62 125.153ZM83.7734 124.25C84.1712 124.25 84.5064 124.172 84.7791 124.016C85.0547 123.859 85.2621 123.658 85.4013 123.411C85.5433 123.163 85.6143 122.903 85.6143 122.631V121.71C85.5717 121.761 85.478 121.808 85.3331 121.851C85.1911 121.891 85.0263 121.926 84.8388 121.957C84.6541 121.986 84.4737 122.011 84.2976 122.034C84.1243 122.054 83.9837 122.071 83.8757 122.085C83.6143 122.119 83.37 122.175 83.1428 122.251C82.9183 122.325 82.7365 122.437 82.5973 122.588C82.4609 122.736 82.3928 122.937 82.3928 123.193C82.3928 123.543 82.522 123.807 82.7805 123.986C83.0419 124.162 83.3729 124.25 83.7734 124.25ZM92.8363 121.062V125H91.8306V116.273H92.8363V119.477H92.9215C93.0749 119.139 93.305 118.871 93.6119 118.672C93.9215 118.47 94.3335 118.369 94.8477 118.369C95.2937 118.369 95.6843 118.459 96.0195 118.638C96.3548 118.814 96.6147 119.085 96.7994 119.452C96.9869 119.815 97.0806 120.278 97.0806 120.841V125H96.0749V120.909C96.0749 120.389 95.94 119.987 95.6701 119.703C95.4031 119.416 95.0323 119.273 94.5579 119.273C94.2283 119.273 93.9329 119.342 93.6715 119.482C93.413 119.621 93.2085 119.824 93.0579 120.091C92.9102 120.358 92.8363 120.682 92.8363 121.062ZM98.9205 125V118.455H99.9261V125H98.9205ZM99.4318 117.364C99.2358 117.364 99.0668 117.297 98.9247 117.163C98.7855 117.03 98.7159 116.869 98.7159 116.682C98.7159 116.494 98.7855 116.334 98.9247 116.2C99.0668 116.067 99.2358 116 99.4318 116C99.6278 116 99.7955 116.067 99.9347 116.2C100.077 116.334 100.148 116.494 100.148 116.682C100.148 116.869 100.077 117.03 99.9347 117.163C99.7955 117.297 99.6278 117.364 99.4318 117.364ZM102.774 121.062V125H101.768V118.455H102.74V119.477H102.825C102.978 119.145 103.211 118.878 103.524 118.676C103.836 118.472 104.24 118.369 104.734 118.369C105.177 118.369 105.565 118.46 105.897 118.642C106.23 118.821 106.488 119.094 106.673 119.46C106.858 119.824 106.95 120.284 106.95 120.841V125H105.944V120.909C105.944 120.395 105.811 119.994 105.544 119.707C105.277 119.418 104.91 119.273 104.444 119.273C104.123 119.273 103.836 119.342 103.583 119.482C103.333 119.621 103.136 119.824 102.991 120.091C102.846 120.358 102.774 120.682 102.774 121.062ZM111.634 118.455V119.307H108.242V118.455H111.634ZM109.231 116.886H110.237V123.125C110.237 123.409 110.278 123.622 110.36 123.764C110.445 123.903 110.553 123.997 110.684 124.045C110.817 124.091 110.958 124.114 111.106 124.114C111.217 124.114 111.308 124.108 111.379 124.097C111.45 124.082 111.506 124.071 111.549 124.062L111.754 124.966C111.685 124.991 111.59 125.017 111.468 125.043C111.346 125.071 111.191 125.085 111.004 125.085C110.719 125.085 110.441 125.024 110.168 124.902C109.898 124.78 109.674 124.594 109.495 124.344C109.319 124.094 109.231 123.778 109.231 123.398V116.886ZM119.369 118.455V119.307H115.977V118.455H119.369ZM116.965 116.886H117.971V123.125C117.971 123.409 118.012 123.622 118.094 123.764C118.18 123.903 118.288 123.997 118.418 124.045C118.552 124.091 118.692 124.114 118.84 124.114C118.951 124.114 119.042 124.108 119.113 124.097C119.184 124.082 119.241 124.071 119.283 124.062L119.488 124.966C119.42 124.991 119.325 125.017 119.202 125.043C119.08 125.071 118.925 125.085 118.738 125.085C118.454 125.085 118.175 125.024 117.903 124.902C117.633 124.78 117.408 124.594 117.229 124.344C117.053 124.094 116.965 123.778 116.965 123.398V116.886ZM123.555 125.136C122.925 125.136 122.381 124.997 121.923 124.719C121.469 124.438 121.118 124.045 120.871 123.543C120.626 123.037 120.504 122.449 120.504 121.778C120.504 121.108 120.626 120.517 120.871 120.006C121.118 119.491 121.462 119.091 121.902 118.804C122.345 118.514 122.862 118.369 123.453 118.369C123.794 118.369 124.131 118.426 124.463 118.54C124.795 118.653 125.098 118.838 125.371 119.094C125.643 119.347 125.861 119.682 126.023 120.099C126.185 120.517 126.266 121.031 126.266 121.642V122.068H121.22V121.199H125.243C125.243 120.83 125.169 120.5 125.021 120.21C124.876 119.92 124.669 119.692 124.399 119.524C124.132 119.357 123.817 119.273 123.453 119.273C123.053 119.273 122.706 119.372 122.413 119.571C122.124 119.767 121.901 120.023 121.744 120.338C121.588 120.653 121.51 120.991 121.51 121.352V121.932C121.51 122.426 121.595 122.845 121.766 123.189C121.939 123.53 122.179 123.79 122.486 123.969C122.793 124.145 123.149 124.233 123.555 124.233C123.82 124.233 124.058 124.196 124.271 124.122C124.487 124.045 124.673 123.932 124.83 123.781C124.986 123.628 125.107 123.437 125.192 123.21L126.163 123.483C126.061 123.812 125.889 124.102 125.648 124.352C125.406 124.599 125.108 124.793 124.753 124.932C124.398 125.068 123.999 125.136 123.555 125.136ZM128.37 118.455L129.938 121.131L131.506 118.455H132.665L130.551 121.727L132.665 125H131.506L129.938 122.46L128.37 125H127.211L129.29 121.727L127.211 118.455H128.37ZM136.947 118.455V119.307H133.555V118.455H136.947ZM134.543 116.886H135.549V123.125C135.549 123.409 135.59 123.622 135.673 123.764C135.758 123.903 135.866 123.997 135.996 124.045C136.13 124.091 136.271 124.114 136.418 124.114C136.529 124.114 136.62 124.108 136.691 124.097C136.762 124.082 136.819 124.071 136.862 124.062L137.066 124.966C136.998 124.991 136.903 125.017 136.781 125.043C136.658 125.071 136.504 125.085 136.316 125.085C136.032 125.085 135.754 125.024 135.481 124.902C135.211 124.78 134.987 124.594 134.808 124.344C134.631 124.094 134.543 123.778 134.543 123.398V116.886ZM144.681 118.455V119.307H141.289V118.455H144.681ZM142.278 116.886H143.283V123.125C143.283 123.409 143.325 123.622 143.407 123.764C143.492 123.903 143.6 123.997 143.731 124.045C143.864 124.091 144.005 124.114 144.153 124.114C144.263 124.114 144.354 124.108 144.425 124.097C144.496 124.082 144.553 124.071 144.596 124.062L144.8 124.966C144.732 124.991 144.637 125.017 144.515 125.043C144.393 125.071 144.238 125.085 144.05 125.085C143.766 125.085 143.488 125.024 143.215 124.902C142.945 124.78 142.721 124.594 142.542 124.344C142.366 124.094 142.278 123.778 142.278 123.398V116.886ZM148.783 125.136C148.192 125.136 147.673 124.996 147.227 124.714C146.784 124.433 146.438 124.04 146.188 123.534C145.94 123.028 145.817 122.437 145.817 121.761C145.817 121.08 145.94 120.484 146.188 119.976C146.438 119.467 146.784 119.072 147.227 118.791C147.673 118.51 148.192 118.369 148.783 118.369C149.374 118.369 149.891 118.51 150.334 118.791C150.78 119.072 151.126 119.467 151.374 119.976C151.624 120.484 151.749 121.08 151.749 121.761C151.749 122.437 151.624 123.028 151.374 123.534C151.126 124.04 150.78 124.433 150.334 124.714C149.891 124.996 149.374 125.136 148.783 125.136ZM148.783 124.233C149.232 124.233 149.601 124.118 149.891 123.888C150.18 123.658 150.395 123.355 150.534 122.98C150.673 122.605 150.743 122.199 150.743 121.761C150.743 121.324 150.673 120.916 150.534 120.538C150.395 120.161 150.18 119.855 149.891 119.622C149.601 119.389 149.232 119.273 148.783 119.273C148.334 119.273 147.964 119.389 147.675 119.622C147.385 119.855 147.17 120.161 147.031 120.538C146.892 120.916 146.822 121.324 146.822 121.761C146.822 122.199 146.892 122.605 147.031 122.98C147.17 123.355 147.385 123.658 147.675 123.888C147.964 124.118 148.334 124.233 148.783 124.233ZM157.664 121.062V125H156.659V116.273H157.664V119.477H157.75C157.903 119.139 158.133 118.871 158.44 118.672C158.75 118.47 159.162 118.369 159.676 118.369C160.122 118.369 160.512 118.459 160.848 118.638C161.183 118.814 161.443 119.085 161.627 119.452C161.815 119.815 161.909 120.278 161.909 120.841V125H160.903V120.909C160.903 120.389 160.768 119.987 160.498 119.703C160.231 119.416 159.86 119.273 159.386 119.273C159.056 119.273 158.761 119.342 158.5 119.482C158.241 119.621 158.037 119.824 157.886 120.091C157.738 120.358 157.664 120.682 157.664 121.062ZM166.493 125.136C165.862 125.136 165.318 124.997 164.861 124.719C164.406 124.438 164.055 124.045 163.808 123.543C163.564 123.037 163.442 122.449 163.442 121.778C163.442 121.108 163.564 120.517 163.808 120.006C164.055 119.491 164.399 119.091 164.839 118.804C165.283 118.514 165.8 118.369 166.391 118.369C166.732 118.369 167.068 118.426 167.401 118.54C167.733 118.653 168.036 118.838 168.308 119.094C168.581 119.347 168.798 119.682 168.96 120.099C169.122 120.517 169.203 121.031 169.203 121.642V122.068H164.158V121.199H168.18C168.18 120.83 168.107 120.5 167.959 120.21C167.814 119.92 167.607 119.692 167.337 119.524C167.07 119.357 166.754 119.273 166.391 119.273C165.99 119.273 165.643 119.372 165.351 119.571C165.061 119.767 164.838 120.023 164.682 120.338C164.526 120.653 164.447 120.991 164.447 121.352V121.932C164.447 122.426 164.533 122.845 164.703 123.189C164.876 123.53 165.116 123.79 165.423 123.969C165.73 124.145 166.087 124.233 166.493 124.233C166.757 124.233 166.996 124.196 167.209 124.122C167.425 124.045 167.611 123.932 167.767 123.781C167.923 123.628 168.044 123.437 168.129 123.21L169.101 123.483C168.999 123.812 168.827 124.102 168.585 124.352C168.344 124.599 168.045 124.793 167.69 124.932C167.335 125.068 166.936 125.136 166.493 125.136ZM171.739 116.273V125H170.733V116.273H171.739ZM173.581 127.455V118.455H174.552V119.494H174.672C174.745 119.381 174.848 119.236 174.978 119.06C175.112 118.881 175.302 118.722 175.549 118.582C175.799 118.44 176.137 118.369 176.564 118.369C177.115 118.369 177.6 118.507 178.021 118.783C178.441 119.058 178.77 119.449 179.005 119.955C179.241 120.46 179.359 121.057 179.359 121.744C179.359 122.438 179.241 123.038 179.005 123.547C178.77 124.053 178.443 124.445 178.025 124.723C177.608 124.999 177.126 125.136 176.581 125.136C176.16 125.136 175.824 125.067 175.571 124.928C175.318 124.786 175.123 124.625 174.987 124.446C174.85 124.264 174.745 124.114 174.672 123.994H174.586V127.455H173.581ZM174.569 121.727C174.569 122.222 174.642 122.658 174.787 123.036C174.931 123.411 175.143 123.705 175.422 123.918C175.7 124.128 176.041 124.233 176.444 124.233C176.865 124.233 177.216 124.122 177.497 123.901C177.781 123.676 177.994 123.375 178.136 122.997C178.281 122.616 178.353 122.193 178.353 121.727C178.353 121.267 178.282 120.852 178.14 120.483C178.001 120.111 177.789 119.817 177.505 119.601C177.224 119.382 176.87 119.273 176.444 119.273C176.035 119.273 175.691 119.376 175.413 119.584C175.135 119.788 174.924 120.075 174.782 120.445C174.64 120.811 174.569 121.239 174.569 121.727ZM188.393 122.324V118.455H189.399V125H188.393V123.892H188.325C188.172 124.224 187.933 124.507 187.609 124.74C187.285 124.97 186.876 125.085 186.382 125.085C185.973 125.085 185.609 124.996 185.291 124.817C184.973 124.635 184.723 124.362 184.541 123.999C184.359 123.632 184.268 123.17 184.268 122.614V118.455H185.274V122.545C185.274 123.023 185.407 123.403 185.674 123.688C185.944 123.972 186.288 124.114 186.706 124.114C186.956 124.114 187.21 124.05 187.468 123.922C187.73 123.794 187.949 123.598 188.125 123.334C188.304 123.07 188.393 122.733 188.393 122.324ZM195.877 119.92L194.974 120.176C194.917 120.026 194.833 119.879 194.722 119.737C194.614 119.592 194.467 119.473 194.279 119.379C194.092 119.286 193.852 119.239 193.559 119.239C193.158 119.239 192.825 119.331 192.558 119.516C192.293 119.697 192.161 119.929 192.161 120.21C192.161 120.46 192.252 120.658 192.434 120.803C192.616 120.947 192.9 121.068 193.286 121.165L194.258 121.403C194.843 121.545 195.279 121.763 195.566 122.055C195.853 122.345 195.996 122.719 195.996 123.176C195.996 123.551 195.888 123.886 195.673 124.182C195.46 124.477 195.161 124.71 194.778 124.881C194.394 125.051 193.948 125.136 193.44 125.136C192.772 125.136 192.219 124.991 191.782 124.702C191.344 124.412 191.067 123.989 190.951 123.432L191.906 123.193C191.996 123.545 192.168 123.81 192.421 123.986C192.677 124.162 193.011 124.25 193.423 124.25C193.891 124.25 194.263 124.151 194.539 123.952C194.817 123.75 194.957 123.509 194.957 123.227C194.957 123 194.877 122.81 194.718 122.656C194.559 122.5 194.315 122.384 193.985 122.307L192.894 122.051C192.295 121.909 191.854 121.689 191.573 121.391C191.295 121.089 191.156 120.713 191.156 120.261C191.156 119.892 191.259 119.565 191.467 119.281C191.677 118.997 191.962 118.774 192.323 118.612C192.687 118.45 193.099 118.369 193.559 118.369C194.207 118.369 194.715 118.511 195.085 118.795C195.457 119.08 195.721 119.455 195.877 119.92ZM200.255 125.136C199.624 125.136 199.08 124.997 198.623 124.719C198.168 124.438 197.817 124.045 197.57 123.543C197.326 123.037 197.203 122.449 197.203 121.778C197.203 121.108 197.326 120.517 197.57 120.006C197.817 119.491 198.161 119.091 198.601 118.804C199.044 118.514 199.561 118.369 200.152 118.369C200.493 118.369 200.83 118.426 201.162 118.54C201.495 118.653 201.797 118.838 202.07 119.094C202.343 119.347 202.56 119.682 202.722 120.099C202.884 120.517 202.965 121.031 202.965 121.642V122.068H197.919V121.199H201.942C201.942 120.83 201.868 120.5 201.721 120.21C201.576 119.92 201.368 119.692 201.098 119.524C200.831 119.357 200.516 119.273 200.152 119.273C199.752 119.273 199.405 119.372 199.113 119.571C198.823 119.767 198.6 120.023 198.444 120.338C198.287 120.653 198.209 120.991 198.209 121.352V121.932C198.209 122.426 198.294 122.845 198.465 123.189C198.638 123.53 198.878 123.79 199.185 123.969C199.492 124.145 199.848 124.233 200.255 124.233C200.519 124.233 200.757 124.196 200.971 124.122C201.186 124.045 201.373 123.932 201.529 123.781C201.685 123.628 201.806 123.437 201.891 123.21L202.863 123.483C202.76 123.812 202.588 124.102 202.347 124.352C202.105 124.599 201.807 124.793 201.452 124.932C201.097 125.068 200.698 125.136 200.255 125.136ZM204.495 125V118.455H205.466V119.443H205.534C205.654 119.119 205.87 118.857 206.182 118.655C206.495 118.453 206.847 118.352 207.239 118.352C207.313 118.352 207.405 118.354 207.516 118.357C207.627 118.359 207.711 118.364 207.767 118.369V119.392C207.733 119.384 207.655 119.371 207.533 119.354C207.414 119.334 207.287 119.324 207.154 119.324C206.836 119.324 206.551 119.391 206.301 119.524C206.054 119.655 205.858 119.837 205.713 120.07C205.571 120.3 205.5 120.562 205.5 120.858V125H204.495ZM208.942 125.068C208.732 125.068 208.552 124.993 208.401 124.842C208.251 124.692 208.175 124.511 208.175 124.301C208.175 124.091 208.251 123.911 208.401 123.76C208.552 123.609 208.732 123.534 208.942 123.534C209.153 123.534 209.333 123.609 209.484 123.76C209.634 123.911 209.71 124.091 209.71 124.301C209.71 124.44 209.674 124.568 209.603 124.685C209.535 124.801 209.442 124.895 209.326 124.966C209.212 125.034 209.085 125.068 208.942 125.068Z" fill="#959BA3"/>
<path d="M426.767 96.1818V84.3636H427.524V96.1818H426.767ZM429.315 87.9091C429.26 87.4413 429.035 87.0781 428.641 86.8196C428.247 86.5611 427.764 86.4318 427.192 86.4318C426.773 86.4318 426.407 86.4995 426.093 86.6349C425.782 86.7704 425.539 86.9566 425.364 87.1935C425.191 87.4305 425.105 87.6998 425.105 88.0014C425.105 88.2538 425.165 88.4708 425.285 88.6523C425.408 88.8308 425.565 88.9801 425.756 89.1001C425.947 89.2171 426.147 89.314 426.356 89.391C426.565 89.4648 426.758 89.5249 426.933 89.571L427.893 89.8295C428.14 89.8942 428.414 89.9834 428.715 90.0973C429.02 90.2112 429.311 90.3666 429.588 90.5636C429.868 90.7575 430.099 91.0067 430.28 91.3114C430.462 91.6161 430.553 91.9901 430.553 92.4332C430.553 92.9441 430.419 93.4058 430.151 93.8182C429.886 94.2306 429.498 94.5584 428.988 94.8015C428.48 95.0446 427.863 95.1662 427.136 95.1662C426.459 95.1662 425.873 95.0569 425.377 94.8384C424.885 94.6199 424.497 94.3152 424.214 93.9244C423.934 93.5335 423.776 93.0795 423.739 92.5625H424.92C424.951 92.9195 425.071 93.215 425.281 93.4489C425.493 93.6797 425.761 93.852 426.084 93.9659C426.41 94.0767 426.761 94.1321 427.136 94.1321C427.573 94.1321 427.966 94.0613 428.314 93.9197C428.661 93.7751 428.937 93.575 429.14 93.3196C429.343 93.0611 429.445 92.7595 429.445 92.4148C429.445 92.1009 429.357 91.8454 429.181 91.6484C429.006 91.4515 428.775 91.2914 428.489 91.1683C428.203 91.0452 427.893 90.9375 427.561 90.8452L426.398 90.5128C425.659 90.3004 425.074 89.9973 424.643 89.6033C424.213 89.2094 423.997 88.6939 423.997 88.0568C423.997 87.5275 424.14 87.0658 424.426 86.6719C424.716 86.2749 425.104 85.9671 425.59 85.7486C426.079 85.527 426.625 85.4162 427.229 85.4162C427.838 85.4162 428.38 85.5254 428.854 85.744C429.328 85.9594 429.703 86.2549 429.98 86.6303C430.26 87.0058 430.408 87.4321 430.423 87.9091H429.315Z" fill="#959BA3"/>
<path d="M444.303 85.5455V95H443.158V86.7457H443.102L440.794 88.2784V87.1151L443.158 85.5455H444.303ZM448.107 93.7074L448.033 94.206C447.98 94.5568 447.9 94.9323 447.793 95.3324C447.688 95.7325 447.579 96.1095 447.465 96.4634C447.351 96.8174 447.257 97.099 447.183 97.3082H446.352C446.392 97.1113 446.445 96.8512 446.509 96.5281C446.574 96.2049 446.638 95.8433 446.703 95.4432C446.771 95.0462 446.826 94.6399 446.869 94.2244L446.925 93.7074H448.107ZM452.86 95.1293C452.165 95.1293 451.572 94.94 451.083 94.5614C450.594 94.1798 450.22 93.6274 449.961 92.9041C449.703 92.1778 449.573 91.3007 449.573 90.2727C449.573 89.2509 449.703 88.3784 449.961 87.6552C450.223 86.9289 450.598 86.3749 451.088 85.9933C451.58 85.6085 452.171 85.4162 452.86 85.4162C453.55 85.4162 454.139 85.6085 454.628 85.9933C455.121 86.3749 455.496 86.9289 455.755 87.6552C456.016 88.3784 456.147 89.2509 456.147 90.2727C456.147 91.3007 456.018 92.1778 455.759 92.9041C455.501 93.6274 455.127 94.1798 454.638 94.5614C454.148 94.94 453.556 95.1293 452.86 95.1293ZM452.86 94.1136C453.55 94.1136 454.085 93.7812 454.467 93.1165C454.849 92.4517 455.039 91.5038 455.039 90.2727C455.039 89.4541 454.952 88.757 454.776 88.1815C454.604 87.6059 454.355 87.1674 454.028 86.8658C453.705 86.5642 453.316 86.4134 452.86 86.4134C452.177 86.4134 451.643 86.7504 451.258 87.4244C450.874 88.0953 450.681 89.0447 450.681 90.2727C450.681 91.0914 450.768 91.7869 450.94 92.3594C451.112 92.9318 451.36 93.3673 451.683 93.6658C452.009 93.9644 452.402 94.1136 452.86 94.1136ZM460.985 95.1293C460.29 95.1293 459.697 94.94 459.208 94.5614C458.719 94.1798 458.345 93.6274 458.086 92.9041C457.828 92.1778 457.698 91.3007 457.698 90.2727C457.698 89.2509 457.828 88.3784 458.086 87.6552C458.348 86.9289 458.723 86.3749 459.213 85.9933C459.705 85.6085 460.296 85.4162 460.985 85.4162C461.675 85.4162 462.264 85.6085 462.753 85.9933C463.246 86.3749 463.621 86.9289 463.88 87.6552C464.141 88.3784 464.272 89.2509 464.272 90.2727C464.272 91.3007 464.143 92.1778 463.884 92.9041C463.626 93.6274 463.252 94.1798 462.763 94.5614C462.273 94.94 461.681 95.1293 460.985 95.1293ZM460.985 94.1136C461.675 94.1136 462.21 93.7812 462.592 93.1165C462.974 92.4517 463.164 91.5038 463.164 90.2727C463.164 89.4541 463.077 88.757 462.901 88.1815C462.729 87.6059 462.48 87.1674 462.153 86.8658C461.83 86.5642 461.441 86.4134 460.985 86.4134C460.302 86.4134 459.768 86.7504 459.383 87.4244C458.999 88.0953 458.806 89.0447 458.806 90.2727C458.806 91.0914 458.893 91.7869 459.065 92.3594C459.237 92.9318 459.485 93.3673 459.808 93.6658C460.134 93.9644 460.527 94.1136 460.985 94.1136ZM469.11 95.1293C468.415 95.1293 467.822 94.94 467.333 94.5614C466.844 94.1798 466.47 93.6274 466.211 92.9041C465.953 92.1778 465.823 91.3007 465.823 90.2727C465.823 89.2509 465.953 88.3784 466.211 87.6552C466.473 86.9289 466.848 86.3749 467.338 85.9933C467.83 85.6085 468.421 85.4162 469.11 85.4162C469.8 85.4162 470.389 85.6085 470.878 85.9933C471.371 86.3749 471.746 86.9289 472.005 87.6552C472.266 88.3784 472.397 89.2509 472.397 90.2727C472.397 91.3007 472.268 92.1778 472.009 92.9041C471.751 93.6274 471.377 94.1798 470.888 94.5614C470.398 94.94 469.806 95.1293 469.11 95.1293ZM469.11 94.1136C469.8 94.1136 470.335 93.7812 470.717 93.1165C471.099 92.4517 471.289 91.5038 471.289 90.2727C471.289 89.4541 471.202 88.757 471.026 88.1815C470.854 87.6059 470.605 87.1674 470.278 86.8658C469.955 86.5642 469.566 86.4134 469.11 86.4134C468.427 86.4134 467.893 86.7504 467.508 87.4244C467.124 88.0953 466.931 89.0447 466.931 90.2727C466.931 91.0914 467.018 91.7869 467.19 92.3594C467.362 92.9318 467.61 93.3673 467.933 93.6658C468.259 93.9644 468.652 94.1136 469.11 94.1136ZM474.634 95.0739C474.406 95.0739 474.211 94.9923 474.048 94.8292C473.885 94.6661 473.803 94.4706 473.803 94.2429C473.803 94.0152 473.885 93.8197 474.048 93.6566C474.211 93.4935 474.406 93.4119 474.634 93.4119C474.862 93.4119 475.057 93.4935 475.22 93.6566C475.383 93.8197 475.465 94.0152 475.465 94.2429C475.465 94.3937 475.426 94.5322 475.35 94.6584C475.276 94.7846 475.176 94.8861 475.049 94.9631C474.926 95.0369 474.788 95.0739 474.634 95.0739ZM480.155 95.1293C479.46 95.1293 478.867 94.94 478.378 94.5614C477.889 94.1798 477.515 93.6274 477.256 92.9041C476.998 92.1778 476.868 91.3007 476.868 90.2727C476.868 89.2509 476.998 88.3784 477.256 87.6552C477.518 86.9289 477.893 86.3749 478.383 85.9933C478.875 85.6085 479.466 85.4162 480.155 85.4162C480.845 85.4162 481.434 85.6085 481.923 85.9933C482.416 86.3749 482.791 86.9289 483.05 87.6552C483.311 88.3784 483.442 89.2509 483.442 90.2727C483.442 91.3007 483.313 92.1778 483.054 92.9041C482.796 93.6274 482.422 94.1798 481.933 94.5614C481.443 94.94 480.851 95.1293 480.155 95.1293ZM480.155 94.1136C480.845 94.1136 481.38 93.7812 481.762 93.1165C482.143 92.4517 482.334 91.5038 482.334 90.2727C482.334 89.4541 482.247 88.757 482.071 88.1815C481.899 87.6059 481.649 87.1674 481.323 86.8658C481 86.5642 480.611 86.4134 480.155 86.4134C479.472 86.4134 478.938 86.7504 478.553 87.4244C478.169 88.0953 477.976 89.0447 477.976 90.2727C477.976 91.0914 478.062 91.7869 478.235 92.3594C478.407 92.9318 478.655 93.3673 478.978 93.6658C479.304 93.9644 479.697 94.1136 480.155 94.1136ZM488.28 95.1293C487.585 95.1293 486.992 94.94 486.503 94.5614C486.014 94.1798 485.64 93.6274 485.381 92.9041C485.123 92.1778 484.993 91.3007 484.993 90.2727C484.993 89.2509 485.123 88.3784 485.381 87.6552C485.643 86.9289 486.018 86.3749 486.508 85.9933C487 85.6085 487.591 85.4162 488.28 85.4162C488.97 85.4162 489.559 85.6085 490.048 85.9933C490.541 86.3749 490.916 86.9289 491.175 87.6552C491.436 88.3784 491.567 89.2509 491.567 90.2727C491.567 91.3007 491.438 92.1778 491.179 92.9041C490.921 93.6274 490.547 94.1798 490.058 94.5614C489.568 94.94 488.976 95.1293 488.28 95.1293ZM488.28 94.1136C488.97 94.1136 489.505 93.7812 489.887 93.1165C490.268 92.4517 490.459 91.5038 490.459 90.2727C490.459 89.4541 490.372 88.757 490.196 88.1815C490.024 87.6059 489.774 87.1674 489.448 86.8658C489.125 86.5642 488.736 86.4134 488.28 86.4134C487.597 86.4134 487.063 86.7504 486.678 87.4244C486.294 88.0953 486.101 89.0447 486.101 90.2727C486.101 91.0914 486.187 91.7869 486.36 92.3594C486.532 92.9318 486.78 93.3673 487.103 93.6658C487.429 93.9644 487.822 94.1136 488.28 94.1136Z" fill="#959BA3"/>
<g clip-path="url(#clip1_893_29242)">
<path d="M641.059 87.9987C641.215 87.5531 641.525 87.1774 641.932 86.9381C642.339 86.6988 642.818 86.6113 643.283 86.6912C643.749 86.771 644.171 87.013 644.475 87.3744C644.78 87.7357 644.946 88.193 644.945 88.6654C644.945 89.9987 642.945 90.6654 642.945 90.6654M642.999 93.332H643.005M649.665 89.9987C649.665 93.6806 646.681 96.6654 642.999 96.6654C639.317 96.6654 636.332 93.6806 636.332 89.9987C636.332 86.3168 639.317 83.332 642.999 83.332C646.681 83.332 649.665 86.3168 649.665 89.9987Z" stroke="#B8BFC7" stroke-width="1.33333" stroke-linecap="round" stroke-linejoin="round"/>
</g>
<rect x="410.5" y="71.5" width="241" height="37" stroke="#0D69D4"/>
<g clip-path="url(#clip2_893_29242)">
<g clip-path="url(#clip3_893_29242)">
<mask maskUnits="userSpaceOnUse" x="0" y="0" width="0" height="0" fill="black">
<rect fill="white" width="0" height="0"/>
</mask>
<path d="M364.28 62.2197C363.987 61.9268 363.513 61.9268 363.22 62.2197L358.447 66.9926C358.154 67.2855 358.154 67.7604 358.447 68.0533C358.74 68.3462 359.214 68.3462 359.507 68.0533L363.75 63.8107L367.993 68.0533C368.286 68.3462 368.76 68.3462 369.053 68.0533C369.346 67.7604 369.346 67.2855 369.053 66.9926L364.28 62.2197ZM363.22 89.2803C363.513 89.5732 363.987 89.5732 364.28 89.2803L369.053 84.5074C369.346 84.2145 369.346 83.7396 369.053 83.4467C368.76 83.1538 368.286 83.1538 367.993 83.4467L363.75 87.6893L359.507 83.4467C359.214 83.1538 358.74 83.1538 358.447 83.4467C358.154 83.7396 358.154 84.2145 358.447 84.5074L363.22 89.2803ZM363 62.75V88.75H364.5V62.75H363Z" fill="#0D69D4" mask="url(#)"/>
<mask maskUnits="userSpaceOnUse" x="0" y="0" width="0" height="0" fill="black">
<rect fill="white" width="0" height="0"/>
</mask>
<path d="M364.28 90.7197C363.987 90.4268 363.513 90.4268 363.22 90.7197L358.447 95.4926C358.154 95.7855 358.154 96.2604 358.447 96.5533C358.74 96.8462 359.214 96.8462 359.507 96.5533L363.75 92.3107L367.993 96.5533C368.286 96.8462 368.76 96.8462 369.053 96.5533C369.346 96.2604 369.346 95.7855 369.053 95.4926L364.28 90.7197ZM363.22 117.78C363.513 118.073 363.987 118.073 364.28 117.78L369.053 113.007C369.346 112.714 369.346 112.24 369.053 111.947C368.76 111.654 368.286 111.654 367.993 111.947L363.75 116.189L359.507 111.947C359.214 111.654 358.74 111.654 358.447 111.947C358.154 112.24 358.154 112.714 358.447 113.007L363.22 117.78ZM363 91.25V117.25H364.5V91.25H363Z" fill="#0D69D4" mask="url(#)"/>
</g>
</g>
<rect x="627" y="80" width="8" height="20" fill="#C54600" fill-opacity="0.3"/>
<line x1="627.5" y1="56" x2="627.5" y2="108" stroke="#C54600"/>
<line x1="634.5" y1="56" x2="634.5" y2="108" stroke="#C54600"/>
<path d="M630.963 52.1193C630.307 52.1193 629.723 52.0128 629.212 51.7997C628.703 51.5838 628.304 51.2898 628.014 50.9176C627.724 50.5455 627.58 50.1236 627.58 49.652C627.58 49.2884 627.662 48.9545 627.827 48.6506C627.994 48.3438 628.222 48.0895 628.509 47.8878C628.795 47.6832 629.116 47.5526 629.472 47.4957V47.4361C629.006 47.3423 628.628 47.1165 628.338 46.7585C628.048 46.3977 627.903 45.9787 627.903 45.5014C627.903 45.0497 628.036 44.6477 628.3 44.2955C628.564 43.9403 628.926 43.6619 629.386 43.4602C629.849 43.2557 630.375 43.1534 630.963 43.1534C631.551 43.1534 632.075 43.2557 632.536 43.4602C632.999 43.6648 633.362 43.9446 633.626 44.2997C633.891 44.652 634.024 45.0526 634.027 45.5014C634.024 45.9815 633.876 46.4006 633.584 46.7585C633.291 47.1165 632.916 47.3423 632.459 47.4361V47.4957C632.808 47.5526 633.125 47.6832 633.409 47.8878C633.696 48.0895 633.923 48.3438 634.091 48.6506C634.261 48.9545 634.348 49.2884 634.351 49.652C634.348 50.1236 634.202 50.5455 633.912 50.9176C633.622 51.2898 633.222 51.5838 632.71 51.7997C632.202 52.0128 631.619 52.1193 630.963 52.1193ZM630.963 50.7642C631.256 50.7642 631.511 50.7116 631.73 50.6065C631.949 50.4986 632.119 50.3509 632.241 50.1634C632.366 49.973 632.429 49.7543 632.429 49.5071C632.429 49.2543 632.365 49.0312 632.237 48.8381C632.109 48.642 631.936 48.4886 631.717 48.3778C631.499 48.2642 631.247 48.2074 630.963 48.2074C630.682 48.2074 630.43 48.2642 630.209 48.3778C629.987 48.4886 629.813 48.642 629.685 48.8381C629.56 49.0312 629.497 49.2543 629.497 49.5071C629.497 49.7543 629.558 49.973 629.68 50.1634C629.803 50.3509 629.974 50.4986 630.196 50.6065C630.418 50.7116 630.673 50.7642 630.963 50.7642ZM630.963 46.8651C631.207 46.8651 631.425 46.8153 631.615 46.7159C631.805 46.6165 631.955 46.4787 632.062 46.3026C632.17 46.1264 632.224 45.9233 632.224 45.6932C632.224 45.4659 632.17 45.267 632.062 45.0966C631.955 44.9233 631.807 44.7884 631.619 44.6918C631.432 44.5923 631.213 44.5426 630.963 44.5426C630.716 44.5426 630.497 44.5923 630.307 44.6918C630.116 44.7884 629.967 44.9233 629.859 45.0966C629.754 45.267 629.702 45.4659 629.702 45.6932C629.702 45.9233 629.756 46.1264 629.864 46.3026C629.972 46.4787 630.121 46.6165 630.311 46.7159C630.501 46.8153 630.719 46.8651 630.963 46.8651Z" fill="#C54600"/>
<mask maskUnits="userSpaceOnUse" x="0" y="0" width="0" height="0" fill="black">
<rect fill="white" width="0" height="0"/>
</mask>
<path d="M423.146 63.1464C422.951 63.3417 422.951 63.6583 423.146 63.8536L426.328 67.0355C426.524 67.2308 426.84 67.2308 427.036 67.0355C427.231 66.8403 427.231 66.5237 427.036 66.3284L424.207 63.5L427.036 60.6716C427.231 60.4763 427.231 60.1597 427.036 59.9645C426.84 59.7692 426.524 59.7692 426.328 59.9645L423.146 63.1464ZM626.854 63.8536C627.049 63.6583 627.049 63.3417 626.854 63.1464L623.672 59.9645C623.476 59.7692 623.16 59.7692 622.964 59.9645C622.769 60.1597 622.769 60.4763 622.964 60.6716L625.793 63.5L622.964 66.3284C622.769 66.5237 622.769 66.8403 622.964 67.0355C623.16 67.2308 623.476 67.2308 623.672 67.0355L626.854 63.8536ZM423.5 64H626.5V63H423.5V64Z" fill="#0D69D4" mask="url(#)"/>
<rect x="423" y="80" width="204" height="20" fill="#0D69D4" fill-opacity="0.2"/>
<rect x="635" y="82" width="16" height="16" fill="#0D69D4" fill-opacity="0.2"/>
<rect x="411" y="72" width="240" height="8" fill="#007D00" fill-opacity="0.3"/>
<line x1="395" y1="72.5" x2="651" y2="72.5" stroke="#007D00"/>
<line x1="395" y1="79.5" x2="651" y2="79.5" stroke="#007D00"/>
<path d="M386.963 80.1193C386.307 80.1193 385.723 80.0128 385.212 79.7997C384.703 79.5838 384.304 79.2898 384.014 78.9176C383.724 78.5455 383.58 78.1236 383.58 77.652C383.58 77.2884 383.662 76.9545 383.827 76.6506C383.994 76.3438 384.222 76.0895 384.509 75.8878C384.795 75.6832 385.116 75.5526 385.472 75.4957V75.4361C385.006 75.3423 384.628 75.1165 384.338 74.7585C384.048 74.3977 383.903 73.9787 383.903 73.5014C383.903 73.0497 384.036 72.6477 384.3 72.2955C384.564 71.9403 384.926 71.6619 385.386 71.4602C385.849 71.2557 386.375 71.1534 386.963 71.1534C387.551 71.1534 388.075 71.2557 388.536 71.4602C388.999 71.6648 389.362 71.9446 389.626 72.2997C389.891 72.652 390.024 73.0526 390.027 73.5014C390.024 73.9815 389.876 74.4006 389.584 74.7585C389.291 75.1165 388.916 75.3423 388.459 75.4361V75.4957C388.808 75.5526 389.125 75.6832 389.409 75.8878C389.696 76.0895 389.923 76.3438 390.091 76.6506C390.261 76.9545 390.348 77.2884 390.351 77.652C390.348 78.1236 390.202 78.5455 389.912 78.9176C389.622 79.2898 389.222 79.5838 388.71 79.7997C388.202 80.0128 387.619 80.1193 386.963 80.1193ZM386.963 78.7642C387.256 78.7642 387.511 78.7116 387.73 78.6065C387.949 78.4986 388.119 78.3509 388.241 78.1634C388.366 77.973 388.429 77.7543 388.429 77.5071C388.429 77.2543 388.365 77.0312 388.237 76.8381C388.109 76.642 387.936 76.4886 387.717 76.3778C387.499 76.2642 387.247 76.2074 386.963 76.2074C386.682 76.2074 386.43 76.2642 386.209 76.3778C385.987 76.4886 385.813 76.642 385.685 76.8381C385.56 77.0312 385.497 77.2543 385.497 77.5071C385.497 77.7543 385.558 77.973 385.68 78.1634C385.803 78.3509 385.974 78.4986 386.196 78.6065C386.418 78.7116 386.673 78.7642 386.963 78.7642ZM386.963 74.8651C387.207 74.8651 387.425 74.8153 387.615 74.7159C387.805 74.6165 387.955 74.4787 388.062 74.3026C388.17 74.1264 388.224 73.9233 388.224 73.6932C388.224 73.4659 388.17 73.267 388.062 73.0966C387.955 72.9233 387.807 72.7884 387.619 72.6918C387.432 72.5923 387.213 72.5426 386.963 72.5426C386.716 72.5426 386.497 72.5923 386.307 72.6918C386.116 72.7884 385.967 72.9233 385.859 73.0966C385.754 73.267 385.702 73.4659 385.702 73.6932C385.702 73.9233 385.756 74.1264 385.864 74.3026C385.972 74.4787 386.121 74.6165 386.311 74.7159C386.501 74.8153 386.719 74.8651 386.963 74.8651Z" fill="#007D00"/>
<rect x="411" y="100" width="240" height="8" fill="#007D00" fill-opacity="0.3"/>
<line x1="395" y1="100.5" x2="651" y2="100.5" stroke="#007D00"/>
<line x1="395" y1="107.5" x2="651" y2="107.5" stroke="#007D00"/>
<path d="M386.963 108.119C386.307 108.119 385.723 108.013 385.212 107.8C384.703 107.584 384.304 107.29 384.014 106.918C383.724 106.545 383.58 106.124 383.58 105.652C383.58 105.288 383.662 104.955 383.827 104.651C383.994 104.344 384.222 104.089 384.509 103.888C384.795 103.683 385.116 103.553 385.472 103.496V103.436C385.006 103.342 384.628 103.116 384.338 102.759C384.048 102.398 383.903 101.979 383.903 101.501C383.903 101.05 384.036 100.648 384.3 100.295C384.564 99.9403 384.926 99.6619 385.386 99.4602C385.849 99.2557 386.375 99.1534 386.963 99.1534C387.551 99.1534 388.075 99.2557 388.536 99.4602C388.999 99.6648 389.362 99.9446 389.626 100.3C389.891 100.652 390.024 101.053 390.027 101.501C390.024 101.982 389.876 102.401 389.584 102.759C389.291 103.116 388.916 103.342 388.459 103.436V103.496C388.808 103.553 389.125 103.683 389.409 103.888C389.696 104.089 389.923 104.344 390.091 104.651C390.261 104.955 390.348 105.288 390.351 105.652C390.348 106.124 390.202 106.545 389.912 106.918C389.622 107.29 389.222 107.584 388.71 107.8C388.202 108.013 387.619 108.119 386.963 108.119ZM386.963 106.764C387.256 106.764 387.511 106.712 387.73 106.607C387.949 106.499 388.119 106.351 388.241 106.163C388.366 105.973 388.429 105.754 388.429 105.507C388.429 105.254 388.365 105.031 388.237 104.838C388.109 104.642 387.936 104.489 387.717 104.378C387.499 104.264 387.247 104.207 386.963 104.207C386.682 104.207 386.43 104.264 386.209 104.378C385.987 104.489 385.813 104.642 385.685 104.838C385.56 105.031 385.497 105.254 385.497 105.507C385.497 105.754 385.558 105.973 385.68 106.163C385.803 106.351 385.974 106.499 386.196 106.607C386.418 106.712 386.673 106.764 386.963 106.764ZM386.963 102.865C387.207 102.865 387.425 102.815 387.615 102.716C387.805 102.616 387.955 102.479 388.062 102.303C388.17 102.126 388.224 101.923 388.224 101.693C388.224 101.466 388.17 101.267 388.062 101.097C387.955 100.923 387.807 100.788 387.619 100.692C387.432 100.592 387.213 100.543 386.963 100.543C386.716 100.543 386.497 100.592 386.307 100.692C386.116 100.788 385.967 100.923 385.859 101.097C385.754 101.267 385.702 101.466 385.702 101.693C385.702 101.923 385.756 102.126 385.864 102.303C385.972 102.479 386.121 102.616 386.311 102.716C386.501 102.815 386.719 102.865 386.963 102.865Z" fill="#007D00"/>
<rect x="411" y="80" width="12" height="20" fill="#007D00" fill-opacity="0.3"/>
<line x1="411.5" y1="56" x2="411.5" y2="108" stroke="#007D00"/>
<line x1="422.5" y1="56" x2="422.5" y2="108" stroke="#007D00"/>
<path d="M414.504 43.2727V52H412.659V45.0241H412.608L410.609 46.277V44.6406L412.77 43.2727H414.504ZM416.578 52V50.6705L419.685 47.794C419.949 47.5384 420.171 47.3082 420.35 47.1037C420.532 46.8991 420.669 46.6989 420.763 46.5028C420.857 46.304 420.904 46.0895 420.904 45.8594C420.904 45.6037 420.846 45.3835 420.729 45.1989C420.613 45.0114 420.453 44.8679 420.252 44.7685C420.05 44.6662 419.821 44.6151 419.566 44.6151C419.299 44.6151 419.066 44.669 418.867 44.777C418.668 44.8849 418.515 45.0398 418.407 45.2415C418.299 45.4432 418.245 45.6832 418.245 45.9616H416.493C416.493 45.3906 416.623 44.8949 416.881 44.4744C417.14 44.054 417.502 43.7287 417.968 43.4986C418.434 43.2685 418.971 43.1534 419.578 43.1534C420.203 43.1534 420.748 43.2642 421.211 43.4858C421.676 43.7045 422.039 44.0085 422.297 44.3977C422.556 44.7869 422.685 45.233 422.685 45.7358C422.685 46.0653 422.62 46.3906 422.489 46.7116C422.361 47.0327 422.132 47.3892 421.803 47.7812C421.473 48.1705 421.009 48.6378 420.409 49.1832L419.135 50.4318V50.4915H422.8V52H416.578Z" fill="#007D00"/>
<path d="M676.349 85.5455H677.494V91.8054C677.494 92.4517 677.342 93.0288 677.037 93.5366C676.736 94.0413 676.309 94.4399 675.759 94.7322C675.208 95.0215 674.561 95.1662 673.82 95.1662C673.078 95.1662 672.432 95.0215 671.881 94.7322C671.33 94.4399 670.902 94.0413 670.597 93.5366C670.296 93.0288 670.145 92.4517 670.145 91.8054V85.5455H671.29V91.7131C671.29 92.1747 671.391 92.5856 671.594 92.9457C671.798 93.3027 672.087 93.5843 672.462 93.7905C672.841 93.9936 673.293 94.0952 673.82 94.0952C674.346 94.0952 674.798 93.9936 675.177 93.7905C675.555 93.5843 675.845 93.3027 676.045 92.9457C676.248 92.5856 676.349 92.1747 676.349 91.7131V85.5455ZM684.951 87.9091C684.896 87.4413 684.671 87.0781 684.277 86.8196C683.883 86.5611 683.4 86.4318 682.828 86.4318C682.409 86.4318 682.043 86.4995 681.729 86.6349C681.418 86.7704 681.175 86.9566 680.999 87.1935C680.827 87.4305 680.741 87.6998 680.741 88.0014C680.741 88.2538 680.801 88.4708 680.921 88.6523C681.044 88.8308 681.201 88.9801 681.392 89.1001C681.583 89.2171 681.783 89.314 681.992 89.391C682.201 89.4648 682.394 89.5249 682.569 89.571L683.529 89.8295C683.775 89.8942 684.049 89.9834 684.351 90.0973C684.656 90.2112 684.946 90.3666 685.223 90.5636C685.504 90.7575 685.734 91.0067 685.916 91.3114C686.098 91.6161 686.188 91.9901 686.188 92.4332C686.188 92.9441 686.054 93.4058 685.787 93.8182C685.522 94.2306 685.134 94.5584 684.623 94.8015C684.116 95.0446 683.498 95.1662 682.772 95.1662C682.095 95.1662 681.509 95.0569 681.013 94.8384C680.521 94.6199 680.133 94.3152 679.85 93.9244C679.57 93.5335 679.411 93.0795 679.374 92.5625H680.556C680.587 92.9195 680.707 93.215 680.916 93.4489C681.129 93.6797 681.396 93.852 681.72 93.9659C682.046 94.0767 682.397 94.1321 682.772 94.1321C683.209 94.1321 683.602 94.0613 683.949 93.9197C684.297 93.7751 684.573 93.575 684.776 93.3196C684.979 93.0611 685.08 92.7595 685.08 92.4148C685.08 92.1009 684.993 91.8454 684.817 91.6484C684.642 91.4515 684.411 91.2914 684.125 91.1683C683.839 91.0452 683.529 90.9375 683.197 90.8452L682.033 90.5128C681.295 90.3004 680.71 89.9973 680.279 89.6033C679.848 89.2094 679.633 88.6939 679.633 88.0568C679.633 87.5275 679.776 87.0658 680.062 86.6719C680.352 86.2749 680.739 85.9671 681.226 85.7486C681.715 85.527 682.261 85.4162 682.864 85.4162C683.474 85.4162 684.015 85.5254 684.489 85.744C684.963 85.9594 685.339 86.2549 685.616 86.6303C685.896 87.0058 686.044 87.4321 686.059 87.9091H684.951ZM690.988 95H688.071V85.5455H691.118C692.035 85.5455 692.819 85.7347 693.472 86.1133C694.124 86.4888 694.625 87.0289 694.972 87.7337C695.32 88.4354 695.494 89.2756 695.494 90.2543C695.494 91.2391 695.319 92.087 694.968 92.7979C694.617 93.5058 694.106 94.0505 693.435 94.4322C692.764 94.8107 691.949 95 690.988 95ZM689.216 93.9844H690.914C691.696 93.9844 692.344 93.8336 692.858 93.532C693.372 93.2304 693.755 92.801 694.007 92.244C694.26 91.6869 694.386 91.0237 694.386 90.2543C694.386 89.491 694.261 88.8339 694.012 88.283C693.763 87.729 693.39 87.3043 692.895 87.0089C692.399 86.7103 691.782 86.5611 691.044 86.5611H689.216V93.9844Z" fill="#1F243D"/>
<path d="M702 87.5L707 92.5L712 87.5" stroke="#959BA3" stroke-width="1.66667" stroke-linecap="round" stroke-linejoin="round"/>
<rect x="652.5" y="71.5" width="81" height="37" stroke="#0D69D4"/>
<rect x="695" y="80" width="4" height="20" fill="#C54600" fill-opacity="0.3"/>
<line x1="695.5" y1="56" x2="695.5" y2="108" stroke="#C54600"/>
<line x1="698.5" y1="56" x2="698.5" y2="108" stroke="#C54600"/>
<path d="M693.075 50.4659V49.0128L696.719 43.2727H697.972V45.2841H697.23L694.933 48.919V48.9872H700.111V50.4659H693.075ZM697.264 52V50.0227L697.298 49.3793V43.2727H699.028V52H697.264Z" fill="#C54600"/>
<g clip-path="url(#clip4_893_29242)">
<mask maskUnits="userSpaceOnUse" x="0" y="0" width="0" height="0" fill="black">
<rect fill="white" width="0" height="0"/>
</mask>
<path d="M657.146 63.1464C656.951 63.3417 656.951 63.6583 657.146 63.8536L660.328 67.0355C660.524 67.2308 660.84 67.2308 661.036 67.0355C661.231 66.8403 661.231 66.5237 661.036 66.3284L658.207 63.5L661.036 60.6716C661.231 60.4763 661.231 60.1597 661.036 59.9645C660.84 59.7692 660.524 59.7692 660.328 59.9645L657.146 63.1464ZM680.354 63.8536C680.549 63.6583 680.549 63.3417 680.354 63.1464L677.172 59.9645C676.976 59.7692 676.66 59.7692 676.464 59.9645C676.269 60.1597 676.269 60.4763 676.464 60.6716L679.293 63.5L676.464 66.3284C676.269 66.5237 676.269 66.8403 676.464 67.0355C676.66 67.2308 676.976 67.2308 677.172 67.0355L680.354 63.8536ZM657.5 64H680V63H657.5V64Z" fill="#0D69D4" mask="url(#)"/>
<mask maskUnits="userSpaceOnUse" x="0" y="0" width="0" height="0" fill="black">
<rect fill="white" width="0" height="0"/>
</mask>
<path d="M681.646 63.1464C681.451 63.3417 681.451 63.6583 681.646 63.8536L684.828 67.0355C685.024 67.2308 685.34 67.2308 685.536 67.0355C685.731 66.8403 685.731 66.5237 685.536 66.3284L682.707 63.5L685.536 60.6716C685.731 60.4763 685.731 60.1597 685.536 59.9645C685.34 59.7692 685.024 59.7692 684.828 59.9645L681.646 63.1464ZM704.854 63.8536C705.049 63.6583 705.049 63.3417 704.854 63.1464L701.672 59.9645C701.476 59.7692 701.16 59.7692 700.964 59.9645C700.769 60.1597 700.769 60.4763 700.964 60.6716L703.793 63.5L700.964 66.3284C700.769 66.5237 700.769 66.8403 700.964 67.0355C701.16 67.2308 701.476 67.2308 701.672 67.0355L704.854 63.8536ZM682 64H704.5V63H682V64Z" fill="#0D69D4" mask="url(#)"/>
</g>
<rect x="667" y="80" width="28" height="20" fill="#0D69D4" fill-opacity="0.2"/>
<rect x="699" y="80" width="20" height="20" fill="#0D69D4" fill-opacity="0.2"/>
<rect x="653" y="72" width="80" height="8" fill="#007D00" fill-opacity="0.3"/>
<line x1="652" y1="72.5" x2="748" y2="72.5" stroke="#007D00"/>
<line x1="652" y1="79.5" x2="748" y2="79.5" stroke="#007D00"/>
<path d="M757.963 80.1193C757.307 80.1193 756.723 80.0128 756.212 79.7997C755.703 79.5838 755.304 79.2898 755.014 78.9176C754.724 78.5455 754.58 78.1236 754.58 77.652C754.58 77.2884 754.662 76.9545 754.827 76.6506C754.994 76.3438 755.222 76.0895 755.509 75.8878C755.795 75.6832 756.116 75.5526 756.472 75.4957V75.4361C756.006 75.3423 755.628 75.1165 755.338 74.7585C755.048 74.3977 754.903 73.9787 754.903 73.5014C754.903 73.0497 755.036 72.6477 755.3 72.2955C755.564 71.9403 755.926 71.6619 756.386 71.4602C756.849 71.2557 757.375 71.1534 757.963 71.1534C758.551 71.1534 759.075 71.2557 759.536 71.4602C759.999 71.6648 760.362 71.9446 760.626 72.2997C760.891 72.652 761.024 73.0526 761.027 73.5014C761.024 73.9815 760.876 74.4006 760.584 74.7585C760.291 75.1165 759.916 75.3423 759.459 75.4361V75.4957C759.808 75.5526 760.125 75.6832 760.409 75.8878C760.696 76.0895 760.923 76.3438 761.091 76.6506C761.261 76.9545 761.348 77.2884 761.351 77.652C761.348 78.1236 761.202 78.5455 760.912 78.9176C760.622 79.2898 760.222 79.5838 759.71 79.7997C759.202 80.0128 758.619 80.1193 757.963 80.1193ZM757.963 78.7642C758.256 78.7642 758.511 78.7116 758.73 78.6065C758.949 78.4986 759.119 78.3509 759.241 78.1634C759.366 77.973 759.429 77.7543 759.429 77.5071C759.429 77.2543 759.365 77.0312 759.237 76.8381C759.109 76.642 758.936 76.4886 758.717 76.3778C758.499 76.2642 758.247 76.2074 757.963 76.2074C757.682 76.2074 757.43 76.2642 757.209 76.3778C756.987 76.4886 756.813 76.642 756.685 76.8381C756.56 77.0312 756.497 77.2543 756.497 77.5071C756.497 77.7543 756.558 77.973 756.68 78.1634C756.803 78.3509 756.974 78.4986 757.196 78.6065C757.418 78.7116 757.673 78.7642 757.963 78.7642ZM757.963 74.8651C758.207 74.8651 758.425 74.8153 758.615 74.7159C758.805 74.6165 758.955 74.4787 759.062 74.3026C759.17 74.1264 759.224 73.9233 759.224 73.6932C759.224 73.4659 759.17 73.267 759.062 73.0966C758.955 72.9233 758.807 72.7884 758.619 72.6918C758.432 72.5923 758.213 72.5426 757.963 72.5426C757.716 72.5426 757.497 72.5923 757.307 72.6918C757.116 72.7884 756.967 72.9233 756.859 73.0966C756.754 73.267 756.702 73.4659 756.702 73.6932C756.702 73.9233 756.756 74.1264 756.864 74.3026C756.972 74.4787 757.121 74.6165 757.311 74.7159C757.501 74.8153 757.719 74.8651 757.963 74.8651Z" fill="#007D00"/>
<rect x="653" y="100" width="80" height="8" fill="#007D00" fill-opacity="0.3"/>
<line x1="652" y1="100.5" x2="748" y2="100.5" stroke="#007D00"/>
<line x1="652" y1="107.5" x2="748" y2="107.5" stroke="#007D00"/>
<path d="M757.963 108.119C757.307 108.119 756.723 108.013 756.212 107.8C755.703 107.584 755.304 107.29 755.014 106.918C754.724 106.545 754.58 106.124 754.58 105.652C754.58 105.288 754.662 104.955 754.827 104.651C754.994 104.344 755.222 104.089 755.509 103.888C755.795 103.683 756.116 103.553 756.472 103.496V103.436C756.006 103.342 755.628 103.116 755.338 102.759C755.048 102.398 754.903 101.979 754.903 101.501C754.903 101.05 755.036 100.648 755.3 100.295C755.564 99.9403 755.926 99.6619 756.386 99.4602C756.849 99.2557 757.375 99.1534 757.963 99.1534C758.551 99.1534 759.075 99.2557 759.536 99.4602C759.999 99.6648 760.362 99.9446 760.626 100.3C760.891 100.652 761.024 101.053 761.027 101.501C761.024 101.982 760.876 102.401 760.584 102.759C760.291 103.116 759.916 103.342 759.459 103.436V103.496C759.808 103.553 760.125 103.683 760.409 103.888C760.696 104.089 760.923 104.344 761.091 104.651C761.261 104.955 761.348 105.288 761.351 105.652C761.348 106.124 761.202 106.545 760.912 106.918C760.622 107.29 760.222 107.584 759.71 107.8C759.202 108.013 758.619 108.119 757.963 108.119ZM757.963 106.764C758.256 106.764 758.511 106.712 758.73 106.607C758.949 106.499 759.119 106.351 759.241 106.163C759.366 105.973 759.429 105.754 759.429 105.507C759.429 105.254 759.365 105.031 759.237 104.838C759.109 104.642 758.936 104.489 758.717 104.378C758.499 104.264 758.247 104.207 757.963 104.207C757.682 104.207 757.43 104.264 757.209 104.378C756.987 104.489 756.813 104.642 756.685 104.838C756.56 105.031 756.497 105.254 756.497 105.507C756.497 105.754 756.558 105.973 756.68 106.163C756.803 106.351 756.974 106.499 757.196 106.607C757.418 106.712 757.673 106.764 757.963 106.764ZM757.963 102.865C758.207 102.865 758.425 102.815 758.615 102.716C758.805 102.616 758.955 102.479 759.062 102.303C759.17 102.126 759.224 101.923 759.224 101.693C759.224 101.466 759.17 101.267 759.062 101.097C758.955 100.923 758.807 100.788 758.619 100.692C758.432 100.592 758.213 100.543 757.963 100.543C757.716 100.543 757.497 100.592 757.307 100.692C757.116 100.788 756.967 100.923 756.859 101.097C756.754 101.267 756.702 101.466 756.702 101.693C756.702 101.923 756.756 102.126 756.864 102.303C756.972 102.479 757.121 102.616 757.311 102.716C757.501 102.815 757.719 102.865 757.963 102.865Z" fill="#007D00"/>
<rect x="653" y="80" width="14" height="20" fill="#007D00" fill-opacity="0.3"/>
<line x1="653.5" y1="56" x2="653.5" y2="108" stroke="#007D00"/>
<line x1="666.5" y1="56" x2="666.5" y2="108" stroke="#007D00"/>
<path d="M657.004 43.2727V52H655.159V45.0241H655.108L653.109 46.277V44.6406L655.27 43.2727H657.004ZM658.946 50.4659V49.0128L662.59 43.2727H663.843V45.2841H663.101L660.804 48.919V48.9872H665.982V50.4659H658.946ZM663.135 52V50.0227L663.169 49.3793V43.2727H664.9V52H663.135Z" fill="#007D00"/>
<rect x="719" y="80" width="14" height="20" fill="#007D00" fill-opacity="0.3"/>
<line x1="719.5" y1="56" x2="719.5" y2="108" stroke="#007D00"/>
<line x1="732.5" y1="56" x2="732.5" y2="108" stroke="#007D00"/>
<path d="M723.004 43.2727V52H721.159V45.0241H721.108L719.109 46.277V44.6406L721.27 43.2727H723.004ZM724.946 50.4659V49.0128L728.59 43.2727H729.843V45.2841H729.101L726.804 48.919V48.9872H731.982V50.4659H724.946ZM729.135 52V50.0227L729.169 49.3793V43.2727H730.9V52H729.135Z" fill="#007D00"/>
<defs>
<clipPath id="clip0_893_29242">
<rect x="41" y="70" width="286" height="36" rx="3" fill="white"/>
</clipPath>
<clipPath id="clip1_893_29242">
<rect width="16" height="16" fill="white" transform="translate(635 82)"/>
</clipPath>
<clipPath id="clip2_893_29242">
<rect width="36" height="16" fill="white" transform="matrix(0 1 -1 0 371 72)"/>
</clipPath>
<clipPath id="clip3_893_29242">
<rect width="56" height="16" fill="white" transform="matrix(0 1 -1 0 371 62)"/>
</clipPath>
<clipPath id="clip4_893_29242">
<rect width="28" height="16" fill="white" transform="translate(667 56)"/>
</clipPath>
</defs>
</svg>
