<svg width="804" height="280" viewBox="0 0 804 280" fill="none" xmlns="http://www.w3.org/2000/svg">
<rect x="0.5" y="0.5" width="803" height="279" fill="#F9FAFB"/>
<rect x="341.5" y="100.5" width="19" height="19" rx="3.5" fill="white"/>
<rect x="341.5" y="100.5" width="19" height="19" rx="3.5" stroke="#D8DEE9"/>
<path d="M374.145 115V105.545H377.339C378.078 105.545 378.684 105.672 379.158 105.924C379.632 106.173 379.983 106.516 380.211 106.953C380.439 107.391 380.553 107.888 380.553 108.445C380.553 109.002 380.439 109.496 380.211 109.926C379.983 110.357 379.634 110.696 379.163 110.942C378.692 111.185 378.09 111.307 377.358 111.307H374.773V110.273H377.321C377.826 110.273 378.232 110.199 378.54 110.051C378.851 109.903 379.075 109.694 379.214 109.423C379.355 109.149 379.426 108.823 379.426 108.445C379.426 108.066 379.355 107.735 379.214 107.452C379.072 107.169 378.846 106.95 378.535 106.797C378.224 106.64 377.813 106.561 377.303 106.561H375.29V115H374.145ZM378.595 110.753L380.922 115H379.592L377.303 110.753H378.595ZM385.209 115.148C384.526 115.148 383.937 114.997 383.441 114.695C382.949 114.391 382.569 113.966 382.301 113.421C382.036 112.873 381.904 112.236 381.904 111.51C381.904 110.784 382.036 110.143 382.301 109.589C382.569 109.032 382.941 108.598 383.418 108.288C383.898 107.974 384.458 107.817 385.099 107.817C385.468 107.817 385.833 107.878 386.193 108.001C386.553 108.125 386.881 108.325 387.176 108.602C387.472 108.875 387.707 109.239 387.882 109.691C388.058 110.143 388.146 110.701 388.146 111.362V111.824H382.68V110.882H387.038C387.038 110.482 386.958 110.125 386.797 109.811C386.641 109.497 386.416 109.249 386.123 109.068C385.834 108.886 385.493 108.795 385.099 108.795C384.665 108.795 384.289 108.903 383.972 109.119C383.658 109.331 383.417 109.608 383.247 109.95C383.078 110.291 382.994 110.657 382.994 111.048V111.676C382.994 112.212 383.086 112.666 383.271 113.038C383.458 113.407 383.718 113.689 384.051 113.883C384.383 114.074 384.769 114.169 385.209 114.169C385.496 114.169 385.754 114.129 385.985 114.049C386.219 113.966 386.42 113.843 386.59 113.68C386.759 113.513 386.89 113.307 386.982 113.061L388.035 113.357C387.924 113.714 387.738 114.027 387.476 114.298C387.215 114.566 386.891 114.775 386.507 114.926C386.122 115.074 385.69 115.148 385.209 115.148ZM389.803 115V107.909H390.855V109.017H390.948C391.095 108.638 391.334 108.345 391.663 108.135C391.993 107.923 392.388 107.817 392.85 107.817C393.318 107.817 393.707 107.923 394.018 108.135C394.332 108.345 394.576 108.638 394.752 109.017H394.826C395.007 108.651 395.28 108.36 395.643 108.145C396.006 107.926 396.441 107.817 396.949 107.817C397.583 107.817 398.102 108.015 398.505 108.412C398.908 108.806 399.11 109.42 399.11 110.254V115H398.02V110.254C398.02 109.731 397.877 109.357 397.591 109.132C397.305 108.908 396.968 108.795 396.58 108.795C396.081 108.795 395.695 108.946 395.421 109.248C395.147 109.546 395.01 109.925 395.01 110.384V115H393.902V110.143C393.902 109.74 393.771 109.416 393.51 109.169C393.248 108.92 392.911 108.795 392.499 108.795C392.216 108.795 391.951 108.871 391.705 109.022C391.462 109.172 391.265 109.382 391.114 109.65C390.966 109.914 390.892 110.22 390.892 110.568V115H389.803ZM404.075 115.148C403.391 115.148 402.802 114.997 402.307 114.695C401.814 114.391 401.434 113.966 401.166 113.421C400.902 112.873 400.769 112.236 400.769 111.51C400.769 110.784 400.902 110.143 401.166 109.589C401.434 109.032 401.806 108.598 402.283 108.288C402.764 107.974 403.324 107.817 403.964 107.817C404.333 107.817 404.698 107.878 405.058 108.001C405.418 108.125 405.746 108.325 406.041 108.602C406.337 108.875 406.572 109.239 406.748 109.691C406.923 110.143 407.011 110.701 407.011 111.362V111.824H401.545V110.882H405.903C405.903 110.482 405.823 110.125 405.663 109.811C405.506 109.497 405.281 109.249 404.989 109.068C404.699 108.886 404.358 108.795 403.964 108.795C403.53 108.795 403.154 108.903 402.837 109.119C402.524 109.331 402.282 109.608 402.113 109.95C401.943 110.291 401.859 110.657 401.859 111.048V111.676C401.859 112.212 401.951 112.666 402.136 113.038C402.323 113.407 402.584 113.689 402.916 113.883C403.248 114.074 403.635 114.169 404.075 114.169C404.361 114.169 404.619 114.129 404.85 114.049C405.084 113.966 405.286 113.843 405.455 113.68C405.624 113.513 405.755 113.307 405.847 113.061L406.9 113.357C406.789 113.714 406.603 114.027 406.341 114.298C406.08 114.566 405.757 114.775 405.372 114.926C404.987 115.074 404.555 115.148 404.075 115.148ZM408.668 115V107.909H409.721V109.017H409.813C409.961 108.638 410.199 108.345 410.528 108.135C410.858 107.923 411.253 107.817 411.715 107.817C412.183 107.817 412.572 107.923 412.883 108.135C413.197 108.345 413.441 108.638 413.617 109.017H413.691C413.872 108.651 414.145 108.36 414.508 108.145C414.871 107.926 415.307 107.817 415.814 107.817C416.448 107.817 416.967 108.015 417.37 108.412C417.773 108.806 417.975 109.42 417.975 110.254V115H416.885V110.254C416.885 109.731 416.742 109.357 416.456 109.132C416.17 108.908 415.833 108.795 415.445 108.795C414.946 108.795 414.56 108.946 414.286 109.248C414.012 109.546 413.875 109.925 413.875 110.384V115H412.767V110.143C412.767 109.74 412.637 109.416 412.375 109.169C412.113 108.92 411.776 108.795 411.364 108.795C411.081 108.795 410.816 108.871 410.57 109.022C410.327 109.172 410.13 109.382 409.979 109.65C409.831 109.914 409.758 110.22 409.758 110.568V115H408.668ZM420.115 115V105.545H421.204V109.036H421.296C421.376 108.912 421.487 108.755 421.629 108.565C421.773 108.371 421.98 108.198 422.247 108.048C422.518 107.894 422.884 107.817 423.346 107.817C423.943 107.817 424.469 107.966 424.925 108.265C425.38 108.563 425.736 108.986 425.991 109.534C426.247 110.082 426.375 110.728 426.375 111.473C426.375 112.224 426.247 112.875 425.991 113.426C425.736 113.974 425.382 114.398 424.93 114.7C424.477 114.998 423.956 115.148 423.365 115.148C422.909 115.148 422.544 115.072 422.271 114.922C421.997 114.768 421.786 114.594 421.638 114.4C421.49 114.203 421.376 114.04 421.296 113.911H421.167V115H420.115ZM421.186 111.455C421.186 111.99 421.264 112.462 421.421 112.872C421.578 113.278 421.807 113.597 422.109 113.827C422.411 114.055 422.78 114.169 423.217 114.169C423.672 114.169 424.052 114.049 424.357 113.809C424.665 113.566 424.896 113.24 425.05 112.83C425.207 112.418 425.285 111.959 425.285 111.455C425.285 110.956 425.208 110.507 425.054 110.107C424.903 109.703 424.674 109.385 424.366 109.151C424.062 108.914 423.679 108.795 423.217 108.795C422.774 108.795 422.401 108.908 422.1 109.132C421.798 109.354 421.57 109.665 421.416 110.065C421.263 110.462 421.186 110.925 421.186 111.455ZM431.014 115.148C430.331 115.148 429.742 114.997 429.246 114.695C428.754 114.391 428.373 113.966 428.106 113.421C427.841 112.873 427.709 112.236 427.709 111.51C427.709 110.784 427.841 110.143 428.106 109.589C428.373 109.032 428.746 108.598 429.223 108.288C429.703 107.974 430.263 107.817 430.903 107.817C431.273 107.817 431.637 107.878 431.997 108.001C432.358 108.125 432.685 108.325 432.981 108.602C433.276 108.875 433.512 109.239 433.687 109.691C433.862 110.143 433.95 110.701 433.95 111.362V111.824H428.484V110.882H432.842C432.842 110.482 432.762 110.125 432.602 109.811C432.445 109.497 432.221 109.249 431.928 109.068C431.639 108.886 431.297 108.795 430.903 108.795C430.469 108.795 430.094 108.903 429.777 109.119C429.463 109.331 429.221 109.608 429.052 109.95C428.883 110.291 428.798 110.657 428.798 111.048V111.676C428.798 112.212 428.891 112.666 429.075 113.038C429.263 113.407 429.523 113.689 429.855 113.883C430.188 114.074 430.574 114.169 431.014 114.169C431.3 114.169 431.559 114.129 431.79 114.049C432.024 113.966 432.225 113.843 432.394 113.68C432.564 113.513 432.695 113.307 432.787 113.061L433.839 113.357C433.729 113.714 433.542 114.027 433.281 114.298C433.019 114.566 432.696 114.775 432.311 114.926C431.927 115.074 431.494 115.148 431.014 115.148ZM435.608 115V107.909H436.66V108.98H436.734C436.863 108.629 437.097 108.345 437.436 108.126C437.774 107.908 438.156 107.798 438.581 107.798C438.661 107.798 438.761 107.8 438.881 107.803C439.001 107.806 439.091 107.811 439.153 107.817V108.925C439.116 108.915 439.031 108.902 438.899 108.883C438.77 108.862 438.633 108.851 438.488 108.851C438.143 108.851 437.836 108.923 437.565 109.068C437.297 109.209 437.085 109.406 436.928 109.659C436.774 109.908 436.697 110.193 436.697 110.513V115H435.608ZM444.101 115V107.909H445.153V109.017H445.246C445.393 108.638 445.632 108.345 445.961 108.135C446.29 107.923 446.686 107.817 447.148 107.817C447.615 107.817 448.005 107.923 448.316 108.135C448.629 108.345 448.874 108.638 449.05 109.017H449.123C449.305 108.651 449.577 108.36 449.941 108.145C450.304 107.926 450.739 107.817 451.247 107.817C451.881 107.817 452.4 108.015 452.803 108.412C453.206 108.806 453.407 109.42 453.407 110.254V115H452.318V110.254C452.318 109.731 452.175 109.357 451.889 109.132C451.602 108.908 451.265 108.795 450.878 108.795C450.379 108.795 449.993 108.946 449.719 109.248C449.445 109.546 449.308 109.925 449.308 110.384V115H448.2V110.143C448.2 109.74 448.069 109.416 447.808 109.169C447.546 108.92 447.209 108.795 446.797 108.795C446.514 108.795 446.249 108.871 446.003 109.022C445.76 109.172 445.563 109.382 445.412 109.65C445.264 109.914 445.19 110.22 445.19 110.568V115H444.101ZM458.373 115.148C457.689 115.148 457.1 114.997 456.604 114.695C456.112 114.391 455.732 113.966 455.464 113.421C455.199 112.873 455.067 112.236 455.067 111.51C455.067 110.784 455.199 110.143 455.464 109.589C455.732 109.032 456.104 108.598 456.581 108.288C457.061 107.974 457.622 107.817 458.262 107.817C458.631 107.817 458.996 107.878 459.356 108.001C459.716 108.125 460.044 108.325 460.339 108.602C460.635 108.875 460.87 109.239 461.045 109.691C461.221 110.143 461.309 110.701 461.309 111.362V111.824H455.843V110.882H460.201C460.201 110.482 460.121 110.125 459.961 109.811C459.804 109.497 459.579 109.249 459.287 109.068C458.997 108.886 458.656 108.795 458.262 108.795C457.828 108.795 457.452 108.903 457.135 109.119C456.821 109.331 456.58 109.608 456.411 109.95C456.241 110.291 456.157 110.657 456.157 111.048V111.676C456.157 112.212 456.249 112.666 456.434 113.038C456.621 113.407 456.881 113.689 457.214 113.883C457.546 114.074 457.932 114.169 458.373 114.169C458.659 114.169 458.917 114.129 459.148 114.049C459.382 113.966 459.584 113.843 459.753 113.68C459.922 113.513 460.053 113.307 460.145 113.061L461.198 113.357C461.087 113.714 460.901 114.027 460.639 114.298C460.378 114.566 460.054 114.775 459.67 114.926C459.285 115.074 458.853 115.148 458.373 115.148Z" fill="#344054"/>
<g clip-path="url(#clip0_888_9813)">
<rect x="293" y="110" width="48" height="1" fill="#C54600"/>
<g clip-path="url(#clip1_888_9813)">
<rect x="293" y="98" width="24" height="24" rx="12" fill="#C54600"/>
<path d="M306.83 104.818V115H304.677V106.862H304.618L302.286 108.323V106.414L304.807 104.818H306.83Z" fill="white"/>
</g>
</g>
<g clip-path="url(#clip2_888_9813)">
<rect x="417.5" y="52" width="1" height="48" fill="#C54600"/>
<g clip-path="url(#clip3_888_9813)">
<rect x="405.5" y="52" width="24" height="24" rx="12" fill="#C54600"/>
<path d="M413.916 69V67.4489L417.54 64.093C417.849 63.7947 418.107 63.5263 418.316 63.2876C418.528 63.049 418.689 62.8153 418.798 62.5866C418.908 62.3546 418.962 62.1044 418.962 61.8359C418.962 61.5376 418.894 61.2808 418.758 61.0653C418.623 60.8466 418.437 60.6792 418.202 60.5632C417.966 60.4439 417.699 60.3842 417.401 60.3842C417.09 60.3842 416.818 60.4472 416.586 60.5732C416.354 60.6991 416.175 60.8797 416.049 61.1151C415.923 61.3504 415.86 61.6304 415.86 61.9553H413.817C413.817 61.2891 413.967 60.7107 414.269 60.2202C414.571 59.7296 414.993 59.3501 415.537 59.0817C416.08 58.8132 416.707 58.679 417.416 58.679C418.145 58.679 418.78 58.8082 419.32 59.0668C419.864 59.322 420.286 59.6766 420.588 60.1307C420.89 60.5848 421.04 61.1051 421.04 61.6918C421.04 62.0762 420.964 62.4557 420.812 62.8303C420.663 63.2048 420.396 63.6207 420.011 64.0781C419.627 64.5322 419.085 65.0774 418.386 65.7138L416.899 67.1705V67.2401H421.175V69H413.916Z" fill="white"/>
</g>
</g>
<rect x="96" y="183.5" width="15" height="15" rx="3.5" fill="white"/>
<rect x="96" y="183.5" width="15" height="15" rx="3.5" stroke="#D8DEE9"/>
<path d="M120.645 196V186.545H123.839C124.578 186.545 125.184 186.672 125.658 186.924C126.132 187.173 126.483 187.516 126.711 187.953C126.939 188.391 127.053 188.888 127.053 189.445C127.053 190.002 126.939 190.496 126.711 190.926C126.483 191.357 126.134 191.696 125.663 191.942C125.192 192.185 124.59 192.307 123.858 192.307H121.273V191.273H123.821C124.326 191.273 124.732 191.199 125.04 191.051C125.351 190.903 125.575 190.694 125.714 190.423C125.855 190.149 125.926 189.823 125.926 189.445C125.926 189.066 125.855 188.735 125.714 188.452C125.572 188.169 125.346 187.95 125.035 187.797C124.724 187.64 124.313 187.561 123.803 187.561H121.79V196H120.645ZM125.095 191.753L127.422 196H126.092L123.803 191.753H125.095ZM131.709 196.148C131.026 196.148 130.437 195.997 129.941 195.695C129.449 195.391 129.069 194.966 128.801 194.421C128.536 193.873 128.404 193.236 128.404 192.51C128.404 191.784 128.536 191.143 128.801 190.589C129.069 190.032 129.441 189.598 129.918 189.288C130.398 188.974 130.958 188.817 131.599 188.817C131.968 188.817 132.333 188.878 132.693 189.001C133.053 189.125 133.381 189.325 133.676 189.602C133.972 189.875 134.207 190.239 134.382 190.691C134.558 191.143 134.646 191.701 134.646 192.362V192.824H129.18V191.882H133.538C133.538 191.482 133.458 191.125 133.297 190.811C133.141 190.497 132.916 190.249 132.623 190.068C132.334 189.886 131.993 189.795 131.599 189.795C131.165 189.795 130.789 189.903 130.472 190.119C130.158 190.331 129.917 190.608 129.747 190.95C129.578 191.291 129.494 191.657 129.494 192.048V192.676C129.494 193.212 129.586 193.666 129.771 194.038C129.958 194.407 130.218 194.689 130.551 194.883C130.883 195.074 131.269 195.169 131.709 195.169C131.996 195.169 132.254 195.129 132.485 195.049C132.719 194.966 132.92 194.843 133.09 194.68C133.259 194.513 133.39 194.307 133.482 194.061L134.535 194.357C134.424 194.714 134.238 195.027 133.976 195.298C133.715 195.566 133.391 195.775 133.007 195.926C132.622 196.074 132.19 196.148 131.709 196.148ZM136.303 196V188.909H137.355V190.017H137.448C137.595 189.638 137.834 189.345 138.163 189.135C138.493 188.923 138.888 188.817 139.35 188.817C139.818 188.817 140.207 188.923 140.518 189.135C140.832 189.345 141.076 189.638 141.252 190.017H141.326C141.507 189.651 141.78 189.36 142.143 189.145C142.506 188.926 142.941 188.817 143.449 188.817C144.083 188.817 144.602 189.015 145.005 189.412C145.408 189.806 145.61 190.42 145.61 191.254V196H144.52V191.254C144.52 190.731 144.377 190.357 144.091 190.132C143.805 189.908 143.468 189.795 143.08 189.795C142.581 189.795 142.195 189.946 141.921 190.248C141.647 190.546 141.51 190.925 141.51 191.384V196H140.402V191.143C140.402 190.74 140.271 190.416 140.01 190.169C139.748 189.92 139.411 189.795 138.999 189.795C138.716 189.795 138.451 189.871 138.205 190.022C137.962 190.172 137.765 190.382 137.614 190.65C137.466 190.914 137.392 191.22 137.392 191.568V196H136.303ZM150.575 196.148C149.891 196.148 149.302 195.997 148.807 195.695C148.314 195.391 147.934 194.966 147.666 194.421C147.402 193.873 147.269 193.236 147.269 192.51C147.269 191.784 147.402 191.143 147.666 190.589C147.934 190.032 148.306 189.598 148.783 189.288C149.264 188.974 149.824 188.817 150.464 188.817C150.833 188.817 151.198 188.878 151.558 189.001C151.918 189.125 152.246 189.325 152.541 189.602C152.837 189.875 153.072 190.239 153.248 190.691C153.423 191.143 153.511 191.701 153.511 192.362V192.824H148.045V191.882H152.403C152.403 191.482 152.323 191.125 152.163 190.811C152.006 190.497 151.781 190.249 151.489 190.068C151.199 189.886 150.858 189.795 150.464 189.795C150.03 189.795 149.654 189.903 149.337 190.119C149.024 190.331 148.782 190.608 148.613 190.95C148.443 191.291 148.359 191.657 148.359 192.048V192.676C148.359 193.212 148.451 193.666 148.636 194.038C148.823 194.407 149.084 194.689 149.416 194.883C149.748 195.074 150.135 195.169 150.575 195.169C150.861 195.169 151.119 195.129 151.35 195.049C151.584 194.966 151.786 194.843 151.955 194.68C152.124 194.513 152.255 194.307 152.347 194.061L153.4 194.357C153.289 194.714 153.103 195.027 152.841 195.298C152.58 195.566 152.257 195.775 151.872 195.926C151.487 196.074 151.055 196.148 150.575 196.148ZM155.168 196V188.909H156.221V190.017H156.313C156.461 189.638 156.699 189.345 157.028 189.135C157.358 188.923 157.753 188.817 158.215 188.817C158.683 188.817 159.072 188.923 159.383 189.135C159.697 189.345 159.941 189.638 160.117 190.017H160.191C160.372 189.651 160.645 189.36 161.008 189.145C161.371 188.926 161.807 188.817 162.314 188.817C162.948 188.817 163.467 189.015 163.87 189.412C164.273 189.806 164.475 190.42 164.475 191.254V196H163.385V191.254C163.385 190.731 163.242 190.357 162.956 190.132C162.67 189.908 162.333 189.795 161.945 189.795C161.446 189.795 161.06 189.946 160.786 190.248C160.512 190.546 160.375 190.925 160.375 191.384V196H159.267V191.143C159.267 190.74 159.137 190.416 158.875 190.169C158.613 189.92 158.276 189.795 157.864 189.795C157.581 189.795 157.316 189.871 157.07 190.022C156.827 190.172 156.63 190.382 156.479 190.65C156.331 190.914 156.258 191.22 156.258 191.568V196H155.168ZM166.615 196V186.545H167.704V190.036H167.796C167.876 189.912 167.987 189.755 168.129 189.565C168.273 189.371 168.48 189.198 168.747 189.048C169.018 188.894 169.384 188.817 169.846 188.817C170.443 188.817 170.969 188.966 171.425 189.265C171.88 189.563 172.236 189.986 172.491 190.534C172.747 191.082 172.875 191.728 172.875 192.473C172.875 193.224 172.747 193.875 172.491 194.426C172.236 194.974 171.882 195.398 171.43 195.7C170.977 195.998 170.456 196.148 169.865 196.148C169.409 196.148 169.044 196.072 168.771 195.922C168.497 195.768 168.286 195.594 168.138 195.4C167.99 195.203 167.876 195.04 167.796 194.911H167.667V196H166.615ZM167.686 192.455C167.686 192.99 167.764 193.462 167.921 193.872C168.078 194.278 168.307 194.597 168.609 194.827C168.911 195.055 169.28 195.169 169.717 195.169C170.172 195.169 170.552 195.049 170.857 194.809C171.165 194.566 171.396 194.24 171.55 193.83C171.707 193.418 171.785 192.959 171.785 192.455C171.785 191.956 171.708 191.507 171.554 191.107C171.403 190.703 171.174 190.385 170.866 190.151C170.562 189.914 170.179 189.795 169.717 189.795C169.274 189.795 168.901 189.908 168.6 190.132C168.298 190.354 168.07 190.665 167.916 191.065C167.763 191.462 167.686 191.925 167.686 192.455ZM177.514 196.148C176.831 196.148 176.242 195.997 175.746 195.695C175.254 195.391 174.873 194.966 174.606 194.421C174.341 193.873 174.209 193.236 174.209 192.51C174.209 191.784 174.341 191.143 174.606 190.589C174.873 190.032 175.246 189.598 175.723 189.288C176.203 188.974 176.763 188.817 177.403 188.817C177.773 188.817 178.137 188.878 178.497 189.001C178.858 189.125 179.185 189.325 179.481 189.602C179.776 189.875 180.012 190.239 180.187 190.691C180.362 191.143 180.45 191.701 180.45 192.362V192.824H174.984V191.882H179.342C179.342 191.482 179.262 191.125 179.102 190.811C178.945 190.497 178.721 190.249 178.428 190.068C178.139 189.886 177.797 189.795 177.403 189.795C176.969 189.795 176.594 189.903 176.277 190.119C175.963 190.331 175.721 190.608 175.552 190.95C175.383 191.291 175.298 191.657 175.298 192.048V192.676C175.298 193.212 175.391 193.666 175.575 194.038C175.763 194.407 176.023 194.689 176.355 194.883C176.688 195.074 177.074 195.169 177.514 195.169C177.8 195.169 178.059 195.129 178.29 195.049C178.524 194.966 178.725 194.843 178.894 194.68C179.064 194.513 179.195 194.307 179.287 194.061L180.339 194.357C180.229 194.714 180.042 195.027 179.781 195.298C179.519 195.566 179.196 195.775 178.811 195.926C178.427 196.074 177.994 196.148 177.514 196.148ZM182.108 196V188.909H183.16V189.98H183.234C183.363 189.629 183.597 189.345 183.936 189.126C184.274 188.908 184.656 188.798 185.081 188.798C185.161 188.798 185.261 188.8 185.381 188.803C185.501 188.806 185.591 188.811 185.653 188.817V189.925C185.616 189.915 185.531 189.902 185.399 189.883C185.27 189.862 185.133 189.851 184.988 189.851C184.643 189.851 184.336 189.923 184.065 190.068C183.797 190.209 183.585 190.406 183.428 190.659C183.274 190.908 183.197 191.193 183.197 191.513V196H182.108ZM190.601 196V188.909H191.653V190.017H191.746C191.893 189.638 192.132 189.345 192.461 189.135C192.79 188.923 193.186 188.817 193.648 188.817C194.115 188.817 194.505 188.923 194.816 189.135C195.129 189.345 195.374 189.638 195.55 190.017H195.623C195.805 189.651 196.077 189.36 196.441 189.145C196.804 188.926 197.239 188.817 197.747 188.817C198.381 188.817 198.9 189.015 199.303 189.412C199.706 189.806 199.907 190.42 199.907 191.254V196H198.818V191.254C198.818 190.731 198.675 190.357 198.389 190.132C198.102 189.908 197.765 189.795 197.378 189.795C196.879 189.795 196.493 189.946 196.219 190.248C195.945 190.546 195.808 190.925 195.808 191.384V196H194.7V191.143C194.7 190.74 194.569 190.416 194.308 190.169C194.046 189.92 193.709 189.795 193.297 189.795C193.014 189.795 192.749 189.871 192.503 190.022C192.26 190.172 192.063 190.382 191.912 190.65C191.764 190.914 191.69 191.22 191.69 191.568V196H190.601ZM204.873 196.148C204.189 196.148 203.6 195.997 203.104 195.695C202.612 195.391 202.232 194.966 201.964 194.421C201.699 193.873 201.567 193.236 201.567 192.51C201.567 191.784 201.699 191.143 201.964 190.589C202.232 190.032 202.604 189.598 203.081 189.288C203.561 188.974 204.122 188.817 204.762 188.817C205.131 188.817 205.496 188.878 205.856 189.001C206.216 189.125 206.544 189.325 206.839 189.602C207.135 189.875 207.37 190.239 207.545 190.691C207.721 191.143 207.809 191.701 207.809 192.362V192.824H202.343V191.882H206.701C206.701 191.482 206.621 191.125 206.461 190.811C206.304 190.497 206.079 190.249 205.787 190.068C205.497 189.886 205.156 189.795 204.762 189.795C204.328 189.795 203.952 189.903 203.635 190.119C203.321 190.331 203.08 190.608 202.911 190.95C202.741 191.291 202.657 191.657 202.657 192.048V192.676C202.657 193.212 202.749 193.666 202.934 194.038C203.121 194.407 203.381 194.689 203.714 194.883C204.046 195.074 204.432 195.169 204.873 195.169C205.159 195.169 205.417 195.129 205.648 195.049C205.882 194.966 206.084 194.843 206.253 194.68C206.422 194.513 206.553 194.307 206.645 194.061L207.698 194.357C207.587 194.714 207.401 195.027 207.139 195.298C206.878 195.566 206.554 195.775 206.17 195.926C205.785 196.074 205.353 196.148 204.873 196.148ZM214.359 196V197.016H208.45V196H214.359ZM217.24 186.545V196H216.095V187.746H216.04L213.732 189.278V188.115L216.095 186.545H217.24Z" fill="#344054"/>
<rect x="256" y="183.5" width="15" height="15" rx="3.5" fill="white"/>
<rect x="256" y="183.5" width="15" height="15" rx="3.5" stroke="#D8DEE9"/>
<path d="M280.645 196V186.545H283.839C284.578 186.545 285.184 186.672 285.658 186.924C286.132 187.173 286.483 187.516 286.711 187.953C286.939 188.391 287.053 188.888 287.053 189.445C287.053 190.002 286.939 190.496 286.711 190.926C286.483 191.357 286.134 191.696 285.663 191.942C285.192 192.185 284.59 192.307 283.858 192.307H281.273V191.273H283.821C284.326 191.273 284.732 191.199 285.04 191.051C285.351 190.903 285.575 190.694 285.714 190.423C285.855 190.149 285.926 189.823 285.926 189.445C285.926 189.066 285.855 188.735 285.714 188.452C285.572 188.169 285.346 187.95 285.035 187.797C284.724 187.64 284.313 187.561 283.803 187.561H281.79V196H280.645ZM285.095 191.753L287.422 196H286.092L283.803 191.753H285.095ZM291.709 196.148C291.026 196.148 290.437 195.997 289.941 195.695C289.449 195.391 289.069 194.966 288.801 194.421C288.536 193.873 288.404 193.236 288.404 192.51C288.404 191.784 288.536 191.143 288.801 190.589C289.069 190.032 289.441 189.598 289.918 189.288C290.398 188.974 290.958 188.817 291.599 188.817C291.968 188.817 292.333 188.878 292.693 189.001C293.053 189.125 293.381 189.325 293.676 189.602C293.972 189.875 294.207 190.239 294.382 190.691C294.558 191.143 294.646 191.701 294.646 192.362V192.824H289.18V191.882H293.538C293.538 191.482 293.458 191.125 293.297 190.811C293.141 190.497 292.916 190.249 292.623 190.068C292.334 189.886 291.993 189.795 291.599 189.795C291.165 189.795 290.789 189.903 290.472 190.119C290.158 190.331 289.917 190.608 289.747 190.95C289.578 191.291 289.494 191.657 289.494 192.048V192.676C289.494 193.212 289.586 193.666 289.771 194.038C289.958 194.407 290.218 194.689 290.551 194.883C290.883 195.074 291.269 195.169 291.709 195.169C291.996 195.169 292.254 195.129 292.485 195.049C292.719 194.966 292.92 194.843 293.09 194.68C293.259 194.513 293.39 194.307 293.482 194.061L294.535 194.357C294.424 194.714 294.238 195.027 293.976 195.298C293.715 195.566 293.391 195.775 293.007 195.926C292.622 196.074 292.19 196.148 291.709 196.148ZM296.303 196V188.909H297.355V190.017H297.448C297.595 189.638 297.834 189.345 298.163 189.135C298.493 188.923 298.888 188.817 299.35 188.817C299.818 188.817 300.207 188.923 300.518 189.135C300.832 189.345 301.076 189.638 301.252 190.017H301.326C301.507 189.651 301.78 189.36 302.143 189.145C302.506 188.926 302.941 188.817 303.449 188.817C304.083 188.817 304.602 189.015 305.005 189.412C305.408 189.806 305.61 190.42 305.61 191.254V196H304.52V191.254C304.52 190.731 304.377 190.357 304.091 190.132C303.805 189.908 303.468 189.795 303.08 189.795C302.581 189.795 302.195 189.946 301.921 190.248C301.647 190.546 301.51 190.925 301.51 191.384V196H300.402V191.143C300.402 190.74 300.271 190.416 300.01 190.169C299.748 189.92 299.411 189.795 298.999 189.795C298.716 189.795 298.451 189.871 298.205 190.022C297.962 190.172 297.765 190.382 297.614 190.65C297.466 190.914 297.392 191.22 297.392 191.568V196H296.303ZM310.575 196.148C309.891 196.148 309.302 195.997 308.807 195.695C308.314 195.391 307.934 194.966 307.666 194.421C307.402 193.873 307.269 193.236 307.269 192.51C307.269 191.784 307.402 191.143 307.666 190.589C307.934 190.032 308.306 189.598 308.783 189.288C309.264 188.974 309.824 188.817 310.464 188.817C310.833 188.817 311.198 188.878 311.558 189.001C311.918 189.125 312.246 189.325 312.541 189.602C312.837 189.875 313.072 190.239 313.248 190.691C313.423 191.143 313.511 191.701 313.511 192.362V192.824H308.045V191.882H312.403C312.403 191.482 312.323 191.125 312.163 190.811C312.006 190.497 311.781 190.249 311.489 190.068C311.199 189.886 310.858 189.795 310.464 189.795C310.03 189.795 309.654 189.903 309.337 190.119C309.024 190.331 308.782 190.608 308.613 190.95C308.443 191.291 308.359 191.657 308.359 192.048V192.676C308.359 193.212 308.451 193.666 308.636 194.038C308.823 194.407 309.084 194.689 309.416 194.883C309.748 195.074 310.135 195.169 310.575 195.169C310.861 195.169 311.119 195.129 311.35 195.049C311.584 194.966 311.786 194.843 311.955 194.68C312.124 194.513 312.255 194.307 312.347 194.061L313.4 194.357C313.289 194.714 313.103 195.027 312.841 195.298C312.58 195.566 312.257 195.775 311.872 195.926C311.487 196.074 311.055 196.148 310.575 196.148ZM315.168 196V188.909H316.221V190.017H316.313C316.461 189.638 316.699 189.345 317.028 189.135C317.358 188.923 317.753 188.817 318.215 188.817C318.683 188.817 319.072 188.923 319.383 189.135C319.697 189.345 319.941 189.638 320.117 190.017H320.191C320.372 189.651 320.645 189.36 321.008 189.145C321.371 188.926 321.807 188.817 322.314 188.817C322.948 188.817 323.467 189.015 323.87 189.412C324.273 189.806 324.475 190.42 324.475 191.254V196H323.385V191.254C323.385 190.731 323.242 190.357 322.956 190.132C322.67 189.908 322.333 189.795 321.945 189.795C321.446 189.795 321.06 189.946 320.786 190.248C320.512 190.546 320.375 190.925 320.375 191.384V196H319.267V191.143C319.267 190.74 319.137 190.416 318.875 190.169C318.613 189.92 318.276 189.795 317.864 189.795C317.581 189.795 317.316 189.871 317.07 190.022C316.827 190.172 316.63 190.382 316.479 190.65C316.331 190.914 316.258 191.22 316.258 191.568V196H315.168ZM326.615 196V186.545H327.704V190.036H327.796C327.876 189.912 327.987 189.755 328.129 189.565C328.273 189.371 328.48 189.198 328.747 189.048C329.018 188.894 329.384 188.817 329.846 188.817C330.443 188.817 330.969 188.966 331.425 189.265C331.88 189.563 332.236 189.986 332.491 190.534C332.747 191.082 332.875 191.728 332.875 192.473C332.875 193.224 332.747 193.875 332.491 194.426C332.236 194.974 331.882 195.398 331.43 195.7C330.977 195.998 330.456 196.148 329.865 196.148C329.409 196.148 329.044 196.072 328.771 195.922C328.497 195.768 328.286 195.594 328.138 195.4C327.99 195.203 327.876 195.04 327.796 194.911H327.667V196H326.615ZM327.686 192.455C327.686 192.99 327.764 193.462 327.921 193.872C328.078 194.278 328.307 194.597 328.609 194.827C328.911 195.055 329.28 195.169 329.717 195.169C330.172 195.169 330.552 195.049 330.857 194.809C331.165 194.566 331.396 194.24 331.55 193.83C331.707 193.418 331.785 192.959 331.785 192.455C331.785 191.956 331.708 191.507 331.554 191.107C331.403 190.703 331.174 190.385 330.866 190.151C330.562 189.914 330.179 189.795 329.717 189.795C329.274 189.795 328.901 189.908 328.6 190.132C328.298 190.354 328.07 190.665 327.916 191.065C327.763 191.462 327.686 191.925 327.686 192.455ZM337.514 196.148C336.831 196.148 336.242 195.997 335.746 195.695C335.254 195.391 334.873 194.966 334.606 194.421C334.341 193.873 334.209 193.236 334.209 192.51C334.209 191.784 334.341 191.143 334.606 190.589C334.873 190.032 335.246 189.598 335.723 189.288C336.203 188.974 336.763 188.817 337.403 188.817C337.773 188.817 338.137 188.878 338.497 189.001C338.858 189.125 339.185 189.325 339.481 189.602C339.776 189.875 340.012 190.239 340.187 190.691C340.362 191.143 340.45 191.701 340.45 192.362V192.824H334.984V191.882H339.342C339.342 191.482 339.262 191.125 339.102 190.811C338.945 190.497 338.721 190.249 338.428 190.068C338.139 189.886 337.797 189.795 337.403 189.795C336.969 189.795 336.594 189.903 336.277 190.119C335.963 190.331 335.721 190.608 335.552 190.95C335.383 191.291 335.298 191.657 335.298 192.048V192.676C335.298 193.212 335.391 193.666 335.575 194.038C335.763 194.407 336.023 194.689 336.355 194.883C336.688 195.074 337.074 195.169 337.514 195.169C337.8 195.169 338.059 195.129 338.29 195.049C338.524 194.966 338.725 194.843 338.894 194.68C339.064 194.513 339.195 194.307 339.287 194.061L340.339 194.357C340.229 194.714 340.042 195.027 339.781 195.298C339.519 195.566 339.196 195.775 338.811 195.926C338.427 196.074 337.994 196.148 337.514 196.148ZM342.108 196V188.909H343.16V189.98H343.234C343.363 189.629 343.597 189.345 343.936 189.126C344.274 188.908 344.656 188.798 345.081 188.798C345.161 188.798 345.261 188.8 345.381 188.803C345.501 188.806 345.591 188.811 345.653 188.817V189.925C345.616 189.915 345.531 189.902 345.399 189.883C345.27 189.862 345.133 189.851 344.988 189.851C344.643 189.851 344.336 189.923 344.065 190.068C343.797 190.209 343.585 190.406 343.428 190.659C343.274 190.908 343.197 191.193 343.197 191.513V196H342.108ZM350.601 196V188.909H351.653V190.017H351.746C351.893 189.638 352.132 189.345 352.461 189.135C352.79 188.923 353.186 188.817 353.648 188.817C354.115 188.817 354.505 188.923 354.816 189.135C355.129 189.345 355.374 189.638 355.55 190.017H355.623C355.805 189.651 356.077 189.36 356.441 189.145C356.804 188.926 357.239 188.817 357.747 188.817C358.381 188.817 358.9 189.015 359.303 189.412C359.706 189.806 359.907 190.42 359.907 191.254V196H358.818V191.254C358.818 190.731 358.675 190.357 358.389 190.132C358.102 189.908 357.765 189.795 357.378 189.795C356.879 189.795 356.493 189.946 356.219 190.248C355.945 190.546 355.808 190.925 355.808 191.384V196H354.7V191.143C354.7 190.74 354.569 190.416 354.308 190.169C354.046 189.92 353.709 189.795 353.297 189.795C353.014 189.795 352.749 189.871 352.503 190.022C352.26 190.172 352.063 190.382 351.912 190.65C351.764 190.914 351.69 191.22 351.69 191.568V196H350.601ZM364.873 196.148C364.189 196.148 363.6 195.997 363.104 195.695C362.612 195.391 362.232 194.966 361.964 194.421C361.699 193.873 361.567 193.236 361.567 192.51C361.567 191.784 361.699 191.143 361.964 190.589C362.232 190.032 362.604 189.598 363.081 189.288C363.561 188.974 364.122 188.817 364.762 188.817C365.131 188.817 365.496 188.878 365.856 189.001C366.216 189.125 366.544 189.325 366.839 189.602C367.135 189.875 367.37 190.239 367.545 190.691C367.721 191.143 367.809 191.701 367.809 192.362V192.824H362.343V191.882H366.701C366.701 191.482 366.621 191.125 366.461 190.811C366.304 190.497 366.079 190.249 365.787 190.068C365.497 189.886 365.156 189.795 364.762 189.795C364.328 189.795 363.952 189.903 363.635 190.119C363.321 190.331 363.08 190.608 362.911 190.95C362.741 191.291 362.657 191.657 362.657 192.048V192.676C362.657 193.212 362.749 193.666 362.934 194.038C363.121 194.407 363.381 194.689 363.714 194.883C364.046 195.074 364.432 195.169 364.873 195.169C365.159 195.169 365.417 195.129 365.648 195.049C365.882 194.966 366.084 194.843 366.253 194.68C366.422 194.513 366.553 194.307 366.645 194.061L367.698 194.357C367.587 194.714 367.401 195.027 367.139 195.298C366.878 195.566 366.554 195.775 366.17 195.926C365.785 196.074 365.353 196.148 364.873 196.148ZM374.359 196V197.016H368.45V196H374.359ZM375.325 196V195.169L378.446 191.753C378.812 191.353 379.114 191.005 379.351 190.71C379.588 190.411 379.763 190.131 379.877 189.869C379.994 189.605 380.053 189.328 380.053 189.038C380.053 188.706 379.973 188.418 379.813 188.175C379.656 187.932 379.44 187.744 379.166 187.612C378.892 187.48 378.585 187.413 378.243 187.413C377.88 187.413 377.563 187.489 377.292 187.64C377.024 187.787 376.816 187.995 376.669 188.263C376.524 188.531 376.452 188.844 376.452 189.205H375.362C375.362 188.651 375.49 188.164 375.745 187.746C376.001 187.327 376.349 187.001 376.789 186.767C377.232 186.533 377.729 186.416 378.28 186.416C378.834 186.416 379.325 186.533 379.753 186.767C380.18 187.001 380.516 187.316 380.759 187.713C381.002 188.11 381.124 188.552 381.124 189.038C381.124 189.386 381.061 189.726 380.934 190.059C380.811 190.388 380.596 190.756 380.288 191.162C379.983 191.565 379.56 192.058 379.019 192.639L376.895 194.911V194.984H381.29V196H375.325Z" fill="#344054"/>
<rect x="419" y="183.5" width="15" height="15" rx="3.5" fill="white"/>
<rect x="419" y="183.5" width="15" height="15" rx="3.5" stroke="#D8DEE9"/>
<path d="M443.645 196V186.545H446.839C447.578 186.545 448.184 186.672 448.658 186.924C449.132 187.173 449.483 187.516 449.711 187.953C449.939 188.391 450.053 188.888 450.053 189.445C450.053 190.002 449.939 190.496 449.711 190.926C449.483 191.357 449.134 191.696 448.663 191.942C448.192 192.185 447.59 192.307 446.858 192.307H444.273V191.273H446.821C447.326 191.273 447.732 191.199 448.04 191.051C448.351 190.903 448.575 190.694 448.714 190.423C448.855 190.149 448.926 189.823 448.926 189.445C448.926 189.066 448.855 188.735 448.714 188.452C448.572 188.169 448.346 187.95 448.035 187.797C447.724 187.64 447.313 187.561 446.803 187.561H444.79V196H443.645ZM448.095 191.753L450.422 196H449.092L446.803 191.753H448.095ZM454.709 196.148C454.026 196.148 453.437 195.997 452.941 195.695C452.449 195.391 452.069 194.966 451.801 194.421C451.536 193.873 451.404 193.236 451.404 192.51C451.404 191.784 451.536 191.143 451.801 190.589C452.069 190.032 452.441 189.598 452.918 189.288C453.398 188.974 453.958 188.817 454.599 188.817C454.968 188.817 455.333 188.878 455.693 189.001C456.053 189.125 456.381 189.325 456.676 189.602C456.972 189.875 457.207 190.239 457.382 190.691C457.558 191.143 457.646 191.701 457.646 192.362V192.824H452.18V191.882H456.538C456.538 191.482 456.458 191.125 456.297 190.811C456.141 190.497 455.916 190.249 455.623 190.068C455.334 189.886 454.993 189.795 454.599 189.795C454.165 189.795 453.789 189.903 453.472 190.119C453.158 190.331 452.917 190.608 452.747 190.95C452.578 191.291 452.494 191.657 452.494 192.048V192.676C452.494 193.212 452.586 193.666 452.771 194.038C452.958 194.407 453.218 194.689 453.551 194.883C453.883 195.074 454.269 195.169 454.709 195.169C454.996 195.169 455.254 195.129 455.485 195.049C455.719 194.966 455.92 194.843 456.09 194.68C456.259 194.513 456.39 194.307 456.482 194.061L457.535 194.357C457.424 194.714 457.238 195.027 456.976 195.298C456.715 195.566 456.391 195.775 456.007 195.926C455.622 196.074 455.19 196.148 454.709 196.148ZM459.303 196V188.909H460.355V190.017H460.448C460.595 189.638 460.834 189.345 461.163 189.135C461.493 188.923 461.888 188.817 462.35 188.817C462.818 188.817 463.207 188.923 463.518 189.135C463.832 189.345 464.076 189.638 464.252 190.017H464.326C464.507 189.651 464.78 189.36 465.143 189.145C465.506 188.926 465.941 188.817 466.449 188.817C467.083 188.817 467.602 189.015 468.005 189.412C468.408 189.806 468.61 190.42 468.61 191.254V196H467.52V191.254C467.52 190.731 467.377 190.357 467.091 190.132C466.805 189.908 466.468 189.795 466.08 189.795C465.581 189.795 465.195 189.946 464.921 190.248C464.647 190.546 464.51 190.925 464.51 191.384V196H463.402V191.143C463.402 190.74 463.271 190.416 463.01 190.169C462.748 189.92 462.411 189.795 461.999 189.795C461.716 189.795 461.451 189.871 461.205 190.022C460.962 190.172 460.765 190.382 460.614 190.65C460.466 190.914 460.392 191.22 460.392 191.568V196H459.303ZM473.575 196.148C472.891 196.148 472.302 195.997 471.807 195.695C471.314 195.391 470.934 194.966 470.666 194.421C470.402 193.873 470.269 193.236 470.269 192.51C470.269 191.784 470.402 191.143 470.666 190.589C470.934 190.032 471.306 189.598 471.783 189.288C472.264 188.974 472.824 188.817 473.464 188.817C473.833 188.817 474.198 188.878 474.558 189.001C474.918 189.125 475.246 189.325 475.541 189.602C475.837 189.875 476.072 190.239 476.248 190.691C476.423 191.143 476.511 191.701 476.511 192.362V192.824H471.045V191.882H475.403C475.403 191.482 475.323 191.125 475.163 190.811C475.006 190.497 474.781 190.249 474.489 190.068C474.199 189.886 473.858 189.795 473.464 189.795C473.03 189.795 472.654 189.903 472.337 190.119C472.024 190.331 471.782 190.608 471.613 190.95C471.443 191.291 471.359 191.657 471.359 192.048V192.676C471.359 193.212 471.451 193.666 471.636 194.038C471.823 194.407 472.084 194.689 472.416 194.883C472.748 195.074 473.135 195.169 473.575 195.169C473.861 195.169 474.119 195.129 474.35 195.049C474.584 194.966 474.786 194.843 474.955 194.68C475.124 194.513 475.255 194.307 475.347 194.061L476.4 194.357C476.289 194.714 476.103 195.027 475.841 195.298C475.58 195.566 475.257 195.775 474.872 195.926C474.487 196.074 474.055 196.148 473.575 196.148ZM478.168 196V188.909H479.221V190.017H479.313C479.461 189.638 479.699 189.345 480.028 189.135C480.358 188.923 480.753 188.817 481.215 188.817C481.683 188.817 482.072 188.923 482.383 189.135C482.697 189.345 482.941 189.638 483.117 190.017H483.191C483.372 189.651 483.645 189.36 484.008 189.145C484.371 188.926 484.807 188.817 485.314 188.817C485.948 188.817 486.467 189.015 486.87 189.412C487.273 189.806 487.475 190.42 487.475 191.254V196H486.385V191.254C486.385 190.731 486.242 190.357 485.956 190.132C485.67 189.908 485.333 189.795 484.945 189.795C484.446 189.795 484.06 189.946 483.786 190.248C483.512 190.546 483.375 190.925 483.375 191.384V196H482.267V191.143C482.267 190.74 482.137 190.416 481.875 190.169C481.613 189.92 481.276 189.795 480.864 189.795C480.581 189.795 480.316 189.871 480.07 190.022C479.827 190.172 479.63 190.382 479.479 190.65C479.331 190.914 479.258 191.22 479.258 191.568V196H478.168ZM489.615 196V186.545H490.704V190.036H490.796C490.876 189.912 490.987 189.755 491.129 189.565C491.273 189.371 491.48 189.198 491.747 189.048C492.018 188.894 492.384 188.817 492.846 188.817C493.443 188.817 493.969 188.966 494.425 189.265C494.88 189.563 495.236 189.986 495.491 190.534C495.747 191.082 495.875 191.728 495.875 192.473C495.875 193.224 495.747 193.875 495.491 194.426C495.236 194.974 494.882 195.398 494.43 195.7C493.977 195.998 493.456 196.148 492.865 196.148C492.409 196.148 492.044 196.072 491.771 195.922C491.497 195.768 491.286 195.594 491.138 195.4C490.99 195.203 490.876 195.04 490.796 194.911H490.667V196H489.615ZM490.686 192.455C490.686 192.99 490.764 193.462 490.921 193.872C491.078 194.278 491.307 194.597 491.609 194.827C491.911 195.055 492.28 195.169 492.717 195.169C493.172 195.169 493.552 195.049 493.857 194.809C494.165 194.566 494.396 194.24 494.55 193.83C494.707 193.418 494.785 192.959 494.785 192.455C494.785 191.956 494.708 191.507 494.554 191.107C494.403 190.703 494.174 190.385 493.866 190.151C493.562 189.914 493.179 189.795 492.717 189.795C492.274 189.795 491.901 189.908 491.6 190.132C491.298 190.354 491.07 190.665 490.916 191.065C490.763 191.462 490.686 191.925 490.686 192.455ZM500.514 196.148C499.831 196.148 499.242 195.997 498.746 195.695C498.254 195.391 497.873 194.966 497.606 194.421C497.341 193.873 497.209 193.236 497.209 192.51C497.209 191.784 497.341 191.143 497.606 190.589C497.873 190.032 498.246 189.598 498.723 189.288C499.203 188.974 499.763 188.817 500.403 188.817C500.773 188.817 501.137 188.878 501.497 189.001C501.858 189.125 502.185 189.325 502.481 189.602C502.776 189.875 503.012 190.239 503.187 190.691C503.362 191.143 503.45 191.701 503.45 192.362V192.824H497.984V191.882H502.342C502.342 191.482 502.262 191.125 502.102 190.811C501.945 190.497 501.721 190.249 501.428 190.068C501.139 189.886 500.797 189.795 500.403 189.795C499.969 189.795 499.594 189.903 499.277 190.119C498.963 190.331 498.721 190.608 498.552 190.95C498.383 191.291 498.298 191.657 498.298 192.048V192.676C498.298 193.212 498.391 193.666 498.575 194.038C498.763 194.407 499.023 194.689 499.355 194.883C499.688 195.074 500.074 195.169 500.514 195.169C500.8 195.169 501.059 195.129 501.29 195.049C501.524 194.966 501.725 194.843 501.894 194.68C502.064 194.513 502.195 194.307 502.287 194.061L503.339 194.357C503.229 194.714 503.042 195.027 502.781 195.298C502.519 195.566 502.196 195.775 501.811 195.926C501.427 196.074 500.994 196.148 500.514 196.148ZM505.108 196V188.909H506.16V189.98H506.234C506.363 189.629 506.597 189.345 506.936 189.126C507.274 188.908 507.656 188.798 508.081 188.798C508.161 188.798 508.261 188.8 508.381 188.803C508.501 188.806 508.591 188.811 508.653 188.817V189.925C508.616 189.915 508.531 189.902 508.399 189.883C508.27 189.862 508.133 189.851 507.988 189.851C507.643 189.851 507.336 189.923 507.065 190.068C506.797 190.209 506.585 190.406 506.428 190.659C506.274 190.908 506.197 191.193 506.197 191.513V196H505.108ZM513.601 196V188.909H514.653V190.017H514.746C514.893 189.638 515.132 189.345 515.461 189.135C515.79 188.923 516.186 188.817 516.648 188.817C517.115 188.817 517.505 188.923 517.816 189.135C518.129 189.345 518.374 189.638 518.55 190.017H518.623C518.805 189.651 519.077 189.36 519.441 189.145C519.804 188.926 520.239 188.817 520.747 188.817C521.381 188.817 521.9 189.015 522.303 189.412C522.706 189.806 522.907 190.42 522.907 191.254V196H521.818V191.254C521.818 190.731 521.675 190.357 521.389 190.132C521.102 189.908 520.765 189.795 520.378 189.795C519.879 189.795 519.493 189.946 519.219 190.248C518.945 190.546 518.808 190.925 518.808 191.384V196H517.7V191.143C517.7 190.74 517.569 190.416 517.308 190.169C517.046 189.92 516.709 189.795 516.297 189.795C516.014 189.795 515.749 189.871 515.503 190.022C515.26 190.172 515.063 190.382 514.912 190.65C514.764 190.914 514.69 191.22 514.69 191.568V196H513.601ZM527.873 196.148C527.189 196.148 526.6 195.997 526.104 195.695C525.612 195.391 525.232 194.966 524.964 194.421C524.699 193.873 524.567 193.236 524.567 192.51C524.567 191.784 524.699 191.143 524.964 190.589C525.232 190.032 525.604 189.598 526.081 189.288C526.561 188.974 527.122 188.817 527.762 188.817C528.131 188.817 528.496 188.878 528.856 189.001C529.216 189.125 529.544 189.325 529.839 189.602C530.135 189.875 530.37 190.239 530.545 190.691C530.721 191.143 530.809 191.701 530.809 192.362V192.824H525.343V191.882H529.701C529.701 191.482 529.621 191.125 529.461 190.811C529.304 190.497 529.079 190.249 528.787 190.068C528.497 189.886 528.156 189.795 527.762 189.795C527.328 189.795 526.952 189.903 526.635 190.119C526.321 190.331 526.08 190.608 525.911 190.95C525.741 191.291 525.657 191.657 525.657 192.048V192.676C525.657 193.212 525.749 193.666 525.934 194.038C526.121 194.407 526.381 194.689 526.714 194.883C527.046 195.074 527.432 195.169 527.873 195.169C528.159 195.169 528.417 195.129 528.648 195.049C528.882 194.966 529.084 194.843 529.253 194.68C529.422 194.513 529.553 194.307 529.645 194.061L530.698 194.357C530.587 194.714 530.401 195.027 530.139 195.298C529.878 195.566 529.554 195.775 529.17 195.926C528.785 196.074 528.353 196.148 527.873 196.148ZM537.359 196V197.016H531.45V196H537.359ZM540.923 196.129C540.314 196.129 539.771 196.025 539.294 195.815C538.82 195.606 538.443 195.315 538.163 194.943C537.886 194.567 537.735 194.132 537.71 193.636H538.874C538.898 193.941 539.003 194.204 539.188 194.426C539.372 194.644 539.614 194.814 539.912 194.934C540.211 195.054 540.542 195.114 540.905 195.114C541.311 195.114 541.671 195.043 541.985 194.901C542.299 194.76 542.545 194.563 542.724 194.31C542.902 194.058 542.991 193.766 542.991 193.433C542.991 193.085 542.905 192.779 542.733 192.515C542.561 192.247 542.308 192.038 541.976 191.887C541.643 191.736 541.237 191.661 540.757 191.661H540V190.645H540.757C541.133 190.645 541.462 190.577 541.745 190.442C542.031 190.306 542.254 190.116 542.414 189.869C542.578 189.623 542.659 189.334 542.659 189.001C542.659 188.681 542.588 188.403 542.447 188.166C542.305 187.929 542.105 187.744 541.847 187.612C541.591 187.48 541.29 187.413 540.942 187.413C540.616 187.413 540.308 187.473 540.018 187.593C539.732 187.71 539.498 187.881 539.317 188.106C539.135 188.327 539.037 188.595 539.021 188.909H537.913C537.932 188.414 538.081 187.98 538.361 187.607C538.641 187.232 539.007 186.939 539.46 186.73C539.915 186.521 540.415 186.416 540.96 186.416C541.545 186.416 542.047 186.535 542.465 186.772C542.884 187.006 543.205 187.315 543.43 187.7C543.655 188.084 543.767 188.5 543.767 188.946C543.767 189.478 543.627 189.932 543.347 190.308C543.07 190.683 542.693 190.943 542.216 191.088V191.162C542.813 191.26 543.279 191.514 543.615 191.924C543.95 192.33 544.118 192.833 544.118 193.433C544.118 193.947 543.978 194.409 543.698 194.818C543.421 195.224 543.042 195.545 542.562 195.778C542.082 196.012 541.536 196.129 540.923 196.129Z" fill="#344054"/>
<rect x="582" y="183.5" width="15" height="15" rx="3.5" fill="white"/>
<rect x="582" y="183.5" width="15" height="15" rx="3.5" stroke="#D8DEE9"/>
<path d="M606.645 196V186.545H609.839C610.578 186.545 611.184 186.672 611.658 186.924C612.132 187.173 612.483 187.516 612.711 187.953C612.939 188.391 613.053 188.888 613.053 189.445C613.053 190.002 612.939 190.496 612.711 190.926C612.483 191.357 612.134 191.696 611.663 191.942C611.192 192.185 610.59 192.307 609.858 192.307H607.273V191.273H609.821C610.326 191.273 610.732 191.199 611.04 191.051C611.351 190.903 611.575 190.694 611.714 190.423C611.855 190.149 611.926 189.823 611.926 189.445C611.926 189.066 611.855 188.735 611.714 188.452C611.572 188.169 611.346 187.95 611.035 187.797C610.724 187.64 610.313 187.561 609.803 187.561H607.79V196H606.645ZM611.095 191.753L613.422 196H612.092L609.803 191.753H611.095ZM617.709 196.148C617.026 196.148 616.437 195.997 615.941 195.695C615.449 195.391 615.069 194.966 614.801 194.421C614.536 193.873 614.404 193.236 614.404 192.51C614.404 191.784 614.536 191.143 614.801 190.589C615.069 190.032 615.441 189.598 615.918 189.288C616.398 188.974 616.958 188.817 617.599 188.817C617.968 188.817 618.333 188.878 618.693 189.001C619.053 189.125 619.381 189.325 619.676 189.602C619.972 189.875 620.207 190.239 620.382 190.691C620.558 191.143 620.646 191.701 620.646 192.362V192.824H615.18V191.882H619.538C619.538 191.482 619.458 191.125 619.297 190.811C619.141 190.497 618.916 190.249 618.623 190.068C618.334 189.886 617.993 189.795 617.599 189.795C617.165 189.795 616.789 189.903 616.472 190.119C616.158 190.331 615.917 190.608 615.747 190.95C615.578 191.291 615.494 191.657 615.494 192.048V192.676C615.494 193.212 615.586 193.666 615.771 194.038C615.958 194.407 616.218 194.689 616.551 194.883C616.883 195.074 617.269 195.169 617.709 195.169C617.996 195.169 618.254 195.129 618.485 195.049C618.719 194.966 618.92 194.843 619.09 194.68C619.259 194.513 619.39 194.307 619.482 194.061L620.535 194.357C620.424 194.714 620.238 195.027 619.976 195.298C619.715 195.566 619.391 195.775 619.007 195.926C618.622 196.074 618.19 196.148 617.709 196.148ZM622.303 196V188.909H623.355V190.017H623.448C623.595 189.638 623.834 189.345 624.163 189.135C624.493 188.923 624.888 188.817 625.35 188.817C625.818 188.817 626.207 188.923 626.518 189.135C626.832 189.345 627.076 189.638 627.252 190.017H627.326C627.507 189.651 627.78 189.36 628.143 189.145C628.506 188.926 628.941 188.817 629.449 188.817C630.083 188.817 630.602 189.015 631.005 189.412C631.408 189.806 631.61 190.42 631.61 191.254V196H630.52V191.254C630.52 190.731 630.377 190.357 630.091 190.132C629.805 189.908 629.468 189.795 629.08 189.795C628.581 189.795 628.195 189.946 627.921 190.248C627.647 190.546 627.51 190.925 627.51 191.384V196H626.402V191.143C626.402 190.74 626.271 190.416 626.01 190.169C625.748 189.92 625.411 189.795 624.999 189.795C624.716 189.795 624.451 189.871 624.205 190.022C623.962 190.172 623.765 190.382 623.614 190.65C623.466 190.914 623.392 191.22 623.392 191.568V196H622.303ZM636.575 196.148C635.891 196.148 635.302 195.997 634.807 195.695C634.314 195.391 633.934 194.966 633.666 194.421C633.402 193.873 633.269 193.236 633.269 192.51C633.269 191.784 633.402 191.143 633.666 190.589C633.934 190.032 634.306 189.598 634.783 189.288C635.264 188.974 635.824 188.817 636.464 188.817C636.833 188.817 637.198 188.878 637.558 189.001C637.918 189.125 638.246 189.325 638.541 189.602C638.837 189.875 639.072 190.239 639.248 190.691C639.423 191.143 639.511 191.701 639.511 192.362V192.824H634.045V191.882H638.403C638.403 191.482 638.323 191.125 638.163 190.811C638.006 190.497 637.781 190.249 637.489 190.068C637.199 189.886 636.858 189.795 636.464 189.795C636.03 189.795 635.654 189.903 635.337 190.119C635.024 190.331 634.782 190.608 634.613 190.95C634.443 191.291 634.359 191.657 634.359 192.048V192.676C634.359 193.212 634.451 193.666 634.636 194.038C634.823 194.407 635.084 194.689 635.416 194.883C635.748 195.074 636.135 195.169 636.575 195.169C636.861 195.169 637.119 195.129 637.35 195.049C637.584 194.966 637.786 194.843 637.955 194.68C638.124 194.513 638.255 194.307 638.347 194.061L639.4 194.357C639.289 194.714 639.103 195.027 638.841 195.298C638.58 195.566 638.257 195.775 637.872 195.926C637.487 196.074 637.055 196.148 636.575 196.148ZM641.168 196V188.909H642.221V190.017H642.313C642.461 189.638 642.699 189.345 643.028 189.135C643.358 188.923 643.753 188.817 644.215 188.817C644.683 188.817 645.072 188.923 645.383 189.135C645.697 189.345 645.941 189.638 646.117 190.017H646.191C646.372 189.651 646.645 189.36 647.008 189.145C647.371 188.926 647.807 188.817 648.314 188.817C648.948 188.817 649.467 189.015 649.87 189.412C650.273 189.806 650.475 190.42 650.475 191.254V196H649.385V191.254C649.385 190.731 649.242 190.357 648.956 190.132C648.67 189.908 648.333 189.795 647.945 189.795C647.446 189.795 647.06 189.946 646.786 190.248C646.512 190.546 646.375 190.925 646.375 191.384V196H645.267V191.143C645.267 190.74 645.137 190.416 644.875 190.169C644.613 189.92 644.276 189.795 643.864 189.795C643.581 189.795 643.316 189.871 643.07 190.022C642.827 190.172 642.63 190.382 642.479 190.65C642.331 190.914 642.258 191.22 642.258 191.568V196H641.168ZM652.615 196V186.545H653.704V190.036H653.796C653.876 189.912 653.987 189.755 654.129 189.565C654.273 189.371 654.48 189.198 654.747 189.048C655.018 188.894 655.384 188.817 655.846 188.817C656.443 188.817 656.969 188.966 657.425 189.265C657.88 189.563 658.236 189.986 658.491 190.534C658.747 191.082 658.875 191.728 658.875 192.473C658.875 193.224 658.747 193.875 658.491 194.426C658.236 194.974 657.882 195.398 657.43 195.7C656.977 195.998 656.456 196.148 655.865 196.148C655.409 196.148 655.044 196.072 654.771 195.922C654.497 195.768 654.286 195.594 654.138 195.4C653.99 195.203 653.876 195.04 653.796 194.911H653.667V196H652.615ZM653.686 192.455C653.686 192.99 653.764 193.462 653.921 193.872C654.078 194.278 654.307 194.597 654.609 194.827C654.911 195.055 655.28 195.169 655.717 195.169C656.172 195.169 656.552 195.049 656.857 194.809C657.165 194.566 657.396 194.24 657.55 193.83C657.707 193.418 657.785 192.959 657.785 192.455C657.785 191.956 657.708 191.507 657.554 191.107C657.403 190.703 657.174 190.385 656.866 190.151C656.562 189.914 656.179 189.795 655.717 189.795C655.274 189.795 654.901 189.908 654.6 190.132C654.298 190.354 654.07 190.665 653.916 191.065C653.763 191.462 653.686 191.925 653.686 192.455ZM663.514 196.148C662.831 196.148 662.242 195.997 661.746 195.695C661.254 195.391 660.873 194.966 660.606 194.421C660.341 193.873 660.209 193.236 660.209 192.51C660.209 191.784 660.341 191.143 660.606 190.589C660.873 190.032 661.246 189.598 661.723 189.288C662.203 188.974 662.763 188.817 663.403 188.817C663.773 188.817 664.137 188.878 664.497 189.001C664.858 189.125 665.185 189.325 665.481 189.602C665.776 189.875 666.012 190.239 666.187 190.691C666.362 191.143 666.45 191.701 666.45 192.362V192.824H660.984V191.882H665.342C665.342 191.482 665.262 191.125 665.102 190.811C664.945 190.497 664.721 190.249 664.428 190.068C664.139 189.886 663.797 189.795 663.403 189.795C662.969 189.795 662.594 189.903 662.277 190.119C661.963 190.331 661.721 190.608 661.552 190.95C661.383 191.291 661.298 191.657 661.298 192.048V192.676C661.298 193.212 661.391 193.666 661.575 194.038C661.763 194.407 662.023 194.689 662.355 194.883C662.688 195.074 663.074 195.169 663.514 195.169C663.8 195.169 664.059 195.129 664.29 195.049C664.524 194.966 664.725 194.843 664.894 194.68C665.064 194.513 665.195 194.307 665.287 194.061L666.339 194.357C666.229 194.714 666.042 195.027 665.781 195.298C665.519 195.566 665.196 195.775 664.811 195.926C664.427 196.074 663.994 196.148 663.514 196.148ZM668.108 196V188.909H669.16V189.98H669.234C669.363 189.629 669.597 189.345 669.936 189.126C670.274 188.908 670.656 188.798 671.081 188.798C671.161 188.798 671.261 188.8 671.381 188.803C671.501 188.806 671.591 188.811 671.653 188.817V189.925C671.616 189.915 671.531 189.902 671.399 189.883C671.27 189.862 671.133 189.851 670.988 189.851C670.643 189.851 670.336 189.923 670.065 190.068C669.797 190.209 669.585 190.406 669.428 190.659C669.274 190.908 669.197 191.193 669.197 191.513V196H668.108ZM676.601 196V188.909H677.653V190.017H677.746C677.893 189.638 678.132 189.345 678.461 189.135C678.79 188.923 679.186 188.817 679.648 188.817C680.115 188.817 680.505 188.923 680.816 189.135C681.129 189.345 681.374 189.638 681.55 190.017H681.623C681.805 189.651 682.077 189.36 682.441 189.145C682.804 188.926 683.239 188.817 683.747 188.817C684.381 188.817 684.9 189.015 685.303 189.412C685.706 189.806 685.907 190.42 685.907 191.254V196H684.818V191.254C684.818 190.731 684.675 190.357 684.389 190.132C684.102 189.908 683.765 189.795 683.378 189.795C682.879 189.795 682.493 189.946 682.219 190.248C681.945 190.546 681.808 190.925 681.808 191.384V196H680.7V191.143C680.7 190.74 680.569 190.416 680.308 190.169C680.046 189.92 679.709 189.795 679.297 189.795C679.014 189.795 678.749 189.871 678.503 190.022C678.26 190.172 678.063 190.382 677.912 190.65C677.764 190.914 677.69 191.22 677.69 191.568V196H676.601ZM690.873 196.148C690.189 196.148 689.6 195.997 689.104 195.695C688.612 195.391 688.232 194.966 687.964 194.421C687.699 193.873 687.567 193.236 687.567 192.51C687.567 191.784 687.699 191.143 687.964 190.589C688.232 190.032 688.604 189.598 689.081 189.288C689.561 188.974 690.122 188.817 690.762 188.817C691.131 188.817 691.496 188.878 691.856 189.001C692.216 189.125 692.544 189.325 692.839 189.602C693.135 189.875 693.37 190.239 693.545 190.691C693.721 191.143 693.809 191.701 693.809 192.362V192.824H688.343V191.882H692.701C692.701 191.482 692.621 191.125 692.461 190.811C692.304 190.497 692.079 190.249 691.787 190.068C691.497 189.886 691.156 189.795 690.762 189.795C690.328 189.795 689.952 189.903 689.635 190.119C689.321 190.331 689.08 190.608 688.911 190.95C688.741 191.291 688.657 191.657 688.657 192.048V192.676C688.657 193.212 688.749 193.666 688.934 194.038C689.121 194.407 689.381 194.689 689.714 194.883C690.046 195.074 690.432 195.169 690.873 195.169C691.159 195.169 691.417 195.129 691.648 195.049C691.882 194.966 692.084 194.843 692.253 194.68C692.422 194.513 692.553 194.307 692.645 194.061L693.698 194.357C693.587 194.714 693.401 195.027 693.139 195.298C692.878 195.566 692.554 195.775 692.17 195.926C691.785 196.074 691.353 196.148 690.873 196.148ZM700.359 196V197.016H694.45V196H700.359ZM700.367 194.061V193.119L704.522 186.545H705.206V188.004H704.744L701.605 192.972V193.045H707.2V194.061H700.367ZM704.818 196V193.775V193.336V186.545H705.907V196H704.818Z" fill="#344054"/>
<g clip-path="url(#clip4_888_9813)">
<path d="M669 133H670V181H669V133Z" fill="#C54600"/>
<g clip-path="url(#clip5_888_9813)">
<rect x="681" y="133" width="24" height="24" rx="12" transform="rotate(90 681 133)" fill="#C54600"/>
<path d="M668.975 150.139C668.232 150.139 667.571 150.012 666.991 149.756C666.414 149.498 665.958 149.143 665.624 148.692C665.292 148.238 665.122 147.715 665.112 147.121L667.279 147.121C667.292 147.37 667.374 147.589 667.523 147.778C667.675 147.963 667.877 148.107 668.129 148.21C668.381 148.313 668.665 148.364 668.979 148.364C669.308 148.364 669.598 148.306 669.85 148.19C670.101 148.074 670.299 147.914 670.441 147.708C670.584 147.503 670.655 147.266 670.655 146.997C670.655 146.725 670.579 146.485 670.426 146.276C670.277 146.064 670.062 145.898 669.78 145.779C669.502 145.66 669.17 145.6 668.786 145.6L667.836 145.6L667.836 144.019L668.786 144.019C669.11 144.019 669.397 143.963 669.646 143.85C669.898 143.737 670.093 143.582 670.232 143.383C670.372 143.181 670.441 142.945 670.441 142.677C670.441 142.422 670.38 142.198 670.257 142.006C670.138 141.81 669.969 141.658 669.75 141.548C669.535 141.439 669.283 141.384 668.994 141.384C668.703 141.384 668.436 141.437 668.194 141.543C667.952 141.646 667.758 141.794 667.612 141.986C667.466 142.178 667.389 142.403 667.379 142.662L665.315 142.662C665.325 142.075 665.493 141.558 665.818 141.111C666.142 140.663 666.58 140.314 667.13 140.062C667.684 139.807 668.308 139.679 669.004 139.679C669.707 139.679 670.322 139.807 670.849 140.062C671.376 140.317 671.785 140.662 672.077 141.096C672.372 141.527 672.518 142.011 672.514 142.548C672.518 143.118 672.34 143.593 671.982 143.974C671.628 144.356 671.165 144.598 670.595 144.7L670.595 144.78C671.344 144.876 671.914 145.136 672.305 145.56C672.7 145.981 672.895 146.508 672.892 147.141C672.895 147.721 672.728 148.237 672.39 148.687C672.055 149.138 671.593 149.493 671.003 149.751C670.413 150.01 669.737 150.139 668.975 150.139Z" fill="white"/>
</g>
</g>
<rect x="0.5" y="0.5" width="803" height="279" stroke="white"/>
<defs>
<clipPath id="clip0_888_9813">
<rect width="48" height="24" fill="white" transform="translate(293 98)"/>
</clipPath>
<clipPath id="clip1_888_9813">
<rect x="293" y="98" width="24" height="24" rx="12" fill="white"/>
</clipPath>
<clipPath id="clip2_888_9813">
<rect width="24" height="48" fill="white" transform="translate(405.5 52)"/>
</clipPath>
<clipPath id="clip3_888_9813">
<rect x="405.5" y="52" width="24" height="24" rx="12" fill="white"/>
</clipPath>
<clipPath id="clip4_888_9813">
<rect width="24" height="48" fill="white" transform="translate(657 133)"/>
</clipPath>
<clipPath id="clip5_888_9813">
<rect x="681" y="133" width="24" height="24" rx="12" transform="rotate(90 681 133)" fill="white"/>
</clipPath>
</defs>
</svg>
