<svg width="803" height="209" viewBox="0 0 803 209" fill="none" xmlns="http://www.w3.org/2000/svg">
<rect width="803" height="209" rx="8" fill="#4CA154" fill-opacity="0.1"/>
<line x1="244.5" y1="63.5" x2="558.5" y2="63.5" stroke="#4CA154" stroke-opacity="0.1" stroke-width="2" stroke-linecap="round"/>
<path d="M245.5 89.7C245.5 88.5799 245.5 88.0198 245.718 87.592C245.91 87.2157 246.216 86.9097 246.592 86.718C247.02 86.5 247.58 86.5 248.7 86.5H262.3C263.42 86.5 263.98 86.5 264.408 86.718C264.784 86.9097 265.09 87.2157 265.282 87.592C265.5 88.0198 265.5 88.5799 265.5 89.7V103.3C265.5 104.42 265.5 104.98 265.282 105.408C265.09 105.784 264.784 106.09 264.408 106.282C263.98 106.5 263.42 106.5 262.3 106.5H248.7C247.58 106.5 247.02 106.5 246.592 106.282C246.216 106.09 245.91 105.784 245.718 105.408C245.5 104.98 245.5 104.42 245.5 103.3V89.7Z" fill="#217CF5"/>
<path d="M262.031 93.5313L254.031 101.531C253.961 101.601 253.878 101.657 253.787 101.695C253.696 101.732 253.598 101.752 253.499 101.752C253.401 101.752 253.303 101.732 253.212 101.695C253.121 101.657 253.038 101.601 252.968 101.531L249.468 98.0313C249.398 97.9615 249.343 97.8787 249.305 97.7876C249.267 97.6964 249.248 97.5987 249.248 97.5001C249.248 97.4014 249.267 97.3037 249.305 97.2125C249.343 97.1214 249.398 97.0386 249.468 96.9688C249.538 96.899 249.621 96.8437 249.712 96.8059C249.803 96.7682 249.901 96.7487 249.999 96.7487C250.098 96.7487 250.196 96.7682 250.287 96.8059C250.378 96.8437 250.461 96.899 250.531 96.9688L253.5 99.9382L260.969 92.4701C261.11 92.3292 261.301 92.25 261.501 92.25C261.7 92.25 261.891 92.3292 262.032 92.4701C262.173 92.6109 262.252 92.802 262.252 93.0013C262.252 93.2006 262.173 93.3917 262.032 93.5326L262.031 93.5313Z" fill="#FCFCFD"/>
<path d="M283.273 93.7727C283.205 93.197 282.928 92.75 282.443 92.4318C281.958 92.1136 281.364 91.9545 280.659 91.9545C280.144 91.9545 279.693 92.0379 279.307 92.2045C278.924 92.3712 278.625 92.6004 278.409 92.892C278.197 93.1837 278.091 93.5152 278.091 93.8864C278.091 94.197 278.165 94.464 278.312 94.6875C278.464 94.9072 278.657 95.0909 278.892 95.2386C279.127 95.3826 279.373 95.5019 279.631 95.5966C279.888 95.6875 280.125 95.7614 280.341 95.8182L281.523 96.1364C281.826 96.2159 282.163 96.3258 282.534 96.4659C282.909 96.6061 283.267 96.7973 283.608 97.0398C283.953 97.2784 284.237 97.5852 284.46 97.9602C284.684 98.3352 284.795 98.7955 284.795 99.3409C284.795 99.9697 284.631 100.538 284.301 101.045C283.975 101.553 283.498 101.956 282.869 102.256C282.244 102.555 281.485 102.705 280.591 102.705C279.758 102.705 279.036 102.57 278.426 102.301C277.82 102.032 277.343 101.657 276.994 101.176C276.65 100.695 276.455 100.136 276.409 99.5H277.864C277.902 99.9394 278.049 100.303 278.307 100.591C278.568 100.875 278.898 101.087 279.295 101.227C279.697 101.364 280.129 101.432 280.591 101.432C281.129 101.432 281.612 101.345 282.04 101.17C282.468 100.992 282.807 100.746 283.057 100.432C283.307 100.114 283.432 99.7424 283.432 99.3182C283.432 98.9318 283.324 98.6174 283.108 98.375C282.892 98.1326 282.608 97.9356 282.256 97.7841C281.903 97.6326 281.523 97.5 281.114 97.3864L279.682 96.9773C278.773 96.7159 278.053 96.3428 277.523 95.858C276.992 95.3731 276.727 94.7386 276.727 93.9545C276.727 93.303 276.903 92.7348 277.256 92.25C277.612 91.7614 278.089 91.3826 278.688 91.1136C279.29 90.8409 279.962 90.7045 280.705 90.7045C281.455 90.7045 282.121 90.839 282.705 91.108C283.288 91.3731 283.75 91.7367 284.091 92.1989C284.436 92.661 284.617 93.1856 284.636 93.7727H283.273ZM290.339 102.682C289.499 102.682 288.773 102.496 288.163 102.125C287.557 101.75 287.089 101.227 286.76 100.557C286.434 99.8826 286.271 99.0985 286.271 98.2045C286.271 97.3106 286.434 96.5227 286.76 95.8409C287.089 95.1553 287.548 94.6212 288.135 94.2386C288.726 93.8523 289.415 93.6591 290.203 93.6591C290.658 93.6591 291.107 93.7348 291.55 93.8864C291.993 94.0379 292.396 94.2841 292.76 94.625C293.124 94.9621 293.413 95.4091 293.629 95.9659C293.845 96.5227 293.953 97.2083 293.953 98.0227V98.5909H287.226V97.4318H292.589C292.589 96.9394 292.491 96.5 292.294 96.1136C292.101 95.7273 291.824 95.4223 291.464 95.1989C291.108 94.9754 290.688 94.8636 290.203 94.8636C289.669 94.8636 289.207 94.9962 288.817 95.2614C288.43 95.5227 288.133 95.8636 287.925 96.2841C287.716 96.7045 287.612 97.1553 287.612 97.6364V98.4091C287.612 99.0682 287.726 99.6269 287.953 100.085C288.184 100.54 288.504 100.886 288.913 101.125C289.322 101.36 289.798 101.477 290.339 101.477C290.692 101.477 291.01 101.428 291.294 101.33C291.582 101.227 291.83 101.076 292.038 100.875C292.247 100.67 292.408 100.417 292.521 100.114L293.817 100.477C293.68 100.917 293.451 101.303 293.129 101.636C292.807 101.966 292.41 102.223 291.936 102.409C291.463 102.591 290.93 102.682 290.339 102.682ZM301.697 105.773V101.159H301.584C301.485 101.318 301.345 101.519 301.163 101.761C300.982 102 300.722 102.214 300.385 102.403C300.048 102.589 299.599 102.682 299.038 102.682C298.311 102.682 297.669 102.498 297.112 102.131C296.555 101.759 296.12 101.237 295.805 100.562C295.491 99.8845 295.334 99.0833 295.334 98.1591C295.334 97.2424 295.491 96.447 295.805 95.7727C296.12 95.0985 296.557 94.5777 297.118 94.2102C297.679 93.8428 298.326 93.6591 299.061 93.6591C299.629 93.6591 300.078 93.7538 300.408 93.9432C300.741 94.1288 300.995 94.3409 301.169 94.5795C301.347 94.8144 301.485 95.0076 301.584 95.1591H301.743V93.7727H303.038V105.773H301.697ZM299.22 101.477C299.758 101.477 300.213 101.337 300.584 101.057C300.955 100.773 301.237 100.381 301.43 99.8807C301.624 99.3769 301.72 98.7955 301.72 98.1364C301.72 97.4848 301.625 96.9148 301.436 96.4261C301.247 95.9337 300.966 95.5511 300.595 95.2784C300.224 95.0019 299.766 94.8636 299.22 94.8636C298.652 94.8636 298.179 95.0095 297.8 95.3011C297.425 95.589 297.143 95.9811 296.953 96.4773C296.768 96.9697 296.675 97.5227 296.675 98.1364C296.675 98.7576 296.769 99.322 296.959 99.8295C297.152 100.333 297.436 100.735 297.811 101.034C298.19 101.33 298.66 101.477 299.22 101.477ZM310.743 98.9318V93.7727H312.084V102.5H310.743V101.023H310.652C310.447 101.466 310.129 101.843 309.697 102.153C309.266 102.46 308.72 102.614 308.061 102.614C307.516 102.614 307.031 102.494 306.607 102.256C306.182 102.013 305.849 101.65 305.607 101.165C305.364 100.676 305.243 100.061 305.243 99.3182V93.7727H306.584V99.2273C306.584 99.8636 306.762 100.371 307.118 100.75C307.478 101.129 307.936 101.318 308.493 101.318C308.826 101.318 309.165 101.233 309.51 101.062C309.858 100.892 310.15 100.631 310.385 100.278C310.624 99.9261 310.743 99.4773 310.743 98.9318ZM314.29 102.5V93.7727H315.631V102.5H314.29ZM314.972 92.3182C314.71 92.3182 314.485 92.2292 314.295 92.0511C314.11 91.8731 314.017 91.6591 314.017 91.4091C314.017 91.1591 314.11 90.9451 314.295 90.767C314.485 90.589 314.71 90.5 314.972 90.5C315.233 90.5 315.456 90.589 315.642 90.767C315.831 90.9451 315.926 91.1591 315.926 91.4091C315.926 91.6591 315.831 91.8731 315.642 92.0511C315.456 92.2292 315.233 92.3182 314.972 92.3182ZM323.428 97.25V102.5H322.087V93.7727H323.382V95.1364H323.496C323.7 94.6932 324.011 94.3371 324.428 94.0682C324.844 93.7955 325.382 93.6591 326.041 93.6591C326.632 93.6591 327.149 93.7803 327.592 94.0227C328.036 94.2614 328.38 94.625 328.626 95.1136C328.873 95.5985 328.996 96.2121 328.996 96.9545V102.5H327.655V97.0455C327.655 96.3598 327.477 95.8258 327.121 95.4432C326.765 95.0568 326.276 94.8636 325.655 94.8636C325.227 94.8636 324.844 94.9564 324.507 95.142C324.174 95.3277 323.911 95.5985 323.717 95.9545C323.524 96.3106 323.428 96.7424 323.428 97.25ZM334.741 102.682C333.954 102.682 333.262 102.494 332.668 102.119C332.077 101.744 331.615 101.22 331.281 100.545C330.952 99.8712 330.787 99.0833 330.787 98.1818C330.787 97.2727 330.952 96.4792 331.281 95.8011C331.615 95.1231 332.077 94.5966 332.668 94.2216C333.262 93.8466 333.954 93.6591 334.741 93.6591C335.529 93.6591 336.219 93.8466 336.81 94.2216C337.404 94.5966 337.866 95.1231 338.196 95.8011C338.529 96.4792 338.696 97.2727 338.696 98.1818C338.696 99.0833 338.529 99.8712 338.196 100.545C337.866 101.22 337.404 101.744 336.81 102.119C336.219 102.494 335.529 102.682 334.741 102.682ZM334.741 101.477C335.34 101.477 335.832 101.324 336.219 101.017C336.605 100.71 336.891 100.307 337.077 99.8068C337.262 99.3068 337.355 98.7652 337.355 98.1818C337.355 97.5985 337.262 97.0549 337.077 96.5511C336.891 96.0473 336.605 95.6402 336.219 95.3295C335.832 95.0189 335.34 94.8636 334.741 94.8636C334.143 94.8636 333.651 95.0189 333.264 95.3295C332.878 95.6402 332.592 96.0473 332.406 96.5511C332.221 97.0549 332.128 97.5985 332.128 98.1818C332.128 98.7652 332.221 99.3068 332.406 99.8068C332.592 100.307 332.878 100.71 333.264 101.017C333.651 101.324 334.143 101.477 334.741 101.477ZM341.834 97.25V102.5H340.493V93.7727H341.788V95.1364H341.902C342.107 94.6932 342.417 94.3371 342.834 94.0682C343.25 93.7955 343.788 93.6591 344.447 93.6591C345.038 93.6591 345.555 93.7803 345.999 94.0227C346.442 94.2614 346.786 94.625 347.033 95.1136C347.279 95.5985 347.402 96.2121 347.402 96.9545V102.5H346.061V97.0455C346.061 96.3598 345.883 95.8258 345.527 95.4432C345.171 95.0568 344.682 94.8636 344.061 94.8636C343.633 94.8636 343.25 94.9564 342.913 95.142C342.58 95.3277 342.317 95.5985 342.124 95.9545C341.93 96.3106 341.834 96.7424 341.834 97.25ZM357.398 102.682C356.61 102.682 355.919 102.494 355.324 102.119C354.733 101.744 354.271 101.22 353.938 100.545C353.608 99.8712 353.443 99.0833 353.443 98.1818C353.443 97.2727 353.608 96.4792 353.938 95.8011C354.271 95.1231 354.733 94.5966 355.324 94.2216C355.919 93.8466 356.61 93.6591 357.398 93.6591C358.186 93.6591 358.875 93.8466 359.466 94.2216C360.061 94.5966 360.523 95.1231 360.852 95.8011C361.186 96.4792 361.352 97.2727 361.352 98.1818C361.352 99.0833 361.186 99.8712 360.852 100.545C360.523 101.22 360.061 101.744 359.466 102.119C358.875 102.494 358.186 102.682 357.398 102.682ZM357.398 101.477C357.996 101.477 358.489 101.324 358.875 101.017C359.261 100.71 359.547 100.307 359.733 99.8068C359.919 99.3068 360.011 98.7652 360.011 98.1818C360.011 97.5985 359.919 97.0549 359.733 96.5511C359.547 96.0473 359.261 95.6402 358.875 95.3295C358.489 95.0189 357.996 94.8636 357.398 94.8636C356.799 94.8636 356.307 95.0189 355.92 95.3295C355.534 95.6402 355.248 96.0473 355.062 96.5511C354.877 97.0549 354.784 97.5985 354.784 98.1818C354.784 98.7652 354.877 99.3068 355.062 99.8068C355.248 100.307 355.534 100.71 355.92 101.017C356.307 101.324 356.799 101.477 357.398 101.477ZM363.149 102.5V93.7727H364.445V95.1364H364.558C364.74 94.6705 365.034 94.3087 365.439 94.0511C365.844 93.7898 366.331 93.6591 366.899 93.6591C367.475 93.6591 367.954 93.7898 368.337 94.0511C368.723 94.3087 369.024 94.6705 369.24 95.1364H369.331C369.554 94.6856 369.89 94.3277 370.337 94.0625C370.784 93.7936 371.32 93.6591 371.945 93.6591C372.725 93.6591 373.363 93.9034 373.859 94.392C374.356 94.8769 374.604 95.6326 374.604 96.6591V102.5H373.263V96.6591C373.263 96.0152 373.087 95.5549 372.734 95.2784C372.382 95.0019 371.967 94.8636 371.49 94.8636C370.876 94.8636 370.401 95.0492 370.064 95.4205C369.727 95.7879 369.558 96.2538 369.558 96.8182V102.5H368.195V96.5227C368.195 96.0265 368.034 95.6269 367.712 95.3239C367.39 95.017 366.975 94.8636 366.467 94.8636C366.119 94.8636 365.793 94.9564 365.49 95.142C365.191 95.3277 364.948 95.5852 364.763 95.9148C364.581 96.2405 364.49 96.6174 364.49 97.0455V102.5H363.149ZM378.146 97.25V102.5H376.805V93.7727H378.101V95.1364H378.214C378.419 94.6932 378.73 94.3371 379.146 94.0682C379.563 93.7955 380.101 93.6591 380.76 93.6591C381.351 93.6591 381.868 93.7803 382.311 94.0227C382.754 94.2614 383.099 94.625 383.345 95.1136C383.591 95.5985 383.714 96.2121 383.714 96.9545V102.5H382.374V97.0455C382.374 96.3598 382.196 95.8258 381.839 95.4432C381.483 95.0568 380.995 94.8636 380.374 94.8636C379.946 94.8636 379.563 94.9564 379.226 95.142C378.893 95.3277 378.629 95.5985 378.436 95.9545C378.243 96.3106 378.146 96.7424 378.146 97.25ZM385.915 102.5V93.7727H387.256V102.5H385.915ZM386.597 92.3182C386.335 92.3182 386.11 92.2292 385.92 92.0511C385.735 91.8731 385.642 91.6591 385.642 91.4091C385.642 91.1591 385.735 90.9451 385.92 90.767C386.11 90.589 386.335 90.5 386.597 90.5C386.858 90.5 387.081 90.589 387.267 90.767C387.456 90.9451 387.551 91.1591 387.551 91.4091C387.551 91.6591 387.456 91.8731 387.267 92.0511C387.081 92.2292 386.858 92.3182 386.597 92.3182ZM395.643 95.7273L394.439 96.0682C394.363 95.8674 394.251 95.6723 394.104 95.483C393.96 95.2898 393.763 95.1307 393.513 95.0057C393.263 94.8807 392.943 94.8182 392.553 94.8182C392.018 94.8182 391.573 94.9413 391.217 95.1875C390.865 95.4299 390.689 95.7386 390.689 96.1136C390.689 96.447 390.81 96.7102 391.053 96.9034C391.295 97.0966 391.674 97.2576 392.189 97.3864L393.484 97.7045C394.265 97.8939 394.846 98.1837 395.229 98.5739C395.611 98.9602 395.803 99.4583 395.803 100.068C395.803 100.568 395.659 101.015 395.371 101.409C395.087 101.803 394.689 102.114 394.178 102.341C393.666 102.568 393.071 102.682 392.393 102.682C391.503 102.682 390.767 102.489 390.183 102.102C389.6 101.716 389.231 101.152 389.075 100.409L390.348 100.091C390.469 100.561 390.698 100.913 391.036 101.148C391.376 101.383 391.821 101.5 392.371 101.5C392.996 101.5 393.492 101.367 393.859 101.102C394.231 100.833 394.416 100.511 394.416 100.136C394.416 99.8333 394.31 99.5795 394.098 99.375C393.886 99.1667 393.56 99.0114 393.121 98.9091L391.666 98.5682C390.867 98.3788 390.28 98.0852 389.905 97.6875C389.534 97.286 389.348 96.7841 389.348 96.1818C389.348 95.6894 389.486 95.2538 389.763 94.875C390.043 94.4962 390.424 94.1989 390.905 93.983C391.39 93.767 391.939 93.6591 392.553 93.6591C393.416 93.6591 394.094 93.8485 394.587 94.2273C395.083 94.6061 395.435 95.1061 395.643 95.7273ZM408.957 93.7727L405.73 102.5H404.366L401.139 93.7727H402.594L405.003 100.727H405.094L407.503 93.7727H408.957ZM413.824 102.682C412.983 102.682 412.258 102.496 411.648 102.125C411.042 101.75 410.574 101.227 410.244 100.557C409.919 99.8826 409.756 99.0985 409.756 98.2045C409.756 97.3106 409.919 96.5227 410.244 95.8409C410.574 95.1553 411.032 94.6212 411.619 94.2386C412.21 93.8523 412.9 93.6591 413.688 93.6591C414.142 93.6591 414.591 93.7348 415.034 93.8864C415.477 94.0379 415.881 94.2841 416.244 94.625C416.608 94.9621 416.898 95.4091 417.114 95.9659C417.33 96.5227 417.438 97.2083 417.438 98.0227V98.5909H410.71V97.4318H416.074C416.074 96.9394 415.975 96.5 415.778 96.1136C415.585 95.7273 415.309 95.4223 414.949 95.1989C414.593 94.9754 414.172 94.8636 413.688 94.8636C413.153 94.8636 412.691 94.9962 412.301 95.2614C411.915 95.5227 411.617 95.8636 411.409 96.2841C411.201 96.7045 411.097 97.1553 411.097 97.6364V98.4091C411.097 99.0682 411.21 99.6269 411.438 100.085C411.669 100.54 411.989 100.886 412.398 101.125C412.807 101.36 413.282 101.477 413.824 101.477C414.176 101.477 414.494 101.428 414.778 101.33C415.066 101.227 415.314 101.076 415.523 100.875C415.731 100.67 415.892 100.417 416.006 100.114L417.301 100.477C417.165 100.917 416.936 101.303 416.614 101.636C416.292 101.966 415.894 102.223 415.42 102.409C414.947 102.591 414.415 102.682 413.824 102.682ZM420.568 90.8636V102.5H419.227V90.8636H420.568ZM422.774 102.5V93.7727H424.115V102.5H422.774ZM423.456 92.3182C423.195 92.3182 422.969 92.2292 422.78 92.0511C422.594 91.8731 422.501 91.6591 422.501 91.4091C422.501 91.1591 422.594 90.9451 422.78 90.767C422.969 90.589 423.195 90.5 423.456 90.5C423.717 90.5 423.941 90.589 424.126 90.767C424.316 90.9451 424.411 91.1591 424.411 91.4091C424.411 91.6591 424.316 91.8731 424.126 92.0511C423.941 92.2292 423.717 92.3182 423.456 92.3182ZM430.116 93.7727V94.9091H425.594V93.7727H430.116ZM426.912 91.6818H428.253V100C428.253 100.379 428.308 100.663 428.418 100.852C428.531 101.038 428.675 101.163 428.849 101.227C429.027 101.288 429.215 101.318 429.412 101.318C429.56 101.318 429.681 101.311 429.776 101.295C429.87 101.277 429.946 101.261 430.003 101.25L430.276 102.455C430.185 102.489 430.058 102.523 429.895 102.557C429.732 102.595 429.526 102.614 429.276 102.614C428.897 102.614 428.526 102.532 428.162 102.369C427.802 102.206 427.503 101.958 427.264 101.625C427.029 101.292 426.912 100.871 426.912 100.364V91.6818ZM437.474 97.25V102.5H436.134V93.7727H437.429V95.1364H437.543C437.747 94.6932 438.058 94.3371 438.474 94.0682C438.891 93.7955 439.429 93.6591 440.088 93.6591C440.679 93.6591 441.196 93.7803 441.639 94.0227C442.082 94.2614 442.427 94.625 442.673 95.1136C442.92 95.5985 443.043 96.2121 443.043 96.9545V102.5H441.702V97.0455C441.702 96.3598 441.524 95.8258 441.168 95.4432C440.812 95.0568 440.323 94.8636 439.702 94.8636C439.274 94.8636 438.891 94.9564 438.554 95.142C438.221 95.3277 437.957 95.5985 437.764 95.9545C437.571 96.3106 437.474 96.7424 437.474 97.25ZM448.788 102.682C448 102.682 447.309 102.494 446.714 102.119C446.124 101.744 445.661 101.22 445.328 100.545C444.999 99.8712 444.834 99.0833 444.834 98.1818C444.834 97.2727 444.999 96.4792 445.328 95.8011C445.661 95.1231 446.124 94.5966 446.714 94.2216C447.309 93.8466 448 93.6591 448.788 93.6591C449.576 93.6591 450.266 93.8466 450.857 94.2216C451.451 94.5966 451.913 95.1231 452.243 95.8011C452.576 96.4792 452.743 97.2727 452.743 98.1818C452.743 99.0833 452.576 99.8712 452.243 100.545C451.913 101.22 451.451 101.744 450.857 102.119C450.266 102.494 449.576 102.682 448.788 102.682ZM448.788 101.477C449.387 101.477 449.879 101.324 450.266 101.017C450.652 100.71 450.938 100.307 451.124 99.8068C451.309 99.3068 451.402 98.7652 451.402 98.1818C451.402 97.5985 451.309 97.0549 451.124 96.5511C450.938 96.0473 450.652 95.6402 450.266 95.3295C449.879 95.0189 449.387 94.8636 448.788 94.8636C448.19 94.8636 447.697 95.0189 447.311 95.3295C446.925 95.6402 446.639 96.0473 446.453 96.5511C446.268 97.0549 446.175 97.5985 446.175 98.1818C446.175 98.7652 446.268 99.3068 446.453 99.8068C446.639 100.307 446.925 100.71 447.311 101.017C447.697 101.324 448.19 101.477 448.788 101.477ZM455.881 97.25V102.5H454.54V93.7727H455.835V95.1364H455.949C456.153 94.6932 456.464 94.3371 456.881 94.0682C457.297 93.7955 457.835 93.6591 458.494 93.6591C459.085 93.6591 459.602 93.7803 460.045 94.0227C460.489 94.2614 460.833 94.625 461.08 95.1136C461.326 95.5985 461.449 96.2121 461.449 96.9545V102.5H460.108V97.0455C460.108 96.3598 459.93 95.8258 459.574 95.4432C459.218 95.0568 458.729 94.8636 458.108 94.8636C457.68 94.8636 457.297 94.9564 456.96 95.142C456.627 95.3277 456.364 95.5985 456.17 95.9545C455.977 96.3106 455.881 96.7424 455.881 97.25ZM471.558 102.682C470.717 102.682 469.992 102.496 469.382 102.125C468.776 101.75 468.308 101.227 467.979 100.557C467.653 99.8826 467.49 99.0985 467.49 98.2045C467.49 97.3106 467.653 96.5227 467.979 95.8409C468.308 95.1553 468.767 94.6212 469.354 94.2386C469.945 93.8523 470.634 93.6591 471.422 93.6591C471.876 93.6591 472.325 93.7348 472.768 93.8864C473.212 94.0379 473.615 94.2841 473.979 94.625C474.342 94.9621 474.632 95.4091 474.848 95.9659C475.064 96.5227 475.172 97.2083 475.172 98.0227V98.5909H468.445V97.4318H473.808C473.808 96.9394 473.71 96.5 473.513 96.1136C473.32 95.7273 473.043 95.4223 472.683 95.1989C472.327 94.9754 471.907 94.8636 471.422 94.8636C470.888 94.8636 470.426 94.9962 470.036 95.2614C469.649 95.5227 469.352 95.8636 469.143 96.2841C468.935 96.7045 468.831 97.1553 468.831 97.6364V98.4091C468.831 99.0682 468.945 99.6269 469.172 100.085C469.403 100.54 469.723 100.886 470.132 101.125C470.541 101.36 471.017 101.477 471.558 101.477C471.911 101.477 472.229 101.428 472.513 101.33C472.801 101.227 473.049 101.076 473.257 100.875C473.465 100.67 473.626 100.417 473.74 100.114L475.036 100.477C474.899 100.917 474.67 101.303 474.348 101.636C474.026 101.966 473.628 102.223 473.155 102.409C472.681 102.591 472.149 102.682 471.558 102.682ZM483.143 95.7273L481.939 96.0682C481.863 95.8674 481.751 95.6723 481.604 95.483C481.46 95.2898 481.263 95.1307 481.013 95.0057C480.763 94.8807 480.443 94.8182 480.053 94.8182C479.518 94.8182 479.073 94.9413 478.717 95.1875C478.365 95.4299 478.189 95.7386 478.189 96.1136C478.189 96.447 478.31 96.7102 478.553 96.9034C478.795 97.0966 479.174 97.2576 479.689 97.3864L480.984 97.7045C481.765 97.8939 482.346 98.1837 482.729 98.5739C483.111 98.9602 483.303 99.4583 483.303 100.068C483.303 100.568 483.159 101.015 482.871 101.409C482.587 101.803 482.189 102.114 481.678 102.341C481.166 102.568 480.571 102.682 479.893 102.682C479.003 102.682 478.267 102.489 477.683 102.102C477.1 101.716 476.731 101.152 476.575 100.409L477.848 100.091C477.969 100.561 478.198 100.913 478.536 101.148C478.876 101.383 479.321 101.5 479.871 101.5C480.496 101.5 480.992 101.367 481.359 101.102C481.731 100.833 481.916 100.511 481.916 100.136C481.916 99.8333 481.81 99.5795 481.598 99.375C481.386 99.1667 481.06 99.0114 480.621 98.9091L479.166 98.5682C478.367 98.3788 477.78 98.0852 477.405 97.6875C477.034 97.286 476.848 96.7841 476.848 96.1818C476.848 95.6894 476.986 95.2538 477.263 94.875C477.543 94.4962 477.924 94.1989 478.405 93.983C478.89 93.767 479.439 93.6591 480.053 93.6591C480.916 93.6591 481.594 93.8485 482.087 94.2273C482.583 94.6061 482.935 95.1061 483.143 95.7273ZM488.866 93.7727V94.9091H484.344V93.7727H488.866ZM485.662 91.6818H487.003V100C487.003 100.379 487.058 100.663 487.168 100.852C487.281 101.038 487.425 101.163 487.599 101.227C487.777 101.288 487.965 101.318 488.162 101.318C488.31 101.318 488.431 101.311 488.526 101.295C488.62 101.277 488.696 101.261 488.753 101.25L489.026 102.455C488.935 102.489 488.808 102.523 488.645 102.557C488.482 102.595 488.276 102.614 488.026 102.614C487.647 102.614 487.276 102.532 486.912 102.369C486.552 102.206 486.253 101.958 486.014 101.625C485.779 101.292 485.662 100.871 485.662 100.364V91.6818ZM494.884 105.773V93.7727H496.179V95.1591H496.338C496.437 95.0076 496.573 94.8144 496.747 94.5795C496.925 94.3409 497.179 94.1288 497.509 93.9432C497.842 93.7538 498.293 93.6591 498.861 93.6591C499.596 93.6591 500.243 93.8428 500.804 94.2102C501.365 94.5777 501.802 95.0985 502.116 95.7727C502.431 96.447 502.588 97.2424 502.588 98.1591C502.588 99.0833 502.431 99.8845 502.116 100.562C501.802 101.237 501.366 101.759 500.81 102.131C500.253 102.498 499.611 102.682 498.884 102.682C498.323 102.682 497.874 102.589 497.537 102.403C497.2 102.214 496.94 102 496.759 101.761C496.577 101.519 496.437 101.318 496.338 101.159H496.224V105.773H494.884ZM496.202 98.1364C496.202 98.7955 496.298 99.3769 496.491 99.8807C496.685 100.381 496.967 100.773 497.338 101.057C497.709 101.337 498.164 101.477 498.702 101.477C499.262 101.477 499.73 101.33 500.105 101.034C500.484 100.735 500.768 100.333 500.957 99.8295C501.151 99.322 501.247 98.7576 501.247 98.1364C501.247 97.5227 501.152 96.9697 500.963 96.4773C500.777 95.9811 500.495 95.589 500.116 95.3011C499.741 95.0095 499.27 94.8636 498.702 94.8636C498.156 94.8636 497.698 95.0019 497.327 95.2784C496.955 95.5511 496.675 95.9337 496.486 96.4261C496.296 96.9148 496.202 97.4848 496.202 98.1364ZM507.929 102.682C507.141 102.682 506.45 102.494 505.855 102.119C505.264 101.744 504.802 101.22 504.469 100.545C504.139 99.8712 503.974 99.0833 503.974 98.1818C503.974 97.2727 504.139 96.4792 504.469 95.8011C504.802 95.1231 505.264 94.5966 505.855 94.2216C506.45 93.8466 507.141 93.6591 507.929 93.6591C508.717 93.6591 509.406 93.8466 509.997 94.2216C510.592 94.5966 511.054 95.1231 511.384 95.8011C511.717 96.4792 511.884 97.2727 511.884 98.1818C511.884 99.0833 511.717 99.8712 511.384 100.545C511.054 101.22 510.592 101.744 509.997 102.119C509.406 102.494 508.717 102.682 507.929 102.682ZM507.929 101.477C508.527 101.477 509.02 101.324 509.406 101.017C509.793 100.71 510.079 100.307 510.264 99.8068C510.45 99.3068 510.543 98.7652 510.543 98.1818C510.543 97.5985 510.45 97.0549 510.264 96.5511C510.079 96.0473 509.793 95.6402 509.406 95.3295C509.02 95.0189 508.527 94.8636 507.929 94.8636C507.33 94.8636 506.838 95.0189 506.452 95.3295C506.065 95.6402 505.779 96.0473 505.594 96.5511C505.408 97.0549 505.315 97.5985 505.315 98.1818C505.315 98.7652 505.408 99.3068 505.594 99.8068C505.779 100.307 506.065 100.71 506.452 101.017C506.838 101.324 507.33 101.477 507.929 101.477ZM513.68 102.5V93.7727H514.976V95.0909H515.067C515.226 94.6591 515.514 94.3087 515.93 94.0398C516.347 93.7708 516.817 93.6364 517.339 93.6364C517.438 93.6364 517.561 93.6383 517.709 93.642C517.857 93.6458 517.968 93.6515 518.044 93.6591V95.0227C517.999 95.0114 517.894 94.9943 517.732 94.9716C517.572 94.9451 517.404 94.9318 517.226 94.9318C516.802 94.9318 516.423 95.0208 516.089 95.1989C515.76 95.3731 515.499 95.6155 515.305 95.9261C515.116 96.233 515.021 96.5833 515.021 96.9773V102.5H513.68ZM519.384 102.5V93.7727H520.679V95.0909H520.77C520.929 94.6591 521.217 94.3087 521.634 94.0398C522.05 93.7708 522.52 93.6364 523.043 93.6364C523.141 93.6364 523.264 93.6383 523.412 93.642C523.56 93.6458 523.671 93.6515 523.747 93.6591V95.0227C523.702 95.0114 523.598 94.9943 523.435 94.9716C523.276 94.9451 523.107 94.9318 522.929 94.9318C522.505 94.9318 522.126 95.0208 521.793 95.1989C521.463 95.3731 521.202 95.6155 521.009 95.9261C520.819 96.233 520.724 96.5833 520.724 96.9773V102.5H519.384ZM528.366 102.682C527.579 102.682 526.887 102.494 526.293 102.119C525.702 101.744 525.24 101.22 524.906 100.545C524.577 99.8712 524.412 99.0833 524.412 98.1818C524.412 97.2727 524.577 96.4792 524.906 95.8011C525.24 95.1231 525.702 94.5966 526.293 94.2216C526.887 93.8466 527.579 93.6591 528.366 93.6591C529.154 93.6591 529.844 93.8466 530.435 94.2216C531.029 94.5966 531.491 95.1231 531.821 95.8011C532.154 96.4792 532.321 97.2727 532.321 98.1818C532.321 99.0833 532.154 99.8712 531.821 100.545C531.491 101.22 531.029 101.744 530.435 102.119C529.844 102.494 529.154 102.682 528.366 102.682ZM528.366 101.477C528.965 101.477 529.457 101.324 529.844 101.017C530.23 100.71 530.516 100.307 530.702 99.8068C530.887 99.3068 530.98 98.7652 530.98 98.1818C530.98 97.5985 530.887 97.0549 530.702 96.5511C530.516 96.0473 530.23 95.6402 529.844 95.3295C529.457 95.0189 528.965 94.8636 528.366 94.8636C527.768 94.8636 527.276 95.0189 526.889 95.3295C526.503 95.6402 526.217 96.0473 526.031 96.5511C525.846 97.0549 525.753 97.5985 525.753 98.1818C525.753 98.7652 525.846 99.3068 526.031 99.8068C526.217 100.307 526.503 100.71 526.889 101.017C527.276 101.324 527.768 101.477 528.366 101.477ZM280.386 126.682C279.545 126.682 278.82 126.496 278.21 126.125C277.604 125.75 277.136 125.227 276.807 124.557C276.481 123.883 276.318 123.098 276.318 122.205C276.318 121.311 276.481 120.523 276.807 119.841C277.136 119.155 277.595 118.621 278.182 118.239C278.773 117.852 279.462 117.659 280.25 117.659C280.705 117.659 281.153 117.735 281.597 117.886C282.04 118.038 282.443 118.284 282.807 118.625C283.17 118.962 283.46 119.409 283.676 119.966C283.892 120.523 284 121.208 284 122.023V122.591H277.273V121.432H282.636C282.636 120.939 282.538 120.5 282.341 120.114C282.148 119.727 281.871 119.422 281.511 119.199C281.155 118.975 280.735 118.864 280.25 118.864C279.716 118.864 279.254 118.996 278.864 119.261C278.477 119.523 278.18 119.864 277.972 120.284C277.763 120.705 277.659 121.155 277.659 121.636V122.409C277.659 123.068 277.773 123.627 278 124.085C278.231 124.54 278.551 124.886 278.96 125.125C279.369 125.36 279.845 125.477 280.386 125.477C280.739 125.477 281.057 125.428 281.341 125.33C281.629 125.227 281.877 125.076 282.085 124.875C282.294 124.67 282.455 124.417 282.568 124.114L283.864 124.477C283.727 124.917 283.498 125.303 283.176 125.636C282.854 125.966 282.456 126.223 281.983 126.409C281.509 126.591 280.977 126.682 280.386 126.682ZM285.79 126.5V117.773H287.085V119.091H287.176C287.335 118.659 287.623 118.309 288.04 118.04C288.456 117.771 288.926 117.636 289.449 117.636C289.547 117.636 289.67 117.638 289.818 117.642C289.966 117.646 290.078 117.652 290.153 117.659V119.023C290.108 119.011 290.004 118.994 289.841 118.972C289.682 118.945 289.513 118.932 289.335 118.932C288.911 118.932 288.532 119.021 288.199 119.199C287.869 119.373 287.608 119.616 287.415 119.926C287.225 120.233 287.131 120.583 287.131 120.977V126.5H285.79ZM291.493 126.5V117.773H292.788V119.091H292.879C293.038 118.659 293.326 118.309 293.743 118.04C294.16 117.771 294.629 117.636 295.152 117.636C295.25 117.636 295.374 117.638 295.521 117.642C295.669 117.646 295.781 117.652 295.857 117.659V119.023C295.811 119.011 295.707 118.994 295.544 118.972C295.385 118.945 295.216 118.932 295.038 118.932C294.614 118.932 294.235 119.021 293.902 119.199C293.572 119.373 293.311 119.616 293.118 119.926C292.929 120.233 292.834 120.583 292.834 120.977V126.5H291.493ZM300.476 126.682C299.688 126.682 298.997 126.494 298.402 126.119C297.811 125.744 297.349 125.22 297.016 124.545C296.686 123.871 296.521 123.083 296.521 122.182C296.521 121.273 296.686 120.479 297.016 119.801C297.349 119.123 297.811 118.597 298.402 118.222C298.997 117.847 299.688 117.659 300.476 117.659C301.264 117.659 301.953 117.847 302.544 118.222C303.139 118.597 303.601 119.123 303.93 119.801C304.264 120.479 304.43 121.273 304.43 122.182C304.43 123.083 304.264 123.871 303.93 124.545C303.601 125.22 303.139 125.744 302.544 126.119C301.953 126.494 301.264 126.682 300.476 126.682ZM300.476 125.477C301.074 125.477 301.567 125.324 301.953 125.017C302.339 124.71 302.625 124.307 302.811 123.807C302.997 123.307 303.089 122.765 303.089 122.182C303.089 121.598 302.997 121.055 302.811 120.551C302.625 120.047 302.339 119.64 301.953 119.33C301.567 119.019 301.074 118.864 300.476 118.864C299.877 118.864 299.385 119.019 298.999 119.33C298.612 119.64 298.326 120.047 298.141 120.551C297.955 121.055 297.862 121.598 297.862 122.182C297.862 122.765 297.955 123.307 298.141 123.807C298.326 124.307 298.612 124.71 298.999 125.017C299.385 125.324 299.877 125.477 300.476 125.477ZM306.227 126.5V117.773H307.523V119.091H307.614C307.773 118.659 308.061 118.309 308.477 118.04C308.894 117.771 309.364 117.636 309.886 117.636C309.985 117.636 310.108 117.638 310.256 117.642C310.403 117.646 310.515 117.652 310.591 117.659V119.023C310.545 119.011 310.441 118.994 310.278 118.972C310.119 118.945 309.951 118.932 309.773 118.932C309.348 118.932 308.97 119.021 308.636 119.199C308.307 119.373 308.045 119.616 307.852 119.926C307.663 120.233 307.568 120.583 307.568 120.977V126.5H306.227ZM311.908 126.591C311.627 126.591 311.387 126.491 311.186 126.29C310.985 126.089 310.885 125.848 310.885 125.568C310.885 125.288 310.985 125.047 311.186 124.847C311.387 124.646 311.627 124.545 311.908 124.545C312.188 124.545 312.429 124.646 312.629 124.847C312.83 125.047 312.93 125.288 312.93 125.568C312.93 125.754 312.883 125.924 312.788 126.08C312.697 126.235 312.574 126.36 312.419 126.455C312.268 126.545 312.097 126.591 311.908 126.591Z" fill="#121826"/>
<path d="M28 168C25.4288 168 22.9154 168.762 20.7776 170.191C18.6398 171.619 16.9735 173.65 15.9896 176.025C15.0056 178.401 14.7482 181.014 15.2498 183.536C15.7514 186.058 16.9895 188.374 18.8076 190.192C20.6257 192.01 22.9421 193.249 25.4638 193.75C27.9856 194.252 30.5995 193.994 32.9749 193.01C35.3503 192.026 37.3807 190.36 38.8091 188.222C40.2376 186.085 41 183.571 41 181C40.9964 177.553 39.6256 174.249 37.1884 171.812C34.7512 169.374 31.4467 168.004 28 168ZM33.7075 178.708L26.7075 185.708C26.6146 185.8 26.5043 185.874 26.3829 185.925C26.2615 185.975 26.1314 186.001 26 186.001C25.8686 186.001 25.7385 185.975 25.6171 185.925C25.4957 185.874 25.3854 185.8 25.2925 185.708L22.2925 182.708C22.1049 182.52 21.9994 182.265 21.9994 182C21.9994 181.735 22.1049 181.48 22.2925 181.292C22.4801 181.105 22.7346 180.999 23 180.999C23.2654 180.999 23.5199 181.105 23.7075 181.292L26 183.586L32.2925 177.292C32.3854 177.2 32.4957 177.126 32.6171 177.076C32.7385 177.025 32.8686 176.999 33 176.999C33.1314 176.999 33.2615 177.025 33.3829 177.076C33.5043 177.126 33.6146 177.2 33.7075 177.292C33.8004 177.385 33.8741 177.496 33.9244 177.617C33.9747 177.738 34.0006 177.869 34.0006 178C34.0006 178.131 33.9747 178.262 33.9244 178.383C33.8741 178.504 33.8004 178.615 33.7075 178.708Z" fill="#4CA154"/>
<rect x="0.5" y="0.5" width="802" height="208" rx="7.5" stroke="#4CA154" stroke-opacity="0.1"/>
</svg>
