<svg width="390" height="209" viewBox="0 0 390 209" fill="none" xmlns="http://www.w3.org/2000/svg">
<rect width="390" height="209" rx="8" fill="#4CA154" fill-opacity="0.1"/>
<path d="M28 168C25.4288 168 22.9154 168.762 20.7776 170.191C18.6398 171.619 16.9735 173.65 15.9896 176.025C15.0056 178.401 14.7482 181.014 15.2498 183.536C15.7514 186.058 16.9895 188.374 18.8076 190.192C20.6257 192.01 22.9421 193.249 25.4638 193.75C27.9856 194.252 30.5995 193.994 32.9749 193.01C35.3503 192.026 37.3807 190.36 38.8091 188.222C40.2376 186.085 41 183.571 41 181C40.9964 177.553 39.6256 174.249 37.1884 171.812C34.7512 169.374 31.4467 168.004 28 168ZM33.7075 178.708L26.7075 185.708C26.6146 185.8 26.5043 185.874 26.3829 185.925C26.2615 185.975 26.1314 186.001 26 186.001C25.8686 186.001 25.7385 185.975 25.6171 185.925C25.4957 185.874 25.3854 185.8 25.2925 185.708L22.2925 182.708C22.1049 182.52 21.9994 182.265 21.9994 182C21.9994 181.735 22.1049 181.48 22.2925 181.292C22.4801 181.105 22.7346 180.999 23 180.999C23.2654 180.999 23.5199 181.105 23.7075 181.292L26 183.586L32.2925 177.292C32.3854 177.2 32.4957 177.126 32.6171 177.076C32.7385 177.025 32.8686 176.999 33 176.999C33.1314 176.999 33.2615 177.025 33.3829 177.076C33.5043 177.126 33.6146 177.2 33.7075 177.292C33.8004 177.385 33.8741 177.496 33.9244 177.617C33.9747 177.738 34.0006 177.869 34.0006 178C34.0006 178.131 33.9747 178.262 33.9244 178.383C33.8741 178.504 33.8004 178.615 33.7075 178.708Z" fill="#4CA154"/>
<path d="M39 97.7C39 96.5799 39 96.0198 39.218 95.592C39.4097 95.2157 39.7157 94.9097 40.092 94.718C40.5198 94.5 41.0799 94.5 42.2 94.5H55.8C56.9201 94.5 57.4802 94.5 57.908 94.718C58.2843 94.9097 58.5903 95.2157 58.782 95.592C59 96.0198 59 96.5799 59 97.7V111.3C59 112.42 59 112.98 58.782 113.408C58.5903 113.784 58.2843 114.09 57.908 114.282C57.4802 114.5 56.9201 114.5 55.8 114.5H42.2C41.0799 114.5 40.5198 114.5 40.092 114.282C39.7157 114.09 39.4097 113.784 39.218 113.408C39 112.98 39 112.42 39 111.3V97.7Z" fill="#217CF5"/>
<path d="M55.5306 101.531L47.5306 109.531C47.4609 109.601 47.3781 109.657 47.287 109.695C47.1958 109.732 47.0981 109.752 46.9993 109.752C46.9006 109.752 46.8029 109.732 46.7117 109.695C46.6206 109.657 46.5378 109.601 46.4681 109.531L42.9681 106.031C42.8983 105.962 42.843 105.879 42.8052 105.788C42.7675 105.696 42.748 105.599 42.748 105.5C42.748 105.401 42.7675 105.304 42.8052 105.213C42.843 105.121 42.8983 105.039 42.9681 104.969C43.0379 104.899 43.1207 104.844 43.2118 104.806C43.303 104.768 43.4007 104.749 43.4993 104.749C43.598 104.749 43.6957 104.768 43.7869 104.806C43.878 104.844 43.9608 104.899 44.0306 104.969L47 107.938L54.4693 100.47C54.6102 100.329 54.8013 100.25 55.0006 100.25C55.1999 100.25 55.391 100.329 55.5318 100.47C55.6727 100.611 55.7519 100.802 55.7519 101.001C55.7519 101.201 55.6727 101.392 55.5318 101.533L55.5306 101.531Z" fill="#FCFCFD"/>
<path d="M71.8182 98.8636V110.5H70.4091V98.8636H71.8182ZM81.0298 110.705C80.4768 110.705 79.9749 110.6 79.5241 110.392C79.0734 110.18 78.7154 109.875 78.4503 109.477C78.1851 109.076 78.0526 108.591 78.0526 108.023C78.0526 107.523 78.151 107.117 78.348 106.807C78.545 106.492 78.8082 106.246 79.1378 106.068C79.4673 105.89 79.831 105.758 80.2287 105.67C80.6302 105.58 81.0336 105.508 81.4389 105.455C81.9692 105.386 82.3991 105.335 82.7287 105.301C83.062 105.263 83.3045 105.201 83.456 105.114C83.6113 105.027 83.6889 104.875 83.6889 104.659V104.614C83.6889 104.053 83.5355 103.617 83.2287 103.307C82.9257 102.996 82.4654 102.841 81.848 102.841C81.2079 102.841 80.706 102.981 80.3423 103.261C79.9787 103.542 79.723 103.841 79.5753 104.159L78.3026 103.705C78.5298 103.174 78.8329 102.761 79.2116 102.466C79.5942 102.167 80.0109 101.958 80.4616 101.841C80.9162 101.72 81.3632 101.659 81.8026 101.659C82.0829 101.659 82.4048 101.693 82.7685 101.761C83.1359 101.826 83.4901 101.96 83.831 102.165C84.1757 102.369 84.4616 102.678 84.6889 103.091C84.9162 103.504 85.0298 104.057 85.0298 104.75V110.5H83.6889V109.318H83.6207C83.5298 109.508 83.3783 109.71 83.1662 109.926C82.9541 110.142 82.6719 110.326 82.3196 110.477C81.9673 110.629 81.5374 110.705 81.0298 110.705ZM81.2344 109.5C81.7647 109.5 82.2116 109.396 82.5753 109.188C82.9427 108.979 83.2192 108.71 83.4048 108.381C83.5942 108.051 83.6889 107.705 83.6889 107.341V106.114C83.6321 106.182 83.5071 106.244 83.3139 106.301C83.1245 106.354 82.9048 106.402 82.6548 106.443C82.4086 106.481 82.1681 106.515 81.9332 106.545C81.7022 106.572 81.5147 106.595 81.3707 106.614C81.0223 106.659 80.6965 106.733 80.3935 106.835C80.0942 106.934 79.8518 107.083 79.6662 107.284C79.4844 107.481 79.3935 107.75 79.3935 108.091C79.3935 108.557 79.5658 108.909 79.9105 109.148C80.259 109.383 80.7003 109.5 81.2344 109.5ZM90.75 113.955C90.1023 113.955 89.5455 113.871 89.0795 113.705C88.6136 113.542 88.2254 113.326 87.9148 113.057C87.608 112.792 87.3636 112.508 87.1818 112.205L88.25 111.455C88.3712 111.614 88.5246 111.795 88.7102 112C88.8958 112.208 89.1496 112.388 89.4716 112.54C89.7973 112.695 90.2235 112.773 90.75 112.773C91.4545 112.773 92.036 112.602 92.4943 112.261C92.9527 111.92 93.1818 111.386 93.1818 110.659V108.886H93.0682C92.9697 109.045 92.8295 109.242 92.6477 109.477C92.4697 109.708 92.2121 109.915 91.875 110.097C91.5417 110.275 91.0909 110.364 90.5227 110.364C89.8182 110.364 89.1856 110.197 88.625 109.864C88.0682 109.53 87.6269 109.045 87.3011 108.409C86.9792 107.773 86.8182 107 86.8182 106.091C86.8182 105.197 86.9754 104.419 87.2898 103.756C87.6042 103.089 88.0417 102.574 88.6023 102.21C89.1629 101.843 89.8106 101.659 90.5455 101.659C91.1136 101.659 91.5644 101.754 91.8977 101.943C92.2348 102.129 92.4924 102.341 92.6705 102.58C92.8523 102.814 92.9924 103.008 93.0909 103.159H93.2273V101.773H94.5227V110.75C94.5227 111.5 94.3523 112.11 94.0114 112.58C93.6742 113.053 93.2197 113.4 92.6477 113.619C92.0795 113.843 91.447 113.955 90.75 113.955ZM90.7045 109.159C91.2424 109.159 91.697 109.036 92.0682 108.79C92.4394 108.544 92.7216 108.189 92.9148 107.727C93.108 107.265 93.2045 106.712 93.2045 106.068C93.2045 105.439 93.1098 104.884 92.9205 104.403C92.7311 103.922 92.4508 103.545 92.0795 103.273C91.7083 103 91.25 102.864 90.7045 102.864C90.1364 102.864 89.6629 103.008 89.2841 103.295C88.9091 103.583 88.6269 103.97 88.4375 104.455C88.2519 104.939 88.1591 105.477 88.1591 106.068C88.1591 106.674 88.2538 107.21 88.4432 107.676C88.6364 108.138 88.9205 108.502 89.2955 108.767C89.6742 109.028 90.1439 109.159 90.7045 109.159ZM96.7273 110.5V101.773H98.0227V103.091H98.1136C98.2727 102.659 98.5606 102.309 98.9773 102.04C99.3939 101.771 99.8636 101.636 100.386 101.636C100.485 101.636 100.608 101.638 100.756 101.642C100.903 101.646 101.015 101.652 101.091 101.659V103.023C101.045 103.011 100.941 102.994 100.778 102.972C100.619 102.945 100.451 102.932 100.273 102.932C99.8485 102.932 99.4697 103.021 99.1364 103.199C98.8068 103.373 98.5455 103.616 98.3523 103.926C98.1629 104.233 98.0682 104.583 98.0682 104.977V110.5H96.7273ZM105.824 110.682C104.983 110.682 104.258 110.496 103.648 110.125C103.042 109.75 102.574 109.227 102.244 108.557C101.919 107.883 101.756 107.098 101.756 106.205C101.756 105.311 101.919 104.523 102.244 103.841C102.574 103.155 103.032 102.621 103.619 102.239C104.21 101.852 104.9 101.659 105.688 101.659C106.142 101.659 106.591 101.735 107.034 101.886C107.477 102.038 107.881 102.284 108.244 102.625C108.608 102.962 108.898 103.409 109.114 103.966C109.33 104.523 109.438 105.208 109.438 106.023V106.591H102.71V105.432H108.074C108.074 104.939 107.975 104.5 107.778 104.114C107.585 103.727 107.309 103.422 106.949 103.199C106.593 102.975 106.172 102.864 105.688 102.864C105.153 102.864 104.691 102.996 104.301 103.261C103.915 103.523 103.617 103.864 103.409 104.284C103.201 104.705 103.097 105.155 103.097 105.636V106.409C103.097 107.068 103.21 107.627 103.438 108.085C103.669 108.54 103.989 108.886 104.398 109.125C104.807 109.36 105.282 109.477 105.824 109.477C106.176 109.477 106.494 109.428 106.778 109.33C107.066 109.227 107.314 109.076 107.523 108.875C107.731 108.67 107.892 108.417 108.006 108.114L109.301 108.477C109.165 108.917 108.936 109.303 108.614 109.636C108.292 109.966 107.894 110.223 107.42 110.409C106.947 110.591 106.415 110.682 105.824 110.682ZM114.886 110.682C114.045 110.682 113.32 110.496 112.71 110.125C112.104 109.75 111.636 109.227 111.307 108.557C110.981 107.883 110.818 107.098 110.818 106.205C110.818 105.311 110.981 104.523 111.307 103.841C111.636 103.155 112.095 102.621 112.682 102.239C113.273 101.852 113.962 101.659 114.75 101.659C115.205 101.659 115.653 101.735 116.097 101.886C116.54 102.038 116.943 102.284 117.307 102.625C117.67 102.962 117.96 103.409 118.176 103.966C118.392 104.523 118.5 105.208 118.5 106.023V106.591H111.773V105.432H117.136C117.136 104.939 117.038 104.5 116.841 104.114C116.648 103.727 116.371 103.422 116.011 103.199C115.655 102.975 115.235 102.864 114.75 102.864C114.216 102.864 113.754 102.996 113.364 103.261C112.977 103.523 112.68 103.864 112.472 104.284C112.263 104.705 112.159 105.155 112.159 105.636V106.409C112.159 107.068 112.273 107.627 112.5 108.085C112.731 108.54 113.051 108.886 113.46 109.125C113.869 109.36 114.345 109.477 114.886 109.477C115.239 109.477 115.557 109.428 115.841 109.33C116.129 109.227 116.377 109.076 116.585 108.875C116.794 108.67 116.955 108.417 117.068 108.114L118.364 108.477C118.227 108.917 117.998 109.303 117.676 109.636C117.354 109.966 116.956 110.223 116.483 110.409C116.009 110.591 115.477 110.682 114.886 110.682ZM126.517 110.5L123.858 101.773H125.267L127.153 108.455H127.244L129.108 101.773H130.54L132.381 108.432H132.472L134.358 101.773H135.767L133.108 110.5H131.79L129.881 103.795H129.744L127.835 110.5H126.517ZM137.29 110.5V101.773H138.631V110.5H137.29ZM137.972 100.318C137.71 100.318 137.485 100.229 137.295 100.051C137.11 99.8731 137.017 99.6591 137.017 99.4091C137.017 99.1591 137.11 98.9451 137.295 98.767C137.485 98.589 137.71 98.5 137.972 98.5C138.233 98.5 138.456 98.589 138.642 98.767C138.831 98.9451 138.926 99.1591 138.926 99.4091C138.926 99.6591 138.831 99.8731 138.642 100.051C138.456 100.229 138.233 100.318 137.972 100.318ZM144.632 101.773V102.909H140.109V101.773H144.632ZM141.428 99.6818H142.768V108C142.768 108.379 142.823 108.663 142.933 108.852C143.047 109.038 143.191 109.163 143.365 109.227C143.543 109.288 143.731 109.318 143.928 109.318C144.075 109.318 144.196 109.311 144.291 109.295C144.386 109.277 144.462 109.261 144.518 109.25L144.791 110.455C144.7 110.489 144.573 110.523 144.411 110.557C144.248 110.595 144.041 110.614 143.791 110.614C143.412 110.614 143.041 110.532 142.678 110.369C142.318 110.206 142.018 109.958 141.78 109.625C141.545 109.292 141.428 108.871 141.428 108.364V99.6818ZM147.928 105.25V110.5H146.587V98.8636H147.928V103.136H148.041C148.246 102.686 148.553 102.328 148.962 102.062C149.375 101.794 149.924 101.659 150.609 101.659C151.204 101.659 151.725 101.778 152.172 102.017C152.619 102.252 152.965 102.614 153.212 103.102C153.462 103.587 153.587 104.205 153.587 104.955V110.5H152.246V105.045C152.246 104.352 152.066 103.816 151.706 103.438C151.35 103.055 150.856 102.864 150.223 102.864C149.784 102.864 149.39 102.956 149.041 103.142C148.696 103.328 148.424 103.598 148.223 103.955C148.026 104.311 147.928 104.742 147.928 105.25Z" fill="#121826"/>
<path d="M159.449 100.631V98.8636H168.733V100.631H165.136V110.5H163.045V100.631H159.449ZM172.78 110.67C171.905 110.67 171.149 110.489 170.513 110.125C169.88 109.758 169.393 109.239 169.053 108.568C168.712 107.894 168.541 107.1 168.541 106.188C168.541 105.29 168.712 104.502 169.053 103.824C169.397 103.142 169.878 102.612 170.496 102.233C171.113 101.85 171.839 101.659 172.672 101.659C173.21 101.659 173.717 101.746 174.195 101.92C174.676 102.091 175.1 102.356 175.467 102.716C175.839 103.076 176.13 103.534 176.342 104.091C176.554 104.644 176.661 105.303 176.661 106.068V106.699H169.507V105.312H174.689C174.685 104.919 174.6 104.568 174.433 104.261C174.267 103.951 174.034 103.706 173.734 103.528C173.439 103.35 173.094 103.261 172.7 103.261C172.28 103.261 171.911 103.364 171.592 103.568C171.274 103.769 171.026 104.034 170.848 104.364C170.674 104.689 170.585 105.047 170.581 105.438V106.648C170.581 107.155 170.674 107.591 170.859 107.955C171.045 108.314 171.304 108.591 171.638 108.784C171.971 108.973 172.361 109.068 172.808 109.068C173.107 109.068 173.378 109.027 173.621 108.943C173.863 108.856 174.073 108.729 174.251 108.562C174.429 108.396 174.564 108.189 174.655 107.943L176.575 108.159C176.454 108.667 176.223 109.11 175.882 109.489C175.545 109.864 175.113 110.155 174.587 110.364C174.06 110.568 173.458 110.67 172.78 110.67ZM178.151 110.5V101.773H180.145V103.227H180.236C180.395 102.723 180.668 102.335 181.054 102.062C181.444 101.786 181.889 101.648 182.389 101.648C182.503 101.648 182.63 101.653 182.77 101.665C182.914 101.672 183.033 101.686 183.128 101.705V103.597C183.041 103.566 182.902 103.54 182.713 103.517C182.527 103.491 182.348 103.477 182.173 103.477C181.798 103.477 181.461 103.559 181.162 103.722C180.866 103.881 180.634 104.102 180.463 104.386C180.293 104.67 180.207 104.998 180.207 105.369V110.5H178.151ZM184.244 110.5V101.773H186.21V103.256H186.312C186.494 102.756 186.795 102.366 187.216 102.085C187.636 101.801 188.138 101.659 188.722 101.659C189.312 101.659 189.811 101.803 190.216 102.091C190.625 102.375 190.913 102.763 191.08 103.256H191.17C191.364 102.771 191.689 102.384 192.148 102.097C192.61 101.805 193.157 101.659 193.79 101.659C194.593 101.659 195.248 101.913 195.756 102.42C196.263 102.928 196.517 103.669 196.517 104.642V110.5H194.455V104.96C194.455 104.419 194.311 104.023 194.023 103.773C193.735 103.519 193.383 103.392 192.966 103.392C192.47 103.392 192.081 103.547 191.801 103.858C191.525 104.165 191.386 104.564 191.386 105.057V110.5H189.369V104.875C189.369 104.424 189.233 104.064 188.96 103.795C188.691 103.527 188.339 103.392 187.903 103.392C187.608 103.392 187.339 103.468 187.097 103.619C186.854 103.767 186.661 103.977 186.517 104.25C186.373 104.519 186.301 104.833 186.301 105.193V110.5H184.244ZM205.251 104.08L203.376 104.284C203.323 104.095 203.231 103.917 203.098 103.75C202.969 103.583 202.795 103.449 202.575 103.347C202.356 103.244 202.087 103.193 201.768 103.193C201.34 103.193 200.981 103.286 200.689 103.472C200.401 103.657 200.259 103.898 200.263 104.193C200.259 104.447 200.352 104.653 200.541 104.812C200.734 104.972 201.053 105.102 201.496 105.205L202.984 105.523C203.81 105.701 204.424 105.983 204.825 106.369C205.231 106.756 205.435 107.261 205.439 107.886C205.435 108.436 205.274 108.92 204.956 109.341C204.642 109.758 204.204 110.083 203.643 110.318C203.083 110.553 202.439 110.67 201.712 110.67C200.643 110.67 199.784 110.447 199.132 110C198.481 109.549 198.092 108.922 197.967 108.119L199.973 107.926C200.064 108.32 200.257 108.617 200.553 108.818C200.848 109.019 201.232 109.119 201.706 109.119C202.195 109.119 202.587 109.019 202.882 108.818C203.181 108.617 203.331 108.369 203.331 108.074C203.331 107.824 203.234 107.617 203.041 107.455C202.852 107.292 202.556 107.167 202.155 107.08L200.666 106.767C199.829 106.593 199.21 106.299 198.808 105.886C198.407 105.47 198.208 104.943 198.212 104.307C198.208 103.769 198.354 103.303 198.649 102.909C198.948 102.511 199.363 102.205 199.893 101.989C200.428 101.769 201.043 101.659 201.74 101.659C202.763 101.659 203.568 101.877 204.155 102.312C204.746 102.748 205.111 103.337 205.251 104.08ZM214.081 110.67C213.286 110.67 212.602 110.527 212.03 110.239C211.458 109.951 211.017 109.562 210.706 109.074C210.399 108.581 210.246 108.027 210.246 107.409C210.246 106.943 210.34 106.53 210.53 106.17C210.723 105.811 210.988 105.477 211.325 105.17C211.666 104.864 212.06 104.559 212.507 104.256L214.57 102.852C214.873 102.655 215.102 102.447 215.257 102.227C215.416 102.008 215.496 101.75 215.496 101.455C215.496 101.205 215.39 100.968 215.178 100.744C214.969 100.521 214.681 100.409 214.314 100.409C214.068 100.409 213.85 100.468 213.661 100.585C213.475 100.699 213.329 100.848 213.223 101.034C213.121 101.22 213.07 101.417 213.07 101.625C213.07 101.879 213.14 102.136 213.28 102.398C213.424 102.659 213.609 102.93 213.837 103.21C214.068 103.491 214.314 103.788 214.575 104.102L220.036 110.5H217.808L213.274 105.307C212.937 104.913 212.611 104.525 212.297 104.142C211.986 103.759 211.731 103.362 211.53 102.949C211.333 102.532 211.234 102.081 211.234 101.597C211.234 101.047 211.361 100.557 211.615 100.125C211.869 99.6894 212.223 99.3466 212.678 99.0966C213.136 98.8466 213.672 98.7216 214.286 98.7216C214.899 98.7216 215.426 98.8428 215.865 99.0852C216.304 99.3277 216.643 99.6496 216.882 100.051C217.121 100.453 217.24 100.89 217.24 101.364C217.24 101.913 217.104 102.405 216.831 102.841C216.558 103.273 216.179 103.665 215.695 104.017L213.342 105.739C212.956 106.019 212.679 106.303 212.513 106.591C212.346 106.875 212.263 107.117 212.263 107.318C212.263 107.625 212.34 107.903 212.496 108.153C212.651 108.403 212.869 108.604 213.149 108.756C213.433 108.903 213.765 108.977 214.143 108.977C214.56 108.977 214.971 108.884 215.376 108.699C215.782 108.509 216.151 108.241 216.484 107.892C216.818 107.544 217.083 107.127 217.28 106.642C217.477 106.153 217.575 105.612 217.575 105.017H219.342C219.342 105.752 219.261 106.392 219.098 106.938C218.935 107.479 218.725 107.938 218.467 108.312C218.21 108.684 217.937 108.981 217.649 109.205C217.558 109.269 217.471 109.333 217.388 109.398C217.304 109.462 217.217 109.527 217.126 109.591C216.717 109.962 216.238 110.235 215.689 110.409C215.143 110.583 214.607 110.67 214.081 110.67ZM234.733 102.79H232.608C232.547 102.441 232.436 102.133 232.273 101.864C232.11 101.591 231.907 101.36 231.665 101.17C231.422 100.981 231.146 100.839 230.835 100.744C230.528 100.646 230.197 100.597 229.841 100.597C229.208 100.597 228.648 100.756 228.159 101.074C227.67 101.388 227.288 101.85 227.011 102.46C226.735 103.066 226.597 103.807 226.597 104.682C226.597 105.572 226.735 106.322 227.011 106.932C227.292 107.538 227.674 107.996 228.159 108.307C228.648 108.614 229.206 108.767 229.835 108.767C230.184 108.767 230.509 108.722 230.812 108.631C231.119 108.536 231.394 108.398 231.636 108.216C231.883 108.034 232.089 107.811 232.256 107.545C232.426 107.28 232.544 106.977 232.608 106.636L234.733 106.648C234.653 107.201 234.481 107.72 234.216 108.205C233.955 108.689 233.612 109.117 233.188 109.489C232.763 109.856 232.267 110.144 231.699 110.352C231.131 110.557 230.5 110.659 229.807 110.659C228.784 110.659 227.871 110.422 227.068 109.949C226.265 109.475 225.633 108.792 225.17 107.898C224.708 107.004 224.477 105.932 224.477 104.682C224.477 103.428 224.71 102.356 225.176 101.466C225.642 100.572 226.277 99.8883 227.08 99.4148C227.883 98.9413 228.792 98.7045 229.807 98.7045C230.455 98.7045 231.057 98.7955 231.614 98.9773C232.17 99.1591 232.667 99.4261 233.102 99.7784C233.538 100.127 233.896 100.555 234.176 101.062C234.46 101.566 234.646 102.142 234.733 102.79ZM240.129 110.67C239.277 110.67 238.538 110.483 237.913 110.108C237.288 109.733 236.804 109.208 236.459 108.534C236.118 107.86 235.947 107.072 235.947 106.17C235.947 105.269 236.118 104.479 236.459 103.801C236.804 103.123 237.288 102.597 237.913 102.222C238.538 101.847 239.277 101.659 240.129 101.659C240.982 101.659 241.72 101.847 242.345 102.222C242.97 102.597 243.453 103.123 243.794 103.801C244.139 104.479 244.311 105.269 244.311 106.17C244.311 107.072 244.139 107.86 243.794 108.534C243.453 109.208 242.97 109.733 242.345 110.108C241.72 110.483 240.982 110.67 240.129 110.67ZM240.141 109.023C240.603 109.023 240.989 108.896 241.3 108.642C241.61 108.384 241.841 108.04 241.993 107.608C242.148 107.176 242.226 106.695 242.226 106.165C242.226 105.631 242.148 105.148 241.993 104.716C241.841 104.28 241.61 103.934 241.3 103.676C240.989 103.419 240.603 103.29 240.141 103.29C239.667 103.29 239.273 103.419 238.959 103.676C238.648 103.934 238.415 104.28 238.26 104.716C238.108 105.148 238.033 105.631 238.033 106.165C238.033 106.695 238.108 107.176 238.26 107.608C238.415 108.04 238.648 108.384 238.959 108.642C239.273 108.896 239.667 109.023 240.141 109.023ZM247.864 105.386V110.5H245.807V101.773H247.773V103.256H247.875C248.076 102.767 248.396 102.379 248.835 102.091C249.278 101.803 249.826 101.659 250.477 101.659C251.08 101.659 251.604 101.788 252.051 102.045C252.502 102.303 252.85 102.676 253.097 103.165C253.347 103.653 253.47 104.246 253.466 104.943V110.5H251.409V105.261C251.409 104.678 251.258 104.222 250.955 103.892C250.655 103.562 250.241 103.398 249.71 103.398C249.35 103.398 249.03 103.477 248.75 103.636C248.473 103.792 248.256 104.017 248.097 104.312C247.941 104.608 247.864 104.966 247.864 105.386ZM258.545 110.653C257.86 110.653 257.246 110.477 256.705 110.125C256.163 109.773 255.735 109.261 255.42 108.591C255.106 107.92 254.949 107.106 254.949 106.148C254.949 105.178 255.108 104.36 255.426 103.693C255.748 103.023 256.182 102.517 256.727 102.176C257.273 101.831 257.881 101.659 258.551 101.659C259.063 101.659 259.483 101.746 259.812 101.92C260.142 102.091 260.403 102.297 260.597 102.54C260.79 102.778 260.939 103.004 261.045 103.216H261.131V98.8636H263.193V110.5H261.17V109.125H261.045C260.939 109.337 260.786 109.562 260.585 109.801C260.384 110.036 260.119 110.237 259.79 110.403C259.46 110.57 259.045 110.653 258.545 110.653ZM259.119 108.966C259.555 108.966 259.926 108.848 260.233 108.614C260.54 108.375 260.773 108.044 260.932 107.619C261.091 107.195 261.17 106.701 261.17 106.136C261.17 105.572 261.091 105.081 260.932 104.665C260.777 104.248 260.545 103.924 260.239 103.693C259.936 103.462 259.563 103.347 259.119 103.347C258.661 103.347 258.278 103.466 257.972 103.705C257.665 103.943 257.434 104.273 257.278 104.693C257.123 105.114 257.045 105.595 257.045 106.136C257.045 106.682 257.123 107.169 257.278 107.597C257.438 108.021 257.67 108.356 257.977 108.602C258.288 108.845 258.669 108.966 259.119 108.966ZM265.135 110.5V101.773H267.192V110.5H265.135ZM266.169 100.534C265.843 100.534 265.563 100.426 265.328 100.21C265.093 99.9905 264.976 99.7273 264.976 99.4205C264.976 99.1098 265.093 98.8466 265.328 98.6307C265.563 98.411 265.843 98.3011 266.169 98.3011C266.499 98.3011 266.779 98.411 267.01 98.6307C267.245 98.8466 267.362 99.1098 267.362 99.4205C267.362 99.7273 267.245 99.9905 267.01 100.21C266.779 100.426 266.499 100.534 266.169 100.534ZM273.415 101.773V103.364H268.398V101.773H273.415ZM269.636 99.6818H271.693V107.875C271.693 108.152 271.735 108.364 271.818 108.511C271.905 108.655 272.019 108.754 272.159 108.807C272.299 108.86 272.455 108.886 272.625 108.886C272.754 108.886 272.871 108.877 272.977 108.858C273.087 108.839 273.17 108.822 273.227 108.807L273.574 110.415C273.464 110.453 273.307 110.494 273.102 110.54C272.902 110.585 272.655 110.612 272.364 110.619C271.848 110.634 271.384 110.557 270.972 110.386C270.559 110.212 270.231 109.943 269.989 109.58C269.75 109.216 269.633 108.761 269.636 108.216V99.6818ZM274.885 110.5V101.773H276.942V110.5H274.885ZM275.919 100.534C275.593 100.534 275.313 100.426 275.078 100.21C274.843 99.9905 274.726 99.7273 274.726 99.4205C274.726 99.1098 274.843 98.8466 275.078 98.6307C275.313 98.411 275.593 98.3011 275.919 98.3011C276.249 98.3011 276.529 98.411 276.76 98.6307C276.995 98.8466 277.112 99.1098 277.112 99.4205C277.112 99.7273 276.995 99.9905 276.76 100.21C276.529 100.426 276.249 100.534 275.919 100.534ZM282.614 110.67C281.761 110.67 281.023 110.483 280.398 110.108C279.773 109.733 279.288 109.208 278.943 108.534C278.602 107.86 278.432 107.072 278.432 106.17C278.432 105.269 278.602 104.479 278.943 103.801C279.288 103.123 279.773 102.597 280.398 102.222C281.023 101.847 281.761 101.659 282.614 101.659C283.466 101.659 284.205 101.847 284.83 102.222C285.455 102.597 285.938 103.123 286.278 103.801C286.623 104.479 286.795 105.269 286.795 106.17C286.795 107.072 286.623 107.86 286.278 108.534C285.938 109.208 285.455 109.733 284.83 110.108C284.205 110.483 283.466 110.67 282.614 110.67ZM282.625 109.023C283.087 109.023 283.473 108.896 283.784 108.642C284.095 108.384 284.326 108.04 284.477 107.608C284.633 107.176 284.71 106.695 284.71 106.165C284.71 105.631 284.633 105.148 284.477 104.716C284.326 104.28 284.095 103.934 283.784 103.676C283.473 103.419 283.087 103.29 282.625 103.29C282.152 103.29 281.758 103.419 281.443 103.676C281.133 103.934 280.9 104.28 280.744 104.716C280.593 105.148 280.517 105.631 280.517 106.165C280.517 106.695 280.593 107.176 280.744 107.608C280.9 108.04 281.133 108.384 281.443 108.642C281.758 108.896 282.152 109.023 282.625 109.023ZM290.348 105.386V110.5H288.291V101.773H290.257V103.256H290.359C290.56 102.767 290.88 102.379 291.32 102.091C291.763 101.803 292.31 101.659 292.962 101.659C293.564 101.659 294.089 101.788 294.536 102.045C294.986 102.303 295.335 102.676 295.581 103.165C295.831 103.653 295.954 104.246 295.95 104.943V110.5H293.893V105.261C293.893 104.678 293.742 104.222 293.439 103.892C293.14 103.562 292.725 103.398 292.195 103.398C291.835 103.398 291.515 103.477 291.234 103.636C290.958 103.792 290.74 104.017 290.581 104.312C290.426 104.608 290.348 104.966 290.348 105.386ZM304.689 104.08L302.814 104.284C302.761 104.095 302.668 103.917 302.536 103.75C302.407 103.583 302.232 103.449 302.013 103.347C301.793 103.244 301.524 103.193 301.206 103.193C300.778 103.193 300.418 103.286 300.126 103.472C299.839 103.657 299.696 103.898 299.7 104.193C299.696 104.447 299.789 104.653 299.979 104.812C300.172 104.972 300.49 105.102 300.933 105.205L302.422 105.523C303.248 105.701 303.861 105.983 304.263 106.369C304.668 106.756 304.873 107.261 304.876 107.886C304.873 108.436 304.712 108.92 304.393 109.341C304.079 109.758 303.642 110.083 303.081 110.318C302.52 110.553 301.876 110.67 301.149 110.67C300.081 110.67 299.221 110.447 298.57 110C297.918 109.549 297.53 108.922 297.405 108.119L299.411 107.926C299.501 108.32 299.695 108.617 299.99 108.818C300.286 109.019 300.67 109.119 301.143 109.119C301.632 109.119 302.024 109.019 302.32 108.818C302.619 108.617 302.768 108.369 302.768 108.074C302.768 107.824 302.672 107.617 302.479 107.455C302.289 107.292 301.994 107.167 301.592 107.08L300.104 106.767C299.267 106.593 298.647 106.299 298.246 105.886C297.844 105.47 297.645 104.943 297.649 104.307C297.645 103.769 297.791 103.303 298.087 102.909C298.386 102.511 298.801 102.205 299.331 101.989C299.865 101.769 300.481 101.659 301.178 101.659C302.2 101.659 303.005 101.877 303.592 102.312C304.183 102.748 304.549 103.337 304.689 104.08Z" fill="white"/>
<path d="M158.812 113.682H305.518V114.773H158.812V113.682Z" fill="white"/>
<rect x="0.5" y="0.5" width="389" height="208" rx="7.5" stroke="#4CA154" stroke-opacity="0.1"/>
</svg>
