<svg width="390" height="209" viewBox="0 0 390 209" fill="none" xmlns="http://www.w3.org/2000/svg">
<rect width="390" height="209" rx="8" fill="#CA3A31" fill-opacity="0.1"/>
<rect x="0.5" y="0.5" width="389" height="208" rx="7.5" stroke="#CA3A31" stroke-opacity="0.1"/>
<path d="M41.5994 188.511L30.6681 169.528C30.395 169.062 30.005 168.677 29.5369 168.409C29.0688 168.141 28.5388 168 27.9994 168C27.46 168 26.93 168.141 26.4619 168.409C25.9938 168.677 25.6038 169.062 25.3306 169.528L14.3994 188.511C14.1366 188.961 13.998 189.473 13.998 189.994C13.998 190.515 14.1366 191.026 14.3994 191.476C14.6691 191.944 15.0584 192.332 15.5273 192.6C15.9963 192.868 16.5281 193.006 17.0681 193H38.9306C39.4702 193.005 40.0015 192.867 40.47 192.599C40.9385 192.331 41.3274 191.944 41.5969 191.476C41.8601 191.027 41.999 190.515 41.9995 189.994C41.9999 189.473 41.8618 188.961 41.5994 188.511ZM26.9994 178C26.9994 177.735 27.1047 177.481 27.2923 177.293C27.4798 177.105 27.7342 177 27.9994 177C28.2646 177 28.519 177.105 28.7065 177.293C28.894 177.481 28.9994 177.735 28.9994 178V183C28.9994 183.265 28.894 183.52 28.7065 183.707C28.519 183.895 28.2646 184 27.9994 184C27.7342 184 27.4798 183.895 27.2923 183.707C27.1047 183.52 26.9994 183.265 26.9994 183V178ZM27.9994 189C27.7027 189 27.4127 188.912 27.166 188.747C26.9194 188.582 26.7271 188.348 26.6136 188.074C26.5 187.8 26.4703 187.498 26.5282 187.207C26.5861 186.916 26.7289 186.649 26.9387 186.439C27.1485 186.23 27.4158 186.087 27.7068 186.029C27.9977 185.971 28.2993 186.001 28.5734 186.114C28.8475 186.228 29.0818 186.42 29.2466 186.667C29.4114 186.913 29.4994 187.203 29.4994 187.5C29.4994 187.898 29.3414 188.279 29.06 188.561C28.7787 188.842 28.3972 189 27.9994 189Z" fill="#CA3A31"/>
<path d="M39 85.7C39 84.5799 39 84.0198 39.218 83.592C39.4097 83.2157 39.7157 82.9097 40.092 82.718C40.5198 82.5 41.0799 82.5 42.2 82.5H55.8C56.9201 82.5 57.4802 82.5 57.908 82.718C58.2843 82.9097 58.5903 83.2157 58.782 83.592C59 84.0198 59 84.5799 59 85.7V99.3C59 100.42 59 100.98 58.782 101.408C58.5903 101.784 58.2843 102.09 57.908 102.282C57.4802 102.5 56.9201 102.5 55.8 102.5H42.2C41.0799 102.5 40.5198 102.5 40.092 102.282C39.7157 102.09 39.4097 101.784 39.218 101.408C39 100.98 39 100.42 39 99.3V85.7Z" fill="#217CF5"/>
<path d="M55.5306 89.5313L47.5306 97.5313C47.4609 97.6012 47.3781 97.6567 47.287 97.6946C47.1958 97.7324 47.0981 97.7519 46.9993 97.7519C46.9006 97.7519 46.8029 97.7324 46.7117 97.6946C46.6206 97.6567 46.5378 97.6012 46.4681 97.5313L42.9681 94.0313C42.8983 93.9615 42.843 93.8787 42.8052 93.7876C42.7675 93.6964 42.748 93.5987 42.748 93.5001C42.748 93.4014 42.7675 93.3037 42.8052 93.2125C42.843 93.1214 42.8983 93.0386 42.9681 92.9688C43.0379 92.899 43.1207 92.8437 43.2118 92.8059C43.303 92.7682 43.4007 92.7487 43.4993 92.7487C43.598 92.7487 43.6957 92.7682 43.7869 92.8059C43.878 92.8437 43.9608 92.899 44.0306 92.9688L47 95.9382L54.4693 88.4701C54.6102 88.3292 54.8013 88.25 55.0006 88.25C55.1999 88.25 55.391 88.3292 55.5318 88.4701C55.6727 88.6109 55.7519 88.802 55.7519 89.0013C55.7519 89.2006 55.6727 89.3917 55.5318 89.5326L55.5306 89.5313Z" fill="#FCFCFD"/>
<path d="M71.8182 86.8636V98.5H70.4091V86.8636H71.8182ZM81.7571 98.6818C81.0298 98.6818 80.3878 98.4981 79.831 98.1307C79.2741 97.7595 78.8385 97.2367 78.5241 96.5625C78.2098 95.8845 78.0526 95.0833 78.0526 94.1591C78.0526 93.2424 78.2098 92.447 78.5241 91.7727C78.8385 91.0985 79.276 90.5777 79.8366 90.2102C80.3973 89.8428 81.045 89.6591 81.7798 89.6591C82.348 89.6591 82.7969 89.7538 83.1264 89.9432C83.4598 90.1288 83.7135 90.3409 83.8878 90.5795C84.0658 90.8144 84.2041 91.0076 84.3026 91.1591H84.4162V86.8636H85.7571V98.5H84.4616V97.1591H84.3026C84.2041 97.3182 84.0639 97.5189 83.8821 97.7614C83.7003 98 83.4408 98.214 83.1037 98.4034C82.7666 98.589 82.3177 98.6818 81.7571 98.6818ZM81.9389 97.4773C82.4768 97.4773 82.9313 97.3371 83.3026 97.0568C83.6738 96.7727 83.956 96.3807 84.1491 95.8807C84.3423 95.3769 84.4389 94.7955 84.4389 94.1364C84.4389 93.4848 84.3442 92.9148 84.1548 92.4261C83.9654 91.9337 83.6851 91.5511 83.3139 91.2784C82.9427 91.0019 82.4844 90.8636 81.9389 90.8636C81.3707 90.8636 80.8973 91.0095 80.5185 91.3011C80.1435 91.589 79.8613 91.9811 79.6719 92.4773C79.4863 92.9697 79.3935 93.5227 79.3935 94.1364C79.3935 94.7576 79.4882 95.322 79.6776 95.8295C79.8707 96.3333 80.1548 96.7348 80.5298 97.0341C80.9086 97.3295 81.3783 97.4773 81.9389 97.4773ZM91.6946 98.6818C90.9067 98.6818 90.2154 98.4943 89.6207 98.1193C89.0298 97.7443 88.5677 97.2197 88.2344 96.5455C87.9048 95.8712 87.7401 95.0833 87.7401 94.1818C87.7401 93.2727 87.9048 92.4792 88.2344 91.8011C88.5677 91.1231 89.0298 90.5966 89.6207 90.2216C90.2154 89.8466 90.9067 89.6591 91.6946 89.6591C92.4825 89.6591 93.1719 89.8466 93.7628 90.2216C94.3575 90.5966 94.8196 91.1231 95.1491 91.8011C95.4825 92.4792 95.6491 93.2727 95.6491 94.1818C95.6491 95.0833 95.4825 95.8712 95.1491 96.5455C94.8196 97.2197 94.3575 97.7443 93.7628 98.1193C93.1719 98.4943 92.4825 98.6818 91.6946 98.6818ZM91.6946 97.4773C92.2931 97.4773 92.7855 97.3239 93.1719 97.017C93.5582 96.7102 93.8442 96.3068 94.0298 95.8068C94.2154 95.3068 94.3082 94.7652 94.3082 94.1818C94.3082 93.5985 94.2154 93.0549 94.0298 92.5511C93.8442 92.0473 93.5582 91.6402 93.1719 91.3295C92.7855 91.0189 92.2931 90.8636 91.6946 90.8636C91.0961 90.8636 90.6037 91.0189 90.2173 91.3295C89.831 91.6402 89.545 92.0473 89.3594 92.5511C89.1738 93.0549 89.081 93.5985 89.081 94.1818C89.081 94.7652 89.1738 95.3068 89.3594 95.8068C89.545 96.3068 89.831 96.7102 90.2173 97.017C90.6037 97.3239 91.0961 97.4773 91.6946 97.4773ZM103.037 93.25V98.5H101.696V89.7727H102.991V91.1364H103.105C103.31 90.6932 103.62 90.3371 104.037 90.0682C104.454 89.7955 104.991 89.6591 105.651 89.6591C106.241 89.6591 106.759 89.7803 107.202 90.0227C107.645 90.2614 107.99 90.625 108.236 91.1136C108.482 91.5985 108.605 92.2121 108.605 92.9545V98.5H107.264V93.0455C107.264 92.3598 107.086 91.8258 106.73 91.4432C106.374 91.0568 105.885 90.8636 105.264 90.8636C104.836 90.8636 104.454 90.9564 104.116 91.142C103.783 91.3277 103.52 91.5985 103.327 91.9545C103.134 92.3106 103.037 92.7424 103.037 93.25ZM114.351 98.6818C113.563 98.6818 112.872 98.4943 112.277 98.1193C111.686 97.7443 111.224 97.2197 110.891 96.5455C110.561 95.8712 110.396 95.0833 110.396 94.1818C110.396 93.2727 110.561 92.4792 110.891 91.8011C111.224 91.1231 111.686 90.5966 112.277 90.2216C112.872 89.8466 113.563 89.6591 114.351 89.6591C115.139 89.6591 115.828 89.8466 116.419 90.2216C117.014 90.5966 117.476 91.1231 117.805 91.8011C118.139 92.4792 118.305 93.2727 118.305 94.1818C118.305 95.0833 118.139 95.8712 117.805 96.5455C117.476 97.2197 117.014 97.7443 116.419 98.1193C115.828 98.4943 115.139 98.6818 114.351 98.6818ZM114.351 97.4773C114.949 97.4773 115.442 97.3239 115.828 97.017C116.214 96.7102 116.5 96.3068 116.686 95.8068C116.872 95.3068 116.964 94.7652 116.964 94.1818C116.964 93.5985 116.872 93.0549 116.686 92.5511C116.5 92.0473 116.214 91.6402 115.828 91.3295C115.442 91.0189 114.949 90.8636 114.351 90.8636C113.752 90.8636 113.26 91.0189 112.874 91.3295C112.487 91.6402 112.201 92.0473 112.016 92.5511C111.83 93.0549 111.737 93.5985 111.737 94.1818C111.737 94.7652 111.83 95.3068 112.016 95.8068C112.201 96.3068 112.487 96.7102 112.874 97.017C113.26 97.3239 113.752 97.4773 114.351 97.4773ZM123.898 89.7727V90.9091H119.375V89.7727H123.898ZM120.693 87.6818H122.034V96C122.034 96.3788 122.089 96.6629 122.199 96.8523C122.313 97.0379 122.456 97.1629 122.631 97.2273C122.809 97.2879 122.996 97.3182 123.193 97.3182C123.341 97.3182 123.462 97.3106 123.557 97.2955C123.652 97.2765 123.727 97.2614 123.784 97.25L124.057 98.4545C123.966 98.4886 123.839 98.5227 123.676 98.5568C123.513 98.5947 123.307 98.6136 123.057 98.6136C122.678 98.6136 122.307 98.5322 121.943 98.3693C121.583 98.2064 121.284 97.9583 121.045 97.625C120.811 97.2917 120.693 96.8712 120.693 96.3636V87.6818ZM132.483 98.7045C131.93 98.7045 131.428 98.6004 130.977 98.392C130.527 98.1799 130.169 97.875 129.903 97.4773C129.638 97.0758 129.506 96.5909 129.506 96.0227C129.506 95.5227 129.604 95.1174 129.801 94.8068C129.998 94.4924 130.261 94.2462 130.591 94.0682C130.92 93.8902 131.284 93.7576 131.682 93.6705C132.083 93.5795 132.487 93.5076 132.892 93.4545C133.422 93.3864 133.852 93.3352 134.182 93.3011C134.515 93.2633 134.758 93.2008 134.909 93.1136C135.064 93.0265 135.142 92.875 135.142 92.6591V92.6136C135.142 92.053 134.989 91.6174 134.682 91.3068C134.379 90.9962 133.919 90.8409 133.301 90.8409C132.661 90.8409 132.159 90.9811 131.795 91.2614C131.432 91.5417 131.176 91.8409 131.028 92.1591L129.756 91.7045C129.983 91.1742 130.286 90.7614 130.665 90.4659C131.047 90.1667 131.464 89.9583 131.915 89.8409C132.369 89.7197 132.816 89.6591 133.256 89.6591C133.536 89.6591 133.858 89.6932 134.222 89.7614C134.589 89.8258 134.943 89.9602 135.284 90.1648C135.629 90.3693 135.915 90.678 136.142 91.0909C136.369 91.5038 136.483 92.0568 136.483 92.75V98.5H135.142V97.3182H135.074C134.983 97.5076 134.831 97.7102 134.619 97.9261C134.407 98.142 134.125 98.3258 133.773 98.4773C133.42 98.6288 132.991 98.7045 132.483 98.7045ZM132.688 97.5C133.218 97.5 133.665 97.3958 134.028 97.1875C134.396 96.9792 134.672 96.7102 134.858 96.3807C135.047 96.0511 135.142 95.7045 135.142 95.3409V94.1136C135.085 94.1818 134.96 94.2443 134.767 94.3011C134.578 94.3542 134.358 94.4015 134.108 94.4432C133.862 94.4811 133.621 94.5152 133.386 94.5455C133.155 94.572 132.968 94.5947 132.824 94.6136C132.475 94.6591 132.15 94.733 131.847 94.8352C131.547 94.9337 131.305 95.0833 131.119 95.2841C130.938 95.4811 130.847 95.75 130.847 96.0909C130.847 96.5568 131.019 96.9091 131.364 97.1477C131.712 97.3826 132.153 97.5 132.688 97.5ZM142.203 101.955C141.555 101.955 140.999 101.871 140.533 101.705C140.067 101.542 139.679 101.326 139.368 101.057C139.061 100.792 138.817 100.508 138.635 100.205L139.703 99.4545C139.824 99.6136 139.978 99.7955 140.163 100C140.349 100.208 140.603 100.388 140.925 100.54C141.25 100.695 141.677 100.773 142.203 100.773C142.908 100.773 143.489 100.602 143.947 100.261C144.406 99.9205 144.635 99.3864 144.635 98.6591V96.8864H144.521C144.423 97.0455 144.283 97.2424 144.101 97.4773C143.923 97.7083 143.665 97.9148 143.328 98.0966C142.995 98.2746 142.544 98.3636 141.976 98.3636C141.271 98.3636 140.639 98.197 140.078 97.8636C139.521 97.5303 139.08 97.0455 138.754 96.4091C138.432 95.7727 138.271 95 138.271 94.0909C138.271 93.197 138.429 92.4186 138.743 91.7557C139.057 91.089 139.495 90.5739 140.055 90.2102C140.616 89.8428 141.264 89.6591 141.999 89.6591C142.567 89.6591 143.018 89.7538 143.351 89.9432C143.688 90.1288 143.946 90.3409 144.124 90.5795C144.305 90.8144 144.446 91.0076 144.544 91.1591H144.68V89.7727H145.976V98.75C145.976 99.5 145.805 100.11 145.464 100.58C145.127 101.053 144.673 101.4 144.101 101.619C143.533 101.843 142.9 101.955 142.203 101.955ZM142.158 97.1591C142.696 97.1591 143.15 97.036 143.521 96.7898C143.893 96.5436 144.175 96.1894 144.368 95.7273C144.561 95.2652 144.658 94.7121 144.658 94.0682C144.658 93.4394 144.563 92.8845 144.374 92.4034C144.184 91.9223 143.904 91.5455 143.533 91.2727C143.161 91 142.703 90.8636 142.158 90.8636C141.589 90.8636 141.116 91.0076 140.737 91.2955C140.362 91.5833 140.08 91.9697 139.891 92.4545C139.705 92.9394 139.612 93.4773 139.612 94.0682C139.612 94.6742 139.707 95.2102 139.896 95.6761C140.089 96.1383 140.374 96.5019 140.749 96.767C141.127 97.0284 141.597 97.1591 142.158 97.1591ZM148.18 98.5V89.7727H149.476V91.0909H149.567C149.726 90.6591 150.014 90.3087 150.43 90.0398C150.847 89.7708 151.317 89.6364 151.839 89.6364C151.938 89.6364 152.061 89.6383 152.209 89.642C152.357 89.6458 152.468 89.6515 152.544 89.6591V91.0227C152.499 91.0114 152.394 90.9943 152.232 90.9716C152.072 90.9451 151.904 90.9318 151.726 90.9318C151.302 90.9318 150.923 91.0208 150.589 91.1989C150.26 91.3731 149.999 91.6155 149.805 91.9261C149.616 92.233 149.521 92.5833 149.521 92.9773V98.5H148.18ZM157.277 98.6818C156.436 98.6818 155.711 98.4962 155.101 98.125C154.495 97.75 154.027 97.2273 153.697 96.5568C153.372 95.8826 153.209 95.0985 153.209 94.2045C153.209 93.3106 153.372 92.5227 153.697 91.8409C154.027 91.1553 154.485 90.6212 155.072 90.2386C155.663 89.8523 156.353 89.6591 157.141 89.6591C157.595 89.6591 158.044 89.7348 158.487 89.8864C158.93 90.0379 159.334 90.2841 159.697 90.625C160.061 90.9621 160.351 91.4091 160.567 91.9659C160.783 92.5227 160.891 93.2083 160.891 94.0227V94.5909H154.163V93.4318H159.527C159.527 92.9394 159.429 92.5 159.232 92.1136C159.038 91.7273 158.762 91.4223 158.402 91.1989C158.046 90.9754 157.625 90.8636 157.141 90.8636C156.607 90.8636 156.144 90.9962 155.754 91.2614C155.368 91.5227 155.071 91.8636 154.862 92.2841C154.654 92.7045 154.55 93.1553 154.55 93.6364V94.4091C154.55 95.0682 154.663 95.6269 154.891 96.0852C155.122 96.5398 155.442 96.8864 155.851 97.125C156.26 97.3598 156.735 97.4773 157.277 97.4773C157.629 97.4773 157.947 97.428 158.232 97.3295C158.519 97.2273 158.768 97.0758 158.976 96.875C159.184 96.6705 159.345 96.4167 159.459 96.1136L160.754 96.4773C160.618 96.9167 160.389 97.303 160.067 97.6364C159.745 97.9659 159.347 98.2235 158.874 98.4091C158.4 98.5909 157.868 98.6818 157.277 98.6818ZM166.339 98.6818C165.499 98.6818 164.773 98.4962 164.163 98.125C163.557 97.75 163.089 97.2273 162.76 96.5568C162.434 95.8826 162.271 95.0985 162.271 94.2045C162.271 93.3106 162.434 92.5227 162.76 91.8409C163.089 91.1553 163.548 90.6212 164.135 90.2386C164.726 89.8523 165.415 89.6591 166.203 89.6591C166.658 89.6591 167.107 89.7348 167.55 89.8864C167.993 90.0379 168.396 90.2841 168.76 90.625C169.124 90.9621 169.413 91.4091 169.629 91.9659C169.845 92.5227 169.953 93.2083 169.953 94.0227V94.5909H163.226V93.4318H168.589C168.589 92.9394 168.491 92.5 168.294 92.1136C168.101 91.7273 167.824 91.4223 167.464 91.1989C167.108 90.9754 166.688 90.8636 166.203 90.8636C165.669 90.8636 165.207 90.9962 164.817 91.2614C164.43 91.5227 164.133 91.8636 163.925 92.2841C163.716 92.7045 163.612 93.1553 163.612 93.6364V94.4091C163.612 95.0682 163.726 95.6269 163.953 96.0852C164.184 96.5398 164.504 96.8864 164.913 97.125C165.322 97.3598 165.798 97.4773 166.339 97.4773C166.692 97.4773 167.01 97.428 167.294 97.3295C167.582 97.2273 167.83 97.0758 168.038 96.875C168.247 96.6705 168.408 96.4167 168.521 96.1136L169.817 96.4773C169.68 96.9167 169.451 97.303 169.129 97.6364C168.807 97.9659 168.41 98.2235 167.936 98.4091C167.463 98.5909 166.93 98.6818 166.339 98.6818ZM177.97 98.5L175.311 89.7727H176.72L178.607 96.4545H178.697L180.561 89.7727H181.993L183.834 96.4318H183.925L185.811 89.7727H187.22L184.561 98.5H183.243L181.334 91.7955H181.197L179.288 98.5H177.97ZM188.743 98.5V89.7727H190.084V98.5H188.743ZM189.425 88.3182C189.163 88.3182 188.938 88.2292 188.749 88.0511C188.563 87.8731 188.47 87.6591 188.47 87.4091C188.47 87.1591 188.563 86.9451 188.749 86.767C188.938 86.589 189.163 86.5 189.425 86.5C189.686 86.5 189.91 86.589 190.095 86.767C190.285 86.9451 190.379 87.1591 190.379 87.4091C190.379 87.6591 190.285 87.8731 190.095 88.0511C189.91 88.2292 189.686 88.3182 189.425 88.3182ZM196.085 89.7727V90.9091H191.562V89.7727H196.085ZM192.881 87.6818H194.222V96C194.222 96.3788 194.277 96.6629 194.386 96.8523C194.5 97.0379 194.644 97.1629 194.818 97.2273C194.996 97.2879 195.184 97.3182 195.381 97.3182C195.528 97.3182 195.65 97.3106 195.744 97.2955C195.839 97.2765 195.915 97.2614 195.972 97.25L196.244 98.4545C196.153 98.4886 196.027 98.5227 195.864 98.5568C195.701 98.5947 195.494 98.6136 195.244 98.6136C194.866 98.6136 194.494 98.5322 194.131 98.3693C193.771 98.2064 193.472 97.9583 193.233 97.625C192.998 97.2917 192.881 96.8712 192.881 96.3636V87.6818ZM199.381 93.25V98.5H198.04V86.8636H199.381V91.1364H199.494C199.699 90.6856 200.006 90.3277 200.415 90.0625C200.828 89.7936 201.377 89.6591 202.062 89.6591C202.657 89.6591 203.178 89.7784 203.625 90.017C204.072 90.2519 204.419 90.6136 204.665 91.1023C204.915 91.5871 205.04 92.2045 205.04 92.9545V98.5H203.699V93.0455C203.699 92.3523 203.519 91.8163 203.159 91.4375C202.803 91.0549 202.309 90.8636 201.676 90.8636C201.237 90.8636 200.843 90.9564 200.494 91.142C200.15 91.3277 199.877 91.5985 199.676 91.9545C199.479 92.3106 199.381 92.7424 199.381 93.25Z" fill="#121826"/>
<path d="M210.902 88.6307V86.8636H220.186V88.6307H216.589V98.5H214.499V88.6307H210.902ZM224.233 98.6705C223.358 98.6705 222.602 98.4886 221.966 98.125C221.333 97.7576 220.847 97.2386 220.506 96.5682C220.165 95.8939 219.994 95.1004 219.994 94.1875C219.994 93.2898 220.165 92.5019 220.506 91.8239C220.85 91.142 221.331 90.6117 221.949 90.233C222.566 89.8504 223.292 89.6591 224.125 89.6591C224.663 89.6591 225.17 89.7462 225.648 89.9205C226.129 90.0909 226.553 90.3561 226.92 90.7159C227.292 91.0758 227.583 91.5341 227.795 92.0909C228.008 92.6439 228.114 93.303 228.114 94.0682V94.6989H220.96V93.3125H226.142C226.138 92.9186 226.053 92.5682 225.886 92.2614C225.72 91.9508 225.487 91.7064 225.188 91.5284C224.892 91.3504 224.547 91.2614 224.153 91.2614C223.733 91.2614 223.364 91.3636 223.045 91.5682C222.727 91.7689 222.479 92.0341 222.301 92.3636C222.127 92.6894 222.038 93.0473 222.034 93.4375V94.6477C222.034 95.1553 222.127 95.5909 222.312 95.9545C222.498 96.3144 222.758 96.5909 223.091 96.7841C223.424 96.9735 223.814 97.0682 224.261 97.0682C224.561 97.0682 224.831 97.0265 225.074 96.9432C225.316 96.8561 225.527 96.7292 225.705 96.5625C225.883 96.3958 226.017 96.1894 226.108 95.9432L228.028 96.1591C227.907 96.6667 227.676 97.1098 227.335 97.4886C226.998 97.8636 226.566 98.1553 226.04 98.3636C225.513 98.5682 224.911 98.6705 224.233 98.6705ZM229.604 98.5V89.7727H231.598V91.2273H231.689C231.848 90.7235 232.121 90.3352 232.507 90.0625C232.897 89.786 233.342 89.6477 233.842 89.6477C233.956 89.6477 234.083 89.6534 234.223 89.6648C234.367 89.6723 234.486 89.6856 234.581 89.7045V91.5966C234.494 91.5663 234.356 91.5398 234.166 91.517C233.981 91.4905 233.801 91.4773 233.626 91.4773C233.251 91.4773 232.914 91.5587 232.615 91.7216C232.32 91.8807 232.087 92.1023 231.916 92.3864C231.746 92.6705 231.661 92.9981 231.661 93.3693V98.5H229.604ZM235.697 98.5V89.7727H237.663V91.2557H237.766C237.947 90.7557 238.249 90.3655 238.669 90.0852C239.089 89.8011 239.591 89.6591 240.175 89.6591C240.766 89.6591 241.264 89.803 241.669 90.0909C242.078 90.375 242.366 90.7633 242.533 91.2557H242.624C242.817 90.7708 243.143 90.3845 243.601 90.0966C244.063 89.8049 244.61 89.6591 245.243 89.6591C246.046 89.6591 246.701 89.9129 247.209 90.4205C247.716 90.928 247.97 91.6686 247.97 92.642V98.5H245.908V92.9602C245.908 92.4186 245.764 92.0227 245.476 91.7727C245.188 91.5189 244.836 91.392 244.419 91.392C243.923 91.392 243.535 91.5473 243.254 91.858C242.978 92.1648 242.839 92.5644 242.839 93.0568V98.5H240.822V92.875C240.822 92.4242 240.686 92.0644 240.413 91.7955C240.144 91.5265 239.792 91.392 239.357 91.392C239.061 91.392 238.792 91.4678 238.55 91.6193C238.307 91.767 238.114 91.9773 237.97 92.25C237.826 92.5189 237.754 92.8333 237.754 93.1932V98.5H235.697ZM256.705 92.0795L254.83 92.2841C254.777 92.0947 254.684 91.9167 254.551 91.75C254.422 91.5833 254.248 91.4489 254.028 91.3466C253.809 91.2443 253.54 91.1932 253.222 91.1932C252.794 91.1932 252.434 91.286 252.142 91.4716C251.854 91.6572 251.712 91.8977 251.716 92.1932C251.712 92.447 251.805 92.6534 251.994 92.8125C252.188 92.9716 252.506 93.1023 252.949 93.2045L254.438 93.5227C255.263 93.7008 255.877 93.983 256.278 94.3693C256.684 94.7557 256.888 95.2614 256.892 95.8864C256.888 96.4356 256.727 96.9205 256.409 97.3409C256.095 97.7576 255.657 98.0833 255.097 98.3182C254.536 98.553 253.892 98.6705 253.165 98.6705C252.097 98.6705 251.237 98.447 250.585 98C249.934 97.5492 249.545 96.9223 249.42 96.1193L251.426 95.9261C251.517 96.3201 251.71 96.6174 252.006 96.8182C252.301 97.0189 252.686 97.1193 253.159 97.1193C253.648 97.1193 254.04 97.0189 254.335 96.8182C254.634 96.6174 254.784 96.3693 254.784 96.0739C254.784 95.8239 254.688 95.6174 254.494 95.4545C254.305 95.2917 254.009 95.1667 253.608 95.0795L252.119 94.767C251.282 94.5928 250.663 94.2992 250.261 93.8864C249.86 93.4697 249.661 92.9432 249.665 92.3068C249.661 91.7689 249.807 91.303 250.102 90.9091C250.402 90.5114 250.816 90.2045 251.347 89.9886C251.881 89.7689 252.496 89.6591 253.193 89.6591C254.216 89.6591 255.021 89.8769 255.608 90.3125C256.199 90.7481 256.564 91.3371 256.705 92.0795ZM265.534 98.6705C264.739 98.6705 264.055 98.5265 263.483 98.2386C262.911 97.9508 262.47 97.5625 262.159 97.0739C261.852 96.5814 261.699 96.0265 261.699 95.4091C261.699 94.9432 261.794 94.5303 261.983 94.1705C262.176 93.8106 262.441 93.4773 262.778 93.1705C263.119 92.8636 263.513 92.5587 263.96 92.2557L266.023 90.8523C266.326 90.6553 266.555 90.447 266.71 90.2273C266.869 90.0076 266.949 89.75 266.949 89.4545C266.949 89.2045 266.843 88.9678 266.631 88.7443C266.422 88.5208 266.134 88.4091 265.767 88.4091C265.521 88.4091 265.303 88.4678 265.114 88.5852C264.928 88.6989 264.782 88.8485 264.676 89.0341C264.574 89.2197 264.523 89.4167 264.523 89.625C264.523 89.8788 264.593 90.1364 264.733 90.3977C264.877 90.6591 265.063 90.9299 265.29 91.2102C265.521 91.4905 265.767 91.7879 266.028 92.1023L271.489 98.5H269.261L264.727 93.3068C264.39 92.9129 264.064 92.5246 263.75 92.142C263.439 91.7595 263.184 91.3617 262.983 90.9489C262.786 90.5322 262.688 90.0814 262.688 89.5966C262.688 89.0473 262.814 88.5568 263.068 88.125C263.322 87.6894 263.676 87.3466 264.131 87.0966C264.589 86.8466 265.125 86.7216 265.739 86.7216C266.352 86.7216 266.879 86.8428 267.318 87.0852C267.758 87.3277 268.097 87.6496 268.335 88.0511C268.574 88.4527 268.693 88.8902 268.693 89.3636C268.693 89.9129 268.557 90.4053 268.284 90.8409C268.011 91.2727 267.633 91.6648 267.148 92.017L264.795 93.7386C264.409 94.0189 264.133 94.303 263.966 94.5909C263.799 94.875 263.716 95.1174 263.716 95.3182C263.716 95.625 263.794 95.9034 263.949 96.1534C264.104 96.4034 264.322 96.6042 264.602 96.7557C264.886 96.9034 265.218 96.9773 265.597 96.9773C266.013 96.9773 266.424 96.8845 266.83 96.6989C267.235 96.5095 267.604 96.2405 267.938 95.892C268.271 95.5436 268.536 95.1269 268.733 94.642C268.93 94.1534 269.028 93.6117 269.028 93.017H270.795C270.795 93.7519 270.714 94.392 270.551 94.9375C270.388 95.4792 270.178 95.9375 269.92 96.3125C269.663 96.6837 269.39 96.9811 269.102 97.2045C269.011 97.2689 268.924 97.3333 268.841 97.3977C268.758 97.4621 268.67 97.5265 268.58 97.5909C268.17 97.9621 267.691 98.2348 267.142 98.4091C266.597 98.5833 266.061 98.6705 265.534 98.6705ZM80.108 114.79H77.983C77.9223 114.441 77.8106 114.133 77.6477 113.864C77.4848 113.591 77.2822 113.36 77.0398 113.17C76.7973 112.981 76.5208 112.839 76.2102 112.744C75.9034 112.646 75.572 112.597 75.2159 112.597C74.5833 112.597 74.0227 112.756 73.5341 113.074C73.0455 113.388 72.6629 113.85 72.3864 114.46C72.1098 115.066 71.9716 115.807 71.9716 116.682C71.9716 117.572 72.1098 118.322 72.3864 118.932C72.6667 119.538 73.0492 119.996 73.5341 120.307C74.0227 120.614 74.5814 120.767 75.2102 120.767C75.5587 120.767 75.8845 120.722 76.1875 120.631C76.4943 120.536 76.7689 120.398 77.0114 120.216C77.2576 120.034 77.464 119.811 77.6307 119.545C77.8011 119.28 77.9186 118.977 77.983 118.636L80.108 118.648C80.0284 119.201 79.8561 119.72 79.5909 120.205C79.3295 120.689 78.9867 121.117 78.5625 121.489C78.1383 121.856 77.642 122.144 77.0739 122.352C76.5057 122.557 75.875 122.659 75.1818 122.659C74.1591 122.659 73.2462 122.422 72.4432 121.949C71.6402 121.475 71.0076 120.792 70.5455 119.898C70.0833 119.004 69.8523 117.932 69.8523 116.682C69.8523 115.428 70.0852 114.356 70.5511 113.466C71.017 112.572 71.6515 111.888 72.4545 111.415C73.2576 110.941 74.1667 110.705 75.1818 110.705C75.8295 110.705 76.4318 110.795 76.9886 110.977C77.5455 111.159 78.0417 111.426 78.4773 111.778C78.9129 112.127 79.2708 112.555 79.5511 113.062C79.8352 113.566 80.0208 114.142 80.108 114.79ZM85.5043 122.67C84.652 122.67 83.9134 122.483 83.2884 122.108C82.6634 121.733 82.1785 121.208 81.8338 120.534C81.4929 119.86 81.3224 119.072 81.3224 118.17C81.3224 117.269 81.4929 116.479 81.8338 115.801C82.1785 115.123 82.6634 114.597 83.2884 114.222C83.9134 113.847 84.652 113.659 85.5043 113.659C86.3565 113.659 87.0952 113.847 87.7202 114.222C88.3452 114.597 88.8281 115.123 89.169 115.801C89.5137 116.479 89.6861 117.269 89.6861 118.17C89.6861 119.072 89.5137 119.86 89.169 120.534C88.8281 121.208 88.3452 121.733 87.7202 122.108C87.0952 122.483 86.3565 122.67 85.5043 122.67ZM85.5156 121.023C85.9777 121.023 86.3641 120.896 86.6747 120.642C86.9853 120.384 87.2164 120.04 87.3679 119.608C87.5232 119.176 87.6009 118.695 87.6009 118.165C87.6009 117.631 87.5232 117.148 87.3679 116.716C87.2164 116.28 86.9853 115.934 86.6747 115.676C86.3641 115.419 85.9777 115.29 85.5156 115.29C85.0421 115.29 84.6482 115.419 84.3338 115.676C84.0232 115.934 83.7902 116.28 83.6349 116.716C83.4834 117.148 83.4077 117.631 83.4077 118.165C83.4077 118.695 83.4834 119.176 83.6349 119.608C83.7902 120.04 84.0232 120.384 84.3338 120.642C84.6482 120.896 85.0421 121.023 85.5156 121.023ZM93.2386 117.386V122.5H91.1818V113.773H93.1477V115.256H93.25C93.4508 114.767 93.7708 114.379 94.2102 114.091C94.6534 113.803 95.2008 113.659 95.8523 113.659C96.4545 113.659 96.9792 113.788 97.4261 114.045C97.8769 114.303 98.2254 114.676 98.4716 115.165C98.7216 115.653 98.8447 116.246 98.8409 116.943V122.5H96.7841V117.261C96.7841 116.678 96.6326 116.222 96.3295 115.892C96.0303 115.562 95.6155 115.398 95.0852 115.398C94.7254 115.398 94.4053 115.477 94.125 115.636C93.8485 115.792 93.6307 116.017 93.4716 116.312C93.3163 116.608 93.2386 116.966 93.2386 117.386ZM103.92 122.653C103.235 122.653 102.621 122.477 102.08 122.125C101.538 121.773 101.11 121.261 100.795 120.591C100.481 119.92 100.324 119.106 100.324 118.148C100.324 117.178 100.483 116.36 100.801 115.693C101.123 115.023 101.557 114.517 102.102 114.176C102.648 113.831 103.256 113.659 103.926 113.659C104.438 113.659 104.858 113.746 105.188 113.92C105.517 114.091 105.778 114.297 105.972 114.54C106.165 114.778 106.314 115.004 106.42 115.216H106.506V110.864H108.568V122.5H106.545V121.125H106.42C106.314 121.337 106.161 121.562 105.96 121.801C105.759 122.036 105.494 122.237 105.165 122.403C104.835 122.57 104.42 122.653 103.92 122.653ZM104.494 120.966C104.93 120.966 105.301 120.848 105.608 120.614C105.915 120.375 106.148 120.044 106.307 119.619C106.466 119.195 106.545 118.701 106.545 118.136C106.545 117.572 106.466 117.081 106.307 116.665C106.152 116.248 105.92 115.924 105.614 115.693C105.311 115.462 104.938 115.347 104.494 115.347C104.036 115.347 103.653 115.466 103.347 115.705C103.04 115.943 102.809 116.273 102.653 116.693C102.498 117.114 102.42 117.595 102.42 118.136C102.42 118.682 102.498 119.169 102.653 119.597C102.813 120.021 103.045 120.356 103.352 120.602C103.663 120.845 104.044 120.966 104.494 120.966ZM110.51 122.5V113.773H112.567V122.5H110.51ZM111.544 112.534C111.218 112.534 110.938 112.426 110.703 112.21C110.468 111.991 110.351 111.727 110.351 111.42C110.351 111.11 110.468 110.847 110.703 110.631C110.938 110.411 111.218 110.301 111.544 110.301C111.874 110.301 112.154 110.411 112.385 110.631C112.62 110.847 112.737 111.11 112.737 111.42C112.737 111.727 112.62 111.991 112.385 112.21C112.154 112.426 111.874 112.534 111.544 112.534ZM118.79 113.773V115.364H113.773V113.773H118.79ZM115.011 111.682H117.068V119.875C117.068 120.152 117.11 120.364 117.193 120.511C117.28 120.655 117.394 120.754 117.534 120.807C117.674 120.86 117.83 120.886 118 120.886C118.129 120.886 118.246 120.877 118.352 120.858C118.462 120.839 118.545 120.822 118.602 120.807L118.949 122.415C118.839 122.453 118.682 122.494 118.477 122.54C118.277 122.585 118.03 122.612 117.739 122.619C117.223 122.634 116.759 122.557 116.347 122.386C115.934 122.212 115.606 121.943 115.364 121.58C115.125 121.216 115.008 120.761 115.011 120.216V111.682ZM120.26 122.5V113.773H122.317V122.5H120.26ZM121.294 112.534C120.968 112.534 120.688 112.426 120.453 112.21C120.218 111.991 120.101 111.727 120.101 111.42C120.101 111.11 120.218 110.847 120.453 110.631C120.688 110.411 120.968 110.301 121.294 110.301C121.624 110.301 121.904 110.411 122.135 110.631C122.37 110.847 122.487 111.11 122.487 111.42C122.487 111.727 122.37 111.991 122.135 112.21C121.904 112.426 121.624 112.534 121.294 112.534ZM127.989 122.67C127.136 122.67 126.398 122.483 125.773 122.108C125.148 121.733 124.663 121.208 124.318 120.534C123.977 119.86 123.807 119.072 123.807 118.17C123.807 117.269 123.977 116.479 124.318 115.801C124.663 115.123 125.148 114.597 125.773 114.222C126.398 113.847 127.136 113.659 127.989 113.659C128.841 113.659 129.58 113.847 130.205 114.222C130.83 114.597 131.313 115.123 131.653 115.801C131.998 116.479 132.17 117.269 132.17 118.17C132.17 119.072 131.998 119.86 131.653 120.534C131.313 121.208 130.83 121.733 130.205 122.108C129.58 122.483 128.841 122.67 127.989 122.67ZM128 121.023C128.462 121.023 128.848 120.896 129.159 120.642C129.47 120.384 129.701 120.04 129.852 119.608C130.008 119.176 130.085 118.695 130.085 118.165C130.085 117.631 130.008 117.148 129.852 116.716C129.701 116.28 129.47 115.934 129.159 115.676C128.848 115.419 128.462 115.29 128 115.29C127.527 115.29 127.133 115.419 126.818 115.676C126.508 115.934 126.275 116.28 126.119 116.716C125.968 117.148 125.892 117.631 125.892 118.165C125.892 118.695 125.968 119.176 126.119 119.608C126.275 120.04 126.508 120.384 126.818 120.642C127.133 120.896 127.527 121.023 128 121.023ZM135.723 117.386V122.5H133.666V113.773H135.632V115.256H135.734C135.935 114.767 136.255 114.379 136.695 114.091C137.138 113.803 137.685 113.659 138.337 113.659C138.939 113.659 139.464 113.788 139.911 114.045C140.361 114.303 140.71 114.676 140.956 115.165C141.206 115.653 141.329 116.246 141.325 116.943V122.5H139.268V117.261C139.268 116.678 139.117 116.222 138.814 115.892C138.515 115.562 138.1 115.398 137.57 115.398C137.21 115.398 136.89 115.477 136.609 115.636C136.333 115.792 136.115 116.017 135.956 116.312C135.801 116.608 135.723 116.966 135.723 117.386ZM150.064 116.08L148.189 116.284C148.136 116.095 148.043 115.917 147.911 115.75C147.782 115.583 147.607 115.449 147.388 115.347C147.168 115.244 146.899 115.193 146.581 115.193C146.153 115.193 145.793 115.286 145.501 115.472C145.214 115.657 145.071 115.898 145.075 116.193C145.071 116.447 145.164 116.653 145.354 116.812C145.547 116.972 145.865 117.102 146.308 117.205L147.797 117.523C148.623 117.701 149.236 117.983 149.638 118.369C150.043 118.756 150.248 119.261 150.251 119.886C150.248 120.436 150.087 120.92 149.768 121.341C149.454 121.758 149.017 122.083 148.456 122.318C147.895 122.553 147.251 122.67 146.524 122.67C145.456 122.67 144.596 122.447 143.945 122C143.293 121.549 142.905 120.922 142.78 120.119L144.786 119.926C144.876 120.32 145.07 120.617 145.365 120.818C145.661 121.019 146.045 121.119 146.518 121.119C147.007 121.119 147.399 121.019 147.695 120.818C147.994 120.617 148.143 120.369 148.143 120.074C148.143 119.824 148.047 119.617 147.854 119.455C147.664 119.292 147.369 119.167 146.967 119.08L145.479 118.767C144.642 118.593 144.022 118.299 143.621 117.886C143.219 117.47 143.02 116.943 143.024 116.307C143.02 115.769 143.166 115.303 143.462 114.909C143.761 114.511 144.176 114.205 144.706 113.989C145.24 113.769 145.856 113.659 146.553 113.659C147.575 113.659 148.38 113.877 148.967 114.312C149.558 114.748 149.924 115.337 150.064 116.08Z" fill="#217CF5"/>
<path d="M210.266 101.682H271.352V102.773H210.266V101.682ZM69 125.682H150.893V126.773H69V125.682Z" fill="#217CF5"/>
</svg>
