<svg width="795" height="241" viewBox="0 0 795 241" fill="none" xmlns="http://www.w3.org/2000/svg">
<rect width="795" height="241" rx="8" fill="#CA3A31" fill-opacity="0.1"/>
<path d="M41.5994 220.511L30.6681 201.528C30.395 201.062 30.005 200.677 29.5369 200.409C29.0688 200.141 28.5388 200 27.9994 200C27.46 200 26.93 200.141 26.4619 200.409C25.9938 200.677 25.6038 201.062 25.3306 201.528L14.3994 220.511C14.1366 220.961 13.998 221.473 13.998 221.994C13.998 222.515 14.1366 223.026 14.3994 223.476C14.6691 223.944 15.0584 224.332 15.5273 224.6C15.9963 224.868 16.5281 225.006 17.0681 225H38.9306C39.4702 225.005 40.0015 224.867 40.47 224.599C40.9385 224.331 41.3274 223.944 41.5969 223.476C41.8601 223.027 41.999 222.515 41.9995 221.994C41.9999 221.473 41.8618 220.961 41.5994 220.511ZM26.9994 210C26.9994 209.735 27.1047 209.481 27.2923 209.293C27.4798 209.105 27.7342 209 27.9994 209C28.2646 209 28.519 209.105 28.7065 209.293C28.894 209.481 28.9994 209.735 28.9994 210V215C28.9994 215.265 28.894 215.52 28.7065 215.707C28.519 215.895 28.2646 216 27.9994 216C27.7342 216 27.4798 215.895 27.2923 215.707C27.1047 215.52 26.9994 215.265 26.9994 215V210ZM27.9994 221C27.7027 221 27.4127 220.912 27.166 220.747C26.9194 220.582 26.7271 220.348 26.6136 220.074C26.5 219.8 26.4703 219.498 26.5282 219.207C26.5861 218.916 26.7289 218.649 26.9387 218.439C27.1485 218.23 27.4158 218.087 27.7068 218.029C27.9977 217.971 28.2993 218.001 28.5734 218.114C28.8475 218.228 29.0818 218.42 29.2466 218.667C29.4114 218.913 29.4994 219.203 29.4994 219.5C29.4994 219.898 29.3414 220.279 29.06 220.561C28.7787 220.842 28.3972 221 27.9994 221Z" fill="#CA3A31"/>
<path d="M75.5 113.7C75.5 112.58 75.5 112.02 75.718 111.592C75.9097 111.216 76.2157 110.91 76.592 110.718C77.0198 110.5 77.5799 110.5 78.7 110.5H92.3C93.4201 110.5 93.9802 110.5 94.408 110.718C94.7843 110.91 95.0903 111.216 95.282 111.592C95.5 112.02 95.5 112.58 95.5 113.7V127.3C95.5 128.42 95.5 128.98 95.282 129.408C95.0903 129.784 94.7843 130.09 94.408 130.282C93.9802 130.5 93.4201 130.5 92.3 130.5H78.7C77.5799 130.5 77.0198 130.5 76.592 130.282C76.2157 130.09 75.9097 129.784 75.718 129.408C75.5 128.98 75.5 128.42 75.5 127.3V113.7Z" fill="#217CF5"/>
<path d="M92.0306 117.531L84.0306 125.531C83.9609 125.601 83.8781 125.657 83.787 125.695C83.6958 125.732 83.5981 125.752 83.4993 125.752C83.4006 125.752 83.3029 125.732 83.2117 125.695C83.1206 125.657 83.0378 125.601 82.9681 125.531L79.4681 122.031C79.3983 121.962 79.343 121.879 79.3052 121.788C79.2675 121.696 79.248 121.599 79.248 121.5C79.248 121.401 79.2675 121.304 79.3052 121.213C79.343 121.121 79.3983 121.039 79.4681 120.969C79.5379 120.899 79.6207 120.844 79.7118 120.806C79.803 120.768 79.9007 120.749 79.9993 120.749C80.098 120.749 80.1957 120.768 80.2869 120.806C80.378 120.844 80.4608 120.899 80.5306 120.969L83.5 123.938L90.9693 116.47C91.1102 116.329 91.3013 116.25 91.5006 116.25C91.6999 116.25 91.891 116.329 92.0318 116.47C92.1727 116.611 92.2519 116.802 92.2519 117.001C92.2519 117.201 92.1727 117.392 92.0318 117.533L92.0306 117.531Z" fill="#FCFCFD"/>
<path d="M113.273 105.773C113.205 105.197 112.928 104.75 112.443 104.432C111.958 104.114 111.364 103.955 110.659 103.955C110.144 103.955 109.693 104.038 109.307 104.205C108.924 104.371 108.625 104.6 108.409 104.892C108.197 105.184 108.091 105.515 108.091 105.886C108.091 106.197 108.165 106.464 108.312 106.688C108.464 106.907 108.657 107.091 108.892 107.239C109.127 107.383 109.373 107.502 109.631 107.597C109.888 107.687 110.125 107.761 110.341 107.818L111.523 108.136C111.826 108.216 112.163 108.326 112.534 108.466C112.909 108.606 113.267 108.797 113.608 109.04C113.953 109.278 114.237 109.585 114.46 109.96C114.684 110.335 114.795 110.795 114.795 111.341C114.795 111.97 114.631 112.538 114.301 113.045C113.975 113.553 113.498 113.956 112.869 114.256C112.244 114.555 111.485 114.705 110.591 114.705C109.758 114.705 109.036 114.57 108.426 114.301C107.82 114.032 107.343 113.657 106.994 113.176C106.65 112.695 106.455 112.136 106.409 111.5H107.864C107.902 111.939 108.049 112.303 108.307 112.591C108.568 112.875 108.898 113.087 109.295 113.227C109.697 113.364 110.129 113.432 110.591 113.432C111.129 113.432 111.612 113.345 112.04 113.17C112.468 112.992 112.807 112.746 113.057 112.432C113.307 112.114 113.432 111.742 113.432 111.318C113.432 110.932 113.324 110.617 113.108 110.375C112.892 110.133 112.608 109.936 112.256 109.784C111.903 109.633 111.523 109.5 111.114 109.386L109.682 108.977C108.773 108.716 108.053 108.343 107.523 107.858C106.992 107.373 106.727 106.739 106.727 105.955C106.727 105.303 106.903 104.735 107.256 104.25C107.612 103.761 108.089 103.383 108.688 103.114C109.29 102.841 109.962 102.705 110.705 102.705C111.455 102.705 112.121 102.839 112.705 103.108C113.288 103.373 113.75 103.737 114.091 104.199C114.436 104.661 114.617 105.186 114.636 105.773H113.273ZM120.339 114.682C119.499 114.682 118.773 114.496 118.163 114.125C117.557 113.75 117.089 113.227 116.76 112.557C116.434 111.883 116.271 111.098 116.271 110.205C116.271 109.311 116.434 108.523 116.76 107.841C117.089 107.155 117.548 106.621 118.135 106.239C118.726 105.852 119.415 105.659 120.203 105.659C120.658 105.659 121.107 105.735 121.55 105.886C121.993 106.038 122.396 106.284 122.76 106.625C123.124 106.962 123.413 107.409 123.629 107.966C123.845 108.523 123.953 109.208 123.953 110.023V110.591H117.226V109.432H122.589C122.589 108.939 122.491 108.5 122.294 108.114C122.101 107.727 121.824 107.422 121.464 107.199C121.108 106.975 120.688 106.864 120.203 106.864C119.669 106.864 119.207 106.996 118.817 107.261C118.43 107.523 118.133 107.864 117.925 108.284C117.716 108.705 117.612 109.155 117.612 109.636V110.409C117.612 111.068 117.726 111.627 117.953 112.085C118.184 112.54 118.504 112.886 118.913 113.125C119.322 113.36 119.798 113.477 120.339 113.477C120.692 113.477 121.01 113.428 121.294 113.33C121.582 113.227 121.83 113.076 122.038 112.875C122.247 112.67 122.408 112.417 122.521 112.114L123.817 112.477C123.68 112.917 123.451 113.303 123.129 113.636C122.807 113.966 122.41 114.223 121.936 114.409C121.463 114.591 120.93 114.682 120.339 114.682ZM131.697 117.773V113.159H131.584C131.485 113.318 131.345 113.519 131.163 113.761C130.982 114 130.722 114.214 130.385 114.403C130.048 114.589 129.599 114.682 129.038 114.682C128.311 114.682 127.669 114.498 127.112 114.131C126.555 113.759 126.12 113.237 125.805 112.562C125.491 111.884 125.334 111.083 125.334 110.159C125.334 109.242 125.491 108.447 125.805 107.773C126.12 107.098 126.557 106.578 127.118 106.21C127.679 105.843 128.326 105.659 129.061 105.659C129.629 105.659 130.078 105.754 130.408 105.943C130.741 106.129 130.995 106.341 131.169 106.58C131.347 106.814 131.485 107.008 131.584 107.159H131.743V105.773H133.038V117.773H131.697ZM129.22 113.477C129.758 113.477 130.213 113.337 130.584 113.057C130.955 112.773 131.237 112.381 131.43 111.881C131.624 111.377 131.72 110.795 131.72 110.136C131.72 109.485 131.625 108.915 131.436 108.426C131.247 107.934 130.966 107.551 130.595 107.278C130.224 107.002 129.766 106.864 129.22 106.864C128.652 106.864 128.179 107.009 127.8 107.301C127.425 107.589 127.143 107.981 126.953 108.477C126.768 108.97 126.675 109.523 126.675 110.136C126.675 110.758 126.769 111.322 126.959 111.83C127.152 112.333 127.436 112.735 127.811 113.034C128.19 113.33 128.66 113.477 129.22 113.477ZM140.743 110.932V105.773H142.084V114.5H140.743V113.023H140.652C140.447 113.466 140.129 113.843 139.697 114.153C139.266 114.46 138.72 114.614 138.061 114.614C137.516 114.614 137.031 114.494 136.607 114.256C136.182 114.013 135.849 113.65 135.607 113.165C135.364 112.676 135.243 112.061 135.243 111.318V105.773H136.584V111.227C136.584 111.864 136.762 112.371 137.118 112.75C137.478 113.129 137.936 113.318 138.493 113.318C138.826 113.318 139.165 113.233 139.51 113.062C139.858 112.892 140.15 112.631 140.385 112.278C140.624 111.926 140.743 111.477 140.743 110.932ZM144.29 114.5V105.773H145.631V114.5H144.29ZM144.972 104.318C144.71 104.318 144.485 104.229 144.295 104.051C144.11 103.873 144.017 103.659 144.017 103.409C144.017 103.159 144.11 102.945 144.295 102.767C144.485 102.589 144.71 102.5 144.972 102.5C145.233 102.5 145.456 102.589 145.642 102.767C145.831 102.945 145.926 103.159 145.926 103.409C145.926 103.659 145.831 103.873 145.642 104.051C145.456 104.229 145.233 104.318 144.972 104.318ZM153.428 109.25V114.5H152.087V105.773H153.382V107.136H153.496C153.7 106.693 154.011 106.337 154.428 106.068C154.844 105.795 155.382 105.659 156.041 105.659C156.632 105.659 157.149 105.78 157.592 106.023C158.036 106.261 158.38 106.625 158.626 107.114C158.873 107.598 158.996 108.212 158.996 108.955V114.5H157.655V109.045C157.655 108.36 157.477 107.826 157.121 107.443C156.765 107.057 156.276 106.864 155.655 106.864C155.227 106.864 154.844 106.956 154.507 107.142C154.174 107.328 153.911 107.598 153.717 107.955C153.524 108.311 153.428 108.742 153.428 109.25ZM164.741 114.682C163.954 114.682 163.262 114.494 162.668 114.119C162.077 113.744 161.615 113.22 161.281 112.545C160.952 111.871 160.787 111.083 160.787 110.182C160.787 109.273 160.952 108.479 161.281 107.801C161.615 107.123 162.077 106.597 162.668 106.222C163.262 105.847 163.954 105.659 164.741 105.659C165.529 105.659 166.219 105.847 166.81 106.222C167.404 106.597 167.866 107.123 168.196 107.801C168.529 108.479 168.696 109.273 168.696 110.182C168.696 111.083 168.529 111.871 168.196 112.545C167.866 113.22 167.404 113.744 166.81 114.119C166.219 114.494 165.529 114.682 164.741 114.682ZM164.741 113.477C165.34 113.477 165.832 113.324 166.219 113.017C166.605 112.71 166.891 112.307 167.077 111.807C167.262 111.307 167.355 110.765 167.355 110.182C167.355 109.598 167.262 109.055 167.077 108.551C166.891 108.047 166.605 107.64 166.219 107.33C165.832 107.019 165.34 106.864 164.741 106.864C164.143 106.864 163.651 107.019 163.264 107.33C162.878 107.64 162.592 108.047 162.406 108.551C162.221 109.055 162.128 109.598 162.128 110.182C162.128 110.765 162.221 111.307 162.406 111.807C162.592 112.307 162.878 112.71 163.264 113.017C163.651 113.324 164.143 113.477 164.741 113.477ZM171.834 109.25V114.5H170.493V105.773H171.788V107.136H171.902C172.107 106.693 172.417 106.337 172.834 106.068C173.25 105.795 173.788 105.659 174.447 105.659C175.038 105.659 175.555 105.78 175.999 106.023C176.442 106.261 176.786 106.625 177.033 107.114C177.279 107.598 177.402 108.212 177.402 108.955V114.5H176.061V109.045C176.061 108.36 175.883 107.826 175.527 107.443C175.171 107.057 174.682 106.864 174.061 106.864C173.633 106.864 173.25 106.956 172.913 107.142C172.58 107.328 172.317 107.598 172.124 107.955C171.93 108.311 171.834 108.742 171.834 109.25ZM187.398 114.682C186.61 114.682 185.919 114.494 185.324 114.119C184.733 113.744 184.271 113.22 183.938 112.545C183.608 111.871 183.443 111.083 183.443 110.182C183.443 109.273 183.608 108.479 183.938 107.801C184.271 107.123 184.733 106.597 185.324 106.222C185.919 105.847 186.61 105.659 187.398 105.659C188.186 105.659 188.875 105.847 189.466 106.222C190.061 106.597 190.523 107.123 190.852 107.801C191.186 108.479 191.352 109.273 191.352 110.182C191.352 111.083 191.186 111.871 190.852 112.545C190.523 113.22 190.061 113.744 189.466 114.119C188.875 114.494 188.186 114.682 187.398 114.682ZM187.398 113.477C187.996 113.477 188.489 113.324 188.875 113.017C189.261 112.71 189.547 112.307 189.733 111.807C189.919 111.307 190.011 110.765 190.011 110.182C190.011 109.598 189.919 109.055 189.733 108.551C189.547 108.047 189.261 107.64 188.875 107.33C188.489 107.019 187.996 106.864 187.398 106.864C186.799 106.864 186.307 107.019 185.92 107.33C185.534 107.64 185.248 108.047 185.062 108.551C184.877 109.055 184.784 109.598 184.784 110.182C184.784 110.765 184.877 111.307 185.062 111.807C185.248 112.307 185.534 112.71 185.92 113.017C186.307 113.324 186.799 113.477 187.398 113.477ZM193.149 114.5V105.773H194.445V107.136H194.558C194.74 106.67 195.034 106.309 195.439 106.051C195.844 105.79 196.331 105.659 196.899 105.659C197.475 105.659 197.954 105.79 198.337 106.051C198.723 106.309 199.024 106.67 199.24 107.136H199.331C199.554 106.686 199.89 106.328 200.337 106.062C200.784 105.794 201.32 105.659 201.945 105.659C202.725 105.659 203.363 105.903 203.859 106.392C204.356 106.877 204.604 107.633 204.604 108.659V114.5H203.263V108.659C203.263 108.015 203.087 107.555 202.734 107.278C202.382 107.002 201.967 106.864 201.49 106.864C200.876 106.864 200.401 107.049 200.064 107.42C199.727 107.788 199.558 108.254 199.558 108.818V114.5H198.195V108.523C198.195 108.027 198.034 107.627 197.712 107.324C197.39 107.017 196.975 106.864 196.467 106.864C196.119 106.864 195.793 106.956 195.49 107.142C195.191 107.328 194.948 107.585 194.763 107.915C194.581 108.241 194.49 108.617 194.49 109.045V114.5H193.149ZM208.146 109.25V114.5H206.805V105.773H208.101V107.136H208.214C208.419 106.693 208.73 106.337 209.146 106.068C209.563 105.795 210.101 105.659 210.76 105.659C211.351 105.659 211.868 105.78 212.311 106.023C212.754 106.261 213.099 106.625 213.345 107.114C213.591 107.598 213.714 108.212 213.714 108.955V114.5H212.374V109.045C212.374 108.36 212.196 107.826 211.839 107.443C211.483 107.057 210.995 106.864 210.374 106.864C209.946 106.864 209.563 106.956 209.226 107.142C208.893 107.328 208.629 107.598 208.436 107.955C208.243 108.311 208.146 108.742 208.146 109.25ZM215.915 114.5V105.773H217.256V114.5H215.915ZM216.597 104.318C216.335 104.318 216.11 104.229 215.92 104.051C215.735 103.873 215.642 103.659 215.642 103.409C215.642 103.159 215.735 102.945 215.92 102.767C216.11 102.589 216.335 102.5 216.597 102.5C216.858 102.5 217.081 102.589 217.267 102.767C217.456 102.945 217.551 103.159 217.551 103.409C217.551 103.659 217.456 103.873 217.267 104.051C217.081 104.229 216.858 104.318 216.597 104.318ZM225.643 107.727L224.439 108.068C224.363 107.867 224.251 107.672 224.104 107.483C223.96 107.29 223.763 107.131 223.513 107.006C223.263 106.881 222.943 106.818 222.553 106.818C222.018 106.818 221.573 106.941 221.217 107.188C220.865 107.43 220.689 107.739 220.689 108.114C220.689 108.447 220.81 108.71 221.053 108.903C221.295 109.097 221.674 109.258 222.189 109.386L223.484 109.705C224.265 109.894 224.846 110.184 225.229 110.574C225.611 110.96 225.803 111.458 225.803 112.068C225.803 112.568 225.659 113.015 225.371 113.409C225.087 113.803 224.689 114.114 224.178 114.341C223.666 114.568 223.071 114.682 222.393 114.682C221.503 114.682 220.767 114.489 220.183 114.102C219.6 113.716 219.231 113.152 219.075 112.409L220.348 112.091C220.469 112.561 220.698 112.913 221.036 113.148C221.376 113.383 221.821 113.5 222.371 113.5C222.996 113.5 223.492 113.367 223.859 113.102C224.231 112.833 224.416 112.511 224.416 112.136C224.416 111.833 224.31 111.58 224.098 111.375C223.886 111.167 223.56 111.011 223.121 110.909L221.666 110.568C220.867 110.379 220.28 110.085 219.905 109.688C219.534 109.286 219.348 108.784 219.348 108.182C219.348 107.689 219.486 107.254 219.763 106.875C220.043 106.496 220.424 106.199 220.905 105.983C221.39 105.767 221.939 105.659 222.553 105.659C223.416 105.659 224.094 105.848 224.587 106.227C225.083 106.606 225.435 107.106 225.643 107.727ZM238.957 105.773L235.73 114.5H234.366L231.139 105.773H232.594L235.003 112.727H235.094L237.503 105.773H238.957ZM243.824 114.682C242.983 114.682 242.258 114.496 241.648 114.125C241.042 113.75 240.574 113.227 240.244 112.557C239.919 111.883 239.756 111.098 239.756 110.205C239.756 109.311 239.919 108.523 240.244 107.841C240.574 107.155 241.032 106.621 241.619 106.239C242.21 105.852 242.9 105.659 243.688 105.659C244.142 105.659 244.591 105.735 245.034 105.886C245.477 106.038 245.881 106.284 246.244 106.625C246.608 106.962 246.898 107.409 247.114 107.966C247.33 108.523 247.438 109.208 247.438 110.023V110.591H240.71V109.432H246.074C246.074 108.939 245.975 108.5 245.778 108.114C245.585 107.727 245.309 107.422 244.949 107.199C244.593 106.975 244.172 106.864 243.688 106.864C243.153 106.864 242.691 106.996 242.301 107.261C241.915 107.523 241.617 107.864 241.409 108.284C241.201 108.705 241.097 109.155 241.097 109.636V110.409C241.097 111.068 241.21 111.627 241.438 112.085C241.669 112.54 241.989 112.886 242.398 113.125C242.807 113.36 243.282 113.477 243.824 113.477C244.176 113.477 244.494 113.428 244.778 113.33C245.066 113.227 245.314 113.076 245.523 112.875C245.731 112.67 245.892 112.417 246.006 112.114L247.301 112.477C247.165 112.917 246.936 113.303 246.614 113.636C246.292 113.966 245.894 114.223 245.42 114.409C244.947 114.591 244.415 114.682 243.824 114.682ZM250.568 102.864V114.5H249.227V102.864H250.568ZM252.774 114.5V105.773H254.115V114.5H252.774ZM253.456 104.318C253.195 104.318 252.969 104.229 252.78 104.051C252.594 103.873 252.501 103.659 252.501 103.409C252.501 103.159 252.594 102.945 252.78 102.767C252.969 102.589 253.195 102.5 253.456 102.5C253.717 102.5 253.941 102.589 254.126 102.767C254.316 102.945 254.411 103.159 254.411 103.409C254.411 103.659 254.316 103.873 254.126 104.051C253.941 104.229 253.717 104.318 253.456 104.318ZM260.116 105.773V106.909H255.594V105.773H260.116ZM256.912 103.682H258.253V112C258.253 112.379 258.308 112.663 258.418 112.852C258.531 113.038 258.675 113.163 258.849 113.227C259.027 113.288 259.215 113.318 259.412 113.318C259.56 113.318 259.681 113.311 259.776 113.295C259.87 113.277 259.946 113.261 260.003 113.25L260.276 114.455C260.185 114.489 260.058 114.523 259.895 114.557C259.732 114.595 259.526 114.614 259.276 114.614C258.897 114.614 258.526 114.532 258.162 114.369C257.802 114.206 257.503 113.958 257.264 113.625C257.029 113.292 256.912 112.871 256.912 112.364V103.682ZM267.474 109.25V114.5H266.134V105.773H267.429V107.136H267.543C267.747 106.693 268.058 106.337 268.474 106.068C268.891 105.795 269.429 105.659 270.088 105.659C270.679 105.659 271.196 105.78 271.639 106.023C272.082 106.261 272.427 106.625 272.673 107.114C272.92 107.598 273.043 108.212 273.043 108.955V114.5H271.702V109.045C271.702 108.36 271.524 107.826 271.168 107.443C270.812 107.057 270.323 106.864 269.702 106.864C269.274 106.864 268.891 106.956 268.554 107.142C268.221 107.328 267.957 107.598 267.764 107.955C267.571 108.311 267.474 108.742 267.474 109.25ZM278.788 114.682C278 114.682 277.309 114.494 276.714 114.119C276.124 113.744 275.661 113.22 275.328 112.545C274.999 111.871 274.834 111.083 274.834 110.182C274.834 109.273 274.999 108.479 275.328 107.801C275.661 107.123 276.124 106.597 276.714 106.222C277.309 105.847 278 105.659 278.788 105.659C279.576 105.659 280.266 105.847 280.857 106.222C281.451 106.597 281.913 107.123 282.243 107.801C282.576 108.479 282.743 109.273 282.743 110.182C282.743 111.083 282.576 111.871 282.243 112.545C281.913 113.22 281.451 113.744 280.857 114.119C280.266 114.494 279.576 114.682 278.788 114.682ZM278.788 113.477C279.387 113.477 279.879 113.324 280.266 113.017C280.652 112.71 280.938 112.307 281.124 111.807C281.309 111.307 281.402 110.765 281.402 110.182C281.402 109.598 281.309 109.055 281.124 108.551C280.938 108.047 280.652 107.64 280.266 107.33C279.879 107.019 279.387 106.864 278.788 106.864C278.19 106.864 277.697 107.019 277.311 107.33C276.925 107.64 276.639 108.047 276.453 108.551C276.268 109.055 276.175 109.598 276.175 110.182C276.175 110.765 276.268 111.307 276.453 111.807C276.639 112.307 276.925 112.71 277.311 113.017C277.697 113.324 278.19 113.477 278.788 113.477ZM285.881 109.25V114.5H284.54V105.773H285.835V107.136H285.949C286.153 106.693 286.464 106.337 286.881 106.068C287.297 105.795 287.835 105.659 288.494 105.659C289.085 105.659 289.602 105.78 290.045 106.023C290.489 106.261 290.833 106.625 291.08 107.114C291.326 107.598 291.449 108.212 291.449 108.955V114.5H290.108V109.045C290.108 108.36 289.93 107.826 289.574 107.443C289.218 107.057 288.729 106.864 288.108 106.864C287.68 106.864 287.297 106.956 286.96 107.142C286.627 107.328 286.364 107.598 286.17 107.955C285.977 108.311 285.881 108.742 285.881 109.25ZM301.558 114.682C300.717 114.682 299.992 114.496 299.382 114.125C298.776 113.75 298.308 113.227 297.979 112.557C297.653 111.883 297.49 111.098 297.49 110.205C297.49 109.311 297.653 108.523 297.979 107.841C298.308 107.155 298.767 106.621 299.354 106.239C299.945 105.852 300.634 105.659 301.422 105.659C301.876 105.659 302.325 105.735 302.768 105.886C303.212 106.038 303.615 106.284 303.979 106.625C304.342 106.962 304.632 107.409 304.848 107.966C305.064 108.523 305.172 109.208 305.172 110.023V110.591H298.445V109.432H303.808C303.808 108.939 303.71 108.5 303.513 108.114C303.32 107.727 303.043 107.422 302.683 107.199C302.327 106.975 301.907 106.864 301.422 106.864C300.888 106.864 300.426 106.996 300.036 107.261C299.649 107.523 299.352 107.864 299.143 108.284C298.935 108.705 298.831 109.155 298.831 109.636V110.409C298.831 111.068 298.945 111.627 299.172 112.085C299.403 112.54 299.723 112.886 300.132 113.125C300.541 113.36 301.017 113.477 301.558 113.477C301.911 113.477 302.229 113.428 302.513 113.33C302.801 113.227 303.049 113.076 303.257 112.875C303.465 112.67 303.626 112.417 303.74 112.114L305.036 112.477C304.899 112.917 304.67 113.303 304.348 113.636C304.026 113.966 303.628 114.223 303.155 114.409C302.681 114.591 302.149 114.682 301.558 114.682ZM313.143 107.727L311.939 108.068C311.863 107.867 311.751 107.672 311.604 107.483C311.46 107.29 311.263 107.131 311.013 107.006C310.763 106.881 310.443 106.818 310.053 106.818C309.518 106.818 309.073 106.941 308.717 107.188C308.365 107.43 308.189 107.739 308.189 108.114C308.189 108.447 308.31 108.71 308.553 108.903C308.795 109.097 309.174 109.258 309.689 109.386L310.984 109.705C311.765 109.894 312.346 110.184 312.729 110.574C313.111 110.96 313.303 111.458 313.303 112.068C313.303 112.568 313.159 113.015 312.871 113.409C312.587 113.803 312.189 114.114 311.678 114.341C311.166 114.568 310.571 114.682 309.893 114.682C309.003 114.682 308.267 114.489 307.683 114.102C307.1 113.716 306.731 113.152 306.575 112.409L307.848 112.091C307.969 112.561 308.198 112.913 308.536 113.148C308.876 113.383 309.321 113.5 309.871 113.5C310.496 113.5 310.992 113.367 311.359 113.102C311.731 112.833 311.916 112.511 311.916 112.136C311.916 111.833 311.81 111.58 311.598 111.375C311.386 111.167 311.06 111.011 310.621 110.909L309.166 110.568C308.367 110.379 307.78 110.085 307.405 109.688C307.034 109.286 306.848 108.784 306.848 108.182C306.848 107.689 306.986 107.254 307.263 106.875C307.543 106.496 307.924 106.199 308.405 105.983C308.89 105.767 309.439 105.659 310.053 105.659C310.916 105.659 311.594 105.848 312.087 106.227C312.583 106.606 312.935 107.106 313.143 107.727ZM318.866 105.773V106.909H314.344V105.773H318.866ZM315.662 103.682H317.003V112C317.003 112.379 317.058 112.663 317.168 112.852C317.281 113.038 317.425 113.163 317.599 113.227C317.777 113.288 317.965 113.318 318.162 113.318C318.31 113.318 318.431 113.311 318.526 113.295C318.62 113.277 318.696 113.261 318.753 113.25L319.026 114.455C318.935 114.489 318.808 114.523 318.645 114.557C318.482 114.595 318.276 114.614 318.026 114.614C317.647 114.614 317.276 114.532 316.912 114.369C316.552 114.206 316.253 113.958 316.014 113.625C315.779 113.292 315.662 112.871 315.662 112.364V103.682ZM324.884 117.773V105.773H326.179V107.159H326.338C326.437 107.008 326.573 106.814 326.747 106.58C326.925 106.341 327.179 106.129 327.509 105.943C327.842 105.754 328.293 105.659 328.861 105.659C329.596 105.659 330.243 105.843 330.804 106.21C331.365 106.578 331.802 107.098 332.116 107.773C332.431 108.447 332.588 109.242 332.588 110.159C332.588 111.083 332.431 111.884 332.116 112.562C331.802 113.237 331.366 113.759 330.81 114.131C330.253 114.498 329.611 114.682 328.884 114.682C328.323 114.682 327.874 114.589 327.537 114.403C327.2 114.214 326.94 114 326.759 113.761C326.577 113.519 326.437 113.318 326.338 113.159H326.224V117.773H324.884ZM326.202 110.136C326.202 110.795 326.298 111.377 326.491 111.881C326.685 112.381 326.967 112.773 327.338 113.057C327.709 113.337 328.164 113.477 328.702 113.477C329.262 113.477 329.73 113.33 330.105 113.034C330.484 112.735 330.768 112.333 330.957 111.83C331.151 111.322 331.247 110.758 331.247 110.136C331.247 109.523 331.152 108.97 330.963 108.477C330.777 107.981 330.495 107.589 330.116 107.301C329.741 107.009 329.27 106.864 328.702 106.864C328.156 106.864 327.698 107.002 327.327 107.278C326.955 107.551 326.675 107.934 326.486 108.426C326.296 108.915 326.202 109.485 326.202 110.136ZM337.929 114.682C337.141 114.682 336.45 114.494 335.855 114.119C335.264 113.744 334.802 113.22 334.469 112.545C334.139 111.871 333.974 111.083 333.974 110.182C333.974 109.273 334.139 108.479 334.469 107.801C334.802 107.123 335.264 106.597 335.855 106.222C336.45 105.847 337.141 105.659 337.929 105.659C338.717 105.659 339.406 105.847 339.997 106.222C340.592 106.597 341.054 107.123 341.384 107.801C341.717 108.479 341.884 109.273 341.884 110.182C341.884 111.083 341.717 111.871 341.384 112.545C341.054 113.22 340.592 113.744 339.997 114.119C339.406 114.494 338.717 114.682 337.929 114.682ZM337.929 113.477C338.527 113.477 339.02 113.324 339.406 113.017C339.793 112.71 340.079 112.307 340.264 111.807C340.45 111.307 340.543 110.765 340.543 110.182C340.543 109.598 340.45 109.055 340.264 108.551C340.079 108.047 339.793 107.64 339.406 107.33C339.02 107.019 338.527 106.864 337.929 106.864C337.33 106.864 336.838 107.019 336.452 107.33C336.065 107.64 335.779 108.047 335.594 108.551C335.408 109.055 335.315 109.598 335.315 110.182C335.315 110.765 335.408 111.307 335.594 111.807C335.779 112.307 336.065 112.71 336.452 113.017C336.838 113.324 337.33 113.477 337.929 113.477ZM343.68 114.5V105.773H344.976V107.091H345.067C345.226 106.659 345.514 106.309 345.93 106.04C346.347 105.771 346.817 105.636 347.339 105.636C347.438 105.636 347.561 105.638 347.709 105.642C347.857 105.646 347.968 105.652 348.044 105.659V107.023C347.999 107.011 347.894 106.994 347.732 106.972C347.572 106.945 347.404 106.932 347.226 106.932C346.802 106.932 346.423 107.021 346.089 107.199C345.76 107.373 345.499 107.616 345.305 107.926C345.116 108.233 345.021 108.583 345.021 108.977V114.5H343.68ZM349.384 114.5V105.773H350.679V107.091H350.77C350.929 106.659 351.217 106.309 351.634 106.04C352.05 105.771 352.52 105.636 353.043 105.636C353.141 105.636 353.264 105.638 353.412 105.642C353.56 105.646 353.671 105.652 353.747 105.659V107.023C353.702 107.011 353.598 106.994 353.435 106.972C353.276 106.945 353.107 106.932 352.929 106.932C352.505 106.932 352.126 107.021 351.793 107.199C351.463 107.373 351.202 107.616 351.009 107.926C350.819 108.233 350.724 108.583 350.724 108.977V114.5H349.384ZM358.366 114.682C357.579 114.682 356.887 114.494 356.293 114.119C355.702 113.744 355.24 113.22 354.906 112.545C354.577 111.871 354.412 111.083 354.412 110.182C354.412 109.273 354.577 108.479 354.906 107.801C355.24 107.123 355.702 106.597 356.293 106.222C356.887 105.847 357.579 105.659 358.366 105.659C359.154 105.659 359.844 105.847 360.435 106.222C361.029 106.597 361.491 107.123 361.821 107.801C362.154 108.479 362.321 109.273 362.321 110.182C362.321 111.083 362.154 111.871 361.821 112.545C361.491 113.22 361.029 113.744 360.435 114.119C359.844 114.494 359.154 114.682 358.366 114.682ZM358.366 113.477C358.965 113.477 359.457 113.324 359.844 113.017C360.23 112.71 360.516 112.307 360.702 111.807C360.887 111.307 360.98 110.765 360.98 110.182C360.98 109.598 360.887 109.055 360.702 108.551C360.516 108.047 360.23 107.64 359.844 107.33C359.457 107.019 358.965 106.864 358.366 106.864C357.768 106.864 357.276 107.019 356.889 107.33C356.503 107.64 356.217 108.047 356.031 108.551C355.846 109.055 355.753 109.598 355.753 110.182C355.753 110.765 355.846 111.307 356.031 111.807C356.217 112.307 356.503 112.71 356.889 113.017C357.276 113.324 357.768 113.477 358.366 113.477ZM110.386 138.682C109.545 138.682 108.82 138.496 108.21 138.125C107.604 137.75 107.136 137.227 106.807 136.557C106.481 135.883 106.318 135.098 106.318 134.205C106.318 133.311 106.481 132.523 106.807 131.841C107.136 131.155 107.595 130.621 108.182 130.239C108.773 129.852 109.462 129.659 110.25 129.659C110.705 129.659 111.153 129.735 111.597 129.886C112.04 130.038 112.443 130.284 112.807 130.625C113.17 130.962 113.46 131.409 113.676 131.966C113.892 132.523 114 133.208 114 134.023V134.591H107.273V133.432H112.636C112.636 132.939 112.538 132.5 112.341 132.114C112.148 131.727 111.871 131.422 111.511 131.199C111.155 130.975 110.735 130.864 110.25 130.864C109.716 130.864 109.254 130.996 108.864 131.261C108.477 131.523 108.18 131.864 107.972 132.284C107.763 132.705 107.659 133.155 107.659 133.636V134.409C107.659 135.068 107.773 135.627 108 136.085C108.231 136.54 108.551 136.886 108.96 137.125C109.369 137.36 109.845 137.477 110.386 137.477C110.739 137.477 111.057 137.428 111.341 137.33C111.629 137.227 111.877 137.076 112.085 136.875C112.294 136.67 112.455 136.417 112.568 136.114L113.864 136.477C113.727 136.917 113.498 137.303 113.176 137.636C112.854 137.966 112.456 138.223 111.983 138.409C111.509 138.591 110.977 138.682 110.386 138.682ZM115.79 138.5V129.773H117.085V131.091H117.176C117.335 130.659 117.623 130.309 118.04 130.04C118.456 129.771 118.926 129.636 119.449 129.636C119.547 129.636 119.67 129.638 119.818 129.642C119.966 129.646 120.078 129.652 120.153 129.659V131.023C120.108 131.011 120.004 130.994 119.841 130.972C119.682 130.945 119.513 130.932 119.335 130.932C118.911 130.932 118.532 131.021 118.199 131.199C117.869 131.373 117.608 131.616 117.415 131.926C117.225 132.233 117.131 132.583 117.131 132.977V138.5H115.79ZM121.493 138.5V129.773H122.788V131.091H122.879C123.038 130.659 123.326 130.309 123.743 130.04C124.16 129.771 124.629 129.636 125.152 129.636C125.25 129.636 125.374 129.638 125.521 129.642C125.669 129.646 125.781 129.652 125.857 129.659V131.023C125.811 131.011 125.707 130.994 125.544 130.972C125.385 130.945 125.216 130.932 125.038 130.932C124.614 130.932 124.235 131.021 123.902 131.199C123.572 131.373 123.311 131.616 123.118 131.926C122.929 132.233 122.834 132.583 122.834 132.977V138.5H121.493ZM130.476 138.682C129.688 138.682 128.997 138.494 128.402 138.119C127.811 137.744 127.349 137.22 127.016 136.545C126.686 135.871 126.521 135.083 126.521 134.182C126.521 133.273 126.686 132.479 127.016 131.801C127.349 131.123 127.811 130.597 128.402 130.222C128.997 129.847 129.688 129.659 130.476 129.659C131.264 129.659 131.953 129.847 132.544 130.222C133.139 130.597 133.601 131.123 133.93 131.801C134.264 132.479 134.43 133.273 134.43 134.182C134.43 135.083 134.264 135.871 133.93 136.545C133.601 137.22 133.139 137.744 132.544 138.119C131.953 138.494 131.264 138.682 130.476 138.682ZM130.476 137.477C131.074 137.477 131.567 137.324 131.953 137.017C132.339 136.71 132.625 136.307 132.811 135.807C132.997 135.307 133.089 134.765 133.089 134.182C133.089 133.598 132.997 133.055 132.811 132.551C132.625 132.047 132.339 131.64 131.953 131.33C131.567 131.019 131.074 130.864 130.476 130.864C129.877 130.864 129.385 131.019 128.999 131.33C128.612 131.64 128.326 132.047 128.141 132.551C127.955 133.055 127.862 133.598 127.862 134.182C127.862 134.765 127.955 135.307 128.141 135.807C128.326 136.307 128.612 136.71 128.999 137.017C129.385 137.324 129.877 137.477 130.476 137.477ZM136.227 138.5V129.773H137.523V131.091H137.614C137.773 130.659 138.061 130.309 138.477 130.04C138.894 129.771 139.364 129.636 139.886 129.636C139.985 129.636 140.108 129.638 140.256 129.642C140.403 129.646 140.515 129.652 140.591 129.659V131.023C140.545 131.011 140.441 130.994 140.278 130.972C140.119 130.945 139.951 130.932 139.773 130.932C139.348 130.932 138.97 131.021 138.636 131.199C138.307 131.373 138.045 131.616 137.852 131.926C137.663 132.233 137.568 132.583 137.568 132.977V138.5H136.227ZM153.317 129.773L150.089 138.5H148.726L145.499 129.773H146.953L149.362 136.727H149.453L151.862 129.773H153.317ZM158.07 138.682C157.282 138.682 156.59 138.494 155.996 138.119C155.405 137.744 154.943 137.22 154.609 136.545C154.28 135.871 154.115 135.083 154.115 134.182C154.115 133.273 154.28 132.479 154.609 131.801C154.943 131.123 155.405 130.597 155.996 130.222C156.59 129.847 157.282 129.659 158.07 129.659C158.857 129.659 159.547 129.847 160.138 130.222C160.732 130.597 161.195 131.123 161.524 131.801C161.857 132.479 162.024 133.273 162.024 134.182C162.024 135.083 161.857 135.871 161.524 136.545C161.195 137.22 160.732 137.744 160.138 138.119C159.547 138.494 158.857 138.682 158.07 138.682ZM158.07 137.477C158.668 137.477 159.161 137.324 159.547 137.017C159.933 136.71 160.219 136.307 160.405 135.807C160.59 135.307 160.683 134.765 160.683 134.182C160.683 133.598 160.59 133.055 160.405 132.551C160.219 132.047 159.933 131.64 159.547 131.33C159.161 131.019 158.668 130.864 158.07 130.864C157.471 130.864 156.979 131.019 156.592 131.33C156.206 131.64 155.92 132.047 155.734 132.551C155.549 133.055 155.456 133.598 155.456 134.182C155.456 134.765 155.549 135.307 155.734 135.807C155.92 136.307 156.206 136.71 156.592 137.017C156.979 137.324 157.471 137.477 158.07 137.477ZM165.162 126.864V138.5H163.821V126.864H165.162ZM172.868 134.932V129.773H174.209V138.5H172.868V137.023H172.777C172.572 137.466 172.254 137.843 171.822 138.153C171.391 138.46 170.845 138.614 170.186 138.614C169.641 138.614 169.156 138.494 168.732 138.256C168.307 138.013 167.974 137.65 167.732 137.165C167.489 136.676 167.368 136.061 167.368 135.318V129.773H168.709V135.227C168.709 135.864 168.887 136.371 169.243 136.75C169.603 137.129 170.061 137.318 170.618 137.318C170.951 137.318 171.29 137.233 171.635 137.062C171.983 136.892 172.275 136.631 172.51 136.278C172.749 135.926 172.868 135.477 172.868 134.932ZM176.415 141.773V129.773H177.71V131.159H177.869C177.968 131.008 178.104 130.814 178.278 130.58C178.456 130.341 178.71 130.129 179.04 129.943C179.373 129.754 179.824 129.659 180.392 129.659C181.127 129.659 181.775 129.843 182.335 130.21C182.896 130.578 183.333 131.098 183.648 131.773C183.962 132.447 184.119 133.242 184.119 134.159C184.119 135.083 183.962 135.884 183.648 136.562C183.333 137.237 182.898 137.759 182.341 138.131C181.784 138.498 181.142 138.682 180.415 138.682C179.854 138.682 179.405 138.589 179.068 138.403C178.731 138.214 178.472 138 178.29 137.761C178.108 137.519 177.968 137.318 177.869 137.159H177.756V141.773H176.415ZM177.733 134.136C177.733 134.795 177.83 135.377 178.023 135.881C178.216 136.381 178.498 136.773 178.869 137.057C179.241 137.337 179.695 137.477 180.233 137.477C180.794 137.477 181.261 137.33 181.636 137.034C182.015 136.735 182.299 136.333 182.489 135.83C182.682 135.322 182.778 134.758 182.778 134.136C182.778 133.523 182.684 132.97 182.494 132.477C182.309 131.981 182.027 131.589 181.648 131.301C181.273 131.009 180.801 130.864 180.233 130.864C179.688 130.864 179.229 131.002 178.858 131.278C178.487 131.551 178.206 131.934 178.017 132.426C177.828 132.915 177.733 133.485 177.733 134.136ZM189.71 129.773V130.909H185.188V129.773H189.71ZM186.506 127.682H187.847V136C187.847 136.379 187.902 136.663 188.011 136.852C188.125 137.038 188.269 137.163 188.443 137.227C188.621 137.288 188.809 137.318 189.006 137.318C189.153 137.318 189.275 137.311 189.369 137.295C189.464 137.277 189.54 137.261 189.597 137.25L189.869 138.455C189.778 138.489 189.652 138.523 189.489 138.557C189.326 138.595 189.119 138.614 188.869 138.614C188.491 138.614 188.119 138.532 187.756 138.369C187.396 138.206 187.097 137.958 186.858 137.625C186.623 137.292 186.506 136.871 186.506 136.364V127.682ZM194.045 138.705C193.492 138.705 192.991 138.6 192.54 138.392C192.089 138.18 191.731 137.875 191.466 137.477C191.201 137.076 191.068 136.591 191.068 136.023C191.068 135.523 191.167 135.117 191.364 134.807C191.561 134.492 191.824 134.246 192.153 134.068C192.483 133.89 192.847 133.758 193.244 133.67C193.646 133.58 194.049 133.508 194.455 133.455C194.985 133.386 195.415 133.335 195.744 133.301C196.078 133.263 196.32 133.201 196.472 133.114C196.627 133.027 196.705 132.875 196.705 132.659V132.614C196.705 132.053 196.551 131.617 196.244 131.307C195.941 130.996 195.481 130.841 194.864 130.841C194.223 130.841 193.722 130.981 193.358 131.261C192.994 131.542 192.739 131.841 192.591 132.159L191.318 131.705C191.545 131.174 191.848 130.761 192.227 130.466C192.61 130.167 193.027 129.958 193.477 129.841C193.932 129.72 194.379 129.659 194.818 129.659C195.098 129.659 195.42 129.693 195.784 129.761C196.152 129.826 196.506 129.96 196.847 130.165C197.191 130.369 197.477 130.678 197.705 131.091C197.932 131.504 198.045 132.057 198.045 132.75V138.5H196.705V137.318H196.636C196.545 137.508 196.394 137.71 196.182 137.926C195.97 138.142 195.688 138.326 195.335 138.477C194.983 138.629 194.553 138.705 194.045 138.705ZM194.25 137.5C194.78 137.5 195.227 137.396 195.591 137.188C195.958 136.979 196.235 136.71 196.42 136.381C196.61 136.051 196.705 135.705 196.705 135.341V134.114C196.648 134.182 196.523 134.244 196.33 134.301C196.14 134.354 195.92 134.402 195.67 134.443C195.424 134.481 195.184 134.515 194.949 134.545C194.718 134.572 194.53 134.595 194.386 134.614C194.038 134.659 193.712 134.733 193.409 134.835C193.11 134.934 192.867 135.083 192.682 135.284C192.5 135.481 192.409 135.75 192.409 136.091C192.409 136.557 192.581 136.909 192.926 137.148C193.275 137.383 193.716 137.5 194.25 137.5ZM204.038 129.773V130.909H199.516V129.773H204.038ZM200.834 127.682H202.175V136C202.175 136.379 202.23 136.663 202.339 136.852C202.453 137.038 202.597 137.163 202.771 137.227C202.949 137.288 203.137 137.318 203.334 137.318C203.482 137.318 203.603 137.311 203.697 137.295C203.792 137.277 203.868 137.261 203.925 137.25L204.197 138.455C204.107 138.489 203.98 138.523 203.817 138.557C203.654 138.595 203.447 138.614 203.197 138.614C202.819 138.614 202.447 138.532 202.084 138.369C201.724 138.206 201.425 137.958 201.186 137.625C200.951 137.292 200.834 136.871 200.834 136.364V127.682ZM205.805 138.5V129.773H207.146V138.5H205.805ZM206.487 128.318C206.226 128.318 206 128.229 205.811 128.051C205.625 127.873 205.533 127.659 205.533 127.409C205.533 127.159 205.625 126.945 205.811 126.767C206 126.589 206.226 126.5 206.487 126.5C206.749 126.5 206.972 126.589 207.158 126.767C207.347 126.945 207.442 127.159 207.442 127.409C207.442 127.659 207.347 127.873 207.158 128.051C206.972 128.229 206.749 128.318 206.487 128.318ZM209.534 138.5V126.864H210.875V131.159H210.989C211.087 131.008 211.223 130.814 211.398 130.58C211.576 130.341 211.83 130.129 212.159 129.943C212.492 129.754 212.943 129.659 213.511 129.659C214.246 129.659 214.894 129.843 215.455 130.21C216.015 130.578 216.453 131.098 216.767 131.773C217.081 132.447 217.239 133.242 217.239 134.159C217.239 135.083 217.081 135.884 216.767 136.562C216.453 137.237 216.017 137.759 215.46 138.131C214.903 138.498 214.261 138.682 213.534 138.682C212.973 138.682 212.525 138.589 212.188 138.403C211.85 138.214 211.591 138 211.409 137.761C211.227 137.519 211.087 137.318 210.989 137.159H210.83V138.5H209.534ZM210.852 134.136C210.852 134.795 210.949 135.377 211.142 135.881C211.335 136.381 211.617 136.773 211.989 137.057C212.36 137.337 212.814 137.477 213.352 137.477C213.913 137.477 214.381 137.33 214.756 137.034C215.134 136.735 215.419 136.333 215.608 135.83C215.801 135.322 215.898 134.758 215.898 134.136C215.898 133.523 215.803 132.97 215.614 132.477C215.428 131.981 215.146 131.589 214.767 131.301C214.392 131.009 213.92 130.864 213.352 130.864C212.807 130.864 212.348 131.002 211.977 131.278C211.606 131.551 211.326 131.934 211.136 132.426C210.947 132.915 210.852 133.485 210.852 134.136ZM224.54 134.932V129.773H225.881V138.5H224.54V137.023H224.449C224.244 137.466 223.926 137.843 223.494 138.153C223.063 138.46 222.517 138.614 221.858 138.614C221.312 138.614 220.828 138.494 220.403 138.256C219.979 138.013 219.646 137.65 219.403 137.165C219.161 136.676 219.04 136.061 219.04 135.318V129.773H220.381V135.227C220.381 135.864 220.559 136.371 220.915 136.75C221.275 137.129 221.733 137.318 222.29 137.318C222.623 137.318 222.962 137.233 223.307 137.062C223.655 136.892 223.947 136.631 224.182 136.278C224.42 135.926 224.54 135.477 224.54 134.932ZM234.268 131.727L233.064 132.068C232.988 131.867 232.876 131.672 232.729 131.483C232.585 131.29 232.388 131.131 232.138 131.006C231.888 130.881 231.568 130.818 231.178 130.818C230.643 130.818 230.198 130.941 229.842 131.188C229.49 131.43 229.314 131.739 229.314 132.114C229.314 132.447 229.435 132.71 229.678 132.903C229.92 133.097 230.299 133.258 230.814 133.386L232.109 133.705C232.89 133.894 233.471 134.184 233.854 134.574C234.236 134.96 234.428 135.458 234.428 136.068C234.428 136.568 234.284 137.015 233.996 137.409C233.712 137.803 233.314 138.114 232.803 138.341C232.291 138.568 231.696 138.682 231.018 138.682C230.128 138.682 229.392 138.489 228.808 138.102C228.225 137.716 227.856 137.152 227.7 136.409L228.973 136.091C229.094 136.561 229.323 136.913 229.661 137.148C230.001 137.383 230.446 137.5 230.996 137.5C231.621 137.5 232.117 137.367 232.484 137.102C232.856 136.833 233.041 136.511 233.041 136.136C233.041 135.833 232.935 135.58 232.723 135.375C232.511 135.167 232.185 135.011 231.746 134.909L230.291 134.568C229.492 134.379 228.905 134.085 228.53 133.688C228.159 133.286 227.973 132.784 227.973 132.182C227.973 131.689 228.111 131.254 228.388 130.875C228.668 130.496 229.049 130.199 229.53 129.983C230.015 129.767 230.564 129.659 231.178 129.659C232.041 129.659 232.719 129.848 233.212 130.227C233.708 130.606 234.06 131.106 234.268 131.727ZM237.173 138.591C236.893 138.591 236.652 138.491 236.452 138.29C236.251 138.089 236.151 137.848 236.151 137.568C236.151 137.288 236.251 137.047 236.452 136.847C236.652 136.646 236.893 136.545 237.173 136.545C237.454 136.545 237.694 136.646 237.895 136.847C238.096 137.047 238.196 137.288 238.196 137.568C238.196 137.754 238.149 137.924 238.054 138.08C237.963 138.235 237.84 138.36 237.685 138.455C237.533 138.545 237.363 138.591 237.173 138.591Z" fill="#121826"/>
<path d="M389.5 84.5L104.5 84.5C102.291 84.5 100.5 86.2909 100.5 88.5L100.5 94.5C100.5 96.7091 98.7091 98.5 96.5 98.5L76.5 98.5" stroke="#CA3A31" stroke-opacity="0.1" stroke-width="2" stroke-linecap="round"/>
<path d="M407.5 125.7C407.5 124.58 407.5 124.02 407.718 123.592C407.91 123.216 408.216 122.91 408.592 122.718C409.02 122.5 409.58 122.5 410.7 122.5H424.3C425.42 122.5 425.98 122.5 426.408 122.718C426.784 122.91 427.09 123.216 427.282 123.592C427.5 124.02 427.5 124.58 427.5 125.7V139.3C427.5 140.42 427.5 140.98 427.282 141.408C427.09 141.784 426.784 142.09 426.408 142.282C425.98 142.5 425.42 142.5 424.3 142.5H410.7C409.58 142.5 409.02 142.5 408.592 142.282C408.216 142.09 407.91 141.784 407.718 141.408C407.5 140.98 407.5 140.42 407.5 139.3V125.7Z" fill="#217CF5"/>
<path d="M424.031 129.531L416.031 137.531C415.961 137.601 415.878 137.657 415.787 137.695C415.696 137.732 415.598 137.752 415.499 137.752C415.401 137.752 415.303 137.732 415.212 137.695C415.121 137.657 415.038 137.601 414.968 137.531L411.468 134.031C411.398 133.962 411.343 133.879 411.305 133.788C411.267 133.696 411.248 133.599 411.248 133.5C411.248 133.401 411.267 133.304 411.305 133.213C411.343 133.121 411.398 133.039 411.468 132.969C411.538 132.899 411.621 132.844 411.712 132.806C411.803 132.768 411.901 132.749 411.999 132.749C412.098 132.749 412.196 132.768 412.287 132.806C412.378 132.844 412.461 132.899 412.531 132.969L415.5 135.938L422.969 128.47C423.11 128.329 423.301 128.25 423.501 128.25C423.7 128.25 423.891 128.329 424.032 128.47C424.173 128.611 424.252 128.802 424.252 129.001C424.252 129.201 424.173 129.392 424.032 129.533L424.031 129.531Z" fill="#FCFCFD"/>
<path d="M445.273 105.773C445.205 105.197 444.928 104.75 444.443 104.432C443.958 104.114 443.364 103.955 442.659 103.955C442.144 103.955 441.693 104.038 441.307 104.205C440.924 104.371 440.625 104.6 440.409 104.892C440.197 105.184 440.091 105.515 440.091 105.886C440.091 106.197 440.165 106.464 440.312 106.688C440.464 106.907 440.657 107.091 440.892 107.239C441.127 107.383 441.373 107.502 441.631 107.597C441.888 107.687 442.125 107.761 442.341 107.818L443.523 108.136C443.826 108.216 444.163 108.326 444.534 108.466C444.909 108.606 445.267 108.797 445.608 109.04C445.953 109.278 446.237 109.585 446.46 109.96C446.684 110.335 446.795 110.795 446.795 111.341C446.795 111.97 446.631 112.538 446.301 113.045C445.975 113.553 445.498 113.956 444.869 114.256C444.244 114.555 443.485 114.705 442.591 114.705C441.758 114.705 441.036 114.57 440.426 114.301C439.82 114.032 439.343 113.657 438.994 113.176C438.65 112.695 438.455 112.136 438.409 111.5H439.864C439.902 111.939 440.049 112.303 440.307 112.591C440.568 112.875 440.898 113.087 441.295 113.227C441.697 113.364 442.129 113.432 442.591 113.432C443.129 113.432 443.612 113.345 444.04 113.17C444.468 112.992 444.807 112.746 445.057 112.432C445.307 112.114 445.432 111.742 445.432 111.318C445.432 110.932 445.324 110.617 445.108 110.375C444.892 110.133 444.608 109.936 444.256 109.784C443.903 109.633 443.523 109.5 443.114 109.386L441.682 108.977C440.773 108.716 440.053 108.343 439.523 107.858C438.992 107.373 438.727 106.739 438.727 105.955C438.727 105.303 438.903 104.735 439.256 104.25C439.612 103.761 440.089 103.383 440.688 103.114C441.29 102.841 441.962 102.705 442.705 102.705C443.455 102.705 444.121 102.839 444.705 103.108C445.288 103.373 445.75 103.737 446.091 104.199C446.436 104.661 446.617 105.186 446.636 105.773H445.273ZM452.339 114.682C451.499 114.682 450.773 114.496 450.163 114.125C449.557 113.75 449.089 113.227 448.76 112.557C448.434 111.883 448.271 111.098 448.271 110.205C448.271 109.311 448.434 108.523 448.76 107.841C449.089 107.155 449.548 106.621 450.135 106.239C450.726 105.852 451.415 105.659 452.203 105.659C452.658 105.659 453.107 105.735 453.55 105.886C453.993 106.038 454.396 106.284 454.76 106.625C455.124 106.962 455.413 107.409 455.629 107.966C455.845 108.523 455.953 109.208 455.953 110.023V110.591H449.226V109.432H454.589C454.589 108.939 454.491 108.5 454.294 108.114C454.101 107.727 453.824 107.422 453.464 107.199C453.108 106.975 452.688 106.864 452.203 106.864C451.669 106.864 451.207 106.996 450.817 107.261C450.43 107.523 450.133 107.864 449.925 108.284C449.716 108.705 449.612 109.155 449.612 109.636V110.409C449.612 111.068 449.726 111.627 449.953 112.085C450.184 112.54 450.504 112.886 450.913 113.125C451.322 113.36 451.798 113.477 452.339 113.477C452.692 113.477 453.01 113.428 453.294 113.33C453.582 113.227 453.83 113.076 454.038 112.875C454.247 112.67 454.408 112.417 454.521 112.114L455.817 112.477C455.68 112.917 455.451 113.303 455.129 113.636C454.807 113.966 454.41 114.223 453.936 114.409C453.463 114.591 452.93 114.682 452.339 114.682ZM463.697 117.773V113.159H463.584C463.485 113.318 463.345 113.519 463.163 113.761C462.982 114 462.722 114.214 462.385 114.403C462.048 114.589 461.599 114.682 461.038 114.682C460.311 114.682 459.669 114.498 459.112 114.131C458.555 113.759 458.12 113.237 457.805 112.562C457.491 111.884 457.334 111.083 457.334 110.159C457.334 109.242 457.491 108.447 457.805 107.773C458.12 107.098 458.557 106.578 459.118 106.21C459.679 105.843 460.326 105.659 461.061 105.659C461.629 105.659 462.078 105.754 462.408 105.943C462.741 106.129 462.995 106.341 463.169 106.58C463.347 106.814 463.485 107.008 463.584 107.159H463.743V105.773H465.038V117.773H463.697ZM461.22 113.477C461.758 113.477 462.213 113.337 462.584 113.057C462.955 112.773 463.237 112.381 463.43 111.881C463.624 111.377 463.72 110.795 463.72 110.136C463.72 109.485 463.625 108.915 463.436 108.426C463.247 107.934 462.966 107.551 462.595 107.278C462.224 107.002 461.766 106.864 461.22 106.864C460.652 106.864 460.179 107.009 459.8 107.301C459.425 107.589 459.143 107.981 458.953 108.477C458.768 108.97 458.675 109.523 458.675 110.136C458.675 110.758 458.769 111.322 458.959 111.83C459.152 112.333 459.436 112.735 459.811 113.034C460.19 113.33 460.66 113.477 461.22 113.477ZM472.743 110.932V105.773H474.084V114.5H472.743V113.023H472.652C472.447 113.466 472.129 113.843 471.697 114.153C471.266 114.46 470.72 114.614 470.061 114.614C469.516 114.614 469.031 114.494 468.607 114.256C468.182 114.013 467.849 113.65 467.607 113.165C467.364 112.676 467.243 112.061 467.243 111.318V105.773H468.584V111.227C468.584 111.864 468.762 112.371 469.118 112.75C469.478 113.129 469.936 113.318 470.493 113.318C470.826 113.318 471.165 113.233 471.51 113.062C471.858 112.892 472.15 112.631 472.385 112.278C472.624 111.926 472.743 111.477 472.743 110.932ZM476.29 114.5V105.773H477.631V114.5H476.29ZM476.972 104.318C476.71 104.318 476.485 104.229 476.295 104.051C476.11 103.873 476.017 103.659 476.017 103.409C476.017 103.159 476.11 102.945 476.295 102.767C476.485 102.589 476.71 102.5 476.972 102.5C477.233 102.5 477.456 102.589 477.642 102.767C477.831 102.945 477.926 103.159 477.926 103.409C477.926 103.659 477.831 103.873 477.642 104.051C477.456 104.229 477.233 104.318 476.972 104.318ZM485.428 109.25V114.5H484.087V105.773H485.382V107.136H485.496C485.7 106.693 486.011 106.337 486.428 106.068C486.844 105.795 487.382 105.659 488.041 105.659C488.632 105.659 489.149 105.78 489.592 106.023C490.036 106.261 490.38 106.625 490.626 107.114C490.873 107.598 490.996 108.212 490.996 108.955V114.5H489.655V109.045C489.655 108.36 489.477 107.826 489.121 107.443C488.765 107.057 488.276 106.864 487.655 106.864C487.227 106.864 486.844 106.956 486.507 107.142C486.174 107.328 485.911 107.598 485.717 107.955C485.524 108.311 485.428 108.742 485.428 109.25ZM496.741 114.682C495.954 114.682 495.262 114.494 494.668 114.119C494.077 113.744 493.615 113.22 493.281 112.545C492.952 111.871 492.787 111.083 492.787 110.182C492.787 109.273 492.952 108.479 493.281 107.801C493.615 107.123 494.077 106.597 494.668 106.222C495.262 105.847 495.954 105.659 496.741 105.659C497.529 105.659 498.219 105.847 498.81 106.222C499.404 106.597 499.866 107.123 500.196 107.801C500.529 108.479 500.696 109.273 500.696 110.182C500.696 111.083 500.529 111.871 500.196 112.545C499.866 113.22 499.404 113.744 498.81 114.119C498.219 114.494 497.529 114.682 496.741 114.682ZM496.741 113.477C497.34 113.477 497.832 113.324 498.219 113.017C498.605 112.71 498.891 112.307 499.077 111.807C499.262 111.307 499.355 110.765 499.355 110.182C499.355 109.598 499.262 109.055 499.077 108.551C498.891 108.047 498.605 107.64 498.219 107.33C497.832 107.019 497.34 106.864 496.741 106.864C496.143 106.864 495.651 107.019 495.264 107.33C494.878 107.64 494.592 108.047 494.406 108.551C494.221 109.055 494.128 109.598 494.128 110.182C494.128 110.765 494.221 111.307 494.406 111.807C494.592 112.307 494.878 112.71 495.264 113.017C495.651 113.324 496.143 113.477 496.741 113.477ZM503.834 109.25V114.5H502.493V105.773H503.788V107.136H503.902C504.107 106.693 504.417 106.337 504.834 106.068C505.25 105.795 505.788 105.659 506.447 105.659C507.038 105.659 507.555 105.78 507.999 106.023C508.442 106.261 508.786 106.625 509.033 107.114C509.279 107.598 509.402 108.212 509.402 108.955V114.5H508.061V109.045C508.061 108.36 507.883 107.826 507.527 107.443C507.171 107.057 506.682 106.864 506.061 106.864C505.633 106.864 505.25 106.956 504.913 107.142C504.58 107.328 504.317 107.598 504.124 107.955C503.93 108.311 503.834 108.742 503.834 109.25ZM519.398 114.682C518.61 114.682 517.919 114.494 517.324 114.119C516.733 113.744 516.271 113.22 515.938 112.545C515.608 111.871 515.443 111.083 515.443 110.182C515.443 109.273 515.608 108.479 515.938 107.801C516.271 107.123 516.733 106.597 517.324 106.222C517.919 105.847 518.61 105.659 519.398 105.659C520.186 105.659 520.875 105.847 521.466 106.222C522.061 106.597 522.523 107.123 522.852 107.801C523.186 108.479 523.352 109.273 523.352 110.182C523.352 111.083 523.186 111.871 522.852 112.545C522.523 113.22 522.061 113.744 521.466 114.119C520.875 114.494 520.186 114.682 519.398 114.682ZM519.398 113.477C519.996 113.477 520.489 113.324 520.875 113.017C521.261 112.71 521.547 112.307 521.733 111.807C521.919 111.307 522.011 110.765 522.011 110.182C522.011 109.598 521.919 109.055 521.733 108.551C521.547 108.047 521.261 107.64 520.875 107.33C520.489 107.019 519.996 106.864 519.398 106.864C518.799 106.864 518.307 107.019 517.92 107.33C517.534 107.64 517.248 108.047 517.062 108.551C516.877 109.055 516.784 109.598 516.784 110.182C516.784 110.765 516.877 111.307 517.062 111.807C517.248 112.307 517.534 112.71 517.92 113.017C518.307 113.324 518.799 113.477 519.398 113.477ZM525.149 114.5V105.773H526.445V107.136H526.558C526.74 106.67 527.034 106.309 527.439 106.051C527.844 105.79 528.331 105.659 528.899 105.659C529.475 105.659 529.954 105.79 530.337 106.051C530.723 106.309 531.024 106.67 531.24 107.136H531.331C531.554 106.686 531.89 106.328 532.337 106.062C532.784 105.794 533.32 105.659 533.945 105.659C534.725 105.659 535.363 105.903 535.859 106.392C536.356 106.877 536.604 107.633 536.604 108.659V114.5H535.263V108.659C535.263 108.015 535.087 107.555 534.734 107.278C534.382 107.002 533.967 106.864 533.49 106.864C532.876 106.864 532.401 107.049 532.064 107.42C531.727 107.788 531.558 108.254 531.558 108.818V114.5H530.195V108.523C530.195 108.027 530.034 107.627 529.712 107.324C529.39 107.017 528.975 106.864 528.467 106.864C528.119 106.864 527.793 106.956 527.49 107.142C527.191 107.328 526.948 107.585 526.763 107.915C526.581 108.241 526.49 108.617 526.49 109.045V114.5H525.149ZM540.146 109.25V114.5H538.805V105.773H540.101V107.136H540.214C540.419 106.693 540.73 106.337 541.146 106.068C541.563 105.795 542.101 105.659 542.76 105.659C543.351 105.659 543.868 105.78 544.311 106.023C544.754 106.261 545.099 106.625 545.345 107.114C545.591 107.598 545.714 108.212 545.714 108.955V114.5H544.374V109.045C544.374 108.36 544.196 107.826 543.839 107.443C543.483 107.057 542.995 106.864 542.374 106.864C541.946 106.864 541.563 106.956 541.226 107.142C540.893 107.328 540.629 107.598 540.436 107.955C540.243 108.311 540.146 108.742 540.146 109.25ZM547.915 114.5V105.773H549.256V114.5H547.915ZM548.597 104.318C548.335 104.318 548.11 104.229 547.92 104.051C547.735 103.873 547.642 103.659 547.642 103.409C547.642 103.159 547.735 102.945 547.92 102.767C548.11 102.589 548.335 102.5 548.597 102.5C548.858 102.5 549.081 102.589 549.267 102.767C549.456 102.945 549.551 103.159 549.551 103.409C549.551 103.659 549.456 103.873 549.267 104.051C549.081 104.229 548.858 104.318 548.597 104.318ZM557.643 107.727L556.439 108.068C556.363 107.867 556.251 107.672 556.104 107.483C555.96 107.29 555.763 107.131 555.513 107.006C555.263 106.881 554.943 106.818 554.553 106.818C554.018 106.818 553.573 106.941 553.217 107.188C552.865 107.43 552.689 107.739 552.689 108.114C552.689 108.447 552.81 108.71 553.053 108.903C553.295 109.097 553.674 109.258 554.189 109.386L555.484 109.705C556.265 109.894 556.846 110.184 557.229 110.574C557.611 110.96 557.803 111.458 557.803 112.068C557.803 112.568 557.659 113.015 557.371 113.409C557.087 113.803 556.689 114.114 556.178 114.341C555.666 114.568 555.071 114.682 554.393 114.682C553.503 114.682 552.767 114.489 552.183 114.102C551.6 113.716 551.231 113.152 551.075 112.409L552.348 112.091C552.469 112.561 552.698 112.913 553.036 113.148C553.376 113.383 553.821 113.5 554.371 113.5C554.996 113.5 555.492 113.367 555.859 113.102C556.231 112.833 556.416 112.511 556.416 112.136C556.416 111.833 556.31 111.58 556.098 111.375C555.886 111.167 555.56 111.011 555.121 110.909L553.666 110.568C552.867 110.379 552.28 110.085 551.905 109.688C551.534 109.286 551.348 108.784 551.348 108.182C551.348 107.689 551.486 107.254 551.763 106.875C552.043 106.496 552.424 106.199 552.905 105.983C553.39 105.767 553.939 105.659 554.553 105.659C555.416 105.659 556.094 105.848 556.587 106.227C557.083 106.606 557.435 107.106 557.643 107.727ZM570.957 105.773L567.73 114.5H566.366L563.139 105.773H564.594L567.003 112.727H567.094L569.503 105.773H570.957ZM575.824 114.682C574.983 114.682 574.258 114.496 573.648 114.125C573.042 113.75 572.574 113.227 572.244 112.557C571.919 111.883 571.756 111.098 571.756 110.205C571.756 109.311 571.919 108.523 572.244 107.841C572.574 107.155 573.032 106.621 573.619 106.239C574.21 105.852 574.9 105.659 575.688 105.659C576.142 105.659 576.591 105.735 577.034 105.886C577.477 106.038 577.881 106.284 578.244 106.625C578.608 106.962 578.898 107.409 579.114 107.966C579.33 108.523 579.438 109.208 579.438 110.023V110.591H572.71V109.432H578.074C578.074 108.939 577.975 108.5 577.778 108.114C577.585 107.727 577.309 107.422 576.949 107.199C576.593 106.975 576.172 106.864 575.688 106.864C575.153 106.864 574.691 106.996 574.301 107.261C573.915 107.523 573.617 107.864 573.409 108.284C573.201 108.705 573.097 109.155 573.097 109.636V110.409C573.097 111.068 573.21 111.627 573.438 112.085C573.669 112.54 573.989 112.886 574.398 113.125C574.807 113.36 575.282 113.477 575.824 113.477C576.176 113.477 576.494 113.428 576.778 113.33C577.066 113.227 577.314 113.076 577.523 112.875C577.731 112.67 577.892 112.417 578.006 112.114L579.301 112.477C579.165 112.917 578.936 113.303 578.614 113.636C578.292 113.966 577.894 114.223 577.42 114.409C576.947 114.591 576.415 114.682 575.824 114.682ZM582.568 102.864V114.5H581.227V102.864H582.568ZM584.774 114.5V105.773H586.115V114.5H584.774ZM585.456 104.318C585.195 104.318 584.969 104.229 584.78 104.051C584.594 103.873 584.501 103.659 584.501 103.409C584.501 103.159 584.594 102.945 584.78 102.767C584.969 102.589 585.195 102.5 585.456 102.5C585.717 102.5 585.941 102.589 586.126 102.767C586.316 102.945 586.411 103.159 586.411 103.409C586.411 103.659 586.316 103.873 586.126 104.051C585.941 104.229 585.717 104.318 585.456 104.318ZM592.116 105.773V106.909H587.594V105.773H592.116ZM588.912 103.682H590.253V112C590.253 112.379 590.308 112.663 590.418 112.852C590.531 113.038 590.675 113.163 590.849 113.227C591.027 113.288 591.215 113.318 591.412 113.318C591.56 113.318 591.681 113.311 591.776 113.295C591.87 113.277 591.946 113.261 592.003 113.25L592.276 114.455C592.185 114.489 592.058 114.523 591.895 114.557C591.732 114.595 591.526 114.614 591.276 114.614C590.897 114.614 590.526 114.532 590.162 114.369C589.802 114.206 589.503 113.958 589.264 113.625C589.029 113.292 588.912 112.871 588.912 112.364V103.682ZM599.474 109.25V114.5H598.134V105.773H599.429V107.136H599.543C599.747 106.693 600.058 106.337 600.474 106.068C600.891 105.795 601.429 105.659 602.088 105.659C602.679 105.659 603.196 105.78 603.639 106.023C604.082 106.261 604.427 106.625 604.673 107.114C604.92 107.598 605.043 108.212 605.043 108.955V114.5H603.702V109.045C603.702 108.36 603.524 107.826 603.168 107.443C602.812 107.057 602.323 106.864 601.702 106.864C601.274 106.864 600.891 106.956 600.554 107.142C600.221 107.328 599.957 107.598 599.764 107.955C599.571 108.311 599.474 108.742 599.474 109.25ZM610.788 114.682C610 114.682 609.309 114.494 608.714 114.119C608.124 113.744 607.661 113.22 607.328 112.545C606.999 111.871 606.834 111.083 606.834 110.182C606.834 109.273 606.999 108.479 607.328 107.801C607.661 107.123 608.124 106.597 608.714 106.222C609.309 105.847 610 105.659 610.788 105.659C611.576 105.659 612.266 105.847 612.857 106.222C613.451 106.597 613.913 107.123 614.243 107.801C614.576 108.479 614.743 109.273 614.743 110.182C614.743 111.083 614.576 111.871 614.243 112.545C613.913 113.22 613.451 113.744 612.857 114.119C612.266 114.494 611.576 114.682 610.788 114.682ZM610.788 113.477C611.387 113.477 611.879 113.324 612.266 113.017C612.652 112.71 612.938 112.307 613.124 111.807C613.309 111.307 613.402 110.765 613.402 110.182C613.402 109.598 613.309 109.055 613.124 108.551C612.938 108.047 612.652 107.64 612.266 107.33C611.879 107.019 611.387 106.864 610.788 106.864C610.19 106.864 609.697 107.019 609.311 107.33C608.925 107.64 608.639 108.047 608.453 108.551C608.268 109.055 608.175 109.598 608.175 110.182C608.175 110.765 608.268 111.307 608.453 111.807C608.639 112.307 608.925 112.71 609.311 113.017C609.697 113.324 610.19 113.477 610.788 113.477ZM617.881 109.25V114.5H616.54V105.773H617.835V107.136H617.949C618.153 106.693 618.464 106.337 618.881 106.068C619.297 105.795 619.835 105.659 620.494 105.659C621.085 105.659 621.602 105.78 622.045 106.023C622.489 106.261 622.833 106.625 623.08 107.114C623.326 107.598 623.449 108.212 623.449 108.955V114.5H622.108V109.045C622.108 108.36 621.93 107.826 621.574 107.443C621.218 107.057 620.729 106.864 620.108 106.864C619.68 106.864 619.297 106.956 618.96 107.142C618.627 107.328 618.364 107.598 618.17 107.955C617.977 108.311 617.881 108.742 617.881 109.25ZM633.558 114.682C632.717 114.682 631.992 114.496 631.382 114.125C630.776 113.75 630.308 113.227 629.979 112.557C629.653 111.883 629.49 111.098 629.49 110.205C629.49 109.311 629.653 108.523 629.979 107.841C630.308 107.155 630.767 106.621 631.354 106.239C631.945 105.852 632.634 105.659 633.422 105.659C633.876 105.659 634.325 105.735 634.768 105.886C635.212 106.038 635.615 106.284 635.979 106.625C636.342 106.962 636.632 107.409 636.848 107.966C637.064 108.523 637.172 109.208 637.172 110.023V110.591H630.445V109.432H635.808C635.808 108.939 635.71 108.5 635.513 108.114C635.32 107.727 635.043 107.422 634.683 107.199C634.327 106.975 633.907 106.864 633.422 106.864C632.888 106.864 632.426 106.996 632.036 107.261C631.649 107.523 631.352 107.864 631.143 108.284C630.935 108.705 630.831 109.155 630.831 109.636V110.409C630.831 111.068 630.945 111.627 631.172 112.085C631.403 112.54 631.723 112.886 632.132 113.125C632.541 113.36 633.017 113.477 633.558 113.477C633.911 113.477 634.229 113.428 634.513 113.33C634.801 113.227 635.049 113.076 635.257 112.875C635.465 112.67 635.626 112.417 635.74 112.114L637.036 112.477C636.899 112.917 636.67 113.303 636.348 113.636C636.026 113.966 635.628 114.223 635.155 114.409C634.681 114.591 634.149 114.682 633.558 114.682ZM645.143 107.727L643.939 108.068C643.863 107.867 643.751 107.672 643.604 107.483C643.46 107.29 643.263 107.131 643.013 107.006C642.763 106.881 642.443 106.818 642.053 106.818C641.518 106.818 641.073 106.941 640.717 107.188C640.365 107.43 640.189 107.739 640.189 108.114C640.189 108.447 640.31 108.71 640.553 108.903C640.795 109.097 641.174 109.258 641.689 109.386L642.984 109.705C643.765 109.894 644.346 110.184 644.729 110.574C645.111 110.96 645.303 111.458 645.303 112.068C645.303 112.568 645.159 113.015 644.871 113.409C644.587 113.803 644.189 114.114 643.678 114.341C643.166 114.568 642.571 114.682 641.893 114.682C641.003 114.682 640.267 114.489 639.683 114.102C639.1 113.716 638.731 113.152 638.575 112.409L639.848 112.091C639.969 112.561 640.198 112.913 640.536 113.148C640.876 113.383 641.321 113.5 641.871 113.5C642.496 113.5 642.992 113.367 643.359 113.102C643.731 112.833 643.916 112.511 643.916 112.136C643.916 111.833 643.81 111.58 643.598 111.375C643.386 111.167 643.06 111.011 642.621 110.909L641.166 110.568C640.367 110.379 639.78 110.085 639.405 109.688C639.034 109.286 638.848 108.784 638.848 108.182C638.848 107.689 638.986 107.254 639.263 106.875C639.543 106.496 639.924 106.199 640.405 105.983C640.89 105.767 641.439 105.659 642.053 105.659C642.916 105.659 643.594 105.848 644.087 106.227C644.583 106.606 644.935 107.106 645.143 107.727ZM650.866 105.773V106.909H646.344V105.773H650.866ZM647.662 103.682H649.003V112C649.003 112.379 649.058 112.663 649.168 112.852C649.281 113.038 649.425 113.163 649.599 113.227C649.777 113.288 649.965 113.318 650.162 113.318C650.31 113.318 650.431 113.311 650.526 113.295C650.62 113.277 650.696 113.261 650.753 113.25L651.026 114.455C650.935 114.489 650.808 114.523 650.645 114.557C650.482 114.595 650.276 114.614 650.026 114.614C649.647 114.614 649.276 114.532 648.912 114.369C648.552 114.206 648.253 113.958 648.014 113.625C647.779 113.292 647.662 112.871 647.662 112.364V103.682ZM656.884 117.773V105.773H658.179V107.159H658.338C658.437 107.008 658.573 106.814 658.747 106.58C658.925 106.341 659.179 106.129 659.509 105.943C659.842 105.754 660.293 105.659 660.861 105.659C661.596 105.659 662.243 105.843 662.804 106.21C663.365 106.578 663.802 107.098 664.116 107.773C664.431 108.447 664.588 109.242 664.588 110.159C664.588 111.083 664.431 111.884 664.116 112.562C663.802 113.237 663.366 113.759 662.81 114.131C662.253 114.498 661.611 114.682 660.884 114.682C660.323 114.682 659.874 114.589 659.537 114.403C659.2 114.214 658.94 114 658.759 113.761C658.577 113.519 658.437 113.318 658.338 113.159H658.224V117.773H656.884ZM658.202 110.136C658.202 110.795 658.298 111.377 658.491 111.881C658.685 112.381 658.967 112.773 659.338 113.057C659.709 113.337 660.164 113.477 660.702 113.477C661.262 113.477 661.73 113.33 662.105 113.034C662.484 112.735 662.768 112.333 662.957 111.83C663.151 111.322 663.247 110.758 663.247 110.136C663.247 109.523 663.152 108.97 662.963 108.477C662.777 107.981 662.495 107.589 662.116 107.301C661.741 107.009 661.27 106.864 660.702 106.864C660.156 106.864 659.698 107.002 659.327 107.278C658.955 107.551 658.675 107.934 658.486 108.426C658.296 108.915 658.202 109.485 658.202 110.136ZM669.929 114.682C669.141 114.682 668.45 114.494 667.855 114.119C667.264 113.744 666.802 113.22 666.469 112.545C666.139 111.871 665.974 111.083 665.974 110.182C665.974 109.273 666.139 108.479 666.469 107.801C666.802 107.123 667.264 106.597 667.855 106.222C668.45 105.847 669.141 105.659 669.929 105.659C670.717 105.659 671.406 105.847 671.997 106.222C672.592 106.597 673.054 107.123 673.384 107.801C673.717 108.479 673.884 109.273 673.884 110.182C673.884 111.083 673.717 111.871 673.384 112.545C673.054 113.22 672.592 113.744 671.997 114.119C671.406 114.494 670.717 114.682 669.929 114.682ZM669.929 113.477C670.527 113.477 671.02 113.324 671.406 113.017C671.793 112.71 672.079 112.307 672.264 111.807C672.45 111.307 672.543 110.765 672.543 110.182C672.543 109.598 672.45 109.055 672.264 108.551C672.079 108.047 671.793 107.64 671.406 107.33C671.02 107.019 670.527 106.864 669.929 106.864C669.33 106.864 668.838 107.019 668.452 107.33C668.065 107.64 667.779 108.047 667.594 108.551C667.408 109.055 667.315 109.598 667.315 110.182C667.315 110.765 667.408 111.307 667.594 111.807C667.779 112.307 668.065 112.71 668.452 113.017C668.838 113.324 669.33 113.477 669.929 113.477ZM675.68 114.5V105.773H676.976V107.091H677.067C677.226 106.659 677.514 106.309 677.93 106.04C678.347 105.771 678.817 105.636 679.339 105.636C679.438 105.636 679.561 105.638 679.709 105.642C679.857 105.646 679.968 105.652 680.044 105.659V107.023C679.999 107.011 679.894 106.994 679.732 106.972C679.572 106.945 679.404 106.932 679.226 106.932C678.802 106.932 678.423 107.021 678.089 107.199C677.76 107.373 677.499 107.616 677.305 107.926C677.116 108.233 677.021 108.583 677.021 108.977V114.5H675.68ZM681.384 114.5V105.773H682.679V107.091H682.77C682.929 106.659 683.217 106.309 683.634 106.04C684.05 105.771 684.52 105.636 685.043 105.636C685.141 105.636 685.264 105.638 685.412 105.642C685.56 105.646 685.671 105.652 685.747 105.659V107.023C685.702 107.011 685.598 106.994 685.435 106.972C685.276 106.945 685.107 106.932 684.929 106.932C684.505 106.932 684.126 107.021 683.793 107.199C683.463 107.373 683.202 107.616 683.009 107.926C682.819 108.233 682.724 108.583 682.724 108.977V114.5H681.384ZM690.366 114.682C689.579 114.682 688.887 114.494 688.293 114.119C687.702 113.744 687.24 113.22 686.906 112.545C686.577 111.871 686.412 111.083 686.412 110.182C686.412 109.273 686.577 108.479 686.906 107.801C687.24 107.123 687.702 106.597 688.293 106.222C688.887 105.847 689.579 105.659 690.366 105.659C691.154 105.659 691.844 105.847 692.435 106.222C693.029 106.597 693.491 107.123 693.821 107.801C694.154 108.479 694.321 109.273 694.321 110.182C694.321 111.083 694.154 111.871 693.821 112.545C693.491 113.22 693.029 113.744 692.435 114.119C691.844 114.494 691.154 114.682 690.366 114.682ZM690.366 113.477C690.965 113.477 691.457 113.324 691.844 113.017C692.23 112.71 692.516 112.307 692.702 111.807C692.887 111.307 692.98 110.765 692.98 110.182C692.98 109.598 692.887 109.055 692.702 108.551C692.516 108.047 692.23 107.64 691.844 107.33C691.457 107.019 690.965 106.864 690.366 106.864C689.768 106.864 689.276 107.019 688.889 107.33C688.503 107.64 688.217 108.047 688.031 108.551C687.846 109.055 687.753 109.598 687.753 110.182C687.753 110.765 687.846 111.307 688.031 111.807C688.217 112.307 688.503 112.71 688.889 113.017C689.276 113.324 689.768 113.477 690.366 113.477ZM442.386 138.682C441.545 138.682 440.82 138.496 440.21 138.125C439.604 137.75 439.136 137.227 438.807 136.557C438.481 135.883 438.318 135.098 438.318 134.205C438.318 133.311 438.481 132.523 438.807 131.841C439.136 131.155 439.595 130.621 440.182 130.239C440.773 129.852 441.462 129.659 442.25 129.659C442.705 129.659 443.153 129.735 443.597 129.886C444.04 130.038 444.443 130.284 444.807 130.625C445.17 130.962 445.46 131.409 445.676 131.966C445.892 132.523 446 133.208 446 134.023V134.591H439.273V133.432H444.636C444.636 132.939 444.538 132.5 444.341 132.114C444.148 131.727 443.871 131.422 443.511 131.199C443.155 130.975 442.735 130.864 442.25 130.864C441.716 130.864 441.254 130.996 440.864 131.261C440.477 131.523 440.18 131.864 439.972 132.284C439.763 132.705 439.659 133.155 439.659 133.636V134.409C439.659 135.068 439.773 135.627 440 136.085C440.231 136.54 440.551 136.886 440.96 137.125C441.369 137.36 441.845 137.477 442.386 137.477C442.739 137.477 443.057 137.428 443.341 137.33C443.629 137.227 443.877 137.076 444.085 136.875C444.294 136.67 444.455 136.417 444.568 136.114L445.864 136.477C445.727 136.917 445.498 137.303 445.176 137.636C444.854 137.966 444.456 138.223 443.983 138.409C443.509 138.591 442.977 138.682 442.386 138.682ZM447.79 138.5V129.773H449.085V131.091H449.176C449.335 130.659 449.623 130.309 450.04 130.04C450.456 129.771 450.926 129.636 451.449 129.636C451.547 129.636 451.67 129.638 451.818 129.642C451.966 129.646 452.078 129.652 452.153 129.659V131.023C452.108 131.011 452.004 130.994 451.841 130.972C451.682 130.945 451.513 130.932 451.335 130.932C450.911 130.932 450.532 131.021 450.199 131.199C449.869 131.373 449.608 131.616 449.415 131.926C449.225 132.233 449.131 132.583 449.131 132.977V138.5H447.79ZM453.493 138.5V129.773H454.788V131.091H454.879C455.038 130.659 455.326 130.309 455.743 130.04C456.16 129.771 456.629 129.636 457.152 129.636C457.25 129.636 457.374 129.638 457.521 129.642C457.669 129.646 457.781 129.652 457.857 129.659V131.023C457.811 131.011 457.707 130.994 457.544 130.972C457.385 130.945 457.216 130.932 457.038 130.932C456.614 130.932 456.235 131.021 455.902 131.199C455.572 131.373 455.311 131.616 455.118 131.926C454.929 132.233 454.834 132.583 454.834 132.977V138.5H453.493ZM462.476 138.682C461.688 138.682 460.997 138.494 460.402 138.119C459.811 137.744 459.349 137.22 459.016 136.545C458.686 135.871 458.521 135.083 458.521 134.182C458.521 133.273 458.686 132.479 459.016 131.801C459.349 131.123 459.811 130.597 460.402 130.222C460.997 129.847 461.688 129.659 462.476 129.659C463.264 129.659 463.953 129.847 464.544 130.222C465.139 130.597 465.601 131.123 465.93 131.801C466.264 132.479 466.43 133.273 466.43 134.182C466.43 135.083 466.264 135.871 465.93 136.545C465.601 137.22 465.139 137.744 464.544 138.119C463.953 138.494 463.264 138.682 462.476 138.682ZM462.476 137.477C463.074 137.477 463.567 137.324 463.953 137.017C464.339 136.71 464.625 136.307 464.811 135.807C464.997 135.307 465.089 134.765 465.089 134.182C465.089 133.598 464.997 133.055 464.811 132.551C464.625 132.047 464.339 131.64 463.953 131.33C463.567 131.019 463.074 130.864 462.476 130.864C461.877 130.864 461.385 131.019 460.999 131.33C460.612 131.64 460.326 132.047 460.141 132.551C459.955 133.055 459.862 133.598 459.862 134.182C459.862 134.765 459.955 135.307 460.141 135.807C460.326 136.307 460.612 136.71 460.999 137.017C461.385 137.324 461.877 137.477 462.476 137.477ZM468.227 138.5V129.773H469.523V131.091H469.614C469.773 130.659 470.061 130.309 470.477 130.04C470.894 129.771 471.364 129.636 471.886 129.636C471.985 129.636 472.108 129.638 472.256 129.642C472.403 129.646 472.515 129.652 472.591 129.659V131.023C472.545 131.011 472.441 130.994 472.278 130.972C472.119 130.945 471.951 130.932 471.773 130.932C471.348 130.932 470.97 131.021 470.636 131.199C470.307 131.373 470.045 131.616 469.852 131.926C469.663 132.233 469.568 132.583 469.568 132.977V138.5H468.227ZM485.317 129.773L482.089 138.5H480.726L477.499 129.773H478.953L481.362 136.727H481.453L483.862 129.773H485.317ZM490.07 138.682C489.282 138.682 488.59 138.494 487.996 138.119C487.405 137.744 486.943 137.22 486.609 136.545C486.28 135.871 486.115 135.083 486.115 134.182C486.115 133.273 486.28 132.479 486.609 131.801C486.943 131.123 487.405 130.597 487.996 130.222C488.59 129.847 489.282 129.659 490.07 129.659C490.857 129.659 491.547 129.847 492.138 130.222C492.732 130.597 493.195 131.123 493.524 131.801C493.857 132.479 494.024 133.273 494.024 134.182C494.024 135.083 493.857 135.871 493.524 136.545C493.195 137.22 492.732 137.744 492.138 138.119C491.547 138.494 490.857 138.682 490.07 138.682ZM490.07 137.477C490.668 137.477 491.161 137.324 491.547 137.017C491.933 136.71 492.219 136.307 492.405 135.807C492.59 135.307 492.683 134.765 492.683 134.182C492.683 133.598 492.59 133.055 492.405 132.551C492.219 132.047 491.933 131.64 491.547 131.33C491.161 131.019 490.668 130.864 490.07 130.864C489.471 130.864 488.979 131.019 488.592 131.33C488.206 131.64 487.92 132.047 487.734 132.551C487.549 133.055 487.456 133.598 487.456 134.182C487.456 134.765 487.549 135.307 487.734 135.807C487.92 136.307 488.206 136.71 488.592 137.017C488.979 137.324 489.471 137.477 490.07 137.477ZM497.162 126.864V138.5H495.821V126.864H497.162ZM504.868 134.932V129.773H506.209V138.5H504.868V137.023H504.777C504.572 137.466 504.254 137.843 503.822 138.153C503.391 138.46 502.845 138.614 502.186 138.614C501.641 138.614 501.156 138.494 500.732 138.256C500.307 138.013 499.974 137.65 499.732 137.165C499.489 136.676 499.368 136.061 499.368 135.318V129.773H500.709V135.227C500.709 135.864 500.887 136.371 501.243 136.75C501.603 137.129 502.061 137.318 502.618 137.318C502.951 137.318 503.29 137.233 503.635 137.062C503.983 136.892 504.275 136.631 504.51 136.278C504.749 135.926 504.868 135.477 504.868 134.932ZM508.415 141.773V129.773H509.71V131.159H509.869C509.968 131.008 510.104 130.814 510.278 130.58C510.456 130.341 510.71 130.129 511.04 129.943C511.373 129.754 511.824 129.659 512.392 129.659C513.127 129.659 513.775 129.843 514.335 130.21C514.896 130.578 515.333 131.098 515.648 131.773C515.962 132.447 516.119 133.242 516.119 134.159C516.119 135.083 515.962 135.884 515.648 136.562C515.333 137.237 514.898 137.759 514.341 138.131C513.784 138.498 513.142 138.682 512.415 138.682C511.854 138.682 511.405 138.589 511.068 138.403C510.731 138.214 510.472 138 510.29 137.761C510.108 137.519 509.968 137.318 509.869 137.159H509.756V141.773H508.415ZM509.733 134.136C509.733 134.795 509.83 135.377 510.023 135.881C510.216 136.381 510.498 136.773 510.869 137.057C511.241 137.337 511.695 137.477 512.233 137.477C512.794 137.477 513.261 137.33 513.636 137.034C514.015 136.735 514.299 136.333 514.489 135.83C514.682 135.322 514.778 134.758 514.778 134.136C514.778 133.523 514.684 132.97 514.494 132.477C514.309 131.981 514.027 131.589 513.648 131.301C513.273 131.009 512.801 130.864 512.233 130.864C511.688 130.864 511.229 131.002 510.858 131.278C510.487 131.551 510.206 131.934 510.017 132.426C509.828 132.915 509.733 133.485 509.733 134.136ZM521.71 129.773V130.909H517.188V129.773H521.71ZM518.506 127.682H519.847V136C519.847 136.379 519.902 136.663 520.011 136.852C520.125 137.038 520.269 137.163 520.443 137.227C520.621 137.288 520.809 137.318 521.006 137.318C521.153 137.318 521.275 137.311 521.369 137.295C521.464 137.277 521.54 137.261 521.597 137.25L521.869 138.455C521.778 138.489 521.652 138.523 521.489 138.557C521.326 138.595 521.119 138.614 520.869 138.614C520.491 138.614 520.119 138.532 519.756 138.369C519.396 138.206 519.097 137.958 518.858 137.625C518.623 137.292 518.506 136.871 518.506 136.364V127.682ZM526.045 138.705C525.492 138.705 524.991 138.6 524.54 138.392C524.089 138.18 523.731 137.875 523.466 137.477C523.201 137.076 523.068 136.591 523.068 136.023C523.068 135.523 523.167 135.117 523.364 134.807C523.561 134.492 523.824 134.246 524.153 134.068C524.483 133.89 524.847 133.758 525.244 133.67C525.646 133.58 526.049 133.508 526.455 133.455C526.985 133.386 527.415 133.335 527.744 133.301C528.078 133.263 528.32 133.201 528.472 133.114C528.627 133.027 528.705 132.875 528.705 132.659V132.614C528.705 132.053 528.551 131.617 528.244 131.307C527.941 130.996 527.481 130.841 526.864 130.841C526.223 130.841 525.722 130.981 525.358 131.261C524.994 131.542 524.739 131.841 524.591 132.159L523.318 131.705C523.545 131.174 523.848 130.761 524.227 130.466C524.61 130.167 525.027 129.958 525.477 129.841C525.932 129.72 526.379 129.659 526.818 129.659C527.098 129.659 527.42 129.693 527.784 129.761C528.152 129.826 528.506 129.96 528.847 130.165C529.191 130.369 529.477 130.678 529.705 131.091C529.932 131.504 530.045 132.057 530.045 132.75V138.5H528.705V137.318H528.636C528.545 137.508 528.394 137.71 528.182 137.926C527.97 138.142 527.688 138.326 527.335 138.477C526.983 138.629 526.553 138.705 526.045 138.705ZM526.25 137.5C526.78 137.5 527.227 137.396 527.591 137.188C527.958 136.979 528.235 136.71 528.42 136.381C528.61 136.051 528.705 135.705 528.705 135.341V134.114C528.648 134.182 528.523 134.244 528.33 134.301C528.14 134.354 527.92 134.402 527.67 134.443C527.424 134.481 527.184 134.515 526.949 134.545C526.718 134.572 526.53 134.595 526.386 134.614C526.038 134.659 525.712 134.733 525.409 134.835C525.11 134.934 524.867 135.083 524.682 135.284C524.5 135.481 524.409 135.75 524.409 136.091C524.409 136.557 524.581 136.909 524.926 137.148C525.275 137.383 525.716 137.5 526.25 137.5ZM536.038 129.773V130.909H531.516V129.773H536.038ZM532.834 127.682H534.175V136C534.175 136.379 534.23 136.663 534.339 136.852C534.453 137.038 534.597 137.163 534.771 137.227C534.949 137.288 535.137 137.318 535.334 137.318C535.482 137.318 535.603 137.311 535.697 137.295C535.792 137.277 535.868 137.261 535.925 137.25L536.197 138.455C536.107 138.489 535.98 138.523 535.817 138.557C535.654 138.595 535.447 138.614 535.197 138.614C534.819 138.614 534.447 138.532 534.084 138.369C533.724 138.206 533.425 137.958 533.186 137.625C532.951 137.292 532.834 136.871 532.834 136.364V127.682ZM537.805 138.5V129.773H539.146V138.5H537.805ZM538.487 128.318C538.226 128.318 538 128.229 537.811 128.051C537.625 127.873 537.533 127.659 537.533 127.409C537.533 127.159 537.625 126.945 537.811 126.767C538 126.589 538.226 126.5 538.487 126.5C538.749 126.5 538.972 126.589 539.158 126.767C539.347 126.945 539.442 127.159 539.442 127.409C539.442 127.659 539.347 127.873 539.158 128.051C538.972 128.229 538.749 128.318 538.487 128.318ZM541.534 138.5V126.864H542.875V131.159H542.989C543.087 131.008 543.223 130.814 543.398 130.58C543.576 130.341 543.83 130.129 544.159 129.943C544.492 129.754 544.943 129.659 545.511 129.659C546.246 129.659 546.894 129.843 547.455 130.21C548.015 130.578 548.453 131.098 548.767 131.773C549.081 132.447 549.239 133.242 549.239 134.159C549.239 135.083 549.081 135.884 548.767 136.562C548.453 137.237 548.017 137.759 547.46 138.131C546.903 138.498 546.261 138.682 545.534 138.682C544.973 138.682 544.525 138.589 544.188 138.403C543.85 138.214 543.591 138 543.409 137.761C543.227 137.519 543.087 137.318 542.989 137.159H542.83V138.5H541.534ZM542.852 134.136C542.852 134.795 542.949 135.377 543.142 135.881C543.335 136.381 543.617 136.773 543.989 137.057C544.36 137.337 544.814 137.477 545.352 137.477C545.913 137.477 546.381 137.33 546.756 137.034C547.134 136.735 547.419 136.333 547.608 135.83C547.801 135.322 547.898 134.758 547.898 134.136C547.898 133.523 547.803 132.97 547.614 132.477C547.428 131.981 547.146 131.589 546.767 131.301C546.392 131.009 545.92 130.864 545.352 130.864C544.807 130.864 544.348 131.002 543.977 131.278C543.606 131.551 543.326 131.934 543.136 132.426C542.947 132.915 542.852 133.485 542.852 134.136ZM556.54 134.932V129.773H557.881V138.5H556.54V137.023H556.449C556.244 137.466 555.926 137.843 555.494 138.153C555.063 138.46 554.517 138.614 553.858 138.614C553.312 138.614 552.828 138.494 552.403 138.256C551.979 138.013 551.646 137.65 551.403 137.165C551.161 136.676 551.04 136.061 551.04 135.318V129.773H552.381V135.227C552.381 135.864 552.559 136.371 552.915 136.75C553.275 137.129 553.733 137.318 554.29 137.318C554.623 137.318 554.962 137.233 555.307 137.062C555.655 136.892 555.947 136.631 556.182 136.278C556.42 135.926 556.54 135.477 556.54 134.932ZM566.268 131.727L565.064 132.068C564.988 131.867 564.876 131.672 564.729 131.483C564.585 131.29 564.388 131.131 564.138 131.006C563.888 130.881 563.568 130.818 563.178 130.818C562.643 130.818 562.198 130.941 561.842 131.188C561.49 131.43 561.314 131.739 561.314 132.114C561.314 132.447 561.435 132.71 561.678 132.903C561.92 133.097 562.299 133.258 562.814 133.386L564.109 133.705C564.89 133.894 565.471 134.184 565.854 134.574C566.236 134.96 566.428 135.458 566.428 136.068C566.428 136.568 566.284 137.015 565.996 137.409C565.712 137.803 565.314 138.114 564.803 138.341C564.291 138.568 563.696 138.682 563.018 138.682C562.128 138.682 561.392 138.489 560.808 138.102C560.225 137.716 559.856 137.152 559.7 136.409L560.973 136.091C561.094 136.561 561.323 136.913 561.661 137.148C562.001 137.383 562.446 137.5 562.996 137.5C563.621 137.5 564.117 137.367 564.484 137.102C564.856 136.833 565.041 136.511 565.041 136.136C565.041 135.833 564.935 135.58 564.723 135.375C564.511 135.167 564.185 135.011 563.746 134.909L562.291 134.568C561.492 134.379 560.905 134.085 560.53 133.688C560.159 133.286 559.973 132.784 559.973 132.182C559.973 131.689 560.111 131.254 560.388 130.875C560.668 130.496 561.049 130.199 561.53 129.983C562.015 129.767 562.564 129.659 563.178 129.659C564.041 129.659 564.719 129.848 565.212 130.227C565.708 130.606 566.06 131.106 566.268 131.727ZM569.173 138.591C568.893 138.591 568.652 138.491 568.452 138.29C568.251 138.089 568.151 137.848 568.151 137.568C568.151 137.288 568.251 137.047 568.452 136.847C568.652 136.646 568.893 136.545 569.173 136.545C569.454 136.545 569.694 136.646 569.895 136.847C570.096 137.047 570.196 137.288 570.196 137.568C570.196 137.754 570.149 137.924 570.054 138.08C569.963 138.235 569.84 138.36 569.685 138.455C569.533 138.545 569.363 138.591 569.173 138.591Z" fill="#121826"/>
<path d="M721.5 84.5L436.5 84.5C434.291 84.5 432.5 86.2909 432.5 88.5L432.5 106C432.5 108.209 430.709 110 428.5 110L407.5 110" stroke="#CA3A31" stroke-opacity="0.1" stroke-width="2" stroke-linecap="round"/>
<rect x="0.5" y="0.5" width="794" height="240" rx="7.5" stroke="#CA3A31" stroke-opacity="0.1"/>
</svg>
