<svg width="390" height="209" viewBox="0 0 390 209" fill="none" xmlns="http://www.w3.org/2000/svg">
<rect width="390" height="209" rx="8" fill="#CA3A31" fill-opacity="0.1"/>
<path d="M41.5994 188.511L30.6681 169.528C30.395 169.062 30.005 168.677 29.5369 168.409C29.0688 168.141 28.5388 168 27.9994 168C27.46 168 26.93 168.141 26.4619 168.409C25.9938 168.677 25.6038 169.062 25.3306 169.528L14.3994 188.511C14.1366 188.961 13.998 189.473 13.998 189.994C13.998 190.515 14.1366 191.026 14.3994 191.476C14.6691 191.944 15.0584 192.332 15.5273 192.6C15.9963 192.868 16.5281 193.006 17.0681 193H38.9306C39.4702 193.005 40.0015 192.867 40.47 192.599C40.9385 192.331 41.3274 191.944 41.5969 191.476C41.8601 191.027 41.999 190.515 41.9995 189.994C41.9999 189.473 41.8618 188.961 41.5994 188.511ZM26.9994 178C26.9994 177.735 27.1047 177.481 27.2923 177.293C27.4798 177.105 27.7342 177 27.9994 177C28.2646 177 28.519 177.105 28.7065 177.293C28.894 177.481 28.9994 177.735 28.9994 178V183C28.9994 183.265 28.894 183.52 28.7065 183.707C28.519 183.895 28.2646 184 27.9994 184C27.7342 184 27.4798 183.895 27.2923 183.707C27.1047 183.52 26.9994 183.265 26.9994 183V178ZM27.9994 189C27.7027 189 27.4127 188.912 27.166 188.747C26.9194 188.582 26.7271 188.348 26.6136 188.074C26.5 187.8 26.4703 187.498 26.5282 187.207C26.5861 186.916 26.7289 186.649 26.9387 186.439C27.1485 186.23 27.4158 186.087 27.7068 186.029C27.9977 185.971 28.2993 186.001 28.5734 186.114C28.8475 186.228 29.0818 186.42 29.2466 186.667C29.4114 186.913 29.4994 187.203 29.4994 187.5C29.4994 187.898 29.3414 188.279 29.06 188.561C28.7787 188.842 28.3972 189 27.9994 189Z" fill="#CA3A31"/>
<path d="M39 73.7C39 72.5799 39 72.0198 39.218 71.592C39.4097 71.2157 39.7157 70.9097 40.092 70.718C40.5198 70.5 41.0799 70.5 42.2 70.5H55.8C56.9201 70.5 57.4802 70.5 57.908 70.718C58.2843 70.9097 58.5903 71.2157 58.782 71.592C59 72.0198 59 72.5799 59 73.7V87.3C59 88.4201 59 88.9802 58.782 89.408C58.5903 89.7843 58.2843 90.0903 57.908 90.282C57.4802 90.5 56.9201 90.5 55.8 90.5H42.2C41.0799 90.5 40.5198 90.5 40.092 90.282C39.7157 90.0903 39.4097 89.7843 39.218 89.408C39 88.9802 39 88.4201 39 87.3V73.7Z" fill="#217CF5"/>
<path d="M55.5306 77.5313L47.5306 85.5313C47.4609 85.6012 47.3781 85.6567 47.287 85.6946C47.1958 85.7324 47.0981 85.7519 46.9993 85.7519C46.9006 85.7519 46.8029 85.7324 46.7117 85.6946C46.6206 85.6567 46.5378 85.6012 46.4681 85.5313L42.9681 82.0313C42.8983 81.9615 42.843 81.8787 42.8052 81.7876C42.7675 81.6964 42.748 81.5987 42.748 81.5001C42.748 81.4014 42.7675 81.3037 42.8052 81.2125C42.843 81.1214 42.8983 81.0386 42.9681 80.9688C43.0379 80.899 43.1207 80.8437 43.2118 80.8059C43.303 80.7682 43.4007 80.7487 43.4993 80.7487C43.598 80.7487 43.6957 80.7682 43.7869 80.8059C43.878 80.8437 43.9608 80.899 44.0306 80.9688L47 83.9382L54.4693 76.4701C54.6102 76.3292 54.8013 76.25 55.0006 76.25C55.1999 76.25 55.391 76.3292 55.5318 76.4701C55.6727 76.6109 55.7519 76.802 55.7519 77.0013C55.7519 77.2006 55.6727 77.3917 55.5318 77.5326L55.5306 77.5313Z" fill="#FCFCFD"/>
<path d="M71.8182 74.8636V86.5H70.4091V74.8636H71.8182ZM81.0298 86.7045C80.4768 86.7045 79.9749 86.6004 79.5241 86.392C79.0734 86.1799 78.7154 85.875 78.4503 85.4773C78.1851 85.0758 78.0526 84.5909 78.0526 84.0227C78.0526 83.5227 78.151 83.1174 78.348 82.8068C78.545 82.4924 78.8082 82.2462 79.1378 82.0682C79.4673 81.8902 79.831 81.7576 80.2287 81.6705C80.6302 81.5795 81.0336 81.5076 81.4389 81.4545C81.9692 81.3864 82.3991 81.3352 82.7287 81.3011C83.062 81.2633 83.3045 81.2008 83.456 81.1136C83.6113 81.0265 83.6889 80.875 83.6889 80.6591V80.6136C83.6889 80.053 83.5355 79.6174 83.2287 79.3068C82.9257 78.9962 82.4654 78.8409 81.848 78.8409C81.2079 78.8409 80.706 78.9811 80.3423 79.2614C79.9787 79.5417 79.723 79.8409 79.5753 80.1591L78.3026 79.7045C78.5298 79.1742 78.8329 78.7614 79.2116 78.4659C79.5942 78.1667 80.0109 77.9583 80.4616 77.8409C80.9162 77.7197 81.3632 77.6591 81.8026 77.6591C82.0829 77.6591 82.4048 77.6932 82.7685 77.7614C83.1359 77.8258 83.4901 77.9602 83.831 78.1648C84.1757 78.3693 84.4616 78.678 84.6889 79.0909C84.9162 79.5038 85.0298 80.0568 85.0298 80.75V86.5H83.6889V85.3182H83.6207C83.5298 85.5076 83.3783 85.7102 83.1662 85.9261C82.9541 86.142 82.6719 86.3258 82.3196 86.4773C81.9673 86.6288 81.5374 86.7045 81.0298 86.7045ZM81.2344 85.5C81.7647 85.5 82.2116 85.3958 82.5753 85.1875C82.9427 84.9792 83.2192 84.7102 83.4048 84.3807C83.5942 84.0511 83.6889 83.7045 83.6889 83.3409V82.1136C83.6321 82.1818 83.5071 82.2443 83.3139 82.3011C83.1245 82.3542 82.9048 82.4015 82.6548 82.4432C82.4086 82.4811 82.1681 82.5152 81.9332 82.5455C81.7022 82.572 81.5147 82.5947 81.3707 82.6136C81.0223 82.6591 80.6965 82.733 80.3935 82.8352C80.0942 82.9337 79.8518 83.0833 79.6662 83.2841C79.4844 83.4811 79.3935 83.75 79.3935 84.0909C79.3935 84.5568 79.5658 84.9091 79.9105 85.1477C80.259 85.3826 80.7003 85.5 81.2344 85.5ZM90.75 89.9545C90.1023 89.9545 89.5455 89.8712 89.0795 89.7045C88.6136 89.5417 88.2254 89.3258 87.9148 89.0568C87.608 88.7917 87.3636 88.5076 87.1818 88.2045L88.25 87.4545C88.3712 87.6136 88.5246 87.7955 88.7102 88C88.8958 88.2083 89.1496 88.3883 89.4716 88.5398C89.7973 88.6951 90.2235 88.7727 90.75 88.7727C91.4545 88.7727 92.036 88.6023 92.4943 88.2614C92.9527 87.9205 93.1818 87.3864 93.1818 86.6591V84.8864H93.0682C92.9697 85.0455 92.8295 85.2424 92.6477 85.4773C92.4697 85.7083 92.2121 85.9148 91.875 86.0966C91.5417 86.2746 91.0909 86.3636 90.5227 86.3636C89.8182 86.3636 89.1856 86.197 88.625 85.8636C88.0682 85.5303 87.6269 85.0455 87.3011 84.4091C86.9792 83.7727 86.8182 83 86.8182 82.0909C86.8182 81.197 86.9754 80.4186 87.2898 79.7557C87.6042 79.089 88.0417 78.5739 88.6023 78.2102C89.1629 77.8428 89.8106 77.6591 90.5455 77.6591C91.1136 77.6591 91.5644 77.7538 91.8977 77.9432C92.2348 78.1288 92.4924 78.3409 92.6705 78.5795C92.8523 78.8144 92.9924 79.0076 93.0909 79.1591H93.2273V77.7727H94.5227V86.75C94.5227 87.5 94.3523 88.1098 94.0114 88.5795C93.6742 89.053 93.2197 89.3996 92.6477 89.6193C92.0795 89.8428 91.447 89.9545 90.75 89.9545ZM90.7045 85.1591C91.2424 85.1591 91.697 85.036 92.0682 84.7898C92.4394 84.5436 92.7216 84.1894 92.9148 83.7273C93.108 83.2652 93.2045 82.7121 93.2045 82.0682C93.2045 81.4394 93.1098 80.8845 92.9205 80.4034C92.7311 79.9223 92.4508 79.5455 92.0795 79.2727C91.7083 79 91.25 78.8636 90.7045 78.8636C90.1364 78.8636 89.6629 79.0076 89.2841 79.2955C88.9091 79.5833 88.6269 79.9697 88.4375 80.4545C88.2519 80.9394 88.1591 81.4773 88.1591 82.0682C88.1591 82.6742 88.2538 83.2102 88.4432 83.6761C88.6364 84.1383 88.9205 84.5019 89.2955 84.767C89.6742 85.0284 90.1439 85.1591 90.7045 85.1591ZM96.7273 86.5V77.7727H98.0227V79.0909H98.1136C98.2727 78.6591 98.5606 78.3087 98.9773 78.0398C99.3939 77.7708 99.8636 77.6364 100.386 77.6364C100.485 77.6364 100.608 77.6383 100.756 77.642C100.903 77.6458 101.015 77.6515 101.091 77.6591V79.0227C101.045 79.0114 100.941 78.9943 100.778 78.9716C100.619 78.9451 100.451 78.9318 100.273 78.9318C99.8485 78.9318 99.4697 79.0208 99.1364 79.1989C98.8068 79.3731 98.5455 79.6155 98.3523 79.9261C98.1629 80.233 98.0682 80.5833 98.0682 80.9773V86.5H96.7273ZM105.824 86.6818C104.983 86.6818 104.258 86.4962 103.648 86.125C103.042 85.75 102.574 85.2273 102.244 84.5568C101.919 83.8826 101.756 83.0985 101.756 82.2045C101.756 81.3106 101.919 80.5227 102.244 79.8409C102.574 79.1553 103.032 78.6212 103.619 78.2386C104.21 77.8523 104.9 77.6591 105.688 77.6591C106.142 77.6591 106.591 77.7348 107.034 77.8864C107.477 78.0379 107.881 78.2841 108.244 78.625C108.608 78.9621 108.898 79.4091 109.114 79.9659C109.33 80.5227 109.438 81.2083 109.438 82.0227V82.5909H102.71V81.4318H108.074C108.074 80.9394 107.975 80.5 107.778 80.1136C107.585 79.7273 107.309 79.4223 106.949 79.1989C106.593 78.9754 106.172 78.8636 105.688 78.8636C105.153 78.8636 104.691 78.9962 104.301 79.2614C103.915 79.5227 103.617 79.8636 103.409 80.2841C103.201 80.7045 103.097 81.1553 103.097 81.6364V82.4091C103.097 83.0682 103.21 83.6269 103.438 84.0852C103.669 84.5398 103.989 84.8864 104.398 85.125C104.807 85.3598 105.282 85.4773 105.824 85.4773C106.176 85.4773 106.494 85.428 106.778 85.3295C107.066 85.2273 107.314 85.0758 107.523 84.875C107.731 84.6705 107.892 84.4167 108.006 84.1136L109.301 84.4773C109.165 84.9167 108.936 85.303 108.614 85.6364C108.292 85.9659 107.894 86.2235 107.42 86.4091C106.947 86.5909 106.415 86.6818 105.824 86.6818ZM114.886 86.6818C114.045 86.6818 113.32 86.4962 112.71 86.125C112.104 85.75 111.636 85.2273 111.307 84.5568C110.981 83.8826 110.818 83.0985 110.818 82.2045C110.818 81.3106 110.981 80.5227 111.307 79.8409C111.636 79.1553 112.095 78.6212 112.682 78.2386C113.273 77.8523 113.962 77.6591 114.75 77.6591C115.205 77.6591 115.653 77.7348 116.097 77.8864C116.54 78.0379 116.943 78.2841 117.307 78.625C117.67 78.9621 117.96 79.4091 118.176 79.9659C118.392 80.5227 118.5 81.2083 118.5 82.0227V82.5909H111.773V81.4318H117.136C117.136 80.9394 117.038 80.5 116.841 80.1136C116.648 79.7273 116.371 79.4223 116.011 79.1989C115.655 78.9754 115.235 78.8636 114.75 78.8636C114.216 78.8636 113.754 78.9962 113.364 79.2614C112.977 79.5227 112.68 79.8636 112.472 80.2841C112.263 80.7045 112.159 81.1553 112.159 81.6364V82.4091C112.159 83.0682 112.273 83.6269 112.5 84.0852C112.731 84.5398 113.051 84.8864 113.46 85.125C113.869 85.3598 114.345 85.4773 114.886 85.4773C115.239 85.4773 115.557 85.428 115.841 85.3295C116.129 85.2273 116.377 85.0758 116.585 84.875C116.794 84.6705 116.955 84.4167 117.068 84.1136L118.364 84.4773C118.227 84.9167 117.998 85.303 117.676 85.6364C117.354 85.9659 116.956 86.2235 116.483 86.4091C116.009 86.5909 115.477 86.6818 114.886 86.6818ZM126.517 86.5L123.858 77.7727H125.267L127.153 84.4545H127.244L129.108 77.7727H130.54L132.381 84.4318H132.472L134.358 77.7727H135.767L133.108 86.5H131.79L129.881 79.7955H129.744L127.835 86.5H126.517ZM137.29 86.5V77.7727H138.631V86.5H137.29ZM137.972 76.3182C137.71 76.3182 137.485 76.2292 137.295 76.0511C137.11 75.8731 137.017 75.6591 137.017 75.4091C137.017 75.1591 137.11 74.9451 137.295 74.767C137.485 74.589 137.71 74.5 137.972 74.5C138.233 74.5 138.456 74.589 138.642 74.767C138.831 74.9451 138.926 75.1591 138.926 75.4091C138.926 75.6591 138.831 75.8731 138.642 76.0511C138.456 76.2292 138.233 76.3182 137.972 76.3182ZM144.632 77.7727V78.9091H140.109V77.7727H144.632ZM141.428 75.6818H142.768V84C142.768 84.3788 142.823 84.6629 142.933 84.8523C143.047 85.0379 143.191 85.1629 143.365 85.2273C143.543 85.2879 143.731 85.3182 143.928 85.3182C144.075 85.3182 144.196 85.3106 144.291 85.2955C144.386 85.2765 144.462 85.2614 144.518 85.25L144.791 86.4545C144.7 86.4886 144.573 86.5227 144.411 86.5568C144.248 86.5947 144.041 86.6136 143.791 86.6136C143.412 86.6136 143.041 86.5322 142.678 86.3693C142.318 86.2064 142.018 85.9583 141.78 85.625C141.545 85.2917 141.428 84.8712 141.428 84.3636V75.6818ZM147.928 81.25V86.5H146.587V74.8636H147.928V79.1364H148.041C148.246 78.6856 148.553 78.3277 148.962 78.0625C149.375 77.7936 149.924 77.6591 150.609 77.6591C151.204 77.6591 151.725 77.7784 152.172 78.017C152.619 78.2519 152.965 78.6136 153.212 79.1023C153.462 79.5871 153.587 80.2045 153.587 80.9545V86.5H152.246V81.0455C152.246 80.3523 152.066 79.8163 151.706 79.4375C151.35 79.0549 150.856 78.8636 150.223 78.8636C149.784 78.8636 149.39 78.9564 149.041 79.142C148.696 79.3277 148.424 79.5985 148.223 79.9545C148.026 80.3106 147.928 80.7424 147.928 81.25ZM313.311 86.7045C312.758 86.7045 312.256 86.6004 311.805 86.392C311.355 86.1799 310.997 85.875 310.732 85.4773C310.466 85.0758 310.334 84.5909 310.334 84.0227C310.334 83.5227 310.432 83.1174 310.629 82.8068C310.826 82.4924 311.089 82.2462 311.419 82.0682C311.749 81.8902 312.112 81.7576 312.51 81.6705C312.911 81.5795 313.315 81.5076 313.72 81.4545C314.25 81.3864 314.68 81.3352 315.01 81.3011C315.343 81.2633 315.586 81.2008 315.737 81.1136C315.893 81.0265 315.97 80.875 315.97 80.6591V80.6136C315.97 80.053 315.817 79.6174 315.51 79.3068C315.207 78.9962 314.747 78.8409 314.129 78.8409C313.489 78.8409 312.987 78.9811 312.624 79.2614C312.26 79.5417 312.004 79.8409 311.857 80.1591L310.584 79.7045C310.811 79.1742 311.114 78.7614 311.493 78.4659C311.875 78.1667 312.292 77.9583 312.743 77.8409C313.197 77.7197 313.644 77.6591 314.084 77.6591C314.364 77.6591 314.686 77.6932 315.05 77.7614C315.417 77.8258 315.771 77.9602 316.112 78.1648C316.457 78.3693 316.743 78.678 316.97 79.0909C317.197 79.5038 317.311 80.0568 317.311 80.75V86.5H315.97V85.3182H315.902C315.811 85.5076 315.66 85.7102 315.447 85.9261C315.235 86.142 314.953 86.3258 314.601 86.4773C314.249 86.6288 313.819 86.7045 313.311 86.7045ZM313.516 85.5C314.046 85.5 314.493 85.3958 314.857 85.1875C315.224 84.9792 315.5 84.7102 315.686 84.3807C315.875 84.0511 315.97 83.7045 315.97 83.3409V82.1136C315.913 82.1818 315.788 82.2443 315.595 82.3011C315.406 82.3542 315.186 82.4015 314.936 82.4432C314.69 82.4811 314.449 82.5152 314.214 82.5455C313.983 82.572 313.796 82.5947 313.652 82.6136C313.304 82.6591 312.978 82.733 312.675 82.8352C312.375 82.9337 312.133 83.0833 311.947 83.2841C311.766 83.4811 311.675 83.75 311.675 84.0909C311.675 84.5568 311.847 84.9091 312.192 85.1477C312.54 85.3826 312.982 85.5 313.516 85.5ZM320.849 81.25V86.5H319.509V77.7727H320.804V79.1364H320.918C321.122 78.6932 321.433 78.3371 321.849 78.0682C322.266 77.7955 322.804 77.6591 323.463 77.6591C324.054 77.6591 324.571 77.7803 325.014 78.0227C325.457 78.2614 325.802 78.625 326.048 79.1136C326.295 79.5985 326.418 80.2121 326.418 80.9545V86.5H325.077V81.0455C325.077 80.3598 324.899 79.8258 324.543 79.4432C324.187 79.0568 323.698 78.8636 323.077 78.8636C322.649 78.8636 322.266 78.9564 321.929 79.142C321.596 79.3277 321.332 79.5985 321.139 79.9545C320.946 80.3106 320.849 80.7424 320.849 81.25ZM331.913 86.6818C331.186 86.6818 330.544 86.4981 329.987 86.1307C329.43 85.7595 328.995 85.2367 328.68 84.5625C328.366 83.8845 328.209 83.0833 328.209 82.1591C328.209 81.2424 328.366 80.447 328.68 79.7727C328.995 79.0985 329.432 78.5777 329.993 78.2102C330.554 77.8428 331.201 77.6591 331.936 77.6591C332.504 77.6591 332.953 77.7538 333.283 77.9432C333.616 78.1288 333.87 78.3409 334.044 78.5795C334.222 78.8144 334.36 79.0076 334.459 79.1591H334.572V74.8636H335.913V86.5H334.618V85.1591H334.459C334.36 85.3182 334.22 85.5189 334.038 85.7614C333.857 86 333.597 86.214 333.26 86.4034C332.923 86.589 332.474 86.6818 331.913 86.6818ZM332.095 85.4773C332.633 85.4773 333.088 85.3371 333.459 85.0568C333.83 84.7727 334.112 84.3807 334.305 83.8807C334.499 83.3769 334.595 82.7955 334.595 82.1364C334.595 81.4848 334.5 80.9148 334.311 80.4261C334.122 79.9337 333.841 79.5511 333.47 79.2784C333.099 79.0019 332.641 78.8636 332.095 78.8636C331.527 78.8636 331.054 79.0095 330.675 79.3011C330.3 79.589 330.018 79.9811 329.828 80.4773C329.643 80.9697 329.55 81.5227 329.55 82.1364C329.55 82.7576 329.644 83.322 329.834 83.8295C330.027 84.3333 330.311 84.7348 330.686 85.0341C331.065 85.3295 331.535 85.4773 332.095 85.4773ZM344.146 74.8636V86.5H342.737V74.8636H344.146ZM70.2273 113.773V101.773H71.5227V103.159H71.6818C71.7803 103.008 71.9167 102.814 72.0909 102.58C72.2689 102.341 72.5227 102.129 72.8523 101.943C73.1856 101.754 73.6364 101.659 74.2045 101.659C74.9394 101.659 75.5871 101.843 76.1477 102.21C76.7083 102.578 77.1458 103.098 77.4602 103.773C77.7746 104.447 77.9318 105.242 77.9318 106.159C77.9318 107.083 77.7746 107.884 77.4602 108.562C77.1458 109.237 76.7102 109.759 76.1534 110.131C75.5966 110.498 74.9545 110.682 74.2273 110.682C73.6667 110.682 73.2178 110.589 72.8807 110.403C72.5436 110.214 72.2841 110 72.1023 109.761C71.9205 109.519 71.7803 109.318 71.6818 109.159H71.5682V113.773H70.2273ZM71.5455 106.136C71.5455 106.795 71.642 107.377 71.8352 107.881C72.0284 108.381 72.3106 108.773 72.6818 109.057C73.053 109.337 73.5076 109.477 74.0455 109.477C74.6061 109.477 75.0739 109.33 75.4489 109.034C75.8277 108.735 76.1117 108.333 76.3011 107.83C76.4943 107.322 76.5909 106.758 76.5909 106.136C76.5909 105.523 76.4962 104.97 76.3068 104.477C76.1212 103.981 75.839 103.589 75.4602 103.301C75.0852 103.009 74.6136 102.864 74.0455 102.864C73.5 102.864 73.0417 103.002 72.6705 103.278C72.2992 103.551 72.0189 103.934 71.8295 104.426C71.6402 104.915 71.5455 105.485 71.5455 106.136ZM79.7273 110.5V101.773H81.0227V103.091H81.1136C81.2727 102.659 81.5606 102.309 81.9773 102.04C82.3939 101.771 82.8636 101.636 83.3864 101.636C83.4848 101.636 83.608 101.638 83.7557 101.642C83.9034 101.646 84.0152 101.652 84.0909 101.659V103.023C84.0455 103.011 83.9413 102.994 83.7784 102.972C83.6193 102.945 83.4508 102.932 83.2727 102.932C82.8485 102.932 82.4697 103.021 82.1364 103.199C81.8068 103.373 81.5455 103.616 81.3523 103.926C81.1629 104.233 81.0682 104.583 81.0682 104.977V110.5H79.7273ZM88.7102 110.682C87.9223 110.682 87.2311 110.494 86.6364 110.119C86.0455 109.744 85.5833 109.22 85.25 108.545C84.9205 107.871 84.7557 107.083 84.7557 106.182C84.7557 105.273 84.9205 104.479 85.25 103.801C85.5833 103.123 86.0455 102.597 86.6364 102.222C87.2311 101.847 87.9223 101.659 88.7102 101.659C89.4981 101.659 90.1875 101.847 90.7784 102.222C91.3731 102.597 91.8352 103.123 92.1648 103.801C92.4981 104.479 92.6648 105.273 92.6648 106.182C92.6648 107.083 92.4981 107.871 92.1648 108.545C91.8352 109.22 91.3731 109.744 90.7784 110.119C90.1875 110.494 89.4981 110.682 88.7102 110.682ZM88.7102 109.477C89.3087 109.477 89.8011 109.324 90.1875 109.017C90.5739 108.71 90.8598 108.307 91.0455 107.807C91.2311 107.307 91.3239 106.765 91.3239 106.182C91.3239 105.598 91.2311 105.055 91.0455 104.551C90.8598 104.047 90.5739 103.64 90.1875 103.33C89.8011 103.019 89.3087 102.864 88.7102 102.864C88.1117 102.864 87.6193 103.019 87.233 103.33C86.8466 103.64 86.5606 104.047 86.375 104.551C86.1894 105.055 86.0966 105.598 86.0966 106.182C86.0966 106.765 86.1894 107.307 86.375 107.807C86.5606 108.307 86.8466 108.71 87.233 109.017C87.6193 109.324 88.1117 109.477 88.7102 109.477ZM94.4616 110.5V101.773H95.7571V103.136H95.8707C96.0526 102.67 96.3461 102.309 96.7514 102.051C97.1567 101.79 97.6435 101.659 98.2116 101.659C98.7874 101.659 99.2666 101.79 99.6491 102.051C100.036 102.309 100.337 102.67 100.553 103.136H100.643C100.867 102.686 101.202 102.328 101.649 102.062C102.096 101.794 102.632 101.659 103.257 101.659C104.037 101.659 104.676 101.903 105.172 102.392C105.668 102.877 105.916 103.633 105.916 104.659V110.5H104.575V104.659C104.575 104.015 104.399 103.555 104.047 103.278C103.695 103.002 103.28 102.864 102.803 102.864C102.189 102.864 101.714 103.049 101.376 103.42C101.039 103.788 100.871 104.254 100.871 104.818V110.5H99.5071V104.523C99.5071 104.027 99.3461 103.627 99.0241 103.324C98.7022 103.017 98.2874 102.864 97.7798 102.864C97.4313 102.864 97.1056 102.956 96.8026 103.142C96.5033 103.328 96.2609 103.585 96.0753 103.915C95.8935 104.241 95.8026 104.617 95.8026 105.045V110.5H94.4616ZM108.118 110.5V101.773H109.459V110.5H108.118ZM108.8 100.318C108.538 100.318 108.313 100.229 108.124 100.051C107.938 99.8731 107.845 99.6591 107.845 99.4091C107.845 99.1591 107.938 98.9451 108.124 98.767C108.313 98.589 108.538 98.5 108.8 98.5C109.061 98.5 109.285 98.589 109.47 98.767C109.66 98.9451 109.754 99.1591 109.754 99.4091C109.754 99.6591 109.66 99.8731 109.47 100.051C109.285 100.229 109.061 100.318 108.8 100.318ZM117.847 103.727L116.642 104.068C116.566 103.867 116.455 103.672 116.307 103.483C116.163 103.29 115.966 103.131 115.716 103.006C115.466 102.881 115.146 102.818 114.756 102.818C114.222 102.818 113.777 102.941 113.42 103.188C113.068 103.43 112.892 103.739 112.892 104.114C112.892 104.447 113.013 104.71 113.256 104.903C113.498 105.097 113.877 105.258 114.392 105.386L115.688 105.705C116.468 105.894 117.049 106.184 117.432 106.574C117.814 106.96 118.006 107.458 118.006 108.068C118.006 108.568 117.862 109.015 117.574 109.409C117.29 109.803 116.892 110.114 116.381 110.341C115.869 110.568 115.275 110.682 114.597 110.682C113.706 110.682 112.97 110.489 112.386 110.102C111.803 109.716 111.434 109.152 111.278 108.409L112.551 108.091C112.672 108.561 112.902 108.913 113.239 109.148C113.58 109.383 114.025 109.5 114.574 109.5C115.199 109.5 115.695 109.367 116.062 109.102C116.434 108.833 116.619 108.511 116.619 108.136C116.619 107.833 116.513 107.58 116.301 107.375C116.089 107.167 115.763 107.011 115.324 106.909L113.869 106.568C113.07 106.379 112.483 106.085 112.108 105.688C111.737 105.286 111.551 104.784 111.551 104.182C111.551 103.689 111.689 103.254 111.966 102.875C112.246 102.496 112.627 102.199 113.108 101.983C113.593 101.767 114.142 101.659 114.756 101.659C115.619 101.659 116.297 101.848 116.79 102.227C117.286 102.606 117.638 103.106 117.847 103.727ZM123.433 110.682C122.592 110.682 121.867 110.496 121.257 110.125C120.651 109.75 120.183 109.227 119.854 108.557C119.528 107.883 119.365 107.098 119.365 106.205C119.365 105.311 119.528 104.523 119.854 103.841C120.183 103.155 120.642 102.621 121.229 102.239C121.82 101.852 122.509 101.659 123.297 101.659C123.751 101.659 124.2 101.735 124.643 101.886C125.087 102.038 125.49 102.284 125.854 102.625C126.217 102.962 126.507 103.409 126.723 103.966C126.939 104.523 127.047 105.208 127.047 106.023V106.591H120.32V105.432H125.683C125.683 104.939 125.585 104.5 125.388 104.114C125.195 103.727 124.918 103.422 124.558 103.199C124.202 102.975 123.782 102.864 123.297 102.864C122.763 102.864 122.301 102.996 121.911 103.261C121.524 103.523 121.227 103.864 121.018 104.284C120.81 104.705 120.706 105.155 120.706 105.636V106.409C120.706 107.068 120.82 107.627 121.047 108.085C121.278 108.54 121.598 108.886 122.007 109.125C122.416 109.36 122.892 109.477 123.433 109.477C123.786 109.477 124.104 109.428 124.388 109.33C124.676 109.227 124.924 109.076 125.132 108.875C125.34 108.67 125.501 108.417 125.615 108.114L126.911 108.477C126.774 108.917 126.545 109.303 126.223 109.636C125.901 109.966 125.503 110.223 125.03 110.409C124.556 110.591 124.024 110.682 123.433 110.682ZM136.882 101.773V102.909H132.359V101.773H136.882ZM133.678 99.6818H135.018V108C135.018 108.379 135.073 108.663 135.183 108.852C135.297 109.038 135.441 109.163 135.615 109.227C135.793 109.288 135.981 109.318 136.178 109.318C136.325 109.318 136.446 109.311 136.541 109.295C136.636 109.277 136.712 109.261 136.768 109.25L137.041 110.455C136.95 110.489 136.823 110.523 136.661 110.557C136.498 110.595 136.291 110.614 136.041 110.614C135.662 110.614 135.291 110.532 134.928 110.369C134.568 110.206 134.268 109.958 134.03 109.625C133.795 109.292 133.678 108.871 133.678 108.364V99.6818ZM142.101 110.682C141.313 110.682 140.622 110.494 140.027 110.119C139.436 109.744 138.974 109.22 138.641 108.545C138.311 107.871 138.146 107.083 138.146 106.182C138.146 105.273 138.311 104.479 138.641 103.801C138.974 103.123 139.436 102.597 140.027 102.222C140.622 101.847 141.313 101.659 142.101 101.659C142.889 101.659 143.578 101.847 144.169 102.222C144.764 102.597 145.226 103.123 145.555 103.801C145.889 104.479 146.055 105.273 146.055 106.182C146.055 107.083 145.889 107.871 145.555 108.545C145.226 109.22 144.764 109.744 144.169 110.119C143.578 110.494 142.889 110.682 142.101 110.682ZM142.101 109.477C142.699 109.477 143.192 109.324 143.578 109.017C143.964 108.71 144.25 108.307 144.436 107.807C144.622 107.307 144.714 106.765 144.714 106.182C144.714 105.598 144.622 105.055 144.436 104.551C144.25 104.047 143.964 103.64 143.578 103.33C143.192 103.019 142.699 102.864 142.101 102.864C141.502 102.864 141.01 103.019 140.624 103.33C140.237 103.64 139.951 104.047 139.766 104.551C139.58 105.055 139.487 105.598 139.487 106.182C139.487 106.765 139.58 107.307 139.766 107.807C139.951 108.307 140.237 108.71 140.624 109.017C141.01 109.324 141.502 109.477 142.101 109.477ZM154.67 110.705C154.117 110.705 153.616 110.6 153.165 110.392C152.714 110.18 152.356 109.875 152.091 109.477C151.826 109.076 151.693 108.591 151.693 108.023C151.693 107.523 151.792 107.117 151.989 106.807C152.186 106.492 152.449 106.246 152.778 106.068C153.108 105.89 153.472 105.758 153.869 105.67C154.271 105.58 154.674 105.508 155.08 105.455C155.61 105.386 156.04 105.335 156.369 105.301C156.703 105.263 156.945 105.201 157.097 105.114C157.252 105.027 157.33 104.875 157.33 104.659V104.614C157.33 104.053 157.176 103.617 156.869 103.307C156.566 102.996 156.106 102.841 155.489 102.841C154.848 102.841 154.347 102.981 153.983 103.261C153.619 103.542 153.364 103.841 153.216 104.159L151.943 103.705C152.17 103.174 152.473 102.761 152.852 102.466C153.235 102.167 153.652 101.958 154.102 101.841C154.557 101.72 155.004 101.659 155.443 101.659C155.723 101.659 156.045 101.693 156.409 101.761C156.777 101.826 157.131 101.96 157.472 102.165C157.816 102.369 158.102 102.678 158.33 103.091C158.557 103.504 158.67 104.057 158.67 104.75V110.5H157.33V109.318H157.261C157.17 109.508 157.019 109.71 156.807 109.926C156.595 110.142 156.313 110.326 155.96 110.477C155.608 110.629 155.178 110.705 154.67 110.705ZM154.875 109.5C155.405 109.5 155.852 109.396 156.216 109.188C156.583 108.979 156.86 108.71 157.045 108.381C157.235 108.051 157.33 107.705 157.33 107.341V106.114C157.273 106.182 157.148 106.244 156.955 106.301C156.765 106.354 156.545 106.402 156.295 106.443C156.049 106.481 155.809 106.515 155.574 106.545C155.343 106.572 155.155 106.595 155.011 106.614C154.663 106.659 154.337 106.733 154.034 106.835C153.735 106.934 153.492 107.083 153.307 107.284C153.125 107.481 153.034 107.75 153.034 108.091C153.034 108.557 153.206 108.909 153.551 109.148C153.9 109.383 154.341 109.5 154.875 109.5ZM161.05 110.5V98.8636H162.391V103.159H162.504C162.603 103.008 162.739 102.814 162.913 102.58C163.091 102.341 163.345 102.129 163.675 101.943C164.008 101.754 164.459 101.659 165.027 101.659C165.762 101.659 166.41 101.843 166.97 102.21C167.531 102.578 167.968 103.098 168.283 103.773C168.597 104.447 168.754 105.242 168.754 106.159C168.754 107.083 168.597 107.884 168.283 108.562C167.968 109.237 167.533 109.759 166.976 110.131C166.419 110.498 165.777 110.682 165.05 110.682C164.489 110.682 164.04 110.589 163.703 110.403C163.366 110.214 163.107 110 162.925 109.761C162.743 109.519 162.603 109.318 162.504 109.159H162.345V110.5H161.05ZM162.368 106.136C162.368 106.795 162.464 107.377 162.658 107.881C162.851 108.381 163.133 108.773 163.504 109.057C163.875 109.337 164.33 109.477 164.868 109.477C165.429 109.477 165.896 109.33 166.271 109.034C166.65 108.735 166.934 108.333 167.124 107.83C167.317 107.322 167.413 106.758 167.413 106.136C167.413 105.523 167.319 104.97 167.129 104.477C166.944 103.981 166.661 103.589 166.283 103.301C165.908 103.009 165.436 102.864 164.868 102.864C164.322 102.864 163.864 103.002 163.493 103.278C163.122 103.551 162.841 103.934 162.652 104.426C162.463 104.915 162.368 105.485 162.368 106.136ZM170.555 110.5V101.773H171.896V110.5H170.555ZM171.237 100.318C170.976 100.318 170.75 100.229 170.561 100.051C170.375 99.8731 170.283 99.6591 170.283 99.4091C170.283 99.1591 170.375 98.9451 170.561 98.767C170.75 98.589 170.976 98.5 171.237 98.5C171.499 98.5 171.722 98.589 171.908 98.767C172.097 98.9451 172.192 99.1591 172.192 99.4091C172.192 99.6591 172.097 99.8731 171.908 100.051C171.722 100.229 171.499 100.318 171.237 100.318ZM177.398 110.682C176.67 110.682 176.028 110.498 175.472 110.131C174.915 109.759 174.479 109.237 174.165 108.562C173.85 107.884 173.693 107.083 173.693 106.159C173.693 105.242 173.85 104.447 174.165 103.773C174.479 103.098 174.917 102.578 175.477 102.21C176.038 101.843 176.686 101.659 177.42 101.659C177.989 101.659 178.438 101.754 178.767 101.943C179.1 102.129 179.354 102.341 179.528 102.58C179.706 102.814 179.845 103.008 179.943 103.159H180.057V98.8636H181.398V110.5H180.102V109.159H179.943C179.845 109.318 179.705 109.519 179.523 109.761C179.341 110 179.081 110.214 178.744 110.403C178.407 110.589 177.958 110.682 177.398 110.682ZM177.58 109.477C178.117 109.477 178.572 109.337 178.943 109.057C179.314 108.773 179.597 108.381 179.79 107.881C179.983 107.377 180.08 106.795 180.08 106.136C180.08 105.485 179.985 104.915 179.795 104.426C179.606 103.934 179.326 103.551 178.955 103.278C178.583 103.002 178.125 102.864 177.58 102.864C177.011 102.864 176.538 103.009 176.159 103.301C175.784 103.589 175.502 103.981 175.312 104.477C175.127 104.97 175.034 105.523 175.034 106.136C175.034 106.758 175.129 107.322 175.318 107.83C175.511 108.333 175.795 108.735 176.17 109.034C176.549 109.33 177.019 109.477 177.58 109.477ZM187.449 110.682C186.608 110.682 185.883 110.496 185.273 110.125C184.667 109.75 184.199 109.227 183.869 108.557C183.544 107.883 183.381 107.098 183.381 106.205C183.381 105.311 183.544 104.523 183.869 103.841C184.199 103.155 184.657 102.621 185.244 102.239C185.835 101.852 186.525 101.659 187.312 101.659C187.767 101.659 188.216 101.735 188.659 101.886C189.102 102.038 189.506 102.284 189.869 102.625C190.233 102.962 190.523 103.409 190.739 103.966C190.955 104.523 191.062 105.208 191.062 106.023V106.591H184.335V105.432H189.699C189.699 104.939 189.6 104.5 189.403 104.114C189.21 103.727 188.934 103.422 188.574 103.199C188.218 102.975 187.797 102.864 187.312 102.864C186.778 102.864 186.316 102.996 185.926 103.261C185.54 103.523 185.242 103.864 185.034 104.284C184.826 104.705 184.722 105.155 184.722 105.636V106.409C184.722 107.068 184.835 107.627 185.062 108.085C185.294 108.54 185.614 108.886 186.023 109.125C186.432 109.36 186.907 109.477 187.449 109.477C187.801 109.477 188.119 109.428 188.403 109.33C188.691 109.227 188.939 109.076 189.148 108.875C189.356 108.67 189.517 108.417 189.631 108.114L190.926 108.477C190.79 108.917 190.561 109.303 190.239 109.636C189.917 109.966 189.519 110.223 189.045 110.409C188.572 110.591 188.04 110.682 187.449 110.682ZM197.284 110.5V98.8636H198.625V103.159H198.739C198.837 103.008 198.973 102.814 199.148 102.58C199.326 102.341 199.58 102.129 199.909 101.943C200.242 101.754 200.693 101.659 201.261 101.659C201.996 101.659 202.644 101.843 203.205 102.21C203.765 102.578 204.203 103.098 204.517 103.773C204.831 104.447 204.989 105.242 204.989 106.159C204.989 107.083 204.831 107.884 204.517 108.562C204.203 109.237 203.767 109.759 203.21 110.131C202.653 110.498 202.011 110.682 201.284 110.682C200.723 110.682 200.275 110.589 199.938 110.403C199.6 110.214 199.341 110 199.159 109.761C198.977 109.519 198.837 109.318 198.739 109.159H198.58V110.5H197.284ZM198.602 106.136C198.602 106.795 198.699 107.377 198.892 107.881C199.085 108.381 199.367 108.773 199.739 109.057C200.11 109.337 200.564 109.477 201.102 109.477C201.663 109.477 202.131 109.33 202.506 109.034C202.884 108.735 203.169 108.333 203.358 107.83C203.551 107.322 203.648 106.758 203.648 106.136C203.648 105.523 203.553 104.97 203.364 104.477C203.178 103.981 202.896 103.589 202.517 103.301C202.142 103.009 201.67 102.864 201.102 102.864C200.557 102.864 200.098 103.002 199.727 103.278C199.356 103.551 199.076 103.934 198.886 104.426C198.697 104.915 198.602 105.485 198.602 106.136ZM207.341 113.773C207.114 113.773 206.911 113.754 206.733 113.716C206.555 113.682 206.432 113.648 206.364 113.614L206.705 112.432C207.03 112.515 207.318 112.545 207.568 112.523C207.818 112.5 208.04 112.388 208.233 112.188C208.43 111.991 208.61 111.67 208.773 111.227L209.023 110.545L205.795 101.773H207.25L209.659 108.727H209.75L212.159 101.773H213.614L209.909 111.773C209.742 112.223 209.536 112.597 209.29 112.892C209.044 113.191 208.758 113.413 208.432 113.557C208.11 113.701 207.746 113.773 207.341 113.773ZM223.179 101.773V102.909H218.656V101.773H223.179ZM219.974 99.6818H221.315V108C221.315 108.379 221.37 108.663 221.48 108.852C221.594 109.038 221.738 109.163 221.912 109.227C222.09 109.288 222.277 109.318 222.474 109.318C222.622 109.318 222.743 109.311 222.838 109.295C222.933 109.277 223.009 109.261 223.065 109.25L223.338 110.455C223.247 110.489 223.12 110.523 222.957 110.557C222.795 110.595 222.588 110.614 222.338 110.614C221.959 110.614 221.588 110.532 221.224 110.369C220.865 110.206 220.565 109.958 220.327 109.625C220.092 109.292 219.974 108.871 219.974 108.364V99.6818ZM226.474 105.25V110.5H225.134V98.8636H226.474V103.136H226.588C226.793 102.686 227.099 102.328 227.509 102.062C227.921 101.794 228.471 101.659 229.156 101.659C229.751 101.659 230.272 101.778 230.719 102.017C231.166 102.252 231.512 102.614 231.759 103.102C232.009 103.587 232.134 104.205 232.134 104.955V110.5H230.793V105.045C230.793 104.352 230.613 103.816 230.253 103.438C229.897 103.055 229.402 102.864 228.77 102.864C228.33 102.864 227.937 102.956 227.588 103.142C227.243 103.328 226.971 103.598 226.77 103.955C226.573 104.311 226.474 104.742 226.474 105.25ZM237.996 110.682C237.155 110.682 236.429 110.496 235.82 110.125C235.214 109.75 234.746 109.227 234.416 108.557C234.09 107.883 233.928 107.098 233.928 106.205C233.928 105.311 234.09 104.523 234.416 103.841C234.746 103.155 235.204 102.621 235.791 102.239C236.382 101.852 237.071 101.659 237.859 101.659C238.314 101.659 238.763 101.735 239.206 101.886C239.649 102.038 240.053 102.284 240.416 102.625C240.78 102.962 241.07 103.409 241.286 103.966C241.501 104.523 241.609 105.208 241.609 106.023V106.591H234.882V105.432H240.246C240.246 104.939 240.147 104.5 239.95 104.114C239.757 103.727 239.481 103.422 239.121 103.199C238.765 102.975 238.344 102.864 237.859 102.864C237.325 102.864 236.863 102.996 236.473 103.261C236.087 103.523 235.789 103.864 235.581 104.284C235.373 104.705 235.268 105.155 235.268 105.636V106.409C235.268 107.068 235.382 107.627 235.609 108.085C235.84 108.54 236.161 108.886 236.57 109.125C236.979 109.36 237.454 109.477 237.996 109.477C238.348 109.477 238.666 109.428 238.95 109.33C239.238 109.227 239.486 109.076 239.695 108.875C239.903 108.67 240.064 108.417 240.178 108.114L241.473 108.477C241.337 108.917 241.107 109.303 240.786 109.636C240.464 109.966 240.066 110.223 239.592 110.409C239.119 110.591 238.587 110.682 237.996 110.682ZM243.399 110.5V101.773H244.695V103.136H244.808C244.99 102.67 245.284 102.309 245.689 102.051C246.094 101.79 246.581 101.659 247.149 101.659C247.725 101.659 248.204 101.79 248.587 102.051C248.973 102.309 249.274 102.67 249.49 103.136H249.581C249.804 102.686 250.14 102.328 250.587 102.062C251.034 101.794 251.57 101.659 252.195 101.659C252.975 101.659 253.613 101.903 254.109 102.392C254.606 102.877 254.854 103.633 254.854 104.659V110.5H253.513V104.659C253.513 104.015 253.337 103.555 252.984 103.278C252.632 103.002 252.217 102.864 251.74 102.864C251.126 102.864 250.651 103.049 250.314 103.42C249.977 103.788 249.808 104.254 249.808 104.818V110.5H248.445V104.523C248.445 104.027 248.284 103.627 247.962 103.324C247.64 103.017 247.225 102.864 246.717 102.864C246.369 102.864 246.043 102.956 245.74 103.142C245.441 103.328 245.198 103.585 245.013 103.915C244.831 104.241 244.74 104.617 244.74 105.045V110.5H243.399ZM263.874 110.705C263.321 110.705 262.819 110.6 262.368 110.392C261.917 110.18 261.559 109.875 261.294 109.477C261.029 109.076 260.896 108.591 260.896 108.023C260.896 107.523 260.995 107.117 261.192 106.807C261.389 106.492 261.652 106.246 261.982 106.068C262.311 105.89 262.675 105.758 263.072 105.67C263.474 105.58 263.877 105.508 264.283 105.455C264.813 105.386 265.243 105.335 265.572 105.301C265.906 105.263 266.148 105.201 266.3 105.114C266.455 105.027 266.533 104.875 266.533 104.659V104.614C266.533 104.053 266.379 103.617 266.072 103.307C265.769 102.996 265.309 102.841 264.692 102.841C264.052 102.841 263.55 102.981 263.186 103.261C262.822 103.542 262.567 103.841 262.419 104.159L261.146 103.705C261.374 103.174 261.677 102.761 262.055 102.466C262.438 102.167 262.855 101.958 263.305 101.841C263.76 101.72 264.207 101.659 264.646 101.659C264.927 101.659 265.249 101.693 265.612 101.761C265.98 101.826 266.334 101.96 266.675 102.165C267.019 102.369 267.305 102.678 267.533 103.091C267.76 103.504 267.874 104.057 267.874 104.75V110.5H266.533V109.318H266.464C266.374 109.508 266.222 109.71 266.01 109.926C265.798 110.142 265.516 110.326 265.163 110.477C264.811 110.629 264.381 110.705 263.874 110.705ZM264.078 109.5C264.608 109.5 265.055 109.396 265.419 109.188C265.786 108.979 266.063 108.71 266.249 108.381C266.438 108.051 266.533 107.705 266.533 107.341V106.114C266.476 106.182 266.351 106.244 266.158 106.301C265.968 106.354 265.749 106.402 265.499 106.443C265.252 106.481 265.012 106.515 264.777 106.545C264.546 106.572 264.358 106.595 264.214 106.614C263.866 106.659 263.54 106.733 263.237 106.835C262.938 106.934 262.696 107.083 262.51 107.284C262.328 107.481 262.237 107.75 262.237 108.091C262.237 108.557 262.41 108.909 262.754 109.148C263.103 109.383 263.544 109.5 264.078 109.5ZM271.412 105.25V110.5H270.071V101.773H271.366V103.136H271.48C271.685 102.693 271.995 102.337 272.412 102.068C272.829 101.795 273.366 101.659 274.026 101.659C274.616 101.659 275.134 101.78 275.577 102.023C276.02 102.261 276.365 102.625 276.611 103.114C276.857 103.598 276.98 104.212 276.98 104.955V110.5H275.639V105.045C275.639 104.36 275.461 103.826 275.105 103.443C274.749 103.057 274.26 102.864 273.639 102.864C273.211 102.864 272.829 102.956 272.491 103.142C272.158 103.328 271.895 103.598 271.702 103.955C271.509 104.311 271.412 104.742 271.412 105.25ZM282.476 110.682C281.749 110.682 281.107 110.498 280.55 110.131C279.993 109.759 279.557 109.237 279.243 108.562C278.929 107.884 278.771 107.083 278.771 106.159C278.771 105.242 278.929 104.447 279.243 103.773C279.557 103.098 279.995 102.578 280.555 102.21C281.116 101.843 281.764 101.659 282.499 101.659C283.067 101.659 283.516 101.754 283.845 101.943C284.179 102.129 284.432 102.341 284.607 102.58C284.785 102.814 284.923 103.008 285.021 103.159H285.135V98.8636H286.476V110.5H285.18V109.159H285.021C284.923 109.318 284.783 109.519 284.601 109.761C284.419 110 284.16 110.214 283.822 110.403C283.485 110.589 283.036 110.682 282.476 110.682ZM282.658 109.477C283.196 109.477 283.65 109.337 284.021 109.057C284.393 108.773 284.675 108.381 284.868 107.881C285.061 107.377 285.158 106.795 285.158 106.136C285.158 105.485 285.063 104.915 284.874 104.426C284.684 103.934 284.404 103.551 284.033 103.278C283.661 103.002 283.203 102.864 282.658 102.864C282.089 102.864 281.616 103.009 281.237 103.301C280.862 103.589 280.58 103.981 280.391 104.477C280.205 104.97 280.112 105.523 280.112 106.136C280.112 106.758 280.207 107.322 280.396 107.83C280.589 108.333 280.874 108.735 281.249 109.034C281.627 109.33 282.097 109.477 282.658 109.477ZM294.709 98.8636V110.5H293.3V98.8636H294.709ZM303.33 110.5L300.67 101.773H302.08L303.966 108.455H304.057L305.92 101.773H307.352L309.193 108.432H309.284L311.17 101.773H312.58L309.92 110.5H308.602L306.693 103.795H306.557L304.648 110.5H303.33ZM314.102 110.5V101.773H315.443V110.5H314.102ZM314.784 100.318C314.523 100.318 314.297 100.229 314.108 100.051C313.922 99.8731 313.83 99.6591 313.83 99.4091C313.83 99.1591 313.922 98.9451 314.108 98.767C314.297 98.589 314.523 98.5 314.784 98.5C315.045 98.5 315.269 98.589 315.455 98.767C315.644 98.9451 315.739 99.1591 315.739 99.4091C315.739 99.6591 315.644 99.8731 315.455 100.051C315.269 100.229 315.045 100.318 314.784 100.318ZM318.99 98.8636V110.5H317.649V98.8636H318.99ZM322.537 98.8636V110.5H321.196V98.8636H322.537ZM332.288 110.682C331.561 110.682 330.919 110.498 330.362 110.131C329.805 109.759 329.37 109.237 329.055 108.562C328.741 107.884 328.584 107.083 328.584 106.159C328.584 105.242 328.741 104.447 329.055 103.773C329.37 103.098 329.807 102.578 330.368 102.21C330.929 101.843 331.576 101.659 332.311 101.659C332.879 101.659 333.328 101.754 333.658 101.943C333.991 102.129 334.245 102.341 334.419 102.58C334.597 102.814 334.735 103.008 334.834 103.159H334.947V98.8636H336.288V110.5H334.993V109.159H334.834C334.735 109.318 334.595 109.519 334.413 109.761C334.232 110 333.972 110.214 333.635 110.403C333.298 110.589 332.849 110.682 332.288 110.682ZM332.47 109.477C333.008 109.477 333.463 109.337 333.834 109.057C334.205 108.773 334.487 108.381 334.68 107.881C334.874 107.377 334.97 106.795 334.97 106.136C334.97 105.485 334.875 104.915 334.686 104.426C334.497 103.934 334.216 103.551 333.845 103.278C333.474 103.002 333.016 102.864 332.47 102.864C331.902 102.864 331.429 103.009 331.05 103.301C330.675 103.589 330.393 103.981 330.203 104.477C330.018 104.97 329.925 105.523 329.925 106.136C329.925 106.758 330.019 107.322 330.209 107.83C330.402 108.333 330.686 108.735 331.061 109.034C331.44 109.33 331.91 109.477 332.47 109.477ZM342.226 110.682C341.438 110.682 340.747 110.494 340.152 110.119C339.561 109.744 339.099 109.22 338.766 108.545C338.436 107.871 338.271 107.083 338.271 106.182C338.271 105.273 338.436 104.479 338.766 103.801C339.099 103.123 339.561 102.597 340.152 102.222C340.747 101.847 341.438 101.659 342.226 101.659C343.014 101.659 343.703 101.847 344.294 102.222C344.889 102.597 345.351 103.123 345.68 103.801C346.014 104.479 346.18 105.273 346.18 106.182C346.18 107.083 346.014 107.871 345.68 108.545C345.351 109.22 344.889 109.744 344.294 110.119C343.703 110.494 343.014 110.682 342.226 110.682ZM342.226 109.477C342.824 109.477 343.317 109.324 343.703 109.017C344.089 108.71 344.375 108.307 344.561 107.807C344.747 107.307 344.839 106.765 344.839 106.182C344.839 105.598 344.747 105.055 344.561 104.551C344.375 104.047 344.089 103.64 343.703 103.33C343.317 103.019 342.824 102.864 342.226 102.864C341.627 102.864 341.135 103.019 340.749 103.33C340.362 103.64 340.076 104.047 339.891 104.551C339.705 105.055 339.612 105.598 339.612 106.182C339.612 106.765 339.705 107.307 339.891 107.807C340.076 108.307 340.362 108.71 340.749 109.017C341.135 109.324 341.627 109.477 342.226 109.477ZM70.2273 134.5V125.773H71.5227V127.136H71.6364C71.8182 126.67 72.1117 126.309 72.517 126.051C72.9223 125.79 73.4091 125.659 73.9773 125.659C74.553 125.659 75.0322 125.79 75.4148 126.051C75.8011 126.309 76.1023 126.67 76.3182 127.136H76.4091C76.6326 126.686 76.9678 126.328 77.4148 126.062C77.8617 125.794 78.3977 125.659 79.0227 125.659C79.803 125.659 80.4413 125.903 80.9375 126.392C81.4337 126.877 81.6818 127.633 81.6818 128.659V134.5H80.3409V128.659C80.3409 128.015 80.1648 127.555 79.8125 127.278C79.4602 127.002 79.0455 126.864 78.5682 126.864C77.9545 126.864 77.4792 127.049 77.142 127.42C76.8049 127.788 76.6364 128.254 76.6364 128.818V134.5H75.2727V128.523C75.2727 128.027 75.1117 127.627 74.7898 127.324C74.4678 127.017 74.053 126.864 73.5455 126.864C73.197 126.864 72.8712 126.956 72.5682 127.142C72.2689 127.328 72.0265 127.585 71.8409 127.915C71.6591 128.241 71.5682 128.617 71.5682 129.045V134.5H70.2273ZM84.4347 137.773C84.2074 137.773 84.0047 137.754 83.8267 137.716C83.6487 137.682 83.5256 137.648 83.4574 137.614L83.7983 136.432C84.1241 136.515 84.4119 136.545 84.6619 136.523C84.9119 136.5 85.1335 136.388 85.3267 136.188C85.5237 135.991 85.7036 135.67 85.8665 135.227L86.1165 134.545L82.8892 125.773H84.3438L86.7528 132.727H86.8438L89.2528 125.773H90.7074L87.0028 135.773C86.8362 136.223 86.6297 136.597 86.3835 136.892C86.1373 137.191 85.8513 137.413 85.5256 137.557C85.2036 137.701 84.84 137.773 84.4347 137.773ZM96.6591 134.5V122.864H98V127.159H98.1136C98.2121 127.008 98.3485 126.814 98.5227 126.58C98.7008 126.341 98.9545 126.129 99.2841 125.943C99.6174 125.754 100.068 125.659 100.636 125.659C101.371 125.659 102.019 125.843 102.58 126.21C103.14 126.578 103.578 127.098 103.892 127.773C104.206 128.447 104.364 129.242 104.364 130.159C104.364 131.083 104.206 131.884 103.892 132.562C103.578 133.237 103.142 133.759 102.585 134.131C102.028 134.498 101.386 134.682 100.659 134.682C100.098 134.682 99.6496 134.589 99.3125 134.403C98.9754 134.214 98.7159 134 98.5341 133.761C98.3523 133.519 98.2121 133.318 98.1136 133.159H97.9545V134.5H96.6591ZM97.9773 130.136C97.9773 130.795 98.0739 131.377 98.267 131.881C98.4602 132.381 98.7424 132.773 99.1136 133.057C99.4848 133.337 99.9394 133.477 100.477 133.477C101.038 133.477 101.506 133.33 101.881 133.034C102.259 132.735 102.544 132.333 102.733 131.83C102.926 131.322 103.023 130.758 103.023 130.136C103.023 129.523 102.928 128.97 102.739 128.477C102.553 127.981 102.271 127.589 101.892 127.301C101.517 127.009 101.045 126.864 100.477 126.864C99.9318 126.864 99.4735 127.002 99.1023 127.278C98.7311 127.551 98.4508 127.934 98.2614 128.426C98.072 128.915 97.9773 129.485 97.9773 130.136ZM109.824 134.682C108.983 134.682 108.258 134.496 107.648 134.125C107.042 133.75 106.574 133.227 106.244 132.557C105.919 131.883 105.756 131.098 105.756 130.205C105.756 129.311 105.919 128.523 106.244 127.841C106.574 127.155 107.032 126.621 107.619 126.239C108.21 125.852 108.9 125.659 109.688 125.659C110.142 125.659 110.591 125.735 111.034 125.886C111.477 126.038 111.881 126.284 112.244 126.625C112.608 126.962 112.898 127.409 113.114 127.966C113.33 128.523 113.438 129.208 113.438 130.023V130.591H106.71V129.432H112.074C112.074 128.939 111.975 128.5 111.778 128.114C111.585 127.727 111.309 127.422 110.949 127.199C110.593 126.975 110.172 126.864 109.688 126.864C109.153 126.864 108.691 126.996 108.301 127.261C107.915 127.523 107.617 127.864 107.409 128.284C107.201 128.705 107.097 129.155 107.097 129.636V130.409C107.097 131.068 107.21 131.627 107.438 132.085C107.669 132.54 107.989 132.886 108.398 133.125C108.807 133.36 109.282 133.477 109.824 133.477C110.176 133.477 110.494 133.428 110.778 133.33C111.066 133.227 111.314 133.076 111.523 132.875C111.731 132.67 111.892 132.417 112.006 132.114L113.301 132.477C113.165 132.917 112.936 133.303 112.614 133.636C112.292 133.966 111.894 134.223 111.42 134.409C110.947 134.591 110.415 134.682 109.824 134.682ZM121.409 127.727L120.205 128.068C120.129 127.867 120.017 127.672 119.869 127.483C119.725 127.29 119.528 127.131 119.278 127.006C119.028 126.881 118.708 126.818 118.318 126.818C117.784 126.818 117.339 126.941 116.983 127.188C116.631 127.43 116.455 127.739 116.455 128.114C116.455 128.447 116.576 128.71 116.818 128.903C117.061 129.097 117.439 129.258 117.955 129.386L119.25 129.705C120.03 129.894 120.612 130.184 120.994 130.574C121.377 130.96 121.568 131.458 121.568 132.068C121.568 132.568 121.424 133.015 121.136 133.409C120.852 133.803 120.455 134.114 119.943 134.341C119.432 134.568 118.837 134.682 118.159 134.682C117.269 134.682 116.532 134.489 115.949 134.102C115.366 133.716 114.996 133.152 114.841 132.409L116.114 132.091C116.235 132.561 116.464 132.913 116.801 133.148C117.142 133.383 117.587 133.5 118.136 133.5C118.761 133.5 119.258 133.367 119.625 133.102C119.996 132.833 120.182 132.511 120.182 132.136C120.182 131.833 120.076 131.58 119.864 131.375C119.652 131.167 119.326 131.011 118.886 130.909L117.432 130.568C116.633 130.379 116.045 130.085 115.67 129.688C115.299 129.286 115.114 128.784 115.114 128.182C115.114 127.689 115.252 127.254 115.528 126.875C115.809 126.496 116.189 126.199 116.67 125.983C117.155 125.767 117.705 125.659 118.318 125.659C119.182 125.659 119.86 125.848 120.352 126.227C120.848 126.606 121.201 127.106 121.409 127.727ZM127.132 125.773V126.909H122.609V125.773H127.132ZM123.928 123.682H125.268V132C125.268 132.379 125.323 132.663 125.433 132.852C125.547 133.038 125.691 133.163 125.865 133.227C126.043 133.288 126.231 133.318 126.428 133.318C126.575 133.318 126.696 133.311 126.791 133.295C126.886 133.277 126.962 133.261 127.018 133.25L127.291 134.455C127.2 134.489 127.073 134.523 126.911 134.557C126.748 134.595 126.541 134.614 126.291 134.614C125.912 134.614 125.541 134.532 125.178 134.369C124.818 134.206 124.518 133.958 124.28 133.625C124.045 133.292 123.928 132.871 123.928 132.364V123.682ZM129.876 134.591C129.596 134.591 129.356 134.491 129.155 134.29C128.954 134.089 128.854 133.848 128.854 133.568C128.854 133.288 128.954 133.047 129.155 132.847C129.356 132.646 129.596 132.545 129.876 132.545C130.157 132.545 130.397 132.646 130.598 132.847C130.799 133.047 130.899 133.288 130.899 133.568C130.899 133.754 130.852 133.924 130.757 134.08C130.666 134.235 130.543 134.36 130.388 134.455C130.236 134.545 130.066 134.591 129.876 134.591Z" fill="#121826"/>
<path d="M159.449 76.6307V74.8636H168.733V76.6307H165.136V86.5H163.045V76.6307H159.449ZM172.78 86.6705C171.905 86.6705 171.149 86.4886 170.513 86.125C169.88 85.7576 169.393 85.2386 169.053 84.5682C168.712 83.8939 168.541 83.1004 168.541 82.1875C168.541 81.2898 168.712 80.5019 169.053 79.8239C169.397 79.142 169.878 78.6117 170.496 78.233C171.113 77.8504 171.839 77.6591 172.672 77.6591C173.21 77.6591 173.717 77.7462 174.195 77.9205C174.676 78.0909 175.1 78.3561 175.467 78.7159C175.839 79.0758 176.13 79.5341 176.342 80.0909C176.554 80.6439 176.661 81.303 176.661 82.0682V82.6989H169.507V81.3125H174.689C174.685 80.9186 174.6 80.5682 174.433 80.2614C174.267 79.9508 174.034 79.7064 173.734 79.5284C173.439 79.3504 173.094 79.2614 172.7 79.2614C172.28 79.2614 171.911 79.3636 171.592 79.5682C171.274 79.7689 171.026 80.0341 170.848 80.3636C170.674 80.6894 170.585 81.0473 170.581 81.4375V82.6477C170.581 83.1553 170.674 83.5909 170.859 83.9545C171.045 84.3144 171.304 84.5909 171.638 84.7841C171.971 84.9735 172.361 85.0682 172.808 85.0682C173.107 85.0682 173.378 85.0265 173.621 84.9432C173.863 84.8561 174.073 84.7292 174.251 84.5625C174.429 84.3958 174.564 84.1894 174.655 83.9432L176.575 84.1591C176.454 84.6667 176.223 85.1098 175.882 85.4886C175.545 85.8636 175.113 86.1553 174.587 86.3636C174.06 86.5682 173.458 86.6705 172.78 86.6705ZM178.151 86.5V77.7727H180.145V79.2273H180.236C180.395 78.7235 180.668 78.3352 181.054 78.0625C181.444 77.786 181.889 77.6477 182.389 77.6477C182.503 77.6477 182.63 77.6534 182.77 77.6648C182.914 77.6723 183.033 77.6856 183.128 77.7045V79.5966C183.041 79.5663 182.902 79.5398 182.713 79.517C182.527 79.4905 182.348 79.4773 182.173 79.4773C181.798 79.4773 181.461 79.5587 181.162 79.7216C180.866 79.8807 180.634 80.1023 180.463 80.3864C180.293 80.6705 180.207 80.9981 180.207 81.3693V86.5H178.151ZM184.244 86.5V77.7727H186.21V79.2557H186.312C186.494 78.7557 186.795 78.3655 187.216 78.0852C187.636 77.8011 188.138 77.6591 188.722 77.6591C189.312 77.6591 189.811 77.803 190.216 78.0909C190.625 78.375 190.913 78.7633 191.08 79.2557H191.17C191.364 78.7708 191.689 78.3845 192.148 78.0966C192.61 77.8049 193.157 77.6591 193.79 77.6591C194.593 77.6591 195.248 77.9129 195.756 78.4205C196.263 78.928 196.517 79.6686 196.517 80.642V86.5H194.455V80.9602C194.455 80.4186 194.311 80.0227 194.023 79.7727C193.735 79.5189 193.383 79.392 192.966 79.392C192.47 79.392 192.081 79.5473 191.801 79.858C191.525 80.1648 191.386 80.5644 191.386 81.0568V86.5H189.369V80.875C189.369 80.4242 189.233 80.0644 188.96 79.7955C188.691 79.5265 188.339 79.392 187.903 79.392C187.608 79.392 187.339 79.4678 187.097 79.6193C186.854 79.767 186.661 79.9773 186.517 80.25C186.373 80.5189 186.301 80.8333 186.301 81.1932V86.5H184.244ZM205.251 80.0795L203.376 80.2841C203.323 80.0947 203.231 79.9167 203.098 79.75C202.969 79.5833 202.795 79.4489 202.575 79.3466C202.356 79.2443 202.087 79.1932 201.768 79.1932C201.34 79.1932 200.981 79.286 200.689 79.4716C200.401 79.6572 200.259 79.8977 200.263 80.1932C200.259 80.447 200.352 80.6534 200.541 80.8125C200.734 80.9716 201.053 81.1023 201.496 81.2045L202.984 81.5227C203.81 81.7008 204.424 81.983 204.825 82.3693C205.231 82.7557 205.435 83.2614 205.439 83.8864C205.435 84.4356 205.274 84.9205 204.956 85.3409C204.642 85.7576 204.204 86.0833 203.643 86.3182C203.083 86.553 202.439 86.6705 201.712 86.6705C200.643 86.6705 199.784 86.447 199.132 86C198.481 85.5492 198.092 84.9223 197.967 84.1193L199.973 83.9261C200.064 84.3201 200.257 84.6174 200.553 84.8182C200.848 85.0189 201.232 85.1193 201.706 85.1193C202.195 85.1193 202.587 85.0189 202.882 84.8182C203.181 84.6174 203.331 84.3693 203.331 84.0739C203.331 83.8239 203.234 83.6174 203.041 83.4545C202.852 83.2917 202.556 83.1667 202.155 83.0795L200.666 82.767C199.829 82.5928 199.21 82.2992 198.808 81.8864C198.407 81.4697 198.208 80.9432 198.212 80.3068C198.208 79.7689 198.354 79.303 198.649 78.9091C198.948 78.5114 199.363 78.2045 199.893 77.9886C200.428 77.7689 201.043 77.6591 201.74 77.6591C202.763 77.6591 203.568 77.8769 204.155 78.3125C204.746 78.7481 205.111 79.3371 205.251 80.0795ZM214.081 86.6705C213.286 86.6705 212.602 86.5265 212.03 86.2386C211.458 85.9508 211.017 85.5625 210.706 85.0739C210.399 84.5814 210.246 84.0265 210.246 83.4091C210.246 82.9432 210.34 82.5303 210.53 82.1705C210.723 81.8106 210.988 81.4773 211.325 81.1705C211.666 80.8636 212.06 80.5587 212.507 80.2557L214.57 78.8523C214.873 78.6553 215.102 78.447 215.257 78.2273C215.416 78.0076 215.496 77.75 215.496 77.4545C215.496 77.2045 215.39 76.9678 215.178 76.7443C214.969 76.5208 214.681 76.4091 214.314 76.4091C214.068 76.4091 213.85 76.4678 213.661 76.5852C213.475 76.6989 213.329 76.8485 213.223 77.0341C213.121 77.2197 213.07 77.4167 213.07 77.625C213.07 77.8788 213.14 78.1364 213.28 78.3977C213.424 78.6591 213.609 78.9299 213.837 79.2102C214.068 79.4905 214.314 79.7879 214.575 80.1023L220.036 86.5H217.808L213.274 81.3068C212.937 80.9129 212.611 80.5246 212.297 80.142C211.986 79.7595 211.731 79.3617 211.53 78.9489C211.333 78.5322 211.234 78.0814 211.234 77.5966C211.234 77.0473 211.361 76.5568 211.615 76.125C211.869 75.6894 212.223 75.3466 212.678 75.0966C213.136 74.8466 213.672 74.7216 214.286 74.7216C214.899 74.7216 215.426 74.8428 215.865 75.0852C216.304 75.3277 216.643 75.6496 216.882 76.0511C217.121 76.4527 217.24 76.8902 217.24 77.3636C217.24 77.9129 217.104 78.4053 216.831 78.8409C216.558 79.2727 216.179 79.6648 215.695 80.017L213.342 81.7386C212.956 82.0189 212.679 82.303 212.513 82.5909C212.346 82.875 212.263 83.1174 212.263 83.3182C212.263 83.625 212.34 83.9034 212.496 84.1534C212.651 84.4034 212.869 84.6042 213.149 84.7557C213.433 84.9034 213.765 84.9773 214.143 84.9773C214.56 84.9773 214.971 84.8845 215.376 84.6989C215.782 84.5095 216.151 84.2405 216.484 83.892C216.818 83.5436 217.083 83.1269 217.28 82.642C217.477 82.1534 217.575 81.6117 217.575 81.017H219.342C219.342 81.7519 219.261 82.392 219.098 82.9375C218.935 83.4792 218.725 83.9375 218.467 84.3125C218.21 84.6837 217.937 84.9811 217.649 85.2045C217.558 85.2689 217.471 85.3333 217.388 85.3977C217.304 85.4621 217.217 85.5265 217.126 85.5909C216.717 85.9621 216.238 86.2348 215.689 86.4091C215.143 86.5833 214.607 86.6705 214.081 86.6705ZM234.733 78.7898H232.608C232.547 78.4413 232.436 78.1326 232.273 77.8636C232.11 77.5909 231.907 77.3598 231.665 77.1705C231.422 76.9811 231.146 76.839 230.835 76.7443C230.528 76.6458 230.197 76.5966 229.841 76.5966C229.208 76.5966 228.648 76.7557 228.159 77.0739C227.67 77.3883 227.288 77.8504 227.011 78.4602C226.735 79.0663 226.597 79.8068 226.597 80.6818C226.597 81.572 226.735 82.322 227.011 82.9318C227.292 83.5379 227.674 83.9962 228.159 84.3068C228.648 84.6136 229.206 84.767 229.835 84.767C230.184 84.767 230.509 84.7216 230.812 84.6307C231.119 84.536 231.394 84.3977 231.636 84.2159C231.883 84.0341 232.089 83.8106 232.256 83.5455C232.426 83.2803 232.544 82.9773 232.608 82.6364L234.733 82.6477C234.653 83.2008 234.481 83.7197 234.216 84.2045C233.955 84.6894 233.612 85.1174 233.188 85.4886C232.763 85.8561 232.267 86.1439 231.699 86.3523C231.131 86.5568 230.5 86.6591 229.807 86.6591C228.784 86.6591 227.871 86.4223 227.068 85.9489C226.265 85.4754 225.633 84.7917 225.17 83.8977C224.708 83.0038 224.477 81.9318 224.477 80.6818C224.477 79.428 224.71 78.3561 225.176 77.4659C225.642 76.572 226.277 75.8883 227.08 75.4148C227.883 74.9413 228.792 74.7045 229.807 74.7045C230.455 74.7045 231.057 74.7955 231.614 74.9773C232.17 75.1591 232.667 75.4261 233.102 75.7784C233.538 76.1269 233.896 76.5549 234.176 77.0625C234.46 77.5663 234.646 78.142 234.733 78.7898ZM240.129 86.6705C239.277 86.6705 238.538 86.483 237.913 86.108C237.288 85.733 236.804 85.2083 236.459 84.5341C236.118 83.8598 235.947 83.072 235.947 82.1705C235.947 81.2689 236.118 80.4792 236.459 79.8011C236.804 79.1231 237.288 78.5966 237.913 78.2216C238.538 77.8466 239.277 77.6591 240.129 77.6591C240.982 77.6591 241.72 77.8466 242.345 78.2216C242.97 78.5966 243.453 79.1231 243.794 79.8011C244.139 80.4792 244.311 81.2689 244.311 82.1705C244.311 83.072 244.139 83.8598 243.794 84.5341C243.453 85.2083 242.97 85.733 242.345 86.108C241.72 86.483 240.982 86.6705 240.129 86.6705ZM240.141 85.0227C240.603 85.0227 240.989 84.8958 241.3 84.642C241.61 84.3845 241.841 84.0398 241.993 83.608C242.148 83.1761 242.226 82.6951 242.226 82.1648C242.226 81.6307 242.148 81.1477 241.993 80.7159C241.841 80.2803 241.61 79.9337 241.3 79.6761C240.989 79.4186 240.603 79.2898 240.141 79.2898C239.667 79.2898 239.273 79.4186 238.959 79.6761C238.648 79.9337 238.415 80.2803 238.26 80.7159C238.108 81.1477 238.033 81.6307 238.033 82.1648C238.033 82.6951 238.108 83.1761 238.26 83.608C238.415 84.0398 238.648 84.3845 238.959 84.642C239.273 84.8958 239.667 85.0227 240.141 85.0227ZM247.864 81.3864V86.5H245.807V77.7727H247.773V79.2557H247.875C248.076 78.767 248.396 78.3788 248.835 78.0909C249.278 77.803 249.826 77.6591 250.477 77.6591C251.08 77.6591 251.604 77.7879 252.051 78.0455C252.502 78.303 252.85 78.6761 253.097 79.1648C253.347 79.6534 253.47 80.2462 253.466 80.9432V86.5H251.409V81.2614C251.409 80.678 251.258 80.2216 250.955 79.892C250.655 79.5625 250.241 79.3977 249.71 79.3977C249.35 79.3977 249.03 79.4773 248.75 79.6364C248.473 79.7917 248.256 80.017 248.097 80.3125C247.941 80.608 247.864 80.9659 247.864 81.3864ZM258.545 86.6534C257.86 86.6534 257.246 86.4773 256.705 86.125C256.163 85.7727 255.735 85.2614 255.42 84.5909C255.106 83.9205 254.949 83.1061 254.949 82.1477C254.949 81.178 255.108 80.3598 255.426 79.6932C255.748 79.0227 256.182 78.517 256.727 78.1761C257.273 77.8314 257.881 77.6591 258.551 77.6591C259.063 77.6591 259.483 77.7462 259.812 77.9205C260.142 78.0909 260.403 78.2973 260.597 78.5398C260.79 78.7784 260.939 79.0038 261.045 79.2159H261.131V74.8636H263.193V86.5H261.17V85.125H261.045C260.939 85.3371 260.786 85.5625 260.585 85.8011C260.384 86.036 260.119 86.2367 259.79 86.4034C259.46 86.5701 259.045 86.6534 258.545 86.6534ZM259.119 84.9659C259.555 84.9659 259.926 84.8485 260.233 84.6136C260.54 84.375 260.773 84.0436 260.932 83.6193C261.091 83.1951 261.17 82.7008 261.17 82.1364C261.17 81.572 261.091 81.0814 260.932 80.6648C260.777 80.2481 260.545 79.9242 260.239 79.6932C259.936 79.4621 259.563 79.3466 259.119 79.3466C258.661 79.3466 258.278 79.4659 257.972 79.7045C257.665 79.9432 257.434 80.2727 257.278 80.6932C257.123 81.1136 257.045 81.5947 257.045 82.1364C257.045 82.6818 257.123 83.1686 257.278 83.5966C257.438 84.0208 257.67 84.3561 257.977 84.6023C258.288 84.8447 258.669 84.9659 259.119 84.9659ZM265.135 86.5V77.7727H267.192V86.5H265.135ZM266.169 76.5341C265.843 76.5341 265.563 76.4261 265.328 76.2102C265.093 75.9905 264.976 75.7273 264.976 75.4205C264.976 75.1098 265.093 74.8466 265.328 74.6307C265.563 74.411 265.843 74.3011 266.169 74.3011C266.499 74.3011 266.779 74.411 267.01 74.6307C267.245 74.8466 267.362 75.1098 267.362 75.4205C267.362 75.7273 267.245 75.9905 267.01 76.2102C266.779 76.4261 266.499 76.5341 266.169 76.5341ZM273.415 77.7727V79.3636H268.398V77.7727H273.415ZM269.636 75.6818H271.693V83.875C271.693 84.1515 271.735 84.3636 271.818 84.5114C271.905 84.6553 272.019 84.7538 272.159 84.8068C272.299 84.8598 272.455 84.8864 272.625 84.8864C272.754 84.8864 272.871 84.8769 272.977 84.858C273.087 84.839 273.17 84.822 273.227 84.8068L273.574 86.4148C273.464 86.4527 273.307 86.4943 273.102 86.5398C272.902 86.5852 272.655 86.6117 272.364 86.6193C271.848 86.6345 271.384 86.5568 270.972 86.3864C270.559 86.2121 270.231 85.9432 269.989 85.5795C269.75 85.2159 269.633 84.7614 269.636 84.2159V75.6818ZM274.885 86.5V77.7727H276.942V86.5H274.885ZM275.919 76.5341C275.593 76.5341 275.313 76.4261 275.078 76.2102C274.843 75.9905 274.726 75.7273 274.726 75.4205C274.726 75.1098 274.843 74.8466 275.078 74.6307C275.313 74.411 275.593 74.3011 275.919 74.3011C276.249 74.3011 276.529 74.411 276.76 74.6307C276.995 74.8466 277.112 75.1098 277.112 75.4205C277.112 75.7273 276.995 75.9905 276.76 76.2102C276.529 76.4261 276.249 76.5341 275.919 76.5341ZM282.614 86.6705C281.761 86.6705 281.023 86.483 280.398 86.108C279.773 85.733 279.288 85.2083 278.943 84.5341C278.602 83.8598 278.432 83.072 278.432 82.1705C278.432 81.2689 278.602 80.4792 278.943 79.8011C279.288 79.1231 279.773 78.5966 280.398 78.2216C281.023 77.8466 281.761 77.6591 282.614 77.6591C283.466 77.6591 284.205 77.8466 284.83 78.2216C285.455 78.5966 285.938 79.1231 286.278 79.8011C286.623 80.4792 286.795 81.2689 286.795 82.1705C286.795 83.072 286.623 83.8598 286.278 84.5341C285.938 85.2083 285.455 85.733 284.83 86.108C284.205 86.483 283.466 86.6705 282.614 86.6705ZM282.625 85.0227C283.087 85.0227 283.473 84.8958 283.784 84.642C284.095 84.3845 284.326 84.0398 284.477 83.608C284.633 83.1761 284.71 82.6951 284.71 82.1648C284.71 81.6307 284.633 81.1477 284.477 80.7159C284.326 80.2803 284.095 79.9337 283.784 79.6761C283.473 79.4186 283.087 79.2898 282.625 79.2898C282.152 79.2898 281.758 79.4186 281.443 79.6761C281.133 79.9337 280.9 80.2803 280.744 80.7159C280.593 81.1477 280.517 81.6307 280.517 82.1648C280.517 82.6951 280.593 83.1761 280.744 83.608C280.9 84.0398 281.133 84.3845 281.443 84.642C281.758 84.8958 282.152 85.0227 282.625 85.0227ZM290.348 81.3864V86.5H288.291V77.7727H290.257V79.2557H290.359C290.56 78.767 290.88 78.3788 291.32 78.0909C291.763 77.803 292.31 77.6591 292.962 77.6591C293.564 77.6591 294.089 77.7879 294.536 78.0455C294.986 78.303 295.335 78.6761 295.581 79.1648C295.831 79.6534 295.954 80.2462 295.95 80.9432V86.5H293.893V81.2614C293.893 80.678 293.742 80.2216 293.439 79.892C293.14 79.5625 292.725 79.3977 292.195 79.3977C291.835 79.3977 291.515 79.4773 291.234 79.6364C290.958 79.7917 290.74 80.017 290.581 80.3125C290.426 80.608 290.348 80.9659 290.348 81.3864ZM304.689 80.0795L302.814 80.2841C302.761 80.0947 302.668 79.9167 302.536 79.75C302.407 79.5833 302.232 79.4489 302.013 79.3466C301.793 79.2443 301.524 79.1932 301.206 79.1932C300.778 79.1932 300.418 79.286 300.126 79.4716C299.839 79.6572 299.696 79.8977 299.7 80.1932C299.696 80.447 299.789 80.6534 299.979 80.8125C300.172 80.9716 300.49 81.1023 300.933 81.2045L302.422 81.5227C303.248 81.7008 303.861 81.983 304.263 82.3693C304.668 82.7557 304.873 83.2614 304.876 83.8864C304.873 84.4356 304.712 84.9205 304.393 85.3409C304.079 85.7576 303.642 86.0833 303.081 86.3182C302.52 86.553 301.876 86.6705 301.149 86.6705C300.081 86.6705 299.221 86.447 298.57 86C297.918 85.5492 297.53 84.9223 297.405 84.1193L299.411 83.9261C299.501 84.3201 299.695 84.6174 299.99 84.8182C300.286 85.0189 300.67 85.1193 301.143 85.1193C301.632 85.1193 302.024 85.0189 302.32 84.8182C302.619 84.6174 302.768 84.3693 302.768 84.0739C302.768 83.8239 302.672 83.6174 302.479 83.4545C302.289 83.2917 301.994 83.1667 301.592 83.0795L300.104 82.767C299.267 82.5928 298.647 82.2992 298.246 81.8864C297.844 81.4697 297.645 80.9432 297.649 80.3068C297.645 79.7689 297.791 79.303 298.087 78.9091C298.386 78.5114 298.801 78.2045 299.331 77.9886C299.865 77.7689 300.481 77.6591 301.178 77.6591C302.2 77.6591 303.005 77.8769 303.592 78.3125C304.183 78.7481 304.549 79.3371 304.689 80.0795Z" fill="white"/>
<path d="M158.812 89.6818H305.268V90.7727H158.812V89.6818Z" fill="white"/>
<rect x="0.5" y="0.5" width="389" height="208" rx="7.5" stroke="#CA3A31" stroke-opacity="0.1"/>
</svg>
