<svg width="390" height="168" viewBox="0 0 390 168" fill="none" xmlns="http://www.w3.org/2000/svg">
<rect width="390" height="168" fill="#F9FAFB"/>
<g opacity="0.2">
<rect x="134.5" y="74.5" width="19" height="19" rx="3.5" fill="white"/>
<rect x="134.5" y="74.5" width="19" height="19" rx="3.5" stroke="#D8DEE9"/>
<path d="M167.145 89V79.5455H170.339C171.078 79.5455 171.684 79.6716 172.158 79.924C172.632 80.1733 172.983 80.5165 173.211 80.9535C173.439 81.3905 173.553 81.8875 173.553 82.4446C173.553 83.0017 173.439 83.4956 173.211 83.9265C172.983 84.3574 172.634 84.6959 172.163 84.9421C171.692 85.1853 171.09 85.3068 170.358 85.3068H167.773V84.2727H170.321C170.826 84.2727 171.232 84.1989 171.54 84.0511C171.851 83.9034 172.075 83.6941 172.214 83.4233C172.355 83.1494 172.426 82.8232 172.426 82.4446C172.426 82.0661 172.355 81.7352 172.214 81.4521C172.072 81.1689 171.846 80.9504 171.535 80.7965C171.224 80.6396 170.813 80.5611 170.303 80.5611H168.29V89H167.145ZM171.595 84.7528L173.922 89H172.592L170.303 84.7528H171.595ZM178.209 89.1477C177.526 89.1477 176.937 88.9969 176.441 88.6953C175.949 88.3906 175.569 87.9659 175.301 87.4212C175.036 86.8733 174.904 86.2363 174.904 85.5099C174.904 84.7836 175.036 84.1435 175.301 83.5895C175.569 83.0324 175.941 82.5985 176.418 82.2876C176.898 81.9737 177.458 81.8168 178.099 81.8168C178.468 81.8168 178.833 81.8783 179.193 82.0014C179.553 82.1245 179.881 82.3246 180.176 82.6016C180.472 82.8755 180.707 83.2386 180.882 83.6911C181.058 84.1435 181.146 84.7005 181.146 85.3622V85.8239H175.68V84.8821H180.038C180.038 84.482 179.958 84.125 179.797 83.8111C179.641 83.4972 179.416 83.2494 179.123 83.0678C178.834 82.8862 178.493 82.7955 178.099 82.7955C177.665 82.7955 177.289 82.9032 176.972 83.1186C176.658 83.331 176.417 83.608 176.247 83.9496C176.078 84.2912 175.994 84.6574 175.994 85.0483V85.6761C175.994 86.2116 176.086 86.6656 176.271 87.038C176.458 87.4073 176.718 87.6889 177.051 87.8828C177.383 88.0736 177.769 88.169 178.209 88.169C178.496 88.169 178.754 88.129 178.985 88.049C179.219 87.9659 179.42 87.8428 179.59 87.6797C179.759 87.5135 179.89 87.3073 179.982 87.0611L181.035 87.3565C180.924 87.7135 180.738 88.0275 180.476 88.2983C180.215 88.5661 179.891 88.7753 179.507 88.9261C179.122 89.0739 178.69 89.1477 178.209 89.1477ZM182.803 89V81.9091H183.855V83.017H183.948C184.095 82.6385 184.334 82.3446 184.663 82.1353C184.993 81.9229 185.388 81.8168 185.85 81.8168C186.318 81.8168 186.707 81.9229 187.018 82.1353C187.332 82.3446 187.576 82.6385 187.752 83.017H187.826C188.007 82.6508 188.28 82.36 188.643 82.1445C189.006 81.926 189.441 81.8168 189.949 81.8168C190.583 81.8168 191.102 82.0153 191.505 82.4123C191.908 82.8062 192.11 83.4202 192.11 84.2543V89H191.02V84.2543C191.02 83.7311 190.877 83.3571 190.591 83.1325C190.305 82.9078 189.968 82.7955 189.58 82.7955C189.081 82.7955 188.695 82.9463 188.421 83.2479C188.147 83.5464 188.01 83.925 188.01 84.3835V89H186.902V84.1435C186.902 83.7403 186.771 83.4156 186.51 83.1694C186.248 82.9201 185.911 82.7955 185.499 82.7955C185.216 82.7955 184.951 82.8709 184.705 83.0217C184.462 83.1725 184.265 83.3817 184.114 83.6495C183.966 83.9142 183.892 84.2204 183.892 84.5682V89H182.803ZM197.075 89.1477C196.391 89.1477 195.802 88.9969 195.307 88.6953C194.814 88.3906 194.434 87.9659 194.166 87.4212C193.902 86.8733 193.769 86.2363 193.769 85.5099C193.769 84.7836 193.902 84.1435 194.166 83.5895C194.434 83.0324 194.806 82.5985 195.283 82.2876C195.764 81.9737 196.324 81.8168 196.964 81.8168C197.333 81.8168 197.698 81.8783 198.058 82.0014C198.418 82.1245 198.746 82.3246 199.041 82.6016C199.337 82.8755 199.572 83.2386 199.748 83.6911C199.923 84.1435 200.011 84.7005 200.011 85.3622V85.8239H194.545V84.8821H198.903C198.903 84.482 198.823 84.125 198.663 83.8111C198.506 83.4972 198.281 83.2494 197.989 83.0678C197.699 82.8862 197.358 82.7955 196.964 82.7955C196.53 82.7955 196.154 82.9032 195.837 83.1186C195.524 83.331 195.282 83.608 195.113 83.9496C194.943 84.2912 194.859 84.6574 194.859 85.0483V85.6761C194.859 86.2116 194.951 86.6656 195.136 87.038C195.323 87.4073 195.584 87.6889 195.916 87.8828C196.248 88.0736 196.635 88.169 197.075 88.169C197.361 88.169 197.619 88.129 197.85 88.049C198.084 87.9659 198.286 87.8428 198.455 87.6797C198.624 87.5135 198.755 87.3073 198.847 87.0611L199.9 87.3565C199.789 87.7135 199.603 88.0275 199.341 88.2983C199.08 88.5661 198.757 88.7753 198.372 88.9261C197.987 89.0739 197.555 89.1477 197.075 89.1477ZM201.668 89V81.9091H202.721V83.017H202.813C202.961 82.6385 203.199 82.3446 203.528 82.1353C203.858 81.9229 204.253 81.8168 204.715 81.8168C205.183 81.8168 205.572 81.9229 205.883 82.1353C206.197 82.3446 206.441 82.6385 206.617 83.017H206.691C206.872 82.6508 207.145 82.36 207.508 82.1445C207.871 81.926 208.307 81.8168 208.814 81.8168C209.448 81.8168 209.967 82.0153 210.37 82.4123C210.773 82.8062 210.975 83.4202 210.975 84.2543V89H209.885V84.2543C209.885 83.7311 209.742 83.3571 209.456 83.1325C209.17 82.9078 208.833 82.7955 208.445 82.7955C207.946 82.7955 207.56 82.9463 207.286 83.2479C207.012 83.5464 206.875 83.925 206.875 84.3835V89H205.767V84.1435C205.767 83.7403 205.637 83.4156 205.375 83.1694C205.113 82.9201 204.776 82.7955 204.364 82.7955C204.081 82.7955 203.816 82.8709 203.57 83.0217C203.327 83.1725 203.13 83.3817 202.979 83.6495C202.831 83.9142 202.758 84.2204 202.758 84.5682V89H201.668ZM213.115 89V79.5455H214.204V83.0355H214.296C214.376 82.9124 214.487 82.7554 214.629 82.5646C214.773 82.3707 214.98 82.1984 215.247 82.0476C215.518 81.8937 215.884 81.8168 216.346 81.8168C216.943 81.8168 217.469 81.966 217.925 82.2646C218.38 82.5631 218.736 82.9863 218.991 83.5341C219.247 84.0819 219.375 84.7282 219.375 85.473C219.375 86.224 219.247 86.8749 218.991 87.4258C218.736 87.9736 218.382 88.3983 217.93 88.6999C217.477 88.9985 216.956 89.1477 216.365 89.1477C215.909 89.1477 215.544 89.0723 215.271 88.9215C214.997 88.7676 214.786 88.5937 214.638 88.3999C214.49 88.2029 214.376 88.0398 214.296 87.9105H214.167V89H213.115ZM214.186 85.4545C214.186 85.9901 214.264 86.4625 214.421 86.8718C214.578 87.2781 214.807 87.5966 215.109 87.8274C215.411 88.0552 215.78 88.169 216.217 88.169C216.672 88.169 217.052 88.049 217.357 87.8089C217.665 87.5658 217.896 87.2396 218.05 86.8303C218.207 86.4179 218.285 85.9593 218.285 85.4545C218.285 84.956 218.208 84.5066 218.054 84.1065C217.903 83.7034 217.674 83.3848 217.366 83.1509C217.062 82.9139 216.679 82.7955 216.217 82.7955C215.774 82.7955 215.401 82.9078 215.1 83.1325C214.798 83.354 214.57 83.6649 214.416 84.065C214.263 84.462 214.186 84.9252 214.186 85.4545ZM224.014 89.1477C223.331 89.1477 222.742 88.9969 222.246 88.6953C221.754 88.3906 221.373 87.9659 221.106 87.4212C220.841 86.8733 220.709 86.2363 220.709 85.5099C220.709 84.7836 220.841 84.1435 221.106 83.5895C221.373 83.0324 221.746 82.5985 222.223 82.2876C222.703 81.9737 223.263 81.8168 223.903 81.8168C224.273 81.8168 224.637 81.8783 224.997 82.0014C225.358 82.1245 225.685 82.3246 225.981 82.6016C226.276 82.8755 226.512 83.2386 226.687 83.6911C226.862 84.1435 226.95 84.7005 226.95 85.3622V85.8239H221.484V84.8821H225.842C225.842 84.482 225.762 84.125 225.602 83.8111C225.445 83.4972 225.221 83.2494 224.928 83.0678C224.639 82.8862 224.297 82.7955 223.903 82.7955C223.469 82.7955 223.094 82.9032 222.777 83.1186C222.463 83.331 222.221 83.608 222.052 83.9496C221.883 84.2912 221.798 84.6574 221.798 85.0483V85.6761C221.798 86.2116 221.891 86.6656 222.075 87.038C222.263 87.4073 222.523 87.6889 222.855 87.8828C223.188 88.0736 223.574 88.169 224.014 88.169C224.3 88.169 224.559 88.129 224.79 88.049C225.024 87.9659 225.225 87.8428 225.394 87.6797C225.564 87.5135 225.695 87.3073 225.787 87.0611L226.839 87.3565C226.729 87.7135 226.542 88.0275 226.281 88.2983C226.019 88.5661 225.696 88.7753 225.311 88.9261C224.927 89.0739 224.494 89.1477 224.014 89.1477ZM228.608 89V81.9091H229.66V82.9801H229.734C229.863 82.6293 230.097 82.3446 230.436 82.1261C230.774 81.9076 231.156 81.7983 231.581 81.7983C231.661 81.7983 231.761 81.7998 231.881 81.8029C232.001 81.806 232.091 81.8106 232.153 81.8168V82.9247C232.116 82.9155 232.031 82.9016 231.899 82.8832C231.77 82.8616 231.633 82.8509 231.488 82.8509C231.143 82.8509 230.836 82.9232 230.565 83.0678C230.297 83.2094 230.085 83.4064 229.928 83.6587C229.774 83.908 229.697 84.1927 229.697 84.5128V89H228.608ZM237.101 89V81.9091H238.153V83.017H238.246C238.393 82.6385 238.632 82.3446 238.961 82.1353C239.29 81.9229 239.686 81.8168 240.148 81.8168C240.615 81.8168 241.005 81.9229 241.316 82.1353C241.629 82.3446 241.874 82.6385 242.05 83.017H242.123C242.305 82.6508 242.577 82.36 242.941 82.1445C243.304 81.926 243.739 81.8168 244.247 81.8168C244.881 81.8168 245.4 82.0153 245.803 82.4123C246.206 82.8062 246.407 83.4202 246.407 84.2543V89H245.318V84.2543C245.318 83.7311 245.175 83.3571 244.889 83.1325C244.602 82.9078 244.265 82.7955 243.878 82.7955C243.379 82.7955 242.993 82.9463 242.719 83.2479C242.445 83.5464 242.308 83.925 242.308 84.3835V89H241.2V84.1435C241.2 83.7403 241.069 83.4156 240.808 83.1694C240.546 82.9201 240.209 82.7955 239.797 82.7955C239.514 82.7955 239.249 82.8709 239.003 83.0217C238.76 83.1725 238.563 83.3817 238.412 83.6495C238.264 83.9142 238.19 84.2204 238.19 84.5682V89H237.101ZM251.373 89.1477C250.689 89.1477 250.1 88.9969 249.604 88.6953C249.112 88.3906 248.732 87.9659 248.464 87.4212C248.199 86.8733 248.067 86.2363 248.067 85.5099C248.067 84.7836 248.199 84.1435 248.464 83.5895C248.732 83.0324 249.104 82.5985 249.581 82.2876C250.061 81.9737 250.622 81.8168 251.262 81.8168C251.631 81.8168 251.996 81.8783 252.356 82.0014C252.716 82.1245 253.044 82.3246 253.339 82.6016C253.635 82.8755 253.87 83.2386 254.045 83.6911C254.221 84.1435 254.309 84.7005 254.309 85.3622V85.8239H248.843V84.8821H253.201C253.201 84.482 253.121 84.125 252.961 83.8111C252.804 83.4972 252.579 83.2494 252.287 83.0678C251.997 82.8862 251.656 82.7955 251.262 82.7955C250.828 82.7955 250.452 82.9032 250.135 83.1186C249.821 83.331 249.58 83.608 249.411 83.9496C249.241 84.2912 249.157 84.6574 249.157 85.0483V85.6761C249.157 86.2116 249.249 86.6656 249.434 87.038C249.621 87.4073 249.881 87.6889 250.214 87.8828C250.546 88.0736 250.932 88.169 251.373 88.169C251.659 88.169 251.917 88.129 252.148 88.049C252.382 87.9659 252.584 87.8428 252.753 87.6797C252.922 87.5135 253.053 87.3073 253.145 87.0611L254.198 87.3565C254.087 87.7135 253.901 88.0275 253.639 88.2983C253.378 88.5661 253.054 88.7753 252.67 88.9261C252.285 89.0739 251.853 89.1477 251.373 89.1477Z" fill="#344054"/>
</g>
<g opacity="0.2">
<rect x="134.5" y="74.5" width="19" height="19" rx="3.5" fill="white"/>
<rect x="134.5" y="74.5" width="19" height="19" rx="3.5" stroke="#D8DEE9"/>
<path d="M167.145 89V79.5455H170.339C171.078 79.5455 171.684 79.6716 172.158 79.924C172.632 80.1733 172.983 80.5165 173.211 80.9535C173.439 81.3905 173.553 81.8875 173.553 82.4446C173.553 83.0017 173.439 83.4956 173.211 83.9265C172.983 84.3574 172.634 84.6959 172.163 84.9421C171.692 85.1853 171.09 85.3068 170.358 85.3068H167.773V84.2727H170.321C170.826 84.2727 171.232 84.1989 171.54 84.0511C171.851 83.9034 172.075 83.6941 172.214 83.4233C172.355 83.1494 172.426 82.8232 172.426 82.4446C172.426 82.0661 172.355 81.7352 172.214 81.4521C172.072 81.1689 171.846 80.9504 171.535 80.7965C171.224 80.6396 170.813 80.5611 170.303 80.5611H168.29V89H167.145ZM171.595 84.7528L173.922 89H172.592L170.303 84.7528H171.595ZM178.209 89.1477C177.526 89.1477 176.937 88.9969 176.441 88.6953C175.949 88.3906 175.569 87.9659 175.301 87.4212C175.036 86.8733 174.904 86.2363 174.904 85.5099C174.904 84.7836 175.036 84.1435 175.301 83.5895C175.569 83.0324 175.941 82.5985 176.418 82.2876C176.898 81.9737 177.458 81.8168 178.099 81.8168C178.468 81.8168 178.833 81.8783 179.193 82.0014C179.553 82.1245 179.881 82.3246 180.176 82.6016C180.472 82.8755 180.707 83.2386 180.882 83.6911C181.058 84.1435 181.146 84.7005 181.146 85.3622V85.8239H175.68V84.8821H180.038C180.038 84.482 179.958 84.125 179.797 83.8111C179.641 83.4972 179.416 83.2494 179.123 83.0678C178.834 82.8862 178.493 82.7955 178.099 82.7955C177.665 82.7955 177.289 82.9032 176.972 83.1186C176.658 83.331 176.417 83.608 176.247 83.9496C176.078 84.2912 175.994 84.6574 175.994 85.0483V85.6761C175.994 86.2116 176.086 86.6656 176.271 87.038C176.458 87.4073 176.718 87.6889 177.051 87.8828C177.383 88.0736 177.769 88.169 178.209 88.169C178.496 88.169 178.754 88.129 178.985 88.049C179.219 87.9659 179.42 87.8428 179.59 87.6797C179.759 87.5135 179.89 87.3073 179.982 87.0611L181.035 87.3565C180.924 87.7135 180.738 88.0275 180.476 88.2983C180.215 88.5661 179.891 88.7753 179.507 88.9261C179.122 89.0739 178.69 89.1477 178.209 89.1477ZM182.803 89V81.9091H183.855V83.017H183.948C184.095 82.6385 184.334 82.3446 184.663 82.1353C184.993 81.9229 185.388 81.8168 185.85 81.8168C186.318 81.8168 186.707 81.9229 187.018 82.1353C187.332 82.3446 187.576 82.6385 187.752 83.017H187.826C188.007 82.6508 188.28 82.36 188.643 82.1445C189.006 81.926 189.441 81.8168 189.949 81.8168C190.583 81.8168 191.102 82.0153 191.505 82.4123C191.908 82.8062 192.11 83.4202 192.11 84.2543V89H191.02V84.2543C191.02 83.7311 190.877 83.3571 190.591 83.1325C190.305 82.9078 189.968 82.7955 189.58 82.7955C189.081 82.7955 188.695 82.9463 188.421 83.2479C188.147 83.5464 188.01 83.925 188.01 84.3835V89H186.902V84.1435C186.902 83.7403 186.771 83.4156 186.51 83.1694C186.248 82.9201 185.911 82.7955 185.499 82.7955C185.216 82.7955 184.951 82.8709 184.705 83.0217C184.462 83.1725 184.265 83.3817 184.114 83.6495C183.966 83.9142 183.892 84.2204 183.892 84.5682V89H182.803ZM197.075 89.1477C196.391 89.1477 195.802 88.9969 195.307 88.6953C194.814 88.3906 194.434 87.9659 194.166 87.4212C193.902 86.8733 193.769 86.2363 193.769 85.5099C193.769 84.7836 193.902 84.1435 194.166 83.5895C194.434 83.0324 194.806 82.5985 195.283 82.2876C195.764 81.9737 196.324 81.8168 196.964 81.8168C197.333 81.8168 197.698 81.8783 198.058 82.0014C198.418 82.1245 198.746 82.3246 199.041 82.6016C199.337 82.8755 199.572 83.2386 199.748 83.6911C199.923 84.1435 200.011 84.7005 200.011 85.3622V85.8239H194.545V84.8821H198.903C198.903 84.482 198.823 84.125 198.663 83.8111C198.506 83.4972 198.281 83.2494 197.989 83.0678C197.699 82.8862 197.358 82.7955 196.964 82.7955C196.53 82.7955 196.154 82.9032 195.837 83.1186C195.524 83.331 195.282 83.608 195.113 83.9496C194.943 84.2912 194.859 84.6574 194.859 85.0483V85.6761C194.859 86.2116 194.951 86.6656 195.136 87.038C195.323 87.4073 195.584 87.6889 195.916 87.8828C196.248 88.0736 196.635 88.169 197.075 88.169C197.361 88.169 197.619 88.129 197.85 88.049C198.084 87.9659 198.286 87.8428 198.455 87.6797C198.624 87.5135 198.755 87.3073 198.847 87.0611L199.9 87.3565C199.789 87.7135 199.603 88.0275 199.341 88.2983C199.08 88.5661 198.757 88.7753 198.372 88.9261C197.987 89.0739 197.555 89.1477 197.075 89.1477ZM201.668 89V81.9091H202.721V83.017H202.813C202.961 82.6385 203.199 82.3446 203.528 82.1353C203.858 81.9229 204.253 81.8168 204.715 81.8168C205.183 81.8168 205.572 81.9229 205.883 82.1353C206.197 82.3446 206.441 82.6385 206.617 83.017H206.691C206.872 82.6508 207.145 82.36 207.508 82.1445C207.871 81.926 208.307 81.8168 208.814 81.8168C209.448 81.8168 209.967 82.0153 210.37 82.4123C210.773 82.8062 210.975 83.4202 210.975 84.2543V89H209.885V84.2543C209.885 83.7311 209.742 83.3571 209.456 83.1325C209.17 82.9078 208.833 82.7955 208.445 82.7955C207.946 82.7955 207.56 82.9463 207.286 83.2479C207.012 83.5464 206.875 83.925 206.875 84.3835V89H205.767V84.1435C205.767 83.7403 205.637 83.4156 205.375 83.1694C205.113 82.9201 204.776 82.7955 204.364 82.7955C204.081 82.7955 203.816 82.8709 203.57 83.0217C203.327 83.1725 203.13 83.3817 202.979 83.6495C202.831 83.9142 202.758 84.2204 202.758 84.5682V89H201.668ZM213.115 89V79.5455H214.204V83.0355H214.296C214.376 82.9124 214.487 82.7554 214.629 82.5646C214.773 82.3707 214.98 82.1984 215.247 82.0476C215.518 81.8937 215.884 81.8168 216.346 81.8168C216.943 81.8168 217.469 81.966 217.925 82.2646C218.38 82.5631 218.736 82.9863 218.991 83.5341C219.247 84.0819 219.375 84.7282 219.375 85.473C219.375 86.224 219.247 86.8749 218.991 87.4258C218.736 87.9736 218.382 88.3983 217.93 88.6999C217.477 88.9985 216.956 89.1477 216.365 89.1477C215.909 89.1477 215.544 89.0723 215.271 88.9215C214.997 88.7676 214.786 88.5937 214.638 88.3999C214.49 88.2029 214.376 88.0398 214.296 87.9105H214.167V89H213.115ZM214.186 85.4545C214.186 85.9901 214.264 86.4625 214.421 86.8718C214.578 87.2781 214.807 87.5966 215.109 87.8274C215.411 88.0552 215.78 88.169 216.217 88.169C216.672 88.169 217.052 88.049 217.357 87.8089C217.665 87.5658 217.896 87.2396 218.05 86.8303C218.207 86.4179 218.285 85.9593 218.285 85.4545C218.285 84.956 218.208 84.5066 218.054 84.1065C217.903 83.7034 217.674 83.3848 217.366 83.1509C217.062 82.9139 216.679 82.7955 216.217 82.7955C215.774 82.7955 215.401 82.9078 215.1 83.1325C214.798 83.354 214.57 83.6649 214.416 84.065C214.263 84.462 214.186 84.9252 214.186 85.4545ZM224.014 89.1477C223.331 89.1477 222.742 88.9969 222.246 88.6953C221.754 88.3906 221.373 87.9659 221.106 87.4212C220.841 86.8733 220.709 86.2363 220.709 85.5099C220.709 84.7836 220.841 84.1435 221.106 83.5895C221.373 83.0324 221.746 82.5985 222.223 82.2876C222.703 81.9737 223.263 81.8168 223.903 81.8168C224.273 81.8168 224.637 81.8783 224.997 82.0014C225.358 82.1245 225.685 82.3246 225.981 82.6016C226.276 82.8755 226.512 83.2386 226.687 83.6911C226.862 84.1435 226.95 84.7005 226.95 85.3622V85.8239H221.484V84.8821H225.842C225.842 84.482 225.762 84.125 225.602 83.8111C225.445 83.4972 225.221 83.2494 224.928 83.0678C224.639 82.8862 224.297 82.7955 223.903 82.7955C223.469 82.7955 223.094 82.9032 222.777 83.1186C222.463 83.331 222.221 83.608 222.052 83.9496C221.883 84.2912 221.798 84.6574 221.798 85.0483V85.6761C221.798 86.2116 221.891 86.6656 222.075 87.038C222.263 87.4073 222.523 87.6889 222.855 87.8828C223.188 88.0736 223.574 88.169 224.014 88.169C224.3 88.169 224.559 88.129 224.79 88.049C225.024 87.9659 225.225 87.8428 225.394 87.6797C225.564 87.5135 225.695 87.3073 225.787 87.0611L226.839 87.3565C226.729 87.7135 226.542 88.0275 226.281 88.2983C226.019 88.5661 225.696 88.7753 225.311 88.9261C224.927 89.0739 224.494 89.1477 224.014 89.1477ZM228.608 89V81.9091H229.66V82.9801H229.734C229.863 82.6293 230.097 82.3446 230.436 82.1261C230.774 81.9076 231.156 81.7983 231.581 81.7983C231.661 81.7983 231.761 81.7998 231.881 81.8029C232.001 81.806 232.091 81.8106 232.153 81.8168V82.9247C232.116 82.9155 232.031 82.9016 231.899 82.8832C231.77 82.8616 231.633 82.8509 231.488 82.8509C231.143 82.8509 230.836 82.9232 230.565 83.0678C230.297 83.2094 230.085 83.4064 229.928 83.6587C229.774 83.908 229.697 84.1927 229.697 84.5128V89H228.608ZM237.101 89V81.9091H238.153V83.017H238.246C238.393 82.6385 238.632 82.3446 238.961 82.1353C239.29 81.9229 239.686 81.8168 240.148 81.8168C240.615 81.8168 241.005 81.9229 241.316 82.1353C241.629 82.3446 241.874 82.6385 242.05 83.017H242.123C242.305 82.6508 242.577 82.36 242.941 82.1445C243.304 81.926 243.739 81.8168 244.247 81.8168C244.881 81.8168 245.4 82.0153 245.803 82.4123C246.206 82.8062 246.407 83.4202 246.407 84.2543V89H245.318V84.2543C245.318 83.7311 245.175 83.3571 244.889 83.1325C244.602 82.9078 244.265 82.7955 243.878 82.7955C243.379 82.7955 242.993 82.9463 242.719 83.2479C242.445 83.5464 242.308 83.925 242.308 84.3835V89H241.2V84.1435C241.2 83.7403 241.069 83.4156 240.808 83.1694C240.546 82.9201 240.209 82.7955 239.797 82.7955C239.514 82.7955 239.249 82.8709 239.003 83.0217C238.76 83.1725 238.563 83.3817 238.412 83.6495C238.264 83.9142 238.19 84.2204 238.19 84.5682V89H237.101ZM251.373 89.1477C250.689 89.1477 250.1 88.9969 249.604 88.6953C249.112 88.3906 248.732 87.9659 248.464 87.4212C248.199 86.8733 248.067 86.2363 248.067 85.5099C248.067 84.7836 248.199 84.1435 248.464 83.5895C248.732 83.0324 249.104 82.5985 249.581 82.2876C250.061 81.9737 250.622 81.8168 251.262 81.8168C251.631 81.8168 251.996 81.8783 252.356 82.0014C252.716 82.1245 253.044 82.3246 253.339 82.6016C253.635 82.8755 253.87 83.2386 254.045 83.6911C254.221 84.1435 254.309 84.7005 254.309 85.3622V85.8239H248.843V84.8821H253.201C253.201 84.482 253.121 84.125 252.961 83.8111C252.804 83.4972 252.579 83.2494 252.287 83.0678C251.997 82.8862 251.656 82.7955 251.262 82.7955C250.828 82.7955 250.452 82.9032 250.135 83.1186C249.821 83.331 249.58 83.608 249.411 83.9496C249.241 84.2912 249.157 84.6574 249.157 85.0483V85.6761C249.157 86.2116 249.249 86.6656 249.434 87.038C249.621 87.4073 249.881 87.6889 250.214 87.8828C250.546 88.0736 250.932 88.169 251.373 88.169C251.659 88.169 251.917 88.129 252.148 88.049C252.382 87.9659 252.584 87.8428 252.753 87.6797C252.922 87.5135 253.053 87.3073 253.145 87.0611L254.198 87.3565C254.087 87.7135 253.901 88.0275 253.639 88.2983C253.378 88.5661 253.054 88.7753 252.67 88.9261C252.285 89.0739 251.853 89.1477 251.373 89.1477Z" fill="#344054"/>
</g>
<rect x="133.5" y="73.5" width="122" height="21" stroke="#0D69D4"/>
<g clip-path="url(#clip0_890_9857)">
<mask maskUnits="userSpaceOnUse" x="0" y="0" width="0" height="0" fill="black">
<rect fill="white" width="0" height="0"/>
</mask>
<path d="M78.2929 25.2929C77.9024 25.6834 77.9024 26.3166 78.2929 26.7071L84.6569 33.0711C85.0474 33.4616 85.6805 33.4616 86.0711 33.0711C86.4616 32.6805 86.4616 32.0474 86.0711 31.6569L80.4142 26L86.0711 20.3431C86.4616 19.9526 86.4616 19.3195 86.0711 18.9289C85.6805 18.5384 85.0474 18.5384 84.6569 18.9289L78.2929 25.2929ZM109.707 26.7071C110.098 26.3166 110.098 25.6834 109.707 25.2929L103.343 18.9289C102.953 18.5384 102.319 18.5384 101.929 18.9289C101.538 19.3195 101.538 19.9526 101.929 20.3431L107.586 26L101.929 31.6569C101.538 32.0474 101.538 32.6805 101.929 33.0711C102.319 33.4616 102.953 33.4616 103.343 33.0711L109.707 26.7071ZM79 27H109V25H79V27Z" fill="#6B6B6B" mask="url(#)"/>
</g>
<path fill-rule="evenodd" clip-rule="evenodd" d="M78.0001 18L78 19L78.0001 22.9915L78 23.024V24.024V28.0185V29.0185V29.0225L78.0001 33.014L78 34.014H79.0001H82.9891H83.9891H88.0113H89.0113H93H94V33.014V29.0185V28.0185V24.024V23.024V19V18H93H89.0113H88.0113H83.9891H82.9891H79.0001H78.0001ZM79.0001 19V22.9915H82.9891V19H79.0001ZM79.0001 29.0225V33.014H82.9891V29.0225H79.0001ZM93 29.0185V33.014H89.0113V29.0185H93ZM93 24.024V28.0185H89.0113V24.024H93ZM93 19V23.024H89.0113V19H93ZM88.0113 19H83.9891V22.9915V23.024H88.0113V19ZM88.0113 24.024H83.9891V28.0185H88.0113V24.024ZM88.0113 29.0185H83.9891V29.0225V33.014H88.0113V29.0185Z" fill="#6B6B6B"/>
<g clip-path="url(#clip1_890_9857)">
<g clip-path="url(#clip2_890_9857)">
<mask maskUnits="userSpaceOnUse" x="0" y="0" width="0" height="0" fill="black">
<rect fill="white" width="0" height="0"/>
</mask>
<path d="M87.2803 64.2197C86.9874 63.9268 86.5126 63.9268 86.2197 64.2197L81.4467 68.9926C81.1538 69.2855 81.1538 69.7604 81.4467 70.0533C81.7396 70.3462 82.2145 70.3462 82.5074 70.0533L86.75 65.8107L90.9926 70.0533C91.2855 70.3462 91.7604 70.3462 92.0533 70.0533C92.3462 69.7604 92.3462 69.2855 92.0533 68.9926L87.2803 64.2197ZM86.2197 83.2803C86.5126 83.5732 86.9874 83.5732 87.2803 83.2803L92.0533 78.5074C92.3462 78.2145 92.3462 77.7396 92.0533 77.4467C91.7604 77.1538 91.2855 77.1538 90.9926 77.4467L86.75 81.6893L82.5074 77.4467C82.2145 77.1538 81.7396 77.1538 81.4467 77.4467C81.1538 77.7396 81.1538 78.2145 81.4467 78.5074L86.2197 83.2803ZM86 64.75V82.75H87.5V64.75H86Z" fill="#0D69D4" mask="url(#)"/>
<mask maskUnits="userSpaceOnUse" x="0" y="0" width="0" height="0" fill="black">
<rect fill="white" width="0" height="0"/>
</mask>
<path d="M87.2803 84.7197C86.9874 84.4268 86.5126 84.4268 86.2197 84.7197L81.4467 89.4926C81.1538 89.7855 81.1538 90.2604 81.4467 90.5533C81.7396 90.8462 82.2145 90.8462 82.5074 90.5533L86.75 86.3107L90.9926 90.5533C91.2855 90.8462 91.7604 90.8462 92.0533 90.5533C92.3462 90.2604 92.3462 89.7855 92.0533 89.4926L87.2803 84.7197ZM86.2197 103.78C86.5126 104.073 86.9874 104.073 87.2803 103.78L92.0533 99.0074C92.3462 98.7145 92.3462 98.2396 92.0533 97.9467C91.7604 97.6538 91.2855 97.6538 90.9926 97.9467L86.75 102.189L82.5074 97.9467C82.2145 97.6538 81.7396 97.6538 81.4467 97.9467C81.1538 98.2396 81.1538 98.7145 81.4467 99.0074L86.2197 103.78ZM86 85.25V103.25H87.5V85.25H86Z" fill="#0D69D4" mask="url(#)"/>
</g>
</g>
<g clip-path="url(#clip3_890_9857)">
<mask maskUnits="userSpaceOnUse" x="0" y="0" width="0" height="0" fill="black">
<rect fill="white" width="0" height="0"/>
</mask>
<path d="M124.22 24.7197C123.927 25.0126 123.927 25.4874 124.22 25.7803L128.993 30.5533C129.286 30.8462 129.76 30.8462 130.053 30.5533C130.346 30.2604 130.346 29.7855 130.053 29.4926L125.811 25.25L130.053 21.0074C130.346 20.7145 130.346 20.2396 130.053 19.9467C129.76 19.6538 129.286 19.6538 128.993 19.9467L124.22 24.7197ZM193.78 25.7803C194.073 25.4874 194.073 25.0126 193.78 24.7197L189.007 19.9467C188.714 19.6538 188.24 19.6538 187.947 19.9467C187.654 20.2396 187.654 20.7145 187.947 21.0074L192.189 25.25L187.947 29.4926C187.654 29.7855 187.654 30.2604 187.947 30.5533C188.24 30.8462 188.714 30.8462 189.007 30.5533L193.78 25.7803ZM124.75 26H193.25V24.5H124.75V26Z" fill="#0D69D4" mask="url(#)"/>
<mask maskUnits="userSpaceOnUse" x="0" y="0" width="0" height="0" fill="black">
<rect fill="white" width="0" height="0"/>
</mask>
<path d="M195.22 24.7197C194.927 25.0126 194.927 25.4874 195.22 25.7803L199.993 30.5533C200.286 30.8462 200.76 30.8462 201.053 30.5533C201.346 30.2604 201.346 29.7855 201.053 29.4926L196.811 25.25L201.053 21.0074C201.346 20.7145 201.346 20.2396 201.053 19.9467C200.76 19.6538 200.286 19.6538 199.993 19.9467L195.22 24.7197ZM264.78 25.7803C265.073 25.4874 265.073 25.0126 264.78 24.7197L260.007 19.9467C259.714 19.6538 259.24 19.6538 258.947 19.9467C258.654 20.2396 258.654 20.7145 258.947 21.0074L263.189 25.25L258.947 29.4926C258.654 29.7855 258.654 30.2604 258.947 30.5533C259.24 30.8462 259.714 30.8462 260.007 30.5533L264.78 25.7803ZM195.75 26H264.25V24.5H195.75V26Z" fill="#0D69D4" mask="url(#)"/>
</g>
<rect x="154" y="74" width="12" height="20" fill="#C54600" fill-opacity="0.3"/>
<line x1="154.5" y1="58" x2="154.5" y2="94" stroke="#C54600"/>
<line x1="165.5" y1="58" x2="165.5" y2="94" stroke="#C54600"/>
<path d="M157.504 45.2727V54H155.659V47.0241H155.608L153.609 48.277V46.6406L155.77 45.2727H157.504ZM159.578 54V52.6705L162.685 49.794C162.949 49.5384 163.171 49.3082 163.35 49.1037C163.532 48.8991 163.669 48.6989 163.763 48.5028C163.857 48.304 163.904 48.0895 163.904 47.8594C163.904 47.6037 163.846 47.3835 163.729 47.1989C163.613 47.0114 163.453 46.8679 163.252 46.7685C163.05 46.6662 162.821 46.6151 162.566 46.6151C162.299 46.6151 162.066 46.669 161.867 46.777C161.668 46.8849 161.515 47.0398 161.407 47.2415C161.299 47.4432 161.245 47.6832 161.245 47.9616H159.493C159.493 47.3906 159.623 46.8949 159.881 46.4744C160.14 46.054 160.502 45.7287 160.968 45.4986C161.434 45.2685 161.971 45.1534 162.578 45.1534C163.203 45.1534 163.748 45.2642 164.211 45.4858C164.676 45.7045 165.039 46.0085 165.297 46.3977C165.556 46.7869 165.685 47.233 165.685 47.7358C165.685 48.0653 165.62 48.3906 165.489 48.7116C165.361 49.0327 165.132 49.3892 164.803 49.7812C164.473 50.1705 164.009 50.6378 163.409 51.1832L162.135 52.4318V52.4915H165.8V54H159.578Z" fill="#C54600"/>
<g clip-path="url(#clip4_890_9857)">
<mask maskUnits="userSpaceOnUse" x="0" y="0" width="0" height="0" fill="black">
<rect fill="white" width="0" height="0"/>
</mask>
<path d="M124.146 65.1464C123.951 65.3417 123.951 65.6583 124.146 65.8536L127.328 69.0355C127.524 69.2308 127.84 69.2308 128.036 69.0355C128.231 68.8403 128.231 68.5237 128.036 68.3284L125.207 65.5L128.036 62.6716C128.231 62.4763 128.231 62.1597 128.036 61.9645C127.84 61.7692 127.524 61.7692 127.328 61.9645L124.146 65.1464ZM143.354 65.8536C143.549 65.6583 143.549 65.3417 143.354 65.1464L140.172 61.9645C139.976 61.7692 139.66 61.7692 139.464 61.9645C139.269 62.1597 139.269 62.4763 139.464 62.6716L142.293 65.5L139.464 68.3284C139.269 68.5237 139.269 68.8403 139.464 69.0355C139.66 69.2308 139.976 69.2308 140.172 69.0355L143.354 65.8536ZM124.5 66H143V65H124.5V66Z" fill="#0D69D4" mask="url(#)"/>
<mask maskUnits="userSpaceOnUse" x="0" y="0" width="0" height="0" fill="black">
<rect fill="white" width="0" height="0"/>
</mask>
<path d="M144.646 65.1464C144.451 65.3417 144.451 65.6583 144.646 65.8536L147.828 69.0355C148.024 69.2308 148.34 69.2308 148.536 69.0355C148.731 68.8403 148.731 68.5237 148.536 68.3284L145.707 65.5L148.536 62.6716C148.731 62.4763 148.731 62.1597 148.536 61.9645C148.34 61.7692 148.024 61.7692 147.828 61.9645L144.646 65.1464ZM163.854 65.8536C164.049 65.6583 164.049 65.3417 163.854 65.1464L160.672 61.9645C160.476 61.7692 160.16 61.7692 159.964 61.9645C159.769 62.1597 159.769 62.4763 159.964 62.6716L162.793 65.5L159.964 68.3284C159.769 68.5237 159.769 68.8403 159.964 69.0355C160.16 69.2308 160.476 69.2308 160.672 69.0355L163.854 65.8536ZM145 66H163.5V65H145V66Z" fill="#0D69D4" mask="url(#)"/>
</g>
<rect x="134" y="74" width="20" height="20" fill="#0D69D4" fill-opacity="0.2"/>
<g clip-path="url(#clip5_890_9857)">
<mask maskUnits="userSpaceOnUse" x="0" y="0" width="0" height="0" fill="black">
<rect fill="white" width="0" height="0"/>
</mask>
<path d="M156.146 65.1464C155.951 65.3417 155.951 65.6583 156.146 65.8536L159.328 69.0355C159.524 69.2308 159.84 69.2308 160.036 69.0355C160.231 68.8403 160.231 68.5237 160.036 68.3284L157.207 65.5L160.036 62.6716C160.231 62.4763 160.231 62.1597 160.036 61.9645C159.84 61.7692 159.524 61.7692 159.328 61.9645L156.146 65.1464ZM209.854 65.8536C210.049 65.6583 210.049 65.3417 209.854 65.1464L206.672 61.9645C206.476 61.7692 206.16 61.7692 205.964 61.9645C205.769 62.1597 205.769 62.4763 205.964 62.6716L208.793 65.5L205.964 68.3284C205.769 68.5237 205.769 68.8403 205.964 69.0355C206.16 69.2308 206.476 69.2308 206.672 69.0355L209.854 65.8536ZM156.5 66H209.5V65H156.5V66Z" fill="#0D69D4" mask="url(#)"/>
<mask maskUnits="userSpaceOnUse" x="0" y="0" width="0" height="0" fill="black">
<rect fill="white" width="0" height="0"/>
</mask>
<path d="M211.146 65.1464C210.951 65.3417 210.951 65.6583 211.146 65.8536L214.328 69.0355C214.524 69.2308 214.84 69.2308 215.036 69.0355C215.231 68.8403 215.231 68.5237 215.036 68.3284L212.207 65.5L215.036 62.6716C215.231 62.4763 215.231 62.1597 215.036 61.9645C214.84 61.7692 214.524 61.7692 214.328 61.9645L211.146 65.1464ZM264.854 65.8536C265.049 65.6583 265.049 65.3417 264.854 65.1464L261.672 61.9645C261.476 61.7692 261.16 61.7692 260.964 61.9645C260.769 62.1597 260.769 62.4763 260.964 62.6716L263.793 65.5L260.964 68.3284C260.769 68.5237 260.769 68.8403 260.964 69.0355C261.16 69.2308 261.476 69.2308 261.672 69.0355L264.854 65.8536ZM211.5 66H264.5V65H211.5V66Z" fill="#0D69D4" mask="url(#)"/>
</g>
<rect x="166" y="74" width="89" height="20" fill="#0D69D4" fill-opacity="0.2"/>
<defs>
<clipPath id="clip0_890_9857">
<rect width="16" height="16" fill="white" transform="translate(94 18)"/>
</clipPath>
<clipPath id="clip1_890_9857">
<rect width="20" height="16" fill="white" transform="matrix(0 1 -1 0 94 74)"/>
</clipPath>
<clipPath id="clip2_890_9857">
<rect width="40" height="16" fill="white" transform="matrix(0 1 -1 0 94 64)"/>
</clipPath>
<clipPath id="clip3_890_9857">
<rect width="121" height="16" fill="white" transform="translate(134 18)"/>
</clipPath>
<clipPath id="clip4_890_9857">
<rect width="20" height="16" fill="white" transform="translate(134 58)"/>
</clipPath>
<clipPath id="clip5_890_9857">
<rect width="89" height="16" fill="white" transform="translate(166 58)"/>
</clipPath>
</defs>
</svg>
