<svg width="804" height="120" viewBox="0 0 804 120" fill="none" xmlns="http://www.w3.org/2000/svg">
<rect x="0.5" y="0.5" width="803" height="119" fill="#F9FAFB"/>
<rect x="532.5" y="50.5" width="19" height="19" rx="3.5" fill="white"/>
<rect x="532.5" y="50.5" width="19" height="19" rx="3.5" stroke="#D8DEE9"/>
<path d="M565.145 65V55.5455H568.339C569.078 55.5455 569.684 55.6716 570.158 55.924C570.632 56.1733 570.983 56.5165 571.211 56.9535C571.439 57.3905 571.553 57.8875 571.553 58.4446C571.553 59.0017 571.439 59.4956 571.211 59.9265C570.983 60.3574 570.634 60.6959 570.163 60.9421C569.692 61.1853 569.09 61.3068 568.358 61.3068H565.773V60.2727H568.321C568.826 60.2727 569.232 60.1989 569.54 60.0511C569.851 59.9034 570.075 59.6941 570.214 59.4233C570.355 59.1494 570.426 58.8232 570.426 58.4446C570.426 58.0661 570.355 57.7352 570.214 57.4521C570.072 57.1689 569.846 56.9504 569.535 56.7965C569.224 56.6396 568.813 56.5611 568.303 56.5611H566.29V65H565.145ZM569.595 60.7528L571.922 65H570.592L568.303 60.7528H569.595ZM576.209 65.1477C575.526 65.1477 574.937 64.9969 574.441 64.6953C573.949 64.3906 573.569 63.9659 573.301 63.4212C573.036 62.8733 572.904 62.2363 572.904 61.5099C572.904 60.7836 573.036 60.1435 573.301 59.5895C573.569 59.0324 573.941 58.5985 574.418 58.2876C574.898 57.9737 575.458 57.8168 576.099 57.8168C576.468 57.8168 576.833 57.8783 577.193 58.0014C577.553 58.1245 577.881 58.3246 578.176 58.6016C578.472 58.8755 578.707 59.2386 578.882 59.6911C579.058 60.1435 579.146 60.7005 579.146 61.3622V61.8239H573.68V60.8821H578.038C578.038 60.482 577.958 60.125 577.797 59.8111C577.641 59.4972 577.416 59.2494 577.123 59.0678C576.834 58.8862 576.493 58.7955 576.099 58.7955C575.665 58.7955 575.289 58.9032 574.972 59.1186C574.658 59.331 574.417 59.608 574.247 59.9496C574.078 60.2912 573.994 60.6574 573.994 61.0483V61.6761C573.994 62.2116 574.086 62.6656 574.271 63.038C574.458 63.4073 574.718 63.6889 575.051 63.8828C575.383 64.0736 575.769 64.169 576.209 64.169C576.496 64.169 576.754 64.129 576.985 64.049C577.219 63.9659 577.42 63.8428 577.59 63.6797C577.759 63.5135 577.89 63.3073 577.982 63.0611L579.035 63.3565C578.924 63.7135 578.738 64.0275 578.476 64.2983C578.215 64.5661 577.891 64.7753 577.507 64.9261C577.122 65.0739 576.69 65.1477 576.209 65.1477ZM580.803 65V57.9091H581.855V59.017H581.948C582.095 58.6385 582.334 58.3446 582.663 58.1353C582.993 57.9229 583.388 57.8168 583.85 57.8168C584.318 57.8168 584.707 57.9229 585.018 58.1353C585.332 58.3446 585.576 58.6385 585.752 59.017H585.826C586.007 58.6508 586.28 58.36 586.643 58.1445C587.006 57.926 587.441 57.8168 587.949 57.8168C588.583 57.8168 589.102 58.0153 589.505 58.4123C589.908 58.8062 590.11 59.4202 590.11 60.2543V65H589.02V60.2543C589.02 59.7311 588.877 59.3571 588.591 59.1325C588.305 58.9078 587.968 58.7955 587.58 58.7955C587.081 58.7955 586.695 58.9463 586.421 59.2479C586.147 59.5464 586.01 59.925 586.01 60.3835V65H584.902V60.1435C584.902 59.7403 584.771 59.4156 584.51 59.1694C584.248 58.9201 583.911 58.7955 583.499 58.7955C583.216 58.7955 582.951 58.8709 582.705 59.0217C582.462 59.1725 582.265 59.3817 582.114 59.6495C581.966 59.9142 581.892 60.2204 581.892 60.5682V65H580.803ZM595.075 65.1477C594.391 65.1477 593.802 64.9969 593.307 64.6953C592.814 64.3906 592.434 63.9659 592.166 63.4212C591.902 62.8733 591.769 62.2363 591.769 61.5099C591.769 60.7836 591.902 60.1435 592.166 59.5895C592.434 59.0324 592.806 58.5985 593.283 58.2876C593.764 57.9737 594.324 57.8168 594.964 57.8168C595.333 57.8168 595.698 57.8783 596.058 58.0014C596.418 58.1245 596.746 58.3246 597.041 58.6016C597.337 58.8755 597.572 59.2386 597.748 59.6911C597.923 60.1435 598.011 60.7005 598.011 61.3622V61.8239H592.545V60.8821H596.903C596.903 60.482 596.823 60.125 596.663 59.8111C596.506 59.4972 596.281 59.2494 595.989 59.0678C595.699 58.8862 595.358 58.7955 594.964 58.7955C594.53 58.7955 594.154 58.9032 593.837 59.1186C593.524 59.331 593.282 59.608 593.113 59.9496C592.943 60.2912 592.859 60.6574 592.859 61.0483V61.6761C592.859 62.2116 592.951 62.6656 593.136 63.038C593.323 63.4073 593.584 63.6889 593.916 63.8828C594.248 64.0736 594.635 64.169 595.075 64.169C595.361 64.169 595.619 64.129 595.85 64.049C596.084 63.9659 596.286 63.8428 596.455 63.6797C596.624 63.5135 596.755 63.3073 596.847 63.0611L597.9 63.3565C597.789 63.7135 597.603 64.0275 597.341 64.2983C597.08 64.5661 596.757 64.7753 596.372 64.9261C595.987 65.0739 595.555 65.1477 595.075 65.1477ZM599.668 65V57.9091H600.721V59.017H600.813C600.961 58.6385 601.199 58.3446 601.528 58.1353C601.858 57.9229 602.253 57.8168 602.715 57.8168C603.183 57.8168 603.572 57.9229 603.883 58.1353C604.197 58.3446 604.441 58.6385 604.617 59.017H604.691C604.872 58.6508 605.145 58.36 605.508 58.1445C605.871 57.926 606.307 57.8168 606.814 57.8168C607.448 57.8168 607.967 58.0153 608.37 58.4123C608.773 58.8062 608.975 59.4202 608.975 60.2543V65H607.885V60.2543C607.885 59.7311 607.742 59.3571 607.456 59.1325C607.17 58.9078 606.833 58.7955 606.445 58.7955C605.946 58.7955 605.56 58.9463 605.286 59.2479C605.012 59.5464 604.875 59.925 604.875 60.3835V65H603.767V60.1435C603.767 59.7403 603.637 59.4156 603.375 59.1694C603.113 58.9201 602.776 58.7955 602.364 58.7955C602.081 58.7955 601.816 58.8709 601.57 59.0217C601.327 59.1725 601.13 59.3817 600.979 59.6495C600.831 59.9142 600.758 60.2204 600.758 60.5682V65H599.668ZM611.115 65V55.5455H612.204V59.0355H612.296C612.376 58.9124 612.487 58.7554 612.629 58.5646C612.773 58.3707 612.98 58.1984 613.247 58.0476C613.518 57.8937 613.884 57.8168 614.346 57.8168C614.943 57.8168 615.469 57.966 615.925 58.2646C616.38 58.5631 616.736 58.9863 616.991 59.5341C617.247 60.0819 617.375 60.7282 617.375 61.473C617.375 62.224 617.247 62.8749 616.991 63.4258C616.736 63.9736 616.382 64.3983 615.93 64.6999C615.477 64.9985 614.956 65.1477 614.365 65.1477C613.909 65.1477 613.544 65.0723 613.271 64.9215C612.997 64.7676 612.786 64.5937 612.638 64.3999C612.49 64.2029 612.376 64.0398 612.296 63.9105H612.167V65H611.115ZM612.186 61.4545C612.186 61.9901 612.264 62.4625 612.421 62.8718C612.578 63.2781 612.807 63.5966 613.109 63.8274C613.411 64.0552 613.78 64.169 614.217 64.169C614.672 64.169 615.052 64.049 615.357 63.8089C615.665 63.5658 615.896 63.2396 616.05 62.8303C616.207 62.4179 616.285 61.9593 616.285 61.4545C616.285 60.956 616.208 60.5066 616.054 60.1065C615.903 59.7034 615.674 59.3848 615.366 59.1509C615.062 58.9139 614.679 58.7955 614.217 58.7955C613.774 58.7955 613.401 58.9078 613.1 59.1325C612.798 59.354 612.57 59.6649 612.416 60.065C612.263 60.462 612.186 60.9252 612.186 61.4545ZM622.014 65.1477C621.331 65.1477 620.742 64.9969 620.246 64.6953C619.754 64.3906 619.373 63.9659 619.106 63.4212C618.841 62.8733 618.709 62.2363 618.709 61.5099C618.709 60.7836 618.841 60.1435 619.106 59.5895C619.373 59.0324 619.746 58.5985 620.223 58.2876C620.703 57.9737 621.263 57.8168 621.903 57.8168C622.273 57.8168 622.637 57.8783 622.997 58.0014C623.358 58.1245 623.685 58.3246 623.981 58.6016C624.276 58.8755 624.512 59.2386 624.687 59.6911C624.862 60.1435 624.95 60.7005 624.95 61.3622V61.8239H619.484V60.8821H623.842C623.842 60.482 623.762 60.125 623.602 59.8111C623.445 59.4972 623.221 59.2494 622.928 59.0678C622.639 58.8862 622.297 58.7955 621.903 58.7955C621.469 58.7955 621.094 58.9032 620.777 59.1186C620.463 59.331 620.221 59.608 620.052 59.9496C619.883 60.2912 619.798 60.6574 619.798 61.0483V61.6761C619.798 62.2116 619.891 62.6656 620.075 63.038C620.263 63.4073 620.523 63.6889 620.855 63.8828C621.188 64.0736 621.574 64.169 622.014 64.169C622.3 64.169 622.559 64.129 622.79 64.049C623.024 63.9659 623.225 63.8428 623.394 63.6797C623.564 63.5135 623.695 63.3073 623.787 63.0611L624.839 63.3565C624.729 63.7135 624.542 64.0275 624.281 64.2983C624.019 64.5661 623.696 64.7753 623.311 64.9261C622.927 65.0739 622.494 65.1477 622.014 65.1477ZM626.608 65V57.9091H627.66V58.9801H627.734C627.863 58.6293 628.097 58.3446 628.436 58.1261C628.774 57.9076 629.156 57.7983 629.581 57.7983C629.661 57.7983 629.761 57.7998 629.881 57.8029C630.001 57.806 630.091 57.8106 630.153 57.8168V58.9247C630.116 58.9155 630.031 58.9016 629.899 58.8832C629.77 58.8616 629.633 58.8509 629.488 58.8509C629.143 58.8509 628.836 58.9232 628.565 59.0678C628.297 59.2094 628.085 59.4064 627.928 59.6587C627.774 59.908 627.697 60.1927 627.697 60.5128V65H626.608ZM635.101 65V57.9091H636.153V59.017H636.246C636.393 58.6385 636.632 58.3446 636.961 58.1353C637.29 57.9229 637.686 57.8168 638.148 57.8168C638.615 57.8168 639.005 57.9229 639.316 58.1353C639.629 58.3446 639.874 58.6385 640.05 59.017H640.123C640.305 58.6508 640.577 58.36 640.941 58.1445C641.304 57.926 641.739 57.8168 642.247 57.8168C642.881 57.8168 643.4 58.0153 643.803 58.4123C644.206 58.8062 644.407 59.4202 644.407 60.2543V65H643.318V60.2543C643.318 59.7311 643.175 59.3571 642.889 59.1325C642.602 58.9078 642.265 58.7955 641.878 58.7955C641.379 58.7955 640.993 58.9463 640.719 59.2479C640.445 59.5464 640.308 59.925 640.308 60.3835V65H639.2V60.1435C639.2 59.7403 639.069 59.4156 638.808 59.1694C638.546 58.9201 638.209 58.7955 637.797 58.7955C637.514 58.7955 637.249 58.8709 637.003 59.0217C636.76 59.1725 636.563 59.3817 636.412 59.6495C636.264 59.9142 636.19 60.2204 636.19 60.5682V65H635.101ZM649.373 65.1477C648.689 65.1477 648.1 64.9969 647.604 64.6953C647.112 64.3906 646.732 63.9659 646.464 63.4212C646.199 62.8733 646.067 62.2363 646.067 61.5099C646.067 60.7836 646.199 60.1435 646.464 59.5895C646.732 59.0324 647.104 58.5985 647.581 58.2876C648.061 57.9737 648.622 57.8168 649.262 57.8168C649.631 57.8168 649.996 57.8783 650.356 58.0014C650.716 58.1245 651.044 58.3246 651.339 58.6016C651.635 58.8755 651.87 59.2386 652.045 59.6911C652.221 60.1435 652.309 60.7005 652.309 61.3622V61.8239H646.843V60.8821H651.201C651.201 60.482 651.121 60.125 650.961 59.8111C650.804 59.4972 650.579 59.2494 650.287 59.0678C649.997 58.8862 649.656 58.7955 649.262 58.7955C648.828 58.7955 648.452 58.9032 648.135 59.1186C647.821 59.331 647.58 59.608 647.411 59.9496C647.241 60.2912 647.157 60.6574 647.157 61.0483V61.6761C647.157 62.2116 647.249 62.6656 647.434 63.038C647.621 63.4073 647.881 63.6889 648.214 63.8828C648.546 64.0736 648.932 64.169 649.373 64.169C649.659 64.169 649.917 64.129 650.148 64.049C650.382 63.9659 650.584 63.8428 650.753 63.6797C650.922 63.5135 651.053 63.3073 651.145 63.0611L652.198 63.3565C652.087 63.7135 651.901 64.0275 651.639 64.2983C651.378 64.5661 651.054 64.7753 650.67 64.9261C650.285 65.0739 649.853 65.1477 649.373 65.1477Z" fill="#344054"/>
<rect x="255.5" y="52.5" width="15" height="15" rx="3.5" fill="white"/>
<rect x="255.5" y="52.5" width="15" height="15" rx="3.5" stroke="#D8DEE9"/>
<path d="M280.145 65V55.5455H283.339C284.078 55.5455 284.684 55.6716 285.158 55.924C285.632 56.1733 285.983 56.5165 286.211 56.9535C286.439 57.3905 286.553 57.8875 286.553 58.4446C286.553 59.0017 286.439 59.4956 286.211 59.9265C285.983 60.3574 285.634 60.6959 285.163 60.9421C284.692 61.1853 284.09 61.3068 283.358 61.3068H280.773V60.2727H283.321C283.826 60.2727 284.232 60.1989 284.54 60.0511C284.851 59.9034 285.075 59.6941 285.214 59.4233C285.355 59.1494 285.426 58.8232 285.426 58.4446C285.426 58.0661 285.355 57.7352 285.214 57.4521C285.072 57.1689 284.846 56.9504 284.535 56.7965C284.224 56.6396 283.813 56.5611 283.303 56.5611H281.29V65H280.145ZM284.595 60.7528L286.922 65H285.592L283.303 60.7528H284.595ZM291.209 65.1477C290.526 65.1477 289.937 64.9969 289.441 64.6953C288.949 64.3906 288.569 63.9659 288.301 63.4212C288.036 62.8733 287.904 62.2363 287.904 61.5099C287.904 60.7836 288.036 60.1435 288.301 59.5895C288.569 59.0324 288.941 58.5985 289.418 58.2876C289.898 57.9737 290.458 57.8168 291.099 57.8168C291.468 57.8168 291.833 57.8783 292.193 58.0014C292.553 58.1245 292.881 58.3246 293.176 58.6016C293.472 58.8755 293.707 59.2386 293.882 59.6911C294.058 60.1435 294.146 60.7005 294.146 61.3622V61.8239H288.68V60.8821H293.038C293.038 60.482 292.958 60.125 292.797 59.8111C292.641 59.4972 292.416 59.2494 292.123 59.0678C291.834 58.8862 291.493 58.7955 291.099 58.7955C290.665 58.7955 290.289 58.9032 289.972 59.1186C289.658 59.331 289.417 59.608 289.247 59.9496C289.078 60.2912 288.994 60.6574 288.994 61.0483V61.6761C288.994 62.2116 289.086 62.6656 289.271 63.038C289.458 63.4073 289.718 63.6889 290.051 63.8828C290.383 64.0736 290.769 64.169 291.209 64.169C291.496 64.169 291.754 64.129 291.985 64.049C292.219 63.9659 292.42 63.8428 292.59 63.6797C292.759 63.5135 292.89 63.3073 292.982 63.0611L294.035 63.3565C293.924 63.7135 293.738 64.0275 293.476 64.2983C293.215 64.5661 292.891 64.7753 292.507 64.9261C292.122 65.0739 291.69 65.1477 291.209 65.1477ZM295.803 65V57.9091H296.855V59.017H296.948C297.095 58.6385 297.334 58.3446 297.663 58.1353C297.993 57.9229 298.388 57.8168 298.85 57.8168C299.318 57.8168 299.707 57.9229 300.018 58.1353C300.332 58.3446 300.576 58.6385 300.752 59.017H300.826C301.007 58.6508 301.28 58.36 301.643 58.1445C302.006 57.926 302.441 57.8168 302.949 57.8168C303.583 57.8168 304.102 58.0153 304.505 58.4123C304.908 58.8062 305.11 59.4202 305.11 60.2543V65H304.02V60.2543C304.02 59.7311 303.877 59.3571 303.591 59.1325C303.305 58.9078 302.968 58.7955 302.58 58.7955C302.081 58.7955 301.695 58.9463 301.421 59.2479C301.147 59.5464 301.01 59.925 301.01 60.3835V65H299.902V60.1435C299.902 59.7403 299.771 59.4156 299.51 59.1694C299.248 58.9201 298.911 58.7955 298.499 58.7955C298.216 58.7955 297.951 58.8709 297.705 59.0217C297.462 59.1725 297.265 59.3817 297.114 59.6495C296.966 59.9142 296.892 60.2204 296.892 60.5682V65H295.803ZM310.075 65.1477C309.391 65.1477 308.802 64.9969 308.307 64.6953C307.814 64.3906 307.434 63.9659 307.166 63.4212C306.902 62.8733 306.769 62.2363 306.769 61.5099C306.769 60.7836 306.902 60.1435 307.166 59.5895C307.434 59.0324 307.806 58.5985 308.283 58.2876C308.764 57.9737 309.324 57.8168 309.964 57.8168C310.333 57.8168 310.698 57.8783 311.058 58.0014C311.418 58.1245 311.746 58.3246 312.041 58.6016C312.337 58.8755 312.572 59.2386 312.748 59.6911C312.923 60.1435 313.011 60.7005 313.011 61.3622V61.8239H307.545V60.8821H311.903C311.903 60.482 311.823 60.125 311.663 59.8111C311.506 59.4972 311.281 59.2494 310.989 59.0678C310.699 58.8862 310.358 58.7955 309.964 58.7955C309.53 58.7955 309.154 58.9032 308.837 59.1186C308.524 59.331 308.282 59.608 308.113 59.9496C307.943 60.2912 307.859 60.6574 307.859 61.0483V61.6761C307.859 62.2116 307.951 62.6656 308.136 63.038C308.323 63.4073 308.584 63.6889 308.916 63.8828C309.248 64.0736 309.635 64.169 310.075 64.169C310.361 64.169 310.619 64.129 310.85 64.049C311.084 63.9659 311.286 63.8428 311.455 63.6797C311.624 63.5135 311.755 63.3073 311.847 63.0611L312.9 63.3565C312.789 63.7135 312.603 64.0275 312.341 64.2983C312.08 64.5661 311.757 64.7753 311.372 64.9261C310.987 65.0739 310.555 65.1477 310.075 65.1477ZM314.668 65V57.9091H315.721V59.017H315.813C315.961 58.6385 316.199 58.3446 316.528 58.1353C316.858 57.9229 317.253 57.8168 317.715 57.8168C318.183 57.8168 318.572 57.9229 318.883 58.1353C319.197 58.3446 319.441 58.6385 319.617 59.017H319.691C319.872 58.6508 320.145 58.36 320.508 58.1445C320.871 57.926 321.307 57.8168 321.814 57.8168C322.448 57.8168 322.967 58.0153 323.37 58.4123C323.773 58.8062 323.975 59.4202 323.975 60.2543V65H322.885V60.2543C322.885 59.7311 322.742 59.3571 322.456 59.1325C322.17 58.9078 321.833 58.7955 321.445 58.7955C320.946 58.7955 320.56 58.9463 320.286 59.2479C320.012 59.5464 319.875 59.925 319.875 60.3835V65H318.767V60.1435C318.767 59.7403 318.637 59.4156 318.375 59.1694C318.113 58.9201 317.776 58.7955 317.364 58.7955C317.081 58.7955 316.816 58.8709 316.57 59.0217C316.327 59.1725 316.13 59.3817 315.979 59.6495C315.831 59.9142 315.758 60.2204 315.758 60.5682V65H314.668ZM326.115 65V55.5455H327.204V59.0355H327.296C327.376 58.9124 327.487 58.7554 327.629 58.5646C327.773 58.3707 327.98 58.1984 328.247 58.0476C328.518 57.8937 328.884 57.8168 329.346 57.8168C329.943 57.8168 330.469 57.966 330.925 58.2646C331.38 58.5631 331.736 58.9863 331.991 59.5341C332.247 60.0819 332.375 60.7282 332.375 61.473C332.375 62.224 332.247 62.8749 331.991 63.4258C331.736 63.9736 331.382 64.3983 330.93 64.6999C330.477 64.9985 329.956 65.1477 329.365 65.1477C328.909 65.1477 328.544 65.0723 328.271 64.9215C327.997 64.7676 327.786 64.5937 327.638 64.3999C327.49 64.2029 327.376 64.0398 327.296 63.9105H327.167V65H326.115ZM327.186 61.4545C327.186 61.9901 327.264 62.4625 327.421 62.8718C327.578 63.2781 327.807 63.5966 328.109 63.8274C328.411 64.0552 328.78 64.169 329.217 64.169C329.672 64.169 330.052 64.049 330.357 63.8089C330.665 63.5658 330.896 63.2396 331.05 62.8303C331.207 62.4179 331.285 61.9593 331.285 61.4545C331.285 60.956 331.208 60.5066 331.054 60.1065C330.903 59.7034 330.674 59.3848 330.366 59.1509C330.062 58.9139 329.679 58.7955 329.217 58.7955C328.774 58.7955 328.401 58.9078 328.1 59.1325C327.798 59.354 327.57 59.6649 327.416 60.065C327.263 60.462 327.186 60.9252 327.186 61.4545ZM337.014 65.1477C336.331 65.1477 335.742 64.9969 335.246 64.6953C334.754 64.3906 334.373 63.9659 334.106 63.4212C333.841 62.8733 333.709 62.2363 333.709 61.5099C333.709 60.7836 333.841 60.1435 334.106 59.5895C334.373 59.0324 334.746 58.5985 335.223 58.2876C335.703 57.9737 336.263 57.8168 336.903 57.8168C337.273 57.8168 337.637 57.8783 337.997 58.0014C338.358 58.1245 338.685 58.3246 338.981 58.6016C339.276 58.8755 339.512 59.2386 339.687 59.6911C339.862 60.1435 339.95 60.7005 339.95 61.3622V61.8239H334.484V60.8821H338.842C338.842 60.482 338.762 60.125 338.602 59.8111C338.445 59.4972 338.221 59.2494 337.928 59.0678C337.639 58.8862 337.297 58.7955 336.903 58.7955C336.469 58.7955 336.094 58.9032 335.777 59.1186C335.463 59.331 335.221 59.608 335.052 59.9496C334.883 60.2912 334.798 60.6574 334.798 61.0483V61.6761C334.798 62.2116 334.891 62.6656 335.075 63.038C335.263 63.4073 335.523 63.6889 335.855 63.8828C336.188 64.0736 336.574 64.169 337.014 64.169C337.3 64.169 337.559 64.129 337.79 64.049C338.024 63.9659 338.225 63.8428 338.394 63.6797C338.564 63.5135 338.695 63.3073 338.787 63.0611L339.839 63.3565C339.729 63.7135 339.542 64.0275 339.281 64.2983C339.019 64.5661 338.696 64.7753 338.311 64.9261C337.927 65.0739 337.494 65.1477 337.014 65.1477ZM341.608 65V57.9091H342.66V58.9801H342.734C342.863 58.6293 343.097 58.3446 343.436 58.1261C343.774 57.9076 344.156 57.7983 344.581 57.7983C344.661 57.7983 344.761 57.7998 344.881 57.8029C345.001 57.806 345.091 57.8106 345.153 57.8168V58.9247C345.116 58.9155 345.031 58.9016 344.899 58.8832C344.77 58.8616 344.633 58.8509 344.488 58.8509C344.143 58.8509 343.836 58.9232 343.565 59.0678C343.297 59.2094 343.085 59.4064 342.928 59.6587C342.774 59.908 342.697 60.1927 342.697 60.5128V65H341.608ZM350.101 65V57.9091H351.153V59.017H351.246C351.393 58.6385 351.632 58.3446 351.961 58.1353C352.29 57.9229 352.686 57.8168 353.148 57.8168C353.615 57.8168 354.005 57.9229 354.316 58.1353C354.629 58.3446 354.874 58.6385 355.05 59.017H355.123C355.305 58.6508 355.577 58.36 355.941 58.1445C356.304 57.926 356.739 57.8168 357.247 57.8168C357.881 57.8168 358.4 58.0153 358.803 58.4123C359.206 58.8062 359.407 59.4202 359.407 60.2543V65H358.318V60.2543C358.318 59.7311 358.175 59.3571 357.889 59.1325C357.602 58.9078 357.265 58.7955 356.878 58.7955C356.379 58.7955 355.993 58.9463 355.719 59.2479C355.445 59.5464 355.308 59.925 355.308 60.3835V65H354.2V60.1435C354.2 59.7403 354.069 59.4156 353.808 59.1694C353.546 58.9201 353.209 58.7955 352.797 58.7955C352.514 58.7955 352.249 58.8709 352.003 59.0217C351.76 59.1725 351.563 59.3817 351.412 59.6495C351.264 59.9142 351.19 60.2204 351.19 60.5682V65H350.101ZM364.373 65.1477C363.689 65.1477 363.1 64.9969 362.604 64.6953C362.112 64.3906 361.732 63.9659 361.464 63.4212C361.199 62.8733 361.067 62.2363 361.067 61.5099C361.067 60.7836 361.199 60.1435 361.464 59.5895C361.732 59.0324 362.104 58.5985 362.581 58.2876C363.061 57.9737 363.622 57.8168 364.262 57.8168C364.631 57.8168 364.996 57.8783 365.356 58.0014C365.716 58.1245 366.044 58.3246 366.339 58.6016C366.635 58.8755 366.87 59.2386 367.045 59.6911C367.221 60.1435 367.309 60.7005 367.309 61.3622V61.8239H361.843V60.8821H366.201C366.201 60.482 366.121 60.125 365.961 59.8111C365.804 59.4972 365.579 59.2494 365.287 59.0678C364.997 58.8862 364.656 58.7955 364.262 58.7955C363.828 58.7955 363.452 58.9032 363.135 59.1186C362.821 59.331 362.58 59.608 362.411 59.9496C362.241 60.2912 362.157 60.6574 362.157 61.0483V61.6761C362.157 62.2116 362.249 62.6656 362.434 63.038C362.621 63.4073 362.881 63.6889 363.214 63.8828C363.546 64.0736 363.932 64.169 364.373 64.169C364.659 64.169 364.917 64.129 365.148 64.049C365.382 63.9659 365.584 63.8428 365.753 63.6797C365.922 63.5135 366.053 63.3073 366.145 63.0611L367.198 63.3565C367.087 63.7135 366.901 64.0275 366.639 64.2983C366.378 64.5661 366.054 64.7753 365.67 64.9261C365.285 65.0739 364.853 65.1477 364.373 65.1477Z" fill="#344054"/>
<path d="M247 50H231V70H247" stroke="#FF0000"/>
<path d="M231 60L211 60" stroke="#FF0000"/>
<path d="M157.761 59.0526L156.607 59.2571C156.558 59.1094 156.482 58.9687 156.376 58.8352C156.274 58.7017 156.135 58.5923 155.959 58.5071C155.783 58.4219 155.563 58.3793 155.298 58.3793C154.938 58.3793 154.636 58.4602 154.395 58.6222C154.153 58.7812 154.033 58.9872 154.033 59.2401C154.033 59.4588 154.114 59.6349 154.276 59.7685C154.438 59.902 154.699 60.0114 155.06 60.0966L156.099 60.3352C156.702 60.4744 157.151 60.6889 157.446 60.9787C157.741 61.2685 157.889 61.6449 157.889 62.108C157.889 62.5 157.776 62.8494 157.548 63.1562C157.324 63.4602 157.01 63.6989 156.607 63.8722C156.206 64.0455 155.741 64.1321 155.213 64.1321C154.48 64.1321 153.882 63.9759 153.419 63.6634C152.956 63.348 152.672 62.9006 152.567 62.321L153.798 62.1335C153.875 62.4545 154.033 62.6974 154.271 62.8622C154.51 63.0241 154.821 63.1051 155.205 63.1051C155.622 63.1051 155.956 63.0185 156.206 62.8452C156.456 62.669 156.581 62.4545 156.581 62.2017C156.581 61.9972 156.504 61.8253 156.351 61.6861C156.2 61.5469 155.969 61.4418 155.656 61.3707L154.548 61.1278C153.938 60.9886 153.486 60.767 153.193 60.4631C152.903 60.1591 152.759 59.7741 152.759 59.3082C152.759 58.9219 152.866 58.5838 153.082 58.294C153.298 58.0043 153.597 57.7784 153.977 57.6165C154.358 57.4517 154.794 57.3693 155.286 57.3693C155.993 57.3693 156.55 57.5227 156.956 57.8295C157.362 58.1335 157.631 58.5412 157.761 59.0526ZM159.29 64V57.4545H160.513V58.5199H160.594C160.73 58.1591 160.953 57.8778 161.263 57.6761C161.573 57.4716 161.944 57.3693 162.375 57.3693C162.813 57.3693 163.179 57.4716 163.475 57.6761C163.773 57.8807 163.993 58.1619 164.135 58.5199H164.203C164.36 58.1705 164.608 57.892 164.949 57.6847C165.29 57.4744 165.696 57.3693 166.168 57.3693C166.762 57.3693 167.246 57.5554 167.621 57.9276C167.999 58.2997 168.188 58.8608 168.188 59.6108V64H166.914V59.7301C166.914 59.2869 166.793 58.9659 166.551 58.767C166.31 58.5682 166.022 58.4688 165.686 58.4688C165.272 58.4688 164.949 58.5966 164.719 58.8523C164.489 59.1051 164.374 59.4304 164.374 59.8281V64H163.104V59.6491C163.104 59.294 162.993 59.0085 162.772 58.7926C162.55 58.5767 162.262 58.4688 161.907 58.4688C161.665 58.4688 161.442 58.5327 161.238 58.6605C161.036 58.7855 160.873 58.9602 160.748 59.1847C160.625 59.4091 160.564 59.669 160.564 59.9645V64H159.29ZM173.752 59.7599V60.8636H169.883V59.7599H173.752ZM178.744 55.2727V64H177.423V56.5938H177.372L175.284 57.9574V56.696L177.462 55.2727H178.744ZM184.152 64.1193C183.763 64.1136 183.379 64.0426 183.001 63.9062C182.626 63.7699 182.286 63.5426 181.979 63.2244C181.672 62.9062 181.426 62.4787 181.241 61.9418C181.06 61.4048 180.969 60.7344 180.969 59.9304C180.969 59.169 181.044 58.4929 181.195 57.902C181.348 57.3111 181.568 56.8125 181.855 56.4062C182.142 55.9972 182.489 55.6861 182.895 55.473C183.301 55.2599 183.757 55.1534 184.263 55.1534C184.783 55.1534 185.244 55.2557 185.648 55.4602C186.051 55.6648 186.378 55.9474 186.628 56.3082C186.881 56.669 187.041 57.0795 187.109 57.5398H185.81C185.722 57.1761 185.547 56.8793 185.286 56.6491C185.024 56.419 184.683 56.304 184.263 56.304C183.624 56.304 183.125 56.5824 182.767 57.1392C182.412 57.696 182.233 58.4702 182.23 59.4616H182.294C182.445 59.2145 182.629 59.0043 182.848 58.831C183.07 58.6548 183.317 58.5199 183.589 58.4261C183.865 58.3295 184.155 58.2812 184.459 58.2812C184.964 58.2812 185.422 58.4048 185.831 58.652C186.243 58.8963 186.571 59.2344 186.815 59.6662C187.06 60.098 187.182 60.5923 187.182 61.1491C187.182 61.706 187.055 62.2102 186.803 62.6619C186.553 63.1136 186.2 63.4716 185.746 63.7358C185.291 63.9972 184.76 64.125 184.152 64.1193ZM184.148 63.0114C184.483 63.0114 184.783 62.929 185.047 62.7642C185.311 62.5994 185.52 62.3778 185.673 62.0994C185.827 61.821 185.903 61.5099 185.903 61.1662C185.903 60.831 185.828 60.5256 185.678 60.25C185.53 59.9744 185.325 59.7557 185.064 59.5938C184.805 59.4318 184.51 59.3509 184.178 59.3509C183.925 59.3509 183.69 59.3991 183.474 59.4957C183.261 59.5923 183.074 59.7259 182.912 59.8963C182.75 60.0668 182.622 60.2628 182.528 60.4844C182.438 60.7031 182.392 60.9347 182.392 61.179C182.392 61.5057 182.467 61.8082 182.618 62.0866C182.771 62.3651 182.98 62.5895 183.244 62.7599C183.511 62.9276 183.813 63.0114 184.148 63.0114ZM188.751 66.4545V57.4545H189.995V58.5156H190.102C190.176 58.3793 190.282 58.2216 190.422 58.0426C190.561 57.8636 190.754 57.7074 191.001 57.5739C191.248 57.4375 191.575 57.3693 191.981 57.3693C192.51 57.3693 192.981 57.5028 193.396 57.7699C193.811 58.0369 194.136 58.4219 194.372 58.9247C194.61 59.4276 194.73 60.0327 194.73 60.7401C194.73 61.4474 194.612 62.054 194.376 62.5597C194.14 63.0625 193.816 63.4503 193.404 63.723C192.993 63.9929 192.522 64.1278 191.994 64.1278C191.596 64.1278 191.271 64.0611 191.018 63.9276C190.768 63.794 190.572 63.6378 190.43 63.4588C190.288 63.2798 190.179 63.1207 190.102 62.9815H190.025V66.4545H188.751ZM190 60.7273C190 61.1875 190.066 61.5909 190.2 61.9375C190.333 62.2841 190.527 62.5554 190.779 62.7514C191.032 62.9446 191.342 63.0412 191.708 63.0412C192.089 63.0412 192.407 62.9403 192.663 62.7386C192.919 62.5341 193.112 62.2571 193.243 61.9077C193.376 61.5582 193.443 61.1648 193.443 60.7273C193.443 60.2955 193.377 59.9077 193.247 59.5639C193.119 59.2202 192.926 58.9489 192.667 58.75C192.412 58.5511 192.092 58.4517 191.708 58.4517C191.339 58.4517 191.027 58.5469 190.771 58.7372C190.518 58.9276 190.326 59.1932 190.196 59.5341C190.065 59.875 190 60.2727 190 60.7273ZM196.905 57.4545L198.35 60.0028L199.807 57.4545H201.201L199.159 60.7273L201.218 64H199.824L198.35 61.554L196.88 64H195.482L197.519 60.7273L195.507 57.4545H196.905Z" fill="black"/>
<path d="M523 47H507V73H523" stroke="#FF0000"/>
<path d="M507 60L487 60" stroke="#FF0000"/>
<path d="M428.857 64V57.4545H430.08V58.5199H430.161C430.297 58.1591 430.52 57.8778 430.83 57.6761C431.139 57.4716 431.51 57.3693 431.942 57.3693C432.379 57.3693 432.746 57.4716 433.041 57.6761C433.339 57.8807 433.56 58.1619 433.702 58.5199H433.77C433.926 58.1705 434.175 57.892 434.516 57.6847C434.857 57.4744 435.263 57.3693 435.734 57.3693C436.328 57.3693 436.812 57.5554 437.188 57.9276C437.565 58.2997 437.754 58.8608 437.754 59.6108V64H436.48V59.7301C436.48 59.2869 436.359 58.9659 436.118 58.767C435.876 58.5682 435.588 58.4688 435.253 58.4688C434.838 58.4688 434.516 58.5966 434.286 58.8523C434.055 59.1051 433.94 59.4304 433.94 59.8281V64H432.67V59.6491C432.67 59.294 432.56 59.0085 432.338 58.7926C432.116 58.5767 431.828 58.4688 431.473 58.4688C431.232 58.4688 431.009 58.5327 430.804 58.6605C430.602 58.7855 430.439 58.9602 430.314 59.1847C430.192 59.4091 430.131 59.669 430.131 59.9645V64H428.857ZM441.912 64.1278C441.384 64.1278 440.912 63.9929 440.498 63.723C440.086 63.4503 439.762 63.0625 439.526 62.5597C439.293 62.054 439.176 61.4474 439.176 60.7401C439.176 60.0327 439.294 59.4276 439.53 58.9247C439.769 58.4219 440.096 58.0369 440.51 57.7699C440.925 57.5028 441.395 57.3693 441.921 57.3693C442.327 57.3693 442.654 57.4375 442.901 57.5739C443.151 57.7074 443.344 57.8636 443.48 58.0426C443.62 58.2216 443.728 58.3793 443.804 58.5156H443.881V55.2727H445.155V64H443.911V62.9815H443.804C443.728 63.1207 443.617 63.2798 443.472 63.4588C443.33 63.6378 443.134 63.794 442.884 63.9276C442.634 64.0611 442.31 64.1278 441.912 64.1278ZM442.194 63.0412C442.56 63.0412 442.87 62.9446 443.123 62.7514C443.378 62.5554 443.571 62.2841 443.702 61.9375C443.836 61.5909 443.902 61.1875 443.902 60.7273C443.902 60.2727 443.837 59.875 443.706 59.5341C443.576 59.1932 443.384 58.9276 443.131 58.7372C442.878 58.5469 442.566 58.4517 442.194 58.4517C441.81 58.4517 441.49 58.5511 441.235 58.75C440.979 58.9489 440.786 59.2202 440.655 59.5639C440.527 59.9077 440.463 60.2955 440.463 60.7273C440.463 61.1648 440.529 61.5582 440.659 61.9077C440.79 62.2571 440.983 62.5341 441.239 62.7386C441.498 62.9403 441.816 63.0412 442.194 63.0412ZM450.83 59.7599V60.8636H446.961V59.7599H450.83ZM452.16 64V63.0455L455.113 59.9858C455.428 59.6534 455.688 59.3622 455.893 59.1122C456.1 58.8594 456.255 58.6193 456.357 58.392C456.46 58.1648 456.511 57.9233 456.511 57.6676C456.511 57.3778 456.442 57.1278 456.306 56.9176C456.17 56.7045 455.984 56.5412 455.748 56.4276C455.512 56.3111 455.246 56.2528 454.951 56.2528C454.638 56.2528 454.366 56.3168 454.133 56.4446C453.9 56.5724 453.721 56.7528 453.596 56.9858C453.471 57.2187 453.408 57.4915 453.408 57.804H452.151C452.151 57.2727 452.273 56.8082 452.518 56.4105C452.762 56.0128 453.097 55.7045 453.523 55.4858C453.95 55.2642 454.434 55.1534 454.977 55.1534C455.525 55.1534 456.008 55.2628 456.425 55.4815C456.846 55.6974 457.174 55.9929 457.41 56.3679C457.646 56.7401 457.763 57.1605 457.763 57.6293C457.763 57.9531 457.702 58.2699 457.58 58.5795C457.461 58.8892 457.252 59.2344 456.954 59.6151C456.656 59.9929 456.241 60.4517 455.71 60.9915L453.975 62.8068V62.8707H457.904V64H452.16ZM462.558 64.1449C461.884 64.142 461.309 63.9645 460.832 63.6122C460.354 63.2599 459.989 62.7472 459.737 62.0739C459.484 61.4006 459.357 60.5895 459.357 59.6406C459.357 58.6946 459.484 57.8864 459.737 57.2159C459.992 56.5455 460.359 56.0341 460.836 55.6818C461.316 55.3295 461.89 55.1534 462.558 55.1534C463.225 55.1534 463.798 55.331 464.275 55.6861C464.752 56.0384 465.117 56.5497 465.37 57.2202C465.626 57.8878 465.754 58.6946 465.754 59.6406C465.754 60.5923 465.627 61.4048 465.374 62.0781C465.121 62.7486 464.756 63.2614 464.279 63.6165C463.802 63.9688 463.228 64.1449 462.558 64.1449ZM462.558 63.0071C463.148 63.0071 463.61 62.7188 463.942 62.142C464.278 61.5653 464.445 60.7315 464.445 59.6406C464.445 58.9162 464.369 58.304 464.215 57.804C464.065 57.3011 463.847 56.9205 463.563 56.6619C463.282 56.4006 462.947 56.2699 462.558 56.2699C461.969 56.2699 461.508 56.5597 461.173 57.1392C460.837 57.7187 460.668 58.5526 460.665 59.6406C460.665 60.3679 460.741 60.983 460.891 61.4858C461.045 61.9858 461.262 62.3651 461.543 62.6236C461.825 62.8793 462.163 63.0071 462.558 63.0071ZM467.282 66.4545V57.4545H468.527V58.5156H468.633C468.707 58.3793 468.814 58.2216 468.953 58.0426C469.092 57.8636 469.285 57.7074 469.532 57.5739C469.779 57.4375 470.106 57.3693 470.512 57.3693C471.041 57.3693 471.512 57.5028 471.927 57.7699C472.342 58.0369 472.667 58.4219 472.903 58.9247C473.142 59.4276 473.261 60.0327 473.261 60.7401C473.261 61.4474 473.143 62.054 472.907 62.5597C472.672 63.0625 472.348 63.4503 471.936 63.723C471.524 63.9929 471.054 64.1278 470.525 64.1278C470.127 64.1278 469.802 64.0611 469.549 63.9276C469.299 63.794 469.103 63.6378 468.961 63.4588C468.819 63.2798 468.71 63.1207 468.633 62.9815H468.556V66.4545H467.282ZM468.531 60.7273C468.531 61.1875 468.598 61.5909 468.731 61.9375C468.865 62.2841 469.058 62.5554 469.311 62.7514C469.564 62.9446 469.873 63.0412 470.24 63.0412C470.62 63.0412 470.939 62.9403 471.194 62.7386C471.45 62.5341 471.643 62.2571 471.774 61.9077C471.907 61.5582 471.974 61.1648 471.974 60.7273C471.974 60.2955 471.909 59.9077 471.778 59.5639C471.65 59.2202 471.457 58.9489 471.199 58.75C470.943 58.5511 470.623 58.4517 470.24 58.4517C469.87 58.4517 469.558 58.5469 469.302 58.7372C469.049 58.9276 468.858 59.1932 468.727 59.5341C468.596 59.875 468.531 60.2727 468.531 60.7273ZM475.436 57.4545L476.881 60.0028L478.338 57.4545H479.732L477.691 60.7273L479.749 64H478.355L476.881 61.554L475.411 64H474.013L476.05 60.7273L474.039 57.4545H475.436Z" fill="black"/>
<rect x="0.5" y="0.5" width="803" height="119" stroke="white"/>
</svg>
