<svg width="804" height="149" viewBox="0 0 804 149" fill="none" xmlns="http://www.w3.org/2000/svg">
<g clip-path="url(#clip0_890_9893)">
<rect x="0.5" y="0.5" width="803" height="148" fill="#F9FAFB"/>
<rect x="88.5" y="49.5" width="19" height="19" rx="3.5" fill="white"/>
<rect x="88.5" y="49.5" width="19" height="19" rx="3.5" stroke="#D8DEE9"/>
<path d="M121.145 64V54.5455H124.339C125.078 54.5455 125.684 54.6716 126.158 54.924C126.632 55.1733 126.983 55.5165 127.211 55.9535C127.439 56.3905 127.553 56.8875 127.553 57.4446C127.553 58.0017 127.439 58.4956 127.211 58.9265C126.983 59.3574 126.634 59.6959 126.163 59.9421C125.692 60.1853 125.09 60.3068 124.358 60.3068H121.773V59.2727H124.321C124.826 59.2727 125.232 59.1989 125.54 59.0511C125.851 58.9034 126.075 58.6941 126.214 58.4233C126.355 58.1494 126.426 57.8232 126.426 57.4446C126.426 57.0661 126.355 56.7352 126.214 56.4521C126.072 56.1689 125.846 55.9504 125.535 55.7965C125.224 55.6396 124.813 55.5611 124.303 55.5611H122.29V64H121.145ZM125.595 59.7528L127.922 64H126.592L124.303 59.7528H125.595ZM132.209 64.1477C131.526 64.1477 130.937 63.9969 130.441 63.6953C129.949 63.3906 129.569 62.9659 129.301 62.4212C129.036 61.8733 128.904 61.2363 128.904 60.5099C128.904 59.7836 129.036 59.1435 129.301 58.5895C129.569 58.0324 129.941 57.5985 130.418 57.2876C130.898 56.9737 131.458 56.8168 132.099 56.8168C132.468 56.8168 132.833 56.8783 133.193 57.0014C133.553 57.1245 133.881 57.3246 134.176 57.6016C134.472 57.8755 134.707 58.2386 134.882 58.6911C135.058 59.1435 135.146 59.7005 135.146 60.3622V60.8239H129.68V59.8821H134.038C134.038 59.482 133.958 59.125 133.797 58.8111C133.641 58.4972 133.416 58.2494 133.123 58.0678C132.834 57.8862 132.493 57.7955 132.099 57.7955C131.665 57.7955 131.289 57.9032 130.972 58.1186C130.658 58.331 130.417 58.608 130.247 58.9496C130.078 59.2912 129.994 59.6574 129.994 60.0483V60.6761C129.994 61.2116 130.086 61.6656 130.271 62.038C130.458 62.4073 130.718 62.6889 131.051 62.8828C131.383 63.0736 131.769 63.169 132.209 63.169C132.496 63.169 132.754 63.129 132.985 63.049C133.219 62.9659 133.42 62.8428 133.59 62.6797C133.759 62.5135 133.89 62.3073 133.982 62.0611L135.035 62.3565C134.924 62.7135 134.738 63.0275 134.476 63.2983C134.215 63.5661 133.891 63.7753 133.507 63.9261C133.122 64.0739 132.69 64.1477 132.209 64.1477ZM136.803 64V56.9091H137.855V58.017H137.948C138.095 57.6385 138.334 57.3446 138.663 57.1353C138.993 56.9229 139.388 56.8168 139.85 56.8168C140.318 56.8168 140.707 56.9229 141.018 57.1353C141.332 57.3446 141.576 57.6385 141.752 58.017H141.826C142.007 57.6508 142.28 57.36 142.643 57.1445C143.006 56.926 143.441 56.8168 143.949 56.8168C144.583 56.8168 145.102 57.0153 145.505 57.4123C145.908 57.8062 146.11 58.4202 146.11 59.2543V64H145.02V59.2543C145.02 58.7311 144.877 58.3571 144.591 58.1325C144.305 57.9078 143.968 57.7955 143.58 57.7955C143.081 57.7955 142.695 57.9463 142.421 58.2479C142.147 58.5464 142.01 58.925 142.01 59.3835V64H140.902V59.1435C140.902 58.7403 140.771 58.4156 140.51 58.1694C140.248 57.9201 139.911 57.7955 139.499 57.7955C139.216 57.7955 138.951 57.8709 138.705 58.0217C138.462 58.1725 138.265 58.3817 138.114 58.6495C137.966 58.9142 137.892 59.2204 137.892 59.5682V64H136.803ZM151.075 64.1477C150.391 64.1477 149.802 63.9969 149.307 63.6953C148.814 63.3906 148.434 62.9659 148.166 62.4212C147.902 61.8733 147.769 61.2363 147.769 60.5099C147.769 59.7836 147.902 59.1435 148.166 58.5895C148.434 58.0324 148.806 57.5985 149.283 57.2876C149.764 56.9737 150.324 56.8168 150.964 56.8168C151.333 56.8168 151.698 56.8783 152.058 57.0014C152.418 57.1245 152.746 57.3246 153.041 57.6016C153.337 57.8755 153.572 58.2386 153.748 58.6911C153.923 59.1435 154.011 59.7005 154.011 60.3622V60.8239H148.545V59.8821H152.903C152.903 59.482 152.823 59.125 152.663 58.8111C152.506 58.4972 152.281 58.2494 151.989 58.0678C151.699 57.8862 151.358 57.7955 150.964 57.7955C150.53 57.7955 150.154 57.9032 149.837 58.1186C149.524 58.331 149.282 58.608 149.113 58.9496C148.943 59.2912 148.859 59.6574 148.859 60.0483V60.6761C148.859 61.2116 148.951 61.6656 149.136 62.038C149.323 62.4073 149.584 62.6889 149.916 62.8828C150.248 63.0736 150.635 63.169 151.075 63.169C151.361 63.169 151.619 63.129 151.85 63.049C152.084 62.9659 152.286 62.8428 152.455 62.6797C152.624 62.5135 152.755 62.3073 152.847 62.0611L153.9 62.3565C153.789 62.7135 153.603 63.0275 153.341 63.2983C153.08 63.5661 152.757 63.7753 152.372 63.9261C151.987 64.0739 151.555 64.1477 151.075 64.1477ZM155.668 64V56.9091H156.721V58.017H156.813C156.961 57.6385 157.199 57.3446 157.528 57.1353C157.858 56.9229 158.253 56.8168 158.715 56.8168C159.183 56.8168 159.572 56.9229 159.883 57.1353C160.197 57.3446 160.441 57.6385 160.617 58.017H160.691C160.872 57.6508 161.145 57.36 161.508 57.1445C161.871 56.926 162.307 56.8168 162.814 56.8168C163.448 56.8168 163.967 57.0153 164.37 57.4123C164.773 57.8062 164.975 58.4202 164.975 59.2543V64H163.885V59.2543C163.885 58.7311 163.742 58.3571 163.456 58.1325C163.17 57.9078 162.833 57.7955 162.445 57.7955C161.946 57.7955 161.56 57.9463 161.286 58.2479C161.012 58.5464 160.875 58.925 160.875 59.3835V64H159.767V59.1435C159.767 58.7403 159.637 58.4156 159.375 58.1694C159.113 57.9201 158.776 57.7955 158.364 57.7955C158.081 57.7955 157.816 57.8709 157.57 58.0217C157.327 58.1725 157.13 58.3817 156.979 58.6495C156.831 58.9142 156.758 59.2204 156.758 59.5682V64H155.668ZM167.115 64V54.5455H168.204V58.0355H168.296C168.376 57.9124 168.487 57.7554 168.629 57.5646C168.773 57.3707 168.98 57.1984 169.247 57.0476C169.518 56.8937 169.884 56.8168 170.346 56.8168C170.943 56.8168 171.469 56.966 171.925 57.2646C172.38 57.5631 172.736 57.9863 172.991 58.5341C173.247 59.0819 173.375 59.7282 173.375 60.473C173.375 61.224 173.247 61.8749 172.991 62.4258C172.736 62.9736 172.382 63.3983 171.93 63.6999C171.477 63.9985 170.956 64.1477 170.365 64.1477C169.909 64.1477 169.544 64.0723 169.271 63.9215C168.997 63.7676 168.786 63.5937 168.638 63.3999C168.49 63.2029 168.376 63.0398 168.296 62.9105H168.167V64H167.115ZM168.186 60.4545C168.186 60.9901 168.264 61.4625 168.421 61.8718C168.578 62.2781 168.807 62.5966 169.109 62.8274C169.411 63.0552 169.78 63.169 170.217 63.169C170.672 63.169 171.052 63.049 171.357 62.8089C171.665 62.5658 171.896 62.2396 172.05 61.8303C172.207 61.4179 172.285 60.9593 172.285 60.4545C172.285 59.956 172.208 59.5066 172.054 59.1065C171.903 58.7034 171.674 58.3848 171.366 58.1509C171.062 57.9139 170.679 57.7955 170.217 57.7955C169.774 57.7955 169.401 57.9078 169.1 58.1325C168.798 58.354 168.57 58.6649 168.416 59.065C168.263 59.462 168.186 59.9252 168.186 60.4545ZM178.014 64.1477C177.331 64.1477 176.742 63.9969 176.246 63.6953C175.754 63.3906 175.373 62.9659 175.106 62.4212C174.841 61.8733 174.709 61.2363 174.709 60.5099C174.709 59.7836 174.841 59.1435 175.106 58.5895C175.373 58.0324 175.746 57.5985 176.223 57.2876C176.703 56.9737 177.263 56.8168 177.903 56.8168C178.273 56.8168 178.637 56.8783 178.997 57.0014C179.358 57.1245 179.685 57.3246 179.981 57.6016C180.276 57.8755 180.512 58.2386 180.687 58.6911C180.862 59.1435 180.95 59.7005 180.95 60.3622V60.8239H175.484V59.8821H179.842C179.842 59.482 179.762 59.125 179.602 58.8111C179.445 58.4972 179.221 58.2494 178.928 58.0678C178.639 57.8862 178.297 57.7955 177.903 57.7955C177.469 57.7955 177.094 57.9032 176.777 58.1186C176.463 58.331 176.221 58.608 176.052 58.9496C175.883 59.2912 175.798 59.6574 175.798 60.0483V60.6761C175.798 61.2116 175.891 61.6656 176.075 62.038C176.263 62.4073 176.523 62.6889 176.855 62.8828C177.188 63.0736 177.574 63.169 178.014 63.169C178.3 63.169 178.559 63.129 178.79 63.049C179.024 62.9659 179.225 62.8428 179.394 62.6797C179.564 62.5135 179.695 62.3073 179.787 62.0611L180.839 62.3565C180.729 62.7135 180.542 63.0275 180.281 63.2983C180.019 63.5661 179.696 63.7753 179.311 63.9261C178.927 64.0739 178.494 64.1477 178.014 64.1477ZM182.608 64V56.9091H183.66V57.9801H183.734C183.863 57.6293 184.097 57.3446 184.436 57.1261C184.774 56.9076 185.156 56.7983 185.581 56.7983C185.661 56.7983 185.761 56.7998 185.881 56.8029C186.001 56.806 186.091 56.8106 186.153 56.8168V57.9247C186.116 57.9155 186.031 57.9016 185.899 57.8832C185.77 57.8616 185.633 57.8509 185.488 57.8509C185.143 57.8509 184.836 57.9232 184.565 58.0678C184.297 58.2094 184.085 58.4064 183.928 58.6587C183.774 58.908 183.697 59.1927 183.697 59.5128V64H182.608ZM191.101 64V56.9091H192.153V58.017H192.246C192.393 57.6385 192.632 57.3446 192.961 57.1353C193.29 56.9229 193.686 56.8168 194.148 56.8168C194.615 56.8168 195.005 56.9229 195.316 57.1353C195.629 57.3446 195.874 57.6385 196.05 58.017H196.123C196.305 57.6508 196.577 57.36 196.941 57.1445C197.304 56.926 197.739 56.8168 198.247 56.8168C198.881 56.8168 199.4 57.0153 199.803 57.4123C200.206 57.8062 200.407 58.4202 200.407 59.2543V64H199.318V59.2543C199.318 58.7311 199.175 58.3571 198.889 58.1325C198.602 57.9078 198.265 57.7955 197.878 57.7955C197.379 57.7955 196.993 57.9463 196.719 58.2479C196.445 58.5464 196.308 58.925 196.308 59.3835V64H195.2V59.1435C195.2 58.7403 195.069 58.4156 194.808 58.1694C194.546 57.9201 194.209 57.7955 193.797 57.7955C193.514 57.7955 193.249 57.8709 193.003 58.0217C192.76 58.1725 192.563 58.3817 192.412 58.6495C192.264 58.9142 192.19 59.2204 192.19 59.5682V64H191.101ZM205.373 64.1477C204.689 64.1477 204.1 63.9969 203.604 63.6953C203.112 63.3906 202.732 62.9659 202.464 62.4212C202.199 61.8733 202.067 61.2363 202.067 60.5099C202.067 59.7836 202.199 59.1435 202.464 58.5895C202.732 58.0324 203.104 57.5985 203.581 57.2876C204.061 56.9737 204.622 56.8168 205.262 56.8168C205.631 56.8168 205.996 56.8783 206.356 57.0014C206.716 57.1245 207.044 57.3246 207.339 57.6016C207.635 57.8755 207.87 58.2386 208.045 58.6911C208.221 59.1435 208.309 59.7005 208.309 60.3622V60.8239H202.843V59.8821H207.201C207.201 59.482 207.121 59.125 206.961 58.8111C206.804 58.4972 206.579 58.2494 206.287 58.0678C205.997 57.8862 205.656 57.7955 205.262 57.7955C204.828 57.7955 204.452 57.9032 204.135 58.1186C203.821 58.331 203.58 58.608 203.411 58.9496C203.241 59.2912 203.157 59.6574 203.157 60.0483V60.6761C203.157 61.2116 203.249 61.6656 203.434 62.038C203.621 62.4073 203.881 62.6889 204.214 62.8828C204.546 63.0736 204.932 63.169 205.373 63.169C205.659 63.169 205.917 63.129 206.148 63.049C206.382 62.9659 206.584 62.8428 206.753 62.6797C206.922 62.5135 207.053 62.3073 207.145 62.0611L208.198 62.3565C208.087 62.7135 207.901 63.0275 207.639 63.2983C207.378 63.5661 207.054 63.7753 206.67 63.9261C206.285 64.0739 205.853 64.1477 205.373 64.1477Z" fill="#344054"/>
<rect x="257.5" y="49.5" width="19" height="19" rx="3.5" fill="white"/>
<rect x="257.5" y="49.5" width="19" height="19" rx="3.5" stroke="#99C5FF"/>
<path d="M290.145 64V54.5455H293.339C294.078 54.5455 294.684 54.6716 295.158 54.924C295.632 55.1733 295.983 55.5165 296.211 55.9535C296.439 56.3905 296.553 56.8875 296.553 57.4446C296.553 58.0017 296.439 58.4956 296.211 58.9265C295.983 59.3574 295.634 59.6959 295.163 59.9421C294.692 60.1853 294.09 60.3068 293.358 60.3068H290.773V59.2727H293.321C293.826 59.2727 294.232 59.1989 294.54 59.0511C294.851 58.9034 295.075 58.6941 295.214 58.4233C295.355 58.1494 295.426 57.8232 295.426 57.4446C295.426 57.0661 295.355 56.7352 295.214 56.4521C295.072 56.1689 294.846 55.9504 294.535 55.7965C294.224 55.6396 293.813 55.5611 293.303 55.5611H291.29V64H290.145ZM294.595 59.7528L296.922 64H295.592L293.303 59.7528H294.595ZM301.209 64.1477C300.526 64.1477 299.937 63.9969 299.441 63.6953C298.949 63.3906 298.569 62.9659 298.301 62.4212C298.036 61.8733 297.904 61.2363 297.904 60.5099C297.904 59.7836 298.036 59.1435 298.301 58.5895C298.569 58.0324 298.941 57.5985 299.418 57.2876C299.898 56.9737 300.458 56.8168 301.099 56.8168C301.468 56.8168 301.833 56.8783 302.193 57.0014C302.553 57.1245 302.881 57.3246 303.176 57.6016C303.472 57.8755 303.707 58.2386 303.882 58.6911C304.058 59.1435 304.146 59.7005 304.146 60.3622V60.8239H298.68V59.8821H303.038C303.038 59.482 302.958 59.125 302.797 58.8111C302.641 58.4972 302.416 58.2494 302.123 58.0678C301.834 57.8862 301.493 57.7955 301.099 57.7955C300.665 57.7955 300.289 57.9032 299.972 58.1186C299.658 58.331 299.417 58.608 299.247 58.9496C299.078 59.2912 298.994 59.6574 298.994 60.0483V60.6761C298.994 61.2116 299.086 61.6656 299.271 62.038C299.458 62.4073 299.718 62.6889 300.051 62.8828C300.383 63.0736 300.769 63.169 301.209 63.169C301.496 63.169 301.754 63.129 301.985 63.049C302.219 62.9659 302.42 62.8428 302.59 62.6797C302.759 62.5135 302.89 62.3073 302.982 62.0611L304.035 62.3565C303.924 62.7135 303.738 63.0275 303.476 63.2983C303.215 63.5661 302.891 63.7753 302.507 63.9261C302.122 64.0739 301.69 64.1477 301.209 64.1477ZM305.803 64V56.9091H306.855V58.017H306.948C307.095 57.6385 307.334 57.3446 307.663 57.1353C307.993 56.9229 308.388 56.8168 308.85 56.8168C309.318 56.8168 309.707 56.9229 310.018 57.1353C310.332 57.3446 310.576 57.6385 310.752 58.017H310.826C311.007 57.6508 311.28 57.36 311.643 57.1445C312.006 56.926 312.441 56.8168 312.949 56.8168C313.583 56.8168 314.102 57.0153 314.505 57.4123C314.908 57.8062 315.11 58.4202 315.11 59.2543V64H314.02V59.2543C314.02 58.7311 313.877 58.3571 313.591 58.1325C313.305 57.9078 312.968 57.7955 312.58 57.7955C312.081 57.7955 311.695 57.9463 311.421 58.2479C311.147 58.5464 311.01 58.925 311.01 59.3835V64H309.902V59.1435C309.902 58.7403 309.771 58.4156 309.51 58.1694C309.248 57.9201 308.911 57.7955 308.499 57.7955C308.216 57.7955 307.951 57.8709 307.705 58.0217C307.462 58.1725 307.265 58.3817 307.114 58.6495C306.966 58.9142 306.892 59.2204 306.892 59.5682V64H305.803ZM320.075 64.1477C319.391 64.1477 318.802 63.9969 318.307 63.6953C317.814 63.3906 317.434 62.9659 317.166 62.4212C316.902 61.8733 316.769 61.2363 316.769 60.5099C316.769 59.7836 316.902 59.1435 317.166 58.5895C317.434 58.0324 317.806 57.5985 318.283 57.2876C318.764 56.9737 319.324 56.8168 319.964 56.8168C320.333 56.8168 320.698 56.8783 321.058 57.0014C321.418 57.1245 321.746 57.3246 322.041 57.6016C322.337 57.8755 322.572 58.2386 322.748 58.6911C322.923 59.1435 323.011 59.7005 323.011 60.3622V60.8239H317.545V59.8821H321.903C321.903 59.482 321.823 59.125 321.663 58.8111C321.506 58.4972 321.281 58.2494 320.989 58.0678C320.699 57.8862 320.358 57.7955 319.964 57.7955C319.53 57.7955 319.154 57.9032 318.837 58.1186C318.524 58.331 318.282 58.608 318.113 58.9496C317.943 59.2912 317.859 59.6574 317.859 60.0483V60.6761C317.859 61.2116 317.951 61.6656 318.136 62.038C318.323 62.4073 318.584 62.6889 318.916 62.8828C319.248 63.0736 319.635 63.169 320.075 63.169C320.361 63.169 320.619 63.129 320.85 63.049C321.084 62.9659 321.286 62.8428 321.455 62.6797C321.624 62.5135 321.755 62.3073 321.847 62.0611L322.9 62.3565C322.789 62.7135 322.603 63.0275 322.341 63.2983C322.08 63.5661 321.757 63.7753 321.372 63.9261C320.987 64.0739 320.555 64.1477 320.075 64.1477ZM324.668 64V56.9091H325.721V58.017H325.813C325.961 57.6385 326.199 57.3446 326.528 57.1353C326.858 56.9229 327.253 56.8168 327.715 56.8168C328.183 56.8168 328.572 56.9229 328.883 57.1353C329.197 57.3446 329.441 57.6385 329.617 58.017H329.691C329.872 57.6508 330.145 57.36 330.508 57.1445C330.871 56.926 331.307 56.8168 331.814 56.8168C332.448 56.8168 332.967 57.0153 333.37 57.4123C333.773 57.8062 333.975 58.4202 333.975 59.2543V64H332.885V59.2543C332.885 58.7311 332.742 58.3571 332.456 58.1325C332.17 57.9078 331.833 57.7955 331.445 57.7955C330.946 57.7955 330.56 57.9463 330.286 58.2479C330.012 58.5464 329.875 58.925 329.875 59.3835V64H328.767V59.1435C328.767 58.7403 328.637 58.4156 328.375 58.1694C328.113 57.9201 327.776 57.7955 327.364 57.7955C327.081 57.7955 326.816 57.8709 326.57 58.0217C326.327 58.1725 326.13 58.3817 325.979 58.6495C325.831 58.9142 325.758 59.2204 325.758 59.5682V64H324.668ZM336.115 64V54.5455H337.204V58.0355H337.296C337.376 57.9124 337.487 57.7554 337.629 57.5646C337.773 57.3707 337.98 57.1984 338.247 57.0476C338.518 56.8937 338.884 56.8168 339.346 56.8168C339.943 56.8168 340.469 56.966 340.925 57.2646C341.38 57.5631 341.736 57.9863 341.991 58.5341C342.247 59.0819 342.375 59.7282 342.375 60.473C342.375 61.224 342.247 61.8749 341.991 62.4258C341.736 62.9736 341.382 63.3983 340.93 63.6999C340.477 63.9985 339.956 64.1477 339.365 64.1477C338.909 64.1477 338.544 64.0723 338.271 63.9215C337.997 63.7676 337.786 63.5937 337.638 63.3999C337.49 63.2029 337.376 63.0398 337.296 62.9105H337.167V64H336.115ZM337.186 60.4545C337.186 60.9901 337.264 61.4625 337.421 61.8718C337.578 62.2781 337.807 62.5966 338.109 62.8274C338.411 63.0552 338.78 63.169 339.217 63.169C339.672 63.169 340.052 63.049 340.357 62.8089C340.665 62.5658 340.896 62.2396 341.05 61.8303C341.207 61.4179 341.285 60.9593 341.285 60.4545C341.285 59.956 341.208 59.5066 341.054 59.1065C340.903 58.7034 340.674 58.3848 340.366 58.1509C340.062 57.9139 339.679 57.7955 339.217 57.7955C338.774 57.7955 338.401 57.9078 338.1 58.1325C337.798 58.354 337.57 58.6649 337.416 59.065C337.263 59.462 337.186 59.9252 337.186 60.4545ZM347.014 64.1477C346.331 64.1477 345.742 63.9969 345.246 63.6953C344.754 63.3906 344.373 62.9659 344.106 62.4212C343.841 61.8733 343.709 61.2363 343.709 60.5099C343.709 59.7836 343.841 59.1435 344.106 58.5895C344.373 58.0324 344.746 57.5985 345.223 57.2876C345.703 56.9737 346.263 56.8168 346.903 56.8168C347.273 56.8168 347.637 56.8783 347.997 57.0014C348.358 57.1245 348.685 57.3246 348.981 57.6016C349.276 57.8755 349.512 58.2386 349.687 58.6911C349.862 59.1435 349.95 59.7005 349.95 60.3622V60.8239H344.484V59.8821H348.842C348.842 59.482 348.762 59.125 348.602 58.8111C348.445 58.4972 348.221 58.2494 347.928 58.0678C347.639 57.8862 347.297 57.7955 346.903 57.7955C346.469 57.7955 346.094 57.9032 345.777 58.1186C345.463 58.331 345.221 58.608 345.052 58.9496C344.883 59.2912 344.798 59.6574 344.798 60.0483V60.6761C344.798 61.2116 344.891 61.6656 345.075 62.038C345.263 62.4073 345.523 62.6889 345.855 62.8828C346.188 63.0736 346.574 63.169 347.014 63.169C347.3 63.169 347.559 63.129 347.79 63.049C348.024 62.9659 348.225 62.8428 348.394 62.6797C348.564 62.5135 348.695 62.3073 348.787 62.0611L349.839 62.3565C349.729 62.7135 349.542 63.0275 349.281 63.2983C349.019 63.5661 348.696 63.7753 348.311 63.9261C347.927 64.0739 347.494 64.1477 347.014 64.1477ZM351.608 64V56.9091H352.66V57.9801H352.734C352.863 57.6293 353.097 57.3446 353.436 57.1261C353.774 56.9076 354.156 56.7983 354.581 56.7983C354.661 56.7983 354.761 56.7998 354.881 56.8029C355.001 56.806 355.091 56.8106 355.153 56.8168V57.9247C355.116 57.9155 355.031 57.9016 354.899 57.8832C354.77 57.8616 354.633 57.8509 354.488 57.8509C354.143 57.8509 353.836 57.9232 353.565 58.0678C353.297 58.2094 353.085 58.4064 352.928 58.6587C352.774 58.908 352.697 59.1927 352.697 59.5128V64H351.608ZM360.101 64V56.9091H361.153V58.017H361.246C361.393 57.6385 361.632 57.3446 361.961 57.1353C362.29 56.9229 362.686 56.8168 363.148 56.8168C363.615 56.8168 364.005 56.9229 364.316 57.1353C364.629 57.3446 364.874 57.6385 365.05 58.017H365.123C365.305 57.6508 365.577 57.36 365.941 57.1445C366.304 56.926 366.739 56.8168 367.247 56.8168C367.881 56.8168 368.4 57.0153 368.803 57.4123C369.206 57.8062 369.407 58.4202 369.407 59.2543V64H368.318V59.2543C368.318 58.7311 368.175 58.3571 367.889 58.1325C367.602 57.9078 367.265 57.7955 366.878 57.7955C366.379 57.7955 365.993 57.9463 365.719 58.2479C365.445 58.5464 365.308 58.925 365.308 59.3835V64H364.2V59.1435C364.2 58.7403 364.069 58.4156 363.808 58.1694C363.546 57.9201 363.209 57.7955 362.797 57.7955C362.514 57.7955 362.249 57.8709 362.003 58.0217C361.76 58.1725 361.563 58.3817 361.412 58.6495C361.264 58.9142 361.19 59.2204 361.19 59.5682V64H360.101ZM374.373 64.1477C373.689 64.1477 373.1 63.9969 372.604 63.6953C372.112 63.3906 371.732 62.9659 371.464 62.4212C371.199 61.8733 371.067 61.2363 371.067 60.5099C371.067 59.7836 371.199 59.1435 371.464 58.5895C371.732 58.0324 372.104 57.5985 372.581 57.2876C373.061 56.9737 373.622 56.8168 374.262 56.8168C374.631 56.8168 374.996 56.8783 375.356 57.0014C375.716 57.1245 376.044 57.3246 376.339 57.6016C376.635 57.8755 376.87 58.2386 377.045 58.6911C377.221 59.1435 377.309 59.7005 377.309 60.3622V60.8239H371.843V59.8821H376.201C376.201 59.482 376.121 59.125 375.961 58.8111C375.804 58.4972 375.579 58.2494 375.287 58.0678C374.997 57.8862 374.656 57.7955 374.262 57.7955C373.828 57.7955 373.452 57.9032 373.135 58.1186C372.821 58.331 372.58 58.608 372.411 58.9496C372.241 59.2912 372.157 59.6574 372.157 60.0483V60.6761C372.157 61.2116 372.249 61.6656 372.434 62.038C372.621 62.4073 372.881 62.6889 373.214 62.8828C373.546 63.0736 373.932 63.169 374.373 63.169C374.659 63.169 374.917 63.129 375.148 63.049C375.382 62.9659 375.584 62.8428 375.753 62.6797C375.922 62.5135 376.053 62.3073 376.145 62.0611L377.198 62.3565C377.087 62.7135 376.901 63.0275 376.639 63.2983C376.378 63.5661 376.054 63.7753 375.67 63.9261C375.285 64.0739 374.853 64.1477 374.373 64.1477Z" fill="#344054"/>
<rect x="426.5" y="49.5" width="19" height="19" rx="3.5" fill="#217CF5"/>
<path d="M440.667 55.5L434.251 61.9167L431.334 59" stroke="white" stroke-width="2" stroke-linecap="round" stroke-linejoin="round"/>
<rect x="426.5" y="49.5" width="19" height="19" rx="3.5" stroke="#217CF5"/>
<path d="M459.145 64V54.5455H462.339C463.078 54.5455 463.684 54.6716 464.158 54.924C464.632 55.1733 464.983 55.5165 465.211 55.9535C465.439 56.3905 465.553 56.8875 465.553 57.4446C465.553 58.0017 465.439 58.4956 465.211 58.9265C464.983 59.3574 464.634 59.6959 464.163 59.9421C463.692 60.1853 463.09 60.3068 462.358 60.3068H459.773V59.2727H462.321C462.826 59.2727 463.232 59.1989 463.54 59.0511C463.851 58.9034 464.075 58.6941 464.214 58.4233C464.355 58.1494 464.426 57.8232 464.426 57.4446C464.426 57.0661 464.355 56.7352 464.214 56.4521C464.072 56.1689 463.846 55.9504 463.535 55.7965C463.224 55.6396 462.813 55.5611 462.303 55.5611H460.29V64H459.145ZM463.595 59.7528L465.922 64H464.592L462.303 59.7528H463.595ZM470.209 64.1477C469.526 64.1477 468.937 63.9969 468.441 63.6953C467.949 63.3906 467.569 62.9659 467.301 62.4212C467.036 61.8733 466.904 61.2363 466.904 60.5099C466.904 59.7836 467.036 59.1435 467.301 58.5895C467.569 58.0324 467.941 57.5985 468.418 57.2876C468.898 56.9737 469.458 56.8168 470.099 56.8168C470.468 56.8168 470.833 56.8783 471.193 57.0014C471.553 57.1245 471.881 57.3246 472.176 57.6016C472.472 57.8755 472.707 58.2386 472.882 58.6911C473.058 59.1435 473.146 59.7005 473.146 60.3622V60.8239H467.68V59.8821H472.038C472.038 59.482 471.958 59.125 471.797 58.8111C471.641 58.4972 471.416 58.2494 471.123 58.0678C470.834 57.8862 470.493 57.7955 470.099 57.7955C469.665 57.7955 469.289 57.9032 468.972 58.1186C468.658 58.331 468.417 58.608 468.247 58.9496C468.078 59.2912 467.994 59.6574 467.994 60.0483V60.6761C467.994 61.2116 468.086 61.6656 468.271 62.038C468.458 62.4073 468.718 62.6889 469.051 62.8828C469.383 63.0736 469.769 63.169 470.209 63.169C470.496 63.169 470.754 63.129 470.985 63.049C471.219 62.9659 471.42 62.8428 471.59 62.6797C471.759 62.5135 471.89 62.3073 471.982 62.0611L473.035 62.3565C472.924 62.7135 472.738 63.0275 472.476 63.2983C472.215 63.5661 471.891 63.7753 471.507 63.9261C471.122 64.0739 470.69 64.1477 470.209 64.1477ZM474.803 64V56.9091H475.855V58.017H475.948C476.095 57.6385 476.334 57.3446 476.663 57.1353C476.993 56.9229 477.388 56.8168 477.85 56.8168C478.318 56.8168 478.707 56.9229 479.018 57.1353C479.332 57.3446 479.576 57.6385 479.752 58.017H479.826C480.007 57.6508 480.28 57.36 480.643 57.1445C481.006 56.926 481.441 56.8168 481.949 56.8168C482.583 56.8168 483.102 57.0153 483.505 57.4123C483.908 57.8062 484.11 58.4202 484.11 59.2543V64H483.02V59.2543C483.02 58.7311 482.877 58.3571 482.591 58.1325C482.305 57.9078 481.968 57.7955 481.58 57.7955C481.081 57.7955 480.695 57.9463 480.421 58.2479C480.147 58.5464 480.01 58.925 480.01 59.3835V64H478.902V59.1435C478.902 58.7403 478.771 58.4156 478.51 58.1694C478.248 57.9201 477.911 57.7955 477.499 57.7955C477.216 57.7955 476.951 57.8709 476.705 58.0217C476.462 58.1725 476.265 58.3817 476.114 58.6495C475.966 58.9142 475.892 59.2204 475.892 59.5682V64H474.803ZM489.075 64.1477C488.391 64.1477 487.802 63.9969 487.307 63.6953C486.814 63.3906 486.434 62.9659 486.166 62.4212C485.902 61.8733 485.769 61.2363 485.769 60.5099C485.769 59.7836 485.902 59.1435 486.166 58.5895C486.434 58.0324 486.806 57.5985 487.283 57.2876C487.764 56.9737 488.324 56.8168 488.964 56.8168C489.333 56.8168 489.698 56.8783 490.058 57.0014C490.418 57.1245 490.746 57.3246 491.041 57.6016C491.337 57.8755 491.572 58.2386 491.748 58.6911C491.923 59.1435 492.011 59.7005 492.011 60.3622V60.8239H486.545V59.8821H490.903C490.903 59.482 490.823 59.125 490.663 58.8111C490.506 58.4972 490.281 58.2494 489.989 58.0678C489.699 57.8862 489.358 57.7955 488.964 57.7955C488.53 57.7955 488.154 57.9032 487.837 58.1186C487.524 58.331 487.282 58.608 487.113 58.9496C486.943 59.2912 486.859 59.6574 486.859 60.0483V60.6761C486.859 61.2116 486.951 61.6656 487.136 62.038C487.323 62.4073 487.584 62.6889 487.916 62.8828C488.248 63.0736 488.635 63.169 489.075 63.169C489.361 63.169 489.619 63.129 489.85 63.049C490.084 62.9659 490.286 62.8428 490.455 62.6797C490.624 62.5135 490.755 62.3073 490.847 62.0611L491.9 62.3565C491.789 62.7135 491.603 63.0275 491.341 63.2983C491.08 63.5661 490.757 63.7753 490.372 63.9261C489.987 64.0739 489.555 64.1477 489.075 64.1477ZM493.668 64V56.9091H494.721V58.017H494.813C494.961 57.6385 495.199 57.3446 495.528 57.1353C495.858 56.9229 496.253 56.8168 496.715 56.8168C497.183 56.8168 497.572 56.9229 497.883 57.1353C498.197 57.3446 498.441 57.6385 498.617 58.017H498.691C498.872 57.6508 499.145 57.36 499.508 57.1445C499.871 56.926 500.307 56.8168 500.814 56.8168C501.448 56.8168 501.967 57.0153 502.37 57.4123C502.773 57.8062 502.975 58.4202 502.975 59.2543V64H501.885V59.2543C501.885 58.7311 501.742 58.3571 501.456 58.1325C501.17 57.9078 500.833 57.7955 500.445 57.7955C499.946 57.7955 499.56 57.9463 499.286 58.2479C499.012 58.5464 498.875 58.925 498.875 59.3835V64H497.767V59.1435C497.767 58.7403 497.637 58.4156 497.375 58.1694C497.113 57.9201 496.776 57.7955 496.364 57.7955C496.081 57.7955 495.816 57.8709 495.57 58.0217C495.327 58.1725 495.13 58.3817 494.979 58.6495C494.831 58.9142 494.758 59.2204 494.758 59.5682V64H493.668ZM505.115 64V54.5455H506.204V58.0355H506.296C506.376 57.9124 506.487 57.7554 506.629 57.5646C506.773 57.3707 506.98 57.1984 507.247 57.0476C507.518 56.8937 507.884 56.8168 508.346 56.8168C508.943 56.8168 509.469 56.966 509.925 57.2646C510.38 57.5631 510.736 57.9863 510.991 58.5341C511.247 59.0819 511.375 59.7282 511.375 60.473C511.375 61.224 511.247 61.8749 510.991 62.4258C510.736 62.9736 510.382 63.3983 509.93 63.6999C509.477 63.9985 508.956 64.1477 508.365 64.1477C507.909 64.1477 507.544 64.0723 507.271 63.9215C506.997 63.7676 506.786 63.5937 506.638 63.3999C506.49 63.2029 506.376 63.0398 506.296 62.9105H506.167V64H505.115ZM506.186 60.4545C506.186 60.9901 506.264 61.4625 506.421 61.8718C506.578 62.2781 506.807 62.5966 507.109 62.8274C507.411 63.0552 507.78 63.169 508.217 63.169C508.672 63.169 509.052 63.049 509.357 62.8089C509.665 62.5658 509.896 62.2396 510.05 61.8303C510.207 61.4179 510.285 60.9593 510.285 60.4545C510.285 59.956 510.208 59.5066 510.054 59.1065C509.903 58.7034 509.674 58.3848 509.366 58.1509C509.062 57.9139 508.679 57.7955 508.217 57.7955C507.774 57.7955 507.401 57.9078 507.1 58.1325C506.798 58.354 506.57 58.6649 506.416 59.065C506.263 59.462 506.186 59.9252 506.186 60.4545ZM516.014 64.1477C515.331 64.1477 514.742 63.9969 514.246 63.6953C513.754 63.3906 513.373 62.9659 513.106 62.4212C512.841 61.8733 512.709 61.2363 512.709 60.5099C512.709 59.7836 512.841 59.1435 513.106 58.5895C513.373 58.0324 513.746 57.5985 514.223 57.2876C514.703 56.9737 515.263 56.8168 515.903 56.8168C516.273 56.8168 516.637 56.8783 516.997 57.0014C517.358 57.1245 517.685 57.3246 517.981 57.6016C518.276 57.8755 518.512 58.2386 518.687 58.6911C518.862 59.1435 518.95 59.7005 518.95 60.3622V60.8239H513.484V59.8821H517.842C517.842 59.482 517.762 59.125 517.602 58.8111C517.445 58.4972 517.221 58.2494 516.928 58.0678C516.639 57.8862 516.297 57.7955 515.903 57.7955C515.469 57.7955 515.094 57.9032 514.777 58.1186C514.463 58.331 514.221 58.608 514.052 58.9496C513.883 59.2912 513.798 59.6574 513.798 60.0483V60.6761C513.798 61.2116 513.891 61.6656 514.075 62.038C514.263 62.4073 514.523 62.6889 514.855 62.8828C515.188 63.0736 515.574 63.169 516.014 63.169C516.3 63.169 516.559 63.129 516.79 63.049C517.024 62.9659 517.225 62.8428 517.394 62.6797C517.564 62.5135 517.695 62.3073 517.787 62.0611L518.839 62.3565C518.729 62.7135 518.542 63.0275 518.281 63.2983C518.019 63.5661 517.696 63.7753 517.311 63.9261C516.927 64.0739 516.494 64.1477 516.014 64.1477ZM520.608 64V56.9091H521.66V57.9801H521.734C521.863 57.6293 522.097 57.3446 522.436 57.1261C522.774 56.9076 523.156 56.7983 523.581 56.7983C523.661 56.7983 523.761 56.7998 523.881 56.8029C524.001 56.806 524.091 56.8106 524.153 56.8168V57.9247C524.116 57.9155 524.031 57.9016 523.899 57.8832C523.77 57.8616 523.633 57.8509 523.488 57.8509C523.143 57.8509 522.836 57.9232 522.565 58.0678C522.297 58.2094 522.085 58.4064 521.928 58.6587C521.774 58.908 521.697 59.1927 521.697 59.5128V64H520.608ZM529.101 64V56.9091H530.153V58.017H530.246C530.393 57.6385 530.632 57.3446 530.961 57.1353C531.29 56.9229 531.686 56.8168 532.148 56.8168C532.615 56.8168 533.005 56.9229 533.316 57.1353C533.629 57.3446 533.874 57.6385 534.05 58.017H534.123C534.305 57.6508 534.577 57.36 534.941 57.1445C535.304 56.926 535.739 56.8168 536.247 56.8168C536.881 56.8168 537.4 57.0153 537.803 57.4123C538.206 57.8062 538.407 58.4202 538.407 59.2543V64H537.318V59.2543C537.318 58.7311 537.175 58.3571 536.889 58.1325C536.602 57.9078 536.265 57.7955 535.878 57.7955C535.379 57.7955 534.993 57.9463 534.719 58.2479C534.445 58.5464 534.308 58.925 534.308 59.3835V64H533.2V59.1435C533.2 58.7403 533.069 58.4156 532.808 58.1694C532.546 57.9201 532.209 57.7955 531.797 57.7955C531.514 57.7955 531.249 57.8709 531.003 58.0217C530.76 58.1725 530.563 58.3817 530.412 58.6495C530.264 58.9142 530.19 59.2204 530.19 59.5682V64H529.101ZM543.373 64.1477C542.689 64.1477 542.1 63.9969 541.604 63.6953C541.112 63.3906 540.732 62.9659 540.464 62.4212C540.199 61.8733 540.067 61.2363 540.067 60.5099C540.067 59.7836 540.199 59.1435 540.464 58.5895C540.732 58.0324 541.104 57.5985 541.581 57.2876C542.061 56.9737 542.622 56.8168 543.262 56.8168C543.631 56.8168 543.996 56.8783 544.356 57.0014C544.716 57.1245 545.044 57.3246 545.339 57.6016C545.635 57.8755 545.87 58.2386 546.045 58.6911C546.221 59.1435 546.309 59.7005 546.309 60.3622V60.8239H540.843V59.8821H545.201C545.201 59.482 545.121 59.125 544.961 58.8111C544.804 58.4972 544.579 58.2494 544.287 58.0678C543.997 57.8862 543.656 57.7955 543.262 57.7955C542.828 57.7955 542.452 57.9032 542.135 58.1186C541.821 58.331 541.58 58.608 541.411 58.9496C541.241 59.2912 541.157 59.6574 541.157 60.0483V60.6761C541.157 61.2116 541.249 61.6656 541.434 62.038C541.621 62.4073 541.881 62.6889 542.214 62.8828C542.546 63.0736 542.932 63.169 543.373 63.169C543.659 63.169 543.917 63.129 544.148 63.049C544.382 62.9659 544.584 62.8428 544.753 62.6797C544.922 62.5135 545.053 62.3073 545.145 62.0611L546.198 62.3565C546.087 62.7135 545.901 63.0275 545.639 63.2983C545.378 63.5661 545.054 63.7753 544.67 63.9261C544.285 64.0739 543.853 64.1477 543.373 64.1477Z" fill="#344054"/>
<rect x="595.5" y="49.5" width="19" height="19" rx="3.5" fill="#F2F4F7"/>
<rect x="595.5" y="49.5" width="19" height="19" rx="3.5" stroke="#EAECF0"/>
<path d="M628.145 64V54.5455H631.339C632.078 54.5455 632.684 54.6716 633.158 54.924C633.632 55.1733 633.983 55.5165 634.211 55.9535C634.439 56.3905 634.553 56.8875 634.553 57.4446C634.553 58.0017 634.439 58.4956 634.211 58.9265C633.983 59.3574 633.634 59.6959 633.163 59.9421C632.692 60.1853 632.09 60.3068 631.358 60.3068H628.773V59.2727H631.321C631.826 59.2727 632.232 59.1989 632.54 59.0511C632.851 58.9034 633.075 58.6941 633.214 58.4233C633.355 58.1494 633.426 57.8232 633.426 57.4446C633.426 57.0661 633.355 56.7352 633.214 56.4521C633.072 56.1689 632.846 55.9504 632.535 55.7965C632.224 55.6396 631.813 55.5611 631.303 55.5611H629.29V64H628.145ZM632.595 59.7528L634.922 64H633.592L631.303 59.7528H632.595ZM639.209 64.1477C638.526 64.1477 637.937 63.9969 637.441 63.6953C636.949 63.3906 636.569 62.9659 636.301 62.4212C636.036 61.8733 635.904 61.2363 635.904 60.5099C635.904 59.7836 636.036 59.1435 636.301 58.5895C636.569 58.0324 636.941 57.5985 637.418 57.2876C637.898 56.9737 638.458 56.8168 639.099 56.8168C639.468 56.8168 639.833 56.8783 640.193 57.0014C640.553 57.1245 640.881 57.3246 641.176 57.6016C641.472 57.8755 641.707 58.2386 641.882 58.6911C642.058 59.1435 642.146 59.7005 642.146 60.3622V60.8239H636.68V59.8821H641.038C641.038 59.482 640.958 59.125 640.797 58.8111C640.641 58.4972 640.416 58.2494 640.123 58.0678C639.834 57.8862 639.493 57.7955 639.099 57.7955C638.665 57.7955 638.289 57.9032 637.972 58.1186C637.658 58.331 637.417 58.608 637.247 58.9496C637.078 59.2912 636.994 59.6574 636.994 60.0483V60.6761C636.994 61.2116 637.086 61.6656 637.271 62.038C637.458 62.4073 637.718 62.6889 638.051 62.8828C638.383 63.0736 638.769 63.169 639.209 63.169C639.496 63.169 639.754 63.129 639.985 63.049C640.219 62.9659 640.42 62.8428 640.59 62.6797C640.759 62.5135 640.89 62.3073 640.982 62.0611L642.035 62.3565C641.924 62.7135 641.738 63.0275 641.476 63.2983C641.215 63.5661 640.891 63.7753 640.507 63.9261C640.122 64.0739 639.69 64.1477 639.209 64.1477ZM643.803 64V56.9091H644.855V58.017H644.948C645.095 57.6385 645.334 57.3446 645.663 57.1353C645.993 56.9229 646.388 56.8168 646.85 56.8168C647.318 56.8168 647.707 56.9229 648.018 57.1353C648.332 57.3446 648.576 57.6385 648.752 58.017H648.826C649.007 57.6508 649.28 57.36 649.643 57.1445C650.006 56.926 650.441 56.8168 650.949 56.8168C651.583 56.8168 652.102 57.0153 652.505 57.4123C652.908 57.8062 653.11 58.4202 653.11 59.2543V64H652.02V59.2543C652.02 58.7311 651.877 58.3571 651.591 58.1325C651.305 57.9078 650.968 57.7955 650.58 57.7955C650.081 57.7955 649.695 57.9463 649.421 58.2479C649.147 58.5464 649.01 58.925 649.01 59.3835V64H647.902V59.1435C647.902 58.7403 647.771 58.4156 647.51 58.1694C647.248 57.9201 646.911 57.7955 646.499 57.7955C646.216 57.7955 645.951 57.8709 645.705 58.0217C645.462 58.1725 645.265 58.3817 645.114 58.6495C644.966 58.9142 644.892 59.2204 644.892 59.5682V64H643.803ZM658.075 64.1477C657.391 64.1477 656.802 63.9969 656.307 63.6953C655.814 63.3906 655.434 62.9659 655.166 62.4212C654.902 61.8733 654.769 61.2363 654.769 60.5099C654.769 59.7836 654.902 59.1435 655.166 58.5895C655.434 58.0324 655.806 57.5985 656.283 57.2876C656.764 56.9737 657.324 56.8168 657.964 56.8168C658.333 56.8168 658.698 56.8783 659.058 57.0014C659.418 57.1245 659.746 57.3246 660.041 57.6016C660.337 57.8755 660.572 58.2386 660.748 58.6911C660.923 59.1435 661.011 59.7005 661.011 60.3622V60.8239H655.545V59.8821H659.903C659.903 59.482 659.823 59.125 659.663 58.8111C659.506 58.4972 659.281 58.2494 658.989 58.0678C658.699 57.8862 658.358 57.7955 657.964 57.7955C657.53 57.7955 657.154 57.9032 656.837 58.1186C656.524 58.331 656.282 58.608 656.113 58.9496C655.943 59.2912 655.859 59.6574 655.859 60.0483V60.6761C655.859 61.2116 655.951 61.6656 656.136 62.038C656.323 62.4073 656.584 62.6889 656.916 62.8828C657.248 63.0736 657.635 63.169 658.075 63.169C658.361 63.169 658.619 63.129 658.85 63.049C659.084 62.9659 659.286 62.8428 659.455 62.6797C659.624 62.5135 659.755 62.3073 659.847 62.0611L660.9 62.3565C660.789 62.7135 660.603 63.0275 660.341 63.2983C660.08 63.5661 659.757 63.7753 659.372 63.9261C658.987 64.0739 658.555 64.1477 658.075 64.1477ZM662.668 64V56.9091H663.721V58.017H663.813C663.961 57.6385 664.199 57.3446 664.528 57.1353C664.858 56.9229 665.253 56.8168 665.715 56.8168C666.183 56.8168 666.572 56.9229 666.883 57.1353C667.197 57.3446 667.441 57.6385 667.617 58.017H667.691C667.872 57.6508 668.145 57.36 668.508 57.1445C668.871 56.926 669.307 56.8168 669.814 56.8168C670.448 56.8168 670.967 57.0153 671.37 57.4123C671.773 57.8062 671.975 58.4202 671.975 59.2543V64H670.885V59.2543C670.885 58.7311 670.742 58.3571 670.456 58.1325C670.17 57.9078 669.833 57.7955 669.445 57.7955C668.946 57.7955 668.56 57.9463 668.286 58.2479C668.012 58.5464 667.875 58.925 667.875 59.3835V64H666.767V59.1435C666.767 58.7403 666.637 58.4156 666.375 58.1694C666.113 57.9201 665.776 57.7955 665.364 57.7955C665.081 57.7955 664.816 57.8709 664.57 58.0217C664.327 58.1725 664.13 58.3817 663.979 58.6495C663.831 58.9142 663.758 59.2204 663.758 59.5682V64H662.668ZM674.115 64V54.5455H675.204V58.0355H675.296C675.376 57.9124 675.487 57.7554 675.629 57.5646C675.773 57.3707 675.98 57.1984 676.247 57.0476C676.518 56.8937 676.884 56.8168 677.346 56.8168C677.943 56.8168 678.469 56.966 678.925 57.2646C679.38 57.5631 679.736 57.9863 679.991 58.5341C680.247 59.0819 680.375 59.7282 680.375 60.473C680.375 61.224 680.247 61.8749 679.991 62.4258C679.736 62.9736 679.382 63.3983 678.93 63.6999C678.477 63.9985 677.956 64.1477 677.365 64.1477C676.909 64.1477 676.544 64.0723 676.271 63.9215C675.997 63.7676 675.786 63.5937 675.638 63.3999C675.49 63.2029 675.376 63.0398 675.296 62.9105H675.167V64H674.115ZM675.186 60.4545C675.186 60.9901 675.264 61.4625 675.421 61.8718C675.578 62.2781 675.807 62.5966 676.109 62.8274C676.411 63.0552 676.78 63.169 677.217 63.169C677.672 63.169 678.052 63.049 678.357 62.8089C678.665 62.5658 678.896 62.2396 679.05 61.8303C679.207 61.4179 679.285 60.9593 679.285 60.4545C679.285 59.956 679.208 59.5066 679.054 59.1065C678.903 58.7034 678.674 58.3848 678.366 58.1509C678.062 57.9139 677.679 57.7955 677.217 57.7955C676.774 57.7955 676.401 57.9078 676.1 58.1325C675.798 58.354 675.57 58.6649 675.416 59.065C675.263 59.462 675.186 59.9252 675.186 60.4545ZM685.014 64.1477C684.331 64.1477 683.742 63.9969 683.246 63.6953C682.754 63.3906 682.373 62.9659 682.106 62.4212C681.841 61.8733 681.709 61.2363 681.709 60.5099C681.709 59.7836 681.841 59.1435 682.106 58.5895C682.373 58.0324 682.746 57.5985 683.223 57.2876C683.703 56.9737 684.263 56.8168 684.903 56.8168C685.273 56.8168 685.637 56.8783 685.997 57.0014C686.358 57.1245 686.685 57.3246 686.981 57.6016C687.276 57.8755 687.512 58.2386 687.687 58.6911C687.862 59.1435 687.95 59.7005 687.95 60.3622V60.8239H682.484V59.8821H686.842C686.842 59.482 686.762 59.125 686.602 58.8111C686.445 58.4972 686.221 58.2494 685.928 58.0678C685.639 57.8862 685.297 57.7955 684.903 57.7955C684.469 57.7955 684.094 57.9032 683.777 58.1186C683.463 58.331 683.221 58.608 683.052 58.9496C682.883 59.2912 682.798 59.6574 682.798 60.0483V60.6761C682.798 61.2116 682.891 61.6656 683.075 62.038C683.263 62.4073 683.523 62.6889 683.855 62.8828C684.188 63.0736 684.574 63.169 685.014 63.169C685.3 63.169 685.559 63.129 685.79 63.049C686.024 62.9659 686.225 62.8428 686.394 62.6797C686.564 62.5135 686.695 62.3073 686.787 62.0611L687.839 62.3565C687.729 62.7135 687.542 63.0275 687.281 63.2983C687.019 63.5661 686.696 63.7753 686.311 63.9261C685.927 64.0739 685.494 64.1477 685.014 64.1477ZM689.608 64V56.9091H690.66V57.9801H690.734C690.863 57.6293 691.097 57.3446 691.436 57.1261C691.774 56.9076 692.156 56.7983 692.581 56.7983C692.661 56.7983 692.761 56.7998 692.881 56.8029C693.001 56.806 693.091 56.8106 693.153 56.8168V57.9247C693.116 57.9155 693.031 57.9016 692.899 57.8832C692.77 57.8616 692.633 57.8509 692.488 57.8509C692.143 57.8509 691.836 57.9232 691.565 58.0678C691.297 58.2094 691.085 58.4064 690.928 58.6587C690.774 58.908 690.697 59.1927 690.697 59.5128V64H689.608ZM698.101 64V56.9091H699.153V58.017H699.246C699.393 57.6385 699.632 57.3446 699.961 57.1353C700.29 56.9229 700.686 56.8168 701.148 56.8168C701.615 56.8168 702.005 56.9229 702.316 57.1353C702.629 57.3446 702.874 57.6385 703.05 58.017H703.123C703.305 57.6508 703.577 57.36 703.941 57.1445C704.304 56.926 704.739 56.8168 705.247 56.8168C705.881 56.8168 706.4 57.0153 706.803 57.4123C707.206 57.8062 707.407 58.4202 707.407 59.2543V64H706.318V59.2543C706.318 58.7311 706.175 58.3571 705.889 58.1325C705.602 57.9078 705.265 57.7955 704.878 57.7955C704.379 57.7955 703.993 57.9463 703.719 58.2479C703.445 58.5464 703.308 58.925 703.308 59.3835V64H702.2V59.1435C702.2 58.7403 702.069 58.4156 701.808 58.1694C701.546 57.9201 701.209 57.7955 700.797 57.7955C700.514 57.7955 700.249 57.8709 700.003 58.0217C699.76 58.1725 699.563 58.3817 699.412 58.6495C699.264 58.9142 699.19 59.2204 699.19 59.5682V64H698.101ZM712.373 64.1477C711.689 64.1477 711.1 63.9969 710.604 63.6953C710.112 63.3906 709.732 62.9659 709.464 62.4212C709.199 61.8733 709.067 61.2363 709.067 60.5099C709.067 59.7836 709.199 59.1435 709.464 58.5895C709.732 58.0324 710.104 57.5985 710.581 57.2876C711.061 56.9737 711.622 56.8168 712.262 56.8168C712.631 56.8168 712.996 56.8783 713.356 57.0014C713.716 57.1245 714.044 57.3246 714.339 57.6016C714.635 57.8755 714.87 58.2386 715.045 58.6911C715.221 59.1435 715.309 59.7005 715.309 60.3622V60.8239H709.843V59.8821H714.201C714.201 59.482 714.121 59.125 713.961 58.8111C713.804 58.4972 713.579 58.2494 713.287 58.0678C712.997 57.8862 712.656 57.7955 712.262 57.7955C711.828 57.7955 711.452 57.9032 711.135 58.1186C710.821 58.331 710.58 58.608 710.411 58.9496C710.241 59.2912 710.157 59.6574 710.157 60.0483V60.6761C710.157 61.2116 710.249 61.6656 710.434 62.038C710.621 62.4073 710.881 62.6889 711.214 62.8828C711.546 63.0736 711.932 63.169 712.373 63.169C712.659 63.169 712.917 63.129 713.148 63.049C713.382 62.9659 713.584 62.8428 713.753 62.6797C713.922 62.5135 714.053 62.3073 714.145 62.0611L715.198 62.3565C715.087 62.7135 714.901 63.0275 714.639 63.2983C714.378 63.5661 714.054 63.7753 713.67 63.9261C713.285 64.0739 712.853 64.1477 712.373 64.1477Z" fill="#D8DEE9"/>
<path d="M129.784 88.2727H130.841V94.0511C130.841 94.6477 130.7 95.1804 130.419 95.6491C130.141 96.1151 129.747 96.483 129.239 96.7528C128.73 97.0199 128.134 97.1534 127.449 97.1534C126.764 97.1534 126.168 97.0199 125.659 96.7528C125.151 96.483 124.756 96.1151 124.474 95.6491C124.196 95.1804 124.057 94.6477 124.057 94.0511V88.2727H125.114V93.9659C125.114 94.392 125.207 94.7713 125.395 95.1037C125.582 95.4332 125.849 95.6932 126.196 95.8835C126.545 96.071 126.963 96.1648 127.449 96.1648C127.935 96.1648 128.352 96.071 128.702 95.8835C129.051 95.6932 129.318 95.4332 129.503 95.1037C129.69 94.7713 129.784 94.392 129.784 93.9659V88.2727ZM133.821 93.0625V97H132.815V90.4545H133.787V91.4773H133.872C134.025 91.1449 134.258 90.8778 134.571 90.6761C134.883 90.4716 135.287 90.3693 135.781 90.3693C136.224 90.3693 136.612 90.4602 136.944 90.642C137.277 90.821 137.535 91.0938 137.72 91.4602C137.904 91.8239 137.997 92.2841 137.997 92.8409V97H136.991V92.9091C136.991 92.3949 136.858 91.9943 136.591 91.7074C136.324 91.4176 135.957 91.2727 135.491 91.2727C135.17 91.2727 134.883 91.3423 134.63 91.4815C134.38 91.6207 134.183 91.8239 134.038 92.0909C133.893 92.358 133.821 92.6818 133.821 93.0625ZM142.494 97.1364C141.88 97.1364 141.352 96.9915 140.908 96.7017C140.465 96.4119 140.124 96.0128 139.886 95.5043C139.647 94.9957 139.528 94.4148 139.528 93.7614C139.528 93.0966 139.65 92.5099 139.894 92.0014C140.141 91.4901 140.485 91.0909 140.925 90.804C141.369 90.5142 141.886 90.3693 142.477 90.3693C142.937 90.3693 143.352 90.4545 143.721 90.625C144.09 90.7955 144.393 91.0341 144.629 91.3409C144.864 91.6477 145.011 92.0057 145.067 92.4148H144.062C143.985 92.1165 143.815 91.8523 143.55 91.6222C143.289 91.3892 142.937 91.2727 142.494 91.2727C142.102 91.2727 141.758 91.375 141.462 91.5795C141.17 91.7812 140.941 92.0668 140.776 92.4361C140.614 92.8026 140.533 93.233 140.533 93.7273C140.533 94.233 140.613 94.6733 140.772 95.0483C140.934 95.4233 141.161 95.7145 141.454 95.9219C141.749 96.1293 142.096 96.233 142.494 96.233C142.755 96.233 142.992 96.1875 143.205 96.0966C143.418 96.0057 143.599 95.875 143.746 95.7045C143.894 95.5341 143.999 95.3295 144.062 95.0909H145.067C145.011 95.4773 144.87 95.8253 144.646 96.1349C144.424 96.4418 144.13 96.6861 143.763 96.8679C143.4 97.0469 142.977 97.1364 142.494 97.1364ZM147.543 93.0625V97H146.538V88.2727H147.543V91.4773H147.629C147.782 91.1392 148.012 90.8707 148.319 90.6719C148.629 90.4702 149.04 90.3693 149.555 90.3693C150.001 90.3693 150.391 90.4588 150.727 90.6378C151.062 90.8139 151.322 91.0852 151.506 91.4517C151.694 91.8153 151.788 92.2784 151.788 92.8409V97H150.782V92.9091C150.782 92.3892 150.647 91.9872 150.377 91.7031C150.11 91.4162 149.739 91.2727 149.265 91.2727C148.935 91.2727 148.64 91.3423 148.379 91.4815C148.12 91.6207 147.915 91.8239 147.765 92.0909C147.617 92.358 147.543 92.6818 147.543 93.0625ZM156.372 97.1364C155.741 97.1364 155.197 96.9972 154.74 96.7188C154.285 96.4375 153.934 96.0455 153.687 95.5426C153.443 95.0369 153.321 94.4489 153.321 93.7784C153.321 93.108 153.443 92.517 153.687 92.0057C153.934 91.4915 154.278 91.0909 154.718 90.804C155.162 90.5142 155.679 90.3693 156.27 90.3693C156.61 90.3693 156.947 90.4261 157.279 90.5398C157.612 90.6534 157.914 90.8381 158.187 91.0938C158.46 91.3466 158.677 91.6818 158.839 92.0994C159.001 92.517 159.082 93.0312 159.082 93.642V94.0682H154.037V93.1989H158.059C158.059 92.8295 157.985 92.5 157.838 92.2102C157.693 91.9205 157.485 91.6918 157.216 91.5241C156.949 91.3565 156.633 91.2727 156.27 91.2727C155.869 91.2727 155.522 91.3722 155.23 91.571C154.94 91.767 154.717 92.0227 154.561 92.3381C154.404 92.6534 154.326 92.9915 154.326 93.3523V93.9318C154.326 94.4261 154.412 94.8452 154.582 95.1889C154.755 95.5298 154.995 95.7898 155.302 95.9688C155.609 96.1449 155.966 96.233 156.372 96.233C156.636 96.233 156.875 96.196 157.088 96.1222C157.304 96.0455 157.49 95.9318 157.646 95.7812C157.802 95.6278 157.923 95.4375 158.008 95.2102L158.98 95.483C158.877 95.8125 158.706 96.1023 158.464 96.3523C158.223 96.5994 157.924 96.7926 157.569 96.9318C157.214 97.0682 156.815 97.1364 156.372 97.1364ZM163.271 97.1364C162.657 97.1364 162.129 96.9915 161.686 96.7017C161.243 96.4119 160.902 96.0128 160.663 95.5043C160.424 94.9957 160.305 94.4148 160.305 93.7614C160.305 93.0966 160.427 92.5099 160.672 92.0014C160.919 91.4901 161.262 91.0909 161.703 90.804C162.146 90.5142 162.663 90.3693 163.254 90.3693C163.714 90.3693 164.129 90.4545 164.498 90.625C164.868 90.7955 165.17 91.0341 165.406 91.3409C165.642 91.6477 165.788 92.0057 165.845 92.4148H164.839C164.762 92.1165 164.592 91.8523 164.328 91.6222C164.066 91.3892 163.714 91.2727 163.271 91.2727C162.879 91.2727 162.535 91.375 162.24 91.5795C161.947 91.7812 161.718 92.0668 161.554 92.4361C161.392 92.8026 161.311 93.233 161.311 93.7273C161.311 94.233 161.39 94.6733 161.549 95.0483C161.711 95.4233 161.939 95.7145 162.231 95.9219C162.527 96.1293 162.873 96.233 163.271 96.233C163.532 96.233 163.77 96.1875 163.983 96.0966C164.196 96.0057 164.376 95.875 164.524 95.7045C164.672 95.5341 164.777 95.3295 164.839 95.0909H165.845C165.788 95.4773 165.647 95.8253 165.423 96.1349C165.201 96.4418 164.907 96.6861 164.541 96.8679C164.177 97.0469 163.754 97.1364 163.271 97.1364ZM168.252 94.6136L168.235 93.3693H168.44L171.304 90.4545H172.548L169.497 93.5398H169.412L168.252 94.6136ZM167.315 97V88.2727H168.321V97H167.315ZM171.474 97L168.917 93.7614L169.633 93.0625L172.752 97H171.474ZM176.317 97.1364C175.686 97.1364 175.142 96.9972 174.685 96.7188C174.23 96.4375 173.88 96.0455 173.632 95.5426C173.388 95.0369 173.266 94.4489 173.266 93.7784C173.266 93.108 173.388 92.517 173.632 92.0057C173.88 91.4915 174.223 91.0909 174.664 90.804C175.107 90.5142 175.624 90.3693 176.215 90.3693C176.556 90.3693 176.892 90.4261 177.225 90.5398C177.557 90.6534 177.86 90.8381 178.132 91.0938C178.405 91.3466 178.623 91.6818 178.784 92.0994C178.946 92.517 179.027 93.0312 179.027 93.642V94.0682H173.982V93.1989H178.005C178.005 92.8295 177.931 92.5 177.783 92.2102C177.638 91.9205 177.431 91.6918 177.161 91.5241C176.894 91.3565 176.578 91.2727 176.215 91.2727C175.814 91.2727 175.468 91.3722 175.175 91.571C174.885 91.767 174.662 92.0227 174.506 92.3381C174.35 92.6534 174.272 92.9915 174.272 93.3523V93.9318C174.272 94.4261 174.357 94.8452 174.527 95.1889C174.701 95.5298 174.941 95.7898 175.248 95.9688C175.554 96.1449 175.911 96.233 176.317 96.233C176.581 96.233 176.82 96.196 177.033 96.1222C177.249 96.0455 177.435 95.9318 177.591 95.7812C177.748 95.6278 177.868 95.4375 177.953 95.2102L178.925 95.483C178.823 95.8125 178.651 96.1023 178.409 96.3523C178.168 96.5994 177.87 96.7926 177.515 96.9318C177.159 97.0682 176.76 97.1364 176.317 97.1364ZM183.029 97.1364C182.483 97.1364 182.002 96.9986 181.584 96.723C181.167 96.4446 180.84 96.0526 180.604 95.5469C180.368 95.0384 180.25 94.4375 180.25 93.7443C180.25 93.0568 180.368 92.4602 180.604 91.9545C180.84 91.4489 181.168 91.0582 181.588 90.7827C182.009 90.5071 182.495 90.3693 183.046 90.3693C183.472 90.3693 183.809 90.4403 184.056 90.5824C184.306 90.7216 184.496 90.8807 184.627 91.0597C184.76 91.2358 184.864 91.3807 184.938 91.4943H185.023V88.2727H186.029V97H185.057V95.9943H184.938C184.864 96.1136 184.759 96.2642 184.623 96.446C184.486 96.625 184.292 96.7855 184.039 96.9276C183.786 97.0668 183.449 97.1364 183.029 97.1364ZM183.165 96.233C183.569 96.233 183.909 96.1278 184.188 95.9176C184.466 95.7045 184.678 95.4105 184.823 95.0355C184.968 94.6577 185.04 94.2216 185.04 93.7273C185.04 93.2386 184.969 92.8111 184.827 92.4446C184.685 92.0753 184.475 91.7884 184.196 91.5838C183.918 91.3764 183.574 91.2727 183.165 91.2727C182.739 91.2727 182.384 91.3821 182.1 91.6009C181.819 91.8168 181.607 92.1108 181.465 92.483C181.326 92.8523 181.256 93.267 181.256 93.7273C181.256 94.1932 181.327 94.6165 181.469 94.9972C181.614 95.375 181.827 95.6761 182.108 95.9006C182.392 96.1222 182.745 96.233 183.165 96.233Z" fill="black"/>
<path d="M302.057 97V88.2727H303.114V92.1591H307.767V88.2727H308.824V97H307.767V93.0966H303.114V97H302.057ZM313.462 97.1364C312.871 97.1364 312.353 96.9957 311.907 96.7145C311.464 96.4332 311.117 96.0398 310.867 95.5341C310.62 95.0284 310.496 94.4375 310.496 93.7614C310.496 93.0795 310.62 92.4844 310.867 91.9759C311.117 91.4673 311.464 91.0724 311.907 90.7912C312.353 90.5099 312.871 90.3693 313.462 90.3693C314.053 90.3693 314.57 90.5099 315.013 90.7912C315.46 91.0724 315.806 91.4673 316.053 91.9759C316.303 92.4844 316.428 93.0795 316.428 93.7614C316.428 94.4375 316.303 95.0284 316.053 95.5341C315.806 96.0398 315.46 96.4332 315.013 96.7145C314.57 96.9957 314.053 97.1364 313.462 97.1364ZM313.462 96.233C313.911 96.233 314.281 96.1179 314.57 95.8878C314.86 95.6577 315.075 95.3551 315.214 94.9801C315.353 94.6051 315.423 94.1989 315.423 93.7614C315.423 93.3239 315.353 92.9162 315.214 92.5384C315.075 92.1605 314.86 91.8551 314.57 91.6222C314.281 91.3892 313.911 91.2727 313.462 91.2727C313.013 91.2727 312.644 91.3892 312.354 91.6222C312.065 91.8551 311.85 92.1605 311.711 92.5384C311.572 92.9162 311.502 93.3239 311.502 93.7614C311.502 94.1989 311.572 94.6051 311.711 94.9801C311.85 95.3551 312.065 95.6577 312.354 95.8878C312.644 96.1179 313.013 96.233 313.462 96.233ZM323.081 90.4545L320.661 97H319.638L317.218 90.4545H318.309L320.115 95.6705H320.184L321.99 90.4545H323.081ZM326.919 97.1364C326.288 97.1364 325.744 96.9972 325.287 96.7188C324.832 96.4375 324.481 96.0455 324.234 95.5426C323.99 95.0369 323.868 94.4489 323.868 93.7784C323.868 93.108 323.99 92.517 324.234 92.0057C324.481 91.4915 324.825 91.0909 325.265 90.804C325.708 90.5142 326.225 90.3693 326.816 90.3693C327.157 90.3693 327.494 90.4261 327.826 90.5398C328.159 90.6534 328.461 90.8381 328.734 91.0938C329.007 91.3466 329.224 91.6818 329.386 92.0994C329.548 92.517 329.629 93.0312 329.629 93.642V94.0682H324.583V93.1989H328.606C328.606 92.8295 328.532 92.5 328.385 92.2102C328.24 91.9205 328.032 91.6918 327.762 91.5241C327.495 91.3565 327.18 91.2727 326.816 91.2727C326.416 91.2727 326.069 91.3722 325.777 91.571C325.487 91.767 325.264 92.0227 325.108 92.3381C324.951 92.6534 324.873 92.9915 324.873 93.3523V93.9318C324.873 94.4261 324.958 94.8452 325.129 95.1889C325.302 95.5298 325.542 95.7898 325.849 95.9688C326.156 96.1449 326.512 96.233 326.919 96.233C327.183 96.233 327.422 96.196 327.635 96.1222C327.85 96.0455 328.037 95.9318 328.193 95.7812C328.349 95.6278 328.47 95.4375 328.555 95.2102L329.527 95.483C329.424 95.8125 329.252 96.1023 329.011 96.3523C328.77 96.5994 328.471 96.7926 328.116 96.9318C327.761 97.0682 327.362 97.1364 326.919 97.1364ZM331.159 97V90.4545H332.13V91.4432H332.199C332.318 91.1193 332.534 90.8565 332.846 90.6548C333.159 90.4531 333.511 90.3523 333.903 90.3523C333.977 90.3523 334.069 90.3537 334.18 90.3565C334.291 90.3594 334.375 90.3636 334.431 90.3693V91.392C334.397 91.3835 334.319 91.3707 334.197 91.3537C334.078 91.3338 333.951 91.3239 333.818 91.3239C333.5 91.3239 333.216 91.3906 332.966 91.5241C332.718 91.6548 332.522 91.8366 332.377 92.0696C332.235 92.2997 332.164 92.5625 332.164 92.858V97H331.159Z" fill="black"/>
<path d="M474.08 91H473.023C472.96 90.696 472.851 90.429 472.695 90.1989C472.541 89.9688 472.354 89.7756 472.132 89.6193C471.913 89.4602 471.67 89.3409 471.403 89.2614C471.136 89.1818 470.858 89.142 470.568 89.142C470.04 89.142 469.561 89.2756 469.132 89.5426C468.706 89.8097 468.366 90.2031 468.114 90.723C467.864 91.2429 467.739 91.8807 467.739 92.6364C467.739 93.392 467.864 94.0298 468.114 94.5497C468.366 95.0696 468.706 95.4631 469.132 95.7301C469.561 95.9972 470.04 96.1307 470.568 96.1307C470.858 96.1307 471.136 96.0909 471.403 96.0114C471.67 95.9318 471.913 95.8139 472.132 95.6577C472.354 95.4986 472.541 95.304 472.695 95.0739C472.851 94.8409 472.96 94.5739 473.023 94.2727H474.08C474 94.7187 473.855 95.1179 473.645 95.4702C473.435 95.8224 473.173 96.1222 472.861 96.3693C472.548 96.6136 472.197 96.7997 471.808 96.9276C471.422 97.0554 471.009 97.1193 470.568 97.1193C469.824 97.1193 469.162 96.9375 468.582 96.5739C468.003 96.2102 467.547 95.6932 467.214 95.0227C466.882 94.3523 466.716 93.5568 466.716 92.6364C466.716 91.7159 466.882 90.9205 467.214 90.25C467.547 89.5795 468.003 89.0625 468.582 88.6989C469.162 88.3352 469.824 88.1534 470.568 88.1534C471.009 88.1534 471.422 88.2173 471.808 88.3452C472.197 88.473 472.548 88.6605 472.861 88.9077C473.173 89.152 473.435 89.4503 473.645 89.8026C473.855 90.152 474 90.5511 474.08 91ZM476.657 93.0625V97H475.651V88.2727H476.657V91.4773H476.742C476.895 91.1392 477.125 90.8707 477.432 90.6719C477.742 90.4702 478.154 90.3693 478.668 90.3693C479.114 90.3693 479.505 90.4588 479.84 90.6378C480.175 90.8139 480.435 91.0852 480.62 91.4517C480.807 91.8153 480.901 92.2784 480.901 92.8409V97H479.895V92.9091C479.895 92.3892 479.76 91.9872 479.49 91.7031C479.223 91.4162 478.853 91.2727 478.378 91.2727C478.049 91.2727 477.753 91.3423 477.492 91.4815C477.233 91.6207 477.029 91.8239 476.878 92.0909C476.73 92.358 476.657 92.6818 476.657 93.0625ZM485.485 97.1364C484.854 97.1364 484.31 96.9972 483.853 96.7188C483.398 96.4375 483.048 96.0455 482.8 95.5426C482.556 95.0369 482.434 94.4489 482.434 93.7784C482.434 93.108 482.556 92.517 482.8 92.0057C483.048 91.4915 483.391 91.0909 483.832 90.804C484.275 90.5142 484.792 90.3693 485.383 90.3693C485.724 90.3693 486.06 90.4261 486.393 90.5398C486.725 90.6534 487.028 90.8381 487.3 91.0938C487.573 91.3466 487.79 91.6818 487.952 92.0994C488.114 92.517 488.195 93.0312 488.195 93.642V94.0682H483.15V93.1989H487.173C487.173 92.8295 487.099 92.5 486.951 92.2102C486.806 91.9205 486.599 91.6918 486.329 91.5241C486.062 91.3565 485.746 91.2727 485.383 91.2727C484.982 91.2727 484.636 91.3722 484.343 91.571C484.053 91.767 483.83 92.0227 483.674 92.3381C483.518 92.6534 483.44 92.9915 483.44 93.3523V93.9318C483.44 94.4261 483.525 94.8452 483.695 95.1889C483.869 95.5298 484.109 95.7898 484.415 95.9688C484.722 96.1449 485.079 96.233 485.485 96.233C485.749 96.233 485.988 96.196 486.201 96.1222C486.417 96.0455 486.603 95.9318 486.759 95.7812C486.915 95.6278 487.036 95.4375 487.121 95.2102L488.093 95.483C487.991 95.8125 487.819 96.1023 487.577 96.3523C487.336 96.5994 487.038 96.7926 486.683 96.9318C486.327 97.0682 485.928 97.1364 485.485 97.1364ZM492.384 97.1364C491.771 97.1364 491.242 96.9915 490.799 96.7017C490.356 96.4119 490.015 96.0128 489.776 95.5043C489.538 94.9957 489.418 94.4148 489.418 93.7614C489.418 93.0966 489.54 92.5099 489.785 92.0014C490.032 91.4901 490.376 91.0909 490.816 90.804C491.259 90.5142 491.776 90.3693 492.367 90.3693C492.827 90.3693 493.242 90.4545 493.612 90.625C493.981 90.7955 494.283 91.0341 494.519 91.3409C494.755 91.6477 494.901 92.0057 494.958 92.4148H493.952C493.876 92.1165 493.705 91.8523 493.441 91.6222C493.18 91.3892 492.827 91.2727 492.384 91.2727C491.992 91.2727 491.648 91.375 491.353 91.5795C491.06 91.7812 490.832 92.0668 490.667 92.4361C490.505 92.8026 490.424 93.233 490.424 93.7273C490.424 94.233 490.504 94.6733 490.663 95.0483C490.825 95.4233 491.052 95.7145 491.344 95.9219C491.64 96.1293 491.987 96.233 492.384 96.233C492.646 96.233 492.883 96.1875 493.096 96.0966C493.309 96.0057 493.489 95.875 493.637 95.7045C493.785 95.5341 493.89 95.3295 493.952 95.0909H494.958C494.901 95.4773 494.761 95.8253 494.536 96.1349C494.315 96.4418 494.021 96.6861 493.654 96.8679C493.29 97.0469 492.867 97.1364 492.384 97.1364ZM497.366 94.6136L497.349 93.3693H497.553L500.417 90.4545H501.661L498.61 93.5398H498.525L497.366 94.6136ZM496.428 97V88.2727H497.434V97H496.428ZM500.587 97L498.031 93.7614L498.746 93.0625L501.866 97H500.587ZM505.43 97.1364C504.8 97.1364 504.256 96.9972 503.798 96.7188C503.344 96.4375 502.993 96.0455 502.746 95.5426C502.501 95.0369 502.379 94.4489 502.379 93.7784C502.379 93.108 502.501 92.517 502.746 92.0057C502.993 91.4915 503.337 91.0909 503.777 90.804C504.22 90.5142 504.737 90.3693 505.328 90.3693C505.669 90.3693 506.006 90.4261 506.338 90.5398C506.67 90.6534 506.973 90.8381 507.246 91.0938C507.518 91.3466 507.736 91.6818 507.898 92.0994C508.06 92.517 508.141 93.0312 508.141 93.642V94.0682H503.095V93.1989H507.118C507.118 92.8295 507.044 92.5 506.896 92.2102C506.751 91.9205 506.544 91.6918 506.274 91.5241C506.007 91.3565 505.692 91.2727 505.328 91.2727C504.928 91.2727 504.581 91.3722 504.288 91.571C503.999 91.767 503.776 92.0227 503.619 92.3381C503.463 92.6534 503.385 92.9915 503.385 93.3523V93.9318C503.385 94.4261 503.47 94.8452 503.641 95.1889C503.814 95.5298 504.054 95.7898 504.361 95.9688C504.668 96.1449 505.024 96.233 505.43 96.233C505.695 96.233 505.933 96.196 506.146 96.1222C506.362 96.0455 506.548 95.9318 506.705 95.7812C506.861 95.6278 506.982 95.4375 507.067 95.2102L508.038 95.483C507.936 95.8125 507.764 96.1023 507.523 96.3523C507.281 96.5994 506.983 96.7926 506.628 96.9318C506.273 97.0682 505.874 97.1364 505.43 97.1364ZM512.142 97.1364C511.597 97.1364 511.115 96.9986 510.697 96.723C510.28 96.4446 509.953 96.0526 509.717 95.5469C509.482 95.0384 509.364 94.4375 509.364 93.7443C509.364 93.0568 509.482 92.4602 509.717 91.9545C509.953 91.4489 510.281 91.0582 510.702 90.7827C511.122 90.5071 511.608 90.3693 512.159 90.3693C512.585 90.3693 512.922 90.4403 513.169 90.5824C513.419 90.7216 513.609 90.8807 513.74 91.0597C513.874 91.2358 513.977 91.3807 514.051 91.4943H514.136V88.2727H515.142V97H514.17V95.9943H514.051C513.977 96.1136 513.872 96.2642 513.736 96.446C513.599 96.625 513.405 96.7855 513.152 96.9276C512.899 97.0668 512.563 97.1364 512.142 97.1364ZM512.278 96.233C512.682 96.233 513.023 96.1278 513.301 95.9176C513.58 95.7045 513.791 95.4105 513.936 95.0355C514.081 94.6577 514.153 94.2216 514.153 93.7273C514.153 93.2386 514.082 92.8111 513.94 92.4446C513.798 92.0753 513.588 91.7884 513.31 91.5838C513.031 91.3764 512.688 91.2727 512.278 91.2727C511.852 91.2727 511.497 91.3821 511.213 91.6009C510.932 91.8168 510.72 92.1108 510.578 92.483C510.439 92.8523 510.369 93.267 510.369 93.7273C510.369 94.1932 510.44 94.6165 510.582 94.9972C510.727 95.375 510.94 95.6761 511.222 95.9006C511.506 96.1222 511.858 96.233 512.278 96.233Z" fill="black"/>
<path d="M633.75 97H631.057V88.2727H633.869C634.716 88.2727 635.44 88.4474 636.043 88.7969C636.645 89.1435 637.107 89.642 637.428 90.2926C637.749 90.9403 637.909 91.7159 637.909 92.6193C637.909 93.5284 637.747 94.3111 637.423 94.9673C637.099 95.6207 636.628 96.1236 636.009 96.4759C635.389 96.8253 634.636 97 633.75 97ZM632.114 96.0625H633.682C634.403 96.0625 635.001 95.9233 635.476 95.6449C635.95 95.3665 636.304 94.9702 636.537 94.456C636.77 93.9418 636.886 93.3295 636.886 92.6193C636.886 91.9148 636.771 91.3082 636.541 90.7997C636.311 90.2884 635.967 89.8963 635.51 89.6236C635.053 89.348 634.483 89.2102 633.801 89.2102H632.114V96.0625ZM639.545 97V90.4545H640.551V97H639.545ZM640.057 89.3636C639.861 89.3636 639.692 89.2969 639.55 89.1634C639.411 89.0298 639.341 88.8693 639.341 88.6818C639.341 88.4943 639.411 88.3338 639.55 88.2003C639.692 88.0668 639.861 88 640.057 88C640.253 88 640.42 88.0668 640.56 88.2003C640.702 88.3338 640.773 88.4943 640.773 88.6818C640.773 88.8693 640.702 89.0298 640.56 89.1634C640.42 89.2969 640.253 89.3636 640.057 89.3636ZM647.029 91.9205L646.126 92.1761C646.069 92.0256 645.985 91.8793 645.875 91.7372C645.767 91.5923 645.619 91.473 645.431 91.3793C645.244 91.2855 645.004 91.2386 644.711 91.2386C644.311 91.2386 643.977 91.331 643.71 91.5156C643.446 91.6974 643.314 91.929 643.314 92.2102C643.314 92.4602 643.404 92.6577 643.586 92.8026C643.768 92.9474 644.052 93.0682 644.439 93.1648L645.41 93.4034C645.995 93.5455 646.431 93.7628 646.718 94.0554C647.005 94.3452 647.149 94.7187 647.149 95.1761C647.149 95.5511 647.041 95.8864 646.825 96.1818C646.612 96.4773 646.314 96.7102 645.93 96.8807C645.547 97.0511 645.1 97.1364 644.592 97.1364C643.924 97.1364 643.372 96.9915 642.934 96.7017C642.497 96.4119 642.22 95.9886 642.103 95.4318L643.058 95.1932C643.149 95.5455 643.321 95.8097 643.574 95.9858C643.829 96.1619 644.163 96.25 644.575 96.25C645.044 96.25 645.416 96.1506 645.691 95.9517C645.97 95.75 646.109 95.5085 646.109 95.2273C646.109 95 646.029 94.8097 645.87 94.6562C645.711 94.5 645.467 94.3835 645.137 94.3068L644.047 94.0511C643.447 93.9091 643.007 93.6889 642.725 93.3906C642.447 93.0895 642.308 92.7131 642.308 92.2614C642.308 91.892 642.412 91.5653 642.619 91.2812C642.829 90.9972 643.115 90.7741 643.475 90.6122C643.839 90.4503 644.251 90.3693 644.711 90.3693C645.359 90.3693 645.868 90.5114 646.237 90.7955C646.609 91.0795 646.873 91.4545 647.029 91.9205ZM650.589 97.1534C650.174 97.1534 649.798 97.0753 649.46 96.919C649.121 96.7599 648.853 96.5312 648.654 96.233C648.455 95.9318 648.356 95.5682 648.356 95.142C648.356 94.767 648.43 94.4631 648.577 94.2301C648.725 93.9943 648.923 93.8097 649.17 93.6761C649.417 93.5426 649.69 93.4432 649.988 93.3778C650.289 93.3097 650.592 93.2557 650.896 93.2159C651.293 93.1648 651.616 93.1264 651.863 93.1009C652.113 93.0724 652.295 93.0256 652.408 92.9602C652.525 92.8949 652.583 92.7812 652.583 92.6193V92.5852C652.583 92.1648 652.468 91.8381 652.238 91.6051C652.011 91.3722 651.665 91.2557 651.202 91.2557C650.722 91.2557 650.346 91.3608 650.073 91.571C649.8 91.7812 649.609 92.0057 649.498 92.2443L648.543 91.9034C648.714 91.5057 648.941 91.196 649.225 90.9744C649.512 90.75 649.825 90.5937 650.163 90.5057C650.504 90.4148 650.839 90.3693 651.168 90.3693C651.379 90.3693 651.62 90.3949 651.893 90.446C652.168 90.4943 652.434 90.5952 652.69 90.7486C652.948 90.902 653.163 91.1335 653.333 91.4432C653.504 91.7528 653.589 92.1676 653.589 92.6875V97H652.583V96.1136H652.532C652.464 96.2557 652.35 96.4077 652.191 96.5696C652.032 96.7315 651.82 96.8693 651.556 96.983C651.292 97.0966 650.969 97.1534 650.589 97.1534ZM650.742 96.25C651.14 96.25 651.475 96.1719 651.748 96.0156C652.023 95.8594 652.231 95.6577 652.37 95.4105C652.512 95.1634 652.583 94.9034 652.583 94.6307V93.7102C652.54 93.7614 652.447 93.8082 652.302 93.8509C652.16 93.8906 651.995 93.9261 651.808 93.9574C651.623 93.9858 651.442 94.0114 651.266 94.0341C651.093 94.054 650.952 94.071 650.844 94.0852C650.583 94.1193 650.339 94.1747 650.112 94.2514C649.887 94.3253 649.705 94.4375 649.566 94.5881C649.43 94.7358 649.362 94.9375 649.362 95.1932C649.362 95.5426 649.491 95.8068 649.749 95.9858C650.011 96.1619 650.342 96.25 650.742 96.25ZM655.561 97V88.2727H656.566V91.4943H656.652C656.725 91.3807 656.828 91.2358 656.958 91.0597C657.092 90.8807 657.282 90.7216 657.529 90.5824C657.779 90.4403 658.118 90.3693 658.544 90.3693C659.095 90.3693 659.581 90.5071 660.001 90.7827C660.422 91.0582 660.75 91.4489 660.985 91.9545C661.221 92.4602 661.339 93.0568 661.339 93.7443C661.339 94.4375 661.221 95.0384 660.985 95.5469C660.75 96.0526 660.423 96.4446 660.005 96.723C659.588 96.9986 659.106 97.1364 658.561 97.1364C658.14 97.1364 657.804 97.0668 657.551 96.9276C657.298 96.7855 657.103 96.625 656.967 96.446C656.831 96.2642 656.725 96.1136 656.652 95.9943H656.532V97H655.561ZM656.549 93.7273C656.549 94.2216 656.622 94.6577 656.767 95.0355C656.912 95.4105 657.123 95.7045 657.402 95.9176C657.68 96.1278 658.021 96.233 658.424 96.233C658.845 96.233 659.196 96.1222 659.477 95.9006C659.761 95.6761 659.974 95.375 660.116 94.9972C660.261 94.6165 660.333 94.1932 660.333 93.7273C660.333 93.267 660.262 92.8523 660.12 92.483C659.981 92.1108 659.77 91.8168 659.485 91.6009C659.204 91.3821 658.85 91.2727 658.424 91.2727C658.015 91.2727 657.672 91.3764 657.393 91.5838C657.115 91.7884 656.904 92.0753 656.762 92.4446C656.62 92.8111 656.549 93.2386 656.549 93.7273ZM663.883 88.2727V97H662.877V88.2727H663.883ZM668.469 97.1364C667.839 97.1364 667.295 96.9972 666.837 96.7188C666.383 96.4375 666.032 96.0455 665.785 95.5426C665.54 95.0369 665.418 94.4489 665.418 93.7784C665.418 93.108 665.54 92.517 665.785 92.0057C666.032 91.4915 666.376 91.0909 666.816 90.804C667.259 90.5142 667.776 90.3693 668.367 90.3693C668.708 90.3693 669.045 90.4261 669.377 90.5398C669.71 90.6534 670.012 90.8381 670.285 91.0938C670.558 91.3466 670.775 91.6818 670.937 92.0994C671.099 92.517 671.18 93.0312 671.18 93.642V94.0682H666.134V93.1989H670.157C670.157 92.8295 670.083 92.5 669.935 92.2102C669.79 91.9205 669.583 91.6918 669.313 91.5241C669.046 91.3565 668.731 91.2727 668.367 91.2727C667.967 91.2727 667.62 91.3722 667.327 91.571C667.038 91.767 666.815 92.0227 666.658 92.3381C666.502 92.6534 666.424 92.9915 666.424 93.3523V93.9318C666.424 94.4261 666.509 94.8452 666.68 95.1889C666.853 95.5298 667.093 95.7898 667.4 95.9688C667.707 96.1449 668.063 96.233 668.469 96.233C668.734 96.233 668.972 96.196 669.185 96.1222C669.401 96.0455 669.587 95.9318 669.744 95.7812C669.9 95.6278 670.021 95.4375 670.106 95.2102L671.077 95.483C670.975 95.8125 670.803 96.1023 670.562 96.3523C670.32 96.5994 670.022 96.7926 669.667 96.9318C669.312 97.0682 668.913 97.1364 668.469 97.1364ZM675.181 97.1364C674.636 97.1364 674.154 96.9986 673.737 96.723C673.319 96.4446 672.992 96.0526 672.756 95.5469C672.521 95.0384 672.403 94.4375 672.403 93.7443C672.403 93.0568 672.521 92.4602 672.756 91.9545C672.992 91.4489 673.32 91.0582 673.741 90.7827C674.161 90.5071 674.647 90.3693 675.198 90.3693C675.624 90.3693 675.961 90.4403 676.208 90.5824C676.458 90.7216 676.648 90.8807 676.779 91.0597C676.913 91.2358 677.016 91.3807 677.09 91.4943H677.175V88.2727H678.181V97H677.21V95.9943H677.09C677.016 96.1136 676.911 96.2642 676.775 96.446C676.638 96.625 676.444 96.7855 676.191 96.9276C675.938 97.0668 675.602 97.1364 675.181 97.1364ZM675.317 96.233C675.721 96.233 676.062 96.1278 676.34 95.9176C676.619 95.7045 676.83 95.4105 676.975 95.0355C677.12 94.6577 677.192 94.2216 677.192 93.7273C677.192 93.2386 677.121 92.8111 676.979 92.4446C676.837 92.0753 676.627 91.7884 676.349 91.5838C676.07 91.3764 675.727 91.2727 675.317 91.2727C674.891 91.2727 674.536 91.3821 674.252 91.6009C673.971 91.8168 673.759 92.1108 673.617 92.483C673.478 92.8523 673.408 93.267 673.408 93.7273C673.408 94.1932 673.479 94.6165 673.621 94.9972C673.766 95.375 673.979 95.6761 674.261 95.9006C674.545 96.1222 674.897 96.233 675.317 96.233Z" fill="black"/>
<rect x="0.5" y="0.5" width="803" height="148" stroke="white"/>
</g>
<defs>
<clipPath id="clip0_890_9893">
<rect width="804" height="149" fill="white"/>
</clipPath>
</defs>
</svg>
