<svg width="804" height="333" viewBox="0 0 804 333" fill="none" xmlns="http://www.w3.org/2000/svg">
<rect width="804" height="333" fill="#F9FAFB"/>
<g filter="url(#filter0_dd_932_40116)">
<g clip-path="url(#clip0_932_40116)">
<rect x="243" y="128" width="320" height="162" rx="3" fill="white"/>
<path d="M256.145 155V145.545H259.339C260.081 145.545 260.688 145.679 261.158 145.947C261.632 146.212 261.983 146.57 262.211 147.023C262.439 147.475 262.553 147.98 262.553 148.537C262.553 149.094 262.439 149.6 262.211 150.056C261.986 150.511 261.638 150.874 261.168 151.145C260.697 151.413 260.094 151.547 259.358 151.547H257.068V150.531H259.321C259.829 150.531 260.237 150.444 260.544 150.268C260.852 150.093 261.075 149.856 261.214 149.557C261.355 149.256 261.426 148.915 261.426 148.537C261.426 148.158 261.355 147.82 261.214 147.521C261.075 147.223 260.851 146.989 260.54 146.82C260.229 146.647 259.817 146.561 259.303 146.561H257.29V155H256.145ZM265.339 150.734V155H264.249V145.545H265.339V149.017H265.431C265.597 148.651 265.846 148.36 266.179 148.145C266.514 147.926 266.961 147.817 267.518 147.817C268.001 147.817 268.424 147.914 268.787 148.108C269.15 148.298 269.432 148.592 269.632 148.989C269.835 149.383 269.937 149.885 269.937 150.494V155H268.847V150.568C268.847 150.005 268.701 149.569 268.409 149.262C268.119 148.951 267.718 148.795 267.204 148.795C266.847 148.795 266.527 148.871 266.243 149.022C265.963 149.172 265.742 149.393 265.579 149.682C265.419 149.971 265.339 150.322 265.339 150.734ZM274.81 155.148C274.17 155.148 273.609 154.995 273.125 154.691C272.645 154.386 272.27 153.96 271.999 153.412C271.731 152.864 271.597 152.224 271.597 151.491C271.597 150.753 271.731 150.108 271.999 149.557C272.27 149.006 272.645 148.578 273.125 148.274C273.609 147.969 274.17 147.817 274.81 147.817C275.451 147.817 276.011 147.969 276.491 148.274C276.974 148.578 277.35 149.006 277.617 149.557C277.888 150.108 278.024 150.753 278.024 151.491C278.024 152.224 277.888 152.864 277.617 153.412C277.35 153.96 276.974 154.386 276.491 154.691C276.011 154.995 275.451 155.148 274.81 155.148ZM274.81 154.169C275.297 154.169 275.697 154.044 276.011 153.795C276.325 153.546 276.557 153.218 276.708 152.812C276.859 152.406 276.934 151.965 276.934 151.491C276.934 151.018 276.859 150.576 276.708 150.167C276.557 149.757 276.325 149.426 276.011 149.174C275.697 148.922 275.297 148.795 274.81 148.795C274.324 148.795 273.924 148.922 273.61 149.174C273.296 149.426 273.064 149.757 272.913 150.167C272.762 150.576 272.687 151.018 272.687 151.491C272.687 151.965 272.762 152.406 272.913 152.812C273.064 153.218 273.296 153.546 273.61 153.795C273.924 154.044 274.324 154.169 274.81 154.169ZM282.66 155.148C281.976 155.148 281.387 154.997 280.892 154.695C280.399 154.391 280.019 153.966 279.751 153.421C279.487 152.873 279.354 152.236 279.354 151.51C279.354 150.784 279.487 150.143 279.751 149.589C280.019 149.032 280.391 148.598 280.868 148.288C281.349 147.974 281.909 147.817 282.549 147.817C282.918 147.817 283.283 147.878 283.643 148.001C284.003 148.125 284.331 148.325 284.626 148.602C284.922 148.875 285.157 149.239 285.333 149.691C285.508 150.143 285.596 150.701 285.596 151.362V151.824H280.13V150.882H284.488C284.488 150.482 284.408 150.125 284.248 149.811C284.091 149.497 283.866 149.249 283.574 149.068C283.284 148.886 282.943 148.795 282.549 148.795C282.115 148.795 281.739 148.903 281.422 149.119C281.108 149.331 280.867 149.608 280.698 149.95C280.528 150.291 280.444 150.657 280.444 151.048V151.676C280.444 152.212 280.536 152.666 280.721 153.038C280.908 153.407 281.169 153.689 281.501 153.883C281.833 154.074 282.22 154.169 282.66 154.169C282.946 154.169 283.204 154.129 283.435 154.049C283.669 153.966 283.871 153.843 284.04 153.68C284.209 153.513 284.34 153.307 284.432 153.061L285.485 153.357C285.374 153.714 285.188 154.027 284.926 154.298C284.665 154.566 284.342 154.775 283.957 154.926C283.572 155.074 283.14 155.148 282.66 155.148ZM288.343 150.734V155H287.253V147.909H288.306V149.017H288.398C288.564 148.657 288.816 148.368 289.155 148.149C289.494 147.928 289.931 147.817 290.466 147.817C290.946 147.817 291.366 147.915 291.726 148.112C292.086 148.306 292.367 148.602 292.567 148.999C292.767 149.393 292.867 149.891 292.867 150.494V155H291.777V150.568C291.777 150.011 291.633 149.577 291.343 149.266C291.054 148.952 290.657 148.795 290.152 148.795C289.804 148.795 289.494 148.871 289.22 149.022C288.949 149.172 288.735 149.393 288.578 149.682C288.421 149.971 288.343 150.322 288.343 150.734ZM294.858 155V147.909H295.947V155H294.858ZM295.411 146.727C295.199 146.727 295.016 146.655 294.862 146.51C294.711 146.366 294.636 146.192 294.636 145.989C294.636 145.786 294.711 145.612 294.862 145.467C295.016 145.322 295.199 145.25 295.411 145.25C295.624 145.25 295.805 145.322 295.956 145.467C296.11 145.612 296.187 145.786 296.187 145.989C296.187 146.192 296.11 146.366 295.956 146.51C295.805 146.655 295.624 146.727 295.411 146.727ZM298.755 147.909L300.454 150.808L302.153 147.909H303.408L301.119 151.455L303.408 155H302.153L300.454 152.249L298.755 155H297.499L299.752 151.455L297.499 147.909H298.755ZM308.767 155V145.545H312.072C312.731 145.545 313.274 145.659 313.702 145.887C314.13 146.112 314.448 146.415 314.658 146.797C314.867 147.175 314.972 147.595 314.972 148.057C314.972 148.463 314.899 148.799 314.755 149.063C314.613 149.328 314.425 149.537 314.191 149.691C313.96 149.845 313.71 149.959 313.439 150.033V150.125C313.728 150.143 314.019 150.245 314.311 150.43C314.604 150.614 314.848 150.879 315.045 151.224C315.242 151.568 315.341 151.99 315.341 152.489C315.341 152.963 315.233 153.389 315.018 153.767C314.802 154.146 314.462 154.446 313.997 154.668C313.533 154.889 312.928 155 312.183 155H308.767ZM309.912 153.984H312.183C312.931 153.984 313.462 153.84 313.776 153.55C314.093 153.258 314.251 152.904 314.251 152.489C314.251 152.169 314.17 151.873 314.007 151.602C313.844 151.328 313.611 151.11 313.31 150.947C313.008 150.781 312.651 150.697 312.239 150.697H309.912V153.984ZM309.912 149.7H312.035C312.38 149.7 312.691 149.633 312.968 149.497C313.248 149.362 313.47 149.171 313.633 148.925C313.799 148.679 313.882 148.389 313.882 148.057C313.882 147.641 313.737 147.289 313.448 147C313.159 146.707 312.7 146.561 312.072 146.561H309.912V149.7ZM319.161 155.166C318.712 155.166 318.304 155.082 317.938 154.912C317.571 154.74 317.281 154.492 317.065 154.169C316.85 153.843 316.742 153.449 316.742 152.987C316.742 152.581 316.822 152.252 316.982 151.999C317.142 151.744 317.356 151.544 317.624 151.399C317.891 151.254 318.187 151.147 318.51 151.076C318.836 151.002 319.164 150.944 319.493 150.901C319.924 150.845 320.274 150.804 320.541 150.776C320.812 150.745 321.009 150.694 321.132 150.624C321.258 150.553 321.321 150.43 321.321 150.254V150.217C321.321 149.762 321.197 149.408 320.948 149.156C320.701 148.903 320.327 148.777 319.826 148.777C319.306 148.777 318.898 148.891 318.602 149.119C318.307 149.346 318.099 149.589 317.979 149.848L316.945 149.479C317.13 149.048 317.376 148.712 317.684 148.472C317.995 148.229 318.333 148.06 318.699 147.964C319.069 147.866 319.432 147.817 319.789 147.817C320.017 147.817 320.278 147.844 320.574 147.9C320.872 147.952 321.16 148.061 321.437 148.228C321.717 148.394 321.949 148.645 322.134 148.98C322.319 149.316 322.411 149.765 322.411 150.328V155H321.321V154.04H321.266C321.192 154.194 321.069 154.358 320.897 154.534C320.724 154.709 320.495 154.858 320.209 154.982C319.923 155.105 319.573 155.166 319.161 155.166ZM319.327 154.188C319.758 154.188 320.121 154.103 320.417 153.934C320.715 153.764 320.94 153.546 321.091 153.278C321.245 153.01 321.321 152.729 321.321 152.433V151.436C321.275 151.491 321.174 151.542 321.017 151.588C320.863 151.632 320.684 151.67 320.481 151.704C320.281 151.735 320.086 151.762 319.895 151.787C319.707 151.808 319.555 151.827 319.438 151.842C319.155 151.879 318.89 151.939 318.644 152.022C318.401 152.102 318.204 152.224 318.053 152.387C317.905 152.547 317.831 152.766 317.831 153.043C317.831 153.421 317.971 153.707 318.252 153.901C318.535 154.092 318.893 154.188 319.327 154.188ZM325.415 152.415L325.397 151.067H325.618L328.721 147.909H330.069L326.763 151.251H326.671L325.415 152.415ZM324.4 155V145.545H325.489V155H324.4ZM328.905 155L326.135 151.491L326.911 150.734L330.29 155H328.905ZM334.152 155.148C333.469 155.148 332.879 154.997 332.384 154.695C331.891 154.391 331.511 153.966 331.243 153.421C330.979 152.873 330.846 152.236 330.846 151.51C330.846 150.784 330.979 150.143 331.243 149.589C331.511 149.032 331.884 148.598 332.361 148.288C332.841 147.974 333.401 147.817 334.041 147.817C334.41 147.817 334.775 147.878 335.135 148.001C335.495 148.125 335.823 148.325 336.118 148.602C336.414 148.875 336.649 149.239 336.825 149.691C337 150.143 337.088 150.701 337.088 151.362V151.824H331.622V150.882H335.98C335.98 150.482 335.9 150.125 335.74 149.811C335.583 149.497 335.358 149.249 335.066 149.068C334.777 148.886 334.435 148.795 334.041 148.795C333.607 148.795 333.232 148.903 332.915 149.119C332.601 149.331 332.359 149.608 332.19 149.95C332.021 150.291 331.936 150.657 331.936 151.048V151.676C331.936 152.212 332.028 152.666 332.213 153.038C332.401 153.407 332.661 153.689 332.993 153.883C333.325 154.074 333.712 154.169 334.152 154.169C334.438 154.169 334.697 154.129 334.927 154.049C335.161 153.966 335.363 153.843 335.532 153.68C335.701 153.513 335.832 153.307 335.925 153.061L336.977 153.357C336.866 153.714 336.68 154.027 336.419 154.298C336.157 154.566 335.834 154.775 335.449 154.926C335.064 155.074 334.632 155.148 334.152 155.148ZM338.745 155V147.909H339.798V148.98H339.872C340.001 148.629 340.235 148.345 340.573 148.126C340.912 147.908 341.294 147.798 341.718 147.798C341.798 147.798 341.898 147.8 342.018 147.803C342.138 147.806 342.229 147.811 342.291 147.817V148.925C342.254 148.915 342.169 148.902 342.037 148.883C341.907 148.862 341.771 148.851 341.626 148.851C341.281 148.851 340.973 148.923 340.703 149.068C340.435 149.209 340.222 149.406 340.066 149.659C339.912 149.908 339.835 150.193 339.835 150.513V155H338.745Z" fill="#1A1A1A"/>
<rect width="320" height="40" transform="translate(243 168)" fill="#EFEFEF"/>
<path d="M264.122 188.273C264.122 189.27 263.942 190.132 263.582 190.858C263.222 191.584 262.728 192.144 262.1 192.538C261.472 192.932 260.755 193.129 259.949 193.129C259.143 193.129 258.425 192.932 257.798 192.538C257.17 192.144 256.676 191.584 256.316 190.858C255.956 190.132 255.776 189.27 255.776 188.273C255.776 187.276 255.956 186.414 256.316 185.688C256.676 184.961 257.17 184.401 257.798 184.007C258.425 183.613 259.143 183.416 259.949 183.416C260.755 183.416 261.472 183.613 262.1 184.007C262.728 184.401 263.222 184.961 263.582 185.688C263.942 186.414 264.122 187.276 264.122 188.273ZM263.014 188.273C263.014 187.454 262.877 186.763 262.603 186.2C262.333 185.637 261.965 185.21 261.5 184.921C261.038 184.632 260.521 184.487 259.949 184.487C259.376 184.487 258.858 184.632 258.393 184.921C257.931 185.21 257.564 185.637 257.29 186.2C257.019 186.763 256.884 187.454 256.884 188.273C256.884 189.091 257.019 189.782 257.29 190.346C257.564 190.909 257.931 191.335 258.393 191.624C258.858 191.914 259.376 192.058 259.949 192.058C260.521 192.058 261.038 191.914 261.5 191.624C261.965 191.335 262.333 190.909 262.603 190.346C262.877 189.782 263.014 189.091 263.014 188.273ZM266.989 183.545V193H265.9V183.545H266.989ZM268.984 193V185.909H270.074V193H268.984ZM269.538 184.727C269.326 184.727 269.143 184.655 268.989 184.51C268.838 184.366 268.763 184.192 268.763 183.989C268.763 183.786 268.838 183.612 268.989 183.467C269.143 183.322 269.326 183.25 269.538 183.25C269.751 183.25 269.932 183.322 270.083 183.467C270.237 183.612 270.314 183.786 270.314 183.989C270.314 184.192 270.237 184.366 270.083 184.51C269.932 184.655 269.751 184.727 269.538 184.727ZM277.868 185.909L275.246 193H274.138L271.515 185.909H272.697L274.655 191.56H274.729L276.686 185.909H277.868ZM279.306 193V185.909H280.395V193H279.306ZM279.86 184.727C279.647 184.727 279.464 184.655 279.31 184.51C279.16 184.366 279.084 184.192 279.084 183.989C279.084 183.786 279.16 183.612 279.31 183.467C279.464 183.322 279.647 183.25 279.86 183.25C280.072 183.25 280.254 183.322 280.404 183.467C280.558 183.612 280.635 183.786 280.635 183.989C280.635 184.192 280.558 184.366 280.404 184.51C280.254 184.655 280.072 184.727 279.86 184.727ZM284.477 193.166C284.028 193.166 283.62 193.082 283.254 192.912C282.888 192.74 282.597 192.492 282.381 192.169C282.166 191.843 282.058 191.449 282.058 190.987C282.058 190.581 282.138 190.252 282.298 189.999C282.458 189.744 282.672 189.544 282.94 189.399C283.208 189.254 283.503 189.147 283.826 189.076C284.153 189.002 284.48 188.944 284.81 188.901C285.241 188.845 285.59 188.804 285.858 188.776C286.129 188.745 286.325 188.694 286.449 188.624C286.575 188.553 286.638 188.43 286.638 188.254V188.217C286.638 187.762 286.513 187.408 286.264 187.156C286.018 186.903 285.644 186.777 285.142 186.777C284.622 186.777 284.214 186.891 283.919 187.119C283.623 187.346 283.416 187.589 283.296 187.848L282.261 187.479C282.446 187.048 282.692 186.712 283 186.472C283.311 186.229 283.649 186.06 284.016 185.964C284.385 185.866 284.748 185.817 285.105 185.817C285.333 185.817 285.595 185.844 285.89 185.9C286.189 185.952 286.476 186.061 286.753 186.228C287.033 186.394 287.266 186.645 287.45 186.98C287.635 187.316 287.727 187.765 287.727 188.328V193H286.638V192.04H286.582C286.509 192.194 286.386 192.358 286.213 192.534C286.041 192.709 285.812 192.858 285.525 192.982C285.239 193.105 284.89 193.166 284.477 193.166ZM284.644 192.188C285.074 192.188 285.438 192.103 285.733 191.934C286.032 191.764 286.256 191.546 286.407 191.278C286.561 191.01 286.638 190.729 286.638 190.433V189.436C286.592 189.491 286.49 189.542 286.333 189.588C286.179 189.632 286.001 189.67 285.798 189.704C285.598 189.735 285.402 189.762 285.211 189.787C285.024 189.808 284.871 189.827 284.754 189.842C284.471 189.879 284.207 189.939 283.96 190.022C283.717 190.102 283.52 190.224 283.369 190.387C283.222 190.547 283.148 190.766 283.148 191.043C283.148 191.421 283.288 191.707 283.568 191.901C283.851 192.092 284.21 192.188 284.644 192.188ZM293.52 193V183.545H296.714C297.453 183.545 298.059 183.672 298.533 183.924C299.007 184.173 299.358 184.516 299.586 184.953C299.814 185.391 299.928 185.888 299.928 186.445C299.928 187.002 299.814 187.496 299.586 187.926C299.358 188.357 299.009 188.696 298.538 188.942C298.067 189.185 297.465 189.307 296.733 189.307H294.148V188.273H296.696C297.201 188.273 297.607 188.199 297.915 188.051C298.226 187.903 298.45 187.694 298.589 187.423C298.73 187.149 298.801 186.823 298.801 186.445C298.801 186.066 298.73 185.735 298.589 185.452C298.447 185.169 298.221 184.95 297.91 184.797C297.599 184.64 297.188 184.561 296.678 184.561H294.665V193H293.52ZM297.97 188.753L300.297 193H298.967L296.678 188.753H297.97ZM302.777 188.734V193H301.688V183.545H302.777V187.017H302.869C303.036 186.651 303.285 186.36 303.617 186.145C303.953 185.926 304.399 185.817 304.956 185.817C305.439 185.817 305.862 185.914 306.226 186.108C306.589 186.298 306.87 186.592 307.07 186.989C307.274 187.383 307.375 187.885 307.375 188.494V193H306.286V188.568C306.286 188.005 306.139 187.569 305.847 187.262C305.558 186.951 305.156 186.795 304.642 186.795C304.285 186.795 303.965 186.871 303.682 187.022C303.402 187.172 303.18 187.393 303.017 187.682C302.857 187.971 302.777 188.322 302.777 188.734ZM309.816 195.659C309.631 195.659 309.467 195.644 309.322 195.613C309.177 195.585 309.077 195.558 309.022 195.53L309.299 194.57C309.564 194.637 309.798 194.662 310.001 194.643C310.204 194.625 310.384 194.534 310.541 194.371C310.701 194.211 310.847 193.951 310.979 193.591L311.183 193.037L308.56 185.909H309.742L311.7 191.56H311.773L313.731 185.909H314.913L311.903 194.034C311.767 194.4 311.6 194.703 311.4 194.944C311.199 195.187 310.967 195.367 310.702 195.484C310.441 195.601 310.145 195.659 309.816 195.659ZM319.07 193.148C318.387 193.148 317.797 192.997 317.302 192.695C316.809 192.391 316.429 191.966 316.161 191.421C315.897 190.873 315.764 190.236 315.764 189.51C315.764 188.784 315.897 188.143 316.161 187.589C316.429 187.032 316.802 186.598 317.279 186.288C317.759 185.974 318.319 185.817 318.959 185.817C319.328 185.817 319.693 185.878 320.053 186.001C320.413 186.125 320.741 186.325 321.036 186.602C321.332 186.875 321.567 187.239 321.743 187.691C321.918 188.143 322.006 188.701 322.006 189.362V189.824H316.54V188.882H320.898C320.898 188.482 320.818 188.125 320.658 187.811C320.501 187.497 320.276 187.249 319.984 187.068C319.695 186.886 319.353 186.795 318.959 186.795C318.525 186.795 318.15 186.903 317.833 187.119C317.519 187.331 317.277 187.608 317.108 187.95C316.939 188.291 316.854 188.657 316.854 189.048V189.676C316.854 190.212 316.946 190.666 317.131 191.038C317.319 191.407 317.579 191.689 317.911 191.883C318.243 192.074 318.63 192.169 319.07 192.169C319.356 192.169 319.615 192.129 319.845 192.049C320.079 191.966 320.281 191.843 320.45 191.68C320.619 191.513 320.75 191.307 320.843 191.061L321.895 191.357C321.784 191.714 321.598 192.027 321.336 192.298C321.075 192.566 320.752 192.775 320.367 192.926C319.982 193.074 319.55 193.148 319.07 193.148Z" fill="#1F243D"/>
<path d="M547.667 183L538.501 192.167L534.334 188" stroke="#217CF5" stroke-width="1.5" stroke-linecap="round" stroke-linejoin="round"/>
<path d="M256.145 231V221.545H257.29V229.984H261.685V231H256.145ZM265.396 231.166C264.947 231.166 264.539 231.082 264.173 230.912C263.807 230.74 263.516 230.492 263.3 230.169C263.085 229.843 262.977 229.449 262.977 228.987C262.977 228.581 263.057 228.252 263.217 227.999C263.377 227.744 263.591 227.544 263.859 227.399C264.127 227.254 264.422 227.147 264.745 227.076C265.072 227.002 265.399 226.944 265.729 226.901C266.16 226.845 266.509 226.804 266.777 226.776C267.047 226.745 267.244 226.694 267.368 226.624C267.494 226.553 267.557 226.43 267.557 226.254V226.217C267.557 225.762 267.432 225.408 267.183 225.156C266.937 224.903 266.563 224.777 266.061 224.777C265.541 224.777 265.133 224.891 264.838 225.119C264.542 225.346 264.335 225.589 264.214 225.848L263.18 225.479C263.365 225.048 263.611 224.712 263.919 224.472C264.23 224.229 264.568 224.06 264.935 223.964C265.304 223.866 265.667 223.817 266.024 223.817C266.252 223.817 266.513 223.844 266.809 223.9C267.107 223.952 267.395 224.061 267.672 224.228C267.952 224.394 268.185 224.645 268.369 224.98C268.554 225.316 268.646 225.765 268.646 226.328V231H267.557V230.04H267.501C267.428 230.194 267.304 230.358 267.132 230.534C266.96 230.709 266.73 230.858 266.444 230.982C266.158 231.105 265.809 231.166 265.396 231.166ZM265.562 230.188C265.993 230.188 266.357 230.103 266.652 229.934C266.951 229.764 267.175 229.546 267.326 229.278C267.48 229.01 267.557 228.729 267.557 228.433V227.436C267.511 227.491 267.409 227.542 267.252 227.588C267.098 227.632 266.92 227.67 266.717 227.704C266.517 227.735 266.321 227.762 266.13 227.787C265.943 227.808 265.79 227.827 265.673 227.842C265.39 227.879 265.125 227.939 264.879 228.022C264.636 228.102 264.439 228.224 264.288 228.387C264.141 228.547 264.067 228.766 264.067 229.043C264.067 229.421 264.207 229.707 264.487 229.901C264.77 230.092 265.129 230.188 265.562 230.188ZM271.724 226.734V231H270.635V223.909H271.687V225.017H271.78C271.946 224.657 272.198 224.368 272.537 224.149C272.875 223.928 273.312 223.817 273.848 223.817C274.328 223.817 274.748 223.915 275.108 224.112C275.468 224.306 275.748 224.602 275.948 224.999C276.148 225.393 276.248 225.891 276.248 226.494V231H275.159V226.568C275.159 226.011 275.014 225.577 274.725 225.266C274.436 224.952 274.039 224.795 273.534 224.795C273.186 224.795 272.875 224.871 272.601 225.022C272.331 225.172 272.117 225.393 271.96 225.682C271.803 225.971 271.724 226.322 271.724 226.734ZM280.326 231.166C279.877 231.166 279.469 231.082 279.103 230.912C278.736 230.74 278.446 230.492 278.23 230.169C278.015 229.843 277.907 229.449 277.907 228.987C277.907 228.581 277.987 228.252 278.147 227.999C278.307 227.744 278.521 227.544 278.789 227.399C279.056 227.254 279.352 227.147 279.675 227.076C280.001 227.002 280.329 226.944 280.658 226.901C281.089 226.845 281.439 226.804 281.706 226.776C281.977 226.745 282.174 226.694 282.297 226.624C282.423 226.553 282.487 226.43 282.487 226.254V226.217C282.487 225.762 282.362 225.408 282.113 225.156C281.866 224.903 281.492 224.777 280.991 224.777C280.471 224.777 280.063 224.891 279.767 225.119C279.472 225.346 279.264 225.589 279.144 225.848L278.11 225.479C278.295 225.048 278.541 224.712 278.849 224.472C279.16 224.229 279.498 224.06 279.864 223.964C280.234 223.866 280.597 223.817 280.954 223.817C281.182 223.817 281.443 223.844 281.739 223.9C282.037 223.952 282.325 224.061 282.602 224.228C282.882 224.394 283.114 224.645 283.299 224.98C283.484 225.316 283.576 225.765 283.576 226.328V231H282.487V230.04H282.431C282.357 230.194 282.234 230.358 282.062 230.534C281.889 230.709 281.66 230.858 281.374 230.982C281.088 231.105 280.738 231.166 280.326 231.166ZM280.492 230.188C280.923 230.188 281.286 230.103 281.582 229.934C281.88 229.764 282.105 229.546 282.256 229.278C282.41 229.01 282.487 228.729 282.487 228.433V227.436C282.44 227.491 282.339 227.542 282.182 227.588C282.028 227.632 281.849 227.67 281.646 227.704C281.446 227.735 281.251 227.762 281.06 227.787C280.872 227.808 280.72 227.827 280.603 227.842C280.32 227.879 280.055 227.939 279.809 228.022C279.566 228.102 279.369 228.224 279.218 228.387C279.07 228.547 278.996 228.766 278.996 229.043C278.996 229.421 279.136 229.707 279.417 229.901C279.7 230.092 280.058 230.188 280.492 230.188ZM294.539 223.909C294.484 223.441 294.259 223.078 293.865 222.82C293.471 222.561 292.988 222.432 292.415 222.432C291.997 222.432 291.631 222.5 291.317 222.635C291.006 222.77 290.763 222.957 290.587 223.194C290.415 223.431 290.329 223.7 290.329 224.001C290.329 224.254 290.389 224.471 290.509 224.652C290.632 224.831 290.789 224.98 290.98 225.1C291.17 225.217 291.371 225.314 291.58 225.391C291.789 225.465 291.981 225.525 292.157 225.571L293.117 225.83C293.363 225.894 293.637 225.983 293.939 226.097C294.244 226.211 294.534 226.367 294.811 226.564C295.091 226.757 295.322 227.007 295.504 227.311C295.685 227.616 295.776 227.99 295.776 228.433C295.776 228.944 295.642 229.406 295.375 229.818C295.11 230.231 294.722 230.558 294.211 230.801C293.703 231.045 293.086 231.166 292.36 231.166C291.683 231.166 291.097 231.057 290.601 230.838C290.109 230.62 289.721 230.315 289.438 229.924C289.158 229.533 288.999 229.08 288.962 228.562H290.144C290.175 228.92 290.295 229.215 290.504 229.449C290.717 229.68 290.984 229.852 291.307 229.966C291.634 230.077 291.985 230.132 292.36 230.132C292.797 230.132 293.189 230.061 293.537 229.92C293.885 229.775 294.16 229.575 294.364 229.32C294.567 229.061 294.668 228.759 294.668 228.415C294.668 228.101 294.581 227.845 294.405 227.648C294.23 227.451 293.999 227.291 293.713 227.168C293.426 227.045 293.117 226.937 292.785 226.845L291.621 226.513C290.883 226.3 290.298 225.997 289.867 225.603C289.436 225.209 289.221 224.694 289.221 224.057C289.221 223.527 289.364 223.066 289.65 222.672C289.939 222.275 290.327 221.967 290.813 221.749C291.303 221.527 291.849 221.416 292.452 221.416C293.062 221.416 293.603 221.525 294.077 221.744C294.551 221.959 294.927 222.255 295.204 222.63C295.484 223.006 295.632 223.432 295.647 223.909H294.539ZM300.595 223.909V224.832H296.92V223.909H300.595ZM297.991 222.21H299.08V228.969C299.08 229.277 299.125 229.507 299.214 229.661C299.307 229.812 299.424 229.914 299.565 229.966C299.71 230.015 299.862 230.04 300.022 230.04C300.142 230.04 300.241 230.034 300.318 230.021C300.395 230.006 300.456 229.994 300.502 229.984L300.724 230.963C300.65 230.991 300.547 231.018 300.415 231.046C300.282 231.077 300.115 231.092 299.911 231.092C299.604 231.092 299.302 231.026 299.007 230.894C298.714 230.761 298.471 230.56 298.277 230.289C298.086 230.018 297.991 229.677 297.991 229.264V222.21ZM305.13 231.148C304.447 231.148 303.858 230.997 303.362 230.695C302.87 230.391 302.49 229.966 302.222 229.421C301.957 228.873 301.825 228.236 301.825 227.51C301.825 226.784 301.957 226.143 302.222 225.589C302.49 225.032 302.862 224.598 303.339 224.288C303.819 223.974 304.379 223.817 305.02 223.817C305.389 223.817 305.754 223.878 306.114 224.001C306.474 224.125 306.801 224.325 307.097 224.602C307.392 224.875 307.628 225.239 307.803 225.691C307.979 226.143 308.066 226.701 308.066 227.362V227.824H302.6V226.882H306.958C306.958 226.482 306.878 226.125 306.718 225.811C306.561 225.497 306.337 225.249 306.044 225.068C305.755 224.886 305.413 224.795 305.02 224.795C304.586 224.795 304.21 224.903 303.893 225.119C303.579 225.331 303.338 225.608 303.168 225.95C302.999 226.291 302.914 226.657 302.914 227.048V227.676C302.914 228.212 303.007 228.666 303.191 229.038C303.379 229.407 303.639 229.689 303.972 229.883C304.304 230.074 304.69 230.169 305.13 230.169C305.417 230.169 305.675 230.129 305.906 230.049C306.14 229.966 306.341 229.843 306.511 229.68C306.68 229.513 306.811 229.307 306.903 229.061L307.956 229.357C307.845 229.714 307.659 230.027 307.397 230.298C307.135 230.566 306.812 230.775 306.428 230.926C306.043 231.074 305.61 231.148 305.13 231.148ZM309.724 231V223.909H310.813V231H309.724ZM310.278 222.727C310.065 222.727 309.882 222.655 309.728 222.51C309.578 222.366 309.502 222.192 309.502 221.989C309.502 221.786 309.578 221.612 309.728 221.467C309.882 221.322 310.065 221.25 310.278 221.25C310.49 221.25 310.672 221.322 310.822 221.467C310.976 221.612 311.053 221.786 311.053 221.989C311.053 222.192 310.976 222.366 310.822 222.51C310.672 222.655 310.49 222.727 310.278 222.727ZM313.898 226.734V231H312.809V223.909H313.861V225.017H313.954C314.12 224.657 314.372 224.368 314.711 224.149C315.049 223.928 315.486 223.817 316.022 223.817C316.502 223.817 316.922 223.915 317.282 224.112C317.642 224.306 317.922 224.602 318.122 224.999C318.322 225.393 318.422 225.891 318.422 226.494V231H317.333V226.568C317.333 226.011 317.188 225.577 316.899 225.266C316.61 224.952 316.213 224.795 315.708 224.795C315.36 224.795 315.049 224.871 314.775 225.022C314.504 225.172 314.291 225.393 314.134 225.682C313.977 225.971 313.898 226.322 313.898 226.734ZM323.386 231.148C322.703 231.148 322.114 230.997 321.618 230.695C321.126 230.391 320.746 229.966 320.478 229.421C320.213 228.873 320.081 228.236 320.081 227.51C320.081 226.784 320.213 226.143 320.478 225.589C320.746 225.032 321.118 224.598 321.595 224.288C322.075 223.974 322.635 223.817 323.275 223.817C323.645 223.817 324.009 223.878 324.369 224.001C324.73 224.125 325.057 224.325 325.353 224.602C325.648 224.875 325.884 225.239 326.059 225.691C326.235 226.143 326.322 226.701 326.322 227.362V227.824H320.856V226.882H325.214C325.214 226.482 325.134 226.125 324.974 225.811C324.817 225.497 324.593 225.249 324.3 225.068C324.011 224.886 323.669 224.795 323.275 224.795C322.841 224.795 322.466 224.903 322.149 225.119C321.835 225.331 321.593 225.608 321.424 225.95C321.255 226.291 321.17 226.657 321.17 227.048V227.676C321.17 228.212 321.263 228.666 321.447 229.038C321.635 229.407 321.895 229.689 322.227 229.883C322.56 230.074 322.946 230.169 323.386 230.169C323.672 230.169 323.931 230.129 324.162 230.049C324.396 229.966 324.597 229.843 324.767 229.68C324.936 229.513 325.067 229.307 325.159 229.061L326.211 229.357C326.101 229.714 325.914 230.027 325.653 230.298C325.391 230.566 325.068 230.775 324.683 230.926C324.299 231.074 323.866 231.148 323.386 231.148ZM327.98 231V223.909H329.032V224.98H329.106C329.235 224.629 329.469 224.345 329.808 224.126C330.146 223.908 330.528 223.798 330.953 223.798C331.033 223.798 331.133 223.8 331.253 223.803C331.373 223.806 331.463 223.811 331.525 223.817V224.925C331.488 224.915 331.403 224.902 331.271 224.883C331.142 224.862 331.005 224.851 330.86 224.851C330.516 224.851 330.208 224.923 329.937 225.068C329.669 225.209 329.457 225.406 329.3 225.659C329.146 225.908 329.069 226.193 329.069 226.513V231H327.98Z" fill="#1A1A1A"/>
<path d="M259.062 267H256.145V257.545H259.192C260.109 257.545 260.894 257.735 261.546 258.113C262.199 258.489 262.699 259.029 263.047 259.734C263.394 260.435 263.568 261.276 263.568 262.254C263.568 263.239 263.393 264.087 263.042 264.798C262.691 265.506 262.18 266.051 261.509 266.432C260.838 266.811 260.023 267 259.062 267ZM257.29 265.984H258.989C259.77 265.984 260.418 265.834 260.932 265.532C261.446 265.23 261.829 264.801 262.082 264.244C262.334 263.687 262.46 263.024 262.46 262.254C262.46 261.491 262.336 260.834 262.086 260.283C261.837 259.729 261.465 259.304 260.969 259.009C260.474 258.71 259.857 258.561 259.118 258.561H257.29V265.984ZM268.314 267.148C267.631 267.148 267.041 266.997 266.546 266.695C266.053 266.391 265.673 265.966 265.406 265.421C265.141 264.873 265.009 264.236 265.009 263.51C265.009 262.784 265.141 262.143 265.406 261.589C265.673 261.032 266.046 260.598 266.523 260.288C267.003 259.974 267.563 259.817 268.203 259.817C268.572 259.817 268.937 259.878 269.297 260.001C269.657 260.125 269.985 260.325 270.281 260.602C270.576 260.875 270.811 261.239 270.987 261.691C271.162 262.143 271.25 262.701 271.25 263.362V263.824H265.784V262.882H270.142C270.142 262.482 270.062 262.125 269.902 261.811C269.745 261.497 269.52 261.249 269.228 261.068C268.939 260.886 268.597 260.795 268.203 260.795C267.769 260.795 267.394 260.903 267.077 261.119C266.763 261.331 266.521 261.608 266.352 261.95C266.183 262.291 266.098 262.657 266.098 263.048V263.676C266.098 264.212 266.19 264.666 266.375 265.038C266.563 265.407 266.823 265.689 267.155 265.883C267.488 266.074 267.874 266.169 268.314 266.169C268.6 266.169 268.859 266.129 269.089 266.049C269.323 265.966 269.525 265.843 269.694 265.68C269.864 265.513 269.994 265.307 270.087 265.061L271.139 265.357C271.028 265.714 270.842 266.027 270.581 266.298C270.319 266.566 269.996 266.775 269.611 266.926C269.226 267.074 268.794 267.148 268.314 267.148ZM272.907 267V259.909H273.96V261.017H274.052C274.2 260.638 274.438 260.345 274.768 260.135C275.097 259.923 275.493 259.817 275.954 259.817C276.422 259.817 276.811 259.923 277.122 260.135C277.436 260.345 277.681 260.638 277.856 261.017H277.93C278.112 260.651 278.384 260.36 278.747 260.145C279.11 259.926 279.546 259.817 280.054 259.817C280.688 259.817 281.206 260.015 281.609 260.412C282.013 260.806 282.214 261.42 282.214 262.254V267H281.125V262.254C281.125 261.731 280.982 261.357 280.695 261.132C280.409 260.908 280.072 260.795 279.684 260.795C279.186 260.795 278.799 260.946 278.526 261.248C278.252 261.546 278.115 261.925 278.115 262.384V267H277.007V262.143C277.007 261.74 276.876 261.416 276.614 261.169C276.353 260.92 276.016 260.795 275.603 260.795C275.32 260.795 275.056 260.871 274.809 261.022C274.566 261.172 274.369 261.382 274.218 261.65C274.071 261.914 273.997 262.22 273.997 262.568V267H272.907ZM284.206 267V259.909H285.296V267H284.206ZM284.76 258.727C284.548 258.727 284.365 258.655 284.211 258.51C284.06 258.366 283.985 258.192 283.985 257.989C283.985 257.786 284.06 257.612 284.211 257.467C284.365 257.322 284.548 257.25 284.76 257.25C284.972 257.25 285.154 257.322 285.305 257.467C285.459 257.612 285.536 257.786 285.536 257.989C285.536 258.192 285.459 258.366 285.305 258.51C285.154 258.655 284.972 258.727 284.76 258.727ZM292.812 267L290.227 257.545H291.391L293.366 265.246H293.459L295.472 257.545H296.764L298.777 265.246H298.869L300.845 257.545H302.008L299.423 267H298.241L296.155 259.466H296.081L293.994 267H292.812ZM303.287 267V259.909H304.377V267H303.287ZM303.841 258.727C303.629 258.727 303.446 258.655 303.292 258.51C303.141 258.366 303.066 258.192 303.066 257.989C303.066 257.786 303.141 257.612 303.292 257.467C303.446 257.322 303.629 257.25 303.841 257.25C304.054 257.25 304.235 257.322 304.386 257.467C304.54 257.612 304.617 257.786 304.617 257.989C304.617 258.192 304.54 258.366 304.386 258.51C304.235 258.655 304.054 258.727 303.841 258.727ZM307.462 257.545V267H306.372V257.545H307.462ZM310.473 264.415L310.454 263.067H310.676L313.778 259.909H315.126L311.821 263.251H311.728L310.473 264.415ZM309.457 267V257.545H310.547V267H309.457ZM313.963 267L311.193 263.491L311.968 262.734L315.348 267H313.963ZM316.528 267V259.909H317.618V267H316.528ZM317.082 258.727C316.87 258.727 316.687 258.655 316.533 258.51C316.382 258.366 316.307 258.192 316.307 257.989C316.307 257.786 316.382 257.612 316.533 257.467C316.687 257.322 316.87 257.25 317.082 257.25C317.295 257.25 317.476 257.322 317.627 257.467C317.781 257.612 317.858 257.786 317.858 257.989C317.858 258.192 317.781 258.366 317.627 258.51C317.476 258.655 317.295 258.727 317.082 258.727ZM320.703 262.734V267H319.613V259.909H320.666V261.017H320.758C320.924 260.657 321.177 260.368 321.515 260.149C321.854 259.928 322.291 259.817 322.826 259.817C323.307 259.817 323.727 259.915 324.087 260.112C324.447 260.306 324.727 260.602 324.927 260.999C325.127 261.393 325.227 261.891 325.227 262.494V267H324.138V262.568C324.138 262.011 323.993 261.577 323.704 261.266C323.414 260.952 323.017 260.795 322.513 260.795C322.165 260.795 321.854 260.871 321.58 261.022C321.309 261.172 321.095 261.393 320.938 261.682C320.781 261.971 320.703 262.322 320.703 262.734ZM332.241 261.497L331.262 261.774C331.2 261.611 331.11 261.453 330.99 261.299C330.873 261.142 330.713 261.012 330.509 260.911C330.306 260.809 330.046 260.759 329.729 260.759C329.295 260.759 328.934 260.859 328.644 261.059C328.358 261.256 328.215 261.506 328.215 261.811C328.215 262.082 328.314 262.296 328.51 262.453C328.707 262.61 329.015 262.741 329.434 262.845L330.486 263.104C331.12 263.258 331.593 263.493 331.904 263.81C332.214 264.124 332.37 264.529 332.37 265.024C332.37 265.43 332.253 265.794 332.019 266.114C331.788 266.434 331.465 266.686 331.05 266.871C330.634 267.055 330.151 267.148 329.6 267.148C328.877 267.148 328.278 266.991 327.804 266.677C327.33 266.363 327.03 265.904 326.904 265.301L327.938 265.043C328.037 265.424 328.223 265.71 328.497 265.901C328.774 266.092 329.135 266.188 329.581 266.188C330.089 266.188 330.492 266.08 330.791 265.864C331.093 265.646 331.243 265.384 331.243 265.08C331.243 264.833 331.157 264.627 330.985 264.461C330.813 264.292 330.548 264.165 330.191 264.082L329.009 263.805C328.36 263.652 327.883 263.413 327.578 263.09C327.276 262.764 327.126 262.356 327.126 261.866C327.126 261.466 327.238 261.112 327.463 260.805C327.69 260.497 328 260.255 328.39 260.08C328.784 259.904 329.231 259.817 329.729 259.817C330.431 259.817 330.982 259.971 331.382 260.278C331.785 260.586 332.071 260.992 332.241 261.497ZM336.891 267.148C336.25 267.148 335.689 266.995 335.206 266.691C334.725 266.386 334.35 265.96 334.079 265.412C333.811 264.864 333.677 264.224 333.677 263.491C333.677 262.753 333.811 262.108 334.079 261.557C334.35 261.006 334.725 260.578 335.206 260.274C335.689 259.969 336.25 259.817 336.891 259.817C337.531 259.817 338.091 259.969 338.571 260.274C339.054 260.578 339.43 261.006 339.697 261.557C339.968 262.108 340.104 262.753 340.104 263.491C340.104 264.224 339.968 264.864 339.697 265.412C339.43 265.96 339.054 266.386 338.571 266.691C338.091 266.995 337.531 267.148 336.891 267.148ZM336.891 266.169C337.377 266.169 337.777 266.044 338.091 265.795C338.405 265.546 338.637 265.218 338.788 264.812C338.939 264.406 339.014 263.965 339.014 263.491C339.014 263.018 338.939 262.576 338.788 262.167C338.637 261.757 338.405 261.426 338.091 261.174C337.777 260.922 337.377 260.795 336.891 260.795C336.404 260.795 336.004 260.922 335.69 261.174C335.376 261.426 335.144 261.757 334.993 262.167C334.842 262.576 334.767 263.018 334.767 263.491C334.767 263.965 334.842 264.406 334.993 264.812C335.144 265.218 335.376 265.546 335.69 265.795C336.004 266.044 336.404 266.169 336.891 266.169ZM342.856 262.734V267H341.767V259.909H342.819V261.017H342.912C343.078 260.657 343.33 260.368 343.669 260.149C344.007 259.928 344.444 259.817 344.98 259.817C345.46 259.817 345.88 259.915 346.24 260.112C346.6 260.306 346.88 260.602 347.08 260.999C347.28 261.393 347.38 261.891 347.38 262.494V267H346.291V262.568C346.291 262.011 346.146 261.577 345.857 261.266C345.568 260.952 345.171 260.795 344.666 260.795C344.318 260.795 344.007 260.871 343.733 261.022C343.462 261.172 343.249 261.393 343.092 261.682C342.935 261.971 342.856 262.322 342.856 262.734Z" fill="#1A1A1A"/>
</g>
<rect x="243.5" y="128.5" width="319" height="161" rx="2.5" stroke="#F2F4F7"/>
</g>
<rect x="242.5" y="74.5" width="319" height="35" rx="2.5" fill="white"/>
<path d="M260.315 89.9091C260.26 89.4413 260.035 89.0781 259.641 88.8196C259.247 88.5611 258.764 88.4318 258.192 88.4318C257.773 88.4318 257.407 88.4995 257.093 88.6349C256.782 88.7704 256.539 88.9566 256.364 89.1935C256.191 89.4305 256.105 89.6998 256.105 90.0014C256.105 90.2538 256.165 90.4708 256.285 90.6523C256.408 90.8308 256.565 90.9801 256.756 91.1001C256.947 91.2171 257.147 91.314 257.356 91.391C257.565 91.4648 257.758 91.5249 257.933 91.571L258.893 91.8295C259.14 91.8942 259.414 91.9834 259.715 92.0973C260.02 92.2112 260.311 92.3666 260.588 92.5636C260.868 92.7575 261.099 93.0067 261.28 93.3114C261.462 93.6161 261.553 93.9901 261.553 94.4332C261.553 94.9441 261.419 95.4058 261.151 95.8182C260.886 96.2306 260.498 96.5584 259.988 96.8015C259.48 97.0446 258.863 97.1662 258.136 97.1662C257.459 97.1662 256.873 97.0569 256.377 96.8384C255.885 96.6199 255.497 96.3152 255.214 95.9244C254.934 95.5335 254.776 95.0795 254.739 94.5625H255.92C255.951 94.9195 256.071 95.215 256.281 95.4489C256.493 95.6797 256.761 95.852 257.084 95.9659C257.41 96.0767 257.761 96.1321 258.136 96.1321C258.573 96.1321 258.966 96.0613 259.314 95.9197C259.661 95.7751 259.937 95.575 260.14 95.3196C260.343 95.0611 260.445 94.7595 260.445 94.4148C260.445 94.1009 260.357 93.8454 260.181 93.6484C260.006 93.4515 259.775 93.2914 259.489 93.1683C259.203 93.0452 258.893 92.9375 258.561 92.8452L257.398 92.5128C256.659 92.3004 256.074 91.9973 255.643 91.6033C255.213 91.2094 254.997 90.6939 254.997 90.0568C254.997 89.5275 255.14 89.0658 255.426 88.6719C255.716 88.2749 256.104 87.9671 256.59 87.7486C257.079 87.527 257.625 87.4162 258.229 87.4162C258.838 87.4162 259.38 87.5254 259.854 87.744C260.328 87.9594 260.703 88.2549 260.98 88.6303C261.26 89.0058 261.408 89.4321 261.423 89.9091H260.315ZM266.26 97.1477C265.577 97.1477 264.988 96.9969 264.492 96.6953C264 96.3906 263.62 95.9659 263.352 95.4212C263.087 94.8733 262.955 94.2363 262.955 93.5099C262.955 92.7836 263.087 92.1435 263.352 91.5895C263.62 91.0324 263.992 90.5985 264.469 90.2876C264.949 89.9737 265.509 89.8168 266.149 89.8168C266.519 89.8168 266.883 89.8783 267.244 90.0014C267.604 90.1245 267.931 90.3246 268.227 90.6016C268.522 90.8755 268.758 91.2386 268.933 91.6911C269.109 92.1435 269.196 92.7005 269.196 93.3622V93.8239H263.73V92.8821H268.088C268.088 92.482 268.008 92.125 267.848 91.8111C267.691 91.4972 267.467 91.2494 267.174 91.0678C266.885 90.8862 266.543 90.7955 266.149 90.7955C265.715 90.7955 265.34 90.9032 265.023 91.1186C264.709 91.331 264.467 91.608 264.298 91.9496C264.129 92.2912 264.044 92.6574 264.044 93.0483V93.6761C264.044 94.2116 264.137 94.6656 264.321 95.038C264.509 95.4073 264.769 95.6889 265.101 95.8828C265.434 96.0736 265.82 96.169 266.26 96.169C266.546 96.169 266.805 96.129 267.036 96.049C267.27 95.9659 267.471 95.8428 267.641 95.6797C267.81 95.5135 267.941 95.3073 268.033 95.0611L269.085 95.3565C268.975 95.7135 268.789 96.0275 268.527 96.2983C268.265 96.5661 267.942 96.7753 267.557 96.9261C267.173 97.0739 266.74 97.1477 266.26 97.1477ZM271.943 87.5455V97H270.854V87.5455H271.943ZM276.912 97.1477C276.228 97.1477 275.639 96.9969 275.143 96.6953C274.651 96.3906 274.271 95.9659 274.003 95.4212C273.739 94.8733 273.606 94.2363 273.606 93.5099C273.606 92.7836 273.739 92.1435 274.003 91.5895C274.271 91.0324 274.643 90.5985 275.12 90.2876C275.6 89.9737 276.161 89.8168 276.801 89.8168C277.17 89.8168 277.535 89.8783 277.895 90.0014C278.255 90.1245 278.583 90.3246 278.878 90.6016C279.174 90.8755 279.409 91.2386 279.585 91.6911C279.76 92.1435 279.848 92.7005 279.848 93.3622V93.8239H274.382V92.8821H278.74C278.74 92.482 278.66 92.125 278.5 91.8111C278.343 91.4972 278.118 91.2494 277.826 91.0678C277.536 90.8862 277.195 90.7955 276.801 90.7955C276.367 90.7955 275.991 90.9032 275.674 91.1186C275.36 91.331 275.119 91.608 274.95 91.9496C274.78 92.2912 274.696 92.6574 274.696 93.0483V93.6761C274.696 94.2116 274.788 94.6656 274.973 95.038C275.16 95.4073 275.42 95.6889 275.753 95.8828C276.085 96.0736 276.471 96.169 276.912 96.169C277.198 96.169 277.456 96.129 277.687 96.049C277.921 95.9659 278.123 95.8428 278.292 95.6797C278.461 95.5135 278.592 95.3073 278.684 95.0611L279.737 95.3565C279.626 95.7135 279.44 96.0275 279.178 96.2983C278.917 96.5661 278.594 96.7753 278.209 96.9261C277.824 97.0739 277.392 97.1477 276.912 97.1477ZM284.386 97.1477C283.721 97.1477 283.148 96.9908 282.668 96.6768C282.188 96.3629 281.819 95.9305 281.56 95.3796C281.302 94.8287 281.173 94.1993 281.173 93.4915C281.173 92.7713 281.305 92.1358 281.57 91.5849C281.837 91.0309 282.21 90.5985 282.687 90.2876C283.167 89.9737 283.727 89.8168 284.367 89.8168C284.866 89.8168 285.315 89.9091 285.715 90.0938C286.115 90.2784 286.443 90.5369 286.699 90.8693C286.954 91.2017 287.112 91.5895 287.174 92.0327H286.085C286.001 91.7095 285.817 91.4233 285.531 91.174C285.247 90.9216 284.866 90.7955 284.386 90.7955C283.961 90.7955 283.589 90.9062 283.268 91.1278C282.951 91.3464 282.704 91.6557 282.525 92.0558C282.35 92.4528 282.262 92.919 282.262 93.4545C282.262 94.0024 282.348 94.4794 282.521 94.8857C282.696 95.2919 282.942 95.6074 283.259 95.832C283.579 96.0567 283.955 96.169 284.386 96.169C284.669 96.169 284.926 96.1198 285.157 96.0213C285.387 95.9228 285.583 95.7812 285.743 95.5966C285.903 95.4119 286.017 95.1903 286.085 94.9318H287.174C287.112 95.3504 286.96 95.7274 286.717 96.0629C286.477 96.3952 286.158 96.6599 285.761 96.8569C285.367 97.0508 284.909 97.1477 284.386 97.1477ZM291.85 89.9091V90.8324H288.176V89.9091H291.85ZM289.247 88.2102H290.336V94.9688C290.336 95.2765 290.381 95.5073 290.47 95.6612C290.563 95.812 290.679 95.9136 290.821 95.9659C290.966 96.0152 291.118 96.0398 291.278 96.0398C291.398 96.0398 291.497 96.0336 291.574 96.0213C291.65 96.0059 291.712 95.9936 291.758 95.9844L291.98 96.9631C291.906 96.9908 291.803 97.0185 291.67 97.0462C291.538 97.0769 291.37 97.0923 291.167 97.0923C290.859 97.0923 290.558 97.0262 290.262 96.8938C289.97 96.7615 289.727 96.5599 289.533 96.2891C289.342 96.0182 289.247 95.6766 289.247 95.2642V88.2102ZM300.229 89.9091V90.8324H296.555V89.9091H300.229ZM297.626 88.2102H298.715V94.9688C298.715 95.2765 298.76 95.5073 298.849 95.6612C298.941 95.812 299.058 95.9136 299.2 95.9659C299.345 96.0152 299.497 96.0398 299.657 96.0398C299.777 96.0398 299.875 96.0336 299.952 96.0213C300.029 96.0059 300.091 95.9936 300.137 95.9844L300.359 96.9631C300.285 96.9908 300.182 97.0185 300.049 97.0462C299.917 97.0769 299.749 97.0923 299.546 97.0923C299.238 97.0923 298.937 97.0262 298.641 96.8938C298.349 96.7615 298.106 96.5599 297.912 96.2891C297.721 96.0182 297.626 95.6766 297.626 95.2642V88.2102ZM304.765 97.1477C304.082 97.1477 303.492 96.9969 302.997 96.6953C302.505 96.3906 302.124 95.9659 301.857 95.4212C301.592 94.8733 301.46 94.2363 301.46 93.5099C301.46 92.7836 301.592 92.1435 301.857 91.5895C302.124 91.0324 302.497 90.5985 302.974 90.2876C303.454 89.9737 304.014 89.8168 304.654 89.8168C305.024 89.8168 305.388 89.8783 305.748 90.0014C306.108 90.1245 306.436 90.3246 306.732 90.6016C307.027 90.8755 307.263 91.2386 307.438 91.6911C307.613 92.1435 307.701 92.7005 307.701 93.3622V93.8239H302.235V92.8821H306.593C306.593 92.482 306.513 92.125 306.353 91.8111C306.196 91.4972 305.972 91.2494 305.679 91.0678C305.39 90.8862 305.048 90.7955 304.654 90.7955C304.22 90.7955 303.845 90.9032 303.528 91.1186C303.214 91.331 302.972 91.608 302.803 91.9496C302.634 92.2912 302.549 92.6574 302.549 93.0483V93.6761C302.549 94.2116 302.642 94.6656 302.826 95.038C303.014 95.4073 303.274 95.6889 303.606 95.8828C303.939 96.0736 304.325 96.169 304.765 96.169C305.051 96.169 305.31 96.129 305.541 96.049C305.775 95.9659 305.976 95.8428 306.145 95.6797C306.315 95.5135 306.445 95.3073 306.538 95.0611L307.59 95.3565C307.48 95.7135 307.293 96.0275 307.032 96.2983C306.77 96.5661 306.447 96.7753 306.062 96.9261C305.678 97.0739 305.245 97.1477 304.765 97.1477ZM311.445 97.1662C310.996 97.1662 310.588 97.0816 310.222 96.9123C309.856 96.7399 309.565 96.4922 309.349 96.169C309.134 95.8428 309.026 95.4489 309.026 94.9872C309.026 94.581 309.106 94.2517 309.266 93.9993C309.426 93.7438 309.64 93.5438 309.908 93.3991C310.176 93.2545 310.471 93.1468 310.794 93.076C311.12 93.0021 311.448 92.9437 311.778 92.9006C312.208 92.8452 312.558 92.8036 312.825 92.7759C313.096 92.7451 313.293 92.6944 313.416 92.6236C313.543 92.5528 313.606 92.4297 313.606 92.2543V92.2173C313.606 91.7618 313.481 91.4079 313.232 91.1555C312.985 90.9032 312.612 90.777 312.11 90.777C311.59 90.777 311.182 90.8909 310.887 91.1186C310.591 91.3464 310.383 91.5895 310.263 91.848L309.229 91.4787C309.414 91.0478 309.66 90.7124 309.968 90.4723C310.279 90.2292 310.617 90.0599 310.983 89.9645C311.353 89.866 311.716 89.8168 312.073 89.8168C312.301 89.8168 312.562 89.8445 312.858 89.8999C313.156 89.9522 313.444 90.0614 313.721 90.2276C314.001 90.3938 314.233 90.6446 314.418 90.9801C314.603 91.3156 314.695 91.7649 314.695 92.3281V97H313.606V96.0398H313.55C313.476 96.1937 313.353 96.3583 313.181 96.5337C313.009 96.7092 312.779 96.8584 312.493 96.9815C312.207 97.1046 311.858 97.1662 311.445 97.1662ZM311.611 96.1875C312.042 96.1875 312.405 96.1029 312.701 95.9336C312.999 95.7643 313.224 95.5458 313.375 95.2781C313.529 95.0103 313.606 94.7287 313.606 94.4332V93.4361C313.559 93.4915 313.458 93.5423 313.301 93.5884C313.147 93.6315 312.969 93.67 312.765 93.7038C312.565 93.7346 312.37 93.7623 312.179 93.7869C311.991 93.8085 311.839 93.8269 311.722 93.8423C311.439 93.8793 311.174 93.9393 310.928 94.0224C310.685 94.1024 310.488 94.224 310.337 94.3871C310.189 94.5471 310.116 94.7656 310.116 95.0426C310.116 95.4212 310.256 95.7074 310.536 95.9013C310.819 96.0921 311.177 96.1875 311.611 96.1875ZM316.684 97V89.9091H317.736V91.017H317.829C317.976 90.6385 318.215 90.3446 318.544 90.1353C318.873 89.9229 319.269 89.8168 319.731 89.8168C320.198 89.8168 320.588 89.9229 320.899 90.1353C321.212 90.3446 321.457 90.6385 321.633 91.017H321.706C321.888 90.6508 322.16 90.36 322.524 90.1445C322.887 89.926 323.322 89.8168 323.83 89.8168C324.464 89.8168 324.983 90.0153 325.386 90.4123C325.789 90.8062 325.991 91.4202 325.991 92.2543V97H324.901V92.2543C324.901 91.7311 324.758 91.3571 324.472 91.1325C324.185 90.9078 323.848 90.7955 323.461 90.7955C322.962 90.7955 322.576 90.9463 322.302 91.2479C322.028 91.5464 321.891 91.925 321.891 92.3835V97H320.783V92.1435C320.783 91.7403 320.652 91.4156 320.391 91.1694C320.129 90.9201 319.792 90.7955 319.38 90.7955C319.097 90.7955 318.832 90.8709 318.586 91.0217C318.343 91.1725 318.146 91.3817 317.995 91.6495C317.847 91.9142 317.773 92.2204 317.773 92.5682V97H316.684ZM331.639 97V89.9091H332.691V91.017H332.784C332.931 90.6385 333.17 90.3446 333.499 90.1353C333.829 89.9229 334.224 89.8168 334.686 89.8168C335.153 89.8168 335.543 89.9229 335.854 90.1353C336.168 90.3446 336.412 90.6385 336.588 91.017H336.661C336.843 90.6508 337.115 90.36 337.479 90.1445C337.842 89.926 338.277 89.8168 338.785 89.8168C339.419 89.8168 339.938 90.0153 340.341 90.4123C340.744 90.8062 340.946 91.4202 340.946 92.2543V97H339.856V92.2543C339.856 91.7311 339.713 91.3571 339.427 91.1325C339.141 90.9078 338.804 90.7955 338.416 90.7955C337.917 90.7955 337.531 90.9463 337.257 91.2479C336.983 91.5464 336.846 91.925 336.846 92.3835V97H335.738V92.1435C335.738 91.7403 335.607 91.4156 335.346 91.1694C335.084 90.9201 334.747 90.7955 334.335 90.7955C334.052 90.7955 333.787 90.8709 333.541 91.0217C333.298 91.1725 333.101 91.3817 332.95 91.6495C332.802 91.9142 332.728 92.2204 332.728 92.5682V97H331.639ZM345.911 97.1477C345.227 97.1477 344.638 96.9969 344.142 96.6953C343.65 96.3906 343.27 95.9659 343.002 95.4212C342.738 94.8733 342.605 94.2363 342.605 93.5099C342.605 92.7836 342.738 92.1435 343.002 91.5895C343.27 91.0324 343.642 90.5985 344.119 90.2876C344.6 89.9737 345.16 89.8168 345.8 89.8168C346.169 89.8168 346.534 89.8783 346.894 90.0014C347.254 90.1245 347.582 90.3246 347.877 90.6016C348.173 90.8755 348.408 91.2386 348.584 91.6911C348.759 92.1435 348.847 92.7005 348.847 93.3622V93.8239H343.381V92.8821H347.739C347.739 92.482 347.659 92.125 347.499 91.8111C347.342 91.4972 347.117 91.2494 346.825 91.0678C346.535 90.8862 346.194 90.7955 345.8 90.7955C345.366 90.7955 344.99 90.9032 344.673 91.1186C344.359 91.331 344.118 91.608 343.949 91.9496C343.779 92.2912 343.695 92.6574 343.695 93.0483V93.6761C343.695 94.2116 343.787 94.6656 343.972 95.038C344.159 95.4073 344.419 95.6889 344.752 95.8828C345.084 96.0736 345.47 96.169 345.911 96.169C346.197 96.169 346.455 96.129 346.686 96.049C346.92 95.9659 347.122 95.8428 347.291 95.6797C347.46 95.5135 347.591 95.3073 347.683 95.0611L348.736 95.3565C348.625 95.7135 348.439 96.0275 348.177 96.2983C347.916 96.5661 347.593 96.7753 347.208 96.9261C346.823 97.0739 346.391 97.1477 345.911 97.1477ZM350.504 97V89.9091H351.557V91.017H351.649C351.797 90.6385 352.035 90.3446 352.364 90.1353C352.694 89.9229 353.089 89.8168 353.551 89.8168C354.019 89.8168 354.408 89.9229 354.719 90.1353C355.033 90.3446 355.277 90.6385 355.453 91.017H355.527C355.708 90.6508 355.981 90.36 356.344 90.1445C356.707 89.926 357.142 89.8168 357.65 89.8168C358.284 89.8168 358.803 90.0153 359.206 90.4123C359.609 90.8062 359.811 91.4202 359.811 92.2543V97H358.721V92.2543C358.721 91.7311 358.578 91.3571 358.292 91.1325C358.006 90.9078 357.669 90.7955 357.281 90.7955C356.782 90.7955 356.396 90.9463 356.122 91.2479C355.848 91.5464 355.711 91.925 355.711 92.3835V97H354.603V92.1435C354.603 91.7403 354.473 91.4156 354.211 91.1694C353.949 90.9201 353.612 90.7955 353.2 90.7955C352.917 90.7955 352.652 90.8709 352.406 91.0217C352.163 91.1725 351.966 91.3817 351.815 91.6495C351.667 91.9142 351.593 92.2204 351.593 92.5682V97H350.504ZM361.951 97V87.5455H363.04V91.0355H363.132C363.212 90.9124 363.323 90.7554 363.465 90.5646C363.609 90.3707 363.816 90.1984 364.083 90.0476C364.354 89.8937 364.72 89.8168 365.182 89.8168C365.779 89.8168 366.305 89.966 366.761 90.2646C367.216 90.5631 367.572 90.9863 367.827 91.5341C368.083 92.0819 368.21 92.7282 368.21 93.473C368.21 94.224 368.083 94.8749 367.827 95.4258C367.572 95.9736 367.218 96.3983 366.766 96.6999C366.313 96.9985 365.791 97.1477 365.201 97.1477C364.745 97.1477 364.38 97.0723 364.106 96.9215C363.833 96.7676 363.622 96.5937 363.474 96.3999C363.326 96.2029 363.212 96.0398 363.132 95.9105H363.003V97H361.951ZM363.022 93.4545C363.022 93.9901 363.1 94.4625 363.257 94.8718C363.414 95.2781 363.643 95.5966 363.945 95.8274C364.246 96.0552 364.616 96.169 365.053 96.169C365.508 96.169 365.888 96.049 366.193 95.8089C366.501 95.5658 366.732 95.2396 366.886 94.8303C367.043 94.4179 367.121 93.9593 367.121 93.4545C367.121 92.956 367.044 92.5066 366.89 92.1065C366.739 91.7034 366.51 91.3848 366.202 91.1509C365.898 90.9139 365.514 90.7955 365.053 90.7955C364.61 90.7955 364.237 90.9078 363.936 91.1325C363.634 91.354 363.406 91.6649 363.252 92.065C363.099 92.462 363.022 92.9252 363.022 93.4545ZM372.85 97.1477C372.167 97.1477 371.577 96.9969 371.082 96.6953C370.59 96.3906 370.209 95.9659 369.942 95.4212C369.677 94.8733 369.545 94.2363 369.545 93.5099C369.545 92.7836 369.677 92.1435 369.942 91.5895C370.209 91.0324 370.582 90.5985 371.059 90.2876C371.539 89.9737 372.099 89.8168 372.739 89.8168C373.109 89.8168 373.473 89.8783 373.833 90.0014C374.193 90.1245 374.521 90.3246 374.817 90.6016C375.112 90.8755 375.348 91.2386 375.523 91.6911C375.698 92.1435 375.786 92.7005 375.786 93.3622V93.8239H370.32V92.8821H374.678C374.678 92.482 374.598 92.125 374.438 91.8111C374.281 91.4972 374.056 91.2494 373.764 91.0678C373.475 90.8862 373.133 90.7955 372.739 90.7955C372.305 90.7955 371.93 90.9032 371.613 91.1186C371.299 91.331 371.057 91.608 370.888 91.9496C370.719 92.2912 370.634 92.6574 370.634 93.0483V93.6761C370.634 94.2116 370.726 94.6656 370.911 95.038C371.099 95.4073 371.359 95.6889 371.691 95.8828C372.024 96.0736 372.41 96.169 372.85 96.169C373.136 96.169 373.395 96.129 373.626 96.049C373.86 95.9659 374.061 95.8428 374.23 95.6797C374.4 95.5135 374.53 95.3073 374.623 95.0611L375.675 95.3565C375.565 95.7135 375.378 96.0275 375.117 96.2983C374.855 96.5661 374.532 96.7753 374.147 96.9261C373.763 97.0739 373.33 97.1477 372.85 97.1477ZM377.443 97V89.9091H378.496V90.9801H378.57C378.699 90.6293 378.933 90.3446 379.272 90.1261C379.61 89.9076 379.992 89.7983 380.416 89.7983C380.496 89.7983 380.597 89.7998 380.717 89.8029C380.837 89.806 380.927 89.8106 380.989 89.8168V90.9247C380.952 90.9155 380.867 90.9016 380.735 90.8832C380.606 90.8616 380.469 90.8509 380.324 90.8509C379.979 90.8509 379.672 90.9232 379.401 91.0678C379.133 91.2094 378.921 91.4064 378.764 91.6587C378.61 91.908 378.533 92.1927 378.533 92.5128V97H377.443Z" fill="#B8BFC7"/>
<path d="M535 89.5L540 94.5L545 89.5" stroke="#9E9E9E" stroke-width="1.5" stroke-linecap="round" stroke-linejoin="round"/>
<rect x="242.5" y="74.5" width="319" height="35" rx="2.5" stroke="#D8DEE9"/>
<g clip-path="url(#clip1_932_40116)">
<rect x="194" y="92" width="48" height="1" fill="#C54600"/>
<g clip-path="url(#clip2_932_40116)">
<rect x="194" y="80" width="24" height="24" rx="12" fill="#C54600"/>
<path d="M207.183 87.2727V96H206.126V88.3807H206.075L203.944 89.7955V88.7216L206.126 87.2727H207.183Z" fill="white"/>
</g>
</g>
<g clip-path="url(#clip3_932_40116)">
<rect x="349" y="44" width="1" height="48" fill="#C54600"/>
<g clip-path="url(#clip4_932_40116)">
<rect x="337" y="44" width="24" height="24" rx="12" fill="#C54600"/>
<path d="M346.271 60V59.233L349.151 56.0795C349.489 55.7102 349.768 55.3892 349.987 55.1165C350.205 54.8409 350.367 54.5824 350.472 54.3409C350.58 54.0966 350.634 53.8409 350.634 53.5739C350.634 53.267 350.56 53.0014 350.413 52.777C350.268 52.5526 350.069 52.3793 349.816 52.2571C349.563 52.1349 349.279 52.0739 348.964 52.0739C348.629 52.0739 348.336 52.1435 348.086 52.2827C347.839 52.419 347.647 52.6108 347.511 52.858C347.377 53.1051 347.31 53.3949 347.31 53.7273H346.305C346.305 53.2159 346.423 52.767 346.658 52.3807C346.894 51.9943 347.215 51.6932 347.621 51.4773C348.031 51.2614 348.489 51.1534 348.998 51.1534C349.509 51.1534 349.962 51.2614 350.357 51.4773C350.752 51.6932 351.062 51.9844 351.286 52.3509C351.511 52.7173 351.623 53.125 351.623 53.5739C351.623 53.8949 351.565 54.2088 351.448 54.5156C351.335 54.8196 351.136 55.1591 350.852 55.5341C350.57 55.9062 350.18 56.3608 349.68 56.8977L347.719 58.9943V59.0625H351.776V60H346.271Z" fill="white"/>
</g>
</g>
<g clip-path="url(#clip5_932_40116)">
<rect x="545" y="93" width="1" height="60.8338" transform="rotate(-90 545 93)" fill="#C54600"/>
<g clip-path="url(#clip6_932_40116)">
<rect x="581.836" y="81" width="24" height="24" rx="12" fill="#C54600"/>
<path d="M593.868 97.1193C593.305 97.1193 592.804 97.0227 592.364 96.8295C591.926 96.6364 591.578 96.3679 591.32 96.0241C591.064 95.6776 590.925 95.2756 590.902 94.8182H591.976C591.999 95.0994 592.095 95.3423 592.266 95.5469C592.436 95.7486 592.659 95.9048 592.935 96.0156C593.21 96.1264 593.516 96.1818 593.851 96.1818C594.226 96.1818 594.558 96.1165 594.848 95.9858C595.138 95.8551 595.365 95.6733 595.53 95.4403C595.695 95.2074 595.777 94.9375 595.777 94.6307C595.777 94.3097 595.697 94.027 595.538 93.7827C595.379 93.5355 595.146 93.3423 594.839 93.2031C594.533 93.0639 594.158 92.9943 593.714 92.9943H593.016V92.0568H593.714C594.061 92.0568 594.365 91.9943 594.626 91.8693C594.891 91.7443 595.097 91.5682 595.244 91.3409C595.395 91.1136 595.47 90.8466 595.47 90.5398C595.47 90.2443 595.405 89.9872 595.274 89.7685C595.143 89.5497 594.959 89.3793 594.72 89.2571C594.484 89.1349 594.206 89.0739 593.885 89.0739C593.584 89.0739 593.3 89.1293 593.033 89.2401C592.768 89.348 592.553 89.5057 592.385 89.7131C592.217 89.9176 592.126 90.1648 592.112 90.4545H591.089C591.107 89.9972 591.244 89.5966 591.503 89.2528C591.761 88.9062 592.099 88.6364 592.517 88.4432C592.938 88.25 593.399 88.1534 593.902 88.1534C594.442 88.1534 594.905 88.2628 595.291 88.4815C595.678 88.6974 595.974 88.983 596.182 89.3381C596.389 89.6932 596.493 90.0767 596.493 90.4886C596.493 90.9801 596.364 91.3991 596.105 91.7457C595.849 92.0923 595.501 92.3324 595.061 92.4659V92.5341C595.612 92.625 596.043 92.8594 596.352 93.2372C596.662 93.6122 596.817 94.0767 596.817 94.6307C596.817 95.1051 596.688 95.5312 596.429 95.9091C596.173 96.2841 595.824 96.5795 595.381 96.7955C594.938 97.0114 594.433 97.1193 593.868 97.1193Z" fill="white"/>
</g>
</g>
<g clip-path="url(#clip7_932_40116)">
<rect x="199" y="150" width="1" height="56" transform="rotate(-90 199 150)" fill="#C54600"/>
<g clip-path="url(#clip8_932_40116)">
<rect x="199" y="138" width="24" height="24" rx="12" fill="#C54600"/>
<path d="M207.849 152.21V151.341L211.684 145.273H212.315V146.619H211.889L208.991 151.205V151.273H214.156V152.21H207.849ZM211.957 154V151.946V151.541V145.273H212.963V154H211.957Z" fill="white"/>
</g>
</g>
<g clip-path="url(#clip9_932_40116)">
<rect x="186" y="193" width="1" height="56" transform="rotate(-90 186 193)" fill="#C54600"/>
<g clip-path="url(#clip10_932_40116)">
<rect x="186" y="181" width="24" height="24" rx="12" fill="#C54600"/>
<path d="M197.98 197.119C197.48 197.119 197.03 197.02 196.629 196.821C196.229 196.622 195.908 196.349 195.666 196.003C195.425 195.656 195.293 195.261 195.27 194.818H196.293C196.333 195.213 196.512 195.54 196.83 195.798C197.151 196.054 197.534 196.182 197.98 196.182C198.338 196.182 198.656 196.098 198.935 195.93C199.216 195.763 199.436 195.533 199.595 195.24C199.757 194.945 199.838 194.611 199.838 194.239C199.838 193.858 199.754 193.518 199.587 193.22C199.422 192.919 199.195 192.682 198.905 192.509C198.615 192.335 198.284 192.247 197.912 192.244C197.645 192.241 197.371 192.283 197.09 192.368C196.808 192.45 196.577 192.557 196.395 192.688L195.406 192.568L195.935 188.273H200.469V189.21H196.821L196.514 191.784H196.566C196.744 191.642 196.969 191.524 197.239 191.43C197.509 191.337 197.79 191.29 198.083 191.29C198.617 191.29 199.093 191.418 199.51 191.673C199.931 191.926 200.26 192.273 200.499 192.713C200.74 193.153 200.861 193.656 200.861 194.222C200.861 194.778 200.736 195.276 200.486 195.713C200.239 196.148 199.898 196.491 199.463 196.744C199.029 196.994 198.534 197.119 197.98 197.119Z" fill="white"/>
</g>
</g>
<defs>
<filter id="filter0_dd_932_40116" x="231" y="128" width="344" height="186" filterUnits="userSpaceOnUse" color-interpolation-filters="sRGB">
<feFlood flood-opacity="0" result="BackgroundImageFix"/>
<feColorMatrix in="SourceAlpha" type="matrix" values="0 0 0 0 0 0 0 0 0 0 0 0 0 0 0 0 0 0 127 0" result="hardAlpha"/>
<feMorphology radius="2" operator="erode" in="SourceAlpha" result="effect1_dropShadow_932_40116"/>
<feOffset dy="4"/>
<feGaussianBlur stdDeviation="3"/>
<feColorMatrix type="matrix" values="0 0 0 0 0.0627451 0 0 0 0 0.0941176 0 0 0 0 0.156863 0 0 0 0.03 0"/>
<feBlend mode="normal" in2="BackgroundImageFix" result="effect1_dropShadow_932_40116"/>
<feColorMatrix in="SourceAlpha" type="matrix" values="0 0 0 0 0 0 0 0 0 0 0 0 0 0 0 0 0 0 127 0" result="hardAlpha"/>
<feMorphology radius="4" operator="erode" in="SourceAlpha" result="effect2_dropShadow_932_40116"/>
<feOffset dy="12"/>
<feGaussianBlur stdDeviation="8"/>
<feColorMatrix type="matrix" values="0 0 0 0 0.0627451 0 0 0 0 0.0941176 0 0 0 0 0.156863 0 0 0 0.08 0"/>
<feBlend mode="normal" in2="effect1_dropShadow_932_40116" result="effect2_dropShadow_932_40116"/>
<feBlend mode="normal" in="SourceGraphic" in2="effect2_dropShadow_932_40116" result="shape"/>
</filter>
<clipPath id="clip0_932_40116">
<rect x="243" y="128" width="320" height="162" rx="3" fill="white"/>
</clipPath>
<clipPath id="clip1_932_40116">
<rect width="48" height="24" fill="white" transform="translate(194 80)"/>
</clipPath>
<clipPath id="clip2_932_40116">
<rect x="194" y="80" width="24" height="24" rx="12" fill="white"/>
</clipPath>
<clipPath id="clip3_932_40116">
<rect width="24" height="48" fill="white" transform="translate(337 44)"/>
</clipPath>
<clipPath id="clip4_932_40116">
<rect x="337" y="44" width="24" height="24" rx="12" fill="white"/>
</clipPath>
<clipPath id="clip5_932_40116">
<rect width="24" height="60.8338" fill="white" transform="translate(545 105) rotate(-90)"/>
</clipPath>
<clipPath id="clip6_932_40116">
<rect x="581.836" y="81" width="24" height="24" rx="12" fill="white"/>
</clipPath>
<clipPath id="clip7_932_40116">
<rect width="24" height="56" fill="white" transform="translate(199 162) rotate(-90)"/>
</clipPath>
<clipPath id="clip8_932_40116">
<rect x="199" y="138" width="24" height="24" rx="12" fill="white"/>
</clipPath>
<clipPath id="clip9_932_40116">
<rect width="24" height="56" fill="white" transform="translate(186 205) rotate(-90)"/>
</clipPath>
<clipPath id="clip10_932_40116">
<rect x="186" y="181" width="24" height="24" rx="12" fill="white"/>
</clipPath>
</defs>
</svg>
