<svg width="390" height="184" viewBox="0 0 390 184" fill="none" xmlns="http://www.w3.org/2000/svg">
<rect width="390" height="184" fill="#F9FAFB"/>
<g opacity="0.2">
<rect x="129.5" y="74.5" width="130" height="35" rx="2.5" fill="#217CF5"/>
<path d="M146.039 97V87.5455H149.501C150.172 87.5455 150.728 87.6562 151.168 87.8778C151.608 88.0964 151.937 88.3933 152.156 88.7688C152.374 89.1412 152.483 89.5613 152.483 90.0291C152.483 90.4231 152.411 90.7554 152.266 91.0263C152.122 91.294 151.928 91.5095 151.685 91.6726C151.445 91.8326 151.18 91.9496 150.891 92.0234V92.1158C151.205 92.1312 151.511 92.2327 151.809 92.4205C152.111 92.6051 152.36 92.8683 152.557 93.2099C152.754 93.5515 152.853 93.967 152.853 94.4563C152.853 94.9395 152.739 95.3735 152.511 95.7582C152.286 96.1398 151.939 96.4429 151.468 96.6676C150.997 96.8892 150.395 97 149.663 97H146.039ZM147.465 95.7766H149.524C150.207 95.7766 150.697 95.6443 150.992 95.3796C151.288 95.1149 151.435 94.7841 151.435 94.3871C151.435 94.0885 151.36 93.8146 151.209 93.5653C151.058 93.3161 150.843 93.1175 150.563 92.9698C150.286 92.8221 149.957 92.7482 149.575 92.7482H147.465V95.7766ZM147.465 91.6357H149.376C149.696 91.6357 149.984 91.5741 150.24 91.451C150.498 91.3279 150.703 91.1555 150.854 90.9339C151.008 90.7093 151.085 90.4446 151.085 90.1399C151.085 89.7491 150.948 89.4213 150.674 89.1566C150.4 88.8919 149.98 88.7596 149.413 88.7596H147.465V91.6357ZM158.926 94.0593V89.9091H160.311V97H158.953V95.772H158.879C158.716 96.1506 158.455 96.466 158.095 96.7184C157.738 96.9677 157.293 97.0923 156.76 97.0923C156.305 97.0923 155.902 96.9923 155.551 96.7923C155.203 96.5891 154.929 96.2891 154.729 95.892C154.532 95.495 154.434 95.0041 154.434 94.4194V89.9091H155.814V94.2532C155.814 94.7364 155.948 95.1211 156.216 95.4073C156.483 95.6935 156.831 95.8366 157.259 95.8366C157.518 95.8366 157.775 95.772 158.03 95.6428C158.289 95.5135 158.502 95.3181 158.672 95.0565C158.844 94.7949 158.929 94.4625 158.926 94.0593ZM165.475 89.9091V91.017H161.602V89.9091H165.475ZM162.641 88.2102H164.021V94.918C164.021 95.1857 164.061 95.3873 164.141 95.5227C164.221 95.6551 164.324 95.7459 164.45 95.7951C164.58 95.8413 164.72 95.8643 164.87 95.8643C164.981 95.8643 165.078 95.8567 165.161 95.8413C165.244 95.8259 165.309 95.8136 165.355 95.8043L165.604 96.9446C165.524 96.9754 165.411 97.0062 165.263 97.0369C165.115 97.0708 164.93 97.0893 164.709 97.0923C164.346 97.0985 164.007 97.0339 163.693 96.8984C163.379 96.763 163.125 96.5537 162.932 96.2706C162.738 95.9875 162.641 95.632 162.641 95.2042V88.2102ZM170.312 89.9091V91.017H166.439V89.9091H170.312ZM167.478 88.2102H168.858V94.918C168.858 95.1857 168.898 95.3873 168.978 95.5227C169.058 95.6551 169.161 95.7459 169.287 95.7951C169.417 95.8413 169.557 95.8643 169.707 95.8643C169.818 95.8643 169.915 95.8567 169.998 95.8413C170.081 95.8259 170.146 95.8136 170.192 95.8043L170.441 96.9446C170.361 96.9754 170.248 97.0062 170.1 97.0369C169.952 97.0708 169.767 97.0893 169.546 97.0923C169.183 97.0985 168.844 97.0339 168.53 96.8984C168.216 96.763 167.962 96.5537 167.768 96.2706C167.575 95.9875 167.478 95.632 167.478 95.2042V88.2102ZM174.75 97.1431C174.085 97.1431 173.505 96.9908 173.009 96.6861C172.514 96.3814 172.129 95.9551 171.855 95.4073C171.581 94.8595 171.444 94.2193 171.444 93.4869C171.444 92.7513 171.581 92.1081 171.855 91.5572C172.129 91.0063 172.514 90.5785 173.009 90.2738C173.505 89.9691 174.085 89.8168 174.75 89.8168C175.415 89.8168 175.995 89.9691 176.49 90.2738C176.986 90.5785 177.37 91.0063 177.644 91.5572C177.918 92.1081 178.055 92.7513 178.055 93.4869C178.055 94.2193 177.918 94.8595 177.644 95.4073C177.37 95.9551 176.986 96.3814 176.49 96.6861C175.995 96.9908 175.415 97.1431 174.75 97.1431ZM174.754 95.9844C175.185 95.9844 175.542 95.8705 175.825 95.6428C176.109 95.415 176.318 95.1119 176.453 94.7333C176.592 94.3548 176.661 93.9377 176.661 93.4822C176.661 93.0298 176.592 92.6143 176.453 92.2358C176.318 91.8542 176.109 91.5479 175.825 91.3171C175.542 91.0863 175.185 90.9709 174.754 90.9709C174.32 90.9709 173.96 91.0863 173.674 91.3171C173.391 91.5479 173.18 91.8542 173.042 92.2358C172.906 92.6143 172.839 93.0298 172.839 93.4822C172.839 93.9377 172.906 94.3548 173.042 94.7333C173.18 95.1119 173.391 95.415 173.674 95.6428C173.96 95.8705 174.32 95.9844 174.754 95.9844ZM180.976 92.7898V97H179.596V89.9091H180.921V91.0632H181.009C181.172 90.6877 181.427 90.3861 181.775 90.1584C182.126 89.9306 182.567 89.8168 183.1 89.8168C183.583 89.8168 184.006 89.9183 184.369 90.1214C184.732 90.3215 185.014 90.62 185.214 91.017C185.414 91.4141 185.514 91.9049 185.514 92.4897V97H184.134V92.6559C184.134 92.1419 184 91.7403 183.732 91.451C183.464 91.1586 183.097 91.0124 182.629 91.0124C182.309 91.0124 182.024 91.0817 181.775 91.2202C181.529 91.3587 181.333 91.5618 181.189 91.8295C181.047 92.0942 180.976 92.4143 180.976 92.7898ZM198.769 90.62H197.329C197.274 90.3123 197.17 90.0414 197.02 89.8075C196.869 89.5736 196.684 89.3751 196.466 89.212C196.247 89.0489 196.002 88.9258 195.732 88.8427C195.464 88.7596 195.179 88.718 194.878 88.718C194.333 88.718 193.845 88.855 193.414 89.1289C192.986 89.4028 192.648 89.8045 192.399 90.3338C192.152 90.8632 192.029 91.5095 192.029 92.2727C192.029 93.0421 192.152 93.6915 192.399 94.2209C192.648 94.7502 192.988 95.1503 193.419 95.4212C193.85 95.692 194.334 95.8274 194.873 95.8274C195.171 95.8274 195.455 95.7874 195.722 95.7074C195.993 95.6243 196.238 95.5027 196.456 95.3427C196.675 95.1826 196.86 94.9872 197.01 94.7564C197.164 94.5225 197.27 94.2547 197.329 93.9531L198.769 93.9577C198.692 94.4225 198.543 94.8503 198.321 95.2411C198.103 95.6289 197.821 95.9644 197.477 96.2475C197.135 96.5276 196.744 96.7446 196.304 96.8984C195.864 97.0523 195.384 97.1293 194.864 97.1293C194.045 97.1293 193.316 96.9354 192.676 96.5476C192.035 96.1567 191.531 95.5981 191.161 94.8718C190.795 94.1455 190.612 93.2791 190.612 92.2727C190.612 91.2633 190.797 90.3969 191.166 89.6737C191.535 88.9473 192.04 88.3903 192.68 88.0025C193.32 87.6116 194.048 87.4162 194.864 87.4162C195.365 87.4162 195.833 87.4885 196.267 87.6332C196.704 87.7747 197.097 87.984 197.444 88.261C197.792 88.5349 198.08 88.8704 198.308 89.2674C198.535 89.6613 198.689 90.1122 198.769 90.62ZM200.01 88.7734V87.5455H207.327V88.7734H204.377V97H202.955V88.7734H200.01ZM208.625 97H207.111L210.514 87.5455H212.162L215.564 97H214.05L211.377 89.2628H211.303L208.625 97ZM208.879 93.2976H213.791V94.4979H208.879V93.2976Z" fill="white"/>
<g clip-path="url(#clip0_434_47434)">
<path d="M234.001 100.333C238.604 100.333 242.335 96.6017 242.335 91.9993C242.335 87.397 238.604 83.666 234.001 83.666C229.399 83.666 225.668 87.397 225.668 91.9993C225.668 96.6017 229.399 100.333 234.001 100.333Z" stroke="white" stroke-width="2" stroke-linecap="round" stroke-linejoin="round"/>
</g>
<rect x="129.5" y="74.5" width="130" height="35" rx="2.5" stroke="#217CF5"/>
</g>
<g opacity="0.2">
<rect x="129.5" y="74.5" width="130" height="35" rx="2.5" fill="#217CF5"/>
<path d="M146.039 97V87.5455H149.501C150.172 87.5455 150.728 87.6562 151.168 87.8778C151.608 88.0964 151.937 88.3933 152.156 88.7688C152.374 89.1412 152.483 89.5613 152.483 90.0291C152.483 90.4231 152.411 90.7554 152.266 91.0263C152.122 91.294 151.928 91.5095 151.685 91.6726C151.445 91.8326 151.18 91.9496 150.891 92.0234V92.1158C151.205 92.1312 151.511 92.2327 151.809 92.4205C152.111 92.6051 152.36 92.8683 152.557 93.2099C152.754 93.5515 152.853 93.967 152.853 94.4563C152.853 94.9395 152.739 95.3735 152.511 95.7582C152.286 96.1398 151.939 96.4429 151.468 96.6676C150.997 96.8892 150.395 97 149.663 97H146.039ZM147.465 95.7766H149.524C150.207 95.7766 150.697 95.6443 150.992 95.3796C151.288 95.1149 151.435 94.7841 151.435 94.3871C151.435 94.0885 151.36 93.8146 151.209 93.5653C151.058 93.3161 150.843 93.1175 150.563 92.9698C150.286 92.8221 149.957 92.7482 149.575 92.7482H147.465V95.7766ZM147.465 91.6357H149.376C149.696 91.6357 149.984 91.5741 150.24 91.451C150.498 91.3279 150.703 91.1555 150.854 90.9339C151.008 90.7093 151.085 90.4446 151.085 90.1399C151.085 89.7491 150.948 89.4213 150.674 89.1566C150.4 88.8919 149.98 88.7596 149.413 88.7596H147.465V91.6357ZM158.926 94.0593V89.9091H160.311V97H158.953V95.772H158.879C158.716 96.1506 158.455 96.466 158.095 96.7184C157.738 96.9677 157.293 97.0923 156.76 97.0923C156.305 97.0923 155.902 96.9923 155.551 96.7923C155.203 96.5891 154.929 96.2891 154.729 95.892C154.532 95.495 154.434 95.0041 154.434 94.4194V89.9091H155.814V94.2532C155.814 94.7364 155.948 95.1211 156.216 95.4073C156.483 95.6935 156.831 95.8366 157.259 95.8366C157.518 95.8366 157.775 95.772 158.03 95.6428C158.289 95.5135 158.502 95.3181 158.672 95.0565C158.844 94.7949 158.929 94.4625 158.926 94.0593ZM165.475 89.9091V91.017H161.602V89.9091H165.475ZM162.641 88.2102H164.021V94.918C164.021 95.1857 164.061 95.3873 164.141 95.5227C164.221 95.6551 164.324 95.7459 164.45 95.7951C164.58 95.8413 164.72 95.8643 164.87 95.8643C164.981 95.8643 165.078 95.8567 165.161 95.8413C165.244 95.8259 165.309 95.8136 165.355 95.8043L165.604 96.9446C165.524 96.9754 165.411 97.0062 165.263 97.0369C165.115 97.0708 164.93 97.0893 164.709 97.0923C164.346 97.0985 164.007 97.0339 163.693 96.8984C163.379 96.763 163.125 96.5537 162.932 96.2706C162.738 95.9875 162.641 95.632 162.641 95.2042V88.2102ZM170.312 89.9091V91.017H166.439V89.9091H170.312ZM167.478 88.2102H168.858V94.918C168.858 95.1857 168.898 95.3873 168.978 95.5227C169.058 95.6551 169.161 95.7459 169.287 95.7951C169.417 95.8413 169.557 95.8643 169.707 95.8643C169.818 95.8643 169.915 95.8567 169.998 95.8413C170.081 95.8259 170.146 95.8136 170.192 95.8043L170.441 96.9446C170.361 96.9754 170.248 97.0062 170.1 97.0369C169.952 97.0708 169.767 97.0893 169.546 97.0923C169.183 97.0985 168.844 97.0339 168.53 96.8984C168.216 96.763 167.962 96.5537 167.768 96.2706C167.575 95.9875 167.478 95.632 167.478 95.2042V88.2102ZM174.75 97.1431C174.085 97.1431 173.505 96.9908 173.009 96.6861C172.514 96.3814 172.129 95.9551 171.855 95.4073C171.581 94.8595 171.444 94.2193 171.444 93.4869C171.444 92.7513 171.581 92.1081 171.855 91.5572C172.129 91.0063 172.514 90.5785 173.009 90.2738C173.505 89.9691 174.085 89.8168 174.75 89.8168C175.415 89.8168 175.995 89.9691 176.49 90.2738C176.986 90.5785 177.37 91.0063 177.644 91.5572C177.918 92.1081 178.055 92.7513 178.055 93.4869C178.055 94.2193 177.918 94.8595 177.644 95.4073C177.37 95.9551 176.986 96.3814 176.49 96.6861C175.995 96.9908 175.415 97.1431 174.75 97.1431ZM174.754 95.9844C175.185 95.9844 175.542 95.8705 175.825 95.6428C176.109 95.415 176.318 95.1119 176.453 94.7333C176.592 94.3548 176.661 93.9377 176.661 93.4822C176.661 93.0298 176.592 92.6143 176.453 92.2358C176.318 91.8542 176.109 91.5479 175.825 91.3171C175.542 91.0863 175.185 90.9709 174.754 90.9709C174.32 90.9709 173.96 91.0863 173.674 91.3171C173.391 91.5479 173.18 91.8542 173.042 92.2358C172.906 92.6143 172.839 93.0298 172.839 93.4822C172.839 93.9377 172.906 94.3548 173.042 94.7333C173.18 95.1119 173.391 95.415 173.674 95.6428C173.96 95.8705 174.32 95.9844 174.754 95.9844ZM180.976 92.7898V97H179.596V89.9091H180.921V91.0632H181.009C181.172 90.6877 181.427 90.3861 181.775 90.1584C182.126 89.9306 182.567 89.8168 183.1 89.8168C183.583 89.8168 184.006 89.9183 184.369 90.1214C184.732 90.3215 185.014 90.62 185.214 91.017C185.414 91.4141 185.514 91.9049 185.514 92.4897V97H184.134V92.6559C184.134 92.1419 184 91.7403 183.732 91.451C183.464 91.1586 183.097 91.0124 182.629 91.0124C182.309 91.0124 182.024 91.0817 181.775 91.2202C181.529 91.3587 181.333 91.5618 181.189 91.8295C181.047 92.0942 180.976 92.4143 180.976 92.7898ZM198.769 90.62H197.329C197.274 90.3123 197.17 90.0414 197.02 89.8075C196.869 89.5736 196.684 89.3751 196.466 89.212C196.247 89.0489 196.002 88.9258 195.732 88.8427C195.464 88.7596 195.179 88.718 194.878 88.718C194.333 88.718 193.845 88.855 193.414 89.1289C192.986 89.4028 192.648 89.8045 192.399 90.3338C192.152 90.8632 192.029 91.5095 192.029 92.2727C192.029 93.0421 192.152 93.6915 192.399 94.2209C192.648 94.7502 192.988 95.1503 193.419 95.4212C193.85 95.692 194.334 95.8274 194.873 95.8274C195.171 95.8274 195.455 95.7874 195.722 95.7074C195.993 95.6243 196.238 95.5027 196.456 95.3427C196.675 95.1826 196.86 94.9872 197.01 94.7564C197.164 94.5225 197.27 94.2547 197.329 93.9531L198.769 93.9577C198.692 94.4225 198.543 94.8503 198.321 95.2411C198.103 95.6289 197.821 95.9644 197.477 96.2475C197.135 96.5276 196.744 96.7446 196.304 96.8984C195.864 97.0523 195.384 97.1293 194.864 97.1293C194.045 97.1293 193.316 96.9354 192.676 96.5476C192.035 96.1567 191.531 95.5981 191.161 94.8718C190.795 94.1455 190.612 93.2791 190.612 92.2727C190.612 91.2633 190.797 90.3969 191.166 89.6737C191.535 88.9473 192.04 88.3903 192.68 88.0025C193.32 87.6116 194.048 87.4162 194.864 87.4162C195.365 87.4162 195.833 87.4885 196.267 87.6332C196.704 87.7747 197.097 87.984 197.444 88.261C197.792 88.5349 198.08 88.8704 198.308 89.2674C198.535 89.6613 198.689 90.1122 198.769 90.62ZM200.01 88.7734V87.5455H207.327V88.7734H204.377V97H202.955V88.7734H200.01ZM208.625 97H207.111L210.514 87.5455H212.162L215.564 97H214.05L211.377 89.2628H211.303L208.625 97ZM208.879 93.2976H213.791V94.4979H208.879V93.2976Z" fill="white"/>
<g clip-path="url(#clip1_434_47434)">
<path d="M234.001 100.333C238.604 100.333 242.335 96.6017 242.335 91.9993C242.335 87.397 238.604 83.666 234.001 83.666C229.399 83.666 225.668 87.397 225.668 91.9993C225.668 96.6017 229.399 100.333 234.001 100.333Z" stroke="white" stroke-width="2" stroke-linecap="round" stroke-linejoin="round"/>
</g>
<rect x="129.5" y="74.5" width="130" height="35" rx="2.5" stroke="#217CF5"/>
</g>
<rect x="128.5" y="73.5" width="132" height="37" stroke="#0D69D4"/>
<g clip-path="url(#clip2_434_47434)">
<mask maskUnits="userSpaceOnUse" x="0" y="0" width="0" height="0" fill="black">
<rect fill="white" width="0" height="0"/>
</mask>
<path d="M73.2929 25.2929C72.9024 25.6834 72.9024 26.3166 73.2929 26.7071L79.6569 33.0711C80.0474 33.4616 80.6805 33.4616 81.0711 33.0711C81.4616 32.6805 81.4616 32.0474 81.0711 31.6569L75.4142 26L81.0711 20.3431C81.4616 19.9526 81.4616 19.3195 81.0711 18.9289C80.6805 18.5384 80.0474 18.5384 79.6569 18.9289L73.2929 25.2929ZM104.707 26.7071C105.098 26.3166 105.098 25.6834 104.707 25.2929L98.3431 18.9289C97.9526 18.5384 97.3195 18.5384 96.9289 18.9289C96.5384 19.3195 96.5384 19.9526 96.9289 20.3431L102.586 26L96.9289 31.6569C96.5384 32.0474 96.5384 32.6805 96.9289 33.0711C97.3195 33.4616 97.9526 33.4616 98.3431 33.0711L104.707 26.7071ZM74 27H104V25H74V27Z" fill="#6B6B6B" mask="url(#)"/>
</g>
<path fill-rule="evenodd" clip-rule="evenodd" d="M73.0001 18L73 19L73.0001 23.024L73 24.024L73.0001 28.0185L73 29.0185L73.0001 33.014L73 34.014H74.0001H77.9891H78.9891H83.0113H84.0113H88H89V33.014V29.0185V28.0185V24.024V23.024V19V18H88H84.0113H83.0113H78.9891H77.9891H74.0001H73.0001ZM74.0001 19V23.024H77.9891V19H74.0001ZM74.0001 24.024V28.0185H77.9891V24.024H74.0001ZM74.0001 29.0185V33.014H77.9891V29.0185H74.0001ZM88 29.0185V33.014H84.0113V29.0185H88ZM88 24.024V28.0185H84.0113V24.024H88ZM88 19V23.024H84.0113V19H88ZM83.0113 19H78.9891V22.9915H83.0113V19ZM83.0113 29.0225H78.9891V33.014H83.0113V29.0225Z" fill="#6B6B6B"/>
<g clip-path="url(#clip3_434_47434)">
<g clip-path="url(#clip4_434_47434)">
<mask maskUnits="userSpaceOnUse" x="0" y="0" width="0" height="0" fill="black">
<rect fill="white" width="0" height="0"/>
</mask>
<path d="M82.2803 64.2197C81.9874 63.9268 81.5126 63.9268 81.2197 64.2197L76.4467 68.9926C76.1538 69.2855 76.1538 69.7604 76.4467 70.0533C76.7396 70.3462 77.2145 70.3462 77.5074 70.0533L81.75 65.8107L85.9926 70.0533C86.2855 70.3462 86.7604 70.3462 87.0533 70.0533C87.3462 69.7604 87.3462 69.2855 87.0533 68.9926L82.2803 64.2197ZM81.2197 91.2803C81.5126 91.5732 81.9874 91.5732 82.2803 91.2803L87.0533 86.5074C87.3462 86.2145 87.3462 85.7396 87.0533 85.4467C86.7604 85.1538 86.2855 85.1538 85.9926 85.4467L81.75 89.6893L77.5074 85.4467C77.2145 85.1538 76.7396 85.1538 76.4467 85.4467C76.1538 85.7396 76.1538 86.2145 76.4467 86.5074L81.2197 91.2803ZM81 64.75V90.75H82.5V64.75H81Z" fill="#0D69D4" mask="url(#)"/>
<mask maskUnits="userSpaceOnUse" x="0" y="0" width="0" height="0" fill="black">
<rect fill="white" width="0" height="0"/>
</mask>
<path d="M82.2803 92.7197C81.9874 92.4268 81.5126 92.4268 81.2197 92.7197L76.4467 97.4926C76.1538 97.7855 76.1538 98.2604 76.4467 98.5533C76.7396 98.8462 77.2145 98.8462 77.5074 98.5533L81.75 94.3107L85.9926 98.5533C86.2855 98.8462 86.7604 98.8462 87.0533 98.5533C87.3462 98.2604 87.3462 97.7855 87.0533 97.4926L82.2803 92.7197ZM81.2197 119.78C81.5126 120.073 81.9874 120.073 82.2803 119.78L87.0533 115.007C87.3462 114.714 87.3462 114.24 87.0533 113.947C86.7604 113.654 86.2855 113.654 85.9926 113.947L81.75 118.189L77.5074 113.947C77.2145 113.654 76.7396 113.654 76.4467 113.947C76.1538 114.24 76.1538 114.714 76.4467 115.007L81.2197 119.78ZM81 93.25V119.25H82.5V93.25H81Z" fill="#0D69D4" mask="url(#)"/>
</g>
</g>
<g clip-path="url(#clip5_434_47434)">
<mask maskUnits="userSpaceOnUse" x="0" y="0" width="0" height="0" fill="black">
<rect fill="white" width="0" height="0"/>
</mask>
<path d="M119.22 24.7197C118.927 25.0126 118.927 25.4874 119.22 25.7803L123.993 30.5533C124.286 30.8462 124.76 30.8462 125.053 30.5533C125.346 30.2604 125.346 29.7855 125.053 29.4926L120.811 25.25L125.053 21.0074C125.346 20.7145 125.346 20.2396 125.053 19.9467C124.76 19.6538 124.286 19.6538 123.993 19.9467L119.22 24.7197ZM193.78 25.7803C194.073 25.4874 194.073 25.0126 193.78 24.7197L189.007 19.9467C188.714 19.6538 188.24 19.6538 187.947 19.9467C187.654 20.2396 187.654 20.7145 187.947 21.0074L192.189 25.25L187.947 29.4926C187.654 29.7855 187.654 30.2604 187.947 30.5533C188.24 30.8462 188.714 30.8462 189.007 30.5533L193.78 25.7803ZM119.75 26H193.25V24.5H119.75V26Z" fill="#0D69D4" mask="url(#)"/>
<mask maskUnits="userSpaceOnUse" x="0" y="0" width="0" height="0" fill="black">
<rect fill="white" width="0" height="0"/>
</mask>
<path d="M195.22 24.7197C194.927 25.0126 194.927 25.4874 195.22 25.7803L199.993 30.5533C200.286 30.8462 200.76 30.8462 201.053 30.5533C201.346 30.2604 201.346 29.7855 201.053 29.4926L196.811 25.25L201.053 21.0074C201.346 20.7145 201.346 20.2396 201.053 19.9467C200.76 19.6538 200.286 19.6538 199.993 19.9467L195.22 24.7197ZM269.78 25.7803C270.073 25.4874 270.073 25.0126 269.78 24.7197L265.007 19.9467C264.714 19.6538 264.24 19.6538 263.947 19.9467C263.654 20.2396 263.654 20.7145 263.947 21.0074L268.189 25.25L263.947 29.4926C263.654 29.7855 263.654 30.2604 263.947 30.5533C264.24 30.8462 264.714 30.8462 265.007 30.5533L269.78 25.7803ZM195.75 26H269.25V24.5H195.75V26Z" fill="#0D69D4" mask="url(#)"/>
</g>
<rect x="216" y="82" width="8" height="20" fill="#C54600" fill-opacity="0.3"/>
<line x1="216.5" y1="58" x2="216.5" y2="110" stroke="#C54600"/>
<line x1="223.5" y1="58" x2="223.5" y2="110" stroke="#C54600"/>
<path d="M219.963 54.1193C219.307 54.1193 218.723 54.0128 218.212 53.7997C217.703 53.5838 217.304 53.2898 217.014 52.9176C216.724 52.5455 216.58 52.1236 216.58 51.652C216.58 51.2884 216.662 50.9545 216.827 50.6506C216.994 50.3438 217.222 50.0895 217.509 49.8878C217.795 49.6832 218.116 49.5526 218.472 49.4957V49.4361C218.006 49.3423 217.628 49.1165 217.338 48.7585C217.048 48.3977 216.903 47.9787 216.903 47.5014C216.903 47.0497 217.036 46.6477 217.3 46.2955C217.564 45.9403 217.926 45.6619 218.386 45.4602C218.849 45.2557 219.375 45.1534 219.963 45.1534C220.551 45.1534 221.075 45.2557 221.536 45.4602C221.999 45.6648 222.362 45.9446 222.626 46.2997C222.891 46.652 223.024 47.0526 223.027 47.5014C223.024 47.9815 222.876 48.4006 222.584 48.7585C222.291 49.1165 221.916 49.3423 221.459 49.4361V49.4957C221.808 49.5526 222.125 49.6832 222.409 49.8878C222.696 50.0895 222.923 50.3438 223.091 50.6506C223.261 50.9545 223.348 51.2884 223.351 51.652C223.348 52.1236 223.202 52.5455 222.912 52.9176C222.622 53.2898 222.222 53.5838 221.71 53.7997C221.202 54.0128 220.619 54.1193 219.963 54.1193ZM219.963 52.7642C220.256 52.7642 220.511 52.7116 220.73 52.6065C220.949 52.4986 221.119 52.3509 221.241 52.1634C221.366 51.973 221.429 51.7543 221.429 51.5071C221.429 51.2543 221.365 51.0312 221.237 50.8381C221.109 50.642 220.936 50.4886 220.717 50.3778C220.499 50.2642 220.247 50.2074 219.963 50.2074C219.682 50.2074 219.43 50.2642 219.209 50.3778C218.987 50.4886 218.813 50.642 218.685 50.8381C218.56 51.0312 218.497 51.2543 218.497 51.5071C218.497 51.7543 218.558 51.973 218.68 52.1634C218.803 52.3509 218.974 52.4986 219.196 52.6065C219.418 52.7116 219.673 52.7642 219.963 52.7642ZM219.963 48.8651C220.207 48.8651 220.425 48.8153 220.615 48.7159C220.805 48.6165 220.955 48.4787 221.062 48.3026C221.17 48.1264 221.224 47.9233 221.224 47.6932C221.224 47.4659 221.17 47.267 221.062 47.0966C220.955 46.9233 220.807 46.7884 220.619 46.6918C220.432 46.5923 220.213 46.5426 219.963 46.5426C219.716 46.5426 219.497 46.5923 219.307 46.6918C219.116 46.7884 218.967 46.9233 218.859 47.0966C218.754 47.267 218.702 47.4659 218.702 47.6932C218.702 47.9233 218.756 48.1264 218.864 48.3026C218.972 48.4787 219.121 48.6165 219.311 48.7159C219.501 48.8153 219.719 48.8651 219.963 48.8651Z" fill="#C54600"/>
<g clip-path="url(#clip6_434_47434)">
<mask maskUnits="userSpaceOnUse" x="0" y="0" width="0" height="0" fill="black">
<rect fill="white" width="0" height="0"/>
</mask>
<path d="M135.146 65.1464C134.951 65.3417 134.951 65.6583 135.146 65.8536L138.328 69.0355C138.524 69.2308 138.84 69.2308 139.036 69.0355C139.231 68.8403 139.231 68.5237 139.036 68.3284L136.207 65.5L139.036 62.6716C139.231 62.4763 139.231 62.1597 139.036 61.9645C138.84 61.7692 138.524 61.7692 138.328 61.9645L135.146 65.1464ZM179.854 65.8536C180.049 65.6583 180.049 65.3417 179.854 65.1464L176.672 61.9645C176.476 61.7692 176.16 61.7692 175.964 61.9645C175.769 62.1597 175.769 62.4763 175.964 62.6716L178.793 65.5L175.964 68.3284C175.769 68.5237 175.769 68.8403 175.964 69.0355C176.16 69.2308 176.476 69.2308 176.672 69.0355L179.854 65.8536ZM135.5 66H179.5V65H135.5V66Z" fill="#0D69D4" mask="url(#)"/>
<mask maskUnits="userSpaceOnUse" x="0" y="0" width="0" height="0" fill="black">
<rect fill="white" width="0" height="0"/>
</mask>
<path d="M181.146 65.1464C180.951 65.3417 180.951 65.6583 181.146 65.8536L184.328 69.0355C184.524 69.2308 184.84 69.2308 185.036 69.0355C185.231 68.8403 185.231 68.5237 185.036 68.3284L182.207 65.5L185.036 62.6716C185.231 62.4763 185.231 62.1597 185.036 61.9645C184.84 61.7692 184.524 61.7692 184.328 61.9645L181.146 65.1464ZM225.854 65.8536C226.049 65.6583 226.049 65.3417 225.854 65.1464L222.672 61.9645C222.476 61.7692 222.16 61.7692 221.964 61.9645C221.769 62.1597 221.769 62.4763 221.964 62.6716L224.793 65.5L221.964 68.3284C221.769 68.5237 221.769 68.8403 221.964 69.0355C222.16 69.2308 222.476 69.2308 222.672 69.0355L225.854 65.8536ZM181.5 66H225.5V65H181.5V66Z" fill="#0D69D4" mask="url(#)"/>
</g>
<rect x="145" y="82" width="71" height="20" fill="#0D69D4" fill-opacity="0.2"/>
<rect x="224" y="82" width="20" height="20" fill="#0D69D4" fill-opacity="0.2"/>
<rect x="129" y="74" width="131" height="8" fill="#007D00" fill-opacity="0.3"/>
<line x1="113" y1="74.5" x2="260" y2="74.5" stroke="#007D00"/>
<line x1="113" y1="81.5" x2="260" y2="81.5" stroke="#007D00"/>
<path d="M104.963 82.1193C104.307 82.1193 103.723 82.0128 103.212 81.7997C102.703 81.5838 102.304 81.2898 102.014 80.9176C101.724 80.5455 101.58 80.1236 101.58 79.652C101.58 79.2884 101.662 78.9545 101.827 78.6506C101.994 78.3438 102.222 78.0895 102.509 77.8878C102.795 77.6832 103.116 77.5526 103.472 77.4957V77.4361C103.006 77.3423 102.628 77.1165 102.338 76.7585C102.048 76.3977 101.903 75.9787 101.903 75.5014C101.903 75.0497 102.036 74.6477 102.3 74.2955C102.564 73.9403 102.926 73.6619 103.386 73.4602C103.849 73.2557 104.375 73.1534 104.963 73.1534C105.551 73.1534 106.075 73.2557 106.536 73.4602C106.999 73.6648 107.362 73.9446 107.626 74.2997C107.891 74.652 108.024 75.0526 108.027 75.5014C108.024 75.9815 107.876 76.4006 107.584 76.7585C107.291 77.1165 106.916 77.3423 106.459 77.4361V77.4957C106.808 77.5526 107.125 77.6832 107.409 77.8878C107.696 78.0895 107.923 78.3438 108.091 78.6506C108.261 78.9545 108.348 79.2884 108.351 79.652C108.348 80.1236 108.202 80.5455 107.912 80.9176C107.622 81.2898 107.222 81.5838 106.71 81.7997C106.202 82.0128 105.619 82.1193 104.963 82.1193ZM104.963 80.7642C105.256 80.7642 105.511 80.7116 105.73 80.6065C105.949 80.4986 106.119 80.3509 106.241 80.1634C106.366 79.973 106.429 79.7543 106.429 79.5071C106.429 79.2543 106.365 79.0312 106.237 78.8381C106.109 78.642 105.936 78.4886 105.717 78.3778C105.499 78.2642 105.247 78.2074 104.963 78.2074C104.682 78.2074 104.43 78.2642 104.209 78.3778C103.987 78.4886 103.813 78.642 103.685 78.8381C103.56 79.0312 103.497 79.2543 103.497 79.5071C103.497 79.7543 103.558 79.973 103.68 80.1634C103.803 80.3509 103.974 80.4986 104.196 80.6065C104.418 80.7116 104.673 80.7642 104.963 80.7642ZM104.963 76.8651C105.207 76.8651 105.425 76.8153 105.615 76.7159C105.805 76.6165 105.955 76.4787 106.062 76.3026C106.17 76.1264 106.224 75.9233 106.224 75.6932C106.224 75.4659 106.17 75.267 106.062 75.0966C105.955 74.9233 105.807 74.7884 105.619 74.6918C105.432 74.5923 105.213 74.5426 104.963 74.5426C104.716 74.5426 104.497 74.5923 104.307 74.6918C104.116 74.7884 103.967 74.9233 103.859 75.0966C103.754 75.267 103.702 75.4659 103.702 75.6932C103.702 75.9233 103.756 76.1264 103.864 76.3026C103.972 76.4787 104.121 76.6165 104.311 76.7159C104.501 76.8153 104.719 76.8651 104.963 76.8651Z" fill="#007D00"/>
<rect x="129" y="102" width="131" height="8" fill="#007D00" fill-opacity="0.3"/>
<line x1="113" y1="102.5" x2="260" y2="102.5" stroke="#007D00"/>
<line x1="113" y1="109.5" x2="260" y2="109.5" stroke="#007D00"/>
<path d="M104.963 110.119C104.307 110.119 103.723 110.013 103.212 109.8C102.703 109.584 102.304 109.29 102.014 108.918C101.724 108.545 101.58 108.124 101.58 107.652C101.58 107.288 101.662 106.955 101.827 106.651C101.994 106.344 102.222 106.089 102.509 105.888C102.795 105.683 103.116 105.553 103.472 105.496V105.436C103.006 105.342 102.628 105.116 102.338 104.759C102.048 104.398 101.903 103.979 101.903 103.501C101.903 103.05 102.036 102.648 102.3 102.295C102.564 101.94 102.926 101.662 103.386 101.46C103.849 101.256 104.375 101.153 104.963 101.153C105.551 101.153 106.075 101.256 106.536 101.46C106.999 101.665 107.362 101.945 107.626 102.3C107.891 102.652 108.024 103.053 108.027 103.501C108.024 103.982 107.876 104.401 107.584 104.759C107.291 105.116 106.916 105.342 106.459 105.436V105.496C106.808 105.553 107.125 105.683 107.409 105.888C107.696 106.089 107.923 106.344 108.091 106.651C108.261 106.955 108.348 107.288 108.351 107.652C108.348 108.124 108.202 108.545 107.912 108.918C107.622 109.29 107.222 109.584 106.71 109.8C106.202 110.013 105.619 110.119 104.963 110.119ZM104.963 108.764C105.256 108.764 105.511 108.712 105.73 108.607C105.949 108.499 106.119 108.351 106.241 108.163C106.366 107.973 106.429 107.754 106.429 107.507C106.429 107.254 106.365 107.031 106.237 106.838C106.109 106.642 105.936 106.489 105.717 106.378C105.499 106.264 105.247 106.207 104.963 106.207C104.682 106.207 104.43 106.264 104.209 106.378C103.987 106.489 103.813 106.642 103.685 106.838C103.56 107.031 103.497 107.254 103.497 107.507C103.497 107.754 103.558 107.973 103.68 108.163C103.803 108.351 103.974 108.499 104.196 108.607C104.418 108.712 104.673 108.764 104.963 108.764ZM104.963 104.865C105.207 104.865 105.425 104.815 105.615 104.716C105.805 104.616 105.955 104.479 106.062 104.303C106.17 104.126 106.224 103.923 106.224 103.693C106.224 103.466 106.17 103.267 106.062 103.097C105.955 102.923 105.807 102.788 105.619 102.692C105.432 102.592 105.213 102.543 104.963 102.543C104.716 102.543 104.497 102.592 104.307 102.692C104.116 102.788 103.967 102.923 103.859 103.097C103.754 103.267 103.702 103.466 103.702 103.693C103.702 103.923 103.756 104.126 103.864 104.303C103.972 104.479 104.121 104.616 104.311 104.716C104.501 104.815 104.719 104.865 104.963 104.865Z" fill="#007D00"/>
<rect x="129" y="82" width="16" height="20" fill="#007D00" fill-opacity="0.3"/>
<line x1="129.5" y1="58" x2="129.5" y2="110" stroke="#007D00"/>
<line x1="144.5" y1="58" x2="144.5" y2="110" stroke="#007D00"/>
<path d="M134.504 45.2727V54H132.659V47.0241H132.608L130.609 48.277V46.6406L132.77 45.2727H134.504ZM139.928 54.1193C139.479 54.1165 139.046 54.0412 138.628 53.8935C138.213 53.7457 137.841 53.5057 137.512 53.1733C137.182 52.8409 136.921 52.4006 136.728 51.8523C136.537 51.304 136.442 50.6307 136.442 49.8324C136.445 49.0994 136.529 48.4446 136.694 47.8679C136.861 47.2884 137.1 46.7969 137.409 46.3935C137.722 45.9901 138.096 45.6832 138.53 45.473C138.965 45.2599 139.452 45.1534 139.992 45.1534C140.574 45.1534 141.088 45.267 141.534 45.4943C141.98 45.7187 142.338 46.0241 142.608 46.4105C142.881 46.7969 143.046 47.2301 143.103 47.7102H141.283C141.212 47.4062 141.063 47.1676 140.836 46.9943C140.608 46.821 140.327 46.7344 139.992 46.7344C139.424 46.7344 138.992 46.9815 138.696 47.4759C138.404 47.9702 138.255 48.642 138.249 49.4915H138.309C138.439 49.233 138.615 49.0128 138.837 48.831C139.061 48.6463 139.316 48.5057 139.6 48.4091C139.887 48.3097 140.189 48.2599 140.507 48.2599C141.025 48.2599 141.485 48.3821 141.888 48.6264C142.292 48.8679 142.61 49.2003 142.843 49.6236C143.076 50.0469 143.192 50.5312 143.192 51.0767C143.192 51.6676 143.054 52.1932 142.779 52.6534C142.506 53.1136 142.124 53.4744 141.632 53.7358C141.144 53.9943 140.576 54.1222 139.928 54.1193ZM139.919 52.6705C140.203 52.6705 140.458 52.6023 140.682 52.4659C140.907 52.3295 141.083 52.1449 141.211 51.9119C141.338 51.679 141.402 51.4176 141.402 51.1278C141.402 50.8381 141.338 50.5781 141.211 50.348C141.086 50.1179 140.912 49.9347 140.691 49.7983C140.469 49.6619 140.216 49.5938 139.932 49.5938C139.719 49.5938 139.522 49.6335 139.34 49.7131C139.161 49.7926 139.003 49.9034 138.867 50.0455C138.733 50.1875 138.628 50.3523 138.551 50.5398C138.475 50.7244 138.436 50.9219 138.436 51.1321C138.436 51.4134 138.5 51.6705 138.628 51.9034C138.759 52.1364 138.935 52.3224 139.157 52.4616C139.381 52.6009 139.635 52.6705 139.919 52.6705Z" fill="#007D00"/>
<rect x="244" y="82" width="16" height="20" fill="#007D00" fill-opacity="0.3"/>
<line x1="244.5" y1="58" x2="244.5" y2="110" stroke="#007D00"/>
<line x1="259.5" y1="58" x2="259.5" y2="110" stroke="#007D00"/>
<path d="M249.504 45.2727V54H247.659V47.0241H247.608L245.609 48.277V46.6406L247.77 45.2727H249.504ZM254.928 54.1193C254.479 54.1165 254.046 54.0412 253.628 53.8935C253.213 53.7457 252.841 53.5057 252.512 53.1733C252.182 52.8409 251.921 52.4006 251.728 51.8523C251.537 51.304 251.442 50.6307 251.442 49.8324C251.445 49.0994 251.529 48.4446 251.694 47.8679C251.861 47.2884 252.1 46.7969 252.409 46.3935C252.722 45.9901 253.096 45.6832 253.53 45.473C253.965 45.2599 254.452 45.1534 254.992 45.1534C255.574 45.1534 256.088 45.267 256.534 45.4943C256.98 45.7187 257.338 46.0241 257.608 46.4105C257.881 46.7969 258.046 47.2301 258.103 47.7102H256.283C256.212 47.4062 256.063 47.1676 255.836 46.9943C255.608 46.821 255.327 46.7344 254.992 46.7344C254.424 46.7344 253.992 46.9815 253.696 47.4759C253.404 47.9702 253.255 48.642 253.249 49.4915H253.309C253.439 49.233 253.615 49.0128 253.837 48.831C254.061 48.6463 254.316 48.5057 254.6 48.4091C254.887 48.3097 255.189 48.2599 255.507 48.2599C256.025 48.2599 256.485 48.3821 256.888 48.6264C257.292 48.8679 257.61 49.2003 257.843 49.6236C258.076 50.0469 258.192 50.5312 258.192 51.0767C258.192 51.6676 258.054 52.1932 257.779 52.6534C257.506 53.1136 257.124 53.4744 256.632 53.7358C256.144 53.9943 255.576 54.1222 254.928 54.1193ZM254.919 52.6705C255.203 52.6705 255.458 52.6023 255.682 52.4659C255.907 52.3295 256.083 52.1449 256.211 51.9119C256.338 51.679 256.402 51.4176 256.402 51.1278C256.402 50.8381 256.338 50.5781 256.211 50.348C256.086 50.1179 255.912 49.9347 255.691 49.7983C255.469 49.6619 255.216 49.5938 254.932 49.5938C254.719 49.5938 254.522 49.6335 254.34 49.7131C254.161 49.7926 254.003 49.9034 253.867 50.0455C253.733 50.1875 253.628 50.3523 253.551 50.5398C253.475 50.7244 253.436 50.9219 253.436 51.1321C253.436 51.4134 253.5 51.6705 253.628 51.9034C253.759 52.1364 253.935 52.3224 254.157 52.4616C254.381 52.6009 254.635 52.6705 254.919 52.6705Z" fill="#007D00"/>
<defs>
<clipPath id="clip0_434_47434">
<rect width="20" height="20" fill="white" transform="translate(224 82)"/>
</clipPath>
<clipPath id="clip1_434_47434">
<rect width="20" height="20" fill="white" transform="translate(224 82)"/>
</clipPath>
<clipPath id="clip2_434_47434">
<rect width="16" height="16" fill="white" transform="translate(89 18)"/>
</clipPath>
<clipPath id="clip3_434_47434">
<rect width="36" height="16" fill="white" transform="matrix(0 1 -1 0 89 74)"/>
</clipPath>
<clipPath id="clip4_434_47434">
<rect width="56" height="16" fill="white" transform="matrix(0 1 -1 0 89 64)"/>
</clipPath>
<clipPath id="clip5_434_47434">
<rect width="131" height="16" fill="white" transform="translate(129 18)"/>
</clipPath>
<clipPath id="clip6_434_47434">
<rect width="71" height="16" fill="white" transform="translate(145 58)"/>
</clipPath>
</defs>
</svg>
