<svg width="396" height="183" viewBox="0 0 396 183" fill="none" xmlns="http://www.w3.org/2000/svg">
<rect width="395.324" height="182.31" rx="3.8381" fill="#4CA154" fill-opacity="0.1"/>
<path d="M13.4322 162.64C12.1987 162.64 10.9928 163.005 9.96718 163.691C8.94153 164.376 8.14213 165.35 7.67007 166.49C7.19801 167.629 7.0745 168.883 7.31516 170.093C7.55581 171.303 8.14982 172.414 9.02206 173.287C9.89431 174.159 11.0056 174.753 12.2155 174.994C13.4253 175.234 14.6793 175.111 15.819 174.639C16.9586 174.167 17.9327 173.367 18.618 172.342C19.3033 171.316 19.6691 170.11 19.6691 168.877C19.6674 167.223 19.0097 165.638 17.8404 164.468C16.6712 163.299 15.0858 162.641 13.4322 162.64ZM16.1705 167.777L12.8121 171.135C12.7676 171.18 12.7147 171.215 12.6564 171.239C12.5982 171.263 12.5357 171.276 12.4727 171.276C12.4096 171.276 12.3472 171.263 12.289 171.239C12.2307 171.215 12.1778 171.18 12.1333 171.135L10.694 169.696C10.604 169.606 10.5534 169.484 10.5534 169.356C10.5534 169.229 10.604 169.107 10.694 169.017C10.784 168.927 10.9061 168.876 11.0334 168.876C11.1607 168.876 11.2828 168.927 11.3728 169.017L12.4727 170.117L15.4916 167.098C15.5362 167.053 15.5891 167.018 15.6473 166.994C15.7056 166.97 15.768 166.957 15.831 166.957C15.8941 166.957 15.9565 166.97 16.0147 166.994C16.073 167.018 16.1259 167.053 16.1705 167.098C16.215 167.142 16.2504 167.195 16.2745 167.254C16.2986 167.312 16.3111 167.374 16.3111 167.437C16.3111 167.5 16.2986 167.563 16.2745 167.621C16.2504 167.679 16.215 167.732 16.1705 167.777Z" fill="#4CA154"/>
<path d="M154.391 80.7922C154.391 79.7174 154.391 79.18 154.6 78.7695C154.784 78.4084 155.077 78.1148 155.438 77.9308C155.849 77.7217 156.386 77.7217 157.461 77.7217H237.863C238.938 77.7217 239.475 77.7217 239.886 77.9308C240.247 78.1148 240.54 78.4084 240.724 78.7695C240.933 79.18 240.933 79.7174 240.933 80.7922V101.518C240.933 102.593 240.933 103.13 240.724 103.541C240.54 103.902 240.247 104.195 239.886 104.379C239.475 104.588 238.938 104.588 237.863 104.588H157.461C156.386 104.588 155.849 104.588 155.438 104.379C155.077 104.195 154.784 103.902 154.6 103.541C154.391 103.13 154.391 102.593 154.391 101.518V80.7922Z" fill="#217CF5"/>
<path d="M169.744 86.4775C168.819 86.4775 167.915 86.7519 167.145 87.2659C166.376 87.7799 165.777 88.5104 165.422 89.3651C165.068 90.2199 164.976 91.1604 165.156 92.0678C165.337 92.9752 165.782 93.8087 166.436 94.4628C167.091 95.117 167.924 95.5625 168.832 95.743C169.739 95.9235 170.679 95.8309 171.534 95.4768C172.389 95.1228 173.119 94.5232 173.633 93.754C174.147 92.9848 174.422 92.0804 174.422 91.1552C174.42 89.915 173.927 88.726 173.05 87.849C172.173 86.9721 170.984 86.4788 169.744 86.4775ZM169.744 95.1133C168.961 95.1133 168.196 94.8811 167.545 94.4462C166.894 94.0113 166.387 93.3931 166.087 92.6699C165.788 91.9467 165.709 91.1508 165.862 90.383C166.015 89.6153 166.392 88.91 166.945 88.3565C167.499 87.8029 168.204 87.426 168.972 87.2732C169.74 87.1205 170.536 87.1989 171.259 87.4985C171.982 87.798 172.6 88.3054 173.035 88.9563C173.47 89.6071 173.702 90.3724 173.702 91.1552C173.701 92.2046 173.284 93.2106 172.542 93.9527C171.8 94.6947 170.793 95.1121 169.744 95.1133Z" fill="#FCFCFD"/>
<path d="M183.066 90.1073C183.041 89.8692 182.933 89.6839 182.744 89.5512C182.557 89.4185 182.314 89.3522 182.014 89.3522C181.803 89.3522 181.622 89.384 181.471 89.4476C181.321 89.5112 181.205 89.5975 181.125 89.7066C181.045 89.8156 181.004 89.9401 181.002 90.08C181.002 90.1963 181.029 90.2972 181.082 90.3826C181.136 90.468 181.21 90.5407 181.302 90.6007C181.395 90.6588 181.498 90.7079 181.61 90.7479C181.723 90.7879 181.837 90.8215 181.951 90.8487L182.474 90.9796C182.685 91.0286 182.888 91.095 183.082 91.1786C183.279 91.2622 183.454 91.3676 183.608 91.4948C183.765 91.622 183.888 91.7755 183.979 91.9555C184.07 92.1354 184.115 92.3462 184.115 92.5879C184.115 92.915 184.032 93.203 183.865 93.452C183.698 93.6991 183.456 93.8927 183.14 94.0326C182.825 94.1707 182.445 94.2398 181.997 94.2398C181.563 94.2398 181.186 94.1725 180.866 94.0381C180.548 93.9036 180.299 93.7073 180.119 93.4493C179.941 93.1912 179.845 92.8768 179.83 92.5061H180.825C180.84 92.7005 180.9 92.8623 181.005 92.9913C181.111 93.1203 181.248 93.2166 181.417 93.2803C181.588 93.3439 181.778 93.3757 181.989 93.3757C182.209 93.3757 182.402 93.3429 182.567 93.2775C182.734 93.2103 182.865 93.1176 182.96 92.9995C183.054 92.8795 183.102 92.7396 183.104 92.5797C183.102 92.4343 183.06 92.3144 182.976 92.2199C182.892 92.1236 182.775 92.0436 182.624 91.98C182.475 91.9146 182.301 91.8564 182.101 91.8055L181.466 91.642C181.006 91.5239 180.643 91.3449 180.376 91.105C180.11 90.8633 179.978 90.5425 179.978 90.1427C179.978 89.8138 180.067 89.5258 180.245 89.2786C180.425 89.0315 180.669 88.8397 180.978 88.7034C181.287 88.5653 181.637 88.4963 182.027 88.4963C182.424 88.4963 182.771 88.5653 183.069 88.7034C183.369 88.8397 183.604 89.0296 183.775 89.2732C183.946 89.5148 184.034 89.7929 184.039 90.1073H183.066ZM186.058 94.2398C185.793 94.2398 185.554 94.1925 185.341 94.098C185.131 94.0017 184.963 93.86 184.84 93.6728C184.718 93.4856 184.657 93.2548 184.657 92.9804C184.657 92.7442 184.701 92.5488 184.788 92.3943C184.875 92.2399 184.994 92.1163 185.145 92.0236C185.296 91.9309 185.466 91.861 185.655 91.8137C185.846 91.7646 186.043 91.7292 186.246 91.7074C186.492 91.682 186.691 91.6592 186.843 91.6392C186.996 91.6174 187.107 91.5847 187.176 91.5411C187.247 91.4957 187.282 91.4257 187.282 91.3312V91.3149C187.282 91.1095 187.221 90.9505 187.1 90.8378C186.978 90.7252 186.803 90.6688 186.574 90.6688C186.332 90.6688 186.14 90.7215 185.998 90.8269C185.858 90.9323 185.764 91.0568 185.715 91.2004L184.794 91.0695C184.866 90.8151 184.986 90.6025 185.153 90.4317C185.321 90.259 185.525 90.13 185.767 90.0446C186.008 89.9574 186.276 89.9137 186.568 89.9137C186.77 89.9137 186.971 89.9374 187.171 89.9846C187.37 90.0319 187.553 90.11 187.718 90.219C187.884 90.3263 188.017 90.4726 188.116 90.6579C188.218 90.8433 188.269 91.075 188.269 91.353V94.1553H187.32V93.5801H187.288C187.228 93.6964 187.143 93.8054 187.034 93.9072C186.927 94.0072 186.792 94.088 186.628 94.1498C186.466 94.2098 186.276 94.2398 186.058 94.2398ZM186.315 93.5147C186.513 93.5147 186.684 93.4756 186.83 93.3975C186.975 93.3175 187.087 93.2121 187.165 93.0813C187.245 92.9504 187.285 92.8078 187.285 92.6533V92.1599C187.254 92.1853 187.201 92.209 187.127 92.2308C187.054 92.2526 186.972 92.2717 186.882 92.288C186.791 92.3044 186.701 92.3189 186.612 92.3316C186.523 92.3444 186.445 92.3553 186.38 92.3643C186.233 92.3843 186.101 92.417 185.985 92.4625C185.868 92.5079 185.777 92.5715 185.709 92.6533C185.642 92.7333 185.609 92.8368 185.609 92.964C185.609 93.1458 185.675 93.283 185.808 93.3757C185.94 93.4683 186.109 93.5147 186.315 93.5147ZM192.731 89.9683L191.24 94.1553H190.15L188.659 89.9683H189.711L190.673 93.0785H190.717L191.682 89.9683H192.731ZM195.006 94.2371C194.586 94.2371 194.223 94.1498 193.918 93.9754C193.614 93.7991 193.381 93.5501 193.217 93.2285C193.054 92.905 192.972 92.5243 192.972 92.0863C192.972 91.6556 193.054 91.2776 193.217 90.9523C193.383 90.6252 193.614 90.3708 193.91 90.1891C194.206 90.0055 194.554 89.9137 194.954 89.9137C195.212 89.9137 195.455 89.9555 195.684 90.0391C195.915 90.1209 196.119 90.2481 196.295 90.4208C196.473 90.5934 196.613 90.8133 196.715 91.0804C196.816 91.3458 196.867 91.662 196.867 92.0291V92.3316H193.435V91.6665H195.921C195.92 91.4775 195.879 91.3094 195.799 91.1622C195.719 91.0132 195.607 90.896 195.463 90.8106C195.322 90.7252 195.156 90.6825 194.967 90.6825C194.766 90.6825 194.588 90.7315 194.436 90.8297C194.283 90.926 194.164 91.0532 194.079 91.2113C193.995 91.3676 193.952 91.5393 193.951 91.7265V92.3071C193.951 92.5506 193.995 92.7596 194.084 92.9341C194.173 93.1067 194.298 93.2394 194.458 93.332C194.618 93.4229 194.805 93.4683 195.019 93.4683C195.163 93.4683 195.293 93.4484 195.409 93.4084C195.525 93.3666 195.626 93.3057 195.712 93.2257C195.797 93.1458 195.861 93.0467 195.905 92.9286L196.826 93.0322C196.768 93.2757 196.657 93.4883 196.494 93.6701C196.332 93.85 196.125 93.9899 195.872 94.0899C195.62 94.188 195.331 94.2371 195.006 94.2371ZM204.188 90.4562H203.169C203.14 90.289 203.086 90.1409 203.008 90.0119C202.93 89.881 202.833 89.7702 202.716 89.6793C202.6 89.5884 202.468 89.5203 202.319 89.4749C202.171 89.4276 202.012 89.404 201.841 89.404C201.538 89.404 201.269 89.4803 201.035 89.633C200.8 89.7838 200.617 90.0055 200.484 90.2981C200.351 90.5889 200.285 90.9441 200.285 91.3639C200.285 91.791 200.351 92.1508 200.484 92.4434C200.618 92.7342 200.802 92.9541 201.035 93.1031C201.269 93.2503 201.537 93.3239 201.839 93.3239C202.006 93.3239 202.162 93.3021 202.308 93.2584C202.455 93.213 202.587 93.1467 202.703 93.0595C202.821 92.9722 202.92 92.865 203 92.7378C203.082 92.6106 203.138 92.4652 203.169 92.3016L204.188 92.3071C204.15 92.5724 204.068 92.8214 203.94 93.054C203.815 93.2866 203.651 93.492 203.447 93.6701C203.243 93.8463 203.005 93.9844 202.733 94.0844C202.46 94.1825 202.158 94.2316 201.825 94.2316C201.334 94.2316 200.896 94.118 200.511 93.8909C200.126 93.6637 199.822 93.3357 199.601 92.9068C199.379 92.4779 199.268 91.9636 199.268 91.3639C199.268 90.7624 199.38 90.2481 199.603 89.8211C199.827 89.3922 200.131 89.0642 200.517 88.837C200.902 88.6098 201.338 88.4963 201.825 88.4963C202.136 88.4963 202.425 88.5399 202.692 88.6271C202.959 88.7143 203.197 88.8425 203.406 89.0115C203.615 89.1787 203.787 89.384 203.921 89.6275C204.058 89.8692 204.147 90.1454 204.188 90.4562ZM205.938 91.7019V94.1553H204.951V88.5726H205.916V90.6797H205.965C206.063 90.4435 206.215 90.2572 206.42 90.1209C206.628 89.9828 206.891 89.9137 207.211 89.9137C207.502 89.9137 207.755 89.9746 207.971 90.0964C208.188 90.2181 208.355 90.3962 208.473 90.6307C208.593 90.8651 208.653 91.1513 208.653 91.4893V94.1553H207.666V91.642C207.666 91.3603 207.593 91.1413 207.448 90.985C207.304 90.8269 207.103 90.7479 206.843 90.7479C206.668 90.7479 206.512 90.786 206.374 90.8624C206.238 90.9369 206.13 91.045 206.052 91.1867C205.976 91.3285 205.938 91.5002 205.938 91.7019ZM210.744 94.2398C210.478 94.2398 210.239 94.1925 210.027 94.098C209.816 94.0017 209.649 93.86 209.525 93.6728C209.403 93.4856 209.343 93.2548 209.343 92.9804C209.343 92.7442 209.386 92.5488 209.473 92.3943C209.561 92.2399 209.68 92.1163 209.83 92.0236C209.981 91.9309 210.151 91.861 210.34 91.8137C210.531 91.7646 210.728 91.7292 210.932 91.7074C211.177 91.682 211.376 91.6592 211.529 91.6392C211.681 91.6174 211.792 91.5847 211.861 91.5411C211.932 91.4957 211.968 91.4257 211.968 91.3312V91.3149C211.968 91.1095 211.907 90.9505 211.785 90.8378C211.663 90.7252 211.488 90.6688 211.259 90.6688C211.017 90.6688 210.825 90.7215 210.684 90.8269C210.544 90.9323 210.449 91.0568 210.4 91.2004L209.479 91.0695C209.552 90.8151 209.671 90.6025 209.839 90.4317C210.006 90.259 210.21 90.13 210.452 90.0446C210.694 89.9574 210.961 89.9137 211.253 89.9137C211.455 89.9137 211.656 89.9374 211.856 89.9846C212.056 90.0319 212.238 90.11 212.404 90.219C212.569 90.3263 212.702 90.4726 212.802 90.6579C212.903 90.8433 212.954 91.075 212.954 91.353V94.1553H212.006V93.5801H211.973C211.913 93.6964 211.829 93.8054 211.72 93.9072C211.612 94.0072 211.477 94.088 211.313 94.1498C211.152 94.2098 210.962 94.2398 210.744 94.2398ZM211 93.5147C211.198 93.5147 211.37 93.4756 211.515 93.3975C211.66 93.3175 211.772 93.2121 211.85 93.0813C211.93 92.9504 211.97 92.8078 211.97 92.6533V92.1599C211.939 92.1853 211.887 92.209 211.812 92.2308C211.74 92.2526 211.658 92.2717 211.567 92.288C211.476 92.3044 211.386 92.3189 211.297 92.3316C211.208 92.3444 211.131 92.3553 211.065 92.3643C210.918 92.3843 210.786 92.417 210.67 92.4625C210.554 92.5079 210.462 92.5715 210.395 92.6533C210.327 92.7333 210.294 92.8368 210.294 92.964C210.294 93.1458 210.36 93.283 210.493 93.3757C210.626 93.4683 210.795 93.5147 211 93.5147ZM214.813 91.7019V94.1553H213.827V89.9683H214.77V90.6797H214.819C214.915 90.4453 215.069 90.259 215.28 90.1209C215.492 89.9828 215.755 89.9137 216.067 89.9137C216.356 89.9137 216.608 89.9755 216.822 90.0991C217.039 90.2227 217.206 90.4017 217.324 90.6361C217.444 90.8705 217.503 91.1549 217.501 91.4893V94.1553H216.514V91.642C216.514 91.3621 216.442 91.1431 216.296 90.985C216.153 90.8269 215.954 90.7479 215.699 90.7479C215.527 90.7479 215.373 90.786 215.239 90.8624C215.106 90.9369 215.002 91.045 214.925 91.1867C214.851 91.3285 214.813 91.5002 214.813 91.7019ZM220.205 95.8126C219.851 95.8126 219.547 95.7645 219.292 95.6682C219.038 95.5737 218.833 95.4465 218.679 95.2865C218.524 95.1266 218.417 94.9494 218.357 94.755L219.246 94.5396C219.286 94.6214 219.344 94.7023 219.42 94.7822C219.497 94.864 219.599 94.9313 219.728 94.984C219.859 95.0385 220.024 95.0657 220.222 95.0657C220.502 95.0657 220.733 94.9976 220.917 94.8613C221.1 94.7268 221.192 94.5051 221.192 94.1962V93.4029H221.143C221.092 93.5047 221.018 93.6092 220.919 93.7164C220.823 93.8236 220.695 93.9136 220.535 93.9863C220.377 94.059 220.178 94.0953 219.938 94.0953C219.617 94.0953 219.325 94.0199 219.063 93.8691C218.803 93.7164 218.596 93.4892 218.442 93.1876C218.289 92.8841 218.213 92.5043 218.213 92.0481C218.213 91.5884 218.289 91.2004 218.442 90.8842C218.596 90.5661 218.804 90.3254 219.066 90.1618C219.328 89.9964 219.619 89.9137 219.941 89.9137C220.186 89.9137 220.388 89.9555 220.546 90.0391C220.706 90.1209 220.833 90.22 220.928 90.3363C221.022 90.4507 221.094 90.5589 221.143 90.6606H221.198V89.9683H222.171V94.2234C222.171 94.5814 222.085 94.8776 221.914 95.1121C221.744 95.3465 221.51 95.5219 221.214 95.6382C220.918 95.7545 220.581 95.8126 220.205 95.8126ZM220.213 93.3211C220.422 93.3211 220.601 93.2703 220.748 93.1685C220.895 93.0667 221.007 92.9204 221.083 92.7296C221.159 92.5388 221.198 92.3098 221.198 92.0427C221.198 91.7792 221.159 91.5484 221.083 91.3503C221.009 91.1522 220.898 90.9987 220.75 90.8896C220.605 90.7788 220.426 90.7233 220.213 90.7233C219.994 90.7233 219.81 90.7806 219.663 90.8951C219.516 91.0096 219.405 91.1668 219.33 91.3667C219.256 91.5647 219.219 91.7901 219.219 92.0427C219.219 92.2989 219.256 92.5234 219.33 92.716C219.407 92.9068 219.518 93.0558 219.666 93.163C219.815 93.2684 219.997 93.3211 220.213 93.3211ZM224.916 94.2371C224.496 94.2371 224.133 94.1498 223.828 93.9754C223.525 93.7991 223.291 93.5501 223.127 93.2285C222.964 92.905 222.882 92.5243 222.882 92.0863C222.882 91.6556 222.964 91.2776 223.127 90.9523C223.293 90.6252 223.524 90.3708 223.82 90.1891C224.116 90.0055 224.464 89.9137 224.864 89.9137C225.122 89.9137 225.365 89.9555 225.594 90.0391C225.825 90.1209 226.029 90.2481 226.205 90.4208C226.383 90.5934 226.523 90.8133 226.625 91.0804C226.727 91.3458 226.778 91.662 226.778 92.0291V92.3316H223.346V91.6665H225.832C225.83 91.4775 225.789 91.3094 225.709 91.1622C225.629 91.0132 225.517 90.896 225.374 90.8106C225.232 90.7252 225.067 90.6825 224.878 90.6825C224.676 90.6825 224.499 90.7315 224.346 90.8297C224.193 90.926 224.074 91.0532 223.989 91.2113C223.905 91.3676 223.863 91.5393 223.861 91.7265V92.3071C223.861 92.5506 223.905 92.7596 223.994 92.9341C224.083 93.1067 224.208 93.2394 224.368 93.332C224.528 93.4229 224.715 93.4683 224.929 93.4683C225.073 93.4683 225.203 93.4484 225.319 93.4084C225.435 93.3666 225.536 93.3057 225.622 93.2257C225.707 93.1458 225.772 93.0467 225.815 92.9286L226.737 93.0322C226.678 93.2757 226.568 93.4883 226.404 93.6701C226.242 93.85 226.035 93.9899 225.783 94.0899C225.53 94.188 225.241 94.2371 224.916 94.2371ZM230.802 91.075L229.902 91.1731C229.877 91.0823 229.832 90.9968 229.769 90.9169C229.707 90.8369 229.623 90.7724 229.518 90.7233C229.412 90.6743 229.283 90.6497 229.131 90.6497C228.925 90.6497 228.753 90.6943 228.613 90.7833C228.475 90.8724 228.406 90.9878 228.408 91.1295C228.406 91.2513 228.451 91.3503 228.542 91.4266C228.635 91.503 228.787 91.5656 229 91.6147L229.714 91.7674C230.11 91.8528 230.405 91.9882 230.597 92.1735C230.792 92.3589 230.89 92.6015 230.892 92.9014C230.89 93.1649 230.813 93.3975 230.66 93.5992C230.509 93.7991 230.299 93.9554 230.03 94.068C229.761 94.1807 229.452 94.2371 229.103 94.2371C228.591 94.2371 228.178 94.1298 227.866 93.9154C227.553 93.6991 227.367 93.3984 227.307 93.0131L228.269 92.9204C228.313 93.1094 228.406 93.2521 228.547 93.3484C228.689 93.4447 228.874 93.4929 229.101 93.4929C229.335 93.4929 229.523 93.4447 229.665 93.3484C229.808 93.2521 229.88 93.1331 229.88 92.9913C229.88 92.8714 229.834 92.7723 229.741 92.6942C229.65 92.616 229.509 92.5561 229.316 92.5143L228.602 92.3643C228.2 92.2807 227.903 92.1399 227.71 91.9418C227.518 91.7419 227.422 91.4893 227.424 91.184C227.422 90.926 227.492 90.7024 227.634 90.5134C227.778 90.3226 227.977 90.1754 228.231 90.0718C228.487 89.9664 228.783 89.9137 229.117 89.9137C229.608 89.9137 229.994 90.0182 230.276 90.2272C230.559 90.4362 230.734 90.7188 230.802 91.075Z" fill="#FCFCFD"/>
<rect x="0.239881" y="0.239881" width="394.844" height="181.83" rx="3.59821" stroke="#4CA154" stroke-opacity="0.1" stroke-width="0.479762"/>
</svg>
