<svg width="803" height="291" viewBox="0 0 803 291" fill="none" xmlns="http://www.w3.org/2000/svg">
<rect width="803" height="291" fill="#F9FAFB"/>
<rect x="70" y="60" width="663" height="171" rx="4" fill="white"/>
<path fill-rule="evenodd" clip-rule="evenodd" d="M590.668 79.0026C590.668 78.0821 591.414 77.3359 592.335 77.3359C593.255 77.3359 594.001 78.0821 594.001 79.0026C594.001 79.9231 593.255 80.6693 592.335 80.6693C591.414 80.6693 590.668 79.9231 590.668 79.0026ZM595.668 79.0026C595.668 78.5424 596.041 78.1693 596.501 78.1693H606.501C606.962 78.1693 607.335 78.5424 607.335 79.0026C607.335 79.4628 606.962 79.8359 606.501 79.8359L596.501 79.8359C596.041 79.8359 595.668 79.4628 595.668 79.0026ZM590.668 84.0026C590.668 83.0821 591.414 82.3359 592.335 82.3359C593.255 82.3359 594.001 83.0821 594.001 84.0026C594.001 84.9231 593.255 85.6693 592.335 85.6693C591.414 85.6693 590.668 84.9231 590.668 84.0026ZM595.668 84.0026C595.668 83.5424 596.041 83.1693 596.501 83.1693L606.501 83.1693C606.962 83.1693 607.335 83.5424 607.335 84.0026C607.335 84.4628 606.962 84.8359 606.501 84.8359L596.501 84.8359C596.041 84.8359 595.668 84.4628 595.668 84.0026ZM590.668 89.0026C590.668 88.0821 591.414 87.3359 592.335 87.3359C593.255 87.3359 594.001 88.0821 594.001 89.0026C594.001 89.9231 593.255 90.6693 592.335 90.6693C591.414 90.6693 590.668 89.9231 590.668 89.0026ZM595.668 89.0026C595.668 88.5424 596.041 88.1693 596.501 88.1693L606.501 88.1693C606.962 88.1693 607.335 88.5424 607.335 89.0026C607.335 89.4628 606.962 89.8359 606.501 89.8359L596.501 89.8359C596.041 89.8359 595.668 89.4628 595.668 89.0026Z" fill="#9E9E9E"/>
<path d="M618.536 82.5348L615 86.0703L611.464 82.5348" stroke="#9E9E9E" stroke-width="1.5" stroke-linecap="round" stroke-linejoin="round"/>
<path d="M648.5 84L638.5 84M648.5 79L638.5 79M648.5 89L638.5 89" stroke="#9E9E9E" stroke-width="1.5" stroke-linecap="round" stroke-linejoin="round"/>
<path d="M632.668 91.0807V92.3307H635.168C635.404 92.3307 635.602 92.2509 635.762 92.0911C635.921 91.9314 636.001 91.7335 636.001 91.4974V90.6641C636.001 90.428 635.921 90.23 635.762 90.0703C635.602 89.9106 635.404 89.8307 635.168 89.8307C635.404 89.8307 635.602 89.7509 635.762 89.5911C635.921 89.4314 636.001 89.2335 636.001 88.9974V88.1641C636.001 87.928 635.921 87.73 635.762 87.5703C635.602 87.4106 635.404 87.3307 635.168 87.3307H632.668V88.5807H634.751V89.2057H633.501V90.4557H634.751V91.0807H632.668Z" fill="#9E9E9E"/>
<path d="M632.668 84.2057V86.4974H636.001V85.2474H633.918V84.6224H635.168C635.404 84.6224 635.602 84.5425 635.762 84.3828C635.921 84.2231 636.001 84.0252 636.001 83.7891V82.3307C636.001 82.0946 635.921 81.8967 635.762 81.737C635.602 81.5773 635.404 81.4974 635.168 81.4974H632.668V82.7474H634.751V83.3724H633.501C633.265 83.3724 633.067 83.4523 632.908 83.612C632.748 83.7717 632.668 83.9696 632.668 84.2057Z" fill="#9E9E9E"/>
<path d="M633.918 76.9141V80.6641H635.168V75.6641H632.668V76.9141H633.918Z" fill="#9E9E9E"/>
<path d="M660.465 82.5348L656.93 86.0703L653.394 82.5348" stroke="#9E9E9E" stroke-width="1.5" stroke-linecap="round" stroke-linejoin="round"/>
<path fill-rule="evenodd" clip-rule="evenodd" d="M674.598 77.3333C674.598 76.8731 674.971 76.5 675.431 76.5H690.431C690.891 76.5 691.264 76.8731 691.264 77.3333C691.264 77.7936 690.891 78.1667 690.431 78.1667H675.431C674.971 78.1667 674.598 77.7936 674.598 77.3333ZM676.974 80.4492C676.982 80.455 676.99 80.4609 676.998 80.4667L680.22 82.8833C680.226 82.888 680.232 82.8927 680.239 82.8975C680.343 82.9752 680.46 83.0632 680.554 83.1478C680.658 83.2412 680.811 83.3963 680.902 83.6302C681.015 83.9217 681.015 84.245 680.902 84.5364C680.811 84.7704 680.658 84.9255 680.554 85.0188C680.46 85.1035 680.343 85.1914 680.239 85.2692C680.232 85.2739 680.226 85.2787 680.22 85.2833L676.998 87.7C676.99 87.7058 676.982 87.7116 676.974 87.7175C676.823 87.8309 676.668 87.9476 676.531 88.032C676.398 88.114 676.145 88.2565 675.822 88.2497C675.447 88.2419 675.095 88.066 674.863 87.7706C674.664 87.5159 674.626 87.2283 674.612 87.0726C674.598 86.9125 674.598 86.718 674.598 86.5291C674.598 86.5194 674.598 86.5097 674.598 86.5V81.6667C674.598 81.657 674.598 81.6473 674.598 81.6376C674.598 81.4486 674.598 81.2541 674.612 81.094C674.626 80.9384 674.664 80.6508 674.863 80.396C675.095 80.1006 675.447 79.9247 675.822 79.9169C676.145 79.9102 676.398 80.0527 676.531 80.1347C676.668 80.2191 676.823 80.3358 676.974 80.4492ZM676.264 82V86.1667L679.042 84.0833L676.264 82ZM682.098 81.7083C682.098 81.2481 682.471 80.875 682.931 80.875H690.431C690.891 80.875 691.264 81.2481 691.264 81.7083C691.264 82.1686 690.891 82.5417 690.431 82.5417H682.931C682.471 82.5417 682.098 82.1686 682.098 81.7083ZM682.098 86.2917C682.098 85.8314 682.471 85.4583 682.931 85.4583H690.431C690.891 85.4583 691.264 85.8314 691.264 86.2917C691.264 86.7519 690.891 87.125 690.431 87.125H682.931C682.471 87.125 682.098 86.7519 682.098 86.2917ZM674.598 90.6667C674.598 90.2064 674.971 89.8333 675.431 89.8333H690.431C690.891 89.8333 691.264 90.2064 691.264 90.6667C691.264 91.1269 690.891 91.5 690.431 91.5H675.431C674.971 91.5 674.598 91.1269 674.598 90.6667Z" fill="#9E9E9E"/>
<path fill-rule="evenodd" clip-rule="evenodd" d="M702.598 77.3333C702.598 76.8731 702.971 76.5 703.431 76.5H718.431C718.891 76.5 719.264 76.8731 719.264 77.3333C719.264 77.7936 718.891 78.1667 718.431 78.1667H703.431C702.971 78.1667 702.598 77.7936 702.598 77.3333ZM717.598 81.9167L714.82 84L717.598 86.0833V81.9167ZM717.331 80.0514C717.464 79.9693 717.717 79.8269 718.04 79.8336C718.415 79.8414 718.767 80.0173 718.999 80.3127C719.198 80.5674 719.236 80.855 719.25 81.0107C719.264 81.1708 719.264 81.3653 719.264 81.5543V86.4457C719.264 86.6347 719.264 86.8292 719.25 86.9893C719.236 87.145 719.198 87.4326 718.999 87.6873C718.767 87.9827 718.415 88.1586 718.04 88.1664C717.717 88.1731 717.464 88.0307 717.331 87.9486C717.194 87.8642 717.039 87.7475 716.888 87.6341L713.642 85.2C713.636 85.1953 713.63 85.1906 713.623 85.1859C713.519 85.1081 713.402 85.0201 713.308 84.9355C713.204 84.8422 713.051 84.687 712.96 84.4531C712.847 84.1617 712.847 83.8383 712.96 83.5469C713.051 83.313 713.204 83.1578 713.308 83.0645C713.402 82.9799 713.519 82.8919 713.623 82.8141C713.63 82.8094 713.636 82.8047 713.642 82.8L716.864 80.3833C716.872 80.3775 716.88 80.3717 716.888 80.3659C717.039 80.2525 717.194 80.1358 717.331 80.0514ZM702.598 81.7083C702.598 81.2481 702.971 80.875 703.431 80.875H710.931C711.391 80.875 711.764 81.2481 711.764 81.7083C711.764 82.1686 711.391 82.5417 710.931 82.5417H703.431C702.971 82.5417 702.598 82.1686 702.598 81.7083ZM702.598 86.2917C702.598 85.8314 702.971 85.4583 703.431 85.4583H710.931C711.391 85.4583 711.764 85.8314 711.764 86.2917C711.764 86.7519 711.391 87.125 710.931 87.125H703.431C702.971 87.125 702.598 86.7519 702.598 86.2917ZM702.598 90.6667C702.598 90.2064 702.971 89.8333 703.431 89.8333H718.431C718.891 89.8333 719.264 90.2064 719.264 90.6667C719.264 91.1269 718.891 91.5 718.431 91.5H703.431C702.971 91.5 702.598 91.1269 702.598 90.6667Z" fill="#9E9E9E"/>
<path fill-rule="evenodd" clip-rule="evenodd" d="M155.168 75.3333C155.168 74.8731 155.541 74.5 156.001 74.5H162.668C164.969 74.5 166.835 76.3655 166.835 78.6667C166.835 79.8589 166.334 80.9342 165.531 81.6937C166.806 82.4062 167.668 83.7691 167.668 85.3333C167.668 87.6345 165.802 89.5 163.501 89.5H156.001C155.541 89.5 155.168 89.1269 155.168 88.6667V75.3333ZM156.835 82.8333V87.8333H163.501C164.882 87.8333 166.001 86.714 166.001 85.3333C166.001 83.9526 164.882 82.8333 163.501 82.8333H156.835ZM156.835 81.1667H162.668C164.049 81.1667 165.168 80.0474 165.168 78.6667C165.168 77.286 164.049 76.1667 162.668 76.1667H156.835V81.1667Z" fill="#9E9E9E"/>
<path fill-rule="evenodd" clip-rule="evenodd" d="M191.479 74.5002H187.332C186.872 74.5002 186.499 74.8733 186.499 75.3336C186.499 75.7938 186.872 76.1669 187.332 76.1669H190.296L185.921 87.8336H183.165C182.705 87.8336 182.332 88.2067 182.332 88.6669C182.332 89.1271 182.705 89.5002 183.165 89.5002H186.479C186.492 89.5005 186.505 89.5005 186.518 89.5002H190.665C191.126 89.5002 191.499 89.1271 191.499 88.6669C191.499 88.2067 191.126 87.8336 190.665 87.8336H187.701L192.076 76.1669H194.832C195.292 76.1669 195.665 75.7938 195.665 75.3336C195.665 74.8733 195.292 74.5002 194.832 74.5002H191.518C191.505 74.4999 191.492 74.4999 191.479 74.5002Z" fill="#9E9E9E"/>
<path fill-rule="evenodd" clip-rule="evenodd" d="M212 74.5C212.46 74.5 212.833 74.8731 212.833 75.3333V81.1667C212.833 83.4679 214.699 85.3333 217 85.3333C219.301 85.3333 221.167 83.4679 221.167 81.1667V75.3333C221.167 74.8731 221.54 74.5 222 74.5C222.46 74.5 222.833 74.8731 222.833 75.3333V81.1667C222.833 84.3883 220.222 87 217 87C213.778 87 211.167 84.3883 211.167 81.1667V75.3333C211.167 74.8731 211.54 74.5 212 74.5ZM209.5 89.5C209.5 89.0398 209.873 88.6667 210.333 88.6667H223.667C224.127 88.6667 224.5 89.0398 224.5 89.5C224.5 89.9602 224.127 90.3333 223.667 90.3333H210.333C209.873 90.3333 209.5 89.9602 209.5 89.5Z" fill="#9E9E9E"/>
<path d="M237.918 91.1667C237.228 91.1667 236.668 90.607 236.668 89.9167V89.9167C236.668 89.2263 237.228 88.6667 237.918 88.6667H244.585H251.668C252.358 88.6667 252.918 89.2263 252.918 89.9167V89.9167C252.918 90.607 252.358 91.1667 251.668 91.1667H237.918ZM239.376 86.1667L243.96 74.5H245.626L250.21 86.1667H248.647L247.46 83.0417H242.126L240.939 86.1667H239.376ZM242.626 81.7083H246.96L244.835 76.0625H244.751L242.626 81.7083Z" fill="#9E9E9E"/>
<path d="M265.855 86.4401L268.355 83.9401L268.272 83.8568C267.967 83.5512 267.817 83.1658 267.824 82.7005C267.831 82.2352 267.987 81.8498 268.293 81.5443L276.647 73.1901C276.883 72.954 277.182 72.8359 277.543 72.8359C277.904 72.8359 278.203 72.954 278.439 73.1901L280.772 75.5234C281.008 75.7595 281.123 76.0755 281.116 76.4714C281.109 76.8672 280.987 77.1832 280.751 77.4193L272.397 85.7734C272.133 86.0373 271.769 86.1693 271.303 86.1693C270.838 86.1693 270.474 86.0373 270.21 85.7734L269.98 85.5443L269.085 86.4401H265.855ZM276.147 80.2526L273.751 77.8568L268.897 82.7109L271.293 85.1068L276.147 80.2526ZM265.928 91.1693C265.232 91.1693 264.668 90.605 264.668 89.9089V89.9089C264.668 89.2127 265.232 88.6484 265.928 88.6484H280.074C280.77 88.6484 281.335 89.2127 281.335 89.9089V89.9089C281.335 90.605 280.77 91.1693 280.074 91.1693H265.928Z" fill="#9E9E9E"/>
<line x1="295.5" y1="70" x2="295.5" y2="94" stroke="#EFEFEF"/>
<path fill-rule="evenodd" clip-rule="evenodd" d="M85.4239 75.58C85.7493 75.9055 85.7493 76.4331 85.4239 76.7585L83.5131 78.6693H92.7513C95.2826 78.6693 97.3346 80.7213 97.3346 83.2526C97.3346 85.7839 95.2826 87.8359 92.7513 87.8359H89.0013C88.5411 87.8359 88.168 87.4628 88.168 87.0026C88.168 86.5424 88.5411 86.1693 89.0013 86.1693H92.7513C94.3621 86.1693 95.668 84.8634 95.668 83.2526C95.668 81.6418 94.3621 80.3359 92.7513 80.3359H83.5131L85.4239 82.2467C85.7493 82.5721 85.7493 83.0998 85.4239 83.4252C85.0985 83.7506 84.5708 83.7506 84.2454 83.4252L80.912 80.0919C80.5866 79.7664 80.5866 79.2388 80.912 78.9133L84.2454 75.58C84.5708 75.2546 85.0985 75.2546 85.4239 75.58Z" fill="#9E9E9E"/>
<path fill-rule="evenodd" clip-rule="evenodd" d="M120.576 75.58C120.251 75.9055 120.251 76.4331 120.576 76.7585L122.487 78.6693H113.249C110.717 78.6693 108.665 80.7213 108.665 83.2526C108.665 85.7839 110.717 87.8359 113.249 87.8359H116.999C117.459 87.8359 117.832 87.4628 117.832 87.0026C117.832 86.5424 117.459 86.1693 116.999 86.1693H113.249C111.638 86.1693 110.332 84.8634 110.332 83.2526C110.332 81.6418 111.638 80.3359 113.249 80.3359H122.487L120.576 82.2467C120.251 82.5721 120.251 83.0998 120.576 83.4252C120.902 83.7506 121.429 83.7506 121.755 83.4252L125.088 80.0919C125.413 79.7664 125.413 79.2388 125.088 78.9133L121.755 75.58C121.429 75.2546 120.902 75.2546 120.576 75.58Z" fill="#9E9E9E"/>
<line x1="139.5" y1="70" x2="139.5" y2="94" stroke="#EFEFEF"/>
<line x1="77" y1="107.5" x2="721" y2="107.5" stroke="#EFEFEF"/>
<path fill-rule="evenodd" clip-rule="evenodd" d="M706.631 117.664H715.366C716.037 117.664 716.591 117.664 717.042 117.701C717.51 117.739 717.941 117.821 718.345 118.027C718.973 118.347 719.482 118.857 719.802 119.484C720.008 119.889 720.09 120.319 720.129 120.788C720.165 121.239 720.165 121.792 720.165 122.463V128.497C720.165 128.497 720.165 128.498 720.165 128.498V129.532C720.165 130.203 720.165 130.756 720.129 131.207C720.09 131.676 720.008 132.106 719.802 132.511C719.482 133.138 718.973 133.648 718.345 133.967C717.941 134.173 717.51 134.256 717.042 134.294C716.591 134.331 716.037 134.331 715.366 134.331H706.631C705.96 134.331 705.407 134.331 704.956 134.294C704.487 134.256 704.057 134.173 703.652 133.967C703.025 133.648 702.515 133.138 702.195 132.511C701.989 132.106 701.907 131.676 701.869 131.207C701.832 130.756 701.832 130.203 701.832 129.532V122.463C701.832 121.792 701.832 121.239 701.869 120.788C701.907 120.319 701.989 119.889 702.195 119.484C702.515 118.857 703.025 118.347 703.652 118.027C704.057 117.821 704.487 117.739 704.956 117.701C705.407 117.664 705.96 117.664 706.631 117.664ZM718.499 126.486V122.497C718.499 121.784 718.498 121.298 718.467 120.923C718.438 120.558 718.383 120.371 718.317 120.241C718.157 119.927 717.902 119.672 717.589 119.512C717.458 119.446 717.272 119.392 716.906 119.362C716.531 119.331 716.046 119.331 715.332 119.331H706.665C705.952 119.331 705.466 119.331 705.091 119.362C704.726 119.392 704.539 119.446 704.409 119.512C704.095 119.672 703.84 119.927 703.68 120.241C703.614 120.371 703.56 120.558 703.53 120.923C703.499 121.298 703.499 121.784 703.499 122.497V129.497C703.499 130.211 703.499 130.696 703.53 131.072C703.56 131.437 703.614 131.624 703.68 131.754C703.813 132.015 704.013 132.236 704.256 132.394L709.485 127.166C709.634 127.017 709.779 126.872 709.912 126.759C710.057 126.636 710.242 126.503 710.484 126.424C710.818 126.315 711.179 126.315 711.514 126.424C711.755 126.503 711.94 126.636 712.086 126.759C712.218 126.872 712.363 127.017 712.512 127.165L712.665 127.319L714.485 125.499C714.634 125.35 714.779 125.205 714.912 125.093C715.057 124.969 715.242 124.836 715.484 124.757C715.818 124.649 716.179 124.649 716.514 124.757C716.755 124.836 716.94 124.969 717.086 125.093C717.218 125.205 717.363 125.35 717.512 125.499L718.499 126.486ZM711.352 128.363C711.178 128.188 711.081 128.093 711.007 128.03C711.004 128.027 711.001 128.025 710.999 128.023C710.996 128.025 710.993 128.027 710.99 128.03C710.916 128.093 710.82 128.188 710.645 128.363L706.344 132.664C706.446 132.664 706.553 132.664 706.665 132.664H715.332C715.445 132.664 715.552 132.664 715.653 132.664L711.352 128.363ZM717.741 132.394L713.844 128.497L715.645 126.696C715.82 126.521 715.916 126.426 715.99 126.363C715.993 126.361 715.996 126.358 715.999 126.356C716.001 126.358 716.004 126.361 716.007 126.363C716.081 126.426 716.178 126.521 716.352 126.696L718.499 128.843V129.497C718.499 130.211 718.498 130.696 718.467 131.072C718.438 131.437 718.383 131.624 718.317 131.754C718.184 132.015 717.985 132.236 717.741 132.394ZM707.665 122.664C707.205 122.664 706.832 123.037 706.832 123.497C706.832 123.958 707.205 124.331 707.665 124.331C708.126 124.331 708.499 123.958 708.499 123.497C708.499 123.037 708.126 122.664 707.665 122.664ZM705.165 123.497C705.165 122.117 706.285 120.997 707.665 120.997C709.046 120.997 710.165 122.117 710.165 123.497C710.165 124.878 709.046 125.997 707.665 125.997C706.285 125.997 705.165 124.878 705.165 123.497Z" fill="#9E9E9E"/>
<path d="M159.536 124.535L156 128.07L152.464 124.535" stroke="#9E9E9E" stroke-width="1.5" stroke-linecap="round" stroke-linejoin="round"/>
<path d="M82.1974 121.273V130H80.8807V121.273H82.1974ZM85.2869 126.114V130H84.0128V123.455H85.2358V124.52H85.3168C85.4673 124.173 85.7031 123.895 86.0241 123.685C86.348 123.474 86.7557 123.369 87.2472 123.369C87.6932 123.369 88.0838 123.463 88.419 123.651C88.7543 123.835 89.0142 124.111 89.1989 124.477C89.3835 124.844 89.4759 125.297 89.4759 125.837V130H88.2017V125.99C88.2017 125.516 88.0781 125.145 87.831 124.878C87.5838 124.608 87.2443 124.473 86.8125 124.473C86.517 124.473 86.2543 124.537 86.0241 124.665C85.7969 124.793 85.6165 124.98 85.483 125.227C85.3523 125.472 85.2869 125.767 85.2869 126.114ZM96.0895 125.053L94.9347 125.257C94.8864 125.109 94.8097 124.969 94.7045 124.835C94.6023 124.702 94.4631 124.592 94.2869 124.507C94.1108 124.422 93.8906 124.379 93.6264 124.379C93.2656 124.379 92.9645 124.46 92.723 124.622C92.4815 124.781 92.3608 124.987 92.3608 125.24C92.3608 125.459 92.4418 125.635 92.6037 125.768C92.7656 125.902 93.027 126.011 93.3878 126.097L94.4276 126.335C95.0298 126.474 95.4787 126.689 95.7741 126.979C96.0696 127.268 96.2173 127.645 96.2173 128.108C96.2173 128.5 96.1037 128.849 95.8764 129.156C95.652 129.46 95.3381 129.699 94.9347 129.872C94.5341 130.045 94.0696 130.132 93.5412 130.132C92.8082 130.132 92.2102 129.976 91.7472 129.663C91.2841 129.348 91 128.901 90.8949 128.321L92.1264 128.134C92.2031 128.455 92.3608 128.697 92.5994 128.862C92.8381 129.024 93.1491 129.105 93.5327 129.105C93.9503 129.105 94.2841 129.018 94.5341 128.845C94.7841 128.669 94.9091 128.455 94.9091 128.202C94.9091 127.997 94.8324 127.825 94.679 127.686C94.5284 127.547 94.2969 127.442 93.9844 127.371L92.8764 127.128C92.2656 126.989 91.8139 126.767 91.5213 126.463C91.2315 126.159 91.0866 125.774 91.0866 125.308C91.0866 124.922 91.1946 124.584 91.4105 124.294C91.6264 124.004 91.9247 123.778 92.3054 123.616C92.6861 123.452 93.1222 123.369 93.6136 123.369C94.321 123.369 94.8778 123.523 95.2841 123.83C95.6903 124.134 95.9588 124.541 96.0895 125.053ZM100.439 130.132C99.7944 130.132 99.239 129.994 98.7731 129.719C98.31 129.44 97.9521 129.05 97.6992 128.547C97.4492 128.041 97.3242 127.449 97.3242 126.77C97.3242 126.099 97.4492 125.509 97.6992 124.997C97.9521 124.486 98.3043 124.087 98.756 123.8C99.2106 123.513 99.7418 123.369 100.35 123.369C100.719 123.369 101.077 123.43 101.424 123.553C101.77 123.675 102.081 123.866 102.357 124.128C102.632 124.389 102.85 124.729 103.009 125.146C103.168 125.561 103.248 126.065 103.248 126.659V127.111H98.0444V126.156H101.999C101.999 125.821 101.931 125.524 101.794 125.266C101.658 125.004 101.466 124.798 101.219 124.648C100.975 124.497 100.688 124.422 100.358 124.422C100 124.422 99.6879 124.51 99.4208 124.686C99.1566 124.859 98.9521 125.087 98.8072 125.368C98.6651 125.646 98.5941 125.949 98.5941 126.276V127.021C98.5941 127.459 98.6708 127.831 98.8242 128.138C98.9805 128.445 99.1978 128.679 99.4762 128.841C99.7546 129 100.08 129.08 100.452 129.08C100.694 129.08 100.914 129.045 101.113 128.977C101.311 128.906 101.483 128.801 101.628 128.662C101.773 128.523 101.884 128.351 101.961 128.146L103.167 128.364C103.07 128.719 102.897 129.03 102.647 129.297C102.4 129.561 102.088 129.767 101.713 129.915C101.341 130.06 100.917 130.132 100.439 130.132ZM104.661 130V123.455H105.893V124.494H105.961C106.08 124.142 106.29 123.865 106.592 123.663C106.896 123.459 107.239 123.357 107.623 123.357C107.702 123.357 107.796 123.359 107.904 123.365C108.015 123.371 108.102 123.378 108.164 123.386V124.605C108.113 124.591 108.022 124.575 107.891 124.558C107.761 124.538 107.63 124.528 107.499 124.528C107.198 124.528 106.93 124.592 106.694 124.72C106.461 124.845 106.276 125.02 106.14 125.244C106.004 125.466 105.935 125.719 105.935 126.003V130H104.661ZM112.709 123.455V124.477H109.134V123.455H112.709ZM110.092 121.886H111.366V128.078C111.366 128.325 111.403 128.511 111.477 128.636C111.551 128.759 111.646 128.842 111.763 128.888C111.882 128.93 112.011 128.952 112.151 128.952C112.253 128.952 112.342 128.945 112.419 128.93C112.496 128.916 112.555 128.905 112.598 128.896L112.828 129.949C112.754 129.977 112.649 130.006 112.513 130.034C112.376 130.065 112.206 130.082 112.001 130.085C111.666 130.091 111.354 130.031 111.064 129.906C110.774 129.781 110.54 129.588 110.361 129.327C110.182 129.065 110.092 128.737 110.092 128.342V121.886ZM117.396 130V121.273H122.808V122.406H118.713V125.065H122.42V126.195H118.713V130H117.396ZM124.325 130V123.455H125.599V130H124.325ZM124.969 122.445C124.747 122.445 124.557 122.371 124.398 122.223C124.241 122.072 124.163 121.893 124.163 121.686C124.163 121.476 124.241 121.297 124.398 121.149C124.557 120.999 124.747 120.923 124.969 120.923C125.19 120.923 125.379 120.999 125.536 121.149C125.695 121.297 125.774 121.476 125.774 121.686C125.774 121.893 125.695 122.072 125.536 122.223C125.379 122.371 125.19 122.445 124.969 122.445ZM130.135 130.132C129.49 130.132 128.934 129.994 128.468 129.719C128.005 129.44 127.647 129.05 127.395 128.547C127.145 128.041 127.02 127.449 127.02 126.77C127.02 126.099 127.145 125.509 127.395 124.997C127.647 124.486 128 124.087 128.451 123.8C128.906 123.513 129.437 123.369 130.045 123.369C130.414 123.369 130.772 123.43 131.119 123.553C131.466 123.675 131.777 123.866 132.052 124.128C132.328 124.389 132.545 124.729 132.704 125.146C132.863 125.561 132.943 126.065 132.943 126.659V127.111H127.74V126.156H131.694C131.694 125.821 131.626 125.524 131.49 125.266C131.353 125.004 131.162 124.798 130.914 124.648C130.67 124.497 130.383 124.422 130.054 124.422C129.696 124.422 129.383 124.51 129.116 124.686C128.852 124.859 128.647 125.087 128.502 125.368C128.36 125.646 128.289 125.949 128.289 126.276V127.021C128.289 127.459 128.366 127.831 128.52 128.138C128.676 128.445 128.893 128.679 129.172 128.841C129.45 129 129.775 129.08 130.147 129.08C130.389 129.08 130.609 129.045 130.808 128.977C131.007 128.906 131.179 128.801 131.324 128.662C131.468 128.523 131.579 128.351 131.656 128.146L132.862 128.364C132.765 128.719 132.592 129.03 132.342 129.297C132.095 129.561 131.784 129.767 131.409 129.915C131.037 130.06 130.612 130.132 130.135 130.132ZM135.631 121.273V130H134.357V121.273H135.631ZM139.795 130.128C139.267 130.128 138.795 129.993 138.38 129.723C137.968 129.45 137.645 129.062 137.409 128.56C137.176 128.054 137.059 127.447 137.059 126.74C137.059 126.033 137.177 125.428 137.413 124.925C137.652 124.422 137.978 124.037 138.393 123.77C138.808 123.503 139.278 123.369 139.804 123.369C140.21 123.369 140.537 123.438 140.784 123.574C141.034 123.707 141.227 123.864 141.363 124.043C141.502 124.222 141.61 124.379 141.687 124.516H141.764V121.273H143.038V130H141.794V128.982H141.687C141.61 129.121 141.5 129.28 141.355 129.459C141.213 129.638 141.017 129.794 140.767 129.928C140.517 130.061 140.193 130.128 139.795 130.128ZM140.076 129.041C140.443 129.041 140.752 128.945 141.005 128.751C141.261 128.555 141.454 128.284 141.585 127.938C141.718 127.591 141.785 127.187 141.785 126.727C141.785 126.273 141.72 125.875 141.589 125.534C141.458 125.193 141.267 124.928 141.014 124.737C140.761 124.547 140.449 124.452 140.076 124.452C139.693 124.452 139.373 124.551 139.118 124.75C138.862 124.949 138.669 125.22 138.538 125.564C138.41 125.908 138.346 126.295 138.346 126.727C138.346 127.165 138.412 127.558 138.542 127.908C138.673 128.257 138.866 128.534 139.122 128.739C139.38 128.94 139.699 129.041 140.076 129.041Z" fill="#707070"/>
<path d="M255.536 124.535L252 128.07L248.464 124.535" stroke="#9E9E9E" stroke-width="1.5" stroke-linecap="round" stroke-linejoin="round"/>
<path d="M178.268 121.273V130H176.951V121.273H178.268ZM181.357 126.114V130H180.083V123.455H181.306V124.52H181.387C181.538 124.173 181.773 123.895 182.094 123.685C182.418 123.474 182.826 123.369 183.317 123.369C183.763 123.369 184.154 123.463 184.489 123.651C184.825 123.835 185.085 124.111 185.269 124.477C185.454 124.844 185.546 125.297 185.546 125.837V130H184.272V125.99C184.272 125.516 184.148 125.145 183.901 124.878C183.654 124.608 183.315 124.473 182.883 124.473C182.587 124.473 182.325 124.537 182.094 124.665C181.867 124.793 181.687 124.98 181.553 125.227C181.423 125.472 181.357 125.767 181.357 126.114ZM192.16 125.053L191.005 125.257C190.957 125.109 190.88 124.969 190.775 124.835C190.673 124.702 190.533 124.592 190.357 124.507C190.181 124.422 189.961 124.379 189.697 124.379C189.336 124.379 189.035 124.46 188.793 124.622C188.552 124.781 188.431 124.987 188.431 125.24C188.431 125.459 188.512 125.635 188.674 125.768C188.836 125.902 189.097 126.011 189.458 126.097L190.498 126.335C191.1 126.474 191.549 126.689 191.844 126.979C192.14 127.268 192.288 127.645 192.288 128.108C192.288 128.5 192.174 128.849 191.947 129.156C191.722 129.46 191.408 129.699 191.005 129.872C190.604 130.045 190.14 130.132 189.612 130.132C188.879 130.132 188.281 129.976 187.817 129.663C187.354 129.348 187.07 128.901 186.965 128.321L188.197 128.134C188.273 128.455 188.431 128.697 188.67 128.862C188.908 129.024 189.219 129.105 189.603 129.105C190.021 129.105 190.354 129.018 190.604 128.845C190.854 128.669 190.979 128.455 190.979 128.202C190.979 127.997 190.903 127.825 190.749 127.686C190.599 127.547 190.367 127.442 190.055 127.371L188.947 127.128C188.336 126.989 187.884 126.767 187.592 126.463C187.302 126.159 187.157 125.774 187.157 125.308C187.157 124.922 187.265 124.584 187.481 124.294C187.697 124.004 187.995 123.778 188.376 123.616C188.756 123.452 189.192 123.369 189.684 123.369C190.391 123.369 190.948 123.523 191.354 123.83C191.761 124.134 192.029 124.541 192.16 125.053ZM196.51 130.132C195.865 130.132 195.309 129.994 194.843 129.719C194.38 129.44 194.022 129.05 193.77 128.547C193.52 128.041 193.395 127.449 193.395 126.77C193.395 126.099 193.52 125.509 193.77 124.997C194.022 124.486 194.375 124.087 194.826 123.8C195.281 123.513 195.812 123.369 196.42 123.369C196.789 123.369 197.147 123.43 197.494 123.553C197.841 123.675 198.152 123.866 198.427 124.128C198.703 124.389 198.92 124.729 199.079 125.146C199.238 125.561 199.318 126.065 199.318 126.659V127.111H194.115V126.156H198.069C198.069 125.821 198.001 125.524 197.865 125.266C197.728 125.004 197.537 124.798 197.289 124.648C197.045 124.497 196.758 124.422 196.429 124.422C196.071 124.422 195.758 124.51 195.491 124.686C195.227 124.859 195.022 125.087 194.877 125.368C194.735 125.646 194.664 125.949 194.664 126.276V127.021C194.664 127.459 194.741 127.831 194.895 128.138C195.051 128.445 195.268 128.679 195.547 128.841C195.825 129 196.15 129.08 196.522 129.08C196.764 129.08 196.984 129.045 197.183 128.977C197.382 128.906 197.554 128.801 197.699 128.662C197.843 128.523 197.954 128.351 198.031 128.146L199.237 128.364C199.14 128.719 198.967 129.03 198.717 129.297C198.47 129.561 198.159 129.767 197.784 129.915C197.412 130.06 196.987 130.132 196.51 130.132ZM200.732 130V123.455H201.963V124.494H202.031C202.151 124.142 202.361 123.865 202.662 123.663C202.966 123.459 203.31 123.357 203.693 123.357C203.773 123.357 203.866 123.359 203.974 123.365C204.085 123.371 204.172 123.378 204.234 123.386V124.605C204.183 124.591 204.092 124.575 203.962 124.558C203.831 124.538 203.7 124.528 203.57 124.528C203.268 124.528 203 124.592 202.764 124.72C202.531 124.845 202.347 125.02 202.21 125.244C202.074 125.466 202.006 125.719 202.006 126.003V130H200.732ZM208.779 123.455V124.477H205.204V123.455H208.779ZM206.163 121.886H207.437V128.078C207.437 128.325 207.474 128.511 207.548 128.636C207.621 128.759 207.717 128.842 207.833 128.888C207.952 128.93 208.082 128.952 208.221 128.952C208.323 128.952 208.413 128.945 208.489 128.93C208.566 128.916 208.626 128.905 208.668 128.896L208.898 129.949C208.825 129.977 208.719 130.006 208.583 130.034C208.447 130.065 208.276 130.082 208.072 130.085C207.737 130.091 207.424 130.031 207.134 129.906C206.844 129.781 206.61 129.588 206.431 129.327C206.252 129.065 206.163 128.737 206.163 128.342V121.886ZM213.467 130V121.273H218.879V122.406H214.783V125.065H218.491V126.195H214.783V130H213.467ZM220.396 130V123.455H221.67V130H220.396ZM221.039 122.445C220.817 122.445 220.627 122.371 220.468 122.223C220.312 122.072 220.234 121.893 220.234 121.686C220.234 121.476 220.312 121.297 220.468 121.149C220.627 120.999 220.817 120.923 221.039 120.923C221.261 120.923 221.45 120.999 221.606 121.149C221.765 121.297 221.844 121.476 221.844 121.686C221.844 121.893 221.765 122.072 221.606 122.223C221.45 122.371 221.261 122.445 221.039 122.445ZM226.205 130.132C225.56 130.132 225.005 129.994 224.539 129.719C224.076 129.44 223.718 129.05 223.465 128.547C223.215 128.041 223.09 127.449 223.09 126.77C223.09 126.099 223.215 125.509 223.465 124.997C223.718 124.486 224.07 124.087 224.522 123.8C224.976 123.513 225.507 123.369 226.115 123.369C226.485 123.369 226.843 123.43 227.189 123.553C227.536 123.675 227.847 123.866 228.123 124.128C228.398 124.389 228.615 124.729 228.775 125.146C228.934 125.561 229.013 126.065 229.013 126.659V127.111H223.81V126.156H227.765C227.765 125.821 227.696 125.524 227.56 125.266C227.424 125.004 227.232 124.798 226.985 124.648C226.74 124.497 226.453 124.422 226.124 124.422C225.766 124.422 225.453 124.51 225.186 124.686C224.922 124.859 224.718 125.087 224.573 125.368C224.431 125.646 224.36 125.949 224.36 126.276V127.021C224.36 127.459 224.436 127.831 224.59 128.138C224.746 128.445 224.963 128.679 225.242 128.841C225.52 129 225.846 129.08 226.218 129.08C226.459 129.08 226.679 129.045 226.878 128.977C227.077 128.906 227.249 128.801 227.394 128.662C227.539 128.523 227.65 128.351 227.726 128.146L228.932 128.364C228.836 128.719 228.662 129.03 228.412 129.297C228.165 129.561 227.854 129.767 227.479 129.915C227.107 130.06 226.682 130.132 226.205 130.132ZM231.701 121.273V130H230.427V121.273H231.701ZM235.865 130.128C235.337 130.128 234.865 129.993 234.451 129.723C234.039 129.45 233.715 129.062 233.479 128.56C233.246 128.054 233.13 127.447 233.13 126.74C233.13 126.033 233.248 125.428 233.483 124.925C233.722 124.422 234.049 124.037 234.463 123.77C234.878 123.503 235.348 123.369 235.874 123.369C236.28 123.369 236.607 123.438 236.854 123.574C237.104 123.707 237.297 123.864 237.434 124.043C237.573 124.222 237.681 124.379 237.757 124.516H237.834V121.273H239.108V130H237.864V128.982H237.757C237.681 129.121 237.57 129.28 237.425 129.459C237.283 129.638 237.087 129.794 236.837 129.928C236.587 130.061 236.263 130.128 235.865 130.128ZM236.147 129.041C236.513 129.041 236.823 128.945 237.076 128.751C237.331 128.555 237.525 128.284 237.655 127.938C237.789 127.591 237.855 127.187 237.855 126.727C237.855 126.273 237.79 125.875 237.659 125.534C237.529 125.193 237.337 124.928 237.084 124.737C236.831 124.547 236.519 124.452 236.147 124.452C235.763 124.452 235.444 124.551 235.188 124.75C234.932 124.949 234.739 125.22 234.608 125.564C234.48 125.908 234.417 126.295 234.417 126.727C234.417 127.165 234.482 127.558 234.613 127.908C234.743 128.257 234.936 128.534 235.192 128.739C235.451 128.94 235.769 129.041 236.147 129.041Z" fill="#707070"/>
<line x1="77" y1="143.5" x2="721" y2="143.5" stroke="#EFEFEF"/>
<path fill-rule="evenodd" clip-rule="evenodd" d="M462.668 78.9974C462.668 78.5372 463.041 78.1641 463.501 78.1641H477.668C478.128 78.1641 478.501 78.5372 478.501 78.9974C478.501 79.4576 478.128 79.8307 477.668 79.8307H463.501C463.041 79.8307 462.668 79.4576 462.668 78.9974ZM462.668 82.3307C462.668 81.8705 463.041 81.4974 463.501 81.4974H474.335C474.795 81.4974 475.168 81.8705 475.168 82.3307C475.168 82.791 474.795 83.1641 474.335 83.1641H463.501C463.041 83.1641 462.668 82.791 462.668 82.3307ZM462.668 85.6641C462.668 85.2038 463.041 84.8307 463.501 84.8307H477.668C478.128 84.8307 478.501 85.2038 478.501 85.6641C478.501 86.1243 478.128 86.4974 477.668 86.4974H463.501C463.041 86.4974 462.668 86.1243 462.668 85.6641ZM462.668 88.9974C462.668 88.5372 463.041 88.1641 463.501 88.1641H474.335C474.795 88.1641 475.168 88.5372 475.168 88.9974C475.168 89.4576 474.795 89.8307 474.335 89.8307H463.501C463.041 89.8307 462.668 89.4576 462.668 88.9974Z" fill="#9E9E9E"/>
<path fill-rule="evenodd" clip-rule="evenodd" d="M546.668 78.9974C546.668 78.5372 547.041 78.1641 547.501 78.1641H562.501C562.962 78.1641 563.335 78.5372 563.335 78.9974C563.335 79.4576 562.962 79.8307 562.501 79.8307H547.501C547.041 79.8307 546.668 79.4576 546.668 78.9974ZM546.668 82.3307C546.668 81.8705 547.041 81.4974 547.501 81.4974H562.501C562.962 81.4974 563.335 81.8705 563.335 82.3307C563.335 82.791 562.962 83.1641 562.501 83.1641H547.501C547.041 83.1641 546.668 82.791 546.668 82.3307ZM546.668 85.6641C546.668 85.2038 547.041 84.8307 547.501 84.8307H562.501C562.962 84.8307 563.335 85.2038 563.335 85.6641C563.335 86.1243 562.962 86.4974 562.501 86.4974H547.501C547.041 86.4974 546.668 86.1243 546.668 85.6641ZM546.668 88.9974C546.668 88.5372 547.041 88.1641 547.501 88.1641H562.501C562.962 88.1641 563.335 88.5372 563.335 88.9974C563.335 89.4576 562.962 89.8307 562.501 89.8307H547.501C547.041 89.8307 546.668 89.4576 546.668 88.9974Z" fill="#9E9E9E"/>
<path fill-rule="evenodd" clip-rule="evenodd" d="M519.5 78.9974C519.5 78.5372 519.873 78.1641 520.333 78.1641H534.5C534.96 78.1641 535.333 78.5372 535.333 78.9974C535.333 79.4576 534.96 79.8307 534.5 79.8307H520.333C519.873 79.8307 519.5 79.4576 519.5 78.9974ZM522.833 82.3307C522.833 81.8705 523.206 81.4974 523.667 81.4974H534.5C534.96 81.4974 535.333 81.8705 535.333 82.3307C535.333 82.791 534.96 83.1641 534.5 83.1641H523.667C523.206 83.1641 522.833 82.791 522.833 82.3307ZM519.5 85.6641C519.5 85.2038 519.873 84.8307 520.333 84.8307H534.5C534.96 84.8307 535.333 85.2038 535.333 85.6641C535.333 86.1243 534.96 86.4974 534.5 86.4974H520.333C519.873 86.4974 519.5 86.1243 519.5 85.6641ZM522.833 88.9974C522.833 88.5372 523.206 88.1641 523.667 88.1641H534.5C534.96 88.1641 535.333 88.5372 535.333 88.9974C535.333 89.4576 534.96 89.8307 534.5 89.8307H523.667C523.206 89.8307 522.833 89.4576 522.833 88.9974Z" fill="#9E9E9E"/>
<path fill-rule="evenodd" clip-rule="evenodd" d="M490.668 78.9974C490.668 78.5372 491.041 78.1641 491.501 78.1641H506.501C506.962 78.1641 507.335 78.5372 507.335 78.9974C507.335 79.4576 506.962 79.8307 506.501 79.8307H491.501C491.041 79.8307 490.668 79.4576 490.668 78.9974ZM493.168 82.3307C493.168 81.8705 493.541 81.4974 494.001 81.4974H504.001C504.462 81.4974 504.835 81.8705 504.835 82.3307C504.835 82.791 504.462 83.1641 504.001 83.1641H494.001C493.541 83.1641 493.168 82.791 493.168 82.3307ZM490.668 85.6641C490.668 85.2038 491.041 84.8307 491.501 84.8307H506.501C506.962 84.8307 507.335 85.2038 507.335 85.6641C507.335 86.1243 506.962 86.4974 506.501 86.4974H491.501C491.041 86.4974 490.668 86.1243 490.668 85.6641ZM493.168 88.9974C493.168 88.5372 493.541 88.1641 494.001 88.1641H504.001C504.462 88.1641 504.835 88.5372 504.835 88.9974C504.835 89.4576 504.462 89.8307 504.001 89.8307H494.001C493.541 89.8307 493.168 89.4576 493.168 88.9974Z" fill="#9E9E9E"/>
<line x1="577.5" y1="72" x2="577.5" y2="96" stroke="#EFEFEF"/>
<path d="M312.534 77.8636V89.5H310.773V79.625H310.705L307.92 81.4432V79.7614L310.824 77.8636H312.534ZM315.682 89.5V88.2273L319.619 84.1477C320.04 83.7045 320.386 83.3163 320.659 82.983C320.936 82.6458 321.142 82.3258 321.278 82.0227C321.415 81.7197 321.483 81.3977 321.483 81.0568C321.483 80.6705 321.392 80.3371 321.21 80.0568C321.028 79.7727 320.78 79.5549 320.466 79.4034C320.152 79.2481 319.797 79.1705 319.403 79.1705C318.987 79.1705 318.623 79.2557 318.312 79.4261C318.002 79.5966 317.763 79.8371 317.597 80.1477C317.43 80.4583 317.347 80.822 317.347 81.2386H315.67C315.67 80.5303 315.833 79.911 316.159 79.3807C316.485 78.8504 316.932 78.4394 317.5 78.1477C318.068 77.8523 318.714 77.7045 319.438 77.7045C320.169 77.7045 320.813 77.8504 321.369 78.142C321.93 78.4299 322.367 78.8239 322.682 79.3239C322.996 79.8201 323.153 80.3807 323.153 81.0057C323.153 81.4375 323.072 81.8598 322.909 82.2727C322.75 82.6856 322.472 83.1458 322.074 83.6534C321.676 84.1572 321.123 84.7689 320.415 85.4886L318.102 87.9091V87.9943H323.341V89.5H315.682ZM329.751 92.7727V80.7727H331.411V82.1875H331.553C331.651 82.0057 331.793 81.7955 331.979 81.5568C332.164 81.3182 332.422 81.1098 332.751 80.9318C333.081 80.75 333.517 80.6591 334.058 80.6591C334.763 80.6591 335.392 80.8371 335.945 81.1932C336.498 81.5492 336.931 82.0625 337.246 82.733C337.564 83.4034 337.723 84.2102 337.723 85.1534C337.723 86.0966 337.566 86.9053 337.251 87.5795C336.937 88.25 336.505 88.767 335.956 89.1307C335.407 89.4905 334.78 89.6705 334.075 89.6705C333.545 89.6705 333.111 89.5814 332.774 89.4034C332.441 89.2254 332.179 89.017 331.99 88.7784C331.801 88.5398 331.655 88.3277 331.553 88.142H331.45V92.7727H329.751ZM331.416 85.1364C331.416 85.75 331.505 86.2879 331.683 86.75C331.861 87.2121 332.119 87.5739 332.456 87.8352C332.793 88.0928 333.206 88.2216 333.695 88.2216C334.202 88.2216 334.626 88.0871 334.967 87.8182C335.308 87.5455 335.566 87.1761 335.74 86.7102C335.918 86.2443 336.007 85.7197 336.007 85.1364C336.007 84.5606 335.92 84.0436 335.746 83.5852C335.575 83.1269 335.318 82.7652 334.973 82.5C334.632 82.2348 334.206 82.1023 333.695 82.1023C333.202 82.1023 332.786 82.2292 332.445 82.483C332.107 82.7367 331.852 83.0909 331.678 83.5455C331.503 84 331.416 84.5303 331.416 85.1364ZM343.7 80.7727V82.1364H338.933V80.7727H343.7ZM340.212 78.6818H341.911V86.9375C341.911 87.267 341.96 87.5152 342.058 87.6818C342.157 87.8447 342.284 87.9564 342.439 88.017C342.598 88.0739 342.77 88.1023 342.956 88.1023C343.092 88.1023 343.212 88.0928 343.314 88.0739C343.416 88.0549 343.496 88.0398 343.553 88.0284L343.859 89.4318C343.761 89.4697 343.621 89.5076 343.439 89.5455C343.257 89.5871 343.03 89.6098 342.757 89.6136C342.31 89.6212 341.893 89.5417 341.507 89.375C341.121 89.2083 340.808 88.9508 340.57 88.6023C340.331 88.2538 340.212 87.8163 340.212 87.2898V78.6818Z" fill="#707070"/>
<path d="M436.536 82.5348L433 86.0703L429.464 82.5348" stroke="#9E9E9E" stroke-width="1.5" stroke-linecap="round" stroke-linejoin="round"/>
<line x1="449.5" y1="72" x2="449.5" y2="96" stroke="#EFEFEF"/>
</svg>
