<svg width="140" height="24" viewBox="0 0 140 24" fill="none" xmlns="http://www.w3.org/2000/svg">
<g id="WH_Logo">
<path id="Fill 1" fill-rule="evenodd" clip-rule="evenodd" d="M44.5124 20.0328C41.8322 20.0328 39.7309 17.8309 39.7309 15.0172V14.9524C39.7309 12.0834 41.7147 10.0016 44.4477 10.0016C47.1291 10.0016 49.2292 12.2046 49.2292 15.0172V15.0832C49.2292 17.9521 47.2466 20.0328 44.5124 20.0328ZM35.1465 15.0161V15.0821C35.1465 20.0821 39.2316 23.9998 44.4483 23.9998C49.6997 23.9998 53.8136 20.0545 53.8136 15.0161V14.9513C53.8136 9.86737 49.816 6.03369 44.513 6.03369C39.2616 6.03369 35.1465 9.97896 35.1465 15.0161Z" fill="#1F243D"/>
<path id="Fill 4" fill-rule="evenodd" clip-rule="evenodd" d="M61.7429 10.5461V6.35367H57.0933V23.5986H61.7429V17.2715C61.7429 13.1703 63.698 10.9121 67.2473 10.9121H67.3432V6.02129C64.8571 5.9529 63.161 7.1636 62.0594 9.79497L61.7429 10.5461Z" fill="#1F243D"/>
<path id="Fill 6" fill-rule="evenodd" clip-rule="evenodd" d="M80.8407 6.35946L74.7742 13.0117V0H70.1245V23.6044H74.7742V18.3596L76.6993 16.3234L76.812 16.501L81.349 23.6044H86.6567L79.8386 13.0933L86.3427 6.35946H80.8407Z" fill="#1F243D"/>
<path id="Fill 8" fill-rule="evenodd" clip-rule="evenodd" d="M93.8069 8.78806L93.5144 9.16602V0H88.8647V23.6044H93.5144V13.9656C93.5144 11.5898 94.7083 10.2279 96.7904 10.2279C98.8378 10.2279 99.9669 11.555 99.9669 13.9656V23.6044H104.618V12.3913C104.618 8.40889 102.451 6.03189 98.821 6.03189C96.2906 6.03189 94.8665 7.42497 93.8069 8.78806Z" fill="#1F243D"/>
<path id="Fill 10" fill-rule="evenodd" clip-rule="evenodd" d="M114.274 20.8166C112.524 20.8166 111.393 19.9155 111.393 18.5212V18.4564C111.393 16.8114 112.706 15.867 114.996 15.867C116.153 15.867 117.306 16.1046 118.241 16.5366L118.337 16.581V17.5709C118.337 19.4823 116.666 20.8166 114.274 20.8166ZM108.451 7.50075L109.597 11.0009C111.179 10.4285 112.488 10.0985 114.341 10.0985C116.875 10.0985 118.27 11.2984 118.27 13.475V13.9994L118.053 13.925C117.025 13.5734 115.716 13.2123 113.816 13.2123C109.424 13.2123 106.907 15.1969 106.907 18.655V18.721C106.907 22.3219 109.85 23.9334 112.767 23.9334C114.937 23.9334 116.633 23.2218 117.953 21.7579L118.238 21.4424V23.6058H122.723V13.5734C122.723 11.1604 122.101 9.3138 120.873 8.0827C119.601 6.80961 117.645 6.16406 115.061 6.16406C112.159 6.16406 110.304 6.69682 108.451 7.50075Z" fill="#1F243D"/>
<path id="Fill 12" fill-rule="evenodd" clip-rule="evenodd" d="M130.911 23.6044V0H126.261V23.6044H130.911Z" fill="#1F243D"/>
<path id="Fill 14" fill-rule="evenodd" clip-rule="evenodd" d="M139.489 23.6044V0H134.839V23.6044H139.489Z" fill="#1F243D"/>
<path id="Fill 16" fill-rule="evenodd" clip-rule="evenodd" d="M25.5994 16.6666L22.5979 7.0974L20.1934 14.346L23.4382 23.758H27.7487L35.7954 0H30.6962L25.5994 16.6666Z" fill="#217CF5"/>
<path id="Fill 19" fill-rule="evenodd" clip-rule="evenodd" d="M13.2047 6.89461L12.3824 9.69278L10.3314 16.6666L5.23824 0H0L8.04675 23.758H12.3584L14.6647 16.9174L15.6164 14.0976L17.8316 7.52936L20.3716 0H15.2316L13.2047 6.89461Z" fill="#1F243D"/>
</g>
</svg>
