<svg width="804" height="208" viewBox="0 0 804 208" fill="none" xmlns="http://www.w3.org/2000/svg">
<rect width="804" height="208" fill="#F9FAFB"/>
<rect x="132" y="120" width="320" height="8" rx="4" fill="#EFEFEF"/>
<rect x="132" y="120" width="44" height="8" rx="4" fill="#217CF5"/>
<g clip-path="url(#clip0_880_11949)">
<rect x="84" y="124" width="48" height="1" fill="#C54600"/>
<g clip-path="url(#clip1_880_11949)">
<rect x="84" y="112" width="24" height="24" rx="12" fill="#C54600"/>
<path d="M97.1825 119.273V128H96.1257V120.381H96.0746L93.9439 121.795V120.722L96.1257 119.273H97.1825Z" fill="white"/>
</g>
</g>
<g clip-path="url(#clip2_880_11949)">
<rect x="292" y="72" width="1" height="48" fill="#C54600"/>
<g clip-path="url(#clip3_880_11949)">
<rect x="280" y="72" width="24" height="24" rx="12" fill="#C54600"/>
<path d="M289.271 88V87.233L292.151 84.0795C292.489 83.7102 292.768 83.3892 292.987 83.1165C293.205 82.8409 293.367 82.5824 293.472 82.3409C293.58 82.0966 293.634 81.8409 293.634 81.5739C293.634 81.267 293.56 81.0014 293.413 80.777C293.268 80.5526 293.069 80.3793 292.816 80.2571C292.563 80.1349 292.279 80.0739 291.964 80.0739C291.629 80.0739 291.336 80.1435 291.086 80.2827C290.839 80.419 290.647 80.6108 290.511 80.858C290.377 81.1051 290.31 81.3949 290.31 81.7273H289.305C289.305 81.2159 289.423 80.767 289.658 80.3807C289.894 79.9943 290.215 79.6932 290.621 79.4773C291.031 79.2614 291.489 79.1534 291.998 79.1534C292.509 79.1534 292.962 79.2614 293.357 79.4773C293.752 79.6932 294.062 79.9844 294.286 80.3509C294.511 80.7173 294.623 81.125 294.623 81.5739C294.623 81.8949 294.565 82.2088 294.448 82.5156C294.335 82.8196 294.136 83.1591 293.852 83.5341C293.57 83.9062 293.18 84.3608 292.68 84.8977L290.719 86.9943V87.0625H294.776V88H289.271Z" fill="white"/>
</g>
</g>
<g clip-path="url(#clip4_880_11949)">
<rect x="154" y="72" width="1" height="48" fill="#C54600"/>
<g clip-path="url(#clip5_880_11949)">
<rect x="142" y="72" width="24" height="24" rx="12" fill="#C54600"/>
<path d="M154.032 88.1193C153.469 88.1193 152.968 88.0227 152.528 87.8295C152.09 87.6364 151.742 87.3679 151.484 87.0241C151.228 86.6776 151.089 86.2756 151.066 85.8182H152.14C152.163 86.0994 152.259 86.3423 152.43 86.5469C152.6 86.7486 152.823 86.9048 153.099 87.0156C153.374 87.1264 153.68 87.1818 154.015 87.1818C154.39 87.1818 154.722 87.1165 155.012 86.9858C155.302 86.8551 155.529 86.6733 155.694 86.4403C155.859 86.2074 155.941 85.9375 155.941 85.6307C155.941 85.3097 155.862 85.027 155.702 84.7827C155.543 84.5355 155.31 84.3423 155.004 84.2031C154.697 84.0639 154.322 83.9943 153.879 83.9943H153.18V83.0568H153.879C154.225 83.0568 154.529 82.9943 154.79 82.8693C155.055 82.7443 155.261 82.5682 155.408 82.3409C155.559 82.1136 155.634 81.8466 155.634 81.5398C155.634 81.2443 155.569 80.9872 155.438 80.7685C155.308 80.5497 155.123 80.3793 154.884 80.2571C154.648 80.1349 154.37 80.0739 154.049 80.0739C153.748 80.0739 153.464 80.1293 153.197 80.2401C152.933 80.348 152.717 80.5057 152.549 80.7131C152.381 80.9176 152.29 81.1648 152.276 81.4545H151.254C151.271 80.9972 151.408 80.5966 151.667 80.2528C151.925 79.9062 152.263 79.6364 152.681 79.4432C153.102 79.25 153.563 79.1534 154.066 79.1534C154.606 79.1534 155.069 79.2628 155.455 79.4815C155.842 79.6974 156.138 79.983 156.346 80.3381C156.553 80.6932 156.657 81.0767 156.657 81.4886C156.657 81.9801 156.528 82.3991 156.269 82.7457C156.013 83.0923 155.665 83.3324 155.225 83.4659V83.5341C155.776 83.625 156.207 83.8594 156.516 84.2372C156.826 84.6122 156.981 85.0767 156.981 85.6307C156.981 86.1051 156.852 86.5312 156.593 86.9091C156.337 87.2841 155.988 87.5795 155.545 87.7955C155.102 88.0114 154.597 88.1193 154.032 88.1193Z" fill="white"/>
</g>
</g>
<rect x="640" y="110" width="16" height="16" rx="8" stroke="#217CF5" stroke-linecap="round" stroke-linejoin="round" stroke-dasharray="2 2"/>
<g clip-path="url(#clip6_880_11949)">
<rect x="592" y="118" width="48" height="1" fill="#C54600"/>
<g clip-path="url(#clip7_880_11949)">
<rect x="592" y="106" width="24" height="24" rx="12" fill="#C54600"/>
<path d="M605.183 113.273V122H604.126V114.381H604.075L601.944 115.795V114.722L604.126 113.273H605.183Z" fill="white"/>
</g>
</g>
<g clip-path="url(#clip8_880_11949)">
<rect x="648" y="62" width="1" height="47.5" fill="#C54600"/>
<g clip-path="url(#clip9_880_11949)">
<rect x="636" y="62" width="24" height="24" rx="12" fill="#C54600"/>
<path d="M645.271 78V77.233L648.151 74.0795C648.489 73.7102 648.768 73.3892 648.987 73.1165C649.205 72.8409 649.367 72.5824 649.472 72.3409C649.58 72.0966 649.634 71.8409 649.634 71.5739C649.634 71.267 649.56 71.0014 649.413 70.777C649.268 70.5526 649.069 70.3793 648.816 70.2571C648.563 70.1349 648.279 70.0739 647.964 70.0739C647.629 70.0739 647.336 70.1435 647.086 70.2827C646.839 70.419 646.647 70.6108 646.511 70.858C646.377 71.1051 646.31 71.3949 646.31 71.7273H645.305C645.305 71.2159 645.423 70.767 645.658 70.3807C645.894 69.9943 646.215 69.6932 646.621 69.4773C647.031 69.2614 647.489 69.1534 647.998 69.1534C648.509 69.1534 648.962 69.2614 649.357 69.4773C649.752 69.6932 650.062 69.9844 650.286 70.3509C650.511 70.7173 650.623 71.125 650.623 71.5739C650.623 71.8949 650.565 72.2088 650.448 72.5156C650.335 72.8196 650.136 73.1591 649.852 73.5341C649.57 73.9062 649.18 74.3608 648.68 74.8977L646.719 76.9943V77.0625H650.776V78H645.271Z" fill="white"/>
</g>
</g>
<defs>
<clipPath id="clip0_880_11949">
<rect width="48" height="24" fill="white" transform="translate(84 112)"/>
</clipPath>
<clipPath id="clip1_880_11949">
<rect x="84" y="112" width="24" height="24" rx="12" fill="white"/>
</clipPath>
<clipPath id="clip2_880_11949">
<rect width="24" height="48" fill="white" transform="translate(280 72)"/>
</clipPath>
<clipPath id="clip3_880_11949">
<rect x="280" y="72" width="24" height="24" rx="12" fill="white"/>
</clipPath>
<clipPath id="clip4_880_11949">
<rect width="24" height="48" fill="white" transform="translate(142 72)"/>
</clipPath>
<clipPath id="clip5_880_11949">
<rect x="142" y="72" width="24" height="24" rx="12" fill="white"/>
</clipPath>
<clipPath id="clip6_880_11949">
<rect width="47.5" height="24" fill="white" transform="translate(592 106)"/>
</clipPath>
<clipPath id="clip7_880_11949">
<rect x="592" y="106" width="24" height="24" rx="12" fill="white"/>
</clipPath>
<clipPath id="clip8_880_11949">
<rect width="24" height="47.5" fill="white" transform="translate(636 62)"/>
</clipPath>
<clipPath id="clip9_880_11949">
<rect x="636" y="62" width="24" height="24" rx="12" fill="white"/>
</clipPath>
</defs>
</svg>
