<svg width="392" height="161" viewBox="0 0 392 161" fill="none" xmlns="http://www.w3.org/2000/svg">
<rect width="392" height="161" fill="#F9FAFB"/>
<g opacity="0.2">
<rect x="100" y="92" width="236" height="8" rx="4" fill="#EFEFEF"/>
<rect x="100" y="92" width="32.45" height="8" rx="4" fill="#217CF5"/>
</g>
<g opacity="0.2">
<rect x="100" y="92" width="236" height="8" rx="4" fill="#EFEFEF"/>
<rect x="100" y="92" width="32.45" height="8" rx="4" fill="#217CF5"/>
</g>
<rect x="99.5" y="91.5" width="237" height="9" stroke="#0D69D4"/>
<g clip-path="url(#clip0_880_11886)">
<mask maskUnits="userSpaceOnUse" x="0" y="0" width="0" height="0" fill="black">
<rect fill="white" width="0" height="0"/>
</mask>
<path d="M44.2929 43.2929C43.9024 43.6834 43.9024 44.3166 44.2929 44.7071L50.6569 51.0711C51.0474 51.4616 51.6805 51.4616 52.0711 51.0711C52.4616 50.6805 52.4616 50.0474 52.0711 49.6569L46.4142 44L52.0711 38.3431C52.4616 37.9526 52.4616 37.3195 52.0711 36.9289C51.6805 36.5384 51.0474 36.5384 50.6569 36.9289L44.2929 43.2929ZM75.7071 44.7071C76.0976 44.3166 76.0976 43.6834 75.7071 43.2929L69.3431 36.9289C68.9526 36.5384 68.3195 36.5384 67.9289 36.9289C67.5384 37.3195 67.5384 37.9526 67.9289 38.3431L73.5858 44L67.9289 49.6569C67.5384 50.0474 67.5384 50.6805 67.9289 51.0711C68.3195 51.4616 68.9526 51.4616 69.3431 51.0711L75.7071 44.7071ZM45 45H75V43H45V45Z" fill="#6B6B6B" mask="url(#)"/>
</g>
<path fill-rule="evenodd" clip-rule="evenodd" d="M44.0001 36L44 37L44.0001 40.9915L44 41.024V42.024V46.0185V47.0185V47.0225L44.0001 51.014L44 52.014H45.0001H48.9891H49.9891H54.0113H55.0113H59H60V51.014V47.0185V46.0185V42.024V41.024V37V36H59H55.0113H54.0113H49.9891H48.9891H45.0001H44.0001ZM45.0001 37V40.9915H48.9891V37H45.0001ZM45.0001 47.0225V51.014H48.9891V47.0225H45.0001ZM59 47.0185V51.014H55.0113V47.0185H59ZM59 42.024V46.0185H55.0113V42.024H59ZM59 37V41.024H55.0113V37H59ZM54.0113 37H49.9891V40.9915V41.024H54.0113V37ZM54.0113 42.024H49.9891V46.0185H54.0113V42.024ZM54.0113 47.0185H49.9891V47.0225V51.014H54.0113V47.0185Z" fill="#6B6B6B"/>
<g clip-path="url(#clip1_880_11886)">
<g clip-path="url(#clip2_880_11886)">
<mask maskUnits="userSpaceOnUse" x="0" y="0" width="0" height="0" fill="black">
<rect fill="white" width="0" height="0"/>
</mask>
<path d="M53.2803 82.2197C52.9874 81.9268 52.5126 81.9268 52.2197 82.2197L47.4467 86.9926C47.1538 87.2855 47.1538 87.7604 47.4467 88.0533C47.7396 88.3462 48.2145 88.3462 48.5074 88.0533L52.75 83.8107L56.9926 88.0533C57.2855 88.3462 57.7604 88.3462 58.0533 88.0533C58.3462 87.7604 58.3462 87.2855 58.0533 86.9926L53.2803 82.2197ZM52.2197 95.2803C52.5126 95.5732 52.9874 95.5732 53.2803 95.2803L58.0533 90.5074C58.3462 90.2145 58.3462 89.7396 58.0533 89.4467C57.7604 89.1538 57.2855 89.1538 56.9926 89.4467L52.75 93.6893L48.5074 89.4467C48.2145 89.1538 47.7396 89.1538 47.4467 89.4467C47.1538 89.7396 47.1538 90.2145 47.4467 90.5074L52.2197 95.2803ZM52 82.75V94.75H53.5V82.75H52Z" fill="#0D69D4" mask="url(#)"/>
<mask maskUnits="userSpaceOnUse" x="0" y="0" width="0" height="0" fill="black">
<rect fill="white" width="0" height="0"/>
</mask>
<path d="M53.2803 96.7197C52.9874 96.4268 52.5126 96.4268 52.2197 96.7197L47.4467 101.493C47.1538 101.786 47.1538 102.26 47.4467 102.553C47.7396 102.846 48.2145 102.846 48.5074 102.553L52.75 98.3107L56.9926 102.553C57.2855 102.846 57.7604 102.846 58.0533 102.553C58.3462 102.26 58.3462 101.786 58.0533 101.493L53.2803 96.7197ZM52.2197 109.78C52.5126 110.073 52.9874 110.073 53.2803 109.78L58.0533 105.007C58.3462 104.714 58.3462 104.24 58.0533 103.947C57.7604 103.654 57.2855 103.654 56.9926 103.947L52.75 108.189L48.5074 103.947C48.2145 103.654 47.7396 103.654 47.4467 103.947C47.1538 104.24 47.1538 104.714 47.4467 105.007L52.2197 109.78ZM52 97.25V109.25H53.5V97.25H52Z" fill="#0D69D4" mask="url(#)"/>
</g>
</g>
<line x1="100.75" y1="43.75" x2="335.25" y2="43.75" stroke="#0D69D4" stroke-width="1.5" stroke-linecap="square"/>
<line x1="100.75" y1="38.75" x2="100.75" y2="49.25" stroke="#0D69D4" stroke-width="1.5" stroke-linecap="round"/>
<line x1="335.25" y1="49.25" x2="335.25" y2="38.75" stroke="#0D69D4" stroke-width="1.5" stroke-linecap="round"/>
<mask maskUnits="userSpaceOnUse" x="0" y="0" width="0" height="0" fill="black">
<rect fill="white" width="0" height="0"/>
</mask>
<path d="M100.146 83.1464C99.9512 83.3417 99.9512 83.6583 100.146 83.8536L103.328 87.0355C103.524 87.2308 103.84 87.2308 104.036 87.0355C104.231 86.8403 104.231 86.5237 104.036 86.3284L101.207 83.5L104.036 80.6716C104.231 80.4763 104.231 80.1597 104.036 79.9645C103.84 79.7692 103.524 79.7692 103.328 79.9645L100.146 83.1464ZM335.854 83.8536C336.049 83.6583 336.049 83.3417 335.854 83.1464L332.672 79.9645C332.476 79.7692 332.16 79.7692 331.964 79.9645C331.769 80.1597 331.769 80.4763 331.964 80.6716L334.793 83.5L331.964 86.3284C331.769 86.5237 331.769 86.8403 331.964 87.0355C332.16 87.2308 332.476 87.2308 332.672 87.0355L335.854 83.8536ZM100.5 84H335.5V83H100.5V84Z" fill="#0D69D4" mask="url(#)"/>
<rect x="100" y="92" width="236" height="8" fill="#0D69D4" fill-opacity="0.2"/>
<path d="M47.6989 115.119C47.1136 115.119 46.5966 115.016 46.1477 114.808C45.7017 114.598 45.3537 114.31 45.1037 113.943C44.8537 113.574 44.7301 113.153 44.733 112.682C44.7301 112.312 44.8026 111.972 44.9503 111.659C45.098 111.344 45.2997 111.081 45.5554 110.871C45.8139 110.658 46.1023 110.523 46.4205 110.466V110.415C46.0028 110.307 45.6705 110.072 45.4233 109.712C45.1761 109.348 45.054 108.935 45.0568 108.472C45.054 108.028 45.1662 107.632 45.3935 107.283C45.6207 106.933 45.9332 106.658 46.331 106.456C46.7315 106.254 47.1875 106.153 47.6989 106.153C48.2045 106.153 48.6563 106.254 49.054 106.456C49.4517 106.658 49.7642 106.933 49.9915 107.283C50.2216 107.632 50.3381 108.028 50.3409 108.472C50.3381 108.935 50.2116 109.348 49.9616 109.712C49.7145 110.072 49.3864 110.307 48.9773 110.415V110.466C49.2926 110.523 49.5767 110.658 49.8295 110.871C50.0824 111.081 50.2841 111.344 50.4347 111.659C50.5852 111.972 50.6619 112.312 50.6648 112.682C50.6619 113.153 50.5341 113.574 50.2812 113.943C50.0312 114.31 49.6832 114.598 49.2372 114.808C48.794 115.016 48.2813 115.119 47.6989 115.119ZM47.6989 114.182C48.0938 114.182 48.4347 114.118 48.7216 113.99C49.0085 113.862 49.2301 113.682 49.3864 113.449C49.5426 113.216 49.6222 112.943 49.625 112.631C49.6222 112.301 49.5369 112.01 49.3693 111.757C49.2017 111.504 48.973 111.305 48.6832 111.161C48.3963 111.016 48.0682 110.943 47.6989 110.943C47.3267 110.943 46.9943 111.016 46.7017 111.161C46.4119 111.305 46.1832 111.504 46.0156 111.757C45.8509 112.01 45.7699 112.301 45.7727 112.631C45.7699 112.943 45.8452 113.216 45.9986 113.449C46.1548 113.682 46.3778 113.862 46.6676 113.99C46.9574 114.118 47.3011 114.182 47.6989 114.182ZM47.6989 110.04C48.0114 110.04 48.2884 109.977 48.5298 109.852C48.7741 109.727 48.9659 109.553 49.1051 109.328C49.2443 109.104 49.3153 108.841 49.3182 108.54C49.3153 108.244 49.2457 107.987 49.1094 107.768C48.973 107.547 48.7841 107.376 48.5426 107.257C48.3011 107.135 48.0199 107.074 47.6989 107.074C47.3722 107.074 47.0866 107.135 46.8423 107.257C46.598 107.376 46.4091 107.547 46.2756 107.768C46.142 107.987 46.0767 108.244 46.0795 108.54C46.0767 108.841 46.1435 109.104 46.2798 109.328C46.419 109.553 46.6108 109.727 46.8551 109.852C47.0994 109.977 47.3807 110.04 47.6989 110.04ZM55.69 117.455V108.455H56.6616V109.494H56.7809C56.8548 109.381 56.957 109.236 57.0877 109.06C57.2212 108.881 57.4116 108.722 57.6587 108.582C57.9087 108.44 58.2468 108.369 58.6729 108.369C59.2241 108.369 59.7099 108.507 60.1303 108.783C60.5508 109.058 60.8789 109.449 61.1147 109.955C61.3505 110.46 61.4684 111.057 61.4684 111.744C61.4684 112.438 61.3505 113.038 61.1147 113.547C60.8789 114.053 60.5522 114.445 60.1346 114.723C59.717 114.999 59.2354 115.136 58.69 115.136C58.2695 115.136 57.9329 115.067 57.68 114.928C57.4272 114.786 57.2326 114.625 57.0962 114.446C56.9599 114.264 56.8548 114.114 56.7809 113.994H56.6957V117.455H55.69ZM56.6786 111.727C56.6786 112.222 56.7511 112.658 56.896 113.036C57.0408 113.411 57.2525 113.705 57.5309 113.918C57.8093 114.128 58.1502 114.233 58.5536 114.233C58.9741 114.233 59.3249 114.122 59.6062 113.901C59.8903 113.676 60.1033 113.375 60.2454 112.997C60.3903 112.616 60.4627 112.193 60.4627 111.727C60.4627 111.267 60.3917 110.852 60.2496 110.483C60.1104 110.111 59.8988 109.817 59.6147 109.601C59.3335 109.382 58.9798 109.273 58.5536 109.273C58.1445 109.273 57.8008 109.376 57.5224 109.584C57.244 109.788 57.0337 110.075 56.8917 110.445C56.7496 110.811 56.6786 111.239 56.6786 111.727ZM63.483 108.455L65.0511 111.131L66.6193 108.455H67.7784L65.6648 111.727L67.7784 115H66.6193L65.0511 112.46L63.483 115H62.3239L64.4034 111.727L62.3239 108.455H63.483Z" fill="black"/>
<defs>
<clipPath id="clip0_880_11886">
<rect width="16" height="16" fill="white" transform="translate(60 36)"/>
</clipPath>
<clipPath id="clip1_880_11886">
<rect width="8" height="16" fill="white" transform="matrix(0 1 -1 0 60 92)"/>
</clipPath>
<clipPath id="clip2_880_11886">
<rect width="28" height="16" fill="white" transform="matrix(0 1 -1 0 60 82)"/>
</clipPath>
</defs>
</svg>
