<svg width="804" height="325" viewBox="0 0 804 325" fill="none" xmlns="http://www.w3.org/2000/svg">
<rect width="804" height="325" fill="#F9FAFB"/>
<rect x="426" y="90" width="196" height="8" rx="4" fill="#EFEFEF"/>
<rect x="426" y="90" width="5.52113" height="8" rx="2.76056" fill="#217CF5"/>
<path d="M637.878 98.1449C637.205 98.142 636.629 97.9645 636.152 97.6122C635.675 97.2599 635.31 96.7472 635.057 96.0739C634.804 95.4006 634.678 94.5895 634.678 93.6406C634.678 92.6946 634.804 91.8864 635.057 91.2159C635.313 90.5455 635.679 90.0341 636.156 89.6818C636.636 89.3295 637.21 89.1534 637.878 89.1534C638.545 89.1534 639.118 89.331 639.595 89.6861C640.072 90.0384 640.438 90.5497 640.69 91.2202C640.946 91.8878 641.074 92.6946 641.074 93.6406C641.074 94.5923 640.947 95.4048 640.695 96.0781C640.442 96.7486 640.077 97.2614 639.599 97.6165C639.122 97.9688 638.548 98.1449 637.878 98.1449ZM637.878 97.0071C638.469 97.0071 638.93 96.7188 639.263 96.142C639.598 95.5653 639.766 94.7315 639.766 93.6406C639.766 92.9162 639.689 92.304 639.536 91.804C639.385 91.3011 639.168 90.9205 638.884 90.6619C638.602 90.4006 638.267 90.2699 637.878 90.2699C637.29 90.2699 636.828 90.5597 636.493 91.1392C636.158 91.7187 635.989 92.5526 635.986 93.6406C635.986 94.3679 636.061 94.983 636.212 95.4858C636.365 95.9858 636.582 96.3651 636.864 96.6236C637.145 96.8793 637.483 97.0071 637.878 97.0071ZM647.141 96.3636V95.9034C647.141 95.5739 647.209 95.2727 647.346 95C647.485 94.7244 647.686 94.5043 647.951 94.3395C648.218 94.1719 648.54 94.0881 648.918 94.0881C649.304 94.0881 649.628 94.1705 649.89 94.3352C650.151 94.5 650.348 94.7202 650.482 94.9957C650.618 95.2713 650.686 95.5739 650.686 95.9034V96.3636C650.686 96.6932 650.618 96.9957 650.482 97.2713C650.346 97.544 650.145 97.7642 649.881 97.9318C649.62 98.0966 649.299 98.179 648.918 98.179C648.534 98.179 648.211 98.0966 647.946 97.9318C647.682 97.7642 647.482 97.544 647.346 97.2713C647.209 96.9957 647.141 96.6932 647.141 96.3636ZM648.134 95.9034V96.3636C648.134 96.608 648.192 96.8295 648.309 97.0284C648.425 97.2273 648.628 97.3267 648.918 97.3267C649.205 97.3267 649.405 97.2273 649.519 97.0284C649.632 96.8295 649.689 96.608 649.689 96.3636V95.9034C649.689 95.6591 649.634 95.4375 649.523 95.2386C649.415 95.0398 649.213 94.9403 648.918 94.9403C648.634 94.9403 648.432 95.0398 648.313 95.2386C648.194 95.4375 648.134 95.6591 648.134 95.9034ZM642.752 91.3693V90.9091C642.752 90.5795 642.82 90.277 642.956 90.0014C643.096 89.7259 643.297 89.5057 643.561 89.3409C643.828 89.1761 644.151 89.0938 644.529 89.0938C644.915 89.0938 645.239 89.1761 645.5 89.3409C645.762 89.5057 645.959 89.7259 646.093 90.0014C646.226 90.277 646.293 90.5795 646.293 90.9091V91.3693C646.293 91.6989 646.225 92.0014 646.088 92.277C645.955 92.5497 645.756 92.7699 645.492 92.9375C645.23 93.1023 644.909 93.1847 644.529 93.1847C644.142 93.1847 643.817 93.1023 643.553 92.9375C643.292 92.7699 643.093 92.5497 642.956 92.277C642.82 92.0014 642.752 91.6989 642.752 91.3693ZM643.749 90.9091V91.3693C643.749 91.6136 643.806 91.8352 643.919 92.0341C644.036 92.233 644.239 92.3324 644.529 92.3324C644.813 92.3324 645.012 92.233 645.125 92.0341C645.242 91.8352 645.3 91.6136 645.3 91.3693V90.9091C645.3 90.6648 645.245 90.4432 645.134 90.2443C645.023 90.0455 644.821 89.946 644.529 89.946C644.245 89.946 644.043 90.0455 643.924 90.2443C643.807 90.4432 643.749 90.6648 643.749 90.9091ZM643.157 98L649.157 89.2727H650.175L644.175 98H643.157Z" fill="#344054"/>
<path d="M427.057 62V53.2727H430.006C430.688 53.2727 431.247 53.3892 431.685 53.6222C432.122 53.8523 432.446 54.169 432.656 54.5724C432.866 54.9759 432.972 55.4347 432.972 55.9489C432.972 56.4631 432.866 56.919 432.656 57.3168C432.446 57.7145 432.124 58.027 431.689 58.2543C431.254 58.4787 430.699 58.5909 430.023 58.5909H427.636V57.6364H429.989C430.455 57.6364 430.83 57.5682 431.114 57.4318C431.401 57.2955 431.608 57.1023 431.736 56.8523C431.866 56.5994 431.932 56.2983 431.932 55.9489C431.932 55.5994 431.866 55.294 431.736 55.0327C431.605 54.7713 431.396 54.5696 431.109 54.4276C430.822 54.2827 430.443 54.2102 429.972 54.2102H428.114V62H427.057ZM431.165 58.0795L433.312 62H432.085L429.972 58.0795H431.165ZM434.596 62V55.4545H435.602V62H434.596ZM435.108 54.3636C434.912 54.3636 434.743 54.2969 434.6 54.1634C434.461 54.0298 434.392 53.8693 434.392 53.6818C434.392 53.4943 434.461 53.3338 434.6 53.2003C434.743 53.0668 434.912 53 435.108 53C435.304 53 435.471 53.0668 435.61 53.2003C435.752 53.3338 435.824 53.4943 435.824 53.6818C435.824 53.8693 435.752 54.0298 435.61 54.1634C435.471 54.2969 435.304 54.3636 435.108 54.3636ZM440.086 64.5909C439.6 64.5909 439.183 64.5284 438.833 64.4034C438.484 64.2812 438.192 64.1193 437.96 63.9176C437.729 63.7188 437.546 63.5057 437.41 63.2784L438.211 62.7159C438.302 62.8352 438.417 62.9716 438.556 63.125C438.695 63.2812 438.886 63.4162 439.127 63.5298C439.371 63.6463 439.691 63.7045 440.086 63.7045C440.614 63.7045 441.05 63.5767 441.394 63.321C441.738 63.0653 441.91 62.6648 441.91 62.1193V60.7898H441.825C441.751 60.9091 441.646 61.0568 441.509 61.233C441.376 61.4062 441.183 61.5611 440.93 61.6974C440.68 61.831 440.342 61.8977 439.915 61.8977C439.387 61.8977 438.913 61.7727 438.492 61.5227C438.075 61.2727 437.744 60.9091 437.499 60.4318C437.258 59.9545 437.137 59.375 437.137 58.6932C437.137 58.0227 437.255 57.4389 437.491 56.9418C437.727 56.4418 438.055 56.0554 438.475 55.7827C438.896 55.5071 439.381 55.3693 439.933 55.3693C440.359 55.3693 440.697 55.4403 440.947 55.5824C441.2 55.7216 441.393 55.8807 441.526 56.0597C441.663 56.2358 441.768 56.3807 441.842 56.4943H441.944V55.4545H442.915V62.1875C442.915 62.75 442.788 63.2074 442.532 63.5597C442.279 63.9148 441.938 64.1747 441.509 64.3395C441.083 64.5071 440.609 64.5909 440.086 64.5909ZM440.052 60.9943C440.455 60.9943 440.796 60.902 441.075 60.7173C441.353 60.5327 441.565 60.267 441.71 59.9205C441.854 59.5739 441.927 59.1591 441.927 58.6761C441.927 58.2045 441.856 57.7884 441.714 57.4276C441.572 57.0668 441.362 56.7841 441.083 56.5795C440.805 56.375 440.461 56.2727 440.052 56.2727C439.626 56.2727 439.271 56.3807 438.987 56.5966C438.705 56.8125 438.494 57.1023 438.352 57.4659C438.212 57.8295 438.143 58.233 438.143 58.6761C438.143 59.1307 438.214 59.5327 438.356 59.8821C438.501 60.2287 438.714 60.5014 438.995 60.7003C439.279 60.8963 439.631 60.9943 440.052 60.9943ZM445.762 58.0625V62H444.756V53.2727H445.762V56.4773H445.847C446.001 56.1392 446.231 55.8707 446.538 55.6719C446.847 55.4702 447.259 55.3693 447.773 55.3693C448.219 55.3693 448.61 55.4588 448.945 55.6378C449.281 55.8139 449.54 56.0852 449.725 56.4517C449.913 56.8153 450.006 57.2784 450.006 57.8409V62H449.001V57.9091C449.001 57.3892 448.866 56.9872 448.596 56.7031C448.329 56.4162 447.958 56.2727 447.484 56.2727C447.154 56.2727 446.859 56.3423 446.597 56.4815C446.339 56.6207 446.134 56.8239 445.984 57.0909C445.836 57.358 445.762 57.6818 445.762 58.0625ZM454.693 55.4545V56.3068H451.301V55.4545H454.693ZM452.289 53.8864H453.295V60.125C453.295 60.4091 453.336 60.6222 453.419 60.7642C453.504 60.9034 453.612 60.9972 453.743 61.0455C453.876 61.0909 454.017 61.1136 454.164 61.1136C454.275 61.1136 454.366 61.108 454.437 61.0966C454.508 61.0824 454.565 61.071 454.608 61.0625L454.812 61.9659C454.744 61.9915 454.649 62.017 454.527 62.0426C454.404 62.071 454.25 62.0852 454.062 62.0852C453.778 62.0852 453.5 62.0241 453.227 61.902C452.957 61.7798 452.733 61.5938 452.554 61.3438C452.377 61.0938 452.289 60.7784 452.289 60.3977V53.8864Z" fill="black"/>
<rect x="429" y="214" width="223" height="8" rx="4" fill="#F2F4F7"/>
<rect x="429" y="214" width="8" height="8" rx="4" fill="#217CF5"/>
<g filter="url(#filter0_dd_880_12051)">
<path d="M426.929 234.515C426.038 234.515 425.592 233.438 426.222 232.808L432.293 226.737C432.683 226.346 433.317 226.346 433.707 226.737L439.778 232.808C440.408 233.438 439.962 234.515 439.071 234.515H426.929Z" fill="white"/>
<rect x="412" y="232" width="42" height="34" rx="8" fill="white"/>
<path d="M428.036 253.145C427.363 253.142 426.787 252.964 426.31 252.612C425.833 252.26 425.468 251.747 425.215 251.074C424.962 250.401 424.836 249.589 424.836 248.641C424.836 247.695 424.962 246.886 425.215 246.216C425.471 245.545 425.837 245.034 426.314 244.682C426.795 244.33 427.368 244.153 428.036 244.153C428.704 244.153 429.276 244.331 429.753 244.686C430.231 245.038 430.596 245.55 430.849 246.22C431.104 246.888 431.232 247.695 431.232 248.641C431.232 249.592 431.106 250.405 430.853 251.078C430.6 251.749 430.235 252.261 429.758 252.616C429.28 252.969 428.706 253.145 428.036 253.145ZM428.036 252.007C428.627 252.007 429.089 251.719 429.421 251.142C429.756 250.565 429.924 249.732 429.924 248.641C429.924 247.916 429.847 247.304 429.694 246.804C429.543 246.301 429.326 245.92 429.042 245.662C428.76 245.401 428.425 245.27 428.036 245.27C427.448 245.27 426.986 245.56 426.651 246.139C426.316 246.719 426.147 247.553 426.144 248.641C426.144 249.368 426.219 249.983 426.37 250.486C426.523 250.986 426.741 251.365 427.022 251.624C427.303 251.879 427.641 252.007 428.036 252.007ZM437.299 251.364V250.903C437.299 250.574 437.367 250.273 437.504 250C437.643 249.724 437.845 249.504 438.109 249.339C438.376 249.172 438.698 249.088 439.076 249.088C439.463 249.088 439.786 249.17 440.048 249.335C440.309 249.5 440.507 249.72 440.64 249.996C440.776 250.271 440.845 250.574 440.845 250.903V251.364C440.845 251.693 440.776 251.996 440.64 252.271C440.504 252.544 440.303 252.764 440.039 252.932C439.778 253.097 439.457 253.179 439.076 253.179C438.693 253.179 438.369 253.097 438.105 252.932C437.84 252.764 437.64 252.544 437.504 252.271C437.367 251.996 437.299 251.693 437.299 251.364ZM438.292 250.903V251.364C438.292 251.608 438.35 251.83 438.467 252.028C438.583 252.227 438.786 252.327 439.076 252.327C439.363 252.327 439.563 252.227 439.677 252.028C439.791 251.83 439.847 251.608 439.847 251.364V250.903C439.847 250.659 439.792 250.437 439.681 250.239C439.573 250.04 439.372 249.94 439.076 249.94C438.792 249.94 438.59 250.04 438.471 250.239C438.352 250.437 438.292 250.659 438.292 250.903ZM432.91 246.369V245.909C432.91 245.58 432.978 245.277 433.115 245.001C433.254 244.726 433.455 244.506 433.72 244.341C433.987 244.176 434.309 244.094 434.687 244.094C435.073 244.094 435.397 244.176 435.659 244.341C435.92 244.506 436.117 244.726 436.251 245.001C436.384 245.277 436.451 245.58 436.451 245.909V246.369C436.451 246.699 436.383 247.001 436.247 247.277C436.113 247.55 435.914 247.77 435.65 247.938C435.389 248.102 435.068 248.185 434.687 248.185C434.301 248.185 433.975 248.102 433.711 247.938C433.45 247.77 433.251 247.55 433.115 247.277C432.978 247.001 432.91 246.699 432.91 246.369ZM433.907 245.909V246.369C433.907 246.614 433.964 246.835 434.078 247.034C434.194 247.233 434.397 247.332 434.687 247.332C434.971 247.332 435.17 247.233 435.284 247.034C435.4 246.835 435.458 246.614 435.458 246.369V245.909C435.458 245.665 435.403 245.443 435.292 245.244C435.181 245.045 434.98 244.946 434.687 244.946C434.403 244.946 434.201 245.045 434.082 245.244C433.965 245.443 433.907 245.665 433.907 245.909ZM433.315 253L439.315 244.273H440.333L434.333 253H433.315Z" fill="#344054"/>
</g>
<path d="M427.057 188V179.273H430.108C430.716 179.273 431.217 179.378 431.612 179.588C432.007 179.795 432.301 180.075 432.494 180.428C432.688 180.777 432.784 181.165 432.784 181.591C432.784 181.966 432.717 182.276 432.584 182.52C432.453 182.764 432.28 182.957 432.064 183.099C431.851 183.241 431.619 183.347 431.369 183.415V183.5C431.636 183.517 431.905 183.611 432.175 183.781C432.445 183.952 432.67 184.196 432.852 184.514C433.034 184.832 433.125 185.222 433.125 185.682C433.125 186.119 433.026 186.513 432.827 186.862C432.628 187.212 432.314 187.489 431.885 187.693C431.456 187.898 430.898 188 430.21 188H427.057ZM428.114 187.062H430.21C430.901 187.062 431.391 186.929 431.68 186.662C431.973 186.392 432.119 186.065 432.119 185.682C432.119 185.386 432.044 185.114 431.893 184.864C431.743 184.611 431.528 184.409 431.25 184.259C430.972 184.105 430.642 184.028 430.261 184.028H428.114V187.062ZM428.114 183.108H430.074C430.392 183.108 430.679 183.045 430.935 182.92C431.193 182.795 431.398 182.619 431.548 182.392C431.702 182.165 431.778 181.898 431.778 181.591C431.778 181.207 431.645 180.882 431.378 180.615C431.111 180.345 430.688 180.21 430.108 180.21H428.114V183.108ZM437.384 188.136C436.793 188.136 436.275 187.996 435.829 187.714C435.386 187.433 435.039 187.04 434.789 186.534C434.542 186.028 434.418 185.437 434.418 184.761C434.418 184.08 434.542 183.484 434.789 182.976C435.039 182.467 435.386 182.072 435.829 181.791C436.275 181.51 436.793 181.369 437.384 181.369C437.975 181.369 438.492 181.51 438.935 181.791C439.381 182.072 439.728 182.467 439.975 182.976C440.225 183.484 440.35 184.08 440.35 184.761C440.35 185.437 440.225 186.028 439.975 186.534C439.728 187.04 439.381 187.433 438.935 187.714C438.492 187.996 437.975 188.136 437.384 188.136ZM437.384 187.233C437.833 187.233 438.202 187.118 438.492 186.888C438.782 186.658 438.996 186.355 439.136 185.98C439.275 185.605 439.344 185.199 439.344 184.761C439.344 184.324 439.275 183.916 439.136 183.538C438.996 183.161 438.782 182.855 438.492 182.622C438.202 182.389 437.833 182.273 437.384 182.273C436.935 182.273 436.566 182.389 436.276 182.622C435.987 182.855 435.772 183.161 435.633 183.538C435.494 183.916 435.424 184.324 435.424 184.761C435.424 185.199 435.494 185.605 435.633 185.98C435.772 186.355 435.987 186.658 436.276 186.888C436.566 187.118 436.935 187.233 437.384 187.233ZM444.732 181.455V182.307H441.34V181.455H444.732ZM442.328 179.886H443.334V186.125C443.334 186.409 443.375 186.622 443.458 186.764C443.543 186.903 443.651 186.997 443.782 187.045C443.915 187.091 444.056 187.114 444.203 187.114C444.314 187.114 444.405 187.108 444.476 187.097C444.547 187.082 444.604 187.071 444.647 187.062L444.851 187.966C444.783 187.991 444.688 188.017 444.566 188.043C444.444 188.071 444.289 188.085 444.101 188.085C443.817 188.085 443.539 188.024 443.266 187.902C442.996 187.78 442.772 187.594 442.593 187.344C442.417 187.094 442.328 186.778 442.328 186.398V179.886ZM449.091 181.455V182.307H445.699V181.455H449.091ZM446.688 179.886H447.694V186.125C447.694 186.409 447.735 186.622 447.817 186.764C447.902 186.903 448.01 186.997 448.141 187.045C448.275 187.091 448.415 187.114 448.563 187.114C448.674 187.114 448.765 187.108 448.836 187.097C448.907 187.082 448.963 187.071 449.006 187.062L449.211 187.966C449.142 187.991 449.047 188.017 448.925 188.043C448.803 188.071 448.648 188.085 448.461 188.085C448.176 188.085 447.898 188.024 447.625 187.902C447.355 187.78 447.131 187.594 446.952 187.344C446.776 187.094 446.688 186.778 446.688 186.398V179.886ZM453.193 188.136C452.602 188.136 452.083 187.996 451.637 187.714C451.194 187.433 450.848 187.04 450.598 186.534C450.35 186.028 450.227 185.437 450.227 184.761C450.227 184.08 450.35 183.484 450.598 182.976C450.848 182.467 451.194 182.072 451.637 181.791C452.083 181.51 452.602 181.369 453.193 181.369C453.784 181.369 454.301 181.51 454.744 181.791C455.19 182.072 455.537 182.467 455.784 182.976C456.034 183.484 456.159 184.08 456.159 184.761C456.159 185.437 456.034 186.028 455.784 186.534C455.537 187.04 455.19 187.433 454.744 187.714C454.301 187.996 453.784 188.136 453.193 188.136ZM453.193 187.233C453.642 187.233 454.011 187.118 454.301 186.888C454.591 186.658 454.805 186.355 454.944 185.98C455.083 185.605 455.153 185.199 455.153 184.761C455.153 184.324 455.083 183.916 454.944 183.538C454.805 183.161 454.591 182.855 454.301 182.622C454.011 182.389 453.642 182.273 453.193 182.273C452.744 182.273 452.375 182.389 452.085 182.622C451.795 182.855 451.581 183.161 451.441 183.538C451.302 183.916 451.233 184.324 451.233 184.761C451.233 185.199 451.302 185.605 451.441 185.98C451.581 186.355 451.795 186.658 452.085 186.888C452.375 187.118 452.744 187.233 453.193 187.233ZM457.694 188V181.455H458.665V182.477H458.751C458.887 182.128 459.107 181.857 459.411 181.663C459.715 181.467 460.08 181.369 460.506 181.369C460.938 181.369 461.298 181.467 461.585 181.663C461.874 181.857 462.1 182.128 462.262 182.477H462.33C462.498 182.139 462.749 181.871 463.085 181.672C463.42 181.47 463.822 181.369 464.29 181.369C464.876 181.369 465.354 181.553 465.727 181.919C466.099 182.283 466.285 182.849 466.285 183.619V188H465.279V183.619C465.279 183.136 465.147 182.791 464.883 182.584C464.619 182.376 464.308 182.273 463.95 182.273C463.489 182.273 463.133 182.412 462.88 182.69C462.627 182.966 462.501 183.315 462.501 183.739V188H461.478V183.517C461.478 183.145 461.357 182.845 461.116 182.618C460.874 182.388 460.563 182.273 460.183 182.273C459.921 182.273 459.677 182.342 459.45 182.482C459.225 182.621 459.043 182.814 458.904 183.061C458.768 183.305 458.7 183.588 458.7 183.909V188H457.694ZM474.413 181.455V182.307H470.885V181.455H474.413ZM471.942 188V180.551C471.942 180.176 472.03 179.864 472.206 179.614C472.382 179.364 472.611 179.176 472.892 179.051C473.173 178.926 473.47 178.864 473.783 178.864C474.03 178.864 474.232 178.884 474.388 178.923C474.544 178.963 474.661 179 474.737 179.034L474.447 179.903C474.396 179.886 474.325 179.865 474.234 179.839C474.146 179.814 474.03 179.801 473.885 179.801C473.553 179.801 473.313 179.885 473.165 180.053C473.02 180.22 472.947 180.466 472.947 180.79V188H471.942ZM476.828 179.273V188H475.823V179.273H476.828ZM481.33 188.136C480.739 188.136 480.22 187.996 479.774 187.714C479.331 187.433 478.984 187.04 478.734 186.534C478.487 186.028 478.364 185.437 478.364 184.761C478.364 184.08 478.487 183.484 478.734 182.976C478.984 182.467 479.331 182.072 479.774 181.791C480.22 181.51 480.739 181.369 481.33 181.369C481.92 181.369 482.438 181.51 482.881 181.791C483.327 182.072 483.673 182.467 483.92 182.976C484.17 183.484 484.295 184.08 484.295 184.761C484.295 185.437 484.17 186.028 483.92 186.534C483.673 187.04 483.327 187.433 482.881 187.714C482.438 187.996 481.92 188.136 481.33 188.136ZM481.33 187.233C481.778 187.233 482.148 187.118 482.438 186.888C482.727 186.658 482.942 186.355 483.081 185.98C483.22 185.605 483.29 185.199 483.29 184.761C483.29 184.324 483.22 183.916 483.081 183.538C482.942 183.161 482.727 182.855 482.438 182.622C482.148 182.389 481.778 182.273 481.33 182.273C480.881 182.273 480.511 182.389 480.222 182.622C479.932 182.855 479.717 183.161 479.578 183.538C479.439 183.916 479.369 184.324 479.369 184.761C479.369 185.199 479.439 185.605 479.578 185.98C479.717 186.355 479.932 186.658 480.222 186.888C480.511 187.118 480.881 187.233 481.33 187.233ZM487.757 188.153C487.342 188.153 486.966 188.075 486.627 187.919C486.289 187.76 486.021 187.531 485.822 187.233C485.623 186.932 485.524 186.568 485.524 186.142C485.524 185.767 485.598 185.463 485.745 185.23C485.893 184.994 486.091 184.81 486.338 184.676C486.585 184.543 486.858 184.443 487.156 184.378C487.457 184.31 487.76 184.256 488.064 184.216C488.461 184.165 488.784 184.126 489.031 184.101C489.281 184.072 489.463 184.026 489.576 183.96C489.693 183.895 489.751 183.781 489.751 183.619V183.585C489.751 183.165 489.636 182.838 489.406 182.605C489.179 182.372 488.833 182.256 488.37 182.256C487.89 182.256 487.514 182.361 487.241 182.571C486.968 182.781 486.777 183.006 486.666 183.244L485.711 182.903C485.882 182.506 486.109 182.196 486.393 181.974C486.68 181.75 486.993 181.594 487.331 181.506C487.672 181.415 488.007 181.369 488.336 181.369C488.547 181.369 488.788 181.395 489.061 181.446C489.336 181.494 489.602 181.595 489.858 181.749C490.116 181.902 490.331 182.134 490.501 182.443C490.672 182.753 490.757 183.168 490.757 183.688V188H489.751V187.114H489.7C489.632 187.256 489.518 187.408 489.359 187.57C489.2 187.732 488.988 187.869 488.724 187.983C488.46 188.097 488.137 188.153 487.757 188.153ZM487.91 187.25C488.308 187.25 488.643 187.172 488.916 187.016C489.191 186.859 489.399 186.658 489.538 186.411C489.68 186.163 489.751 185.903 489.751 185.631V184.71C489.708 184.761 489.615 184.808 489.47 184.851C489.328 184.891 489.163 184.926 488.975 184.957C488.791 184.986 488.61 185.011 488.434 185.034C488.261 185.054 488.12 185.071 488.012 185.085C487.751 185.119 487.507 185.175 487.279 185.251C487.055 185.325 486.873 185.437 486.734 185.588C486.598 185.736 486.529 185.937 486.529 186.193C486.529 186.543 486.659 186.807 486.917 186.986C487.179 187.162 487.51 187.25 487.91 187.25ZM495.439 181.455V182.307H492.047V181.455H495.439ZM493.036 179.886H494.041V186.125C494.041 186.409 494.082 186.622 494.165 186.764C494.25 186.903 494.358 186.997 494.489 187.045C494.622 187.091 494.763 187.114 494.911 187.114C495.021 187.114 495.112 187.108 495.183 187.097C495.254 187.082 495.311 187.071 495.354 187.062L495.558 187.966C495.49 187.991 495.395 188.017 495.273 188.043C495.151 188.071 494.996 188.085 494.808 188.085C494.524 188.085 494.246 188.024 493.973 187.902C493.703 187.78 493.479 187.594 493.3 187.344C493.124 187.094 493.036 186.778 493.036 186.398V179.886ZM496.952 188V181.455H497.957V188H496.952ZM497.463 180.364C497.267 180.364 497.098 180.297 496.956 180.163C496.817 180.03 496.747 179.869 496.747 179.682C496.747 179.494 496.817 179.334 496.956 179.2C497.098 179.067 497.267 179 497.463 179C497.659 179 497.827 179.067 497.966 179.2C498.108 179.334 498.179 179.494 498.179 179.682C498.179 179.869 498.108 180.03 497.966 180.163C497.827 180.297 497.659 180.364 497.463 180.364ZM500.805 184.062V188H499.799V181.455H500.771V182.477H500.856C501.01 182.145 501.243 181.878 501.555 181.676C501.868 181.472 502.271 181.369 502.765 181.369C503.208 181.369 503.596 181.46 503.929 181.642C504.261 181.821 504.52 182.094 504.704 182.46C504.889 182.824 504.981 183.284 504.981 183.841V188H503.975V183.909C503.975 183.395 503.842 182.994 503.575 182.707C503.308 182.418 502.941 182.273 502.475 182.273C502.154 182.273 501.868 182.342 501.615 182.482C501.365 182.621 501.167 182.824 501.022 183.091C500.877 183.358 500.805 183.682 500.805 184.062ZM509.461 190.591C508.975 190.591 508.558 190.528 508.208 190.403C507.859 190.281 507.567 190.119 507.335 189.918C507.104 189.719 506.921 189.506 506.785 189.278L507.586 188.716C507.677 188.835 507.792 188.972 507.931 189.125C508.07 189.281 508.261 189.416 508.502 189.53C508.746 189.646 509.066 189.705 509.461 189.705C509.989 189.705 510.425 189.577 510.769 189.321C511.113 189.065 511.285 188.665 511.285 188.119V186.79H511.2C511.126 186.909 511.021 187.057 510.884 187.233C510.751 187.406 510.558 187.561 510.305 187.697C510.055 187.831 509.717 187.898 509.29 187.898C508.762 187.898 508.288 187.773 507.867 187.523C507.45 187.273 507.119 186.909 506.874 186.432C506.633 185.955 506.512 185.375 506.512 184.693C506.512 184.023 506.63 183.439 506.866 182.942C507.102 182.442 507.43 182.055 507.85 181.783C508.271 181.507 508.756 181.369 509.308 181.369C509.734 181.369 510.072 181.44 510.322 181.582C510.575 181.722 510.768 181.881 510.901 182.06C511.038 182.236 511.143 182.381 511.217 182.494H511.319V181.455H512.29V188.188C512.29 188.75 512.163 189.207 511.907 189.56C511.654 189.915 511.313 190.175 510.884 190.339C510.458 190.507 509.984 190.591 509.461 190.591ZM509.427 186.994C509.83 186.994 510.171 186.902 510.45 186.717C510.728 186.533 510.94 186.267 511.085 185.92C511.229 185.574 511.302 185.159 511.302 184.676C511.302 184.205 511.231 183.788 511.089 183.428C510.947 183.067 510.737 182.784 510.458 182.58C510.18 182.375 509.836 182.273 509.427 182.273C509.001 182.273 508.646 182.381 508.362 182.597C508.08 182.812 507.869 183.102 507.727 183.466C507.587 183.83 507.518 184.233 507.518 184.676C507.518 185.131 507.589 185.533 507.731 185.882C507.876 186.229 508.089 186.501 508.37 186.7C508.654 186.896 509.006 186.994 509.427 186.994Z" fill="black"/>
<rect x="151" y="90" width="224" height="8" rx="4" fill="#EFEFEF"/>
<rect x="151" y="90" width="30.8" height="8" rx="4" fill="#217CF5"/>
<path d="M152.057 67V58.2727H153.114V66.0625H157.17V67H152.057ZM160.597 67.1534C160.182 67.1534 159.805 67.0753 159.467 66.919C159.129 66.7599 158.861 66.5312 158.662 66.233C158.463 65.9318 158.364 65.5682 158.364 65.142C158.364 64.767 158.438 64.4631 158.585 64.2301C158.733 63.9943 158.93 63.8097 159.178 63.6761C159.425 63.5426 159.697 63.4432 159.996 63.3778C160.297 63.3097 160.599 63.2557 160.903 63.2159C161.301 63.1648 161.624 63.1264 161.871 63.1009C162.121 63.0724 162.303 63.0256 162.416 62.9602C162.533 62.8949 162.591 62.7812 162.591 62.6193V62.5852C162.591 62.1648 162.476 61.8381 162.246 61.6051C162.018 61.3722 161.673 61.2557 161.21 61.2557C160.73 61.2557 160.354 61.3608 160.081 61.571C159.808 61.7812 159.616 62.0057 159.506 62.2443L158.551 61.9034C158.722 61.5057 158.949 61.196 159.233 60.9744C159.52 60.75 159.832 60.5937 160.17 60.5057C160.511 60.4148 160.847 60.3693 161.176 60.3693C161.386 60.3693 161.628 60.3949 161.901 60.446C162.176 60.4943 162.442 60.5952 162.697 60.7486C162.956 60.902 163.17 61.1335 163.341 61.4432C163.511 61.7528 163.597 62.1676 163.597 62.6875V67H162.591V66.1136H162.54C162.472 66.2557 162.358 66.4077 162.199 66.5696C162.04 66.7315 161.828 66.8693 161.564 66.983C161.3 67.0966 160.977 67.1534 160.597 67.1534ZM160.75 66.25C161.148 66.25 161.483 66.1719 161.756 66.0156C162.031 65.8594 162.239 65.6577 162.378 65.4105C162.52 65.1634 162.591 64.9034 162.591 64.6307V63.7102C162.548 63.7614 162.455 63.8082 162.31 63.8509C162.168 63.8906 162.003 63.9261 161.815 63.9574C161.631 63.9858 161.45 64.0114 161.274 64.0341C161.101 64.054 160.96 64.071 160.852 64.0852C160.591 64.1193 160.347 64.1747 160.119 64.2514C159.895 64.3253 159.713 64.4375 159.574 64.5881C159.438 64.7358 159.369 64.9375 159.369 65.1932C159.369 65.5426 159.499 65.8068 159.757 65.9858C160.018 66.1619 160.349 66.25 160.75 66.25ZM165.569 67V58.2727H166.574V61.4943H166.659C166.733 61.3807 166.836 61.2358 166.966 61.0597C167.1 60.8807 167.29 60.7216 167.537 60.5824C167.787 60.4403 168.125 60.3693 168.551 60.3693C169.103 60.3693 169.588 60.5071 170.009 60.7827C170.429 61.0582 170.757 61.4489 170.993 61.9545C171.229 62.4602 171.347 63.0568 171.347 63.7443C171.347 64.4375 171.229 65.0384 170.993 65.5469C170.757 66.0526 170.431 66.4446 170.013 66.723C169.596 66.9986 169.114 67.1364 168.569 67.1364C168.148 67.1364 167.811 67.0668 167.559 66.9276C167.306 66.7855 167.111 66.625 166.975 66.446C166.838 66.2642 166.733 66.1136 166.659 65.9943H166.54V67H165.569ZM166.557 63.7273C166.557 64.2216 166.63 64.6577 166.775 65.0355C166.919 65.4105 167.131 65.7045 167.409 65.9176C167.688 66.1278 168.029 66.233 168.432 66.233C168.853 66.233 169.203 66.1222 169.485 65.9006C169.769 65.6761 169.982 65.375 170.124 64.9972C170.269 64.6165 170.341 64.1932 170.341 63.7273C170.341 63.267 170.27 62.8523 170.128 62.483C169.989 62.1108 169.777 61.8168 169.493 61.6009C169.212 61.3821 168.858 61.2727 168.432 61.2727C168.023 61.2727 167.679 61.3764 167.401 61.5838C167.123 61.7884 166.912 62.0753 166.77 62.4446C166.628 62.8111 166.557 63.2386 166.557 63.7273ZM175.63 67.1364C174.999 67.1364 174.455 66.9972 173.998 66.7188C173.543 66.4375 173.192 66.0455 172.945 65.5426C172.701 65.0369 172.578 64.4489 172.578 63.7784C172.578 63.108 172.701 62.517 172.945 62.0057C173.192 61.4915 173.536 61.0909 173.976 60.804C174.419 60.5142 174.936 60.3693 175.527 60.3693C175.868 60.3693 176.205 60.4261 176.537 60.5398C176.87 60.6534 177.172 60.8381 177.445 61.0938C177.718 61.3466 177.935 61.6818 178.097 62.0994C178.259 62.517 178.34 63.0312 178.34 63.642V64.0682H173.294V63.1989H177.317C177.317 62.8295 177.243 62.5 177.096 62.2102C176.951 61.9205 176.743 61.6918 176.473 61.5241C176.206 61.3565 175.891 61.2727 175.527 61.2727C175.127 61.2727 174.78 61.3722 174.488 61.571C174.198 61.767 173.975 62.0227 173.819 62.3381C173.662 62.6534 173.584 62.9915 173.584 63.3523V63.9318C173.584 64.4261 173.669 64.8452 173.84 65.1889C174.013 65.5298 174.253 65.7898 174.56 65.9688C174.867 66.1449 175.223 66.233 175.63 66.233C175.894 66.233 176.132 66.196 176.346 66.1222C176.561 66.0455 176.748 65.9318 176.904 65.7812C177.06 65.6278 177.181 65.4375 177.266 65.2102L178.238 65.483C178.135 65.8125 177.963 66.1023 177.722 66.3523C177.48 66.5994 177.182 66.7926 176.827 66.9318C176.472 67.0682 176.073 67.1364 175.63 67.1364ZM180.875 58.2727V67H179.87V58.2727H180.875ZM186.825 65.8835C186.615 65.8835 186.435 65.8082 186.284 65.6577C186.134 65.5071 186.058 65.3267 186.058 65.1165C186.058 64.9062 186.134 64.7259 186.284 64.5753C186.435 64.4247 186.615 64.3494 186.825 64.3494C187.036 64.3494 187.216 64.4247 187.366 64.5753C187.517 64.7259 187.592 64.9062 187.592 65.1165C187.592 65.2557 187.557 65.3835 187.486 65.5C187.418 65.6165 187.325 65.7102 187.209 65.7812C187.095 65.8494 186.967 65.8835 186.825 65.8835ZM186.825 61.4688C186.615 61.4688 186.435 61.3935 186.284 61.2429C186.134 61.0923 186.058 60.9119 186.058 60.7017C186.058 60.4915 186.134 60.3111 186.284 60.1605C186.435 60.0099 186.615 59.9347 186.825 59.9347C187.036 59.9347 187.216 60.0099 187.366 60.1605C187.517 60.3111 187.592 60.4915 187.592 60.7017C187.592 60.8409 187.557 60.9688 187.486 61.0852C187.418 61.2017 187.325 61.2955 187.209 61.3665C187.095 61.4347 186.967 61.4688 186.825 61.4688ZM192.908 67V58.2727H198.141V59.2102H193.965V62.1591H197.749V63.0966H193.965V67H192.908ZM201.741 67.1534C201.326 67.1534 200.95 67.0753 200.612 66.919C200.274 66.7599 200.005 66.5312 199.806 66.233C199.608 65.9318 199.508 65.5682 199.508 65.142C199.508 64.767 199.582 64.4631 199.73 64.2301C199.877 63.9943 200.075 63.8097 200.322 63.6761C200.569 63.5426 200.842 63.4432 201.14 63.3778C201.441 63.3097 201.744 63.2557 202.048 63.2159C202.446 63.1648 202.768 63.1264 203.015 63.1009C203.265 63.0724 203.447 63.0256 203.561 62.9602C203.677 62.8949 203.735 62.7812 203.735 62.6193V62.5852C203.735 62.1648 203.62 61.8381 203.39 61.6051C203.163 61.3722 202.818 61.2557 202.355 61.2557C201.875 61.2557 201.498 61.3608 201.225 61.571C200.953 61.7812 200.761 62.0057 200.65 62.2443L199.696 61.9034C199.866 61.5057 200.093 61.196 200.377 60.9744C200.664 60.75 200.977 60.5937 201.315 60.5057C201.656 60.4148 201.991 60.3693 202.321 60.3693C202.531 60.3693 202.772 60.3949 203.045 60.446C203.321 60.4943 203.586 60.5952 203.842 60.7486C204.1 60.902 204.315 61.1335 204.485 61.4432C204.656 61.7528 204.741 62.1676 204.741 62.6875V67H203.735V66.1136H203.684C203.616 66.2557 203.502 66.4077 203.343 66.5696C203.184 66.7315 202.973 66.8693 202.708 66.983C202.444 67.0966 202.122 67.1534 201.741 67.1534ZM201.895 66.25C202.292 66.25 202.627 66.1719 202.9 66.0156C203.176 65.8594 203.383 65.6577 203.522 65.4105C203.664 65.1634 203.735 64.9034 203.735 64.6307V63.7102C203.693 63.7614 203.599 63.8082 203.454 63.8509C203.312 63.8906 203.147 63.9261 202.96 63.9574C202.775 63.9858 202.595 64.0114 202.419 64.0341C202.245 64.054 202.105 64.071 201.997 64.0852C201.735 64.1193 201.491 64.1747 201.264 64.2514C201.039 64.3253 200.858 64.4375 200.718 64.5881C200.582 64.7358 200.514 64.9375 200.514 65.1932C200.514 65.5426 200.643 65.8068 200.902 65.9858C201.163 66.1619 201.494 66.25 201.895 66.25ZM207.582 58.2727V67H206.577V58.2727H207.582ZM214.061 61.9205L213.157 62.1761C213.1 62.0256 213.017 61.8793 212.906 61.7372C212.798 61.5923 212.65 61.473 212.463 61.3793C212.275 61.2855 212.035 61.2386 211.743 61.2386C211.342 61.2386 211.008 61.331 210.741 61.5156C210.477 61.6974 210.345 61.929 210.345 62.2102C210.345 62.4602 210.436 62.6577 210.618 62.8026C210.799 62.9474 211.083 63.0682 211.47 63.1648L212.441 63.4034C213.027 63.5455 213.463 63.7628 213.75 64.0554C214.037 64.3452 214.18 64.7187 214.18 65.1761C214.18 65.5511 214.072 65.8864 213.856 66.1818C213.643 66.4773 213.345 66.7102 212.961 66.8807C212.578 67.0511 212.132 67.1364 211.623 67.1364C210.956 67.1364 210.403 66.9915 209.966 66.7017C209.528 66.4119 209.251 65.9886 209.135 65.4318L210.089 65.1932C210.18 65.5455 210.352 65.8097 210.605 65.9858C210.86 66.1619 211.194 66.25 211.606 66.25C212.075 66.25 212.447 66.1506 212.723 65.9517C213.001 65.75 213.14 65.5085 213.14 65.2273C213.14 65 213.061 64.8097 212.902 64.6562C212.743 64.5 212.498 64.3835 212.169 64.3068L211.078 64.0511C210.478 63.9091 210.038 63.6889 209.757 63.3906C209.478 63.0895 209.339 62.7131 209.339 62.2614C209.339 61.892 209.443 61.5653 209.65 61.2812C209.86 60.9972 210.146 60.7741 210.507 60.6122C210.87 60.4503 211.282 60.3693 211.743 60.3693C212.39 60.3693 212.899 60.5114 213.268 60.7955C213.64 61.0795 213.904 61.4545 214.061 61.9205ZM218.438 67.1364C217.808 67.1364 217.263 66.9972 216.806 66.7188C216.352 66.4375 216.001 66.0455 215.754 65.5426C215.509 65.0369 215.387 64.4489 215.387 63.7784C215.387 63.108 215.509 62.517 215.754 62.0057C216.001 61.4915 216.344 61.0909 216.785 60.804C217.228 60.5142 217.745 60.3693 218.336 60.3693C218.677 60.3693 219.013 60.4261 219.346 60.5398C219.678 60.6534 219.981 60.8381 220.254 61.0938C220.526 61.3466 220.744 61.6818 220.906 62.0994C221.067 62.517 221.148 63.0312 221.148 63.642V64.0682H216.103V63.1989H220.126C220.126 62.8295 220.052 62.5 219.904 62.2102C219.759 61.9205 219.552 61.6918 219.282 61.5241C219.015 61.3565 218.7 61.2727 218.336 61.2727C217.935 61.2727 217.589 61.3722 217.296 61.571C217.006 61.767 216.783 62.0227 216.627 62.3381C216.471 62.6534 216.393 62.9915 216.393 63.3523V63.9318C216.393 64.4261 216.478 64.8452 216.648 65.1889C216.822 65.5298 217.062 65.7898 217.369 65.9688C217.675 66.1449 218.032 66.233 218.438 66.233C218.702 66.233 218.941 66.196 219.154 66.1222C219.37 66.0455 219.556 65.9318 219.712 65.7812C219.869 65.6278 219.989 65.4375 220.075 65.2102L221.046 65.483C220.944 65.8125 220.772 66.1023 220.531 66.3523C220.289 66.5994 219.991 66.7926 219.636 66.9318C219.281 67.0682 218.881 67.1364 218.438 67.1364Z" fill="black"/>
<rect x="162" y="248" width="213" height="8" rx="4" fill="#F2F4F7"/>
<rect x="162" y="248" width="8" height="8" rx="4" fill="#217CF5"/>
<g filter="url(#filter1_dd_880_12051)">
<rect x="145" y="206" width="42" height="34" rx="8" fill="white"/>
<path d="M161.036 227.145C160.363 227.142 159.787 226.964 159.31 226.612C158.833 226.26 158.468 225.747 158.215 225.074C157.962 224.401 157.836 223.589 157.836 222.641C157.836 221.695 157.962 220.886 158.215 220.216C158.471 219.545 158.837 219.034 159.314 218.682C159.795 218.33 160.368 218.153 161.036 218.153C161.704 218.153 162.276 218.331 162.753 218.686C163.231 219.038 163.596 219.55 163.849 220.22C164.104 220.888 164.232 221.695 164.232 222.641C164.232 223.592 164.106 224.405 163.853 225.078C163.6 225.749 163.235 226.261 162.758 226.616C162.28 226.969 161.706 227.145 161.036 227.145ZM161.036 226.007C161.627 226.007 162.089 225.719 162.421 225.142C162.756 224.565 162.924 223.732 162.924 222.641C162.924 221.916 162.847 221.304 162.694 220.804C162.543 220.301 162.326 219.92 162.042 219.662C161.76 219.401 161.425 219.27 161.036 219.27C160.448 219.27 159.986 219.56 159.651 220.139C159.316 220.719 159.147 221.553 159.144 222.641C159.144 223.368 159.219 223.983 159.37 224.486C159.523 224.986 159.741 225.365 160.022 225.624C160.303 225.879 160.641 226.007 161.036 226.007ZM170.299 225.364V224.903C170.299 224.574 170.367 224.273 170.504 224C170.643 223.724 170.845 223.504 171.109 223.339C171.376 223.172 171.698 223.088 172.076 223.088C172.463 223.088 172.786 223.17 173.048 223.335C173.309 223.5 173.507 223.72 173.64 223.996C173.776 224.271 173.845 224.574 173.845 224.903V225.364C173.845 225.693 173.776 225.996 173.64 226.271C173.504 226.544 173.303 226.764 173.039 226.932C172.778 227.097 172.457 227.179 172.076 227.179C171.693 227.179 171.369 227.097 171.105 226.932C170.84 226.764 170.64 226.544 170.504 226.271C170.367 225.996 170.299 225.693 170.299 225.364ZM171.292 224.903V225.364C171.292 225.608 171.35 225.83 171.467 226.028C171.583 226.227 171.786 226.327 172.076 226.327C172.363 226.327 172.563 226.227 172.677 226.028C172.791 225.83 172.847 225.608 172.847 225.364V224.903C172.847 224.659 172.792 224.437 172.681 224.239C172.573 224.04 172.372 223.94 172.076 223.94C171.792 223.94 171.59 224.04 171.471 224.239C171.352 224.437 171.292 224.659 171.292 224.903ZM165.91 220.369V219.909C165.91 219.58 165.978 219.277 166.115 219.001C166.254 218.726 166.455 218.506 166.72 218.341C166.987 218.176 167.309 218.094 167.687 218.094C168.073 218.094 168.397 218.176 168.659 218.341C168.92 218.506 169.117 218.726 169.251 219.001C169.384 219.277 169.451 219.58 169.451 219.909V220.369C169.451 220.699 169.383 221.001 169.247 221.277C169.113 221.55 168.914 221.77 168.65 221.938C168.389 222.102 168.068 222.185 167.687 222.185C167.301 222.185 166.975 222.102 166.711 221.938C166.45 221.77 166.251 221.55 166.115 221.277C165.978 221.001 165.91 220.699 165.91 220.369ZM166.907 219.909V220.369C166.907 220.614 166.964 220.835 167.078 221.034C167.194 221.233 167.397 221.332 167.687 221.332C167.971 221.332 168.17 221.233 168.284 221.034C168.4 220.835 168.458 220.614 168.458 220.369V219.909C168.458 219.665 168.403 219.443 168.292 219.244C168.181 219.045 167.98 218.946 167.687 218.946C167.403 218.946 167.201 219.045 167.082 219.244C166.965 219.443 166.907 219.665 166.907 219.909ZM166.315 227L172.315 218.273H173.333L167.333 227H166.315Z" fill="#344054"/>
<path d="M172.071 237.485C172.962 237.485 173.408 238.562 172.778 239.192L166.707 245.263C166.317 245.654 165.683 245.654 165.293 245.263L159.222 239.192C158.592 238.562 159.038 237.485 159.929 237.485H172.071Z" fill="white"/>
</g>
<path d="M151.58 182.21V181.273H158.125V182.21H155.381V190H154.324V182.21H151.58ZM161.33 190.136C160.739 190.136 160.22 189.996 159.774 189.714C159.331 189.433 158.984 189.04 158.734 188.534C158.487 188.028 158.364 187.437 158.364 186.761C158.364 186.08 158.487 185.484 158.734 184.976C158.984 184.467 159.331 184.072 159.774 183.791C160.22 183.51 160.739 183.369 161.33 183.369C161.92 183.369 162.438 183.51 162.881 183.791C163.327 184.072 163.673 184.467 163.92 184.976C164.17 185.484 164.295 186.08 164.295 186.761C164.295 187.437 164.17 188.028 163.92 188.534C163.673 189.04 163.327 189.433 162.881 189.714C162.438 189.996 161.92 190.136 161.33 190.136ZM161.33 189.233C161.778 189.233 162.148 189.118 162.438 188.888C162.727 188.658 162.942 188.355 163.081 187.98C163.22 187.605 163.29 187.199 163.29 186.761C163.29 186.324 163.22 185.916 163.081 185.538C162.942 185.161 162.727 184.855 162.438 184.622C162.148 184.389 161.778 184.273 161.33 184.273C160.881 184.273 160.511 184.389 160.222 184.622C159.932 184.855 159.717 185.161 159.578 185.538C159.439 185.916 159.369 186.324 159.369 186.761C159.369 187.199 159.439 187.605 159.578 187.98C159.717 188.355 159.932 188.658 160.222 188.888C160.511 189.118 160.881 189.233 161.33 189.233ZM165.831 192.455V183.455H166.802V184.494H166.922C166.995 184.381 167.098 184.236 167.228 184.06C167.362 183.881 167.552 183.722 167.799 183.582C168.049 183.44 168.387 183.369 168.814 183.369C169.365 183.369 169.85 183.507 170.271 183.783C170.691 184.058 171.02 184.449 171.255 184.955C171.491 185.46 171.609 186.057 171.609 186.744C171.609 187.438 171.491 188.038 171.255 188.547C171.02 189.053 170.693 189.445 170.275 189.723C169.858 189.999 169.376 190.136 168.831 190.136C168.41 190.136 168.074 190.067 167.821 189.928C167.568 189.786 167.373 189.625 167.237 189.446C167.1 189.264 166.995 189.114 166.922 188.994H166.836V192.455H165.831ZM166.819 186.727C166.819 187.222 166.892 187.658 167.037 188.036C167.181 188.411 167.393 188.705 167.672 188.918C167.95 189.128 168.291 189.233 168.694 189.233C169.115 189.233 169.466 189.122 169.747 188.901C170.031 188.676 170.244 188.375 170.386 187.997C170.531 187.616 170.603 187.193 170.603 186.727C170.603 186.267 170.532 185.852 170.39 185.483C170.251 185.111 170.039 184.817 169.755 184.601C169.474 184.382 169.12 184.273 168.694 184.273C168.285 184.273 167.941 184.376 167.663 184.584C167.385 184.788 167.174 185.075 167.032 185.445C166.89 185.811 166.819 186.239 166.819 186.727ZM179.433 183.455V184.307H175.904V183.455H179.433ZM176.961 190V182.551C176.961 182.176 177.049 181.864 177.225 181.614C177.402 181.364 177.63 181.176 177.912 181.051C178.193 180.926 178.49 180.864 178.802 180.864C179.049 180.864 179.251 180.884 179.407 180.923C179.564 180.963 179.68 181 179.757 181.034L179.467 181.903C179.416 181.886 179.345 181.865 179.254 181.839C179.166 181.814 179.049 181.801 178.904 181.801C178.572 181.801 178.332 181.885 178.184 182.053C178.039 182.22 177.967 182.466 177.967 182.79V190H176.961ZM181.848 181.273V190H180.842V181.273H181.848ZM186.349 190.136C185.758 190.136 185.24 189.996 184.794 189.714C184.35 189.433 184.004 189.04 183.754 188.534C183.507 188.028 183.383 187.437 183.383 186.761C183.383 186.08 183.507 185.484 183.754 184.976C184.004 184.467 184.35 184.072 184.794 183.791C185.24 183.51 185.758 183.369 186.349 183.369C186.94 183.369 187.457 183.51 187.9 183.791C188.346 184.072 188.693 184.467 188.94 184.976C189.19 185.484 189.315 186.08 189.315 186.761C189.315 187.437 189.19 188.028 188.94 188.534C188.693 189.04 188.346 189.433 187.9 189.714C187.457 189.996 186.94 190.136 186.349 190.136ZM186.349 189.233C186.798 189.233 187.167 189.118 187.457 188.888C187.747 188.658 187.961 188.355 188.1 187.98C188.24 187.605 188.309 187.199 188.309 186.761C188.309 186.324 188.24 185.916 188.1 185.538C187.961 185.161 187.747 184.855 187.457 184.622C187.167 184.389 186.798 184.273 186.349 184.273C185.9 184.273 185.531 184.389 185.241 184.622C184.951 184.855 184.737 185.161 184.598 185.538C184.458 185.916 184.389 186.324 184.389 186.761C184.389 187.199 184.458 187.605 184.598 187.98C184.737 188.355 184.951 188.658 185.241 188.888C185.531 189.118 185.9 189.233 186.349 189.233ZM192.776 190.153C192.362 190.153 191.985 190.075 191.647 189.919C191.309 189.76 191.04 189.531 190.842 189.233C190.643 188.932 190.543 188.568 190.543 188.142C190.543 187.767 190.617 187.463 190.765 187.23C190.913 186.994 191.11 186.81 191.357 186.676C191.604 186.543 191.877 186.443 192.175 186.378C192.477 186.31 192.779 186.256 193.083 186.216C193.481 186.165 193.803 186.126 194.05 186.101C194.3 186.072 194.482 186.026 194.596 185.96C194.712 185.895 194.771 185.781 194.771 185.619V185.585C194.771 185.165 194.656 184.838 194.425 184.605C194.198 184.372 193.853 184.256 193.39 184.256C192.91 184.256 192.533 184.361 192.261 184.571C191.988 184.781 191.796 185.006 191.685 185.244L190.731 184.903C190.901 184.506 191.129 184.196 191.413 183.974C191.7 183.75 192.012 183.594 192.35 183.506C192.691 183.415 193.026 183.369 193.356 183.369C193.566 183.369 193.808 183.395 194.08 183.446C194.356 183.494 194.621 183.595 194.877 183.749C195.136 183.902 195.35 184.134 195.521 184.443C195.691 184.753 195.776 185.168 195.776 185.688V190H194.771V189.114H194.719C194.651 189.256 194.538 189.408 194.379 189.57C194.219 189.732 194.008 189.869 193.744 189.983C193.479 190.097 193.157 190.153 192.776 190.153ZM192.93 189.25C193.327 189.25 193.663 189.172 193.935 189.016C194.211 188.859 194.418 188.658 194.558 188.411C194.7 188.163 194.771 187.903 194.771 187.631V186.71C194.728 186.761 194.634 186.808 194.489 186.851C194.347 186.891 194.183 186.926 193.995 186.957C193.81 186.986 193.63 187.011 193.454 187.034C193.281 187.054 193.14 187.071 193.032 187.085C192.771 187.119 192.526 187.175 192.299 187.251C192.075 187.325 191.893 187.437 191.754 187.588C191.617 187.736 191.549 187.937 191.549 188.193C191.549 188.543 191.678 188.807 191.937 188.986C192.198 189.162 192.529 189.25 192.93 189.25ZM200.458 183.455V184.307H197.066V183.455H200.458ZM198.055 181.886H199.061V188.125C199.061 188.409 199.102 188.622 199.184 188.764C199.27 188.903 199.377 188.997 199.508 189.045C199.642 189.091 199.782 189.114 199.93 189.114C200.041 189.114 200.132 189.108 200.203 189.097C200.274 189.082 200.331 189.071 200.373 189.062L200.578 189.966C200.51 189.991 200.414 190.017 200.292 190.043C200.17 190.071 200.015 190.085 199.828 190.085C199.544 190.085 199.265 190.024 198.993 189.902C198.723 189.78 198.498 189.594 198.319 189.344C198.143 189.094 198.055 188.778 198.055 188.398V181.886ZM201.971 190V183.455H202.977V190H201.971ZM202.483 182.364C202.287 182.364 202.118 182.297 201.975 182.163C201.836 182.03 201.767 181.869 201.767 181.682C201.767 181.494 201.836 181.334 201.975 181.2C202.118 181.067 202.287 181 202.483 181C202.679 181 202.846 181.067 202.985 181.2C203.127 181.334 203.199 181.494 203.199 181.682C203.199 181.869 203.127 182.03 202.985 182.163C202.846 182.297 202.679 182.364 202.483 182.364ZM205.825 186.062V190H204.819V183.455H205.79V184.477H205.876C206.029 184.145 206.262 183.878 206.575 183.676C206.887 183.472 207.29 183.369 207.785 183.369C208.228 183.369 208.616 183.46 208.948 183.642C209.281 183.821 209.539 184.094 209.724 184.46C209.908 184.824 210.001 185.284 210.001 185.841V190H208.995V185.909C208.995 185.395 208.862 184.994 208.594 184.707C208.327 184.418 207.961 184.273 207.495 184.273C207.174 184.273 206.887 184.342 206.634 184.482C206.384 184.621 206.187 184.824 206.042 185.091C205.897 185.358 205.825 185.682 205.825 186.062ZM214.48 192.591C213.995 192.591 213.577 192.528 213.228 192.403C212.878 192.281 212.587 192.119 212.354 191.918C212.124 191.719 211.941 191.506 211.804 191.278L212.605 190.716C212.696 190.835 212.811 190.972 212.951 191.125C213.09 191.281 213.28 191.416 213.522 191.53C213.766 191.646 214.086 191.705 214.48 191.705C215.009 191.705 215.445 191.577 215.789 191.321C216.132 191.065 216.304 190.665 216.304 190.119V188.79H216.219C216.145 188.909 216.04 189.057 215.904 189.233C215.77 189.406 215.577 189.561 215.324 189.697C215.074 189.831 214.736 189.898 214.31 189.898C213.782 189.898 213.307 189.773 212.887 189.523C212.469 189.273 212.138 188.909 211.894 188.432C211.652 187.955 211.532 187.375 211.532 186.693C211.532 186.023 211.65 185.439 211.885 184.942C212.121 184.442 212.449 184.055 212.87 183.783C213.29 183.507 213.776 183.369 214.327 183.369C214.753 183.369 215.091 183.44 215.341 183.582C215.594 183.722 215.787 183.881 215.921 184.06C216.057 184.236 216.162 184.381 216.236 184.494H216.338V183.455H217.31V190.188C217.31 190.75 217.182 191.207 216.926 191.56C216.674 191.915 216.333 192.175 215.904 192.339C215.478 192.507 215.003 192.591 214.48 192.591ZM214.446 188.994C214.85 188.994 215.191 188.902 215.469 188.717C215.748 188.533 215.959 188.267 216.104 187.92C216.249 187.574 216.321 187.159 216.321 186.676C216.321 186.205 216.25 185.788 216.108 185.428C215.966 185.067 215.756 184.784 215.478 184.58C215.199 184.375 214.855 184.273 214.446 184.273C214.02 184.273 213.665 184.381 213.381 184.597C213.1 184.812 212.888 185.102 212.746 185.466C212.607 185.83 212.537 186.233 212.537 186.676C212.537 187.131 212.608 187.533 212.75 187.882C212.895 188.229 213.108 188.501 213.39 188.7C213.674 188.896 214.026 188.994 214.446 188.994Z" fill="black"/>
<defs>
<filter id="filter0_dd_880_12051" x="400" y="226" width="66" height="64" filterUnits="userSpaceOnUse" color-interpolation-filters="sRGB">
<feFlood flood-opacity="0" result="BackgroundImageFix"/>
<feColorMatrix in="SourceAlpha" type="matrix" values="0 0 0 0 0 0 0 0 0 0 0 0 0 0 0 0 0 0 127 0" result="hardAlpha"/>
<feMorphology radius="2" operator="erode" in="SourceAlpha" result="effect1_dropShadow_880_12051"/>
<feOffset dy="4"/>
<feGaussianBlur stdDeviation="3"/>
<feColorMatrix type="matrix" values="0 0 0 0 0.0627451 0 0 0 0 0.0941176 0 0 0 0 0.156863 0 0 0 0.03 0"/>
<feBlend mode="normal" in2="BackgroundImageFix" result="effect1_dropShadow_880_12051"/>
<feColorMatrix in="SourceAlpha" type="matrix" values="0 0 0 0 0 0 0 0 0 0 0 0 0 0 0 0 0 0 127 0" result="hardAlpha"/>
<feMorphology radius="4" operator="erode" in="SourceAlpha" result="effect2_dropShadow_880_12051"/>
<feOffset dy="12"/>
<feGaussianBlur stdDeviation="8"/>
<feColorMatrix type="matrix" values="0 0 0 0 0.0627451 0 0 0 0 0.0941176 0 0 0 0 0.156863 0 0 0 0.08 0"/>
<feBlend mode="normal" in2="effect1_dropShadow_880_12051" result="effect2_dropShadow_880_12051"/>
<feBlend mode="normal" in="SourceGraphic" in2="effect2_dropShadow_880_12051" result="shape"/>
</filter>
<filter id="filter1_dd_880_12051" x="133" y="206" width="66" height="64" filterUnits="userSpaceOnUse" color-interpolation-filters="sRGB">
<feFlood flood-opacity="0" result="BackgroundImageFix"/>
<feColorMatrix in="SourceAlpha" type="matrix" values="0 0 0 0 0 0 0 0 0 0 0 0 0 0 0 0 0 0 127 0" result="hardAlpha"/>
<feMorphology radius="2" operator="erode" in="SourceAlpha" result="effect1_dropShadow_880_12051"/>
<feOffset dy="4"/>
<feGaussianBlur stdDeviation="3"/>
<feColorMatrix type="matrix" values="0 0 0 0 0.0627451 0 0 0 0 0.0941176 0 0 0 0 0.156863 0 0 0 0.03 0"/>
<feBlend mode="normal" in2="BackgroundImageFix" result="effect1_dropShadow_880_12051"/>
<feColorMatrix in="SourceAlpha" type="matrix" values="0 0 0 0 0 0 0 0 0 0 0 0 0 0 0 0 0 0 127 0" result="hardAlpha"/>
<feMorphology radius="4" operator="erode" in="SourceAlpha" result="effect2_dropShadow_880_12051"/>
<feOffset dy="12"/>
<feGaussianBlur stdDeviation="8"/>
<feColorMatrix type="matrix" values="0 0 0 0 0.0627451 0 0 0 0 0.0941176 0 0 0 0 0.156863 0 0 0 0.08 0"/>
<feBlend mode="normal" in2="effect1_dropShadow_880_12051" result="effect2_dropShadow_880_12051"/>
<feBlend mode="normal" in="SourceGraphic" in2="effect2_dropShadow_880_12051" result="shape"/>
</filter>
</defs>
</svg>
