<svg width="804" height="208" viewBox="0 0 804 208" fill="none" xmlns="http://www.w3.org/2000/svg">
<rect width="804" height="208" fill="#F9FAFB"/>
<rect x="195" y="83" width="16" height="16" rx="8" stroke="#217CF5" stroke-linecap="round" stroke-linejoin="round" stroke-dasharray="2 2"/>
<path d="M336 83C333.878 83 331.843 83.8429 330.343 85.3431C328.843 86.8434 328 88.8783 328 91C328 93.1217 328.843 95.1566 330.343 96.6569C331.843 98.1571 333.878 99 336 99L336 91L336 83Z" fill="#9E9E9E"/>
<rect x="328.5" y="83.5" width="15" height="15" rx="7.5" stroke="#9E9E9E"/>
<path d="M475.694 95.3808C476.482 94.1765 476.931 92.7819 476.993 91.344C477.054 89.9061 476.727 88.4781 476.046 87.2105C475.364 85.943 474.353 84.8828 473.119 84.1418C471.885 83.4008 470.474 83.0063 469.035 83.0001L469 91L475.694 95.3808Z" fill="#217CF5"/>
<rect x="461.5" y="83.5" width="15" height="15" rx="7.5" stroke="#217CF5"/>
<rect x="594.5" y="83.5" width="15" height="15" rx="7.5" fill="#217CF5" stroke="#217CF5"/>
<path d="M598 91.0468L601 94.047" stroke="white"/>
<path d="M600.293 94.0469L606.448 88.1103" stroke="white"/>
<path d="M177.977 114.273V123H176.955L172.199 116.148H172.114V123H171.057V114.273H172.08L176.852 121.142H176.938V114.273H177.977ZM182.615 123.136C182.024 123.136 181.505 122.996 181.059 122.714C180.616 122.433 180.27 122.04 180.02 121.534C179.772 121.028 179.649 120.437 179.649 119.761C179.649 119.08 179.772 118.484 180.02 117.976C180.27 117.467 180.616 117.072 181.059 116.791C181.505 116.51 182.024 116.369 182.615 116.369C183.206 116.369 183.723 116.51 184.166 116.791C184.612 117.072 184.958 117.467 185.206 117.976C185.456 118.484 185.581 119.08 185.581 119.761C185.581 120.437 185.456 121.028 185.206 121.534C184.958 122.04 184.612 122.433 184.166 122.714C183.723 122.996 183.206 123.136 182.615 123.136ZM182.615 122.233C183.064 122.233 183.433 122.118 183.723 121.888C184.012 121.658 184.227 121.355 184.366 120.98C184.505 120.605 184.575 120.199 184.575 119.761C184.575 119.324 184.505 118.916 184.366 118.538C184.227 118.161 184.012 117.855 183.723 117.622C183.433 117.389 183.064 117.273 182.615 117.273C182.166 117.273 181.797 117.389 181.507 117.622C181.217 117.855 181.002 118.161 180.863 118.538C180.724 118.916 180.654 119.324 180.654 119.761C180.654 120.199 180.724 120.605 180.863 120.98C181.002 121.355 181.217 121.658 181.507 121.888C181.797 122.118 182.166 122.233 182.615 122.233ZM189.962 116.455V117.307H186.57V116.455H189.962ZM187.559 114.886H188.565V121.125C188.565 121.409 188.606 121.622 188.688 121.764C188.773 121.903 188.881 121.997 189.012 122.045C189.146 122.091 189.286 122.114 189.434 122.114C189.545 122.114 189.636 122.108 189.707 122.097C189.778 122.082 189.835 122.071 189.877 122.062L190.082 122.966C190.013 122.991 189.918 123.017 189.796 123.043C189.674 123.071 189.519 123.085 189.332 123.085C189.048 123.085 188.769 123.024 188.496 122.902C188.227 122.78 188.002 122.594 187.823 122.344C187.647 122.094 187.559 121.778 187.559 121.398V114.886ZM199.487 117.92L198.583 118.176C198.526 118.026 198.442 117.879 198.332 117.737C198.224 117.592 198.076 117.473 197.888 117.379C197.701 117.286 197.461 117.239 197.168 117.239C196.768 117.239 196.434 117.331 196.167 117.516C195.903 117.697 195.771 117.929 195.771 118.21C195.771 118.46 195.862 118.658 196.043 118.803C196.225 118.947 196.509 119.068 196.896 119.165L197.867 119.403C198.452 119.545 198.888 119.763 199.175 120.055C199.462 120.345 199.606 120.719 199.606 121.176C199.606 121.551 199.498 121.886 199.282 122.182C199.069 122.477 198.771 122.71 198.387 122.881C198.004 123.051 197.558 123.136 197.049 123.136C196.381 123.136 195.829 122.991 195.391 122.702C194.954 122.412 194.677 121.989 194.56 121.432L195.515 121.193C195.606 121.545 195.778 121.81 196.031 121.986C196.286 122.162 196.62 122.25 197.032 122.25C197.501 122.25 197.873 122.151 198.148 121.952C198.427 121.75 198.566 121.509 198.566 121.227C198.566 121 198.487 120.81 198.327 120.656C198.168 120.5 197.924 120.384 197.594 120.307L196.504 120.051C195.904 119.909 195.464 119.689 195.183 119.391C194.904 119.089 194.765 118.713 194.765 118.261C194.765 117.892 194.869 117.565 195.076 117.281C195.286 116.997 195.572 116.774 195.933 116.612C196.296 116.45 196.708 116.369 197.168 116.369C197.816 116.369 198.325 116.511 198.694 116.795C199.066 117.08 199.33 117.455 199.487 117.92ZM203.966 116.455V117.307H200.574V116.455H203.966ZM201.563 114.886H202.569V121.125C202.569 121.409 202.61 121.622 202.692 121.764C202.777 121.903 202.885 121.997 203.016 122.045C203.15 122.091 203.29 122.114 203.438 122.114C203.549 122.114 203.64 122.108 203.711 122.097C203.782 122.082 203.838 122.071 203.881 122.062L204.086 122.966C204.017 122.991 203.922 123.017 203.8 123.043C203.678 123.071 203.523 123.085 203.336 123.085C203.051 123.085 202.773 123.024 202.5 122.902C202.23 122.78 202.006 122.594 201.827 122.344C201.651 122.094 201.563 121.778 201.563 121.398V114.886ZM207.405 123.153C206.99 123.153 206.614 123.075 206.276 122.919C205.938 122.76 205.669 122.531 205.471 122.233C205.272 121.932 205.172 121.568 205.172 121.142C205.172 120.767 205.246 120.463 205.394 120.23C205.542 119.994 205.739 119.81 205.986 119.676C206.233 119.543 206.506 119.443 206.804 119.378C207.105 119.31 207.408 119.256 207.712 119.216C208.11 119.165 208.432 119.126 208.679 119.101C208.929 119.072 209.111 119.026 209.225 118.96C209.341 118.895 209.4 118.781 209.4 118.619V118.585C209.4 118.165 209.284 117.838 209.054 117.605C208.827 117.372 208.482 117.256 208.019 117.256C207.539 117.256 207.162 117.361 206.89 117.571C206.617 117.781 206.425 118.006 206.314 118.244L205.36 117.903C205.53 117.506 205.757 117.196 206.042 116.974C206.328 116.75 206.641 116.594 206.979 116.506C207.32 116.415 207.655 116.369 207.985 116.369C208.195 116.369 208.436 116.395 208.709 116.446C208.985 116.494 209.25 116.595 209.506 116.749C209.765 116.902 209.979 117.134 210.15 117.443C210.32 117.753 210.405 118.168 210.405 118.688V123H209.4V122.114H209.348C209.28 122.256 209.167 122.408 209.007 122.57C208.848 122.732 208.637 122.869 208.373 122.983C208.108 123.097 207.786 123.153 207.405 123.153ZM207.559 122.25C207.956 122.25 208.292 122.172 208.564 122.016C208.84 121.859 209.047 121.658 209.186 121.411C209.328 121.163 209.4 120.903 209.4 120.631V119.71C209.357 119.761 209.263 119.808 209.118 119.851C208.976 119.891 208.811 119.926 208.624 119.957C208.439 119.986 208.259 120.011 208.083 120.034C207.909 120.054 207.769 120.071 207.661 120.085C207.4 120.119 207.155 120.175 206.928 120.251C206.703 120.325 206.522 120.437 206.382 120.588C206.246 120.736 206.178 120.937 206.178 121.193C206.178 121.543 206.307 121.807 206.566 121.986C206.827 122.162 207.158 122.25 207.559 122.25ZM212.241 123V116.455H213.212V117.443H213.281C213.4 117.119 213.616 116.857 213.928 116.655C214.241 116.453 214.593 116.352 214.985 116.352C215.059 116.352 215.151 116.354 215.262 116.357C215.373 116.359 215.457 116.364 215.513 116.369V117.392C215.479 117.384 215.401 117.371 215.279 117.354C215.16 117.334 215.033 117.324 214.9 117.324C214.582 117.324 214.298 117.391 214.048 117.524C213.8 117.655 213.604 117.837 213.46 118.07C213.317 118.3 213.246 118.562 213.246 118.858V123H212.241ZM219.962 116.455V117.307H216.57V116.455H219.962ZM217.559 114.886H218.565V121.125C218.565 121.409 218.606 121.622 218.688 121.764C218.773 121.903 218.881 121.997 219.012 122.045C219.146 122.091 219.286 122.114 219.434 122.114C219.545 122.114 219.636 122.108 219.707 122.097C219.778 122.082 219.835 122.071 219.877 122.062L220.082 122.966C220.013 122.991 219.918 123.017 219.796 123.043C219.674 123.071 219.519 123.085 219.332 123.085C219.048 123.085 218.769 123.024 218.496 122.902C218.227 122.78 218.002 122.594 217.823 122.344C217.647 122.094 217.559 121.778 217.559 121.398V114.886ZM224.149 123.136C223.518 123.136 222.974 122.997 222.517 122.719C222.062 122.438 221.712 122.045 221.464 121.543C221.22 121.037 221.098 120.449 221.098 119.778C221.098 119.108 221.22 118.517 221.464 118.006C221.712 117.491 222.055 117.091 222.496 116.804C222.939 116.514 223.456 116.369 224.047 116.369C224.388 116.369 224.724 116.426 225.057 116.54C225.389 116.653 225.692 116.838 225.964 117.094C226.237 117.347 226.455 117.682 226.616 118.099C226.778 118.517 226.859 119.031 226.859 119.642V120.068H221.814V119.199H225.837C225.837 118.83 225.763 118.5 225.615 118.21C225.47 117.92 225.263 117.692 224.993 117.524C224.726 117.357 224.411 117.273 224.047 117.273C223.646 117.273 223.3 117.372 223.007 117.571C222.717 117.767 222.494 118.023 222.338 118.338C222.182 118.653 222.104 118.991 222.104 119.352V119.932C222.104 120.426 222.189 120.845 222.359 121.189C222.533 121.53 222.773 121.79 223.08 121.969C223.386 122.145 223.743 122.233 224.149 122.233C224.413 122.233 224.652 122.196 224.865 122.122C225.081 122.045 225.267 121.932 225.423 121.781C225.58 121.628 225.7 121.437 225.786 121.21L226.757 121.483C226.655 121.812 226.483 122.102 226.241 122.352C226 122.599 225.702 122.793 225.347 122.932C224.991 123.068 224.592 123.136 224.149 123.136ZM230.861 123.136C230.315 123.136 229.834 122.999 229.416 122.723C228.999 122.445 228.672 122.053 228.436 121.547C228.2 121.038 228.082 120.438 228.082 119.744C228.082 119.057 228.2 118.46 228.436 117.955C228.672 117.449 229 117.058 229.42 116.783C229.841 116.507 230.327 116.369 230.878 116.369C231.304 116.369 231.641 116.44 231.888 116.582C232.138 116.722 232.328 116.881 232.459 117.06C232.592 117.236 232.696 117.381 232.77 117.494H232.855V114.273H233.861V123H232.889V121.994H232.77C232.696 122.114 232.591 122.264 232.455 122.446C232.318 122.625 232.124 122.786 231.871 122.928C231.618 123.067 231.281 123.136 230.861 123.136ZM230.997 122.233C231.401 122.233 231.741 122.128 232.02 121.918C232.298 121.705 232.51 121.411 232.655 121.036C232.8 120.658 232.872 120.222 232.872 119.727C232.872 119.239 232.801 118.811 232.659 118.445C232.517 118.075 232.307 117.788 232.028 117.584C231.75 117.376 231.406 117.273 230.997 117.273C230.571 117.273 230.216 117.382 229.932 117.601C229.651 117.817 229.439 118.111 229.297 118.483C229.158 118.852 229.088 119.267 229.088 119.727C229.088 120.193 229.159 120.616 229.301 120.997C229.446 121.375 229.659 121.676 229.94 121.901C230.224 122.122 230.577 122.233 230.997 122.233Z" fill="black"/>
<path d="M305.114 114.273V123H304.057V114.273H305.114ZM308.102 119.062V123H307.096V116.455H308.068V117.477H308.153C308.306 117.145 308.539 116.878 308.852 116.676C309.164 116.472 309.568 116.369 310.062 116.369C310.505 116.369 310.893 116.46 311.225 116.642C311.558 116.821 311.816 117.094 312.001 117.46C312.186 117.824 312.278 118.284 312.278 118.841V123H311.272V118.909C311.272 118.395 311.139 117.994 310.872 117.707C310.605 117.418 310.238 117.273 309.772 117.273C309.451 117.273 309.164 117.342 308.912 117.482C308.662 117.621 308.464 117.824 308.319 118.091C308.174 118.358 308.102 118.682 308.102 119.062ZM316.775 123.136C316.161 123.136 315.633 122.991 315.19 122.702C314.746 122.412 314.406 122.013 314.167 121.504C313.928 120.996 313.809 120.415 313.809 119.761C313.809 119.097 313.931 118.51 314.175 118.001C314.423 117.49 314.766 117.091 315.207 116.804C315.65 116.514 316.167 116.369 316.758 116.369C317.218 116.369 317.633 116.455 318.002 116.625C318.371 116.795 318.674 117.034 318.91 117.341C319.146 117.648 319.292 118.006 319.349 118.415H318.343C318.266 118.116 318.096 117.852 317.832 117.622C317.57 117.389 317.218 117.273 316.775 117.273C316.383 117.273 316.039 117.375 315.744 117.58C315.451 117.781 315.222 118.067 315.058 118.436C314.896 118.803 314.815 119.233 314.815 119.727C314.815 120.233 314.894 120.673 315.053 121.048C315.215 121.423 315.442 121.714 315.735 121.922C316.031 122.129 316.377 122.233 316.775 122.233C317.036 122.233 317.273 122.188 317.487 122.097C317.7 122.006 317.88 121.875 318.028 121.705C318.175 121.534 318.281 121.33 318.343 121.091H319.349C319.292 121.477 319.151 121.825 318.927 122.135C318.705 122.442 318.411 122.686 318.045 122.868C317.681 123.047 317.258 123.136 316.775 123.136ZM323.478 123.136C322.887 123.136 322.369 122.996 321.923 122.714C321.479 122.433 321.133 122.04 320.883 121.534C320.636 121.028 320.512 120.437 320.512 119.761C320.512 119.08 320.636 118.484 320.883 117.976C321.133 117.467 321.479 117.072 321.923 116.791C322.369 116.51 322.887 116.369 323.478 116.369C324.069 116.369 324.586 116.51 325.029 116.791C325.475 117.072 325.822 117.467 326.069 117.976C326.319 118.484 326.444 119.08 326.444 119.761C326.444 120.437 326.319 121.028 326.069 121.534C325.822 122.04 325.475 122.433 325.029 122.714C324.586 122.996 324.069 123.136 323.478 123.136ZM323.478 122.233C323.927 122.233 324.296 122.118 324.586 121.888C324.876 121.658 325.09 121.355 325.229 120.98C325.369 120.605 325.438 120.199 325.438 119.761C325.438 119.324 325.369 118.916 325.229 118.538C325.09 118.161 324.876 117.855 324.586 117.622C324.296 117.389 323.927 117.273 323.478 117.273C323.029 117.273 322.66 117.389 322.37 117.622C322.08 117.855 321.866 118.161 321.727 118.538C321.587 118.916 321.518 119.324 321.518 119.761C321.518 120.199 321.587 120.605 321.727 120.98C321.866 121.355 322.08 121.658 322.37 121.888C322.66 122.118 323.029 122.233 323.478 122.233ZM327.979 123V116.455H328.951V117.477H329.036C329.172 117.128 329.392 116.857 329.696 116.663C330 116.467 330.365 116.369 330.792 116.369C331.223 116.369 331.583 116.467 331.87 116.663C332.159 116.857 332.385 117.128 332.547 117.477H332.615C332.783 117.139 333.034 116.871 333.37 116.672C333.705 116.47 334.107 116.369 334.576 116.369C335.161 116.369 335.64 116.553 336.012 116.919C336.384 117.283 336.57 117.849 336.57 118.619V123H335.564V118.619C335.564 118.136 335.432 117.791 335.168 117.584C334.904 117.376 334.593 117.273 334.235 117.273C333.775 117.273 333.418 117.412 333.165 117.69C332.912 117.966 332.786 118.315 332.786 118.739V123H331.763V118.517C331.763 118.145 331.642 117.845 331.401 117.618C331.159 117.388 330.848 117.273 330.468 117.273C330.206 117.273 329.962 117.342 329.735 117.482C329.51 117.621 329.328 117.814 329.189 118.061C329.053 118.305 328.985 118.588 328.985 118.909V123H327.979ZM338.409 125.455V116.455H339.38V117.494H339.5C339.574 117.381 339.676 117.236 339.806 117.06C339.94 116.881 340.13 116.722 340.377 116.582C340.627 116.44 340.966 116.369 341.392 116.369C341.943 116.369 342.429 116.507 342.849 116.783C343.27 117.058 343.598 117.449 343.833 117.955C344.069 118.46 344.187 119.057 344.187 119.744C344.187 120.438 344.069 121.038 343.833 121.547C343.598 122.053 343.271 122.445 342.853 122.723C342.436 122.999 341.954 123.136 341.409 123.136C340.988 123.136 340.652 123.067 340.399 122.928C340.146 122.786 339.951 122.625 339.815 122.446C339.679 122.264 339.574 122.114 339.5 121.994H339.414V125.455H338.409ZM339.397 119.727C339.397 120.222 339.47 120.658 339.615 121.036C339.76 121.411 339.971 121.705 340.25 121.918C340.528 122.128 340.869 122.233 341.272 122.233C341.693 122.233 342.044 122.122 342.325 121.901C342.609 121.676 342.822 121.375 342.964 120.997C343.109 120.616 343.181 120.193 343.181 119.727C343.181 119.267 343.11 118.852 342.968 118.483C342.829 118.111 342.618 117.817 342.333 117.601C342.052 117.382 341.699 117.273 341.272 117.273C340.863 117.273 340.52 117.376 340.241 117.584C339.963 117.788 339.752 118.075 339.61 118.445C339.468 118.811 339.397 119.239 339.397 119.727ZM346.727 114.273V123H345.721V114.273H346.727ZM351.313 123.136C350.683 123.136 350.138 122.997 349.681 122.719C349.227 122.438 348.876 122.045 348.629 121.543C348.384 121.037 348.262 120.449 348.262 119.778C348.262 119.108 348.384 118.517 348.629 118.006C348.876 117.491 349.219 117.091 349.66 116.804C350.103 116.514 350.62 116.369 351.211 116.369C351.552 116.369 351.888 116.426 352.221 116.54C352.553 116.653 352.856 116.838 353.129 117.094C353.401 117.347 353.619 117.682 353.781 118.099C353.942 118.517 354.023 119.031 354.023 119.642V120.068H348.978V119.199H353.001C353.001 118.83 352.927 118.5 352.779 118.21C352.634 117.92 352.427 117.692 352.157 117.524C351.89 117.357 351.575 117.273 351.211 117.273C350.81 117.273 350.464 117.372 350.171 117.571C349.881 117.767 349.658 118.023 349.502 118.338C349.346 118.653 349.268 118.991 349.268 119.352V119.932C349.268 120.426 349.353 120.845 349.523 121.189C349.697 121.53 349.937 121.79 350.244 121.969C350.55 122.145 350.907 122.233 351.313 122.233C351.577 122.233 351.816 122.196 352.029 122.122C352.245 122.045 352.431 121.932 352.587 121.781C352.744 121.628 352.864 121.437 352.95 121.21L353.921 121.483C353.819 121.812 353.647 122.102 353.406 122.352C353.164 122.599 352.866 122.793 352.511 122.932C352.156 123.068 351.756 123.136 351.313 123.136ZM358.4 116.455V117.307H355.008V116.455H358.4ZM355.996 114.886H357.002V121.125C357.002 121.409 357.043 121.622 357.126 121.764C357.211 121.903 357.319 121.997 357.45 122.045C357.583 122.091 357.724 122.114 357.871 122.114C357.982 122.114 358.073 122.108 358.144 122.097C358.215 122.082 358.272 122.071 358.315 122.062L358.519 122.966C358.451 122.991 358.356 123.017 358.234 123.043C358.112 123.071 357.957 123.085 357.769 123.085C357.485 123.085 357.207 123.024 356.934 122.902C356.664 122.78 356.44 122.594 356.261 122.344C356.085 122.094 355.996 121.778 355.996 121.398V114.886ZM362.587 123.136C361.956 123.136 361.412 122.997 360.955 122.719C360.5 122.438 360.149 122.045 359.902 121.543C359.658 121.037 359.536 120.449 359.536 119.778C359.536 119.108 359.658 118.517 359.902 118.006C360.149 117.491 360.493 117.091 360.933 116.804C361.376 116.514 361.893 116.369 362.484 116.369C362.825 116.369 363.162 116.426 363.494 116.54C363.827 116.653 364.129 116.838 364.402 117.094C364.675 117.347 364.892 117.682 365.054 118.099C365.216 118.517 365.297 119.031 365.297 119.642V120.068H360.251V119.199H364.274C364.274 118.83 364.2 118.5 364.053 118.21C363.908 117.92 363.7 117.692 363.43 117.524C363.163 117.357 362.848 117.273 362.484 117.273C362.084 117.273 361.737 117.372 361.445 117.571C361.155 117.767 360.932 118.023 360.776 118.338C360.619 118.653 360.541 118.991 360.541 119.352V119.932C360.541 120.426 360.626 120.845 360.797 121.189C360.97 121.53 361.21 121.79 361.517 121.969C361.824 122.145 362.18 122.233 362.587 122.233C362.851 122.233 363.089 122.196 363.303 122.122C363.518 122.045 363.705 121.932 363.861 121.781C364.017 121.628 364.138 121.437 364.223 121.21L365.195 121.483C365.092 121.812 364.92 122.102 364.679 122.352C364.438 122.599 364.139 122.793 363.784 122.932C363.429 123.068 363.03 123.136 362.587 123.136Z" fill="black"/>
<path d="M438.114 114.273V123H437.057V114.273H438.114ZM441.102 119.062V123H440.096V116.455H441.068V117.477H441.153C441.306 117.145 441.539 116.878 441.852 116.676C442.164 116.472 442.568 116.369 443.062 116.369C443.505 116.369 443.893 116.46 444.225 116.642C444.558 116.821 444.816 117.094 445.001 117.46C445.186 117.824 445.278 118.284 445.278 118.841V123H444.272V118.909C444.272 118.395 444.139 117.994 443.872 117.707C443.605 117.418 443.238 117.273 442.772 117.273C442.451 117.273 442.164 117.342 441.912 117.482C441.662 117.621 441.464 117.824 441.319 118.091C441.174 118.358 441.102 118.682 441.102 119.062ZM450.491 125.455V116.455H451.462V117.494H451.582C451.656 117.381 451.758 117.236 451.888 117.06C452.022 116.881 452.212 116.722 452.46 116.582C452.71 116.44 453.048 116.369 453.474 116.369C454.025 116.369 454.511 116.507 454.931 116.783C455.352 117.058 455.68 117.449 455.915 117.955C456.151 118.46 456.269 119.057 456.269 119.744C456.269 120.438 456.151 121.038 455.915 121.547C455.68 122.053 455.353 122.445 454.935 122.723C454.518 122.999 454.036 123.136 453.491 123.136C453.07 123.136 452.734 123.067 452.481 122.928C452.228 122.786 452.033 122.625 451.897 122.446C451.761 122.264 451.656 122.114 451.582 121.994H451.496V125.455H450.491ZM451.479 119.727C451.479 120.222 451.552 120.658 451.697 121.036C451.842 121.411 452.053 121.705 452.332 121.918C452.61 122.128 452.951 122.233 453.354 122.233C453.775 122.233 454.126 122.122 454.407 121.901C454.691 121.676 454.904 121.375 455.046 120.997C455.191 120.616 455.263 120.193 455.263 119.727C455.263 119.267 455.192 118.852 455.05 118.483C454.911 118.111 454.7 117.817 454.415 117.601C454.134 117.382 453.781 117.273 453.354 117.273C452.945 117.273 452.602 117.376 452.323 117.584C452.045 117.788 451.835 118.075 451.692 118.445C451.55 118.811 451.479 119.239 451.479 119.727ZM457.803 123V116.455H458.775V117.443H458.843C458.962 117.119 459.178 116.857 459.491 116.655C459.803 116.453 460.156 116.352 460.548 116.352C460.621 116.352 460.714 116.354 460.825 116.357C460.935 116.359 461.019 116.364 461.076 116.369V117.392C461.042 117.384 460.964 117.371 460.842 117.354C460.722 117.334 460.596 117.324 460.462 117.324C460.144 117.324 459.86 117.391 459.61 117.524C459.363 117.655 459.167 117.837 459.022 118.07C458.88 118.3 458.809 118.562 458.809 118.858V123H457.803ZM464.728 123.136C464.137 123.136 463.619 122.996 463.173 122.714C462.729 122.433 462.383 122.04 462.133 121.534C461.886 121.028 461.762 120.437 461.762 119.761C461.762 119.08 461.886 118.484 462.133 117.976C462.383 117.467 462.729 117.072 463.173 116.791C463.619 116.51 464.137 116.369 464.728 116.369C465.319 116.369 465.836 116.51 466.279 116.791C466.725 117.072 467.072 117.467 467.319 117.976C467.569 118.484 467.694 119.08 467.694 119.761C467.694 120.437 467.569 121.028 467.319 121.534C467.072 122.04 466.725 122.433 466.279 122.714C465.836 122.996 465.319 123.136 464.728 123.136ZM464.728 122.233C465.177 122.233 465.546 122.118 465.836 121.888C466.126 121.658 466.34 121.355 466.479 120.98C466.619 120.605 466.688 120.199 466.688 119.761C466.688 119.324 466.619 118.916 466.479 118.538C466.34 118.161 466.126 117.855 465.836 117.622C465.546 117.389 465.177 117.273 464.728 117.273C464.279 117.273 463.91 117.389 463.62 117.622C463.33 117.855 463.116 118.161 462.977 118.538C462.837 118.916 462.768 119.324 462.768 119.761C462.768 120.199 462.837 120.605 462.977 120.98C463.116 121.355 463.33 121.658 463.62 121.888C463.91 122.118 464.279 122.233 464.728 122.233ZM471.871 125.591C471.385 125.591 470.968 125.528 470.618 125.403C470.269 125.281 469.978 125.119 469.745 124.918C469.515 124.719 469.331 124.506 469.195 124.278L469.996 123.716C470.087 123.835 470.202 123.972 470.341 124.125C470.48 124.281 470.671 124.416 470.912 124.53C471.157 124.646 471.476 124.705 471.871 124.705C472.4 124.705 472.836 124.577 473.179 124.321C473.523 124.065 473.695 123.665 473.695 123.119V121.79H473.61C473.536 121.909 473.431 122.057 473.294 122.233C473.161 122.406 472.968 122.561 472.715 122.697C472.465 122.831 472.127 122.898 471.701 122.898C471.172 122.898 470.698 122.773 470.277 122.523C469.86 122.273 469.529 121.909 469.284 121.432C469.043 120.955 468.922 120.375 468.922 119.693C468.922 119.023 469.04 118.439 469.276 117.942C469.512 117.442 469.84 117.055 470.26 116.783C470.681 116.507 471.167 116.369 471.718 116.369C472.144 116.369 472.482 116.44 472.732 116.582C472.985 116.722 473.178 116.881 473.311 117.06C473.448 117.236 473.553 117.381 473.627 117.494H473.729V116.455H474.701V123.188C474.701 123.75 474.573 124.207 474.317 124.56C474.064 124.915 473.723 125.175 473.294 125.339C472.868 125.507 472.394 125.591 471.871 125.591ZM471.837 121.994C472.24 121.994 472.581 121.902 472.86 121.717C473.138 121.533 473.35 121.267 473.495 120.92C473.64 120.574 473.712 120.159 473.712 119.676C473.712 119.205 473.641 118.788 473.499 118.428C473.357 118.067 473.147 117.784 472.868 117.58C472.59 117.375 472.246 117.273 471.837 117.273C471.411 117.273 471.056 117.381 470.772 117.597C470.49 117.812 470.279 118.102 470.137 118.466C469.998 118.83 469.928 119.233 469.928 119.676C469.928 120.131 469.999 120.533 470.141 120.882C470.286 121.229 470.499 121.501 470.78 121.7C471.064 121.896 471.417 121.994 471.837 121.994ZM476.542 123V116.455H477.513V117.443H477.581C477.701 117.119 477.917 116.857 478.229 116.655C478.542 116.453 478.894 116.352 479.286 116.352C479.36 116.352 479.452 116.354 479.563 116.357C479.674 116.359 479.757 116.364 479.814 116.369V117.392C479.78 117.384 479.702 117.371 479.58 117.354C479.461 117.334 479.334 117.324 479.201 117.324C478.882 117.324 478.598 117.391 478.348 117.524C478.101 117.655 477.905 117.837 477.76 118.07C477.618 118.3 477.547 118.562 477.547 118.858V123H476.542ZM483.551 123.136C482.921 123.136 482.377 122.997 481.919 122.719C481.465 122.438 481.114 122.045 480.867 121.543C480.623 121.037 480.5 120.449 480.5 119.778C480.5 119.108 480.623 118.517 480.867 118.006C481.114 117.491 481.458 117.091 481.898 116.804C482.341 116.514 482.858 116.369 483.449 116.369C483.79 116.369 484.127 116.426 484.459 116.54C484.792 116.653 485.094 116.838 485.367 117.094C485.64 117.347 485.857 117.682 486.019 118.099C486.181 118.517 486.262 119.031 486.262 119.642V120.068H481.216V119.199H485.239C485.239 118.83 485.165 118.5 485.017 118.21C484.873 117.92 484.665 117.692 484.395 117.524C484.128 117.357 483.813 117.273 483.449 117.273C483.049 117.273 482.702 117.372 482.409 117.571C482.12 117.767 481.897 118.023 481.74 118.338C481.584 118.653 481.506 118.991 481.506 119.352V119.932C481.506 120.426 481.591 120.845 481.762 121.189C481.935 121.53 482.175 121.79 482.482 121.969C482.789 122.145 483.145 122.233 483.551 122.233C483.816 122.233 484.054 122.196 484.267 122.122C484.483 122.045 484.669 121.932 484.826 121.781C484.982 121.628 485.103 121.437 485.188 121.21L486.159 121.483C486.057 121.812 485.885 122.102 485.644 122.352C485.402 122.599 485.104 122.793 484.749 122.932C484.394 123.068 483.995 123.136 483.551 123.136ZM492.428 117.92L491.525 118.176C491.468 118.026 491.384 117.879 491.273 117.737C491.165 117.592 491.017 117.473 490.83 117.379C490.642 117.286 490.402 117.239 490.11 117.239C489.709 117.239 489.375 117.331 489.108 117.516C488.844 117.697 488.712 117.929 488.712 118.21C488.712 118.46 488.803 118.658 488.985 118.803C489.167 118.947 489.451 119.068 489.837 119.165L490.809 119.403C491.394 119.545 491.83 119.763 492.117 120.055C492.404 120.345 492.547 120.719 492.547 121.176C492.547 121.551 492.439 121.886 492.223 122.182C492.01 122.477 491.712 122.71 491.328 122.881C490.945 123.051 490.499 123.136 489.99 123.136C489.323 123.136 488.77 122.991 488.333 122.702C487.895 122.412 487.618 121.989 487.502 121.432L488.456 121.193C488.547 121.545 488.719 121.81 488.972 121.986C489.228 122.162 489.561 122.25 489.973 122.25C490.442 122.25 490.814 122.151 491.09 121.952C491.368 121.75 491.507 121.509 491.507 121.227C491.507 121 491.428 120.81 491.269 120.656C491.11 120.5 490.865 120.384 490.536 120.307L489.445 120.051C488.846 119.909 488.405 119.689 488.124 119.391C487.846 119.089 487.706 118.713 487.706 118.261C487.706 117.892 487.81 117.565 488.017 117.281C488.228 116.997 488.513 116.774 488.874 116.612C489.238 116.45 489.65 116.369 490.11 116.369C490.757 116.369 491.266 116.511 491.635 116.795C492.007 117.08 492.272 117.455 492.428 117.92ZM498.697 117.92L497.794 118.176C497.737 118.026 497.653 117.879 497.543 117.737C497.435 117.592 497.287 117.473 497.099 117.379C496.912 117.286 496.672 117.239 496.379 117.239C495.979 117.239 495.645 117.331 495.378 117.516C495.114 117.697 494.982 117.929 494.982 118.21C494.982 118.46 495.072 118.658 495.254 118.803C495.436 118.947 495.72 119.068 496.107 119.165L497.078 119.403C497.663 119.545 498.099 119.763 498.386 120.055C498.673 120.345 498.817 120.719 498.817 121.176C498.817 121.551 498.709 121.886 498.493 122.182C498.28 122.477 497.982 122.71 497.598 122.881C497.214 123.051 496.768 123.136 496.26 123.136C495.592 123.136 495.04 122.991 494.602 122.702C494.165 122.412 493.888 121.989 493.771 121.432L494.726 121.193C494.817 121.545 494.989 121.81 495.241 121.986C495.497 122.162 495.831 122.25 496.243 122.25C496.712 122.25 497.084 122.151 497.359 121.952C497.638 121.75 497.777 121.509 497.777 121.227C497.777 121 497.697 120.81 497.538 120.656C497.379 120.5 497.135 120.384 496.805 120.307L495.714 120.051C495.115 119.909 494.675 119.689 494.393 119.391C494.115 119.089 493.976 118.713 493.976 118.261C493.976 117.892 494.08 117.565 494.287 117.281C494.497 116.997 494.783 116.774 495.143 116.612C495.507 116.45 495.919 116.369 496.379 116.369C497.027 116.369 497.536 116.511 497.905 116.795C498.277 117.08 498.541 117.455 498.697 117.92Z" fill="black"/>
<path d="M578.08 117H577.023C576.96 116.696 576.851 116.429 576.695 116.199C576.541 115.969 576.354 115.776 576.132 115.619C575.913 115.46 575.67 115.341 575.403 115.261C575.136 115.182 574.858 115.142 574.568 115.142C574.04 115.142 573.561 115.276 573.132 115.543C572.706 115.81 572.366 116.203 572.114 116.723C571.864 117.243 571.739 117.881 571.739 118.636C571.739 119.392 571.864 120.03 572.114 120.55C572.366 121.07 572.706 121.463 573.132 121.73C573.561 121.997 574.04 122.131 574.568 122.131C574.858 122.131 575.136 122.091 575.403 122.011C575.67 121.932 575.913 121.814 576.132 121.658C576.354 121.499 576.541 121.304 576.695 121.074C576.851 120.841 576.96 120.574 577.023 120.273H578.08C578 120.719 577.855 121.118 577.645 121.47C577.435 121.822 577.173 122.122 576.861 122.369C576.548 122.614 576.197 122.8 575.808 122.928C575.422 123.055 575.009 123.119 574.568 123.119C573.824 123.119 573.162 122.938 572.582 122.574C572.003 122.21 571.547 121.693 571.214 121.023C570.882 120.352 570.716 119.557 570.716 118.636C570.716 117.716 570.882 116.92 571.214 116.25C571.547 115.58 572.003 115.062 572.582 114.699C573.162 114.335 573.824 114.153 574.568 114.153C575.009 114.153 575.422 114.217 575.808 114.345C576.197 114.473 576.548 114.661 576.861 114.908C577.173 115.152 577.435 115.45 577.645 115.803C577.855 116.152 578 116.551 578.08 117ZM582.31 123.136C581.719 123.136 581.201 122.996 580.755 122.714C580.311 122.433 579.965 122.04 579.715 121.534C579.468 121.028 579.344 120.437 579.344 119.761C579.344 119.08 579.468 118.484 579.715 117.976C579.965 117.467 580.311 117.072 580.755 116.791C581.201 116.51 581.719 116.369 582.31 116.369C582.901 116.369 583.418 116.51 583.861 116.791C584.307 117.072 584.654 117.467 584.901 117.976C585.151 118.484 585.276 119.08 585.276 119.761C585.276 120.437 585.151 121.028 584.901 121.534C584.654 122.04 584.307 122.433 583.861 122.714C583.418 122.996 582.901 123.136 582.31 123.136ZM582.31 122.233C582.759 122.233 583.128 122.118 583.418 121.888C583.708 121.658 583.922 121.355 584.061 120.98C584.201 120.605 584.27 120.199 584.27 119.761C584.27 119.324 584.201 118.916 584.061 118.538C583.922 118.161 583.708 117.855 583.418 117.622C583.128 117.389 582.759 117.273 582.31 117.273C581.861 117.273 581.492 117.389 581.202 117.622C580.912 117.855 580.698 118.161 580.559 118.538C580.419 118.916 580.35 119.324 580.35 119.761C580.35 120.199 580.419 120.605 580.559 120.98C580.698 121.355 580.912 121.658 581.202 121.888C581.492 122.118 581.861 122.233 582.31 122.233ZM586.811 123V116.455H587.783V117.477H587.868C588.004 117.128 588.224 116.857 588.528 116.663C588.832 116.467 589.197 116.369 589.624 116.369C590.055 116.369 590.415 116.467 590.702 116.663C590.991 116.857 591.217 117.128 591.379 117.477H591.447C591.615 117.139 591.866 116.871 592.202 116.672C592.537 116.47 592.939 116.369 593.408 116.369C593.993 116.369 594.472 116.553 594.844 116.919C595.216 117.283 595.402 117.849 595.402 118.619V123H594.396V118.619C594.396 118.136 594.264 117.791 594 117.584C593.736 117.376 593.425 117.273 593.067 117.273C592.607 117.273 592.25 117.412 591.997 117.69C591.744 117.966 591.618 118.315 591.618 118.739V123H590.595V118.517C590.595 118.145 590.474 117.845 590.233 117.618C589.991 117.388 589.68 117.273 589.3 117.273C589.038 117.273 588.794 117.342 588.567 117.482C588.342 117.621 588.161 117.814 588.021 118.061C587.885 118.305 587.817 118.588 587.817 118.909V123H586.811ZM597.241 125.455V116.455H598.212V117.494H598.332C598.406 117.381 598.508 117.236 598.638 117.06C598.772 116.881 598.962 116.722 599.21 116.582C599.46 116.44 599.798 116.369 600.224 116.369C600.775 116.369 601.261 116.507 601.681 116.783C602.102 117.058 602.43 117.449 602.665 117.955C602.901 118.46 603.019 119.057 603.019 119.744C603.019 120.438 602.901 121.038 602.665 121.547C602.43 122.053 602.103 122.445 601.685 122.723C601.268 122.999 600.786 123.136 600.241 123.136C599.82 123.136 599.484 123.067 599.231 122.928C598.978 122.786 598.783 122.625 598.647 122.446C598.511 122.264 598.406 122.114 598.332 121.994H598.246V125.455H597.241ZM598.229 119.727C598.229 120.222 598.302 120.658 598.447 121.036C598.592 121.411 598.803 121.705 599.082 121.918C599.36 122.128 599.701 122.233 600.104 122.233C600.525 122.233 600.876 122.122 601.157 121.901C601.441 121.676 601.654 121.375 601.796 120.997C601.941 120.616 602.013 120.193 602.013 119.727C602.013 119.267 601.942 118.852 601.8 118.483C601.661 118.111 601.45 117.817 601.165 117.601C600.884 117.382 600.531 117.273 600.104 117.273C599.695 117.273 599.352 117.376 599.073 117.584C598.795 117.788 598.585 118.075 598.442 118.445C598.3 118.811 598.229 119.239 598.229 119.727ZM605.559 114.273V123H604.553V114.273H605.559ZM610.145 123.136C609.515 123.136 608.971 122.997 608.513 122.719C608.059 122.438 607.708 122.045 607.461 121.543C607.216 121.037 607.094 120.449 607.094 119.778C607.094 119.108 607.216 118.517 607.461 118.006C607.708 117.491 608.051 117.091 608.492 116.804C608.935 116.514 609.452 116.369 610.043 116.369C610.384 116.369 610.721 116.426 611.053 116.54C611.385 116.653 611.688 116.838 611.961 117.094C612.233 117.347 612.451 117.682 612.613 118.099C612.775 118.517 612.855 119.031 612.855 119.642V120.068H607.81V119.199H611.833C611.833 118.83 611.759 118.5 611.611 118.21C611.466 117.92 611.259 117.692 610.989 117.524C610.722 117.357 610.407 117.273 610.043 117.273C609.642 117.273 609.296 117.372 609.003 117.571C608.713 117.767 608.49 118.023 608.334 118.338C608.178 118.653 608.1 118.991 608.1 119.352V119.932C608.1 120.426 608.185 120.845 608.355 121.189C608.529 121.53 608.769 121.79 609.076 121.969C609.382 122.145 609.739 122.233 610.145 122.233C610.409 122.233 610.648 122.196 610.861 122.122C611.077 122.045 611.263 121.932 611.419 121.781C611.576 121.628 611.696 121.437 611.782 121.21L612.753 121.483C612.651 121.812 612.479 122.102 612.238 122.352C611.996 122.599 611.698 122.793 611.343 122.932C610.988 123.068 610.588 123.136 610.145 123.136ZM617.232 116.455V117.307H613.84V116.455H617.232ZM614.828 114.886H615.834V121.125C615.834 121.409 615.875 121.622 615.958 121.764C616.043 121.903 616.151 121.997 616.282 122.045C616.415 122.091 616.556 122.114 616.703 122.114C616.814 122.114 616.905 122.108 616.976 122.097C617.047 122.082 617.104 122.071 617.147 122.062L617.351 122.966C617.283 122.991 617.188 123.017 617.066 123.043C616.944 123.071 616.789 123.085 616.601 123.085C616.317 123.085 616.039 123.024 615.766 122.902C615.496 122.78 615.272 122.594 615.093 122.344C614.917 122.094 614.828 121.778 614.828 121.398V114.886ZM621.419 123.136C620.788 123.136 620.244 122.997 619.787 122.719C619.332 122.438 618.981 122.045 618.734 121.543C618.49 121.037 618.368 120.449 618.368 119.778C618.368 119.108 618.49 118.517 618.734 118.006C618.981 117.491 619.325 117.091 619.765 116.804C620.208 116.514 620.725 116.369 621.316 116.369C621.657 116.369 621.994 116.426 622.326 116.54C622.659 116.653 622.961 116.838 623.234 117.094C623.507 117.347 623.724 117.682 623.886 118.099C624.048 118.517 624.129 119.031 624.129 119.642V120.068H619.083V119.199H623.106C623.106 118.83 623.032 118.5 622.885 118.21C622.74 117.92 622.532 117.692 622.262 117.524C621.995 117.357 621.68 117.273 621.316 117.273C620.916 117.273 620.569 117.372 620.277 117.571C619.987 117.767 619.764 118.023 619.608 118.338C619.451 118.653 619.373 118.991 619.373 119.352V119.932C619.373 120.426 619.458 120.845 619.629 121.189C619.802 121.53 620.042 121.79 620.349 121.969C620.656 122.145 621.012 122.233 621.419 122.233C621.683 122.233 621.922 122.196 622.135 122.122C622.35 122.045 622.537 121.932 622.693 121.781C622.849 121.628 622.97 121.437 623.055 121.21L624.027 121.483C623.924 121.812 623.752 122.102 623.511 122.352C623.27 122.599 622.971 122.793 622.616 122.932C622.261 123.068 621.862 123.136 621.419 123.136ZM628.13 123.136C627.585 123.136 627.103 122.999 626.686 122.723C626.268 122.445 625.941 122.053 625.706 121.547C625.47 121.038 625.352 120.438 625.352 119.744C625.352 119.057 625.47 118.46 625.706 117.955C625.941 117.449 626.27 117.058 626.69 116.783C627.11 116.507 627.596 116.369 628.147 116.369C628.574 116.369 628.91 116.44 629.157 116.582C629.407 116.722 629.598 116.881 629.728 117.06C629.862 117.236 629.966 117.381 630.039 117.494H630.125V114.273H631.13V123H630.159V121.994H630.039C629.966 122.114 629.86 122.264 629.724 122.446C629.588 122.625 629.393 122.786 629.14 122.928C628.887 123.067 628.551 123.136 628.13 123.136ZM628.267 122.233C628.67 122.233 629.011 122.128 629.289 121.918C629.568 121.705 629.779 121.411 629.924 121.036C630.069 120.658 630.142 120.222 630.142 119.727C630.142 119.239 630.071 118.811 629.929 118.445C629.787 118.075 629.576 117.788 629.298 117.584C629.02 117.376 628.676 117.273 628.267 117.273C627.841 117.273 627.485 117.382 627.201 117.601C626.92 117.817 626.708 118.111 626.566 118.483C626.427 118.852 626.358 119.267 626.358 119.727C626.358 120.193 626.429 120.616 626.571 120.997C626.716 121.375 626.929 121.676 627.21 121.901C627.494 122.122 627.846 122.233 628.267 122.233Z" fill="black"/>
</svg>
