<svg width="804" height="255" viewBox="0 0 804 255" fill="none" xmlns="http://www.w3.org/2000/svg">
<rect width="804" height="255" fill="#F9FAFB"/>
<g filter="url(#filter0_dd_720_33)">
<g clip-path="url(#clip0_720_33)">
<rect x="81" y="50" width="145" height="150.311" rx="7.10373" fill="white"/>
<rect width="73" height="71" transform="translate(81 50)" fill="#0A72BA"/>
<rect width="73" height="71" transform="translate(153 50)" fill="#217CF5"/>
<path d="M92.9983 147.656L97.5088 138.736V138.661H92.292V137.324H99.1232V138.706L94.6279 147.656H92.9983ZM104.253 147.828C103.456 147.824 102.775 147.614 102.21 147.197C101.645 146.78 101.212 146.173 100.913 145.376C100.614 144.579 100.464 143.618 100.464 142.495C100.464 141.375 100.614 140.418 100.913 139.624C101.216 138.83 101.65 138.225 102.215 137.808C102.783 137.391 103.463 137.182 104.253 137.182C105.043 137.182 105.721 137.392 106.286 137.813C106.851 138.23 107.284 138.835 107.583 139.629C107.886 140.42 108.037 141.375 108.037 142.495C108.037 143.622 107.887 144.584 107.588 145.381C107.289 146.175 106.856 146.782 106.291 147.202C105.726 147.619 105.047 147.828 104.253 147.828ZM104.253 146.481C104.953 146.481 105.499 146.139 105.893 145.457C106.29 144.774 106.488 143.787 106.488 142.495C106.488 141.637 106.397 140.912 106.216 140.32C106.037 139.725 105.78 139.274 105.444 138.968C105.111 138.659 104.714 138.504 104.253 138.504C103.557 138.504 103.01 138.847 102.613 139.533C102.216 140.22 102.016 141.207 102.013 142.495C102.013 143.356 102.102 144.084 102.28 144.68C102.462 145.272 102.719 145.721 103.052 146.027C103.385 146.329 103.785 146.481 104.253 146.481ZM113.424 147.828C112.627 147.824 111.946 147.614 111.381 147.197C110.816 146.78 110.383 146.173 110.084 145.376C109.785 144.579 109.635 143.618 109.635 142.495C109.635 141.375 109.785 140.418 110.084 139.624C110.387 138.83 110.821 138.225 111.386 137.808C111.954 137.391 112.634 137.182 113.424 137.182C114.214 137.182 114.892 137.392 115.457 137.813C116.022 138.23 116.455 138.835 116.754 139.629C117.057 140.42 117.208 141.375 117.208 142.495C117.208 143.622 117.058 144.584 116.759 145.381C116.46 146.175 116.027 146.782 115.462 147.202C114.897 147.619 114.218 147.828 113.424 147.828ZM113.424 146.481C114.124 146.481 114.67 146.139 115.064 145.457C115.461 144.774 115.659 143.787 115.659 142.495C115.659 141.637 115.568 140.912 115.387 140.32C115.208 139.725 114.951 139.274 114.615 138.968C114.282 138.659 113.885 138.504 113.424 138.504C112.728 138.504 112.181 138.847 111.784 139.533C111.387 140.22 111.187 141.207 111.184 142.495C111.184 143.356 111.273 144.084 111.451 144.68C111.633 145.272 111.89 145.721 112.223 146.027C112.556 146.329 112.957 146.481 113.424 146.481Z" fill="#1F243D"/>
<path d="M92.6729 166.656V158.261H93.6895V161.999H98.1659V158.261H99.1825V166.656H98.1659V162.901H93.6895V166.656H92.6729ZM103.727 166.787C103.12 166.787 102.597 166.654 102.157 166.386C101.719 166.115 101.382 165.738 101.144 165.254C100.909 164.768 100.791 164.202 100.791 163.557C100.791 162.912 100.909 162.344 101.144 161.852C101.382 161.357 101.712 160.972 102.136 160.696C102.562 160.417 103.06 160.278 103.628 160.278C103.956 160.278 104.28 160.332 104.6 160.442C104.919 160.551 105.211 160.729 105.473 160.975C105.735 161.218 105.944 161.54 106.1 161.942C106.256 162.344 106.334 162.838 106.334 163.426V163.836H101.48V163H105.35C105.35 162.644 105.279 162.327 105.137 162.049C104.997 161.77 104.798 161.55 104.538 161.389C104.281 161.227 103.978 161.147 103.628 161.147C103.243 161.147 102.909 161.242 102.628 161.434C102.349 161.622 102.135 161.868 101.984 162.172C101.834 162.475 101.759 162.8 101.759 163.147V163.705C101.759 164.18 101.841 164.583 102.005 164.914C102.172 165.242 102.403 165.492 102.698 165.664C102.993 165.834 103.336 165.918 103.727 165.918C103.981 165.918 104.21 165.883 104.415 165.812C104.623 165.738 104.802 165.629 104.952 165.484C105.103 165.336 105.219 165.153 105.301 164.935L106.235 165.197C106.137 165.514 105.972 165.793 105.739 166.033C105.507 166.271 105.22 166.457 104.878 166.591C104.537 166.722 104.153 166.787 103.727 166.787ZM108.358 160.36L109.866 162.934L111.375 160.36H112.49L110.457 163.508L112.49 166.656H111.375L109.866 164.213L108.358 166.656H107.243L109.243 163.508L107.243 160.36H108.358ZM117.822 166.722C117.62 166.722 117.446 166.649 117.301 166.505C117.156 166.36 117.084 166.186 117.084 165.984C117.084 165.782 117.156 165.608 117.301 165.463C117.446 165.319 117.62 165.246 117.822 165.246C118.024 165.246 118.198 165.319 118.343 165.463C118.487 165.608 118.56 165.782 118.56 165.984C118.56 166.118 118.526 166.241 118.457 166.353C118.392 166.465 118.303 166.555 118.191 166.623C118.082 166.689 117.959 166.722 117.822 166.722ZM117.822 162.049C117.62 162.049 117.446 161.976 117.301 161.831C117.156 161.687 117.084 161.513 117.084 161.311C117.084 161.109 117.156 160.935 117.301 160.79C117.446 160.645 117.62 160.573 117.822 160.573C118.024 160.573 118.198 160.645 118.343 160.79C118.487 160.935 118.56 161.109 118.56 161.311C118.56 161.445 118.526 161.568 118.457 161.68C118.392 161.792 118.303 161.882 118.191 161.95C118.082 162.016 117.959 162.049 117.822 162.049ZM126.674 166.656L128.052 158.261H128.872L127.494 166.656H126.674ZM122.854 164.328L122.985 163.508H129.249L129.118 164.328H122.854ZM123.723 166.656L125.1 158.261H125.92L124.543 166.656H123.723ZM123.346 161.409L123.477 160.589H129.741L129.609 161.409H123.346ZM130.808 166.656V165.918L133.58 162.885C133.905 162.53 134.173 162.221 134.383 161.958C134.593 161.693 134.749 161.445 134.85 161.212C134.954 160.977 135.006 160.731 135.006 160.475C135.006 160.179 134.935 159.924 134.793 159.708C134.654 159.492 134.462 159.325 134.219 159.208C133.976 159.09 133.703 159.032 133.399 159.032C133.077 159.032 132.795 159.099 132.555 159.232C132.317 159.364 132.133 159.548 132.001 159.786C131.873 160.024 131.809 160.302 131.809 160.622H130.841C130.841 160.13 130.955 159.698 131.181 159.327C131.408 158.955 131.717 158.665 132.108 158.458C132.501 158.25 132.943 158.146 133.432 158.146C133.924 158.146 134.36 158.25 134.74 158.458C135.12 158.665 135.417 158.946 135.633 159.298C135.849 159.651 135.957 160.043 135.957 160.475C135.957 160.783 135.901 161.085 135.789 161.38C135.68 161.673 135.488 161.999 135.215 162.36C134.945 162.718 134.569 163.155 134.088 163.672L132.202 165.689V165.754H136.105V166.656H130.808ZM140.749 158.261V166.656H139.733V159.327H139.683L137.634 160.688V159.655L139.733 158.261H140.749ZM143.426 166.656L147.181 159.228V159.163H142.852V158.261H148.23V159.212L144.492 166.656H143.426ZM156.662 160.884H155.645C155.585 160.592 155.48 160.335 155.329 160.114C155.182 159.892 155.001 159.707 154.788 159.556C154.578 159.403 154.344 159.288 154.087 159.212C153.83 159.135 153.563 159.097 153.284 159.097C152.775 159.097 152.315 159.226 151.902 159.483C151.492 159.739 151.166 160.118 150.923 160.618C150.682 161.118 150.562 161.732 150.562 162.459C150.562 163.186 150.682 163.799 150.923 164.299C151.166 164.799 151.492 165.178 151.902 165.435C152.315 165.692 152.775 165.82 153.284 165.82C153.563 165.82 153.83 165.782 154.087 165.705C154.344 165.629 154.578 165.515 154.788 165.365C155.001 165.212 155.182 165.025 155.329 164.803C155.48 164.579 155.585 164.322 155.645 164.033H156.662C156.585 164.462 156.446 164.846 156.243 165.185C156.041 165.523 155.79 165.812 155.489 166.05C155.189 166.285 154.851 166.464 154.477 166.587C154.105 166.71 153.707 166.771 153.284 166.771C152.568 166.771 151.931 166.596 151.374 166.246C150.816 165.897 150.377 165.399 150.058 164.754C149.738 164.109 149.578 163.344 149.578 162.459C149.578 161.573 149.738 160.808 150.058 160.163C150.377 159.518 150.816 159.021 151.374 158.671C151.931 158.321 152.568 158.146 153.284 158.146C153.707 158.146 154.105 158.208 154.477 158.331C154.851 158.454 155.189 158.634 155.489 158.872C155.79 159.107 156.041 159.394 156.243 159.733C156.446 160.069 156.585 160.453 156.662 160.884ZM158.304 166.656V158.261H163.338V159.163H159.321V161.999H162.961V162.901H159.321V166.656H158.304ZM167.555 166.771C167.074 166.771 166.641 166.675 166.256 166.484C165.871 166.293 165.562 166.03 165.33 165.697C165.097 165.364 164.97 164.984 164.948 164.557H165.932C165.97 164.937 166.143 165.252 166.449 165.5C166.757 165.746 167.126 165.869 167.555 165.869C167.9 165.869 168.206 165.789 168.474 165.627C168.744 165.466 168.956 165.245 169.109 164.963C169.265 164.679 169.343 164.358 169.343 164C169.343 163.634 169.262 163.307 169.101 163.02C168.942 162.731 168.724 162.502 168.445 162.336C168.166 162.169 167.848 162.084 167.49 162.081C167.233 162.079 166.969 162.118 166.699 162.2C166.428 162.28 166.205 162.382 166.03 162.508L165.079 162.393L165.588 158.261H169.949V159.163H166.44L166.145 161.639H166.194C166.367 161.502 166.583 161.389 166.842 161.298C167.102 161.208 167.372 161.163 167.654 161.163C168.168 161.163 168.625 161.286 169.027 161.532C169.432 161.775 169.749 162.109 169.978 162.532C170.21 162.956 170.327 163.44 170.327 163.984C170.327 164.519 170.206 164.997 169.966 165.418C169.728 165.836 169.4 166.167 168.982 166.41C168.564 166.651 168.088 166.771 167.555 166.771Z" fill="#959BA3"/>
<path d="M99.4285 178.884H98.4119C98.3517 178.592 98.2465 178.335 98.0962 178.114C97.9486 177.892 97.7683 177.707 97.5551 177.556C97.3447 177.403 97.111 177.288 96.8541 177.212C96.5972 177.135 96.3294 177.097 96.0507 177.097C95.5424 177.097 95.0819 177.226 94.6692 177.483C94.2593 177.739 93.9327 178.118 93.6895 178.618C93.449 179.118 93.3288 179.732 93.3288 180.459C93.3288 181.186 93.449 181.799 93.6895 182.299C93.9327 182.799 94.2593 183.178 94.6692 183.435C95.0819 183.692 95.5424 183.82 96.0507 183.82C96.3294 183.82 96.5972 183.782 96.8541 183.705C97.111 183.629 97.3447 183.515 97.5551 183.365C97.7683 183.212 97.9486 183.025 98.0962 182.803C98.2465 182.579 98.3517 182.322 98.4119 182.033H99.4285C99.352 182.462 99.2126 182.846 99.0104 183.185C98.8081 183.523 98.5567 183.812 98.2561 184.05C97.9555 184.285 97.618 184.464 97.2436 184.587C96.8719 184.71 96.4743 184.771 96.0507 184.771C95.3347 184.771 94.6979 184.596 94.1404 184.246C93.5829 183.897 93.1443 183.399 92.8245 182.754C92.5048 182.109 92.3449 181.344 92.3449 180.459C92.3449 179.573 92.5048 178.808 92.8245 178.163C93.1443 177.518 93.5829 177.021 94.1404 176.671C94.6979 176.321 95.3347 176.146 96.0507 176.146C96.4743 176.146 96.8719 176.208 97.2436 176.331C97.618 176.454 97.9555 176.634 98.2561 176.872C98.5567 177.107 98.8081 177.394 99.0104 177.733C99.2126 178.069 99.352 178.453 99.4285 178.884ZM101.071 176.261H102.285L105.138 183.23H105.236L108.089 176.261H109.303V184.656H108.352V178.278H108.27L105.646 184.656H104.728L102.104 178.278H102.022V184.656H101.071V176.261ZM110.62 176.261H111.784L114.112 180.18H114.21L116.539 176.261H117.703L114.67 181.196V184.656H113.653V181.196L110.62 176.261ZM119.018 184.656V176.261H120.035V180.426H120.133L123.904 176.261H125.232L121.707 180.049L125.232 184.656H124.003L121.084 180.754L120.035 181.934V184.656H119.018ZM130.369 183.582C130.167 183.582 129.993 183.51 129.848 183.365C129.703 183.22 129.631 183.047 129.631 182.844C129.631 182.642 129.703 182.469 129.848 182.324C129.993 182.179 130.167 182.106 130.369 182.106C130.571 182.106 130.745 182.179 130.889 182.324C131.034 182.469 131.107 182.642 131.107 182.844C131.107 182.978 131.073 183.101 131.004 183.213C130.939 183.325 130.85 183.416 130.738 183.484C130.628 183.549 130.505 183.582 130.369 183.582ZM130.369 179.335C130.167 179.335 129.993 179.263 129.848 179.118C129.703 178.973 129.631 178.8 129.631 178.598C129.631 178.395 129.703 178.222 129.848 178.077C129.993 177.932 130.167 177.86 130.369 177.86C130.571 177.86 130.745 177.932 130.889 178.077C131.034 178.222 131.107 178.395 131.107 178.598C131.107 178.731 131.073 178.854 131.004 178.966C130.939 179.078 130.85 179.169 130.738 179.237C130.628 179.303 130.505 179.335 130.369 179.335ZM138.762 184.771C138.199 184.771 137.702 184.671 137.27 184.472C136.841 184.27 136.506 183.992 136.266 183.64C136.025 183.284 135.906 182.88 135.909 182.426C135.906 182.071 135.976 181.743 136.118 181.442C136.26 181.139 136.454 180.886 136.7 180.684C136.949 180.479 137.226 180.349 137.532 180.295V180.245C137.131 180.142 136.811 179.916 136.573 179.569C136.335 179.219 136.218 178.822 136.221 178.376C136.218 177.95 136.326 177.569 136.544 177.232C136.763 176.896 137.064 176.631 137.446 176.437C137.832 176.243 138.27 176.146 138.762 176.146C139.249 176.146 139.683 176.243 140.066 176.437C140.448 176.631 140.749 176.896 140.968 177.232C141.189 177.569 141.301 177.95 141.304 178.376C141.301 178.822 141.179 179.219 140.939 179.569C140.701 179.916 140.385 180.142 139.992 180.245V180.295C140.295 180.349 140.569 180.479 140.812 180.684C141.055 180.886 141.249 181.139 141.394 181.442C141.539 181.743 141.612 182.071 141.615 182.426C141.612 182.88 141.489 183.284 141.246 183.64C141.006 183.992 140.671 184.27 140.242 184.472C139.816 184.671 139.322 184.771 138.762 184.771ZM138.762 183.869C139.142 183.869 139.47 183.808 139.746 183.685C140.022 183.562 140.235 183.388 140.385 183.164C140.536 182.94 140.612 182.678 140.615 182.377C140.612 182.06 140.53 181.78 140.369 181.537C140.208 181.293 139.988 181.102 139.709 180.963C139.433 180.823 139.117 180.754 138.762 180.754C138.404 180.754 138.084 180.823 137.803 180.963C137.524 181.102 137.304 181.293 137.143 181.537C136.984 181.78 136.906 182.06 136.909 182.377C136.906 182.678 136.979 182.94 137.126 183.164C137.277 183.388 137.491 183.562 137.77 183.685C138.049 183.808 138.379 183.869 138.762 183.869ZM138.762 179.885C139.063 179.885 139.329 179.825 139.561 179.704C139.796 179.584 139.981 179.416 140.115 179.2C140.249 178.984 140.317 178.731 140.32 178.442C140.317 178.158 140.25 177.91 140.119 177.7C139.988 177.487 139.806 177.323 139.574 177.208C139.341 177.09 139.071 177.032 138.762 177.032C138.448 177.032 138.173 177.09 137.938 177.208C137.703 177.323 137.521 177.487 137.393 177.7C137.264 177.91 137.202 178.158 137.204 178.442C137.202 178.731 137.266 178.984 137.397 179.2C137.531 179.416 137.715 179.584 137.95 179.704C138.185 179.825 138.456 179.885 138.762 179.885ZM143.449 184.656L147.204 177.228V177.163H142.875V176.261H148.253V177.212L144.514 184.656H143.449ZM154.487 183.508L154.421 183.951C154.375 184.263 154.304 184.596 154.208 184.951C154.115 185.307 154.018 185.641 153.917 185.956C153.816 186.27 153.733 186.52 153.667 186.706H152.929C152.965 186.531 153.011 186.3 153.069 186.013C153.126 185.726 153.183 185.405 153.241 185.05C153.301 184.697 153.35 184.337 153.388 183.968L153.438 183.508H154.487ZM158.717 184.771C158.236 184.771 157.803 184.675 157.418 184.484C157.033 184.293 156.724 184.03 156.491 183.697C156.259 183.364 156.132 182.984 156.11 182.557H157.094C157.132 182.937 157.304 183.252 157.611 183.5C157.919 183.746 158.288 183.869 158.717 183.869C159.062 183.869 159.368 183.789 159.636 183.627C159.906 183.466 160.118 183.245 160.271 182.963C160.427 182.679 160.505 182.358 160.505 182C160.505 181.634 160.424 181.307 160.263 181.02C160.104 180.731 159.886 180.502 159.607 180.336C159.328 180.169 159.01 180.084 158.652 180.081C158.395 180.079 158.131 180.118 157.861 180.2C157.59 180.28 157.367 180.382 157.192 180.508L156.241 180.393L156.75 176.261H161.111V177.163H157.602L157.307 179.639H157.356C157.529 179.502 157.744 179.389 158.004 179.298C158.264 179.208 158.534 179.163 158.816 179.163C159.33 179.163 159.787 179.286 160.189 179.532C160.593 179.775 160.91 180.109 161.14 180.532C161.372 180.956 161.488 181.44 161.488 181.984C161.488 182.519 161.368 182.997 161.128 183.418C160.89 183.836 160.562 184.167 160.144 184.41C159.726 184.651 159.25 184.771 158.717 184.771ZM163.117 184.656V183.918L165.888 180.885C166.213 180.53 166.481 180.221 166.691 179.958C166.902 179.693 167.058 179.445 167.159 179.212C167.263 178.977 167.315 178.731 167.315 178.475C167.315 178.179 167.244 177.924 167.101 177.708C166.962 177.492 166.771 177.325 166.528 177.208C166.284 177.09 166.011 177.032 165.708 177.032C165.385 177.032 165.104 177.099 164.863 177.232C164.625 177.364 164.441 177.548 164.31 177.786C164.181 178.024 164.117 178.302 164.117 178.622H163.15C163.15 178.13 163.263 177.698 163.49 177.327C163.717 176.955 164.026 176.665 164.416 176.458C164.81 176.25 165.251 176.146 165.74 176.146C166.232 176.146 166.668 176.25 167.048 176.458C167.428 176.665 167.726 176.946 167.942 177.298C168.158 177.651 168.266 178.043 168.266 178.475C168.266 178.783 168.21 179.085 168.098 179.38C167.988 179.673 167.797 179.999 167.524 180.36C167.253 180.718 166.877 181.155 166.396 181.672L164.511 183.689V183.754H168.413V184.656H163.117ZM174.812 183.508L174.747 183.951C174.7 184.263 174.629 184.596 174.533 184.951C174.441 185.307 174.343 185.641 174.242 185.956C174.141 186.27 174.058 186.52 173.992 186.706H173.254C173.29 186.531 173.336 186.3 173.394 186.013C173.451 185.726 173.509 185.405 173.566 185.05C173.626 184.697 173.675 184.337 173.714 183.968L173.763 183.508H174.812ZM179.033 184.771C178.416 184.771 177.89 184.603 177.455 184.267C177.021 183.928 176.689 183.437 176.459 182.795C176.229 182.15 176.115 181.371 176.115 180.459C176.115 179.551 176.229 178.777 176.459 178.134C176.691 177.489 177.025 176.997 177.459 176.659C177.897 176.317 178.421 176.146 179.033 176.146C179.646 176.146 180.169 176.317 180.603 176.659C181.041 176.997 181.374 177.489 181.604 178.134C181.836 178.777 181.952 179.551 181.952 180.459C181.952 181.371 181.837 182.15 181.608 182.795C181.378 183.437 181.046 183.928 180.612 184.267C180.177 184.603 179.651 184.771 179.033 184.771ZM179.033 183.869C179.646 183.869 180.121 183.574 180.46 182.984C180.799 182.393 180.968 181.552 180.968 180.459C180.968 179.732 180.89 179.113 180.735 178.602C180.582 178.091 180.36 177.701 180.071 177.433C179.784 177.166 179.438 177.032 179.033 177.032C178.427 177.032 177.953 177.331 177.611 177.929C177.269 178.525 177.099 179.368 177.099 180.459C177.099 181.186 177.175 181.803 177.328 182.311C177.481 182.82 177.701 183.206 177.988 183.472C178.278 183.737 178.626 183.869 179.033 183.869ZM188.216 183.508L188.15 183.951C188.104 184.263 188.033 184.596 187.937 184.951C187.844 185.307 187.747 185.641 187.646 185.956C187.545 186.27 187.462 186.52 187.396 186.706H186.658C186.694 186.531 186.74 186.3 186.797 186.013C186.855 185.726 186.912 185.405 186.97 185.05C187.03 184.697 187.079 184.337 187.117 183.968L187.166 183.508H188.216ZM195.977 184.771C195.359 184.771 194.833 184.603 194.399 184.267C193.964 183.928 193.632 183.437 193.402 182.795C193.173 182.15 193.058 181.371 193.058 180.459C193.058 179.551 193.173 178.777 193.402 178.134C193.635 177.489 193.968 176.997 194.403 176.659C194.84 176.317 195.365 176.146 195.977 176.146C196.589 176.146 197.112 176.317 197.547 176.659C197.984 176.997 198.317 177.489 198.547 178.134C198.779 178.777 198.895 179.551 198.895 180.459C198.895 181.371 198.781 182.15 198.551 182.795C198.322 183.437 197.989 183.928 197.555 184.267C197.12 184.603 196.594 184.771 195.977 184.771ZM195.977 183.869C196.589 183.869 197.064 183.574 197.403 182.984C197.742 182.393 197.912 181.552 197.912 180.459C197.912 179.732 197.834 179.113 197.678 178.602C197.525 178.091 197.304 177.701 197.014 177.433C196.727 177.166 196.381 177.032 195.977 177.032C195.37 177.032 194.896 177.331 194.554 177.929C194.213 178.525 194.042 179.368 194.042 180.459C194.042 181.186 194.118 181.803 194.271 182.311C194.424 182.82 194.644 183.206 194.931 183.472C195.221 183.737 195.57 183.869 195.977 183.869Z" fill="#959BA3"/>
</g>
</g>
<g filter="url(#filter1_dd_720_33)">
<g clip-path="url(#clip1_720_33)">
<rect x="247" y="50" width="145" height="150.311" rx="7.10373" fill="white"/>
<rect width="73" height="71" transform="translate(247 50)" fill="#28316E"/>
<rect width="73" height="71" transform="translate(319 50)" fill="#022276"/>
<path d="M262.086 137.182C262.547 137.186 263.001 137.27 263.448 137.435C263.896 137.599 264.299 137.868 264.659 138.242C265.022 138.615 265.312 139.12 265.527 139.755C265.745 140.388 265.856 141.175 265.86 142.117C265.86 143.021 265.769 143.827 265.587 144.533C265.406 145.236 265.145 145.83 264.805 146.314C264.469 146.799 264.06 147.167 263.579 147.419C263.098 147.671 262.557 147.798 261.955 147.798C261.339 147.798 260.793 147.676 260.315 147.434C259.837 147.192 259.449 146.857 259.15 146.43C258.85 146 258.664 145.505 258.59 144.947H260.128C260.229 145.391 260.435 145.751 260.744 146.027C261.057 146.299 261.46 146.435 261.955 146.435C262.712 146.435 263.302 146.106 263.726 145.446C264.15 144.784 264.363 143.859 264.366 142.672H264.286C264.111 142.961 263.892 143.21 263.63 143.418C263.371 143.627 263.08 143.788 262.757 143.903C262.434 144.017 262.089 144.074 261.723 144.074C261.127 144.074 260.586 143.928 260.098 143.635C259.61 143.343 259.222 142.941 258.933 142.429C258.643 141.918 258.499 141.335 258.499 140.679C258.499 140.026 258.647 139.434 258.943 138.903C259.242 138.371 259.659 137.951 260.194 137.641C260.732 137.329 261.363 137.176 262.086 137.182ZM262.091 138.494C261.698 138.494 261.343 138.592 261.026 138.787C260.714 138.978 260.466 139.239 260.285 139.569C260.103 139.895 260.012 140.258 260.012 140.658C260.012 141.059 260.1 141.422 260.275 141.748C260.453 142.071 260.695 142.328 261.001 142.52C261.311 142.709 261.664 142.803 262.061 142.803C262.357 142.803 262.633 142.746 262.888 142.631C263.144 142.517 263.367 142.359 263.559 142.157C263.751 141.952 263.901 141.72 264.008 141.461C264.116 141.202 264.17 140.929 264.17 140.643C264.17 140.263 264.079 139.91 263.897 139.584C263.719 139.258 263.473 138.995 263.161 138.797C262.848 138.595 262.491 138.494 262.091 138.494ZM271.28 147.828C270.483 147.824 269.801 147.614 269.236 147.197C268.671 146.78 268.239 146.173 267.94 145.376C267.64 144.579 267.491 143.618 267.491 142.495C267.491 141.375 267.64 140.418 267.94 139.624C268.242 138.83 268.676 138.225 269.241 137.808C269.81 137.391 270.489 137.182 271.28 137.182C272.07 137.182 272.748 137.392 273.313 137.813C273.878 138.23 274.31 138.835 274.61 139.629C274.912 140.42 275.064 141.375 275.064 142.495C275.064 143.622 274.914 144.584 274.615 145.381C274.315 146.175 273.883 146.782 273.318 147.202C272.753 147.619 272.074 147.828 271.28 147.828ZM271.28 146.481C271.979 146.481 272.526 146.139 272.919 145.457C273.316 144.774 273.515 143.787 273.515 142.495C273.515 141.637 273.424 140.912 273.242 140.32C273.064 139.725 272.807 139.274 272.47 138.968C272.137 138.659 271.741 138.504 271.28 138.504C270.583 138.504 270.037 138.847 269.64 139.533C269.243 140.22 269.043 141.207 269.04 142.495C269.04 143.356 269.129 144.084 269.307 144.68C269.489 145.272 269.746 145.721 270.079 146.027C270.412 146.329 270.812 146.481 271.28 146.481ZM280.451 147.828C279.654 147.824 278.972 147.614 278.407 147.197C277.842 146.78 277.41 146.173 277.111 145.376C276.811 144.579 276.662 143.618 276.662 142.495C276.662 141.375 276.811 140.418 277.111 139.624C277.414 138.83 277.847 138.225 278.412 137.808C278.981 137.391 279.66 137.182 280.451 137.182C281.241 137.182 281.919 137.392 282.484 137.813C283.049 138.23 283.481 138.835 283.781 139.629C284.083 140.42 284.235 141.375 284.235 142.495C284.235 143.622 284.085 144.584 283.786 145.381C283.486 146.175 283.054 146.782 282.489 147.202C281.924 147.619 281.245 147.828 280.451 147.828ZM280.451 146.481C281.15 146.481 281.697 146.139 282.09 145.457C282.487 144.774 282.686 143.787 282.686 142.495C282.686 141.637 282.595 140.912 282.413 140.32C282.235 139.725 281.978 139.274 281.641 138.968C281.308 138.659 280.912 138.504 280.451 138.504C279.755 138.504 279.208 138.847 278.811 139.533C278.414 140.22 278.214 141.207 278.211 142.495C278.211 143.356 278.3 144.084 278.478 144.68C278.66 145.272 278.917 145.721 279.25 146.027C279.583 146.329 279.983 146.481 280.451 146.481Z" fill="#1F243D"/>
<path d="M258.673 166.656V158.261H259.689V161.999H264.166V158.261H265.183V166.656H264.166V162.901H259.689V166.656H258.673ZM269.727 166.787C269.12 166.787 268.597 166.654 268.157 166.386C267.719 166.115 267.382 165.738 267.144 165.254C266.909 164.768 266.791 164.202 266.791 163.557C266.791 162.912 266.909 162.344 267.144 161.852C267.382 161.357 267.712 160.972 268.136 160.696C268.562 160.417 269.06 160.278 269.628 160.278C269.956 160.278 270.28 160.332 270.6 160.442C270.919 160.551 271.211 160.729 271.473 160.975C271.735 161.218 271.944 161.54 272.1 161.942C272.256 162.344 272.334 162.838 272.334 163.426V163.836H267.48V163H271.35C271.35 162.644 271.279 162.327 271.137 162.049C270.997 161.77 270.798 161.55 270.538 161.389C270.281 161.227 269.978 161.147 269.628 161.147C269.243 161.147 268.909 161.242 268.628 161.434C268.349 161.622 268.135 161.868 267.984 162.172C267.834 162.475 267.759 162.8 267.759 163.147V163.705C267.759 164.18 267.841 164.583 268.005 164.914C268.172 165.242 268.403 165.492 268.698 165.664C268.993 165.834 269.336 165.918 269.727 165.918C269.981 165.918 270.21 165.883 270.415 165.812C270.623 165.738 270.802 165.629 270.952 165.484C271.103 165.336 271.219 165.153 271.301 164.935L272.235 165.197C272.137 165.514 271.972 165.793 271.739 166.033C271.507 166.271 271.22 166.457 270.878 166.591C270.537 166.722 270.153 166.787 269.727 166.787ZM274.358 160.36L275.866 162.934L277.375 160.36H278.49L276.457 163.508L278.49 166.656H277.375L275.866 164.213L274.358 166.656H273.243L275.243 163.508L273.243 160.36H274.358ZM283.822 166.722C283.62 166.722 283.446 166.649 283.301 166.505C283.156 166.36 283.084 166.186 283.084 165.984C283.084 165.782 283.156 165.608 283.301 165.463C283.446 165.319 283.62 165.246 283.822 165.246C284.024 165.246 284.198 165.319 284.343 165.463C284.487 165.608 284.56 165.782 284.56 165.984C284.56 166.118 284.526 166.241 284.457 166.353C284.392 166.465 284.303 166.555 284.191 166.623C284.082 166.689 283.959 166.722 283.822 166.722ZM283.822 162.049C283.62 162.049 283.446 161.976 283.301 161.831C283.156 161.687 283.084 161.513 283.084 161.311C283.084 161.109 283.156 160.935 283.301 160.79C283.446 160.645 283.62 160.573 283.822 160.573C284.024 160.573 284.198 160.645 284.343 160.79C284.487 160.935 284.56 161.109 284.56 161.311C284.56 161.445 284.526 161.568 284.457 161.68C284.392 161.792 284.303 161.882 284.191 161.95C284.082 162.016 283.959 162.049 283.822 162.049ZM292.674 166.656L294.052 158.261H294.872L293.494 166.656H292.674ZM288.854 164.328L288.985 163.508H295.249L295.118 164.328H288.854ZM289.723 166.656L291.1 158.261H291.92L290.543 166.656H289.723ZM289.346 161.409L289.477 160.589H295.741L295.609 161.409H289.346ZM299.547 166.771C298.929 166.771 298.403 166.603 297.969 166.267C297.534 165.928 297.202 165.437 296.972 164.795C296.743 164.15 296.628 163.371 296.628 162.459C296.628 161.551 296.743 160.777 296.972 160.134C297.205 159.489 297.538 158.997 297.973 158.659C298.41 158.317 298.935 158.146 299.547 158.146C300.159 158.146 300.682 158.317 301.117 158.659C301.554 158.997 301.887 159.489 302.117 160.134C302.349 160.777 302.465 161.551 302.465 162.459C302.465 163.371 302.351 164.15 302.121 164.795C301.892 165.437 301.56 165.928 301.125 166.267C300.69 166.603 300.164 166.771 299.547 166.771ZM299.547 165.869C300.159 165.869 300.634 165.574 300.973 164.984C301.312 164.393 301.482 163.552 301.482 162.459C301.482 161.732 301.404 161.113 301.248 160.602C301.095 160.091 300.874 159.701 300.584 159.433C300.297 159.166 299.951 159.032 299.547 159.032C298.94 159.032 298.466 159.331 298.124 159.929C297.783 160.525 297.612 161.368 297.612 162.459C297.612 163.186 297.688 163.803 297.841 164.311C297.995 164.82 298.215 165.206 298.501 165.472C298.791 165.737 299.14 165.869 299.547 165.869ZM304.023 166.656V165.918L306.794 162.885C307.12 162.53 307.387 162.221 307.598 161.958C307.808 161.693 307.964 161.445 308.065 161.212C308.169 160.977 308.221 160.731 308.221 160.475C308.221 160.179 308.15 159.924 308.008 159.708C307.868 159.492 307.677 159.325 307.434 159.208C307.191 159.09 306.917 159.032 306.614 159.032C306.291 159.032 306.01 159.099 305.769 159.232C305.532 159.364 305.347 159.548 305.216 159.786C305.088 160.024 305.023 160.302 305.023 160.622H304.056C304.056 160.13 304.169 159.698 304.396 159.327C304.623 158.955 304.932 158.665 305.323 158.458C305.716 158.25 306.158 158.146 306.647 158.146C307.139 158.146 307.575 158.25 307.954 158.458C308.334 158.665 308.632 158.946 308.848 159.298C309.064 159.651 309.172 160.043 309.172 160.475C309.172 160.783 309.116 161.085 309.004 161.38C308.895 161.673 308.703 161.999 308.43 162.36C308.159 162.718 307.784 163.155 307.303 163.672L305.417 165.689V165.754H309.319V166.656H304.023ZM311.012 166.656V165.918L313.784 162.885C314.109 162.53 314.377 162.221 314.587 161.958C314.797 161.693 314.953 161.445 315.054 161.212C315.158 160.977 315.21 160.731 315.21 160.475C315.21 160.179 315.139 159.924 314.997 159.708C314.858 159.492 314.666 159.325 314.423 159.208C314.18 159.09 313.907 159.032 313.603 159.032C313.281 159.032 312.999 159.099 312.759 159.232C312.521 159.364 312.337 159.548 312.205 159.786C312.077 160.024 312.013 160.302 312.013 160.622H311.045C311.045 160.13 311.159 159.698 311.385 159.327C311.612 158.955 311.921 158.665 312.312 158.458C312.705 158.25 313.147 158.146 313.636 158.146C314.128 158.146 314.564 158.25 314.944 158.458C315.324 158.665 315.621 158.946 315.837 159.298C316.053 159.651 316.161 160.043 316.161 160.475C316.161 160.783 316.105 161.085 315.993 161.38C315.884 161.673 315.692 161.999 315.419 162.36C315.149 162.718 314.773 163.155 314.292 163.672L312.406 165.689V165.754H316.309V166.656H311.012ZM318.002 166.656V165.918L320.773 162.885C321.098 162.53 321.366 162.221 321.576 161.958C321.787 161.693 321.943 161.445 322.044 161.212C322.147 160.977 322.199 160.731 322.199 160.475C322.199 160.179 322.128 159.924 321.986 159.708C321.847 159.492 321.656 159.325 321.412 159.208C321.169 159.09 320.896 159.032 320.592 159.032C320.27 159.032 319.989 159.099 319.748 159.232C319.51 159.364 319.326 159.548 319.195 159.786C319.066 160.024 319.002 160.302 319.002 160.622H318.035C318.035 160.13 318.148 159.698 318.375 159.327C318.602 158.955 318.91 158.665 319.301 158.458C319.695 158.25 320.136 158.146 320.625 158.146C321.117 158.146 321.553 158.25 321.933 158.458C322.313 158.665 322.611 158.946 322.827 159.298C323.042 159.651 323.15 160.043 323.15 160.475C323.15 160.783 323.094 161.085 322.982 161.38C322.873 161.673 322.682 161.999 322.408 162.36C322.138 162.718 321.762 163.155 321.281 163.672L319.395 165.689V165.754H323.298V166.656H318.002ZM325.253 166.656L329.008 159.228V159.163H324.679V158.261H330.058V159.212L326.319 166.656H325.253ZM334.193 166.771C333.849 166.766 333.504 166.7 333.16 166.574C332.815 166.449 332.501 166.237 332.217 165.939C331.933 165.638 331.705 165.232 331.532 164.721C331.36 164.208 331.274 163.563 331.274 162.787C331.274 162.043 331.344 161.385 331.483 160.811C331.623 160.234 331.825 159.749 332.09 159.355C332.355 158.959 332.675 158.659 333.049 158.454C333.426 158.249 333.851 158.146 334.324 158.146C334.794 158.146 335.212 158.24 335.578 158.429C335.947 158.615 336.248 158.874 336.48 159.208C336.713 159.541 336.863 159.925 336.931 160.36H335.931C335.838 159.983 335.658 159.67 335.39 159.421C335.122 159.172 334.767 159.048 334.324 159.048C333.674 159.048 333.161 159.331 332.787 159.897C332.415 160.462 332.228 161.256 332.225 162.278H332.291C332.444 162.046 332.626 161.848 332.836 161.684C333.049 161.517 333.284 161.389 333.541 161.298C333.798 161.208 334.07 161.163 334.357 161.163C334.838 161.163 335.278 161.283 335.677 161.524C336.076 161.762 336.396 162.091 336.636 162.512C336.877 162.93 336.997 163.41 336.997 163.951C336.997 164.47 336.881 164.945 336.648 165.377C336.416 165.806 336.089 166.148 335.669 166.402C335.25 166.654 334.759 166.776 334.193 166.771ZM334.193 165.869C334.537 165.869 334.846 165.783 335.119 165.611C335.395 165.439 335.613 165.208 335.771 164.918C335.932 164.628 336.013 164.306 336.013 163.951C336.013 163.604 335.935 163.288 335.779 163.004C335.626 162.717 335.414 162.489 335.144 162.319C334.876 162.15 334.57 162.065 334.226 162.065C333.966 162.065 333.724 162.117 333.5 162.221C333.276 162.322 333.079 162.461 332.91 162.639C332.743 162.817 332.612 163.02 332.516 163.25C332.421 163.477 332.373 163.716 332.373 163.967C332.373 164.301 332.451 164.612 332.606 164.902C332.765 165.191 332.981 165.425 333.254 165.603C333.53 165.78 333.843 165.869 334.193 165.869Z" fill="#959BA3"/>
<path d="M265.428 178.884H264.412C264.352 178.592 264.247 178.335 264.096 178.114C263.949 177.892 263.768 177.707 263.555 177.556C263.345 177.403 263.111 177.288 262.854 177.212C262.597 177.135 262.329 177.097 262.051 177.097C261.542 177.097 261.082 177.226 260.669 177.483C260.259 177.739 259.933 178.118 259.689 178.618C259.449 179.118 259.329 179.732 259.329 180.459C259.329 181.186 259.449 181.799 259.689 182.299C259.933 182.799 260.259 183.178 260.669 183.435C261.082 183.692 261.542 183.82 262.051 183.82C262.329 183.82 262.597 183.782 262.854 183.705C263.111 183.629 263.345 183.515 263.555 183.365C263.768 183.212 263.949 183.025 264.096 182.803C264.247 182.579 264.352 182.322 264.412 182.033H265.428C265.352 182.462 265.213 182.846 265.01 183.185C264.808 183.523 264.557 183.812 264.256 184.05C263.955 184.285 263.618 184.464 263.244 184.587C262.872 184.71 262.474 184.771 262.051 184.771C261.335 184.771 260.698 184.596 260.14 184.246C259.583 183.897 259.144 183.399 258.825 182.754C258.505 182.109 258.345 181.344 258.345 180.459C258.345 179.573 258.505 178.808 258.825 178.163C259.144 177.518 259.583 177.021 260.14 176.671C260.698 176.321 261.335 176.146 262.051 176.146C262.474 176.146 262.872 176.208 263.244 176.331C263.618 176.454 263.955 176.634 264.256 176.872C264.557 177.107 264.808 177.394 265.01 177.733C265.213 178.069 265.352 178.453 265.428 178.884ZM267.071 176.261H268.285L271.138 183.23H271.236L274.089 176.261H275.303V184.656H274.352V178.278H274.27L271.646 184.656H270.728L268.104 178.278H268.022V184.656H267.071V176.261ZM276.62 176.261H277.784L280.112 180.18H280.21L282.539 176.261H283.703L280.67 181.196V184.656H279.653V181.196L276.62 176.261ZM285.018 184.656V176.261H286.035V180.426H286.133L289.904 176.261H291.232L287.707 180.049L291.232 184.656H290.003L287.084 180.754L286.035 181.934V184.656H285.018ZM296.369 183.582C296.167 183.582 295.993 183.51 295.848 183.365C295.703 183.22 295.631 183.047 295.631 182.844C295.631 182.642 295.703 182.469 295.848 182.324C295.993 182.179 296.167 182.106 296.369 182.106C296.571 182.106 296.745 182.179 296.889 182.324C297.034 182.469 297.107 182.642 297.107 182.844C297.107 182.978 297.073 183.101 297.004 183.213C296.939 183.325 296.85 183.416 296.738 183.484C296.628 183.549 296.505 183.582 296.369 183.582ZM296.369 179.335C296.167 179.335 295.993 179.263 295.848 179.118C295.703 178.973 295.631 178.8 295.631 178.598C295.631 178.395 295.703 178.222 295.848 178.077C295.993 177.932 296.167 177.86 296.369 177.86C296.571 177.86 296.745 177.932 296.889 178.077C297.034 178.222 297.107 178.395 297.107 178.598C297.107 178.731 297.073 178.854 297.004 178.966C296.939 179.078 296.85 179.169 296.738 179.237C296.628 179.303 296.505 179.335 296.369 179.335ZM305.024 176.261V184.656H304.008V177.327H303.959L301.909 178.688V177.655L304.008 176.261H305.024ZM310.177 184.771C309.56 184.771 309.034 184.603 308.599 184.267C308.164 183.928 307.832 183.437 307.603 182.795C307.373 182.15 307.259 181.371 307.259 180.459C307.259 179.551 307.373 178.777 307.603 178.134C307.835 177.489 308.169 176.997 308.603 176.659C309.04 176.317 309.565 176.146 310.177 176.146C310.789 176.146 311.313 176.317 311.747 176.659C312.185 176.997 312.518 177.489 312.747 178.134C312.98 178.777 313.096 179.551 313.096 180.459C313.096 181.371 312.981 182.15 312.752 182.795C312.522 183.437 312.19 183.928 311.755 184.267C311.321 184.603 310.795 184.771 310.177 184.771ZM310.177 183.869C310.789 183.869 311.265 183.574 311.604 182.984C311.943 182.393 312.112 181.552 312.112 180.459C312.112 179.732 312.034 179.113 311.878 178.602C311.725 178.091 311.504 177.701 311.214 177.433C310.927 177.166 310.582 177.032 310.177 177.032C309.571 177.032 309.096 177.331 308.755 177.929C308.413 178.525 308.242 179.368 308.242 180.459C308.242 181.186 308.319 181.803 308.472 182.311C308.625 182.82 308.845 183.206 309.132 183.472C309.422 183.737 309.77 183.869 310.177 183.869ZM317.392 184.771C316.774 184.771 316.248 184.603 315.814 184.267C315.379 183.928 315.047 183.437 314.818 182.795C314.588 182.15 314.473 181.371 314.473 180.459C314.473 179.551 314.588 178.777 314.818 178.134C315.05 177.489 315.383 176.997 315.818 176.659C316.255 176.317 316.78 176.146 317.392 176.146C318.004 176.146 318.527 176.317 318.962 176.659C319.399 176.997 319.733 177.489 319.962 178.134C320.195 178.777 320.311 179.551 320.311 180.459C320.311 181.371 320.196 182.15 319.966 182.795C319.737 183.437 319.405 183.928 318.97 184.267C318.536 184.603 318.01 184.771 317.392 184.771ZM317.392 183.869C318.004 183.869 318.48 183.574 318.819 182.984C319.157 182.393 319.327 181.552 319.327 180.459C319.327 179.732 319.249 179.113 319.093 178.602C318.94 178.091 318.719 177.701 318.429 177.433C318.142 177.166 317.796 177.032 317.392 177.032C316.785 177.032 316.311 177.331 315.97 177.929C315.628 178.525 315.457 179.368 315.457 180.459C315.457 181.186 315.534 181.803 315.687 182.311C315.84 182.82 316.06 183.206 316.347 183.472C316.636 183.737 316.985 183.869 317.392 183.869ZM326.574 183.508L326.509 183.951C326.462 184.263 326.391 184.596 326.296 184.951C326.203 185.307 326.106 185.641 326.005 185.956C325.903 186.27 325.82 186.52 325.754 186.706H325.017C325.052 186.531 325.099 186.3 325.156 186.013C325.213 185.726 325.271 185.405 325.328 185.05C325.388 184.697 325.437 184.337 325.476 183.968L325.525 183.508H326.574ZM330.944 176.146C331.289 176.149 331.633 176.214 331.977 176.343C332.322 176.471 332.636 176.685 332.92 176.982C333.204 177.278 333.432 177.681 333.605 178.192C333.777 178.703 333.863 179.344 333.863 180.114C333.863 180.86 333.792 181.523 333.65 182.102C333.51 182.679 333.308 183.165 333.043 183.562C332.781 183.958 332.461 184.259 332.084 184.464C331.709 184.669 331.286 184.771 330.813 184.771C330.343 184.771 329.923 184.678 329.555 184.492C329.188 184.304 328.888 184.043 328.653 183.709C328.42 183.373 328.271 182.984 328.206 182.541H329.206C329.296 182.926 329.475 183.245 329.743 183.496C330.014 183.745 330.37 183.869 330.813 183.869C331.461 183.869 331.972 183.586 332.346 183.021C332.723 182.455 332.912 181.656 332.912 180.623H332.846C332.693 180.852 332.511 181.05 332.301 181.217C332.091 181.384 331.857 181.512 331.6 181.602C331.343 181.692 331.07 181.738 330.78 181.738C330.299 181.738 329.858 181.619 329.456 181.381C329.057 181.14 328.737 180.811 328.497 180.393C328.259 179.972 328.14 179.491 328.14 178.95C328.14 178.436 328.255 177.966 328.485 177.54C328.717 177.111 329.042 176.769 329.46 176.515C329.881 176.261 330.376 176.138 330.944 176.146ZM330.944 177.048C330.6 177.048 330.29 177.134 330.014 177.306C329.74 177.476 329.523 177.705 329.362 177.995C329.203 178.282 329.124 178.6 329.124 178.95C329.124 179.3 329.201 179.618 329.354 179.905C329.509 180.189 329.721 180.416 329.989 180.586C330.26 180.752 330.567 180.836 330.911 180.836C331.171 180.836 331.413 180.785 331.637 180.684C331.861 180.58 332.056 180.439 332.223 180.262C332.393 180.081 332.525 179.878 332.621 179.651C332.716 179.421 332.764 179.182 332.764 178.934C332.764 178.606 332.685 178.298 332.527 178.011C332.371 177.724 332.155 177.492 331.879 177.314C331.606 177.137 331.294 177.048 330.944 177.048ZM335.278 182.935V182.098L338.967 176.261H339.574V177.556H339.164L336.377 181.967V182.033H341.345V182.935H335.278ZM339.23 184.656V182.68V182.291V176.261H340.197V184.656H339.23ZM347.587 183.508L347.522 183.951C347.475 184.263 347.404 184.596 347.308 184.951C347.216 185.307 347.119 185.641 347.017 185.956C346.916 186.27 346.833 186.52 346.767 186.706H346.03C346.065 186.531 346.112 186.3 346.169 186.013C346.226 185.726 346.284 185.405 346.341 185.05C346.401 184.697 346.45 184.337 346.489 183.968L346.538 183.508H347.587ZM349.363 184.656V183.918L352.134 180.885C352.46 180.53 352.727 180.221 352.938 179.958C353.148 179.693 353.304 179.445 353.405 179.212C353.509 178.977 353.561 178.731 353.561 178.475C353.561 178.179 353.49 177.924 353.348 177.708C353.208 177.492 353.017 177.325 352.774 177.208C352.531 177.09 352.257 177.032 351.954 177.032C351.632 177.032 351.35 177.099 351.11 177.232C350.872 177.364 350.687 177.548 350.556 177.786C350.428 178.024 350.363 178.302 350.363 178.622H349.396C349.396 178.13 349.509 177.698 349.736 177.327C349.963 176.955 350.272 176.665 350.663 176.458C351.056 176.25 351.498 176.146 351.987 176.146C352.479 176.146 352.915 176.25 353.294 176.458C353.674 176.665 353.972 176.946 354.188 177.298C354.404 177.651 354.512 178.043 354.512 178.475C354.512 178.783 354.456 179.085 354.344 179.38C354.235 179.673 354.043 179.999 353.77 180.36C353.499 180.718 353.124 181.155 352.643 181.672L350.757 183.689V183.754H354.66V184.656H349.363ZM359.14 184.771C358.796 184.766 358.451 184.7 358.107 184.574C357.763 184.449 357.448 184.237 357.164 183.939C356.88 183.638 356.652 183.232 356.48 182.721C356.307 182.208 356.221 181.563 356.221 180.787C356.221 180.043 356.291 179.385 356.43 178.811C356.57 178.234 356.772 177.749 357.037 177.355C357.302 176.959 357.622 176.659 357.996 176.454C358.373 176.249 358.798 176.146 359.271 176.146C359.741 176.146 360.159 176.24 360.526 176.429C360.895 176.615 361.195 176.874 361.427 177.208C361.66 177.541 361.81 177.925 361.878 178.36H360.878C360.785 177.983 360.605 177.67 360.337 177.421C360.069 177.172 359.714 177.048 359.271 177.048C358.621 177.048 358.108 177.331 357.734 177.897C357.362 178.462 357.175 179.256 357.172 180.278H357.238C357.391 180.046 357.573 179.848 357.783 179.684C357.996 179.517 358.231 179.389 358.488 179.298C358.745 179.208 359.017 179.163 359.304 179.163C359.785 179.163 360.225 179.283 360.624 179.524C361.023 179.762 361.343 180.091 361.583 180.512C361.824 180.93 361.944 181.41 361.944 181.951C361.944 182.47 361.828 182.945 361.596 183.377C361.363 183.806 361.037 184.148 360.616 184.402C360.198 184.654 359.706 184.776 359.14 184.771ZM359.14 183.869C359.484 183.869 359.793 183.783 360.066 183.611C360.343 183.439 360.56 183.208 360.718 182.918C360.88 182.628 360.96 182.306 360.96 181.951C360.96 181.604 360.882 181.288 360.726 181.004C360.573 180.717 360.362 180.489 360.091 180.319C359.823 180.15 359.517 180.065 359.173 180.065C358.913 180.065 358.671 180.117 358.447 180.221C358.223 180.322 358.026 180.461 357.857 180.639C357.69 180.817 357.559 181.02 357.463 181.25C357.368 181.477 357.32 181.716 357.32 181.967C357.32 182.301 357.398 182.612 357.554 182.902C357.712 183.191 357.928 183.425 358.201 183.603C358.477 183.78 358.79 183.869 359.14 183.869ZM368.262 183.508L368.196 183.951C368.15 184.263 368.079 184.596 367.983 184.951C367.89 185.307 367.793 185.641 367.692 185.956C367.591 186.27 367.508 186.52 367.442 186.706H366.704C366.74 186.531 366.786 186.3 366.844 186.013C366.901 185.726 366.958 185.405 367.016 185.05C367.076 184.697 367.125 184.337 367.163 183.968L367.213 183.508H368.262ZM371.986 176.261V184.656H370.97V177.327H370.92L368.871 178.688V177.655L370.97 176.261H371.986ZM374.204 182.935V182.098L377.893 176.261H378.5V177.556H378.09L375.302 181.967V182.033H380.271V182.935H374.204ZM378.156 184.656V182.68V182.291V176.261H379.123V184.656H378.156Z" fill="#959BA3"/>
</g>
</g>
<g filter="url(#filter2_dd_720_33)">
<g clip-path="url(#clip2_720_33)">
<rect x="413" y="50" width="145" height="150.311" rx="7.10373" fill="white"/>
<mask id="path-10-inside-1_720_33" fill="white">
<path d="M413 50H486V121H413V50Z"/>
</mask>
<path d="M413 50H486V121H413V50Z" fill="white"/>
<path d="M486 120H413V122H486V120Z" fill="#E3E3E3" mask="url(#path-10-inside-1_720_33)"/>
<mask id="path-12-inside-2_720_33" fill="white">
<path d="M485 50H558V121H485V50Z"/>
</mask>
<path d="M485 50H558V121H485V50Z" fill="white"/>
<path d="M485 121H484V122H485V121ZM558 120H485V122H558V120ZM486 121V50H484V121H486Z" fill="#E3E3E3" mask="url(#path-12-inside-2_720_33)"/>
<path d="M428.247 147.828C427.45 147.824 426.769 147.614 426.204 147.197C425.639 146.78 425.207 146.173 424.907 145.376C424.608 144.579 424.458 143.618 424.458 142.495C424.458 141.375 424.608 140.418 424.907 139.624C425.21 138.83 425.644 138.225 426.209 137.808C426.778 137.391 427.457 137.182 428.247 137.182C429.038 137.182 429.716 137.392 430.281 137.813C430.846 138.23 431.278 138.835 431.577 139.629C431.88 140.42 432.031 141.375 432.031 142.495C432.031 143.622 431.882 144.584 431.582 145.381C431.283 146.175 430.851 146.782 430.286 147.202C429.721 147.619 429.041 147.828 428.247 147.828ZM428.247 146.481C428.947 146.481 429.494 146.139 429.887 145.457C430.284 144.774 430.482 143.787 430.482 142.495C430.482 141.637 430.392 140.912 430.21 140.32C430.032 139.725 429.774 139.274 429.438 138.968C429.105 138.659 428.708 138.504 428.247 138.504C427.551 138.504 427.005 138.847 426.608 139.533C426.211 140.22 426.011 141.207 426.007 142.495C426.007 143.356 426.096 144.084 426.275 144.68C426.456 145.272 426.714 145.721 427.047 146.027C427.38 146.329 427.78 146.481 428.247 146.481ZM437.418 147.828C436.621 147.824 435.94 147.614 435.375 147.197C434.81 146.78 434.378 146.173 434.079 145.376C433.779 144.579 433.629 143.618 433.629 142.495C433.629 141.375 433.779 140.418 434.079 139.624C434.381 138.83 434.815 138.225 435.38 137.808C435.949 137.391 436.628 137.182 437.418 137.182C438.209 137.182 438.887 137.392 439.452 137.813C440.017 138.23 440.449 138.835 440.748 139.629C441.051 140.42 441.202 141.375 441.202 142.495C441.202 143.622 441.053 144.584 440.753 145.381C440.454 146.175 440.022 146.782 439.457 147.202C438.892 147.619 438.212 147.828 437.418 147.828ZM437.418 146.481C438.118 146.481 438.665 146.139 439.058 145.457C439.455 144.774 439.654 143.787 439.654 142.495C439.654 141.637 439.563 140.912 439.381 140.32C439.203 139.725 438.946 139.274 438.609 138.968C438.276 138.659 437.879 138.504 437.418 138.504C436.722 138.504 436.176 138.847 435.779 139.533C435.382 140.22 435.182 141.207 435.178 142.495C435.178 143.356 435.268 144.084 435.446 144.68C435.627 145.272 435.885 145.721 436.218 146.027C436.551 146.329 436.951 146.481 437.418 146.481Z" fill="#1F243D"/>
<path d="M424.673 166.656V158.261H425.689V161.999H430.166V158.261H431.183V166.656H430.166V162.901H425.689V166.656H424.673ZM435.727 166.787C435.12 166.787 434.597 166.654 434.157 166.386C433.719 166.115 433.382 165.738 433.144 165.254C432.909 164.768 432.791 164.202 432.791 163.557C432.791 162.912 432.909 162.344 433.144 161.852C433.382 161.357 433.712 160.972 434.136 160.696C434.562 160.417 435.06 160.278 435.628 160.278C435.956 160.278 436.28 160.332 436.6 160.442C436.919 160.551 437.211 160.729 437.473 160.975C437.735 161.218 437.944 161.54 438.1 161.942C438.256 162.344 438.334 162.838 438.334 163.426V163.836H433.48V163H437.35C437.35 162.644 437.279 162.327 437.137 162.049C436.997 161.77 436.798 161.55 436.538 161.389C436.281 161.227 435.978 161.147 435.628 161.147C435.243 161.147 434.909 161.242 434.628 161.434C434.349 161.622 434.135 161.868 433.984 162.172C433.834 162.475 433.759 162.8 433.759 163.147V163.705C433.759 164.18 433.841 164.583 434.005 164.914C434.172 165.242 434.403 165.492 434.698 165.664C434.993 165.834 435.336 165.918 435.727 165.918C435.981 165.918 436.21 165.883 436.415 165.812C436.623 165.738 436.802 165.629 436.952 165.484C437.103 165.336 437.219 165.153 437.301 164.935L438.235 165.197C438.137 165.514 437.972 165.793 437.739 166.033C437.507 166.271 437.22 166.457 436.878 166.591C436.537 166.722 436.153 166.787 435.727 166.787ZM440.358 160.36L441.866 162.934L443.375 160.36H444.49L442.457 163.508L444.49 166.656H443.375L441.866 164.213L440.358 166.656H439.243L441.243 163.508L439.243 160.36H440.358ZM449.822 166.722C449.62 166.722 449.446 166.649 449.301 166.505C449.156 166.36 449.084 166.186 449.084 165.984C449.084 165.782 449.156 165.608 449.301 165.463C449.446 165.319 449.62 165.246 449.822 165.246C450.024 165.246 450.198 165.319 450.343 165.463C450.487 165.608 450.56 165.782 450.56 165.984C450.56 166.118 450.526 166.241 450.457 166.353C450.392 166.465 450.303 166.555 450.191 166.623C450.082 166.689 449.959 166.722 449.822 166.722ZM449.822 162.049C449.62 162.049 449.446 161.976 449.301 161.831C449.156 161.687 449.084 161.513 449.084 161.311C449.084 161.109 449.156 160.935 449.301 160.79C449.446 160.645 449.62 160.573 449.822 160.573C450.024 160.573 450.198 160.645 450.343 160.79C450.487 160.935 450.56 161.109 450.56 161.311C450.56 161.445 450.526 161.568 450.457 161.68C450.392 161.792 450.303 161.882 450.191 161.95C450.082 162.016 449.959 162.049 449.822 162.049ZM458.674 166.656L460.052 158.261H460.872L459.494 166.656H458.674ZM454.854 164.328L454.985 163.508H461.249L461.118 164.328H454.854ZM455.723 166.656L457.1 158.261H457.92L456.543 166.656H455.723ZM455.346 161.409L455.477 160.589H461.741L461.609 161.409H455.346ZM462.956 166.656V158.261H467.99V159.163H463.973V161.999H467.613V162.901H463.973V166.656H462.956ZM469.731 166.656V158.261H474.765V159.163H470.748V161.999H474.388V162.901H470.748V166.656H469.731ZM476.506 166.656V158.261H481.54V159.163H477.523V161.999H481.163V162.901H477.523V166.656H476.506ZM483.281 166.656V158.261H488.315V159.163H484.298V161.999H487.938V162.901H484.298V166.656H483.281ZM490.056 166.656V158.261H495.09V159.163H491.073V161.999H494.713V162.901H491.073V166.656H490.056ZM496.831 166.656V158.261H501.865V159.163H497.848V161.999H501.488V162.901H497.848V166.656H496.831Z" fill="#959BA3"/>
<path d="M431.428 178.884H430.412C430.352 178.592 430.247 178.335 430.096 178.114C429.949 177.892 429.768 177.707 429.555 177.556C429.345 177.403 429.111 177.288 428.854 177.212C428.597 177.135 428.329 177.097 428.051 177.097C427.542 177.097 427.082 177.226 426.669 177.483C426.259 177.739 425.933 178.118 425.689 178.618C425.449 179.118 425.329 179.732 425.329 180.459C425.329 181.186 425.449 181.799 425.689 182.299C425.933 182.799 426.259 183.178 426.669 183.435C427.082 183.692 427.542 183.82 428.051 183.82C428.329 183.82 428.597 183.782 428.854 183.705C429.111 183.629 429.345 183.515 429.555 183.365C429.768 183.212 429.949 183.025 430.096 182.803C430.247 182.579 430.352 182.322 430.412 182.033H431.428C431.352 182.462 431.213 182.846 431.01 183.185C430.808 183.523 430.557 183.812 430.256 184.05C429.955 184.285 429.618 184.464 429.244 184.587C428.872 184.71 428.474 184.771 428.051 184.771C427.335 184.771 426.698 184.596 426.14 184.246C425.583 183.897 425.144 183.399 424.825 182.754C424.505 182.109 424.345 181.344 424.345 180.459C424.345 179.573 424.505 178.808 424.825 178.163C425.144 177.518 425.583 177.021 426.14 176.671C426.698 176.321 427.335 176.146 428.051 176.146C428.474 176.146 428.872 176.208 429.244 176.331C429.618 176.454 429.955 176.634 430.256 176.872C430.557 177.107 430.808 177.394 431.01 177.733C431.213 178.069 431.352 178.453 431.428 178.884ZM433.071 176.261H434.285L437.138 183.23H437.236L440.089 176.261H441.303V184.656H440.352V178.278H440.27L437.646 184.656H436.728L434.104 178.278H434.022V184.656H433.071V176.261ZM442.62 176.261H443.784L446.112 180.18H446.21L448.539 176.261H449.703L446.67 181.196V184.656H445.653V181.196L442.62 176.261ZM451.018 184.656V176.261H452.035V180.426H452.133L455.904 176.261H457.232L453.707 180.049L457.232 184.656H456.003L453.084 180.754L452.035 181.934V184.656H451.018ZM462.369 183.582C462.167 183.582 461.993 183.51 461.848 183.365C461.703 183.22 461.631 183.047 461.631 182.844C461.631 182.642 461.703 182.469 461.848 182.324C461.993 182.179 462.167 182.106 462.369 182.106C462.571 182.106 462.745 182.179 462.889 182.324C463.034 182.469 463.107 182.642 463.107 182.844C463.107 182.978 463.073 183.101 463.004 183.213C462.939 183.325 462.85 183.416 462.738 183.484C462.628 183.549 462.505 183.582 462.369 183.582ZM462.369 179.335C462.167 179.335 461.993 179.263 461.848 179.118C461.703 178.973 461.631 178.8 461.631 178.598C461.631 178.395 461.703 178.222 461.848 178.077C461.993 177.932 462.167 177.86 462.369 177.86C462.571 177.86 462.745 177.932 462.889 178.077C463.034 178.222 463.107 178.395 463.107 178.598C463.107 178.731 463.073 178.854 463.004 178.966C462.939 179.078 462.85 179.169 462.738 179.237C462.628 179.303 462.505 179.335 462.369 179.335ZM470.811 184.771C470.194 184.771 469.668 184.603 469.233 184.267C468.799 183.928 468.466 183.437 468.237 182.795C468.007 182.15 467.893 181.371 467.893 180.459C467.893 179.551 468.007 178.777 468.237 178.134C468.469 177.489 468.803 176.997 469.237 176.659C469.674 176.317 470.199 176.146 470.811 176.146C471.423 176.146 471.947 176.317 472.381 176.659C472.819 176.997 473.152 177.489 473.382 178.134C473.614 178.777 473.73 179.551 473.73 180.459C473.73 181.371 473.615 182.15 473.386 182.795C473.156 183.437 472.824 183.928 472.39 184.267C471.955 184.603 471.429 184.771 470.811 184.771ZM470.811 183.869C471.423 183.869 471.899 183.574 472.238 182.984C472.577 182.393 472.746 181.552 472.746 180.459C472.746 179.732 472.668 179.113 472.512 178.602C472.359 178.091 472.138 177.701 471.848 177.433C471.561 177.166 471.216 177.032 470.811 177.032C470.205 177.032 469.73 177.331 469.389 177.929C469.047 178.525 468.876 179.368 468.876 180.459C468.876 181.186 468.953 181.803 469.106 182.311C469.259 182.82 469.479 183.206 469.766 183.472C470.056 183.737 470.404 183.869 470.811 183.869ZM479.994 183.508L479.928 183.951C479.882 184.263 479.811 184.596 479.715 184.951C479.622 185.307 479.525 185.641 479.424 185.956C479.323 186.27 479.239 186.52 479.174 186.706H478.436C478.471 186.531 478.518 186.3 478.575 186.013C478.633 185.726 478.69 185.405 478.747 185.05C478.808 184.697 478.857 184.337 478.895 183.968L478.944 183.508H479.994ZM484.215 184.771C483.597 184.771 483.071 184.603 482.637 184.267C482.202 183.928 481.87 183.437 481.641 182.795C481.411 182.15 481.296 181.371 481.296 180.459C481.296 179.551 481.411 178.777 481.641 178.134C481.873 177.489 482.206 176.997 482.641 176.659C483.078 176.317 483.603 176.146 484.215 176.146C484.827 176.146 485.35 176.317 485.785 176.659C486.222 176.997 486.556 177.489 486.785 178.134C487.017 178.777 487.134 179.551 487.134 180.459C487.134 181.371 487.019 182.15 486.789 182.795C486.56 183.437 486.228 183.928 485.793 184.267C485.359 184.603 484.833 184.771 484.215 184.771ZM484.215 183.869C484.827 183.869 485.303 183.574 485.641 182.984C485.98 182.393 486.15 181.552 486.15 180.459C486.15 179.732 486.072 179.113 485.916 178.602C485.763 178.091 485.542 177.701 485.252 177.433C484.965 177.166 484.619 177.032 484.215 177.032C483.608 177.032 483.134 177.331 482.792 177.929C482.451 178.525 482.28 179.368 482.28 180.459C482.28 181.186 482.357 181.803 482.51 182.311C482.663 182.82 482.883 183.206 483.17 183.472C483.459 183.737 483.808 183.869 484.215 183.869ZM493.397 183.508L493.332 183.951C493.285 184.263 493.214 184.596 493.119 184.951C493.026 185.307 492.929 185.641 492.827 185.956C492.726 186.27 492.643 186.52 492.577 186.706H491.84C491.875 186.531 491.922 186.3 491.979 186.013C492.036 185.726 492.094 185.405 492.151 185.05C492.211 184.697 492.26 184.337 492.299 183.968L492.348 183.508H493.397ZM497.619 184.771C497.001 184.771 496.475 184.603 496.04 184.267C495.606 183.928 495.274 183.437 495.044 182.795C494.815 182.15 494.7 181.371 494.7 180.459C494.7 179.551 494.815 178.777 495.044 178.134C495.276 177.489 495.61 176.997 496.044 176.659C496.482 176.317 497.006 176.146 497.619 176.146C498.231 176.146 498.754 176.317 499.189 176.659C499.626 176.997 499.959 177.489 500.189 178.134C500.421 178.777 500.537 179.551 500.537 180.459C500.537 181.371 500.422 182.15 500.193 182.795C499.963 183.437 499.631 183.928 499.197 184.267C498.762 184.603 498.236 184.771 497.619 184.771ZM497.619 183.869C498.231 183.869 498.706 183.574 499.045 182.984C499.384 182.393 499.553 181.552 499.553 180.459C499.553 179.732 499.475 179.113 499.32 178.602C499.167 178.091 498.945 177.701 498.656 177.433C498.369 177.166 498.023 177.032 497.619 177.032C497.012 177.032 496.538 177.331 496.196 177.929C495.854 178.525 495.684 179.368 495.684 180.459C495.684 181.186 495.76 181.803 495.913 182.311C496.066 182.82 496.286 183.206 496.573 183.472C496.863 183.737 497.211 183.869 497.619 183.869ZM506.801 183.508L506.735 183.951C506.689 184.263 506.618 184.596 506.522 184.951C506.429 185.307 506.332 185.641 506.231 185.956C506.13 186.27 506.047 186.52 505.981 186.706H505.243C505.279 186.531 505.325 186.3 505.383 186.013C505.44 185.726 505.497 185.405 505.555 185.05C505.615 184.697 505.664 184.337 505.702 183.968L505.751 183.508H506.801ZM511.022 184.771C510.405 184.771 509.878 184.603 509.444 184.267C509.009 183.928 508.677 183.437 508.448 182.795C508.218 182.15 508.103 181.371 508.103 180.459C508.103 179.551 508.218 178.777 508.448 178.134C508.68 177.489 509.013 176.997 509.448 176.659C509.885 176.317 510.41 176.146 511.022 176.146C511.634 176.146 512.158 176.317 512.592 176.659C513.029 176.997 513.363 177.489 513.592 178.134C513.825 178.777 513.941 179.551 513.941 180.459C513.941 181.371 513.826 182.15 513.596 182.795C513.367 183.437 513.035 183.928 512.6 184.267C512.166 184.603 511.64 184.771 511.022 184.771ZM511.022 183.869C511.634 183.869 512.11 183.574 512.449 182.984C512.788 182.393 512.957 181.552 512.957 180.459C512.957 179.732 512.879 179.113 512.723 178.602C512.57 178.091 512.349 177.701 512.059 177.433C511.772 177.166 511.427 177.032 511.022 177.032C510.415 177.032 509.941 177.331 509.6 177.929C509.258 178.525 509.087 179.368 509.087 180.459C509.087 181.186 509.164 181.803 509.317 182.311C509.47 182.82 509.69 183.206 509.977 183.472C510.266 183.737 510.615 183.869 511.022 183.869Z" fill="#959BA3"/>
</g>
</g>
<g filter="url(#filter3_dd_720_33)">
<g clip-path="url(#clip3_720_33)">
<rect x="579" y="50" width="145" height="150.311" rx="7.10373" fill="white"/>
<rect width="73" height="71" transform="translate(579 50)" fill="#1F243D"/>
<rect width="73" height="71" transform="translate(651 50)" fill="#1F243D"/>
<path d="M594.247 147.828C593.45 147.824 592.769 147.614 592.204 147.197C591.639 146.78 591.207 146.173 590.907 145.376C590.608 144.579 590.458 143.618 590.458 142.495C590.458 141.375 590.608 140.418 590.907 139.624C591.21 138.83 591.644 138.225 592.209 137.808C592.778 137.391 593.457 137.182 594.247 137.182C595.038 137.182 595.716 137.392 596.281 137.813C596.846 138.23 597.278 138.835 597.577 139.629C597.88 140.42 598.031 141.375 598.031 142.495C598.031 143.622 597.882 144.584 597.582 145.381C597.283 146.175 596.851 146.782 596.286 147.202C595.721 147.619 595.041 147.828 594.247 147.828ZM594.247 146.481C594.947 146.481 595.494 146.139 595.887 145.457C596.284 144.774 596.482 143.787 596.482 142.495C596.482 141.637 596.392 140.912 596.21 140.32C596.032 139.725 595.774 139.274 595.438 138.968C595.105 138.659 594.708 138.504 594.247 138.504C593.551 138.504 593.005 138.847 592.608 139.533C592.211 140.22 592.011 141.207 592.007 142.495C592.007 143.356 592.096 144.084 592.275 144.68C592.456 145.272 592.714 145.721 593.047 146.027C593.38 146.329 593.78 146.481 594.247 146.481ZM603.418 147.828C602.621 147.824 601.94 147.614 601.375 147.197C600.81 146.78 600.378 146.173 600.079 145.376C599.779 144.579 599.629 143.618 599.629 142.495C599.629 141.375 599.779 140.418 600.079 139.624C600.381 138.83 600.815 138.225 601.38 137.808C601.949 137.391 602.628 137.182 603.418 137.182C604.209 137.182 604.887 137.392 605.452 137.813C606.017 138.23 606.449 138.835 606.748 139.629C607.051 140.42 607.202 141.375 607.202 142.495C607.202 143.622 607.053 144.584 606.753 145.381C606.454 146.175 606.022 146.782 605.457 147.202C604.892 147.619 604.212 147.828 603.418 147.828ZM603.418 146.481C604.118 146.481 604.665 146.139 605.058 145.457C605.455 144.774 605.654 143.787 605.654 142.495C605.654 141.637 605.563 140.912 605.381 140.32C605.203 139.725 604.946 139.274 604.609 138.968C604.276 138.659 603.879 138.504 603.418 138.504C602.722 138.504 602.176 138.847 601.779 139.533C601.382 140.22 601.182 141.207 601.178 142.495C601.178 143.356 601.268 144.084 601.446 144.68C601.627 145.272 601.885 145.721 602.218 146.027C602.551 146.329 602.951 146.481 603.418 146.481Z" fill="#1F243D"/>
<path d="M590.673 166.656V158.261H591.689V161.999H596.166V158.261H597.183V166.656H596.166V162.901H591.689V166.656H590.673ZM601.727 166.787C601.12 166.787 600.597 166.654 600.157 166.386C599.719 166.115 599.382 165.738 599.144 165.254C598.909 164.768 598.791 164.202 598.791 163.557C598.791 162.912 598.909 162.344 599.144 161.852C599.382 161.357 599.712 160.972 600.136 160.696C600.562 160.417 601.06 160.278 601.628 160.278C601.956 160.278 602.28 160.332 602.6 160.442C602.919 160.551 603.211 160.729 603.473 160.975C603.735 161.218 603.944 161.54 604.1 161.942C604.256 162.344 604.334 162.838 604.334 163.426V163.836H599.48V163H603.35C603.35 162.644 603.279 162.327 603.137 162.049C602.997 161.77 602.798 161.55 602.538 161.389C602.281 161.227 601.978 161.147 601.628 161.147C601.243 161.147 600.909 161.242 600.628 161.434C600.349 161.622 600.135 161.868 599.984 162.172C599.834 162.475 599.759 162.8 599.759 163.147V163.705C599.759 164.18 599.841 164.583 600.005 164.914C600.172 165.242 600.403 165.492 600.698 165.664C600.993 165.834 601.336 165.918 601.727 165.918C601.981 165.918 602.21 165.883 602.415 165.812C602.623 165.738 602.802 165.629 602.952 165.484C603.103 165.336 603.219 165.153 603.301 164.935L604.235 165.197C604.137 165.514 603.972 165.793 603.739 166.033C603.507 166.271 603.22 166.457 602.878 166.591C602.537 166.722 602.153 166.787 601.727 166.787ZM606.358 160.36L607.866 162.934L609.375 160.36H610.49L608.457 163.508L610.49 166.656H609.375L607.866 164.213L606.358 166.656H605.243L607.243 163.508L605.243 160.36H606.358ZM615.822 166.722C615.62 166.722 615.446 166.649 615.301 166.505C615.156 166.36 615.084 166.186 615.084 165.984C615.084 165.782 615.156 165.608 615.301 165.463C615.446 165.319 615.62 165.246 615.822 165.246C616.024 165.246 616.198 165.319 616.343 165.463C616.487 165.608 616.56 165.782 616.56 165.984C616.56 166.118 616.526 166.241 616.457 166.353C616.392 166.465 616.303 166.555 616.191 166.623C616.082 166.689 615.959 166.722 615.822 166.722ZM615.822 162.049C615.62 162.049 615.446 161.976 615.301 161.831C615.156 161.687 615.084 161.513 615.084 161.311C615.084 161.109 615.156 160.935 615.301 160.79C615.446 160.645 615.62 160.573 615.822 160.573C616.024 160.573 616.198 160.645 616.343 160.79C616.487 160.935 616.56 161.109 616.56 161.311C616.56 161.445 616.526 161.568 616.457 161.68C616.392 161.792 616.303 161.882 616.191 161.95C616.082 162.016 615.959 162.049 615.822 162.049ZM624.674 166.656L626.052 158.261H626.872L625.494 166.656H624.674ZM620.854 164.328L620.985 163.508H627.249L627.118 164.328H620.854ZM621.723 166.656L623.1 158.261H623.92L622.543 166.656H621.723ZM621.346 161.409L621.477 160.589H627.741L627.609 161.409H621.346ZM631.76 158.261V166.656H630.743V159.327H630.694L628.644 160.688V159.655L630.743 158.261H631.76ZM634.322 166.656V158.261H639.356V159.163H635.339V161.999H638.979V162.901H635.339V166.656H634.322ZM640.949 166.656V165.918L643.721 162.885C644.046 162.53 644.314 162.221 644.524 161.958C644.734 161.693 644.89 161.445 644.991 161.212C645.095 160.977 645.147 160.731 645.147 160.475C645.147 160.179 645.076 159.924 644.934 159.708C644.795 159.492 644.603 159.325 644.36 159.208C644.117 159.09 643.844 159.032 643.54 159.032C643.218 159.032 642.936 159.099 642.696 159.232C642.458 159.364 642.274 159.548 642.142 159.786C642.014 160.024 641.95 160.302 641.95 160.622H640.982C640.982 160.13 641.096 159.698 641.323 159.327C641.549 158.955 641.858 158.665 642.249 158.458C642.643 158.25 643.084 158.146 643.573 158.146C644.065 158.146 644.501 158.25 644.881 158.458C645.261 158.665 645.558 158.946 645.774 159.298C645.99 159.651 646.098 160.043 646.098 160.475C646.098 160.783 646.042 161.085 645.93 161.38C645.821 161.673 645.63 161.999 645.356 162.36C645.086 162.718 644.71 163.155 644.229 163.672L642.343 165.689V165.754H646.246V166.656H640.949ZM647.562 164.935V164.098L651.251 158.261H651.858V159.556H651.448L648.66 163.967V164.033H653.629V164.935H647.562ZM651.513 166.656V164.68V164.291V158.261H652.481V166.656H651.513ZM658.001 166.771C657.46 166.771 656.978 166.678 656.554 166.492C656.134 166.306 655.799 166.048 655.55 165.718C655.304 165.384 655.17 164.997 655.148 164.557H656.181C656.203 164.828 656.296 165.062 656.46 165.258C656.624 165.452 656.839 165.603 657.104 165.709C657.369 165.816 657.663 165.869 657.985 165.869C658.346 165.869 658.666 165.806 658.944 165.681C659.223 165.555 659.442 165.38 659.6 165.156C659.759 164.932 659.838 164.672 659.838 164.377C659.838 164.068 659.761 163.796 659.608 163.561C659.455 163.324 659.231 163.138 658.936 163.004C658.641 162.87 658.28 162.803 657.854 162.803H657.182V161.901H657.854C658.187 161.901 658.48 161.841 658.731 161.721C658.985 161.6 659.183 161.431 659.326 161.212C659.47 160.994 659.543 160.737 659.543 160.442C659.543 160.158 659.48 159.91 659.354 159.7C659.229 159.489 659.051 159.325 658.821 159.208C658.594 159.09 658.327 159.032 658.018 159.032C657.728 159.032 657.455 159.085 657.198 159.191C656.944 159.295 656.736 159.447 656.575 159.646C656.414 159.843 656.326 160.081 656.313 160.36H655.329C655.345 159.92 655.478 159.534 655.726 159.204C655.975 158.87 656.3 158.611 656.702 158.425C657.106 158.239 657.551 158.146 658.034 158.146C658.554 158.146 658.999 158.251 659.371 158.462C659.742 158.669 660.028 158.944 660.227 159.286C660.427 159.627 660.527 159.996 660.527 160.393C660.527 160.865 660.402 161.268 660.154 161.602C659.908 161.935 659.573 162.166 659.149 162.295V162.36C659.679 162.448 660.093 162.673 660.391 163.037C660.689 163.397 660.838 163.844 660.838 164.377C660.838 164.833 660.714 165.243 660.465 165.607C660.219 165.968 659.883 166.252 659.457 166.459C659.03 166.667 658.545 166.771 658.001 166.771ZM665.253 166.656H662.662V158.261H665.368C666.182 158.261 666.879 158.429 667.459 158.765C668.038 159.099 668.482 159.578 668.791 160.204C669.1 160.827 669.254 161.573 669.254 162.442C669.254 163.317 669.098 164.07 668.787 164.701C668.475 165.329 668.021 165.813 667.426 166.152C666.83 166.488 666.106 166.656 665.253 166.656ZM663.679 165.754H665.188C665.882 165.754 666.457 165.62 666.913 165.353C667.37 165.085 667.71 164.704 667.934 164.209C668.158 163.714 668.27 163.125 668.27 162.442C668.27 161.764 668.159 161.181 667.938 160.692C667.717 160.2 667.386 159.823 666.946 159.56C666.506 159.295 665.958 159.163 665.302 159.163H663.679V165.754Z" fill="#959BA3"/>
<path d="M597.428 178.884H596.412C596.352 178.592 596.247 178.335 596.096 178.114C595.949 177.892 595.768 177.707 595.555 177.556C595.345 177.403 595.111 177.288 594.854 177.212C594.597 177.135 594.329 177.097 594.051 177.097C593.542 177.097 593.082 177.226 592.669 177.483C592.259 177.739 591.933 178.118 591.689 178.618C591.449 179.118 591.329 179.732 591.329 180.459C591.329 181.186 591.449 181.799 591.689 182.299C591.933 182.799 592.259 183.178 592.669 183.435C593.082 183.692 593.542 183.82 594.051 183.82C594.329 183.82 594.597 183.782 594.854 183.705C595.111 183.629 595.345 183.515 595.555 183.365C595.768 183.212 595.949 183.025 596.096 182.803C596.247 182.579 596.352 182.322 596.412 182.033H597.428C597.352 182.462 597.213 182.846 597.01 183.185C596.808 183.523 596.557 183.812 596.256 184.05C595.955 184.285 595.618 184.464 595.244 184.587C594.872 184.71 594.474 184.771 594.051 184.771C593.335 184.771 592.698 184.596 592.14 184.246C591.583 183.897 591.144 183.399 590.825 182.754C590.505 182.109 590.345 181.344 590.345 180.459C590.345 179.573 590.505 178.808 590.825 178.163C591.144 177.518 591.583 177.021 592.14 176.671C592.698 176.321 593.335 176.146 594.051 176.146C594.474 176.146 594.872 176.208 595.244 176.331C595.618 176.454 595.955 176.634 596.256 176.872C596.557 177.107 596.808 177.394 597.01 177.733C597.213 178.069 597.352 178.453 597.428 178.884ZM599.071 176.261H600.285L603.138 183.23H603.236L606.089 176.261H607.303V184.656H606.352V178.278H606.27L603.646 184.656H602.728L600.104 178.278H600.022V184.656H599.071V176.261ZM608.62 176.261H609.784L612.112 180.18H612.21L614.539 176.261H615.703L612.67 181.196V184.656H611.653V181.196L608.62 176.261ZM617.018 184.656V176.261H618.035V180.426H618.133L621.904 176.261H623.232L619.707 180.049L623.232 184.656H622.003L619.084 180.754L618.035 181.934V184.656H617.018ZM628.369 183.582C628.167 183.582 627.993 183.51 627.848 183.365C627.703 183.22 627.631 183.047 627.631 182.844C627.631 182.642 627.703 182.469 627.848 182.324C627.993 182.179 628.167 182.106 628.369 182.106C628.571 182.106 628.745 182.179 628.889 182.324C629.034 182.469 629.107 182.642 629.107 182.844C629.107 182.978 629.073 183.101 629.004 183.213C628.939 183.325 628.85 183.416 628.738 183.484C628.628 183.549 628.505 183.582 628.369 183.582ZM628.369 179.335C628.167 179.335 627.993 179.263 627.848 179.118C627.703 178.973 627.631 178.8 627.631 178.598C627.631 178.395 627.703 178.222 627.848 178.077C627.993 177.932 628.167 177.86 628.369 177.86C628.571 177.86 628.745 177.932 628.889 178.077C629.034 178.222 629.107 178.395 629.107 178.598C629.107 178.731 629.073 178.854 629.004 178.966C628.939 179.078 628.85 179.169 628.738 179.237C628.628 179.303 628.505 179.335 628.369 179.335ZM636.762 184.771C636.199 184.771 635.702 184.671 635.27 184.472C634.841 184.27 634.506 183.992 634.266 183.64C634.025 183.284 633.906 182.88 633.909 182.426C633.906 182.071 633.976 181.743 634.118 181.442C634.26 181.139 634.454 180.886 634.7 180.684C634.949 180.479 635.226 180.349 635.532 180.295V180.245C635.131 180.142 634.811 179.916 634.573 179.569C634.335 179.219 634.218 178.822 634.221 178.376C634.218 177.95 634.326 177.569 634.544 177.232C634.763 176.896 635.064 176.631 635.446 176.437C635.832 176.243 636.27 176.146 636.762 176.146C637.249 176.146 637.683 176.243 638.066 176.437C638.448 176.631 638.749 176.896 638.968 177.232C639.189 177.569 639.301 177.95 639.304 178.376C639.301 178.822 639.179 179.219 638.939 179.569C638.701 179.916 638.385 180.142 637.992 180.245V180.295C638.295 180.349 638.569 180.479 638.812 180.684C639.055 180.886 639.249 181.139 639.394 181.442C639.539 181.743 639.612 182.071 639.615 182.426C639.612 182.88 639.489 183.284 639.246 183.64C639.006 183.992 638.671 184.27 638.242 184.472C637.816 184.671 637.322 184.771 636.762 184.771ZM636.762 183.869C637.142 183.869 637.47 183.808 637.746 183.685C638.022 183.562 638.235 183.388 638.385 183.164C638.536 182.94 638.612 182.678 638.615 182.377C638.612 182.06 638.53 181.78 638.369 181.537C638.208 181.293 637.988 181.102 637.709 180.963C637.433 180.823 637.117 180.754 636.762 180.754C636.404 180.754 636.084 180.823 635.803 180.963C635.524 181.102 635.304 181.293 635.143 181.537C634.984 181.78 634.906 182.06 634.909 182.377C634.906 182.678 634.979 182.94 635.126 183.164C635.277 183.388 635.491 183.562 635.77 183.685C636.049 183.808 636.379 183.869 636.762 183.869ZM636.762 179.885C637.063 179.885 637.329 179.825 637.561 179.704C637.796 179.584 637.981 179.416 638.115 179.2C638.249 178.984 638.317 178.731 638.32 178.442C638.317 178.158 638.25 177.91 638.119 177.7C637.988 177.487 637.806 177.323 637.574 177.208C637.341 177.09 637.071 177.032 636.762 177.032C636.448 177.032 636.173 177.09 635.938 177.208C635.703 177.323 635.521 177.487 635.393 177.7C635.264 177.91 635.202 178.158 635.204 178.442C635.202 178.731 635.266 178.984 635.397 179.2C635.531 179.416 635.715 179.584 635.95 179.704C636.185 179.825 636.456 179.885 636.762 179.885ZM643.859 176.146C644.203 176.149 644.548 176.214 644.892 176.343C645.236 176.471 645.551 176.685 645.835 176.982C646.119 177.278 646.347 177.681 646.519 178.192C646.692 178.703 646.778 179.344 646.778 180.114C646.778 180.86 646.707 181.523 646.564 182.102C646.425 182.679 646.223 183.165 645.958 183.562C645.695 183.958 645.376 184.259 644.999 184.464C644.624 184.669 644.201 184.771 643.728 184.771C643.258 184.771 642.838 184.678 642.469 184.492C642.103 184.304 641.802 184.043 641.567 183.709C641.335 183.373 641.186 182.984 641.121 182.541H642.121C642.211 182.926 642.39 183.245 642.658 183.496C642.928 183.745 643.285 183.869 643.728 183.869C644.375 183.869 644.887 183.586 645.261 183.021C645.638 182.455 645.827 181.656 645.827 180.623H645.761C645.608 180.852 645.426 181.05 645.216 181.217C645.005 181.384 644.772 181.512 644.515 181.602C644.258 181.692 643.985 181.738 643.695 181.738C643.214 181.738 642.773 181.619 642.371 181.381C641.972 181.14 641.652 180.811 641.412 180.393C641.174 179.972 641.055 179.491 641.055 178.95C641.055 178.436 641.17 177.966 641.399 177.54C641.632 177.111 641.957 176.769 642.375 176.515C642.796 176.261 643.291 176.138 643.859 176.146ZM643.859 177.048C643.515 177.048 643.204 177.134 642.928 177.306C642.655 177.476 642.438 177.705 642.277 177.995C642.118 178.282 642.039 178.6 642.039 178.95C642.039 179.3 642.115 179.618 642.268 179.905C642.424 180.189 642.636 180.416 642.904 180.586C643.174 180.752 643.482 180.836 643.826 180.836C644.086 180.836 644.328 180.785 644.552 180.684C644.776 180.58 644.971 180.439 645.138 180.262C645.307 180.081 645.44 179.878 645.536 179.651C645.631 179.421 645.679 179.182 645.679 178.934C645.679 178.606 645.6 178.298 645.441 178.011C645.286 177.724 645.07 177.492 644.794 177.314C644.52 177.137 644.209 177.048 643.859 177.048ZM653.096 183.508L653.03 183.951C652.984 184.263 652.913 184.596 652.817 184.951C652.724 185.307 652.627 185.641 652.526 185.956C652.425 186.27 652.341 186.52 652.276 186.706H651.538C651.573 186.531 651.62 186.3 651.677 186.013C651.735 185.726 651.792 185.405 651.849 185.05C651.91 184.697 651.959 184.337 651.997 183.968L652.046 183.508H653.096ZM657.302 184.771C656.739 184.771 656.241 184.671 655.809 184.472C655.38 184.27 655.046 183.992 654.805 183.64C654.565 183.284 654.446 182.88 654.448 182.426C654.446 182.071 654.515 181.743 654.657 181.442C654.8 181.139 654.994 180.886 655.24 180.684C655.488 180.479 655.766 180.349 656.072 180.295V180.245C655.67 180.142 655.35 179.916 655.113 179.569C654.875 179.219 654.757 178.822 654.76 178.376C654.757 177.95 654.865 177.569 655.084 177.232C655.302 176.896 655.603 176.631 655.986 176.437C656.371 176.243 656.81 176.146 657.302 176.146C657.788 176.146 658.222 176.243 658.605 176.437C658.988 176.631 659.288 176.896 659.507 177.232C659.728 177.569 659.84 177.95 659.843 178.376C659.84 178.822 659.719 179.219 659.478 179.569C659.24 179.916 658.925 180.142 658.531 180.245V180.295C658.835 180.349 659.108 180.479 659.351 180.684C659.594 180.886 659.788 181.139 659.933 181.442C660.078 181.743 660.152 182.071 660.155 182.426C660.152 182.88 660.029 183.284 659.786 183.64C659.545 183.992 659.21 184.27 658.781 184.472C658.355 184.671 657.862 184.771 657.302 184.771ZM657.302 183.869C657.681 183.869 658.009 183.808 658.285 183.685C658.561 183.562 658.775 183.388 658.925 183.164C659.075 182.94 659.152 182.678 659.154 182.377C659.152 182.06 659.07 181.78 658.908 181.537C658.747 181.293 658.527 181.102 658.248 180.963C657.972 180.823 657.657 180.754 657.302 180.754C656.944 180.754 656.624 180.823 656.342 180.963C656.064 181.102 655.844 181.293 655.682 181.537C655.524 181.78 655.446 182.06 655.449 182.377C655.446 182.678 655.518 182.94 655.666 183.164C655.816 183.388 656.031 183.562 656.309 183.685C656.588 183.808 656.919 183.869 657.302 183.869ZM657.302 179.885C657.602 179.885 657.869 179.825 658.101 179.704C658.336 179.584 658.52 179.416 658.654 179.2C658.788 178.984 658.857 178.731 658.859 178.442C658.857 178.158 658.79 177.91 658.658 177.7C658.527 177.487 658.345 177.323 658.113 177.208C657.881 177.09 657.61 177.032 657.302 177.032C656.987 177.032 656.713 177.09 656.478 177.208C656.243 177.323 656.061 177.487 655.932 177.7C655.804 177.91 655.741 178.158 655.744 178.442C655.741 178.731 655.805 178.984 655.936 179.2C656.07 179.416 656.255 179.584 656.49 179.704C656.725 179.825 656.995 179.885 657.302 179.885ZM661.726 184.656V183.918L664.497 180.885C664.822 180.53 665.09 180.221 665.3 179.958C665.511 179.693 665.666 179.445 665.768 179.212C665.871 178.977 665.923 178.731 665.923 178.475C665.923 178.179 665.852 177.924 665.71 177.708C665.571 177.492 665.379 177.325 665.136 177.208C664.893 177.09 664.62 177.032 664.316 177.032C663.994 177.032 663.712 177.099 663.472 177.232C663.234 177.364 663.05 177.548 662.919 177.786C662.79 178.024 662.726 178.302 662.726 178.622H661.758C661.758 178.13 661.872 177.698 662.099 177.327C662.326 176.955 662.634 176.665 663.025 176.458C663.419 176.25 663.86 176.146 664.349 176.146C664.841 176.146 665.277 176.25 665.657 176.458C666.037 176.665 666.335 176.946 666.551 177.298C666.766 177.651 666.874 178.043 666.874 178.475C666.874 178.783 666.818 179.085 666.706 179.38C666.597 179.673 666.406 179.999 666.132 180.36C665.862 180.718 665.486 181.155 665.005 181.672L663.119 183.689V183.754H667.022V184.656H661.726ZM673.421 183.508L673.355 183.951C673.309 184.263 673.238 184.596 673.142 184.951C673.049 185.307 672.952 185.641 672.851 185.956C672.75 186.27 672.667 186.52 672.601 186.706H671.863C671.899 186.531 671.945 186.3 672.003 186.013C672.06 185.726 672.117 185.405 672.175 185.05C672.235 184.697 672.284 184.337 672.322 183.968L672.371 183.508H673.421ZM675 182.935V182.098L678.69 176.261H679.296V177.556H678.886L676.099 181.967V182.033H681.067V182.935H675ZM678.952 184.656V182.68V182.291V176.261H679.919V184.656H678.952ZM682.866 184.656L686.621 177.228V177.163H682.292V176.261H687.67V177.212L683.931 184.656H682.866ZM693.904 183.508L693.838 183.951C693.792 184.263 693.721 184.596 693.625 184.951C693.532 185.307 693.435 185.641 693.334 185.956C693.233 186.27 693.15 186.52 693.084 186.706H692.346C692.382 186.531 692.428 186.3 692.486 186.013C692.543 185.726 692.6 185.405 692.658 185.05C692.718 184.697 692.767 184.337 692.805 183.968L692.855 183.508H693.904ZM698.134 184.771C697.653 184.771 697.22 184.675 696.835 184.484C696.45 184.293 696.141 184.03 695.909 183.697C695.676 183.364 695.549 182.984 695.527 182.557H696.511C696.549 182.937 696.722 183.252 697.028 183.5C697.336 183.746 697.705 183.869 698.134 183.869C698.479 183.869 698.785 183.789 699.053 183.627C699.323 183.466 699.535 183.245 699.688 182.963C699.844 182.679 699.922 182.358 699.922 182C699.922 181.634 699.841 181.307 699.68 181.02C699.521 180.731 699.303 180.502 699.024 180.336C698.745 180.169 698.427 180.084 698.069 180.081C697.812 180.079 697.548 180.118 697.278 180.2C697.007 180.28 696.784 180.382 696.61 180.508L695.658 180.393L696.167 176.261H700.528V177.163H697.019L696.724 179.639H696.773C696.946 179.502 697.162 179.389 697.421 179.298C697.681 179.208 697.951 179.163 698.233 179.163C698.747 179.163 699.204 179.286 699.606 179.532C700.011 179.775 700.328 180.109 700.557 180.532C700.789 180.956 700.906 181.44 700.906 181.984C700.906 182.519 700.785 182.997 700.545 183.418C700.307 183.836 699.979 184.167 699.561 184.41C699.143 184.651 698.667 184.771 698.134 184.771ZM705.371 184.771C704.83 184.771 704.347 184.678 703.924 184.492C703.503 184.306 703.168 184.048 702.919 183.718C702.673 183.384 702.539 182.997 702.518 182.557H703.551C703.572 182.828 703.665 183.062 703.829 183.258C703.993 183.452 704.208 183.603 704.473 183.709C704.738 183.816 705.032 183.869 705.354 183.869C705.715 183.869 706.035 183.806 706.314 183.681C706.592 183.555 706.811 183.38 706.969 183.156C707.128 182.932 707.207 182.672 707.207 182.377C707.207 182.068 707.131 181.796 706.978 181.561C706.825 181.324 706.6 181.138 706.305 181.004C706.01 180.87 705.649 180.803 705.223 180.803H704.551V179.901H705.223C705.557 179.901 705.849 179.841 706.1 179.721C706.355 179.6 706.553 179.431 706.695 179.212C706.84 178.994 706.912 178.737 706.912 178.442C706.912 178.158 706.849 177.91 706.723 177.7C706.598 177.489 706.42 177.325 706.191 177.208C705.964 177.09 705.696 177.032 705.387 177.032C705.097 177.032 704.824 177.085 704.567 177.191C704.313 177.295 704.105 177.447 703.944 177.646C703.783 177.843 703.695 178.081 703.682 178.36H702.698C702.714 177.92 702.847 177.534 703.096 177.204C703.344 176.87 703.669 176.611 704.071 176.425C704.476 176.239 704.92 176.146 705.403 176.146C705.923 176.146 706.368 176.251 706.74 176.462C707.112 176.669 707.397 176.944 707.597 177.286C707.796 177.627 707.896 177.996 707.896 178.393C707.896 178.865 707.771 179.268 707.523 179.602C707.277 179.935 706.942 180.166 706.518 180.295V180.36C707.049 180.448 707.463 180.673 707.761 181.037C708.058 181.397 708.207 181.844 708.207 182.377C708.207 182.833 708.083 183.243 707.834 183.607C707.588 183.968 707.252 184.252 706.826 184.459C706.4 184.667 705.915 184.771 705.371 184.771Z" fill="#959BA3"/>
</g>
</g>
<defs>
<filter id="filter0_dd_720_33" x="70.3444" y="50" width="166.311" height="171.622" filterUnits="userSpaceOnUse" color-interpolation-filters="sRGB">
<feFlood flood-opacity="0" result="BackgroundImageFix"/>
<feColorMatrix in="SourceAlpha" type="matrix" values="0 0 0 0 0 0 0 0 0 0 0 0 0 0 0 0 0 0 127 0" result="hardAlpha"/>
<feMorphology radius="1.77593" operator="erode" in="SourceAlpha" result="effect1_dropShadow_720_33"/>
<feOffset dy="3.55187"/>
<feGaussianBlur stdDeviation="2.6639"/>
<feColorMatrix type="matrix" values="0 0 0 0 0.0627451 0 0 0 0 0.0941176 0 0 0 0 0.156863 0 0 0 0.03 0"/>
<feBlend mode="normal" in2="BackgroundImageFix" result="effect1_dropShadow_720_33"/>
<feColorMatrix in="SourceAlpha" type="matrix" values="0 0 0 0 0 0 0 0 0 0 0 0 0 0 0 0 0 0 127 0" result="hardAlpha"/>
<feMorphology radius="3.55187" operator="erode" in="SourceAlpha" result="effect2_dropShadow_720_33"/>
<feOffset dy="10.6556"/>
<feGaussianBlur stdDeviation="7.10373"/>
<feColorMatrix type="matrix" values="0 0 0 0 0.0627451 0 0 0 0 0.0941176 0 0 0 0 0.156863 0 0 0 0.08 0"/>
<feBlend mode="normal" in2="effect1_dropShadow_720_33" result="effect2_dropShadow_720_33"/>
<feBlend mode="normal" in="SourceGraphic" in2="effect2_dropShadow_720_33" result="shape"/>
</filter>
<filter id="filter1_dd_720_33" x="236.344" y="50" width="166.311" height="171.622" filterUnits="userSpaceOnUse" color-interpolation-filters="sRGB">
<feFlood flood-opacity="0" result="BackgroundImageFix"/>
<feColorMatrix in="SourceAlpha" type="matrix" values="0 0 0 0 0 0 0 0 0 0 0 0 0 0 0 0 0 0 127 0" result="hardAlpha"/>
<feMorphology radius="1.77593" operator="erode" in="SourceAlpha" result="effect1_dropShadow_720_33"/>
<feOffset dy="3.55187"/>
<feGaussianBlur stdDeviation="2.6639"/>
<feColorMatrix type="matrix" values="0 0 0 0 0.0627451 0 0 0 0 0.0941176 0 0 0 0 0.156863 0 0 0 0.03 0"/>
<feBlend mode="normal" in2="BackgroundImageFix" result="effect1_dropShadow_720_33"/>
<feColorMatrix in="SourceAlpha" type="matrix" values="0 0 0 0 0 0 0 0 0 0 0 0 0 0 0 0 0 0 127 0" result="hardAlpha"/>
<feMorphology radius="3.55187" operator="erode" in="SourceAlpha" result="effect2_dropShadow_720_33"/>
<feOffset dy="10.6556"/>
<feGaussianBlur stdDeviation="7.10373"/>
<feColorMatrix type="matrix" values="0 0 0 0 0.0627451 0 0 0 0 0.0941176 0 0 0 0 0.156863 0 0 0 0.08 0"/>
<feBlend mode="normal" in2="effect1_dropShadow_720_33" result="effect2_dropShadow_720_33"/>
<feBlend mode="normal" in="SourceGraphic" in2="effect2_dropShadow_720_33" result="shape"/>
</filter>
<filter id="filter2_dd_720_33" x="402.344" y="50" width="166.311" height="171.622" filterUnits="userSpaceOnUse" color-interpolation-filters="sRGB">
<feFlood flood-opacity="0" result="BackgroundImageFix"/>
<feColorMatrix in="SourceAlpha" type="matrix" values="0 0 0 0 0 0 0 0 0 0 0 0 0 0 0 0 0 0 127 0" result="hardAlpha"/>
<feMorphology radius="1.77593" operator="erode" in="SourceAlpha" result="effect1_dropShadow_720_33"/>
<feOffset dy="3.55187"/>
<feGaussianBlur stdDeviation="2.6639"/>
<feColorMatrix type="matrix" values="0 0 0 0 0.0627451 0 0 0 0 0.0941176 0 0 0 0 0.156863 0 0 0 0.03 0"/>
<feBlend mode="normal" in2="BackgroundImageFix" result="effect1_dropShadow_720_33"/>
<feColorMatrix in="SourceAlpha" type="matrix" values="0 0 0 0 0 0 0 0 0 0 0 0 0 0 0 0 0 0 127 0" result="hardAlpha"/>
<feMorphology radius="3.55187" operator="erode" in="SourceAlpha" result="effect2_dropShadow_720_33"/>
<feOffset dy="10.6556"/>
<feGaussianBlur stdDeviation="7.10373"/>
<feColorMatrix type="matrix" values="0 0 0 0 0.0627451 0 0 0 0 0.0941176 0 0 0 0 0.156863 0 0 0 0.08 0"/>
<feBlend mode="normal" in2="effect1_dropShadow_720_33" result="effect2_dropShadow_720_33"/>
<feBlend mode="normal" in="SourceGraphic" in2="effect2_dropShadow_720_33" result="shape"/>
</filter>
<filter id="filter3_dd_720_33" x="568.344" y="50" width="166.311" height="171.622" filterUnits="userSpaceOnUse" color-interpolation-filters="sRGB">
<feFlood flood-opacity="0" result="BackgroundImageFix"/>
<feColorMatrix in="SourceAlpha" type="matrix" values="0 0 0 0 0 0 0 0 0 0 0 0 0 0 0 0 0 0 127 0" result="hardAlpha"/>
<feMorphology radius="1.77593" operator="erode" in="SourceAlpha" result="effect1_dropShadow_720_33"/>
<feOffset dy="3.55187"/>
<feGaussianBlur stdDeviation="2.6639"/>
<feColorMatrix type="matrix" values="0 0 0 0 0.0627451 0 0 0 0 0.0941176 0 0 0 0 0.156863 0 0 0 0.03 0"/>
<feBlend mode="normal" in2="BackgroundImageFix" result="effect1_dropShadow_720_33"/>
<feColorMatrix in="SourceAlpha" type="matrix" values="0 0 0 0 0 0 0 0 0 0 0 0 0 0 0 0 0 0 127 0" result="hardAlpha"/>
<feMorphology radius="3.55187" operator="erode" in="SourceAlpha" result="effect2_dropShadow_720_33"/>
<feOffset dy="10.6556"/>
<feGaussianBlur stdDeviation="7.10373"/>
<feColorMatrix type="matrix" values="0 0 0 0 0.0627451 0 0 0 0 0.0941176 0 0 0 0 0.156863 0 0 0 0.08 0"/>
<feBlend mode="normal" in2="effect1_dropShadow_720_33" result="effect2_dropShadow_720_33"/>
<feBlend mode="normal" in="SourceGraphic" in2="effect2_dropShadow_720_33" result="shape"/>
</filter>
<clipPath id="clip0_720_33">
<rect x="81" y="50" width="145" height="150.311" rx="7.10373" fill="white"/>
</clipPath>
<clipPath id="clip1_720_33">
<rect x="247" y="50" width="145" height="150.311" rx="7.10373" fill="white"/>
</clipPath>
<clipPath id="clip2_720_33">
<rect x="413" y="50" width="145" height="150.311" rx="7.10373" fill="white"/>
</clipPath>
<clipPath id="clip3_720_33">
<rect x="579" y="50" width="145" height="150.311" rx="7.10373" fill="white"/>
</clipPath>
</defs>
</svg>
