<svg width="804" height="255" viewBox="0 0 804 255" fill="none" xmlns="http://www.w3.org/2000/svg">
<rect width="804" height="255" fill="#F9FAFB"/>
<g filter="url(#filter0_dd_733_1821)">
<g clip-path="url(#clip0_733_1821)">
<rect x="81" y="50" width="145" height="150.311" rx="7.10373" fill="white"/>
<rect width="73" height="71" transform="translate(81 50)" fill="#0A72BA"/>
<rect width="73" height="71" transform="translate(153 50)" fill="#217CF5"/>
<path d="M92.9983 147.655L97.5088 138.735V138.66H92.292V137.323H99.1232V138.705L94.6279 147.655H92.9983ZM104.253 147.827C103.456 147.823 102.775 147.613 102.21 147.196C101.645 146.779 101.212 146.172 100.913 145.375C100.614 144.578 100.464 143.617 100.464 142.494C100.464 141.374 100.614 140.417 100.913 139.623C101.216 138.829 101.65 138.224 102.215 137.807C102.783 137.39 103.463 137.181 104.253 137.181C105.043 137.181 105.721 137.392 106.286 137.812C106.851 138.229 107.284 138.834 107.583 139.628C107.886 140.419 108.037 141.374 108.037 142.494C108.037 143.621 107.887 144.583 107.588 145.38C107.289 146.174 106.856 146.781 106.291 147.201C105.726 147.618 105.047 147.827 104.253 147.827ZM104.253 146.48C104.953 146.48 105.499 146.138 105.893 145.456C106.29 144.773 106.488 143.786 106.488 142.494C106.488 141.636 106.397 140.911 106.216 140.319C106.037 139.724 105.78 139.273 105.444 138.967C105.111 138.658 104.714 138.503 104.253 138.503C103.557 138.503 103.01 138.846 102.613 139.532C102.216 140.219 102.016 141.206 102.013 142.494C102.013 143.355 102.102 144.083 102.28 144.679C102.462 145.271 102.719 145.72 103.052 146.026C103.385 146.328 103.785 146.48 104.253 146.48ZM113.424 147.827C112.627 147.823 111.946 147.613 111.381 147.196C110.816 146.779 110.383 146.172 110.084 145.375C109.785 144.578 109.635 143.617 109.635 142.494C109.635 141.374 109.785 140.417 110.084 139.623C110.387 138.829 110.821 138.224 111.386 137.807C111.954 137.39 112.634 137.181 113.424 137.181C114.214 137.181 114.892 137.392 115.457 137.812C116.022 138.229 116.455 138.834 116.754 139.628C117.057 140.419 117.208 141.374 117.208 142.494C117.208 143.621 117.058 144.583 116.759 145.38C116.46 146.174 116.027 146.781 115.462 147.201C114.897 147.618 114.218 147.827 113.424 147.827ZM113.424 146.48C114.124 146.48 114.67 146.138 115.064 145.456C115.461 144.773 115.659 143.786 115.659 142.494C115.659 141.636 115.568 140.911 115.387 140.319C115.208 139.724 114.951 139.273 114.615 138.967C114.282 138.658 113.885 138.503 113.424 138.503C112.728 138.503 112.181 138.846 111.784 139.532C111.387 140.219 111.187 141.206 111.184 142.494C111.184 143.355 111.273 144.083 111.451 144.679C111.633 145.271 111.89 145.72 112.223 146.026C112.556 146.328 112.957 146.48 113.424 146.48Z" fill="#1F243D"/>
<path d="M92.6729 166.655V158.26H93.6895V161.998H98.1659V158.26H99.1825V166.655H98.1659V162.9H93.6895V166.655H92.6729ZM103.727 166.786C103.12 166.786 102.597 166.653 102.157 166.385C101.719 166.114 101.382 165.737 101.144 165.253C100.909 164.767 100.791 164.201 100.791 163.556C100.791 162.911 100.909 162.343 101.144 161.851C101.382 161.356 101.712 160.971 102.136 160.695C102.562 160.416 103.06 160.277 103.628 160.277C103.956 160.277 104.28 160.331 104.6 160.441C104.919 160.55 105.211 160.728 105.473 160.974C105.735 161.217 105.944 161.539 106.1 161.941C106.256 162.343 106.334 162.837 106.334 163.425V163.835H101.48V162.999H105.35C105.35 162.643 105.279 162.326 105.137 162.048C104.997 161.769 104.798 161.549 104.538 161.388C104.281 161.226 103.978 161.146 103.628 161.146C103.243 161.146 102.909 161.241 102.628 161.433C102.349 161.621 102.135 161.867 101.984 162.171C101.834 162.474 101.759 162.799 101.759 163.146V163.704C101.759 164.179 101.841 164.582 102.005 164.913C102.172 165.241 102.403 165.491 102.698 165.663C102.993 165.833 103.336 165.917 103.727 165.917C103.981 165.917 104.21 165.882 104.415 165.811C104.623 165.737 104.802 165.628 104.952 165.483C105.103 165.335 105.219 165.152 105.301 164.934L106.235 165.196C106.137 165.513 105.972 165.792 105.739 166.032C105.507 166.27 105.22 166.456 104.878 166.59C104.537 166.721 104.153 166.786 103.727 166.786ZM108.358 160.359L109.866 162.933L111.375 160.359H112.49L110.457 163.507L112.49 166.655H111.375L109.866 164.212L108.358 166.655H107.243L109.243 163.507L107.243 160.359H108.358ZM117.822 166.721C117.62 166.721 117.446 166.648 117.301 166.504C117.156 166.359 117.084 166.185 117.084 165.983C117.084 165.781 117.156 165.607 117.301 165.462C117.446 165.318 117.62 165.245 117.822 165.245C118.024 165.245 118.198 165.318 118.343 165.462C118.487 165.607 118.56 165.781 118.56 165.983C118.56 166.117 118.526 166.24 118.457 166.352C118.392 166.464 118.303 166.554 118.191 166.622C118.082 166.688 117.959 166.721 117.822 166.721ZM117.822 162.048C117.62 162.048 117.446 161.975 117.301 161.83C117.156 161.686 117.084 161.512 117.084 161.31C117.084 161.108 117.156 160.934 117.301 160.789C117.446 160.644 117.62 160.572 117.822 160.572C118.024 160.572 118.198 160.644 118.343 160.789C118.487 160.934 118.56 161.108 118.56 161.31C118.56 161.444 118.526 161.567 118.457 161.679C118.392 161.791 118.303 161.881 118.191 161.949C118.082 162.015 117.959 162.048 117.822 162.048ZM126.674 166.655L128.052 158.26H128.872L127.494 166.655H126.674ZM122.854 164.327L122.985 163.507H129.249L129.118 164.327H122.854ZM123.723 166.655L125.1 158.26H125.92L124.543 166.655H123.723ZM123.346 161.408L123.477 160.588H129.741L129.609 161.408H123.346ZM130.808 166.655V165.917L133.58 162.884C133.905 162.529 134.173 162.22 134.383 161.957C134.593 161.692 134.749 161.444 134.85 161.211C134.954 160.976 135.006 160.73 135.006 160.474C135.006 160.178 134.935 159.923 134.793 159.707C134.654 159.491 134.462 159.324 134.219 159.207C133.976 159.089 133.703 159.031 133.399 159.031C133.077 159.031 132.795 159.098 132.555 159.231C132.317 159.363 132.133 159.547 132.001 159.785C131.873 160.023 131.809 160.301 131.809 160.621H130.841C130.841 160.129 130.955 159.697 131.181 159.326C131.408 158.954 131.717 158.664 132.108 158.457C132.501 158.249 132.943 158.145 133.432 158.145C133.924 158.145 134.36 158.249 134.74 158.457C135.12 158.664 135.417 158.945 135.633 159.297C135.849 159.65 135.957 160.042 135.957 160.474C135.957 160.782 135.901 161.084 135.789 161.38C135.68 161.672 135.488 161.998 135.215 162.359C134.945 162.717 134.569 163.154 134.088 163.671L132.202 165.688V165.753H136.105V166.655H130.808ZM140.749 158.26V166.655H139.733V159.326H139.683L137.634 160.687V159.654L139.733 158.26H140.749ZM143.426 166.655L147.181 159.227V159.162H142.852V158.26H148.23V159.211L144.492 166.655H143.426ZM156.662 160.883H155.645C155.585 160.591 155.48 160.334 155.329 160.113C155.182 159.891 155.001 159.706 154.788 159.555C154.578 159.402 154.344 159.288 154.087 159.211C153.83 159.134 153.563 159.096 153.284 159.096C152.775 159.096 152.315 159.225 151.902 159.482C151.492 159.738 151.166 160.117 150.923 160.617C150.682 161.117 150.562 161.731 150.562 162.458C150.562 163.185 150.682 163.798 150.923 164.298C151.166 164.798 151.492 165.177 151.902 165.434C152.315 165.691 152.775 165.819 153.284 165.819C153.563 165.819 153.83 165.781 154.087 165.704C154.344 165.628 154.578 165.514 154.788 165.364C155.001 165.211 155.182 165.024 155.329 164.802C155.48 164.578 155.585 164.321 155.645 164.032H156.662C156.585 164.461 156.446 164.845 156.243 165.184C156.041 165.523 155.79 165.811 155.489 166.049C155.189 166.284 154.851 166.463 154.477 166.586C154.105 166.709 153.707 166.77 153.284 166.77C152.568 166.77 151.931 166.595 151.374 166.245C150.816 165.896 150.377 165.398 150.058 164.753C149.738 164.108 149.578 163.343 149.578 162.458C149.578 161.572 149.738 160.807 150.058 160.162C150.377 159.517 150.816 159.02 151.374 158.67C151.931 158.32 152.568 158.145 153.284 158.145C153.707 158.145 154.105 158.207 154.477 158.33C154.851 158.453 155.189 158.633 155.489 158.871C155.79 159.106 156.041 159.393 156.243 159.732C156.446 160.068 156.585 160.452 156.662 160.883ZM158.304 166.655V158.26H163.338V159.162H159.321V161.998H162.961V162.9H159.321V166.655H158.304ZM167.555 166.77C167.074 166.77 166.641 166.674 166.256 166.483C165.871 166.292 165.562 166.029 165.33 165.696C165.097 165.363 164.97 164.983 164.948 164.556H165.932C165.97 164.936 166.143 165.251 166.449 165.499C166.757 165.745 167.126 165.868 167.555 165.868C167.9 165.868 168.206 165.788 168.474 165.626C168.744 165.465 168.956 165.244 169.109 164.962C169.265 164.678 169.343 164.357 169.343 163.999C169.343 163.633 169.262 163.306 169.101 163.019C168.942 162.73 168.724 162.501 168.445 162.335C168.166 162.168 167.848 162.083 167.49 162.08C167.233 162.078 166.969 162.117 166.699 162.199C166.428 162.279 166.205 162.381 166.03 162.507L165.079 162.392L165.588 158.26H169.949V159.162H166.44L166.145 161.638H166.194C166.367 161.501 166.583 161.388 166.842 161.298C167.102 161.207 167.372 161.162 167.654 161.162C168.168 161.162 168.625 161.285 169.027 161.531C169.432 161.774 169.749 162.108 169.978 162.531C170.21 162.955 170.327 163.439 170.327 163.983C170.327 164.518 170.206 164.996 169.966 165.417C169.728 165.835 169.4 166.166 168.982 166.409C168.564 166.65 168.088 166.77 167.555 166.77Z" fill="#959BA3"/>
<path d="M99.4285 178.883H98.4119C98.3517 178.591 98.2465 178.334 98.0962 178.113C97.9486 177.891 97.7683 177.706 97.5551 177.555C97.3447 177.402 97.111 177.288 96.8541 177.211C96.5972 177.134 96.3294 177.096 96.0507 177.096C95.5424 177.096 95.0819 177.225 94.6692 177.482C94.2593 177.738 93.9327 178.117 93.6895 178.617C93.449 179.117 93.3288 179.731 93.3288 180.458C93.3288 181.185 93.449 181.798 93.6895 182.298C93.9327 182.798 94.2593 183.177 94.6692 183.434C95.0819 183.691 95.5424 183.819 96.0507 183.819C96.3294 183.819 96.5972 183.781 96.8541 183.704C97.111 183.628 97.3447 183.514 97.5551 183.364C97.7683 183.211 97.9486 183.024 98.0962 182.802C98.2465 182.578 98.3517 182.321 98.4119 182.032H99.4285C99.352 182.461 99.2126 182.845 99.0104 183.184C98.8081 183.523 98.5567 183.811 98.2561 184.049C97.9555 184.284 97.618 184.463 97.2436 184.586C96.8719 184.709 96.4743 184.77 96.0507 184.77C95.3347 184.77 94.6979 184.595 94.1404 184.245C93.5829 183.896 93.1443 183.398 92.8245 182.753C92.5048 182.108 92.3449 181.343 92.3449 180.458C92.3449 179.572 92.5048 178.807 92.8245 178.162C93.1443 177.517 93.5829 177.02 94.1404 176.67C94.6979 176.32 95.3347 176.145 96.0507 176.145C96.4743 176.145 96.8719 176.207 97.2436 176.33C97.618 176.453 97.9555 176.633 98.2561 176.871C98.5567 177.106 98.8081 177.393 99.0104 177.732C99.2126 178.068 99.352 178.452 99.4285 178.883ZM101.071 176.26H102.285L105.138 183.229H105.236L108.089 176.26H109.303V184.655H108.352V178.277H108.27L105.646 184.655H104.728L102.104 178.277H102.022V184.655H101.071V176.26ZM110.62 176.26H111.784L114.112 180.179H114.21L116.539 176.26H117.703L114.67 181.195V184.655H113.653V181.195L110.62 176.26ZM119.018 184.655V176.26H120.035V180.425H120.133L123.904 176.26H125.232L121.707 180.048L125.232 184.655H124.003L121.084 180.753L120.035 181.933V184.655H119.018ZM130.369 183.581C130.167 183.581 129.993 183.509 129.848 183.364C129.703 183.219 129.631 183.046 129.631 182.843C129.631 182.641 129.703 182.468 129.848 182.323C129.993 182.178 130.167 182.106 130.369 182.106C130.571 182.106 130.745 182.178 130.889 182.323C131.034 182.468 131.107 182.641 131.107 182.843C131.107 182.977 131.073 183.1 131.004 183.212C130.939 183.324 130.85 183.415 130.738 183.483C130.628 183.548 130.505 183.581 130.369 183.581ZM130.369 179.334C130.167 179.334 129.993 179.262 129.848 179.117C129.703 178.972 129.631 178.799 129.631 178.597C129.631 178.394 129.703 178.221 129.848 178.076C129.993 177.931 130.167 177.859 130.369 177.859C130.571 177.859 130.745 177.931 130.889 178.076C131.034 178.221 131.107 178.394 131.107 178.597C131.107 178.73 131.073 178.853 131.004 178.965C130.939 179.078 130.85 179.168 130.738 179.236C130.628 179.302 130.505 179.334 130.369 179.334ZM138.762 184.77C138.199 184.77 137.702 184.67 137.27 184.471C136.841 184.269 136.506 183.991 136.266 183.639C136.025 183.283 135.906 182.879 135.909 182.425C135.906 182.07 135.976 181.742 136.118 181.441C136.26 181.138 136.454 180.885 136.7 180.683C136.949 180.478 137.226 180.348 137.532 180.294V180.244C137.131 180.141 136.811 179.915 136.573 179.568C136.335 179.218 136.218 178.821 136.221 178.375C136.218 177.949 136.326 177.568 136.544 177.231C136.763 176.895 137.064 176.63 137.446 176.436C137.832 176.242 138.27 176.145 138.762 176.145C139.249 176.145 139.683 176.242 140.066 176.436C140.448 176.63 140.749 176.895 140.968 177.231C141.189 177.568 141.301 177.949 141.304 178.375C141.301 178.821 141.179 179.218 140.939 179.568C140.701 179.915 140.385 180.141 139.992 180.244V180.294C140.295 180.348 140.569 180.478 140.812 180.683C141.055 180.885 141.249 181.138 141.394 181.441C141.539 181.742 141.612 182.07 141.615 182.425C141.612 182.879 141.489 183.283 141.246 183.639C141.006 183.991 140.671 184.269 140.242 184.471C139.816 184.67 139.322 184.77 138.762 184.77ZM138.762 183.868C139.142 183.868 139.47 183.807 139.746 183.684C140.022 183.561 140.235 183.387 140.385 183.163C140.536 182.939 140.612 182.677 140.615 182.376C140.612 182.059 140.53 181.779 140.369 181.536C140.208 181.292 139.988 181.101 139.709 180.962C139.433 180.822 139.117 180.753 138.762 180.753C138.404 180.753 138.084 180.822 137.803 180.962C137.524 181.101 137.304 181.292 137.143 181.536C136.984 181.779 136.906 182.059 136.909 182.376C136.906 182.677 136.979 182.939 137.126 183.163C137.277 183.387 137.491 183.561 137.77 183.684C138.049 183.807 138.379 183.868 138.762 183.868ZM138.762 179.884C139.063 179.884 139.329 179.824 139.561 179.703C139.796 179.583 139.981 179.415 140.115 179.199C140.249 178.983 140.317 178.73 140.32 178.441C140.317 178.157 140.25 177.909 140.119 177.699C139.988 177.486 139.806 177.322 139.574 177.207C139.341 177.089 139.071 177.031 138.762 177.031C138.448 177.031 138.173 177.089 137.938 177.207C137.703 177.322 137.521 177.486 137.393 177.699C137.264 177.909 137.202 178.157 137.204 178.441C137.202 178.73 137.266 178.983 137.397 179.199C137.531 179.415 137.715 179.583 137.95 179.703C138.185 179.824 138.456 179.884 138.762 179.884ZM143.449 184.655L147.204 177.227V177.162H142.875V176.26H148.253V177.211L144.514 184.655H143.449ZM154.487 183.507L154.421 183.95C154.375 184.262 154.304 184.595 154.208 184.95C154.115 185.306 154.018 185.64 153.917 185.955C153.816 186.269 153.733 186.519 153.667 186.705H152.929C152.965 186.53 153.011 186.299 153.069 186.012C153.126 185.725 153.183 185.404 153.241 185.049C153.301 184.696 153.35 184.336 153.388 183.967L153.438 183.507H154.487ZM158.717 184.77C158.236 184.77 157.803 184.674 157.418 184.483C157.033 184.292 156.724 184.029 156.491 183.696C156.259 183.363 156.132 182.983 156.11 182.556H157.094C157.132 182.936 157.304 183.251 157.611 183.499C157.919 183.745 158.288 183.868 158.717 183.868C159.062 183.868 159.368 183.788 159.636 183.626C159.906 183.465 160.118 183.244 160.271 182.962C160.427 182.678 160.505 182.357 160.505 181.999C160.505 181.633 160.424 181.306 160.263 181.019C160.104 180.73 159.886 180.501 159.607 180.335C159.328 180.168 159.01 180.083 158.652 180.08C158.395 180.078 158.131 180.117 157.861 180.199C157.59 180.279 157.367 180.381 157.192 180.507L156.241 180.392L156.75 176.26H161.111V177.162H157.602L157.307 179.638H157.356C157.529 179.501 157.744 179.388 158.004 179.298C158.264 179.207 158.534 179.162 158.816 179.162C159.33 179.162 159.787 179.285 160.189 179.531C160.593 179.774 160.91 180.108 161.14 180.531C161.372 180.955 161.488 181.439 161.488 181.983C161.488 182.518 161.368 182.996 161.128 183.417C160.89 183.835 160.562 184.166 160.144 184.409C159.726 184.65 159.25 184.77 158.717 184.77ZM163.117 184.655V183.917L165.888 180.884C166.213 180.529 166.481 180.22 166.691 179.957C166.902 179.692 167.058 179.444 167.159 179.211C167.263 178.976 167.315 178.73 167.315 178.474C167.315 178.178 167.244 177.923 167.101 177.707C166.962 177.491 166.771 177.324 166.528 177.207C166.284 177.089 166.011 177.031 165.708 177.031C165.385 177.031 165.104 177.098 164.863 177.231C164.625 177.363 164.441 177.547 164.31 177.785C164.181 178.023 164.117 178.301 164.117 178.621H163.15C163.15 178.129 163.263 177.697 163.49 177.326C163.717 176.954 164.026 176.664 164.416 176.457C164.81 176.249 165.251 176.145 165.74 176.145C166.232 176.145 166.668 176.249 167.048 176.457C167.428 176.664 167.726 176.945 167.942 177.297C168.158 177.65 168.266 178.042 168.266 178.474C168.266 178.782 168.21 179.084 168.098 179.38C167.988 179.672 167.797 179.998 167.524 180.359C167.253 180.717 166.877 181.154 166.396 181.671L164.511 183.688V183.753H168.413V184.655H163.117ZM174.812 183.507L174.747 183.95C174.7 184.262 174.629 184.595 174.533 184.95C174.441 185.306 174.343 185.64 174.242 185.955C174.141 186.269 174.058 186.519 173.992 186.705H173.254C173.29 186.53 173.336 186.299 173.394 186.012C173.451 185.725 173.509 185.404 173.566 185.049C173.626 184.696 173.675 184.336 173.714 183.967L173.763 183.507H174.812ZM179.033 184.77C178.416 184.77 177.89 184.602 177.455 184.266C177.021 183.927 176.689 183.436 176.459 182.794C176.229 182.149 176.115 181.37 176.115 180.458C176.115 179.55 176.229 178.776 176.459 178.133C176.691 177.488 177.025 176.996 177.459 176.658C177.897 176.316 178.421 176.145 179.033 176.145C179.646 176.145 180.169 176.316 180.603 176.658C181.041 176.996 181.374 177.488 181.604 178.133C181.836 178.776 181.952 179.55 181.952 180.458C181.952 181.37 181.837 182.149 181.608 182.794C181.378 183.436 181.046 183.927 180.612 184.266C180.177 184.602 179.651 184.77 179.033 184.77ZM179.033 183.868C179.646 183.868 180.121 183.573 180.46 182.983C180.799 182.392 180.968 181.551 180.968 180.458C180.968 179.731 180.89 179.112 180.735 178.601C180.582 178.09 180.36 177.7 180.071 177.432C179.784 177.165 179.438 177.031 179.033 177.031C178.427 177.031 177.953 177.33 177.611 177.928C177.269 178.524 177.099 179.367 177.099 180.458C177.099 181.185 177.175 181.802 177.328 182.31C177.481 182.819 177.701 183.205 177.988 183.471C178.278 183.736 178.626 183.868 179.033 183.868ZM188.216 183.507L188.15 183.95C188.104 184.262 188.033 184.595 187.937 184.95C187.844 185.306 187.747 185.64 187.646 185.955C187.545 186.269 187.462 186.519 187.396 186.705H186.658C186.694 186.53 186.74 186.299 186.797 186.012C186.855 185.725 186.912 185.404 186.97 185.049C187.03 184.696 187.079 184.336 187.117 183.967L187.166 183.507H188.216ZM195.977 184.77C195.359 184.77 194.833 184.602 194.399 184.266C193.964 183.927 193.632 183.436 193.402 182.794C193.173 182.149 193.058 181.37 193.058 180.458C193.058 179.55 193.173 178.776 193.402 178.133C193.635 177.488 193.968 176.996 194.403 176.658C194.84 176.316 195.365 176.145 195.977 176.145C196.589 176.145 197.112 176.316 197.547 176.658C197.984 176.996 198.317 177.488 198.547 178.133C198.779 178.776 198.895 179.55 198.895 180.458C198.895 181.37 198.781 182.149 198.551 182.794C198.322 183.436 197.989 183.927 197.555 184.266C197.12 184.602 196.594 184.77 195.977 184.77ZM195.977 183.868C196.589 183.868 197.064 183.573 197.403 182.983C197.742 182.392 197.912 181.551 197.912 180.458C197.912 179.731 197.834 179.112 197.678 178.601C197.525 178.09 197.304 177.7 197.014 177.432C196.727 177.165 196.381 177.031 195.977 177.031C195.37 177.031 194.896 177.33 194.554 177.928C194.213 178.524 194.042 179.367 194.042 180.458C194.042 181.185 194.118 181.802 194.271 182.31C194.424 182.819 194.644 183.205 194.931 183.471C195.221 183.736 195.57 183.868 195.977 183.868Z" fill="#959BA3"/>
</g>
</g>
<g filter="url(#filter1_dd_733_1821)">
<g clip-path="url(#clip1_733_1821)">
<rect x="247" y="50" width="145" height="150.311" rx="7.10373" fill="white"/>
<rect width="73" height="71" transform="translate(247 50)" fill="#28316E"/>
<rect width="73" height="71" transform="translate(319 50)" fill="#022276"/>
<path d="M262.086 137.181C262.547 137.185 263.001 137.269 263.448 137.434C263.896 137.598 264.299 137.867 264.659 138.241C265.022 138.614 265.312 139.119 265.527 139.754C265.745 140.387 265.856 141.174 265.86 142.116C265.86 143.02 265.769 143.826 265.587 144.532C265.406 145.235 265.145 145.829 264.805 146.313C264.469 146.798 264.06 147.166 263.579 147.418C263.098 147.67 262.557 147.797 261.955 147.797C261.339 147.797 260.793 147.675 260.315 147.433C259.837 147.191 259.449 146.856 259.15 146.429C258.85 145.999 258.664 145.504 258.59 144.946H260.128C260.229 145.39 260.435 145.75 260.744 146.026C261.057 146.298 261.46 146.434 261.955 146.434C262.712 146.434 263.302 146.105 263.726 145.445C264.15 144.783 264.363 143.858 264.366 142.671H264.286C264.111 142.96 263.892 143.209 263.63 143.417C263.371 143.626 263.08 143.787 262.757 143.902C262.434 144.016 262.089 144.073 261.723 144.073C261.127 144.073 260.586 143.927 260.098 143.634C259.61 143.342 259.222 142.94 258.933 142.428C258.643 141.917 258.499 141.334 258.499 140.678C258.499 140.025 258.647 139.433 258.943 138.902C259.242 138.37 259.659 137.95 260.194 137.64C260.732 137.328 261.363 137.175 262.086 137.181ZM262.091 138.493C261.698 138.493 261.343 138.591 261.026 138.786C260.714 138.977 260.466 139.238 260.285 139.568C260.103 139.894 260.012 140.257 260.012 140.657C260.012 141.058 260.1 141.421 260.275 141.747C260.453 142.07 260.695 142.327 261.001 142.519C261.311 142.708 261.664 142.802 262.061 142.802C262.357 142.802 262.633 142.745 262.888 142.63C263.144 142.516 263.367 142.358 263.559 142.156C263.751 141.951 263.901 141.719 264.008 141.46C264.116 141.201 264.17 140.928 264.17 140.642C264.17 140.262 264.079 139.909 263.897 139.583C263.719 139.257 263.473 138.994 263.161 138.796C262.848 138.594 262.491 138.493 262.091 138.493ZM271.28 147.827C270.483 147.823 269.801 147.613 269.236 147.196C268.671 146.779 268.239 146.172 267.94 145.375C267.64 144.578 267.491 143.617 267.491 142.494C267.491 141.374 267.64 140.417 267.94 139.623C268.242 138.829 268.676 138.224 269.241 137.807C269.81 137.39 270.489 137.181 271.28 137.181C272.07 137.181 272.748 137.392 273.313 137.812C273.878 138.229 274.31 138.834 274.61 139.628C274.912 140.419 275.064 141.374 275.064 142.494C275.064 143.621 274.914 144.583 274.615 145.38C274.315 146.174 273.883 146.781 273.318 147.201C272.753 147.618 272.074 147.827 271.28 147.827ZM271.28 146.48C271.979 146.48 272.526 146.138 272.919 145.456C273.316 144.773 273.515 143.786 273.515 142.494C273.515 141.636 273.424 140.911 273.242 140.319C273.064 139.724 272.807 139.273 272.47 138.967C272.137 138.658 271.741 138.503 271.28 138.503C270.583 138.503 270.037 138.846 269.64 139.532C269.243 140.219 269.043 141.206 269.04 142.494C269.04 143.355 269.129 144.083 269.307 144.679C269.489 145.271 269.746 145.72 270.079 146.026C270.412 146.328 270.812 146.48 271.28 146.48ZM280.451 147.827C279.654 147.823 278.972 147.613 278.407 147.196C277.842 146.779 277.41 146.172 277.111 145.375C276.811 144.578 276.662 143.617 276.662 142.494C276.662 141.374 276.811 140.417 277.111 139.623C277.414 138.829 277.847 138.224 278.412 137.807C278.981 137.39 279.66 137.181 280.451 137.181C281.241 137.181 281.919 137.392 282.484 137.812C283.049 138.229 283.481 138.834 283.781 139.628C284.083 140.419 284.235 141.374 284.235 142.494C284.235 143.621 284.085 144.583 283.786 145.38C283.486 146.174 283.054 146.781 282.489 147.201C281.924 147.618 281.245 147.827 280.451 147.827ZM280.451 146.48C281.15 146.48 281.697 146.138 282.09 145.456C282.487 144.773 282.686 143.786 282.686 142.494C282.686 141.636 282.595 140.911 282.413 140.319C282.235 139.724 281.978 139.273 281.641 138.967C281.308 138.658 280.912 138.503 280.451 138.503C279.755 138.503 279.208 138.846 278.811 139.532C278.414 140.219 278.214 141.206 278.211 142.494C278.211 143.355 278.3 144.083 278.478 144.679C278.66 145.271 278.917 145.72 279.25 146.026C279.583 146.328 279.983 146.48 280.451 146.48Z" fill="#1F243D"/>
<path d="M258.673 166.655V158.26H259.689V161.998H264.166V158.26H265.183V166.655H264.166V162.9H259.689V166.655H258.673ZM269.727 166.786C269.12 166.786 268.597 166.653 268.157 166.385C267.719 166.114 267.382 165.737 267.144 165.253C266.909 164.767 266.791 164.201 266.791 163.556C266.791 162.911 266.909 162.343 267.144 161.851C267.382 161.356 267.712 160.971 268.136 160.695C268.562 160.416 269.06 160.277 269.628 160.277C269.956 160.277 270.28 160.331 270.6 160.441C270.919 160.55 271.211 160.728 271.473 160.974C271.735 161.217 271.944 161.539 272.1 161.941C272.256 162.343 272.334 162.837 272.334 163.425V163.835H267.48V162.999H271.35C271.35 162.643 271.279 162.326 271.137 162.048C270.997 161.769 270.798 161.549 270.538 161.388C270.281 161.226 269.978 161.146 269.628 161.146C269.243 161.146 268.909 161.241 268.628 161.433C268.349 161.621 268.135 161.867 267.984 162.171C267.834 162.474 267.759 162.799 267.759 163.146V163.704C267.759 164.179 267.841 164.582 268.005 164.913C268.172 165.241 268.403 165.491 268.698 165.663C268.993 165.833 269.336 165.917 269.727 165.917C269.981 165.917 270.21 165.882 270.415 165.811C270.623 165.737 270.802 165.628 270.952 165.483C271.103 165.335 271.219 165.152 271.301 164.934L272.235 165.196C272.137 165.513 271.972 165.792 271.739 166.032C271.507 166.27 271.22 166.456 270.878 166.59C270.537 166.721 270.153 166.786 269.727 166.786ZM274.358 160.359L275.866 162.933L277.375 160.359H278.49L276.457 163.507L278.49 166.655H277.375L275.866 164.212L274.358 166.655H273.243L275.243 163.507L273.243 160.359H274.358ZM283.822 166.721C283.62 166.721 283.446 166.648 283.301 166.504C283.156 166.359 283.084 166.185 283.084 165.983C283.084 165.781 283.156 165.607 283.301 165.462C283.446 165.318 283.62 165.245 283.822 165.245C284.024 165.245 284.198 165.318 284.343 165.462C284.487 165.607 284.56 165.781 284.56 165.983C284.56 166.117 284.526 166.24 284.457 166.352C284.392 166.464 284.303 166.554 284.191 166.622C284.082 166.688 283.959 166.721 283.822 166.721ZM283.822 162.048C283.62 162.048 283.446 161.975 283.301 161.83C283.156 161.686 283.084 161.512 283.084 161.31C283.084 161.108 283.156 160.934 283.301 160.789C283.446 160.644 283.62 160.572 283.822 160.572C284.024 160.572 284.198 160.644 284.343 160.789C284.487 160.934 284.56 161.108 284.56 161.31C284.56 161.444 284.526 161.567 284.457 161.679C284.392 161.791 284.303 161.881 284.191 161.949C284.082 162.015 283.959 162.048 283.822 162.048ZM292.674 166.655L294.052 158.26H294.872L293.494 166.655H292.674ZM288.854 164.327L288.985 163.507H295.249L295.118 164.327H288.854ZM289.723 166.655L291.1 158.26H291.92L290.543 166.655H289.723ZM289.346 161.408L289.477 160.588H295.741L295.609 161.408H289.346ZM299.547 166.77C298.929 166.77 298.403 166.602 297.969 166.266C297.534 165.927 297.202 165.436 296.972 164.794C296.743 164.149 296.628 163.37 296.628 162.458C296.628 161.55 296.743 160.776 296.972 160.133C297.205 159.488 297.538 158.996 297.973 158.658C298.41 158.316 298.935 158.145 299.547 158.145C300.159 158.145 300.682 158.316 301.117 158.658C301.554 158.996 301.887 159.488 302.117 160.133C302.349 160.776 302.465 161.55 302.465 162.458C302.465 163.37 302.351 164.149 302.121 164.794C301.892 165.436 301.56 165.927 301.125 166.266C300.69 166.602 300.164 166.77 299.547 166.77ZM299.547 165.868C300.159 165.868 300.634 165.573 300.973 164.983C301.312 164.392 301.482 163.551 301.482 162.458C301.482 161.731 301.404 161.112 301.248 160.601C301.095 160.09 300.874 159.7 300.584 159.432C300.297 159.165 299.951 159.031 299.547 159.031C298.94 159.031 298.466 159.33 298.124 159.928C297.783 160.524 297.612 161.367 297.612 162.458C297.612 163.185 297.688 163.802 297.841 164.31C297.995 164.819 298.215 165.205 298.501 165.471C298.791 165.736 299.14 165.868 299.547 165.868ZM304.023 166.655V165.917L306.794 162.884C307.12 162.529 307.387 162.22 307.598 161.957C307.808 161.692 307.964 161.444 308.065 161.211C308.169 160.976 308.221 160.73 308.221 160.474C308.221 160.178 308.15 159.923 308.008 159.707C307.868 159.491 307.677 159.324 307.434 159.207C307.191 159.089 306.917 159.031 306.614 159.031C306.291 159.031 306.01 159.098 305.769 159.231C305.532 159.363 305.347 159.547 305.216 159.785C305.088 160.023 305.023 160.301 305.023 160.621H304.056C304.056 160.129 304.169 159.697 304.396 159.326C304.623 158.954 304.932 158.664 305.323 158.457C305.716 158.249 306.158 158.145 306.647 158.145C307.139 158.145 307.575 158.249 307.954 158.457C308.334 158.664 308.632 158.945 308.848 159.297C309.064 159.65 309.172 160.042 309.172 160.474C309.172 160.782 309.116 161.084 309.004 161.38C308.895 161.672 308.703 161.998 308.43 162.359C308.159 162.717 307.784 163.154 307.303 163.671L305.417 165.688V165.753H309.319V166.655H304.023ZM311.012 166.655V165.917L313.784 162.884C314.109 162.529 314.377 162.22 314.587 161.957C314.797 161.692 314.953 161.444 315.054 161.211C315.158 160.976 315.21 160.73 315.21 160.474C315.21 160.178 315.139 159.923 314.997 159.707C314.858 159.491 314.666 159.324 314.423 159.207C314.18 159.089 313.907 159.031 313.603 159.031C313.281 159.031 312.999 159.098 312.759 159.231C312.521 159.363 312.337 159.547 312.205 159.785C312.077 160.023 312.013 160.301 312.013 160.621H311.045C311.045 160.129 311.159 159.697 311.385 159.326C311.612 158.954 311.921 158.664 312.312 158.457C312.705 158.249 313.147 158.145 313.636 158.145C314.128 158.145 314.564 158.249 314.944 158.457C315.324 158.664 315.621 158.945 315.837 159.297C316.053 159.65 316.161 160.042 316.161 160.474C316.161 160.782 316.105 161.084 315.993 161.38C315.884 161.672 315.692 161.998 315.419 162.359C315.149 162.717 314.773 163.154 314.292 163.671L312.406 165.688V165.753H316.309V166.655H311.012ZM318.002 166.655V165.917L320.773 162.884C321.098 162.529 321.366 162.22 321.576 161.957C321.787 161.692 321.943 161.444 322.044 161.211C322.147 160.976 322.199 160.73 322.199 160.474C322.199 160.178 322.128 159.923 321.986 159.707C321.847 159.491 321.656 159.324 321.412 159.207C321.169 159.089 320.896 159.031 320.592 159.031C320.27 159.031 319.989 159.098 319.748 159.231C319.51 159.363 319.326 159.547 319.195 159.785C319.066 160.023 319.002 160.301 319.002 160.621H318.035C318.035 160.129 318.148 159.697 318.375 159.326C318.602 158.954 318.91 158.664 319.301 158.457C319.695 158.249 320.136 158.145 320.625 158.145C321.117 158.145 321.553 158.249 321.933 158.457C322.313 158.664 322.611 158.945 322.827 159.297C323.042 159.65 323.15 160.042 323.15 160.474C323.15 160.782 323.094 161.084 322.982 161.38C322.873 161.672 322.682 161.998 322.408 162.359C322.138 162.717 321.762 163.154 321.281 163.671L319.395 165.688V165.753H323.298V166.655H318.002ZM325.253 166.655L329.008 159.227V159.162H324.679V158.26H330.058V159.211L326.319 166.655H325.253ZM334.193 166.77C333.849 166.765 333.504 166.699 333.16 166.573C332.815 166.448 332.501 166.236 332.217 165.938C331.933 165.637 331.705 165.231 331.532 164.72C331.36 164.207 331.274 163.562 331.274 162.786C331.274 162.042 331.344 161.384 331.483 160.81C331.623 160.233 331.825 159.748 332.09 159.354C332.355 158.958 332.675 158.658 333.049 158.453C333.426 158.248 333.851 158.145 334.324 158.145C334.794 158.145 335.212 158.239 335.578 158.428C335.947 158.614 336.248 158.873 336.48 159.207C336.713 159.54 336.863 159.924 336.931 160.359H335.931C335.838 159.982 335.658 159.669 335.39 159.42C335.122 159.171 334.767 159.047 334.324 159.047C333.674 159.047 333.161 159.33 332.787 159.896C332.415 160.461 332.228 161.255 332.225 162.277H332.291C332.444 162.045 332.626 161.847 332.836 161.683C333.049 161.516 333.284 161.388 333.541 161.298C333.798 161.207 334.07 161.162 334.357 161.162C334.838 161.162 335.278 161.282 335.677 161.523C336.076 161.761 336.396 162.09 336.636 162.511C336.877 162.929 336.997 163.409 336.997 163.95C336.997 164.469 336.881 164.945 336.648 165.376C336.416 165.805 336.089 166.147 335.669 166.401C335.25 166.653 334.759 166.776 334.193 166.77ZM334.193 165.868C334.537 165.868 334.846 165.782 335.119 165.61C335.395 165.438 335.613 165.207 335.771 164.917C335.932 164.627 336.013 164.305 336.013 163.95C336.013 163.603 335.935 163.287 335.779 163.003C335.626 162.716 335.414 162.488 335.144 162.318C334.876 162.149 334.57 162.064 334.226 162.064C333.966 162.064 333.724 162.116 333.5 162.22C333.276 162.321 333.079 162.46 332.91 162.638C332.743 162.816 332.612 163.019 332.516 163.249C332.421 163.476 332.373 163.715 332.373 163.966C332.373 164.3 332.451 164.611 332.606 164.901C332.765 165.19 332.981 165.424 333.254 165.602C333.53 165.779 333.843 165.868 334.193 165.868Z" fill="#959BA3"/>
<path d="M265.428 178.883H264.412C264.352 178.591 264.247 178.334 264.096 178.113C263.949 177.891 263.768 177.706 263.555 177.555C263.345 177.402 263.111 177.288 262.854 177.211C262.597 177.134 262.329 177.096 262.051 177.096C261.542 177.096 261.082 177.225 260.669 177.482C260.259 177.738 259.933 178.117 259.689 178.617C259.449 179.117 259.329 179.731 259.329 180.458C259.329 181.185 259.449 181.798 259.689 182.298C259.933 182.798 260.259 183.177 260.669 183.434C261.082 183.691 261.542 183.819 262.051 183.819C262.329 183.819 262.597 183.781 262.854 183.704C263.111 183.628 263.345 183.514 263.555 183.364C263.768 183.211 263.949 183.024 264.096 182.802C264.247 182.578 264.352 182.321 264.412 182.032H265.428C265.352 182.461 265.213 182.845 265.01 183.184C264.808 183.523 264.557 183.811 264.256 184.049C263.955 184.284 263.618 184.463 263.244 184.586C262.872 184.709 262.474 184.77 262.051 184.77C261.335 184.77 260.698 184.595 260.14 184.245C259.583 183.896 259.144 183.398 258.825 182.753C258.505 182.108 258.345 181.343 258.345 180.458C258.345 179.572 258.505 178.807 258.825 178.162C259.144 177.517 259.583 177.02 260.14 176.67C260.698 176.32 261.335 176.145 262.051 176.145C262.474 176.145 262.872 176.207 263.244 176.33C263.618 176.453 263.955 176.633 264.256 176.871C264.557 177.106 264.808 177.393 265.01 177.732C265.213 178.068 265.352 178.452 265.428 178.883ZM267.071 176.26H268.285L271.138 183.229H271.236L274.089 176.26H275.303V184.655H274.352V178.277H274.27L271.646 184.655H270.728L268.104 178.277H268.022V184.655H267.071V176.26ZM276.62 176.26H277.784L280.112 180.179H280.21L282.539 176.26H283.703L280.67 181.195V184.655H279.653V181.195L276.62 176.26ZM285.018 184.655V176.26H286.035V180.425H286.133L289.904 176.26H291.232L287.707 180.048L291.232 184.655H290.003L287.084 180.753L286.035 181.933V184.655H285.018ZM296.369 183.581C296.167 183.581 295.993 183.509 295.848 183.364C295.703 183.219 295.631 183.046 295.631 182.843C295.631 182.641 295.703 182.468 295.848 182.323C295.993 182.178 296.167 182.106 296.369 182.106C296.571 182.106 296.745 182.178 296.889 182.323C297.034 182.468 297.107 182.641 297.107 182.843C297.107 182.977 297.073 183.1 297.004 183.212C296.939 183.324 296.85 183.415 296.738 183.483C296.628 183.548 296.505 183.581 296.369 183.581ZM296.369 179.334C296.167 179.334 295.993 179.262 295.848 179.117C295.703 178.972 295.631 178.799 295.631 178.597C295.631 178.394 295.703 178.221 295.848 178.076C295.993 177.931 296.167 177.859 296.369 177.859C296.571 177.859 296.745 177.931 296.889 178.076C297.034 178.221 297.107 178.394 297.107 178.597C297.107 178.73 297.073 178.853 297.004 178.965C296.939 179.078 296.85 179.168 296.738 179.236C296.628 179.302 296.505 179.334 296.369 179.334ZM305.024 176.26V184.655H304.008V177.326H303.959L301.909 178.687V177.654L304.008 176.26H305.024ZM310.177 184.77C309.56 184.77 309.034 184.602 308.599 184.266C308.164 183.927 307.832 183.436 307.603 182.794C307.373 182.149 307.259 181.37 307.259 180.458C307.259 179.55 307.373 178.776 307.603 178.133C307.835 177.488 308.169 176.996 308.603 176.658C309.04 176.316 309.565 176.145 310.177 176.145C310.789 176.145 311.313 176.316 311.747 176.658C312.185 176.996 312.518 177.488 312.747 178.133C312.98 178.776 313.096 179.55 313.096 180.458C313.096 181.37 312.981 182.149 312.752 182.794C312.522 183.436 312.19 183.927 311.755 184.266C311.321 184.602 310.795 184.77 310.177 184.77ZM310.177 183.868C310.789 183.868 311.265 183.573 311.604 182.983C311.943 182.392 312.112 181.551 312.112 180.458C312.112 179.731 312.034 179.112 311.878 178.601C311.725 178.09 311.504 177.7 311.214 177.432C310.927 177.165 310.582 177.031 310.177 177.031C309.571 177.031 309.096 177.33 308.755 177.928C308.413 178.524 308.242 179.367 308.242 180.458C308.242 181.185 308.319 181.802 308.472 182.31C308.625 182.819 308.845 183.205 309.132 183.471C309.422 183.736 309.77 183.868 310.177 183.868ZM317.392 184.77C316.774 184.77 316.248 184.602 315.814 184.266C315.379 183.927 315.047 183.436 314.818 182.794C314.588 182.149 314.473 181.37 314.473 180.458C314.473 179.55 314.588 178.776 314.818 178.133C315.05 177.488 315.383 176.996 315.818 176.658C316.255 176.316 316.78 176.145 317.392 176.145C318.004 176.145 318.527 176.316 318.962 176.658C319.399 176.996 319.733 177.488 319.962 178.133C320.195 178.776 320.311 179.55 320.311 180.458C320.311 181.37 320.196 182.149 319.966 182.794C319.737 183.436 319.405 183.927 318.97 184.266C318.536 184.602 318.01 184.77 317.392 184.77ZM317.392 183.868C318.004 183.868 318.48 183.573 318.819 182.983C319.157 182.392 319.327 181.551 319.327 180.458C319.327 179.731 319.249 179.112 319.093 178.601C318.94 178.09 318.719 177.7 318.429 177.432C318.142 177.165 317.796 177.031 317.392 177.031C316.785 177.031 316.311 177.33 315.97 177.928C315.628 178.524 315.457 179.367 315.457 180.458C315.457 181.185 315.534 181.802 315.687 182.31C315.84 182.819 316.06 183.205 316.347 183.471C316.636 183.736 316.985 183.868 317.392 183.868ZM326.574 183.507L326.509 183.95C326.462 184.262 326.391 184.595 326.296 184.95C326.203 185.306 326.106 185.64 326.005 185.955C325.903 186.269 325.82 186.519 325.754 186.705H325.017C325.052 186.53 325.099 186.299 325.156 186.012C325.213 185.725 325.271 185.404 325.328 185.049C325.388 184.696 325.437 184.336 325.476 183.967L325.525 183.507H326.574ZM330.944 176.145C331.289 176.148 331.633 176.213 331.977 176.342C332.322 176.47 332.636 176.684 332.92 176.981C333.204 177.277 333.432 177.68 333.605 178.191C333.777 178.702 333.863 179.343 333.863 180.113C333.863 180.859 333.792 181.522 333.65 182.101C333.51 182.678 333.308 183.165 333.043 183.561C332.781 183.957 332.461 184.258 332.084 184.463C331.709 184.668 331.286 184.77 330.813 184.77C330.343 184.77 329.923 184.677 329.555 184.491C329.188 184.303 328.888 184.042 328.653 183.708C328.42 183.372 328.271 182.983 328.206 182.54H329.206C329.296 182.925 329.475 183.244 329.743 183.495C330.014 183.744 330.37 183.868 330.813 183.868C331.461 183.868 331.972 183.585 332.346 183.02C332.723 182.454 332.912 181.655 332.912 180.622H332.846C332.693 180.851 332.511 181.049 332.301 181.216C332.091 181.383 331.857 181.511 331.6 181.601C331.343 181.691 331.07 181.737 330.78 181.737C330.299 181.737 329.858 181.618 329.456 181.38C329.057 181.139 328.737 180.81 328.497 180.392C328.259 179.971 328.14 179.49 328.14 178.949C328.14 178.435 328.255 177.965 328.485 177.539C328.717 177.11 329.042 176.768 329.46 176.514C329.881 176.26 330.376 176.137 330.944 176.145ZM330.944 177.047C330.6 177.047 330.29 177.133 330.014 177.305C329.74 177.475 329.523 177.704 329.362 177.994C329.203 178.281 329.124 178.599 329.124 178.949C329.124 179.299 329.201 179.617 329.354 179.904C329.509 180.188 329.721 180.415 329.989 180.585C330.26 180.751 330.567 180.835 330.911 180.835C331.171 180.835 331.413 180.784 331.637 180.683C331.861 180.579 332.056 180.438 332.223 180.261C332.393 180.08 332.525 179.877 332.621 179.65C332.716 179.42 332.764 179.181 332.764 178.933C332.764 178.605 332.685 178.297 332.527 178.01C332.371 177.723 332.155 177.491 331.879 177.313C331.606 177.136 331.294 177.047 330.944 177.047ZM335.278 182.934V182.097L338.967 176.26H339.574V177.555H339.164L336.377 181.966V182.032H341.345V182.934H335.278ZM339.23 184.655V182.679V182.29V176.26H340.197V184.655H339.23ZM347.587 183.507L347.522 183.95C347.475 184.262 347.404 184.595 347.308 184.95C347.216 185.306 347.119 185.64 347.017 185.955C346.916 186.269 346.833 186.519 346.767 186.705H346.03C346.065 186.53 346.112 186.299 346.169 186.012C346.226 185.725 346.284 185.404 346.341 185.049C346.401 184.696 346.45 184.336 346.489 183.967L346.538 183.507H347.587ZM349.363 184.655V183.917L352.134 180.884C352.46 180.529 352.727 180.22 352.938 179.957C353.148 179.692 353.304 179.444 353.405 179.211C353.509 178.976 353.561 178.73 353.561 178.474C353.561 178.178 353.49 177.923 353.348 177.707C353.208 177.491 353.017 177.324 352.774 177.207C352.531 177.089 352.257 177.031 351.954 177.031C351.632 177.031 351.35 177.098 351.11 177.231C350.872 177.363 350.687 177.547 350.556 177.785C350.428 178.023 350.363 178.301 350.363 178.621H349.396C349.396 178.129 349.509 177.697 349.736 177.326C349.963 176.954 350.272 176.664 350.663 176.457C351.056 176.249 351.498 176.145 351.987 176.145C352.479 176.145 352.915 176.249 353.294 176.457C353.674 176.664 353.972 176.945 354.188 177.297C354.404 177.65 354.512 178.042 354.512 178.474C354.512 178.782 354.456 179.084 354.344 179.38C354.235 179.672 354.043 179.998 353.77 180.359C353.499 180.717 353.124 181.154 352.643 181.671L350.757 183.688V183.753H354.66V184.655H349.363ZM359.14 184.77C358.796 184.765 358.451 184.699 358.107 184.573C357.763 184.448 357.448 184.236 357.164 183.938C356.88 183.637 356.652 183.231 356.48 182.72C356.307 182.207 356.221 181.562 356.221 180.786C356.221 180.042 356.291 179.384 356.43 178.81C356.57 178.233 356.772 177.748 357.037 177.354C357.302 176.958 357.622 176.658 357.996 176.453C358.373 176.248 358.798 176.145 359.271 176.145C359.741 176.145 360.159 176.239 360.526 176.428C360.895 176.614 361.195 176.873 361.427 177.207C361.66 177.54 361.81 177.924 361.878 178.359H360.878C360.785 177.982 360.605 177.669 360.337 177.42C360.069 177.171 359.714 177.047 359.271 177.047C358.621 177.047 358.108 177.33 357.734 177.896C357.362 178.461 357.175 179.255 357.172 180.277H357.238C357.391 180.045 357.573 179.847 357.783 179.683C357.996 179.516 358.231 179.388 358.488 179.298C358.745 179.207 359.017 179.162 359.304 179.162C359.785 179.162 360.225 179.282 360.624 179.523C361.023 179.761 361.343 180.09 361.583 180.511C361.824 180.929 361.944 181.409 361.944 181.95C361.944 182.469 361.828 182.945 361.596 183.376C361.363 183.805 361.037 184.147 360.616 184.401C360.198 184.653 359.706 184.776 359.14 184.77ZM359.14 183.868C359.484 183.868 359.793 183.782 360.066 183.61C360.343 183.438 360.56 183.207 360.718 182.917C360.88 182.627 360.96 182.305 360.96 181.95C360.96 181.603 360.882 181.287 360.726 181.003C360.573 180.716 360.362 180.488 360.091 180.318C359.823 180.149 359.517 180.064 359.173 180.064C358.913 180.064 358.671 180.116 358.447 180.22C358.223 180.321 358.026 180.46 357.857 180.638C357.69 180.816 357.559 181.019 357.463 181.249C357.368 181.476 357.32 181.715 357.32 181.966C357.32 182.3 357.398 182.611 357.554 182.901C357.712 183.19 357.928 183.424 358.201 183.602C358.477 183.779 358.79 183.868 359.14 183.868ZM368.262 183.507L368.196 183.95C368.15 184.262 368.079 184.595 367.983 184.95C367.89 185.306 367.793 185.64 367.692 185.955C367.591 186.269 367.508 186.519 367.442 186.705H366.704C366.74 186.53 366.786 186.299 366.844 186.012C366.901 185.725 366.958 185.404 367.016 185.049C367.076 184.696 367.125 184.336 367.163 183.967L367.213 183.507H368.262ZM371.986 176.26V184.655H370.97V177.326H370.92L368.871 178.687V177.654L370.97 176.26H371.986ZM374.204 182.934V182.097L377.893 176.26H378.5V177.555H378.09L375.302 181.966V182.032H380.271V182.934H374.204ZM378.156 184.655V182.679V182.29V176.26H379.123V184.655H378.156Z" fill="#959BA3"/>
</g>
</g>
<g filter="url(#filter2_dd_733_1821)">
<g clip-path="url(#clip2_733_1821)">
<rect x="413" y="50" width="145" height="150.311" rx="7.10373" fill="white"/>
<mask id="path-10-inside-1_733_1821" fill="white">
<path d="M413 50H486V121H413V50Z"/>
</mask>
<path d="M413 50H486V121H413V50Z" fill="white"/>
<path d="M486 120H413V122H486V120Z" fill="#E3E3E3" mask="url(#path-10-inside-1_733_1821)"/>
<mask id="path-12-inside-2_733_1821" fill="white">
<path d="M485 50H558V121H485V50Z"/>
</mask>
<path d="M485 50H558V121H485V50Z" fill="white"/>
<path d="M485 121H484V122H485V121ZM558 120H485V122H558V120ZM486 121V50H484V121H486Z" fill="#E3E3E3" mask="url(#path-12-inside-2_733_1821)"/>
<path d="M428.247 147.827C427.45 147.823 426.769 147.613 426.204 147.196C425.639 146.779 425.207 146.172 424.907 145.375C424.608 144.578 424.458 143.617 424.458 142.494C424.458 141.374 424.608 140.417 424.907 139.623C425.21 138.829 425.644 138.224 426.209 137.807C426.778 137.39 427.457 137.181 428.247 137.181C429.038 137.181 429.716 137.392 430.281 137.812C430.846 138.229 431.278 138.834 431.577 139.628C431.88 140.419 432.031 141.374 432.031 142.494C432.031 143.621 431.882 144.583 431.582 145.38C431.283 146.174 430.851 146.781 430.286 147.201C429.721 147.618 429.041 147.827 428.247 147.827ZM428.247 146.48C428.947 146.48 429.494 146.138 429.887 145.456C430.284 144.773 430.482 143.786 430.482 142.494C430.482 141.636 430.392 140.911 430.21 140.319C430.032 139.724 429.774 139.273 429.438 138.967C429.105 138.658 428.708 138.503 428.247 138.503C427.551 138.503 427.005 138.846 426.608 139.532C426.211 140.219 426.011 141.206 426.007 142.494C426.007 143.355 426.096 144.083 426.275 144.679C426.456 145.271 426.714 145.72 427.047 146.026C427.38 146.328 427.78 146.48 428.247 146.48ZM437.418 147.827C436.621 147.823 435.94 147.613 435.375 147.196C434.81 146.779 434.378 146.172 434.079 145.375C433.779 144.578 433.629 143.617 433.629 142.494C433.629 141.374 433.779 140.417 434.079 139.623C434.381 138.829 434.815 138.224 435.38 137.807C435.949 137.39 436.628 137.181 437.418 137.181C438.209 137.181 438.887 137.392 439.452 137.812C440.017 138.229 440.449 138.834 440.748 139.628C441.051 140.419 441.202 141.374 441.202 142.494C441.202 143.621 441.053 144.583 440.753 145.38C440.454 146.174 440.022 146.781 439.457 147.201C438.892 147.618 438.212 147.827 437.418 147.827ZM437.418 146.48C438.118 146.48 438.665 146.138 439.058 145.456C439.455 144.773 439.654 143.786 439.654 142.494C439.654 141.636 439.563 140.911 439.381 140.319C439.203 139.724 438.946 139.273 438.609 138.967C438.276 138.658 437.879 138.503 437.418 138.503C436.722 138.503 436.176 138.846 435.779 139.532C435.382 140.219 435.182 141.206 435.178 142.494C435.178 143.355 435.268 144.083 435.446 144.679C435.627 145.271 435.885 145.72 436.218 146.026C436.551 146.328 436.951 146.48 437.418 146.48Z" fill="#1F243D"/>
<path d="M424.673 166.655V158.26H425.689V161.998H430.166V158.26H431.183V166.655H430.166V162.9H425.689V166.655H424.673ZM435.727 166.786C435.12 166.786 434.597 166.653 434.157 166.385C433.719 166.114 433.382 165.737 433.144 165.253C432.909 164.767 432.791 164.201 432.791 163.556C432.791 162.911 432.909 162.343 433.144 161.851C433.382 161.356 433.712 160.971 434.136 160.695C434.562 160.416 435.06 160.277 435.628 160.277C435.956 160.277 436.28 160.331 436.6 160.441C436.919 160.55 437.211 160.728 437.473 160.974C437.735 161.217 437.944 161.539 438.1 161.941C438.256 162.343 438.334 162.837 438.334 163.425V163.835H433.48V162.999H437.35C437.35 162.643 437.279 162.326 437.137 162.048C436.997 161.769 436.798 161.549 436.538 161.388C436.281 161.226 435.978 161.146 435.628 161.146C435.243 161.146 434.909 161.241 434.628 161.433C434.349 161.621 434.135 161.867 433.984 162.171C433.834 162.474 433.759 162.799 433.759 163.146V163.704C433.759 164.179 433.841 164.582 434.005 164.913C434.172 165.241 434.403 165.491 434.698 165.663C434.993 165.833 435.336 165.917 435.727 165.917C435.981 165.917 436.21 165.882 436.415 165.811C436.623 165.737 436.802 165.628 436.952 165.483C437.103 165.335 437.219 165.152 437.301 164.934L438.235 165.196C438.137 165.513 437.972 165.792 437.739 166.032C437.507 166.27 437.22 166.456 436.878 166.59C436.537 166.721 436.153 166.786 435.727 166.786ZM440.358 160.359L441.866 162.933L443.375 160.359H444.49L442.457 163.507L444.49 166.655H443.375L441.866 164.212L440.358 166.655H439.243L441.243 163.507L439.243 160.359H440.358ZM449.822 166.721C449.62 166.721 449.446 166.648 449.301 166.504C449.156 166.359 449.084 166.185 449.084 165.983C449.084 165.781 449.156 165.607 449.301 165.462C449.446 165.318 449.62 165.245 449.822 165.245C450.024 165.245 450.198 165.318 450.343 165.462C450.487 165.607 450.56 165.781 450.56 165.983C450.56 166.117 450.526 166.24 450.457 166.352C450.392 166.464 450.303 166.554 450.191 166.622C450.082 166.688 449.959 166.721 449.822 166.721ZM449.822 162.048C449.62 162.048 449.446 161.975 449.301 161.83C449.156 161.686 449.084 161.512 449.084 161.31C449.084 161.108 449.156 160.934 449.301 160.789C449.446 160.644 449.62 160.572 449.822 160.572C450.024 160.572 450.198 160.644 450.343 160.789C450.487 160.934 450.56 161.108 450.56 161.31C450.56 161.444 450.526 161.567 450.457 161.679C450.392 161.791 450.303 161.881 450.191 161.949C450.082 162.015 449.959 162.048 449.822 162.048ZM458.674 166.655L460.052 158.26H460.872L459.494 166.655H458.674ZM454.854 164.327L454.985 163.507H461.249L461.118 164.327H454.854ZM455.723 166.655L457.1 158.26H457.92L456.543 166.655H455.723ZM455.346 161.408L455.477 160.588H461.741L461.609 161.408H455.346ZM462.956 166.655V158.26H467.99V159.162H463.973V161.998H467.613V162.9H463.973V166.655H462.956ZM469.731 166.655V158.26H474.765V159.162H470.748V161.998H474.388V162.9H470.748V166.655H469.731ZM476.506 166.655V158.26H481.54V159.162H477.523V161.998H481.163V162.9H477.523V166.655H476.506ZM483.281 166.655V158.26H488.315V159.162H484.298V161.998H487.938V162.9H484.298V166.655H483.281ZM490.056 166.655V158.26H495.09V159.162H491.073V161.998H494.713V162.9H491.073V166.655H490.056ZM496.831 166.655V158.26H501.865V159.162H497.848V161.998H501.488V162.9H497.848V166.655H496.831Z" fill="#959BA3"/>
<path d="M431.428 178.883H430.412C430.352 178.591 430.247 178.334 430.096 178.113C429.949 177.891 429.768 177.706 429.555 177.555C429.345 177.402 429.111 177.288 428.854 177.211C428.597 177.134 428.329 177.096 428.051 177.096C427.542 177.096 427.082 177.225 426.669 177.482C426.259 177.738 425.933 178.117 425.689 178.617C425.449 179.117 425.329 179.731 425.329 180.458C425.329 181.185 425.449 181.798 425.689 182.298C425.933 182.798 426.259 183.177 426.669 183.434C427.082 183.691 427.542 183.819 428.051 183.819C428.329 183.819 428.597 183.781 428.854 183.704C429.111 183.628 429.345 183.514 429.555 183.364C429.768 183.211 429.949 183.024 430.096 182.802C430.247 182.578 430.352 182.321 430.412 182.032H431.428C431.352 182.461 431.213 182.845 431.01 183.184C430.808 183.523 430.557 183.811 430.256 184.049C429.955 184.284 429.618 184.463 429.244 184.586C428.872 184.709 428.474 184.77 428.051 184.77C427.335 184.77 426.698 184.595 426.14 184.245C425.583 183.896 425.144 183.398 424.825 182.753C424.505 182.108 424.345 181.343 424.345 180.458C424.345 179.572 424.505 178.807 424.825 178.162C425.144 177.517 425.583 177.02 426.14 176.67C426.698 176.32 427.335 176.145 428.051 176.145C428.474 176.145 428.872 176.207 429.244 176.33C429.618 176.453 429.955 176.633 430.256 176.871C430.557 177.106 430.808 177.393 431.01 177.732C431.213 178.068 431.352 178.452 431.428 178.883ZM433.071 176.26H434.285L437.138 183.229H437.236L440.089 176.26H441.303V184.655H440.352V178.277H440.27L437.646 184.655H436.728L434.104 178.277H434.022V184.655H433.071V176.26ZM442.62 176.26H443.784L446.112 180.179H446.21L448.539 176.26H449.703L446.67 181.195V184.655H445.653V181.195L442.62 176.26ZM451.018 184.655V176.26H452.035V180.425H452.133L455.904 176.26H457.232L453.707 180.048L457.232 184.655H456.003L453.084 180.753L452.035 181.933V184.655H451.018ZM462.369 183.581C462.167 183.581 461.993 183.509 461.848 183.364C461.703 183.219 461.631 183.046 461.631 182.843C461.631 182.641 461.703 182.468 461.848 182.323C461.993 182.178 462.167 182.106 462.369 182.106C462.571 182.106 462.745 182.178 462.889 182.323C463.034 182.468 463.107 182.641 463.107 182.843C463.107 182.977 463.073 183.1 463.004 183.212C462.939 183.324 462.85 183.415 462.738 183.483C462.628 183.548 462.505 183.581 462.369 183.581ZM462.369 179.334C462.167 179.334 461.993 179.262 461.848 179.117C461.703 178.972 461.631 178.799 461.631 178.597C461.631 178.394 461.703 178.221 461.848 178.076C461.993 177.931 462.167 177.859 462.369 177.859C462.571 177.859 462.745 177.931 462.889 178.076C463.034 178.221 463.107 178.394 463.107 178.597C463.107 178.73 463.073 178.853 463.004 178.965C462.939 179.078 462.85 179.168 462.738 179.236C462.628 179.302 462.505 179.334 462.369 179.334ZM470.811 184.77C470.194 184.77 469.668 184.602 469.233 184.266C468.799 183.927 468.466 183.436 468.237 182.794C468.007 182.149 467.893 181.37 467.893 180.458C467.893 179.55 468.007 178.776 468.237 178.133C468.469 177.488 468.803 176.996 469.237 176.658C469.674 176.316 470.199 176.145 470.811 176.145C471.423 176.145 471.947 176.316 472.381 176.658C472.819 176.996 473.152 177.488 473.382 178.133C473.614 178.776 473.73 179.55 473.73 180.458C473.73 181.37 473.615 182.149 473.386 182.794C473.156 183.436 472.824 183.927 472.39 184.266C471.955 184.602 471.429 184.77 470.811 184.77ZM470.811 183.868C471.423 183.868 471.899 183.573 472.238 182.983C472.577 182.392 472.746 181.551 472.746 180.458C472.746 179.731 472.668 179.112 472.512 178.601C472.359 178.09 472.138 177.7 471.848 177.432C471.561 177.165 471.216 177.031 470.811 177.031C470.205 177.031 469.73 177.33 469.389 177.928C469.047 178.524 468.876 179.367 468.876 180.458C468.876 181.185 468.953 181.802 469.106 182.31C469.259 182.819 469.479 183.205 469.766 183.471C470.056 183.736 470.404 183.868 470.811 183.868ZM479.994 183.507L479.928 183.95C479.882 184.262 479.811 184.595 479.715 184.95C479.622 185.306 479.525 185.64 479.424 185.955C479.323 186.269 479.239 186.519 479.174 186.705H478.436C478.471 186.53 478.518 186.299 478.575 186.012C478.633 185.725 478.69 185.404 478.747 185.049C478.808 184.696 478.857 184.336 478.895 183.967L478.944 183.507H479.994ZM484.215 184.77C483.597 184.77 483.071 184.602 482.637 184.266C482.202 183.927 481.87 183.436 481.641 182.794C481.411 182.149 481.296 181.37 481.296 180.458C481.296 179.55 481.411 178.776 481.641 178.133C481.873 177.488 482.206 176.996 482.641 176.658C483.078 176.316 483.603 176.145 484.215 176.145C484.827 176.145 485.35 176.316 485.785 176.658C486.222 176.996 486.556 177.488 486.785 178.133C487.017 178.776 487.134 179.55 487.134 180.458C487.134 181.37 487.019 182.149 486.789 182.794C486.56 183.436 486.228 183.927 485.793 184.266C485.359 184.602 484.833 184.77 484.215 184.77ZM484.215 183.868C484.827 183.868 485.303 183.573 485.641 182.983C485.98 182.392 486.15 181.551 486.15 180.458C486.15 179.731 486.072 179.112 485.916 178.601C485.763 178.09 485.542 177.7 485.252 177.432C484.965 177.165 484.619 177.031 484.215 177.031C483.608 177.031 483.134 177.33 482.792 177.928C482.451 178.524 482.28 179.367 482.28 180.458C482.28 181.185 482.357 181.802 482.51 182.31C482.663 182.819 482.883 183.205 483.17 183.471C483.459 183.736 483.808 183.868 484.215 183.868ZM493.397 183.507L493.332 183.95C493.285 184.262 493.214 184.595 493.119 184.95C493.026 185.306 492.929 185.64 492.827 185.955C492.726 186.269 492.643 186.519 492.577 186.705H491.84C491.875 186.53 491.922 186.299 491.979 186.012C492.036 185.725 492.094 185.404 492.151 185.049C492.211 184.696 492.26 184.336 492.299 183.967L492.348 183.507H493.397ZM497.619 184.77C497.001 184.77 496.475 184.602 496.04 184.266C495.606 183.927 495.274 183.436 495.044 182.794C494.815 182.149 494.7 181.37 494.7 180.458C494.7 179.55 494.815 178.776 495.044 178.133C495.276 177.488 495.61 176.996 496.044 176.658C496.482 176.316 497.006 176.145 497.619 176.145C498.231 176.145 498.754 176.316 499.189 176.658C499.626 176.996 499.959 177.488 500.189 178.133C500.421 178.776 500.537 179.55 500.537 180.458C500.537 181.37 500.422 182.149 500.193 182.794C499.963 183.436 499.631 183.927 499.197 184.266C498.762 184.602 498.236 184.77 497.619 184.77ZM497.619 183.868C498.231 183.868 498.706 183.573 499.045 182.983C499.384 182.392 499.553 181.551 499.553 180.458C499.553 179.731 499.475 179.112 499.32 178.601C499.167 178.09 498.945 177.7 498.656 177.432C498.369 177.165 498.023 177.031 497.619 177.031C497.012 177.031 496.538 177.33 496.196 177.928C495.854 178.524 495.684 179.367 495.684 180.458C495.684 181.185 495.76 181.802 495.913 182.31C496.066 182.819 496.286 183.205 496.573 183.471C496.863 183.736 497.211 183.868 497.619 183.868ZM506.801 183.507L506.735 183.95C506.689 184.262 506.618 184.595 506.522 184.95C506.429 185.306 506.332 185.64 506.231 185.955C506.13 186.269 506.047 186.519 505.981 186.705H505.243C505.279 186.53 505.325 186.299 505.383 186.012C505.44 185.725 505.497 185.404 505.555 185.049C505.615 184.696 505.664 184.336 505.702 183.967L505.751 183.507H506.801ZM511.022 184.77C510.405 184.77 509.878 184.602 509.444 184.266C509.009 183.927 508.677 183.436 508.448 182.794C508.218 182.149 508.103 181.37 508.103 180.458C508.103 179.55 508.218 178.776 508.448 178.133C508.68 177.488 509.013 176.996 509.448 176.658C509.885 176.316 510.41 176.145 511.022 176.145C511.634 176.145 512.158 176.316 512.592 176.658C513.029 176.996 513.363 177.488 513.592 178.133C513.825 178.776 513.941 179.55 513.941 180.458C513.941 181.37 513.826 182.149 513.596 182.794C513.367 183.436 513.035 183.927 512.6 184.266C512.166 184.602 511.64 184.77 511.022 184.77ZM511.022 183.868C511.634 183.868 512.11 183.573 512.449 182.983C512.788 182.392 512.957 181.551 512.957 180.458C512.957 179.731 512.879 179.112 512.723 178.601C512.57 178.09 512.349 177.7 512.059 177.432C511.772 177.165 511.427 177.031 511.022 177.031C510.415 177.031 509.941 177.33 509.6 177.928C509.258 178.524 509.087 179.367 509.087 180.458C509.087 181.185 509.164 181.802 509.317 182.31C509.47 182.819 509.69 183.205 509.977 183.471C510.266 183.736 510.615 183.868 511.022 183.868Z" fill="#959BA3"/>
</g>
</g>
<g filter="url(#filter3_dd_733_1821)">
<g clip-path="url(#clip3_733_1821)">
<rect x="579" y="50" width="145" height="150.311" rx="7.10373" fill="white"/>
<rect width="73" height="71" transform="translate(579 50)" fill="#1F243D"/>
<rect width="73" height="71" transform="translate(651 50)" fill="#1F243D"/>
<path d="M594.247 147.827C593.45 147.823 592.769 147.613 592.204 147.196C591.639 146.779 591.207 146.172 590.907 145.375C590.608 144.578 590.458 143.617 590.458 142.494C590.458 141.374 590.608 140.417 590.907 139.623C591.21 138.829 591.644 138.224 592.209 137.807C592.778 137.39 593.457 137.181 594.247 137.181C595.038 137.181 595.716 137.392 596.281 137.812C596.846 138.229 597.278 138.834 597.577 139.628C597.88 140.419 598.031 141.374 598.031 142.494C598.031 143.621 597.882 144.583 597.582 145.38C597.283 146.174 596.851 146.781 596.286 147.201C595.721 147.618 595.041 147.827 594.247 147.827ZM594.247 146.48C594.947 146.48 595.494 146.138 595.887 145.456C596.284 144.773 596.482 143.786 596.482 142.494C596.482 141.636 596.392 140.911 596.21 140.319C596.032 139.724 595.774 139.273 595.438 138.967C595.105 138.658 594.708 138.503 594.247 138.503C593.551 138.503 593.005 138.846 592.608 139.532C592.211 140.219 592.011 141.206 592.007 142.494C592.007 143.355 592.096 144.083 592.275 144.679C592.456 145.271 592.714 145.72 593.047 146.026C593.38 146.328 593.78 146.48 594.247 146.48ZM603.418 147.827C602.621 147.823 601.94 147.613 601.375 147.196C600.81 146.779 600.378 146.172 600.079 145.375C599.779 144.578 599.629 143.617 599.629 142.494C599.629 141.374 599.779 140.417 600.079 139.623C600.381 138.829 600.815 138.224 601.38 137.807C601.949 137.39 602.628 137.181 603.418 137.181C604.209 137.181 604.887 137.392 605.452 137.812C606.017 138.229 606.449 138.834 606.748 139.628C607.051 140.419 607.202 141.374 607.202 142.494C607.202 143.621 607.053 144.583 606.753 145.38C606.454 146.174 606.022 146.781 605.457 147.201C604.892 147.618 604.212 147.827 603.418 147.827ZM603.418 146.48C604.118 146.48 604.665 146.138 605.058 145.456C605.455 144.773 605.654 143.786 605.654 142.494C605.654 141.636 605.563 140.911 605.381 140.319C605.203 139.724 604.946 139.273 604.609 138.967C604.276 138.658 603.879 138.503 603.418 138.503C602.722 138.503 602.176 138.846 601.779 139.532C601.382 140.219 601.182 141.206 601.178 142.494C601.178 143.355 601.268 144.083 601.446 144.679C601.627 145.271 601.885 145.72 602.218 146.026C602.551 146.328 602.951 146.48 603.418 146.48Z" fill="#1F243D"/>
<path d="M590.673 166.655V158.26H591.689V161.998H596.166V158.26H597.183V166.655H596.166V162.9H591.689V166.655H590.673ZM601.727 166.786C601.12 166.786 600.597 166.653 600.157 166.385C599.719 166.114 599.382 165.737 599.144 165.253C598.909 164.767 598.791 164.201 598.791 163.556C598.791 162.911 598.909 162.343 599.144 161.851C599.382 161.356 599.712 160.971 600.136 160.695C600.562 160.416 601.06 160.277 601.628 160.277C601.956 160.277 602.28 160.331 602.6 160.441C602.919 160.55 603.211 160.728 603.473 160.974C603.735 161.217 603.944 161.539 604.1 161.941C604.256 162.343 604.334 162.837 604.334 163.425V163.835H599.48V162.999H603.35C603.35 162.643 603.279 162.326 603.137 162.048C602.997 161.769 602.798 161.549 602.538 161.388C602.281 161.226 601.978 161.146 601.628 161.146C601.243 161.146 600.909 161.241 600.628 161.433C600.349 161.621 600.135 161.867 599.984 162.171C599.834 162.474 599.759 162.799 599.759 163.146V163.704C599.759 164.179 599.841 164.582 600.005 164.913C600.172 165.241 600.403 165.491 600.698 165.663C600.993 165.833 601.336 165.917 601.727 165.917C601.981 165.917 602.21 165.882 602.415 165.811C602.623 165.737 602.802 165.628 602.952 165.483C603.103 165.335 603.219 165.152 603.301 164.934L604.235 165.196C604.137 165.513 603.972 165.792 603.739 166.032C603.507 166.27 603.22 166.456 602.878 166.59C602.537 166.721 602.153 166.786 601.727 166.786ZM606.358 160.359L607.866 162.933L609.375 160.359H610.49L608.457 163.507L610.49 166.655H609.375L607.866 164.212L606.358 166.655H605.243L607.243 163.507L605.243 160.359H606.358ZM615.822 166.721C615.62 166.721 615.446 166.648 615.301 166.504C615.156 166.359 615.084 166.185 615.084 165.983C615.084 165.781 615.156 165.607 615.301 165.462C615.446 165.318 615.62 165.245 615.822 165.245C616.024 165.245 616.198 165.318 616.343 165.462C616.487 165.607 616.56 165.781 616.56 165.983C616.56 166.117 616.526 166.24 616.457 166.352C616.392 166.464 616.303 166.554 616.191 166.622C616.082 166.688 615.959 166.721 615.822 166.721ZM615.822 162.048C615.62 162.048 615.446 161.975 615.301 161.83C615.156 161.686 615.084 161.512 615.084 161.31C615.084 161.108 615.156 160.934 615.301 160.789C615.446 160.644 615.62 160.572 615.822 160.572C616.024 160.572 616.198 160.644 616.343 160.789C616.487 160.934 616.56 161.108 616.56 161.31C616.56 161.444 616.526 161.567 616.457 161.679C616.392 161.791 616.303 161.881 616.191 161.949C616.082 162.015 615.959 162.048 615.822 162.048ZM624.674 166.655L626.052 158.26H626.872L625.494 166.655H624.674ZM620.854 164.327L620.985 163.507H627.249L627.118 164.327H620.854ZM621.723 166.655L623.1 158.26H623.92L622.543 166.655H621.723ZM621.346 161.408L621.477 160.588H627.741L627.609 161.408H621.346ZM631.76 158.26V166.655H630.743V159.326H630.694L628.644 160.687V159.654L630.743 158.26H631.76ZM634.322 166.655V158.26H639.356V159.162H635.339V161.998H638.979V162.9H635.339V166.655H634.322ZM640.949 166.655V165.917L643.721 162.884C644.046 162.529 644.314 162.22 644.524 161.957C644.734 161.692 644.89 161.444 644.991 161.211C645.095 160.976 645.147 160.73 645.147 160.474C645.147 160.178 645.076 159.923 644.934 159.707C644.795 159.491 644.603 159.324 644.36 159.207C644.117 159.089 643.844 159.031 643.54 159.031C643.218 159.031 642.936 159.098 642.696 159.231C642.458 159.363 642.274 159.547 642.142 159.785C642.014 160.023 641.95 160.301 641.95 160.621H640.982C640.982 160.129 641.096 159.697 641.323 159.326C641.549 158.954 641.858 158.664 642.249 158.457C642.643 158.249 643.084 158.145 643.573 158.145C644.065 158.145 644.501 158.249 644.881 158.457C645.261 158.664 645.558 158.945 645.774 159.297C645.99 159.65 646.098 160.042 646.098 160.474C646.098 160.782 646.042 161.084 645.93 161.38C645.821 161.672 645.63 161.998 645.356 162.359C645.086 162.717 644.71 163.154 644.229 163.671L642.343 165.688V165.753H646.246V166.655H640.949ZM647.562 164.934V164.097L651.251 158.26H651.858V159.555H651.448L648.66 163.966V164.032H653.629V164.934H647.562ZM651.513 166.655V164.679V164.29V158.26H652.481V166.655H651.513ZM658.001 166.77C657.46 166.77 656.978 166.677 656.554 166.491C656.134 166.305 655.799 166.047 655.55 165.717C655.304 165.383 655.17 164.996 655.148 164.556H656.181C656.203 164.827 656.296 165.061 656.46 165.257C656.624 165.451 656.839 165.602 657.104 165.708C657.369 165.815 657.663 165.868 657.985 165.868C658.346 165.868 658.666 165.805 658.944 165.68C659.223 165.554 659.442 165.379 659.6 165.155C659.759 164.931 659.838 164.671 659.838 164.376C659.838 164.067 659.761 163.795 659.608 163.56C659.455 163.323 659.231 163.137 658.936 163.003C658.641 162.869 658.28 162.802 657.854 162.802H657.182V161.9H657.854C658.187 161.9 658.48 161.84 658.731 161.72C658.985 161.599 659.183 161.43 659.326 161.211C659.47 160.993 659.543 160.736 659.543 160.441C659.543 160.157 659.48 159.909 659.354 159.699C659.229 159.488 659.051 159.324 658.821 159.207C658.594 159.089 658.327 159.031 658.018 159.031C657.728 159.031 657.455 159.084 657.198 159.19C656.944 159.294 656.736 159.446 656.575 159.646C656.414 159.842 656.326 160.08 656.313 160.359H655.329C655.345 159.919 655.478 159.533 655.726 159.203C655.975 158.869 656.3 158.61 656.702 158.424C657.106 158.238 657.551 158.145 658.034 158.145C658.554 158.145 658.999 158.25 659.371 158.461C659.742 158.669 660.028 158.943 660.227 159.285C660.427 159.626 660.527 159.995 660.527 160.392C660.527 160.864 660.402 161.267 660.154 161.601C659.908 161.934 659.573 162.165 659.149 162.294V162.359C659.679 162.447 660.093 162.672 660.391 163.036C660.689 163.396 660.838 163.843 660.838 164.376C660.838 164.832 660.714 165.242 660.465 165.606C660.219 165.967 659.883 166.251 659.457 166.459C659.03 166.666 658.545 166.77 658.001 166.77ZM665.253 166.655H662.662V158.26H665.368C666.182 158.26 666.879 158.428 667.459 158.764C668.038 159.098 668.482 159.577 668.791 160.203C669.1 160.826 669.254 161.572 669.254 162.441C669.254 163.316 669.098 164.069 668.787 164.7C668.475 165.328 668.021 165.812 667.426 166.151C666.83 166.487 666.106 166.655 665.253 166.655ZM663.679 165.753H665.188C665.882 165.753 666.457 165.62 666.913 165.352C667.37 165.084 667.71 164.703 667.934 164.208C668.158 163.713 668.27 163.124 668.27 162.441C668.27 161.763 668.159 161.18 667.938 160.691C667.717 160.199 667.386 159.822 666.946 159.559C666.506 159.294 665.958 159.162 665.302 159.162H663.679V165.753Z" fill="#959BA3"/>
<path d="M597.428 178.883H596.412C596.352 178.591 596.247 178.334 596.096 178.113C595.949 177.891 595.768 177.706 595.555 177.555C595.345 177.402 595.111 177.288 594.854 177.211C594.597 177.134 594.329 177.096 594.051 177.096C593.542 177.096 593.082 177.225 592.669 177.482C592.259 177.738 591.933 178.117 591.689 178.617C591.449 179.117 591.329 179.731 591.329 180.458C591.329 181.185 591.449 181.798 591.689 182.298C591.933 182.798 592.259 183.177 592.669 183.434C593.082 183.691 593.542 183.819 594.051 183.819C594.329 183.819 594.597 183.781 594.854 183.704C595.111 183.628 595.345 183.514 595.555 183.364C595.768 183.211 595.949 183.024 596.096 182.802C596.247 182.578 596.352 182.321 596.412 182.032H597.428C597.352 182.461 597.213 182.845 597.01 183.184C596.808 183.523 596.557 183.811 596.256 184.049C595.955 184.284 595.618 184.463 595.244 184.586C594.872 184.709 594.474 184.77 594.051 184.77C593.335 184.77 592.698 184.595 592.14 184.245C591.583 183.896 591.144 183.398 590.825 182.753C590.505 182.108 590.345 181.343 590.345 180.458C590.345 179.572 590.505 178.807 590.825 178.162C591.144 177.517 591.583 177.02 592.14 176.67C592.698 176.32 593.335 176.145 594.051 176.145C594.474 176.145 594.872 176.207 595.244 176.33C595.618 176.453 595.955 176.633 596.256 176.871C596.557 177.106 596.808 177.393 597.01 177.732C597.213 178.068 597.352 178.452 597.428 178.883ZM599.071 176.26H600.285L603.138 183.229H603.236L606.089 176.26H607.303V184.655H606.352V178.277H606.27L603.646 184.655H602.728L600.104 178.277H600.022V184.655H599.071V176.26ZM608.62 176.26H609.784L612.112 180.179H612.21L614.539 176.26H615.703L612.67 181.195V184.655H611.653V181.195L608.62 176.26ZM617.018 184.655V176.26H618.035V180.425H618.133L621.904 176.26H623.232L619.707 180.048L623.232 184.655H622.003L619.084 180.753L618.035 181.933V184.655H617.018ZM628.369 183.581C628.167 183.581 627.993 183.509 627.848 183.364C627.703 183.219 627.631 183.046 627.631 182.843C627.631 182.641 627.703 182.468 627.848 182.323C627.993 182.178 628.167 182.106 628.369 182.106C628.571 182.106 628.745 182.178 628.889 182.323C629.034 182.468 629.107 182.641 629.107 182.843C629.107 182.977 629.073 183.1 629.004 183.212C628.939 183.324 628.85 183.415 628.738 183.483C628.628 183.548 628.505 183.581 628.369 183.581ZM628.369 179.334C628.167 179.334 627.993 179.262 627.848 179.117C627.703 178.972 627.631 178.799 627.631 178.597C627.631 178.394 627.703 178.221 627.848 178.076C627.993 177.931 628.167 177.859 628.369 177.859C628.571 177.859 628.745 177.931 628.889 178.076C629.034 178.221 629.107 178.394 629.107 178.597C629.107 178.73 629.073 178.853 629.004 178.965C628.939 179.078 628.85 179.168 628.738 179.236C628.628 179.302 628.505 179.334 628.369 179.334ZM636.762 184.77C636.199 184.77 635.702 184.67 635.27 184.471C634.841 184.269 634.506 183.991 634.266 183.639C634.025 183.283 633.906 182.879 633.909 182.425C633.906 182.07 633.976 181.742 634.118 181.441C634.26 181.138 634.454 180.885 634.7 180.683C634.949 180.478 635.226 180.348 635.532 180.294V180.244C635.131 180.141 634.811 179.915 634.573 179.568C634.335 179.218 634.218 178.821 634.221 178.375C634.218 177.949 634.326 177.568 634.544 177.231C634.763 176.895 635.064 176.63 635.446 176.436C635.832 176.242 636.27 176.145 636.762 176.145C637.249 176.145 637.683 176.242 638.066 176.436C638.448 176.63 638.749 176.895 638.968 177.231C639.189 177.568 639.301 177.949 639.304 178.375C639.301 178.821 639.179 179.218 638.939 179.568C638.701 179.915 638.385 180.141 637.992 180.244V180.294C638.295 180.348 638.569 180.478 638.812 180.683C639.055 180.885 639.249 181.138 639.394 181.441C639.539 181.742 639.612 182.07 639.615 182.425C639.612 182.879 639.489 183.283 639.246 183.639C639.006 183.991 638.671 184.269 638.242 184.471C637.816 184.67 637.322 184.77 636.762 184.77ZM636.762 183.868C637.142 183.868 637.47 183.807 637.746 183.684C638.022 183.561 638.235 183.387 638.385 183.163C638.536 182.939 638.612 182.677 638.615 182.376C638.612 182.059 638.53 181.779 638.369 181.536C638.208 181.292 637.988 181.101 637.709 180.962C637.433 180.822 637.117 180.753 636.762 180.753C636.404 180.753 636.084 180.822 635.803 180.962C635.524 181.101 635.304 181.292 635.143 181.536C634.984 181.779 634.906 182.059 634.909 182.376C634.906 182.677 634.979 182.939 635.126 183.163C635.277 183.387 635.491 183.561 635.77 183.684C636.049 183.807 636.379 183.868 636.762 183.868ZM636.762 179.884C637.063 179.884 637.329 179.824 637.561 179.703C637.796 179.583 637.981 179.415 638.115 179.199C638.249 178.983 638.317 178.73 638.32 178.441C638.317 178.157 638.25 177.909 638.119 177.699C637.988 177.486 637.806 177.322 637.574 177.207C637.341 177.089 637.071 177.031 636.762 177.031C636.448 177.031 636.173 177.089 635.938 177.207C635.703 177.322 635.521 177.486 635.393 177.699C635.264 177.909 635.202 178.157 635.204 178.441C635.202 178.73 635.266 178.983 635.397 179.199C635.531 179.415 635.715 179.583 635.95 179.703C636.185 179.824 636.456 179.884 636.762 179.884ZM643.859 176.145C644.203 176.148 644.548 176.213 644.892 176.342C645.236 176.47 645.551 176.684 645.835 176.981C646.119 177.277 646.347 177.68 646.519 178.191C646.692 178.702 646.778 179.343 646.778 180.113C646.778 180.859 646.707 181.522 646.564 182.101C646.425 182.678 646.223 183.165 645.958 183.561C645.695 183.957 645.376 184.258 644.999 184.463C644.624 184.668 644.201 184.77 643.728 184.77C643.258 184.77 642.838 184.677 642.469 184.491C642.103 184.303 641.802 184.042 641.567 183.708C641.335 183.372 641.186 182.983 641.121 182.54H642.121C642.211 182.925 642.39 183.244 642.658 183.495C642.928 183.744 643.285 183.868 643.728 183.868C644.375 183.868 644.887 183.585 645.261 183.02C645.638 182.454 645.827 181.655 645.827 180.622H645.761C645.608 180.851 645.426 181.049 645.216 181.216C645.005 181.383 644.772 181.511 644.515 181.601C644.258 181.691 643.985 181.737 643.695 181.737C643.214 181.737 642.773 181.618 642.371 181.38C641.972 181.139 641.652 180.81 641.412 180.392C641.174 179.971 641.055 179.49 641.055 178.949C641.055 178.435 641.17 177.965 641.399 177.539C641.632 177.11 641.957 176.768 642.375 176.514C642.796 176.26 643.291 176.137 643.859 176.145ZM643.859 177.047C643.515 177.047 643.204 177.133 642.928 177.305C642.655 177.475 642.438 177.704 642.277 177.994C642.118 178.281 642.039 178.599 642.039 178.949C642.039 179.299 642.115 179.617 642.268 179.904C642.424 180.188 642.636 180.415 642.904 180.585C643.174 180.751 643.482 180.835 643.826 180.835C644.086 180.835 644.328 180.784 644.552 180.683C644.776 180.579 644.971 180.438 645.138 180.261C645.307 180.08 645.44 179.877 645.536 179.65C645.631 179.42 645.679 179.181 645.679 178.933C645.679 178.605 645.6 178.297 645.441 178.01C645.286 177.723 645.07 177.491 644.794 177.313C644.52 177.136 644.209 177.047 643.859 177.047ZM653.096 183.507L653.03 183.95C652.984 184.262 652.913 184.595 652.817 184.95C652.724 185.306 652.627 185.64 652.526 185.955C652.425 186.269 652.341 186.519 652.276 186.705H651.538C651.573 186.53 651.62 186.299 651.677 186.012C651.735 185.725 651.792 185.404 651.849 185.049C651.91 184.696 651.959 184.336 651.997 183.967L652.046 183.507H653.096ZM657.302 184.77C656.739 184.77 656.241 184.67 655.809 184.471C655.38 184.269 655.046 183.991 654.805 183.639C654.565 183.283 654.446 182.879 654.448 182.425C654.446 182.07 654.515 181.742 654.657 181.441C654.8 181.138 654.994 180.885 655.24 180.683C655.488 180.478 655.766 180.348 656.072 180.294V180.244C655.67 180.141 655.35 179.915 655.113 179.568C654.875 179.218 654.757 178.821 654.76 178.375C654.757 177.949 654.865 177.568 655.084 177.231C655.302 176.895 655.603 176.63 655.986 176.436C656.371 176.242 656.81 176.145 657.302 176.145C657.788 176.145 658.222 176.242 658.605 176.436C658.988 176.63 659.288 176.895 659.507 177.231C659.728 177.568 659.84 177.949 659.843 178.375C659.84 178.821 659.719 179.218 659.478 179.568C659.24 179.915 658.925 180.141 658.531 180.244V180.294C658.835 180.348 659.108 180.478 659.351 180.683C659.594 180.885 659.788 181.138 659.933 181.441C660.078 181.742 660.152 182.07 660.155 182.425C660.152 182.879 660.029 183.283 659.786 183.639C659.545 183.991 659.21 184.269 658.781 184.471C658.355 184.67 657.862 184.77 657.302 184.77ZM657.302 183.868C657.681 183.868 658.009 183.807 658.285 183.684C658.561 183.561 658.775 183.387 658.925 183.163C659.075 182.939 659.152 182.677 659.154 182.376C659.152 182.059 659.07 181.779 658.908 181.536C658.747 181.292 658.527 181.101 658.248 180.962C657.972 180.822 657.657 180.753 657.302 180.753C656.944 180.753 656.624 180.822 656.342 180.962C656.064 181.101 655.844 181.292 655.682 181.536C655.524 181.779 655.446 182.059 655.449 182.376C655.446 182.677 655.518 182.939 655.666 183.163C655.816 183.387 656.031 183.561 656.309 183.684C656.588 183.807 656.919 183.868 657.302 183.868ZM657.302 179.884C657.602 179.884 657.869 179.824 658.101 179.703C658.336 179.583 658.52 179.415 658.654 179.199C658.788 178.983 658.857 178.73 658.859 178.441C658.857 178.157 658.79 177.909 658.658 177.699C658.527 177.486 658.345 177.322 658.113 177.207C657.881 177.089 657.61 177.031 657.302 177.031C656.987 177.031 656.713 177.089 656.478 177.207C656.243 177.322 656.061 177.486 655.932 177.699C655.804 177.909 655.741 178.157 655.744 178.441C655.741 178.73 655.805 178.983 655.936 179.199C656.07 179.415 656.255 179.583 656.49 179.703C656.725 179.824 656.995 179.884 657.302 179.884ZM661.726 184.655V183.917L664.497 180.884C664.822 180.529 665.09 180.22 665.3 179.957C665.511 179.692 665.666 179.444 665.768 179.211C665.871 178.976 665.923 178.73 665.923 178.474C665.923 178.178 665.852 177.923 665.71 177.707C665.571 177.491 665.379 177.324 665.136 177.207C664.893 177.089 664.62 177.031 664.316 177.031C663.994 177.031 663.712 177.098 663.472 177.231C663.234 177.363 663.05 177.547 662.919 177.785C662.79 178.023 662.726 178.301 662.726 178.621H661.758C661.758 178.129 661.872 177.697 662.099 177.326C662.326 176.954 662.634 176.664 663.025 176.457C663.419 176.249 663.86 176.145 664.349 176.145C664.841 176.145 665.277 176.249 665.657 176.457C666.037 176.664 666.335 176.945 666.551 177.297C666.766 177.65 666.874 178.042 666.874 178.474C666.874 178.782 666.818 179.084 666.706 179.38C666.597 179.672 666.406 179.998 666.132 180.359C665.862 180.717 665.486 181.154 665.005 181.671L663.119 183.688V183.753H667.022V184.655H661.726ZM673.421 183.507L673.355 183.95C673.309 184.262 673.238 184.595 673.142 184.95C673.049 185.306 672.952 185.64 672.851 185.955C672.75 186.269 672.667 186.519 672.601 186.705H671.863C671.899 186.53 671.945 186.299 672.003 186.012C672.06 185.725 672.117 185.404 672.175 185.049C672.235 184.696 672.284 184.336 672.322 183.967L672.371 183.507H673.421ZM675 182.934V182.097L678.69 176.26H679.296V177.555H678.886L676.099 181.966V182.032H681.067V182.934H675ZM678.952 184.655V182.679V182.29V176.26H679.919V184.655H678.952ZM682.866 184.655L686.621 177.227V177.162H682.292V176.26H687.67V177.211L683.931 184.655H682.866ZM693.904 183.507L693.838 183.95C693.792 184.262 693.721 184.595 693.625 184.95C693.532 185.306 693.435 185.64 693.334 185.955C693.233 186.269 693.15 186.519 693.084 186.705H692.346C692.382 186.53 692.428 186.299 692.486 186.012C692.543 185.725 692.6 185.404 692.658 185.049C692.718 184.696 692.767 184.336 692.805 183.967L692.855 183.507H693.904ZM698.134 184.77C697.653 184.77 697.22 184.674 696.835 184.483C696.45 184.292 696.141 184.029 695.909 183.696C695.676 183.363 695.549 182.983 695.527 182.556H696.511C696.549 182.936 696.722 183.251 697.028 183.499C697.336 183.745 697.705 183.868 698.134 183.868C698.479 183.868 698.785 183.788 699.053 183.626C699.323 183.465 699.535 183.244 699.688 182.962C699.844 182.678 699.922 182.357 699.922 181.999C699.922 181.633 699.841 181.306 699.68 181.019C699.521 180.73 699.303 180.501 699.024 180.335C698.745 180.168 698.427 180.083 698.069 180.08C697.812 180.078 697.548 180.117 697.278 180.199C697.007 180.279 696.784 180.381 696.61 180.507L695.658 180.392L696.167 176.26H700.528V177.162H697.019L696.724 179.638H696.773C696.946 179.501 697.162 179.388 697.421 179.298C697.681 179.207 697.951 179.162 698.233 179.162C698.747 179.162 699.204 179.285 699.606 179.531C700.011 179.774 700.328 180.108 700.557 180.531C700.789 180.955 700.906 181.439 700.906 181.983C700.906 182.518 700.785 182.996 700.545 183.417C700.307 183.835 699.979 184.166 699.561 184.409C699.143 184.65 698.667 184.77 698.134 184.77ZM705.371 184.77C704.83 184.77 704.347 184.677 703.924 184.491C703.503 184.305 703.168 184.047 702.919 183.717C702.673 183.383 702.539 182.996 702.518 182.556H703.551C703.572 182.827 703.665 183.061 703.829 183.257C703.993 183.451 704.208 183.602 704.473 183.708C704.738 183.815 705.032 183.868 705.354 183.868C705.715 183.868 706.035 183.805 706.314 183.68C706.592 183.554 706.811 183.379 706.969 183.155C707.128 182.931 707.207 182.671 707.207 182.376C707.207 182.067 707.131 181.795 706.978 181.56C706.825 181.323 706.6 181.137 706.305 181.003C706.01 180.869 705.649 180.802 705.223 180.802H704.551V179.9H705.223C705.557 179.9 705.849 179.84 706.1 179.72C706.355 179.599 706.553 179.43 706.695 179.211C706.84 178.993 706.912 178.736 706.912 178.441C706.912 178.157 706.849 177.909 706.723 177.699C706.598 177.488 706.42 177.324 706.191 177.207C705.964 177.089 705.696 177.031 705.387 177.031C705.097 177.031 704.824 177.084 704.567 177.19C704.313 177.294 704.105 177.446 703.944 177.646C703.783 177.842 703.695 178.08 703.682 178.359H702.698C702.714 177.919 702.847 177.533 703.096 177.203C703.344 176.869 703.669 176.61 704.071 176.424C704.476 176.238 704.92 176.145 705.403 176.145C705.923 176.145 706.368 176.25 706.74 176.461C707.112 176.669 707.397 176.943 707.597 177.285C707.796 177.626 707.896 177.995 707.896 178.392C707.896 178.864 707.771 179.267 707.523 179.601C707.277 179.934 706.942 180.165 706.518 180.294V180.359C707.049 180.447 707.463 180.672 707.761 181.036C708.058 181.396 708.207 181.843 708.207 182.376C708.207 182.832 708.083 183.242 707.834 183.606C707.588 183.967 707.252 184.251 706.826 184.459C706.4 184.666 705.915 184.77 705.371 184.77Z" fill="#959BA3"/>
</g>
</g>
<defs>
<filter id="filter0_dd_733_1821" x="70.3444" y="50" width="166.311" height="171.623" filterUnits="userSpaceOnUse" color-interpolation-filters="sRGB">
<feFlood flood-opacity="0" result="BackgroundImageFix"/>
<feColorMatrix in="SourceAlpha" type="matrix" values="0 0 0 0 0 0 0 0 0 0 0 0 0 0 0 0 0 0 127 0" result="hardAlpha"/>
<feMorphology radius="1.77593" operator="erode" in="SourceAlpha" result="effect1_dropShadow_733_1821"/>
<feOffset dy="3.55187"/>
<feGaussianBlur stdDeviation="2.6639"/>
<feColorMatrix type="matrix" values="0 0 0 0 0.0627451 0 0 0 0 0.0941176 0 0 0 0 0.156863 0 0 0 0.03 0"/>
<feBlend mode="normal" in2="BackgroundImageFix" result="effect1_dropShadow_733_1821"/>
<feColorMatrix in="SourceAlpha" type="matrix" values="0 0 0 0 0 0 0 0 0 0 0 0 0 0 0 0 0 0 127 0" result="hardAlpha"/>
<feMorphology radius="3.55187" operator="erode" in="SourceAlpha" result="effect2_dropShadow_733_1821"/>
<feOffset dy="10.6556"/>
<feGaussianBlur stdDeviation="7.10373"/>
<feColorMatrix type="matrix" values="0 0 0 0 0.0627451 0 0 0 0 0.0941176 0 0 0 0 0.156863 0 0 0 0.08 0"/>
<feBlend mode="normal" in2="effect1_dropShadow_733_1821" result="effect2_dropShadow_733_1821"/>
<feBlend mode="normal" in="SourceGraphic" in2="effect2_dropShadow_733_1821" result="shape"/>
</filter>
<filter id="filter1_dd_733_1821" x="236.344" y="50" width="166.311" height="171.623" filterUnits="userSpaceOnUse" color-interpolation-filters="sRGB">
<feFlood flood-opacity="0" result="BackgroundImageFix"/>
<feColorMatrix in="SourceAlpha" type="matrix" values="0 0 0 0 0 0 0 0 0 0 0 0 0 0 0 0 0 0 127 0" result="hardAlpha"/>
<feMorphology radius="1.77593" operator="erode" in="SourceAlpha" result="effect1_dropShadow_733_1821"/>
<feOffset dy="3.55187"/>
<feGaussianBlur stdDeviation="2.6639"/>
<feColorMatrix type="matrix" values="0 0 0 0 0.0627451 0 0 0 0 0.0941176 0 0 0 0 0.156863 0 0 0 0.03 0"/>
<feBlend mode="normal" in2="BackgroundImageFix" result="effect1_dropShadow_733_1821"/>
<feColorMatrix in="SourceAlpha" type="matrix" values="0 0 0 0 0 0 0 0 0 0 0 0 0 0 0 0 0 0 127 0" result="hardAlpha"/>
<feMorphology radius="3.55187" operator="erode" in="SourceAlpha" result="effect2_dropShadow_733_1821"/>
<feOffset dy="10.6556"/>
<feGaussianBlur stdDeviation="7.10373"/>
<feColorMatrix type="matrix" values="0 0 0 0 0.0627451 0 0 0 0 0.0941176 0 0 0 0 0.156863 0 0 0 0.08 0"/>
<feBlend mode="normal" in2="effect1_dropShadow_733_1821" result="effect2_dropShadow_733_1821"/>
<feBlend mode="normal" in="SourceGraphic" in2="effect2_dropShadow_733_1821" result="shape"/>
</filter>
<filter id="filter2_dd_733_1821" x="402.344" y="50" width="166.311" height="171.623" filterUnits="userSpaceOnUse" color-interpolation-filters="sRGB">
<feFlood flood-opacity="0" result="BackgroundImageFix"/>
<feColorMatrix in="SourceAlpha" type="matrix" values="0 0 0 0 0 0 0 0 0 0 0 0 0 0 0 0 0 0 127 0" result="hardAlpha"/>
<feMorphology radius="1.77593" operator="erode" in="SourceAlpha" result="effect1_dropShadow_733_1821"/>
<feOffset dy="3.55187"/>
<feGaussianBlur stdDeviation="2.6639"/>
<feColorMatrix type="matrix" values="0 0 0 0 0.0627451 0 0 0 0 0.0941176 0 0 0 0 0.156863 0 0 0 0.03 0"/>
<feBlend mode="normal" in2="BackgroundImageFix" result="effect1_dropShadow_733_1821"/>
<feColorMatrix in="SourceAlpha" type="matrix" values="0 0 0 0 0 0 0 0 0 0 0 0 0 0 0 0 0 0 127 0" result="hardAlpha"/>
<feMorphology radius="3.55187" operator="erode" in="SourceAlpha" result="effect2_dropShadow_733_1821"/>
<feOffset dy="10.6556"/>
<feGaussianBlur stdDeviation="7.10373"/>
<feColorMatrix type="matrix" values="0 0 0 0 0.0627451 0 0 0 0 0.0941176 0 0 0 0 0.156863 0 0 0 0.08 0"/>
<feBlend mode="normal" in2="effect1_dropShadow_733_1821" result="effect2_dropShadow_733_1821"/>
<feBlend mode="normal" in="SourceGraphic" in2="effect2_dropShadow_733_1821" result="shape"/>
</filter>
<filter id="filter3_dd_733_1821" x="568.344" y="50" width="166.311" height="171.623" filterUnits="userSpaceOnUse" color-interpolation-filters="sRGB">
<feFlood flood-opacity="0" result="BackgroundImageFix"/>
<feColorMatrix in="SourceAlpha" type="matrix" values="0 0 0 0 0 0 0 0 0 0 0 0 0 0 0 0 0 0 127 0" result="hardAlpha"/>
<feMorphology radius="1.77593" operator="erode" in="SourceAlpha" result="effect1_dropShadow_733_1821"/>
<feOffset dy="3.55187"/>
<feGaussianBlur stdDeviation="2.6639"/>
<feColorMatrix type="matrix" values="0 0 0 0 0.0627451 0 0 0 0 0.0941176 0 0 0 0 0.156863 0 0 0 0.03 0"/>
<feBlend mode="normal" in2="BackgroundImageFix" result="effect1_dropShadow_733_1821"/>
<feColorMatrix in="SourceAlpha" type="matrix" values="0 0 0 0 0 0 0 0 0 0 0 0 0 0 0 0 0 0 127 0" result="hardAlpha"/>
<feMorphology radius="3.55187" operator="erode" in="SourceAlpha" result="effect2_dropShadow_733_1821"/>
<feOffset dy="10.6556"/>
<feGaussianBlur stdDeviation="7.10373"/>
<feColorMatrix type="matrix" values="0 0 0 0 0.0627451 0 0 0 0 0.0941176 0 0 0 0 0.156863 0 0 0 0.08 0"/>
<feBlend mode="normal" in2="effect1_dropShadow_733_1821" result="effect2_dropShadow_733_1821"/>
<feBlend mode="normal" in="SourceGraphic" in2="effect2_dropShadow_733_1821" result="shape"/>
</filter>
<clipPath id="clip0_733_1821">
<rect x="81" y="50" width="145" height="150.311" rx="7.10373" fill="white"/>
</clipPath>
<clipPath id="clip1_733_1821">
<rect x="247" y="50" width="145" height="150.311" rx="7.10373" fill="white"/>
</clipPath>
<clipPath id="clip2_733_1821">
<rect x="413" y="50" width="145" height="150.311" rx="7.10373" fill="white"/>
</clipPath>
<clipPath id="clip3_733_1821">
<rect x="579" y="50" width="145" height="150.311" rx="7.10373" fill="white"/>
</clipPath>
</defs>
</svg>
