<svg width="804" height="255" viewBox="0 0 804 255" fill="none" xmlns="http://www.w3.org/2000/svg">
<rect width="804" height="255" fill="#F9FAFB"/>
<g filter="url(#filter0_dd_705_37887)">
<g clip-path="url(#clip0_705_37887)">
<rect x="81" y="50" width="145" height="150.311" rx="7.10373" fill="white"/>
<rect width="73" height="71" transform="translate(81 50)" fill="#0A72BA"/>
<rect width="73" height="71" transform="translate(153 50)" fill="#217CF5"/>
<path d="M92.9973 147.655L97.5078 138.735V138.66H92.291V137.323H99.1223V138.705L94.6269 147.655H92.9973ZM104.252 147.827C103.455 147.823 102.774 147.613 102.209 147.196C101.644 146.779 101.211 146.172 100.912 145.375C100.613 144.578 100.463 143.617 100.463 142.494C100.463 141.374 100.613 140.417 100.912 139.623C101.215 138.829 101.649 138.224 102.214 137.807C102.782 137.39 103.462 137.181 104.252 137.181C105.042 137.181 105.72 137.392 106.285 137.812C106.85 138.229 107.283 138.834 107.582 139.628C107.885 140.419 108.036 141.374 108.036 142.494C108.036 143.621 107.886 144.583 107.587 145.38C107.288 146.174 106.855 146.781 106.29 147.201C105.725 147.618 105.046 147.827 104.252 147.827ZM104.252 146.48C104.952 146.48 105.498 146.138 105.892 145.456C106.289 144.773 106.487 143.786 106.487 142.494C106.487 141.636 106.396 140.911 106.215 140.319C106.036 139.724 105.779 139.273 105.443 138.967C105.11 138.658 104.713 138.503 104.252 138.503C103.556 138.503 103.009 138.846 102.612 139.532C102.215 140.219 102.015 141.206 102.012 142.494C102.012 143.355 102.101 144.083 102.279 144.679C102.461 145.271 102.718 145.72 103.051 146.026C103.384 146.328 103.785 146.48 104.252 146.48ZM113.423 147.827C112.626 147.823 111.945 147.613 111.38 147.196C110.815 146.779 110.382 146.172 110.083 145.375C109.784 144.578 109.634 143.617 109.634 142.494C109.634 141.374 109.784 140.417 110.083 139.623C110.386 138.829 110.82 138.224 111.385 137.807C111.953 137.39 112.633 137.181 113.423 137.181C114.213 137.181 114.891 137.392 115.456 137.812C116.021 138.229 116.454 138.834 116.753 139.628C117.056 140.419 117.207 141.374 117.207 142.494C117.207 143.621 117.057 144.583 116.758 145.38C116.459 146.174 116.026 146.781 115.461 147.201C114.896 147.618 114.217 147.827 113.423 147.827ZM113.423 146.48C114.123 146.48 114.669 146.138 115.063 145.456C115.46 144.773 115.658 143.786 115.658 142.494C115.658 141.636 115.567 140.911 115.386 140.319C115.207 139.724 114.95 139.273 114.614 138.967C114.281 138.658 113.884 138.503 113.423 138.503C112.727 138.503 112.18 138.846 111.783 139.532C111.386 140.219 111.186 141.206 111.183 142.494C111.183 143.355 111.272 144.083 111.45 144.679C111.632 145.271 111.889 145.72 112.222 146.026C112.555 146.328 112.956 146.48 113.423 146.48Z" fill="#1F243D"/>
<path d="M92.6719 166.655V158.26H93.6885V161.998H98.1649V158.26H99.1815V166.655H98.1649V162.9H93.6885V166.655H92.6719ZM103.726 166.786C103.119 166.786 102.596 166.653 102.156 166.385C101.718 166.114 101.381 165.737 101.143 165.253C100.908 164.767 100.791 164.201 100.791 163.556C100.791 162.911 100.908 162.343 101.143 161.851C101.381 161.356 101.711 160.971 102.135 160.695C102.561 160.416 103.059 160.277 103.627 160.277C103.955 160.277 104.279 160.331 104.599 160.441C104.918 160.55 105.21 160.728 105.472 160.974C105.734 161.217 105.943 161.539 106.099 161.941C106.255 162.343 106.333 162.837 106.333 163.425V163.835H101.479V162.999H105.349C105.349 162.643 105.278 162.326 105.136 162.048C104.996 161.769 104.797 161.549 104.537 161.388C104.28 161.226 103.977 161.146 103.627 161.146C103.242 161.146 102.908 161.241 102.627 161.433C102.348 161.621 102.134 161.867 101.983 162.171C101.833 162.474 101.758 162.799 101.758 163.146V163.704C101.758 164.179 101.84 164.582 102.004 164.913C102.171 165.241 102.402 165.491 102.697 165.663C102.992 165.833 103.335 165.917 103.726 165.917C103.98 165.917 104.209 165.882 104.414 165.811C104.622 165.737 104.801 165.628 104.951 165.483C105.102 165.335 105.218 165.152 105.3 164.934L106.234 165.196C106.136 165.513 105.971 165.792 105.738 166.032C105.506 166.27 105.219 166.456 104.877 166.59C104.536 166.721 104.152 166.786 103.726 166.786ZM108.357 160.359L109.865 162.933L111.374 160.359H112.489L110.456 163.507L112.489 166.655H111.374L109.865 164.212L108.357 166.655H107.242L109.242 163.507L107.242 160.359H108.357ZM117.821 166.721C117.619 166.721 117.445 166.648 117.3 166.504C117.156 166.359 117.083 166.185 117.083 165.983C117.083 165.781 117.156 165.607 117.3 165.462C117.445 165.318 117.619 165.245 117.821 165.245C118.023 165.245 118.197 165.318 118.342 165.462C118.486 165.607 118.559 165.781 118.559 165.983C118.559 166.117 118.525 166.24 118.456 166.352C118.391 166.464 118.302 166.554 118.19 166.622C118.081 166.688 117.958 166.721 117.821 166.721ZM117.821 162.048C117.619 162.048 117.445 161.975 117.3 161.83C117.156 161.686 117.083 161.512 117.083 161.31C117.083 161.108 117.156 160.934 117.3 160.789C117.445 160.644 117.619 160.572 117.821 160.572C118.023 160.572 118.197 160.644 118.342 160.789C118.486 160.934 118.559 161.108 118.559 161.31C118.559 161.444 118.525 161.567 118.456 161.679C118.391 161.791 118.302 161.881 118.19 161.949C118.081 162.015 117.958 162.048 117.821 162.048ZM126.673 166.655L128.051 158.26H128.871L127.493 166.655H126.673ZM122.853 164.327L122.984 163.507H129.248L129.117 164.327H122.853ZM123.722 166.655L125.099 158.26H125.919L124.542 166.655H123.722ZM123.345 161.408L123.476 160.588H129.74L129.608 161.408H123.345ZM130.807 166.655V165.917L133.579 162.884C133.904 162.529 134.172 162.22 134.382 161.957C134.592 161.692 134.748 161.444 134.849 161.211C134.953 160.976 135.005 160.73 135.005 160.474C135.005 160.178 134.934 159.923 134.792 159.707C134.653 159.491 134.461 159.324 134.218 159.207C133.975 159.089 133.702 159.031 133.398 159.031C133.076 159.031 132.794 159.098 132.554 159.231C132.316 159.363 132.132 159.547 132 159.785C131.872 160.023 131.808 160.301 131.808 160.621H130.84C130.84 160.129 130.954 159.697 131.181 159.326C131.407 158.954 131.716 158.664 132.107 158.457C132.5 158.249 132.942 158.145 133.431 158.145C133.923 158.145 134.359 158.249 134.739 158.457C135.119 158.664 135.416 158.945 135.632 159.297C135.848 159.65 135.956 160.042 135.956 160.474C135.956 160.782 135.9 161.084 135.788 161.38C135.679 161.672 135.487 161.998 135.214 162.359C134.944 162.717 134.568 163.154 134.087 163.671L132.201 165.688V165.753H136.104V166.655H130.807ZM140.748 158.26V166.655H139.732V159.326H139.682L137.633 160.687V159.654L139.732 158.26H140.748ZM143.425 166.655L147.18 159.227V159.162H142.851V158.26H148.229V159.211L144.491 166.655H143.425ZM156.661 160.883H155.644C155.584 160.591 155.479 160.334 155.328 160.113C155.181 159.891 155 159.706 154.787 159.555C154.577 159.402 154.343 159.288 154.086 159.211C153.829 159.134 153.562 159.096 153.283 159.096C152.774 159.096 152.314 159.225 151.901 159.482C151.491 159.738 151.165 160.117 150.922 160.617C150.681 161.117 150.561 161.731 150.561 162.458C150.561 163.185 150.681 163.798 150.922 164.298C151.165 164.798 151.491 165.177 151.901 165.434C152.314 165.691 152.774 165.819 153.283 165.819C153.562 165.819 153.829 165.781 154.086 165.704C154.343 165.628 154.577 165.514 154.787 165.364C155 165.211 155.181 165.024 155.328 164.802C155.479 164.578 155.584 164.321 155.644 164.032H156.661C156.584 164.461 156.445 164.845 156.242 165.184C156.04 165.523 155.789 165.811 155.488 166.049C155.188 166.284 154.85 166.463 154.476 166.586C154.104 166.709 153.706 166.77 153.283 166.77C152.567 166.77 151.93 166.595 151.373 166.245C150.815 165.896 150.376 165.398 150.057 164.753C149.737 164.108 149.577 163.343 149.577 162.458C149.577 161.572 149.737 160.807 150.057 160.162C150.376 159.517 150.815 159.02 151.373 158.67C151.93 158.32 152.567 158.145 153.283 158.145C153.706 158.145 154.104 158.207 154.476 158.33C154.85 158.453 155.188 158.633 155.488 158.871C155.789 159.106 156.04 159.393 156.242 159.732C156.445 160.068 156.584 160.452 156.661 160.883ZM158.303 166.655V158.26H163.337V159.162H159.32V161.998H162.96V162.9H159.32V166.655H158.303ZM167.554 166.77C167.073 166.77 166.64 166.674 166.255 166.483C165.87 166.292 165.561 166.029 165.329 165.696C165.096 165.363 164.969 164.983 164.947 164.556H165.931C165.969 164.936 166.142 165.251 166.448 165.499C166.756 165.745 167.125 165.868 167.554 165.868C167.899 165.868 168.205 165.788 168.473 165.626C168.743 165.465 168.955 165.244 169.108 164.962C169.264 164.678 169.342 164.357 169.342 163.999C169.342 163.633 169.261 163.306 169.1 163.019C168.941 162.73 168.723 162.501 168.444 162.335C168.165 162.168 167.847 162.083 167.489 162.08C167.232 162.078 166.968 162.117 166.698 162.199C166.427 162.279 166.204 162.381 166.03 162.507L165.078 162.392L165.587 158.26H169.948V159.162H166.439L166.144 161.638H166.193C166.366 161.501 166.582 161.388 166.841 161.298C167.101 161.207 167.371 161.162 167.653 161.162C168.167 161.162 168.624 161.285 169.026 161.531C169.431 161.774 169.748 162.108 169.977 162.531C170.209 162.955 170.326 163.439 170.326 163.983C170.326 164.518 170.205 164.996 169.965 165.417C169.727 165.835 169.399 166.166 168.981 166.409C168.563 166.65 168.087 166.77 167.554 166.77Z" fill="#959BA3"/>
<path d="M99.4275 178.883H98.4109C98.3508 178.591 98.2455 178.334 98.0952 178.113C97.9477 177.891 97.7673 177.706 97.5541 177.555C97.3437 177.402 97.11 177.288 96.8532 177.211C96.5963 177.134 96.3285 177.096 96.0497 177.096C95.5414 177.096 95.0809 177.225 94.6682 177.482C94.2583 177.738 93.9317 178.117 93.6885 178.617C93.448 179.117 93.3278 179.731 93.3278 180.458C93.3278 181.185 93.448 181.798 93.6885 182.298C93.9317 182.798 94.2583 183.177 94.6682 183.434C95.0809 183.691 95.5414 183.819 96.0497 183.819C96.3285 183.819 96.5963 183.781 96.8532 183.704C97.11 183.628 97.3437 183.514 97.5541 183.364C97.7673 183.211 97.9477 183.024 98.0952 182.802C98.2455 182.578 98.3508 182.321 98.4109 182.032H99.4275C99.351 182.461 99.2116 182.845 99.0094 183.184C98.8071 183.523 98.5557 183.811 98.2551 184.049C97.9545 184.284 97.617 184.463 97.2426 184.586C96.8709 184.709 96.4733 184.77 96.0497 184.77C95.3337 184.77 94.6969 184.595 94.1394 184.245C93.5819 183.896 93.1433 183.398 92.8236 182.753C92.5038 182.108 92.344 181.343 92.344 180.458C92.344 179.572 92.5038 178.807 92.8236 178.162C93.1433 177.517 93.5819 177.02 94.1394 176.67C94.6969 176.32 95.3337 176.145 96.0497 176.145C96.4733 176.145 96.8709 176.207 97.2426 176.33C97.617 176.453 97.9545 176.633 98.2551 176.871C98.5557 177.106 98.8071 177.393 99.0094 177.732C99.2116 178.068 99.351 178.452 99.4275 178.883ZM101.07 176.26H102.284L105.137 183.229H105.235L108.088 176.26H109.302V184.655H108.351V178.277H108.269L105.645 184.655H104.727L102.103 178.277H102.021V184.655H101.07V176.26ZM110.619 176.26H111.783L114.111 180.179H114.21L116.538 176.26H117.702L114.669 181.195V184.655H113.652V181.195L110.619 176.26ZM119.017 184.655V176.26H120.034V180.425H120.132L123.903 176.26H125.231L121.706 180.048L125.231 184.655H124.002L121.083 180.753L120.034 181.933V184.655H119.017ZM130.368 183.581C130.166 183.581 129.992 183.509 129.847 183.364C129.702 183.219 129.63 183.046 129.63 182.843C129.63 182.641 129.702 182.468 129.847 182.323C129.992 182.178 130.166 182.106 130.368 182.106C130.57 182.106 130.744 182.178 130.888 182.323C131.033 182.468 131.106 182.641 131.106 182.843C131.106 182.977 131.072 183.1 131.003 183.212C130.938 183.324 130.849 183.415 130.737 183.483C130.627 183.548 130.504 183.581 130.368 183.581ZM130.368 179.334C130.166 179.334 129.992 179.262 129.847 179.117C129.702 178.972 129.63 178.799 129.63 178.597C129.63 178.394 129.702 178.221 129.847 178.076C129.992 177.931 130.166 177.859 130.368 177.859C130.57 177.859 130.744 177.931 130.888 178.076C131.033 178.221 131.106 178.394 131.106 178.597C131.106 178.73 131.072 178.853 131.003 178.965C130.938 179.078 130.849 179.168 130.737 179.236C130.627 179.302 130.504 179.334 130.368 179.334ZM138.761 184.77C138.198 184.77 137.701 184.67 137.269 184.471C136.84 184.269 136.505 183.991 136.265 183.639C136.024 183.283 135.905 182.879 135.908 182.425C135.905 182.07 135.975 181.742 136.117 181.441C136.259 181.138 136.453 180.885 136.699 180.683C136.948 180.478 137.225 180.348 137.531 180.294V180.244C137.13 180.141 136.81 179.915 136.572 179.568C136.334 179.218 136.217 178.821 136.22 178.375C136.217 177.949 136.325 177.568 136.543 177.231C136.762 176.895 137.063 176.63 137.445 176.436C137.831 176.242 138.269 176.145 138.761 176.145C139.248 176.145 139.682 176.242 140.065 176.436C140.447 176.63 140.748 176.895 140.967 177.231C141.188 177.568 141.3 177.949 141.303 178.375C141.3 178.821 141.178 179.218 140.938 179.568C140.7 179.915 140.384 180.141 139.991 180.244V180.294C140.294 180.348 140.568 180.478 140.811 180.683C141.054 180.885 141.248 181.138 141.393 181.441C141.538 181.742 141.611 182.07 141.614 182.425C141.611 182.879 141.488 183.283 141.245 183.639C141.005 183.991 140.67 184.269 140.241 184.471C139.815 184.67 139.321 184.77 138.761 184.77ZM138.761 183.868C139.141 183.868 139.469 183.807 139.745 183.684C140.021 183.561 140.234 183.387 140.384 183.163C140.535 182.939 140.611 182.677 140.614 182.376C140.611 182.059 140.529 181.779 140.368 181.536C140.207 181.292 139.987 181.101 139.708 180.962C139.432 180.822 139.116 180.753 138.761 180.753C138.403 180.753 138.083 180.822 137.802 180.962C137.523 181.101 137.303 181.292 137.142 181.536C136.983 181.779 136.906 182.059 136.908 182.376C136.906 182.677 136.978 182.939 137.125 183.163C137.276 183.387 137.49 183.561 137.769 183.684C138.048 183.807 138.379 183.868 138.761 183.868ZM138.761 179.884C139.062 179.884 139.328 179.824 139.56 179.703C139.795 179.583 139.98 179.415 140.114 179.199C140.248 178.983 140.316 178.73 140.319 178.441C140.316 178.157 140.249 177.909 140.118 177.699C139.987 177.486 139.805 177.322 139.573 177.207C139.34 177.089 139.07 177.031 138.761 177.031C138.447 177.031 138.172 177.089 137.937 177.207C137.702 177.322 137.52 177.486 137.392 177.699C137.264 177.909 137.201 178.157 137.203 178.441C137.201 178.73 137.265 178.983 137.396 179.199C137.53 179.415 137.714 179.583 137.949 179.703C138.184 179.824 138.455 179.884 138.761 179.884ZM143.448 184.655L147.203 177.227V177.162H142.874V176.26H148.252V177.211L144.513 184.655H143.448ZM154.486 183.507L154.42 183.95C154.374 184.262 154.303 184.595 154.207 184.95C154.114 185.306 154.017 185.64 153.916 185.955C153.815 186.269 153.732 186.519 153.666 186.705H152.928C152.964 186.53 153.01 186.299 153.068 186.012C153.125 185.725 153.182 185.404 153.24 185.049C153.3 184.696 153.349 184.336 153.387 183.967L153.437 183.507H154.486ZM158.716 184.77C158.235 184.77 157.802 184.674 157.417 184.483C157.032 184.292 156.723 184.029 156.49 183.696C156.258 183.363 156.131 182.983 156.109 182.556H157.093C157.131 182.936 157.304 183.251 157.61 183.499C157.918 183.745 158.287 183.868 158.716 183.868C159.061 183.868 159.367 183.788 159.635 183.626C159.905 183.465 160.117 183.244 160.27 182.962C160.426 182.678 160.504 182.357 160.504 181.999C160.504 181.633 160.423 181.306 160.262 181.019C160.103 180.73 159.885 180.501 159.606 180.335C159.327 180.168 159.009 180.083 158.651 180.08C158.394 180.078 158.13 180.117 157.86 180.199C157.589 180.279 157.366 180.381 157.191 180.507L156.24 180.392L156.749 176.26H161.11V177.162H157.601L157.306 179.638H157.355C157.528 179.501 157.744 179.388 158.003 179.298C158.263 179.207 158.533 179.162 158.815 179.162C159.329 179.162 159.786 179.285 160.188 179.531C160.593 179.774 160.91 180.108 161.139 180.531C161.371 180.955 161.488 181.439 161.488 181.983C161.488 182.518 161.367 182.996 161.127 183.417C160.889 183.835 160.561 184.166 160.143 184.409C159.725 184.65 159.249 184.77 158.716 184.77ZM163.116 184.655V183.917L165.887 180.884C166.212 180.529 166.48 180.22 166.691 179.957C166.901 179.692 167.057 179.444 167.158 179.211C167.262 178.976 167.314 178.73 167.314 178.474C167.314 178.178 167.243 177.923 167.1 177.707C166.961 177.491 166.77 177.324 166.527 177.207C166.283 177.089 166.01 177.031 165.707 177.031C165.384 177.031 165.103 177.098 164.862 177.231C164.624 177.363 164.44 177.547 164.309 177.785C164.18 178.023 164.116 178.301 164.116 178.621H163.149C163.149 178.129 163.262 177.697 163.489 177.326C163.716 176.954 164.025 176.664 164.415 176.457C164.809 176.249 165.25 176.145 165.739 176.145C166.231 176.145 166.667 176.249 167.047 176.457C167.427 176.664 167.725 176.945 167.941 177.297C168.157 177.65 168.265 178.042 168.265 178.474C168.265 178.782 168.209 179.084 168.097 179.38C167.987 179.672 167.796 179.998 167.523 180.359C167.252 180.717 166.876 181.154 166.395 181.671L164.51 183.688V183.753H168.412V184.655H163.116ZM174.811 183.507L174.746 183.95C174.699 184.262 174.628 184.595 174.532 184.95C174.44 185.306 174.343 185.64 174.241 185.955C174.14 186.269 174.057 186.519 173.991 186.705H173.253C173.289 186.53 173.335 186.299 173.393 186.012C173.45 185.725 173.508 185.404 173.565 185.049C173.625 184.696 173.674 184.336 173.713 183.967L173.762 183.507H174.811ZM179.032 184.77C178.415 184.77 177.889 184.602 177.454 184.266C177.02 183.927 176.688 183.436 176.458 182.794C176.229 182.149 176.114 181.37 176.114 180.458C176.114 179.55 176.229 178.776 176.458 178.133C176.69 177.488 177.024 176.996 177.458 176.658C177.896 176.316 178.42 176.145 179.032 176.145C179.645 176.145 180.168 176.316 180.602 176.658C181.04 176.996 181.373 177.488 181.603 178.133C181.835 178.776 181.951 179.55 181.951 180.458C181.951 181.37 181.836 182.149 181.607 182.794C181.377 183.436 181.045 183.927 180.611 184.266C180.176 184.602 179.65 184.77 179.032 184.77ZM179.032 183.868C179.645 183.868 180.12 183.573 180.459 182.983C180.798 182.392 180.967 181.551 180.967 180.458C180.967 179.731 180.889 179.112 180.734 178.601C180.581 178.09 180.359 177.7 180.07 177.432C179.783 177.165 179.437 177.031 179.032 177.031C178.426 177.031 177.952 177.33 177.61 177.928C177.268 178.524 177.098 179.367 177.098 180.458C177.098 181.185 177.174 181.802 177.327 182.31C177.48 182.819 177.7 183.205 177.987 183.471C178.277 183.736 178.625 183.868 179.032 183.868ZM188.215 183.507L188.149 183.95C188.103 184.262 188.032 184.595 187.936 184.95C187.843 185.306 187.746 185.64 187.645 185.955C187.544 186.269 187.461 186.519 187.395 186.705H186.657C186.693 186.53 186.739 186.299 186.796 186.012C186.854 185.725 186.911 185.404 186.969 185.049C187.029 184.696 187.078 184.336 187.116 183.967L187.165 183.507H188.215ZM195.976 184.77C195.358 184.77 194.832 184.602 194.398 184.266C193.963 183.927 193.631 183.436 193.401 182.794C193.172 182.149 193.057 181.37 193.057 180.458C193.057 179.55 193.172 178.776 193.401 178.133C193.634 177.488 193.967 176.996 194.402 176.658C194.839 176.316 195.364 176.145 195.976 176.145C196.588 176.145 197.111 176.316 197.546 176.658C197.983 176.996 198.316 177.488 198.546 178.133C198.778 178.776 198.894 179.55 198.894 180.458C198.894 181.37 198.78 182.149 198.55 182.794C198.321 183.436 197.989 183.927 197.554 184.266C197.119 184.602 196.593 184.77 195.976 184.77ZM195.976 183.868C196.588 183.868 197.063 183.573 197.402 182.983C197.741 182.392 197.911 181.551 197.911 180.458C197.911 179.731 197.833 179.112 197.677 178.601C197.524 178.09 197.303 177.7 197.013 177.432C196.726 177.165 196.38 177.031 195.976 177.031C195.369 177.031 194.895 177.33 194.553 177.928C194.212 178.524 194.041 179.367 194.041 180.458C194.041 181.185 194.117 181.802 194.27 182.31C194.424 182.819 194.644 183.205 194.93 183.471C195.22 183.736 195.569 183.868 195.976 183.868Z" fill="#959BA3"/>
</g>
</g>
<g filter="url(#filter1_dd_705_37887)">
<g clip-path="url(#clip1_705_37887)">
<rect x="247" y="50" width="145" height="150.311" rx="7.10373" fill="white"/>
<rect width="73" height="71" transform="translate(247 50)" fill="#28316E"/>
<rect width="73" height="71" transform="translate(319 50)" fill="#022276"/>
<path d="M262.085 137.181C262.546 137.185 263 137.269 263.447 137.434C263.895 137.598 264.298 137.867 264.658 138.241C265.021 138.614 265.311 139.119 265.526 139.754C265.745 140.387 265.856 141.174 265.859 142.116C265.859 143.02 265.768 143.826 265.586 144.532C265.405 145.235 265.144 145.829 264.804 146.313C264.468 146.798 264.059 147.166 263.578 147.418C263.097 147.67 262.556 147.797 261.954 147.797C261.338 147.797 260.792 147.675 260.314 147.433C259.837 147.191 259.448 146.856 259.149 146.429C258.849 145.999 258.663 145.504 258.589 144.946H260.127C260.228 145.39 260.434 145.75 260.743 146.026C261.056 146.298 261.459 146.434 261.954 146.434C262.711 146.434 263.301 146.105 263.725 145.445C264.149 144.783 264.362 143.858 264.365 142.671H264.285C264.11 142.96 263.891 143.209 263.629 143.417C263.37 143.626 263.079 143.787 262.756 143.902C262.433 144.016 262.088 144.073 261.722 144.073C261.126 144.073 260.585 143.927 260.097 143.634C259.609 143.342 259.221 142.94 258.932 142.428C258.642 141.917 258.498 141.334 258.498 140.678C258.498 140.025 258.646 139.433 258.942 138.902C259.241 138.37 259.658 137.95 260.193 137.64C260.731 137.328 261.362 137.175 262.085 137.181ZM262.09 138.493C261.697 138.493 261.342 138.591 261.026 138.786C260.713 138.977 260.465 139.238 260.284 139.568C260.102 139.894 260.011 140.257 260.011 140.657C260.011 141.058 260.099 141.421 260.274 141.747C260.452 142.07 260.694 142.327 261 142.519C261.31 142.708 261.663 142.802 262.06 142.802C262.356 142.802 262.632 142.745 262.887 142.63C263.143 142.516 263.367 142.358 263.558 142.156C263.75 141.951 263.9 141.719 264.007 141.46C264.115 141.201 264.169 140.928 264.169 140.642C264.169 140.262 264.078 139.909 263.896 139.583C263.718 139.257 263.472 138.994 263.16 138.796C262.847 138.594 262.49 138.493 262.09 138.493ZM271.279 147.827C270.482 147.823 269.8 147.613 269.235 147.196C268.67 146.779 268.238 146.172 267.939 145.375C267.639 144.578 267.49 143.617 267.49 142.494C267.49 141.374 267.639 140.417 267.939 139.623C268.242 138.829 268.675 138.224 269.24 137.807C269.809 137.39 270.488 137.181 271.279 137.181C272.069 137.181 272.747 137.392 273.312 137.812C273.877 138.229 274.309 138.834 274.609 139.628C274.911 140.419 275.063 141.374 275.063 142.494C275.063 143.621 274.913 144.583 274.614 145.38C274.314 146.174 273.882 146.781 273.317 147.201C272.752 147.618 272.073 147.827 271.279 147.827ZM271.279 146.48C271.978 146.48 272.525 146.138 272.918 145.456C273.315 144.773 273.514 143.786 273.514 142.494C273.514 141.636 273.423 140.911 273.241 140.319C273.063 139.724 272.806 139.273 272.469 138.967C272.136 138.658 271.74 138.503 271.279 138.503C270.583 138.503 270.036 138.846 269.639 139.532C269.242 140.219 269.042 141.206 269.039 142.494C269.039 143.355 269.128 144.083 269.306 144.679C269.488 145.271 269.745 145.72 270.078 146.026C270.411 146.328 270.811 146.48 271.279 146.48ZM280.45 147.827C279.653 147.823 278.972 147.613 278.406 147.196C277.841 146.779 277.409 146.172 277.11 145.375C276.81 144.578 276.661 143.617 276.661 142.494C276.661 141.374 276.81 140.417 277.11 139.623C277.413 138.829 277.846 138.224 278.411 137.807C278.98 137.39 279.659 137.181 280.45 137.181C281.24 137.181 281.918 137.392 282.483 137.812C283.048 138.229 283.48 138.834 283.78 139.628C284.082 140.419 284.234 141.374 284.234 142.494C284.234 143.621 284.084 144.583 283.785 145.38C283.485 146.174 283.053 146.781 282.488 147.201C281.923 147.618 281.244 147.827 280.45 147.827ZM280.45 146.48C281.149 146.48 281.696 146.138 282.089 145.456C282.486 144.773 282.685 143.786 282.685 142.494C282.685 141.636 282.594 140.911 282.412 140.319C282.234 139.724 281.977 139.273 281.64 138.967C281.307 138.658 280.911 138.503 280.45 138.503C279.754 138.503 279.207 138.846 278.81 139.532C278.413 140.219 278.213 141.206 278.21 142.494C278.21 143.355 278.299 144.083 278.477 144.679C278.659 145.271 278.916 145.72 279.249 146.026C279.582 146.328 279.982 146.48 280.45 146.48Z" fill="#1F243D"/>
<path d="M258.672 166.655V158.26H259.689V161.998H264.165V158.26H265.182V166.655H264.165V162.9H259.689V166.655H258.672ZM269.726 166.786C269.119 166.786 268.596 166.653 268.156 166.385C267.718 166.114 267.381 165.737 267.143 165.253C266.908 164.767 266.791 164.201 266.791 163.556C266.791 162.911 266.908 162.343 267.143 161.851C267.381 161.356 267.711 160.971 268.135 160.695C268.561 160.416 269.059 160.277 269.627 160.277C269.955 160.277 270.279 160.331 270.599 160.441C270.918 160.55 271.21 160.728 271.472 160.974C271.734 161.217 271.943 161.539 272.099 161.941C272.255 162.343 272.333 162.837 272.333 163.425V163.835H267.479V162.999H271.349C271.349 162.643 271.278 162.326 271.136 162.048C270.996 161.769 270.797 161.549 270.537 161.388C270.28 161.226 269.977 161.146 269.627 161.146C269.242 161.146 268.908 161.241 268.627 161.433C268.348 161.621 268.134 161.867 267.983 162.171C267.833 162.474 267.758 162.799 267.758 163.146V163.704C267.758 164.179 267.84 164.582 268.004 164.913C268.171 165.241 268.402 165.491 268.697 165.663C268.992 165.833 269.335 165.917 269.726 165.917C269.98 165.917 270.209 165.882 270.414 165.811C270.622 165.737 270.801 165.628 270.951 165.483C271.102 165.335 271.218 165.152 271.3 164.934L272.234 165.196C272.136 165.513 271.971 165.792 271.738 166.032C271.506 166.27 271.219 166.456 270.877 166.59C270.536 166.721 270.152 166.786 269.726 166.786ZM274.357 160.359L275.865 162.933L277.374 160.359H278.489L276.456 163.507L278.489 166.655H277.374L275.865 164.212L274.357 166.655H273.242L275.242 163.507L273.242 160.359H274.357ZM283.821 166.721C283.619 166.721 283.445 166.648 283.3 166.504C283.156 166.359 283.083 166.185 283.083 165.983C283.083 165.781 283.156 165.607 283.3 165.462C283.445 165.318 283.619 165.245 283.821 165.245C284.023 165.245 284.197 165.318 284.342 165.462C284.486 165.607 284.559 165.781 284.559 165.983C284.559 166.117 284.525 166.24 284.456 166.352C284.391 166.464 284.302 166.554 284.19 166.622C284.081 166.688 283.958 166.721 283.821 166.721ZM283.821 162.048C283.619 162.048 283.445 161.975 283.3 161.83C283.156 161.686 283.083 161.512 283.083 161.31C283.083 161.108 283.156 160.934 283.3 160.789C283.445 160.644 283.619 160.572 283.821 160.572C284.023 160.572 284.197 160.644 284.342 160.789C284.486 160.934 284.559 161.108 284.559 161.31C284.559 161.444 284.525 161.567 284.456 161.679C284.391 161.791 284.302 161.881 284.19 161.949C284.081 162.015 283.958 162.048 283.821 162.048ZM292.673 166.655L294.051 158.26H294.871L293.493 166.655H292.673ZM288.853 164.327L288.984 163.507H295.248L295.117 164.327H288.853ZM289.722 166.655L291.099 158.26H291.919L290.542 166.655H289.722ZM289.345 161.408L289.476 160.588H295.74L295.608 161.408H289.345ZM299.546 166.77C298.928 166.77 298.402 166.602 297.968 166.266C297.533 165.927 297.201 165.436 296.971 164.794C296.742 164.149 296.627 163.37 296.627 162.458C296.627 161.55 296.742 160.776 296.971 160.133C297.204 159.488 297.537 158.996 297.972 158.658C298.409 158.316 298.934 158.145 299.546 158.145C300.158 158.145 300.681 158.316 301.116 158.658C301.553 158.996 301.886 159.488 302.116 160.133C302.348 160.776 302.464 161.55 302.464 162.458C302.464 163.37 302.35 164.149 302.12 164.794C301.891 165.436 301.559 165.927 301.124 166.266C300.69 166.602 300.163 166.77 299.546 166.77ZM299.546 165.868C300.158 165.868 300.633 165.573 300.972 164.983C301.311 164.392 301.481 163.551 301.481 162.458C301.481 161.731 301.403 161.112 301.247 160.601C301.094 160.09 300.873 159.7 300.583 159.432C300.296 159.165 299.95 159.031 299.546 159.031C298.939 159.031 298.465 159.33 298.123 159.928C297.782 160.524 297.611 161.367 297.611 162.458C297.611 163.185 297.687 163.802 297.841 164.31C297.994 164.819 298.214 165.205 298.5 165.471C298.79 165.736 299.139 165.868 299.546 165.868ZM304.022 166.655V165.917L306.793 162.884C307.119 162.529 307.386 162.22 307.597 161.957C307.807 161.692 307.963 161.444 308.064 161.211C308.168 160.976 308.22 160.73 308.22 160.474C308.22 160.178 308.149 159.923 308.007 159.707C307.867 159.491 307.676 159.324 307.433 159.207C307.19 159.089 306.916 159.031 306.613 159.031C306.29 159.031 306.009 159.098 305.769 159.231C305.531 159.363 305.346 159.547 305.215 159.785C305.087 160.023 305.022 160.301 305.022 160.621H304.055C304.055 160.129 304.168 159.697 304.395 159.326C304.622 158.954 304.931 158.664 305.322 158.457C305.715 158.249 306.157 158.145 306.646 158.145C307.138 158.145 307.574 158.249 307.953 158.457C308.333 158.664 308.631 158.945 308.847 159.297C309.063 159.65 309.171 160.042 309.171 160.474C309.171 160.782 309.115 161.084 309.003 161.38C308.894 161.672 308.702 161.998 308.429 162.359C308.158 162.717 307.783 163.154 307.302 163.671L305.416 165.688V165.753H309.318V166.655H304.022ZM311.011 166.655V165.917L313.783 162.884C314.108 162.529 314.376 162.22 314.586 161.957C314.796 161.692 314.952 161.444 315.053 161.211C315.157 160.976 315.209 160.73 315.209 160.474C315.209 160.178 315.138 159.923 314.996 159.707C314.857 159.491 314.665 159.324 314.422 159.207C314.179 159.089 313.906 159.031 313.602 159.031C313.28 159.031 312.998 159.098 312.758 159.231C312.52 159.363 312.336 159.547 312.204 159.785C312.076 160.023 312.012 160.301 312.012 160.621H311.044C311.044 160.129 311.158 159.697 311.385 159.326C311.611 158.954 311.92 158.664 312.311 158.457C312.704 158.249 313.146 158.145 313.635 158.145C314.127 158.145 314.563 158.249 314.943 158.457C315.323 158.664 315.62 158.945 315.836 159.297C316.052 159.65 316.16 160.042 316.16 160.474C316.16 160.782 316.104 161.084 315.992 161.38C315.883 161.672 315.691 161.998 315.418 162.359C315.148 162.717 314.772 163.154 314.291 163.671L312.405 165.688V165.753H316.308V166.655H311.011ZM318.001 166.655V165.917L320.772 162.884C321.097 162.529 321.365 162.22 321.575 161.957C321.786 161.692 321.942 161.444 322.043 161.211C322.146 160.976 322.198 160.73 322.198 160.474C322.198 160.178 322.127 159.923 321.985 159.707C321.846 159.491 321.655 159.324 321.411 159.207C321.168 159.089 320.895 159.031 320.591 159.031C320.269 159.031 319.988 159.098 319.747 159.231C319.509 159.363 319.325 159.547 319.194 159.785C319.065 160.023 319.001 160.301 319.001 160.621H318.034C318.034 160.129 318.147 159.697 318.374 159.326C318.601 158.954 318.909 158.664 319.3 158.457C319.694 158.249 320.135 158.145 320.624 158.145C321.116 158.145 321.552 158.249 321.932 158.457C322.312 158.664 322.61 158.945 322.826 159.297C323.041 159.65 323.149 160.042 323.149 160.474C323.149 160.782 323.093 161.084 322.981 161.38C322.872 161.672 322.681 161.998 322.407 162.359C322.137 162.717 321.761 163.154 321.28 163.671L319.395 165.688V165.753H323.297V166.655H318.001ZM325.252 166.655L329.007 159.227V159.162H324.678V158.26H330.057V159.211L326.318 166.655H325.252ZM334.192 166.77C333.848 166.765 333.503 166.699 333.159 166.573C332.815 166.448 332.5 166.236 332.216 165.938C331.932 165.637 331.704 165.231 331.531 164.72C331.359 164.207 331.273 163.562 331.273 162.786C331.273 162.042 331.343 161.384 331.482 160.81C331.622 160.233 331.824 159.748 332.089 159.354C332.354 158.958 332.674 158.658 333.048 158.453C333.425 158.248 333.85 158.145 334.323 158.145C334.793 158.145 335.211 158.239 335.577 158.428C335.946 158.614 336.247 158.873 336.479 159.207C336.712 159.54 336.862 159.924 336.93 160.359H335.93C335.837 159.982 335.657 159.669 335.389 159.42C335.121 159.171 334.766 159.047 334.323 159.047C333.673 159.047 333.16 159.33 332.786 159.896C332.414 160.461 332.227 161.255 332.224 162.277H332.29C332.443 162.045 332.625 161.847 332.835 161.683C333.048 161.516 333.283 161.388 333.54 161.298C333.797 161.207 334.069 161.162 334.356 161.162C334.837 161.162 335.277 161.282 335.676 161.523C336.075 161.761 336.395 162.09 336.635 162.511C336.876 162.929 336.996 163.409 336.996 163.95C336.996 164.469 336.88 164.945 336.647 165.376C336.415 165.805 336.088 166.147 335.668 166.401C335.249 166.653 334.758 166.776 334.192 166.77ZM334.192 165.868C334.536 165.868 334.845 165.782 335.118 165.61C335.394 165.438 335.612 165.207 335.77 164.917C335.931 164.627 336.012 164.305 336.012 163.95C336.012 163.603 335.934 163.287 335.778 163.003C335.625 162.716 335.413 162.488 335.143 162.318C334.875 162.149 334.569 162.064 334.225 162.064C333.965 162.064 333.723 162.116 333.499 162.22C333.275 162.321 333.078 162.46 332.909 162.638C332.742 162.816 332.611 163.019 332.515 163.249C332.42 163.476 332.372 163.715 332.372 163.966C332.372 164.3 332.45 164.611 332.605 164.901C332.764 165.19 332.98 165.424 333.253 165.602C333.529 165.779 333.842 165.868 334.192 165.868Z" fill="#959BA3"/>
<path d="M265.428 178.883H264.411C264.351 178.591 264.246 178.334 264.095 178.113C263.948 177.891 263.767 177.706 263.554 177.555C263.344 177.402 263.11 177.288 262.853 177.211C262.596 177.134 262.328 177.096 262.05 177.096C261.541 177.096 261.081 177.225 260.668 177.482C260.258 177.738 259.932 178.117 259.689 178.617C259.448 179.117 259.328 179.731 259.328 180.458C259.328 181.185 259.448 181.798 259.689 182.298C259.932 182.798 260.258 183.177 260.668 183.434C261.081 183.691 261.541 183.819 262.05 183.819C262.328 183.819 262.596 183.781 262.853 183.704C263.11 183.628 263.344 183.514 263.554 183.364C263.767 183.211 263.948 183.024 264.095 182.802C264.246 182.578 264.351 182.321 264.411 182.032H265.428C265.351 182.461 265.212 182.845 265.009 183.184C264.807 183.523 264.556 183.811 264.255 184.049C263.954 184.284 263.617 184.463 263.243 184.586C262.871 184.709 262.473 184.77 262.05 184.77C261.334 184.77 260.697 184.595 260.139 184.245C259.582 183.896 259.143 183.398 258.824 182.753C258.504 182.108 258.344 181.343 258.344 180.458C258.344 179.572 258.504 178.807 258.824 178.162C259.143 177.517 259.582 177.02 260.139 176.67C260.697 176.32 261.334 176.145 262.05 176.145C262.473 176.145 262.871 176.207 263.243 176.33C263.617 176.453 263.954 176.633 264.255 176.871C264.556 177.106 264.807 177.393 265.009 177.732C265.212 178.068 265.351 178.452 265.428 178.883ZM267.07 176.26H268.284L271.137 183.229H271.235L274.088 176.26H275.302V184.655H274.351V178.277H274.269L271.645 184.655H270.727L268.103 178.277H268.021V184.655H267.07V176.26ZM276.619 176.26H277.783L280.111 180.179H280.21L282.538 176.26H283.702L280.669 181.195V184.655H279.652V181.195L276.619 176.26ZM285.017 184.655V176.26H286.034V180.425H286.132L289.903 176.26H291.231L287.706 180.048L291.231 184.655H290.002L287.083 180.753L286.034 181.933V184.655H285.017ZM296.368 183.581C296.166 183.581 295.992 183.509 295.847 183.364C295.702 183.219 295.63 183.046 295.63 182.843C295.63 182.641 295.702 182.468 295.847 182.323C295.992 182.178 296.166 182.106 296.368 182.106C296.57 182.106 296.744 182.178 296.888 182.323C297.033 182.468 297.106 182.641 297.106 182.843C297.106 182.977 297.072 183.1 297.003 183.212C296.938 183.324 296.849 183.415 296.737 183.483C296.627 183.548 296.504 183.581 296.368 183.581ZM296.368 179.334C296.166 179.334 295.992 179.262 295.847 179.117C295.702 178.972 295.63 178.799 295.63 178.597C295.63 178.394 295.702 178.221 295.847 178.076C295.992 177.931 296.166 177.859 296.368 177.859C296.57 177.859 296.744 177.931 296.888 178.076C297.033 178.221 297.106 178.394 297.106 178.597C297.106 178.73 297.072 178.853 297.003 178.965C296.938 179.078 296.849 179.168 296.737 179.236C296.627 179.302 296.504 179.334 296.368 179.334ZM305.023 176.26V184.655H304.007V177.326H303.958L301.908 178.687V177.654L304.007 176.26H305.023ZM310.176 184.77C309.559 184.77 309.033 184.602 308.598 184.266C308.164 183.927 307.831 183.436 307.602 182.794C307.372 182.149 307.258 181.37 307.258 180.458C307.258 179.55 307.372 178.776 307.602 178.133C307.834 177.488 308.168 176.996 308.602 176.658C309.039 176.316 309.564 176.145 310.176 176.145C310.788 176.145 311.312 176.316 311.746 176.658C312.184 176.996 312.517 177.488 312.747 178.133C312.979 178.776 313.095 179.55 313.095 180.458C313.095 181.37 312.98 182.149 312.751 182.794C312.521 183.436 312.189 183.927 311.754 184.266C311.32 184.602 310.794 184.77 310.176 184.77ZM310.176 183.868C310.788 183.868 311.264 183.573 311.603 182.983C311.942 182.392 312.111 181.551 312.111 180.458C312.111 179.731 312.033 179.112 311.877 178.601C311.724 178.09 311.503 177.7 311.213 177.432C310.926 177.165 310.581 177.031 310.176 177.031C309.57 177.031 309.095 177.33 308.754 177.928C308.412 178.524 308.241 179.367 308.241 180.458C308.241 181.185 308.318 181.802 308.471 182.31C308.624 182.819 308.844 183.205 309.131 183.471C309.421 183.736 309.769 183.868 310.176 183.868ZM317.391 184.77C316.773 184.77 316.247 184.602 315.813 184.266C315.378 183.927 315.046 183.436 314.817 182.794C314.587 182.149 314.472 181.37 314.472 180.458C314.472 179.55 314.587 178.776 314.817 178.133C315.049 177.488 315.382 176.996 315.817 176.658C316.254 176.316 316.779 176.145 317.391 176.145C318.003 176.145 318.526 176.316 318.961 176.658C319.398 176.996 319.732 177.488 319.961 178.133C320.194 178.776 320.31 179.55 320.31 180.458C320.31 181.37 320.195 182.149 319.965 182.794C319.736 183.436 319.404 183.927 318.969 184.266C318.535 184.602 318.009 184.77 317.391 184.77ZM317.391 183.868C318.003 183.868 318.479 183.573 318.818 182.983C319.156 182.392 319.326 181.551 319.326 180.458C319.326 179.731 319.248 179.112 319.092 178.601C318.939 178.09 318.718 177.7 318.428 177.432C318.141 177.165 317.795 177.031 317.391 177.031C316.784 177.031 316.31 177.33 315.969 177.928C315.627 178.524 315.456 179.367 315.456 180.458C315.456 181.185 315.533 181.802 315.686 182.31C315.839 182.819 316.059 183.205 316.346 183.471C316.635 183.736 316.984 183.868 317.391 183.868ZM326.573 183.507L326.508 183.95C326.461 184.262 326.39 184.595 326.295 184.95C326.202 185.306 326.105 185.64 326.004 185.955C325.902 186.269 325.819 186.519 325.754 186.705H325.016C325.051 186.53 325.098 186.299 325.155 186.012C325.212 185.725 325.27 185.404 325.327 185.049C325.387 184.696 325.437 184.336 325.475 183.967L325.524 183.507H326.573ZM330.943 176.145C331.288 176.148 331.632 176.213 331.976 176.342C332.321 176.47 332.635 176.684 332.919 176.981C333.203 177.277 333.431 177.68 333.604 178.191C333.776 178.702 333.862 179.343 333.862 180.113C333.862 180.859 333.791 181.522 333.649 182.101C333.509 182.678 333.307 183.165 333.042 183.561C332.78 183.957 332.46 184.258 332.083 184.463C331.708 184.668 331.285 184.77 330.812 184.77C330.342 184.77 329.922 184.677 329.554 184.491C329.187 184.303 328.887 184.042 328.652 183.708C328.419 183.372 328.27 182.983 328.205 182.54H329.205C329.295 182.925 329.474 183.244 329.742 183.495C330.013 183.744 330.369 183.868 330.812 183.868C331.46 183.868 331.971 183.585 332.345 183.02C332.722 182.454 332.911 181.655 332.911 180.622H332.845C332.692 180.851 332.51 181.049 332.3 181.216C332.09 181.383 331.856 181.511 331.599 181.601C331.342 181.691 331.069 181.737 330.779 181.737C330.298 181.737 329.857 181.618 329.455 181.38C329.056 181.139 328.736 180.81 328.496 180.392C328.258 179.971 328.139 179.49 328.139 178.949C328.139 178.435 328.254 177.965 328.484 177.539C328.716 177.11 329.041 176.768 329.459 176.514C329.88 176.26 330.375 176.137 330.943 176.145ZM330.943 177.047C330.599 177.047 330.289 177.133 330.013 177.305C329.739 177.475 329.522 177.704 329.361 177.994C329.202 178.281 329.123 178.599 329.123 178.949C329.123 179.299 329.2 179.617 329.353 179.904C329.508 180.188 329.72 180.415 329.988 180.585C330.259 180.751 330.566 180.835 330.91 180.835C331.17 180.835 331.412 180.784 331.636 180.683C331.86 180.579 332.055 180.438 332.222 180.261C332.392 180.08 332.524 179.877 332.62 179.65C332.715 179.42 332.763 179.181 332.763 178.933C332.763 178.605 332.684 178.297 332.526 178.01C332.37 177.723 332.154 177.491 331.878 177.313C331.605 177.136 331.293 177.047 330.943 177.047ZM335.277 182.934V182.097L338.967 176.26H339.573V177.555H339.163L336.376 181.966V182.032H341.344V182.934H335.277ZM339.229 184.655V182.679V182.29V176.26H340.196V184.655H339.229ZM347.586 183.507L347.521 183.95C347.474 184.262 347.403 184.595 347.308 184.95C347.215 185.306 347.118 185.64 347.016 185.955C346.915 186.269 346.832 186.519 346.766 186.705H346.029C346.064 186.53 346.111 186.299 346.168 186.012C346.225 185.725 346.283 185.404 346.34 185.049C346.4 184.696 346.449 184.336 346.488 183.967L346.537 183.507H347.586ZM349.362 184.655V183.917L352.133 180.884C352.459 180.529 352.726 180.22 352.937 179.957C353.147 179.692 353.303 179.444 353.404 179.211C353.508 178.976 353.56 178.73 353.56 178.474C353.56 178.178 353.489 177.923 353.347 177.707C353.207 177.491 353.016 177.324 352.773 177.207C352.53 177.089 352.256 177.031 351.953 177.031C351.631 177.031 351.349 177.098 351.109 177.231C350.871 177.363 350.686 177.547 350.555 177.785C350.427 178.023 350.363 178.301 350.363 178.621H349.395C349.395 178.129 349.508 177.697 349.735 177.326C349.962 176.954 350.271 176.664 350.662 176.457C351.055 176.249 351.497 176.145 351.986 176.145C352.478 176.145 352.914 176.249 353.293 176.457C353.673 176.664 353.971 176.945 354.187 177.297C354.403 177.65 354.511 178.042 354.511 178.474C354.511 178.782 354.455 179.084 354.343 179.38C354.234 179.672 354.042 179.998 353.769 180.359C353.498 180.717 353.123 181.154 352.642 181.671L350.756 183.688V183.753H354.659V184.655H349.362ZM359.139 184.77C358.795 184.765 358.45 184.699 358.106 184.573C357.762 184.448 357.447 184.236 357.163 183.938C356.879 183.637 356.651 183.231 356.479 182.72C356.306 182.207 356.22 181.562 356.22 180.786C356.22 180.042 356.29 179.384 356.429 178.81C356.569 178.233 356.771 177.748 357.036 177.354C357.301 176.958 357.621 176.658 357.995 176.453C358.373 176.248 358.797 176.145 359.27 176.145C359.74 176.145 360.158 176.239 360.525 176.428C360.894 176.614 361.194 176.873 361.426 177.207C361.659 177.54 361.809 177.924 361.877 178.359H360.877C360.784 177.982 360.604 177.669 360.336 177.42C360.068 177.171 359.713 177.047 359.27 177.047C358.62 177.047 358.107 177.33 357.733 177.896C357.361 178.461 357.174 179.255 357.171 180.277H357.237C357.39 180.045 357.572 179.847 357.782 179.683C357.995 179.516 358.23 179.388 358.487 179.298C358.744 179.207 359.016 179.162 359.303 179.162C359.784 179.162 360.224 179.282 360.623 179.523C361.022 179.761 361.342 180.09 361.582 180.511C361.823 180.929 361.943 181.409 361.943 181.95C361.943 182.469 361.827 182.945 361.595 183.376C361.362 183.805 361.036 184.147 360.615 184.401C360.197 184.653 359.705 184.776 359.139 184.77ZM359.139 183.868C359.483 183.868 359.792 183.782 360.066 183.61C360.342 183.438 360.559 183.207 360.717 182.917C360.879 182.627 360.959 182.305 360.959 181.95C360.959 181.603 360.881 181.287 360.725 181.003C360.572 180.716 360.361 180.488 360.09 180.318C359.822 180.149 359.516 180.064 359.172 180.064C358.912 180.064 358.67 180.116 358.446 180.22C358.222 180.321 358.025 180.46 357.856 180.638C357.689 180.816 357.558 181.019 357.462 181.249C357.367 181.476 357.319 181.715 357.319 181.966C357.319 182.3 357.397 182.611 357.553 182.901C357.711 183.19 357.927 183.424 358.2 183.602C358.476 183.779 358.789 183.868 359.139 183.868ZM368.261 183.507L368.195 183.95C368.149 184.262 368.078 184.595 367.982 184.95C367.889 185.306 367.792 185.64 367.691 185.955C367.59 186.269 367.507 186.519 367.441 186.705H366.703C366.739 186.53 366.785 186.299 366.843 186.012C366.9 185.725 366.957 185.404 367.015 185.049C367.075 184.696 367.124 184.336 367.162 183.967L367.212 183.507H368.261ZM371.985 176.26V184.655H370.969V177.326H370.919L368.87 178.687V177.654L370.969 176.26H371.985ZM374.203 182.934V182.097L377.892 176.26H378.499V177.555H378.089L375.301 181.966V182.032H380.27V182.934H374.203ZM378.155 184.655V182.679V182.29V176.26H379.122V184.655H378.155Z" fill="#959BA3"/>
</g>
</g>
<g filter="url(#filter2_dd_705_37887)">
<g clip-path="url(#clip2_705_37887)">
<rect x="413" y="50" width="145" height="150.311" rx="7.10373" fill="white"/>
<mask id="path-10-inside-1_705_37887" fill="white">
<path d="M413 50H486V121H413V50Z"/>
</mask>
<path d="M413 50H486V121H413V50Z" fill="white"/>
<path d="M486 120H413V122H486V120Z" fill="#E3E3E3" mask="url(#path-10-inside-1_705_37887)"/>
<mask id="path-12-inside-2_705_37887" fill="white">
<path d="M485 50H558V121H485V50Z"/>
</mask>
<path d="M485 50H558V121H485V50Z" fill="white"/>
<path d="M485 121H484V122H485V121ZM558 120H485V122H558V120ZM486 121V50H484V121H486Z" fill="#E3E3E3" mask="url(#path-12-inside-2_705_37887)"/>
<path d="M428.246 147.827C427.449 147.823 426.768 147.613 426.203 147.196C425.638 146.779 425.206 146.172 424.906 145.375C424.607 144.578 424.457 143.617 424.457 142.494C424.457 141.374 424.607 140.417 424.906 139.623C425.209 138.829 425.643 138.224 426.208 137.807C426.777 137.39 427.456 137.181 428.246 137.181C429.037 137.181 429.715 137.392 430.28 137.812C430.845 138.229 431.277 138.834 431.576 139.628C431.879 140.419 432.03 141.374 432.03 142.494C432.03 143.621 431.881 144.583 431.581 145.38C431.282 146.174 430.85 146.781 430.285 147.201C429.72 147.618 429.04 147.827 428.246 147.827ZM428.246 146.48C428.946 146.48 429.493 146.138 429.886 145.456C430.283 144.773 430.482 143.786 430.482 142.494C430.482 141.636 430.391 140.911 430.209 140.319C430.031 139.724 429.773 139.273 429.437 138.967C429.104 138.658 428.707 138.503 428.246 138.503C427.55 138.503 427.004 138.846 426.607 139.532C426.21 140.219 426.01 141.206 426.006 142.494C426.006 143.355 426.096 144.083 426.274 144.679C426.455 145.271 426.713 145.72 427.046 146.026C427.379 146.328 427.779 146.48 428.246 146.48ZM437.417 147.827C436.62 147.823 435.939 147.613 435.374 147.196C434.809 146.779 434.377 146.172 434.078 145.375C433.778 144.578 433.629 143.617 433.629 142.494C433.629 141.374 433.778 140.417 434.078 139.623C434.38 138.829 434.814 138.224 435.379 137.807C435.948 137.39 436.627 137.181 437.417 137.181C438.208 137.181 438.886 137.392 439.451 137.812C440.016 138.229 440.448 138.834 440.747 139.628C441.05 140.419 441.201 141.374 441.201 142.494C441.201 143.621 441.052 144.583 440.752 145.38C440.453 146.174 440.021 146.781 439.456 147.201C438.891 147.618 438.211 147.827 437.417 147.827ZM437.417 146.48C438.117 146.48 438.664 146.138 439.057 145.456C439.454 144.773 439.653 143.786 439.653 142.494C439.653 141.636 439.562 140.911 439.38 140.319C439.202 139.724 438.945 139.273 438.608 138.967C438.275 138.658 437.878 138.503 437.417 138.503C436.721 138.503 436.175 138.846 435.778 139.532C435.381 140.219 435.181 141.206 435.177 142.494C435.177 143.355 435.267 144.083 435.445 144.679C435.626 145.271 435.884 145.72 436.217 146.026C436.55 146.328 436.95 146.48 437.417 146.48Z" fill="#1F243D"/>
<path d="M424.672 166.655V158.26H425.689V161.998H430.165V158.26H431.182V166.655H430.165V162.9H425.689V166.655H424.672ZM435.726 166.786C435.119 166.786 434.596 166.653 434.156 166.385C433.718 166.114 433.381 165.737 433.143 165.253C432.908 164.767 432.791 164.201 432.791 163.556C432.791 162.911 432.908 162.343 433.143 161.851C433.381 161.356 433.711 160.971 434.135 160.695C434.561 160.416 435.059 160.277 435.627 160.277C435.955 160.277 436.279 160.331 436.599 160.441C436.918 160.55 437.21 160.728 437.472 160.974C437.734 161.217 437.943 161.539 438.099 161.941C438.255 162.343 438.333 162.837 438.333 163.425V163.835H433.479V162.999H437.349C437.349 162.643 437.278 162.326 437.136 162.048C436.996 161.769 436.797 161.549 436.537 161.388C436.28 161.226 435.977 161.146 435.627 161.146C435.242 161.146 434.908 161.241 434.627 161.433C434.348 161.621 434.134 161.867 433.983 162.171C433.833 162.474 433.758 162.799 433.758 163.146V163.704C433.758 164.179 433.84 164.582 434.004 164.913C434.171 165.241 434.402 165.491 434.697 165.663C434.992 165.833 435.335 165.917 435.726 165.917C435.98 165.917 436.209 165.882 436.414 165.811C436.622 165.737 436.801 165.628 436.951 165.483C437.102 165.335 437.218 165.152 437.3 164.934L438.234 165.196C438.136 165.513 437.971 165.792 437.738 166.032C437.506 166.27 437.219 166.456 436.877 166.59C436.536 166.721 436.152 166.786 435.726 166.786ZM440.357 160.359L441.865 162.933L443.374 160.359H444.489L442.456 163.507L444.489 166.655H443.374L441.865 164.212L440.357 166.655H439.242L441.242 163.507L439.242 160.359H440.357ZM449.821 166.721C449.619 166.721 449.445 166.648 449.3 166.504C449.156 166.359 449.083 166.185 449.083 165.983C449.083 165.781 449.156 165.607 449.3 165.462C449.445 165.318 449.619 165.245 449.821 165.245C450.023 165.245 450.197 165.318 450.342 165.462C450.486 165.607 450.559 165.781 450.559 165.983C450.559 166.117 450.525 166.24 450.456 166.352C450.391 166.464 450.302 166.554 450.19 166.622C450.081 166.688 449.958 166.721 449.821 166.721ZM449.821 162.048C449.619 162.048 449.445 161.975 449.3 161.83C449.156 161.686 449.083 161.512 449.083 161.31C449.083 161.108 449.156 160.934 449.3 160.789C449.445 160.644 449.619 160.572 449.821 160.572C450.023 160.572 450.197 160.644 450.342 160.789C450.486 160.934 450.559 161.108 450.559 161.31C450.559 161.444 450.525 161.567 450.456 161.679C450.391 161.791 450.302 161.881 450.19 161.949C450.081 162.015 449.958 162.048 449.821 162.048ZM458.673 166.655L460.051 158.26H460.871L459.493 166.655H458.673ZM454.853 164.327L454.984 163.507H461.248L461.117 164.327H454.853ZM455.722 166.655L457.099 158.26H457.919L456.542 166.655H455.722ZM455.345 161.408L455.476 160.588H461.74L461.608 161.408H455.345ZM462.955 166.655V158.26H467.989V159.162H463.972V161.998H467.612V162.9H463.972V166.655H462.955ZM469.73 166.655V158.26H474.764V159.162H470.747V161.998H474.387V162.9H470.747V166.655H469.73ZM476.505 166.655V158.26H481.539V159.162H477.522V161.998H481.162V162.9H477.522V166.655H476.505ZM483.28 166.655V158.26H488.314V159.162H484.297V161.998H487.937V162.9H484.297V166.655H483.28ZM490.055 166.655V158.26H495.089V159.162H491.072V161.998H494.712V162.9H491.072V166.655H490.055ZM496.83 166.655V158.26H501.864V159.162H497.847V161.998H501.487V162.9H497.847V166.655H496.83Z" fill="#959BA3"/>
<path d="M431.428 178.883H430.411C430.351 178.591 430.246 178.334 430.095 178.113C429.948 177.891 429.767 177.706 429.554 177.555C429.344 177.402 429.11 177.288 428.853 177.211C428.596 177.134 428.328 177.096 428.05 177.096C427.541 177.096 427.081 177.225 426.668 177.482C426.258 177.738 425.932 178.117 425.689 178.617C425.448 179.117 425.328 179.731 425.328 180.458C425.328 181.185 425.448 181.798 425.689 182.298C425.932 182.798 426.258 183.177 426.668 183.434C427.081 183.691 427.541 183.819 428.05 183.819C428.328 183.819 428.596 183.781 428.853 183.704C429.11 183.628 429.344 183.514 429.554 183.364C429.767 183.211 429.948 183.024 430.095 182.802C430.246 182.578 430.351 182.321 430.411 182.032H431.428C431.351 182.461 431.212 182.845 431.009 183.184C430.807 183.523 430.556 183.811 430.255 184.049C429.954 184.284 429.617 184.463 429.243 184.586C428.871 184.709 428.473 184.77 428.05 184.77C427.334 184.77 426.697 184.595 426.139 184.245C425.582 183.896 425.143 183.398 424.824 182.753C424.504 182.108 424.344 181.343 424.344 180.458C424.344 179.572 424.504 178.807 424.824 178.162C425.143 177.517 425.582 177.02 426.139 176.67C426.697 176.32 427.334 176.145 428.05 176.145C428.473 176.145 428.871 176.207 429.243 176.33C429.617 176.453 429.954 176.633 430.255 176.871C430.556 177.106 430.807 177.393 431.009 177.732C431.212 178.068 431.351 178.452 431.428 178.883ZM433.07 176.26H434.284L437.137 183.229H437.235L440.088 176.26H441.302V184.655H440.351V178.277H440.269L437.645 184.655H436.727L434.103 178.277H434.021V184.655H433.07V176.26ZM442.619 176.26H443.783L446.111 180.179H446.21L448.538 176.26H449.702L446.669 181.195V184.655H445.652V181.195L442.619 176.26ZM451.017 184.655V176.26H452.034V180.425H452.132L455.903 176.26H457.231L453.706 180.048L457.231 184.655H456.002L453.083 180.753L452.034 181.933V184.655H451.017ZM462.368 183.581C462.166 183.581 461.992 183.509 461.847 183.364C461.702 183.219 461.63 183.046 461.63 182.843C461.63 182.641 461.702 182.468 461.847 182.323C461.992 182.178 462.166 182.106 462.368 182.106C462.57 182.106 462.744 182.178 462.888 182.323C463.033 182.468 463.106 182.641 463.106 182.843C463.106 182.977 463.072 183.1 463.003 183.212C462.938 183.324 462.849 183.415 462.737 183.483C462.627 183.548 462.504 183.581 462.368 183.581ZM462.368 179.334C462.166 179.334 461.992 179.262 461.847 179.117C461.702 178.972 461.63 178.799 461.63 178.597C461.63 178.394 461.702 178.221 461.847 178.076C461.992 177.931 462.166 177.859 462.368 177.859C462.57 177.859 462.744 177.931 462.888 178.076C463.033 178.221 463.106 178.394 463.106 178.597C463.106 178.73 463.072 178.853 463.003 178.965C462.938 179.078 462.849 179.168 462.737 179.236C462.627 179.302 462.504 179.334 462.368 179.334ZM470.81 184.77C470.193 184.77 469.667 184.602 469.232 184.266C468.798 183.927 468.466 183.436 468.236 182.794C468.006 182.149 467.892 181.37 467.892 180.458C467.892 179.55 468.006 178.776 468.236 178.133C468.468 177.488 468.802 176.996 469.236 176.658C469.673 176.316 470.198 176.145 470.81 176.145C471.422 176.145 471.946 176.316 472.38 176.658C472.818 176.996 473.151 177.488 473.381 178.133C473.613 178.776 473.729 179.55 473.729 180.458C473.729 181.37 473.614 182.149 473.385 182.794C473.155 183.436 472.823 183.927 472.389 184.266C471.954 184.602 471.428 184.77 470.81 184.77ZM470.81 183.868C471.422 183.868 471.898 183.573 472.237 182.983C472.576 182.392 472.745 181.551 472.745 180.458C472.745 179.731 472.667 179.112 472.512 178.601C472.358 178.09 472.137 177.7 471.847 177.432C471.56 177.165 471.215 177.031 470.81 177.031C470.204 177.031 469.729 177.33 469.388 177.928C469.046 178.524 468.875 179.367 468.875 180.458C468.875 181.185 468.952 181.802 469.105 182.31C469.258 182.819 469.478 183.205 469.765 183.471C470.055 183.736 470.403 183.868 470.81 183.868ZM479.993 183.507L479.927 183.95C479.881 184.262 479.81 184.595 479.714 184.95C479.621 185.306 479.524 185.64 479.423 185.955C479.322 186.269 479.238 186.519 479.173 186.705H478.435C478.47 186.53 478.517 186.299 478.574 186.012C478.632 185.725 478.689 185.404 478.747 185.049C478.807 184.696 478.856 184.336 478.894 183.967L478.943 183.507H479.993ZM484.214 184.77C483.596 184.77 483.07 184.602 482.636 184.266C482.201 183.927 481.869 183.436 481.64 182.794C481.41 182.149 481.295 181.37 481.295 180.458C481.295 179.55 481.41 178.776 481.64 178.133C481.872 177.488 482.205 176.996 482.64 176.658C483.077 176.316 483.602 176.145 484.214 176.145C484.826 176.145 485.349 176.316 485.784 176.658C486.221 176.996 486.555 177.488 486.784 178.133C487.016 178.776 487.133 179.55 487.133 180.458C487.133 181.37 487.018 182.149 486.788 182.794C486.559 183.436 486.227 183.927 485.792 184.266C485.358 184.602 484.832 184.77 484.214 184.77ZM484.214 183.868C484.826 183.868 485.302 183.573 485.64 182.983C485.979 182.392 486.149 181.551 486.149 180.458C486.149 179.731 486.071 179.112 485.915 178.601C485.762 178.09 485.541 177.7 485.251 177.432C484.964 177.165 484.618 177.031 484.214 177.031C483.607 177.031 483.133 177.33 482.791 177.928C482.45 178.524 482.279 179.367 482.279 180.458C482.279 181.185 482.356 181.802 482.509 182.31C482.662 182.819 482.882 183.205 483.169 183.471C483.458 183.736 483.807 183.868 484.214 183.868ZM493.396 183.507L493.331 183.95C493.284 184.262 493.213 184.595 493.118 184.95C493.025 185.306 492.928 185.64 492.826 185.955C492.725 186.269 492.642 186.519 492.576 186.705H491.839C491.874 186.53 491.921 186.299 491.978 186.012C492.035 185.725 492.093 185.404 492.15 185.049C492.21 184.696 492.259 184.336 492.298 183.967L492.347 183.507H493.396ZM497.618 184.77C497 184.77 496.474 184.602 496.039 184.266C495.605 183.927 495.273 183.436 495.043 182.794C494.814 182.149 494.699 181.37 494.699 180.458C494.699 179.55 494.814 178.776 495.043 178.133C495.275 177.488 495.609 176.996 496.043 176.658C496.481 176.316 497.005 176.145 497.618 176.145C498.23 176.145 498.753 176.316 499.188 176.658C499.625 176.996 499.958 177.488 500.188 178.133C500.42 178.776 500.536 179.55 500.536 180.458C500.536 181.37 500.421 182.149 500.192 182.794C499.962 183.436 499.63 183.927 499.196 184.266C498.761 184.602 498.235 184.77 497.618 184.77ZM497.618 183.868C498.23 183.868 498.705 183.573 499.044 182.983C499.383 182.392 499.552 181.551 499.552 180.458C499.552 179.731 499.475 179.112 499.319 178.601C499.166 178.09 498.944 177.7 498.655 177.432C498.368 177.165 498.022 177.031 497.618 177.031C497.011 177.031 496.537 177.33 496.195 177.928C495.853 178.524 495.683 179.367 495.683 180.458C495.683 181.185 495.759 181.802 495.912 182.31C496.065 182.819 496.285 183.205 496.572 183.471C496.862 183.736 497.21 183.868 497.618 183.868ZM506.8 183.507L506.734 183.95C506.688 184.262 506.617 184.595 506.521 184.95C506.428 185.306 506.331 185.64 506.23 185.955C506.129 186.269 506.046 186.519 505.98 186.705H505.242C505.278 186.53 505.324 186.299 505.382 186.012C505.439 185.725 505.496 185.404 505.554 185.049C505.614 184.696 505.663 184.336 505.701 183.967L505.751 183.507H506.8ZM511.021 184.77C510.404 184.77 509.877 184.602 509.443 184.266C509.008 183.927 508.676 183.436 508.447 182.794C508.217 182.149 508.102 181.37 508.102 180.458C508.102 179.55 508.217 178.776 508.447 178.133C508.679 177.488 509.013 176.996 509.447 176.658C509.884 176.316 510.409 176.145 511.021 176.145C511.633 176.145 512.157 176.316 512.591 176.658C513.028 176.996 513.362 177.488 513.591 178.133C513.824 178.776 513.94 179.55 513.94 180.458C513.94 181.37 513.825 182.149 513.596 182.794C513.366 183.436 513.034 183.927 512.599 184.266C512.165 184.602 511.639 184.77 511.021 184.77ZM511.021 183.868C511.633 183.868 512.109 183.573 512.448 182.983C512.787 182.392 512.956 181.551 512.956 180.458C512.956 179.731 512.878 179.112 512.722 178.601C512.569 178.09 512.348 177.7 512.058 177.432C511.771 177.165 511.426 177.031 511.021 177.031C510.414 177.031 509.94 177.33 509.599 177.928C509.257 178.524 509.086 179.367 509.086 180.458C509.086 181.185 509.163 181.802 509.316 182.31C509.469 182.819 509.689 183.205 509.976 183.471C510.266 183.736 510.614 183.868 511.021 183.868Z" fill="#959BA3"/>
</g>
</g>
<g filter="url(#filter3_dd_705_37887)">
<g clip-path="url(#clip3_705_37887)">
<rect x="579" y="50" width="145" height="150.311" rx="7.10373" fill="white"/>
<rect width="73" height="71" transform="translate(579 50)" fill="#1F243D"/>
<rect width="73" height="71" transform="translate(651 50)" fill="#1F243D"/>
<path d="M594.246 147.827C593.449 147.823 592.768 147.613 592.203 147.196C591.638 146.779 591.206 146.172 590.906 145.375C590.607 144.578 590.457 143.617 590.457 142.494C590.457 141.374 590.607 140.417 590.906 139.623C591.209 138.829 591.643 138.224 592.208 137.807C592.777 137.39 593.456 137.181 594.246 137.181C595.037 137.181 595.715 137.392 596.28 137.812C596.845 138.229 597.277 138.834 597.576 139.628C597.879 140.419 598.03 141.374 598.03 142.494C598.03 143.621 597.881 144.583 597.581 145.38C597.282 146.174 596.85 146.781 596.285 147.201C595.72 147.618 595.04 147.827 594.246 147.827ZM594.246 146.48C594.946 146.48 595.493 146.138 595.886 145.456C596.283 144.773 596.482 143.786 596.482 142.494C596.482 141.636 596.391 140.911 596.209 140.319C596.031 139.724 595.773 139.273 595.437 138.967C595.104 138.658 594.707 138.503 594.246 138.503C593.55 138.503 593.004 138.846 592.607 139.532C592.21 140.219 592.01 141.206 592.006 142.494C592.006 143.355 592.096 144.083 592.274 144.679C592.455 145.271 592.713 145.72 593.046 146.026C593.379 146.328 593.779 146.48 594.246 146.48ZM603.417 147.827C602.62 147.823 601.939 147.613 601.374 147.196C600.809 146.779 600.377 146.172 600.078 145.375C599.778 144.578 599.629 143.617 599.629 142.494C599.629 141.374 599.778 140.417 600.078 139.623C600.38 138.829 600.814 138.224 601.379 137.807C601.948 137.39 602.627 137.181 603.417 137.181C604.208 137.181 604.886 137.392 605.451 137.812C606.016 138.229 606.448 138.834 606.747 139.628C607.05 140.419 607.201 141.374 607.201 142.494C607.201 143.621 607.052 144.583 606.752 145.38C606.453 146.174 606.021 146.781 605.456 147.201C604.891 147.618 604.211 147.827 603.417 147.827ZM603.417 146.48C604.117 146.48 604.664 146.138 605.057 145.456C605.454 144.773 605.653 143.786 605.653 142.494C605.653 141.636 605.562 140.911 605.38 140.319C605.202 139.724 604.945 139.273 604.608 138.967C604.275 138.658 603.878 138.503 603.417 138.503C602.721 138.503 602.175 138.846 601.778 139.532C601.381 140.219 601.181 141.206 601.177 142.494C601.177 143.355 601.267 144.083 601.445 144.679C601.626 145.271 601.884 145.72 602.217 146.026C602.55 146.328 602.95 146.48 603.417 146.48Z" fill="#1F243D"/>
<path d="M590.672 166.655V158.26H591.689V161.998H596.165V158.26H597.182V166.655H596.165V162.9H591.689V166.655H590.672ZM601.726 166.786C601.119 166.786 600.596 166.653 600.156 166.385C599.718 166.114 599.381 165.737 599.143 165.253C598.908 164.767 598.791 164.201 598.791 163.556C598.791 162.911 598.908 162.343 599.143 161.851C599.381 161.356 599.711 160.971 600.135 160.695C600.561 160.416 601.059 160.277 601.627 160.277C601.955 160.277 602.279 160.331 602.599 160.441C602.918 160.55 603.21 160.728 603.472 160.974C603.734 161.217 603.943 161.539 604.099 161.941C604.255 162.343 604.333 162.837 604.333 163.425V163.835H599.479V162.999H603.349C603.349 162.643 603.278 162.326 603.136 162.048C602.996 161.769 602.797 161.549 602.537 161.388C602.28 161.226 601.977 161.146 601.627 161.146C601.242 161.146 600.908 161.241 600.627 161.433C600.348 161.621 600.134 161.867 599.983 162.171C599.833 162.474 599.758 162.799 599.758 163.146V163.704C599.758 164.179 599.84 164.582 600.004 164.913C600.171 165.241 600.402 165.491 600.697 165.663C600.992 165.833 601.335 165.917 601.726 165.917C601.98 165.917 602.209 165.882 602.414 165.811C602.622 165.737 602.801 165.628 602.951 165.483C603.102 165.335 603.218 165.152 603.3 164.934L604.234 165.196C604.136 165.513 603.971 165.792 603.738 166.032C603.506 166.27 603.219 166.456 602.877 166.59C602.536 166.721 602.152 166.786 601.726 166.786ZM606.357 160.359L607.865 162.933L609.374 160.359H610.489L608.456 163.507L610.489 166.655H609.374L607.865 164.212L606.357 166.655H605.242L607.242 163.507L605.242 160.359H606.357ZM615.821 166.721C615.619 166.721 615.445 166.648 615.3 166.504C615.156 166.359 615.083 166.185 615.083 165.983C615.083 165.781 615.156 165.607 615.3 165.462C615.445 165.318 615.619 165.245 615.821 165.245C616.023 165.245 616.197 165.318 616.342 165.462C616.486 165.607 616.559 165.781 616.559 165.983C616.559 166.117 616.525 166.24 616.456 166.352C616.391 166.464 616.302 166.554 616.19 166.622C616.081 166.688 615.958 166.721 615.821 166.721ZM615.821 162.048C615.619 162.048 615.445 161.975 615.3 161.83C615.156 161.686 615.083 161.512 615.083 161.31C615.083 161.108 615.156 160.934 615.3 160.789C615.445 160.644 615.619 160.572 615.821 160.572C616.023 160.572 616.197 160.644 616.342 160.789C616.486 160.934 616.559 161.108 616.559 161.31C616.559 161.444 616.525 161.567 616.456 161.679C616.391 161.791 616.302 161.881 616.19 161.949C616.081 162.015 615.958 162.048 615.821 162.048ZM624.673 166.655L626.051 158.26H626.871L625.493 166.655H624.673ZM620.853 164.327L620.984 163.507H627.248L627.117 164.327H620.853ZM621.722 166.655L623.099 158.26H623.919L622.542 166.655H621.722ZM621.345 161.408L621.476 160.588H627.74L627.608 161.408H621.345ZM631.759 158.26V166.655H630.742V159.326H630.693L628.644 160.687V159.654L630.742 158.26H631.759ZM634.321 166.655V158.26H639.355V159.162H635.338V161.998H638.978V162.9H635.338V166.655H634.321ZM640.949 166.655V165.917L643.72 162.884C644.045 162.529 644.313 162.22 644.523 161.957C644.734 161.692 644.889 161.444 644.99 161.211C645.094 160.976 645.146 160.73 645.146 160.474C645.146 160.178 645.075 159.923 644.933 159.707C644.794 159.491 644.602 159.324 644.359 159.207C644.116 159.089 643.843 159.031 643.539 159.031C643.217 159.031 642.935 159.098 642.695 159.231C642.457 159.363 642.273 159.547 642.141 159.785C642.013 160.023 641.949 160.301 641.949 160.621H640.981C640.981 160.129 641.095 159.697 641.322 159.326C641.548 158.954 641.857 158.664 642.248 158.457C642.642 158.249 643.083 158.145 643.572 158.145C644.064 158.145 644.5 158.249 644.88 158.457C645.26 158.664 645.557 158.945 645.773 159.297C645.989 159.65 646.097 160.042 646.097 160.474C646.097 160.782 646.041 161.084 645.929 161.38C645.82 161.672 645.629 161.998 645.355 162.359C645.085 162.717 644.709 163.154 644.228 163.671L642.342 165.688V165.753H646.245V166.655H640.949ZM647.561 164.934V164.097L651.25 158.26H651.857V159.555H651.447L648.659 163.966V164.032H653.628V164.934H647.561ZM651.512 166.655V164.679V164.29V158.26H652.48V166.655H651.512ZM658 166.77C657.459 166.77 656.977 166.677 656.553 166.491C656.133 166.305 655.798 166.047 655.549 165.717C655.303 165.383 655.169 164.996 655.147 164.556H656.18C656.202 164.827 656.295 165.061 656.459 165.257C656.623 165.451 656.838 165.602 657.103 165.708C657.368 165.815 657.662 165.868 657.984 165.868C658.345 165.868 658.665 165.805 658.943 165.68C659.222 165.554 659.441 165.379 659.599 165.155C659.758 164.931 659.837 164.671 659.837 164.376C659.837 164.067 659.76 163.795 659.607 163.56C659.454 163.323 659.23 163.137 658.935 163.003C658.64 162.869 658.279 162.802 657.853 162.802H657.181V161.9H657.853C658.186 161.9 658.479 161.84 658.73 161.72C658.984 161.599 659.182 161.43 659.325 161.211C659.469 160.993 659.542 160.736 659.542 160.441C659.542 160.157 659.479 159.909 659.353 159.699C659.228 159.488 659.05 159.324 658.82 159.207C658.594 159.089 658.326 159.031 658.017 159.031C657.727 159.031 657.454 159.084 657.197 159.19C656.943 159.294 656.735 159.446 656.574 159.646C656.413 159.842 656.325 160.08 656.312 160.359H655.328C655.344 159.919 655.477 159.533 655.725 159.203C655.974 158.869 656.299 158.61 656.701 158.424C657.105 158.238 657.55 158.145 658.033 158.145C658.553 158.145 658.998 158.25 659.37 158.461C659.741 158.669 660.027 158.943 660.226 159.285C660.426 159.626 660.526 159.995 660.526 160.392C660.526 160.864 660.401 161.267 660.153 161.601C659.907 161.934 659.572 162.165 659.148 162.294V162.359C659.678 162.447 660.092 162.672 660.39 163.036C660.688 163.396 660.837 163.843 660.837 164.376C660.837 164.832 660.713 165.242 660.464 165.606C660.218 165.967 659.882 166.251 659.456 166.459C659.029 166.666 658.544 166.77 658 166.77ZM665.252 166.655H662.661V158.26H665.367C666.181 158.26 666.878 158.428 667.458 158.764C668.037 159.098 668.481 159.577 668.79 160.203C669.099 160.826 669.253 161.572 669.253 162.441C669.253 163.316 669.097 164.069 668.786 164.7C668.474 165.328 668.02 165.812 667.425 166.151C666.829 166.487 666.105 166.655 665.252 166.655ZM663.678 165.753H665.187C665.881 165.753 666.456 165.62 666.912 165.352C667.369 165.084 667.709 164.703 667.933 164.208C668.157 163.713 668.269 163.124 668.269 162.441C668.269 161.763 668.159 161.18 667.937 160.691C667.716 160.199 667.385 159.822 666.945 159.559C666.505 159.294 665.957 159.162 665.301 159.162H663.678V165.753Z" fill="#959BA3"/>
<path d="M597.428 178.883H596.411C596.351 178.591 596.246 178.334 596.095 178.113C595.948 177.891 595.767 177.706 595.554 177.555C595.344 177.402 595.11 177.288 594.853 177.211C594.596 177.134 594.328 177.096 594.05 177.096C593.541 177.096 593.081 177.225 592.668 177.482C592.258 177.738 591.932 178.117 591.689 178.617C591.448 179.117 591.328 179.731 591.328 180.458C591.328 181.185 591.448 181.798 591.689 182.298C591.932 182.798 592.258 183.177 592.668 183.434C593.081 183.691 593.541 183.819 594.05 183.819C594.328 183.819 594.596 183.781 594.853 183.704C595.11 183.628 595.344 183.514 595.554 183.364C595.767 183.211 595.948 183.024 596.095 182.802C596.246 182.578 596.351 182.321 596.411 182.032H597.428C597.351 182.461 597.212 182.845 597.009 183.184C596.807 183.523 596.556 183.811 596.255 184.049C595.954 184.284 595.617 184.463 595.243 184.586C594.871 184.709 594.473 184.77 594.05 184.77C593.334 184.77 592.697 184.595 592.139 184.245C591.582 183.896 591.143 183.398 590.824 182.753C590.504 182.108 590.344 181.343 590.344 180.458C590.344 179.572 590.504 178.807 590.824 178.162C591.143 177.517 591.582 177.02 592.139 176.67C592.697 176.32 593.334 176.145 594.05 176.145C594.473 176.145 594.871 176.207 595.243 176.33C595.617 176.453 595.954 176.633 596.255 176.871C596.556 177.106 596.807 177.393 597.009 177.732C597.212 178.068 597.351 178.452 597.428 178.883ZM599.07 176.26H600.284L603.137 183.229H603.235L606.088 176.26H607.302V184.655H606.351V178.277H606.269L603.645 184.655H602.727L600.103 178.277H600.021V184.655H599.07V176.26ZM608.619 176.26H609.783L612.111 180.179H612.21L614.538 176.26H615.702L612.669 181.195V184.655H611.652V181.195L608.619 176.26ZM617.017 184.655V176.26H618.034V180.425H618.132L621.903 176.26H623.231L619.706 180.048L623.231 184.655H622.002L619.083 180.753L618.034 181.933V184.655H617.017ZM628.368 183.581C628.166 183.581 627.992 183.509 627.847 183.364C627.702 183.219 627.63 183.046 627.63 182.843C627.63 182.641 627.702 182.468 627.847 182.323C627.992 182.178 628.166 182.106 628.368 182.106C628.57 182.106 628.744 182.178 628.888 182.323C629.033 182.468 629.106 182.641 629.106 182.843C629.106 182.977 629.072 183.1 629.003 183.212C628.938 183.324 628.849 183.415 628.737 183.483C628.627 183.548 628.504 183.581 628.368 183.581ZM628.368 179.334C628.166 179.334 627.992 179.262 627.847 179.117C627.702 178.972 627.63 178.799 627.63 178.597C627.63 178.394 627.702 178.221 627.847 178.076C627.992 177.931 628.166 177.859 628.368 177.859C628.57 177.859 628.744 177.931 628.888 178.076C629.033 178.221 629.106 178.394 629.106 178.597C629.106 178.73 629.072 178.853 629.003 178.965C628.938 179.078 628.849 179.168 628.737 179.236C628.627 179.302 628.504 179.334 628.368 179.334ZM636.761 184.77C636.198 184.77 635.701 184.67 635.269 184.471C634.84 184.269 634.505 183.991 634.265 183.639C634.024 183.283 633.905 182.879 633.908 182.425C633.905 182.07 633.975 181.742 634.117 181.441C634.259 181.138 634.453 180.885 634.699 180.683C634.948 180.478 635.225 180.348 635.531 180.294V180.244C635.13 180.141 634.81 179.915 634.572 179.568C634.334 179.218 634.217 178.821 634.22 178.375C634.217 177.949 634.325 177.568 634.543 177.231C634.762 176.895 635.063 176.63 635.445 176.436C635.831 176.242 636.269 176.145 636.761 176.145C637.248 176.145 637.682 176.242 638.065 176.436C638.447 176.63 638.748 176.895 638.967 177.231C639.188 177.568 639.3 177.949 639.303 178.375C639.3 178.821 639.178 179.218 638.938 179.568C638.7 179.915 638.384 180.141 637.991 180.244V180.294C638.294 180.348 638.568 180.478 638.811 180.683C639.054 180.885 639.248 181.138 639.393 181.441C639.538 181.742 639.611 182.07 639.614 182.425C639.611 182.879 639.488 183.283 639.245 183.639C639.005 183.991 638.67 184.269 638.241 184.471C637.815 184.67 637.321 184.77 636.761 184.77ZM636.761 183.868C637.141 183.868 637.469 183.807 637.745 183.684C638.021 183.561 638.234 183.387 638.384 183.163C638.535 182.939 638.611 182.677 638.614 182.376C638.611 182.059 638.529 181.779 638.368 181.536C638.207 181.292 637.987 181.101 637.708 180.962C637.432 180.822 637.116 180.753 636.761 180.753C636.403 180.753 636.083 180.822 635.802 180.962C635.523 181.101 635.303 181.292 635.142 181.536C634.983 181.779 634.906 182.059 634.908 182.376C634.906 182.677 634.978 182.939 635.125 183.163C635.276 183.387 635.49 183.561 635.769 183.684C636.048 183.807 636.379 183.868 636.761 183.868ZM636.761 179.884C637.062 179.884 637.328 179.824 637.56 179.703C637.795 179.583 637.98 179.415 638.114 179.199C638.248 178.983 638.316 178.73 638.319 178.441C638.316 178.157 638.249 177.909 638.118 177.699C637.987 177.486 637.805 177.322 637.573 177.207C637.34 177.089 637.07 177.031 636.761 177.031C636.447 177.031 636.172 177.089 635.937 177.207C635.702 177.322 635.52 177.486 635.392 177.699C635.264 177.909 635.201 178.157 635.203 178.441C635.201 178.73 635.265 178.983 635.396 179.199C635.53 179.415 635.714 179.583 635.949 179.703C636.184 179.824 636.455 179.884 636.761 179.884ZM643.858 176.145C644.202 176.148 644.547 176.213 644.891 176.342C645.235 176.47 645.55 176.684 645.834 176.981C646.118 177.277 646.346 177.68 646.518 178.191C646.691 178.702 646.777 179.343 646.777 180.113C646.777 180.859 646.706 181.522 646.564 182.101C646.424 182.678 646.222 183.165 645.957 183.561C645.694 183.957 645.375 184.258 644.998 184.463C644.623 184.668 644.2 184.77 643.727 184.77C643.257 184.77 642.837 184.677 642.468 184.491C642.102 184.303 641.802 184.042 641.566 183.708C641.334 183.372 641.185 182.983 641.12 182.54H642.12C642.21 182.925 642.389 183.244 642.657 183.495C642.927 183.744 643.284 183.868 643.727 183.868C644.374 183.868 644.886 183.585 645.26 183.02C645.637 182.454 645.826 181.655 645.826 180.622H645.76C645.607 180.851 645.425 181.049 645.215 181.216C645.004 181.383 644.771 181.511 644.514 181.601C644.257 181.691 643.984 181.737 643.694 181.737C643.213 181.737 642.772 181.618 642.37 181.38C641.971 181.139 641.651 180.81 641.411 180.392C641.173 179.971 641.054 179.49 641.054 178.949C641.054 178.435 641.169 177.965 641.398 177.539C641.631 177.11 641.956 176.768 642.374 176.514C642.795 176.26 643.29 176.137 643.858 176.145ZM643.858 177.047C643.514 177.047 643.203 177.133 642.927 177.305C642.654 177.475 642.437 177.704 642.276 177.994C642.117 178.281 642.038 178.599 642.038 178.949C642.038 179.299 642.114 179.617 642.267 179.904C642.423 180.188 642.635 180.415 642.903 180.585C643.173 180.751 643.481 180.835 643.825 180.835C644.085 180.835 644.327 180.784 644.551 180.683C644.775 180.579 644.97 180.438 645.137 180.261C645.306 180.08 645.439 179.877 645.535 179.65C645.63 179.42 645.678 179.181 645.678 178.933C645.678 178.605 645.599 178.297 645.44 178.01C645.285 177.723 645.069 177.491 644.793 177.313C644.519 177.136 644.208 177.047 643.858 177.047ZM653.095 183.507L653.029 183.95C652.983 184.262 652.912 184.595 652.816 184.95C652.723 185.306 652.626 185.64 652.525 185.955C652.424 186.269 652.34 186.519 652.275 186.705H651.537C651.572 186.53 651.619 186.299 651.676 186.012C651.734 185.725 651.791 185.404 651.849 185.049C651.909 184.696 651.958 184.336 651.996 183.967L652.045 183.507H653.095ZM657.301 184.77C656.738 184.77 656.24 184.67 655.808 184.471C655.379 184.269 655.045 183.991 654.804 183.639C654.564 183.283 654.445 182.879 654.447 182.425C654.445 182.07 654.514 181.742 654.657 181.441C654.799 181.138 654.993 180.885 655.239 180.683C655.487 180.478 655.765 180.348 656.071 180.294V180.244C655.669 180.141 655.349 179.915 655.112 179.568C654.874 179.218 654.756 178.821 654.759 178.375C654.756 177.949 654.864 177.568 655.083 177.231C655.301 176.895 655.602 176.63 655.985 176.436C656.37 176.242 656.809 176.145 657.301 176.145C657.787 176.145 658.222 176.242 658.604 176.436C658.987 176.63 659.287 176.895 659.506 177.231C659.727 177.568 659.839 177.949 659.842 178.375C659.839 178.821 659.718 179.218 659.477 179.568C659.24 179.915 658.924 180.141 658.53 180.244V180.294C658.834 180.348 659.107 180.478 659.35 180.683C659.593 180.885 659.787 181.138 659.932 181.441C660.077 181.742 660.151 182.07 660.154 182.425C660.151 182.879 660.028 183.283 659.785 183.639C659.544 183.991 659.209 184.269 658.78 184.471C658.354 184.67 657.861 184.77 657.301 184.77ZM657.301 183.868C657.68 183.868 658.008 183.807 658.284 183.684C658.56 183.561 658.774 183.387 658.924 183.163C659.074 182.939 659.151 182.677 659.153 182.376C659.151 182.059 659.069 181.779 658.907 181.536C658.746 181.292 658.526 181.101 658.247 180.962C657.971 180.822 657.656 180.753 657.301 180.753C656.943 180.753 656.623 180.822 656.341 180.962C656.063 181.101 655.843 181.292 655.681 181.536C655.523 181.779 655.445 182.059 655.448 182.376C655.445 182.677 655.517 182.939 655.665 183.163C655.815 183.387 656.03 183.561 656.309 183.684C656.587 183.807 656.918 183.868 657.301 183.868ZM657.301 179.884C657.601 179.884 657.868 179.824 658.1 179.703C658.335 179.583 658.519 179.415 658.653 179.199C658.787 178.983 658.856 178.73 658.858 178.441C658.856 178.157 658.789 177.909 658.657 177.699C658.526 177.486 658.344 177.322 658.112 177.207C657.88 177.089 657.609 177.031 657.301 177.031C656.986 177.031 656.712 177.089 656.477 177.207C656.242 177.322 656.06 177.486 655.931 177.699C655.803 177.909 655.74 178.157 655.743 178.441C655.74 178.73 655.804 178.983 655.935 179.199C656.069 179.415 656.254 179.583 656.489 179.703C656.724 179.824 656.994 179.884 657.301 179.884ZM661.725 184.655V183.917L664.496 180.884C664.821 180.529 665.089 180.22 665.299 179.957C665.51 179.692 665.665 179.444 665.767 179.211C665.87 178.976 665.922 178.73 665.922 178.474C665.922 178.178 665.851 177.923 665.709 177.707C665.57 177.491 665.379 177.324 665.135 177.207C664.892 177.089 664.619 177.031 664.315 177.031C663.993 177.031 663.711 177.098 663.471 177.231C663.233 177.363 663.049 177.547 662.918 177.785C662.789 178.023 662.725 178.301 662.725 178.621H661.757C661.757 178.129 661.871 177.697 662.098 177.326C662.325 176.954 662.633 176.664 663.024 176.457C663.418 176.249 663.859 176.145 664.348 176.145C664.84 176.145 665.276 176.249 665.656 176.457C666.036 176.664 666.334 176.945 666.55 177.297C666.765 177.65 666.873 178.042 666.873 178.474C666.873 178.782 666.817 179.084 666.705 179.38C666.596 179.672 666.405 179.998 666.131 180.359C665.861 180.717 665.485 181.154 665.004 181.671L663.118 183.688V183.753H667.021V184.655H661.725ZM673.42 183.507L673.354 183.95C673.308 184.262 673.237 184.595 673.141 184.95C673.048 185.306 672.951 185.64 672.85 185.955C672.749 186.269 672.666 186.519 672.6 186.705H671.862C671.898 186.53 671.944 186.299 672.002 186.012C672.059 185.725 672.116 185.404 672.174 185.049C672.234 184.696 672.283 184.336 672.321 183.967L672.371 183.507H673.42ZM674.999 182.934V182.097L678.689 176.26H679.295V177.555H678.885L676.098 181.966V182.032H681.066V182.934H674.999ZM678.951 184.655V182.679V182.29V176.26H679.918V184.655H678.951ZM682.865 184.655L686.62 177.227V177.162H682.291V176.26H687.669V177.211L683.93 184.655H682.865ZM693.903 183.507L693.837 183.95C693.791 184.262 693.72 184.595 693.624 184.95C693.531 185.306 693.434 185.64 693.333 185.955C693.232 186.269 693.149 186.519 693.083 186.705H692.345C692.381 186.53 692.427 186.299 692.485 186.012C692.542 185.725 692.599 185.404 692.657 185.049C692.717 184.696 692.766 184.336 692.804 183.967L692.854 183.507H693.903ZM698.133 184.77C697.652 184.77 697.219 184.674 696.834 184.483C696.449 184.292 696.14 184.029 695.908 183.696C695.675 183.363 695.548 182.983 695.526 182.556H696.51C696.548 182.936 696.721 183.251 697.027 183.499C697.335 183.745 697.704 183.868 698.133 183.868C698.478 183.868 698.784 183.788 699.052 183.626C699.322 183.465 699.534 183.244 699.687 182.962C699.843 182.678 699.921 182.357 699.921 181.999C699.921 181.633 699.84 181.306 699.679 181.019C699.52 180.73 699.302 180.501 699.023 180.335C698.744 180.168 698.426 180.083 698.068 180.08C697.811 180.078 697.547 180.117 697.277 180.199C697.006 180.279 696.783 180.381 696.609 180.507L695.657 180.392L696.166 176.26H700.527V177.162H697.018L696.723 179.638H696.773C696.945 179.501 697.161 179.388 697.42 179.298C697.68 179.207 697.95 179.162 698.232 179.162C698.746 179.162 699.203 179.285 699.605 179.531C700.01 179.774 700.327 180.108 700.556 180.531C700.788 180.955 700.905 181.439 700.905 181.983C700.905 182.518 700.784 182.996 700.544 183.417C700.306 183.835 699.978 184.166 699.56 184.409C699.142 184.65 698.666 184.77 698.133 184.77ZM705.37 184.77C704.829 184.77 704.346 184.677 703.923 184.491C703.502 184.305 703.167 184.047 702.918 183.717C702.672 183.383 702.538 182.996 702.517 182.556H703.55C703.571 182.827 703.664 183.061 703.828 183.257C703.992 183.451 704.207 183.602 704.472 183.708C704.737 183.815 705.031 183.868 705.353 183.868C705.714 183.868 706.034 183.805 706.313 183.68C706.591 183.554 706.81 183.379 706.968 183.155C707.127 182.931 707.206 182.671 707.206 182.376C707.206 182.067 707.13 181.795 706.977 181.56C706.824 181.323 706.599 181.137 706.304 181.003C706.009 180.869 705.648 180.802 705.222 180.802H704.55V179.9H705.222C705.556 179.9 705.848 179.84 706.099 179.72C706.354 179.599 706.552 179.43 706.694 179.211C706.839 178.993 706.911 178.736 706.911 178.441C706.911 178.157 706.848 177.909 706.722 177.699C706.597 177.488 706.419 177.324 706.19 177.207C705.963 177.089 705.695 177.031 705.386 177.031C705.096 177.031 704.823 177.084 704.566 177.19C704.312 177.294 704.104 177.446 703.943 177.646C703.782 177.842 703.694 178.08 703.681 178.359H702.697C702.713 177.919 702.846 177.533 703.095 177.203C703.343 176.869 703.669 176.61 704.07 176.424C704.475 176.238 704.919 176.145 705.403 176.145C705.922 176.145 706.367 176.25 706.739 176.461C707.111 176.669 707.396 176.943 707.596 177.285C707.795 177.626 707.895 177.995 707.895 178.392C707.895 178.864 707.771 179.267 707.522 179.601C707.276 179.934 706.941 180.165 706.518 180.294V180.359C707.048 180.447 707.462 180.672 707.76 181.036C708.057 181.396 708.206 181.843 708.206 182.376C708.206 182.832 708.082 183.242 707.833 183.606C707.587 183.967 707.251 184.251 706.825 184.459C706.399 184.666 705.914 184.77 705.37 184.77Z" fill="#959BA3"/>
</g>
</g>
<defs>
<filter id="filter0_dd_705_37887" x="70.3444" y="50" width="166.311" height="171.623" filterUnits="userSpaceOnUse" color-interpolation-filters="sRGB">
<feFlood flood-opacity="0" result="BackgroundImageFix"/>
<feColorMatrix in="SourceAlpha" type="matrix" values="0 0 0 0 0 0 0 0 0 0 0 0 0 0 0 0 0 0 127 0" result="hardAlpha"/>
<feMorphology radius="1.77593" operator="erode" in="SourceAlpha" result="effect1_dropShadow_705_37887"/>
<feOffset dy="3.55187"/>
<feGaussianBlur stdDeviation="2.6639"/>
<feColorMatrix type="matrix" values="0 0 0 0 0.0627451 0 0 0 0 0.0941176 0 0 0 0 0.156863 0 0 0 0.03 0"/>
<feBlend mode="normal" in2="BackgroundImageFix" result="effect1_dropShadow_705_37887"/>
<feColorMatrix in="SourceAlpha" type="matrix" values="0 0 0 0 0 0 0 0 0 0 0 0 0 0 0 0 0 0 127 0" result="hardAlpha"/>
<feMorphology radius="3.55187" operator="erode" in="SourceAlpha" result="effect2_dropShadow_705_37887"/>
<feOffset dy="10.6556"/>
<feGaussianBlur stdDeviation="7.10373"/>
<feColorMatrix type="matrix" values="0 0 0 0 0.0627451 0 0 0 0 0.0941176 0 0 0 0 0.156863 0 0 0 0.08 0"/>
<feBlend mode="normal" in2="effect1_dropShadow_705_37887" result="effect2_dropShadow_705_37887"/>
<feBlend mode="normal" in="SourceGraphic" in2="effect2_dropShadow_705_37887" result="shape"/>
</filter>
<filter id="filter1_dd_705_37887" x="236.344" y="50" width="166.311" height="171.623" filterUnits="userSpaceOnUse" color-interpolation-filters="sRGB">
<feFlood flood-opacity="0" result="BackgroundImageFix"/>
<feColorMatrix in="SourceAlpha" type="matrix" values="0 0 0 0 0 0 0 0 0 0 0 0 0 0 0 0 0 0 127 0" result="hardAlpha"/>
<feMorphology radius="1.77593" operator="erode" in="SourceAlpha" result="effect1_dropShadow_705_37887"/>
<feOffset dy="3.55187"/>
<feGaussianBlur stdDeviation="2.6639"/>
<feColorMatrix type="matrix" values="0 0 0 0 0.0627451 0 0 0 0 0.0941176 0 0 0 0 0.156863 0 0 0 0.03 0"/>
<feBlend mode="normal" in2="BackgroundImageFix" result="effect1_dropShadow_705_37887"/>
<feColorMatrix in="SourceAlpha" type="matrix" values="0 0 0 0 0 0 0 0 0 0 0 0 0 0 0 0 0 0 127 0" result="hardAlpha"/>
<feMorphology radius="3.55187" operator="erode" in="SourceAlpha" result="effect2_dropShadow_705_37887"/>
<feOffset dy="10.6556"/>
<feGaussianBlur stdDeviation="7.10373"/>
<feColorMatrix type="matrix" values="0 0 0 0 0.0627451 0 0 0 0 0.0941176 0 0 0 0 0.156863 0 0 0 0.08 0"/>
<feBlend mode="normal" in2="effect1_dropShadow_705_37887" result="effect2_dropShadow_705_37887"/>
<feBlend mode="normal" in="SourceGraphic" in2="effect2_dropShadow_705_37887" result="shape"/>
</filter>
<filter id="filter2_dd_705_37887" x="402.344" y="50" width="166.311" height="171.623" filterUnits="userSpaceOnUse" color-interpolation-filters="sRGB">
<feFlood flood-opacity="0" result="BackgroundImageFix"/>
<feColorMatrix in="SourceAlpha" type="matrix" values="0 0 0 0 0 0 0 0 0 0 0 0 0 0 0 0 0 0 127 0" result="hardAlpha"/>
<feMorphology radius="1.77593" operator="erode" in="SourceAlpha" result="effect1_dropShadow_705_37887"/>
<feOffset dy="3.55187"/>
<feGaussianBlur stdDeviation="2.6639"/>
<feColorMatrix type="matrix" values="0 0 0 0 0.0627451 0 0 0 0 0.0941176 0 0 0 0 0.156863 0 0 0 0.03 0"/>
<feBlend mode="normal" in2="BackgroundImageFix" result="effect1_dropShadow_705_37887"/>
<feColorMatrix in="SourceAlpha" type="matrix" values="0 0 0 0 0 0 0 0 0 0 0 0 0 0 0 0 0 0 127 0" result="hardAlpha"/>
<feMorphology radius="3.55187" operator="erode" in="SourceAlpha" result="effect2_dropShadow_705_37887"/>
<feOffset dy="10.6556"/>
<feGaussianBlur stdDeviation="7.10373"/>
<feColorMatrix type="matrix" values="0 0 0 0 0.0627451 0 0 0 0 0.0941176 0 0 0 0 0.156863 0 0 0 0.08 0"/>
<feBlend mode="normal" in2="effect1_dropShadow_705_37887" result="effect2_dropShadow_705_37887"/>
<feBlend mode="normal" in="SourceGraphic" in2="effect2_dropShadow_705_37887" result="shape"/>
</filter>
<filter id="filter3_dd_705_37887" x="568.344" y="50" width="166.311" height="171.623" filterUnits="userSpaceOnUse" color-interpolation-filters="sRGB">
<feFlood flood-opacity="0" result="BackgroundImageFix"/>
<feColorMatrix in="SourceAlpha" type="matrix" values="0 0 0 0 0 0 0 0 0 0 0 0 0 0 0 0 0 0 127 0" result="hardAlpha"/>
<feMorphology radius="1.77593" operator="erode" in="SourceAlpha" result="effect1_dropShadow_705_37887"/>
<feOffset dy="3.55187"/>
<feGaussianBlur stdDeviation="2.6639"/>
<feColorMatrix type="matrix" values="0 0 0 0 0.0627451 0 0 0 0 0.0941176 0 0 0 0 0.156863 0 0 0 0.03 0"/>
<feBlend mode="normal" in2="BackgroundImageFix" result="effect1_dropShadow_705_37887"/>
<feColorMatrix in="SourceAlpha" type="matrix" values="0 0 0 0 0 0 0 0 0 0 0 0 0 0 0 0 0 0 127 0" result="hardAlpha"/>
<feMorphology radius="3.55187" operator="erode" in="SourceAlpha" result="effect2_dropShadow_705_37887"/>
<feOffset dy="10.6556"/>
<feGaussianBlur stdDeviation="7.10373"/>
<feColorMatrix type="matrix" values="0 0 0 0 0.0627451 0 0 0 0 0.0941176 0 0 0 0 0.156863 0 0 0 0.08 0"/>
<feBlend mode="normal" in2="effect1_dropShadow_705_37887" result="effect2_dropShadow_705_37887"/>
<feBlend mode="normal" in="SourceGraphic" in2="effect2_dropShadow_705_37887" result="shape"/>
</filter>
<clipPath id="clip0_705_37887">
<rect x="81" y="50" width="145" height="150.311" rx="7.10373" fill="white"/>
</clipPath>
<clipPath id="clip1_705_37887">
<rect x="247" y="50" width="145" height="150.311" rx="7.10373" fill="white"/>
</clipPath>
<clipPath id="clip2_705_37887">
<rect x="413" y="50" width="145" height="150.311" rx="7.10373" fill="white"/>
</clipPath>
<clipPath id="clip3_705_37887">
<rect x="579" y="50" width="145" height="150.311" rx="7.10373" fill="white"/>
</clipPath>
</defs>
</svg>
