<svg width="720" height="299" viewBox="0 0 720 299" fill="none" xmlns="http://www.w3.org/2000/svg">
<rect x="0.5" y="0.5" width="719" height="298" fill="#F9FAFB"/>
<g opacity="0.2">
<path d="M197.54 194.636C197.54 195.568 197.369 196.369 197.028 197.04C196.688 197.707 196.22 198.222 195.626 198.582C195.036 198.94 194.364 199.119 193.611 199.119C192.855 199.119 192.18 198.94 191.587 198.582C190.996 198.222 190.53 197.706 190.189 197.036C189.848 196.365 189.678 195.565 189.678 194.636C189.678 193.705 189.848 192.905 190.189 192.237C190.53 191.567 190.996 191.053 191.587 190.695C192.18 190.334 192.855 190.153 193.611 190.153C194.364 190.153 195.036 190.334 195.626 190.695C196.22 191.053 196.688 191.567 197.028 192.237C197.369 192.905 197.54 193.705 197.54 194.636ZM196.236 194.636C196.236 193.926 196.121 193.328 195.891 192.842C195.663 192.354 195.351 191.984 194.953 191.734C194.558 191.482 194.111 191.355 193.611 191.355C193.108 191.355 192.659 191.482 192.264 191.734C191.869 191.984 191.557 192.354 191.327 192.842C191.099 193.328 190.986 193.926 190.986 194.636C190.986 195.347 191.099 195.946 191.327 196.435C191.557 196.92 191.869 197.29 192.264 197.543C192.659 197.793 193.108 197.918 193.611 197.918C194.111 197.918 194.558 197.793 194.953 197.543C195.351 197.29 195.663 196.92 195.891 196.435C196.121 195.946 196.236 195.347 196.236 194.636ZM200.353 190.273V199H199.079V190.273H200.353ZM202.067 199V192.455H203.342V199H202.067ZM202.711 191.445C202.489 191.445 202.299 191.371 202.14 191.223C201.984 191.072 201.906 190.893 201.906 190.686C201.906 190.476 201.984 190.297 202.14 190.149C202.299 189.999 202.489 189.923 202.711 189.923C202.933 189.923 203.121 189.999 203.278 190.149C203.437 190.297 203.516 190.476 203.516 190.686C203.516 190.893 203.437 191.072 203.278 191.223C203.121 191.371 202.933 191.445 202.711 191.445ZM210.655 192.455L208.282 199H206.918L204.54 192.455H205.908L207.566 197.491H207.634L209.287 192.455H210.655ZM211.853 199V192.455H213.127V199H211.853ZM212.496 191.445C212.275 191.445 212.084 191.371 211.925 191.223C211.769 191.072 211.691 190.893 211.691 190.686C211.691 190.476 211.769 190.297 211.925 190.149C212.084 189.999 212.275 189.923 212.496 189.923C212.718 189.923 212.907 189.999 213.063 190.149C213.222 190.297 213.301 190.476 213.301 190.686C213.301 190.893 213.222 191.072 213.063 191.223C212.907 191.371 212.718 191.445 212.496 191.445ZM216.746 199.145C216.331 199.145 215.956 199.068 215.621 198.915C215.286 198.759 215.02 198.533 214.824 198.237C214.631 197.942 214.534 197.58 214.534 197.151C214.534 196.781 214.605 196.477 214.747 196.239C214.889 196 215.081 195.811 215.322 195.672C215.564 195.533 215.834 195.428 216.132 195.357C216.43 195.286 216.734 195.232 217.044 195.195C217.436 195.149 217.754 195.112 217.999 195.084C218.243 195.053 218.42 195.003 218.531 194.935C218.642 194.866 218.697 194.756 218.697 194.602V194.572C218.697 194.2 218.592 193.912 218.382 193.707C218.175 193.503 217.865 193.401 217.453 193.401C217.024 193.401 216.686 193.496 216.439 193.686C216.195 193.874 216.026 194.082 215.932 194.312L214.734 194.04C214.876 193.642 215.084 193.321 215.357 193.077C215.632 192.83 215.949 192.651 216.307 192.54C216.665 192.426 217.041 192.369 217.436 192.369C217.697 192.369 217.974 192.401 218.267 192.463C218.563 192.523 218.838 192.634 219.094 192.795C219.352 192.957 219.564 193.189 219.729 193.49C219.893 193.788 219.976 194.176 219.976 194.653V199H218.732V198.105H218.68C218.598 198.27 218.474 198.432 218.31 198.591C218.145 198.75 217.933 198.882 217.675 198.987C217.416 199.092 217.107 199.145 216.746 199.145ZM217.023 198.122C217.375 198.122 217.676 198.053 217.926 197.913C218.179 197.774 218.371 197.592 218.501 197.368C218.635 197.141 218.702 196.898 218.702 196.639V195.795C218.656 195.841 218.568 195.884 218.438 195.923C218.31 195.96 218.163 195.993 217.999 196.021C217.834 196.047 217.673 196.071 217.517 196.094C217.361 196.114 217.23 196.131 217.125 196.145C216.878 196.176 216.652 196.229 216.447 196.303C216.246 196.376 216.084 196.483 215.962 196.622C215.842 196.759 215.783 196.94 215.783 197.168C215.783 197.483 215.899 197.722 216.132 197.884C216.365 198.043 216.662 198.122 217.023 198.122ZM224.951 199V190.273H228.062C228.738 190.273 229.299 190.389 229.745 190.622C230.194 190.855 230.529 191.178 230.751 191.589C230.972 191.999 231.083 192.472 231.083 193.009C231.083 193.543 230.971 194.013 230.746 194.419C230.525 194.822 230.19 195.136 229.741 195.361C229.295 195.585 228.734 195.697 228.058 195.697H225.701V194.564H227.938C228.364 194.564 228.711 194.503 228.978 194.381C229.248 194.259 229.445 194.081 229.57 193.848C229.695 193.615 229.758 193.335 229.758 193.009C229.758 192.679 229.694 192.393 229.566 192.152C229.441 191.911 229.244 191.726 228.974 191.598C228.707 191.467 228.356 191.402 227.921 191.402H226.268V199H224.951ZM229.259 195.062L231.415 199H229.915L227.802 195.062H229.259ZM233.857 195.114V199H232.583V190.273H233.84V193.52H233.921C234.075 193.168 234.309 192.888 234.624 192.68C234.94 192.473 235.352 192.369 235.86 192.369C236.309 192.369 236.701 192.462 237.036 192.646C237.374 192.831 237.636 193.107 237.82 193.473C238.008 193.837 238.102 194.291 238.102 194.837V199H236.827V194.99C236.827 194.51 236.704 194.138 236.457 193.874C236.21 193.607 235.866 193.473 235.425 193.473C235.124 193.473 234.854 193.537 234.616 193.665C234.38 193.793 234.194 193.98 234.058 194.227C233.924 194.472 233.857 194.767 233.857 195.114ZM240.373 201.455C240.183 201.455 240.009 201.439 239.853 201.408C239.697 201.379 239.58 201.348 239.504 201.314L239.81 200.27C240.043 200.332 240.251 200.359 240.433 200.351C240.614 200.342 240.775 200.274 240.914 200.146C241.056 200.018 241.181 199.81 241.289 199.52L241.447 199.085L239.052 192.455H240.415L242.073 197.534H242.141L243.799 192.455H245.167L242.469 199.874C242.344 200.214 242.185 200.503 241.992 200.739C241.799 200.977 241.569 201.156 241.302 201.276C241.035 201.395 240.725 201.455 240.373 201.455ZM248.963 199.132C248.318 199.132 247.762 198.994 247.297 198.719C246.833 198.44 246.475 198.05 246.223 197.547C245.973 197.041 245.848 196.449 245.848 195.77C245.848 195.099 245.973 194.509 246.223 193.997C246.475 193.486 246.828 193.087 247.279 192.8C247.734 192.513 248.265 192.369 248.873 192.369C249.243 192.369 249.6 192.43 249.947 192.553C250.294 192.675 250.605 192.866 250.88 193.128C251.156 193.389 251.373 193.729 251.532 194.146C251.691 194.561 251.771 195.065 251.771 195.659V196.111H246.568V195.156H250.522C250.522 194.821 250.454 194.524 250.318 194.266C250.181 194.004 249.99 193.798 249.743 193.648C249.498 193.497 249.211 193.422 248.882 193.422C248.524 193.422 248.211 193.51 247.944 193.686C247.68 193.859 247.475 194.087 247.331 194.368C247.189 194.646 247.118 194.949 247.118 195.276V196.021C247.118 196.459 247.194 196.831 247.348 197.138C247.504 197.445 247.721 197.679 248 197.841C248.278 198 248.603 198.08 248.975 198.08C249.217 198.08 249.437 198.045 249.636 197.977C249.835 197.906 250.007 197.801 250.152 197.662C250.297 197.523 250.407 197.351 250.484 197.146L251.69 197.364C251.593 197.719 251.42 198.03 251.17 198.297C250.923 198.561 250.612 198.767 250.237 198.915C249.865 199.06 249.44 199.132 248.963 199.132Z" fill="#484D57"/>
<path d="M192.58 217.136C191.989 217.136 191.47 216.996 191.024 216.714C190.581 216.433 190.234 216.04 189.984 215.534C189.737 215.028 189.614 214.437 189.614 213.761C189.614 213.08 189.737 212.484 189.984 211.976C190.234 211.467 190.581 211.072 191.024 210.791C191.47 210.51 191.989 210.369 192.58 210.369C193.17 210.369 193.688 210.51 194.131 210.791C194.577 211.072 194.923 211.467 195.17 211.976C195.42 212.484 195.545 213.08 195.545 213.761C195.545 214.437 195.42 215.028 195.17 215.534C194.923 216.04 194.577 216.433 194.131 216.714C193.688 216.996 193.17 217.136 192.58 217.136ZM192.58 216.233C193.028 216.233 193.398 216.118 193.688 215.888C193.977 215.658 194.192 215.355 194.331 214.98C194.47 214.605 194.54 214.199 194.54 213.761C194.54 213.324 194.47 212.916 194.331 212.538C194.192 212.161 193.977 211.855 193.688 211.622C193.398 211.389 193.028 211.273 192.58 211.273C192.131 211.273 191.761 211.389 191.472 211.622C191.182 211.855 190.967 212.161 190.828 212.538C190.689 212.916 190.619 213.324 190.619 213.761C190.619 214.199 190.689 214.605 190.828 214.98C190.967 215.355 191.182 215.658 191.472 215.888C191.761 216.118 192.131 216.233 192.58 216.233ZM198.086 208.273V217H197.081V208.273H198.086ZM199.928 217V210.455H200.934V217H199.928ZM200.44 209.364C200.244 209.364 200.075 209.297 199.933 209.163C199.793 209.03 199.724 208.869 199.724 208.682C199.724 208.494 199.793 208.334 199.933 208.2C200.075 208.067 200.244 208 200.44 208C200.636 208 200.803 208.067 200.942 208.2C201.085 208.334 201.156 208.494 201.156 208.682C201.156 208.869 201.085 209.03 200.942 209.163C200.803 209.297 200.636 209.364 200.44 209.364ZM208.128 210.455L205.708 217H204.685L202.265 210.455H203.355L205.162 215.67H205.23L207.037 210.455H208.128ZM209.456 217V210.455H210.461V217H209.456ZM209.967 209.364C209.771 209.364 209.602 209.297 209.46 209.163C209.321 209.03 209.251 208.869 209.251 208.682C209.251 208.494 209.321 208.334 209.46 208.2C209.602 208.067 209.771 208 209.967 208C210.163 208 210.331 208.067 210.47 208.2C210.612 208.334 210.683 208.494 210.683 208.682C210.683 208.869 210.612 209.03 210.47 209.163C210.331 209.297 210.163 209.364 209.967 209.364ZM214.229 217.153C213.815 217.153 213.438 217.075 213.1 216.919C212.762 216.76 212.494 216.531 212.295 216.233C212.096 215.932 211.996 215.568 211.996 215.142C211.996 214.767 212.07 214.463 212.218 214.23C212.366 213.994 212.563 213.81 212.81 213.676C213.058 213.543 213.33 213.443 213.629 213.378C213.93 213.31 214.232 213.256 214.536 213.216C214.934 213.165 215.256 213.126 215.504 213.101C215.754 213.072 215.935 213.026 216.049 212.96C216.165 212.895 216.224 212.781 216.224 212.619V212.585C216.224 212.165 216.109 211.838 215.879 211.605C215.651 211.372 215.306 211.256 214.843 211.256C214.363 211.256 213.987 211.361 213.714 211.571C213.441 211.781 213.249 212.006 213.138 212.244L212.184 211.903C212.354 211.506 212.582 211.196 212.866 210.974C213.153 210.75 213.465 210.594 213.803 210.506C214.144 210.415 214.479 210.369 214.809 210.369C215.019 210.369 215.261 210.395 215.533 210.446C215.809 210.494 216.075 210.595 216.33 210.749C216.589 210.902 216.803 211.134 216.974 211.443C217.144 211.753 217.229 212.168 217.229 212.688V217H216.224V216.114H216.173C216.104 216.256 215.991 216.408 215.832 216.57C215.673 216.732 215.461 216.869 215.197 216.983C214.933 217.097 214.61 217.153 214.229 217.153ZM214.383 216.25C214.781 216.25 215.116 216.172 215.388 216.016C215.664 215.859 215.871 215.658 216.011 215.411C216.153 215.163 216.224 214.903 216.224 214.631V213.71C216.181 213.761 216.087 213.808 215.942 213.851C215.8 213.891 215.636 213.926 215.448 213.957C215.263 213.986 215.083 214.011 214.907 214.034C214.734 214.054 214.593 214.071 214.485 214.085C214.224 214.119 213.979 214.175 213.752 214.251C213.528 214.325 213.346 214.437 213.207 214.588C213.07 214.736 213.002 214.937 213.002 215.193C213.002 215.543 213.131 215.807 213.39 215.986C213.651 216.162 213.982 216.25 214.383 216.25ZM224.093 219.301C223.224 219.301 222.456 219.182 221.788 218.943C221.12 218.707 220.559 218.359 220.105 217.899C219.65 217.439 219.306 216.875 219.074 216.207C218.841 215.54 218.724 214.776 218.724 213.915C218.724 213.082 218.842 212.338 219.078 211.682C219.316 211.026 219.662 210.469 220.113 210.011C220.568 209.551 221.119 209.2 221.767 208.959C222.417 208.717 223.153 208.597 223.974 208.597C224.772 208.597 225.471 208.727 226.071 208.989C226.673 209.247 227.176 209.598 227.579 210.041C227.985 210.482 228.289 210.977 228.491 211.528C228.696 212.08 228.798 212.648 228.798 213.233C228.798 213.645 228.778 214.062 228.738 214.486C228.699 214.909 228.615 215.298 228.487 215.653C228.359 216.006 228.162 216.29 227.895 216.506C227.63 216.722 227.272 216.83 226.821 216.83C226.622 216.83 226.403 216.798 226.164 216.736C225.926 216.673 225.714 216.57 225.529 216.425C225.345 216.28 225.235 216.085 225.201 215.841H225.15C225.082 216.006 224.977 216.162 224.835 216.31C224.696 216.457 224.512 216.575 224.285 216.663C224.061 216.751 223.787 216.79 223.463 216.778C223.093 216.764 222.768 216.682 222.487 216.531C222.206 216.378 221.97 216.17 221.779 215.909C221.592 215.645 221.45 215.339 221.353 214.993C221.26 214.643 221.213 214.267 221.213 213.864C221.213 213.48 221.27 213.129 221.383 212.811C221.497 212.493 221.654 212.214 221.856 211.976C222.061 211.737 222.299 211.547 222.572 211.405C222.848 211.26 223.145 211.17 223.463 211.136C223.747 211.108 224.005 211.121 224.238 211.175C224.471 211.226 224.663 211.304 224.814 211.409C224.964 211.511 225.059 211.625 225.099 211.75H225.15V211.273H226.054V215.125C226.054 215.364 226.12 215.574 226.254 215.756C226.387 215.937 226.582 216.028 226.838 216.028C227.127 216.028 227.349 215.929 227.502 215.73C227.659 215.531 227.765 215.224 227.822 214.81C227.882 214.395 227.912 213.864 227.912 213.216C227.912 212.835 227.859 212.46 227.754 212.091C227.652 211.719 227.495 211.371 227.285 211.047C227.078 210.723 226.815 210.437 226.497 210.19C226.179 209.943 225.805 209.75 225.376 209.611C224.95 209.469 224.466 209.398 223.923 209.398C223.255 209.398 222.657 209.501 222.129 209.709C221.603 209.913 221.156 210.213 220.787 210.608C220.42 211 220.14 211.477 219.947 212.04C219.757 212.599 219.662 213.236 219.662 213.949C219.662 214.673 219.757 215.317 219.947 215.879C220.14 216.442 220.424 216.916 220.799 217.303C221.177 217.689 221.645 217.982 222.201 218.18C222.758 218.382 223.4 218.483 224.127 218.483C224.44 218.483 224.748 218.453 225.052 218.393C225.356 218.334 225.625 218.268 225.858 218.197C226.091 218.126 226.258 218.074 226.36 218.04L226.599 218.824C226.423 218.898 226.193 218.972 225.909 219.045C225.627 219.119 225.326 219.18 225.005 219.229C224.687 219.277 224.383 219.301 224.093 219.301ZM223.599 215.909C223.98 215.909 224.288 215.832 224.524 215.679C224.76 215.526 224.931 215.294 225.039 214.984C225.147 214.675 225.201 214.284 225.201 213.812C225.201 213.335 225.142 212.963 225.022 212.696C224.903 212.429 224.727 212.241 224.494 212.134C224.261 212.026 223.974 211.972 223.633 211.972C223.309 211.972 223.032 212.057 222.802 212.227C222.575 212.395 222.4 212.619 222.278 212.901C222.159 213.179 222.099 213.483 222.099 213.812C222.099 214.176 222.147 214.518 222.244 214.839C222.341 215.158 222.498 215.416 222.717 215.615C222.936 215.811 223.23 215.909 223.599 215.909ZM234.428 214.324V210.455H235.434V217H234.428V215.892H234.36C234.207 216.224 233.968 216.507 233.644 216.74C233.32 216.97 232.911 217.085 232.417 217.085C232.008 217.085 231.644 216.996 231.326 216.817C231.008 216.635 230.758 216.362 230.576 215.999C230.394 215.632 230.303 215.17 230.303 214.614V210.455H231.309V214.545C231.309 215.023 231.442 215.403 231.71 215.688C231.979 215.972 232.323 216.114 232.741 216.114C232.991 216.114 233.245 216.05 233.504 215.922C233.765 215.794 233.984 215.598 234.16 215.334C234.339 215.07 234.428 214.733 234.428 214.324ZM238.282 213.062V217H237.276V210.455H238.248V211.477H238.333C238.486 211.145 238.719 210.878 239.032 210.676C239.344 210.472 239.748 210.369 240.242 210.369C240.685 210.369 241.073 210.46 241.405 210.642C241.738 210.821 241.996 211.094 242.181 211.46C242.365 211.824 242.458 212.284 242.458 212.841V217H241.452V212.909C241.452 212.395 241.319 211.994 241.051 211.707C240.784 211.418 240.418 211.273 239.952 211.273C239.631 211.273 239.344 211.342 239.091 211.482C238.841 211.621 238.644 211.824 238.499 212.091C238.354 212.358 238.282 212.682 238.282 213.062ZM247.142 210.455V211.307H243.75V210.455H247.142ZM244.739 208.886H245.744V215.125C245.744 215.409 245.786 215.622 245.868 215.764C245.953 215.903 246.061 215.997 246.192 216.045C246.325 216.091 246.466 216.114 246.614 216.114C246.724 216.114 246.815 216.108 246.886 216.097C246.957 216.082 247.014 216.071 247.057 216.062L247.261 216.966C247.193 216.991 247.098 217.017 246.976 217.043C246.854 217.071 246.699 217.085 246.511 217.085C246.227 217.085 245.949 217.024 245.676 216.902C245.406 216.78 245.182 216.594 245.003 216.344C244.827 216.094 244.739 215.778 244.739 215.398V208.886ZM248.655 217V210.455H249.661V217H248.655ZM249.166 209.364C248.97 209.364 248.801 209.297 248.659 209.163C248.52 209.03 248.45 208.869 248.45 208.682C248.45 208.494 248.52 208.334 248.659 208.2C248.801 208.067 248.97 208 249.166 208C249.362 208 249.53 208.067 249.669 208.2C249.811 208.334 249.882 208.494 249.882 208.682C249.882 208.869 249.811 209.03 249.669 209.163C249.53 209.297 249.362 209.364 249.166 209.364ZM254.349 210.455V211.307H250.957V210.455H254.349ZM251.946 208.886H252.951V215.125C252.951 215.409 252.993 215.622 253.075 215.764C253.16 215.903 253.268 215.997 253.399 216.045C253.532 216.091 253.673 216.114 253.821 216.114C253.931 216.114 254.022 216.108 254.093 216.097C254.164 216.082 254.221 216.071 254.264 216.062L254.468 216.966C254.4 216.991 254.305 217.017 254.183 217.043C254.061 217.071 253.906 217.085 253.718 217.085C253.434 217.085 253.156 217.024 252.883 216.902C252.613 216.78 252.389 216.594 252.21 216.344C252.034 216.094 251.946 215.778 251.946 215.398V208.886ZM257.008 208.273V217H256.002V208.273H257.008ZM261.594 217.136C260.964 217.136 260.42 216.997 259.962 216.719C259.508 216.438 259.157 216.045 258.91 215.543C258.665 215.037 258.543 214.449 258.543 213.778C258.543 213.108 258.665 212.517 258.91 212.006C259.157 211.491 259.501 211.091 259.941 210.804C260.384 210.514 260.901 210.369 261.492 210.369C261.833 210.369 262.17 210.426 262.502 210.54C262.835 210.653 263.137 210.838 263.41 211.094C263.683 211.347 263.9 211.682 264.062 212.099C264.224 212.517 264.305 213.031 264.305 213.642V214.068H259.259V213.199H263.282C263.282 212.83 263.208 212.5 263.06 212.21C262.915 211.92 262.708 211.692 262.438 211.524C262.171 211.357 261.856 211.273 261.492 211.273C261.092 211.273 260.745 211.372 260.452 211.571C260.163 211.767 259.94 212.023 259.783 212.338C259.627 212.653 259.549 212.991 259.549 213.352V213.932C259.549 214.426 259.634 214.845 259.805 215.189C259.978 215.53 260.218 215.79 260.525 215.969C260.832 216.145 261.188 216.233 261.594 216.233C261.859 216.233 262.097 216.196 262.31 216.122C262.526 216.045 262.712 215.932 262.869 215.781C263.025 215.628 263.146 215.437 263.231 215.21L264.202 215.483C264.1 215.812 263.928 216.102 263.687 216.352C263.445 216.599 263.147 216.793 262.792 216.932C262.437 217.068 262.038 217.136 261.594 217.136ZM268.306 217.136C267.761 217.136 267.279 216.999 266.862 216.723C266.444 216.445 266.117 216.053 265.881 215.547C265.646 215.038 265.528 214.438 265.528 213.744C265.528 213.057 265.646 212.46 265.881 211.955C266.117 211.449 266.445 211.058 266.866 210.783C267.286 210.507 267.772 210.369 268.323 210.369C268.749 210.369 269.086 210.44 269.333 210.582C269.583 210.722 269.773 210.881 269.904 211.06C270.038 211.236 270.141 211.381 270.215 211.494H270.3V208.273H271.306V217H270.335V215.994H270.215C270.141 216.114 270.036 216.264 269.9 216.446C269.763 216.625 269.569 216.786 269.316 216.928C269.063 217.067 268.727 217.136 268.306 217.136ZM268.442 216.233C268.846 216.233 269.187 216.128 269.465 215.918C269.744 215.705 269.955 215.411 270.1 215.036C270.245 214.658 270.317 214.222 270.317 213.727C270.317 213.239 270.246 212.811 270.104 212.445C269.962 212.075 269.752 211.788 269.474 211.584C269.195 211.376 268.852 211.273 268.442 211.273C268.016 211.273 267.661 211.382 267.377 211.601C267.096 211.817 266.884 212.111 266.742 212.483C266.603 212.852 266.533 213.267 266.533 213.727C266.533 214.193 266.604 214.616 266.746 214.997C266.891 215.375 267.104 215.676 267.386 215.901C267.67 216.122 268.022 216.233 268.442 216.233ZM277.413 214.324V210.455H278.418V217H277.413V215.892H277.344C277.191 216.224 276.952 216.507 276.629 216.74C276.305 216.97 275.896 217.085 275.401 217.085C274.992 217.085 274.629 216.996 274.31 216.817C273.992 216.635 273.742 216.362 273.56 215.999C273.379 215.632 273.288 215.17 273.288 214.614V210.455H274.293V214.545C274.293 215.023 274.427 215.403 274.694 215.688C274.964 215.972 275.308 216.114 275.725 216.114C275.975 216.114 276.229 216.05 276.488 215.922C276.749 215.794 276.968 215.598 277.144 215.334C277.323 215.07 277.413 214.733 277.413 214.324ZM280.26 217V210.455H281.266V217H280.26ZM280.772 209.364C280.576 209.364 280.407 209.297 280.265 209.163C280.125 209.03 280.056 208.869 280.056 208.682C280.056 208.494 280.125 208.334 280.265 208.2C280.407 208.067 280.576 208 280.772 208C280.968 208 281.135 208.067 281.275 208.2C281.417 208.334 281.488 208.494 281.488 208.682C281.488 208.869 281.417 209.03 281.275 209.163C281.135 209.297 280.968 209.364 280.772 209.364ZM283.841 217.068C283.631 217.068 283.45 216.993 283.3 216.842C283.149 216.692 283.074 216.511 283.074 216.301C283.074 216.091 283.149 215.911 283.3 215.76C283.45 215.609 283.631 215.534 283.841 215.534C284.051 215.534 284.232 215.609 284.382 215.76C284.533 215.911 284.608 216.091 284.608 216.301C284.608 216.44 284.572 216.568 284.501 216.685C284.433 216.801 284.341 216.895 284.224 216.966C284.111 217.034 283.983 217.068 283.841 217.068ZM289.072 217.136C288.458 217.136 287.93 216.991 287.487 216.702C287.043 216.412 286.702 216.013 286.464 215.504C286.225 214.996 286.106 214.415 286.106 213.761C286.106 213.097 286.228 212.51 286.472 212.001C286.719 211.49 287.063 211.091 287.504 210.804C287.947 210.514 288.464 210.369 289.055 210.369C289.515 210.369 289.93 210.455 290.299 210.625C290.668 210.795 290.971 211.034 291.207 211.341C291.442 211.648 291.589 212.006 291.646 212.415H290.64C290.563 212.116 290.393 211.852 290.129 211.622C289.867 211.389 289.515 211.273 289.072 211.273C288.68 211.273 288.336 211.375 288.04 211.58C287.748 211.781 287.519 212.067 287.354 212.436C287.192 212.803 287.112 213.233 287.112 213.727C287.112 214.233 287.191 214.673 287.35 215.048C287.512 215.423 287.739 215.714 288.032 215.922C288.327 216.129 288.674 216.233 289.072 216.233C289.333 216.233 289.57 216.188 289.783 216.097C289.996 216.006 290.177 215.875 290.325 215.705C290.472 215.534 290.577 215.33 290.64 215.091H291.646C291.589 215.477 291.448 215.825 291.224 216.135C291.002 216.442 290.708 216.686 290.342 216.868C289.978 217.047 289.555 217.136 289.072 217.136ZM295.775 217.136C295.184 217.136 294.665 216.996 294.219 216.714C293.776 216.433 293.43 216.04 293.18 215.534C292.933 215.028 292.809 214.437 292.809 213.761C292.809 213.08 292.933 212.484 293.18 211.976C293.43 211.467 293.776 211.072 294.219 210.791C294.665 210.51 295.184 210.369 295.775 210.369C296.366 210.369 296.883 210.51 297.326 210.791C297.772 211.072 298.119 211.467 298.366 211.976C298.616 212.484 298.741 213.08 298.741 213.761C298.741 214.437 298.616 215.028 298.366 215.534C298.119 216.04 297.772 216.433 297.326 216.714C296.883 216.996 296.366 217.136 295.775 217.136ZM295.775 216.233C296.224 216.233 296.593 216.118 296.883 215.888C297.173 215.658 297.387 215.355 297.526 214.98C297.665 214.605 297.735 214.199 297.735 213.761C297.735 213.324 297.665 212.916 297.526 212.538C297.387 212.161 297.173 211.855 296.883 211.622C296.593 211.389 296.224 211.273 295.775 211.273C295.326 211.273 294.957 211.389 294.667 211.622C294.377 211.855 294.163 212.161 294.023 212.538C293.884 212.916 293.815 213.324 293.815 213.761C293.815 214.199 293.884 214.605 294.023 214.98C294.163 215.355 294.377 215.658 294.667 215.888C294.957 216.118 295.326 216.233 295.775 216.233ZM300.276 217V210.455H301.248V211.477H301.333C301.469 211.128 301.689 210.857 301.993 210.663C302.297 210.467 302.662 210.369 303.088 210.369C303.52 210.369 303.88 210.467 304.167 210.663C304.456 210.857 304.682 211.128 304.844 211.477H304.912C305.08 211.139 305.331 210.871 305.667 210.672C306.002 210.47 306.404 210.369 306.873 210.369C307.458 210.369 307.936 210.553 308.309 210.919C308.681 211.283 308.867 211.849 308.867 212.619V217H307.861V212.619C307.861 212.136 307.729 211.791 307.465 211.584C307.201 211.376 306.89 211.273 306.532 211.273C306.071 211.273 305.715 211.412 305.462 211.69C305.209 211.966 305.083 212.315 305.083 212.739V217H304.06V212.517C304.06 212.145 303.939 211.845 303.698 211.618C303.456 211.388 303.145 211.273 302.765 211.273C302.503 211.273 302.259 211.342 302.032 211.482C301.807 211.621 301.625 211.814 301.486 212.061C301.35 212.305 301.282 212.588 301.282 212.909V217H300.276Z" fill="#9BA0A5"/>
<path d="M485 239H165V241H485V239Z" fill="#EAECF0" mask="url(#path-2-inside-1_893_33969)"/>
</g>
<g opacity="0.2">
<path d="M197.54 194.636C197.54 195.568 197.369 196.369 197.028 197.04C196.688 197.707 196.22 198.222 195.626 198.582C195.036 198.94 194.364 199.119 193.611 199.119C192.855 199.119 192.18 198.94 191.587 198.582C190.996 198.222 190.53 197.706 190.189 197.036C189.848 196.365 189.678 195.565 189.678 194.636C189.678 193.705 189.848 192.905 190.189 192.237C190.53 191.567 190.996 191.053 191.587 190.695C192.18 190.334 192.855 190.153 193.611 190.153C194.364 190.153 195.036 190.334 195.626 190.695C196.22 191.053 196.688 191.567 197.028 192.237C197.369 192.905 197.54 193.705 197.54 194.636ZM196.236 194.636C196.236 193.926 196.121 193.328 195.891 192.842C195.663 192.354 195.351 191.984 194.953 191.734C194.558 191.482 194.111 191.355 193.611 191.355C193.108 191.355 192.659 191.482 192.264 191.734C191.869 191.984 191.557 192.354 191.327 192.842C191.099 193.328 190.986 193.926 190.986 194.636C190.986 195.347 191.099 195.946 191.327 196.435C191.557 196.92 191.869 197.29 192.264 197.543C192.659 197.793 193.108 197.918 193.611 197.918C194.111 197.918 194.558 197.793 194.953 197.543C195.351 197.29 195.663 196.92 195.891 196.435C196.121 195.946 196.236 195.347 196.236 194.636ZM200.353 190.273V199H199.079V190.273H200.353ZM202.067 199V192.455H203.342V199H202.067ZM202.711 191.445C202.489 191.445 202.299 191.371 202.14 191.223C201.984 191.072 201.906 190.893 201.906 190.686C201.906 190.476 201.984 190.297 202.14 190.149C202.299 189.999 202.489 189.923 202.711 189.923C202.933 189.923 203.121 189.999 203.278 190.149C203.437 190.297 203.516 190.476 203.516 190.686C203.516 190.893 203.437 191.072 203.278 191.223C203.121 191.371 202.933 191.445 202.711 191.445ZM210.655 192.455L208.282 199H206.918L204.54 192.455H205.908L207.566 197.491H207.634L209.287 192.455H210.655ZM211.853 199V192.455H213.127V199H211.853ZM212.496 191.445C212.275 191.445 212.084 191.371 211.925 191.223C211.769 191.072 211.691 190.893 211.691 190.686C211.691 190.476 211.769 190.297 211.925 190.149C212.084 189.999 212.275 189.923 212.496 189.923C212.718 189.923 212.907 189.999 213.063 190.149C213.222 190.297 213.301 190.476 213.301 190.686C213.301 190.893 213.222 191.072 213.063 191.223C212.907 191.371 212.718 191.445 212.496 191.445ZM216.746 199.145C216.331 199.145 215.956 199.068 215.621 198.915C215.286 198.759 215.02 198.533 214.824 198.237C214.631 197.942 214.534 197.58 214.534 197.151C214.534 196.781 214.605 196.477 214.747 196.239C214.889 196 215.081 195.811 215.322 195.672C215.564 195.533 215.834 195.428 216.132 195.357C216.43 195.286 216.734 195.232 217.044 195.195C217.436 195.149 217.754 195.112 217.999 195.084C218.243 195.053 218.42 195.003 218.531 194.935C218.642 194.866 218.697 194.756 218.697 194.602V194.572C218.697 194.2 218.592 193.912 218.382 193.707C218.175 193.503 217.865 193.401 217.453 193.401C217.024 193.401 216.686 193.496 216.439 193.686C216.195 193.874 216.026 194.082 215.932 194.312L214.734 194.04C214.876 193.642 215.084 193.321 215.357 193.077C215.632 192.83 215.949 192.651 216.307 192.54C216.665 192.426 217.041 192.369 217.436 192.369C217.697 192.369 217.974 192.401 218.267 192.463C218.563 192.523 218.838 192.634 219.094 192.795C219.352 192.957 219.564 193.189 219.729 193.49C219.893 193.788 219.976 194.176 219.976 194.653V199H218.732V198.105H218.68C218.598 198.27 218.474 198.432 218.31 198.591C218.145 198.75 217.933 198.882 217.675 198.987C217.416 199.092 217.107 199.145 216.746 199.145ZM217.023 198.122C217.375 198.122 217.676 198.053 217.926 197.913C218.179 197.774 218.371 197.592 218.501 197.368C218.635 197.141 218.702 196.898 218.702 196.639V195.795C218.656 195.841 218.568 195.884 218.438 195.923C218.31 195.96 218.163 195.993 217.999 196.021C217.834 196.047 217.673 196.071 217.517 196.094C217.361 196.114 217.23 196.131 217.125 196.145C216.878 196.176 216.652 196.229 216.447 196.303C216.246 196.376 216.084 196.483 215.962 196.622C215.842 196.759 215.783 196.94 215.783 197.168C215.783 197.483 215.899 197.722 216.132 197.884C216.365 198.043 216.662 198.122 217.023 198.122ZM224.951 199V190.273H228.062C228.738 190.273 229.299 190.389 229.745 190.622C230.194 190.855 230.529 191.178 230.751 191.589C230.972 191.999 231.083 192.472 231.083 193.009C231.083 193.543 230.971 194.013 230.746 194.419C230.525 194.822 230.19 195.136 229.741 195.361C229.295 195.585 228.734 195.697 228.058 195.697H225.701V194.564H227.938C228.364 194.564 228.711 194.503 228.978 194.381C229.248 194.259 229.445 194.081 229.57 193.848C229.695 193.615 229.758 193.335 229.758 193.009C229.758 192.679 229.694 192.393 229.566 192.152C229.441 191.911 229.244 191.726 228.974 191.598C228.707 191.467 228.356 191.402 227.921 191.402H226.268V199H224.951ZM229.259 195.062L231.415 199H229.915L227.802 195.062H229.259ZM233.857 195.114V199H232.583V190.273H233.84V193.52H233.921C234.075 193.168 234.309 192.888 234.624 192.68C234.94 192.473 235.352 192.369 235.86 192.369C236.309 192.369 236.701 192.462 237.036 192.646C237.374 192.831 237.636 193.107 237.82 193.473C238.008 193.837 238.102 194.291 238.102 194.837V199H236.827V194.99C236.827 194.51 236.704 194.138 236.457 193.874C236.21 193.607 235.866 193.473 235.425 193.473C235.124 193.473 234.854 193.537 234.616 193.665C234.38 193.793 234.194 193.98 234.058 194.227C233.924 194.472 233.857 194.767 233.857 195.114ZM240.373 201.455C240.183 201.455 240.009 201.439 239.853 201.408C239.697 201.379 239.58 201.348 239.504 201.314L239.81 200.27C240.043 200.332 240.251 200.359 240.433 200.351C240.614 200.342 240.775 200.274 240.914 200.146C241.056 200.018 241.181 199.81 241.289 199.52L241.447 199.085L239.052 192.455H240.415L242.073 197.534H242.141L243.799 192.455H245.167L242.469 199.874C242.344 200.214 242.185 200.503 241.992 200.739C241.799 200.977 241.569 201.156 241.302 201.276C241.035 201.395 240.725 201.455 240.373 201.455ZM248.963 199.132C248.318 199.132 247.762 198.994 247.297 198.719C246.833 198.44 246.475 198.05 246.223 197.547C245.973 197.041 245.848 196.449 245.848 195.77C245.848 195.099 245.973 194.509 246.223 193.997C246.475 193.486 246.828 193.087 247.279 192.8C247.734 192.513 248.265 192.369 248.873 192.369C249.243 192.369 249.6 192.43 249.947 192.553C250.294 192.675 250.605 192.866 250.88 193.128C251.156 193.389 251.373 193.729 251.532 194.146C251.691 194.561 251.771 195.065 251.771 195.659V196.111H246.568V195.156H250.522C250.522 194.821 250.454 194.524 250.318 194.266C250.181 194.004 249.99 193.798 249.743 193.648C249.498 193.497 249.211 193.422 248.882 193.422C248.524 193.422 248.211 193.51 247.944 193.686C247.68 193.859 247.475 194.087 247.331 194.368C247.189 194.646 247.118 194.949 247.118 195.276V196.021C247.118 196.459 247.194 196.831 247.348 197.138C247.504 197.445 247.721 197.679 248 197.841C248.278 198 248.603 198.08 248.975 198.08C249.217 198.08 249.437 198.045 249.636 197.977C249.835 197.906 250.007 197.801 250.152 197.662C250.297 197.523 250.407 197.351 250.484 197.146L251.69 197.364C251.593 197.719 251.42 198.03 251.17 198.297C250.923 198.561 250.612 198.767 250.237 198.915C249.865 199.06 249.44 199.132 248.963 199.132Z" fill="#484D57"/>
<path d="M192.58 217.136C191.989 217.136 191.47 216.996 191.024 216.714C190.581 216.433 190.234 216.04 189.984 215.534C189.737 215.028 189.614 214.437 189.614 213.761C189.614 213.08 189.737 212.484 189.984 211.976C190.234 211.467 190.581 211.072 191.024 210.791C191.47 210.51 191.989 210.369 192.58 210.369C193.17 210.369 193.688 210.51 194.131 210.791C194.577 211.072 194.923 211.467 195.17 211.976C195.42 212.484 195.545 213.08 195.545 213.761C195.545 214.437 195.42 215.028 195.17 215.534C194.923 216.04 194.577 216.433 194.131 216.714C193.688 216.996 193.17 217.136 192.58 217.136ZM192.58 216.233C193.028 216.233 193.398 216.118 193.688 215.888C193.977 215.658 194.192 215.355 194.331 214.98C194.47 214.605 194.54 214.199 194.54 213.761C194.54 213.324 194.47 212.916 194.331 212.538C194.192 212.161 193.977 211.855 193.688 211.622C193.398 211.389 193.028 211.273 192.58 211.273C192.131 211.273 191.761 211.389 191.472 211.622C191.182 211.855 190.967 212.161 190.828 212.538C190.689 212.916 190.619 213.324 190.619 213.761C190.619 214.199 190.689 214.605 190.828 214.98C190.967 215.355 191.182 215.658 191.472 215.888C191.761 216.118 192.131 216.233 192.58 216.233ZM198.086 208.273V217H197.081V208.273H198.086ZM199.928 217V210.455H200.934V217H199.928ZM200.44 209.364C200.244 209.364 200.075 209.297 199.933 209.163C199.793 209.03 199.724 208.869 199.724 208.682C199.724 208.494 199.793 208.334 199.933 208.2C200.075 208.067 200.244 208 200.44 208C200.636 208 200.803 208.067 200.942 208.2C201.085 208.334 201.156 208.494 201.156 208.682C201.156 208.869 201.085 209.03 200.942 209.163C200.803 209.297 200.636 209.364 200.44 209.364ZM208.128 210.455L205.708 217H204.685L202.265 210.455H203.355L205.162 215.67H205.23L207.037 210.455H208.128ZM209.456 217V210.455H210.461V217H209.456ZM209.967 209.364C209.771 209.364 209.602 209.297 209.46 209.163C209.321 209.03 209.251 208.869 209.251 208.682C209.251 208.494 209.321 208.334 209.46 208.2C209.602 208.067 209.771 208 209.967 208C210.163 208 210.331 208.067 210.47 208.2C210.612 208.334 210.683 208.494 210.683 208.682C210.683 208.869 210.612 209.03 210.47 209.163C210.331 209.297 210.163 209.364 209.967 209.364ZM214.229 217.153C213.815 217.153 213.438 217.075 213.1 216.919C212.762 216.76 212.494 216.531 212.295 216.233C212.096 215.932 211.996 215.568 211.996 215.142C211.996 214.767 212.07 214.463 212.218 214.23C212.366 213.994 212.563 213.81 212.81 213.676C213.058 213.543 213.33 213.443 213.629 213.378C213.93 213.31 214.232 213.256 214.536 213.216C214.934 213.165 215.256 213.126 215.504 213.101C215.754 213.072 215.935 213.026 216.049 212.96C216.165 212.895 216.224 212.781 216.224 212.619V212.585C216.224 212.165 216.109 211.838 215.879 211.605C215.651 211.372 215.306 211.256 214.843 211.256C214.363 211.256 213.987 211.361 213.714 211.571C213.441 211.781 213.249 212.006 213.138 212.244L212.184 211.903C212.354 211.506 212.582 211.196 212.866 210.974C213.153 210.75 213.465 210.594 213.803 210.506C214.144 210.415 214.479 210.369 214.809 210.369C215.019 210.369 215.261 210.395 215.533 210.446C215.809 210.494 216.075 210.595 216.33 210.749C216.589 210.902 216.803 211.134 216.974 211.443C217.144 211.753 217.229 212.168 217.229 212.688V217H216.224V216.114H216.173C216.104 216.256 215.991 216.408 215.832 216.57C215.673 216.732 215.461 216.869 215.197 216.983C214.933 217.097 214.61 217.153 214.229 217.153ZM214.383 216.25C214.781 216.25 215.116 216.172 215.388 216.016C215.664 215.859 215.871 215.658 216.011 215.411C216.153 215.163 216.224 214.903 216.224 214.631V213.71C216.181 213.761 216.087 213.808 215.942 213.851C215.8 213.891 215.636 213.926 215.448 213.957C215.263 213.986 215.083 214.011 214.907 214.034C214.734 214.054 214.593 214.071 214.485 214.085C214.224 214.119 213.979 214.175 213.752 214.251C213.528 214.325 213.346 214.437 213.207 214.588C213.07 214.736 213.002 214.937 213.002 215.193C213.002 215.543 213.131 215.807 213.39 215.986C213.651 216.162 213.982 216.25 214.383 216.25ZM224.093 219.301C223.224 219.301 222.456 219.182 221.788 218.943C221.12 218.707 220.559 218.359 220.105 217.899C219.65 217.439 219.306 216.875 219.074 216.207C218.841 215.54 218.724 214.776 218.724 213.915C218.724 213.082 218.842 212.338 219.078 211.682C219.316 211.026 219.662 210.469 220.113 210.011C220.568 209.551 221.119 209.2 221.767 208.959C222.417 208.717 223.153 208.597 223.974 208.597C224.772 208.597 225.471 208.727 226.071 208.989C226.673 209.247 227.176 209.598 227.579 210.041C227.985 210.482 228.289 210.977 228.491 211.528C228.696 212.08 228.798 212.648 228.798 213.233C228.798 213.645 228.778 214.062 228.738 214.486C228.699 214.909 228.615 215.298 228.487 215.653C228.359 216.006 228.162 216.29 227.895 216.506C227.63 216.722 227.272 216.83 226.821 216.83C226.622 216.83 226.403 216.798 226.164 216.736C225.926 216.673 225.714 216.57 225.529 216.425C225.345 216.28 225.235 216.085 225.201 215.841H225.15C225.082 216.006 224.977 216.162 224.835 216.31C224.696 216.457 224.512 216.575 224.285 216.663C224.061 216.751 223.787 216.79 223.463 216.778C223.093 216.764 222.768 216.682 222.487 216.531C222.206 216.378 221.97 216.17 221.779 215.909C221.592 215.645 221.45 215.339 221.353 214.993C221.26 214.643 221.213 214.267 221.213 213.864C221.213 213.48 221.27 213.129 221.383 212.811C221.497 212.493 221.654 212.214 221.856 211.976C222.061 211.737 222.299 211.547 222.572 211.405C222.848 211.26 223.145 211.17 223.463 211.136C223.747 211.108 224.005 211.121 224.238 211.175C224.471 211.226 224.663 211.304 224.814 211.409C224.964 211.511 225.059 211.625 225.099 211.75H225.15V211.273H226.054V215.125C226.054 215.364 226.12 215.574 226.254 215.756C226.387 215.937 226.582 216.028 226.838 216.028C227.127 216.028 227.349 215.929 227.502 215.73C227.659 215.531 227.765 215.224 227.822 214.81C227.882 214.395 227.912 213.864 227.912 213.216C227.912 212.835 227.859 212.46 227.754 212.091C227.652 211.719 227.495 211.371 227.285 211.047C227.078 210.723 226.815 210.437 226.497 210.19C226.179 209.943 225.805 209.75 225.376 209.611C224.95 209.469 224.466 209.398 223.923 209.398C223.255 209.398 222.657 209.501 222.129 209.709C221.603 209.913 221.156 210.213 220.787 210.608C220.42 211 220.14 211.477 219.947 212.04C219.757 212.599 219.662 213.236 219.662 213.949C219.662 214.673 219.757 215.317 219.947 215.879C220.14 216.442 220.424 216.916 220.799 217.303C221.177 217.689 221.645 217.982 222.201 218.18C222.758 218.382 223.4 218.483 224.127 218.483C224.44 218.483 224.748 218.453 225.052 218.393C225.356 218.334 225.625 218.268 225.858 218.197C226.091 218.126 226.258 218.074 226.36 218.04L226.599 218.824C226.423 218.898 226.193 218.972 225.909 219.045C225.627 219.119 225.326 219.18 225.005 219.229C224.687 219.277 224.383 219.301 224.093 219.301ZM223.599 215.909C223.98 215.909 224.288 215.832 224.524 215.679C224.76 215.526 224.931 215.294 225.039 214.984C225.147 214.675 225.201 214.284 225.201 213.812C225.201 213.335 225.142 212.963 225.022 212.696C224.903 212.429 224.727 212.241 224.494 212.134C224.261 212.026 223.974 211.972 223.633 211.972C223.309 211.972 223.032 212.057 222.802 212.227C222.575 212.395 222.4 212.619 222.278 212.901C222.159 213.179 222.099 213.483 222.099 213.812C222.099 214.176 222.147 214.518 222.244 214.839C222.341 215.158 222.498 215.416 222.717 215.615C222.936 215.811 223.23 215.909 223.599 215.909ZM234.428 214.324V210.455H235.434V217H234.428V215.892H234.36C234.207 216.224 233.968 216.507 233.644 216.74C233.32 216.97 232.911 217.085 232.417 217.085C232.008 217.085 231.644 216.996 231.326 216.817C231.008 216.635 230.758 216.362 230.576 215.999C230.394 215.632 230.303 215.17 230.303 214.614V210.455H231.309V214.545C231.309 215.023 231.442 215.403 231.71 215.688C231.979 215.972 232.323 216.114 232.741 216.114C232.991 216.114 233.245 216.05 233.504 215.922C233.765 215.794 233.984 215.598 234.16 215.334C234.339 215.07 234.428 214.733 234.428 214.324ZM238.282 213.062V217H237.276V210.455H238.248V211.477H238.333C238.486 211.145 238.719 210.878 239.032 210.676C239.344 210.472 239.748 210.369 240.242 210.369C240.685 210.369 241.073 210.46 241.405 210.642C241.738 210.821 241.996 211.094 242.181 211.46C242.365 211.824 242.458 212.284 242.458 212.841V217H241.452V212.909C241.452 212.395 241.319 211.994 241.051 211.707C240.784 211.418 240.418 211.273 239.952 211.273C239.631 211.273 239.344 211.342 239.091 211.482C238.841 211.621 238.644 211.824 238.499 212.091C238.354 212.358 238.282 212.682 238.282 213.062ZM247.142 210.455V211.307H243.75V210.455H247.142ZM244.739 208.886H245.744V215.125C245.744 215.409 245.786 215.622 245.868 215.764C245.953 215.903 246.061 215.997 246.192 216.045C246.325 216.091 246.466 216.114 246.614 216.114C246.724 216.114 246.815 216.108 246.886 216.097C246.957 216.082 247.014 216.071 247.057 216.062L247.261 216.966C247.193 216.991 247.098 217.017 246.976 217.043C246.854 217.071 246.699 217.085 246.511 217.085C246.227 217.085 245.949 217.024 245.676 216.902C245.406 216.78 245.182 216.594 245.003 216.344C244.827 216.094 244.739 215.778 244.739 215.398V208.886ZM248.655 217V210.455H249.661V217H248.655ZM249.166 209.364C248.97 209.364 248.801 209.297 248.659 209.163C248.52 209.03 248.45 208.869 248.45 208.682C248.45 208.494 248.52 208.334 248.659 208.2C248.801 208.067 248.97 208 249.166 208C249.362 208 249.53 208.067 249.669 208.2C249.811 208.334 249.882 208.494 249.882 208.682C249.882 208.869 249.811 209.03 249.669 209.163C249.53 209.297 249.362 209.364 249.166 209.364ZM254.349 210.455V211.307H250.957V210.455H254.349ZM251.946 208.886H252.951V215.125C252.951 215.409 252.993 215.622 253.075 215.764C253.16 215.903 253.268 215.997 253.399 216.045C253.532 216.091 253.673 216.114 253.821 216.114C253.931 216.114 254.022 216.108 254.093 216.097C254.164 216.082 254.221 216.071 254.264 216.062L254.468 216.966C254.4 216.991 254.305 217.017 254.183 217.043C254.061 217.071 253.906 217.085 253.718 217.085C253.434 217.085 253.156 217.024 252.883 216.902C252.613 216.78 252.389 216.594 252.21 216.344C252.034 216.094 251.946 215.778 251.946 215.398V208.886ZM257.008 208.273V217H256.002V208.273H257.008ZM261.594 217.136C260.964 217.136 260.42 216.997 259.962 216.719C259.508 216.438 259.157 216.045 258.91 215.543C258.665 215.037 258.543 214.449 258.543 213.778C258.543 213.108 258.665 212.517 258.91 212.006C259.157 211.491 259.501 211.091 259.941 210.804C260.384 210.514 260.901 210.369 261.492 210.369C261.833 210.369 262.17 210.426 262.502 210.54C262.835 210.653 263.137 210.838 263.41 211.094C263.683 211.347 263.9 211.682 264.062 212.099C264.224 212.517 264.305 213.031 264.305 213.642V214.068H259.259V213.199H263.282C263.282 212.83 263.208 212.5 263.06 212.21C262.915 211.92 262.708 211.692 262.438 211.524C262.171 211.357 261.856 211.273 261.492 211.273C261.092 211.273 260.745 211.372 260.452 211.571C260.163 211.767 259.94 212.023 259.783 212.338C259.627 212.653 259.549 212.991 259.549 213.352V213.932C259.549 214.426 259.634 214.845 259.805 215.189C259.978 215.53 260.218 215.79 260.525 215.969C260.832 216.145 261.188 216.233 261.594 216.233C261.859 216.233 262.097 216.196 262.31 216.122C262.526 216.045 262.712 215.932 262.869 215.781C263.025 215.628 263.146 215.437 263.231 215.21L264.202 215.483C264.1 215.812 263.928 216.102 263.687 216.352C263.445 216.599 263.147 216.793 262.792 216.932C262.437 217.068 262.038 217.136 261.594 217.136ZM268.306 217.136C267.761 217.136 267.279 216.999 266.862 216.723C266.444 216.445 266.117 216.053 265.881 215.547C265.646 215.038 265.528 214.438 265.528 213.744C265.528 213.057 265.646 212.46 265.881 211.955C266.117 211.449 266.445 211.058 266.866 210.783C267.286 210.507 267.772 210.369 268.323 210.369C268.749 210.369 269.086 210.44 269.333 210.582C269.583 210.722 269.773 210.881 269.904 211.06C270.038 211.236 270.141 211.381 270.215 211.494H270.3V208.273H271.306V217H270.335V215.994H270.215C270.141 216.114 270.036 216.264 269.9 216.446C269.763 216.625 269.569 216.786 269.316 216.928C269.063 217.067 268.727 217.136 268.306 217.136ZM268.442 216.233C268.846 216.233 269.187 216.128 269.465 215.918C269.744 215.705 269.955 215.411 270.1 215.036C270.245 214.658 270.317 214.222 270.317 213.727C270.317 213.239 270.246 212.811 270.104 212.445C269.962 212.075 269.752 211.788 269.474 211.584C269.195 211.376 268.852 211.273 268.442 211.273C268.016 211.273 267.661 211.382 267.377 211.601C267.096 211.817 266.884 212.111 266.742 212.483C266.603 212.852 266.533 213.267 266.533 213.727C266.533 214.193 266.604 214.616 266.746 214.997C266.891 215.375 267.104 215.676 267.386 215.901C267.67 216.122 268.022 216.233 268.442 216.233ZM277.413 214.324V210.455H278.418V217H277.413V215.892H277.344C277.191 216.224 276.952 216.507 276.629 216.74C276.305 216.97 275.896 217.085 275.401 217.085C274.992 217.085 274.629 216.996 274.31 216.817C273.992 216.635 273.742 216.362 273.56 215.999C273.379 215.632 273.288 215.17 273.288 214.614V210.455H274.293V214.545C274.293 215.023 274.427 215.403 274.694 215.688C274.964 215.972 275.308 216.114 275.725 216.114C275.975 216.114 276.229 216.05 276.488 215.922C276.749 215.794 276.968 215.598 277.144 215.334C277.323 215.07 277.413 214.733 277.413 214.324ZM280.26 217V210.455H281.266V217H280.26ZM280.772 209.364C280.576 209.364 280.407 209.297 280.265 209.163C280.125 209.03 280.056 208.869 280.056 208.682C280.056 208.494 280.125 208.334 280.265 208.2C280.407 208.067 280.576 208 280.772 208C280.968 208 281.135 208.067 281.275 208.2C281.417 208.334 281.488 208.494 281.488 208.682C281.488 208.869 281.417 209.03 281.275 209.163C281.135 209.297 280.968 209.364 280.772 209.364ZM283.841 217.068C283.631 217.068 283.45 216.993 283.3 216.842C283.149 216.692 283.074 216.511 283.074 216.301C283.074 216.091 283.149 215.911 283.3 215.76C283.45 215.609 283.631 215.534 283.841 215.534C284.051 215.534 284.232 215.609 284.382 215.76C284.533 215.911 284.608 216.091 284.608 216.301C284.608 216.44 284.572 216.568 284.501 216.685C284.433 216.801 284.341 216.895 284.224 216.966C284.111 217.034 283.983 217.068 283.841 217.068ZM289.072 217.136C288.458 217.136 287.93 216.991 287.487 216.702C287.043 216.412 286.702 216.013 286.464 215.504C286.225 214.996 286.106 214.415 286.106 213.761C286.106 213.097 286.228 212.51 286.472 212.001C286.719 211.49 287.063 211.091 287.504 210.804C287.947 210.514 288.464 210.369 289.055 210.369C289.515 210.369 289.93 210.455 290.299 210.625C290.668 210.795 290.971 211.034 291.207 211.341C291.442 211.648 291.589 212.006 291.646 212.415H290.64C290.563 212.116 290.393 211.852 290.129 211.622C289.867 211.389 289.515 211.273 289.072 211.273C288.68 211.273 288.336 211.375 288.04 211.58C287.748 211.781 287.519 212.067 287.354 212.436C287.192 212.803 287.112 213.233 287.112 213.727C287.112 214.233 287.191 214.673 287.35 215.048C287.512 215.423 287.739 215.714 288.032 215.922C288.327 216.129 288.674 216.233 289.072 216.233C289.333 216.233 289.57 216.188 289.783 216.097C289.996 216.006 290.177 215.875 290.325 215.705C290.472 215.534 290.577 215.33 290.64 215.091H291.646C291.589 215.477 291.448 215.825 291.224 216.135C291.002 216.442 290.708 216.686 290.342 216.868C289.978 217.047 289.555 217.136 289.072 217.136ZM295.775 217.136C295.184 217.136 294.665 216.996 294.219 216.714C293.776 216.433 293.43 216.04 293.18 215.534C292.933 215.028 292.809 214.437 292.809 213.761C292.809 213.08 292.933 212.484 293.18 211.976C293.43 211.467 293.776 211.072 294.219 210.791C294.665 210.51 295.184 210.369 295.775 210.369C296.366 210.369 296.883 210.51 297.326 210.791C297.772 211.072 298.119 211.467 298.366 211.976C298.616 212.484 298.741 213.08 298.741 213.761C298.741 214.437 298.616 215.028 298.366 215.534C298.119 216.04 297.772 216.433 297.326 216.714C296.883 216.996 296.366 217.136 295.775 217.136ZM295.775 216.233C296.224 216.233 296.593 216.118 296.883 215.888C297.173 215.658 297.387 215.355 297.526 214.98C297.665 214.605 297.735 214.199 297.735 213.761C297.735 213.324 297.665 212.916 297.526 212.538C297.387 212.161 297.173 211.855 296.883 211.622C296.593 211.389 296.224 211.273 295.775 211.273C295.326 211.273 294.957 211.389 294.667 211.622C294.377 211.855 294.163 212.161 294.023 212.538C293.884 212.916 293.815 213.324 293.815 213.761C293.815 214.199 293.884 214.605 294.023 214.98C294.163 215.355 294.377 215.658 294.667 215.888C294.957 216.118 295.326 216.233 295.775 216.233ZM300.276 217V210.455H301.248V211.477H301.333C301.469 211.128 301.689 210.857 301.993 210.663C302.297 210.467 302.662 210.369 303.088 210.369C303.52 210.369 303.88 210.467 304.167 210.663C304.456 210.857 304.682 211.128 304.844 211.477H304.912C305.08 211.139 305.331 210.871 305.667 210.672C306.002 210.47 306.404 210.369 306.873 210.369C307.458 210.369 307.936 210.553 308.309 210.919C308.681 211.283 308.867 211.849 308.867 212.619V217H307.861V212.619C307.861 212.136 307.729 211.791 307.465 211.584C307.201 211.376 306.89 211.273 306.532 211.273C306.071 211.273 305.715 211.412 305.462 211.69C305.209 211.966 305.083 212.315 305.083 212.739V217H304.06V212.517C304.06 212.145 303.939 211.845 303.698 211.618C303.456 211.388 303.145 211.273 302.765 211.273C302.503 211.273 302.259 211.342 302.032 211.482C301.807 211.621 301.625 211.814 301.486 212.061C301.35 212.305 301.282 212.588 301.282 212.909V217H300.276Z" fill="#9BA0A5"/>
<path d="M485 239H165V241H485V239Z" fill="#EAECF0" mask="url(#path-6-inside-2_893_33969)"/>
</g>
<rect x="164.5" y="167.5" width="321" height="73" stroke="#0D69D4"/>
<g clip-path="url(#clip0_893_33969)">
<mask maskUnits="userSpaceOnUse" x="0" y="0" width="0" height="0" fill="black">
<rect fill="white" width="0" height="0"/>
</mask>
<path d="M179.146 159.146C178.951 159.342 178.951 159.658 179.146 159.854L182.328 163.036C182.524 163.231 182.84 163.231 183.036 163.036C183.231 162.84 183.231 162.524 183.036 162.328L180.207 159.5L183.036 156.672C183.231 156.476 183.231 156.16 183.036 155.964C182.84 155.769 182.524 155.769 182.328 155.964L179.146 159.146ZM248.854 159.854C249.049 159.658 249.049 159.342 248.854 159.146L245.672 155.964C245.476 155.769 245.16 155.769 244.964 155.964C244.769 156.16 244.769 156.476 244.964 156.672L247.793 159.5L244.964 162.328C244.769 162.524 244.769 162.84 244.964 163.036C245.16 163.231 245.476 163.231 245.672 163.036L248.854 159.854ZM179.5 160H248.5V159H179.5V160Z" fill="#0D69D4" mask="url(#)"/>
<mask maskUnits="userSpaceOnUse" x="0" y="0" width="0" height="0" fill="black">
<rect fill="white" width="0" height="0"/>
</mask>
<path d="M250.146 159.146C249.951 159.342 249.951 159.658 250.146 159.854L253.328 163.036C253.524 163.231 253.84 163.231 254.036 163.036C254.231 162.84 254.231 162.524 254.036 162.328L251.207 159.5L254.036 156.672C254.231 156.476 254.231 156.16 254.036 155.964C253.84 155.769 253.524 155.769 253.328 155.964L250.146 159.146ZM319.854 159.854C320.049 159.658 320.049 159.342 319.854 159.146L316.672 155.964C316.476 155.769 316.16 155.769 315.964 155.964C315.769 156.16 315.769 156.476 315.964 156.672L318.793 159.5L315.964 162.328C315.769 162.524 315.769 162.84 315.964 163.036C316.16 163.231 316.476 163.231 316.672 163.036L319.854 159.854ZM250.5 160H319.5V159H250.5V160Z" fill="#0D69D4" mask="url(#)"/>
</g>
<rect x="165" y="168" width="320" height="16" fill="#007D00" fill-opacity="0.3"/>
<line x1="149" y1="168.5" x2="485" y2="168.5" stroke="#007D00"/>
<line x1="149" y1="183.5" x2="485" y2="183.5" stroke="#007D00"/>
<path d="M135.504 171.273V180H133.659V173.024H133.608L131.609 174.277V172.641L133.77 171.273H135.504ZM140.928 180.119C140.479 180.116 140.046 180.041 139.628 179.893C139.213 179.746 138.841 179.506 138.512 179.173C138.182 178.841 137.921 178.401 137.728 177.852C137.537 177.304 137.442 176.631 137.442 175.832C137.445 175.099 137.529 174.445 137.694 173.868C137.861 173.288 138.1 172.797 138.409 172.393C138.722 171.99 139.096 171.683 139.53 171.473C139.965 171.26 140.452 171.153 140.992 171.153C141.574 171.153 142.088 171.267 142.534 171.494C142.98 171.719 143.338 172.024 143.608 172.411C143.881 172.797 144.046 173.23 144.103 173.71H142.283C142.212 173.406 142.063 173.168 141.836 172.994C141.608 172.821 141.327 172.734 140.992 172.734C140.424 172.734 139.992 172.982 139.696 173.476C139.404 173.97 139.255 174.642 139.249 175.491H139.309C139.439 175.233 139.615 175.013 139.837 174.831C140.061 174.646 140.316 174.506 140.6 174.409C140.887 174.31 141.189 174.26 141.507 174.26C142.025 174.26 142.485 174.382 142.888 174.626C143.292 174.868 143.61 175.2 143.843 175.624C144.076 176.047 144.192 176.531 144.192 177.077C144.192 177.668 144.054 178.193 143.779 178.653C143.506 179.114 143.124 179.474 142.632 179.736C142.144 179.994 141.576 180.122 140.928 180.119ZM140.919 178.67C141.203 178.67 141.458 178.602 141.682 178.466C141.907 178.33 142.083 178.145 142.211 177.912C142.338 177.679 142.402 177.418 142.402 177.128C142.402 176.838 142.338 176.578 142.211 176.348C142.086 176.118 141.912 175.935 141.691 175.798C141.469 175.662 141.216 175.594 140.932 175.594C140.719 175.594 140.522 175.634 140.34 175.713C140.161 175.793 140.003 175.903 139.867 176.045C139.733 176.187 139.628 176.352 139.551 176.54C139.475 176.724 139.436 176.922 139.436 177.132C139.436 177.413 139.5 177.67 139.628 177.903C139.759 178.136 139.935 178.322 140.157 178.462C140.381 178.601 140.635 178.67 140.919 178.67Z" fill="#007D00"/>
<rect x="165" y="224" width="320" height="16" fill="#007D00" fill-opacity="0.3"/>
<line x1="149" y1="224.5" x2="485" y2="224.5" stroke="#007D00"/>
<line x1="149" y1="239.5" x2="485" y2="239.5" stroke="#007D00"/>
<path d="M135.504 227.273V236H133.659V229.024H133.608L131.609 230.277V228.641L133.77 227.273H135.504ZM140.928 236.119C140.479 236.116 140.046 236.041 139.628 235.893C139.213 235.746 138.841 235.506 138.512 235.173C138.182 234.841 137.921 234.401 137.728 233.852C137.537 233.304 137.442 232.631 137.442 231.832C137.445 231.099 137.529 230.445 137.694 229.868C137.861 229.288 138.1 228.797 138.409 228.393C138.722 227.99 139.096 227.683 139.53 227.473C139.965 227.26 140.452 227.153 140.992 227.153C141.574 227.153 142.088 227.267 142.534 227.494C142.98 227.719 143.338 228.024 143.608 228.411C143.881 228.797 144.046 229.23 144.103 229.71H142.283C142.212 229.406 142.063 229.168 141.836 228.994C141.608 228.821 141.327 228.734 140.992 228.734C140.424 228.734 139.992 228.982 139.696 229.476C139.404 229.97 139.255 230.642 139.249 231.491H139.309C139.439 231.233 139.615 231.013 139.837 230.831C140.061 230.646 140.316 230.506 140.6 230.409C140.887 230.31 141.189 230.26 141.507 230.26C142.025 230.26 142.485 230.382 142.888 230.626C143.292 230.868 143.61 231.2 143.843 231.624C144.076 232.047 144.192 232.531 144.192 233.077C144.192 233.668 144.054 234.193 143.779 234.653C143.506 235.114 143.124 235.474 142.632 235.736C142.144 235.994 141.576 236.122 140.928 236.119ZM140.919 234.67C141.203 234.67 141.458 234.602 141.682 234.466C141.907 234.33 142.083 234.145 142.211 233.912C142.338 233.679 142.402 233.418 142.402 233.128C142.402 232.838 142.338 232.578 142.211 232.348C142.086 232.118 141.912 231.935 141.691 231.798C141.469 231.662 141.216 231.594 140.932 231.594C140.719 231.594 140.522 231.634 140.34 231.713C140.161 231.793 140.003 231.903 139.867 232.045C139.733 232.187 139.628 232.352 139.551 232.54C139.475 232.724 139.436 232.922 139.436 233.132C139.436 233.413 139.5 233.67 139.628 233.903C139.759 234.136 139.935 234.322 140.157 234.462C140.381 234.601 140.635 234.67 140.919 234.67Z" fill="#007D00"/>
<rect x="165" y="184" width="24" height="40" fill="#007D00" fill-opacity="0.3"/>
<line x1="165.5" y1="152" x2="165.5" y2="240" stroke="#007D00"/>
<line x1="188.5" y1="152" x2="188.5" y2="240" stroke="#007D00"/>
<path d="M173.504 139.273V148H171.659V141.024H171.608L169.609 142.277V140.641L171.77 139.273H173.504ZM178.928 148.119C178.479 148.116 178.046 148.041 177.628 147.893C177.213 147.746 176.841 147.506 176.512 147.173C176.182 146.841 175.921 146.401 175.728 145.852C175.537 145.304 175.442 144.631 175.442 143.832C175.445 143.099 175.529 142.445 175.694 141.868C175.861 141.288 176.1 140.797 176.409 140.393C176.722 139.99 177.096 139.683 177.53 139.473C177.965 139.26 178.452 139.153 178.992 139.153C179.574 139.153 180.088 139.267 180.534 139.494C180.98 139.719 181.338 140.024 181.608 140.411C181.881 140.797 182.046 141.23 182.103 141.71H180.283C180.212 141.406 180.063 141.168 179.836 140.994C179.608 140.821 179.327 140.734 178.992 140.734C178.424 140.734 177.992 140.982 177.696 141.476C177.404 141.97 177.255 142.642 177.249 143.491H177.309C177.439 143.233 177.615 143.013 177.837 142.831C178.061 142.646 178.316 142.506 178.6 142.409C178.887 142.31 179.189 142.26 179.507 142.26C180.025 142.26 180.485 142.382 180.888 142.626C181.292 142.868 181.61 143.2 181.843 143.624C182.076 144.047 182.192 144.531 182.192 145.077C182.192 145.668 182.054 146.193 181.779 146.653C181.506 147.114 181.124 147.474 180.632 147.736C180.144 147.994 179.576 148.122 178.928 148.119ZM178.919 146.67C179.203 146.67 179.458 146.602 179.682 146.466C179.907 146.33 180.083 146.145 180.211 145.912C180.338 145.679 180.402 145.418 180.402 145.128C180.402 144.838 180.338 144.578 180.211 144.348C180.086 144.118 179.912 143.935 179.691 143.798C179.469 143.662 179.216 143.594 178.932 143.594C178.719 143.594 178.522 143.634 178.34 143.713C178.161 143.793 178.003 143.903 177.867 144.045C177.733 144.187 177.628 144.352 177.551 144.54C177.475 144.724 177.436 144.922 177.436 145.132C177.436 145.413 177.5 145.67 177.628 145.903C177.759 146.136 177.935 146.322 178.157 146.462C178.381 146.601 178.635 146.67 178.919 146.67Z" fill="#007D00"/>
<rect x="461" y="184" width="24" height="40" fill="#007D00" fill-opacity="0.3"/>
<line x1="461.5" y1="152" x2="461.5" y2="240" stroke="#007D00"/>
<line x1="484.5" y1="152" x2="484.5" y2="240" stroke="#007D00"/>
<path d="M469.504 139.273V148H467.659V141.024H467.608L465.609 142.277V140.641L467.77 139.273H469.504ZM474.928 148.119C474.479 148.116 474.046 148.041 473.628 147.893C473.213 147.746 472.841 147.506 472.512 147.173C472.182 146.841 471.921 146.401 471.728 145.852C471.537 145.304 471.442 144.631 471.442 143.832C471.445 143.099 471.529 142.445 471.694 141.868C471.861 141.288 472.1 140.797 472.409 140.393C472.722 139.99 473.096 139.683 473.53 139.473C473.965 139.26 474.452 139.153 474.992 139.153C475.574 139.153 476.088 139.267 476.534 139.494C476.98 139.719 477.338 140.024 477.608 140.411C477.881 140.797 478.046 141.23 478.103 141.71H476.283C476.212 141.406 476.063 141.168 475.836 140.994C475.608 140.821 475.327 140.734 474.992 140.734C474.424 140.734 473.992 140.982 473.696 141.476C473.404 141.97 473.255 142.642 473.249 143.491H473.309C473.439 143.233 473.615 143.013 473.837 142.831C474.061 142.646 474.316 142.506 474.6 142.409C474.887 142.31 475.189 142.26 475.507 142.26C476.025 142.26 476.485 142.382 476.888 142.626C477.292 142.868 477.61 143.2 477.843 143.624C478.076 144.047 478.192 144.531 478.192 145.077C478.192 145.668 478.054 146.193 477.779 146.653C477.506 147.114 477.124 147.474 476.632 147.736C476.144 147.994 475.576 148.122 474.928 148.119ZM474.919 146.67C475.203 146.67 475.458 146.602 475.682 146.466C475.907 146.33 476.083 146.145 476.211 145.912C476.338 145.679 476.402 145.418 476.402 145.128C476.402 144.838 476.338 144.578 476.211 144.348C476.086 144.118 475.912 143.935 475.691 143.798C475.469 143.662 475.216 143.594 474.932 143.594C474.719 143.594 474.522 143.634 474.34 143.713C474.161 143.793 474.003 143.903 473.867 144.045C473.733 144.187 473.628 144.352 473.551 144.54C473.475 144.724 473.436 144.922 473.436 145.132C473.436 145.413 473.5 145.67 473.628 145.903C473.759 146.136 473.935 146.322 474.157 146.462C474.381 146.601 474.635 146.67 474.919 146.67Z" fill="#007D00"/>
<g opacity="0.2">
<mask id="path-31-inside-3_893_33969" fill="white">
<path d="M165 67H320V111H165V67Z"/>
</mask>
<path d="M165 67H320V111H165V67Z" fill="#F9FAFB"/>
<rect x="189.5" y="79.5" width="19" height="19" rx="3.5" fill="#F9FAFB"/>
<rect x="189.5" y="79.5" width="19" height="19" rx="3.5" stroke="#D8DEE9"/>
<path d="M229.207 87.1108H227.878C227.827 86.8267 227.732 86.5767 227.592 86.3608C227.453 86.1449 227.283 85.9616 227.081 85.8111C226.879 85.6605 226.653 85.5469 226.403 85.4702C226.156 85.3935 225.893 85.3551 225.615 85.3551C225.112 85.3551 224.662 85.4815 224.264 85.7344C223.869 85.9872 223.557 86.358 223.327 86.8466C223.099 87.3352 222.986 87.9318 222.986 88.6364C222.986 89.3466 223.099 89.946 223.327 90.4347C223.557 90.9233 223.871 91.2926 224.268 91.5426C224.666 91.7926 225.114 91.9176 225.611 91.9176C225.886 91.9176 226.148 91.8807 226.395 91.8068C226.645 91.7301 226.871 91.6179 227.072 91.4702C227.274 91.3224 227.445 91.142 227.584 90.929C227.726 90.7131 227.824 90.4659 227.878 90.1875L229.207 90.1918C229.136 90.6207 228.999 91.0156 228.794 91.3764C228.592 91.7344 228.332 92.044 228.014 92.3054C227.699 92.5639 227.338 92.7642 226.932 92.9062C226.526 93.0483 226.082 93.1193 225.602 93.1193C224.847 93.1193 224.173 92.9403 223.582 92.5824C222.991 92.2216 222.526 91.706 222.185 91.0355C221.847 90.3651 221.678 89.5653 221.678 88.6364C221.678 87.7045 221.848 86.9048 222.189 86.2372C222.53 85.5668 222.996 85.0526 223.587 84.6946C224.178 84.3338 224.849 84.1534 225.602 84.1534C226.065 84.1534 226.497 84.2202 226.898 84.3537C227.301 84.4844 227.663 84.6776 227.984 84.9332C228.305 85.1861 228.571 85.4957 228.781 85.8622C228.991 86.2259 229.134 86.642 229.207 87.1108ZM233.438 93.1321C232.824 93.1321 232.289 92.9915 231.831 92.7102C231.374 92.429 231.019 92.0355 230.766 91.5298C230.513 91.0241 230.387 90.4332 230.387 89.7571C230.387 89.0781 230.513 88.4844 230.766 87.9759C231.019 87.4673 231.374 87.0724 231.831 86.7912C232.289 86.5099 232.824 86.3693 233.438 86.3693C234.051 86.3693 234.587 86.5099 235.044 86.7912C235.502 87.0724 235.857 87.4673 236.11 87.9759C236.363 88.4844 236.489 89.0781 236.489 89.7571C236.489 90.4332 236.363 91.0241 236.11 91.5298C235.857 92.0355 235.502 92.429 235.044 92.7102C234.587 92.9915 234.051 93.1321 233.438 93.1321ZM233.442 92.0625C233.84 92.0625 234.169 91.9574 234.431 91.7472C234.692 91.5369 234.885 91.2571 235.01 90.9077C235.138 90.5582 235.202 90.1733 235.202 89.7528C235.202 89.3352 235.138 88.9517 235.01 88.6023C234.885 88.25 234.692 87.9673 234.431 87.7543C234.169 87.5412 233.84 87.4347 233.442 87.4347C233.042 87.4347 232.709 87.5412 232.445 87.7543C232.184 87.9673 231.989 88.25 231.861 88.6023C231.736 88.9517 231.674 89.3352 231.674 89.7528C231.674 90.1733 231.736 90.5582 231.861 90.9077C231.989 91.2571 232.184 91.5369 232.445 91.7472C232.709 91.9574 233.042 92.0625 233.442 92.0625ZM237.911 93V86.4545H239.134V87.5199H239.215C239.352 87.1591 239.575 86.8778 239.884 86.6761C240.194 86.4716 240.565 86.3693 240.996 86.3693C241.434 86.3693 241.8 86.4716 242.096 86.6761C242.394 86.8807 242.614 87.1619 242.756 87.5199H242.825C242.981 87.1705 243.229 86.892 243.57 86.6847C243.911 86.4744 244.317 86.3693 244.789 86.3693C245.383 86.3693 245.867 86.5554 246.242 86.9276C246.62 87.2997 246.809 87.8608 246.809 88.6108V93H245.535V88.7301C245.535 88.2869 245.414 87.9659 245.173 87.767C244.931 87.5682 244.643 87.4688 244.308 87.4688C243.893 87.4688 243.57 87.5966 243.34 87.8523C243.11 88.1051 242.995 88.4304 242.995 88.8281V93H241.725V88.6491C241.725 88.294 241.614 88.0085 241.393 87.7926C241.171 87.5767 240.883 87.4688 240.528 87.4688C240.286 87.4688 240.063 87.5327 239.859 87.6605C239.657 87.7855 239.494 87.9602 239.369 88.1847C239.246 88.4091 239.185 88.669 239.185 88.9645V93H237.911ZM248.517 95.4545V86.4545H249.761V87.5156H249.868C249.941 87.3793 250.048 87.2216 250.187 87.0426C250.326 86.8636 250.52 86.7074 250.767 86.5739C251.014 86.4375 251.341 86.3693 251.747 86.3693C252.275 86.3693 252.747 86.5028 253.162 86.7699C253.576 87.0369 253.902 87.4219 254.137 87.9247C254.376 88.4276 254.495 89.0327 254.495 89.7401C254.495 90.4474 254.377 91.054 254.142 91.5597C253.906 92.0625 253.582 92.4503 253.17 92.723C252.758 92.9929 252.288 93.1278 251.76 93.1278C251.362 93.1278 251.037 93.0611 250.784 92.9276C250.534 92.794 250.338 92.6378 250.196 92.4588C250.054 92.2798 249.944 92.1207 249.868 91.9815H249.791V95.4545H248.517ZM249.765 89.7273C249.765 90.1875 249.832 90.5909 249.966 90.9375C250.099 91.2841 250.292 91.5554 250.545 91.7514C250.798 91.9446 251.108 92.0412 251.474 92.0412C251.855 92.0412 252.173 91.9403 252.429 91.7386C252.684 91.5341 252.877 91.2571 253.008 90.9077C253.142 90.5582 253.208 90.1648 253.208 89.7273C253.208 89.2955 253.143 88.9077 253.012 88.5639C252.885 88.2202 252.691 87.9489 252.433 87.75C252.177 87.5511 251.858 87.4517 251.474 87.4517C251.105 87.4517 250.792 87.5469 250.537 87.7372C250.284 87.9276 250.092 88.1932 249.961 88.5341C249.831 88.875 249.765 89.2727 249.765 89.7273ZM257.828 93.1449C257.413 93.1449 257.038 93.0682 256.703 92.9148C256.368 92.7585 256.102 92.5327 255.906 92.2372C255.713 91.9418 255.616 91.5795 255.616 91.1506C255.616 90.7812 255.687 90.4773 255.829 90.2386C255.971 90 256.163 89.8111 256.404 89.6719C256.646 89.5327 256.916 89.4276 257.214 89.3565C257.512 89.2855 257.816 89.2315 258.126 89.1946C258.518 89.1491 258.836 89.1122 259.081 89.0838C259.325 89.0526 259.502 89.0028 259.613 88.9347C259.724 88.8665 259.779 88.7557 259.779 88.6023V88.5724C259.779 88.2003 259.674 87.9119 259.464 87.7074C259.257 87.5028 258.947 87.4006 258.535 87.4006C258.106 87.4006 257.768 87.4957 257.521 87.6861C257.277 87.8736 257.108 88.0824 257.014 88.3125L255.816 88.0398C255.958 87.642 256.166 87.321 256.439 87.0767C256.714 86.8295 257.031 86.6506 257.389 86.5398C257.747 86.4261 258.123 86.3693 258.518 86.3693C258.779 86.3693 259.056 86.4006 259.349 86.4631C259.645 86.5227 259.92 86.6335 260.176 86.7955C260.434 86.9574 260.646 87.1889 260.811 87.4901C260.975 87.7884 261.058 88.1761 261.058 88.6534V93H259.814V92.1051H259.762C259.68 92.2699 259.556 92.4318 259.392 92.5909C259.227 92.75 259.015 92.8821 258.757 92.9872C258.498 93.0923 258.189 93.1449 257.828 93.1449ZM258.105 92.1222C258.457 92.1222 258.758 92.0526 259.008 91.9134C259.261 91.7741 259.453 91.5923 259.583 91.3679C259.717 91.1406 259.784 90.8977 259.784 90.6392V89.7955C259.738 89.8409 259.65 89.8835 259.52 89.9233C259.392 89.9602 259.245 89.9929 259.081 90.0213C258.916 90.0469 258.755 90.071 258.599 90.0938C258.443 90.1136 258.312 90.1307 258.207 90.1449C257.96 90.1761 257.734 90.2287 257.529 90.3026C257.328 90.3764 257.166 90.483 257.044 90.6222C256.924 90.7585 256.865 90.9403 256.865 91.1676C256.865 91.483 256.981 91.7216 257.214 91.8835C257.447 92.0426 257.744 92.1222 258.105 92.1222ZM264.029 89.1136V93H262.755V86.4545H263.978V87.5199H264.059C264.21 87.1733 264.445 86.8949 264.766 86.6847C265.09 86.4744 265.498 86.3693 265.989 86.3693C266.435 86.3693 266.826 86.4631 267.161 86.6506C267.496 86.8352 267.756 87.1108 267.941 87.4773C268.126 87.8437 268.218 88.2969 268.218 88.8366V93H266.944V88.9901C266.944 88.5156 266.82 88.1449 266.573 87.8778C266.326 87.608 265.987 87.473 265.555 87.473C265.259 87.473 264.996 87.5369 264.766 87.6648C264.539 87.7926 264.359 87.9801 264.225 88.2273C264.094 88.4716 264.029 88.767 264.029 89.1136ZM270.498 95.4545C270.308 95.4545 270.134 95.4389 269.978 95.4077C269.822 95.3793 269.705 95.348 269.629 95.3139L269.935 94.2699C270.168 94.3324 270.376 94.3594 270.558 94.3509C270.739 94.3423 270.9 94.2741 271.039 94.1463C271.181 94.0185 271.306 93.8097 271.414 93.5199L271.572 93.0852L269.177 86.4545H270.54L272.198 91.5341H272.266L273.924 86.4545H275.292L272.594 93.8736C272.469 94.2145 272.31 94.5028 272.117 94.7386C271.924 94.9773 271.694 95.1563 271.427 95.2756C271.16 95.3949 270.85 95.4545 270.498 95.4545Z" fill="#344054"/>
<path d="M288.003 84.332V93.6654M288.003 93.6654L292.669 88.9987M288.003 93.6654L283.336 88.9987" stroke="#959BA3" stroke-width="1.33333" stroke-linecap="round" stroke-linejoin="round"/>
<path d="M320 110H165V112H320V110Z" fill="#EAECF0" mask="url(#path-31-inside-3_893_33969)"/>
</g>
<g opacity="0.2">
<mask id="path-36-inside-4_893_33969" fill="white">
<path d="M165 67H320V111H165V67Z"/>
</mask>
<path d="M165 67H320V111H165V67Z" fill="#F9FAFB"/>
<rect x="189.5" y="79.5" width="19" height="19" rx="3.5" fill="#F9FAFB"/>
<rect x="189.5" y="79.5" width="19" height="19" rx="3.5" stroke="#D8DEE9"/>
<path d="M229.207 87.1108H227.878C227.827 86.8267 227.732 86.5767 227.592 86.3608C227.453 86.1449 227.283 85.9616 227.081 85.8111C226.879 85.6605 226.653 85.5469 226.403 85.4702C226.156 85.3935 225.893 85.3551 225.615 85.3551C225.112 85.3551 224.662 85.4815 224.264 85.7344C223.869 85.9872 223.557 86.358 223.327 86.8466C223.099 87.3352 222.986 87.9318 222.986 88.6364C222.986 89.3466 223.099 89.946 223.327 90.4347C223.557 90.9233 223.871 91.2926 224.268 91.5426C224.666 91.7926 225.114 91.9176 225.611 91.9176C225.886 91.9176 226.148 91.8807 226.395 91.8068C226.645 91.7301 226.871 91.6179 227.072 91.4702C227.274 91.3224 227.445 91.142 227.584 90.929C227.726 90.7131 227.824 90.4659 227.878 90.1875L229.207 90.1918C229.136 90.6207 228.999 91.0156 228.794 91.3764C228.592 91.7344 228.332 92.044 228.014 92.3054C227.699 92.5639 227.338 92.7642 226.932 92.9062C226.526 93.0483 226.082 93.1193 225.602 93.1193C224.847 93.1193 224.173 92.9403 223.582 92.5824C222.991 92.2216 222.526 91.706 222.185 91.0355C221.847 90.3651 221.678 89.5653 221.678 88.6364C221.678 87.7045 221.848 86.9048 222.189 86.2372C222.53 85.5668 222.996 85.0526 223.587 84.6946C224.178 84.3338 224.849 84.1534 225.602 84.1534C226.065 84.1534 226.497 84.2202 226.898 84.3537C227.301 84.4844 227.663 84.6776 227.984 84.9332C228.305 85.1861 228.571 85.4957 228.781 85.8622C228.991 86.2259 229.134 86.642 229.207 87.1108ZM233.438 93.1321C232.824 93.1321 232.289 92.9915 231.831 92.7102C231.374 92.429 231.019 92.0355 230.766 91.5298C230.513 91.0241 230.387 90.4332 230.387 89.7571C230.387 89.0781 230.513 88.4844 230.766 87.9759C231.019 87.4673 231.374 87.0724 231.831 86.7912C232.289 86.5099 232.824 86.3693 233.438 86.3693C234.051 86.3693 234.587 86.5099 235.044 86.7912C235.502 87.0724 235.857 87.4673 236.11 87.9759C236.363 88.4844 236.489 89.0781 236.489 89.7571C236.489 90.4332 236.363 91.0241 236.11 91.5298C235.857 92.0355 235.502 92.429 235.044 92.7102C234.587 92.9915 234.051 93.1321 233.438 93.1321ZM233.442 92.0625C233.84 92.0625 234.169 91.9574 234.431 91.7472C234.692 91.5369 234.885 91.2571 235.01 90.9077C235.138 90.5582 235.202 90.1733 235.202 89.7528C235.202 89.3352 235.138 88.9517 235.01 88.6023C234.885 88.25 234.692 87.9673 234.431 87.7543C234.169 87.5412 233.84 87.4347 233.442 87.4347C233.042 87.4347 232.709 87.5412 232.445 87.7543C232.184 87.9673 231.989 88.25 231.861 88.6023C231.736 88.9517 231.674 89.3352 231.674 89.7528C231.674 90.1733 231.736 90.5582 231.861 90.9077C231.989 91.2571 232.184 91.5369 232.445 91.7472C232.709 91.9574 233.042 92.0625 233.442 92.0625ZM237.911 93V86.4545H239.134V87.5199H239.215C239.352 87.1591 239.575 86.8778 239.884 86.6761C240.194 86.4716 240.565 86.3693 240.996 86.3693C241.434 86.3693 241.8 86.4716 242.096 86.6761C242.394 86.8807 242.614 87.1619 242.756 87.5199H242.825C242.981 87.1705 243.229 86.892 243.57 86.6847C243.911 86.4744 244.317 86.3693 244.789 86.3693C245.383 86.3693 245.867 86.5554 246.242 86.9276C246.62 87.2997 246.809 87.8608 246.809 88.6108V93H245.535V88.7301C245.535 88.2869 245.414 87.9659 245.173 87.767C244.931 87.5682 244.643 87.4688 244.308 87.4688C243.893 87.4688 243.57 87.5966 243.34 87.8523C243.11 88.1051 242.995 88.4304 242.995 88.8281V93H241.725V88.6491C241.725 88.294 241.614 88.0085 241.393 87.7926C241.171 87.5767 240.883 87.4688 240.528 87.4688C240.286 87.4688 240.063 87.5327 239.859 87.6605C239.657 87.7855 239.494 87.9602 239.369 88.1847C239.246 88.4091 239.185 88.669 239.185 88.9645V93H237.911ZM248.517 95.4545V86.4545H249.761V87.5156H249.868C249.941 87.3793 250.048 87.2216 250.187 87.0426C250.326 86.8636 250.52 86.7074 250.767 86.5739C251.014 86.4375 251.341 86.3693 251.747 86.3693C252.275 86.3693 252.747 86.5028 253.162 86.7699C253.576 87.0369 253.902 87.4219 254.137 87.9247C254.376 88.4276 254.495 89.0327 254.495 89.7401C254.495 90.4474 254.377 91.054 254.142 91.5597C253.906 92.0625 253.582 92.4503 253.17 92.723C252.758 92.9929 252.288 93.1278 251.76 93.1278C251.362 93.1278 251.037 93.0611 250.784 92.9276C250.534 92.794 250.338 92.6378 250.196 92.4588C250.054 92.2798 249.944 92.1207 249.868 91.9815H249.791V95.4545H248.517ZM249.765 89.7273C249.765 90.1875 249.832 90.5909 249.966 90.9375C250.099 91.2841 250.292 91.5554 250.545 91.7514C250.798 91.9446 251.108 92.0412 251.474 92.0412C251.855 92.0412 252.173 91.9403 252.429 91.7386C252.684 91.5341 252.877 91.2571 253.008 90.9077C253.142 90.5582 253.208 90.1648 253.208 89.7273C253.208 89.2955 253.143 88.9077 253.012 88.5639C252.885 88.2202 252.691 87.9489 252.433 87.75C252.177 87.5511 251.858 87.4517 251.474 87.4517C251.105 87.4517 250.792 87.5469 250.537 87.7372C250.284 87.9276 250.092 88.1932 249.961 88.5341C249.831 88.875 249.765 89.2727 249.765 89.7273ZM257.828 93.1449C257.413 93.1449 257.038 93.0682 256.703 92.9148C256.368 92.7585 256.102 92.5327 255.906 92.2372C255.713 91.9418 255.616 91.5795 255.616 91.1506C255.616 90.7812 255.687 90.4773 255.829 90.2386C255.971 90 256.163 89.8111 256.404 89.6719C256.646 89.5327 256.916 89.4276 257.214 89.3565C257.512 89.2855 257.816 89.2315 258.126 89.1946C258.518 89.1491 258.836 89.1122 259.081 89.0838C259.325 89.0526 259.502 89.0028 259.613 88.9347C259.724 88.8665 259.779 88.7557 259.779 88.6023V88.5724C259.779 88.2003 259.674 87.9119 259.464 87.7074C259.257 87.5028 258.947 87.4006 258.535 87.4006C258.106 87.4006 257.768 87.4957 257.521 87.6861C257.277 87.8736 257.108 88.0824 257.014 88.3125L255.816 88.0398C255.958 87.642 256.166 87.321 256.439 87.0767C256.714 86.8295 257.031 86.6506 257.389 86.5398C257.747 86.4261 258.123 86.3693 258.518 86.3693C258.779 86.3693 259.056 86.4006 259.349 86.4631C259.645 86.5227 259.92 86.6335 260.176 86.7955C260.434 86.9574 260.646 87.1889 260.811 87.4901C260.975 87.7884 261.058 88.1761 261.058 88.6534V93H259.814V92.1051H259.762C259.68 92.2699 259.556 92.4318 259.392 92.5909C259.227 92.75 259.015 92.8821 258.757 92.9872C258.498 93.0923 258.189 93.1449 257.828 93.1449ZM258.105 92.1222C258.457 92.1222 258.758 92.0526 259.008 91.9134C259.261 91.7741 259.453 91.5923 259.583 91.3679C259.717 91.1406 259.784 90.8977 259.784 90.6392V89.7955C259.738 89.8409 259.65 89.8835 259.52 89.9233C259.392 89.9602 259.245 89.9929 259.081 90.0213C258.916 90.0469 258.755 90.071 258.599 90.0938C258.443 90.1136 258.312 90.1307 258.207 90.1449C257.96 90.1761 257.734 90.2287 257.529 90.3026C257.328 90.3764 257.166 90.483 257.044 90.6222C256.924 90.7585 256.865 90.9403 256.865 91.1676C256.865 91.483 256.981 91.7216 257.214 91.8835C257.447 92.0426 257.744 92.1222 258.105 92.1222ZM264.029 89.1136V93H262.755V86.4545H263.978V87.5199H264.059C264.21 87.1733 264.445 86.8949 264.766 86.6847C265.09 86.4744 265.498 86.3693 265.989 86.3693C266.435 86.3693 266.826 86.4631 267.161 86.6506C267.496 86.8352 267.756 87.1108 267.941 87.4773C268.126 87.8437 268.218 88.2969 268.218 88.8366V93H266.944V88.9901C266.944 88.5156 266.82 88.1449 266.573 87.8778C266.326 87.608 265.987 87.473 265.555 87.473C265.259 87.473 264.996 87.5369 264.766 87.6648C264.539 87.7926 264.359 87.9801 264.225 88.2273C264.094 88.4716 264.029 88.767 264.029 89.1136ZM270.498 95.4545C270.308 95.4545 270.134 95.4389 269.978 95.4077C269.822 95.3793 269.705 95.348 269.629 95.3139L269.935 94.2699C270.168 94.3324 270.376 94.3594 270.558 94.3509C270.739 94.3423 270.9 94.2741 271.039 94.1463C271.181 94.0185 271.306 93.8097 271.414 93.5199L271.572 93.0852L269.177 86.4545H270.54L272.198 91.5341H272.266L273.924 86.4545H275.292L272.594 93.8736C272.469 94.2145 272.31 94.5028 272.117 94.7386C271.924 94.9773 271.694 95.1563 271.427 95.2756C271.16 95.3949 270.85 95.4545 270.498 95.4545Z" fill="#344054"/>
<path d="M288.003 84.332V93.6654M288.003 93.6654L292.669 88.9987M288.003 93.6654L283.336 88.9987" stroke="#959BA3" stroke-width="1.33333" stroke-linecap="round" stroke-linejoin="round"/>
<path d="M320 110H165V112H320V110Z" fill="#EAECF0" mask="url(#path-36-inside-4_893_33969)"/>
</g>
<rect x="164.5" y="66.5" width="156" height="45" stroke="#0D69D4"/>
<rect x="209" y="79" width="12" height="20" fill="#C54600" fill-opacity="0.3"/>
<line x1="209.5" y1="51" x2="209.5" y2="111" stroke="#C54600"/>
<line x1="220.5" y1="51" x2="220.5" y2="111" stroke="#C54600"/>
<path d="M212.504 38.2727V47H210.659V40.0241H210.608L208.609 41.277V39.6406L210.77 38.2727H212.504ZM214.578 47V45.6705L217.685 42.794C217.949 42.5384 218.171 42.3082 218.35 42.1037C218.532 41.8991 218.669 41.6989 218.763 41.5028C218.857 41.304 218.904 41.0895 218.904 40.8594C218.904 40.6037 218.846 40.3835 218.729 40.1989C218.613 40.0114 218.453 39.8679 218.252 39.7685C218.05 39.6662 217.821 39.6151 217.566 39.6151C217.299 39.6151 217.066 39.669 216.867 39.777C216.668 39.8849 216.515 40.0398 216.407 40.2415C216.299 40.4432 216.245 40.6832 216.245 40.9616H214.493C214.493 40.3906 214.623 39.8949 214.881 39.4744C215.14 39.054 215.502 38.7287 215.968 38.4986C216.434 38.2685 216.971 38.1534 217.578 38.1534C218.203 38.1534 218.748 38.2642 219.211 38.4858C219.676 38.7045 220.039 39.0085 220.297 39.3977C220.556 39.7869 220.685 40.233 220.685 40.7358C220.685 41.0653 220.62 41.3906 220.489 41.7116C220.361 42.0327 220.132 42.3892 219.803 42.7812C219.473 43.1705 219.009 43.6378 218.409 44.1832L217.135 45.4318V45.4915H220.8V47H214.578Z" fill="#C54600"/>
<g clip-path="url(#clip1_893_33969)">
<mask maskUnits="userSpaceOnUse" x="0" y="0" width="0" height="0" fill="black">
<rect fill="white" width="0" height="0"/>
</mask>
<path d="M179.146 58.1464C178.951 58.3417 178.951 58.6583 179.146 58.8536L182.328 62.0355C182.524 62.2308 182.84 62.2308 183.036 62.0355C183.231 61.8403 183.231 61.5237 183.036 61.3284L180.207 58.5L183.036 55.6716C183.231 55.4763 183.231 55.1597 183.036 54.9645C182.84 54.7692 182.524 54.7692 182.328 54.9645L179.146 58.1464ZM198.354 58.8536C198.549 58.6583 198.549 58.3417 198.354 58.1464L195.172 54.9645C194.976 54.7692 194.66 54.7692 194.464 54.9645C194.269 55.1597 194.269 55.4763 194.464 55.6716L197.293 58.5L194.464 61.3284C194.269 61.5237 194.269 61.8403 194.464 62.0355C194.66 62.2308 194.976 62.2308 195.172 62.0355L198.354 58.8536ZM179.5 59H198V58H179.5V59Z" fill="#0D69D4" mask="url(#)"/>
<mask maskUnits="userSpaceOnUse" x="0" y="0" width="0" height="0" fill="black">
<rect fill="white" width="0" height="0"/>
</mask>
<path d="M199.646 58.1464C199.451 58.3417 199.451 58.6583 199.646 58.8536L202.828 62.0355C203.024 62.2308 203.34 62.2308 203.536 62.0355C203.731 61.8403 203.731 61.5237 203.536 61.3284L200.707 58.5L203.536 55.6716C203.731 55.4763 203.731 55.1597 203.536 54.9645C203.34 54.7692 203.024 54.7692 202.828 54.9645L199.646 58.1464ZM218.854 58.8536C219.049 58.6583 219.049 58.3417 218.854 58.1464L215.672 54.9645C215.476 54.7692 215.16 54.7692 214.964 54.9645C214.769 55.1597 214.769 55.4763 214.964 55.6716L217.793 58.5L214.964 61.3284C214.769 61.5237 214.769 61.8403 214.964 62.0355C215.16 62.2308 215.476 62.2308 215.672 62.0355L218.854 58.8536ZM200 59H218.5V58H200V59Z" fill="#0D69D4" mask="url(#)"/>
</g>
<rect x="189" y="79" width="20" height="20" fill="#0D69D4" fill-opacity="0.2"/>
<g clip-path="url(#clip2_893_33969)">
<mask maskUnits="userSpaceOnUse" x="0" y="0" width="0" height="0" fill="black">
<rect fill="white" width="0" height="0"/>
</mask>
<path d="M211.146 58.1464C210.951 58.3417 210.951 58.6583 211.146 58.8536L214.328 62.0355C214.524 62.2308 214.84 62.2308 215.036 62.0355C215.231 61.8403 215.231 61.5237 215.036 61.3284L212.207 58.5L215.036 55.6716C215.231 55.4763 215.231 55.1597 215.036 54.9645C214.84 54.7692 214.524 54.7692 214.328 54.9645L211.146 58.1464ZM257.854 58.8536C258.049 58.6583 258.049 58.3417 257.854 58.1464L254.672 54.9645C254.476 54.7692 254.16 54.7692 253.964 54.9645C253.769 55.1597 253.769 55.4763 253.964 55.6716L256.793 58.5L253.964 61.3284C253.769 61.5237 253.769 61.8403 253.964 62.0355C254.16 62.2308 254.476 62.2308 254.672 62.0355L257.854 58.8536ZM211.5 59H257.5V58H211.5V59Z" fill="#0D69D4" mask="url(#)"/>
<mask maskUnits="userSpaceOnUse" x="0" y="0" width="0" height="0" fill="black">
<rect fill="white" width="0" height="0"/>
</mask>
<path d="M259.146 58.1464C258.951 58.3417 258.951 58.6583 259.146 58.8536L262.328 62.0355C262.524 62.2308 262.84 62.2308 263.036 62.0355C263.231 61.8403 263.231 61.5237 263.036 61.3284L260.207 58.5L263.036 55.6716C263.231 55.4763 263.231 55.1597 263.036 54.9645C262.84 54.7692 262.524 54.7692 262.328 54.9645L259.146 58.1464ZM305.854 58.8536C306.049 58.6583 306.049 58.3417 305.854 58.1464L302.672 54.9645C302.476 54.7692 302.16 54.7692 301.964 54.9645C301.769 55.1597 301.769 55.4763 301.964 55.6716L304.793 58.5L301.964 61.3284C301.769 61.5237 301.769 61.8403 301.964 62.0355C302.16 62.2308 302.476 62.2308 302.672 62.0355L305.854 58.8536ZM259.5 59H305.5V58H259.5V59Z" fill="#0D69D4" mask="url(#)"/>
</g>
<rect x="221" y="80" width="75" height="18" fill="#0D69D4" fill-opacity="0.2"/>
<rect x="165" y="67" width="155" height="12" fill="#007D00" fill-opacity="0.3"/>
<line x1="149" y1="67.5" x2="320" y2="67.5" stroke="#007D00"/>
<line x1="149" y1="78.5" x2="320" y2="78.5" stroke="#007D00"/>
<path d="M135.504 68.2727V77H133.659V70.0241H133.608L131.609 71.277V69.6406L133.77 68.2727H135.504ZM137.578 77V75.6705L140.685 72.794C140.949 72.5384 141.171 72.3082 141.35 72.1037C141.532 71.8991 141.669 71.6989 141.763 71.5028C141.857 71.304 141.904 71.0895 141.904 70.8594C141.904 70.6037 141.846 70.3835 141.729 70.1989C141.613 70.0114 141.453 69.8679 141.252 69.7685C141.05 69.6662 140.821 69.6151 140.566 69.6151C140.299 69.6151 140.066 69.669 139.867 69.777C139.668 69.8849 139.515 70.0398 139.407 70.2415C139.299 70.4432 139.245 70.6832 139.245 70.9616H137.493C137.493 70.3906 137.623 69.8949 137.881 69.4744C138.14 69.054 138.502 68.7287 138.968 68.4986C139.434 68.2685 139.971 68.1534 140.578 68.1534C141.203 68.1534 141.748 68.2642 142.211 68.4858C142.676 68.7045 143.039 69.0085 143.297 69.3977C143.556 69.7869 143.685 70.233 143.685 70.7358C143.685 71.0653 143.62 71.3906 143.489 71.7116C143.361 72.0327 143.132 72.3892 142.803 72.7812C142.473 73.1705 142.009 73.6378 141.409 74.1832L140.135 75.4318V75.4915H143.8V77H137.578Z" fill="#007D00"/>
<rect x="165" y="99" width="155" height="12" fill="#007D00" fill-opacity="0.3"/>
<line x1="149" y1="99.5" x2="320" y2="99.5" stroke="#007D00"/>
<line x1="149" y1="110.5" x2="320" y2="110.5" stroke="#007D00"/>
<path d="M135.504 100.273V109H133.659V102.024H133.608L131.609 103.277V101.641L133.77 100.273H135.504ZM137.578 109V107.67L140.685 104.794C140.949 104.538 141.171 104.308 141.35 104.104C141.532 103.899 141.669 103.699 141.763 103.503C141.857 103.304 141.904 103.089 141.904 102.859C141.904 102.604 141.846 102.384 141.729 102.199C141.613 102.011 141.453 101.868 141.252 101.768C141.05 101.666 140.821 101.615 140.566 101.615C140.299 101.615 140.066 101.669 139.867 101.777C139.668 101.885 139.515 102.04 139.407 102.241C139.299 102.443 139.245 102.683 139.245 102.962H137.493C137.493 102.391 137.623 101.895 137.881 101.474C138.14 101.054 138.502 100.729 138.968 100.499C139.434 100.268 139.971 100.153 140.578 100.153C141.203 100.153 141.748 100.264 142.211 100.486C142.676 100.705 143.039 101.009 143.297 101.398C143.556 101.787 143.685 102.233 143.685 102.736C143.685 103.065 143.62 103.391 143.489 103.712C143.361 104.033 143.132 104.389 142.803 104.781C142.473 105.17 142.009 105.638 141.409 106.183L140.135 107.432V107.491H143.8V109H137.578Z" fill="#007D00"/>
<rect x="165" y="79" width="24" height="20" fill="#007D00" fill-opacity="0.3"/>
<line x1="165.5" y1="51" x2="165.5" y2="111" stroke="#007D00"/>
<line x1="188.5" y1="51" x2="188.5" y2="111" stroke="#007D00"/>
<path d="M173.504 38.2727V47H171.659V40.0241H171.608L169.609 41.277V39.6406L171.77 38.2727H173.504ZM178.928 47.1193C178.479 47.1165 178.046 47.0412 177.628 46.8935C177.213 46.7457 176.841 46.5057 176.512 46.1733C176.182 45.8409 175.921 45.4006 175.728 44.8523C175.537 44.304 175.442 43.6307 175.442 42.8324C175.445 42.0994 175.529 41.4446 175.694 40.8679C175.861 40.2884 176.1 39.7969 176.409 39.3935C176.722 38.9901 177.096 38.6832 177.53 38.473C177.965 38.2599 178.452 38.1534 178.992 38.1534C179.574 38.1534 180.088 38.267 180.534 38.4943C180.98 38.7187 181.338 39.0241 181.608 39.4105C181.881 39.7969 182.046 40.2301 182.103 40.7102H180.283C180.212 40.4062 180.063 40.1676 179.836 39.9943C179.608 39.821 179.327 39.7344 178.992 39.7344C178.424 39.7344 177.992 39.9815 177.696 40.4759C177.404 40.9702 177.255 41.642 177.249 42.4915H177.309C177.439 42.233 177.615 42.0128 177.837 41.831C178.061 41.6463 178.316 41.5057 178.6 41.4091C178.887 41.3097 179.189 41.2599 179.507 41.2599C180.025 41.2599 180.485 41.3821 180.888 41.6264C181.292 41.8679 181.61 42.2003 181.843 42.6236C182.076 43.0469 182.192 43.5312 182.192 44.0767C182.192 44.6676 182.054 45.1932 181.779 45.6534C181.506 46.1136 181.124 46.4744 180.632 46.7358C180.144 46.9943 179.576 47.1222 178.928 47.1193ZM178.919 45.6705C179.203 45.6705 179.458 45.6023 179.682 45.4659C179.907 45.3295 180.083 45.1449 180.211 44.9119C180.338 44.679 180.402 44.4176 180.402 44.1278C180.402 43.8381 180.338 43.5781 180.211 43.348C180.086 43.1179 179.912 42.9347 179.691 42.7983C179.469 42.6619 179.216 42.5938 178.932 42.5938C178.719 42.5938 178.522 42.6335 178.34 42.7131C178.161 42.7926 178.003 42.9034 177.867 43.0455C177.733 43.1875 177.628 43.3523 177.551 43.5398C177.475 43.7244 177.436 43.9219 177.436 44.1321C177.436 44.4134 177.5 44.6705 177.628 44.9034C177.759 45.1364 177.935 45.3224 178.157 45.4616C178.381 45.6009 178.635 45.6705 178.919 45.6705Z" fill="#007D00"/>
<rect x="296" y="79" width="24" height="20" fill="#007D00" fill-opacity="0.3"/>
<line x1="296.5" y1="51" x2="296.5" y2="111" stroke="#007D00"/>
<line x1="319.5" y1="51" x2="319.5" y2="111" stroke="#007D00"/>
<path d="M304.504 38.2727V47H302.659V40.0241H302.608L300.609 41.277V39.6406L302.77 38.2727H304.504ZM309.928 47.1193C309.479 47.1165 309.046 47.0412 308.628 46.8935C308.213 46.7457 307.841 46.5057 307.512 46.1733C307.182 45.8409 306.921 45.4006 306.728 44.8523C306.537 44.304 306.442 43.6307 306.442 42.8324C306.445 42.0994 306.529 41.4446 306.694 40.8679C306.861 40.2884 307.1 39.7969 307.409 39.3935C307.722 38.9901 308.096 38.6832 308.53 38.473C308.965 38.2599 309.452 38.1534 309.992 38.1534C310.574 38.1534 311.088 38.267 311.534 38.4943C311.98 38.7187 312.338 39.0241 312.608 39.4105C312.881 39.7969 313.046 40.2301 313.103 40.7102H311.283C311.212 40.4062 311.063 40.1676 310.836 39.9943C310.608 39.821 310.327 39.7344 309.992 39.7344C309.424 39.7344 308.992 39.9815 308.696 40.4759C308.404 40.9702 308.255 41.642 308.249 42.4915H308.309C308.439 42.233 308.615 42.0128 308.837 41.831C309.061 41.6463 309.316 41.5057 309.6 41.4091C309.887 41.3097 310.189 41.2599 310.507 41.2599C311.025 41.2599 311.485 41.3821 311.888 41.6264C312.292 41.8679 312.61 42.2003 312.843 42.6236C313.076 43.0469 313.192 43.5312 313.192 44.0767C313.192 44.6676 313.054 45.1932 312.779 45.6534C312.506 46.1136 312.124 46.4744 311.632 46.7358C311.144 46.9943 310.576 47.1222 309.928 47.1193ZM309.919 45.6705C310.203 45.6705 310.458 45.6023 310.682 45.4659C310.907 45.3295 311.083 45.1449 311.211 44.9119C311.338 44.679 311.402 44.4176 311.402 44.1278C311.402 43.8381 311.338 43.5781 311.211 43.348C311.086 43.1179 310.912 42.9347 310.691 42.7983C310.469 42.6619 310.216 42.5938 309.932 42.5938C309.719 42.5938 309.522 42.6335 309.34 42.7131C309.161 42.7926 309.003 42.9034 308.867 43.0455C308.733 43.1875 308.628 43.3523 308.551 43.5398C308.475 43.7244 308.436 43.9219 308.436 44.1321C308.436 44.4134 308.5 44.6705 308.628 44.9034C308.759 45.1364 308.935 45.3224 309.157 45.4616C309.381 45.6009 309.635 45.6705 309.919 45.6705Z" fill="#007D00"/>
<rect x="0.5" y="0.5" width="719" height="298" stroke="#EAECF0"/>
<defs>
<clipPath id="clip0_893_33969">
<rect width="121" height="16" fill="white" transform="translate(189 152)"/>
</clipPath>
<clipPath id="clip1_893_33969">
<rect width="20" height="16" fill="white" transform="translate(189 51)"/>
</clipPath>
<clipPath id="clip2_893_33969">
<rect width="75" height="16" fill="white" transform="translate(221 51)"/>
</clipPath>
</defs>
</svg>
