<svg width="780" height="301" viewBox="0 0 780 301" fill="none" xmlns="http://www.w3.org/2000/svg">
<mask id="path-1-inside-1_587_6330" fill="white">
<path d="M0 0H390V150H0V0Z"/>
</mask>
<path d="M0 0H390V150H0V0Z" fill="#F9FAFB"/>
<rect x="129.5" y="72.5" width="130" height="35" rx="2.5" fill="#217CF5"/>
<path d="M146.039 95V85.5455H149.501C150.172 85.5455 150.728 85.6562 151.168 85.8778C151.608 86.0964 151.937 86.3933 152.156 86.7688C152.374 87.1412 152.483 87.5613 152.483 88.0291C152.483 88.4231 152.411 88.7554 152.266 89.0263C152.122 89.294 151.928 89.5095 151.685 89.6726C151.445 89.8326 151.18 89.9496 150.891 90.0234V90.1158C151.205 90.1312 151.511 90.2327 151.809 90.4205C152.111 90.6051 152.36 90.8683 152.557 91.2099C152.754 91.5515 152.853 91.967 152.853 92.4563C152.853 92.9395 152.739 93.3735 152.511 93.7582C152.286 94.1398 151.939 94.4429 151.468 94.6676C150.997 94.8892 150.395 95 149.663 95H146.039ZM147.465 93.7766H149.524C150.207 93.7766 150.697 93.6443 150.992 93.3796C151.288 93.1149 151.435 92.7841 151.435 92.3871C151.435 92.0885 151.36 91.8146 151.209 91.5653C151.058 91.3161 150.843 91.1175 150.563 90.9698C150.286 90.8221 149.957 90.7482 149.575 90.7482H147.465V93.7766ZM147.465 89.6357H149.376C149.696 89.6357 149.984 89.5741 150.24 89.451C150.498 89.3279 150.703 89.1555 150.854 88.9339C151.008 88.7093 151.085 88.4446 151.085 88.1399C151.085 87.7491 150.948 87.4213 150.674 87.1566C150.4 86.8919 149.98 86.7596 149.413 86.7596H147.465V89.6357ZM158.926 92.0593V87.9091H160.311V95H158.953V93.772H158.879C158.716 94.1506 158.455 94.466 158.095 94.7184C157.738 94.9677 157.293 95.0923 156.76 95.0923C156.305 95.0923 155.902 94.9923 155.551 94.7923C155.203 94.5891 154.929 94.2891 154.729 93.892C154.532 93.495 154.434 93.0041 154.434 92.4194V87.9091H155.814V92.2532C155.814 92.7364 155.948 93.1211 156.216 93.4073C156.483 93.6935 156.831 93.8366 157.259 93.8366C157.518 93.8366 157.775 93.772 158.03 93.6428C158.289 93.5135 158.502 93.3181 158.672 93.0565C158.844 92.7949 158.929 92.4625 158.926 92.0593ZM165.475 87.9091V89.017H161.602V87.9091H165.475ZM162.641 86.2102H164.021V92.918C164.021 93.1857 164.061 93.3873 164.141 93.5227C164.221 93.6551 164.324 93.7459 164.45 93.7951C164.58 93.8413 164.72 93.8643 164.87 93.8643C164.981 93.8643 165.078 93.8567 165.161 93.8413C165.244 93.8259 165.309 93.8136 165.355 93.8043L165.604 94.9446C165.524 94.9754 165.411 95.0062 165.263 95.0369C165.115 95.0708 164.93 95.0893 164.709 95.0923C164.346 95.0985 164.007 95.0339 163.693 94.8984C163.379 94.763 163.125 94.5537 162.932 94.2706C162.738 93.9875 162.641 93.632 162.641 93.2042V86.2102ZM170.312 87.9091V89.017H166.439V87.9091H170.312ZM167.478 86.2102H168.858V92.918C168.858 93.1857 168.898 93.3873 168.978 93.5227C169.058 93.6551 169.161 93.7459 169.287 93.7951C169.417 93.8413 169.557 93.8643 169.707 93.8643C169.818 93.8643 169.915 93.8567 169.998 93.8413C170.081 93.8259 170.146 93.8136 170.192 93.8043L170.441 94.9446C170.361 94.9754 170.248 95.0062 170.1 95.0369C169.952 95.0708 169.767 95.0893 169.546 95.0923C169.183 95.0985 168.844 95.0339 168.53 94.8984C168.216 94.763 167.962 94.5537 167.768 94.2706C167.575 93.9875 167.478 93.632 167.478 93.2042V86.2102ZM174.75 95.1431C174.085 95.1431 173.505 94.9908 173.009 94.6861C172.514 94.3814 172.129 93.9551 171.855 93.4073C171.581 92.8595 171.444 92.2193 171.444 91.4869C171.444 90.7513 171.581 90.1081 171.855 89.5572C172.129 89.0063 172.514 88.5785 173.009 88.2738C173.505 87.9691 174.085 87.8168 174.75 87.8168C175.415 87.8168 175.995 87.9691 176.49 88.2738C176.986 88.5785 177.37 89.0063 177.644 89.5572C177.918 90.1081 178.055 90.7513 178.055 91.4869C178.055 92.2193 177.918 92.8595 177.644 93.4073C177.37 93.9551 176.986 94.3814 176.49 94.6861C175.995 94.9908 175.415 95.1431 174.75 95.1431ZM174.754 93.9844C175.185 93.9844 175.542 93.8705 175.825 93.6428C176.109 93.415 176.318 93.1119 176.453 92.7333C176.592 92.3548 176.661 91.9377 176.661 91.4822C176.661 91.0298 176.592 90.6143 176.453 90.2358C176.318 89.8542 176.109 89.5479 175.825 89.3171C175.542 89.0863 175.185 88.9709 174.754 88.9709C174.32 88.9709 173.96 89.0863 173.674 89.3171C173.391 89.5479 173.18 89.8542 173.042 90.2358C172.906 90.6143 172.839 91.0298 172.839 91.4822C172.839 91.9377 172.906 92.3548 173.042 92.7333C173.18 93.1119 173.391 93.415 173.674 93.6428C173.96 93.8705 174.32 93.9844 174.754 93.9844ZM180.976 90.7898V95H179.596V87.9091H180.921V89.0632H181.009C181.172 88.6877 181.427 88.3861 181.775 88.1584C182.126 87.9306 182.567 87.8168 183.1 87.8168C183.583 87.8168 184.006 87.9183 184.369 88.1214C184.732 88.3215 185.014 88.62 185.214 89.017C185.414 89.4141 185.514 89.9049 185.514 90.4897V95H184.134V90.6559C184.134 90.1419 184 89.7403 183.732 89.451C183.464 89.1586 183.097 89.0124 182.629 89.0124C182.309 89.0124 182.024 89.0817 181.775 89.2202C181.529 89.3587 181.333 89.5618 181.189 89.8295C181.047 90.0942 180.976 90.4143 180.976 90.7898ZM198.769 88.62H197.329C197.274 88.3123 197.17 88.0414 197.02 87.8075C196.869 87.5736 196.684 87.3751 196.466 87.212C196.247 87.0489 196.002 86.9258 195.732 86.8427C195.464 86.7596 195.179 86.718 194.878 86.718C194.333 86.718 193.845 86.855 193.414 87.1289C192.986 87.4028 192.648 87.8045 192.399 88.3338C192.152 88.8632 192.029 89.5095 192.029 90.2727C192.029 91.0421 192.152 91.6915 192.399 92.2209C192.648 92.7502 192.988 93.1503 193.419 93.4212C193.85 93.692 194.334 93.8274 194.873 93.8274C195.171 93.8274 195.455 93.7874 195.722 93.7074C195.993 93.6243 196.238 93.5027 196.456 93.3427C196.675 93.1826 196.86 92.9872 197.01 92.7564C197.164 92.5225 197.27 92.2547 197.329 91.9531L198.769 91.9577C198.692 92.4225 198.543 92.8503 198.321 93.2411C198.103 93.6289 197.821 93.9644 197.477 94.2475C197.135 94.5276 196.744 94.7446 196.304 94.8984C195.864 95.0523 195.384 95.1293 194.864 95.1293C194.045 95.1293 193.316 94.9354 192.676 94.5476C192.035 94.1567 191.531 93.5981 191.161 92.8718C190.795 92.1455 190.612 91.2791 190.612 90.2727C190.612 89.2633 190.797 88.3969 191.166 87.6737C191.535 86.9473 192.04 86.3903 192.68 86.0025C193.32 85.6116 194.048 85.4162 194.864 85.4162C195.365 85.4162 195.833 85.4885 196.267 85.6332C196.704 85.7747 197.097 85.984 197.444 86.261C197.792 86.5349 198.08 86.8704 198.308 87.2674C198.535 87.6613 198.689 88.1122 198.769 88.62ZM200.01 86.7734V85.5455H207.327V86.7734H204.377V95H202.955V86.7734H200.01ZM208.625 95H207.111L210.514 85.5455H212.162L215.564 95H214.05L211.377 87.2628H211.303L208.625 95ZM208.879 91.2976H213.791V92.4979H208.879V91.2976Z" fill="white"/>
<g clip-path="url(#clip0_587_6330)">
<path d="M234.001 98.3337C238.604 98.3337 242.335 94.6027 242.335 90.0003C242.335 85.398 238.604 81.667 234.001 81.667C229.399 81.667 225.668 85.398 225.668 90.0003C225.668 94.6027 229.399 98.3337 234.001 98.3337Z" stroke="white" stroke-width="2" stroke-linecap="round" stroke-linejoin="round"/>
</g>
<rect x="129.5" y="72.5" width="130" height="35" rx="2.5" stroke="#217CF5"/>
<g clip-path="url(#clip1_587_6330)">
<rect x="81" y="90" width="48" height="1" fill="#C54600"/>
<g clip-path="url(#clip2_587_6330)">
<rect x="81" y="78" width="24" height="24" rx="12" fill="#C54600"/>
<path d="M94.8302 84.8182V95H92.6775V86.8615H92.6178L90.2861 88.3232V86.4141L92.8067 84.8182H94.8302Z" fill="white"/>
</g>
</g>
<g clip-path="url(#clip3_587_6330)">
<rect x="180.5" y="24" width="1" height="56" fill="#C54600"/>
<g clip-path="url(#clip4_587_6330)">
<rect x="168.5" y="24" width="24" height="24" rx="12" fill="#C54600"/>
<path d="M176.916 41V39.4489L180.54 36.093C180.849 35.7947 181.107 35.5263 181.316 35.2876C181.528 35.049 181.689 34.8153 181.798 34.5866C181.908 34.3546 181.962 34.1044 181.962 33.8359C181.962 33.5376 181.894 33.2808 181.758 33.0653C181.623 32.8466 181.437 32.6792 181.202 32.5632C180.966 32.4439 180.699 32.3842 180.401 32.3842C180.09 32.3842 179.818 32.4472 179.586 32.5732C179.354 32.6991 179.175 32.8797 179.049 33.1151C178.923 33.3504 178.86 33.6304 178.86 33.9553H176.817C176.817 33.2891 176.967 32.7107 177.269 32.2202C177.571 31.7296 177.993 31.3501 178.537 31.0817C179.08 30.8132 179.707 30.679 180.416 30.679C181.145 30.679 181.78 30.8082 182.32 31.0668C182.864 31.322 183.286 31.6766 183.588 32.1307C183.89 32.5848 184.04 33.1051 184.04 33.6918C184.04 34.0762 183.964 34.4557 183.812 34.8303C183.663 35.2048 183.396 35.6207 183.011 36.0781C182.627 36.5322 182.085 37.0774 181.386 37.7138L179.899 39.1705V39.2401H184.175V41H176.916Z" fill="white"/>
</g>
</g>
<g clip-path="url(#clip5_587_6330)">
<rect x="234" y="24" width="1" height="56" fill="#C54600"/>
<g clip-path="url(#clip6_587_6330)">
<rect x="222" y="24" width="24" height="24" rx="12" fill="#C54600"/>
<path d="M233.975 41.1392C233.232 41.1392 232.571 41.0116 231.991 40.7564C231.414 40.4979 230.958 40.1432 230.624 39.6925C230.292 39.2384 230.122 38.7147 230.112 38.1214H232.279C232.292 38.37 232.374 38.5888 232.523 38.7777C232.675 38.9633 232.877 39.1075 233.129 39.2102C233.381 39.313 233.665 39.3643 233.979 39.3643C234.308 39.3643 234.598 39.3063 234.85 39.1903C235.101 39.0743 235.299 38.9136 235.441 38.7081C235.584 38.5026 235.655 38.2656 235.655 37.9972C235.655 37.7254 235.579 37.4851 235.426 37.2763C235.277 37.0642 235.062 36.8984 234.78 36.7791C234.502 36.6598 234.17 36.6001 233.786 36.6001H232.836V35.0192H233.786C234.11 35.0192 234.397 34.9628 234.646 34.8501C234.898 34.7375 235.093 34.5817 235.232 34.3828C235.372 34.1806 235.441 33.9453 235.441 33.6768C235.441 33.4216 235.38 33.1979 235.257 33.0057C235.138 32.8101 234.969 32.6577 234.75 32.5483C234.535 32.4389 234.283 32.3842 233.994 32.3842C233.703 32.3842 233.436 32.4373 233.194 32.5433C232.952 32.6461 232.758 32.7936 232.612 32.9858C232.466 33.178 232.389 33.4034 232.379 33.6619H230.315C230.325 33.0753 230.493 32.5582 230.818 32.1108C231.142 31.6634 231.58 31.3137 232.13 31.0618C232.684 30.8066 233.308 30.679 234.004 30.679C234.707 30.679 235.322 30.8066 235.849 31.0618C236.376 31.317 236.785 31.6617 237.077 32.0959C237.372 32.5268 237.518 33.0107 237.514 33.5476C237.518 34.1177 237.34 34.5933 236.982 34.9744C236.628 35.3556 236.165 35.5975 235.595 35.7003V35.7798C236.344 35.8759 236.914 36.1361 237.305 36.5604C237.7 36.9813 237.895 37.5083 237.892 38.1413C237.895 38.7214 237.728 39.2367 237.39 39.6875C237.055 40.1383 236.593 40.4929 236.003 40.7514C235.413 41.0099 234.737 41.1392 233.975 41.1392Z" fill="white"/>
</g>
</g>
<path d="M389 0V150H391V0H389Z" fill="#D0D0D0" mask="url(#path-1-inside-1_587_6330)"/>
<rect width="390" height="150" transform="translate(390 151)" fill="#F9FAFB"/>
<g clip-path="url(#clip7_587_6330)">
<g clip-path="url(#clip8_587_6330)">
<path d="M545.001 243.334C549.604 243.334 553.335 239.603 553.335 235C553.335 230.398 549.604 226.667 545.001 226.667C540.399 226.667 536.668 230.398 536.668 235C536.668 239.603 540.399 243.334 545.001 243.334Z" stroke="#217CF5" stroke-width="2" stroke-linecap="round" stroke-linejoin="round"/>
</g>
<path d="M564.039 240V230.545H567.501C568.172 230.545 568.728 230.656 569.168 230.878C569.608 231.096 569.937 231.393 570.156 231.769C570.374 232.141 570.483 232.561 570.483 233.029C570.483 233.423 570.411 233.755 570.266 234.026C570.122 234.294 569.928 234.509 569.685 234.673C569.445 234.833 569.18 234.95 568.891 235.023V235.116C569.205 235.131 569.511 235.233 569.809 235.42C570.111 235.605 570.36 235.868 570.557 236.21C570.754 236.551 570.853 236.967 570.853 237.456C570.853 237.94 570.739 238.373 570.511 238.758C570.286 239.14 569.939 239.443 569.468 239.668C568.997 239.889 568.395 240 567.663 240H564.039ZM565.465 238.777H567.524C568.207 238.777 568.697 238.644 568.992 238.38C569.288 238.115 569.435 237.784 569.435 237.387C569.435 237.089 569.36 236.815 569.209 236.565C569.058 236.316 568.843 236.118 568.563 235.97C568.286 235.822 567.957 235.748 567.575 235.748H565.465V238.777ZM565.465 234.636H567.376C567.696 234.636 567.984 234.574 568.24 234.451C568.498 234.328 568.703 234.156 568.854 233.934C569.008 233.709 569.085 233.445 569.085 233.14C569.085 232.749 568.948 232.421 568.674 232.157C568.4 231.892 567.98 231.76 567.413 231.76H565.465V234.636ZM576.926 237.059V232.909H578.311V240H576.953V238.772H576.879C576.716 239.151 576.455 239.466 576.095 239.718C575.738 239.968 575.293 240.092 574.76 240.092C574.305 240.092 573.902 239.992 573.551 239.792C573.203 239.589 572.929 239.289 572.729 238.892C572.532 238.495 572.434 238.004 572.434 237.419V232.909H573.814V237.253C573.814 237.736 573.948 238.121 574.216 238.407C574.483 238.694 574.831 238.837 575.259 238.837C575.518 238.837 575.775 238.772 576.03 238.643C576.289 238.513 576.502 238.318 576.672 238.056C576.844 237.795 576.929 237.462 576.926 237.059ZM583.475 232.909V234.017H579.602V232.909H583.475ZM580.641 231.21H582.021V237.918C582.021 238.186 582.061 238.387 582.141 238.523C582.221 238.655 582.324 238.746 582.45 238.795C582.58 238.841 582.72 238.864 582.87 238.864C582.981 238.864 583.078 238.857 583.161 238.841C583.244 238.826 583.309 238.814 583.355 238.804L583.604 239.945C583.524 239.975 583.411 240.006 583.263 240.037C583.115 240.071 582.93 240.089 582.709 240.092C582.346 240.098 582.007 240.034 581.693 239.898C581.379 239.763 581.125 239.554 580.932 239.271C580.738 238.987 580.641 238.632 580.641 238.204V231.21ZM588.312 232.909V234.017H584.439V232.909H588.312ZM585.478 231.21H586.858V237.918C586.858 238.186 586.898 238.387 586.978 238.523C587.058 238.655 587.161 238.746 587.287 238.795C587.417 238.841 587.557 238.864 587.707 238.864C587.818 238.864 587.915 238.857 587.998 238.841C588.081 238.826 588.146 238.814 588.192 238.804L588.441 239.945C588.361 239.975 588.248 240.006 588.1 240.037C587.952 240.071 587.767 240.089 587.546 240.092C587.183 240.098 586.844 240.034 586.53 239.898C586.216 239.763 585.962 239.554 585.768 239.271C585.575 238.987 585.478 238.632 585.478 238.204V231.21ZM592.75 240.143C592.085 240.143 591.505 239.991 591.009 239.686C590.514 239.381 590.129 238.955 589.855 238.407C589.581 237.859 589.444 237.219 589.444 236.487C589.444 235.751 589.581 235.108 589.855 234.557C590.129 234.006 590.514 233.578 591.009 233.274C591.505 232.969 592.085 232.817 592.75 232.817C593.415 232.817 593.995 232.969 594.49 233.274C594.986 233.578 595.37 234.006 595.644 234.557C595.918 235.108 596.055 235.751 596.055 236.487C596.055 237.219 595.918 237.859 595.644 238.407C595.37 238.955 594.986 239.381 594.49 239.686C593.995 239.991 593.415 240.143 592.75 240.143ZM592.754 238.984C593.185 238.984 593.542 238.871 593.825 238.643C594.109 238.415 594.318 238.112 594.453 237.733C594.592 237.355 594.661 236.938 594.661 236.482C594.661 236.03 594.592 235.614 594.453 235.236C594.318 234.854 594.109 234.548 593.825 234.317C593.542 234.086 593.185 233.971 592.754 233.971C592.32 233.971 591.96 234.086 591.674 234.317C591.391 234.548 591.18 234.854 591.042 235.236C590.906 235.614 590.839 236.03 590.839 236.482C590.839 236.938 590.906 237.355 591.042 237.733C591.18 238.112 591.391 238.415 591.674 238.643C591.96 238.871 592.32 238.984 592.754 238.984ZM598.976 235.79V240H597.596V232.909H598.921V234.063H599.009C599.172 233.688 599.427 233.386 599.775 233.158C600.126 232.931 600.567 232.817 601.1 232.817C601.583 232.817 602.006 232.918 602.369 233.121C602.732 233.321 603.014 233.62 603.214 234.017C603.414 234.414 603.514 234.905 603.514 235.49V240H602.134V235.656C602.134 235.142 602 234.74 601.732 234.451C601.464 234.159 601.097 234.012 600.629 234.012C600.309 234.012 600.024 234.082 599.775 234.22C599.529 234.359 599.333 234.562 599.189 234.83C599.047 235.094 598.976 235.414 598.976 235.79ZM616.769 233.62H615.329C615.274 233.312 615.17 233.041 615.02 232.808C614.869 232.574 614.684 232.375 614.466 232.212C614.247 232.049 614.002 231.926 613.732 231.843C613.464 231.76 613.179 231.718 612.878 231.718C612.333 231.718 611.845 231.855 611.414 232.129C610.986 232.403 610.648 232.804 610.399 233.334C610.152 233.863 610.029 234.509 610.029 235.273C610.029 236.042 610.152 236.692 610.399 237.221C610.648 237.75 610.988 238.15 611.419 238.421C611.85 238.692 612.334 238.827 612.873 238.827C613.171 238.827 613.455 238.787 613.722 238.707C613.993 238.624 614.238 238.503 614.456 238.343C614.675 238.183 614.86 237.987 615.01 237.756C615.164 237.522 615.27 237.255 615.329 236.953L616.769 236.958C616.692 237.422 616.543 237.85 616.321 238.241C616.103 238.629 615.821 238.964 615.477 239.248C615.135 239.528 614.744 239.745 614.304 239.898C613.864 240.052 613.384 240.129 612.864 240.129C612.045 240.129 611.316 239.935 610.676 239.548C610.035 239.157 609.531 238.598 609.161 237.872C608.795 237.145 608.612 236.279 608.612 235.273C608.612 234.263 608.797 233.397 609.166 232.674C609.535 231.947 610.04 231.39 610.68 231.002C611.32 230.612 612.048 230.416 612.864 230.416C613.365 230.416 613.833 230.489 614.267 230.633C614.704 230.775 615.097 230.984 615.444 231.261C615.792 231.535 616.08 231.87 616.308 232.267C616.535 232.661 616.689 233.112 616.769 233.62ZM618.01 231.773V230.545H625.327V231.773H622.377V240H620.955V231.773H618.01ZM626.625 240H625.111L628.514 230.545H630.162L633.564 240H632.05L629.377 232.263H629.303L626.625 240ZM626.879 236.298H631.791V237.498H626.879V236.298Z" fill="#217CF5"/>
</g>
<g clip-path="url(#clip9_587_6330)">
<rect x="487" y="235" width="48" height="1" fill="#C54600"/>
<g clip-path="url(#clip10_587_6330)">
<rect x="487" y="223" width="24" height="24" rx="12" fill="#C54600"/>
<path d="M500.83 229.818V240H498.677V231.862H498.618L496.286 233.323V231.414L498.807 229.818H500.83Z" fill="white"/>
</g>
</g>
<g clip-path="url(#clip11_587_6330)">
<rect x="584.5" y="177" width="1" height="48" fill="#C54600"/>
<g clip-path="url(#clip12_587_6330)">
<rect x="572.5" y="177" width="24" height="24" rx="12" fill="#C54600"/>
<path d="M580.916 194V192.449L584.54 189.093C584.849 188.795 585.107 188.526 585.316 188.288C585.528 188.049 585.689 187.815 585.798 187.587C585.908 187.355 585.962 187.104 585.962 186.836C585.962 186.538 585.894 186.281 585.758 186.065C585.623 185.847 585.437 185.679 585.202 185.563C584.966 185.444 584.699 185.384 584.401 185.384C584.09 185.384 583.818 185.447 583.586 185.573C583.354 185.699 583.175 185.88 583.049 186.115C582.923 186.35 582.86 186.63 582.86 186.955H580.817C580.817 186.289 580.967 185.711 581.269 185.22C581.571 184.73 581.993 184.35 582.537 184.082C583.08 183.813 583.707 183.679 584.416 183.679C585.145 183.679 585.78 183.808 586.32 184.067C586.864 184.322 587.286 184.677 587.588 185.131C587.89 185.585 588.04 186.105 588.04 186.692C588.04 187.076 587.964 187.456 587.812 187.83C587.663 188.205 587.396 188.621 587.011 189.078C586.627 189.532 586.085 190.077 585.386 190.714L583.899 192.17V192.24H588.175V194H580.916Z" fill="white"/>
</g>
</g>
<mask id="path-23-inside-2_587_6330" fill="white">
<path d="M390 0H780V150H390V0Z"/>
</mask>
<path d="M390 0H780V150H390V0Z" fill="#F9FAFB"/>
<rect x="533.5" y="72.5" width="102" height="35" rx="2.5" fill="white"/>
<path d="M550.039 95V85.5455H553.501C554.172 85.5455 554.728 85.6562 555.168 85.8778C555.608 86.0964 555.937 86.3933 556.156 86.7688C556.374 87.1412 556.483 87.5613 556.483 88.0291C556.483 88.4231 556.411 88.7554 556.266 89.0263C556.122 89.294 555.928 89.5095 555.685 89.6726C555.445 89.8326 555.18 89.9496 554.891 90.0234V90.1158C555.205 90.1312 555.511 90.2327 555.809 90.4205C556.111 90.6051 556.36 90.8683 556.557 91.2099C556.754 91.5515 556.853 91.967 556.853 92.4563C556.853 92.9395 556.739 93.3735 556.511 93.7582C556.286 94.1398 555.939 94.4429 555.468 94.6676C554.997 94.8892 554.395 95 553.663 95H550.039ZM551.465 93.7766H553.524C554.207 93.7766 554.697 93.6443 554.992 93.3796C555.288 93.1149 555.435 92.7841 555.435 92.3871C555.435 92.0885 555.36 91.8146 555.209 91.5653C555.058 91.3161 554.843 91.1175 554.563 90.9698C554.286 90.8221 553.957 90.7482 553.575 90.7482H551.465V93.7766ZM551.465 89.6357H553.376C553.696 89.6357 553.984 89.5741 554.24 89.451C554.498 89.3279 554.703 89.1555 554.854 88.9339C555.008 88.7093 555.085 88.4446 555.085 88.1399C555.085 87.7491 554.948 87.4213 554.674 87.1566C554.4 86.8919 553.98 86.7596 553.413 86.7596H551.465V89.6357ZM562.926 92.0593V87.9091H564.311V95H562.953V93.772H562.879C562.716 94.1506 562.455 94.466 562.095 94.7184C561.738 94.9677 561.293 95.0923 560.76 95.0923C560.305 95.0923 559.902 94.9923 559.551 94.7923C559.203 94.5891 558.929 94.2891 558.729 93.892C558.532 93.495 558.434 93.0041 558.434 92.4194V87.9091H559.814V92.2532C559.814 92.7364 559.948 93.1211 560.216 93.4073C560.483 93.6935 560.831 93.8366 561.259 93.8366C561.518 93.8366 561.775 93.772 562.03 93.6428C562.289 93.5135 562.502 93.3181 562.672 93.0565C562.844 92.7949 562.929 92.4625 562.926 92.0593ZM569.475 87.9091V89.017H565.602V87.9091H569.475ZM566.641 86.2102H568.021V92.918C568.021 93.1857 568.061 93.3873 568.141 93.5227C568.221 93.6551 568.324 93.7459 568.45 93.7951C568.58 93.8413 568.72 93.8643 568.87 93.8643C568.981 93.8643 569.078 93.8567 569.161 93.8413C569.244 93.8259 569.309 93.8136 569.355 93.8043L569.604 94.9446C569.524 94.9754 569.411 95.0062 569.263 95.0369C569.115 95.0708 568.93 95.0893 568.709 95.0923C568.346 95.0985 568.007 95.0339 567.693 94.8984C567.379 94.763 567.125 94.5537 566.932 94.2706C566.738 93.9875 566.641 93.632 566.641 93.2042V86.2102ZM574.312 87.9091V89.017H570.439V87.9091H574.312ZM571.478 86.2102H572.858V92.918C572.858 93.1857 572.898 93.3873 572.978 93.5227C573.058 93.6551 573.161 93.7459 573.287 93.7951C573.417 93.8413 573.557 93.8643 573.707 93.8643C573.818 93.8643 573.915 93.8567 573.998 93.8413C574.081 93.8259 574.146 93.8136 574.192 93.8043L574.441 94.9446C574.361 94.9754 574.248 95.0062 574.1 95.0369C573.952 95.0708 573.767 95.0893 573.546 95.0923C573.183 95.0985 572.844 95.0339 572.53 94.8984C572.216 94.763 571.962 94.5537 571.768 94.2706C571.575 93.9875 571.478 93.632 571.478 93.2042V86.2102ZM578.75 95.1431C578.085 95.1431 577.505 94.9908 577.009 94.6861C576.514 94.3814 576.129 93.9551 575.855 93.4073C575.581 92.8595 575.444 92.2193 575.444 91.4869C575.444 90.7513 575.581 90.1081 575.855 89.5572C576.129 89.0063 576.514 88.5785 577.009 88.2738C577.505 87.9691 578.085 87.8168 578.75 87.8168C579.415 87.8168 579.995 87.9691 580.49 88.2738C580.986 88.5785 581.37 89.0063 581.644 89.5572C581.918 90.1081 582.055 90.7513 582.055 91.4869C582.055 92.2193 581.918 92.8595 581.644 93.4073C581.37 93.9551 580.986 94.3814 580.49 94.6861C579.995 94.9908 579.415 95.1431 578.75 95.1431ZM578.754 93.9844C579.185 93.9844 579.542 93.8705 579.825 93.6428C580.109 93.415 580.318 93.1119 580.453 92.7333C580.592 92.3548 580.661 91.9377 580.661 91.4822C580.661 91.0298 580.592 90.6143 580.453 90.2358C580.318 89.8542 580.109 89.5479 579.825 89.3171C579.542 89.0863 579.185 88.9709 578.754 88.9709C578.32 88.9709 577.96 89.0863 577.674 89.3171C577.391 89.5479 577.18 89.8542 577.042 90.2358C576.906 90.6143 576.839 91.0298 576.839 91.4822C576.839 91.9377 576.906 92.3548 577.042 92.7333C577.18 93.1119 577.391 93.415 577.674 93.6428C577.96 93.8705 578.32 93.9844 578.754 93.9844ZM584.976 90.7898V95H583.596V87.9091H584.921V89.0632H585.009C585.172 88.6877 585.427 88.3861 585.775 88.1584C586.126 87.9306 586.567 87.8168 587.1 87.8168C587.583 87.8168 588.006 87.9183 588.369 88.1214C588.732 88.3215 589.014 88.62 589.214 89.017C589.414 89.4141 589.514 89.9049 589.514 90.4897V95H588.134V90.6559C588.134 90.1419 588 89.7403 587.732 89.451C587.464 89.1586 587.097 89.0124 586.629 89.0124C586.309 89.0124 586.024 89.0817 585.775 89.2202C585.529 89.3587 585.333 89.5618 585.189 89.8295C585.047 90.0942 584.976 90.4143 584.976 90.7898ZM602.769 88.62H601.329C601.274 88.3123 601.17 88.0414 601.02 87.8075C600.869 87.5736 600.684 87.3751 600.466 87.212C600.247 87.0489 600.002 86.9258 599.732 86.8427C599.464 86.7596 599.179 86.718 598.878 86.718C598.333 86.718 597.845 86.855 597.414 87.1289C596.986 87.4028 596.648 87.8045 596.399 88.3338C596.152 88.8632 596.029 89.5095 596.029 90.2727C596.029 91.0421 596.152 91.6915 596.399 92.2209C596.648 92.7502 596.988 93.1503 597.419 93.4212C597.85 93.692 598.334 93.8274 598.873 93.8274C599.171 93.8274 599.455 93.7874 599.722 93.7074C599.993 93.6243 600.238 93.5027 600.456 93.3427C600.675 93.1826 600.86 92.9872 601.01 92.7564C601.164 92.5225 601.27 92.2547 601.329 91.9531L602.769 91.9577C602.692 92.4225 602.543 92.8503 602.321 93.2411C602.103 93.6289 601.821 93.9644 601.477 94.2475C601.135 94.5276 600.744 94.7446 600.304 94.8984C599.864 95.0523 599.384 95.1293 598.864 95.1293C598.045 95.1293 597.316 94.9354 596.676 94.5476C596.035 94.1567 595.531 93.5981 595.161 92.8718C594.795 92.1455 594.612 91.2791 594.612 90.2727C594.612 89.2633 594.797 88.3969 595.166 87.6737C595.535 86.9473 596.04 86.3903 596.68 86.0025C597.32 85.6116 598.048 85.4162 598.864 85.4162C599.365 85.4162 599.833 85.4885 600.267 85.6332C600.704 85.7747 601.097 85.984 601.444 86.261C601.792 86.5349 602.08 86.8704 602.308 87.2674C602.535 87.6613 602.689 88.1122 602.769 88.62ZM604.01 86.7734V85.5455H611.327V86.7734H608.377V95H606.955V86.7734H604.01ZM612.625 95H611.111L614.514 85.5455H616.162L619.564 95H618.05L615.377 87.2628H615.303L612.625 95ZM612.879 91.2976H617.791V92.4979H612.879V91.2976Z" fill="#344054"/>
<rect x="533.5" y="72.5" width="102" height="35" rx="2.5" stroke="#D8DEE9"/>
<g clip-path="url(#clip13_587_6330)">
<rect x="485" y="90" width="48" height="1" fill="#C54600"/>
<g clip-path="url(#clip14_587_6330)">
<rect x="485" y="78" width="24" height="24" rx="12" fill="#C54600"/>
<path d="M498.83 84.8182V95H496.677V86.8615H496.618L494.286 88.3232V86.4141L496.807 84.8182H498.83Z" fill="white"/>
</g>
</g>
<g clip-path="url(#clip15_587_6330)">
<rect x="584.5" y="24" width="1" height="48" fill="#C54600"/>
<g clip-path="url(#clip16_587_6330)">
<rect x="572.5" y="24" width="24" height="24" rx="12" fill="#C54600"/>
<path d="M580.916 41V39.4489L584.54 36.093C584.849 35.7947 585.107 35.5263 585.316 35.2876C585.528 35.049 585.689 34.8153 585.798 34.5866C585.908 34.3546 585.962 34.1044 585.962 33.8359C585.962 33.5376 585.894 33.2808 585.758 33.0653C585.623 32.8466 585.437 32.6792 585.202 32.5632C584.966 32.4439 584.699 32.3842 584.401 32.3842C584.09 32.3842 583.818 32.4472 583.586 32.5732C583.354 32.6991 583.175 32.8797 583.049 33.1151C582.923 33.3504 582.86 33.6304 582.86 33.9553H580.817C580.817 33.2891 580.967 32.7107 581.269 32.2202C581.571 31.7296 581.993 31.3501 582.537 31.0817C583.08 30.8132 583.707 30.679 584.416 30.679C585.145 30.679 585.78 30.8082 586.32 31.0668C586.864 31.322 587.286 31.6766 587.588 32.1307C587.89 32.5848 588.04 33.1051 588.04 33.6918C588.04 34.0762 587.964 34.4557 587.812 34.8303C587.663 35.2048 587.396 35.6207 587.011 36.0781C586.627 36.5322 586.085 37.0774 585.386 37.7138L583.899 39.1705V39.2401H588.175V41H580.916Z" fill="white"/>
</g>
</g>
<path d="M780 149H390V151H780V149Z" fill="#D0D0D0" mask="url(#path-23-inside-2_587_6330)"/>
<mask id="path-34-inside-3_587_6330" fill="white">
<path d="M0 150H390V300H0V150Z"/>
</mask>
<path d="M0 150H390V300H0V150Z" fill="#F9FAFB"/>
<rect x="177.5" y="219.5" width="35" height="35" rx="2.5" fill="#217CF5"/>
<g clip-path="url(#clip17_587_6330)">
<path d="M195.001 245.334C199.604 245.334 203.335 241.603 203.335 237C203.335 232.398 199.604 228.667 195.001 228.667C190.399 228.667 186.668 232.398 186.668 237C186.668 241.603 190.399 245.334 195.001 245.334Z" stroke="white" stroke-width="2" stroke-linecap="round" stroke-linejoin="round"/>
</g>
<rect x="177.5" y="219.5" width="35" height="35" rx="2.5" stroke="#217CF5"/>
<g clip-path="url(#clip18_587_6330)">
<rect x="129" y="237" width="48" height="1" fill="#C54600"/>
<g clip-path="url(#clip19_587_6330)">
<rect x="129" y="225" width="24" height="24" rx="12" fill="#C54600"/>
<path d="M142.83 231.818V242H140.677V233.862H140.618L138.286 235.323V233.414L140.807 231.818H142.83Z" fill="white"/>
</g>
</g>
<g clip-path="url(#clip20_587_6330)">
<rect x="195" y="171" width="1" height="56" fill="#C54600"/>
<g clip-path="url(#clip21_587_6330)">
<rect x="183" y="171" width="24" height="24" rx="12" fill="#C54600"/>
<path d="M191.416 188V186.449L195.04 183.093C195.349 182.795 195.607 182.526 195.816 182.288C196.028 182.049 196.189 181.815 196.298 181.587C196.408 181.355 196.462 181.104 196.462 180.836C196.462 180.538 196.394 180.281 196.258 180.065C196.123 179.847 195.937 179.679 195.702 179.563C195.466 179.444 195.199 179.384 194.901 179.384C194.59 179.384 194.318 179.447 194.086 179.573C193.854 179.699 193.675 179.88 193.549 180.115C193.423 180.35 193.36 180.63 193.36 180.955H191.317C191.317 180.289 191.467 179.711 191.769 179.22C192.071 178.73 192.493 178.35 193.037 178.082C193.58 177.813 194.207 177.679 194.916 177.679C195.645 177.679 196.28 177.808 196.82 178.067C197.364 178.322 197.786 178.677 198.088 179.131C198.39 179.585 198.54 180.105 198.54 180.692C198.54 181.076 198.464 181.456 198.312 181.83C198.163 182.205 197.896 182.621 197.511 183.078C197.127 183.532 196.585 184.077 195.886 184.714L194.399 186.17V186.24H198.675V188H191.416Z" fill="white"/>
</g>
</g>
<path d="M390 150H391V149H390V150ZM0 151H390V149H0V151ZM389 150V300H391V150H389Z" fill="#D0D0D0" mask="url(#path-34-inside-3_587_6330)"/>
<defs>
<clipPath id="clip0_587_6330">
<rect width="20" height="20" fill="white" transform="translate(224 80)"/>
</clipPath>
<clipPath id="clip1_587_6330">
<rect width="48" height="24" fill="white" transform="translate(81 78)"/>
</clipPath>
<clipPath id="clip2_587_6330">
<rect x="81" y="78" width="24" height="24" rx="12" fill="white"/>
</clipPath>
<clipPath id="clip3_587_6330">
<rect width="24" height="56" fill="white" transform="translate(168.5 24)"/>
</clipPath>
<clipPath id="clip4_587_6330">
<rect x="168.5" y="24" width="24" height="24" rx="12" fill="white"/>
</clipPath>
<clipPath id="clip5_587_6330">
<rect width="24" height="56" fill="white" transform="translate(222 24)"/>
</clipPath>
<clipPath id="clip6_587_6330">
<rect x="222" y="24" width="24" height="24" rx="12" fill="white"/>
</clipPath>
<clipPath id="clip7_587_6330">
<rect width="99" height="20" fill="white" transform="translate(535 225)"/>
</clipPath>
<clipPath id="clip8_587_6330">
<rect width="20" height="20" fill="white" transform="translate(535 225)"/>
</clipPath>
<clipPath id="clip9_587_6330">
<rect width="48" height="24" fill="white" transform="translate(487 223)"/>
</clipPath>
<clipPath id="clip10_587_6330">
<rect x="487" y="223" width="24" height="24" rx="12" fill="white"/>
</clipPath>
<clipPath id="clip11_587_6330">
<rect width="24" height="48" fill="white" transform="translate(572.5 177)"/>
</clipPath>
<clipPath id="clip12_587_6330">
<rect x="572.5" y="177" width="24" height="24" rx="12" fill="white"/>
</clipPath>
<clipPath id="clip13_587_6330">
<rect width="48" height="24" fill="white" transform="translate(485 78)"/>
</clipPath>
<clipPath id="clip14_587_6330">
<rect x="485" y="78" width="24" height="24" rx="12" fill="white"/>
</clipPath>
<clipPath id="clip15_587_6330">
<rect width="24" height="48" fill="white" transform="translate(572.5 24)"/>
</clipPath>
<clipPath id="clip16_587_6330">
<rect x="572.5" y="24" width="24" height="24" rx="12" fill="white"/>
</clipPath>
<clipPath id="clip17_587_6330">
<rect width="20" height="20" fill="white" transform="translate(185 227)"/>
</clipPath>
<clipPath id="clip18_587_6330">
<rect width="48" height="24" fill="white" transform="translate(129 225)"/>
</clipPath>
<clipPath id="clip19_587_6330">
<rect x="129" y="225" width="24" height="24" rx="12" fill="white"/>
</clipPath>
<clipPath id="clip20_587_6330">
<rect width="24" height="56" fill="white" transform="translate(183 171)"/>
</clipPath>
<clipPath id="clip21_587_6330">
<rect x="183" y="171" width="24" height="24" rx="12" fill="white"/>
</clipPath>
</defs>
</svg>
