<svg width="804" height="152" viewBox="0 0 804 152" fill="none" xmlns="http://www.w3.org/2000/svg">
<rect width="804" height="152" fill="#F9FAFB"/>
<rect x="162.5" y="35.5" width="89" height="31" rx="2.5" fill="#217CF5"/>
<path d="M174.959 55V46.2727H178.155C178.774 46.2727 179.287 46.375 179.693 46.5795C180.099 46.7812 180.403 47.0554 180.605 47.402C180.807 47.7457 180.908 48.1335 180.908 48.5653C180.908 48.929 180.841 49.2358 180.707 49.4858C180.574 49.733 180.395 49.9318 180.17 50.0824C179.949 50.2301 179.705 50.3381 179.438 50.4062V50.4915C179.727 50.5057 180.01 50.5994 180.286 50.7727C180.564 50.9432 180.794 51.1861 180.976 51.5014C181.158 51.8168 181.249 52.2003 181.249 52.652C181.249 53.098 181.143 53.4986 180.933 53.8537C180.726 54.206 180.405 54.4858 179.97 54.6932C179.536 54.8977 178.98 55 178.304 55H174.959ZM176.276 53.8707H178.176C178.807 53.8707 179.259 53.7486 179.531 53.5043C179.804 53.2599 179.94 52.9545 179.94 52.5881C179.94 52.3125 179.871 52.0597 179.732 51.8295C179.592 51.5994 179.393 51.4162 179.135 51.2798C178.879 51.1435 178.575 51.0753 178.223 51.0753H176.276V53.8707ZM176.276 50.0483H178.04C178.335 50.0483 178.601 49.9915 178.837 49.8778C179.075 49.7642 179.264 49.6051 179.403 49.4006C179.545 49.1932 179.616 48.9489 179.616 48.6676C179.616 48.3068 179.49 48.0043 179.237 47.7599C178.984 47.5156 178.597 47.3935 178.074 47.3935H176.276V50.0483ZM186.854 52.2855V48.4545H188.133V55H186.88V53.8665H186.812C186.661 54.2159 186.42 54.5071 186.087 54.7401C185.758 54.9702 185.347 55.0852 184.856 55.0852C184.435 55.0852 184.063 54.9929 183.739 54.8082C183.418 54.6207 183.165 54.3438 182.981 53.9773C182.799 53.6108 182.708 53.1577 182.708 52.6179V48.4545H183.982V52.4645C183.982 52.9105 184.106 53.2656 184.353 53.5298C184.6 53.794 184.921 53.9261 185.316 53.9261C185.555 53.9261 185.792 53.8665 186.028 53.7472C186.266 53.6278 186.464 53.4474 186.62 53.206C186.779 52.9645 186.857 52.6577 186.854 52.2855ZM192.9 48.4545V49.4773H189.325V48.4545H192.9ZM190.284 46.8864H191.558V53.0781C191.558 53.3253 191.595 53.5114 191.669 53.6364C191.743 53.7585 191.838 53.8423 191.954 53.8878C192.074 53.9304 192.203 53.9517 192.342 53.9517C192.444 53.9517 192.534 53.9446 192.61 53.9304C192.687 53.9162 192.747 53.9048 192.789 53.8963L193.02 54.9489C192.946 54.9773 192.841 55.0057 192.704 55.0341C192.568 55.0653 192.397 55.0824 192.193 55.0852C191.858 55.0909 191.545 55.0312 191.255 54.9062C190.966 54.7812 190.731 54.5881 190.552 54.3267C190.373 54.0653 190.284 53.7372 190.284 53.3423V46.8864ZM197.365 48.4545V49.4773H193.79V48.4545H197.365ZM194.749 46.8864H196.023V53.0781C196.023 53.3253 196.06 53.5114 196.134 53.6364C196.207 53.7585 196.303 53.8423 196.419 53.8878C196.538 53.9304 196.668 53.9517 196.807 53.9517C196.909 53.9517 196.999 53.9446 197.075 53.9304C197.152 53.9162 197.212 53.9048 197.254 53.8963L197.484 54.9489C197.411 54.9773 197.305 55.0057 197.169 55.0341C197.033 55.0653 196.862 55.0824 196.658 55.0852C196.322 55.0909 196.01 55.0312 195.72 54.9062C195.43 54.7812 195.196 54.5881 195.017 54.3267C194.838 54.0653 194.749 53.7372 194.749 53.3423V46.8864ZM201.461 55.1321C200.848 55.1321 200.312 54.9915 199.855 54.7102C199.397 54.429 199.042 54.0355 198.789 53.5298C198.537 53.0241 198.41 52.4332 198.41 51.7571C198.41 51.0781 198.537 50.4844 198.789 49.9759C199.042 49.4673 199.397 49.0724 199.855 48.7912C200.312 48.5099 200.848 48.3693 201.461 48.3693C202.075 48.3693 202.61 48.5099 203.068 48.7912C203.525 49.0724 203.88 49.4673 204.133 49.9759C204.386 50.4844 204.512 51.0781 204.512 51.7571C204.512 52.4332 204.386 53.0241 204.133 53.5298C203.88 54.0355 203.525 54.429 203.068 54.7102C202.61 54.9915 202.075 55.1321 201.461 55.1321ZM201.466 54.0625C201.863 54.0625 202.193 53.9574 202.454 53.7472C202.716 53.5369 202.909 53.2571 203.034 52.9077C203.162 52.5582 203.225 52.1733 203.225 51.7528C203.225 51.3352 203.162 50.9517 203.034 50.6023C202.909 50.25 202.716 49.9673 202.454 49.7543C202.193 49.5412 201.863 49.4347 201.466 49.4347C201.065 49.4347 200.733 49.5412 200.468 49.7543C200.207 49.9673 200.012 50.25 199.885 50.6023C199.76 50.9517 199.697 51.3352 199.697 51.7528C199.697 52.1733 199.76 52.5582 199.885 52.9077C200.012 53.2571 200.207 53.5369 200.468 53.7472C200.733 53.9574 201.065 54.0625 201.466 54.0625ZM207.209 51.1136V55H205.935V48.4545H207.158V49.5199H207.239C207.389 49.1733 207.625 48.8949 207.946 48.6847C208.27 48.4744 208.678 48.3693 209.169 48.3693C209.615 48.3693 210.006 48.4631 210.341 48.6506C210.676 48.8352 210.936 49.1108 211.121 49.4773C211.305 49.8437 211.398 50.2969 211.398 50.8366V55H210.124V50.9901C210.124 50.5156 210 50.1449 209.753 49.8778C209.506 49.608 209.166 49.473 208.734 49.473C208.439 49.473 208.176 49.5369 207.946 49.6648C207.719 49.7926 207.538 49.9801 207.405 50.2273C207.274 50.4716 207.209 50.767 207.209 51.1136ZM223.633 49.1108H222.304C222.252 48.8267 222.157 48.5767 222.018 48.3608C221.879 48.1449 221.708 47.9616 221.507 47.8111C221.305 47.6605 221.079 47.5469 220.829 47.4702C220.582 47.3935 220.319 47.3551 220.041 47.3551C219.538 47.3551 219.088 47.4815 218.69 47.7344C218.295 47.9872 217.983 48.358 217.752 48.8466C217.525 49.3352 217.412 49.9318 217.412 50.6364C217.412 51.3466 217.525 51.946 217.752 52.4347C217.983 52.9233 218.297 53.2926 218.694 53.5426C219.092 53.7926 219.539 53.9176 220.037 53.9176C220.312 53.9176 220.574 53.8807 220.821 53.8068C221.071 53.7301 221.297 53.6179 221.498 53.4702C221.7 53.3224 221.87 53.142 222.01 52.929C222.152 52.7131 222.25 52.4659 222.304 52.1875L223.633 52.1918C223.562 52.6207 223.424 53.0156 223.22 53.3764C223.018 53.7344 222.758 54.044 222.44 54.3054C222.125 54.5639 221.764 54.7642 221.358 54.9062C220.951 55.0483 220.508 55.1193 220.028 55.1193C219.272 55.1193 218.599 54.9403 218.008 54.5824C217.417 54.2216 216.951 53.706 216.61 53.0355C216.272 52.3651 216.103 51.5653 216.103 50.6364C216.103 49.7045 216.274 48.9048 216.615 48.2372C216.956 47.5668 217.422 47.0526 218.012 46.6946C218.603 46.3338 219.275 46.1534 220.028 46.1534C220.491 46.1534 220.923 46.2202 221.324 46.3537C221.727 46.4844 222.089 46.6776 222.41 46.9332C222.731 47.1861 222.997 47.4957 223.207 47.8622C223.417 48.2259 223.559 48.642 223.633 49.1108ZM224.778 47.4062V46.2727H231.533V47.4062H228.81V55H227.497V47.4062H224.778ZM232.731 55H231.333L234.474 46.2727H235.995L239.136 55H237.738L235.271 47.858H235.203L232.731 55ZM232.966 51.5824H237.5V52.6903H232.966V51.5824Z" fill="white"/>
<rect x="162.5" y="35.5" width="89" height="31" rx="2.5" stroke="#217CF5"/>
<rect x="552.5" y="35.5" width="89" height="31" rx="2.5" fill="#BDD9FF"/>
<path d="M564.959 55V46.2727H568.155C568.774 46.2727 569.287 46.375 569.693 46.5795C570.099 46.7812 570.403 47.0554 570.605 47.402C570.807 47.7457 570.908 48.1335 570.908 48.5653C570.908 48.929 570.841 49.2358 570.707 49.4858C570.574 49.733 570.395 49.9318 570.17 50.0824C569.949 50.2301 569.705 50.3381 569.438 50.4062V50.4915C569.727 50.5057 570.01 50.5994 570.286 50.7727C570.564 50.9432 570.794 51.1861 570.976 51.5014C571.158 51.8168 571.249 52.2003 571.249 52.652C571.249 53.098 571.143 53.4986 570.933 53.8537C570.726 54.206 570.405 54.4858 569.97 54.6932C569.536 54.8977 568.98 55 568.304 55H564.959ZM566.276 53.8707H568.176C568.807 53.8707 569.259 53.7486 569.531 53.5043C569.804 53.2599 569.94 52.9545 569.94 52.5881C569.94 52.3125 569.871 52.0597 569.732 51.8295C569.592 51.5994 569.393 51.4162 569.135 51.2798C568.879 51.1435 568.575 51.0753 568.223 51.0753H566.276V53.8707ZM566.276 50.0483H568.04C568.335 50.0483 568.601 49.9915 568.837 49.8778C569.075 49.7642 569.264 49.6051 569.403 49.4006C569.545 49.1932 569.616 48.9489 569.616 48.6676C569.616 48.3068 569.49 48.0043 569.237 47.7599C568.984 47.5156 568.597 47.3935 568.074 47.3935H566.276V50.0483ZM576.854 52.2855V48.4545H578.133V55H576.88V53.8665H576.812C576.661 54.2159 576.42 54.5071 576.087 54.7401C575.758 54.9702 575.347 55.0852 574.856 55.0852C574.435 55.0852 574.063 54.9929 573.739 54.8082C573.418 54.6207 573.165 54.3438 572.981 53.9773C572.799 53.6108 572.708 53.1577 572.708 52.6179V48.4545H573.982V52.4645C573.982 52.9105 574.106 53.2656 574.353 53.5298C574.6 53.794 574.921 53.9261 575.316 53.9261C575.555 53.9261 575.792 53.8665 576.028 53.7472C576.266 53.6278 576.464 53.4474 576.62 53.206C576.779 52.9645 576.857 52.6577 576.854 52.2855ZM582.9 48.4545V49.4773H579.325V48.4545H582.9ZM580.284 46.8864H581.558V53.0781C581.558 53.3253 581.595 53.5114 581.669 53.6364C581.743 53.7585 581.838 53.8423 581.954 53.8878C582.074 53.9304 582.203 53.9517 582.342 53.9517C582.444 53.9517 582.534 53.9446 582.61 53.9304C582.687 53.9162 582.747 53.9048 582.789 53.8963L583.02 54.9489C582.946 54.9773 582.841 55.0057 582.704 55.0341C582.568 55.0653 582.397 55.0824 582.193 55.0852C581.858 55.0909 581.545 55.0312 581.255 54.9062C580.966 54.7812 580.731 54.5881 580.552 54.3267C580.373 54.0653 580.284 53.7372 580.284 53.3423V46.8864ZM587.365 48.4545V49.4773H583.79V48.4545H587.365ZM584.749 46.8864H586.023V53.0781C586.023 53.3253 586.06 53.5114 586.134 53.6364C586.207 53.7585 586.303 53.8423 586.419 53.8878C586.538 53.9304 586.668 53.9517 586.807 53.9517C586.909 53.9517 586.999 53.9446 587.075 53.9304C587.152 53.9162 587.212 53.9048 587.254 53.8963L587.484 54.9489C587.411 54.9773 587.305 55.0057 587.169 55.0341C587.033 55.0653 586.862 55.0824 586.658 55.0852C586.322 55.0909 586.01 55.0312 585.72 54.9062C585.43 54.7812 585.196 54.5881 585.017 54.3267C584.838 54.0653 584.749 53.7372 584.749 53.3423V46.8864ZM591.461 55.1321C590.848 55.1321 590.312 54.9915 589.855 54.7102C589.397 54.429 589.042 54.0355 588.789 53.5298C588.537 53.0241 588.41 52.4332 588.41 51.7571C588.41 51.0781 588.537 50.4844 588.789 49.9759C589.042 49.4673 589.397 49.0724 589.855 48.7912C590.312 48.5099 590.848 48.3693 591.461 48.3693C592.075 48.3693 592.61 48.5099 593.068 48.7912C593.525 49.0724 593.88 49.4673 594.133 49.9759C594.386 50.4844 594.512 51.0781 594.512 51.7571C594.512 52.4332 594.386 53.0241 594.133 53.5298C593.88 54.0355 593.525 54.429 593.068 54.7102C592.61 54.9915 592.075 55.1321 591.461 55.1321ZM591.466 54.0625C591.863 54.0625 592.193 53.9574 592.454 53.7472C592.716 53.5369 592.909 53.2571 593.034 52.9077C593.162 52.5582 593.225 52.1733 593.225 51.7528C593.225 51.3352 593.162 50.9517 593.034 50.6023C592.909 50.25 592.716 49.9673 592.454 49.7543C592.193 49.5412 591.863 49.4347 591.466 49.4347C591.065 49.4347 590.733 49.5412 590.468 49.7543C590.207 49.9673 590.012 50.25 589.885 50.6023C589.76 50.9517 589.697 51.3352 589.697 51.7528C589.697 52.1733 589.76 52.5582 589.885 52.9077C590.012 53.2571 590.207 53.5369 590.468 53.7472C590.733 53.9574 591.065 54.0625 591.466 54.0625ZM597.209 51.1136V55H595.935V48.4545H597.158V49.5199H597.239C597.389 49.1733 597.625 48.8949 597.946 48.6847C598.27 48.4744 598.678 48.3693 599.169 48.3693C599.615 48.3693 600.006 48.4631 600.341 48.6506C600.676 48.8352 600.936 49.1108 601.121 49.4773C601.305 49.8437 601.398 50.2969 601.398 50.8366V55H600.124V50.9901C600.124 50.5156 600 50.1449 599.753 49.8778C599.506 49.608 599.166 49.473 598.734 49.473C598.439 49.473 598.176 49.5369 597.946 49.6648C597.719 49.7926 597.538 49.9801 597.405 50.2273C597.274 50.4716 597.209 50.767 597.209 51.1136ZM613.633 49.1108H612.304C612.252 48.8267 612.157 48.5767 612.018 48.3608C611.879 48.1449 611.708 47.9616 611.507 47.8111C611.305 47.6605 611.079 47.5469 610.829 47.4702C610.582 47.3935 610.319 47.3551 610.041 47.3551C609.538 47.3551 609.088 47.4815 608.69 47.7344C608.295 47.9872 607.983 48.358 607.752 48.8466C607.525 49.3352 607.412 49.9318 607.412 50.6364C607.412 51.3466 607.525 51.946 607.752 52.4347C607.983 52.9233 608.297 53.2926 608.694 53.5426C609.092 53.7926 609.539 53.9176 610.037 53.9176C610.312 53.9176 610.574 53.8807 610.821 53.8068C611.071 53.7301 611.297 53.6179 611.498 53.4702C611.7 53.3224 611.87 53.142 612.01 52.929C612.152 52.7131 612.25 52.4659 612.304 52.1875L613.633 52.1918C613.562 52.6207 613.424 53.0156 613.22 53.3764C613.018 53.7344 612.758 54.044 612.44 54.3054C612.125 54.5639 611.764 54.7642 611.358 54.9062C610.951 55.0483 610.508 55.1193 610.028 55.1193C609.272 55.1193 608.599 54.9403 608.008 54.5824C607.417 54.2216 606.951 53.706 606.61 53.0355C606.272 52.3651 606.103 51.5653 606.103 50.6364C606.103 49.7045 606.274 48.9048 606.615 48.2372C606.956 47.5668 607.422 47.0526 608.012 46.6946C608.603 46.3338 609.275 46.1534 610.028 46.1534C610.491 46.1534 610.923 46.2202 611.324 46.3537C611.727 46.4844 612.089 46.6776 612.41 46.9332C612.731 47.1861 612.997 47.4957 613.207 47.8622C613.417 48.2259 613.559 48.642 613.633 49.1108ZM614.778 47.4062V46.2727H621.533V47.4062H618.81V55H617.497V47.4062H614.778ZM622.731 55H621.333L624.474 46.2727H625.995L629.136 55H627.738L625.271 47.858H625.203L622.731 55ZM622.966 51.5824H627.5V52.6903H622.966V51.5824Z" fill="white"/>
<rect x="552.5" y="35.5" width="89" height="31" rx="2.5" stroke="#BDD9FF"/>
<g filter="url(#filter0_d_586_6445)">
<rect x="422" y="35" width="90" height="32" rx="3" fill="#217CF5"/>
<path d="M434.959 55V46.2727H438.155C438.774 46.2727 439.287 46.375 439.693 46.5795C440.099 46.7812 440.403 47.0554 440.605 47.402C440.807 47.7457 440.908 48.1335 440.908 48.5653C440.908 48.929 440.841 49.2358 440.707 49.4858C440.574 49.733 440.395 49.9318 440.17 50.0824C439.949 50.2301 439.705 50.3381 439.438 50.4062V50.4915C439.727 50.5057 440.01 50.5994 440.286 50.7727C440.564 50.9432 440.794 51.1861 440.976 51.5014C441.158 51.8168 441.249 52.2003 441.249 52.652C441.249 53.098 441.143 53.4986 440.933 53.8537C440.726 54.206 440.405 54.4858 439.97 54.6932C439.536 54.8977 438.98 55 438.304 55H434.959ZM436.276 53.8707H438.176C438.807 53.8707 439.259 53.7486 439.531 53.5043C439.804 53.2599 439.94 52.9545 439.94 52.5881C439.94 52.3125 439.871 52.0597 439.732 51.8295C439.592 51.5994 439.393 51.4162 439.135 51.2798C438.879 51.1435 438.575 51.0753 438.223 51.0753H436.276V53.8707ZM436.276 50.0483H438.04C438.335 50.0483 438.601 49.9915 438.837 49.8778C439.075 49.7642 439.264 49.6051 439.403 49.4006C439.545 49.1932 439.616 48.9489 439.616 48.6676C439.616 48.3068 439.49 48.0043 439.237 47.7599C438.984 47.5156 438.597 47.3935 438.074 47.3935H436.276V50.0483ZM446.854 52.2855V48.4545H448.133V55H446.88V53.8665H446.812C446.661 54.2159 446.42 54.5071 446.087 54.7401C445.758 54.9702 445.347 55.0852 444.856 55.0852C444.435 55.0852 444.063 54.9929 443.739 54.8082C443.418 54.6207 443.165 54.3438 442.981 53.9773C442.799 53.6108 442.708 53.1577 442.708 52.6179V48.4545H443.982V52.4645C443.982 52.9105 444.106 53.2656 444.353 53.5298C444.6 53.794 444.921 53.9261 445.316 53.9261C445.555 53.9261 445.792 53.8665 446.028 53.7472C446.266 53.6278 446.464 53.4474 446.62 53.206C446.779 52.9645 446.857 52.6577 446.854 52.2855ZM452.9 48.4545V49.4773H449.325V48.4545H452.9ZM450.284 46.8864H451.558V53.0781C451.558 53.3253 451.595 53.5114 451.669 53.6364C451.743 53.7585 451.838 53.8423 451.954 53.8878C452.074 53.9304 452.203 53.9517 452.342 53.9517C452.444 53.9517 452.534 53.9446 452.61 53.9304C452.687 53.9162 452.747 53.9048 452.789 53.8963L453.02 54.9489C452.946 54.9773 452.841 55.0057 452.704 55.0341C452.568 55.0653 452.397 55.0824 452.193 55.0852C451.858 55.0909 451.545 55.0312 451.255 54.9062C450.966 54.7812 450.731 54.5881 450.552 54.3267C450.373 54.0653 450.284 53.7372 450.284 53.3423V46.8864ZM457.365 48.4545V49.4773H453.79V48.4545H457.365ZM454.749 46.8864H456.023V53.0781C456.023 53.3253 456.06 53.5114 456.134 53.6364C456.207 53.7585 456.303 53.8423 456.419 53.8878C456.538 53.9304 456.668 53.9517 456.807 53.9517C456.909 53.9517 456.999 53.9446 457.075 53.9304C457.152 53.9162 457.212 53.9048 457.254 53.8963L457.484 54.9489C457.411 54.9773 457.305 55.0057 457.169 55.0341C457.033 55.0653 456.862 55.0824 456.658 55.0852C456.322 55.0909 456.01 55.0312 455.72 54.9062C455.43 54.7812 455.196 54.5881 455.017 54.3267C454.838 54.0653 454.749 53.7372 454.749 53.3423V46.8864ZM461.461 55.1321C460.848 55.1321 460.312 54.9915 459.855 54.7102C459.397 54.429 459.042 54.0355 458.789 53.5298C458.537 53.0241 458.41 52.4332 458.41 51.7571C458.41 51.0781 458.537 50.4844 458.789 49.9759C459.042 49.4673 459.397 49.0724 459.855 48.7912C460.312 48.5099 460.848 48.3693 461.461 48.3693C462.075 48.3693 462.61 48.5099 463.068 48.7912C463.525 49.0724 463.88 49.4673 464.133 49.9759C464.386 50.4844 464.512 51.0781 464.512 51.7571C464.512 52.4332 464.386 53.0241 464.133 53.5298C463.88 54.0355 463.525 54.429 463.068 54.7102C462.61 54.9915 462.075 55.1321 461.461 55.1321ZM461.466 54.0625C461.863 54.0625 462.193 53.9574 462.454 53.7472C462.716 53.5369 462.909 53.2571 463.034 52.9077C463.162 52.5582 463.225 52.1733 463.225 51.7528C463.225 51.3352 463.162 50.9517 463.034 50.6023C462.909 50.25 462.716 49.9673 462.454 49.7543C462.193 49.5412 461.863 49.4347 461.466 49.4347C461.065 49.4347 460.733 49.5412 460.468 49.7543C460.207 49.9673 460.012 50.25 459.885 50.6023C459.76 50.9517 459.697 51.3352 459.697 51.7528C459.697 52.1733 459.76 52.5582 459.885 52.9077C460.012 53.2571 460.207 53.5369 460.468 53.7472C460.733 53.9574 461.065 54.0625 461.466 54.0625ZM467.209 51.1136V55H465.935V48.4545H467.158V49.5199H467.239C467.389 49.1733 467.625 48.8949 467.946 48.6847C468.27 48.4744 468.678 48.3693 469.169 48.3693C469.615 48.3693 470.006 48.4631 470.341 48.6506C470.676 48.8352 470.936 49.1108 471.121 49.4773C471.305 49.8437 471.398 50.2969 471.398 50.8366V55H470.124V50.9901C470.124 50.5156 470 50.1449 469.753 49.8778C469.506 49.608 469.166 49.473 468.734 49.473C468.439 49.473 468.176 49.5369 467.946 49.6648C467.719 49.7926 467.538 49.9801 467.405 50.2273C467.274 50.4716 467.209 50.767 467.209 51.1136ZM483.633 49.1108H482.304C482.252 48.8267 482.157 48.5767 482.018 48.3608C481.879 48.1449 481.708 47.9616 481.507 47.8111C481.305 47.6605 481.079 47.5469 480.829 47.4702C480.582 47.3935 480.319 47.3551 480.041 47.3551C479.538 47.3551 479.088 47.4815 478.69 47.7344C478.295 47.9872 477.983 48.358 477.752 48.8466C477.525 49.3352 477.412 49.9318 477.412 50.6364C477.412 51.3466 477.525 51.946 477.752 52.4347C477.983 52.9233 478.297 53.2926 478.694 53.5426C479.092 53.7926 479.539 53.9176 480.037 53.9176C480.312 53.9176 480.574 53.8807 480.821 53.8068C481.071 53.7301 481.297 53.6179 481.498 53.4702C481.7 53.3224 481.87 53.142 482.01 52.929C482.152 52.7131 482.25 52.4659 482.304 52.1875L483.633 52.1918C483.562 52.6207 483.424 53.0156 483.22 53.3764C483.018 53.7344 482.758 54.044 482.44 54.3054C482.125 54.5639 481.764 54.7642 481.358 54.9062C480.951 55.0483 480.508 55.1193 480.028 55.1193C479.272 55.1193 478.599 54.9403 478.008 54.5824C477.417 54.2216 476.951 53.706 476.61 53.0355C476.272 52.3651 476.103 51.5653 476.103 50.6364C476.103 49.7045 476.274 48.9048 476.615 48.2372C476.956 47.5668 477.422 47.0526 478.012 46.6946C478.603 46.3338 479.275 46.1534 480.028 46.1534C480.491 46.1534 480.923 46.2202 481.324 46.3537C481.727 46.4844 482.089 46.6776 482.41 46.9332C482.731 47.1861 482.997 47.4957 483.207 47.8622C483.417 48.2259 483.559 48.642 483.633 49.1108ZM484.778 47.4062V46.2727H491.533V47.4062H488.81V55H487.497V47.4062H484.778ZM492.731 55H491.333L494.474 46.2727H495.995L499.136 55H497.738L495.271 47.858H495.203L492.731 55ZM492.966 51.5824H497.5V52.6903H492.966V51.5824Z" fill="white"/>
<rect x="422.5" y="35.5" width="89" height="31" rx="2.5" stroke="#217CF5"/>
</g>
<rect x="292.5" y="35.5" width="89" height="31" rx="2.5" fill="#1A4AC8"/>
<path d="M304.959 55V46.2727H308.155C308.774 46.2727 309.287 46.375 309.693 46.5795C310.099 46.7812 310.403 47.0554 310.605 47.402C310.807 47.7457 310.908 48.1335 310.908 48.5653C310.908 48.929 310.841 49.2358 310.707 49.4858C310.574 49.733 310.395 49.9318 310.17 50.0824C309.949 50.2301 309.705 50.3381 309.438 50.4062V50.4915C309.727 50.5057 310.01 50.5994 310.286 50.7727C310.564 50.9432 310.794 51.1861 310.976 51.5014C311.158 51.8168 311.249 52.2003 311.249 52.652C311.249 53.098 311.143 53.4986 310.933 53.8537C310.726 54.206 310.405 54.4858 309.97 54.6932C309.536 54.8977 308.98 55 308.304 55H304.959ZM306.276 53.8707H308.176C308.807 53.8707 309.259 53.7486 309.531 53.5043C309.804 53.2599 309.94 52.9545 309.94 52.5881C309.94 52.3125 309.871 52.0597 309.732 51.8295C309.592 51.5994 309.393 51.4162 309.135 51.2798C308.879 51.1435 308.575 51.0753 308.223 51.0753H306.276V53.8707ZM306.276 50.0483H308.04C308.335 50.0483 308.601 49.9915 308.837 49.8778C309.075 49.7642 309.264 49.6051 309.403 49.4006C309.545 49.1932 309.616 48.9489 309.616 48.6676C309.616 48.3068 309.49 48.0043 309.237 47.7599C308.984 47.5156 308.597 47.3935 308.074 47.3935H306.276V50.0483ZM316.854 52.2855V48.4545H318.133V55H316.88V53.8665H316.812C316.661 54.2159 316.42 54.5071 316.087 54.7401C315.758 54.9702 315.347 55.0852 314.856 55.0852C314.435 55.0852 314.063 54.9929 313.739 54.8082C313.418 54.6207 313.165 54.3438 312.981 53.9773C312.799 53.6108 312.708 53.1577 312.708 52.6179V48.4545H313.982V52.4645C313.982 52.9105 314.106 53.2656 314.353 53.5298C314.6 53.794 314.921 53.9261 315.316 53.9261C315.555 53.9261 315.792 53.8665 316.028 53.7472C316.266 53.6278 316.464 53.4474 316.62 53.206C316.779 52.9645 316.857 52.6577 316.854 52.2855ZM322.9 48.4545V49.4773H319.325V48.4545H322.9ZM320.284 46.8864H321.558V53.0781C321.558 53.3253 321.595 53.5114 321.669 53.6364C321.743 53.7585 321.838 53.8423 321.954 53.8878C322.074 53.9304 322.203 53.9517 322.342 53.9517C322.444 53.9517 322.534 53.9446 322.61 53.9304C322.687 53.9162 322.747 53.9048 322.789 53.8963L323.02 54.9489C322.946 54.9773 322.841 55.0057 322.704 55.0341C322.568 55.0653 322.397 55.0824 322.193 55.0852C321.858 55.0909 321.545 55.0312 321.255 54.9062C320.966 54.7812 320.731 54.5881 320.552 54.3267C320.373 54.0653 320.284 53.7372 320.284 53.3423V46.8864ZM327.365 48.4545V49.4773H323.79V48.4545H327.365ZM324.749 46.8864H326.023V53.0781C326.023 53.3253 326.06 53.5114 326.134 53.6364C326.207 53.7585 326.303 53.8423 326.419 53.8878C326.538 53.9304 326.668 53.9517 326.807 53.9517C326.909 53.9517 326.999 53.9446 327.075 53.9304C327.152 53.9162 327.212 53.9048 327.254 53.8963L327.484 54.9489C327.411 54.9773 327.305 55.0057 327.169 55.0341C327.033 55.0653 326.862 55.0824 326.658 55.0852C326.322 55.0909 326.01 55.0312 325.72 54.9062C325.43 54.7812 325.196 54.5881 325.017 54.3267C324.838 54.0653 324.749 53.7372 324.749 53.3423V46.8864ZM331.461 55.1321C330.848 55.1321 330.312 54.9915 329.855 54.7102C329.397 54.429 329.042 54.0355 328.789 53.5298C328.537 53.0241 328.41 52.4332 328.41 51.7571C328.41 51.0781 328.537 50.4844 328.789 49.9759C329.042 49.4673 329.397 49.0724 329.855 48.7912C330.312 48.5099 330.848 48.3693 331.461 48.3693C332.075 48.3693 332.61 48.5099 333.068 48.7912C333.525 49.0724 333.88 49.4673 334.133 49.9759C334.386 50.4844 334.512 51.0781 334.512 51.7571C334.512 52.4332 334.386 53.0241 334.133 53.5298C333.88 54.0355 333.525 54.429 333.068 54.7102C332.61 54.9915 332.075 55.1321 331.461 55.1321ZM331.466 54.0625C331.863 54.0625 332.193 53.9574 332.454 53.7472C332.716 53.5369 332.909 53.2571 333.034 52.9077C333.162 52.5582 333.225 52.1733 333.225 51.7528C333.225 51.3352 333.162 50.9517 333.034 50.6023C332.909 50.25 332.716 49.9673 332.454 49.7543C332.193 49.5412 331.863 49.4347 331.466 49.4347C331.065 49.4347 330.733 49.5412 330.468 49.7543C330.207 49.9673 330.012 50.25 329.885 50.6023C329.76 50.9517 329.697 51.3352 329.697 51.7528C329.697 52.1733 329.76 52.5582 329.885 52.9077C330.012 53.2571 330.207 53.5369 330.468 53.7472C330.733 53.9574 331.065 54.0625 331.466 54.0625ZM337.209 51.1136V55H335.935V48.4545H337.158V49.5199H337.239C337.389 49.1733 337.625 48.8949 337.946 48.6847C338.27 48.4744 338.678 48.3693 339.169 48.3693C339.615 48.3693 340.006 48.4631 340.341 48.6506C340.676 48.8352 340.936 49.1108 341.121 49.4773C341.305 49.8437 341.398 50.2969 341.398 50.8366V55H340.124V50.9901C340.124 50.5156 340 50.1449 339.753 49.8778C339.506 49.608 339.166 49.473 338.734 49.473C338.439 49.473 338.176 49.5369 337.946 49.6648C337.719 49.7926 337.538 49.9801 337.405 50.2273C337.274 50.4716 337.209 50.767 337.209 51.1136ZM353.633 49.1108H352.304C352.252 48.8267 352.157 48.5767 352.018 48.3608C351.879 48.1449 351.708 47.9616 351.507 47.8111C351.305 47.6605 351.079 47.5469 350.829 47.4702C350.582 47.3935 350.319 47.3551 350.041 47.3551C349.538 47.3551 349.088 47.4815 348.69 47.7344C348.295 47.9872 347.983 48.358 347.752 48.8466C347.525 49.3352 347.412 49.9318 347.412 50.6364C347.412 51.3466 347.525 51.946 347.752 52.4347C347.983 52.9233 348.297 53.2926 348.694 53.5426C349.092 53.7926 349.539 53.9176 350.037 53.9176C350.312 53.9176 350.574 53.8807 350.821 53.8068C351.071 53.7301 351.297 53.6179 351.498 53.4702C351.7 53.3224 351.87 53.142 352.01 52.929C352.152 52.7131 352.25 52.4659 352.304 52.1875L353.633 52.1918C353.562 52.6207 353.424 53.0156 353.22 53.3764C353.018 53.7344 352.758 54.044 352.44 54.3054C352.125 54.5639 351.764 54.7642 351.358 54.9062C350.951 55.0483 350.508 55.1193 350.028 55.1193C349.272 55.1193 348.599 54.9403 348.008 54.5824C347.417 54.2216 346.951 53.706 346.61 53.0355C346.272 52.3651 346.103 51.5653 346.103 50.6364C346.103 49.7045 346.274 48.9048 346.615 48.2372C346.956 47.5668 347.422 47.0526 348.012 46.6946C348.603 46.3338 349.275 46.1534 350.028 46.1534C350.491 46.1534 350.923 46.2202 351.324 46.3537C351.727 46.4844 352.089 46.6776 352.41 46.9332C352.731 47.1861 352.997 47.4957 353.207 47.8622C353.417 48.2259 353.559 48.642 353.633 49.1108ZM354.778 47.4062V46.2727H361.533V47.4062H358.81V55H357.497V47.4062H354.778ZM362.731 55H361.333L364.474 46.2727H365.995L369.136 55H367.738L365.271 47.858H365.203L362.731 55ZM362.966 51.5824H367.5V52.6903H362.966V51.5824Z" fill="white"/>
<rect x="292.5" y="35.5" width="89" height="31" rx="2.5" stroke="#1A4AC8"/>
<rect x="337" y="67" width="1" height="50" fill="#C54600"/>
<g clip-path="url(#clip0_586_6445)">
<rect x="325" y="93" width="24" height="24" rx="12" fill="#C54600"/>
<path d="M333.416 110V108.449L337.04 105.093C337.349 104.795 337.607 104.526 337.816 104.288C338.028 104.049 338.189 103.815 338.298 103.587C338.408 103.355 338.462 103.104 338.462 102.836C338.462 102.538 338.394 102.281 338.258 102.065C338.123 101.847 337.937 101.679 337.702 101.563C337.466 101.444 337.199 101.384 336.901 101.384C336.59 101.384 336.318 101.447 336.086 101.573C335.854 101.699 335.675 101.88 335.549 102.115C335.423 102.35 335.36 102.63 335.36 102.955H333.317C333.317 102.289 333.467 101.711 333.769 101.22C334.071 100.73 334.493 100.35 335.037 100.082C335.58 99.8132 336.207 99.679 336.916 99.679C337.645 99.679 338.28 99.8082 338.82 100.067C339.364 100.322 339.786 100.677 340.088 101.131C340.39 101.585 340.54 102.105 340.54 102.692C340.54 103.076 340.464 103.456 340.312 103.83C340.163 104.205 339.896 104.621 339.511 105.078C339.127 105.532 338.585 106.077 337.886 106.714L336.399 108.17V108.24H340.675V110H333.416Z" fill="white"/>
</g>
<rect x="469" y="67" width="1" height="50" fill="#C54600"/>
<g clip-path="url(#clip1_586_6445)">
<rect x="457" y="93" width="24" height="24" rx="12" fill="#C54600"/>
<path d="M468.975 110.139C468.232 110.139 467.571 110.012 466.991 109.756C466.414 109.498 465.958 109.143 465.624 108.692C465.292 108.238 465.122 107.715 465.112 107.121H467.279C467.292 107.37 467.374 107.589 467.523 107.778C467.675 107.963 467.877 108.107 468.129 108.21C468.381 108.313 468.665 108.364 468.979 108.364C469.308 108.364 469.598 108.306 469.85 108.19C470.101 108.074 470.299 107.914 470.441 107.708C470.584 107.503 470.655 107.266 470.655 106.997C470.655 106.725 470.579 106.485 470.426 106.276C470.277 106.064 470.062 105.898 469.78 105.779C469.502 105.66 469.17 105.6 468.786 105.6H467.836V104.019H468.786C469.11 104.019 469.397 103.963 469.646 103.85C469.898 103.737 470.093 103.582 470.232 103.383C470.372 103.181 470.441 102.945 470.441 102.677C470.441 102.422 470.38 102.198 470.257 102.006C470.138 101.81 469.969 101.658 469.75 101.548C469.535 101.439 469.283 101.384 468.994 101.384C468.703 101.384 468.436 101.437 468.194 101.543C467.952 101.646 467.758 101.794 467.612 101.986C467.466 102.178 467.389 102.403 467.379 102.662H465.315C465.325 102.075 465.493 101.558 465.818 101.111C466.142 100.663 466.58 100.314 467.13 100.062C467.684 99.8066 468.308 99.679 469.004 99.679C469.707 99.679 470.322 99.8066 470.849 100.062C471.376 100.317 471.785 100.662 472.077 101.096C472.372 101.527 472.518 102.011 472.514 102.548C472.518 103.118 472.34 103.593 471.982 103.974C471.628 104.356 471.165 104.598 470.595 104.7V104.78C471.344 104.876 471.914 105.136 472.305 105.56C472.7 105.981 472.895 106.508 472.892 107.141C472.895 107.721 472.728 108.237 472.39 108.688C472.055 109.138 471.593 109.493 471.003 109.751C470.413 110.01 469.737 110.139 468.975 110.139Z" fill="white"/>
</g>
<rect x="599" y="67" width="1" height="50" fill="#C54600"/>
<g clip-path="url(#clip2_586_6445)">
<rect x="587" y="93" width="24" height="24" rx="12" fill="#C54600"/>
<path d="M594.927 108.21V106.515L599.178 99.8182H600.639V102.165H599.774L597.095 106.406V106.485H603.135V108.21H594.927ZM599.814 110V107.693L599.854 106.942V99.8182H601.872V110H599.814Z" fill="white"/>
</g>
<rect x="207" y="67" width="1" height="50" fill="#C54600"/>
<g clip-path="url(#clip3_586_6445)">
<rect x="195" y="93" width="24" height="24" rx="12" fill="#C54600"/>
<path d="M208.83 99.8182V110H206.677V101.862H206.618L204.286 103.323V101.414L206.807 99.8182H208.83Z" fill="white"/>
</g>
<defs>
<filter id="filter0_d_586_6445" x="420" y="34" width="94" height="36" filterUnits="userSpaceOnUse" color-interpolation-filters="sRGB">
<feFlood flood-opacity="0" result="BackgroundImageFix"/>
<feColorMatrix in="SourceAlpha" type="matrix" values="0 0 0 0 0 0 0 0 0 0 0 0 0 0 0 0 0 0 127 0" result="hardAlpha"/>
<feOffset dy="1"/>
<feGaussianBlur stdDeviation="1"/>
<feColorMatrix type="matrix" values="0 0 0 0 0.0627451 0 0 0 0 0.0941176 0 0 0 0 0.156863 0 0 0 0.05 0"/>
<feBlend mode="normal" in2="BackgroundImageFix" result="effect1_dropShadow_586_6445"/>
<feBlend mode="normal" in="SourceGraphic" in2="effect1_dropShadow_586_6445" result="shape"/>
</filter>
<clipPath id="clip0_586_6445">
<rect x="325" y="93" width="24" height="24" rx="12" fill="white"/>
</clipPath>
<clipPath id="clip1_586_6445">
<rect x="457" y="93" width="24" height="24" rx="12" fill="white"/>
</clipPath>
<clipPath id="clip2_586_6445">
<rect x="587" y="93" width="24" height="24" rx="12" fill="white"/>
</clipPath>
<clipPath id="clip3_586_6445">
<rect x="195" y="93" width="24" height="24" rx="12" fill="white"/>
</clipPath>
</defs>
</svg>
