<svg width="272" height="271" viewBox="0 0 272 271" fill="none" xmlns="http://www.w3.org/2000/svg">
<rect y="231.107" width="69.8133" height="39.8933" fill="#FBB450"/>
<rect width="40.8" height="38.9867" transform="matrix(-1 0 0 1 272 179.427)" fill="#4C97FF"/>
<rect width="40.8" height="52.5867" transform="matrix(-1 0 0 1 272 218.413)" fill="#00C282"/>
<path d="M0 162.2H0.906685C38.9628 162.2 69.8133 193.051 69.8133 231.107H0V162.2Z" fill="#4C97FF"/>
<path d="M272 118.68C249.467 118.68 231.2 136.947 231.2 159.48V172.173H272V118.68Z" fill="#FBB450"/>
<path d="M88.8533 251.96H158.667V271H88.8533V251.96Z" fill="#4C97FF"/>
<circle cx="187.68" cy="144.973" r="15.44" stroke="#00C282" stroke-width="20"/>
<ellipse cx="115.6" cy="204.813" rx="26.7467" ry="26.2933" fill="#FFE7C5"/>
<circle cx="230.747" cy="95.5602" r="16.7733" fill="#C6F9E8"/>
<ellipse cx="182.693" cy="87.8535" rx="10.4267" ry="10.88" fill="#00C282"/>
<path d="M140.533 98.7334L105.173 98.7334L105.173 65.1868L140.533 98.7334Z" fill="#FE6C6A"/>
<path d="M220.32 237.453L166.827 237.453L166.827 186.68L220.32 237.453Z" fill="#FE6C6A"/>
<path d="M75.2534 51.5868L92.4801 51.5868L92.4801 68.8135L75.2534 51.5868Z" fill="#FBB450"/>
<path d="M105.173 108.707H121.493C133.01 108.707 142.347 118.043 142.347 129.56C142.347 141.077 133.01 150.413 121.493 150.413H105.173V108.707Z" fill="#FFE7C5"/>
<circle cx="44.4267" cy="26.2001" r="25.3867" fill="#FE6C6A"/>
<circle cx="44.4267" cy="99.6401" r="25.3867" fill="#4C97FF"/>
</svg>
