<svg width="262" height="45" viewBox="0 0 262 45" fill="none" xmlns="http://www.w3.org/2000/svg">
<g id="WH_Logo_Primary">
<path id="Fill 1" fill-rule="evenodd" clip-rule="evenodd" d="M83.4608 37.5619C78.4353 37.5619 74.4954 33.4335 74.4954 28.1577V28.0362C74.4954 22.6569 78.215 18.7535 83.3394 18.7535C88.3671 18.7535 92.3048 22.8841 92.3048 28.1577V28.2814C92.3048 33.6607 88.5874 37.5619 83.4608 37.5619ZM65.8999 28.1555V28.2793C65.8999 37.6542 73.5595 44.9999 83.3407 44.9999C93.1871 44.9999 100.901 37.6025 100.901 28.1555V28.0341C100.901 18.5016 93.4052 11.3135 83.4621 11.3135C73.6157 11.3135 65.8999 18.7108 65.8999 28.1555Z" fill="black"/>
<path id="Fill 4" fill-rule="evenodd" clip-rule="evenodd" d="M115.768 19.7743V11.9135H107.05V44.2477H115.768V32.3845C115.768 24.6947 119.434 20.4605 126.089 20.4605H126.268V11.2903C121.607 11.1621 118.427 13.4321 116.361 18.3659L115.768 19.7743Z" fill="black"/>
<path id="Fill 6" fill-rule="evenodd" clip-rule="evenodd" d="M151.576 11.924L140.201 24.3969V0H131.483V44.2583H140.201V34.4243L143.811 30.6064L144.022 30.9394L152.529 44.2583H162.481L149.697 24.5499L161.892 11.924H151.576Z" fill="black"/>
<path id="Fill 8" fill-rule="evenodd" clip-rule="evenodd" d="M175.888 16.4776L175.34 17.1863V0H166.622V44.2583H175.34V26.1855C175.34 21.7309 177.578 19.1774 181.482 19.1774C185.321 19.1774 187.438 21.6657 187.438 26.1855V44.2583H196.159V23.2338C196.159 15.7667 192.095 11.3098 185.29 11.3098C180.545 11.3098 177.875 13.9218 175.888 16.4776Z" fill="black"/>
<path id="Fill 10" fill-rule="evenodd" clip-rule="evenodd" d="M214.264 39.0311C210.983 39.0311 208.861 37.3415 208.861 34.7273V34.6058C208.861 31.5213 211.325 29.7507 215.617 29.7507C217.786 29.7507 219.948 30.1961 221.701 31.0061L221.881 31.0893V32.9454C221.881 36.5294 218.748 39.0311 214.264 39.0311ZM203.345 14.0639L205.494 20.6266C208.46 19.5534 210.915 18.9347 214.389 18.9347C219.141 18.9347 221.757 21.1846 221.757 25.2657V26.2489L221.35 26.1094C219.422 25.4502 216.967 24.773 213.405 24.773C205.17 24.773 200.45 28.4942 200.45 34.9781V35.1019C200.45 41.8535 205.968 44.875 211.438 44.875C215.506 44.875 218.687 43.5409 221.161 40.7961L221.696 40.2044V44.2608H230.106V25.4502C230.106 20.9258 228.94 17.4634 226.636 15.1551C224.252 12.768 220.584 11.5576 215.74 11.5576C210.299 11.5576 206.82 12.5565 203.345 14.0639Z" fill="black"/>
<path id="Fill 12" fill-rule="evenodd" clip-rule="evenodd" d="M245.458 44.2583V0H236.74V44.2583H245.458Z" fill="black"/>
<path id="Fill 14" fill-rule="evenodd" clip-rule="evenodd" d="M261.542 44.2583V0H252.824V44.2583H261.542Z" fill="black"/>
<path id="Fill 16" fill-rule="evenodd" clip-rule="evenodd" d="M47.9991 31.2498L42.3713 13.3076L37.8628 26.8987L43.9469 44.5462H52.029L67.1166 0H57.5556L47.9991 31.2498Z" fill="#217CF5"/>
<path id="Fill 19" fill-rule="evenodd" clip-rule="evenodd" d="M24.7588 12.9274L23.217 18.174L19.3714 31.2498L9.8217 0H0L15.0877 44.5462H23.172L27.4963 31.7201L29.2808 26.433L33.4342 14.1176L38.1967 0H28.5593L24.7588 12.9274Z" fill="black"/>
</g>
</svg>
