<svg width="390" height="232" viewBox="0 0 390 232" fill="none" xmlns="http://www.w3.org/2000/svg">
<rect width="390" height="232" fill="#F9FAFB"/>
<g filter="url(#filter0_dd_380_23906)">
<rect x="136" y="100" width="118" height="32" rx="8" fill="white"/>
<path d="M149.106 112.561V111.545H156.197V112.561H153.224V121H152.079V112.561H149.106ZM158.905 116.734V121H157.816V111.545H158.905V115.017H158.998C159.164 114.651 159.413 114.36 159.746 114.145C160.081 113.926 160.527 113.817 161.084 113.817C161.568 113.817 161.991 113.914 162.354 114.108C162.717 114.298 162.999 114.592 163.199 114.989C163.402 115.383 163.504 115.885 163.504 116.494V121H162.414V116.568C162.414 116.005 162.268 115.569 161.975 115.262C161.686 114.951 161.285 114.795 160.771 114.795C160.414 114.795 160.093 114.871 159.81 115.022C159.53 115.172 159.309 115.393 159.146 115.682C158.986 115.971 158.905 116.322 158.905 116.734ZM165.497 121V113.909H166.586V121H165.497ZM166.051 112.727C165.838 112.727 165.655 112.655 165.501 112.51C165.35 112.366 165.275 112.192 165.275 111.989C165.275 111.786 165.35 111.612 165.501 111.467C165.655 111.322 165.838 111.25 166.051 111.25C166.263 111.25 166.445 111.322 166.595 111.467C166.749 111.612 166.826 111.786 166.826 111.989C166.826 112.192 166.749 112.366 166.595 112.51C166.445 112.655 166.263 112.727 166.051 112.727ZM173.604 115.497L172.626 115.774C172.564 115.611 172.473 115.453 172.353 115.299C172.236 115.142 172.076 115.012 171.873 114.911C171.67 114.809 171.41 114.759 171.093 114.759C170.659 114.759 170.297 114.859 170.008 115.059C169.722 115.256 169.579 115.506 169.579 115.811C169.579 116.082 169.677 116.296 169.874 116.453C170.071 116.61 170.379 116.741 170.798 116.845L171.85 117.104C172.484 117.258 172.957 117.493 173.267 117.81C173.578 118.124 173.734 118.529 173.734 119.024C173.734 119.43 173.617 119.794 173.383 120.114C173.152 120.434 172.829 120.686 172.413 120.871C171.998 121.055 171.515 121.148 170.964 121.148C170.24 121.148 169.642 120.991 169.168 120.677C168.694 120.363 168.394 119.904 168.268 119.301L169.302 119.043C169.4 119.424 169.586 119.71 169.86 119.901C170.137 120.092 170.499 120.188 170.945 120.188C171.453 120.188 171.856 120.08 172.155 119.864C172.456 119.646 172.607 119.384 172.607 119.08C172.607 118.833 172.521 118.627 172.349 118.461C172.176 118.292 171.912 118.165 171.555 118.082L170.373 117.805C169.723 117.652 169.246 117.413 168.942 117.09C168.64 116.764 168.489 116.356 168.489 115.866C168.489 115.466 168.602 115.112 168.826 114.805C169.054 114.497 169.363 114.255 169.754 114.08C170.148 113.904 170.594 113.817 171.093 113.817C171.795 113.817 172.346 113.971 172.746 114.278C173.149 114.586 173.435 114.992 173.604 115.497ZM179.03 121V113.909H180.119V121H179.03ZM179.584 112.727C179.371 112.727 179.188 112.655 179.034 112.51C178.884 112.366 178.808 112.192 178.808 111.989C178.808 111.786 178.884 111.612 179.034 111.467C179.188 111.322 179.371 111.25 179.584 111.25C179.796 111.25 179.978 111.322 180.129 111.467C180.282 111.612 180.359 111.786 180.359 111.989C180.359 112.192 180.282 112.366 180.129 112.51C179.978 112.655 179.796 112.727 179.584 112.727ZM187.138 115.497L186.159 115.774C186.097 115.611 186.007 115.453 185.886 115.299C185.77 115.142 185.61 115.012 185.406 114.911C185.203 114.809 184.943 114.759 184.626 114.759C184.192 114.759 183.831 114.859 183.541 115.059C183.255 115.256 183.112 115.506 183.112 115.811C183.112 116.082 183.21 116.296 183.407 116.453C183.604 116.61 183.912 116.741 184.331 116.845L185.383 117.104C186.017 117.258 186.49 117.493 186.801 117.81C187.111 118.124 187.267 118.529 187.267 119.024C187.267 119.43 187.15 119.794 186.916 120.114C186.685 120.434 186.362 120.686 185.947 120.871C185.531 121.055 185.048 121.148 184.497 121.148C183.774 121.148 183.175 120.991 182.701 120.677C182.227 120.363 181.927 119.904 181.801 119.301L182.835 119.043C182.933 119.424 183.12 119.71 183.394 119.901C183.671 120.092 184.032 120.188 184.478 120.188C184.986 120.188 185.389 120.08 185.688 119.864C185.99 119.646 186.14 119.384 186.14 119.08C186.14 118.833 186.054 118.627 185.882 118.461C185.71 118.292 185.445 118.165 185.088 118.082L183.906 117.805C183.257 117.652 182.78 117.413 182.475 117.09C182.173 116.764 182.023 116.356 182.023 115.866C182.023 115.466 182.135 115.112 182.36 114.805C182.587 114.497 182.897 114.255 183.287 114.08C183.681 113.904 184.128 113.817 184.626 113.817C185.328 113.817 185.879 113.971 186.279 114.278C186.682 114.586 186.968 114.992 187.138 115.497ZM194.65 121.166C194.2 121.166 193.793 121.082 193.426 120.912C193.06 120.74 192.769 120.492 192.554 120.169C192.338 119.843 192.231 119.449 192.231 118.987C192.231 118.581 192.311 118.252 192.471 117.999C192.631 117.744 192.845 117.544 193.112 117.399C193.38 117.254 193.676 117.147 193.999 117.076C194.325 117.002 194.653 116.944 194.982 116.901C195.413 116.845 195.762 116.804 196.03 116.776C196.301 116.745 196.498 116.694 196.621 116.624C196.747 116.553 196.81 116.43 196.81 116.254V116.217C196.81 115.762 196.686 115.408 196.436 115.156C196.19 114.903 195.816 114.777 195.314 114.777C194.794 114.777 194.387 114.891 194.091 115.119C193.796 115.346 193.588 115.589 193.468 115.848L192.434 115.479C192.618 115.048 192.865 114.712 193.172 114.472C193.483 114.229 193.822 114.06 194.188 113.964C194.557 113.866 194.921 113.817 195.278 113.817C195.505 113.817 195.767 113.844 196.062 113.9C196.361 113.952 196.649 114.061 196.926 114.228C197.206 114.394 197.438 114.645 197.623 114.98C197.807 115.316 197.9 115.765 197.9 116.328V121H196.81V120.04H196.755C196.681 120.194 196.558 120.358 196.386 120.534C196.213 120.709 195.984 120.858 195.698 120.982C195.411 121.105 195.062 121.166 194.65 121.166ZM194.816 120.188C195.247 120.188 195.61 120.103 195.905 119.934C196.204 119.764 196.429 119.546 196.579 119.278C196.733 119.01 196.81 118.729 196.81 118.433V117.436C196.764 117.491 196.663 117.542 196.506 117.588C196.352 117.632 196.173 117.67 195.97 117.704C195.77 117.735 195.575 117.762 195.384 117.787C195.196 117.808 195.044 117.827 194.927 117.842C194.644 117.879 194.379 117.939 194.133 118.022C193.89 118.102 193.693 118.224 193.542 118.387C193.394 118.547 193.32 118.766 193.32 119.043C193.32 119.421 193.46 119.707 193.74 119.901C194.023 120.092 194.382 120.188 194.816 120.188ZM206.628 113.909V114.832H202.954V113.909H206.628ZM204.025 112.21H205.114V118.969C205.114 119.277 205.159 119.507 205.248 119.661C205.34 119.812 205.457 119.914 205.599 119.966C205.744 120.015 205.896 120.04 206.056 120.04C206.176 120.04 206.274 120.034 206.351 120.021C206.428 120.006 206.49 119.994 206.536 119.984L206.758 120.963C206.684 120.991 206.581 121.018 206.448 121.046C206.316 121.077 206.148 121.092 205.945 121.092C205.637 121.092 205.336 121.026 205.04 120.894C204.748 120.761 204.505 120.56 204.311 120.289C204.12 120.018 204.025 119.677 204.025 119.264V112.21ZM211.072 121.148C210.432 121.148 209.87 120.995 209.387 120.691C208.907 120.386 208.531 119.96 208.26 119.412C207.992 118.864 207.859 118.224 207.859 117.491C207.859 116.753 207.992 116.108 208.26 115.557C208.531 115.006 208.907 114.578 209.387 114.274C209.87 113.969 210.432 113.817 211.072 113.817C211.712 113.817 212.272 113.969 212.752 114.274C213.235 114.578 213.611 115.006 213.879 115.557C214.149 116.108 214.285 116.753 214.285 117.491C214.285 118.224 214.149 118.864 213.879 119.412C213.611 119.96 213.235 120.386 212.752 120.691C212.272 120.995 211.712 121.148 211.072 121.148ZM211.072 120.169C211.558 120.169 211.958 120.044 212.272 119.795C212.586 119.546 212.818 119.218 212.969 118.812C213.12 118.406 213.195 117.965 213.195 117.491C213.195 117.018 213.12 116.576 212.969 116.167C212.818 115.757 212.586 115.426 212.272 115.174C211.958 114.922 211.558 114.795 211.072 114.795C210.585 114.795 210.185 114.922 209.871 115.174C209.557 115.426 209.325 115.757 209.174 116.167C209.024 116.576 208.948 117.018 208.948 117.491C208.948 117.965 209.024 118.406 209.174 118.812C209.325 119.218 209.557 119.546 209.871 119.795C210.185 120.044 210.585 120.169 211.072 120.169ZM218.829 121.148C218.188 121.148 217.627 120.995 217.144 120.691C216.663 120.386 216.288 119.96 216.017 119.412C215.749 118.864 215.615 118.224 215.615 117.491C215.615 116.753 215.749 116.108 216.017 115.557C216.288 115.006 216.663 114.578 217.144 114.274C217.627 113.969 218.188 113.817 218.829 113.817C219.469 113.817 220.029 113.969 220.509 114.274C220.992 114.578 221.368 115.006 221.635 115.557C221.906 116.108 222.042 116.753 222.042 117.491C222.042 118.224 221.906 118.864 221.635 119.412C221.368 119.96 220.992 120.386 220.509 120.691C220.029 120.995 219.469 121.148 218.829 121.148ZM218.829 120.169C219.315 120.169 219.715 120.044 220.029 119.795C220.343 119.546 220.575 119.218 220.726 118.812C220.877 118.406 220.952 117.965 220.952 117.491C220.952 117.018 220.877 116.576 220.726 116.167C220.575 115.757 220.343 115.426 220.029 115.174C219.715 114.922 219.315 114.795 218.829 114.795C218.342 114.795 217.942 114.922 217.628 115.174C217.314 115.426 217.082 115.757 216.931 116.167C216.78 116.576 216.705 117.018 216.705 117.491C216.705 117.965 216.78 118.406 216.931 118.812C217.082 119.218 217.314 119.546 217.628 119.795C217.942 120.044 218.342 120.169 218.829 120.169ZM224.794 111.545V121H223.705V111.545H224.794ZM229.873 113.909V114.832H226.199V113.909H229.873ZM227.27 112.21H228.359V118.969C228.359 119.277 228.404 119.507 228.493 119.661C228.585 119.812 228.702 119.914 228.844 119.966C228.989 120.015 229.141 120.04 229.301 120.04C229.421 120.04 229.52 120.034 229.596 120.021C229.673 120.006 229.735 119.994 229.781 119.984L230.003 120.963C229.929 120.991 229.826 121.018 229.693 121.046C229.561 121.077 229.393 121.092 229.19 121.092C228.882 121.092 228.581 121.026 228.285 120.894C227.993 120.761 227.75 120.56 227.556 120.289C227.365 120.018 227.27 119.677 227.27 119.264V112.21ZM231.512 121V113.909H232.602V121H231.512ZM232.066 112.727C231.854 112.727 231.671 112.655 231.517 112.51C231.366 112.366 231.291 112.192 231.291 111.989C231.291 111.786 231.366 111.612 231.517 111.467C231.671 111.322 231.854 111.25 232.066 111.25C232.279 111.25 232.46 111.322 232.611 111.467C232.765 111.612 232.842 111.786 232.842 111.989C232.842 112.192 232.765 112.366 232.611 112.51C232.46 112.655 232.279 112.727 232.066 112.727ZM234.597 123.659V113.909H235.65V115.036H235.779C235.859 114.912 235.97 114.755 236.111 114.565C236.256 114.371 236.462 114.198 236.73 114.048C237.001 113.894 237.367 113.817 237.829 113.817C238.426 113.817 238.952 113.966 239.408 114.265C239.863 114.563 240.219 114.986 240.474 115.534C240.729 116.082 240.857 116.728 240.857 117.473C240.857 118.224 240.729 118.875 240.474 119.426C240.219 119.974 239.865 120.398 239.412 120.7C238.96 120.998 238.438 121.148 237.847 121.148C237.392 121.148 237.027 121.072 236.753 120.922C236.479 120.768 236.268 120.594 236.121 120.4C235.973 120.203 235.859 120.04 235.779 119.911H235.687V123.659H234.597ZM235.668 117.455C235.668 117.99 235.747 118.462 235.904 118.872C236.061 119.278 236.29 119.597 236.592 119.827C236.893 120.055 237.263 120.169 237.7 120.169C238.155 120.169 238.535 120.049 238.84 119.809C239.148 119.566 239.378 119.24 239.532 118.83C239.689 118.418 239.768 117.959 239.768 117.455C239.768 116.956 239.691 116.507 239.537 116.107C239.386 115.703 239.157 115.385 238.849 115.151C238.544 114.914 238.161 114.795 237.7 114.795C237.256 114.795 236.884 114.908 236.582 115.132C236.281 115.354 236.053 115.665 235.899 116.065C235.745 116.462 235.668 116.925 235.668 117.455Z" fill="#344054"/>
</g>
<g clip-path="url(#clip0_380_23906)">
<rect x="100" y="116" width="36" height="1" fill="#C54600"/>
<g clip-path="url(#clip1_380_23906)">
<rect x="100" y="104" width="24" height="24" rx="12" fill="#C54600"/>
<path d="M113.183 111.273V120H112.126V112.381H112.075L109.944 113.795V112.722L112.126 111.273H113.183Z" fill="white"/>
</g>
</g>
<g clip-path="url(#clip2_380_23906)">
<rect x="195" y="52" width="1" height="48" fill="#C54600"/>
<g clip-path="url(#clip3_380_23906)">
<rect x="183" y="52" width="24" height="24" rx="12" fill="#C54600"/>
<path d="M192.271 68V67.233L195.151 64.0795C195.489 63.7102 195.768 63.3892 195.987 63.1165C196.205 62.8409 196.367 62.5824 196.472 62.3409C196.58 62.0966 196.634 61.8409 196.634 61.5739C196.634 61.267 196.56 61.0014 196.413 60.777C196.268 60.5526 196.069 60.3793 195.816 60.2571C195.563 60.1349 195.279 60.0739 194.964 60.0739C194.629 60.0739 194.336 60.1435 194.086 60.2827C193.839 60.419 193.647 60.6108 193.511 60.858C193.377 61.1051 193.31 61.3949 193.31 61.7273H192.305C192.305 61.2159 192.423 60.767 192.658 60.3807C192.894 59.9943 193.215 59.6932 193.621 59.4773C194.031 59.2614 194.489 59.1534 194.998 59.1534C195.509 59.1534 195.962 59.2614 196.357 59.4773C196.752 59.6932 197.062 59.9844 197.286 60.3509C197.511 60.7173 197.623 61.125 197.623 61.5739C197.623 61.8949 197.565 62.2088 197.448 62.5156C197.335 62.8196 197.136 63.1591 196.852 63.5341C196.57 63.9062 196.18 64.3608 195.68 64.8977L193.719 66.9943V67.0625H197.776V68H192.271Z" fill="white"/>
</g>
</g>
<g clip-path="url(#clip4_380_23906)">
<rect x="194.984" y="123.66" width="1" height="80.3409" fill="#C54600"/>
<g clip-path="url(#clip5_380_23906)">
<rect x="182.984" y="180" width="24" height="24" rx="12" fill="#C54600"/>
<path d="M195.016 196.119C194.454 196.119 193.952 196.023 193.512 195.83C193.075 195.636 192.727 195.368 192.468 195.024C192.212 194.678 192.073 194.276 192.05 193.818H193.124C193.147 194.099 193.244 194.342 193.414 194.547C193.585 194.749 193.808 194.905 194.083 195.016C194.359 195.126 194.664 195.182 194.999 195.182C195.374 195.182 195.707 195.116 195.996 194.986C196.286 194.855 196.513 194.673 196.678 194.44C196.843 194.207 196.925 193.938 196.925 193.631C196.925 193.31 196.846 193.027 196.687 192.783C196.528 192.536 196.295 192.342 195.988 192.203C195.681 192.064 195.306 191.994 194.863 191.994H194.164V191.057H194.863C195.21 191.057 195.513 190.994 195.775 190.869C196.039 190.744 196.245 190.568 196.393 190.341C196.543 190.114 196.619 189.847 196.619 189.54C196.619 189.244 196.553 188.987 196.423 188.768C196.292 188.55 196.107 188.379 195.869 188.257C195.633 188.135 195.354 188.074 195.033 188.074C194.732 188.074 194.448 188.129 194.181 188.24C193.917 188.348 193.701 188.506 193.533 188.713C193.366 188.918 193.275 189.165 193.261 189.455H192.238C192.255 188.997 192.393 188.597 192.651 188.253C192.91 187.906 193.248 187.636 193.665 187.443C194.086 187.25 194.548 187.153 195.05 187.153C195.59 187.153 196.053 187.263 196.44 187.482C196.826 187.697 197.123 187.983 197.33 188.338C197.538 188.693 197.641 189.077 197.641 189.489C197.641 189.98 197.512 190.399 197.254 190.746C196.998 191.092 196.65 191.332 196.21 191.466V191.534C196.761 191.625 197.191 191.859 197.501 192.237C197.81 192.612 197.965 193.077 197.965 193.631C197.965 194.105 197.836 194.531 197.577 194.909C197.322 195.284 196.972 195.58 196.529 195.795C196.086 196.011 195.582 196.119 195.016 196.119Z" fill="white"/>
</g>
</g>
<defs>
<filter id="filter0_dd_380_23906" x="124" y="100" width="142" height="56" filterUnits="userSpaceOnUse" color-interpolation-filters="sRGB">
<feFlood flood-opacity="0" result="BackgroundImageFix"/>
<feColorMatrix in="SourceAlpha" type="matrix" values="0 0 0 0 0 0 0 0 0 0 0 0 0 0 0 0 0 0 127 0" result="hardAlpha"/>
<feMorphology radius="2" operator="erode" in="SourceAlpha" result="effect1_dropShadow_380_23906"/>
<feOffset dy="4"/>
<feGaussianBlur stdDeviation="3"/>
<feColorMatrix type="matrix" values="0 0 0 0 0.0627451 0 0 0 0 0.0941176 0 0 0 0 0.156863 0 0 0 0.03 0"/>
<feBlend mode="normal" in2="BackgroundImageFix" result="effect1_dropShadow_380_23906"/>
<feColorMatrix in="SourceAlpha" type="matrix" values="0 0 0 0 0 0 0 0 0 0 0 0 0 0 0 0 0 0 127 0" result="hardAlpha"/>
<feMorphology radius="4" operator="erode" in="SourceAlpha" result="effect2_dropShadow_380_23906"/>
<feOffset dy="12"/>
<feGaussianBlur stdDeviation="8"/>
<feColorMatrix type="matrix" values="0 0 0 0 0.0627451 0 0 0 0 0.0941176 0 0 0 0 0.156863 0 0 0 0.08 0"/>
<feBlend mode="normal" in2="effect1_dropShadow_380_23906" result="effect2_dropShadow_380_23906"/>
<feBlend mode="normal" in="SourceGraphic" in2="effect2_dropShadow_380_23906" result="shape"/>
</filter>
<clipPath id="clip0_380_23906">
<rect width="36" height="24" fill="white" transform="translate(100 104)"/>
</clipPath>
<clipPath id="clip1_380_23906">
<rect x="100" y="104" width="24" height="24" rx="12" fill="white"/>
</clipPath>
<clipPath id="clip2_380_23906">
<rect width="24" height="48" fill="white" transform="translate(183 52)"/>
</clipPath>
<clipPath id="clip3_380_23906">
<rect x="183" y="52" width="24" height="24" rx="12" fill="white"/>
</clipPath>
<clipPath id="clip4_380_23906">
<rect width="24" height="80.3409" fill="white" transform="translate(182.984 123.66)"/>
</clipPath>
<clipPath id="clip5_380_23906">
<rect x="182.984" y="180" width="24" height="24" rx="12" fill="white"/>
</clipPath>
</defs>
</svg>
