<svg width="386" height="160" viewBox="0 0 386 160" fill="none" xmlns="http://www.w3.org/2000/svg">
<rect width="386" height="160" rx="8" fill="#4CA154" fill-opacity="0.1"/>
<path d="M28 119C25.4288 119 22.9154 119.762 20.7776 121.191C18.6398 122.619 16.9735 124.65 15.9896 127.025C15.0056 129.401 14.7482 132.014 15.2498 134.536C15.7514 137.058 16.9895 139.374 18.8076 141.192C20.6257 143.01 22.9421 144.249 25.4638 144.75C27.9856 145.252 30.5995 144.994 32.9749 144.01C35.3503 143.026 37.3807 141.36 38.8091 139.222C40.2376 137.085 41 134.571 41 132C40.9964 128.553 39.6256 125.249 37.1884 122.812C34.7512 120.374 31.4467 119.004 28 119ZM33.7075 129.708L26.7075 136.708C26.6146 136.8 26.5043 136.874 26.3829 136.925C26.2615 136.975 26.1314 137.001 26 137.001C25.8686 137.001 25.7385 136.975 25.6171 136.925C25.4957 136.874 25.3854 136.8 25.2925 136.708L22.2925 133.708C22.1049 133.52 21.9994 133.265 21.9994 133C21.9994 132.735 22.1049 132.48 22.2925 132.292C22.4801 132.105 22.7346 131.999 23 131.999C23.2654 131.999 23.5199 132.105 23.7075 132.292L26 134.586L32.2925 128.292C32.3854 128.2 32.4957 128.126 32.6171 128.076C32.7385 128.025 32.8686 127.999 33 127.999C33.1314 127.999 33.2615 128.025 33.3829 128.076C33.5043 128.126 33.6146 128.2 33.7075 128.292C33.8004 128.385 33.8741 128.496 33.9244 128.617C33.9747 128.738 34.0006 128.869 34.0006 129C34.0006 129.131 33.9747 129.262 33.9244 129.383C33.8741 129.504 33.8004 129.615 33.7075 129.708Z" fill="#4CA154"/>
<g filter="url(#filter0_d_591_14150)">
<path d="M83 65.8C83 61.3196 83 59.0794 83.8719 57.3681C84.6389 55.8628 85.8628 54.6389 87.3681 53.8719C89.0794 53 91.3196 53 95.8 53H290.2C294.68 53 296.921 53 298.632 53.8719C300.137 54.6389 301.361 55.8628 302.128 57.3681C303 59.0794 303 61.3196 303 65.8V88.2C303 92.6804 303 94.9206 302.128 96.6319C301.361 98.1372 300.137 99.3611 298.632 100.128C296.921 101 294.68 101 290.2 101H95.8C91.3196 101 89.0794 101 87.3681 100.128C85.8628 99.3611 84.6389 98.1372 83.8719 96.6319C83 94.9206 83 92.6804 83 88.2V65.8Z" fill="#394150" shape-rendering="crispEdges"/>
<path d="M103.08 67H102.023C101.96 66.696 101.851 66.429 101.695 66.1989C101.541 65.9688 101.354 65.7756 101.132 65.6193C100.913 65.4602 100.67 65.3409 100.403 65.2614C100.136 65.1818 99.858 65.142 99.5682 65.142C99.0398 65.142 98.5611 65.2756 98.1321 65.5426C97.706 65.8097 97.3665 66.2031 97.1136 66.723C96.8636 67.2429 96.7386 67.8807 96.7386 68.6364C96.7386 69.392 96.8636 70.0298 97.1136 70.5497C97.3665 71.0696 97.706 71.4631 98.1321 71.7301C98.5611 71.9972 99.0398 72.1307 99.5682 72.1307C99.858 72.1307 100.136 72.0909 100.403 72.0114C100.67 71.9318 100.913 71.8139 101.132 71.6577C101.354 71.4986 101.541 71.304 101.695 71.0739C101.851 70.8409 101.96 70.5739 102.023 70.2727H103.08C103 70.7187 102.855 71.1179 102.645 71.4702C102.435 71.8224 102.173 72.1222 101.861 72.3693C101.548 72.6136 101.197 72.7997 100.808 72.9276C100.422 73.0554 100.009 73.1193 99.5682 73.1193C98.8239 73.1193 98.1619 72.9375 97.5824 72.5739C97.0028 72.2102 96.5469 71.6932 96.2145 71.0227C95.8821 70.3523 95.7159 69.5568 95.7159 68.6364C95.7159 67.7159 95.8821 66.9205 96.2145 66.25C96.5469 65.5795 97.0028 65.0625 97.5824 64.6989C98.1619 64.3352 98.8239 64.1534 99.5682 64.1534C100.009 64.1534 100.422 64.2173 100.808 64.3452C101.197 64.473 101.548 64.6605 101.861 64.9077C102.173 65.152 102.435 65.4503 102.645 65.8026C102.855 66.152 103 66.5511 103.08 67ZM104.895 64.2727L107.486 71.6193H107.588L110.179 64.2727H111.287L108.083 73H106.992L103.787 64.2727H104.895ZM119.009 67H117.952C117.89 66.696 117.781 66.429 117.624 66.1989C117.471 65.9688 117.283 65.7756 117.062 65.6193C116.843 65.4602 116.6 65.3409 116.333 65.2614C116.066 65.1818 115.788 65.142 115.498 65.142C114.969 65.142 114.491 65.2756 114.062 65.5426C113.636 65.8097 113.296 66.2031 113.043 66.723C112.793 67.2429 112.668 67.8807 112.668 68.6364C112.668 69.392 112.793 70.0298 113.043 70.5497C113.296 71.0696 113.636 71.4631 114.062 71.7301C114.491 71.9972 114.969 72.1307 115.498 72.1307C115.788 72.1307 116.066 72.0909 116.333 72.0114C116.6 71.9318 116.843 71.8139 117.062 71.6577C117.283 71.4986 117.471 71.304 117.624 71.0739C117.781 70.8409 117.89 70.5739 117.952 70.2727H119.009C118.93 70.7187 118.785 71.1179 118.575 71.4702C118.364 71.8224 118.103 72.1222 117.79 72.3693C117.478 72.6136 117.127 72.7997 116.738 72.9276C116.352 73.0554 115.938 73.1193 115.498 73.1193C114.754 73.1193 114.092 72.9375 113.512 72.5739C112.933 72.2102 112.477 71.6932 112.144 71.0227C111.812 70.3523 111.646 69.5568 111.646 68.6364C111.646 67.7159 111.812 66.9205 112.144 66.25C112.477 65.5795 112.933 65.0625 113.512 64.6989C114.092 64.3352 114.754 64.1534 115.498 64.1534C115.938 64.1534 116.352 64.2173 116.738 64.3452C117.127 64.473 117.478 64.6605 117.79 64.9077C118.103 65.152 118.364 65.4503 118.575 65.8026C118.785 66.152 118.93 66.5511 119.009 67ZM123.456 73V66.4545H124.461V73H123.456ZM123.967 65.3636C123.771 65.3636 123.602 65.2969 123.46 65.1634C123.321 65.0298 123.251 64.8693 123.251 64.6818C123.251 64.4943 123.321 64.3338 123.46 64.2003C123.602 64.0668 123.771 64 123.967 64C124.163 64 124.331 64.0668 124.47 64.2003C124.612 64.3338 124.683 64.4943 124.683 64.6818C124.683 64.8693 124.612 65.0298 124.47 65.1634C124.331 65.2969 124.163 65.3636 123.967 65.3636ZM130.69 67.9205L129.786 68.1761C129.729 68.0256 129.646 67.8793 129.535 67.7372C129.427 67.5923 129.279 67.473 129.092 67.3793C128.904 67.2855 128.664 67.2386 128.371 67.2386C127.971 67.2386 127.637 67.331 127.37 67.5156C127.106 67.6974 126.974 67.929 126.974 68.2102C126.974 68.4602 127.065 68.6577 127.246 68.8026C127.428 68.9474 127.712 69.0682 128.099 69.1648L129.07 69.4034C129.656 69.5455 130.092 69.7628 130.379 70.0554C130.665 70.3452 130.809 70.7187 130.809 71.1761C130.809 71.5511 130.701 71.8864 130.485 72.1818C130.272 72.4773 129.974 72.7102 129.59 72.8807C129.207 73.0511 128.761 73.1364 128.252 73.1364C127.585 73.1364 127.032 72.9915 126.594 72.7017C126.157 72.4119 125.88 71.9886 125.763 71.4318L126.718 71.1932C126.809 71.5455 126.981 71.8097 127.234 71.9858C127.489 72.1619 127.823 72.25 128.235 72.25C128.704 72.25 129.076 72.1506 129.352 71.9517C129.63 71.75 129.769 71.5085 129.769 71.2273C129.769 71 129.69 70.8097 129.531 70.6562C129.371 70.5 129.127 70.3835 128.798 70.3068L127.707 70.0511C127.107 69.9091 126.667 69.6889 126.386 69.3906C126.107 69.0895 125.968 68.7131 125.968 68.2614C125.968 67.892 126.072 67.5653 126.279 67.2812C126.489 66.9972 126.775 66.7741 127.136 66.6122C127.499 66.4503 127.911 66.3693 128.371 66.3693C129.019 66.3693 129.528 66.5114 129.897 66.7955C130.269 67.0795 130.533 67.4545 130.69 67.9205ZM138.044 66.4545V67.3068H134.652V66.4545H138.044ZM135.641 64.8864H136.647V71.125C136.647 71.4091 136.688 71.6222 136.77 71.7642C136.855 71.9034 136.963 71.9972 137.094 72.0455C137.228 72.0909 137.368 72.1136 137.516 72.1136C137.627 72.1136 137.718 72.108 137.789 72.0966C137.86 72.0824 137.917 72.071 137.959 72.0625L138.164 72.9659C138.096 72.9915 138 73.017 137.878 73.0426C137.756 73.071 137.601 73.0852 137.414 73.0852C137.13 73.0852 136.851 73.0241 136.578 72.902C136.309 72.7798 136.084 72.5938 135.905 72.3438C135.729 72.0938 135.641 71.7784 135.641 71.3977V64.8864ZM140.453 69.0625V73H139.448V64.2727H140.453V67.4773H140.539C140.692 67.1392 140.922 66.8707 141.229 66.6719C141.539 66.4702 141.951 66.3693 142.465 66.3693C142.911 66.3693 143.301 66.4588 143.637 66.6378C143.972 66.8139 144.232 67.0852 144.417 67.4517C144.604 67.8153 144.698 68.2784 144.698 68.8409V73H143.692V68.9091C143.692 68.3892 143.557 67.9872 143.287 67.7031C143.02 67.4162 142.65 67.2727 142.175 67.2727C141.846 67.2727 141.55 67.3423 141.289 67.4815C141.03 67.6207 140.826 67.8239 140.675 68.0909C140.527 68.358 140.453 68.6818 140.453 69.0625ZM149.032 73.1364C148.401 73.1364 147.857 72.9972 147.4 72.7188C146.945 72.4375 146.594 72.0455 146.347 71.5426C146.103 71.0369 145.981 70.4489 145.981 69.7784C145.981 69.108 146.103 68.517 146.347 68.0057C146.594 67.4915 146.938 67.0909 147.379 66.804C147.822 66.5142 148.339 66.3693 148.93 66.3693C149.271 66.3693 149.607 66.4261 149.94 66.5398C150.272 66.6534 150.575 66.8381 150.847 67.0938C151.12 67.3466 151.337 67.6818 151.499 68.0994C151.661 68.517 151.742 69.0312 151.742 69.642V70.0682H146.697V69.1989H150.719C150.719 68.8295 150.646 68.5 150.498 68.2102C150.353 67.9205 150.146 67.6918 149.876 67.5241C149.609 67.3565 149.293 67.2727 148.93 67.2727C148.529 67.2727 148.183 67.3722 147.89 67.571C147.6 67.767 147.377 68.0227 147.221 68.3381C147.065 68.6534 146.987 68.9915 146.987 69.3523V69.9318C146.987 70.4261 147.072 70.8452 147.242 71.1889C147.415 71.5298 147.656 71.7898 147.962 71.9688C148.269 72.1449 148.626 72.233 149.032 72.233C149.296 72.233 149.535 72.196 149.748 72.1222C149.964 72.0455 150.15 71.9318 150.306 71.7812C150.462 71.6278 150.583 71.4375 150.668 71.2102L151.64 71.483C151.538 71.8125 151.366 72.1023 151.124 72.3523C150.883 72.5994 150.585 72.7926 150.229 72.9318C149.874 73.0682 149.475 73.1364 149.032 73.1364ZM158.994 66.4545V67.3068H155.602V66.4545H158.994ZM156.59 64.8864H157.596V71.125C157.596 71.4091 157.637 71.6222 157.719 71.7642C157.805 71.9034 157.913 71.9972 158.043 72.0455C158.177 72.0909 158.317 72.1136 158.465 72.1136C158.576 72.1136 158.667 72.108 158.738 72.0966C158.809 72.0824 158.866 72.071 158.908 72.0625L159.113 72.9659C159.045 72.9915 158.95 73.017 158.827 73.0426C158.705 73.071 158.55 73.0852 158.363 73.0852C158.079 73.0852 157.8 73.0241 157.528 72.902C157.258 72.7798 157.033 72.5938 156.854 72.3438C156.678 72.0938 156.59 71.7784 156.59 71.3977V64.8864ZM161.403 69.0625V73H160.397V64.2727H161.403V67.4773H161.488C161.641 67.1392 161.871 66.8707 162.178 66.6719C162.488 66.4702 162.9 66.3693 163.414 66.3693C163.86 66.3693 164.251 66.4588 164.586 66.6378C164.921 66.8139 165.181 67.0852 165.366 67.4517C165.553 67.8153 165.647 68.2784 165.647 68.8409V73H164.641V68.9091C164.641 68.3892 164.506 67.9872 164.237 67.7031C163.969 67.4162 163.599 67.2727 163.124 67.2727C162.795 67.2727 162.499 67.3423 162.238 67.4815C161.979 67.6207 161.775 67.8239 161.624 68.0909C161.477 68.358 161.403 68.6818 161.403 69.0625ZM167.237 73V66.4545H168.208V67.4432H168.277C168.396 67.1193 168.612 66.8565 168.924 66.6548C169.237 66.4531 169.589 66.3523 169.981 66.3523C170.055 66.3523 170.147 66.3537 170.258 66.3565C170.369 66.3594 170.453 66.3636 170.51 66.3693V67.392C170.475 67.3835 170.397 67.3707 170.275 67.3537C170.156 67.3338 170.029 67.3239 169.896 67.3239C169.578 67.3239 169.294 67.3906 169.044 67.5241C168.797 67.6548 168.6 67.8366 168.456 68.0696C168.314 68.2997 168.243 68.5625 168.243 68.858V73H167.237ZM173.997 73.1364C173.366 73.1364 172.822 72.9972 172.365 72.7188C171.91 72.4375 171.559 72.0455 171.312 71.5426C171.068 71.0369 170.946 70.4489 170.946 69.7784C170.946 69.108 171.068 68.517 171.312 68.0057C171.559 67.4915 171.903 67.0909 172.343 66.804C172.787 66.5142 173.304 66.3693 173.895 66.3693C174.235 66.3693 174.572 66.4261 174.904 66.5398C175.237 66.6534 175.539 66.8381 175.812 67.0938C176.085 67.3466 176.302 67.6818 176.464 68.0994C176.626 68.517 176.707 69.0312 176.707 69.642V70.0682H171.662V69.1989H175.684C175.684 68.8295 175.61 68.5 175.463 68.2102C175.318 67.9205 175.11 67.6918 174.841 67.5241C174.574 67.3565 174.258 67.2727 173.895 67.2727C173.494 67.2727 173.147 67.3722 172.855 67.571C172.565 67.767 172.342 68.0227 172.186 68.3381C172.029 68.6534 171.951 68.9915 171.951 69.3523V69.9318C171.951 70.4261 172.037 70.8452 172.207 71.1889C172.38 71.5298 172.62 71.7898 172.927 71.9688C173.234 72.1449 173.591 72.233 173.997 72.233C174.261 72.233 174.5 72.196 174.713 72.1222C174.929 72.0455 175.115 71.9318 175.271 71.7812C175.427 71.6278 175.548 71.4375 175.633 71.2102L176.605 71.483C176.502 71.8125 176.331 72.1023 176.089 72.3523C175.848 72.5994 175.549 72.7926 175.194 72.9318C174.839 73.0682 174.44 73.1364 173.997 73.1364ZM180.731 73.1364C180.1 73.1364 179.556 72.9972 179.099 72.7188C178.645 72.4375 178.294 72.0455 178.047 71.5426C177.802 71.0369 177.68 70.4489 177.68 69.7784C177.68 69.108 177.802 68.517 178.047 68.0057C178.294 67.4915 178.637 67.0909 179.078 66.804C179.521 66.5142 180.038 66.3693 180.629 66.3693C180.97 66.3693 181.306 66.4261 181.639 66.5398C181.971 66.6534 182.274 66.8381 182.547 67.0938C182.819 67.3466 183.037 67.6818 183.199 68.0994C183.36 68.517 183.441 69.0312 183.441 69.642V70.0682H178.396V69.1989H182.419C182.419 68.8295 182.345 68.5 182.197 68.2102C182.052 67.9205 181.845 67.6918 181.575 67.5241C181.308 67.3565 180.993 67.2727 180.629 67.2727C180.228 67.2727 179.882 67.3722 179.589 67.571C179.299 67.767 179.076 68.0227 178.92 68.3381C178.764 68.6534 178.686 68.9915 178.686 69.3523V69.9318C178.686 70.4261 178.771 70.8452 178.941 71.1889C179.115 71.5298 179.355 71.7898 179.662 71.9688C179.968 72.1449 180.325 72.233 180.731 72.233C180.995 72.233 181.234 72.196 181.447 72.1222C181.663 72.0455 181.849 71.9318 182.005 71.7812C182.162 71.6278 182.282 71.4375 182.368 71.2102L183.339 71.483C183.237 71.8125 183.065 72.1023 182.824 72.3523C182.582 72.5994 182.284 72.7926 181.929 72.9318C181.574 73.0682 181.174 73.1364 180.731 73.1364ZM190.318 73.1364C189.772 73.1364 189.291 72.9986 188.873 72.723C188.456 72.4446 188.129 72.0526 187.893 71.5469C187.657 71.0384 187.539 70.4375 187.539 69.7443C187.539 69.0568 187.657 68.4602 187.893 67.9545C188.129 67.4489 188.457 67.0582 188.877 66.7827C189.298 66.5071 189.784 66.3693 190.335 66.3693C190.761 66.3693 191.098 66.4403 191.345 66.5824C191.595 66.7216 191.785 66.8807 191.916 67.0597C192.049 67.2358 192.153 67.3807 192.227 67.4943H192.312V64.2727H193.318V73H192.346V71.9943H192.227C192.153 72.1136 192.048 72.2642 191.912 72.446C191.775 72.625 191.581 72.7855 191.328 72.9276C191.075 73.0668 190.738 73.1364 190.318 73.1364ZM190.454 72.233C190.858 72.233 191.199 72.1278 191.477 71.9176C191.755 71.7045 191.967 71.4105 192.112 71.0355C192.257 70.6577 192.329 70.2216 192.329 69.7273C192.329 69.2386 192.258 68.8111 192.116 68.4446C191.974 68.0753 191.764 67.7884 191.485 67.5838C191.207 67.3764 190.863 67.2727 190.454 67.2727C190.028 67.2727 189.673 67.3821 189.389 67.6009C189.108 67.8168 188.896 68.1108 188.754 68.483C188.615 68.8523 188.545 69.267 188.545 69.7273C188.545 70.1932 188.616 70.6165 188.758 70.9972C188.903 71.375 189.116 71.6761 189.397 71.9006C189.681 72.1222 190.034 72.233 190.454 72.233ZM195.049 73V66.4545H196.055V73H195.049ZM195.561 65.3636C195.365 65.3636 195.196 65.2969 195.054 65.1634C194.914 65.0298 194.845 64.8693 194.845 64.6818C194.845 64.4943 194.914 64.3338 195.054 64.2003C195.196 64.0668 195.365 64 195.561 64C195.757 64 195.924 64.0668 196.064 64.2003C196.206 64.3338 196.277 64.4943 196.277 64.6818C196.277 64.8693 196.206 65.0298 196.064 65.1634C195.924 65.2969 195.757 65.3636 195.561 65.3636ZM200.289 75.5909C199.803 75.5909 199.386 75.5284 199.036 75.4034C198.687 75.2812 198.396 75.1193 198.163 74.9176C197.933 74.7188 197.749 74.5057 197.613 74.2784L198.414 73.7159C198.505 73.8352 198.62 73.9716 198.759 74.125C198.898 74.2812 199.089 74.4162 199.33 74.5298C199.575 74.6463 199.894 74.7045 200.289 74.7045C200.817 74.7045 201.254 74.5767 201.597 74.321C201.941 74.0653 202.113 73.6648 202.113 73.1193V71.7898H202.028C201.954 71.9091 201.849 72.0568 201.712 72.233C201.579 72.4062 201.386 72.5611 201.133 72.6974C200.883 72.831 200.545 72.8977 200.119 72.8977C199.59 72.8977 199.116 72.7727 198.695 72.5227C198.278 72.2727 197.947 71.9091 197.702 71.4318C197.461 70.9545 197.34 70.375 197.34 69.6932C197.34 69.0227 197.458 68.4389 197.694 67.9418C197.93 67.4418 198.258 67.0554 198.678 66.7827C199.099 66.5071 199.585 66.3693 200.136 66.3693C200.562 66.3693 200.9 66.4403 201.15 66.5824C201.403 66.7216 201.596 66.8807 201.729 67.0597C201.866 67.2358 201.971 67.3807 202.045 67.4943H202.147V66.4545H203.119V73.1875C203.119 73.75 202.991 74.2074 202.735 74.5597C202.482 74.9148 202.141 75.1747 201.712 75.3395C201.286 75.5071 200.812 75.5909 200.289 75.5909ZM200.255 71.9943C200.658 71.9943 200.999 71.902 201.278 71.7173C201.556 71.5327 201.768 71.267 201.913 70.9205C202.058 70.5739 202.13 70.1591 202.13 69.6761C202.13 69.2045 202.059 68.7884 201.917 68.4276C201.775 68.0668 201.565 67.7841 201.286 67.5795C201.008 67.375 200.664 67.2727 200.255 67.2727C199.829 67.2727 199.474 67.3807 199.19 67.5966C198.908 67.8125 198.697 68.1023 198.555 68.4659C198.415 68.8295 198.346 69.233 198.346 69.6761C198.346 70.1307 198.417 70.5327 198.559 70.8821C198.704 71.2287 198.917 71.5014 199.198 71.7003C199.482 71.8963 199.835 71.9943 200.255 71.9943ZM204.71 73V66.4545H205.715V73H204.71ZM205.221 65.3636C205.025 65.3636 204.856 65.2969 204.714 65.1634C204.575 65.0298 204.505 64.8693 204.505 64.6818C204.505 64.4943 204.575 64.3338 204.714 64.2003C204.856 64.0668 205.025 64 205.221 64C205.417 64 205.585 64.0668 205.724 64.2003C205.866 64.3338 205.937 64.4943 205.937 64.6818C205.937 64.8693 205.866 65.0298 205.724 65.1634C205.585 65.2969 205.417 65.3636 205.221 65.3636ZM210.154 66.4545V67.3068H206.762V66.4545H210.154ZM207.75 64.8864H208.756V71.125C208.756 71.4091 208.797 71.6222 208.88 71.7642C208.965 71.9034 209.073 71.9972 209.203 72.0455C209.337 72.0909 209.478 72.1136 209.625 72.1136C209.736 72.1136 209.827 72.108 209.898 72.0966C209.969 72.0824 210.026 72.071 210.069 72.0625L210.273 72.9659C210.205 72.9915 210.11 73.017 209.988 73.0426C209.865 73.071 209.711 73.0852 209.523 73.0852C209.239 73.0852 208.961 73.0241 208.688 72.902C208.418 72.7798 208.194 72.5938 208.015 72.3438C207.838 72.0938 207.75 71.7784 207.75 71.3977V64.8864ZM217.201 73.1364C216.587 73.1364 216.059 72.9915 215.615 72.7017C215.172 72.4119 214.831 72.0128 214.593 71.5043C214.354 70.9957 214.235 70.4148 214.235 69.7614C214.235 69.0966 214.357 68.5099 214.601 68.0014C214.848 67.4901 215.192 67.0909 215.632 66.804C216.076 66.5142 216.593 66.3693 217.184 66.3693C217.644 66.3693 218.059 66.4545 218.428 66.625C218.797 66.7955 219.1 67.0341 219.336 67.3409C219.571 67.6477 219.718 68.0057 219.775 68.4148H218.769C218.692 68.1165 218.522 67.8523 218.257 67.6222C217.996 67.3892 217.644 67.2727 217.201 67.2727C216.809 67.2727 216.465 67.375 216.169 67.5795C215.877 67.7812 215.648 68.0668 215.483 68.4361C215.321 68.8026 215.24 69.233 215.24 69.7273C215.24 70.233 215.32 70.6733 215.479 71.0483C215.641 71.4233 215.868 71.7145 216.161 71.9219C216.456 72.1293 216.803 72.233 217.201 72.233C217.462 72.233 217.699 72.1875 217.912 72.0966C218.125 72.0057 218.306 71.875 218.453 71.7045C218.601 71.5341 218.706 71.3295 218.769 71.0909H219.775C219.718 71.4773 219.577 71.8253 219.353 72.1349C219.131 72.4418 218.837 72.6861 218.471 72.8679C218.107 73.0469 217.684 73.1364 217.201 73.1364ZM223.654 73.1364C223.063 73.1364 222.544 72.9957 222.098 72.7145C221.655 72.4332 221.309 72.0398 221.059 71.5341C220.811 71.0284 220.688 70.4375 220.688 69.7614C220.688 69.0795 220.811 68.4844 221.059 67.9759C221.309 67.4673 221.655 67.0724 222.098 66.7912C222.544 66.5099 223.063 66.3693 223.654 66.3693C224.245 66.3693 224.762 66.5099 225.205 66.7912C225.651 67.0724 225.998 67.4673 226.245 67.9759C226.495 68.4844 226.62 69.0795 226.62 69.7614C226.62 70.4375 226.495 71.0284 226.245 71.5341C225.998 72.0398 225.651 72.4332 225.205 72.7145C224.762 72.9957 224.245 73.1364 223.654 73.1364ZM223.654 72.233C224.103 72.233 224.472 72.1179 224.762 71.8878C225.051 71.6577 225.266 71.3551 225.405 70.9801C225.544 70.6051 225.614 70.1989 225.614 69.7614C225.614 69.3239 225.544 68.9162 225.405 68.5384C225.266 68.1605 225.051 67.8551 224.762 67.6222C224.472 67.3892 224.103 67.2727 223.654 67.2727C223.205 67.2727 222.836 67.3892 222.546 67.6222C222.256 67.8551 222.042 68.1605 221.902 68.5384C221.763 68.9162 221.694 69.3239 221.694 69.7614C221.694 70.1989 221.763 70.6051 221.902 70.9801C222.042 71.3551 222.256 71.6577 222.546 71.8878C222.836 72.1179 223.205 72.233 223.654 72.233ZM230.376 73.1364C229.831 73.1364 229.349 72.9986 228.932 72.723C228.514 72.4446 228.188 72.0526 227.952 71.5469C227.716 71.0384 227.598 70.4375 227.598 69.7443C227.598 69.0568 227.716 68.4602 227.952 67.9545C228.188 67.4489 228.516 67.0582 228.936 66.7827C229.357 66.5071 229.842 66.3693 230.393 66.3693C230.82 66.3693 231.156 66.4403 231.403 66.5824C231.653 66.7216 231.844 66.8807 231.974 67.0597C232.108 67.2358 232.212 67.3807 232.286 67.4943H232.371V64.2727H233.376V73H232.405V71.9943H232.286C232.212 72.1136 232.107 72.2642 231.97 72.446C231.834 72.625 231.639 72.7855 231.386 72.9276C231.134 73.0668 230.797 73.1364 230.376 73.1364ZM230.513 72.233C230.916 72.233 231.257 72.1278 231.536 71.9176C231.814 71.7045 232.026 71.4105 232.17 71.0355C232.315 70.6577 232.388 70.2216 232.388 69.7273C232.388 69.2386 232.317 68.8111 232.175 68.4446C232.033 68.0753 231.822 67.7884 231.544 67.5838C231.266 67.3764 230.922 67.2727 230.513 67.2727C230.087 67.2727 229.732 67.3821 229.447 67.6009C229.166 67.8168 228.955 68.1108 228.812 68.483C228.673 68.8523 228.604 69.267 228.604 69.7273C228.604 70.1932 228.675 70.6165 228.817 70.9972C228.962 71.375 229.175 71.6761 229.456 71.9006C229.74 72.1222 230.092 72.233 230.513 72.233ZM237.852 73.1364C237.222 73.1364 236.678 72.9972 236.22 72.7188C235.766 72.4375 235.415 72.0455 235.168 71.5426C234.923 71.0369 234.801 70.4489 234.801 69.7784C234.801 69.108 234.923 68.517 235.168 68.0057C235.415 67.4915 235.759 67.0909 236.199 66.804C236.642 66.5142 237.159 66.3693 237.75 66.3693C238.091 66.3693 238.428 66.4261 238.76 66.5398C239.092 66.6534 239.395 66.8381 239.668 67.0938C239.94 67.3466 240.158 67.6818 240.32 68.0994C240.482 68.517 240.562 69.0312 240.562 69.642V70.0682H235.517V69.1989H239.54C239.54 68.8295 239.466 68.5 239.318 68.2102C239.173 67.9205 238.966 67.6918 238.696 67.5241C238.429 67.3565 238.114 67.2727 237.75 67.2727C237.349 67.2727 237.003 67.3722 236.71 67.571C236.42 67.767 236.197 68.0227 236.041 68.3381C235.885 68.6534 235.807 68.9915 235.807 69.3523V69.9318C235.807 70.4261 235.892 70.8452 236.062 71.1889C236.236 71.5298 236.476 71.7898 236.783 71.9688C237.089 72.1449 237.446 72.233 237.852 72.233C238.116 72.233 238.355 72.196 238.568 72.1222C238.784 72.0455 238.97 71.9318 239.126 71.7812C239.283 71.6278 239.403 71.4375 239.489 71.2102L240.46 71.483C240.358 71.8125 240.186 72.1023 239.945 72.3523C239.703 72.5994 239.405 72.7926 239.05 72.9318C238.695 73.0682 238.295 73.1364 237.852 73.1364ZM246.893 73.1534C246.479 73.1534 246.102 73.0753 245.764 72.919C245.426 72.7599 245.158 72.5312 244.959 72.233C244.76 71.9318 244.661 71.5682 244.661 71.142C244.661 70.767 244.734 70.4631 244.882 70.2301C245.03 69.9943 245.227 69.8097 245.474 69.6761C245.722 69.5426 245.994 69.4432 246.293 69.3778C246.594 69.3097 246.896 69.2557 247.2 69.2159C247.598 69.1648 247.92 69.1264 248.168 69.1009C248.418 69.0724 248.599 69.0256 248.713 68.9602C248.83 68.8949 248.888 68.7812 248.888 68.6193V68.5852C248.888 68.1648 248.773 67.8381 248.543 67.6051C248.315 67.3722 247.97 67.2557 247.507 67.2557C247.027 67.2557 246.651 67.3608 246.378 67.571C246.105 67.7812 245.913 68.0057 245.803 68.2443L244.848 67.9034C245.018 67.5057 245.246 67.196 245.53 66.9744C245.817 66.75 246.129 66.5937 246.467 66.5057C246.808 66.4148 247.143 66.3693 247.473 66.3693C247.683 66.3693 247.925 66.3949 248.197 66.446C248.473 66.4943 248.739 66.5952 248.994 66.7486C249.253 66.902 249.467 67.1335 249.638 67.4432C249.808 67.7528 249.893 68.1676 249.893 68.6875V73H248.888V72.1136H248.837C248.768 72.2557 248.655 72.4077 248.496 72.5696C248.337 72.7315 248.125 72.8693 247.861 72.983C247.597 73.0966 247.274 73.1534 246.893 73.1534ZM247.047 72.25C247.445 72.25 247.78 72.1719 248.053 72.0156C248.328 71.8594 248.536 71.6577 248.675 71.4105C248.817 71.1634 248.888 70.9034 248.888 70.6307V69.7102C248.845 69.7614 248.751 69.8082 248.607 69.8509C248.464 69.8906 248.3 69.9261 248.112 69.9574C247.928 69.9858 247.747 70.0114 247.571 70.0341C247.398 70.054 247.257 70.071 247.149 70.0852C246.888 70.1193 246.643 70.1747 246.416 70.2514C246.192 70.3253 246.01 70.4375 245.871 70.5881C245.734 70.7358 245.666 70.9375 245.666 71.1932C245.666 71.5426 245.795 71.8068 246.054 71.9858C246.315 72.1619 246.646 72.25 247.047 72.25ZM254.326 66.4545V67.3068H250.934V66.4545H254.326ZM251.922 64.8864H252.928V71.125C252.928 71.4091 252.969 71.6222 253.051 71.7642C253.137 71.9034 253.245 71.9972 253.375 72.0455C253.509 72.0909 253.65 72.1136 253.797 72.1136C253.908 72.1136 253.999 72.108 254.07 72.0966C254.141 72.0824 254.198 72.071 254.24 72.0625L254.445 72.9659C254.377 72.9915 254.282 73.017 254.159 73.0426C254.037 73.071 253.882 73.0852 253.695 73.0852C253.411 73.0852 253.132 73.0241 252.86 72.902C252.59 72.7798 252.365 72.5938 252.186 72.3438C252.01 72.0938 251.922 71.7784 251.922 71.3977V64.8864ZM261.56 66.4545V67.3068H258.168V66.4545H261.56ZM259.157 64.8864H260.162V71.125C260.162 71.4091 260.203 71.6222 260.286 71.7642C260.371 71.9034 260.479 71.9972 260.61 72.0455C260.743 72.0909 260.884 72.1136 261.032 72.1136C261.142 72.1136 261.233 72.108 261.304 72.0966C261.375 72.0824 261.432 72.071 261.475 72.0625L261.679 72.9659C261.611 72.9915 261.516 73.017 261.394 73.0426C261.272 73.071 261.117 73.0852 260.929 73.0852C260.645 73.0852 260.367 73.0241 260.094 72.902C259.824 72.7798 259.6 72.5938 259.421 72.3438C259.245 72.0938 259.157 71.7784 259.157 71.3977V64.8864ZM263.969 69.0625V73H262.963V64.2727H263.969V67.4773H264.054C264.208 67.1392 264.438 66.8707 264.745 66.6719C265.054 66.4702 265.466 66.3693 265.98 66.3693C266.426 66.3693 266.817 66.4588 267.152 66.6378C267.488 66.8139 267.748 67.0852 267.932 67.4517C268.12 67.8153 268.213 68.2784 268.213 68.8409V73H267.208V68.9091C267.208 68.3892 267.073 67.9872 266.803 67.7031C266.536 67.4162 266.165 67.2727 265.691 67.2727C265.361 67.2727 265.066 67.3423 264.804 67.4815C264.546 67.6207 264.341 67.8239 264.191 68.0909C264.043 68.358 263.969 68.6818 263.969 69.0625ZM272.548 73.1364C271.917 73.1364 271.373 72.9972 270.915 72.7188C270.461 72.4375 270.11 72.0455 269.863 71.5426C269.619 71.0369 269.496 70.4489 269.496 69.7784C269.496 69.108 269.619 68.517 269.863 68.0057C270.11 67.4915 270.454 67.0909 270.894 66.804C271.337 66.5142 271.854 66.3693 272.445 66.3693C272.786 66.3693 273.123 66.4261 273.455 66.5398C273.788 66.6534 274.09 66.8381 274.363 67.0938C274.636 67.3466 274.853 67.6818 275.015 68.0994C275.177 68.517 275.258 69.0312 275.258 69.642V70.0682H270.212V69.1989H274.235C274.235 68.8295 274.161 68.5 274.013 68.2102C273.869 67.9205 273.661 67.6918 273.391 67.5241C273.124 67.3565 272.809 67.2727 272.445 67.2727C272.045 67.2727 271.698 67.3722 271.406 67.571C271.116 67.767 270.893 68.0227 270.737 68.3381C270.58 68.6534 270.502 68.9915 270.502 69.3523V69.9318C270.502 70.4261 270.587 70.8452 270.758 71.1889C270.931 71.5298 271.171 71.7898 271.478 71.9688C271.785 72.1449 272.141 72.233 272.548 72.233C272.812 72.233 273.05 72.196 273.263 72.1222C273.479 72.0455 273.665 71.9318 273.822 71.7812C273.978 71.6278 274.099 71.4375 274.184 71.2102L275.156 71.483C275.053 71.8125 274.881 72.1023 274.64 72.3523C274.398 72.5994 274.1 72.7926 273.745 72.9318C273.39 73.0682 272.991 73.1364 272.548 73.1364ZM96.0568 89V80.2727H97.0625V83.4943H97.1477C97.2216 83.3807 97.3239 83.2358 97.4545 83.0597C97.5881 82.8807 97.7784 82.7216 98.0256 82.5824C98.2756 82.4403 98.6136 82.3693 99.0398 82.3693C99.5909 82.3693 100.077 82.5071 100.497 82.7827C100.918 83.0582 101.246 83.4489 101.482 83.9545C101.717 84.4602 101.835 85.0568 101.835 85.7443C101.835 86.4375 101.717 87.0384 101.482 87.5469C101.246 88.0526 100.919 88.4446 100.501 88.723C100.084 88.9986 99.6023 89.1364 99.0568 89.1364C98.6364 89.1364 98.2997 89.0668 98.0469 88.9276C97.794 88.7855 97.5994 88.625 97.4631 88.446C97.3267 88.2642 97.2216 88.1136 97.1477 87.9943H97.0284V89H96.0568ZM97.0455 85.7273C97.0455 86.2216 97.1179 86.6577 97.2628 87.0355C97.4077 87.4105 97.6193 87.7045 97.8977 87.9176C98.1761 88.1278 98.517 88.233 98.9205 88.233C99.3409 88.233 99.6918 88.1222 99.973 87.9006C100.257 87.6761 100.47 87.375 100.612 86.9972C100.757 86.6165 100.83 86.1932 100.83 85.7273C100.83 85.267 100.759 84.8523 100.616 84.483C100.477 84.1108 100.266 83.8168 99.9815 83.6009C99.7003 83.3821 99.3466 83.2727 98.9205 83.2727C98.5114 83.2727 98.1676 83.3764 97.8892 83.5838C97.6108 83.7884 97.4006 84.0753 97.2585 84.4446C97.1165 84.8111 97.0455 85.2386 97.0455 85.7273ZM105.05 89.1534C104.635 89.1534 104.259 89.0753 103.92 88.919C103.582 88.7599 103.314 88.5312 103.115 88.233C102.916 87.9318 102.817 87.5682 102.817 87.142C102.817 86.767 102.891 86.4631 103.038 86.2301C103.186 85.9943 103.384 85.8097 103.631 85.6761C103.878 85.5426 104.151 85.4432 104.449 85.3778C104.75 85.3097 105.053 85.2557 105.357 85.2159C105.754 85.1648 106.077 85.1264 106.324 85.1009C106.574 85.0724 106.756 85.0256 106.869 84.9602C106.986 84.8949 107.044 84.7812 107.044 84.6193V84.5852C107.044 84.1648 106.929 83.8381 106.699 83.6051C106.472 83.3722 106.126 83.2557 105.663 83.2557C105.183 83.2557 104.807 83.3608 104.534 83.571C104.261 83.7812 104.07 84.0057 103.959 84.2443L103.004 83.9034C103.175 83.5057 103.402 83.196 103.686 82.9744C103.973 82.75 104.286 82.5937 104.624 82.5057C104.964 82.4148 105.3 82.3693 105.629 82.3693C105.839 82.3693 106.081 82.3949 106.354 82.446C106.629 82.4943 106.895 82.5952 107.151 82.7486C107.409 82.902 107.624 83.1335 107.794 83.4432C107.964 83.7528 108.05 84.1676 108.05 84.6875V89H107.044V88.1136H106.993C106.925 88.2557 106.811 88.4077 106.652 88.5696C106.493 88.7315 106.281 88.8693 106.017 88.983C105.753 89.0966 105.43 89.1534 105.05 89.1534ZM105.203 88.25C105.601 88.25 105.936 88.1719 106.209 88.0156C106.484 87.8594 106.692 87.6577 106.831 87.4105C106.973 87.1634 107.044 86.9034 107.044 86.6307V85.7102C107.001 85.7614 106.908 85.8082 106.763 85.8509C106.621 85.8906 106.456 85.9261 106.268 85.9574C106.084 85.9858 105.903 86.0114 105.727 86.0341C105.554 86.054 105.413 86.071 105.305 86.0852C105.044 86.1193 104.8 86.1747 104.572 86.2514C104.348 86.3253 104.166 86.4375 104.027 86.5881C103.891 86.7358 103.822 86.9375 103.822 87.1932C103.822 87.5426 103.952 87.8068 104.21 87.9858C104.472 88.1619 104.803 88.25 105.203 88.25ZM112.294 89.1364C111.681 89.1364 111.152 88.9915 110.709 88.7017C110.266 88.4119 109.925 88.0128 109.686 87.5043C109.448 86.9957 109.328 86.4148 109.328 85.7614C109.328 85.0966 109.451 84.5099 109.695 84.0014C109.942 83.4901 110.286 83.0909 110.726 82.804C111.169 82.5142 111.686 82.3693 112.277 82.3693C112.738 82.3693 113.152 82.4545 113.522 82.625C113.891 82.7955 114.194 83.0341 114.429 83.3409C114.665 83.6477 114.811 84.0057 114.868 84.4148H113.863C113.786 84.1165 113.615 83.8523 113.351 83.6222C113.09 83.3892 112.738 83.2727 112.294 83.2727C111.902 83.2727 111.559 83.375 111.263 83.5795C110.971 83.7812 110.742 84.0668 110.577 84.4361C110.415 84.8026 110.334 85.233 110.334 85.7273C110.334 86.233 110.414 86.6733 110.573 87.0483C110.735 87.4233 110.962 87.7145 111.255 87.9219C111.55 88.1293 111.897 88.233 112.294 88.233C112.556 88.233 112.793 88.1875 113.006 88.0966C113.219 88.0057 113.4 87.875 113.547 87.7045C113.695 87.5341 113.8 87.3295 113.863 87.0909H114.868C114.811 87.4773 114.671 87.8253 114.446 88.1349C114.225 88.4418 113.931 88.6861 113.564 88.8679C113.201 89.0469 112.777 89.1364 112.294 89.1364ZM117.026 86.6136L117.009 85.3693H117.213L120.077 82.4545H121.321L118.27 85.5398H118.185L117.026 86.6136ZM116.088 89V80.2727H117.094V89H116.088ZM120.248 89L117.691 85.7614L118.407 85.0625L121.526 89H120.248ZM128.15 89.1364C127.559 89.1364 127.04 88.9957 126.594 88.7145C126.151 88.4332 125.805 88.0398 125.555 87.5341C125.308 87.0284 125.184 86.4375 125.184 85.7614C125.184 85.0795 125.308 84.4844 125.555 83.9759C125.805 83.4673 126.151 83.0724 126.594 82.7912C127.04 82.5099 127.559 82.3693 128.15 82.3693C128.741 82.3693 129.258 82.5099 129.701 82.7912C130.147 83.0724 130.494 83.4673 130.741 83.9759C130.991 84.4844 131.116 85.0795 131.116 85.7614C131.116 86.4375 130.991 87.0284 130.741 87.5341C130.494 88.0398 130.147 88.4332 129.701 88.7145C129.258 88.9957 128.741 89.1364 128.15 89.1364ZM128.15 88.233C128.599 88.233 128.968 88.1179 129.258 87.8878C129.548 87.6577 129.762 87.3551 129.901 86.9801C130.04 86.6051 130.11 86.1989 130.11 85.7614C130.11 85.3239 130.04 84.9162 129.901 84.5384C129.762 84.1605 129.548 83.8551 129.258 83.6222C128.968 83.3892 128.599 83.2727 128.15 83.2727C127.701 83.2727 127.332 83.3892 127.042 83.6222C126.752 83.8551 126.538 84.1605 126.398 84.5384C126.259 84.9162 126.19 85.3239 126.19 85.7614C126.19 86.1989 126.259 86.6051 126.398 86.9801C126.538 87.3551 126.752 87.6577 127.042 87.8878C127.332 88.1179 127.701 88.233 128.15 88.233ZM135.316 82.4545V83.3068H131.787V82.4545H135.316ZM132.844 89V81.5511C132.844 81.1761 132.932 80.8636 133.108 80.6136C133.284 80.3636 133.513 80.1761 133.794 80.0511C134.076 79.9261 134.373 79.8636 134.685 79.8636C134.932 79.8636 135.134 79.8835 135.29 79.9233C135.446 79.9631 135.563 80 135.64 80.0341L135.35 80.9034C135.299 80.8864 135.228 80.8651 135.137 80.8395C135.049 80.8139 134.932 80.8011 134.787 80.8011C134.455 80.8011 134.215 80.8849 134.067 81.0526C133.922 81.2202 133.85 81.4659 133.85 81.7898V89H132.844ZM140.248 91.4545C140.077 91.4545 139.925 91.4403 139.792 91.4119C139.658 91.3864 139.566 91.3608 139.515 91.3352L139.771 90.4489C140.015 90.5114 140.231 90.5341 140.418 90.517C140.606 90.5 140.772 90.4162 140.917 90.2656C141.065 90.1179 141.2 89.8778 141.322 89.5455L141.509 89.0341L139.089 82.4545H140.18L141.987 87.6705H142.055L143.862 82.4545H144.952L142.174 89.9545C142.049 90.2926 141.894 90.5724 141.71 90.794C141.525 91.0185 141.31 91.1847 141.066 91.2926C140.825 91.4006 140.552 91.4545 140.248 91.4545ZM148.455 89.1364C147.864 89.1364 147.345 88.9957 146.899 88.7145C146.456 88.4332 146.109 88.0398 145.859 87.5341C145.612 87.0284 145.489 86.4375 145.489 85.7614C145.489 85.0795 145.612 84.4844 145.859 83.9759C146.109 83.4673 146.456 83.0724 146.899 82.7912C147.345 82.5099 147.864 82.3693 148.455 82.3693C149.045 82.3693 149.563 82.5099 150.006 82.7912C150.452 83.0724 150.798 83.4673 151.045 83.9759C151.295 84.4844 151.42 85.0795 151.42 85.7614C151.42 86.4375 151.295 87.0284 151.045 87.5341C150.798 88.0398 150.452 88.4332 150.006 88.7145C149.563 88.9957 149.045 89.1364 148.455 89.1364ZM148.455 88.233C148.903 88.233 149.273 88.1179 149.562 87.8878C149.852 87.6577 150.067 87.3551 150.206 86.9801C150.345 86.6051 150.415 86.1989 150.415 85.7614C150.415 85.3239 150.345 84.9162 150.206 84.5384C150.067 84.1605 149.852 83.8551 149.562 83.6222C149.273 83.3892 148.903 83.2727 148.455 83.2727C148.006 83.2727 147.636 83.3892 147.347 83.6222C147.057 83.8551 146.842 84.1605 146.703 84.5384C146.564 84.9162 146.494 85.3239 146.494 85.7614C146.494 86.1989 146.564 86.6051 146.703 86.9801C146.842 87.3551 147.057 87.6577 147.347 87.8878C147.636 88.1179 148.006 88.233 148.455 88.233ZM156.831 86.3239V82.4545H157.836V89H156.831V87.892H156.762C156.609 88.2244 156.37 88.5071 156.047 88.7401C155.723 88.9702 155.314 89.0852 154.819 89.0852C154.41 89.0852 154.047 88.9957 153.728 88.8168C153.41 88.6349 153.16 88.3622 152.978 87.9986C152.797 87.6321 152.706 87.1705 152.706 86.6136V82.4545H153.711V86.5455C153.711 87.0227 153.845 87.4034 154.112 87.6875C154.382 87.9716 154.725 88.1136 155.143 88.1136C155.393 88.1136 155.647 88.0497 155.906 87.9219C156.167 87.794 156.386 87.598 156.562 87.3338C156.741 87.0696 156.831 86.733 156.831 86.3239ZM159.428 89V82.4545H160.4V83.4432H160.468C160.587 83.1193 160.803 82.8565 161.116 82.6548C161.428 82.4531 161.781 82.3523 162.173 82.3523C162.246 82.3523 162.339 82.3537 162.45 82.3565C162.56 82.3594 162.644 82.3636 162.701 82.3693V83.392C162.667 83.3835 162.589 83.3707 162.467 83.3537C162.347 83.3338 162.221 83.3239 162.087 83.3239C161.769 83.3239 161.485 83.3906 161.235 83.5241C160.988 83.6548 160.792 83.8366 160.647 84.0696C160.505 84.2997 160.434 84.5625 160.434 84.858V89H159.428ZM169.427 89.1364C168.814 89.1364 168.285 88.9915 167.842 88.7017C167.399 88.4119 167.058 88.0128 166.819 87.5043C166.581 86.9957 166.461 86.4148 166.461 85.7614C166.461 85.0966 166.583 84.5099 166.828 84.0014C167.075 83.4901 167.419 83.0909 167.859 82.804C168.302 82.5142 168.819 82.3693 169.41 82.3693C169.87 82.3693 170.285 82.4545 170.654 82.625C171.024 82.7955 171.326 83.0341 171.562 83.3409C171.798 83.6477 171.944 84.0057 172.001 84.4148H170.995C170.919 84.1165 170.748 83.8523 170.484 83.6222C170.223 83.3892 169.87 83.2727 169.427 83.2727C169.035 83.2727 168.691 83.375 168.396 83.5795C168.103 83.7812 167.875 84.0668 167.71 84.4361C167.548 84.8026 167.467 85.233 167.467 85.7273C167.467 86.233 167.547 86.6733 167.706 87.0483C167.868 87.4233 168.095 87.7145 168.387 87.9219C168.683 88.1293 169.029 88.233 169.427 88.233C169.689 88.233 169.926 88.1875 170.139 88.0966C170.352 88.0057 170.532 87.875 170.68 87.7045C170.828 87.5341 170.933 87.3295 170.995 87.0909H172.001C171.944 87.4773 171.804 87.8253 171.579 88.1349C171.358 88.4418 171.064 88.6861 170.697 88.8679C170.333 89.0469 169.91 89.1364 169.427 89.1364ZM175.147 89.1534C174.733 89.1534 174.356 89.0753 174.018 88.919C173.68 88.7599 173.412 88.5312 173.213 88.233C173.014 87.9318 172.914 87.5682 172.914 87.142C172.914 86.767 172.988 86.4631 173.136 86.2301C173.284 85.9943 173.481 85.8097 173.728 85.6761C173.975 85.5426 174.248 85.4432 174.547 85.3778C174.848 85.3097 175.15 85.2557 175.454 85.2159C175.852 85.1648 176.174 85.1264 176.422 85.1009C176.672 85.0724 176.853 85.0256 176.967 84.9602C177.083 84.8949 177.142 84.7812 177.142 84.6193V84.5852C177.142 84.1648 177.027 83.8381 176.797 83.6051C176.569 83.3722 176.224 83.2557 175.761 83.2557C175.281 83.2557 174.904 83.3608 174.632 83.571C174.359 83.7812 174.167 84.0057 174.056 84.2443L173.102 83.9034C173.272 83.5057 173.5 83.196 173.784 82.9744C174.071 82.75 174.383 82.5937 174.721 82.5057C175.062 82.4148 175.397 82.3693 175.727 82.3693C175.937 82.3693 176.179 82.3949 176.451 82.446C176.727 82.4943 176.993 82.5952 177.248 82.7486C177.507 82.902 177.721 83.1335 177.892 83.4432C178.062 83.7528 178.147 84.1676 178.147 84.6875V89H177.142V88.1136H177.091C177.022 88.2557 176.909 88.4077 176.75 88.5696C176.591 88.7315 176.379 88.8693 176.115 88.983C175.85 89.0966 175.528 89.1534 175.147 89.1534ZM175.301 88.25C175.699 88.25 176.034 88.1719 176.306 88.0156C176.582 87.8594 176.789 87.6577 176.929 87.4105C177.071 87.1634 177.142 86.9034 177.142 86.6307V85.7102C177.099 85.7614 177.005 85.8082 176.86 85.8509C176.718 85.8906 176.554 85.9261 176.366 85.9574C176.181 85.9858 176.001 86.0114 175.825 86.0341C175.652 86.054 175.511 86.071 175.403 86.0852C175.142 86.1193 174.897 86.1747 174.67 86.2514C174.446 86.3253 174.264 86.4375 174.125 86.5881C173.988 86.7358 173.92 86.9375 173.92 87.1932C173.92 87.5426 174.049 87.8068 174.308 87.9858C174.569 88.1619 174.9 88.25 175.301 88.25ZM179.733 89V82.4545H180.705V83.4432H180.773C180.892 83.1193 181.108 82.8565 181.42 82.6548C181.733 82.4531 182.085 82.3523 182.477 82.3523C182.551 82.3523 182.643 82.3537 182.754 82.3565C182.865 82.3594 182.949 82.3636 183.006 82.3693V83.392C182.972 83.3835 182.893 83.3707 182.771 83.3537C182.652 83.3338 182.526 83.3239 182.392 83.3239C182.074 83.3239 181.79 83.3906 181.54 83.5241C181.293 83.6548 181.097 83.8366 180.952 84.0696C180.81 84.2997 180.739 84.5625 180.739 84.858V89H179.733ZM186.22 89.1364C185.675 89.1364 185.193 88.9986 184.776 88.723C184.358 88.4446 184.031 88.0526 183.795 87.5469C183.56 87.0384 183.442 86.4375 183.442 85.7443C183.442 85.0568 183.56 84.4602 183.795 83.9545C184.031 83.4489 184.359 83.0582 184.78 82.7827C185.2 82.5071 185.686 82.3693 186.237 82.3693C186.663 82.3693 187 82.4403 187.247 82.5824C187.497 82.7216 187.688 82.8807 187.818 83.0597C187.952 83.2358 188.055 83.3807 188.129 83.4943H188.214V80.2727H189.22V89H188.249V87.9943H188.129C188.055 88.1136 187.95 88.2642 187.814 88.446C187.678 88.625 187.483 88.7855 187.23 88.9276C186.977 89.0668 186.641 89.1364 186.22 89.1364ZM186.357 88.233C186.76 88.233 187.101 88.1278 187.379 87.9176C187.658 87.7045 187.869 87.4105 188.014 87.0355C188.159 86.6577 188.232 86.2216 188.232 85.7273C188.232 85.2386 188.161 84.8111 188.018 84.4446C187.876 84.0753 187.666 83.7884 187.388 83.5838C187.109 83.3764 186.766 83.2727 186.357 83.2727C185.93 83.2727 185.575 83.3821 185.291 83.6009C185.01 83.8168 184.798 84.1108 184.656 84.483C184.517 84.8523 184.447 85.267 184.447 85.7273C184.447 86.1932 184.518 86.6165 184.661 86.9972C184.805 87.375 185.018 87.6761 185.3 87.9006C185.584 88.1222 185.936 88.233 186.357 88.233ZM191.685 89.0682C191.474 89.0682 191.294 88.9929 191.143 88.8423C190.993 88.6918 190.918 88.5114 190.918 88.3011C190.918 88.0909 190.993 87.9105 191.143 87.7599C191.294 87.6094 191.474 87.5341 191.685 87.5341C191.895 87.5341 192.075 87.6094 192.226 87.7599C192.376 87.9105 192.452 88.0909 192.452 88.3011C192.452 88.4403 192.416 88.5682 192.345 88.6847C192.277 88.8011 192.185 88.8949 192.068 88.9659C191.955 89.0341 191.827 89.0682 191.685 89.0682Z" fill="#FCFCFD"/>
</g>
<path d="M194.414 105.586L199 101H187L191.586 105.586C192.367 106.367 193.633 106.367 194.414 105.586Z" fill="#394150"/>
<rect x="0.5" y="0.5" width="385" height="159" rx="7.5" stroke="#4CA154" stroke-opacity="0.1"/>
<defs>
<filter id="filter0_d_591_14150" x="59" y="41" width="268" height="96" filterUnits="userSpaceOnUse" color-interpolation-filters="sRGB">
<feFlood flood-opacity="0" result="BackgroundImageFix"/>
<feColorMatrix in="SourceAlpha" type="matrix" values="0 0 0 0 0 0 0 0 0 0 0 0 0 0 0 0 0 0 127 0" result="hardAlpha"/>
<feOffset dy="12"/>
<feGaussianBlur stdDeviation="12"/>
<feComposite in2="hardAlpha" operator="out"/>
<feColorMatrix type="matrix" values="0 0 0 0 0 0 0 0 0 0 0 0 0 0 0 0 0 0 0.15 0"/>
<feBlend mode="normal" in2="BackgroundImageFix" result="effect1_dropShadow_591_14150"/>
<feBlend mode="normal" in="SourceGraphic" in2="effect1_dropShadow_591_14150" result="shape"/>
</filter>
</defs>
</svg>
