<svg width="390" height="160" viewBox="0 0 390 160" fill="none" xmlns="http://www.w3.org/2000/svg">
<rect width="390" height="160" rx="8" fill="#CA3A31" fill-opacity="0.1"/>
<path d="M41.6013 139.511L30.6701 120.528C30.3969 120.062 30.007 119.677 29.5388 119.409C29.0707 119.141 28.5407 119 28.0013 119C27.462 119 26.9319 119.141 26.4638 119.409C25.9957 119.677 25.6058 120.062 25.3326 120.528L14.4013 139.511C14.1385 139.961 14 140.473 14 140.994C14 141.515 14.1385 142.026 14.4013 142.476C14.671 142.944 15.0603 143.332 15.5293 143.6C15.9983 143.868 16.5301 144.006 17.0701 144H38.9326C39.4722 144.005 40.0035 143.867 40.472 143.599C40.9405 143.331 41.3294 142.944 41.5988 142.476C41.8621 142.027 42.001 141.515 42.0014 140.994C42.0019 140.473 41.8638 139.961 41.6013 139.511ZM27.0013 129C27.0013 128.735 27.1067 128.481 27.2942 128.293C27.4818 128.105 27.7361 128 28.0013 128C28.2666 128 28.5209 128.105 28.7084 128.293C28.896 128.481 29.0013 128.735 29.0013 129V134C29.0013 134.265 28.896 134.52 28.7084 134.707C28.5209 134.895 28.2666 135 28.0013 135C27.7361 135 27.4818 134.895 27.2942 134.707C27.1067 134.52 27.0013 134.265 27.0013 134V129ZM28.0013 140C27.7047 140 27.4147 139.912 27.168 139.747C26.9213 139.582 26.7291 139.348 26.6155 139.074C26.502 138.8 26.4723 138.498 26.5302 138.207C26.588 137.916 26.7309 137.649 26.9407 137.439C27.1505 137.23 27.4177 137.087 27.7087 137.029C27.9997 136.971 28.3013 137.001 28.5754 137.114C28.8495 137.228 29.0837 137.42 29.2485 137.667C29.4134 137.913 29.5013 138.203 29.5013 138.5C29.5013 138.898 29.3433 139.279 29.062 139.561C28.7807 139.842 28.3992 140 28.0013 140Z" fill="#CA3A31"/>
<g filter="url(#filter0_d_591_14166)">
<path d="M120 73.8C120 69.3196 120 67.0794 120.872 65.3681C121.639 63.8628 122.863 62.6389 124.368 61.8719C126.079 61 128.32 61 132.8 61H257.2C261.68 61 263.921 61 265.632 61.8719C267.137 62.6389 268.361 63.8628 269.128 65.3681C270 67.0794 270 69.3196 270 73.8V80.2C270 84.6804 270 86.9206 269.128 88.6319C268.361 90.1372 267.137 91.3611 265.632 92.1281C263.921 93 261.68 93 257.2 93H132.8C128.32 93 126.079 93 124.368 92.1281C122.863 91.3611 121.639 90.1372 120.872 88.6319C120 86.9206 120 84.6804 120 80.2V73.8Z" fill="#394150" shape-rendering="crispEdges"/>
<path d="M150.221 72.2727V81H149.164V72.2727H150.221ZM152.959 77.0625V81H151.954V74.4545H152.925V75.4773H153.01C153.164 75.1449 153.397 74.8778 153.709 74.6761C154.022 74.4716 154.425 74.3693 154.92 74.3693C155.363 74.3693 155.751 74.4602 156.083 74.642C156.415 74.821 156.674 75.0938 156.858 75.4602C157.043 75.8239 157.135 76.2841 157.135 76.8409V81H156.13V76.9091C156.13 76.3949 155.996 75.9943 155.729 75.7074C155.462 75.4176 155.096 75.2727 154.63 75.2727C154.309 75.2727 154.022 75.3423 153.769 75.4815C153.519 75.6207 153.322 75.8239 153.177 76.0909C153.032 76.358 152.959 76.6818 152.959 77.0625ZM163.841 74.4545L161.421 81H160.398L157.977 74.4545H159.068L160.875 79.6705H160.943L162.75 74.4545H163.841ZM166.645 81.1534C166.231 81.1534 165.854 81.0753 165.516 80.919C165.178 80.7599 164.91 80.5312 164.711 80.233C164.512 79.9318 164.412 79.5682 164.412 79.142C164.412 78.767 164.486 78.4631 164.634 78.2301C164.782 77.9943 164.979 77.8097 165.226 77.6761C165.474 77.5426 165.746 77.4432 166.045 77.3778C166.346 77.3097 166.648 77.2557 166.952 77.2159C167.35 77.1648 167.672 77.1264 167.92 77.1009C168.17 77.0724 168.351 77.0256 168.465 76.9602C168.581 76.8949 168.64 76.7812 168.64 76.6193V76.5852C168.64 76.1648 168.525 75.8381 168.295 75.6051C168.067 75.3722 167.722 75.2557 167.259 75.2557C166.779 75.2557 166.403 75.3608 166.13 75.571C165.857 75.7812 165.665 76.0057 165.555 76.2443L164.6 75.9034C164.77 75.5057 164.998 75.196 165.282 74.9744C165.569 74.75 165.881 74.5937 166.219 74.5057C166.56 74.4148 166.895 74.3693 167.225 74.3693C167.435 74.3693 167.677 74.3949 167.949 74.446C168.225 74.4943 168.491 74.5952 168.746 74.7486C169.005 74.902 169.219 75.1335 169.39 75.4432C169.56 75.7528 169.645 76.1676 169.645 76.6875V81H168.64V80.1136H168.589C168.52 80.2557 168.407 80.4077 168.248 80.5696C168.089 80.7315 167.877 80.8693 167.613 80.983C167.349 81.0966 167.026 81.1534 166.645 81.1534ZM166.799 80.25C167.197 80.25 167.532 80.1719 167.805 80.0156C168.08 79.8594 168.287 79.6577 168.427 79.4105C168.569 79.1634 168.64 78.9034 168.64 78.6307V77.7102C168.597 77.7614 168.503 77.8082 168.358 77.8509C168.216 77.8906 168.052 77.9261 167.864 77.9574C167.68 77.9858 167.499 78.0114 167.323 78.0341C167.15 78.054 167.009 78.071 166.901 78.0852C166.64 78.1193 166.395 78.1747 166.168 78.2514C165.944 78.3253 165.762 78.4375 165.623 78.5881C165.486 78.7358 165.418 78.9375 165.418 79.1932C165.418 79.5426 165.547 79.8068 165.806 79.9858C166.067 80.1619 166.398 80.25 166.799 80.25ZM172.237 72.2727V81H171.231V72.2727H172.237ZM173.829 81V74.4545H174.834V81H173.829ZM174.34 73.3636C174.144 73.3636 173.975 73.2969 173.833 73.1634C173.694 73.0298 173.624 72.8693 173.624 72.6818C173.624 72.4943 173.694 72.3338 173.833 72.2003C173.975 72.0668 174.144 72 174.34 72C174.536 72 174.704 72.0668 174.843 72.2003C174.985 72.3338 175.056 72.4943 175.056 72.6818C175.056 72.8693 174.985 73.0298 174.843 73.1634C174.704 73.2969 174.536 73.3636 174.34 73.3636ZM178.898 81.1364C178.352 81.1364 177.871 80.9986 177.453 80.723C177.036 80.4446 176.709 80.0526 176.473 79.5469C176.237 79.0384 176.119 78.4375 176.119 77.7443C176.119 77.0568 176.237 76.4602 176.473 75.9545C176.709 75.4489 177.037 75.0582 177.458 74.7827C177.878 74.5071 178.364 74.3693 178.915 74.3693C179.341 74.3693 179.678 74.4403 179.925 74.5824C180.175 74.7216 180.365 74.8807 180.496 75.0597C180.629 75.2358 180.733 75.3807 180.807 75.4943H180.892V72.2727H181.898V81H180.926V79.9943H180.807C180.733 80.1136 180.628 80.2642 180.492 80.446C180.355 80.625 180.161 80.7855 179.908 80.9276C179.655 81.0668 179.318 81.1364 178.898 81.1364ZM179.034 80.233C179.438 80.233 179.779 80.1278 180.057 79.9176C180.335 79.7045 180.547 79.4105 180.692 79.0355C180.837 78.6577 180.909 78.2216 180.909 77.7273C180.909 77.2386 180.838 76.8111 180.696 76.4446C180.554 76.0753 180.344 75.7884 180.066 75.5838C179.787 75.3764 179.443 75.2727 179.034 75.2727C178.608 75.2727 178.253 75.3821 177.969 75.6009C177.688 75.8168 177.476 76.1108 177.334 76.483C177.195 76.8523 177.125 77.267 177.125 77.7273C177.125 78.1932 177.196 78.6165 177.338 78.9972C177.483 79.375 177.696 79.6761 177.977 79.9006C178.262 80.1222 178.614 80.233 179.034 80.233ZM192.618 72.2727H193.675V78.0511C193.675 78.6477 193.534 79.1804 193.253 79.6491C192.975 80.1151 192.581 80.483 192.073 80.7528C191.564 81.0199 190.968 81.1534 190.283 81.1534C189.598 81.1534 189.002 81.0199 188.493 80.7528C187.985 80.483 187.59 80.1151 187.308 79.6491C187.03 79.1804 186.891 78.6477 186.891 78.0511V72.2727H187.948V77.9659C187.948 78.392 188.041 78.7713 188.229 79.1037C188.416 79.4332 188.683 79.6932 189.03 79.8835C189.379 80.071 189.797 80.1648 190.283 80.1648C190.769 80.1648 191.186 80.071 191.536 79.8835C191.885 79.6932 192.152 79.4332 192.337 79.1037C192.524 78.7713 192.618 78.392 192.618 77.9659V72.2727ZM200.035 75.9205L199.132 76.1761C199.075 76.0256 198.991 75.8793 198.881 75.7372C198.773 75.5923 198.625 75.473 198.437 75.3793C198.25 75.2855 198.01 75.2386 197.717 75.2386C197.317 75.2386 196.983 75.331 196.716 75.5156C196.452 75.6974 196.319 75.929 196.319 76.2102C196.319 76.4602 196.41 76.6577 196.592 76.8026C196.774 76.9474 197.058 77.0682 197.444 77.1648L198.416 77.4034C199.001 77.5455 199.437 77.7628 199.724 78.0554C200.011 78.3452 200.155 78.7187 200.155 79.1761C200.155 79.5511 200.047 79.8864 199.831 80.1818C199.618 80.4773 199.319 80.7102 198.936 80.8807C198.552 81.0511 198.106 81.1364 197.598 81.1364C196.93 81.1364 196.378 80.9915 195.94 80.7017C195.503 80.4119 195.226 79.9886 195.109 79.4318L196.064 79.1932C196.155 79.5455 196.327 79.8097 196.579 79.9858C196.835 80.1619 197.169 80.25 197.581 80.25C198.05 80.25 198.422 80.1506 198.697 79.9517C198.976 79.75 199.115 79.5085 199.115 79.2273C199.115 79 199.035 78.8097 198.876 78.6562C198.717 78.5 198.473 78.3835 198.143 78.3068L197.052 78.0511C196.453 77.9091 196.013 77.6889 195.731 77.3906C195.453 77.0895 195.314 76.7131 195.314 76.2614C195.314 75.892 195.417 75.5653 195.625 75.2812C195.835 74.9972 196.121 74.7741 196.481 74.6122C196.845 74.4503 197.257 74.3693 197.717 74.3693C198.365 74.3693 198.873 74.5114 199.243 74.7955C199.615 75.0795 199.879 75.4545 200.035 75.9205ZM204.163 81.1364C203.532 81.1364 202.988 80.9972 202.531 80.7188C202.076 80.4375 201.725 80.0455 201.478 79.5426C201.234 79.0369 201.112 78.4489 201.112 77.7784C201.112 77.108 201.234 76.517 201.478 76.0057C201.725 75.4915 202.069 75.0909 202.509 74.804C202.953 74.5142 203.47 74.3693 204.061 74.3693C204.401 74.3693 204.738 74.4261 205.07 74.5398C205.403 74.6534 205.705 74.8381 205.978 75.0938C206.251 75.3466 206.468 75.6818 206.63 76.0994C206.792 76.517 206.873 77.0312 206.873 77.642V78.0682H201.828V77.1989H205.85C205.85 76.8295 205.776 76.5 205.629 76.2102C205.484 75.9205 205.276 75.6918 205.007 75.5241C204.74 75.3565 204.424 75.2727 204.061 75.2727C203.66 75.2727 203.313 75.3722 203.021 75.571C202.731 75.767 202.508 76.0227 202.352 76.3381C202.195 76.6534 202.117 76.9915 202.117 77.3523V77.9318C202.117 78.4261 202.203 78.8452 202.373 79.1889C202.546 79.5298 202.786 79.7898 203.093 79.9688C203.4 80.1449 203.757 80.233 204.163 80.233C204.427 80.233 204.666 80.196 204.879 80.1222C205.095 80.0455 205.281 79.9318 205.437 79.7812C205.593 79.6278 205.714 79.4375 205.799 79.2102L206.771 79.483C206.669 79.8125 206.497 80.1023 206.255 80.3523C206.014 80.5994 205.715 80.7926 205.36 80.9318C205.005 81.0682 204.606 81.1364 204.163 81.1364ZM208.153 81V74.4545H209.124V75.4432H209.193C209.312 75.1193 209.528 74.8565 209.84 74.6548C210.153 74.4531 210.505 74.3523 210.897 74.3523C210.971 74.3523 211.063 74.3537 211.174 74.3565C211.285 74.3594 211.369 74.3636 211.426 74.3693V75.392C211.392 75.3835 211.313 75.3707 211.191 75.3537C211.072 75.3338 210.945 75.3239 210.812 75.3239C210.494 75.3239 210.21 75.3906 209.96 75.5241C209.713 75.6548 209.517 75.8366 209.372 76.0696C209.23 76.2997 209.159 76.5625 209.159 76.858V81H208.153ZM213.373 77.0625V81H212.368V74.4545H213.339V75.4773H213.425C213.578 75.1449 213.811 74.8778 214.123 74.6761C214.436 74.4716 214.839 74.3693 215.334 74.3693C215.777 74.3693 216.165 74.4602 216.497 74.642C216.829 74.821 217.088 75.0938 217.273 75.4602C217.457 75.8239 217.55 76.2841 217.55 76.8409V81H216.544V76.9091C216.544 76.3949 216.41 75.9943 216.143 75.7074C215.876 75.4176 215.51 75.2727 215.044 75.2727C214.723 75.2727 214.436 75.3423 214.183 75.4815C213.933 75.6207 213.736 75.8239 213.591 76.0909C213.446 76.358 213.373 76.6818 213.373 77.0625ZM221.063 81.1534C220.649 81.1534 220.272 81.0753 219.934 80.919C219.596 80.7599 219.328 80.5312 219.129 80.233C218.93 79.9318 218.83 79.5682 218.83 79.142C218.83 78.767 218.904 78.4631 219.052 78.2301C219.2 77.9943 219.397 77.8097 219.644 77.6761C219.892 77.5426 220.164 77.4432 220.463 77.3778C220.764 77.3097 221.066 77.2557 221.37 77.2159C221.768 77.1648 222.09 77.1264 222.338 77.1009C222.588 77.0724 222.769 77.0256 222.883 76.9602C222.999 76.8949 223.058 76.7812 223.058 76.6193V76.5852C223.058 76.1648 222.943 75.8381 222.713 75.6051C222.485 75.3722 222.14 75.2557 221.677 75.2557C221.197 75.2557 220.82 75.3608 220.548 75.571C220.275 75.7812 220.083 76.0057 219.972 76.2443L219.018 75.9034C219.188 75.5057 219.416 75.196 219.7 74.9744C219.987 74.75 220.299 74.5937 220.637 74.5057C220.978 74.4148 221.313 74.3693 221.643 74.3693C221.853 74.3693 222.095 74.3949 222.367 74.446C222.643 74.4943 222.909 74.5952 223.164 74.7486C223.423 74.902 223.637 75.1335 223.808 75.4432C223.978 75.7528 224.063 76.1676 224.063 76.6875V81H223.058V80.1136H223.007C222.938 80.2557 222.825 80.4077 222.666 80.5696C222.507 80.7315 222.295 80.8693 222.031 80.983C221.767 81.0966 221.444 81.1534 221.063 81.1534ZM221.217 80.25C221.615 80.25 221.95 80.1719 222.222 80.0156C222.498 79.8594 222.705 79.6577 222.845 79.4105C222.987 79.1634 223.058 78.9034 223.058 78.6307V77.7102C223.015 77.7614 222.921 77.8082 222.776 77.8509C222.634 77.8906 222.47 77.9261 222.282 77.9574C222.097 77.9858 221.917 78.0114 221.741 78.0341C221.568 78.054 221.427 78.071 221.319 78.0852C221.058 78.1193 220.813 78.1747 220.586 78.2514C220.362 78.3253 220.18 78.4375 220.041 78.5881C219.904 78.7358 219.836 78.9375 219.836 79.1932C219.836 79.5426 219.965 79.8068 220.224 79.9858C220.485 80.1619 220.816 80.25 221.217 80.25ZM225.649 81V74.4545H226.621V75.4773H226.706C226.842 75.1278 227.062 74.8565 227.366 74.6634C227.67 74.4673 228.035 74.3693 228.461 74.3693C228.893 74.3693 229.253 74.4673 229.54 74.6634C229.829 74.8565 230.055 75.1278 230.217 75.4773H230.285C230.453 75.1392 230.704 74.8707 231.04 74.6719C231.375 74.4702 231.777 74.3693 232.246 74.3693C232.831 74.3693 233.309 74.5526 233.682 74.919C234.054 75.2827 234.24 75.8494 234.24 76.6193V81H233.234V76.6193C233.234 76.1364 233.102 75.7912 232.838 75.5838C232.574 75.3764 232.263 75.2727 231.905 75.2727C231.444 75.2727 231.088 75.4119 230.835 75.6903C230.582 75.9659 230.456 76.3153 230.456 76.7386V81H229.433V76.517C229.433 76.1449 229.312 75.8452 229.071 75.6179C228.829 75.3878 228.518 75.2727 228.138 75.2727C227.876 75.2727 227.632 75.3423 227.405 75.4815C227.18 75.6207 226.998 75.8139 226.859 76.0611C226.723 76.3054 226.655 76.5881 226.655 76.9091V81H225.649ZM238.573 81.1364C237.942 81.1364 237.398 80.9972 236.941 80.7188C236.486 80.4375 236.135 80.0455 235.888 79.5426C235.644 79.0369 235.522 78.4489 235.522 77.7784C235.522 77.108 235.644 76.517 235.888 76.0057C236.135 75.4915 236.479 75.0909 236.92 74.804C237.363 74.5142 237.88 74.3693 238.471 74.3693C238.812 74.3693 239.148 74.4261 239.481 74.5398C239.813 74.6534 240.116 74.8381 240.388 75.0938C240.661 75.3466 240.878 75.6818 241.04 76.0994C241.202 76.517 241.283 77.0312 241.283 77.642V78.0682H236.238V77.1989H240.26C240.26 76.8295 240.187 76.5 240.039 76.2102C239.894 75.9205 239.687 75.6918 239.417 75.5241C239.15 75.3565 238.834 75.2727 238.471 75.2727C238.07 75.2727 237.724 75.3722 237.431 75.571C237.141 75.767 236.918 76.0227 236.762 76.3381C236.606 76.6534 236.528 76.9915 236.528 77.3523V77.9318C236.528 78.4261 236.613 78.8452 236.783 79.1889C236.956 79.5298 237.197 79.7898 237.503 79.9688C237.81 80.1449 238.167 80.233 238.573 80.233C238.837 80.233 239.076 80.196 239.289 80.1222C239.505 80.0455 239.691 79.9318 239.847 79.7812C240.003 79.6278 240.124 79.4375 240.209 79.2102L241.181 79.483C241.079 79.8125 240.907 80.1023 240.665 80.3523C240.424 80.5994 240.126 80.7926 239.77 80.9318C239.415 81.0682 239.016 81.1364 238.573 81.1364Z" fill="#FCFCFD"/>
</g>
<path d="M196.414 97.5858L201 93H189L193.586 97.5858C194.367 98.3668 195.633 98.3668 196.414 97.5858Z" fill="#394150"/>
<rect x="0.5" y="0.5" width="389" height="159" rx="7.5" stroke="#CA3A31" stroke-opacity="0.1"/>
<defs>
<filter id="filter0_d_591_14166" x="96" y="49" width="198" height="80" filterUnits="userSpaceOnUse" color-interpolation-filters="sRGB">
<feFlood flood-opacity="0" result="BackgroundImageFix"/>
<feColorMatrix in="SourceAlpha" type="matrix" values="0 0 0 0 0 0 0 0 0 0 0 0 0 0 0 0 0 0 127 0" result="hardAlpha"/>
<feOffset dy="12"/>
<feGaussianBlur stdDeviation="12"/>
<feComposite in2="hardAlpha" operator="out"/>
<feColorMatrix type="matrix" values="0 0 0 0 0 0 0 0 0 0 0 0 0 0 0 0 0 0 0.15 0"/>
<feBlend mode="normal" in2="BackgroundImageFix" result="effect1_dropShadow_591_14166"/>
<feBlend mode="normal" in="SourceGraphic" in2="effect1_dropShadow_591_14166" result="shape"/>
</filter>
</defs>
</svg>
