<svg width="804" height="200" viewBox="0 0 804 200" fill="none" xmlns="http://www.w3.org/2000/svg">
<rect width="804" height="200" fill="#F9FAFB"/>
<g clip-path="url(#clip0_380_26300)">
<rect x="259" y="70.293" width="48" height="1" fill="#C54600"/>
<g clip-path="url(#clip1_380_26300)">
<rect x="259" y="58.293" width="24" height="24" rx="12" fill="#C54600"/>
<path d="M272.183 65.5657V74.293H271.126V66.6737H271.075L268.944 68.0884V67.0146L271.126 65.5657H272.183Z" fill="white"/>
</g>
</g>
<g clip-path="url(#clip2_380_26300)">
<rect x="496" y="70" width="49.7092" height="1" fill="#C54600"/>
<g clip-path="url(#clip3_380_26300)">
<rect x="521.711" y="58" width="24" height="24" rx="12" fill="#C54600"/>
<path d="M530.982 74V73.233L533.862 70.0795C534.2 69.7102 534.479 69.3892 534.697 69.1165C534.916 68.8409 535.078 68.5824 535.183 68.3409C535.291 68.0966 535.345 67.8409 535.345 67.5739C535.345 67.267 535.271 67.0014 535.124 66.777C534.979 66.5526 534.78 66.3793 534.527 66.2571C534.274 66.1349 533.99 66.0739 533.675 66.0739C533.339 66.0739 533.047 66.1435 532.797 66.2827C532.55 66.419 532.358 66.6108 532.222 66.858C532.088 67.1051 532.021 67.3949 532.021 67.7273H531.016C531.016 67.2159 531.134 66.767 531.369 66.3807C531.605 65.9943 531.926 65.6932 532.332 65.4773C532.741 65.2614 533.2 65.1534 533.709 65.1534C534.22 65.1534 534.673 65.2614 535.068 65.4773C535.463 65.6932 535.773 65.9844 535.997 66.3509C536.222 66.7173 536.334 67.125 536.334 67.5739C536.334 67.8949 536.276 68.2088 536.159 68.5156C536.045 68.8196 535.847 69.1591 535.562 69.5341C535.281 69.9062 534.891 70.3608 534.391 70.8977L532.43 72.9943V73.0625H536.487V74H530.982Z" fill="white"/>
</g>
</g>
<g clip-path="url(#clip4_380_26300)">
<rect x="323" y="93.293" width="1" height="48" fill="#C54600"/>
<g clip-path="url(#clip5_380_26300)">
<rect x="311" y="117.293" width="24" height="24" rx="12" fill="#C54600"/>
<path d="M323.032 133.412C322.469 133.412 321.968 133.316 321.528 133.123C321.09 132.929 320.742 132.661 320.484 132.317C320.228 131.971 320.089 131.569 320.066 131.111H321.14C321.163 131.392 321.259 131.635 321.43 131.84C321.6 132.042 321.823 132.198 322.099 132.309C322.374 132.419 322.68 132.475 323.015 132.475C323.39 132.475 323.722 132.409 324.012 132.279C324.302 132.148 324.529 131.966 324.694 131.733C324.859 131.5 324.941 131.23 324.941 130.924C324.941 130.603 324.862 130.32 324.702 130.076C324.543 129.828 324.31 129.635 324.004 129.496C323.697 129.357 323.322 129.287 322.879 129.287H322.18V128.35H322.879C323.225 128.35 323.529 128.287 323.79 128.162C324.055 128.037 324.261 127.861 324.408 127.634C324.559 127.407 324.634 127.14 324.634 126.833C324.634 126.537 324.569 126.28 324.438 126.061C324.308 125.843 324.123 125.672 323.884 125.55C323.648 125.428 323.37 125.367 323.049 125.367C322.748 125.367 322.464 125.422 322.197 125.533C321.933 125.641 321.717 125.799 321.549 126.006C321.381 126.211 321.29 126.458 321.276 126.748H320.254C320.271 126.29 320.408 125.89 320.667 125.546C320.925 125.199 321.263 124.929 321.681 124.736C322.102 124.543 322.563 124.446 323.066 124.446C323.606 124.446 324.069 124.556 324.455 124.775C324.842 124.99 325.138 125.276 325.346 125.631C325.553 125.986 325.657 126.37 325.657 126.782C325.657 127.273 325.528 127.692 325.269 128.039C325.013 128.385 324.665 128.625 324.225 128.759V128.827C324.776 128.918 325.207 129.152 325.516 129.53C325.826 129.905 325.981 130.37 325.981 130.924C325.981 131.398 325.852 131.824 325.593 132.202C325.337 132.577 324.988 132.873 324.545 133.088C324.102 133.304 323.597 133.412 323.032 133.412Z" fill="white"/>
</g>
</g>
<g clip-path="url(#clip6_380_26300)">
<rect x="400" y="95" width="1" height="48" fill="#C54600"/>
<g clip-path="url(#clip7_380_26300)">
<rect x="388" y="119" width="24" height="24" rx="12" fill="#C54600"/>
<path d="M396.849 133.21V132.341L400.684 126.273H401.315V127.619H400.889L397.991 132.205V132.273H403.156V133.21H396.849ZM400.957 135V132.946V132.541V126.273H401.963V135H400.957Z" fill="white"/>
</g>
</g>
<g clip-path="url(#clip8_380_26300)">
<path d="M307.528 66.4062V65.2727H314.283V66.4062H311.56V74H310.247V66.4062H307.528ZM316.687 74.1449C316.272 74.1449 315.897 74.0682 315.562 73.9148C315.227 73.7585 314.961 73.5327 314.765 73.2372C314.572 72.9418 314.475 72.5795 314.475 72.1506C314.475 71.7812 314.547 71.4773 314.689 71.2386C314.831 71 315.022 70.8111 315.264 70.6719C315.505 70.5327 315.775 70.4276 316.074 70.3565C316.372 70.2855 316.676 70.2315 316.985 70.1946C317.377 70.1491 317.696 70.1122 317.94 70.0838C318.184 70.0526 318.362 70.0028 318.473 69.9347C318.583 69.8665 318.639 69.7557 318.639 69.6023V69.5724C318.639 69.2003 318.534 68.9119 318.324 68.7074C318.116 68.5028 317.806 68.4006 317.395 68.4006C316.966 68.4006 316.627 68.4957 316.38 68.6861C316.136 68.8736 315.967 69.0824 315.873 69.3125L314.676 69.0398C314.818 68.642 315.025 68.321 315.298 68.0767C315.574 67.8295 315.89 67.6506 316.248 67.5398C316.606 67.4261 316.983 67.3693 317.377 67.3693C317.639 67.3693 317.916 67.4006 318.208 67.4631C318.504 67.5227 318.779 67.6335 319.035 67.7955C319.294 67.9574 319.505 68.1889 319.67 68.4901C319.835 68.7884 319.917 69.1761 319.917 69.6534V74H318.673V73.1051H318.622C318.539 73.2699 318.416 73.4318 318.251 73.5909C318.086 73.75 317.875 73.8821 317.616 73.9872C317.358 74.0923 317.048 74.1449 316.687 74.1449ZM316.964 73.1222C317.316 73.1222 317.618 73.0526 317.868 72.9134C318.12 72.7741 318.312 72.5923 318.443 72.3679C318.576 72.1406 318.643 71.8977 318.643 71.6392V70.7955C318.598 70.8409 318.51 70.8835 318.379 70.9233C318.251 70.9602 318.105 70.9929 317.94 71.0213C317.775 71.0469 317.615 71.071 317.458 71.0938C317.302 71.1136 317.172 71.1307 317.066 71.1449C316.819 71.1761 316.593 71.2287 316.389 71.3026C316.187 71.3764 316.025 71.483 315.903 71.6222C315.784 71.7585 315.724 71.9403 315.724 72.1676C315.724 72.483 315.841 72.7216 316.074 72.8835C316.306 73.0426 316.603 73.1222 316.964 73.1222ZM321.717 74V65.2727H322.991V68.5156H323.067C323.141 68.3793 323.248 68.2216 323.387 68.0426C323.526 67.8636 323.719 67.7074 323.967 67.5739C324.214 67.4375 324.54 67.3693 324.947 67.3693C325.475 67.3693 325.947 67.5028 326.362 67.7699C326.776 68.0369 327.102 68.4219 327.337 68.9247C327.576 69.4276 327.695 70.0327 327.695 70.7401C327.695 71.4474 327.577 72.054 327.342 72.5597C327.106 73.0625 326.782 73.4503 326.37 73.723C325.958 73.9929 325.488 74.1278 324.96 74.1278C324.562 74.1278 324.237 74.0611 323.984 73.9276C323.734 73.794 323.538 73.6378 323.396 73.4588C323.254 73.2798 323.144 73.1207 323.067 72.9815H322.961V74H321.717ZM322.965 70.7273C322.965 71.1875 323.032 71.5909 323.165 71.9375C323.299 72.2841 323.492 72.5554 323.745 72.7514C323.998 72.9446 324.308 73.0412 324.674 73.0412C325.055 73.0412 325.373 72.9403 325.629 72.7386C325.884 72.5341 326.077 72.2571 326.208 71.9077C326.342 71.5582 326.408 71.1648 326.408 70.7273C326.408 70.2955 326.343 69.9077 326.212 69.5639C326.085 69.2202 325.891 68.9489 325.633 68.75C325.377 68.5511 325.058 68.4517 324.674 68.4517C324.305 68.4517 323.992 68.5469 323.737 68.7372C323.484 68.9276 323.292 69.1932 323.161 69.5341C323.031 69.875 322.965 70.2727 322.965 70.7273ZM335.596 65.2727V74H334.275V66.5938H334.224L332.136 67.9574V66.696L334.313 65.2727H335.596Z" fill="#217CF5"/>
<path fill-rule="evenodd" clip-rule="evenodd" d="M307 93H338V93C338 91.8954 337.105 91 336 91H309C307.895 91 307 91.8954 307 93V93Z" fill="#217CF5"/>
</g>
<g clip-path="url(#clip9_380_26300)">
<path d="M358.528 66.4062V65.2727H365.283V66.4062H362.56V74H361.247V66.4062H358.528ZM367.687 74.1449C367.272 74.1449 366.897 74.0682 366.562 73.9148C366.227 73.7585 365.961 73.5327 365.765 73.2372C365.572 72.9418 365.475 72.5795 365.475 72.1506C365.475 71.7812 365.547 71.4773 365.689 71.2386C365.831 71 366.022 70.8111 366.264 70.6719C366.505 70.5327 366.775 70.4276 367.074 70.3565C367.372 70.2855 367.676 70.2315 367.985 70.1946C368.377 70.1491 368.696 70.1122 368.94 70.0838C369.184 70.0526 369.362 70.0028 369.473 69.9347C369.583 69.8665 369.639 69.7557 369.639 69.6023V69.5724C369.639 69.2003 369.534 68.9119 369.324 68.7074C369.116 68.5028 368.806 68.4006 368.395 68.4006C367.966 68.4006 367.627 68.4957 367.38 68.6861C367.136 68.8736 366.967 69.0824 366.873 69.3125L365.676 69.0398C365.818 68.642 366.025 68.321 366.298 68.0767C366.574 67.8295 366.89 67.6506 367.248 67.5398C367.606 67.4261 367.983 67.3693 368.377 67.3693C368.639 67.3693 368.916 67.4006 369.208 67.4631C369.504 67.5227 369.779 67.6335 370.035 67.7955C370.294 67.9574 370.505 68.1889 370.67 68.4901C370.835 68.7884 370.917 69.1761 370.917 69.6534V74H369.673V73.1051H369.622C369.539 73.2699 369.416 73.4318 369.251 73.5909C369.086 73.75 368.875 73.8821 368.616 73.9872C368.358 74.0923 368.048 74.1449 367.687 74.1449ZM367.964 73.1222C368.316 73.1222 368.618 73.0526 368.868 72.9134C369.12 72.7741 369.312 72.5923 369.443 72.3679C369.576 72.1406 369.643 71.8977 369.643 71.6392V70.7955C369.598 70.8409 369.51 70.8835 369.379 70.9233C369.251 70.9602 369.105 70.9929 368.94 71.0213C368.775 71.0469 368.615 71.071 368.458 71.0938C368.302 71.1136 368.172 71.1307 368.066 71.1449C367.819 71.1761 367.593 71.2287 367.389 71.3026C367.187 71.3764 367.025 71.483 366.903 71.6222C366.784 71.7585 366.724 71.9403 366.724 72.1676C366.724 72.483 366.841 72.7216 367.074 72.8835C367.306 73.0426 367.603 73.1222 367.964 73.1222ZM372.717 74V65.2727H373.991V68.5156H374.067C374.141 68.3793 374.248 68.2216 374.387 68.0426C374.526 67.8636 374.719 67.7074 374.967 67.5739C375.214 67.4375 375.54 67.3693 375.947 67.3693C376.475 67.3693 376.947 67.5028 377.362 67.7699C377.776 68.0369 378.102 68.4219 378.337 68.9247C378.576 69.4276 378.695 70.0327 378.695 70.7401C378.695 71.4474 378.577 72.054 378.342 72.5597C378.106 73.0625 377.782 73.4503 377.37 73.723C376.958 73.9929 376.488 74.1278 375.96 74.1278C375.562 74.1278 375.237 74.0611 374.984 73.9276C374.734 73.794 374.538 73.6378 374.396 73.4588C374.254 73.2798 374.144 73.1207 374.067 72.9815H373.961V74H372.717ZM373.965 70.7273C373.965 71.1875 374.032 71.5909 374.165 71.9375C374.299 72.2841 374.492 72.5554 374.745 72.7514C374.998 72.9446 375.308 73.0412 375.674 73.0412C376.055 73.0412 376.373 72.9403 376.629 72.7386C376.884 72.5341 377.077 72.2571 377.208 71.9077C377.342 71.5582 377.408 71.1648 377.408 70.7273C377.408 70.2955 377.343 69.9077 377.212 69.5639C377.085 69.2202 376.891 68.9489 376.633 68.75C376.377 68.5511 376.058 68.4517 375.674 68.4517C375.305 68.4517 374.992 68.5469 374.737 68.7372C374.484 68.9276 374.292 69.1932 374.161 69.5341C374.031 69.875 373.965 70.2727 373.965 70.7273ZM383.285 74V73.0455L386.238 69.9858C386.553 69.6534 386.813 69.3622 387.018 69.1122C387.225 68.8594 387.38 68.6193 387.482 68.392C387.585 68.1648 387.636 67.9233 387.636 67.6676C387.636 67.3778 387.567 67.1278 387.431 66.9176C387.295 66.7045 387.109 66.5412 386.873 66.4276C386.637 66.3111 386.371 66.2528 386.076 66.2528C385.763 66.2528 385.491 66.3168 385.258 66.4446C385.025 66.5724 384.846 66.7528 384.721 66.9858C384.596 67.2187 384.533 67.4915 384.533 67.804H383.276C383.276 67.2727 383.398 66.8082 383.643 66.4105C383.887 66.0128 384.222 65.7045 384.648 65.4858C385.075 65.2642 385.559 65.1534 386.102 65.1534C386.65 65.1534 387.133 65.2628 387.55 65.4815C387.971 65.6974 388.299 65.9929 388.535 66.3679C388.771 66.7401 388.888 67.1605 388.888 67.6293C388.888 67.9531 388.827 68.2699 388.705 68.5795C388.586 68.8892 388.377 69.2344 388.079 69.6151C387.781 69.9929 387.366 70.4517 386.835 70.9915L385.1 72.8068V72.8707H389.029V74H383.285Z" fill="#1A1A1A"/>
</g>
<g clip-path="url(#clip10_380_26300)">
<path d="M410.528 66.4062V65.2727H417.283V66.4062H414.56V74H413.247V66.4062H410.528ZM419.687 74.1449C419.272 74.1449 418.897 74.0682 418.562 73.9148C418.227 73.7585 417.961 73.5327 417.765 73.2372C417.572 72.9418 417.475 72.5795 417.475 72.1506C417.475 71.7812 417.547 71.4773 417.689 71.2386C417.831 71 418.022 70.8111 418.264 70.6719C418.505 70.5327 418.775 70.4276 419.074 70.3565C419.372 70.2855 419.676 70.2315 419.985 70.1946C420.377 70.1491 420.696 70.1122 420.94 70.0838C421.184 70.0526 421.362 70.0028 421.473 69.9347C421.583 69.8665 421.639 69.7557 421.639 69.6023V69.5724C421.639 69.2003 421.534 68.9119 421.324 68.7074C421.116 68.5028 420.806 68.4006 420.395 68.4006C419.966 68.4006 419.627 68.4957 419.38 68.6861C419.136 68.8736 418.967 69.0824 418.873 69.3125L417.676 69.0398C417.818 68.642 418.025 68.321 418.298 68.0767C418.574 67.8295 418.89 67.6506 419.248 67.5398C419.606 67.4261 419.983 67.3693 420.377 67.3693C420.639 67.3693 420.916 67.4006 421.208 67.4631C421.504 67.5227 421.779 67.6335 422.035 67.7955C422.294 67.9574 422.505 68.1889 422.67 68.4901C422.835 68.7884 422.917 69.1761 422.917 69.6534V74H421.673V73.1051H421.622C421.539 73.2699 421.416 73.4318 421.251 73.5909C421.086 73.75 420.875 73.8821 420.616 73.9872C420.358 74.0923 420.048 74.1449 419.687 74.1449ZM419.964 73.1222C420.316 73.1222 420.618 73.0526 420.868 72.9134C421.12 72.7741 421.312 72.5923 421.443 72.3679C421.576 72.1406 421.643 71.8977 421.643 71.6392V70.7955C421.598 70.8409 421.51 70.8835 421.379 70.9233C421.251 70.9602 421.105 70.9929 420.94 71.0213C420.775 71.0469 420.615 71.071 420.458 71.0938C420.302 71.1136 420.172 71.1307 420.066 71.1449C419.819 71.1761 419.593 71.2287 419.389 71.3026C419.187 71.3764 419.025 71.483 418.903 71.6222C418.784 71.7585 418.724 71.9403 418.724 72.1676C418.724 72.483 418.841 72.7216 419.074 72.8835C419.306 73.0426 419.603 73.1222 419.964 73.1222ZM424.717 74V65.2727H425.991V68.5156H426.067C426.141 68.3793 426.248 68.2216 426.387 68.0426C426.526 67.8636 426.719 67.7074 426.967 67.5739C427.214 67.4375 427.54 67.3693 427.947 67.3693C428.475 67.3693 428.947 67.5028 429.362 67.7699C429.776 68.0369 430.102 68.4219 430.337 68.9247C430.576 69.4276 430.695 70.0327 430.695 70.7401C430.695 71.4474 430.577 72.054 430.342 72.5597C430.106 73.0625 429.782 73.4503 429.37 73.723C428.958 73.9929 428.488 74.1278 427.96 74.1278C427.562 74.1278 427.237 74.0611 426.984 73.9276C426.734 73.794 426.538 73.6378 426.396 73.4588C426.254 73.2798 426.144 73.1207 426.067 72.9815H425.961V74H424.717ZM425.965 70.7273C425.965 71.1875 426.032 71.5909 426.165 71.9375C426.299 72.2841 426.492 72.5554 426.745 72.7514C426.998 72.9446 427.308 73.0412 427.674 73.0412C428.055 73.0412 428.373 72.9403 428.629 72.7386C428.884 72.5341 429.077 72.2571 429.208 71.9077C429.342 71.5582 429.408 71.1648 429.408 70.7273C429.408 70.2955 429.343 69.9077 429.212 69.5639C429.085 69.2202 428.891 68.9489 428.633 68.75C428.377 68.5511 428.058 68.4517 427.674 68.4517C427.305 68.4517 426.992 68.5469 426.737 68.7372C426.484 68.9276 426.292 69.1932 426.161 69.5341C426.031 69.875 425.965 70.2727 425.965 70.7273ZM438.323 74.1193C437.738 74.1193 437.215 74.0185 436.755 73.8168C436.298 73.6151 435.935 73.3352 435.668 72.9773C435.404 72.6165 435.262 72.1989 435.242 71.7244H436.58C436.597 71.983 436.684 72.2074 436.84 72.3977C436.999 72.5852 437.207 72.7301 437.462 72.8324C437.718 72.9347 438.002 72.9858 438.315 72.9858C438.658 72.9858 438.962 72.9261 439.227 72.8068C439.494 72.6875 439.702 72.5213 439.853 72.3082C440.004 72.0923 440.079 71.8438 440.079 71.5625C440.079 71.2699 440.004 71.0128 439.853 70.7912C439.705 70.5668 439.488 70.3906 439.201 70.2628C438.917 70.1349 438.573 70.071 438.17 70.071H437.433V68.9972H438.17C438.494 68.9972 438.778 68.9389 439.022 68.8224C439.269 68.706 439.462 68.544 439.602 68.3366C439.741 68.1264 439.81 67.8807 439.81 67.5994C439.81 67.3295 439.749 67.0952 439.627 66.8963C439.508 66.6946 439.337 66.5369 439.116 66.4233C438.897 66.3097 438.638 66.2528 438.34 66.2528C438.056 66.2528 437.79 66.3054 437.543 66.4105C437.299 66.5128 437.1 66.6605 436.947 66.8537C436.793 67.044 436.711 67.2727 436.7 67.5398H435.425C435.44 67.0682 435.579 66.6534 435.843 66.2955C436.11 65.9375 436.462 65.6577 436.9 65.456C437.337 65.2543 437.823 65.1534 438.357 65.1534C438.917 65.1534 439.4 65.2628 439.806 65.4815C440.215 65.6974 440.531 65.9858 440.752 66.3466C440.977 66.7074 441.087 67.1023 441.085 67.5312C441.087 68.0199 440.951 68.4347 440.675 68.7756C440.403 69.1165 440.039 69.3452 439.585 69.4616V69.5298C440.164 69.6179 440.613 69.848 440.931 70.2202C441.252 70.5923 441.411 71.054 441.408 71.6051C441.411 72.0852 441.278 72.5156 441.008 72.8963C440.741 73.277 440.376 73.5767 439.913 73.7955C439.45 74.0114 438.92 74.1193 438.323 74.1193Z" fill="#1A1A1A"/>
</g>
<g clip-path="url(#clip11_380_26300)">
<path d="M463.528 66.4062V65.2727H470.283V66.4062H467.56V74H466.247V66.4062H463.528ZM472.687 74.1449C472.272 74.1449 471.897 74.0682 471.562 73.9148C471.227 73.7585 470.961 73.5327 470.765 73.2372C470.572 72.9418 470.475 72.5795 470.475 72.1506C470.475 71.7812 470.547 71.4773 470.689 71.2386C470.831 71 471.022 70.8111 471.264 70.6719C471.505 70.5327 471.775 70.4276 472.074 70.3565C472.372 70.2855 472.676 70.2315 472.985 70.1946C473.377 70.1491 473.696 70.1122 473.94 70.0838C474.184 70.0526 474.362 70.0028 474.473 69.9347C474.583 69.8665 474.639 69.7557 474.639 69.6023V69.5724C474.639 69.2003 474.534 68.9119 474.324 68.7074C474.116 68.5028 473.806 68.4006 473.395 68.4006C472.966 68.4006 472.627 68.4957 472.38 68.6861C472.136 68.8736 471.967 69.0824 471.873 69.3125L470.676 69.0398C470.818 68.642 471.025 68.321 471.298 68.0767C471.574 67.8295 471.89 67.6506 472.248 67.5398C472.606 67.4261 472.983 67.3693 473.377 67.3693C473.639 67.3693 473.916 67.4006 474.208 67.4631C474.504 67.5227 474.779 67.6335 475.035 67.7955C475.294 67.9574 475.505 68.1889 475.67 68.4901C475.835 68.7884 475.917 69.1761 475.917 69.6534V74H474.673V73.1051H474.622C474.539 73.2699 474.416 73.4318 474.251 73.5909C474.086 73.75 473.875 73.8821 473.616 73.9872C473.358 74.0923 473.048 74.1449 472.687 74.1449ZM472.964 73.1222C473.316 73.1222 473.618 73.0526 473.868 72.9134C474.12 72.7741 474.312 72.5923 474.443 72.3679C474.576 72.1406 474.643 71.8977 474.643 71.6392V70.7955C474.598 70.8409 474.51 70.8835 474.379 70.9233C474.251 70.9602 474.105 70.9929 473.94 71.0213C473.775 71.0469 473.615 71.071 473.458 71.0938C473.302 71.1136 473.172 71.1307 473.066 71.1449C472.819 71.1761 472.593 71.2287 472.389 71.3026C472.187 71.3764 472.025 71.483 471.903 71.6222C471.784 71.7585 471.724 71.9403 471.724 72.1676C471.724 72.483 471.841 72.7216 472.074 72.8835C472.306 73.0426 472.603 73.1222 472.964 73.1222ZM477.717 74V65.2727H478.991V68.5156H479.067C479.141 68.3793 479.248 68.2216 479.387 68.0426C479.526 67.8636 479.719 67.7074 479.967 67.5739C480.214 67.4375 480.54 67.3693 480.947 67.3693C481.475 67.3693 481.947 67.5028 482.362 67.7699C482.776 68.0369 483.102 68.4219 483.337 68.9247C483.576 69.4276 483.695 70.0327 483.695 70.7401C483.695 71.4474 483.577 72.054 483.342 72.5597C483.106 73.0625 482.782 73.4503 482.37 73.723C481.958 73.9929 481.488 74.1278 480.96 74.1278C480.562 74.1278 480.237 74.0611 479.984 73.9276C479.734 73.794 479.538 73.6378 479.396 73.4588C479.254 73.2798 479.144 73.1207 479.067 72.9815H478.961V74H477.717ZM478.965 70.7273C478.965 71.1875 479.032 71.5909 479.165 71.9375C479.299 72.2841 479.492 72.5554 479.745 72.7514C479.998 72.9446 480.308 73.0412 480.674 73.0412C481.055 73.0412 481.373 72.9403 481.629 72.7386C481.884 72.5341 482.077 72.2571 482.208 71.9077C482.342 71.5582 482.408 71.1648 482.408 70.7273C482.408 70.2955 482.343 69.9077 482.212 69.5639C482.085 69.2202 481.891 68.9489 481.633 68.75C481.377 68.5511 481.058 68.4517 480.674 68.4517C480.305 68.4517 479.992 68.5469 479.737 68.7372C479.484 68.9276 479.292 69.1932 479.161 69.5341C479.031 69.875 478.965 70.2727 478.965 70.7273ZM488.102 72.2955V71.2301L491.873 65.2727H492.712V66.8409H492.18L489.482 71.1108V71.179H494.651V72.2955H488.102ZM492.239 74V71.9716L492.248 71.4858V65.2727H493.496V74H492.239Z" fill="#1A1A1A"/>
</g>
<defs>
<clipPath id="clip0_380_26300">
<rect width="48" height="24" fill="white" transform="translate(259 58.293)"/>
</clipPath>
<clipPath id="clip1_380_26300">
<rect x="259" y="58.293" width="24" height="24" rx="12" fill="white"/>
</clipPath>
<clipPath id="clip2_380_26300">
<rect width="49.7092" height="24" fill="white" transform="translate(496 58)"/>
</clipPath>
<clipPath id="clip3_380_26300">
<rect x="521.711" y="58" width="24" height="24" rx="12" fill="white"/>
</clipPath>
<clipPath id="clip4_380_26300">
<rect width="24" height="48" fill="white" transform="translate(311 93.293)"/>
</clipPath>
<clipPath id="clip5_380_26300">
<rect x="311" y="117.293" width="24" height="24" rx="12" fill="white"/>
</clipPath>
<clipPath id="clip6_380_26300">
<rect width="24" height="48" fill="white" transform="translate(388 95)"/>
</clipPath>
<clipPath id="clip7_380_26300">
<rect x="388" y="119" width="24" height="24" rx="12" fill="white"/>
</clipPath>
<clipPath id="clip8_380_26300">
<rect width="31" height="34" fill="white" transform="translate(307 59)"/>
</clipPath>
<clipPath id="clip9_380_26300">
<rect width="32" height="22" fill="white" transform="translate(358 59)"/>
</clipPath>
<clipPath id="clip10_380_26300">
<rect width="33" height="22" fill="white" transform="translate(410 59)"/>
</clipPath>
<clipPath id="clip11_380_26300">
<rect width="33" height="22" fill="white" transform="translate(463 59)"/>
</clipPath>
</defs>
</svg>
