<svg width="433" height="200" viewBox="0 0 433 200" fill="none" xmlns="http://www.w3.org/2000/svg">
<rect width="433" height="200" rx="6.50386" fill="#4CA154" fill-opacity="0.1"/>
<path d="M26.2101 174.116L21.1303 179.197L20.5551 180.994C20.6306 181.069 20.7203 181.129 20.819 181.17C20.9177 181.211 21.0235 181.232 21.1303 181.232C21.2371 181.232 21.3429 181.211 21.4416 181.17C21.5403 181.129 21.63 181.069 21.7055 180.994L21.7414 181.029L21.7414 181.029L27.4323 175.339C27.5126 175.258 27.5762 175.163 27.6196 175.058C27.6631 174.953 27.6854 174.841 27.6854 174.727C27.6854 174.614 27.6631 174.502 27.6196 174.397C27.5762 174.292 27.5126 174.197 27.4323 174.116C27.352 174.036 27.2568 173.972 27.1519 173.929C27.0471 173.886 26.9347 173.863 26.8212 173.863C26.7077 173.863 26.5953 173.886 26.4905 173.929C26.3856 173.972 26.2903 174.036 26.2101 174.116L26.2434 174.15L26.2101 174.116ZM16.9128 168.421C18.6425 167.265 20.676 166.648 22.7562 166.648C25.5449 166.651 28.2185 167.761 30.1903 169.732C32.1622 171.704 33.2713 174.378 33.2742 177.166C33.2742 179.247 32.6574 181.28 31.5016 183.01C30.3459 184.74 28.7032 186.088 26.7813 186.884C24.8594 187.68 22.7446 187.888 20.7043 187.482C18.664 187.076 16.7899 186.075 15.319 184.604C13.848 183.133 12.8463 181.259 12.4404 179.218C12.0346 177.178 12.2429 175.063 13.0389 173.141C13.835 171.219 15.1831 169.577 16.9128 168.421Z" fill="#4CA154" stroke="#4CA154" stroke-width="0.101623"/>
<g clip-path="url(#clip0_591_14650)">
<rect width="272.349" height="49.5193" transform="translate(80.3281 75.2422)" fill="#FCFCFD"/>
<path d="M124.264 103.5V95.2224H127.368C128.004 95.2224 128.538 95.3409 128.969 95.578C129.403 95.8152 129.73 96.1412 129.951 96.5562C130.175 96.9684 130.286 97.4373 130.286 97.9627C130.286 98.4935 130.175 98.9651 129.951 99.3773C129.727 99.7896 129.397 100.114 128.961 100.351C128.524 100.586 127.987 100.703 127.348 100.703H125.291V99.4703H127.146C127.518 99.4703 127.822 99.4056 128.059 99.2763C128.296 99.147 128.472 98.9691 128.585 98.7428C128.701 98.5164 128.759 98.2564 128.759 97.9627C128.759 97.669 128.701 97.4103 128.585 97.1867C128.472 96.963 128.295 96.7892 128.055 96.6653C127.818 96.5386 127.512 96.4753 127.138 96.4753H125.764V103.5H124.264ZM133.98 103.621C133.358 103.621 132.82 103.492 132.368 103.233C131.918 102.972 131.571 102.603 131.329 102.126C131.086 101.646 130.965 101.082 130.965 100.432C130.965 99.7937 131.086 99.2332 131.329 98.7509C131.574 98.2658 131.916 97.8886 132.356 97.6192C132.795 97.347 133.311 97.2109 133.904 97.2109C134.286 97.2109 134.647 97.2729 134.987 97.3969C135.329 97.5181 135.631 97.7067 135.892 97.9627C136.156 98.2187 136.364 98.5447 136.515 98.9408C136.666 99.3342 136.741 99.8031 136.741 100.347V100.796H131.652V99.8098H135.338C135.336 99.5296 135.275 99.2803 135.157 99.0621C135.038 98.8411 134.872 98.6673 134.659 98.5407C134.449 98.414 134.204 98.3507 133.924 98.3507C133.625 98.3507 133.362 98.4235 133.136 98.569C132.909 98.7118 132.733 98.9004 132.606 99.1348C132.482 99.3666 132.419 99.6212 132.416 99.8987V100.76C132.416 101.121 132.482 101.431 132.614 101.689C132.746 101.945 132.931 102.142 133.168 102.279C133.405 102.414 133.683 102.481 134.001 102.481C134.213 102.481 134.406 102.452 134.579 102.393C134.751 102.331 134.901 102.24 135.027 102.122C135.154 102.003 135.25 101.856 135.314 101.681L136.68 101.835C136.594 102.196 136.43 102.511 136.187 102.781C135.947 103.047 135.64 103.255 135.266 103.403C134.891 103.549 134.463 103.621 133.98 103.621ZM137.776 103.5V97.2918H139.194V98.3265H139.259C139.372 97.9681 139.566 97.6919 139.841 97.4979C140.118 97.3012 140.435 97.2029 140.791 97.2029C140.872 97.2029 140.962 97.2069 141.062 97.215C141.164 97.2204 141.249 97.2298 141.316 97.2433V98.5892C141.254 98.5676 141.156 98.5488 141.021 98.5326C140.889 98.5137 140.761 98.5043 140.637 98.5043C140.37 98.5043 140.131 98.5622 139.918 98.6781C139.708 98.7913 139.542 98.9489 139.421 99.151C139.299 99.3531 139.239 99.5862 139.239 99.8502V103.5H137.776ZM146.992 98.9327L145.658 99.0783C145.62 98.9435 145.554 98.8169 145.46 98.6983C145.368 98.5798 145.244 98.4841 145.088 98.4114C144.932 98.3386 144.74 98.3022 144.514 98.3022C144.21 98.3022 143.954 98.3682 143.746 98.5003C143.541 98.6323 143.44 98.8034 143.443 99.0136C143.44 99.1941 143.506 99.341 143.641 99.4541C143.778 99.5673 144.005 99.6603 144.32 99.733L145.379 99.9594C145.966 100.086 146.403 100.287 146.689 100.562C146.977 100.836 147.122 101.196 147.125 101.641C147.122 102.031 147.008 102.376 146.782 102.675C146.558 102.972 146.247 103.204 145.848 103.371C145.449 103.538 144.991 103.621 144.474 103.621C143.714 103.621 143.102 103.462 142.639 103.144C142.175 102.824 141.899 102.378 141.81 101.806L143.237 101.669C143.302 101.949 143.439 102.161 143.649 102.304C143.859 102.446 144.133 102.518 144.47 102.518C144.817 102.518 145.096 102.446 145.306 102.304C145.519 102.161 145.626 101.984 145.626 101.774C145.626 101.596 145.557 101.449 145.419 101.334C145.285 101.218 145.075 101.129 144.789 101.067L143.73 100.845C143.134 100.721 142.694 100.512 142.408 100.218C142.123 99.9216 141.981 99.5471 141.984 99.0944C141.981 98.7118 142.085 98.3804 142.295 98.1001C142.508 97.8172 142.803 97.5989 143.18 97.4454C143.56 97.2891 143.998 97.2109 144.494 97.2109C145.221 97.2109 145.794 97.3659 146.212 97.6757C146.632 97.9856 146.892 98.4046 146.992 98.9327ZM150.836 103.621C150.23 103.621 149.705 103.488 149.26 103.221C148.815 102.954 148.471 102.581 148.225 102.102C147.983 101.622 147.862 101.061 147.862 100.42C147.862 99.7788 147.983 99.217 148.225 98.7347C148.471 98.2524 148.815 97.8778 149.26 97.6111C149.705 97.3443 150.23 97.2109 150.836 97.2109C151.443 97.2109 151.968 97.3443 152.413 97.6111C152.857 97.8778 153.201 98.2524 153.443 98.7347C153.689 99.217 153.811 99.7788 153.811 100.42C153.811 101.061 153.689 101.622 153.443 102.102C153.201 102.581 152.857 102.954 152.413 103.221C151.968 103.488 151.443 103.621 150.836 103.621ZM150.844 102.449C151.173 102.449 151.448 102.359 151.669 102.178C151.89 101.995 152.054 101.75 152.162 101.443C152.273 101.136 152.328 100.793 152.328 100.416C152.328 100.036 152.273 99.6926 152.162 99.3854C152.054 99.0756 151.89 98.829 151.669 98.6458C151.448 98.4626 151.173 98.3709 150.844 98.3709C150.508 98.3709 150.227 98.4626 150.004 98.6458C149.783 98.829 149.617 99.0756 149.507 99.3854C149.399 99.6926 149.345 100.036 149.345 100.416C149.345 100.793 149.399 101.136 149.507 101.443C149.617 101.75 149.783 101.995 150.004 102.178C150.227 102.359 150.508 102.449 150.844 102.449ZM156.313 99.8624V103.5H154.85V97.2918H156.248V98.3467H156.321C156.464 97.9991 156.691 97.7229 157.004 97.5181C157.319 97.3133 157.709 97.2109 158.172 97.2109C158.601 97.2109 158.974 97.3025 159.292 97.4858C159.612 97.669 159.86 97.9344 160.035 98.282C160.213 98.6296 160.301 99.0513 160.298 99.5471V103.5H158.835V99.7734C158.835 99.3585 158.727 99.0338 158.512 98.7994C158.299 98.5649 158.004 98.4477 157.626 98.4477C157.37 98.4477 157.143 98.5043 156.943 98.6175C156.747 98.728 156.592 98.8883 156.479 99.0985C156.368 99.3086 156.313 99.5633 156.313 99.8624ZM163.369 103.625C162.975 103.625 162.621 103.555 162.306 103.415C161.993 103.272 161.745 103.062 161.562 102.785C161.382 102.507 161.291 102.165 161.291 101.758C161.291 101.408 161.356 101.118 161.485 100.889C161.615 100.66 161.791 100.477 162.015 100.339C162.238 100.202 162.49 100.098 162.771 100.028C163.053 99.9553 163.346 99.9028 163.648 99.8704C164.011 99.8327 164.306 99.799 164.533 99.7694C164.759 99.7371 164.923 99.6886 165.026 99.6239C165.131 99.5565 165.184 99.4528 165.184 99.3127V99.2884C165.184 98.9839 165.093 98.7482 164.913 98.5811C164.732 98.414 164.472 98.3305 164.133 98.3305C163.774 98.3305 163.49 98.4087 163.28 98.5649C163.072 98.7212 162.932 98.9058 162.859 99.1187L161.493 98.9247C161.601 98.5474 161.779 98.2322 162.027 97.9789C162.275 97.7229 162.578 97.5316 162.936 97.4049C163.295 97.2756 163.691 97.2109 164.125 97.2109C164.424 97.2109 164.721 97.246 165.018 97.316C165.314 97.3861 165.585 97.5019 165.83 97.6636C166.075 97.8226 166.272 98.0395 166.42 98.3144C166.571 98.5892 166.647 98.9327 166.647 99.345V103.5H165.24V102.647H165.192C165.103 102.82 164.977 102.981 164.816 103.132C164.657 103.28 164.456 103.4 164.213 103.492C163.974 103.581 163.692 103.625 163.369 103.625ZM163.749 102.55C164.042 102.55 164.297 102.492 164.513 102.376C164.728 102.258 164.894 102.102 165.01 101.908C165.128 101.714 165.188 101.502 165.188 101.273V100.541C165.142 100.579 165.064 100.614 164.953 100.646C164.845 100.679 164.724 100.707 164.589 100.731C164.455 100.756 164.321 100.777 164.189 100.796C164.057 100.815 163.943 100.831 163.846 100.845C163.627 100.874 163.432 100.923 163.26 100.99C163.087 101.057 162.951 101.152 162.851 101.273C162.752 101.392 162.702 101.545 162.702 101.734C162.702 102.003 162.8 102.207 162.997 102.344C163.194 102.481 163.444 102.55 163.749 102.55ZM169.378 95.2224V103.5H167.915V95.2224H169.378Z" fill="#217CF5"/>
<path d="M137.914 114.449H154.174" stroke="#217CF5" stroke-width="1.62596" stroke-linecap="round"/>
<path d="M261.264 103.5V95.2224H266.259V96.1116H262.266V98.9085H266.001V99.7977H262.266V102.611H266.324V103.5H261.264ZM270.078 103.629C269.56 103.629 269.104 103.499 268.708 103.237C268.311 102.973 268.002 102.601 267.778 102.122C267.554 101.639 267.442 101.07 267.442 100.412C267.442 99.76 267.554 99.1941 267.778 98.7145C268.002 98.2349 268.313 97.8644 268.712 97.603C269.11 97.3416 269.571 97.2109 270.094 97.2109C270.498 97.2109 270.817 97.2783 271.052 97.413C271.289 97.5451 271.469 97.696 271.593 97.8657C271.72 98.0328 271.818 98.1702 271.888 98.278H271.969V95.2224H272.923V103.5H272.002V102.546H271.888C271.818 102.659 271.719 102.802 271.589 102.975C271.46 103.144 271.275 103.297 271.036 103.431C270.796 103.563 270.476 103.629 270.078 103.629ZM270.207 102.772C270.59 102.772 270.913 102.673 271.177 102.473C271.441 102.271 271.642 101.992 271.779 101.637C271.917 101.278 271.985 100.865 271.985 100.396C271.985 99.9324 271.918 99.5269 271.783 99.1793C271.649 98.829 271.449 98.5569 271.185 98.3629C270.921 98.1662 270.595 98.0678 270.207 98.0678C269.803 98.0678 269.466 98.1715 269.197 98.379C268.93 98.5838 268.729 98.8627 268.594 99.2157C268.462 99.566 268.396 99.9594 268.396 100.396C268.396 100.838 268.464 101.239 268.598 101.6C268.736 101.959 268.938 102.244 269.205 102.457C269.474 102.667 269.808 102.772 270.207 102.772ZM278.512 100.962V97.2918H279.466V103.5H278.512V102.449H278.447C278.302 102.764 278.075 103.032 277.768 103.253C277.461 103.472 277.073 103.581 276.604 103.581C276.216 103.581 275.871 103.496 275.569 103.326C275.268 103.154 275.03 102.895 274.858 102.55C274.686 102.203 274.599 101.765 274.599 101.237V97.2918H275.553V101.172C275.553 101.625 275.68 101.986 275.933 102.255C276.189 102.525 276.515 102.659 276.911 102.659C277.148 102.659 277.39 102.599 277.635 102.477C277.883 102.356 278.09 102.17 278.257 101.92C278.427 101.669 278.512 101.35 278.512 100.962ZM283.532 103.629C282.95 103.629 282.448 103.492 282.028 103.217C281.608 102.942 281.284 102.564 281.058 102.081C280.832 101.599 280.718 101.048 280.718 100.428C280.718 99.7977 280.834 99.2413 281.066 98.759C281.301 98.2739 281.627 97.8953 282.044 97.6232C282.465 97.3484 282.955 97.2109 283.515 97.2109C283.952 97.2109 284.345 97.2918 284.696 97.4534C285.046 97.6151 285.333 97.8415 285.557 98.1325C285.78 98.4235 285.919 98.763 285.973 99.151H285.019C284.946 98.8681 284.785 98.6175 284.534 98.3992C284.286 98.1783 283.952 98.0678 283.532 98.0678C283.16 98.0678 282.834 98.1648 282.553 98.3588C282.276 98.5501 282.059 98.8209 281.903 99.1712C281.749 99.5188 281.672 99.927 281.672 100.396C281.672 100.876 281.748 101.293 281.899 101.649C282.052 102.005 282.268 102.281 282.545 102.477C282.826 102.674 283.154 102.772 283.532 102.772C283.779 102.772 284.004 102.729 284.207 102.643C284.409 102.557 284.58 102.433 284.72 102.271C284.86 102.11 284.96 101.916 285.019 101.689H285.973C285.919 102.056 285.786 102.386 285.573 102.68C285.363 102.971 285.084 103.202 284.736 103.375C284.391 103.544 283.99 103.629 283.532 103.629ZM288.991 103.646C288.598 103.646 288.24 103.571 287.92 103.423C287.599 103.272 287.345 103.055 287.156 102.772C286.967 102.487 286.873 102.142 286.873 101.738C286.873 101.382 286.943 101.094 287.083 100.873C287.223 100.649 287.411 100.474 287.645 100.347C287.879 100.221 288.138 100.126 288.421 100.064C288.707 99.9998 288.994 99.9486 289.282 99.9109C289.659 99.8624 289.965 99.826 290.199 99.8017C290.437 99.7748 290.609 99.7303 290.717 99.6684C290.827 99.6064 290.882 99.4986 290.882 99.345V99.3127C290.882 98.9139 290.773 98.604 290.555 98.3831C290.34 98.1621 290.012 98.0516 289.573 98.0516C289.118 98.0516 288.761 98.1513 288.502 98.3507C288.243 98.5501 288.061 98.763 287.956 98.9893L287.051 98.666C287.213 98.2888 287.428 97.995 287.698 97.7849C287.97 97.572 288.266 97.4238 288.587 97.3403C288.91 97.254 289.228 97.2109 289.541 97.2109C289.74 97.2109 289.969 97.2352 290.228 97.2837C290.489 97.3295 290.741 97.4252 290.984 97.5707C291.229 97.7162 291.432 97.9358 291.594 98.2295C291.756 98.5232 291.836 98.9166 291.836 99.4097V103.5H290.882V102.659H290.834C290.769 102.794 290.662 102.938 290.511 103.092C290.36 103.245 290.159 103.376 289.908 103.484C289.658 103.592 289.352 103.646 288.991 103.646ZM289.136 102.789C289.514 102.789 289.832 102.715 290.09 102.566C290.352 102.418 290.548 102.227 290.68 101.992C290.815 101.758 290.882 101.511 290.882 101.253V100.38C290.842 100.428 290.753 100.473 290.616 100.513C290.481 100.551 290.325 100.585 290.147 100.614C289.972 100.641 289.801 100.665 289.634 100.687C289.469 100.706 289.336 100.722 289.233 100.735C288.986 100.768 288.754 100.82 288.538 100.893C288.325 100.963 288.153 101.07 288.021 101.212C287.892 101.352 287.827 101.544 287.827 101.786C287.827 102.118 287.949 102.368 288.195 102.538C288.443 102.705 288.757 102.789 289.136 102.789ZM296.074 97.2918V98.1001H292.857V97.2918H296.074ZM293.794 95.8044H294.748V101.722C294.748 101.991 294.787 102.193 294.866 102.328C294.946 102.46 295.049 102.549 295.173 102.595C295.299 102.638 295.433 102.659 295.573 102.659C295.678 102.659 295.764 102.654 295.832 102.643C295.899 102.63 295.953 102.619 295.993 102.611L296.187 103.468C296.123 103.492 296.032 103.516 295.916 103.54C295.801 103.567 295.654 103.581 295.476 103.581C295.206 103.581 294.942 103.523 294.684 103.407C294.428 103.291 294.215 103.115 294.045 102.878C293.878 102.64 293.794 102.341 293.794 101.98V95.8044ZM297.306 103.5V97.2918H298.26V103.5H297.306ZM297.791 96.2571C297.605 96.2571 297.444 96.1937 297.31 96.0671C297.178 95.9405 297.112 95.7882 297.112 95.6104C297.112 95.4325 297.178 95.2803 297.31 95.1537C297.444 95.027 297.605 94.9637 297.791 94.9637C297.977 94.9637 298.136 95.027 298.268 95.1537C298.402 95.2803 298.47 95.4325 298.47 95.6104C298.47 95.7882 298.402 95.9405 298.268 96.0671C298.136 96.1937 297.977 96.2571 297.791 96.2571ZM302.325 103.629C301.765 103.629 301.273 103.496 300.85 103.229C300.43 102.962 300.101 102.589 299.864 102.11C299.63 101.63 299.512 101.07 299.512 100.428C299.512 99.7815 299.63 99.217 299.864 98.7347C300.101 98.2524 300.43 97.8778 300.85 97.6111C301.273 97.3443 301.765 97.2109 302.325 97.2109C302.886 97.2109 303.376 97.3443 303.797 97.6111C304.22 97.8778 304.548 98.2524 304.783 98.7347C305.02 99.217 305.139 99.7815 305.139 100.428C305.139 101.07 305.02 101.63 304.783 102.11C304.548 102.589 304.22 102.962 303.797 103.229C303.376 103.496 302.886 103.629 302.325 103.629ZM302.325 102.772C302.751 102.772 303.101 102.663 303.376 102.445C303.651 102.227 303.855 101.94 303.987 101.584C304.119 101.228 304.185 100.843 304.185 100.428C304.185 100.013 304.119 99.6266 303.987 99.2682C303.855 98.9098 303.651 98.6202 303.376 98.3992C303.101 98.1783 302.751 98.0678 302.325 98.0678C301.9 98.0678 301.549 98.1783 301.275 98.3992C301 98.6202 300.796 98.9098 300.664 99.2682C300.532 99.6266 300.466 100.013 300.466 100.428C300.466 100.843 300.532 101.228 300.664 101.584C300.796 101.94 301 102.227 301.275 102.445C301.549 102.663 301.9 102.772 302.325 102.772ZM307.345 99.7654V103.5H306.391V97.2918H307.313V98.2618H307.394C307.539 97.9465 307.76 97.6933 308.057 97.5019C308.353 97.3079 308.736 97.2109 309.204 97.2109C309.625 97.2109 309.993 97.2972 310.308 97.4696C310.623 97.6394 310.868 97.898 311.044 98.2456C311.219 98.5905 311.306 99.0271 311.306 99.5552V103.5H310.352V99.6199C310.352 99.1321 310.226 98.7522 309.972 98.4801C309.719 98.2052 309.372 98.0678 308.93 98.0678C308.625 98.0678 308.353 98.1338 308.113 98.2658C307.876 98.3979 307.689 98.5905 307.551 98.8438C307.414 99.0971 307.345 99.4043 307.345 99.7654Z" fill="#6C727F"/>
</g>
<rect x="0.406491" y="0.406491" width="432.187" height="199.187" rx="6.09737" stroke="#4CA154" stroke-opacity="0.1" stroke-width="0.812982"/>
<defs>
<clipPath id="clip0_591_14650">
<rect width="272.349" height="49.5193" fill="white" transform="translate(80.3281 75.2422)"/>
</clipPath>
</defs>
</svg>
