<svg width="396" height="183" viewBox="0 0 396 183" fill="none" xmlns="http://www.w3.org/2000/svg">
<rect x="0.675781" width="395.324" height="182.31" rx="3.8381" fill="#CA3A31" fill-opacity="0.1"/>
<path d="M20.6366 172.48L15.3922 163.373C15.2612 163.149 15.0741 162.964 14.8495 162.836C14.6249 162.707 14.3706 162.64 14.1118 162.64C13.8531 162.64 13.5988 162.707 13.3742 162.836C13.1496 162.964 12.9625 163.149 12.8315 163.373L7.58708 172.48C7.46098 172.696 7.39453 172.941 7.39453 173.191C7.39453 173.441 7.46098 173.687 7.58708 173.903C7.71645 174.127 7.90322 174.313 8.12823 174.442C8.35323 174.57 8.60836 174.636 8.86744 174.634H19.3562C19.6151 174.636 19.87 174.57 20.0948 174.441C20.3195 174.313 20.5061 174.127 20.6354 173.903C20.7617 173.687 20.8283 173.442 20.8286 173.192C20.8288 172.942 20.7625 172.696 20.6366 172.48ZM13.6321 167.437C13.6321 167.31 13.6826 167.188 13.7726 167.098C13.8626 167.008 13.9846 166.958 14.1118 166.958C14.2391 166.958 14.3611 167.008 14.4511 167.098C14.5411 167.188 14.5916 167.31 14.5916 167.437V169.836C14.5916 169.963 14.5411 170.085 14.4511 170.175C14.3611 170.265 14.2391 170.316 14.1118 170.316C13.9846 170.316 13.8626 170.265 13.7726 170.175C13.6826 170.085 13.6321 169.963 13.6321 169.836V167.437ZM14.1118 172.715C13.9695 172.715 13.8304 172.672 13.712 172.593C13.5937 172.514 13.5014 172.402 13.447 172.27C13.3925 172.139 13.3783 171.994 13.406 171.855C13.4338 171.715 13.5023 171.587 13.603 171.486C13.7036 171.386 13.8318 171.317 13.9714 171.289C14.111 171.261 14.2557 171.276 14.3872 171.33C14.5187 171.385 14.6311 171.477 14.7102 171.595C14.7893 171.714 14.8315 171.853 14.8315 171.995C14.8315 172.186 14.7557 172.369 14.6207 172.504C14.4857 172.639 14.3027 172.715 14.1118 172.715Z" fill="#CA3A31"/>
<path d="M117.977 80.7922C117.977 79.7174 117.977 79.18 118.186 78.7695C118.37 78.4084 118.663 78.1148 119.024 77.9308C119.435 77.7217 119.972 77.7217 121.047 77.7217H275.626C276.701 77.7217 277.238 77.7217 277.649 77.9308C278.01 78.1148 278.304 78.4084 278.488 78.7695C278.697 79.18 278.697 79.7174 278.697 80.7922V101.518C278.697 102.593 278.697 103.13 278.488 103.541C278.304 103.902 278.01 104.195 277.649 104.379C277.238 104.588 276.701 104.588 275.626 104.588H121.047C119.972 104.588 119.435 104.588 119.024 104.379C118.663 104.195 118.37 103.902 118.186 103.541C117.977 103.13 117.977 102.593 117.977 101.518V80.7922Z" fill="#217CF5"/>
<path d="M124.92 86.4775C123.995 86.4775 123.09 86.7519 122.321 87.2659C121.552 87.7799 120.952 88.5104 120.598 89.3651C120.244 90.2199 120.152 91.1604 120.332 92.0678C120.513 92.9752 120.958 93.8087 121.612 94.4628C122.266 95.117 123.1 95.5625 124.007 95.743C124.915 95.9235 125.855 95.8309 126.71 95.4768C127.565 95.1228 128.295 94.5232 128.809 93.754C129.323 92.9848 129.598 92.0804 129.598 91.1552C129.596 89.915 129.103 88.726 128.226 87.849C127.349 86.9721 126.16 86.4788 124.92 86.4775ZM124.92 95.1133C124.137 95.1133 123.372 94.8811 122.721 94.4462C122.07 94.0113 121.563 93.3931 121.263 92.6699C120.964 91.9467 120.885 91.1508 121.038 90.383C121.191 89.6153 121.568 88.91 122.121 88.3565C122.675 87.8029 123.38 87.426 124.148 87.2732C124.915 87.1205 125.711 87.1989 126.435 87.4985C127.158 87.798 127.776 88.3054 128.211 88.9563C128.646 89.6071 128.878 90.3724 128.878 91.1552C128.877 92.2046 128.459 93.2106 127.717 93.9527C126.975 94.6947 125.969 95.1121 124.92 95.1133Z" fill="#FCFCFD"/>
<path d="M140.246 90.4562H139.227C139.198 90.289 139.144 90.1409 139.066 90.0119C138.988 89.881 138.89 89.7702 138.774 89.6793C138.658 89.5884 138.525 89.5203 138.376 89.4749C138.229 89.4276 138.07 89.404 137.899 89.404C137.596 89.404 137.327 89.4803 137.092 89.633C136.858 89.7838 136.674 90.0055 136.542 90.2981C136.409 90.5889 136.343 90.9441 136.343 91.3639C136.343 91.791 136.409 92.1508 136.542 92.4434C136.676 92.7342 136.86 92.9541 137.092 93.1031C137.327 93.2503 137.595 93.3239 137.896 93.3239C138.064 93.3239 138.22 93.3021 138.365 93.2584C138.512 93.213 138.644 93.1467 138.761 93.0595C138.879 92.9722 138.978 92.865 139.058 92.7378C139.139 92.6106 139.196 92.4652 139.227 92.3016L140.246 92.3071C140.208 92.5724 140.125 92.8214 139.998 93.054C139.873 93.2866 139.708 93.492 139.505 93.6701C139.301 93.8463 139.063 93.9844 138.791 94.0844C138.518 94.1825 138.215 94.2316 137.883 94.2316C137.392 94.2316 136.954 94.118 136.569 93.8909C136.184 93.6637 135.88 93.3357 135.658 92.9068C135.437 92.4779 135.326 91.9636 135.326 91.3639C135.326 90.7624 135.438 90.2481 135.661 89.8211C135.885 89.3922 136.189 89.0642 136.574 88.837C136.96 88.6098 137.396 88.4963 137.883 88.4963C138.194 88.4963 138.483 88.5399 138.75 88.6271C139.017 88.7143 139.255 88.8425 139.464 89.0115C139.673 89.1787 139.845 89.384 139.979 89.6275C140.115 89.8692 140.204 90.1454 140.246 90.4562ZM141.996 88.5726V94.1553H141.009V88.5726H141.996ZM142.89 94.1553V89.9683H143.877V94.1553H142.89ZM143.386 89.374C143.23 89.374 143.096 89.3222 142.983 89.2186C142.87 89.1132 142.814 88.9869 142.814 88.8397C142.814 88.6907 142.87 88.5644 142.983 88.4608C143.096 88.3554 143.23 88.3027 143.386 88.3027C143.545 88.3027 143.679 88.3554 143.79 88.4608C143.903 88.5644 143.959 88.6907 143.959 88.8397C143.959 88.9869 143.903 89.1132 143.79 89.2186C143.679 89.3222 143.545 89.374 143.386 89.374ZM146.598 94.2371C146.18 94.2371 145.821 94.1453 145.522 93.9617C145.223 93.7782 144.994 93.5247 144.832 93.2012C144.672 92.8759 144.592 92.5015 144.592 92.0781C144.592 91.6529 144.674 91.2776 144.837 90.9523C145.001 90.6252 145.232 90.3708 145.53 90.1891C145.83 90.0055 146.184 89.9137 146.593 89.9137C146.933 89.9137 147.233 89.9764 147.495 90.1018C147.759 90.2254 147.968 90.4008 148.125 90.6279C148.281 90.8533 148.37 91.1168 148.392 91.4184H147.449C147.411 91.2167 147.32 91.0486 147.176 90.9142C147.034 90.7779 146.844 90.7097 146.606 90.7097C146.405 90.7097 146.228 90.7642 146.075 90.8733C145.922 90.9805 145.803 91.135 145.718 91.3367C145.634 91.5384 145.592 91.7801 145.592 92.0618C145.592 92.3471 145.634 92.5924 145.718 92.7978C145.801 93.0013 145.919 93.1585 146.069 93.2693C146.222 93.3784 146.401 93.4329 146.606 93.4329C146.752 93.4329 146.882 93.4056 146.996 93.3511C147.113 93.2948 147.21 93.2139 147.288 93.1085C147.366 93.0031 147.42 92.875 147.449 92.7242H148.392C148.368 93.0204 148.281 93.283 148.13 93.512C147.979 93.7391 147.774 93.9172 147.514 94.0462C147.254 94.1734 146.949 94.2371 146.598 94.2371ZM149.982 92.8414L149.979 91.6502H150.137L151.642 89.9683H152.795L150.944 92.0291H150.74L149.982 92.8414ZM149.082 94.1553V88.5726H150.069V94.1553H149.082ZM151.71 94.1553L150.347 92.2499L151.012 91.5547L152.89 94.1553H151.71ZM155.16 94.1553V88.5726H156.172V90.936H158.759V88.5726H159.773V94.1553H158.759V91.7837H156.172V94.1553H155.16ZM162.563 94.2371C162.143 94.2371 161.78 94.1498 161.475 93.9754C161.171 93.7991 160.938 93.5501 160.774 93.2285C160.611 92.905 160.529 92.5243 160.529 92.0863C160.529 91.6556 160.611 91.2776 160.774 90.9523C160.94 90.6252 161.171 90.3708 161.467 90.1891C161.763 90.0055 162.111 89.9137 162.511 89.9137C162.769 89.9137 163.012 89.9555 163.241 90.0391C163.472 90.1209 163.676 90.2481 163.852 90.4208C164.03 90.5934 164.17 90.8133 164.272 91.0804C164.374 91.3458 164.424 91.662 164.424 92.0291V92.3316H160.992V91.6665H163.479C163.477 91.4775 163.436 91.3094 163.356 91.1622C163.276 91.0132 163.164 90.896 163.021 90.8106C162.879 90.7252 162.713 90.6825 162.524 90.6825C162.323 90.6825 162.146 90.7315 161.993 90.8297C161.84 90.926 161.721 91.0532 161.636 91.2113C161.552 91.3676 161.509 91.5393 161.508 91.7265V92.3071C161.508 92.5506 161.552 92.7596 161.641 92.9341C161.73 93.1067 161.855 93.2394 162.015 93.332C162.175 93.4229 162.362 93.4683 162.576 93.4683C162.72 93.4683 162.85 93.4484 162.966 93.4084C163.082 93.3666 163.183 93.3057 163.269 93.2257C163.354 93.1458 163.419 93.0467 163.462 92.9286L164.384 93.0322C164.325 93.2757 164.215 93.4883 164.051 93.6701C163.889 93.85 163.682 93.9899 163.429 94.0899C163.177 94.188 162.888 94.2371 162.563 94.2371ZM165.139 94.1553V89.9683H166.096V90.6661H166.14C166.216 90.4244 166.347 90.2381 166.532 90.1073C166.719 89.9746 166.933 89.9083 167.173 89.9083C167.227 89.9083 167.288 89.911 167.355 89.9165C167.425 89.9201 167.482 89.9265 167.527 89.9355V90.8433C167.485 90.8287 167.419 90.816 167.328 90.8051C167.239 90.7924 167.153 90.786 167.069 90.786C166.889 90.786 166.728 90.8251 166.584 90.9033C166.442 90.9796 166.33 91.0859 166.249 91.2222C166.167 91.3585 166.126 91.5157 166.126 91.6938V94.1553H165.139ZM169.744 94.2371C169.324 94.2371 168.962 94.1498 168.656 93.9754C168.353 93.7991 168.119 93.5501 167.956 93.2285C167.792 92.905 167.71 92.5243 167.71 92.0863C167.71 91.6556 167.792 91.2776 167.956 90.9523C168.121 90.6252 168.352 90.3708 168.648 90.1891C168.944 90.0055 169.292 89.9137 169.692 89.9137C169.95 89.9137 170.194 89.9555 170.423 90.0391C170.654 90.1209 170.857 90.2481 171.033 90.4208C171.211 90.5934 171.351 90.8133 171.453 91.0804C171.555 91.3458 171.606 91.662 171.606 92.0291V92.3316H168.174V91.6665H170.66C170.658 91.4775 170.617 91.3094 170.537 91.1622C170.457 91.0132 170.346 90.896 170.202 90.8106C170.06 90.7252 169.895 90.6825 169.706 90.6825C169.504 90.6825 169.327 90.7315 169.174 90.8297C169.022 90.926 168.903 91.0532 168.817 91.2113C168.734 91.3676 168.691 91.5393 168.689 91.7265V92.3071C168.689 92.5506 168.734 92.7596 168.823 92.9341C168.912 93.1067 169.036 93.2394 169.196 93.332C169.356 93.4229 169.543 93.4683 169.758 93.4683C169.901 93.4683 170.031 93.4484 170.147 93.4084C170.264 93.3666 170.365 93.3057 170.45 93.2257C170.535 93.1458 170.6 93.0467 170.644 92.9286L171.565 93.0322C171.507 93.2757 171.396 93.4883 171.232 93.6701C171.071 93.85 170.863 93.9899 170.611 94.0899C170.358 94.188 170.069 94.2371 169.744 94.2371ZM176.196 89.9683V90.7315H173.789V89.9683H176.196ZM174.383 88.9651H175.37V92.8959C175.37 93.0286 175.39 93.1303 175.43 93.2012C175.471 93.2703 175.526 93.3175 175.593 93.3429C175.66 93.3684 175.735 93.3811 175.817 93.3811C175.878 93.3811 175.935 93.3766 175.986 93.3675C176.038 93.3584 176.078 93.3502 176.106 93.3429L176.272 94.1144C176.219 94.1326 176.144 94.1525 176.046 94.1744C175.949 94.1962 175.831 94.2089 175.691 94.2125C175.444 94.2198 175.222 94.1825 175.023 94.1008C174.825 94.0172 174.668 93.8881 174.552 93.7137C174.437 93.5392 174.381 93.3211 174.383 93.0595V88.9651ZM178.682 94.2371C178.273 94.2371 177.919 94.1471 177.619 93.9672C177.319 93.7873 177.087 93.5356 176.921 93.2121C176.758 92.8886 176.676 92.5106 176.676 92.0781C176.676 91.6456 176.758 91.2667 176.921 90.9414C177.087 90.6161 177.319 90.3635 177.619 90.1836C177.919 90.0037 178.273 89.9137 178.682 89.9137C179.091 89.9137 179.446 90.0037 179.745 90.1836C180.045 90.3635 180.277 90.6161 180.441 90.9414C180.606 91.2667 180.689 91.6456 180.689 92.0781C180.689 92.5106 180.606 92.8886 180.441 93.2121C180.277 93.5356 180.045 93.7873 179.745 93.9672C179.446 94.1471 179.091 94.2371 178.682 94.2371ZM178.688 93.4465C178.909 93.4465 179.095 93.3857 179.244 93.2639C179.393 93.1403 179.504 92.975 179.576 92.7678C179.651 92.5606 179.688 92.3298 179.688 92.0754C179.688 91.8192 179.651 91.5875 179.576 91.3803C179.504 91.1713 179.393 91.005 179.244 90.8814C179.095 90.7579 178.909 90.6961 178.688 90.6961C178.461 90.6961 178.272 90.7579 178.121 90.8814C177.972 91.005 177.86 91.1713 177.785 91.3803C177.713 91.5875 177.676 91.8192 177.676 92.0754C177.676 92.3298 177.713 92.5606 177.785 92.7678C177.86 92.975 177.972 93.1403 178.121 93.2639C178.272 93.3857 178.461 93.4465 178.688 93.4465ZM186.268 90.1073C186.242 89.8692 186.135 89.6839 185.946 89.5512C185.759 89.4185 185.516 89.3522 185.216 89.3522C185.005 89.3522 184.824 89.384 184.673 89.4476C184.522 89.5112 184.407 89.5975 184.327 89.7066C184.247 89.8156 184.206 89.9401 184.204 90.08C184.204 90.1963 184.231 90.2972 184.283 90.3826C184.338 90.468 184.412 90.5407 184.504 90.6007C184.597 90.6588 184.7 90.7079 184.812 90.7479C184.925 90.7879 185.038 90.8215 185.153 90.8487L185.676 90.9796C185.887 91.0286 186.09 91.095 186.284 91.1786C186.48 91.2622 186.656 91.3676 186.81 91.4948C186.967 91.622 187.09 91.7755 187.181 91.9555C187.272 92.1354 187.317 92.3462 187.317 92.5879C187.317 92.915 187.234 93.203 187.067 93.452C186.899 93.6991 186.658 93.8927 186.341 94.0326C186.027 94.1707 185.646 94.2398 185.199 94.2398C184.765 94.2398 184.388 94.1725 184.068 94.0381C183.75 93.9036 183.501 93.7073 183.321 93.4493C183.143 93.1912 183.047 92.8768 183.032 92.5061H184.027C184.042 92.7005 184.102 92.8623 184.207 92.9913C184.312 93.1203 184.45 93.2166 184.619 93.2803C184.79 93.3439 184.98 93.3757 185.191 93.3757C185.411 93.3757 185.604 93.3429 185.769 93.2775C185.936 93.2103 186.067 93.1176 186.162 92.9995C186.256 92.8795 186.304 92.7396 186.306 92.5797C186.304 92.4343 186.262 92.3144 186.178 92.2199C186.094 92.1236 185.977 92.0436 185.826 91.98C185.677 91.9146 185.503 91.8564 185.303 91.8055L184.668 91.642C184.208 91.5239 183.845 91.3449 183.577 91.105C183.312 90.8633 183.179 90.5425 183.179 90.1427C183.179 89.8138 183.268 89.5258 183.447 89.2786C183.626 89.0315 183.871 88.8397 184.18 88.7034C184.489 88.5653 184.839 88.4963 185.229 88.4963C185.625 88.4963 185.973 88.5653 186.271 88.7034C186.57 88.8397 186.806 89.0296 186.977 89.2732C187.147 89.5148 187.236 89.7929 187.241 90.1073H186.268ZM190.724 92.3943V89.9683H191.711V94.1553H190.754V93.4111H190.71C190.616 93.6455 190.461 93.8372 190.244 93.9863C190.03 94.1353 189.765 94.2098 189.451 94.2098C189.177 94.2098 188.934 94.1489 188.723 94.0272C188.514 93.9036 188.351 93.7246 188.233 93.4901C188.114 93.2539 188.055 92.9686 188.055 92.6342V89.9683H189.042V92.4816C189.042 92.7469 189.115 92.9577 189.26 93.114C189.406 93.2703 189.596 93.3484 189.833 93.3484C189.978 93.3484 190.119 93.313 190.255 93.2421C190.392 93.1712 190.503 93.0658 190.591 92.9259C190.68 92.7841 190.724 92.607 190.724 92.3943ZM192.649 94.1553V88.5726H193.636V90.6606H193.677C193.728 90.5589 193.8 90.4507 193.892 90.3363C193.985 90.22 194.11 90.1209 194.268 90.0391C194.427 89.9555 194.628 89.9137 194.874 89.9137C195.197 89.9137 195.489 89.9964 195.749 90.1618C196.01 90.3254 196.217 90.568 196.37 90.8896C196.525 91.2095 196.602 91.602 196.602 92.0672C196.602 92.527 196.526 92.9177 196.376 93.2394C196.225 93.561 196.019 93.8064 195.76 93.9754C195.5 94.1444 195.205 94.2289 194.876 94.2289C194.636 94.2289 194.437 94.1889 194.279 94.1089C194.121 94.029 193.994 93.9327 193.898 93.82C193.803 93.7055 193.73 93.5974 193.677 93.4956H193.62V94.1553H192.649ZM193.617 92.0618C193.617 92.3325 193.655 92.5697 193.731 92.7732C193.81 92.9768 193.921 93.1358 194.067 93.2503C194.214 93.3629 194.392 93.4193 194.601 93.4193C194.819 93.4193 195.002 93.3611 195.149 93.2448C195.296 93.1267 195.407 92.9659 195.481 92.7623C195.558 92.557 195.596 92.3235 195.596 92.0618C195.596 91.8019 195.559 91.5711 195.484 91.3694C195.41 91.1677 195.299 91.0096 195.152 90.8951C195.004 90.7806 194.821 90.7233 194.601 90.7233C194.39 90.7233 194.211 90.7788 194.064 90.8896C193.917 91.0005 193.805 91.1559 193.729 91.3558C193.654 91.5557 193.617 91.791 193.617 92.0618ZM197.321 94.1553V89.9683H198.264V90.6797H198.313C198.4 90.4398 198.545 90.2527 198.746 90.1182C198.948 89.9819 199.189 89.9137 199.469 89.9137C199.752 89.9137 199.991 89.9828 200.186 90.1209C200.382 90.2572 200.52 90.4435 200.6 90.6797H200.644C200.736 90.4471 200.893 90.2618 201.113 90.1236C201.334 89.9837 201.597 89.9137 201.9 89.9137C202.286 89.9137 202.6 90.0355 202.844 90.279C203.087 90.5225 203.209 90.8778 203.209 91.3449V94.1553H202.219V91.4975C202.219 91.2376 202.15 91.0477 202.012 90.9278C201.874 90.806 201.705 90.7451 201.505 90.7451C201.267 90.7451 201.081 90.8197 200.946 90.9687C200.814 91.1159 200.747 91.3076 200.747 91.5438V94.1553H199.78V91.4566C199.78 91.2404 199.714 91.0677 199.583 90.9387C199.454 90.8097 199.285 90.7451 199.076 90.7451C198.935 90.7451 198.806 90.7815 198.689 90.8542C198.573 90.9251 198.48 91.0259 198.411 91.1568C198.342 91.2858 198.308 91.4366 198.308 91.6093V94.1553H197.321ZM204.09 94.1553V89.9683H205.077V94.1553H204.09ZM204.586 89.374C204.43 89.374 204.295 89.3222 204.183 89.2186C204.07 89.1132 204.014 88.9869 204.014 88.8397C204.014 88.6907 204.07 88.5644 204.183 88.4608C204.295 88.3554 204.43 88.3027 204.586 88.3027C204.744 88.3027 204.879 88.3554 204.989 88.4608C205.102 88.5644 205.159 88.6907 205.159 88.8397C205.159 88.9869 205.102 89.1132 204.989 89.2186C204.879 89.3222 204.744 89.374 204.586 89.374ZM208.062 89.9683V90.7315H205.655V89.9683H208.062ZM206.25 88.9651H207.236V92.8959C207.236 93.0286 207.256 93.1303 207.296 93.2012C207.338 93.2703 207.393 93.3175 207.46 93.3429C207.527 93.3684 207.602 93.3811 207.683 93.3811C207.745 93.3811 207.802 93.3766 207.852 93.3675C207.905 93.3584 207.945 93.3502 207.972 93.3429L208.139 94.1144C208.086 94.1326 208.01 94.1525 207.912 94.1744C207.816 94.1962 207.698 94.2089 207.558 94.2125C207.311 94.2198 207.088 94.1825 206.89 94.1008C206.692 94.0172 206.535 93.8881 206.419 93.7137C206.304 93.5392 206.248 93.3211 206.25 93.0595V88.9651ZM211.757 94.2398C211.491 94.2398 211.252 94.1925 211.04 94.098C210.829 94.0017 210.662 93.86 210.538 93.6728C210.416 93.4856 210.355 93.2548 210.355 92.9804C210.355 92.7442 210.399 92.5488 210.486 92.3943C210.574 92.2399 210.693 92.1163 210.843 92.0236C210.994 91.9309 211.164 91.861 211.353 91.8137C211.544 91.7646 211.741 91.7292 211.945 91.7074C212.19 91.682 212.389 91.6592 212.542 91.6392C212.694 91.6174 212.805 91.5847 212.874 91.5411C212.945 91.4957 212.981 91.4257 212.981 91.3312V91.3149C212.981 91.1095 212.92 90.9505 212.798 90.8378C212.676 90.7252 212.501 90.6688 212.272 90.6688C212.03 90.6688 211.838 90.7215 211.697 90.8269C211.557 90.9323 211.462 91.0568 211.413 91.2004L210.492 91.0695C210.564 90.8151 210.684 90.6025 210.852 90.4317C211.019 90.259 211.223 90.13 211.465 90.0446C211.707 89.9574 211.974 89.9137 212.266 89.9137C212.468 89.9137 212.669 89.9374 212.869 89.9846C213.069 90.0319 213.251 90.11 213.417 90.219C213.582 90.3263 213.715 90.4726 213.815 90.6579C213.916 90.8433 213.967 91.075 213.967 91.353V94.1553H213.019V93.5801H212.986C212.926 93.6964 212.842 93.8054 212.732 93.9072C212.625 94.0072 212.49 94.088 212.326 94.1498C212.165 94.2098 211.975 94.2398 211.757 94.2398ZM212.013 93.5147C212.211 93.5147 212.383 93.4756 212.528 93.3975C212.673 93.3175 212.785 93.2121 212.863 93.0813C212.943 92.9504 212.983 92.8078 212.983 92.6533V92.1599C212.952 92.1853 212.9 92.209 212.825 92.2308C212.752 92.2526 212.671 92.2717 212.58 92.288C212.489 92.3044 212.399 92.3189 212.31 92.3316C212.221 92.3444 212.144 92.3553 212.078 92.3643C211.931 92.3843 211.799 92.417 211.683 92.4625C211.567 92.5079 211.475 92.5715 211.408 92.6533C211.34 92.7333 211.307 92.8368 211.307 92.964C211.307 93.1458 211.373 93.283 211.506 93.3757C211.638 93.4683 211.807 93.5147 212.013 93.5147ZM215.826 91.7019V94.1553H214.84V89.9683H215.783V90.6797H215.832C215.928 90.4453 216.082 90.259 216.293 90.1209C216.505 89.9828 216.768 89.9137 217.08 89.9137C217.369 89.9137 217.621 89.9755 217.835 90.0991C218.052 90.2227 218.219 90.4017 218.337 90.6361C218.457 90.8705 218.516 91.1549 218.514 91.4893V94.1553H217.527V91.642C217.527 91.3621 217.455 91.1431 217.309 90.985C217.166 90.8269 216.967 90.7479 216.712 90.7479C216.54 90.7479 216.386 90.786 216.252 90.8624C216.119 90.9369 216.014 91.045 215.938 91.1867C215.864 91.3285 215.826 91.5002 215.826 91.7019ZM220.951 94.2289C220.622 94.2289 220.328 94.1444 220.068 93.9754C219.808 93.8064 219.603 93.561 219.452 93.2394C219.301 92.9177 219.226 92.527 219.226 92.0672C219.226 91.602 219.302 91.2095 219.455 90.8896C219.609 90.568 219.817 90.3254 220.079 90.1618C220.341 89.9964 220.632 89.9137 220.954 89.9137C221.199 89.9137 221.401 89.9555 221.559 90.0391C221.717 90.1209 221.842 90.22 221.935 90.3363C222.028 90.4507 222.1 90.5589 222.151 90.6606H222.191V88.5726H223.181V94.1553H222.21V93.4956H222.151C222.1 93.5974 222.026 93.7055 221.93 93.82C221.833 93.9327 221.706 94.029 221.548 94.1089C221.39 94.1889 221.191 94.2289 220.951 94.2289ZM221.226 93.4193C221.435 93.4193 221.614 93.3629 221.761 93.2503C221.908 93.1358 222.02 92.9768 222.096 92.7732C222.172 92.5697 222.21 92.3325 222.21 92.0618C222.21 91.791 222.172 91.5557 222.096 91.3558C222.022 91.1559 221.911 91.0005 221.763 90.8896C221.618 90.7788 221.439 90.7233 221.226 90.7233C221.007 90.7233 220.823 90.7806 220.676 90.8951C220.529 91.0096 220.418 91.1677 220.343 91.3694C220.269 91.5711 220.231 91.8019 220.231 92.0618C220.231 92.3235 220.269 92.557 220.343 92.7623C220.42 92.9659 220.531 93.1267 220.679 93.2448C220.828 93.3611 221.01 93.4193 221.226 93.4193ZM228.974 90.1073C228.949 89.8692 228.842 89.6839 228.653 89.5512C228.465 89.4185 228.222 89.3522 227.922 89.3522C227.711 89.3522 227.53 89.384 227.38 89.4476C227.229 89.5112 227.113 89.5975 227.033 89.7066C226.953 89.8156 226.912 89.9401 226.911 90.08C226.911 90.1963 226.937 90.2972 226.99 90.3826C227.044 90.468 227.118 90.5407 227.211 90.6007C227.303 90.6588 227.406 90.7079 227.519 90.7479C227.631 90.7879 227.745 90.8215 227.859 90.8487L228.383 90.9796C228.593 91.0286 228.796 91.095 228.991 91.1786C229.187 91.2622 229.362 91.3676 229.517 91.4948C229.673 91.622 229.796 91.7755 229.887 91.9555C229.978 92.1354 230.024 92.3462 230.024 92.5879C230.024 92.915 229.94 93.203 229.773 93.452C229.606 93.6991 229.364 93.8927 229.048 94.0326C228.733 94.1707 228.353 94.2398 227.906 94.2398C227.471 94.2398 227.094 94.1725 226.774 94.0381C226.456 93.9036 226.207 93.7073 226.027 93.4493C225.849 93.1912 225.753 92.8768 225.739 92.5061H226.733C226.748 92.7005 226.808 92.8623 226.913 92.9913C227.019 93.1203 227.156 93.2166 227.325 93.2803C227.496 93.3439 227.687 93.3757 227.897 93.3757C228.117 93.3757 228.31 93.3429 228.475 93.2775C228.643 93.2103 228.773 93.1176 228.868 92.9995C228.962 92.8795 229.011 92.7396 229.012 92.5797C229.011 92.4343 228.968 92.3144 228.884 92.2199C228.801 92.1236 228.683 92.0436 228.533 91.98C228.384 91.9146 228.209 91.8564 228.009 91.8055L227.374 91.642C226.914 91.5239 226.551 91.3449 226.284 91.105C226.018 90.8633 225.886 90.5425 225.886 90.1427C225.886 89.8138 225.975 89.5258 226.153 89.2786C226.333 89.0315 226.577 88.8397 226.886 88.7034C227.195 88.5653 227.545 88.4963 227.936 88.4963C228.332 88.4963 228.679 88.5653 228.977 88.7034C229.277 88.8397 229.512 89.0296 229.683 89.2732C229.854 89.5148 229.942 89.7929 229.947 90.1073H228.974ZM231.967 94.2398C231.701 94.2398 231.462 94.1925 231.25 94.098C231.039 94.0017 230.872 93.86 230.748 93.6728C230.626 93.4856 230.565 93.2548 230.565 92.9804C230.565 92.7442 230.609 92.5488 230.696 92.3943C230.784 92.2399 230.903 92.1163 231.053 92.0236C231.204 91.9309 231.374 91.861 231.563 91.8137C231.754 91.7646 231.951 91.7292 232.155 91.7074C232.4 91.682 232.599 91.6592 232.752 91.6392C232.904 91.6174 233.015 91.5847 233.084 91.5411C233.155 91.4957 233.191 91.4257 233.191 91.3312V91.3149C233.191 91.1095 233.13 90.9505 233.008 90.8378C232.886 90.7252 232.711 90.6688 232.482 90.6688C232.24 90.6688 232.048 90.7215 231.907 90.8269C231.767 90.9323 231.672 91.0568 231.623 91.2004L230.702 91.0695C230.774 90.8151 230.894 90.6025 231.062 90.4317C231.229 90.259 231.433 90.13 231.675 90.0446C231.917 89.9574 232.184 89.9137 232.476 89.9137C232.678 89.9137 232.879 89.9374 233.079 89.9846C233.279 90.0319 233.461 90.11 233.627 90.219C233.792 90.3263 233.925 90.4726 234.025 90.6579C234.126 90.8433 234.177 91.075 234.177 91.353V94.1553H233.229V93.5801H233.196C233.136 93.6964 233.051 93.8054 232.942 93.9072C232.835 94.0072 232.7 94.088 232.536 94.1498C232.375 94.2098 232.185 94.2398 231.967 94.2398ZM232.223 93.5147C232.421 93.5147 232.593 93.4756 232.738 93.3975C232.883 93.3175 232.995 93.2121 233.073 93.0813C233.153 92.9504 233.193 92.8078 233.193 92.6533V92.1599C233.162 92.1853 233.11 92.209 233.035 92.2308C232.962 92.2526 232.881 92.2717 232.79 92.288C232.699 92.3044 232.609 92.3189 232.52 92.3316C232.431 92.3444 232.354 92.3553 232.288 92.3643C232.141 92.3843 232.009 92.417 231.893 92.4625C231.777 92.5079 231.685 92.5715 231.618 92.6533C231.55 92.7333 231.517 92.8368 231.517 92.964C231.517 93.1458 231.583 93.283 231.716 93.3757C231.848 93.4683 232.017 93.5147 232.223 93.5147ZM238.64 89.9683L237.149 94.1553H236.058L234.567 89.9683H235.619L236.582 93.0785H236.625L237.59 89.9683H238.64ZM240.914 94.2371C240.494 94.2371 240.131 94.1498 239.826 93.9754C239.523 93.7991 239.289 93.5501 239.126 93.2285C238.962 92.905 238.88 92.5243 238.88 92.0863C238.88 91.6556 238.962 91.2776 239.126 90.9523C239.291 90.6252 239.522 90.3708 239.818 90.1891C240.114 90.0055 240.462 89.9137 240.862 89.9137C241.12 89.9137 241.363 89.9555 241.592 90.0391C241.823 90.1209 242.027 90.2481 242.203 90.4208C242.381 90.5934 242.521 90.8133 242.623 91.0804C242.725 91.3458 242.776 91.662 242.776 92.0291V92.3316H239.344V91.6665H241.83C241.828 91.4775 241.787 91.3094 241.707 91.1622C241.627 91.0132 241.515 90.896 241.372 90.8106C241.23 90.7252 241.065 90.6825 240.876 90.6825C240.674 90.6825 240.497 90.7315 240.344 90.8297C240.191 90.926 240.072 91.0532 239.987 91.2113C239.903 91.3676 239.861 91.5393 239.859 91.7265V92.3071C239.859 92.5506 239.903 92.7596 239.992 92.9341C240.081 93.1067 240.206 93.2394 240.366 93.332C240.526 93.4229 240.713 93.4683 240.927 93.4683C241.071 93.4683 241.201 93.4484 241.317 93.4084C241.433 93.3666 241.534 93.3057 241.62 93.2257C241.705 93.1458 241.77 93.0467 241.813 92.9286L242.735 93.0322C242.676 93.2757 242.566 93.4883 242.402 93.6701C242.24 93.85 242.033 93.9899 241.781 94.0899C241.528 94.188 241.239 94.2371 240.914 94.2371ZM250.097 90.4562H249.077C249.048 90.289 248.994 90.1409 248.916 90.0119C248.838 89.881 248.741 89.7702 248.625 89.6793C248.508 89.5884 248.376 89.5203 248.227 89.4749C248.079 89.4276 247.92 89.404 247.75 89.404C247.446 89.404 247.177 89.4803 246.943 89.633C246.708 89.7838 246.525 90.0055 246.392 90.2981C246.259 90.5889 246.193 90.9441 246.193 91.3639C246.193 91.791 246.259 92.1508 246.392 92.4434C246.527 92.7342 246.71 92.9541 246.943 93.1031C247.177 93.2503 247.445 93.3239 247.747 93.3239C247.914 93.3239 248.07 93.3021 248.216 93.2584C248.363 93.213 248.495 93.1467 248.611 93.0595C248.729 92.9722 248.828 92.865 248.908 92.7378C248.99 92.6106 249.046 92.4652 249.077 92.3016L250.097 92.3071C250.058 92.5724 249.976 92.8214 249.849 93.054C249.723 93.2866 249.559 93.492 249.355 93.6701C249.152 93.8463 248.914 93.9844 248.641 94.0844C248.368 94.1825 248.066 94.2316 247.733 94.2316C247.243 94.2316 246.805 94.118 246.419 93.8909C246.034 93.6637 245.731 93.3357 245.509 92.9068C245.287 92.4779 245.176 91.9636 245.176 91.3639C245.176 90.7624 245.288 90.2481 245.512 89.8211C245.735 89.3922 246.04 89.0642 246.425 88.837C246.81 88.6098 247.246 88.4963 247.733 88.4963C248.044 88.4963 248.333 88.5399 248.6 88.6271C248.867 88.7143 249.105 88.8425 249.314 89.0115C249.523 89.1787 249.695 89.384 249.83 89.6275C249.966 89.8692 250.055 90.1454 250.097 90.4562ZM251.846 91.7019V94.1553H250.859V88.5726H251.824V90.6797H251.873C251.971 90.4435 252.123 90.2572 252.329 90.1209C252.536 89.9828 252.799 89.9137 253.119 89.9137C253.41 89.9137 253.663 89.9746 253.88 90.0964C254.096 90.2181 254.263 90.3962 254.381 90.6307C254.501 90.8651 254.561 91.1513 254.561 91.4893V94.1553H253.574V91.642C253.574 91.3603 253.502 91.1413 253.356 90.985C253.213 90.8269 253.011 90.7479 252.751 90.7479C252.577 90.7479 252.42 90.786 252.282 90.8624C252.146 90.9369 252.039 91.045 251.961 91.1867C251.884 91.3285 251.846 91.5002 251.846 91.7019ZM256.652 94.2398C256.386 94.2398 256.148 94.1925 255.935 94.098C255.724 94.0017 255.557 93.86 255.433 93.6728C255.312 93.4856 255.251 93.2548 255.251 92.9804C255.251 92.7442 255.294 92.5488 255.382 92.3943C255.469 92.2399 255.588 92.1163 255.739 92.0236C255.889 91.9309 256.059 91.861 256.248 91.8137C256.439 91.7646 256.636 91.7292 256.84 91.7074C257.085 91.682 257.284 91.6592 257.437 91.6392C257.59 91.6174 257.7 91.5847 257.769 91.5411C257.84 91.4957 257.876 91.4257 257.876 91.3312V91.3149C257.876 91.1095 257.815 90.9505 257.693 90.8378C257.571 90.7252 257.396 90.6688 257.167 90.6688C256.925 90.6688 256.734 90.7215 256.592 90.8269C256.452 90.9323 256.357 91.0568 256.308 91.2004L255.387 91.0695C255.46 90.8151 255.58 90.6025 255.747 90.4317C255.914 90.259 256.118 90.13 256.36 90.0446C256.602 89.9574 256.869 89.9137 257.162 89.9137C257.363 89.9137 257.564 89.9374 257.764 89.9846C257.964 90.0319 258.147 90.11 258.312 90.219C258.477 90.3263 258.61 90.4726 258.71 90.6579C258.812 90.8433 258.863 91.075 258.863 91.353V94.1553H257.914V93.5801H257.881C257.821 93.6964 257.737 93.8054 257.628 93.9072C257.52 94.0072 257.385 94.088 257.222 94.1498C257.06 94.2098 256.87 94.2398 256.652 94.2398ZM256.908 93.5147C257.106 93.5147 257.278 93.4756 257.423 93.3975C257.569 93.3175 257.68 93.2121 257.759 93.0813C257.838 92.9504 257.878 92.8078 257.878 92.6533V92.1599C257.848 92.1853 257.795 92.209 257.72 92.2308C257.648 92.2526 257.566 92.2717 257.475 92.288C257.384 92.3044 257.294 92.3189 257.205 92.3316C257.116 92.3444 257.039 92.3553 256.973 92.3643C256.826 92.3843 256.695 92.417 256.578 92.4625C256.462 92.5079 256.37 92.5715 256.303 92.6533C256.236 92.7333 256.202 92.8368 256.202 92.964C256.202 93.1458 256.268 93.283 256.401 93.3757C256.534 93.4683 256.703 93.5147 256.908 93.5147ZM260.722 91.7019V94.1553H259.735V89.9683H260.678V90.6797H260.727C260.823 90.4453 260.977 90.259 261.188 90.1209C261.4 89.9828 261.663 89.9137 261.976 89.9137C262.264 89.9137 262.516 89.9755 262.731 90.0991C262.947 90.2227 263.114 90.4017 263.232 90.6361C263.352 90.8705 263.411 91.1549 263.409 91.4893V94.1553H262.423V91.642C262.423 91.3621 262.35 91.1431 262.205 90.985C262.061 90.8269 261.862 90.7479 261.608 90.7479C261.435 90.7479 261.281 90.786 261.147 90.8624C261.014 90.9369 260.91 91.045 260.833 91.1867C260.759 91.3285 260.722 91.5002 260.722 91.7019ZM266.113 95.8126C265.759 95.8126 265.455 95.7645 265.2 95.6682C264.946 95.5737 264.741 95.4465 264.587 95.2865C264.433 95.1266 264.325 94.9494 264.265 94.755L265.154 94.5396C265.194 94.6214 265.252 94.7023 265.328 94.7822C265.405 94.864 265.507 94.9313 265.636 94.984C265.767 95.0385 265.932 95.0657 266.13 95.0657C266.41 95.0657 266.641 94.9976 266.825 94.8613C267.008 94.7268 267.1 94.5051 267.1 94.1962V93.4029H267.051C267 93.5047 266.926 93.6092 266.828 93.7164C266.731 93.8236 266.603 93.9136 266.443 93.9863C266.285 94.059 266.086 94.0953 265.846 94.0953C265.525 94.0953 265.233 94.0199 264.971 93.8691C264.711 93.7164 264.504 93.4892 264.35 93.1876C264.197 92.8841 264.121 92.5043 264.121 92.0481C264.121 91.5884 264.197 91.2004 264.35 90.8842C264.504 90.5661 264.712 90.3254 264.974 90.1618C265.236 89.9964 265.527 89.9137 265.849 89.9137C266.094 89.9137 266.296 89.9555 266.454 90.0391C266.614 90.1209 266.741 90.22 266.836 90.3363C266.93 90.4507 267.002 90.5589 267.051 90.6606H267.106V89.9683H268.079V94.2234C268.079 94.5814 267.993 94.8776 267.823 95.1121C267.652 95.3465 267.418 95.5219 267.122 95.6382C266.826 95.7545 266.49 95.8126 266.113 95.8126ZM266.122 93.3211C266.331 93.3211 266.509 93.2703 266.656 93.1685C266.803 93.0667 266.915 92.9204 266.991 92.7296C267.068 92.5388 267.106 92.3098 267.106 92.0427C267.106 91.7792 267.068 91.5484 266.991 91.3503C266.917 91.1522 266.806 90.9987 266.659 90.8896C266.513 90.7788 266.334 90.7233 266.122 90.7233C265.902 90.7233 265.718 90.7806 265.571 90.8951C265.424 91.0096 265.313 91.1668 265.238 91.3667C265.164 91.5647 265.127 91.7901 265.127 92.0427C265.127 92.2989 265.164 92.5234 265.238 92.716C265.315 92.9068 265.427 93.0558 265.574 93.163C265.723 93.2684 265.905 93.3211 266.122 93.3211ZM270.824 94.2371C270.404 94.2371 270.042 94.1498 269.736 93.9754C269.433 93.7991 269.199 93.5501 269.036 93.2285C268.872 92.905 268.79 92.5243 268.79 92.0863C268.79 91.6556 268.872 91.2776 269.036 90.9523C269.201 90.6252 269.432 90.3708 269.728 90.1891C270.024 90.0055 270.372 89.9137 270.772 89.9137C271.03 89.9137 271.274 89.9555 271.503 90.0391C271.733 90.1209 271.937 90.2481 272.113 90.4208C272.291 90.5934 272.431 90.8133 272.533 91.0804C272.635 91.3458 272.686 91.662 272.686 92.0291V92.3316H269.254V91.6665H271.74C271.738 91.4775 271.697 91.3094 271.617 91.1622C271.537 91.0132 271.425 90.896 271.282 90.8106C271.14 90.7252 270.975 90.6825 270.786 90.6825C270.584 90.6825 270.407 90.7315 270.254 90.8297C270.102 90.926 269.982 91.0532 269.897 91.2113C269.813 91.3676 269.771 91.5393 269.769 91.7265V92.3071C269.769 92.5506 269.813 92.7596 269.903 92.9341C269.992 93.1067 270.116 93.2394 270.276 93.332C270.436 93.4229 270.623 93.4683 270.838 93.4683C270.981 93.4683 271.111 93.4484 271.227 93.4084C271.344 93.3666 271.444 93.3057 271.53 93.2257C271.615 93.1458 271.68 93.0467 271.723 92.9286L272.645 93.0322C272.587 93.2757 272.476 93.4883 272.312 93.6701C272.15 93.85 271.943 93.9899 271.691 94.0899C271.438 94.188 271.149 94.2371 270.824 94.2371ZM276.71 91.075L275.81 91.1731C275.785 91.0823 275.74 90.9968 275.677 90.9169C275.615 90.8369 275.531 90.7724 275.426 90.7233C275.321 90.6743 275.191 90.6497 275.039 90.6497C274.833 90.6497 274.661 90.6943 274.521 90.7833C274.383 90.8724 274.315 90.9878 274.316 91.1295C274.315 91.2513 274.359 91.3503 274.45 91.4266C274.543 91.503 274.695 91.5656 274.908 91.6147L275.622 91.7674C276.018 91.8528 276.313 91.9882 276.505 92.1735C276.7 92.3589 276.798 92.6015 276.8 92.9014C276.798 93.1649 276.721 93.3975 276.568 93.5992C276.417 93.7991 276.207 93.9554 275.938 94.068C275.669 94.1807 275.36 94.2371 275.012 94.2371C274.499 94.2371 274.087 94.1298 273.774 93.9154C273.461 93.6991 273.275 93.3984 273.215 93.0131L274.177 92.9204C274.221 93.1094 274.314 93.2521 274.455 93.3484C274.597 93.4447 274.782 93.4929 275.009 93.4929C275.243 93.4929 275.431 93.4447 275.573 93.3484C275.717 93.2521 275.788 93.1331 275.788 92.9913C275.788 92.8714 275.742 92.7723 275.649 92.6942C275.559 92.616 275.417 92.5561 275.224 92.5143L274.51 92.3643C274.108 92.2807 273.811 92.1399 273.619 91.9418C273.426 91.7419 273.331 91.4893 273.332 91.184C273.331 90.926 273.401 90.7024 273.542 90.5134C273.686 90.3226 273.885 90.1754 274.139 90.0718C274.396 89.9664 274.691 89.9137 275.025 89.9137C275.516 89.9137 275.902 90.0182 276.184 90.2272C276.467 90.4362 276.643 90.7188 276.71 91.075Z" fill="#FCFCFD"/>
<rect x="0.915662" y="0.239881" width="394.844" height="181.83" rx="3.59821" stroke="#CA3A31" stroke-opacity="0.1" stroke-width="0.479762"/>
</svg>
