<svg width="433" height="200" viewBox="0 0 433 200" fill="none" xmlns="http://www.w3.org/2000/svg">
<rect width="433" height="200" rx="6.50386" fill="#CA3A31" fill-opacity="0.1"/>
<path d="M33.8222 183.273L24.9353 167.84C24.7132 167.461 24.3962 167.148 24.0156 166.93C23.6351 166.712 23.2042 166.598 22.7657 166.598C22.3271 166.598 21.8963 166.712 21.5157 166.93C21.1351 167.148 20.8181 167.461 20.596 167.84L11.7091 183.273C11.4954 183.639 11.3828 184.055 11.3828 184.478C11.3828 184.902 11.4954 185.318 11.7091 185.683C11.9283 186.064 12.2448 186.379 12.6261 186.597C13.0074 186.815 13.4397 186.927 13.8787 186.922H31.6526C32.0913 186.926 32.5232 186.814 32.9041 186.596C33.2849 186.379 33.6011 186.064 33.8202 185.683C34.0342 185.318 34.1471 184.902 34.1475 184.479C34.1478 184.055 34.0356 183.639 33.8222 183.273ZM21.9527 174.728C21.9527 174.512 22.0383 174.305 22.1908 174.153C22.3433 174 22.55 173.915 22.7657 173.915C22.9813 173.915 23.1881 174 23.3405 174.153C23.493 174.305 23.5786 174.512 23.5786 174.728V178.792C23.5786 179.008 23.493 179.215 23.3405 179.367C23.1881 179.52 22.9813 179.605 22.7657 179.605C22.55 179.605 22.3433 179.52 22.1908 179.367C22.0383 179.215 21.9527 179.008 21.9527 178.792V174.728ZM22.7657 183.67C22.5245 183.67 22.2887 183.599 22.0882 183.465C21.8876 183.331 21.7313 183.14 21.639 182.918C21.5467 182.695 21.5226 182.45 21.5696 182.213C21.6167 181.976 21.7328 181.759 21.9034 181.589C22.0739 181.418 22.2912 181.302 22.5277 181.255C22.7643 181.208 23.0095 181.232 23.2323 181.324C23.4552 181.417 23.6456 181.573 23.7796 181.773C23.9136 181.974 23.9851 182.21 23.9851 182.451C23.9851 182.774 23.8566 183.084 23.628 183.313C23.3993 183.542 23.0891 183.67 22.7657 183.67Z" fill="#CA3A31"/>
<g clip-path="url(#clip0_591_14655)">
<rect width="272.349" height="49.5193" transform="translate(80.3281 75.2422)" fill="#FCFCFD"/>
<path d="M193.975 103.5V95.2224H197.079C197.715 95.2224 198.249 95.3409 198.68 95.578C199.113 95.8152 199.441 96.1412 199.662 96.5562C199.885 96.9684 199.997 97.4373 199.997 97.9627C199.997 98.4935 199.885 98.9651 199.662 99.3773C199.438 99.7896 199.108 100.114 198.672 100.351C198.235 100.586 197.697 100.703 197.059 100.703H195.002V99.4703H196.857C197.229 99.4703 197.533 99.4056 197.77 99.2763C198.007 99.147 198.182 98.9691 198.296 98.7428C198.412 98.5164 198.469 98.2564 198.469 97.9627C198.469 97.669 198.412 97.4103 198.296 97.1867C198.182 96.963 198.006 96.7892 197.766 96.6653C197.529 96.5386 197.223 96.4753 196.849 96.4753H195.474V103.5H193.975ZM203.691 103.621C203.069 103.621 202.531 103.492 202.079 103.233C201.629 102.972 201.282 102.603 201.04 102.126C200.797 101.646 200.676 101.082 200.676 100.432C200.676 99.7937 200.797 99.2332 201.04 98.7509C201.285 98.2658 201.627 97.8886 202.067 97.6192C202.506 97.347 203.022 97.2109 203.615 97.2109C203.997 97.2109 204.358 97.2729 204.698 97.3969C205.04 97.5181 205.342 97.7067 205.603 97.9627C205.867 98.2187 206.075 98.5447 206.226 98.9408C206.376 99.3342 206.452 99.8031 206.452 100.347V100.796H201.363V99.8098H205.049C205.047 99.5296 204.986 99.2803 204.868 99.0621C204.749 98.8411 204.583 98.6673 204.37 98.5407C204.16 98.414 203.915 98.3507 203.635 98.3507C203.336 98.3507 203.073 98.4235 202.847 98.569C202.62 98.7118 202.444 98.9004 202.317 99.1348C202.193 99.3666 202.13 99.6212 202.127 99.8987V100.76C202.127 101.121 202.193 101.431 202.325 101.689C202.457 101.945 202.642 102.142 202.879 102.279C203.116 102.414 203.394 102.481 203.712 102.481C203.924 102.481 204.117 102.452 204.29 102.393C204.462 102.331 204.612 102.24 204.738 102.122C204.865 102.003 204.96 101.856 205.025 101.681L206.391 101.835C206.305 102.196 206.141 102.511 205.898 102.781C205.658 103.047 205.351 103.255 204.977 103.403C204.602 103.549 204.174 103.621 203.691 103.621ZM207.486 103.5V97.2918H208.905V98.3265H208.97C209.083 97.9681 209.277 97.6919 209.552 97.4979C209.829 97.3012 210.146 97.2029 210.502 97.2029C210.582 97.2029 210.673 97.2069 210.772 97.215C210.875 97.2204 210.96 97.2298 211.027 97.2433V98.5892C210.965 98.5676 210.867 98.5488 210.732 98.5326C210.6 98.5137 210.472 98.5043 210.348 98.5043C210.081 98.5043 209.841 98.5622 209.629 98.6781C209.418 98.7913 209.253 98.9489 209.131 99.151C209.01 99.3531 208.95 99.5862 208.95 99.8502V103.5H207.486ZM216.703 98.9327L215.369 99.0783C215.331 98.9435 215.265 98.8169 215.171 98.6983C215.079 98.5798 214.955 98.4841 214.799 98.4114C214.643 98.3386 214.451 98.3022 214.225 98.3022C213.921 98.3022 213.665 98.3682 213.457 98.5003C213.252 98.6323 213.151 98.8034 213.154 99.0136C213.151 99.1941 213.217 99.341 213.352 99.4541C213.489 99.5673 213.716 99.6603 214.031 99.733L215.09 99.9594C215.677 100.086 216.114 100.287 216.4 100.562C216.688 100.836 216.833 101.196 216.836 101.641C216.833 102.031 216.719 102.376 216.492 102.675C216.269 102.972 215.958 103.204 215.559 103.371C215.16 103.538 214.702 103.621 214.185 103.621C213.425 103.621 212.813 103.462 212.35 103.144C211.886 102.824 211.61 102.378 211.521 101.806L212.948 101.669C213.012 101.949 213.15 102.161 213.36 102.304C213.57 102.446 213.844 102.518 214.181 102.518C214.528 102.518 214.807 102.446 215.017 102.304C215.23 102.161 215.337 101.984 215.337 101.774C215.337 101.596 215.268 101.449 215.13 101.334C214.996 101.218 214.786 101.129 214.5 101.067L213.441 100.845C212.845 100.721 212.405 100.512 212.119 100.218C211.834 99.9216 211.692 99.5471 211.695 99.0944C211.692 98.7118 211.796 98.3804 212.006 98.1001C212.219 97.8172 212.514 97.5989 212.891 97.4454C213.271 97.2891 213.709 97.2109 214.205 97.2109C214.932 97.2109 215.505 97.3659 215.923 97.6757C216.343 97.9856 216.603 98.4046 216.703 98.9327ZM220.547 103.621C219.941 103.621 219.416 103.488 218.971 103.221C218.526 102.954 218.181 102.581 217.936 102.102C217.694 101.622 217.573 101.061 217.573 100.42C217.573 99.7788 217.694 99.217 217.936 98.7347C218.181 98.2524 218.526 97.8778 218.971 97.6111C219.416 97.3443 219.941 97.2109 220.547 97.2109C221.154 97.2109 221.679 97.3443 222.124 97.6111C222.568 97.8778 222.912 98.2524 223.154 98.7347C223.399 99.217 223.522 99.7788 223.522 100.42C223.522 101.061 223.399 101.622 223.154 102.102C222.912 102.581 222.568 102.954 222.124 103.221C221.679 103.488 221.154 103.621 220.547 103.621ZM220.555 102.449C220.884 102.449 221.159 102.359 221.38 102.178C221.601 101.995 221.765 101.75 221.873 101.443C221.983 101.136 222.039 100.793 222.039 100.416C222.039 100.036 221.983 99.6926 221.873 99.3854C221.765 99.0756 221.601 98.829 221.38 98.6458C221.159 98.4626 220.884 98.3709 220.555 98.3709C220.219 98.3709 219.938 98.4626 219.715 98.6458C219.494 98.829 219.328 99.0756 219.218 99.3854C219.11 99.6926 219.056 100.036 219.056 100.416C219.056 100.793 219.11 101.136 219.218 101.443C219.328 101.75 219.494 101.995 219.715 102.178C219.938 102.359 220.219 102.449 220.555 102.449ZM226.024 99.8624V103.5H224.561V97.2918H225.959V98.3467H226.032C226.175 97.9991 226.402 97.7229 226.715 97.5181C227.03 97.3133 227.42 97.2109 227.883 97.2109C228.311 97.2109 228.685 97.3025 229.003 97.4858C229.323 97.669 229.571 97.9344 229.746 98.282C229.924 98.6296 230.012 99.0513 230.009 99.5471V103.5H228.546V99.7734C228.546 99.3585 228.438 99.0338 228.223 98.7994C228.01 98.5649 227.715 98.4477 227.337 98.4477C227.081 98.4477 226.854 98.5043 226.654 98.6175C226.458 98.728 226.303 98.8883 226.19 99.0985C226.079 99.3086 226.024 99.5633 226.024 99.8624ZM233.08 103.625C232.686 103.625 232.332 103.555 232.017 103.415C231.704 103.272 231.456 103.062 231.273 102.785C231.092 102.507 231.002 102.165 231.002 101.758C231.002 101.408 231.067 101.118 231.196 100.889C231.326 100.66 231.502 100.477 231.726 100.339C231.949 100.202 232.201 100.098 232.481 100.028C232.764 99.9553 233.057 99.9028 233.359 99.8704C233.722 99.8327 234.017 99.799 234.244 99.7694C234.47 99.7371 234.634 99.6886 234.737 99.6239C234.842 99.5565 234.894 99.4528 234.894 99.3127V99.2884C234.894 98.9839 234.804 98.7482 234.624 98.5811C234.443 98.414 234.183 98.3305 233.844 98.3305C233.485 98.3305 233.201 98.4087 232.991 98.5649C232.783 98.7212 232.643 98.9058 232.57 99.1187L231.204 98.9247C231.312 98.5474 231.49 98.2322 231.738 97.9789C231.986 97.7229 232.289 97.5316 232.647 97.4049C233.006 97.2756 233.402 97.2109 233.835 97.2109C234.135 97.2109 234.432 97.246 234.729 97.316C235.025 97.3861 235.296 97.5019 235.541 97.6636C235.786 97.8226 235.983 98.0395 236.131 98.3144C236.282 98.5892 236.358 98.9327 236.358 99.345V103.5H234.951V102.647H234.903C234.814 102.82 234.688 102.981 234.527 103.132C234.368 103.28 234.167 103.4 233.924 103.492C233.685 103.581 233.403 103.625 233.08 103.625ZM233.46 102.55C233.753 102.55 234.008 102.492 234.224 102.376C234.439 102.258 234.605 102.102 234.721 101.908C234.839 101.714 234.898 101.502 234.898 101.273V100.541C234.853 100.579 234.775 100.614 234.664 100.646C234.556 100.679 234.435 100.707 234.3 100.731C234.166 100.756 234.032 100.777 233.9 100.796C233.768 100.815 233.654 100.831 233.557 100.845C233.338 100.874 233.143 100.923 232.971 100.99C232.798 101.057 232.662 101.152 232.562 101.273C232.463 101.392 232.413 101.545 232.413 101.734C232.413 102.003 232.511 102.207 232.708 102.344C232.905 102.481 233.155 102.55 233.46 102.55ZM239.089 95.2224V103.5H237.626V95.2224H239.089Z" fill="#217CF5"/>
<path d="M207.914 114.449H224.174" stroke="#217CF5" stroke-width="1.62596" stroke-linecap="round"/>
</g>
<rect x="0.406491" y="0.406491" width="432.187" height="199.187" rx="6.09737" stroke="#CA3A31" stroke-opacity="0.1" stroke-width="0.812982"/>
<defs>
<clipPath id="clip0_591_14655">
<rect width="272.349" height="49.5193" fill="white" transform="translate(80.3281 75.2422)"/>
</clipPath>
</defs>
</svg>
