<svg width="433" height="200" viewBox="0 0 433 200" fill="none" xmlns="http://www.w3.org/2000/svg">
<rect width="433" height="200" rx="6.50386" fill="#CA3A31" fill-opacity="0.1"/>
<path d="M33.8222 183.277L24.9353 167.843C24.7132 167.465 24.3962 167.152 24.0156 166.934C23.6351 166.716 23.2042 166.602 22.7657 166.602C22.3271 166.602 21.8963 166.716 21.5157 166.934C21.1351 167.152 20.8181 167.465 20.596 167.843L11.7091 183.277C11.4954 183.643 11.3828 184.059 11.3828 184.482C11.3828 184.906 11.4954 185.322 11.7091 185.687C11.9283 186.068 12.2448 186.383 12.6261 186.601C13.0074 186.818 13.4397 186.931 13.8787 186.926H31.6526C32.0913 186.93 32.5232 186.818 32.9041 186.6C33.2849 186.383 33.6011 186.067 33.8202 185.687C34.0342 185.322 34.1471 184.906 34.1475 184.482C34.1478 184.059 34.0356 183.643 33.8222 183.277ZM21.9527 174.731C21.9527 174.516 22.0383 174.309 22.1908 174.157C22.3433 174.004 22.55 173.918 22.7657 173.918C22.9813 173.918 23.1881 174.004 23.3405 174.157C23.493 174.309 23.5786 174.516 23.5786 174.731V178.796C23.5786 179.012 23.493 179.219 23.3405 179.371C23.1881 179.524 22.9813 179.609 22.7657 179.609C22.55 179.609 22.3433 179.524 22.1908 179.371C22.0383 179.219 21.9527 179.012 21.9527 178.796V174.731ZM22.7657 183.674C22.5245 183.674 22.2887 183.603 22.0882 183.469C21.8876 183.335 21.7313 183.144 21.639 182.921C21.5467 182.699 21.5226 182.453 21.5696 182.217C21.6167 181.98 21.7328 181.763 21.9034 181.592C22.0739 181.422 22.2912 181.306 22.5277 181.259C22.7643 181.212 23.0095 181.236 23.2323 181.328C23.4552 181.42 23.6456 181.577 23.7796 181.777C23.9136 181.978 23.9851 182.214 23.9851 182.455C23.9851 182.778 23.8566 183.088 23.628 183.317C23.3993 183.546 23.0891 183.674 22.7657 183.674Z" fill="#CA3A31"/>
<g clip-path="url(#clip0_591_14666)">
<rect width="272.349" height="49.5193" transform="translate(80.3281 75.2422)" fill="#FCFCFD"/>
<path d="M124.264 103.5V95.2224H127.368C128.004 95.2224 128.538 95.3409 128.969 95.578C129.403 95.8152 129.73 96.1412 129.951 96.5562C130.175 96.9684 130.286 97.4373 130.286 97.9627C130.286 98.4935 130.175 98.9651 129.951 99.3773C129.727 99.7896 129.397 100.114 128.961 100.351C128.524 100.586 127.987 100.703 127.348 100.703H125.291V99.4703H127.146C127.518 99.4703 127.822 99.4056 128.059 99.2763C128.296 99.147 128.472 98.9691 128.585 98.7428C128.701 98.5164 128.759 98.2564 128.759 97.9627C128.759 97.669 128.701 97.4103 128.585 97.1867C128.472 96.963 128.295 96.7892 128.055 96.6653C127.818 96.5386 127.512 96.4753 127.138 96.4753H125.764V103.5H124.264ZM133.98 103.621C133.358 103.621 132.82 103.492 132.368 103.233C131.918 102.972 131.571 102.603 131.329 102.126C131.086 101.646 130.965 101.082 130.965 100.432C130.965 99.7937 131.086 99.2332 131.329 98.7509C131.574 98.2658 131.916 97.8886 132.356 97.6192C132.795 97.347 133.311 97.2109 133.904 97.2109C134.286 97.2109 134.647 97.2729 134.987 97.3969C135.329 97.5181 135.631 97.7067 135.892 97.9627C136.156 98.2187 136.364 98.5447 136.515 98.9408C136.666 99.3342 136.741 99.8031 136.741 100.347V100.796H131.652V99.8098H135.338C135.336 99.5296 135.275 99.2803 135.157 99.0621C135.038 98.8411 134.872 98.6673 134.659 98.5407C134.449 98.414 134.204 98.3507 133.924 98.3507C133.625 98.3507 133.362 98.4235 133.136 98.569C132.909 98.7118 132.733 98.9004 132.606 99.1348C132.482 99.3666 132.419 99.6212 132.416 99.8987V100.76C132.416 101.121 132.482 101.431 132.614 101.689C132.746 101.945 132.931 102.142 133.168 102.279C133.405 102.414 133.683 102.481 134.001 102.481C134.213 102.481 134.406 102.452 134.579 102.393C134.751 102.331 134.901 102.24 135.027 102.122C135.154 102.003 135.25 101.856 135.314 101.681L136.68 101.835C136.594 102.196 136.43 102.511 136.187 102.781C135.947 103.047 135.64 103.255 135.266 103.403C134.891 103.549 134.463 103.621 133.98 103.621ZM137.776 103.5V97.2918H139.194V98.3265H139.259C139.372 97.9681 139.566 97.6919 139.841 97.4979C140.118 97.3012 140.435 97.2029 140.791 97.2029C140.872 97.2029 140.962 97.2069 141.062 97.215C141.164 97.2204 141.249 97.2298 141.316 97.2433V98.5892C141.254 98.5676 141.156 98.5488 141.021 98.5326C140.889 98.5137 140.761 98.5043 140.637 98.5043C140.37 98.5043 140.131 98.5622 139.918 98.6781C139.708 98.7913 139.542 98.9489 139.421 99.151C139.299 99.3531 139.239 99.5862 139.239 99.8502V103.5H137.776ZM146.992 98.9327L145.658 99.0783C145.62 98.9435 145.554 98.8169 145.46 98.6983C145.368 98.5798 145.244 98.4841 145.088 98.4114C144.932 98.3386 144.74 98.3022 144.514 98.3022C144.21 98.3022 143.954 98.3682 143.746 98.5003C143.541 98.6323 143.44 98.8034 143.443 99.0136C143.44 99.1941 143.506 99.341 143.641 99.4541C143.778 99.5673 144.005 99.6603 144.32 99.733L145.379 99.9594C145.966 100.086 146.403 100.287 146.689 100.562C146.977 100.836 147.122 101.196 147.125 101.641C147.122 102.031 147.008 102.376 146.782 102.675C146.558 102.972 146.247 103.204 145.848 103.371C145.449 103.538 144.991 103.621 144.474 103.621C143.714 103.621 143.102 103.462 142.639 103.144C142.175 102.824 141.899 102.378 141.81 101.806L143.237 101.669C143.302 101.949 143.439 102.161 143.649 102.304C143.859 102.446 144.133 102.518 144.47 102.518C144.817 102.518 145.096 102.446 145.306 102.304C145.519 102.161 145.626 101.984 145.626 101.774C145.626 101.596 145.557 101.449 145.419 101.334C145.285 101.218 145.075 101.129 144.789 101.067L143.73 100.845C143.134 100.721 142.694 100.512 142.408 100.218C142.123 99.9216 141.981 99.5471 141.984 99.0944C141.981 98.7118 142.085 98.3804 142.295 98.1001C142.508 97.8172 142.803 97.5989 143.18 97.4454C143.56 97.2891 143.998 97.2109 144.494 97.2109C145.221 97.2109 145.794 97.3659 146.212 97.6757C146.632 97.9856 146.892 98.4046 146.992 98.9327ZM150.836 103.621C150.23 103.621 149.705 103.488 149.26 103.221C148.815 102.954 148.471 102.581 148.225 102.102C147.983 101.622 147.862 101.061 147.862 100.42C147.862 99.7788 147.983 99.217 148.225 98.7347C148.471 98.2524 148.815 97.8778 149.26 97.6111C149.705 97.3443 150.23 97.2109 150.836 97.2109C151.443 97.2109 151.968 97.3443 152.413 97.6111C152.857 97.8778 153.201 98.2524 153.443 98.7347C153.689 99.217 153.811 99.7788 153.811 100.42C153.811 101.061 153.689 101.622 153.443 102.102C153.201 102.581 152.857 102.954 152.413 103.221C151.968 103.488 151.443 103.621 150.836 103.621ZM150.844 102.449C151.173 102.449 151.448 102.359 151.669 102.178C151.89 101.995 152.054 101.75 152.162 101.443C152.273 101.136 152.328 100.793 152.328 100.416C152.328 100.036 152.273 99.6926 152.162 99.3854C152.054 99.0756 151.89 98.829 151.669 98.6458C151.448 98.4626 151.173 98.3709 150.844 98.3709C150.508 98.3709 150.227 98.4626 150.004 98.6458C149.783 98.829 149.617 99.0756 149.507 99.3854C149.399 99.6926 149.345 100.036 149.345 100.416C149.345 100.793 149.399 101.136 149.507 101.443C149.617 101.75 149.783 101.995 150.004 102.178C150.227 102.359 150.508 102.449 150.844 102.449ZM156.313 99.8624V103.5H154.85V97.2918H156.248V98.3467H156.321C156.464 97.9991 156.691 97.7229 157.004 97.5181C157.319 97.3133 157.709 97.2109 158.172 97.2109C158.601 97.2109 158.974 97.3025 159.292 97.4858C159.612 97.669 159.86 97.9344 160.035 98.282C160.213 98.6296 160.301 99.0513 160.298 99.5471V103.5H158.835V99.7734C158.835 99.3585 158.727 99.0338 158.512 98.7994C158.299 98.5649 158.004 98.4477 157.626 98.4477C157.37 98.4477 157.143 98.5043 156.943 98.6175C156.747 98.728 156.592 98.8883 156.479 99.0985C156.368 99.3086 156.313 99.5633 156.313 99.8624ZM163.369 103.625C162.975 103.625 162.621 103.555 162.306 103.415C161.993 103.272 161.745 103.062 161.562 102.785C161.382 102.507 161.291 102.165 161.291 101.758C161.291 101.408 161.356 101.118 161.485 100.889C161.615 100.66 161.791 100.477 162.015 100.339C162.238 100.202 162.49 100.098 162.771 100.028C163.053 99.9553 163.346 99.9028 163.648 99.8704C164.011 99.8327 164.306 99.799 164.533 99.7694C164.759 99.7371 164.923 99.6886 165.026 99.6239C165.131 99.5565 165.184 99.4528 165.184 99.3127V99.2884C165.184 98.9839 165.093 98.7482 164.913 98.5811C164.732 98.414 164.472 98.3305 164.133 98.3305C163.774 98.3305 163.49 98.4087 163.28 98.5649C163.072 98.7212 162.932 98.9058 162.859 99.1187L161.493 98.9247C161.601 98.5474 161.779 98.2322 162.027 97.9789C162.275 97.7229 162.578 97.5316 162.936 97.4049C163.295 97.2756 163.691 97.2109 164.125 97.2109C164.424 97.2109 164.721 97.246 165.018 97.316C165.314 97.3861 165.585 97.5019 165.83 97.6636C166.075 97.8226 166.272 98.0395 166.42 98.3144C166.571 98.5892 166.647 98.9327 166.647 99.345V103.5H165.24V102.647H165.192C165.103 102.82 164.977 102.981 164.816 103.132C164.657 103.28 164.456 103.4 164.213 103.492C163.974 103.581 163.692 103.625 163.369 103.625ZM163.749 102.55C164.042 102.55 164.297 102.492 164.513 102.376C164.728 102.258 164.894 102.102 165.01 101.908C165.128 101.714 165.188 101.502 165.188 101.273V100.541C165.142 100.579 165.064 100.614 164.953 100.646C164.845 100.679 164.724 100.707 164.589 100.731C164.455 100.756 164.321 100.777 164.189 100.796C164.057 100.815 163.943 100.831 163.846 100.845C163.627 100.874 163.432 100.923 163.26 100.99C163.087 101.057 162.951 101.152 162.851 101.273C162.752 101.392 162.702 101.545 162.702 101.734C162.702 102.003 162.8 102.207 162.997 102.344C163.194 102.481 163.444 102.55 163.749 102.55ZM169.378 95.2224V103.5H167.915V95.2224H169.378Z" fill="#217CF5"/>
<path d="M137.914 114.449H154.174" stroke="#217CF5" stroke-width="1.62596" stroke-linecap="round"/>
<path d="M260.216 103.5V95.2224H265.6V96.4794H261.716V98.7266H265.321V99.9836H261.716V102.243H265.632V103.5H260.216ZM269.166 103.609C268.678 103.609 268.242 103.484 267.856 103.233C267.471 102.983 267.166 102.619 266.943 102.142C266.719 101.665 266.607 101.086 266.607 100.404C266.607 99.7142 266.72 99.1321 266.947 98.6579C267.176 98.181 267.484 97.8212 267.872 97.5787C268.26 97.3335 268.693 97.2109 269.17 97.2109C269.534 97.2109 269.833 97.2729 270.067 97.3969C270.302 97.5181 270.487 97.665 270.625 97.8374C270.762 98.0072 270.869 98.1675 270.944 98.3184H271.005V95.2224H272.472V103.5H271.033V102.522H270.944C270.869 102.673 270.76 102.833 270.617 103.003C270.474 103.17 270.285 103.313 270.051 103.431C269.816 103.55 269.521 103.609 269.166 103.609ZM269.574 102.409C269.884 102.409 270.148 102.325 270.366 102.158C270.584 101.988 270.75 101.753 270.863 101.451C270.976 101.149 271.033 100.797 271.033 100.396C271.033 99.9944 270.976 99.6455 270.863 99.3491C270.753 99.0527 270.588 98.8223 270.37 98.6579C270.155 98.4935 269.889 98.4114 269.574 98.4114C269.248 98.4114 268.976 98.4962 268.758 98.666C268.539 98.8357 268.375 99.0702 268.264 99.3693C268.154 99.6684 268.099 100.011 268.099 100.396C268.099 100.784 268.154 101.13 268.264 101.435C268.378 101.736 268.543 101.975 268.762 102.15C268.983 102.322 269.253 102.409 269.574 102.409ZM277.785 100.889V97.2918H279.248V103.5H277.829V102.397H277.765C277.624 102.744 277.394 103.028 277.073 103.249C276.755 103.47 276.363 103.581 275.897 103.581C275.49 103.581 275.131 103.491 274.818 103.31C274.508 103.127 274.266 102.861 274.091 102.514C273.915 102.164 273.828 101.74 273.828 101.245V97.2918H275.291V101.018C275.291 101.412 275.399 101.724 275.614 101.956C275.83 102.188 276.113 102.304 276.463 102.304C276.679 102.304 276.887 102.251 277.09 102.146C277.292 102.041 277.457 101.885 277.587 101.677C277.719 101.467 277.785 101.204 277.785 100.889ZM283.257 103.621C282.638 103.621 282.105 103.485 281.661 103.213C281.219 102.941 280.878 102.565 280.638 102.085C280.401 101.603 280.282 101.048 280.282 100.42C280.282 99.7896 280.404 99.2332 280.646 98.7509C280.889 98.2658 281.231 97.8886 281.673 97.6192C282.117 97.347 282.643 97.2109 283.249 97.2109C283.753 97.2109 284.199 97.3039 284.587 97.4898C284.978 97.673 285.289 97.9331 285.521 98.2699C285.752 98.604 285.884 98.9947 285.917 99.442H284.518C284.462 99.1429 284.327 98.8937 284.114 98.6943C283.904 98.4922 283.622 98.3911 283.269 98.3911C282.97 98.3911 282.708 98.472 282.481 98.6337C282.255 98.7926 282.078 99.0217 281.952 99.3208C281.828 99.6199 281.766 99.9782 281.766 100.396C281.766 100.819 281.828 101.183 281.952 101.487C282.076 101.789 282.249 102.022 282.473 102.186C282.699 102.348 282.965 102.429 283.269 102.429C283.485 102.429 283.678 102.389 283.847 102.308C284.02 102.224 284.164 102.104 284.28 101.948C284.396 101.792 284.475 101.602 284.518 101.378H285.917C285.882 101.817 285.752 102.207 285.529 102.546C285.305 102.883 285.001 103.147 284.615 103.338C284.23 103.527 283.777 103.621 283.257 103.621ZM288.701 103.625C288.308 103.625 287.954 103.555 287.638 103.415C287.326 103.272 287.078 103.062 286.895 102.785C286.714 102.507 286.624 102.165 286.624 101.758C286.624 101.408 286.689 101.118 286.818 100.889C286.947 100.66 287.124 100.477 287.347 100.339C287.571 100.202 287.823 100.098 288.103 100.028C288.386 99.9553 288.679 99.9028 288.98 99.8704C289.344 99.8327 289.639 99.799 289.865 99.7694C290.092 99.7371 290.256 99.6886 290.359 99.6239C290.464 99.5565 290.516 99.4528 290.516 99.3127V99.2884C290.516 98.9839 290.426 98.7482 290.245 98.5811C290.065 98.414 289.805 98.3305 289.465 98.3305C289.107 98.3305 288.823 98.4087 288.613 98.5649C288.405 98.7212 288.265 98.9058 288.192 99.1187L286.826 98.9247C286.934 98.5474 287.112 98.2322 287.36 97.9789C287.607 97.7229 287.911 97.5316 288.269 97.4049C288.627 97.2756 289.023 97.2109 289.457 97.2109C289.756 97.2109 290.054 97.246 290.35 97.316C290.647 97.3861 290.918 97.5019 291.163 97.6636C291.408 97.8226 291.605 98.0395 291.753 98.3144C291.904 98.5892 291.979 98.9327 291.979 99.345V103.5H290.573V102.647H290.524C290.435 102.82 290.31 102.981 290.148 103.132C289.989 103.28 289.789 103.4 289.546 103.492C289.306 103.581 289.025 103.625 288.701 103.625ZM289.081 102.55C289.375 102.55 289.63 102.492 289.845 102.376C290.061 102.258 290.227 102.102 290.342 101.908C290.461 101.714 290.52 101.502 290.52 101.273V100.541C290.474 100.579 290.396 100.614 290.286 100.646C290.178 100.679 290.057 100.707 289.922 100.731C289.787 100.756 289.654 100.777 289.522 100.796C289.39 100.815 289.275 100.831 289.178 100.845C288.96 100.874 288.765 100.923 288.592 100.99C288.42 101.057 288.284 101.152 288.184 101.273C288.084 101.392 288.035 101.545 288.035 101.734C288.035 102.003 288.133 102.207 288.33 102.344C288.526 102.481 288.777 102.55 289.081 102.55ZM296.347 97.2918V98.4235H292.778V97.2918H296.347ZM293.66 95.8044H295.123V101.633C295.123 101.829 295.152 101.98 295.212 102.085C295.274 102.188 295.354 102.258 295.454 102.296C295.554 102.333 295.664 102.352 295.786 102.352C295.877 102.352 295.961 102.345 296.036 102.332C296.114 102.318 296.174 102.306 296.214 102.296L296.461 103.439C296.382 103.466 296.271 103.496 296.125 103.528C295.982 103.561 295.807 103.579 295.6 103.585C295.233 103.596 294.903 103.54 294.609 103.419C294.316 103.295 294.083 103.104 293.91 102.845C293.74 102.587 293.657 102.263 293.66 101.875V95.8044ZM297.368 103.5V97.2918H298.831V103.5H297.368ZM298.103 96.4107C297.872 96.4107 297.672 96.3339 297.505 96.1803C297.338 96.024 297.255 95.8367 297.255 95.6185C297.255 95.3975 297.338 95.2102 297.505 95.0566C297.672 94.9004 297.872 94.8222 298.103 94.8222C298.338 94.8222 298.537 94.9004 298.702 95.0566C298.869 95.2102 298.952 95.3975 298.952 95.6185C298.952 95.8367 298.869 96.024 298.702 96.1803C298.537 96.3339 298.338 96.4107 298.103 96.4107ZM302.84 103.621C302.234 103.621 301.709 103.488 301.264 103.221C300.819 102.954 300.474 102.581 300.229 102.102C299.987 101.622 299.866 101.061 299.866 100.42C299.866 99.7788 299.987 99.217 300.229 98.7347C300.474 98.2524 300.819 97.8778 301.264 97.6111C301.709 97.3443 302.234 97.2109 302.84 97.2109C303.447 97.2109 303.972 97.3443 304.417 97.6111C304.861 97.8778 305.205 98.2524 305.447 98.7347C305.692 99.217 305.815 99.7788 305.815 100.42C305.815 101.061 305.692 101.622 305.447 102.102C305.205 102.581 304.861 102.954 304.417 103.221C303.972 103.488 303.447 103.621 302.84 103.621ZM302.848 102.449C303.177 102.449 303.452 102.359 303.673 102.178C303.894 101.995 304.058 101.75 304.166 101.443C304.276 101.136 304.332 100.793 304.332 100.416C304.332 100.036 304.276 99.6926 304.166 99.3854C304.058 99.0756 303.894 98.829 303.673 98.6458C303.452 98.4626 303.177 98.3709 302.848 98.3709C302.512 98.3709 302.231 98.4626 302.008 98.6458C301.787 98.829 301.621 99.0756 301.511 99.3854C301.403 99.6926 301.349 100.036 301.349 100.416C301.349 100.793 301.403 101.136 301.511 101.443C301.621 101.75 301.787 101.995 302.008 102.178C302.231 102.359 302.512 102.449 302.848 102.449ZM308.317 99.8624V103.5H306.854V97.2918H308.252V98.3467H308.325C308.468 97.9991 308.695 97.7229 309.008 97.5181C309.323 97.3133 309.713 97.2109 310.176 97.2109C310.604 97.2109 310.978 97.3025 311.296 97.4858C311.616 97.669 311.864 97.9344 312.039 98.282C312.217 98.6296 312.305 99.0513 312.302 99.5471V103.5H310.839V99.7734C310.839 99.3585 310.731 99.0338 310.516 98.7994C310.303 98.5649 310.008 98.4477 309.63 98.4477C309.374 98.4477 309.147 98.5043 308.947 98.6175C308.751 98.728 308.596 98.8883 308.483 99.0985C308.372 99.3086 308.317 99.5633 308.317 99.8624Z" fill="#217CF5"/>
<path d="M277.344 114.449H293.603" stroke="#217CF5" stroke-width="1.62596" stroke-linecap="round"/>
</g>
<rect x="0.406491" y="0.406491" width="432.187" height="199.187" rx="6.09737" stroke="#CA3A31" stroke-opacity="0.1" stroke-width="0.812982"/>
<defs>
<clipPath id="clip0_591_14666">
<rect width="272.349" height="49.5193" fill="white" transform="translate(80.3281 75.2422)"/>
</clipPath>
</defs>
</svg>
