<svg width="804" height="183" viewBox="0 0 804 183" fill="none" xmlns="http://www.w3.org/2000/svg">
<rect width="804" height="183" fill="#F9FAFB"/>
<g opacity="0.2" clip-path="url(#clip0_858_12502)">
<path d="M260.959 118V109.273H262.276V116.866H266.23V118H260.959ZM269.535 118.145C269.12 118.145 268.745 118.068 268.41 117.915C268.075 117.759 267.809 117.533 267.613 117.237C267.42 116.942 267.323 116.58 267.323 116.151C267.323 115.781 267.394 115.477 267.536 115.239C267.678 115 267.87 114.811 268.112 114.672C268.353 114.533 268.623 114.428 268.921 114.357C269.219 114.286 269.523 114.232 269.833 114.195C270.225 114.149 270.543 114.112 270.788 114.084C271.032 114.053 271.21 114.003 271.32 113.935C271.431 113.866 271.487 113.756 271.487 113.602V113.572C271.487 113.2 271.381 112.912 271.171 112.707C270.964 112.503 270.654 112.401 270.242 112.401C269.813 112.401 269.475 112.496 269.228 112.686C268.984 112.874 268.815 113.082 268.721 113.312L267.523 113.04C267.665 112.642 267.873 112.321 268.146 112.077C268.421 111.83 268.738 111.651 269.096 111.54C269.454 111.426 269.83 111.369 270.225 111.369C270.487 111.369 270.763 111.401 271.056 111.463C271.352 111.523 271.627 111.634 271.883 111.795C272.141 111.957 272.353 112.189 272.518 112.49C272.683 112.788 272.765 113.176 272.765 113.653V118H271.521V117.105H271.469C271.387 117.27 271.263 117.432 271.099 117.591C270.934 117.75 270.722 117.882 270.464 117.987C270.205 118.092 269.896 118.145 269.535 118.145ZM269.812 117.122C270.164 117.122 270.465 117.053 270.715 116.913C270.968 116.774 271.16 116.592 271.29 116.368C271.424 116.141 271.491 115.898 271.491 115.639V114.795C271.445 114.841 271.357 114.884 271.227 114.923C271.099 114.96 270.952 114.993 270.788 115.021C270.623 115.047 270.462 115.071 270.306 115.094C270.15 115.114 270.019 115.131 269.914 115.145C269.667 115.176 269.441 115.229 269.237 115.303C269.035 115.376 268.873 115.483 268.751 115.622C268.631 115.759 268.572 115.94 268.572 116.168C268.572 116.483 268.688 116.722 268.921 116.884C269.154 117.043 269.451 117.122 269.812 117.122ZM274.564 118V109.273H275.838V112.516H275.915C275.989 112.379 276.096 112.222 276.235 112.043C276.374 111.864 276.567 111.707 276.814 111.574C277.061 111.438 277.388 111.369 277.794 111.369C278.323 111.369 278.794 111.503 279.209 111.77C279.624 112.037 279.949 112.422 280.185 112.925C280.424 113.428 280.543 114.033 280.543 114.74C280.543 115.447 280.425 116.054 280.189 116.56C279.953 117.062 279.63 117.45 279.218 117.723C278.806 117.993 278.336 118.128 277.807 118.128C277.409 118.128 277.084 118.061 276.831 117.928C276.581 117.794 276.385 117.638 276.243 117.459C276.101 117.28 275.992 117.121 275.915 116.982H275.809V118H274.564ZM275.813 114.727C275.813 115.187 275.88 115.591 276.013 115.938C276.147 116.284 276.34 116.555 276.593 116.751C276.846 116.945 277.155 117.041 277.522 117.041C277.902 117.041 278.221 116.94 278.476 116.739C278.732 116.534 278.925 116.257 279.056 115.908C279.189 115.558 279.256 115.165 279.256 114.727C279.256 114.295 279.191 113.908 279.06 113.564C278.932 113.22 278.739 112.949 278.48 112.75C278.225 112.551 277.905 112.452 277.522 112.452C277.152 112.452 276.84 112.547 276.584 112.737C276.331 112.928 276.14 113.193 276.009 113.534C275.878 113.875 275.813 114.273 275.813 114.727ZM284.795 118.132C284.15 118.132 283.594 117.994 283.129 117.719C282.665 117.44 282.308 117.05 282.055 116.547C281.805 116.041 281.68 115.449 281.68 114.77C281.68 114.099 281.805 113.509 282.055 112.997C282.308 112.486 282.66 112.087 283.112 111.8C283.566 111.513 284.097 111.369 284.705 111.369C285.075 111.369 285.433 111.43 285.779 111.553C286.126 111.675 286.437 111.866 286.712 112.128C286.988 112.389 287.205 112.729 287.364 113.146C287.523 113.561 287.603 114.065 287.603 114.659V115.111H282.4V114.156H286.354C286.354 113.821 286.286 113.524 286.15 113.266C286.013 113.004 285.822 112.798 285.575 112.648C285.33 112.497 285.043 112.422 284.714 112.422C284.356 112.422 284.043 112.51 283.776 112.686C283.512 112.859 283.308 113.087 283.163 113.368C283.021 113.646 282.95 113.949 282.95 114.276V115.021C282.95 115.459 283.026 115.831 283.18 116.138C283.336 116.445 283.553 116.679 283.832 116.841C284.11 117 284.435 117.08 284.808 117.08C285.049 117.08 285.269 117.045 285.468 116.977C285.667 116.906 285.839 116.801 285.984 116.662C286.129 116.523 286.239 116.351 286.316 116.146L287.522 116.364C287.425 116.719 287.252 117.03 287.002 117.297C286.755 117.561 286.444 117.767 286.069 117.915C285.697 118.06 285.272 118.132 284.795 118.132ZM290.291 109.273V118H289.017V109.273H290.291Z" fill="#217CF5"/>
<path fill-rule="evenodd" clip-rule="evenodd" d="M260 137H292V137C292 135.895 291.105 135 290 135H262C260.895 135 260 135.895 260 137V137Z" fill="#217CF5"/>
</g>
<path d="M260.959 118V109.273H262.276V116.866H266.23V118H260.959ZM269.535 118.145C269.12 118.145 268.745 118.068 268.41 117.915C268.075 117.759 267.809 117.533 267.613 117.237C267.42 116.942 267.323 116.58 267.323 116.151C267.323 115.781 267.394 115.477 267.536 115.239C267.678 115 267.87 114.811 268.112 114.672C268.353 114.533 268.623 114.428 268.921 114.357C269.219 114.286 269.523 114.232 269.833 114.195C270.225 114.149 270.543 114.112 270.788 114.084C271.032 114.053 271.21 114.003 271.32 113.935C271.431 113.866 271.487 113.756 271.487 113.602V113.572C271.487 113.2 271.381 112.912 271.171 112.707C270.964 112.503 270.654 112.401 270.242 112.401C269.813 112.401 269.475 112.496 269.228 112.686C268.984 112.874 268.815 113.082 268.721 113.312L267.523 113.04C267.665 112.642 267.873 112.321 268.146 112.077C268.421 111.83 268.738 111.651 269.096 111.54C269.454 111.426 269.83 111.369 270.225 111.369C270.487 111.369 270.763 111.401 271.056 111.463C271.352 111.523 271.627 111.634 271.883 111.795C272.141 111.957 272.353 112.189 272.518 112.49C272.683 112.788 272.765 113.176 272.765 113.653V118H271.521V117.105H271.469C271.387 117.27 271.263 117.432 271.099 117.591C270.934 117.75 270.722 117.882 270.464 117.987C270.205 118.092 269.896 118.145 269.535 118.145ZM269.812 117.122C270.164 117.122 270.465 117.053 270.715 116.913C270.968 116.774 271.16 116.592 271.29 116.368C271.424 116.141 271.491 115.898 271.491 115.639V114.795C271.445 114.841 271.357 114.884 271.227 114.923C271.099 114.96 270.952 114.993 270.788 115.021C270.623 115.047 270.462 115.071 270.306 115.094C270.15 115.114 270.019 115.131 269.914 115.145C269.667 115.176 269.441 115.229 269.237 115.303C269.035 115.376 268.873 115.483 268.751 115.622C268.631 115.759 268.572 115.94 268.572 116.168C268.572 116.483 268.688 116.722 268.921 116.884C269.154 117.043 269.451 117.122 269.812 117.122ZM274.564 118V109.273H275.838V112.516H275.915C275.989 112.379 276.096 112.222 276.235 112.043C276.374 111.864 276.567 111.707 276.814 111.574C277.061 111.438 277.388 111.369 277.794 111.369C278.323 111.369 278.794 111.503 279.209 111.77C279.624 112.037 279.949 112.422 280.185 112.925C280.424 113.428 280.543 114.033 280.543 114.74C280.543 115.447 280.425 116.054 280.189 116.56C279.953 117.062 279.63 117.45 279.218 117.723C278.806 117.993 278.336 118.128 277.807 118.128C277.409 118.128 277.084 118.061 276.831 117.928C276.581 117.794 276.385 117.638 276.243 117.459C276.101 117.28 275.992 117.121 275.915 116.982H275.809V118H274.564ZM275.813 114.727C275.813 115.187 275.88 115.591 276.013 115.938C276.147 116.284 276.34 116.555 276.593 116.751C276.846 116.945 277.155 117.041 277.522 117.041C277.902 117.041 278.221 116.94 278.476 116.739C278.732 116.534 278.925 116.257 279.056 115.908C279.189 115.558 279.256 115.165 279.256 114.727C279.256 114.295 279.191 113.908 279.06 113.564C278.932 113.22 278.739 112.949 278.48 112.75C278.225 112.551 277.905 112.452 277.522 112.452C277.152 112.452 276.84 112.547 276.584 112.737C276.331 112.928 276.14 113.193 276.009 113.534C275.878 113.875 275.813 114.273 275.813 114.727ZM284.795 118.132C284.15 118.132 283.594 117.994 283.129 117.719C282.665 117.44 282.308 117.05 282.055 116.547C281.805 116.041 281.68 115.449 281.68 114.77C281.68 114.099 281.805 113.509 282.055 112.997C282.308 112.486 282.66 112.087 283.112 111.8C283.566 111.513 284.097 111.369 284.705 111.369C285.075 111.369 285.433 111.43 285.779 111.553C286.126 111.675 286.437 111.866 286.712 112.128C286.988 112.389 287.205 112.729 287.364 113.146C287.523 113.561 287.603 114.065 287.603 114.659V115.111H282.4V114.156H286.354C286.354 113.821 286.286 113.524 286.15 113.266C286.013 113.004 285.822 112.798 285.575 112.648C285.33 112.497 285.043 112.422 284.714 112.422C284.356 112.422 284.043 112.51 283.776 112.686C283.512 112.859 283.308 113.087 283.163 113.368C283.021 113.646 282.95 113.949 282.95 114.276V115.021C282.95 115.459 283.026 115.831 283.18 116.138C283.336 116.445 283.553 116.679 283.832 116.841C284.11 117 284.435 117.08 284.808 117.08C285.049 117.08 285.269 117.045 285.468 116.977C285.667 116.906 285.839 116.801 285.984 116.662C286.129 116.523 286.239 116.351 286.316 116.146L287.522 116.364C287.425 116.719 287.252 117.03 287.002 117.297C286.755 117.561 286.444 117.767 286.069 117.915C285.697 118.06 285.272 118.132 284.795 118.132ZM290.291 109.273V118H289.017V109.273H290.291Z" fill="#217CF5"/>
<rect x="259.5" y="102.5" width="33" height="23" stroke="#0D69D4"/>
<g clip-path="url(#clip1_858_12502)">
<mask maskUnits="userSpaceOnUse" x="0" y="0" width="0" height="0" fill="black">
<rect fill="white" width="0" height="0"/>
</mask>
<path d="M204.293 54.2929C203.902 54.6834 203.902 55.3166 204.293 55.7071L210.657 62.0711C211.047 62.4616 211.681 62.4616 212.071 62.0711C212.462 61.6805 212.462 61.0474 212.071 60.6569L206.414 55L212.071 49.3431C212.462 48.9526 212.462 48.3195 212.071 47.9289C211.681 47.5384 211.047 47.5384 210.657 47.9289L204.293 54.2929ZM235.707 55.7071C236.098 55.3166 236.098 54.6834 235.707 54.2929L229.343 47.9289C228.953 47.5384 228.319 47.5384 227.929 47.9289C227.538 48.3195 227.538 48.9526 227.929 49.3431L233.586 55L227.929 60.6569C227.538 61.0474 227.538 61.6805 227.929 62.0711C228.319 62.4616 228.953 62.4616 229.343 62.0711L235.707 55.7071ZM205 56H235V54H205V56Z" fill="#6B6B6B" mask="url(#)"/>
</g>
<path fill-rule="evenodd" clip-rule="evenodd" d="M204 47L204 48L204 51.9915L204 52.024V53.024V57.0185V58.0185V58.0225L204 62.014L204 63.014H205H208.989H209.989H214.011H215.011H219H220V62.014V58.0185V57.0185V53.024V52.024V48V47H219H215.011H214.011H209.989H208.989H205H204ZM205 48V51.9915H208.989V48H205ZM205 58.0225V62.014H208.989V58.0225H205ZM219 58.0185V62.014H215.011V58.0185H219ZM219 53.024V57.0185H215.011V53.024H219ZM219 48V52.024H215.011V48H219ZM214.011 48H209.989V51.9915V52.024H214.011V48ZM214.011 53.024H209.989V57.0185H214.011V53.024ZM214.011 58.0185H209.989V58.0225V62.014H214.011V58.0185Z" fill="#6B6B6B"/>
<g clip-path="url(#clip2_858_12502)">
<g clip-path="url(#clip3_858_12502)">
<mask maskUnits="userSpaceOnUse" x="0" y="0" width="0" height="0" fill="black">
<rect fill="white" width="0" height="0"/>
</mask>
<path d="M213.28 93.2197C212.987 92.9268 212.513 92.9268 212.22 93.2197L207.447 97.9926C207.154 98.2855 207.154 98.7604 207.447 99.0533C207.74 99.3462 208.214 99.3462 208.507 99.0533L212.75 94.8107L216.993 99.0533C217.286 99.3462 217.76 99.3462 218.053 99.0533C218.346 98.7604 218.346 98.2855 218.053 97.9926L213.28 93.2197ZM212.22 113.28C212.513 113.573 212.987 113.573 213.28 113.28L218.053 108.507C218.346 108.214 218.346 107.74 218.053 107.447C217.76 107.154 217.286 107.154 216.993 107.447L212.75 111.689L208.507 107.447C208.214 107.154 207.74 107.154 207.447 107.447C207.154 107.74 207.154 108.214 207.447 108.507L212.22 113.28ZM212 93.75V112.75H213.5V93.75H212Z" fill="#0D69D4" mask="url(#)"/>
<mask maskUnits="userSpaceOnUse" x="0" y="0" width="0" height="0" fill="black">
<rect fill="white" width="0" height="0"/>
</mask>
<path d="M213.28 114.72C212.987 114.427 212.513 114.427 212.22 114.72L207.447 119.493C207.154 119.786 207.154 120.26 207.447 120.553C207.74 120.846 208.214 120.846 208.507 120.553L212.75 116.311L216.993 120.553C217.286 120.846 217.76 120.846 218.053 120.553C218.346 120.26 218.346 119.786 218.053 119.493L213.28 114.72ZM212.22 134.78C212.513 135.073 212.987 135.073 213.28 134.78L218.053 130.007C218.346 129.714 218.346 129.24 218.053 128.947C217.76 128.654 217.286 128.654 216.993 128.947L212.75 133.189L208.507 128.947C208.214 128.654 207.74 128.654 207.447 128.947C207.154 129.24 207.154 129.714 207.447 130.007L212.22 134.78ZM212 115.25V134.25H213.5V115.25H212Z" fill="#0D69D4" mask="url(#)"/>
</g>
</g>
<g clip-path="url(#clip4_858_12502)">
<mask maskUnits="userSpaceOnUse" x="0" y="0" width="0" height="0" fill="black">
<rect fill="white" width="0" height="0"/>
</mask>
<path d="M250.22 53.7197C249.927 54.0126 249.927 54.4874 250.22 54.7803L254.993 59.5533C255.286 59.8462 255.76 59.8462 256.053 59.5533C256.346 59.2604 256.346 58.7855 256.053 58.4926L251.811 54.25L256.053 50.0074C256.346 49.7145 256.346 49.2396 256.053 48.9467C255.76 48.6538 255.286 48.6538 254.993 48.9467L250.22 53.7197ZM275.28 54.7803C275.573 54.4874 275.573 54.0126 275.28 53.7197L270.507 48.9467C270.214 48.6538 269.74 48.6538 269.447 48.9467C269.154 49.2396 269.154 49.7145 269.447 50.0074L273.689 54.25L269.447 58.4926C269.154 58.7855 269.154 59.2604 269.447 59.5533C269.74 59.8462 270.214 59.8462 270.507 59.5533L275.28 54.7803ZM250.75 55H274.75V53.5H250.75V55Z" fill="#0D69D4" mask="url(#)"/>
<mask maskUnits="userSpaceOnUse" x="0" y="0" width="0" height="0" fill="black">
<rect fill="white" width="0" height="0"/>
</mask>
<path d="M276.72 53.7197C276.427 54.0126 276.427 54.4874 276.72 54.7803L281.493 59.5533C281.786 59.8462 282.26 59.8462 282.553 59.5533C282.846 59.2604 282.846 58.7855 282.553 58.4926L278.311 54.25L282.553 50.0074C282.846 49.7145 282.846 49.2396 282.553 48.9467C282.26 48.6538 281.786 48.6538 281.493 48.9467L276.72 53.7197ZM301.78 54.7803C302.073 54.4874 302.073 54.0126 301.78 53.7197L297.007 48.9467C296.714 48.6538 296.24 48.6538 295.947 48.9467C295.654 49.2396 295.654 49.7145 295.947 50.0074L300.189 54.25L295.947 58.4926C295.654 58.7855 295.654 59.2604 295.947 59.5533C296.24 59.8462 296.714 59.8462 297.007 59.5533L301.78 54.7803ZM277.25 55H301.25V53.5H277.25V55Z" fill="#0D69D4" mask="url(#)"/>
</g>
<g clip-path="url(#clip5_858_12502)">
<mask maskUnits="userSpaceOnUse" x="0" y="0" width="0" height="0" fill="black">
<rect fill="white" width="0" height="0"/>
</mask>
<path d="M250.146 94.1464C249.951 94.3417 249.951 94.6583 250.146 94.8536L253.328 98.0355C253.524 98.2308 253.84 98.2308 254.036 98.0355C254.231 97.8403 254.231 97.5237 254.036 97.3284L251.207 94.5L254.036 91.6716C254.231 91.4763 254.231 91.1597 254.036 90.9645C253.84 90.7692 253.524 90.7692 253.328 90.9645L250.146 94.1464ZM275.354 94.8536C275.549 94.6583 275.549 94.3417 275.354 94.1464L272.172 90.9645C271.976 90.7692 271.66 90.7692 271.464 90.9645C271.269 91.1597 271.269 91.4763 271.464 91.6716L274.293 94.5L271.464 97.3284C271.269 97.5237 271.269 97.8403 271.464 98.0355C271.66 98.2308 271.976 98.2308 272.172 98.0355L275.354 94.8536ZM250.5 95H275V94H250.5V95Z" fill="#0D69D4" mask="url(#)"/>
<mask maskUnits="userSpaceOnUse" x="0" y="0" width="0" height="0" fill="black">
<rect fill="white" width="0" height="0"/>
</mask>
<path d="M276.646 94.1464C276.451 94.3417 276.451 94.6583 276.646 94.8536L279.828 98.0355C280.024 98.2308 280.34 98.2308 280.536 98.0355C280.731 97.8403 280.731 97.5237 280.536 97.3284L277.707 94.5L280.536 91.6716C280.731 91.4763 280.731 91.1597 280.536 90.9645C280.34 90.7692 280.024 90.7692 279.828 90.9645L276.646 94.1464ZM301.854 94.8536C302.049 94.6583 302.049 94.3417 301.854 94.1464L298.672 90.9645C298.476 90.7692 298.16 90.7692 297.964 90.9645C297.769 91.1597 297.769 91.4763 297.964 91.6716L300.793 94.5L297.964 97.3284C297.769 97.5237 297.769 97.8403 297.964 98.0355C298.16 98.2308 298.476 98.2308 298.672 98.0355L301.854 94.8536ZM277 95H301.5V94H277V95Z" fill="#0D69D4" mask="url(#)"/>
</g>
<rect x="260" y="107" width="32" height="14" fill="#0D69D4" fill-opacity="0.2"/>
<rect x="260" y="103" width="32" height="4" fill="#007D00" fill-opacity="0.3"/>
<line x1="244" y1="103.5" x2="292" y2="103.5" stroke="#007D00"/>
<line x1="244" y1="106.5" x2="292" y2="106.5" stroke="#007D00"/>
<path d="M231.575 107.466V106.013L235.219 100.273H236.472V102.284H235.73L233.433 105.919V105.987H238.611V107.466H231.575ZM235.764 109V107.023L235.798 106.379V100.273H237.528V109H235.764Z" fill="#007D00"/>
<rect x="260" y="121" width="32" height="4" fill="#007D00" fill-opacity="0.3"/>
<line x1="244" y1="121.5" x2="292" y2="121.5" stroke="#007D00"/>
<line x1="244" y1="124.5" x2="292" y2="124.5" stroke="#007D00"/>
<path d="M231.575 125.466V124.013L235.219 118.273H236.472V120.284H235.73L233.433 123.919V123.987H238.611V125.466H231.575ZM235.764 127V125.023L235.798 124.379V118.273H237.528V127H235.764Z" fill="#007D00"/>
<g opacity="0.2">
<g clip-path="url(#clip6_858_12502)">
<path d="M412.528 109.406V108.273H419.283V109.406H416.56V117H415.247V109.406H412.528ZM421.687 117.145C421.272 117.145 420.897 117.068 420.562 116.915C420.227 116.759 419.961 116.533 419.765 116.237C419.572 115.942 419.475 115.58 419.475 115.151C419.475 114.781 419.547 114.477 419.689 114.239C419.831 114 420.022 113.811 420.264 113.672C420.505 113.533 420.775 113.428 421.074 113.357C421.372 113.286 421.676 113.232 421.985 113.195C422.377 113.149 422.696 113.112 422.94 113.084C423.184 113.053 423.362 113.003 423.473 112.935C423.583 112.866 423.639 112.756 423.639 112.602V112.572C423.639 112.2 423.534 111.912 423.324 111.707C423.116 111.503 422.806 111.401 422.395 111.401C421.966 111.401 421.627 111.496 421.38 111.686C421.136 111.874 420.967 112.082 420.873 112.312L419.676 112.04C419.818 111.642 420.025 111.321 420.298 111.077C420.574 110.83 420.89 110.651 421.248 110.54C421.606 110.426 421.983 110.369 422.377 110.369C422.639 110.369 422.916 110.401 423.208 110.463C423.504 110.523 423.779 110.634 424.035 110.795C424.294 110.957 424.505 111.189 424.67 111.49C424.835 111.788 424.917 112.176 424.917 112.653V117H423.673V116.105H423.622C423.539 116.27 423.416 116.432 423.251 116.591C423.086 116.75 422.875 116.882 422.616 116.987C422.358 117.092 422.048 117.145 421.687 117.145ZM421.964 116.122C422.316 116.122 422.618 116.053 422.868 115.913C423.12 115.774 423.312 115.592 423.443 115.368C423.576 115.141 423.643 114.898 423.643 114.639V113.795C423.598 113.841 423.51 113.884 423.379 113.923C423.251 113.96 423.105 113.993 422.94 114.021C422.775 114.047 422.615 114.071 422.458 114.094C422.302 114.114 422.172 114.131 422.066 114.145C421.819 114.176 421.593 114.229 421.389 114.303C421.187 114.376 421.025 114.483 420.903 114.622C420.784 114.759 420.724 114.94 420.724 115.168C420.724 115.483 420.841 115.722 421.074 115.884C421.306 116.043 421.603 116.122 421.964 116.122ZM426.717 117V108.273H427.991V111.516H428.067C428.141 111.379 428.248 111.222 428.387 111.043C428.526 110.864 428.719 110.707 428.967 110.574C429.214 110.438 429.54 110.369 429.947 110.369C430.475 110.369 430.947 110.503 431.362 110.77C431.776 111.037 432.102 111.422 432.337 111.925C432.576 112.428 432.695 113.033 432.695 113.74C432.695 114.447 432.577 115.054 432.342 115.56C432.106 116.062 431.782 116.45 431.37 116.723C430.958 116.993 430.488 117.128 429.96 117.128C429.562 117.128 429.237 117.061 428.984 116.928C428.734 116.794 428.538 116.638 428.396 116.459C428.254 116.28 428.144 116.121 428.067 115.982H427.961V117H426.717ZM427.965 113.727C427.965 114.187 428.032 114.591 428.165 114.938C428.299 115.284 428.492 115.555 428.745 115.751C428.998 115.945 429.308 116.041 429.674 116.041C430.055 116.041 430.373 115.94 430.629 115.739C430.884 115.534 431.077 115.257 431.208 114.908C431.342 114.558 431.408 114.165 431.408 113.727C431.408 113.295 431.343 112.908 431.212 112.564C431.085 112.22 430.891 111.949 430.633 111.75C430.377 111.551 430.058 111.452 429.674 111.452C429.305 111.452 428.992 111.547 428.737 111.737C428.484 111.928 428.292 112.193 428.161 112.534C428.031 112.875 427.965 113.273 427.965 113.727ZM440.596 108.273V117H439.275V109.594H439.224L437.136 110.957V109.696L439.313 108.273H440.596Z" fill="#217CF5"/>
<path fill-rule="evenodd" clip-rule="evenodd" d="M412 136H443V136C443 134.895 442.105 134 441 134H414C412.895 134 412 134.895 412 136V136Z" fill="#217CF5"/>
</g>
<g clip-path="url(#clip7_858_12502)">
<path d="M463.528 109.406V108.273H470.283V109.406H467.56V117H466.247V109.406H463.528ZM472.687 117.145C472.272 117.145 471.897 117.068 471.562 116.915C471.227 116.759 470.961 116.533 470.765 116.237C470.572 115.942 470.475 115.58 470.475 115.151C470.475 114.781 470.547 114.477 470.689 114.239C470.831 114 471.022 113.811 471.264 113.672C471.505 113.533 471.775 113.428 472.074 113.357C472.372 113.286 472.676 113.232 472.985 113.195C473.377 113.149 473.696 113.112 473.94 113.084C474.184 113.053 474.362 113.003 474.473 112.935C474.583 112.866 474.639 112.756 474.639 112.602V112.572C474.639 112.2 474.534 111.912 474.324 111.707C474.116 111.503 473.806 111.401 473.395 111.401C472.966 111.401 472.627 111.496 472.38 111.686C472.136 111.874 471.967 112.082 471.873 112.312L470.676 112.04C470.818 111.642 471.025 111.321 471.298 111.077C471.574 110.83 471.89 110.651 472.248 110.54C472.606 110.426 472.983 110.369 473.377 110.369C473.639 110.369 473.916 110.401 474.208 110.463C474.504 110.523 474.779 110.634 475.035 110.795C475.294 110.957 475.505 111.189 475.67 111.49C475.835 111.788 475.917 112.176 475.917 112.653V117H474.673V116.105H474.622C474.539 116.27 474.416 116.432 474.251 116.591C474.086 116.75 473.875 116.882 473.616 116.987C473.358 117.092 473.048 117.145 472.687 117.145ZM472.964 116.122C473.316 116.122 473.618 116.053 473.868 115.913C474.12 115.774 474.312 115.592 474.443 115.368C474.576 115.141 474.643 114.898 474.643 114.639V113.795C474.598 113.841 474.51 113.884 474.379 113.923C474.251 113.96 474.105 113.993 473.94 114.021C473.775 114.047 473.615 114.071 473.458 114.094C473.302 114.114 473.172 114.131 473.066 114.145C472.819 114.176 472.593 114.229 472.389 114.303C472.187 114.376 472.025 114.483 471.903 114.622C471.784 114.759 471.724 114.94 471.724 115.168C471.724 115.483 471.841 115.722 472.074 115.884C472.306 116.043 472.603 116.122 472.964 116.122ZM477.717 117V108.273H478.991V111.516H479.067C479.141 111.379 479.248 111.222 479.387 111.043C479.526 110.864 479.719 110.707 479.967 110.574C480.214 110.438 480.54 110.369 480.947 110.369C481.475 110.369 481.947 110.503 482.362 110.77C482.776 111.037 483.102 111.422 483.337 111.925C483.576 112.428 483.695 113.033 483.695 113.74C483.695 114.447 483.577 115.054 483.342 115.56C483.106 116.062 482.782 116.45 482.37 116.723C481.958 116.993 481.488 117.128 480.96 117.128C480.562 117.128 480.237 117.061 479.984 116.928C479.734 116.794 479.538 116.638 479.396 116.459C479.254 116.28 479.144 116.121 479.067 115.982H478.961V117H477.717ZM478.965 113.727C478.965 114.187 479.032 114.591 479.165 114.938C479.299 115.284 479.492 115.555 479.745 115.751C479.998 115.945 480.308 116.041 480.674 116.041C481.055 116.041 481.373 115.94 481.629 115.739C481.884 115.534 482.077 115.257 482.208 114.908C482.342 114.558 482.408 114.165 482.408 113.727C482.408 113.295 482.343 112.908 482.212 112.564C482.085 112.22 481.891 111.949 481.633 111.75C481.377 111.551 481.058 111.452 480.674 111.452C480.305 111.452 479.992 111.547 479.737 111.737C479.484 111.928 479.292 112.193 479.161 112.534C479.031 112.875 478.965 113.273 478.965 113.727ZM488.285 117V116.045L491.238 112.986C491.553 112.653 491.813 112.362 492.018 112.112C492.225 111.859 492.38 111.619 492.482 111.392C492.585 111.165 492.636 110.923 492.636 110.668C492.636 110.378 492.567 110.128 492.431 109.918C492.295 109.705 492.109 109.541 491.873 109.428C491.637 109.311 491.371 109.253 491.076 109.253C490.763 109.253 490.491 109.317 490.258 109.445C490.025 109.572 489.846 109.753 489.721 109.986C489.596 110.219 489.533 110.491 489.533 110.804H488.276C488.276 110.273 488.398 109.808 488.643 109.411C488.887 109.013 489.222 108.705 489.648 108.486C490.075 108.264 490.559 108.153 491.102 108.153C491.65 108.153 492.133 108.263 492.55 108.482C492.971 108.697 493.299 108.993 493.535 109.368C493.771 109.74 493.888 110.161 493.888 110.629C493.888 110.953 493.827 111.27 493.705 111.58C493.586 111.889 493.377 112.234 493.079 112.615C492.781 112.993 492.366 113.452 491.835 113.991L490.1 115.807V115.871H494.029V117H488.285Z" fill="#1A1A1A"/>
</g>
<g clip-path="url(#clip8_858_12502)">
<path d="M515.528 109.406V108.273H522.283V109.406H519.56V117H518.247V109.406H515.528ZM524.687 117.145C524.272 117.145 523.897 117.068 523.562 116.915C523.227 116.759 522.961 116.533 522.765 116.237C522.572 115.942 522.475 115.58 522.475 115.151C522.475 114.781 522.547 114.477 522.689 114.239C522.831 114 523.022 113.811 523.264 113.672C523.505 113.533 523.775 113.428 524.074 113.357C524.372 113.286 524.676 113.232 524.985 113.195C525.377 113.149 525.696 113.112 525.94 113.084C526.184 113.053 526.362 113.003 526.473 112.935C526.583 112.866 526.639 112.756 526.639 112.602V112.572C526.639 112.2 526.534 111.912 526.324 111.707C526.116 111.503 525.806 111.401 525.395 111.401C524.966 111.401 524.627 111.496 524.38 111.686C524.136 111.874 523.967 112.082 523.873 112.312L522.676 112.04C522.818 111.642 523.025 111.321 523.298 111.077C523.574 110.83 523.89 110.651 524.248 110.54C524.606 110.426 524.983 110.369 525.377 110.369C525.639 110.369 525.916 110.401 526.208 110.463C526.504 110.523 526.779 110.634 527.035 110.795C527.294 110.957 527.505 111.189 527.67 111.49C527.835 111.788 527.917 112.176 527.917 112.653V117H526.673V116.105H526.622C526.539 116.27 526.416 116.432 526.251 116.591C526.086 116.75 525.875 116.882 525.616 116.987C525.358 117.092 525.048 117.145 524.687 117.145ZM524.964 116.122C525.316 116.122 525.618 116.053 525.868 115.913C526.12 115.774 526.312 115.592 526.443 115.368C526.576 115.141 526.643 114.898 526.643 114.639V113.795C526.598 113.841 526.51 113.884 526.379 113.923C526.251 113.96 526.105 113.993 525.94 114.021C525.775 114.047 525.615 114.071 525.458 114.094C525.302 114.114 525.172 114.131 525.066 114.145C524.819 114.176 524.593 114.229 524.389 114.303C524.187 114.376 524.025 114.483 523.903 114.622C523.784 114.759 523.724 114.94 523.724 115.168C523.724 115.483 523.841 115.722 524.074 115.884C524.306 116.043 524.603 116.122 524.964 116.122ZM529.717 117V108.273H530.991V111.516H531.067C531.141 111.379 531.248 111.222 531.387 111.043C531.526 110.864 531.719 110.707 531.967 110.574C532.214 110.438 532.54 110.369 532.947 110.369C533.475 110.369 533.947 110.503 534.362 110.77C534.776 111.037 535.102 111.422 535.337 111.925C535.576 112.428 535.695 113.033 535.695 113.74C535.695 114.447 535.577 115.054 535.342 115.56C535.106 116.062 534.782 116.45 534.37 116.723C533.958 116.993 533.488 117.128 532.96 117.128C532.562 117.128 532.237 117.061 531.984 116.928C531.734 116.794 531.538 116.638 531.396 116.459C531.254 116.28 531.144 116.121 531.067 115.982H530.961V117H529.717ZM530.965 113.727C530.965 114.187 531.032 114.591 531.165 114.938C531.299 115.284 531.492 115.555 531.745 115.751C531.998 115.945 532.308 116.041 532.674 116.041C533.055 116.041 533.373 115.94 533.629 115.739C533.884 115.534 534.077 115.257 534.208 114.908C534.342 114.558 534.408 114.165 534.408 113.727C534.408 113.295 534.343 112.908 534.212 112.564C534.085 112.22 533.891 111.949 533.633 111.75C533.377 111.551 533.058 111.452 532.674 111.452C532.305 111.452 531.992 111.547 531.737 111.737C531.484 111.928 531.292 112.193 531.161 112.534C531.031 112.875 530.965 113.273 530.965 113.727ZM543.323 117.119C542.738 117.119 542.215 117.018 541.755 116.817C541.298 116.615 540.935 116.335 540.668 115.977C540.404 115.616 540.262 115.199 540.242 114.724H541.58C541.597 114.983 541.684 115.207 541.84 115.398C541.999 115.585 542.207 115.73 542.462 115.832C542.718 115.935 543.002 115.986 543.315 115.986C543.658 115.986 543.962 115.926 544.227 115.807C544.494 115.687 544.702 115.521 544.853 115.308C545.004 115.092 545.079 114.844 545.079 114.562C545.079 114.27 545.004 114.013 544.853 113.791C544.705 113.567 544.488 113.391 544.201 113.263C543.917 113.135 543.573 113.071 543.17 113.071H542.433V111.997H543.17C543.494 111.997 543.778 111.939 544.022 111.822C544.269 111.706 544.462 111.544 544.602 111.337C544.741 111.126 544.81 110.881 544.81 110.599C544.81 110.33 544.749 110.095 544.627 109.896C544.508 109.695 544.337 109.537 544.116 109.423C543.897 109.31 543.638 109.253 543.34 109.253C543.056 109.253 542.79 109.305 542.543 109.411C542.299 109.513 542.1 109.661 541.947 109.854C541.793 110.044 541.711 110.273 541.7 110.54H540.425C540.44 110.068 540.579 109.653 540.843 109.295C541.11 108.937 541.462 108.658 541.9 108.456C542.337 108.254 542.823 108.153 543.357 108.153C543.917 108.153 544.4 108.263 544.806 108.482C545.215 108.697 545.531 108.986 545.752 109.347C545.977 109.707 546.087 110.102 546.085 110.531C546.087 111.02 545.951 111.435 545.675 111.776C545.403 112.116 545.039 112.345 544.585 112.462V112.53C545.164 112.618 545.613 112.848 545.931 113.22C546.252 113.592 546.411 114.054 546.408 114.605C546.411 115.085 546.278 115.516 546.008 115.896C545.741 116.277 545.376 116.577 544.913 116.795C544.45 117.011 543.92 117.119 543.323 117.119Z" fill="#1A1A1A"/>
</g>
<g clip-path="url(#clip9_858_12502)">
<path d="M568.528 109.406V108.273H575.283V109.406H572.56V117H571.247V109.406H568.528ZM577.687 117.145C577.272 117.145 576.897 117.068 576.562 116.915C576.227 116.759 575.961 116.533 575.765 116.237C575.572 115.942 575.475 115.58 575.475 115.151C575.475 114.781 575.547 114.477 575.689 114.239C575.831 114 576.022 113.811 576.264 113.672C576.505 113.533 576.775 113.428 577.074 113.357C577.372 113.286 577.676 113.232 577.985 113.195C578.377 113.149 578.696 113.112 578.94 113.084C579.184 113.053 579.362 113.003 579.473 112.935C579.583 112.866 579.639 112.756 579.639 112.602V112.572C579.639 112.2 579.534 111.912 579.324 111.707C579.116 111.503 578.806 111.401 578.395 111.401C577.966 111.401 577.627 111.496 577.38 111.686C577.136 111.874 576.967 112.082 576.873 112.312L575.676 112.04C575.818 111.642 576.025 111.321 576.298 111.077C576.574 110.83 576.89 110.651 577.248 110.54C577.606 110.426 577.983 110.369 578.377 110.369C578.639 110.369 578.916 110.401 579.208 110.463C579.504 110.523 579.779 110.634 580.035 110.795C580.294 110.957 580.505 111.189 580.67 111.49C580.835 111.788 580.917 112.176 580.917 112.653V117H579.673V116.105H579.622C579.539 116.27 579.416 116.432 579.251 116.591C579.086 116.75 578.875 116.882 578.616 116.987C578.358 117.092 578.048 117.145 577.687 117.145ZM577.964 116.122C578.316 116.122 578.618 116.053 578.868 115.913C579.12 115.774 579.312 115.592 579.443 115.368C579.576 115.141 579.643 114.898 579.643 114.639V113.795C579.598 113.841 579.51 113.884 579.379 113.923C579.251 113.96 579.105 113.993 578.94 114.021C578.775 114.047 578.615 114.071 578.458 114.094C578.302 114.114 578.172 114.131 578.066 114.145C577.819 114.176 577.593 114.229 577.389 114.303C577.187 114.376 577.025 114.483 576.903 114.622C576.784 114.759 576.724 114.94 576.724 115.168C576.724 115.483 576.841 115.722 577.074 115.884C577.306 116.043 577.603 116.122 577.964 116.122ZM582.717 117V108.273H583.991V111.516H584.067C584.141 111.379 584.248 111.222 584.387 111.043C584.526 110.864 584.719 110.707 584.967 110.574C585.214 110.438 585.54 110.369 585.947 110.369C586.475 110.369 586.947 110.503 587.362 110.77C587.776 111.037 588.102 111.422 588.337 111.925C588.576 112.428 588.695 113.033 588.695 113.74C588.695 114.447 588.577 115.054 588.342 115.56C588.106 116.062 587.782 116.45 587.37 116.723C586.958 116.993 586.488 117.128 585.96 117.128C585.562 117.128 585.237 117.061 584.984 116.928C584.734 116.794 584.538 116.638 584.396 116.459C584.254 116.28 584.144 116.121 584.067 115.982H583.961V117H582.717ZM583.965 113.727C583.965 114.187 584.032 114.591 584.165 114.938C584.299 115.284 584.492 115.555 584.745 115.751C584.998 115.945 585.308 116.041 585.674 116.041C586.055 116.041 586.373 115.94 586.629 115.739C586.884 115.534 587.077 115.257 587.208 114.908C587.342 114.558 587.408 114.165 587.408 113.727C587.408 113.295 587.343 112.908 587.212 112.564C587.085 112.22 586.891 111.949 586.633 111.75C586.377 111.551 586.058 111.452 585.674 111.452C585.305 111.452 584.992 111.547 584.737 111.737C584.484 111.928 584.292 112.193 584.161 112.534C584.031 112.875 583.965 113.273 583.965 113.727ZM593.102 115.295V114.23L596.873 108.273H597.712V109.841H597.18L594.482 114.111V114.179H599.651V115.295H593.102ZM597.239 117V114.972L597.248 114.486V108.273H598.496V117H597.239Z" fill="#1A1A1A"/>
</g>
</g>
<g clip-path="url(#clip10_858_12502)">
<path d="M412.528 109.406V108.273H419.283V109.406H416.56V117H415.247V109.406H412.528ZM421.687 117.145C421.272 117.145 420.897 117.068 420.562 116.915C420.227 116.759 419.961 116.533 419.765 116.237C419.572 115.942 419.475 115.58 419.475 115.151C419.475 114.781 419.547 114.477 419.689 114.239C419.831 114 420.022 113.811 420.264 113.672C420.505 113.533 420.775 113.428 421.074 113.357C421.372 113.286 421.676 113.232 421.985 113.195C422.377 113.149 422.696 113.112 422.94 113.084C423.184 113.053 423.362 113.003 423.473 112.935C423.583 112.866 423.639 112.756 423.639 112.602V112.572C423.639 112.2 423.534 111.912 423.324 111.707C423.116 111.503 422.806 111.401 422.395 111.401C421.966 111.401 421.627 111.496 421.38 111.686C421.136 111.874 420.967 112.082 420.873 112.312L419.676 112.04C419.818 111.642 420.025 111.321 420.298 111.077C420.574 110.83 420.89 110.651 421.248 110.54C421.606 110.426 421.983 110.369 422.377 110.369C422.639 110.369 422.916 110.401 423.208 110.463C423.504 110.523 423.779 110.634 424.035 110.795C424.294 110.957 424.505 111.189 424.67 111.49C424.835 111.788 424.917 112.176 424.917 112.653V117H423.673V116.105H423.622C423.539 116.27 423.416 116.432 423.251 116.591C423.086 116.75 422.875 116.882 422.616 116.987C422.358 117.092 422.048 117.145 421.687 117.145ZM421.964 116.122C422.316 116.122 422.618 116.053 422.868 115.913C423.12 115.774 423.312 115.592 423.443 115.368C423.576 115.141 423.643 114.898 423.643 114.639V113.795C423.598 113.841 423.51 113.884 423.379 113.923C423.251 113.96 423.105 113.993 422.94 114.021C422.775 114.047 422.615 114.071 422.458 114.094C422.302 114.114 422.172 114.131 422.066 114.145C421.819 114.176 421.593 114.229 421.389 114.303C421.187 114.376 421.025 114.483 420.903 114.622C420.784 114.759 420.724 114.94 420.724 115.168C420.724 115.483 420.841 115.722 421.074 115.884C421.306 116.043 421.603 116.122 421.964 116.122ZM426.717 117V108.273H427.991V111.516H428.067C428.141 111.379 428.248 111.222 428.387 111.043C428.526 110.864 428.719 110.707 428.967 110.574C429.214 110.438 429.54 110.369 429.947 110.369C430.475 110.369 430.947 110.503 431.362 110.77C431.776 111.037 432.102 111.422 432.337 111.925C432.576 112.428 432.695 113.033 432.695 113.74C432.695 114.447 432.577 115.054 432.342 115.56C432.106 116.062 431.782 116.45 431.37 116.723C430.958 116.993 430.488 117.128 429.96 117.128C429.562 117.128 429.237 117.061 428.984 116.928C428.734 116.794 428.538 116.638 428.396 116.459C428.254 116.28 428.144 116.121 428.067 115.982H427.961V117H426.717ZM427.965 113.727C427.965 114.187 428.032 114.591 428.165 114.938C428.299 115.284 428.492 115.555 428.745 115.751C428.998 115.945 429.308 116.041 429.674 116.041C430.055 116.041 430.373 115.94 430.629 115.739C430.884 115.534 431.077 115.257 431.208 114.908C431.342 114.558 431.408 114.165 431.408 113.727C431.408 113.295 431.343 112.908 431.212 112.564C431.085 112.22 430.891 111.949 430.633 111.75C430.377 111.551 430.058 111.452 429.674 111.452C429.305 111.452 428.992 111.547 428.737 111.737C428.484 111.928 428.292 112.193 428.161 112.534C428.031 112.875 427.965 113.273 427.965 113.727ZM440.596 108.273V117H439.275V109.594H439.224L437.136 110.957V109.696L439.313 108.273H440.596Z" fill="#217CF5"/>
<path fill-rule="evenodd" clip-rule="evenodd" d="M412 136H443V136C443 134.895 442.105 134 441 134H414C412.895 134 412 134.895 412 136V136Z" fill="#217CF5"/>
</g>
<g clip-path="url(#clip11_858_12502)">
<path d="M463.528 109.406V108.273H470.283V109.406H467.56V117H466.247V109.406H463.528ZM472.687 117.145C472.272 117.145 471.897 117.068 471.562 116.915C471.227 116.759 470.961 116.533 470.765 116.237C470.572 115.942 470.475 115.58 470.475 115.151C470.475 114.781 470.547 114.477 470.689 114.239C470.831 114 471.022 113.811 471.264 113.672C471.505 113.533 471.775 113.428 472.074 113.357C472.372 113.286 472.676 113.232 472.985 113.195C473.377 113.149 473.696 113.112 473.94 113.084C474.184 113.053 474.362 113.003 474.473 112.935C474.583 112.866 474.639 112.756 474.639 112.602V112.572C474.639 112.2 474.534 111.912 474.324 111.707C474.116 111.503 473.806 111.401 473.395 111.401C472.966 111.401 472.627 111.496 472.38 111.686C472.136 111.874 471.967 112.082 471.873 112.312L470.676 112.04C470.818 111.642 471.025 111.321 471.298 111.077C471.574 110.83 471.89 110.651 472.248 110.54C472.606 110.426 472.983 110.369 473.377 110.369C473.639 110.369 473.916 110.401 474.208 110.463C474.504 110.523 474.779 110.634 475.035 110.795C475.294 110.957 475.505 111.189 475.67 111.49C475.835 111.788 475.917 112.176 475.917 112.653V117H474.673V116.105H474.622C474.539 116.27 474.416 116.432 474.251 116.591C474.086 116.75 473.875 116.882 473.616 116.987C473.358 117.092 473.048 117.145 472.687 117.145ZM472.964 116.122C473.316 116.122 473.618 116.053 473.868 115.913C474.12 115.774 474.312 115.592 474.443 115.368C474.576 115.141 474.643 114.898 474.643 114.639V113.795C474.598 113.841 474.51 113.884 474.379 113.923C474.251 113.96 474.105 113.993 473.94 114.021C473.775 114.047 473.615 114.071 473.458 114.094C473.302 114.114 473.172 114.131 473.066 114.145C472.819 114.176 472.593 114.229 472.389 114.303C472.187 114.376 472.025 114.483 471.903 114.622C471.784 114.759 471.724 114.94 471.724 115.168C471.724 115.483 471.841 115.722 472.074 115.884C472.306 116.043 472.603 116.122 472.964 116.122ZM477.717 117V108.273H478.991V111.516H479.067C479.141 111.379 479.248 111.222 479.387 111.043C479.526 110.864 479.719 110.707 479.967 110.574C480.214 110.438 480.54 110.369 480.947 110.369C481.475 110.369 481.947 110.503 482.362 110.77C482.776 111.037 483.102 111.422 483.337 111.925C483.576 112.428 483.695 113.033 483.695 113.74C483.695 114.447 483.577 115.054 483.342 115.56C483.106 116.062 482.782 116.45 482.37 116.723C481.958 116.993 481.488 117.128 480.96 117.128C480.562 117.128 480.237 117.061 479.984 116.928C479.734 116.794 479.538 116.638 479.396 116.459C479.254 116.28 479.144 116.121 479.067 115.982H478.961V117H477.717ZM478.965 113.727C478.965 114.187 479.032 114.591 479.165 114.938C479.299 115.284 479.492 115.555 479.745 115.751C479.998 115.945 480.308 116.041 480.674 116.041C481.055 116.041 481.373 115.94 481.629 115.739C481.884 115.534 482.077 115.257 482.208 114.908C482.342 114.558 482.408 114.165 482.408 113.727C482.408 113.295 482.343 112.908 482.212 112.564C482.085 112.22 481.891 111.949 481.633 111.75C481.377 111.551 481.058 111.452 480.674 111.452C480.305 111.452 479.992 111.547 479.737 111.737C479.484 111.928 479.292 112.193 479.161 112.534C479.031 112.875 478.965 113.273 478.965 113.727ZM488.285 117V116.045L491.238 112.986C491.553 112.653 491.813 112.362 492.018 112.112C492.225 111.859 492.38 111.619 492.482 111.392C492.585 111.165 492.636 110.923 492.636 110.668C492.636 110.378 492.567 110.128 492.431 109.918C492.295 109.705 492.109 109.541 491.873 109.428C491.637 109.311 491.371 109.253 491.076 109.253C490.763 109.253 490.491 109.317 490.258 109.445C490.025 109.572 489.846 109.753 489.721 109.986C489.596 110.219 489.533 110.491 489.533 110.804H488.276C488.276 110.273 488.398 109.808 488.643 109.411C488.887 109.013 489.222 108.705 489.648 108.486C490.075 108.264 490.559 108.153 491.102 108.153C491.65 108.153 492.133 108.263 492.55 108.482C492.971 108.697 493.299 108.993 493.535 109.368C493.771 109.74 493.888 110.161 493.888 110.629C493.888 110.953 493.827 111.27 493.705 111.58C493.586 111.889 493.377 112.234 493.079 112.615C492.781 112.993 492.366 113.452 491.835 113.991L490.1 115.807V115.871H494.029V117H488.285Z" fill="#1A1A1A"/>
</g>
<g clip-path="url(#clip12_858_12502)">
<path d="M515.528 109.406V108.273H522.283V109.406H519.56V117H518.247V109.406H515.528ZM524.687 117.145C524.272 117.145 523.897 117.068 523.562 116.915C523.227 116.759 522.961 116.533 522.765 116.237C522.572 115.942 522.475 115.58 522.475 115.151C522.475 114.781 522.547 114.477 522.689 114.239C522.831 114 523.022 113.811 523.264 113.672C523.505 113.533 523.775 113.428 524.074 113.357C524.372 113.286 524.676 113.232 524.985 113.195C525.377 113.149 525.696 113.112 525.94 113.084C526.184 113.053 526.362 113.003 526.473 112.935C526.583 112.866 526.639 112.756 526.639 112.602V112.572C526.639 112.2 526.534 111.912 526.324 111.707C526.116 111.503 525.806 111.401 525.395 111.401C524.966 111.401 524.627 111.496 524.38 111.686C524.136 111.874 523.967 112.082 523.873 112.312L522.676 112.04C522.818 111.642 523.025 111.321 523.298 111.077C523.574 110.83 523.89 110.651 524.248 110.54C524.606 110.426 524.983 110.369 525.377 110.369C525.639 110.369 525.916 110.401 526.208 110.463C526.504 110.523 526.779 110.634 527.035 110.795C527.294 110.957 527.505 111.189 527.67 111.49C527.835 111.788 527.917 112.176 527.917 112.653V117H526.673V116.105H526.622C526.539 116.27 526.416 116.432 526.251 116.591C526.086 116.75 525.875 116.882 525.616 116.987C525.358 117.092 525.048 117.145 524.687 117.145ZM524.964 116.122C525.316 116.122 525.618 116.053 525.868 115.913C526.12 115.774 526.312 115.592 526.443 115.368C526.576 115.141 526.643 114.898 526.643 114.639V113.795C526.598 113.841 526.51 113.884 526.379 113.923C526.251 113.96 526.105 113.993 525.94 114.021C525.775 114.047 525.615 114.071 525.458 114.094C525.302 114.114 525.172 114.131 525.066 114.145C524.819 114.176 524.593 114.229 524.389 114.303C524.187 114.376 524.025 114.483 523.903 114.622C523.784 114.759 523.724 114.94 523.724 115.168C523.724 115.483 523.841 115.722 524.074 115.884C524.306 116.043 524.603 116.122 524.964 116.122ZM529.717 117V108.273H530.991V111.516H531.067C531.141 111.379 531.248 111.222 531.387 111.043C531.526 110.864 531.719 110.707 531.967 110.574C532.214 110.438 532.54 110.369 532.947 110.369C533.475 110.369 533.947 110.503 534.362 110.77C534.776 111.037 535.102 111.422 535.337 111.925C535.576 112.428 535.695 113.033 535.695 113.74C535.695 114.447 535.577 115.054 535.342 115.56C535.106 116.062 534.782 116.45 534.37 116.723C533.958 116.993 533.488 117.128 532.96 117.128C532.562 117.128 532.237 117.061 531.984 116.928C531.734 116.794 531.538 116.638 531.396 116.459C531.254 116.28 531.144 116.121 531.067 115.982H530.961V117H529.717ZM530.965 113.727C530.965 114.187 531.032 114.591 531.165 114.938C531.299 115.284 531.492 115.555 531.745 115.751C531.998 115.945 532.308 116.041 532.674 116.041C533.055 116.041 533.373 115.94 533.629 115.739C533.884 115.534 534.077 115.257 534.208 114.908C534.342 114.558 534.408 114.165 534.408 113.727C534.408 113.295 534.343 112.908 534.212 112.564C534.085 112.22 533.891 111.949 533.633 111.75C533.377 111.551 533.058 111.452 532.674 111.452C532.305 111.452 531.992 111.547 531.737 111.737C531.484 111.928 531.292 112.193 531.161 112.534C531.031 112.875 530.965 113.273 530.965 113.727ZM543.323 117.119C542.738 117.119 542.215 117.018 541.755 116.817C541.298 116.615 540.935 116.335 540.668 115.977C540.404 115.616 540.262 115.199 540.242 114.724H541.58C541.597 114.983 541.684 115.207 541.84 115.398C541.999 115.585 542.207 115.73 542.462 115.832C542.718 115.935 543.002 115.986 543.315 115.986C543.658 115.986 543.962 115.926 544.227 115.807C544.494 115.687 544.702 115.521 544.853 115.308C545.004 115.092 545.079 114.844 545.079 114.562C545.079 114.27 545.004 114.013 544.853 113.791C544.705 113.567 544.488 113.391 544.201 113.263C543.917 113.135 543.573 113.071 543.17 113.071H542.433V111.997H543.17C543.494 111.997 543.778 111.939 544.022 111.822C544.269 111.706 544.462 111.544 544.602 111.337C544.741 111.126 544.81 110.881 544.81 110.599C544.81 110.33 544.749 110.095 544.627 109.896C544.508 109.695 544.337 109.537 544.116 109.423C543.897 109.31 543.638 109.253 543.34 109.253C543.056 109.253 542.79 109.305 542.543 109.411C542.299 109.513 542.1 109.661 541.947 109.854C541.793 110.044 541.711 110.273 541.7 110.54H540.425C540.44 110.068 540.579 109.653 540.843 109.295C541.11 108.937 541.462 108.658 541.9 108.456C542.337 108.254 542.823 108.153 543.357 108.153C543.917 108.153 544.4 108.263 544.806 108.482C545.215 108.697 545.531 108.986 545.752 109.347C545.977 109.707 546.087 110.102 546.085 110.531C546.087 111.02 545.951 111.435 545.675 111.776C545.403 112.116 545.039 112.345 544.585 112.462V112.53C545.164 112.618 545.613 112.848 545.931 113.22C546.252 113.592 546.411 114.054 546.408 114.605C546.411 115.085 546.278 115.516 546.008 115.896C545.741 116.277 545.376 116.577 544.913 116.795C544.45 117.011 543.92 117.119 543.323 117.119Z" fill="#1A1A1A"/>
</g>
<g clip-path="url(#clip13_858_12502)">
<path d="M568.528 109.406V108.273H575.283V109.406H572.56V117H571.247V109.406H568.528ZM577.687 117.145C577.272 117.145 576.897 117.068 576.562 116.915C576.227 116.759 575.961 116.533 575.765 116.237C575.572 115.942 575.475 115.58 575.475 115.151C575.475 114.781 575.547 114.477 575.689 114.239C575.831 114 576.022 113.811 576.264 113.672C576.505 113.533 576.775 113.428 577.074 113.357C577.372 113.286 577.676 113.232 577.985 113.195C578.377 113.149 578.696 113.112 578.94 113.084C579.184 113.053 579.362 113.003 579.473 112.935C579.583 112.866 579.639 112.756 579.639 112.602V112.572C579.639 112.2 579.534 111.912 579.324 111.707C579.116 111.503 578.806 111.401 578.395 111.401C577.966 111.401 577.627 111.496 577.38 111.686C577.136 111.874 576.967 112.082 576.873 112.312L575.676 112.04C575.818 111.642 576.025 111.321 576.298 111.077C576.574 110.83 576.89 110.651 577.248 110.54C577.606 110.426 577.983 110.369 578.377 110.369C578.639 110.369 578.916 110.401 579.208 110.463C579.504 110.523 579.779 110.634 580.035 110.795C580.294 110.957 580.505 111.189 580.67 111.49C580.835 111.788 580.917 112.176 580.917 112.653V117H579.673V116.105H579.622C579.539 116.27 579.416 116.432 579.251 116.591C579.086 116.75 578.875 116.882 578.616 116.987C578.358 117.092 578.048 117.145 577.687 117.145ZM577.964 116.122C578.316 116.122 578.618 116.053 578.868 115.913C579.12 115.774 579.312 115.592 579.443 115.368C579.576 115.141 579.643 114.898 579.643 114.639V113.795C579.598 113.841 579.51 113.884 579.379 113.923C579.251 113.96 579.105 113.993 578.94 114.021C578.775 114.047 578.615 114.071 578.458 114.094C578.302 114.114 578.172 114.131 578.066 114.145C577.819 114.176 577.593 114.229 577.389 114.303C577.187 114.376 577.025 114.483 576.903 114.622C576.784 114.759 576.724 114.94 576.724 115.168C576.724 115.483 576.841 115.722 577.074 115.884C577.306 116.043 577.603 116.122 577.964 116.122ZM582.717 117V108.273H583.991V111.516H584.067C584.141 111.379 584.248 111.222 584.387 111.043C584.526 110.864 584.719 110.707 584.967 110.574C585.214 110.438 585.54 110.369 585.947 110.369C586.475 110.369 586.947 110.503 587.362 110.77C587.776 111.037 588.102 111.422 588.337 111.925C588.576 112.428 588.695 113.033 588.695 113.74C588.695 114.447 588.577 115.054 588.342 115.56C588.106 116.062 587.782 116.45 587.37 116.723C586.958 116.993 586.488 117.128 585.96 117.128C585.562 117.128 585.237 117.061 584.984 116.928C584.734 116.794 584.538 116.638 584.396 116.459C584.254 116.28 584.144 116.121 584.067 115.982H583.961V117H582.717ZM583.965 113.727C583.965 114.187 584.032 114.591 584.165 114.938C584.299 115.284 584.492 115.555 584.745 115.751C584.998 115.945 585.308 116.041 585.674 116.041C586.055 116.041 586.373 115.94 586.629 115.739C586.884 115.534 587.077 115.257 587.208 114.908C587.342 114.558 587.408 114.165 587.408 113.727C587.408 113.295 587.343 112.908 587.212 112.564C587.085 112.22 586.891 111.949 586.633 111.75C586.377 111.551 586.058 111.452 585.674 111.452C585.305 111.452 584.992 111.547 584.737 111.737C584.484 111.928 584.292 112.193 584.161 112.534C584.031 112.875 583.965 113.273 583.965 113.727ZM593.102 115.295V114.23L596.873 108.273H597.712V109.841H597.18L594.482 114.111V114.179H599.651V115.295H593.102ZM597.239 117V114.972L597.248 114.486V108.273H598.496V117H597.239Z" fill="#1A1A1A"/>
</g>
<rect x="411.5" y="101.5" width="190" height="37" stroke="#0D69D4"/>
<g clip-path="url(#clip14_858_12502)">
<mask maskUnits="userSpaceOnUse" x="0" y="0" width="0" height="0" fill="black">
<rect fill="white" width="0" height="0"/>
</mask>
<path d="M356.293 53.2929C355.902 53.6834 355.902 54.3166 356.293 54.7071L362.657 61.0711C363.047 61.4616 363.681 61.4616 364.071 61.0711C364.462 60.6805 364.462 60.0474 364.071 59.6569L358.414 54L364.071 48.3431C364.462 47.9526 364.462 47.3195 364.071 46.9289C363.681 46.5384 363.047 46.5384 362.657 46.9289L356.293 53.2929ZM387.707 54.7071C388.098 54.3166 388.098 53.6834 387.707 53.2929L381.343 46.9289C380.953 46.5384 380.319 46.5384 379.929 46.9289C379.538 47.3195 379.538 47.9526 379.929 48.3431L385.586 54L379.929 59.6569C379.538 60.0474 379.538 60.6805 379.929 61.0711C380.319 61.4616 380.953 61.4616 381.343 61.0711L387.707 54.7071ZM357 55H387V53H357V55Z" fill="#6B6B6B" mask="url(#)"/>
</g>
<path fill-rule="evenodd" clip-rule="evenodd" d="M366.011 46H361.989H360.989H357H356L356 47V51.024V52.024V52.031L356 56.0186L356 57.0186L356 61.014L356 62.014H357H360.989H361.989H366.011H367.011H371H372V61.014V57.0186V56.0186V52.024V51.024V47V46H371H367.011H366.011ZM357 61.014H360.989V57.0186H357V61.014ZM357 56.0186H360.989V52.031H357V56.0186ZM371 57.0186V61.014H367.011V57.0186H371ZM371 52.024V56.0186H367.011V52.024H371ZM371 47V51.024H367.011V47H371ZM366.011 47H361.989V51.024H366.011V47ZM366.011 52.024H361.989V52.031V56.0186H366.011V52.024ZM366.011 57.0186H361.989V61.014H366.011V57.0186Z" fill="#6B6B6B"/>
<g clip-path="url(#clip15_858_12502)">
<mask maskUnits="userSpaceOnUse" x="0" y="0" width="0" height="0" fill="black">
<rect fill="white" width="0" height="0"/>
</mask>
<path d="M364.78 102.22C364.487 101.927 364.013 101.927 363.72 102.22L358.947 106.993C358.654 107.286 358.654 107.76 358.947 108.053C359.24 108.346 359.714 108.346 360.007 108.053L364.25 103.811L368.493 108.053C368.786 108.346 369.26 108.346 369.553 108.053C369.846 107.76 369.846 107.286 369.553 106.993L364.78 102.22ZM363.72 137.78C364.013 138.073 364.487 138.073 364.78 137.78L369.553 133.007C369.846 132.714 369.846 132.24 369.553 131.947C369.26 131.654 368.786 131.654 368.493 131.947L364.25 136.189L360.007 131.947C359.714 131.654 359.24 131.654 358.947 131.947C358.654 132.24 358.654 132.714 358.947 133.007L363.72 137.78ZM363.5 102.75V137.25H365V102.75H363.5Z" fill="#0D69D4" mask="url(#)"/>
</g>
<g clip-path="url(#clip16_858_12502)">
<mask maskUnits="userSpaceOnUse" x="0" y="0" width="0" height="0" fill="black">
<rect fill="white" width="0" height="0"/>
</mask>
<path d="M402.22 52.7197C401.927 53.0126 401.927 53.4874 402.22 53.7803L406.993 58.5533C407.286 58.8462 407.76 58.8462 408.053 58.5533C408.346 58.2604 408.346 57.7855 408.053 57.4926L403.811 53.25L408.053 49.0074C408.346 48.7145 408.346 48.2396 408.053 47.9467C407.76 47.6538 407.286 47.6538 406.993 47.9467L402.22 52.7197ZM505.78 53.7803C506.073 53.4874 506.073 53.0126 505.78 52.7197L501.007 47.9467C500.714 47.6538 500.24 47.6538 499.947 47.9467C499.654 48.2396 499.654 48.7145 499.947 49.0074L504.189 53.25L499.947 57.4926C499.654 57.7855 499.654 58.2604 499.947 58.5533C500.24 58.8462 500.714 58.8462 501.007 58.5533L505.78 53.7803ZM402.75 54H505.25V52.5H402.75V54Z" fill="#0D69D4" mask="url(#)"/>
<mask maskUnits="userSpaceOnUse" x="0" y="0" width="0" height="0" fill="black">
<rect fill="white" width="0" height="0"/>
</mask>
<path d="M507.22 52.7197C506.927 53.0126 506.927 53.4874 507.22 53.7803L511.993 58.5533C512.286 58.8462 512.76 58.8462 513.053 58.5533C513.346 58.2604 513.346 57.7855 513.053 57.4926L508.811 53.25L513.053 49.0074C513.346 48.7145 513.346 48.2396 513.053 47.9467C512.76 47.6538 512.286 47.6538 511.993 47.9467L507.22 52.7197ZM610.78 53.7803C611.073 53.4874 611.073 53.0126 610.78 52.7197L606.007 47.9467C605.714 47.6538 605.24 47.6538 604.947 47.9467C604.654 48.2396 604.654 48.7145 604.947 49.0074L609.189 53.25L604.947 57.4926C604.654 57.7855 604.654 58.2604 604.947 58.5533C605.24 58.8462 605.714 58.8462 606.007 58.5533L610.78 53.7803ZM507.75 54H610.25V52.5H507.75V54Z" fill="#0D69D4" mask="url(#)"/>
</g>
<rect x="443" y="102" width="20" height="36" fill="#C54600" fill-opacity="0.3"/>
<line x1="443.5" y1="86" x2="443.5" y2="138" stroke="#C54600"/>
<line x1="462.5" y1="86" x2="462.5" y2="138" stroke="#C54600"/>
<path d="M445.707 82V80.6705L448.814 77.794C449.078 77.5384 449.3 77.3082 449.479 77.1037C449.661 76.8991 449.798 76.6989 449.892 76.5028C449.986 76.304 450.033 76.0895 450.033 75.8594C450.033 75.6037 449.974 75.3835 449.858 75.1989C449.741 75.0114 449.582 74.8679 449.381 74.7685C449.179 74.6662 448.95 74.6151 448.695 74.6151C448.428 74.6151 448.195 74.669 447.996 74.777C447.797 74.8849 447.643 75.0398 447.536 75.2415C447.428 75.4432 447.374 75.6832 447.374 75.9616H445.622C445.622 75.3906 445.751 74.8949 446.01 74.4744C446.268 74.054 446.631 73.7287 447.097 73.4986C447.563 73.2685 448.099 73.1534 448.707 73.1534C449.332 73.1534 449.876 73.2642 450.339 73.4858C450.805 73.7045 451.168 74.0085 451.426 74.3977C451.685 74.7869 451.814 75.233 451.814 75.7358C451.814 76.0653 451.749 76.3906 451.618 76.7116C451.49 77.0327 451.261 77.3892 450.932 77.7812C450.602 78.1705 450.138 78.6378 449.538 79.1832L448.264 80.4318V80.4915H451.929V82H445.707ZM456.688 82.1918C455.955 82.1889 455.324 82.0085 454.796 81.6506C454.27 81.2926 453.865 80.7741 453.581 80.0952C453.3 79.4162 453.161 78.5994 453.164 77.6449C453.164 76.6932 453.304 75.8821 453.586 75.2116C453.87 74.5412 454.275 74.0312 454.8 73.6818C455.328 73.3295 455.958 73.1534 456.688 73.1534C457.418 73.1534 458.046 73.3295 458.571 73.6818C459.1 74.0341 459.506 74.5455 459.79 75.2159C460.074 75.8835 460.215 76.6932 460.212 77.6449C460.212 78.6023 460.07 79.4205 459.786 80.0994C459.505 80.7784 459.101 81.2969 458.576 81.6548C458.05 82.0128 457.421 82.1918 456.688 82.1918ZM456.688 80.6619C457.188 80.6619 457.587 80.4105 457.885 79.9077C458.184 79.4048 458.331 78.6506 458.328 77.6449C458.328 76.983 458.26 76.4318 458.124 75.9915C457.99 75.5511 457.8 75.2202 457.553 74.9986C457.309 74.777 457.02 74.6662 456.688 74.6662C456.191 74.6662 455.793 74.9148 455.495 75.4119C455.196 75.9091 455.046 76.6534 455.043 77.6449C455.043 78.3153 455.11 78.875 455.243 79.3239C455.38 79.7699 455.571 80.1051 455.819 80.3295C456.066 80.5511 456.355 80.6619 456.688 80.6619Z" fill="#C54600"/>
<g clip-path="url(#clip17_858_12502)">
<mask maskUnits="userSpaceOnUse" x="0" y="0" width="0" height="0" fill="black">
<rect fill="white" width="0" height="0"/>
</mask>
<path d="M402.146 93.1464C401.951 93.3417 401.951 93.6583 402.146 93.8536L405.328 97.0355C405.524 97.2308 405.84 97.2308 406.036 97.0355C406.231 96.8403 406.231 96.5237 406.036 96.3284L403.207 93.5L406.036 90.6716C406.231 90.4763 406.231 90.1597 406.036 89.9645C405.84 89.7692 405.524 89.7692 405.328 89.9645L402.146 93.1464ZM426.854 93.8536C427.049 93.6583 427.049 93.3417 426.854 93.1464L423.672 89.9645C423.476 89.7692 423.16 89.7692 422.964 89.9645C422.769 90.1597 422.769 90.4763 422.964 90.6716L425.793 93.5L422.964 96.3284C422.769 96.5237 422.769 96.8403 422.964 97.0355C423.16 97.2308 423.476 97.2308 423.672 97.0355L426.854 93.8536ZM402.5 94H426.5V93H402.5V94Z" fill="#0D69D4" mask="url(#)"/>
<mask maskUnits="userSpaceOnUse" x="0" y="0" width="0" height="0" fill="black">
<rect fill="white" width="0" height="0"/>
</mask>
<path d="M428.146 93.1464C427.951 93.3417 427.951 93.6583 428.146 93.8536L431.328 97.0355C431.524 97.2308 431.84 97.2308 432.036 97.0355C432.231 96.8403 432.231 96.5237 432.036 96.3284L429.207 93.5L432.036 90.6716C432.231 90.4763 432.231 90.1597 432.036 89.9645C431.84 89.7692 431.524 89.7692 431.328 89.9645L428.146 93.1464ZM452.854 93.8536C453.049 93.6583 453.049 93.3417 452.854 93.1464L449.672 89.9645C449.476 89.7692 449.16 89.7692 448.964 89.9645C448.769 90.1597 448.769 90.4763 448.964 90.6716L451.793 93.5L448.964 96.3284C448.769 96.5237 448.769 96.8403 448.964 97.0355C449.16 97.2308 449.476 97.2308 449.672 97.0355L452.854 93.8536ZM428.5 94H452.5V93H428.5V94Z" fill="#0D69D4" mask="url(#)"/>
</g>
<rect x="412" y="102" width="31" height="34" fill="#0D69D4" fill-opacity="0.2"/>
<rect x="495" y="102" width="20" height="36" fill="#C54600" fill-opacity="0.3"/>
<line x1="495.5" y1="86" x2="495.5" y2="138" stroke="#C54600"/>
<line x1="514.5" y1="86" x2="514.5" y2="138" stroke="#C54600"/>
<path d="M497.707 82V80.6705L500.814 77.794C501.078 77.5384 501.3 77.3082 501.479 77.1037C501.661 76.8991 501.798 76.6989 501.892 76.5028C501.986 76.304 502.033 76.0895 502.033 75.8594C502.033 75.6037 501.974 75.3835 501.858 75.1989C501.741 75.0114 501.582 74.8679 501.381 74.7685C501.179 74.6662 500.95 74.6151 500.695 74.6151C500.428 74.6151 500.195 74.669 499.996 74.777C499.797 74.8849 499.643 75.0398 499.536 75.2415C499.428 75.4432 499.374 75.6832 499.374 75.9616H497.622C497.622 75.3906 497.751 74.8949 498.01 74.4744C498.268 74.054 498.631 73.7287 499.097 73.4986C499.563 73.2685 500.099 73.1534 500.707 73.1534C501.332 73.1534 501.876 73.2642 502.339 73.4858C502.805 73.7045 503.168 74.0085 503.426 74.3977C503.685 74.7869 503.814 75.233 503.814 75.7358C503.814 76.0653 503.749 76.3906 503.618 76.7116C503.49 77.0327 503.261 77.3892 502.932 77.7812C502.602 78.1705 502.138 78.6378 501.538 79.1832L500.264 80.4318V80.4915H503.929V82H497.707ZM508.688 82.1918C507.955 82.1889 507.324 82.0085 506.796 81.6506C506.27 81.2926 505.865 80.7741 505.581 80.0952C505.3 79.4162 505.161 78.5994 505.164 77.6449C505.164 76.6932 505.304 75.8821 505.586 75.2116C505.87 74.5412 506.275 74.0312 506.8 73.6818C507.328 73.3295 507.958 73.1534 508.688 73.1534C509.418 73.1534 510.046 73.3295 510.571 73.6818C511.1 74.0341 511.506 74.5455 511.79 75.2159C512.074 75.8835 512.215 76.6932 512.212 77.6449C512.212 78.6023 512.07 79.4205 511.786 80.0994C511.505 80.7784 511.101 81.2969 510.576 81.6548C510.05 82.0128 509.421 82.1918 508.688 82.1918ZM508.688 80.6619C509.188 80.6619 509.587 80.4105 509.885 79.9077C510.184 79.4048 510.331 78.6506 510.328 77.6449C510.328 76.983 510.26 76.4318 510.124 75.9915C509.99 75.5511 509.8 75.2202 509.553 74.9986C509.309 74.777 509.02 74.6662 508.688 74.6662C508.191 74.6662 507.793 74.9148 507.495 75.4119C507.196 75.9091 507.046 76.6534 507.043 77.6449C507.043 78.3153 507.11 78.875 507.243 79.3239C507.38 79.7699 507.571 80.1051 507.819 80.3295C508.066 80.5511 508.355 80.6619 508.688 80.6619Z" fill="#C54600"/>
<g clip-path="url(#clip18_858_12502)">
<mask maskUnits="userSpaceOnUse" x="0" y="0" width="0" height="0" fill="black">
<rect fill="white" width="0" height="0"/>
</mask>
<path d="M453.146 93.1464C452.951 93.3417 452.951 93.6583 453.146 93.8536L456.328 97.0355C456.524 97.2308 456.84 97.2308 457.036 97.0355C457.231 96.8403 457.231 96.5237 457.036 96.3284L454.207 93.5L457.036 90.6716C457.231 90.4763 457.231 90.1597 457.036 89.9645C456.84 89.7692 456.524 89.7692 456.328 89.9645L453.146 93.1464ZM478.354 93.8536C478.549 93.6583 478.549 93.3417 478.354 93.1464L475.172 89.9645C474.976 89.7692 474.66 89.7692 474.464 89.9645C474.269 90.1597 474.269 90.4763 474.464 90.6716L477.293 93.5L474.464 96.3284C474.269 96.5237 474.269 96.8403 474.464 97.0355C474.66 97.2308 474.976 97.2308 475.172 97.0355L478.354 93.8536ZM453.5 94H478V93H453.5V94Z" fill="#0D69D4" mask="url(#)"/>
<mask maskUnits="userSpaceOnUse" x="0" y="0" width="0" height="0" fill="black">
<rect fill="white" width="0" height="0"/>
</mask>
<path d="M479.646 93.1464C479.451 93.3417 479.451 93.6583 479.646 93.8536L482.828 97.0355C483.024 97.2308 483.34 97.2308 483.536 97.0355C483.731 96.8403 483.731 96.5237 483.536 96.3284L480.707 93.5L483.536 90.6716C483.731 90.4763 483.731 90.1597 483.536 89.9645C483.34 89.7692 483.024 89.7692 482.828 89.9645L479.646 93.1464ZM504.854 93.8536C505.049 93.6583 505.049 93.3417 504.854 93.1464L501.672 89.9645C501.476 89.7692 501.16 89.7692 500.964 89.9645C500.769 90.1597 500.769 90.4763 500.964 90.6716L503.793 93.5L500.964 96.3284C500.769 96.5237 500.769 96.8403 500.964 97.0355C501.16 97.2308 501.476 97.2308 501.672 97.0355L504.854 93.8536ZM480 94H504.5V93H480V94Z" fill="#0D69D4" mask="url(#)"/>
</g>
<rect x="463" y="102" width="32" height="22" fill="#0D69D4" fill-opacity="0.2"/>
<rect x="548" y="102" width="20" height="36" fill="#C54600" fill-opacity="0.3"/>
<line x1="548.5" y1="86" x2="548.5" y2="138" stroke="#C54600"/>
<line x1="567.5" y1="86" x2="567.5" y2="138" stroke="#C54600"/>
<path d="M550.707 82V80.6705L553.814 77.794C554.078 77.5384 554.3 77.3082 554.479 77.1037C554.661 76.8991 554.798 76.6989 554.892 76.5028C554.986 76.304 555.033 76.0895 555.033 75.8594C555.033 75.6037 554.974 75.3835 554.858 75.1989C554.741 75.0114 554.582 74.8679 554.381 74.7685C554.179 74.6662 553.95 74.6151 553.695 74.6151C553.428 74.6151 553.195 74.669 552.996 74.777C552.797 74.8849 552.643 75.0398 552.536 75.2415C552.428 75.4432 552.374 75.6832 552.374 75.9616H550.622C550.622 75.3906 550.751 74.8949 551.01 74.4744C551.268 74.054 551.631 73.7287 552.097 73.4986C552.563 73.2685 553.099 73.1534 553.707 73.1534C554.332 73.1534 554.876 73.2642 555.339 73.4858C555.805 73.7045 556.168 74.0085 556.426 74.3977C556.685 74.7869 556.814 75.233 556.814 75.7358C556.814 76.0653 556.749 76.3906 556.618 76.7116C556.49 77.0327 556.261 77.3892 555.932 77.7812C555.602 78.1705 555.138 78.6378 554.538 79.1832L553.264 80.4318V80.4915H556.929V82H550.707ZM561.688 82.1918C560.955 82.1889 560.324 82.0085 559.796 81.6506C559.27 81.2926 558.865 80.7741 558.581 80.0952C558.3 79.4162 558.161 78.5994 558.164 77.6449C558.164 76.6932 558.304 75.8821 558.586 75.2116C558.87 74.5412 559.275 74.0312 559.8 73.6818C560.328 73.3295 560.958 73.1534 561.688 73.1534C562.418 73.1534 563.046 73.3295 563.571 73.6818C564.1 74.0341 564.506 74.5455 564.79 75.2159C565.074 75.8835 565.215 76.6932 565.212 77.6449C565.212 78.6023 565.07 79.4205 564.786 80.0994C564.505 80.7784 564.101 81.2969 563.576 81.6548C563.05 82.0128 562.421 82.1918 561.688 82.1918ZM561.688 80.6619C562.188 80.6619 562.587 80.4105 562.885 79.9077C563.184 79.4048 563.331 78.6506 563.328 77.6449C563.328 76.983 563.26 76.4318 563.124 75.9915C562.99 75.5511 562.8 75.2202 562.553 74.9986C562.309 74.777 562.02 74.6662 561.688 74.6662C561.191 74.6662 560.793 74.9148 560.495 75.4119C560.196 75.9091 560.046 76.6534 560.043 77.6449C560.043 78.3153 560.11 78.875 560.243 79.3239C560.38 79.7699 560.571 80.1051 560.819 80.3295C561.066 80.5511 561.355 80.6619 561.688 80.6619Z" fill="#C54600"/>
<g clip-path="url(#clip19_858_12502)">
<mask maskUnits="userSpaceOnUse" x="0" y="0" width="0" height="0" fill="black">
<rect fill="white" width="0" height="0"/>
</mask>
<path d="M505.146 93.1464C504.951 93.3417 504.951 93.6583 505.146 93.8536L508.328 97.0355C508.524 97.2308 508.84 97.2308 509.036 97.0355C509.231 96.8403 509.231 96.5237 509.036 96.3284L506.207 93.5L509.036 90.6716C509.231 90.4763 509.231 90.1597 509.036 89.9645C508.84 89.7692 508.524 89.7692 508.328 89.9645L505.146 93.1464ZM530.854 93.8536C531.049 93.6583 531.049 93.3417 530.854 93.1464L527.672 89.9645C527.476 89.7692 527.16 89.7692 526.964 89.9645C526.769 90.1597 526.769 90.4763 526.964 90.6716L529.793 93.5L526.964 96.3284C526.769 96.5237 526.769 96.8403 526.964 97.0355C527.16 97.2308 527.476 97.2308 527.672 97.0355L530.854 93.8536ZM505.5 94H530.5V93H505.5V94Z" fill="#0D69D4" mask="url(#)"/>
<mask maskUnits="userSpaceOnUse" x="0" y="0" width="0" height="0" fill="black">
<rect fill="white" width="0" height="0"/>
</mask>
<path d="M532.146 93.1464C531.951 93.3417 531.951 93.6583 532.146 93.8536L535.328 97.0355C535.524 97.2308 535.84 97.2308 536.036 97.0355C536.231 96.8403 536.231 96.5237 536.036 96.3284L533.207 93.5L536.036 90.6716C536.231 90.4763 536.231 90.1597 536.036 89.9645C535.84 89.7692 535.524 89.7692 535.328 89.9645L532.146 93.1464ZM557.854 93.8536C558.049 93.6583 558.049 93.3417 557.854 93.1464L554.672 89.9645C554.476 89.7692 554.16 89.7692 553.964 89.9645C553.769 90.1597 553.769 90.4763 553.964 90.6716L556.793 93.5L553.964 96.3284C553.769 96.5237 553.769 96.8403 553.964 97.0355C554.16 97.2308 554.476 97.2308 554.672 97.0355L557.854 93.8536ZM532.5 94H557.5V93H532.5V94Z" fill="#0D69D4" mask="url(#)"/>
</g>
<rect x="515" y="102" width="33" height="22" fill="#0D69D4" fill-opacity="0.2"/>
<g clip-path="url(#clip20_858_12502)">
<mask maskUnits="userSpaceOnUse" x="0" y="0" width="0" height="0" fill="black">
<rect fill="white" width="0" height="0"/>
</mask>
<path d="M558.146 93.1464C557.951 93.3417 557.951 93.6583 558.146 93.8536L561.328 97.0355C561.524 97.2308 561.84 97.2308 562.036 97.0355C562.231 96.8403 562.231 96.5237 562.036 96.3284L559.207 93.5L562.036 90.6716C562.231 90.4763 562.231 90.1597 562.036 89.9645C561.84 89.7692 561.524 89.7692 561.328 89.9645L558.146 93.1464ZM583.854 93.8536C584.049 93.6583 584.049 93.3417 583.854 93.1464L580.672 89.9645C580.476 89.7692 580.16 89.7692 579.964 89.9645C579.769 90.1597 579.769 90.4763 579.964 90.6716L582.793 93.5L579.964 96.3284C579.769 96.5237 579.769 96.8403 579.964 97.0355C580.16 97.2308 580.476 97.2308 580.672 97.0355L583.854 93.8536ZM558.5 94H583.5V93H558.5V94Z" fill="#0D69D4" mask="url(#)"/>
<mask maskUnits="userSpaceOnUse" x="0" y="0" width="0" height="0" fill="black">
<rect fill="white" width="0" height="0"/>
</mask>
<path d="M585.146 93.1464C584.951 93.3417 584.951 93.6583 585.146 93.8536L588.328 97.0355C588.524 97.2308 588.84 97.2308 589.036 97.0355C589.231 96.8403 589.231 96.5237 589.036 96.3284L586.207 93.5L589.036 90.6716C589.231 90.4763 589.231 90.1597 589.036 89.9645C588.84 89.7692 588.524 89.7692 588.328 89.9645L585.146 93.1464ZM610.854 93.8536C611.049 93.6583 611.049 93.3417 610.854 93.1464L607.672 89.9645C607.476 89.7692 607.16 89.7692 606.964 89.9645C606.769 90.1597 606.769 90.4763 606.964 90.6716L609.793 93.5L606.964 96.3284C606.769 96.5237 606.769 96.8403 606.964 97.0355C607.16 97.2308 607.476 97.2308 607.672 97.0355L610.854 93.8536ZM585.5 94H610.5V93H585.5V94Z" fill="#0D69D4" mask="url(#)"/>
</g>
<rect x="568" y="102" width="33" height="22" fill="#0D69D4" fill-opacity="0.2"/>
<defs>
<clipPath id="clip0_858_12502">
<rect width="32" height="34" fill="white" transform="translate(260 103)"/>
</clipPath>
<clipPath id="clip1_858_12502">
<rect width="16" height="16" fill="white" transform="translate(220 47)"/>
</clipPath>
<clipPath id="clip2_858_12502">
<rect width="22" height="16" fill="white" transform="matrix(0 1 -1 0 220 103)"/>
</clipPath>
<clipPath id="clip3_858_12502">
<rect width="42" height="16" fill="white" transform="matrix(0 1 -1 0 220 93)"/>
</clipPath>
<clipPath id="clip4_858_12502">
<rect width="32" height="16" fill="white" transform="translate(260 47)"/>
</clipPath>
<clipPath id="clip5_858_12502">
<rect width="32" height="16" fill="white" transform="translate(260 87)"/>
</clipPath>
<clipPath id="clip6_858_12502">
<rect width="31" height="34" fill="white" transform="translate(412 102)"/>
</clipPath>
<clipPath id="clip7_858_12502">
<rect width="32" height="22" fill="white" transform="translate(463 102)"/>
</clipPath>
<clipPath id="clip8_858_12502">
<rect width="33" height="22" fill="white" transform="translate(515 102)"/>
</clipPath>
<clipPath id="clip9_858_12502">
<rect width="33" height="22" fill="white" transform="translate(568 102)"/>
</clipPath>
<clipPath id="clip10_858_12502">
<rect width="31" height="34" fill="white" transform="translate(412 102)"/>
</clipPath>
<clipPath id="clip11_858_12502">
<rect width="32" height="22" fill="white" transform="translate(463 102)"/>
</clipPath>
<clipPath id="clip12_858_12502">
<rect width="33" height="22" fill="white" transform="translate(515 102)"/>
</clipPath>
<clipPath id="clip13_858_12502">
<rect width="33" height="22" fill="white" transform="translate(568 102)"/>
</clipPath>
<clipPath id="clip14_858_12502">
<rect width="16" height="16" fill="white" transform="translate(372 46)"/>
</clipPath>
<clipPath id="clip15_858_12502">
<rect width="36" height="16" fill="white" transform="matrix(0 1 -1 0 372 102)"/>
</clipPath>
<clipPath id="clip16_858_12502">
<rect width="189" height="16" fill="white" transform="translate(412 46)"/>
</clipPath>
<clipPath id="clip17_858_12502">
<rect width="31" height="16" fill="white" transform="translate(412 86)"/>
</clipPath>
<clipPath id="clip18_858_12502">
<rect width="32" height="16" fill="white" transform="translate(463 86)"/>
</clipPath>
<clipPath id="clip19_858_12502">
<rect width="33" height="16" fill="white" transform="translate(515 86)"/>
</clipPath>
<clipPath id="clip20_858_12502">
<rect width="33" height="16" fill="white" transform="translate(568 86)"/>
</clipPath>
</defs>
</svg>
