<svg width="804" height="161" viewBox="0 0 804 161" fill="none" xmlns="http://www.w3.org/2000/svg">
<rect width="804" height="160" transform="translate(0 0.199219)" fill="#F9FAFB"/>
<g clip-path="url(#clip0_858_12197)">
<path d="M190.959 54.1992V45.4719H192.276V53.0657H196.23V54.1992H190.959ZM199.535 54.3441C199.12 54.3441 198.745 54.2674 198.41 54.114C198.075 53.9577 197.809 53.7319 197.613 53.4364C197.42 53.141 197.323 52.7788 197.323 52.3498C197.323 51.9805 197.394 51.6765 197.536 51.4379C197.678 51.1992 197.87 51.0103 198.112 50.8711C198.353 50.7319 198.623 50.6268 198.921 50.5558C199.219 50.4847 199.523 50.4308 199.833 50.3938C200.225 50.3484 200.543 50.3114 200.788 50.283C201.032 50.2518 201.21 50.2021 201.32 50.1339C201.431 50.0657 201.487 49.9549 201.487 49.8015V49.7717C201.487 49.3995 201.381 49.1112 201.171 48.9066C200.964 48.7021 200.654 48.5998 200.242 48.5998C199.813 48.5998 199.475 48.695 199.228 48.8853C198.984 49.0728 198.815 49.2816 198.721 49.5117L197.523 49.239C197.665 48.8413 197.873 48.5202 198.146 48.2759C198.421 48.0288 198.738 47.8498 199.096 47.739C199.454 47.6254 199.83 47.5685 200.225 47.5685C200.487 47.5685 200.763 47.5998 201.056 47.6623C201.352 47.7219 201.627 47.8327 201.883 47.9947C202.141 48.1566 202.353 48.3881 202.518 48.6893C202.683 48.9876 202.765 49.3754 202.765 49.8526V54.1992H201.521V53.3043H201.469C201.387 53.4691 201.263 53.631 201.099 53.7901C200.934 53.9492 200.722 54.0813 200.464 54.1864C200.205 54.2915 199.896 54.3441 199.535 54.3441ZM199.812 53.3214C200.164 53.3214 200.465 53.2518 200.715 53.1126C200.968 52.9734 201.16 52.7915 201.29 52.5671C201.424 52.3398 201.491 52.0969 201.491 51.8384V50.9947C201.445 51.0401 201.357 51.0827 201.227 51.1225C201.099 51.1594 200.952 51.1921 200.788 51.2205C200.623 51.2461 200.462 51.2702 200.306 51.293C200.15 51.3129 200.019 51.3299 199.914 51.3441C199.667 51.3754 199.441 51.4279 199.237 51.5018C199.035 51.5756 198.873 51.6822 198.751 51.8214C198.631 51.9577 198.572 52.1396 198.572 52.3668C198.572 52.6822 198.688 52.9208 198.921 53.0827C199.154 53.2418 199.451 53.3214 199.812 53.3214ZM204.564 54.1992V45.4719H205.838V48.7148H205.915C205.989 48.5785 206.096 48.4208 206.235 48.2418C206.374 48.0629 206.567 47.9066 206.814 47.7731C207.061 47.6367 207.388 47.5685 207.794 47.5685C208.323 47.5685 208.794 47.7021 209.209 47.9691C209.624 48.2362 209.949 48.6211 210.185 49.1239C210.424 49.6268 210.543 50.2319 210.543 50.9393C210.543 51.6467 210.425 52.2532 210.189 52.7589C209.953 53.2617 209.63 53.6495 209.218 53.9222C208.806 54.1921 208.336 54.3271 207.807 54.3271C207.409 54.3271 207.084 54.2603 206.831 54.1268C206.581 53.9933 206.385 53.837 206.243 53.658C206.101 53.479 205.992 53.32 205.915 53.1808H205.809V54.1992H204.564ZM205.813 50.9265C205.813 51.3867 205.88 51.7901 206.013 52.1367C206.147 52.4833 206.34 52.7546 206.593 52.9506C206.846 53.1438 207.155 53.2404 207.522 53.2404C207.902 53.2404 208.221 53.1396 208.476 52.9379C208.732 52.7333 208.925 52.4563 209.056 52.1069C209.189 51.7575 209.256 51.364 209.256 50.9265C209.256 50.4947 209.191 50.1069 209.06 49.7631C208.932 49.4194 208.739 49.1481 208.48 48.9492C208.225 48.7504 207.905 48.6509 207.522 48.6509C207.152 48.6509 206.84 48.7461 206.584 48.9364C206.331 49.1268 206.14 49.3924 206.009 49.7333C205.878 50.0742 205.813 50.4719 205.813 50.9265ZM214.795 54.3313C214.15 54.3313 213.594 54.1935 213.129 53.918C212.665 53.6396 212.308 53.2489 212.055 52.7461C211.805 52.2404 211.68 51.6481 211.68 50.9691C211.68 50.2987 211.805 49.7077 212.055 49.1964C212.308 48.685 212.66 48.2859 213.112 47.9989C213.566 47.712 214.097 47.5685 214.705 47.5685C215.075 47.5685 215.433 47.6296 215.779 47.7518C216.126 47.8739 216.437 48.0657 216.712 48.3271C216.988 48.5884 217.205 48.9279 217.364 49.3455C217.523 49.7603 217.603 50.2646 217.603 50.8583V51.31H212.4V50.3555H216.354C216.354 50.0202 216.286 49.7234 216.15 49.4648C216.013 49.2035 215.822 48.9975 215.575 48.8469C215.33 48.6964 215.043 48.6211 214.714 48.6211C214.356 48.6211 214.043 48.7092 213.776 48.8853C213.512 49.0586 213.308 49.2859 213.163 49.5671C213.021 49.8455 212.95 50.1481 212.95 50.4748V51.2205C212.95 51.658 213.026 52.0302 213.18 52.337C213.336 52.6438 213.553 52.8782 213.832 53.0401C214.11 53.1992 214.435 53.2788 214.808 53.2788C215.049 53.2788 215.269 53.2447 215.468 53.1765C215.667 53.1055 215.839 53.0004 215.984 52.8612C216.129 52.7219 216.239 52.5501 216.316 52.3455L217.522 52.5629C217.425 52.918 217.252 53.229 217.002 53.4961C216.755 53.7603 216.444 53.9663 216.069 54.114C215.697 54.2589 215.272 54.3313 214.795 54.3313ZM220.291 45.4719V54.1992H219.017V45.4719H220.291Z" fill="#217CF5"/>
<path fill-rule="evenodd" clip-rule="evenodd" d="M190 73.1992H222V73.1992C222 72.0946 221.105 71.1992 220 71.1992H192C190.895 71.1992 190 72.0946 190 73.1992V73.1992Z" fill="#217CF5"/>
</g>
<g clip-path="url(#clip1_858_12197)">
<path d="M317.959 54.1992V45.4719H319.276V53.0657H323.23V54.1992H317.959ZM326.535 54.3441C326.12 54.3441 325.745 54.2674 325.41 54.114C325.075 53.9577 324.809 53.7319 324.613 53.4364C324.42 53.141 324.323 52.7788 324.323 52.3498C324.323 51.9805 324.394 51.6765 324.536 51.4379C324.678 51.1992 324.87 51.0103 325.112 50.8711C325.353 50.7319 325.623 50.6268 325.921 50.5558C326.219 50.4847 326.523 50.4308 326.833 50.3938C327.225 50.3484 327.543 50.3114 327.788 50.283C328.032 50.2518 328.21 50.2021 328.32 50.1339C328.431 50.0657 328.487 49.9549 328.487 49.8015V49.7717C328.487 49.3995 328.381 49.1112 328.171 48.9066C327.964 48.7021 327.654 48.5998 327.242 48.5998C326.813 48.5998 326.475 48.695 326.228 48.8853C325.984 49.0728 325.815 49.2816 325.721 49.5117L324.523 49.239C324.665 48.8413 324.873 48.5202 325.146 48.2759C325.421 48.0288 325.738 47.8498 326.096 47.739C326.454 47.6254 326.83 47.5685 327.225 47.5685C327.487 47.5685 327.763 47.5998 328.056 47.6623C328.352 47.7219 328.627 47.8327 328.883 47.9947C329.141 48.1566 329.353 48.3881 329.518 48.6893C329.683 48.9876 329.765 49.3754 329.765 49.8526V54.1992H328.521V53.3043H328.469C328.387 53.4691 328.263 53.631 328.099 53.7901C327.934 53.9492 327.722 54.0813 327.464 54.1864C327.205 54.2915 326.896 54.3441 326.535 54.3441ZM326.812 53.3214C327.164 53.3214 327.465 53.2518 327.715 53.1126C327.968 52.9734 328.16 52.7915 328.29 52.5671C328.424 52.3398 328.491 52.0969 328.491 51.8384V50.9947C328.445 51.0401 328.357 51.0827 328.227 51.1225C328.099 51.1594 327.952 51.1921 327.788 51.2205C327.623 51.2461 327.462 51.2702 327.306 51.293C327.15 51.3129 327.019 51.3299 326.914 51.3441C326.667 51.3754 326.441 51.4279 326.237 51.5018C326.035 51.5756 325.873 51.6822 325.751 51.8214C325.631 51.9577 325.572 52.1396 325.572 52.3668C325.572 52.6822 325.688 52.9208 325.921 53.0827C326.154 53.2418 326.451 53.3214 326.812 53.3214ZM331.564 54.1992V45.4719H332.838V48.7148H332.915C332.989 48.5785 333.096 48.4208 333.235 48.2418C333.374 48.0629 333.567 47.9066 333.814 47.7731C334.061 47.6367 334.388 47.5685 334.794 47.5685C335.323 47.5685 335.794 47.7021 336.209 47.9691C336.624 48.2362 336.949 48.6211 337.185 49.1239C337.424 49.6268 337.543 50.2319 337.543 50.9393C337.543 51.6467 337.425 52.2532 337.189 52.7589C336.953 53.2617 336.63 53.6495 336.218 53.9222C335.806 54.1921 335.336 54.3271 334.807 54.3271C334.409 54.3271 334.084 54.2603 333.831 54.1268C333.581 53.9933 333.385 53.837 333.243 53.658C333.101 53.479 332.992 53.32 332.915 53.1808H332.809V54.1992H331.564ZM332.813 50.9265C332.813 51.3867 332.88 51.7901 333.013 52.1367C333.147 52.4833 333.34 52.7546 333.593 52.9506C333.846 53.1438 334.155 53.2404 334.522 53.2404C334.902 53.2404 335.221 53.1396 335.476 52.9379C335.732 52.7333 335.925 52.4563 336.056 52.1069C336.189 51.7575 336.256 51.364 336.256 50.9265C336.256 50.4947 336.191 50.1069 336.06 49.7631C335.932 49.4194 335.739 49.1481 335.48 48.9492C335.225 48.7504 334.905 48.6509 334.522 48.6509C334.152 48.6509 333.84 48.7461 333.584 48.9364C333.331 49.1268 333.14 49.3924 333.009 49.7333C332.878 50.0742 332.813 50.4719 332.813 50.9265ZM341.795 54.3313C341.15 54.3313 340.594 54.1935 340.129 53.918C339.665 53.6396 339.308 53.2489 339.055 52.7461C338.805 52.2404 338.68 51.6481 338.68 50.9691C338.68 50.2987 338.805 49.7077 339.055 49.1964C339.308 48.685 339.66 48.2859 340.112 47.9989C340.566 47.712 341.097 47.5685 341.705 47.5685C342.075 47.5685 342.433 47.6296 342.779 47.7518C343.126 47.8739 343.437 48.0657 343.712 48.3271C343.988 48.5884 344.205 48.9279 344.364 49.3455C344.523 49.7603 344.603 50.2646 344.603 50.8583V51.31H339.4V50.3555H343.354C343.354 50.0202 343.286 49.7234 343.15 49.4648C343.013 49.2035 342.822 48.9975 342.575 48.8469C342.33 48.6964 342.043 48.6211 341.714 48.6211C341.356 48.6211 341.043 48.7092 340.776 48.8853C340.512 49.0586 340.308 49.2859 340.163 49.5671C340.021 49.8455 339.95 50.1481 339.95 50.4748V51.2205C339.95 51.658 340.026 52.0302 340.18 52.337C340.336 52.6438 340.553 52.8782 340.832 53.0401C341.11 53.1992 341.435 53.2788 341.808 53.2788C342.049 53.2788 342.269 53.2447 342.468 53.1765C342.667 53.1055 342.839 53.0004 342.984 52.8612C343.129 52.7219 343.239 52.5501 343.316 52.3455L344.522 52.5629C344.425 52.918 344.252 53.229 344.002 53.4961C343.755 53.7603 343.444 53.9663 343.069 54.114C342.697 54.2589 342.272 54.3313 341.795 54.3313ZM347.291 45.4719V54.1992H346.017V45.4719H347.291Z" fill="#217CF5"/>
<path fill-rule="evenodd" clip-rule="evenodd" d="M317 73.1992H349V73.1992C349 72.0946 348.105 71.1992 347 71.1992H319C317.895 71.1992 317 72.0946 317 73.1992V73.1992Z" fill="#217CF5"/>
</g>
<g clip-path="url(#clip2_858_12197)">
<path d="M444.959 54.1992V45.4719H446.276V53.0657H450.23V54.1992H444.959ZM453.535 54.3441C453.12 54.3441 452.745 54.2674 452.41 54.114C452.075 53.9577 451.809 53.7319 451.613 53.4364C451.42 53.141 451.323 52.7788 451.323 52.3498C451.323 51.9805 451.394 51.6765 451.536 51.4379C451.678 51.1992 451.87 51.0103 452.112 50.8711C452.353 50.7319 452.623 50.6268 452.921 50.5558C453.219 50.4847 453.523 50.4308 453.833 50.3938C454.225 50.3484 454.543 50.3114 454.788 50.283C455.032 50.2518 455.21 50.2021 455.32 50.1339C455.431 50.0657 455.487 49.9549 455.487 49.8015V49.7717C455.487 49.3995 455.381 49.1112 455.171 48.9066C454.964 48.7021 454.654 48.5998 454.242 48.5998C453.813 48.5998 453.475 48.695 453.228 48.8853C452.984 49.0728 452.815 49.2816 452.721 49.5117L451.523 49.239C451.665 48.8413 451.873 48.5202 452.146 48.2759C452.421 48.0288 452.738 47.8498 453.096 47.739C453.454 47.6254 453.83 47.5685 454.225 47.5685C454.487 47.5685 454.763 47.5998 455.056 47.6623C455.352 47.7219 455.627 47.8327 455.883 47.9947C456.141 48.1566 456.353 48.3881 456.518 48.6893C456.683 48.9876 456.765 49.3754 456.765 49.8526V54.1992H455.521V53.3043H455.469C455.387 53.4691 455.263 53.631 455.099 53.7901C454.934 53.9492 454.722 54.0813 454.464 54.1864C454.205 54.2915 453.896 54.3441 453.535 54.3441ZM453.812 53.3214C454.164 53.3214 454.465 53.2518 454.715 53.1126C454.968 52.9734 455.16 52.7915 455.29 52.5671C455.424 52.3398 455.491 52.0969 455.491 51.8384V50.9947C455.445 51.0401 455.357 51.0827 455.227 51.1225C455.099 51.1594 454.952 51.1921 454.788 51.2205C454.623 51.2461 454.462 51.2702 454.306 51.293C454.15 51.3129 454.019 51.3299 453.914 51.3441C453.667 51.3754 453.441 51.4279 453.237 51.5018C453.035 51.5756 452.873 51.6822 452.751 51.8214C452.631 51.9577 452.572 52.1396 452.572 52.3668C452.572 52.6822 452.688 52.9208 452.921 53.0827C453.154 53.2418 453.451 53.3214 453.812 53.3214ZM458.564 54.1992V45.4719H459.838V48.7148H459.915C459.989 48.5785 460.096 48.4208 460.235 48.2418C460.374 48.0629 460.567 47.9066 460.814 47.7731C461.061 47.6367 461.388 47.5685 461.794 47.5685C462.323 47.5685 462.794 47.7021 463.209 47.9691C463.624 48.2362 463.949 48.6211 464.185 49.1239C464.424 49.6268 464.543 50.2319 464.543 50.9393C464.543 51.6467 464.425 52.2532 464.189 52.7589C463.953 53.2617 463.63 53.6495 463.218 53.9222C462.806 54.1921 462.336 54.3271 461.807 54.3271C461.409 54.3271 461.084 54.2603 460.831 54.1268C460.581 53.9933 460.385 53.837 460.243 53.658C460.101 53.479 459.992 53.32 459.915 53.1808H459.809V54.1992H458.564ZM459.813 50.9265C459.813 51.3867 459.88 51.7901 460.013 52.1367C460.147 52.4833 460.34 52.7546 460.593 52.9506C460.846 53.1438 461.155 53.2404 461.522 53.2404C461.902 53.2404 462.221 53.1396 462.476 52.9379C462.732 52.7333 462.925 52.4563 463.056 52.1069C463.189 51.7575 463.256 51.364 463.256 50.9265C463.256 50.4947 463.191 50.1069 463.06 49.7631C462.932 49.4194 462.739 49.1481 462.48 48.9492C462.225 48.7504 461.905 48.6509 461.522 48.6509C461.152 48.6509 460.84 48.7461 460.584 48.9364C460.331 49.1268 460.14 49.3924 460.009 49.7333C459.878 50.0742 459.813 50.4719 459.813 50.9265ZM468.795 54.3313C468.15 54.3313 467.594 54.1935 467.129 53.918C466.665 53.6396 466.308 53.2489 466.055 52.7461C465.805 52.2404 465.68 51.6481 465.68 50.9691C465.68 50.2987 465.805 49.7077 466.055 49.1964C466.308 48.685 466.66 48.2859 467.112 47.9989C467.566 47.712 468.097 47.5685 468.705 47.5685C469.075 47.5685 469.433 47.6296 469.779 47.7518C470.126 47.8739 470.437 48.0657 470.712 48.3271C470.988 48.5884 471.205 48.9279 471.364 49.3455C471.523 49.7603 471.603 50.2646 471.603 50.8583V51.31H466.4V50.3555H470.354C470.354 50.0202 470.286 49.7234 470.15 49.4648C470.013 49.2035 469.822 48.9975 469.575 48.8469C469.33 48.6964 469.043 48.6211 468.714 48.6211C468.356 48.6211 468.043 48.7092 467.776 48.8853C467.512 49.0586 467.308 49.2859 467.163 49.5671C467.021 49.8455 466.95 50.1481 466.95 50.4748V51.2205C466.95 51.658 467.026 52.0302 467.18 52.337C467.336 52.6438 467.553 52.8782 467.832 53.0401C468.11 53.1992 468.435 53.2788 468.808 53.2788C469.049 53.2788 469.269 53.2447 469.468 53.1765C469.667 53.1055 469.839 53.0004 469.984 52.8612C470.129 52.7219 470.239 52.5501 470.316 52.3455L471.522 52.5629C471.425 52.918 471.252 53.229 471.002 53.4961C470.755 53.7603 470.444 53.9663 470.069 54.114C469.697 54.2589 469.272 54.3313 468.795 54.3313ZM474.291 45.4719V54.1992H473.017V45.4719H474.291Z" fill="#217CF5"/>
<path fill-rule="evenodd" clip-rule="evenodd" d="M444 73.1992H476V73.1992C476 72.0946 475.105 71.1992 474 71.1992H446C444.895 71.1992 444 72.0946 444 73.1992V73.1992Z" fill="#217CF5"/>
</g>
<g clip-path="url(#clip3_858_12197)">
<path d="M571.959 54.1992V45.4719H573.276V53.0657H577.23V54.1992H571.959ZM580.535 54.3441C580.12 54.3441 579.745 54.2674 579.41 54.114C579.075 53.9577 578.809 53.7319 578.613 53.4364C578.42 53.141 578.323 52.7788 578.323 52.3498C578.323 51.9805 578.394 51.6765 578.536 51.4379C578.678 51.1992 578.87 51.0103 579.112 50.8711C579.353 50.7319 579.623 50.6268 579.921 50.5558C580.219 50.4847 580.523 50.4308 580.833 50.3938C581.225 50.3484 581.543 50.3114 581.788 50.283C582.032 50.2518 582.21 50.2021 582.32 50.1339C582.431 50.0657 582.487 49.9549 582.487 49.8015V49.7717C582.487 49.3995 582.381 49.1112 582.171 48.9066C581.964 48.7021 581.654 48.5998 581.242 48.5998C580.813 48.5998 580.475 48.695 580.228 48.8853C579.984 49.0728 579.815 49.2816 579.721 49.5117L578.523 49.239C578.665 48.8413 578.873 48.5202 579.146 48.2759C579.421 48.0288 579.738 47.8498 580.096 47.739C580.454 47.6254 580.83 47.5685 581.225 47.5685C581.487 47.5685 581.763 47.5998 582.056 47.6623C582.352 47.7219 582.627 47.8327 582.883 47.9947C583.141 48.1566 583.353 48.3881 583.518 48.6893C583.683 48.9876 583.765 49.3754 583.765 49.8526V54.1992H582.521V53.3043H582.469C582.387 53.4691 582.263 53.631 582.099 53.7901C581.934 53.9492 581.722 54.0813 581.464 54.1864C581.205 54.2915 580.896 54.3441 580.535 54.3441ZM580.812 53.3214C581.164 53.3214 581.465 53.2518 581.715 53.1126C581.968 52.9734 582.16 52.7915 582.29 52.5671C582.424 52.3398 582.491 52.0969 582.491 51.8384V50.9947C582.445 51.0401 582.357 51.0827 582.227 51.1225C582.099 51.1594 581.952 51.1921 581.788 51.2205C581.623 51.2461 581.462 51.2702 581.306 51.293C581.15 51.3129 581.019 51.3299 580.914 51.3441C580.667 51.3754 580.441 51.4279 580.237 51.5018C580.035 51.5756 579.873 51.6822 579.751 51.8214C579.631 51.9577 579.572 52.1396 579.572 52.3668C579.572 52.6822 579.688 52.9208 579.921 53.0827C580.154 53.2418 580.451 53.3214 580.812 53.3214ZM585.564 54.1992V45.4719H586.838V48.7148H586.915C586.989 48.5785 587.096 48.4208 587.235 48.2418C587.374 48.0629 587.567 47.9066 587.814 47.7731C588.061 47.6367 588.388 47.5685 588.794 47.5685C589.323 47.5685 589.794 47.7021 590.209 47.9691C590.624 48.2362 590.949 48.6211 591.185 49.1239C591.424 49.6268 591.543 50.2319 591.543 50.9393C591.543 51.6467 591.425 52.2532 591.189 52.7589C590.953 53.2617 590.63 53.6495 590.218 53.9222C589.806 54.1921 589.336 54.3271 588.807 54.3271C588.409 54.3271 588.084 54.2603 587.831 54.1268C587.581 53.9933 587.385 53.837 587.243 53.658C587.101 53.479 586.992 53.32 586.915 53.1808H586.809V54.1992H585.564ZM586.813 50.9265C586.813 51.3867 586.88 51.7901 587.013 52.1367C587.147 52.4833 587.34 52.7546 587.593 52.9506C587.846 53.1438 588.155 53.2404 588.522 53.2404C588.902 53.2404 589.221 53.1396 589.476 52.9379C589.732 52.7333 589.925 52.4563 590.056 52.1069C590.189 51.7575 590.256 51.364 590.256 50.9265C590.256 50.4947 590.191 50.1069 590.06 49.7631C589.932 49.4194 589.739 49.1481 589.48 48.9492C589.225 48.7504 588.905 48.6509 588.522 48.6509C588.152 48.6509 587.84 48.7461 587.584 48.9364C587.331 49.1268 587.14 49.3924 587.009 49.7333C586.878 50.0742 586.813 50.4719 586.813 50.9265ZM595.795 54.3313C595.15 54.3313 594.594 54.1935 594.129 53.918C593.665 53.6396 593.308 53.2489 593.055 52.7461C592.805 52.2404 592.68 51.6481 592.68 50.9691C592.68 50.2987 592.805 49.7077 593.055 49.1964C593.308 48.685 593.66 48.2859 594.112 47.9989C594.566 47.712 595.097 47.5685 595.705 47.5685C596.075 47.5685 596.433 47.6296 596.779 47.7518C597.126 47.8739 597.437 48.0657 597.712 48.3271C597.988 48.5884 598.205 48.9279 598.364 49.3455C598.523 49.7603 598.603 50.2646 598.603 50.8583V51.31H593.4V50.3555H597.354C597.354 50.0202 597.286 49.7234 597.15 49.4648C597.013 49.2035 596.822 48.9975 596.575 48.8469C596.33 48.6964 596.043 48.6211 595.714 48.6211C595.356 48.6211 595.043 48.7092 594.776 48.8853C594.512 49.0586 594.308 49.2859 594.163 49.5671C594.021 49.8455 593.95 50.1481 593.95 50.4748V51.2205C593.95 51.658 594.026 52.0302 594.18 52.337C594.336 52.6438 594.553 52.8782 594.832 53.0401C595.11 53.1992 595.435 53.2788 595.808 53.2788C596.049 53.2788 596.269 53.2447 596.468 53.1765C596.667 53.1055 596.839 53.0004 596.984 52.8612C597.129 52.7219 597.239 52.5501 597.316 52.3455L598.522 52.5629C598.425 52.918 598.252 53.229 598.002 53.4961C597.755 53.7603 597.444 53.9663 597.069 54.114C596.697 54.2589 596.272 54.3313 595.795 54.3313ZM601.291 45.4719V54.1992H600.017V45.4719H601.291Z" fill="#A6CBFB"/>
<path fill-rule="evenodd" clip-rule="evenodd" d="M571 73.1992H603V73.1992C603 72.0946 602.105 71.1992 601 71.1992H573C571.895 71.1992 571 72.0946 571 73.1992V73.1992Z" fill="#A6CBFB"/>
</g>
<rect x="206" y="119.699" width="42" height="1" transform="rotate(-90 206 119.699)" fill="#C54600"/>
<g clip-path="url(#clip4_858_12197)">
<rect x="194" y="95.6992" width="24" height="24" rx="12" fill="#C54600"/>
<path d="M207.183 102.972V111.699H206.126V104.08H206.075L203.944 105.495V104.421L206.126 102.972H207.183Z" fill="white"/>
</g>
<rect x="333" y="119.699" width="42" height="1" transform="rotate(-90 333 119.699)" fill="#C54600"/>
<g clip-path="url(#clip5_858_12197)">
<rect x="321" y="95.6992" width="24" height="24" rx="12" fill="#C54600"/>
<path d="M330.271 111.699V110.932L333.151 107.779C333.489 107.409 333.768 107.088 333.987 106.816C334.205 106.54 334.367 106.282 334.472 106.04C334.58 105.796 334.634 105.54 334.634 105.273C334.634 104.966 334.56 104.701 334.413 104.476C334.268 104.252 334.069 104.078 333.816 103.956C333.563 103.834 333.279 103.773 332.964 103.773C332.629 103.773 332.336 103.843 332.086 103.982C331.839 104.118 331.647 104.31 331.511 104.557C331.377 104.804 331.31 105.094 331.31 105.426H330.305C330.305 104.915 330.423 104.466 330.658 104.08C330.894 103.694 331.215 103.392 331.621 103.176C332.031 102.961 332.489 102.853 332.998 102.853C333.509 102.853 333.962 102.961 334.357 103.176C334.752 103.392 335.062 103.684 335.286 104.05C335.511 104.417 335.623 104.824 335.623 105.273C335.623 105.594 335.565 105.908 335.448 106.215C335.335 106.519 335.136 106.858 334.852 107.233C334.57 107.605 334.18 108.06 333.68 108.597L331.719 110.694V110.762H335.776V111.699H330.271Z" fill="white"/>
</g>
<rect x="460" y="119.699" width="42" height="1" transform="rotate(-90 460 119.699)" fill="#C54600"/>
<g clip-path="url(#clip6_858_12197)">
<rect x="448" y="95.6992" width="24" height="24" rx="12" fill="#C54600"/>
<path d="M460.032 111.819C459.469 111.819 458.968 111.722 458.528 111.529C458.09 111.336 457.742 111.067 457.484 110.723C457.228 110.377 457.089 109.975 457.066 109.517H458.14C458.163 109.799 458.259 110.042 458.43 110.246C458.6 110.448 458.823 110.604 459.099 110.715C459.374 110.826 459.68 110.881 460.015 110.881C460.39 110.881 460.722 110.816 461.012 110.685C461.302 110.554 461.529 110.373 461.694 110.14C461.859 109.907 461.941 109.637 461.941 109.33C461.941 109.009 461.862 108.726 461.702 108.482C461.543 108.235 461.31 108.042 461.004 107.902C460.697 107.763 460.322 107.694 459.879 107.694H459.18V106.756H459.879C460.225 106.756 460.529 106.694 460.79 106.569C461.055 106.444 461.261 106.267 461.408 106.04C461.559 105.813 461.634 105.546 461.634 105.239C461.634 104.944 461.569 104.686 461.438 104.468C461.308 104.249 461.123 104.078 460.884 103.956C460.648 103.834 460.37 103.773 460.049 103.773C459.748 103.773 459.464 103.828 459.197 103.939C458.933 104.047 458.717 104.205 458.549 104.412C458.381 104.617 458.29 104.864 458.276 105.154H457.254C457.271 104.696 457.408 104.296 457.667 103.952C457.925 103.605 458.263 103.336 458.681 103.142C459.102 102.949 459.563 102.853 460.066 102.853C460.606 102.853 461.069 102.962 461.455 103.181C461.842 103.397 462.138 103.682 462.346 104.037C462.553 104.392 462.657 104.776 462.657 105.188C462.657 105.679 462.528 106.098 462.269 106.445C462.013 106.792 461.665 107.032 461.225 107.165V107.233C461.776 107.324 462.207 107.559 462.516 107.936C462.826 108.311 462.981 108.776 462.981 109.33C462.981 109.804 462.852 110.23 462.593 110.608C462.337 110.983 461.988 111.279 461.545 111.495C461.102 111.711 460.597 111.819 460.032 111.819Z" fill="white"/>
</g>
<rect x="587" y="119.699" width="42" height="1" transform="rotate(-90 587 119.699)" fill="#C54600"/>
<g clip-path="url(#clip7_858_12197)">
<rect x="575" y="95.6992" width="24" height="24" rx="12" fill="#C54600"/>
<path d="M583.849 109.909V109.04L587.684 102.972H588.315V104.319H587.889L584.991 108.904V108.972H590.156V109.909H583.849ZM587.957 111.699V109.645V109.24V102.972H588.963V111.699H587.957Z" fill="white"/>
</g>
<defs>
<clipPath id="clip0_858_12197">
<rect width="32" height="34" fill="white" transform="translate(190 39.1992)"/>
</clipPath>
<clipPath id="clip1_858_12197">
<rect width="32" height="34" fill="white" transform="translate(317 39.1992)"/>
</clipPath>
<clipPath id="clip2_858_12197">
<rect width="32" height="34" fill="white" transform="translate(444 39.1992)"/>
</clipPath>
<clipPath id="clip3_858_12197">
<rect width="32" height="34" fill="white" transform="translate(571 39.1992)"/>
</clipPath>
<clipPath id="clip4_858_12197">
<rect x="194" y="95.6992" width="24" height="24" rx="12" fill="white"/>
</clipPath>
<clipPath id="clip5_858_12197">
<rect x="321" y="95.6992" width="24" height="24" rx="12" fill="white"/>
</clipPath>
<clipPath id="clip6_858_12197">
<rect x="448" y="95.6992" width="24" height="24" rx="12" fill="white"/>
</clipPath>
<clipPath id="clip7_858_12197">
<rect x="575" y="95.6992" width="24" height="24" rx="12" fill="white"/>
</clipPath>
</defs>
</svg>
