<svg width="804" height="161" viewBox="0 0 804 161" fill="none" xmlns="http://www.w3.org/2000/svg">
<rect width="804" height="160" transform="translate(0 0.601562)" fill="#F9FAFB"/>
<g clip-path="url(#clip0_380_26341)">
<path d="M190.959 56.6016V47.8743H192.276V55.468H196.23V56.6016H190.959ZM199.535 56.7464C199.12 56.7464 198.745 56.6697 198.41 56.5163C198.075 56.3601 197.809 56.1342 197.613 55.8388C197.42 55.5433 197.323 55.1811 197.323 54.7521C197.323 54.3828 197.394 54.0788 197.536 53.8402C197.678 53.6016 197.87 53.4126 198.112 53.2734C198.353 53.1342 198.623 53.0291 198.921 52.9581C199.219 52.8871 199.523 52.8331 199.833 52.7962C200.225 52.7507 200.543 52.7138 200.788 52.6854C201.032 52.6541 201.21 52.6044 201.32 52.5362C201.431 52.468 201.487 52.3572 201.487 52.2038V52.174C201.487 51.8018 201.381 51.5135 201.171 51.3089C200.964 51.1044 200.654 51.0021 200.242 51.0021C199.813 51.0021 199.475 51.0973 199.228 51.2876C198.984 51.4751 198.815 51.6839 198.721 51.9141L197.523 51.6413C197.665 51.2436 197.873 50.9226 198.146 50.6783C198.421 50.4311 198.738 50.2521 199.096 50.1413C199.454 50.0277 199.83 49.9709 200.225 49.9709C200.487 49.9709 200.763 50.0021 201.056 50.0646C201.352 50.1243 201.627 50.2351 201.883 50.397C202.141 50.5589 202.353 50.7905 202.518 51.0916C202.683 51.3899 202.765 51.7777 202.765 52.255V56.6016H201.521V55.7067H201.469C201.387 55.8714 201.263 56.0334 201.099 56.1925C200.934 56.3516 200.722 56.4837 200.464 56.5888C200.205 56.6939 199.896 56.7464 199.535 56.7464ZM199.812 55.7237C200.164 55.7237 200.465 55.6541 200.715 55.5149C200.968 55.3757 201.16 55.1939 201.29 54.9695C201.424 54.7422 201.491 54.4993 201.491 54.2408V53.397C201.445 53.4425 201.357 53.4851 201.227 53.5249C201.099 53.5618 200.952 53.5945 200.788 53.6229C200.623 53.6484 200.462 53.6726 200.306 53.6953C200.15 53.7152 200.019 53.7322 199.914 53.7464C199.667 53.7777 199.441 53.8303 199.237 53.9041C199.035 53.978 198.873 54.0845 198.751 54.2237C198.631 54.3601 198.572 54.5419 198.572 54.7692C198.572 55.0845 198.688 55.3232 198.921 55.4851C199.154 55.6442 199.451 55.7237 199.812 55.7237ZM204.564 56.6016V47.8743H205.838V51.1172H205.915C205.989 50.9808 206.096 50.8232 206.235 50.6442C206.374 50.4652 206.567 50.3089 206.814 50.1754C207.061 50.0391 207.388 49.9709 207.794 49.9709C208.323 49.9709 208.794 50.1044 209.209 50.3714C209.624 50.6385 209.949 51.0234 210.185 51.5263C210.424 52.0291 210.543 52.6342 210.543 53.3416C210.543 54.049 210.425 54.6555 210.189 55.1612C209.953 55.6641 209.63 56.0518 209.218 56.3246C208.806 56.5945 208.336 56.7294 207.807 56.7294C207.409 56.7294 207.084 56.6626 206.831 56.5291C206.581 56.3956 206.385 56.2393 206.243 56.0604C206.101 55.8814 205.992 55.7223 205.915 55.5831H205.809V56.6016H204.564ZM205.813 53.3288C205.813 53.7891 205.88 54.1925 206.013 54.5391C206.147 54.8857 206.34 55.157 206.593 55.353C206.846 55.5462 207.155 55.6428 207.522 55.6428C207.902 55.6428 208.221 55.5419 208.476 55.3402C208.732 55.1357 208.925 54.8587 209.056 54.5092C209.189 54.1598 209.256 53.7663 209.256 53.3288C209.256 52.897 209.191 52.5092 209.06 52.1655C208.932 51.8217 208.739 51.5504 208.48 51.3516C208.225 51.1527 207.905 51.0533 207.522 51.0533C207.152 51.0533 206.84 51.1484 206.584 51.3388C206.331 51.5291 206.14 51.7947 206.009 52.1357C205.878 52.4766 205.813 52.8743 205.813 53.3288ZM214.795 56.7337C214.15 56.7337 213.594 56.5959 213.129 56.3203C212.665 56.0419 212.308 55.6513 212.055 55.1484C211.805 54.6428 211.68 54.0504 211.68 53.3714C211.68 52.701 211.805 52.1101 212.055 51.5987C212.308 51.0874 212.66 50.6882 213.112 50.4013C213.566 50.1143 214.097 49.9709 214.705 49.9709C215.075 49.9709 215.433 50.032 215.779 50.1541C216.126 50.2763 216.437 50.468 216.712 50.7294C216.988 50.9908 217.205 51.3303 217.364 51.7479C217.523 52.1626 217.603 52.6669 217.603 53.2607V53.7124H212.4V52.7578H216.354C216.354 52.4226 216.286 52.1257 216.15 51.8672C216.013 51.6058 215.822 51.3999 215.575 51.2493C215.33 51.0987 215.043 51.0234 214.714 51.0234C214.356 51.0234 214.043 51.1115 213.776 51.2876C213.512 51.4609 213.308 51.6882 213.163 51.9695C213.021 52.2479 212.95 52.5504 212.95 52.8771V53.6229C212.95 54.0604 213.026 54.4325 213.18 54.7393C213.336 55.0462 213.553 55.2805 213.832 55.4425C214.11 55.6016 214.435 55.6811 214.808 55.6811C215.049 55.6811 215.269 55.647 215.468 55.5788C215.667 55.5078 215.839 55.4027 215.984 55.2635C216.129 55.1243 216.239 54.9524 216.316 54.7479L217.522 54.9652C217.425 55.3203 217.252 55.6314 217.002 55.8984C216.755 56.1626 216.444 56.3686 216.069 56.5163C215.697 56.6612 215.272 56.7337 214.795 56.7337ZM220.291 47.8743V56.6016H219.017V47.8743H220.291Z" fill="#217CF5"/>
<path fill-rule="evenodd" clip-rule="evenodd" d="M190 75.6016H222C222 74.497 221.105 73.6016 220 73.6016H192C190.895 73.6016 190 74.497 190 75.6016Z" fill="#217CF5"/>
</g>
<rect x="414" y="42.1016" width="64" height="30" rx="4" fill="#E9F2FE"/>
<path d="M430.959 61.1016V52.3743H432.276V59.968H436.23V61.1016H430.959ZM439.535 61.2464C439.12 61.2464 438.745 61.1697 438.41 61.0163C438.075 60.8601 437.809 60.6342 437.613 60.3388C437.42 60.0433 437.323 59.6811 437.323 59.2521C437.323 58.8828 437.394 58.5788 437.536 58.3402C437.678 58.1016 437.87 57.9126 438.112 57.7734C438.353 57.6342 438.623 57.5291 438.921 57.4581C439.219 57.3871 439.523 57.3331 439.833 57.2962C440.225 57.2507 440.543 57.2138 440.788 57.1854C441.032 57.1541 441.21 57.1044 441.32 57.0362C441.431 56.968 441.487 56.8572 441.487 56.7038V56.674C441.487 56.3018 441.381 56.0135 441.171 55.8089C440.964 55.6044 440.654 55.5021 440.242 55.5021C439.813 55.5021 439.475 55.5973 439.228 55.7876C438.984 55.9751 438.815 56.1839 438.721 56.4141L437.523 56.1413C437.665 55.7436 437.873 55.4226 438.146 55.1783C438.421 54.9311 438.738 54.7521 439.096 54.6413C439.454 54.5277 439.83 54.4709 440.225 54.4709C440.487 54.4709 440.763 54.5021 441.056 54.5646C441.352 54.6243 441.627 54.7351 441.883 54.897C442.141 55.0589 442.353 55.2905 442.518 55.5916C442.683 55.8899 442.765 56.2777 442.765 56.755V61.1016H441.521V60.2067H441.469C441.387 60.3714 441.263 60.5334 441.099 60.6925C440.934 60.8516 440.722 60.9837 440.464 61.0888C440.205 61.1939 439.896 61.2464 439.535 61.2464ZM439.812 60.2237C440.164 60.2237 440.465 60.1541 440.715 60.0149C440.968 59.8757 441.16 59.6939 441.29 59.4695C441.424 59.2422 441.491 58.9993 441.491 58.7408V57.897C441.445 57.9425 441.357 57.9851 441.227 58.0249C441.099 58.0618 440.952 58.0945 440.788 58.1229C440.623 58.1484 440.462 58.1726 440.306 58.1953C440.15 58.2152 440.019 58.2322 439.914 58.2464C439.667 58.2777 439.441 58.3303 439.237 58.4041C439.035 58.478 438.873 58.5845 438.751 58.7237C438.631 58.8601 438.572 59.0419 438.572 59.2692C438.572 59.5845 438.688 59.8232 438.921 59.9851C439.154 60.1442 439.451 60.2237 439.812 60.2237ZM444.564 61.1016V52.3743H445.838V55.6172H445.915C445.989 55.4808 446.096 55.3232 446.235 55.1442C446.374 54.9652 446.567 54.8089 446.814 54.6754C447.061 54.5391 447.388 54.4709 447.794 54.4709C448.323 54.4709 448.794 54.6044 449.209 54.8714C449.624 55.1385 449.949 55.5234 450.185 56.0263C450.424 56.5291 450.543 57.1342 450.543 57.8416C450.543 58.549 450.425 59.1555 450.189 59.6612C449.953 60.1641 449.63 60.5518 449.218 60.8246C448.806 61.0945 448.336 61.2294 447.807 61.2294C447.409 61.2294 447.084 61.1626 446.831 61.0291C446.581 60.8956 446.385 60.7393 446.243 60.5604C446.101 60.3814 445.992 60.2223 445.915 60.0831H445.809V61.1016H444.564ZM445.813 57.8288C445.813 58.2891 445.88 58.6925 446.013 59.0391C446.147 59.3857 446.34 59.657 446.593 59.853C446.846 60.0462 447.155 60.1428 447.522 60.1428C447.902 60.1428 448.221 60.0419 448.476 59.8402C448.732 59.6357 448.925 59.3587 449.056 59.0092C449.189 58.6598 449.256 58.2663 449.256 57.8288C449.256 57.397 449.191 57.0092 449.06 56.6655C448.932 56.3217 448.739 56.0504 448.48 55.8516C448.225 55.6527 447.905 55.5533 447.522 55.5533C447.152 55.5533 446.84 55.6484 446.584 55.8388C446.331 56.0291 446.14 56.2947 446.009 56.6357C445.878 56.9766 445.813 57.3743 445.813 57.8288ZM454.795 61.2337C454.15 61.2337 453.594 61.0959 453.129 60.8203C452.665 60.5419 452.308 60.1513 452.055 59.6484C451.805 59.1428 451.68 58.5504 451.68 57.8714C451.68 57.201 451.805 56.6101 452.055 56.0987C452.308 55.5874 452.66 55.1882 453.112 54.9013C453.566 54.6143 454.097 54.4709 454.705 54.4709C455.075 54.4709 455.433 54.532 455.779 54.6541C456.126 54.7763 456.437 54.968 456.712 55.2294C456.988 55.4908 457.205 55.8303 457.364 56.2479C457.523 56.6626 457.603 57.1669 457.603 57.7607V58.2124H452.4V57.2578H456.354C456.354 56.9226 456.286 56.6257 456.15 56.3672C456.013 56.1058 455.822 55.8999 455.575 55.7493C455.33 55.5987 455.043 55.5234 454.714 55.5234C454.356 55.5234 454.043 55.6115 453.776 55.7876C453.512 55.9609 453.308 56.1882 453.163 56.4695C453.021 56.7479 452.95 57.0504 452.95 57.3771V58.1229C452.95 58.5604 453.026 58.9325 453.18 59.2393C453.336 59.5462 453.553 59.7805 453.832 59.9425C454.11 60.1016 454.435 60.1811 454.808 60.1811C455.049 60.1811 455.269 60.147 455.468 60.0788C455.667 60.0078 455.839 59.9027 455.984 59.7635C456.129 59.6243 456.239 59.4524 456.316 59.2479L457.522 59.4652C457.425 59.8203 457.252 60.1314 457.002 60.3984C456.755 60.6626 456.444 60.8686 456.069 61.0163C455.697 61.1612 455.272 61.2337 454.795 61.2337ZM460.291 52.3743V61.1016H459.017V52.3743H460.291Z" fill="#217CF5"/>
<path d="M302.959 61.1016V52.3743H304.276V59.968H308.23V61.1016H302.959ZM311.535 61.2464C311.12 61.2464 310.745 61.1697 310.41 61.0163C310.075 60.8601 309.809 60.6342 309.613 60.3388C309.42 60.0433 309.323 59.6811 309.323 59.2521C309.323 58.8828 309.394 58.5788 309.536 58.3402C309.678 58.1016 309.87 57.9126 310.112 57.7734C310.353 57.6342 310.623 57.5291 310.921 57.4581C311.219 57.3871 311.523 57.3331 311.833 57.2962C312.225 57.2507 312.543 57.2138 312.788 57.1854C313.032 57.1541 313.21 57.1044 313.32 57.0362C313.431 56.968 313.487 56.8572 313.487 56.7038V56.674C313.487 56.3018 313.381 56.0135 313.171 55.8089C312.964 55.6044 312.654 55.5021 312.242 55.5021C311.813 55.5021 311.475 55.5973 311.228 55.7876C310.984 55.9751 310.815 56.1839 310.721 56.4141L309.523 56.1413C309.665 55.7436 309.873 55.4226 310.146 55.1783C310.421 54.9311 310.738 54.7521 311.096 54.6413C311.454 54.5277 311.83 54.4709 312.225 54.4709C312.487 54.4709 312.763 54.5021 313.056 54.5646C313.352 54.6243 313.627 54.7351 313.883 54.897C314.141 55.0589 314.353 55.2905 314.518 55.5916C314.683 55.8899 314.765 56.2777 314.765 56.755V61.1016H313.521V60.2067H313.469C313.387 60.3714 313.263 60.5334 313.099 60.6925C312.934 60.8516 312.722 60.9837 312.464 61.0888C312.205 61.1939 311.896 61.2464 311.535 61.2464ZM311.812 60.2237C312.164 60.2237 312.465 60.1541 312.715 60.0149C312.968 59.8757 313.16 59.6939 313.29 59.4695C313.424 59.2422 313.491 58.9993 313.491 58.7408V57.897C313.445 57.9425 313.357 57.9851 313.227 58.0249C313.099 58.0618 312.952 58.0945 312.788 58.1229C312.623 58.1484 312.462 58.1726 312.306 58.1953C312.15 58.2152 312.019 58.2322 311.914 58.2464C311.667 58.2777 311.441 58.3303 311.237 58.4041C311.035 58.478 310.873 58.5845 310.751 58.7237C310.631 58.8601 310.572 59.0419 310.572 59.2692C310.572 59.5845 310.688 59.8232 310.921 59.9851C311.154 60.1442 311.451 60.2237 311.812 60.2237ZM316.564 61.1016V52.3743H317.838V55.6172H317.915C317.989 55.4808 318.096 55.3232 318.235 55.1442C318.374 54.9652 318.567 54.8089 318.814 54.6754C319.061 54.5391 319.388 54.4709 319.794 54.4709C320.323 54.4709 320.794 54.6044 321.209 54.8714C321.624 55.1385 321.949 55.5234 322.185 56.0263C322.424 56.5291 322.543 57.1342 322.543 57.8416C322.543 58.549 322.425 59.1555 322.189 59.6612C321.953 60.1641 321.63 60.5518 321.218 60.8246C320.806 61.0945 320.336 61.2294 319.807 61.2294C319.409 61.2294 319.084 61.1626 318.831 61.0291C318.581 60.8956 318.385 60.7393 318.243 60.5604C318.101 60.3814 317.992 60.2223 317.915 60.0831H317.809V61.1016H316.564ZM317.813 57.8288C317.813 58.2891 317.88 58.6925 318.013 59.0391C318.147 59.3857 318.34 59.657 318.593 59.853C318.846 60.0462 319.155 60.1428 319.522 60.1428C319.902 60.1428 320.221 60.0419 320.476 59.8402C320.732 59.6357 320.925 59.3587 321.056 59.0092C321.189 58.6598 321.256 58.2663 321.256 57.8288C321.256 57.397 321.191 57.0092 321.06 56.6655C320.932 56.3217 320.739 56.0504 320.48 55.8516C320.225 55.6527 319.905 55.5533 319.522 55.5533C319.152 55.5533 318.84 55.6484 318.584 55.8388C318.331 56.0291 318.14 56.2947 318.009 56.6357C317.878 56.9766 317.813 57.3743 317.813 57.8288ZM326.795 61.2337C326.15 61.2337 325.594 61.0959 325.129 60.8203C324.665 60.5419 324.308 60.1513 324.055 59.6484C323.805 59.1428 323.68 58.5504 323.68 57.8714C323.68 57.201 323.805 56.6101 324.055 56.0987C324.308 55.5874 324.66 55.1882 325.112 54.9013C325.566 54.6143 326.097 54.4709 326.705 54.4709C327.075 54.4709 327.433 54.532 327.779 54.6541C328.126 54.7763 328.437 54.968 328.712 55.2294C328.988 55.4908 329.205 55.8303 329.364 56.2479C329.523 56.6626 329.603 57.1669 329.603 57.7607V58.2124H324.4V57.2578H328.354C328.354 56.9226 328.286 56.6257 328.15 56.3672C328.013 56.1058 327.822 55.8999 327.575 55.7493C327.33 55.5987 327.043 55.5234 326.714 55.5234C326.356 55.5234 326.043 55.6115 325.776 55.7876C325.512 55.9609 325.308 56.1882 325.163 56.4695C325.021 56.7479 324.95 57.0504 324.95 57.3771V58.1229C324.95 58.5604 325.026 58.9325 325.18 59.2393C325.336 59.5462 325.553 59.7805 325.832 59.9425C326.11 60.1016 326.435 60.1811 326.808 60.1811C327.049 60.1811 327.269 60.147 327.468 60.0788C327.667 60.0078 327.839 59.9027 327.984 59.7635C328.129 59.6243 328.239 59.4524 328.316 59.2479L329.522 59.4652C329.425 59.8203 329.252 60.1314 329.002 60.3984C328.755 60.6626 328.444 60.8686 328.069 61.0163C327.697 61.1612 327.272 61.2337 326.795 61.2337ZM332.291 52.3743V61.1016H331.017V52.3743H332.291Z" fill="#217CF5"/>
<g clip-path="url(#clip1_380_26341)">
<path fill-rule="evenodd" clip-rule="evenodd" d="M568.47 50.3516H567V48.0641C567 46.4291 565.658 45.1016 564 45.1016C562.342 45.1016 561 46.4291 561 48.0641V50.3516H559.47C559.057 50.3516 558.75 50.6141 558.75 51.0266V56.2091C558.75 56.6141 559.057 57.1016 559.47 57.1016H568.47C568.883 57.1016 569.25 56.6141 569.25 56.2091V51.0266C569.25 50.6141 568.883 50.3516 568.47 50.3516ZM562.5 50.3516V48.0641C562.5 47.2466 563.175 46.5866 564 46.5866C564.825 46.5866 565.5 47.2466 565.5 48.0641V50.3516H562.5Z" fill="#217CF5"/>
<path d="M582.959 56.1016V47.3743H584.276V54.968H588.23V56.1016H582.959ZM591.535 56.2464C591.12 56.2464 590.745 56.1697 590.41 56.0163C590.075 55.8601 589.809 55.6342 589.613 55.3388C589.42 55.0433 589.323 54.6811 589.323 54.2521C589.323 53.8828 589.394 53.5788 589.536 53.3402C589.678 53.1016 589.87 52.9126 590.112 52.7734C590.353 52.6342 590.623 52.5291 590.921 52.4581C591.219 52.3871 591.523 52.3331 591.833 52.2962C592.225 52.2507 592.543 52.2138 592.788 52.1854C593.032 52.1541 593.21 52.1044 593.32 52.0362C593.431 51.968 593.487 51.8572 593.487 51.7038V51.674C593.487 51.3018 593.381 51.0135 593.171 50.8089C592.964 50.6044 592.654 50.5021 592.242 50.5021C591.813 50.5021 591.475 50.5973 591.228 50.7876C590.984 50.9751 590.815 51.1839 590.721 51.4141L589.523 51.1413C589.665 50.7436 589.873 50.4226 590.146 50.1783C590.421 49.9311 590.738 49.7521 591.096 49.6413C591.454 49.5277 591.83 49.4709 592.225 49.4709C592.487 49.4709 592.763 49.5021 593.056 49.5646C593.352 49.6243 593.627 49.7351 593.883 49.897C594.141 50.0589 594.353 50.2905 594.518 50.5916C594.683 50.8899 594.765 51.2777 594.765 51.755V56.1016H593.521V55.2067H593.469C593.387 55.3714 593.263 55.5334 593.099 55.6925C592.934 55.8516 592.722 55.9837 592.464 56.0888C592.205 56.1939 591.896 56.2464 591.535 56.2464ZM591.812 55.2237C592.164 55.2237 592.465 55.1541 592.715 55.0149C592.968 54.8757 593.16 54.6939 593.29 54.4695C593.424 54.2422 593.491 53.9993 593.491 53.7408V52.897C593.445 52.9425 593.357 52.9851 593.227 53.0249C593.099 53.0618 592.952 53.0945 592.788 53.1229C592.623 53.1484 592.462 53.1726 592.306 53.1953C592.15 53.2152 592.019 53.2322 591.914 53.2464C591.667 53.2777 591.441 53.3303 591.237 53.4041C591.035 53.478 590.873 53.5845 590.751 53.7237C590.631 53.8601 590.572 54.0419 590.572 54.2692C590.572 54.5845 590.688 54.8232 590.921 54.9851C591.154 55.1442 591.451 55.2237 591.812 55.2237ZM596.564 56.1016V47.3743H597.838V50.6172H597.915C597.989 50.4808 598.096 50.3232 598.235 50.1442C598.374 49.9652 598.567 49.8089 598.814 49.6754C599.061 49.5391 599.388 49.4709 599.794 49.4709C600.323 49.4709 600.794 49.6044 601.209 49.8714C601.624 50.1385 601.949 50.5234 602.185 51.0263C602.424 51.5291 602.543 52.1342 602.543 52.8416C602.543 53.549 602.425 54.1555 602.189 54.6612C601.953 55.1641 601.63 55.5518 601.218 55.8246C600.806 56.0945 600.336 56.2294 599.807 56.2294C599.409 56.2294 599.084 56.1626 598.831 56.0291C598.581 55.8956 598.385 55.7393 598.243 55.5604C598.101 55.3814 597.992 55.2223 597.915 55.0831H597.809V56.1016H596.564ZM597.813 52.8288C597.813 53.2891 597.88 53.6925 598.013 54.0391C598.147 54.3857 598.34 54.657 598.593 54.853C598.846 55.0462 599.155 55.1428 599.522 55.1428C599.902 55.1428 600.221 55.0419 600.476 54.8402C600.732 54.6357 600.925 54.3587 601.056 54.0092C601.189 53.6598 601.256 53.2663 601.256 52.8288C601.256 52.397 601.191 52.0092 601.06 51.6655C600.932 51.3217 600.739 51.0504 600.48 50.8516C600.225 50.6527 599.905 50.5533 599.522 50.5533C599.152 50.5533 598.84 50.6484 598.584 50.8388C598.331 51.0291 598.14 51.2947 598.009 51.6357C597.878 51.9766 597.813 52.3743 597.813 52.8288ZM606.795 56.2337C606.15 56.2337 605.594 56.0959 605.129 55.8203C604.665 55.5419 604.308 55.1513 604.055 54.6484C603.805 54.1428 603.68 53.5504 603.68 52.8714C603.68 52.201 603.805 51.6101 604.055 51.0987C604.308 50.5874 604.66 50.1882 605.112 49.9013C605.566 49.6143 606.097 49.4709 606.705 49.4709C607.075 49.4709 607.433 49.532 607.779 49.6541C608.126 49.7763 608.437 49.968 608.712 50.2294C608.988 50.4908 609.205 50.8303 609.364 51.2479C609.523 51.6626 609.603 52.1669 609.603 52.7607V53.2124H604.4V52.2578H608.354C608.354 51.9226 608.286 51.6257 608.15 51.3672C608.013 51.1058 607.822 50.8999 607.575 50.7493C607.33 50.5987 607.043 50.5234 606.714 50.5234C606.356 50.5234 606.043 50.6115 605.776 50.7876C605.512 50.9609 605.308 51.1882 605.163 51.4695C605.021 51.7479 604.95 52.0504 604.95 52.3771V53.1229C604.95 53.5604 605.026 53.9325 605.18 54.2393C605.336 54.5462 605.553 54.7805 605.832 54.9425C606.11 55.1016 606.435 55.1811 606.808 55.1811C607.049 55.1811 607.269 55.147 607.468 55.0788C607.667 55.0078 607.839 54.9027 607.984 54.7635C608.129 54.6243 608.239 54.4524 608.316 54.2479L609.522 54.4652C609.425 54.8203 609.252 55.1314 609.002 55.3984C608.755 55.6626 608.444 55.8686 608.069 56.0163C607.697 56.1612 607.272 56.2337 606.795 56.2337ZM612.291 47.3743V56.1016H611.017V47.3743H612.291Z" fill="#217CF5"/>
<path fill-rule="evenodd" clip-rule="evenodd" d="M558 75.1016H614V75.1016C614 73.997 613.105 73.1016 612 73.1016H560C558.895 73.1016 558 73.997 558 75.1016V75.1016Z" fill="#217CF5"/>
</g>
<rect x="206" y="120.102" width="42" height="1" transform="rotate(-90 206 120.102)" fill="#C54600"/>
<g clip-path="url(#clip2_380_26341)">
<rect x="194" y="96.1016" width="24" height="24" rx="12" fill="#C54600"/>
<path d="M207.183 103.374V112.102H206.126V104.482H206.075L203.944 105.897V104.823L206.126 103.374H207.183Z" fill="white"/>
</g>
<rect x="318" y="120.102" width="42" height="1" transform="rotate(-90 318 120.102)" fill="#C54600"/>
<g clip-path="url(#clip3_380_26341)">
<rect x="306" y="96.1016" width="24" height="24" rx="12" fill="#C54600"/>
<path d="M315.271 112.102V111.335L318.151 108.181C318.489 107.812 318.768 107.491 318.987 107.218C319.205 106.942 319.367 106.684 319.472 106.442C319.58 106.198 319.634 105.942 319.634 105.675C319.634 105.369 319.56 105.103 319.413 104.879C319.268 104.654 319.069 104.481 318.816 104.359C318.563 104.237 318.279 104.175 317.964 104.175C317.629 104.175 317.336 104.245 317.086 104.384C316.839 104.521 316.647 104.712 316.511 104.96C316.377 105.207 316.31 105.496 316.31 105.829H315.305C315.305 105.317 315.423 104.869 315.658 104.482C315.894 104.096 316.215 103.795 316.621 103.579C317.031 103.363 317.489 103.255 317.998 103.255C318.509 103.255 318.962 103.363 319.357 103.579C319.752 103.795 320.062 104.086 320.286 104.452C320.511 104.819 320.623 105.227 320.623 105.675C320.623 105.996 320.565 106.31 320.448 106.617C320.335 106.921 320.136 107.261 319.852 107.636C319.57 108.008 319.18 108.462 318.68 108.999L316.719 111.096V111.164H320.776V112.102H315.271Z" fill="white"/>
</g>
<rect x="446" y="120.102" width="42" height="1" transform="rotate(-90 446 120.102)" fill="#C54600"/>
<g clip-path="url(#clip4_380_26341)">
<rect x="434" y="96.1016" width="24" height="24" rx="12" fill="#C54600"/>
<path d="M446.032 112.221C445.469 112.221 444.968 112.124 444.528 111.931C444.09 111.738 443.742 111.469 443.484 111.126C443.228 110.779 443.089 110.377 443.066 109.92H444.14C444.163 110.201 444.259 110.444 444.43 110.648C444.6 110.85 444.823 111.006 445.099 111.117C445.374 111.228 445.68 111.283 446.015 111.283C446.39 111.283 446.722 111.218 447.012 111.087C447.302 110.957 447.529 110.775 447.694 110.542C447.859 110.309 447.941 110.039 447.941 109.732C447.941 109.411 447.862 109.129 447.702 108.884C447.543 108.637 447.31 108.444 447.004 108.305C446.697 108.165 446.322 108.096 445.879 108.096H445.18V107.158H445.879C446.225 107.158 446.529 107.096 446.79 106.971C447.055 106.846 447.261 106.67 447.408 106.442C447.559 106.215 447.634 105.948 447.634 105.641C447.634 105.346 447.569 105.089 447.438 104.87C447.308 104.651 447.123 104.481 446.884 104.359C446.648 104.237 446.37 104.175 446.049 104.175C445.748 104.175 445.464 104.231 445.197 104.342C444.933 104.45 444.717 104.607 444.549 104.815C444.381 105.019 444.29 105.266 444.276 105.556H443.254C443.271 105.099 443.408 104.698 443.667 104.354C443.925 104.008 444.263 103.738 444.681 103.545C445.102 103.352 445.563 103.255 446.066 103.255C446.606 103.255 447.069 103.364 447.455 103.583C447.842 103.799 448.138 104.085 448.346 104.44C448.553 104.795 448.657 105.178 448.657 105.59C448.657 106.082 448.528 106.501 448.269 106.847C448.013 107.194 447.665 107.434 447.225 107.567V107.636C447.776 107.727 448.207 107.961 448.516 108.339C448.826 108.714 448.981 109.178 448.981 109.732C448.981 110.207 448.852 110.633 448.593 111.011C448.337 111.386 447.988 111.681 447.545 111.897C447.102 112.113 446.597 112.221 446.032 112.221Z" fill="white"/>
</g>
<rect x="586" y="120.102" width="42" height="1" transform="rotate(-90 586 120.102)" fill="#C54600"/>
<g clip-path="url(#clip5_380_26341)">
<rect x="574" y="96.1016" width="24" height="24" rx="12" fill="#C54600"/>
<path d="M582.849 110.312V109.442L586.684 103.374H587.315V104.721H586.889L583.991 109.306V109.374H589.156V110.312H582.849ZM586.957 112.102V110.048V109.643V103.374H587.963V112.102H586.957Z" fill="white"/>
</g>
<defs>
<clipPath id="clip0_380_26341">
<rect width="32" height="34" fill="white" transform="translate(190 41.6016)"/>
</clipPath>
<clipPath id="clip1_380_26341">
<rect width="56" height="34" fill="white" transform="translate(558 41.1016)"/>
</clipPath>
<clipPath id="clip2_380_26341">
<rect x="194" y="96.1016" width="24" height="24" rx="12" fill="white"/>
</clipPath>
<clipPath id="clip3_380_26341">
<rect x="306" y="96.1016" width="24" height="24" rx="12" fill="white"/>
</clipPath>
<clipPath id="clip4_380_26341">
<rect x="434" y="96.1016" width="24" height="24" rx="12" fill="white"/>
</clipPath>
<clipPath id="clip5_380_26341">
<rect x="574" y="96.1016" width="24" height="24" rx="12" fill="white"/>
</clipPath>
</defs>
</svg>
