<svg width="804" height="307" viewBox="0 0 804 307" fill="none" xmlns="http://www.w3.org/2000/svg">
<rect width="804" height="307" fill="#F9FAFB"/>
<g filter="url(#filter0_d_880_12149)">
<path d="M224 32H580V268H224V32Z" fill="white"/>
</g>
<path d="M252.099 71H249.039V61.5455H252.196C253.123 61.5455 253.918 61.7347 254.583 62.1133C255.248 62.4888 255.757 63.0289 256.111 63.7337C256.468 64.4354 256.647 65.2771 256.647 66.2589C256.647 67.2437 256.467 68.0901 256.107 68.7979C255.75 69.5058 255.232 70.0505 254.555 70.4322C253.878 70.8107 253.06 71 252.099 71ZM250.465 69.7536H252.021C252.741 69.7536 253.34 69.6181 253.817 69.3473C254.294 69.0734 254.651 68.6779 254.888 68.1609C255.125 67.6407 255.243 67.0067 255.243 66.2589C255.243 65.5172 255.125 64.8878 254.888 64.3707C254.654 63.8537 254.305 63.4613 253.84 63.1935C253.375 62.9258 252.798 62.7919 252.109 62.7919H250.465V69.7536ZM261.366 71.1431C260.667 71.1431 260.066 70.9938 259.561 70.6953C259.059 70.3937 258.671 69.9705 258.397 69.4258C258.127 68.878 257.991 68.2363 257.991 67.5007C257.991 66.7744 258.127 66.1342 258.397 65.5803C258.671 65.0263 259.053 64.5939 259.542 64.283C260.035 63.9722 260.61 63.8168 261.269 63.8168C261.669 63.8168 262.057 63.8829 262.432 64.0153C262.808 64.1476 263.145 64.3554 263.443 64.6385C263.742 64.9216 263.977 65.2894 264.15 65.7418C264.322 66.1912 264.408 66.7375 264.408 67.3807V67.87H258.771V66.8359H263.055C263.055 66.4728 262.982 66.1512 262.834 65.8711C262.686 65.5879 262.478 65.3648 262.211 65.2017C261.946 65.0386 261.635 64.957 261.278 64.957C260.89 64.957 260.552 65.0524 260.263 65.2433C259.976 65.431 259.755 65.6772 259.598 65.9819C259.444 66.2835 259.367 66.6113 259.367 66.9652V67.7731C259.367 68.247 259.45 68.6502 259.616 68.9826C259.785 69.315 260.021 69.5689 260.323 69.7443C260.624 69.9167 260.977 70.0028 261.38 70.0028C261.641 70.0028 261.88 69.9659 262.095 69.892C262.311 69.8151 262.497 69.7012 262.654 69.5504C262.811 69.3996 262.931 69.2134 263.014 68.9918L264.32 69.2273C264.216 69.612 264.028 69.949 263.757 70.2383C263.489 70.5245 263.152 70.7476 262.746 70.9077C262.343 71.0646 261.883 71.1431 261.366 71.1431ZM269.314 63.9091V65.017H265.307V63.9091H269.314ZM266.406 71V63.0874C266.406 62.6442 266.503 62.2764 266.697 61.984C266.891 61.6886 267.148 61.4685 267.468 61.3239C267.788 61.1761 268.136 61.1023 268.511 61.1023C268.788 61.1023 269.025 61.1254 269.222 61.1715C269.419 61.2146 269.565 61.2546 269.661 61.2915L269.337 62.4087C269.273 62.3903 269.19 62.3687 269.088 62.3441C268.987 62.3164 268.863 62.3026 268.719 62.3026C268.383 62.3026 268.143 62.3857 267.999 62.5518C267.857 62.718 267.786 62.9581 267.786 63.272V71H266.406ZM272.586 71.157C272.137 71.157 271.731 71.0739 271.367 70.9077C271.004 70.7384 270.717 70.4937 270.504 70.1737C270.295 69.8536 270.19 69.4612 270.19 68.9964C270.19 68.5964 270.267 68.267 270.421 68.0085C270.575 67.75 270.783 67.5453 271.044 67.3945C271.306 67.2437 271.598 67.1299 271.921 67.0529C272.245 66.976 272.574 66.9175 272.909 66.8775C273.334 66.8282 273.679 66.7882 273.943 66.7575C274.208 66.7236 274.4 66.6697 274.521 66.5959C274.641 66.522 274.701 66.402 274.701 66.2358V66.2035C274.701 65.8003 274.587 65.4879 274.359 65.2663C274.134 65.0447 273.799 64.9339 273.353 64.9339C272.888 64.9339 272.522 65.037 272.254 65.2433C271.989 65.4464 271.806 65.6726 271.704 65.9219L270.407 65.6264C270.561 65.1955 270.786 64.8478 271.081 64.5831C271.38 64.3153 271.723 64.1214 272.111 64.0014C272.498 63.8783 272.906 63.8168 273.334 63.8168C273.617 63.8168 273.917 63.8506 274.234 63.9183C274.554 63.983 274.853 64.103 275.13 64.2784C275.41 64.4538 275.639 64.7047 275.818 65.0309C275.996 65.354 276.085 65.7741 276.085 66.2912V71H274.737V70.0305H274.682C274.593 70.209 274.459 70.3845 274.28 70.5568C274.102 70.7292 273.873 70.8723 273.593 70.9862C273.313 71.1 272.977 71.157 272.586 71.157ZM272.886 70.049C273.268 70.049 273.594 69.9736 273.865 69.8228C274.139 69.672 274.347 69.475 274.488 69.2319C274.633 68.9857 274.705 68.7225 274.705 68.4425V67.5284C274.656 67.5777 274.561 67.6238 274.419 67.6669C274.28 67.7069 274.122 67.7423 273.943 67.7731C273.765 67.8008 273.591 67.8269 273.422 67.8516C273.253 67.8731 273.111 67.8916 272.997 67.907C272.729 67.9408 272.485 67.9978 272.263 68.0778C272.045 68.1578 271.869 68.2732 271.737 68.424C271.608 68.5717 271.543 68.7687 271.543 69.0149C271.543 69.3565 271.669 69.6151 271.921 69.7905C272.174 69.9628 272.495 70.049 272.886 70.049ZM282.416 68.0593V63.9091H283.801V71H282.444V69.772H282.37C282.207 70.1506 281.945 70.466 281.585 70.7184C281.228 70.9677 280.783 71.0923 280.251 71.0923C279.795 71.0923 279.392 70.9923 279.041 70.7923C278.693 70.5891 278.42 70.2891 278.219 69.892C278.022 69.495 277.924 69.0041 277.924 68.4194V63.9091H279.304V68.2532C279.304 68.7364 279.438 69.1211 279.706 69.4073C279.974 69.6935 280.321 69.8366 280.749 69.8366C281.008 69.8366 281.265 69.772 281.52 69.6428C281.779 69.5135 281.993 69.3181 282.162 69.0565C282.334 68.7949 282.419 68.4625 282.416 68.0593ZM287.036 61.5455V71H285.655V61.5455H287.036ZM292.203 63.9091V65.017H288.33V63.9091H292.203ZM289.368 62.2102H290.749V68.918C290.749 69.1857 290.789 69.3873 290.869 69.5227C290.949 69.6551 291.052 69.7459 291.178 69.7951C291.307 69.8413 291.447 69.8643 291.598 69.8643C291.709 69.8643 291.806 69.8567 291.889 69.8413C291.972 69.8259 292.037 69.8136 292.083 69.8043L292.332 70.9446C292.252 70.9754 292.138 71.0062 291.99 71.0369C291.843 71.0708 291.658 71.0893 291.436 71.0923C291.073 71.0985 290.735 71.0339 290.421 70.8984C290.107 70.763 289.853 70.5537 289.659 70.2706C289.465 69.9875 289.368 69.632 289.368 69.2042V62.2102ZM297.281 71V61.5455H303.144V62.7734H298.707V65.6541H302.724V66.8775H298.707V71H297.281ZM304.787 71V63.9091H306.168V71H304.787ZM305.484 62.815C305.244 62.815 305.038 62.735 304.866 62.5749C304.696 62.4118 304.612 62.2179 304.612 61.9933C304.612 61.7655 304.696 61.5716 304.866 61.4116C305.038 61.2485 305.244 61.1669 305.484 61.1669C305.724 61.1669 305.929 61.2485 306.098 61.4116C306.271 61.5716 306.357 61.7655 306.357 61.9933C306.357 62.2179 306.271 62.4118 306.098 62.5749C305.929 62.735 305.724 62.815 305.484 62.815ZM309.405 61.5455V71H308.025V61.5455H309.405ZM314.572 63.9091V65.017H310.699V63.9091H314.572ZM311.737 62.2102H313.118V68.918C313.118 69.1857 313.158 69.3873 313.238 69.5227C313.318 69.6551 313.421 69.7459 313.547 69.7951C313.676 69.8413 313.816 69.8643 313.967 69.8643C314.078 69.8643 314.175 69.8567 314.258 69.8413C314.341 69.8259 314.406 69.8136 314.452 69.8043L314.701 70.9446C314.621 70.9754 314.507 71.0062 314.36 71.0369C314.212 71.0708 314.027 71.0893 313.806 71.0923C313.442 71.0985 313.104 71.0339 312.79 70.8984C312.476 70.763 312.222 70.5537 312.028 70.2706C311.834 69.9875 311.737 69.632 311.737 69.2042V62.2102ZM319.079 71.1431C318.38 71.1431 317.778 70.9938 317.274 70.6953C316.772 70.3937 316.384 69.9705 316.11 69.4258C315.84 68.878 315.704 68.2363 315.704 67.5007C315.704 66.7744 315.84 66.1342 316.11 65.5803C316.384 65.0263 316.766 64.5939 317.255 64.283C317.748 63.9722 318.323 63.8168 318.982 63.8168C319.382 63.8168 319.77 63.8829 320.145 64.0153C320.521 64.1476 320.858 64.3554 321.156 64.6385C321.455 64.9216 321.69 65.2894 321.862 65.7418C322.035 66.1912 322.121 66.7375 322.121 67.3807V67.87H316.484V66.8359H320.768C320.768 66.4728 320.695 66.1512 320.547 65.8711C320.399 65.5879 320.191 65.3648 319.924 65.2017C319.659 65.0386 319.348 64.957 318.991 64.957C318.603 64.957 318.265 65.0524 317.975 65.2433C317.689 65.431 317.468 65.6772 317.311 65.9819C317.157 66.2835 317.08 66.6113 317.08 66.9652V67.7731C317.08 68.247 317.163 68.6502 317.329 68.9826C317.498 69.315 317.734 69.5689 318.035 69.7443C318.337 69.9167 318.689 70.0028 319.093 70.0028C319.354 70.0028 319.593 69.9659 319.808 69.892C320.024 69.8151 320.21 69.7012 320.367 69.5504C320.524 69.3996 320.644 69.2134 320.727 68.9918L322.033 69.2273C321.929 69.612 321.741 69.949 321.47 70.2383C321.202 70.5245 320.865 70.7476 320.459 70.9077C320.056 71.0646 319.596 71.1431 319.079 71.1431ZM323.653 71V63.9091H324.987V65.0355H325.061C325.19 64.6539 325.418 64.3538 325.744 64.1353C326.073 63.9137 326.445 63.8029 326.861 63.8029C326.947 63.8029 327.049 63.806 327.166 63.8121C327.286 63.8183 327.38 63.826 327.447 63.8352V65.1555C327.392 65.1402 327.293 65.1232 327.152 65.1048C327.01 65.0832 326.869 65.0724 326.727 65.0724C326.401 65.0724 326.11 65.1417 325.855 65.2802C325.602 65.4156 325.402 65.6049 325.254 65.848C325.107 66.0881 325.033 66.362 325.033 66.6697V71H323.653Z" fill="#1A1A1A"/>
<path fill-rule="evenodd" clip-rule="evenodd" d="M551.59 68.588C551.264 68.9134 550.737 68.9134 550.411 68.588L546.001 64.1772L541.59 68.588C541.264 68.9134 540.737 68.9134 540.411 68.588C540.086 68.2625 540.086 67.7349 540.411 67.4094L545.411 62.4094C545.737 62.084 546.264 62.084 546.59 62.4094L551.59 67.4094C551.915 67.7349 551.915 68.2625 551.59 68.588Z" fill="#9E9E9E"/>
<rect x="248.5" y="132.5" width="307" height="31" rx="1.5" fill="white"/>
<path d="M264.062 153H261.145V143.545H264.192C265.109 143.545 265.894 143.735 266.546 144.113C267.199 144.489 267.699 145.029 268.047 145.734C268.394 146.435 268.568 147.276 268.568 148.254C268.568 149.239 268.393 150.087 268.042 150.798C267.691 151.506 267.18 152.051 266.509 152.432C265.838 152.811 265.023 153 264.062 153ZM262.29 151.984H263.989C264.77 151.984 265.418 151.834 265.932 151.532C266.446 151.23 266.829 150.801 267.082 150.244C267.334 149.687 267.46 149.024 267.46 148.254C267.46 147.491 267.336 146.834 267.086 146.283C266.837 145.729 266.465 145.304 265.969 145.009C265.474 144.71 264.857 144.561 264.118 144.561H262.29V151.984ZM272.428 153.166C271.978 153.166 271.57 153.082 271.204 152.912C270.838 152.74 270.547 152.492 270.332 152.169C270.116 151.843 270.009 151.449 270.009 150.987C270.009 150.581 270.089 150.252 270.249 149.999C270.409 149.744 270.623 149.544 270.89 149.399C271.158 149.254 271.453 149.147 271.777 149.076C272.103 149.002 272.431 148.944 272.76 148.901C273.191 148.845 273.54 148.804 273.808 148.776C274.079 148.745 274.276 148.694 274.399 148.624C274.525 148.553 274.588 148.43 274.588 148.254V148.217C274.588 147.762 274.463 147.408 274.214 147.156C273.968 146.903 273.594 146.777 273.092 146.777C272.572 146.777 272.164 146.891 271.869 147.119C271.574 147.346 271.366 147.589 271.246 147.848L270.212 147.479C270.396 147.048 270.643 146.712 270.95 146.472C271.261 146.229 271.6 146.06 271.966 145.964C272.335 145.866 272.698 145.817 273.055 145.817C273.283 145.817 273.545 145.844 273.84 145.9C274.139 145.952 274.426 146.061 274.703 146.228C274.984 146.394 275.216 146.645 275.401 146.98C275.585 147.316 275.678 147.765 275.678 148.328V153H274.588V152.04H274.533C274.459 152.194 274.336 152.358 274.163 152.534C273.991 152.709 273.762 152.858 273.475 152.982C273.189 153.105 272.84 153.166 272.428 153.166ZM272.594 152.188C273.025 152.188 273.388 152.103 273.683 151.934C273.982 151.764 274.206 151.546 274.357 151.278C274.511 151.01 274.588 150.729 274.588 150.433V149.436C274.542 149.491 274.44 149.542 274.283 149.588C274.129 149.632 273.951 149.67 273.748 149.704C273.548 149.735 273.352 149.762 273.162 149.787C272.974 149.808 272.821 149.827 272.705 149.842C272.421 149.879 272.157 149.939 271.911 150.022C271.667 150.102 271.47 150.224 271.32 150.387C271.172 150.547 271.098 150.766 271.098 151.043C271.098 151.421 271.238 151.707 271.518 151.901C271.801 152.092 272.16 152.188 272.594 152.188ZM280.75 145.909V146.832H277.075V145.909H280.75ZM278.146 144.21H279.236V150.969C279.236 151.277 279.28 151.507 279.37 151.661C279.462 151.812 279.579 151.914 279.72 151.966C279.865 152.015 280.017 152.04 280.177 152.04C280.297 152.04 280.396 152.034 280.473 152.021C280.55 152.006 280.611 151.994 280.658 151.984L280.879 152.963C280.805 152.991 280.702 153.018 280.57 153.046C280.438 153.077 280.27 153.092 280.067 153.092C279.759 153.092 279.457 153.026 279.162 152.894C278.869 152.761 278.626 152.56 278.432 152.289C278.242 152.018 278.146 151.677 278.146 151.264V144.21ZM285.286 153.148C284.602 153.148 284.013 152.997 283.517 152.695C283.025 152.391 282.645 151.966 282.377 151.421C282.113 150.873 281.98 150.236 281.98 149.51C281.98 148.784 282.113 148.143 282.377 147.589C282.645 147.032 283.017 146.598 283.494 146.288C283.975 145.974 284.535 145.817 285.175 145.817C285.544 145.817 285.909 145.878 286.269 146.001C286.629 146.125 286.957 146.325 287.252 146.602C287.548 146.875 287.783 147.239 287.959 147.691C288.134 148.143 288.222 148.701 288.222 149.362V149.824H282.756V148.882H287.114C287.114 148.482 287.034 148.125 286.874 147.811C286.717 147.497 286.492 147.249 286.2 147.068C285.91 146.886 285.569 146.795 285.175 146.795C284.741 146.795 284.365 146.903 284.048 147.119C283.734 147.331 283.493 147.608 283.324 147.95C283.154 148.291 283.07 148.657 283.07 149.048V149.676C283.07 150.212 283.162 150.666 283.347 151.038C283.534 151.407 283.794 151.689 284.127 151.883C284.459 152.074 284.845 152.169 285.286 152.169C285.572 152.169 285.83 152.129 286.061 152.049C286.295 151.966 286.497 151.843 286.666 151.68C286.835 151.513 286.966 151.307 287.058 151.061L288.111 151.357C288 151.714 287.814 152.027 287.552 152.298C287.291 152.566 286.968 152.775 286.583 152.926C286.198 153.074 285.766 153.148 285.286 153.148Z" fill="#1F243D"/>
<path d="M318.376 153.999L317.301 152.924L322.251 147.974L317.301 143.024L318.376 141.949L324.401 147.974L318.376 153.999Z" fill="#959BA3"/>
<path d="M345.303 143.545V153H344.158V144.746H344.102L341.794 146.278V145.115L344.158 143.545H345.303ZM351.105 153.129C350.41 153.129 349.817 152.94 349.328 152.561C348.839 152.18 348.465 151.627 348.206 150.904C347.948 150.178 347.819 149.301 347.819 148.273C347.819 147.251 347.948 146.378 348.206 145.655C348.468 144.929 348.843 144.375 349.333 143.993C349.825 143.609 350.416 143.416 351.105 143.416C351.795 143.416 352.384 143.609 352.874 143.993C353.366 144.375 353.741 144.929 354 145.655C354.262 146.378 354.392 147.251 354.392 148.273C354.392 149.301 354.263 150.178 354.005 150.904C353.746 151.627 353.372 152.18 352.883 152.561C352.393 152.94 351.801 153.129 351.105 153.129ZM351.105 152.114C351.795 152.114 352.33 151.781 352.712 151.116C353.094 150.452 353.284 149.504 353.284 148.273C353.284 147.454 353.197 146.757 353.021 146.181C352.849 145.606 352.6 145.167 352.273 144.866C351.95 144.564 351.561 144.413 351.105 144.413C350.422 144.413 349.888 144.75 349.504 145.424C349.119 146.095 348.926 147.045 348.926 148.273C348.926 149.091 349.013 149.787 349.185 150.359C349.357 150.932 349.605 151.367 349.928 151.666C350.254 151.964 350.647 152.114 351.105 152.114ZM359.507 143.102L356.461 154.422H355.463L358.51 143.102H359.507ZM363.864 153.129C363.169 153.129 362.576 152.94 362.087 152.561C361.598 152.18 361.224 151.627 360.965 150.904C360.707 150.178 360.577 149.301 360.577 148.273C360.577 147.251 360.707 146.378 360.965 145.655C361.227 144.929 361.602 144.375 362.092 143.993C362.584 143.609 363.175 143.416 363.864 143.416C364.554 143.416 365.143 143.609 365.632 143.993C366.125 144.375 366.5 144.929 366.759 145.655C367.02 146.378 367.151 147.251 367.151 148.273C367.151 149.301 367.022 150.178 366.763 150.904C366.505 151.627 366.131 152.18 365.642 152.561C365.152 152.94 364.56 153.129 363.864 153.129ZM363.864 152.114C364.554 152.114 365.089 151.781 365.471 151.116C365.852 150.452 366.043 149.504 366.043 148.273C366.043 147.454 365.956 146.757 365.78 146.181C365.608 145.606 365.358 145.167 365.032 144.866C364.709 144.564 364.32 144.413 363.864 144.413C363.181 144.413 362.647 144.75 362.262 145.424C361.878 146.095 361.685 147.045 361.685 148.273C361.685 149.091 361.771 149.787 361.944 150.359C362.116 150.932 362.364 151.367 362.687 151.666C363.013 151.964 363.406 152.114 363.864 152.114ZM371.86 153.129C371.318 153.129 370.831 153.022 370.397 152.806C369.963 152.591 369.615 152.295 369.353 151.92C369.092 151.544 368.949 151.116 368.924 150.636H370.032C370.075 151.064 370.269 151.418 370.614 151.698C370.961 151.975 371.377 152.114 371.86 152.114C372.248 152.114 372.592 152.023 372.894 151.841C373.199 151.66 373.437 151.41 373.61 151.093C373.785 150.773 373.873 150.412 373.873 150.009C373.873 149.596 373.782 149.228 373.6 148.905C373.422 148.579 373.176 148.322 372.862 148.134C372.548 147.946 372.189 147.851 371.786 147.848C371.497 147.845 371.2 147.89 370.895 147.982C370.59 148.071 370.34 148.187 370.143 148.328L369.072 148.199L369.644 143.545H374.556V144.561H370.604L370.272 147.349H370.327C370.521 147.196 370.764 147.068 371.057 146.966C371.349 146.865 371.654 146.814 371.971 146.814C372.549 146.814 373.065 146.952 373.517 147.229C373.973 147.503 374.33 147.879 374.588 148.356C374.85 148.833 374.981 149.378 374.981 149.99C374.981 150.593 374.845 151.132 374.574 151.606C374.307 152.077 373.937 152.449 373.467 152.723C372.996 152.994 372.46 153.129 371.86 153.129ZM380.175 143.102L377.129 154.422H376.131L379.178 143.102H380.175ZM381.448 153V152.169L384.569 148.753C384.935 148.353 385.237 148.005 385.474 147.71C385.711 147.411 385.886 147.131 386 146.869C386.117 146.605 386.176 146.328 386.176 146.038C386.176 145.706 386.096 145.418 385.936 145.175C385.779 144.932 385.563 144.744 385.289 144.612C385.015 144.48 384.708 144.413 384.366 144.413C384.003 144.413 383.686 144.489 383.415 144.64C383.147 144.787 382.94 144.995 382.792 145.263C382.647 145.531 382.575 145.844 382.575 146.205H381.485C381.485 145.651 381.613 145.164 381.869 144.746C382.124 144.327 382.472 144.001 382.912 143.767C383.355 143.533 383.852 143.416 384.403 143.416C384.957 143.416 385.448 143.533 385.876 143.767C386.303 144.001 386.639 144.316 386.882 144.713C387.125 145.11 387.247 145.552 387.247 146.038C387.247 146.386 387.184 146.726 387.057 147.059C386.934 147.388 386.719 147.756 386.411 148.162C386.106 148.565 385.683 149.058 385.142 149.639L383.018 151.911V151.984H387.413V153H381.448ZM392.403 153.129C391.708 153.129 391.115 152.94 390.626 152.561C390.137 152.18 389.763 151.627 389.504 150.904C389.246 150.178 389.116 149.301 389.116 148.273C389.116 147.251 389.246 146.378 389.504 145.655C389.766 144.929 390.141 144.375 390.631 143.993C391.123 143.609 391.714 143.416 392.403 143.416C393.093 143.416 393.682 143.609 394.171 143.993C394.664 144.375 395.039 144.929 395.298 145.655C395.559 146.378 395.69 147.251 395.69 148.273C395.69 149.301 395.561 150.178 395.302 150.904C395.044 151.627 394.67 152.18 394.181 152.561C393.691 152.94 393.099 153.129 392.403 153.129ZM392.403 152.114C393.093 152.114 393.628 151.781 394.01 151.116C394.391 150.452 394.582 149.504 394.582 148.273C394.582 147.454 394.495 146.757 394.319 146.181C394.147 145.606 393.898 145.167 393.571 144.866C393.248 144.564 392.859 144.413 392.403 144.413C391.72 144.413 391.186 144.75 390.801 145.424C390.417 146.095 390.224 147.045 390.224 148.273C390.224 149.091 390.311 149.787 390.483 150.359C390.655 150.932 390.903 151.367 391.226 151.666C391.552 151.964 391.945 152.114 392.403 152.114ZM397.445 153V152.169L400.565 148.753C400.931 148.353 401.233 148.005 401.47 147.71C401.707 147.411 401.882 147.131 401.996 146.869C402.113 146.605 402.172 146.328 402.172 146.038C402.172 145.706 402.092 145.418 401.932 145.175C401.775 144.932 401.559 144.744 401.285 144.612C401.012 144.48 400.704 144.413 400.362 144.413C399.999 144.413 399.682 144.489 399.411 144.64C399.143 144.787 398.936 144.995 398.788 145.263C398.643 145.531 398.571 145.844 398.571 146.205H397.481C397.481 145.651 397.609 145.164 397.865 144.746C398.12 144.327 398.468 144.001 398.908 143.767C399.351 143.533 399.848 143.416 400.399 143.416C400.953 143.416 401.444 143.533 401.872 143.767C402.3 144.001 402.635 144.316 402.878 144.713C403.121 145.11 403.243 145.552 403.243 146.038C403.243 146.386 403.18 146.726 403.054 147.059C402.93 147.388 402.715 147.756 402.407 148.162C402.103 148.565 401.679 149.058 401.138 149.639L399.014 151.911V151.984H403.409V153H397.445ZM408.51 153.129C407.901 153.129 407.358 153.025 406.881 152.815C406.407 152.606 406.03 152.315 405.75 151.943C405.473 151.567 405.322 151.132 405.297 150.636H406.46C406.485 150.941 406.59 151.204 406.774 151.426C406.959 151.644 407.201 151.814 407.499 151.934C407.798 152.054 408.129 152.114 408.492 152.114C408.898 152.114 409.258 152.043 409.572 151.901C409.886 151.76 410.132 151.563 410.311 151.31C410.489 151.058 410.578 150.766 410.578 150.433C410.578 150.085 410.492 149.779 410.32 149.515C410.148 149.247 409.895 149.038 409.563 148.887C409.23 148.736 408.824 148.661 408.344 148.661H407.587V147.645H408.344C408.719 147.645 409.049 147.577 409.332 147.442C409.618 147.306 409.841 147.116 410.001 146.869C410.164 146.623 410.246 146.334 410.246 146.001C410.246 145.681 410.175 145.403 410.034 145.166C409.892 144.929 409.692 144.744 409.434 144.612C409.178 144.48 408.876 144.413 408.529 144.413C408.202 144.413 407.895 144.473 407.605 144.593C407.319 144.71 407.085 144.881 406.904 145.106C406.722 145.327 406.624 145.595 406.608 145.909H405.5C405.519 145.414 405.668 144.98 405.948 144.607C406.228 144.232 406.594 143.939 407.047 143.73C407.502 143.521 408.002 143.416 408.547 143.416C409.132 143.416 409.634 143.535 410.052 143.772C410.471 144.006 410.792 144.315 411.017 144.7C411.242 145.084 411.354 145.5 411.354 145.946C411.354 146.478 411.214 146.932 410.934 147.308C410.657 147.683 410.28 147.943 409.803 148.088V148.162C410.4 148.26 410.866 148.514 411.202 148.924C411.537 149.33 411.705 149.833 411.705 150.433C411.705 150.947 411.565 151.409 411.285 151.818C411.008 152.224 410.629 152.545 410.149 152.778C409.669 153.012 409.123 153.129 408.51 153.129ZM420.573 143.545V153H419.428V144.746H419.373L417.065 146.278V145.115L419.428 143.545H420.573ZM426.616 143.545V153H425.471V144.746H425.416L423.108 146.278V145.115L425.471 143.545H426.616ZM430.148 151.79C429.92 151.79 429.724 151.709 429.561 151.546C429.398 151.383 429.317 151.187 429.317 150.96C429.317 150.732 429.398 150.536 429.561 150.373C429.724 150.21 429.92 150.129 430.148 150.129C430.375 150.129 430.571 150.21 430.734 150.373C430.897 150.536 430.979 150.732 430.979 150.96C430.979 151.11 430.94 151.249 430.863 151.375C430.789 151.501 430.689 151.603 430.563 151.68C430.44 151.754 430.302 151.79 430.148 151.79ZM430.148 147.008C429.92 147.008 429.724 146.926 429.561 146.763C429.398 146.6 429.317 146.405 429.317 146.177C429.317 145.949 429.398 145.754 429.561 145.591C429.724 145.427 429.92 145.346 430.148 145.346C430.375 145.346 430.571 145.427 430.734 145.591C430.897 145.754 430.979 145.949 430.979 146.177C430.979 146.328 430.94 146.466 430.863 146.592C430.789 146.719 430.689 146.82 430.563 146.897C430.44 146.971 430.302 147.008 430.148 147.008ZM432.694 151.061V150.119L436.848 143.545H437.532V145.004H437.07L433.931 149.972V150.045H439.526V151.061H432.694ZM437.144 153V150.775V150.336V143.545H438.233V153H437.144ZM444.211 153.129C443.669 153.129 443.181 153.022 442.747 152.806C442.313 152.591 441.965 152.295 441.704 151.92C441.442 151.544 441.299 151.116 441.275 150.636H442.382C442.426 151.064 442.619 151.418 442.964 151.698C443.312 151.975 443.727 152.114 444.211 152.114C444.598 152.114 444.943 152.023 445.245 151.841C445.549 151.66 445.788 151.41 445.96 151.093C446.136 150.773 446.223 150.412 446.223 150.009C446.223 149.596 446.133 149.228 445.951 148.905C445.772 148.579 445.526 148.322 445.212 148.134C444.898 147.946 444.54 147.851 444.137 147.848C443.847 147.845 443.55 147.89 443.246 147.982C442.941 148.071 442.69 148.187 442.493 148.328L441.422 148.199L441.995 143.545H446.907V144.561H442.955L442.623 147.349H442.678C442.872 147.196 443.115 147.068 443.407 146.966C443.7 146.865 444.004 146.814 444.321 146.814C444.9 146.814 445.415 146.952 445.868 147.229C446.323 147.503 446.68 147.879 446.939 148.356C447.201 148.833 447.331 149.378 447.331 149.99C447.331 150.593 447.196 151.132 446.925 151.606C446.657 152.077 446.288 152.449 445.817 152.723C445.346 152.994 444.811 153.129 444.211 153.129ZM454.927 153.166C454.477 153.166 454.069 153.082 453.703 152.912C453.337 152.74 453.046 152.492 452.831 152.169C452.615 151.843 452.508 151.449 452.508 150.987C452.508 150.581 452.588 150.252 452.748 149.999C452.908 149.744 453.122 149.544 453.389 149.399C453.657 149.254 453.953 149.147 454.276 149.076C454.602 149.002 454.93 148.944 455.259 148.901C455.69 148.845 456.039 148.804 456.307 148.776C456.578 148.745 456.775 148.694 456.898 148.624C457.024 148.553 457.087 148.43 457.087 148.254V148.217C457.087 147.762 456.962 147.408 456.713 147.156C456.467 146.903 456.093 146.777 455.591 146.777C455.071 146.777 454.663 146.891 454.368 147.119C454.073 147.346 453.865 147.589 453.745 147.848L452.711 147.479C452.895 147.048 453.142 146.712 453.449 146.472C453.76 146.229 454.099 146.06 454.465 145.964C454.834 145.866 455.197 145.817 455.554 145.817C455.782 145.817 456.044 145.844 456.339 145.9C456.638 145.952 456.926 146.061 457.203 146.228C457.483 146.394 457.715 146.645 457.9 146.98C458.084 147.316 458.177 147.765 458.177 148.328V153H457.087V152.04H457.032C456.958 152.194 456.835 152.358 456.662 152.534C456.49 152.709 456.261 152.858 455.975 152.982C455.688 153.105 455.339 153.166 454.927 153.166ZM455.093 152.188C455.524 152.188 455.887 152.103 456.182 151.934C456.481 151.764 456.705 151.546 456.856 151.278C457.01 151.01 457.087 150.729 457.087 150.433V149.436C457.041 149.491 456.939 149.542 456.782 149.588C456.629 149.632 456.45 149.67 456.247 149.704C456.047 149.735 455.851 149.762 455.661 149.787C455.473 149.808 455.321 149.827 455.204 149.842C454.92 149.879 454.656 149.939 454.41 150.022C454.166 150.102 453.969 150.224 453.819 150.387C453.671 150.547 453.597 150.766 453.597 151.043C453.597 151.421 453.737 151.707 454.017 151.901C454.3 152.092 454.659 152.188 455.093 152.188ZM460.165 153V145.909H461.218V147.017H461.31C461.458 146.638 461.696 146.345 462.026 146.135C462.355 145.923 462.75 145.817 463.212 145.817C463.68 145.817 464.069 145.923 464.38 146.135C464.694 146.345 464.939 146.638 465.114 147.017H465.188C465.369 146.651 465.642 146.36 466.005 146.145C466.368 145.926 466.804 145.817 467.311 145.817C467.945 145.817 468.464 146.015 468.867 146.412C469.27 146.806 469.472 147.42 469.472 148.254V153H468.382V148.254C468.382 147.731 468.239 147.357 467.953 147.132C467.667 146.908 467.33 146.795 466.942 146.795C466.444 146.795 466.057 146.946 465.783 147.248C465.509 147.546 465.373 147.925 465.373 148.384V153H464.265V148.143C464.265 147.74 464.134 147.416 463.872 147.169C463.611 146.92 463.274 146.795 462.861 146.795C462.578 146.795 462.313 146.871 462.067 147.022C461.824 147.172 461.627 147.382 461.476 147.65C461.328 147.914 461.255 148.22 461.255 148.568V153H460.165ZM479.183 147.765V148.781H475.046V147.765H479.183ZM484.737 153V152.169L487.858 148.753C488.224 148.353 488.526 148.005 488.763 147.71C489 147.411 489.175 147.131 489.289 146.869C489.406 146.605 489.465 146.328 489.465 146.038C489.465 145.706 489.385 145.418 489.225 145.175C489.068 144.932 488.852 144.744 488.578 144.612C488.304 144.48 487.997 144.413 487.655 144.413C487.292 144.413 486.975 144.489 486.704 144.64C486.436 144.787 486.229 144.995 486.081 145.263C485.936 145.531 485.864 145.844 485.864 146.205H484.774C484.774 145.651 484.902 145.164 485.158 144.746C485.413 144.327 485.761 144.001 486.201 143.767C486.644 143.533 487.141 143.416 487.692 143.416C488.246 143.416 488.737 143.533 489.165 143.767C489.592 144.001 489.928 144.316 490.171 144.713C490.414 145.11 490.536 145.552 490.536 146.038C490.536 146.386 490.473 146.726 490.347 147.059C490.223 147.388 490.008 147.756 489.7 148.162C489.396 148.565 488.972 149.058 488.431 149.639L486.307 151.911V151.984H490.702V153H484.737ZM495.692 153.129C494.997 153.129 494.404 152.94 493.915 152.561C493.426 152.18 493.052 151.627 492.793 150.904C492.535 150.178 492.405 149.301 492.405 148.273C492.405 147.251 492.535 146.378 492.793 145.655C493.055 144.929 493.43 144.375 493.92 143.993C494.412 143.609 495.003 143.416 495.692 143.416C496.382 143.416 496.971 143.609 497.46 143.993C497.953 144.375 498.328 144.929 498.587 145.655C498.849 146.378 498.979 147.251 498.979 148.273C498.979 149.301 498.85 150.178 498.592 150.904C498.333 151.627 497.959 152.18 497.47 152.561C496.98 152.94 496.388 153.129 495.692 153.129ZM495.692 152.114C496.382 152.114 496.917 151.781 497.299 151.116C497.681 150.452 497.871 149.504 497.871 148.273C497.871 147.454 497.784 146.757 497.608 146.181C497.436 145.606 497.187 145.167 496.86 144.866C496.537 144.564 496.148 144.413 495.692 144.413C495.009 144.413 494.475 144.75 494.09 145.424C493.706 146.095 493.513 147.045 493.513 148.273C493.513 149.091 493.6 149.787 493.772 150.359C493.944 150.932 494.192 151.367 494.515 151.666C494.841 151.964 495.234 152.114 495.692 152.114ZM504.094 143.102L501.047 154.422H500.05L503.097 143.102H504.094ZM505.659 153.074C505.432 153.074 505.236 152.992 505.073 152.829C504.91 152.666 504.828 152.471 504.828 152.243C504.828 152.015 504.91 151.82 505.073 151.657C505.236 151.493 505.432 151.412 505.659 151.412C505.887 151.412 506.083 151.493 506.246 151.657C506.409 151.82 506.49 152.015 506.49 152.243C506.49 152.394 506.452 152.532 506.375 152.658C506.301 152.785 506.201 152.886 506.075 152.963C505.952 153.037 505.813 153.074 505.659 153.074ZM509.239 153.074C509.012 153.074 508.816 152.992 508.653 152.829C508.49 152.666 508.408 152.471 508.408 152.243C508.408 152.015 508.49 151.82 508.653 151.657C508.816 151.493 509.012 151.412 509.239 151.412C509.467 151.412 509.663 151.493 509.826 151.657C509.989 151.82 510.07 152.015 510.07 152.243C510.07 152.394 510.032 152.532 509.955 152.658C509.881 152.785 509.781 152.886 509.655 152.963C509.532 153.037 509.393 153.074 509.239 153.074ZM512.82 153.074C512.592 153.074 512.396 152.992 512.233 152.829C512.07 152.666 511.989 152.471 511.989 152.243C511.989 152.015 512.07 151.82 512.233 151.657C512.396 151.493 512.592 151.412 512.82 151.412C513.047 151.412 513.243 151.493 513.406 151.657C513.569 151.82 513.65 152.015 513.65 152.243C513.65 152.394 513.612 152.532 513.535 152.658C513.461 152.785 513.361 152.886 513.235 152.963C513.112 153.037 512.973 153.074 512.82 153.074Z" fill="#1F243D"/>
<path d="M544 144.806L543.194 144L540 147.194L536.806 144L536 144.806L539.194 148L536 151.194L536.806 152L540 148.806L543.194 152L544 151.194L540.806 148L544 144.806Z" fill="#959BA3"/>
<rect x="248.5" y="132.5" width="307" height="31" rx="1.5" stroke="#DADFE7"/>
<rect x="248.5" y="172.5" width="307" height="31" rx="1.5" fill="white"/>
<path d="M266.315 185.909C266.26 185.441 266.035 185.078 265.641 184.82C265.247 184.561 264.764 184.432 264.192 184.432C263.773 184.432 263.407 184.5 263.093 184.635C262.782 184.77 262.539 184.957 262.364 185.194C262.191 185.431 262.105 185.7 262.105 186.001C262.105 186.254 262.165 186.471 262.285 186.652C262.408 186.831 262.565 186.98 262.756 187.1C262.947 187.217 263.147 187.314 263.356 187.391C263.565 187.465 263.758 187.525 263.933 187.571L264.893 187.83C265.14 187.894 265.414 187.983 265.715 188.097C266.02 188.211 266.311 188.367 266.588 188.564C266.868 188.757 267.099 189.007 267.28 189.311C267.462 189.616 267.553 189.99 267.553 190.433C267.553 190.944 267.419 191.406 267.151 191.818C266.886 192.231 266.498 192.558 265.988 192.801C265.48 193.045 264.863 193.166 264.136 193.166C263.459 193.166 262.873 193.057 262.377 192.838C261.885 192.62 261.497 192.315 261.214 191.924C260.934 191.533 260.776 191.08 260.739 190.562H261.92C261.951 190.92 262.071 191.215 262.281 191.449C262.493 191.68 262.761 191.852 263.084 191.966C263.41 192.077 263.761 192.132 264.136 192.132C264.573 192.132 264.966 192.061 265.314 191.92C265.661 191.775 265.937 191.575 266.14 191.32C266.343 191.061 266.445 190.759 266.445 190.415C266.445 190.101 266.357 189.845 266.181 189.648C266.006 189.451 265.775 189.291 265.489 189.168C265.203 189.045 264.893 188.937 264.561 188.845L263.398 188.513C262.659 188.3 262.074 187.997 261.643 187.603C261.213 187.209 260.997 186.694 260.997 186.057C260.997 185.527 261.14 185.066 261.426 184.672C261.716 184.275 262.104 183.967 262.59 183.749C263.079 183.527 263.625 183.416 264.229 183.416C264.838 183.416 265.38 183.525 265.854 183.744C266.328 183.959 266.703 184.255 266.98 184.63C267.26 185.006 267.408 185.432 267.423 185.909H266.315ZM272.371 185.909V186.832H268.696V185.909H272.371ZM269.767 184.21H270.857V190.969C270.857 191.277 270.901 191.507 270.991 191.661C271.083 191.812 271.2 191.914 271.342 191.966C271.486 192.015 271.639 192.04 271.799 192.04C271.919 192.04 272.017 192.034 272.094 192.021C272.171 192.006 272.233 191.994 272.279 191.984L272.5 192.963C272.426 192.991 272.323 193.018 272.191 193.046C272.059 193.077 271.891 193.092 271.688 193.092C271.38 193.092 271.078 193.026 270.783 192.894C270.491 192.761 270.247 192.56 270.054 192.289C269.863 192.018 269.767 191.677 269.767 191.264V184.21ZM276.097 193.166C275.647 193.166 275.239 193.082 274.873 192.912C274.507 192.74 274.216 192.492 274.001 192.169C273.785 191.843 273.677 191.449 273.677 190.987C273.677 190.581 273.757 190.252 273.918 189.999C274.078 189.744 274.291 189.544 274.559 189.399C274.827 189.254 275.122 189.147 275.446 189.076C275.772 189.002 276.1 188.944 276.429 188.901C276.86 188.845 277.209 188.804 277.477 188.776C277.748 188.745 277.945 188.694 278.068 188.624C278.194 188.553 278.257 188.43 278.257 188.254V188.217C278.257 187.762 278.132 187.408 277.883 187.156C277.637 186.903 277.263 186.777 276.761 186.777C276.241 186.777 275.833 186.891 275.538 187.119C275.242 187.346 275.035 187.589 274.915 187.848L273.881 187.479C274.065 187.048 274.311 186.712 274.619 186.472C274.93 186.229 275.269 186.06 275.635 185.964C276.004 185.866 276.367 185.817 276.724 185.817C276.952 185.817 277.214 185.844 277.509 185.9C277.808 185.952 278.095 186.061 278.372 186.228C278.652 186.394 278.885 186.645 279.07 186.98C279.254 187.316 279.347 187.765 279.347 188.328V193H278.257V192.04H278.202C278.128 192.194 278.005 192.358 277.832 192.534C277.66 192.709 277.431 192.858 277.144 192.982C276.858 193.105 276.509 193.166 276.097 193.166ZM276.263 192.188C276.694 192.188 277.057 192.103 277.352 191.934C277.651 191.764 277.875 191.546 278.026 191.278C278.18 191.01 278.257 190.729 278.257 190.433V189.436C278.211 189.491 278.109 189.542 277.952 189.588C277.798 189.632 277.62 189.67 277.417 189.704C277.217 189.735 277.021 189.762 276.831 189.787C276.643 189.808 276.49 189.827 276.373 189.842C276.09 189.879 275.826 189.939 275.579 190.022C275.336 190.102 275.139 190.224 274.989 190.387C274.841 190.547 274.767 190.766 274.767 191.043C274.767 191.421 274.907 191.707 275.187 191.901C275.47 192.092 275.829 192.188 276.263 192.188ZM284.419 185.909V186.832H280.744V185.909H284.419ZM281.815 184.21H282.905V190.969C282.905 191.277 282.949 191.507 283.039 191.661C283.131 191.812 283.248 191.914 283.389 191.966C283.534 192.015 283.686 192.04 283.846 192.04C283.966 192.04 284.065 192.034 284.142 192.021C284.219 192.006 284.28 191.994 284.327 191.984L284.548 192.963C284.474 192.991 284.371 193.018 284.239 193.046C284.106 193.077 283.939 193.092 283.736 193.092C283.428 193.092 283.126 193.026 282.831 192.894C282.538 192.761 282.295 192.56 282.101 192.289C281.911 192.018 281.815 191.677 281.815 191.264V184.21ZM290.526 190.101V185.909H291.616V193H290.526V191.8H290.453C290.286 192.16 290.028 192.466 289.677 192.718C289.326 192.968 288.883 193.092 288.347 193.092C287.904 193.092 287.51 192.995 287.166 192.801C286.821 192.605 286.55 192.309 286.353 191.915C286.156 191.518 286.058 191.018 286.058 190.415V185.909H287.147V190.341C287.147 190.858 287.292 191.27 287.581 191.578C287.874 191.886 288.246 192.04 288.698 192.04C288.969 192.04 289.245 191.971 289.525 191.832C289.808 191.694 290.045 191.481 290.236 191.195C290.43 190.909 290.526 190.544 290.526 190.101ZM298.634 187.497L297.655 187.774C297.594 187.611 297.503 187.453 297.383 187.299C297.266 187.142 297.106 187.012 296.903 186.911C296.7 186.809 296.44 186.759 296.123 186.759C295.689 186.759 295.327 186.859 295.038 187.059C294.752 187.256 294.609 187.506 294.609 187.811C294.609 188.082 294.707 188.296 294.904 188.453C295.101 188.61 295.409 188.741 295.827 188.845L296.88 189.104C297.514 189.258 297.986 189.493 298.297 189.81C298.608 190.124 298.763 190.529 298.763 191.024C298.763 191.43 298.646 191.794 298.413 192.114C298.182 192.434 297.859 192.686 297.443 192.871C297.028 193.055 296.544 193.148 295.994 193.148C295.27 193.148 294.672 192.991 294.198 192.677C293.724 192.363 293.424 191.904 293.297 191.301L294.332 191.043C294.43 191.424 294.616 191.71 294.89 191.901C295.167 192.092 295.529 192.188 295.975 192.188C296.483 192.188 296.886 192.08 297.185 191.864C297.486 191.646 297.637 191.384 297.637 191.08C297.637 190.833 297.551 190.627 297.378 190.461C297.206 190.292 296.941 190.165 296.584 190.082L295.403 189.805C294.753 189.652 294.276 189.413 293.972 189.09C293.67 188.764 293.519 188.356 293.519 187.866C293.519 187.466 293.631 187.112 293.856 186.805C294.084 186.497 294.393 186.255 294.784 186.08C295.178 185.904 295.624 185.817 296.123 185.817C296.824 185.817 297.375 185.971 297.775 186.278C298.179 186.586 298.465 186.992 298.634 187.497Z" fill="#1F243D"/>
<path d="M318.376 193.999L317.301 192.924L322.251 187.974L317.301 183.024L318.376 181.949L324.401 187.974L318.376 193.999Z" fill="#959BA3"/>
<path d="M343.29 183.545V193H342.145V183.545H343.29ZM346.527 188.734V193H345.438V185.909H346.49V187.017H346.582C346.749 186.657 347.001 186.368 347.34 186.149C347.678 185.928 348.115 185.817 348.651 185.817C349.131 185.817 349.551 185.915 349.911 186.112C350.271 186.306 350.551 186.602 350.751 186.999C350.951 187.393 351.051 187.891 351.051 188.494V193H349.962V188.568C349.962 188.011 349.817 187.577 349.528 187.266C349.238 186.952 348.841 186.795 348.337 186.795C347.989 186.795 347.678 186.871 347.404 187.022C347.133 187.172 346.919 187.393 346.763 187.682C346.606 187.971 346.527 188.322 346.527 188.734ZM356.846 193V183.545H360.041C360.782 183.545 361.389 183.679 361.86 183.947C362.334 184.212 362.684 184.57 362.912 185.023C363.14 185.475 363.254 185.98 363.254 186.537C363.254 187.094 363.14 187.6 362.912 188.056C362.687 188.511 362.34 188.874 361.869 189.145C361.398 189.413 360.795 189.547 360.059 189.547H357.769V188.531H360.022C360.53 188.531 360.938 188.444 361.246 188.268C361.553 188.093 361.776 187.856 361.915 187.557C362.057 187.256 362.127 186.915 362.127 186.537C362.127 186.158 362.057 185.82 361.915 185.521C361.776 185.223 361.552 184.989 361.241 184.82C360.93 184.647 360.518 184.561 360.004 184.561H357.991V193H356.846ZM364.95 193V185.909H366.003V186.98H366.077C366.206 186.629 366.44 186.345 366.778 186.126C367.117 185.908 367.499 185.798 367.923 185.798C368.003 185.798 368.103 185.8 368.223 185.803C368.343 185.806 368.434 185.811 368.496 185.817V186.925C368.459 186.915 368.374 186.902 368.242 186.883C368.113 186.862 367.976 186.851 367.831 186.851C367.486 186.851 367.179 186.923 366.908 187.068C366.64 187.209 366.428 187.406 366.271 187.659C366.117 187.908 366.04 188.193 366.04 188.513V193H364.95ZM372.452 193.148C371.812 193.148 371.25 192.995 370.767 192.691C370.287 192.386 369.911 191.96 369.641 191.412C369.373 190.864 369.239 190.224 369.239 189.491C369.239 188.753 369.373 188.108 369.641 187.557C369.911 187.006 370.287 186.578 370.767 186.274C371.25 185.969 371.812 185.817 372.452 185.817C373.092 185.817 373.652 185.969 374.132 186.274C374.616 186.578 374.991 187.006 375.259 187.557C375.53 188.108 375.665 188.753 375.665 189.491C375.665 190.224 375.53 190.864 375.259 191.412C374.991 191.96 374.616 192.386 374.132 192.691C373.652 192.995 373.092 193.148 372.452 193.148ZM372.452 192.169C372.938 192.169 373.338 192.044 373.652 191.795C373.966 191.546 374.199 191.218 374.349 190.812C374.5 190.406 374.576 189.965 374.576 189.491C374.576 189.018 374.5 188.576 374.349 188.167C374.199 187.757 373.966 187.426 373.652 187.174C373.338 186.922 372.938 186.795 372.452 186.795C371.966 186.795 371.566 186.922 371.252 187.174C370.938 187.426 370.705 187.757 370.555 188.167C370.404 188.576 370.328 189.018 370.328 189.491C370.328 189.965 370.404 190.406 370.555 190.812C370.705 191.218 370.938 191.546 371.252 191.795C371.566 192.044 371.966 192.169 372.452 192.169ZM380.19 195.807C379.664 195.807 379.212 195.739 378.833 195.604C378.455 195.471 378.139 195.296 377.887 195.077C377.638 194.862 377.439 194.631 377.291 194.385L378.159 193.776C378.258 193.905 378.382 194.053 378.533 194.219C378.684 194.388 378.89 194.534 379.152 194.657C379.416 194.783 379.763 194.847 380.19 194.847C380.763 194.847 381.235 194.708 381.608 194.431C381.98 194.154 382.166 193.72 382.166 193.129V191.689H382.074C381.994 191.818 381.88 191.978 381.732 192.169C381.588 192.357 381.378 192.525 381.104 192.672C380.834 192.817 380.467 192.889 380.006 192.889C379.433 192.889 378.919 192.754 378.464 192.483C378.011 192.212 377.653 191.818 377.388 191.301C377.127 190.784 376.996 190.156 376.996 189.418C376.996 188.691 377.124 188.059 377.379 187.52C377.634 186.979 377.99 186.56 378.445 186.265C378.901 185.966 379.427 185.817 380.024 185.817C380.486 185.817 380.852 185.894 381.123 186.048C381.397 186.198 381.606 186.371 381.751 186.565C381.899 186.755 382.012 186.912 382.092 187.036H382.203V185.909H383.256V193.203C383.256 193.812 383.117 194.308 382.84 194.69C382.566 195.074 382.197 195.356 381.732 195.534C381.271 195.716 380.757 195.807 380.19 195.807ZM380.153 191.911C380.591 191.911 380.96 191.81 381.261 191.61C381.563 191.41 381.792 191.123 381.949 190.747C382.106 190.372 382.185 189.922 382.185 189.399C382.185 188.888 382.108 188.437 381.954 188.047C381.8 187.656 381.572 187.349 381.271 187.128C380.969 186.906 380.597 186.795 380.153 186.795C379.692 186.795 379.307 186.912 378.999 187.146C378.695 187.38 378.465 187.694 378.312 188.088C378.161 188.482 378.085 188.919 378.085 189.399C378.085 189.892 378.162 190.327 378.316 190.706C378.473 191.081 378.704 191.377 379.009 191.592C379.316 191.804 379.698 191.911 380.153 191.911ZM385.25 193V185.909H386.303V186.98H386.377C386.506 186.629 386.74 186.345 387.078 186.126C387.417 185.908 387.798 185.798 388.223 185.798C388.303 185.798 388.403 185.8 388.523 185.803C388.643 185.806 388.734 185.811 388.796 185.817V186.925C388.759 186.915 388.674 186.902 388.542 186.883C388.412 186.862 388.275 186.851 388.131 186.851C387.786 186.851 387.478 186.923 387.207 187.068C386.94 187.209 386.727 187.406 386.57 187.659C386.417 187.908 386.34 188.193 386.34 188.513V193H385.25ZM392.844 193.148C392.161 193.148 391.572 192.997 391.076 192.695C390.584 192.391 390.204 191.966 389.936 191.421C389.671 190.873 389.539 190.236 389.539 189.51C389.539 188.784 389.671 188.143 389.936 187.589C390.204 187.032 390.576 186.598 391.053 186.288C391.533 185.974 392.093 185.817 392.733 185.817C393.103 185.817 393.467 185.878 393.828 186.001C394.188 186.125 394.515 186.325 394.811 186.602C395.106 186.875 395.342 187.239 395.517 187.691C395.693 188.143 395.78 188.701 395.78 189.362V189.824H390.314V188.882H394.672C394.672 188.482 394.592 188.125 394.432 187.811C394.275 187.497 394.051 187.249 393.758 187.068C393.469 186.886 393.127 186.795 392.733 186.795C392.299 186.795 391.924 186.903 391.607 187.119C391.293 187.331 391.051 187.608 390.882 187.95C390.713 188.291 390.628 188.657 390.628 189.048V189.676C390.628 190.212 390.721 190.666 390.905 191.038C391.093 191.407 391.353 191.689 391.685 191.883C392.018 192.074 392.404 192.169 392.844 192.169C393.13 192.169 393.389 192.129 393.62 192.049C393.854 191.966 394.055 191.843 394.225 191.68C394.394 191.513 394.525 191.307 394.617 191.061L395.669 191.357C395.559 191.714 395.372 192.027 395.111 192.298C394.849 192.566 394.526 192.775 394.141 192.926C393.757 193.074 393.324 193.148 392.844 193.148ZM402.46 187.497L401.482 187.774C401.42 187.611 401.329 187.453 401.209 187.299C401.092 187.142 400.932 187.012 400.729 186.911C400.526 186.809 400.266 186.759 399.949 186.759C399.515 186.759 399.153 186.859 398.864 187.059C398.578 187.256 398.435 187.506 398.435 187.811C398.435 188.082 398.533 188.296 398.73 188.453C398.927 188.61 399.235 188.741 399.653 188.845L400.706 189.104C401.34 189.258 401.812 189.493 402.123 189.81C402.434 190.124 402.59 190.529 402.59 191.024C402.59 191.43 402.473 191.794 402.239 192.114C402.008 192.434 401.685 192.686 401.269 192.871C400.854 193.055 400.371 193.148 399.82 193.148C399.096 193.148 398.498 192.991 398.024 192.677C397.55 192.363 397.25 191.904 397.124 191.301L398.158 191.043C398.256 191.424 398.442 191.71 398.716 191.901C398.993 192.092 399.355 192.188 399.801 192.188C400.309 192.188 400.712 192.08 401.011 191.864C401.312 191.646 401.463 191.384 401.463 191.08C401.463 190.833 401.377 190.627 401.205 190.461C401.032 190.292 400.768 190.165 400.411 190.082L399.229 189.805C398.579 189.652 398.102 189.413 397.798 189.09C397.496 188.764 397.345 188.356 397.345 187.866C397.345 187.466 397.458 187.112 397.682 186.805C397.91 186.497 398.219 186.255 398.61 186.08C399.004 185.904 399.45 185.817 399.949 185.817C400.651 185.817 401.202 185.971 401.602 186.278C402.005 186.586 402.291 186.992 402.46 187.497ZM409.252 187.497L408.274 187.774C408.212 187.611 408.121 187.453 408.001 187.299C407.884 187.142 407.724 187.012 407.521 186.911C407.318 186.809 407.058 186.759 406.741 186.759C406.307 186.759 405.945 186.859 405.656 187.059C405.37 187.256 405.227 187.506 405.227 187.811C405.227 188.082 405.325 188.296 405.522 188.453C405.719 188.61 406.027 188.741 406.445 188.845L407.498 189.104C408.132 189.258 408.604 189.493 408.915 189.81C409.226 190.124 409.382 190.529 409.382 191.024C409.382 191.43 409.265 191.794 409.031 192.114C408.8 192.434 408.477 192.686 408.061 192.871C407.646 193.055 407.163 193.148 406.612 193.148C405.888 193.148 405.29 192.991 404.816 192.677C404.342 192.363 404.042 191.904 403.916 191.301L404.95 191.043C405.048 191.424 405.234 191.71 405.508 191.901C405.785 192.092 406.147 192.188 406.593 192.188C407.101 192.188 407.504 192.08 407.803 191.864C408.104 191.646 408.255 191.384 408.255 191.08C408.255 190.833 408.169 190.627 407.997 190.461C407.824 190.292 407.56 190.165 407.203 190.082L406.021 189.805C405.371 189.652 404.894 189.413 404.59 189.09C404.288 188.764 404.137 188.356 404.137 187.866C404.137 187.466 404.25 187.112 404.474 186.805C404.702 186.497 405.011 186.255 405.402 186.08C405.796 185.904 406.242 185.817 406.741 185.817C407.443 185.817 407.994 185.971 408.394 186.278C408.797 186.586 409.083 186.992 409.252 187.497Z" fill="#1F243D"/>
<path d="M544 184.806L543.194 184L540 187.194L536.806 184L536 184.806L539.194 188L536 191.194L536.806 192L540 188.806L543.194 192L544 191.194L540.806 188L544 184.806Z" fill="#959BA3"/>
<rect x="248.5" y="172.5" width="307" height="31" rx="1.5" stroke="#DADFE7"/>
<rect x="248.5" y="92.5" width="307" height="31" rx="1.5" fill="white"/>
<path d="M266.315 105.909C266.26 105.441 266.035 105.078 265.641 104.82C265.247 104.561 264.764 104.432 264.192 104.432C263.773 104.432 263.407 104.5 263.093 104.635C262.782 104.77 262.539 104.957 262.364 105.194C262.191 105.431 262.105 105.7 262.105 106.001C262.105 106.254 262.165 106.471 262.285 106.652C262.408 106.831 262.565 106.98 262.756 107.1C262.947 107.217 263.147 107.314 263.356 107.391C263.565 107.465 263.758 107.525 263.933 107.571L264.893 107.83C265.14 107.894 265.414 107.983 265.715 108.097C266.02 108.211 266.311 108.367 266.588 108.564C266.868 108.757 267.099 109.007 267.28 109.311C267.462 109.616 267.553 109.99 267.553 110.433C267.553 110.944 267.419 111.406 267.151 111.818C266.886 112.231 266.498 112.558 265.988 112.801C265.48 113.045 264.863 113.166 264.136 113.166C263.459 113.166 262.873 113.057 262.377 112.838C261.885 112.62 261.497 112.315 261.214 111.924C260.934 111.533 260.776 111.08 260.739 110.562H261.92C261.951 110.92 262.071 111.215 262.281 111.449C262.493 111.68 262.761 111.852 263.084 111.966C263.41 112.077 263.761 112.132 264.136 112.132C264.573 112.132 264.966 112.061 265.314 111.92C265.661 111.775 265.937 111.575 266.14 111.32C266.343 111.061 266.445 110.759 266.445 110.415C266.445 110.101 266.357 109.845 266.181 109.648C266.006 109.451 265.775 109.291 265.489 109.168C265.203 109.045 264.893 108.937 264.561 108.845L263.398 108.513C262.659 108.3 262.074 107.997 261.643 107.603C261.213 107.209 260.997 106.694 260.997 106.057C260.997 105.527 261.14 105.066 261.426 104.672C261.716 104.275 262.104 103.967 262.59 103.749C263.079 103.527 263.625 103.416 264.229 103.416C264.838 103.416 265.38 103.525 265.854 103.744C266.328 103.959 266.703 104.255 266.98 104.63C267.26 105.006 267.408 105.432 267.423 105.909H266.315ZM272.371 105.909V106.832H268.696V105.909H272.371ZM269.767 104.21H270.857V110.969C270.857 111.277 270.901 111.507 270.991 111.661C271.083 111.812 271.2 111.914 271.342 111.966C271.486 112.015 271.639 112.04 271.799 112.04C271.919 112.04 272.017 112.034 272.094 112.021C272.171 112.006 272.233 111.994 272.279 111.984L272.5 112.963C272.426 112.991 272.323 113.018 272.191 113.046C272.059 113.077 271.891 113.092 271.688 113.092C271.38 113.092 271.078 113.026 270.783 112.894C270.491 112.761 270.247 112.56 270.054 112.289C269.863 112.018 269.767 111.677 269.767 111.264V104.21ZM276.097 113.166C275.647 113.166 275.239 113.082 274.873 112.912C274.507 112.74 274.216 112.492 274.001 112.169C273.785 111.843 273.677 111.449 273.677 110.987C273.677 110.581 273.757 110.252 273.918 109.999C274.078 109.744 274.291 109.544 274.559 109.399C274.827 109.254 275.122 109.147 275.446 109.076C275.772 109.002 276.1 108.944 276.429 108.901C276.86 108.845 277.209 108.804 277.477 108.776C277.748 108.745 277.945 108.694 278.068 108.624C278.194 108.553 278.257 108.43 278.257 108.254V108.217C278.257 107.762 278.132 107.408 277.883 107.156C277.637 106.903 277.263 106.777 276.761 106.777C276.241 106.777 275.833 106.891 275.538 107.119C275.242 107.346 275.035 107.589 274.915 107.848L273.881 107.479C274.065 107.048 274.311 106.712 274.619 106.472C274.93 106.229 275.269 106.06 275.635 105.964C276.004 105.866 276.367 105.817 276.724 105.817C276.952 105.817 277.214 105.844 277.509 105.9C277.808 105.952 278.095 106.061 278.372 106.228C278.652 106.394 278.885 106.645 279.07 106.98C279.254 107.316 279.347 107.765 279.347 108.328V113H278.257V112.04H278.202C278.128 112.194 278.005 112.358 277.832 112.534C277.66 112.709 277.431 112.858 277.144 112.982C276.858 113.105 276.509 113.166 276.097 113.166ZM276.263 112.188C276.694 112.188 277.057 112.103 277.352 111.934C277.651 111.764 277.875 111.546 278.026 111.278C278.18 111.01 278.257 110.729 278.257 110.433V109.436C278.211 109.491 278.109 109.542 277.952 109.588C277.798 109.632 277.62 109.67 277.417 109.704C277.217 109.735 277.021 109.762 276.831 109.787C276.643 109.808 276.49 109.827 276.373 109.842C276.09 109.879 275.826 109.939 275.579 110.022C275.336 110.102 275.139 110.224 274.989 110.387C274.841 110.547 274.767 110.766 274.767 111.043C274.767 111.421 274.907 111.707 275.187 111.901C275.47 112.092 275.829 112.188 276.263 112.188ZM284.419 105.909V106.832H280.744V105.909H284.419ZM281.815 104.21H282.905V110.969C282.905 111.277 282.949 111.507 283.039 111.661C283.131 111.812 283.248 111.914 283.389 111.966C283.534 112.015 283.686 112.04 283.846 112.04C283.966 112.04 284.065 112.034 284.142 112.021C284.219 112.006 284.28 111.994 284.327 111.984L284.548 112.963C284.474 112.991 284.371 113.018 284.239 113.046C284.106 113.077 283.939 113.092 283.736 113.092C283.428 113.092 283.126 113.026 282.831 112.894C282.538 112.761 282.295 112.56 282.101 112.289C281.911 112.018 281.815 111.677 281.815 111.264V104.21ZM290.526 110.101V105.909H291.616V113H290.526V111.8H290.453C290.286 112.16 290.028 112.466 289.677 112.718C289.326 112.968 288.883 113.092 288.347 113.092C287.904 113.092 287.51 112.995 287.166 112.801C286.821 112.605 286.55 112.309 286.353 111.915C286.156 111.518 286.058 111.018 286.058 110.415V105.909H287.147V110.341C287.147 110.858 287.292 111.27 287.581 111.578C287.874 111.886 288.246 112.04 288.698 112.04C288.969 112.04 289.245 111.971 289.525 111.832C289.808 111.694 290.045 111.481 290.236 111.195C290.43 110.909 290.526 110.544 290.526 110.101ZM298.634 107.497L297.655 107.774C297.594 107.611 297.503 107.453 297.383 107.299C297.266 107.142 297.106 107.012 296.903 106.911C296.7 106.809 296.44 106.759 296.123 106.759C295.689 106.759 295.327 106.859 295.038 107.059C294.752 107.256 294.609 107.506 294.609 107.811C294.609 108.082 294.707 108.296 294.904 108.453C295.101 108.61 295.409 108.741 295.827 108.845L296.88 109.104C297.514 109.258 297.986 109.493 298.297 109.81C298.608 110.124 298.763 110.529 298.763 111.024C298.763 111.43 298.646 111.794 298.413 112.114C298.182 112.434 297.859 112.686 297.443 112.871C297.028 113.055 296.544 113.148 295.994 113.148C295.27 113.148 294.672 112.991 294.198 112.677C293.724 112.363 293.424 111.904 293.297 111.301L294.332 111.043C294.43 111.424 294.616 111.71 294.89 111.901C295.167 112.092 295.529 112.188 295.975 112.188C296.483 112.188 296.886 112.08 297.185 111.864C297.486 111.646 297.637 111.384 297.637 111.08C297.637 110.833 297.551 110.627 297.378 110.461C297.206 110.292 296.941 110.165 296.584 110.082L295.403 109.805C294.753 109.652 294.276 109.413 293.972 109.09C293.67 108.764 293.519 108.356 293.519 107.866C293.519 107.466 293.631 107.112 293.856 106.805C294.084 106.497 294.393 106.255 294.784 106.08C295.178 105.904 295.624 105.817 296.123 105.817C296.824 105.817 297.375 105.971 297.775 106.278C298.179 106.586 298.465 106.992 298.634 107.497Z" fill="#1F243D"/>
<path d="M318.376 113.999L317.301 112.924L322.251 107.974L317.301 103.024L318.376 101.949L324.401 107.974L318.376 113.999Z" fill="#959BA3"/>
<path d="M343.29 103.545V113H342.145V103.545H343.29ZM346.527 108.734V113H345.438V105.909H346.49V107.017H346.582C346.749 106.657 347.001 106.368 347.34 106.149C347.678 105.928 348.115 105.817 348.651 105.817C349.131 105.817 349.551 105.915 349.911 106.112C350.271 106.306 350.551 106.602 350.751 106.999C350.951 107.393 351.051 107.891 351.051 108.494V113H349.962V108.568C349.962 108.011 349.817 107.577 349.528 107.266C349.238 106.952 348.841 106.795 348.337 106.795C347.989 106.795 347.678 106.871 347.404 107.022C347.133 107.172 346.919 107.393 346.763 107.682C346.606 107.971 346.527 108.322 346.527 108.734ZM356.846 113V103.545H360.041C360.782 103.545 361.389 103.679 361.86 103.947C362.334 104.212 362.684 104.57 362.912 105.023C363.14 105.475 363.254 105.98 363.254 106.537C363.254 107.094 363.14 107.6 362.912 108.056C362.687 108.511 362.34 108.874 361.869 109.145C361.398 109.413 360.795 109.547 360.059 109.547H357.769V108.531H360.022C360.53 108.531 360.938 108.444 361.246 108.268C361.553 108.093 361.776 107.856 361.915 107.557C362.057 107.256 362.127 106.915 362.127 106.537C362.127 106.158 362.057 105.82 361.915 105.521C361.776 105.223 361.552 104.989 361.241 104.82C360.93 104.647 360.518 104.561 360.004 104.561H357.991V113H356.846ZM364.95 113V105.909H366.003V106.98H366.077C366.206 106.629 366.44 106.345 366.778 106.126C367.117 105.908 367.499 105.798 367.923 105.798C368.003 105.798 368.103 105.8 368.223 105.803C368.343 105.806 368.434 105.811 368.496 105.817V106.925C368.459 106.915 368.374 106.902 368.242 106.883C368.113 106.862 367.976 106.851 367.831 106.851C367.486 106.851 367.179 106.923 366.908 107.068C366.64 107.209 366.428 107.406 366.271 107.659C366.117 107.908 366.04 108.193 366.04 108.513V113H364.95ZM372.452 113.148C371.812 113.148 371.25 112.995 370.767 112.691C370.287 112.386 369.911 111.96 369.641 111.412C369.373 110.864 369.239 110.224 369.239 109.491C369.239 108.753 369.373 108.108 369.641 107.557C369.911 107.006 370.287 106.578 370.767 106.274C371.25 105.969 371.812 105.817 372.452 105.817C373.092 105.817 373.652 105.969 374.132 106.274C374.616 106.578 374.991 107.006 375.259 107.557C375.53 108.108 375.665 108.753 375.665 109.491C375.665 110.224 375.53 110.864 375.259 111.412C374.991 111.96 374.616 112.386 374.132 112.691C373.652 112.995 373.092 113.148 372.452 113.148ZM372.452 112.169C372.938 112.169 373.338 112.044 373.652 111.795C373.966 111.546 374.199 111.218 374.349 110.812C374.5 110.406 374.576 109.965 374.576 109.491C374.576 109.018 374.5 108.576 374.349 108.167C374.199 107.757 373.966 107.426 373.652 107.174C373.338 106.922 372.938 106.795 372.452 106.795C371.966 106.795 371.566 106.922 371.252 107.174C370.938 107.426 370.705 107.757 370.555 108.167C370.404 108.576 370.328 109.018 370.328 109.491C370.328 109.965 370.404 110.406 370.555 110.812C370.705 111.218 370.938 111.546 371.252 111.795C371.566 112.044 371.966 112.169 372.452 112.169ZM380.19 115.807C379.664 115.807 379.212 115.739 378.833 115.604C378.455 115.471 378.139 115.296 377.887 115.077C377.638 114.862 377.439 114.631 377.291 114.385L378.159 113.776C378.258 113.905 378.382 114.053 378.533 114.219C378.684 114.388 378.89 114.534 379.152 114.657C379.416 114.783 379.763 114.847 380.19 114.847C380.763 114.847 381.235 114.708 381.608 114.431C381.98 114.154 382.166 113.72 382.166 113.129V111.689H382.074C381.994 111.818 381.88 111.978 381.732 112.169C381.588 112.357 381.378 112.525 381.104 112.672C380.834 112.817 380.467 112.889 380.006 112.889C379.433 112.889 378.919 112.754 378.464 112.483C378.011 112.212 377.653 111.818 377.388 111.301C377.127 110.784 376.996 110.156 376.996 109.418C376.996 108.691 377.124 108.059 377.379 107.52C377.634 106.979 377.99 106.56 378.445 106.265C378.901 105.966 379.427 105.817 380.024 105.817C380.486 105.817 380.852 105.894 381.123 106.048C381.397 106.198 381.606 106.371 381.751 106.565C381.899 106.755 382.012 106.912 382.092 107.036H382.203V105.909H383.256V113.203C383.256 113.812 383.117 114.308 382.84 114.69C382.566 115.074 382.197 115.356 381.732 115.534C381.271 115.716 380.757 115.807 380.19 115.807ZM380.153 111.911C380.591 111.911 380.96 111.81 381.261 111.61C381.563 111.41 381.792 111.123 381.949 110.747C382.106 110.372 382.185 109.922 382.185 109.399C382.185 108.888 382.108 108.437 381.954 108.047C381.8 107.656 381.572 107.349 381.271 107.128C380.969 106.906 380.597 106.795 380.153 106.795C379.692 106.795 379.307 106.912 378.999 107.146C378.695 107.38 378.465 107.694 378.312 108.088C378.161 108.482 378.085 108.919 378.085 109.399C378.085 109.892 378.162 110.327 378.316 110.706C378.473 111.081 378.704 111.377 379.009 111.592C379.316 111.804 379.698 111.911 380.153 111.911ZM385.25 113V105.909H386.303V106.98H386.377C386.506 106.629 386.74 106.345 387.078 106.126C387.417 105.908 387.798 105.798 388.223 105.798C388.303 105.798 388.403 105.8 388.523 105.803C388.643 105.806 388.734 105.811 388.796 105.817V106.925C388.759 106.915 388.674 106.902 388.542 106.883C388.412 106.862 388.275 106.851 388.131 106.851C387.786 106.851 387.478 106.923 387.207 107.068C386.94 107.209 386.727 107.406 386.57 107.659C386.417 107.908 386.34 108.193 386.34 108.513V113H385.25ZM392.844 113.148C392.161 113.148 391.572 112.997 391.076 112.695C390.584 112.391 390.204 111.966 389.936 111.421C389.671 110.873 389.539 110.236 389.539 109.51C389.539 108.784 389.671 108.143 389.936 107.589C390.204 107.032 390.576 106.598 391.053 106.288C391.533 105.974 392.093 105.817 392.733 105.817C393.103 105.817 393.467 105.878 393.828 106.001C394.188 106.125 394.515 106.325 394.811 106.602C395.106 106.875 395.342 107.239 395.517 107.691C395.693 108.143 395.78 108.701 395.78 109.362V109.824H390.314V108.882H394.672C394.672 108.482 394.592 108.125 394.432 107.811C394.275 107.497 394.051 107.249 393.758 107.068C393.469 106.886 393.127 106.795 392.733 106.795C392.299 106.795 391.924 106.903 391.607 107.119C391.293 107.331 391.051 107.608 390.882 107.95C390.713 108.291 390.628 108.657 390.628 109.048V109.676C390.628 110.212 390.721 110.666 390.905 111.038C391.093 111.407 391.353 111.689 391.685 111.883C392.018 112.074 392.404 112.169 392.844 112.169C393.13 112.169 393.389 112.129 393.62 112.049C393.854 111.966 394.055 111.843 394.225 111.68C394.394 111.513 394.525 111.307 394.617 111.061L395.669 111.357C395.559 111.714 395.372 112.027 395.111 112.298C394.849 112.566 394.526 112.775 394.141 112.926C393.757 113.074 393.324 113.148 392.844 113.148ZM402.46 107.497L401.482 107.774C401.42 107.611 401.329 107.453 401.209 107.299C401.092 107.142 400.932 107.012 400.729 106.911C400.526 106.809 400.266 106.759 399.949 106.759C399.515 106.759 399.153 106.859 398.864 107.059C398.578 107.256 398.435 107.506 398.435 107.811C398.435 108.082 398.533 108.296 398.73 108.453C398.927 108.61 399.235 108.741 399.653 108.845L400.706 109.104C401.34 109.258 401.812 109.493 402.123 109.81C402.434 110.124 402.59 110.529 402.59 111.024C402.59 111.43 402.473 111.794 402.239 112.114C402.008 112.434 401.685 112.686 401.269 112.871C400.854 113.055 400.371 113.148 399.82 113.148C399.096 113.148 398.498 112.991 398.024 112.677C397.55 112.363 397.25 111.904 397.124 111.301L398.158 111.043C398.256 111.424 398.442 111.71 398.716 111.901C398.993 112.092 399.355 112.188 399.801 112.188C400.309 112.188 400.712 112.08 401.011 111.864C401.312 111.646 401.463 111.384 401.463 111.08C401.463 110.833 401.377 110.627 401.205 110.461C401.032 110.292 400.768 110.165 400.411 110.082L399.229 109.805C398.579 109.652 398.102 109.413 397.798 109.09C397.496 108.764 397.345 108.356 397.345 107.866C397.345 107.466 397.458 107.112 397.682 106.805C397.91 106.497 398.219 106.255 398.61 106.08C399.004 105.904 399.45 105.817 399.949 105.817C400.651 105.817 401.202 105.971 401.602 106.278C402.005 106.586 402.291 106.992 402.46 107.497ZM409.252 107.497L408.274 107.774C408.212 107.611 408.121 107.453 408.001 107.299C407.884 107.142 407.724 107.012 407.521 106.911C407.318 106.809 407.058 106.759 406.741 106.759C406.307 106.759 405.945 106.859 405.656 107.059C405.37 107.256 405.227 107.506 405.227 107.811C405.227 108.082 405.325 108.296 405.522 108.453C405.719 108.61 406.027 108.741 406.445 108.845L407.498 109.104C408.132 109.258 408.604 109.493 408.915 109.81C409.226 110.124 409.382 110.529 409.382 111.024C409.382 111.43 409.265 111.794 409.031 112.114C408.8 112.434 408.477 112.686 408.061 112.871C407.646 113.055 407.163 113.148 406.612 113.148C405.888 113.148 405.29 112.991 404.816 112.677C404.342 112.363 404.042 111.904 403.916 111.301L404.95 111.043C405.048 111.424 405.234 111.71 405.508 111.901C405.785 112.092 406.147 112.188 406.593 112.188C407.101 112.188 407.504 112.08 407.803 111.864C408.104 111.646 408.255 111.384 408.255 111.08C408.255 110.833 408.169 110.627 407.997 110.461C407.824 110.292 407.56 110.165 407.203 110.082L406.021 109.805C405.371 109.652 404.894 109.413 404.59 109.09C404.288 108.764 404.137 108.356 404.137 107.866C404.137 107.466 404.25 107.112 404.474 106.805C404.702 106.497 405.011 106.255 405.402 106.08C405.796 105.904 406.242 105.817 406.741 105.817C407.443 105.817 407.994 105.971 408.394 106.278C408.797 106.586 409.083 106.992 409.252 107.497Z" fill="#1F243D"/>
<path d="M544 104.806L543.194 104L540 107.194L536.806 104L536 104.806L539.194 108L536 111.194L536.806 112L540 108.806L543.194 112L544 111.194L540.806 108L544 104.806Z" fill="#959BA3"/>
<rect x="248.5" y="92.5" width="307" height="31" rx="1.5" stroke="#DADFE7"/>
<rect x="248.5" y="212.5" width="307" height="31" rx="1.5" fill="white"/>
<path fill-rule="evenodd" clip-rule="evenodd" d="M367.5 222C367.914 222 368.25 222.336 368.25 222.75V227.25H372.75C373.164 227.25 373.5 227.586 373.5 228C373.5 228.414 373.164 228.75 372.75 228.75H368.25V233.25C368.25 233.664 367.914 234 367.5 234C367.086 234 366.75 233.664 366.75 233.25V228.75H362.25C361.836 228.75 361.5 228.414 361.5 228C361.5 227.586 361.836 227.25 362.25 227.25H366.75V222.75C366.75 222.336 367.086 222 367.5 222Z" fill="#217CF5"/>
<path d="M386.337 233H384.823L388.225 223.545H389.874L393.276 233H391.762L389.089 225.263H389.015L386.337 233ZM386.591 229.298H391.503V230.498H386.591V229.298ZM397.071 233.138C396.498 233.138 395.987 232.992 395.538 232.7C395.092 232.404 394.741 231.984 394.485 231.44C394.233 230.892 394.107 230.235 394.107 229.468C394.107 228.702 394.235 228.047 394.49 227.502C394.749 226.957 395.103 226.54 395.552 226.251C396.001 225.961 396.511 225.817 397.08 225.817C397.52 225.817 397.874 225.891 398.142 226.038C398.413 226.183 398.622 226.352 398.77 226.546C398.92 226.74 399.037 226.911 399.12 227.059H399.203V223.545H400.584V233H399.236V231.897H399.12C399.037 232.047 398.917 232.22 398.76 232.414C398.606 232.608 398.394 232.777 398.123 232.922C397.852 233.066 397.502 233.138 397.071 233.138ZM397.375 231.961C397.772 231.961 398.108 231.857 398.382 231.647C398.659 231.435 398.868 231.141 399.01 230.766C399.154 230.39 399.227 229.953 399.227 229.455C399.227 228.962 399.156 228.531 399.014 228.162C398.873 227.793 398.665 227.505 398.391 227.299C398.117 227.092 397.779 226.989 397.375 226.989C396.96 226.989 396.614 227.097 396.337 227.312C396.06 227.528 395.85 227.822 395.709 228.194C395.57 228.567 395.501 228.987 395.501 229.455C395.501 229.929 395.572 230.355 395.713 230.733C395.855 231.112 396.064 231.412 396.341 231.634C396.621 231.852 396.966 231.961 397.375 231.961ZM405.208 233.138C404.636 233.138 404.125 232.992 403.676 232.7C403.229 232.404 402.879 231.984 402.623 231.44C402.371 230.892 402.245 230.235 402.245 229.468C402.245 228.702 402.372 228.047 402.628 227.502C402.886 226.957 403.24 226.54 403.69 226.251C404.139 225.961 404.648 225.817 405.218 225.817C405.658 225.817 406.012 225.891 406.279 226.038C406.55 226.183 406.759 226.352 406.907 226.546C407.058 226.74 407.175 226.911 407.258 227.059H407.341V223.545H408.722V233H407.373V231.897H407.258C407.175 232.047 407.055 232.22 406.898 232.414C406.744 232.608 406.532 232.777 406.261 232.922C405.99 233.066 405.639 233.138 405.208 233.138ZM405.513 231.961C405.91 231.961 406.246 231.857 406.519 231.647C406.796 231.435 407.006 231.141 407.147 230.766C407.292 230.39 407.364 229.953 407.364 229.455C407.364 228.962 407.293 228.531 407.152 228.162C407.01 227.793 406.803 227.505 406.529 227.299C406.255 227.092 405.916 226.989 405.513 226.989C405.098 226.989 404.751 227.097 404.474 227.312C404.197 227.528 403.988 227.822 403.847 228.194C403.708 228.567 403.639 228.987 403.639 229.455C403.639 229.929 403.71 230.355 403.851 230.733C403.993 231.112 404.202 231.412 404.479 231.634C404.759 231.852 405.104 231.961 405.513 231.961ZM414.243 233V223.545H420.106V224.773H415.669V227.654H419.686V228.877H415.669V233H414.243ZM421.749 233V225.909H423.13V233H421.749ZM422.446 224.815C422.206 224.815 422 224.735 421.828 224.575C421.658 224.412 421.574 224.218 421.574 223.993C421.574 223.766 421.658 223.572 421.828 223.412C422 223.248 422.206 223.167 422.446 223.167C422.686 223.167 422.891 223.248 423.06 223.412C423.233 223.572 423.319 223.766 423.319 223.993C423.319 224.218 423.233 224.412 423.06 224.575C422.891 224.735 422.686 224.815 422.446 224.815ZM426.367 223.545V233H424.987V223.545H426.367ZM431.534 225.909V227.017H427.661V225.909H431.534ZM428.699 224.21H430.08V230.918C430.08 231.186 430.12 231.387 430.2 231.523C430.28 231.655 430.383 231.746 430.509 231.795C430.638 231.841 430.778 231.864 430.929 231.864C431.04 231.864 431.137 231.857 431.22 231.841C431.303 231.826 431.368 231.814 431.414 231.804L431.663 232.945C431.583 232.975 431.469 233.006 431.321 233.037C431.174 233.071 430.989 233.089 430.767 233.092C430.404 233.098 430.066 233.034 429.752 232.898C429.438 232.763 429.184 232.554 428.99 232.271C428.796 231.987 428.699 231.632 428.699 231.204V224.21ZM436.041 233.143C435.342 233.143 434.74 232.994 434.236 232.695C433.734 232.394 433.346 231.971 433.072 231.426C432.801 230.878 432.666 230.236 432.666 229.501C432.666 228.774 432.801 228.134 433.072 227.58C433.346 227.026 433.728 226.594 434.217 226.283C434.71 225.972 435.285 225.817 435.944 225.817C436.344 225.817 436.732 225.883 437.107 226.015C437.483 226.148 437.82 226.355 438.118 226.638C438.417 226.922 438.652 227.289 438.824 227.742C438.997 228.191 439.083 228.737 439.083 229.381V229.87H433.446V228.836H437.73C437.73 228.473 437.656 228.151 437.509 227.871C437.361 227.588 437.153 227.365 436.885 227.202C436.621 227.039 436.31 226.957 435.953 226.957C435.565 226.957 435.227 227.052 434.937 227.243C434.651 227.431 434.43 227.677 434.273 227.982C434.119 228.283 434.042 228.611 434.042 228.965V229.773C434.042 230.247 434.125 230.65 434.291 230.983C434.46 231.315 434.696 231.569 434.997 231.744C435.299 231.917 435.651 232.003 436.055 232.003C436.316 232.003 436.555 231.966 436.77 231.892C436.985 231.815 437.172 231.701 437.329 231.55C437.486 231.4 437.606 231.213 437.689 230.992L438.995 231.227C438.891 231.612 438.703 231.949 438.432 232.238C438.164 232.525 437.827 232.748 437.421 232.908C437.018 233.065 436.558 233.143 436.041 233.143ZM440.614 233V225.909H441.949V227.036H442.022C442.152 226.654 442.379 226.354 442.706 226.135C443.035 225.914 443.407 225.803 443.823 225.803C443.909 225.803 444.011 225.806 444.128 225.812C444.248 225.818 444.341 225.826 444.409 225.835V227.156C444.354 227.14 444.255 227.123 444.114 227.105C443.972 227.083 443.831 227.072 443.689 227.072C443.363 227.072 443.072 227.142 442.816 227.28C442.564 227.416 442.364 227.605 442.216 227.848C442.069 228.088 441.995 228.362 441.995 228.67V233H440.614Z" fill="#217CF5"/>
<rect x="248.5" y="212.5" width="307" height="31" rx="1.5" stroke="#D8DEE9"/>
<g clip-path="url(#clip0_880_12149)">
<rect x="176" y="125" width="48" height="1" fill="#C54600"/>
<g clip-path="url(#clip1_880_12149)">
<rect x="176" y="113" width="24" height="24" rx="12" fill="#C54600"/>
<path d="M189.183 120.273V129H188.126V121.381H188.075L185.944 122.795V121.722L188.126 120.273H189.183Z" fill="white"/>
</g>
</g>
<g clip-path="url(#clip2_880_12149)">
<rect x="193" y="68" width="48" height="1" fill="#C54600"/>
<g clip-path="url(#clip3_880_12149)">
<rect x="193" y="56" width="24" height="24" rx="12" fill="#C54600"/>
<path d="M202.271 72V71.233L205.151 68.0795C205.489 67.7102 205.768 67.3892 205.987 67.1165C206.205 66.8409 206.367 66.5824 206.472 66.3409C206.58 66.0966 206.634 65.8409 206.634 65.5739C206.634 65.267 206.56 65.0014 206.413 64.777C206.268 64.5526 206.069 64.3793 205.816 64.2571C205.563 64.1349 205.279 64.0739 204.964 64.0739C204.629 64.0739 204.336 64.1435 204.086 64.2827C203.839 64.419 203.647 64.6108 203.511 64.858C203.377 65.1051 203.31 65.3949 203.31 65.7273H202.305C202.305 65.2159 202.423 64.767 202.658 64.3807C202.894 63.9943 203.215 63.6932 203.621 63.4773C204.031 63.2614 204.489 63.1534 204.998 63.1534C205.509 63.1534 205.962 63.2614 206.357 63.4773C206.752 63.6932 207.062 63.9844 207.286 64.3509C207.511 64.7173 207.623 65.125 207.623 65.5739C207.623 65.8949 207.565 66.2088 207.448 66.5156C207.335 66.8196 207.136 67.1591 206.852 67.5341C206.57 67.9062 206.18 68.3608 205.68 68.8977L203.719 70.9943V71.0625H207.776V72H202.271Z" fill="white"/>
</g>
</g>
<g clip-path="url(#clip4_880_12149)">
<rect x="567" y="65" width="48" height="1" fill="#C54600"/>
<g clip-path="url(#clip5_880_12149)">
<rect x="591" y="53" width="24" height="24" rx="12" fill="#C54600"/>
<path d="M603.032 69.1193C602.469 69.1193 601.968 69.0227 601.528 68.8295C601.09 68.6364 600.742 68.3679 600.484 68.0241C600.228 67.6776 600.089 67.2756 600.066 66.8182H601.14C601.163 67.0994 601.259 67.3423 601.43 67.5469C601.6 67.7486 601.823 67.9048 602.099 68.0156C602.374 68.1264 602.68 68.1818 603.015 68.1818C603.39 68.1818 603.722 68.1165 604.012 67.9858C604.302 67.8551 604.529 67.6733 604.694 67.4403C604.859 67.2074 604.941 66.9375 604.941 66.6307C604.941 66.3097 604.862 66.027 604.702 65.7827C604.543 65.5355 604.31 65.3423 604.004 65.2031C603.697 65.0639 603.322 64.9943 602.879 64.9943H602.18V64.0568H602.879C603.225 64.0568 603.529 63.9943 603.79 63.8693C604.055 63.7443 604.261 63.5682 604.408 63.3409C604.559 63.1136 604.634 62.8466 604.634 62.5398C604.634 62.2443 604.569 61.9872 604.438 61.7685C604.308 61.5497 604.123 61.3793 603.884 61.2571C603.648 61.1349 603.37 61.0739 603.049 61.0739C602.748 61.0739 602.464 61.1293 602.197 61.2401C601.933 61.348 601.717 61.5057 601.549 61.7131C601.381 61.9176 601.29 62.1648 601.276 62.4545H600.254C600.271 61.9972 600.408 61.5966 600.667 61.2528C600.925 60.9062 601.263 60.6364 601.681 60.4432C602.102 60.25 602.563 60.1534 603.066 60.1534C603.606 60.1534 604.069 60.2628 604.455 60.4815C604.842 60.6974 605.138 60.983 605.346 61.3381C605.553 61.6932 605.657 62.0767 605.657 62.4886C605.657 62.9801 605.528 63.3991 605.269 63.7457C605.013 64.0923 604.665 64.3324 604.225 64.4659V64.5341C604.776 64.625 605.207 64.8594 605.516 65.2372C605.826 65.6122 605.981 66.0767 605.981 66.6307C605.981 67.1051 605.852 67.5312 605.593 67.9091C605.337 68.2841 604.988 68.5795 604.545 68.7955C604.102 69.0114 603.597 69.1193 603.032 69.1193Z" fill="white"/>
</g>
</g>
<g clip-path="url(#clip6_880_12149)">
<rect x="556" y="172" width="48" height="1" fill="#C54600"/>
<g clip-path="url(#clip7_880_12149)">
<rect x="580" y="160" width="24" height="24" rx="12" fill="#C54600"/>
<path d="M588.849 174.21V173.341L592.684 167.273H593.315V168.619H592.889L589.991 173.205V173.273H595.156V174.21H588.849ZM592.957 176V173.946V173.541V167.273H593.963V176H592.957Z" fill="white"/>
</g>
</g>
<defs>
<filter id="filter0_d_880_12149" x="219" y="29" width="366" height="246" filterUnits="userSpaceOnUse" color-interpolation-filters="sRGB">
<feFlood flood-opacity="0" result="BackgroundImageFix"/>
<feColorMatrix in="SourceAlpha" type="matrix" values="0 0 0 0 0 0 0 0 0 0 0 0 0 0 0 0 0 0 127 0" result="hardAlpha"/>
<feOffset dy="2"/>
<feGaussianBlur stdDeviation="2.5"/>
<feColorMatrix type="matrix" values="0 0 0 0 0 0 0 0 0 0 0 0 0 0 0 0 0 0 0.04 0"/>
<feBlend mode="normal" in2="BackgroundImageFix" result="effect1_dropShadow_880_12149"/>
<feBlend mode="normal" in="SourceGraphic" in2="effect1_dropShadow_880_12149" result="shape"/>
</filter>
<clipPath id="clip0_880_12149">
<rect width="48" height="24" fill="white" transform="translate(176 113)"/>
</clipPath>
<clipPath id="clip1_880_12149">
<rect x="176" y="113" width="24" height="24" rx="12" fill="white"/>
</clipPath>
<clipPath id="clip2_880_12149">
<rect width="48" height="24" fill="white" transform="translate(193 56)"/>
</clipPath>
<clipPath id="clip3_880_12149">
<rect x="193" y="56" width="24" height="24" rx="12" fill="white"/>
</clipPath>
<clipPath id="clip4_880_12149">
<rect width="48" height="24" fill="white" transform="translate(567 53)"/>
</clipPath>
<clipPath id="clip5_880_12149">
<rect x="591" y="53" width="24" height="24" rx="12" fill="white"/>
</clipPath>
<clipPath id="clip6_880_12149">
<rect width="48" height="24" fill="white" transform="translate(556 160)"/>
</clipPath>
<clipPath id="clip7_880_12149">
<rect x="580" y="160" width="24" height="24" rx="12" fill="white"/>
</clipPath>
</defs>
</svg>
