<svg width="804" height="391" viewBox="0 0 804 391" fill="none" xmlns="http://www.w3.org/2000/svg">
<rect width="804" height="391" fill="#F9FAFB"/>
<g filter="url(#filter0_d_880_12337)">
<path d="M224 116H580V352H224V116Z" fill="white"/>
</g>
<path d="M252.099 155H249.039V145.545H252.196C253.123 145.545 253.918 145.735 254.583 146.113C255.248 146.489 255.757 147.029 256.111 147.734C256.468 148.435 256.647 149.277 256.647 150.259C256.647 151.244 256.467 152.09 256.107 152.798C255.75 153.506 255.232 154.051 254.555 154.432C253.878 154.811 253.06 155 252.099 155ZM250.465 153.754H252.021C252.741 153.754 253.34 153.618 253.817 153.347C254.294 153.073 254.651 152.678 254.888 152.161C255.125 151.641 255.243 151.007 255.243 150.259C255.243 149.517 255.125 148.888 254.888 148.371C254.654 147.854 254.305 147.461 253.84 147.194C253.375 146.926 252.798 146.792 252.109 146.792H250.465V153.754ZM261.366 155.143C260.667 155.143 260.066 154.994 259.561 154.695C259.059 154.394 258.671 153.971 258.397 153.426C258.127 152.878 257.991 152.236 257.991 151.501C257.991 150.774 258.127 150.134 258.397 149.58C258.671 149.026 259.053 148.594 259.542 148.283C260.035 147.972 260.61 147.817 261.269 147.817C261.669 147.817 262.057 147.883 262.432 148.015C262.808 148.148 263.145 148.355 263.443 148.638C263.742 148.922 263.977 149.289 264.15 149.742C264.322 150.191 264.408 150.737 264.408 151.381V151.87H258.771V150.836H263.055C263.055 150.473 262.982 150.151 262.834 149.871C262.686 149.588 262.478 149.365 262.211 149.202C261.946 149.039 261.635 148.957 261.278 148.957C260.89 148.957 260.552 149.052 260.263 149.243C259.976 149.431 259.755 149.677 259.598 149.982C259.444 150.283 259.367 150.611 259.367 150.965V151.773C259.367 152.247 259.45 152.65 259.616 152.983C259.785 153.315 260.021 153.569 260.323 153.744C260.624 153.917 260.977 154.003 261.38 154.003C261.641 154.003 261.88 153.966 262.095 153.892C262.311 153.815 262.497 153.701 262.654 153.55C262.811 153.4 262.931 153.213 263.014 152.992L264.32 153.227C264.216 153.612 264.028 153.949 263.757 154.238C263.489 154.525 263.152 154.748 262.746 154.908C262.343 155.065 261.883 155.143 261.366 155.143ZM269.314 147.909V149.017H265.307V147.909H269.314ZM266.406 155V147.087C266.406 146.644 266.503 146.276 266.697 145.984C266.891 145.689 267.148 145.469 267.468 145.324C267.788 145.176 268.136 145.102 268.511 145.102C268.788 145.102 269.025 145.125 269.222 145.172C269.419 145.215 269.565 145.255 269.661 145.292L269.337 146.409C269.273 146.39 269.19 146.369 269.088 146.344C268.987 146.316 268.863 146.303 268.719 146.303C268.383 146.303 268.143 146.386 267.999 146.552C267.857 146.718 267.786 146.958 267.786 147.272V155H266.406ZM272.586 155.157C272.137 155.157 271.731 155.074 271.367 154.908C271.004 154.738 270.717 154.494 270.504 154.174C270.295 153.854 270.19 153.461 270.19 152.996C270.19 152.596 270.267 152.267 270.421 152.009C270.575 151.75 270.783 151.545 271.044 151.395C271.306 151.244 271.598 151.13 271.921 151.053C272.245 150.976 272.574 150.917 272.909 150.877C273.334 150.828 273.679 150.788 273.943 150.757C274.208 150.724 274.4 150.67 274.521 150.596C274.641 150.522 274.701 150.402 274.701 150.236V150.203C274.701 149.8 274.587 149.488 274.359 149.266C274.134 149.045 273.799 148.934 273.353 148.934C272.888 148.934 272.522 149.037 272.254 149.243C271.989 149.446 271.806 149.673 271.704 149.922L270.407 149.626C270.561 149.196 270.786 148.848 271.081 148.583C271.38 148.315 271.723 148.121 272.111 148.001C272.498 147.878 272.906 147.817 273.334 147.817C273.617 147.817 273.917 147.851 274.234 147.918C274.554 147.983 274.853 148.103 275.13 148.278C275.41 148.454 275.639 148.705 275.818 149.031C275.996 149.354 276.085 149.774 276.085 150.291V155H274.737V154.031H274.682C274.593 154.209 274.459 154.384 274.28 154.557C274.102 154.729 273.873 154.872 273.593 154.986C273.313 155.1 272.977 155.157 272.586 155.157ZM272.886 154.049C273.268 154.049 273.594 153.974 273.865 153.823C274.139 153.672 274.347 153.475 274.488 153.232C274.633 152.986 274.705 152.723 274.705 152.442V151.528C274.656 151.578 274.561 151.624 274.419 151.667C274.28 151.707 274.122 151.742 273.943 151.773C273.765 151.801 273.591 151.827 273.422 151.852C273.253 151.873 273.111 151.892 272.997 151.907C272.729 151.941 272.485 151.998 272.263 152.078C272.045 152.158 271.869 152.273 271.737 152.424C271.608 152.572 271.543 152.769 271.543 153.015C271.543 153.357 271.669 153.615 271.921 153.79C272.174 153.963 272.495 154.049 272.886 154.049ZM282.416 152.059V147.909H283.801V155H282.444V153.772H282.37C282.207 154.151 281.945 154.466 281.585 154.718C281.228 154.968 280.783 155.092 280.251 155.092C279.795 155.092 279.392 154.992 279.041 154.792C278.693 154.589 278.42 154.289 278.219 153.892C278.022 153.495 277.924 153.004 277.924 152.419V147.909H279.304V152.253C279.304 152.736 279.438 153.121 279.706 153.407C279.974 153.694 280.321 153.837 280.749 153.837C281.008 153.837 281.265 153.772 281.52 153.643C281.779 153.513 281.993 153.318 282.162 153.056C282.334 152.795 282.419 152.462 282.416 152.059ZM287.036 145.545V155H285.655V145.545H287.036ZM292.203 147.909V149.017H288.33V147.909H292.203ZM289.368 146.21H290.749V152.918C290.749 153.186 290.789 153.387 290.869 153.523C290.949 153.655 291.052 153.746 291.178 153.795C291.307 153.841 291.447 153.864 291.598 153.864C291.709 153.864 291.806 153.857 291.889 153.841C291.972 153.826 292.037 153.814 292.083 153.804L292.332 154.945C292.252 154.975 292.138 155.006 291.99 155.037C291.843 155.071 291.658 155.089 291.436 155.092C291.073 155.098 290.735 155.034 290.421 154.898C290.107 154.763 289.853 154.554 289.659 154.271C289.465 153.987 289.368 153.632 289.368 153.204V146.21ZM297.281 155V145.545H303.144V146.773H298.707V149.654H302.724V150.877H298.707V155H297.281ZM304.787 155V147.909H306.168V155H304.787ZM305.484 146.815C305.244 146.815 305.038 146.735 304.866 146.575C304.696 146.412 304.612 146.218 304.612 145.993C304.612 145.766 304.696 145.572 304.866 145.412C305.038 145.248 305.244 145.167 305.484 145.167C305.724 145.167 305.929 145.248 306.098 145.412C306.271 145.572 306.357 145.766 306.357 145.993C306.357 146.218 306.271 146.412 306.098 146.575C305.929 146.735 305.724 146.815 305.484 146.815ZM309.405 145.545V155H308.025V145.545H309.405ZM314.572 147.909V149.017H310.699V147.909H314.572ZM311.737 146.21H313.118V152.918C313.118 153.186 313.158 153.387 313.238 153.523C313.318 153.655 313.421 153.746 313.547 153.795C313.676 153.841 313.816 153.864 313.967 153.864C314.078 153.864 314.175 153.857 314.258 153.841C314.341 153.826 314.406 153.814 314.452 153.804L314.701 154.945C314.621 154.975 314.507 155.006 314.36 155.037C314.212 155.071 314.027 155.089 313.806 155.092C313.442 155.098 313.104 155.034 312.79 154.898C312.476 154.763 312.222 154.554 312.028 154.271C311.834 153.987 311.737 153.632 311.737 153.204V146.21ZM319.079 155.143C318.38 155.143 317.778 154.994 317.274 154.695C316.772 154.394 316.384 153.971 316.11 153.426C315.84 152.878 315.704 152.236 315.704 151.501C315.704 150.774 315.84 150.134 316.11 149.58C316.384 149.026 316.766 148.594 317.255 148.283C317.748 147.972 318.323 147.817 318.982 147.817C319.382 147.817 319.77 147.883 320.145 148.015C320.521 148.148 320.858 148.355 321.156 148.638C321.455 148.922 321.69 149.289 321.862 149.742C322.035 150.191 322.121 150.737 322.121 151.381V151.87H316.484V150.836H320.768C320.768 150.473 320.695 150.151 320.547 149.871C320.399 149.588 320.191 149.365 319.924 149.202C319.659 149.039 319.348 148.957 318.991 148.957C318.603 148.957 318.265 149.052 317.975 149.243C317.689 149.431 317.468 149.677 317.311 149.982C317.157 150.283 317.08 150.611 317.08 150.965V151.773C317.08 152.247 317.163 152.65 317.329 152.983C317.498 153.315 317.734 153.569 318.035 153.744C318.337 153.917 318.689 154.003 319.093 154.003C319.354 154.003 319.593 153.966 319.808 153.892C320.024 153.815 320.21 153.701 320.367 153.55C320.524 153.4 320.644 153.213 320.727 152.992L322.033 153.227C321.929 153.612 321.741 153.949 321.47 154.238C321.202 154.525 320.865 154.748 320.459 154.908C320.056 155.065 319.596 155.143 319.079 155.143ZM323.653 155V147.909H324.987V149.036H325.061C325.19 148.654 325.418 148.354 325.744 148.135C326.073 147.914 326.445 147.803 326.861 147.803C326.947 147.803 327.049 147.806 327.166 147.812C327.286 147.818 327.38 147.826 327.447 147.835V149.156C327.392 149.14 327.293 149.123 327.152 149.105C327.01 149.083 326.869 149.072 326.727 149.072C326.401 149.072 326.11 149.142 325.855 149.28C325.602 149.416 325.402 149.605 325.254 149.848C325.107 150.088 325.033 150.362 325.033 150.67V155H323.653Z" fill="#1A1A1A"/>
<path fill-rule="evenodd" clip-rule="evenodd" d="M551.59 152.588C551.264 152.913 550.737 152.913 550.411 152.588L546.001 148.177L541.59 152.588C541.264 152.913 540.737 152.913 540.411 152.588C540.086 152.263 540.086 151.735 540.411 151.409L545.411 146.409C545.737 146.084 546.264 146.084 546.59 146.409L551.59 151.409C551.915 151.735 551.915 152.263 551.59 152.588Z" fill="#9E9E9E"/>
<rect x="248.5" y="216.5" width="307" height="31" rx="1.5" fill="white"/>
<path d="M264.062 237H261.145V227.545H264.192C265.109 227.545 265.894 227.735 266.546 228.113C267.199 228.489 267.699 229.029 268.047 229.734C268.394 230.435 268.568 231.276 268.568 232.254C268.568 233.239 268.393 234.087 268.042 234.798C267.691 235.506 267.18 236.051 266.509 236.432C265.838 236.811 265.023 237 264.062 237ZM262.29 235.984H263.989C264.77 235.984 265.418 235.834 265.932 235.532C266.446 235.23 266.829 234.801 267.082 234.244C267.334 233.687 267.46 233.024 267.46 232.254C267.46 231.491 267.336 230.834 267.086 230.283C266.837 229.729 266.465 229.304 265.969 229.009C265.474 228.71 264.857 228.561 264.118 228.561H262.29V235.984ZM272.428 237.166C271.978 237.166 271.57 237.082 271.204 236.912C270.838 236.74 270.547 236.492 270.332 236.169C270.116 235.843 270.009 235.449 270.009 234.987C270.009 234.581 270.089 234.252 270.249 233.999C270.409 233.744 270.623 233.544 270.89 233.399C271.158 233.254 271.453 233.147 271.777 233.076C272.103 233.002 272.431 232.944 272.76 232.901C273.191 232.845 273.54 232.804 273.808 232.776C274.079 232.745 274.276 232.694 274.399 232.624C274.525 232.553 274.588 232.43 274.588 232.254V232.217C274.588 231.762 274.463 231.408 274.214 231.156C273.968 230.903 273.594 230.777 273.092 230.777C272.572 230.777 272.164 230.891 271.869 231.119C271.574 231.346 271.366 231.589 271.246 231.848L270.212 231.479C270.396 231.048 270.643 230.712 270.95 230.472C271.261 230.229 271.6 230.06 271.966 229.964C272.335 229.866 272.698 229.817 273.055 229.817C273.283 229.817 273.545 229.844 273.84 229.9C274.139 229.952 274.426 230.061 274.703 230.228C274.984 230.394 275.216 230.645 275.401 230.98C275.585 231.316 275.678 231.765 275.678 232.328V237H274.588V236.04H274.533C274.459 236.194 274.336 236.358 274.163 236.534C273.991 236.709 273.762 236.858 273.475 236.982C273.189 237.105 272.84 237.166 272.428 237.166ZM272.594 236.188C273.025 236.188 273.388 236.103 273.683 235.934C273.982 235.764 274.206 235.546 274.357 235.278C274.511 235.01 274.588 234.729 274.588 234.433V233.436C274.542 233.491 274.44 233.542 274.283 233.588C274.129 233.632 273.951 233.67 273.748 233.704C273.548 233.735 273.352 233.762 273.162 233.787C272.974 233.808 272.821 233.827 272.705 233.842C272.421 233.879 272.157 233.939 271.911 234.022C271.667 234.102 271.47 234.224 271.32 234.387C271.172 234.547 271.098 234.766 271.098 235.043C271.098 235.421 271.238 235.707 271.518 235.901C271.801 236.092 272.16 236.188 272.594 236.188ZM280.75 229.909V230.832H277.075V229.909H280.75ZM278.146 228.21H279.236V234.969C279.236 235.277 279.28 235.507 279.37 235.661C279.462 235.812 279.579 235.914 279.72 235.966C279.865 236.015 280.017 236.04 280.177 236.04C280.297 236.04 280.396 236.034 280.473 236.021C280.55 236.006 280.611 235.994 280.658 235.984L280.879 236.963C280.805 236.991 280.702 237.018 280.57 237.046C280.438 237.077 280.27 237.092 280.067 237.092C279.759 237.092 279.457 237.026 279.162 236.894C278.869 236.761 278.626 236.56 278.432 236.289C278.242 236.018 278.146 235.677 278.146 235.264V228.21ZM285.286 237.148C284.602 237.148 284.013 236.997 283.517 236.695C283.025 236.391 282.645 235.966 282.377 235.421C282.113 234.873 281.98 234.236 281.98 233.51C281.98 232.784 282.113 232.143 282.377 231.589C282.645 231.032 283.017 230.598 283.494 230.288C283.975 229.974 284.535 229.817 285.175 229.817C285.544 229.817 285.909 229.878 286.269 230.001C286.629 230.125 286.957 230.325 287.252 230.602C287.548 230.875 287.783 231.239 287.959 231.691C288.134 232.143 288.222 232.701 288.222 233.362V233.824H282.756V232.882H287.114C287.114 232.482 287.034 232.125 286.874 231.811C286.717 231.497 286.492 231.249 286.2 231.068C285.91 230.886 285.569 230.795 285.175 230.795C284.741 230.795 284.365 230.903 284.048 231.119C283.734 231.331 283.493 231.608 283.324 231.95C283.154 232.291 283.07 232.657 283.07 233.048V233.676C283.07 234.212 283.162 234.666 283.347 235.038C283.534 235.407 283.794 235.689 284.127 235.883C284.459 236.074 284.845 236.169 285.286 236.169C285.572 236.169 285.83 236.129 286.061 236.049C286.295 235.966 286.497 235.843 286.666 235.68C286.835 235.513 286.966 235.307 287.058 235.061L288.111 235.357C288 235.714 287.814 236.027 287.552 236.298C287.291 236.566 286.968 236.775 286.583 236.926C286.198 237.074 285.766 237.148 285.286 237.148Z" fill="#1F243D"/>
<path d="M318.376 237.999L317.301 236.924L322.251 231.974L317.301 227.024L318.376 225.949L324.401 231.974L318.376 237.999Z" fill="#959BA3"/>
<path d="M345.303 227.545V237H344.158V228.746H344.102L341.794 230.278V229.115L344.158 227.545H345.303ZM351.105 237.129C350.41 237.129 349.817 236.94 349.328 236.561C348.839 236.18 348.465 235.627 348.206 234.904C347.948 234.178 347.819 233.301 347.819 232.273C347.819 231.251 347.948 230.378 348.206 229.655C348.468 228.929 348.843 228.375 349.333 227.993C349.825 227.609 350.416 227.416 351.105 227.416C351.795 227.416 352.384 227.609 352.874 227.993C353.366 228.375 353.741 228.929 354 229.655C354.262 230.378 354.392 231.251 354.392 232.273C354.392 233.301 354.263 234.178 354.005 234.904C353.746 235.627 353.372 236.18 352.883 236.561C352.393 236.94 351.801 237.129 351.105 237.129ZM351.105 236.114C351.795 236.114 352.33 235.781 352.712 235.116C353.094 234.452 353.284 233.504 353.284 232.273C353.284 231.454 353.197 230.757 353.021 230.181C352.849 229.606 352.6 229.167 352.273 228.866C351.95 228.564 351.561 228.413 351.105 228.413C350.422 228.413 349.888 228.75 349.504 229.424C349.119 230.095 348.926 231.045 348.926 232.273C348.926 233.091 349.013 233.787 349.185 234.359C349.357 234.932 349.605 235.367 349.928 235.666C350.254 235.964 350.647 236.114 351.105 236.114ZM359.507 227.102L356.461 238.422H355.463L358.51 227.102H359.507ZM363.864 237.129C363.169 237.129 362.576 236.94 362.087 236.561C361.598 236.18 361.224 235.627 360.965 234.904C360.707 234.178 360.577 233.301 360.577 232.273C360.577 231.251 360.707 230.378 360.965 229.655C361.227 228.929 361.602 228.375 362.092 227.993C362.584 227.609 363.175 227.416 363.864 227.416C364.554 227.416 365.143 227.609 365.632 227.993C366.125 228.375 366.5 228.929 366.759 229.655C367.02 230.378 367.151 231.251 367.151 232.273C367.151 233.301 367.022 234.178 366.763 234.904C366.505 235.627 366.131 236.18 365.642 236.561C365.152 236.94 364.56 237.129 363.864 237.129ZM363.864 236.114C364.554 236.114 365.089 235.781 365.471 235.116C365.852 234.452 366.043 233.504 366.043 232.273C366.043 231.454 365.956 230.757 365.78 230.181C365.608 229.606 365.358 229.167 365.032 228.866C364.709 228.564 364.32 228.413 363.864 228.413C363.181 228.413 362.647 228.75 362.262 229.424C361.878 230.095 361.685 231.045 361.685 232.273C361.685 233.091 361.771 233.787 361.944 234.359C362.116 234.932 362.364 235.367 362.687 235.666C363.013 235.964 363.406 236.114 363.864 236.114ZM371.86 237.129C371.318 237.129 370.831 237.022 370.397 236.806C369.963 236.591 369.615 236.295 369.353 235.92C369.092 235.544 368.949 235.116 368.924 234.636H370.032C370.075 235.064 370.269 235.418 370.614 235.698C370.961 235.975 371.377 236.114 371.86 236.114C372.248 236.114 372.592 236.023 372.894 235.841C373.199 235.66 373.437 235.41 373.61 235.093C373.785 234.773 373.873 234.412 373.873 234.009C373.873 233.596 373.782 233.228 373.6 232.905C373.422 232.579 373.176 232.322 372.862 232.134C372.548 231.946 372.189 231.851 371.786 231.848C371.497 231.845 371.2 231.89 370.895 231.982C370.59 232.071 370.34 232.187 370.143 232.328L369.072 232.199L369.644 227.545H374.556V228.561H370.604L370.272 231.349H370.327C370.521 231.196 370.764 231.068 371.057 230.966C371.349 230.865 371.654 230.814 371.971 230.814C372.549 230.814 373.065 230.952 373.517 231.229C373.973 231.503 374.33 231.879 374.588 232.356C374.85 232.833 374.981 233.378 374.981 233.99C374.981 234.593 374.845 235.132 374.574 235.606C374.307 236.077 373.937 236.449 373.467 236.723C372.996 236.994 372.46 237.129 371.86 237.129ZM380.175 227.102L377.129 238.422H376.131L379.178 227.102H380.175ZM381.448 237V236.169L384.569 232.753C384.935 232.353 385.237 232.005 385.474 231.71C385.711 231.411 385.886 231.131 386 230.869C386.117 230.605 386.176 230.328 386.176 230.038C386.176 229.706 386.096 229.418 385.936 229.175C385.779 228.932 385.563 228.744 385.289 228.612C385.015 228.48 384.708 228.413 384.366 228.413C384.003 228.413 383.686 228.489 383.415 228.64C383.147 228.787 382.94 228.995 382.792 229.263C382.647 229.531 382.575 229.844 382.575 230.205H381.485C381.485 229.651 381.613 229.164 381.869 228.746C382.124 228.327 382.472 228.001 382.912 227.767C383.355 227.533 383.852 227.416 384.403 227.416C384.957 227.416 385.448 227.533 385.876 227.767C386.303 228.001 386.639 228.316 386.882 228.713C387.125 229.11 387.247 229.552 387.247 230.038C387.247 230.386 387.184 230.726 387.057 231.059C386.934 231.388 386.719 231.756 386.411 232.162C386.106 232.565 385.683 233.058 385.142 233.639L383.018 235.911V235.984H387.413V237H381.448ZM392.403 237.129C391.708 237.129 391.115 236.94 390.626 236.561C390.137 236.18 389.763 235.627 389.504 234.904C389.246 234.178 389.116 233.301 389.116 232.273C389.116 231.251 389.246 230.378 389.504 229.655C389.766 228.929 390.141 228.375 390.631 227.993C391.123 227.609 391.714 227.416 392.403 227.416C393.093 227.416 393.682 227.609 394.171 227.993C394.664 228.375 395.039 228.929 395.298 229.655C395.559 230.378 395.69 231.251 395.69 232.273C395.69 233.301 395.561 234.178 395.302 234.904C395.044 235.627 394.67 236.18 394.181 236.561C393.691 236.94 393.099 237.129 392.403 237.129ZM392.403 236.114C393.093 236.114 393.628 235.781 394.01 235.116C394.391 234.452 394.582 233.504 394.582 232.273C394.582 231.454 394.495 230.757 394.319 230.181C394.147 229.606 393.898 229.167 393.571 228.866C393.248 228.564 392.859 228.413 392.403 228.413C391.72 228.413 391.186 228.75 390.801 229.424C390.417 230.095 390.224 231.045 390.224 232.273C390.224 233.091 390.311 233.787 390.483 234.359C390.655 234.932 390.903 235.367 391.226 235.666C391.552 235.964 391.945 236.114 392.403 236.114ZM397.445 237V236.169L400.565 232.753C400.931 232.353 401.233 232.005 401.47 231.71C401.707 231.411 401.882 231.131 401.996 230.869C402.113 230.605 402.172 230.328 402.172 230.038C402.172 229.706 402.092 229.418 401.932 229.175C401.775 228.932 401.559 228.744 401.285 228.612C401.012 228.48 400.704 228.413 400.362 228.413C399.999 228.413 399.682 228.489 399.411 228.64C399.143 228.787 398.936 228.995 398.788 229.263C398.643 229.531 398.571 229.844 398.571 230.205H397.481C397.481 229.651 397.609 229.164 397.865 228.746C398.12 228.327 398.468 228.001 398.908 227.767C399.351 227.533 399.848 227.416 400.399 227.416C400.953 227.416 401.444 227.533 401.872 227.767C402.3 228.001 402.635 228.316 402.878 228.713C403.121 229.11 403.243 229.552 403.243 230.038C403.243 230.386 403.18 230.726 403.054 231.059C402.93 231.388 402.715 231.756 402.407 232.162C402.103 232.565 401.679 233.058 401.138 233.639L399.014 235.911V235.984H403.409V237H397.445ZM408.51 237.129C407.901 237.129 407.358 237.025 406.881 236.815C406.407 236.606 406.03 236.315 405.75 235.943C405.473 235.567 405.322 235.132 405.297 234.636H406.46C406.485 234.941 406.59 235.204 406.774 235.426C406.959 235.644 407.201 235.814 407.499 235.934C407.798 236.054 408.129 236.114 408.492 236.114C408.898 236.114 409.258 236.043 409.572 235.901C409.886 235.76 410.132 235.563 410.311 235.31C410.489 235.058 410.578 234.766 410.578 234.433C410.578 234.085 410.492 233.779 410.32 233.515C410.148 233.247 409.895 233.038 409.563 232.887C409.23 232.736 408.824 232.661 408.344 232.661H407.587V231.645H408.344C408.719 231.645 409.049 231.577 409.332 231.442C409.618 231.306 409.841 231.116 410.001 230.869C410.164 230.623 410.246 230.334 410.246 230.001C410.246 229.681 410.175 229.403 410.034 229.166C409.892 228.929 409.692 228.744 409.434 228.612C409.178 228.48 408.876 228.413 408.529 228.413C408.202 228.413 407.895 228.473 407.605 228.593C407.319 228.71 407.085 228.881 406.904 229.106C406.722 229.327 406.624 229.595 406.608 229.909H405.5C405.519 229.414 405.668 228.98 405.948 228.607C406.228 228.232 406.594 227.939 407.047 227.73C407.502 227.521 408.002 227.416 408.547 227.416C409.132 227.416 409.634 227.535 410.052 227.772C410.471 228.006 410.792 228.315 411.017 228.7C411.242 229.084 411.354 229.5 411.354 229.946C411.354 230.478 411.214 230.932 410.934 231.308C410.657 231.683 410.28 231.943 409.803 232.088V232.162C410.4 232.26 410.866 232.514 411.202 232.924C411.537 233.33 411.705 233.833 411.705 234.433C411.705 234.947 411.565 235.409 411.285 235.818C411.008 236.224 410.629 236.545 410.149 236.778C409.669 237.012 409.123 237.129 408.51 237.129ZM420.573 227.545V237H419.428V228.746H419.373L417.065 230.278V229.115L419.428 227.545H420.573ZM426.616 227.545V237H425.471V228.746H425.416L423.108 230.278V229.115L425.471 227.545H426.616ZM430.148 235.79C429.92 235.79 429.724 235.709 429.561 235.546C429.398 235.383 429.317 235.187 429.317 234.96C429.317 234.732 429.398 234.536 429.561 234.373C429.724 234.21 429.92 234.129 430.148 234.129C430.375 234.129 430.571 234.21 430.734 234.373C430.897 234.536 430.979 234.732 430.979 234.96C430.979 235.11 430.94 235.249 430.863 235.375C430.789 235.501 430.689 235.603 430.563 235.68C430.44 235.754 430.302 235.79 430.148 235.79ZM430.148 231.008C429.92 231.008 429.724 230.926 429.561 230.763C429.398 230.6 429.317 230.405 429.317 230.177C429.317 229.949 429.398 229.754 429.561 229.591C429.724 229.427 429.92 229.346 430.148 229.346C430.375 229.346 430.571 229.427 430.734 229.591C430.897 229.754 430.979 229.949 430.979 230.177C430.979 230.328 430.94 230.466 430.863 230.592C430.789 230.719 430.689 230.82 430.563 230.897C430.44 230.971 430.302 231.008 430.148 231.008ZM432.694 235.061V234.119L436.848 227.545H437.532V229.004H437.07L433.931 233.972V234.045H439.526V235.061H432.694ZM437.144 237V234.775V234.336V227.545H438.233V237H437.144ZM444.211 237.129C443.669 237.129 443.181 237.022 442.747 236.806C442.313 236.591 441.965 236.295 441.704 235.92C441.442 235.544 441.299 235.116 441.275 234.636H442.382C442.426 235.064 442.619 235.418 442.964 235.698C443.312 235.975 443.727 236.114 444.211 236.114C444.598 236.114 444.943 236.023 445.245 235.841C445.549 235.66 445.788 235.41 445.96 235.093C446.136 234.773 446.223 234.412 446.223 234.009C446.223 233.596 446.133 233.228 445.951 232.905C445.772 232.579 445.526 232.322 445.212 232.134C444.898 231.946 444.54 231.851 444.137 231.848C443.847 231.845 443.55 231.89 443.246 231.982C442.941 232.071 442.69 232.187 442.493 232.328L441.422 232.199L441.995 227.545H446.907V228.561H442.955L442.623 231.349H442.678C442.872 231.196 443.115 231.068 443.407 230.966C443.7 230.865 444.004 230.814 444.321 230.814C444.9 230.814 445.415 230.952 445.868 231.229C446.323 231.503 446.68 231.879 446.939 232.356C447.201 232.833 447.331 233.378 447.331 233.99C447.331 234.593 447.196 235.132 446.925 235.606C446.657 236.077 446.288 236.449 445.817 236.723C445.346 236.994 444.811 237.129 444.211 237.129ZM454.927 237.166C454.477 237.166 454.069 237.082 453.703 236.912C453.337 236.74 453.046 236.492 452.831 236.169C452.615 235.843 452.508 235.449 452.508 234.987C452.508 234.581 452.588 234.252 452.748 233.999C452.908 233.744 453.122 233.544 453.389 233.399C453.657 233.254 453.953 233.147 454.276 233.076C454.602 233.002 454.93 232.944 455.259 232.901C455.69 232.845 456.039 232.804 456.307 232.776C456.578 232.745 456.775 232.694 456.898 232.624C457.024 232.553 457.087 232.43 457.087 232.254V232.217C457.087 231.762 456.962 231.408 456.713 231.156C456.467 230.903 456.093 230.777 455.591 230.777C455.071 230.777 454.663 230.891 454.368 231.119C454.073 231.346 453.865 231.589 453.745 231.848L452.711 231.479C452.895 231.048 453.142 230.712 453.449 230.472C453.76 230.229 454.099 230.06 454.465 229.964C454.834 229.866 455.197 229.817 455.554 229.817C455.782 229.817 456.044 229.844 456.339 229.9C456.638 229.952 456.926 230.061 457.203 230.228C457.483 230.394 457.715 230.645 457.9 230.98C458.084 231.316 458.177 231.765 458.177 232.328V237H457.087V236.04H457.032C456.958 236.194 456.835 236.358 456.662 236.534C456.49 236.709 456.261 236.858 455.975 236.982C455.688 237.105 455.339 237.166 454.927 237.166ZM455.093 236.188C455.524 236.188 455.887 236.103 456.182 235.934C456.481 235.764 456.705 235.546 456.856 235.278C457.01 235.01 457.087 234.729 457.087 234.433V233.436C457.041 233.491 456.939 233.542 456.782 233.588C456.629 233.632 456.45 233.67 456.247 233.704C456.047 233.735 455.851 233.762 455.661 233.787C455.473 233.808 455.321 233.827 455.204 233.842C454.92 233.879 454.656 233.939 454.41 234.022C454.166 234.102 453.969 234.224 453.819 234.387C453.671 234.547 453.597 234.766 453.597 235.043C453.597 235.421 453.737 235.707 454.017 235.901C454.3 236.092 454.659 236.188 455.093 236.188ZM460.165 237V229.909H461.218V231.017H461.31C461.458 230.638 461.696 230.345 462.026 230.135C462.355 229.923 462.75 229.817 463.212 229.817C463.68 229.817 464.069 229.923 464.38 230.135C464.694 230.345 464.939 230.638 465.114 231.017H465.188C465.369 230.651 465.642 230.36 466.005 230.145C466.368 229.926 466.804 229.817 467.311 229.817C467.945 229.817 468.464 230.015 468.867 230.412C469.27 230.806 469.472 231.42 469.472 232.254V237H468.382V232.254C468.382 231.731 468.239 231.357 467.953 231.132C467.667 230.908 467.33 230.795 466.942 230.795C466.444 230.795 466.057 230.946 465.783 231.248C465.509 231.546 465.373 231.925 465.373 232.384V237H464.265V232.143C464.265 231.74 464.134 231.416 463.872 231.169C463.611 230.92 463.274 230.795 462.861 230.795C462.578 230.795 462.313 230.871 462.067 231.022C461.824 231.172 461.627 231.382 461.476 231.65C461.328 231.914 461.255 232.22 461.255 232.568V237H460.165ZM479.183 231.765V232.781H475.046V231.765H479.183ZM484.737 237V236.169L487.858 232.753C488.224 232.353 488.526 232.005 488.763 231.71C489 231.411 489.175 231.131 489.289 230.869C489.406 230.605 489.465 230.328 489.465 230.038C489.465 229.706 489.385 229.418 489.225 229.175C489.068 228.932 488.852 228.744 488.578 228.612C488.304 228.48 487.997 228.413 487.655 228.413C487.292 228.413 486.975 228.489 486.704 228.64C486.436 228.787 486.229 228.995 486.081 229.263C485.936 229.531 485.864 229.844 485.864 230.205H484.774C484.774 229.651 484.902 229.164 485.158 228.746C485.413 228.327 485.761 228.001 486.201 227.767C486.644 227.533 487.141 227.416 487.692 227.416C488.246 227.416 488.737 227.533 489.165 227.767C489.592 228.001 489.928 228.316 490.171 228.713C490.414 229.11 490.536 229.552 490.536 230.038C490.536 230.386 490.473 230.726 490.347 231.059C490.223 231.388 490.008 231.756 489.7 232.162C489.396 232.565 488.972 233.058 488.431 233.639L486.307 235.911V235.984H490.702V237H484.737ZM495.692 237.129C494.997 237.129 494.404 236.94 493.915 236.561C493.426 236.18 493.052 235.627 492.793 234.904C492.535 234.178 492.405 233.301 492.405 232.273C492.405 231.251 492.535 230.378 492.793 229.655C493.055 228.929 493.43 228.375 493.92 227.993C494.412 227.609 495.003 227.416 495.692 227.416C496.382 227.416 496.971 227.609 497.46 227.993C497.953 228.375 498.328 228.929 498.587 229.655C498.849 230.378 498.979 231.251 498.979 232.273C498.979 233.301 498.85 234.178 498.592 234.904C498.333 235.627 497.959 236.18 497.47 236.561C496.98 236.94 496.388 237.129 495.692 237.129ZM495.692 236.114C496.382 236.114 496.917 235.781 497.299 235.116C497.681 234.452 497.871 233.504 497.871 232.273C497.871 231.454 497.784 230.757 497.608 230.181C497.436 229.606 497.187 229.167 496.86 228.866C496.537 228.564 496.148 228.413 495.692 228.413C495.009 228.413 494.475 228.75 494.09 229.424C493.706 230.095 493.513 231.045 493.513 232.273C493.513 233.091 493.6 233.787 493.772 234.359C493.944 234.932 494.192 235.367 494.515 235.666C494.841 235.964 495.234 236.114 495.692 236.114ZM504.094 227.102L501.047 238.422H500.05L503.097 227.102H504.094ZM505.659 237.074C505.432 237.074 505.236 236.992 505.073 236.829C504.91 236.666 504.828 236.471 504.828 236.243C504.828 236.015 504.91 235.82 505.073 235.657C505.236 235.493 505.432 235.412 505.659 235.412C505.887 235.412 506.083 235.493 506.246 235.657C506.409 235.82 506.49 236.015 506.49 236.243C506.49 236.394 506.452 236.532 506.375 236.658C506.301 236.785 506.201 236.886 506.075 236.963C505.952 237.037 505.813 237.074 505.659 237.074ZM509.239 237.074C509.012 237.074 508.816 236.992 508.653 236.829C508.49 236.666 508.408 236.471 508.408 236.243C508.408 236.015 508.49 235.82 508.653 235.657C508.816 235.493 509.012 235.412 509.239 235.412C509.467 235.412 509.663 235.493 509.826 235.657C509.989 235.82 510.07 236.015 510.07 236.243C510.07 236.394 510.032 236.532 509.955 236.658C509.881 236.785 509.781 236.886 509.655 236.963C509.532 237.037 509.393 237.074 509.239 237.074ZM512.82 237.074C512.592 237.074 512.396 236.992 512.233 236.829C512.07 236.666 511.989 236.471 511.989 236.243C511.989 236.015 512.07 235.82 512.233 235.657C512.396 235.493 512.592 235.412 512.82 235.412C513.047 235.412 513.243 235.493 513.406 235.657C513.569 235.82 513.65 236.015 513.65 236.243C513.65 236.394 513.612 236.532 513.535 236.658C513.461 236.785 513.361 236.886 513.235 236.963C513.112 237.037 512.973 237.074 512.82 237.074Z" fill="#1F243D"/>
<path d="M544 228.806L543.194 228L540 231.194L536.806 228L536 228.806L539.194 232L536 235.194L536.806 236L540 232.806L543.194 236L544 235.194L540.806 232L544 228.806Z" fill="#959BA3"/>
<rect x="248.5" y="216.5" width="307" height="31" rx="1.5" stroke="#DADFE7"/>
<rect x="248.5" y="256.5" width="307" height="31" rx="1.5" fill="white"/>
<path d="M266.315 269.909C266.26 269.441 266.035 269.078 265.641 268.82C265.247 268.561 264.764 268.432 264.192 268.432C263.773 268.432 263.407 268.5 263.093 268.635C262.782 268.77 262.539 268.957 262.364 269.194C262.191 269.431 262.105 269.7 262.105 270.001C262.105 270.254 262.165 270.471 262.285 270.652C262.408 270.831 262.565 270.98 262.756 271.1C262.947 271.217 263.147 271.314 263.356 271.391C263.565 271.465 263.758 271.525 263.933 271.571L264.893 271.83C265.14 271.894 265.414 271.983 265.715 272.097C266.02 272.211 266.311 272.367 266.588 272.564C266.868 272.757 267.099 273.007 267.28 273.311C267.462 273.616 267.553 273.99 267.553 274.433C267.553 274.944 267.419 275.406 267.151 275.818C266.886 276.231 266.498 276.558 265.988 276.801C265.48 277.045 264.863 277.166 264.136 277.166C263.459 277.166 262.873 277.057 262.377 276.838C261.885 276.62 261.497 276.315 261.214 275.924C260.934 275.533 260.776 275.08 260.739 274.562H261.92C261.951 274.92 262.071 275.215 262.281 275.449C262.493 275.68 262.761 275.852 263.084 275.966C263.41 276.077 263.761 276.132 264.136 276.132C264.573 276.132 264.966 276.061 265.314 275.92C265.661 275.775 265.937 275.575 266.14 275.32C266.343 275.061 266.445 274.759 266.445 274.415C266.445 274.101 266.357 273.845 266.181 273.648C266.006 273.451 265.775 273.291 265.489 273.168C265.203 273.045 264.893 272.937 264.561 272.845L263.398 272.513C262.659 272.3 262.074 271.997 261.643 271.603C261.213 271.209 260.997 270.694 260.997 270.057C260.997 269.527 261.14 269.066 261.426 268.672C261.716 268.275 262.104 267.967 262.59 267.749C263.079 267.527 263.625 267.416 264.229 267.416C264.838 267.416 265.38 267.525 265.854 267.744C266.328 267.959 266.703 268.255 266.98 268.63C267.26 269.006 267.408 269.432 267.423 269.909H266.315ZM272.371 269.909V270.832H268.696V269.909H272.371ZM269.767 268.21H270.857V274.969C270.857 275.277 270.901 275.507 270.991 275.661C271.083 275.812 271.2 275.914 271.342 275.966C271.486 276.015 271.639 276.04 271.799 276.04C271.919 276.04 272.017 276.034 272.094 276.021C272.171 276.006 272.233 275.994 272.279 275.984L272.5 276.963C272.426 276.991 272.323 277.018 272.191 277.046C272.059 277.077 271.891 277.092 271.688 277.092C271.38 277.092 271.078 277.026 270.783 276.894C270.491 276.761 270.247 276.56 270.054 276.289C269.863 276.018 269.767 275.677 269.767 275.264V268.21ZM276.097 277.166C275.647 277.166 275.239 277.082 274.873 276.912C274.507 276.74 274.216 276.492 274.001 276.169C273.785 275.843 273.677 275.449 273.677 274.987C273.677 274.581 273.757 274.252 273.918 273.999C274.078 273.744 274.291 273.544 274.559 273.399C274.827 273.254 275.122 273.147 275.446 273.076C275.772 273.002 276.1 272.944 276.429 272.901C276.86 272.845 277.209 272.804 277.477 272.776C277.748 272.745 277.945 272.694 278.068 272.624C278.194 272.553 278.257 272.43 278.257 272.254V272.217C278.257 271.762 278.132 271.408 277.883 271.156C277.637 270.903 277.263 270.777 276.761 270.777C276.241 270.777 275.833 270.891 275.538 271.119C275.242 271.346 275.035 271.589 274.915 271.848L273.881 271.479C274.065 271.048 274.311 270.712 274.619 270.472C274.93 270.229 275.269 270.06 275.635 269.964C276.004 269.866 276.367 269.817 276.724 269.817C276.952 269.817 277.214 269.844 277.509 269.9C277.808 269.952 278.095 270.061 278.372 270.228C278.652 270.394 278.885 270.645 279.07 270.98C279.254 271.316 279.347 271.765 279.347 272.328V277H278.257V276.04H278.202C278.128 276.194 278.005 276.358 277.832 276.534C277.66 276.709 277.431 276.858 277.144 276.982C276.858 277.105 276.509 277.166 276.097 277.166ZM276.263 276.188C276.694 276.188 277.057 276.103 277.352 275.934C277.651 275.764 277.875 275.546 278.026 275.278C278.18 275.01 278.257 274.729 278.257 274.433V273.436C278.211 273.491 278.109 273.542 277.952 273.588C277.798 273.632 277.62 273.67 277.417 273.704C277.217 273.735 277.021 273.762 276.831 273.787C276.643 273.808 276.49 273.827 276.373 273.842C276.09 273.879 275.826 273.939 275.579 274.022C275.336 274.102 275.139 274.224 274.989 274.387C274.841 274.547 274.767 274.766 274.767 275.043C274.767 275.421 274.907 275.707 275.187 275.901C275.47 276.092 275.829 276.188 276.263 276.188ZM284.419 269.909V270.832H280.744V269.909H284.419ZM281.815 268.21H282.905V274.969C282.905 275.277 282.949 275.507 283.039 275.661C283.131 275.812 283.248 275.914 283.389 275.966C283.534 276.015 283.686 276.04 283.846 276.04C283.966 276.04 284.065 276.034 284.142 276.021C284.219 276.006 284.28 275.994 284.327 275.984L284.548 276.963C284.474 276.991 284.371 277.018 284.239 277.046C284.106 277.077 283.939 277.092 283.736 277.092C283.428 277.092 283.126 277.026 282.831 276.894C282.538 276.761 282.295 276.56 282.101 276.289C281.911 276.018 281.815 275.677 281.815 275.264V268.21ZM290.526 274.101V269.909H291.616V277H290.526V275.8H290.453C290.286 276.16 290.028 276.466 289.677 276.718C289.326 276.968 288.883 277.092 288.347 277.092C287.904 277.092 287.51 276.995 287.166 276.801C286.821 276.605 286.55 276.309 286.353 275.915C286.156 275.518 286.058 275.018 286.058 274.415V269.909H287.147V274.341C287.147 274.858 287.292 275.27 287.581 275.578C287.874 275.886 288.246 276.04 288.698 276.04C288.969 276.04 289.245 275.971 289.525 275.832C289.808 275.694 290.045 275.481 290.236 275.195C290.43 274.909 290.526 274.544 290.526 274.101ZM298.634 271.497L297.655 271.774C297.594 271.611 297.503 271.453 297.383 271.299C297.266 271.142 297.106 271.012 296.903 270.911C296.7 270.809 296.44 270.759 296.123 270.759C295.689 270.759 295.327 270.859 295.038 271.059C294.752 271.256 294.609 271.506 294.609 271.811C294.609 272.082 294.707 272.296 294.904 272.453C295.101 272.61 295.409 272.741 295.827 272.845L296.88 273.104C297.514 273.258 297.986 273.493 298.297 273.81C298.608 274.124 298.763 274.529 298.763 275.024C298.763 275.43 298.646 275.794 298.413 276.114C298.182 276.434 297.859 276.686 297.443 276.871C297.028 277.055 296.544 277.148 295.994 277.148C295.27 277.148 294.672 276.991 294.198 276.677C293.724 276.363 293.424 275.904 293.297 275.301L294.332 275.043C294.43 275.424 294.616 275.71 294.89 275.901C295.167 276.092 295.529 276.188 295.975 276.188C296.483 276.188 296.886 276.08 297.185 275.864C297.486 275.646 297.637 275.384 297.637 275.08C297.637 274.833 297.551 274.627 297.378 274.461C297.206 274.292 296.941 274.165 296.584 274.082L295.403 273.805C294.753 273.652 294.276 273.413 293.972 273.09C293.67 272.764 293.519 272.356 293.519 271.866C293.519 271.466 293.631 271.112 293.856 270.805C294.084 270.497 294.393 270.255 294.784 270.08C295.178 269.904 295.624 269.817 296.123 269.817C296.824 269.817 297.375 269.971 297.775 270.278C298.179 270.586 298.465 270.992 298.634 271.497Z" fill="#1F243D"/>
<path d="M318.376 277.999L317.301 276.924L322.251 271.974L317.301 267.024L318.376 265.949L324.401 271.974L318.376 277.999Z" fill="#959BA3"/>
<path d="M343.29 267.545V277H342.145V267.545H343.29ZM346.527 272.734V277H345.438V269.909H346.49V271.017H346.582C346.749 270.657 347.001 270.368 347.34 270.149C347.678 269.928 348.115 269.817 348.651 269.817C349.131 269.817 349.551 269.915 349.911 270.112C350.271 270.306 350.551 270.602 350.751 270.999C350.951 271.393 351.051 271.891 351.051 272.494V277H349.962V272.568C349.962 272.011 349.817 271.577 349.528 271.266C349.238 270.952 348.841 270.795 348.337 270.795C347.989 270.795 347.678 270.871 347.404 271.022C347.133 271.172 346.919 271.393 346.763 271.682C346.606 271.971 346.527 272.322 346.527 272.734ZM356.846 277V267.545H360.041C360.782 267.545 361.389 267.679 361.86 267.947C362.334 268.212 362.684 268.57 362.912 269.023C363.14 269.475 363.254 269.98 363.254 270.537C363.254 271.094 363.14 271.6 362.912 272.056C362.687 272.511 362.34 272.874 361.869 273.145C361.398 273.413 360.795 273.547 360.059 273.547H357.769V272.531H360.022C360.53 272.531 360.938 272.444 361.246 272.268C361.553 272.093 361.776 271.856 361.915 271.557C362.057 271.256 362.127 270.915 362.127 270.537C362.127 270.158 362.057 269.82 361.915 269.521C361.776 269.223 361.552 268.989 361.241 268.82C360.93 268.647 360.518 268.561 360.004 268.561H357.991V277H356.846ZM364.95 277V269.909H366.003V270.98H366.077C366.206 270.629 366.44 270.345 366.778 270.126C367.117 269.908 367.499 269.798 367.923 269.798C368.003 269.798 368.103 269.8 368.223 269.803C368.343 269.806 368.434 269.811 368.496 269.817V270.925C368.459 270.915 368.374 270.902 368.242 270.883C368.113 270.862 367.976 270.851 367.831 270.851C367.486 270.851 367.179 270.923 366.908 271.068C366.64 271.209 366.428 271.406 366.271 271.659C366.117 271.908 366.04 272.193 366.04 272.513V277H364.95ZM372.452 277.148C371.812 277.148 371.25 276.995 370.767 276.691C370.287 276.386 369.911 275.96 369.641 275.412C369.373 274.864 369.239 274.224 369.239 273.491C369.239 272.753 369.373 272.108 369.641 271.557C369.911 271.006 370.287 270.578 370.767 270.274C371.25 269.969 371.812 269.817 372.452 269.817C373.092 269.817 373.652 269.969 374.132 270.274C374.616 270.578 374.991 271.006 375.259 271.557C375.53 272.108 375.665 272.753 375.665 273.491C375.665 274.224 375.53 274.864 375.259 275.412C374.991 275.96 374.616 276.386 374.132 276.691C373.652 276.995 373.092 277.148 372.452 277.148ZM372.452 276.169C372.938 276.169 373.338 276.044 373.652 275.795C373.966 275.546 374.199 275.218 374.349 274.812C374.5 274.406 374.576 273.965 374.576 273.491C374.576 273.018 374.5 272.576 374.349 272.167C374.199 271.757 373.966 271.426 373.652 271.174C373.338 270.922 372.938 270.795 372.452 270.795C371.966 270.795 371.566 270.922 371.252 271.174C370.938 271.426 370.705 271.757 370.555 272.167C370.404 272.576 370.328 273.018 370.328 273.491C370.328 273.965 370.404 274.406 370.555 274.812C370.705 275.218 370.938 275.546 371.252 275.795C371.566 276.044 371.966 276.169 372.452 276.169ZM380.19 279.807C379.664 279.807 379.212 279.739 378.833 279.604C378.455 279.471 378.139 279.296 377.887 279.077C377.638 278.862 377.439 278.631 377.291 278.385L378.159 277.776C378.258 277.905 378.382 278.053 378.533 278.219C378.684 278.388 378.89 278.534 379.152 278.657C379.416 278.783 379.763 278.847 380.19 278.847C380.763 278.847 381.235 278.708 381.608 278.431C381.98 278.154 382.166 277.72 382.166 277.129V275.689H382.074C381.994 275.818 381.88 275.978 381.732 276.169C381.588 276.357 381.378 276.525 381.104 276.672C380.834 276.817 380.467 276.889 380.006 276.889C379.433 276.889 378.919 276.754 378.464 276.483C378.011 276.212 377.653 275.818 377.388 275.301C377.127 274.784 376.996 274.156 376.996 273.418C376.996 272.691 377.124 272.059 377.379 271.52C377.634 270.979 377.99 270.56 378.445 270.265C378.901 269.966 379.427 269.817 380.024 269.817C380.486 269.817 380.852 269.894 381.123 270.048C381.397 270.198 381.606 270.371 381.751 270.565C381.899 270.755 382.012 270.912 382.092 271.036H382.203V269.909H383.256V277.203C383.256 277.812 383.117 278.308 382.84 278.69C382.566 279.074 382.197 279.356 381.732 279.534C381.271 279.716 380.757 279.807 380.19 279.807ZM380.153 275.911C380.591 275.911 380.96 275.81 381.261 275.61C381.563 275.41 381.792 275.123 381.949 274.747C382.106 274.372 382.185 273.922 382.185 273.399C382.185 272.888 382.108 272.437 381.954 272.047C381.8 271.656 381.572 271.349 381.271 271.128C380.969 270.906 380.597 270.795 380.153 270.795C379.692 270.795 379.307 270.912 378.999 271.146C378.695 271.38 378.465 271.694 378.312 272.088C378.161 272.482 378.085 272.919 378.085 273.399C378.085 273.892 378.162 274.327 378.316 274.706C378.473 275.081 378.704 275.377 379.009 275.592C379.316 275.804 379.698 275.911 380.153 275.911ZM385.25 277V269.909H386.303V270.98H386.377C386.506 270.629 386.74 270.345 387.078 270.126C387.417 269.908 387.798 269.798 388.223 269.798C388.303 269.798 388.403 269.8 388.523 269.803C388.643 269.806 388.734 269.811 388.796 269.817V270.925C388.759 270.915 388.674 270.902 388.542 270.883C388.412 270.862 388.275 270.851 388.131 270.851C387.786 270.851 387.478 270.923 387.207 271.068C386.94 271.209 386.727 271.406 386.57 271.659C386.417 271.908 386.34 272.193 386.34 272.513V277H385.25ZM392.844 277.148C392.161 277.148 391.572 276.997 391.076 276.695C390.584 276.391 390.204 275.966 389.936 275.421C389.671 274.873 389.539 274.236 389.539 273.51C389.539 272.784 389.671 272.143 389.936 271.589C390.204 271.032 390.576 270.598 391.053 270.288C391.533 269.974 392.093 269.817 392.733 269.817C393.103 269.817 393.467 269.878 393.828 270.001C394.188 270.125 394.515 270.325 394.811 270.602C395.106 270.875 395.342 271.239 395.517 271.691C395.693 272.143 395.78 272.701 395.78 273.362V273.824H390.314V272.882H394.672C394.672 272.482 394.592 272.125 394.432 271.811C394.275 271.497 394.051 271.249 393.758 271.068C393.469 270.886 393.127 270.795 392.733 270.795C392.299 270.795 391.924 270.903 391.607 271.119C391.293 271.331 391.051 271.608 390.882 271.95C390.713 272.291 390.628 272.657 390.628 273.048V273.676C390.628 274.212 390.721 274.666 390.905 275.038C391.093 275.407 391.353 275.689 391.685 275.883C392.018 276.074 392.404 276.169 392.844 276.169C393.13 276.169 393.389 276.129 393.62 276.049C393.854 275.966 394.055 275.843 394.225 275.68C394.394 275.513 394.525 275.307 394.617 275.061L395.669 275.357C395.559 275.714 395.372 276.027 395.111 276.298C394.849 276.566 394.526 276.775 394.141 276.926C393.757 277.074 393.324 277.148 392.844 277.148ZM402.46 271.497L401.482 271.774C401.42 271.611 401.329 271.453 401.209 271.299C401.092 271.142 400.932 271.012 400.729 270.911C400.526 270.809 400.266 270.759 399.949 270.759C399.515 270.759 399.153 270.859 398.864 271.059C398.578 271.256 398.435 271.506 398.435 271.811C398.435 272.082 398.533 272.296 398.73 272.453C398.927 272.61 399.235 272.741 399.653 272.845L400.706 273.104C401.34 273.258 401.812 273.493 402.123 273.81C402.434 274.124 402.59 274.529 402.59 275.024C402.59 275.43 402.473 275.794 402.239 276.114C402.008 276.434 401.685 276.686 401.269 276.871C400.854 277.055 400.371 277.148 399.82 277.148C399.096 277.148 398.498 276.991 398.024 276.677C397.55 276.363 397.25 275.904 397.124 275.301L398.158 275.043C398.256 275.424 398.442 275.71 398.716 275.901C398.993 276.092 399.355 276.188 399.801 276.188C400.309 276.188 400.712 276.08 401.011 275.864C401.312 275.646 401.463 275.384 401.463 275.08C401.463 274.833 401.377 274.627 401.205 274.461C401.032 274.292 400.768 274.165 400.411 274.082L399.229 273.805C398.579 273.652 398.102 273.413 397.798 273.09C397.496 272.764 397.345 272.356 397.345 271.866C397.345 271.466 397.458 271.112 397.682 270.805C397.91 270.497 398.219 270.255 398.61 270.08C399.004 269.904 399.45 269.817 399.949 269.817C400.651 269.817 401.202 269.971 401.602 270.278C402.005 270.586 402.291 270.992 402.46 271.497ZM409.252 271.497L408.274 271.774C408.212 271.611 408.121 271.453 408.001 271.299C407.884 271.142 407.724 271.012 407.521 270.911C407.318 270.809 407.058 270.759 406.741 270.759C406.307 270.759 405.945 270.859 405.656 271.059C405.37 271.256 405.227 271.506 405.227 271.811C405.227 272.082 405.325 272.296 405.522 272.453C405.719 272.61 406.027 272.741 406.445 272.845L407.498 273.104C408.132 273.258 408.604 273.493 408.915 273.81C409.226 274.124 409.382 274.529 409.382 275.024C409.382 275.43 409.265 275.794 409.031 276.114C408.8 276.434 408.477 276.686 408.061 276.871C407.646 277.055 407.163 277.148 406.612 277.148C405.888 277.148 405.29 276.991 404.816 276.677C404.342 276.363 404.042 275.904 403.916 275.301L404.95 275.043C405.048 275.424 405.234 275.71 405.508 275.901C405.785 276.092 406.147 276.188 406.593 276.188C407.101 276.188 407.504 276.08 407.803 275.864C408.104 275.646 408.255 275.384 408.255 275.08C408.255 274.833 408.169 274.627 407.997 274.461C407.824 274.292 407.56 274.165 407.203 274.082L406.021 273.805C405.371 273.652 404.894 273.413 404.59 273.09C404.288 272.764 404.137 272.356 404.137 271.866C404.137 271.466 404.25 271.112 404.474 270.805C404.702 270.497 405.011 270.255 405.402 270.08C405.796 269.904 406.242 269.817 406.741 269.817C407.443 269.817 407.994 269.971 408.394 270.278C408.797 270.586 409.083 270.992 409.252 271.497Z" fill="#1F243D"/>
<path d="M544 268.806L543.194 268L540 271.194L536.806 268L536 268.806L539.194 272L536 275.194L536.806 276L540 272.806L543.194 276L544 275.194L540.806 272L544 268.806Z" fill="#959BA3"/>
<rect x="248.5" y="256.5" width="307" height="31" rx="1.5" stroke="#DADFE7"/>
<rect x="248.5" y="176.5" width="307" height="31" rx="1.5" fill="white"/>
<path d="M266.315 189.909C266.26 189.441 266.035 189.078 265.641 188.82C265.247 188.561 264.764 188.432 264.192 188.432C263.773 188.432 263.407 188.5 263.093 188.635C262.782 188.77 262.539 188.957 262.364 189.194C262.191 189.431 262.105 189.7 262.105 190.001C262.105 190.254 262.165 190.471 262.285 190.652C262.408 190.831 262.565 190.98 262.756 191.1C262.947 191.217 263.147 191.314 263.356 191.391C263.565 191.465 263.758 191.525 263.933 191.571L264.893 191.83C265.14 191.894 265.414 191.983 265.715 192.097C266.02 192.211 266.311 192.367 266.588 192.564C266.868 192.757 267.099 193.007 267.28 193.311C267.462 193.616 267.553 193.99 267.553 194.433C267.553 194.944 267.419 195.406 267.151 195.818C266.886 196.231 266.498 196.558 265.988 196.801C265.48 197.045 264.863 197.166 264.136 197.166C263.459 197.166 262.873 197.057 262.377 196.838C261.885 196.62 261.497 196.315 261.214 195.924C260.934 195.533 260.776 195.08 260.739 194.562H261.92C261.951 194.92 262.071 195.215 262.281 195.449C262.493 195.68 262.761 195.852 263.084 195.966C263.41 196.077 263.761 196.132 264.136 196.132C264.573 196.132 264.966 196.061 265.314 195.92C265.661 195.775 265.937 195.575 266.14 195.32C266.343 195.061 266.445 194.759 266.445 194.415C266.445 194.101 266.357 193.845 266.181 193.648C266.006 193.451 265.775 193.291 265.489 193.168C265.203 193.045 264.893 192.937 264.561 192.845L263.398 192.513C262.659 192.3 262.074 191.997 261.643 191.603C261.213 191.209 260.997 190.694 260.997 190.057C260.997 189.527 261.14 189.066 261.426 188.672C261.716 188.275 262.104 187.967 262.59 187.749C263.079 187.527 263.625 187.416 264.229 187.416C264.838 187.416 265.38 187.525 265.854 187.744C266.328 187.959 266.703 188.255 266.98 188.63C267.26 189.006 267.408 189.432 267.423 189.909H266.315ZM272.371 189.909V190.832H268.696V189.909H272.371ZM269.767 188.21H270.857V194.969C270.857 195.277 270.901 195.507 270.991 195.661C271.083 195.812 271.2 195.914 271.342 195.966C271.486 196.015 271.639 196.04 271.799 196.04C271.919 196.04 272.017 196.034 272.094 196.021C272.171 196.006 272.233 195.994 272.279 195.984L272.5 196.963C272.426 196.991 272.323 197.018 272.191 197.046C272.059 197.077 271.891 197.092 271.688 197.092C271.38 197.092 271.078 197.026 270.783 196.894C270.491 196.761 270.247 196.56 270.054 196.289C269.863 196.018 269.767 195.677 269.767 195.264V188.21ZM276.097 197.166C275.647 197.166 275.239 197.082 274.873 196.912C274.507 196.74 274.216 196.492 274.001 196.169C273.785 195.843 273.677 195.449 273.677 194.987C273.677 194.581 273.757 194.252 273.918 193.999C274.078 193.744 274.291 193.544 274.559 193.399C274.827 193.254 275.122 193.147 275.446 193.076C275.772 193.002 276.1 192.944 276.429 192.901C276.86 192.845 277.209 192.804 277.477 192.776C277.748 192.745 277.945 192.694 278.068 192.624C278.194 192.553 278.257 192.43 278.257 192.254V192.217C278.257 191.762 278.132 191.408 277.883 191.156C277.637 190.903 277.263 190.777 276.761 190.777C276.241 190.777 275.833 190.891 275.538 191.119C275.242 191.346 275.035 191.589 274.915 191.848L273.881 191.479C274.065 191.048 274.311 190.712 274.619 190.472C274.93 190.229 275.269 190.06 275.635 189.964C276.004 189.866 276.367 189.817 276.724 189.817C276.952 189.817 277.214 189.844 277.509 189.9C277.808 189.952 278.095 190.061 278.372 190.228C278.652 190.394 278.885 190.645 279.07 190.98C279.254 191.316 279.347 191.765 279.347 192.328V197H278.257V196.04H278.202C278.128 196.194 278.005 196.358 277.832 196.534C277.66 196.709 277.431 196.858 277.144 196.982C276.858 197.105 276.509 197.166 276.097 197.166ZM276.263 196.188C276.694 196.188 277.057 196.103 277.352 195.934C277.651 195.764 277.875 195.546 278.026 195.278C278.18 195.01 278.257 194.729 278.257 194.433V193.436C278.211 193.491 278.109 193.542 277.952 193.588C277.798 193.632 277.62 193.67 277.417 193.704C277.217 193.735 277.021 193.762 276.831 193.787C276.643 193.808 276.49 193.827 276.373 193.842C276.09 193.879 275.826 193.939 275.579 194.022C275.336 194.102 275.139 194.224 274.989 194.387C274.841 194.547 274.767 194.766 274.767 195.043C274.767 195.421 274.907 195.707 275.187 195.901C275.47 196.092 275.829 196.188 276.263 196.188ZM284.419 189.909V190.832H280.744V189.909H284.419ZM281.815 188.21H282.905V194.969C282.905 195.277 282.949 195.507 283.039 195.661C283.131 195.812 283.248 195.914 283.389 195.966C283.534 196.015 283.686 196.04 283.846 196.04C283.966 196.04 284.065 196.034 284.142 196.021C284.219 196.006 284.28 195.994 284.327 195.984L284.548 196.963C284.474 196.991 284.371 197.018 284.239 197.046C284.106 197.077 283.939 197.092 283.736 197.092C283.428 197.092 283.126 197.026 282.831 196.894C282.538 196.761 282.295 196.56 282.101 196.289C281.911 196.018 281.815 195.677 281.815 195.264V188.21ZM290.526 194.101V189.909H291.616V197H290.526V195.8H290.453C290.286 196.16 290.028 196.466 289.677 196.718C289.326 196.968 288.883 197.092 288.347 197.092C287.904 197.092 287.51 196.995 287.166 196.801C286.821 196.605 286.55 196.309 286.353 195.915C286.156 195.518 286.058 195.018 286.058 194.415V189.909H287.147V194.341C287.147 194.858 287.292 195.27 287.581 195.578C287.874 195.886 288.246 196.04 288.698 196.04C288.969 196.04 289.245 195.971 289.525 195.832C289.808 195.694 290.045 195.481 290.236 195.195C290.43 194.909 290.526 194.544 290.526 194.101ZM298.634 191.497L297.655 191.774C297.594 191.611 297.503 191.453 297.383 191.299C297.266 191.142 297.106 191.012 296.903 190.911C296.7 190.809 296.44 190.759 296.123 190.759C295.689 190.759 295.327 190.859 295.038 191.059C294.752 191.256 294.609 191.506 294.609 191.811C294.609 192.082 294.707 192.296 294.904 192.453C295.101 192.61 295.409 192.741 295.827 192.845L296.88 193.104C297.514 193.258 297.986 193.493 298.297 193.81C298.608 194.124 298.763 194.529 298.763 195.024C298.763 195.43 298.646 195.794 298.413 196.114C298.182 196.434 297.859 196.686 297.443 196.871C297.028 197.055 296.544 197.148 295.994 197.148C295.27 197.148 294.672 196.991 294.198 196.677C293.724 196.363 293.424 195.904 293.297 195.301L294.332 195.043C294.43 195.424 294.616 195.71 294.89 195.901C295.167 196.092 295.529 196.188 295.975 196.188C296.483 196.188 296.886 196.08 297.185 195.864C297.486 195.646 297.637 195.384 297.637 195.08C297.637 194.833 297.551 194.627 297.378 194.461C297.206 194.292 296.941 194.165 296.584 194.082L295.403 193.805C294.753 193.652 294.276 193.413 293.972 193.09C293.67 192.764 293.519 192.356 293.519 191.866C293.519 191.466 293.631 191.112 293.856 190.805C294.084 190.497 294.393 190.255 294.784 190.08C295.178 189.904 295.624 189.817 296.123 189.817C296.824 189.817 297.375 189.971 297.775 190.278C298.179 190.586 298.465 190.992 298.634 191.497Z" fill="#1F243D"/>
<path d="M318.376 197.999L317.301 196.924L322.251 191.974L317.301 187.024L318.376 185.949L324.401 191.974L318.376 197.999Z" fill="#959BA3"/>
<path d="M343.29 187.545V197H342.145V187.545H343.29ZM346.527 192.734V197H345.438V189.909H346.49V191.017H346.582C346.749 190.657 347.001 190.368 347.34 190.149C347.678 189.928 348.115 189.817 348.651 189.817C349.131 189.817 349.551 189.915 349.911 190.112C350.271 190.306 350.551 190.602 350.751 190.999C350.951 191.393 351.051 191.891 351.051 192.494V197H349.962V192.568C349.962 192.011 349.817 191.577 349.528 191.266C349.238 190.952 348.841 190.795 348.337 190.795C347.989 190.795 347.678 190.871 347.404 191.022C347.133 191.172 346.919 191.393 346.763 191.682C346.606 191.971 346.527 192.322 346.527 192.734ZM356.846 197V187.545H360.041C360.782 187.545 361.389 187.679 361.86 187.947C362.334 188.212 362.684 188.57 362.912 189.023C363.14 189.475 363.254 189.98 363.254 190.537C363.254 191.094 363.14 191.6 362.912 192.056C362.687 192.511 362.34 192.874 361.869 193.145C361.398 193.413 360.795 193.547 360.059 193.547H357.769V192.531H360.022C360.53 192.531 360.938 192.444 361.246 192.268C361.553 192.093 361.776 191.856 361.915 191.557C362.057 191.256 362.127 190.915 362.127 190.537C362.127 190.158 362.057 189.82 361.915 189.521C361.776 189.223 361.552 188.989 361.241 188.82C360.93 188.647 360.518 188.561 360.004 188.561H357.991V197H356.846ZM364.95 197V189.909H366.003V190.98H366.077C366.206 190.629 366.44 190.345 366.778 190.126C367.117 189.908 367.499 189.798 367.923 189.798C368.003 189.798 368.103 189.8 368.223 189.803C368.343 189.806 368.434 189.811 368.496 189.817V190.925C368.459 190.915 368.374 190.902 368.242 190.883C368.113 190.862 367.976 190.851 367.831 190.851C367.486 190.851 367.179 190.923 366.908 191.068C366.64 191.209 366.428 191.406 366.271 191.659C366.117 191.908 366.04 192.193 366.04 192.513V197H364.95ZM372.452 197.148C371.812 197.148 371.25 196.995 370.767 196.691C370.287 196.386 369.911 195.96 369.641 195.412C369.373 194.864 369.239 194.224 369.239 193.491C369.239 192.753 369.373 192.108 369.641 191.557C369.911 191.006 370.287 190.578 370.767 190.274C371.25 189.969 371.812 189.817 372.452 189.817C373.092 189.817 373.652 189.969 374.132 190.274C374.616 190.578 374.991 191.006 375.259 191.557C375.53 192.108 375.665 192.753 375.665 193.491C375.665 194.224 375.53 194.864 375.259 195.412C374.991 195.96 374.616 196.386 374.132 196.691C373.652 196.995 373.092 197.148 372.452 197.148ZM372.452 196.169C372.938 196.169 373.338 196.044 373.652 195.795C373.966 195.546 374.199 195.218 374.349 194.812C374.5 194.406 374.576 193.965 374.576 193.491C374.576 193.018 374.5 192.576 374.349 192.167C374.199 191.757 373.966 191.426 373.652 191.174C373.338 190.922 372.938 190.795 372.452 190.795C371.966 190.795 371.566 190.922 371.252 191.174C370.938 191.426 370.705 191.757 370.555 192.167C370.404 192.576 370.328 193.018 370.328 193.491C370.328 193.965 370.404 194.406 370.555 194.812C370.705 195.218 370.938 195.546 371.252 195.795C371.566 196.044 371.966 196.169 372.452 196.169ZM380.19 199.807C379.664 199.807 379.212 199.739 378.833 199.604C378.455 199.471 378.139 199.296 377.887 199.077C377.638 198.862 377.439 198.631 377.291 198.385L378.159 197.776C378.258 197.905 378.382 198.053 378.533 198.219C378.684 198.388 378.89 198.534 379.152 198.657C379.416 198.783 379.763 198.847 380.19 198.847C380.763 198.847 381.235 198.708 381.608 198.431C381.98 198.154 382.166 197.72 382.166 197.129V195.689H382.074C381.994 195.818 381.88 195.978 381.732 196.169C381.588 196.357 381.378 196.525 381.104 196.672C380.834 196.817 380.467 196.889 380.006 196.889C379.433 196.889 378.919 196.754 378.464 196.483C378.011 196.212 377.653 195.818 377.388 195.301C377.127 194.784 376.996 194.156 376.996 193.418C376.996 192.691 377.124 192.059 377.379 191.52C377.634 190.979 377.99 190.56 378.445 190.265C378.901 189.966 379.427 189.817 380.024 189.817C380.486 189.817 380.852 189.894 381.123 190.048C381.397 190.198 381.606 190.371 381.751 190.565C381.899 190.755 382.012 190.912 382.092 191.036H382.203V189.909H383.256V197.203C383.256 197.812 383.117 198.308 382.84 198.69C382.566 199.074 382.197 199.356 381.732 199.534C381.271 199.716 380.757 199.807 380.19 199.807ZM380.153 195.911C380.591 195.911 380.96 195.81 381.261 195.61C381.563 195.41 381.792 195.123 381.949 194.747C382.106 194.372 382.185 193.922 382.185 193.399C382.185 192.888 382.108 192.437 381.954 192.047C381.8 191.656 381.572 191.349 381.271 191.128C380.969 190.906 380.597 190.795 380.153 190.795C379.692 190.795 379.307 190.912 378.999 191.146C378.695 191.38 378.465 191.694 378.312 192.088C378.161 192.482 378.085 192.919 378.085 193.399C378.085 193.892 378.162 194.327 378.316 194.706C378.473 195.081 378.704 195.377 379.009 195.592C379.316 195.804 379.698 195.911 380.153 195.911ZM385.25 197V189.909H386.303V190.98H386.377C386.506 190.629 386.74 190.345 387.078 190.126C387.417 189.908 387.798 189.798 388.223 189.798C388.303 189.798 388.403 189.8 388.523 189.803C388.643 189.806 388.734 189.811 388.796 189.817V190.925C388.759 190.915 388.674 190.902 388.542 190.883C388.412 190.862 388.275 190.851 388.131 190.851C387.786 190.851 387.478 190.923 387.207 191.068C386.94 191.209 386.727 191.406 386.57 191.659C386.417 191.908 386.34 192.193 386.34 192.513V197H385.25ZM392.844 197.148C392.161 197.148 391.572 196.997 391.076 196.695C390.584 196.391 390.204 195.966 389.936 195.421C389.671 194.873 389.539 194.236 389.539 193.51C389.539 192.784 389.671 192.143 389.936 191.589C390.204 191.032 390.576 190.598 391.053 190.288C391.533 189.974 392.093 189.817 392.733 189.817C393.103 189.817 393.467 189.878 393.828 190.001C394.188 190.125 394.515 190.325 394.811 190.602C395.106 190.875 395.342 191.239 395.517 191.691C395.693 192.143 395.78 192.701 395.78 193.362V193.824H390.314V192.882H394.672C394.672 192.482 394.592 192.125 394.432 191.811C394.275 191.497 394.051 191.249 393.758 191.068C393.469 190.886 393.127 190.795 392.733 190.795C392.299 190.795 391.924 190.903 391.607 191.119C391.293 191.331 391.051 191.608 390.882 191.95C390.713 192.291 390.628 192.657 390.628 193.048V193.676C390.628 194.212 390.721 194.666 390.905 195.038C391.093 195.407 391.353 195.689 391.685 195.883C392.018 196.074 392.404 196.169 392.844 196.169C393.13 196.169 393.389 196.129 393.62 196.049C393.854 195.966 394.055 195.843 394.225 195.68C394.394 195.513 394.525 195.307 394.617 195.061L395.669 195.357C395.559 195.714 395.372 196.027 395.111 196.298C394.849 196.566 394.526 196.775 394.141 196.926C393.757 197.074 393.324 197.148 392.844 197.148ZM402.46 191.497L401.482 191.774C401.42 191.611 401.329 191.453 401.209 191.299C401.092 191.142 400.932 191.012 400.729 190.911C400.526 190.809 400.266 190.759 399.949 190.759C399.515 190.759 399.153 190.859 398.864 191.059C398.578 191.256 398.435 191.506 398.435 191.811C398.435 192.082 398.533 192.296 398.73 192.453C398.927 192.61 399.235 192.741 399.653 192.845L400.706 193.104C401.34 193.258 401.812 193.493 402.123 193.81C402.434 194.124 402.59 194.529 402.59 195.024C402.59 195.43 402.473 195.794 402.239 196.114C402.008 196.434 401.685 196.686 401.269 196.871C400.854 197.055 400.371 197.148 399.82 197.148C399.096 197.148 398.498 196.991 398.024 196.677C397.55 196.363 397.25 195.904 397.124 195.301L398.158 195.043C398.256 195.424 398.442 195.71 398.716 195.901C398.993 196.092 399.355 196.188 399.801 196.188C400.309 196.188 400.712 196.08 401.011 195.864C401.312 195.646 401.463 195.384 401.463 195.08C401.463 194.833 401.377 194.627 401.205 194.461C401.032 194.292 400.768 194.165 400.411 194.082L399.229 193.805C398.579 193.652 398.102 193.413 397.798 193.09C397.496 192.764 397.345 192.356 397.345 191.866C397.345 191.466 397.458 191.112 397.682 190.805C397.91 190.497 398.219 190.255 398.61 190.08C399.004 189.904 399.45 189.817 399.949 189.817C400.651 189.817 401.202 189.971 401.602 190.278C402.005 190.586 402.291 190.992 402.46 191.497ZM409.252 191.497L408.274 191.774C408.212 191.611 408.121 191.453 408.001 191.299C407.884 191.142 407.724 191.012 407.521 190.911C407.318 190.809 407.058 190.759 406.741 190.759C406.307 190.759 405.945 190.859 405.656 191.059C405.37 191.256 405.227 191.506 405.227 191.811C405.227 192.082 405.325 192.296 405.522 192.453C405.719 192.61 406.027 192.741 406.445 192.845L407.498 193.104C408.132 193.258 408.604 193.493 408.915 193.81C409.226 194.124 409.382 194.529 409.382 195.024C409.382 195.43 409.265 195.794 409.031 196.114C408.8 196.434 408.477 196.686 408.061 196.871C407.646 197.055 407.163 197.148 406.612 197.148C405.888 197.148 405.29 196.991 404.816 196.677C404.342 196.363 404.042 195.904 403.916 195.301L404.95 195.043C405.048 195.424 405.234 195.71 405.508 195.901C405.785 196.092 406.147 196.188 406.593 196.188C407.101 196.188 407.504 196.08 407.803 195.864C408.104 195.646 408.255 195.384 408.255 195.08C408.255 194.833 408.169 194.627 407.997 194.461C407.824 194.292 407.56 194.165 407.203 194.082L406.021 193.805C405.371 193.652 404.894 193.413 404.59 193.09C404.288 192.764 404.137 192.356 404.137 191.866C404.137 191.466 404.25 191.112 404.474 190.805C404.702 190.497 405.011 190.255 405.402 190.08C405.796 189.904 406.242 189.817 406.741 189.817C407.443 189.817 407.994 189.971 408.394 190.278C408.797 190.586 409.083 190.992 409.252 191.497Z" fill="#1F243D"/>
<path d="M544 188.806L543.194 188L540 191.194L536.806 188L536 188.806L539.194 192L536 195.194L536.806 196L540 192.806L543.194 196L544 195.194L540.806 192L544 188.806Z" fill="#959BA3"/>
<rect x="248.5" y="176.5" width="307" height="31" rx="1.5" stroke="#DADFE7"/>
<rect x="248.5" y="296.5" width="307" height="31" rx="1.5" fill="white"/>
<path fill-rule="evenodd" clip-rule="evenodd" d="M367.5 306C367.914 306 368.25 306.336 368.25 306.75V311.25H372.75C373.164 311.25 373.5 311.586 373.5 312C373.5 312.414 373.164 312.75 372.75 312.75H368.25V317.25C368.25 317.664 367.914 318 367.5 318C367.086 318 366.75 317.664 366.75 317.25V312.75H362.25C361.836 312.75 361.5 312.414 361.5 312C361.5 311.586 361.836 311.25 362.25 311.25H366.75V306.75C366.75 306.336 367.086 306 367.5 306Z" fill="#217CF5"/>
<path d="M386.337 317H384.823L388.225 307.545H389.874L393.276 317H391.762L389.089 309.263H389.015L386.337 317ZM386.591 313.298H391.503V314.498H386.591V313.298ZM397.071 317.138C396.498 317.138 395.987 316.992 395.538 316.7C395.092 316.404 394.741 315.984 394.485 315.44C394.233 314.892 394.107 314.235 394.107 313.468C394.107 312.702 394.235 312.047 394.49 311.502C394.749 310.957 395.103 310.54 395.552 310.251C396.001 309.961 396.511 309.817 397.08 309.817C397.52 309.817 397.874 309.891 398.142 310.038C398.413 310.183 398.622 310.352 398.77 310.546C398.92 310.74 399.037 310.911 399.12 311.059H399.203V307.545H400.584V317H399.236V315.897H399.12C399.037 316.047 398.917 316.22 398.76 316.414C398.606 316.608 398.394 316.777 398.123 316.922C397.852 317.066 397.502 317.138 397.071 317.138ZM397.375 315.961C397.772 315.961 398.108 315.857 398.382 315.647C398.659 315.435 398.868 315.141 399.01 314.766C399.154 314.39 399.227 313.953 399.227 313.455C399.227 312.962 399.156 312.531 399.014 312.162C398.873 311.793 398.665 311.505 398.391 311.299C398.117 311.092 397.779 310.989 397.375 310.989C396.96 310.989 396.614 311.097 396.337 311.312C396.06 311.528 395.85 311.822 395.709 312.194C395.57 312.567 395.501 312.987 395.501 313.455C395.501 313.929 395.572 314.355 395.713 314.733C395.855 315.112 396.064 315.412 396.341 315.634C396.621 315.852 396.966 315.961 397.375 315.961ZM405.208 317.138C404.636 317.138 404.125 316.992 403.676 316.7C403.229 316.404 402.879 315.984 402.623 315.44C402.371 314.892 402.245 314.235 402.245 313.468C402.245 312.702 402.372 312.047 402.628 311.502C402.886 310.957 403.24 310.54 403.69 310.251C404.139 309.961 404.648 309.817 405.218 309.817C405.658 309.817 406.012 309.891 406.279 310.038C406.55 310.183 406.759 310.352 406.907 310.546C407.058 310.74 407.175 310.911 407.258 311.059H407.341V307.545H408.722V317H407.373V315.897H407.258C407.175 316.047 407.055 316.22 406.898 316.414C406.744 316.608 406.532 316.777 406.261 316.922C405.99 317.066 405.639 317.138 405.208 317.138ZM405.513 315.961C405.91 315.961 406.246 315.857 406.519 315.647C406.796 315.435 407.006 315.141 407.147 314.766C407.292 314.39 407.364 313.953 407.364 313.455C407.364 312.962 407.293 312.531 407.152 312.162C407.01 311.793 406.803 311.505 406.529 311.299C406.255 311.092 405.916 310.989 405.513 310.989C405.098 310.989 404.751 311.097 404.474 311.312C404.197 311.528 403.988 311.822 403.847 312.194C403.708 312.567 403.639 312.987 403.639 313.455C403.639 313.929 403.71 314.355 403.851 314.733C403.993 315.112 404.202 315.412 404.479 315.634C404.759 315.852 405.104 315.961 405.513 315.961ZM414.243 317V307.545H420.106V308.773H415.669V311.654H419.686V312.877H415.669V317H414.243ZM421.749 317V309.909H423.13V317H421.749ZM422.446 308.815C422.206 308.815 422 308.735 421.828 308.575C421.658 308.412 421.574 308.218 421.574 307.993C421.574 307.766 421.658 307.572 421.828 307.412C422 307.248 422.206 307.167 422.446 307.167C422.686 307.167 422.891 307.248 423.06 307.412C423.233 307.572 423.319 307.766 423.319 307.993C423.319 308.218 423.233 308.412 423.06 308.575C422.891 308.735 422.686 308.815 422.446 308.815ZM426.367 307.545V317H424.987V307.545H426.367ZM431.534 309.909V311.017H427.661V309.909H431.534ZM428.699 308.21H430.08V314.918C430.08 315.186 430.12 315.387 430.2 315.523C430.28 315.655 430.383 315.746 430.509 315.795C430.638 315.841 430.778 315.864 430.929 315.864C431.04 315.864 431.137 315.857 431.22 315.841C431.303 315.826 431.368 315.814 431.414 315.804L431.663 316.945C431.583 316.975 431.469 317.006 431.321 317.037C431.174 317.071 430.989 317.089 430.767 317.092C430.404 317.098 430.066 317.034 429.752 316.898C429.438 316.763 429.184 316.554 428.99 316.271C428.796 315.987 428.699 315.632 428.699 315.204V308.21ZM436.041 317.143C435.342 317.143 434.74 316.994 434.236 316.695C433.734 316.394 433.346 315.971 433.072 315.426C432.801 314.878 432.666 314.236 432.666 313.501C432.666 312.774 432.801 312.134 433.072 311.58C433.346 311.026 433.728 310.594 434.217 310.283C434.71 309.972 435.285 309.817 435.944 309.817C436.344 309.817 436.732 309.883 437.107 310.015C437.483 310.148 437.82 310.355 438.118 310.638C438.417 310.922 438.652 311.289 438.824 311.742C438.997 312.191 439.083 312.737 439.083 313.381V313.87H433.446V312.836H437.73C437.73 312.473 437.656 312.151 437.509 311.871C437.361 311.588 437.153 311.365 436.885 311.202C436.621 311.039 436.31 310.957 435.953 310.957C435.565 310.957 435.227 311.052 434.937 311.243C434.651 311.431 434.43 311.677 434.273 311.982C434.119 312.283 434.042 312.611 434.042 312.965V313.773C434.042 314.247 434.125 314.65 434.291 314.983C434.46 315.315 434.696 315.569 434.997 315.744C435.299 315.917 435.651 316.003 436.055 316.003C436.316 316.003 436.555 315.966 436.77 315.892C436.985 315.815 437.172 315.701 437.329 315.55C437.486 315.4 437.606 315.213 437.689 314.992L438.995 315.227C438.891 315.612 438.703 315.949 438.432 316.238C438.164 316.525 437.827 316.748 437.421 316.908C437.018 317.065 436.558 317.143 436.041 317.143ZM440.614 317V309.909H441.949V311.036H442.022C442.152 310.654 442.379 310.354 442.706 310.135C443.035 309.914 443.407 309.803 443.823 309.803C443.909 309.803 444.011 309.806 444.128 309.812C444.248 309.818 444.341 309.826 444.409 309.835V311.156C444.354 311.14 444.255 311.123 444.114 311.105C443.972 311.083 443.831 311.072 443.689 311.072C443.363 311.072 443.072 311.142 442.816 311.28C442.564 311.416 442.364 311.605 442.216 311.848C442.069 312.088 441.995 312.362 441.995 312.67V317H440.614Z" fill="#217CF5"/>
<rect x="248.5" y="296.5" width="307" height="31" rx="1.5" stroke="#D8DEE9"/>
<g filter="url(#filter1_d_880_12337)">
<path d="M224 39H580V95H224V39Z" fill="white"/>
</g>
<path d="M252.099 71H249.039V61.5455H252.196C253.123 61.5455 253.918 61.7347 254.583 62.1133C255.248 62.4888 255.757 63.0289 256.111 63.7337C256.468 64.4354 256.647 65.2771 256.647 66.2589C256.647 67.2437 256.467 68.0901 256.107 68.7979C255.75 69.5058 255.232 70.0505 254.555 70.4322C253.878 70.8107 253.06 71 252.099 71ZM250.465 69.7536H252.021C252.741 69.7536 253.34 69.6181 253.817 69.3473C254.294 69.0734 254.651 68.6779 254.888 68.1609C255.125 67.6407 255.243 67.0067 255.243 66.2589C255.243 65.5172 255.125 64.8878 254.888 64.3707C254.654 63.8537 254.305 63.4613 253.84 63.1935C253.375 62.9258 252.798 62.7919 252.109 62.7919H250.465V69.7536ZM261.366 71.1431C260.667 71.1431 260.066 70.9938 259.561 70.6953C259.059 70.3937 258.671 69.9705 258.397 69.4258C258.127 68.878 257.991 68.2363 257.991 67.5007C257.991 66.7744 258.127 66.1342 258.397 65.5803C258.671 65.0263 259.053 64.5939 259.542 64.283C260.035 63.9722 260.61 63.8168 261.269 63.8168C261.669 63.8168 262.057 63.8829 262.432 64.0153C262.808 64.1476 263.145 64.3554 263.443 64.6385C263.742 64.9216 263.977 65.2894 264.15 65.7418C264.322 66.1912 264.408 66.7375 264.408 67.3807V67.87H258.771V66.8359H263.055C263.055 66.4728 262.982 66.1512 262.834 65.8711C262.686 65.5879 262.478 65.3648 262.211 65.2017C261.946 65.0386 261.635 64.957 261.278 64.957C260.89 64.957 260.552 65.0524 260.263 65.2433C259.976 65.431 259.755 65.6772 259.598 65.9819C259.444 66.2835 259.367 66.6113 259.367 66.9652V67.7731C259.367 68.247 259.45 68.6502 259.616 68.9826C259.785 69.315 260.021 69.5689 260.323 69.7443C260.624 69.9167 260.977 70.0028 261.38 70.0028C261.641 70.0028 261.88 69.9659 262.095 69.892C262.311 69.8151 262.497 69.7012 262.654 69.5504C262.811 69.3996 262.931 69.2134 263.014 68.9918L264.32 69.2273C264.216 69.612 264.028 69.949 263.757 70.2383C263.489 70.5245 263.152 70.7476 262.746 70.9077C262.343 71.0646 261.883 71.1431 261.366 71.1431ZM269.314 63.9091V65.017H265.307V63.9091H269.314ZM266.406 71V63.0874C266.406 62.6442 266.503 62.2764 266.697 61.984C266.891 61.6886 267.148 61.4685 267.468 61.3239C267.788 61.1761 268.136 61.1023 268.511 61.1023C268.788 61.1023 269.025 61.1254 269.222 61.1715C269.419 61.2146 269.565 61.2546 269.661 61.2915L269.337 62.4087C269.273 62.3903 269.19 62.3687 269.088 62.3441C268.987 62.3164 268.863 62.3026 268.719 62.3026C268.383 62.3026 268.143 62.3857 267.999 62.5518C267.857 62.718 267.786 62.9581 267.786 63.272V71H266.406ZM272.586 71.157C272.137 71.157 271.731 71.0739 271.367 70.9077C271.004 70.7384 270.717 70.4937 270.504 70.1737C270.295 69.8536 270.19 69.4612 270.19 68.9964C270.19 68.5964 270.267 68.267 270.421 68.0085C270.575 67.75 270.783 67.5453 271.044 67.3945C271.306 67.2437 271.598 67.1299 271.921 67.0529C272.245 66.976 272.574 66.9175 272.909 66.8775C273.334 66.8282 273.679 66.7882 273.943 66.7575C274.208 66.7236 274.4 66.6697 274.521 66.5959C274.641 66.522 274.701 66.402 274.701 66.2358V66.2035C274.701 65.8003 274.587 65.4879 274.359 65.2663C274.134 65.0447 273.799 64.9339 273.353 64.9339C272.888 64.9339 272.522 65.037 272.254 65.2433C271.989 65.4464 271.806 65.6726 271.704 65.9219L270.407 65.6264C270.561 65.1955 270.786 64.8478 271.081 64.5831C271.38 64.3153 271.723 64.1214 272.111 64.0014C272.498 63.8783 272.906 63.8168 273.334 63.8168C273.617 63.8168 273.917 63.8506 274.234 63.9183C274.554 63.983 274.853 64.103 275.13 64.2784C275.41 64.4538 275.639 64.7047 275.818 65.0309C275.996 65.354 276.085 65.7741 276.085 66.2912V71H274.737V70.0305H274.682C274.593 70.209 274.459 70.3845 274.28 70.5568C274.102 70.7292 273.873 70.8723 273.593 70.9862C273.313 71.1 272.977 71.157 272.586 71.157ZM272.886 70.049C273.268 70.049 273.594 69.9736 273.865 69.8228C274.139 69.672 274.347 69.475 274.488 69.2319C274.633 68.9857 274.705 68.7225 274.705 68.4425V67.5284C274.656 67.5777 274.561 67.6238 274.419 67.6669C274.28 67.7069 274.122 67.7423 273.943 67.7731C273.765 67.8008 273.591 67.8269 273.422 67.8516C273.253 67.8731 273.111 67.8916 272.997 67.907C272.729 67.9408 272.485 67.9978 272.263 68.0778C272.045 68.1578 271.869 68.2732 271.737 68.424C271.608 68.5717 271.543 68.7687 271.543 69.0149C271.543 69.3565 271.669 69.6151 271.921 69.7905C272.174 69.9628 272.495 70.049 272.886 70.049ZM282.416 68.0593V63.9091H283.801V71H282.444V69.772H282.37C282.207 70.1506 281.945 70.466 281.585 70.7184C281.228 70.9677 280.783 71.0923 280.251 71.0923C279.795 71.0923 279.392 70.9923 279.041 70.7923C278.693 70.5891 278.42 70.2891 278.219 69.892C278.022 69.495 277.924 69.0041 277.924 68.4194V63.9091H279.304V68.2532C279.304 68.7364 279.438 69.1211 279.706 69.4073C279.974 69.6935 280.321 69.8366 280.749 69.8366C281.008 69.8366 281.265 69.772 281.52 69.6428C281.779 69.5135 281.993 69.3181 282.162 69.0565C282.334 68.7949 282.419 68.4625 282.416 68.0593ZM287.036 61.5455V71H285.655V61.5455H287.036ZM292.203 63.9091V65.017H288.33V63.9091H292.203ZM289.368 62.2102H290.749V68.918C290.749 69.1857 290.789 69.3873 290.869 69.5227C290.949 69.6551 291.052 69.7459 291.178 69.7951C291.307 69.8413 291.447 69.8643 291.598 69.8643C291.709 69.8643 291.806 69.8567 291.889 69.8413C291.972 69.8259 292.037 69.8136 292.083 69.8043L292.332 70.9446C292.252 70.9754 292.138 71.0062 291.99 71.0369C291.843 71.0708 291.658 71.0893 291.436 71.0923C291.073 71.0985 290.735 71.0339 290.421 70.8984C290.107 70.763 289.853 70.5537 289.659 70.2706C289.465 69.9875 289.368 69.632 289.368 69.2042V62.2102ZM297.281 71V61.5455H303.144V62.7734H298.707V65.6541H302.724V66.8775H298.707V71H297.281ZM304.787 71V63.9091H306.168V71H304.787ZM305.484 62.815C305.244 62.815 305.038 62.735 304.866 62.5749C304.696 62.4118 304.612 62.2179 304.612 61.9933C304.612 61.7655 304.696 61.5716 304.866 61.4116C305.038 61.2485 305.244 61.1669 305.484 61.1669C305.724 61.1669 305.929 61.2485 306.098 61.4116C306.271 61.5716 306.357 61.7655 306.357 61.9933C306.357 62.2179 306.271 62.4118 306.098 62.5749C305.929 62.735 305.724 62.815 305.484 62.815ZM309.405 61.5455V71H308.025V61.5455H309.405ZM314.572 63.9091V65.017H310.699V63.9091H314.572ZM311.737 62.2102H313.118V68.918C313.118 69.1857 313.158 69.3873 313.238 69.5227C313.318 69.6551 313.421 69.7459 313.547 69.7951C313.676 69.8413 313.816 69.8643 313.967 69.8643C314.078 69.8643 314.175 69.8567 314.258 69.8413C314.341 69.8259 314.406 69.8136 314.452 69.8043L314.701 70.9446C314.621 70.9754 314.507 71.0062 314.36 71.0369C314.212 71.0708 314.027 71.0893 313.806 71.0923C313.442 71.0985 313.104 71.0339 312.79 70.8984C312.476 70.763 312.222 70.5537 312.028 70.2706C311.834 69.9875 311.737 69.632 311.737 69.2042V62.2102ZM319.079 71.1431C318.38 71.1431 317.778 70.9938 317.274 70.6953C316.772 70.3937 316.384 69.9705 316.11 69.4258C315.84 68.878 315.704 68.2363 315.704 67.5007C315.704 66.7744 315.84 66.1342 316.11 65.5803C316.384 65.0263 316.766 64.5939 317.255 64.283C317.748 63.9722 318.323 63.8168 318.982 63.8168C319.382 63.8168 319.77 63.8829 320.145 64.0153C320.521 64.1476 320.858 64.3554 321.156 64.6385C321.455 64.9216 321.69 65.2894 321.862 65.7418C322.035 66.1912 322.121 66.7375 322.121 67.3807V67.87H316.484V66.8359H320.768C320.768 66.4728 320.695 66.1512 320.547 65.8711C320.399 65.5879 320.191 65.3648 319.924 65.2017C319.659 65.0386 319.348 64.957 318.991 64.957C318.603 64.957 318.265 65.0524 317.975 65.2433C317.689 65.431 317.468 65.6772 317.311 65.9819C317.157 66.2835 317.08 66.6113 317.08 66.9652V67.7731C317.08 68.247 317.163 68.6502 317.329 68.9826C317.498 69.315 317.734 69.5689 318.035 69.7443C318.337 69.9167 318.689 70.0028 319.093 70.0028C319.354 70.0028 319.593 69.9659 319.808 69.892C320.024 69.8151 320.21 69.7012 320.367 69.5504C320.524 69.3996 320.644 69.2134 320.727 68.9918L322.033 69.2273C321.929 69.612 321.741 69.949 321.47 70.2383C321.202 70.5245 320.865 70.7476 320.459 70.9077C320.056 71.0646 319.596 71.1431 319.079 71.1431ZM323.653 71V63.9091H324.987V65.0355H325.061C325.19 64.6539 325.418 64.3538 325.744 64.1353C326.073 63.9137 326.445 63.8029 326.861 63.8029C326.947 63.8029 327.049 63.806 327.166 63.8121C327.286 63.8183 327.38 63.826 327.447 63.8352V65.1555C327.392 65.1402 327.293 65.1232 327.152 65.1048C327.01 65.0832 326.869 65.0724 326.727 65.0724C326.401 65.0724 326.11 65.1417 325.855 65.2802C325.602 65.4156 325.402 65.6049 325.254 65.848C325.107 66.0881 325.033 66.362 325.033 66.6697V71H323.653Z" fill="#1A1A1A"/>
<path fill-rule="evenodd" clip-rule="evenodd" d="M540.412 62.4081C540.737 62.0827 541.265 62.0827 541.591 62.4081L546.001 66.8189L550.412 62.4081C550.737 62.0827 551.265 62.0827 551.591 62.4081C551.916 62.7336 551.916 63.2612 551.591 63.5867L546.591 68.5867C546.265 68.9121 545.737 68.9121 545.412 68.5867L540.412 63.5867C540.087 63.2612 540.087 62.7336 540.412 62.4081Z" fill="#9E9E9E"/>
<g filter="url(#filter2_d_880_12337)">
<path fill-rule="evenodd" clip-rule="evenodd" d="M554.143 101.393C553.56 100.603 552.851 98.9873 551.589 97.0265C550.874 95.9174 549.101 93.829 548.573 92.7683C548.115 91.8308 548.164 91.4105 548.273 90.6336C548.466 89.2516 549.789 88.1755 551.201 88.3207C552.267 88.4286 553.172 89.1834 553.985 89.8964C554.476 90.3255 555.08 91.1596 555.444 91.6305C555.779 92.0619 555.861 92.2401 556.219 92.7507C556.691 93.4263 556.839 93.7608 556.658 93.0169C556.513 91.9254 556.274 90.0615 555.929 88.4132C555.666 87.1632 555.602 86.9673 555.352 86.0078C555.087 84.9867 554.951 84.2715 554.702 83.1888C554.53 82.423 554.219 80.8583 554.135 79.978C554.018 78.7743 553.956 76.8113 554.678 75.909C555.243 75.2026 556.539 74.9891 557.343 75.4249C558.395 75.9948 558.993 77.6321 559.266 78.2857C559.757 79.4609 560.061 80.8187 560.326 82.6012C560.663 84.8701 561.284 88.0192 561.304 88.6816C561.354 87.8696 561.164 86.1597 561.296 85.3806C561.415 84.6742 561.97 83.8534 562.664 83.6311C563.252 83.4441 563.94 83.3758 564.547 83.5101C565.19 83.6509 565.868 84.1439 566.121 84.6082C566.864 85.9814 566.879 88.7873 566.91 88.6376C567.086 87.8102 567.055 85.933 567.493 85.1518C567.781 84.6368 568.514 84.1725 568.905 84.0977C569.509 83.9832 570.251 83.948 570.886 84.0801C571.397 84.1879 572.09 84.8393 572.277 85.1518C572.725 85.9088 572.979 88.0501 573.055 88.8005C573.086 89.1108 573.207 87.9378 573.657 87.1808C574.492 85.7746 577.444 85.5017 577.557 88.587C577.609 90.0262 577.598 89.9602 577.598 90.9285C577.598 92.0663 577.574 92.7507 577.516 93.5737C577.452 94.454 577.276 96.4434 577.019 97.4073C576.842 98.0697 576.257 99.5595 575.679 100.453C575.679 100.453 573.472 103.204 573.232 104.443C572.99 105.68 573.07 105.688 573.022 106.566C572.975 107.442 573.271 108.595 573.271 108.595C573.271 108.595 571.623 108.824 570.736 108.672C569.932 108.534 568.938 106.822 568.681 106.298C568.327 105.576 567.573 105.715 567.279 106.247C566.817 107.09 565.823 108.602 565.12 108.697C563.747 108.882 560.899 108.765 558.67 108.741C558.67 108.741 559.05 106.516 558.204 105.752C557.577 105.182 556.498 104.027 555.853 103.419L554.143 101.393Z" fill="white"/>
<path fill-rule="evenodd" clip-rule="evenodd" d="M554.143 101.393C553.56 100.603 552.851 98.9873 551.589 97.0265C550.874 95.9174 549.101 93.829 548.573 92.7683C548.115 91.8308 548.164 91.4105 548.273 90.6336C548.466 89.2516 549.789 88.1755 551.201 88.3207C552.267 88.4286 553.172 89.1834 553.985 89.8964C554.476 90.3255 555.08 91.1596 555.444 91.6305C555.779 92.0619 555.861 92.2401 556.219 92.7507C556.691 93.4263 556.839 93.7608 556.658 93.0169C556.513 91.9254 556.274 90.0615 555.929 88.4132C555.666 87.1632 555.602 86.9673 555.352 86.0078C555.087 84.9867 554.951 84.2715 554.702 83.1888C554.53 82.423 554.219 80.8583 554.135 79.978C554.018 78.7743 553.956 76.8113 554.678 75.909C555.243 75.2026 556.539 74.9891 557.343 75.4249C558.395 75.9948 558.993 77.6321 559.266 78.2857C559.757 79.4609 560.061 80.8187 560.326 82.6012C560.663 84.8701 561.284 88.0192 561.304 88.6816C561.354 87.8696 561.164 86.1597 561.296 85.3806C561.415 84.6742 561.97 83.8534 562.664 83.6311C563.252 83.4441 563.94 83.3758 564.547 83.5101C565.19 83.6509 565.868 84.1439 566.121 84.6082C566.864 85.9814 566.879 88.7873 566.91 88.6376C567.086 87.8102 567.055 85.933 567.493 85.1518C567.781 84.6368 568.514 84.1725 568.905 84.0977C569.509 83.9832 570.251 83.948 570.886 84.0801C571.397 84.1879 572.09 84.8393 572.277 85.1518C572.725 85.9088 572.979 88.0501 573.055 88.8005C573.086 89.1108 573.207 87.9378 573.657 87.1808C574.492 85.7746 577.444 85.5017 577.557 88.587C577.609 90.0262 577.598 89.9602 577.598 90.9285C577.598 92.0663 577.574 92.7507 577.516 93.5737C577.452 94.454 577.276 96.4434 577.019 97.4073C576.842 98.0697 576.257 99.5595 575.679 100.453C575.679 100.453 573.472 103.204 573.232 104.443C572.99 105.68 573.07 105.688 573.022 106.566C572.975 107.442 573.271 108.595 573.271 108.595C573.271 108.595 571.623 108.824 570.736 108.672C569.932 108.534 568.938 106.822 568.681 106.298C568.327 105.576 567.573 105.715 567.279 106.247C566.817 107.09 565.823 108.602 565.12 108.697C563.747 108.882 560.899 108.765 558.67 108.741C558.67 108.741 559.05 106.516 558.204 105.752C557.577 105.182 556.498 104.027 555.853 103.419L554.143 101.393Z" stroke="#1F243D" stroke-width="1.575" stroke-linecap="round" stroke-linejoin="round"/>
</g>
<path fill-rule="evenodd" clip-rule="evenodd" d="M562.899 95.1477C562.899 94.5678 562.429 94.0977 561.849 94.0977C561.269 94.0977 560.799 94.5678 560.799 95.1477V101.448C560.799 102.028 561.269 102.498 561.849 102.498C562.429 102.498 562.899 102.028 562.899 101.448V95.1477ZM566.049 94.0977C566.629 94.0977 567.099 94.5678 567.099 95.1477V101.448C567.099 102.028 566.629 102.498 566.049 102.498C565.469 102.498 564.999 102.028 564.999 101.448V95.1477C564.999 94.5678 565.469 94.0977 566.049 94.0977ZM570.249 94.0977C570.829 94.0977 571.299 94.5678 571.299 95.1477V101.448C571.299 102.028 570.829 102.498 570.249 102.498C569.669 102.498 569.199 102.028 569.199 101.448V95.1477C569.199 94.5678 569.669 94.0977 570.249 94.0977Z" fill="#1F243D"/>
<defs>
<filter id="filter0_d_880_12337" x="219" y="113" width="366" height="246" filterUnits="userSpaceOnUse" color-interpolation-filters="sRGB">
<feFlood flood-opacity="0" result="BackgroundImageFix"/>
<feColorMatrix in="SourceAlpha" type="matrix" values="0 0 0 0 0 0 0 0 0 0 0 0 0 0 0 0 0 0 127 0" result="hardAlpha"/>
<feOffset dy="2"/>
<feGaussianBlur stdDeviation="2.5"/>
<feColorMatrix type="matrix" values="0 0 0 0 0 0 0 0 0 0 0 0 0 0 0 0 0 0 0.04 0"/>
<feBlend mode="normal" in2="BackgroundImageFix" result="effect1_dropShadow_880_12337"/>
<feBlend mode="normal" in="SourceGraphic" in2="effect1_dropShadow_880_12337" result="shape"/>
</filter>
<filter id="filter1_d_880_12337" x="219" y="36" width="366" height="66" filterUnits="userSpaceOnUse" color-interpolation-filters="sRGB">
<feFlood flood-opacity="0" result="BackgroundImageFix"/>
<feColorMatrix in="SourceAlpha" type="matrix" values="0 0 0 0 0 0 0 0 0 0 0 0 0 0 0 0 0 0 127 0" result="hardAlpha"/>
<feOffset dy="2"/>
<feGaussianBlur stdDeviation="2.5"/>
<feColorMatrix type="matrix" values="0 0 0 0 0 0 0 0 0 0 0 0 0 0 0 0 0 0 0.04 0"/>
<feBlend mode="normal" in2="BackgroundImageFix" result="effect1_dropShadow_880_12337"/>
<feBlend mode="normal" in="SourceGraphic" in2="effect1_dropShadow_880_12337" result="shape"/>
</filter>
<filter id="filter2_d_880_12337" x="543.212" y="72.3102" width="39.3746" height="43.5758" filterUnits="userSpaceOnUse" color-interpolation-filters="sRGB">
<feFlood flood-opacity="0" result="BackgroundImageFix"/>
<feColorMatrix in="SourceAlpha" type="matrix" values="0 0 0 0 0 0 0 0 0 0 0 0 0 0 0 0 0 0 127 0" result="hardAlpha"/>
<feOffset dy="2.1"/>
<feGaussianBlur stdDeviation="2.1"/>
<feColorMatrix type="matrix" values="0 0 0 0 0 0 0 0 0 0 0 0 0 0 0 0 0 0 0.24 0"/>
<feBlend mode="normal" in2="BackgroundImageFix" result="effect1_dropShadow_880_12337"/>
<feBlend mode="normal" in="SourceGraphic" in2="effect1_dropShadow_880_12337" result="shape"/>
</filter>
</defs>
</svg>
