<svg width="804" height="423" viewBox="0 0 804 423" fill="none" xmlns="http://www.w3.org/2000/svg">
<rect width="804" height="423" fill="#F9FAFB"/>
<g filter="url(#filter0_d_880_12439)">
<path d="M224 31H580V389H224V31Z" fill="white"/>
</g>
<rect x="224" y="149" width="356" height="1" fill="#EEF0F3"/>
<path fill-rule="evenodd" clip-rule="evenodd" d="M551.59 56.588C551.264 56.9134 550.737 56.9134 550.411 56.588L546.001 52.1772L541.59 56.588C541.264 56.9134 540.737 56.9134 540.411 56.588C540.086 56.2625 540.086 55.7349 540.411 55.4094L545.411 50.4094C545.737 50.084 546.264 50.084 546.59 50.4094L551.59 55.4094C551.915 55.7349 551.915 56.2625 551.59 56.588Z" fill="#9E9E9E"/>
<path d="M249.865 49.5455L252.496 57.2457H252.603L255.234 49.5455H256.776L253.374 59H251.725L248.323 49.5455H249.865ZM258.03 59V51.9091H259.411V59H258.03ZM258.728 50.815C258.487 50.815 258.281 50.735 258.109 50.5749C257.94 50.4118 257.855 50.2179 257.855 49.9933C257.855 49.7655 257.94 49.5716 258.109 49.4116C258.281 49.2485 258.487 49.1669 258.728 49.1669C258.968 49.1669 259.172 49.2485 259.342 49.4116C259.514 49.5716 259.6 49.7655 259.6 49.9933C259.6 50.2179 259.514 50.4118 259.342 50.5749C259.172 50.735 258.968 50.815 258.728 50.815ZM266.581 53.6403L265.33 53.8619C265.278 53.7018 265.195 53.5495 265.081 53.4048C264.97 53.2602 264.819 53.1417 264.629 53.0494C264.438 52.957 264.199 52.9109 263.913 52.9109C263.522 52.9109 263.196 52.9986 262.934 53.174C262.673 53.3464 262.542 53.5695 262.542 53.8434C262.542 54.0804 262.63 54.2712 262.805 54.4158C262.98 54.5605 263.264 54.679 263.654 54.7713L264.781 55.0298C265.433 55.1806 265.92 55.413 266.24 55.7269C266.56 56.0408 266.72 56.4486 266.72 56.9503C266.72 57.375 266.597 57.7536 266.35 58.0859C266.107 58.4152 265.767 58.6738 265.33 58.8615C264.896 59.0492 264.393 59.1431 263.821 59.1431C263.027 59.1431 262.379 58.9738 261.877 58.6353C261.375 58.2937 261.068 57.8089 260.954 57.1811L262.288 56.978C262.371 57.3258 262.542 57.5889 262.8 57.7674C263.059 57.9428 263.396 58.0305 263.811 58.0305C264.264 58.0305 264.625 57.9367 264.896 57.7489C265.167 57.5581 265.303 57.3258 265.303 57.0518C265.303 56.8303 265.219 56.6441 265.053 56.4933C264.89 56.3424 264.639 56.2286 264.301 56.1516L263.1 55.8885C262.439 55.7377 261.949 55.4976 261.632 55.1683C261.319 54.839 261.162 54.422 261.162 53.9173C261.162 53.4987 261.279 53.1325 261.512 52.8185C261.746 52.5046 262.069 52.2599 262.482 52.0845C262.894 51.906 263.367 51.8168 263.899 51.8168C264.665 51.8168 265.269 51.983 265.709 52.3153C266.149 52.6446 266.44 53.0863 266.581 53.6403ZM272.729 56.0593V51.9091H274.114V59H272.757V57.772H272.683C272.52 58.1506 272.258 58.466 271.898 58.7184C271.541 58.9677 271.097 59.0923 270.564 59.0923C270.109 59.0923 269.706 58.9923 269.355 58.7923C269.007 58.5891 268.733 58.2891 268.533 57.892C268.336 57.495 268.237 57.0041 268.237 56.4194V51.9091H269.618V56.2532C269.618 56.7364 269.752 57.1211 270.019 57.4073C270.287 57.6935 270.635 57.8366 271.063 57.8366C271.321 57.8366 271.578 57.772 271.834 57.6428C272.092 57.5135 272.306 57.3181 272.475 57.0565C272.648 56.7949 272.732 56.4625 272.729 56.0593ZM278.032 59.157C277.583 59.157 277.177 59.0739 276.814 58.9077C276.451 58.7384 276.163 58.4937 275.95 58.1737C275.741 57.8536 275.637 57.4612 275.637 56.9964C275.637 56.5964 275.713 56.267 275.867 56.0085C276.021 55.75 276.229 55.5453 276.491 55.3945C276.752 55.2437 277.045 55.1299 277.368 55.0529C277.691 54.976 278.02 54.9175 278.356 54.8775C278.78 54.8282 279.125 54.7882 279.39 54.7575C279.654 54.7236 279.847 54.6697 279.967 54.5959C280.087 54.522 280.147 54.402 280.147 54.2358V54.2035C280.147 53.8003 280.033 53.4879 279.805 53.2663C279.581 53.0447 279.245 52.9339 278.799 52.9339C278.334 52.9339 277.968 53.037 277.7 53.2433C277.435 53.4464 277.252 53.6726 277.151 53.9219L275.854 53.6264C276.007 53.1955 276.232 52.8478 276.528 52.5831C276.826 52.3153 277.169 52.1214 277.557 52.0014C277.945 51.8783 278.353 51.8168 278.78 51.8168C279.064 51.8168 279.364 51.8506 279.681 51.9183C280.001 51.983 280.299 52.103 280.576 52.2784C280.856 52.4538 281.086 52.7047 281.264 53.0309C281.443 53.354 281.532 53.7741 281.532 54.2912V59H280.184V58.0305H280.128C280.039 58.209 279.905 58.3845 279.727 58.5568C279.548 58.7292 279.319 58.8723 279.039 58.9862C278.759 59.1 278.423 59.157 278.032 59.157ZM278.333 58.049C278.714 58.049 279.04 57.9736 279.311 57.8228C279.585 57.672 279.793 57.475 279.934 57.2319C280.079 56.9857 280.151 56.7225 280.151 56.4425V55.5284C280.102 55.5777 280.007 55.6238 279.865 55.6669C279.727 55.7069 279.568 55.7423 279.39 55.7731C279.211 55.8008 279.037 55.8269 278.868 55.8516C278.699 55.8731 278.557 55.8916 278.443 55.907C278.176 55.9408 277.931 55.9978 277.709 56.0778C277.491 56.1578 277.315 56.2732 277.183 56.424C277.054 56.5717 276.989 56.7687 276.989 57.0149C276.989 57.3565 277.115 57.6151 277.368 57.7905C277.62 57.9628 277.942 58.049 278.333 58.049ZM284.751 49.5455V59H283.37V49.5455H284.751ZM286.608 59V51.9091H287.988V59H286.608ZM287.305 50.815C287.065 50.815 286.858 50.735 286.686 50.5749C286.517 50.4118 286.432 50.2179 286.432 49.9933C286.432 49.7655 286.517 49.5716 286.686 49.4116C286.858 49.2485 287.065 49.1669 287.305 49.1669C287.545 49.1669 287.749 49.2485 287.919 49.4116C288.091 49.5716 288.177 49.7655 288.177 49.9933C288.177 50.2179 288.091 50.4118 287.919 50.5749C287.749 50.735 287.545 50.815 287.305 50.815ZM289.697 59V58.0536L293.538 53.174V53.1094H289.822V51.9091H295.26V52.9155L291.567 57.7351V57.7997H295.389V59H289.697ZM299.081 59.157C298.632 59.157 298.226 59.0739 297.863 58.9077C297.499 58.7384 297.212 58.4937 296.999 58.1737C296.79 57.8536 296.685 57.4612 296.685 56.9964C296.685 56.5964 296.762 56.267 296.916 56.0085C297.07 55.75 297.278 55.5453 297.539 55.3945C297.801 55.2437 298.093 55.1299 298.417 55.0529C298.74 54.976 299.069 54.9175 299.404 54.8775C299.829 54.8282 300.174 54.7882 300.439 54.7575C300.703 54.7236 300.896 54.6697 301.016 54.5959C301.136 54.522 301.196 54.402 301.196 54.2358V54.2035C301.196 53.8003 301.082 53.4879 300.854 53.2663C300.629 53.0447 300.294 52.9339 299.848 52.9339C299.383 52.9339 299.017 53.037 298.749 53.2433C298.484 53.4464 298.301 53.6726 298.2 53.9219L296.902 53.6264C297.056 53.1955 297.281 52.8478 297.576 52.5831C297.875 52.3153 298.218 52.1214 298.606 52.0014C298.994 51.8783 299.401 51.8168 299.829 51.8168C300.112 51.8168 300.412 51.8506 300.729 51.9183C301.049 51.983 301.348 52.103 301.625 52.2784C301.905 52.4538 302.134 52.7047 302.313 53.0309C302.491 53.354 302.581 53.7741 302.581 54.2912V59H301.233V58.0305H301.177C301.088 58.209 300.954 58.3845 300.776 58.5568C300.597 58.7292 300.368 58.8723 300.088 58.9862C299.808 59.1 299.472 59.157 299.081 59.157ZM299.381 58.049C299.763 58.049 300.089 57.9736 300.36 57.8228C300.634 57.672 300.842 57.475 300.983 57.2319C301.128 56.9857 301.2 56.7225 301.2 56.4425V55.5284C301.151 55.5777 301.056 55.6238 300.914 55.6669C300.776 55.7069 300.617 55.7423 300.439 55.7731C300.26 55.8008 300.086 55.8269 299.917 55.8516C299.748 55.8731 299.606 55.8916 299.492 55.907C299.224 55.9408 298.98 55.9978 298.758 56.0778C298.54 56.1578 298.364 56.2732 298.232 56.424C298.103 56.5717 298.038 56.7687 298.038 57.0149C298.038 57.3565 298.164 57.6151 298.417 57.7905C298.669 57.9628 298.991 58.049 299.381 58.049ZM307.729 51.9091V53.017H303.856V51.9091H307.729ZM304.895 50.2102H306.275V56.918C306.275 57.1857 306.315 57.3873 306.395 57.5227C306.475 57.6551 306.578 57.7459 306.704 57.7951C306.834 57.8413 306.974 57.8643 307.124 57.8643C307.235 57.8643 307.332 57.8567 307.415 57.8413C307.498 57.8259 307.563 57.8136 307.609 57.8043L307.858 58.9446C307.778 58.9754 307.665 59.0062 307.517 59.0369C307.369 59.0708 307.184 59.0893 306.963 59.0923C306.6 59.0985 306.261 59.0339 305.947 58.8984C305.633 58.763 305.379 58.5537 305.185 58.2706C304.992 57.9875 304.895 57.632 304.895 57.2042V50.2102ZM309.256 59V51.9091H310.636V59H309.256ZM309.953 50.815C309.713 50.815 309.507 50.735 309.335 50.5749C309.165 50.4118 309.081 50.2179 309.081 49.9933C309.081 49.7655 309.165 49.5716 309.335 49.4116C309.507 49.2485 309.713 49.1669 309.953 49.1669C310.193 49.1669 310.398 49.2485 310.567 49.4116C310.739 49.5716 310.826 49.7655 310.826 49.9933C310.826 50.2179 310.739 50.4118 310.567 50.5749C310.398 50.735 310.193 50.815 309.953 50.815ZM315.48 59.1431C314.815 59.1431 314.235 58.9908 313.74 58.6861C313.244 58.3814 312.86 57.9551 312.586 57.4073C312.312 56.8595 312.175 56.2193 312.175 55.4869C312.175 54.7513 312.312 54.1081 312.586 53.5572C312.86 53.0063 313.244 52.5785 313.74 52.2738C314.235 51.9691 314.815 51.8168 315.48 51.8168C316.145 51.8168 316.725 51.9691 317.221 52.2738C317.716 52.5785 318.101 53.0063 318.375 53.5572C318.649 54.1081 318.786 54.7513 318.786 55.4869C318.786 56.2193 318.649 56.8595 318.375 57.4073C318.101 57.9551 317.716 58.3814 317.221 58.6861C316.725 58.9908 316.145 59.1431 315.48 59.1431ZM315.485 57.9844C315.916 57.9844 316.273 57.8705 316.556 57.6428C316.839 57.415 317.048 57.1119 317.184 56.7333C317.322 56.3548 317.391 55.9377 317.391 55.4822C317.391 55.0298 317.322 54.6143 317.184 54.2358C317.048 53.8542 316.839 53.5479 316.556 53.3171C316.273 53.0863 315.916 52.9709 315.485 52.9709C315.051 52.9709 314.691 53.0863 314.405 53.3171C314.121 53.5479 313.911 53.8542 313.772 54.2358C313.637 54.6143 313.569 55.0298 313.569 55.4822C313.569 55.9377 313.637 56.3548 313.772 56.7333C313.911 57.1119 314.121 57.415 314.405 57.6428C314.691 57.8705 315.051 57.9844 315.485 57.9844ZM321.707 54.7898V59H320.326V51.9091H321.651V53.0632H321.739C321.902 52.6877 322.158 52.3861 322.505 52.1584C322.856 51.9306 323.298 51.8168 323.83 51.8168C324.313 51.8168 324.737 51.9183 325.1 52.1214C325.463 52.3215 325.745 52.62 325.945 53.017C326.145 53.4141 326.245 53.9049 326.245 54.4897V59H324.864V54.6559C324.864 54.1419 324.73 53.7403 324.463 53.451C324.195 53.1586 323.827 53.0124 323.359 53.0124C323.039 53.0124 322.755 53.0817 322.505 53.2202C322.259 53.3587 322.064 53.5618 321.919 53.8295C321.777 54.0942 321.707 54.4143 321.707 54.7898Z" fill="#1A1A1A"/>
<g clip-path="url(#clip0_880_12439)">
<rect x="248.5" y="80.5" width="47" height="47" rx="2.5" fill="#E9F2FE"/>
<path d="M262.225 109.775L261 108.875L265.7 101.375L268.7 104.875L272.675 98.425L275.4 102.475C275.133 102.508 274.875 102.562 274.625 102.637C274.375 102.712 274.125 102.8 273.875 102.9L272.75 101.175L268.925 107.4L265.9 103.875L262.225 109.775ZM281.925 115L278.575 111.65C278.225 111.9 277.846 112.092 277.438 112.225C277.029 112.358 276.608 112.425 276.175 112.425C274.992 112.425 273.988 112.012 273.163 111.188C272.338 110.363 271.925 109.358 271.925 108.175C271.925 106.992 272.338 105.988 273.163 105.163C273.988 104.338 274.992 103.925 276.175 103.925C277.358 103.925 278.363 104.338 279.188 105.163C280.012 105.988 280.425 106.992 280.425 108.175C280.425 108.608 280.354 109.029 280.212 109.438C280.071 109.846 279.883 110.233 279.65 110.6L283 113.925L281.925 115ZM276.175 110.925C276.942 110.925 277.592 110.658 278.125 110.125C278.658 109.592 278.925 108.942 278.925 108.175C278.925 107.408 278.658 106.758 278.125 106.225C277.592 105.692 276.942 105.425 276.175 105.425C275.408 105.425 274.758 105.692 274.225 106.225C273.692 106.758 273.425 107.408 273.425 108.175C273.425 108.942 273.692 109.592 274.225 110.125C274.758 110.658 275.408 110.925 276.175 110.925ZM278.025 102.725C277.775 102.625 277.517 102.558 277.25 102.525C276.983 102.492 276.708 102.458 276.425 102.425L281.775 94L283 94.9L278.025 102.725Z" fill="#217CF5"/>
<rect x="248.5" y="80.5" width="47" height="47" rx="2.5" stroke="#217CF5"/>
<rect x="376.5" y="80.5" width="47" height="47" rx="2.5" fill="#EFEFEF"/>
<path d="M392 96H403V99.5H392V96ZM392 102.25H408V105.75H392V102.25ZM392 108.5H399V112H392V108.5Z" fill="#959BA3"/>
<rect x="376.5" y="80.5" width="47" height="47" rx="2.5" stroke="#D8DEE9"/>
<rect x="312.5" y="80.5" width="47" height="47" rx="2.5" fill="#EFEFEF"/>
<path d="M328 112V109.25H331.5V112H328ZM328 107.75V104.25H331.5V107.75H328ZM328 102.75V96H331.5V102.75H328ZM334.25 112V105.25H337.75V112H334.25ZM334.25 103.75V100.25H337.75V103.75H334.25ZM334.25 98.75V96H337.75V98.75H334.25ZM340.5 112V110.5H344V112H340.5ZM340.5 108.75V105.25H344V108.75H340.5ZM340.5 103.75V96H344V103.75H340.5Z" fill="#959BA3"/>
<rect x="312.5" y="80.5" width="47" height="47" rx="2.5" stroke="#D8DEE9"/>
<rect x="440.5" y="80.5" width="47" height="47" rx="2.5" fill="#EFEFEF"/>
<path d="M458 114.5V108.5H460.5V114.5H458ZM464.25 114.5V103.5H466.75V114.5H464.25ZM470.5 114.5V98.5H473V114.5H470.5Z" fill="#959BA3"/>
<path d="M455 114.5V106.812H457.5V114.5H455ZM461.25 114.5V100.406H463.75V114.5H461.25ZM467.5 114.5V94H470V114.5H467.5Z" fill="#959BA3"/>
<rect x="440.5" y="80.5" width="47" height="47" rx="2.5" stroke="#D8DEE9"/>
<rect x="504.5" y="80.5" width="47" height="47" rx="2.5" fill="#EFEFEF"/>
<path d="M528.75 103.25H536.475C536.292 101.217 535.471 99.4542 534.013 97.9625C532.554 96.4708 530.8 95.6583 528.75 95.525V103.25ZM527.25 112.475V95.525C525.067 95.7083 523.229 96.6167 521.738 98.25C520.246 99.8833 519.5 101.8 519.5 104C519.5 106.2 520.246 108.117 521.738 109.75C523.229 111.383 525.067 112.292 527.25 112.475ZM528.75 112.475C530.8 112.342 532.554 111.529 534.013 110.038C535.471 108.546 536.292 106.783 536.475 104.75H528.75V112.475ZM528 114C526.617 114 525.317 113.737 524.1 113.212C522.883 112.687 521.825 111.975 520.925 111.075C520.025 110.175 519.312 109.117 518.787 107.9C518.262 106.683 518 105.383 518 104C518 102.617 518.262 101.317 518.787 100.1C519.312 98.8833 520.025 97.825 520.925 96.925C521.825 96.025 522.883 95.3125 524.1 94.7875C525.317 94.2625 526.617 94 528 94C529.383 94 530.683 94.2625 531.9 94.7875C533.117 95.3125 534.175 96.025 535.075 96.925C535.975 97.825 536.687 98.8833 537.212 100.1C537.737 101.317 538 102.617 538 104C538 105.383 537.737 106.683 537.212 107.9C536.687 109.117 535.975 110.175 535.075 111.075C534.175 111.975 533.117 112.687 531.9 113.212C530.683 113.737 529.383 114 528 114Z" fill="#9E9E9E"/>
<rect x="504.5" y="80.5" width="47" height="47" rx="2.5" stroke="#D8DEE9"/>
<rect x="568.5" y="80.5" width="47" height="47" rx="2.5" fill="#EFEFEF"/>
<rect x="568.5" y="80.5" width="47" height="47" rx="2.5" stroke="#D8DEE9"/>
<rect x="248" y="145" width="4.99999" height="122" rx="2.5" transform="rotate(-90 248 145)" fill="#EAECF0"/>
</g>
<path d="M256.891 174.62H255.451C255.396 174.312 255.292 174.041 255.142 173.808C254.991 173.574 254.806 173.375 254.588 173.212C254.369 173.049 254.125 172.926 253.854 172.843C253.586 172.76 253.301 172.718 253 172.718C252.455 172.718 251.967 172.855 251.536 173.129C251.108 173.403 250.77 173.804 250.521 174.334C250.274 174.863 250.151 175.509 250.151 176.273C250.151 177.042 250.274 177.692 250.521 178.221C250.77 178.75 251.11 179.15 251.541 179.421C251.972 179.692 252.456 179.827 252.995 179.827C253.294 179.827 253.577 179.787 253.844 179.707C254.115 179.624 254.36 179.503 254.578 179.343C254.797 179.183 254.982 178.987 255.132 178.756C255.286 178.522 255.393 178.255 255.451 177.953L256.891 177.958C256.814 178.422 256.665 178.85 256.444 179.241C256.225 179.629 255.943 179.964 255.599 180.248C255.257 180.528 254.866 180.745 254.426 180.898C253.986 181.052 253.506 181.129 252.986 181.129C252.167 181.129 251.438 180.935 250.798 180.548C250.157 180.157 249.653 179.598 249.283 178.872C248.917 178.145 248.734 177.279 248.734 176.273C248.734 175.263 248.919 174.397 249.288 173.674C249.657 172.947 250.162 172.39 250.802 172.002C251.442 171.612 252.17 171.416 252.986 171.416C253.487 171.416 253.955 171.489 254.389 171.633C254.826 171.775 255.219 171.984 255.566 172.261C255.914 172.535 256.202 172.87 256.43 173.267C256.657 173.661 256.811 174.112 256.891 174.62ZM261.474 181.143C260.81 181.143 260.229 180.991 259.734 180.686C259.238 180.381 258.854 179.955 258.58 179.407C258.306 178.859 258.169 178.219 258.169 177.487C258.169 176.751 258.306 176.108 258.58 175.557C258.854 175.006 259.238 174.578 259.734 174.274C260.229 173.969 260.81 173.817 261.474 173.817C262.139 173.817 262.719 173.969 263.215 174.274C263.71 174.578 264.095 175.006 264.369 175.557C264.643 176.108 264.78 176.751 264.78 177.487C264.78 178.219 264.643 178.859 264.369 179.407C264.095 179.955 263.71 180.381 263.215 180.686C262.719 180.991 262.139 181.143 261.474 181.143ZM261.479 179.984C261.91 179.984 262.267 179.871 262.55 179.643C262.833 179.415 263.042 179.112 263.178 178.733C263.316 178.355 263.386 177.938 263.386 177.482C263.386 177.03 263.316 176.614 263.178 176.236C263.042 175.854 262.833 175.548 262.55 175.317C262.267 175.086 261.91 174.971 261.479 174.971C261.045 174.971 260.685 175.086 260.399 175.317C260.116 175.548 259.905 175.854 259.766 176.236C259.631 176.614 259.563 177.03 259.563 177.482C259.563 177.938 259.631 178.355 259.766 178.733C259.905 179.112 260.116 179.415 260.399 179.643C260.685 179.871 261.045 179.984 261.479 179.984ZM267.701 171.545V181H266.32V171.545H267.701ZM274.05 178.059V173.909H275.435V181H274.077V179.772H274.003C273.84 180.151 273.579 180.466 273.219 180.718C272.862 180.968 272.417 181.092 271.884 181.092C271.429 181.092 271.026 180.992 270.675 180.792C270.327 180.589 270.053 180.289 269.853 179.892C269.656 179.495 269.558 179.004 269.558 178.419V173.909H270.938V178.253C270.938 178.736 271.072 179.121 271.34 179.407C271.608 179.694 271.955 179.837 272.383 179.837C272.642 179.837 272.899 179.772 273.154 179.643C273.413 179.513 273.626 179.318 273.796 179.056C273.968 178.795 274.053 178.462 274.05 178.059ZM277.289 181V173.909H278.614V175.063H278.702C278.85 174.672 279.091 174.368 279.427 174.149C279.762 173.928 280.164 173.817 280.632 173.817C281.106 173.817 281.503 173.928 281.823 174.149C282.146 174.371 282.384 174.675 282.538 175.063H282.612C282.781 174.685 283.051 174.383 283.42 174.158C283.789 173.931 284.229 173.817 284.74 173.817C285.383 173.817 285.908 174.018 286.314 174.422C286.724 174.825 286.928 175.433 286.928 176.245V181H285.548V176.374C285.548 175.894 285.417 175.546 285.156 175.331C284.894 175.116 284.582 175.008 284.219 175.008C283.769 175.008 283.42 175.146 283.171 175.423C282.921 175.697 282.797 176.05 282.797 176.48V181H281.421V176.287C281.421 175.902 281.301 175.593 281.061 175.359C280.821 175.125 280.508 175.008 280.124 175.008C279.862 175.008 279.621 175.077 279.399 175.216C279.18 175.351 279.003 175.54 278.868 175.783C278.736 176.027 278.67 176.308 278.67 176.628V181H277.289ZM290.159 176.79V181H288.778V173.909H290.103V175.063H290.191C290.354 174.688 290.61 174.386 290.957 174.158C291.308 173.931 291.75 173.817 292.282 173.817C292.766 173.817 293.189 173.918 293.552 174.121C293.915 174.321 294.197 174.62 294.397 175.017C294.597 175.414 294.697 175.905 294.697 176.49V181H293.316V176.656C293.316 176.142 293.183 175.74 292.915 175.451C292.647 175.159 292.279 175.012 291.812 175.012C291.491 175.012 291.207 175.082 290.957 175.22C290.711 175.359 290.516 175.562 290.371 175.83C290.23 176.094 290.159 176.414 290.159 176.79ZM301.862 175.64L300.611 175.862C300.558 175.702 300.475 175.549 300.361 175.405C300.25 175.26 300.1 175.142 299.909 175.049C299.718 174.957 299.479 174.911 299.193 174.911C298.802 174.911 298.476 174.999 298.215 175.174C297.953 175.346 297.822 175.569 297.822 175.843C297.822 176.08 297.91 176.271 298.085 176.416C298.261 176.56 298.544 176.679 298.935 176.771L300.061 177.03C300.714 177.181 301.2 177.413 301.52 177.727C301.84 178.041 302 178.449 302 178.95C302 179.375 301.877 179.754 301.631 180.086C301.388 180.415 301.048 180.674 300.611 180.862C300.177 181.049 299.673 181.143 299.101 181.143C298.307 181.143 297.659 180.974 297.157 180.635C296.656 180.294 296.348 179.809 296.234 179.181L297.568 178.978C297.651 179.326 297.822 179.589 298.081 179.767C298.339 179.943 298.676 180.031 299.092 180.031C299.544 180.031 299.906 179.937 300.177 179.749C300.447 179.558 300.583 179.326 300.583 179.052C300.583 178.83 300.5 178.644 300.334 178.493C300.17 178.342 299.92 178.229 299.581 178.152L298.381 177.888C297.719 177.738 297.23 177.498 296.913 177.168C296.599 176.839 296.442 176.422 296.442 175.917C296.442 175.499 296.559 175.132 296.793 174.819C297.027 174.505 297.35 174.26 297.762 174.085C298.175 173.906 298.647 173.817 299.179 173.817C299.946 173.817 300.549 173.983 300.989 174.315C301.429 174.645 301.72 175.086 301.862 175.64Z" fill="#1A1A1A"/>
<path fill-rule="evenodd" clip-rule="evenodd" d="M551.59 178.588C551.264 178.913 550.737 178.913 550.411 178.588L546.001 174.177L541.59 178.588C541.264 178.913 540.737 178.913 540.411 178.588C540.086 178.263 540.086 177.735 540.411 177.409L545.411 172.409C545.737 172.084 546.264 172.084 546.59 172.409L551.59 177.409C551.915 177.735 551.915 178.263 551.59 178.588Z" fill="#9E9E9E"/>
<rect x="248.5" y="202.5" width="307" height="31" rx="2.5" fill="white"/>
<path d="M268.753 216.5H267.608C267.54 216.171 267.422 215.881 267.252 215.632C267.086 215.383 266.883 215.174 266.643 215.004C266.406 214.832 266.143 214.703 265.854 214.616C265.564 214.53 265.263 214.487 264.949 214.487C264.376 214.487 263.858 214.632 263.393 214.921C262.931 215.21 262.564 215.637 262.29 216.2C262.019 216.763 261.884 217.454 261.884 218.273C261.884 219.091 262.019 219.782 262.29 220.346C262.564 220.909 262.931 221.335 263.393 221.624C263.858 221.914 264.376 222.058 264.949 222.058C265.263 222.058 265.564 222.015 265.854 221.929C266.143 221.843 266.406 221.715 266.643 221.546C266.883 221.373 267.086 221.163 267.252 220.913C267.422 220.661 267.54 220.372 267.608 220.045H268.753C268.667 220.529 268.51 220.961 268.282 221.343C268.054 221.724 267.771 222.049 267.433 222.317C267.094 222.581 266.714 222.783 266.292 222.922C265.874 223.06 265.426 223.129 264.949 223.129C264.143 223.129 263.425 222.932 262.798 222.538C262.17 222.144 261.676 221.584 261.316 220.858C260.956 220.132 260.776 219.27 260.776 218.273C260.776 217.276 260.956 216.414 261.316 215.688C261.676 214.961 262.17 214.401 262.798 214.007C263.425 213.613 264.143 213.416 264.949 213.416C265.426 213.416 265.874 213.485 266.292 213.624C266.714 213.762 267.094 213.966 267.433 214.233C267.771 214.498 268.054 214.821 268.282 215.203C268.51 215.581 268.667 216.014 268.753 216.5ZM273.336 223.148C272.696 223.148 272.134 222.995 271.651 222.691C271.171 222.386 270.795 221.96 270.524 221.412C270.257 220.864 270.123 220.224 270.123 219.491C270.123 218.753 270.257 218.108 270.524 217.557C270.795 217.006 271.171 216.578 271.651 216.274C272.134 215.969 272.696 215.817 273.336 215.817C273.976 215.817 274.536 215.969 275.016 216.274C275.499 216.578 275.875 217.006 276.143 217.557C276.414 218.108 276.549 218.753 276.549 219.491C276.549 220.224 276.414 220.864 276.143 221.412C275.875 221.96 275.499 222.386 275.016 222.691C274.536 222.995 273.976 223.148 273.336 223.148ZM273.336 222.169C273.822 222.169 274.222 222.044 274.536 221.795C274.85 221.546 275.082 221.218 275.233 220.812C275.384 220.406 275.459 219.965 275.459 219.491C275.459 219.018 275.384 218.576 275.233 218.167C275.082 217.757 274.85 217.426 274.536 217.174C274.222 216.922 273.822 216.795 273.336 216.795C272.85 216.795 272.449 216.922 272.136 217.174C271.822 217.426 271.589 217.757 271.438 218.167C271.288 218.576 271.212 219.018 271.212 219.491C271.212 219.965 271.288 220.406 271.438 220.812C271.589 221.218 271.822 221.546 272.136 221.795C272.449 222.044 272.85 222.169 273.336 222.169ZM282.681 220.101V215.909H283.77V223H282.681V221.8H282.607C282.441 222.16 282.182 222.466 281.831 222.718C281.48 222.968 281.037 223.092 280.502 223.092C280.059 223.092 279.665 222.995 279.32 222.801C278.975 222.605 278.704 222.309 278.507 221.915C278.31 221.518 278.212 221.018 278.212 220.415V215.909H279.301V220.341C279.301 220.858 279.446 221.27 279.735 221.578C280.028 221.886 280.4 222.04 280.853 222.04C281.123 222.04 281.399 221.971 281.679 221.832C281.962 221.694 282.199 221.481 282.39 221.195C282.584 220.909 282.681 220.544 282.681 220.101ZM286.855 218.734V223H285.766V215.909H286.818V217.017H286.911C287.077 216.657 287.329 216.368 287.668 216.149C288.006 215.928 288.443 215.817 288.979 215.817C289.459 215.817 289.879 215.915 290.239 216.112C290.599 216.306 290.879 216.602 291.079 216.999C291.279 217.393 291.379 217.891 291.379 218.494V223H290.29V218.568C290.29 218.011 290.145 217.577 289.856 217.266C289.567 216.952 289.17 216.795 288.665 216.795C288.317 216.795 288.006 216.871 287.732 217.022C287.461 217.172 287.248 217.393 287.091 217.682C286.934 217.971 286.855 218.322 286.855 218.734ZM296.454 215.909V216.832H292.779V215.909H296.454ZM293.85 214.21H294.94V220.969C294.94 221.277 294.984 221.507 295.074 221.661C295.166 221.812 295.283 221.914 295.425 221.966C295.569 222.015 295.722 222.04 295.882 222.04C296.002 222.04 296.1 222.034 296.177 222.021C296.254 222.006 296.316 221.994 296.362 221.984L296.583 222.963C296.509 222.991 296.406 223.018 296.274 223.046C296.142 223.077 295.974 223.092 295.771 223.092C295.463 223.092 295.161 223.026 294.866 222.894C294.574 222.761 294.33 222.56 294.137 222.289C293.946 222.018 293.85 221.677 293.85 221.264V214.21ZM304.63 223.148C303.99 223.148 303.428 222.995 302.945 222.691C302.465 222.386 302.089 221.96 301.818 221.412C301.551 220.864 301.417 220.224 301.417 219.491C301.417 218.753 301.551 218.108 301.818 217.557C302.089 217.006 302.465 216.578 302.945 216.274C303.428 215.969 303.99 215.817 304.63 215.817C305.27 215.817 305.83 215.969 306.31 216.274C306.793 216.578 307.169 217.006 307.437 217.557C307.707 218.108 307.843 218.753 307.843 219.491C307.843 220.224 307.707 220.864 307.437 221.412C307.169 221.96 306.793 222.386 306.31 222.691C305.83 222.995 305.27 223.148 304.63 223.148ZM304.63 222.169C305.116 222.169 305.516 222.044 305.83 221.795C306.144 221.546 306.376 221.218 306.527 220.812C306.678 220.406 306.753 219.965 306.753 219.491C306.753 219.018 306.678 218.576 306.527 218.167C306.376 217.757 306.144 217.426 305.83 217.174C305.516 216.922 305.116 216.795 304.63 216.795C304.144 216.795 303.743 216.922 303.43 217.174C303.116 217.426 302.883 217.757 302.732 218.167C302.582 218.576 302.506 219.018 302.506 219.491C302.506 219.965 302.582 220.406 302.732 220.812C302.883 221.218 303.116 221.546 303.43 221.795C303.743 222.044 304.144 222.169 304.63 222.169ZM312.664 215.909V216.832H308.841V215.909H312.664ZM309.986 223V214.93C309.986 214.524 310.081 214.186 310.272 213.915C310.463 213.644 310.711 213.441 311.016 213.305C311.32 213.17 311.642 213.102 311.98 213.102C312.248 213.102 312.467 213.124 312.636 213.167C312.805 213.21 312.931 213.25 313.014 213.287L312.701 214.229C312.645 214.21 312.568 214.187 312.47 214.159C312.374 214.132 312.248 214.118 312.091 214.118C311.731 214.118 311.471 214.209 311.311 214.39C311.154 214.572 311.076 214.838 311.076 215.189V223H309.986ZM317.477 214.561V213.545H324.568V214.561H321.595V223H320.45V214.561H317.477ZM328.04 223.148C327.4 223.148 326.838 222.995 326.355 222.691C325.875 222.386 325.499 221.96 325.229 221.412C324.961 220.864 324.827 220.224 324.827 219.491C324.827 218.753 324.961 218.108 325.229 217.557C325.499 217.006 325.875 216.578 326.355 216.274C326.838 215.969 327.4 215.817 328.04 215.817C328.68 215.817 329.24 215.969 329.72 216.274C330.204 216.578 330.579 217.006 330.847 217.557C331.118 218.108 331.253 218.753 331.253 219.491C331.253 220.224 331.118 220.864 330.847 221.412C330.579 221.96 330.204 222.386 329.72 222.691C329.24 222.995 328.68 223.148 328.04 223.148ZM328.04 222.169C328.526 222.169 328.926 222.044 329.24 221.795C329.554 221.546 329.787 221.218 329.937 220.812C330.088 220.406 330.164 219.965 330.164 219.491C330.164 219.018 330.088 218.576 329.937 218.167C329.787 217.757 329.554 217.426 329.24 217.174C328.926 216.922 328.526 216.795 328.04 216.795C327.554 216.795 327.154 216.922 326.84 217.174C326.526 217.426 326.293 217.757 326.143 218.167C325.992 218.576 325.916 219.018 325.916 219.491C325.916 219.965 325.992 220.406 326.143 220.812C326.293 221.218 326.526 221.546 326.84 221.795C327.154 222.044 327.554 222.169 328.04 222.169ZM336 215.909V216.832H332.325V215.909H336ZM333.396 214.21H334.486V220.969C334.486 221.277 334.53 221.507 334.62 221.661C334.712 221.812 334.829 221.914 334.97 221.966C335.115 222.015 335.267 222.04 335.427 222.04C335.547 222.04 335.646 222.034 335.723 222.021C335.8 222.006 335.861 221.994 335.908 221.984L336.129 222.963C336.055 222.991 335.952 223.018 335.82 223.046C335.688 223.077 335.52 223.092 335.317 223.092C335.009 223.092 334.707 223.026 334.412 222.894C334.119 222.761 333.876 222.56 333.682 222.289C333.492 222.018 333.396 221.677 333.396 221.264V214.21ZM339.725 223.166C339.276 223.166 338.868 223.082 338.502 222.912C338.136 222.74 337.845 222.492 337.63 222.169C337.414 221.843 337.306 221.449 337.306 220.987C337.306 220.581 337.386 220.252 337.546 219.999C337.706 219.744 337.92 219.544 338.188 219.399C338.456 219.254 338.751 219.147 339.074 219.076C339.401 219.002 339.728 218.944 340.058 218.901C340.489 218.845 340.838 218.804 341.106 218.776C341.377 218.745 341.574 218.694 341.697 218.624C341.823 218.553 341.886 218.43 341.886 218.254V218.217C341.886 217.762 341.761 217.408 341.512 217.156C341.266 216.903 340.892 216.777 340.39 216.777C339.87 216.777 339.462 216.891 339.167 217.119C338.871 217.346 338.664 217.589 338.544 217.848L337.509 217.479C337.694 217.048 337.94 216.712 338.248 216.472C338.559 216.229 338.898 216.06 339.264 215.964C339.633 215.866 339.996 215.817 340.353 215.817C340.581 215.817 340.843 215.844 341.138 215.9C341.437 215.952 341.724 216.061 342.001 216.228C342.281 216.394 342.514 216.645 342.698 216.98C342.883 217.316 342.975 217.765 342.975 218.328V223H341.886V222.04H341.831C341.757 222.194 341.634 222.358 341.461 222.534C341.289 222.709 341.06 222.858 340.773 222.982C340.487 223.105 340.138 223.166 339.725 223.166ZM339.892 222.188C340.322 222.188 340.686 222.103 340.981 221.934C341.28 221.764 341.504 221.546 341.655 221.278C341.809 221.01 341.886 220.729 341.886 220.433V219.436C341.84 219.491 341.738 219.542 341.581 219.588C341.427 219.632 341.249 219.67 341.046 219.704C340.846 219.735 340.65 219.762 340.459 219.787C340.272 219.808 340.119 219.827 340.002 219.842C339.719 219.879 339.455 219.939 339.208 220.022C338.965 220.102 338.768 220.224 338.617 220.387C338.47 220.547 338.396 220.766 338.396 221.043C338.396 221.421 338.536 221.707 338.816 221.901C339.099 222.092 339.458 222.188 339.892 222.188ZM346.053 213.545V223H344.964V213.545H346.053ZM351.853 223V213.545H352.998V217.756H358.039V213.545H359.184V223H358.039V218.771H352.998V223H351.853ZM364.209 223.148C363.569 223.148 363.007 222.995 362.524 222.691C362.044 222.386 361.668 221.96 361.397 221.412C361.13 220.864 360.996 220.224 360.996 219.491C360.996 218.753 361.13 218.108 361.397 217.557C361.668 217.006 362.044 216.578 362.524 216.274C363.007 215.969 363.569 215.817 364.209 215.817C364.849 215.817 365.409 215.969 365.889 216.274C366.372 216.578 366.748 217.006 367.016 217.557C367.287 218.108 367.422 218.753 367.422 219.491C367.422 220.224 367.287 220.864 367.016 221.412C366.748 221.96 366.372 222.386 365.889 222.691C365.409 222.995 364.849 223.148 364.209 223.148ZM364.209 222.169C364.695 222.169 365.095 222.044 365.409 221.795C365.723 221.546 365.955 221.218 366.106 220.812C366.257 220.406 366.332 219.965 366.332 219.491C366.332 219.018 366.257 218.576 366.106 218.167C365.955 217.757 365.723 217.426 365.409 217.174C365.095 216.922 364.695 216.795 364.209 216.795C363.723 216.795 363.323 216.922 363.009 217.174C362.695 217.426 362.462 217.757 362.312 218.167C362.161 218.576 362.085 219.018 362.085 219.491C362.085 219.965 362.161 220.406 362.312 220.812C362.462 221.218 362.695 221.546 363.009 221.795C363.323 222.044 363.723 222.169 364.209 222.169ZM373.554 220.101V215.909H374.643V223H373.554V221.8H373.48C373.314 222.16 373.055 222.466 372.704 222.718C372.354 222.968 371.91 223.092 371.375 223.092C370.932 223.092 370.538 222.995 370.193 222.801C369.848 222.605 369.577 222.309 369.381 221.915C369.184 221.518 369.085 221.018 369.085 220.415V215.909H370.175V220.341C370.175 220.858 370.319 221.27 370.608 221.578C370.901 221.886 371.273 222.04 371.726 222.04C371.997 222.04 372.272 221.971 372.552 221.832C372.835 221.694 373.072 221.481 373.263 221.195C373.457 220.909 373.554 220.544 373.554 220.101ZM376.639 223V215.909H377.691V216.98H377.765C377.894 216.629 378.128 216.345 378.467 216.126C378.805 215.908 379.187 215.798 379.612 215.798C379.692 215.798 379.792 215.8 379.912 215.803C380.032 215.806 380.123 215.811 380.184 215.817V216.925C380.147 216.915 380.063 216.902 379.93 216.883C379.801 216.862 379.664 216.851 379.519 216.851C379.175 216.851 378.867 216.923 378.596 217.068C378.328 217.209 378.116 217.406 377.959 217.659C377.805 217.908 377.728 218.193 377.728 218.513V223H376.639ZM386.498 217.497L385.52 217.774C385.458 217.611 385.367 217.453 385.247 217.299C385.13 217.142 384.97 217.012 384.767 216.911C384.564 216.809 384.304 216.759 383.987 216.759C383.553 216.759 383.191 216.859 382.902 217.059C382.616 217.256 382.473 217.506 382.473 217.811C382.473 218.082 382.571 218.296 382.768 218.453C382.965 218.61 383.273 218.741 383.692 218.845L384.744 219.104C385.378 219.258 385.851 219.493 386.161 219.81C386.472 220.124 386.628 220.529 386.628 221.024C386.628 221.43 386.511 221.794 386.277 222.114C386.046 222.434 385.723 222.686 385.307 222.871C384.892 223.055 384.409 223.148 383.858 223.148C383.135 223.148 382.536 222.991 382.062 222.677C381.588 222.363 381.288 221.904 381.162 221.301L382.196 221.043C382.294 221.424 382.481 221.71 382.754 221.901C383.031 222.092 383.393 222.188 383.839 222.188C384.347 222.188 384.75 222.08 385.049 221.864C385.35 221.646 385.501 221.384 385.501 221.08C385.501 220.833 385.415 220.627 385.243 220.461C385.07 220.292 384.806 220.165 384.449 220.082L383.267 219.805C382.617 219.652 382.14 219.413 381.836 219.09C381.534 218.764 381.383 218.356 381.383 217.866C381.383 217.466 381.496 217.112 381.72 216.805C381.948 216.497 382.257 216.255 382.648 216.08C383.042 215.904 383.488 215.817 383.987 215.817C384.689 215.817 385.24 215.971 385.64 216.278C386.043 216.586 386.329 216.992 386.498 217.497ZM393.789 223L391.204 213.545H392.367L394.343 221.246H394.435L396.448 213.545H397.741L399.753 221.246H399.846L401.822 213.545H402.985L400.4 223H399.218L397.131 215.466H397.057L394.971 223H393.789ZM406.484 223.148C405.844 223.148 405.282 222.995 404.799 222.691C404.319 222.386 403.944 221.96 403.673 221.412C403.405 220.864 403.271 220.224 403.271 219.491C403.271 218.753 403.405 218.108 403.673 217.557C403.944 217.006 404.319 216.578 404.799 216.274C405.282 215.969 405.844 215.817 406.484 215.817C407.124 215.817 407.685 215.969 408.165 216.274C408.648 216.578 409.023 217.006 409.291 217.557C409.562 218.108 409.697 218.753 409.697 219.491C409.697 220.224 409.562 220.864 409.291 221.412C409.023 221.96 408.648 222.386 408.165 222.691C407.685 222.995 407.124 223.148 406.484 223.148ZM406.484 222.169C406.971 222.169 407.371 222.044 407.685 221.795C407.998 221.546 408.231 221.218 408.382 220.812C408.532 220.406 408.608 219.965 408.608 219.491C408.608 219.018 408.532 218.576 408.382 218.167C408.231 217.757 407.998 217.426 407.685 217.174C407.371 216.922 406.971 216.795 406.484 216.795C405.998 216.795 405.598 216.922 405.284 217.174C404.97 217.426 404.738 217.757 404.587 218.167C404.436 218.576 404.361 219.018 404.361 219.491C404.361 219.965 404.436 220.406 404.587 220.812C404.738 221.218 404.97 221.546 405.284 221.795C405.598 222.044 405.998 222.169 406.484 222.169ZM411.36 223V215.909H412.413V216.98H412.487C412.616 216.629 412.85 216.345 413.189 216.126C413.527 215.908 413.909 215.798 414.333 215.798C414.413 215.798 414.513 215.8 414.634 215.803C414.754 215.806 414.844 215.811 414.906 215.817V216.925C414.869 216.915 414.784 216.902 414.652 216.883C414.523 216.862 414.386 216.851 414.241 216.851C413.896 216.851 413.589 216.923 413.318 217.068C413.05 217.209 412.838 217.406 412.681 217.659C412.527 217.908 412.45 218.193 412.45 218.513V223H411.36ZM417.213 220.415L417.195 219.067H417.416L420.518 215.909H421.866L418.561 219.251H418.469L417.213 220.415ZM416.197 223V213.545H417.287V223H416.197ZM420.703 223L417.933 219.491L418.709 218.734L422.088 223H420.703ZM425.95 223.148C425.266 223.148 424.677 222.997 424.182 222.695C423.689 222.391 423.309 221.966 423.041 221.421C422.777 220.873 422.644 220.236 422.644 219.51C422.644 218.784 422.777 218.143 423.041 217.589C423.309 217.032 423.681 216.598 424.158 216.288C424.639 215.974 425.199 215.817 425.839 215.817C426.208 215.817 426.573 215.878 426.933 216.001C427.293 216.125 427.621 216.325 427.916 216.602C428.212 216.875 428.447 217.239 428.623 217.691C428.798 218.143 428.886 218.701 428.886 219.362V219.824H423.42V218.882H427.778C427.778 218.482 427.698 218.125 427.538 217.811C427.381 217.497 427.156 217.249 426.864 217.068C426.574 216.886 426.233 216.795 425.839 216.795C425.405 216.795 425.029 216.903 424.712 217.119C424.399 217.331 424.157 217.608 423.988 217.95C423.818 218.291 423.734 218.657 423.734 219.048V219.676C423.734 220.212 423.826 220.666 424.011 221.038C424.198 221.407 424.459 221.689 424.791 221.883C425.123 222.074 425.51 222.169 425.95 222.169C426.236 222.169 426.494 222.129 426.725 222.049C426.959 221.966 427.161 221.843 427.33 221.68C427.499 221.513 427.63 221.307 427.722 221.061L428.775 221.357C428.664 221.714 428.478 222.027 428.216 222.298C427.955 222.566 427.632 222.775 427.247 222.926C426.862 223.074 426.43 223.148 425.95 223.148ZM433.221 223.148C432.63 223.148 432.108 222.998 431.656 222.7C431.203 222.398 430.849 221.974 430.594 221.426C430.338 220.875 430.211 220.224 430.211 219.473C430.211 218.728 430.338 218.082 430.594 217.534C430.849 216.986 431.205 216.563 431.66 216.265C432.116 215.966 432.642 215.817 433.239 215.817C433.701 215.817 434.065 215.894 434.333 216.048C434.604 216.198 434.81 216.371 434.952 216.565C435.096 216.755 435.209 216.912 435.289 217.036H435.381V213.545H436.471V223H435.418V221.911H435.289C435.209 222.04 435.095 222.203 434.947 222.4C434.799 222.594 434.589 222.768 434.315 222.922C434.041 223.072 433.676 223.148 433.221 223.148ZM433.368 222.169C433.805 222.169 434.175 222.055 434.476 221.827C434.778 221.597 435.007 221.278 435.164 220.872C435.321 220.462 435.4 219.99 435.4 219.455C435.4 218.925 435.323 218.462 435.169 218.065C435.015 217.665 434.787 217.354 434.486 217.132C434.184 216.908 433.812 216.795 433.368 216.795C432.907 216.795 432.522 216.914 432.214 217.151C431.91 217.385 431.68 217.703 431.526 218.107C431.376 218.507 431.3 218.956 431.3 219.455C431.3 219.959 431.377 220.418 431.531 220.83C431.688 221.24 431.919 221.566 432.223 221.809C432.531 222.049 432.913 222.169 433.368 222.169Z" fill="#1A1A1A"/>
<g style="mix-blend-mode:multiply">
<rect x="487" y="210" width="35" height="16" rx="8" fill="#E9F2FE"/>
<path d="M498.377 216C498.33 215.604 498.14 215.297 497.807 215.078C497.473 214.859 497.064 214.75 496.58 214.75C496.226 214.75 495.916 214.807 495.65 214.922C495.387 215.036 495.182 215.194 495.033 215.395C494.887 215.595 494.814 215.823 494.814 216.078C494.814 216.292 494.865 216.475 494.967 216.629C495.071 216.78 495.204 216.906 495.365 217.008C495.527 217.107 495.696 217.189 495.873 217.254C496.05 217.316 496.213 217.367 496.361 217.406L497.174 217.625C497.382 217.68 497.614 217.755 497.869 217.852C498.127 217.948 498.373 218.079 498.607 218.246C498.844 218.41 499.04 218.621 499.193 218.879C499.347 219.137 499.424 219.453 499.424 219.828C499.424 220.26 499.311 220.651 499.084 221C498.86 221.349 498.532 221.626 498.1 221.832C497.67 222.038 497.148 222.141 496.533 222.141C495.96 222.141 495.464 222.048 495.045 221.863C494.628 221.678 494.3 221.421 494.061 221.09C493.824 220.759 493.689 220.375 493.658 219.938H494.658C494.684 220.24 494.786 220.49 494.963 220.687C495.143 220.883 495.369 221.029 495.643 221.125C495.919 221.219 496.215 221.266 496.533 221.266C496.903 221.266 497.235 221.206 497.529 221.086C497.824 220.964 498.057 220.794 498.229 220.578C498.4 220.359 498.486 220.104 498.486 219.812C498.486 219.547 498.412 219.331 498.264 219.164C498.115 218.997 497.92 218.862 497.678 218.758C497.436 218.654 497.174 218.562 496.893 218.484L495.908 218.203C495.283 218.023 494.788 217.767 494.424 217.434C494.059 217.1 493.877 216.664 493.877 216.125C493.877 215.677 493.998 215.286 494.24 214.953C494.485 214.617 494.813 214.357 495.225 214.172C495.639 213.984 496.101 213.891 496.611 213.891C497.127 213.891 497.585 213.983 497.986 214.168C498.387 214.35 498.705 214.6 498.939 214.918C499.176 215.236 499.301 215.596 499.314 216H498.377ZM504.673 219.547V216H505.595V222H504.673V220.984H504.61C504.47 221.289 504.251 221.548 503.954 221.762C503.657 221.973 503.282 222.078 502.829 222.078C502.454 222.078 502.121 221.996 501.829 221.832C501.537 221.665 501.308 221.415 501.142 221.082C500.975 220.746 500.892 220.323 500.892 219.812V216H501.813V219.75C501.813 220.187 501.936 220.536 502.181 220.797C502.428 221.057 502.743 221.187 503.126 221.187C503.355 221.187 503.588 221.129 503.825 221.012C504.065 220.895 504.265 220.715 504.427 220.473C504.591 220.23 504.673 219.922 504.673 219.547ZM507.283 222V216H508.174V216.937H508.252C508.377 216.617 508.579 216.368 508.857 216.191C509.136 216.012 509.471 215.922 509.861 215.922C510.257 215.922 510.587 216.012 510.85 216.191C511.115 216.368 511.322 216.617 511.471 216.937H511.533C511.687 216.628 511.917 216.382 512.225 216.199C512.532 216.014 512.9 215.922 513.33 215.922C513.867 215.922 514.305 216.09 514.646 216.426C514.988 216.759 515.158 217.279 515.158 217.984V222H514.236V217.984C514.236 217.542 514.115 217.225 513.873 217.035C513.631 216.845 513.346 216.75 513.018 216.75C512.596 216.75 512.269 216.878 512.037 217.133C511.805 217.385 511.689 217.706 511.689 218.094V222H510.752V217.891C510.752 217.549 510.641 217.275 510.42 217.066C510.199 216.855 509.913 216.75 509.564 216.75C509.325 216.75 509.101 216.814 508.893 216.941C508.687 217.069 508.52 217.246 508.393 217.473C508.268 217.697 508.205 217.956 508.205 218.25V222H507.283Z" fill="#217CF5"/>
</g>
<rect x="528" y="206" width="24" height="24" rx="12" fill="white"/>
<path d="M544 214.806L543.194 214L540 217.194L536.806 214L536 214.806L539.194 218L536 221.194L536.806 222L540 218.806L543.194 222L544 221.194L540.806 218L544 214.806Z" fill="#959BA3"/>
<rect x="248.5" y="202.5" width="307" height="31" rx="2.5" stroke="#DADFE7"/>
<rect x="224" y="250" width="356" height="1" fill="#EEF0F3"/>
<path d="M252.099 282H249.039V272.545H252.196C253.123 272.545 253.918 272.735 254.583 273.113C255.248 273.489 255.757 274.029 256.111 274.734C256.468 275.435 256.647 276.277 256.647 277.259C256.647 278.244 256.467 279.09 256.107 279.798C255.75 280.506 255.232 281.051 254.555 281.432C253.878 281.811 253.06 282 252.099 282ZM250.465 280.754H252.021C252.741 280.754 253.34 280.618 253.817 280.347C254.294 280.073 254.651 279.678 254.888 279.161C255.125 278.641 255.243 278.007 255.243 277.259C255.243 276.517 255.125 275.888 254.888 275.371C254.654 274.854 254.305 274.461 253.84 274.194C253.375 273.926 252.798 273.792 252.109 273.792H250.465V280.754ZM261.366 282.143C260.667 282.143 260.066 281.994 259.561 281.695C259.059 281.394 258.671 280.971 258.397 280.426C258.127 279.878 257.991 279.236 257.991 278.501C257.991 277.774 258.127 277.134 258.397 276.58C258.671 276.026 259.053 275.594 259.542 275.283C260.035 274.972 260.61 274.817 261.269 274.817C261.669 274.817 262.057 274.883 262.432 275.015C262.808 275.148 263.145 275.355 263.443 275.638C263.742 275.922 263.977 276.289 264.15 276.742C264.322 277.191 264.408 277.737 264.408 278.381V278.87H258.771V277.836H263.055C263.055 277.473 262.982 277.151 262.834 276.871C262.686 276.588 262.478 276.365 262.211 276.202C261.946 276.039 261.635 275.957 261.278 275.957C260.89 275.957 260.552 276.052 260.263 276.243C259.976 276.431 259.755 276.677 259.598 276.982C259.444 277.283 259.367 277.611 259.367 277.965V278.773C259.367 279.247 259.45 279.65 259.616 279.983C259.785 280.315 260.021 280.569 260.323 280.744C260.624 280.917 260.977 281.003 261.38 281.003C261.641 281.003 261.88 280.966 262.095 280.892C262.311 280.815 262.497 280.701 262.654 280.55C262.811 280.4 262.931 280.213 263.014 279.992L264.32 280.227C264.216 280.612 264.028 280.949 263.757 281.238C263.489 281.525 263.152 281.748 262.746 281.908C262.343 282.065 261.883 282.143 261.366 282.143ZM269.314 274.909V276.017H265.307V274.909H269.314ZM266.406 282V274.087C266.406 273.644 266.503 273.276 266.697 272.984C266.891 272.689 267.148 272.469 267.468 272.324C267.788 272.176 268.136 272.102 268.511 272.102C268.788 272.102 269.025 272.125 269.222 272.172C269.419 272.215 269.565 272.255 269.661 272.292L269.337 273.409C269.273 273.39 269.19 273.369 269.088 273.344C268.987 273.316 268.863 273.303 268.719 273.303C268.383 273.303 268.143 273.386 267.999 273.552C267.857 273.718 267.786 273.958 267.786 274.272V282H266.406ZM272.586 282.157C272.137 282.157 271.731 282.074 271.367 281.908C271.004 281.738 270.717 281.494 270.504 281.174C270.295 280.854 270.19 280.461 270.19 279.996C270.19 279.596 270.267 279.267 270.421 279.009C270.575 278.75 270.783 278.545 271.044 278.395C271.306 278.244 271.598 278.13 271.921 278.053C272.245 277.976 272.574 277.917 272.909 277.877C273.334 277.828 273.679 277.788 273.943 277.757C274.208 277.724 274.4 277.67 274.521 277.596C274.641 277.522 274.701 277.402 274.701 277.236V277.203C274.701 276.8 274.587 276.488 274.359 276.266C274.134 276.045 273.799 275.934 273.353 275.934C272.888 275.934 272.522 276.037 272.254 276.243C271.989 276.446 271.806 276.673 271.704 276.922L270.407 276.626C270.561 276.196 270.786 275.848 271.081 275.583C271.38 275.315 271.723 275.121 272.111 275.001C272.498 274.878 272.906 274.817 273.334 274.817C273.617 274.817 273.917 274.851 274.234 274.918C274.554 274.983 274.853 275.103 275.13 275.278C275.41 275.454 275.639 275.705 275.818 276.031C275.996 276.354 276.085 276.774 276.085 277.291V282H274.737V281.031H274.682C274.593 281.209 274.459 281.384 274.28 281.557C274.102 281.729 273.873 281.872 273.593 281.986C273.313 282.1 272.977 282.157 272.586 282.157ZM272.886 281.049C273.268 281.049 273.594 280.974 273.865 280.823C274.139 280.672 274.347 280.475 274.488 280.232C274.633 279.986 274.705 279.723 274.705 279.442V278.528C274.656 278.578 274.561 278.624 274.419 278.667C274.28 278.707 274.122 278.742 273.943 278.773C273.765 278.801 273.591 278.827 273.422 278.852C273.253 278.873 273.111 278.892 272.997 278.907C272.729 278.941 272.485 278.998 272.263 279.078C272.045 279.158 271.869 279.273 271.737 279.424C271.608 279.572 271.543 279.769 271.543 280.015C271.543 280.357 271.669 280.615 271.921 280.79C272.174 280.963 272.495 281.049 272.886 281.049ZM282.416 279.059V274.909H283.801V282H282.444V280.772H282.37C282.207 281.151 281.945 281.466 281.585 281.718C281.228 281.968 280.783 282.092 280.251 282.092C279.795 282.092 279.392 281.992 279.041 281.792C278.693 281.589 278.42 281.289 278.219 280.892C278.022 280.495 277.924 280.004 277.924 279.419V274.909H279.304V279.253C279.304 279.736 279.438 280.121 279.706 280.407C279.974 280.694 280.321 280.837 280.749 280.837C281.008 280.837 281.265 280.772 281.52 280.643C281.779 280.513 281.993 280.318 282.162 280.056C282.334 279.795 282.419 279.462 282.416 279.059ZM287.036 272.545V282H285.655V272.545H287.036ZM292.203 274.909V276.017H288.33V274.909H292.203ZM289.368 273.21H290.749V279.918C290.749 280.186 290.789 280.387 290.869 280.523C290.949 280.655 291.052 280.746 291.178 280.795C291.307 280.841 291.447 280.864 291.598 280.864C291.709 280.864 291.806 280.857 291.889 280.841C291.972 280.826 292.037 280.814 292.083 280.804L292.332 281.945C292.252 281.975 292.138 282.006 291.99 282.037C291.843 282.071 291.658 282.089 291.436 282.092C291.073 282.098 290.735 282.034 290.421 281.898C290.107 281.763 289.853 281.554 289.659 281.271C289.465 280.987 289.368 280.632 289.368 280.204V273.21ZM297.281 282V272.545H303.144V273.773H298.707V276.654H302.724V277.877H298.707V282H297.281ZM304.787 282V274.909H306.168V282H304.787ZM305.484 273.815C305.244 273.815 305.038 273.735 304.866 273.575C304.696 273.412 304.612 273.218 304.612 272.993C304.612 272.766 304.696 272.572 304.866 272.412C305.038 272.248 305.244 272.167 305.484 272.167C305.724 272.167 305.929 272.248 306.098 272.412C306.271 272.572 306.357 272.766 306.357 272.993C306.357 273.218 306.271 273.412 306.098 273.575C305.929 273.735 305.724 273.815 305.484 273.815ZM309.405 272.545V282H308.025V272.545H309.405ZM314.572 274.909V276.017H310.699V274.909H314.572ZM311.737 273.21H313.118V279.918C313.118 280.186 313.158 280.387 313.238 280.523C313.318 280.655 313.421 280.746 313.547 280.795C313.676 280.841 313.816 280.864 313.967 280.864C314.078 280.864 314.175 280.857 314.258 280.841C314.341 280.826 314.406 280.814 314.452 280.804L314.701 281.945C314.621 281.975 314.507 282.006 314.36 282.037C314.212 282.071 314.027 282.089 313.806 282.092C313.442 282.098 313.104 282.034 312.79 281.898C312.476 281.763 312.222 281.554 312.028 281.271C311.834 280.987 311.737 280.632 311.737 280.204V273.21ZM319.079 282.143C318.38 282.143 317.778 281.994 317.274 281.695C316.772 281.394 316.384 280.971 316.11 280.426C315.84 279.878 315.704 279.236 315.704 278.501C315.704 277.774 315.84 277.134 316.11 276.58C316.384 276.026 316.766 275.594 317.255 275.283C317.748 274.972 318.323 274.817 318.982 274.817C319.382 274.817 319.77 274.883 320.145 275.015C320.521 275.148 320.858 275.355 321.156 275.638C321.455 275.922 321.69 276.289 321.862 276.742C322.035 277.191 322.121 277.737 322.121 278.381V278.87H316.484V277.836H320.768C320.768 277.473 320.695 277.151 320.547 276.871C320.399 276.588 320.191 276.365 319.924 276.202C319.659 276.039 319.348 275.957 318.991 275.957C318.603 275.957 318.265 276.052 317.975 276.243C317.689 276.431 317.468 276.677 317.311 276.982C317.157 277.283 317.08 277.611 317.08 277.965V278.773C317.08 279.247 317.163 279.65 317.329 279.983C317.498 280.315 317.734 280.569 318.035 280.744C318.337 280.917 318.689 281.003 319.093 281.003C319.354 281.003 319.593 280.966 319.808 280.892C320.024 280.815 320.21 280.701 320.367 280.55C320.524 280.4 320.644 280.213 320.727 279.992L322.033 280.227C321.929 280.612 321.741 280.949 321.47 281.238C321.202 281.525 320.865 281.748 320.459 281.908C320.056 282.065 319.596 282.143 319.079 282.143ZM323.653 282V274.909H324.987V276.036H325.061C325.19 275.654 325.418 275.354 325.744 275.135C326.073 274.914 326.445 274.803 326.861 274.803C326.947 274.803 327.049 274.806 327.166 274.812C327.286 274.818 327.38 274.826 327.447 274.835V276.156C327.392 276.14 327.293 276.123 327.152 276.105C327.01 276.083 326.869 276.072 326.727 276.072C326.401 276.072 326.11 276.142 325.855 276.28C325.602 276.416 325.402 276.605 325.254 276.848C325.107 277.088 325.033 277.362 325.033 277.67V282H323.653Z" fill="#1A1A1A"/>
<path fill-rule="evenodd" clip-rule="evenodd" d="M551.59 279.588C551.264 279.913 550.737 279.913 550.411 279.588L546.001 275.177L541.59 279.588C541.264 279.913 540.737 279.913 540.411 279.588C540.086 279.263 540.086 278.735 540.411 278.409L545.411 273.409C545.737 273.084 546.264 273.084 546.59 273.409L551.59 278.409C551.915 278.735 551.915 279.263 551.59 279.588Z" fill="#9E9E9E"/>
<rect x="248.5" y="343.5" width="307" height="31" rx="1.5" fill="white"/>
<path d="M264.062 364H261.145V354.545H264.192C265.109 354.545 265.894 354.735 266.546 355.113C267.199 355.489 267.699 356.029 268.047 356.734C268.394 357.435 268.568 358.276 268.568 359.254C268.568 360.239 268.393 361.087 268.042 361.798C267.691 362.506 267.18 363.051 266.509 363.432C265.838 363.811 265.023 364 264.062 364ZM262.29 362.984H263.989C264.77 362.984 265.418 362.834 265.932 362.532C266.446 362.23 266.829 361.801 267.082 361.244C267.334 360.687 267.46 360.024 267.46 359.254C267.46 358.491 267.336 357.834 267.086 357.283C266.837 356.729 266.465 356.304 265.969 356.009C265.474 355.71 264.857 355.561 264.118 355.561H262.29V362.984ZM272.428 364.166C271.978 364.166 271.57 364.082 271.204 363.912C270.838 363.74 270.547 363.492 270.332 363.169C270.116 362.843 270.009 362.449 270.009 361.987C270.009 361.581 270.089 361.252 270.249 360.999C270.409 360.744 270.623 360.544 270.89 360.399C271.158 360.254 271.453 360.147 271.777 360.076C272.103 360.002 272.431 359.944 272.76 359.901C273.191 359.845 273.54 359.804 273.808 359.776C274.079 359.745 274.276 359.694 274.399 359.624C274.525 359.553 274.588 359.43 274.588 359.254V359.217C274.588 358.762 274.463 358.408 274.214 358.156C273.968 357.903 273.594 357.777 273.092 357.777C272.572 357.777 272.164 357.891 271.869 358.119C271.574 358.346 271.366 358.589 271.246 358.848L270.212 358.479C270.396 358.048 270.643 357.712 270.95 357.472C271.261 357.229 271.6 357.06 271.966 356.964C272.335 356.866 272.698 356.817 273.055 356.817C273.283 356.817 273.545 356.844 273.84 356.9C274.139 356.952 274.426 357.061 274.703 357.228C274.984 357.394 275.216 357.645 275.401 357.98C275.585 358.316 275.678 358.765 275.678 359.328V364H274.588V363.04H274.533C274.459 363.194 274.336 363.358 274.163 363.534C273.991 363.709 273.762 363.858 273.475 363.982C273.189 364.105 272.84 364.166 272.428 364.166ZM272.594 363.188C273.025 363.188 273.388 363.103 273.683 362.934C273.982 362.764 274.206 362.546 274.357 362.278C274.511 362.01 274.588 361.729 274.588 361.433V360.436C274.542 360.491 274.44 360.542 274.283 360.588C274.129 360.632 273.951 360.67 273.748 360.704C273.548 360.735 273.352 360.762 273.162 360.787C272.974 360.808 272.821 360.827 272.705 360.842C272.421 360.879 272.157 360.939 271.911 361.022C271.667 361.102 271.47 361.224 271.32 361.387C271.172 361.547 271.098 361.766 271.098 362.043C271.098 362.421 271.238 362.707 271.518 362.901C271.801 363.092 272.16 363.188 272.594 363.188ZM280.75 356.909V357.832H277.075V356.909H280.75ZM278.146 355.21H279.236V361.969C279.236 362.277 279.28 362.507 279.37 362.661C279.462 362.812 279.579 362.914 279.72 362.966C279.865 363.015 280.017 363.04 280.177 363.04C280.297 363.04 280.396 363.034 280.473 363.021C280.55 363.006 280.611 362.994 280.658 362.984L280.879 363.963C280.805 363.991 280.702 364.018 280.57 364.046C280.438 364.077 280.27 364.092 280.067 364.092C279.759 364.092 279.457 364.026 279.162 363.894C278.869 363.761 278.626 363.56 278.432 363.289C278.242 363.018 278.146 362.677 278.146 362.264V355.21ZM285.286 364.148C284.602 364.148 284.013 363.997 283.517 363.695C283.025 363.391 282.645 362.966 282.377 362.421C282.113 361.873 281.98 361.236 281.98 360.51C281.98 359.784 282.113 359.143 282.377 358.589C282.645 358.032 283.017 357.598 283.494 357.288C283.975 356.974 284.535 356.817 285.175 356.817C285.544 356.817 285.909 356.878 286.269 357.001C286.629 357.125 286.957 357.325 287.252 357.602C287.548 357.875 287.783 358.239 287.959 358.691C288.134 359.143 288.222 359.701 288.222 360.362V360.824H282.756V359.882H287.114C287.114 359.482 287.034 359.125 286.874 358.811C286.717 358.497 286.492 358.249 286.2 358.068C285.91 357.886 285.569 357.795 285.175 357.795C284.741 357.795 284.365 357.903 284.048 358.119C283.734 358.331 283.493 358.608 283.324 358.95C283.154 359.291 283.07 359.657 283.07 360.048V360.676C283.07 361.212 283.162 361.666 283.347 362.038C283.534 362.407 283.794 362.689 284.127 362.883C284.459 363.074 284.845 363.169 285.286 363.169C285.572 363.169 285.83 363.129 286.061 363.049C286.295 362.966 286.497 362.843 286.666 362.68C286.835 362.513 286.966 362.307 287.058 362.061L288.111 362.357C288 362.714 287.814 363.027 287.552 363.298C287.291 363.566 286.968 363.775 286.583 363.926C286.198 364.074 285.766 364.148 285.286 364.148Z" fill="#1F243D"/>
<path d="M318.376 364.999L317.301 363.924L322.251 358.974L317.301 354.024L318.376 352.949L324.401 358.974L318.376 364.999Z" fill="#959BA3"/>
<path d="M345.303 354.545V364H344.158V355.746H344.102L341.794 357.278V356.115L344.158 354.545H345.303ZM351.105 364.129C350.41 364.129 349.817 363.94 349.328 363.561C348.839 363.18 348.465 362.627 348.206 361.904C347.948 361.178 347.819 360.301 347.819 359.273C347.819 358.251 347.948 357.378 348.206 356.655C348.468 355.929 348.843 355.375 349.333 354.993C349.825 354.609 350.416 354.416 351.105 354.416C351.795 354.416 352.384 354.609 352.874 354.993C353.366 355.375 353.741 355.929 354 356.655C354.262 357.378 354.392 358.251 354.392 359.273C354.392 360.301 354.263 361.178 354.005 361.904C353.746 362.627 353.372 363.18 352.883 363.561C352.393 363.94 351.801 364.129 351.105 364.129ZM351.105 363.114C351.795 363.114 352.33 362.781 352.712 362.116C353.094 361.452 353.284 360.504 353.284 359.273C353.284 358.454 353.197 357.757 353.021 357.181C352.849 356.606 352.6 356.167 352.273 355.866C351.95 355.564 351.561 355.413 351.105 355.413C350.422 355.413 349.888 355.75 349.504 356.424C349.119 357.095 348.926 358.045 348.926 359.273C348.926 360.091 349.013 360.787 349.185 361.359C349.357 361.932 349.605 362.367 349.928 362.666C350.254 362.964 350.647 363.114 351.105 363.114ZM359.507 354.102L356.461 365.422H355.463L358.51 354.102H359.507ZM363.864 364.129C363.169 364.129 362.576 363.94 362.087 363.561C361.598 363.18 361.224 362.627 360.965 361.904C360.707 361.178 360.577 360.301 360.577 359.273C360.577 358.251 360.707 357.378 360.965 356.655C361.227 355.929 361.602 355.375 362.092 354.993C362.584 354.609 363.175 354.416 363.864 354.416C364.554 354.416 365.143 354.609 365.632 354.993C366.125 355.375 366.5 355.929 366.759 356.655C367.02 357.378 367.151 358.251 367.151 359.273C367.151 360.301 367.022 361.178 366.763 361.904C366.505 362.627 366.131 363.18 365.642 363.561C365.152 363.94 364.56 364.129 363.864 364.129ZM363.864 363.114C364.554 363.114 365.089 362.781 365.471 362.116C365.852 361.452 366.043 360.504 366.043 359.273C366.043 358.454 365.956 357.757 365.78 357.181C365.608 356.606 365.358 356.167 365.032 355.866C364.709 355.564 364.32 355.413 363.864 355.413C363.181 355.413 362.647 355.75 362.262 356.424C361.878 357.095 361.685 358.045 361.685 359.273C361.685 360.091 361.771 360.787 361.944 361.359C362.116 361.932 362.364 362.367 362.687 362.666C363.013 362.964 363.406 363.114 363.864 363.114ZM371.86 364.129C371.318 364.129 370.831 364.022 370.397 363.806C369.963 363.591 369.615 363.295 369.353 362.92C369.092 362.544 368.949 362.116 368.924 361.636H370.032C370.075 362.064 370.269 362.418 370.614 362.698C370.961 362.975 371.377 363.114 371.86 363.114C372.248 363.114 372.592 363.023 372.894 362.841C373.199 362.66 373.437 362.41 373.61 362.093C373.785 361.773 373.873 361.412 373.873 361.009C373.873 360.596 373.782 360.228 373.6 359.905C373.422 359.579 373.176 359.322 372.862 359.134C372.548 358.946 372.189 358.851 371.786 358.848C371.497 358.845 371.2 358.89 370.895 358.982C370.59 359.071 370.34 359.187 370.143 359.328L369.072 359.199L369.644 354.545H374.556V355.561H370.604L370.272 358.349H370.327C370.521 358.196 370.764 358.068 371.057 357.966C371.349 357.865 371.654 357.814 371.971 357.814C372.549 357.814 373.065 357.952 373.517 358.229C373.973 358.503 374.33 358.879 374.588 359.356C374.85 359.833 374.981 360.378 374.981 360.99C374.981 361.593 374.845 362.132 374.574 362.606C374.307 363.077 373.937 363.449 373.467 363.723C372.996 363.994 372.46 364.129 371.86 364.129ZM380.175 354.102L377.129 365.422H376.131L379.178 354.102H380.175ZM381.448 364V363.169L384.569 359.753C384.935 359.353 385.237 359.005 385.474 358.71C385.711 358.411 385.886 358.131 386 357.869C386.117 357.605 386.176 357.328 386.176 357.038C386.176 356.706 386.096 356.418 385.936 356.175C385.779 355.932 385.563 355.744 385.289 355.612C385.015 355.48 384.708 355.413 384.366 355.413C384.003 355.413 383.686 355.489 383.415 355.64C383.147 355.787 382.94 355.995 382.792 356.263C382.647 356.531 382.575 356.844 382.575 357.205H381.485C381.485 356.651 381.613 356.164 381.869 355.746C382.124 355.327 382.472 355.001 382.912 354.767C383.355 354.533 383.852 354.416 384.403 354.416C384.957 354.416 385.448 354.533 385.876 354.767C386.303 355.001 386.639 355.316 386.882 355.713C387.125 356.11 387.247 356.552 387.247 357.038C387.247 357.386 387.184 357.726 387.057 358.059C386.934 358.388 386.719 358.756 386.411 359.162C386.106 359.565 385.683 360.058 385.142 360.639L383.018 362.911V362.984H387.413V364H381.448ZM392.403 364.129C391.708 364.129 391.115 363.94 390.626 363.561C390.137 363.18 389.763 362.627 389.504 361.904C389.246 361.178 389.116 360.301 389.116 359.273C389.116 358.251 389.246 357.378 389.504 356.655C389.766 355.929 390.141 355.375 390.631 354.993C391.123 354.609 391.714 354.416 392.403 354.416C393.093 354.416 393.682 354.609 394.171 354.993C394.664 355.375 395.039 355.929 395.298 356.655C395.559 357.378 395.69 358.251 395.69 359.273C395.69 360.301 395.561 361.178 395.302 361.904C395.044 362.627 394.67 363.18 394.181 363.561C393.691 363.94 393.099 364.129 392.403 364.129ZM392.403 363.114C393.093 363.114 393.628 362.781 394.01 362.116C394.391 361.452 394.582 360.504 394.582 359.273C394.582 358.454 394.495 357.757 394.319 357.181C394.147 356.606 393.898 356.167 393.571 355.866C393.248 355.564 392.859 355.413 392.403 355.413C391.72 355.413 391.186 355.75 390.801 356.424C390.417 357.095 390.224 358.045 390.224 359.273C390.224 360.091 390.311 360.787 390.483 361.359C390.655 361.932 390.903 362.367 391.226 362.666C391.552 362.964 391.945 363.114 392.403 363.114ZM397.445 364V363.169L400.565 359.753C400.931 359.353 401.233 359.005 401.47 358.71C401.707 358.411 401.882 358.131 401.996 357.869C402.113 357.605 402.172 357.328 402.172 357.038C402.172 356.706 402.092 356.418 401.932 356.175C401.775 355.932 401.559 355.744 401.285 355.612C401.012 355.48 400.704 355.413 400.362 355.413C399.999 355.413 399.682 355.489 399.411 355.64C399.143 355.787 398.936 355.995 398.788 356.263C398.643 356.531 398.571 356.844 398.571 357.205H397.481C397.481 356.651 397.609 356.164 397.865 355.746C398.12 355.327 398.468 355.001 398.908 354.767C399.351 354.533 399.848 354.416 400.399 354.416C400.953 354.416 401.444 354.533 401.872 354.767C402.3 355.001 402.635 355.316 402.878 355.713C403.121 356.11 403.243 356.552 403.243 357.038C403.243 357.386 403.18 357.726 403.054 358.059C402.93 358.388 402.715 358.756 402.407 359.162C402.103 359.565 401.679 360.058 401.138 360.639L399.014 362.911V362.984H403.409V364H397.445ZM408.51 364.129C407.901 364.129 407.358 364.025 406.881 363.815C406.407 363.606 406.03 363.315 405.75 362.943C405.473 362.567 405.322 362.132 405.297 361.636H406.46C406.485 361.941 406.59 362.204 406.774 362.426C406.959 362.644 407.201 362.814 407.499 362.934C407.798 363.054 408.129 363.114 408.492 363.114C408.898 363.114 409.258 363.043 409.572 362.901C409.886 362.76 410.132 362.563 410.311 362.31C410.489 362.058 410.578 361.766 410.578 361.433C410.578 361.085 410.492 360.779 410.32 360.515C410.148 360.247 409.895 360.038 409.563 359.887C409.23 359.736 408.824 359.661 408.344 359.661H407.587V358.645H408.344C408.719 358.645 409.049 358.577 409.332 358.442C409.618 358.306 409.841 358.116 410.001 357.869C410.164 357.623 410.246 357.334 410.246 357.001C410.246 356.681 410.175 356.403 410.034 356.166C409.892 355.929 409.692 355.744 409.434 355.612C409.178 355.48 408.876 355.413 408.529 355.413C408.202 355.413 407.895 355.473 407.605 355.593C407.319 355.71 407.085 355.881 406.904 356.106C406.722 356.327 406.624 356.595 406.608 356.909H405.5C405.519 356.414 405.668 355.98 405.948 355.607C406.228 355.232 406.594 354.939 407.047 354.73C407.502 354.521 408.002 354.416 408.547 354.416C409.132 354.416 409.634 354.535 410.052 354.772C410.471 355.006 410.792 355.315 411.017 355.7C411.242 356.084 411.354 356.5 411.354 356.946C411.354 357.478 411.214 357.932 410.934 358.308C410.657 358.683 410.28 358.943 409.803 359.088V359.162C410.4 359.26 410.866 359.514 411.202 359.924C411.537 360.33 411.705 360.833 411.705 361.433C411.705 361.947 411.565 362.409 411.285 362.818C411.008 363.224 410.629 363.545 410.149 363.778C409.669 364.012 409.123 364.129 408.51 364.129ZM420.573 354.545V364H419.428V355.746H419.373L417.065 357.278V356.115L419.428 354.545H420.573ZM426.616 354.545V364H425.471V355.746H425.416L423.108 357.278V356.115L425.471 354.545H426.616ZM430.148 362.79C429.92 362.79 429.724 362.709 429.561 362.546C429.398 362.383 429.317 362.187 429.317 361.96C429.317 361.732 429.398 361.536 429.561 361.373C429.724 361.21 429.92 361.129 430.148 361.129C430.375 361.129 430.571 361.21 430.734 361.373C430.897 361.536 430.979 361.732 430.979 361.96C430.979 362.11 430.94 362.249 430.863 362.375C430.789 362.501 430.689 362.603 430.563 362.68C430.44 362.754 430.302 362.79 430.148 362.79ZM430.148 358.008C429.92 358.008 429.724 357.926 429.561 357.763C429.398 357.6 429.317 357.405 429.317 357.177C429.317 356.949 429.398 356.754 429.561 356.591C429.724 356.427 429.92 356.346 430.148 356.346C430.375 356.346 430.571 356.427 430.734 356.591C430.897 356.754 430.979 356.949 430.979 357.177C430.979 357.328 430.94 357.466 430.863 357.592C430.789 357.719 430.689 357.82 430.563 357.897C430.44 357.971 430.302 358.008 430.148 358.008ZM432.694 362.061V361.119L436.848 354.545H437.532V356.004H437.07L433.931 360.972V361.045H439.526V362.061H432.694ZM437.144 364V361.775V361.336V354.545H438.233V364H437.144ZM444.211 364.129C443.669 364.129 443.181 364.022 442.747 363.806C442.313 363.591 441.965 363.295 441.704 362.92C441.442 362.544 441.299 362.116 441.275 361.636H442.382C442.426 362.064 442.619 362.418 442.964 362.698C443.312 362.975 443.727 363.114 444.211 363.114C444.598 363.114 444.943 363.023 445.245 362.841C445.549 362.66 445.788 362.41 445.96 362.093C446.136 361.773 446.223 361.412 446.223 361.009C446.223 360.596 446.133 360.228 445.951 359.905C445.772 359.579 445.526 359.322 445.212 359.134C444.898 358.946 444.54 358.851 444.137 358.848C443.847 358.845 443.55 358.89 443.246 358.982C442.941 359.071 442.69 359.187 442.493 359.328L441.422 359.199L441.995 354.545H446.907V355.561H442.955L442.623 358.349H442.678C442.872 358.196 443.115 358.068 443.407 357.966C443.7 357.865 444.004 357.814 444.321 357.814C444.9 357.814 445.415 357.952 445.868 358.229C446.323 358.503 446.68 358.879 446.939 359.356C447.201 359.833 447.331 360.378 447.331 360.99C447.331 361.593 447.196 362.132 446.925 362.606C446.657 363.077 446.288 363.449 445.817 363.723C445.346 363.994 444.811 364.129 444.211 364.129ZM454.927 364.166C454.477 364.166 454.069 364.082 453.703 363.912C453.337 363.74 453.046 363.492 452.831 363.169C452.615 362.843 452.508 362.449 452.508 361.987C452.508 361.581 452.588 361.252 452.748 360.999C452.908 360.744 453.122 360.544 453.389 360.399C453.657 360.254 453.953 360.147 454.276 360.076C454.602 360.002 454.93 359.944 455.259 359.901C455.69 359.845 456.039 359.804 456.307 359.776C456.578 359.745 456.775 359.694 456.898 359.624C457.024 359.553 457.087 359.43 457.087 359.254V359.217C457.087 358.762 456.962 358.408 456.713 358.156C456.467 357.903 456.093 357.777 455.591 357.777C455.071 357.777 454.663 357.891 454.368 358.119C454.073 358.346 453.865 358.589 453.745 358.848L452.711 358.479C452.895 358.048 453.142 357.712 453.449 357.472C453.76 357.229 454.099 357.06 454.465 356.964C454.834 356.866 455.197 356.817 455.554 356.817C455.782 356.817 456.044 356.844 456.339 356.9C456.638 356.952 456.926 357.061 457.203 357.228C457.483 357.394 457.715 357.645 457.9 357.98C458.084 358.316 458.177 358.765 458.177 359.328V364H457.087V363.04H457.032C456.958 363.194 456.835 363.358 456.662 363.534C456.49 363.709 456.261 363.858 455.975 363.982C455.688 364.105 455.339 364.166 454.927 364.166ZM455.093 363.188C455.524 363.188 455.887 363.103 456.182 362.934C456.481 362.764 456.705 362.546 456.856 362.278C457.01 362.01 457.087 361.729 457.087 361.433V360.436C457.041 360.491 456.939 360.542 456.782 360.588C456.629 360.632 456.45 360.67 456.247 360.704C456.047 360.735 455.851 360.762 455.661 360.787C455.473 360.808 455.321 360.827 455.204 360.842C454.92 360.879 454.656 360.939 454.41 361.022C454.166 361.102 453.969 361.224 453.819 361.387C453.671 361.547 453.597 361.766 453.597 362.043C453.597 362.421 453.737 362.707 454.017 362.901C454.3 363.092 454.659 363.188 455.093 363.188ZM460.165 364V356.909H461.218V358.017H461.31C461.458 357.638 461.696 357.345 462.026 357.135C462.355 356.923 462.75 356.817 463.212 356.817C463.68 356.817 464.069 356.923 464.38 357.135C464.694 357.345 464.939 357.638 465.114 358.017H465.188C465.369 357.651 465.642 357.36 466.005 357.145C466.368 356.926 466.804 356.817 467.311 356.817C467.945 356.817 468.464 357.015 468.867 357.412C469.27 357.806 469.472 358.42 469.472 359.254V364H468.382V359.254C468.382 358.731 468.239 358.357 467.953 358.132C467.667 357.908 467.33 357.795 466.942 357.795C466.444 357.795 466.057 357.946 465.783 358.248C465.509 358.546 465.373 358.925 465.373 359.384V364H464.265V359.143C464.265 358.74 464.134 358.416 463.872 358.169C463.611 357.92 463.274 357.795 462.861 357.795C462.578 357.795 462.313 357.871 462.067 358.022C461.824 358.172 461.627 358.382 461.476 358.65C461.328 358.914 461.255 359.22 461.255 359.568V364H460.165ZM479.183 358.765V359.781H475.046V358.765H479.183ZM484.737 364V363.169L487.858 359.753C488.224 359.353 488.526 359.005 488.763 358.71C489 358.411 489.175 358.131 489.289 357.869C489.406 357.605 489.465 357.328 489.465 357.038C489.465 356.706 489.385 356.418 489.225 356.175C489.068 355.932 488.852 355.744 488.578 355.612C488.304 355.48 487.997 355.413 487.655 355.413C487.292 355.413 486.975 355.489 486.704 355.64C486.436 355.787 486.229 355.995 486.081 356.263C485.936 356.531 485.864 356.844 485.864 357.205H484.774C484.774 356.651 484.902 356.164 485.158 355.746C485.413 355.327 485.761 355.001 486.201 354.767C486.644 354.533 487.141 354.416 487.692 354.416C488.246 354.416 488.737 354.533 489.165 354.767C489.592 355.001 489.928 355.316 490.171 355.713C490.414 356.11 490.536 356.552 490.536 357.038C490.536 357.386 490.473 357.726 490.347 358.059C490.223 358.388 490.008 358.756 489.7 359.162C489.396 359.565 488.972 360.058 488.431 360.639L486.307 362.911V362.984H490.702V364H484.737ZM495.692 364.129C494.997 364.129 494.404 363.94 493.915 363.561C493.426 363.18 493.052 362.627 492.793 361.904C492.535 361.178 492.405 360.301 492.405 359.273C492.405 358.251 492.535 357.378 492.793 356.655C493.055 355.929 493.43 355.375 493.92 354.993C494.412 354.609 495.003 354.416 495.692 354.416C496.382 354.416 496.971 354.609 497.46 354.993C497.953 355.375 498.328 355.929 498.587 356.655C498.849 357.378 498.979 358.251 498.979 359.273C498.979 360.301 498.85 361.178 498.592 361.904C498.333 362.627 497.959 363.18 497.47 363.561C496.98 363.94 496.388 364.129 495.692 364.129ZM495.692 363.114C496.382 363.114 496.917 362.781 497.299 362.116C497.681 361.452 497.871 360.504 497.871 359.273C497.871 358.454 497.784 357.757 497.608 357.181C497.436 356.606 497.187 356.167 496.86 355.866C496.537 355.564 496.148 355.413 495.692 355.413C495.009 355.413 494.475 355.75 494.09 356.424C493.706 357.095 493.513 358.045 493.513 359.273C493.513 360.091 493.6 360.787 493.772 361.359C493.944 361.932 494.192 362.367 494.515 362.666C494.841 362.964 495.234 363.114 495.692 363.114ZM504.094 354.102L501.047 365.422H500.05L503.097 354.102H504.094ZM505.659 364.074C505.432 364.074 505.236 363.992 505.073 363.829C504.91 363.666 504.828 363.471 504.828 363.243C504.828 363.015 504.91 362.82 505.073 362.657C505.236 362.493 505.432 362.412 505.659 362.412C505.887 362.412 506.083 362.493 506.246 362.657C506.409 362.82 506.49 363.015 506.49 363.243C506.49 363.394 506.452 363.532 506.375 363.658C506.301 363.785 506.201 363.886 506.075 363.963C505.952 364.037 505.813 364.074 505.659 364.074ZM509.239 364.074C509.012 364.074 508.816 363.992 508.653 363.829C508.49 363.666 508.408 363.471 508.408 363.243C508.408 363.015 508.49 362.82 508.653 362.657C508.816 362.493 509.012 362.412 509.239 362.412C509.467 362.412 509.663 362.493 509.826 362.657C509.989 362.82 510.07 363.015 510.07 363.243C510.07 363.394 510.032 363.532 509.955 363.658C509.881 363.785 509.781 363.886 509.655 363.963C509.532 364.037 509.393 364.074 509.239 364.074ZM512.82 364.074C512.592 364.074 512.396 363.992 512.233 363.829C512.07 363.666 511.989 363.471 511.989 363.243C511.989 363.015 512.07 362.82 512.233 362.657C512.396 362.493 512.592 362.412 512.82 362.412C513.047 362.412 513.243 362.493 513.406 362.657C513.569 362.82 513.65 363.015 513.65 363.243C513.65 363.394 513.612 363.532 513.535 363.658C513.461 363.785 513.361 363.886 513.235 363.963C513.112 364.037 512.973 364.074 512.82 364.074Z" fill="#1F243D"/>
<path d="M544 355.806L543.194 355L540 358.194L536.806 355L536 355.806L539.194 359L536 362.194L536.806 363L540 359.806L543.194 363L544 362.194L540.806 359L544 355.806Z" fill="#959BA3"/>
<rect x="248.5" y="343.5" width="307" height="31" rx="1.5" stroke="#DADFE7"/>
<rect x="248.5" y="303.5" width="307" height="31" rx="1.5" fill="white"/>
<path d="M266.315 316.909C266.26 316.441 266.035 316.078 265.641 315.82C265.247 315.561 264.764 315.432 264.192 315.432C263.773 315.432 263.407 315.5 263.093 315.635C262.782 315.77 262.539 315.957 262.364 316.194C262.191 316.431 262.105 316.7 262.105 317.001C262.105 317.254 262.165 317.471 262.285 317.652C262.408 317.831 262.565 317.98 262.756 318.1C262.947 318.217 263.147 318.314 263.356 318.391C263.565 318.465 263.758 318.525 263.933 318.571L264.893 318.83C265.14 318.894 265.414 318.983 265.715 319.097C266.02 319.211 266.311 319.367 266.588 319.564C266.868 319.757 267.099 320.007 267.28 320.311C267.462 320.616 267.553 320.99 267.553 321.433C267.553 321.944 267.419 322.406 267.151 322.818C266.886 323.231 266.498 323.558 265.988 323.801C265.48 324.045 264.863 324.166 264.136 324.166C263.459 324.166 262.873 324.057 262.377 323.838C261.885 323.62 261.497 323.315 261.214 322.924C260.934 322.533 260.776 322.08 260.739 321.562H261.92C261.951 321.92 262.071 322.215 262.281 322.449C262.493 322.68 262.761 322.852 263.084 322.966C263.41 323.077 263.761 323.132 264.136 323.132C264.573 323.132 264.966 323.061 265.314 322.92C265.661 322.775 265.937 322.575 266.14 322.32C266.343 322.061 266.445 321.759 266.445 321.415C266.445 321.101 266.357 320.845 266.181 320.648C266.006 320.451 265.775 320.291 265.489 320.168C265.203 320.045 264.893 319.937 264.561 319.845L263.398 319.513C262.659 319.3 262.074 318.997 261.643 318.603C261.213 318.209 260.997 317.694 260.997 317.057C260.997 316.527 261.14 316.066 261.426 315.672C261.716 315.275 262.104 314.967 262.59 314.749C263.079 314.527 263.625 314.416 264.229 314.416C264.838 314.416 265.38 314.525 265.854 314.744C266.328 314.959 266.703 315.255 266.98 315.63C267.26 316.006 267.408 316.432 267.423 316.909H266.315ZM272.371 316.909V317.832H268.696V316.909H272.371ZM269.767 315.21H270.857V321.969C270.857 322.277 270.901 322.507 270.991 322.661C271.083 322.812 271.2 322.914 271.342 322.966C271.486 323.015 271.639 323.04 271.799 323.04C271.919 323.04 272.017 323.034 272.094 323.021C272.171 323.006 272.233 322.994 272.279 322.984L272.5 323.963C272.426 323.991 272.323 324.018 272.191 324.046C272.059 324.077 271.891 324.092 271.688 324.092C271.38 324.092 271.078 324.026 270.783 323.894C270.491 323.761 270.247 323.56 270.054 323.289C269.863 323.018 269.767 322.677 269.767 322.264V315.21ZM276.097 324.166C275.647 324.166 275.239 324.082 274.873 323.912C274.507 323.74 274.216 323.492 274.001 323.169C273.785 322.843 273.677 322.449 273.677 321.987C273.677 321.581 273.757 321.252 273.918 320.999C274.078 320.744 274.291 320.544 274.559 320.399C274.827 320.254 275.122 320.147 275.446 320.076C275.772 320.002 276.1 319.944 276.429 319.901C276.86 319.845 277.209 319.804 277.477 319.776C277.748 319.745 277.945 319.694 278.068 319.624C278.194 319.553 278.257 319.43 278.257 319.254V319.217C278.257 318.762 278.132 318.408 277.883 318.156C277.637 317.903 277.263 317.777 276.761 317.777C276.241 317.777 275.833 317.891 275.538 318.119C275.242 318.346 275.035 318.589 274.915 318.848L273.881 318.479C274.065 318.048 274.311 317.712 274.619 317.472C274.93 317.229 275.269 317.06 275.635 316.964C276.004 316.866 276.367 316.817 276.724 316.817C276.952 316.817 277.214 316.844 277.509 316.9C277.808 316.952 278.095 317.061 278.372 317.228C278.652 317.394 278.885 317.645 279.07 317.98C279.254 318.316 279.347 318.765 279.347 319.328V324H278.257V323.04H278.202C278.128 323.194 278.005 323.358 277.832 323.534C277.66 323.709 277.431 323.858 277.144 323.982C276.858 324.105 276.509 324.166 276.097 324.166ZM276.263 323.188C276.694 323.188 277.057 323.103 277.352 322.934C277.651 322.764 277.875 322.546 278.026 322.278C278.18 322.01 278.257 321.729 278.257 321.433V320.436C278.211 320.491 278.109 320.542 277.952 320.588C277.798 320.632 277.62 320.67 277.417 320.704C277.217 320.735 277.021 320.762 276.831 320.787C276.643 320.808 276.49 320.827 276.373 320.842C276.09 320.879 275.826 320.939 275.579 321.022C275.336 321.102 275.139 321.224 274.989 321.387C274.841 321.547 274.767 321.766 274.767 322.043C274.767 322.421 274.907 322.707 275.187 322.901C275.47 323.092 275.829 323.188 276.263 323.188ZM284.419 316.909V317.832H280.744V316.909H284.419ZM281.815 315.21H282.905V321.969C282.905 322.277 282.949 322.507 283.039 322.661C283.131 322.812 283.248 322.914 283.389 322.966C283.534 323.015 283.686 323.04 283.846 323.04C283.966 323.04 284.065 323.034 284.142 323.021C284.219 323.006 284.28 322.994 284.327 322.984L284.548 323.963C284.474 323.991 284.371 324.018 284.239 324.046C284.106 324.077 283.939 324.092 283.736 324.092C283.428 324.092 283.126 324.026 282.831 323.894C282.538 323.761 282.295 323.56 282.101 323.289C281.911 323.018 281.815 322.677 281.815 322.264V315.21ZM290.526 321.101V316.909H291.616V324H290.526V322.8H290.453C290.286 323.16 290.028 323.466 289.677 323.718C289.326 323.968 288.883 324.092 288.347 324.092C287.904 324.092 287.51 323.995 287.166 323.801C286.821 323.605 286.55 323.309 286.353 322.915C286.156 322.518 286.058 322.018 286.058 321.415V316.909H287.147V321.341C287.147 321.858 287.292 322.27 287.581 322.578C287.874 322.886 288.246 323.04 288.698 323.04C288.969 323.04 289.245 322.971 289.525 322.832C289.808 322.694 290.045 322.481 290.236 322.195C290.43 321.909 290.526 321.544 290.526 321.101ZM298.634 318.497L297.655 318.774C297.594 318.611 297.503 318.453 297.383 318.299C297.266 318.142 297.106 318.012 296.903 317.911C296.7 317.809 296.44 317.759 296.123 317.759C295.689 317.759 295.327 317.859 295.038 318.059C294.752 318.256 294.609 318.506 294.609 318.811C294.609 319.082 294.707 319.296 294.904 319.453C295.101 319.61 295.409 319.741 295.827 319.845L296.88 320.104C297.514 320.258 297.986 320.493 298.297 320.81C298.608 321.124 298.763 321.529 298.763 322.024C298.763 322.43 298.646 322.794 298.413 323.114C298.182 323.434 297.859 323.686 297.443 323.871C297.028 324.055 296.544 324.148 295.994 324.148C295.27 324.148 294.672 323.991 294.198 323.677C293.724 323.363 293.424 322.904 293.297 322.301L294.332 322.043C294.43 322.424 294.616 322.71 294.89 322.901C295.167 323.092 295.529 323.188 295.975 323.188C296.483 323.188 296.886 323.08 297.185 322.864C297.486 322.646 297.637 322.384 297.637 322.08C297.637 321.833 297.551 321.627 297.378 321.461C297.206 321.292 296.941 321.165 296.584 321.082L295.403 320.805C294.753 320.652 294.276 320.413 293.972 320.09C293.67 319.764 293.519 319.356 293.519 318.866C293.519 318.466 293.631 318.112 293.856 317.805C294.084 317.497 294.393 317.255 294.784 317.08C295.178 316.904 295.624 316.817 296.123 316.817C296.824 316.817 297.375 316.971 297.775 317.278C298.179 317.586 298.465 317.992 298.634 318.497Z" fill="#1F243D"/>
<path d="M318.376 324.999L317.301 323.924L322.251 318.974L317.301 314.024L318.376 312.949L324.401 318.974L318.376 324.999Z" fill="#959BA3"/>
<path d="M343.29 314.545V324H342.145V314.545H343.29ZM346.527 319.734V324H345.438V316.909H346.49V318.017H346.582C346.749 317.657 347.001 317.368 347.34 317.149C347.678 316.928 348.115 316.817 348.651 316.817C349.131 316.817 349.551 316.915 349.911 317.112C350.271 317.306 350.551 317.602 350.751 317.999C350.951 318.393 351.051 318.891 351.051 319.494V324H349.962V319.568C349.962 319.011 349.817 318.577 349.528 318.266C349.238 317.952 348.841 317.795 348.337 317.795C347.989 317.795 347.678 317.871 347.404 318.022C347.133 318.172 346.919 318.393 346.763 318.682C346.606 318.971 346.527 319.322 346.527 319.734ZM356.846 324V314.545H360.041C360.782 314.545 361.389 314.679 361.86 314.947C362.334 315.212 362.684 315.57 362.912 316.023C363.14 316.475 363.254 316.98 363.254 317.537C363.254 318.094 363.14 318.6 362.912 319.056C362.687 319.511 362.34 319.874 361.869 320.145C361.398 320.413 360.795 320.547 360.059 320.547H357.769V319.531H360.022C360.53 319.531 360.938 319.444 361.246 319.268C361.553 319.093 361.776 318.856 361.915 318.557C362.057 318.256 362.127 317.915 362.127 317.537C362.127 317.158 362.057 316.82 361.915 316.521C361.776 316.223 361.552 315.989 361.241 315.82C360.93 315.647 360.518 315.561 360.004 315.561H357.991V324H356.846ZM364.95 324V316.909H366.003V317.98H366.077C366.206 317.629 366.44 317.345 366.778 317.126C367.117 316.908 367.499 316.798 367.923 316.798C368.003 316.798 368.103 316.8 368.223 316.803C368.343 316.806 368.434 316.811 368.496 316.817V317.925C368.459 317.915 368.374 317.902 368.242 317.883C368.113 317.862 367.976 317.851 367.831 317.851C367.486 317.851 367.179 317.923 366.908 318.068C366.64 318.209 366.428 318.406 366.271 318.659C366.117 318.908 366.04 319.193 366.04 319.513V324H364.95ZM372.452 324.148C371.812 324.148 371.25 323.995 370.767 323.691C370.287 323.386 369.911 322.96 369.641 322.412C369.373 321.864 369.239 321.224 369.239 320.491C369.239 319.753 369.373 319.108 369.641 318.557C369.911 318.006 370.287 317.578 370.767 317.274C371.25 316.969 371.812 316.817 372.452 316.817C373.092 316.817 373.652 316.969 374.132 317.274C374.616 317.578 374.991 318.006 375.259 318.557C375.53 319.108 375.665 319.753 375.665 320.491C375.665 321.224 375.53 321.864 375.259 322.412C374.991 322.96 374.616 323.386 374.132 323.691C373.652 323.995 373.092 324.148 372.452 324.148ZM372.452 323.169C372.938 323.169 373.338 323.044 373.652 322.795C373.966 322.546 374.199 322.218 374.349 321.812C374.5 321.406 374.576 320.965 374.576 320.491C374.576 320.018 374.5 319.576 374.349 319.167C374.199 318.757 373.966 318.426 373.652 318.174C373.338 317.922 372.938 317.795 372.452 317.795C371.966 317.795 371.566 317.922 371.252 318.174C370.938 318.426 370.705 318.757 370.555 319.167C370.404 319.576 370.328 320.018 370.328 320.491C370.328 320.965 370.404 321.406 370.555 321.812C370.705 322.218 370.938 322.546 371.252 322.795C371.566 323.044 371.966 323.169 372.452 323.169ZM380.19 326.807C379.664 326.807 379.212 326.739 378.833 326.604C378.455 326.471 378.139 326.296 377.887 326.077C377.638 325.862 377.439 325.631 377.291 325.385L378.159 324.776C378.258 324.905 378.382 325.053 378.533 325.219C378.684 325.388 378.89 325.534 379.152 325.657C379.416 325.783 379.763 325.847 380.19 325.847C380.763 325.847 381.235 325.708 381.608 325.431C381.98 325.154 382.166 324.72 382.166 324.129V322.689H382.074C381.994 322.818 381.88 322.978 381.732 323.169C381.588 323.357 381.378 323.525 381.104 323.672C380.834 323.817 380.467 323.889 380.006 323.889C379.433 323.889 378.919 323.754 378.464 323.483C378.011 323.212 377.653 322.818 377.388 322.301C377.127 321.784 376.996 321.156 376.996 320.418C376.996 319.691 377.124 319.059 377.379 318.52C377.634 317.979 377.99 317.56 378.445 317.265C378.901 316.966 379.427 316.817 380.024 316.817C380.486 316.817 380.852 316.894 381.123 317.048C381.397 317.198 381.606 317.371 381.751 317.565C381.899 317.755 382.012 317.912 382.092 318.036H382.203V316.909H383.256V324.203C383.256 324.812 383.117 325.308 382.84 325.69C382.566 326.074 382.197 326.356 381.732 326.534C381.271 326.716 380.757 326.807 380.19 326.807ZM380.153 322.911C380.591 322.911 380.96 322.81 381.261 322.61C381.563 322.41 381.792 322.123 381.949 321.747C382.106 321.372 382.185 320.922 382.185 320.399C382.185 319.888 382.108 319.437 381.954 319.047C381.8 318.656 381.572 318.349 381.271 318.128C380.969 317.906 380.597 317.795 380.153 317.795C379.692 317.795 379.307 317.912 378.999 318.146C378.695 318.38 378.465 318.694 378.312 319.088C378.161 319.482 378.085 319.919 378.085 320.399C378.085 320.892 378.162 321.327 378.316 321.706C378.473 322.081 378.704 322.377 379.009 322.592C379.316 322.804 379.698 322.911 380.153 322.911ZM385.25 324V316.909H386.303V317.98H386.377C386.506 317.629 386.74 317.345 387.078 317.126C387.417 316.908 387.798 316.798 388.223 316.798C388.303 316.798 388.403 316.8 388.523 316.803C388.643 316.806 388.734 316.811 388.796 316.817V317.925C388.759 317.915 388.674 317.902 388.542 317.883C388.412 317.862 388.275 317.851 388.131 317.851C387.786 317.851 387.478 317.923 387.207 318.068C386.94 318.209 386.727 318.406 386.57 318.659C386.417 318.908 386.34 319.193 386.34 319.513V324H385.25ZM392.844 324.148C392.161 324.148 391.572 323.997 391.076 323.695C390.584 323.391 390.204 322.966 389.936 322.421C389.671 321.873 389.539 321.236 389.539 320.51C389.539 319.784 389.671 319.143 389.936 318.589C390.204 318.032 390.576 317.598 391.053 317.288C391.533 316.974 392.093 316.817 392.733 316.817C393.103 316.817 393.467 316.878 393.828 317.001C394.188 317.125 394.515 317.325 394.811 317.602C395.106 317.875 395.342 318.239 395.517 318.691C395.693 319.143 395.78 319.701 395.78 320.362V320.824H390.314V319.882H394.672C394.672 319.482 394.592 319.125 394.432 318.811C394.275 318.497 394.051 318.249 393.758 318.068C393.469 317.886 393.127 317.795 392.733 317.795C392.299 317.795 391.924 317.903 391.607 318.119C391.293 318.331 391.051 318.608 390.882 318.95C390.713 319.291 390.628 319.657 390.628 320.048V320.676C390.628 321.212 390.721 321.666 390.905 322.038C391.093 322.407 391.353 322.689 391.685 322.883C392.018 323.074 392.404 323.169 392.844 323.169C393.13 323.169 393.389 323.129 393.62 323.049C393.854 322.966 394.055 322.843 394.225 322.68C394.394 322.513 394.525 322.307 394.617 322.061L395.669 322.357C395.559 322.714 395.372 323.027 395.111 323.298C394.849 323.566 394.526 323.775 394.141 323.926C393.757 324.074 393.324 324.148 392.844 324.148ZM402.46 318.497L401.482 318.774C401.42 318.611 401.329 318.453 401.209 318.299C401.092 318.142 400.932 318.012 400.729 317.911C400.526 317.809 400.266 317.759 399.949 317.759C399.515 317.759 399.153 317.859 398.864 318.059C398.578 318.256 398.435 318.506 398.435 318.811C398.435 319.082 398.533 319.296 398.73 319.453C398.927 319.61 399.235 319.741 399.653 319.845L400.706 320.104C401.34 320.258 401.812 320.493 402.123 320.81C402.434 321.124 402.59 321.529 402.59 322.024C402.59 322.43 402.473 322.794 402.239 323.114C402.008 323.434 401.685 323.686 401.269 323.871C400.854 324.055 400.371 324.148 399.82 324.148C399.096 324.148 398.498 323.991 398.024 323.677C397.55 323.363 397.25 322.904 397.124 322.301L398.158 322.043C398.256 322.424 398.442 322.71 398.716 322.901C398.993 323.092 399.355 323.188 399.801 323.188C400.309 323.188 400.712 323.08 401.011 322.864C401.312 322.646 401.463 322.384 401.463 322.08C401.463 321.833 401.377 321.627 401.205 321.461C401.032 321.292 400.768 321.165 400.411 321.082L399.229 320.805C398.579 320.652 398.102 320.413 397.798 320.09C397.496 319.764 397.345 319.356 397.345 318.866C397.345 318.466 397.458 318.112 397.682 317.805C397.91 317.497 398.219 317.255 398.61 317.08C399.004 316.904 399.45 316.817 399.949 316.817C400.651 316.817 401.202 316.971 401.602 317.278C402.005 317.586 402.291 317.992 402.46 318.497ZM409.252 318.497L408.274 318.774C408.212 318.611 408.121 318.453 408.001 318.299C407.884 318.142 407.724 318.012 407.521 317.911C407.318 317.809 407.058 317.759 406.741 317.759C406.307 317.759 405.945 317.859 405.656 318.059C405.37 318.256 405.227 318.506 405.227 318.811C405.227 319.082 405.325 319.296 405.522 319.453C405.719 319.61 406.027 319.741 406.445 319.845L407.498 320.104C408.132 320.258 408.604 320.493 408.915 320.81C409.226 321.124 409.382 321.529 409.382 322.024C409.382 322.43 409.265 322.794 409.031 323.114C408.8 323.434 408.477 323.686 408.061 323.871C407.646 324.055 407.163 324.148 406.612 324.148C405.888 324.148 405.29 323.991 404.816 323.677C404.342 323.363 404.042 322.904 403.916 322.301L404.95 322.043C405.048 322.424 405.234 322.71 405.508 322.901C405.785 323.092 406.147 323.188 406.593 323.188C407.101 323.188 407.504 323.08 407.803 322.864C408.104 322.646 408.255 322.384 408.255 322.08C408.255 321.833 408.169 321.627 407.997 321.461C407.824 321.292 407.56 321.165 407.203 321.082L406.021 320.805C405.371 320.652 404.894 320.413 404.59 320.09C404.288 319.764 404.137 319.356 404.137 318.866C404.137 318.466 404.25 318.112 404.474 317.805C404.702 317.497 405.011 317.255 405.402 317.08C405.796 316.904 406.242 316.817 406.741 316.817C407.443 316.817 407.994 316.971 408.394 317.278C408.797 317.586 409.083 317.992 409.252 318.497Z" fill="#1F243D"/>
<path d="M544 315.806L543.194 315L540 318.194L536.806 315L536 315.806L539.194 319L536 322.194L536.806 323L540 319.806L543.194 323L544 322.194L540.806 319L544 315.806Z" fill="#959BA3"/>
<rect x="248.5" y="303.5" width="307" height="31" rx="1.5" stroke="#DADFE7"/>
<rect x="224" y="391" width="356" height="1" fill="#EEF0F3"/>
<defs>
<filter id="filter0_d_880_12439" x="219" y="28" width="366" height="368" filterUnits="userSpaceOnUse" color-interpolation-filters="sRGB">
<feFlood flood-opacity="0" result="BackgroundImageFix"/>
<feColorMatrix in="SourceAlpha" type="matrix" values="0 0 0 0 0 0 0 0 0 0 0 0 0 0 0 0 0 0 127 0" result="hardAlpha"/>
<feOffset dy="2"/>
<feGaussianBlur stdDeviation="2.5"/>
<feColorMatrix type="matrix" values="0 0 0 0 0 0 0 0 0 0 0 0 0 0 0 0 0 0 0.04 0"/>
<feBlend mode="normal" in2="BackgroundImageFix" result="effect1_dropShadow_880_12439"/>
<feBlend mode="normal" in="SourceGraphic" in2="effect1_dropShadow_880_12439" result="shape"/>
</filter>
<clipPath id="clip0_880_12439">
<rect width="332" height="65" fill="white" transform="translate(248 80)"/>
</clipPath>
</defs>
</svg>
