<svg width="803" height="275" viewBox="0 0 803 275" fill="none" xmlns="http://www.w3.org/2000/svg">
<rect width="803" height="275" fill="#F9FAFB"/>
<circle cx="338.066" cy="93.9043" r="8.06638" fill="#D8DEE9"/>
<rect x="330" y="117.838" width="37.1054" height="4.03319" rx="0.363513" fill="#D8DEE9"/>
<rect x="330" y="124.291" width="37.1054" height="4.03319" rx="0.363513" fill="#D8DEE9"/>
<rect x="330" y="143.838" width="37.1054" height="12.0996" rx="0.727026" fill="#217CF5"/>
<path d="M398.425 116.21C398.425 116.21 398.425 116.21 398.424 116.209L395.955 113.752C395.77 113.568 395.47 113.568 395.286 113.753C395.102 113.938 395.103 114.238 395.288 114.422L396.946 116.072H386.937C386.675 116.072 386.464 116.283 386.464 116.544C386.464 116.805 386.675 117.017 386.937 117.017H396.946L395.288 118.667C395.103 118.851 395.102 119.15 395.286 119.335C395.471 119.521 395.77 119.521 395.955 119.337L398.424 116.879C398.425 116.879 398.425 116.879 398.425 116.879C398.61 116.694 398.609 116.394 398.425 116.21Z" fill="#9BA0A5"/>
<path d="M518.615 116.21C518.615 116.21 518.615 116.21 518.615 116.209L516.145 113.752C515.96 113.568 515.661 113.568 515.477 113.753C515.293 113.938 515.293 114.238 515.478 114.422L517.136 116.072H507.127C506.866 116.072 506.654 116.283 506.654 116.544C506.654 116.805 506.866 117.017 507.127 117.017H517.136L515.478 118.667C515.293 118.851 515.293 119.15 515.477 119.335C515.661 119.521 515.96 119.521 516.145 119.337L518.615 116.879C518.615 116.879 518.615 116.879 518.615 116.879C518.8 116.694 518.8 116.394 518.615 116.21Z" fill="#9BA0A5"/>
<path d="M638.804 116.21C638.804 116.21 638.803 116.21 638.803 116.209L636.334 113.752C636.149 113.568 635.849 113.568 635.665 113.753C635.481 113.938 635.482 114.238 635.667 114.422L637.325 116.072H627.315C627.054 116.072 626.843 116.283 626.843 116.544C626.843 116.805 627.054 117.017 627.315 117.017H637.325L635.667 118.667C635.482 118.851 635.481 119.15 635.665 119.335C635.849 119.521 636.149 119.521 636.334 119.337L638.803 116.879C638.803 116.879 638.804 116.879 638.804 116.879C638.989 116.694 638.988 116.394 638.804 116.21Z" fill="#9BA0A5"/>
<rect x="417.923" y="102.724" width="69.3709" height="27.4257" rx="0.727026" fill="#217CF5"/>
<rect x="443.735" y="111.194" width="37.1054" height="4.03319" rx="0.363513" fill="#EAECF0"/>
<rect x="443.735" y="117.647" width="37.1054" height="4.03319" rx="0.363513" fill="#EAECF0"/>
<circle cx="432.442" cy="116.437" r="8.06638" fill="#EAECF0"/>
<rect x="537.709" y="102.724" width="69.3709" height="27.4257" rx="0.727026" fill="#217CF5"/>
<rect x="563.521" y="111.194" width="37.1054" height="4.03319" rx="0.363513" fill="#EAECF0"/>
<rect x="563.521" y="117.647" width="37.1054" height="4.03319" rx="0.363513" fill="#EAECF0"/>
<circle cx="552.229" cy="116.437" r="8.06638" fill="#EAECF0"/>
<rect x="537.709" y="68.8456" width="69.3709" height="27.4257" rx="0.727026" fill="#217CF5"/>
<rect x="563.521" y="77.3152" width="37.1054" height="4.03319" rx="0.363513" fill="#EAECF0"/>
<rect x="563.521" y="83.7683" width="37.1054" height="4.03319" rx="0.363513" fill="#EAECF0"/>
<circle cx="552.229" cy="82.5584" r="8.06638" fill="#EAECF0"/>
<rect x="537.709" y="136.603" width="69.3709" height="27.4257" rx="0.727026" fill="#217CF5"/>
<rect x="563.521" y="145.073" width="37.1054" height="4.03319" rx="0.363513" fill="#EAECF0"/>
<rect x="563.521" y="151.526" width="37.1054" height="4.03319" rx="0.363513" fill="#EAECF0"/>
<circle cx="552.229" cy="150.316" r="8.06638" fill="#EAECF0"/>
<rect x="666.368" y="124.504" width="69.3709" height="27.4257" rx="0.727026" fill="#217CF5"/>
<rect x="692.18" y="132.973" width="37.1054" height="4.03319" rx="0.363513" fill="#EAECF0"/>
<rect x="692.18" y="139.427" width="37.1054" height="4.03319" rx="0.363513" fill="#EAECF0"/>
<circle cx="680.887" cy="138.217" r="8.06638" fill="#EAECF0"/>
<rect x="666.368" y="90.6249" width="69.3709" height="27.4257" rx="0.727026" fill="#217CF5"/>
<rect x="692.18" y="99.0946" width="37.1054" height="4.03319" rx="0.363513" fill="#EAECF0"/>
<rect x="692.18" y="105.548" width="37.1054" height="4.03319" rx="0.363513" fill="#EAECF0"/>
<circle cx="680.887" cy="104.338" r="8.06638" fill="#EAECF0"/>
<rect x="666.368" y="158.382" width="69.3709" height="27.4257" rx="0.727026" fill="#217CF5"/>
<rect x="692.18" y="166.852" width="37.1054" height="4.03319" rx="0.363513" fill="#EAECF0"/>
<rect x="692.18" y="173.305" width="37.1054" height="4.03319" rx="0.363513" fill="#EAECF0"/>
<circle cx="680.887" cy="172.095" r="8.06638" fill="#EAECF0"/>
<rect x="658.484" y="39.1818" width="85.1401" height="154.511" rx="3.45337" stroke="#217CF5" stroke-width="0.363513"/>
<circle cx="674.434" cy="55.1328" r="8.06638" fill="#217CF5"/>
<rect x="666.368" y="69.6522" width="50.4149" height="4.03319" rx="0.363513" fill="#217CF5"/>
<rect x="666.368" y="76.1053" width="69.3709" height="4.03319" rx="0.363513" fill="#217CF5"/>
<path d="M332.399 230.074H331.087L334.036 221.878H335.465L338.414 230.074H337.101L334.784 223.367H334.72L332.399 230.074ZM332.619 226.864H336.877V227.905H332.619V226.864ZM341.986 223.927V224.887H338.628V223.927H341.986ZM339.528 222.454H340.725V228.269C340.725 228.501 340.76 228.676 340.829 228.793C340.898 228.908 340.988 228.987 341.097 229.029C341.209 229.069 341.331 229.089 341.461 229.089C341.557 229.089 341.641 229.083 341.713 229.069C341.785 229.056 341.841 229.045 341.881 229.037L342.098 230.026C342.028 230.052 341.929 230.079 341.801 230.106C341.673 230.135 341.513 230.151 341.321 230.154C341.006 230.159 340.713 230.103 340.441 229.986C340.169 229.868 339.949 229.687 339.781 229.441C339.612 229.196 339.528 228.888 339.528 228.517V222.454ZM345.832 230.198C345.256 230.198 344.753 230.066 344.324 229.802C343.894 229.537 343.561 229.168 343.323 228.693C343.086 228.218 342.967 227.663 342.967 227.028C342.967 226.391 343.086 225.833 343.323 225.356C343.561 224.878 343.894 224.507 344.324 224.243C344.753 223.979 345.256 223.847 345.832 223.847C346.408 223.847 346.911 223.979 347.341 224.243C347.77 224.507 348.104 224.878 348.341 225.356C348.579 225.833 348.697 226.391 348.697 227.028C348.697 227.663 348.579 228.218 348.341 228.693C348.104 229.168 347.77 229.537 347.341 229.802C346.911 230.066 346.408 230.198 345.832 230.198ZM345.836 229.193C346.21 229.193 346.519 229.095 346.765 228.897C347.01 228.7 347.191 228.437 347.309 228.109C347.429 227.781 347.489 227.419 347.489 227.024C347.489 226.632 347.429 226.272 347.309 225.944C347.191 225.613 347.01 225.348 346.765 225.148C346.519 224.948 346.21 224.847 345.836 224.847C345.46 224.847 345.148 224.948 344.9 225.148C344.654 225.348 344.472 225.613 344.352 225.944C344.234 226.272 344.175 226.632 344.175 227.024C344.175 227.419 344.234 227.781 344.352 228.109C344.472 228.437 344.654 228.7 344.9 228.897C345.148 229.095 345.46 229.193 345.836 229.193ZM350.033 230.074V223.927H351.182V224.927H351.258C351.386 224.589 351.595 224.325 351.886 224.135C352.177 223.943 352.525 223.847 352.93 223.847C353.341 223.847 353.685 223.943 353.963 224.135C354.243 224.327 354.45 224.591 354.583 224.927H354.647C354.794 224.599 355.027 224.338 355.347 224.143C355.667 223.946 356.049 223.847 356.492 223.847C357.049 223.847 357.504 224.022 357.856 224.371C358.211 224.721 358.389 225.248 358.389 225.952V230.074H357.192V226.064C357.192 225.648 357.079 225.346 356.852 225.16C356.625 224.973 356.354 224.879 356.04 224.879C355.65 224.879 355.347 225 355.131 225.24C354.915 225.477 354.807 225.783 354.807 226.156V230.074H353.615V225.988C353.615 225.654 353.511 225.386 353.302 225.184C353.094 224.981 352.824 224.879 352.49 224.879C352.263 224.879 352.054 224.939 351.862 225.06C351.672 225.177 351.519 225.341 351.402 225.552C351.287 225.763 351.23 226.007 351.23 226.284V230.074H350.033ZM364.598 225.428L363.514 225.62C363.469 225.481 363.396 225.349 363.298 225.224C363.202 225.098 363.071 224.996 362.906 224.915C362.74 224.835 362.533 224.795 362.285 224.795C361.947 224.795 361.664 224.871 361.437 225.024C361.21 225.173 361.097 225.366 361.097 225.604C361.097 225.809 361.173 225.975 361.325 226.1C361.477 226.225 361.722 226.328 362.061 226.408L363.038 226.632C363.603 226.763 364.025 226.964 364.302 227.236C364.58 227.509 364.718 227.862 364.718 228.297C364.718 228.665 364.612 228.993 364.398 229.281C364.187 229.567 363.893 229.791 363.514 229.954C363.138 230.116 362.702 230.198 362.205 230.198C361.517 230.198 360.955 230.051 360.521 229.758C360.086 229.461 359.819 229.041 359.72 228.497L360.877 228.321C360.949 228.622 361.097 228.851 361.321 229.005C361.545 229.157 361.837 229.233 362.197 229.233C362.589 229.233 362.903 229.152 363.138 228.989C363.372 228.824 363.49 228.622 363.49 228.385C363.49 228.193 363.418 228.032 363.274 227.901C363.132 227.77 362.915 227.671 362.621 227.605L361.581 227.377C361.007 227.246 360.583 227.038 360.308 226.752C360.036 226.467 359.9 226.105 359.9 225.668C359.9 225.305 360.002 224.988 360.204 224.715C360.407 224.443 360.687 224.231 361.045 224.079C361.402 223.924 361.812 223.847 362.273 223.847C362.938 223.847 363.461 223.991 363.842 224.279C364.224 224.565 364.476 224.948 364.598 225.428Z" fill="#484D57"/>
<path d="M429.47 221.642H430.97L433.58 228.013H433.676L436.285 221.642H437.785V229.838H436.609V223.907H436.533L434.116 229.826H433.139L430.722 223.903H430.646V229.838H429.47V221.642ZM442.076 229.962C441.5 229.962 440.997 229.83 440.568 229.566C440.138 229.302 439.805 228.932 439.567 228.457C439.33 227.983 439.211 227.428 439.211 226.793C439.211 226.155 439.33 225.598 439.567 225.12C439.805 224.642 440.138 224.272 440.568 224.007C440.997 223.743 441.5 223.611 442.076 223.611C442.652 223.611 443.155 223.743 443.585 224.007C444.014 224.272 444.348 224.642 444.585 225.12C444.823 225.598 444.941 226.155 444.941 226.793C444.941 227.428 444.823 227.983 444.585 228.457C444.348 228.932 444.014 229.302 443.585 229.566C443.155 229.83 442.652 229.962 442.076 229.962ZM442.08 228.958C442.454 228.958 442.763 228.859 443.009 228.662C443.254 228.464 443.435 228.201 443.553 227.873C443.673 227.545 443.733 227.184 443.733 226.789C443.733 226.397 443.673 226.036 443.553 225.708C443.435 225.377 443.254 225.112 443.009 224.912C442.763 224.712 442.454 224.612 442.08 224.612C441.704 224.612 441.392 224.712 441.144 224.912C440.898 225.112 440.716 225.377 440.596 225.708C440.478 226.036 440.419 226.397 440.419 226.789C440.419 227.184 440.478 227.545 440.596 227.873C440.716 228.201 440.898 228.464 441.144 228.662C441.392 228.859 441.704 228.958 442.08 228.958ZM447.474 221.642V229.838H446.277V221.642H447.474ZM451.732 229.962C451.127 229.962 450.605 229.833 450.168 229.574C449.733 229.312 449.397 228.946 449.159 228.473C448.925 227.999 448.807 227.442 448.807 226.805C448.807 226.175 448.925 225.62 449.159 225.14C449.397 224.66 449.728 224.285 450.152 224.015C450.579 223.746 451.077 223.611 451.648 223.611C451.995 223.611 452.331 223.669 452.657 223.783C452.982 223.898 453.274 224.078 453.533 224.324C453.792 224.569 453.996 224.888 454.145 225.28C454.295 225.67 454.37 226.143 454.37 226.701V227.125H449.483V226.228H453.197C453.197 225.914 453.133 225.635 453.005 225.392C452.877 225.147 452.697 224.953 452.465 224.812C452.235 224.67 451.966 224.6 451.656 224.6C451.32 224.6 451.027 224.682 450.776 224.848C450.528 225.011 450.336 225.224 450.2 225.488C450.066 225.75 450 226.034 450 226.34V227.041C450 227.452 450.072 227.801 450.216 228.089C450.362 228.377 450.567 228.597 450.828 228.75C451.089 228.899 451.395 228.974 451.744 228.974C451.971 228.974 452.178 228.942 452.365 228.878C452.551 228.811 452.713 228.712 452.849 228.581C452.985 228.451 453.089 228.289 453.161 228.097L454.294 228.301C454.203 228.635 454.04 228.927 453.805 229.178C453.573 229.426 453.281 229.619 452.929 229.758C452.579 229.894 452.181 229.962 451.732 229.962ZM458.286 229.962C457.691 229.962 457.179 229.827 456.75 229.558C456.323 229.286 455.995 228.911 455.765 228.433C455.536 227.956 455.421 227.409 455.421 226.793C455.421 226.168 455.538 225.618 455.773 225.14C456.008 224.66 456.339 224.285 456.766 224.015C457.192 223.746 457.695 223.611 458.274 223.611C458.741 223.611 459.157 223.698 459.523 223.871C459.888 224.042 460.183 224.282 460.407 224.592C460.634 224.901 460.769 225.263 460.811 225.676H459.647C459.583 225.388 459.436 225.14 459.207 224.932C458.98 224.724 458.676 224.62 458.294 224.62C457.961 224.62 457.669 224.708 457.418 224.884C457.17 225.057 456.976 225.305 456.838 225.628C456.699 225.948 456.63 226.327 456.63 226.765C456.63 227.213 456.698 227.6 456.834 227.925C456.97 228.251 457.162 228.503 457.41 228.682C457.661 228.86 457.955 228.95 458.294 228.95C458.521 228.95 458.726 228.908 458.911 228.826C459.097 228.74 459.253 228.619 459.379 228.461C459.507 228.304 459.596 228.115 459.647 227.893H460.811C460.769 228.291 460.639 228.645 460.423 228.958C460.207 229.27 459.918 229.515 459.555 229.694C459.195 229.873 458.772 229.962 458.286 229.962ZM465.985 227.289V223.691H467.185V229.838H466.009V228.774H465.945C465.803 229.102 465.576 229.375 465.264 229.594C464.955 229.81 464.569 229.918 464.108 229.918C463.713 229.918 463.363 229.831 463.059 229.658C462.758 229.482 462.52 229.222 462.347 228.878C462.176 228.533 462.091 228.108 462.091 227.601V223.691H463.287V227.457C463.287 227.876 463.403 228.209 463.636 228.457C463.868 228.706 464.169 228.83 464.54 228.83C464.764 228.83 464.987 228.774 465.208 228.662C465.432 228.549 465.618 228.38 465.765 228.153C465.914 227.927 465.987 227.638 465.985 227.289ZM469.989 221.642V229.838H468.793V221.642H469.989ZM474.248 229.962C473.643 229.962 473.121 229.833 472.684 229.574C472.249 229.312 471.913 228.946 471.675 228.473C471.44 227.999 471.323 227.442 471.323 226.805C471.323 226.175 471.44 225.62 471.675 225.14C471.913 224.66 472.243 224.285 472.668 224.015C473.094 223.746 473.593 223.611 474.164 223.611C474.511 223.611 474.847 223.669 475.173 223.783C475.498 223.898 475.79 224.078 476.049 224.324C476.308 224.569 476.512 224.888 476.661 225.28C476.811 225.67 476.885 226.143 476.885 226.701V227.125H471.999V226.228H475.713C475.713 225.914 475.649 225.635 475.521 225.392C475.393 225.147 475.213 224.953 474.981 224.812C474.751 224.67 474.482 224.6 474.172 224.6C473.836 224.6 473.543 224.682 473.292 224.848C473.044 225.011 472.852 225.224 472.716 225.488C472.582 225.75 472.515 226.034 472.515 226.34V227.041C472.515 227.452 472.587 227.801 472.732 228.089C472.878 228.377 473.082 228.597 473.344 228.75C473.605 228.899 473.911 228.974 474.26 228.974C474.487 228.974 474.694 228.942 474.88 228.878C475.067 228.811 475.229 228.712 475.365 228.581C475.501 228.451 475.605 228.289 475.677 228.097L476.809 228.301C476.719 228.635 476.556 228.927 476.321 229.178C476.089 229.426 475.797 229.619 475.445 229.758C475.095 229.894 474.696 229.962 474.248 229.962Z" fill="#484D57"/>
<path d="M554.602 225.976C554.602 226.851 554.441 227.603 554.121 228.233C553.801 228.86 553.362 229.343 552.805 229.682C552.25 230.018 551.619 230.186 550.912 230.186C550.202 230.186 549.569 230.018 549.011 229.682C548.456 229.343 548.019 228.859 547.699 228.229C547.378 227.599 547.218 226.848 547.218 225.976C547.218 225.101 547.378 224.35 547.699 223.723C548.019 223.093 548.456 222.61 549.011 222.274C549.569 221.936 550.202 221.766 550.912 221.766C551.619 221.766 552.25 221.936 552.805 222.274C553.362 222.61 553.801 223.093 554.121 223.723C554.441 224.35 554.602 225.101 554.602 225.976ZM553.377 225.976C553.377 225.309 553.269 224.747 553.053 224.291C552.839 223.832 552.546 223.486 552.172 223.251C551.802 223.013 551.381 222.895 550.912 222.895C550.44 222.895 550.018 223.013 549.647 223.251C549.277 223.486 548.983 223.832 548.767 224.291C548.554 224.747 548.447 225.309 548.447 225.976C548.447 226.643 548.554 227.206 548.767 227.665C548.983 228.121 549.277 228.468 549.647 228.705C550.018 228.94 550.44 229.057 550.912 229.057C551.381 229.057 551.802 228.94 552.172 228.705C552.546 228.468 552.839 228.121 553.053 227.665C553.269 227.206 553.377 226.643 553.377 225.976ZM556.047 230.074V223.927H557.204V224.903H557.268C557.38 224.573 557.577 224.313 557.86 224.123C558.145 223.931 558.468 223.835 558.828 223.835C558.903 223.835 558.991 223.838 559.092 223.843C559.197 223.848 559.278 223.855 559.337 223.863V225.008C559.289 224.994 559.203 224.98 559.08 224.964C558.958 224.945 558.835 224.935 558.712 224.935C558.43 224.935 558.177 224.996 557.956 225.116C557.737 225.233 557.564 225.397 557.436 225.608C557.308 225.816 557.244 226.053 557.244 226.32V230.074H556.047ZM562.729 232.507C562.241 232.507 561.821 232.443 561.469 232.315C561.119 232.187 560.834 232.017 560.612 231.806C560.391 231.596 560.225 231.365 560.116 231.114L561.144 230.69C561.216 230.807 561.312 230.931 561.432 231.062C561.555 231.196 561.721 231.309 561.929 231.402C562.139 231.496 562.41 231.542 562.741 231.542C563.195 231.542 563.569 231.432 563.866 231.21C564.162 230.991 564.31 230.642 564.31 230.162V228.953H564.234C564.162 229.084 564.058 229.229 563.922 229.389C563.788 229.55 563.604 229.688 563.369 229.806C563.135 229.923 562.829 229.982 562.453 229.982C561.967 229.982 561.53 229.868 561.14 229.642C560.754 229.412 560.447 229.075 560.22 228.629C559.996 228.181 559.884 227.63 559.884 226.976C559.884 226.323 559.995 225.763 560.216 225.296C560.44 224.829 560.747 224.471 561.136 224.223C561.526 223.972 561.967 223.847 562.461 223.847C562.842 223.847 563.151 223.911 563.385 224.039C563.62 224.164 563.803 224.311 563.934 224.479C564.067 224.647 564.17 224.795 564.242 224.923H564.33V223.927H565.502V230.21C565.502 230.738 565.38 231.172 565.134 231.51C564.889 231.849 564.557 232.1 564.138 232.263C563.721 232.425 563.252 232.507 562.729 232.507ZM562.717 228.989C563.061 228.989 563.352 228.909 563.589 228.749C563.83 228.586 564.011 228.354 564.134 228.053C564.259 227.749 564.322 227.385 564.322 226.96C564.322 226.547 564.26 226.183 564.138 225.868C564.015 225.553 563.835 225.308 563.597 225.132C563.36 224.953 563.067 224.863 562.717 224.863C562.357 224.863 562.057 224.957 561.817 225.144C561.577 225.328 561.395 225.578 561.272 225.896C561.152 226.213 561.092 226.568 561.092 226.96C561.092 227.363 561.154 227.717 561.276 228.021C561.399 228.325 561.581 228.562 561.821 228.733C562.063 228.904 562.362 228.989 562.717 228.989ZM568.896 230.21C568.506 230.21 568.154 230.138 567.839 229.994C567.524 229.847 567.275 229.635 567.091 229.357C566.91 229.08 566.819 228.74 566.819 228.337C566.819 227.99 566.886 227.705 567.019 227.481C567.152 227.257 567.332 227.079 567.559 226.948C567.786 226.818 568.039 226.719 568.319 226.652C568.6 226.586 568.885 226.535 569.176 226.5C569.544 226.457 569.843 226.423 570.072 226.396C570.302 226.367 570.468 226.32 570.572 226.256C570.677 226.192 570.729 226.088 570.729 225.944V225.916C570.729 225.566 570.63 225.296 570.432 225.104C570.238 224.911 569.947 224.815 569.56 224.815C569.157 224.815 568.84 224.905 568.608 225.084C568.378 225.26 568.219 225.456 568.131 225.672L567.007 225.416C567.14 225.042 567.335 224.741 567.591 224.511C567.85 224.279 568.147 224.111 568.484 224.007C568.82 223.9 569.173 223.847 569.544 223.847C569.789 223.847 570.05 223.876 570.324 223.935C570.602 223.991 570.861 224.095 571.101 224.247C571.343 224.399 571.542 224.617 571.697 224.899C571.852 225.18 571.929 225.544 571.929 225.992V230.074H570.761V229.233H570.713C570.635 229.388 570.519 229.54 570.364 229.69C570.21 229.839 570.011 229.963 569.768 230.062C569.525 230.16 569.235 230.21 568.896 230.21ZM569.156 229.249C569.487 229.249 569.769 229.184 570.004 229.053C570.242 228.923 570.422 228.752 570.544 228.541C570.67 228.328 570.733 228.1 570.733 227.857V227.064C570.69 227.107 570.607 227.147 570.484 227.184C570.364 227.219 570.227 227.25 570.072 227.277C569.918 227.301 569.767 227.323 569.62 227.345C569.473 227.363 569.351 227.379 569.252 227.393C569.02 227.422 568.808 227.471 568.616 227.541C568.426 227.61 568.274 227.71 568.159 227.841C568.047 227.969 567.991 228.14 567.991 228.353C567.991 228.649 568.101 228.873 568.319 229.025C568.538 229.175 568.817 229.249 569.156 229.249ZM574.719 226.424V230.074H573.523V223.927H574.671V224.927H574.747C574.889 224.602 575.11 224.341 575.412 224.143C575.716 223.946 576.099 223.847 576.56 223.847C576.979 223.847 577.346 223.935 577.661 224.111C577.975 224.285 578.219 224.543 578.393 224.887C578.566 225.232 578.653 225.657 578.653 226.164V230.074H577.456V226.308C577.456 225.863 577.34 225.514 577.108 225.264C576.876 225.01 576.557 224.883 576.152 224.883C575.874 224.883 575.628 224.943 575.412 225.064C575.198 225.184 575.029 225.36 574.903 225.592C574.781 225.821 574.719 226.099 574.719 226.424ZM580.258 230.074V223.927H581.454V230.074H580.258ZM580.862 222.979C580.654 222.979 580.475 222.909 580.326 222.771C580.179 222.629 580.106 222.461 580.106 222.266C580.106 222.069 580.179 221.901 580.326 221.762C580.475 221.621 580.654 221.55 580.862 221.55C581.07 221.55 581.247 221.621 581.394 221.762C581.544 221.901 581.618 222.069 581.618 222.266C581.618 222.461 581.544 222.629 581.394 222.771C581.247 222.909 581.07 222.979 580.862 222.979ZM587.67 225.428L586.585 225.62C586.54 225.481 586.468 225.349 586.369 225.224C586.273 225.098 586.143 224.996 585.977 224.915C585.812 224.835 585.605 224.795 585.357 224.795C585.018 224.795 584.735 224.871 584.509 225.024C584.282 225.173 584.168 225.366 584.168 225.604C584.168 225.809 584.244 225.975 584.396 226.1C584.549 226.225 584.794 226.328 585.133 226.408L586.109 226.632C586.675 226.763 587.096 226.964 587.374 227.236C587.651 227.509 587.79 227.862 587.79 228.297C587.79 228.665 587.683 228.993 587.47 229.281C587.259 229.567 586.964 229.791 586.585 229.954C586.209 230.116 585.773 230.198 585.277 230.198C584.589 230.198 584.027 230.051 583.592 229.758C583.157 229.461 582.89 229.041 582.792 228.497L583.948 228.321C584.02 228.622 584.168 228.851 584.392 229.005C584.617 229.157 584.909 229.233 585.269 229.233C585.661 229.233 585.974 229.152 586.209 228.989C586.444 228.824 586.561 228.622 586.561 228.385C586.561 228.193 586.489 228.032 586.345 227.901C586.204 227.77 585.986 227.671 585.693 227.605L584.653 227.377C584.079 227.246 583.655 227.038 583.38 226.752C583.108 226.467 582.972 226.105 582.972 225.668C582.972 225.305 583.073 224.988 583.276 224.715C583.479 224.443 583.759 224.231 584.116 224.079C584.474 223.924 584.883 223.847 585.345 223.847C586.009 223.847 586.532 223.991 586.914 224.279C587.295 224.565 587.547 224.948 587.67 225.428ZM589.106 230.074V223.927H590.254V224.927H590.33C590.458 224.589 590.668 224.325 590.958 224.135C591.249 223.943 591.597 223.847 592.003 223.847C592.414 223.847 592.758 223.943 593.035 224.135C593.315 224.327 593.522 224.591 593.655 224.927H593.72C593.866 224.599 594.1 224.338 594.42 224.143C594.74 223.946 595.121 223.847 595.564 223.847C596.122 223.847 596.577 224.022 596.929 224.371C597.284 224.721 597.461 225.248 597.461 225.952V230.074H596.265V226.064C596.265 225.648 596.151 225.346 595.924 225.16C595.698 224.973 595.427 224.879 595.112 224.879C594.723 224.879 594.42 225 594.204 225.24C593.988 225.477 593.88 225.783 593.88 226.156V230.074H592.687V225.988C592.687 225.654 592.583 225.386 592.375 225.184C592.167 224.981 591.896 224.879 591.563 224.879C591.336 224.879 591.126 224.939 590.934 225.06C590.745 225.177 590.591 225.341 590.474 225.552C590.359 225.763 590.302 226.007 590.302 226.284V230.074H589.106Z" fill="#484D57"/>
<path d="M676.141 222.943V221.878H682.484V222.943H679.926V230.074H678.694V222.943H676.141ZM685.547 230.198C684.941 230.198 684.42 230.068 683.982 229.81C683.547 229.548 683.211 229.181 682.974 228.709C682.739 228.234 682.622 227.678 682.622 227.04C682.622 226.411 682.739 225.856 682.974 225.376C683.211 224.895 683.542 224.521 683.966 224.251C684.393 223.982 684.892 223.847 685.463 223.847C685.81 223.847 686.146 223.904 686.471 224.019C686.797 224.134 687.089 224.314 687.348 224.559C687.606 224.805 687.81 225.124 687.96 225.516C688.109 225.905 688.184 226.379 688.184 226.936V227.361H683.298V226.464H687.011C687.011 226.149 686.947 225.871 686.819 225.628C686.691 225.382 686.511 225.189 686.279 225.048C686.05 224.906 685.78 224.835 685.471 224.835C685.135 224.835 684.841 224.918 684.59 225.084C684.342 225.246 684.15 225.46 684.014 225.724C683.881 225.985 683.814 226.269 683.814 226.576V227.277C683.814 227.687 683.886 228.037 684.03 228.325C684.177 228.613 684.381 228.833 684.642 228.985C684.904 229.135 685.209 229.209 685.559 229.209C685.786 229.209 685.992 229.177 686.179 229.113C686.366 229.047 686.527 228.948 686.663 228.817C686.799 228.686 686.903 228.525 686.975 228.333L688.108 228.537C688.017 228.871 687.855 229.163 687.62 229.413C687.388 229.662 687.096 229.855 686.743 229.994C686.394 230.13 685.995 230.198 685.547 230.198ZM689.512 230.074V223.927H690.66V224.927H690.736C690.864 224.589 691.074 224.325 691.364 224.135C691.655 223.943 692.003 223.847 692.409 223.847C692.82 223.847 693.164 223.943 693.441 224.135C693.721 224.327 693.928 224.591 694.062 224.927H694.126C694.272 224.599 694.506 224.338 694.826 224.143C695.146 223.946 695.528 223.847 695.97 223.847C696.528 223.847 696.983 224.022 697.335 224.371C697.69 224.721 697.867 225.248 697.867 225.952V230.074H696.671V226.064C696.671 225.648 696.557 225.346 696.331 225.16C696.104 224.973 695.833 224.879 695.518 224.879C695.129 224.879 694.826 225 694.61 225.24C694.394 225.477 694.286 225.783 694.286 226.156V230.074H693.093V225.988C693.093 225.654 692.989 225.386 692.781 225.184C692.573 224.981 692.302 224.879 691.969 224.879C691.742 224.879 691.532 224.939 691.34 225.06C691.151 225.177 690.998 225.341 690.88 225.552C690.765 225.763 690.708 226.007 690.708 226.284V230.074H689.512ZM699.471 232.379V223.927H700.639V224.923H700.739C700.809 224.795 700.909 224.647 701.04 224.479C701.17 224.311 701.352 224.164 701.584 224.039C701.816 223.911 702.123 223.847 702.504 223.847C703 223.847 703.443 223.972 703.833 224.223C704.222 224.474 704.528 224.835 704.749 225.308C704.973 225.78 705.085 226.348 705.085 227.012C705.085 227.677 704.975 228.246 704.753 228.721C704.532 229.193 704.228 229.558 703.841 229.814C703.454 230.067 703.012 230.194 702.516 230.194C702.143 230.194 701.837 230.131 701.6 230.006C701.365 229.88 701.181 229.734 701.048 229.566C700.914 229.397 700.811 229.248 700.739 229.117H700.667V232.379H699.471ZM700.643 227C700.643 227.433 700.706 227.811 700.831 228.137C700.957 228.462 701.138 228.717 701.376 228.901C701.613 229.083 701.904 229.173 702.248 229.173C702.606 229.173 702.904 229.079 703.144 228.889C703.385 228.697 703.566 228.437 703.689 228.109C703.814 227.781 703.877 227.411 703.877 227C703.877 226.595 703.815 226.231 703.693 225.908C703.573 225.585 703.391 225.33 703.148 225.144C702.908 224.957 702.608 224.863 702.248 224.863C701.901 224.863 701.608 224.953 701.368 225.132C701.13 225.31 700.95 225.56 700.827 225.88C700.705 226.2 700.643 226.574 700.643 227ZM707.622 221.878V230.074H706.426V221.878H707.622ZM711.021 230.21C710.631 230.21 710.279 230.138 709.964 229.994C709.65 229.847 709.4 229.635 709.216 229.357C709.035 229.08 708.944 228.74 708.944 228.337C708.944 227.99 709.011 227.705 709.144 227.481C709.277 227.257 709.458 227.079 709.684 226.948C709.911 226.818 710.165 226.719 710.445 226.652C710.725 226.586 711.01 226.535 711.301 226.5C711.669 226.457 711.968 226.423 712.197 226.396C712.427 226.367 712.594 226.32 712.698 226.256C712.802 226.192 712.854 226.088 712.854 225.944V225.916C712.854 225.566 712.755 225.296 712.558 225.104C712.363 224.911 712.072 224.815 711.685 224.815C711.282 224.815 710.965 224.905 710.733 225.084C710.503 225.26 710.345 225.456 710.257 225.672L709.132 225.416C709.265 225.042 709.46 224.741 709.716 224.511C709.975 224.279 710.273 224.111 710.609 224.007C710.945 223.9 711.298 223.847 711.669 223.847C711.915 223.847 712.175 223.876 712.45 223.935C712.727 223.991 712.986 224.095 713.226 224.247C713.469 224.399 713.667 224.617 713.822 224.899C713.977 225.18 714.054 225.544 714.054 225.992V230.074H712.886V229.233H712.838C712.76 229.388 712.644 229.54 712.49 229.69C712.335 229.839 712.136 229.963 711.893 230.062C711.651 230.16 711.36 230.21 711.021 230.21ZM711.281 229.249C711.612 229.249 711.895 229.184 712.129 229.053C712.367 228.923 712.547 228.752 712.67 228.541C712.795 228.328 712.858 228.1 712.858 227.857V227.064C712.815 227.107 712.732 227.147 712.61 227.184C712.49 227.219 712.352 227.25 712.197 227.277C712.043 227.301 711.892 227.323 711.745 227.345C711.598 227.363 711.476 227.379 711.377 227.393C711.145 227.422 710.933 227.471 710.741 227.541C710.551 227.61 710.399 227.71 710.285 227.841C710.173 227.969 710.117 228.14 710.117 228.353C710.117 228.649 710.226 228.873 710.445 229.025C710.663 229.175 710.942 229.249 711.281 229.249ZM718.517 223.927V224.887H715.16V223.927H718.517ZM716.06 222.454H717.257V228.269C717.257 228.501 717.291 228.676 717.361 228.793C717.43 228.908 717.519 228.987 717.629 229.029C717.741 229.069 717.862 229.089 717.993 229.089C718.089 229.089 718.173 229.083 718.245 229.069C718.317 229.056 718.373 229.045 718.413 229.037L718.629 230.026C718.56 230.052 718.461 230.079 718.333 230.106C718.205 230.135 718.045 230.151 717.853 230.154C717.538 230.159 717.245 230.103 716.973 229.986C716.7 229.868 716.48 229.687 716.312 229.441C716.144 229.196 716.06 228.888 716.06 228.517V222.454ZM722.424 230.198C721.818 230.198 721.297 230.068 720.859 229.81C720.424 229.548 720.088 229.181 719.851 228.709C719.616 228.234 719.499 227.678 719.499 227.04C719.499 226.411 719.616 225.856 719.851 225.376C720.088 224.895 720.419 224.521 720.843 224.251C721.27 223.982 721.769 223.847 722.34 223.847C722.687 223.847 723.023 223.904 723.348 224.019C723.674 224.134 723.966 224.314 724.225 224.559C724.483 224.805 724.688 225.124 724.837 225.516C724.986 225.905 725.061 226.379 725.061 226.936V227.361H720.175V226.464H723.889C723.889 226.149 723.824 225.871 723.696 225.628C723.568 225.382 723.388 225.189 723.156 225.048C722.927 224.906 722.657 224.835 722.348 224.835C722.012 224.835 721.718 224.918 721.467 225.084C721.219 225.246 721.027 225.46 720.891 225.724C720.758 225.985 720.691 226.269 720.691 226.576V227.277C720.691 227.687 720.763 228.037 720.907 228.325C721.054 228.613 721.258 228.833 721.519 228.985C721.781 229.135 722.086 229.209 722.436 229.209C722.663 229.209 722.869 229.177 723.056 229.113C723.243 229.047 723.404 228.948 723.54 228.817C723.676 228.686 723.78 228.525 723.852 228.333L724.985 228.537C724.894 228.871 724.732 229.163 724.497 229.413C724.265 229.662 723.973 229.855 723.62 229.994C723.271 230.13 722.872 230.198 722.424 230.198Z" fill="#484D57"/>
<path d="M116.771 126H113.476L118.497 111.455H122.46L127.474 126H124.179L120.536 114.778H120.422L116.771 126ZM116.565 120.283H124.349V122.683H116.565V120.283ZM134.287 115.091V117.364H127.718V115.091H134.287ZM129.209 112.477H132.235V122.648C132.235 122.927 132.277 123.145 132.363 123.301C132.448 123.453 132.566 123.559 132.718 123.621C132.874 123.682 133.054 123.713 133.257 123.713C133.4 123.713 133.542 123.701 133.684 123.678C133.826 123.649 133.935 123.628 134.01 123.614L134.486 125.865C134.335 125.912 134.122 125.967 133.847 126.028C133.572 126.095 133.239 126.135 132.846 126.149C132.116 126.178 131.477 126.08 130.928 125.858C130.383 125.635 129.96 125.29 129.657 124.821C129.354 124.352 129.204 123.76 129.209 123.045V112.477ZM141.07 126.213C139.967 126.213 139.013 125.979 138.208 125.51C137.408 125.036 136.79 124.378 136.354 123.536C135.918 122.688 135.701 121.705 135.701 120.588C135.701 119.461 135.918 118.476 136.354 117.634C136.79 116.786 137.408 116.128 138.208 115.659C139.013 115.186 139.967 114.949 141.07 114.949C142.173 114.949 143.125 115.186 143.925 115.659C144.73 116.128 145.35 116.786 145.786 117.634C146.221 118.476 146.439 119.461 146.439 120.588C146.439 121.705 146.221 122.688 145.786 123.536C145.35 124.378 144.73 125.036 143.925 125.51C143.125 125.979 142.173 126.213 141.07 126.213ZM141.084 123.869C141.586 123.869 142.005 123.727 142.341 123.443C142.677 123.154 142.931 122.761 143.101 122.264C143.276 121.767 143.364 121.201 143.364 120.567C143.364 119.932 143.276 119.366 143.101 118.869C142.931 118.372 142.677 117.979 142.341 117.69C142.005 117.402 141.586 117.257 141.084 117.257C140.578 117.257 140.151 117.402 139.806 117.69C139.465 117.979 139.207 118.372 139.032 118.869C138.861 119.366 138.776 119.932 138.776 120.567C138.776 121.201 138.861 121.767 139.032 122.264C139.207 122.761 139.465 123.154 139.806 123.443C140.151 123.727 140.578 123.869 141.084 123.869ZM148.407 126V115.091H151.29V117.016H151.418C151.645 116.376 152.024 115.872 152.554 115.503C153.085 115.134 153.719 114.949 154.458 114.949C155.206 114.949 155.843 115.136 156.368 115.51C156.894 115.879 157.244 116.381 157.419 117.016H157.533C157.756 116.391 158.158 115.891 158.74 115.517C159.328 115.138 160.021 114.949 160.821 114.949C161.839 114.949 162.666 115.273 163.3 115.922C163.939 116.566 164.259 117.48 164.259 118.663V126H161.24V119.26C161.24 118.654 161.079 118.199 160.757 117.896C160.435 117.593 160.033 117.442 159.55 117.442C159.001 117.442 158.572 117.617 158.265 117.967C157.957 118.313 157.803 118.77 157.803 119.338V126H154.87V119.196C154.87 118.661 154.716 118.235 154.408 117.918C154.105 117.6 153.705 117.442 153.208 117.442C152.872 117.442 152.569 117.527 152.299 117.697C152.033 117.863 151.823 118.098 151.667 118.401C151.51 118.699 151.432 119.049 151.432 119.452V126H148.407ZM166.649 126V115.091H169.674V126H166.649ZM168.169 113.685C167.719 113.685 167.333 113.536 167.011 113.237C166.694 112.934 166.535 112.572 166.535 112.151C166.535 111.734 166.694 111.376 167.011 111.078C167.333 110.775 167.719 110.624 168.169 110.624C168.618 110.624 169.002 110.775 169.319 111.078C169.641 111.376 169.802 111.734 169.802 112.151C169.802 112.572 169.641 112.934 169.319 113.237C169.002 113.536 168.618 113.685 168.169 113.685ZM177.027 126.213C175.91 126.213 174.948 125.976 174.143 125.503C173.343 125.025 172.728 124.362 172.297 123.514C171.871 122.667 171.658 121.691 171.658 120.588C171.658 119.471 171.873 118.491 172.304 117.648C172.74 116.8 173.357 116.14 174.158 115.666C174.958 115.188 175.91 114.949 177.013 114.949C177.964 114.949 178.798 115.122 179.513 115.467C180.228 115.813 180.794 116.298 181.21 116.923C181.627 117.548 181.857 118.282 181.899 119.125H179.044C178.964 118.58 178.75 118.143 178.405 117.811C178.064 117.475 177.616 117.307 177.062 117.307C176.594 117.307 176.184 117.435 175.834 117.69C175.488 117.941 175.218 118.308 175.024 118.791C174.83 119.274 174.733 119.859 174.733 120.545C174.733 121.241 174.828 121.833 175.017 122.321C175.211 122.809 175.483 123.18 175.834 123.436C176.184 123.692 176.594 123.82 177.062 123.82C177.408 123.82 177.718 123.749 177.993 123.607C178.272 123.464 178.502 123.259 178.682 122.989C178.866 122.714 178.987 122.385 179.044 122.001H181.899C181.852 122.835 181.625 123.569 181.217 124.203C180.815 124.833 180.259 125.325 179.548 125.68C178.838 126.036 177.998 126.213 177.027 126.213ZM193.678 126H188.522V111.455H193.721C195.184 111.455 196.443 111.746 197.499 112.328C198.555 112.906 199.367 113.737 199.935 114.821C200.508 115.905 200.795 117.203 200.795 118.713C200.795 120.228 200.508 121.53 199.935 122.619C199.367 123.708 198.55 124.544 197.485 125.126C196.424 125.709 195.156 126 193.678 126ZM191.597 123.365H193.55C194.46 123.365 195.224 123.204 195.844 122.882C196.469 122.555 196.938 122.051 197.251 121.369C197.568 120.683 197.727 119.797 197.727 118.713C197.727 117.638 197.568 116.76 197.251 116.078C196.938 115.396 196.472 114.894 195.852 114.572C195.231 114.25 194.467 114.089 193.558 114.089H191.597V123.365ZM207.988 126.213C206.865 126.213 205.9 125.986 205.09 125.531C204.285 125.072 203.665 124.423 203.229 123.585C202.793 122.742 202.576 121.746 202.576 120.595C202.576 119.473 202.793 118.488 203.229 117.641C203.665 116.793 204.278 116.133 205.069 115.659C205.864 115.186 206.797 114.949 207.867 114.949C208.587 114.949 209.257 115.065 209.877 115.297C210.502 115.524 211.046 115.867 211.51 116.327C211.979 116.786 212.344 117.364 212.604 118.06C212.864 118.751 212.995 119.561 212.995 120.489V121.32H203.783V119.445H210.147C210.147 119.009 210.052 118.623 209.863 118.287C209.673 117.951 209.41 117.688 209.074 117.499C208.743 117.304 208.357 117.207 207.917 117.207C207.457 117.207 207.05 117.314 206.695 117.527C206.345 117.735 206.07 118.017 205.871 118.372C205.672 118.723 205.57 119.113 205.566 119.544V121.327C205.566 121.866 205.665 122.333 205.864 122.726C206.068 123.119 206.354 123.422 206.723 123.635C207.093 123.848 207.531 123.955 208.037 123.955C208.373 123.955 208.681 123.907 208.961 123.812C209.24 123.718 209.479 123.576 209.678 123.386C209.877 123.197 210.028 122.965 210.132 122.69L212.931 122.875C212.789 123.547 212.498 124.134 212.057 124.636C211.622 125.134 211.058 125.522 210.367 125.801C209.68 126.076 208.887 126.213 207.988 126.213ZM224.046 118.202L221.276 118.372C221.229 118.135 221.127 117.922 220.971 117.733C220.814 117.539 220.608 117.385 220.353 117.271C220.102 117.153 219.801 117.094 219.451 117.094C218.982 117.094 218.587 117.193 218.265 117.392C217.943 117.586 217.782 117.847 217.782 118.173C217.782 118.434 217.886 118.654 218.094 118.834C218.302 119.014 218.66 119.158 219.167 119.267L221.141 119.665C222.202 119.883 222.992 120.233 223.513 120.716C224.034 121.199 224.294 121.833 224.294 122.619C224.294 123.334 224.084 123.962 223.662 124.501C223.246 125.041 222.673 125.463 221.944 125.766C221.219 126.064 220.383 126.213 219.436 126.213C217.992 126.213 216.842 125.912 215.985 125.311C215.132 124.705 214.633 123.881 214.486 122.839L217.462 122.683C217.552 123.124 217.77 123.46 218.115 123.692C218.461 123.919 218.904 124.033 219.444 124.033C219.974 124.033 220.4 123.931 220.722 123.727C221.049 123.519 221.214 123.251 221.219 122.925C221.214 122.65 221.098 122.425 220.871 122.25C220.644 122.07 220.293 121.933 219.82 121.838L217.931 121.462C216.865 121.249 216.072 120.879 215.551 120.354C215.035 119.828 214.777 119.158 214.777 118.344C214.777 117.643 214.967 117.039 215.346 116.533C215.729 116.026 216.266 115.635 216.958 115.361C217.654 115.086 218.468 114.949 219.401 114.949C220.779 114.949 221.863 115.24 222.654 115.822C223.449 116.405 223.913 117.198 224.046 118.202ZM226.2 126V115.091H229.225V126H226.2ZM227.719 113.685C227.27 113.685 226.884 113.536 226.562 113.237C226.245 112.934 226.086 112.572 226.086 112.151C226.086 111.734 226.245 111.376 226.562 111.078C226.884 110.775 227.27 110.624 227.719 110.624C228.169 110.624 228.553 110.775 228.87 111.078C229.192 111.376 229.353 111.734 229.353 112.151C229.353 112.572 229.192 112.934 228.87 113.237C228.553 113.536 228.169 113.685 227.719 113.685ZM236.564 130.318C235.583 130.318 234.743 130.183 234.042 129.913C233.346 129.648 232.792 129.286 232.38 128.827C231.968 128.367 231.701 127.851 231.578 127.278L234.376 126.902C234.461 127.12 234.596 127.323 234.781 127.513C234.966 127.702 235.209 127.854 235.512 127.967C235.82 128.086 236.194 128.145 236.635 128.145C237.293 128.145 237.835 127.984 238.261 127.662C238.692 127.345 238.907 126.812 238.907 126.064V124.068H238.779C238.647 124.371 238.448 124.658 238.183 124.928C237.918 125.197 237.577 125.418 237.16 125.588C236.743 125.759 236.246 125.844 235.669 125.844C234.85 125.844 234.104 125.654 233.431 125.276C232.764 124.892 232.231 124.307 231.833 123.521C231.44 122.731 231.244 121.732 231.244 120.524C231.244 119.288 231.445 118.256 231.848 117.428C232.25 116.599 232.785 115.979 233.453 115.567C234.125 115.155 234.861 114.949 235.662 114.949C236.272 114.949 236.784 115.053 237.196 115.261C237.608 115.465 237.939 115.721 238.19 116.028C238.446 116.331 238.642 116.63 238.779 116.923H238.893V115.091H241.897V126.107C241.897 127.035 241.67 127.811 241.216 128.436C240.761 129.061 240.131 129.53 239.326 129.842C238.526 130.16 237.605 130.318 236.564 130.318ZM236.627 123.571C237.115 123.571 237.527 123.45 237.863 123.209C238.204 122.963 238.465 122.612 238.645 122.158C238.829 121.698 238.922 121.149 238.922 120.51C238.922 119.871 238.832 119.317 238.652 118.848C238.472 118.375 238.211 118.008 237.87 117.747C237.529 117.487 237.115 117.357 236.627 117.357C236.13 117.357 235.711 117.491 235.37 117.761C235.029 118.027 234.771 118.396 234.596 118.869C234.421 119.343 234.333 119.89 234.333 120.51C234.333 121.14 234.421 121.684 234.596 122.143C234.776 122.598 235.034 122.951 235.37 123.202C235.711 123.448 236.13 123.571 236.627 123.571ZM247.331 119.693V126H244.305V115.091H247.189V117.016H247.316C247.558 116.381 247.963 115.879 248.531 115.51C249.099 115.136 249.788 114.949 250.598 114.949C251.355 114.949 252.016 115.115 252.579 115.446C253.143 115.777 253.581 116.251 253.893 116.866C254.206 117.477 254.362 118.206 254.362 119.054V126H251.336V119.594C251.341 118.926 251.171 118.405 250.825 118.031C250.479 117.652 250.003 117.463 249.397 117.463C248.99 117.463 248.63 117.551 248.318 117.726C248.01 117.901 247.769 118.157 247.593 118.493C247.423 118.824 247.335 119.224 247.331 119.693ZM122.155 141.638C122.098 141.065 121.854 140.62 121.423 140.303C120.992 139.985 120.408 139.827 119.669 139.827C119.167 139.827 118.743 139.898 118.398 140.04C118.052 140.177 117.787 140.369 117.602 140.615C117.422 140.861 117.332 141.141 117.332 141.453C117.323 141.714 117.377 141.941 117.496 142.135C117.619 142.329 117.787 142.497 118 142.639C118.213 142.777 118.459 142.897 118.739 143.001C119.018 143.101 119.316 143.186 119.634 143.257L120.94 143.57C121.575 143.712 122.157 143.901 122.688 144.138C123.218 144.375 123.677 144.666 124.065 145.011C124.454 145.357 124.754 145.764 124.967 146.233C125.185 146.702 125.296 147.239 125.301 147.845C125.296 148.735 125.069 149.507 124.619 150.161C124.174 150.809 123.53 151.313 122.688 151.673C121.849 152.028 120.839 152.206 119.655 152.206C118.481 152.206 117.458 152.026 116.587 151.666C115.72 151.306 115.043 150.774 114.555 150.068C114.072 149.358 113.819 148.48 113.795 147.433H116.771C116.804 147.921 116.944 148.328 117.19 148.655C117.441 148.977 117.775 149.221 118.192 149.386C118.613 149.547 119.089 149.628 119.619 149.628C120.14 149.628 120.592 149.552 120.976 149.401C121.364 149.249 121.665 149.038 121.878 148.768C122.091 148.499 122.197 148.188 122.197 147.838C122.197 147.511 122.1 147.237 121.906 147.014C121.717 146.792 121.438 146.602 121.068 146.446C120.704 146.29 120.256 146.148 119.726 146.02L118.142 145.622C116.916 145.324 115.947 144.857 115.237 144.223C114.527 143.589 114.174 142.734 114.179 141.659C114.174 140.778 114.409 140.009 114.882 139.351C115.36 138.693 116.016 138.179 116.849 137.81C117.683 137.44 118.63 137.256 119.69 137.256C120.77 137.256 121.712 137.44 122.517 137.81C123.327 138.179 123.956 138.693 124.406 139.351C124.856 140.009 125.088 140.771 125.102 141.638H122.155ZM129.181 156.091C128.797 156.091 128.437 156.06 128.101 155.999C127.77 155.942 127.495 155.868 127.277 155.778L127.959 153.52C128.314 153.629 128.634 153.688 128.918 153.697C129.207 153.707 129.455 153.641 129.664 153.499C129.877 153.357 130.05 153.115 130.182 152.774L130.36 152.312L126.446 141.091H129.628L131.887 149.102H132L134.28 141.091H137.483L133.243 153.179C133.04 153.766 132.763 154.277 132.412 154.713C132.067 155.153 131.629 155.492 131.098 155.729C130.568 155.97 129.929 156.091 129.181 156.091ZM148.108 144.202L145.338 144.372C145.291 144.135 145.189 143.922 145.033 143.733C144.877 143.539 144.671 143.385 144.415 143.271C144.164 143.153 143.864 143.094 143.513 143.094C143.044 143.094 142.649 143.193 142.327 143.392C142.005 143.586 141.844 143.847 141.844 144.173C141.844 144.434 141.948 144.654 142.157 144.834C142.365 145.014 142.722 145.158 143.229 145.267L145.203 145.665C146.264 145.883 147.055 146.233 147.576 146.716C148.096 147.199 148.357 147.833 148.357 148.619C148.357 149.334 148.146 149.962 147.725 150.501C147.308 151.041 146.735 151.463 146.006 151.766C145.282 152.064 144.446 152.213 143.499 152.213C142.055 152.213 140.904 151.912 140.047 151.311C139.195 150.705 138.695 149.881 138.549 148.839L141.525 148.683C141.614 149.124 141.832 149.46 142.178 149.692C142.524 149.919 142.966 150.033 143.506 150.033C144.036 150.033 144.462 149.931 144.784 149.727C145.111 149.519 145.277 149.251 145.282 148.925C145.277 148.65 145.161 148.425 144.934 148.25C144.706 148.07 144.356 147.933 143.882 147.838L141.993 147.462C140.928 147.249 140.135 146.879 139.614 146.354C139.098 145.828 138.84 145.158 138.84 144.344C138.84 143.643 139.029 143.039 139.408 142.533C139.792 142.026 140.329 141.635 141.02 141.361C141.716 141.086 142.531 140.949 143.463 140.949C144.841 140.949 145.926 141.24 146.716 141.822C147.512 142.405 147.976 143.198 148.108 144.202ZM156.065 141.091V143.364H149.495V141.091H156.065ZM150.987 138.477H154.012V148.648C154.012 148.927 154.055 149.145 154.14 149.301C154.225 149.453 154.344 149.559 154.495 149.621C154.651 149.682 154.831 149.713 155.035 149.713C155.177 149.713 155.319 149.701 155.461 149.678C155.603 149.649 155.712 149.628 155.788 149.614L156.263 151.865C156.112 151.912 155.899 151.967 155.624 152.028C155.35 152.095 155.016 152.135 154.623 152.149C153.894 152.178 153.254 152.08 152.705 151.858C152.161 151.635 151.737 151.29 151.434 150.821C151.131 150.352 150.982 149.76 150.987 149.045V138.477ZM162.89 152.213C161.768 152.213 160.802 151.986 159.992 151.531C159.187 151.072 158.567 150.423 158.131 149.585C157.696 148.742 157.478 147.746 157.478 146.595C157.478 145.473 157.696 144.488 158.131 143.641C158.567 142.793 159.18 142.133 159.971 141.659C160.766 141.186 161.699 140.949 162.769 140.949C163.489 140.949 164.159 141.065 164.779 141.297C165.404 141.524 165.949 141.867 166.413 142.327C166.881 142.786 167.246 143.364 167.506 144.06C167.767 144.751 167.897 145.561 167.897 146.489V147.32H158.685V145.445H165.049C165.049 145.009 164.954 144.623 164.765 144.287C164.576 143.951 164.313 143.688 163.977 143.499C163.645 143.304 163.259 143.207 162.819 143.207C162.36 143.207 161.952 143.314 161.597 143.527C161.247 143.735 160.972 144.017 160.773 144.372C160.575 144.723 160.473 145.113 160.468 145.544V147.327C160.468 147.866 160.567 148.333 160.766 148.726C160.97 149.119 161.256 149.422 161.626 149.635C161.995 149.848 162.433 149.955 162.94 149.955C163.276 149.955 163.584 149.907 163.863 149.812C164.142 149.718 164.381 149.576 164.58 149.386C164.779 149.197 164.931 148.965 165.035 148.69L167.833 148.875C167.691 149.547 167.4 150.134 166.96 150.636C166.524 151.134 165.96 151.522 165.269 151.801C164.583 152.076 163.79 152.213 162.89 152.213ZM169.871 152V141.091H172.755V143.016H172.883C173.11 142.376 173.489 141.872 174.019 141.503C174.549 141.134 175.184 140.949 175.923 140.949C176.671 140.949 177.308 141.136 177.833 141.51C178.359 141.879 178.709 142.381 178.884 143.016H178.998C179.22 142.391 179.623 141.891 180.205 141.517C180.792 141.138 181.486 140.949 182.286 140.949C183.304 140.949 184.13 141.273 184.765 141.922C185.404 142.566 185.724 143.48 185.724 144.663V152H182.705V145.26C182.705 144.654 182.544 144.199 182.222 143.896C181.9 143.593 181.498 143.442 181.015 143.442C180.466 143.442 180.037 143.617 179.729 143.967C179.422 144.313 179.268 144.77 179.268 145.338V152H176.335V145.196C176.335 144.661 176.181 144.235 175.873 143.918C175.57 143.6 175.17 143.442 174.673 143.442C174.336 143.442 174.033 143.527 173.763 143.697C173.498 143.863 173.288 144.098 173.131 144.401C172.975 144.699 172.897 145.049 172.897 145.452V152H169.871Z" fill="#217CF5"/>
<mask id="mask0_705_15335" style="mask-type:alpha" maskUnits="userSpaceOnUse" x="77" y="20" width="28" height="14">
<rect x="104.534" y="33.5922" width="26.6176" height="13.592" transform="rotate(-180 104.534 33.5922)" fill="#D9D9D9"/>
</mask>
<g mask="url(#mask0_705_15335)">
<path d="M83.0439 20.2651C83.0439 15.9527 86.6396 12.2851 91.2888 12.2851C95.938 12.2851 99.5337 15.9527 99.5337 20.2651C99.5337 24.5776 95.938 28.2451 91.2888 28.2451C86.6396 28.2451 83.0439 24.5776 83.0439 20.2651Z" stroke="#00C282" stroke-width="10"/>
</g>
<rect x="35.9932" y="20" width="31.9412" height="17.9669" transform="rotate(90 35.9932 20)" fill="#4C97FF"/>
<rect width="19.2978" height="23.2904" transform="matrix(4.37114e-08 -1 -1 -4.37114e-08 63.2764 253.298)" fill="#FEF1DF"/>
<rect width="19.2978" height="21.9596" transform="matrix(4.37114e-08 -1 -1 -4.37114e-08 39.9858 253.298)" fill="#00C282"/>
<path d="M67.269 20L67.269 20.6654C67.269 37.9385 53.2664 51.9412 35.9933 51.9412L35.9933 20L67.269 20Z" fill="#FFC403"/>
<path d="M93.8867 253.298C93.8867 242.64 85.2468 234 74.5889 234L68.6 234L68.6 253.298L93.8867 253.298Z" fill="#FBB450"/>
<circle cx="24.6542" cy="207.654" r="6.65441" transform="rotate(90 24.6542 207.654)" fill="#FEF1DF"/>
<circle cx="51.2984" cy="163.312" r="3.99265" transform="rotate(90 51.2984 163.312)" fill="#00C282"/>
<path d="M50.6328 183.276L18.0262 183.276L18.0262 152L50.6328 183.276Z" fill="#FE6C6A"/>
<path d="M30.6699 81L30.6699 127.457L17.9999 127.457L17.9999 81L30.6699 81Z" fill="#4C97FF"/>
<circle cx="43.3131" cy="118.93" r="8.65074" transform="rotate(90 43.3131 118.93)" fill="#FFC403"/>
<path d="M61.9453 81L61.9453 89.318C61.9453 95.0145 57.3274 99.6324 51.631 99.6324C45.9345 99.6324 41.3166 95.0145 41.3166 89.318L41.3166 81L61.9453 81Z" fill="#E0F7EA"/>
<circle cx="77.8165" cy="45.3861" r="6.75377" transform="rotate(90 77.8165 45.3861)" fill="#4C97FF"/>
</svg>
