<svg width="803" height="242" viewBox="0 0 803 242" fill="none" xmlns="http://www.w3.org/2000/svg">
<rect width="803" height="242" fill="white"/>
<path fill-rule="evenodd" clip-rule="evenodd" d="M376.512 129.033C373.832 129.033 371.731 126.831 371.731 124.017V123.952C371.731 121.083 373.715 119.002 376.448 119.002C379.129 119.002 381.229 121.205 381.229 124.017V124.083C381.229 126.952 379.247 129.033 376.512 129.033ZM367.146 124.016V124.082C367.146 129.082 371.232 133 376.448 133C381.7 133 385.814 129.055 385.814 124.016V123.951C385.814 118.867 381.816 115.034 376.513 115.034C371.262 115.034 367.146 118.979 367.146 124.016Z" fill="#1F243D"/>
<path fill-rule="evenodd" clip-rule="evenodd" d="M393.743 119.546V115.354H389.093V132.599H393.743V126.272C393.743 122.17 395.698 119.912 399.247 119.912H399.343V115.021C396.857 114.953 395.161 116.164 394.059 118.795L393.743 119.546Z" fill="#1F243D"/>
<path fill-rule="evenodd" clip-rule="evenodd" d="M412.841 115.359L406.774 122.012V109H402.125V132.604H406.774V127.36L408.699 125.323L408.812 125.501L413.349 132.604H418.657L411.839 122.093L418.343 115.359H412.841Z" fill="#1F243D"/>
<path fill-rule="evenodd" clip-rule="evenodd" d="M425.807 117.788L425.514 118.166V109H420.865V132.604H425.514V122.966C425.514 120.59 426.708 119.228 428.79 119.228C430.838 119.228 431.967 120.555 431.967 122.966V132.604H436.618V121.391C436.618 117.409 434.451 115.032 430.821 115.032C428.291 115.032 426.867 116.425 425.807 117.788Z" fill="#1F243D"/>
<path fill-rule="evenodd" clip-rule="evenodd" d="M446.274 129.817C444.524 129.817 443.393 128.915 443.393 127.521V127.456C443.393 125.811 444.706 124.867 446.996 124.867C448.153 124.867 449.306 125.105 450.241 125.537L450.337 125.581V126.571C450.337 128.482 448.666 129.817 446.274 129.817ZM440.451 116.501L441.597 120.001C443.179 119.429 444.488 119.099 446.341 119.099C448.875 119.099 450.27 120.298 450.27 122.475V122.999L450.053 122.925C449.025 122.573 447.716 122.212 445.816 122.212C441.424 122.212 438.907 124.197 438.907 127.655V127.721C438.907 131.322 441.85 132.933 444.767 132.933C446.937 132.933 448.633 132.222 449.953 130.758L450.238 130.442V132.606H454.723V122.573C454.723 120.16 454.101 118.314 452.873 117.083C451.601 115.81 449.645 115.164 447.061 115.164C444.159 115.164 442.304 115.697 440.451 116.501Z" fill="#1F243D"/>
<path fill-rule="evenodd" clip-rule="evenodd" d="M462.911 132.604V109H458.261V132.604H462.911Z" fill="#1F243D"/>
<path fill-rule="evenodd" clip-rule="evenodd" d="M471.489 132.604V109H466.839V132.604H471.489Z" fill="#1F243D"/>
<path fill-rule="evenodd" clip-rule="evenodd" d="M357.599 125.667L354.598 116.097L352.193 123.346L355.438 132.758H359.749L367.795 109H362.696L357.599 125.667Z" fill="#217CF5"/>
<path fill-rule="evenodd" clip-rule="evenodd" d="M345.205 115.895L344.382 118.693L342.331 125.667L337.238 109H332L340.047 132.758H344.358L346.665 125.917L347.616 123.098L349.832 116.529L352.372 109H347.232L345.205 115.895Z" fill="#1F243D"/>
</svg>
