<svg width="804" height="220" viewBox="0 0 804 220" fill="none" xmlns="http://www.w3.org/2000/svg">
<rect width="804" height="220" fill="white"/>
<g clip-path="url(#clip0_720_1608)">
<path fill-rule="evenodd" clip-rule="evenodd" d="M319.007 119.252L311.353 95.337L306.707 108.788L314.962 132.55L323.032 132.55L338.098 88L328.551 88L319.007 119.252Z" fill="#217CF5"/>
<path fill-rule="evenodd" clip-rule="evenodd" d="M354.334 99.3119L354.854 99.3175C364.523 99.565 371.747 106.668 371.747 116.033V116.155C371.747 125.603 364.046 133 354.213 133C344.447 133 336.798 125.654 336.798 116.279V116.155C336.798 106.709 344.503 99.3119 354.334 99.3119ZM354.213 106.75C349.096 106.75 345.382 110.654 345.382 116.033V116.155C345.382 121.431 349.317 125.56 354.334 125.56C359.453 125.56 363.165 121.66 363.165 116.279V116.155C363.165 110.881 359.234 106.75 354.213 106.75ZM386.586 107.787V99.925L377.881 99.925L377.881 132.261L386.586 132.261L386.586 120.4C386.586 112.709 390.246 108.475 396.891 108.475H397.07V99.3025C392.416 99.1731 389.24 101.444 387.177 106.379L386.586 107.785V107.787ZM422.349 99.925L410.992 112.399L410.992 88L402.288 88L402.288 132.263L410.992 132.263L410.992 122.429L414.597 118.609L414.807 118.943L423.301 132.263L433.239 132.263L420.473 112.553L432.653 99.925L422.349 99.925ZM446.614 104.481L446.068 105.188L446.068 88L437.362 88L437.362 132.263L446.068 132.263L446.068 114.188C446.068 109.733 448.302 107.179 452.202 107.179C456.034 107.179 458.149 109.667 458.149 114.188L458.149 132.263L466.854 132.263L466.854 111.237C466.854 103.769 462.796 99.3119 456.002 99.3119C451.265 99.3119 448.598 101.924 446.614 104.479V104.481ZM486.416 99.5575L487.067 99.565C491.581 99.67 495.022 100.878 497.296 103.156C499.596 105.462 500.76 108.927 500.76 113.449L500.76 132.263H492.363L492.363 128.206L491.828 128.798C489.357 131.543 486.18 132.878 482.12 132.878C476.657 132.878 471.148 129.856 471.148 123.104V122.98C471.148 116.494 475.861 112.774 484.084 112.774C487.641 112.774 490.091 113.449 492.017 114.109L492.423 114.25V113.266C492.423 109.186 489.81 106.936 485.066 106.936C481.596 106.936 479.147 107.554 476.182 108.627L474.039 102.064C477.508 100.557 480.981 99.5575 486.416 99.5575ZM486.292 117.754C482.006 117.754 479.545 119.526 479.545 122.611V122.733C479.545 125.346 481.664 127.036 484.94 127.036C489.417 127.036 492.546 124.534 492.546 120.949V119.093L492.367 119.011C490.616 118.201 488.458 117.754 486.292 117.754ZM516.091 132.263L516.091 88L507.384 88L507.384 132.263L516.089 132.263H516.091ZM532.154 132.263L532.154 88L523.448 88L523.448 132.263L532.154 132.263Z" fill="black"/>
<path fill-rule="evenodd" clip-rule="evenodd" d="M295.723 100.928L294.182 106.176L290.343 119.252L280.807 88L271 88L286.066 132.55L294.137 132.55L298.455 119.723L300.238 114.436L304.382 102.119L309.139 88L299.516 88L295.723 100.928Z" fill="black"/>
</g>
<defs>
<clipPath id="clip0_720_1608">
<rect width="261.818" height="45" fill="white" transform="translate(271 88)"/>
</clipPath>
</defs>
</svg>
