<svg width="390" height="200" viewBox="0 0 390 200" fill="none" xmlns="http://www.w3.org/2000/svg">
<rect width="390" height="200" rx="8" fill="#4CA154" fill-opacity="0.1"/>
<path d="M28 159C25.4288 159 22.9154 159.762 20.7776 161.191C18.6398 162.619 16.9735 164.65 15.9896 167.025C15.0056 169.401 14.7482 172.014 15.2498 174.536C15.7514 177.058 16.9895 179.374 18.8076 181.192C20.6257 183.01 22.9421 184.249 25.4638 184.75C27.9856 185.252 30.5995 184.994 32.9749 184.01C35.3503 183.026 37.3807 181.36 38.8091 179.222C40.2376 177.085 41 174.571 41 172C40.9964 168.553 39.6256 165.249 37.1884 162.812C34.7512 160.374 31.4467 159.004 28 159ZM33.7075 169.708L26.7075 176.708C26.6146 176.8 26.5043 176.874 26.3829 176.925C26.2615 176.975 26.1314 177.001 26 177.001C25.8686 177.001 25.7385 176.975 25.6171 176.925C25.4957 176.874 25.3854 176.8 25.2925 176.708L22.2925 173.708C22.1049 173.52 21.9994 173.265 21.9994 173C21.9994 172.735 22.1049 172.48 22.2925 172.292C22.4801 172.105 22.7346 171.999 23 171.999C23.2654 171.999 23.5199 172.105 23.7075 172.292L26 174.586L32.2925 168.292C32.3854 168.2 32.4957 168.126 32.6171 168.076C32.7385 168.025 32.8686 167.999 33 167.999C33.1314 167.999 33.2615 168.025 33.3829 168.076C33.5043 168.126 33.6146 168.2 33.7075 168.292C33.8004 168.385 33.8741 168.496 33.9244 168.617C33.9747 168.738 34.0006 168.869 34.0006 169C34.0006 169.131 33.9747 169.262 33.9244 169.383C33.8741 169.504 33.8004 169.615 33.7075 169.708Z" fill="#4CA154"/>
<path d="M114 88.4C114 86.1598 114 85.0397 114.436 84.184C114.819 83.4314 115.431 82.8195 116.184 82.436C117.04 82 118.16 82 120.4 82H269.6C271.84 82 272.96 82 273.816 82.436C274.569 82.8195 275.181 83.4314 275.564 84.184C276 85.0397 276 86.1598 276 88.4V111.6C276 113.84 276 114.96 275.564 115.816C275.181 116.569 274.569 117.181 273.816 117.564C272.96 118 271.84 118 269.6 118H120.4C118.16 118 117.04 118 116.184 117.564C115.431 117.181 114.819 116.569 114.436 115.816C114 114.96 114 113.84 114 111.6V88.4Z" fill="#217CF5"/>
<path d="M144 91.875C142.393 91.875 140.822 92.3515 139.486 93.2443C138.15 94.1371 137.108 95.406 136.493 96.8907C135.879 98.3753 135.718 100.009 136.031 101.585C136.345 103.161 137.118 104.609 138.255 105.745C139.391 106.882 140.839 107.655 142.415 107.969C143.991 108.282 145.625 108.121 147.109 107.507C148.594 106.892 149.863 105.85 150.756 104.514C151.648 103.178 152.125 101.607 152.125 100C152.123 97.8458 151.266 95.7805 149.743 94.2573C148.219 92.734 146.154 91.8773 144 91.875ZM144 106.875C142.64 106.875 141.311 106.472 140.18 105.716C139.05 104.961 138.169 103.887 137.648 102.631C137.128 101.375 136.992 99.9924 137.257 98.6588C137.522 97.3251 138.177 96.1001 139.139 95.1386C140.1 94.1772 141.325 93.5224 142.659 93.2571C143.992 92.9918 145.375 93.128 146.631 93.6483C147.887 94.1687 148.961 95.0499 149.716 96.1805C150.472 97.311 150.875 98.6403 150.875 100C150.873 101.823 150.148 103.57 148.859 104.859C147.57 106.148 145.823 106.873 144 106.875Z" fill="#FCFCFD"/>
<path d="M168.548 97.6172C168.502 97.183 168.306 96.8449 167.962 96.603C167.62 96.361 167.176 96.2401 166.629 96.2401C166.245 96.2401 165.915 96.2981 165.64 96.4141C165.365 96.5301 165.154 96.6875 165.009 96.8864C164.863 97.0852 164.788 97.3123 164.785 97.5675C164.785 97.7796 164.833 97.9635 164.929 98.1193C165.028 98.2751 165.163 98.4077 165.332 98.517C165.501 98.6231 165.688 98.7126 165.894 98.7855C166.099 98.8584 166.306 98.9197 166.515 98.9695L167.47 99.2081C167.854 99.2976 168.224 99.4186 168.578 99.571C168.936 99.7235 169.256 99.9157 169.538 100.148C169.823 100.38 170.048 100.66 170.214 100.988C170.38 101.316 170.462 101.701 170.462 102.141C170.462 102.738 170.31 103.263 170.005 103.717C169.7 104.168 169.259 104.521 168.683 104.776C168.109 105.028 167.415 105.154 166.6 105.154C165.807 105.154 165.12 105.031 164.536 104.786C163.956 104.541 163.502 104.183 163.174 103.712C162.849 103.242 162.674 102.668 162.647 101.992H164.462C164.488 102.347 164.598 102.642 164.79 102.877C164.982 103.112 165.232 103.288 165.541 103.404C165.852 103.52 166.2 103.578 166.585 103.578C166.986 103.578 167.337 103.518 167.639 103.399C167.944 103.277 168.182 103.107 168.354 102.892C168.527 102.673 168.615 102.418 168.618 102.126C168.615 101.861 168.537 101.643 168.384 101.47C168.232 101.295 168.018 101.149 167.743 101.033C167.471 100.913 167.153 100.807 166.788 100.714L165.63 100.416C164.792 100.201 164.129 99.8743 163.641 99.4368C163.158 98.996 162.916 98.411 162.916 97.6818C162.916 97.0819 163.078 96.5566 163.403 96.1058C163.731 95.6551 164.177 95.3054 164.74 95.0568C165.304 94.8049 165.942 94.679 166.654 94.679C167.377 94.679 168.01 94.8049 168.553 95.0568C169.1 95.3054 169.529 95.6518 169.841 96.0959C170.153 96.5367 170.313 97.0438 170.323 97.6172H168.548ZM173.975 105.154C173.491 105.154 173.055 105.068 172.667 104.896C172.283 104.72 171.978 104.461 171.752 104.12C171.53 103.779 171.419 103.358 171.419 102.857C171.419 102.426 171.499 102.07 171.658 101.788C171.817 101.507 172.034 101.281 172.309 101.112C172.584 100.943 172.894 100.816 173.239 100.729C173.587 100.64 173.947 100.575 174.318 100.536C174.765 100.489 175.128 100.448 175.407 100.411C175.685 100.371 175.887 100.312 176.013 100.232C176.142 100.149 176.207 100.022 176.207 99.8494V99.8196C176.207 99.4451 176.096 99.1551 175.874 98.9496C175.652 98.7441 175.332 98.6413 174.914 98.6413C174.474 98.6413 174.124 98.7375 173.865 98.9297C173.61 99.1219 173.438 99.349 173.348 99.6108L171.668 99.3722C171.8 98.9081 172.019 98.5204 172.324 98.2088C172.629 97.8939 173.002 97.6586 173.443 97.5028C173.884 97.3438 174.371 97.2642 174.904 97.2642C175.272 97.2642 175.639 97.3073 176.003 97.3935C176.368 97.4796 176.701 97.6222 177.002 97.821C177.304 98.0166 177.546 98.2834 177.728 98.6214C177.914 98.9595 178.007 99.3821 178.007 99.8892V105H176.277V103.951H176.217C176.108 104.163 175.953 104.362 175.755 104.548C175.559 104.73 175.312 104.877 175.014 104.99C174.719 105.099 174.372 105.154 173.975 105.154ZM174.442 103.832C174.803 103.832 175.117 103.76 175.382 103.618C175.647 103.472 175.851 103.28 175.993 103.041C176.139 102.803 176.212 102.542 176.212 102.261V101.361C176.156 101.407 176.059 101.45 175.924 101.49C175.791 101.53 175.642 101.565 175.476 101.594C175.31 101.624 175.146 101.651 174.984 101.674C174.822 101.697 174.681 101.717 174.561 101.734C174.293 101.77 174.053 101.83 173.84 101.913C173.628 101.996 173.461 102.112 173.338 102.261C173.216 102.406 173.154 102.595 173.154 102.827C173.154 103.159 173.275 103.409 173.517 103.578C173.759 103.747 174.068 103.832 174.442 103.832ZM186.114 97.3636L183.394 105H181.406L178.686 97.3636H180.605L182.36 103.036H182.44L184.2 97.3636H186.114ZM190.23 105.149C189.465 105.149 188.803 104.99 188.247 104.672C187.693 104.35 187.267 103.896 186.969 103.31C186.671 102.72 186.521 102.025 186.521 101.227C186.521 100.441 186.671 99.7517 186.969 99.1584C187.27 98.5618 187.691 98.0978 188.232 97.7663C188.772 97.4316 189.407 97.2642 190.136 97.2642C190.606 97.2642 191.051 97.3404 191.468 97.4929C191.889 97.642 192.26 97.8741 192.582 98.1889C192.907 98.5038 193.162 98.9048 193.347 99.392C193.533 99.8759 193.626 100.453 193.626 101.122V101.674H187.367V100.461H191.901C191.897 100.116 191.823 99.8097 191.677 99.5412C191.531 99.2694 191.327 99.0556 191.065 98.8999C190.807 98.7441 190.505 98.6662 190.161 98.6662C189.793 98.6662 189.47 98.7557 189.191 98.9347C188.913 99.1103 188.696 99.3423 188.54 99.6307C188.387 99.9157 188.31 100.229 188.306 100.57V101.629C188.306 102.073 188.387 102.455 188.55 102.773C188.712 103.088 188.939 103.33 189.231 103.499C189.523 103.664 189.864 103.747 190.255 103.747C190.517 103.747 190.754 103.711 190.966 103.638C191.178 103.562 191.362 103.451 191.518 103.305C191.674 103.159 191.791 102.978 191.871 102.763L193.551 102.952C193.445 103.396 193.243 103.784 192.945 104.115C192.65 104.443 192.272 104.698 191.811 104.881C191.35 105.06 190.823 105.149 190.23 105.149ZM206.916 98.2536H205.056C205.003 97.9486 204.906 97.6785 204.763 97.4432C204.621 97.2045 204.443 97.0024 204.231 96.8366C204.019 96.6709 203.777 96.5466 203.505 96.4638C203.237 96.3776 202.947 96.3345 202.635 96.3345C202.082 96.3345 201.591 96.4737 201.164 96.7521C200.736 97.0272 200.401 97.4316 200.159 97.9652C199.917 98.4955 199.796 99.1435 199.796 99.9091C199.796 100.688 199.917 101.344 200.159 101.878C200.405 102.408 200.739 102.809 201.164 103.081C201.591 103.349 202.08 103.484 202.63 103.484C202.935 103.484 203.22 103.444 203.485 103.364C203.754 103.281 203.994 103.161 204.206 103.001C204.422 102.842 204.602 102.647 204.748 102.415C204.897 102.183 205 101.918 205.056 101.619L206.916 101.629C206.846 102.113 206.695 102.567 206.463 102.991C206.235 103.416 205.935 103.79 205.563 104.115C205.192 104.437 204.758 104.688 204.261 104.871C203.764 105.05 203.212 105.139 202.605 105.139C201.71 105.139 200.912 104.932 200.209 104.518C199.506 104.103 198.953 103.505 198.549 102.723C198.144 101.941 197.942 101.003 197.942 99.9091C197.942 98.812 198.146 97.8741 198.554 97.0952C198.961 96.313 199.516 95.7147 200.219 95.3004C200.922 94.8861 201.717 94.679 202.605 94.679C203.172 94.679 203.699 94.7585 204.186 94.9176C204.674 95.0767 205.108 95.3104 205.489 95.6186C205.87 95.9235 206.183 96.2981 206.429 96.7422C206.677 97.183 206.84 97.6868 206.916 98.2536ZM210.075 100.526V105H208.275V94.8182H210.035V98.6612H210.125C210.304 98.2304 210.58 97.8906 210.955 97.642C211.333 97.3902 211.813 97.2642 212.397 97.2642C212.927 97.2642 213.389 97.3752 213.784 97.5973C214.178 97.8194 214.483 98.1442 214.699 98.5717C214.917 98.9993 215.027 99.5213 215.027 100.138V105H213.227V100.416C213.227 99.9025 213.094 99.5031 212.829 99.218C212.567 98.9297 212.2 98.7855 211.726 98.7855C211.407 98.7855 211.122 98.8551 210.87 98.9943C210.622 99.1302 210.426 99.3274 210.284 99.5859C210.145 99.8445 210.075 100.158 210.075 100.526ZM218.809 105.154C218.325 105.154 217.889 105.068 217.501 104.896C217.117 104.72 216.812 104.461 216.586 104.12C216.364 103.779 216.253 103.358 216.253 102.857C216.253 102.426 216.333 102.07 216.492 101.788C216.651 101.507 216.868 101.281 217.143 101.112C217.418 100.943 217.728 100.816 218.073 100.729C218.421 100.64 218.781 100.575 219.152 100.536C219.599 100.489 219.962 100.448 220.241 100.411C220.519 100.371 220.721 100.312 220.847 100.232C220.976 100.149 221.041 100.022 221.041 99.8494V99.8196C221.041 99.4451 220.93 99.1551 220.708 98.9496C220.486 98.7441 220.166 98.6413 219.748 98.6413C219.307 98.6413 218.958 98.7375 218.699 98.9297C218.444 99.1219 218.272 99.349 218.182 99.6108L216.502 99.3722C216.634 98.9081 216.853 98.5204 217.158 98.2088C217.463 97.8939 217.836 97.6586 218.277 97.5028C218.718 97.3438 219.205 97.2642 219.738 97.2642C220.106 97.2642 220.473 97.3073 220.837 97.3935C221.202 97.4796 221.535 97.6222 221.836 97.821C222.138 98.0166 222.38 98.2834 222.562 98.6214C222.748 98.9595 222.841 99.3821 222.841 99.8892V105H221.111V103.951H221.051C220.941 104.163 220.787 104.362 220.589 104.548C220.393 104.73 220.146 104.877 219.848 104.99C219.553 105.099 219.206 105.154 218.809 105.154ZM219.276 103.832C219.637 103.832 219.95 103.76 220.216 103.618C220.481 103.472 220.685 103.28 220.827 103.041C220.973 102.803 221.046 102.542 221.046 102.261V101.361C220.99 101.407 220.893 101.45 220.758 101.49C220.625 101.53 220.476 101.565 220.31 101.594C220.144 101.624 219.98 101.651 219.818 101.674C219.656 101.697 219.515 101.717 219.395 101.734C219.127 101.77 218.887 101.83 218.674 101.913C218.462 101.996 218.295 102.112 218.172 102.261C218.05 102.406 217.988 102.595 217.988 102.827C217.988 103.159 218.109 103.409 218.351 103.578C218.593 103.747 218.901 103.832 219.276 103.832ZM226.2 100.526V105H224.4V97.3636H226.12V98.6612H226.21C226.386 98.2337 226.666 97.8939 227.05 97.642C227.438 97.3902 227.917 97.2642 228.487 97.2642C229.014 97.2642 229.473 97.3769 229.864 97.6023C230.258 97.8277 230.563 98.1541 230.779 98.5817C230.998 99.0092 231.105 99.5279 231.102 100.138V105H229.302V100.416C229.302 99.9058 229.17 99.5064 228.905 99.218C228.643 98.9297 228.28 98.7855 227.816 98.7855C227.501 98.7855 227.221 98.8551 226.976 98.9943C226.734 99.1302 226.543 99.3274 226.404 99.5859C226.268 99.8445 226.2 100.158 226.2 100.526ZM236.003 108.023C235.356 108.023 234.801 107.935 234.337 107.759C233.873 107.587 233.5 107.355 233.218 107.063C232.937 106.772 232.741 106.448 232.632 106.094L234.253 105.701C234.325 105.85 234.432 105.998 234.571 106.143C234.71 106.293 234.897 106.415 235.133 106.511C235.371 106.611 235.671 106.661 236.032 106.661C236.543 106.661 236.965 106.536 237.3 106.288C237.635 106.042 237.802 105.638 237.802 105.075V103.628H237.713C237.62 103.813 237.484 104.004 237.305 104.2C237.129 104.395 236.896 104.559 236.604 104.692C236.316 104.824 235.953 104.891 235.515 104.891C234.929 104.891 234.397 104.753 233.919 104.478C233.446 104.2 233.068 103.785 232.786 103.235C232.508 102.682 232.368 101.989 232.368 101.157C232.368 100.318 232.508 99.6108 232.786 99.0341C233.068 98.4541 233.447 98.0149 233.924 97.7166C234.402 97.415 234.934 97.2642 235.52 97.2642C235.968 97.2642 236.336 97.3404 236.624 97.4929C236.916 97.642 237.148 97.8227 237.32 98.0348C237.492 98.2436 237.623 98.4408 237.713 98.6264H237.812V97.3636H239.587V105.124C239.587 105.777 239.431 106.317 239.12 106.745C238.808 107.173 238.382 107.492 237.842 107.705C237.302 107.917 236.689 108.023 236.003 108.023ZM236.017 103.479C236.399 103.479 236.723 103.386 236.992 103.2C237.26 103.015 237.464 102.748 237.603 102.4C237.743 102.052 237.812 101.634 237.812 101.147C237.812 100.666 237.743 100.246 237.603 99.8842C237.468 99.523 237.265 99.2429 236.997 99.044C236.732 98.8419 236.405 98.7408 236.017 98.7408C235.616 98.7408 235.282 98.8452 235.013 99.054C234.745 99.2628 234.543 99.5495 234.407 99.9141C234.271 100.275 234.203 100.686 234.203 101.147C234.203 101.614 234.271 102.024 234.407 102.375C234.546 102.723 234.75 102.995 235.018 103.19C235.29 103.383 235.623 103.479 236.017 103.479ZM244.562 105.149C243.797 105.149 243.135 104.99 242.579 104.672C242.025 104.35 241.599 103.896 241.301 103.31C241.003 102.72 240.853 102.025 240.853 101.227C240.853 100.441 241.003 99.7517 241.301 99.1584C241.602 98.5618 242.023 98.0978 242.564 97.7663C243.104 97.4316 243.739 97.2642 244.468 97.2642C244.938 97.2642 245.383 97.3404 245.8 97.4929C246.221 97.642 246.592 97.8741 246.914 98.1889C247.239 98.5038 247.494 98.9048 247.679 99.392C247.865 99.8759 247.958 100.453 247.958 101.122V101.674H241.699V100.461H246.233C246.229 100.116 246.155 99.8097 246.009 99.5412C245.863 99.2694 245.659 99.0556 245.397 98.8999C245.139 98.7441 244.837 98.6662 244.493 98.6662C244.125 98.6662 243.802 98.7557 243.523 98.9347C243.245 99.1103 243.028 99.3423 242.872 99.6307C242.719 99.9157 242.642 100.229 242.638 100.57V101.629C242.638 102.073 242.719 102.455 242.882 102.773C243.044 103.088 243.271 103.33 243.563 103.499C243.855 103.664 244.196 103.747 244.587 103.747C244.849 103.747 245.086 103.711 245.298 103.638C245.51 103.562 245.694 103.451 245.85 103.305C246.006 103.159 246.123 102.978 246.203 102.763L247.883 102.952C247.777 103.396 247.575 103.784 247.277 104.115C246.982 104.443 246.604 104.698 246.143 104.881C245.682 105.06 245.156 105.149 244.562 105.149ZM255.266 99.3821L253.625 99.5611C253.579 99.3954 253.498 99.2396 253.382 99.0938C253.269 98.9479 253.117 98.8303 252.924 98.7408C252.732 98.6513 252.497 98.6065 252.218 98.6065C251.844 98.6065 251.529 98.6877 251.274 98.8501C251.022 99.0125 250.898 99.223 250.901 99.4815C250.898 99.7036 250.979 99.8842 251.144 100.023C251.313 100.163 251.592 100.277 251.98 100.366L253.282 100.645C254.005 100.801 254.542 101.048 254.893 101.386C255.248 101.724 255.427 102.166 255.43 102.713C255.427 103.194 255.286 103.618 255.007 103.986C254.732 104.35 254.349 104.635 253.859 104.841C253.368 105.046 252.805 105.149 252.169 105.149C251.234 105.149 250.482 104.954 249.911 104.562C249.341 104.168 249.002 103.62 248.892 102.917L250.647 102.748C250.727 103.093 250.896 103.353 251.154 103.528C251.413 103.704 251.749 103.792 252.164 103.792C252.591 103.792 252.934 103.704 253.193 103.528C253.455 103.353 253.585 103.136 253.585 102.877C253.585 102.658 253.501 102.478 253.332 102.335C253.166 102.193 252.908 102.083 252.556 102.007L251.254 101.734C250.521 101.581 249.979 101.324 249.628 100.963C249.277 100.598 249.103 100.138 249.106 99.581C249.103 99.1103 249.23 98.7027 249.489 98.358C249.751 98.0099 250.114 97.7415 250.578 97.5526C251.045 97.3603 251.584 97.2642 252.193 97.2642C253.088 97.2642 253.793 97.4548 254.306 97.8359C254.823 98.2171 255.143 98.7325 255.266 99.3821Z" fill="#FCFCFD"/>
<rect x="0.5" y="0.5" width="389" height="199" rx="7.5" stroke="#4CA154" stroke-opacity="0.1"/>
</svg>
