<svg width="390" height="200" viewBox="0 0 390 200" fill="none" xmlns="http://www.w3.org/2000/svg">
<rect width="390" height="200" rx="8" fill="#4CA154" fill-opacity="0.1"/>
<path d="M28 159C25.4288 159 22.9154 159.762 20.7776 161.191C18.6398 162.619 16.9735 164.65 15.9896 167.025C15.0056 169.401 14.7482 172.014 15.2498 174.536C15.7514 177.058 16.9895 179.374 18.8076 181.192C20.6257 183.01 22.9421 184.249 25.4638 184.75C27.9856 185.252 30.5995 184.994 32.9749 184.01C35.3503 183.026 37.3807 181.36 38.8091 179.222C40.2376 177.085 41 174.571 41 172C40.9964 168.553 39.6256 165.249 37.1884 162.812C34.7512 160.374 31.4467 159.004 28 159ZM33.7075 169.708L26.7075 176.708C26.6146 176.8 26.5043 176.874 26.3829 176.925C26.2615 176.975 26.1314 177.001 26 177.001C25.8686 177.001 25.7385 176.975 25.6171 176.925C25.4957 176.874 25.3854 176.8 25.2925 176.708L22.2925 173.708C22.1049 173.52 21.9994 173.265 21.9994 173C21.9994 172.735 22.1049 172.48 22.2925 172.292C22.4801 172.105 22.7346 171.999 23 171.999C23.2654 171.999 23.5199 172.105 23.7075 172.292L26 174.586L32.2925 168.292C32.3854 168.2 32.4957 168.126 32.6171 168.076C32.7385 168.025 32.8686 167.999 33 167.999C33.1314 167.999 33.2615 168.025 33.3829 168.076C33.5043 168.126 33.6146 168.2 33.7075 168.292C33.8004 168.385 33.8741 168.496 33.9244 168.617C33.9747 168.738 34.0006 168.869 34.0006 169C34.0006 169.131 33.9747 169.262 33.9244 169.383C33.8741 169.504 33.8004 169.615 33.7075 169.708Z" fill="#4CA154"/>
<g filter="url(#filter0_d_913_37952)">
<g clip-path="url(#clip0_913_37952)">
<path d="M57 65.502C57 61.9844 59.8516 59.1328 63.3692 59.1328H326.631C330.148 59.1328 333 61.9844 333 65.502V134.502C333 138.02 330.148 140.871 326.631 140.871H63.3692C59.8516 140.871 57 138.02 57 134.502V65.502Z" fill="#FCFCFD"/>
<path d="M73.9844 100.005C73.9844 95.2085 77.8726 91.3203 82.669 91.3203H144.392C149.188 91.3203 153.077 95.2085 153.077 100.005V100.005C153.077 104.801 149.188 108.69 144.392 108.69H82.669C77.8726 108.69 73.9844 104.801 73.9844 100.005V100.005Z" fill="#217CF5"/>
<path d="M82.1118 98.3413V96.3509C82.1118 96.2189 82.1642 96.0923 82.2575 95.999C82.3508 95.9057 82.4774 95.8533 82.6094 95.8533C82.7413 95.8533 82.8679 95.9057 82.9612 95.999C83.0545 96.0923 83.107 96.2189 83.107 96.3509V98.3413C83.107 98.4732 83.0545 98.5998 82.9612 98.6931C82.8679 98.7864 82.7413 98.8389 82.6094 98.8389C82.4774 98.8389 82.3508 98.7864 82.2575 98.6931C82.1642 98.5998 82.1118 98.4732 82.1118 98.3413ZM88.4147 96.3509V103.981C88.4147 104.113 88.3622 104.239 88.2689 104.333C88.1756 104.426 88.049 104.478 87.9171 104.478C87.7851 104.478 87.6585 104.426 87.5652 104.333C87.4719 104.239 87.4195 104.113 87.4195 103.981V102.156H85.595C85.463 102.156 85.3364 102.104 85.2431 102.01C85.1498 101.917 85.0974 101.791 85.0974 101.659C85.1129 100.851 85.2148 100.047 85.4013 99.261C85.8197 97.5294 86.6217 96.3646 87.7209 95.8948C87.7965 95.8623 87.879 95.8492 87.9609 95.8564C88.0429 95.8637 88.1217 95.8911 88.1904 95.9363C88.2592 95.9815 88.3156 96.043 88.3548 96.1154C88.3939 96.1877 88.4145 96.2686 88.4147 96.3509ZM87.4195 97.3013C86.8638 97.8851 86.5487 98.7559 86.3733 99.4766C86.242 100.03 86.1558 100.593 86.1154 101.161H87.4195V97.3013ZM84.5998 96.3094C84.5888 96.1774 84.5258 96.0553 84.4247 95.9697C84.3236 95.8842 84.1927 95.8423 84.0607 95.8533C83.9287 95.8643 83.8065 95.9273 83.721 96.0284C83.6354 96.1294 83.5936 96.2604 83.6046 96.3924L83.7704 98.3603C83.7704 98.6683 83.6481 98.9636 83.4304 99.1813C83.2126 99.3991 82.9173 99.5214 82.6094 99.5214C82.3014 99.5214 82.0061 99.3991 81.7884 99.1813C81.5706 98.9636 81.4483 98.6683 81.4483 98.3603L81.6142 96.3924C81.6196 96.327 81.6121 96.2612 81.5922 96.1988C81.5722 96.1363 81.5401 96.0784 81.4978 96.0284C81.4554 95.9783 81.4036 95.9371 81.3453 95.907C81.287 95.877 81.2234 95.8587 81.1581 95.8533C81.0927 95.8478 81.0269 95.8553 80.9645 95.8753C80.902 95.8953 80.8441 95.9274 80.7941 95.9697C80.744 96.0121 80.7028 96.0639 80.6727 96.1222C80.6427 96.1804 80.6244 96.2441 80.619 96.3094L80.4531 98.2998C80.4531 98.3139 80.4531 98.3276 80.4531 98.3413C80.4539 98.8264 80.618 99.2971 80.9188 99.6777C81.2197 100.058 81.6399 100.326 82.1118 100.439V103.981C82.1118 104.113 82.1642 104.239 82.2575 104.333C82.3508 104.426 82.4774 104.478 82.6094 104.478C82.7413 104.478 82.8679 104.426 82.9612 104.333C83.0545 104.239 83.107 104.113 83.107 103.981V100.439C83.5788 100.326 83.999 100.058 84.2999 99.6777C84.6008 99.2971 84.7648 98.8264 84.7656 98.3413C84.7656 98.3276 84.7656 98.3139 84.7656 98.2998L84.5998 96.3094Z" fill="#FCFCFD"/>
<path d="M93.0377 102.508V97.1036H95.0643C95.4795 97.1036 95.8278 97.1757 96.1093 97.32C96.3925 97.4642 96.6062 97.6666 96.7505 97.9269C96.8965 98.1855 96.9695 98.4872 96.9695 98.832C96.9695 99.1786 96.8956 99.4794 96.7478 99.7345C96.6018 99.9878 96.3863 100.184 96.1013 100.323C95.8164 100.46 95.4663 100.529 95.0511 100.529H93.6077V99.716H94.9192C95.1619 99.716 95.3607 99.6826 95.5155 99.6157C95.6703 99.5471 95.7847 99.4477 95.8586 99.3175C95.9342 99.1856 95.972 99.0238 95.972 98.832C95.972 98.6403 95.9342 98.4767 95.8586 98.3412C95.7829 98.204 95.6677 98.1002 95.5129 98.0298C95.3581 97.9577 95.1584 97.9216 94.9139 97.9216H94.0167V102.508H93.0377ZM95.8296 100.059L97.1674 102.508H96.075L94.7608 100.059H95.8296ZM99.432 102.587C99.0257 102.587 98.6747 102.503 98.3792 102.334C98.0854 102.163 97.8593 101.922 97.701 101.611C97.5427 101.297 97.4635 100.929 97.4635 100.505C97.4635 100.088 97.5427 99.7222 97.701 99.4073C97.8611 99.0906 98.0845 98.8443 98.3712 98.6684C98.658 98.4907 98.9949 98.4019 99.3819 98.4019C99.6317 98.4019 99.8674 98.4424 100.089 98.5233C100.313 98.6024 100.51 98.7256 100.68 98.8927C100.853 99.0598 100.988 99.2727 101.087 99.5313C101.185 99.7881 101.234 100.094 101.234 100.45V100.742H97.9121V100.099H100.319C100.317 99.9157 100.277 99.7529 100.2 99.6104C100.123 99.4662 100.014 99.3527 99.8753 99.27C99.7381 99.1874 99.578 99.146 99.3951 99.146C99.1998 99.146 99.0283 99.1935 98.8805 99.2885C98.7328 99.3818 98.6175 99.5049 98.5349 99.6579C98.4539 99.8092 98.4126 99.9755 98.4108 100.157V100.719C98.4108 100.954 98.4539 101.157 98.5401 101.326C98.6263 101.493 98.7468 101.621 98.9016 101.711C99.0564 101.799 99.2376 101.843 99.4452 101.843C99.5842 101.843 99.71 101.823 99.8226 101.785C99.9352 101.744 100.033 101.685 100.115 101.608C100.198 101.531 100.261 101.435 100.303 101.32L101.195 101.421C101.138 101.656 101.031 101.862 100.873 102.038C100.716 102.212 100.516 102.348 100.271 102.444C100.027 102.539 99.7469 102.587 99.432 102.587ZM105.113 99.526L104.242 99.621C104.218 99.533 104.175 99.4504 104.113 99.373C104.053 99.2956 103.972 99.2331 103.87 99.1856C103.768 99.1381 103.643 99.1144 103.496 99.1144C103.297 99.1144 103.13 99.1575 102.994 99.2437C102.861 99.3299 102.795 99.4416 102.796 99.5788C102.795 99.6966 102.838 99.7925 102.926 99.8664C103.015 99.9403 103.163 100.001 103.369 100.048L104.06 100.196C104.444 100.279 104.729 100.41 104.915 100.589C105.104 100.769 105.199 101.004 105.2 101.294C105.199 101.549 105.124 101.774 104.976 101.97C104.83 102.163 104.627 102.314 104.366 102.423C104.106 102.532 103.807 102.587 103.469 102.587C102.973 102.587 102.574 102.483 102.271 102.276C101.969 102.066 101.788 101.775 101.73 101.402L102.662 101.312C102.704 101.495 102.794 101.634 102.931 101.727C103.068 101.82 103.247 101.867 103.467 101.867C103.694 101.867 103.876 101.82 104.013 101.727C104.152 101.634 104.221 101.518 104.221 101.381C104.221 101.265 104.176 101.169 104.087 101.093C103.999 101.018 103.862 100.96 103.675 100.919L102.984 100.774C102.595 100.693 102.307 100.557 102.121 100.365C101.934 100.172 101.842 99.9271 101.844 99.6316C101.842 99.3818 101.91 99.1654 102.047 98.9824C102.186 98.7977 102.379 98.6552 102.625 98.5549C102.873 98.4529 103.159 98.4019 103.482 98.4019C103.957 98.4019 104.331 98.503 104.604 98.7053C104.878 98.9077 105.048 99.1812 105.113 99.526ZM107.879 98.4547V99.1935H105.549V98.4547H107.879ZM106.124 97.4836H107.08V101.289C107.08 101.417 107.099 101.516 107.138 101.584C107.178 101.651 107.231 101.697 107.296 101.721C107.361 101.746 107.433 101.758 107.512 101.758C107.572 101.758 107.627 101.754 107.676 101.745C107.727 101.736 107.766 101.728 107.792 101.721L107.953 102.468C107.902 102.486 107.829 102.505 107.734 102.526C107.641 102.547 107.526 102.56 107.391 102.563C107.152 102.57 106.936 102.534 106.745 102.455C106.553 102.374 106.401 102.249 106.288 102.08C106.177 101.911 106.123 101.7 106.124 101.447V97.4836ZM109.712 102.59C109.455 102.59 109.224 102.544 109.018 102.452C108.814 102.359 108.652 102.222 108.532 102.041C108.414 101.86 108.355 101.636 108.355 101.371C108.355 101.142 108.398 100.953 108.482 100.803C108.567 100.654 108.682 100.534 108.828 100.444C108.974 100.355 109.138 100.287 109.321 100.241C109.506 100.194 109.697 100.159 109.894 100.138C110.131 100.114 110.324 100.092 110.472 100.072C110.619 100.051 110.727 100.019 110.794 99.9772C110.862 99.9333 110.897 99.8655 110.897 99.774V99.7582C110.897 99.5594 110.838 99.4055 110.72 99.2964C110.602 99.1874 110.432 99.1328 110.21 99.1328C109.976 99.1328 109.791 99.1838 109.654 99.2859C109.518 99.3879 109.427 99.5084 109.379 99.6474L108.487 99.5207C108.558 99.2744 108.674 99.0686 108.836 98.9033C108.998 98.7361 109.195 98.6112 109.429 98.5286C109.663 98.4441 109.922 98.4019 110.205 98.4019C110.4 98.4019 110.595 98.4248 110.788 98.4705C110.982 98.5162 111.159 98.5919 111.319 98.6974C111.479 98.8012 111.607 98.9428 111.704 99.1223C111.803 99.3017 111.852 99.526 111.852 99.7952V102.508H110.933V101.951H110.902C110.844 102.064 110.762 102.169 110.656 102.268C110.553 102.364 110.422 102.443 110.263 102.503C110.107 102.561 109.923 102.59 109.712 102.59ZM109.96 101.888C110.152 101.888 110.318 101.85 110.458 101.774C110.599 101.697 110.707 101.595 110.783 101.468C110.86 101.341 110.899 101.203 110.899 101.054V100.576C110.869 100.601 110.818 100.624 110.746 100.645C110.676 100.666 110.597 100.684 110.509 100.7C110.421 100.716 110.334 100.73 110.247 100.742C110.161 100.755 110.086 100.765 110.023 100.774C109.881 100.793 109.753 100.825 109.64 100.869C109.528 100.913 109.439 100.975 109.374 101.054C109.309 101.131 109.276 101.232 109.276 101.355C109.276 101.531 109.341 101.663 109.469 101.753C109.597 101.843 109.761 101.888 109.96 101.888ZM115.263 100.803V98.4547H116.218V102.508H115.292V101.787H115.25C115.158 102.014 115.008 102.2 114.799 102.344C114.591 102.488 114.335 102.561 114.031 102.561C113.765 102.561 113.53 102.502 113.326 102.384C113.124 102.264 112.965 102.091 112.851 101.864C112.737 101.635 112.68 101.359 112.68 101.035V98.4547H113.635V100.888C113.635 101.144 113.705 101.349 113.846 101.5C113.987 101.651 114.171 101.727 114.4 101.727C114.541 101.727 114.677 101.692 114.809 101.624C114.941 101.555 115.049 101.453 115.134 101.318C115.22 101.181 115.263 101.009 115.263 100.803ZM117.068 102.508V98.4547H117.994V99.1302H118.036C118.11 98.8962 118.237 98.7159 118.416 98.5892C118.597 98.4608 118.804 98.3966 119.036 98.3966C119.089 98.3966 119.148 98.3993 119.213 98.4045C119.28 98.408 119.335 98.4142 119.379 98.423V99.3017C119.339 99.2876 119.275 99.2753 119.187 99.2648C119.1 99.2525 119.017 99.2463 118.936 99.2463C118.762 99.2463 118.605 99.2841 118.466 99.3598C118.329 99.4336 118.221 99.5366 118.142 99.6685C118.063 99.8004 118.023 99.9526 118.023 100.125V102.508H117.068ZM120.975 102.59C120.718 102.59 120.487 102.544 120.281 102.452C120.077 102.359 119.915 102.222 119.795 102.041C119.678 101.86 119.619 101.636 119.619 101.371C119.619 101.142 119.661 100.953 119.745 100.803C119.83 100.654 119.945 100.534 120.091 100.444C120.237 100.355 120.402 100.287 120.584 100.241C120.769 100.194 120.96 100.159 121.157 100.138C121.395 100.114 121.587 100.092 121.735 100.072C121.883 100.051 121.99 100.019 122.057 99.9772C122.126 99.9333 122.16 99.8655 122.16 99.774V99.7582C122.16 99.5594 122.101 99.4055 121.983 99.2964C121.865 99.1874 121.695 99.1328 121.474 99.1328C121.24 99.1328 121.054 99.1838 120.917 99.2859C120.782 99.3879 120.69 99.5084 120.643 99.6474L119.751 99.5207C119.821 99.2744 119.937 99.0686 120.099 98.9033C120.261 98.7361 120.459 98.6112 120.693 98.5286C120.927 98.4441 121.185 98.4019 121.468 98.4019C121.664 98.4019 121.858 98.4248 122.052 98.4705C122.245 98.5162 122.422 98.5919 122.582 98.6974C122.742 98.8012 122.871 98.9428 122.967 99.1223C123.066 99.3017 123.115 99.526 123.115 99.7952V102.508H122.197V101.951H122.165C122.107 102.064 122.025 102.169 121.92 102.268C121.816 102.364 121.685 102.443 121.527 102.503C121.37 102.561 121.186 102.59 120.975 102.59ZM121.223 101.888C121.415 101.888 121.581 101.85 121.722 101.774C121.863 101.697 121.971 101.595 122.046 101.468C122.124 101.341 122.162 101.203 122.162 101.054V100.576C122.133 100.601 122.082 100.624 122.009 100.645C121.939 100.666 121.86 100.684 121.772 100.7C121.684 100.716 121.597 100.73 121.511 100.742C121.424 100.755 121.35 100.765 121.286 100.774C121.144 100.793 121.016 100.825 120.904 100.869C120.791 100.913 120.702 100.975 120.637 101.054C120.572 101.131 120.54 101.232 120.54 101.355C120.54 101.531 120.604 101.663 120.732 101.753C120.861 101.843 121.024 101.888 121.223 101.888ZM124.898 100.133V102.508H123.943V98.4547H124.856V99.1434H124.903C124.997 98.9164 125.145 98.7361 125.349 98.6024C125.555 98.4687 125.809 98.4019 126.112 98.4019C126.392 98.4019 126.635 98.4617 126.843 98.5813C127.052 98.701 127.214 98.8742 127.328 99.1012C127.445 99.3281 127.502 99.6034 127.5 99.9271V102.508H126.545V100.075C126.545 99.804 126.474 99.592 126.334 99.4389C126.195 99.2859 126.002 99.2094 125.756 99.2094C125.589 99.2094 125.44 99.2463 125.31 99.3202C125.181 99.3923 125.08 99.497 125.006 99.6342C124.934 99.7714 124.898 99.9377 124.898 100.133ZM130.362 98.4547V99.1935H128.032V98.4547H130.362ZM128.607 97.4836H129.563V101.289C129.563 101.417 129.582 101.516 129.621 101.584C129.661 101.651 129.714 101.697 129.779 101.721C129.844 101.746 129.916 101.758 129.995 101.758C130.055 101.758 130.11 101.754 130.159 101.745C130.21 101.736 130.249 101.728 130.275 101.721L130.436 102.468C130.385 102.486 130.312 102.505 130.217 102.526C130.124 102.547 130.01 102.56 129.874 102.563C129.635 102.57 129.419 102.534 129.228 102.455C129.036 102.374 128.884 102.249 128.771 102.08C128.66 101.911 128.606 101.7 128.607 101.447V97.4836ZM134.174 99.526L133.303 99.621C133.278 99.533 133.235 99.4504 133.174 99.373C133.114 99.2956 133.033 99.2331 132.931 99.1856C132.829 99.1381 132.704 99.1144 132.556 99.1144C132.358 99.1144 132.19 99.1575 132.055 99.2437C131.921 99.3299 131.855 99.4416 131.857 99.5788C131.855 99.6966 131.898 99.7925 131.986 99.8664C132.076 99.9403 132.224 100.001 132.43 100.048L133.121 100.196C133.504 100.279 133.789 100.41 133.976 100.589C134.164 100.769 134.259 101.004 134.261 101.294C134.259 101.549 134.184 101.774 134.037 101.97C133.891 102.163 133.687 102.314 133.427 102.423C133.167 102.532 132.868 102.587 132.53 102.587C132.034 102.587 131.634 102.483 131.332 102.276C131.029 102.066 130.849 101.775 130.791 101.402L131.722 101.312C131.765 101.495 131.854 101.634 131.992 101.727C132.129 101.82 132.307 101.867 132.527 101.867C132.754 101.867 132.936 101.82 133.073 101.727C133.212 101.634 133.282 101.518 133.282 101.381C133.282 101.265 133.237 101.169 133.147 101.093C133.059 101.018 132.922 100.96 132.736 100.919L132.044 100.774C131.656 100.693 131.368 100.557 131.181 100.365C130.995 100.172 130.903 99.9271 130.904 99.6316C130.903 99.3818 130.97 99.1654 131.108 98.9824C131.247 98.7977 131.439 98.6552 131.685 98.5549C131.934 98.4529 132.219 98.4019 132.543 98.4019C133.018 98.4019 133.392 98.503 133.665 98.7053C133.939 98.9077 134.109 99.1812 134.174 99.526Z" fill="#FCFCFD"/>
<path d="M145.801 102.634C145.894 102.727 145.947 102.854 145.947 102.986C145.947 103.119 145.894 103.245 145.801 103.339C145.707 103.432 145.58 103.485 145.448 103.485C145.316 103.485 145.189 103.432 145.096 103.339L142.463 100.705L139.829 103.338C139.736 103.432 139.609 103.484 139.477 103.484C139.345 103.484 139.218 103.432 139.125 103.338C139.031 103.245 138.979 103.118 138.979 102.986C138.979 102.853 139.031 102.727 139.125 102.633L141.758 100L139.125 97.367C139.032 97.2735 138.979 97.1467 138.979 97.0145C138.979 96.8823 139.032 96.7555 139.125 96.662C139.219 96.5686 139.346 96.516 139.478 96.516C139.61 96.516 139.737 96.5686 139.83 96.662L142.463 99.2956L145.096 96.6616C145.19 96.5681 145.317 96.5156 145.449 96.5156C145.581 96.5156 145.708 96.5681 145.801 96.6616C145.895 96.7551 145.947 96.8819 145.947 97.0141C145.947 97.1463 145.895 97.2731 145.801 97.3665L143.168 100L145.801 102.634Z" fill="#FCFCFD"/>
<path d="M157.322 100.005C157.322 95.2085 161.21 91.3203 166.007 91.3203H197.053C201.849 91.3203 205.738 95.2085 205.738 100.005V100.005C205.738 104.801 201.849 108.69 197.053 108.69H166.007C161.21 108.69 157.322 104.801 157.322 100.005V100.005Z" fill="#4D5562" fill-opacity="0.05"/>
<path d="M171.421 97.8413H163.957C163.825 97.8413 163.698 97.8938 163.605 97.9871C163.511 98.0804 163.459 98.207 163.459 98.3389V100.329C163.461 101.375 163.856 102.382 164.567 103.149H163.957C163.825 103.149 163.698 103.201 163.605 103.295C163.511 103.388 163.459 103.515 163.459 103.647C163.459 103.779 163.511 103.905 163.605 103.998C163.698 104.092 163.825 104.144 163.957 104.144H171.255C171.387 104.144 171.513 104.092 171.607 103.998C171.7 103.905 171.752 103.779 171.752 103.647C171.752 103.515 171.7 103.388 171.607 103.295C171.513 103.201 171.387 103.149 171.255 103.149H170.644C171.001 102.763 171.283 102.313 171.473 101.822C171.948 101.808 172.399 101.61 172.729 101.269C173.06 100.929 173.245 100.473 173.245 99.9976V99.6659C173.244 99.1821 173.052 98.7184 172.71 98.3763C172.368 98.0343 171.904 97.8419 171.421 97.8413ZM170.757 100.329C170.756 100.914 170.593 101.488 170.285 101.986C169.978 102.483 169.538 102.886 169.015 103.149H166.196C165.673 102.886 165.234 102.483 164.926 101.986C164.619 101.488 164.455 100.914 164.454 100.329V98.8365H170.757V100.329ZM172.25 99.9976C172.25 100.163 172.2 100.325 172.107 100.462C172.014 100.599 171.882 100.705 171.729 100.767C171.744 100.622 171.752 100.475 171.752 100.329V98.9062C171.9 98.9707 172.026 99.0769 172.114 99.2119C172.203 99.3468 172.25 99.5046 172.25 99.6659V99.9976ZM165.449 96.6803V95.6851C165.449 95.5531 165.502 95.4266 165.595 95.3332C165.688 95.2399 165.815 95.1875 165.947 95.1875C166.079 95.1875 166.206 95.2399 166.299 95.3332C166.392 95.4266 166.445 95.5531 166.445 95.6851V96.6803C166.445 96.8123 166.392 96.9388 166.299 97.0321C166.206 97.1255 166.079 97.1779 165.947 97.1779C165.815 97.1779 165.688 97.1255 165.595 97.0321C165.502 96.9388 165.449 96.8123 165.449 96.6803ZM167.108 96.6803V95.6851C167.108 95.5531 167.16 95.4266 167.254 95.3332C167.347 95.2399 167.474 95.1875 167.606 95.1875C167.738 95.1875 167.864 95.2399 167.957 95.3332C168.051 95.4266 168.103 95.5531 168.103 95.6851V96.6803C168.103 96.8123 168.051 96.9388 167.957 97.0321C167.864 97.1255 167.738 97.1779 167.606 97.1779C167.474 97.1779 167.347 97.1255 167.254 97.0321C167.16 96.9388 167.108 96.8123 167.108 96.6803ZM168.767 96.6803V95.6851C168.767 95.5531 168.819 95.4266 168.912 95.3332C169.006 95.2399 169.132 95.1875 169.264 95.1875C169.396 95.1875 169.523 95.2399 169.616 95.3332C169.709 95.4266 169.762 95.5531 169.762 95.6851V96.6803C169.762 96.8123 169.709 96.9388 169.616 97.0321C169.523 97.1255 169.396 97.1779 169.264 97.1779C169.132 97.1779 169.006 97.1255 168.912 97.0321C168.819 96.9388 168.767 96.8123 168.767 96.6803Z" fill="#4D5562"/>
<path d="M180.865 98.7924H180.21C180.172 98.6042 180.104 98.4388 180.007 98.2963C179.912 98.1538 179.796 98.0342 179.659 97.9375C179.523 97.839 179.373 97.7651 179.208 97.7158C179.042 97.6666 178.87 97.6419 178.69 97.6419C178.363 97.6419 178.067 97.7246 177.801 97.89C177.537 98.0553 177.327 98.299 177.171 98.6209C177.016 98.9428 176.938 99.3378 176.938 99.8057C176.938 100.274 177.016 100.669 177.171 100.991C177.327 101.312 177.537 101.556 177.801 101.721C178.067 101.887 178.363 101.97 178.69 101.97C178.87 101.97 179.042 101.945 179.208 101.896C179.373 101.846 179.523 101.773 179.659 101.677C179.796 101.578 179.912 101.458 180.007 101.315C180.104 101.171 180.172 101.005 180.21 100.819H180.865C180.816 101.095 180.726 101.342 180.596 101.56C180.465 101.779 180.304 101.964 180.11 102.117C179.917 102.269 179.699 102.384 179.458 102.463C179.219 102.542 178.963 102.582 178.69 102.582C178.23 102.582 177.82 102.469 177.461 102.244C177.102 102.019 176.82 101.699 176.614 101.283C176.408 100.868 176.305 100.376 176.305 99.8057C176.305 99.2357 176.408 98.7432 176.614 98.328C176.82 97.9128 177.102 97.5927 177.461 97.3675C177.82 97.1423 178.23 97.0297 178.69 97.0297C178.963 97.0297 179.219 97.0693 179.458 97.1485C179.699 97.2276 179.917 97.3437 180.11 97.4968C180.304 97.6481 180.465 97.8328 180.596 98.0509C180.726 98.2673 180.816 98.5145 180.865 98.7924ZM183.352 102.592C182.986 102.592 182.665 102.505 182.389 102.331C182.114 102.157 181.9 101.913 181.745 101.6C181.592 101.287 181.515 100.921 181.515 100.502C181.515 100.08 181.592 99.7116 181.745 99.3967C181.9 99.0818 182.114 98.8373 182.389 98.6631C182.665 98.489 182.986 98.4019 183.352 98.4019C183.718 98.4019 184.038 98.489 184.312 98.6631C184.588 98.8373 184.803 99.0818 184.956 99.3967C185.111 99.7116 185.188 100.08 185.188 100.502C185.188 100.921 185.111 101.287 184.956 101.6C184.803 101.913 184.588 102.157 184.312 102.331C184.038 102.505 183.718 102.592 183.352 102.592ZM183.352 102.033C183.63 102.033 183.858 101.962 184.038 101.819C184.217 101.677 184.35 101.489 184.436 101.257C184.522 101.025 184.566 100.773 184.566 100.502C184.566 100.231 184.522 99.979 184.436 99.745C184.35 99.5111 184.217 99.3219 184.038 99.1777C183.858 99.0334 183.63 98.9613 183.352 98.9613C183.074 98.9613 182.845 99.0334 182.666 99.1777C182.486 99.3219 182.353 99.5111 182.267 99.745C182.181 99.979 182.138 100.231 182.138 100.502C182.138 100.773 182.181 101.025 182.267 101.257C182.353 101.489 182.486 101.677 182.666 101.819C182.845 101.962 183.074 102.033 183.352 102.033ZM187.811 98.4547V98.9824H185.626V98.4547H187.811ZM186.281 102.508V97.8952C186.281 97.663 186.335 97.4695 186.444 97.3147C186.553 97.1599 186.695 97.0438 186.869 96.9664C187.043 96.889 187.227 96.8503 187.421 96.8503C187.574 96.8503 187.699 96.8626 187.795 96.8872C187.892 96.9119 187.964 96.9347 188.012 96.9558L187.832 97.4942C187.801 97.4836 187.757 97.4704 187.7 97.4546C187.646 97.4387 187.574 97.4308 187.484 97.4308C187.278 97.4308 187.129 97.4827 187.038 97.5865C186.948 97.6903 186.903 97.8425 186.903 98.043V102.508H186.281ZM190.356 98.4547V98.9824H188.171V98.4547H190.356ZM188.826 102.508V97.8952C188.826 97.663 188.88 97.4695 188.989 97.3147C189.098 97.1599 189.24 97.0438 189.414 96.9664C189.588 96.889 189.772 96.8503 189.966 96.8503C190.119 96.8503 190.244 96.8626 190.34 96.8872C190.437 96.9119 190.509 96.9347 190.557 96.9558L190.377 97.4942C190.346 97.4836 190.302 97.4704 190.245 97.4546C190.191 97.4387 190.119 97.4308 190.029 97.4308C189.823 97.4308 189.674 97.4827 189.583 97.5865C189.493 97.6903 189.448 97.8425 189.448 98.043V102.508H188.826ZM192.629 102.592C192.238 102.592 191.901 102.506 191.618 102.334C191.337 102.159 191.119 101.917 190.966 101.605C190.815 101.292 190.739 100.928 190.739 100.513C190.739 100.098 190.815 99.7318 190.966 99.4152C191.119 99.0968 191.332 98.8487 191.605 98.671C191.879 98.4916 192.199 98.4019 192.565 98.4019C192.776 98.4019 192.985 98.4371 193.191 98.5074C193.397 98.5778 193.584 98.6922 193.753 98.8505C193.922 99.007 194.056 99.2146 194.157 99.4732C194.257 99.7318 194.307 100.05 194.307 100.428V100.692H191.183V100.154H193.674C193.674 99.9253 193.628 99.7213 193.536 99.5418C193.447 99.3624 193.318 99.2208 193.151 99.117C192.986 99.0132 192.791 98.9613 192.565 98.9613C192.317 98.9613 192.103 99.0229 191.922 99.146C191.742 99.2674 191.604 99.4257 191.507 99.621C191.41 99.8163 191.362 100.026 191.362 100.249V100.608C191.362 100.914 191.415 101.173 191.52 101.386C191.628 101.597 191.776 101.758 191.966 101.869C192.156 101.978 192.377 102.033 192.629 102.033C192.792 102.033 192.94 102.01 193.072 101.964C193.206 101.917 193.321 101.846 193.418 101.753C193.514 101.658 193.589 101.54 193.642 101.4L194.244 101.568C194.18 101.772 194.074 101.952 193.924 102.107C193.775 102.26 193.59 102.379 193.37 102.466C193.15 102.55 192.903 102.592 192.629 102.592ZM196.821 102.592C196.43 102.592 196.094 102.506 195.81 102.334C195.529 102.159 195.312 101.917 195.159 101.605C195.007 101.292 194.932 100.928 194.932 100.513C194.932 100.098 195.007 99.7318 195.159 99.4152C195.312 99.0968 195.524 98.8487 195.797 98.671C196.072 98.4916 196.392 98.4019 196.758 98.4019C196.969 98.4019 197.177 98.4371 197.383 98.5074C197.589 98.5778 197.776 98.6922 197.945 98.8505C198.114 99.007 198.249 99.2146 198.349 99.4732C198.449 99.7318 198.499 100.05 198.499 100.428V100.692H195.375V100.154H197.866C197.866 99.9253 197.82 99.7213 197.729 99.5418C197.639 99.3624 197.511 99.2208 197.343 99.117C197.178 99.0132 196.983 98.9613 196.758 98.9613C196.51 98.9613 196.295 99.0229 196.114 99.146C195.934 99.2674 195.796 99.4257 195.699 99.621C195.603 99.8163 195.554 100.026 195.554 100.249V100.608C195.554 100.914 195.607 101.173 195.713 101.386C195.82 101.597 195.969 101.758 196.159 101.869C196.349 101.978 196.569 102.033 196.821 102.033C196.985 102.033 197.132 102.01 197.264 101.964C197.398 101.917 197.513 101.846 197.61 101.753C197.707 101.658 197.781 101.54 197.834 101.4L198.436 101.568C198.373 101.772 198.266 101.952 198.117 102.107C197.967 102.26 197.782 102.379 197.562 102.466C197.343 102.55 197.095 102.592 196.821 102.592Z" fill="#4D5562"/>
<g opacity="0.8">
<path d="M209.984 100.005C209.984 95.2085 213.873 91.3203 218.669 91.3203H247.715C252.512 91.3203 256.4 95.2085 256.4 100.005V100.005C256.4 104.801 252.512 108.69 247.715 108.69H218.669C213.873 108.69 209.984 104.801 209.984 100.005V100.005Z" fill="#4D5562" fill-opacity="0.05"/>
<path d="M223.916 97.5144H216.452V96.6851C216.452 96.5531 216.4 96.4266 216.306 96.3332C216.213 96.2399 216.087 96.1875 215.955 96.1875C215.823 96.1875 215.696 96.2399 215.603 96.3332C215.509 96.4266 215.457 96.5531 215.457 96.6851V103.32C215.457 103.452 215.509 103.578 215.603 103.672C215.696 103.765 215.823 103.817 215.955 103.817C216.087 103.817 216.213 103.765 216.306 103.672C216.4 103.578 216.452 103.452 216.452 103.32V102.159H224.745V103.32C224.745 103.452 224.798 103.578 224.891 103.672C224.985 103.765 225.111 103.817 225.243 103.817C225.375 103.817 225.502 103.765 225.595 103.672C225.688 103.578 225.741 103.452 225.741 103.32V99.3389C225.74 98.8552 225.548 98.3915 225.206 98.0494C224.864 97.7074 224.4 97.515 223.916 97.5144ZM219.106 101.163H216.452V98.5096H219.106V101.163ZM224.745 101.163H220.101V98.5096H223.916C224.136 98.5096 224.347 98.597 224.503 98.7525C224.658 98.908 224.745 99.119 224.745 99.3389V101.163Z" fill="#4D5562"/>
<path d="M228.737 102.508V97.1036H229.391V99.5102H232.273V97.1036H232.927V102.508H232.273V100.091H229.391V102.508H228.737ZM235.667 102.592C235.301 102.592 234.98 102.505 234.704 102.331C234.429 102.157 234.215 101.913 234.06 101.6C233.907 101.287 233.83 100.921 233.83 100.502C233.83 100.08 233.907 99.7116 234.06 99.3967C234.215 99.0818 234.429 98.8373 234.704 98.6631C234.98 98.489 235.301 98.4019 235.667 98.4019C236.033 98.4019 236.353 98.489 236.627 98.6631C236.904 98.8373 237.118 99.0818 237.271 99.3967C237.426 99.7116 237.504 100.08 237.504 100.502C237.504 100.921 237.426 101.287 237.271 101.6C237.118 101.913 236.904 102.157 236.627 102.331C236.353 102.505 236.033 102.592 235.667 102.592ZM235.667 102.033C235.945 102.033 236.174 101.962 236.353 101.819C236.532 101.677 236.665 101.489 236.751 101.257C236.838 101.025 236.881 100.773 236.881 100.502C236.881 100.231 236.838 99.979 236.751 99.745C236.665 99.5111 236.532 99.3219 236.353 99.1777C236.174 99.0334 235.945 98.9613 235.667 98.9613C235.389 98.9613 235.16 99.0334 234.981 99.1777C234.801 99.3219 234.669 99.5111 234.582 99.745C234.496 99.979 234.453 100.231 234.453 100.502C234.453 100.773 234.496 101.025 234.582 101.257C234.669 101.489 234.801 101.677 234.981 101.819C235.16 101.962 235.389 102.033 235.667 102.033ZM240.084 98.4547V98.9824H237.984V98.4547H240.084ZM238.596 97.4836H239.219V101.347C239.219 101.523 239.244 101.655 239.295 101.743C239.348 101.829 239.415 101.887 239.496 101.917C239.578 101.945 239.665 101.959 239.757 101.959C239.826 101.959 239.882 101.955 239.926 101.948C239.97 101.94 240.005 101.933 240.031 101.927L240.158 102.487C240.116 102.503 240.057 102.518 239.981 102.534C239.906 102.552 239.81 102.561 239.694 102.561C239.518 102.561 239.345 102.523 239.176 102.447C239.009 102.371 238.87 102.256 238.76 102.101C238.65 101.947 238.596 101.751 238.596 101.516V97.4836ZM242.544 102.592C242.154 102.592 241.817 102.506 241.533 102.334C241.252 102.159 241.035 101.917 240.882 101.605C240.73 101.292 240.655 100.928 240.655 100.513C240.655 100.098 240.73 99.7318 240.882 99.4152C241.035 99.0968 241.248 98.8487 241.52 98.671C241.795 98.4916 242.115 98.4019 242.481 98.4019C242.692 98.4019 242.9 98.4371 243.106 98.5074C243.312 98.5778 243.499 98.6922 243.668 98.8505C243.837 99.007 243.972 99.2146 244.072 99.4732C244.172 99.7318 244.222 100.05 244.222 100.428V100.692H241.098V100.154H243.589C243.589 99.9253 243.543 99.7213 243.452 99.5418C243.362 99.3624 243.234 99.2208 243.067 99.117C242.901 99.0132 242.706 98.9613 242.481 98.9613C242.233 98.9613 242.018 99.0229 241.837 99.146C241.657 99.2674 241.519 99.4257 241.423 99.621C241.326 99.8163 241.277 100.026 241.277 100.249V100.608C241.277 100.914 241.33 101.173 241.436 101.386C241.543 101.597 241.692 101.758 241.882 101.869C242.072 101.978 242.292 102.033 242.544 102.033C242.708 102.033 242.855 102.01 242.987 101.964C243.121 101.917 243.236 101.846 243.333 101.753C243.43 101.658 243.505 101.54 243.557 101.4L244.159 101.568C244.096 101.772 243.989 101.952 243.84 102.107C243.69 102.26 243.505 102.379 243.286 102.466C243.066 102.55 242.818 102.592 242.544 102.592ZM245.66 97.1036V102.508H245.037V97.1036H245.66ZM249.539 99.3624L248.979 99.5207C248.944 99.4275 248.892 99.3369 248.823 99.2489C248.757 99.1592 248.665 99.0853 248.549 99.0273C248.433 98.9692 248.284 98.9402 248.103 98.9402C247.855 98.9402 247.648 98.9974 247.483 99.1117C247.319 99.2243 247.238 99.3677 247.238 99.5418C247.238 99.6966 247.294 99.8189 247.406 99.9086C247.519 99.9983 247.695 100.073 247.934 100.133L248.536 100.281C248.898 100.369 249.168 100.503 249.346 100.684C249.524 100.864 249.612 101.095 249.612 101.378C249.612 101.611 249.546 101.818 249.412 102.001C249.28 102.184 249.095 102.328 248.858 102.434C248.62 102.539 248.344 102.592 248.029 102.592C247.616 102.592 247.274 102.503 247.003 102.323C246.732 102.144 246.56 101.882 246.488 101.537L247.079 101.389C247.136 101.607 247.242 101.771 247.399 101.88C247.557 101.989 247.764 102.043 248.019 102.043C248.309 102.043 248.539 101.982 248.71 101.859C248.882 101.734 248.969 101.584 248.969 101.41C248.969 101.269 248.919 101.151 248.821 101.056C248.722 100.96 248.571 100.888 248.367 100.84L247.691 100.682C247.32 100.594 247.048 100.457 246.873 100.273C246.701 100.086 246.615 99.8532 246.615 99.5735C246.615 99.3448 246.679 99.1425 246.807 98.9666C246.938 98.7907 247.114 98.6526 247.338 98.5523C247.563 98.452 247.818 98.4019 248.103 98.4019C248.504 98.4019 248.819 98.4898 249.048 98.6658C249.278 98.8417 249.442 99.0739 249.539 99.3624Z" fill="#4D5562"/>
</g>
<g opacity="0.4">
<path d="M260.646 100.005C260.646 95.2085 264.535 91.3203 269.331 91.3203H314.377C319.174 91.3203 323.062 95.2085 323.062 100.005V100.005C323.062 104.801 319.174 108.69 314.377 108.69H269.331C264.535 108.69 260.646 104.801 260.646 100.005V100.005Z" fill="#4D5562" fill-opacity="0.05"/>
<path d="M275.574 102.489H274.413V101.826H275.242C275.318 101.826 275.392 101.809 275.46 101.776C275.528 101.742 275.588 101.694 275.634 101.635C275.681 101.575 275.713 101.506 275.729 101.432C275.744 101.358 275.743 101.281 275.725 101.208L274.398 95.9001C274.371 95.7925 274.309 95.697 274.221 95.6287C274.134 95.5605 274.026 95.5234 273.915 95.5234C273.804 95.5234 273.696 95.5605 273.609 95.6287C273.522 95.697 273.459 95.7925 273.432 95.9001L272.106 101.208C272.087 101.281 272.086 101.358 272.101 101.432C272.117 101.506 272.15 101.575 272.196 101.635C272.243 101.694 272.302 101.742 272.37 101.776C272.438 101.809 272.513 101.826 272.588 101.826H273.418V102.489H270.764V101.992C270.896 101.992 271.022 101.939 271.116 101.846C271.209 101.753 271.261 101.626 271.261 101.494C271.261 101.362 271.209 101.236 271.116 101.142C271.022 101.049 270.896 100.997 270.764 100.997V100.499C270.896 100.499 271.022 100.447 271.116 100.353C271.209 100.26 271.261 100.133 271.261 100.002C271.261 99.8695 271.209 99.743 271.116 99.6496C271.022 99.5563 270.896 99.5039 270.764 99.5039H267.28C267.149 99.5039 267.022 99.5563 266.929 99.6496C266.835 99.743 266.783 99.8695 266.783 100.002C266.783 100.133 266.835 100.26 266.929 100.353C267.022 100.447 267.149 100.499 267.28 100.499V100.997C267.149 100.997 267.022 101.049 266.929 101.142C266.835 101.236 266.783 101.362 266.783 101.494C266.783 101.626 266.835 101.753 266.929 101.846C267.022 101.939 267.149 101.992 267.28 101.992V102.489H266.949C266.817 102.489 266.69 102.542 266.597 102.635C266.504 102.729 266.451 102.855 266.451 102.987C266.451 103.119 266.504 103.246 266.597 103.339C266.69 103.432 266.817 103.485 266.949 103.485H275.574C275.706 103.485 275.832 103.432 275.926 103.339C276.019 103.246 276.071 103.119 276.071 102.987C276.071 102.855 276.019 102.729 275.926 102.635C275.832 102.542 275.706 102.489 275.574 102.489ZM273.915 98.0725L274.605 100.831H273.226L273.915 98.0725ZM268.276 100.499H269.768V100.997H268.276V100.499ZM268.276 101.992H269.768V102.489H268.276V101.992ZM270.764 98.8404C271.026 98.8404 271.283 98.7626 271.501 98.6168C271.719 98.471 271.889 98.2638 271.99 98.0213C272.09 97.7788 272.116 97.512 272.065 97.2547C272.014 96.9973 271.888 96.7608 271.702 96.5752C271.516 96.3897 271.28 96.2633 271.023 96.2121C270.765 96.1609 270.498 96.1872 270.256 96.2876C270.013 96.388 269.806 96.5581 269.66 96.7763C269.515 96.9945 269.437 97.2511 269.437 97.5135C269.437 97.8654 269.577 98.203 269.825 98.4518C270.074 98.7006 270.412 98.8404 270.764 98.8404ZM270.764 97.1818C270.829 97.1818 270.893 97.2012 270.948 97.2377C271.003 97.2741 271.045 97.326 271.07 97.3866C271.095 97.4472 271.102 97.5139 271.089 97.5782C271.076 97.6426 271.045 97.7017 270.998 97.7481C270.952 97.7945 270.893 97.8261 270.828 97.8389C270.764 97.8517 270.697 97.8451 270.637 97.82C270.576 97.7949 270.524 97.7524 270.488 97.6978C270.451 97.6433 270.432 97.5791 270.432 97.5135C270.432 97.4255 270.467 97.3412 270.529 97.279C270.591 97.2167 270.676 97.1818 270.764 97.1818Z" fill="#4D5562"/>
<path d="M280.036 102.508H279.349L281.334 97.1036H282.009L283.994 102.508H283.308L281.693 97.9586H281.65L280.036 102.508ZM280.289 100.397H283.054V100.977H280.289V100.397ZM286.127 98.4547V98.9824H284.027V98.4547H286.127ZM284.639 97.4836H285.262V101.347C285.262 101.523 285.287 101.655 285.338 101.743C285.391 101.829 285.458 101.887 285.539 101.917C285.621 101.945 285.708 101.959 285.8 101.959C285.868 101.959 285.925 101.955 285.969 101.948C286.013 101.94 286.048 101.933 286.074 101.927L286.201 102.487C286.159 102.503 286.1 102.518 286.024 102.534C285.948 102.552 285.853 102.561 285.736 102.561C285.561 102.561 285.388 102.523 285.219 102.447C285.052 102.371 284.913 102.256 284.802 102.101C284.693 101.947 284.639 101.751 284.639 101.516V97.4836ZM288.694 98.4547V98.9824H286.593V98.4547H288.694ZM287.206 97.4836H287.828V101.347C287.828 101.523 287.854 101.655 287.905 101.743C287.958 101.829 288.024 101.887 288.105 101.917C288.188 101.945 288.275 101.959 288.367 101.959C288.435 101.959 288.491 101.955 288.535 101.948C288.579 101.94 288.615 101.933 288.641 101.927L288.768 102.487C288.725 102.503 288.667 102.518 288.591 102.534C288.515 102.552 288.419 102.561 288.303 102.561C288.127 102.561 287.955 102.523 287.786 102.447C287.619 102.371 287.48 102.256 287.369 102.101C287.26 101.947 287.206 101.751 287.206 101.516V97.4836ZM289.498 102.508V98.4547H290.1V99.0669H290.142C290.216 98.8663 290.349 98.7036 290.543 98.5787C290.736 98.4538 290.954 98.3913 291.197 98.3913C291.243 98.3913 291.3 98.3922 291.369 98.394C291.437 98.3957 291.489 98.3984 291.524 98.4019V99.0352C291.503 99.0299 291.455 99.022 291.379 99.0114C291.305 98.9991 291.227 98.993 291.144 98.993C290.947 98.993 290.772 99.0343 290.617 99.117C290.464 99.1979 290.342 99.3105 290.253 99.4548C290.165 99.5973 290.121 99.76 290.121 99.9429V102.508H289.498ZM293.323 102.603C293.066 102.603 292.833 102.554 292.623 102.458C292.414 102.359 292.248 102.218 292.125 102.033C292.002 101.846 291.94 101.621 291.94 101.357C291.94 101.125 291.986 100.937 292.077 100.793C292.169 100.647 292.291 100.532 292.444 100.45C292.597 100.367 292.766 100.305 292.951 100.265C293.137 100.223 293.324 100.189 293.513 100.165C293.759 100.133 293.959 100.109 294.112 100.093C294.266 100.076 294.379 100.047 294.449 100.006C294.522 99.9658 294.558 99.8954 294.558 99.7952V99.774C294.558 99.5137 294.486 99.3114 294.344 99.1671C294.203 99.0229 293.989 98.9508 293.703 98.9508C293.405 98.9508 293.172 99.0158 293.003 99.146C292.834 99.2762 292.716 99.4152 292.647 99.5629L292.056 99.3518C292.162 99.1056 292.302 98.9138 292.478 98.7766C292.656 98.6376 292.849 98.5409 293.059 98.4863C293.27 98.43 293.477 98.4019 293.682 98.4019C293.812 98.4019 293.961 98.4177 294.13 98.4494C294.301 98.4793 294.465 98.5417 294.624 98.6367C294.784 98.7317 294.916 98.8751 295.022 99.0669C295.128 99.2586 295.18 99.5155 295.18 99.8374V102.508H294.558V101.959H294.526C294.484 102.047 294.413 102.141 294.315 102.241C294.216 102.342 294.085 102.427 293.922 102.497C293.758 102.568 293.558 102.603 293.323 102.603ZM293.418 102.043C293.664 102.043 293.872 101.995 294.04 101.898C294.211 101.802 294.339 101.677 294.426 101.524C294.514 101.371 294.558 101.21 294.558 101.041V100.471C294.531 100.502 294.473 100.531 294.383 100.558C294.295 100.582 294.193 100.604 294.077 100.624C293.963 100.641 293.851 100.657 293.742 100.671C293.635 100.684 293.548 100.694 293.481 100.703C293.319 100.724 293.168 100.758 293.027 100.806C292.888 100.852 292.776 100.921 292.689 101.014C292.605 101.106 292.563 101.231 292.563 101.389C292.563 101.605 292.643 101.769 292.803 101.88C292.965 101.989 293.17 102.043 293.418 102.043ZM297.831 102.592C297.451 102.592 297.124 102.503 296.849 102.323C296.575 102.144 296.364 101.896 296.216 101.582C296.068 101.267 295.994 100.907 295.994 100.502C295.994 100.091 296.07 99.7274 296.221 99.4125C296.374 99.0959 296.587 98.8487 296.86 98.671C297.134 98.4916 297.454 98.4019 297.82 98.4019C298.105 98.4019 298.362 98.4547 298.591 98.5602C298.82 98.6658 299.007 98.8135 299.153 99.0035C299.299 99.1935 299.39 99.4152 299.425 99.6685H298.802C298.754 99.4838 298.649 99.3202 298.485 99.1777C298.323 99.0334 298.105 98.9613 297.831 98.9613C297.588 98.9613 297.375 99.0246 297.192 99.1513C297.011 99.2762 296.87 99.453 296.767 99.6817C296.667 99.9086 296.617 100.175 296.617 100.481C296.617 100.794 296.666 101.067 296.765 101.299C296.865 101.531 297.006 101.712 297.187 101.84C297.37 101.969 297.585 102.033 297.831 102.033C297.993 102.033 298.14 102.005 298.272 101.948C298.404 101.892 298.515 101.811 298.607 101.706C298.698 101.6 298.763 101.473 298.802 101.326H299.425C299.39 101.565 299.302 101.78 299.163 101.972C299.026 102.162 298.844 102.313 298.617 102.426C298.392 102.537 298.13 102.592 297.831 102.592ZM301.965 98.4547V98.9824H299.865V98.4547H301.965ZM300.477 97.4836H301.1V101.347C301.1 101.523 301.125 101.655 301.176 101.743C301.229 101.829 301.296 101.887 301.377 101.917C301.459 101.945 301.546 101.959 301.638 101.959C301.707 101.959 301.763 101.955 301.807 101.948C301.851 101.94 301.886 101.933 301.912 101.927L302.039 102.487C301.997 102.503 301.938 102.518 301.862 102.534C301.787 102.552 301.691 102.561 301.575 102.561C301.399 102.561 301.226 102.523 301.057 102.447C300.89 102.371 300.751 102.256 300.64 102.101C300.531 101.947 300.477 101.751 300.477 101.516V97.4836ZM302.769 102.508V98.4547H303.392V102.508H302.769ZM303.086 97.7791C302.964 97.7791 302.86 97.7378 302.772 97.6551C302.686 97.5724 302.643 97.473 302.643 97.3569C302.643 97.2408 302.686 97.1414 302.772 97.0588C302.86 96.9761 302.964 96.9347 303.086 96.9347C303.207 96.9347 303.311 96.9761 303.397 97.0588C303.485 97.1414 303.529 97.2408 303.529 97.3569C303.529 97.473 303.485 97.5724 303.397 97.6551C303.311 97.7378 303.207 97.7791 303.086 97.7791ZM306.046 102.592C305.681 102.592 305.359 102.505 305.083 102.331C304.809 102.157 304.594 101.913 304.439 101.6C304.286 101.287 304.21 100.921 304.21 100.502C304.21 100.08 304.286 99.7116 304.439 99.3967C304.594 99.0818 304.809 98.8373 305.083 98.6631C305.359 98.489 305.681 98.4019 306.046 98.4019C306.412 98.4019 306.733 98.489 307.007 98.6631C307.283 98.8373 307.498 99.0818 307.651 99.3967C307.806 99.7116 307.883 100.08 307.883 100.502C307.883 100.921 307.806 101.287 307.651 101.6C307.498 101.913 307.283 102.157 307.007 102.331C306.733 102.505 306.412 102.592 306.046 102.592ZM306.046 102.033C306.324 102.033 306.553 101.962 306.733 101.819C306.912 101.677 307.045 101.489 307.131 101.257C307.217 101.025 307.26 100.773 307.26 100.502C307.26 100.231 307.217 99.979 307.131 99.745C307.045 99.5111 306.912 99.3219 306.733 99.1777C306.553 99.0334 306.324 98.9613 306.046 98.9613C305.768 98.9613 305.54 99.0334 305.36 99.1777C305.181 99.3219 305.048 99.5111 304.962 99.745C304.876 99.979 304.833 100.231 304.833 100.502C304.833 100.773 304.876 101.025 304.962 101.257C305.048 101.489 305.181 101.677 305.36 101.819C305.54 101.962 305.768 102.033 306.046 102.033ZM309.324 100.07V102.508H308.701V98.4547H309.303V99.088H309.355C309.45 98.8821 309.595 98.7168 309.788 98.5919C309.982 98.4652 310.231 98.4019 310.538 98.4019C310.812 98.4019 311.052 98.4582 311.258 98.5708C311.464 98.6816 311.624 98.8505 311.738 99.0774C311.852 99.3026 311.91 99.5876 311.91 99.9324V102.508H311.287V99.9746C311.287 99.6562 311.204 99.4081 311.039 99.2305C310.874 99.051 310.647 98.9613 310.358 98.9613C310.159 98.9613 309.982 99.0044 309.825 99.0906C309.67 99.1768 309.548 99.3026 309.458 99.468C309.369 99.6333 309.324 99.8339 309.324 100.07ZM315.786 99.3624L315.227 99.5207C315.191 99.4275 315.139 99.3369 315.071 99.2489C315.004 99.1592 314.912 99.0853 314.796 99.0273C314.68 98.9692 314.532 98.9402 314.35 98.9402C314.102 98.9402 313.896 98.9974 313.73 99.1117C313.567 99.2243 313.485 99.3677 313.485 99.5418C313.485 99.6966 313.541 99.8189 313.654 99.9086C313.766 99.9983 313.942 100.073 314.182 100.133L314.783 100.281C315.146 100.369 315.416 100.503 315.593 100.684C315.771 100.864 315.86 101.095 315.86 101.378C315.86 101.611 315.793 101.818 315.659 102.001C315.527 102.184 315.343 102.328 315.105 102.434C314.868 102.539 314.591 102.592 314.277 102.592C313.863 102.592 313.521 102.503 313.25 102.323C312.979 102.144 312.808 101.882 312.736 101.537L313.327 101.389C313.383 101.607 313.489 101.771 313.646 101.88C313.804 101.989 314.011 102.043 314.266 102.043C314.556 102.043 314.787 101.982 314.957 101.859C315.13 101.734 315.216 101.584 315.216 101.41C315.216 101.269 315.167 101.151 315.068 101.056C314.97 100.96 314.818 100.888 314.614 100.84L313.939 100.682C313.568 100.594 313.295 100.457 313.121 100.273C312.948 100.086 312.862 99.8532 312.862 99.5735C312.862 99.3448 312.926 99.1425 313.055 98.9666C313.185 98.7907 313.362 98.6526 313.585 98.5523C313.81 98.452 314.065 98.4019 314.35 98.4019C314.752 98.4019 315.066 98.4898 315.295 98.6658C315.526 98.8417 315.689 99.0739 315.786 99.3624Z" fill="#4D5562"/>
</g>
<path d="M327.307 100.005C327.307 95.2085 331.195 91.3203 335.991 91.3203H347.36C352.157 91.3203 356.045 95.2085 356.045 100.005V100.005C356.045 104.801 352.157 108.69 347.36 108.69H335.991C331.195 108.69 327.307 104.801 327.307 100.005V100.005Z" fill="#4D5562" fill-opacity="0.05"/>
</g>
<path d="M63.3692 59.3982H326.631C330.002 59.3982 332.735 62.131 332.735 65.502V134.502C332.735 137.873 330.002 140.606 326.631 140.606H63.3692C59.9982 140.606 57.2654 137.873 57.2654 134.502V65.502C57.2654 62.131 59.9982 59.3982 63.3692 59.3982Z" stroke="#D2D5DA" stroke-width="0.530769"/>
</g>
<rect x="0.5" y="0.5" width="389" height="199" rx="7.5" stroke="#4CA154" stroke-opacity="0.1"/>
<defs>
<filter id="filter0_d_913_37952" x="54.8769" y="58.0713" width="280.246" height="85.9883" filterUnits="userSpaceOnUse" color-interpolation-filters="sRGB">
<feFlood flood-opacity="0" result="BackgroundImageFix"/>
<feColorMatrix in="SourceAlpha" type="matrix" values="0 0 0 0 0 0 0 0 0 0 0 0 0 0 0 0 0 0 127 0" result="hardAlpha"/>
<feOffset dy="1.06154"/>
<feGaussianBlur stdDeviation="1.06154"/>
<feComposite in2="hardAlpha" operator="out"/>
<feColorMatrix type="matrix" values="0 0 0 0 0 0 0 0 0 0 0 0 0 0 0 0 0 0 0.15 0"/>
<feBlend mode="normal" in2="BackgroundImageFix" result="effect1_dropShadow_913_37952"/>
<feBlend mode="normal" in="SourceGraphic" in2="effect1_dropShadow_913_37952" result="shape"/>
</filter>
<clipPath id="clip0_913_37952">
<path d="M57 65.502C57 61.9844 59.8516 59.1328 63.3692 59.1328H326.631C330.148 59.1328 333 61.9844 333 65.502V134.502C333 138.02 330.148 140.871 326.631 140.871H63.3692C59.8516 140.871 57 138.02 57 134.502V65.502Z" fill="white"/>
</clipPath>
</defs>
</svg>
