<svg width="390" height="200" viewBox="0 0 390 200" fill="none" xmlns="http://www.w3.org/2000/svg">
<rect width="390" height="200" rx="8" fill="#CA3A31" fill-opacity="0.1"/>
<path d="M41.5994 179.511L30.6681 160.528C30.395 160.062 30.005 159.677 29.5369 159.409C29.0688 159.141 28.5388 159 27.9994 159C27.46 159 26.93 159.141 26.4619 159.409C25.9938 159.677 25.6038 160.062 25.3306 160.528L14.3994 179.511C14.1366 179.961 13.998 180.473 13.998 180.994C13.998 181.515 14.1366 182.026 14.3994 182.476C14.6691 182.944 15.0584 183.332 15.5273 183.6C15.9963 183.868 16.5281 184.006 17.0681 184H38.9306C39.4702 184.005 40.0015 183.867 40.47 183.599C40.9385 183.331 41.3274 182.944 41.5969 182.476C41.8601 182.027 41.999 181.515 41.9995 180.994C41.9999 180.473 41.8618 179.961 41.5994 179.511ZM26.9994 169C26.9994 168.735 27.1047 168.481 27.2923 168.293C27.4798 168.105 27.7342 168 27.9994 168C28.2646 168 28.519 168.105 28.7065 168.293C28.894 168.481 28.9994 168.735 28.9994 169V174C28.9994 174.265 28.894 174.52 28.7065 174.707C28.519 174.895 28.2646 175 27.9994 175C27.7342 175 27.4798 174.895 27.2923 174.707C27.1047 174.52 26.9994 174.265 26.9994 174V169ZM27.9994 180C27.7027 180 27.4127 179.912 27.166 179.747C26.9194 179.582 26.7271 179.348 26.6136 179.074C26.5 178.8 26.4703 178.498 26.5282 178.207C26.5861 177.916 26.7289 177.649 26.9387 177.439C27.1485 177.23 27.4158 177.087 27.7068 177.029C27.9977 176.971 28.2993 177.001 28.5734 177.114C28.8475 177.228 29.0818 177.42 29.2466 177.667C29.4114 177.913 29.4994 178.203 29.4994 178.5C29.4994 178.898 29.3414 179.279 29.06 179.561C28.7787 179.842 28.3972 180 27.9994 180Z" fill="#CA3A31"/>
<path d="M123 100C123 91.1634 130.163 84 139 84H251C259.837 84 267 91.1634 267 100V100C267 108.837 259.837 116 251 116H139C130.163 116 123 108.837 123 100V100Z" fill="#217CF5"/>
<path d="M151.164 96.2891L141.164 106.289C141.077 106.377 140.973 106.446 140.859 106.493C140.745 106.541 140.623 106.565 140.5 106.565C140.376 106.565 140.254 106.541 140.14 106.493C140.026 106.446 139.923 106.377 139.836 106.289L135.461 101.914C135.373 101.827 135.304 101.723 135.257 101.609C135.21 101.496 135.186 101.373 135.186 101.25C135.186 101.127 135.21 101.005 135.257 100.891C135.304 100.777 135.373 100.673 135.461 100.586C135.548 100.499 135.651 100.43 135.765 100.382C135.879 100.335 136.001 100.311 136.125 100.311C136.248 100.311 136.37 100.335 136.484 100.382C136.598 100.43 136.702 100.499 136.789 100.586L140.5 104.298L149.837 94.9626C150.013 94.7864 150.252 94.6875 150.501 94.6875C150.75 94.6875 150.989 94.7864 151.165 94.9626C151.341 95.1387 151.44 95.3776 151.44 95.6266C151.44 95.8757 151.341 96.1146 151.165 96.2907L151.164 96.2891Z" fill="#FCFCFD"/>
<path d="M167.548 97.6172C167.502 97.183 167.306 96.8449 166.962 96.603C166.62 96.361 166.176 96.2401 165.629 96.2401C165.245 96.2401 164.915 96.2981 164.64 96.4141C164.365 96.5301 164.154 96.6875 164.009 96.8864C163.863 97.0852 163.788 97.3123 163.785 97.5675C163.785 97.7796 163.833 97.9635 163.929 98.1193C164.028 98.2751 164.163 98.4077 164.332 98.517C164.501 98.6231 164.688 98.7126 164.894 98.7855C165.099 98.8584 165.306 98.9197 165.515 98.9695L166.47 99.2081C166.854 99.2976 167.224 99.4186 167.578 99.571C167.936 99.7235 168.256 99.9157 168.538 100.148C168.823 100.38 169.048 100.66 169.214 100.988C169.38 101.316 169.462 101.701 169.462 102.141C169.462 102.738 169.31 103.263 169.005 103.717C168.7 104.168 168.259 104.521 167.683 104.776C167.109 105.028 166.415 105.154 165.6 105.154C164.807 105.154 164.12 105.031 163.536 104.786C162.956 104.541 162.502 104.183 162.174 103.712C161.849 103.242 161.674 102.668 161.647 101.992H163.462C163.488 102.347 163.598 102.642 163.79 102.877C163.982 103.112 164.232 103.288 164.541 103.404C164.852 103.52 165.2 103.578 165.585 103.578C165.986 103.578 166.337 103.518 166.639 103.399C166.944 103.277 167.182 103.107 167.354 102.892C167.527 102.673 167.615 102.418 167.618 102.126C167.615 101.861 167.537 101.643 167.384 101.47C167.232 101.295 167.018 101.149 166.743 101.033C166.471 100.913 166.153 100.807 165.788 100.714L164.63 100.416C163.792 100.201 163.129 99.8743 162.641 99.4368C162.158 98.996 161.916 98.411 161.916 97.6818C161.916 97.0819 162.078 96.5566 162.403 96.1058C162.731 95.6551 163.177 95.3054 163.74 95.0568C164.304 94.8049 164.942 94.679 165.654 94.679C166.377 94.679 167.01 94.8049 167.553 95.0568C168.1 95.3054 168.529 95.6518 168.841 96.0959C169.153 96.5367 169.313 97.0438 169.323 97.6172H167.548ZM172.975 105.154C172.491 105.154 172.055 105.068 171.667 104.896C171.283 104.72 170.978 104.461 170.752 104.12C170.53 103.779 170.419 103.358 170.419 102.857C170.419 102.426 170.499 102.07 170.658 101.788C170.817 101.507 171.034 101.281 171.309 101.112C171.584 100.943 171.894 100.816 172.239 100.729C172.587 100.64 172.947 100.575 173.318 100.536C173.765 100.489 174.128 100.448 174.407 100.411C174.685 100.371 174.887 100.312 175.013 100.232C175.142 100.149 175.207 100.022 175.207 99.8494V99.8196C175.207 99.4451 175.096 99.1551 174.874 98.9496C174.652 98.7441 174.332 98.6413 173.914 98.6413C173.474 98.6413 173.124 98.7375 172.865 98.9297C172.61 99.1219 172.438 99.349 172.348 99.6108L170.668 99.3722C170.8 98.9081 171.019 98.5204 171.324 98.2088C171.629 97.8939 172.002 97.6586 172.443 97.5028C172.884 97.3438 173.371 97.2642 173.904 97.2642C174.272 97.2642 174.639 97.3073 175.003 97.3935C175.368 97.4796 175.701 97.6222 176.002 97.821C176.304 98.0166 176.546 98.2834 176.728 98.6214C176.914 98.9595 177.007 99.3821 177.007 99.8892V105H175.277V103.951H175.217C175.108 104.163 174.953 104.362 174.755 104.548C174.559 104.73 174.312 104.877 174.014 104.99C173.719 105.099 173.372 105.154 172.975 105.154ZM173.442 103.832C173.803 103.832 174.117 103.76 174.382 103.618C174.647 103.472 174.851 103.28 174.993 103.041C175.139 102.803 175.212 102.542 175.212 102.261V101.361C175.156 101.407 175.059 101.45 174.924 101.49C174.791 101.53 174.642 101.565 174.476 101.594C174.31 101.624 174.146 101.651 173.984 101.674C173.822 101.697 173.681 101.717 173.561 101.734C173.293 101.77 173.053 101.83 172.84 101.913C172.628 101.996 172.461 102.112 172.338 102.261C172.216 102.406 172.154 102.595 172.154 102.827C172.154 103.159 172.275 103.409 172.517 103.578C172.759 103.747 173.068 103.832 173.442 103.832ZM185.114 97.3636L182.394 105H180.406L177.686 97.3636H179.605L181.36 103.036H181.44L183.2 97.3636H185.114ZM189.23 105.149C188.465 105.149 187.803 104.99 187.247 104.672C186.693 104.35 186.267 103.896 185.969 103.31C185.671 102.72 185.521 102.025 185.521 101.227C185.521 100.441 185.671 99.7517 185.969 99.1584C186.27 98.5618 186.691 98.0978 187.232 97.7663C187.772 97.4316 188.407 97.2642 189.136 97.2642C189.606 97.2642 190.051 97.3404 190.468 97.4929C190.889 97.642 191.26 97.8741 191.582 98.1889C191.907 98.5038 192.162 98.9048 192.347 99.392C192.533 99.8759 192.626 100.453 192.626 101.122V101.674H186.367V100.461H190.901C190.897 100.116 190.823 99.8097 190.677 99.5412C190.531 99.2694 190.327 99.0556 190.065 98.8999C189.807 98.7441 189.505 98.6662 189.161 98.6662C188.793 98.6662 188.47 98.7557 188.191 98.9347C187.913 99.1103 187.696 99.3423 187.54 99.6307C187.387 99.9157 187.31 100.229 187.306 100.57V101.629C187.306 102.073 187.387 102.455 187.55 102.773C187.712 103.088 187.939 103.33 188.231 103.499C188.523 103.664 188.864 103.747 189.255 103.747C189.517 103.747 189.754 103.711 189.966 103.638C190.178 103.562 190.362 103.451 190.518 103.305C190.674 103.159 190.791 102.978 190.871 102.763L192.551 102.952C192.445 103.396 192.243 103.784 191.945 104.115C191.65 104.443 191.272 104.698 190.811 104.881C190.35 105.06 189.823 105.149 189.23 105.149ZM205.916 98.2536H204.056C204.003 97.9486 203.906 97.6785 203.763 97.4432C203.621 97.2045 203.443 97.0024 203.231 96.8366C203.019 96.6709 202.777 96.5466 202.505 96.4638C202.237 96.3776 201.947 96.3345 201.635 96.3345C201.082 96.3345 200.591 96.4737 200.164 96.7521C199.736 97.0272 199.401 97.4316 199.159 97.9652C198.917 98.4955 198.796 99.1435 198.796 99.9091C198.796 100.688 198.917 101.344 199.159 101.878C199.405 102.408 199.739 102.809 200.164 103.081C200.591 103.349 201.08 103.484 201.63 103.484C201.935 103.484 202.22 103.444 202.485 103.364C202.754 103.281 202.994 103.161 203.206 103.001C203.422 102.842 203.602 102.647 203.748 102.415C203.897 102.183 204 101.918 204.056 101.619L205.916 101.629C205.846 102.113 205.695 102.567 205.463 102.991C205.235 103.416 204.935 103.79 204.563 104.115C204.192 104.437 203.758 104.688 203.261 104.871C202.764 105.05 202.212 105.139 201.605 105.139C200.71 105.139 199.912 104.932 199.209 104.518C198.506 104.103 197.953 103.505 197.549 102.723C197.144 101.941 196.942 101.003 196.942 99.9091C196.942 98.812 197.146 97.8741 197.554 97.0952C197.961 96.313 198.516 95.7147 199.219 95.3004C199.922 94.8861 200.717 94.679 201.605 94.679C202.172 94.679 202.699 94.7585 203.186 94.9176C203.674 95.0767 204.108 95.3104 204.489 95.6186C204.87 95.9235 205.183 96.2981 205.429 96.7422C205.677 97.183 205.84 97.6868 205.916 98.2536ZM209.075 100.526V105H207.275V94.8182H209.035V98.6612H209.125C209.304 98.2304 209.58 97.8906 209.955 97.642C210.333 97.3902 210.813 97.2642 211.397 97.2642C211.927 97.2642 212.389 97.3752 212.784 97.5973C213.178 97.8194 213.483 98.1442 213.699 98.5717C213.917 98.9993 214.027 99.5213 214.027 100.138V105H212.227V100.416C212.227 99.9025 212.094 99.5031 211.829 99.218C211.567 98.9297 211.2 98.7855 210.726 98.7855C210.407 98.7855 210.122 98.8551 209.87 98.9943C209.622 99.1302 209.426 99.3274 209.284 99.5859C209.145 99.8445 209.075 100.158 209.075 100.526ZM217.809 105.154C217.325 105.154 216.889 105.068 216.501 104.896C216.117 104.72 215.812 104.461 215.586 104.12C215.364 103.779 215.253 103.358 215.253 102.857C215.253 102.426 215.333 102.07 215.492 101.788C215.651 101.507 215.868 101.281 216.143 101.112C216.418 100.943 216.728 100.816 217.073 100.729C217.421 100.64 217.781 100.575 218.152 100.536C218.599 100.489 218.962 100.448 219.241 100.411C219.519 100.371 219.721 100.312 219.847 100.232C219.976 100.149 220.041 100.022 220.041 99.8494V99.8196C220.041 99.4451 219.93 99.1551 219.708 98.9496C219.486 98.7441 219.166 98.6413 218.748 98.6413C218.307 98.6413 217.958 98.7375 217.699 98.9297C217.444 99.1219 217.272 99.349 217.182 99.6108L215.502 99.3722C215.634 98.9081 215.853 98.5204 216.158 98.2088C216.463 97.8939 216.836 97.6586 217.277 97.5028C217.718 97.3438 218.205 97.2642 218.738 97.2642C219.106 97.2642 219.473 97.3073 219.837 97.3935C220.202 97.4796 220.535 97.6222 220.836 97.821C221.138 98.0166 221.38 98.2834 221.562 98.6214C221.748 98.9595 221.841 99.3821 221.841 99.8892V105H220.111V103.951H220.051C219.941 104.163 219.787 104.362 219.589 104.548C219.393 104.73 219.146 104.877 218.848 104.99C218.553 105.099 218.206 105.154 217.809 105.154ZM218.276 103.832C218.637 103.832 218.95 103.76 219.216 103.618C219.481 103.472 219.685 103.28 219.827 103.041C219.973 102.803 220.046 102.542 220.046 102.261V101.361C219.99 101.407 219.893 101.45 219.758 101.49C219.625 101.53 219.476 101.565 219.31 101.594C219.144 101.624 218.98 101.651 218.818 101.674C218.656 101.697 218.515 101.717 218.395 101.734C218.127 101.77 217.887 101.83 217.674 101.913C217.462 101.996 217.295 102.112 217.172 102.261C217.05 102.406 216.988 102.595 216.988 102.827C216.988 103.159 217.109 103.409 217.351 103.578C217.593 103.747 217.901 103.832 218.276 103.832ZM225.2 100.526V105H223.4V97.3636H225.12V98.6612H225.21C225.386 98.2337 225.666 97.8939 226.05 97.642C226.438 97.3902 226.917 97.2642 227.487 97.2642C228.014 97.2642 228.473 97.3769 228.864 97.6023C229.258 97.8277 229.563 98.1541 229.779 98.5817C229.998 99.0092 230.105 99.5279 230.102 100.138V105H228.302V100.416C228.302 99.9058 228.17 99.5064 227.905 99.218C227.643 98.9297 227.28 98.7855 226.816 98.7855C226.501 98.7855 226.221 98.8551 225.976 98.9943C225.734 99.1302 225.543 99.3274 225.404 99.5859C225.268 99.8445 225.2 100.158 225.2 100.526ZM235.003 108.023C234.356 108.023 233.801 107.935 233.337 107.759C232.873 107.587 232.5 107.355 232.218 107.063C231.937 106.772 231.741 106.448 231.632 106.094L233.253 105.701C233.325 105.85 233.432 105.998 233.571 106.143C233.71 106.293 233.897 106.415 234.133 106.511C234.371 106.611 234.671 106.661 235.032 106.661C235.543 106.661 235.965 106.536 236.3 106.288C236.635 106.042 236.802 105.638 236.802 105.075V103.628H236.713C236.62 103.813 236.484 104.004 236.305 104.2C236.129 104.395 235.896 104.559 235.604 104.692C235.316 104.824 234.953 104.891 234.515 104.891C233.929 104.891 233.397 104.753 232.919 104.478C232.446 104.2 232.068 103.785 231.786 103.235C231.508 102.682 231.368 101.989 231.368 101.157C231.368 100.318 231.508 99.6108 231.786 99.0341C232.068 98.4541 232.447 98.0149 232.924 97.7166C233.402 97.415 233.934 97.2642 234.52 97.2642C234.968 97.2642 235.336 97.3404 235.624 97.4929C235.916 97.642 236.148 97.8227 236.32 98.0348C236.492 98.2436 236.623 98.4408 236.713 98.6264H236.812V97.3636H238.587V105.124C238.587 105.777 238.431 106.317 238.12 106.745C237.808 107.173 237.382 107.492 236.842 107.705C236.302 107.917 235.689 108.023 235.003 108.023ZM235.017 103.479C235.399 103.479 235.723 103.386 235.992 103.2C236.26 103.015 236.464 102.748 236.603 102.4C236.743 102.052 236.812 101.634 236.812 101.147C236.812 100.666 236.743 100.246 236.603 99.8842C236.468 99.523 236.265 99.2429 235.997 99.044C235.732 98.8419 235.405 98.7408 235.017 98.7408C234.616 98.7408 234.282 98.8452 234.013 99.054C233.745 99.2628 233.543 99.5495 233.407 99.9141C233.271 100.275 233.203 100.686 233.203 101.147C233.203 101.614 233.271 102.024 233.407 102.375C233.546 102.723 233.75 102.995 234.018 103.19C234.29 103.383 234.623 103.479 235.017 103.479ZM243.562 105.149C242.797 105.149 242.135 104.99 241.579 104.672C241.025 104.35 240.599 103.896 240.301 103.31C240.003 102.72 239.853 102.025 239.853 101.227C239.853 100.441 240.003 99.7517 240.301 99.1584C240.602 98.5618 241.023 98.0978 241.564 97.7663C242.104 97.4316 242.739 97.2642 243.468 97.2642C243.938 97.2642 244.383 97.3404 244.8 97.4929C245.221 97.642 245.592 97.8741 245.914 98.1889C246.239 98.5038 246.494 98.9048 246.679 99.392C246.865 99.8759 246.958 100.453 246.958 101.122V101.674H240.699V100.461H245.233C245.229 100.116 245.155 99.8097 245.009 99.5412C244.863 99.2694 244.659 99.0556 244.397 98.8999C244.139 98.7441 243.837 98.6662 243.493 98.6662C243.125 98.6662 242.802 98.7557 242.523 98.9347C242.245 99.1103 242.028 99.3423 241.872 99.6307C241.719 99.9157 241.642 100.229 241.638 100.57V101.629C241.638 102.073 241.719 102.455 241.882 102.773C242.044 103.088 242.271 103.33 242.563 103.499C242.855 103.664 243.196 103.747 243.587 103.747C243.849 103.747 244.086 103.711 244.298 103.638C244.51 103.562 244.694 103.451 244.85 103.305C245.006 103.159 245.123 102.978 245.203 102.763L246.883 102.952C246.777 103.396 246.575 103.784 246.277 104.115C245.982 104.443 245.604 104.698 245.143 104.881C244.682 105.06 244.156 105.149 243.562 105.149ZM254.266 99.3821L252.625 99.5611C252.579 99.3954 252.498 99.2396 252.382 99.0938C252.269 98.9479 252.117 98.8303 251.924 98.7408C251.732 98.6513 251.497 98.6065 251.218 98.6065C250.844 98.6065 250.529 98.6877 250.274 98.8501C250.022 99.0125 249.898 99.223 249.901 99.4815C249.898 99.7036 249.979 99.8842 250.144 100.023C250.313 100.163 250.592 100.277 250.98 100.366L252.282 100.645C253.005 100.801 253.542 101.048 253.893 101.386C254.248 101.724 254.427 102.166 254.43 102.713C254.427 103.194 254.286 103.618 254.007 103.986C253.732 104.35 253.349 104.635 252.859 104.841C252.368 105.046 251.805 105.149 251.169 105.149C250.234 105.149 249.482 104.954 248.911 104.562C248.341 104.168 248.002 103.62 247.892 102.917L249.647 102.748C249.727 103.093 249.896 103.353 250.154 103.528C250.413 103.704 250.749 103.792 251.164 103.792C251.591 103.792 251.934 103.704 252.193 103.528C252.455 103.353 252.585 103.136 252.585 102.877C252.585 102.658 252.501 102.478 252.332 102.335C252.166 102.193 251.908 102.083 251.556 102.007L250.254 101.734C249.521 101.581 248.979 101.324 248.628 100.963C248.277 100.598 248.103 100.138 248.106 99.581C248.103 99.1103 248.23 98.7027 248.489 98.358C248.751 98.0099 249.114 97.7415 249.578 97.5526C250.045 97.3603 250.584 97.2642 251.193 97.2642C252.088 97.2642 252.793 97.4548 253.306 97.8359C253.823 98.2171 254.143 98.7325 254.266 99.3821Z" fill="#FCFCFD"/>
<rect x="0.5" y="0.5" width="389" height="199" rx="7.5" stroke="#CA3A31" stroke-opacity="0.1"/>
</svg>
