<svg width="390" height="200" viewBox="0 0 390 200" fill="none" xmlns="http://www.w3.org/2000/svg">
<g clip-path="url(#clip0_913_37964)">
<rect width="390" height="200" rx="8" fill="#CA3A31" fill-opacity="0.1"/>
<path d="M41.5994 179.511L30.6681 160.528C30.395 160.062 30.005 159.677 29.5369 159.409C29.0688 159.141 28.5388 159 27.9994 159C27.46 159 26.93 159.141 26.4619 159.409C25.9938 159.677 25.6038 160.062 25.3306 160.528L14.3994 179.511C14.1366 179.961 13.998 180.473 13.998 180.994C13.998 181.515 14.1366 182.026 14.3994 182.476C14.6691 182.944 15.0584 183.332 15.5273 183.6C15.9963 183.868 16.5281 184.006 17.0681 184H38.9306C39.4702 184.005 40.0015 183.867 40.47 183.599C40.9385 183.331 41.3274 182.944 41.5969 182.476C41.8601 182.027 41.999 181.515 41.9995 180.994C41.9999 180.473 41.8618 179.961 41.5994 179.511ZM26.9994 169C26.9994 168.735 27.1047 168.481 27.2923 168.293C27.4798 168.105 27.7342 168 27.9994 168C28.2646 168 28.519 168.105 28.7065 168.293C28.894 168.481 28.9994 168.735 28.9994 169V174C28.9994 174.265 28.894 174.52 28.7065 174.707C28.519 174.895 28.2646 175 27.9994 175C27.7342 175 27.4798 174.895 27.2923 174.707C27.1047 174.52 26.9994 174.265 26.9994 174V169ZM27.9994 180C27.7027 180 27.4127 179.912 27.166 179.747C26.9194 179.582 26.7271 179.348 26.6136 179.074C26.5 178.8 26.4703 178.498 26.5282 178.207C26.5861 177.916 26.7289 177.649 26.9387 177.439C27.1485 177.23 27.4158 177.087 27.7068 177.029C27.9977 176.971 28.2993 177.001 28.5734 177.114C28.8475 177.228 29.0818 177.42 29.2466 177.667C29.4114 177.913 29.4994 178.203 29.4994 178.5C29.4994 178.898 29.3414 179.279 29.06 179.561C28.7787 179.842 28.3972 180 27.9994 180Z" fill="#CA3A31"/>
<path d="M121 100C121 91.1634 128.163 84 137 84H253C261.837 84 269 91.1634 269 100V100C269 108.837 261.837 116 253 116H137C128.163 116 121 108.837 121 100V100Z" fill="#217CF5"/>
<path d="M136.312 96.8783V93.1283C136.312 92.8796 136.411 92.6412 136.587 92.4653C136.763 92.2895 137.001 92.1908 137.25 92.1908C137.499 92.1908 137.737 92.2895 137.913 92.4653C138.089 92.6412 138.188 92.8796 138.188 93.1283V96.8783C138.188 97.1269 138.089 97.3653 137.913 97.5412C137.737 97.717 137.499 97.8158 137.25 97.8158C137.001 97.8158 136.763 97.717 136.587 97.5412C136.411 97.3653 136.312 97.1269 136.312 96.8783ZM148.188 93.1283V107.503C148.188 107.752 148.089 107.99 147.913 108.166C147.737 108.342 147.499 108.441 147.25 108.441C147.001 108.441 146.763 108.342 146.587 108.166C146.411 107.99 146.312 107.752 146.312 107.503V104.066H142.875C142.626 104.066 142.388 103.967 142.212 103.791C142.036 103.615 141.938 103.377 141.938 103.128C141.967 101.606 142.159 100.092 142.51 98.6111C143.298 95.3486 144.809 93.154 146.88 92.2689C147.023 92.2078 147.178 92.183 147.333 92.1966C147.487 92.2103 147.636 92.262 147.765 92.3471C147.895 92.4323 148.001 92.5482 148.075 92.6845C148.148 92.8208 148.187 92.9733 148.188 93.1283ZM146.312 94.9189C145.266 96.0189 144.672 97.6595 144.341 99.0173C144.094 100.06 143.932 101.122 143.855 102.191H146.312V94.9189ZM141 93.0501C140.979 92.8015 140.861 92.5713 140.67 92.4101C140.48 92.2489 140.233 92.17 139.984 92.1908C139.736 92.2115 139.506 92.3301 139.344 92.5206C139.183 92.711 139.104 92.9577 139.125 93.2064L139.438 96.9142C139.437 97.4944 139.207 98.0507 138.797 98.461C138.387 98.8712 137.83 99.1017 137.25 99.1017C136.67 99.1017 136.113 98.8712 135.703 98.461C135.293 98.0507 135.063 97.4944 135.062 96.9142L135.375 93.2064C135.385 93.0833 135.371 92.9593 135.334 92.8417C135.296 92.724 135.235 92.6149 135.156 92.5206C135.076 92.4263 134.978 92.3486 134.868 92.292C134.759 92.2354 134.639 92.201 134.516 92.1908C134.393 92.1805 134.269 92.1946 134.151 92.2322C134.033 92.2699 133.924 92.3303 133.83 92.4101C133.736 92.4899 133.658 92.5875 133.601 92.6973C133.545 92.8071 133.51 92.927 133.5 93.0501L133.188 96.8001C133.188 96.8267 133.188 96.8525 133.188 96.8783C133.189 97.7922 133.498 98.6791 134.065 99.3961C134.632 100.113 135.424 100.618 136.312 100.831V107.503C136.312 107.752 136.411 107.99 136.587 108.166C136.763 108.342 137.001 108.441 137.25 108.441C137.499 108.441 137.737 108.342 137.913 108.166C138.089 107.99 138.188 107.752 138.188 107.503V100.831C139.076 100.618 139.868 100.113 140.435 99.3961C141.002 98.6791 141.311 97.7922 141.312 96.8783C141.312 96.8525 141.312 96.8267 141.312 96.8001L141 93.0501Z" fill="#FCFCFD"/>
<path d="M156.389 105V94.8182H160.207C160.989 94.8182 161.646 94.9541 162.176 95.2259C162.71 95.4976 163.112 95.8788 163.384 96.3693C163.659 96.8565 163.797 97.425 163.797 98.0746C163.797 98.7275 163.657 99.2943 163.379 99.7749C163.104 100.252 162.698 100.622 162.161 100.884C161.624 101.142 160.965 101.271 160.182 101.271H157.463V99.7401H159.934C160.391 99.7401 160.766 99.6771 161.057 99.5511C161.349 99.4219 161.564 99.2346 161.704 98.9893C161.846 98.7408 161.917 98.4358 161.917 98.0746C161.917 97.7133 161.846 97.4051 161.704 97.1499C161.561 96.8913 161.344 96.6958 161.052 96.5632C160.761 96.4273 160.385 96.3594 159.924 96.3594H158.233V105H156.389ZM161.649 100.386L164.17 105H162.111L159.635 100.386H161.649ZM168.436 105.149C167.671 105.149 167.009 104.99 166.453 104.672C165.899 104.35 165.473 103.896 165.175 103.31C164.877 102.72 164.727 102.025 164.727 101.227C164.727 100.441 164.877 99.7517 165.175 99.1584C165.477 98.5618 165.897 98.0978 166.438 97.7663C166.978 97.4316 167.613 97.2642 168.342 97.2642C168.812 97.2642 169.257 97.3404 169.674 97.4929C170.095 97.642 170.466 97.8741 170.788 98.1889C171.113 98.5038 171.368 98.9048 171.553 99.392C171.739 99.8759 171.832 100.453 171.832 101.122V101.674H165.573V100.461H170.107C170.103 100.116 170.029 99.8097 169.883 99.5412C169.737 99.2694 169.533 99.0556 169.271 98.8999C169.013 98.7441 168.711 98.6662 168.367 98.6662C167.999 98.6662 167.676 98.7557 167.397 98.9347C167.119 99.1103 166.902 99.3423 166.746 99.6307C166.593 99.9157 166.516 100.229 166.512 100.57V101.629C166.512 102.073 166.593 102.455 166.756 102.773C166.918 103.088 167.145 103.33 167.437 103.499C167.729 103.664 168.07 103.747 168.461 103.747C168.723 103.747 168.96 103.711 169.172 103.638C169.384 103.562 169.568 103.451 169.724 103.305C169.88 103.159 169.997 102.978 170.077 102.763L171.757 102.952C171.651 103.396 171.449 103.784 171.151 104.115C170.856 104.443 170.478 104.698 170.017 104.881C169.557 105.06 169.03 105.149 168.436 105.149ZM179.14 99.3821L177.499 99.5611C177.453 99.3954 177.372 99.2396 177.256 99.0938C177.143 98.9479 176.991 98.8303 176.798 98.7408C176.606 98.6513 176.371 98.6065 176.092 98.6065C175.718 98.6065 175.403 98.6877 175.148 98.8501C174.896 99.0125 174.772 99.223 174.775 99.4815C174.772 99.7036 174.853 99.8842 175.018 100.023C175.188 100.163 175.466 100.277 175.854 100.366L177.156 100.645C177.879 100.801 178.416 101.048 178.767 101.386C179.122 101.724 179.301 102.166 179.304 102.713C179.301 103.194 179.16 103.618 178.881 103.986C178.606 104.35 178.223 104.635 177.733 104.841C177.242 105.046 176.679 105.149 176.043 105.149C175.108 105.149 174.356 104.954 173.786 104.562C173.215 104.168 172.876 103.62 172.766 102.917L174.521 102.748C174.601 103.093 174.77 103.353 175.028 103.528C175.287 103.704 175.623 103.792 176.038 103.792C176.465 103.792 176.808 103.704 177.067 103.528C177.329 103.353 177.46 103.136 177.46 102.877C177.46 102.658 177.375 102.478 177.206 102.335C177.04 102.193 176.782 102.083 176.43 102.007L175.128 101.734C174.395 101.581 173.853 101.324 173.502 100.963C173.151 100.598 172.977 100.138 172.98 99.581C172.977 99.1103 173.104 98.7027 173.363 98.358C173.625 98.0099 173.988 97.7415 174.452 97.5526C174.919 97.3603 175.458 97.2642 176.067 97.2642C176.962 97.2642 177.667 97.4548 178.18 97.8359C178.697 98.2171 179.017 98.7325 179.14 99.3821ZM184.351 97.3636V98.7557H179.961V97.3636H184.351ZM181.045 95.5341H182.845V102.703C182.845 102.945 182.881 103.131 182.954 103.26C183.03 103.386 183.13 103.472 183.252 103.518C183.375 103.565 183.511 103.588 183.66 103.588C183.773 103.588 183.876 103.58 183.968 103.563C184.065 103.547 184.137 103.532 184.187 103.518L184.49 104.925C184.394 104.959 184.257 104.995 184.078 105.035C183.902 105.075 183.687 105.098 183.431 105.104C182.981 105.118 182.575 105.05 182.213 104.901C181.852 104.748 181.565 104.513 181.353 104.195C181.145 103.876 181.042 103.479 181.045 103.001V95.5341ZM187.804 105.154C187.32 105.154 186.884 105.068 186.496 104.896C186.112 104.72 185.807 104.461 185.581 104.12C185.359 103.779 185.248 103.358 185.248 102.857C185.248 102.426 185.328 102.07 185.487 101.788C185.646 101.507 185.863 101.281 186.138 101.112C186.413 100.943 186.723 100.816 187.068 100.729C187.416 100.64 187.776 100.575 188.147 100.536C188.594 100.489 188.957 100.448 189.236 100.411C189.514 100.371 189.716 100.312 189.842 100.232C189.971 100.149 190.036 100.022 190.036 99.8494V99.8196C190.036 99.4451 189.925 99.1551 189.703 98.9496C189.481 98.7441 189.161 98.6413 188.743 98.6413C188.303 98.6413 187.953 98.7375 187.694 98.9297C187.439 99.1219 187.267 99.349 187.177 99.6108L185.497 99.3722C185.63 98.9081 185.848 98.5204 186.153 98.2088C186.458 97.8939 186.831 97.6586 187.272 97.5028C187.713 97.3438 188.2 97.2642 188.733 97.2642C189.101 97.2642 189.468 97.3073 189.832 97.3935C190.197 97.4796 190.53 97.6222 190.831 97.821C191.133 98.0166 191.375 98.2834 191.557 98.6214C191.743 98.9595 191.836 99.3821 191.836 99.8892V105H190.106V103.951H190.046C189.937 104.163 189.782 104.362 189.584 104.548C189.388 104.73 189.141 104.877 188.843 104.99C188.548 105.099 188.202 105.154 187.804 105.154ZM188.271 103.832C188.632 103.832 188.946 103.76 189.211 103.618C189.476 103.472 189.68 103.28 189.822 103.041C189.968 102.803 190.041 102.542 190.041 102.261V101.361C189.985 101.407 189.889 101.45 189.753 101.49C189.62 101.53 189.471 101.565 189.305 101.594C189.14 101.624 188.975 101.651 188.813 101.674C188.651 101.697 188.51 101.717 188.39 101.734C188.122 101.77 187.882 101.83 187.67 101.913C187.457 101.996 187.29 102.112 187.167 102.261C187.045 102.406 186.983 102.595 186.983 102.827C186.983 103.159 187.104 103.409 187.346 103.578C187.588 103.747 187.897 103.832 188.271 103.832ZM198.263 101.788V97.3636H200.062V105H198.317V103.643H198.238C198.065 104.07 197.782 104.42 197.388 104.692C196.997 104.964 196.514 105.099 195.941 105.099C195.44 105.099 194.998 104.988 194.613 104.766C194.232 104.541 193.934 104.214 193.719 103.787C193.503 103.356 193.395 102.836 193.395 102.226V97.3636H195.195V101.947C195.195 102.431 195.328 102.816 195.593 103.101C195.858 103.386 196.206 103.528 196.637 103.528C196.902 103.528 197.159 103.464 197.407 103.335C197.656 103.205 197.86 103.013 198.019 102.758C198.181 102.499 198.263 102.176 198.263 101.788ZM201.663 105V97.3636H203.408V98.6364H203.488C203.627 98.1955 203.865 97.8558 204.203 97.6172C204.545 97.3752 204.934 97.2543 205.372 97.2543C205.471 97.2543 205.582 97.2592 205.705 97.2692C205.831 97.2758 205.935 97.2874 206.018 97.304V98.9595C205.942 98.933 205.821 98.9098 205.655 98.8899C205.493 98.8667 205.335 98.8551 205.183 98.8551C204.855 98.8551 204.56 98.9264 204.298 99.0689C204.039 99.2081 203.836 99.402 203.686 99.6506C203.537 99.8991 203.463 100.186 203.463 100.511V105H201.663ZM209.025 105.154C208.541 105.154 208.105 105.068 207.717 104.896C207.333 104.72 207.028 104.461 206.802 104.12C206.58 103.779 206.469 103.358 206.469 102.857C206.469 102.426 206.549 102.07 206.708 101.788C206.867 101.507 207.084 101.281 207.359 101.112C207.634 100.943 207.944 100.816 208.289 100.729C208.637 100.64 208.996 100.575 209.368 100.536C209.815 100.489 210.178 100.448 210.456 100.411C210.735 100.371 210.937 100.312 211.063 100.232C211.192 100.149 211.257 100.022 211.257 99.8494V99.8196C211.257 99.4451 211.146 99.1551 210.924 98.9496C210.702 98.7441 210.382 98.6413 209.964 98.6413C209.523 98.6413 209.174 98.7375 208.915 98.9297C208.66 99.1219 208.488 99.349 208.398 99.6108L206.718 99.3722C206.85 98.9081 207.069 98.5204 207.374 98.2088C207.679 97.8939 208.052 97.6586 208.493 97.5028C208.933 97.3438 209.421 97.2642 209.954 97.2642C210.322 97.2642 210.688 97.3073 211.053 97.3935C211.417 97.4796 211.751 97.6222 212.052 97.821C212.354 98.0166 212.596 98.2834 212.778 98.6214C212.964 98.9595 213.056 99.3821 213.056 99.8892V105H211.326V103.951H211.267C211.157 104.163 211.003 104.362 210.804 104.548C210.609 104.73 210.362 104.877 210.064 104.99C209.769 105.099 209.422 105.154 209.025 105.154ZM209.492 103.832C209.853 103.832 210.166 103.76 210.431 103.618C210.697 103.472 210.9 103.28 211.043 103.041C211.189 102.803 211.262 102.542 211.262 102.261V101.361C211.205 101.407 211.109 101.45 210.973 101.49C210.841 101.53 210.692 101.565 210.526 101.594C210.36 101.624 210.196 101.651 210.034 101.674C209.871 101.697 209.73 101.717 209.611 101.734C209.343 101.77 209.102 101.83 208.89 101.913C208.678 101.996 208.511 102.112 208.388 102.261C208.266 102.406 208.204 102.595 208.204 102.827C208.204 103.159 208.325 103.409 208.567 103.578C208.809 103.747 209.117 103.832 209.492 103.832ZM216.416 100.526V105H214.616V97.3636H216.336V98.6612H216.426C216.601 98.2337 216.882 97.8939 217.266 97.642C217.654 97.3902 218.133 97.2642 218.703 97.2642C219.23 97.2642 219.689 97.3769 220.08 97.6023C220.474 97.8277 220.779 98.1541 220.995 98.5817C221.213 99.0092 221.321 99.5279 221.318 100.138V105H219.518V100.416C219.518 99.9058 219.386 99.5064 219.12 99.218C218.859 98.9297 218.496 98.7855 218.032 98.7855C217.717 98.7855 217.437 98.8551 217.191 98.9943C216.949 99.1302 216.759 99.3274 216.62 99.5859C216.484 99.8445 216.416 100.158 216.416 100.526ZM226.711 97.3636V98.7557H222.321V97.3636H226.711ZM223.404 95.5341H225.204V102.703C225.204 102.945 225.241 103.131 225.314 103.26C225.39 103.386 225.489 103.472 225.612 103.518C225.734 103.565 225.87 103.588 226.02 103.588C226.132 103.588 226.235 103.58 226.328 103.563C226.424 103.547 226.497 103.532 226.547 103.518L226.85 104.925C226.754 104.959 226.616 104.995 226.437 105.035C226.261 105.075 226.046 105.098 225.791 105.104C225.34 105.118 224.934 105.05 224.573 104.901C224.212 104.748 223.925 104.513 223.713 104.195C223.504 103.876 223.401 103.479 223.404 103.001V95.5341ZM233.892 99.3821L232.251 99.5611C232.205 99.3954 232.124 99.2396 232.008 99.0938C231.895 98.9479 231.742 98.8303 231.55 98.7408C231.358 98.6513 231.123 98.6065 230.844 98.6065C230.47 98.6065 230.155 98.6877 229.9 98.8501C229.648 99.0125 229.523 99.223 229.527 99.4815C229.523 99.7036 229.605 99.8842 229.77 100.023C229.939 100.163 230.218 100.277 230.606 100.366L231.908 100.645C232.631 100.801 233.168 101.048 233.519 101.386C233.874 101.724 234.053 102.166 234.056 102.713C234.053 103.194 233.912 103.618 233.633 103.986C233.358 104.35 232.975 104.635 232.485 104.841C231.994 105.046 231.431 105.149 230.795 105.149C229.86 105.149 229.108 104.954 228.537 104.562C227.967 104.168 227.628 103.62 227.518 102.917L229.273 102.748C229.353 103.093 229.522 103.353 229.78 103.528C230.039 103.704 230.375 103.792 230.79 103.792C231.217 103.792 231.56 103.704 231.819 103.528C232.081 103.353 232.211 103.136 232.211 102.877C232.211 102.658 232.127 102.478 231.958 102.335C231.792 102.193 231.534 102.083 231.182 102.007L229.88 101.734C229.147 101.581 228.605 101.324 228.254 100.963C227.903 100.598 227.729 100.138 227.732 99.581C227.729 99.1103 227.856 98.7027 228.115 98.358C228.377 98.0099 228.74 97.7415 229.204 97.5526C229.671 97.3603 230.21 97.2642 230.819 97.2642C231.714 97.2642 232.419 97.4548 232.932 97.8359C233.449 98.2171 233.769 98.7325 233.892 99.3821Z" fill="#FCFCFD"/>
<path d="M255.289 104.965C255.465 105.141 255.564 105.38 255.564 105.629C255.564 105.878 255.465 106.117 255.289 106.293C255.113 106.469 254.874 106.568 254.625 106.568C254.376 106.568 254.137 106.469 253.961 106.293L249 101.331L244.039 106.291C243.863 106.468 243.624 106.567 243.375 106.567C243.126 106.567 242.887 106.468 242.711 106.291C242.534 106.115 242.436 105.876 242.436 105.627C242.436 105.378 242.534 105.139 242.711 104.963L247.672 100.003L242.712 95.0415C242.536 94.8653 242.437 94.6265 242.437 94.3774C242.437 94.1283 242.536 93.8895 242.712 93.7133C242.888 93.5372 243.127 93.4383 243.376 93.4383C243.625 93.4383 243.864 93.5372 244.04 93.7133L249 98.6751L253.962 93.7126C254.138 93.5364 254.377 93.4375 254.626 93.4375C254.875 93.4375 255.114 93.5364 255.29 93.7126C255.466 93.8887 255.565 94.1276 255.565 94.3766C255.565 94.6257 255.466 94.8646 255.29 95.0407L250.329 100.003L255.289 104.965Z" fill="#FCFCFD"/>
</g>
<rect x="0.5" y="0.5" width="389" height="199" rx="7.5" stroke="#CA3A31" stroke-opacity="0.1"/>
<defs>
<clipPath id="clip0_913_37964">
<rect width="390" height="200" rx="8" fill="white"/>
</clipPath>
</defs>
</svg>
