<svg width="804" height="196" viewBox="0 0 804 196" fill="none" xmlns="http://www.w3.org/2000/svg">
<rect width="804" height="196" fill="#F9FAFB"/>
<g style="mix-blend-mode:multiply">
<rect x="243" y="82" width="41" height="16" rx="8" fill="#E9F2FE"/>
<path d="M250.354 94V86H251.322V93.1406H255.041V94H250.354ZM258.182 94.1406C257.801 94.1406 257.456 94.069 257.146 93.9258C256.837 93.7799 256.59 93.5703 256.408 93.2969C256.226 93.0208 256.135 92.6875 256.135 92.2969C256.135 91.9531 256.202 91.6745 256.338 91.4609C256.473 91.2448 256.654 91.0755 256.881 90.9531C257.107 90.8307 257.357 90.7396 257.631 90.6797C257.907 90.6172 258.184 90.5677 258.463 90.5313C258.827 90.4844 259.123 90.4492 259.35 90.4258C259.579 90.3997 259.745 90.3568 259.85 90.2969C259.956 90.237 260.01 90.1328 260.01 89.9844V89.9531C260.01 89.5677 259.904 89.2682 259.693 89.0547C259.485 88.8411 259.169 88.7344 258.744 88.7344C258.304 88.7344 257.959 88.8307 257.709 89.0234C257.459 89.2161 257.283 89.4219 257.182 89.6406L256.307 89.3281C256.463 88.9635 256.671 88.6797 256.932 88.4766C257.195 88.2708 257.481 88.1276 257.791 88.0469C258.104 87.9635 258.411 87.9219 258.713 87.9219C258.906 87.9219 259.127 87.9453 259.377 87.9922C259.63 88.0365 259.873 88.1289 260.107 88.2695C260.344 88.4102 260.541 88.6224 260.697 88.9062C260.854 89.1901 260.932 89.5703 260.932 90.0469V94H260.01V93.1875H259.963C259.9 93.3177 259.796 93.457 259.65 93.6055C259.505 93.7539 259.311 93.8802 259.068 93.9844C258.826 94.0885 258.531 94.1406 258.182 94.1406ZM258.322 93.3125C258.687 93.3125 258.994 93.2409 259.244 93.0977C259.497 92.9544 259.687 92.7695 259.814 92.543C259.945 92.3164 260.01 92.0781 260.01 91.8281V90.9844C259.971 91.0312 259.885 91.0742 259.752 91.1133C259.622 91.1497 259.471 91.1823 259.299 91.2109C259.13 91.237 258.964 91.2604 258.803 91.2812C258.644 91.2995 258.515 91.3151 258.416 91.3281C258.176 91.3594 257.952 91.4102 257.744 91.4805C257.538 91.5482 257.372 91.651 257.244 91.7891C257.119 91.9245 257.057 92.1094 257.057 92.3437C257.057 92.6641 257.175 92.9062 257.412 93.0703C257.652 93.2318 257.955 93.3125 258.322 93.3125ZM262.739 94V86H263.661V88.9531H263.739C263.807 88.849 263.901 88.7161 264.021 88.5547C264.143 88.3906 264.317 88.2448 264.544 88.1172C264.773 87.987 265.083 87.9219 265.474 87.9219C265.979 87.9219 266.424 88.0482 266.81 88.3008C267.195 88.5534 267.496 88.9115 267.712 89.375C267.928 89.8385 268.036 90.3854 268.036 91.0156C268.036 91.651 267.928 92.2018 267.712 92.668C267.496 93.1315 267.196 93.4909 266.813 93.7461C266.431 93.9987 265.989 94.125 265.489 94.125C265.104 94.125 264.795 94.0612 264.563 93.9336C264.332 93.8034 264.153 93.6562 264.028 93.4922C263.903 93.3255 263.807 93.1875 263.739 93.0781H263.63V94H262.739ZM263.646 91C263.646 91.4531 263.712 91.8529 263.845 92.1992C263.978 92.543 264.172 92.8125 264.427 93.0078C264.682 93.2005 264.994 93.2969 265.364 93.2969C265.75 93.2969 266.071 93.1953 266.329 92.9922C266.59 92.7865 266.785 92.5104 266.915 92.1641C267.048 91.8151 267.114 91.4271 267.114 91C267.114 90.5781 267.049 90.1979 266.919 89.8594C266.791 89.5182 266.597 89.2487 266.337 89.0508C266.079 88.8503 265.755 88.75 265.364 88.75C264.989 88.75 264.674 88.8451 264.419 89.0352C264.164 89.2227 263.971 89.4857 263.841 89.8242C263.711 90.1602 263.646 90.5521 263.646 91ZM271.962 94.125C271.384 94.125 270.885 93.9974 270.466 93.7422C270.049 93.4844 269.728 93.125 269.501 92.6641C269.277 92.2005 269.165 91.6615 269.165 91.0469C269.165 90.4323 269.277 89.8906 269.501 89.4219C269.728 88.9505 270.043 88.5833 270.446 88.3203C270.853 88.0547 271.326 87.9219 271.868 87.9219C272.181 87.9219 272.489 87.974 272.794 88.0781C273.099 88.1823 273.376 88.3516 273.626 88.5859C273.876 88.8177 274.075 89.125 274.224 89.5078C274.372 89.8906 274.446 90.362 274.446 90.9219V91.3125H269.821V90.5156H273.509C273.509 90.1771 273.441 89.875 273.306 89.6094C273.173 89.3437 272.983 89.1341 272.735 88.9805C272.491 88.8268 272.201 88.75 271.868 88.75C271.501 88.75 271.183 88.8411 270.915 89.0234C270.649 89.2031 270.445 89.4375 270.302 89.7266C270.159 90.0156 270.087 90.3255 270.087 90.6562V91.1875C270.087 91.6406 270.165 92.0247 270.321 92.3398C270.48 92.6523 270.7 92.8906 270.981 93.0547C271.263 93.2161 271.59 93.2969 271.962 93.2969C272.204 93.2969 272.423 93.263 272.618 93.1953C272.816 93.125 272.987 93.0208 273.13 92.8828C273.273 92.7422 273.384 92.5677 273.462 92.3594L274.353 92.6094C274.259 92.9115 274.101 93.1771 273.88 93.4062C273.659 93.6328 273.385 93.8099 273.06 93.9375C272.734 94.0625 272.368 94.125 271.962 94.125ZM276.771 86V94H275.849V86H276.771Z" fill="#217CF5"/>
</g>
<g style="mix-blend-mode:multiply">
<rect x="363" y="74" width="58" height="24" rx="12" fill="#E9F2FE"/>
<path d="M376.463 91V81.5455H377.608V89.9844H382.003V91H376.463ZM385.715 91.1662C385.265 91.1662 384.858 91.0816 384.491 90.9123C384.125 90.7399 383.834 90.4922 383.619 90.169C383.403 89.8428 383.296 89.4489 383.296 88.9872C383.296 88.581 383.376 88.2517 383.536 87.9993C383.696 87.7438 383.91 87.5438 384.177 87.3991C384.445 87.2545 384.741 87.1468 385.064 87.076C385.39 87.0021 385.718 86.9437 386.047 86.9006C386.478 86.8452 386.827 86.8036 387.095 86.7759C387.366 86.7451 387.563 86.6944 387.686 86.6236C387.812 86.5528 387.875 86.4297 387.875 86.2543V86.2173C387.875 85.7618 387.751 85.4079 387.501 85.1555C387.255 84.9032 386.881 84.777 386.379 84.777C385.859 84.777 385.452 84.8909 385.156 85.1186C384.861 85.3464 384.653 85.5895 384.533 85.848L383.499 85.4787C383.683 85.0478 383.93 84.7124 384.237 84.4723C384.548 84.2292 384.887 84.0599 385.253 83.9645C385.622 83.866 385.985 83.8168 386.343 83.8168C386.57 83.8168 386.832 83.8445 387.127 83.8999C387.426 83.9522 387.714 84.0614 387.991 84.2276C388.271 84.3938 388.503 84.6446 388.688 84.9801C388.872 85.3156 388.965 85.7649 388.965 86.3281V91H387.875V90.0398H387.82C387.746 90.1937 387.623 90.3583 387.45 90.5337C387.278 90.7092 387.049 90.8584 386.763 90.9815C386.476 91.1046 386.127 91.1662 385.715 91.1662ZM385.881 90.1875C386.312 90.1875 386.675 90.1029 386.97 89.9336C387.269 89.7643 387.494 89.5458 387.644 89.2781C387.798 89.0103 387.875 88.7287 387.875 88.4332V87.4361C387.829 87.4915 387.727 87.5423 387.57 87.5884C387.417 87.6315 387.238 87.67 387.035 87.7038C386.835 87.7346 386.64 87.7623 386.449 87.7869C386.261 87.8085 386.109 87.8269 385.992 87.8423C385.709 87.8793 385.444 87.9393 385.198 88.0224C384.954 88.1024 384.758 88.224 384.607 88.3871C384.459 88.5471 384.385 88.7656 384.385 89.0426C384.385 89.4212 384.525 89.7074 384.805 89.9013C385.088 90.0921 385.447 90.1875 385.881 90.1875ZM391.101 91V81.5455H392.19V85.0355H392.283C392.363 84.9124 392.474 84.7554 392.615 84.5646C392.76 84.3707 392.966 84.1984 393.234 84.0476C393.505 83.8937 393.871 83.8168 394.332 83.8168C394.93 83.8168 395.456 83.966 395.911 84.2646C396.367 84.5631 396.722 84.9863 396.978 85.5341C397.233 86.0819 397.361 86.7282 397.361 87.473C397.361 88.224 397.233 88.8749 396.978 89.4258C396.722 89.9736 396.368 90.3983 395.916 90.6999C395.464 90.9985 394.942 91.1477 394.351 91.1477C393.895 91.1477 393.531 91.0723 393.257 90.9215C392.983 90.7676 392.772 90.5937 392.624 90.3999C392.477 90.2029 392.363 90.0398 392.283 89.9105H392.153V91H391.101ZM392.172 87.4545C392.172 87.9901 392.25 88.4625 392.407 88.8718C392.564 89.2781 392.794 89.5966 393.095 89.8274C393.397 90.0552 393.766 90.169 394.203 90.169C394.659 90.169 395.039 90.049 395.343 89.8089C395.651 89.5658 395.882 89.2396 396.036 88.8303C396.193 88.4179 396.271 87.9593 396.271 87.4545C396.271 86.956 396.194 86.5066 396.041 86.1065C395.89 85.7034 395.66 85.3848 395.353 85.1509C395.048 84.9139 394.665 84.7955 394.203 84.7955C393.76 84.7955 393.388 84.9078 393.086 85.1325C392.784 85.354 392.557 85.6649 392.403 86.065C392.249 86.462 392.172 86.9252 392.172 87.4545ZM402 91.1477C401.317 91.1477 400.728 90.9969 400.232 90.6953C399.74 90.3906 399.36 89.9659 399.092 89.4212C398.827 88.8733 398.695 88.2363 398.695 87.5099C398.695 86.7836 398.827 86.1435 399.092 85.5895C399.36 85.0324 399.732 84.5985 400.209 84.2876C400.689 83.9737 401.249 83.8168 401.89 83.8168C402.259 83.8168 402.624 83.8783 402.984 84.0014C403.344 84.1245 403.672 84.3246 403.967 84.6016C404.263 84.8755 404.498 85.2386 404.673 85.6911C404.849 86.1435 404.937 86.7005 404.937 87.3622V87.8239H399.471V86.8821H403.829C403.829 86.482 403.749 86.125 403.589 85.8111C403.432 85.4972 403.207 85.2494 402.915 85.0678C402.625 84.8862 402.284 84.7955 401.89 84.7955C401.456 84.7955 401.08 84.9032 400.763 85.1186C400.449 85.331 400.208 85.608 400.038 85.9496C399.869 86.2912 399.785 86.6574 399.785 87.0483V87.6761C399.785 88.2116 399.877 88.6656 400.062 89.038C400.249 89.4073 400.509 89.6889 400.842 89.8828C401.174 90.0736 401.56 90.169 402 90.169C402.287 90.169 402.545 90.129 402.776 90.049C403.01 89.9659 403.211 89.8428 403.381 89.6797C403.55 89.5135 403.681 89.3073 403.773 89.0611L404.826 89.3565C404.715 89.7135 404.529 90.0275 404.267 90.2983C404.006 90.5661 403.682 90.7753 403.298 90.9261C402.913 91.0739 402.481 91.1477 402 91.1477ZM407.683 81.5455V91H406.594V81.5455H407.683Z" fill="#217CF5"/>
</g>
<g style="mix-blend-mode:multiply">
<rect x="500" y="70" width="60" height="28" rx="14" fill="#E9F2FE"/>
<path d="M513.268 89V78.8182H514.501V87.9062H519.234V89H513.268ZM523.231 89.179C522.747 89.179 522.308 89.0878 521.914 88.9055C521.519 88.7199 521.206 88.4531 520.974 88.1051C520.742 87.7538 520.626 87.3295 520.626 86.8324C520.626 86.3949 520.712 86.0402 520.885 85.7685C521.057 85.4934 521.287 85.2779 521.576 85.1222C521.864 84.9664 522.182 84.8504 522.53 84.7741C522.882 84.6946 523.234 84.6316 523.589 84.5852C524.053 84.5256 524.429 84.4808 524.718 84.451C525.009 84.4179 525.221 84.3632 525.354 84.2869C525.49 84.2107 525.558 84.0781 525.558 83.8892V83.8494C525.558 83.3589 525.424 82.9777 525.155 82.706C524.89 82.4342 524.487 82.2983 523.947 82.2983C523.387 82.2983 522.948 82.4209 522.63 82.6662C522.311 82.9115 522.088 83.1733 521.958 83.4517L520.845 83.054C521.044 82.59 521.309 82.2287 521.64 81.9702C521.975 81.7083 522.34 81.526 522.734 81.4233C523.132 81.3172 523.523 81.2642 523.907 81.2642C524.153 81.2642 524.434 81.294 524.752 81.3537C525.074 81.41 525.384 81.5277 525.682 81.7067C525.984 81.8857 526.234 82.1558 526.433 82.517C526.632 82.8783 526.731 83.3622 526.731 83.9688V89H525.558V87.9659H525.498C525.419 88.1316 525.286 88.3089 525.1 88.4979C524.915 88.6868 524.668 88.8475 524.36 88.9801C524.051 89.1127 523.675 89.179 523.231 89.179ZM523.41 88.125C523.874 88.125 524.265 88.0339 524.583 87.8516C524.905 87.6693 525.147 87.4339 525.309 87.1456C525.475 86.8572 525.558 86.554 525.558 86.2358V85.1619C525.508 85.2216 525.399 85.2763 525.23 85.326C525.064 85.3724 524.872 85.4138 524.653 85.4503C524.438 85.4834 524.227 85.5133 524.022 85.5398C523.819 85.563 523.655 85.5829 523.529 85.5994C523.225 85.6392 522.94 85.7038 522.674 85.7933C522.413 85.8795 522.2 86.0104 522.038 86.1861C521.879 86.3584 521.799 86.5937 521.799 86.892C521.799 87.2997 521.95 87.608 522.252 87.8168C522.557 88.0223 522.943 88.125 523.41 88.125ZM529.032 89V78.8182H530.205V82.5767H530.305C530.391 82.4441 530.51 82.2751 530.662 82.0696C530.818 81.8608 531.04 81.6752 531.329 81.5128C531.62 81.3471 532.015 81.2642 532.512 81.2642C533.155 81.2642 533.722 81.425 534.212 81.7464C534.703 82.0679 535.086 82.5237 535.361 83.1136C535.636 83.7036 535.773 84.3996 535.773 85.2017C535.773 86.0104 535.636 86.7114 535.361 87.3047C535.086 87.8946 534.704 88.352 534.217 88.6768C533.73 88.9983 533.168 89.1591 532.532 89.1591C532.041 89.1591 531.648 89.0779 531.354 88.9155C531.059 88.7498 530.831 88.5625 530.672 88.3537C530.513 88.1416 530.391 87.9659 530.305 87.8267H530.165V89H529.032ZM530.185 85.1818C530.185 85.7585 530.27 86.2673 530.439 86.7081C530.608 87.1456 530.855 87.4886 531.18 87.7372C531.504 87.9825 531.902 88.1051 532.373 88.1051C532.863 88.1051 533.273 87.9759 533.601 87.7173C533.932 87.4555 534.181 87.1042 534.346 86.6634C534.515 86.2192 534.6 85.7254 534.6 85.1818C534.6 84.6449 534.517 84.161 534.351 83.7301C534.189 83.2959 533.942 82.9529 533.611 82.701C533.282 82.4458 532.87 82.3182 532.373 82.3182C531.895 82.3182 531.494 82.4392 531.17 82.6811C530.845 82.9197 530.599 83.2545 530.434 83.6854C530.268 84.1129 530.185 84.6117 530.185 85.1818ZM540.77 89.1591C540.034 89.1591 539.399 88.9967 538.866 88.6719C538.335 88.3438 537.926 87.8864 537.638 87.2997C537.353 86.7098 537.21 86.0237 537.21 85.2415C537.21 84.4593 537.353 83.7699 537.638 83.1733C537.926 82.5734 538.327 82.1061 538.841 81.7713C539.358 81.4332 539.961 81.2642 540.65 81.2642C541.048 81.2642 541.441 81.3305 541.829 81.4631C542.216 81.5956 542.569 81.8111 542.888 82.1094C543.206 82.4044 543.459 82.7955 543.648 83.2827C543.837 83.7699 543.932 84.3698 543.932 85.0824V85.5795H538.045V84.5653H542.738C542.738 84.1345 542.652 83.75 542.48 83.4119C542.311 83.0739 542.069 82.8071 541.754 82.6115C541.443 82.416 541.075 82.3182 540.65 82.3182C540.183 82.3182 539.779 82.4342 539.437 82.6662C539.099 82.8949 538.839 83.1932 538.657 83.5611C538.474 83.929 538.383 84.3234 538.383 84.7443V85.4205C538.383 85.9972 538.483 86.486 538.682 86.8871C538.884 87.2848 539.164 87.5881 539.522 87.7969C539.88 88.0024 540.296 88.1051 540.77 88.1051C541.078 88.1051 541.356 88.062 541.605 87.9759C541.857 87.8864 542.074 87.7538 542.256 87.5781C542.439 87.3991 542.579 87.1771 542.679 86.9119L543.812 87.2301C543.693 87.6146 543.492 87.9527 543.211 88.2443C542.929 88.5327 542.581 88.758 542.167 88.9205C541.752 89.0795 541.287 89.1591 540.77 89.1591ZM546.89 78.8182V89H545.716V78.8182H546.89Z" fill="#217CF5"/>
</g>
<path d="M259.83 111.455C259.778 111.023 259.571 110.688 259.207 110.449C258.844 110.21 258.398 110.091 257.869 110.091C257.483 110.091 257.145 110.153 256.855 110.278C256.568 110.403 256.344 110.575 256.182 110.794C256.023 111.013 255.943 111.261 255.943 111.54C255.943 111.773 255.999 111.973 256.109 112.141C256.223 112.305 256.368 112.443 256.544 112.554C256.72 112.662 256.905 112.751 257.098 112.822C257.291 112.891 257.469 112.946 257.631 112.989L258.517 113.227C258.744 113.287 258.997 113.369 259.276 113.474C259.557 113.58 259.825 113.723 260.081 113.905C260.339 114.084 260.553 114.314 260.72 114.595C260.888 114.876 260.972 115.222 260.972 115.631C260.972 116.102 260.848 116.528 260.601 116.909C260.357 117.29 259.999 117.592 259.527 117.817C259.058 118.041 258.489 118.153 257.818 118.153C257.193 118.153 256.652 118.053 256.195 117.851C255.74 117.649 255.382 117.368 255.121 117.007C254.862 116.646 254.716 116.227 254.682 115.75H255.773C255.801 116.08 255.912 116.352 256.105 116.568C256.301 116.781 256.548 116.94 256.847 117.045C257.148 117.148 257.472 117.199 257.818 117.199C258.222 117.199 258.584 117.134 258.905 117.003C259.226 116.869 259.48 116.685 259.668 116.449C259.855 116.21 259.949 115.932 259.949 115.614C259.949 115.324 259.868 115.088 259.706 114.906C259.544 114.724 259.331 114.577 259.067 114.463C258.803 114.349 258.517 114.25 258.21 114.165L257.136 113.858C256.455 113.662 255.915 113.382 255.517 113.018C255.119 112.655 254.92 112.179 254.92 111.591C254.92 111.102 255.053 110.676 255.317 110.312C255.584 109.946 255.942 109.662 256.391 109.46C256.842 109.256 257.347 109.153 257.903 109.153C258.466 109.153 258.966 109.254 259.403 109.456C259.841 109.655 260.188 109.928 260.443 110.274C260.702 110.621 260.838 111.014 260.852 111.455H259.83ZM262.573 118V111.455H263.544V112.477H263.63C263.766 112.128 263.986 111.857 264.29 111.663C264.594 111.467 264.959 111.369 265.385 111.369C265.817 111.369 266.176 111.467 266.463 111.663C266.753 111.857 266.979 112.128 267.141 112.477H267.209C267.377 112.139 267.628 111.871 267.963 111.672C268.299 111.47 268.701 111.369 269.169 111.369C269.755 111.369 270.233 111.553 270.605 111.919C270.978 112.283 271.164 112.849 271.164 113.619V118H270.158V113.619C270.158 113.136 270.026 112.791 269.762 112.584C269.498 112.376 269.186 112.273 268.828 112.273C268.368 112.273 268.012 112.412 267.759 112.69C267.506 112.966 267.38 113.315 267.38 113.739V118H266.357V113.517C266.357 113.145 266.236 112.845 265.995 112.618C265.753 112.388 265.442 112.273 265.061 112.273C264.8 112.273 264.556 112.342 264.328 112.482C264.104 112.621 263.922 112.814 263.783 113.061C263.647 113.305 263.578 113.588 263.578 113.909V118H262.573Z" fill="black"/>
<path d="M383.057 109.273H384.318L387.284 116.517H387.386L390.352 109.273H391.614V118H390.625V111.369H390.54L387.812 118H386.858L384.131 111.369H384.045V118H383.057V109.273ZM396.068 118.136C395.522 118.136 395.041 117.999 394.623 117.723C394.206 117.445 393.879 117.053 393.643 116.547C393.407 116.038 393.289 115.438 393.289 114.744C393.289 114.057 393.407 113.46 393.643 112.955C393.879 112.449 394.207 112.058 394.627 111.783C395.048 111.507 395.534 111.369 396.085 111.369C396.511 111.369 396.848 111.44 397.095 111.582C397.345 111.722 397.535 111.881 397.666 112.06C397.799 112.236 397.903 112.381 397.977 112.494H398.062V109.273H399.068V118H398.096V116.994H397.977C397.903 117.114 397.798 117.264 397.662 117.446C397.525 117.625 397.331 117.786 397.078 117.928C396.825 118.067 396.488 118.136 396.068 118.136ZM396.204 117.233C396.608 117.233 396.949 117.128 397.227 116.918C397.505 116.705 397.717 116.411 397.862 116.036C398.007 115.658 398.079 115.222 398.079 114.727C398.079 114.239 398.008 113.811 397.866 113.445C397.724 113.075 397.514 112.788 397.235 112.584C396.957 112.376 396.613 112.273 396.204 112.273C395.778 112.273 395.423 112.382 395.139 112.601C394.858 112.817 394.646 113.111 394.504 113.483C394.365 113.852 394.295 114.267 394.295 114.727C394.295 115.193 394.366 115.616 394.508 115.997C394.653 116.375 394.866 116.676 395.147 116.901C395.431 117.122 395.784 117.233 396.204 117.233Z" fill="black"/>
<path d="M521.057 118V109.273H522.114V117.062H526.17V118H521.057ZM530.312 120.591C529.827 120.591 529.409 120.528 529.06 120.403C528.71 120.281 528.419 120.119 528.186 119.918C527.956 119.719 527.773 119.506 527.636 119.278L528.438 118.716C528.528 118.835 528.643 118.972 528.783 119.125C528.922 119.281 529.112 119.416 529.354 119.53C529.598 119.646 529.918 119.705 530.312 119.705C530.841 119.705 531.277 119.577 531.621 119.321C531.964 119.065 532.136 118.665 532.136 118.119V116.79H532.051C531.977 116.909 531.872 117.057 531.736 117.233C531.602 117.406 531.409 117.561 531.156 117.697C530.906 117.831 530.568 117.898 530.142 117.898C529.614 117.898 529.139 117.773 528.719 117.523C528.301 117.273 527.97 116.909 527.726 116.432C527.484 115.955 527.364 115.375 527.364 114.693C527.364 114.023 527.482 113.439 527.717 112.942C527.953 112.442 528.281 112.055 528.702 111.783C529.122 111.507 529.608 111.369 530.159 111.369C530.585 111.369 530.923 111.44 531.173 111.582C531.426 111.722 531.619 111.881 531.753 112.06C531.889 112.236 531.994 112.381 532.068 112.494H532.17V111.455H533.142V118.188C533.142 118.75 533.014 119.207 532.759 119.56C532.506 119.915 532.165 120.175 531.736 120.339C531.31 120.507 530.835 120.591 530.312 120.591ZM530.278 116.994C530.682 116.994 531.023 116.902 531.301 116.717C531.58 116.533 531.791 116.267 531.936 115.92C532.081 115.574 532.153 115.159 532.153 114.676C532.153 114.205 532.082 113.788 531.94 113.428C531.798 113.067 531.588 112.784 531.31 112.58C531.031 112.375 530.688 112.273 530.278 112.273C529.852 112.273 529.497 112.381 529.213 112.597C528.932 112.812 528.72 113.102 528.578 113.466C528.439 113.83 528.369 114.233 528.369 114.676C528.369 115.131 528.44 115.533 528.582 115.882C528.727 116.229 528.94 116.501 529.222 116.7C529.506 116.896 529.858 116.994 530.278 116.994Z" fill="black"/>
</svg>
