<svg width="804" height="506" viewBox="0 0 804 506" fill="none" xmlns="http://www.w3.org/2000/svg">
<rect width="804" height="506" fill="#F9FAFB"/>
<path d="M71.7841 75H68.9588V66.2727H71.8736C72.7287 66.2727 73.4631 66.4474 74.0767 66.7969C74.6903 67.1435 75.1605 67.642 75.4872 68.2926C75.8168 68.9403 75.9815 69.7173 75.9815 70.6236C75.9815 71.5327 75.8153 72.3139 75.483 72.9673C75.1534 73.6207 74.6761 74.1236 74.0511 74.4759C73.4261 74.8253 72.6705 75 71.7841 75ZM70.2756 73.8494H71.7116C72.3764 73.8494 72.929 73.7244 73.3693 73.4744C73.8097 73.2216 74.1392 72.8565 74.358 72.3793C74.5767 71.8991 74.6861 71.3139 74.6861 70.6236C74.6861 69.9389 74.5767 69.358 74.358 68.8807C74.142 68.4034 73.8196 68.0412 73.3906 67.794C72.9616 67.5469 72.429 67.4233 71.7926 67.4233H70.2756V73.8494ZM79.4215 75.1449C79.0067 75.1449 78.6317 75.0682 78.2965 74.9148C77.9613 74.7585 77.6957 74.5327 77.4996 74.2372C77.3065 73.9418 77.2099 73.5795 77.2099 73.1506C77.2099 72.7812 77.2809 72.4773 77.4229 72.2386C77.565 72 77.7567 71.8111 77.9982 71.6719C78.2397 71.5327 78.5096 71.4276 78.8079 71.3565C79.1062 71.2855 79.4102 71.2315 79.7198 71.1946C80.1119 71.1491 80.43 71.1122 80.6744 71.0838C80.9187 71.0526 81.0962 71.0028 81.207 70.9347C81.3178 70.8665 81.3732 70.7557 81.3732 70.6023V70.5724C81.3732 70.2003 81.2681 69.9119 81.0579 69.7074C80.8505 69.5028 80.5408 69.4006 80.1289 69.4006C79.6999 69.4006 79.3619 69.4957 79.1147 69.6861C78.8704 69.8736 78.7013 70.0824 78.6076 70.3125L77.4102 70.0398C77.5522 69.642 77.7596 69.321 78.0323 69.0767C78.3079 68.8295 78.6246 68.6506 78.9826 68.5398C79.3406 68.4261 79.717 68.3693 80.1119 68.3693C80.3732 68.3693 80.6502 68.4006 80.9428 68.4631C81.2383 68.5227 81.5138 68.6335 81.7695 68.7955C82.0281 68.9574 82.2397 69.1889 82.4045 69.4901C82.5692 69.7884 82.6516 70.1761 82.6516 70.6534V75H81.4073V74.1051H81.3562C81.2738 74.2699 81.1502 74.4318 80.9854 74.5909C80.8207 74.75 80.609 74.8821 80.3505 74.9872C80.092 75.0923 79.7823 75.1449 79.4215 75.1449ZM79.6985 74.1222C80.0508 74.1222 80.3519 74.0526 80.6019 73.9134C80.8548 73.7741 81.0465 73.5923 81.1772 73.3679C81.3107 73.1406 81.3775 72.8977 81.3775 72.6392V71.7955C81.332 71.8409 81.244 71.8835 81.1133 71.9233C80.9854 71.9602 80.8391 71.9929 80.6744 72.0213C80.5096 72.0469 80.3491 72.071 80.1928 72.0938C80.0366 72.1136 79.9059 72.1307 79.8008 72.1449C79.5536 72.1761 79.3278 72.2287 79.1232 72.3026C78.9215 72.3764 78.7596 72.483 78.6374 72.6222C78.5181 72.7585 78.4585 72.9403 78.4585 73.1676C78.4585 73.483 78.5749 73.7216 78.8079 73.8835C79.0408 74.0426 79.3377 74.1222 79.6985 74.1222ZM87.4041 68.4545V69.4773H83.8288V68.4545H87.4041ZM84.7876 66.8864H86.0618V73.0781C86.0618 73.3253 86.0987 73.5114 86.1726 73.6364C86.2464 73.7585 86.3416 73.8423 86.4581 73.8878C86.5774 73.9304 86.7067 73.9517 86.8459 73.9517C86.9482 73.9517 87.0376 73.9446 87.1143 73.9304C87.1911 73.9162 87.2507 73.9048 87.2933 73.8963L87.5234 74.9489C87.4496 74.9773 87.3445 75.0057 87.2081 75.0341C87.0717 75.0653 86.9013 75.0824 86.6967 75.0852C86.3615 75.0909 86.049 75.0312 85.7592 74.9062C85.4695 74.7812 85.2351 74.5881 85.0561 74.3267C84.8771 74.0653 84.7876 73.7372 84.7876 73.3423V66.8864ZM91.5643 75.1321C90.9194 75.1321 90.364 74.9943 89.8981 74.7188C89.435 74.4403 89.0771 74.0497 88.8242 73.5469C88.5742 73.0412 88.4492 72.4489 88.4492 71.7699C88.4492 71.0994 88.5742 70.5085 88.8242 69.9972C89.0771 69.4858 89.4293 69.0866 89.881 68.7997C90.3356 68.5128 90.8668 68.3693 91.4748 68.3693C91.8441 68.3693 92.2021 68.4304 92.5487 68.5526C92.8952 68.6747 93.2063 68.8665 93.4819 69.1278C93.7575 69.3892 93.9748 69.7287 94.1339 70.1463C94.293 70.5611 94.3725 71.0653 94.3725 71.6591V72.1108H89.1694V71.1562H93.1239C93.1239 70.821 93.0558 70.5241 92.9194 70.2656C92.783 70.0043 92.5913 69.7983 92.3441 69.6477C92.0998 69.4972 91.8129 69.4219 91.4833 69.4219C91.1254 69.4219 90.8129 69.5099 90.5458 69.6861C90.2816 69.8594 90.0771 70.0866 89.9322 70.3679C89.7901 70.6463 89.7191 70.9489 89.7191 71.2756V72.0213C89.7191 72.4588 89.7958 72.831 89.9492 73.1378C90.1055 73.4446 90.3228 73.679 90.6012 73.8409C90.8796 74 91.2049 74.0795 91.5771 74.0795C91.8185 74.0795 92.0387 74.0455 92.2376 73.9773C92.4364 73.9062 92.6083 73.8011 92.7532 73.6619C92.8981 73.5227 93.0089 73.3509 93.0856 73.1463L94.2915 73.3636C94.195 73.7187 94.0217 74.0298 93.7717 74.2969C93.5245 74.5611 93.2134 74.767 92.8384 74.9148C92.4663 75.0597 92.0415 75.1321 91.5643 75.1321Z" fill="#707070"/>
<rect x="68.5" y="82.5" width="319" height="35" rx="2.5" fill="white"/>
<path d="M84.0625 104.5H81.1449V95.0455H84.1918C85.1089 95.0455 85.8937 95.2347 86.5462 95.6133C87.1986 95.9888 87.6987 96.5289 88.0465 97.2337C88.3943 97.9354 88.5682 98.7756 88.5682 99.7543C88.5682 100.739 88.3928 101.587 88.0419 102.298C87.6911 103.006 87.1802 103.551 86.5092 103.932C85.8383 104.311 85.0227 104.5 84.0625 104.5ZM82.2898 103.484H83.9886C84.7704 103.484 85.4182 103.334 85.9322 103.032C86.4461 102.73 86.8293 102.301 87.0817 101.744C87.334 101.187 87.4602 100.524 87.4602 99.7543C87.4602 98.991 87.3356 98.3339 87.0863 97.783C86.837 97.229 86.4646 96.8043 85.9691 96.5089C85.4736 96.2103 84.8565 96.0611 84.1179 96.0611H82.2898V103.484ZM93.4062 104.5H90.4886V95.0455H93.5355C94.4527 95.0455 95.2375 95.2347 95.8899 95.6133C96.5424 95.9888 97.0425 96.5289 97.3903 97.2337C97.738 97.9354 97.9119 98.7756 97.9119 99.7543C97.9119 100.739 97.7365 101.587 97.3857 102.298C97.0348 103.006 96.5239 103.551 95.853 103.932C95.1821 104.311 94.3665 104.5 93.4062 104.5ZM91.6335 103.484H93.3324C94.1141 103.484 94.762 103.334 95.2759 103.032C95.7899 102.73 96.1731 102.301 96.4254 101.744C96.6778 101.187 96.804 100.524 96.804 99.7543C96.804 98.991 96.6793 98.3339 96.43 97.783C96.1808 97.229 95.8084 96.8043 95.3129 96.5089C94.8174 96.2103 94.2003 96.0611 93.4616 96.0611H91.6335V103.484ZM102.506 94.6023L99.4596 105.922H98.4624L101.509 94.6023H102.506ZM103.946 95.0455H105.312L108.525 102.893H108.636L111.849 95.0455H113.216V104.5H112.145V97.3168H112.052L109.098 104.5H108.064L105.109 97.3168H105.017V104.5H103.946V95.0455ZM115.511 95.0455H116.878L120.091 102.893H120.201L123.415 95.0455H124.781V104.5H123.71V97.3168H123.618L120.663 104.5H119.629L116.674 97.3168H116.582V104.5H115.511V95.0455ZM130.271 94.6023L127.224 105.922H126.227L129.274 94.6023H130.271ZM130.898 95.0455H132.209L134.831 99.4588H134.942L137.564 95.0455H138.875L135.459 100.604V104.5H134.314V100.604L130.898 95.0455ZM139.543 95.0455H140.854L143.477 99.4588H143.587L146.21 95.0455H147.521L144.104 100.604V104.5H142.96V100.604L139.543 95.0455ZM148.189 95.0455H149.5L152.122 99.4588H152.233L154.855 95.0455H156.166L152.75 100.604V104.5H151.605V100.604L148.189 95.0455ZM156.834 95.0455H158.145L160.768 99.4588H160.878L163.501 95.0455H164.812L161.395 100.604V104.5H160.251V100.604L156.834 95.0455Z" fill="#C8C8C8"/>
<path fill-rule="evenodd" clip-rule="evenodd" d="M362.666 90.8359C363.126 90.8359 363.499 91.209 363.499 91.6693V92.5026H368.499V91.6693C368.499 91.209 368.872 90.8359 369.333 90.8359C369.793 90.8359 370.166 91.209 370.166 91.6693V92.504C370.562 92.5067 370.909 92.5149 371.209 92.5394C371.678 92.5777 372.108 92.6598 372.513 92.8659C373.14 93.1855 373.65 93.6954 373.969 94.3226C374.175 94.7271 374.258 95.1577 374.296 95.6261C374.333 96.0771 374.333 96.6307 374.333 97.3015V104.37C374.333 105.041 374.333 105.595 374.296 106.046C374.258 106.514 374.175 106.945 373.969 107.349C373.65 107.976 373.14 108.486 372.513 108.806C372.108 109.012 371.678 109.094 371.209 109.132C370.758 109.169 370.205 109.169 369.534 109.169H362.465C361.794 109.169 361.24 109.169 360.789 109.132C360.321 109.094 359.89 109.012 359.486 108.806C358.859 108.486 358.349 107.976 358.029 107.349C357.823 106.945 357.741 106.514 357.703 106.046C357.666 105.595 357.666 105.041 357.666 104.37V97.3015C357.666 96.6307 357.666 96.0771 357.703 95.6261C357.741 95.1577 357.823 94.7271 358.029 94.3226C358.349 93.6954 358.859 93.1855 359.486 92.8659C359.89 92.6598 360.321 92.5777 360.789 92.5394C361.09 92.5149 361.436 92.5067 361.833 92.504V91.6693C361.833 91.209 362.206 90.8359 362.666 90.8359ZM361.833 94.1707C361.461 94.1733 361.17 94.1806 360.925 94.2006C360.56 94.2304 360.373 94.2845 360.243 94.3509C359.929 94.5107 359.674 94.7657 359.514 95.0793C359.448 95.2096 359.394 95.3965 359.364 95.7618C359.333 96.1369 359.333 96.6221 359.333 97.3359V97.5026H372.666V97.3359C372.666 96.6221 372.665 96.1369 372.635 95.7618C372.605 95.3965 372.551 95.2096 372.484 95.0793C372.325 94.7657 372.07 94.5107 371.756 94.3509C371.626 94.2845 371.439 94.2304 371.073 94.2006C370.829 94.1806 370.537 94.1733 370.166 94.1707V95.0026C370.166 95.4628 369.793 95.8359 369.333 95.8359C368.872 95.8359 368.499 95.4628 368.499 95.0026V94.1693H363.499V95.0026C363.499 95.4628 363.126 95.8359 362.666 95.8359C362.206 95.8359 361.833 95.4628 361.833 95.0026V94.1707ZM372.666 99.1693H359.333V104.336C359.333 105.05 359.333 105.535 359.364 105.91C359.394 106.275 359.448 106.462 359.514 106.593C359.674 106.906 359.929 107.161 360.243 107.321C360.373 107.387 360.56 107.441 360.925 107.471C361.3 107.502 361.786 107.503 362.499 107.503H369.499C370.213 107.503 370.698 107.502 371.073 107.471C371.439 107.441 371.626 107.387 371.756 107.321C372.07 107.161 372.325 106.906 372.484 106.593C372.551 106.462 372.605 106.275 372.635 105.91C372.665 105.535 372.666 105.05 372.666 104.336V99.1693Z" fill="#9E9E9E"/>
<rect x="68.5" y="82.5" width="319" height="35" rx="2.5" stroke="#EFEFEF"/>
<path d="M419.784 75H416.959V66.2727H419.874C420.729 66.2727 421.463 66.4474 422.077 66.7969C422.69 67.1435 423.161 67.642 423.487 68.2926C423.817 68.9403 423.982 69.7173 423.982 70.6236C423.982 71.5327 423.815 72.3139 423.483 72.9673C423.153 73.6207 422.676 74.1236 422.051 74.4759C421.426 74.8253 420.67 75 419.784 75ZM418.276 73.8494H419.712C420.376 73.8494 420.929 73.7244 421.369 73.4744C421.81 73.2216 422.139 72.8565 422.358 72.3793C422.577 71.8991 422.686 71.3139 422.686 70.6236C422.686 69.9389 422.577 69.358 422.358 68.8807C422.142 68.4034 421.82 68.0412 421.391 67.794C420.962 67.5469 420.429 67.4233 419.793 67.4233H418.276V73.8494ZM427.422 75.1449C427.007 75.1449 426.632 75.0682 426.297 74.9148C425.961 74.7585 425.696 74.5327 425.5 74.2372C425.306 73.9418 425.21 73.5795 425.21 73.1506C425.21 72.7812 425.281 72.4773 425.423 72.2386C425.565 72 425.757 71.8111 425.998 71.6719C426.24 71.5327 426.51 71.4276 426.808 71.3565C427.106 71.2855 427.41 71.2315 427.72 71.1946C428.112 71.1491 428.43 71.1122 428.674 71.0838C428.919 71.0526 429.096 71.0028 429.207 70.9347C429.318 70.8665 429.373 70.7557 429.373 70.6023V70.5724C429.373 70.2003 429.268 69.9119 429.058 69.7074C428.85 69.5028 428.541 69.4006 428.129 69.4006C427.7 69.4006 427.362 69.4957 427.115 69.6861C426.87 69.8736 426.701 70.0824 426.608 70.3125L425.41 70.0398C425.552 69.642 425.76 69.321 426.032 69.0767C426.308 68.8295 426.625 68.6506 426.983 68.5398C427.341 68.4261 427.717 68.3693 428.112 68.3693C428.373 68.3693 428.65 68.4006 428.943 68.4631C429.238 68.5227 429.514 68.6335 429.77 68.7955C430.028 68.9574 430.24 69.1889 430.404 69.4901C430.569 69.7884 430.652 70.1761 430.652 70.6534V75H429.407V74.1051H429.356C429.274 74.2699 429.15 74.4318 428.985 74.5909C428.821 74.75 428.609 74.8821 428.35 74.9872C428.092 75.0923 427.782 75.1449 427.422 75.1449ZM427.699 74.1222C428.051 74.1222 428.352 74.0526 428.602 73.9134C428.855 73.7741 429.047 73.5923 429.177 73.3679C429.311 73.1406 429.377 72.8977 429.377 72.6392V71.7955C429.332 71.8409 429.244 71.8835 429.113 71.9233C428.985 71.9602 428.839 71.9929 428.674 72.0213C428.51 72.0469 428.349 72.071 428.193 72.0938C428.037 72.1136 427.906 72.1307 427.801 72.1449C427.554 72.1761 427.328 72.2287 427.123 72.3026C426.922 72.3764 426.76 72.483 426.637 72.6222C426.518 72.7585 426.458 72.9403 426.458 73.1676C426.458 73.483 426.575 73.7216 426.808 73.8835C427.041 74.0426 427.338 74.1222 427.699 74.1222ZM435.404 68.4545V69.4773H431.829V68.4545H435.404ZM432.788 66.8864H434.062V73.0781C434.062 73.3253 434.099 73.5114 434.173 73.6364C434.246 73.7585 434.342 73.8423 434.458 73.8878C434.577 73.9304 434.707 73.9517 434.846 73.9517C434.948 73.9517 435.038 73.9446 435.114 73.9304C435.191 73.9162 435.251 73.9048 435.293 73.8963L435.523 74.9489C435.45 74.9773 435.344 75.0057 435.208 75.0341C435.072 75.0653 434.901 75.0824 434.697 75.0852C434.362 75.0909 434.049 75.0312 433.759 74.9062C433.469 74.7812 433.235 74.5881 433.056 74.3267C432.877 74.0653 432.788 73.7372 432.788 73.3423V66.8864ZM439.564 75.1321C438.919 75.1321 438.364 74.9943 437.898 74.7188C437.435 74.4403 437.077 74.0497 436.824 73.5469C436.574 73.0412 436.449 72.4489 436.449 71.7699C436.449 71.0994 436.574 70.5085 436.824 69.9972C437.077 69.4858 437.429 69.0866 437.881 68.7997C438.336 68.5128 438.867 68.3693 439.475 68.3693C439.844 68.3693 440.202 68.4304 440.549 68.5526C440.895 68.6747 441.206 68.8665 441.482 69.1278C441.757 69.3892 441.975 69.7287 442.134 70.1463C442.293 70.5611 442.373 71.0653 442.373 71.6591V72.1108H437.169V71.1562H441.124C441.124 70.821 441.056 70.5241 440.919 70.2656C440.783 70.0043 440.591 69.7983 440.344 69.6477C440.1 69.4972 439.813 69.4219 439.483 69.4219C439.125 69.4219 438.813 69.5099 438.546 69.6861C438.282 69.8594 438.077 70.0866 437.932 70.3679C437.79 70.6463 437.719 70.9489 437.719 71.2756V72.0213C437.719 72.4588 437.796 72.831 437.949 73.1378C438.105 73.4446 438.323 73.679 438.601 73.8409C438.88 74 439.205 74.0795 439.577 74.0795C439.819 74.0795 440.039 74.0455 440.238 73.9773C440.436 73.9062 440.608 73.8011 440.753 73.6619C440.898 73.5227 441.009 73.3509 441.086 73.1463L442.292 73.3636C442.195 73.7187 442.022 74.0298 441.772 74.2969C441.525 74.5611 441.213 74.767 440.838 74.9148C440.466 75.0597 440.042 75.1321 439.564 75.1321Z" fill="#707070"/>
<rect x="416.5" y="82.5" width="319" height="35" rx="2.5" fill="white"/>
<path d="M432.062 104.5H429.145V95.0455H432.192C433.109 95.0455 433.894 95.2347 434.546 95.6133C435.199 95.9888 435.699 96.5289 436.047 97.2337C436.394 97.9354 436.568 98.7756 436.568 99.7543C436.568 100.739 436.393 101.587 436.042 102.298C435.691 103.006 435.18 103.551 434.509 103.932C433.838 104.311 433.023 104.5 432.062 104.5ZM430.29 103.484H431.989C432.77 103.484 433.418 103.334 433.932 103.032C434.446 102.73 434.829 102.301 435.082 101.744C435.334 101.187 435.46 100.524 435.46 99.7543C435.46 98.991 435.336 98.3339 435.086 97.783C434.837 97.229 434.465 96.8043 433.969 96.5089C433.474 96.2103 432.857 96.0611 432.118 96.0611H430.29V103.484ZM441.406 104.5H438.489V95.0455H441.536C442.453 95.0455 443.237 95.2347 443.89 95.6133C444.542 95.9888 445.042 96.5289 445.39 97.2337C445.738 97.9354 445.912 98.7756 445.912 99.7543C445.912 100.739 445.737 101.587 445.386 102.298C445.035 103.006 444.524 103.551 443.853 103.932C443.182 104.311 442.366 104.5 441.406 104.5ZM439.634 103.484H441.332C442.114 103.484 442.762 103.334 443.276 103.032C443.79 102.73 444.173 102.301 444.425 101.744C444.678 101.187 444.804 100.524 444.804 99.7543C444.804 98.991 444.679 98.3339 444.43 97.783C444.181 97.229 443.808 96.8043 443.313 96.5089C442.817 96.2103 442.2 96.0611 441.462 96.0611H439.634V103.484ZM450.506 94.6023L447.46 105.922H446.462L449.509 94.6023H450.506ZM451.946 95.0455H453.312L456.525 102.893H456.636L459.849 95.0455H461.216V104.5H460.145V97.3168H460.052L457.098 104.5H456.064L453.109 97.3168H453.017V104.5H451.946V95.0455ZM463.511 95.0455H464.878L468.091 102.893H468.201L471.415 95.0455H472.781V104.5H471.71V97.3168H471.618L468.663 104.5H467.629L464.674 97.3168H464.582V104.5H463.511V95.0455ZM478.271 94.6023L475.224 105.922H474.227L477.274 94.6023H478.271ZM478.898 95.0455H480.209L482.831 99.4588H482.942L485.564 95.0455H486.875L483.459 100.604V104.5H482.314V100.604L478.898 95.0455ZM487.543 95.0455H488.854L491.477 99.4588H491.587L494.21 95.0455H495.521L492.104 100.604V104.5H490.96V100.604L487.543 95.0455ZM496.189 95.0455H497.5L500.122 99.4588H500.233L502.855 95.0455H504.166L500.75 100.604V104.5H499.605V100.604L496.189 95.0455ZM504.834 95.0455H506.145L508.768 99.4588H508.878L511.501 95.0455H512.812L509.395 100.604V104.5H508.251V100.604L504.834 95.0455Z" fill="#C8C8C8"/>
<path fill-rule="evenodd" clip-rule="evenodd" d="M710.666 90.8359C711.126 90.8359 711.499 91.209 711.499 91.6693V92.5026H716.499V91.6693C716.499 91.209 716.872 90.8359 717.333 90.8359C717.793 90.8359 718.166 91.209 718.166 91.6693V92.504C718.562 92.5067 718.909 92.5149 719.209 92.5394C719.678 92.5777 720.108 92.6598 720.513 92.8659C721.14 93.1855 721.65 93.6954 721.969 94.3226C722.175 94.7271 722.258 95.1577 722.296 95.6261C722.333 96.0771 722.333 96.6307 722.333 97.3015V104.37C722.333 105.041 722.333 105.595 722.296 106.046C722.258 106.514 722.175 106.945 721.969 107.349C721.65 107.976 721.14 108.486 720.513 108.806C720.108 109.012 719.678 109.094 719.209 109.132C718.758 109.169 718.205 109.169 717.534 109.169H710.465C709.794 109.169 709.24 109.169 708.789 109.132C708.321 109.094 707.89 109.012 707.486 108.806C706.859 108.486 706.349 107.976 706.029 107.349C705.823 106.945 705.741 106.514 705.703 106.046C705.666 105.595 705.666 105.041 705.666 104.37V97.3015C705.666 96.6307 705.666 96.0771 705.703 95.6261C705.741 95.1577 705.823 94.7271 706.029 94.3226C706.349 93.6954 706.859 93.1855 707.486 92.8659C707.89 92.6598 708.321 92.5777 708.789 92.5394C709.09 92.5149 709.436 92.5067 709.833 92.504V91.6693C709.833 91.209 710.206 90.8359 710.666 90.8359ZM709.833 94.1707C709.461 94.1733 709.17 94.1806 708.925 94.2006C708.56 94.2304 708.373 94.2845 708.243 94.3509C707.929 94.5107 707.674 94.7657 707.514 95.0793C707.448 95.2096 707.394 95.3965 707.364 95.7618C707.333 96.1369 707.333 96.6221 707.333 97.3359V97.5026H720.666V97.3359C720.666 96.6221 720.665 96.1369 720.635 95.7618C720.605 95.3965 720.551 95.2096 720.484 95.0793C720.325 94.7657 720.07 94.5107 719.756 94.3509C719.626 94.2845 719.439 94.2304 719.073 94.2006C718.829 94.1806 718.537 94.1733 718.166 94.1707V95.0026C718.166 95.4628 717.793 95.8359 717.333 95.8359C716.872 95.8359 716.499 95.4628 716.499 95.0026V94.1693H711.499V95.0026C711.499 95.4628 711.126 95.8359 710.666 95.8359C710.206 95.8359 709.833 95.4628 709.833 95.0026V94.1707ZM720.666 99.1693H707.333V104.336C707.333 105.05 707.333 105.535 707.364 105.91C707.394 106.275 707.448 106.462 707.514 106.593C707.674 106.906 707.929 107.161 708.243 107.321C708.373 107.387 708.56 107.441 708.925 107.471C709.3 107.502 709.786 107.503 710.499 107.503H717.499C718.213 107.503 718.698 107.502 719.073 107.471C719.439 107.441 719.626 107.387 719.756 107.321C720.07 107.161 720.325 106.906 720.484 106.593C720.551 106.462 720.605 106.275 720.635 105.91C720.665 105.535 720.666 105.05 720.666 104.336V99.1693Z" fill="#9E9E9E"/>
<rect x="416.5" y="82.5" width="319" height="35" rx="2.5" stroke="#EFEFEF"/>
<g filter="url(#filter0_dd_915_38060)">
<rect x="416" y="122" width="320" height="333" rx="3" fill="white"/>
<path d="M465.88 238.818V249H464.647V240.111H464.587L462.101 241.761V240.509L464.647 238.818H465.88Z" fill="#C8C8C8"/>
<path d="M503.046 238.818V249H501.813V240.111H501.753L499.267 241.761V240.509L501.813 238.818H503.046Z" fill="#C8C8C8"/>
<path d="M540.214 238.818V249H538.981V240.111H538.921L536.435 241.761V240.509L538.981 238.818H540.214Z" fill="#1A1A1A"/>
<path d="M577.38 238.818V249H576.147V240.111H576.087L573.601 241.761V240.509L576.147 238.818H577.38Z" fill="#1A1A1A"/>
<path d="M614.546 238.818V249H613.313V240.111H613.253L610.767 241.761V240.509L613.313 238.818H614.546Z" fill="#1A1A1A"/>
<path d="M651.714 238.818V249H650.481V240.111H650.421L647.935 241.761V240.509L650.481 238.818H651.714Z" fill="#1A1A1A"/>
<path d="M688.88 238.818V249H687.647V240.111H687.587L685.101 241.761V240.509L687.647 238.818H688.88Z" fill="#1A1A1A"/>
<path d="M465.88 320.818V331H464.647V322.111H464.587L462.101 323.761V322.509L464.647 320.818H465.88Z" fill="#1A1A1A"/>
<path d="M503.046 320.818V331H501.813V322.111H501.753L499.267 323.761V322.509L501.813 320.818H503.046Z" fill="#1A1A1A"/>
<path d="M540.214 320.818V331H538.981V322.111H538.921L536.435 323.761V322.509L538.981 320.818H540.214Z" fill="#1A1A1A"/>
<path d="M577.38 320.818V331H576.147V322.111H576.087L573.601 323.761V322.509L576.147 320.818H577.38Z" fill="#1A1A1A"/>
<path d="M614.546 320.818V331H613.313V322.111H613.253L610.767 323.761V322.509L613.313 320.818H614.546Z" fill="#1A1A1A"/>
<path d="M651.714 320.818V331H650.481V322.111H650.421L647.935 323.761V322.509L650.481 320.818H651.714Z" fill="#1A1A1A"/>
<path d="M688.88 320.818V331H687.647V322.111H687.587L685.101 323.761V322.509L687.647 320.818H688.88Z" fill="#1A1A1A"/>
<path d="M465.88 279.818V290H464.647V281.111H464.587L462.101 282.761V281.509L464.647 279.818H465.88Z" fill="#1A1A1A"/>
<path d="M503.046 279.818V290H501.813V281.111H501.753L499.267 282.761V281.509L501.813 279.818H503.046Z" fill="#1A1A1A"/>
<path d="M540.214 279.818V290H538.981V281.111H538.921L536.435 282.761V281.509L538.981 279.818H540.214Z" fill="#1A1A1A"/>
<rect x="564.5" y="273" width="23" height="23" rx="2" fill="#217CF5"/>
<path d="M577.38 279.818V290H576.147V281.111H576.087L573.601 282.761V281.509L576.147 279.818H577.38Z" fill="white"/>
<path d="M614.546 279.818V290H613.313V281.111H613.253L610.767 282.761V281.509L613.313 279.818H614.546Z" fill="#1A1A1A"/>
<path d="M651.714 279.818V290H650.481V281.111H650.421L647.935 282.761V281.509L650.481 279.818H651.714Z" fill="#1A1A1A"/>
<path d="M688.88 279.818V290H687.647V281.111H687.587L685.101 282.761V281.509L687.647 279.818H688.88Z" fill="#1A1A1A"/>
<path d="M465.88 361.818V372H464.647V363.111H464.587L462.101 364.761V363.509L464.647 361.818H465.88Z" fill="#1A1A1A"/>
<path d="M503.046 361.818V372H501.813V363.111H501.753L499.267 364.761V363.509L501.813 361.818H503.046Z" fill="#1A1A1A"/>
<rect x="527.334" y="355" width="23" height="23" rx="2" fill="#E9F2FE"/>
<path d="M540.214 361.818V372H538.981V363.111H538.921L536.435 364.761V363.509L538.981 361.818H540.214Z" fill="#1A1A1A"/>
<path d="M577.38 361.818V372H576.147V363.111H576.087L573.601 364.761V363.509L576.147 361.818H577.38Z" fill="#1A1A1A"/>
<path d="M614.546 361.818V372H613.313V363.111H613.253L610.767 364.761V363.509L613.313 361.818H614.546Z" fill="#1A1A1A"/>
<path d="M651.714 361.818V372H650.481V363.111H650.421L647.935 364.761V363.509L650.481 361.818H651.714Z" fill="#1A1A1A"/>
<path d="M688.88 361.818V372H687.647V363.111H687.587L685.101 364.761V363.509L687.647 361.818H688.88Z" fill="#1A1A1A"/>
<path d="M465.88 402.818V413H464.647V404.111H464.587L462.101 405.761V404.509L464.647 402.818H465.88Z" fill="#1A1A1A"/>
<path d="M503.046 402.818V413H501.813V404.111H501.753L499.267 405.761V404.509L501.813 402.818H503.046Z" fill="#1A1A1A"/>
<path d="M540.214 402.818V413H538.981V404.111H538.921L536.435 405.761V404.509L538.981 402.818H540.214Z" fill="#1A1A1A"/>
<path d="M577.38 402.818V413H576.147V404.111H576.087L573.601 405.761V404.509L576.147 402.818H577.38Z" fill="#1A1A1A"/>
<path d="M614.546 402.818V413H613.313V404.111H613.253L610.767 405.761V404.509L613.313 402.818H614.546Z" fill="#C8C8C8"/>
<path d="M651.714 402.818V413H650.481V404.111H650.421L647.935 405.761V404.509L650.481 402.818H651.714Z" fill="#C8C8C8"/>
<path d="M688.88 402.818V413H687.647V404.111H687.587L685.101 405.761V404.509L687.647 402.818H688.88Z" fill="#C8C8C8"/>
<path d="M460.624 151.497L461.699 152.572L456.749 157.522L461.699 162.472L460.624 163.547L454.599 157.522L460.624 151.497Z" fill="#9E9E9E"/>
<path d="M501.146 149.955H504.37L508.688 160.494H508.859L513.177 149.955H516.401V164.5H513.873V154.507H513.738L509.718 164.457H507.829L503.809 154.486H503.674V164.5H501.146V149.955ZM523.915 164.713C522.85 164.713 521.927 164.479 521.146 164.01C520.364 163.541 519.758 162.885 519.327 162.043C518.901 161.2 518.688 160.215 518.688 159.088C518.688 157.961 518.901 156.974 519.327 156.126C519.758 155.279 520.364 154.621 521.146 154.152C521.927 153.683 522.85 153.449 523.915 153.449C524.981 153.449 525.904 153.683 526.685 154.152C527.467 154.621 528.07 155.279 528.496 156.126C528.927 156.974 529.143 157.961 529.143 159.088C529.143 160.215 528.927 161.2 528.496 162.043C528.07 162.885 527.467 163.541 526.685 164.01C525.904 164.479 524.981 164.713 523.915 164.713ZM523.93 162.653C524.507 162.653 524.99 162.495 525.379 162.178C525.767 161.856 526.056 161.425 526.245 160.885C526.439 160.345 526.536 159.744 526.536 159.081C526.536 158.413 526.439 157.81 526.245 157.27C526.056 156.725 525.767 156.292 525.379 155.97C524.99 155.648 524.507 155.487 523.93 155.487C523.338 155.487 522.845 155.648 522.452 155.97C522.064 156.292 521.773 156.725 521.579 157.27C521.389 157.81 521.295 158.413 521.295 159.081C521.295 159.744 521.389 160.345 521.579 160.885C521.773 161.425 522.064 161.856 522.452 162.178C522.845 162.495 523.338 162.653 523.93 162.653ZM533.896 158.108V164.5H531.325V153.591H533.782V155.445H533.91C534.161 154.834 534.561 154.348 535.11 153.989C535.664 153.629 536.349 153.449 537.163 153.449C537.916 153.449 538.572 153.61 539.13 153.932C539.694 154.254 540.129 154.72 540.437 155.331C540.75 155.942 540.904 156.683 540.899 157.554V164.5H538.328V157.952C538.328 157.223 538.138 156.652 537.76 156.24C537.386 155.828 536.867 155.622 536.204 155.622C535.754 155.622 535.354 155.722 535.004 155.92C534.658 156.115 534.386 156.396 534.187 156.766C533.993 157.135 533.896 157.582 533.896 158.108ZM548.96 153.591V155.58H542.689V153.591H548.96ZM544.237 150.977H546.808V161.219C546.808 161.564 546.86 161.83 546.964 162.014C547.073 162.194 547.215 162.317 547.39 162.384C547.565 162.45 547.76 162.483 547.973 162.483C548.134 162.483 548.28 162.471 548.413 162.447C548.55 162.424 548.654 162.402 548.725 162.384L549.159 164.393C549.021 164.441 548.825 164.493 548.569 164.55C548.318 164.607 548.011 164.64 547.646 164.649C547.002 164.668 546.422 164.571 545.906 164.358C545.39 164.14 544.98 163.804 544.677 163.349C544.379 162.895 544.232 162.327 544.237 161.645V150.977ZM553.915 158.108V164.5H551.344V149.955H553.859V155.445H553.987C554.242 154.829 554.638 154.344 555.173 153.989C555.712 153.629 556.399 153.449 557.232 153.449C557.99 153.449 558.65 153.607 559.214 153.925C559.777 154.242 560.213 154.706 560.521 155.317C560.833 155.928 560.989 156.673 560.989 157.554V164.5H558.418V157.952C558.418 157.218 558.229 156.647 557.85 156.24C557.476 155.828 556.951 155.622 556.273 155.622C555.819 155.622 555.412 155.722 555.052 155.92C554.697 156.115 554.417 156.396 554.214 156.766C554.015 157.135 553.915 157.582 553.915 158.108Z" fill="#484D57"/>
<path d="M581.489 164.777C580.32 164.777 579.316 164.481 578.478 163.889C577.645 163.293 577.003 162.433 576.553 161.311C576.108 160.184 575.886 158.828 575.886 157.241C575.89 155.655 576.115 154.306 576.56 153.193C577.01 152.076 577.652 151.223 578.485 150.636C579.323 150.049 580.325 149.756 581.489 149.756C582.654 149.756 583.656 150.049 584.494 150.636C585.332 151.223 585.973 152.076 586.418 153.193C586.868 154.311 587.093 155.66 587.093 157.241C587.093 158.832 586.868 160.191 586.418 161.318C585.973 162.44 585.332 163.297 584.494 163.889C583.66 164.481 582.659 164.777 581.489 164.777ZM581.489 162.554C582.398 162.554 583.116 162.107 583.641 161.212C584.172 160.312 584.437 158.989 584.437 157.241C584.437 156.086 584.316 155.116 584.075 154.33C583.833 153.544 583.492 152.952 583.052 152.554C582.612 152.152 582.091 151.95 581.489 151.95C580.585 151.95 579.87 152.4 579.344 153.3C578.819 154.195 578.554 155.509 578.549 157.241C578.544 158.402 578.66 159.377 578.897 160.168C579.138 160.958 579.479 161.555 579.92 161.957C580.36 162.355 580.883 162.554 581.489 162.554ZM594.829 164.777C593.66 164.777 592.656 164.481 591.818 163.889C590.984 163.293 590.343 162.433 589.893 161.311C589.448 160.184 589.225 158.828 589.225 157.241C589.23 155.655 589.455 154.306 589.9 153.193C590.35 152.076 590.992 151.223 591.825 150.636C592.663 150.049 593.664 149.756 594.829 149.756C595.994 149.756 596.995 150.049 597.833 150.636C598.672 151.223 599.313 152.076 599.758 153.193C600.208 154.311 600.433 155.66 600.433 157.241C600.433 158.832 600.208 160.191 599.758 161.318C599.313 162.44 598.672 163.297 597.833 163.889C597 164.481 595.999 164.777 594.829 164.777ZM594.829 162.554C595.738 162.554 596.456 162.107 596.981 161.212C597.511 160.312 597.777 158.989 597.777 157.241C597.777 156.086 597.656 155.116 597.414 154.33C597.173 153.544 596.832 152.952 596.392 152.554C595.951 152.152 595.431 151.95 594.829 151.95C593.925 151.95 593.21 152.4 592.684 153.3C592.159 154.195 591.894 155.509 591.889 157.241C591.884 158.402 592 159.377 592.237 160.168C592.478 160.958 592.819 161.555 593.26 161.957C593.7 162.355 594.223 162.554 594.829 162.554ZM608.169 164.777C607 164.777 605.996 164.481 605.158 163.889C604.324 163.293 603.683 162.433 603.233 161.311C602.788 160.184 602.565 158.828 602.565 157.241C602.57 155.655 602.795 154.306 603.24 153.193C603.69 152.076 604.331 151.223 605.165 150.636C606.003 150.049 607.004 149.756 608.169 149.756C609.334 149.756 610.335 150.049 611.173 150.636C612.011 151.223 612.653 152.076 613.098 153.193C613.548 154.311 613.773 155.66 613.773 157.241C613.773 158.832 613.548 160.191 613.098 161.318C612.653 162.44 612.011 163.297 611.173 163.889C610.34 164.481 609.339 164.777 608.169 164.777ZM608.169 162.554C609.078 162.554 609.795 162.107 610.321 161.212C610.851 160.312 611.116 158.989 611.116 157.241C611.116 156.086 610.996 155.116 610.754 154.33C610.513 153.544 610.172 152.952 609.732 152.554C609.291 152.152 608.77 151.95 608.169 151.95C607.265 151.95 606.55 152.4 606.024 153.3C605.499 154.195 605.233 155.509 605.229 157.241C605.224 158.402 605.34 159.377 605.577 160.168C605.818 160.958 606.159 161.555 606.599 161.957C607.04 162.355 607.563 162.554 608.169 162.554ZM621.509 164.777C620.339 164.777 619.336 164.481 618.498 163.889C617.664 163.293 617.023 162.433 616.573 161.311C616.128 160.184 615.905 158.828 615.905 157.241C615.91 155.655 616.135 154.306 616.58 153.193C617.03 152.076 617.671 151.223 618.505 150.636C619.343 150.049 620.344 149.756 621.509 149.756C622.674 149.756 623.675 150.049 624.513 150.636C625.351 151.223 625.993 152.076 626.438 153.193C626.888 154.311 627.113 155.66 627.113 157.241C627.113 158.832 626.888 160.191 626.438 161.318C625.993 162.44 625.351 163.297 624.513 163.889C623.68 164.481 622.678 164.777 621.509 164.777ZM621.509 162.554C622.418 162.554 623.135 162.107 623.661 161.212C624.191 160.312 624.456 158.989 624.456 157.241C624.456 156.086 624.336 155.116 624.094 154.33C623.853 153.544 623.512 152.952 623.071 152.554C622.631 152.152 622.11 151.95 621.509 151.95C620.605 151.95 619.89 152.4 619.364 153.3C618.838 154.195 618.573 155.509 618.569 157.241C618.564 158.402 618.68 159.377 618.917 160.168C619.158 160.958 619.499 161.555 619.939 161.957C620.38 162.355 620.903 162.554 621.509 162.554Z" fill="#484D57"/>
<g clip-path="url(#clip0_915_38060)">
<path d="M635.5 159.5L640.5 164.5L645.5 159.5H635.5Z" fill="#217CF5"/>
</g>
<g clip-path="url(#clip1_915_38060)">
<path d="M645.5 155.5L640.5 150.5L635.5 155.5L645.5 155.5Z" fill="#217CF5"/>
</g>
<path d="M691.376 163.503L690.301 162.428L695.251 157.478L690.301 152.528L691.376 151.453L697.401 157.478L691.376 163.503Z" fill="#9E9E9E"/>
<path d="M461.007 206.455C460.956 206.023 460.749 205.688 460.385 205.449C460.021 205.21 459.575 205.091 459.047 205.091C458.661 205.091 458.323 205.153 458.033 205.278C457.746 205.403 457.521 205.575 457.36 205.794C457.2 206.013 457.121 206.261 457.121 206.54C457.121 206.773 457.176 206.973 457.287 207.141C457.401 207.305 457.546 207.443 457.722 207.554C457.898 207.662 458.083 207.751 458.276 207.822C458.469 207.891 458.646 207.946 458.808 207.989L459.695 208.227C459.922 208.287 460.175 208.369 460.453 208.474C460.735 208.58 461.003 208.723 461.259 208.905C461.517 209.084 461.73 209.314 461.898 209.595C462.066 209.876 462.149 210.222 462.149 210.631C462.149 211.102 462.026 211.528 461.779 211.909C461.534 212.29 461.176 212.592 460.705 212.817C460.236 213.041 459.666 213.153 458.996 213.153C458.371 213.153 457.83 213.053 457.372 212.851C456.918 212.649 456.56 212.368 456.298 212.007C456.04 211.646 455.894 211.227 455.86 210.75H456.95C456.979 211.08 457.09 211.352 457.283 211.568C457.479 211.781 457.726 211.94 458.024 212.045C458.325 212.148 458.649 212.199 458.996 212.199C459.399 212.199 459.762 212.134 460.083 212.003C460.404 211.869 460.658 211.685 460.845 211.449C461.033 211.21 461.127 210.932 461.127 210.614C461.127 210.324 461.046 210.088 460.884 209.906C460.722 209.724 460.509 209.577 460.244 209.463C459.98 209.349 459.695 209.25 459.388 209.165L458.314 208.858C457.632 208.662 457.093 208.382 456.695 208.018C456.297 207.655 456.098 207.179 456.098 206.591C456.098 206.102 456.23 205.676 456.494 205.312C456.762 204.946 457.119 204.662 457.568 204.46C458.02 204.256 458.524 204.153 459.081 204.153C459.644 204.153 460.144 204.254 460.581 204.456C461.019 204.655 461.365 204.928 461.621 205.274C461.879 205.621 462.016 206.014 462.03 206.455H461.007ZM467.876 210.324V206.455H468.881V213H467.876V211.892H467.807C467.654 212.224 467.415 212.507 467.091 212.74C466.768 212.97 466.358 213.085 465.864 213.085C465.455 213.085 465.091 212.996 464.773 212.817C464.455 212.635 464.205 212.362 464.023 211.999C463.841 211.632 463.751 211.17 463.751 210.614V206.455H464.756V210.545C464.756 211.023 464.89 211.403 465.157 211.688C465.427 211.972 465.77 212.114 466.188 212.114C466.438 212.114 466.692 212.05 466.951 211.922C467.212 211.794 467.431 211.598 467.607 211.334C467.786 211.07 467.876 210.733 467.876 210.324ZM471.729 209.062V213H470.723V206.455H471.695V207.477H471.78C471.933 207.145 472.166 206.878 472.479 206.676C472.791 206.472 473.195 206.369 473.689 206.369C474.132 206.369 474.52 206.46 474.852 206.642C475.185 206.821 475.443 207.094 475.628 207.46C475.813 207.824 475.905 208.284 475.905 208.841V213H474.899V208.909C474.899 208.395 474.766 207.994 474.499 207.707C474.232 207.418 473.865 207.273 473.399 207.273C473.078 207.273 472.791 207.342 472.539 207.482C472.289 207.621 472.091 207.824 471.946 208.091C471.801 208.358 471.729 208.682 471.729 209.062Z" fill="#707070"/>
<path d="M491.629 204.273H492.89L495.856 211.517H495.959L498.925 204.273H500.186V213H499.197V206.369H499.112L496.385 213H495.43L492.703 206.369H492.618V213H491.629V204.273ZM504.828 213.136C504.237 213.136 503.718 212.996 503.272 212.714C502.829 212.433 502.482 212.04 502.232 211.534C501.985 211.028 501.862 210.437 501.862 209.761C501.862 209.08 501.985 208.484 502.232 207.976C502.482 207.467 502.829 207.072 503.272 206.791C503.718 206.51 504.237 206.369 504.828 206.369C505.419 206.369 505.936 206.51 506.379 206.791C506.825 207.072 507.171 207.467 507.419 207.976C507.669 208.484 507.794 209.08 507.794 209.761C507.794 210.437 507.669 211.028 507.419 211.534C507.171 212.04 506.825 212.433 506.379 212.714C505.936 212.996 505.419 213.136 504.828 213.136ZM504.828 212.233C505.276 212.233 505.646 212.118 505.936 211.888C506.225 211.658 506.44 211.355 506.579 210.98C506.718 210.605 506.788 210.199 506.788 209.761C506.788 209.324 506.718 208.916 506.579 208.538C506.44 208.161 506.225 207.855 505.936 207.622C505.646 207.389 505.276 207.273 504.828 207.273C504.379 207.273 504.009 207.389 503.72 207.622C503.43 207.855 503.215 208.161 503.076 208.538C502.937 208.916 502.867 209.324 502.867 209.761C502.867 210.199 502.937 210.605 503.076 210.98C503.215 211.355 503.43 211.658 503.72 211.888C504.009 212.118 504.379 212.233 504.828 212.233ZM510.334 209.062V213H509.329V206.455H510.3V207.477H510.385C510.539 207.145 510.772 206.878 511.084 206.676C511.397 206.472 511.8 206.369 512.295 206.369C512.738 206.369 513.126 206.46 513.458 206.642C513.79 206.821 514.049 207.094 514.233 207.46C514.418 207.824 514.51 208.284 514.51 208.841V213H513.505V208.909C513.505 208.395 513.371 207.994 513.104 207.707C512.837 207.418 512.471 207.273 512.005 207.273C511.684 207.273 511.397 207.342 511.144 207.482C510.894 207.621 510.697 207.824 510.552 208.091C510.407 208.358 510.334 208.682 510.334 209.062Z" fill="#707070"/>
<path d="M529.697 205.21V204.273H536.242V205.21H533.498V213H532.441V205.21H529.697ZM540.971 210.324V206.455H541.977V213H540.971V211.892H540.903C540.75 212.224 540.511 212.507 540.187 212.74C539.863 212.97 539.454 213.085 538.96 213.085C538.551 213.085 538.187 212.996 537.869 212.817C537.551 212.635 537.301 212.362 537.119 211.999C536.937 211.632 536.846 211.17 536.846 210.614V206.455H537.852V210.545C537.852 211.023 537.985 211.403 538.252 211.688C538.522 211.972 538.866 212.114 539.284 212.114C539.534 212.114 539.788 212.05 540.047 211.922C540.308 211.794 540.527 211.598 540.703 211.334C540.882 211.07 540.971 210.733 540.971 210.324ZM546.563 213.136C545.933 213.136 545.388 212.997 544.931 212.719C544.477 212.438 544.126 212.045 543.879 211.543C543.634 211.037 543.512 210.449 543.512 209.778C543.512 209.108 543.634 208.517 543.879 208.006C544.126 207.491 544.469 207.091 544.91 206.804C545.353 206.514 545.87 206.369 546.461 206.369C546.802 206.369 547.138 206.426 547.471 206.54C547.803 206.653 548.106 206.838 548.379 207.094C548.651 207.347 548.869 207.682 549.031 208.099C549.192 208.517 549.273 209.031 549.273 209.642V210.068H544.228V209.199H548.251C548.251 208.83 548.177 208.5 548.029 208.21C547.884 207.92 547.677 207.692 547.407 207.524C547.14 207.357 546.825 207.273 546.461 207.273C546.06 207.273 545.714 207.372 545.421 207.571C545.131 207.767 544.908 208.023 544.752 208.338C544.596 208.653 544.518 208.991 544.518 209.352V209.932C544.518 210.426 544.603 210.845 544.773 211.189C544.947 211.53 545.187 211.79 545.494 211.969C545.8 212.145 546.157 212.233 546.563 212.233C546.827 212.233 547.066 212.196 547.279 212.122C547.495 212.045 547.681 211.932 547.837 211.781C547.994 211.628 548.114 211.437 548.2 211.21L549.171 211.483C549.069 211.812 548.897 212.102 548.656 212.352C548.414 212.599 548.116 212.793 547.761 212.932C547.406 213.068 547.006 213.136 546.563 213.136Z" fill="#707070"/>
<path d="M565.533 213L563.146 204.273H564.22L566.044 211.381H566.129L567.987 204.273H569.18L571.038 211.381H571.124L572.947 204.273H574.021L571.635 213H570.544L568.618 206.045H568.55L566.624 213H565.533ZM577.337 213.136C576.706 213.136 576.162 212.997 575.705 212.719C575.25 212.438 574.899 212.045 574.652 211.543C574.408 211.037 574.286 210.449 574.286 209.778C574.286 209.108 574.408 208.517 574.652 208.006C574.899 207.491 575.243 207.091 575.683 206.804C576.126 206.514 576.643 206.369 577.234 206.369C577.575 206.369 577.912 206.426 578.244 206.54C578.577 206.653 578.879 206.838 579.152 207.094C579.425 207.347 579.642 207.682 579.804 208.099C579.966 208.517 580.047 209.031 580.047 209.642V210.068H575.001V209.199H579.024C579.024 208.83 578.95 208.5 578.803 208.21C578.658 207.92 578.45 207.692 578.18 207.524C577.913 207.357 577.598 207.273 577.234 207.273C576.834 207.273 576.487 207.372 576.195 207.571C575.905 207.767 575.682 208.023 575.526 208.338C575.369 208.653 575.291 208.991 575.291 209.352V209.932C575.291 210.426 575.376 210.845 575.547 211.189C575.72 211.53 575.96 211.79 576.267 211.969C576.574 212.145 576.93 212.233 577.337 212.233C577.601 212.233 577.839 212.196 578.053 212.122C578.268 212.045 578.455 211.932 578.611 211.781C578.767 211.628 578.888 211.437 578.973 211.21L579.945 211.483C579.842 211.812 579.67 212.102 579.429 212.352C579.188 212.599 578.889 212.793 578.534 212.932C578.179 213.068 577.78 213.136 577.337 213.136ZM584.048 213.136C583.503 213.136 583.021 212.999 582.604 212.723C582.186 212.445 581.859 212.053 581.624 211.547C581.388 211.038 581.27 210.438 581.27 209.744C581.27 209.057 581.388 208.46 581.624 207.955C581.859 207.449 582.188 207.058 582.608 206.783C583.028 206.507 583.514 206.369 584.065 206.369C584.491 206.369 584.828 206.44 585.075 206.582C585.325 206.722 585.516 206.881 585.646 207.06C585.78 207.236 585.884 207.381 585.957 207.494H586.043V204.273H587.048V213H586.077V211.994H585.957C585.884 212.114 585.778 212.264 585.642 212.446C585.506 212.625 585.311 212.786 585.058 212.928C584.805 213.067 584.469 213.136 584.048 213.136ZM584.185 212.233C584.588 212.233 584.929 212.128 585.207 211.918C585.486 211.705 585.697 211.411 585.842 211.036C585.987 210.658 586.06 210.222 586.06 209.727C586.06 209.239 585.989 208.811 585.847 208.445C585.705 208.075 585.494 207.788 585.216 207.584C584.938 207.376 584.594 207.273 584.185 207.273C583.759 207.273 583.403 207.382 583.119 207.601C582.838 207.817 582.626 208.111 582.484 208.483C582.345 208.852 582.276 209.267 582.276 209.727C582.276 210.193 582.347 210.616 582.489 210.997C582.634 211.375 582.847 211.676 583.128 211.901C583.412 212.122 583.764 212.233 584.185 212.233Z" fill="#707070"/>
<path d="M601.699 205.21V204.273H608.244V205.21H605.5V213H604.443V205.21H601.699ZM610.744 209.062V213H609.739V204.273H610.744V207.477H610.83C610.983 207.139 611.213 206.871 611.52 206.672C611.83 206.47 612.242 206.369 612.756 206.369C613.202 206.369 613.593 206.459 613.928 206.638C614.263 206.814 614.523 207.085 614.708 207.452C614.895 207.815 614.989 208.278 614.989 208.841V213H613.983V208.909C613.983 208.389 613.848 207.987 613.578 207.703C613.311 207.416 612.941 207.273 612.466 207.273C612.137 207.273 611.841 207.342 611.58 207.482C611.321 207.621 611.117 207.824 610.966 208.091C610.818 208.358 610.744 208.682 610.744 209.062ZM620.954 210.324V206.455H621.959V213H620.954V211.892H620.885C620.732 212.224 620.493 212.507 620.17 212.74C619.846 212.97 619.437 213.085 618.942 213.085C618.533 213.085 618.17 212.996 617.851 212.817C617.533 212.635 617.283 212.362 617.101 211.999C616.92 211.632 616.829 211.17 616.829 210.614V206.455H617.834V210.545C617.834 211.023 617.968 211.403 618.235 211.688C618.505 211.972 618.849 212.114 619.266 212.114C619.516 212.114 619.77 212.05 620.029 211.922C620.29 211.794 620.509 211.598 620.685 211.334C620.864 211.07 620.954 210.733 620.954 210.324Z" fill="#707070"/>
<path d="M642.914 213V204.273H648.147V205.21H643.971V208.159H647.755V209.097H643.971V213H642.914ZM649.751 213V206.455H650.722V207.443H650.79C650.91 207.119 651.126 206.857 651.438 206.655C651.751 206.453 652.103 206.352 652.495 206.352C652.569 206.352 652.661 206.354 652.772 206.357C652.883 206.359 652.966 206.364 653.023 206.369V207.392C652.989 207.384 652.911 207.371 652.789 207.354C652.67 207.334 652.543 207.324 652.41 207.324C652.091 207.324 651.807 207.391 651.557 207.524C651.31 207.655 651.114 207.837 650.969 208.07C650.827 208.3 650.756 208.562 650.756 208.858V213H649.751ZM654.215 213V206.455H655.221V213H654.215ZM654.727 205.364C654.531 205.364 654.362 205.297 654.22 205.163C654.08 205.03 654.011 204.869 654.011 204.682C654.011 204.494 654.08 204.334 654.22 204.2C654.362 204.067 654.531 204 654.727 204C654.923 204 655.09 204.067 655.23 204.2C655.372 204.334 655.443 204.494 655.443 204.682C655.443 204.869 655.372 205.03 655.23 205.163C655.09 205.297 654.923 205.364 654.727 205.364Z" fill="#707070"/>
<path d="M681.943 206.455C681.892 206.023 681.684 205.688 681.321 205.449C680.957 205.21 680.511 205.091 679.983 205.091C679.596 205.091 679.258 205.153 678.968 205.278C678.681 205.403 678.457 205.575 678.295 205.794C678.136 206.013 678.056 206.261 678.056 206.54C678.056 206.773 678.112 206.973 678.223 207.141C678.336 207.305 678.481 207.443 678.657 207.554C678.833 207.662 679.018 207.751 679.211 207.822C679.404 207.891 679.582 207.946 679.744 207.989L680.63 208.227C680.858 208.287 681.11 208.369 681.389 208.474C681.67 208.58 681.939 208.723 682.194 208.905C682.453 209.084 682.666 209.314 682.833 209.595C683.001 209.876 683.085 210.222 683.085 210.631C683.085 211.102 682.961 211.528 682.714 211.909C682.47 212.29 682.112 212.592 681.64 212.817C681.172 213.041 680.602 213.153 679.931 213.153C679.306 213.153 678.765 213.053 678.308 212.851C677.853 212.649 677.495 212.368 677.234 212.007C676.975 211.646 676.829 211.227 676.795 210.75H677.886C677.914 211.08 678.025 211.352 678.218 211.568C678.414 211.781 678.662 211.94 678.96 212.045C679.261 212.148 679.585 212.199 679.931 212.199C680.335 212.199 680.697 212.134 681.018 212.003C681.339 211.869 681.593 211.685 681.781 211.449C681.968 211.21 682.062 210.932 682.062 210.614C682.062 210.324 681.981 210.088 681.819 209.906C681.657 209.724 681.444 209.577 681.18 209.463C680.916 209.349 680.63 209.25 680.324 209.165L679.25 208.858C678.568 208.662 678.028 208.382 677.63 208.018C677.233 207.655 677.034 207.179 677.034 206.591C677.034 206.102 677.166 205.676 677.43 205.312C677.697 204.946 678.055 204.662 678.504 204.46C678.956 204.256 679.46 204.153 680.017 204.153C680.579 204.153 681.079 204.254 681.517 204.456C681.954 204.655 682.301 204.928 682.556 205.274C682.815 205.621 682.951 206.014 682.966 206.455H681.943ZM686.612 213.153C686.197 213.153 685.821 213.075 685.483 212.919C685.145 212.76 684.876 212.531 684.678 212.233C684.479 211.932 684.379 211.568 684.379 211.142C684.379 210.767 684.453 210.463 684.601 210.23C684.749 209.994 684.946 209.81 685.193 209.676C685.44 209.543 685.713 209.443 686.011 209.378C686.313 209.31 686.615 209.256 686.919 209.216C687.317 209.165 687.639 209.126 687.886 209.101C688.136 209.072 688.318 209.026 688.432 208.96C688.548 208.895 688.607 208.781 688.607 208.619V208.585C688.607 208.165 688.491 207.838 688.261 207.605C688.034 207.372 687.689 207.256 687.226 207.256C686.746 207.256 686.369 207.361 686.097 207.571C685.824 207.781 685.632 208.006 685.521 208.244L684.567 207.903C684.737 207.506 684.964 207.196 685.249 206.974C685.536 206.75 685.848 206.594 686.186 206.506C686.527 206.415 686.862 206.369 687.192 206.369C687.402 206.369 687.643 206.395 687.916 206.446C688.192 206.494 688.457 206.595 688.713 206.749C688.972 206.902 689.186 207.134 689.357 207.443C689.527 207.753 689.612 208.168 689.612 208.688V213H688.607V212.114H688.555C688.487 212.256 688.374 212.408 688.214 212.57C688.055 212.732 687.844 212.869 687.58 212.983C687.315 213.097 686.993 213.153 686.612 213.153ZM686.766 212.25C687.163 212.25 687.499 212.172 687.771 212.016C688.047 211.859 688.254 211.658 688.393 211.411C688.536 211.163 688.607 210.903 688.607 210.631V209.71C688.564 209.761 688.47 209.808 688.325 209.851C688.183 209.891 688.018 209.926 687.831 209.957C687.646 209.986 687.466 210.011 687.29 210.034C687.116 210.054 686.976 210.071 686.868 210.085C686.607 210.119 686.362 210.175 686.135 210.251C685.911 210.325 685.729 210.437 685.589 210.588C685.453 210.736 685.385 210.937 685.385 211.193C685.385 211.543 685.514 211.807 685.773 211.986C686.034 212.162 686.365 212.25 686.766 212.25ZM694.294 206.455V207.307H690.902V206.455H694.294ZM691.891 204.886H692.897V211.125C692.897 211.409 692.938 211.622 693.02 211.764C693.105 211.903 693.213 211.997 693.344 212.045C693.478 212.091 693.618 212.114 693.766 212.114C693.877 212.114 693.968 212.108 694.039 212.097C694.11 212.082 694.167 212.071 694.209 212.062L694.414 212.966C694.346 212.991 694.25 213.017 694.128 213.043C694.006 213.071 693.851 213.085 693.664 213.085C693.38 213.085 693.101 213.024 692.828 212.902C692.559 212.78 692.334 212.594 692.155 212.344C691.979 212.094 691.891 211.778 691.891 211.398V204.886Z" fill="#707070"/>
</g>
<path d="M71.75 50H69.0568V41.2727H71.8693C72.7159 41.2727 73.4403 41.4474 74.0426 41.7969C74.6449 42.1435 75.1065 42.642 75.4276 43.2926C75.7486 43.9403 75.9091 44.7159 75.9091 45.6193C75.9091 46.5284 75.7472 47.3111 75.4233 47.9673C75.0994 48.6207 74.6278 49.1236 74.0085 49.4759C73.3892 49.8253 72.6364 50 71.75 50ZM70.1136 49.0625H71.6818C72.4034 49.0625 73.0014 48.9233 73.4759 48.6449C73.9503 48.3665 74.304 47.9702 74.5369 47.456C74.7699 46.9418 74.8864 46.3295 74.8864 45.6193C74.8864 44.9148 74.7713 44.3082 74.5412 43.7997C74.3111 43.2884 73.9673 42.8963 73.5099 42.6236C73.0526 42.348 72.483 42.2102 71.8011 42.2102H70.1136V49.0625ZM80.2898 50.1364C79.6591 50.1364 79.1151 49.9972 78.6577 49.7188C78.2031 49.4375 77.8523 49.0455 77.6051 48.5426C77.3608 48.0369 77.2386 47.4489 77.2386 46.7784C77.2386 46.108 77.3608 45.517 77.6051 45.0057C77.8523 44.4915 78.196 44.0909 78.6364 43.804C79.0795 43.5142 79.5966 43.3693 80.1875 43.3693C80.5284 43.3693 80.8651 43.4261 81.1974 43.5398C81.5298 43.6534 81.8324 43.8381 82.1051 44.0938C82.3778 44.3466 82.5952 44.6818 82.7571 45.0994C82.919 45.517 83 46.0312 83 46.642V47.0682H77.9545V46.1989H81.9773C81.9773 45.8295 81.9034 45.5 81.7557 45.2102C81.6108 44.9205 81.4034 44.6918 81.1335 44.5241C80.8665 44.3565 80.5511 44.2727 80.1875 44.2727C79.7869 44.2727 79.4403 44.3722 79.1477 44.571C78.858 44.767 78.6349 45.0227 78.4787 45.3381C78.3224 45.6534 78.2443 45.9915 78.2443 46.3523V46.9318C78.2443 47.4261 78.3295 47.8452 78.5 48.1889C78.6733 48.5298 78.9134 48.7898 79.2202 48.9688C79.527 49.1449 79.8835 49.233 80.2898 49.233C80.554 49.233 80.7926 49.196 81.0057 49.1222C81.2216 49.0455 81.4077 48.9318 81.5639 48.7812C81.7202 48.6278 81.8409 48.4375 81.9261 48.2102L82.8977 48.483C82.7955 48.8125 82.6236 49.1023 82.3821 49.3523C82.1406 49.5994 81.8423 49.7926 81.4872 49.9318C81.1321 50.0682 80.733 50.1364 80.2898 50.1364ZM87.4446 43.4545V44.3068H83.9162V43.4545H87.4446ZM84.973 50V42.5511C84.973 42.1761 85.0611 41.8636 85.2372 41.6136C85.4134 41.3636 85.642 41.1761 85.9233 41.0511C86.2045 40.9261 86.5014 40.8636 86.8139 40.8636C87.0611 40.8636 87.2628 40.8835 87.419 40.9233C87.5753 40.9631 87.6918 41 87.7685 41.0341L87.4787 41.9034C87.4276 41.8864 87.3565 41.8651 87.2656 41.8395C87.1776 41.8139 87.0611 41.8011 86.9162 41.8011C86.5838 41.8011 86.3438 41.8849 86.196 42.0526C86.0511 42.2202 85.9787 42.4659 85.9787 42.7898V50H84.973ZM90.5927 50.1534C90.1779 50.1534 89.8015 50.0753 89.4634 49.919C89.1254 49.7599 88.8569 49.5312 88.658 49.233C88.4592 48.9318 88.3597 48.5682 88.3597 48.142C88.3597 47.767 88.4336 47.4631 88.5813 47.2301C88.729 46.9943 88.9265 46.8097 89.1737 46.6761C89.4208 46.5426 89.6935 46.4432 89.9918 46.3778C90.293 46.3097 90.5955 46.2557 90.8995 46.2159C91.2972 46.1648 91.6197 46.1264 91.8668 46.1009C92.1168 46.0724 92.2987 46.0256 92.4123 45.9602C92.5288 45.8949 92.587 45.7812 92.587 45.6193V45.5852C92.587 45.1648 92.4719 44.8381 92.2418 44.6051C92.0146 44.3722 91.6694 44.2557 91.2063 44.2557C90.7262 44.2557 90.3498 44.3608 90.0771 44.571C89.8043 44.7812 89.6126 45.0057 89.5018 45.2443L88.5472 44.9034C88.7177 44.5057 88.945 44.196 89.229 43.9744C89.516 43.75 89.8285 43.5937 90.1665 43.5057C90.5075 43.4148 90.8427 43.3693 91.1722 43.3693C91.3825 43.3693 91.6239 43.3949 91.8967 43.446C92.1722 43.4943 92.4379 43.5952 92.6935 43.7486C92.9521 43.902 93.1665 44.1335 93.337 44.4432C93.5075 44.7528 93.5927 45.1676 93.5927 45.6875V50H92.587V49.1136H92.5359C92.4677 49.2557 92.354 49.4077 92.195 49.5696C92.0359 49.7315 91.8242 49.8693 91.56 49.983C91.2958 50.0966 90.9734 50.1534 90.5927 50.1534ZM90.7461 49.25C91.1438 49.25 91.479 49.1719 91.7518 49.0156C92.0273 48.8594 92.2347 48.6577 92.3739 48.4105C92.516 48.1634 92.587 47.9034 92.587 47.6307V46.7102C92.5444 46.7614 92.4506 46.8082 92.3058 46.8509C92.1637 46.8906 91.9989 46.9261 91.8114 46.9574C91.6268 46.9858 91.4464 47.0114 91.2702 47.0341C91.0969 47.054 90.9563 47.071 90.8484 47.0852C90.587 47.1193 90.3427 47.1747 90.1154 47.2514C89.891 47.3253 89.7092 47.4375 89.57 47.5881C89.4336 47.7358 89.3654 47.9375 89.3654 48.1932C89.3654 48.5426 89.4947 48.8068 89.7532 48.9858C90.0146 49.1619 90.3455 49.25 90.7461 49.25ZM99.5533 47.3239V43.4545H100.559V50H99.5533V48.892H99.4851C99.3317 49.2244 99.093 49.5071 98.7692 49.7401C98.4453 49.9702 98.0362 50.0852 97.5419 50.0852C97.1328 50.0852 96.7692 49.9957 96.451 49.8168C96.1328 49.6349 95.8828 49.3622 95.701 48.9986C95.5192 48.6321 95.4283 48.1705 95.4283 47.6136V43.4545H96.4339V47.5455C96.4339 48.0227 96.5675 48.4034 96.8345 48.6875C97.1044 48.9716 97.4482 49.1136 97.8658 49.1136C98.1158 49.1136 98.37 49.0497 98.6286 48.9219C98.8899 48.794 99.1087 48.598 99.2848 48.3338C99.4638 48.0696 99.5533 47.733 99.5533 47.3239ZM103.407 41.2727V50H102.401V41.2727H103.407ZM108.095 43.4545V44.3068H104.703V43.4545H108.095ZM105.692 41.8864H106.697V48.125C106.697 48.4091 106.739 48.6222 106.821 48.7642C106.906 48.9034 107.014 48.9972 107.145 49.0455C107.278 49.0909 107.419 49.1136 107.567 49.1136C107.678 49.1136 107.768 49.108 107.839 49.0966C107.911 49.0824 107.967 49.071 108.01 49.0625L108.214 49.9659C108.146 49.9915 108.051 50.017 107.929 50.0426C107.807 50.071 107.652 50.0852 107.464 50.0852C107.18 50.0852 106.902 50.0241 106.629 49.902C106.359 49.7798 106.135 49.5938 105.956 49.3438C105.78 49.0938 105.692 48.7784 105.692 48.3977V41.8864Z" fill="black"/>
<path d="M417.415 50H416.307L419.511 41.2727H420.602L423.807 50H422.699L420.091 42.6534H420.023L417.415 50ZM417.824 46.5909H422.29V47.5284H417.824V46.5909ZM427.689 50.1364C427.075 50.1364 426.547 49.9915 426.104 49.7017C425.661 49.4119 425.32 49.0128 425.081 48.5043C424.842 47.9957 424.723 47.4148 424.723 46.7614C424.723 46.0966 424.845 45.5099 425.089 45.0014C425.337 44.4901 425.68 44.0909 426.121 43.804C426.564 43.5142 427.081 43.3693 427.672 43.3693C428.132 43.3693 428.547 43.4545 428.916 43.625C429.286 43.7955 429.588 44.0341 429.824 44.3409C430.06 44.6477 430.206 45.0057 430.263 45.4148H429.257C429.18 45.1165 429.01 44.8523 428.746 44.6222C428.484 44.3892 428.132 44.2727 427.689 44.2727C427.297 44.2727 426.953 44.375 426.658 44.5795C426.365 44.7812 426.136 45.0668 425.972 45.4361C425.81 45.8026 425.729 46.233 425.729 46.7273C425.729 47.233 425.808 47.6733 425.967 48.0483C426.129 48.4233 426.357 48.7145 426.649 48.9219C426.945 49.1293 427.291 49.233 427.689 49.233C427.95 49.233 428.188 49.1875 428.401 49.0966C428.614 49.0057 428.794 48.875 428.942 48.7045C429.089 48.5341 429.195 48.3295 429.257 48.0909H430.263C430.206 48.4773 430.065 48.8253 429.841 49.1349C429.619 49.4418 429.325 49.6861 428.959 49.8679C428.595 50.0469 428.172 50.1364 427.689 50.1364ZM434.58 43.4545V44.3068H431.188V43.4545H434.58ZM432.176 41.8864H433.182V48.125C433.182 48.4091 433.223 48.6222 433.305 48.7642C433.391 48.9034 433.499 48.9972 433.629 49.0455C433.763 49.0909 433.903 49.1136 434.051 49.1136C434.162 49.1136 434.253 49.108 434.324 49.0966C434.395 49.0824 434.452 49.071 434.494 49.0625L434.699 49.9659C434.631 49.9915 434.536 50.017 434.413 50.0426C434.291 50.071 434.136 50.0852 433.949 50.0852C433.665 50.0852 433.386 50.0241 433.114 49.902C432.844 49.7798 432.619 49.5938 432.44 49.3438C432.264 49.0938 432.176 48.7784 432.176 48.3977V41.8864ZM436.092 50V43.4545H437.098V50H436.092ZM436.604 42.3636C436.408 42.3636 436.239 42.2969 436.097 42.1634C435.957 42.0298 435.888 41.8693 435.888 41.6818C435.888 41.4943 435.957 41.3338 436.097 41.2003C436.239 41.0668 436.408 41 436.604 41C436.8 41 436.967 41.0668 437.107 41.2003C437.249 41.3338 437.32 41.4943 437.32 41.6818C437.32 41.8693 437.249 42.0298 437.107 42.1634C436.967 42.2969 436.8 42.3636 436.604 42.3636ZM444.292 43.4545L441.872 50H440.849L438.429 43.4545H439.52L441.326 48.6705H441.395L443.201 43.4545H444.292ZM448.13 50.1364C447.499 50.1364 446.955 49.9972 446.498 49.7188C446.043 49.4375 445.692 49.0455 445.445 48.5426C445.201 48.0369 445.078 47.4489 445.078 46.7784C445.078 46.108 445.201 45.517 445.445 45.0057C445.692 44.4915 446.036 44.0909 446.476 43.804C446.919 43.5142 447.436 43.3693 448.027 43.3693C448.368 43.3693 448.705 43.4261 449.037 43.5398C449.37 43.6534 449.672 43.8381 449.945 44.0938C450.218 44.3466 450.435 44.6818 450.597 45.0994C450.759 45.517 450.84 46.0312 450.84 46.642V47.0682H445.794V46.1989H449.817C449.817 45.8295 449.743 45.5 449.596 45.2102C449.451 44.9205 449.243 44.6918 448.973 44.5241C448.706 44.3565 448.391 44.2727 448.027 44.2727C447.627 44.2727 447.28 44.3722 446.988 44.571C446.698 44.767 446.475 45.0227 446.319 45.3381C446.162 45.6534 446.084 45.9915 446.084 46.3523V46.9318C446.084 47.4261 446.169 47.8452 446.34 48.1889C446.513 48.5298 446.753 48.7898 447.06 48.9688C447.367 49.1449 447.723 49.233 448.13 49.233C448.394 49.233 448.632 49.196 448.846 49.1222C449.061 49.0455 449.248 48.9318 449.404 48.7812C449.56 48.6278 449.681 48.4375 449.766 48.2102L450.738 48.483C450.635 48.8125 450.463 49.1023 450.222 49.3523C449.98 49.5994 449.682 49.7926 449.327 49.9318C448.972 50.0682 448.573 50.1364 448.13 50.1364Z" fill="black"/>
<defs>
<filter id="filter0_dd_915_38060" x="404" y="122" width="344" height="357" filterUnits="userSpaceOnUse" color-interpolation-filters="sRGB">
<feFlood flood-opacity="0" result="BackgroundImageFix"/>
<feColorMatrix in="SourceAlpha" type="matrix" values="0 0 0 0 0 0 0 0 0 0 0 0 0 0 0 0 0 0 127 0" result="hardAlpha"/>
<feMorphology radius="2" operator="erode" in="SourceAlpha" result="effect1_dropShadow_915_38060"/>
<feOffset dy="4"/>
<feGaussianBlur stdDeviation="3"/>
<feColorMatrix type="matrix" values="0 0 0 0 0.0627451 0 0 0 0 0.0941176 0 0 0 0 0.156863 0 0 0 0.03 0"/>
<feBlend mode="normal" in2="BackgroundImageFix" result="effect1_dropShadow_915_38060"/>
<feColorMatrix in="SourceAlpha" type="matrix" values="0 0 0 0 0 0 0 0 0 0 0 0 0 0 0 0 0 0 127 0" result="hardAlpha"/>
<feMorphology radius="4" operator="erode" in="SourceAlpha" result="effect2_dropShadow_915_38060"/>
<feOffset dy="12"/>
<feGaussianBlur stdDeviation="8"/>
<feColorMatrix type="matrix" values="0 0 0 0 0.0627451 0 0 0 0 0.0941176 0 0 0 0 0.156863 0 0 0 0.08 0"/>
<feBlend mode="normal" in2="effect1_dropShadow_915_38060" result="effect2_dropShadow_915_38060"/>
<feBlend mode="normal" in="SourceGraphic" in2="effect2_dropShadow_915_38060" result="shape"/>
</filter>
<clipPath id="clip0_915_38060">
<rect width="24" height="24" fill="white" transform="translate(628.5 149.5)"/>
</clipPath>
<clipPath id="clip1_915_38060">
<rect width="24" height="24" fill="white" transform="translate(652.5 165.5) rotate(180)"/>
</clipPath>
</defs>
</svg>
