<svg width="804" height="224" viewBox="0 0 804 224" fill="none" xmlns="http://www.w3.org/2000/svg">
<rect width="804" height="224" fill="#F9FAFB"/>
<rect x="237.5" y="124.5" width="23" height="23" rx="11.5" fill="white"/>
<rect x="237.5" y="124.5" width="23" height="23" rx="11.5" stroke="#D8DEE9"/>
<path d="M274.145 141V131.545H277.339C278.078 131.545 278.684 131.672 279.158 131.924C279.632 132.173 279.983 132.516 280.211 132.953C280.439 133.391 280.553 133.888 280.553 134.445C280.553 135.002 280.439 135.496 280.211 135.926C279.983 136.357 279.634 136.696 279.163 136.942C278.692 137.185 278.09 137.307 277.358 137.307H274.773V136.273H277.321C277.826 136.273 278.232 136.199 278.54 136.051C278.851 135.903 279.075 135.694 279.214 135.423C279.355 135.149 279.426 134.823 279.426 134.445C279.426 134.066 279.355 133.735 279.214 133.452C279.072 133.169 278.846 132.95 278.535 132.797C278.224 132.64 277.813 132.561 277.303 132.561H275.29V141H274.145ZM278.595 136.753L280.922 141H279.592L277.303 136.753H278.595ZM285.209 141.148C284.526 141.148 283.937 140.997 283.441 140.695C282.949 140.391 282.569 139.966 282.301 139.421C282.036 138.873 281.904 138.236 281.904 137.51C281.904 136.784 282.036 136.143 282.301 135.589C282.569 135.032 282.941 134.598 283.418 134.288C283.898 133.974 284.458 133.817 285.099 133.817C285.468 133.817 285.833 133.878 286.193 134.001C286.553 134.125 286.881 134.325 287.176 134.602C287.472 134.875 287.707 135.239 287.882 135.691C288.058 136.143 288.146 136.701 288.146 137.362V137.824H282.68V136.882H287.038C287.038 136.482 286.958 136.125 286.797 135.811C286.641 135.497 286.416 135.249 286.123 135.068C285.834 134.886 285.493 134.795 285.099 134.795C284.665 134.795 284.289 134.903 283.972 135.119C283.658 135.331 283.417 135.608 283.247 135.95C283.078 136.291 282.994 136.657 282.994 137.048V137.676C282.994 138.212 283.086 138.666 283.271 139.038C283.458 139.407 283.718 139.689 284.051 139.883C284.383 140.074 284.769 140.169 285.209 140.169C285.496 140.169 285.754 140.129 285.985 140.049C286.219 139.966 286.42 139.843 286.59 139.68C286.759 139.513 286.89 139.307 286.982 139.061L288.035 139.357C287.924 139.714 287.738 140.027 287.476 140.298C287.215 140.566 286.891 140.775 286.507 140.926C286.122 141.074 285.69 141.148 285.209 141.148ZM289.803 141V133.909H290.855V135.017H290.948C291.095 134.638 291.334 134.345 291.663 134.135C291.993 133.923 292.388 133.817 292.85 133.817C293.318 133.817 293.707 133.923 294.018 134.135C294.332 134.345 294.576 134.638 294.752 135.017H294.826C295.007 134.651 295.28 134.36 295.643 134.145C296.006 133.926 296.441 133.817 296.949 133.817C297.583 133.817 298.102 134.015 298.505 134.412C298.908 134.806 299.11 135.42 299.11 136.254V141H298.02V136.254C298.02 135.731 297.877 135.357 297.591 135.132C297.305 134.908 296.968 134.795 296.58 134.795C296.081 134.795 295.695 134.946 295.421 135.248C295.147 135.546 295.01 135.925 295.01 136.384V141H293.902V136.143C293.902 135.74 293.771 135.416 293.51 135.169C293.248 134.92 292.911 134.795 292.499 134.795C292.216 134.795 291.951 134.871 291.705 135.022C291.462 135.172 291.265 135.382 291.114 135.65C290.966 135.914 290.892 136.22 290.892 136.568V141H289.803ZM304.075 141.148C303.391 141.148 302.802 140.997 302.307 140.695C301.814 140.391 301.434 139.966 301.166 139.421C300.902 138.873 300.769 138.236 300.769 137.51C300.769 136.784 300.902 136.143 301.166 135.589C301.434 135.032 301.806 134.598 302.283 134.288C302.764 133.974 303.324 133.817 303.964 133.817C304.333 133.817 304.698 133.878 305.058 134.001C305.418 134.125 305.746 134.325 306.041 134.602C306.337 134.875 306.572 135.239 306.748 135.691C306.923 136.143 307.011 136.701 307.011 137.362V137.824H301.545V136.882H305.903C305.903 136.482 305.823 136.125 305.663 135.811C305.506 135.497 305.281 135.249 304.989 135.068C304.699 134.886 304.358 134.795 303.964 134.795C303.53 134.795 303.154 134.903 302.837 135.119C302.524 135.331 302.282 135.608 302.113 135.95C301.943 136.291 301.859 136.657 301.859 137.048V137.676C301.859 138.212 301.951 138.666 302.136 139.038C302.323 139.407 302.584 139.689 302.916 139.883C303.248 140.074 303.635 140.169 304.075 140.169C304.361 140.169 304.619 140.129 304.85 140.049C305.084 139.966 305.286 139.843 305.455 139.68C305.624 139.513 305.755 139.307 305.847 139.061L306.9 139.357C306.789 139.714 306.603 140.027 306.341 140.298C306.08 140.566 305.757 140.775 305.372 140.926C304.987 141.074 304.555 141.148 304.075 141.148ZM308.668 141V133.909H309.721V135.017H309.813C309.961 134.638 310.199 134.345 310.528 134.135C310.858 133.923 311.253 133.817 311.715 133.817C312.183 133.817 312.572 133.923 312.883 134.135C313.197 134.345 313.441 134.638 313.617 135.017H313.691C313.872 134.651 314.145 134.36 314.508 134.145C314.871 133.926 315.307 133.817 315.814 133.817C316.448 133.817 316.967 134.015 317.37 134.412C317.773 134.806 317.975 135.42 317.975 136.254V141H316.885V136.254C316.885 135.731 316.742 135.357 316.456 135.132C316.17 134.908 315.833 134.795 315.445 134.795C314.946 134.795 314.56 134.946 314.286 135.248C314.012 135.546 313.875 135.925 313.875 136.384V141H312.767V136.143C312.767 135.74 312.637 135.416 312.375 135.169C312.113 134.92 311.776 134.795 311.364 134.795C311.081 134.795 310.816 134.871 310.57 135.022C310.327 135.172 310.13 135.382 309.979 135.65C309.831 135.914 309.758 136.22 309.758 136.568V141H308.668ZM320.115 141V131.545H321.204V135.036H321.296C321.376 134.912 321.487 134.755 321.629 134.565C321.773 134.371 321.98 134.198 322.247 134.048C322.518 133.894 322.884 133.817 323.346 133.817C323.943 133.817 324.469 133.966 324.925 134.265C325.38 134.563 325.736 134.986 325.991 135.534C326.247 136.082 326.375 136.728 326.375 137.473C326.375 138.224 326.247 138.875 325.991 139.426C325.736 139.974 325.382 140.398 324.93 140.7C324.477 140.998 323.956 141.148 323.365 141.148C322.909 141.148 322.544 141.072 322.271 140.922C321.997 140.768 321.786 140.594 321.638 140.4C321.49 140.203 321.376 140.04 321.296 139.911H321.167V141H320.115ZM321.186 137.455C321.186 137.99 321.264 138.462 321.421 138.872C321.578 139.278 321.807 139.597 322.109 139.827C322.411 140.055 322.78 140.169 323.217 140.169C323.672 140.169 324.052 140.049 324.357 139.809C324.665 139.566 324.896 139.24 325.05 138.83C325.207 138.418 325.285 137.959 325.285 137.455C325.285 136.956 325.208 136.507 325.054 136.107C324.903 135.703 324.674 135.385 324.366 135.151C324.062 134.914 323.679 134.795 323.217 134.795C322.774 134.795 322.401 134.908 322.1 135.132C321.798 135.354 321.57 135.665 321.416 136.065C321.263 136.462 321.186 136.925 321.186 137.455ZM331.014 141.148C330.331 141.148 329.742 140.997 329.246 140.695C328.754 140.391 328.373 139.966 328.106 139.421C327.841 138.873 327.709 138.236 327.709 137.51C327.709 136.784 327.841 136.143 328.106 135.589C328.373 135.032 328.746 134.598 329.223 134.288C329.703 133.974 330.263 133.817 330.903 133.817C331.273 133.817 331.637 133.878 331.997 134.001C332.358 134.125 332.685 134.325 332.981 134.602C333.276 134.875 333.512 135.239 333.687 135.691C333.862 136.143 333.95 136.701 333.95 137.362V137.824H328.484V136.882H332.842C332.842 136.482 332.762 136.125 332.602 135.811C332.445 135.497 332.221 135.249 331.928 135.068C331.639 134.886 331.297 134.795 330.903 134.795C330.469 134.795 330.094 134.903 329.777 135.119C329.463 135.331 329.221 135.608 329.052 135.95C328.883 136.291 328.798 136.657 328.798 137.048V137.676C328.798 138.212 328.891 138.666 329.075 139.038C329.263 139.407 329.523 139.689 329.855 139.883C330.188 140.074 330.574 140.169 331.014 140.169C331.3 140.169 331.559 140.129 331.79 140.049C332.024 139.966 332.225 139.843 332.394 139.68C332.564 139.513 332.695 139.307 332.787 139.061L333.839 139.357C333.729 139.714 333.542 140.027 333.281 140.298C333.019 140.566 332.696 140.775 332.311 140.926C331.927 141.074 331.494 141.148 331.014 141.148ZM335.608 141V133.909H336.66V134.98H336.734C336.863 134.629 337.097 134.345 337.436 134.126C337.774 133.908 338.156 133.798 338.581 133.798C338.661 133.798 338.761 133.8 338.881 133.803C339.001 133.806 339.091 133.811 339.153 133.817V134.925C339.116 134.915 339.031 134.902 338.899 134.883C338.77 134.862 338.633 134.851 338.488 134.851C338.143 134.851 337.836 134.923 337.565 135.068C337.297 135.209 337.085 135.406 336.928 135.659C336.774 135.908 336.697 136.193 336.697 136.513V141H335.608ZM344.101 141V133.909H345.153V135.017H345.246C345.393 134.638 345.632 134.345 345.961 134.135C346.29 133.923 346.686 133.817 347.148 133.817C347.615 133.817 348.005 133.923 348.316 134.135C348.629 134.345 348.874 134.638 349.05 135.017H349.123C349.305 134.651 349.577 134.36 349.941 134.145C350.304 133.926 350.739 133.817 351.247 133.817C351.881 133.817 352.4 134.015 352.803 134.412C353.206 134.806 353.407 135.42 353.407 136.254V141H352.318V136.254C352.318 135.731 352.175 135.357 351.889 135.132C351.602 134.908 351.265 134.795 350.878 134.795C350.379 134.795 349.993 134.946 349.719 135.248C349.445 135.546 349.308 135.925 349.308 136.384V141H348.2V136.143C348.2 135.74 348.069 135.416 347.808 135.169C347.546 134.92 347.209 134.795 346.797 134.795C346.514 134.795 346.249 134.871 346.003 135.022C345.76 135.172 345.563 135.382 345.412 135.65C345.264 135.914 345.19 136.22 345.19 136.568V141H344.101ZM358.373 141.148C357.689 141.148 357.1 140.997 356.604 140.695C356.112 140.391 355.732 139.966 355.464 139.421C355.199 138.873 355.067 138.236 355.067 137.51C355.067 136.784 355.199 136.143 355.464 135.589C355.732 135.032 356.104 134.598 356.581 134.288C357.061 133.974 357.622 133.817 358.262 133.817C358.631 133.817 358.996 133.878 359.356 134.001C359.716 134.125 360.044 134.325 360.339 134.602C360.635 134.875 360.87 135.239 361.045 135.691C361.221 136.143 361.309 136.701 361.309 137.362V137.824H355.843V136.882H360.201C360.201 136.482 360.121 136.125 359.961 135.811C359.804 135.497 359.579 135.249 359.287 135.068C358.997 134.886 358.656 134.795 358.262 134.795C357.828 134.795 357.452 134.903 357.135 135.119C356.821 135.331 356.58 135.608 356.411 135.95C356.241 136.291 356.157 136.657 356.157 137.048V137.676C356.157 138.212 356.249 138.666 356.434 139.038C356.621 139.407 356.881 139.689 357.214 139.883C357.546 140.074 357.932 140.169 358.373 140.169C358.659 140.169 358.917 140.129 359.148 140.049C359.382 139.966 359.584 139.843 359.753 139.68C359.922 139.513 360.053 139.307 360.145 139.061L361.198 139.357C361.087 139.714 360.901 140.027 360.639 140.298C360.378 140.566 360.054 140.775 359.67 140.926C359.285 141.074 358.853 141.148 358.373 141.148Z" fill="#344054"/>
<g clip-path="url(#clip0_862_16510)">
<rect x="189" y="136" width="48" height="1" fill="#C54600"/>
<g clip-path="url(#clip1_862_16510)">
<rect x="189" y="124" width="24" height="24" rx="12" fill="#C54600"/>
<path d="M202.83 130.818V141H200.677V132.862H200.618L198.286 134.323V132.414L200.807 130.818H202.83Z" fill="white"/>
</g>
</g>
<g clip-path="url(#clip2_862_16510)">
<rect x="317.5" y="76" width="1" height="50" fill="#C54600"/>
<g clip-path="url(#clip3_862_16510)">
<rect x="305.5" y="76" width="24" height="24" rx="12" fill="#C54600"/>
<path d="M313.916 93V91.4489L317.54 88.093C317.849 87.7947 318.107 87.5263 318.316 87.2876C318.528 87.049 318.689 86.8153 318.798 86.5866C318.908 86.3546 318.962 86.1044 318.962 85.8359C318.962 85.5376 318.894 85.2808 318.758 85.0653C318.623 84.8466 318.437 84.6792 318.202 84.5632C317.966 84.4439 317.699 84.3842 317.401 84.3842C317.09 84.3842 316.818 84.4472 316.586 84.5732C316.354 84.6991 316.175 84.8797 316.049 85.1151C315.923 85.3504 315.86 85.6304 315.86 85.9553H313.817C313.817 85.2891 313.967 84.7107 314.269 84.2202C314.571 83.7296 314.993 83.3501 315.537 83.0817C316.08 82.8132 316.707 82.679 317.416 82.679C318.145 82.679 318.78 82.8082 319.32 83.0668C319.864 83.322 320.286 83.6766 320.588 84.1307C320.89 84.5848 321.04 85.1051 321.04 85.6918C321.04 86.0762 320.964 86.4557 320.812 86.8303C320.663 87.2048 320.396 87.6207 320.011 88.0781C319.627 88.5322 319.085 89.0774 318.386 89.7138L316.899 91.1705V91.2401H321.175V93H313.916Z" fill="white"/>
</g>
</g>
<rect x="490.5" y="124.5" width="23" height="23" rx="11.5" fill="#217CF5"/>
<circle cx="501.999" cy="136.003" r="4.8" fill="white"/>
<rect x="490.5" y="124.5" width="23" height="23" rx="11.5" stroke="#217CF5"/>
<path d="M527.145 141V131.545H530.339C531.078 131.545 531.684 131.672 532.158 131.924C532.632 132.173 532.983 132.516 533.211 132.953C533.439 133.391 533.553 133.888 533.553 134.445C533.553 135.002 533.439 135.496 533.211 135.926C532.983 136.357 532.634 136.696 532.163 136.942C531.692 137.185 531.09 137.307 530.358 137.307H527.773V136.273H530.321C530.826 136.273 531.232 136.199 531.54 136.051C531.851 135.903 532.075 135.694 532.214 135.423C532.355 135.149 532.426 134.823 532.426 134.445C532.426 134.066 532.355 133.735 532.214 133.452C532.072 133.169 531.846 132.95 531.535 132.797C531.224 132.64 530.813 132.561 530.303 132.561H528.29V141H527.145ZM531.595 136.753L533.922 141H532.592L530.303 136.753H531.595ZM538.209 141.148C537.526 141.148 536.937 140.997 536.441 140.695C535.949 140.391 535.569 139.966 535.301 139.421C535.036 138.873 534.904 138.236 534.904 137.51C534.904 136.784 535.036 136.143 535.301 135.589C535.569 135.032 535.941 134.598 536.418 134.288C536.898 133.974 537.458 133.817 538.099 133.817C538.468 133.817 538.833 133.878 539.193 134.001C539.553 134.125 539.881 134.325 540.176 134.602C540.472 134.875 540.707 135.239 540.882 135.691C541.058 136.143 541.146 136.701 541.146 137.362V137.824H535.68V136.882H540.038C540.038 136.482 539.958 136.125 539.797 135.811C539.641 135.497 539.416 135.249 539.123 135.068C538.834 134.886 538.493 134.795 538.099 134.795C537.665 134.795 537.289 134.903 536.972 135.119C536.658 135.331 536.417 135.608 536.247 135.95C536.078 136.291 535.994 136.657 535.994 137.048V137.676C535.994 138.212 536.086 138.666 536.271 139.038C536.458 139.407 536.718 139.689 537.051 139.883C537.383 140.074 537.769 140.169 538.209 140.169C538.496 140.169 538.754 140.129 538.985 140.049C539.219 139.966 539.42 139.843 539.59 139.68C539.759 139.513 539.89 139.307 539.982 139.061L541.035 139.357C540.924 139.714 540.738 140.027 540.476 140.298C540.215 140.566 539.891 140.775 539.507 140.926C539.122 141.074 538.69 141.148 538.209 141.148ZM542.803 141V133.909H543.855V135.017H543.948C544.095 134.638 544.334 134.345 544.663 134.135C544.993 133.923 545.388 133.817 545.85 133.817C546.318 133.817 546.707 133.923 547.018 134.135C547.332 134.345 547.576 134.638 547.752 135.017H547.826C548.007 134.651 548.28 134.36 548.643 134.145C549.006 133.926 549.441 133.817 549.949 133.817C550.583 133.817 551.102 134.015 551.505 134.412C551.908 134.806 552.11 135.42 552.11 136.254V141H551.02V136.254C551.02 135.731 550.877 135.357 550.591 135.132C550.305 134.908 549.968 134.795 549.58 134.795C549.081 134.795 548.695 134.946 548.421 135.248C548.147 135.546 548.01 135.925 548.01 136.384V141H546.902V136.143C546.902 135.74 546.771 135.416 546.51 135.169C546.248 134.92 545.911 134.795 545.499 134.795C545.216 134.795 544.951 134.871 544.705 135.022C544.462 135.172 544.265 135.382 544.114 135.65C543.966 135.914 543.892 136.22 543.892 136.568V141H542.803ZM557.075 141.148C556.391 141.148 555.802 140.997 555.307 140.695C554.814 140.391 554.434 139.966 554.166 139.421C553.902 138.873 553.769 138.236 553.769 137.51C553.769 136.784 553.902 136.143 554.166 135.589C554.434 135.032 554.806 134.598 555.283 134.288C555.764 133.974 556.324 133.817 556.964 133.817C557.333 133.817 557.698 133.878 558.058 134.001C558.418 134.125 558.746 134.325 559.041 134.602C559.337 134.875 559.572 135.239 559.748 135.691C559.923 136.143 560.011 136.701 560.011 137.362V137.824H554.545V136.882H558.903C558.903 136.482 558.823 136.125 558.663 135.811C558.506 135.497 558.281 135.249 557.989 135.068C557.699 134.886 557.358 134.795 556.964 134.795C556.53 134.795 556.154 134.903 555.837 135.119C555.524 135.331 555.282 135.608 555.113 135.95C554.943 136.291 554.859 136.657 554.859 137.048V137.676C554.859 138.212 554.951 138.666 555.136 139.038C555.323 139.407 555.584 139.689 555.916 139.883C556.248 140.074 556.635 140.169 557.075 140.169C557.361 140.169 557.619 140.129 557.85 140.049C558.084 139.966 558.286 139.843 558.455 139.68C558.624 139.513 558.755 139.307 558.847 139.061L559.9 139.357C559.789 139.714 559.603 140.027 559.341 140.298C559.08 140.566 558.757 140.775 558.372 140.926C557.987 141.074 557.555 141.148 557.075 141.148ZM561.668 141V133.909H562.721V135.017H562.813C562.961 134.638 563.199 134.345 563.528 134.135C563.858 133.923 564.253 133.817 564.715 133.817C565.183 133.817 565.572 133.923 565.883 134.135C566.197 134.345 566.441 134.638 566.617 135.017H566.691C566.872 134.651 567.145 134.36 567.508 134.145C567.871 133.926 568.307 133.817 568.814 133.817C569.448 133.817 569.967 134.015 570.37 134.412C570.773 134.806 570.975 135.42 570.975 136.254V141H569.885V136.254C569.885 135.731 569.742 135.357 569.456 135.132C569.17 134.908 568.833 134.795 568.445 134.795C567.946 134.795 567.56 134.946 567.286 135.248C567.012 135.546 566.875 135.925 566.875 136.384V141H565.767V136.143C565.767 135.74 565.637 135.416 565.375 135.169C565.113 134.92 564.776 134.795 564.364 134.795C564.081 134.795 563.816 134.871 563.57 135.022C563.327 135.172 563.13 135.382 562.979 135.65C562.831 135.914 562.758 136.22 562.758 136.568V141H561.668ZM573.115 141V131.545H574.204V135.036H574.296C574.376 134.912 574.487 134.755 574.629 134.565C574.773 134.371 574.98 134.198 575.247 134.048C575.518 133.894 575.884 133.817 576.346 133.817C576.943 133.817 577.469 133.966 577.925 134.265C578.38 134.563 578.736 134.986 578.991 135.534C579.247 136.082 579.375 136.728 579.375 137.473C579.375 138.224 579.247 138.875 578.991 139.426C578.736 139.974 578.382 140.398 577.93 140.7C577.477 140.998 576.956 141.148 576.365 141.148C575.909 141.148 575.544 141.072 575.271 140.922C574.997 140.768 574.786 140.594 574.638 140.4C574.49 140.203 574.376 140.04 574.296 139.911H574.167V141H573.115ZM574.186 137.455C574.186 137.99 574.264 138.462 574.421 138.872C574.578 139.278 574.807 139.597 575.109 139.827C575.411 140.055 575.78 140.169 576.217 140.169C576.672 140.169 577.052 140.049 577.357 139.809C577.665 139.566 577.896 139.24 578.05 138.83C578.207 138.418 578.285 137.959 578.285 137.455C578.285 136.956 578.208 136.507 578.054 136.107C577.903 135.703 577.674 135.385 577.366 135.151C577.062 134.914 576.679 134.795 576.217 134.795C575.774 134.795 575.401 134.908 575.1 135.132C574.798 135.354 574.57 135.665 574.416 136.065C574.263 136.462 574.186 136.925 574.186 137.455ZM584.014 141.148C583.331 141.148 582.742 140.997 582.246 140.695C581.754 140.391 581.373 139.966 581.106 139.421C580.841 138.873 580.709 138.236 580.709 137.51C580.709 136.784 580.841 136.143 581.106 135.589C581.373 135.032 581.746 134.598 582.223 134.288C582.703 133.974 583.263 133.817 583.903 133.817C584.273 133.817 584.637 133.878 584.997 134.001C585.358 134.125 585.685 134.325 585.981 134.602C586.276 134.875 586.512 135.239 586.687 135.691C586.862 136.143 586.95 136.701 586.95 137.362V137.824H581.484V136.882H585.842C585.842 136.482 585.762 136.125 585.602 135.811C585.445 135.497 585.221 135.249 584.928 135.068C584.639 134.886 584.297 134.795 583.903 134.795C583.469 134.795 583.094 134.903 582.777 135.119C582.463 135.331 582.221 135.608 582.052 135.95C581.883 136.291 581.798 136.657 581.798 137.048V137.676C581.798 138.212 581.891 138.666 582.075 139.038C582.263 139.407 582.523 139.689 582.855 139.883C583.188 140.074 583.574 140.169 584.014 140.169C584.3 140.169 584.559 140.129 584.79 140.049C585.024 139.966 585.225 139.843 585.394 139.68C585.564 139.513 585.695 139.307 585.787 139.061L586.839 139.357C586.729 139.714 586.542 140.027 586.281 140.298C586.019 140.566 585.696 140.775 585.311 140.926C584.927 141.074 584.494 141.148 584.014 141.148ZM588.608 141V133.909H589.66V134.98H589.734C589.863 134.629 590.097 134.345 590.436 134.126C590.774 133.908 591.156 133.798 591.581 133.798C591.661 133.798 591.761 133.8 591.881 133.803C592.001 133.806 592.091 133.811 592.153 133.817V134.925C592.116 134.915 592.031 134.902 591.899 134.883C591.77 134.862 591.633 134.851 591.488 134.851C591.143 134.851 590.836 134.923 590.565 135.068C590.297 135.209 590.085 135.406 589.928 135.659C589.774 135.908 589.697 136.193 589.697 136.513V141H588.608ZM597.101 141V133.909H598.153V135.017H598.246C598.393 134.638 598.632 134.345 598.961 134.135C599.29 133.923 599.686 133.817 600.148 133.817C600.615 133.817 601.005 133.923 601.316 134.135C601.629 134.345 601.874 134.638 602.05 135.017H602.123C602.305 134.651 602.577 134.36 602.941 134.145C603.304 133.926 603.739 133.817 604.247 133.817C604.881 133.817 605.4 134.015 605.803 134.412C606.206 134.806 606.407 135.42 606.407 136.254V141H605.318V136.254C605.318 135.731 605.175 135.357 604.889 135.132C604.602 134.908 604.265 134.795 603.878 134.795C603.379 134.795 602.993 134.946 602.719 135.248C602.445 135.546 602.308 135.925 602.308 136.384V141H601.2V136.143C601.2 135.74 601.069 135.416 600.808 135.169C600.546 134.92 600.209 134.795 599.797 134.795C599.514 134.795 599.249 134.871 599.003 135.022C598.76 135.172 598.563 135.382 598.412 135.65C598.264 135.914 598.19 136.22 598.19 136.568V141H597.101ZM611.373 141.148C610.689 141.148 610.1 140.997 609.604 140.695C609.112 140.391 608.732 139.966 608.464 139.421C608.199 138.873 608.067 138.236 608.067 137.51C608.067 136.784 608.199 136.143 608.464 135.589C608.732 135.032 609.104 134.598 609.581 134.288C610.061 133.974 610.622 133.817 611.262 133.817C611.631 133.817 611.996 133.878 612.356 134.001C612.716 134.125 613.044 134.325 613.339 134.602C613.635 134.875 613.87 135.239 614.045 135.691C614.221 136.143 614.309 136.701 614.309 137.362V137.824H608.843V136.882H613.201C613.201 136.482 613.121 136.125 612.961 135.811C612.804 135.497 612.579 135.249 612.287 135.068C611.997 134.886 611.656 134.795 611.262 134.795C610.828 134.795 610.452 134.903 610.135 135.119C609.821 135.331 609.58 135.608 609.411 135.95C609.241 136.291 609.157 136.657 609.157 137.048V137.676C609.157 138.212 609.249 138.666 609.434 139.038C609.621 139.407 609.881 139.689 610.214 139.883C610.546 140.074 610.932 140.169 611.373 140.169C611.659 140.169 611.917 140.129 612.148 140.049C612.382 139.966 612.584 139.843 612.753 139.68C612.922 139.513 613.053 139.307 613.145 139.061L614.198 139.357C614.087 139.714 613.901 140.027 613.639 140.298C613.378 140.566 613.054 140.775 612.67 140.926C612.285 141.074 611.853 141.148 611.373 141.148Z" fill="#344054"/>
<g clip-path="url(#clip4_862_16510)">
<rect x="442" y="136" width="48" height="1" fill="#C54600"/>
<g clip-path="url(#clip5_862_16510)">
<rect x="442" y="124" width="24" height="24" rx="12" fill="#C54600"/>
<path d="M455.83 130.818V141H453.677V132.862H453.618L451.286 134.323V132.414L453.807 130.818H455.83Z" fill="white"/>
</g>
</g>
<g clip-path="url(#clip6_862_16510)">
<rect x="570.5" y="76" width="1" height="50" fill="#C54600"/>
<g clip-path="url(#clip7_862_16510)">
<rect x="558.5" y="76" width="24" height="24" rx="12" fill="#C54600"/>
<path d="M566.916 93V91.4489L570.54 88.093C570.849 87.7947 571.107 87.5263 571.316 87.2876C571.528 87.049 571.689 86.8153 571.798 86.5866C571.908 86.3546 571.962 86.1044 571.962 85.8359C571.962 85.5376 571.894 85.2808 571.758 85.0653C571.623 84.8466 571.437 84.6792 571.202 84.5632C570.966 84.4439 570.699 84.3842 570.401 84.3842C570.09 84.3842 569.818 84.4472 569.586 84.5732C569.354 84.6991 569.175 84.8797 569.049 85.1151C568.923 85.3504 568.86 85.6304 568.86 85.9553H566.817C566.817 85.2891 566.967 84.7107 567.269 84.2202C567.571 83.7296 567.993 83.3501 568.537 83.0817C569.08 82.8132 569.707 82.679 570.416 82.679C571.145 82.679 571.78 82.8082 572.32 83.0668C572.864 83.322 573.286 83.6766 573.588 84.1307C573.89 84.5848 574.04 85.1051 574.04 85.6918C574.04 86.0762 573.964 86.4557 573.812 86.8303C573.663 87.2048 573.396 87.6207 573.011 88.0781C572.627 88.5322 572.085 89.0774 571.386 89.7138L569.899 91.1705V91.2401H574.175V93H566.916Z" fill="white"/>
</g>
</g>
<defs>
<clipPath id="clip0_862_16510">
<rect width="48" height="24" fill="white" transform="translate(189 124)"/>
</clipPath>
<clipPath id="clip1_862_16510">
<rect x="189" y="124" width="24" height="24" rx="12" fill="white"/>
</clipPath>
<clipPath id="clip2_862_16510">
<rect width="24" height="50" fill="white" transform="translate(305.5 76)"/>
</clipPath>
<clipPath id="clip3_862_16510">
<rect x="305.5" y="76" width="24" height="24" rx="12" fill="white"/>
</clipPath>
<clipPath id="clip4_862_16510">
<rect width="48" height="24" fill="white" transform="translate(442 124)"/>
</clipPath>
<clipPath id="clip5_862_16510">
<rect x="442" y="124" width="24" height="24" rx="12" fill="white"/>
</clipPath>
<clipPath id="clip6_862_16510">
<rect width="24" height="50" fill="white" transform="translate(558.5 76)"/>
</clipPath>
<clipPath id="clip7_862_16510">
<rect x="558.5" y="76" width="24" height="24" rx="12" fill="white"/>
</clipPath>
</defs>
</svg>
