<svg width="802" height="196" viewBox="0 0 802 196" fill="none" xmlns="http://www.w3.org/2000/svg">
<rect width="802" height="196" rx="8" fill="#4CA154" fill-opacity="0.1"/>
<path fill-rule="evenodd" clip-rule="evenodd" d="M255 76C249.477 76 245 80.4772 245 86C245 91.5228 249.477 96 255 96C260.523 96 265 91.5228 265 86C265 80.4772 260.523 76 255 76ZM255 91C257.761 91 260 88.7614 260 86C260 83.2386 257.761 81 255 81C252.239 81 250 83.2386 250 86C250 88.7614 252.239 91 255 91Z" fill="#217CF5"/>
<path d="M282.773 83.2727C282.705 82.697 282.428 82.25 281.943 81.9318C281.458 81.6136 280.864 81.4545 280.159 81.4545C279.644 81.4545 279.193 81.5379 278.807 81.7045C278.424 81.8712 278.125 82.1004 277.909 82.392C277.697 82.6837 277.591 83.0152 277.591 83.3864C277.591 83.697 277.665 83.964 277.812 84.1875C277.964 84.4072 278.157 84.5909 278.392 84.7386C278.627 84.8826 278.873 85.0019 279.131 85.0966C279.388 85.1875 279.625 85.2614 279.841 85.3182L281.023 85.6364C281.326 85.7159 281.663 85.8258 282.034 85.9659C282.409 86.1061 282.767 86.2973 283.108 86.5398C283.453 86.7784 283.737 87.0852 283.96 87.4602C284.184 87.8352 284.295 88.2955 284.295 88.8409C284.295 89.4697 284.131 90.0379 283.801 90.5455C283.475 91.053 282.998 91.4564 282.369 91.7557C281.744 92.0549 280.985 92.2045 280.091 92.2045C279.258 92.2045 278.536 92.0701 277.926 91.8011C277.32 91.5322 276.843 91.1572 276.494 90.6761C276.15 90.1951 275.955 89.6364 275.909 89H277.364C277.402 89.4394 277.549 89.803 277.807 90.0909C278.068 90.375 278.398 90.5871 278.795 90.7273C279.197 90.8636 279.629 90.9318 280.091 90.9318C280.629 90.9318 281.112 90.8447 281.54 90.6705C281.968 90.4924 282.307 90.2462 282.557 89.9318C282.807 89.6136 282.932 89.2424 282.932 88.8182C282.932 88.4318 282.824 88.1174 282.608 87.875C282.392 87.6326 282.108 87.4356 281.756 87.2841C281.403 87.1326 281.023 87 280.614 86.8864L279.182 86.4773C278.273 86.2159 277.553 85.8428 277.023 85.358C276.492 84.8731 276.227 84.2386 276.227 83.4545C276.227 82.803 276.403 82.2348 276.756 81.75C277.112 81.2614 277.589 80.8826 278.188 80.6136C278.79 80.3409 279.462 80.2045 280.205 80.2045C280.955 80.2045 281.621 80.339 282.205 80.608C282.788 80.8731 283.25 81.2367 283.591 81.6989C283.936 82.161 284.117 82.6856 284.136 83.2727H282.773ZM289.839 92.1818C288.999 92.1818 288.273 91.9962 287.663 91.625C287.057 91.25 286.589 90.7273 286.26 90.0568C285.934 89.3826 285.771 88.5985 285.771 87.7045C285.771 86.8106 285.934 86.0227 286.26 85.3409C286.589 84.6553 287.048 84.1212 287.635 83.7386C288.226 83.3523 288.915 83.1591 289.703 83.1591C290.158 83.1591 290.607 83.2348 291.05 83.3864C291.493 83.5379 291.896 83.7841 292.26 84.125C292.624 84.4621 292.913 84.9091 293.129 85.4659C293.345 86.0227 293.453 86.7083 293.453 87.5227V88.0909H286.726V86.9318H292.089C292.089 86.4394 291.991 86 291.794 85.6136C291.601 85.2273 291.324 84.9223 290.964 84.6989C290.608 84.4754 290.188 84.3636 289.703 84.3636C289.169 84.3636 288.707 84.4962 288.317 84.7614C287.93 85.0227 287.633 85.3636 287.425 85.7841C287.216 86.2045 287.112 86.6553 287.112 87.1364V87.9091C287.112 88.5682 287.226 89.1269 287.453 89.5852C287.684 90.0398 288.004 90.3864 288.413 90.625C288.822 90.8598 289.298 90.9773 289.839 90.9773C290.192 90.9773 290.51 90.928 290.794 90.8295C291.082 90.7273 291.33 90.5758 291.538 90.375C291.747 90.1705 291.908 89.9167 292.021 89.6136L293.317 89.9773C293.18 90.4167 292.951 90.803 292.629 91.1364C292.307 91.4659 291.91 91.7235 291.436 91.9091C290.963 92.0909 290.43 92.1818 289.839 92.1818ZM301.197 95.2727V90.6591H301.084C300.985 90.8182 300.845 91.0189 300.663 91.2614C300.482 91.5 300.222 91.714 299.885 91.9034C299.548 92.089 299.099 92.1818 298.538 92.1818C297.811 92.1818 297.169 91.9981 296.612 91.6307C296.055 91.2595 295.62 90.7367 295.305 90.0625C294.991 89.3845 294.834 88.5833 294.834 87.6591C294.834 86.7424 294.991 85.947 295.305 85.2727C295.62 84.5985 296.057 84.0777 296.618 83.7102C297.179 83.3428 297.826 83.1591 298.561 83.1591C299.129 83.1591 299.578 83.2538 299.908 83.4432C300.241 83.6288 300.495 83.8409 300.669 84.0795C300.847 84.3144 300.985 84.5076 301.084 84.6591H301.243V83.2727H302.538V95.2727H301.197ZM298.72 90.9773C299.258 90.9773 299.713 90.8371 300.084 90.5568C300.455 90.2727 300.737 89.8807 300.93 89.3807C301.124 88.8769 301.22 88.2955 301.22 87.6364C301.22 86.9848 301.125 86.4148 300.936 85.9261C300.747 85.4337 300.466 85.0511 300.095 84.7784C299.724 84.5019 299.266 84.3636 298.72 84.3636C298.152 84.3636 297.679 84.5095 297.3 84.8011C296.925 85.089 296.643 85.4811 296.453 85.9773C296.268 86.4697 296.175 87.0227 296.175 87.6364C296.175 88.2576 296.269 88.822 296.459 89.3295C296.652 89.8333 296.936 90.2348 297.311 90.5341C297.69 90.8295 298.16 90.9773 298.72 90.9773ZM310.243 88.4318V83.2727H311.584V92H310.243V90.5227H310.152C309.947 90.9659 309.629 91.3428 309.197 91.6534C308.766 91.9602 308.22 92.1136 307.561 92.1136C307.016 92.1136 306.531 91.9943 306.107 91.7557C305.682 91.5133 305.349 91.1496 305.107 90.6648C304.864 90.1761 304.743 89.5606 304.743 88.8182V83.2727H306.084V88.7273C306.084 89.3636 306.262 89.8712 306.618 90.25C306.978 90.6288 307.436 90.8182 307.993 90.8182C308.326 90.8182 308.665 90.733 309.01 90.5625C309.358 90.392 309.65 90.1307 309.885 89.7784C310.124 89.4261 310.243 88.9773 310.243 88.4318ZM313.79 92V83.2727H315.131V92H313.79ZM314.472 81.8182C314.21 81.8182 313.985 81.7292 313.795 81.5511C313.61 81.3731 313.517 81.1591 313.517 80.9091C313.517 80.6591 313.61 80.4451 313.795 80.267C313.985 80.089 314.21 80 314.472 80C314.733 80 314.956 80.089 315.142 80.267C315.331 80.4451 315.426 80.6591 315.426 80.9091C315.426 81.1591 315.331 81.3731 315.142 81.5511C314.956 81.7292 314.733 81.8182 314.472 81.8182ZM322.928 86.75V92H321.587V83.2727H322.882V84.6364H322.996C323.2 84.1932 323.511 83.8371 323.928 83.5682C324.344 83.2955 324.882 83.1591 325.541 83.1591C326.132 83.1591 326.649 83.2803 327.092 83.5227C327.536 83.7614 327.88 84.125 328.126 84.6136C328.373 85.0985 328.496 85.7121 328.496 86.4545V92H327.155V86.5455C327.155 85.8598 326.977 85.3258 326.621 84.9432C326.265 84.5568 325.776 84.3636 325.155 84.3636C324.727 84.3636 324.344 84.4564 324.007 84.642C323.674 84.8277 323.411 85.0985 323.217 85.4545C323.024 85.8106 322.928 86.2424 322.928 86.75ZM334.241 92.1818C333.454 92.1818 332.762 91.9943 332.168 91.6193C331.577 91.2443 331.115 90.7197 330.781 90.0455C330.452 89.3712 330.287 88.5833 330.287 87.6818C330.287 86.7727 330.452 85.9792 330.781 85.3011C331.115 84.6231 331.577 84.0966 332.168 83.7216C332.762 83.3466 333.454 83.1591 334.241 83.1591C335.029 83.1591 335.719 83.3466 336.31 83.7216C336.904 84.0966 337.366 84.6231 337.696 85.3011C338.029 85.9792 338.196 86.7727 338.196 87.6818C338.196 88.5833 338.029 89.3712 337.696 90.0455C337.366 90.7197 336.904 91.2443 336.31 91.6193C335.719 91.9943 335.029 92.1818 334.241 92.1818ZM334.241 90.9773C334.84 90.9773 335.332 90.8239 335.719 90.517C336.105 90.2102 336.391 89.8068 336.577 89.3068C336.762 88.8068 336.855 88.2652 336.855 87.6818C336.855 87.0985 336.762 86.5549 336.577 86.0511C336.391 85.5473 336.105 85.1402 335.719 84.8295C335.332 84.5189 334.84 84.3636 334.241 84.3636C333.643 84.3636 333.151 84.5189 332.764 84.8295C332.378 85.1402 332.092 85.5473 331.906 86.0511C331.721 86.5549 331.628 87.0985 331.628 87.6818C331.628 88.2652 331.721 88.8068 331.906 89.3068C332.092 89.8068 332.378 90.2102 332.764 90.517C333.151 90.8239 333.643 90.9773 334.241 90.9773ZM341.334 86.75V92H339.993V83.2727H341.288V84.6364H341.402C341.607 84.1932 341.917 83.8371 342.334 83.5682C342.75 83.2955 343.288 83.1591 343.947 83.1591C344.538 83.1591 345.055 83.2803 345.499 83.5227C345.942 83.7614 346.286 84.125 346.533 84.6136C346.779 85.0985 346.902 85.7121 346.902 86.4545V92H345.561V86.5455C345.561 85.8598 345.383 85.3258 345.027 84.9432C344.671 84.5568 344.182 84.3636 343.561 84.3636C343.133 84.3636 342.75 84.4564 342.413 84.642C342.08 84.8277 341.817 85.0985 341.624 85.4545C341.43 85.8106 341.334 86.2424 341.334 86.75ZM356.898 92.1818C356.11 92.1818 355.419 91.9943 354.824 91.6193C354.233 91.2443 353.771 90.7197 353.438 90.0455C353.108 89.3712 352.943 88.5833 352.943 87.6818C352.943 86.7727 353.108 85.9792 353.438 85.3011C353.771 84.6231 354.233 84.0966 354.824 83.7216C355.419 83.3466 356.11 83.1591 356.898 83.1591C357.686 83.1591 358.375 83.3466 358.966 83.7216C359.561 84.0966 360.023 84.6231 360.352 85.3011C360.686 85.9792 360.852 86.7727 360.852 87.6818C360.852 88.5833 360.686 89.3712 360.352 90.0455C360.023 90.7197 359.561 91.2443 358.966 91.6193C358.375 91.9943 357.686 92.1818 356.898 92.1818ZM356.898 90.9773C357.496 90.9773 357.989 90.8239 358.375 90.517C358.761 90.2102 359.047 89.8068 359.233 89.3068C359.419 88.8068 359.511 88.2652 359.511 87.6818C359.511 87.0985 359.419 86.5549 359.233 86.0511C359.047 85.5473 358.761 85.1402 358.375 84.8295C357.989 84.5189 357.496 84.3636 356.898 84.3636C356.299 84.3636 355.807 84.5189 355.42 84.8295C355.034 85.1402 354.748 85.5473 354.562 86.0511C354.377 86.5549 354.284 87.0985 354.284 87.6818C354.284 88.2652 354.377 88.8068 354.562 89.3068C354.748 89.8068 355.034 90.2102 355.42 90.517C355.807 90.8239 356.299 90.9773 356.898 90.9773ZM362.649 92V83.2727H363.945V84.6364H364.058C364.24 84.1705 364.534 83.8087 364.939 83.5511C365.344 83.2898 365.831 83.1591 366.399 83.1591C366.975 83.1591 367.454 83.2898 367.837 83.5511C368.223 83.8087 368.524 84.1705 368.74 84.6364H368.831C369.054 84.1856 369.39 83.8277 369.837 83.5625C370.284 83.2936 370.82 83.1591 371.445 83.1591C372.225 83.1591 372.863 83.4034 373.359 83.892C373.856 84.3769 374.104 85.1326 374.104 86.1591V92H372.763V86.1591C372.763 85.5152 372.587 85.0549 372.234 84.7784C371.882 84.5019 371.467 84.3636 370.99 84.3636C370.376 84.3636 369.901 84.5492 369.564 84.9205C369.227 85.2879 369.058 85.7538 369.058 86.3182V92H367.695V86.0227C367.695 85.5265 367.534 85.1269 367.212 84.8239C366.89 84.517 366.475 84.3636 365.967 84.3636C365.619 84.3636 365.293 84.4564 364.99 84.642C364.691 84.8277 364.448 85.0852 364.263 85.4148C364.081 85.7405 363.99 86.1174 363.99 86.5455V92H362.649ZM377.646 86.75V92H376.305V83.2727H377.601V84.6364H377.714C377.919 84.1932 378.23 83.8371 378.646 83.5682C379.063 83.2955 379.601 83.1591 380.26 83.1591C380.851 83.1591 381.368 83.2803 381.811 83.5227C382.254 83.7614 382.599 84.125 382.845 84.6136C383.091 85.0985 383.214 85.7121 383.214 86.4545V92H381.874V86.5455C381.874 85.8598 381.696 85.3258 381.339 84.9432C380.983 84.5568 380.495 84.3636 379.874 84.3636C379.446 84.3636 379.063 84.4564 378.726 84.642C378.393 84.8277 378.129 85.0985 377.936 85.4545C377.743 85.8106 377.646 86.2424 377.646 86.75ZM385.415 92V83.2727H386.756V92H385.415ZM386.097 81.8182C385.835 81.8182 385.61 81.7292 385.42 81.5511C385.235 81.3731 385.142 81.1591 385.142 80.9091C385.142 80.6591 385.235 80.4451 385.42 80.267C385.61 80.089 385.835 80 386.097 80C386.358 80 386.581 80.089 386.767 80.267C386.956 80.4451 387.051 80.6591 387.051 80.9091C387.051 81.1591 386.956 81.3731 386.767 81.5511C386.581 81.7292 386.358 81.8182 386.097 81.8182ZM395.143 85.2273L393.939 85.5682C393.863 85.3674 393.751 85.1723 393.604 84.983C393.46 84.7898 393.263 84.6307 393.013 84.5057C392.763 84.3807 392.443 84.3182 392.053 84.3182C391.518 84.3182 391.073 84.4413 390.717 84.6875C390.365 84.9299 390.189 85.2386 390.189 85.6136C390.189 85.947 390.31 86.2102 390.553 86.4034C390.795 86.5966 391.174 86.7576 391.689 86.8864L392.984 87.2045C393.765 87.3939 394.346 87.6837 394.729 88.0739C395.111 88.4602 395.303 88.9583 395.303 89.5682C395.303 90.0682 395.159 90.5152 394.871 90.9091C394.587 91.303 394.189 91.6136 393.678 91.8409C393.166 92.0682 392.571 92.1818 391.893 92.1818C391.003 92.1818 390.267 91.9886 389.683 91.6023C389.1 91.2159 388.731 90.6515 388.575 89.9091L389.848 89.5909C389.969 90.0606 390.198 90.4129 390.536 90.6477C390.876 90.8826 391.321 91 391.871 91C392.496 91 392.992 90.8674 393.359 90.6023C393.731 90.3333 393.916 90.0114 393.916 89.6364C393.916 89.3333 393.81 89.0795 393.598 88.875C393.386 88.6667 393.06 88.5114 392.621 88.4091L391.166 88.0682C390.367 87.8788 389.78 87.5852 389.405 87.1875C389.034 86.786 388.848 86.2841 388.848 85.6818C388.848 85.1894 388.986 84.7538 389.263 84.375C389.543 83.9962 389.924 83.6989 390.405 83.483C390.89 83.267 391.439 83.1591 392.053 83.1591C392.916 83.1591 393.594 83.3485 394.087 83.7273C394.583 84.1061 394.935 84.6061 395.143 85.2273ZM408.457 83.2727L405.23 92H403.866L400.639 83.2727H402.094L404.503 90.2273H404.594L407.003 83.2727H408.457ZM413.324 92.1818C412.483 92.1818 411.758 91.9962 411.148 91.625C410.542 91.25 410.074 90.7273 409.744 90.0568C409.419 89.3826 409.256 88.5985 409.256 87.7045C409.256 86.8106 409.419 86.0227 409.744 85.3409C410.074 84.6553 410.532 84.1212 411.119 83.7386C411.71 83.3523 412.4 83.1591 413.188 83.1591C413.642 83.1591 414.091 83.2348 414.534 83.3864C414.977 83.5379 415.381 83.7841 415.744 84.125C416.108 84.4621 416.398 84.9091 416.614 85.4659C416.83 86.0227 416.938 86.7083 416.938 87.5227V88.0909H410.21V86.9318H415.574C415.574 86.4394 415.475 86 415.278 85.6136C415.085 85.2273 414.809 84.9223 414.449 84.6989C414.093 84.4754 413.672 84.3636 413.188 84.3636C412.653 84.3636 412.191 84.4962 411.801 84.7614C411.415 85.0227 411.117 85.3636 410.909 85.7841C410.701 86.2045 410.597 86.6553 410.597 87.1364V87.9091C410.597 88.5682 410.71 89.1269 410.938 89.5852C411.169 90.0398 411.489 90.3864 411.898 90.625C412.307 90.8598 412.782 90.9773 413.324 90.9773C413.676 90.9773 413.994 90.928 414.278 90.8295C414.566 90.7273 414.814 90.5758 415.023 90.375C415.231 90.1705 415.392 89.9167 415.506 89.6136L416.801 89.9773C416.665 90.4167 416.436 90.803 416.114 91.1364C415.792 91.4659 415.394 91.7235 414.92 91.9091C414.447 92.0909 413.915 92.1818 413.324 92.1818ZM420.068 80.3636V92H418.727V80.3636H420.068ZM422.274 92V83.2727H423.615V92H422.274ZM422.956 81.8182C422.695 81.8182 422.469 81.7292 422.28 81.5511C422.094 81.3731 422.001 81.1591 422.001 80.9091C422.001 80.6591 422.094 80.4451 422.28 80.267C422.469 80.089 422.695 80 422.956 80C423.217 80 423.441 80.089 423.626 80.267C423.816 80.4451 423.911 80.6591 423.911 80.9091C423.911 81.1591 423.816 81.3731 423.626 81.5511C423.441 81.7292 423.217 81.8182 422.956 81.8182ZM429.616 83.2727V84.4091H425.094V83.2727H429.616ZM426.412 81.1818H427.753V89.5C427.753 89.8788 427.808 90.1629 427.918 90.3523C428.031 90.5379 428.175 90.6629 428.349 90.7273C428.527 90.7879 428.715 90.8182 428.912 90.8182C429.06 90.8182 429.181 90.8106 429.276 90.7955C429.37 90.7765 429.446 90.7614 429.503 90.75L429.776 91.9545C429.685 91.9886 429.558 92.0227 429.395 92.0568C429.232 92.0947 429.026 92.1136 428.776 92.1136C428.397 92.1136 428.026 92.0322 427.662 91.8693C427.302 91.7064 427.003 91.4583 426.764 91.125C426.529 90.7917 426.412 90.3712 426.412 89.8636V81.1818ZM436.974 86.75V92H435.634V83.2727H436.929V84.6364H437.043C437.247 84.1932 437.558 83.8371 437.974 83.5682C438.391 83.2955 438.929 83.1591 439.588 83.1591C440.179 83.1591 440.696 83.2803 441.139 83.5227C441.582 83.7614 441.927 84.125 442.173 84.6136C442.42 85.0985 442.543 85.7121 442.543 86.4545V92H441.202V86.5455C441.202 85.8598 441.024 85.3258 440.668 84.9432C440.312 84.5568 439.823 84.3636 439.202 84.3636C438.774 84.3636 438.391 84.4564 438.054 84.642C437.721 84.8277 437.457 85.0985 437.264 85.4545C437.071 85.8106 436.974 86.2424 436.974 86.75ZM448.288 92.1818C447.5 92.1818 446.809 91.9943 446.214 91.6193C445.624 91.2443 445.161 90.7197 444.828 90.0455C444.499 89.3712 444.334 88.5833 444.334 87.6818C444.334 86.7727 444.499 85.9792 444.828 85.3011C445.161 84.6231 445.624 84.0966 446.214 83.7216C446.809 83.3466 447.5 83.1591 448.288 83.1591C449.076 83.1591 449.766 83.3466 450.357 83.7216C450.951 84.0966 451.413 84.6231 451.743 85.3011C452.076 85.9792 452.243 86.7727 452.243 87.6818C452.243 88.5833 452.076 89.3712 451.743 90.0455C451.413 90.7197 450.951 91.2443 450.357 91.6193C449.766 91.9943 449.076 92.1818 448.288 92.1818ZM448.288 90.9773C448.887 90.9773 449.379 90.8239 449.766 90.517C450.152 90.2102 450.438 89.8068 450.624 89.3068C450.809 88.8068 450.902 88.2652 450.902 87.6818C450.902 87.0985 450.809 86.5549 450.624 86.0511C450.438 85.5473 450.152 85.1402 449.766 84.8295C449.379 84.5189 448.887 84.3636 448.288 84.3636C447.69 84.3636 447.197 84.5189 446.811 84.8295C446.425 85.1402 446.139 85.5473 445.953 86.0511C445.768 86.5549 445.675 87.0985 445.675 87.6818C445.675 88.2652 445.768 88.8068 445.953 89.3068C446.139 89.8068 446.425 90.2102 446.811 90.517C447.197 90.8239 447.69 90.9773 448.288 90.9773ZM455.381 86.75V92H454.04V83.2727H455.335V84.6364H455.449C455.653 84.1932 455.964 83.8371 456.381 83.5682C456.797 83.2955 457.335 83.1591 457.994 83.1591C458.585 83.1591 459.102 83.2803 459.545 83.5227C459.989 83.7614 460.333 84.125 460.58 84.6136C460.826 85.0985 460.949 85.7121 460.949 86.4545V92H459.608V86.5455C459.608 85.8598 459.43 85.3258 459.074 84.9432C458.718 84.5568 458.229 84.3636 457.608 84.3636C457.18 84.3636 456.797 84.4564 456.46 84.642C456.127 84.8277 455.864 85.0985 455.67 85.4545C455.477 85.8106 455.381 86.2424 455.381 86.75ZM471.058 92.1818C470.217 92.1818 469.492 91.9962 468.882 91.625C468.276 91.25 467.808 90.7273 467.479 90.0568C467.153 89.3826 466.99 88.5985 466.99 87.7045C466.99 86.8106 467.153 86.0227 467.479 85.3409C467.808 84.6553 468.267 84.1212 468.854 83.7386C469.445 83.3523 470.134 83.1591 470.922 83.1591C471.376 83.1591 471.825 83.2348 472.268 83.3864C472.712 83.5379 473.115 83.7841 473.479 84.125C473.842 84.4621 474.132 84.9091 474.348 85.4659C474.564 86.0227 474.672 86.7083 474.672 87.5227V88.0909H467.945V86.9318H473.308C473.308 86.4394 473.21 86 473.013 85.6136C472.82 85.2273 472.543 84.9223 472.183 84.6989C471.827 84.4754 471.407 84.3636 470.922 84.3636C470.388 84.3636 469.926 84.4962 469.536 84.7614C469.149 85.0227 468.852 85.3636 468.643 85.7841C468.435 86.2045 468.331 86.6553 468.331 87.1364V87.9091C468.331 88.5682 468.445 89.1269 468.672 89.5852C468.903 90.0398 469.223 90.3864 469.632 90.625C470.041 90.8598 470.517 90.9773 471.058 90.9773C471.411 90.9773 471.729 90.928 472.013 90.8295C472.301 90.7273 472.549 90.5758 472.757 90.375C472.965 90.1705 473.126 89.9167 473.24 89.6136L474.536 89.9773C474.399 90.4167 474.17 90.803 473.848 91.1364C473.526 91.4659 473.128 91.7235 472.655 91.9091C472.181 92.0909 471.649 92.1818 471.058 92.1818ZM482.643 85.2273L481.439 85.5682C481.363 85.3674 481.251 85.1723 481.104 84.983C480.96 84.7898 480.763 84.6307 480.513 84.5057C480.263 84.3807 479.943 84.3182 479.553 84.3182C479.018 84.3182 478.573 84.4413 478.217 84.6875C477.865 84.9299 477.689 85.2386 477.689 85.6136C477.689 85.947 477.81 86.2102 478.053 86.4034C478.295 86.5966 478.674 86.7576 479.189 86.8864L480.484 87.2045C481.265 87.3939 481.846 87.6837 482.229 88.0739C482.611 88.4602 482.803 88.9583 482.803 89.5682C482.803 90.0682 482.659 90.5152 482.371 90.9091C482.087 91.303 481.689 91.6136 481.178 91.8409C480.666 92.0682 480.071 92.1818 479.393 92.1818C478.503 92.1818 477.767 91.9886 477.183 91.6023C476.6 91.2159 476.231 90.6515 476.075 89.9091L477.348 89.5909C477.469 90.0606 477.698 90.4129 478.036 90.6477C478.376 90.8826 478.821 91 479.371 91C479.996 91 480.492 90.8674 480.859 90.6023C481.231 90.3333 481.416 90.0114 481.416 89.6364C481.416 89.3333 481.31 89.0795 481.098 88.875C480.886 88.6667 480.56 88.5114 480.121 88.4091L478.666 88.0682C477.867 87.8788 477.28 87.5852 476.905 87.1875C476.534 86.786 476.348 86.2841 476.348 85.6818C476.348 85.1894 476.486 84.7538 476.763 84.375C477.043 83.9962 477.424 83.6989 477.905 83.483C478.39 83.267 478.939 83.1591 479.553 83.1591C480.416 83.1591 481.094 83.3485 481.587 83.7273C482.083 84.1061 482.435 84.6061 482.643 85.2273ZM488.366 83.2727V84.4091H483.844V83.2727H488.366ZM485.162 81.1818H486.503V89.5C486.503 89.8788 486.558 90.1629 486.668 90.3523C486.781 90.5379 486.925 90.6629 487.099 90.7273C487.277 90.7879 487.465 90.8182 487.662 90.8182C487.81 90.8182 487.931 90.8106 488.026 90.7955C488.12 90.7765 488.196 90.7614 488.253 90.75L488.526 91.9545C488.435 91.9886 488.308 92.0227 488.145 92.0568C487.982 92.0947 487.776 92.1136 487.526 92.1136C487.147 92.1136 486.776 92.0322 486.412 91.8693C486.052 91.7064 485.753 91.4583 485.514 91.125C485.279 90.7917 485.162 90.3712 485.162 89.8636V81.1818ZM494.384 95.2727V83.2727H495.679V84.6591H495.838C495.937 84.5076 496.073 84.3144 496.247 84.0795C496.425 83.8409 496.679 83.6288 497.009 83.4432C497.342 83.2538 497.793 83.1591 498.361 83.1591C499.096 83.1591 499.743 83.3428 500.304 83.7102C500.865 84.0777 501.302 84.5985 501.616 85.2727C501.931 85.947 502.088 86.7424 502.088 87.6591C502.088 88.5833 501.931 89.3845 501.616 90.0625C501.302 90.7367 500.866 91.2595 500.31 91.6307C499.753 91.9981 499.111 92.1818 498.384 92.1818C497.823 92.1818 497.374 92.089 497.037 91.9034C496.7 91.714 496.44 91.5 496.259 91.2614C496.077 91.0189 495.937 90.8182 495.838 90.6591H495.724V95.2727H494.384ZM495.702 87.6364C495.702 88.2955 495.798 88.8769 495.991 89.3807C496.185 89.8807 496.467 90.2727 496.838 90.5568C497.209 90.8371 497.664 90.9773 498.202 90.9773C498.762 90.9773 499.23 90.8295 499.605 90.5341C499.984 90.2348 500.268 89.8333 500.457 89.3295C500.651 88.822 500.747 88.2576 500.747 87.6364C500.747 87.0227 500.652 86.4697 500.463 85.9773C500.277 85.4811 499.995 85.089 499.616 84.8011C499.241 84.5095 498.77 84.3636 498.202 84.3636C497.656 84.3636 497.198 84.5019 496.827 84.7784C496.455 85.0511 496.175 85.4337 495.986 85.9261C495.796 86.4148 495.702 86.9848 495.702 87.6364ZM507.429 92.1818C506.641 92.1818 505.95 91.9943 505.355 91.6193C504.764 91.2443 504.302 90.7197 503.969 90.0455C503.639 89.3712 503.474 88.5833 503.474 87.6818C503.474 86.7727 503.639 85.9792 503.969 85.3011C504.302 84.6231 504.764 84.0966 505.355 83.7216C505.95 83.3466 506.641 83.1591 507.429 83.1591C508.217 83.1591 508.906 83.3466 509.497 83.7216C510.092 84.0966 510.554 84.6231 510.884 85.3011C511.217 85.9792 511.384 86.7727 511.384 87.6818C511.384 88.5833 511.217 89.3712 510.884 90.0455C510.554 90.7197 510.092 91.2443 509.497 91.6193C508.906 91.9943 508.217 92.1818 507.429 92.1818ZM507.429 90.9773C508.027 90.9773 508.52 90.8239 508.906 90.517C509.293 90.2102 509.579 89.8068 509.764 89.3068C509.95 88.8068 510.043 88.2652 510.043 87.6818C510.043 87.0985 509.95 86.5549 509.764 86.0511C509.579 85.5473 509.293 85.1402 508.906 84.8295C508.52 84.5189 508.027 84.3636 507.429 84.3636C506.83 84.3636 506.338 84.5189 505.952 84.8295C505.565 85.1402 505.279 85.5473 505.094 86.0511C504.908 86.5549 504.815 87.0985 504.815 87.6818C504.815 88.2652 504.908 88.8068 505.094 89.3068C505.279 89.8068 505.565 90.2102 505.952 90.517C506.338 90.8239 506.83 90.9773 507.429 90.9773ZM513.18 92V83.2727H514.476V84.5909H514.567C514.726 84.1591 515.014 83.8087 515.43 83.5398C515.847 83.2708 516.317 83.1364 516.839 83.1364C516.938 83.1364 517.061 83.1383 517.209 83.142C517.357 83.1458 517.468 83.1515 517.544 83.1591V84.5227C517.499 84.5114 517.394 84.4943 517.232 84.4716C517.072 84.4451 516.904 84.4318 516.726 84.4318C516.302 84.4318 515.923 84.5208 515.589 84.6989C515.26 84.8731 514.999 85.1155 514.805 85.4261C514.616 85.733 514.521 86.0833 514.521 86.4773V92H513.18ZM518.884 92V83.2727H520.179V84.5909H520.27C520.429 84.1591 520.717 83.8087 521.134 83.5398C521.55 83.2708 522.02 83.1364 522.543 83.1364C522.641 83.1364 522.764 83.1383 522.912 83.142C523.06 83.1458 523.171 83.1515 523.247 83.1591V84.5227C523.202 84.5114 523.098 84.4943 522.935 84.4716C522.776 84.4451 522.607 84.4318 522.429 84.4318C522.005 84.4318 521.626 84.5208 521.293 84.6989C520.963 84.8731 520.702 85.1155 520.509 85.4261C520.319 85.733 520.224 86.0833 520.224 86.4773V92H518.884ZM527.866 92.1818C527.079 92.1818 526.387 91.9943 525.793 91.6193C525.202 91.2443 524.74 90.7197 524.406 90.0455C524.077 89.3712 523.912 88.5833 523.912 87.6818C523.912 86.7727 524.077 85.9792 524.406 85.3011C524.74 84.6231 525.202 84.0966 525.793 83.7216C526.387 83.3466 527.079 83.1591 527.866 83.1591C528.654 83.1591 529.344 83.3466 529.935 83.7216C530.529 84.0966 530.991 84.6231 531.321 85.3011C531.654 85.9792 531.821 86.7727 531.821 87.6818C531.821 88.5833 531.654 89.3712 531.321 90.0455C530.991 90.7197 530.529 91.2443 529.935 91.6193C529.344 91.9943 528.654 92.1818 527.866 92.1818ZM527.866 90.9773C528.465 90.9773 528.957 90.8239 529.344 90.517C529.73 90.2102 530.016 89.8068 530.202 89.3068C530.387 88.8068 530.48 88.2652 530.48 87.6818C530.48 87.0985 530.387 86.5549 530.202 86.0511C530.016 85.5473 529.73 85.1402 529.344 84.8295C528.957 84.5189 528.465 84.3636 527.866 84.3636C527.268 84.3636 526.776 84.5189 526.389 84.8295C526.003 85.1402 525.717 85.5473 525.531 86.0511C525.346 86.5549 525.253 87.0985 525.253 87.6818C525.253 88.2652 525.346 88.8068 525.531 89.3068C525.717 89.8068 526.003 90.2102 526.389 90.517C526.776 90.8239 527.268 90.9773 527.866 90.9773ZM279.886 116.182C279.045 116.182 278.32 115.996 277.71 115.625C277.104 115.25 276.636 114.727 276.307 114.057C275.981 113.383 275.818 112.598 275.818 111.705C275.818 110.811 275.981 110.023 276.307 109.341C276.636 108.655 277.095 108.121 277.682 107.739C278.273 107.352 278.962 107.159 279.75 107.159C280.205 107.159 280.653 107.235 281.097 107.386C281.54 107.538 281.943 107.784 282.307 108.125C282.67 108.462 282.96 108.909 283.176 109.466C283.392 110.023 283.5 110.708 283.5 111.523V112.091H276.773V110.932H282.136C282.136 110.439 282.038 110 281.841 109.614C281.648 109.227 281.371 108.922 281.011 108.699C280.655 108.475 280.235 108.364 279.75 108.364C279.216 108.364 278.754 108.496 278.364 108.761C277.977 109.023 277.68 109.364 277.472 109.784C277.263 110.205 277.159 110.655 277.159 111.136V111.909C277.159 112.568 277.273 113.127 277.5 113.585C277.731 114.04 278.051 114.386 278.46 114.625C278.869 114.86 279.345 114.977 279.886 114.977C280.239 114.977 280.557 114.928 280.841 114.83C281.129 114.727 281.377 114.576 281.585 114.375C281.794 114.17 281.955 113.917 282.068 113.614L283.364 113.977C283.227 114.417 282.998 114.803 282.676 115.136C282.354 115.466 281.956 115.723 281.483 115.909C281.009 116.091 280.477 116.182 279.886 116.182ZM285.29 116V107.273H286.585V108.591H286.676C286.835 108.159 287.123 107.809 287.54 107.54C287.956 107.271 288.426 107.136 288.949 107.136C289.047 107.136 289.17 107.138 289.318 107.142C289.466 107.146 289.578 107.152 289.653 107.159V108.523C289.608 108.511 289.504 108.494 289.341 108.472C289.182 108.445 289.013 108.432 288.835 108.432C288.411 108.432 288.032 108.521 287.699 108.699C287.369 108.873 287.108 109.116 286.915 109.426C286.725 109.733 286.631 110.083 286.631 110.477V116H285.29ZM290.993 116V107.273H292.288V108.591H292.379C292.538 108.159 292.826 107.809 293.243 107.54C293.66 107.271 294.129 107.136 294.652 107.136C294.75 107.136 294.874 107.138 295.021 107.142C295.169 107.146 295.281 107.152 295.357 107.159V108.523C295.311 108.511 295.207 108.494 295.044 108.472C294.885 108.445 294.716 108.432 294.538 108.432C294.114 108.432 293.735 108.521 293.402 108.699C293.072 108.873 292.811 109.116 292.618 109.426C292.429 109.733 292.334 110.083 292.334 110.477V116H290.993ZM299.976 116.182C299.188 116.182 298.497 115.994 297.902 115.619C297.311 115.244 296.849 114.72 296.516 114.045C296.186 113.371 296.021 112.583 296.021 111.682C296.021 110.773 296.186 109.979 296.516 109.301C296.849 108.623 297.311 108.097 297.902 107.722C298.497 107.347 299.188 107.159 299.976 107.159C300.764 107.159 301.453 107.347 302.044 107.722C302.639 108.097 303.101 108.623 303.43 109.301C303.764 109.979 303.93 110.773 303.93 111.682C303.93 112.583 303.764 113.371 303.43 114.045C303.101 114.72 302.639 115.244 302.044 115.619C301.453 115.994 300.764 116.182 299.976 116.182ZM299.976 114.977C300.574 114.977 301.067 114.824 301.453 114.517C301.839 114.21 302.125 113.807 302.311 113.307C302.497 112.807 302.589 112.265 302.589 111.682C302.589 111.098 302.497 110.555 302.311 110.051C302.125 109.547 301.839 109.14 301.453 108.83C301.067 108.519 300.574 108.364 299.976 108.364C299.377 108.364 298.885 108.519 298.499 108.83C298.112 109.14 297.826 109.547 297.641 110.051C297.455 110.555 297.362 111.098 297.362 111.682C297.362 112.265 297.455 112.807 297.641 113.307C297.826 113.807 298.112 114.21 298.499 114.517C298.885 114.824 299.377 114.977 299.976 114.977ZM305.727 116V107.273H307.023V108.591H307.114C307.273 108.159 307.561 107.809 307.977 107.54C308.394 107.271 308.864 107.136 309.386 107.136C309.485 107.136 309.608 107.138 309.756 107.142C309.903 107.146 310.015 107.152 310.091 107.159V108.523C310.045 108.511 309.941 108.494 309.778 108.472C309.619 108.445 309.451 108.432 309.273 108.432C308.848 108.432 308.47 108.521 308.136 108.699C307.807 108.873 307.545 109.116 307.352 109.426C307.163 109.733 307.068 110.083 307.068 110.477V116H305.727ZM311.408 116.091C311.127 116.091 310.887 115.991 310.686 115.79C310.485 115.589 310.385 115.348 310.385 115.068C310.385 114.788 310.485 114.547 310.686 114.347C310.887 114.146 311.127 114.045 311.408 114.045C311.688 114.045 311.929 114.146 312.129 114.347C312.33 114.547 312.43 114.788 312.43 115.068C312.43 115.254 312.383 115.424 312.288 115.58C312.197 115.735 312.074 115.86 311.919 115.955C311.768 116.045 311.597 116.091 311.408 116.091Z" fill="#121826"/>
<path d="M32.2483 164.248L26 170.498L23.7517 168.248L23.7517 168.248C23.5523 168.049 23.2819 167.937 23 167.937C22.7181 167.937 22.4477 168.049 22.2483 168.248C22.0489 168.448 21.9369 168.718 21.9369 169C21.9369 169.282 22.0489 169.552 22.2483 169.752L25.2483 172.752C25.347 172.85 25.4641 172.929 25.5931 172.982C25.7221 173.036 25.8604 173.063 26 173.063C26.1396 173.063 26.2779 173.036 26.4069 172.982C26.5359 172.929 26.653 172.85 26.7517 172.752L33.7517 165.752C33.8504 165.653 33.9287 165.536 33.9821 165.407C34.0356 165.278 34.0631 165.14 34.0631 165C34.0631 164.86 34.0356 164.722 33.9821 164.593C33.9287 164.464 33.8504 164.347 33.7517 164.248C33.653 164.15 33.5358 164.071 33.4068 164.018C33.2778 163.964 33.1396 163.937 33 163.937C32.8604 163.937 32.7222 163.964 32.5932 164.018C32.4642 164.071 32.347 164.15 32.2483 164.248L32.2925 164.292L32.2483 164.248ZM20.8123 157.243C22.9399 155.821 25.4412 155.063 28 155.062C31.4301 155.066 34.7187 156.43 37.1442 158.856C39.5697 161.281 40.9339 164.57 40.9375 168C40.9375 170.559 40.1787 173.06 38.7571 175.188C37.3356 177.315 35.315 178.973 32.951 179.953C30.587 180.932 27.9857 181.188 25.476 180.689C22.9664 180.19 20.6612 178.958 18.8518 177.148C17.0425 175.339 15.8103 173.034 15.3111 170.524C14.8119 168.014 15.0681 165.413 16.0473 163.049C17.0265 160.685 18.6848 158.664 20.8123 157.243Z" fill="#4CA154" stroke="#4CA154" stroke-width="0.125"/>
<line x1="244" y1="62" x2="558" y2="62" stroke="#4CA154" stroke-width="2" stroke-linecap="round"/>
<rect x="0.5" y="0.5" width="801" height="195" rx="7.5" stroke="#4CA154" stroke-opacity="0.1"/>
</svg>
