<svg width="390" height="196" viewBox="0 0 390 196" fill="none" xmlns="http://www.w3.org/2000/svg">
<rect width="390" height="196" rx="8" fill="#4CA154" fill-opacity="0.1"/>
<path d="M32.2483 164.248L26 170.498L23.7517 168.248L23.7517 168.248C23.5523 168.049 23.2819 167.937 23 167.937C22.7181 167.937 22.4477 168.049 22.2483 168.248C22.0489 168.448 21.9369 168.718 21.9369 169C21.9369 169.282 22.0489 169.552 22.2483 169.752L25.2483 172.752C25.347 172.85 25.4641 172.929 25.5931 172.982C25.7221 173.036 25.8604 173.063 26 173.063C26.1396 173.063 26.2779 173.036 26.4069 172.982C26.5359 172.929 26.653 172.85 26.7517 172.752L33.7517 165.752C33.8504 165.653 33.9287 165.536 33.9821 165.407C34.0356 165.278 34.0631 165.14 34.0631 165C34.0631 164.86 34.0356 164.722 33.9821 164.593C33.9287 164.464 33.8504 164.347 33.7517 164.248C33.653 164.15 33.5358 164.071 33.4068 164.018C33.2778 163.964 33.1396 163.937 33 163.937C32.8604 163.937 32.7222 163.964 32.5932 164.018C32.4642 164.071 32.347 164.15 32.2483 164.248L32.2925 164.292L32.2483 164.248ZM20.8123 157.243C22.9399 155.821 25.4412 155.063 28 155.062C31.4301 155.066 34.7187 156.43 37.1442 158.856C39.5697 161.281 40.9339 164.57 40.9375 168C40.9375 170.559 40.1787 173.06 38.7571 175.188C37.3356 177.315 35.315 178.973 32.951 179.953C30.587 180.932 27.9857 181.188 25.476 180.689C22.9664 180.19 20.6612 178.958 18.8518 177.148C17.0425 175.339 15.8103 173.034 15.3111 170.524C14.8119 168.014 15.0681 165.413 16.0473 163.049C17.0265 160.685 18.6848 158.664 20.8123 157.243Z" fill="#4CA154" stroke="#4CA154" stroke-width="0.125"/>
<path fill-rule="evenodd" clip-rule="evenodd" d="M49 88C43.4772 88 39 92.4772 39 98C39 103.523 43.4772 108 49 108C54.5228 108 59 103.523 59 98C59 92.4772 54.5228 88 49 88ZM49 103C51.7614 103 54 100.761 54 98C54 95.2386 51.7614 93 49 93C46.2386 93 44 95.2386 44 98C44 100.761 46.2386 103 49 103Z" fill="#217CF5"/>
<path d="M71.8182 92.3636V104H70.4091V92.3636H71.8182ZM81.0298 104.205C80.4768 104.205 79.9749 104.1 79.5241 103.892C79.0734 103.68 78.7154 103.375 78.4503 102.977C78.1851 102.576 78.0526 102.091 78.0526 101.523C78.0526 101.023 78.151 100.617 78.348 100.307C78.545 99.9924 78.8082 99.7462 79.1378 99.5682C79.4673 99.3902 79.831 99.2576 80.2287 99.1705C80.6302 99.0795 81.0336 99.0076 81.4389 98.9545C81.9692 98.8864 82.3991 98.8352 82.7287 98.8011C83.062 98.7633 83.3045 98.7008 83.456 98.6136C83.6113 98.5265 83.6889 98.375 83.6889 98.1591V98.1136C83.6889 97.553 83.5355 97.1174 83.2287 96.8068C82.9257 96.4962 82.4654 96.3409 81.848 96.3409C81.2079 96.3409 80.706 96.4811 80.3423 96.7614C79.9787 97.0417 79.723 97.3409 79.5753 97.6591L78.3026 97.2045C78.5298 96.6742 78.8329 96.2614 79.2116 95.9659C79.5942 95.6667 80.0109 95.4583 80.4616 95.3409C80.9162 95.2197 81.3632 95.1591 81.8026 95.1591C82.0829 95.1591 82.4048 95.1932 82.7685 95.2614C83.1359 95.3258 83.4901 95.4602 83.831 95.6648C84.1757 95.8693 84.4616 96.178 84.6889 96.5909C84.9162 97.0038 85.0298 97.5568 85.0298 98.25V104H83.6889V102.818H83.6207C83.5298 103.008 83.3783 103.21 83.1662 103.426C82.9541 103.642 82.6719 103.826 82.3196 103.977C81.9673 104.129 81.5374 104.205 81.0298 104.205ZM81.2344 103C81.7647 103 82.2116 102.896 82.5753 102.688C82.9427 102.479 83.2192 102.21 83.4048 101.881C83.5942 101.551 83.6889 101.205 83.6889 100.841V99.6136C83.6321 99.6818 83.5071 99.7443 83.3139 99.8011C83.1245 99.8542 82.9048 99.9015 82.6548 99.9432C82.4086 99.9811 82.1681 100.015 81.9332 100.045C81.7022 100.072 81.5147 100.095 81.3707 100.114C81.0223 100.159 80.6965 100.233 80.3935 100.335C80.0942 100.434 79.8518 100.583 79.6662 100.784C79.4844 100.981 79.3935 101.25 79.3935 101.591C79.3935 102.057 79.5658 102.409 79.9105 102.648C80.259 102.883 80.7003 103 81.2344 103ZM90.75 107.455C90.1023 107.455 89.5455 107.371 89.0795 107.205C88.6136 107.042 88.2254 106.826 87.9148 106.557C87.608 106.292 87.3636 106.008 87.1818 105.705L88.25 104.955C88.3712 105.114 88.5246 105.295 88.7102 105.5C88.8958 105.708 89.1496 105.888 89.4716 106.04C89.7973 106.195 90.2235 106.273 90.75 106.273C91.4545 106.273 92.036 106.102 92.4943 105.761C92.9527 105.42 93.1818 104.886 93.1818 104.159V102.386H93.0682C92.9697 102.545 92.8295 102.742 92.6477 102.977C92.4697 103.208 92.2121 103.415 91.875 103.597C91.5417 103.775 91.0909 103.864 90.5227 103.864C89.8182 103.864 89.1856 103.697 88.625 103.364C88.0682 103.03 87.6269 102.545 87.3011 101.909C86.9792 101.273 86.8182 100.5 86.8182 99.5909C86.8182 98.697 86.9754 97.9186 87.2898 97.2557C87.6042 96.589 88.0417 96.0739 88.6023 95.7102C89.1629 95.3428 89.8106 95.1591 90.5455 95.1591C91.1136 95.1591 91.5644 95.2538 91.8977 95.4432C92.2348 95.6288 92.4924 95.8409 92.6705 96.0795C92.8523 96.3144 92.9924 96.5076 93.0909 96.6591H93.2273V95.2727H94.5227V104.25C94.5227 105 94.3523 105.61 94.0114 106.08C93.6742 106.553 93.2197 106.9 92.6477 107.119C92.0795 107.343 91.447 107.455 90.75 107.455ZM90.7045 102.659C91.2424 102.659 91.697 102.536 92.0682 102.29C92.4394 102.044 92.7216 101.689 92.9148 101.227C93.108 100.765 93.2045 100.212 93.2045 99.5682C93.2045 98.9394 93.1098 98.3845 92.9205 97.9034C92.7311 97.4223 92.4508 97.0455 92.0795 96.7727C91.7083 96.5 91.25 96.3636 90.7045 96.3636C90.1364 96.3636 89.6629 96.5076 89.2841 96.7955C88.9091 97.0833 88.6269 97.4697 88.4375 97.9545C88.2519 98.4394 88.1591 98.9773 88.1591 99.5682C88.1591 100.174 88.2538 100.71 88.4432 101.176C88.6364 101.638 88.9205 102.002 89.2955 102.267C89.6742 102.528 90.1439 102.659 90.7045 102.659ZM96.7273 104V95.2727H98.0227V96.5909H98.1136C98.2727 96.1591 98.5606 95.8087 98.9773 95.5398C99.3939 95.2708 99.8636 95.1364 100.386 95.1364C100.485 95.1364 100.608 95.1383 100.756 95.142C100.903 95.1458 101.015 95.1515 101.091 95.1591V96.5227C101.045 96.5114 100.941 96.4943 100.778 96.4716C100.619 96.4451 100.451 96.4318 100.273 96.4318C99.8485 96.4318 99.4697 96.5208 99.1364 96.6989C98.8068 96.8731 98.5455 97.1155 98.3523 97.4261C98.1629 97.733 98.0682 98.0833 98.0682 98.4773V104H96.7273ZM105.824 104.182C104.983 104.182 104.258 103.996 103.648 103.625C103.042 103.25 102.574 102.727 102.244 102.057C101.919 101.383 101.756 100.598 101.756 99.7045C101.756 98.8106 101.919 98.0227 102.244 97.3409C102.574 96.6553 103.032 96.1212 103.619 95.7386C104.21 95.3523 104.9 95.1591 105.688 95.1591C106.142 95.1591 106.591 95.2348 107.034 95.3864C107.477 95.5379 107.881 95.7841 108.244 96.125C108.608 96.4621 108.898 96.9091 109.114 97.4659C109.33 98.0227 109.438 98.7083 109.438 99.5227V100.091H102.71V98.9318H108.074C108.074 98.4394 107.975 98 107.778 97.6136C107.585 97.2273 107.309 96.9223 106.949 96.6989C106.593 96.4754 106.172 96.3636 105.688 96.3636C105.153 96.3636 104.691 96.4962 104.301 96.7614C103.915 97.0227 103.617 97.3636 103.409 97.7841C103.201 98.2045 103.097 98.6553 103.097 99.1364V99.9091C103.097 100.568 103.21 101.127 103.438 101.585C103.669 102.04 103.989 102.386 104.398 102.625C104.807 102.86 105.282 102.977 105.824 102.977C106.176 102.977 106.494 102.928 106.778 102.83C107.066 102.727 107.314 102.576 107.523 102.375C107.731 102.17 107.892 101.917 108.006 101.614L109.301 101.977C109.165 102.417 108.936 102.803 108.614 103.136C108.292 103.466 107.894 103.723 107.42 103.909C106.947 104.091 106.415 104.182 105.824 104.182ZM114.886 104.182C114.045 104.182 113.32 103.996 112.71 103.625C112.104 103.25 111.636 102.727 111.307 102.057C110.981 101.383 110.818 100.598 110.818 99.7045C110.818 98.8106 110.981 98.0227 111.307 97.3409C111.636 96.6553 112.095 96.1212 112.682 95.7386C113.273 95.3523 113.962 95.1591 114.75 95.1591C115.205 95.1591 115.653 95.2348 116.097 95.3864C116.54 95.5379 116.943 95.7841 117.307 96.125C117.67 96.4621 117.96 96.9091 118.176 97.4659C118.392 98.0227 118.5 98.7083 118.5 99.5227V100.091H111.773V98.9318H117.136C117.136 98.4394 117.038 98 116.841 97.6136C116.648 97.2273 116.371 96.9223 116.011 96.6989C115.655 96.4754 115.235 96.3636 114.75 96.3636C114.216 96.3636 113.754 96.4962 113.364 96.7614C112.977 97.0227 112.68 97.3636 112.472 97.7841C112.263 98.2045 112.159 98.6553 112.159 99.1364V99.9091C112.159 100.568 112.273 101.127 112.5 101.585C112.731 102.04 113.051 102.386 113.46 102.625C113.869 102.86 114.345 102.977 114.886 102.977C115.239 102.977 115.557 102.928 115.841 102.83C116.129 102.727 116.377 102.576 116.585 102.375C116.794 102.17 116.955 101.917 117.068 101.614L118.364 101.977C118.227 102.417 117.998 102.803 117.676 103.136C117.354 103.466 116.956 103.723 116.483 103.909C116.009 104.091 115.477 104.182 114.886 104.182ZM126.517 104L123.858 95.2727H125.267L127.153 101.955H127.244L129.108 95.2727H130.54L132.381 101.932H132.472L134.358 95.2727H135.767L133.108 104H131.79L129.881 97.2955H129.744L127.835 104H126.517ZM137.29 104V95.2727H138.631V104H137.29ZM137.972 93.8182C137.71 93.8182 137.485 93.7292 137.295 93.5511C137.11 93.3731 137.017 93.1591 137.017 92.9091C137.017 92.6591 137.11 92.4451 137.295 92.267C137.485 92.089 137.71 92 137.972 92C138.233 92 138.456 92.089 138.642 92.267C138.831 92.4451 138.926 92.6591 138.926 92.9091C138.926 93.1591 138.831 93.3731 138.642 93.5511C138.456 93.7292 138.233 93.8182 137.972 93.8182ZM144.632 95.2727V96.4091H140.109V95.2727H144.632ZM141.428 93.1818H142.768V101.5C142.768 101.879 142.823 102.163 142.933 102.352C143.047 102.538 143.191 102.663 143.365 102.727C143.543 102.788 143.731 102.818 143.928 102.818C144.075 102.818 144.196 102.811 144.291 102.795C144.386 102.777 144.462 102.761 144.518 102.75L144.791 103.955C144.7 103.989 144.573 104.023 144.411 104.057C144.248 104.095 144.041 104.114 143.791 104.114C143.412 104.114 143.041 104.032 142.678 103.869C142.318 103.706 142.018 103.458 141.78 103.125C141.545 102.792 141.428 102.371 141.428 101.864V93.1818ZM147.928 98.75V104H146.587V92.3636H147.928V96.6364H148.041C148.246 96.1856 148.553 95.8277 148.962 95.5625C149.375 95.2936 149.924 95.1591 150.609 95.1591C151.204 95.1591 151.725 95.2784 152.172 95.517C152.619 95.7519 152.965 96.1136 153.212 96.6023C153.462 97.0871 153.587 97.7045 153.587 98.4545V104H152.246V98.5455C152.246 97.8523 152.066 97.3163 151.706 96.9375C151.35 96.5549 150.856 96.3636 150.223 96.3636C149.784 96.3636 149.39 96.4564 149.041 96.642C148.696 96.8277 148.424 97.0985 148.223 97.4545C148.026 97.8106 147.928 98.2424 147.928 98.75Z" fill="#121826"/>
<path d="M159.449 94.1307V92.3636H168.733V94.1307H165.136V104H163.045V94.1307H159.449ZM172.78 104.17C171.905 104.17 171.149 103.989 170.513 103.625C169.88 103.258 169.393 102.739 169.053 102.068C168.712 101.394 168.541 100.6 168.541 99.6875C168.541 98.7898 168.712 98.0019 169.053 97.3239C169.397 96.642 169.878 96.1117 170.496 95.733C171.113 95.3504 171.839 95.1591 172.672 95.1591C173.21 95.1591 173.717 95.2462 174.195 95.4205C174.676 95.5909 175.1 95.8561 175.467 96.2159C175.839 96.5758 176.13 97.0341 176.342 97.5909C176.554 98.1439 176.661 98.803 176.661 99.5682V100.199H169.507V98.8125H174.689C174.685 98.4186 174.6 98.0682 174.433 97.7614C174.267 97.4508 174.034 97.2064 173.734 97.0284C173.439 96.8504 173.094 96.7614 172.7 96.7614C172.28 96.7614 171.911 96.8636 171.592 97.0682C171.274 97.2689 171.026 97.5341 170.848 97.8636C170.674 98.1894 170.585 98.5473 170.581 98.9375V100.148C170.581 100.655 170.674 101.091 170.859 101.455C171.045 101.814 171.304 102.091 171.638 102.284C171.971 102.473 172.361 102.568 172.808 102.568C173.107 102.568 173.378 102.527 173.621 102.443C173.863 102.356 174.073 102.229 174.251 102.062C174.429 101.896 174.564 101.689 174.655 101.443L176.575 101.659C176.454 102.167 176.223 102.61 175.882 102.989C175.545 103.364 175.113 103.655 174.587 103.864C174.06 104.068 173.458 104.17 172.78 104.17ZM178.151 104V95.2727H180.145V96.7273H180.236C180.395 96.2235 180.668 95.8352 181.054 95.5625C181.444 95.286 181.889 95.1477 182.389 95.1477C182.503 95.1477 182.63 95.1534 182.77 95.1648C182.914 95.1723 183.033 95.1856 183.128 95.2045V97.0966C183.041 97.0663 182.902 97.0398 182.713 97.017C182.527 96.9905 182.348 96.9773 182.173 96.9773C181.798 96.9773 181.461 97.0587 181.162 97.2216C180.866 97.3807 180.634 97.6023 180.463 97.8864C180.293 98.1705 180.207 98.4981 180.207 98.8693V104H178.151ZM184.244 104V95.2727H186.21V96.7557H186.312C186.494 96.2557 186.795 95.8655 187.216 95.5852C187.636 95.3011 188.138 95.1591 188.722 95.1591C189.312 95.1591 189.811 95.303 190.216 95.5909C190.625 95.875 190.913 96.2633 191.08 96.7557H191.17C191.364 96.2708 191.689 95.8845 192.148 95.5966C192.61 95.3049 193.157 95.1591 193.79 95.1591C194.593 95.1591 195.248 95.4129 195.756 95.9205C196.263 96.428 196.517 97.1686 196.517 98.142V104H194.455V98.4602C194.455 97.9186 194.311 97.5227 194.023 97.2727C193.735 97.0189 193.383 96.892 192.966 96.892C192.47 96.892 192.081 97.0473 191.801 97.358C191.525 97.6648 191.386 98.0644 191.386 98.5568V104H189.369V98.375C189.369 97.9242 189.233 97.5644 188.96 97.2955C188.691 97.0265 188.339 96.892 187.903 96.892C187.608 96.892 187.339 96.9678 187.097 97.1193C186.854 97.267 186.661 97.4773 186.517 97.75C186.373 98.0189 186.301 98.3333 186.301 98.6932V104H184.244ZM205.251 97.5795L203.376 97.7841C203.323 97.5947 203.231 97.4167 203.098 97.25C202.969 97.0833 202.795 96.9489 202.575 96.8466C202.356 96.7443 202.087 96.6932 201.768 96.6932C201.34 96.6932 200.981 96.786 200.689 96.9716C200.401 97.1572 200.259 97.3977 200.263 97.6932C200.259 97.947 200.352 98.1534 200.541 98.3125C200.734 98.4716 201.053 98.6023 201.496 98.7045L202.984 99.0227C203.81 99.2008 204.424 99.483 204.825 99.8693C205.231 100.256 205.435 100.761 205.439 101.386C205.435 101.936 205.274 102.42 204.956 102.841C204.642 103.258 204.204 103.583 203.643 103.818C203.083 104.053 202.439 104.17 201.712 104.17C200.643 104.17 199.784 103.947 199.132 103.5C198.481 103.049 198.092 102.422 197.967 101.619L199.973 101.426C200.064 101.82 200.257 102.117 200.553 102.318C200.848 102.519 201.232 102.619 201.706 102.619C202.195 102.619 202.587 102.519 202.882 102.318C203.181 102.117 203.331 101.869 203.331 101.574C203.331 101.324 203.234 101.117 203.041 100.955C202.852 100.792 202.556 100.667 202.155 100.58L200.666 100.267C199.829 100.093 199.21 99.7992 198.808 99.3864C198.407 98.9697 198.208 98.4432 198.212 97.8068C198.208 97.2689 198.354 96.803 198.649 96.4091C198.948 96.0114 199.363 95.7045 199.893 95.4886C200.428 95.2689 201.043 95.1591 201.74 95.1591C202.763 95.1591 203.568 95.3769 204.155 95.8125C204.746 96.2481 205.111 96.8371 205.251 97.5795ZM214.081 104.17C213.286 104.17 212.602 104.027 212.03 103.739C211.458 103.451 211.017 103.062 210.706 102.574C210.399 102.081 210.246 101.527 210.246 100.909C210.246 100.443 210.34 100.03 210.53 99.6705C210.723 99.3106 210.988 98.9773 211.325 98.6705C211.666 98.3636 212.06 98.0587 212.507 97.7557L214.57 96.3523C214.873 96.1553 215.102 95.947 215.257 95.7273C215.416 95.5076 215.496 95.25 215.496 94.9545C215.496 94.7045 215.39 94.4678 215.178 94.2443C214.969 94.0208 214.681 93.9091 214.314 93.9091C214.068 93.9091 213.85 93.9678 213.661 94.0852C213.475 94.1989 213.329 94.3485 213.223 94.5341C213.121 94.7197 213.07 94.9167 213.07 95.125C213.07 95.3788 213.14 95.6364 213.28 95.8977C213.424 96.1591 213.609 96.4299 213.837 96.7102C214.068 96.9905 214.314 97.2879 214.575 97.6023L220.036 104H217.808L213.274 98.8068C212.937 98.4129 212.611 98.0246 212.297 97.642C211.986 97.2595 211.731 96.8617 211.53 96.4489C211.333 96.0322 211.234 95.5814 211.234 95.0966C211.234 94.5473 211.361 94.0568 211.615 93.625C211.869 93.1894 212.223 92.8466 212.678 92.5966C213.136 92.3466 213.672 92.2216 214.286 92.2216C214.899 92.2216 215.426 92.3428 215.865 92.5852C216.304 92.8277 216.643 93.1496 216.882 93.5511C217.121 93.9527 217.24 94.3902 217.24 94.8636C217.24 95.4129 217.104 95.9053 216.831 96.3409C216.558 96.7727 216.179 97.1648 215.695 97.517L213.342 99.2386C212.956 99.5189 212.679 99.803 212.513 100.091C212.346 100.375 212.263 100.617 212.263 100.818C212.263 101.125 212.34 101.403 212.496 101.653C212.651 101.903 212.869 102.104 213.149 102.256C213.433 102.403 213.765 102.477 214.143 102.477C214.56 102.477 214.971 102.384 215.376 102.199C215.782 102.009 216.151 101.741 216.484 101.392C216.818 101.044 217.083 100.627 217.28 100.142C217.477 99.6534 217.575 99.1117 217.575 98.517H219.342C219.342 99.2519 219.261 99.892 219.098 100.438C218.935 100.979 218.725 101.438 218.467 101.812C218.21 102.184 217.937 102.481 217.649 102.705C217.558 102.769 217.471 102.833 217.388 102.898C217.304 102.962 217.217 103.027 217.126 103.091C216.717 103.462 216.238 103.735 215.689 103.909C215.143 104.083 214.607 104.17 214.081 104.17ZM234.733 96.2898H232.608C232.547 95.9413 232.436 95.6326 232.273 95.3636C232.11 95.0909 231.907 94.8598 231.665 94.6705C231.422 94.4811 231.146 94.339 230.835 94.2443C230.528 94.1458 230.197 94.0966 229.841 94.0966C229.208 94.0966 228.648 94.2557 228.159 94.5739C227.67 94.8883 227.288 95.3504 227.011 95.9602C226.735 96.5663 226.597 97.3068 226.597 98.1818C226.597 99.072 226.735 99.822 227.011 100.432C227.292 101.038 227.674 101.496 228.159 101.807C228.648 102.114 229.206 102.267 229.835 102.267C230.184 102.267 230.509 102.222 230.812 102.131C231.119 102.036 231.394 101.898 231.636 101.716C231.883 101.534 232.089 101.311 232.256 101.045C232.426 100.78 232.544 100.477 232.608 100.136L234.733 100.148C234.653 100.701 234.481 101.22 234.216 101.705C233.955 102.189 233.612 102.617 233.188 102.989C232.763 103.356 232.267 103.644 231.699 103.852C231.131 104.057 230.5 104.159 229.807 104.159C228.784 104.159 227.871 103.922 227.068 103.449C226.265 102.975 225.633 102.292 225.17 101.398C224.708 100.504 224.477 99.4318 224.477 98.1818C224.477 96.928 224.71 95.8561 225.176 94.9659C225.642 94.072 226.277 93.3883 227.08 92.9148C227.883 92.4413 228.792 92.2045 229.807 92.2045C230.455 92.2045 231.057 92.2955 231.614 92.4773C232.17 92.6591 232.667 92.9261 233.102 93.2784C233.538 93.6269 233.896 94.0549 234.176 94.5625C234.46 95.0663 234.646 95.642 234.733 96.2898ZM240.129 104.17C239.277 104.17 238.538 103.983 237.913 103.608C237.288 103.233 236.804 102.708 236.459 102.034C236.118 101.36 235.947 100.572 235.947 99.6705C235.947 98.7689 236.118 97.9792 236.459 97.3011C236.804 96.6231 237.288 96.0966 237.913 95.7216C238.538 95.3466 239.277 95.1591 240.129 95.1591C240.982 95.1591 241.72 95.3466 242.345 95.7216C242.97 96.0966 243.453 96.6231 243.794 97.3011C244.139 97.9792 244.311 98.7689 244.311 99.6705C244.311 100.572 244.139 101.36 243.794 102.034C243.453 102.708 242.97 103.233 242.345 103.608C241.72 103.983 240.982 104.17 240.129 104.17ZM240.141 102.523C240.603 102.523 240.989 102.396 241.3 102.142C241.61 101.884 241.841 101.54 241.993 101.108C242.148 100.676 242.226 100.195 242.226 99.6648C242.226 99.1307 242.148 98.6477 241.993 98.2159C241.841 97.7803 241.61 97.4337 241.3 97.1761C240.989 96.9186 240.603 96.7898 240.141 96.7898C239.667 96.7898 239.273 96.9186 238.959 97.1761C238.648 97.4337 238.415 97.7803 238.26 98.2159C238.108 98.6477 238.033 99.1307 238.033 99.6648C238.033 100.195 238.108 100.676 238.26 101.108C238.415 101.54 238.648 101.884 238.959 102.142C239.273 102.396 239.667 102.523 240.141 102.523ZM247.864 98.8864V104H245.807V95.2727H247.773V96.7557H247.875C248.076 96.267 248.396 95.8788 248.835 95.5909C249.278 95.303 249.826 95.1591 250.477 95.1591C251.08 95.1591 251.604 95.2879 252.051 95.5455C252.502 95.803 252.85 96.1761 253.097 96.6648C253.347 97.1534 253.47 97.7462 253.466 98.4432V104H251.409V98.7614C251.409 98.178 251.258 97.7216 250.955 97.392C250.655 97.0625 250.241 96.8977 249.71 96.8977C249.35 96.8977 249.03 96.9773 248.75 97.1364C248.473 97.2917 248.256 97.517 248.097 97.8125C247.941 98.108 247.864 98.4659 247.864 98.8864ZM258.545 104.153C257.86 104.153 257.246 103.977 256.705 103.625C256.163 103.273 255.735 102.761 255.42 102.091C255.106 101.42 254.949 100.606 254.949 99.6477C254.949 98.678 255.108 97.8598 255.426 97.1932C255.748 96.5227 256.182 96.017 256.727 95.6761C257.273 95.3314 257.881 95.1591 258.551 95.1591C259.063 95.1591 259.483 95.2462 259.812 95.4205C260.142 95.5909 260.403 95.7973 260.597 96.0398C260.79 96.2784 260.939 96.5038 261.045 96.7159H261.131V92.3636H263.193V104H261.17V102.625H261.045C260.939 102.837 260.786 103.062 260.585 103.301C260.384 103.536 260.119 103.737 259.79 103.903C259.46 104.07 259.045 104.153 258.545 104.153ZM259.119 102.466C259.555 102.466 259.926 102.348 260.233 102.114C260.54 101.875 260.773 101.544 260.932 101.119C261.091 100.695 261.17 100.201 261.17 99.6364C261.17 99.072 261.091 98.5814 260.932 98.1648C260.777 97.7481 260.545 97.4242 260.239 97.1932C259.936 96.9621 259.563 96.8466 259.119 96.8466C258.661 96.8466 258.278 96.9659 257.972 97.2045C257.665 97.4432 257.434 97.7727 257.278 98.1932C257.123 98.6136 257.045 99.0947 257.045 99.6364C257.045 100.182 257.123 100.669 257.278 101.097C257.438 101.521 257.67 101.856 257.977 102.102C258.288 102.345 258.669 102.466 259.119 102.466ZM265.135 104V95.2727H267.192V104H265.135ZM266.169 94.0341C265.843 94.0341 265.563 93.9261 265.328 93.7102C265.093 93.4905 264.976 93.2273 264.976 92.9205C264.976 92.6098 265.093 92.3466 265.328 92.1307C265.563 91.911 265.843 91.8011 266.169 91.8011C266.499 91.8011 266.779 91.911 267.01 92.1307C267.245 92.3466 267.362 92.6098 267.362 92.9205C267.362 93.2273 267.245 93.4905 267.01 93.7102C266.779 93.9261 266.499 94.0341 266.169 94.0341ZM273.415 95.2727V96.8636H268.398V95.2727H273.415ZM269.636 93.1818H271.693V101.375C271.693 101.652 271.735 101.864 271.818 102.011C271.905 102.155 272.019 102.254 272.159 102.307C272.299 102.36 272.455 102.386 272.625 102.386C272.754 102.386 272.871 102.377 272.977 102.358C273.087 102.339 273.17 102.322 273.227 102.307L273.574 103.915C273.464 103.953 273.307 103.994 273.102 104.04C272.902 104.085 272.655 104.112 272.364 104.119C271.848 104.134 271.384 104.057 270.972 103.886C270.559 103.712 270.231 103.443 269.989 103.08C269.75 102.716 269.633 102.261 269.636 101.716V93.1818ZM274.885 104V95.2727H276.942V104H274.885ZM275.919 94.0341C275.593 94.0341 275.313 93.9261 275.078 93.7102C274.843 93.4905 274.726 93.2273 274.726 92.9205C274.726 92.6098 274.843 92.3466 275.078 92.1307C275.313 91.911 275.593 91.8011 275.919 91.8011C276.249 91.8011 276.529 91.911 276.76 92.1307C276.995 92.3466 277.112 92.6098 277.112 92.9205C277.112 93.2273 276.995 93.4905 276.76 93.7102C276.529 93.9261 276.249 94.0341 275.919 94.0341ZM282.614 104.17C281.761 104.17 281.023 103.983 280.398 103.608C279.773 103.233 279.288 102.708 278.943 102.034C278.602 101.36 278.432 100.572 278.432 99.6705C278.432 98.7689 278.602 97.9792 278.943 97.3011C279.288 96.6231 279.773 96.0966 280.398 95.7216C281.023 95.3466 281.761 95.1591 282.614 95.1591C283.466 95.1591 284.205 95.3466 284.83 95.7216C285.455 96.0966 285.938 96.6231 286.278 97.3011C286.623 97.9792 286.795 98.7689 286.795 99.6705C286.795 100.572 286.623 101.36 286.278 102.034C285.938 102.708 285.455 103.233 284.83 103.608C284.205 103.983 283.466 104.17 282.614 104.17ZM282.625 102.523C283.087 102.523 283.473 102.396 283.784 102.142C284.095 101.884 284.326 101.54 284.477 101.108C284.633 100.676 284.71 100.195 284.71 99.6648C284.71 99.1307 284.633 98.6477 284.477 98.2159C284.326 97.7803 284.095 97.4337 283.784 97.1761C283.473 96.9186 283.087 96.7898 282.625 96.7898C282.152 96.7898 281.758 96.9186 281.443 97.1761C281.133 97.4337 280.9 97.7803 280.744 98.2159C280.593 98.6477 280.517 99.1307 280.517 99.6648C280.517 100.195 280.593 100.676 280.744 101.108C280.9 101.54 281.133 101.884 281.443 102.142C281.758 102.396 282.152 102.523 282.625 102.523ZM290.348 98.8864V104H288.291V95.2727H290.257V96.7557H290.359C290.56 96.267 290.88 95.8788 291.32 95.5909C291.763 95.303 292.31 95.1591 292.962 95.1591C293.564 95.1591 294.089 95.2879 294.536 95.5455C294.986 95.803 295.335 96.1761 295.581 96.6648C295.831 97.1534 295.954 97.7462 295.95 98.4432V104H293.893V98.7614C293.893 98.178 293.742 97.7216 293.439 97.392C293.14 97.0625 292.725 96.8977 292.195 96.8977C291.835 96.8977 291.515 96.9773 291.234 97.1364C290.958 97.2917 290.74 97.517 290.581 97.8125C290.426 98.108 290.348 98.4659 290.348 98.8864ZM304.689 97.5795L302.814 97.7841C302.761 97.5947 302.668 97.4167 302.536 97.25C302.407 97.0833 302.232 96.9489 302.013 96.8466C301.793 96.7443 301.524 96.6932 301.206 96.6932C300.778 96.6932 300.418 96.786 300.126 96.9716C299.839 97.1572 299.696 97.3977 299.7 97.6932C299.696 97.947 299.789 98.1534 299.979 98.3125C300.172 98.4716 300.49 98.6023 300.933 98.7045L302.422 99.0227C303.248 99.2008 303.861 99.483 304.263 99.8693C304.668 100.256 304.873 100.761 304.876 101.386C304.873 101.936 304.712 102.42 304.393 102.841C304.079 103.258 303.642 103.583 303.081 103.818C302.52 104.053 301.876 104.17 301.149 104.17C300.081 104.17 299.221 103.947 298.57 103.5C297.918 103.049 297.53 102.422 297.405 101.619L299.411 101.426C299.501 101.82 299.695 102.117 299.99 102.318C300.286 102.519 300.67 102.619 301.143 102.619C301.632 102.619 302.024 102.519 302.32 102.318C302.619 102.117 302.768 101.869 302.768 101.574C302.768 101.324 302.672 101.117 302.479 100.955C302.289 100.792 301.994 100.667 301.592 100.58L300.104 100.267C299.267 100.093 298.647 99.7992 298.246 99.3864C297.844 98.9697 297.645 98.4432 297.649 97.8068C297.645 97.2689 297.791 96.803 298.087 96.4091C298.386 96.0114 298.801 95.7045 299.331 95.4886C299.865 95.2689 300.481 95.1591 301.178 95.1591C302.2 95.1591 303.005 95.3769 303.592 95.8125C304.183 96.2481 304.549 96.8371 304.689 97.5795Z" fill="#4E80EE"/>
<path d="M158.812 107.182H305.518V108.273H158.812V107.182Z" fill="#4E80EE"/>
<rect x="0.5" y="0.5" width="389" height="195" rx="7.5" stroke="#4CA154" stroke-opacity="0.1"/>
</svg>
