<svg width="390" height="196" viewBox="0 0 390 196" fill="none" xmlns="http://www.w3.org/2000/svg">
<rect width="390" height="196" rx="8" fill="#CA3A31" fill-opacity="0.1"/>
<path d="M41.6013 175.511L30.6701 156.528C30.3969 156.062 30.007 155.677 29.5388 155.409C29.0707 155.141 28.5407 155 28.0013 155C27.462 155 26.9319 155.141 26.4638 155.409C25.9957 155.677 25.6058 156.062 25.3326 156.528L14.4013 175.511C14.1385 175.961 14 176.473 14 176.994C14 177.515 14.1385 178.026 14.4013 178.476C14.671 178.944 15.0603 179.332 15.5293 179.6C15.9983 179.868 16.5301 180.006 17.0701 180H38.9326C39.4722 180.005 40.0035 179.867 40.472 179.599C40.9405 179.331 41.3294 178.944 41.5988 178.476C41.8621 178.027 42.001 177.515 42.0014 176.994C42.0019 176.473 41.8638 175.961 41.6013 175.511ZM27.0013 165C27.0013 164.735 27.1067 164.481 27.2942 164.293C27.4818 164.105 27.7361 164 28.0013 164C28.2666 164 28.5209 164.105 28.7084 164.293C28.896 164.481 29.0013 164.735 29.0013 165V170C29.0013 170.265 28.896 170.52 28.7084 170.707C28.5209 170.895 28.2666 171 28.0013 171C27.7361 171 27.4818 170.895 27.2942 170.707C27.1067 170.52 27.0013 170.265 27.0013 170V165ZM28.0013 176C27.7047 176 27.4147 175.912 27.168 175.747C26.9213 175.582 26.7291 175.348 26.6155 175.074C26.502 174.8 26.4723 174.498 26.5302 174.207C26.588 173.916 26.7309 173.649 26.9407 173.439C27.1505 173.23 27.4177 173.087 27.7087 173.029C27.9997 172.971 28.3013 173.001 28.5754 173.114C28.8495 173.228 29.0837 173.42 29.2485 173.667C29.4134 173.913 29.5013 174.203 29.5013 174.5C29.5013 174.898 29.3433 175.279 29.062 175.561C28.7807 175.842 28.3992 176 28.0013 176Z" fill="#CA3A31"/>
<path fill-rule="evenodd" clip-rule="evenodd" d="M49 76C43.4772 76 39 80.4772 39 86C39 91.5228 43.4772 96 49 96C54.5228 96 59 91.5228 59 86C59 80.4772 54.5228 76 49 76ZM49 91C51.7614 91 54 88.7614 54 86C54 83.2386 51.7614 81 49 81C46.2386 81 44 83.2386 44 86C44 88.7614 46.2386 91 49 91Z" fill="#217CF5"/>
<path d="M71.8182 80.3636V92H70.4091V80.3636H71.8182ZM81.7571 92.1818C81.0298 92.1818 80.3878 91.9981 79.831 91.6307C79.2741 91.2595 78.8385 90.7367 78.5241 90.0625C78.2098 89.3845 78.0526 88.5833 78.0526 87.6591C78.0526 86.7424 78.2098 85.947 78.5241 85.2727C78.8385 84.5985 79.276 84.0777 79.8366 83.7102C80.3973 83.3428 81.045 83.1591 81.7798 83.1591C82.348 83.1591 82.7969 83.2538 83.1264 83.4432C83.4598 83.6288 83.7135 83.8409 83.8878 84.0795C84.0658 84.3144 84.2041 84.5076 84.3026 84.6591H84.4162V80.3636H85.7571V92H84.4616V90.6591H84.3026C84.2041 90.8182 84.0639 91.0189 83.8821 91.2614C83.7003 91.5 83.4408 91.714 83.1037 91.9034C82.7666 92.089 82.3177 92.1818 81.7571 92.1818ZM81.9389 90.9773C82.4768 90.9773 82.9313 90.8371 83.3026 90.5568C83.6738 90.2727 83.956 89.8807 84.1491 89.3807C84.3423 88.8769 84.4389 88.2955 84.4389 87.6364C84.4389 86.9848 84.3442 86.4148 84.1548 85.9261C83.9654 85.4337 83.6851 85.0511 83.3139 84.7784C82.9427 84.5019 82.4844 84.3636 81.9389 84.3636C81.3707 84.3636 80.8973 84.5095 80.5185 84.8011C80.1435 85.089 79.8613 85.4811 79.6719 85.9773C79.4863 86.4697 79.3935 87.0227 79.3935 87.6364C79.3935 88.2576 79.4882 88.822 79.6776 89.3295C79.8707 89.8333 80.1548 90.2348 80.5298 90.5341C80.9086 90.8295 81.3783 90.9773 81.9389 90.9773ZM91.6946 92.1818C90.9067 92.1818 90.2154 91.9943 89.6207 91.6193C89.0298 91.2443 88.5677 90.7197 88.2344 90.0455C87.9048 89.3712 87.7401 88.5833 87.7401 87.6818C87.7401 86.7727 87.9048 85.9792 88.2344 85.3011C88.5677 84.6231 89.0298 84.0966 89.6207 83.7216C90.2154 83.3466 90.9067 83.1591 91.6946 83.1591C92.4825 83.1591 93.1719 83.3466 93.7628 83.7216C94.3575 84.0966 94.8196 84.6231 95.1491 85.3011C95.4825 85.9792 95.6491 86.7727 95.6491 87.6818C95.6491 88.5833 95.4825 89.3712 95.1491 90.0455C94.8196 90.7197 94.3575 91.2443 93.7628 91.6193C93.1719 91.9943 92.4825 92.1818 91.6946 92.1818ZM91.6946 90.9773C92.2931 90.9773 92.7855 90.8239 93.1719 90.517C93.5582 90.2102 93.8442 89.8068 94.0298 89.3068C94.2154 88.8068 94.3082 88.2652 94.3082 87.6818C94.3082 87.0985 94.2154 86.5549 94.0298 86.0511C93.8442 85.5473 93.5582 85.1402 93.1719 84.8295C92.7855 84.5189 92.2931 84.3636 91.6946 84.3636C91.0961 84.3636 90.6037 84.5189 90.2173 84.8295C89.831 85.1402 89.545 85.5473 89.3594 86.0511C89.1738 86.5549 89.081 87.0985 89.081 87.6818C89.081 88.2652 89.1738 88.8068 89.3594 89.3068C89.545 89.8068 89.831 90.2102 90.2173 90.517C90.6037 90.8239 91.0961 90.9773 91.6946 90.9773ZM103.037 86.75V92H101.696V83.2727H102.991V84.6364H103.105C103.31 84.1932 103.62 83.8371 104.037 83.5682C104.454 83.2955 104.991 83.1591 105.651 83.1591C106.241 83.1591 106.759 83.2803 107.202 83.5227C107.645 83.7614 107.99 84.125 108.236 84.6136C108.482 85.0985 108.605 85.7121 108.605 86.4545V92H107.264V86.5455C107.264 85.8598 107.086 85.3258 106.73 84.9432C106.374 84.5568 105.885 84.3636 105.264 84.3636C104.836 84.3636 104.454 84.4564 104.116 84.642C103.783 84.8277 103.52 85.0985 103.327 85.4545C103.134 85.8106 103.037 86.2424 103.037 86.75ZM114.351 92.1818C113.563 92.1818 112.872 91.9943 112.277 91.6193C111.686 91.2443 111.224 90.7197 110.891 90.0455C110.561 89.3712 110.396 88.5833 110.396 87.6818C110.396 86.7727 110.561 85.9792 110.891 85.3011C111.224 84.6231 111.686 84.0966 112.277 83.7216C112.872 83.3466 113.563 83.1591 114.351 83.1591C115.139 83.1591 115.828 83.3466 116.419 83.7216C117.014 84.0966 117.476 84.6231 117.805 85.3011C118.139 85.9792 118.305 86.7727 118.305 87.6818C118.305 88.5833 118.139 89.3712 117.805 90.0455C117.476 90.7197 117.014 91.2443 116.419 91.6193C115.828 91.9943 115.139 92.1818 114.351 92.1818ZM114.351 90.9773C114.949 90.9773 115.442 90.8239 115.828 90.517C116.214 90.2102 116.5 89.8068 116.686 89.3068C116.872 88.8068 116.964 88.2652 116.964 87.6818C116.964 87.0985 116.872 86.5549 116.686 86.0511C116.5 85.5473 116.214 85.1402 115.828 84.8295C115.442 84.5189 114.949 84.3636 114.351 84.3636C113.752 84.3636 113.26 84.5189 112.874 84.8295C112.487 85.1402 112.201 85.5473 112.016 86.0511C111.83 86.5549 111.737 87.0985 111.737 87.6818C111.737 88.2652 111.83 88.8068 112.016 89.3068C112.201 89.8068 112.487 90.2102 112.874 90.517C113.26 90.8239 113.752 90.9773 114.351 90.9773ZM123.898 83.2727V84.4091H119.375V83.2727H123.898ZM120.693 81.1818H122.034V89.5C122.034 89.8788 122.089 90.1629 122.199 90.3523C122.313 90.5379 122.456 90.6629 122.631 90.7273C122.809 90.7879 122.996 90.8182 123.193 90.8182C123.341 90.8182 123.462 90.8106 123.557 90.7955C123.652 90.7765 123.727 90.7614 123.784 90.75L124.057 91.9545C123.966 91.9886 123.839 92.0227 123.676 92.0568C123.513 92.0947 123.307 92.1136 123.057 92.1136C122.678 92.1136 122.307 92.0322 121.943 91.8693C121.583 91.7064 121.284 91.4583 121.045 91.125C120.811 90.7917 120.693 90.3712 120.693 89.8636V81.1818ZM132.483 92.2045C131.93 92.2045 131.428 92.1004 130.977 91.892C130.527 91.6799 130.169 91.375 129.903 90.9773C129.638 90.5758 129.506 90.0909 129.506 89.5227C129.506 89.0227 129.604 88.6174 129.801 88.3068C129.998 87.9924 130.261 87.7462 130.591 87.5682C130.92 87.3902 131.284 87.2576 131.682 87.1705C132.083 87.0795 132.487 87.0076 132.892 86.9545C133.422 86.8864 133.852 86.8352 134.182 86.8011C134.515 86.7633 134.758 86.7008 134.909 86.6136C135.064 86.5265 135.142 86.375 135.142 86.1591V86.1136C135.142 85.553 134.989 85.1174 134.682 84.8068C134.379 84.4962 133.919 84.3409 133.301 84.3409C132.661 84.3409 132.159 84.4811 131.795 84.7614C131.432 85.0417 131.176 85.3409 131.028 85.6591L129.756 85.2045C129.983 84.6742 130.286 84.2614 130.665 83.9659C131.047 83.6667 131.464 83.4583 131.915 83.3409C132.369 83.2197 132.816 83.1591 133.256 83.1591C133.536 83.1591 133.858 83.1932 134.222 83.2614C134.589 83.3258 134.943 83.4602 135.284 83.6648C135.629 83.8693 135.915 84.178 136.142 84.5909C136.369 85.0038 136.483 85.5568 136.483 86.25V92H135.142V90.8182H135.074C134.983 91.0076 134.831 91.2102 134.619 91.4261C134.407 91.642 134.125 91.8258 133.773 91.9773C133.42 92.1288 132.991 92.2045 132.483 92.2045ZM132.688 91C133.218 91 133.665 90.8958 134.028 90.6875C134.396 90.4792 134.672 90.2102 134.858 89.8807C135.047 89.5511 135.142 89.2045 135.142 88.8409V87.6136C135.085 87.6818 134.96 87.7443 134.767 87.8011C134.578 87.8542 134.358 87.9015 134.108 87.9432C133.862 87.9811 133.621 88.0152 133.386 88.0455C133.155 88.072 132.968 88.0947 132.824 88.1136C132.475 88.1591 132.15 88.233 131.847 88.3352C131.547 88.4337 131.305 88.5833 131.119 88.7841C130.938 88.9811 130.847 89.25 130.847 89.5909C130.847 90.0568 131.019 90.4091 131.364 90.6477C131.712 90.8826 132.153 91 132.688 91ZM142.203 95.4545C141.555 95.4545 140.999 95.3712 140.533 95.2045C140.067 95.0417 139.679 94.8258 139.368 94.5568C139.061 94.2917 138.817 94.0076 138.635 93.7045L139.703 92.9545C139.824 93.1136 139.978 93.2955 140.163 93.5C140.349 93.7083 140.603 93.8883 140.925 94.0398C141.25 94.1951 141.677 94.2727 142.203 94.2727C142.908 94.2727 143.489 94.1023 143.947 93.7614C144.406 93.4205 144.635 92.8864 144.635 92.1591V90.3864H144.521C144.423 90.5455 144.283 90.7424 144.101 90.9773C143.923 91.2083 143.665 91.4148 143.328 91.5966C142.995 91.7746 142.544 91.8636 141.976 91.8636C141.271 91.8636 140.639 91.697 140.078 91.3636C139.521 91.0303 139.08 90.5455 138.754 89.9091C138.432 89.2727 138.271 88.5 138.271 87.5909C138.271 86.697 138.429 85.9186 138.743 85.2557C139.057 84.589 139.495 84.0739 140.055 83.7102C140.616 83.3428 141.264 83.1591 141.999 83.1591C142.567 83.1591 143.018 83.2538 143.351 83.4432C143.688 83.6288 143.946 83.8409 144.124 84.0795C144.305 84.3144 144.446 84.5076 144.544 84.6591H144.68V83.2727H145.976V92.25C145.976 93 145.805 93.6098 145.464 94.0795C145.127 94.553 144.673 94.8996 144.101 95.1193C143.533 95.3428 142.9 95.4545 142.203 95.4545ZM142.158 90.6591C142.696 90.6591 143.15 90.536 143.521 90.2898C143.893 90.0436 144.175 89.6894 144.368 89.2273C144.561 88.7652 144.658 88.2121 144.658 87.5682C144.658 86.9394 144.563 86.3845 144.374 85.9034C144.184 85.4223 143.904 85.0455 143.533 84.7727C143.161 84.5 142.703 84.3636 142.158 84.3636C141.589 84.3636 141.116 84.5076 140.737 84.7955C140.362 85.0833 140.08 85.4697 139.891 85.9545C139.705 86.4394 139.612 86.9773 139.612 87.5682C139.612 88.1742 139.707 88.7102 139.896 89.1761C140.089 89.6383 140.374 90.0019 140.749 90.267C141.127 90.5284 141.597 90.6591 142.158 90.6591ZM148.18 92V83.2727H149.476V84.5909H149.567C149.726 84.1591 150.014 83.8087 150.43 83.5398C150.847 83.2708 151.317 83.1364 151.839 83.1364C151.938 83.1364 152.061 83.1383 152.209 83.142C152.357 83.1458 152.468 83.1515 152.544 83.1591V84.5227C152.499 84.5114 152.394 84.4943 152.232 84.4716C152.072 84.4451 151.904 84.4318 151.726 84.4318C151.302 84.4318 150.923 84.5208 150.589 84.6989C150.26 84.8731 149.999 85.1155 149.805 85.4261C149.616 85.733 149.521 86.0833 149.521 86.4773V92H148.18ZM157.277 92.1818C156.436 92.1818 155.711 91.9962 155.101 91.625C154.495 91.25 154.027 90.7273 153.697 90.0568C153.372 89.3826 153.209 88.5985 153.209 87.7045C153.209 86.8106 153.372 86.0227 153.697 85.3409C154.027 84.6553 154.485 84.1212 155.072 83.7386C155.663 83.3523 156.353 83.1591 157.141 83.1591C157.595 83.1591 158.044 83.2348 158.487 83.3864C158.93 83.5379 159.334 83.7841 159.697 84.125C160.061 84.4621 160.351 84.9091 160.567 85.4659C160.783 86.0227 160.891 86.7083 160.891 87.5227V88.0909H154.163V86.9318H159.527C159.527 86.4394 159.429 86 159.232 85.6136C159.038 85.2273 158.762 84.9223 158.402 84.6989C158.046 84.4754 157.625 84.3636 157.141 84.3636C156.607 84.3636 156.144 84.4962 155.754 84.7614C155.368 85.0227 155.071 85.3636 154.862 85.7841C154.654 86.2045 154.55 86.6553 154.55 87.1364V87.9091C154.55 88.5682 154.663 89.1269 154.891 89.5852C155.122 90.0398 155.442 90.3864 155.851 90.625C156.26 90.8598 156.735 90.9773 157.277 90.9773C157.629 90.9773 157.947 90.928 158.232 90.8295C158.519 90.7273 158.768 90.5758 158.976 90.375C159.184 90.1705 159.345 89.9167 159.459 89.6136L160.754 89.9773C160.618 90.4167 160.389 90.803 160.067 91.1364C159.745 91.4659 159.347 91.7235 158.874 91.9091C158.4 92.0909 157.868 92.1818 157.277 92.1818ZM166.339 92.1818C165.499 92.1818 164.773 91.9962 164.163 91.625C163.557 91.25 163.089 90.7273 162.76 90.0568C162.434 89.3826 162.271 88.5985 162.271 87.7045C162.271 86.8106 162.434 86.0227 162.76 85.3409C163.089 84.6553 163.548 84.1212 164.135 83.7386C164.726 83.3523 165.415 83.1591 166.203 83.1591C166.658 83.1591 167.107 83.2348 167.55 83.3864C167.993 83.5379 168.396 83.7841 168.76 84.125C169.124 84.4621 169.413 84.9091 169.629 85.4659C169.845 86.0227 169.953 86.7083 169.953 87.5227V88.0909H163.226V86.9318H168.589C168.589 86.4394 168.491 86 168.294 85.6136C168.101 85.2273 167.824 84.9223 167.464 84.6989C167.108 84.4754 166.688 84.3636 166.203 84.3636C165.669 84.3636 165.207 84.4962 164.817 84.7614C164.43 85.0227 164.133 85.3636 163.925 85.7841C163.716 86.2045 163.612 86.6553 163.612 87.1364V87.9091C163.612 88.5682 163.726 89.1269 163.953 89.5852C164.184 90.0398 164.504 90.3864 164.913 90.625C165.322 90.8598 165.798 90.9773 166.339 90.9773C166.692 90.9773 167.01 90.928 167.294 90.8295C167.582 90.7273 167.83 90.5758 168.038 90.375C168.247 90.1705 168.408 89.9167 168.521 89.6136L169.817 89.9773C169.68 90.4167 169.451 90.803 169.129 91.1364C168.807 91.4659 168.41 91.7235 167.936 91.9091C167.463 92.0909 166.93 92.1818 166.339 92.1818ZM177.97 92L175.311 83.2727H176.72L178.607 89.9545H178.697L180.561 83.2727H181.993L183.834 89.9318H183.925L185.811 83.2727H187.22L184.561 92H183.243L181.334 85.2955H181.197L179.288 92H177.97ZM188.743 92V83.2727H190.084V92H188.743ZM189.425 81.8182C189.163 81.8182 188.938 81.7292 188.749 81.5511C188.563 81.3731 188.47 81.1591 188.47 80.9091C188.47 80.6591 188.563 80.4451 188.749 80.267C188.938 80.089 189.163 80 189.425 80C189.686 80 189.91 80.089 190.095 80.267C190.285 80.4451 190.379 80.6591 190.379 80.9091C190.379 81.1591 190.285 81.3731 190.095 81.5511C189.91 81.7292 189.686 81.8182 189.425 81.8182ZM196.085 83.2727V84.4091H191.562V83.2727H196.085ZM192.881 81.1818H194.222V89.5C194.222 89.8788 194.277 90.1629 194.386 90.3523C194.5 90.5379 194.644 90.6629 194.818 90.7273C194.996 90.7879 195.184 90.8182 195.381 90.8182C195.528 90.8182 195.65 90.8106 195.744 90.7955C195.839 90.7765 195.915 90.7614 195.972 90.75L196.244 91.9545C196.153 91.9886 196.027 92.0227 195.864 92.0568C195.701 92.0947 195.494 92.1136 195.244 92.1136C194.866 92.1136 194.494 92.0322 194.131 91.8693C193.771 91.7064 193.472 91.4583 193.233 91.125C192.998 90.7917 192.881 90.3712 192.881 89.8636V81.1818ZM199.381 86.75V92H198.04V80.3636H199.381V84.6364H199.494C199.699 84.1856 200.006 83.8277 200.415 83.5625C200.828 83.2936 201.377 83.1591 202.062 83.1591C202.657 83.1591 203.178 83.2784 203.625 83.517C204.072 83.7519 204.419 84.1136 204.665 84.6023C204.915 85.0871 205.04 85.7045 205.04 86.4545V92H203.699V86.5455C203.699 85.8523 203.519 85.3163 203.159 84.9375C202.803 84.5549 202.309 84.3636 201.676 84.3636C201.237 84.3636 200.843 84.4564 200.494 84.642C200.15 84.8277 199.877 85.0985 199.676 85.4545C199.479 85.8106 199.381 86.2424 199.381 86.75Z" fill="#121826"/>
<path d="M210.902 82.1307V80.3636H220.186V82.1307H216.589V92H214.499V82.1307H210.902ZM224.233 92.1705C223.358 92.1705 222.602 91.9886 221.966 91.625C221.333 91.2576 220.847 90.7386 220.506 90.0682C220.165 89.3939 219.994 88.6004 219.994 87.6875C219.994 86.7898 220.165 86.0019 220.506 85.3239C220.85 84.642 221.331 84.1117 221.949 83.733C222.566 83.3504 223.292 83.1591 224.125 83.1591C224.663 83.1591 225.17 83.2462 225.648 83.4205C226.129 83.5909 226.553 83.8561 226.92 84.2159C227.292 84.5758 227.583 85.0341 227.795 85.5909C228.008 86.1439 228.114 86.803 228.114 87.5682V88.1989H220.96V86.8125H226.142C226.138 86.4186 226.053 86.0682 225.886 85.7614C225.72 85.4508 225.487 85.2064 225.188 85.0284C224.892 84.8504 224.547 84.7614 224.153 84.7614C223.733 84.7614 223.364 84.8636 223.045 85.0682C222.727 85.2689 222.479 85.5341 222.301 85.8636C222.127 86.1894 222.038 86.5473 222.034 86.9375V88.1477C222.034 88.6553 222.127 89.0909 222.312 89.4545C222.498 89.8144 222.758 90.0909 223.091 90.2841C223.424 90.4735 223.814 90.5682 224.261 90.5682C224.561 90.5682 224.831 90.5265 225.074 90.4432C225.316 90.3561 225.527 90.2292 225.705 90.0625C225.883 89.8958 226.017 89.6894 226.108 89.4432L228.028 89.6591C227.907 90.1667 227.676 90.6098 227.335 90.9886C226.998 91.3636 226.566 91.6553 226.04 91.8636C225.513 92.0682 224.911 92.1705 224.233 92.1705ZM229.604 92V83.2727H231.598V84.7273H231.689C231.848 84.2235 232.121 83.8352 232.507 83.5625C232.897 83.286 233.342 83.1477 233.842 83.1477C233.956 83.1477 234.083 83.1534 234.223 83.1648C234.367 83.1723 234.486 83.1856 234.581 83.2045V85.0966C234.494 85.0663 234.356 85.0398 234.166 85.017C233.981 84.9905 233.801 84.9773 233.626 84.9773C233.251 84.9773 232.914 85.0587 232.615 85.2216C232.32 85.3807 232.087 85.6023 231.916 85.8864C231.746 86.1705 231.661 86.4981 231.661 86.8693V92H229.604ZM235.697 92V83.2727H237.663V84.7557H237.766C237.947 84.2557 238.249 83.8655 238.669 83.5852C239.089 83.3011 239.591 83.1591 240.175 83.1591C240.766 83.1591 241.264 83.303 241.669 83.5909C242.078 83.875 242.366 84.2633 242.533 84.7557H242.624C242.817 84.2708 243.143 83.8845 243.601 83.5966C244.063 83.3049 244.61 83.1591 245.243 83.1591C246.046 83.1591 246.701 83.4129 247.209 83.9205C247.716 84.428 247.97 85.1686 247.97 86.142V92H245.908V86.4602C245.908 85.9186 245.764 85.5227 245.476 85.2727C245.188 85.0189 244.836 84.892 244.419 84.892C243.923 84.892 243.535 85.0473 243.254 85.358C242.978 85.6648 242.839 86.0644 242.839 86.5568V92H240.822V86.375C240.822 85.9242 240.686 85.5644 240.413 85.2955C240.144 85.0265 239.792 84.892 239.357 84.892C239.061 84.892 238.792 84.9678 238.55 85.1193C238.307 85.267 238.114 85.4773 237.97 85.75C237.826 86.0189 237.754 86.3333 237.754 86.6932V92H235.697ZM256.705 85.5795L254.83 85.7841C254.777 85.5947 254.684 85.4167 254.551 85.25C254.422 85.0833 254.248 84.9489 254.028 84.8466C253.809 84.7443 253.54 84.6932 253.222 84.6932C252.794 84.6932 252.434 84.786 252.142 84.9716C251.854 85.1572 251.712 85.3977 251.716 85.6932C251.712 85.947 251.805 86.1534 251.994 86.3125C252.188 86.4716 252.506 86.6023 252.949 86.7045L254.438 87.0227C255.263 87.2008 255.877 87.483 256.278 87.8693C256.684 88.2557 256.888 88.7614 256.892 89.3864C256.888 89.9356 256.727 90.4205 256.409 90.8409C256.095 91.2576 255.657 91.5833 255.097 91.8182C254.536 92.053 253.892 92.1705 253.165 92.1705C252.097 92.1705 251.237 91.947 250.585 91.5C249.934 91.0492 249.545 90.4223 249.42 89.6193L251.426 89.4261C251.517 89.8201 251.71 90.1174 252.006 90.3182C252.301 90.5189 252.686 90.6193 253.159 90.6193C253.648 90.6193 254.04 90.5189 254.335 90.3182C254.634 90.1174 254.784 89.8693 254.784 89.5739C254.784 89.3239 254.688 89.1174 254.494 88.9545C254.305 88.7917 254.009 88.6667 253.608 88.5795L252.119 88.267C251.282 88.0928 250.663 87.7992 250.261 87.3864C249.86 86.9697 249.661 86.4432 249.665 85.8068C249.661 85.2689 249.807 84.803 250.102 84.4091C250.402 84.0114 250.816 83.7045 251.347 83.4886C251.881 83.2689 252.496 83.1591 253.193 83.1591C254.216 83.1591 255.021 83.3769 255.608 83.8125C256.199 84.2481 256.564 84.8371 256.705 85.5795ZM265.534 92.1705C264.739 92.1705 264.055 92.0265 263.483 91.7386C262.911 91.4508 262.47 91.0625 262.159 90.5739C261.852 90.0814 261.699 89.5265 261.699 88.9091C261.699 88.4432 261.794 88.0303 261.983 87.6705C262.176 87.3106 262.441 86.9773 262.778 86.6705C263.119 86.3636 263.513 86.0587 263.96 85.7557L266.023 84.3523C266.326 84.1553 266.555 83.947 266.71 83.7273C266.869 83.5076 266.949 83.25 266.949 82.9545C266.949 82.7045 266.843 82.4678 266.631 82.2443C266.422 82.0208 266.134 81.9091 265.767 81.9091C265.521 81.9091 265.303 81.9678 265.114 82.0852C264.928 82.1989 264.782 82.3485 264.676 82.5341C264.574 82.7197 264.523 82.9167 264.523 83.125C264.523 83.3788 264.593 83.6364 264.733 83.8977C264.877 84.1591 265.063 84.4299 265.29 84.7102C265.521 84.9905 265.767 85.2879 266.028 85.6023L271.489 92H269.261L264.727 86.8068C264.39 86.4129 264.064 86.0246 263.75 85.642C263.439 85.2595 263.184 84.8617 262.983 84.4489C262.786 84.0322 262.688 83.5814 262.688 83.0966C262.688 82.5473 262.814 82.0568 263.068 81.625C263.322 81.1894 263.676 80.8466 264.131 80.5966C264.589 80.3466 265.125 80.2216 265.739 80.2216C266.352 80.2216 266.879 80.3428 267.318 80.5852C267.758 80.8277 268.097 81.1496 268.335 81.5511C268.574 81.9527 268.693 82.3902 268.693 82.8636C268.693 83.4129 268.557 83.9053 268.284 84.3409C268.011 84.7727 267.633 85.1648 267.148 85.517L264.795 87.2386C264.409 87.5189 264.133 87.803 263.966 88.0909C263.799 88.375 263.716 88.6174 263.716 88.8182C263.716 89.125 263.794 89.4034 263.949 89.6534C264.104 89.9034 264.322 90.1042 264.602 90.2557C264.886 90.4034 265.218 90.4773 265.597 90.4773C266.013 90.4773 266.424 90.3845 266.83 90.1989C267.235 90.0095 267.604 89.7405 267.938 89.392C268.271 89.0436 268.536 88.6269 268.733 88.142C268.93 87.6534 269.028 87.1117 269.028 86.517H270.795C270.795 87.2519 270.714 87.892 270.551 88.4375C270.388 88.9792 270.178 89.4375 269.92 89.8125C269.663 90.1837 269.39 90.4811 269.102 90.7045C269.011 90.7689 268.924 90.8333 268.841 90.8977C268.758 90.9621 268.67 91.0265 268.58 91.0909C268.17 91.4621 267.691 91.7348 267.142 91.9091C266.597 92.0833 266.061 92.1705 265.534 92.1705ZM80.108 108.29H77.983C77.9223 107.941 77.8106 107.633 77.6477 107.364C77.4848 107.091 77.2822 106.86 77.0398 106.67C76.7973 106.481 76.5208 106.339 76.2102 106.244C75.9034 106.146 75.572 106.097 75.2159 106.097C74.5833 106.097 74.0227 106.256 73.5341 106.574C73.0455 106.888 72.6629 107.35 72.3864 107.96C72.1098 108.566 71.9716 109.307 71.9716 110.182C71.9716 111.072 72.1098 111.822 72.3864 112.432C72.6667 113.038 73.0492 113.496 73.5341 113.807C74.0227 114.114 74.5814 114.267 75.2102 114.267C75.5587 114.267 75.8845 114.222 76.1875 114.131C76.4943 114.036 76.7689 113.898 77.0114 113.716C77.2576 113.534 77.464 113.311 77.6307 113.045C77.8011 112.78 77.9186 112.477 77.983 112.136L80.108 112.148C80.0284 112.701 79.8561 113.22 79.5909 113.705C79.3295 114.189 78.9867 114.617 78.5625 114.989C78.1383 115.356 77.642 115.644 77.0739 115.852C76.5057 116.057 75.875 116.159 75.1818 116.159C74.1591 116.159 73.2462 115.922 72.4432 115.449C71.6402 114.975 71.0076 114.292 70.5455 113.398C70.0833 112.504 69.8523 111.432 69.8523 110.182C69.8523 108.928 70.0852 107.856 70.5511 106.966C71.017 106.072 71.6515 105.388 72.4545 104.915C73.2576 104.441 74.1667 104.205 75.1818 104.205C75.8295 104.205 76.4318 104.295 76.9886 104.477C77.5455 104.659 78.0417 104.926 78.4773 105.278C78.9129 105.627 79.2708 106.055 79.5511 106.562C79.8352 107.066 80.0208 107.642 80.108 108.29ZM85.5043 116.17C84.652 116.17 83.9134 115.983 83.2884 115.608C82.6634 115.233 82.1785 114.708 81.8338 114.034C81.4929 113.36 81.3224 112.572 81.3224 111.67C81.3224 110.769 81.4929 109.979 81.8338 109.301C82.1785 108.623 82.6634 108.097 83.2884 107.722C83.9134 107.347 84.652 107.159 85.5043 107.159C86.3565 107.159 87.0952 107.347 87.7202 107.722C88.3452 108.097 88.8281 108.623 89.169 109.301C89.5137 109.979 89.6861 110.769 89.6861 111.67C89.6861 112.572 89.5137 113.36 89.169 114.034C88.8281 114.708 88.3452 115.233 87.7202 115.608C87.0952 115.983 86.3565 116.17 85.5043 116.17ZM85.5156 114.523C85.9777 114.523 86.3641 114.396 86.6747 114.142C86.9853 113.884 87.2164 113.54 87.3679 113.108C87.5232 112.676 87.6009 112.195 87.6009 111.665C87.6009 111.131 87.5232 110.648 87.3679 110.216C87.2164 109.78 86.9853 109.434 86.6747 109.176C86.3641 108.919 85.9777 108.79 85.5156 108.79C85.0421 108.79 84.6482 108.919 84.3338 109.176C84.0232 109.434 83.7902 109.78 83.6349 110.216C83.4834 110.648 83.4077 111.131 83.4077 111.665C83.4077 112.195 83.4834 112.676 83.6349 113.108C83.7902 113.54 84.0232 113.884 84.3338 114.142C84.6482 114.396 85.0421 114.523 85.5156 114.523ZM93.2386 110.886V116H91.1818V107.273H93.1477V108.756H93.25C93.4508 108.267 93.7708 107.879 94.2102 107.591C94.6534 107.303 95.2008 107.159 95.8523 107.159C96.4545 107.159 96.9792 107.288 97.4261 107.545C97.8769 107.803 98.2254 108.176 98.4716 108.665C98.7216 109.153 98.8447 109.746 98.8409 110.443V116H96.7841V110.761C96.7841 110.178 96.6326 109.722 96.3295 109.392C96.0303 109.062 95.6155 108.898 95.0852 108.898C94.7254 108.898 94.4053 108.977 94.125 109.136C93.8485 109.292 93.6307 109.517 93.4716 109.812C93.3163 110.108 93.2386 110.466 93.2386 110.886ZM103.92 116.153C103.235 116.153 102.621 115.977 102.08 115.625C101.538 115.273 101.11 114.761 100.795 114.091C100.481 113.42 100.324 112.606 100.324 111.648C100.324 110.678 100.483 109.86 100.801 109.193C101.123 108.523 101.557 108.017 102.102 107.676C102.648 107.331 103.256 107.159 103.926 107.159C104.438 107.159 104.858 107.246 105.188 107.42C105.517 107.591 105.778 107.797 105.972 108.04C106.165 108.278 106.314 108.504 106.42 108.716H106.506V104.364H108.568V116H106.545V114.625H106.42C106.314 114.837 106.161 115.062 105.96 115.301C105.759 115.536 105.494 115.737 105.165 115.903C104.835 116.07 104.42 116.153 103.92 116.153ZM104.494 114.466C104.93 114.466 105.301 114.348 105.608 114.114C105.915 113.875 106.148 113.544 106.307 113.119C106.466 112.695 106.545 112.201 106.545 111.636C106.545 111.072 106.466 110.581 106.307 110.165C106.152 109.748 105.92 109.424 105.614 109.193C105.311 108.962 104.938 108.847 104.494 108.847C104.036 108.847 103.653 108.966 103.347 109.205C103.04 109.443 102.809 109.773 102.653 110.193C102.498 110.614 102.42 111.095 102.42 111.636C102.42 112.182 102.498 112.669 102.653 113.097C102.813 113.521 103.045 113.856 103.352 114.102C103.663 114.345 104.044 114.466 104.494 114.466ZM110.51 116V107.273H112.567V116H110.51ZM111.544 106.034C111.218 106.034 110.938 105.926 110.703 105.71C110.468 105.491 110.351 105.227 110.351 104.92C110.351 104.61 110.468 104.347 110.703 104.131C110.938 103.911 111.218 103.801 111.544 103.801C111.874 103.801 112.154 103.911 112.385 104.131C112.62 104.347 112.737 104.61 112.737 104.92C112.737 105.227 112.62 105.491 112.385 105.71C112.154 105.926 111.874 106.034 111.544 106.034ZM118.79 107.273V108.864H113.773V107.273H118.79ZM115.011 105.182H117.068V113.375C117.068 113.652 117.11 113.864 117.193 114.011C117.28 114.155 117.394 114.254 117.534 114.307C117.674 114.36 117.83 114.386 118 114.386C118.129 114.386 118.246 114.377 118.352 114.358C118.462 114.339 118.545 114.322 118.602 114.307L118.949 115.915C118.839 115.953 118.682 115.994 118.477 116.04C118.277 116.085 118.03 116.112 117.739 116.119C117.223 116.134 116.759 116.057 116.347 115.886C115.934 115.712 115.606 115.443 115.364 115.08C115.125 114.716 115.008 114.261 115.011 113.716V105.182ZM120.26 116V107.273H122.317V116H120.26ZM121.294 106.034C120.968 106.034 120.688 105.926 120.453 105.71C120.218 105.491 120.101 105.227 120.101 104.92C120.101 104.61 120.218 104.347 120.453 104.131C120.688 103.911 120.968 103.801 121.294 103.801C121.624 103.801 121.904 103.911 122.135 104.131C122.37 104.347 122.487 104.61 122.487 104.92C122.487 105.227 122.37 105.491 122.135 105.71C121.904 105.926 121.624 106.034 121.294 106.034ZM127.989 116.17C127.136 116.17 126.398 115.983 125.773 115.608C125.148 115.233 124.663 114.708 124.318 114.034C123.977 113.36 123.807 112.572 123.807 111.67C123.807 110.769 123.977 109.979 124.318 109.301C124.663 108.623 125.148 108.097 125.773 107.722C126.398 107.347 127.136 107.159 127.989 107.159C128.841 107.159 129.58 107.347 130.205 107.722C130.83 108.097 131.313 108.623 131.653 109.301C131.998 109.979 132.17 110.769 132.17 111.67C132.17 112.572 131.998 113.36 131.653 114.034C131.313 114.708 130.83 115.233 130.205 115.608C129.58 115.983 128.841 116.17 127.989 116.17ZM128 114.523C128.462 114.523 128.848 114.396 129.159 114.142C129.47 113.884 129.701 113.54 129.852 113.108C130.008 112.676 130.085 112.195 130.085 111.665C130.085 111.131 130.008 110.648 129.852 110.216C129.701 109.78 129.47 109.434 129.159 109.176C128.848 108.919 128.462 108.79 128 108.79C127.527 108.79 127.133 108.919 126.818 109.176C126.508 109.434 126.275 109.78 126.119 110.216C125.968 110.648 125.892 111.131 125.892 111.665C125.892 112.195 125.968 112.676 126.119 113.108C126.275 113.54 126.508 113.884 126.818 114.142C127.133 114.396 127.527 114.523 128 114.523ZM135.723 110.886V116H133.666V107.273H135.632V108.756H135.734C135.935 108.267 136.255 107.879 136.695 107.591C137.138 107.303 137.685 107.159 138.337 107.159C138.939 107.159 139.464 107.288 139.911 107.545C140.361 107.803 140.71 108.176 140.956 108.665C141.206 109.153 141.329 109.746 141.325 110.443V116H139.268V110.761C139.268 110.178 139.117 109.722 138.814 109.392C138.515 109.062 138.1 108.898 137.57 108.898C137.21 108.898 136.89 108.977 136.609 109.136C136.333 109.292 136.115 109.517 135.956 109.812C135.801 110.108 135.723 110.466 135.723 110.886ZM150.064 109.58L148.189 109.784C148.136 109.595 148.043 109.417 147.911 109.25C147.782 109.083 147.607 108.949 147.388 108.847C147.168 108.744 146.899 108.693 146.581 108.693C146.153 108.693 145.793 108.786 145.501 108.972C145.214 109.157 145.071 109.398 145.075 109.693C145.071 109.947 145.164 110.153 145.354 110.312C145.547 110.472 145.865 110.602 146.308 110.705L147.797 111.023C148.623 111.201 149.236 111.483 149.638 111.869C150.043 112.256 150.248 112.761 150.251 113.386C150.248 113.936 150.087 114.42 149.768 114.841C149.454 115.258 149.017 115.583 148.456 115.818C147.895 116.053 147.251 116.17 146.524 116.17C145.456 116.17 144.596 115.947 143.945 115.5C143.293 115.049 142.905 114.422 142.78 113.619L144.786 113.426C144.876 113.82 145.07 114.117 145.365 114.318C145.661 114.519 146.045 114.619 146.518 114.619C147.007 114.619 147.399 114.519 147.695 114.318C147.994 114.117 148.143 113.869 148.143 113.574C148.143 113.324 148.047 113.117 147.854 112.955C147.664 112.792 147.369 112.667 146.967 112.58L145.479 112.267C144.642 112.093 144.022 111.799 143.621 111.386C143.219 110.97 143.02 110.443 143.024 109.807C143.02 109.269 143.166 108.803 143.462 108.409C143.761 108.011 144.176 107.705 144.706 107.489C145.24 107.269 145.856 107.159 146.553 107.159C147.575 107.159 148.38 107.377 148.967 107.812C149.558 108.248 149.924 108.837 150.064 109.58Z" fill="#4E80EE"/>
<path d="M210.266 95.1818H271.352V96.2727H210.266V95.1818ZM69 119.182H150.893V120.273H69V119.182Z" fill="#4E80EE"/>
<rect x="0.5" y="0.5" width="389" height="195" rx="7.5" stroke="#CA3A31" stroke-opacity="0.1"/>
</svg>
