<svg width="390" height="196" viewBox="0 0 390 196" fill="none" xmlns="http://www.w3.org/2000/svg">
<rect width="390" height="196" rx="8" fill="#CA3A31" fill-opacity="0.1"/>
<path d="M41.6013 175.511L30.6701 156.528C30.3969 156.062 30.007 155.677 29.5388 155.409C29.0707 155.141 28.5407 155 28.0013 155C27.462 155 26.9319 155.141 26.4638 155.409C25.9957 155.677 25.6058 156.062 25.3326 156.528L14.4013 175.511C14.1385 175.961 14 176.473 14 176.994C14 177.515 14.1385 178.026 14.4013 178.476C14.671 178.944 15.0603 179.332 15.5293 179.6C15.9983 179.868 16.5301 180.006 17.0701 180H38.9326C39.4722 180.005 40.0035 179.867 40.472 179.599C40.9405 179.331 41.3294 178.944 41.5988 178.476C41.8621 178.027 42.001 177.515 42.0014 176.994C42.0019 176.473 41.8638 175.961 41.6013 175.511ZM27.0013 165C27.0013 164.735 27.1067 164.481 27.2942 164.293C27.4818 164.105 27.7361 164 28.0013 164C28.2666 164 28.5209 164.105 28.7084 164.293C28.896 164.481 29.0013 164.735 29.0013 165V170C29.0013 170.265 28.896 170.52 28.7084 170.707C28.5209 170.895 28.2666 171 28.0013 171C27.7361 171 27.4818 170.895 27.2942 170.707C27.1067 170.52 27.0013 170.265 27.0013 170V165ZM28.0013 176C27.7047 176 27.4147 175.912 27.168 175.747C26.9213 175.582 26.7291 175.348 26.6155 175.074C26.502 174.8 26.4723 174.498 26.5302 174.207C26.588 173.916 26.7309 173.649 26.9407 173.439C27.1505 173.23 27.4177 173.087 27.7087 173.029C27.9997 172.971 28.3013 173.001 28.5754 173.114C28.8495 173.228 29.0837 173.42 29.2485 173.667C29.4134 173.913 29.5013 174.203 29.5013 174.5C29.5013 174.898 29.3433 175.279 29.062 175.561C28.7807 175.842 28.3992 176 28.0013 176Z" fill="#CA3A31"/>
<path fill-rule="evenodd" clip-rule="evenodd" d="M49 64C43.4772 64 39 68.4772 39 74C39 79.5228 43.4772 84 49 84C54.5228 84 59 79.5228 59 74C59 68.4772 54.5228 64 49 64ZM49 79C51.7614 79 54 76.7614 54 74C54 71.2386 51.7614 69 49 69C46.2386 69 44 71.2386 44 74C44 76.7614 46.2386 79 49 79Z" fill="#217CF5"/>
<path d="M71.8182 68.3636V80H70.4091V68.3636H71.8182ZM81.0298 80.2045C80.4768 80.2045 79.9749 80.1004 79.5241 79.892C79.0734 79.6799 78.7154 79.375 78.4503 78.9773C78.1851 78.5758 78.0526 78.0909 78.0526 77.5227C78.0526 77.0227 78.151 76.6174 78.348 76.3068C78.545 75.9924 78.8082 75.7462 79.1378 75.5682C79.4673 75.3902 79.831 75.2576 80.2287 75.1705C80.6302 75.0795 81.0336 75.0076 81.4389 74.9545C81.9692 74.8864 82.3991 74.8352 82.7287 74.8011C83.062 74.7633 83.3045 74.7008 83.456 74.6136C83.6113 74.5265 83.6889 74.375 83.6889 74.1591V74.1136C83.6889 73.553 83.5355 73.1174 83.2287 72.8068C82.9257 72.4962 82.4654 72.3409 81.848 72.3409C81.2079 72.3409 80.706 72.4811 80.3423 72.7614C79.9787 73.0417 79.723 73.3409 79.5753 73.6591L78.3026 73.2045C78.5298 72.6742 78.8329 72.2614 79.2116 71.9659C79.5942 71.6667 80.0109 71.4583 80.4616 71.3409C80.9162 71.2197 81.3632 71.1591 81.8026 71.1591C82.0829 71.1591 82.4048 71.1932 82.7685 71.2614C83.1359 71.3258 83.4901 71.4602 83.831 71.6648C84.1757 71.8693 84.4616 72.178 84.6889 72.5909C84.9162 73.0038 85.0298 73.5568 85.0298 74.25V80H83.6889V78.8182H83.6207C83.5298 79.0076 83.3783 79.2102 83.1662 79.4261C82.9541 79.642 82.6719 79.8258 82.3196 79.9773C81.9673 80.1288 81.5374 80.2045 81.0298 80.2045ZM81.2344 79C81.7647 79 82.2116 78.8958 82.5753 78.6875C82.9427 78.4792 83.2192 78.2102 83.4048 77.8807C83.5942 77.5511 83.6889 77.2045 83.6889 76.8409V75.6136C83.6321 75.6818 83.5071 75.7443 83.3139 75.8011C83.1245 75.8542 82.9048 75.9015 82.6548 75.9432C82.4086 75.9811 82.1681 76.0152 81.9332 76.0455C81.7022 76.072 81.5147 76.0947 81.3707 76.1136C81.0223 76.1591 80.6965 76.233 80.3935 76.3352C80.0942 76.4337 79.8518 76.5833 79.6662 76.7841C79.4844 76.9811 79.3935 77.25 79.3935 77.5909C79.3935 78.0568 79.5658 78.4091 79.9105 78.6477C80.259 78.8826 80.7003 79 81.2344 79ZM90.75 83.4545C90.1023 83.4545 89.5455 83.3712 89.0795 83.2045C88.6136 83.0417 88.2254 82.8258 87.9148 82.5568C87.608 82.2917 87.3636 82.0076 87.1818 81.7045L88.25 80.9545C88.3712 81.1136 88.5246 81.2955 88.7102 81.5C88.8958 81.7083 89.1496 81.8883 89.4716 82.0398C89.7973 82.1951 90.2235 82.2727 90.75 82.2727C91.4545 82.2727 92.036 82.1023 92.4943 81.7614C92.9527 81.4205 93.1818 80.8864 93.1818 80.1591V78.3864H93.0682C92.9697 78.5455 92.8295 78.7424 92.6477 78.9773C92.4697 79.2083 92.2121 79.4148 91.875 79.5966C91.5417 79.7746 91.0909 79.8636 90.5227 79.8636C89.8182 79.8636 89.1856 79.697 88.625 79.3636C88.0682 79.0303 87.6269 78.5455 87.3011 77.9091C86.9792 77.2727 86.8182 76.5 86.8182 75.5909C86.8182 74.697 86.9754 73.9186 87.2898 73.2557C87.6042 72.589 88.0417 72.0739 88.6023 71.7102C89.1629 71.3428 89.8106 71.1591 90.5455 71.1591C91.1136 71.1591 91.5644 71.2538 91.8977 71.4432C92.2348 71.6288 92.4924 71.8409 92.6705 72.0795C92.8523 72.3144 92.9924 72.5076 93.0909 72.6591H93.2273V71.2727H94.5227V80.25C94.5227 81 94.3523 81.6098 94.0114 82.0795C93.6742 82.553 93.2197 82.8996 92.6477 83.1193C92.0795 83.3428 91.447 83.4545 90.75 83.4545ZM90.7045 78.6591C91.2424 78.6591 91.697 78.536 92.0682 78.2898C92.4394 78.0436 92.7216 77.6894 92.9148 77.2273C93.108 76.7652 93.2045 76.2121 93.2045 75.5682C93.2045 74.9394 93.1098 74.3845 92.9205 73.9034C92.7311 73.4223 92.4508 73.0455 92.0795 72.7727C91.7083 72.5 91.25 72.3636 90.7045 72.3636C90.1364 72.3636 89.6629 72.5076 89.2841 72.7955C88.9091 73.0833 88.6269 73.4697 88.4375 73.9545C88.2519 74.4394 88.1591 74.9773 88.1591 75.5682C88.1591 76.1742 88.2538 76.7102 88.4432 77.1761C88.6364 77.6383 88.9205 78.0019 89.2955 78.267C89.6742 78.5284 90.1439 78.6591 90.7045 78.6591ZM96.7273 80V71.2727H98.0227V72.5909H98.1136C98.2727 72.1591 98.5606 71.8087 98.9773 71.5398C99.3939 71.2708 99.8636 71.1364 100.386 71.1364C100.485 71.1364 100.608 71.1383 100.756 71.142C100.903 71.1458 101.015 71.1515 101.091 71.1591V72.5227C101.045 72.5114 100.941 72.4943 100.778 72.4716C100.619 72.4451 100.451 72.4318 100.273 72.4318C99.8485 72.4318 99.4697 72.5208 99.1364 72.6989C98.8068 72.8731 98.5455 73.1155 98.3523 73.4261C98.1629 73.733 98.0682 74.0833 98.0682 74.4773V80H96.7273ZM105.824 80.1818C104.983 80.1818 104.258 79.9962 103.648 79.625C103.042 79.25 102.574 78.7273 102.244 78.0568C101.919 77.3826 101.756 76.5985 101.756 75.7045C101.756 74.8106 101.919 74.0227 102.244 73.3409C102.574 72.6553 103.032 72.1212 103.619 71.7386C104.21 71.3523 104.9 71.1591 105.688 71.1591C106.142 71.1591 106.591 71.2348 107.034 71.3864C107.477 71.5379 107.881 71.7841 108.244 72.125C108.608 72.4621 108.898 72.9091 109.114 73.4659C109.33 74.0227 109.438 74.7083 109.438 75.5227V76.0909H102.71V74.9318H108.074C108.074 74.4394 107.975 74 107.778 73.6136C107.585 73.2273 107.309 72.9223 106.949 72.6989C106.593 72.4754 106.172 72.3636 105.688 72.3636C105.153 72.3636 104.691 72.4962 104.301 72.7614C103.915 73.0227 103.617 73.3636 103.409 73.7841C103.201 74.2045 103.097 74.6553 103.097 75.1364V75.9091C103.097 76.5682 103.21 77.1269 103.438 77.5852C103.669 78.0398 103.989 78.3864 104.398 78.625C104.807 78.8598 105.282 78.9773 105.824 78.9773C106.176 78.9773 106.494 78.928 106.778 78.8295C107.066 78.7273 107.314 78.5758 107.523 78.375C107.731 78.1705 107.892 77.9167 108.006 77.6136L109.301 77.9773C109.165 78.4167 108.936 78.803 108.614 79.1364C108.292 79.4659 107.894 79.7235 107.42 79.9091C106.947 80.0909 106.415 80.1818 105.824 80.1818ZM114.886 80.1818C114.045 80.1818 113.32 79.9962 112.71 79.625C112.104 79.25 111.636 78.7273 111.307 78.0568C110.981 77.3826 110.818 76.5985 110.818 75.7045C110.818 74.8106 110.981 74.0227 111.307 73.3409C111.636 72.6553 112.095 72.1212 112.682 71.7386C113.273 71.3523 113.962 71.1591 114.75 71.1591C115.205 71.1591 115.653 71.2348 116.097 71.3864C116.54 71.5379 116.943 71.7841 117.307 72.125C117.67 72.4621 117.96 72.9091 118.176 73.4659C118.392 74.0227 118.5 74.7083 118.5 75.5227V76.0909H111.773V74.9318H117.136C117.136 74.4394 117.038 74 116.841 73.6136C116.648 73.2273 116.371 72.9223 116.011 72.6989C115.655 72.4754 115.235 72.3636 114.75 72.3636C114.216 72.3636 113.754 72.4962 113.364 72.7614C112.977 73.0227 112.68 73.3636 112.472 73.7841C112.263 74.2045 112.159 74.6553 112.159 75.1364V75.9091C112.159 76.5682 112.273 77.1269 112.5 77.5852C112.731 78.0398 113.051 78.3864 113.46 78.625C113.869 78.8598 114.345 78.9773 114.886 78.9773C115.239 78.9773 115.557 78.928 115.841 78.8295C116.129 78.7273 116.377 78.5758 116.585 78.375C116.794 78.1705 116.955 77.9167 117.068 77.6136L118.364 77.9773C118.227 78.4167 117.998 78.803 117.676 79.1364C117.354 79.4659 116.956 79.7235 116.483 79.9091C116.009 80.0909 115.477 80.1818 114.886 80.1818ZM126.517 80L123.858 71.2727H125.267L127.153 77.9545H127.244L129.108 71.2727H130.54L132.381 77.9318H132.472L134.358 71.2727H135.767L133.108 80H131.79L129.881 73.2955H129.744L127.835 80H126.517ZM137.29 80V71.2727H138.631V80H137.29ZM137.972 69.8182C137.71 69.8182 137.485 69.7292 137.295 69.5511C137.11 69.3731 137.017 69.1591 137.017 68.9091C137.017 68.6591 137.11 68.4451 137.295 68.267C137.485 68.089 137.71 68 137.972 68C138.233 68 138.456 68.089 138.642 68.267C138.831 68.4451 138.926 68.6591 138.926 68.9091C138.926 69.1591 138.831 69.3731 138.642 69.5511C138.456 69.7292 138.233 69.8182 137.972 69.8182ZM144.632 71.2727V72.4091H140.109V71.2727H144.632ZM141.428 69.1818H142.768V77.5C142.768 77.8788 142.823 78.1629 142.933 78.3523C143.047 78.5379 143.191 78.6629 143.365 78.7273C143.543 78.7879 143.731 78.8182 143.928 78.8182C144.075 78.8182 144.196 78.8106 144.291 78.7955C144.386 78.7765 144.462 78.7614 144.518 78.75L144.791 79.9545C144.7 79.9886 144.573 80.0227 144.411 80.0568C144.248 80.0947 144.041 80.1136 143.791 80.1136C143.412 80.1136 143.041 80.0322 142.678 79.8693C142.318 79.7064 142.018 79.4583 141.78 79.125C141.545 78.7917 141.428 78.3712 141.428 77.8636V69.1818ZM147.928 74.75V80H146.587V68.3636H147.928V72.6364H148.041C148.246 72.1856 148.553 71.8277 148.962 71.5625C149.375 71.2936 149.924 71.1591 150.609 71.1591C151.204 71.1591 151.725 71.2784 152.172 71.517C152.619 71.7519 152.965 72.1136 153.212 72.6023C153.462 73.0871 153.587 73.7045 153.587 74.4545V80H152.246V74.5455C152.246 73.8523 152.066 73.3163 151.706 72.9375C151.35 72.5549 150.856 72.3636 150.223 72.3636C149.784 72.3636 149.39 72.4564 149.041 72.642C148.696 72.8277 148.424 73.0985 148.223 73.4545C148.026 73.8106 147.928 74.2424 147.928 74.75ZM313.311 80.2045C312.758 80.2045 312.256 80.1004 311.805 79.892C311.355 79.6799 310.997 79.375 310.732 78.9773C310.466 78.5758 310.334 78.0909 310.334 77.5227C310.334 77.0227 310.432 76.6174 310.629 76.3068C310.826 75.9924 311.089 75.7462 311.419 75.5682C311.749 75.3902 312.112 75.2576 312.51 75.1705C312.911 75.0795 313.315 75.0076 313.72 74.9545C314.25 74.8864 314.68 74.8352 315.01 74.8011C315.343 74.7633 315.586 74.7008 315.737 74.6136C315.893 74.5265 315.97 74.375 315.97 74.1591V74.1136C315.97 73.553 315.817 73.1174 315.51 72.8068C315.207 72.4962 314.747 72.3409 314.129 72.3409C313.489 72.3409 312.987 72.4811 312.624 72.7614C312.26 73.0417 312.004 73.3409 311.857 73.6591L310.584 73.2045C310.811 72.6742 311.114 72.2614 311.493 71.9659C311.875 71.6667 312.292 71.4583 312.743 71.3409C313.197 71.2197 313.644 71.1591 314.084 71.1591C314.364 71.1591 314.686 71.1932 315.05 71.2614C315.417 71.3258 315.771 71.4602 316.112 71.6648C316.457 71.8693 316.743 72.178 316.97 72.5909C317.197 73.0038 317.311 73.5568 317.311 74.25V80H315.97V78.8182H315.902C315.811 79.0076 315.66 79.2102 315.447 79.4261C315.235 79.642 314.953 79.8258 314.601 79.9773C314.249 80.1288 313.819 80.2045 313.311 80.2045ZM313.516 79C314.046 79 314.493 78.8958 314.857 78.6875C315.224 78.4792 315.5 78.2102 315.686 77.8807C315.875 77.5511 315.97 77.2045 315.97 76.8409V75.6136C315.913 75.6818 315.788 75.7443 315.595 75.8011C315.406 75.8542 315.186 75.9015 314.936 75.9432C314.69 75.9811 314.449 76.0152 314.214 76.0455C313.983 76.072 313.796 76.0947 313.652 76.1136C313.304 76.1591 312.978 76.233 312.675 76.3352C312.375 76.4337 312.133 76.5833 311.947 76.7841C311.766 76.9811 311.675 77.25 311.675 77.5909C311.675 78.0568 311.847 78.4091 312.192 78.6477C312.54 78.8826 312.982 79 313.516 79ZM320.849 74.75V80H319.509V71.2727H320.804V72.6364H320.918C321.122 72.1932 321.433 71.8371 321.849 71.5682C322.266 71.2955 322.804 71.1591 323.463 71.1591C324.054 71.1591 324.571 71.2803 325.014 71.5227C325.457 71.7614 325.802 72.125 326.048 72.6136C326.295 73.0985 326.418 73.7121 326.418 74.4545V80H325.077V74.5455C325.077 73.8598 324.899 73.3258 324.543 72.9432C324.187 72.5568 323.698 72.3636 323.077 72.3636C322.649 72.3636 322.266 72.4564 321.929 72.642C321.596 72.8277 321.332 73.0985 321.139 73.4545C320.946 73.8106 320.849 74.2424 320.849 74.75ZM331.913 80.1818C331.186 80.1818 330.544 79.9981 329.987 79.6307C329.43 79.2595 328.995 78.7367 328.68 78.0625C328.366 77.3845 328.209 76.5833 328.209 75.6591C328.209 74.7424 328.366 73.947 328.68 73.2727C328.995 72.5985 329.432 72.0777 329.993 71.7102C330.554 71.3428 331.201 71.1591 331.936 71.1591C332.504 71.1591 332.953 71.2538 333.283 71.4432C333.616 71.6288 333.87 71.8409 334.044 72.0795C334.222 72.3144 334.36 72.5076 334.459 72.6591H334.572V68.3636H335.913V80H334.618V78.6591H334.459C334.36 78.8182 334.22 79.0189 334.038 79.2614C333.857 79.5 333.597 79.714 333.26 79.9034C332.923 80.089 332.474 80.1818 331.913 80.1818ZM332.095 78.9773C332.633 78.9773 333.088 78.8371 333.459 78.5568C333.83 78.2727 334.112 77.8807 334.305 77.3807C334.499 76.8769 334.595 76.2955 334.595 75.6364C334.595 74.9848 334.5 74.4148 334.311 73.9261C334.122 73.4337 333.841 73.0511 333.47 72.7784C333.099 72.5019 332.641 72.3636 332.095 72.3636C331.527 72.3636 331.054 72.5095 330.675 72.8011C330.3 73.089 330.018 73.4811 329.828 73.9773C329.643 74.4697 329.55 75.0227 329.55 75.6364C329.55 76.2576 329.644 76.822 329.834 77.3295C330.027 77.8333 330.311 78.2348 330.686 78.5341C331.065 78.8295 331.535 78.9773 332.095 78.9773ZM344.146 68.3636V80H342.737V68.3636H344.146ZM70.2273 107.273V95.2727H71.5227V96.6591H71.6818C71.7803 96.5076 71.9167 96.3144 72.0909 96.0795C72.2689 95.8409 72.5227 95.6288 72.8523 95.4432C73.1856 95.2538 73.6364 95.1591 74.2045 95.1591C74.9394 95.1591 75.5871 95.3428 76.1477 95.7102C76.7083 96.0777 77.1458 96.5985 77.4602 97.2727C77.7746 97.947 77.9318 98.7424 77.9318 99.6591C77.9318 100.583 77.7746 101.384 77.4602 102.062C77.1458 102.737 76.7102 103.259 76.1534 103.631C75.5966 103.998 74.9545 104.182 74.2273 104.182C73.6667 104.182 73.2178 104.089 72.8807 103.903C72.5436 103.714 72.2841 103.5 72.1023 103.261C71.9205 103.019 71.7803 102.818 71.6818 102.659H71.5682V107.273H70.2273ZM71.5455 99.6364C71.5455 100.295 71.642 100.877 71.8352 101.381C72.0284 101.881 72.3106 102.273 72.6818 102.557C73.053 102.837 73.5076 102.977 74.0455 102.977C74.6061 102.977 75.0739 102.83 75.4489 102.534C75.8277 102.235 76.1117 101.833 76.3011 101.33C76.4943 100.822 76.5909 100.258 76.5909 99.6364C76.5909 99.0227 76.4962 98.4697 76.3068 97.9773C76.1212 97.4811 75.839 97.089 75.4602 96.8011C75.0852 96.5095 74.6136 96.3636 74.0455 96.3636C73.5 96.3636 73.0417 96.5019 72.6705 96.7784C72.2992 97.0511 72.0189 97.4337 71.8295 97.9261C71.6402 98.4148 71.5455 98.9848 71.5455 99.6364ZM79.7273 104V95.2727H81.0227V96.5909H81.1136C81.2727 96.1591 81.5606 95.8087 81.9773 95.5398C82.3939 95.2708 82.8636 95.1364 83.3864 95.1364C83.4848 95.1364 83.608 95.1383 83.7557 95.142C83.9034 95.1458 84.0152 95.1515 84.0909 95.1591V96.5227C84.0455 96.5114 83.9413 96.4943 83.7784 96.4716C83.6193 96.4451 83.4508 96.4318 83.2727 96.4318C82.8485 96.4318 82.4697 96.5208 82.1364 96.6989C81.8068 96.8731 81.5455 97.1155 81.3523 97.4261C81.1629 97.733 81.0682 98.0833 81.0682 98.4773V104H79.7273ZM88.7102 104.182C87.9223 104.182 87.2311 103.994 86.6364 103.619C86.0455 103.244 85.5833 102.72 85.25 102.045C84.9205 101.371 84.7557 100.583 84.7557 99.6818C84.7557 98.7727 84.9205 97.9792 85.25 97.3011C85.5833 96.6231 86.0455 96.0966 86.6364 95.7216C87.2311 95.3466 87.9223 95.1591 88.7102 95.1591C89.4981 95.1591 90.1875 95.3466 90.7784 95.7216C91.3731 96.0966 91.8352 96.6231 92.1648 97.3011C92.4981 97.9792 92.6648 98.7727 92.6648 99.6818C92.6648 100.583 92.4981 101.371 92.1648 102.045C91.8352 102.72 91.3731 103.244 90.7784 103.619C90.1875 103.994 89.4981 104.182 88.7102 104.182ZM88.7102 102.977C89.3087 102.977 89.8011 102.824 90.1875 102.517C90.5739 102.21 90.8598 101.807 91.0455 101.307C91.2311 100.807 91.3239 100.265 91.3239 99.6818C91.3239 99.0985 91.2311 98.5549 91.0455 98.0511C90.8598 97.5473 90.5739 97.1402 90.1875 96.8295C89.8011 96.5189 89.3087 96.3636 88.7102 96.3636C88.1117 96.3636 87.6193 96.5189 87.233 96.8295C86.8466 97.1402 86.5606 97.5473 86.375 98.0511C86.1894 98.5549 86.0966 99.0985 86.0966 99.6818C86.0966 100.265 86.1894 100.807 86.375 101.307C86.5606 101.807 86.8466 102.21 87.233 102.517C87.6193 102.824 88.1117 102.977 88.7102 102.977ZM94.4616 104V95.2727H95.7571V96.6364H95.8707C96.0526 96.1705 96.3461 95.8087 96.7514 95.5511C97.1567 95.2898 97.6435 95.1591 98.2116 95.1591C98.7874 95.1591 99.2666 95.2898 99.6491 95.5511C100.036 95.8087 100.337 96.1705 100.553 96.6364H100.643C100.867 96.1856 101.202 95.8277 101.649 95.5625C102.096 95.2936 102.632 95.1591 103.257 95.1591C104.037 95.1591 104.676 95.4034 105.172 95.892C105.668 96.3769 105.916 97.1326 105.916 98.1591V104H104.575V98.1591C104.575 97.5152 104.399 97.0549 104.047 96.7784C103.695 96.5019 103.28 96.3636 102.803 96.3636C102.189 96.3636 101.714 96.5492 101.376 96.9205C101.039 97.2879 100.871 97.7538 100.871 98.3182V104H99.5071V98.0227C99.5071 97.5265 99.3461 97.1269 99.0241 96.8239C98.7022 96.517 98.2874 96.3636 97.7798 96.3636C97.4313 96.3636 97.1056 96.4564 96.8026 96.642C96.5033 96.8277 96.2609 97.0852 96.0753 97.4148C95.8935 97.7405 95.8026 98.1174 95.8026 98.5455V104H94.4616ZM108.118 104V95.2727H109.459V104H108.118ZM108.8 93.8182C108.538 93.8182 108.313 93.7292 108.124 93.5511C107.938 93.3731 107.845 93.1591 107.845 92.9091C107.845 92.6591 107.938 92.4451 108.124 92.267C108.313 92.089 108.538 92 108.8 92C109.061 92 109.285 92.089 109.47 92.267C109.66 92.4451 109.754 92.6591 109.754 92.9091C109.754 93.1591 109.66 93.3731 109.47 93.5511C109.285 93.7292 109.061 93.8182 108.8 93.8182ZM117.847 97.2273L116.642 97.5682C116.566 97.3674 116.455 97.1723 116.307 96.983C116.163 96.7898 115.966 96.6307 115.716 96.5057C115.466 96.3807 115.146 96.3182 114.756 96.3182C114.222 96.3182 113.777 96.4413 113.42 96.6875C113.068 96.9299 112.892 97.2386 112.892 97.6136C112.892 97.947 113.013 98.2102 113.256 98.4034C113.498 98.5966 113.877 98.7576 114.392 98.8864L115.688 99.2045C116.468 99.3939 117.049 99.6837 117.432 100.074C117.814 100.46 118.006 100.958 118.006 101.568C118.006 102.068 117.862 102.515 117.574 102.909C117.29 103.303 116.892 103.614 116.381 103.841C115.869 104.068 115.275 104.182 114.597 104.182C113.706 104.182 112.97 103.989 112.386 103.602C111.803 103.216 111.434 102.652 111.278 101.909L112.551 101.591C112.672 102.061 112.902 102.413 113.239 102.648C113.58 102.883 114.025 103 114.574 103C115.199 103 115.695 102.867 116.062 102.602C116.434 102.333 116.619 102.011 116.619 101.636C116.619 101.333 116.513 101.08 116.301 100.875C116.089 100.667 115.763 100.511 115.324 100.409L113.869 100.068C113.07 99.8788 112.483 99.5852 112.108 99.1875C111.737 98.786 111.551 98.2841 111.551 97.6818C111.551 97.1894 111.689 96.7538 111.966 96.375C112.246 95.9962 112.627 95.6989 113.108 95.483C113.593 95.267 114.142 95.1591 114.756 95.1591C115.619 95.1591 116.297 95.3485 116.79 95.7273C117.286 96.1061 117.638 96.6061 117.847 97.2273ZM123.433 104.182C122.592 104.182 121.867 103.996 121.257 103.625C120.651 103.25 120.183 102.727 119.854 102.057C119.528 101.383 119.365 100.598 119.365 99.7045C119.365 98.8106 119.528 98.0227 119.854 97.3409C120.183 96.6553 120.642 96.1212 121.229 95.7386C121.82 95.3523 122.509 95.1591 123.297 95.1591C123.751 95.1591 124.2 95.2348 124.643 95.3864C125.087 95.5379 125.49 95.7841 125.854 96.125C126.217 96.4621 126.507 96.9091 126.723 97.4659C126.939 98.0227 127.047 98.7083 127.047 99.5227V100.091H120.32V98.9318H125.683C125.683 98.4394 125.585 98 125.388 97.6136C125.195 97.2273 124.918 96.9223 124.558 96.6989C124.202 96.4754 123.782 96.3636 123.297 96.3636C122.763 96.3636 122.301 96.4962 121.911 96.7614C121.524 97.0227 121.227 97.3636 121.018 97.7841C120.81 98.2045 120.706 98.6553 120.706 99.1364V99.9091C120.706 100.568 120.82 101.127 121.047 101.585C121.278 102.04 121.598 102.386 122.007 102.625C122.416 102.86 122.892 102.977 123.433 102.977C123.786 102.977 124.104 102.928 124.388 102.83C124.676 102.727 124.924 102.576 125.132 102.375C125.34 102.17 125.501 101.917 125.615 101.614L126.911 101.977C126.774 102.417 126.545 102.803 126.223 103.136C125.901 103.466 125.503 103.723 125.03 103.909C124.556 104.091 124.024 104.182 123.433 104.182ZM136.882 95.2727V96.4091H132.359V95.2727H136.882ZM133.678 93.1818H135.018V101.5C135.018 101.879 135.073 102.163 135.183 102.352C135.297 102.538 135.441 102.663 135.615 102.727C135.793 102.788 135.981 102.818 136.178 102.818C136.325 102.818 136.446 102.811 136.541 102.795C136.636 102.777 136.712 102.761 136.768 102.75L137.041 103.955C136.95 103.989 136.823 104.023 136.661 104.057C136.498 104.095 136.291 104.114 136.041 104.114C135.662 104.114 135.291 104.032 134.928 103.869C134.568 103.706 134.268 103.458 134.03 103.125C133.795 102.792 133.678 102.371 133.678 101.864V93.1818ZM142.101 104.182C141.313 104.182 140.622 103.994 140.027 103.619C139.436 103.244 138.974 102.72 138.641 102.045C138.311 101.371 138.146 100.583 138.146 99.6818C138.146 98.7727 138.311 97.9792 138.641 97.3011C138.974 96.6231 139.436 96.0966 140.027 95.7216C140.622 95.3466 141.313 95.1591 142.101 95.1591C142.889 95.1591 143.578 95.3466 144.169 95.7216C144.764 96.0966 145.226 96.6231 145.555 97.3011C145.889 97.9792 146.055 98.7727 146.055 99.6818C146.055 100.583 145.889 101.371 145.555 102.045C145.226 102.72 144.764 103.244 144.169 103.619C143.578 103.994 142.889 104.182 142.101 104.182ZM142.101 102.977C142.699 102.977 143.192 102.824 143.578 102.517C143.964 102.21 144.25 101.807 144.436 101.307C144.622 100.807 144.714 100.265 144.714 99.6818C144.714 99.0985 144.622 98.5549 144.436 98.0511C144.25 97.5473 143.964 97.1402 143.578 96.8295C143.192 96.5189 142.699 96.3636 142.101 96.3636C141.502 96.3636 141.01 96.5189 140.624 96.8295C140.237 97.1402 139.951 97.5473 139.766 98.0511C139.58 98.5549 139.487 99.0985 139.487 99.6818C139.487 100.265 139.58 100.807 139.766 101.307C139.951 101.807 140.237 102.21 140.624 102.517C141.01 102.824 141.502 102.977 142.101 102.977ZM154.67 104.205C154.117 104.205 153.616 104.1 153.165 103.892C152.714 103.68 152.356 103.375 152.091 102.977C151.826 102.576 151.693 102.091 151.693 101.523C151.693 101.023 151.792 100.617 151.989 100.307C152.186 99.9924 152.449 99.7462 152.778 99.5682C153.108 99.3902 153.472 99.2576 153.869 99.1705C154.271 99.0795 154.674 99.0076 155.08 98.9545C155.61 98.8864 156.04 98.8352 156.369 98.8011C156.703 98.7633 156.945 98.7008 157.097 98.6136C157.252 98.5265 157.33 98.375 157.33 98.1591V98.1136C157.33 97.553 157.176 97.1174 156.869 96.8068C156.566 96.4962 156.106 96.3409 155.489 96.3409C154.848 96.3409 154.347 96.4811 153.983 96.7614C153.619 97.0417 153.364 97.3409 153.216 97.6591L151.943 97.2045C152.17 96.6742 152.473 96.2614 152.852 95.9659C153.235 95.6667 153.652 95.4583 154.102 95.3409C154.557 95.2197 155.004 95.1591 155.443 95.1591C155.723 95.1591 156.045 95.1932 156.409 95.2614C156.777 95.3258 157.131 95.4602 157.472 95.6648C157.816 95.8693 158.102 96.178 158.33 96.5909C158.557 97.0038 158.67 97.5568 158.67 98.25V104H157.33V102.818H157.261C157.17 103.008 157.019 103.21 156.807 103.426C156.595 103.642 156.313 103.826 155.96 103.977C155.608 104.129 155.178 104.205 154.67 104.205ZM154.875 103C155.405 103 155.852 102.896 156.216 102.688C156.583 102.479 156.86 102.21 157.045 101.881C157.235 101.551 157.33 101.205 157.33 100.841V99.6136C157.273 99.6818 157.148 99.7443 156.955 99.8011C156.765 99.8542 156.545 99.9015 156.295 99.9432C156.049 99.9811 155.809 100.015 155.574 100.045C155.343 100.072 155.155 100.095 155.011 100.114C154.663 100.159 154.337 100.233 154.034 100.335C153.735 100.434 153.492 100.583 153.307 100.784C153.125 100.981 153.034 101.25 153.034 101.591C153.034 102.057 153.206 102.409 153.551 102.648C153.9 102.883 154.341 103 154.875 103ZM161.05 104V92.3636H162.391V96.6591H162.504C162.603 96.5076 162.739 96.3144 162.913 96.0795C163.091 95.8409 163.345 95.6288 163.675 95.4432C164.008 95.2538 164.459 95.1591 165.027 95.1591C165.762 95.1591 166.41 95.3428 166.97 95.7102C167.531 96.0777 167.968 96.5985 168.283 97.2727C168.597 97.947 168.754 98.7424 168.754 99.6591C168.754 100.583 168.597 101.384 168.283 102.062C167.968 102.737 167.533 103.259 166.976 103.631C166.419 103.998 165.777 104.182 165.05 104.182C164.489 104.182 164.04 104.089 163.703 103.903C163.366 103.714 163.107 103.5 162.925 103.261C162.743 103.019 162.603 102.818 162.504 102.659H162.345V104H161.05ZM162.368 99.6364C162.368 100.295 162.464 100.877 162.658 101.381C162.851 101.881 163.133 102.273 163.504 102.557C163.875 102.837 164.33 102.977 164.868 102.977C165.429 102.977 165.896 102.83 166.271 102.534C166.65 102.235 166.934 101.833 167.124 101.33C167.317 100.822 167.413 100.258 167.413 99.6364C167.413 99.0227 167.319 98.4697 167.129 97.9773C166.944 97.4811 166.661 97.089 166.283 96.8011C165.908 96.5095 165.436 96.3636 164.868 96.3636C164.322 96.3636 163.864 96.5019 163.493 96.7784C163.122 97.0511 162.841 97.4337 162.652 97.9261C162.463 98.4148 162.368 98.9848 162.368 99.6364ZM170.555 104V95.2727H171.896V104H170.555ZM171.237 93.8182C170.976 93.8182 170.75 93.7292 170.561 93.5511C170.375 93.3731 170.283 93.1591 170.283 92.9091C170.283 92.6591 170.375 92.4451 170.561 92.267C170.75 92.089 170.976 92 171.237 92C171.499 92 171.722 92.089 171.908 92.267C172.097 92.4451 172.192 92.6591 172.192 92.9091C172.192 93.1591 172.097 93.3731 171.908 93.5511C171.722 93.7292 171.499 93.8182 171.237 93.8182ZM177.398 104.182C176.67 104.182 176.028 103.998 175.472 103.631C174.915 103.259 174.479 102.737 174.165 102.062C173.85 101.384 173.693 100.583 173.693 99.6591C173.693 98.7424 173.85 97.947 174.165 97.2727C174.479 96.5985 174.917 96.0777 175.477 95.7102C176.038 95.3428 176.686 95.1591 177.42 95.1591C177.989 95.1591 178.438 95.2538 178.767 95.4432C179.1 95.6288 179.354 95.8409 179.528 96.0795C179.706 96.3144 179.845 96.5076 179.943 96.6591H180.057V92.3636H181.398V104H180.102V102.659H179.943C179.845 102.818 179.705 103.019 179.523 103.261C179.341 103.5 179.081 103.714 178.744 103.903C178.407 104.089 177.958 104.182 177.398 104.182ZM177.58 102.977C178.117 102.977 178.572 102.837 178.943 102.557C179.314 102.273 179.597 101.881 179.79 101.381C179.983 100.877 180.08 100.295 180.08 99.6364C180.08 98.9848 179.985 98.4148 179.795 97.9261C179.606 97.4337 179.326 97.0511 178.955 96.7784C178.583 96.5019 178.125 96.3636 177.58 96.3636C177.011 96.3636 176.538 96.5095 176.159 96.8011C175.784 97.089 175.502 97.4811 175.312 97.9773C175.127 98.4697 175.034 99.0227 175.034 99.6364C175.034 100.258 175.129 100.822 175.318 101.33C175.511 101.833 175.795 102.235 176.17 102.534C176.549 102.83 177.019 102.977 177.58 102.977ZM187.449 104.182C186.608 104.182 185.883 103.996 185.273 103.625C184.667 103.25 184.199 102.727 183.869 102.057C183.544 101.383 183.381 100.598 183.381 99.7045C183.381 98.8106 183.544 98.0227 183.869 97.3409C184.199 96.6553 184.657 96.1212 185.244 95.7386C185.835 95.3523 186.525 95.1591 187.312 95.1591C187.767 95.1591 188.216 95.2348 188.659 95.3864C189.102 95.5379 189.506 95.7841 189.869 96.125C190.233 96.4621 190.523 96.9091 190.739 97.4659C190.955 98.0227 191.062 98.7083 191.062 99.5227V100.091H184.335V98.9318H189.699C189.699 98.4394 189.6 98 189.403 97.6136C189.21 97.2273 188.934 96.9223 188.574 96.6989C188.218 96.4754 187.797 96.3636 187.312 96.3636C186.778 96.3636 186.316 96.4962 185.926 96.7614C185.54 97.0227 185.242 97.3636 185.034 97.7841C184.826 98.2045 184.722 98.6553 184.722 99.1364V99.9091C184.722 100.568 184.835 101.127 185.062 101.585C185.294 102.04 185.614 102.386 186.023 102.625C186.432 102.86 186.907 102.977 187.449 102.977C187.801 102.977 188.119 102.928 188.403 102.83C188.691 102.727 188.939 102.576 189.148 102.375C189.356 102.17 189.517 101.917 189.631 101.614L190.926 101.977C190.79 102.417 190.561 102.803 190.239 103.136C189.917 103.466 189.519 103.723 189.045 103.909C188.572 104.091 188.04 104.182 187.449 104.182ZM197.284 104V92.3636H198.625V96.6591H198.739C198.837 96.5076 198.973 96.3144 199.148 96.0795C199.326 95.8409 199.58 95.6288 199.909 95.4432C200.242 95.2538 200.693 95.1591 201.261 95.1591C201.996 95.1591 202.644 95.3428 203.205 95.7102C203.765 96.0777 204.203 96.5985 204.517 97.2727C204.831 97.947 204.989 98.7424 204.989 99.6591C204.989 100.583 204.831 101.384 204.517 102.062C204.203 102.737 203.767 103.259 203.21 103.631C202.653 103.998 202.011 104.182 201.284 104.182C200.723 104.182 200.275 104.089 199.938 103.903C199.6 103.714 199.341 103.5 199.159 103.261C198.977 103.019 198.837 102.818 198.739 102.659H198.58V104H197.284ZM198.602 99.6364C198.602 100.295 198.699 100.877 198.892 101.381C199.085 101.881 199.367 102.273 199.739 102.557C200.11 102.837 200.564 102.977 201.102 102.977C201.663 102.977 202.131 102.83 202.506 102.534C202.884 102.235 203.169 101.833 203.358 101.33C203.551 100.822 203.648 100.258 203.648 99.6364C203.648 99.0227 203.553 98.4697 203.364 97.9773C203.178 97.4811 202.896 97.089 202.517 96.8011C202.142 96.5095 201.67 96.3636 201.102 96.3636C200.557 96.3636 200.098 96.5019 199.727 96.7784C199.356 97.0511 199.076 97.4337 198.886 97.9261C198.697 98.4148 198.602 98.9848 198.602 99.6364ZM207.341 107.273C207.114 107.273 206.911 107.254 206.733 107.216C206.555 107.182 206.432 107.148 206.364 107.114L206.705 105.932C207.03 106.015 207.318 106.045 207.568 106.023C207.818 106 208.04 105.888 208.233 105.688C208.43 105.491 208.61 105.17 208.773 104.727L209.023 104.045L205.795 95.2727H207.25L209.659 102.227H209.75L212.159 95.2727H213.614L209.909 105.273C209.742 105.723 209.536 106.097 209.29 106.392C209.044 106.691 208.758 106.913 208.432 107.057C208.11 107.201 207.746 107.273 207.341 107.273ZM223.179 95.2727V96.4091H218.656V95.2727H223.179ZM219.974 93.1818H221.315V101.5C221.315 101.879 221.37 102.163 221.48 102.352C221.594 102.538 221.738 102.663 221.912 102.727C222.09 102.788 222.277 102.818 222.474 102.818C222.622 102.818 222.743 102.811 222.838 102.795C222.933 102.777 223.009 102.761 223.065 102.75L223.338 103.955C223.247 103.989 223.12 104.023 222.957 104.057C222.795 104.095 222.588 104.114 222.338 104.114C221.959 104.114 221.588 104.032 221.224 103.869C220.865 103.706 220.565 103.458 220.327 103.125C220.092 102.792 219.974 102.371 219.974 101.864V93.1818ZM226.474 98.75V104H225.134V92.3636H226.474V96.6364H226.588C226.793 96.1856 227.099 95.8277 227.509 95.5625C227.921 95.2936 228.471 95.1591 229.156 95.1591C229.751 95.1591 230.272 95.2784 230.719 95.517C231.166 95.7519 231.512 96.1136 231.759 96.6023C232.009 97.0871 232.134 97.7045 232.134 98.4545V104H230.793V98.5455C230.793 97.8523 230.613 97.3163 230.253 96.9375C229.897 96.5549 229.402 96.3636 228.77 96.3636C228.33 96.3636 227.937 96.4564 227.588 96.642C227.243 96.8277 226.971 97.0985 226.77 97.4545C226.573 97.8106 226.474 98.2424 226.474 98.75ZM237.996 104.182C237.155 104.182 236.429 103.996 235.82 103.625C235.214 103.25 234.746 102.727 234.416 102.057C234.09 101.383 233.928 100.598 233.928 99.7045C233.928 98.8106 234.09 98.0227 234.416 97.3409C234.746 96.6553 235.204 96.1212 235.791 95.7386C236.382 95.3523 237.071 95.1591 237.859 95.1591C238.314 95.1591 238.763 95.2348 239.206 95.3864C239.649 95.5379 240.053 95.7841 240.416 96.125C240.78 96.4621 241.07 96.9091 241.286 97.4659C241.501 98.0227 241.609 98.7083 241.609 99.5227V100.091H234.882V98.9318H240.246C240.246 98.4394 240.147 98 239.95 97.6136C239.757 97.2273 239.481 96.9223 239.121 96.6989C238.765 96.4754 238.344 96.3636 237.859 96.3636C237.325 96.3636 236.863 96.4962 236.473 96.7614C236.087 97.0227 235.789 97.3636 235.581 97.7841C235.373 98.2045 235.268 98.6553 235.268 99.1364V99.9091C235.268 100.568 235.382 101.127 235.609 101.585C235.84 102.04 236.161 102.386 236.57 102.625C236.979 102.86 237.454 102.977 237.996 102.977C238.348 102.977 238.666 102.928 238.95 102.83C239.238 102.727 239.486 102.576 239.695 102.375C239.903 102.17 240.064 101.917 240.178 101.614L241.473 101.977C241.337 102.417 241.107 102.803 240.786 103.136C240.464 103.466 240.066 103.723 239.592 103.909C239.119 104.091 238.587 104.182 237.996 104.182ZM243.399 104V95.2727H244.695V96.6364H244.808C244.99 96.1705 245.284 95.8087 245.689 95.5511C246.094 95.2898 246.581 95.1591 247.149 95.1591C247.725 95.1591 248.204 95.2898 248.587 95.5511C248.973 95.8087 249.274 96.1705 249.49 96.6364H249.581C249.804 96.1856 250.14 95.8277 250.587 95.5625C251.034 95.2936 251.57 95.1591 252.195 95.1591C252.975 95.1591 253.613 95.4034 254.109 95.892C254.606 96.3769 254.854 97.1326 254.854 98.1591V104H253.513V98.1591C253.513 97.5152 253.337 97.0549 252.984 96.7784C252.632 96.5019 252.217 96.3636 251.74 96.3636C251.126 96.3636 250.651 96.5492 250.314 96.9205C249.977 97.2879 249.808 97.7538 249.808 98.3182V104H248.445V98.0227C248.445 97.5265 248.284 97.1269 247.962 96.8239C247.64 96.517 247.225 96.3636 246.717 96.3636C246.369 96.3636 246.043 96.4564 245.74 96.642C245.441 96.8277 245.198 97.0852 245.013 97.4148C244.831 97.7405 244.74 98.1174 244.74 98.5455V104H243.399ZM263.874 104.205C263.321 104.205 262.819 104.1 262.368 103.892C261.917 103.68 261.559 103.375 261.294 102.977C261.029 102.576 260.896 102.091 260.896 101.523C260.896 101.023 260.995 100.617 261.192 100.307C261.389 99.9924 261.652 99.7462 261.982 99.5682C262.311 99.3902 262.675 99.2576 263.072 99.1705C263.474 99.0795 263.877 99.0076 264.283 98.9545C264.813 98.8864 265.243 98.8352 265.572 98.8011C265.906 98.7633 266.148 98.7008 266.3 98.6136C266.455 98.5265 266.533 98.375 266.533 98.1591V98.1136C266.533 97.553 266.379 97.1174 266.072 96.8068C265.769 96.4962 265.309 96.3409 264.692 96.3409C264.052 96.3409 263.55 96.4811 263.186 96.7614C262.822 97.0417 262.567 97.3409 262.419 97.6591L261.146 97.2045C261.374 96.6742 261.677 96.2614 262.055 95.9659C262.438 95.6667 262.855 95.4583 263.305 95.3409C263.76 95.2197 264.207 95.1591 264.646 95.1591C264.927 95.1591 265.249 95.1932 265.612 95.2614C265.98 95.3258 266.334 95.4602 266.675 95.6648C267.019 95.8693 267.305 96.178 267.533 96.5909C267.76 97.0038 267.874 97.5568 267.874 98.25V104H266.533V102.818H266.464C266.374 103.008 266.222 103.21 266.01 103.426C265.798 103.642 265.516 103.826 265.163 103.977C264.811 104.129 264.381 104.205 263.874 104.205ZM264.078 103C264.608 103 265.055 102.896 265.419 102.688C265.786 102.479 266.063 102.21 266.249 101.881C266.438 101.551 266.533 101.205 266.533 100.841V99.6136C266.476 99.6818 266.351 99.7443 266.158 99.8011C265.968 99.8542 265.749 99.9015 265.499 99.9432C265.252 99.9811 265.012 100.015 264.777 100.045C264.546 100.072 264.358 100.095 264.214 100.114C263.866 100.159 263.54 100.233 263.237 100.335C262.938 100.434 262.696 100.583 262.51 100.784C262.328 100.981 262.237 101.25 262.237 101.591C262.237 102.057 262.41 102.409 262.754 102.648C263.103 102.883 263.544 103 264.078 103ZM271.412 98.75V104H270.071V95.2727H271.366V96.6364H271.48C271.685 96.1932 271.995 95.8371 272.412 95.5682C272.829 95.2955 273.366 95.1591 274.026 95.1591C274.616 95.1591 275.134 95.2803 275.577 95.5227C276.02 95.7614 276.365 96.125 276.611 96.6136C276.857 97.0985 276.98 97.7121 276.98 98.4545V104H275.639V98.5455C275.639 97.8598 275.461 97.3258 275.105 96.9432C274.749 96.5568 274.26 96.3636 273.639 96.3636C273.211 96.3636 272.829 96.4564 272.491 96.642C272.158 96.8277 271.895 97.0985 271.702 97.4545C271.509 97.8106 271.412 98.2424 271.412 98.75ZM282.476 104.182C281.749 104.182 281.107 103.998 280.55 103.631C279.993 103.259 279.557 102.737 279.243 102.062C278.929 101.384 278.771 100.583 278.771 99.6591C278.771 98.7424 278.929 97.947 279.243 97.2727C279.557 96.5985 279.995 96.0777 280.555 95.7102C281.116 95.3428 281.764 95.1591 282.499 95.1591C283.067 95.1591 283.516 95.2538 283.845 95.4432C284.179 95.6288 284.432 95.8409 284.607 96.0795C284.785 96.3144 284.923 96.5076 285.021 96.6591H285.135V92.3636H286.476V104H285.18V102.659H285.021C284.923 102.818 284.783 103.019 284.601 103.261C284.419 103.5 284.16 103.714 283.822 103.903C283.485 104.089 283.036 104.182 282.476 104.182ZM282.658 102.977C283.196 102.977 283.65 102.837 284.021 102.557C284.393 102.273 284.675 101.881 284.868 101.381C285.061 100.877 285.158 100.295 285.158 99.6364C285.158 98.9848 285.063 98.4148 284.874 97.9261C284.684 97.4337 284.404 97.0511 284.033 96.7784C283.661 96.5019 283.203 96.3636 282.658 96.3636C282.089 96.3636 281.616 96.5095 281.237 96.8011C280.862 97.089 280.58 97.4811 280.391 97.9773C280.205 98.4697 280.112 99.0227 280.112 99.6364C280.112 100.258 280.207 100.822 280.396 101.33C280.589 101.833 280.874 102.235 281.249 102.534C281.627 102.83 282.097 102.977 282.658 102.977ZM294.709 92.3636V104H293.3V92.3636H294.709ZM303.33 104L300.67 95.2727H302.08L303.966 101.955H304.057L305.92 95.2727H307.352L309.193 101.932H309.284L311.17 95.2727H312.58L309.92 104H308.602L306.693 97.2955H306.557L304.648 104H303.33ZM314.102 104V95.2727H315.443V104H314.102ZM314.784 93.8182C314.523 93.8182 314.297 93.7292 314.108 93.5511C313.922 93.3731 313.83 93.1591 313.83 92.9091C313.83 92.6591 313.922 92.4451 314.108 92.267C314.297 92.089 314.523 92 314.784 92C315.045 92 315.269 92.089 315.455 92.267C315.644 92.4451 315.739 92.6591 315.739 92.9091C315.739 93.1591 315.644 93.3731 315.455 93.5511C315.269 93.7292 315.045 93.8182 314.784 93.8182ZM318.99 92.3636V104H317.649V92.3636H318.99ZM322.537 92.3636V104H321.196V92.3636H322.537ZM332.288 104.182C331.561 104.182 330.919 103.998 330.362 103.631C329.805 103.259 329.37 102.737 329.055 102.062C328.741 101.384 328.584 100.583 328.584 99.6591C328.584 98.7424 328.741 97.947 329.055 97.2727C329.37 96.5985 329.807 96.0777 330.368 95.7102C330.929 95.3428 331.576 95.1591 332.311 95.1591C332.879 95.1591 333.328 95.2538 333.658 95.4432C333.991 95.6288 334.245 95.8409 334.419 96.0795C334.597 96.3144 334.735 96.5076 334.834 96.6591H334.947V92.3636H336.288V104H334.993V102.659H334.834C334.735 102.818 334.595 103.019 334.413 103.261C334.232 103.5 333.972 103.714 333.635 103.903C333.298 104.089 332.849 104.182 332.288 104.182ZM332.47 102.977C333.008 102.977 333.463 102.837 333.834 102.557C334.205 102.273 334.487 101.881 334.68 101.381C334.874 100.877 334.97 100.295 334.97 99.6364C334.97 98.9848 334.875 98.4148 334.686 97.9261C334.497 97.4337 334.216 97.0511 333.845 96.7784C333.474 96.5019 333.016 96.3636 332.47 96.3636C331.902 96.3636 331.429 96.5095 331.05 96.8011C330.675 97.089 330.393 97.4811 330.203 97.9773C330.018 98.4697 329.925 99.0227 329.925 99.6364C329.925 100.258 330.019 100.822 330.209 101.33C330.402 101.833 330.686 102.235 331.061 102.534C331.44 102.83 331.91 102.977 332.47 102.977ZM342.226 104.182C341.438 104.182 340.747 103.994 340.152 103.619C339.561 103.244 339.099 102.72 338.766 102.045C338.436 101.371 338.271 100.583 338.271 99.6818C338.271 98.7727 338.436 97.9792 338.766 97.3011C339.099 96.6231 339.561 96.0966 340.152 95.7216C340.747 95.3466 341.438 95.1591 342.226 95.1591C343.014 95.1591 343.703 95.3466 344.294 95.7216C344.889 96.0966 345.351 96.6231 345.68 97.3011C346.014 97.9792 346.18 98.7727 346.18 99.6818C346.18 100.583 346.014 101.371 345.68 102.045C345.351 102.72 344.889 103.244 344.294 103.619C343.703 103.994 343.014 104.182 342.226 104.182ZM342.226 102.977C342.824 102.977 343.317 102.824 343.703 102.517C344.089 102.21 344.375 101.807 344.561 101.307C344.747 100.807 344.839 100.265 344.839 99.6818C344.839 99.0985 344.747 98.5549 344.561 98.0511C344.375 97.5473 344.089 97.1402 343.703 96.8295C343.317 96.5189 342.824 96.3636 342.226 96.3636C341.627 96.3636 341.135 96.5189 340.749 96.8295C340.362 97.1402 340.076 97.5473 339.891 98.0511C339.705 98.5549 339.612 99.0985 339.612 99.6818C339.612 100.265 339.705 100.807 339.891 101.307C340.076 101.807 340.362 102.21 340.749 102.517C341.135 102.824 341.627 102.977 342.226 102.977ZM70.2273 128V119.273H71.5227V120.636H71.6364C71.8182 120.17 72.1117 119.809 72.517 119.551C72.9223 119.29 73.4091 119.159 73.9773 119.159C74.553 119.159 75.0322 119.29 75.4148 119.551C75.8011 119.809 76.1023 120.17 76.3182 120.636H76.4091C76.6326 120.186 76.9678 119.828 77.4148 119.562C77.8617 119.294 78.3977 119.159 79.0227 119.159C79.803 119.159 80.4413 119.403 80.9375 119.892C81.4337 120.377 81.6818 121.133 81.6818 122.159V128H80.3409V122.159C80.3409 121.515 80.1648 121.055 79.8125 120.778C79.4602 120.502 79.0455 120.364 78.5682 120.364C77.9545 120.364 77.4792 120.549 77.142 120.92C76.8049 121.288 76.6364 121.754 76.6364 122.318V128H75.2727V122.023C75.2727 121.527 75.1117 121.127 74.7898 120.824C74.4678 120.517 74.053 120.364 73.5455 120.364C73.197 120.364 72.8712 120.456 72.5682 120.642C72.2689 120.828 72.0265 121.085 71.8409 121.415C71.6591 121.741 71.5682 122.117 71.5682 122.545V128H70.2273ZM84.4347 131.273C84.2074 131.273 84.0047 131.254 83.8267 131.216C83.6487 131.182 83.5256 131.148 83.4574 131.114L83.7983 129.932C84.1241 130.015 84.4119 130.045 84.6619 130.023C84.9119 130 85.1335 129.888 85.3267 129.688C85.5237 129.491 85.7036 129.17 85.8665 128.727L86.1165 128.045L82.8892 119.273H84.3438L86.7528 126.227H86.8438L89.2528 119.273H90.7074L87.0028 129.273C86.8362 129.723 86.6297 130.097 86.3835 130.392C86.1373 130.691 85.8513 130.913 85.5256 131.057C85.2036 131.201 84.84 131.273 84.4347 131.273ZM96.6591 128V116.364H98V120.659H98.1136C98.2121 120.508 98.3485 120.314 98.5227 120.08C98.7008 119.841 98.9545 119.629 99.2841 119.443C99.6174 119.254 100.068 119.159 100.636 119.159C101.371 119.159 102.019 119.343 102.58 119.71C103.14 120.078 103.578 120.598 103.892 121.273C104.206 121.947 104.364 122.742 104.364 123.659C104.364 124.583 104.206 125.384 103.892 126.062C103.578 126.737 103.142 127.259 102.585 127.631C102.028 127.998 101.386 128.182 100.659 128.182C100.098 128.182 99.6496 128.089 99.3125 127.903C98.9754 127.714 98.7159 127.5 98.5341 127.261C98.3523 127.019 98.2121 126.818 98.1136 126.659H97.9545V128H96.6591ZM97.9773 123.636C97.9773 124.295 98.0739 124.877 98.267 125.381C98.4602 125.881 98.7424 126.273 99.1136 126.557C99.4848 126.837 99.9394 126.977 100.477 126.977C101.038 126.977 101.506 126.83 101.881 126.534C102.259 126.235 102.544 125.833 102.733 125.33C102.926 124.822 103.023 124.258 103.023 123.636C103.023 123.023 102.928 122.47 102.739 121.977C102.553 121.481 102.271 121.089 101.892 120.801C101.517 120.509 101.045 120.364 100.477 120.364C99.9318 120.364 99.4735 120.502 99.1023 120.778C98.7311 121.051 98.4508 121.434 98.2614 121.926C98.072 122.415 97.9773 122.985 97.9773 123.636ZM109.824 128.182C108.983 128.182 108.258 127.996 107.648 127.625C107.042 127.25 106.574 126.727 106.244 126.057C105.919 125.383 105.756 124.598 105.756 123.705C105.756 122.811 105.919 122.023 106.244 121.341C106.574 120.655 107.032 120.121 107.619 119.739C108.21 119.352 108.9 119.159 109.688 119.159C110.142 119.159 110.591 119.235 111.034 119.386C111.477 119.538 111.881 119.784 112.244 120.125C112.608 120.462 112.898 120.909 113.114 121.466C113.33 122.023 113.438 122.708 113.438 123.523V124.091H106.71V122.932H112.074C112.074 122.439 111.975 122 111.778 121.614C111.585 121.227 111.309 120.922 110.949 120.699C110.593 120.475 110.172 120.364 109.688 120.364C109.153 120.364 108.691 120.496 108.301 120.761C107.915 121.023 107.617 121.364 107.409 121.784C107.201 122.205 107.097 122.655 107.097 123.136V123.909C107.097 124.568 107.21 125.127 107.438 125.585C107.669 126.04 107.989 126.386 108.398 126.625C108.807 126.86 109.282 126.977 109.824 126.977C110.176 126.977 110.494 126.928 110.778 126.83C111.066 126.727 111.314 126.576 111.523 126.375C111.731 126.17 111.892 125.917 112.006 125.614L113.301 125.977C113.165 126.417 112.936 126.803 112.614 127.136C112.292 127.466 111.894 127.723 111.42 127.909C110.947 128.091 110.415 128.182 109.824 128.182ZM121.409 121.227L120.205 121.568C120.129 121.367 120.017 121.172 119.869 120.983C119.725 120.79 119.528 120.631 119.278 120.506C119.028 120.381 118.708 120.318 118.318 120.318C117.784 120.318 117.339 120.441 116.983 120.688C116.631 120.93 116.455 121.239 116.455 121.614C116.455 121.947 116.576 122.21 116.818 122.403C117.061 122.597 117.439 122.758 117.955 122.886L119.25 123.205C120.03 123.394 120.612 123.684 120.994 124.074C121.377 124.46 121.568 124.958 121.568 125.568C121.568 126.068 121.424 126.515 121.136 126.909C120.852 127.303 120.455 127.614 119.943 127.841C119.432 128.068 118.837 128.182 118.159 128.182C117.269 128.182 116.532 127.989 115.949 127.602C115.366 127.216 114.996 126.652 114.841 125.909L116.114 125.591C116.235 126.061 116.464 126.413 116.801 126.648C117.142 126.883 117.587 127 118.136 127C118.761 127 119.258 126.867 119.625 126.602C119.996 126.333 120.182 126.011 120.182 125.636C120.182 125.333 120.076 125.08 119.864 124.875C119.652 124.667 119.326 124.511 118.886 124.409L117.432 124.068C116.633 123.879 116.045 123.585 115.67 123.188C115.299 122.786 115.114 122.284 115.114 121.682C115.114 121.189 115.252 120.754 115.528 120.375C115.809 119.996 116.189 119.699 116.67 119.483C117.155 119.267 117.705 119.159 118.318 119.159C119.182 119.159 119.86 119.348 120.352 119.727C120.848 120.106 121.201 120.606 121.409 121.227ZM127.132 119.273V120.409H122.609V119.273H127.132ZM123.928 117.182H125.268V125.5C125.268 125.879 125.323 126.163 125.433 126.352C125.547 126.538 125.691 126.663 125.865 126.727C126.043 126.788 126.231 126.818 126.428 126.818C126.575 126.818 126.696 126.811 126.791 126.795C126.886 126.777 126.962 126.761 127.018 126.75L127.291 127.955C127.2 127.989 127.073 128.023 126.911 128.057C126.748 128.095 126.541 128.114 126.291 128.114C125.912 128.114 125.541 128.032 125.178 127.869C124.818 127.706 124.518 127.458 124.28 127.125C124.045 126.792 123.928 126.371 123.928 125.864V117.182ZM129.876 128.091C129.596 128.091 129.356 127.991 129.155 127.79C128.954 127.589 128.854 127.348 128.854 127.068C128.854 126.788 128.954 126.547 129.155 126.347C129.356 126.146 129.596 126.045 129.876 126.045C130.157 126.045 130.397 126.146 130.598 126.347C130.799 126.547 130.899 126.788 130.899 127.068C130.899 127.254 130.852 127.424 130.757 127.58C130.666 127.735 130.543 127.86 130.388 127.955C130.236 128.045 130.066 128.091 129.876 128.091Z" fill="#121826"/>
<path d="M159.449 70.1307V68.3636H168.733V70.1307H165.136V80H163.045V70.1307H159.449ZM172.78 80.1705C171.905 80.1705 171.149 79.9886 170.513 79.625C169.88 79.2576 169.393 78.7386 169.053 78.0682C168.712 77.3939 168.541 76.6004 168.541 75.6875C168.541 74.7898 168.712 74.0019 169.053 73.3239C169.397 72.642 169.878 72.1117 170.496 71.733C171.113 71.3504 171.839 71.1591 172.672 71.1591C173.21 71.1591 173.717 71.2462 174.195 71.4205C174.676 71.5909 175.1 71.8561 175.467 72.2159C175.839 72.5758 176.13 73.0341 176.342 73.5909C176.554 74.1439 176.661 74.803 176.661 75.5682V76.1989H169.507V74.8125H174.689C174.685 74.4186 174.6 74.0682 174.433 73.7614C174.267 73.4508 174.034 73.2064 173.734 73.0284C173.439 72.8504 173.094 72.7614 172.7 72.7614C172.28 72.7614 171.911 72.8636 171.592 73.0682C171.274 73.2689 171.026 73.5341 170.848 73.8636C170.674 74.1894 170.585 74.5473 170.581 74.9375V76.1477C170.581 76.6553 170.674 77.0909 170.859 77.4545C171.045 77.8144 171.304 78.0909 171.638 78.2841C171.971 78.4735 172.361 78.5682 172.808 78.5682C173.107 78.5682 173.378 78.5265 173.621 78.4432C173.863 78.3561 174.073 78.2292 174.251 78.0625C174.429 77.8958 174.564 77.6894 174.655 77.4432L176.575 77.6591C176.454 78.1667 176.223 78.6098 175.882 78.9886C175.545 79.3636 175.113 79.6553 174.587 79.8636C174.06 80.0682 173.458 80.1705 172.78 80.1705ZM178.151 80V71.2727H180.145V72.7273H180.236C180.395 72.2235 180.668 71.8352 181.054 71.5625C181.444 71.286 181.889 71.1477 182.389 71.1477C182.503 71.1477 182.63 71.1534 182.77 71.1648C182.914 71.1723 183.033 71.1856 183.128 71.2045V73.0966C183.041 73.0663 182.902 73.0398 182.713 73.017C182.527 72.9905 182.348 72.9773 182.173 72.9773C181.798 72.9773 181.461 73.0587 181.162 73.2216C180.866 73.3807 180.634 73.6023 180.463 73.8864C180.293 74.1705 180.207 74.4981 180.207 74.8693V80H178.151ZM184.244 80V71.2727H186.21V72.7557H186.312C186.494 72.2557 186.795 71.8655 187.216 71.5852C187.636 71.3011 188.138 71.1591 188.722 71.1591C189.312 71.1591 189.811 71.303 190.216 71.5909C190.625 71.875 190.913 72.2633 191.08 72.7557H191.17C191.364 72.2708 191.689 71.8845 192.148 71.5966C192.61 71.3049 193.157 71.1591 193.79 71.1591C194.593 71.1591 195.248 71.4129 195.756 71.9205C196.263 72.428 196.517 73.1686 196.517 74.142V80H194.455V74.4602C194.455 73.9186 194.311 73.5227 194.023 73.2727C193.735 73.0189 193.383 72.892 192.966 72.892C192.47 72.892 192.081 73.0473 191.801 73.358C191.525 73.6648 191.386 74.0644 191.386 74.5568V80H189.369V74.375C189.369 73.9242 189.233 73.5644 188.96 73.2955C188.691 73.0265 188.339 72.892 187.903 72.892C187.608 72.892 187.339 72.9678 187.097 73.1193C186.854 73.267 186.661 73.4773 186.517 73.75C186.373 74.0189 186.301 74.3333 186.301 74.6932V80H184.244ZM205.251 73.5795L203.376 73.7841C203.323 73.5947 203.231 73.4167 203.098 73.25C202.969 73.0833 202.795 72.9489 202.575 72.8466C202.356 72.7443 202.087 72.6932 201.768 72.6932C201.34 72.6932 200.981 72.786 200.689 72.9716C200.401 73.1572 200.259 73.3977 200.263 73.6932C200.259 73.947 200.352 74.1534 200.541 74.3125C200.734 74.4716 201.053 74.6023 201.496 74.7045L202.984 75.0227C203.81 75.2008 204.424 75.483 204.825 75.8693C205.231 76.2557 205.435 76.7614 205.439 77.3864C205.435 77.9356 205.274 78.4205 204.956 78.8409C204.642 79.2576 204.204 79.5833 203.643 79.8182C203.083 80.053 202.439 80.1705 201.712 80.1705C200.643 80.1705 199.784 79.947 199.132 79.5C198.481 79.0492 198.092 78.4223 197.967 77.6193L199.973 77.4261C200.064 77.8201 200.257 78.1174 200.553 78.3182C200.848 78.5189 201.232 78.6193 201.706 78.6193C202.195 78.6193 202.587 78.5189 202.882 78.3182C203.181 78.1174 203.331 77.8693 203.331 77.5739C203.331 77.3239 203.234 77.1174 203.041 76.9545C202.852 76.7917 202.556 76.6667 202.155 76.5795L200.666 76.267C199.829 76.0928 199.21 75.7992 198.808 75.3864C198.407 74.9697 198.208 74.4432 198.212 73.8068C198.208 73.2689 198.354 72.803 198.649 72.4091C198.948 72.0114 199.363 71.7045 199.893 71.4886C200.428 71.2689 201.043 71.1591 201.74 71.1591C202.763 71.1591 203.568 71.3769 204.155 71.8125C204.746 72.2481 205.111 72.8371 205.251 73.5795ZM214.081 80.1705C213.286 80.1705 212.602 80.0265 212.03 79.7386C211.458 79.4508 211.017 79.0625 210.706 78.5739C210.399 78.0814 210.246 77.5265 210.246 76.9091C210.246 76.4432 210.34 76.0303 210.53 75.6705C210.723 75.3106 210.988 74.9773 211.325 74.6705C211.666 74.3636 212.06 74.0587 212.507 73.7557L214.57 72.3523C214.873 72.1553 215.102 71.947 215.257 71.7273C215.416 71.5076 215.496 71.25 215.496 70.9545C215.496 70.7045 215.39 70.4678 215.178 70.2443C214.969 70.0208 214.681 69.9091 214.314 69.9091C214.068 69.9091 213.85 69.9678 213.661 70.0852C213.475 70.1989 213.329 70.3485 213.223 70.5341C213.121 70.7197 213.07 70.9167 213.07 71.125C213.07 71.3788 213.14 71.6364 213.28 71.8977C213.424 72.1591 213.609 72.4299 213.837 72.7102C214.068 72.9905 214.314 73.2879 214.575 73.6023L220.036 80H217.808L213.274 74.8068C212.937 74.4129 212.611 74.0246 212.297 73.642C211.986 73.2595 211.731 72.8617 211.53 72.4489C211.333 72.0322 211.234 71.5814 211.234 71.0966C211.234 70.5473 211.361 70.0568 211.615 69.625C211.869 69.1894 212.223 68.8466 212.678 68.5966C213.136 68.3466 213.672 68.2216 214.286 68.2216C214.899 68.2216 215.426 68.3428 215.865 68.5852C216.304 68.8277 216.643 69.1496 216.882 69.5511C217.121 69.9527 217.24 70.3902 217.24 70.8636C217.24 71.4129 217.104 71.9053 216.831 72.3409C216.558 72.7727 216.179 73.1648 215.695 73.517L213.342 75.2386C212.956 75.5189 212.679 75.803 212.513 76.0909C212.346 76.375 212.263 76.6174 212.263 76.8182C212.263 77.125 212.34 77.4034 212.496 77.6534C212.651 77.9034 212.869 78.1042 213.149 78.2557C213.433 78.4034 213.765 78.4773 214.143 78.4773C214.56 78.4773 214.971 78.3845 215.376 78.1989C215.782 78.0095 216.151 77.7405 216.484 77.392C216.818 77.0436 217.083 76.6269 217.28 76.142C217.477 75.6534 217.575 75.1117 217.575 74.517H219.342C219.342 75.2519 219.261 75.892 219.098 76.4375C218.935 76.9792 218.725 77.4375 218.467 77.8125C218.21 78.1837 217.937 78.4811 217.649 78.7045C217.558 78.7689 217.471 78.8333 217.388 78.8977C217.304 78.9621 217.217 79.0265 217.126 79.0909C216.717 79.4621 216.238 79.7348 215.689 79.9091C215.143 80.0833 214.607 80.1705 214.081 80.1705ZM234.733 72.2898H232.608C232.547 71.9413 232.436 71.6326 232.273 71.3636C232.11 71.0909 231.907 70.8598 231.665 70.6705C231.422 70.4811 231.146 70.339 230.835 70.2443C230.528 70.1458 230.197 70.0966 229.841 70.0966C229.208 70.0966 228.648 70.2557 228.159 70.5739C227.67 70.8883 227.288 71.3504 227.011 71.9602C226.735 72.5663 226.597 73.3068 226.597 74.1818C226.597 75.072 226.735 75.822 227.011 76.4318C227.292 77.0379 227.674 77.4962 228.159 77.8068C228.648 78.1136 229.206 78.267 229.835 78.267C230.184 78.267 230.509 78.2216 230.812 78.1307C231.119 78.036 231.394 77.8977 231.636 77.7159C231.883 77.5341 232.089 77.3106 232.256 77.0455C232.426 76.7803 232.544 76.4773 232.608 76.1364L234.733 76.1477C234.653 76.7008 234.481 77.2197 234.216 77.7045C233.955 78.1894 233.612 78.6174 233.188 78.9886C232.763 79.3561 232.267 79.6439 231.699 79.8523C231.131 80.0568 230.5 80.1591 229.807 80.1591C228.784 80.1591 227.871 79.9223 227.068 79.4489C226.265 78.9754 225.633 78.2917 225.17 77.3977C224.708 76.5038 224.477 75.4318 224.477 74.1818C224.477 72.928 224.71 71.8561 225.176 70.9659C225.642 70.072 226.277 69.3883 227.08 68.9148C227.883 68.4413 228.792 68.2045 229.807 68.2045C230.455 68.2045 231.057 68.2955 231.614 68.4773C232.17 68.6591 232.667 68.9261 233.102 69.2784C233.538 69.6269 233.896 70.0549 234.176 70.5625C234.46 71.0663 234.646 71.642 234.733 72.2898ZM240.129 80.1705C239.277 80.1705 238.538 79.983 237.913 79.608C237.288 79.233 236.804 78.7083 236.459 78.0341C236.118 77.3598 235.947 76.572 235.947 75.6705C235.947 74.7689 236.118 73.9792 236.459 73.3011C236.804 72.6231 237.288 72.0966 237.913 71.7216C238.538 71.3466 239.277 71.1591 240.129 71.1591C240.982 71.1591 241.72 71.3466 242.345 71.7216C242.97 72.0966 243.453 72.6231 243.794 73.3011C244.139 73.9792 244.311 74.7689 244.311 75.6705C244.311 76.572 244.139 77.3598 243.794 78.0341C243.453 78.7083 242.97 79.233 242.345 79.608C241.72 79.983 240.982 80.1705 240.129 80.1705ZM240.141 78.5227C240.603 78.5227 240.989 78.3958 241.3 78.142C241.61 77.8845 241.841 77.5398 241.993 77.108C242.148 76.6761 242.226 76.1951 242.226 75.6648C242.226 75.1307 242.148 74.6477 241.993 74.2159C241.841 73.7803 241.61 73.4337 241.3 73.1761C240.989 72.9186 240.603 72.7898 240.141 72.7898C239.667 72.7898 239.273 72.9186 238.959 73.1761C238.648 73.4337 238.415 73.7803 238.26 74.2159C238.108 74.6477 238.033 75.1307 238.033 75.6648C238.033 76.1951 238.108 76.6761 238.26 77.108C238.415 77.5398 238.648 77.8845 238.959 78.142C239.273 78.3958 239.667 78.5227 240.141 78.5227ZM247.864 74.8864V80H245.807V71.2727H247.773V72.7557H247.875C248.076 72.267 248.396 71.8788 248.835 71.5909C249.278 71.303 249.826 71.1591 250.477 71.1591C251.08 71.1591 251.604 71.2879 252.051 71.5455C252.502 71.803 252.85 72.1761 253.097 72.6648C253.347 73.1534 253.47 73.7462 253.466 74.4432V80H251.409V74.7614C251.409 74.178 251.258 73.7216 250.955 73.392C250.655 73.0625 250.241 72.8977 249.71 72.8977C249.35 72.8977 249.03 72.9773 248.75 73.1364C248.473 73.2917 248.256 73.517 248.097 73.8125C247.941 74.108 247.864 74.4659 247.864 74.8864ZM258.545 80.1534C257.86 80.1534 257.246 79.9773 256.705 79.625C256.163 79.2727 255.735 78.7614 255.42 78.0909C255.106 77.4205 254.949 76.6061 254.949 75.6477C254.949 74.678 255.108 73.8598 255.426 73.1932C255.748 72.5227 256.182 72.017 256.727 71.6761C257.273 71.3314 257.881 71.1591 258.551 71.1591C259.063 71.1591 259.483 71.2462 259.812 71.4205C260.142 71.5909 260.403 71.7973 260.597 72.0398C260.79 72.2784 260.939 72.5038 261.045 72.7159H261.131V68.3636H263.193V80H261.17V78.625H261.045C260.939 78.8371 260.786 79.0625 260.585 79.3011C260.384 79.536 260.119 79.7367 259.79 79.9034C259.46 80.0701 259.045 80.1534 258.545 80.1534ZM259.119 78.4659C259.555 78.4659 259.926 78.3485 260.233 78.1136C260.54 77.875 260.773 77.5436 260.932 77.1193C261.091 76.6951 261.17 76.2008 261.17 75.6364C261.17 75.072 261.091 74.5814 260.932 74.1648C260.777 73.7481 260.545 73.4242 260.239 73.1932C259.936 72.9621 259.563 72.8466 259.119 72.8466C258.661 72.8466 258.278 72.9659 257.972 73.2045C257.665 73.4432 257.434 73.7727 257.278 74.1932C257.123 74.6136 257.045 75.0947 257.045 75.6364C257.045 76.1818 257.123 76.6686 257.278 77.0966C257.438 77.5208 257.67 77.8561 257.977 78.1023C258.288 78.3447 258.669 78.4659 259.119 78.4659ZM265.135 80V71.2727H267.192V80H265.135ZM266.169 70.0341C265.843 70.0341 265.563 69.9261 265.328 69.7102C265.093 69.4905 264.976 69.2273 264.976 68.9205C264.976 68.6098 265.093 68.3466 265.328 68.1307C265.563 67.911 265.843 67.8011 266.169 67.8011C266.499 67.8011 266.779 67.911 267.01 68.1307C267.245 68.3466 267.362 68.6098 267.362 68.9205C267.362 69.2273 267.245 69.4905 267.01 69.7102C266.779 69.9261 266.499 70.0341 266.169 70.0341ZM273.415 71.2727V72.8636H268.398V71.2727H273.415ZM269.636 69.1818H271.693V77.375C271.693 77.6515 271.735 77.8636 271.818 78.0114C271.905 78.1553 272.019 78.2538 272.159 78.3068C272.299 78.3598 272.455 78.3864 272.625 78.3864C272.754 78.3864 272.871 78.3769 272.977 78.358C273.087 78.339 273.17 78.322 273.227 78.3068L273.574 79.9148C273.464 79.9527 273.307 79.9943 273.102 80.0398C272.902 80.0852 272.655 80.1117 272.364 80.1193C271.848 80.1345 271.384 80.0568 270.972 79.8864C270.559 79.7121 270.231 79.4432 269.989 79.0795C269.75 78.7159 269.633 78.2614 269.636 77.7159V69.1818ZM274.885 80V71.2727H276.942V80H274.885ZM275.919 70.0341C275.593 70.0341 275.313 69.9261 275.078 69.7102C274.843 69.4905 274.726 69.2273 274.726 68.9205C274.726 68.6098 274.843 68.3466 275.078 68.1307C275.313 67.911 275.593 67.8011 275.919 67.8011C276.249 67.8011 276.529 67.911 276.76 68.1307C276.995 68.3466 277.112 68.6098 277.112 68.9205C277.112 69.2273 276.995 69.4905 276.76 69.7102C276.529 69.9261 276.249 70.0341 275.919 70.0341ZM282.614 80.1705C281.761 80.1705 281.023 79.983 280.398 79.608C279.773 79.233 279.288 78.7083 278.943 78.0341C278.602 77.3598 278.432 76.572 278.432 75.6705C278.432 74.7689 278.602 73.9792 278.943 73.3011C279.288 72.6231 279.773 72.0966 280.398 71.7216C281.023 71.3466 281.761 71.1591 282.614 71.1591C283.466 71.1591 284.205 71.3466 284.83 71.7216C285.455 72.0966 285.938 72.6231 286.278 73.3011C286.623 73.9792 286.795 74.7689 286.795 75.6705C286.795 76.572 286.623 77.3598 286.278 78.0341C285.938 78.7083 285.455 79.233 284.83 79.608C284.205 79.983 283.466 80.1705 282.614 80.1705ZM282.625 78.5227C283.087 78.5227 283.473 78.3958 283.784 78.142C284.095 77.8845 284.326 77.5398 284.477 77.108C284.633 76.6761 284.71 76.1951 284.71 75.6648C284.71 75.1307 284.633 74.6477 284.477 74.2159C284.326 73.7803 284.095 73.4337 283.784 73.1761C283.473 72.9186 283.087 72.7898 282.625 72.7898C282.152 72.7898 281.758 72.9186 281.443 73.1761C281.133 73.4337 280.9 73.7803 280.744 74.2159C280.593 74.6477 280.517 75.1307 280.517 75.6648C280.517 76.1951 280.593 76.6761 280.744 77.108C280.9 77.5398 281.133 77.8845 281.443 78.142C281.758 78.3958 282.152 78.5227 282.625 78.5227ZM290.348 74.8864V80H288.291V71.2727H290.257V72.7557H290.359C290.56 72.267 290.88 71.8788 291.32 71.5909C291.763 71.303 292.31 71.1591 292.962 71.1591C293.564 71.1591 294.089 71.2879 294.536 71.5455C294.986 71.803 295.335 72.1761 295.581 72.6648C295.831 73.1534 295.954 73.7462 295.95 74.4432V80H293.893V74.7614C293.893 74.178 293.742 73.7216 293.439 73.392C293.14 73.0625 292.725 72.8977 292.195 72.8977C291.835 72.8977 291.515 72.9773 291.234 73.1364C290.958 73.2917 290.74 73.517 290.581 73.8125C290.426 74.108 290.348 74.4659 290.348 74.8864ZM304.689 73.5795L302.814 73.7841C302.761 73.5947 302.668 73.4167 302.536 73.25C302.407 73.0833 302.232 72.9489 302.013 72.8466C301.793 72.7443 301.524 72.6932 301.206 72.6932C300.778 72.6932 300.418 72.786 300.126 72.9716C299.839 73.1572 299.696 73.3977 299.7 73.6932C299.696 73.947 299.789 74.1534 299.979 74.3125C300.172 74.4716 300.49 74.6023 300.933 74.7045L302.422 75.0227C303.248 75.2008 303.861 75.483 304.263 75.8693C304.668 76.2557 304.873 76.7614 304.876 77.3864C304.873 77.9356 304.712 78.4205 304.393 78.8409C304.079 79.2576 303.642 79.5833 303.081 79.8182C302.52 80.053 301.876 80.1705 301.149 80.1705C300.081 80.1705 299.221 79.947 298.57 79.5C297.918 79.0492 297.53 78.4223 297.405 77.6193L299.411 77.4261C299.501 77.8201 299.695 78.1174 299.99 78.3182C300.286 78.5189 300.67 78.6193 301.143 78.6193C301.632 78.6193 302.024 78.5189 302.32 78.3182C302.619 78.1174 302.768 77.8693 302.768 77.5739C302.768 77.3239 302.672 77.1174 302.479 76.9545C302.289 76.7917 301.994 76.6667 301.592 76.5795L300.104 76.267C299.267 76.0928 298.647 75.7992 298.246 75.3864C297.844 74.9697 297.645 74.4432 297.649 73.8068C297.645 73.2689 297.791 72.803 298.087 72.4091C298.386 72.0114 298.801 71.7045 299.331 71.4886C299.865 71.2689 300.481 71.1591 301.178 71.1591C302.2 71.1591 303.005 71.3769 303.592 71.8125C304.183 72.2481 304.549 72.8371 304.689 73.5795Z" fill="#4E80EE"/>
<path d="M158.812 83.1818H305.268V84.2727H158.812V83.1818Z" fill="#4E80EE"/>
<rect x="0.5" y="0.5" width="389" height="195" rx="7.5" stroke="#CA3A31" stroke-opacity="0.1"/>
</svg>
