<svg width="802" height="196" viewBox="0 0 802 196" fill="none" xmlns="http://www.w3.org/2000/svg">
<rect width="802" height="196" rx="8" fill="#CA3A31" fill-opacity="0.1"/>
<path d="M41.6013 175.511L30.6701 156.528C30.3969 156.062 30.007 155.677 29.5388 155.409C29.0707 155.141 28.5407 155 28.0013 155C27.462 155 26.9319 155.141 26.4638 155.409C25.9957 155.677 25.6058 156.062 25.3326 156.528L14.4013 175.511C14.1385 175.961 14 176.473 14 176.994C14 177.515 14.1385 178.026 14.4013 178.476C14.671 178.944 15.0603 179.332 15.5293 179.6C15.9983 179.868 16.5301 180.006 17.0701 180H38.9326C39.4722 180.005 40.0035 179.867 40.472 179.599C40.9405 179.331 41.3294 178.944 41.5988 178.476C41.8621 178.027 42.001 177.515 42.0014 176.994C42.0019 176.473 41.8638 175.961 41.6013 175.511ZM27.0013 165C27.0013 164.735 27.1067 164.481 27.2942 164.293C27.4818 164.105 27.7361 164 28.0013 164C28.2666 164 28.5209 164.105 28.7084 164.293C28.896 164.481 29.0013 164.735 29.0013 165V170C29.0013 170.265 28.896 170.52 28.7084 170.707C28.5209 170.895 28.2666 171 28.0013 171C27.7361 171 27.4818 170.895 27.2942 170.707C27.1067 170.52 27.0013 170.265 27.0013 170V165ZM28.0013 176C27.7047 176 27.4147 175.912 27.168 175.747C26.9213 175.582 26.7291 175.348 26.6155 175.074C26.502 174.8 26.4723 174.498 26.5302 174.207C26.588 173.916 26.7309 173.649 26.9407 173.439C27.1505 173.23 27.4177 173.087 27.7087 173.029C27.9997 172.971 28.3013 173.001 28.5754 173.114C28.8495 173.228 29.0837 173.42 29.2485 173.667C29.4134 173.913 29.5013 174.203 29.5013 174.5C29.5013 174.898 29.3433 175.279 29.062 175.561C28.7807 175.842 28.3992 176 28.0013 176Z" fill="#CA3A31"/>
<path fill-rule="evenodd" clip-rule="evenodd" d="M89 88C83.4772 88 79 92.4772 79 98C79 103.523 83.4772 108 89 108C94.5228 108 99 103.523 99 98C99 92.4772 94.5228 88 89 88ZM89 103C91.7614 103 94 100.761 94 98C94 95.2386 91.7614 93 89 93C86.2386 93 84 95.2386 84 98C84 100.761 86.2386 103 89 103Z" fill="#217CF5"/>
<path d="M116.773 83.2727C116.705 82.697 116.428 82.25 115.943 81.9318C115.458 81.6136 114.864 81.4545 114.159 81.4545C113.644 81.4545 113.193 81.5379 112.807 81.7045C112.424 81.8712 112.125 82.1004 111.909 82.392C111.697 82.6837 111.591 83.0152 111.591 83.3864C111.591 83.697 111.665 83.964 111.812 84.1875C111.964 84.4072 112.157 84.5909 112.392 84.7386C112.627 84.8826 112.873 85.0019 113.131 85.0966C113.388 85.1875 113.625 85.2614 113.841 85.3182L115.023 85.6364C115.326 85.7159 115.663 85.8258 116.034 85.9659C116.409 86.1061 116.767 86.2973 117.108 86.5398C117.453 86.7784 117.737 87.0852 117.96 87.4602C118.184 87.8352 118.295 88.2955 118.295 88.8409C118.295 89.4697 118.131 90.0379 117.801 90.5455C117.475 91.053 116.998 91.4564 116.369 91.7557C115.744 92.0549 114.985 92.2045 114.091 92.2045C113.258 92.2045 112.536 92.0701 111.926 91.8011C111.32 91.5322 110.843 91.1572 110.494 90.6761C110.15 90.1951 109.955 89.6364 109.909 89H111.364C111.402 89.4394 111.549 89.803 111.807 90.0909C112.068 90.375 112.398 90.5871 112.795 90.7273C113.197 90.8636 113.629 90.9318 114.091 90.9318C114.629 90.9318 115.112 90.8447 115.54 90.6705C115.968 90.4924 116.307 90.2462 116.557 89.9318C116.807 89.6136 116.932 89.2424 116.932 88.8182C116.932 88.4318 116.824 88.1174 116.608 87.875C116.392 87.6326 116.108 87.4356 115.756 87.2841C115.403 87.1326 115.023 87 114.614 86.8864L113.182 86.4773C112.273 86.2159 111.553 85.8428 111.023 85.358C110.492 84.8731 110.227 84.2386 110.227 83.4545C110.227 82.803 110.403 82.2348 110.756 81.75C111.112 81.2614 111.589 80.8826 112.188 80.6136C112.79 80.3409 113.462 80.2045 114.205 80.2045C114.955 80.2045 115.621 80.339 116.205 80.608C116.788 80.8731 117.25 81.2367 117.591 81.6989C117.936 82.161 118.117 82.6856 118.136 83.2727H116.773ZM123.839 92.1818C122.999 92.1818 122.273 91.9962 121.663 91.625C121.057 91.25 120.589 90.7273 120.26 90.0568C119.934 89.3826 119.771 88.5985 119.771 87.7045C119.771 86.8106 119.934 86.0227 120.26 85.3409C120.589 84.6553 121.048 84.1212 121.635 83.7386C122.226 83.3523 122.915 83.1591 123.703 83.1591C124.158 83.1591 124.607 83.2348 125.05 83.3864C125.493 83.5379 125.896 83.7841 126.26 84.125C126.624 84.4621 126.913 84.9091 127.129 85.4659C127.345 86.0227 127.453 86.7083 127.453 87.5227V88.0909H120.726V86.9318H126.089C126.089 86.4394 125.991 86 125.794 85.6136C125.601 85.2273 125.324 84.9223 124.964 84.6989C124.608 84.4754 124.188 84.3636 123.703 84.3636C123.169 84.3636 122.707 84.4962 122.317 84.7614C121.93 85.0227 121.633 85.3636 121.425 85.7841C121.216 86.2045 121.112 86.6553 121.112 87.1364V87.9091C121.112 88.5682 121.226 89.1269 121.453 89.5852C121.684 90.0398 122.004 90.3864 122.413 90.625C122.822 90.8598 123.298 90.9773 123.839 90.9773C124.192 90.9773 124.51 90.928 124.794 90.8295C125.082 90.7273 125.33 90.5758 125.538 90.375C125.747 90.1705 125.908 89.9167 126.021 89.6136L127.317 89.9773C127.18 90.4167 126.951 90.803 126.629 91.1364C126.307 91.4659 125.91 91.7235 125.436 91.9091C124.963 92.0909 124.43 92.1818 123.839 92.1818ZM135.197 95.2727V90.6591H135.084C134.985 90.8182 134.845 91.0189 134.663 91.2614C134.482 91.5 134.222 91.714 133.885 91.9034C133.548 92.089 133.099 92.1818 132.538 92.1818C131.811 92.1818 131.169 91.9981 130.612 91.6307C130.055 91.2595 129.62 90.7367 129.305 90.0625C128.991 89.3845 128.834 88.5833 128.834 87.6591C128.834 86.7424 128.991 85.947 129.305 85.2727C129.62 84.5985 130.057 84.0777 130.618 83.7102C131.179 83.3428 131.826 83.1591 132.561 83.1591C133.129 83.1591 133.578 83.2538 133.908 83.4432C134.241 83.6288 134.495 83.8409 134.669 84.0795C134.847 84.3144 134.985 84.5076 135.084 84.6591H135.243V83.2727H136.538V95.2727H135.197ZM132.72 90.9773C133.258 90.9773 133.713 90.8371 134.084 90.5568C134.455 90.2727 134.737 89.8807 134.93 89.3807C135.124 88.8769 135.22 88.2955 135.22 87.6364C135.22 86.9848 135.125 86.4148 134.936 85.9261C134.747 85.4337 134.466 85.0511 134.095 84.7784C133.724 84.5019 133.266 84.3636 132.72 84.3636C132.152 84.3636 131.679 84.5095 131.3 84.8011C130.925 85.089 130.643 85.4811 130.453 85.9773C130.268 86.4697 130.175 87.0227 130.175 87.6364C130.175 88.2576 130.269 88.822 130.459 89.3295C130.652 89.8333 130.936 90.2348 131.311 90.5341C131.69 90.8295 132.16 90.9773 132.72 90.9773ZM144.243 88.4318V83.2727H145.584V92H144.243V90.5227H144.152C143.947 90.9659 143.629 91.3428 143.197 91.6534C142.766 91.9602 142.22 92.1136 141.561 92.1136C141.016 92.1136 140.531 91.9943 140.107 91.7557C139.682 91.5133 139.349 91.1496 139.107 90.6648C138.864 90.1761 138.743 89.5606 138.743 88.8182V83.2727H140.084V88.7273C140.084 89.3636 140.262 89.8712 140.618 90.25C140.978 90.6288 141.436 90.8182 141.993 90.8182C142.326 90.8182 142.665 90.733 143.01 90.5625C143.358 90.392 143.65 90.1307 143.885 89.7784C144.124 89.4261 144.243 88.9773 144.243 88.4318ZM147.79 92V83.2727H149.131V92H147.79ZM148.472 81.8182C148.21 81.8182 147.985 81.7292 147.795 81.5511C147.61 81.3731 147.517 81.1591 147.517 80.9091C147.517 80.6591 147.61 80.4451 147.795 80.267C147.985 80.089 148.21 80 148.472 80C148.733 80 148.956 80.089 149.142 80.267C149.331 80.4451 149.426 80.6591 149.426 80.9091C149.426 81.1591 149.331 81.3731 149.142 81.5511C148.956 81.7292 148.733 81.8182 148.472 81.8182ZM156.928 86.75V92H155.587V83.2727H156.882V84.6364H156.996C157.2 84.1932 157.511 83.8371 157.928 83.5682C158.344 83.2955 158.882 83.1591 159.541 83.1591C160.132 83.1591 160.649 83.2803 161.092 83.5227C161.536 83.7614 161.88 84.125 162.126 84.6136C162.373 85.0985 162.496 85.7121 162.496 86.4545V92H161.155V86.5455C161.155 85.8598 160.977 85.3258 160.621 84.9432C160.265 84.5568 159.776 84.3636 159.155 84.3636C158.727 84.3636 158.344 84.4564 158.007 84.642C157.674 84.8277 157.411 85.0985 157.217 85.4545C157.024 85.8106 156.928 86.2424 156.928 86.75ZM168.241 92.1818C167.454 92.1818 166.762 91.9943 166.168 91.6193C165.577 91.2443 165.115 90.7197 164.781 90.0455C164.452 89.3712 164.287 88.5833 164.287 87.6818C164.287 86.7727 164.452 85.9792 164.781 85.3011C165.115 84.6231 165.577 84.0966 166.168 83.7216C166.762 83.3466 167.454 83.1591 168.241 83.1591C169.029 83.1591 169.719 83.3466 170.31 83.7216C170.904 84.0966 171.366 84.6231 171.696 85.3011C172.029 85.9792 172.196 86.7727 172.196 87.6818C172.196 88.5833 172.029 89.3712 171.696 90.0455C171.366 90.7197 170.904 91.2443 170.31 91.6193C169.719 91.9943 169.029 92.1818 168.241 92.1818ZM168.241 90.9773C168.84 90.9773 169.332 90.8239 169.719 90.517C170.105 90.2102 170.391 89.8068 170.577 89.3068C170.762 88.8068 170.855 88.2652 170.855 87.6818C170.855 87.0985 170.762 86.5549 170.577 86.0511C170.391 85.5473 170.105 85.1402 169.719 84.8295C169.332 84.5189 168.84 84.3636 168.241 84.3636C167.643 84.3636 167.151 84.5189 166.764 84.8295C166.378 85.1402 166.092 85.5473 165.906 86.0511C165.721 86.5549 165.628 87.0985 165.628 87.6818C165.628 88.2652 165.721 88.8068 165.906 89.3068C166.092 89.8068 166.378 90.2102 166.764 90.517C167.151 90.8239 167.643 90.9773 168.241 90.9773ZM175.334 86.75V92H173.993V83.2727H175.288V84.6364H175.402C175.607 84.1932 175.917 83.8371 176.334 83.5682C176.75 83.2955 177.288 83.1591 177.947 83.1591C178.538 83.1591 179.055 83.2803 179.499 83.5227C179.942 83.7614 180.286 84.125 180.533 84.6136C180.779 85.0985 180.902 85.7121 180.902 86.4545V92H179.561V86.5455C179.561 85.8598 179.383 85.3258 179.027 84.9432C178.671 84.5568 178.182 84.3636 177.561 84.3636C177.133 84.3636 176.75 84.4564 176.413 84.642C176.08 84.8277 175.817 85.0985 175.624 85.4545C175.43 85.8106 175.334 86.2424 175.334 86.75ZM190.898 92.1818C190.11 92.1818 189.419 91.9943 188.824 91.6193C188.233 91.2443 187.771 90.7197 187.438 90.0455C187.108 89.3712 186.943 88.5833 186.943 87.6818C186.943 86.7727 187.108 85.9792 187.438 85.3011C187.771 84.6231 188.233 84.0966 188.824 83.7216C189.419 83.3466 190.11 83.1591 190.898 83.1591C191.686 83.1591 192.375 83.3466 192.966 83.7216C193.561 84.0966 194.023 84.6231 194.352 85.3011C194.686 85.9792 194.852 86.7727 194.852 87.6818C194.852 88.5833 194.686 89.3712 194.352 90.0455C194.023 90.7197 193.561 91.2443 192.966 91.6193C192.375 91.9943 191.686 92.1818 190.898 92.1818ZM190.898 90.9773C191.496 90.9773 191.989 90.8239 192.375 90.517C192.761 90.2102 193.047 89.8068 193.233 89.3068C193.419 88.8068 193.511 88.2652 193.511 87.6818C193.511 87.0985 193.419 86.5549 193.233 86.0511C193.047 85.5473 192.761 85.1402 192.375 84.8295C191.989 84.5189 191.496 84.3636 190.898 84.3636C190.299 84.3636 189.807 84.5189 189.42 84.8295C189.034 85.1402 188.748 85.5473 188.562 86.0511C188.377 86.5549 188.284 87.0985 188.284 87.6818C188.284 88.2652 188.377 88.8068 188.562 89.3068C188.748 89.8068 189.034 90.2102 189.42 90.517C189.807 90.8239 190.299 90.9773 190.898 90.9773ZM196.649 92V83.2727H197.945V84.6364H198.058C198.24 84.1705 198.534 83.8087 198.939 83.5511C199.344 83.2898 199.831 83.1591 200.399 83.1591C200.975 83.1591 201.454 83.2898 201.837 83.5511C202.223 83.8087 202.524 84.1705 202.74 84.6364H202.831C203.054 84.1856 203.39 83.8277 203.837 83.5625C204.284 83.2936 204.82 83.1591 205.445 83.1591C206.225 83.1591 206.863 83.4034 207.359 83.892C207.856 84.3769 208.104 85.1326 208.104 86.1591V92H206.763V86.1591C206.763 85.5152 206.587 85.0549 206.234 84.7784C205.882 84.5019 205.467 84.3636 204.99 84.3636C204.376 84.3636 203.901 84.5492 203.564 84.9205C203.227 85.2879 203.058 85.7538 203.058 86.3182V92H201.695V86.0227C201.695 85.5265 201.534 85.1269 201.212 84.8239C200.89 84.517 200.475 84.3636 199.967 84.3636C199.619 84.3636 199.293 84.4564 198.99 84.642C198.691 84.8277 198.448 85.0852 198.263 85.4148C198.081 85.7405 197.99 86.1174 197.99 86.5455V92H196.649ZM211.646 86.75V92H210.305V83.2727H211.601V84.6364H211.714C211.919 84.1932 212.23 83.8371 212.646 83.5682C213.063 83.2955 213.601 83.1591 214.26 83.1591C214.851 83.1591 215.368 83.2803 215.811 83.5227C216.254 83.7614 216.599 84.125 216.845 84.6136C217.091 85.0985 217.214 85.7121 217.214 86.4545V92H215.874V86.5455C215.874 85.8598 215.696 85.3258 215.339 84.9432C214.983 84.5568 214.495 84.3636 213.874 84.3636C213.446 84.3636 213.063 84.4564 212.726 84.642C212.393 84.8277 212.129 85.0985 211.936 85.4545C211.743 85.8106 211.646 86.2424 211.646 86.75ZM219.415 92V83.2727H220.756V92H219.415ZM220.097 81.8182C219.835 81.8182 219.61 81.7292 219.42 81.5511C219.235 81.3731 219.142 81.1591 219.142 80.9091C219.142 80.6591 219.235 80.4451 219.42 80.267C219.61 80.089 219.835 80 220.097 80C220.358 80 220.581 80.089 220.767 80.267C220.956 80.4451 221.051 80.6591 221.051 80.9091C221.051 81.1591 220.956 81.3731 220.767 81.5511C220.581 81.7292 220.358 81.8182 220.097 81.8182ZM229.143 85.2273L227.939 85.5682C227.863 85.3674 227.751 85.1723 227.604 84.983C227.46 84.7898 227.263 84.6307 227.013 84.5057C226.763 84.3807 226.443 84.3182 226.053 84.3182C225.518 84.3182 225.073 84.4413 224.717 84.6875C224.365 84.9299 224.189 85.2386 224.189 85.6136C224.189 85.947 224.31 86.2102 224.553 86.4034C224.795 86.5966 225.174 86.7576 225.689 86.8864L226.984 87.2045C227.765 87.3939 228.346 87.6837 228.729 88.0739C229.111 88.4602 229.303 88.9583 229.303 89.5682C229.303 90.0682 229.159 90.5152 228.871 90.9091C228.587 91.303 228.189 91.6136 227.678 91.8409C227.166 92.0682 226.571 92.1818 225.893 92.1818C225.003 92.1818 224.267 91.9886 223.683 91.6023C223.1 91.2159 222.731 90.6515 222.575 89.9091L223.848 89.5909C223.969 90.0606 224.198 90.4129 224.536 90.6477C224.876 90.8826 225.321 91 225.871 91C226.496 91 226.992 90.8674 227.359 90.6023C227.731 90.3333 227.916 90.0114 227.916 89.6364C227.916 89.3333 227.81 89.0795 227.598 88.875C227.386 88.6667 227.06 88.5114 226.621 88.4091L225.166 88.0682C224.367 87.8788 223.78 87.5852 223.405 87.1875C223.034 86.786 222.848 86.2841 222.848 85.6818C222.848 85.1894 222.986 84.7538 223.263 84.375C223.543 83.9962 223.924 83.6989 224.405 83.483C224.89 83.267 225.439 83.1591 226.053 83.1591C226.916 83.1591 227.594 83.3485 228.087 83.7273C228.583 84.1061 228.935 84.6061 229.143 85.2273ZM242.457 83.2727L239.23 92H237.866L234.639 83.2727H236.094L238.503 90.2273H238.594L241.003 83.2727H242.457ZM247.324 92.1818C246.483 92.1818 245.758 91.9962 245.148 91.625C244.542 91.25 244.074 90.7273 243.744 90.0568C243.419 89.3826 243.256 88.5985 243.256 87.7045C243.256 86.8106 243.419 86.0227 243.744 85.3409C244.074 84.6553 244.532 84.1212 245.119 83.7386C245.71 83.3523 246.4 83.1591 247.188 83.1591C247.642 83.1591 248.091 83.2348 248.534 83.3864C248.977 83.5379 249.381 83.7841 249.744 84.125C250.108 84.4621 250.398 84.9091 250.614 85.4659C250.83 86.0227 250.938 86.7083 250.938 87.5227V88.0909H244.21V86.9318H249.574C249.574 86.4394 249.475 86 249.278 85.6136C249.085 85.2273 248.809 84.9223 248.449 84.6989C248.093 84.4754 247.672 84.3636 247.188 84.3636C246.653 84.3636 246.191 84.4962 245.801 84.7614C245.415 85.0227 245.117 85.3636 244.909 85.7841C244.701 86.2045 244.597 86.6553 244.597 87.1364V87.9091C244.597 88.5682 244.71 89.1269 244.938 89.5852C245.169 90.0398 245.489 90.3864 245.898 90.625C246.307 90.8598 246.782 90.9773 247.324 90.9773C247.676 90.9773 247.994 90.928 248.278 90.8295C248.566 90.7273 248.814 90.5758 249.023 90.375C249.231 90.1705 249.392 89.9167 249.506 89.6136L250.801 89.9773C250.665 90.4167 250.436 90.803 250.114 91.1364C249.792 91.4659 249.394 91.7235 248.92 91.9091C248.447 92.0909 247.915 92.1818 247.324 92.1818ZM254.068 80.3636V92H252.727V80.3636H254.068ZM256.274 92V83.2727H257.615V92H256.274ZM256.956 81.8182C256.695 81.8182 256.469 81.7292 256.28 81.5511C256.094 81.3731 256.001 81.1591 256.001 80.9091C256.001 80.6591 256.094 80.4451 256.28 80.267C256.469 80.089 256.695 80 256.956 80C257.217 80 257.441 80.089 257.626 80.267C257.816 80.4451 257.911 80.6591 257.911 80.9091C257.911 81.1591 257.816 81.3731 257.626 81.5511C257.441 81.7292 257.217 81.8182 256.956 81.8182ZM263.616 83.2727V84.4091H259.094V83.2727H263.616ZM260.412 81.1818H261.753V89.5C261.753 89.8788 261.808 90.1629 261.918 90.3523C262.031 90.5379 262.175 90.6629 262.349 90.7273C262.527 90.7879 262.715 90.8182 262.912 90.8182C263.06 90.8182 263.181 90.8106 263.276 90.7955C263.37 90.7765 263.446 90.7614 263.503 90.75L263.776 91.9545C263.685 91.9886 263.558 92.0227 263.395 92.0568C263.232 92.0947 263.026 92.1136 262.776 92.1136C262.397 92.1136 262.026 92.0322 261.662 91.8693C261.302 91.7064 261.003 91.4583 260.764 91.125C260.529 90.7917 260.412 90.3712 260.412 89.8636V81.1818ZM270.974 86.75V92H269.634V83.2727H270.929V84.6364H271.043C271.247 84.1932 271.558 83.8371 271.974 83.5682C272.391 83.2955 272.929 83.1591 273.588 83.1591C274.179 83.1591 274.696 83.2803 275.139 83.5227C275.582 83.7614 275.927 84.125 276.173 84.6136C276.42 85.0985 276.543 85.7121 276.543 86.4545V92H275.202V86.5455C275.202 85.8598 275.024 85.3258 274.668 84.9432C274.312 84.5568 273.823 84.3636 273.202 84.3636C272.774 84.3636 272.391 84.4564 272.054 84.642C271.721 84.8277 271.457 85.0985 271.264 85.4545C271.071 85.8106 270.974 86.2424 270.974 86.75ZM282.288 92.1818C281.5 92.1818 280.809 91.9943 280.214 91.6193C279.624 91.2443 279.161 90.7197 278.828 90.0455C278.499 89.3712 278.334 88.5833 278.334 87.6818C278.334 86.7727 278.499 85.9792 278.828 85.3011C279.161 84.6231 279.624 84.0966 280.214 83.7216C280.809 83.3466 281.5 83.1591 282.288 83.1591C283.076 83.1591 283.766 83.3466 284.357 83.7216C284.951 84.0966 285.413 84.6231 285.743 85.3011C286.076 85.9792 286.243 86.7727 286.243 87.6818C286.243 88.5833 286.076 89.3712 285.743 90.0455C285.413 90.7197 284.951 91.2443 284.357 91.6193C283.766 91.9943 283.076 92.1818 282.288 92.1818ZM282.288 90.9773C282.887 90.9773 283.379 90.8239 283.766 90.517C284.152 90.2102 284.438 89.8068 284.624 89.3068C284.809 88.8068 284.902 88.2652 284.902 87.6818C284.902 87.0985 284.809 86.5549 284.624 86.0511C284.438 85.5473 284.152 85.1402 283.766 84.8295C283.379 84.5189 282.887 84.3636 282.288 84.3636C281.69 84.3636 281.197 84.5189 280.811 84.8295C280.425 85.1402 280.139 85.5473 279.953 86.0511C279.768 86.5549 279.675 87.0985 279.675 87.6818C279.675 88.2652 279.768 88.8068 279.953 89.3068C280.139 89.8068 280.425 90.2102 280.811 90.517C281.197 90.8239 281.69 90.9773 282.288 90.9773ZM289.381 86.75V92H288.04V83.2727H289.335V84.6364H289.449C289.653 84.1932 289.964 83.8371 290.381 83.5682C290.797 83.2955 291.335 83.1591 291.994 83.1591C292.585 83.1591 293.102 83.2803 293.545 83.5227C293.989 83.7614 294.333 84.125 294.58 84.6136C294.826 85.0985 294.949 85.7121 294.949 86.4545V92H293.608V86.5455C293.608 85.8598 293.43 85.3258 293.074 84.9432C292.718 84.5568 292.229 84.3636 291.608 84.3636C291.18 84.3636 290.797 84.4564 290.46 84.642C290.127 84.8277 289.864 85.0985 289.67 85.4545C289.477 85.8106 289.381 86.2424 289.381 86.75ZM305.058 92.1818C304.217 92.1818 303.492 91.9962 302.882 91.625C302.276 91.25 301.808 90.7273 301.479 90.0568C301.153 89.3826 300.99 88.5985 300.99 87.7045C300.99 86.8106 301.153 86.0227 301.479 85.3409C301.808 84.6553 302.267 84.1212 302.854 83.7386C303.445 83.3523 304.134 83.1591 304.922 83.1591C305.376 83.1591 305.825 83.2348 306.268 83.3864C306.712 83.5379 307.115 83.7841 307.479 84.125C307.842 84.4621 308.132 84.9091 308.348 85.4659C308.564 86.0227 308.672 86.7083 308.672 87.5227V88.0909H301.945V86.9318H307.308C307.308 86.4394 307.21 86 307.013 85.6136C306.82 85.2273 306.543 84.9223 306.183 84.6989C305.827 84.4754 305.407 84.3636 304.922 84.3636C304.388 84.3636 303.926 84.4962 303.536 84.7614C303.149 85.0227 302.852 85.3636 302.643 85.7841C302.435 86.2045 302.331 86.6553 302.331 87.1364V87.9091C302.331 88.5682 302.445 89.1269 302.672 89.5852C302.903 90.0398 303.223 90.3864 303.632 90.625C304.041 90.8598 304.517 90.9773 305.058 90.9773C305.411 90.9773 305.729 90.928 306.013 90.8295C306.301 90.7273 306.549 90.5758 306.757 90.375C306.965 90.1705 307.126 89.9167 307.24 89.6136L308.536 89.9773C308.399 90.4167 308.17 90.803 307.848 91.1364C307.526 91.4659 307.128 91.7235 306.655 91.9091C306.181 92.0909 305.649 92.1818 305.058 92.1818ZM316.643 85.2273L315.439 85.5682C315.363 85.3674 315.251 85.1723 315.104 84.983C314.96 84.7898 314.763 84.6307 314.513 84.5057C314.263 84.3807 313.943 84.3182 313.553 84.3182C313.018 84.3182 312.573 84.4413 312.217 84.6875C311.865 84.9299 311.689 85.2386 311.689 85.6136C311.689 85.947 311.81 86.2102 312.053 86.4034C312.295 86.5966 312.674 86.7576 313.189 86.8864L314.484 87.2045C315.265 87.3939 315.846 87.6837 316.229 88.0739C316.611 88.4602 316.803 88.9583 316.803 89.5682C316.803 90.0682 316.659 90.5152 316.371 90.9091C316.087 91.303 315.689 91.6136 315.178 91.8409C314.666 92.0682 314.071 92.1818 313.393 92.1818C312.503 92.1818 311.767 91.9886 311.183 91.6023C310.6 91.2159 310.231 90.6515 310.075 89.9091L311.348 89.5909C311.469 90.0606 311.698 90.4129 312.036 90.6477C312.376 90.8826 312.821 91 313.371 91C313.996 91 314.492 90.8674 314.859 90.6023C315.231 90.3333 315.416 90.0114 315.416 89.6364C315.416 89.3333 315.31 89.0795 315.098 88.875C314.886 88.6667 314.56 88.5114 314.121 88.4091L312.666 88.0682C311.867 87.8788 311.28 87.5852 310.905 87.1875C310.534 86.786 310.348 86.2841 310.348 85.6818C310.348 85.1894 310.486 84.7538 310.763 84.375C311.043 83.9962 311.424 83.6989 311.905 83.483C312.39 83.267 312.939 83.1591 313.553 83.1591C314.416 83.1591 315.094 83.3485 315.587 83.7273C316.083 84.1061 316.435 84.6061 316.643 85.2273ZM322.366 83.2727V84.4091H317.844V83.2727H322.366ZM319.162 81.1818H320.503V89.5C320.503 89.8788 320.558 90.1629 320.668 90.3523C320.781 90.5379 320.925 90.6629 321.099 90.7273C321.277 90.7879 321.465 90.8182 321.662 90.8182C321.81 90.8182 321.931 90.8106 322.026 90.7955C322.12 90.7765 322.196 90.7614 322.253 90.75L322.526 91.9545C322.435 91.9886 322.308 92.0227 322.145 92.0568C321.982 92.0947 321.776 92.1136 321.526 92.1136C321.147 92.1136 320.776 92.0322 320.412 91.8693C320.052 91.7064 319.753 91.4583 319.514 91.125C319.279 90.7917 319.162 90.3712 319.162 89.8636V81.1818ZM328.384 95.2727V83.2727H329.679V84.6591H329.838C329.937 84.5076 330.073 84.3144 330.247 84.0795C330.425 83.8409 330.679 83.6288 331.009 83.4432C331.342 83.2538 331.793 83.1591 332.361 83.1591C333.096 83.1591 333.743 83.3428 334.304 83.7102C334.865 84.0777 335.302 84.5985 335.616 85.2727C335.931 85.947 336.088 86.7424 336.088 87.6591C336.088 88.5833 335.931 89.3845 335.616 90.0625C335.302 90.7367 334.866 91.2595 334.31 91.6307C333.753 91.9981 333.111 92.1818 332.384 92.1818C331.823 92.1818 331.374 92.089 331.037 91.9034C330.7 91.714 330.44 91.5 330.259 91.2614C330.077 91.0189 329.937 90.8182 329.838 90.6591H329.724V95.2727H328.384ZM329.702 87.6364C329.702 88.2955 329.798 88.8769 329.991 89.3807C330.185 89.8807 330.467 90.2727 330.838 90.5568C331.209 90.8371 331.664 90.9773 332.202 90.9773C332.762 90.9773 333.23 90.8295 333.605 90.5341C333.984 90.2348 334.268 89.8333 334.457 89.3295C334.651 88.822 334.747 88.2576 334.747 87.6364C334.747 87.0227 334.652 86.4697 334.463 85.9773C334.277 85.4811 333.995 85.089 333.616 84.8011C333.241 84.5095 332.77 84.3636 332.202 84.3636C331.656 84.3636 331.198 84.5019 330.827 84.7784C330.455 85.0511 330.175 85.4337 329.986 85.9261C329.796 86.4148 329.702 86.9848 329.702 87.6364ZM341.429 92.1818C340.641 92.1818 339.95 91.9943 339.355 91.6193C338.764 91.2443 338.302 90.7197 337.969 90.0455C337.639 89.3712 337.474 88.5833 337.474 87.6818C337.474 86.7727 337.639 85.9792 337.969 85.3011C338.302 84.6231 338.764 84.0966 339.355 83.7216C339.95 83.3466 340.641 83.1591 341.429 83.1591C342.217 83.1591 342.906 83.3466 343.497 83.7216C344.092 84.0966 344.554 84.6231 344.884 85.3011C345.217 85.9792 345.384 86.7727 345.384 87.6818C345.384 88.5833 345.217 89.3712 344.884 90.0455C344.554 90.7197 344.092 91.2443 343.497 91.6193C342.906 91.9943 342.217 92.1818 341.429 92.1818ZM341.429 90.9773C342.027 90.9773 342.52 90.8239 342.906 90.517C343.293 90.2102 343.579 89.8068 343.764 89.3068C343.95 88.8068 344.043 88.2652 344.043 87.6818C344.043 87.0985 343.95 86.5549 343.764 86.0511C343.579 85.5473 343.293 85.1402 342.906 84.8295C342.52 84.5189 342.027 84.3636 341.429 84.3636C340.83 84.3636 340.338 84.5189 339.952 84.8295C339.565 85.1402 339.279 85.5473 339.094 86.0511C338.908 86.5549 338.815 87.0985 338.815 87.6818C338.815 88.2652 338.908 88.8068 339.094 89.3068C339.279 89.8068 339.565 90.2102 339.952 90.517C340.338 90.8239 340.83 90.9773 341.429 90.9773ZM347.18 92V83.2727H348.476V84.5909H348.567C348.726 84.1591 349.014 83.8087 349.43 83.5398C349.847 83.2708 350.317 83.1364 350.839 83.1364C350.938 83.1364 351.061 83.1383 351.209 83.142C351.357 83.1458 351.468 83.1515 351.544 83.1591V84.5227C351.499 84.5114 351.394 84.4943 351.232 84.4716C351.072 84.4451 350.904 84.4318 350.726 84.4318C350.302 84.4318 349.923 84.5208 349.589 84.6989C349.26 84.8731 348.999 85.1155 348.805 85.4261C348.616 85.733 348.521 86.0833 348.521 86.4773V92H347.18ZM352.884 92V83.2727H354.179V84.5909H354.27C354.429 84.1591 354.717 83.8087 355.134 83.5398C355.55 83.2708 356.02 83.1364 356.543 83.1364C356.641 83.1364 356.764 83.1383 356.912 83.142C357.06 83.1458 357.171 83.1515 357.247 83.1591V84.5227C357.202 84.5114 357.098 84.4943 356.935 84.4716C356.776 84.4451 356.607 84.4318 356.429 84.4318C356.005 84.4318 355.626 84.5208 355.293 84.6989C354.963 84.8731 354.702 85.1155 354.509 85.4261C354.319 85.733 354.224 86.0833 354.224 86.4773V92H352.884ZM361.866 92.1818C361.079 92.1818 360.387 91.9943 359.793 91.6193C359.202 91.2443 358.74 90.7197 358.406 90.0455C358.077 89.3712 357.912 88.5833 357.912 87.6818C357.912 86.7727 358.077 85.9792 358.406 85.3011C358.74 84.6231 359.202 84.0966 359.793 83.7216C360.387 83.3466 361.079 83.1591 361.866 83.1591C362.654 83.1591 363.344 83.3466 363.935 83.7216C364.529 84.0966 364.991 84.6231 365.321 85.3011C365.654 85.9792 365.821 86.7727 365.821 87.6818C365.821 88.5833 365.654 89.3712 365.321 90.0455C364.991 90.7197 364.529 91.2443 363.935 91.6193C363.344 91.9943 362.654 92.1818 361.866 92.1818ZM361.866 90.9773C362.465 90.9773 362.957 90.8239 363.344 90.517C363.73 90.2102 364.016 89.8068 364.202 89.3068C364.387 88.8068 364.48 88.2652 364.48 87.6818C364.48 87.0985 364.387 86.5549 364.202 86.0511C364.016 85.5473 363.73 85.1402 363.344 84.8295C362.957 84.5189 362.465 84.3636 361.866 84.3636C361.268 84.3636 360.776 84.5189 360.389 84.8295C360.003 85.1402 359.717 85.5473 359.531 86.0511C359.346 86.5549 359.253 87.0985 359.253 87.6818C359.253 88.2652 359.346 88.8068 359.531 89.3068C359.717 89.8068 360.003 90.2102 360.389 90.517C360.776 90.8239 361.268 90.9773 361.866 90.9773ZM113.886 116.182C113.045 116.182 112.32 115.996 111.71 115.625C111.104 115.25 110.636 114.727 110.307 114.057C109.981 113.383 109.818 112.598 109.818 111.705C109.818 110.811 109.981 110.023 110.307 109.341C110.636 108.655 111.095 108.121 111.682 107.739C112.273 107.352 112.962 107.159 113.75 107.159C114.205 107.159 114.653 107.235 115.097 107.386C115.54 107.538 115.943 107.784 116.307 108.125C116.67 108.462 116.96 108.909 117.176 109.466C117.392 110.023 117.5 110.708 117.5 111.523V112.091H110.773V110.932H116.136C116.136 110.439 116.038 110 115.841 109.614C115.648 109.227 115.371 108.922 115.011 108.699C114.655 108.475 114.235 108.364 113.75 108.364C113.216 108.364 112.754 108.496 112.364 108.761C111.977 109.023 111.68 109.364 111.472 109.784C111.263 110.205 111.159 110.655 111.159 111.136V111.909C111.159 112.568 111.273 113.127 111.5 113.585C111.731 114.04 112.051 114.386 112.46 114.625C112.869 114.86 113.345 114.977 113.886 114.977C114.239 114.977 114.557 114.928 114.841 114.83C115.129 114.727 115.377 114.576 115.585 114.375C115.794 114.17 115.955 113.917 116.068 113.614L117.364 113.977C117.227 114.417 116.998 114.803 116.676 115.136C116.354 115.466 115.956 115.723 115.483 115.909C115.009 116.091 114.477 116.182 113.886 116.182ZM119.29 116V107.273H120.585V108.591H120.676C120.835 108.159 121.123 107.809 121.54 107.54C121.956 107.271 122.426 107.136 122.949 107.136C123.047 107.136 123.17 107.138 123.318 107.142C123.466 107.146 123.578 107.152 123.653 107.159V108.523C123.608 108.511 123.504 108.494 123.341 108.472C123.182 108.445 123.013 108.432 122.835 108.432C122.411 108.432 122.032 108.521 121.699 108.699C121.369 108.873 121.108 109.116 120.915 109.426C120.725 109.733 120.631 110.083 120.631 110.477V116H119.29ZM124.993 116V107.273H126.288V108.591H126.379C126.538 108.159 126.826 107.809 127.243 107.54C127.66 107.271 128.129 107.136 128.652 107.136C128.75 107.136 128.874 107.138 129.021 107.142C129.169 107.146 129.281 107.152 129.357 107.159V108.523C129.311 108.511 129.207 108.494 129.044 108.472C128.885 108.445 128.716 108.432 128.538 108.432C128.114 108.432 127.735 108.521 127.402 108.699C127.072 108.873 126.811 109.116 126.618 109.426C126.429 109.733 126.334 110.083 126.334 110.477V116H124.993ZM133.976 116.182C133.188 116.182 132.497 115.994 131.902 115.619C131.311 115.244 130.849 114.72 130.516 114.045C130.186 113.371 130.021 112.583 130.021 111.682C130.021 110.773 130.186 109.979 130.516 109.301C130.849 108.623 131.311 108.097 131.902 107.722C132.497 107.347 133.188 107.159 133.976 107.159C134.764 107.159 135.453 107.347 136.044 107.722C136.639 108.097 137.101 108.623 137.43 109.301C137.764 109.979 137.93 110.773 137.93 111.682C137.93 112.583 137.764 113.371 137.43 114.045C137.101 114.72 136.639 115.244 136.044 115.619C135.453 115.994 134.764 116.182 133.976 116.182ZM133.976 114.977C134.574 114.977 135.067 114.824 135.453 114.517C135.839 114.21 136.125 113.807 136.311 113.307C136.497 112.807 136.589 112.265 136.589 111.682C136.589 111.098 136.497 110.555 136.311 110.051C136.125 109.547 135.839 109.14 135.453 108.83C135.067 108.519 134.574 108.364 133.976 108.364C133.377 108.364 132.885 108.519 132.499 108.83C132.112 109.14 131.826 109.547 131.641 110.051C131.455 110.555 131.362 111.098 131.362 111.682C131.362 112.265 131.455 112.807 131.641 113.307C131.826 113.807 132.112 114.21 132.499 114.517C132.885 114.824 133.377 114.977 133.976 114.977ZM139.727 116V107.273H141.023V108.591H141.114C141.273 108.159 141.561 107.809 141.977 107.54C142.394 107.271 142.864 107.136 143.386 107.136C143.485 107.136 143.608 107.138 143.756 107.142C143.903 107.146 144.015 107.152 144.091 107.159V108.523C144.045 108.511 143.941 108.494 143.778 108.472C143.619 108.445 143.451 108.432 143.273 108.432C142.848 108.432 142.47 108.521 142.136 108.699C141.807 108.873 141.545 109.116 141.352 109.426C141.163 109.733 141.068 110.083 141.068 110.477V116H139.727ZM156.817 107.273L153.589 116H152.226L148.999 107.273H150.453L152.862 114.227H152.953L155.362 107.273H156.817ZM161.57 116.182C160.782 116.182 160.09 115.994 159.496 115.619C158.905 115.244 158.443 114.72 158.109 114.045C157.78 113.371 157.615 112.583 157.615 111.682C157.615 110.773 157.78 109.979 158.109 109.301C158.443 108.623 158.905 108.097 159.496 107.722C160.09 107.347 160.782 107.159 161.57 107.159C162.357 107.159 163.047 107.347 163.638 107.722C164.232 108.097 164.695 108.623 165.024 109.301C165.357 109.979 165.524 110.773 165.524 111.682C165.524 112.583 165.357 113.371 165.024 114.045C164.695 114.72 164.232 115.244 163.638 115.619C163.047 115.994 162.357 116.182 161.57 116.182ZM161.57 114.977C162.168 114.977 162.661 114.824 163.047 114.517C163.433 114.21 163.719 113.807 163.905 113.307C164.09 112.807 164.183 112.265 164.183 111.682C164.183 111.098 164.09 110.555 163.905 110.051C163.719 109.547 163.433 109.14 163.047 108.83C162.661 108.519 162.168 108.364 161.57 108.364C160.971 108.364 160.479 108.519 160.092 108.83C159.706 109.14 159.42 109.547 159.234 110.051C159.049 110.555 158.956 111.098 158.956 111.682C158.956 112.265 159.049 112.807 159.234 113.307C159.42 113.807 159.706 114.21 160.092 114.517C160.479 114.824 160.971 114.977 161.57 114.977ZM168.662 104.364V116H167.321V104.364H168.662ZM176.368 112.432V107.273H177.709V116H176.368V114.523H176.277C176.072 114.966 175.754 115.343 175.322 115.653C174.891 115.96 174.345 116.114 173.686 116.114C173.141 116.114 172.656 115.994 172.232 115.756C171.807 115.513 171.474 115.15 171.232 114.665C170.989 114.176 170.868 113.561 170.868 112.818V107.273H172.209V112.727C172.209 113.364 172.387 113.871 172.743 114.25C173.103 114.629 173.561 114.818 174.118 114.818C174.451 114.818 174.79 114.733 175.135 114.562C175.483 114.392 175.775 114.131 176.01 113.778C176.249 113.426 176.368 112.977 176.368 112.432ZM179.915 119.273V107.273H181.21V108.659H181.369C181.468 108.508 181.604 108.314 181.778 108.08C181.956 107.841 182.21 107.629 182.54 107.443C182.873 107.254 183.324 107.159 183.892 107.159C184.627 107.159 185.275 107.343 185.835 107.71C186.396 108.078 186.833 108.598 187.148 109.273C187.462 109.947 187.619 110.742 187.619 111.659C187.619 112.583 187.462 113.384 187.148 114.062C186.833 114.737 186.398 115.259 185.841 115.631C185.284 115.998 184.642 116.182 183.915 116.182C183.354 116.182 182.905 116.089 182.568 115.903C182.231 115.714 181.972 115.5 181.79 115.261C181.608 115.019 181.468 114.818 181.369 114.659H181.256V119.273H179.915ZM181.233 111.636C181.233 112.295 181.33 112.877 181.523 113.381C181.716 113.881 181.998 114.273 182.369 114.557C182.741 114.837 183.195 114.977 183.733 114.977C184.294 114.977 184.761 114.83 185.136 114.534C185.515 114.235 185.799 113.833 185.989 113.33C186.182 112.822 186.278 112.258 186.278 111.636C186.278 111.023 186.184 110.47 185.994 109.977C185.809 109.481 185.527 109.089 185.148 108.801C184.773 108.509 184.301 108.364 183.733 108.364C183.188 108.364 182.729 108.502 182.358 108.778C181.987 109.051 181.706 109.434 181.517 109.926C181.328 110.415 181.233 110.985 181.233 111.636ZM193.21 107.273V108.409H188.688V107.273H193.21ZM190.006 105.182H191.347V113.5C191.347 113.879 191.402 114.163 191.511 114.352C191.625 114.538 191.769 114.663 191.943 114.727C192.121 114.788 192.309 114.818 192.506 114.818C192.653 114.818 192.775 114.811 192.869 114.795C192.964 114.777 193.04 114.761 193.097 114.75L193.369 115.955C193.278 115.989 193.152 116.023 192.989 116.057C192.826 116.095 192.619 116.114 192.369 116.114C191.991 116.114 191.619 116.032 191.256 115.869C190.896 115.706 190.597 115.458 190.358 115.125C190.123 114.792 190.006 114.371 190.006 113.864V105.182ZM197.545 116.205C196.992 116.205 196.491 116.1 196.04 115.892C195.589 115.68 195.231 115.375 194.966 114.977C194.701 114.576 194.568 114.091 194.568 113.523C194.568 113.023 194.667 112.617 194.864 112.307C195.061 111.992 195.324 111.746 195.653 111.568C195.983 111.39 196.347 111.258 196.744 111.17C197.146 111.08 197.549 111.008 197.955 110.955C198.485 110.886 198.915 110.835 199.244 110.801C199.578 110.763 199.82 110.701 199.972 110.614C200.127 110.527 200.205 110.375 200.205 110.159V110.114C200.205 109.553 200.051 109.117 199.744 108.807C199.441 108.496 198.981 108.341 198.364 108.341C197.723 108.341 197.222 108.481 196.858 108.761C196.494 109.042 196.239 109.341 196.091 109.659L194.818 109.205C195.045 108.674 195.348 108.261 195.727 107.966C196.11 107.667 196.527 107.458 196.977 107.341C197.432 107.22 197.879 107.159 198.318 107.159C198.598 107.159 198.92 107.193 199.284 107.261C199.652 107.326 200.006 107.46 200.347 107.665C200.691 107.869 200.977 108.178 201.205 108.591C201.432 109.004 201.545 109.557 201.545 110.25V116H200.205V114.818H200.136C200.045 115.008 199.894 115.21 199.682 115.426C199.47 115.642 199.188 115.826 198.835 115.977C198.483 116.129 198.053 116.205 197.545 116.205ZM197.75 115C198.28 115 198.727 114.896 199.091 114.688C199.458 114.479 199.735 114.21 199.92 113.881C200.11 113.551 200.205 113.205 200.205 112.841V111.614C200.148 111.682 200.023 111.744 199.83 111.801C199.64 111.854 199.42 111.902 199.17 111.943C198.924 111.981 198.684 112.015 198.449 112.045C198.218 112.072 198.03 112.095 197.886 112.114C197.538 112.159 197.212 112.233 196.909 112.335C196.61 112.434 196.367 112.583 196.182 112.784C196 112.981 195.909 113.25 195.909 113.591C195.909 114.057 196.081 114.409 196.426 114.648C196.775 114.883 197.216 115 197.75 115ZM207.538 107.273V108.409H203.016V107.273H207.538ZM204.334 105.182H205.675V113.5C205.675 113.879 205.73 114.163 205.839 114.352C205.953 114.538 206.097 114.663 206.271 114.727C206.449 114.788 206.637 114.818 206.834 114.818C206.982 114.818 207.103 114.811 207.197 114.795C207.292 114.777 207.368 114.761 207.425 114.75L207.697 115.955C207.607 115.989 207.48 116.023 207.317 116.057C207.154 116.095 206.947 116.114 206.697 116.114C206.319 116.114 205.947 116.032 205.584 115.869C205.224 115.706 204.925 115.458 204.686 115.125C204.451 114.792 204.334 114.371 204.334 113.864V105.182ZM209.305 116V107.273H210.646V116H209.305ZM209.987 105.818C209.726 105.818 209.5 105.729 209.311 105.551C209.125 105.373 209.033 105.159 209.033 104.909C209.033 104.659 209.125 104.445 209.311 104.267C209.5 104.089 209.726 104 209.987 104C210.249 104 210.472 104.089 210.658 104.267C210.847 104.445 210.942 104.659 210.942 104.909C210.942 105.159 210.847 105.373 210.658 105.551C210.472 105.729 210.249 105.818 209.987 105.818ZM213.034 116V104.364H214.375V108.659H214.489C214.587 108.508 214.723 108.314 214.898 108.08C215.076 107.841 215.33 107.629 215.659 107.443C215.992 107.254 216.443 107.159 217.011 107.159C217.746 107.159 218.394 107.343 218.955 107.71C219.515 108.078 219.953 108.598 220.267 109.273C220.581 109.947 220.739 110.742 220.739 111.659C220.739 112.583 220.581 113.384 220.267 114.062C219.953 114.737 219.517 115.259 218.96 115.631C218.403 115.998 217.761 116.182 217.034 116.182C216.473 116.182 216.025 116.089 215.688 115.903C215.35 115.714 215.091 115.5 214.909 115.261C214.727 115.019 214.587 114.818 214.489 114.659H214.33V116H213.034ZM214.352 111.636C214.352 112.295 214.449 112.877 214.642 113.381C214.835 113.881 215.117 114.273 215.489 114.557C215.86 114.837 216.314 114.977 216.852 114.977C217.413 114.977 217.881 114.83 218.256 114.534C218.634 114.235 218.919 113.833 219.108 113.33C219.301 112.822 219.398 112.258 219.398 111.636C219.398 111.023 219.303 110.47 219.114 109.977C218.928 109.481 218.646 109.089 218.267 108.801C217.892 108.509 217.42 108.364 216.852 108.364C216.307 108.364 215.848 108.502 215.477 108.778C215.106 109.051 214.826 109.434 214.636 109.926C214.447 110.415 214.352 110.985 214.352 111.636ZM228.04 112.432V107.273H229.381V116H228.04V114.523H227.949C227.744 114.966 227.426 115.343 226.994 115.653C226.563 115.96 226.017 116.114 225.358 116.114C224.812 116.114 224.328 115.994 223.903 115.756C223.479 115.513 223.146 115.15 222.903 114.665C222.661 114.176 222.54 113.561 222.54 112.818V107.273H223.881V112.727C223.881 113.364 224.059 113.871 224.415 114.25C224.775 114.629 225.233 114.818 225.79 114.818C226.123 114.818 226.462 114.733 226.807 114.562C227.155 114.392 227.447 114.131 227.682 113.778C227.92 113.426 228.04 112.977 228.04 112.432ZM237.768 109.227L236.564 109.568C236.488 109.367 236.376 109.172 236.229 108.983C236.085 108.79 235.888 108.631 235.638 108.506C235.388 108.381 235.068 108.318 234.678 108.318C234.143 108.318 233.698 108.441 233.342 108.688C232.99 108.93 232.814 109.239 232.814 109.614C232.814 109.947 232.935 110.21 233.178 110.403C233.42 110.597 233.799 110.758 234.314 110.886L235.609 111.205C236.39 111.394 236.971 111.684 237.354 112.074C237.736 112.46 237.928 112.958 237.928 113.568C237.928 114.068 237.784 114.515 237.496 114.909C237.212 115.303 236.814 115.614 236.303 115.841C235.791 116.068 235.196 116.182 234.518 116.182C233.628 116.182 232.892 115.989 232.308 115.602C231.725 115.216 231.356 114.652 231.2 113.909L232.473 113.591C232.594 114.061 232.823 114.413 233.161 114.648C233.501 114.883 233.946 115 234.496 115C235.121 115 235.617 114.867 235.984 114.602C236.356 114.333 236.541 114.011 236.541 113.636C236.541 113.333 236.435 113.08 236.223 112.875C236.011 112.667 235.685 112.511 235.246 112.409L233.791 112.068C232.992 111.879 232.405 111.585 232.03 111.188C231.659 110.786 231.473 110.284 231.473 109.682C231.473 109.189 231.611 108.754 231.888 108.375C232.168 107.996 232.549 107.699 233.03 107.483C233.515 107.267 234.064 107.159 234.678 107.159C235.541 107.159 236.219 107.348 236.712 107.727C237.208 108.106 237.56 108.606 237.768 109.227ZM240.673 116.091C240.393 116.091 240.152 115.991 239.952 115.79C239.751 115.589 239.651 115.348 239.651 115.068C239.651 114.788 239.751 114.547 239.952 114.347C240.152 114.146 240.393 114.045 240.673 114.045C240.954 114.045 241.194 114.146 241.395 114.347C241.596 114.547 241.696 114.788 241.696 115.068C241.696 115.254 241.649 115.424 241.554 115.58C241.463 115.735 241.34 115.86 241.185 115.955C241.033 116.045 240.863 116.091 240.673 116.091Z" fill="#121826"/>
<path fill-rule="evenodd" clip-rule="evenodd" d="M421 100C415.477 100 411 104.477 411 110C411 115.523 415.477 120 421 120C426.523 120 431 115.523 431 110C431 104.477 426.523 100 421 100ZM421 115C423.761 115 426 112.761 426 110C426 107.239 423.761 105 421 105C418.239 105 416 107.239 416 110C416 112.761 418.239 115 421 115Z" fill="#217CF5"/>
<path d="M448.773 83.2727C448.705 82.697 448.428 82.25 447.943 81.9318C447.458 81.6136 446.864 81.4545 446.159 81.4545C445.644 81.4545 445.193 81.5379 444.807 81.7045C444.424 81.8712 444.125 82.1004 443.909 82.392C443.697 82.6837 443.591 83.0152 443.591 83.3864C443.591 83.697 443.665 83.964 443.812 84.1875C443.964 84.4072 444.157 84.5909 444.392 84.7386C444.627 84.8826 444.873 85.0019 445.131 85.0966C445.388 85.1875 445.625 85.2614 445.841 85.3182L447.023 85.6364C447.326 85.7159 447.663 85.8258 448.034 85.9659C448.409 86.1061 448.767 86.2973 449.108 86.5398C449.453 86.7784 449.737 87.0852 449.96 87.4602C450.184 87.8352 450.295 88.2955 450.295 88.8409C450.295 89.4697 450.131 90.0379 449.801 90.5455C449.475 91.053 448.998 91.4564 448.369 91.7557C447.744 92.0549 446.985 92.2045 446.091 92.2045C445.258 92.2045 444.536 92.0701 443.926 91.8011C443.32 91.5322 442.843 91.1572 442.494 90.6761C442.15 90.1951 441.955 89.6364 441.909 89H443.364C443.402 89.4394 443.549 89.803 443.807 90.0909C444.068 90.375 444.398 90.5871 444.795 90.7273C445.197 90.8636 445.629 90.9318 446.091 90.9318C446.629 90.9318 447.112 90.8447 447.54 90.6705C447.968 90.4924 448.307 90.2462 448.557 89.9318C448.807 89.6136 448.932 89.2424 448.932 88.8182C448.932 88.4318 448.824 88.1174 448.608 87.875C448.392 87.6326 448.108 87.4356 447.756 87.2841C447.403 87.1326 447.023 87 446.614 86.8864L445.182 86.4773C444.273 86.2159 443.553 85.8428 443.023 85.358C442.492 84.8731 442.227 84.2386 442.227 83.4545C442.227 82.803 442.403 82.2348 442.756 81.75C443.112 81.2614 443.589 80.8826 444.188 80.6136C444.79 80.3409 445.462 80.2045 446.205 80.2045C446.955 80.2045 447.621 80.339 448.205 80.608C448.788 80.8731 449.25 81.2367 449.591 81.6989C449.936 82.161 450.117 82.6856 450.136 83.2727H448.773ZM455.839 92.1818C454.999 92.1818 454.273 91.9962 453.663 91.625C453.057 91.25 452.589 90.7273 452.26 90.0568C451.934 89.3826 451.771 88.5985 451.771 87.7045C451.771 86.8106 451.934 86.0227 452.26 85.3409C452.589 84.6553 453.048 84.1212 453.635 83.7386C454.226 83.3523 454.915 83.1591 455.703 83.1591C456.158 83.1591 456.607 83.2348 457.05 83.3864C457.493 83.5379 457.896 83.7841 458.26 84.125C458.624 84.4621 458.913 84.9091 459.129 85.4659C459.345 86.0227 459.453 86.7083 459.453 87.5227V88.0909H452.726V86.9318H458.089C458.089 86.4394 457.991 86 457.794 85.6136C457.601 85.2273 457.324 84.9223 456.964 84.6989C456.608 84.4754 456.188 84.3636 455.703 84.3636C455.169 84.3636 454.707 84.4962 454.317 84.7614C453.93 85.0227 453.633 85.3636 453.425 85.7841C453.216 86.2045 453.112 86.6553 453.112 87.1364V87.9091C453.112 88.5682 453.226 89.1269 453.453 89.5852C453.684 90.0398 454.004 90.3864 454.413 90.625C454.822 90.8598 455.298 90.9773 455.839 90.9773C456.192 90.9773 456.51 90.928 456.794 90.8295C457.082 90.7273 457.33 90.5758 457.538 90.375C457.747 90.1705 457.908 89.9167 458.021 89.6136L459.317 89.9773C459.18 90.4167 458.951 90.803 458.629 91.1364C458.307 91.4659 457.91 91.7235 457.436 91.9091C456.963 92.0909 456.43 92.1818 455.839 92.1818ZM467.197 95.2727V90.6591H467.084C466.985 90.8182 466.845 91.0189 466.663 91.2614C466.482 91.5 466.222 91.714 465.885 91.9034C465.548 92.089 465.099 92.1818 464.538 92.1818C463.811 92.1818 463.169 91.9981 462.612 91.6307C462.055 91.2595 461.62 90.7367 461.305 90.0625C460.991 89.3845 460.834 88.5833 460.834 87.6591C460.834 86.7424 460.991 85.947 461.305 85.2727C461.62 84.5985 462.057 84.0777 462.618 83.7102C463.179 83.3428 463.826 83.1591 464.561 83.1591C465.129 83.1591 465.578 83.2538 465.908 83.4432C466.241 83.6288 466.495 83.8409 466.669 84.0795C466.847 84.3144 466.985 84.5076 467.084 84.6591H467.243V83.2727H468.538V95.2727H467.197ZM464.72 90.9773C465.258 90.9773 465.713 90.8371 466.084 90.5568C466.455 90.2727 466.737 89.8807 466.93 89.3807C467.124 88.8769 467.22 88.2955 467.22 87.6364C467.22 86.9848 467.125 86.4148 466.936 85.9261C466.747 85.4337 466.466 85.0511 466.095 84.7784C465.724 84.5019 465.266 84.3636 464.72 84.3636C464.152 84.3636 463.679 84.5095 463.3 84.8011C462.925 85.089 462.643 85.4811 462.453 85.9773C462.268 86.4697 462.175 87.0227 462.175 87.6364C462.175 88.2576 462.269 88.822 462.459 89.3295C462.652 89.8333 462.936 90.2348 463.311 90.5341C463.69 90.8295 464.16 90.9773 464.72 90.9773ZM476.243 88.4318V83.2727H477.584V92H476.243V90.5227H476.152C475.947 90.9659 475.629 91.3428 475.197 91.6534C474.766 91.9602 474.22 92.1136 473.561 92.1136C473.016 92.1136 472.531 91.9943 472.107 91.7557C471.682 91.5133 471.349 91.1496 471.107 90.6648C470.864 90.1761 470.743 89.5606 470.743 88.8182V83.2727H472.084V88.7273C472.084 89.3636 472.262 89.8712 472.618 90.25C472.978 90.6288 473.436 90.8182 473.993 90.8182C474.326 90.8182 474.665 90.733 475.01 90.5625C475.358 90.392 475.65 90.1307 475.885 89.7784C476.124 89.4261 476.243 88.9773 476.243 88.4318ZM479.79 92V83.2727H481.131V92H479.79ZM480.472 81.8182C480.21 81.8182 479.985 81.7292 479.795 81.5511C479.61 81.3731 479.517 81.1591 479.517 80.9091C479.517 80.6591 479.61 80.4451 479.795 80.267C479.985 80.089 480.21 80 480.472 80C480.733 80 480.956 80.089 481.142 80.267C481.331 80.4451 481.426 80.6591 481.426 80.9091C481.426 81.1591 481.331 81.3731 481.142 81.5511C480.956 81.7292 480.733 81.8182 480.472 81.8182ZM488.928 86.75V92H487.587V83.2727H488.882V84.6364H488.996C489.2 84.1932 489.511 83.8371 489.928 83.5682C490.344 83.2955 490.882 83.1591 491.541 83.1591C492.132 83.1591 492.649 83.2803 493.092 83.5227C493.536 83.7614 493.88 84.125 494.126 84.6136C494.373 85.0985 494.496 85.7121 494.496 86.4545V92H493.155V86.5455C493.155 85.8598 492.977 85.3258 492.621 84.9432C492.265 84.5568 491.776 84.3636 491.155 84.3636C490.727 84.3636 490.344 84.4564 490.007 84.642C489.674 84.8277 489.411 85.0985 489.217 85.4545C489.024 85.8106 488.928 86.2424 488.928 86.75ZM500.241 92.1818C499.454 92.1818 498.762 91.9943 498.168 91.6193C497.577 91.2443 497.115 90.7197 496.781 90.0455C496.452 89.3712 496.287 88.5833 496.287 87.6818C496.287 86.7727 496.452 85.9792 496.781 85.3011C497.115 84.6231 497.577 84.0966 498.168 83.7216C498.762 83.3466 499.454 83.1591 500.241 83.1591C501.029 83.1591 501.719 83.3466 502.31 83.7216C502.904 84.0966 503.366 84.6231 503.696 85.3011C504.029 85.9792 504.196 86.7727 504.196 87.6818C504.196 88.5833 504.029 89.3712 503.696 90.0455C503.366 90.7197 502.904 91.2443 502.31 91.6193C501.719 91.9943 501.029 92.1818 500.241 92.1818ZM500.241 90.9773C500.84 90.9773 501.332 90.8239 501.719 90.517C502.105 90.2102 502.391 89.8068 502.577 89.3068C502.762 88.8068 502.855 88.2652 502.855 87.6818C502.855 87.0985 502.762 86.5549 502.577 86.0511C502.391 85.5473 502.105 85.1402 501.719 84.8295C501.332 84.5189 500.84 84.3636 500.241 84.3636C499.643 84.3636 499.151 84.5189 498.764 84.8295C498.378 85.1402 498.092 85.5473 497.906 86.0511C497.721 86.5549 497.628 87.0985 497.628 87.6818C497.628 88.2652 497.721 88.8068 497.906 89.3068C498.092 89.8068 498.378 90.2102 498.764 90.517C499.151 90.8239 499.643 90.9773 500.241 90.9773ZM507.334 86.75V92H505.993V83.2727H507.288V84.6364H507.402C507.607 84.1932 507.917 83.8371 508.334 83.5682C508.75 83.2955 509.288 83.1591 509.947 83.1591C510.538 83.1591 511.055 83.2803 511.499 83.5227C511.942 83.7614 512.286 84.125 512.533 84.6136C512.779 85.0985 512.902 85.7121 512.902 86.4545V92H511.561V86.5455C511.561 85.8598 511.383 85.3258 511.027 84.9432C510.671 84.5568 510.182 84.3636 509.561 84.3636C509.133 84.3636 508.75 84.4564 508.413 84.642C508.08 84.8277 507.817 85.0985 507.624 85.4545C507.43 85.8106 507.334 86.2424 507.334 86.75ZM522.898 92.1818C522.11 92.1818 521.419 91.9943 520.824 91.6193C520.233 91.2443 519.771 90.7197 519.438 90.0455C519.108 89.3712 518.943 88.5833 518.943 87.6818C518.943 86.7727 519.108 85.9792 519.438 85.3011C519.771 84.6231 520.233 84.0966 520.824 83.7216C521.419 83.3466 522.11 83.1591 522.898 83.1591C523.686 83.1591 524.375 83.3466 524.966 83.7216C525.561 84.0966 526.023 84.6231 526.352 85.3011C526.686 85.9792 526.852 86.7727 526.852 87.6818C526.852 88.5833 526.686 89.3712 526.352 90.0455C526.023 90.7197 525.561 91.2443 524.966 91.6193C524.375 91.9943 523.686 92.1818 522.898 92.1818ZM522.898 90.9773C523.496 90.9773 523.989 90.8239 524.375 90.517C524.761 90.2102 525.047 89.8068 525.233 89.3068C525.419 88.8068 525.511 88.2652 525.511 87.6818C525.511 87.0985 525.419 86.5549 525.233 86.0511C525.047 85.5473 524.761 85.1402 524.375 84.8295C523.989 84.5189 523.496 84.3636 522.898 84.3636C522.299 84.3636 521.807 84.5189 521.42 84.8295C521.034 85.1402 520.748 85.5473 520.562 86.0511C520.377 86.5549 520.284 87.0985 520.284 87.6818C520.284 88.2652 520.377 88.8068 520.562 89.3068C520.748 89.8068 521.034 90.2102 521.42 90.517C521.807 90.8239 522.299 90.9773 522.898 90.9773ZM528.649 92V83.2727H529.945V84.6364H530.058C530.24 84.1705 530.534 83.8087 530.939 83.5511C531.344 83.2898 531.831 83.1591 532.399 83.1591C532.975 83.1591 533.454 83.2898 533.837 83.5511C534.223 83.8087 534.524 84.1705 534.74 84.6364H534.831C535.054 84.1856 535.39 83.8277 535.837 83.5625C536.284 83.2936 536.82 83.1591 537.445 83.1591C538.225 83.1591 538.863 83.4034 539.359 83.892C539.856 84.3769 540.104 85.1326 540.104 86.1591V92H538.763V86.1591C538.763 85.5152 538.587 85.0549 538.234 84.7784C537.882 84.5019 537.467 84.3636 536.99 84.3636C536.376 84.3636 535.901 84.5492 535.564 84.9205C535.227 85.2879 535.058 85.7538 535.058 86.3182V92H533.695V86.0227C533.695 85.5265 533.534 85.1269 533.212 84.8239C532.89 84.517 532.475 84.3636 531.967 84.3636C531.619 84.3636 531.293 84.4564 530.99 84.642C530.691 84.8277 530.448 85.0852 530.263 85.4148C530.081 85.7405 529.99 86.1174 529.99 86.5455V92H528.649ZM543.646 86.75V92H542.305V83.2727H543.601V84.6364H543.714C543.919 84.1932 544.23 83.8371 544.646 83.5682C545.063 83.2955 545.601 83.1591 546.26 83.1591C546.851 83.1591 547.368 83.2803 547.811 83.5227C548.254 83.7614 548.599 84.125 548.845 84.6136C549.091 85.0985 549.214 85.7121 549.214 86.4545V92H547.874V86.5455C547.874 85.8598 547.696 85.3258 547.339 84.9432C546.983 84.5568 546.495 84.3636 545.874 84.3636C545.446 84.3636 545.063 84.4564 544.726 84.642C544.393 84.8277 544.129 85.0985 543.936 85.4545C543.743 85.8106 543.646 86.2424 543.646 86.75ZM551.415 92V83.2727H552.756V92H551.415ZM552.097 81.8182C551.835 81.8182 551.61 81.7292 551.42 81.5511C551.235 81.3731 551.142 81.1591 551.142 80.9091C551.142 80.6591 551.235 80.4451 551.42 80.267C551.61 80.089 551.835 80 552.097 80C552.358 80 552.581 80.089 552.767 80.267C552.956 80.4451 553.051 80.6591 553.051 80.9091C553.051 81.1591 552.956 81.3731 552.767 81.5511C552.581 81.7292 552.358 81.8182 552.097 81.8182ZM561.143 85.2273L559.939 85.5682C559.863 85.3674 559.751 85.1723 559.604 84.983C559.46 84.7898 559.263 84.6307 559.013 84.5057C558.763 84.3807 558.443 84.3182 558.053 84.3182C557.518 84.3182 557.073 84.4413 556.717 84.6875C556.365 84.9299 556.189 85.2386 556.189 85.6136C556.189 85.947 556.31 86.2102 556.553 86.4034C556.795 86.5966 557.174 86.7576 557.689 86.8864L558.984 87.2045C559.765 87.3939 560.346 87.6837 560.729 88.0739C561.111 88.4602 561.303 88.9583 561.303 89.5682C561.303 90.0682 561.159 90.5152 560.871 90.9091C560.587 91.303 560.189 91.6136 559.678 91.8409C559.166 92.0682 558.571 92.1818 557.893 92.1818C557.003 92.1818 556.267 91.9886 555.683 91.6023C555.1 91.2159 554.731 90.6515 554.575 89.9091L555.848 89.5909C555.969 90.0606 556.198 90.4129 556.536 90.6477C556.876 90.8826 557.321 91 557.871 91C558.496 91 558.992 90.8674 559.359 90.6023C559.731 90.3333 559.916 90.0114 559.916 89.6364C559.916 89.3333 559.81 89.0795 559.598 88.875C559.386 88.6667 559.06 88.5114 558.621 88.4091L557.166 88.0682C556.367 87.8788 555.78 87.5852 555.405 87.1875C555.034 86.786 554.848 86.2841 554.848 85.6818C554.848 85.1894 554.986 84.7538 555.263 84.375C555.543 83.9962 555.924 83.6989 556.405 83.483C556.89 83.267 557.439 83.1591 558.053 83.1591C558.916 83.1591 559.594 83.3485 560.087 83.7273C560.583 84.1061 560.935 84.6061 561.143 85.2273ZM574.457 83.2727L571.23 92H569.866L566.639 83.2727H568.094L570.503 90.2273H570.594L573.003 83.2727H574.457ZM579.324 92.1818C578.483 92.1818 577.758 91.9962 577.148 91.625C576.542 91.25 576.074 90.7273 575.744 90.0568C575.419 89.3826 575.256 88.5985 575.256 87.7045C575.256 86.8106 575.419 86.0227 575.744 85.3409C576.074 84.6553 576.532 84.1212 577.119 83.7386C577.71 83.3523 578.4 83.1591 579.188 83.1591C579.642 83.1591 580.091 83.2348 580.534 83.3864C580.977 83.5379 581.381 83.7841 581.744 84.125C582.108 84.4621 582.398 84.9091 582.614 85.4659C582.83 86.0227 582.938 86.7083 582.938 87.5227V88.0909H576.21V86.9318H581.574C581.574 86.4394 581.475 86 581.278 85.6136C581.085 85.2273 580.809 84.9223 580.449 84.6989C580.093 84.4754 579.672 84.3636 579.188 84.3636C578.653 84.3636 578.191 84.4962 577.801 84.7614C577.415 85.0227 577.117 85.3636 576.909 85.7841C576.701 86.2045 576.597 86.6553 576.597 87.1364V87.9091C576.597 88.5682 576.71 89.1269 576.938 89.5852C577.169 90.0398 577.489 90.3864 577.898 90.625C578.307 90.8598 578.782 90.9773 579.324 90.9773C579.676 90.9773 579.994 90.928 580.278 90.8295C580.566 90.7273 580.814 90.5758 581.023 90.375C581.231 90.1705 581.392 89.9167 581.506 89.6136L582.801 89.9773C582.665 90.4167 582.436 90.803 582.114 91.1364C581.792 91.4659 581.394 91.7235 580.92 91.9091C580.447 92.0909 579.915 92.1818 579.324 92.1818ZM586.068 80.3636V92H584.727V80.3636H586.068ZM588.274 92V83.2727H589.615V92H588.274ZM588.956 81.8182C588.695 81.8182 588.469 81.7292 588.28 81.5511C588.094 81.3731 588.001 81.1591 588.001 80.9091C588.001 80.6591 588.094 80.4451 588.28 80.267C588.469 80.089 588.695 80 588.956 80C589.217 80 589.441 80.089 589.626 80.267C589.816 80.4451 589.911 80.6591 589.911 80.9091C589.911 81.1591 589.816 81.3731 589.626 81.5511C589.441 81.7292 589.217 81.8182 588.956 81.8182ZM595.616 83.2727V84.4091H591.094V83.2727H595.616ZM592.412 81.1818H593.753V89.5C593.753 89.8788 593.808 90.1629 593.918 90.3523C594.031 90.5379 594.175 90.6629 594.349 90.7273C594.527 90.7879 594.715 90.8182 594.912 90.8182C595.06 90.8182 595.181 90.8106 595.276 90.7955C595.37 90.7765 595.446 90.7614 595.503 90.75L595.776 91.9545C595.685 91.9886 595.558 92.0227 595.395 92.0568C595.232 92.0947 595.026 92.1136 594.776 92.1136C594.397 92.1136 594.026 92.0322 593.662 91.8693C593.302 91.7064 593.003 91.4583 592.764 91.125C592.529 90.7917 592.412 90.3712 592.412 89.8636V81.1818ZM602.974 86.75V92H601.634V83.2727H602.929V84.6364H603.043C603.247 84.1932 603.558 83.8371 603.974 83.5682C604.391 83.2955 604.929 83.1591 605.588 83.1591C606.179 83.1591 606.696 83.2803 607.139 83.5227C607.582 83.7614 607.927 84.125 608.173 84.6136C608.42 85.0985 608.543 85.7121 608.543 86.4545V92H607.202V86.5455C607.202 85.8598 607.024 85.3258 606.668 84.9432C606.312 84.5568 605.823 84.3636 605.202 84.3636C604.774 84.3636 604.391 84.4564 604.054 84.642C603.721 84.8277 603.457 85.0985 603.264 85.4545C603.071 85.8106 602.974 86.2424 602.974 86.75ZM614.288 92.1818C613.5 92.1818 612.809 91.9943 612.214 91.6193C611.624 91.2443 611.161 90.7197 610.828 90.0455C610.499 89.3712 610.334 88.5833 610.334 87.6818C610.334 86.7727 610.499 85.9792 610.828 85.3011C611.161 84.6231 611.624 84.0966 612.214 83.7216C612.809 83.3466 613.5 83.1591 614.288 83.1591C615.076 83.1591 615.766 83.3466 616.357 83.7216C616.951 84.0966 617.413 84.6231 617.743 85.3011C618.076 85.9792 618.243 86.7727 618.243 87.6818C618.243 88.5833 618.076 89.3712 617.743 90.0455C617.413 90.7197 616.951 91.2443 616.357 91.6193C615.766 91.9943 615.076 92.1818 614.288 92.1818ZM614.288 90.9773C614.887 90.9773 615.379 90.8239 615.766 90.517C616.152 90.2102 616.438 89.8068 616.624 89.3068C616.809 88.8068 616.902 88.2652 616.902 87.6818C616.902 87.0985 616.809 86.5549 616.624 86.0511C616.438 85.5473 616.152 85.1402 615.766 84.8295C615.379 84.5189 614.887 84.3636 614.288 84.3636C613.69 84.3636 613.197 84.5189 612.811 84.8295C612.425 85.1402 612.139 85.5473 611.953 86.0511C611.768 86.5549 611.675 87.0985 611.675 87.6818C611.675 88.2652 611.768 88.8068 611.953 89.3068C612.139 89.8068 612.425 90.2102 612.811 90.517C613.197 90.8239 613.69 90.9773 614.288 90.9773ZM621.381 86.75V92H620.04V83.2727H621.335V84.6364H621.449C621.653 84.1932 621.964 83.8371 622.381 83.5682C622.797 83.2955 623.335 83.1591 623.994 83.1591C624.585 83.1591 625.102 83.2803 625.545 83.5227C625.989 83.7614 626.333 84.125 626.58 84.6136C626.826 85.0985 626.949 85.7121 626.949 86.4545V92H625.608V86.5455C625.608 85.8598 625.43 85.3258 625.074 84.9432C624.718 84.5568 624.229 84.3636 623.608 84.3636C623.18 84.3636 622.797 84.4564 622.46 84.642C622.127 84.8277 621.864 85.0985 621.67 85.4545C621.477 85.8106 621.381 86.2424 621.381 86.75ZM637.058 92.1818C636.217 92.1818 635.492 91.9962 634.882 91.625C634.276 91.25 633.808 90.7273 633.479 90.0568C633.153 89.3826 632.99 88.5985 632.99 87.7045C632.99 86.8106 633.153 86.0227 633.479 85.3409C633.808 84.6553 634.267 84.1212 634.854 83.7386C635.445 83.3523 636.134 83.1591 636.922 83.1591C637.376 83.1591 637.825 83.2348 638.268 83.3864C638.712 83.5379 639.115 83.7841 639.479 84.125C639.842 84.4621 640.132 84.9091 640.348 85.4659C640.564 86.0227 640.672 86.7083 640.672 87.5227V88.0909H633.945V86.9318H639.308C639.308 86.4394 639.21 86 639.013 85.6136C638.82 85.2273 638.543 84.9223 638.183 84.6989C637.827 84.4754 637.407 84.3636 636.922 84.3636C636.388 84.3636 635.926 84.4962 635.536 84.7614C635.149 85.0227 634.852 85.3636 634.643 85.7841C634.435 86.2045 634.331 86.6553 634.331 87.1364V87.9091C634.331 88.5682 634.445 89.1269 634.672 89.5852C634.903 90.0398 635.223 90.3864 635.632 90.625C636.041 90.8598 636.517 90.9773 637.058 90.9773C637.411 90.9773 637.729 90.928 638.013 90.8295C638.301 90.7273 638.549 90.5758 638.757 90.375C638.965 90.1705 639.126 89.9167 639.24 89.6136L640.536 89.9773C640.399 90.4167 640.17 90.803 639.848 91.1364C639.526 91.4659 639.128 91.7235 638.655 91.9091C638.181 92.0909 637.649 92.1818 637.058 92.1818ZM648.643 85.2273L647.439 85.5682C647.363 85.3674 647.251 85.1723 647.104 84.983C646.96 84.7898 646.763 84.6307 646.513 84.5057C646.263 84.3807 645.943 84.3182 645.553 84.3182C645.018 84.3182 644.573 84.4413 644.217 84.6875C643.865 84.9299 643.689 85.2386 643.689 85.6136C643.689 85.947 643.81 86.2102 644.053 86.4034C644.295 86.5966 644.674 86.7576 645.189 86.8864L646.484 87.2045C647.265 87.3939 647.846 87.6837 648.229 88.0739C648.611 88.4602 648.803 88.9583 648.803 89.5682C648.803 90.0682 648.659 90.5152 648.371 90.9091C648.087 91.303 647.689 91.6136 647.178 91.8409C646.666 92.0682 646.071 92.1818 645.393 92.1818C644.503 92.1818 643.767 91.9886 643.183 91.6023C642.6 91.2159 642.231 90.6515 642.075 89.9091L643.348 89.5909C643.469 90.0606 643.698 90.4129 644.036 90.6477C644.376 90.8826 644.821 91 645.371 91C645.996 91 646.492 90.8674 646.859 90.6023C647.231 90.3333 647.416 90.0114 647.416 89.6364C647.416 89.3333 647.31 89.0795 647.098 88.875C646.886 88.6667 646.56 88.5114 646.121 88.4091L644.666 88.0682C643.867 87.8788 643.28 87.5852 642.905 87.1875C642.534 86.786 642.348 86.2841 642.348 85.6818C642.348 85.1894 642.486 84.7538 642.763 84.375C643.043 83.9962 643.424 83.6989 643.905 83.483C644.39 83.267 644.939 83.1591 645.553 83.1591C646.416 83.1591 647.094 83.3485 647.587 83.7273C648.083 84.1061 648.435 84.6061 648.643 85.2273ZM654.366 83.2727V84.4091H649.844V83.2727H654.366ZM651.162 81.1818H652.503V89.5C652.503 89.8788 652.558 90.1629 652.668 90.3523C652.781 90.5379 652.925 90.6629 653.099 90.7273C653.277 90.7879 653.465 90.8182 653.662 90.8182C653.81 90.8182 653.931 90.8106 654.026 90.7955C654.12 90.7765 654.196 90.7614 654.253 90.75L654.526 91.9545C654.435 91.9886 654.308 92.0227 654.145 92.0568C653.982 92.0947 653.776 92.1136 653.526 92.1136C653.147 92.1136 652.776 92.0322 652.412 91.8693C652.052 91.7064 651.753 91.4583 651.514 91.125C651.279 90.7917 651.162 90.3712 651.162 89.8636V81.1818ZM660.384 95.2727V83.2727H661.679V84.6591H661.838C661.937 84.5076 662.073 84.3144 662.247 84.0795C662.425 83.8409 662.679 83.6288 663.009 83.4432C663.342 83.2538 663.793 83.1591 664.361 83.1591C665.096 83.1591 665.743 83.3428 666.304 83.7102C666.865 84.0777 667.302 84.5985 667.616 85.2727C667.931 85.947 668.088 86.7424 668.088 87.6591C668.088 88.5833 667.931 89.3845 667.616 90.0625C667.302 90.7367 666.866 91.2595 666.31 91.6307C665.753 91.9981 665.111 92.1818 664.384 92.1818C663.823 92.1818 663.374 92.089 663.037 91.9034C662.7 91.714 662.44 91.5 662.259 91.2614C662.077 91.0189 661.937 90.8182 661.838 90.6591H661.724V95.2727H660.384ZM661.702 87.6364C661.702 88.2955 661.798 88.8769 661.991 89.3807C662.185 89.8807 662.467 90.2727 662.838 90.5568C663.209 90.8371 663.664 90.9773 664.202 90.9773C664.762 90.9773 665.23 90.8295 665.605 90.5341C665.984 90.2348 666.268 89.8333 666.457 89.3295C666.651 88.822 666.747 88.2576 666.747 87.6364C666.747 87.0227 666.652 86.4697 666.463 85.9773C666.277 85.4811 665.995 85.089 665.616 84.8011C665.241 84.5095 664.77 84.3636 664.202 84.3636C663.656 84.3636 663.198 84.5019 662.827 84.7784C662.455 85.0511 662.175 85.4337 661.986 85.9261C661.796 86.4148 661.702 86.9848 661.702 87.6364ZM673.429 92.1818C672.641 92.1818 671.95 91.9943 671.355 91.6193C670.764 91.2443 670.302 90.7197 669.969 90.0455C669.639 89.3712 669.474 88.5833 669.474 87.6818C669.474 86.7727 669.639 85.9792 669.969 85.3011C670.302 84.6231 670.764 84.0966 671.355 83.7216C671.95 83.3466 672.641 83.1591 673.429 83.1591C674.217 83.1591 674.906 83.3466 675.497 83.7216C676.092 84.0966 676.554 84.6231 676.884 85.3011C677.217 85.9792 677.384 86.7727 677.384 87.6818C677.384 88.5833 677.217 89.3712 676.884 90.0455C676.554 90.7197 676.092 91.2443 675.497 91.6193C674.906 91.9943 674.217 92.1818 673.429 92.1818ZM673.429 90.9773C674.027 90.9773 674.52 90.8239 674.906 90.517C675.293 90.2102 675.579 89.8068 675.764 89.3068C675.95 88.8068 676.043 88.2652 676.043 87.6818C676.043 87.0985 675.95 86.5549 675.764 86.0511C675.579 85.5473 675.293 85.1402 674.906 84.8295C674.52 84.5189 674.027 84.3636 673.429 84.3636C672.83 84.3636 672.338 84.5189 671.952 84.8295C671.565 85.1402 671.279 85.5473 671.094 86.0511C670.908 86.5549 670.815 87.0985 670.815 87.6818C670.815 88.2652 670.908 88.8068 671.094 89.3068C671.279 89.8068 671.565 90.2102 671.952 90.517C672.338 90.8239 672.83 90.9773 673.429 90.9773ZM679.18 92V83.2727H680.476V84.5909H680.567C680.726 84.1591 681.014 83.8087 681.43 83.5398C681.847 83.2708 682.317 83.1364 682.839 83.1364C682.938 83.1364 683.061 83.1383 683.209 83.142C683.357 83.1458 683.468 83.1515 683.544 83.1591V84.5227C683.499 84.5114 683.394 84.4943 683.232 84.4716C683.072 84.4451 682.904 84.4318 682.726 84.4318C682.302 84.4318 681.923 84.5208 681.589 84.6989C681.26 84.8731 680.999 85.1155 680.805 85.4261C680.616 85.733 680.521 86.0833 680.521 86.4773V92H679.18ZM684.884 92V83.2727H686.179V84.5909H686.27C686.429 84.1591 686.717 83.8087 687.134 83.5398C687.55 83.2708 688.02 83.1364 688.543 83.1364C688.641 83.1364 688.764 83.1383 688.912 83.142C689.06 83.1458 689.171 83.1515 689.247 83.1591V84.5227C689.202 84.5114 689.098 84.4943 688.935 84.4716C688.776 84.4451 688.607 84.4318 688.429 84.4318C688.005 84.4318 687.626 84.5208 687.293 84.6989C686.963 84.8731 686.702 85.1155 686.509 85.4261C686.319 85.733 686.224 86.0833 686.224 86.4773V92H684.884ZM693.866 92.1818C693.079 92.1818 692.387 91.9943 691.793 91.6193C691.202 91.2443 690.74 90.7197 690.406 90.0455C690.077 89.3712 689.912 88.5833 689.912 87.6818C689.912 86.7727 690.077 85.9792 690.406 85.3011C690.74 84.6231 691.202 84.0966 691.793 83.7216C692.387 83.3466 693.079 83.1591 693.866 83.1591C694.654 83.1591 695.344 83.3466 695.935 83.7216C696.529 84.0966 696.991 84.6231 697.321 85.3011C697.654 85.9792 697.821 86.7727 697.821 87.6818C697.821 88.5833 697.654 89.3712 697.321 90.0455C696.991 90.7197 696.529 91.2443 695.935 91.6193C695.344 91.9943 694.654 92.1818 693.866 92.1818ZM693.866 90.9773C694.465 90.9773 694.957 90.8239 695.344 90.517C695.73 90.2102 696.016 89.8068 696.202 89.3068C696.387 88.8068 696.48 88.2652 696.48 87.6818C696.48 87.0985 696.387 86.5549 696.202 86.0511C696.016 85.5473 695.73 85.1402 695.344 84.8295C694.957 84.5189 694.465 84.3636 693.866 84.3636C693.268 84.3636 692.776 84.5189 692.389 84.8295C692.003 85.1402 691.717 85.5473 691.531 86.0511C691.346 86.5549 691.253 87.0985 691.253 87.6818C691.253 88.2652 691.346 88.8068 691.531 89.3068C691.717 89.8068 692.003 90.2102 692.389 90.517C692.776 90.8239 693.268 90.9773 693.866 90.9773ZM445.886 116.182C445.045 116.182 444.32 115.996 443.71 115.625C443.104 115.25 442.636 114.727 442.307 114.057C441.981 113.383 441.818 112.598 441.818 111.705C441.818 110.811 441.981 110.023 442.307 109.341C442.636 108.655 443.095 108.121 443.682 107.739C444.273 107.352 444.962 107.159 445.75 107.159C446.205 107.159 446.653 107.235 447.097 107.386C447.54 107.538 447.943 107.784 448.307 108.125C448.67 108.462 448.96 108.909 449.176 109.466C449.392 110.023 449.5 110.708 449.5 111.523V112.091H442.773V110.932H448.136C448.136 110.439 448.038 110 447.841 109.614C447.648 109.227 447.371 108.922 447.011 108.699C446.655 108.475 446.235 108.364 445.75 108.364C445.216 108.364 444.754 108.496 444.364 108.761C443.977 109.023 443.68 109.364 443.472 109.784C443.263 110.205 443.159 110.655 443.159 111.136V111.909C443.159 112.568 443.273 113.127 443.5 113.585C443.731 114.04 444.051 114.386 444.46 114.625C444.869 114.86 445.345 114.977 445.886 114.977C446.239 114.977 446.557 114.928 446.841 114.83C447.129 114.727 447.377 114.576 447.585 114.375C447.794 114.17 447.955 113.917 448.068 113.614L449.364 113.977C449.227 114.417 448.998 114.803 448.676 115.136C448.354 115.466 447.956 115.723 447.483 115.909C447.009 116.091 446.477 116.182 445.886 116.182ZM451.29 116V107.273H452.585V108.591H452.676C452.835 108.159 453.123 107.809 453.54 107.54C453.956 107.271 454.426 107.136 454.949 107.136C455.047 107.136 455.17 107.138 455.318 107.142C455.466 107.146 455.578 107.152 455.653 107.159V108.523C455.608 108.511 455.504 108.494 455.341 108.472C455.182 108.445 455.013 108.432 454.835 108.432C454.411 108.432 454.032 108.521 453.699 108.699C453.369 108.873 453.108 109.116 452.915 109.426C452.725 109.733 452.631 110.083 452.631 110.477V116H451.29ZM456.993 116V107.273H458.288V108.591H458.379C458.538 108.159 458.826 107.809 459.243 107.54C459.66 107.271 460.129 107.136 460.652 107.136C460.75 107.136 460.874 107.138 461.021 107.142C461.169 107.146 461.281 107.152 461.357 107.159V108.523C461.311 108.511 461.207 108.494 461.044 108.472C460.885 108.445 460.716 108.432 460.538 108.432C460.114 108.432 459.735 108.521 459.402 108.699C459.072 108.873 458.811 109.116 458.618 109.426C458.429 109.733 458.334 110.083 458.334 110.477V116H456.993ZM465.976 116.182C465.188 116.182 464.497 115.994 463.902 115.619C463.311 115.244 462.849 114.72 462.516 114.045C462.186 113.371 462.021 112.583 462.021 111.682C462.021 110.773 462.186 109.979 462.516 109.301C462.849 108.623 463.311 108.097 463.902 107.722C464.497 107.347 465.188 107.159 465.976 107.159C466.764 107.159 467.453 107.347 468.044 107.722C468.639 108.097 469.101 108.623 469.43 109.301C469.764 109.979 469.93 110.773 469.93 111.682C469.93 112.583 469.764 113.371 469.43 114.045C469.101 114.72 468.639 115.244 468.044 115.619C467.453 115.994 466.764 116.182 465.976 116.182ZM465.976 114.977C466.574 114.977 467.067 114.824 467.453 114.517C467.839 114.21 468.125 113.807 468.311 113.307C468.497 112.807 468.589 112.265 468.589 111.682C468.589 111.098 468.497 110.555 468.311 110.051C468.125 109.547 467.839 109.14 467.453 108.83C467.067 108.519 466.574 108.364 465.976 108.364C465.377 108.364 464.885 108.519 464.499 108.83C464.112 109.14 463.826 109.547 463.641 110.051C463.455 110.555 463.362 111.098 463.362 111.682C463.362 112.265 463.455 112.807 463.641 113.307C463.826 113.807 464.112 114.21 464.499 114.517C464.885 114.824 465.377 114.977 465.976 114.977ZM471.727 116V107.273H473.023V108.591H473.114C473.273 108.159 473.561 107.809 473.977 107.54C474.394 107.271 474.864 107.136 475.386 107.136C475.485 107.136 475.608 107.138 475.756 107.142C475.903 107.146 476.015 107.152 476.091 107.159V108.523C476.045 108.511 475.941 108.494 475.778 108.472C475.619 108.445 475.451 108.432 475.273 108.432C474.848 108.432 474.47 108.521 474.136 108.699C473.807 108.873 473.545 109.116 473.352 109.426C473.163 109.733 473.068 110.083 473.068 110.477V116H471.727ZM488.817 107.273L485.589 116H484.226L480.999 107.273H482.453L484.862 114.227H484.953L487.362 107.273H488.817ZM493.57 116.182C492.782 116.182 492.09 115.994 491.496 115.619C490.905 115.244 490.443 114.72 490.109 114.045C489.78 113.371 489.615 112.583 489.615 111.682C489.615 110.773 489.78 109.979 490.109 109.301C490.443 108.623 490.905 108.097 491.496 107.722C492.09 107.347 492.782 107.159 493.57 107.159C494.357 107.159 495.047 107.347 495.638 107.722C496.232 108.097 496.695 108.623 497.024 109.301C497.357 109.979 497.524 110.773 497.524 111.682C497.524 112.583 497.357 113.371 497.024 114.045C496.695 114.72 496.232 115.244 495.638 115.619C495.047 115.994 494.357 116.182 493.57 116.182ZM493.57 114.977C494.168 114.977 494.661 114.824 495.047 114.517C495.433 114.21 495.719 113.807 495.905 113.307C496.09 112.807 496.183 112.265 496.183 111.682C496.183 111.098 496.09 110.555 495.905 110.051C495.719 109.547 495.433 109.14 495.047 108.83C494.661 108.519 494.168 108.364 493.57 108.364C492.971 108.364 492.479 108.519 492.092 108.83C491.706 109.14 491.42 109.547 491.234 110.051C491.049 110.555 490.956 111.098 490.956 111.682C490.956 112.265 491.049 112.807 491.234 113.307C491.42 113.807 491.706 114.21 492.092 114.517C492.479 114.824 492.971 114.977 493.57 114.977ZM500.662 104.364V116H499.321V104.364H500.662ZM508.368 112.432V107.273H509.709V116H508.368V114.523H508.277C508.072 114.966 507.754 115.343 507.322 115.653C506.891 115.96 506.345 116.114 505.686 116.114C505.141 116.114 504.656 115.994 504.232 115.756C503.807 115.513 503.474 115.15 503.232 114.665C502.989 114.176 502.868 113.561 502.868 112.818V107.273H504.209V112.727C504.209 113.364 504.387 113.871 504.743 114.25C505.103 114.629 505.561 114.818 506.118 114.818C506.451 114.818 506.79 114.733 507.135 114.562C507.483 114.392 507.775 114.131 508.01 113.778C508.249 113.426 508.368 112.977 508.368 112.432ZM511.915 119.273V107.273H513.21V108.659H513.369C513.468 108.508 513.604 108.314 513.778 108.08C513.956 107.841 514.21 107.629 514.54 107.443C514.873 107.254 515.324 107.159 515.892 107.159C516.627 107.159 517.275 107.343 517.835 107.71C518.396 108.078 518.833 108.598 519.148 109.273C519.462 109.947 519.619 110.742 519.619 111.659C519.619 112.583 519.462 113.384 519.148 114.062C518.833 114.737 518.398 115.259 517.841 115.631C517.284 115.998 516.642 116.182 515.915 116.182C515.354 116.182 514.905 116.089 514.568 115.903C514.231 115.714 513.972 115.5 513.79 115.261C513.608 115.019 513.468 114.818 513.369 114.659H513.256V119.273H511.915ZM513.233 111.636C513.233 112.295 513.33 112.877 513.523 113.381C513.716 113.881 513.998 114.273 514.369 114.557C514.741 114.837 515.195 114.977 515.733 114.977C516.294 114.977 516.761 114.83 517.136 114.534C517.515 114.235 517.799 113.833 517.989 113.33C518.182 112.822 518.278 112.258 518.278 111.636C518.278 111.023 518.184 110.47 517.994 109.977C517.809 109.481 517.527 109.089 517.148 108.801C516.773 108.509 516.301 108.364 515.733 108.364C515.188 108.364 514.729 108.502 514.358 108.778C513.987 109.051 513.706 109.434 513.517 109.926C513.328 110.415 513.233 110.985 513.233 111.636ZM525.21 107.273V108.409H520.688V107.273H525.21ZM522.006 105.182H523.347V113.5C523.347 113.879 523.402 114.163 523.511 114.352C523.625 114.538 523.769 114.663 523.943 114.727C524.121 114.788 524.309 114.818 524.506 114.818C524.653 114.818 524.775 114.811 524.869 114.795C524.964 114.777 525.04 114.761 525.097 114.75L525.369 115.955C525.278 115.989 525.152 116.023 524.989 116.057C524.826 116.095 524.619 116.114 524.369 116.114C523.991 116.114 523.619 116.032 523.256 115.869C522.896 115.706 522.597 115.458 522.358 115.125C522.123 114.792 522.006 114.371 522.006 113.864V105.182ZM529.545 116.205C528.992 116.205 528.491 116.1 528.04 115.892C527.589 115.68 527.231 115.375 526.966 114.977C526.701 114.576 526.568 114.091 526.568 113.523C526.568 113.023 526.667 112.617 526.864 112.307C527.061 111.992 527.324 111.746 527.653 111.568C527.983 111.39 528.347 111.258 528.744 111.17C529.146 111.08 529.549 111.008 529.955 110.955C530.485 110.886 530.915 110.835 531.244 110.801C531.578 110.763 531.82 110.701 531.972 110.614C532.127 110.527 532.205 110.375 532.205 110.159V110.114C532.205 109.553 532.051 109.117 531.744 108.807C531.441 108.496 530.981 108.341 530.364 108.341C529.723 108.341 529.222 108.481 528.858 108.761C528.494 109.042 528.239 109.341 528.091 109.659L526.818 109.205C527.045 108.674 527.348 108.261 527.727 107.966C528.11 107.667 528.527 107.458 528.977 107.341C529.432 107.22 529.879 107.159 530.318 107.159C530.598 107.159 530.92 107.193 531.284 107.261C531.652 107.326 532.006 107.46 532.347 107.665C532.691 107.869 532.977 108.178 533.205 108.591C533.432 109.004 533.545 109.557 533.545 110.25V116H532.205V114.818H532.136C532.045 115.008 531.894 115.21 531.682 115.426C531.47 115.642 531.188 115.826 530.835 115.977C530.483 116.129 530.053 116.205 529.545 116.205ZM529.75 115C530.28 115 530.727 114.896 531.091 114.688C531.458 114.479 531.735 114.21 531.92 113.881C532.11 113.551 532.205 113.205 532.205 112.841V111.614C532.148 111.682 532.023 111.744 531.83 111.801C531.64 111.854 531.42 111.902 531.17 111.943C530.924 111.981 530.684 112.015 530.449 112.045C530.218 112.072 530.03 112.095 529.886 112.114C529.538 112.159 529.212 112.233 528.909 112.335C528.61 112.434 528.367 112.583 528.182 112.784C528 112.981 527.909 113.25 527.909 113.591C527.909 114.057 528.081 114.409 528.426 114.648C528.775 114.883 529.216 115 529.75 115ZM539.538 107.273V108.409H535.016V107.273H539.538ZM536.334 105.182H537.675V113.5C537.675 113.879 537.73 114.163 537.839 114.352C537.953 114.538 538.097 114.663 538.271 114.727C538.449 114.788 538.637 114.818 538.834 114.818C538.982 114.818 539.103 114.811 539.197 114.795C539.292 114.777 539.368 114.761 539.425 114.75L539.697 115.955C539.607 115.989 539.48 116.023 539.317 116.057C539.154 116.095 538.947 116.114 538.697 116.114C538.319 116.114 537.947 116.032 537.584 115.869C537.224 115.706 536.925 115.458 536.686 115.125C536.451 114.792 536.334 114.371 536.334 113.864V105.182ZM541.305 116V107.273H542.646V116H541.305ZM541.987 105.818C541.726 105.818 541.5 105.729 541.311 105.551C541.125 105.373 541.033 105.159 541.033 104.909C541.033 104.659 541.125 104.445 541.311 104.267C541.5 104.089 541.726 104 541.987 104C542.249 104 542.472 104.089 542.658 104.267C542.847 104.445 542.942 104.659 542.942 104.909C542.942 105.159 542.847 105.373 542.658 105.551C542.472 105.729 542.249 105.818 541.987 105.818ZM545.034 116V104.364H546.375V108.659H546.489C546.587 108.508 546.723 108.314 546.898 108.08C547.076 107.841 547.33 107.629 547.659 107.443C547.992 107.254 548.443 107.159 549.011 107.159C549.746 107.159 550.394 107.343 550.955 107.71C551.515 108.078 551.953 108.598 552.267 109.273C552.581 109.947 552.739 110.742 552.739 111.659C552.739 112.583 552.581 113.384 552.267 114.062C551.953 114.737 551.517 115.259 550.96 115.631C550.403 115.998 549.761 116.182 549.034 116.182C548.473 116.182 548.025 116.089 547.688 115.903C547.35 115.714 547.091 115.5 546.909 115.261C546.727 115.019 546.587 114.818 546.489 114.659H546.33V116H545.034ZM546.352 111.636C546.352 112.295 546.449 112.877 546.642 113.381C546.835 113.881 547.117 114.273 547.489 114.557C547.86 114.837 548.314 114.977 548.852 114.977C549.413 114.977 549.881 114.83 550.256 114.534C550.634 114.235 550.919 113.833 551.108 113.33C551.301 112.822 551.398 112.258 551.398 111.636C551.398 111.023 551.303 110.47 551.114 109.977C550.928 109.481 550.646 109.089 550.267 108.801C549.892 108.509 549.42 108.364 548.852 108.364C548.307 108.364 547.848 108.502 547.477 108.778C547.106 109.051 546.826 109.434 546.636 109.926C546.447 110.415 546.352 110.985 546.352 111.636ZM560.04 112.432V107.273H561.381V116H560.04V114.523H559.949C559.744 114.966 559.426 115.343 558.994 115.653C558.563 115.96 558.017 116.114 557.358 116.114C556.812 116.114 556.328 115.994 555.903 115.756C555.479 115.513 555.146 115.15 554.903 114.665C554.661 114.176 554.54 113.561 554.54 112.818V107.273H555.881V112.727C555.881 113.364 556.059 113.871 556.415 114.25C556.775 114.629 557.233 114.818 557.79 114.818C558.123 114.818 558.462 114.733 558.807 114.562C559.155 114.392 559.447 114.131 559.682 113.778C559.92 113.426 560.04 112.977 560.04 112.432ZM569.768 109.227L568.564 109.568C568.488 109.367 568.376 109.172 568.229 108.983C568.085 108.79 567.888 108.631 567.638 108.506C567.388 108.381 567.068 108.318 566.678 108.318C566.143 108.318 565.698 108.441 565.342 108.688C564.99 108.93 564.814 109.239 564.814 109.614C564.814 109.947 564.935 110.21 565.178 110.403C565.42 110.597 565.799 110.758 566.314 110.886L567.609 111.205C568.39 111.394 568.971 111.684 569.354 112.074C569.736 112.46 569.928 112.958 569.928 113.568C569.928 114.068 569.784 114.515 569.496 114.909C569.212 115.303 568.814 115.614 568.303 115.841C567.791 116.068 567.196 116.182 566.518 116.182C565.628 116.182 564.892 115.989 564.308 115.602C563.725 115.216 563.356 114.652 563.2 113.909L564.473 113.591C564.594 114.061 564.823 114.413 565.161 114.648C565.501 114.883 565.946 115 566.496 115C567.121 115 567.617 114.867 567.984 114.602C568.356 114.333 568.541 114.011 568.541 113.636C568.541 113.333 568.435 113.08 568.223 112.875C568.011 112.667 567.685 112.511 567.246 112.409L565.791 112.068C564.992 111.879 564.405 111.585 564.03 111.188C563.659 110.786 563.473 110.284 563.473 109.682C563.473 109.189 563.611 108.754 563.888 108.375C564.168 107.996 564.549 107.699 565.03 107.483C565.515 107.267 566.064 107.159 566.678 107.159C567.541 107.159 568.219 107.348 568.712 107.727C569.208 108.106 569.56 108.606 569.768 109.227ZM572.673 116.091C572.393 116.091 572.152 115.991 571.952 115.79C571.751 115.589 571.651 115.348 571.651 115.068C571.651 114.788 571.751 114.547 571.952 114.347C572.152 114.146 572.393 114.045 572.673 114.045C572.954 114.045 573.194 114.146 573.395 114.347C573.596 114.547 573.696 114.788 573.696 115.068C573.696 115.254 573.649 115.424 573.554 115.58C573.463 115.735 573.34 115.86 573.185 115.955C573.033 116.045 572.863 116.091 572.673 116.091Z" fill="#121826"/>
<path d="M390 61L105 61C102.791 61 101 62.7909 101 65L101 71C101 73.2091 99.2091 75 97 75L77 75" stroke="#CA3A31" stroke-width="2" stroke-linecap="round"/>
<path d="M722 61L437 61C434.791 61 433 62.7909 433 65L433 88C433 90.2092 431.209 92 429 92L409 92" stroke="#CA3A31" stroke-width="2" stroke-linecap="round"/>
<rect x="0.5" y="0.5" width="801" height="195" rx="7.5" stroke="#CA3A31" stroke-opacity="0.1"/>
</svg>
