<svg width="390" height="172" viewBox="0 0 390 172" fill="none" xmlns="http://www.w3.org/2000/svg">
<rect width="390" height="172" fill="#F9FAFB"/>
<g opacity="0.2">
<rect x="132.5" y="74.5" width="23" height="23" rx="11.5" fill="#217CF5"/>
<circle cx="143.999" cy="86.0031" r="4.8" fill="white"/>
<rect x="132.5" y="74.5" width="23" height="23" rx="11.5" stroke="#217CF5"/>
<path d="M169.145 91V81.5455H172.339C173.078 81.5455 173.684 81.6716 174.158 81.924C174.632 82.1733 174.983 82.5165 175.211 82.9535C175.439 83.3905 175.553 83.8875 175.553 84.4446C175.553 85.0017 175.439 85.4956 175.211 85.9265C174.983 86.3574 174.634 86.6959 174.163 86.9421C173.692 87.1853 173.09 87.3068 172.358 87.3068H169.773V86.2727H172.321C172.826 86.2727 173.232 86.1989 173.54 86.0511C173.851 85.9034 174.075 85.6941 174.214 85.4233C174.355 85.1494 174.426 84.8232 174.426 84.4446C174.426 84.0661 174.355 83.7352 174.214 83.4521C174.072 83.1689 173.846 82.9504 173.535 82.7965C173.224 82.6396 172.813 82.5611 172.303 82.5611H170.29V91H169.145ZM173.595 86.7528L175.922 91H174.592L172.303 86.7528H173.595ZM180.209 91.1477C179.526 91.1477 178.937 90.9969 178.441 90.6953C177.949 90.3906 177.569 89.9659 177.301 89.4212C177.036 88.8733 176.904 88.2363 176.904 87.5099C176.904 86.7836 177.036 86.1435 177.301 85.5895C177.569 85.0324 177.941 84.5985 178.418 84.2876C178.898 83.9737 179.458 83.8168 180.099 83.8168C180.468 83.8168 180.833 83.8783 181.193 84.0014C181.553 84.1245 181.881 84.3246 182.176 84.6016C182.472 84.8755 182.707 85.2386 182.882 85.6911C183.058 86.1435 183.146 86.7005 183.146 87.3622V87.8239H177.68V86.8821H182.038C182.038 86.482 181.958 86.125 181.797 85.8111C181.641 85.4972 181.416 85.2494 181.123 85.0678C180.834 84.8862 180.493 84.7955 180.099 84.7955C179.665 84.7955 179.289 84.9032 178.972 85.1186C178.658 85.331 178.417 85.608 178.247 85.9496C178.078 86.2912 177.994 86.6574 177.994 87.0483V87.6761C177.994 88.2116 178.086 88.6656 178.271 89.038C178.458 89.4073 178.718 89.6889 179.051 89.8828C179.383 90.0736 179.769 90.169 180.209 90.169C180.496 90.169 180.754 90.129 180.985 90.049C181.219 89.9659 181.42 89.8428 181.59 89.6797C181.759 89.5135 181.89 89.3073 181.982 89.0611L183.035 89.3565C182.924 89.7135 182.738 90.0275 182.476 90.2983C182.215 90.5661 181.891 90.7753 181.507 90.9261C181.122 91.0739 180.69 91.1477 180.209 91.1477ZM184.803 91V83.9091H185.855V85.017H185.948C186.095 84.6385 186.334 84.3446 186.663 84.1353C186.993 83.9229 187.388 83.8168 187.85 83.8168C188.318 83.8168 188.707 83.9229 189.018 84.1353C189.332 84.3446 189.576 84.6385 189.752 85.017H189.826C190.007 84.6508 190.28 84.36 190.643 84.1445C191.006 83.926 191.441 83.8168 191.949 83.8168C192.583 83.8168 193.102 84.0153 193.505 84.4123C193.908 84.8062 194.11 85.4202 194.11 86.2543V91H193.02V86.2543C193.02 85.7311 192.877 85.3571 192.591 85.1325C192.305 84.9078 191.968 84.7955 191.58 84.7955C191.081 84.7955 190.695 84.9463 190.421 85.2479C190.147 85.5464 190.01 85.925 190.01 86.3835V91H188.902V86.1435C188.902 85.7403 188.771 85.4156 188.51 85.1694C188.248 84.9201 187.911 84.7955 187.499 84.7955C187.216 84.7955 186.951 84.8709 186.705 85.0217C186.462 85.1725 186.265 85.3817 186.114 85.6495C185.966 85.9142 185.892 86.2204 185.892 86.5682V91H184.803ZM199.075 91.1477C198.391 91.1477 197.802 90.9969 197.307 90.6953C196.814 90.3906 196.434 89.9659 196.166 89.4212C195.902 88.8733 195.769 88.2363 195.769 87.5099C195.769 86.7836 195.902 86.1435 196.166 85.5895C196.434 85.0324 196.806 84.5985 197.283 84.2876C197.764 83.9737 198.324 83.8168 198.964 83.8168C199.333 83.8168 199.698 83.8783 200.058 84.0014C200.418 84.1245 200.746 84.3246 201.041 84.6016C201.337 84.8755 201.572 85.2386 201.748 85.6911C201.923 86.1435 202.011 86.7005 202.011 87.3622V87.8239H196.545V86.8821H200.903C200.903 86.482 200.823 86.125 200.663 85.8111C200.506 85.4972 200.281 85.2494 199.989 85.0678C199.699 84.8862 199.358 84.7955 198.964 84.7955C198.53 84.7955 198.154 84.9032 197.837 85.1186C197.524 85.331 197.282 85.608 197.113 85.9496C196.943 86.2912 196.859 86.6574 196.859 87.0483V87.6761C196.859 88.2116 196.951 88.6656 197.136 89.038C197.323 89.4073 197.584 89.6889 197.916 89.8828C198.248 90.0736 198.635 90.169 199.075 90.169C199.361 90.169 199.619 90.129 199.85 90.049C200.084 89.9659 200.286 89.8428 200.455 89.6797C200.624 89.5135 200.755 89.3073 200.847 89.0611L201.9 89.3565C201.789 89.7135 201.603 90.0275 201.341 90.2983C201.08 90.5661 200.757 90.7753 200.372 90.9261C199.987 91.0739 199.555 91.1477 199.075 91.1477ZM203.668 91V83.9091H204.721V85.017H204.813C204.961 84.6385 205.199 84.3446 205.528 84.1353C205.858 83.9229 206.253 83.8168 206.715 83.8168C207.183 83.8168 207.572 83.9229 207.883 84.1353C208.197 84.3446 208.441 84.6385 208.617 85.017H208.691C208.872 84.6508 209.145 84.36 209.508 84.1445C209.871 83.926 210.307 83.8168 210.814 83.8168C211.448 83.8168 211.967 84.0153 212.37 84.4123C212.773 84.8062 212.975 85.4202 212.975 86.2543V91H211.885V86.2543C211.885 85.7311 211.742 85.3571 211.456 85.1325C211.17 84.9078 210.833 84.7955 210.445 84.7955C209.946 84.7955 209.56 84.9463 209.286 85.2479C209.012 85.5464 208.875 85.925 208.875 86.3835V91H207.767V86.1435C207.767 85.7403 207.637 85.4156 207.375 85.1694C207.113 84.9201 206.776 84.7955 206.364 84.7955C206.081 84.7955 205.816 84.8709 205.57 85.0217C205.327 85.1725 205.13 85.3817 204.979 85.6495C204.831 85.9142 204.758 86.2204 204.758 86.5682V91H203.668ZM215.115 91V81.5455H216.204V85.0355H216.296C216.376 84.9124 216.487 84.7554 216.629 84.5646C216.773 84.3707 216.98 84.1984 217.247 84.0476C217.518 83.8937 217.884 83.8168 218.346 83.8168C218.943 83.8168 219.469 83.966 219.925 84.2646C220.38 84.5631 220.736 84.9863 220.991 85.5341C221.247 86.0819 221.375 86.7282 221.375 87.473C221.375 88.224 221.247 88.8749 220.991 89.4258C220.736 89.9736 220.382 90.3983 219.93 90.6999C219.477 90.9985 218.956 91.1477 218.365 91.1477C217.909 91.1477 217.544 91.0723 217.271 90.9215C216.997 90.7676 216.786 90.5937 216.638 90.3999C216.49 90.2029 216.376 90.0398 216.296 89.9105H216.167V91H215.115ZM216.186 87.4545C216.186 87.9901 216.264 88.4625 216.421 88.8718C216.578 89.2781 216.807 89.5966 217.109 89.8274C217.411 90.0552 217.78 90.169 218.217 90.169C218.672 90.169 219.052 90.049 219.357 89.8089C219.665 89.5658 219.896 89.2396 220.05 88.8303C220.207 88.4179 220.285 87.9593 220.285 87.4545C220.285 86.956 220.208 86.5066 220.054 86.1065C219.903 85.7034 219.674 85.3848 219.366 85.1509C219.062 84.9139 218.679 84.7955 218.217 84.7955C217.774 84.7955 217.401 84.9078 217.1 85.1325C216.798 85.354 216.57 85.6649 216.416 86.065C216.263 86.462 216.186 86.9252 216.186 87.4545ZM226.014 91.1477C225.331 91.1477 224.742 90.9969 224.246 90.6953C223.754 90.3906 223.373 89.9659 223.106 89.4212C222.841 88.8733 222.709 88.2363 222.709 87.5099C222.709 86.7836 222.841 86.1435 223.106 85.5895C223.373 85.0324 223.746 84.5985 224.223 84.2876C224.703 83.9737 225.263 83.8168 225.903 83.8168C226.273 83.8168 226.637 83.8783 226.997 84.0014C227.358 84.1245 227.685 84.3246 227.981 84.6016C228.276 84.8755 228.512 85.2386 228.687 85.6911C228.862 86.1435 228.95 86.7005 228.95 87.3622V87.8239H223.484V86.8821H227.842C227.842 86.482 227.762 86.125 227.602 85.8111C227.445 85.4972 227.221 85.2494 226.928 85.0678C226.639 84.8862 226.297 84.7955 225.903 84.7955C225.469 84.7955 225.094 84.9032 224.777 85.1186C224.463 85.331 224.221 85.608 224.052 85.9496C223.883 86.2912 223.798 86.6574 223.798 87.0483V87.6761C223.798 88.2116 223.891 88.6656 224.075 89.038C224.263 89.4073 224.523 89.6889 224.855 89.8828C225.188 90.0736 225.574 90.169 226.014 90.169C226.3 90.169 226.559 90.129 226.79 90.049C227.024 89.9659 227.225 89.8428 227.394 89.6797C227.564 89.5135 227.695 89.3073 227.787 89.0611L228.839 89.3565C228.729 89.7135 228.542 90.0275 228.281 90.2983C228.019 90.5661 227.696 90.7753 227.311 90.9261C226.927 91.0739 226.494 91.1477 226.014 91.1477ZM230.608 91V83.9091H231.66V84.9801H231.734C231.863 84.6293 232.097 84.3446 232.436 84.1261C232.774 83.9076 233.156 83.7983 233.581 83.7983C233.661 83.7983 233.761 83.7998 233.881 83.8029C234.001 83.806 234.091 83.8106 234.153 83.8168V84.9247C234.116 84.9155 234.031 84.9016 233.899 84.8832C233.77 84.8616 233.633 84.8509 233.488 84.8509C233.143 84.8509 232.836 84.9232 232.565 85.0678C232.297 85.2094 232.085 85.4064 231.928 85.6587C231.774 85.908 231.697 86.1927 231.697 86.5128V91H230.608ZM239.101 91V83.9091H240.153V85.017H240.246C240.393 84.6385 240.632 84.3446 240.961 84.1353C241.29 83.9229 241.686 83.8168 242.148 83.8168C242.615 83.8168 243.005 83.9229 243.316 84.1353C243.629 84.3446 243.874 84.6385 244.05 85.017H244.123C244.305 84.6508 244.577 84.36 244.941 84.1445C245.304 83.926 245.739 83.8168 246.247 83.8168C246.881 83.8168 247.4 84.0153 247.803 84.4123C248.206 84.8062 248.407 85.4202 248.407 86.2543V91H247.318V86.2543C247.318 85.7311 247.175 85.3571 246.889 85.1325C246.602 84.9078 246.265 84.7955 245.878 84.7955C245.379 84.7955 244.993 84.9463 244.719 85.2479C244.445 85.5464 244.308 85.925 244.308 86.3835V91H243.2V86.1435C243.2 85.7403 243.069 85.4156 242.808 85.1694C242.546 84.9201 242.209 84.7955 241.797 84.7955C241.514 84.7955 241.249 84.8709 241.003 85.0217C240.76 85.1725 240.563 85.3817 240.412 85.6495C240.264 85.9142 240.19 86.2204 240.19 86.5682V91H239.101ZM253.373 91.1477C252.689 91.1477 252.1 90.9969 251.604 90.6953C251.112 90.3906 250.732 89.9659 250.464 89.4212C250.199 88.8733 250.067 88.2363 250.067 87.5099C250.067 86.7836 250.199 86.1435 250.464 85.5895C250.732 85.0324 251.104 84.5985 251.581 84.2876C252.061 83.9737 252.622 83.8168 253.262 83.8168C253.631 83.8168 253.996 83.8783 254.356 84.0014C254.716 84.1245 255.044 84.3246 255.339 84.6016C255.635 84.8755 255.87 85.2386 256.045 85.6911C256.221 86.1435 256.309 86.7005 256.309 87.3622V87.8239H250.843V86.8821H255.201C255.201 86.482 255.121 86.125 254.961 85.8111C254.804 85.4972 254.579 85.2494 254.287 85.0678C253.997 84.8862 253.656 84.7955 253.262 84.7955C252.828 84.7955 252.452 84.9032 252.135 85.1186C251.821 85.331 251.58 85.608 251.411 85.9496C251.241 86.2912 251.157 86.6574 251.157 87.0483V87.6761C251.157 88.2116 251.249 88.6656 251.434 89.038C251.621 89.4073 251.881 89.6889 252.214 89.8828C252.546 90.0736 252.932 90.169 253.373 90.169C253.659 90.169 253.917 90.129 254.148 90.049C254.382 89.9659 254.584 89.8428 254.753 89.6797C254.922 89.5135 255.053 89.3073 255.145 89.0611L256.198 89.3565C256.087 89.7135 255.901 90.0275 255.639 90.2983C255.378 90.5661 255.054 90.7753 254.67 90.9261C254.285 91.0739 253.853 91.1477 253.373 91.1477Z" fill="#344054"/>
</g>
<g opacity="0.2">
<rect x="132.5" y="74.5" width="23" height="23" rx="11.5" fill="#217CF5"/>
<circle cx="143.999" cy="86.0031" r="4.8" fill="white"/>
<rect x="132.5" y="74.5" width="23" height="23" rx="11.5" stroke="#217CF5"/>
<path d="M169.145 91V81.5455H172.339C173.078 81.5455 173.684 81.6716 174.158 81.924C174.632 82.1733 174.983 82.5165 175.211 82.9535C175.439 83.3905 175.553 83.8875 175.553 84.4446C175.553 85.0017 175.439 85.4956 175.211 85.9265C174.983 86.3574 174.634 86.6959 174.163 86.9421C173.692 87.1853 173.09 87.3068 172.358 87.3068H169.773V86.2727H172.321C172.826 86.2727 173.232 86.1989 173.54 86.0511C173.851 85.9034 174.075 85.6941 174.214 85.4233C174.355 85.1494 174.426 84.8232 174.426 84.4446C174.426 84.0661 174.355 83.7352 174.214 83.4521C174.072 83.1689 173.846 82.9504 173.535 82.7965C173.224 82.6396 172.813 82.5611 172.303 82.5611H170.29V91H169.145ZM173.595 86.7528L175.922 91H174.592L172.303 86.7528H173.595ZM180.209 91.1477C179.526 91.1477 178.937 90.9969 178.441 90.6953C177.949 90.3906 177.569 89.9659 177.301 89.4212C177.036 88.8733 176.904 88.2363 176.904 87.5099C176.904 86.7836 177.036 86.1435 177.301 85.5895C177.569 85.0324 177.941 84.5985 178.418 84.2876C178.898 83.9737 179.458 83.8168 180.099 83.8168C180.468 83.8168 180.833 83.8783 181.193 84.0014C181.553 84.1245 181.881 84.3246 182.176 84.6016C182.472 84.8755 182.707 85.2386 182.882 85.6911C183.058 86.1435 183.146 86.7005 183.146 87.3622V87.8239H177.68V86.8821H182.038C182.038 86.482 181.958 86.125 181.797 85.8111C181.641 85.4972 181.416 85.2494 181.123 85.0678C180.834 84.8862 180.493 84.7955 180.099 84.7955C179.665 84.7955 179.289 84.9032 178.972 85.1186C178.658 85.331 178.417 85.608 178.247 85.9496C178.078 86.2912 177.994 86.6574 177.994 87.0483V87.6761C177.994 88.2116 178.086 88.6656 178.271 89.038C178.458 89.4073 178.718 89.6889 179.051 89.8828C179.383 90.0736 179.769 90.169 180.209 90.169C180.496 90.169 180.754 90.129 180.985 90.049C181.219 89.9659 181.42 89.8428 181.59 89.6797C181.759 89.5135 181.89 89.3073 181.982 89.0611L183.035 89.3565C182.924 89.7135 182.738 90.0275 182.476 90.2983C182.215 90.5661 181.891 90.7753 181.507 90.9261C181.122 91.0739 180.69 91.1477 180.209 91.1477ZM184.803 91V83.9091H185.855V85.017H185.948C186.095 84.6385 186.334 84.3446 186.663 84.1353C186.993 83.9229 187.388 83.8168 187.85 83.8168C188.318 83.8168 188.707 83.9229 189.018 84.1353C189.332 84.3446 189.576 84.6385 189.752 85.017H189.826C190.007 84.6508 190.28 84.36 190.643 84.1445C191.006 83.926 191.441 83.8168 191.949 83.8168C192.583 83.8168 193.102 84.0153 193.505 84.4123C193.908 84.8062 194.11 85.4202 194.11 86.2543V91H193.02V86.2543C193.02 85.7311 192.877 85.3571 192.591 85.1325C192.305 84.9078 191.968 84.7955 191.58 84.7955C191.081 84.7955 190.695 84.9463 190.421 85.2479C190.147 85.5464 190.01 85.925 190.01 86.3835V91H188.902V86.1435C188.902 85.7403 188.771 85.4156 188.51 85.1694C188.248 84.9201 187.911 84.7955 187.499 84.7955C187.216 84.7955 186.951 84.8709 186.705 85.0217C186.462 85.1725 186.265 85.3817 186.114 85.6495C185.966 85.9142 185.892 86.2204 185.892 86.5682V91H184.803ZM199.075 91.1477C198.391 91.1477 197.802 90.9969 197.307 90.6953C196.814 90.3906 196.434 89.9659 196.166 89.4212C195.902 88.8733 195.769 88.2363 195.769 87.5099C195.769 86.7836 195.902 86.1435 196.166 85.5895C196.434 85.0324 196.806 84.5985 197.283 84.2876C197.764 83.9737 198.324 83.8168 198.964 83.8168C199.333 83.8168 199.698 83.8783 200.058 84.0014C200.418 84.1245 200.746 84.3246 201.041 84.6016C201.337 84.8755 201.572 85.2386 201.748 85.6911C201.923 86.1435 202.011 86.7005 202.011 87.3622V87.8239H196.545V86.8821H200.903C200.903 86.482 200.823 86.125 200.663 85.8111C200.506 85.4972 200.281 85.2494 199.989 85.0678C199.699 84.8862 199.358 84.7955 198.964 84.7955C198.53 84.7955 198.154 84.9032 197.837 85.1186C197.524 85.331 197.282 85.608 197.113 85.9496C196.943 86.2912 196.859 86.6574 196.859 87.0483V87.6761C196.859 88.2116 196.951 88.6656 197.136 89.038C197.323 89.4073 197.584 89.6889 197.916 89.8828C198.248 90.0736 198.635 90.169 199.075 90.169C199.361 90.169 199.619 90.129 199.85 90.049C200.084 89.9659 200.286 89.8428 200.455 89.6797C200.624 89.5135 200.755 89.3073 200.847 89.0611L201.9 89.3565C201.789 89.7135 201.603 90.0275 201.341 90.2983C201.08 90.5661 200.757 90.7753 200.372 90.9261C199.987 91.0739 199.555 91.1477 199.075 91.1477ZM203.668 91V83.9091H204.721V85.017H204.813C204.961 84.6385 205.199 84.3446 205.528 84.1353C205.858 83.9229 206.253 83.8168 206.715 83.8168C207.183 83.8168 207.572 83.9229 207.883 84.1353C208.197 84.3446 208.441 84.6385 208.617 85.017H208.691C208.872 84.6508 209.145 84.36 209.508 84.1445C209.871 83.926 210.307 83.8168 210.814 83.8168C211.448 83.8168 211.967 84.0153 212.37 84.4123C212.773 84.8062 212.975 85.4202 212.975 86.2543V91H211.885V86.2543C211.885 85.7311 211.742 85.3571 211.456 85.1325C211.17 84.9078 210.833 84.7955 210.445 84.7955C209.946 84.7955 209.56 84.9463 209.286 85.2479C209.012 85.5464 208.875 85.925 208.875 86.3835V91H207.767V86.1435C207.767 85.7403 207.637 85.4156 207.375 85.1694C207.113 84.9201 206.776 84.7955 206.364 84.7955C206.081 84.7955 205.816 84.8709 205.57 85.0217C205.327 85.1725 205.13 85.3817 204.979 85.6495C204.831 85.9142 204.758 86.2204 204.758 86.5682V91H203.668ZM215.115 91V81.5455H216.204V85.0355H216.296C216.376 84.9124 216.487 84.7554 216.629 84.5646C216.773 84.3707 216.98 84.1984 217.247 84.0476C217.518 83.8937 217.884 83.8168 218.346 83.8168C218.943 83.8168 219.469 83.966 219.925 84.2646C220.38 84.5631 220.736 84.9863 220.991 85.5341C221.247 86.0819 221.375 86.7282 221.375 87.473C221.375 88.224 221.247 88.8749 220.991 89.4258C220.736 89.9736 220.382 90.3983 219.93 90.6999C219.477 90.9985 218.956 91.1477 218.365 91.1477C217.909 91.1477 217.544 91.0723 217.271 90.9215C216.997 90.7676 216.786 90.5937 216.638 90.3999C216.49 90.2029 216.376 90.0398 216.296 89.9105H216.167V91H215.115ZM216.186 87.4545C216.186 87.9901 216.264 88.4625 216.421 88.8718C216.578 89.2781 216.807 89.5966 217.109 89.8274C217.411 90.0552 217.78 90.169 218.217 90.169C218.672 90.169 219.052 90.049 219.357 89.8089C219.665 89.5658 219.896 89.2396 220.05 88.8303C220.207 88.4179 220.285 87.9593 220.285 87.4545C220.285 86.956 220.208 86.5066 220.054 86.1065C219.903 85.7034 219.674 85.3848 219.366 85.1509C219.062 84.9139 218.679 84.7955 218.217 84.7955C217.774 84.7955 217.401 84.9078 217.1 85.1325C216.798 85.354 216.57 85.6649 216.416 86.065C216.263 86.462 216.186 86.9252 216.186 87.4545ZM226.014 91.1477C225.331 91.1477 224.742 90.9969 224.246 90.6953C223.754 90.3906 223.373 89.9659 223.106 89.4212C222.841 88.8733 222.709 88.2363 222.709 87.5099C222.709 86.7836 222.841 86.1435 223.106 85.5895C223.373 85.0324 223.746 84.5985 224.223 84.2876C224.703 83.9737 225.263 83.8168 225.903 83.8168C226.273 83.8168 226.637 83.8783 226.997 84.0014C227.358 84.1245 227.685 84.3246 227.981 84.6016C228.276 84.8755 228.512 85.2386 228.687 85.6911C228.862 86.1435 228.95 86.7005 228.95 87.3622V87.8239H223.484V86.8821H227.842C227.842 86.482 227.762 86.125 227.602 85.8111C227.445 85.4972 227.221 85.2494 226.928 85.0678C226.639 84.8862 226.297 84.7955 225.903 84.7955C225.469 84.7955 225.094 84.9032 224.777 85.1186C224.463 85.331 224.221 85.608 224.052 85.9496C223.883 86.2912 223.798 86.6574 223.798 87.0483V87.6761C223.798 88.2116 223.891 88.6656 224.075 89.038C224.263 89.4073 224.523 89.6889 224.855 89.8828C225.188 90.0736 225.574 90.169 226.014 90.169C226.3 90.169 226.559 90.129 226.79 90.049C227.024 89.9659 227.225 89.8428 227.394 89.6797C227.564 89.5135 227.695 89.3073 227.787 89.0611L228.839 89.3565C228.729 89.7135 228.542 90.0275 228.281 90.2983C228.019 90.5661 227.696 90.7753 227.311 90.9261C226.927 91.0739 226.494 91.1477 226.014 91.1477ZM230.608 91V83.9091H231.66V84.9801H231.734C231.863 84.6293 232.097 84.3446 232.436 84.1261C232.774 83.9076 233.156 83.7983 233.581 83.7983C233.661 83.7983 233.761 83.7998 233.881 83.8029C234.001 83.806 234.091 83.8106 234.153 83.8168V84.9247C234.116 84.9155 234.031 84.9016 233.899 84.8832C233.77 84.8616 233.633 84.8509 233.488 84.8509C233.143 84.8509 232.836 84.9232 232.565 85.0678C232.297 85.2094 232.085 85.4064 231.928 85.6587C231.774 85.908 231.697 86.1927 231.697 86.5128V91H230.608ZM239.101 91V83.9091H240.153V85.017H240.246C240.393 84.6385 240.632 84.3446 240.961 84.1353C241.29 83.9229 241.686 83.8168 242.148 83.8168C242.615 83.8168 243.005 83.9229 243.316 84.1353C243.629 84.3446 243.874 84.6385 244.05 85.017H244.123C244.305 84.6508 244.577 84.36 244.941 84.1445C245.304 83.926 245.739 83.8168 246.247 83.8168C246.881 83.8168 247.4 84.0153 247.803 84.4123C248.206 84.8062 248.407 85.4202 248.407 86.2543V91H247.318V86.2543C247.318 85.7311 247.175 85.3571 246.889 85.1325C246.602 84.9078 246.265 84.7955 245.878 84.7955C245.379 84.7955 244.993 84.9463 244.719 85.2479C244.445 85.5464 244.308 85.925 244.308 86.3835V91H243.2V86.1435C243.2 85.7403 243.069 85.4156 242.808 85.1694C242.546 84.9201 242.209 84.7955 241.797 84.7955C241.514 84.7955 241.249 84.8709 241.003 85.0217C240.76 85.1725 240.563 85.3817 240.412 85.6495C240.264 85.9142 240.19 86.2204 240.19 86.5682V91H239.101ZM253.373 91.1477C252.689 91.1477 252.1 90.9969 251.604 90.6953C251.112 90.3906 250.732 89.9659 250.464 89.4212C250.199 88.8733 250.067 88.2363 250.067 87.5099C250.067 86.7836 250.199 86.1435 250.464 85.5895C250.732 85.0324 251.104 84.5985 251.581 84.2876C252.061 83.9737 252.622 83.8168 253.262 83.8168C253.631 83.8168 253.996 83.8783 254.356 84.0014C254.716 84.1245 255.044 84.3246 255.339 84.6016C255.635 84.8755 255.87 85.2386 256.045 85.6911C256.221 86.1435 256.309 86.7005 256.309 87.3622V87.8239H250.843V86.8821H255.201C255.201 86.482 255.121 86.125 254.961 85.8111C254.804 85.4972 254.579 85.2494 254.287 85.0678C253.997 84.8862 253.656 84.7955 253.262 84.7955C252.828 84.7955 252.452 84.9032 252.135 85.1186C251.821 85.331 251.58 85.608 251.411 85.9496C251.241 86.2912 251.157 86.6574 251.157 87.0483V87.6761C251.157 88.2116 251.249 88.6656 251.434 89.038C251.621 89.4073 251.881 89.6889 252.214 89.8828C252.546 90.0736 252.932 90.169 253.373 90.169C253.659 90.169 253.917 90.129 254.148 90.049C254.382 89.9659 254.584 89.8428 254.753 89.6797C254.922 89.5135 255.053 89.3073 255.145 89.0611L256.198 89.3565C256.087 89.7135 255.901 90.0275 255.639 90.2983C255.378 90.5661 255.054 90.7753 254.67 90.9261C254.285 91.0739 253.853 91.1477 253.373 91.1477Z" fill="#344054"/>
</g>
<rect x="131.5" y="73.5" width="126" height="25" stroke="#0D69D4"/>
<g clip-path="url(#clip0_379_9478)">
<mask maskUnits="userSpaceOnUse" x="0" y="0" width="0" height="0" fill="black">
<rect fill="white" width="0" height="0"/>
</mask>
<path d="M76.2929 25.2929C75.9024 25.6834 75.9024 26.3166 76.2929 26.7071L82.6569 33.0711C83.0474 33.4616 83.6805 33.4616 84.0711 33.0711C84.4616 32.6805 84.4616 32.0474 84.0711 31.6569L78.4142 26L84.0711 20.3431C84.4616 19.9526 84.4616 19.3195 84.0711 18.9289C83.6805 18.5384 83.0474 18.5384 82.6569 18.9289L76.2929 25.2929ZM107.707 26.7071C108.098 26.3166 108.098 25.6834 107.707 25.2929L101.343 18.9289C100.953 18.5384 100.319 18.5384 99.9289 18.9289C99.5384 19.3195 99.5384 19.9526 99.9289 20.3431L105.586 26L99.9289 31.6569C99.5384 32.0474 99.5384 32.6805 99.9289 33.0711C100.319 33.4616 100.953 33.4616 101.343 33.0711L107.707 26.7071ZM77 27H107V25H77V27Z" fill="#6B6B6B" mask="url(#)"/>
</g>
<path fill-rule="evenodd" clip-rule="evenodd" d="M76.0001 18L76 19L76.0001 22.9915L76 23.024V24.024V28.0185V29.0185V29.0225L76.0001 33.014L76 34.014H77.0001H80.9891H81.9891H86.0113H87.0113H91H92V33.014V29.0185V28.0185V24.024V23.024V19V18H91H87.0113H86.0113H81.9891H80.9891H77.0001H76.0001ZM77.0001 19V22.9915H80.9891V19H77.0001ZM77.0001 29.0225V33.014H80.9891V29.0225H77.0001ZM91 29.0185V33.014H87.0113V29.0185H91ZM91 24.024V28.0185H87.0113V24.024H91ZM91 19V23.024H87.0113V19H91ZM86.0113 19H81.9891V22.9915V23.024H86.0113V19ZM86.0113 24.024H81.9891V28.0185H86.0113V24.024ZM86.0113 29.0185H81.9891V29.0225V33.014H86.0113V29.0185Z" fill="#6B6B6B"/>
<g clip-path="url(#clip1_379_9478)">
<g clip-path="url(#clip2_379_9478)">
<mask maskUnits="userSpaceOnUse" x="0" y="0" width="0" height="0" fill="black">
<rect fill="white" width="0" height="0"/>
</mask>
<path d="M85.2803 64.2197C84.9874 63.9268 84.5126 63.9268 84.2197 64.2197L79.4467 68.9926C79.1538 69.2855 79.1538 69.7604 79.4467 70.0533C79.7396 70.3462 80.2145 70.3462 80.5074 70.0533L84.75 65.8107L88.9926 70.0533C89.2855 70.3462 89.7604 70.3462 90.0533 70.0533C90.3462 69.7604 90.3462 69.2855 90.0533 68.9926L85.2803 64.2197ZM84.2197 85.2803C84.5126 85.5732 84.9874 85.5732 85.2803 85.2803L90.0533 80.5074C90.3462 80.2145 90.3462 79.7396 90.0533 79.4467C89.7604 79.1538 89.2855 79.1538 88.9926 79.4467L84.75 83.6893L80.5074 79.4467C80.2145 79.1538 79.7396 79.1538 79.4467 79.4467C79.1538 79.7396 79.1538 80.2145 79.4467 80.5074L84.2197 85.2803ZM84 64.75V84.75H85.5V64.75H84Z" fill="#0D69D4" mask="url(#)"/>
<mask maskUnits="userSpaceOnUse" x="0" y="0" width="0" height="0" fill="black">
<rect fill="white" width="0" height="0"/>
</mask>
<path d="M85.2803 86.7197C84.9874 86.4268 84.5126 86.4268 84.2197 86.7197L79.4467 91.4926C79.1538 91.7855 79.1538 92.2604 79.4467 92.5533C79.7396 92.8462 80.2145 92.8462 80.5074 92.5533L84.75 88.3107L88.9926 92.5533C89.2855 92.8462 89.7604 92.8462 90.0533 92.5533C90.3462 92.2604 90.3462 91.7855 90.0533 91.4926L85.2803 86.7197ZM84.2197 107.78C84.5126 108.073 84.9874 108.073 85.2803 107.78L90.0533 103.007C90.3462 102.714 90.3462 102.24 90.0533 101.947C89.7604 101.654 89.2855 101.654 88.9926 101.947L84.75 106.189L80.5074 101.947C80.2145 101.654 79.7396 101.654 79.4467 101.947C79.1538 102.24 79.1538 102.714 79.4467 103.007L84.2197 107.78ZM84 87.25V107.25H85.5V87.25H84Z" fill="#0D69D4" mask="url(#)"/>
</g>
</g>
<g clip-path="url(#clip3_379_9478)">
<mask maskUnits="userSpaceOnUse" x="0" y="0" width="0" height="0" fill="black">
<rect fill="white" width="0" height="0"/>
</mask>
<path d="M122.22 24.7197C121.927 25.0126 121.927 25.4874 122.22 25.7803L126.993 30.5533C127.286 30.8462 127.76 30.8462 128.053 30.5533C128.346 30.2604 128.346 29.7855 128.053 29.4926L123.811 25.25L128.053 21.0074C128.346 20.7145 128.346 20.2396 128.053 19.9467C127.76 19.6538 127.286 19.6538 126.993 19.9467L122.22 24.7197ZM193.78 25.7803C194.073 25.4874 194.073 25.0126 193.78 24.7197L189.007 19.9467C188.714 19.6538 188.24 19.6538 187.947 19.9467C187.654 20.2396 187.654 20.7145 187.947 21.0074L192.189 25.25L187.947 29.4926C187.654 29.7855 187.654 30.2604 187.947 30.5533C188.24 30.8462 188.714 30.8462 189.007 30.5533L193.78 25.7803ZM122.75 26H193.25V24.5H122.75V26Z" fill="#0D69D4" mask="url(#)"/>
<mask maskUnits="userSpaceOnUse" x="0" y="0" width="0" height="0" fill="black">
<rect fill="white" width="0" height="0"/>
</mask>
<path d="M195.22 24.7197C194.927 25.0126 194.927 25.4874 195.22 25.7803L199.993 30.5533C200.286 30.8462 200.76 30.8462 201.053 30.5533C201.346 30.2604 201.346 29.7855 201.053 29.4926L196.811 25.25L201.053 21.0074C201.346 20.7145 201.346 20.2396 201.053 19.9467C200.76 19.6538 200.286 19.6538 199.993 19.9467L195.22 24.7197ZM266.78 25.7803C267.073 25.4874 267.073 25.0126 266.78 24.7197L262.007 19.9467C261.714 19.6538 261.24 19.6538 260.947 19.9467C260.654 20.2396 260.654 20.7145 260.947 21.0074L265.189 25.25L260.947 29.4926C260.654 29.7855 260.654 30.2604 260.947 30.5533C261.24 30.8462 261.714 30.8462 262.007 30.5533L266.78 25.7803ZM195.75 26H266.25V24.5H195.75V26Z" fill="#0D69D4" mask="url(#)"/>
</g>
<rect x="156" y="74" width="12" height="24" fill="#C54600" fill-opacity="0.3"/>
<line x1="156.5" y1="58" x2="156.5" y2="98" stroke="#C54600"/>
<line x1="167.5" y1="58" x2="167.5" y2="98" stroke="#C54600"/>
<path d="M159.504 45.2727V54H157.659V47.0241H157.608L155.609 48.277V46.6406L157.77 45.2727H159.504ZM161.578 54V52.6705L164.685 49.794C164.949 49.5384 165.171 49.3082 165.35 49.1037C165.532 48.8991 165.669 48.6989 165.763 48.5028C165.857 48.304 165.904 48.0895 165.904 47.8594C165.904 47.6037 165.846 47.3835 165.729 47.1989C165.613 47.0114 165.453 46.8679 165.252 46.7685C165.05 46.6662 164.821 46.6151 164.566 46.6151C164.299 46.6151 164.066 46.669 163.867 46.777C163.668 46.8849 163.515 47.0398 163.407 47.2415C163.299 47.4432 163.245 47.6832 163.245 47.9616H161.493C161.493 47.3906 161.623 46.8949 161.881 46.4744C162.14 46.054 162.502 45.7287 162.968 45.4986C163.434 45.2685 163.971 45.1534 164.578 45.1534C165.203 45.1534 165.748 45.2642 166.211 45.4858C166.676 45.7045 167.039 46.0085 167.297 46.3977C167.556 46.7869 167.685 47.233 167.685 47.7358C167.685 48.0653 167.62 48.3906 167.489 48.7116C167.361 49.0327 167.132 49.3892 166.803 49.7812C166.473 50.1705 166.009 50.6378 165.409 51.1832L164.135 52.4318V52.4915H167.8V54H161.578Z" fill="#C54600"/>
<g clip-path="url(#clip4_379_9478)">
<mask maskUnits="userSpaceOnUse" x="0" y="0" width="0" height="0" fill="black">
<rect fill="white" width="0" height="0"/>
</mask>
<path d="M122.146 65.1464C121.951 65.3417 121.951 65.6583 122.146 65.8536L125.328 69.0355C125.524 69.2308 125.84 69.2308 126.036 69.0355C126.231 68.8403 126.231 68.5237 126.036 68.3284L123.207 65.5L126.036 62.6716C126.231 62.4763 126.231 62.1597 126.036 61.9645C125.84 61.7692 125.524 61.7692 125.328 61.9645L122.146 65.1464ZM143.354 65.8536C143.549 65.6583 143.549 65.3417 143.354 65.1464L140.172 61.9645C139.976 61.7692 139.66 61.7692 139.464 61.9645C139.269 62.1597 139.269 62.4763 139.464 62.6716L142.293 65.5L139.464 68.3284C139.269 68.5237 139.269 68.8403 139.464 69.0355C139.66 69.2308 139.976 69.2308 140.172 69.0355L143.354 65.8536ZM122.5 66H143V65H122.5V66Z" fill="#0D69D4" mask="url(#)"/>
<mask maskUnits="userSpaceOnUse" x="0" y="0" width="0" height="0" fill="black">
<rect fill="white" width="0" height="0"/>
</mask>
<path d="M144.646 65.1464C144.451 65.3417 144.451 65.6583 144.646 65.8536L147.828 69.0355C148.024 69.2308 148.34 69.2308 148.536 69.0355C148.731 68.8403 148.731 68.5237 148.536 68.3284L145.707 65.5L148.536 62.6716C148.731 62.4763 148.731 62.1597 148.536 61.9645C148.34 61.7692 148.024 61.7692 147.828 61.9645L144.646 65.1464ZM165.854 65.8536C166.049 65.6583 166.049 65.3417 165.854 65.1464L162.672 61.9645C162.476 61.7692 162.16 61.7692 161.964 61.9645C161.769 62.1597 161.769 62.4763 161.964 62.6716L164.793 65.5L161.964 68.3284C161.769 68.5237 161.769 68.8403 161.964 69.0355C162.16 69.2308 162.476 69.2308 162.672 69.0355L165.854 65.8536ZM145 66H165.5V65H145V66Z" fill="#0D69D4" mask="url(#)"/>
</g>
<rect x="132" y="74" width="24" height="24" fill="#0D69D4" fill-opacity="0.2"/>
<g clip-path="url(#clip5_379_9478)">
<mask maskUnits="userSpaceOnUse" x="0" y="0" width="0" height="0" fill="black">
<rect fill="white" width="0" height="0"/>
</mask>
<path d="M158.146 65.1464C157.951 65.3417 157.951 65.6583 158.146 65.8536L161.328 69.0355C161.524 69.2308 161.84 69.2308 162.036 69.0355C162.231 68.8403 162.231 68.5237 162.036 68.3284L159.207 65.5L162.036 62.6716C162.231 62.4763 162.231 62.1597 162.036 61.9645C161.84 61.7692 161.524 61.7692 161.328 61.9645L158.146 65.1464ZM211.854 65.8536C212.049 65.6583 212.049 65.3417 211.854 65.1464L208.672 61.9645C208.476 61.7692 208.16 61.7692 207.964 61.9645C207.769 62.1597 207.769 62.4763 207.964 62.6716L210.793 65.5L207.964 68.3284C207.769 68.5237 207.769 68.8403 207.964 69.0355C208.16 69.2308 208.476 69.2308 208.672 69.0355L211.854 65.8536ZM158.5 66H211.5V65H158.5V66Z" fill="#0D69D4" mask="url(#)"/>
<mask maskUnits="userSpaceOnUse" x="0" y="0" width="0" height="0" fill="black">
<rect fill="white" width="0" height="0"/>
</mask>
<path d="M213.146 65.1464C212.951 65.3417 212.951 65.6583 213.146 65.8536L216.328 69.0355C216.524 69.2308 216.84 69.2308 217.036 69.0355C217.231 68.8403 217.231 68.5237 217.036 68.3284L214.207 65.5L217.036 62.6716C217.231 62.4763 217.231 62.1597 217.036 61.9645C216.84 61.7692 216.524 61.7692 216.328 61.9645L213.146 65.1464ZM266.854 65.8536C267.049 65.6583 267.049 65.3417 266.854 65.1464L263.672 61.9645C263.476 61.7692 263.16 61.7692 262.964 61.9645C262.769 62.1597 262.769 62.4763 262.964 62.6716L265.793 65.5L262.964 68.3284C262.769 68.5237 262.769 68.8403 262.964 69.0355C263.16 69.2308 263.476 69.2308 263.672 69.0355L266.854 65.8536ZM213.5 66H266.5V65H213.5V66Z" fill="#0D69D4" mask="url(#)"/>
</g>
<rect x="168" y="76" width="89" height="20" fill="#0D69D4" fill-opacity="0.2"/>
<defs>
<clipPath id="clip0_379_9478">
<rect width="16" height="16" fill="white" transform="translate(92 18)"/>
</clipPath>
<clipPath id="clip1_379_9478">
<rect width="24" height="16" fill="white" transform="matrix(0 1 -1 0 92 74)"/>
</clipPath>
<clipPath id="clip2_379_9478">
<rect width="44" height="16" fill="white" transform="matrix(0 1 -1 0 92 64)"/>
</clipPath>
<clipPath id="clip3_379_9478">
<rect width="125" height="16" fill="white" transform="translate(132 18)"/>
</clipPath>
<clipPath id="clip4_379_9478">
<rect width="24" height="16" fill="white" transform="translate(132 58)"/>
</clipPath>
<clipPath id="clip5_379_9478">
<rect width="89" height="16" fill="white" transform="translate(168 58)"/>
</clipPath>
</defs>
</svg>
