<svg width="804" height="165" viewBox="0 0 804 165" fill="none" xmlns="http://www.w3.org/2000/svg">
<g clip-path="url(#clip0_379_9027)">
<rect width="804" height="159" fill="#F9FAFB"/>
<rect x="232.5" y="53.5" width="19" height="19" rx="9.5" fill="white"/>
<rect x="232.5" y="53.5" width="19" height="19" rx="9.5" stroke="#D8DEE9"/>
<path d="M261.057 67V58.2727H264.006C264.688 58.2727 265.247 58.3892 265.685 58.6222C266.122 58.8523 266.446 59.169 266.656 59.5724C266.866 59.9759 266.972 60.4347 266.972 60.9489C266.972 61.4631 266.866 61.919 266.656 62.3168C266.446 62.7145 266.124 63.027 265.689 63.2543C265.254 63.4787 264.699 63.5909 264.023 63.5909H261.636V62.6364H263.989C264.455 62.6364 264.83 62.5682 265.114 62.4318C265.401 62.2955 265.608 62.1023 265.736 61.8523C265.866 61.5994 265.932 61.2983 265.932 60.9489C265.932 60.5994 265.866 60.294 265.736 60.0327C265.605 59.7713 265.396 59.5696 265.109 59.4276C264.822 59.2827 264.443 59.2102 263.972 59.2102H262.114V67H261.057ZM265.165 63.0795L267.312 67H266.085L263.972 63.0795H265.165ZM271.27 67.1364C270.64 67.1364 270.096 66.9972 269.638 66.7188C269.184 66.4375 268.833 66.0455 268.586 65.5426C268.341 65.0369 268.219 64.4489 268.219 63.7784C268.219 63.108 268.341 62.517 268.586 62.0057C268.833 61.4915 269.176 61.0909 269.617 60.804C270.06 60.5142 270.577 60.3693 271.168 60.3693C271.509 60.3693 271.846 60.4261 272.178 60.5398C272.51 60.6534 272.813 60.8381 273.086 61.0938C273.358 61.3466 273.576 61.6818 273.738 62.0994C273.9 62.517 273.98 63.0312 273.98 63.642V64.0682H268.935V63.1989H272.958C272.958 62.8295 272.884 62.5 272.736 62.2102C272.591 61.9205 272.384 61.6918 272.114 61.5241C271.847 61.3565 271.532 61.2727 271.168 61.2727C270.767 61.2727 270.421 61.3722 270.128 61.571C269.838 61.767 269.615 62.0227 269.459 62.3381C269.303 62.6534 269.225 62.9915 269.225 63.3523V63.9318C269.225 64.4261 269.31 64.8452 269.48 65.1889C269.654 65.5298 269.894 65.7898 270.201 65.9688C270.507 66.1449 270.864 66.233 271.27 66.233C271.534 66.233 271.773 66.196 271.986 66.1222C272.202 66.0455 272.388 65.9318 272.544 65.7812C272.701 65.6278 272.821 65.4375 272.907 65.2102L273.878 65.483C273.776 65.8125 273.604 66.1023 273.363 66.3523C273.121 66.5994 272.823 66.7926 272.468 66.9318C272.113 67.0682 271.713 67.1364 271.27 67.1364ZM275.51 67V60.4545H276.482V61.4773H276.567C276.703 61.1278 276.924 60.8565 277.228 60.6634C277.532 60.4673 277.897 60.3693 278.323 60.3693C278.755 60.3693 279.114 60.4673 279.401 60.6634C279.691 60.8565 279.917 61.1278 280.078 61.4773H280.147C280.314 61.1392 280.566 60.8707 280.901 60.6719C281.236 60.4702 281.638 60.3693 282.107 60.3693C282.692 60.3693 283.171 60.5526 283.543 60.919C283.915 61.2827 284.101 61.8494 284.101 62.6193V67H283.096V62.6193C283.096 62.1364 282.963 61.7912 282.699 61.5838C282.435 61.3764 282.124 61.2727 281.766 61.2727C281.306 61.2727 280.949 61.4119 280.696 61.6903C280.444 61.9659 280.317 62.3153 280.317 62.7386V67H279.294V62.517C279.294 62.1449 279.174 61.8452 278.932 61.6179C278.691 61.3878 278.38 61.2727 277.999 61.2727C277.738 61.2727 277.493 61.3423 277.266 61.4815C277.042 61.6207 276.86 61.8139 276.721 62.0611C276.584 62.3054 276.516 62.5881 276.516 62.9091V67H275.51ZM288.684 67.1364C288.054 67.1364 287.51 66.9972 287.052 66.7188C286.598 66.4375 286.247 66.0455 286 65.5426C285.755 65.0369 285.633 64.4489 285.633 63.7784C285.633 63.108 285.755 62.517 286 62.0057C286.247 61.4915 286.591 61.0909 287.031 60.804C287.474 60.5142 287.991 60.3693 288.582 60.3693C288.923 60.3693 289.26 60.4261 289.592 60.5398C289.924 60.6534 290.227 60.8381 290.5 61.0938C290.772 61.3466 290.99 61.6818 291.152 62.0994C291.314 62.517 291.395 63.0312 291.395 63.642V64.0682H286.349V63.1989H290.372C290.372 62.8295 290.298 62.5 290.15 62.2102C290.005 61.9205 289.798 61.6918 289.528 61.5241C289.261 61.3565 288.946 61.2727 288.582 61.2727C288.181 61.2727 287.835 61.3722 287.542 61.571C287.252 61.767 287.029 62.0227 286.873 62.3381C286.717 62.6534 286.639 62.9915 286.639 63.3523V63.9318C286.639 64.4261 286.724 64.8452 286.895 65.1889C287.068 65.5298 287.308 65.7898 287.615 65.9688C287.922 66.1449 288.278 66.233 288.684 66.233C288.949 66.233 289.187 66.196 289.4 66.1222C289.616 66.0455 289.802 65.9318 289.958 65.7812C290.115 65.6278 290.235 65.4375 290.321 65.2102L291.292 65.483C291.19 65.8125 291.018 66.1023 290.777 66.3523C290.535 66.5994 290.237 66.7926 289.882 66.9318C289.527 67.0682 289.127 67.1364 288.684 67.1364ZM292.924 67V60.4545H293.896V61.4773H293.981C294.118 61.1278 294.338 60.8565 294.642 60.6634C294.946 60.4673 295.311 60.3693 295.737 60.3693C296.169 60.3693 296.528 60.4673 296.815 60.6634C297.105 60.8565 297.331 61.1278 297.493 61.4773H297.561C297.728 61.1392 297.98 60.8707 298.315 60.6719C298.65 60.4702 299.052 60.3693 299.521 60.3693C300.106 60.3693 300.585 60.5526 300.957 60.919C301.329 61.2827 301.515 61.8494 301.515 62.6193V67H300.51V62.6193C300.51 62.1364 300.377 61.7912 300.113 61.5838C299.849 61.3764 299.538 61.2727 299.18 61.2727C298.72 61.2727 298.363 61.4119 298.11 61.6903C297.858 61.9659 297.731 62.3153 297.731 62.7386V67H296.708V62.517C296.708 62.1449 296.588 61.8452 296.346 61.6179C296.105 61.3878 295.794 61.2727 295.413 61.2727C295.152 61.2727 294.907 61.3423 294.68 61.4815C294.456 61.6207 294.274 61.8139 294.135 62.0611C293.998 62.3054 293.93 62.5881 293.93 62.9091V67H292.924ZM303.49 67V58.2727H304.496V61.4943H304.581C304.655 61.3807 304.757 61.2358 304.888 61.0597C305.022 60.8807 305.212 60.7216 305.459 60.5824C305.709 60.4403 306.047 60.3693 306.473 60.3693C307.025 60.3693 307.51 60.5071 307.931 60.7827C308.351 61.0582 308.679 61.4489 308.915 61.9545C309.151 62.4602 309.269 63.0568 309.269 63.7443C309.269 64.4375 309.151 65.0384 308.915 65.5469C308.679 66.0526 308.353 66.4446 307.935 66.723C307.517 66.9986 307.036 67.1364 306.49 67.1364C306.07 67.1364 305.733 67.0668 305.48 66.9276C305.228 66.7855 305.033 66.625 304.897 66.446C304.76 66.2642 304.655 66.1136 304.581 65.9943H304.462V67H303.49ZM304.479 63.7273C304.479 64.2216 304.551 64.6577 304.696 65.0355C304.841 65.4105 305.053 65.7045 305.331 65.9176C305.61 66.1278 305.951 66.233 306.354 66.233C306.775 66.233 307.125 66.1222 307.407 65.9006C307.691 65.6761 307.904 65.375 308.046 64.9972C308.191 64.6165 308.263 64.1932 308.263 63.7273C308.263 63.267 308.192 62.8523 308.05 62.483C307.911 62.1108 307.699 61.8168 307.415 61.6009C307.134 61.3821 306.78 61.2727 306.354 61.2727C305.945 61.2727 305.601 61.3764 305.323 61.5838C305.044 61.7884 304.834 62.0753 304.692 62.4446C304.55 62.8111 304.479 63.2386 304.479 63.7273ZM313.551 67.1364C312.921 67.1364 312.377 66.9972 311.919 66.7188C311.465 66.4375 311.114 66.0455 310.867 65.5426C310.623 65.0369 310.5 64.4489 310.5 63.7784C310.5 63.108 310.623 62.517 310.867 62.0057C311.114 61.4915 311.458 61.0909 311.898 60.804C312.341 60.5142 312.858 60.3693 313.449 60.3693C313.79 60.3693 314.127 60.4261 314.459 60.5398C314.792 60.6534 315.094 60.8381 315.367 61.0938C315.64 61.3466 315.857 61.6818 316.019 62.0994C316.181 62.517 316.262 63.0312 316.262 63.642V64.0682H311.216V63.1989H315.239C315.239 62.8295 315.165 62.5 315.017 62.2102C314.873 61.9205 314.665 61.6918 314.395 61.5241C314.128 61.3565 313.813 61.2727 313.449 61.2727C313.049 61.2727 312.702 61.3722 312.409 61.571C312.12 61.767 311.897 62.0227 311.74 62.3381C311.584 62.6534 311.506 62.9915 311.506 63.3523V63.9318C311.506 64.4261 311.591 64.8452 311.762 65.1889C311.935 65.5298 312.175 65.7898 312.482 65.9688C312.789 66.1449 313.145 66.233 313.551 66.233C313.816 66.233 314.054 66.196 314.267 66.1222C314.483 66.0455 314.669 65.9318 314.826 65.7812C314.982 65.6278 315.103 65.4375 315.188 65.2102L316.159 65.483C316.057 65.8125 315.885 66.1023 315.644 66.3523C315.402 66.5994 315.104 66.7926 314.749 66.9318C314.394 67.0682 313.995 67.1364 313.551 67.1364ZM317.792 67V60.4545H318.763V61.4432H318.831C318.951 61.1193 319.167 60.8565 319.479 60.6548C319.792 60.4531 320.144 60.3523 320.536 60.3523C320.61 60.3523 320.702 60.3537 320.813 60.3565C320.924 60.3594 321.007 60.3636 321.064 60.3693V61.392C321.03 61.3835 320.952 61.3707 320.83 61.3537C320.711 61.3338 320.584 61.3239 320.451 61.3239C320.132 61.3239 319.848 61.3906 319.598 61.5241C319.351 61.6548 319.155 61.8366 319.01 62.0696C318.868 62.2997 318.797 62.5625 318.797 62.858V67H317.792ZM325.631 67V60.4545H326.603V61.4773H326.688C326.825 61.1278 327.045 60.8565 327.349 60.6634C327.653 60.4673 328.018 60.3693 328.444 60.3693C328.876 60.3693 329.235 60.4673 329.522 60.6634C329.812 60.8565 330.038 61.1278 330.2 61.4773H330.268C330.435 61.1392 330.687 60.8707 331.022 60.6719C331.357 60.4702 331.759 60.3693 332.228 60.3693C332.813 60.3693 333.292 60.5526 333.664 60.919C334.036 61.2827 334.222 61.8494 334.222 62.6193V67H333.217V62.6193C333.217 62.1364 333.085 61.7912 332.82 61.5838C332.556 61.3764 332.245 61.2727 331.887 61.2727C331.427 61.2727 331.07 61.4119 330.817 61.6903C330.565 61.9659 330.438 62.3153 330.438 62.7386V67H329.415V62.517C329.415 62.1449 329.295 61.8452 329.053 61.6179C328.812 61.3878 328.501 61.2727 328.12 61.2727C327.859 61.2727 327.614 61.3423 327.387 61.4815C327.163 61.6207 326.981 61.8139 326.842 62.0611C326.705 62.3054 326.637 62.5881 326.637 62.9091V67H325.631ZM338.805 67.1364C338.175 67.1364 337.631 66.9972 337.173 66.7188C336.719 66.4375 336.368 66.0455 336.121 65.5426C335.876 65.0369 335.754 64.4489 335.754 63.7784C335.754 63.108 335.876 62.517 336.121 62.0057C336.368 61.4915 336.712 61.0909 337.152 60.804C337.595 60.5142 338.112 60.3693 338.703 60.3693C339.044 60.3693 339.381 60.4261 339.713 60.5398C340.045 60.6534 340.348 60.8381 340.621 61.0938C340.893 61.3466 341.111 61.6818 341.273 62.0994C341.435 62.517 341.516 63.0312 341.516 63.642V64.0682H336.47V63.1989H340.493C340.493 62.8295 340.419 62.5 340.271 62.2102C340.126 61.9205 339.919 61.6918 339.649 61.5241C339.382 61.3565 339.067 61.2727 338.703 61.2727C338.303 61.2727 337.956 61.3722 337.663 61.571C337.374 61.767 337.151 62.0227 336.994 62.3381C336.838 62.6534 336.76 62.9915 336.76 63.3523V63.9318C336.76 64.4261 336.845 64.8452 337.016 65.1889C337.189 65.5298 337.429 65.7898 337.736 65.9688C338.043 66.1449 338.399 66.233 338.805 66.233C339.07 66.233 339.308 66.196 339.521 66.1222C339.737 66.0455 339.923 65.9318 340.08 65.7812C340.236 65.6278 340.357 65.4375 340.442 65.2102L341.413 65.483C341.311 65.8125 341.139 66.1023 340.898 66.3523C340.656 66.5994 340.358 66.7926 340.003 66.9318C339.648 67.0682 339.249 67.1364 338.805 67.1364Z" fill="#344054"/>
<rect x="447.5" y="51.5" width="23" height="23" rx="11.5" fill="white"/>
<rect x="447.5" y="51.5" width="23" height="23" rx="11.5" stroke="#D8DEE9"/>
<path d="M484.145 68V58.5455H487.339C488.078 58.5455 488.684 58.6716 489.158 58.924C489.632 59.1733 489.983 59.5165 490.211 59.9535C490.439 60.3905 490.553 60.8875 490.553 61.4446C490.553 62.0017 490.439 62.4956 490.211 62.9265C489.983 63.3574 489.634 63.6959 489.163 63.9421C488.692 64.1853 488.09 64.3068 487.358 64.3068H484.773V63.2727H487.321C487.826 63.2727 488.232 63.1989 488.54 63.0511C488.851 62.9034 489.075 62.6941 489.214 62.4233C489.355 62.1494 489.426 61.8232 489.426 61.4446C489.426 61.0661 489.355 60.7352 489.214 60.4521C489.072 60.1689 488.846 59.9504 488.535 59.7965C488.224 59.6396 487.813 59.5611 487.303 59.5611H485.29V68H484.145ZM488.595 63.7528L490.922 68H489.592L487.303 63.7528H488.595ZM495.209 68.1477C494.526 68.1477 493.937 67.9969 493.441 67.6953C492.949 67.3906 492.569 66.9659 492.301 66.4212C492.036 65.8733 491.904 65.2363 491.904 64.5099C491.904 63.7836 492.036 63.1435 492.301 62.5895C492.569 62.0324 492.941 61.5985 493.418 61.2876C493.898 60.9737 494.458 60.8168 495.099 60.8168C495.468 60.8168 495.833 60.8783 496.193 61.0014C496.553 61.1245 496.881 61.3246 497.176 61.6016C497.472 61.8755 497.707 62.2386 497.882 62.6911C498.058 63.1435 498.146 63.7005 498.146 64.3622V64.8239H492.68V63.8821H497.038C497.038 63.482 496.958 63.125 496.797 62.8111C496.641 62.4972 496.416 62.2494 496.123 62.0678C495.834 61.8862 495.493 61.7955 495.099 61.7955C494.665 61.7955 494.289 61.9032 493.972 62.1186C493.658 62.331 493.417 62.608 493.247 62.9496C493.078 63.2912 492.994 63.6574 492.994 64.0483V64.6761C492.994 65.2116 493.086 65.6656 493.271 66.038C493.458 66.4073 493.718 66.6889 494.051 66.8828C494.383 67.0736 494.769 67.169 495.209 67.169C495.496 67.169 495.754 67.129 495.985 67.049C496.219 66.9659 496.42 66.8428 496.59 66.6797C496.759 66.5135 496.89 66.3073 496.982 66.0611L498.035 66.3565C497.924 66.7135 497.738 67.0275 497.476 67.2983C497.215 67.5661 496.891 67.7753 496.507 67.9261C496.122 68.0739 495.69 68.1477 495.209 68.1477ZM499.803 68V60.9091H500.855V62.017H500.948C501.095 61.6385 501.334 61.3446 501.663 61.1353C501.993 60.9229 502.388 60.8168 502.85 60.8168C503.318 60.8168 503.707 60.9229 504.018 61.1353C504.332 61.3446 504.576 61.6385 504.752 62.017H504.826C505.007 61.6508 505.28 61.36 505.643 61.1445C506.006 60.926 506.441 60.8168 506.949 60.8168C507.583 60.8168 508.102 61.0153 508.505 61.4123C508.908 61.8062 509.11 62.4202 509.11 63.2543V68H508.02V63.2543C508.02 62.7311 507.877 62.3571 507.591 62.1325C507.305 61.9078 506.968 61.7955 506.58 61.7955C506.081 61.7955 505.695 61.9463 505.421 62.2479C505.147 62.5464 505.01 62.925 505.01 63.3835V68H503.902V63.1435C503.902 62.7403 503.771 62.4156 503.51 62.1694C503.248 61.9201 502.911 61.7955 502.499 61.7955C502.216 61.7955 501.951 61.8709 501.705 62.0217C501.462 62.1725 501.265 62.3817 501.114 62.6495C500.966 62.9142 500.892 63.2204 500.892 63.5682V68H499.803ZM514.075 68.1477C513.391 68.1477 512.802 67.9969 512.307 67.6953C511.814 67.3906 511.434 66.9659 511.166 66.4212C510.902 65.8733 510.769 65.2363 510.769 64.5099C510.769 63.7836 510.902 63.1435 511.166 62.5895C511.434 62.0324 511.806 61.5985 512.283 61.2876C512.764 60.9737 513.324 60.8168 513.964 60.8168C514.333 60.8168 514.698 60.8783 515.058 61.0014C515.418 61.1245 515.746 61.3246 516.041 61.6016C516.337 61.8755 516.572 62.2386 516.748 62.6911C516.923 63.1435 517.011 63.7005 517.011 64.3622V64.8239H511.545V63.8821H515.903C515.903 63.482 515.823 63.125 515.663 62.8111C515.506 62.4972 515.281 62.2494 514.989 62.0678C514.699 61.8862 514.358 61.7955 513.964 61.7955C513.53 61.7955 513.154 61.9032 512.837 62.1186C512.524 62.331 512.282 62.608 512.113 62.9496C511.943 63.2912 511.859 63.6574 511.859 64.0483V64.6761C511.859 65.2116 511.951 65.6656 512.136 66.038C512.323 66.4073 512.584 66.6889 512.916 66.8828C513.248 67.0736 513.635 67.169 514.075 67.169C514.361 67.169 514.619 67.129 514.85 67.049C515.084 66.9659 515.286 66.8428 515.455 66.6797C515.624 66.5135 515.755 66.3073 515.847 66.0611L516.9 66.3565C516.789 66.7135 516.603 67.0275 516.341 67.2983C516.08 67.5661 515.757 67.7753 515.372 67.9261C514.987 68.0739 514.555 68.1477 514.075 68.1477ZM518.668 68V60.9091H519.721V62.017H519.813C519.961 61.6385 520.199 61.3446 520.528 61.1353C520.858 60.9229 521.253 60.8168 521.715 60.8168C522.183 60.8168 522.572 60.9229 522.883 61.1353C523.197 61.3446 523.441 61.6385 523.617 62.017H523.691C523.872 61.6508 524.145 61.36 524.508 61.1445C524.871 60.926 525.307 60.8168 525.814 60.8168C526.448 60.8168 526.967 61.0153 527.37 61.4123C527.773 61.8062 527.975 62.4202 527.975 63.2543V68H526.885V63.2543C526.885 62.7311 526.742 62.3571 526.456 62.1325C526.17 61.9078 525.833 61.7955 525.445 61.7955C524.946 61.7955 524.56 61.9463 524.286 62.2479C524.012 62.5464 523.875 62.925 523.875 63.3835V68H522.767V63.1435C522.767 62.7403 522.637 62.4156 522.375 62.1694C522.113 61.9201 521.776 61.7955 521.364 61.7955C521.081 61.7955 520.816 61.8709 520.57 62.0217C520.327 62.1725 520.13 62.3817 519.979 62.6495C519.831 62.9142 519.758 63.2204 519.758 63.5682V68H518.668ZM530.115 68V58.5455H531.204V62.0355H531.296C531.376 61.9124 531.487 61.7554 531.629 61.5646C531.773 61.3707 531.98 61.1984 532.247 61.0476C532.518 60.8937 532.884 60.8168 533.346 60.8168C533.943 60.8168 534.469 60.966 534.925 61.2646C535.38 61.5631 535.736 61.9863 535.991 62.5341C536.247 63.0819 536.375 63.7282 536.375 64.473C536.375 65.224 536.247 65.8749 535.991 66.4258C535.736 66.9736 535.382 67.3983 534.93 67.6999C534.477 67.9985 533.956 68.1477 533.365 68.1477C532.909 68.1477 532.544 68.0723 532.271 67.9215C531.997 67.7676 531.786 67.5937 531.638 67.3999C531.49 67.2029 531.376 67.0398 531.296 66.9105H531.167V68H530.115ZM531.186 64.4545C531.186 64.9901 531.264 65.4625 531.421 65.8718C531.578 66.2781 531.807 66.5966 532.109 66.8274C532.411 67.0552 532.78 67.169 533.217 67.169C533.672 67.169 534.052 67.049 534.357 66.8089C534.665 66.5658 534.896 66.2396 535.05 65.8303C535.207 65.4179 535.285 64.9593 535.285 64.4545C535.285 63.956 535.208 63.5066 535.054 63.1065C534.903 62.7034 534.674 62.3848 534.366 62.1509C534.062 61.9139 533.679 61.7955 533.217 61.7955C532.774 61.7955 532.401 61.9078 532.1 62.1325C531.798 62.354 531.57 62.6649 531.416 63.065C531.263 63.462 531.186 63.9252 531.186 64.4545ZM541.014 68.1477C540.331 68.1477 539.742 67.9969 539.246 67.6953C538.754 67.3906 538.373 66.9659 538.106 66.4212C537.841 65.8733 537.709 65.2363 537.709 64.5099C537.709 63.7836 537.841 63.1435 538.106 62.5895C538.373 62.0324 538.746 61.5985 539.223 61.2876C539.703 60.9737 540.263 60.8168 540.903 60.8168C541.273 60.8168 541.637 60.8783 541.997 61.0014C542.358 61.1245 542.685 61.3246 542.981 61.6016C543.276 61.8755 543.512 62.2386 543.687 62.6911C543.862 63.1435 543.95 63.7005 543.95 64.3622V64.8239H538.484V63.8821H542.842C542.842 63.482 542.762 63.125 542.602 62.8111C542.445 62.4972 542.221 62.2494 541.928 62.0678C541.639 61.8862 541.297 61.7955 540.903 61.7955C540.469 61.7955 540.094 61.9032 539.777 62.1186C539.463 62.331 539.221 62.608 539.052 62.9496C538.883 63.2912 538.798 63.6574 538.798 64.0483V64.6761C538.798 65.2116 538.891 65.6656 539.075 66.038C539.263 66.4073 539.523 66.6889 539.855 66.8828C540.188 67.0736 540.574 67.169 541.014 67.169C541.3 67.169 541.559 67.129 541.79 67.049C542.024 66.9659 542.225 66.8428 542.394 66.6797C542.564 66.5135 542.695 66.3073 542.787 66.0611L543.839 66.3565C543.729 66.7135 543.542 67.0275 543.281 67.2983C543.019 67.5661 542.696 67.7753 542.311 67.9261C541.927 68.0739 541.494 68.1477 541.014 68.1477ZM545.608 68V60.9091H546.66V61.9801H546.734C546.863 61.6293 547.097 61.3446 547.436 61.1261C547.774 60.9076 548.156 60.7983 548.581 60.7983C548.661 60.7983 548.761 60.7998 548.881 60.8029C549.001 60.806 549.091 60.8106 549.153 60.8168V61.9247C549.116 61.9155 549.031 61.9016 548.899 61.8832C548.77 61.8616 548.633 61.8509 548.488 61.8509C548.143 61.8509 547.836 61.9232 547.565 62.0678C547.297 62.2094 547.085 62.4064 546.928 62.6587C546.774 62.908 546.697 63.1927 546.697 63.5128V68H545.608ZM554.101 68V60.9091H555.153V62.017H555.246C555.393 61.6385 555.632 61.3446 555.961 61.1353C556.29 60.9229 556.686 60.8168 557.148 60.8168C557.615 60.8168 558.005 60.9229 558.316 61.1353C558.629 61.3446 558.874 61.6385 559.05 62.017H559.123C559.305 61.6508 559.577 61.36 559.941 61.1445C560.304 60.926 560.739 60.8168 561.247 60.8168C561.881 60.8168 562.4 61.0153 562.803 61.4123C563.206 61.8062 563.407 62.4202 563.407 63.2543V68H562.318V63.2543C562.318 62.7311 562.175 62.3571 561.889 62.1325C561.602 61.9078 561.265 61.7955 560.878 61.7955C560.379 61.7955 559.993 61.9463 559.719 62.2479C559.445 62.5464 559.308 62.925 559.308 63.3835V68H558.2V63.1435C558.2 62.7403 558.069 62.4156 557.808 62.1694C557.546 61.9201 557.209 61.7955 556.797 61.7955C556.514 61.7955 556.249 61.8709 556.003 62.0217C555.76 62.1725 555.563 62.3817 555.412 62.6495C555.264 62.9142 555.19 63.2204 555.19 63.5682V68H554.101ZM568.373 68.1477C567.689 68.1477 567.1 67.9969 566.604 67.6953C566.112 67.3906 565.732 66.9659 565.464 66.4212C565.199 65.8733 565.067 65.2363 565.067 64.5099C565.067 63.7836 565.199 63.1435 565.464 62.5895C565.732 62.0324 566.104 61.5985 566.581 61.2876C567.061 60.9737 567.622 60.8168 568.262 60.8168C568.631 60.8168 568.996 60.8783 569.356 61.0014C569.716 61.1245 570.044 61.3246 570.339 61.6016C570.635 61.8755 570.87 62.2386 571.045 62.6911C571.221 63.1435 571.309 63.7005 571.309 64.3622V64.8239H565.843V63.8821H570.201C570.201 63.482 570.121 63.125 569.961 62.8111C569.804 62.4972 569.579 62.2494 569.287 62.0678C568.997 61.8862 568.656 61.7955 568.262 61.7955C567.828 61.7955 567.452 61.9032 567.135 62.1186C566.821 62.331 566.58 62.608 566.411 62.9496C566.241 63.2912 566.157 63.6574 566.157 64.0483V64.6761C566.157 65.2116 566.249 65.6656 566.434 66.038C566.621 66.4073 566.881 66.6889 567.214 66.8828C567.546 67.0736 567.932 67.169 568.373 67.169C568.659 67.169 568.917 67.129 569.148 67.049C569.382 66.9659 569.584 66.8428 569.753 66.6797C569.922 66.5135 570.053 66.3073 570.145 66.0611L571.198 66.3565C571.087 66.7135 570.901 67.0275 570.639 67.2983C570.378 67.5661 570.054 67.7753 569.67 67.9261C569.285 68.0739 568.853 68.1477 568.373 68.1477Z" fill="#344054"/>
<g clip-path="url(#clip1_379_9027)">
<rect x="288" y="79" width="1" height="40" fill="#C54600"/>
<g clip-path="url(#clip2_379_9027)">
<rect x="276" y="95" width="24" height="24" rx="12" fill="#C54600"/>
<path d="M289.83 101.818V112H287.677V103.862H287.618L285.286 105.323V103.414L287.807 101.818H289.83Z" fill="white"/>
</g>
</g>
<g clip-path="url(#clip3_379_9027)">
<rect x="516" y="79" width="1" height="40" fill="#C54600"/>
<g clip-path="url(#clip4_379_9027)">
<rect x="504" y="95" width="24" height="24" rx="12" fill="#C54600"/>
<path d="M512.416 112V110.449L516.04 107.093C516.349 106.795 516.607 106.526 516.816 106.288C517.028 106.049 517.189 105.815 517.298 105.587C517.408 105.355 517.462 105.104 517.462 104.836C517.462 104.538 517.394 104.281 517.258 104.065C517.123 103.847 516.937 103.679 516.702 103.563C516.466 103.444 516.199 103.384 515.901 103.384C515.59 103.384 515.318 103.447 515.086 103.573C514.854 103.699 514.675 103.88 514.549 104.115C514.423 104.35 514.36 104.63 514.36 104.955H512.317C512.317 104.289 512.467 103.711 512.769 103.22C513.071 102.73 513.493 102.35 514.037 102.082C514.58 101.813 515.207 101.679 515.916 101.679C516.645 101.679 517.28 101.808 517.82 102.067C518.364 102.322 518.786 102.677 519.088 103.131C519.39 103.585 519.54 104.105 519.54 104.692C519.54 105.076 519.464 105.456 519.312 105.83C519.163 106.205 518.896 106.621 518.511 107.078C518.127 107.532 517.585 108.077 516.886 108.714L515.399 110.17V110.24H519.675V112H512.416Z" fill="white"/>
</g>
</g>
</g>
<defs>
<clipPath id="clip0_379_9027">
<rect width="804" height="159" fill="white"/>
</clipPath>
<clipPath id="clip1_379_9027">
<rect width="24" height="40" fill="white" transform="translate(276 79)"/>
</clipPath>
<clipPath id="clip2_379_9027">
<rect x="276" y="95" width="24" height="24" rx="12" fill="white"/>
</clipPath>
<clipPath id="clip3_379_9027">
<rect width="24" height="40" fill="white" transform="translate(504 79)"/>
</clipPath>
<clipPath id="clip4_379_9027">
<rect x="504" y="95" width="24" height="24" rx="12" fill="white"/>
</clipPath>
</defs>
</svg>
