<svg width="804" height="126" viewBox="0 0 804 126" fill="none" xmlns="http://www.w3.org/2000/svg">
<rect width="804" height="126" fill="#F9FAFB"/>
<rect x="154.5" y="51.5" width="23" height="23" rx="11.5" fill="#217CF5"/>
<circle cx="165.999" cy="63.0031" r="4.8" fill="white"/>
<rect x="154.5" y="51.5" width="23" height="23" rx="11.5" stroke="#217CF5"/>
<path d="M191.145 68V58.5455H194.339C195.078 58.5455 195.684 58.6716 196.158 58.924C196.632 59.1733 196.983 59.5165 197.211 59.9535C197.439 60.3905 197.553 60.8875 197.553 61.4446C197.553 62.0017 197.439 62.4956 197.211 62.9265C196.983 63.3574 196.634 63.6959 196.163 63.9421C195.692 64.1853 195.09 64.3068 194.358 64.3068H191.773V63.2727H194.321C194.826 63.2727 195.232 63.1989 195.54 63.0511C195.851 62.9034 196.075 62.6941 196.214 62.4233C196.355 62.1494 196.426 61.8232 196.426 61.4446C196.426 61.0661 196.355 60.7352 196.214 60.4521C196.072 60.1689 195.846 59.9504 195.535 59.7965C195.224 59.6396 194.813 59.5611 194.303 59.5611H192.29V68H191.145ZM195.595 63.7528L197.922 68H196.592L194.303 63.7528H195.595ZM202.209 68.1477C201.526 68.1477 200.937 67.9969 200.441 67.6953C199.949 67.3906 199.569 66.9659 199.301 66.4212C199.036 65.8733 198.904 65.2363 198.904 64.5099C198.904 63.7836 199.036 63.1435 199.301 62.5895C199.569 62.0324 199.941 61.5985 200.418 61.2876C200.898 60.9737 201.458 60.8168 202.099 60.8168C202.468 60.8168 202.833 60.8783 203.193 61.0014C203.553 61.1245 203.881 61.3246 204.176 61.6016C204.472 61.8755 204.707 62.2386 204.882 62.6911C205.058 63.1435 205.146 63.7005 205.146 64.3622V64.8239H199.68V63.8821H204.038C204.038 63.482 203.958 63.125 203.797 62.8111C203.641 62.4972 203.416 62.2494 203.123 62.0678C202.834 61.8862 202.493 61.7955 202.099 61.7955C201.665 61.7955 201.289 61.9032 200.972 62.1186C200.658 62.331 200.417 62.608 200.247 62.9496C200.078 63.2912 199.994 63.6574 199.994 64.0483V64.6761C199.994 65.2116 200.086 65.6656 200.271 66.038C200.458 66.4073 200.718 66.6889 201.051 66.8828C201.383 67.0736 201.769 67.169 202.209 67.169C202.496 67.169 202.754 67.129 202.985 67.049C203.219 66.9659 203.42 66.8428 203.59 66.6797C203.759 66.5135 203.89 66.3073 203.982 66.0611L205.035 66.3565C204.924 66.7135 204.738 67.0275 204.476 67.2983C204.215 67.5661 203.891 67.7753 203.507 67.9261C203.122 68.0739 202.69 68.1477 202.209 68.1477ZM206.803 68V60.9091H207.855V62.017H207.948C208.095 61.6385 208.334 61.3446 208.663 61.1353C208.993 60.9229 209.388 60.8168 209.85 60.8168C210.318 60.8168 210.707 60.9229 211.018 61.1353C211.332 61.3446 211.576 61.6385 211.752 62.017H211.826C212.007 61.6508 212.28 61.36 212.643 61.1445C213.006 60.926 213.441 60.8168 213.949 60.8168C214.583 60.8168 215.102 61.0153 215.505 61.4123C215.908 61.8062 216.11 62.4202 216.11 63.2543V68H215.02V63.2543C215.02 62.7311 214.877 62.3571 214.591 62.1325C214.305 61.9078 213.968 61.7955 213.58 61.7955C213.081 61.7955 212.695 61.9463 212.421 62.2479C212.147 62.5464 212.01 62.925 212.01 63.3835V68H210.902V63.1435C210.902 62.7403 210.771 62.4156 210.51 62.1694C210.248 61.9201 209.911 61.7955 209.499 61.7955C209.216 61.7955 208.951 61.8709 208.705 62.0217C208.462 62.1725 208.265 62.3817 208.114 62.6495C207.966 62.9142 207.892 63.2204 207.892 63.5682V68H206.803ZM221.075 68.1477C220.391 68.1477 219.802 67.9969 219.307 67.6953C218.814 67.3906 218.434 66.9659 218.166 66.4212C217.902 65.8733 217.769 65.2363 217.769 64.5099C217.769 63.7836 217.902 63.1435 218.166 62.5895C218.434 62.0324 218.806 61.5985 219.283 61.2876C219.764 60.9737 220.324 60.8168 220.964 60.8168C221.333 60.8168 221.698 60.8783 222.058 61.0014C222.418 61.1245 222.746 61.3246 223.041 61.6016C223.337 61.8755 223.572 62.2386 223.748 62.6911C223.923 63.1435 224.011 63.7005 224.011 64.3622V64.8239H218.545V63.8821H222.903C222.903 63.482 222.823 63.125 222.663 62.8111C222.506 62.4972 222.281 62.2494 221.989 62.0678C221.699 61.8862 221.358 61.7955 220.964 61.7955C220.53 61.7955 220.154 61.9032 219.837 62.1186C219.524 62.331 219.282 62.608 219.113 62.9496C218.943 63.2912 218.859 63.6574 218.859 64.0483V64.6761C218.859 65.2116 218.951 65.6656 219.136 66.038C219.323 66.4073 219.584 66.6889 219.916 66.8828C220.248 67.0736 220.635 67.169 221.075 67.169C221.361 67.169 221.619 67.129 221.85 67.049C222.084 66.9659 222.286 66.8428 222.455 66.6797C222.624 66.5135 222.755 66.3073 222.847 66.0611L223.9 66.3565C223.789 66.7135 223.603 67.0275 223.341 67.2983C223.08 67.5661 222.757 67.7753 222.372 67.9261C221.987 68.0739 221.555 68.1477 221.075 68.1477ZM225.668 68V60.9091H226.721V62.017H226.813C226.961 61.6385 227.199 61.3446 227.528 61.1353C227.858 60.9229 228.253 60.8168 228.715 60.8168C229.183 60.8168 229.572 60.9229 229.883 61.1353C230.197 61.3446 230.441 61.6385 230.617 62.017H230.691C230.872 61.6508 231.145 61.36 231.508 61.1445C231.871 60.926 232.307 60.8168 232.814 60.8168C233.448 60.8168 233.967 61.0153 234.37 61.4123C234.773 61.8062 234.975 62.4202 234.975 63.2543V68H233.885V63.2543C233.885 62.7311 233.742 62.3571 233.456 62.1325C233.17 61.9078 232.833 61.7955 232.445 61.7955C231.946 61.7955 231.56 61.9463 231.286 62.2479C231.012 62.5464 230.875 62.925 230.875 63.3835V68H229.767V63.1435C229.767 62.7403 229.637 62.4156 229.375 62.1694C229.113 61.9201 228.776 61.7955 228.364 61.7955C228.081 61.7955 227.816 61.8709 227.57 62.0217C227.327 62.1725 227.13 62.3817 226.979 62.6495C226.831 62.9142 226.758 63.2204 226.758 63.5682V68H225.668ZM237.115 68V58.5455H238.204V62.0355H238.296C238.376 61.9124 238.487 61.7554 238.629 61.5646C238.773 61.3707 238.98 61.1984 239.247 61.0476C239.518 60.8937 239.884 60.8168 240.346 60.8168C240.943 60.8168 241.469 60.966 241.925 61.2646C242.38 61.5631 242.736 61.9863 242.991 62.5341C243.247 63.0819 243.375 63.7282 243.375 64.473C243.375 65.224 243.247 65.8749 242.991 66.4258C242.736 66.9736 242.382 67.3983 241.93 67.6999C241.477 67.9985 240.956 68.1477 240.365 68.1477C239.909 68.1477 239.544 68.0723 239.271 67.9215C238.997 67.7676 238.786 67.5937 238.638 67.3999C238.49 67.2029 238.376 67.0398 238.296 66.9105H238.167V68H237.115ZM238.186 64.4545C238.186 64.9901 238.264 65.4625 238.421 65.8718C238.578 66.2781 238.807 66.5966 239.109 66.8274C239.411 67.0552 239.78 67.169 240.217 67.169C240.672 67.169 241.052 67.049 241.357 66.8089C241.665 66.5658 241.896 66.2396 242.05 65.8303C242.207 65.4179 242.285 64.9593 242.285 64.4545C242.285 63.956 242.208 63.5066 242.054 63.1065C241.903 62.7034 241.674 62.3848 241.366 62.1509C241.062 61.9139 240.679 61.7955 240.217 61.7955C239.774 61.7955 239.401 61.9078 239.1 62.1325C238.798 62.354 238.57 62.6649 238.416 63.065C238.263 63.462 238.186 63.9252 238.186 64.4545ZM248.014 68.1477C247.331 68.1477 246.742 67.9969 246.246 67.6953C245.754 67.3906 245.373 66.9659 245.106 66.4212C244.841 65.8733 244.709 65.2363 244.709 64.5099C244.709 63.7836 244.841 63.1435 245.106 62.5895C245.373 62.0324 245.746 61.5985 246.223 61.2876C246.703 60.9737 247.263 60.8168 247.903 60.8168C248.273 60.8168 248.637 60.8783 248.997 61.0014C249.358 61.1245 249.685 61.3246 249.981 61.6016C250.276 61.8755 250.512 62.2386 250.687 62.6911C250.862 63.1435 250.95 63.7005 250.95 64.3622V64.8239H245.484V63.8821H249.842C249.842 63.482 249.762 63.125 249.602 62.8111C249.445 62.4972 249.221 62.2494 248.928 62.0678C248.639 61.8862 248.297 61.7955 247.903 61.7955C247.469 61.7955 247.094 61.9032 246.777 62.1186C246.463 62.331 246.221 62.608 246.052 62.9496C245.883 63.2912 245.798 63.6574 245.798 64.0483V64.6761C245.798 65.2116 245.891 65.6656 246.075 66.038C246.263 66.4073 246.523 66.6889 246.855 66.8828C247.188 67.0736 247.574 67.169 248.014 67.169C248.3 67.169 248.559 67.129 248.79 67.049C249.024 66.9659 249.225 66.8428 249.394 66.6797C249.564 66.5135 249.695 66.3073 249.787 66.0611L250.839 66.3565C250.729 66.7135 250.542 67.0275 250.281 67.2983C250.019 67.5661 249.696 67.7753 249.311 67.9261C248.927 68.0739 248.494 68.1477 248.014 68.1477ZM252.608 68V60.9091H253.66V61.9801H253.734C253.863 61.6293 254.097 61.3446 254.436 61.1261C254.774 60.9076 255.156 60.7983 255.581 60.7983C255.661 60.7983 255.761 60.7998 255.881 60.8029C256.001 60.806 256.091 60.8106 256.153 60.8168V61.9247C256.116 61.9155 256.031 61.9016 255.899 61.8832C255.77 61.8616 255.633 61.8509 255.488 61.8509C255.143 61.8509 254.836 61.9232 254.565 62.0678C254.297 62.2094 254.085 62.4064 253.928 62.6587C253.774 62.908 253.697 63.1927 253.697 63.5128V68H252.608ZM261.101 68V60.9091H262.153V62.017H262.246C262.393 61.6385 262.632 61.3446 262.961 61.1353C263.29 60.9229 263.686 60.8168 264.148 60.8168C264.615 60.8168 265.005 60.9229 265.316 61.1353C265.629 61.3446 265.874 61.6385 266.05 62.017H266.123C266.305 61.6508 266.577 61.36 266.941 61.1445C267.304 60.926 267.739 60.8168 268.247 60.8168C268.881 60.8168 269.4 61.0153 269.803 61.4123C270.206 61.8062 270.407 62.4202 270.407 63.2543V68H269.318V63.2543C269.318 62.7311 269.175 62.3571 268.889 62.1325C268.602 61.9078 268.265 61.7955 267.878 61.7955C267.379 61.7955 266.993 61.9463 266.719 62.2479C266.445 62.5464 266.308 62.925 266.308 63.3835V68H265.2V63.1435C265.2 62.7403 265.069 62.4156 264.808 62.1694C264.546 61.9201 264.209 61.7955 263.797 61.7955C263.514 61.7955 263.249 61.8709 263.003 62.0217C262.76 62.1725 262.563 62.3817 262.412 62.6495C262.264 62.9142 262.19 63.2204 262.19 63.5682V68H261.101ZM275.373 68.1477C274.689 68.1477 274.1 67.9969 273.604 67.6953C273.112 67.3906 272.732 66.9659 272.464 66.4212C272.199 65.8733 272.067 65.2363 272.067 64.5099C272.067 63.7836 272.199 63.1435 272.464 62.5895C272.732 62.0324 273.104 61.5985 273.581 61.2876C274.061 60.9737 274.622 60.8168 275.262 60.8168C275.631 60.8168 275.996 60.8783 276.356 61.0014C276.716 61.1245 277.044 61.3246 277.339 61.6016C277.635 61.8755 277.87 62.2386 278.045 62.6911C278.221 63.1435 278.309 63.7005 278.309 64.3622V64.8239H272.843V63.8821H277.201C277.201 63.482 277.121 63.125 276.961 62.8111C276.804 62.4972 276.579 62.2494 276.287 62.0678C275.997 61.8862 275.656 61.7955 275.262 61.7955C274.828 61.7955 274.452 61.9032 274.135 62.1186C273.821 62.331 273.58 62.608 273.411 62.9496C273.241 63.2912 273.157 63.6574 273.157 64.0483V64.6761C273.157 65.2116 273.249 65.6656 273.434 66.038C273.621 66.4073 273.881 66.6889 274.214 66.8828C274.546 67.0736 274.932 67.169 275.373 67.169C275.659 67.169 275.917 67.129 276.148 67.049C276.382 66.9659 276.584 66.8428 276.753 66.6797C276.922 66.5135 277.053 66.3073 277.145 66.0611L278.198 66.3565C278.087 66.7135 277.901 67.0275 277.639 67.2983C277.378 67.5661 277.054 67.7753 276.67 67.9261C276.285 68.0739 275.853 68.1477 275.373 68.1477Z" fill="#344054"/>
<rect x="339.5" y="51.5" width="23" height="23" rx="11.5" fill="white"/>
<rect x="339.5" y="51.5" width="23" height="23" rx="11.5" stroke="#D8DEE9"/>
<path d="M376.145 68V58.5455H379.339C380.078 58.5455 380.684 58.6716 381.158 58.924C381.632 59.1733 381.983 59.5165 382.211 59.9535C382.439 60.3905 382.553 60.8875 382.553 61.4446C382.553 62.0017 382.439 62.4956 382.211 62.9265C381.983 63.3574 381.634 63.6959 381.163 63.9421C380.692 64.1853 380.09 64.3068 379.358 64.3068H376.773V63.2727H379.321C379.826 63.2727 380.232 63.1989 380.54 63.0511C380.851 62.9034 381.075 62.6941 381.214 62.4233C381.355 62.1494 381.426 61.8232 381.426 61.4446C381.426 61.0661 381.355 60.7352 381.214 60.4521C381.072 60.1689 380.846 59.9504 380.535 59.7965C380.224 59.6396 379.813 59.5611 379.303 59.5611H377.29V68H376.145ZM380.595 63.7528L382.922 68H381.592L379.303 63.7528H380.595ZM387.209 68.1477C386.526 68.1477 385.937 67.9969 385.441 67.6953C384.949 67.3906 384.569 66.9659 384.301 66.4212C384.036 65.8733 383.904 65.2363 383.904 64.5099C383.904 63.7836 384.036 63.1435 384.301 62.5895C384.569 62.0324 384.941 61.5985 385.418 61.2876C385.898 60.9737 386.458 60.8168 387.099 60.8168C387.468 60.8168 387.833 60.8783 388.193 61.0014C388.553 61.1245 388.881 61.3246 389.176 61.6016C389.472 61.8755 389.707 62.2386 389.882 62.6911C390.058 63.1435 390.146 63.7005 390.146 64.3622V64.8239H384.68V63.8821H389.038C389.038 63.482 388.958 63.125 388.797 62.8111C388.641 62.4972 388.416 62.2494 388.123 62.0678C387.834 61.8862 387.493 61.7955 387.099 61.7955C386.665 61.7955 386.289 61.9032 385.972 62.1186C385.658 62.331 385.417 62.608 385.247 62.9496C385.078 63.2912 384.994 63.6574 384.994 64.0483V64.6761C384.994 65.2116 385.086 65.6656 385.271 66.038C385.458 66.4073 385.718 66.6889 386.051 66.8828C386.383 67.0736 386.769 67.169 387.209 67.169C387.496 67.169 387.754 67.129 387.985 67.049C388.219 66.9659 388.42 66.8428 388.59 66.6797C388.759 66.5135 388.89 66.3073 388.982 66.0611L390.035 66.3565C389.924 66.7135 389.738 67.0275 389.476 67.2983C389.215 67.5661 388.891 67.7753 388.507 67.9261C388.122 68.0739 387.69 68.1477 387.209 68.1477ZM391.803 68V60.9091H392.855V62.017H392.948C393.095 61.6385 393.334 61.3446 393.663 61.1353C393.993 60.9229 394.388 60.8168 394.85 60.8168C395.318 60.8168 395.707 60.9229 396.018 61.1353C396.332 61.3446 396.576 61.6385 396.752 62.017H396.826C397.007 61.6508 397.28 61.36 397.643 61.1445C398.006 60.926 398.441 60.8168 398.949 60.8168C399.583 60.8168 400.102 61.0153 400.505 61.4123C400.908 61.8062 401.11 62.4202 401.11 63.2543V68H400.02V63.2543C400.02 62.7311 399.877 62.3571 399.591 62.1325C399.305 61.9078 398.968 61.7955 398.58 61.7955C398.081 61.7955 397.695 61.9463 397.421 62.2479C397.147 62.5464 397.01 62.925 397.01 63.3835V68H395.902V63.1435C395.902 62.7403 395.771 62.4156 395.51 62.1694C395.248 61.9201 394.911 61.7955 394.499 61.7955C394.216 61.7955 393.951 61.8709 393.705 62.0217C393.462 62.1725 393.265 62.3817 393.114 62.6495C392.966 62.9142 392.892 63.2204 392.892 63.5682V68H391.803ZM406.075 68.1477C405.391 68.1477 404.802 67.9969 404.307 67.6953C403.814 67.3906 403.434 66.9659 403.166 66.4212C402.902 65.8733 402.769 65.2363 402.769 64.5099C402.769 63.7836 402.902 63.1435 403.166 62.5895C403.434 62.0324 403.806 61.5985 404.283 61.2876C404.764 60.9737 405.324 60.8168 405.964 60.8168C406.333 60.8168 406.698 60.8783 407.058 61.0014C407.418 61.1245 407.746 61.3246 408.041 61.6016C408.337 61.8755 408.572 62.2386 408.748 62.6911C408.923 63.1435 409.011 63.7005 409.011 64.3622V64.8239H403.545V63.8821H407.903C407.903 63.482 407.823 63.125 407.663 62.8111C407.506 62.4972 407.281 62.2494 406.989 62.0678C406.699 61.8862 406.358 61.7955 405.964 61.7955C405.53 61.7955 405.154 61.9032 404.837 62.1186C404.524 62.331 404.282 62.608 404.113 62.9496C403.943 63.2912 403.859 63.6574 403.859 64.0483V64.6761C403.859 65.2116 403.951 65.6656 404.136 66.038C404.323 66.4073 404.584 66.6889 404.916 66.8828C405.248 67.0736 405.635 67.169 406.075 67.169C406.361 67.169 406.619 67.129 406.85 67.049C407.084 66.9659 407.286 66.8428 407.455 66.6797C407.624 66.5135 407.755 66.3073 407.847 66.0611L408.9 66.3565C408.789 66.7135 408.603 67.0275 408.341 67.2983C408.08 67.5661 407.757 67.7753 407.372 67.9261C406.987 68.0739 406.555 68.1477 406.075 68.1477ZM410.668 68V60.9091H411.721V62.017H411.813C411.961 61.6385 412.199 61.3446 412.528 61.1353C412.858 60.9229 413.253 60.8168 413.715 60.8168C414.183 60.8168 414.572 60.9229 414.883 61.1353C415.197 61.3446 415.441 61.6385 415.617 62.017H415.691C415.872 61.6508 416.145 61.36 416.508 61.1445C416.871 60.926 417.307 60.8168 417.814 60.8168C418.448 60.8168 418.967 61.0153 419.37 61.4123C419.773 61.8062 419.975 62.4202 419.975 63.2543V68H418.885V63.2543C418.885 62.7311 418.742 62.3571 418.456 62.1325C418.17 61.9078 417.833 61.7955 417.445 61.7955C416.946 61.7955 416.56 61.9463 416.286 62.2479C416.012 62.5464 415.875 62.925 415.875 63.3835V68H414.767V63.1435C414.767 62.7403 414.637 62.4156 414.375 62.1694C414.113 61.9201 413.776 61.7955 413.364 61.7955C413.081 61.7955 412.816 61.8709 412.57 62.0217C412.327 62.1725 412.13 62.3817 411.979 62.6495C411.831 62.9142 411.758 63.2204 411.758 63.5682V68H410.668ZM422.115 68V58.5455H423.204V62.0355H423.296C423.376 61.9124 423.487 61.7554 423.629 61.5646C423.773 61.3707 423.98 61.1984 424.247 61.0476C424.518 60.8937 424.884 60.8168 425.346 60.8168C425.943 60.8168 426.469 60.966 426.925 61.2646C427.38 61.5631 427.736 61.9863 427.991 62.5341C428.247 63.0819 428.375 63.7282 428.375 64.473C428.375 65.224 428.247 65.8749 427.991 66.4258C427.736 66.9736 427.382 67.3983 426.93 67.6999C426.477 67.9985 425.956 68.1477 425.365 68.1477C424.909 68.1477 424.544 68.0723 424.271 67.9215C423.997 67.7676 423.786 67.5937 423.638 67.3999C423.49 67.2029 423.376 67.0398 423.296 66.9105H423.167V68H422.115ZM423.186 64.4545C423.186 64.9901 423.264 65.4625 423.421 65.8718C423.578 66.2781 423.807 66.5966 424.109 66.8274C424.411 67.0552 424.78 67.169 425.217 67.169C425.672 67.169 426.052 67.049 426.357 66.8089C426.665 66.5658 426.896 66.2396 427.05 65.8303C427.207 65.4179 427.285 64.9593 427.285 64.4545C427.285 63.956 427.208 63.5066 427.054 63.1065C426.903 62.7034 426.674 62.3848 426.366 62.1509C426.062 61.9139 425.679 61.7955 425.217 61.7955C424.774 61.7955 424.401 61.9078 424.1 62.1325C423.798 62.354 423.57 62.6649 423.416 63.065C423.263 63.462 423.186 63.9252 423.186 64.4545ZM433.014 68.1477C432.331 68.1477 431.742 67.9969 431.246 67.6953C430.754 67.3906 430.373 66.9659 430.106 66.4212C429.841 65.8733 429.709 65.2363 429.709 64.5099C429.709 63.7836 429.841 63.1435 430.106 62.5895C430.373 62.0324 430.746 61.5985 431.223 61.2876C431.703 60.9737 432.263 60.8168 432.903 60.8168C433.273 60.8168 433.637 60.8783 433.997 61.0014C434.358 61.1245 434.685 61.3246 434.981 61.6016C435.276 61.8755 435.512 62.2386 435.687 62.6911C435.862 63.1435 435.95 63.7005 435.95 64.3622V64.8239H430.484V63.8821H434.842C434.842 63.482 434.762 63.125 434.602 62.8111C434.445 62.4972 434.221 62.2494 433.928 62.0678C433.639 61.8862 433.297 61.7955 432.903 61.7955C432.469 61.7955 432.094 61.9032 431.777 62.1186C431.463 62.331 431.221 62.608 431.052 62.9496C430.883 63.2912 430.798 63.6574 430.798 64.0483V64.6761C430.798 65.2116 430.891 65.6656 431.075 66.038C431.263 66.4073 431.523 66.6889 431.855 66.8828C432.188 67.0736 432.574 67.169 433.014 67.169C433.3 67.169 433.559 67.129 433.79 67.049C434.024 66.9659 434.225 66.8428 434.394 66.6797C434.564 66.5135 434.695 66.3073 434.787 66.0611L435.839 66.3565C435.729 66.7135 435.542 67.0275 435.281 67.2983C435.019 67.5661 434.696 67.7753 434.311 67.9261C433.927 68.0739 433.494 68.1477 433.014 68.1477ZM437.608 68V60.9091H438.66V61.9801H438.734C438.863 61.6293 439.097 61.3446 439.436 61.1261C439.774 60.9076 440.156 60.7983 440.581 60.7983C440.661 60.7983 440.761 60.7998 440.881 60.8029C441.001 60.806 441.091 60.8106 441.153 60.8168V61.9247C441.116 61.9155 441.031 61.9016 440.899 61.8832C440.77 61.8616 440.633 61.8509 440.488 61.8509C440.143 61.8509 439.836 61.9232 439.565 62.0678C439.297 62.2094 439.085 62.4064 438.928 62.6587C438.774 62.908 438.697 63.1927 438.697 63.5128V68H437.608ZM446.101 68V60.9091H447.153V62.017H447.246C447.393 61.6385 447.632 61.3446 447.961 61.1353C448.29 60.9229 448.686 60.8168 449.148 60.8168C449.615 60.8168 450.005 60.9229 450.316 61.1353C450.629 61.3446 450.874 61.6385 451.05 62.017H451.123C451.305 61.6508 451.577 61.36 451.941 61.1445C452.304 60.926 452.739 60.8168 453.247 60.8168C453.881 60.8168 454.4 61.0153 454.803 61.4123C455.206 61.8062 455.407 62.4202 455.407 63.2543V68H454.318V63.2543C454.318 62.7311 454.175 62.3571 453.889 62.1325C453.602 61.9078 453.265 61.7955 452.878 61.7955C452.379 61.7955 451.993 61.9463 451.719 62.2479C451.445 62.5464 451.308 62.925 451.308 63.3835V68H450.2V63.1435C450.2 62.7403 450.069 62.4156 449.808 62.1694C449.546 61.9201 449.209 61.7955 448.797 61.7955C448.514 61.7955 448.249 61.8709 448.003 62.0217C447.76 62.1725 447.563 62.3817 447.412 62.6495C447.264 62.9142 447.19 63.2204 447.19 63.5682V68H446.101ZM460.373 68.1477C459.689 68.1477 459.1 67.9969 458.604 67.6953C458.112 67.3906 457.732 66.9659 457.464 66.4212C457.199 65.8733 457.067 65.2363 457.067 64.5099C457.067 63.7836 457.199 63.1435 457.464 62.5895C457.732 62.0324 458.104 61.5985 458.581 61.2876C459.061 60.9737 459.622 60.8168 460.262 60.8168C460.631 60.8168 460.996 60.8783 461.356 61.0014C461.716 61.1245 462.044 61.3246 462.339 61.6016C462.635 61.8755 462.87 62.2386 463.045 62.6911C463.221 63.1435 463.309 63.7005 463.309 64.3622V64.8239H457.843V63.8821H462.201C462.201 63.482 462.121 63.125 461.961 62.8111C461.804 62.4972 461.579 62.2494 461.287 62.0678C460.997 61.8862 460.656 61.7955 460.262 61.7955C459.828 61.7955 459.452 61.9032 459.135 62.1186C458.821 62.331 458.58 62.608 458.411 62.9496C458.241 63.2912 458.157 63.6574 458.157 64.0483V64.6761C458.157 65.2116 458.249 65.6656 458.434 66.038C458.621 66.4073 458.881 66.6889 459.214 66.8828C459.546 67.0736 459.932 67.169 460.373 67.169C460.659 67.169 460.917 67.129 461.148 67.049C461.382 66.9659 461.584 66.8428 461.753 66.6797C461.922 66.5135 462.053 66.3073 462.145 66.0611L463.198 66.3565C463.087 66.7135 462.901 67.0275 462.639 67.2983C462.378 67.5661 462.054 67.7753 461.67 67.9261C461.285 68.0739 460.853 68.1477 460.373 68.1477Z" fill="#344054"/>
<rect x="524.5" y="51.5" width="23" height="23" rx="11.5" fill="#F2F4F7"/>
<rect x="524.5" y="51.5" width="23" height="23" rx="11.5" stroke="#EAECF0"/>
<path d="M561.145 68V58.5455H564.339C565.078 58.5455 565.684 58.6716 566.158 58.924C566.632 59.1733 566.983 59.5165 567.211 59.9535C567.439 60.3905 567.553 60.8875 567.553 61.4446C567.553 62.0017 567.439 62.4956 567.211 62.9265C566.983 63.3574 566.634 63.6959 566.163 63.9421C565.692 64.1853 565.09 64.3068 564.358 64.3068H561.773V63.2727H564.321C564.826 63.2727 565.232 63.1989 565.54 63.0511C565.851 62.9034 566.075 62.6941 566.214 62.4233C566.355 62.1494 566.426 61.8232 566.426 61.4446C566.426 61.0661 566.355 60.7352 566.214 60.4521C566.072 60.1689 565.846 59.9504 565.535 59.7965C565.224 59.6396 564.813 59.5611 564.303 59.5611H562.29V68H561.145ZM565.595 63.7528L567.922 68H566.592L564.303 63.7528H565.595ZM572.209 68.1477C571.526 68.1477 570.937 67.9969 570.441 67.6953C569.949 67.3906 569.569 66.9659 569.301 66.4212C569.036 65.8733 568.904 65.2363 568.904 64.5099C568.904 63.7836 569.036 63.1435 569.301 62.5895C569.569 62.0324 569.941 61.5985 570.418 61.2876C570.898 60.9737 571.458 60.8168 572.099 60.8168C572.468 60.8168 572.833 60.8783 573.193 61.0014C573.553 61.1245 573.881 61.3246 574.176 61.6016C574.472 61.8755 574.707 62.2386 574.882 62.6911C575.058 63.1435 575.146 63.7005 575.146 64.3622V64.8239H569.68V63.8821H574.038C574.038 63.482 573.958 63.125 573.797 62.8111C573.641 62.4972 573.416 62.2494 573.123 62.0678C572.834 61.8862 572.493 61.7955 572.099 61.7955C571.665 61.7955 571.289 61.9032 570.972 62.1186C570.658 62.331 570.417 62.608 570.247 62.9496C570.078 63.2912 569.994 63.6574 569.994 64.0483V64.6761C569.994 65.2116 570.086 65.6656 570.271 66.038C570.458 66.4073 570.718 66.6889 571.051 66.8828C571.383 67.0736 571.769 67.169 572.209 67.169C572.496 67.169 572.754 67.129 572.985 67.049C573.219 66.9659 573.42 66.8428 573.59 66.6797C573.759 66.5135 573.89 66.3073 573.982 66.0611L575.035 66.3565C574.924 66.7135 574.738 67.0275 574.476 67.2983C574.215 67.5661 573.891 67.7753 573.507 67.9261C573.122 68.0739 572.69 68.1477 572.209 68.1477ZM576.803 68V60.9091H577.855V62.017H577.948C578.095 61.6385 578.334 61.3446 578.663 61.1353C578.993 60.9229 579.388 60.8168 579.85 60.8168C580.318 60.8168 580.707 60.9229 581.018 61.1353C581.332 61.3446 581.576 61.6385 581.752 62.017H581.826C582.007 61.6508 582.28 61.36 582.643 61.1445C583.006 60.926 583.441 60.8168 583.949 60.8168C584.583 60.8168 585.102 61.0153 585.505 61.4123C585.908 61.8062 586.11 62.4202 586.11 63.2543V68H585.02V63.2543C585.02 62.7311 584.877 62.3571 584.591 62.1325C584.305 61.9078 583.968 61.7955 583.58 61.7955C583.081 61.7955 582.695 61.9463 582.421 62.2479C582.147 62.5464 582.01 62.925 582.01 63.3835V68H580.902V63.1435C580.902 62.7403 580.771 62.4156 580.51 62.1694C580.248 61.9201 579.911 61.7955 579.499 61.7955C579.216 61.7955 578.951 61.8709 578.705 62.0217C578.462 62.1725 578.265 62.3817 578.114 62.6495C577.966 62.9142 577.892 63.2204 577.892 63.5682V68H576.803ZM591.075 68.1477C590.391 68.1477 589.802 67.9969 589.307 67.6953C588.814 67.3906 588.434 66.9659 588.166 66.4212C587.902 65.8733 587.769 65.2363 587.769 64.5099C587.769 63.7836 587.902 63.1435 588.166 62.5895C588.434 62.0324 588.806 61.5985 589.283 61.2876C589.764 60.9737 590.324 60.8168 590.964 60.8168C591.333 60.8168 591.698 60.8783 592.058 61.0014C592.418 61.1245 592.746 61.3246 593.041 61.6016C593.337 61.8755 593.572 62.2386 593.748 62.6911C593.923 63.1435 594.011 63.7005 594.011 64.3622V64.8239H588.545V63.8821H592.903C592.903 63.482 592.823 63.125 592.663 62.8111C592.506 62.4972 592.281 62.2494 591.989 62.0678C591.699 61.8862 591.358 61.7955 590.964 61.7955C590.53 61.7955 590.154 61.9032 589.837 62.1186C589.524 62.331 589.282 62.608 589.113 62.9496C588.943 63.2912 588.859 63.6574 588.859 64.0483V64.6761C588.859 65.2116 588.951 65.6656 589.136 66.038C589.323 66.4073 589.584 66.6889 589.916 66.8828C590.248 67.0736 590.635 67.169 591.075 67.169C591.361 67.169 591.619 67.129 591.85 67.049C592.084 66.9659 592.286 66.8428 592.455 66.6797C592.624 66.5135 592.755 66.3073 592.847 66.0611L593.9 66.3565C593.789 66.7135 593.603 67.0275 593.341 67.2983C593.08 67.5661 592.757 67.7753 592.372 67.9261C591.987 68.0739 591.555 68.1477 591.075 68.1477ZM595.668 68V60.9091H596.721V62.017H596.813C596.961 61.6385 597.199 61.3446 597.528 61.1353C597.858 60.9229 598.253 60.8168 598.715 60.8168C599.183 60.8168 599.572 60.9229 599.883 61.1353C600.197 61.3446 600.441 61.6385 600.617 62.017H600.691C600.872 61.6508 601.145 61.36 601.508 61.1445C601.871 60.926 602.307 60.8168 602.814 60.8168C603.448 60.8168 603.967 61.0153 604.37 61.4123C604.773 61.8062 604.975 62.4202 604.975 63.2543V68H603.885V63.2543C603.885 62.7311 603.742 62.3571 603.456 62.1325C603.17 61.9078 602.833 61.7955 602.445 61.7955C601.946 61.7955 601.56 61.9463 601.286 62.2479C601.012 62.5464 600.875 62.925 600.875 63.3835V68H599.767V63.1435C599.767 62.7403 599.637 62.4156 599.375 62.1694C599.113 61.9201 598.776 61.7955 598.364 61.7955C598.081 61.7955 597.816 61.8709 597.57 62.0217C597.327 62.1725 597.13 62.3817 596.979 62.6495C596.831 62.9142 596.758 63.2204 596.758 63.5682V68H595.668ZM607.115 68V58.5455H608.204V62.0355H608.296C608.376 61.9124 608.487 61.7554 608.629 61.5646C608.773 61.3707 608.98 61.1984 609.247 61.0476C609.518 60.8937 609.884 60.8168 610.346 60.8168C610.943 60.8168 611.469 60.966 611.925 61.2646C612.38 61.5631 612.736 61.9863 612.991 62.5341C613.247 63.0819 613.375 63.7282 613.375 64.473C613.375 65.224 613.247 65.8749 612.991 66.4258C612.736 66.9736 612.382 67.3983 611.93 67.6999C611.477 67.9985 610.956 68.1477 610.365 68.1477C609.909 68.1477 609.544 68.0723 609.271 67.9215C608.997 67.7676 608.786 67.5937 608.638 67.3999C608.49 67.2029 608.376 67.0398 608.296 66.9105H608.167V68H607.115ZM608.186 64.4545C608.186 64.9901 608.264 65.4625 608.421 65.8718C608.578 66.2781 608.807 66.5966 609.109 66.8274C609.411 67.0552 609.78 67.169 610.217 67.169C610.672 67.169 611.052 67.049 611.357 66.8089C611.665 66.5658 611.896 66.2396 612.05 65.8303C612.207 65.4179 612.285 64.9593 612.285 64.4545C612.285 63.956 612.208 63.5066 612.054 63.1065C611.903 62.7034 611.674 62.3848 611.366 62.1509C611.062 61.9139 610.679 61.7955 610.217 61.7955C609.774 61.7955 609.401 61.9078 609.1 62.1325C608.798 62.354 608.57 62.6649 608.416 63.065C608.263 63.462 608.186 63.9252 608.186 64.4545ZM618.014 68.1477C617.331 68.1477 616.742 67.9969 616.246 67.6953C615.754 67.3906 615.373 66.9659 615.106 66.4212C614.841 65.8733 614.709 65.2363 614.709 64.5099C614.709 63.7836 614.841 63.1435 615.106 62.5895C615.373 62.0324 615.746 61.5985 616.223 61.2876C616.703 60.9737 617.263 60.8168 617.903 60.8168C618.273 60.8168 618.637 60.8783 618.997 61.0014C619.358 61.1245 619.685 61.3246 619.981 61.6016C620.276 61.8755 620.512 62.2386 620.687 62.6911C620.862 63.1435 620.95 63.7005 620.95 64.3622V64.8239H615.484V63.8821H619.842C619.842 63.482 619.762 63.125 619.602 62.8111C619.445 62.4972 619.221 62.2494 618.928 62.0678C618.639 61.8862 618.297 61.7955 617.903 61.7955C617.469 61.7955 617.094 61.9032 616.777 62.1186C616.463 62.331 616.221 62.608 616.052 62.9496C615.883 63.2912 615.798 63.6574 615.798 64.0483V64.6761C615.798 65.2116 615.891 65.6656 616.075 66.038C616.263 66.4073 616.523 66.6889 616.855 66.8828C617.188 67.0736 617.574 67.169 618.014 67.169C618.3 67.169 618.559 67.129 618.79 67.049C619.024 66.9659 619.225 66.8428 619.394 66.6797C619.564 66.5135 619.695 66.3073 619.787 66.0611L620.839 66.3565C620.729 66.7135 620.542 67.0275 620.281 67.2983C620.019 67.5661 619.696 67.7753 619.311 67.9261C618.927 68.0739 618.494 68.1477 618.014 68.1477ZM622.608 68V60.9091H623.66V61.9801H623.734C623.863 61.6293 624.097 61.3446 624.436 61.1261C624.774 60.9076 625.156 60.7983 625.581 60.7983C625.661 60.7983 625.761 60.7998 625.881 60.8029C626.001 60.806 626.091 60.8106 626.153 60.8168V61.9247C626.116 61.9155 626.031 61.9016 625.899 61.8832C625.77 61.8616 625.633 61.8509 625.488 61.8509C625.143 61.8509 624.836 61.9232 624.565 62.0678C624.297 62.2094 624.085 62.4064 623.928 62.6587C623.774 62.908 623.697 63.1927 623.697 63.5128V68H622.608ZM631.101 68V60.9091H632.153V62.017H632.246C632.393 61.6385 632.632 61.3446 632.961 61.1353C633.29 60.9229 633.686 60.8168 634.148 60.8168C634.615 60.8168 635.005 60.9229 635.316 61.1353C635.629 61.3446 635.874 61.6385 636.05 62.017H636.123C636.305 61.6508 636.577 61.36 636.941 61.1445C637.304 60.926 637.739 60.8168 638.247 60.8168C638.881 60.8168 639.4 61.0153 639.803 61.4123C640.206 61.8062 640.407 62.4202 640.407 63.2543V68H639.318V63.2543C639.318 62.7311 639.175 62.3571 638.889 62.1325C638.602 61.9078 638.265 61.7955 637.878 61.7955C637.379 61.7955 636.993 61.9463 636.719 62.2479C636.445 62.5464 636.308 62.925 636.308 63.3835V68H635.2V63.1435C635.2 62.7403 635.069 62.4156 634.808 62.1694C634.546 61.9201 634.209 61.7955 633.797 61.7955C633.514 61.7955 633.249 61.8709 633.003 62.0217C632.76 62.1725 632.563 62.3817 632.412 62.6495C632.264 62.9142 632.19 63.2204 632.19 63.5682V68H631.101ZM645.373 68.1477C644.689 68.1477 644.1 67.9969 643.604 67.6953C643.112 67.3906 642.732 66.9659 642.464 66.4212C642.199 65.8733 642.067 65.2363 642.067 64.5099C642.067 63.7836 642.199 63.1435 642.464 62.5895C642.732 62.0324 643.104 61.5985 643.581 61.2876C644.061 60.9737 644.622 60.8168 645.262 60.8168C645.631 60.8168 645.996 60.8783 646.356 61.0014C646.716 61.1245 647.044 61.3246 647.339 61.6016C647.635 61.8755 647.87 62.2386 648.045 62.6911C648.221 63.1435 648.309 63.7005 648.309 64.3622V64.8239H642.843V63.8821H647.201C647.201 63.482 647.121 63.125 646.961 62.8111C646.804 62.4972 646.579 62.2494 646.287 62.0678C645.997 61.8862 645.656 61.7955 645.262 61.7955C644.828 61.7955 644.452 61.9032 644.135 62.1186C643.821 62.331 643.58 62.608 643.411 62.9496C643.241 63.2912 643.157 63.6574 643.157 64.0483V64.6761C643.157 65.2116 643.249 65.6656 643.434 66.038C643.621 66.4073 643.881 66.6889 644.214 66.8828C644.546 67.0736 644.932 67.169 645.373 67.169C645.659 67.169 645.917 67.129 646.148 67.049C646.382 66.9659 646.584 66.8428 646.753 66.6797C646.922 66.5135 647.053 66.3073 647.145 66.0611L648.198 66.3565C648.087 66.7135 647.901 67.0275 647.639 67.2983C647.378 67.5661 647.054 67.7753 646.67 67.9261C646.285 68.0739 645.853 68.1477 645.373 68.1477Z" fill="#D8DEE9"/>
</svg>
