<svg width="804" height="126" viewBox="0 0 804 126" fill="none" xmlns="http://www.w3.org/2000/svg">
<rect width="804" height="126" fill="#F9FAFB"/>
<rect x="179.5" y="42.5" width="23" height="23" rx="11.5" fill="white"/>
<rect x="179.5" y="42.5" width="23" height="23" rx="11.5" stroke="#D8DEE9"/>
<path d="M216.145 59V49.5455H219.339C220.078 49.5455 220.684 49.6716 221.158 49.924C221.632 50.1733 221.983 50.5165 222.211 50.9535C222.439 51.3905 222.553 51.8875 222.553 52.4446C222.553 53.0017 222.439 53.4956 222.211 53.9265C221.983 54.3574 221.634 54.6959 221.163 54.9421C220.692 55.1853 220.09 55.3068 219.358 55.3068H216.773V54.2727H219.321C219.826 54.2727 220.232 54.1989 220.54 54.0511C220.851 53.9034 221.075 53.6941 221.214 53.4233C221.355 53.1494 221.426 52.8232 221.426 52.4446C221.426 52.0661 221.355 51.7352 221.214 51.4521C221.072 51.1689 220.846 50.9504 220.535 50.7965C220.224 50.6396 219.813 50.5611 219.303 50.5611H217.29V59H216.145ZM220.595 54.7528L222.922 59H221.592L219.303 54.7528H220.595ZM227.209 59.1477C226.526 59.1477 225.937 58.9969 225.441 58.6953C224.949 58.3906 224.569 57.9659 224.301 57.4212C224.036 56.8733 223.904 56.2363 223.904 55.5099C223.904 54.7836 224.036 54.1435 224.301 53.5895C224.569 53.0324 224.941 52.5985 225.418 52.2876C225.898 51.9737 226.458 51.8168 227.099 51.8168C227.468 51.8168 227.833 51.8783 228.193 52.0014C228.553 52.1245 228.881 52.3246 229.176 52.6016C229.472 52.8755 229.707 53.2386 229.882 53.6911C230.058 54.1435 230.146 54.7005 230.146 55.3622V55.8239H224.68V54.8821H229.038C229.038 54.482 228.958 54.125 228.797 53.8111C228.641 53.4972 228.416 53.2494 228.123 53.0678C227.834 52.8862 227.493 52.7955 227.099 52.7955C226.665 52.7955 226.289 52.9032 225.972 53.1186C225.658 53.331 225.417 53.608 225.247 53.9496C225.078 54.2912 224.994 54.6574 224.994 55.0483V55.6761C224.994 56.2116 225.086 56.6656 225.271 57.038C225.458 57.4073 225.718 57.6889 226.051 57.8828C226.383 58.0736 226.769 58.169 227.209 58.169C227.496 58.169 227.754 58.129 227.985 58.049C228.219 57.9659 228.42 57.8428 228.59 57.6797C228.759 57.5135 228.89 57.3073 228.982 57.0611L230.035 57.3565C229.924 57.7135 229.738 58.0275 229.476 58.2983C229.215 58.5661 228.891 58.7753 228.507 58.9261C228.122 59.0739 227.69 59.1477 227.209 59.1477ZM231.803 59V51.9091H232.855V53.017H232.948C233.095 52.6385 233.334 52.3446 233.663 52.1353C233.993 51.9229 234.388 51.8168 234.85 51.8168C235.318 51.8168 235.707 51.9229 236.018 52.1353C236.332 52.3446 236.576 52.6385 236.752 53.017H236.826C237.007 52.6508 237.28 52.36 237.643 52.1445C238.006 51.926 238.441 51.8168 238.949 51.8168C239.583 51.8168 240.102 52.0153 240.505 52.4123C240.908 52.8062 241.11 53.4202 241.11 54.2543V59H240.02V54.2543C240.02 53.7311 239.877 53.3571 239.591 53.1325C239.305 52.9078 238.968 52.7955 238.58 52.7955C238.081 52.7955 237.695 52.9463 237.421 53.2479C237.147 53.5464 237.01 53.925 237.01 54.3835V59H235.902V54.1435C235.902 53.7403 235.771 53.4156 235.51 53.1694C235.248 52.9201 234.911 52.7955 234.499 52.7955C234.216 52.7955 233.951 52.8709 233.705 53.0217C233.462 53.1725 233.265 53.3817 233.114 53.6495C232.966 53.9142 232.892 54.2204 232.892 54.5682V59H231.803ZM246.075 59.1477C245.391 59.1477 244.802 58.9969 244.307 58.6953C243.814 58.3906 243.434 57.9659 243.166 57.4212C242.902 56.8733 242.769 56.2363 242.769 55.5099C242.769 54.7836 242.902 54.1435 243.166 53.5895C243.434 53.0324 243.806 52.5985 244.283 52.2876C244.764 51.9737 245.324 51.8168 245.964 51.8168C246.333 51.8168 246.698 51.8783 247.058 52.0014C247.418 52.1245 247.746 52.3246 248.041 52.6016C248.337 52.8755 248.572 53.2386 248.748 53.6911C248.923 54.1435 249.011 54.7005 249.011 55.3622V55.8239H243.545V54.8821H247.903C247.903 54.482 247.823 54.125 247.663 53.8111C247.506 53.4972 247.281 53.2494 246.989 53.0678C246.699 52.8862 246.358 52.7955 245.964 52.7955C245.53 52.7955 245.154 52.9032 244.837 53.1186C244.524 53.331 244.282 53.608 244.113 53.9496C243.943 54.2912 243.859 54.6574 243.859 55.0483V55.6761C243.859 56.2116 243.951 56.6656 244.136 57.038C244.323 57.4073 244.584 57.6889 244.916 57.8828C245.248 58.0736 245.635 58.169 246.075 58.169C246.361 58.169 246.619 58.129 246.85 58.049C247.084 57.9659 247.286 57.8428 247.455 57.6797C247.624 57.5135 247.755 57.3073 247.847 57.0611L248.9 57.3565C248.789 57.7135 248.603 58.0275 248.341 58.2983C248.08 58.5661 247.757 58.7753 247.372 58.9261C246.987 59.0739 246.555 59.1477 246.075 59.1477ZM250.668 59V51.9091H251.721V53.017H251.813C251.961 52.6385 252.199 52.3446 252.528 52.1353C252.858 51.9229 253.253 51.8168 253.715 51.8168C254.183 51.8168 254.572 51.9229 254.883 52.1353C255.197 52.3446 255.441 52.6385 255.617 53.017H255.691C255.872 52.6508 256.145 52.36 256.508 52.1445C256.871 51.926 257.307 51.8168 257.814 51.8168C258.448 51.8168 258.967 52.0153 259.37 52.4123C259.773 52.8062 259.975 53.4202 259.975 54.2543V59H258.885V54.2543C258.885 53.7311 258.742 53.3571 258.456 53.1325C258.17 52.9078 257.833 52.7955 257.445 52.7955C256.946 52.7955 256.56 52.9463 256.286 53.2479C256.012 53.5464 255.875 53.925 255.875 54.3835V59H254.767V54.1435C254.767 53.7403 254.637 53.4156 254.375 53.1694C254.113 52.9201 253.776 52.7955 253.364 52.7955C253.081 52.7955 252.816 52.8709 252.57 53.0217C252.327 53.1725 252.13 53.3817 251.979 53.6495C251.831 53.9142 251.758 54.2204 251.758 54.5682V59H250.668ZM262.115 59V49.5455H263.204V53.0355H263.296C263.376 52.9124 263.487 52.7554 263.629 52.5646C263.773 52.3707 263.98 52.1984 264.247 52.0476C264.518 51.8937 264.884 51.8168 265.346 51.8168C265.943 51.8168 266.469 51.966 266.925 52.2646C267.38 52.5631 267.736 52.9863 267.991 53.5341C268.247 54.0819 268.375 54.7282 268.375 55.473C268.375 56.224 268.247 56.8749 267.991 57.4258C267.736 57.9736 267.382 58.3983 266.93 58.6999C266.477 58.9985 265.956 59.1477 265.365 59.1477C264.909 59.1477 264.544 59.0723 264.271 58.9215C263.997 58.7676 263.786 58.5937 263.638 58.3999C263.49 58.2029 263.376 58.0398 263.296 57.9105H263.167V59H262.115ZM263.186 55.4545C263.186 55.9901 263.264 56.4625 263.421 56.8718C263.578 57.2781 263.807 57.5966 264.109 57.8274C264.411 58.0552 264.78 58.169 265.217 58.169C265.672 58.169 266.052 58.049 266.357 57.8089C266.665 57.5658 266.896 57.2396 267.05 56.8303C267.207 56.4179 267.285 55.9593 267.285 55.4545C267.285 54.956 267.208 54.5066 267.054 54.1065C266.903 53.7034 266.674 53.3848 266.366 53.1509C266.062 52.9139 265.679 52.7955 265.217 52.7955C264.774 52.7955 264.401 52.9078 264.1 53.1325C263.798 53.354 263.57 53.6649 263.416 54.065C263.263 54.462 263.186 54.9252 263.186 55.4545ZM273.014 59.1477C272.331 59.1477 271.742 58.9969 271.246 58.6953C270.754 58.3906 270.373 57.9659 270.106 57.4212C269.841 56.8733 269.709 56.2363 269.709 55.5099C269.709 54.7836 269.841 54.1435 270.106 53.5895C270.373 53.0324 270.746 52.5985 271.223 52.2876C271.703 51.9737 272.263 51.8168 272.903 51.8168C273.273 51.8168 273.637 51.8783 273.997 52.0014C274.358 52.1245 274.685 52.3246 274.981 52.6016C275.276 52.8755 275.512 53.2386 275.687 53.6911C275.862 54.1435 275.95 54.7005 275.95 55.3622V55.8239H270.484V54.8821H274.842C274.842 54.482 274.762 54.125 274.602 53.8111C274.445 53.4972 274.221 53.2494 273.928 53.0678C273.639 52.8862 273.297 52.7955 272.903 52.7955C272.469 52.7955 272.094 52.9032 271.777 53.1186C271.463 53.331 271.221 53.608 271.052 53.9496C270.883 54.2912 270.798 54.6574 270.798 55.0483V55.6761C270.798 56.2116 270.891 56.6656 271.075 57.038C271.263 57.4073 271.523 57.6889 271.855 57.8828C272.188 58.0736 272.574 58.169 273.014 58.169C273.3 58.169 273.559 58.129 273.79 58.049C274.024 57.9659 274.225 57.8428 274.394 57.6797C274.564 57.5135 274.695 57.3073 274.787 57.0611L275.839 57.3565C275.729 57.7135 275.542 58.0275 275.281 58.2983C275.019 58.5661 274.696 58.7753 274.311 58.9261C273.927 59.0739 273.494 59.1477 273.014 59.1477ZM277.608 59V51.9091H278.66V52.9801H278.734C278.863 52.6293 279.097 52.3446 279.436 52.1261C279.774 51.9076 280.156 51.7983 280.581 51.7983C280.661 51.7983 280.761 51.7998 280.881 51.8029C281.001 51.806 281.091 51.8106 281.153 51.8168V52.9247C281.116 52.9155 281.031 52.9016 280.899 52.8832C280.77 52.8616 280.633 52.8509 280.488 52.8509C280.143 52.8509 279.836 52.9232 279.565 53.0678C279.297 53.2094 279.085 53.4064 278.928 53.6587C278.774 53.908 278.697 54.1927 278.697 54.5128V59H277.608ZM286.101 59V51.9091H287.153V53.017H287.246C287.393 52.6385 287.632 52.3446 287.961 52.1353C288.29 51.9229 288.686 51.8168 289.148 51.8168C289.615 51.8168 290.005 51.9229 290.316 52.1353C290.629 52.3446 290.874 52.6385 291.05 53.017H291.123C291.305 52.6508 291.577 52.36 291.941 52.1445C292.304 51.926 292.739 51.8168 293.247 51.8168C293.881 51.8168 294.4 52.0153 294.803 52.4123C295.206 52.8062 295.407 53.4202 295.407 54.2543V59H294.318V54.2543C294.318 53.7311 294.175 53.3571 293.889 53.1325C293.602 52.9078 293.265 52.7955 292.878 52.7955C292.379 52.7955 291.993 52.9463 291.719 53.2479C291.445 53.5464 291.308 53.925 291.308 54.3835V59H290.2V54.1435C290.2 53.7403 290.069 53.4156 289.808 53.1694C289.546 52.9201 289.209 52.7955 288.797 52.7955C288.514 52.7955 288.249 52.8709 288.003 53.0217C287.76 53.1725 287.563 53.3817 287.412 53.6495C287.264 53.9142 287.19 54.2204 287.19 54.5682V59H286.101ZM300.373 59.1477C299.689 59.1477 299.1 58.9969 298.604 58.6953C298.112 58.3906 297.732 57.9659 297.464 57.4212C297.199 56.8733 297.067 56.2363 297.067 55.5099C297.067 54.7836 297.199 54.1435 297.464 53.5895C297.732 53.0324 298.104 52.5985 298.581 52.2876C299.061 51.9737 299.622 51.8168 300.262 51.8168C300.631 51.8168 300.996 51.8783 301.356 52.0014C301.716 52.1245 302.044 52.3246 302.339 52.6016C302.635 52.8755 302.87 53.2386 303.045 53.6911C303.221 54.1435 303.309 54.7005 303.309 55.3622V55.8239H297.843V54.8821H302.201C302.201 54.482 302.121 54.125 301.961 53.8111C301.804 53.4972 301.579 53.2494 301.287 53.0678C300.997 52.8862 300.656 52.7955 300.262 52.7955C299.828 52.7955 299.452 52.9032 299.135 53.1186C298.821 53.331 298.58 53.608 298.411 53.9496C298.241 54.2912 298.157 54.6574 298.157 55.0483V55.6761C298.157 56.2116 298.249 56.6656 298.434 57.038C298.621 57.4073 298.881 57.6889 299.214 57.8828C299.546 58.0736 299.932 58.169 300.373 58.169C300.659 58.169 300.917 58.129 301.148 58.049C301.382 57.9659 301.584 57.8428 301.753 57.6797C301.922 57.5135 302.053 57.3073 302.145 57.0611L303.198 57.3565C303.087 57.7135 302.901 58.0275 302.639 58.2983C302.378 58.5661 302.054 58.7753 301.67 58.9261C301.285 59.0739 300.853 59.1477 300.373 59.1477Z" fill="#344054"/>
<rect x="369.5" y="44.5" width="23" height="23" rx="11.5" fill="white"/>
<rect x="369.5" y="44.5" width="23" height="23" rx="11.5" stroke="#D8DEE9"/>
<path d="M406.145 57V47.5455H409.339C410.078 47.5455 410.684 47.6716 411.158 47.924C411.632 48.1733 411.983 48.5165 412.211 48.9535C412.439 49.3905 412.553 49.8875 412.553 50.4446C412.553 51.0017 412.439 51.4956 412.211 51.9265C411.983 52.3574 411.634 52.6959 411.163 52.9421C410.692 53.1853 410.09 53.3068 409.358 53.3068H406.773V52.2727H409.321C409.826 52.2727 410.232 52.1989 410.54 52.0511C410.851 51.9034 411.075 51.6941 411.214 51.4233C411.355 51.1494 411.426 50.8232 411.426 50.4446C411.426 50.0661 411.355 49.7352 411.214 49.4521C411.072 49.1689 410.846 48.9504 410.535 48.7965C410.224 48.6396 409.813 48.5611 409.303 48.5611H407.29V57H406.145ZM410.595 52.7528L412.922 57H411.592L409.303 52.7528H410.595ZM417.209 57.1477C416.526 57.1477 415.937 56.9969 415.441 56.6953C414.949 56.3906 414.569 55.9659 414.301 55.4212C414.036 54.8733 413.904 54.2363 413.904 53.5099C413.904 52.7836 414.036 52.1435 414.301 51.5895C414.569 51.0324 414.941 50.5985 415.418 50.2876C415.898 49.9737 416.458 49.8168 417.099 49.8168C417.468 49.8168 417.833 49.8783 418.193 50.0014C418.553 50.1245 418.881 50.3246 419.176 50.6016C419.472 50.8755 419.707 51.2386 419.882 51.6911C420.058 52.1435 420.146 52.7005 420.146 53.3622V53.8239H414.68V52.8821H419.038C419.038 52.482 418.958 52.125 418.797 51.8111C418.641 51.4972 418.416 51.2494 418.123 51.0678C417.834 50.8862 417.493 50.7955 417.099 50.7955C416.665 50.7955 416.289 50.9032 415.972 51.1186C415.658 51.331 415.417 51.608 415.247 51.9496C415.078 52.2912 414.994 52.6574 414.994 53.0483V53.6761C414.994 54.2116 415.086 54.6656 415.271 55.038C415.458 55.4073 415.718 55.6889 416.051 55.8828C416.383 56.0736 416.769 56.169 417.209 56.169C417.496 56.169 417.754 56.129 417.985 56.049C418.219 55.9659 418.42 55.8428 418.59 55.6797C418.759 55.5135 418.89 55.3073 418.982 55.0611L420.035 55.3565C419.924 55.7135 419.738 56.0275 419.476 56.2983C419.215 56.5661 418.891 56.7753 418.507 56.9261C418.122 57.0739 417.69 57.1477 417.209 57.1477ZM421.803 57V49.9091H422.855V51.017H422.948C423.095 50.6385 423.334 50.3446 423.663 50.1353C423.993 49.9229 424.388 49.8168 424.85 49.8168C425.318 49.8168 425.707 49.9229 426.018 50.1353C426.332 50.3446 426.576 50.6385 426.752 51.017H426.826C427.007 50.6508 427.28 50.36 427.643 50.1445C428.006 49.926 428.441 49.8168 428.949 49.8168C429.583 49.8168 430.102 50.0153 430.505 50.4123C430.908 50.8062 431.11 51.4202 431.11 52.2543V57H430.02V52.2543C430.02 51.7311 429.877 51.3571 429.591 51.1325C429.305 50.9078 428.968 50.7955 428.58 50.7955C428.081 50.7955 427.695 50.9463 427.421 51.2479C427.147 51.5464 427.01 51.925 427.01 52.3835V57H425.902V52.1435C425.902 51.7403 425.771 51.4156 425.51 51.1694C425.248 50.9201 424.911 50.7955 424.499 50.7955C424.216 50.7955 423.951 50.8709 423.705 51.0217C423.462 51.1725 423.265 51.3817 423.114 51.6495C422.966 51.9142 422.892 52.2204 422.892 52.5682V57H421.803ZM436.075 57.1477C435.391 57.1477 434.802 56.9969 434.307 56.6953C433.814 56.3906 433.434 55.9659 433.166 55.4212C432.902 54.8733 432.769 54.2363 432.769 53.5099C432.769 52.7836 432.902 52.1435 433.166 51.5895C433.434 51.0324 433.806 50.5985 434.283 50.2876C434.764 49.9737 435.324 49.8168 435.964 49.8168C436.333 49.8168 436.698 49.8783 437.058 50.0014C437.418 50.1245 437.746 50.3246 438.041 50.6016C438.337 50.8755 438.572 51.2386 438.748 51.6911C438.923 52.1435 439.011 52.7005 439.011 53.3622V53.8239H433.545V52.8821H437.903C437.903 52.482 437.823 52.125 437.663 51.8111C437.506 51.4972 437.281 51.2494 436.989 51.0678C436.699 50.8862 436.358 50.7955 435.964 50.7955C435.53 50.7955 435.154 50.9032 434.837 51.1186C434.524 51.331 434.282 51.608 434.113 51.9496C433.943 52.2912 433.859 52.6574 433.859 53.0483V53.6761C433.859 54.2116 433.951 54.6656 434.136 55.038C434.323 55.4073 434.584 55.6889 434.916 55.8828C435.248 56.0736 435.635 56.169 436.075 56.169C436.361 56.169 436.619 56.129 436.85 56.049C437.084 55.9659 437.286 55.8428 437.455 55.6797C437.624 55.5135 437.755 55.3073 437.847 55.0611L438.9 55.3565C438.789 55.7135 438.603 56.0275 438.341 56.2983C438.08 56.5661 437.757 56.7753 437.372 56.9261C436.987 57.0739 436.555 57.1477 436.075 57.1477ZM440.668 57V49.9091H441.721V51.017H441.813C441.961 50.6385 442.199 50.3446 442.528 50.1353C442.858 49.9229 443.253 49.8168 443.715 49.8168C444.183 49.8168 444.572 49.9229 444.883 50.1353C445.197 50.3446 445.441 50.6385 445.617 51.017H445.691C445.872 50.6508 446.145 50.36 446.508 50.1445C446.871 49.926 447.307 49.8168 447.814 49.8168C448.448 49.8168 448.967 50.0153 449.37 50.4123C449.773 50.8062 449.975 51.4202 449.975 52.2543V57H448.885V52.2543C448.885 51.7311 448.742 51.3571 448.456 51.1325C448.17 50.9078 447.833 50.7955 447.445 50.7955C446.946 50.7955 446.56 50.9463 446.286 51.2479C446.012 51.5464 445.875 51.925 445.875 52.3835V57H444.767V52.1435C444.767 51.7403 444.637 51.4156 444.375 51.1694C444.113 50.9201 443.776 50.7955 443.364 50.7955C443.081 50.7955 442.816 50.8709 442.57 51.0217C442.327 51.1725 442.13 51.3817 441.979 51.6495C441.831 51.9142 441.758 52.2204 441.758 52.5682V57H440.668ZM452.115 57V47.5455H453.204V51.0355H453.296C453.376 50.9124 453.487 50.7554 453.629 50.5646C453.773 50.3707 453.98 50.1984 454.247 50.0476C454.518 49.8937 454.884 49.8168 455.346 49.8168C455.943 49.8168 456.469 49.966 456.925 50.2646C457.38 50.5631 457.736 50.9863 457.991 51.5341C458.247 52.0819 458.375 52.7282 458.375 53.473C458.375 54.224 458.247 54.8749 457.991 55.4258C457.736 55.9736 457.382 56.3983 456.93 56.6999C456.477 56.9985 455.956 57.1477 455.365 57.1477C454.909 57.1477 454.544 57.0723 454.271 56.9215C453.997 56.7676 453.786 56.5937 453.638 56.3999C453.49 56.2029 453.376 56.0398 453.296 55.9105H453.167V57H452.115ZM453.186 53.4545C453.186 53.9901 453.264 54.4625 453.421 54.8718C453.578 55.2781 453.807 55.5966 454.109 55.8274C454.411 56.0552 454.78 56.169 455.217 56.169C455.672 56.169 456.052 56.049 456.357 55.8089C456.665 55.5658 456.896 55.2396 457.05 54.8303C457.207 54.4179 457.285 53.9593 457.285 53.4545C457.285 52.956 457.208 52.5066 457.054 52.1065C456.903 51.7034 456.674 51.3848 456.366 51.1509C456.062 50.9139 455.679 50.7955 455.217 50.7955C454.774 50.7955 454.401 50.9078 454.1 51.1325C453.798 51.354 453.57 51.6649 453.416 52.065C453.263 52.462 453.186 52.9252 453.186 53.4545ZM463.014 57.1477C462.331 57.1477 461.742 56.9969 461.246 56.6953C460.754 56.3906 460.373 55.9659 460.106 55.4212C459.841 54.8733 459.709 54.2363 459.709 53.5099C459.709 52.7836 459.841 52.1435 460.106 51.5895C460.373 51.0324 460.746 50.5985 461.223 50.2876C461.703 49.9737 462.263 49.8168 462.903 49.8168C463.273 49.8168 463.637 49.8783 463.997 50.0014C464.358 50.1245 464.685 50.3246 464.981 50.6016C465.276 50.8755 465.512 51.2386 465.687 51.6911C465.862 52.1435 465.95 52.7005 465.95 53.3622V53.8239H460.484V52.8821H464.842C464.842 52.482 464.762 52.125 464.602 51.8111C464.445 51.4972 464.221 51.2494 463.928 51.0678C463.639 50.8862 463.297 50.7955 462.903 50.7955C462.469 50.7955 462.094 50.9032 461.777 51.1186C461.463 51.331 461.221 51.608 461.052 51.9496C460.883 52.2912 460.798 52.6574 460.798 53.0483V53.6761C460.798 54.2116 460.891 54.6656 461.075 55.038C461.263 55.4073 461.523 55.6889 461.855 55.8828C462.188 56.0736 462.574 56.169 463.014 56.169C463.3 56.169 463.559 56.129 463.79 56.049C464.024 55.9659 464.225 55.8428 464.394 55.6797C464.564 55.5135 464.695 55.3073 464.787 55.0611L465.839 55.3565C465.729 55.7135 465.542 56.0275 465.281 56.2983C465.019 56.5661 464.696 56.7753 464.311 56.9261C463.927 57.0739 463.494 57.1477 463.014 57.1477ZM467.608 57V49.9091H468.66V50.9801H468.734C468.863 50.6293 469.097 50.3446 469.436 50.1261C469.774 49.9076 470.156 49.7983 470.581 49.7983C470.661 49.7983 470.761 49.7998 470.881 49.8029C471.001 49.806 471.091 49.8106 471.153 49.8168V50.9247C471.116 50.9155 471.031 50.9016 470.899 50.8832C470.77 50.8616 470.633 50.8509 470.488 50.8509C470.143 50.8509 469.836 50.9232 469.565 51.0678C469.297 51.2094 469.085 51.4064 468.928 51.6587C468.774 51.908 468.697 52.1927 468.697 52.5128V57H467.608ZM476.101 57V49.9091H477.153V51.017H477.246C477.393 50.6385 477.632 50.3446 477.961 50.1353C478.29 49.9229 478.686 49.8168 479.148 49.8168C479.615 49.8168 480.005 49.9229 480.316 50.1353C480.629 50.3446 480.874 50.6385 481.05 51.017H481.123C481.305 50.6508 481.577 50.36 481.941 50.1445C482.304 49.926 482.739 49.8168 483.247 49.8168C483.881 49.8168 484.4 50.0153 484.803 50.4123C485.206 50.8062 485.407 51.4202 485.407 52.2543V57H484.318V52.2543C484.318 51.7311 484.175 51.3571 483.889 51.1325C483.602 50.9078 483.265 50.7955 482.878 50.7955C482.379 50.7955 481.993 50.9463 481.719 51.2479C481.445 51.5464 481.308 51.925 481.308 52.3835V57H480.2V52.1435C480.2 51.7403 480.069 51.4156 479.808 51.1694C479.546 50.9201 479.209 50.7955 478.797 50.7955C478.514 50.7955 478.249 50.8709 478.003 51.0217C477.76 51.1725 477.563 51.3817 477.412 51.6495C477.264 51.9142 477.19 52.2204 477.19 52.5682V57H476.101ZM490.373 57.1477C489.689 57.1477 489.1 56.9969 488.604 56.6953C488.112 56.3906 487.732 55.9659 487.464 55.4212C487.199 54.8733 487.067 54.2363 487.067 53.5099C487.067 52.7836 487.199 52.1435 487.464 51.5895C487.732 51.0324 488.104 50.5985 488.581 50.2876C489.061 49.9737 489.622 49.8168 490.262 49.8168C490.631 49.8168 490.996 49.8783 491.356 50.0014C491.716 50.1245 492.044 50.3246 492.339 50.6016C492.635 50.8755 492.87 51.2386 493.045 51.6911C493.221 52.1435 493.309 52.7005 493.309 53.3622V53.8239H487.843V52.8821H492.201C492.201 52.482 492.121 52.125 491.961 51.8111C491.804 51.4972 491.579 51.2494 491.287 51.0678C490.997 50.8862 490.656 50.7955 490.262 50.7955C489.828 50.7955 489.452 50.9032 489.135 51.1186C488.821 51.331 488.58 51.608 488.411 51.9496C488.241 52.2912 488.157 52.6574 488.157 53.0483V53.6761C488.157 54.2116 488.249 54.6656 488.434 55.038C488.621 55.4073 488.881 55.6889 489.214 55.8828C489.546 56.0736 489.932 56.169 490.373 56.169C490.659 56.169 490.917 56.129 491.148 56.049C491.382 55.9659 491.584 55.8428 491.753 55.6797C491.922 55.5135 492.053 55.3073 492.145 55.0611L493.198 55.3565C493.087 55.7135 492.901 56.0275 492.639 56.2983C492.378 56.5661 492.054 56.7753 491.67 56.9261C491.285 57.0739 490.853 57.1477 490.373 57.1477Z" fill="#344054"/>
<path d="M411.315 71.9091C411.26 71.4413 411.035 71.0781 410.641 70.8196C410.247 70.5611 409.764 70.4318 409.192 70.4318C408.773 70.4318 408.407 70.4995 408.093 70.6349C407.782 70.7704 407.539 70.9566 407.364 71.1935C407.191 71.4305 407.105 71.6998 407.105 72.0014C407.105 72.2538 407.165 72.4708 407.285 72.6523C407.408 72.8308 407.565 72.9801 407.756 73.1001C407.947 73.2171 408.147 73.314 408.356 73.391C408.565 73.4648 408.758 73.5249 408.933 73.571L409.893 73.8295C410.14 73.8942 410.414 73.9834 410.715 74.0973C411.02 74.2112 411.311 74.3666 411.588 74.5636C411.868 74.7575 412.099 75.0067 412.28 75.3114C412.462 75.6161 412.553 75.9901 412.553 76.4332C412.553 76.9441 412.419 77.4058 412.151 77.8182C411.886 78.2306 411.498 78.5584 410.988 78.8015C410.48 79.0446 409.863 79.1662 409.136 79.1662C408.459 79.1662 407.873 79.0569 407.377 78.8384C406.885 78.6199 406.497 78.3152 406.214 77.9244C405.934 77.5335 405.776 77.0795 405.739 76.5625H406.92C406.951 76.9195 407.071 77.215 407.281 77.4489C407.493 77.6797 407.761 77.852 408.084 77.9659C408.41 78.0767 408.761 78.1321 409.136 78.1321C409.573 78.1321 409.966 78.0613 410.314 77.9197C410.661 77.7751 410.937 77.575 411.14 77.3196C411.343 77.0611 411.445 76.7595 411.445 76.4148C411.445 76.1009 411.357 75.8454 411.181 75.6484C411.006 75.4515 410.775 75.2914 410.489 75.1683C410.203 75.0452 409.893 74.9375 409.561 74.8452L408.398 74.5128C407.659 74.3004 407.074 73.9973 406.643 73.6033C406.213 73.2094 405.997 72.6939 405.997 72.0568C405.997 71.5275 406.14 71.0658 406.426 70.6719C406.716 70.2749 407.104 69.9671 407.59 69.7486C408.079 69.527 408.625 69.4162 409.229 69.4162C409.838 69.4162 410.38 69.5254 410.854 69.744C411.328 69.9594 411.703 70.2549 411.98 70.6303C412.26 71.0058 412.408 71.4321 412.423 71.9091H411.315ZM416.374 79.1662C415.925 79.1662 415.517 79.0816 415.15 78.9123C414.784 78.7399 414.493 78.4922 414.278 78.169C414.063 77.8428 413.955 77.4489 413.955 76.9872C413.955 76.581 414.035 76.2517 414.195 75.9993C414.355 75.7438 414.569 75.5438 414.837 75.3991C415.104 75.2545 415.4 75.1468 415.723 75.076C416.049 75.0021 416.377 74.9437 416.706 74.9006C417.137 74.8452 417.486 74.8036 417.754 74.7759C418.025 74.7451 418.222 74.6944 418.345 74.6236C418.471 74.5528 418.534 74.4297 418.534 74.2543V74.2173C418.534 73.7618 418.41 73.4079 418.16 73.1555C417.914 72.9032 417.54 72.777 417.039 72.777C416.518 72.777 416.111 72.8909 415.815 73.1186C415.52 73.3464 415.312 73.5895 415.192 73.848L414.158 73.4787C414.343 73.0478 414.589 72.7124 414.897 72.4723C415.207 72.2292 415.546 72.0599 415.912 71.9645C416.282 71.866 416.645 71.8168 417.002 71.8168C417.229 71.8168 417.491 71.8445 417.786 71.8999C418.085 71.9522 418.373 72.0614 418.65 72.2276C418.93 72.3938 419.162 72.6446 419.347 72.9801C419.532 73.3156 419.624 73.7649 419.624 74.3281V79H418.534V78.0398H418.479C418.405 78.1937 418.282 78.3583 418.11 78.5337C417.937 78.7092 417.708 78.8584 417.422 78.9815C417.136 79.1046 416.786 79.1662 416.374 79.1662ZM416.54 78.1875C416.971 78.1875 417.334 78.1029 417.63 77.9336C417.928 77.7643 418.153 77.5458 418.304 77.2781C418.457 77.0103 418.534 76.7287 418.534 76.4332V75.4361C418.488 75.4915 418.387 75.5423 418.23 75.5884C418.076 75.6315 417.897 75.67 417.694 75.7038C417.494 75.7346 417.299 75.7623 417.108 75.7869C416.92 75.8085 416.768 75.8269 416.651 75.8423C416.368 75.8793 416.103 75.9393 415.857 76.0224C415.614 76.1024 415.417 76.224 415.266 76.3871C415.118 76.5471 415.044 76.7656 415.044 77.0426C415.044 77.4212 415.184 77.7074 415.464 77.9013C415.748 78.0921 416.106 78.1875 416.54 78.1875ZM427.157 71.9091L424.535 79H423.427L420.805 71.9091H421.986L423.944 77.5597H424.018L425.975 71.9091H427.157ZM431.314 79.1477C430.631 79.1477 430.041 78.9969 429.546 78.6953C429.053 78.3906 428.673 77.9659 428.406 77.4212C428.141 76.8733 428.009 76.2363 428.009 75.5099C428.009 74.7836 428.141 74.1435 428.406 73.5895C428.673 73.0324 429.046 72.5985 429.523 72.2876C430.003 71.9737 430.563 71.8168 431.203 71.8168C431.572 71.8168 431.937 71.8783 432.297 72.0014C432.657 72.1245 432.985 72.3246 433.281 72.6016C433.576 72.8755 433.811 73.2386 433.987 73.6911C434.162 74.1435 434.25 74.7005 434.25 75.3622V75.8239H428.784V74.8821H433.142C433.142 74.482 433.062 74.125 432.902 73.8111C432.745 73.4972 432.52 73.2494 432.228 73.0678C431.939 72.8862 431.597 72.7955 431.203 72.7955C430.769 72.7955 430.394 72.9032 430.077 73.1186C429.763 73.331 429.521 73.608 429.352 73.9496C429.183 74.2912 429.098 74.6574 429.098 75.0483V75.6761C429.098 76.2116 429.19 76.6656 429.375 77.038C429.563 77.4073 429.823 77.6889 430.155 77.8828C430.488 78.0736 430.874 78.169 431.314 78.169C431.6 78.169 431.859 78.129 432.089 78.049C432.323 77.9659 432.525 77.8428 432.694 77.6797C432.864 77.5135 432.994 77.3073 433.087 77.0611L434.139 77.3565C434.028 77.7135 433.842 78.0275 433.581 78.2983C433.319 78.5661 432.996 78.7753 432.611 78.9261C432.226 79.0739 431.794 79.1477 431.314 79.1477ZM439.564 79V71.9091H440.616V73.017H440.708C440.856 72.6385 441.095 72.3446 441.424 72.1353C441.753 71.9229 442.149 71.8168 442.61 71.8168C443.078 71.8168 443.468 71.9229 443.778 72.1353C444.092 72.3446 444.337 72.6385 444.512 73.017H444.586C444.768 72.6508 445.04 72.36 445.403 72.1445C445.767 71.926 446.202 71.8168 446.71 71.8168C447.344 71.8168 447.862 72.0153 448.266 72.4123C448.669 72.8062 448.87 73.4202 448.87 74.2543V79H447.781V74.2543C447.781 73.7311 447.638 73.3571 447.352 73.1325C447.065 72.9078 446.728 72.7955 446.341 72.7955C445.842 72.7955 445.456 72.9463 445.182 73.2479C444.908 73.5464 444.771 73.925 444.771 74.3835V79H443.663V74.1435C443.663 73.7403 443.532 73.4156 443.271 73.1694C443.009 72.9201 442.672 72.7955 442.26 72.7955C441.976 72.7955 441.712 72.8709 441.466 73.0217C441.222 73.1725 441.025 73.3817 440.875 73.6495C440.727 73.9142 440.653 74.2204 440.653 74.5682V79H439.564ZM451.31 81.6591C451.126 81.6591 450.961 81.6437 450.816 81.6129C450.672 81.5852 450.572 81.5575 450.516 81.5298L450.793 80.5696C451.058 80.6373 451.292 80.6619 451.495 80.6435C451.698 80.625 451.878 80.5342 452.035 80.3711C452.195 80.2111 452.341 79.951 452.474 79.5909L452.677 79.0369L450.055 71.9091H451.236L453.194 77.5597H453.268L455.225 71.9091H456.407L453.397 80.0341C453.261 80.4003 453.094 80.7035 452.894 80.9435C452.694 81.1867 452.461 81.3667 452.197 81.4837C451.935 81.6006 451.64 81.6591 451.31 81.6591ZM462.591 69.5455V79H461.501V69.5455H462.591ZM467.467 79.1477C466.827 79.1477 466.265 78.9954 465.782 78.6907C465.302 78.386 464.926 77.9598 464.655 77.4119C464.388 76.8641 464.254 76.224 464.254 75.4915C464.254 74.7528 464.388 74.1081 464.655 73.5572C464.926 73.0063 465.302 72.5785 465.782 72.2738C466.265 71.9691 466.827 71.8168 467.467 71.8168C468.107 71.8168 468.667 71.9691 469.147 72.2738C469.63 72.5785 470.006 73.0063 470.274 73.5572C470.544 74.1081 470.68 74.7528 470.68 75.4915C470.68 76.224 470.544 76.8641 470.274 77.4119C470.006 77.9598 469.63 78.386 469.147 78.6907C468.667 78.9954 468.107 79.1477 467.467 79.1477ZM467.467 78.169C467.953 78.169 468.353 78.0444 468.667 77.7951C468.981 77.5458 469.213 77.218 469.364 76.8118C469.515 76.4055 469.59 75.9654 469.59 75.4915C469.59 75.0175 469.515 74.5759 469.364 74.1665C469.213 73.7572 468.981 73.4264 468.667 73.174C468.353 72.9216 467.953 72.7955 467.467 72.7955C466.98 72.7955 466.58 72.9216 466.266 73.174C465.953 73.4264 465.72 73.7572 465.569 74.1665C465.419 74.5759 465.343 75.0175 465.343 75.4915C465.343 75.9654 465.419 76.4055 465.569 76.8118C465.72 77.218 465.953 77.5458 466.266 77.7951C466.58 78.0444 466.98 78.169 467.467 78.169ZM475.205 81.8068C474.679 81.8068 474.226 81.7391 473.848 81.6037C473.469 81.4714 473.154 81.2959 472.901 81.0774C472.652 80.862 472.454 80.6312 472.306 80.3849L473.174 79.7756C473.272 79.9048 473.397 80.0526 473.548 80.2188C473.699 80.388 473.905 80.5342 474.166 80.6573C474.431 80.7835 474.777 80.8466 475.205 80.8466C475.778 80.8466 476.25 80.7081 476.622 80.4311C476.995 80.1541 477.181 79.7202 477.181 79.1293V77.6889H477.089C477.009 77.8182 476.895 77.9782 476.747 78.169C476.602 78.3568 476.393 78.5245 476.119 78.6722C475.848 78.8169 475.482 78.8892 475.02 78.8892C474.448 78.8892 473.934 78.7538 473.479 78.483C473.026 78.2121 472.668 77.8182 472.403 77.3011C472.141 76.7841 472.01 76.1562 472.01 75.4176C472.01 74.6913 472.138 74.0588 472.394 73.5202C472.649 72.9786 473.005 72.56 473.46 72.2646C473.916 71.966 474.442 71.8168 475.039 71.8168C475.501 71.8168 475.867 71.8937 476.138 72.0476C476.412 72.1984 476.621 72.3707 476.765 72.5646C476.913 72.7554 477.027 72.9124 477.107 73.0355H477.218V71.9091H478.27V79.2031C478.27 79.8125 478.132 80.308 477.855 80.6896C477.581 81.0743 477.212 81.3559 476.747 81.5344C476.285 81.716 475.771 81.8068 475.205 81.8068ZM475.168 77.9105C475.605 77.9105 475.974 77.8105 476.276 77.6104C476.578 77.4104 476.807 77.1226 476.964 76.7472C477.121 76.3717 477.199 75.9223 477.199 75.3991C477.199 74.8883 477.122 74.4374 476.969 74.0465C476.815 73.6557 476.587 73.3494 476.285 73.1278C475.984 72.9062 475.611 72.7955 475.168 72.7955C474.706 72.7955 474.322 72.9124 474.014 73.1463C473.709 73.3802 473.48 73.6941 473.326 74.0881C473.175 74.482 473.1 74.919 473.1 75.3991C473.1 75.8916 473.177 76.3271 473.331 76.7056C473.488 77.0811 473.719 77.3765 474.023 77.592C474.331 77.8043 474.713 77.9105 475.168 77.9105ZM480.265 79V71.9091H481.354V79H480.265ZM480.819 70.7273C480.606 70.7273 480.423 70.6549 480.269 70.5103C480.119 70.3656 480.043 70.1918 480.043 69.9886C480.043 69.7855 480.119 69.6116 480.269 69.467C480.423 69.3223 480.606 69.25 480.819 69.25C481.031 69.25 481.213 69.3223 481.363 69.467C481.517 69.6116 481.594 69.7855 481.594 69.9886C481.594 70.1918 481.517 70.3656 481.363 70.5103C481.213 70.6549 481.031 70.7273 480.819 70.7273ZM484.439 74.7344V79H483.35V71.9091H484.402V73.017H484.495C484.661 72.657 484.913 72.3677 485.252 72.1491C485.59 71.9276 486.027 71.8168 486.563 71.8168C487.043 71.8168 487.463 71.9152 487.823 72.1122C488.183 72.3061 488.463 72.6016 488.663 72.9986C488.863 73.3925 488.963 73.8911 488.963 74.4943V79H487.874V74.5682C487.874 74.0111 487.729 73.5772 487.44 73.2663C487.151 72.9524 486.754 72.7955 486.249 72.7955C485.901 72.7955 485.59 72.8709 485.316 73.0217C485.045 73.1725 484.832 73.3925 484.675 73.6818C484.518 73.9711 484.439 74.322 484.439 74.7344ZM497.288 79.1477C496.697 79.1477 496.175 78.9985 495.723 78.6999C495.271 78.3983 494.917 77.9736 494.661 77.4258C494.406 76.8749 494.278 76.224 494.278 75.473C494.278 74.7282 494.406 74.0819 494.661 73.5341C494.917 72.9863 495.272 72.5631 495.728 72.2646C496.183 71.966 496.709 71.8168 497.306 71.8168C497.768 71.8168 498.133 71.8937 498.401 72.0476C498.671 72.1984 498.878 72.3707 499.019 72.5646C499.164 72.7554 499.276 72.9124 499.356 73.0355H499.449V69.5455H500.538V79H499.485V77.9105H499.356C499.276 78.0398 499.162 78.2029 499.015 78.3999C498.867 78.5937 498.656 78.7676 498.382 78.9215C498.108 79.0723 497.743 79.1477 497.288 79.1477ZM497.436 78.169C497.873 78.169 498.242 78.0552 498.544 77.8274C498.845 77.5966 499.075 77.2781 499.232 76.8718C499.388 76.4625 499.467 75.9901 499.467 75.4545C499.467 74.9252 499.39 74.462 499.236 74.065C499.082 73.6649 498.855 73.354 498.553 73.1325C498.251 72.9078 497.879 72.7955 497.436 72.7955C496.974 72.7955 496.589 72.9139 496.282 73.1509C495.977 73.3848 495.748 73.7034 495.594 74.1065C495.443 74.5066 495.368 74.956 495.368 75.4545C495.368 75.9593 495.444 76.4179 495.598 76.8303C495.755 77.2396 495.986 77.5658 496.291 77.8089C496.599 78.049 496.98 78.169 497.436 78.169ZM505.658 79.1477C504.974 79.1477 504.385 78.9969 503.89 78.6953C503.397 78.3906 503.017 77.9659 502.749 77.4212C502.485 76.8733 502.352 76.2363 502.352 75.5099C502.352 74.7836 502.485 74.1435 502.749 73.5895C503.017 73.0324 503.389 72.5985 503.866 72.2876C504.347 71.9737 504.907 71.8168 505.547 71.8168C505.916 71.8168 506.281 71.8783 506.641 72.0014C507.001 72.1245 507.329 72.3246 507.624 72.6016C507.92 72.8755 508.155 73.2386 508.331 73.6911C508.506 74.1435 508.594 74.7005 508.594 75.3622V75.8239H503.128V74.8821H507.486C507.486 74.482 507.406 74.125 507.246 73.8111C507.089 73.4972 506.864 73.2494 506.572 73.0678C506.282 72.8862 505.941 72.7955 505.547 72.7955C505.113 72.7955 504.737 72.9032 504.42 73.1186C504.107 73.331 503.865 73.608 503.696 73.9496C503.526 74.2912 503.442 74.6574 503.442 75.0483V75.6761C503.442 76.2116 503.534 76.6656 503.719 77.038C503.906 77.4073 504.167 77.6889 504.499 77.8828C504.831 78.0736 505.218 78.169 505.658 78.169C505.944 78.169 506.202 78.129 506.433 78.049C506.667 77.9659 506.869 77.8428 507.038 77.6797C507.207 77.5135 507.338 77.3073 507.43 77.0611L508.483 77.3565C508.372 77.7135 508.186 78.0275 507.924 78.2983C507.663 78.5661 507.34 78.7753 506.955 78.9261C506.57 79.0739 506.138 79.1477 505.658 79.1477ZM513.335 71.9091V72.8324H509.66V71.9091H513.335ZM510.731 70.2102H511.821V76.9688C511.821 77.2765 511.865 77.5073 511.955 77.6612C512.047 77.812 512.164 77.9136 512.305 77.9659C512.45 78.0152 512.602 78.0398 512.762 78.0398C512.882 78.0398 512.981 78.0336 513.058 78.0213C513.135 78.0059 513.196 77.9936 513.243 77.9844L513.464 78.9631C513.39 78.9908 513.287 79.0185 513.155 79.0462C513.022 79.0769 512.855 79.0923 512.652 79.0923C512.344 79.0923 512.042 79.0262 511.747 78.8938C511.454 78.7615 511.211 78.5599 511.017 78.2891C510.827 78.0182 510.731 77.6766 510.731 77.2642V70.2102ZM517.06 79.1662C516.611 79.1662 516.203 79.0816 515.837 78.9123C515.471 78.7399 515.18 78.4922 514.964 78.169C514.749 77.8428 514.641 77.4489 514.641 76.9872C514.641 76.581 514.721 76.2517 514.881 75.9993C515.041 75.7438 515.255 75.5438 515.523 75.3991C515.791 75.2545 516.086 75.1468 516.409 75.076C516.736 75.0021 517.063 74.9437 517.393 74.9006C517.824 74.8452 518.173 74.8036 518.441 74.7759C518.712 74.7451 518.908 74.6944 519.032 74.6236C519.158 74.5528 519.221 74.4297 519.221 74.2543V74.2173C519.221 73.7618 519.096 73.4079 518.847 73.1555C518.601 72.9032 518.227 72.777 517.725 72.777C517.205 72.777 516.797 72.8909 516.502 73.1186C516.206 73.3464 515.999 73.5895 515.879 73.848L514.844 73.4787C515.029 73.0478 515.275 72.7124 515.583 72.4723C515.894 72.2292 516.232 72.0599 516.599 71.9645C516.968 71.866 517.331 71.8168 517.688 71.8168C517.916 71.8168 518.178 71.8445 518.473 71.8999C518.772 71.9522 519.059 72.0614 519.336 72.2276C519.616 72.3938 519.849 72.6446 520.033 72.9801C520.218 73.3156 520.31 73.7649 520.31 74.3281V79H519.221V78.0398H519.165C519.092 78.1937 518.969 78.3583 518.796 78.5337C518.624 78.7092 518.395 78.8584 518.108 78.9815C517.822 79.1046 517.473 79.1662 517.06 79.1662ZM517.227 78.1875C517.657 78.1875 518.021 78.1029 518.316 77.9336C518.615 77.7643 518.839 77.5458 518.99 77.2781C519.144 77.0103 519.221 76.7287 519.221 76.4332V75.4361C519.175 75.4915 519.073 75.5423 518.916 75.5884C518.762 75.6315 518.584 75.67 518.381 75.7038C518.181 75.7346 517.985 75.7623 517.794 75.7869C517.607 75.8085 517.454 75.8269 517.337 75.8423C517.054 75.8793 516.79 75.9393 516.543 76.0224C516.3 76.1024 516.103 76.224 515.952 76.3871C515.805 76.5471 515.731 76.7656 515.731 77.0426C515.731 77.4212 515.871 77.7074 516.151 77.9013C516.434 78.0921 516.793 78.1875 517.227 78.1875ZM522.299 79V71.9091H523.388V79H522.299ZM522.853 70.7273C522.641 70.7273 522.457 70.6549 522.304 70.5103C522.153 70.3656 522.077 70.1918 522.077 69.9886C522.077 69.7855 522.153 69.6116 522.304 69.467C522.457 69.3223 522.641 69.25 522.853 69.25C523.065 69.25 523.247 69.3223 523.398 69.467C523.552 69.6116 523.628 69.7855 523.628 69.9886C523.628 70.1918 523.552 70.3656 523.398 70.5103C523.247 70.6549 523.065 70.7273 522.853 70.7273ZM526.473 69.5455V79H525.384V69.5455H526.473ZM533.492 73.4972L532.513 73.7741C532.451 73.611 532.361 73.4525 532.241 73.2987C532.124 73.1417 531.964 73.0124 531.76 72.9109C531.557 72.8093 531.297 72.7585 530.98 72.7585C530.546 72.7585 530.185 72.8585 529.895 73.0586C529.609 73.2556 529.466 73.5064 529.466 73.8111C529.466 74.0819 529.564 74.2958 529.761 74.4528C529.958 74.6097 530.266 74.7405 530.685 74.8452L531.737 75.1037C532.371 75.2576 532.844 75.493 533.155 75.81C533.465 76.1239 533.621 76.5286 533.621 77.0241C533.621 77.4304 533.504 77.7936 533.27 78.1136C533.039 78.4337 532.716 78.6861 532.301 78.8707C531.885 79.0554 531.402 79.1477 530.851 79.1477C530.128 79.1477 529.529 78.9908 529.055 78.6768C528.581 78.3629 528.281 77.9044 528.155 77.3011L529.189 77.0426C529.287 77.4242 529.474 77.7105 529.748 77.9013C530.025 78.0921 530.386 78.1875 530.832 78.1875C531.34 78.1875 531.743 78.0798 532.042 77.8643C532.344 77.6458 532.494 77.3842 532.494 77.0795C532.494 76.8333 532.408 76.6271 532.236 76.4609C532.064 76.2917 531.799 76.1655 531.442 76.0824L530.26 75.8054C529.611 75.6515 529.134 75.413 528.829 75.0898C528.527 74.7636 528.377 74.3558 528.377 73.8665C528.377 73.4664 528.489 73.1125 528.714 72.8047C528.941 72.4969 529.251 72.2553 529.641 72.0799C530.035 71.9045 530.482 71.8168 530.98 71.8168C531.682 71.8168 532.233 71.9706 532.633 72.2784C533.036 72.5862 533.322 72.9924 533.492 73.4972ZM542.075 71.9091V72.8324H538.252V71.9091H542.075ZM539.397 79V70.9304C539.397 70.5241 539.493 70.1856 539.683 69.9148C539.874 69.6439 540.122 69.4408 540.427 69.3054C540.731 69.17 541.053 69.1023 541.392 69.1023C541.659 69.1023 541.878 69.1238 542.047 69.1669C542.216 69.21 542.343 69.25 542.426 69.2869L542.112 70.2287C542.056 70.2102 541.979 70.1871 541.881 70.1594C541.785 70.1317 541.659 70.1179 541.502 70.1179C541.142 70.1179 540.882 70.2087 540.722 70.3903C540.565 70.5719 540.487 70.8381 540.487 71.1889V79H539.397ZM546.19 79.1477C545.55 79.1477 544.989 78.9954 544.505 78.6907C544.025 78.386 543.65 77.9598 543.379 77.4119C543.111 76.8641 542.977 76.224 542.977 75.4915C542.977 74.7528 543.111 74.1081 543.379 73.5572C543.65 73.0063 544.025 72.5785 544.505 72.2738C544.989 71.9691 545.55 71.8168 546.19 71.8168C546.83 71.8168 547.391 71.9691 547.871 72.2738C548.354 72.5785 548.729 73.0063 548.997 73.5572C549.268 74.1081 549.403 74.7528 549.403 75.4915C549.403 76.224 549.268 76.8641 548.997 77.4119C548.729 77.9598 548.354 78.386 547.871 78.6907C547.391 78.9954 546.83 79.1477 546.19 79.1477ZM546.19 78.169C546.677 78.169 547.077 78.0444 547.391 77.7951C547.705 77.5458 547.937 77.218 548.088 76.8118C548.239 76.4055 548.314 75.9654 548.314 75.4915C548.314 75.0175 548.239 74.5759 548.088 74.1665C547.937 73.7572 547.705 73.4264 547.391 73.174C547.077 72.9216 546.677 72.7955 546.19 72.7955C545.704 72.7955 545.304 72.9216 544.99 73.174C544.676 73.4264 544.444 73.7572 544.293 74.1665C544.142 74.5759 544.067 75.0175 544.067 75.4915C544.067 75.9654 544.142 76.4055 544.293 76.8118C544.444 77.218 544.676 77.5458 544.99 77.7951C545.304 78.0444 545.704 78.169 546.19 78.169ZM551.066 79V71.9091H552.119V72.9801H552.193C552.322 72.6293 552.556 72.3446 552.895 72.1261C553.233 71.9076 553.615 71.7983 554.04 71.7983C554.12 71.7983 554.22 71.7998 554.34 71.8029C554.46 71.806 554.55 71.8106 554.612 71.8168V72.9247C554.575 72.9155 554.49 72.9016 554.358 72.8832C554.229 72.8616 554.092 72.8509 553.947 72.8509C553.602 72.8509 553.295 72.9232 553.024 73.0678C552.756 73.2094 552.544 73.4064 552.387 73.6587C552.233 73.908 552.156 74.1927 552.156 74.5128V79H551.066ZM560.649 74.7344V79H559.56V71.9091H560.612V73.017H560.705C560.871 72.657 561.123 72.3677 561.462 72.1491C561.8 71.9276 562.237 71.8168 562.773 71.8168C563.253 71.8168 563.673 71.9152 564.033 72.1122C564.393 72.3061 564.673 72.6016 564.873 72.9986C565.073 73.3925 565.173 73.8911 565.173 74.4943V79H564.084V74.5682C564.084 74.0111 563.939 73.5772 563.65 73.2663C563.361 72.9524 562.964 72.7955 562.459 72.7955C562.111 72.7955 561.8 72.8709 561.526 73.0217C561.255 73.1725 561.042 73.3925 560.885 73.6818C560.728 73.9711 560.649 74.322 560.649 74.7344ZM570.137 79.1477C569.454 79.1477 568.865 78.9969 568.369 78.6953C567.877 78.3906 567.497 77.9659 567.229 77.4212C566.964 76.8733 566.832 76.2363 566.832 75.5099C566.832 74.7836 566.964 74.1435 567.229 73.5895C567.497 73.0324 567.869 72.5985 568.346 72.2876C568.826 71.9737 569.386 71.8168 570.026 71.8168C570.396 71.8168 570.76 71.8783 571.12 72.0014C571.481 72.1245 571.808 72.3246 572.104 72.6016C572.399 72.8755 572.635 73.2386 572.81 73.6911C572.986 74.1435 573.073 74.7005 573.073 75.3622V75.8239H567.607V74.8821H571.965C571.965 74.482 571.885 74.125 571.725 73.8111C571.568 73.4972 571.344 73.2494 571.051 73.0678C570.762 72.8862 570.42 72.7955 570.026 72.7955C569.592 72.7955 569.217 72.9032 568.9 73.1186C568.586 73.331 568.344 73.608 568.175 73.9496C568.006 74.2912 567.921 74.6574 567.921 75.0483V75.6761C567.921 76.2116 568.014 76.6656 568.198 77.038C568.386 77.4073 568.646 77.6889 568.978 77.8828C569.311 78.0736 569.697 78.169 570.137 78.169C570.423 78.169 570.682 78.129 570.913 78.049C571.147 77.9659 571.348 77.8428 571.517 77.6797C571.687 77.5135 571.818 77.3073 571.91 77.0611L572.962 77.3565C572.852 77.7135 572.665 78.0275 572.404 78.2983C572.142 78.5661 571.819 78.7753 571.434 78.9261C571.05 79.0739 570.617 79.1477 570.137 79.1477ZM575.353 71.9091L577.051 74.8082L578.75 71.9091H580.006L577.716 75.4545L580.006 79H578.75L577.051 76.2486L575.353 79H574.097L576.35 75.4545L574.097 71.9091H575.353ZM584.644 71.9091V72.8324H580.97V71.9091H584.644ZM582.041 70.2102H583.13V76.9688C583.13 77.2765 583.175 77.5073 583.264 77.6612C583.356 77.812 583.473 77.9136 583.615 77.9659C583.76 78.0152 583.912 78.0398 584.072 78.0398C584.192 78.0398 584.291 78.0336 584.367 78.0213C584.444 78.0059 584.506 77.9936 584.552 77.9844L584.774 78.9631C584.7 78.9908 584.597 79.0185 584.464 79.0462C584.332 79.0769 584.164 79.0923 583.961 79.0923C583.653 79.0923 583.352 79.0262 583.056 78.8938C582.764 78.7615 582.521 78.5599 582.327 78.2891C582.136 78.0182 582.041 77.6766 582.041 77.2642V70.2102ZM593.023 71.9091V72.8324H589.349V71.9091H593.023ZM590.42 70.2102H591.509V76.9688C591.509 77.2765 591.554 77.5073 591.643 77.6612C591.735 77.812 591.852 77.9136 591.994 77.9659C592.139 78.0152 592.291 78.0398 592.451 78.0398C592.571 78.0398 592.669 78.0336 592.746 78.0213C592.823 78.0059 592.885 77.9936 592.931 77.9844L593.153 78.9631C593.079 78.9908 592.976 79.0185 592.843 79.0462C592.711 79.0769 592.543 79.0923 592.34 79.0923C592.032 79.0923 591.731 79.0262 591.435 78.8938C591.143 78.7615 590.9 78.5599 590.706 78.2891C590.515 78.0182 590.42 77.6766 590.42 77.2642V70.2102ZM594.662 79V71.9091H595.752V79H594.662ZM595.216 70.7273C595.004 70.7273 594.821 70.6549 594.667 70.5103C594.516 70.3656 594.441 70.1918 594.441 69.9886C594.441 69.7855 594.516 69.6116 594.667 69.467C594.821 69.3223 595.004 69.25 595.216 69.25C595.429 69.25 595.61 69.3223 595.761 69.467C595.915 69.6116 595.992 69.7855 595.992 69.9886C595.992 70.1918 595.915 70.3656 595.761 70.5103C595.61 70.6549 595.429 70.7273 595.216 70.7273ZM597.747 79V71.9091H598.8V73.017H598.892C599.04 72.6385 599.278 72.3446 599.608 72.1353C599.937 71.9229 600.332 71.8168 600.794 71.8168C601.262 71.8168 601.651 71.9229 601.962 72.1353C602.276 72.3446 602.521 72.6385 602.696 73.017H602.77C602.951 72.6508 603.224 72.36 603.587 72.1445C603.95 71.926 604.386 71.8168 604.893 71.8168C605.527 71.8168 606.046 72.0153 606.449 72.4123C606.852 72.8062 607.054 73.4202 607.054 74.2543V79H605.964V74.2543C605.964 73.7311 605.821 73.3571 605.535 73.1325C605.249 72.9078 604.912 72.7955 604.524 72.7955C604.026 72.7955 603.639 72.9463 603.365 73.2479C603.092 73.5464 602.955 73.925 602.955 74.3835V79H601.847V74.1435C601.847 73.7403 601.716 73.4156 601.454 73.1694C601.193 72.9201 600.856 72.7955 600.443 72.7955C600.16 72.7955 599.895 72.8709 599.649 73.0217C599.406 73.1725 599.209 73.3817 599.058 73.6495C598.911 73.9142 598.837 74.2204 598.837 74.5682V79H597.747ZM612.019 79.1477C611.336 79.1477 610.746 78.9969 610.251 78.6953C609.758 78.3906 609.378 77.9659 609.111 77.4212C608.846 76.8733 608.714 76.2363 608.714 75.5099C608.714 74.7836 608.846 74.1435 609.111 73.5895C609.378 73.0324 609.751 72.5985 610.228 72.2876C610.708 71.9737 611.268 71.8168 611.908 71.8168C612.278 71.8168 612.642 71.8783 613.002 72.0014C613.362 72.1245 613.69 72.3246 613.986 72.6016C614.281 72.8755 614.517 73.2386 614.692 73.6911C614.867 74.1435 614.955 74.7005 614.955 75.3622V75.8239H609.489V74.8821H613.847C613.847 74.482 613.767 74.125 613.607 73.8111C613.45 73.4972 613.225 73.2494 612.933 73.0678C612.644 72.8862 612.302 72.7955 611.908 72.7955C611.474 72.7955 611.099 72.9032 610.782 73.1186C610.468 73.331 610.226 73.608 610.057 73.9496C609.888 74.2912 609.803 74.6574 609.803 75.0483V75.6761C609.803 76.2116 609.895 76.6656 610.08 77.038C610.268 77.4073 610.528 77.6889 610.86 77.8828C611.193 78.0736 611.579 78.169 612.019 78.169C612.305 78.169 612.564 78.129 612.795 78.049C613.028 77.9659 613.23 77.8428 613.399 77.6797C613.569 77.5135 613.699 77.3073 613.792 77.0611L614.844 77.3565C614.733 77.7135 614.547 78.0275 614.286 78.2983C614.024 78.5661 613.701 78.7753 613.316 78.9261C612.932 79.0739 612.499 79.1477 612.019 79.1477ZM617.406 79.0739C617.179 79.0739 616.983 78.9923 616.82 78.8292C616.657 78.6661 616.575 78.4706 616.575 78.2429C616.575 78.0152 616.657 77.8197 616.82 77.6566C616.983 77.4935 617.179 77.4119 617.406 77.4119C617.634 77.4119 617.83 77.4935 617.993 77.6566C618.156 77.8197 618.237 78.0152 618.237 78.2429C618.237 78.3937 618.199 78.5322 618.122 78.6584C618.048 78.7846 617.948 78.8861 617.822 78.9631C617.699 79.0369 617.56 79.0739 617.406 79.0739Z" fill="#959BA3"/>
</svg>
