<svg width="804" height="180" viewBox="0 0 804 180" fill="none" xmlns="http://www.w3.org/2000/svg">
<rect width="804" height="180" fill="#F9FAFB"/>
<g filter="url(#filter0_dd_851_11444)">
<path d="M80.5147 75.0711C80.5147 75.962 79.4376 76.4081 78.8076 75.7782L72.7365 69.7071C72.346 69.3166 72.346 68.6834 72.7365 68.2929L78.8076 62.2218C79.4376 61.5919 80.5147 62.038 80.5147 62.9289L80.5147 75.0711Z" fill="white"/>
<rect x="78" y="53" width="118" height="32" rx="8" fill="white"/>
<path d="M91.1059 65.5611V64.5455H98.1968V65.5611H95.2238V74H94.0789V65.5611H91.1059ZM100.905 69.7344V74H99.816V64.5455H100.905V68.017H100.998C101.164 67.6508 101.413 67.36 101.746 67.1445C102.081 66.926 102.527 66.8168 103.084 66.8168C103.568 66.8168 103.991 66.9137 104.354 67.1076C104.717 67.2984 104.999 67.5923 105.199 67.9893C105.402 68.3833 105.504 68.8849 105.504 69.4943V74H104.414V69.5682C104.414 69.005 104.268 68.5695 103.975 68.2617C103.686 67.9509 103.285 67.7955 102.771 67.7955C102.414 67.7955 102.093 67.8709 101.81 68.0217C101.53 68.1725 101.309 68.3925 101.146 68.6818C100.986 68.9711 100.905 69.322 100.905 69.7344ZM107.497 74V66.9091H108.586V74H107.497ZM108.051 65.7273C107.838 65.7273 107.655 65.6549 107.501 65.5103C107.35 65.3656 107.275 65.1918 107.275 64.9886C107.275 64.7855 107.35 64.6116 107.501 64.467C107.655 64.3223 107.838 64.25 108.051 64.25C108.263 64.25 108.445 64.3223 108.595 64.467C108.749 64.6116 108.826 64.7855 108.826 64.9886C108.826 65.1918 108.749 65.3656 108.595 65.5103C108.445 65.6549 108.263 65.7273 108.051 65.7273ZM115.604 68.4972L114.626 68.7741C114.564 68.611 114.473 68.4525 114.353 68.2987C114.236 68.1417 114.076 68.0124 113.873 67.9109C113.67 67.8093 113.41 67.7585 113.093 67.7585C112.659 67.7585 112.297 67.8585 112.008 68.0586C111.722 68.2556 111.579 68.5064 111.579 68.8111C111.579 69.0819 111.677 69.2958 111.874 69.4528C112.071 69.6097 112.379 69.7405 112.798 69.8452L113.85 70.1037C114.484 70.2576 114.957 70.493 115.267 70.81C115.578 71.1239 115.734 71.5286 115.734 72.0241C115.734 72.4304 115.617 72.7936 115.383 73.1136C115.152 73.4337 114.829 73.6861 114.413 73.8707C113.998 74.0554 113.515 74.1477 112.964 74.1477C112.24 74.1477 111.642 73.9908 111.168 73.6768C110.694 73.3629 110.394 72.9044 110.268 72.3011L111.302 72.0426C111.4 72.4242 111.586 72.7105 111.86 72.9013C112.137 73.0921 112.499 73.1875 112.945 73.1875C113.453 73.1875 113.856 73.0798 114.155 72.8643C114.456 72.6458 114.607 72.3842 114.607 72.0795C114.607 71.8333 114.521 71.6271 114.349 71.4609C114.176 71.2917 113.912 71.1655 113.555 71.0824L112.373 70.8054C111.723 70.6515 111.246 70.413 110.942 70.0898C110.64 69.7636 110.489 69.3558 110.489 68.8665C110.489 68.4664 110.602 68.1125 110.826 67.8047C111.054 67.4969 111.363 67.2553 111.754 67.0799C112.148 66.9045 112.594 66.8168 113.093 66.8168C113.795 66.8168 114.346 66.9706 114.746 67.2784C115.149 67.5862 115.435 67.9924 115.604 68.4972ZM121.03 74V66.9091H122.119V74H121.03ZM121.584 65.7273C121.371 65.7273 121.188 65.6549 121.034 65.5103C120.884 65.3656 120.808 65.1918 120.808 64.9886C120.808 64.7855 120.884 64.6116 121.034 64.467C121.188 64.3223 121.371 64.25 121.584 64.25C121.796 64.25 121.978 64.3223 122.129 64.467C122.282 64.6116 122.359 64.7855 122.359 64.9886C122.359 65.1918 122.282 65.3656 122.129 65.5103C121.978 65.6549 121.796 65.7273 121.584 65.7273ZM129.138 68.4972L128.159 68.7741C128.097 68.611 128.007 68.4525 127.886 68.2987C127.77 68.1417 127.61 68.0124 127.406 67.9109C127.203 67.8093 126.943 67.7585 126.626 67.7585C126.192 67.7585 125.831 67.8585 125.541 68.0586C125.255 68.2556 125.112 68.5064 125.112 68.8111C125.112 69.0819 125.21 69.2958 125.407 69.4528C125.604 69.6097 125.912 69.7405 126.331 69.8452L127.383 70.1037C128.017 70.2576 128.49 70.493 128.801 70.81C129.111 71.1239 129.267 71.5286 129.267 72.0241C129.267 72.4304 129.15 72.7936 128.916 73.1136C128.685 73.4337 128.362 73.6861 127.947 73.8707C127.531 74.0554 127.048 74.1477 126.497 74.1477C125.774 74.1477 125.175 73.9908 124.701 73.6768C124.227 73.3629 123.927 72.9044 123.801 72.3011L124.835 72.0426C124.933 72.4242 125.12 72.7105 125.394 72.9013C125.671 73.0921 126.032 73.1875 126.478 73.1875C126.986 73.1875 127.389 73.0798 127.688 72.8643C127.99 72.6458 128.14 72.3842 128.14 72.0795C128.14 71.8333 128.054 71.6271 127.882 71.4609C127.71 71.2917 127.445 71.1655 127.088 71.0824L125.906 70.8054C125.257 70.6515 124.78 70.413 124.475 70.0898C124.173 69.7636 124.023 69.3558 124.023 68.8665C124.023 68.4664 124.135 68.1125 124.36 67.8047C124.587 67.4969 124.897 67.2553 125.287 67.0799C125.681 66.9045 126.128 66.8168 126.626 66.8168C127.328 66.8168 127.879 66.9706 128.279 67.2784C128.682 67.5862 128.968 67.9924 129.138 68.4972ZM136.65 74.1662C136.2 74.1662 135.793 74.0816 135.426 73.9123C135.06 73.7399 134.769 73.4922 134.554 73.169C134.338 72.8428 134.231 72.4489 134.231 71.9872C134.231 71.581 134.311 71.2517 134.471 70.9993C134.631 70.7438 134.845 70.5438 135.112 70.3991C135.38 70.2545 135.676 70.1468 135.999 70.076C136.325 70.0021 136.653 69.9437 136.982 69.9006C137.413 69.8452 137.762 69.8036 138.03 69.7759C138.301 69.7451 138.498 69.6944 138.621 69.6236C138.747 69.5528 138.81 69.4297 138.81 69.2543V69.2173C138.81 68.7618 138.686 68.4079 138.436 68.1555C138.19 67.9032 137.816 67.777 137.314 67.777C136.794 67.777 136.387 67.8909 136.091 68.1186C135.796 68.3464 135.588 68.5895 135.468 68.848L134.434 68.4787C134.618 68.0478 134.865 67.7124 135.172 67.4723C135.483 67.2292 135.822 67.0599 136.188 66.9645C136.557 66.866 136.921 66.8168 137.278 66.8168C137.505 66.8168 137.767 66.8445 138.062 66.8999C138.361 66.9522 138.649 67.0614 138.926 67.2276C139.206 67.3938 139.438 67.6446 139.623 67.9801C139.807 68.3156 139.9 68.7649 139.9 69.3281V74H138.81V73.0398H138.755C138.681 73.1937 138.558 73.3583 138.386 73.5337C138.213 73.7092 137.984 73.8584 137.698 73.9815C137.411 74.1046 137.062 74.1662 136.65 74.1662ZM136.816 73.1875C137.247 73.1875 137.61 73.1029 137.905 72.9336C138.204 72.7643 138.429 72.5458 138.579 72.2781C138.733 72.0103 138.81 71.7287 138.81 71.4332V70.4361C138.764 70.4915 138.663 70.5423 138.506 70.5884C138.352 70.6315 138.173 70.67 137.97 70.7038C137.77 70.7346 137.575 70.7623 137.384 70.7869C137.196 70.8085 137.044 70.8269 136.927 70.8423C136.644 70.8793 136.379 70.9393 136.133 71.0224C135.89 71.1024 135.693 71.224 135.542 71.3871C135.394 71.5471 135.32 71.7656 135.32 72.0426C135.32 72.4212 135.46 72.7074 135.74 72.9013C136.023 73.0921 136.382 73.1875 136.816 73.1875ZM148.628 66.9091V67.8324H144.954V66.9091H148.628ZM146.025 65.2102H147.114V71.9688C147.114 72.2765 147.159 72.5073 147.248 72.6612C147.34 72.812 147.457 72.9136 147.599 72.9659C147.744 73.0152 147.896 73.0398 148.056 73.0398C148.176 73.0398 148.274 73.0336 148.351 73.0213C148.428 73.0059 148.49 72.9936 148.536 72.9844L148.758 73.9631C148.684 73.9908 148.581 74.0185 148.448 74.0462C148.316 74.0769 148.148 74.0923 147.945 74.0923C147.637 74.0923 147.336 74.0262 147.04 73.8938C146.748 73.7615 146.505 73.5599 146.311 73.2891C146.12 73.0182 146.025 72.6766 146.025 72.2642V65.2102ZM153.072 74.1477C152.432 74.1477 151.87 73.9954 151.387 73.6907C150.907 73.386 150.531 72.9598 150.26 72.4119C149.992 71.8641 149.859 71.224 149.859 70.4915C149.859 69.7528 149.992 69.1081 150.26 68.5572C150.531 68.0063 150.907 67.5785 151.387 67.2738C151.87 66.9691 152.432 66.8168 153.072 66.8168C153.712 66.8168 154.272 66.9691 154.752 67.2738C155.235 67.5785 155.611 68.0063 155.879 68.5572C156.149 69.1081 156.285 69.7528 156.285 70.4915C156.285 71.224 156.149 71.8641 155.879 72.4119C155.611 72.9598 155.235 73.386 154.752 73.6907C154.272 73.9954 153.712 74.1477 153.072 74.1477ZM153.072 73.169C153.558 73.169 153.958 73.0444 154.272 72.7951C154.586 72.5458 154.818 72.218 154.969 71.8118C155.12 71.4055 155.195 70.9654 155.195 70.4915C155.195 70.0175 155.12 69.5759 154.969 69.1665C154.818 68.7572 154.586 68.4264 154.272 68.174C153.958 67.9216 153.558 67.7955 153.072 67.7955C152.585 67.7955 152.185 67.9216 151.871 68.174C151.557 68.4264 151.325 68.7572 151.174 69.1665C151.024 69.5759 150.948 70.0175 150.948 70.4915C150.948 70.9654 151.024 71.4055 151.174 71.8118C151.325 72.218 151.557 72.5458 151.871 72.7951C152.185 73.0444 152.585 73.169 153.072 73.169ZM160.829 74.1477C160.188 74.1477 159.627 73.9954 159.144 73.6907C158.663 73.386 158.288 72.9598 158.017 72.4119C157.749 71.8641 157.615 71.224 157.615 70.4915C157.615 69.7528 157.749 69.1081 158.017 68.5572C158.288 68.0063 158.663 67.5785 159.144 67.2738C159.627 66.9691 160.188 66.8168 160.829 66.8168C161.469 66.8168 162.029 66.9691 162.509 67.2738C162.992 67.5785 163.368 68.0063 163.635 68.5572C163.906 69.1081 164.042 69.7528 164.042 70.4915C164.042 71.224 163.906 71.8641 163.635 72.4119C163.368 72.9598 162.992 73.386 162.509 73.6907C162.029 73.9954 161.469 74.1477 160.829 74.1477ZM160.829 73.169C161.315 73.169 161.715 73.0444 162.029 72.7951C162.343 72.5458 162.575 72.218 162.726 71.8118C162.877 71.4055 162.952 70.9654 162.952 70.4915C162.952 70.0175 162.877 69.5759 162.726 69.1665C162.575 68.7572 162.343 68.4264 162.029 68.174C161.715 67.9216 161.315 67.7955 160.829 67.7955C160.342 67.7955 159.942 67.9216 159.628 68.174C159.314 68.4264 159.082 68.7572 158.931 69.1665C158.78 69.5759 158.705 70.0175 158.705 70.4915C158.705 70.9654 158.78 71.4055 158.931 71.8118C159.082 72.218 159.314 72.5458 159.628 72.7951C159.942 73.0444 160.342 73.169 160.829 73.169ZM166.794 64.5455V74H165.705V64.5455H166.794ZM171.873 66.9091V67.8324H168.199V66.9091H171.873ZM169.27 65.2102H170.359V71.9688C170.359 72.2765 170.404 72.5073 170.493 72.6612C170.585 72.812 170.702 72.9136 170.844 72.9659C170.989 73.0152 171.141 73.0398 171.301 73.0398C171.421 73.0398 171.52 73.0336 171.596 73.0213C171.673 73.0059 171.735 72.9936 171.781 72.9844L172.003 73.9631C171.929 73.9908 171.826 74.0185 171.693 74.0462C171.561 74.0769 171.393 74.0923 171.19 74.0923C170.882 74.0923 170.581 74.0262 170.285 73.8938C169.993 73.7615 169.75 73.5599 169.556 73.2891C169.365 73.0182 169.27 72.6766 169.27 72.2642V65.2102ZM173.512 74V66.9091H174.602V74H173.512ZM174.066 65.7273C173.854 65.7273 173.671 65.6549 173.517 65.5103C173.366 65.3656 173.291 65.1918 173.291 64.9886C173.291 64.7855 173.366 64.6116 173.517 64.467C173.671 64.3223 173.854 64.25 174.066 64.25C174.279 64.25 174.46 64.3223 174.611 64.467C174.765 64.6116 174.842 64.7855 174.842 64.9886C174.842 65.1918 174.765 65.3656 174.611 65.5103C174.46 65.6549 174.279 65.7273 174.066 65.7273ZM176.597 76.6591V66.9091H177.65V68.0355H177.779C177.859 67.9124 177.97 67.7554 178.111 67.5646C178.256 67.3707 178.462 67.1984 178.73 67.0476C179.001 66.8937 179.367 66.8168 179.829 66.8168C180.426 66.8168 180.952 66.966 181.408 67.2646C181.863 67.5631 182.219 67.9863 182.474 68.5341C182.729 69.0819 182.857 69.7282 182.857 70.473C182.857 71.224 182.729 71.8749 182.474 72.4258C182.219 72.9736 181.865 73.3983 181.412 73.6999C180.96 73.9985 180.438 74.1477 179.847 74.1477C179.392 74.1477 179.027 74.0723 178.753 73.9215C178.479 73.7676 178.268 73.5937 178.121 73.3999C177.973 73.2029 177.859 73.0398 177.779 72.9105H177.687V76.6591H176.597ZM177.668 70.4545C177.668 70.9901 177.747 71.4625 177.904 71.8718C178.061 72.2781 178.29 72.5966 178.592 72.8274C178.893 73.0552 179.263 73.169 179.7 73.169C180.155 73.169 180.535 73.049 180.84 72.8089C181.148 72.5658 181.378 72.2396 181.532 71.8303C181.689 71.4179 181.768 70.9593 181.768 70.4545C181.768 69.956 181.691 69.5066 181.537 69.1065C181.386 68.7034 181.157 68.3848 180.849 68.1509C180.544 67.9139 180.161 67.7955 179.7 67.7955C179.256 67.7955 178.884 67.9078 178.582 68.1325C178.281 68.354 178.053 68.6649 177.899 69.065C177.745 69.462 177.668 69.9252 177.668 70.4545Z" fill="#344054"/>
</g>
<g filter="url(#filter1_dd_851_11444)">
<rect x="255" y="53" width="118" height="32" rx="6" fill="white"/>
<path d="M268.106 65.5611V64.5455H275.197V65.5611H272.224V74H271.079V65.5611H268.106ZM277.905 69.7344V74H276.816V64.5455H277.905V68.017H277.998C278.164 67.6508 278.413 67.36 278.746 67.1445C279.081 66.926 279.527 66.8168 280.084 66.8168C280.568 66.8168 280.991 66.9137 281.354 67.1076C281.717 67.2984 281.999 67.5923 282.199 67.9893C282.402 68.3833 282.504 68.8849 282.504 69.4943V74H281.414V69.5682C281.414 69.005 281.268 68.5695 280.975 68.2617C280.686 67.9509 280.285 67.7955 279.771 67.7955C279.414 67.7955 279.093 67.8709 278.81 68.0217C278.53 68.1725 278.309 68.3925 278.146 68.6818C277.986 68.9711 277.905 69.322 277.905 69.7344ZM284.497 74V66.9091H285.586V74H284.497ZM285.051 65.7273C284.838 65.7273 284.655 65.6549 284.501 65.5103C284.35 65.3656 284.275 65.1918 284.275 64.9886C284.275 64.7855 284.35 64.6116 284.501 64.467C284.655 64.3223 284.838 64.25 285.051 64.25C285.263 64.25 285.445 64.3223 285.595 64.467C285.749 64.6116 285.826 64.7855 285.826 64.9886C285.826 65.1918 285.749 65.3656 285.595 65.5103C285.445 65.6549 285.263 65.7273 285.051 65.7273ZM292.604 68.4972L291.626 68.7741C291.564 68.611 291.473 68.4525 291.353 68.2987C291.236 68.1417 291.076 68.0124 290.873 67.9109C290.67 67.8093 290.41 67.7585 290.093 67.7585C289.659 67.7585 289.297 67.8585 289.008 68.0586C288.722 68.2556 288.579 68.5064 288.579 68.8111C288.579 69.0819 288.677 69.2958 288.874 69.4528C289.071 69.6097 289.379 69.7405 289.798 69.8452L290.85 70.1037C291.484 70.2576 291.957 70.493 292.267 70.81C292.578 71.1239 292.734 71.5286 292.734 72.0241C292.734 72.4304 292.617 72.7936 292.383 73.1136C292.152 73.4337 291.829 73.6861 291.413 73.8707C290.998 74.0554 290.515 74.1477 289.964 74.1477C289.24 74.1477 288.642 73.9908 288.168 73.6768C287.694 73.3629 287.394 72.9044 287.268 72.3011L288.302 72.0426C288.4 72.4242 288.586 72.7105 288.86 72.9013C289.137 73.0921 289.499 73.1875 289.945 73.1875C290.453 73.1875 290.856 73.0798 291.155 72.8643C291.456 72.6458 291.607 72.3842 291.607 72.0795C291.607 71.8333 291.521 71.6271 291.349 71.4609C291.176 71.2917 290.912 71.1655 290.555 71.0824L289.373 70.8054C288.723 70.6515 288.246 70.413 287.942 70.0898C287.64 69.7636 287.489 69.3558 287.489 68.8665C287.489 68.4664 287.602 68.1125 287.826 67.8047C288.054 67.4969 288.363 67.2553 288.754 67.0799C289.148 66.9045 289.594 66.8168 290.093 66.8168C290.795 66.8168 291.346 66.9706 291.746 67.2784C292.149 67.5862 292.435 67.9924 292.604 68.4972ZM298.03 74V66.9091H299.119V74H298.03ZM298.584 65.7273C298.371 65.7273 298.188 65.6549 298.034 65.5103C297.884 65.3656 297.808 65.1918 297.808 64.9886C297.808 64.7855 297.884 64.6116 298.034 64.467C298.188 64.3223 298.371 64.25 298.584 64.25C298.796 64.25 298.978 64.3223 299.129 64.467C299.282 64.6116 299.359 64.7855 299.359 64.9886C299.359 65.1918 299.282 65.3656 299.129 65.5103C298.978 65.6549 298.796 65.7273 298.584 65.7273ZM306.138 68.4972L305.159 68.7741C305.097 68.611 305.007 68.4525 304.886 68.2987C304.77 68.1417 304.61 68.0124 304.406 67.9109C304.203 67.8093 303.943 67.7585 303.626 67.7585C303.192 67.7585 302.831 67.8585 302.541 68.0586C302.255 68.2556 302.112 68.5064 302.112 68.8111C302.112 69.0819 302.21 69.2958 302.407 69.4528C302.604 69.6097 302.912 69.7405 303.331 69.8452L304.383 70.1037C305.017 70.2576 305.49 70.493 305.801 70.81C306.111 71.1239 306.267 71.5286 306.267 72.0241C306.267 72.4304 306.15 72.7936 305.916 73.1136C305.685 73.4337 305.362 73.6861 304.947 73.8707C304.531 74.0554 304.048 74.1477 303.497 74.1477C302.774 74.1477 302.175 73.9908 301.701 73.6768C301.227 73.3629 300.927 72.9044 300.801 72.3011L301.835 72.0426C301.933 72.4242 302.12 72.7105 302.394 72.9013C302.671 73.0921 303.032 73.1875 303.478 73.1875C303.986 73.1875 304.389 73.0798 304.688 72.8643C304.99 72.6458 305.14 72.3842 305.14 72.0795C305.14 71.8333 305.054 71.6271 304.882 71.4609C304.71 71.2917 304.445 71.1655 304.088 71.0824L302.906 70.8054C302.257 70.6515 301.78 70.413 301.475 70.0898C301.173 69.7636 301.023 69.3558 301.023 68.8665C301.023 68.4664 301.135 68.1125 301.36 67.8047C301.587 67.4969 301.897 67.2553 302.287 67.0799C302.681 66.9045 303.128 66.8168 303.626 66.8168C304.328 66.8168 304.879 66.9706 305.279 67.2784C305.682 67.5862 305.968 67.9924 306.138 68.4972ZM313.65 74.1662C313.2 74.1662 312.793 74.0816 312.426 73.9123C312.06 73.7399 311.769 73.4922 311.554 73.169C311.338 72.8428 311.231 72.4489 311.231 71.9872C311.231 71.581 311.311 71.2517 311.471 70.9993C311.631 70.7438 311.845 70.5438 312.112 70.3991C312.38 70.2545 312.676 70.1468 312.999 70.076C313.325 70.0021 313.653 69.9437 313.982 69.9006C314.413 69.8452 314.762 69.8036 315.03 69.7759C315.301 69.7451 315.498 69.6944 315.621 69.6236C315.747 69.5528 315.81 69.4297 315.81 69.2543V69.2173C315.81 68.7618 315.686 68.4079 315.436 68.1555C315.19 67.9032 314.816 67.777 314.314 67.777C313.794 67.777 313.387 67.8909 313.091 68.1186C312.796 68.3464 312.588 68.5895 312.468 68.848L311.434 68.4787C311.618 68.0478 311.865 67.7124 312.172 67.4723C312.483 67.2292 312.822 67.0599 313.188 66.9645C313.557 66.866 313.921 66.8168 314.278 66.8168C314.505 66.8168 314.767 66.8445 315.062 66.8999C315.361 66.9522 315.649 67.0614 315.926 67.2276C316.206 67.3938 316.438 67.6446 316.623 67.9801C316.807 68.3156 316.9 68.7649 316.9 69.3281V74H315.81V73.0398H315.755C315.681 73.1937 315.558 73.3583 315.386 73.5337C315.213 73.7092 314.984 73.8584 314.698 73.9815C314.411 74.1046 314.062 74.1662 313.65 74.1662ZM313.816 73.1875C314.247 73.1875 314.61 73.1029 314.905 72.9336C315.204 72.7643 315.429 72.5458 315.579 72.2781C315.733 72.0103 315.81 71.7287 315.81 71.4332V70.4361C315.764 70.4915 315.663 70.5423 315.506 70.5884C315.352 70.6315 315.173 70.67 314.97 70.7038C314.77 70.7346 314.575 70.7623 314.384 70.7869C314.196 70.8085 314.044 70.8269 313.927 70.8423C313.644 70.8793 313.379 70.9393 313.133 71.0224C312.89 71.1024 312.693 71.224 312.542 71.3871C312.394 71.5471 312.32 71.7656 312.32 72.0426C312.32 72.4212 312.46 72.7074 312.74 72.9013C313.023 73.0921 313.382 73.1875 313.816 73.1875ZM325.628 66.9091V67.8324H321.954V66.9091H325.628ZM323.025 65.2102H324.114V71.9688C324.114 72.2765 324.159 72.5073 324.248 72.6612C324.34 72.812 324.457 72.9136 324.599 72.9659C324.744 73.0152 324.896 73.0398 325.056 73.0398C325.176 73.0398 325.274 73.0336 325.351 73.0213C325.428 73.0059 325.49 72.9936 325.536 72.9844L325.758 73.9631C325.684 73.9908 325.581 74.0185 325.448 74.0462C325.316 74.0769 325.148 74.0923 324.945 74.0923C324.637 74.0923 324.336 74.0262 324.04 73.8938C323.748 73.7615 323.505 73.5599 323.311 73.2891C323.12 73.0182 323.025 72.6766 323.025 72.2642V65.2102ZM330.072 74.1477C329.432 74.1477 328.87 73.9954 328.387 73.6907C327.907 73.386 327.531 72.9598 327.26 72.4119C326.992 71.8641 326.859 71.224 326.859 70.4915C326.859 69.7528 326.992 69.1081 327.26 68.5572C327.531 68.0063 327.907 67.5785 328.387 67.2738C328.87 66.9691 329.432 66.8168 330.072 66.8168C330.712 66.8168 331.272 66.9691 331.752 67.2738C332.235 67.5785 332.611 68.0063 332.879 68.5572C333.149 69.1081 333.285 69.7528 333.285 70.4915C333.285 71.224 333.149 71.8641 332.879 72.4119C332.611 72.9598 332.235 73.386 331.752 73.6907C331.272 73.9954 330.712 74.1477 330.072 74.1477ZM330.072 73.169C330.558 73.169 330.958 73.0444 331.272 72.7951C331.586 72.5458 331.818 72.218 331.969 71.8118C332.12 71.4055 332.195 70.9654 332.195 70.4915C332.195 70.0175 332.12 69.5759 331.969 69.1665C331.818 68.7572 331.586 68.4264 331.272 68.174C330.958 67.9216 330.558 67.7955 330.072 67.7955C329.585 67.7955 329.185 67.9216 328.871 68.174C328.557 68.4264 328.325 68.7572 328.174 69.1665C328.024 69.5759 327.948 70.0175 327.948 70.4915C327.948 70.9654 328.024 71.4055 328.174 71.8118C328.325 72.218 328.557 72.5458 328.871 72.7951C329.185 73.0444 329.585 73.169 330.072 73.169ZM337.829 74.1477C337.188 74.1477 336.627 73.9954 336.144 73.6907C335.663 73.386 335.288 72.9598 335.017 72.4119C334.749 71.8641 334.615 71.224 334.615 70.4915C334.615 69.7528 334.749 69.1081 335.017 68.5572C335.288 68.0063 335.663 67.5785 336.144 67.2738C336.627 66.9691 337.188 66.8168 337.829 66.8168C338.469 66.8168 339.029 66.9691 339.509 67.2738C339.992 67.5785 340.368 68.0063 340.635 68.5572C340.906 69.1081 341.042 69.7528 341.042 70.4915C341.042 71.224 340.906 71.8641 340.635 72.4119C340.368 72.9598 339.992 73.386 339.509 73.6907C339.029 73.9954 338.469 74.1477 337.829 74.1477ZM337.829 73.169C338.315 73.169 338.715 73.0444 339.029 72.7951C339.343 72.5458 339.575 72.218 339.726 71.8118C339.877 71.4055 339.952 70.9654 339.952 70.4915C339.952 70.0175 339.877 69.5759 339.726 69.1665C339.575 68.7572 339.343 68.4264 339.029 68.174C338.715 67.9216 338.315 67.7955 337.829 67.7955C337.342 67.7955 336.942 67.9216 336.628 68.174C336.314 68.4264 336.082 68.7572 335.931 69.1665C335.78 69.5759 335.705 70.0175 335.705 70.4915C335.705 70.9654 335.78 71.4055 335.931 71.8118C336.082 72.218 336.314 72.5458 336.628 72.7951C336.942 73.0444 337.342 73.169 337.829 73.169ZM343.794 64.5455V74H342.705V64.5455H343.794ZM348.873 66.9091V67.8324H345.199V66.9091H348.873ZM346.27 65.2102H347.359V71.9688C347.359 72.2765 347.404 72.5073 347.493 72.6612C347.585 72.812 347.702 72.9136 347.844 72.9659C347.989 73.0152 348.141 73.0398 348.301 73.0398C348.421 73.0398 348.52 73.0336 348.596 73.0213C348.673 73.0059 348.735 72.9936 348.781 72.9844L349.003 73.9631C348.929 73.9908 348.826 74.0185 348.693 74.0462C348.561 74.0769 348.393 74.0923 348.19 74.0923C347.882 74.0923 347.581 74.0262 347.285 73.8938C346.993 73.7615 346.75 73.5599 346.556 73.2891C346.365 73.0182 346.27 72.6766 346.27 72.2642V65.2102ZM350.512 74V66.9091H351.602V74H350.512ZM351.066 65.7273C350.854 65.7273 350.671 65.6549 350.517 65.5103C350.366 65.3656 350.291 65.1918 350.291 64.9886C350.291 64.7855 350.366 64.6116 350.517 64.467C350.671 64.3223 350.854 64.25 351.066 64.25C351.279 64.25 351.46 64.3223 351.611 64.467C351.765 64.6116 351.842 64.7855 351.842 64.9886C351.842 65.1918 351.765 65.3656 351.611 65.5103C351.46 65.6549 351.279 65.7273 351.066 65.7273ZM353.597 76.6591V66.9091H354.65V68.0355H354.779C354.859 67.9124 354.97 67.7554 355.111 67.5646C355.256 67.3707 355.462 67.1984 355.73 67.0476C356.001 66.8937 356.367 66.8168 356.829 66.8168C357.426 66.8168 357.952 66.966 358.408 67.2646C358.863 67.5631 359.219 67.9863 359.474 68.5341C359.729 69.0819 359.857 69.7282 359.857 70.473C359.857 71.224 359.729 71.8749 359.474 72.4258C359.219 72.9736 358.865 73.3983 358.412 73.6999C357.96 73.9985 357.438 74.1477 356.847 74.1477C356.392 74.1477 356.027 74.0723 355.753 73.9215C355.479 73.7676 355.268 73.5937 355.121 73.3999C354.973 73.2029 354.859 73.0398 354.779 72.9105H354.687V76.6591H353.597ZM354.668 70.4545C354.668 70.9901 354.747 71.4625 354.904 71.8718C355.061 72.2781 355.29 72.5966 355.592 72.8274C355.893 73.0552 356.263 73.169 356.7 73.169C357.155 73.169 357.535 73.049 357.84 72.8089C358.148 72.5658 358.378 72.2396 358.532 71.8303C358.689 71.4179 358.768 70.9593 358.768 70.4545C358.768 69.956 358.691 69.5066 358.537 69.1065C358.386 68.7034 358.157 68.3848 357.849 68.1509C357.544 67.9139 357.161 67.7955 356.7 67.7955C356.256 67.7955 355.884 67.9078 355.582 68.1325C355.281 68.354 355.053 68.6649 354.899 69.065C354.745 69.462 354.668 69.9252 354.668 70.4545Z" fill="#344054"/>
<g clip-path="url(#clip0_851_11444)">
<path d="M370.485 62.9289C370.485 62.038 371.562 61.5919 372.192 62.2218L378.263 68.2929C378.654 68.6834 378.654 69.3166 378.263 69.7071L372.192 75.7782C371.562 76.4081 370.485 75.962 370.485 75.0711V62.9289Z" fill="white"/>
</g>
</g>
<g filter="url(#filter2_dd_851_11444)">
<rect x="438" y="50" width="118" height="32" rx="8" fill="white"/>
<path d="M451.106 62.5611V61.5455H458.197V62.5611H455.224V71H454.079V62.5611H451.106ZM460.905 66.7344V71H459.816V61.5455H460.905V65.017H460.998C461.164 64.6508 461.413 64.36 461.746 64.1445C462.081 63.926 462.527 63.8168 463.084 63.8168C463.568 63.8168 463.991 63.9137 464.354 64.1076C464.717 64.2984 464.999 64.5923 465.199 64.9893C465.402 65.3833 465.504 65.8849 465.504 66.4943V71H464.414V66.5682C464.414 66.005 464.268 65.5695 463.975 65.2617C463.686 64.9509 463.285 64.7955 462.771 64.7955C462.414 64.7955 462.093 64.8709 461.81 65.0217C461.53 65.1725 461.309 65.3925 461.146 65.6818C460.986 65.9711 460.905 66.322 460.905 66.7344ZM467.497 71V63.9091H468.586V71H467.497ZM468.051 62.7273C467.838 62.7273 467.655 62.6549 467.501 62.5103C467.35 62.3656 467.275 62.1918 467.275 61.9886C467.275 61.7855 467.35 61.6116 467.501 61.467C467.655 61.3223 467.838 61.25 468.051 61.25C468.263 61.25 468.445 61.3223 468.595 61.467C468.749 61.6116 468.826 61.7855 468.826 61.9886C468.826 62.1918 468.749 62.3656 468.595 62.5103C468.445 62.6549 468.263 62.7273 468.051 62.7273ZM475.604 65.4972L474.626 65.7741C474.564 65.611 474.473 65.4525 474.353 65.2987C474.236 65.1417 474.076 65.0124 473.873 64.9109C473.67 64.8093 473.41 64.7585 473.093 64.7585C472.659 64.7585 472.297 64.8585 472.008 65.0586C471.722 65.2556 471.579 65.5064 471.579 65.8111C471.579 66.0819 471.677 66.2958 471.874 66.4528C472.071 66.6097 472.379 66.7405 472.798 66.8452L473.85 67.1037C474.484 67.2576 474.957 67.493 475.267 67.81C475.578 68.1239 475.734 68.5286 475.734 69.0241C475.734 69.4304 475.617 69.7936 475.383 70.1136C475.152 70.4337 474.829 70.6861 474.413 70.8707C473.998 71.0554 473.515 71.1477 472.964 71.1477C472.24 71.1477 471.642 70.9908 471.168 70.6768C470.694 70.3629 470.394 69.9044 470.268 69.3011L471.302 69.0426C471.4 69.4242 471.586 69.7105 471.86 69.9013C472.137 70.0921 472.499 70.1875 472.945 70.1875C473.453 70.1875 473.856 70.0798 474.155 69.8643C474.456 69.6458 474.607 69.3842 474.607 69.0795C474.607 68.8333 474.521 68.6271 474.349 68.4609C474.176 68.2917 473.912 68.1655 473.555 68.0824L472.373 67.8054C471.723 67.6515 471.246 67.413 470.942 67.0898C470.64 66.7636 470.489 66.3558 470.489 65.8665C470.489 65.4664 470.602 65.1125 470.826 64.8047C471.054 64.4969 471.363 64.2553 471.754 64.0799C472.148 63.9045 472.594 63.8168 473.093 63.8168C473.795 63.8168 474.346 63.9706 474.746 64.2784C475.149 64.5862 475.435 64.9924 475.604 65.4972ZM481.03 71V63.9091H482.119V71H481.03ZM481.584 62.7273C481.371 62.7273 481.188 62.6549 481.034 62.5103C480.884 62.3656 480.808 62.1918 480.808 61.9886C480.808 61.7855 480.884 61.6116 481.034 61.467C481.188 61.3223 481.371 61.25 481.584 61.25C481.796 61.25 481.978 61.3223 482.129 61.467C482.282 61.6116 482.359 61.7855 482.359 61.9886C482.359 62.1918 482.282 62.3656 482.129 62.5103C481.978 62.6549 481.796 62.7273 481.584 62.7273ZM489.138 65.4972L488.159 65.7741C488.097 65.611 488.007 65.4525 487.886 65.2987C487.77 65.1417 487.61 65.0124 487.406 64.9109C487.203 64.8093 486.943 64.7585 486.626 64.7585C486.192 64.7585 485.831 64.8585 485.541 65.0586C485.255 65.2556 485.112 65.5064 485.112 65.8111C485.112 66.0819 485.21 66.2958 485.407 66.4528C485.604 66.6097 485.912 66.7405 486.331 66.8452L487.383 67.1037C488.017 67.2576 488.49 67.493 488.801 67.81C489.111 68.1239 489.267 68.5286 489.267 69.0241C489.267 69.4304 489.15 69.7936 488.916 70.1136C488.685 70.4337 488.362 70.6861 487.947 70.8707C487.531 71.0554 487.048 71.1477 486.497 71.1477C485.774 71.1477 485.175 70.9908 484.701 70.6768C484.227 70.3629 483.927 69.9044 483.801 69.3011L484.835 69.0426C484.933 69.4242 485.12 69.7105 485.394 69.9013C485.671 70.0921 486.032 70.1875 486.478 70.1875C486.986 70.1875 487.389 70.0798 487.688 69.8643C487.99 69.6458 488.14 69.3842 488.14 69.0795C488.14 68.8333 488.054 68.6271 487.882 68.4609C487.71 68.2917 487.445 68.1655 487.088 68.0824L485.906 67.8054C485.257 67.6515 484.78 67.413 484.475 67.0898C484.173 66.7636 484.023 66.3558 484.023 65.8665C484.023 65.4664 484.135 65.1125 484.36 64.8047C484.587 64.4969 484.897 64.2553 485.287 64.0799C485.681 63.9045 486.128 63.8168 486.626 63.8168C487.328 63.8168 487.879 63.9706 488.279 64.2784C488.682 64.5862 488.968 64.9924 489.138 65.4972ZM496.65 71.1662C496.2 71.1662 495.793 71.0816 495.426 70.9123C495.06 70.7399 494.769 70.4922 494.554 70.169C494.338 69.8428 494.231 69.4489 494.231 68.9872C494.231 68.581 494.311 68.2517 494.471 67.9993C494.631 67.7438 494.845 67.5438 495.112 67.3991C495.38 67.2545 495.676 67.1468 495.999 67.076C496.325 67.0021 496.653 66.9437 496.982 66.9006C497.413 66.8452 497.762 66.8036 498.03 66.7759C498.301 66.7451 498.498 66.6944 498.621 66.6236C498.747 66.5528 498.81 66.4297 498.81 66.2543V66.2173C498.81 65.7618 498.686 65.4079 498.436 65.1555C498.19 64.9032 497.816 64.777 497.314 64.777C496.794 64.777 496.387 64.8909 496.091 65.1186C495.796 65.3464 495.588 65.5895 495.468 65.848L494.434 65.4787C494.618 65.0478 494.865 64.7124 495.172 64.4723C495.483 64.2292 495.822 64.0599 496.188 63.9645C496.557 63.866 496.921 63.8168 497.278 63.8168C497.505 63.8168 497.767 63.8445 498.062 63.8999C498.361 63.9522 498.649 64.0614 498.926 64.2276C499.206 64.3938 499.438 64.6446 499.623 64.9801C499.807 65.3156 499.9 65.7649 499.9 66.3281V71H498.81V70.0398H498.755C498.681 70.1937 498.558 70.3583 498.386 70.5337C498.213 70.7092 497.984 70.8584 497.698 70.9815C497.411 71.1046 497.062 71.1662 496.65 71.1662ZM496.816 70.1875C497.247 70.1875 497.61 70.1029 497.905 69.9336C498.204 69.7643 498.429 69.5458 498.579 69.2781C498.733 69.0103 498.81 68.7287 498.81 68.4332V67.4361C498.764 67.4915 498.663 67.5423 498.506 67.5884C498.352 67.6315 498.173 67.67 497.97 67.7038C497.77 67.7346 497.575 67.7623 497.384 67.7869C497.196 67.8085 497.044 67.8269 496.927 67.8423C496.644 67.8793 496.379 67.9393 496.133 68.0224C495.89 68.1024 495.693 68.224 495.542 68.3871C495.394 68.5471 495.32 68.7656 495.32 69.0426C495.32 69.4212 495.46 69.7074 495.74 69.9013C496.023 70.0921 496.382 70.1875 496.816 70.1875ZM508.628 63.9091V64.8324H504.954V63.9091H508.628ZM506.025 62.2102H507.114V68.9688C507.114 69.2765 507.159 69.5073 507.248 69.6612C507.34 69.812 507.457 69.9136 507.599 69.9659C507.744 70.0152 507.896 70.0398 508.056 70.0398C508.176 70.0398 508.274 70.0336 508.351 70.0213C508.428 70.0059 508.49 69.9936 508.536 69.9844L508.758 70.9631C508.684 70.9908 508.581 71.0185 508.448 71.0462C508.316 71.0769 508.148 71.0923 507.945 71.0923C507.637 71.0923 507.336 71.0262 507.04 70.8938C506.748 70.7615 506.505 70.5599 506.311 70.2891C506.12 70.0182 506.025 69.6766 506.025 69.2642V62.2102ZM513.072 71.1477C512.432 71.1477 511.87 70.9954 511.387 70.6907C510.907 70.386 510.531 69.9598 510.26 69.4119C509.992 68.8641 509.859 68.224 509.859 67.4915C509.859 66.7528 509.992 66.1081 510.26 65.5572C510.531 65.0063 510.907 64.5785 511.387 64.2738C511.87 63.9691 512.432 63.8168 513.072 63.8168C513.712 63.8168 514.272 63.9691 514.752 64.2738C515.235 64.5785 515.611 65.0063 515.879 65.5572C516.149 66.1081 516.285 66.7528 516.285 67.4915C516.285 68.224 516.149 68.8641 515.879 69.4119C515.611 69.9598 515.235 70.386 514.752 70.6907C514.272 70.9954 513.712 71.1477 513.072 71.1477ZM513.072 70.169C513.558 70.169 513.958 70.0444 514.272 69.7951C514.586 69.5458 514.818 69.218 514.969 68.8118C515.12 68.4055 515.195 67.9654 515.195 67.4915C515.195 67.0175 515.12 66.5759 514.969 66.1665C514.818 65.7572 514.586 65.4264 514.272 65.174C513.958 64.9216 513.558 64.7955 513.072 64.7955C512.585 64.7955 512.185 64.9216 511.871 65.174C511.557 65.4264 511.325 65.7572 511.174 66.1665C511.024 66.5759 510.948 67.0175 510.948 67.4915C510.948 67.9654 511.024 68.4055 511.174 68.8118C511.325 69.218 511.557 69.5458 511.871 69.7951C512.185 70.0444 512.585 70.169 513.072 70.169ZM520.829 71.1477C520.188 71.1477 519.627 70.9954 519.144 70.6907C518.663 70.386 518.288 69.9598 518.017 69.4119C517.749 68.8641 517.615 68.224 517.615 67.4915C517.615 66.7528 517.749 66.1081 518.017 65.5572C518.288 65.0063 518.663 64.5785 519.144 64.2738C519.627 63.9691 520.188 63.8168 520.829 63.8168C521.469 63.8168 522.029 63.9691 522.509 64.2738C522.992 64.5785 523.368 65.0063 523.635 65.5572C523.906 66.1081 524.042 66.7528 524.042 67.4915C524.042 68.224 523.906 68.8641 523.635 69.4119C523.368 69.9598 522.992 70.386 522.509 70.6907C522.029 70.9954 521.469 71.1477 520.829 71.1477ZM520.829 70.169C521.315 70.169 521.715 70.0444 522.029 69.7951C522.343 69.5458 522.575 69.218 522.726 68.8118C522.877 68.4055 522.952 67.9654 522.952 67.4915C522.952 67.0175 522.877 66.5759 522.726 66.1665C522.575 65.7572 522.343 65.4264 522.029 65.174C521.715 64.9216 521.315 64.7955 520.829 64.7955C520.342 64.7955 519.942 64.9216 519.628 65.174C519.314 65.4264 519.082 65.7572 518.931 66.1665C518.78 66.5759 518.705 67.0175 518.705 67.4915C518.705 67.9654 518.78 68.4055 518.931 68.8118C519.082 69.218 519.314 69.5458 519.628 69.7951C519.942 70.0444 520.342 70.169 520.829 70.169ZM526.794 61.5455V71H525.705V61.5455H526.794ZM531.873 63.9091V64.8324H528.199V63.9091H531.873ZM529.27 62.2102H530.359V68.9688C530.359 69.2765 530.404 69.5073 530.493 69.6612C530.585 69.812 530.702 69.9136 530.844 69.9659C530.989 70.0152 531.141 70.0398 531.301 70.0398C531.421 70.0398 531.52 70.0336 531.596 70.0213C531.673 70.0059 531.735 69.9936 531.781 69.9844L532.003 70.9631C531.929 70.9908 531.826 71.0185 531.693 71.0462C531.561 71.0769 531.393 71.0923 531.19 71.0923C530.882 71.0923 530.581 71.0262 530.285 70.8938C529.993 70.7615 529.75 70.5599 529.556 70.2891C529.365 70.0182 529.27 69.6766 529.27 69.2642V62.2102ZM533.512 71V63.9091H534.602V71H533.512ZM534.066 62.7273C533.854 62.7273 533.671 62.6549 533.517 62.5103C533.366 62.3656 533.291 62.1918 533.291 61.9886C533.291 61.7855 533.366 61.6116 533.517 61.467C533.671 61.3223 533.854 61.25 534.066 61.25C534.279 61.25 534.46 61.3223 534.611 61.467C534.765 61.6116 534.842 61.7855 534.842 61.9886C534.842 62.1918 534.765 62.3656 534.611 62.5103C534.46 62.6549 534.279 62.7273 534.066 62.7273ZM536.597 73.6591V63.9091H537.65V65.0355H537.779C537.859 64.9124 537.97 64.7554 538.111 64.5646C538.256 64.3707 538.462 64.1984 538.73 64.0476C539.001 63.8937 539.367 63.8168 539.829 63.8168C540.426 63.8168 540.952 63.966 541.408 64.2646C541.863 64.5631 542.219 64.9863 542.474 65.5341C542.729 66.0819 542.857 66.7282 542.857 67.473C542.857 68.224 542.729 68.8749 542.474 69.4258C542.219 69.9736 541.865 70.3983 541.412 70.6999C540.96 70.9985 540.438 71.1477 539.847 71.1477C539.392 71.1477 539.027 71.0723 538.753 70.9215C538.479 70.7676 538.268 70.5937 538.121 70.3999C537.973 70.2029 537.859 70.0398 537.779 69.9105H537.687V73.6591H536.597ZM537.668 67.4545C537.668 67.9901 537.747 68.4625 537.904 68.8718C538.061 69.2781 538.29 69.5966 538.592 69.8274C538.893 70.0552 539.263 70.169 539.7 70.169C540.155 70.169 540.535 70.049 540.84 69.8089C541.148 69.5658 541.378 69.2396 541.532 68.8303C541.689 68.4179 541.768 67.9593 541.768 67.4545C541.768 66.956 541.691 66.5066 541.537 66.1065C541.386 65.7034 541.157 65.3848 540.849 65.1509C540.544 64.9139 540.161 64.7955 539.7 64.7955C539.256 64.7955 538.884 64.9078 538.582 65.1325C538.281 65.354 538.053 65.6649 537.899 66.065C537.745 66.462 537.668 66.9252 537.668 67.4545Z" fill="#344054"/>
<path d="M503.071 79.4853C503.962 79.4853 504.408 80.5624 503.778 81.1924L497.707 87.2635C497.317 87.654 496.683 87.654 496.293 87.2635L490.222 81.1924C489.592 80.5624 490.038 79.4853 490.929 79.4853H503.071Z" fill="white"/>
</g>
<g filter="url(#filter3_dd_851_11444)">
<path d="M667.929 58.5147C667.038 58.5147 666.592 57.4376 667.222 56.8076L673.293 50.7365C673.683 50.346 674.317 50.346 674.707 50.7365L680.778 56.8076C681.408 57.4376 680.962 58.5147 680.071 58.5147H667.929Z" fill="white"/>
<rect x="615" y="56" width="118" height="32" rx="8" fill="white"/>
<path d="M628.106 68.5611V67.5455H635.197V68.5611H632.224V77H631.079V68.5611H628.106ZM637.905 72.7344V77H636.816V67.5455H637.905V71.017H637.998C638.164 70.6508 638.413 70.36 638.746 70.1445C639.081 69.926 639.527 69.8168 640.084 69.8168C640.568 69.8168 640.991 69.9137 641.354 70.1076C641.717 70.2984 641.999 70.5923 642.199 70.9893C642.402 71.3833 642.504 71.8849 642.504 72.4943V77H641.414V72.5682C641.414 72.005 641.268 71.5695 640.975 71.2617C640.686 70.9509 640.285 70.7955 639.771 70.7955C639.414 70.7955 639.093 70.8709 638.81 71.0217C638.53 71.1725 638.309 71.3925 638.146 71.6818C637.986 71.9711 637.905 72.322 637.905 72.7344ZM644.497 77V69.9091H645.586V77H644.497ZM645.051 68.7273C644.838 68.7273 644.655 68.6549 644.501 68.5103C644.35 68.3656 644.275 68.1918 644.275 67.9886C644.275 67.7855 644.35 67.6116 644.501 67.467C644.655 67.3223 644.838 67.25 645.051 67.25C645.263 67.25 645.445 67.3223 645.595 67.467C645.749 67.6116 645.826 67.7855 645.826 67.9886C645.826 68.1918 645.749 68.3656 645.595 68.5103C645.445 68.6549 645.263 68.7273 645.051 68.7273ZM652.604 71.4972L651.626 71.7741C651.564 71.611 651.473 71.4525 651.353 71.2987C651.236 71.1417 651.076 71.0124 650.873 70.9109C650.67 70.8093 650.41 70.7585 650.093 70.7585C649.659 70.7585 649.297 70.8585 649.008 71.0586C648.722 71.2556 648.579 71.5064 648.579 71.8111C648.579 72.0819 648.677 72.2958 648.874 72.4528C649.071 72.6097 649.379 72.7405 649.798 72.8452L650.85 73.1037C651.484 73.2576 651.957 73.493 652.267 73.81C652.578 74.1239 652.734 74.5286 652.734 75.0241C652.734 75.4304 652.617 75.7936 652.383 76.1136C652.152 76.4337 651.829 76.6861 651.413 76.8707C650.998 77.0554 650.515 77.1477 649.964 77.1477C649.24 77.1477 648.642 76.9908 648.168 76.6768C647.694 76.3629 647.394 75.9044 647.268 75.3011L648.302 75.0426C648.4 75.4242 648.586 75.7105 648.86 75.9013C649.137 76.0921 649.499 76.1875 649.945 76.1875C650.453 76.1875 650.856 76.0798 651.155 75.8643C651.456 75.6458 651.607 75.3842 651.607 75.0795C651.607 74.8333 651.521 74.6271 651.349 74.4609C651.176 74.2917 650.912 74.1655 650.555 74.0824L649.373 73.8054C648.723 73.6515 648.246 73.413 647.942 73.0898C647.64 72.7636 647.489 72.3558 647.489 71.8665C647.489 71.4664 647.602 71.1125 647.826 70.8047C648.054 70.4969 648.363 70.2553 648.754 70.0799C649.148 69.9045 649.594 69.8168 650.093 69.8168C650.795 69.8168 651.346 69.9706 651.746 70.2784C652.149 70.5862 652.435 70.9924 652.604 71.4972ZM658.03 77V69.9091H659.119V77H658.03ZM658.584 68.7273C658.371 68.7273 658.188 68.6549 658.034 68.5103C657.884 68.3656 657.808 68.1918 657.808 67.9886C657.808 67.7855 657.884 67.6116 658.034 67.467C658.188 67.3223 658.371 67.25 658.584 67.25C658.796 67.25 658.978 67.3223 659.129 67.467C659.282 67.6116 659.359 67.7855 659.359 67.9886C659.359 68.1918 659.282 68.3656 659.129 68.5103C658.978 68.6549 658.796 68.7273 658.584 68.7273ZM666.138 71.4972L665.159 71.7741C665.097 71.611 665.007 71.4525 664.886 71.2987C664.77 71.1417 664.61 71.0124 664.406 70.9109C664.203 70.8093 663.943 70.7585 663.626 70.7585C663.192 70.7585 662.831 70.8585 662.541 71.0586C662.255 71.2556 662.112 71.5064 662.112 71.8111C662.112 72.0819 662.21 72.2958 662.407 72.4528C662.604 72.6097 662.912 72.7405 663.331 72.8452L664.383 73.1037C665.017 73.2576 665.49 73.493 665.801 73.81C666.111 74.1239 666.267 74.5286 666.267 75.0241C666.267 75.4304 666.15 75.7936 665.916 76.1136C665.685 76.4337 665.362 76.6861 664.947 76.8707C664.531 77.0554 664.048 77.1477 663.497 77.1477C662.774 77.1477 662.175 76.9908 661.701 76.6768C661.227 76.3629 660.927 75.9044 660.801 75.3011L661.835 75.0426C661.933 75.4242 662.12 75.7105 662.394 75.9013C662.671 76.0921 663.032 76.1875 663.478 76.1875C663.986 76.1875 664.389 76.0798 664.688 75.8643C664.99 75.6458 665.14 75.3842 665.14 75.0795C665.14 74.8333 665.054 74.6271 664.882 74.4609C664.71 74.2917 664.445 74.1655 664.088 74.0824L662.906 73.8054C662.257 73.6515 661.78 73.413 661.475 73.0898C661.173 72.7636 661.023 72.3558 661.023 71.8665C661.023 71.4664 661.135 71.1125 661.36 70.8047C661.587 70.4969 661.897 70.2553 662.287 70.0799C662.681 69.9045 663.128 69.8168 663.626 69.8168C664.328 69.8168 664.879 69.9706 665.279 70.2784C665.682 70.5862 665.968 70.9924 666.138 71.4972ZM673.65 77.1662C673.2 77.1662 672.793 77.0816 672.426 76.9123C672.06 76.7399 671.769 76.4922 671.554 76.169C671.338 75.8428 671.231 75.4489 671.231 74.9872C671.231 74.581 671.311 74.2517 671.471 73.9993C671.631 73.7438 671.845 73.5438 672.112 73.3991C672.38 73.2545 672.676 73.1468 672.999 73.076C673.325 73.0021 673.653 72.9437 673.982 72.9006C674.413 72.8452 674.762 72.8036 675.03 72.7759C675.301 72.7451 675.498 72.6944 675.621 72.6236C675.747 72.5528 675.81 72.4297 675.81 72.2543V72.2173C675.81 71.7618 675.686 71.4079 675.436 71.1555C675.19 70.9032 674.816 70.777 674.314 70.777C673.794 70.777 673.387 70.8909 673.091 71.1186C672.796 71.3464 672.588 71.5895 672.468 71.848L671.434 71.4787C671.618 71.0478 671.865 70.7124 672.172 70.4723C672.483 70.2292 672.822 70.0599 673.188 69.9645C673.557 69.866 673.921 69.8168 674.278 69.8168C674.505 69.8168 674.767 69.8445 675.062 69.8999C675.361 69.9522 675.649 70.0614 675.926 70.2276C676.206 70.3938 676.438 70.6446 676.623 70.9801C676.807 71.3156 676.9 71.7649 676.9 72.3281V77H675.81V76.0398H675.755C675.681 76.1937 675.558 76.3583 675.386 76.5337C675.213 76.7092 674.984 76.8584 674.698 76.9815C674.411 77.1046 674.062 77.1662 673.65 77.1662ZM673.816 76.1875C674.247 76.1875 674.61 76.1029 674.905 75.9336C675.204 75.7643 675.429 75.5458 675.579 75.2781C675.733 75.0103 675.81 74.7287 675.81 74.4332V73.4361C675.764 73.4915 675.663 73.5423 675.506 73.5884C675.352 73.6315 675.173 73.67 674.97 73.7038C674.77 73.7346 674.575 73.7623 674.384 73.7869C674.196 73.8085 674.044 73.8269 673.927 73.8423C673.644 73.8793 673.379 73.9393 673.133 74.0224C672.89 74.1024 672.693 74.224 672.542 74.3871C672.394 74.5471 672.32 74.7656 672.32 75.0426C672.32 75.4212 672.46 75.7074 672.74 75.9013C673.023 76.0921 673.382 76.1875 673.816 76.1875ZM685.628 69.9091V70.8324H681.954V69.9091H685.628ZM683.025 68.2102H684.114V74.9688C684.114 75.2765 684.159 75.5073 684.248 75.6612C684.34 75.812 684.457 75.9136 684.599 75.9659C684.744 76.0152 684.896 76.0398 685.056 76.0398C685.176 76.0398 685.274 76.0336 685.351 76.0213C685.428 76.0059 685.49 75.9936 685.536 75.9844L685.758 76.9631C685.684 76.9908 685.581 77.0185 685.448 77.0462C685.316 77.0769 685.148 77.0923 684.945 77.0923C684.637 77.0923 684.336 77.0262 684.04 76.8938C683.748 76.7615 683.505 76.5599 683.311 76.2891C683.12 76.0182 683.025 75.6766 683.025 75.2642V68.2102ZM690.072 77.1477C689.432 77.1477 688.87 76.9954 688.387 76.6907C687.907 76.386 687.531 75.9598 687.26 75.4119C686.992 74.8641 686.859 74.224 686.859 73.4915C686.859 72.7528 686.992 72.1081 687.26 71.5572C687.531 71.0063 687.907 70.5785 688.387 70.2738C688.87 69.9691 689.432 69.8168 690.072 69.8168C690.712 69.8168 691.272 69.9691 691.752 70.2738C692.235 70.5785 692.611 71.0063 692.879 71.5572C693.149 72.1081 693.285 72.7528 693.285 73.4915C693.285 74.224 693.149 74.8641 692.879 75.4119C692.611 75.9598 692.235 76.386 691.752 76.6907C691.272 76.9954 690.712 77.1477 690.072 77.1477ZM690.072 76.169C690.558 76.169 690.958 76.0444 691.272 75.7951C691.586 75.5458 691.818 75.218 691.969 74.8118C692.12 74.4055 692.195 73.9654 692.195 73.4915C692.195 73.0175 692.12 72.5759 691.969 72.1665C691.818 71.7572 691.586 71.4264 691.272 71.174C690.958 70.9216 690.558 70.7955 690.072 70.7955C689.585 70.7955 689.185 70.9216 688.871 71.174C688.557 71.4264 688.325 71.7572 688.174 72.1665C688.024 72.5759 687.948 73.0175 687.948 73.4915C687.948 73.9654 688.024 74.4055 688.174 74.8118C688.325 75.218 688.557 75.5458 688.871 75.7951C689.185 76.0444 689.585 76.169 690.072 76.169ZM697.829 77.1477C697.188 77.1477 696.627 76.9954 696.144 76.6907C695.663 76.386 695.288 75.9598 695.017 75.4119C694.749 74.8641 694.615 74.224 694.615 73.4915C694.615 72.7528 694.749 72.1081 695.017 71.5572C695.288 71.0063 695.663 70.5785 696.144 70.2738C696.627 69.9691 697.188 69.8168 697.829 69.8168C698.469 69.8168 699.029 69.9691 699.509 70.2738C699.992 70.5785 700.368 71.0063 700.635 71.5572C700.906 72.1081 701.042 72.7528 701.042 73.4915C701.042 74.224 700.906 74.8641 700.635 75.4119C700.368 75.9598 699.992 76.386 699.509 76.6907C699.029 76.9954 698.469 77.1477 697.829 77.1477ZM697.829 76.169C698.315 76.169 698.715 76.0444 699.029 75.7951C699.343 75.5458 699.575 75.218 699.726 74.8118C699.877 74.4055 699.952 73.9654 699.952 73.4915C699.952 73.0175 699.877 72.5759 699.726 72.1665C699.575 71.7572 699.343 71.4264 699.029 71.174C698.715 70.9216 698.315 70.7955 697.829 70.7955C697.342 70.7955 696.942 70.9216 696.628 71.174C696.314 71.4264 696.082 71.7572 695.931 72.1665C695.78 72.5759 695.705 73.0175 695.705 73.4915C695.705 73.9654 695.78 74.4055 695.931 74.8118C696.082 75.218 696.314 75.5458 696.628 75.7951C696.942 76.0444 697.342 76.169 697.829 76.169ZM703.794 67.5455V77H702.705V67.5455H703.794ZM708.873 69.9091V70.8324H705.199V69.9091H708.873ZM706.27 68.2102H707.359V74.9688C707.359 75.2765 707.404 75.5073 707.493 75.6612C707.585 75.812 707.702 75.9136 707.844 75.9659C707.989 76.0152 708.141 76.0398 708.301 76.0398C708.421 76.0398 708.52 76.0336 708.596 76.0213C708.673 76.0059 708.735 75.9936 708.781 75.9844L709.003 76.9631C708.929 76.9908 708.826 77.0185 708.693 77.0462C708.561 77.0769 708.393 77.0923 708.19 77.0923C707.882 77.0923 707.581 77.0262 707.285 76.8938C706.993 76.7615 706.75 76.5599 706.556 76.2891C706.365 76.0182 706.27 75.6766 706.27 75.2642V68.2102ZM710.512 77V69.9091H711.602V77H710.512ZM711.066 68.7273C710.854 68.7273 710.671 68.6549 710.517 68.5103C710.366 68.3656 710.291 68.1918 710.291 67.9886C710.291 67.7855 710.366 67.6116 710.517 67.467C710.671 67.3223 710.854 67.25 711.066 67.25C711.279 67.25 711.46 67.3223 711.611 67.467C711.765 67.6116 711.842 67.7855 711.842 67.9886C711.842 68.1918 711.765 68.3656 711.611 68.5103C711.46 68.6549 711.279 68.7273 711.066 68.7273ZM713.597 79.6591V69.9091H714.65V71.0355H714.779C714.859 70.9124 714.97 70.7554 715.111 70.5646C715.256 70.3707 715.462 70.1984 715.73 70.0476C716.001 69.8937 716.367 69.8168 716.829 69.8168C717.426 69.8168 717.952 69.966 718.408 70.2646C718.863 70.5631 719.219 70.9863 719.474 71.5341C719.729 72.0819 719.857 72.7282 719.857 73.473C719.857 74.224 719.729 74.8749 719.474 75.4258C719.219 75.9736 718.865 76.3983 718.412 76.6999C717.96 76.9985 717.438 77.1477 716.847 77.1477C716.392 77.1477 716.027 77.0723 715.753 76.9215C715.479 76.7676 715.268 76.5937 715.121 76.3999C714.973 76.2029 714.859 76.0398 714.779 75.9105H714.687V79.6591H713.597ZM714.668 73.4545C714.668 73.9901 714.747 74.4625 714.904 74.8718C715.061 75.2781 715.29 75.5966 715.592 75.8274C715.893 76.0552 716.263 76.169 716.7 76.169C717.155 76.169 717.535 76.049 717.84 75.8089C718.148 75.5658 718.378 75.2396 718.532 74.8303C718.689 74.4179 718.768 73.9593 718.768 73.4545C718.768 72.956 718.691 72.5066 718.537 72.1065C718.386 71.7034 718.157 71.3848 717.849 71.1509C717.544 70.9139 717.161 70.7955 716.7 70.7955C716.256 70.7955 715.884 70.9078 715.582 71.1325C715.281 71.354 715.053 71.6649 714.899 72.065C714.745 72.462 714.668 72.9252 714.668 73.4545Z" fill="#344054"/>
</g>
<path d="M126.057 127V118.273H127.114V126.062H131.17V127H126.057ZM135.415 127.136C134.784 127.136 134.24 126.997 133.783 126.719C133.328 126.438 132.977 126.045 132.73 125.543C132.486 125.037 132.364 124.449 132.364 123.778C132.364 123.108 132.486 122.517 132.73 122.006C132.977 121.491 133.321 121.091 133.761 120.804C134.205 120.514 134.722 120.369 135.312 120.369C135.653 120.369 135.99 120.426 136.322 120.54C136.655 120.653 136.957 120.838 137.23 121.094C137.503 121.347 137.72 121.682 137.882 122.099C138.044 122.517 138.125 123.031 138.125 123.642V124.068H133.08V123.199H137.102C137.102 122.83 137.028 122.5 136.881 122.21C136.736 121.92 136.528 121.692 136.259 121.524C135.991 121.357 135.676 121.273 135.312 121.273C134.912 121.273 134.565 121.372 134.273 121.571C133.983 121.767 133.76 122.023 133.604 122.338C133.447 122.653 133.369 122.991 133.369 123.352V123.932C133.369 124.426 133.455 124.845 133.625 125.189C133.798 125.53 134.038 125.79 134.345 125.969C134.652 126.145 135.009 126.233 135.415 126.233C135.679 126.233 135.918 126.196 136.131 126.122C136.347 126.045 136.533 125.932 136.689 125.781C136.845 125.628 136.966 125.437 137.051 125.21L138.023 125.483C137.92 125.812 137.749 126.102 137.507 126.352C137.266 126.599 136.967 126.793 136.612 126.932C136.257 127.068 135.858 127.136 135.415 127.136ZM142.57 120.455V121.307H139.041V120.455H142.57ZM140.098 127V119.551C140.098 119.176 140.186 118.864 140.362 118.614C140.538 118.364 140.767 118.176 141.048 118.051C141.33 117.926 141.626 117.864 141.939 117.864C142.186 117.864 142.388 117.884 142.544 117.923C142.7 117.963 142.817 118 142.893 118.034L142.604 118.903C142.553 118.886 142.482 118.865 142.391 118.839C142.303 118.814 142.186 118.801 142.041 118.801C141.709 118.801 141.469 118.885 141.321 119.053C141.176 119.22 141.104 119.466 141.104 119.79V127H140.098ZM146.826 120.455V121.307H143.434V120.455H146.826ZM144.422 118.886H145.428V125.125C145.428 125.409 145.469 125.622 145.551 125.764C145.637 125.903 145.745 125.997 145.875 126.045C146.009 126.091 146.15 126.114 146.297 126.114C146.408 126.114 146.499 126.108 146.57 126.097C146.641 126.082 146.698 126.071 146.74 126.062L146.945 126.966C146.877 126.991 146.782 127.017 146.659 127.043C146.537 127.071 146.382 127.085 146.195 127.085C145.911 127.085 145.632 127.024 145.36 126.902C145.09 126.78 144.865 126.594 144.686 126.344C144.51 126.094 144.422 125.778 144.422 125.398V118.886Z" fill="black"/>
<path d="M300.057 127V118.273H303.006C303.688 118.273 304.247 118.389 304.685 118.622C305.122 118.852 305.446 119.169 305.656 119.572C305.866 119.976 305.972 120.435 305.972 120.949C305.972 121.463 305.866 121.919 305.656 122.317C305.446 122.714 305.124 123.027 304.689 123.254C304.254 123.479 303.699 123.591 303.023 123.591H300.636V122.636H302.989C303.455 122.636 303.83 122.568 304.114 122.432C304.401 122.295 304.608 122.102 304.736 121.852C304.866 121.599 304.932 121.298 304.932 120.949C304.932 120.599 304.866 120.294 304.736 120.033C304.605 119.771 304.396 119.57 304.109 119.428C303.822 119.283 303.443 119.21 302.972 119.21H301.114V127H300.057ZM304.165 123.08L306.312 127H305.085L302.972 123.08H304.165ZM307.596 127V120.455H308.602V127H307.596ZM308.108 119.364C307.912 119.364 307.743 119.297 307.6 119.163C307.461 119.03 307.392 118.869 307.392 118.682C307.392 118.494 307.461 118.334 307.6 118.2C307.743 118.067 307.912 118 308.108 118C308.304 118 308.471 118.067 308.61 118.2C308.752 118.334 308.824 118.494 308.824 118.682C308.824 118.869 308.752 119.03 308.61 119.163C308.471 119.297 308.304 119.364 308.108 119.364ZM313.086 129.591C312.6 129.591 312.183 129.528 311.833 129.403C311.484 129.281 311.192 129.119 310.96 128.918C310.729 128.719 310.546 128.506 310.41 128.278L311.211 127.716C311.302 127.835 311.417 127.972 311.556 128.125C311.695 128.281 311.886 128.416 312.127 128.53C312.371 128.646 312.691 128.705 313.086 128.705C313.614 128.705 314.05 128.577 314.394 128.321C314.738 128.065 314.91 127.665 314.91 127.119V125.79H314.825C314.751 125.909 314.646 126.057 314.509 126.233C314.376 126.406 314.183 126.561 313.93 126.697C313.68 126.831 313.342 126.898 312.915 126.898C312.387 126.898 311.913 126.773 311.492 126.523C311.075 126.273 310.744 125.909 310.499 125.432C310.258 124.955 310.137 124.375 310.137 123.693C310.137 123.023 310.255 122.439 310.491 121.942C310.727 121.442 311.055 121.055 311.475 120.783C311.896 120.507 312.381 120.369 312.933 120.369C313.359 120.369 313.697 120.44 313.947 120.582C314.2 120.722 314.393 120.881 314.526 121.06C314.663 121.236 314.768 121.381 314.842 121.494H314.944V120.455H315.915V127.188C315.915 127.75 315.788 128.207 315.532 128.56C315.279 128.915 314.938 129.175 314.509 129.339C314.083 129.507 313.609 129.591 313.086 129.591ZM313.052 125.994C313.455 125.994 313.796 125.902 314.075 125.717C314.353 125.533 314.565 125.267 314.71 124.92C314.854 124.574 314.927 124.159 314.927 123.676C314.927 123.205 314.856 122.788 314.714 122.428C314.572 122.067 314.362 121.784 314.083 121.58C313.805 121.375 313.461 121.273 313.052 121.273C312.626 121.273 312.271 121.381 311.987 121.597C311.705 121.812 311.494 122.102 311.352 122.466C311.212 122.83 311.143 123.233 311.143 123.676C311.143 124.131 311.214 124.533 311.356 124.882C311.501 125.229 311.714 125.501 311.995 125.7C312.279 125.896 312.631 125.994 313.052 125.994ZM318.762 123.062V127H317.756V118.273H318.762V121.477H318.847C319.001 121.139 319.231 120.871 319.538 120.672C319.847 120.47 320.259 120.369 320.773 120.369C321.219 120.369 321.61 120.459 321.945 120.638C322.281 120.814 322.54 121.085 322.725 121.452C322.913 121.815 323.006 122.278 323.006 122.841V127H322.001V122.909C322.001 122.389 321.866 121.987 321.596 121.703C321.329 121.416 320.958 121.273 320.484 121.273C320.154 121.273 319.859 121.342 319.597 121.482C319.339 121.621 319.134 121.824 318.984 122.091C318.836 122.358 318.762 122.682 318.762 123.062ZM327.693 120.455V121.307H324.301V120.455H327.693ZM325.289 118.886H326.295V125.125C326.295 125.409 326.336 125.622 326.419 125.764C326.504 125.903 326.612 125.997 326.743 126.045C326.876 126.091 327.017 126.114 327.164 126.114C327.275 126.114 327.366 126.108 327.437 126.097C327.508 126.082 327.565 126.071 327.608 126.062L327.812 126.966C327.744 126.991 327.649 127.017 327.527 127.043C327.404 127.071 327.25 127.085 327.062 127.085C326.778 127.085 326.5 127.024 326.227 126.902C325.957 126.78 325.733 126.594 325.554 126.344C325.377 126.094 325.289 125.778 325.289 125.398V118.886Z" fill="black"/>
<path d="M457.057 127V118.273H460.108C460.716 118.273 461.217 118.378 461.612 118.588C462.007 118.795 462.301 119.075 462.494 119.428C462.688 119.777 462.784 120.165 462.784 120.591C462.784 120.966 462.717 121.276 462.584 121.52C462.453 121.764 462.28 121.957 462.064 122.099C461.851 122.241 461.619 122.347 461.369 122.415V122.5C461.636 122.517 461.905 122.611 462.175 122.781C462.445 122.952 462.67 123.196 462.852 123.514C463.034 123.832 463.125 124.222 463.125 124.682C463.125 125.119 463.026 125.513 462.827 125.862C462.628 126.212 462.314 126.489 461.885 126.693C461.456 126.898 460.898 127 460.21 127H457.057ZM458.114 126.062H460.21C460.901 126.062 461.391 125.929 461.68 125.662C461.973 125.392 462.119 125.065 462.119 124.682C462.119 124.386 462.044 124.114 461.893 123.864C461.743 123.611 461.528 123.409 461.25 123.259C460.972 123.105 460.642 123.028 460.261 123.028H458.114V126.062ZM458.114 122.108H460.074C460.392 122.108 460.679 122.045 460.935 121.92C461.193 121.795 461.398 121.619 461.548 121.392C461.702 121.165 461.778 120.898 461.778 120.591C461.778 120.207 461.645 119.882 461.378 119.615C461.111 119.345 460.688 119.21 460.108 119.21H458.114V122.108ZM467.384 127.136C466.793 127.136 466.275 126.996 465.829 126.714C465.386 126.433 465.039 126.04 464.789 125.534C464.542 125.028 464.418 124.437 464.418 123.761C464.418 123.08 464.542 122.484 464.789 121.976C465.039 121.467 465.386 121.072 465.829 120.791C466.275 120.51 466.793 120.369 467.384 120.369C467.975 120.369 468.492 120.51 468.935 120.791C469.381 121.072 469.728 121.467 469.975 121.976C470.225 122.484 470.35 123.08 470.35 123.761C470.35 124.437 470.225 125.028 469.975 125.534C469.728 126.04 469.381 126.433 468.935 126.714C468.492 126.996 467.975 127.136 467.384 127.136ZM467.384 126.233C467.833 126.233 468.202 126.118 468.492 125.888C468.782 125.658 468.996 125.355 469.136 124.98C469.275 124.605 469.344 124.199 469.344 123.761C469.344 123.324 469.275 122.916 469.136 122.538C468.996 122.161 468.782 121.855 468.492 121.622C468.202 121.389 467.833 121.273 467.384 121.273C466.935 121.273 466.566 121.389 466.276 121.622C465.987 121.855 465.772 122.161 465.633 122.538C465.494 122.916 465.424 123.324 465.424 123.761C465.424 124.199 465.494 124.605 465.633 124.98C465.772 125.355 465.987 125.658 466.276 125.888C466.566 126.118 466.935 126.233 467.384 126.233ZM474.732 120.455V121.307H471.34V120.455H474.732ZM472.328 118.886H473.334V125.125C473.334 125.409 473.375 125.622 473.458 125.764C473.543 125.903 473.651 125.997 473.782 126.045C473.915 126.091 474.056 126.114 474.203 126.114C474.314 126.114 474.405 126.108 474.476 126.097C474.547 126.082 474.604 126.071 474.647 126.062L474.851 126.966C474.783 126.991 474.688 127.017 474.566 127.043C474.444 127.071 474.289 127.085 474.101 127.085C473.817 127.085 473.539 127.024 473.266 126.902C472.996 126.78 472.772 126.594 472.593 126.344C472.417 126.094 472.328 125.778 472.328 125.398V118.886ZM479.091 120.455V121.307H475.699V120.455H479.091ZM476.688 118.886H477.694V125.125C477.694 125.409 477.735 125.622 477.817 125.764C477.902 125.903 478.01 125.997 478.141 126.045C478.275 126.091 478.415 126.114 478.563 126.114C478.674 126.114 478.765 126.108 478.836 126.097C478.907 126.082 478.963 126.071 479.006 126.062L479.211 126.966C479.142 126.991 479.047 127.017 478.925 127.043C478.803 127.071 478.648 127.085 478.461 127.085C478.176 127.085 477.898 127.024 477.625 126.902C477.355 126.78 477.131 126.594 476.952 126.344C476.776 126.094 476.688 125.778 476.688 125.398V118.886ZM483.193 127.136C482.602 127.136 482.083 126.996 481.637 126.714C481.194 126.433 480.848 126.04 480.598 125.534C480.35 125.028 480.227 124.437 480.227 123.761C480.227 123.08 480.35 122.484 480.598 121.976C480.848 121.467 481.194 121.072 481.637 120.791C482.083 120.51 482.602 120.369 483.193 120.369C483.784 120.369 484.301 120.51 484.744 120.791C485.19 121.072 485.537 121.467 485.784 121.976C486.034 122.484 486.159 123.08 486.159 123.761C486.159 124.437 486.034 125.028 485.784 125.534C485.537 126.04 485.19 126.433 484.744 126.714C484.301 126.996 483.784 127.136 483.193 127.136ZM483.193 126.233C483.642 126.233 484.011 126.118 484.301 125.888C484.591 125.658 484.805 125.355 484.944 124.98C485.083 124.605 485.153 124.199 485.153 123.761C485.153 123.324 485.083 122.916 484.944 122.538C484.805 122.161 484.591 121.855 484.301 121.622C484.011 121.389 483.642 121.273 483.193 121.273C482.744 121.273 482.375 121.389 482.085 121.622C481.795 121.855 481.581 122.161 481.441 122.538C481.302 122.916 481.233 123.324 481.233 123.761C481.233 124.199 481.302 124.605 481.441 124.98C481.581 125.355 481.795 125.658 482.085 125.888C482.375 126.118 482.744 126.233 483.193 126.233ZM487.694 127V120.455H488.665V121.477H488.751C488.887 121.128 489.107 120.857 489.411 120.663C489.715 120.467 490.08 120.369 490.506 120.369C490.938 120.369 491.298 120.467 491.585 120.663C491.874 120.857 492.1 121.128 492.262 121.477H492.33C492.498 121.139 492.749 120.871 493.085 120.672C493.42 120.47 493.822 120.369 494.29 120.369C494.876 120.369 495.354 120.553 495.727 120.919C496.099 121.283 496.285 121.849 496.285 122.619V127H495.279V122.619C495.279 122.136 495.147 121.791 494.883 121.584C494.619 121.376 494.308 121.273 493.95 121.273C493.489 121.273 493.133 121.412 492.88 121.69C492.627 121.966 492.501 122.315 492.501 122.739V127H491.478V122.517C491.478 122.145 491.357 121.845 491.116 121.618C490.874 121.388 490.563 121.273 490.183 121.273C489.921 121.273 489.677 121.342 489.45 121.482C489.225 121.621 489.043 121.814 488.904 122.061C488.768 122.305 488.7 122.588 488.7 122.909V127H487.694ZM504.158 127.136C503.544 127.136 503.016 126.991 502.572 126.702C502.129 126.412 501.788 126.013 501.55 125.504C501.311 124.996 501.192 124.415 501.192 123.761C501.192 123.097 501.314 122.51 501.558 122.001C501.805 121.49 502.149 121.091 502.589 120.804C503.033 120.514 503.55 120.369 504.141 120.369C504.601 120.369 505.016 120.455 505.385 120.625C505.754 120.795 506.057 121.034 506.293 121.341C506.528 121.648 506.675 122.006 506.732 122.415H505.726C505.649 122.116 505.479 121.852 505.214 121.622C504.953 121.389 504.601 121.273 504.158 121.273C503.766 121.273 503.422 121.375 503.126 121.58C502.834 121.781 502.605 122.067 502.44 122.436C502.278 122.803 502.197 123.233 502.197 123.727C502.197 124.233 502.277 124.673 502.436 125.048C502.598 125.423 502.825 125.714 503.118 125.922C503.413 126.129 503.76 126.233 504.158 126.233C504.419 126.233 504.656 126.188 504.869 126.097C505.082 126.006 505.263 125.875 505.411 125.705C505.558 125.534 505.663 125.33 505.726 125.091H506.732C506.675 125.477 506.534 125.825 506.31 126.135C506.088 126.442 505.794 126.686 505.428 126.868C505.064 127.047 504.641 127.136 504.158 127.136ZM510.946 127.136C510.315 127.136 509.771 126.997 509.314 126.719C508.859 126.438 508.509 126.045 508.261 125.543C508.017 125.037 507.895 124.449 507.895 123.778C507.895 123.108 508.017 122.517 508.261 122.006C508.509 121.491 508.852 121.091 509.293 120.804C509.736 120.514 510.253 120.369 510.844 120.369C511.185 120.369 511.521 120.426 511.854 120.54C512.186 120.653 512.489 120.838 512.761 121.094C513.034 121.347 513.251 121.682 513.413 122.099C513.575 122.517 513.656 123.031 513.656 123.642V124.068H508.611V123.199H512.634C512.634 122.83 512.56 122.5 512.412 122.21C512.267 121.92 512.06 121.692 511.79 121.524C511.523 121.357 511.207 121.273 510.844 121.273C510.443 121.273 510.097 121.372 509.804 121.571C509.514 121.767 509.291 122.023 509.135 122.338C508.979 122.653 508.901 122.991 508.901 123.352V123.932C508.901 124.426 508.986 124.845 509.156 125.189C509.33 125.53 509.57 125.79 509.876 125.969C510.183 126.145 510.54 126.233 510.946 126.233C511.21 126.233 511.449 126.196 511.662 126.122C511.878 126.045 512.064 125.932 512.22 125.781C512.376 125.628 512.497 125.437 512.582 125.21L513.554 125.483C513.452 125.812 513.28 126.102 513.038 126.352C512.797 126.599 512.499 126.793 512.143 126.932C511.788 127.068 511.389 127.136 510.946 127.136ZM516.192 123.062V127H515.186V120.455H516.158V121.477H516.243C516.396 121.145 516.629 120.878 516.942 120.676C517.254 120.472 517.658 120.369 518.152 120.369C518.595 120.369 518.983 120.46 519.315 120.642C519.648 120.821 519.906 121.094 520.091 121.46C520.276 121.824 520.368 122.284 520.368 122.841V127H519.362V122.909C519.362 122.395 519.229 121.994 518.962 121.707C518.695 121.418 518.328 121.273 517.862 121.273C517.541 121.273 517.254 121.342 517.001 121.482C516.751 121.621 516.554 121.824 516.409 122.091C516.264 122.358 516.192 122.682 516.192 123.062ZM525.052 120.455V121.307H521.66V120.455H525.052ZM522.649 118.886H523.654V125.125C523.654 125.409 523.696 125.622 523.778 125.764C523.863 125.903 523.971 125.997 524.102 126.045C524.235 126.091 524.376 126.114 524.524 126.114C524.635 126.114 524.725 126.108 524.797 126.097C524.868 126.082 524.924 126.071 524.967 126.062L525.172 126.966C525.103 126.991 525.008 127.017 524.886 127.043C524.764 127.071 524.609 127.085 524.422 127.085C524.137 127.085 523.859 127.024 523.586 126.902C523.316 126.78 523.092 126.594 522.913 126.344C522.737 126.094 522.649 125.778 522.649 125.398V118.886ZM529.239 127.136C528.608 127.136 528.064 126.997 527.607 126.719C527.152 126.438 526.801 126.045 526.554 125.543C526.31 125.037 526.188 124.449 526.188 123.778C526.188 123.108 526.31 122.517 526.554 122.006C526.801 121.491 527.145 121.091 527.586 120.804C528.029 120.514 528.546 120.369 529.137 120.369C529.478 120.369 529.814 120.426 530.147 120.54C530.479 120.653 530.782 120.838 531.054 121.094C531.327 121.347 531.544 121.682 531.706 122.099C531.868 122.517 531.949 123.031 531.949 123.642V124.068H526.904V123.199H530.926C530.926 122.83 530.853 122.5 530.705 122.21C530.56 121.92 530.353 121.692 530.083 121.524C529.816 121.357 529.5 121.273 529.137 121.273C528.736 121.273 528.39 121.372 528.097 121.571C527.807 121.767 527.584 122.023 527.428 122.338C527.272 122.653 527.194 122.991 527.194 123.352V123.932C527.194 124.426 527.279 124.845 527.449 125.189C527.623 125.53 527.863 125.79 528.169 125.969C528.476 126.145 528.833 126.233 529.239 126.233C529.503 126.233 529.742 126.196 529.955 126.122C530.171 126.045 530.357 125.932 530.513 125.781C530.669 125.628 530.79 125.437 530.875 125.21L531.847 125.483C531.745 125.812 531.573 126.102 531.331 126.352C531.09 126.599 530.792 126.793 530.436 126.932C530.081 127.068 529.682 127.136 529.239 127.136ZM533.479 127V120.455H534.451V121.443H534.519C534.638 121.119 534.854 120.857 535.167 120.655C535.479 120.453 535.831 120.352 536.223 120.352C536.297 120.352 536.39 120.354 536.5 120.357C536.611 120.359 536.695 120.364 536.752 120.369V121.392C536.718 121.384 536.64 121.371 536.517 121.354C536.398 121.334 536.272 121.324 536.138 121.324C535.82 121.324 535.536 121.391 535.286 121.524C535.039 121.655 534.843 121.837 534.698 122.07C534.556 122.3 534.485 122.562 534.485 122.858V127H533.479Z" fill="black"/>
<path d="M643.58 119.21V118.273H650.125V119.21H647.381V127H646.324V119.21H643.58ZM653.33 127.136C652.739 127.136 652.22 126.996 651.774 126.714C651.331 126.433 650.984 126.04 650.734 125.534C650.487 125.028 650.364 124.437 650.364 123.761C650.364 123.08 650.487 122.484 650.734 121.976C650.984 121.467 651.331 121.072 651.774 120.791C652.22 120.51 652.739 120.369 653.33 120.369C653.92 120.369 654.438 120.51 654.881 120.791C655.327 121.072 655.673 121.467 655.92 121.976C656.17 122.484 656.295 123.08 656.295 123.761C656.295 124.437 656.17 125.028 655.92 125.534C655.673 126.04 655.327 126.433 654.881 126.714C654.438 126.996 653.92 127.136 653.33 127.136ZM653.33 126.233C653.778 126.233 654.148 126.118 654.438 125.888C654.727 125.658 654.942 125.355 655.081 124.98C655.22 124.605 655.29 124.199 655.29 123.761C655.29 123.324 655.22 122.916 655.081 122.538C654.942 122.161 654.727 121.855 654.438 121.622C654.148 121.389 653.778 121.273 653.33 121.273C652.881 121.273 652.511 121.389 652.222 121.622C651.932 121.855 651.717 122.161 651.578 122.538C651.439 122.916 651.369 123.324 651.369 123.761C651.369 124.199 651.439 124.605 651.578 124.98C651.717 125.355 651.932 125.658 652.222 125.888C652.511 126.118 652.881 126.233 653.33 126.233ZM657.831 129.455V120.455H658.802V121.494H658.922C658.995 121.381 659.098 121.236 659.228 121.06C659.362 120.881 659.552 120.722 659.799 120.582C660.049 120.44 660.387 120.369 660.814 120.369C661.365 120.369 661.85 120.507 662.271 120.783C662.691 121.058 663.02 121.449 663.255 121.955C663.491 122.46 663.609 123.057 663.609 123.744C663.609 124.438 663.491 125.038 663.255 125.547C663.02 126.053 662.693 126.445 662.275 126.723C661.858 126.999 661.376 127.136 660.831 127.136C660.41 127.136 660.074 127.067 659.821 126.928C659.568 126.786 659.373 126.625 659.237 126.446C659.1 126.264 658.995 126.114 658.922 125.994H658.836V129.455H657.831ZM658.819 123.727C658.819 124.222 658.892 124.658 659.037 125.036C659.181 125.411 659.393 125.705 659.672 125.918C659.95 126.128 660.291 126.233 660.694 126.233C661.115 126.233 661.466 126.122 661.747 125.901C662.031 125.676 662.244 125.375 662.386 124.997C662.531 124.616 662.603 124.193 662.603 123.727C662.603 123.267 662.532 122.852 662.39 122.483C662.251 122.111 662.039 121.817 661.755 121.601C661.474 121.382 661.12 121.273 660.694 121.273C660.285 121.273 659.941 121.376 659.663 121.584C659.385 121.788 659.174 122.075 659.032 122.445C658.89 122.811 658.819 123.239 658.819 123.727ZM671.177 127.136C670.564 127.136 670.035 126.991 669.592 126.702C669.149 126.412 668.808 126.013 668.569 125.504C668.331 124.996 668.211 124.415 668.211 123.761C668.211 123.097 668.333 122.51 668.578 122.001C668.825 121.49 669.169 121.091 669.609 120.804C670.052 120.514 670.569 120.369 671.16 120.369C671.62 120.369 672.035 120.455 672.404 120.625C672.774 120.795 673.076 121.034 673.312 121.341C673.548 121.648 673.694 122.006 673.751 122.415H672.745C672.669 122.116 672.498 121.852 672.234 121.622C671.973 121.389 671.62 121.273 671.177 121.273C670.785 121.273 670.441 121.375 670.146 121.58C669.853 121.781 669.625 122.067 669.46 122.436C669.298 122.803 669.217 123.233 669.217 123.727C669.217 124.233 669.297 124.673 669.456 125.048C669.618 125.423 669.845 125.714 670.137 125.922C670.433 126.129 670.779 126.233 671.177 126.233C671.439 126.233 671.676 126.188 671.889 126.097C672.102 126.006 672.282 125.875 672.43 125.705C672.578 125.534 672.683 125.33 672.745 125.091H673.751C673.694 125.477 673.554 125.825 673.329 126.135C673.108 126.442 672.814 126.686 672.447 126.868C672.083 127.047 671.66 127.136 671.177 127.136ZM677.966 127.136C677.335 127.136 676.791 126.997 676.333 126.719C675.879 126.438 675.528 126.045 675.281 125.543C675.037 125.037 674.914 124.449 674.914 123.778C674.914 123.108 675.037 122.517 675.281 122.006C675.528 121.491 675.872 121.091 676.312 120.804C676.755 120.514 677.272 120.369 677.863 120.369C678.204 120.369 678.541 120.426 678.873 120.54C679.206 120.653 679.508 120.838 679.781 121.094C680.054 121.347 680.271 121.682 680.433 122.099C680.595 122.517 680.676 123.031 680.676 123.642V124.068H675.63V123.199H679.653C679.653 122.83 679.579 122.5 679.431 122.21C679.287 121.92 679.079 121.692 678.809 121.524C678.542 121.357 678.227 121.273 677.863 121.273C677.463 121.273 677.116 121.372 676.824 121.571C676.534 121.767 676.311 122.023 676.154 122.338C675.998 122.653 675.92 122.991 675.92 123.352V123.932C675.92 124.426 676.005 124.845 676.176 125.189C676.349 125.53 676.589 125.79 676.896 125.969C677.203 126.145 677.559 126.233 677.966 126.233C678.23 126.233 678.468 126.196 678.681 126.122C678.897 126.045 679.083 125.932 679.24 125.781C679.396 125.628 679.517 125.437 679.602 125.21L680.574 125.483C680.471 125.812 680.299 126.102 680.058 126.352C679.816 126.599 679.518 126.793 679.163 126.932C678.808 127.068 678.409 127.136 677.966 127.136ZM683.211 123.062V127H682.206V120.455H683.177V121.477H683.262C683.416 121.145 683.649 120.878 683.961 120.676C684.274 120.472 684.677 120.369 685.172 120.369C685.615 120.369 686.002 120.46 686.335 120.642C686.667 120.821 686.926 121.094 687.11 121.46C687.295 121.824 687.387 122.284 687.387 122.841V127H686.382V122.909C686.382 122.395 686.248 121.994 685.981 121.707C685.714 121.418 685.348 121.273 684.882 121.273C684.561 121.273 684.274 121.342 684.021 121.482C683.771 121.621 683.574 121.824 683.429 122.091C683.284 122.358 683.211 122.682 683.211 123.062ZM692.072 120.455V121.307H688.68V120.455H692.072ZM689.668 118.886H690.674V125.125C690.674 125.409 690.715 125.622 690.798 125.764C690.883 125.903 690.991 125.997 691.121 126.045C691.255 126.091 691.396 126.114 691.543 126.114C691.654 126.114 691.745 126.108 691.816 126.097C691.887 126.082 691.944 126.071 691.987 126.062L692.191 126.966C692.123 126.991 692.028 127.017 691.906 127.043C691.783 127.071 691.629 127.085 691.441 127.085C691.157 127.085 690.879 127.024 690.606 126.902C690.336 126.78 690.112 126.594 689.933 126.344C689.756 126.094 689.668 125.778 689.668 125.398V118.886ZM696.259 127.136C695.628 127.136 695.084 126.997 694.626 126.719C694.172 126.438 693.821 126.045 693.574 125.543C693.33 125.037 693.207 124.449 693.207 123.778C693.207 123.108 693.33 122.517 693.574 122.006C693.821 121.491 694.165 121.091 694.605 120.804C695.048 120.514 695.565 120.369 696.156 120.369C696.497 120.369 696.834 120.426 697.166 120.54C697.499 120.653 697.801 120.838 698.074 121.094C698.347 121.347 698.564 121.682 698.726 122.099C698.888 122.517 698.969 123.031 698.969 123.642V124.068H693.923V123.199H697.946C697.946 122.83 697.872 122.5 697.724 122.21C697.58 121.92 697.372 121.692 697.102 121.524C696.835 121.357 696.52 121.273 696.156 121.273C695.756 121.273 695.409 121.372 695.116 121.571C694.827 121.767 694.604 122.023 694.447 122.338C694.291 122.653 694.213 122.991 694.213 123.352V123.932C694.213 124.426 694.298 124.845 694.469 125.189C694.642 125.53 694.882 125.79 695.189 125.969C695.496 126.145 695.852 126.233 696.259 126.233C696.523 126.233 696.761 126.196 696.974 126.122C697.19 126.045 697.376 125.932 697.533 125.781C697.689 125.628 697.81 125.437 697.895 125.21L698.866 125.483C698.764 125.812 698.592 126.102 698.351 126.352C698.109 126.599 697.811 126.793 697.456 126.932C697.101 127.068 696.702 127.136 696.259 127.136ZM700.499 127V120.455H701.47V121.443H701.538C701.658 121.119 701.874 120.857 702.186 120.655C702.499 120.453 702.851 120.352 703.243 120.352C703.317 120.352 703.409 120.354 703.52 120.357C703.631 120.359 703.714 120.364 703.771 120.369V121.392C703.737 121.384 703.659 121.371 703.537 121.354C703.418 121.334 703.291 121.324 703.158 121.324C702.839 121.324 702.555 121.391 702.305 121.524C702.058 121.655 701.862 121.837 701.717 122.07C701.575 122.3 701.504 122.562 701.504 122.858V127H700.499Z" fill="black"/>
<defs>
<filter id="filter0_dd_851_11444" x="60" y="53" width="148" height="56" filterUnits="userSpaceOnUse" color-interpolation-filters="sRGB">
<feFlood flood-opacity="0" result="BackgroundImageFix"/>
<feColorMatrix in="SourceAlpha" type="matrix" values="0 0 0 0 0 0 0 0 0 0 0 0 0 0 0 0 0 0 127 0" result="hardAlpha"/>
<feMorphology radius="2" operator="erode" in="SourceAlpha" result="effect1_dropShadow_851_11444"/>
<feOffset dy="4"/>
<feGaussianBlur stdDeviation="3"/>
<feColorMatrix type="matrix" values="0 0 0 0 0.0627451 0 0 0 0 0.0941176 0 0 0 0 0.156863 0 0 0 0.03 0"/>
<feBlend mode="normal" in2="BackgroundImageFix" result="effect1_dropShadow_851_11444"/>
<feColorMatrix in="SourceAlpha" type="matrix" values="0 0 0 0 0 0 0 0 0 0 0 0 0 0 0 0 0 0 127 0" result="hardAlpha"/>
<feMorphology radius="4" operator="erode" in="SourceAlpha" result="effect2_dropShadow_851_11444"/>
<feOffset dy="12"/>
<feGaussianBlur stdDeviation="8"/>
<feColorMatrix type="matrix" values="0 0 0 0 0.0627451 0 0 0 0 0.0941176 0 0 0 0 0.156863 0 0 0 0.08 0"/>
<feBlend mode="normal" in2="effect1_dropShadow_851_11444" result="effect2_dropShadow_851_11444"/>
<feBlend mode="normal" in="SourceGraphic" in2="effect2_dropShadow_851_11444" result="shape"/>
</filter>
<filter id="filter1_dd_851_11444" x="243" y="53" width="148" height="56" filterUnits="userSpaceOnUse" color-interpolation-filters="sRGB">
<feFlood flood-opacity="0" result="BackgroundImageFix"/>
<feColorMatrix in="SourceAlpha" type="matrix" values="0 0 0 0 0 0 0 0 0 0 0 0 0 0 0 0 0 0 127 0" result="hardAlpha"/>
<feMorphology radius="2" operator="erode" in="SourceAlpha" result="effect1_dropShadow_851_11444"/>
<feOffset dy="4"/>
<feGaussianBlur stdDeviation="3"/>
<feColorMatrix type="matrix" values="0 0 0 0 0.0627451 0 0 0 0 0.0941176 0 0 0 0 0.156863 0 0 0 0.03 0"/>
<feBlend mode="normal" in2="BackgroundImageFix" result="effect1_dropShadow_851_11444"/>
<feColorMatrix in="SourceAlpha" type="matrix" values="0 0 0 0 0 0 0 0 0 0 0 0 0 0 0 0 0 0 127 0" result="hardAlpha"/>
<feMorphology radius="4" operator="erode" in="SourceAlpha" result="effect2_dropShadow_851_11444"/>
<feOffset dy="12"/>
<feGaussianBlur stdDeviation="8"/>
<feColorMatrix type="matrix" values="0 0 0 0 0.0627451 0 0 0 0 0.0941176 0 0 0 0 0.156863 0 0 0 0.08 0"/>
<feBlend mode="normal" in2="effect1_dropShadow_851_11444" result="effect2_dropShadow_851_11444"/>
<feBlend mode="normal" in="SourceGraphic" in2="effect2_dropShadow_851_11444" result="shape"/>
</filter>
<filter id="filter2_dd_851_11444" x="426" y="50" width="142" height="62" filterUnits="userSpaceOnUse" color-interpolation-filters="sRGB">
<feFlood flood-opacity="0" result="BackgroundImageFix"/>
<feColorMatrix in="SourceAlpha" type="matrix" values="0 0 0 0 0 0 0 0 0 0 0 0 0 0 0 0 0 0 127 0" result="hardAlpha"/>
<feMorphology radius="2" operator="erode" in="SourceAlpha" result="effect1_dropShadow_851_11444"/>
<feOffset dy="4"/>
<feGaussianBlur stdDeviation="3"/>
<feColorMatrix type="matrix" values="0 0 0 0 0.0627451 0 0 0 0 0.0941176 0 0 0 0 0.156863 0 0 0 0.03 0"/>
<feBlend mode="normal" in2="BackgroundImageFix" result="effect1_dropShadow_851_11444"/>
<feColorMatrix in="SourceAlpha" type="matrix" values="0 0 0 0 0 0 0 0 0 0 0 0 0 0 0 0 0 0 127 0" result="hardAlpha"/>
<feMorphology radius="4" operator="erode" in="SourceAlpha" result="effect2_dropShadow_851_11444"/>
<feOffset dy="12"/>
<feGaussianBlur stdDeviation="8"/>
<feColorMatrix type="matrix" values="0 0 0 0 0.0627451 0 0 0 0 0.0941176 0 0 0 0 0.156863 0 0 0 0.08 0"/>
<feBlend mode="normal" in2="effect1_dropShadow_851_11444" result="effect2_dropShadow_851_11444"/>
<feBlend mode="normal" in="SourceGraphic" in2="effect2_dropShadow_851_11444" result="shape"/>
</filter>
<filter id="filter3_dd_851_11444" x="603" y="50" width="142" height="62" filterUnits="userSpaceOnUse" color-interpolation-filters="sRGB">
<feFlood flood-opacity="0" result="BackgroundImageFix"/>
<feColorMatrix in="SourceAlpha" type="matrix" values="0 0 0 0 0 0 0 0 0 0 0 0 0 0 0 0 0 0 127 0" result="hardAlpha"/>
<feMorphology radius="2" operator="erode" in="SourceAlpha" result="effect1_dropShadow_851_11444"/>
<feOffset dy="4"/>
<feGaussianBlur stdDeviation="3"/>
<feColorMatrix type="matrix" values="0 0 0 0 0.0627451 0 0 0 0 0.0941176 0 0 0 0 0.156863 0 0 0 0.03 0"/>
<feBlend mode="normal" in2="BackgroundImageFix" result="effect1_dropShadow_851_11444"/>
<feColorMatrix in="SourceAlpha" type="matrix" values="0 0 0 0 0 0 0 0 0 0 0 0 0 0 0 0 0 0 127 0" result="hardAlpha"/>
<feMorphology radius="4" operator="erode" in="SourceAlpha" result="effect2_dropShadow_851_11444"/>
<feOffset dy="12"/>
<feGaussianBlur stdDeviation="8"/>
<feColorMatrix type="matrix" values="0 0 0 0 0.0627451 0 0 0 0 0.0941176 0 0 0 0 0.156863 0 0 0 0.08 0"/>
<feBlend mode="normal" in2="effect1_dropShadow_851_11444" result="effect2_dropShadow_851_11444"/>
<feBlend mode="normal" in="SourceGraphic" in2="effect2_dropShadow_851_11444" result="shape"/>
</filter>
<clipPath id="clip0_851_11444">
<rect width="16" height="6" fill="white" transform="matrix(0 -1 1 0 373 77)"/>
</clipPath>
</defs>
</svg>
