<svg width="804" height="294" viewBox="0 0 804 294" fill="none" xmlns="http://www.w3.org/2000/svg">
<rect width="804" height="294" fill="#F9FAFB"/>
<rect x="101.5" y="81.5" width="282" height="47" rx="7.5" fill="#E6F5EE"/>
<path d="M152.625 101.42C152.564 100.883 152.314 100.466 151.875 100.17C151.436 99.8712 150.883 99.7216 150.216 99.7216C149.739 99.7216 149.326 99.7973 148.977 99.9489C148.629 100.097 148.358 100.301 148.165 100.562C147.975 100.82 147.881 101.114 147.881 101.443C147.881 101.72 147.945 101.958 148.074 102.159C148.206 102.36 148.379 102.528 148.591 102.665C148.807 102.797 149.038 102.909 149.284 103C149.53 103.087 149.767 103.159 149.994 103.216L151.131 103.511C151.502 103.602 151.883 103.725 152.273 103.881C152.663 104.036 153.025 104.241 153.358 104.494C153.691 104.748 153.96 105.062 154.165 105.438C154.373 105.812 154.477 106.261 154.477 106.784C154.477 107.443 154.307 108.028 153.966 108.54C153.629 109.051 153.138 109.455 152.494 109.75C151.854 110.045 151.08 110.193 150.17 110.193C149.299 110.193 148.545 110.055 147.909 109.778C147.273 109.502 146.775 109.11 146.415 108.602C146.055 108.091 145.856 107.485 145.818 106.784H147.58C147.614 107.205 147.75 107.555 147.989 107.835C148.231 108.112 148.54 108.318 148.915 108.455C149.294 108.587 149.708 108.653 150.159 108.653C150.655 108.653 151.097 108.576 151.483 108.42C151.873 108.261 152.18 108.042 152.403 107.761C152.627 107.477 152.739 107.146 152.739 106.767C152.739 106.422 152.64 106.14 152.443 105.92C152.25 105.701 151.987 105.519 151.653 105.375C151.324 105.231 150.951 105.104 150.534 104.994L149.159 104.619C148.227 104.366 147.489 103.992 146.943 103.5C146.402 103.008 146.131 102.356 146.131 101.545C146.131 100.875 146.313 100.29 146.676 99.7898C147.04 99.2898 147.532 98.9015 148.153 98.625C148.775 98.3447 149.475 98.2045 150.256 98.2045C151.044 98.2045 151.739 98.3428 152.341 98.6193C152.947 98.8958 153.424 99.2765 153.773 99.7614C154.121 100.242 154.303 100.795 154.318 101.42H152.625ZM161.967 106.381V101.273H163.672V110H162.001V108.489H161.911C161.71 108.955 161.388 109.343 160.945 109.653C160.505 109.96 159.958 110.114 159.303 110.114C158.742 110.114 158.246 109.991 157.814 109.744C157.386 109.494 157.049 109.125 156.803 108.636C156.56 108.148 156.439 107.544 156.439 106.824V101.273H158.138V106.619C158.138 107.214 158.303 107.687 158.632 108.04C158.962 108.392 159.39 108.568 159.916 108.568C160.234 108.568 160.551 108.489 160.865 108.33C161.183 108.17 161.446 107.93 161.655 107.608C161.867 107.286 161.971 106.877 161.967 106.381ZM169.631 110.176C168.786 110.176 168.059 109.985 167.449 109.602C166.843 109.216 166.377 108.684 166.051 108.006C165.725 107.328 165.562 106.551 165.562 105.676C165.562 104.79 165.729 104.008 166.062 103.33C166.396 102.648 166.866 102.116 167.472 101.733C168.078 101.35 168.792 101.159 169.614 101.159C170.277 101.159 170.867 101.282 171.386 101.528C171.905 101.771 172.324 102.112 172.642 102.551C172.964 102.991 173.155 103.504 173.216 104.091H171.562C171.472 103.682 171.263 103.33 170.938 103.034C170.616 102.739 170.184 102.591 169.642 102.591C169.169 102.591 168.754 102.716 168.398 102.966C168.045 103.212 167.771 103.564 167.574 104.023C167.377 104.477 167.278 105.015 167.278 105.636C167.278 106.273 167.375 106.822 167.568 107.284C167.761 107.746 168.034 108.104 168.386 108.358C168.742 108.612 169.161 108.739 169.642 108.739C169.964 108.739 170.256 108.68 170.517 108.562C170.782 108.441 171.004 108.269 171.182 108.045C171.364 107.822 171.491 107.553 171.562 107.239H173.216C173.155 107.803 172.972 108.307 172.665 108.75C172.358 109.193 171.947 109.542 171.432 109.795C170.92 110.049 170.32 110.176 169.631 110.176ZM178.709 110.176C177.864 110.176 177.137 109.985 176.527 109.602C175.921 109.216 175.455 108.684 175.129 108.006C174.804 107.328 174.641 106.551 174.641 105.676C174.641 104.79 174.807 104.008 175.141 103.33C175.474 102.648 175.944 102.116 176.55 101.733C177.156 101.35 177.87 101.159 178.692 101.159C179.355 101.159 179.946 101.282 180.464 101.528C180.983 101.771 181.402 102.112 181.72 102.551C182.042 102.991 182.233 103.504 182.294 104.091H180.641C180.55 103.682 180.341 103.33 180.016 103.034C179.694 102.739 179.262 102.591 178.72 102.591C178.247 102.591 177.832 102.716 177.476 102.966C177.124 103.212 176.849 103.564 176.652 104.023C176.455 104.477 176.357 105.015 176.357 105.636C176.357 106.273 176.453 106.822 176.646 107.284C176.839 107.746 177.112 108.104 177.464 108.358C177.821 108.612 178.239 108.739 178.72 108.739C179.042 108.739 179.334 108.68 179.595 108.562C179.86 108.441 180.082 108.269 180.26 108.045C180.442 107.822 180.569 107.553 180.641 107.239H182.294C182.233 107.803 182.05 108.307 181.743 108.75C181.436 109.193 181.025 109.542 180.51 109.795C179.999 110.049 179.398 110.176 178.709 110.176ZM187.872 110.176C187.012 110.176 186.272 109.992 185.651 109.625C185.033 109.254 184.556 108.733 184.219 108.062C183.885 107.388 183.719 106.598 183.719 105.693C183.719 104.799 183.885 104.011 184.219 103.33C184.556 102.648 185.026 102.116 185.628 101.733C186.234 101.35 186.942 101.159 187.753 101.159C188.245 101.159 188.723 101.241 189.185 101.403C189.647 101.566 190.062 101.822 190.429 102.17C190.796 102.519 191.086 102.972 191.298 103.528C191.51 104.081 191.616 104.754 191.616 105.545V106.148H184.679V104.875H189.952C189.952 104.428 189.861 104.032 189.679 103.688C189.497 103.339 189.241 103.064 188.912 102.864C188.586 102.663 188.204 102.562 187.764 102.562C187.287 102.562 186.87 102.68 186.514 102.915C186.162 103.146 185.889 103.449 185.696 103.824C185.507 104.195 185.412 104.598 185.412 105.034V106.028C185.412 106.612 185.514 107.108 185.719 107.517C185.927 107.926 186.217 108.239 186.588 108.455C186.959 108.667 187.393 108.773 187.889 108.773C188.211 108.773 188.505 108.727 188.77 108.636C189.035 108.542 189.264 108.402 189.457 108.216C189.651 108.03 189.798 107.801 189.901 107.528L191.509 107.818C191.38 108.292 191.149 108.706 190.815 109.062C190.486 109.415 190.071 109.689 189.571 109.886C189.075 110.08 188.509 110.176 187.872 110.176ZM200.041 103.403L198.501 103.676C198.437 103.479 198.335 103.292 198.195 103.114C198.058 102.936 197.873 102.79 197.638 102.676C197.403 102.562 197.109 102.506 196.757 102.506C196.276 102.506 195.875 102.614 195.553 102.83C195.231 103.042 195.07 103.316 195.07 103.653C195.07 103.945 195.178 104.18 195.393 104.358C195.609 104.536 195.958 104.682 196.439 104.795L197.825 105.114C198.628 105.299 199.227 105.585 199.621 105.972C200.015 106.358 200.212 106.86 200.212 107.477C200.212 108 200.06 108.466 199.757 108.875C199.458 109.28 199.039 109.598 198.501 109.83C197.967 110.061 197.348 110.176 196.643 110.176C195.666 110.176 194.869 109.968 194.251 109.551C193.634 109.131 193.255 108.534 193.115 107.761L194.757 107.511C194.859 107.939 195.07 108.263 195.388 108.483C195.706 108.699 196.121 108.807 196.632 108.807C197.189 108.807 197.634 108.691 197.967 108.46C198.301 108.225 198.467 107.939 198.467 107.602C198.467 107.33 198.365 107.1 198.161 106.915C197.96 106.729 197.651 106.589 197.234 106.494L195.757 106.17C194.943 105.985 194.34 105.689 193.95 105.284C193.564 104.879 193.371 104.366 193.371 103.744C193.371 103.229 193.515 102.778 193.803 102.392C194.09 102.006 194.488 101.705 194.996 101.489C195.503 101.269 196.085 101.159 196.74 101.159C197.683 101.159 198.426 101.364 198.967 101.773C199.509 102.178 199.867 102.722 200.041 103.403ZM208.619 103.403L207.08 103.676C207.015 103.479 206.913 103.292 206.773 103.114C206.636 102.936 206.451 102.79 206.216 102.676C205.981 102.562 205.688 102.506 205.335 102.506C204.854 102.506 204.453 102.614 204.131 102.83C203.809 103.042 203.648 103.316 203.648 103.653C203.648 103.945 203.756 104.18 203.972 104.358C204.188 104.536 204.536 104.682 205.017 104.795L206.403 105.114C207.206 105.299 207.805 105.585 208.199 105.972C208.593 106.358 208.79 106.86 208.79 107.477C208.79 108 208.638 108.466 208.335 108.875C208.036 109.28 207.617 109.598 207.08 109.83C206.545 110.061 205.926 110.176 205.222 110.176C204.244 110.176 203.447 109.968 202.83 109.551C202.212 109.131 201.833 108.534 201.693 107.761L203.335 107.511C203.438 107.939 203.648 108.263 203.966 108.483C204.284 108.699 204.699 108.807 205.21 108.807C205.767 108.807 206.212 108.691 206.545 108.46C206.879 108.225 207.045 107.939 207.045 107.602C207.045 107.33 206.943 107.1 206.739 106.915C206.538 106.729 206.229 106.589 205.812 106.494L204.335 106.17C203.521 105.985 202.919 105.689 202.528 105.284C202.142 104.879 201.949 104.366 201.949 103.744C201.949 103.229 202.093 102.778 202.381 102.392C202.669 102.006 203.066 101.705 203.574 101.489C204.081 101.269 204.663 101.159 205.318 101.159C206.261 101.159 207.004 101.364 207.545 101.773C208.087 102.178 208.445 102.722 208.619 103.403ZM214.892 110V101.273H216.523V102.693H216.631C216.813 102.212 217.11 101.837 217.523 101.568C217.936 101.295 218.43 101.159 219.006 101.159C219.589 101.159 220.078 101.295 220.472 101.568C220.869 101.841 221.163 102.216 221.352 102.693H221.443C221.652 102.227 221.983 101.856 222.438 101.58C222.892 101.299 223.434 101.159 224.062 101.159C224.854 101.159 225.5 101.407 226 101.903C226.504 102.4 226.756 103.148 226.756 104.148V110H225.057V104.307C225.057 103.716 224.896 103.288 224.574 103.023C224.252 102.758 223.867 102.625 223.42 102.625C222.867 102.625 222.438 102.795 222.131 103.136C221.824 103.473 221.67 103.907 221.67 104.438V110H219.977V104.199C219.977 103.725 219.83 103.345 219.534 103.057C219.239 102.769 218.854 102.625 218.381 102.625C218.059 102.625 217.761 102.71 217.489 102.881C217.22 103.047 217.002 103.28 216.835 103.58C216.672 103.879 216.591 104.225 216.591 104.619V110H214.892ZM232.794 110.176C231.934 110.176 231.194 109.992 230.572 109.625C229.955 109.254 229.478 108.733 229.141 108.062C228.807 107.388 228.641 106.598 228.641 105.693C228.641 104.799 228.807 104.011 229.141 103.33C229.478 102.648 229.947 102.116 230.55 101.733C231.156 101.35 231.864 101.159 232.675 101.159C233.167 101.159 233.644 101.241 234.107 101.403C234.569 101.566 234.983 101.822 235.351 102.17C235.718 102.519 236.008 102.972 236.22 103.528C236.432 104.081 236.538 104.754 236.538 105.545V106.148H229.601V104.875H234.874C234.874 104.428 234.783 104.032 234.601 103.688C234.419 103.339 234.163 103.064 233.834 102.864C233.508 102.663 233.125 102.562 232.686 102.562C232.209 102.562 231.792 102.68 231.436 102.915C231.084 103.146 230.811 103.449 230.618 103.824C230.429 104.195 230.334 104.598 230.334 105.034V106.028C230.334 106.612 230.436 107.108 230.641 107.517C230.849 107.926 231.139 108.239 231.51 108.455C231.881 108.667 232.315 108.773 232.811 108.773C233.133 108.773 233.427 108.727 233.692 108.636C233.957 108.542 234.186 108.402 234.379 108.216C234.572 108.03 234.72 107.801 234.822 107.528L236.43 107.818C236.302 108.292 236.071 108.706 235.737 109.062C235.408 109.415 234.993 109.689 234.493 109.886C233.997 110.08 233.43 110.176 232.794 110.176ZM244.963 103.403L243.423 103.676C243.359 103.479 243.257 103.292 243.116 103.114C242.98 102.936 242.795 102.79 242.56 102.676C242.325 102.562 242.031 102.506 241.679 102.506C241.198 102.506 240.796 102.614 240.474 102.83C240.152 103.042 239.991 103.316 239.991 103.653C239.991 103.945 240.099 104.18 240.315 104.358C240.531 104.536 240.88 104.682 241.361 104.795L242.747 105.114C243.55 105.299 244.149 105.585 244.543 105.972C244.937 106.358 245.134 106.86 245.134 107.477C245.134 108 244.982 108.466 244.679 108.875C244.38 109.28 243.961 109.598 243.423 109.83C242.889 110.061 242.27 110.176 241.565 110.176C240.588 110.176 239.791 109.968 239.173 109.551C238.556 109.131 238.177 108.534 238.037 107.761L239.679 107.511C239.781 107.939 239.991 108.263 240.31 108.483C240.628 108.699 241.043 108.807 241.554 108.807C242.111 108.807 242.556 108.691 242.889 108.46C243.223 108.225 243.389 107.939 243.389 107.602C243.389 107.33 243.287 107.1 243.082 106.915C242.882 106.729 242.573 106.589 242.156 106.494L240.679 106.17C239.865 105.985 239.262 105.689 238.872 105.284C238.486 104.879 238.293 104.366 238.293 103.744C238.293 103.229 238.437 102.778 238.724 102.392C239.012 102.006 239.41 101.705 239.918 101.489C240.425 101.269 241.007 101.159 241.662 101.159C242.605 101.159 243.348 101.364 243.889 101.773C244.431 102.178 244.789 102.722 244.963 103.403ZM253.541 103.403L252.001 103.676C251.937 103.479 251.835 103.292 251.695 103.114C251.558 102.936 251.373 102.79 251.138 102.676C250.903 102.562 250.609 102.506 250.257 102.506C249.776 102.506 249.375 102.614 249.053 102.83C248.731 103.042 248.57 103.316 248.57 103.653C248.57 103.945 248.678 104.18 248.893 104.358C249.109 104.536 249.458 104.682 249.939 104.795L251.325 105.114C252.128 105.299 252.727 105.585 253.121 105.972C253.515 106.358 253.712 106.86 253.712 107.477C253.712 108 253.56 108.466 253.257 108.875C252.958 109.28 252.539 109.598 252.001 109.83C251.467 110.061 250.848 110.176 250.143 110.176C249.166 110.176 248.369 109.968 247.751 109.551C247.134 109.131 246.755 108.534 246.615 107.761L248.257 107.511C248.359 107.939 248.57 108.263 248.888 108.483C249.206 108.699 249.621 108.807 250.132 108.807C250.689 108.807 251.134 108.691 251.467 108.46C251.801 108.225 251.967 107.939 251.967 107.602C251.967 107.33 251.865 107.1 251.661 106.915C251.46 106.729 251.151 106.589 250.734 106.494L249.257 106.17C248.443 105.985 247.84 105.689 247.45 105.284C247.064 104.879 246.871 104.366 246.871 103.744C246.871 103.229 247.015 102.778 247.303 102.392C247.59 102.006 247.988 101.705 248.496 101.489C249.003 101.269 249.585 101.159 250.24 101.159C251.183 101.159 251.926 101.364 252.467 101.773C253.009 102.178 253.367 102.722 253.541 103.403ZM258.119 110.193C257.566 110.193 257.066 110.091 256.619 109.886C256.172 109.678 255.818 109.377 255.557 108.983C255.299 108.589 255.17 108.106 255.17 107.534C255.17 107.042 255.265 106.636 255.455 106.318C255.644 106 255.9 105.748 256.222 105.562C256.544 105.377 256.903 105.237 257.301 105.142C257.699 105.047 258.104 104.975 258.517 104.926C259.04 104.866 259.464 104.816 259.79 104.778C260.116 104.737 260.352 104.67 260.5 104.58C260.648 104.489 260.722 104.341 260.722 104.136V104.097C260.722 103.6 260.581 103.216 260.301 102.943C260.025 102.67 259.612 102.534 259.062 102.534C258.491 102.534 258.04 102.661 257.71 102.915C257.384 103.165 257.159 103.443 257.034 103.75L255.438 103.386C255.627 102.856 255.903 102.428 256.267 102.102C256.634 101.773 257.057 101.534 257.534 101.386C258.011 101.235 258.513 101.159 259.04 101.159C259.388 101.159 259.758 101.201 260.148 101.284C260.542 101.364 260.909 101.511 261.25 101.727C261.595 101.943 261.877 102.252 262.097 102.653C262.316 103.051 262.426 103.568 262.426 104.205V110H260.767V108.807H260.699C260.589 109.027 260.424 109.242 260.205 109.455C259.985 109.667 259.703 109.843 259.358 109.983C259.013 110.123 258.6 110.193 258.119 110.193ZM258.489 108.83C258.958 108.83 259.36 108.737 259.693 108.551C260.03 108.366 260.286 108.123 260.46 107.824C260.638 107.521 260.727 107.197 260.727 106.852V105.727C260.667 105.788 260.549 105.845 260.375 105.898C260.205 105.947 260.009 105.991 259.79 106.028C259.57 106.062 259.356 106.095 259.148 106.125C258.939 106.152 258.765 106.174 258.625 106.193C258.295 106.235 257.994 106.305 257.722 106.403C257.453 106.502 257.237 106.644 257.074 106.83C256.915 107.011 256.835 107.254 256.835 107.557C256.835 107.977 256.991 108.295 257.301 108.511C257.612 108.723 258.008 108.83 258.489 108.83ZM268.348 113.455C267.655 113.455 267.058 113.364 266.558 113.182C266.062 113 265.657 112.759 265.342 112.46C265.028 112.161 264.793 111.833 264.638 111.477L266.098 110.875C266.2 111.042 266.337 111.218 266.507 111.403C266.681 111.593 266.916 111.754 267.212 111.886C267.511 112.019 267.895 112.085 268.365 112.085C269.009 112.085 269.541 111.928 269.962 111.614C270.382 111.303 270.592 110.807 270.592 110.125V108.409H270.484C270.382 108.595 270.234 108.801 270.041 109.028C269.852 109.256 269.59 109.453 269.257 109.619C268.924 109.786 268.49 109.869 267.956 109.869C267.267 109.869 266.645 109.708 266.092 109.386C265.543 109.061 265.107 108.581 264.786 107.949C264.467 107.312 264.308 106.53 264.308 105.602C264.308 104.674 264.465 103.879 264.78 103.216C265.098 102.553 265.534 102.045 266.087 101.693C266.64 101.337 267.267 101.159 267.967 101.159C268.509 101.159 268.946 101.25 269.28 101.432C269.613 101.61 269.873 101.818 270.058 102.057C270.248 102.295 270.393 102.506 270.496 102.688H270.621V101.273H272.286V110.193C272.286 110.943 272.111 111.559 271.763 112.04C271.414 112.521 270.943 112.877 270.348 113.108C269.757 113.339 269.09 113.455 268.348 113.455ZM268.331 108.46C268.82 108.46 269.232 108.347 269.57 108.119C269.911 107.888 270.168 107.559 270.342 107.131C270.52 106.699 270.609 106.182 270.609 105.58C270.609 104.992 270.522 104.475 270.348 104.028C270.174 103.581 269.918 103.233 269.581 102.983C269.244 102.729 268.827 102.602 268.331 102.602C267.82 102.602 267.393 102.735 267.053 103C266.712 103.261 266.454 103.617 266.28 104.068C266.109 104.519 266.024 105.023 266.024 105.58C266.024 106.152 266.111 106.653 266.286 107.085C266.46 107.517 266.717 107.854 267.058 108.097C267.403 108.339 267.827 108.46 268.331 108.46ZM278.325 110.176C277.465 110.176 276.725 109.992 276.104 109.625C275.486 109.254 275.009 108.733 274.672 108.062C274.339 107.388 274.172 106.598 274.172 105.693C274.172 104.799 274.339 104.011 274.672 103.33C275.009 102.648 275.479 102.116 276.081 101.733C276.687 101.35 277.395 101.159 278.206 101.159C278.698 101.159 279.176 101.241 279.638 101.403C280.1 101.566 280.515 101.822 280.882 102.17C281.25 102.519 281.539 102.972 281.751 103.528C281.964 104.081 282.07 104.754 282.07 105.545V106.148H275.132V104.875H280.405C280.405 104.428 280.314 104.032 280.132 103.688C279.95 103.339 279.695 103.064 279.365 102.864C279.039 102.663 278.657 102.562 278.217 102.562C277.74 102.562 277.323 102.68 276.967 102.915C276.615 103.146 276.342 103.449 276.149 103.824C275.96 104.195 275.865 104.598 275.865 105.034V106.028C275.865 106.612 275.967 107.108 276.172 107.517C276.38 107.926 276.67 108.239 277.041 108.455C277.412 108.667 277.846 108.773 278.342 108.773C278.664 108.773 278.958 108.727 279.223 108.636C279.488 108.542 279.717 108.402 279.911 108.216C280.104 108.03 280.251 107.801 280.354 107.528L281.962 107.818C281.833 108.292 281.602 108.706 281.268 109.062C280.939 109.415 280.524 109.689 280.024 109.886C279.528 110.08 278.962 110.176 278.325 110.176ZM285.074 110.108C284.763 110.108 284.496 109.998 284.273 109.778C284.049 109.555 283.938 109.286 283.938 108.972C283.938 108.661 284.049 108.396 284.273 108.176C284.496 107.953 284.763 107.841 285.074 107.841C285.384 107.841 285.652 107.953 285.875 108.176C286.098 108.396 286.21 108.661 286.21 108.972C286.21 109.18 286.157 109.371 286.051 109.545C285.949 109.716 285.812 109.852 285.642 109.955C285.472 110.057 285.282 110.108 285.074 110.108Z" fill="#039855"/>
<path fill-rule="evenodd" clip-rule="evenodd" d="M117 105C117 109.42 120.58 113 125 113C129.42 113 133 109.42 133 105C133 100.58 129.42 97 125 97C120.58 97 117 100.58 117 105ZM128.29 102.29C128.47 102.11 128.72 102 129 102C129.55 102 130 102.45 130 103C130 103.28 129.89 103.53 129.71 103.71L124.71 108.71C124.53 108.89 124.28 109 124 109C123.72 109 123.47 108.89 123.29 108.71L120.29 105.71C120.11 105.53 120 105.28 120 105C120 104.45 120.45 104 121 104C121.28 104 121.53 104.11 121.71 104.29L124 106.59L128.29 102.29Z" fill="#039855"/>
<rect x="101.5" y="81.5" width="282" height="47" rx="7.5" stroke="#039855"/>
<rect x="101.5" y="185.5" width="282" height="47" rx="7.5" fill="#FEF4E6"/>
<path d="M148.557 214L145.33 202.364H147.176L149.443 211.375H149.551L151.909 202.364H153.739L156.097 211.381H156.205L158.466 202.364H160.318L157.085 214H155.318L152.869 205.284H152.778L150.33 214H148.557ZM163.463 214.193C162.91 214.193 162.41 214.091 161.963 213.886C161.516 213.678 161.162 213.377 160.901 212.983C160.643 212.589 160.514 212.106 160.514 211.534C160.514 211.042 160.609 210.636 160.798 210.318C160.988 210 161.243 209.748 161.565 209.562C161.887 209.377 162.247 209.237 162.645 209.142C163.043 209.047 163.448 208.975 163.861 208.926C164.384 208.866 164.808 208.816 165.134 208.778C165.459 208.737 165.696 208.67 165.844 208.58C165.991 208.489 166.065 208.341 166.065 208.136V208.097C166.065 207.6 165.925 207.216 165.645 206.943C165.368 206.67 164.955 206.534 164.406 206.534C163.834 206.534 163.384 206.661 163.054 206.915C162.728 207.165 162.503 207.443 162.378 207.75L160.781 207.386C160.971 206.856 161.247 206.428 161.611 206.102C161.978 205.773 162.401 205.534 162.878 205.386C163.355 205.235 163.857 205.159 164.384 205.159C164.732 205.159 165.101 205.201 165.491 205.284C165.885 205.364 166.253 205.511 166.594 205.727C166.938 205.943 167.221 206.252 167.44 206.653C167.66 207.051 167.77 207.568 167.77 208.205V214H166.111V212.807H166.043C165.933 213.027 165.768 213.242 165.548 213.455C165.329 213.667 165.046 213.843 164.702 213.983C164.357 214.123 163.944 214.193 163.463 214.193ZM163.832 212.83C164.302 212.83 164.704 212.737 165.037 212.551C165.374 212.366 165.63 212.123 165.804 211.824C165.982 211.521 166.071 211.197 166.071 210.852V209.727C166.01 209.788 165.893 209.845 165.719 209.898C165.548 209.947 165.353 209.991 165.134 210.028C164.914 210.062 164.7 210.095 164.491 210.125C164.283 210.152 164.109 210.174 163.969 210.193C163.639 210.235 163.338 210.305 163.065 210.403C162.796 210.502 162.58 210.644 162.418 210.83C162.259 211.011 162.179 211.254 162.179 211.557C162.179 211.977 162.334 212.295 162.645 212.511C162.955 212.723 163.351 212.83 163.832 212.83ZM170.033 214V205.273H171.675V206.659H171.766C171.925 206.189 172.205 205.82 172.607 205.551C173.012 205.278 173.47 205.142 173.982 205.142C174.088 205.142 174.213 205.146 174.357 205.153C174.504 205.161 174.62 205.17 174.703 205.182V206.807C174.635 206.788 174.514 206.767 174.339 206.744C174.165 206.718 173.991 206.705 173.817 206.705C173.415 206.705 173.057 206.79 172.743 206.96C172.432 207.127 172.186 207.36 172.004 207.659C171.822 207.955 171.732 208.292 171.732 208.67V214H170.033ZM177.872 208.818V214H176.173V205.273H177.804V206.693H177.912C178.113 206.231 178.427 205.86 178.855 205.58C179.287 205.299 179.83 205.159 180.486 205.159C181.08 205.159 181.601 205.284 182.048 205.534C182.495 205.78 182.842 206.148 183.088 206.636C183.334 207.125 183.457 207.729 183.457 208.449V214H181.759V208.653C181.759 208.021 181.594 207.527 181.264 207.17C180.935 206.811 180.482 206.631 179.906 206.631C179.512 206.631 179.162 206.716 178.855 206.886C178.552 207.057 178.312 207.307 178.134 207.636C177.959 207.962 177.872 208.356 177.872 208.818ZM185.736 214V205.273H187.435V214H185.736ZM186.594 203.926C186.298 203.926 186.045 203.828 185.832 203.631C185.624 203.43 185.52 203.191 185.52 202.915C185.52 202.634 185.624 202.396 185.832 202.199C186.045 201.998 186.298 201.898 186.594 201.898C186.889 201.898 187.141 201.998 187.349 202.199C187.562 202.396 187.668 202.634 187.668 202.915C187.668 203.191 187.562 203.43 187.349 203.631C187.141 203.828 186.889 203.926 186.594 203.926ZM191.419 208.818V214H189.72V205.273H191.351V206.693H191.459C191.66 206.231 191.974 205.86 192.402 205.58C192.834 205.299 193.377 205.159 194.033 205.159C194.627 205.159 195.148 205.284 195.595 205.534C196.042 205.78 196.389 206.148 196.635 206.636C196.881 207.125 197.004 207.729 197.004 208.449V214H195.305V208.653C195.305 208.021 195.141 207.527 194.811 207.17C194.482 206.811 194.029 206.631 193.453 206.631C193.059 206.631 192.709 206.716 192.402 206.886C192.099 207.057 191.858 207.307 191.68 207.636C191.506 207.962 191.419 208.356 191.419 208.818ZM202.942 217.455C202.249 217.455 201.652 217.364 201.152 217.182C200.656 217 200.25 216.759 199.936 216.46C199.622 216.161 199.387 215.833 199.232 215.477L200.692 214.875C200.794 215.042 200.93 215.218 201.101 215.403C201.275 215.593 201.51 215.754 201.805 215.886C202.105 216.019 202.489 216.085 202.959 216.085C203.603 216.085 204.135 215.928 204.555 215.614C204.976 215.303 205.186 214.807 205.186 214.125V212.409H205.078C204.976 212.595 204.828 212.801 204.635 213.028C204.446 213.256 204.184 213.453 203.851 213.619C203.518 213.786 203.084 213.869 202.55 213.869C201.86 213.869 201.239 213.708 200.686 213.386C200.137 213.061 199.701 212.581 199.379 211.949C199.061 211.312 198.902 210.53 198.902 209.602C198.902 208.674 199.059 207.879 199.374 207.216C199.692 206.553 200.127 206.045 200.68 205.693C201.233 205.337 201.86 205.159 202.561 205.159C203.103 205.159 203.54 205.25 203.874 205.432C204.207 205.61 204.466 205.818 204.652 206.057C204.841 206.295 204.987 206.506 205.089 206.688H205.214V205.273H206.879V214.193C206.879 214.943 206.705 215.559 206.357 216.04C206.008 216.521 205.536 216.877 204.942 217.108C204.351 217.339 203.684 217.455 202.942 217.455ZM202.925 212.46C203.413 212.46 203.826 212.347 204.163 212.119C204.504 211.888 204.762 211.559 204.936 211.131C205.114 210.699 205.203 210.182 205.203 209.58C205.203 208.992 205.116 208.475 204.942 208.028C204.768 207.581 204.512 207.233 204.175 206.983C203.838 206.729 203.421 206.602 202.925 206.602C202.413 206.602 201.987 206.735 201.646 207C201.305 207.261 201.048 207.617 200.874 208.068C200.703 208.519 200.618 209.023 200.618 209.58C200.618 210.152 200.705 210.653 200.879 211.085C201.054 211.517 201.311 211.854 201.652 212.097C201.997 212.339 202.421 212.46 202.925 212.46ZM213.392 214V205.273H215.023V206.693H215.131C215.313 206.212 215.61 205.837 216.023 205.568C216.436 205.295 216.93 205.159 217.506 205.159C218.089 205.159 218.578 205.295 218.972 205.568C219.369 205.841 219.663 206.216 219.852 206.693H219.943C220.152 206.227 220.483 205.856 220.938 205.58C221.392 205.299 221.934 205.159 222.562 205.159C223.354 205.159 224 205.407 224.5 205.903C225.004 206.4 225.256 207.148 225.256 208.148V214H223.557V208.307C223.557 207.716 223.396 207.288 223.074 207.023C222.752 206.758 222.367 206.625 221.92 206.625C221.367 206.625 220.938 206.795 220.631 207.136C220.324 207.473 220.17 207.907 220.17 208.438V214H218.477V208.199C218.477 207.725 218.33 207.345 218.034 207.057C217.739 206.769 217.354 206.625 216.881 206.625C216.559 206.625 216.261 206.71 215.989 206.881C215.72 207.047 215.502 207.28 215.335 207.58C215.172 207.879 215.091 208.225 215.091 208.619V214H213.392ZM231.294 214.176C230.434 214.176 229.694 213.992 229.072 213.625C228.455 213.254 227.978 212.733 227.641 212.062C227.307 211.388 227.141 210.598 227.141 209.693C227.141 208.799 227.307 208.011 227.641 207.33C227.978 206.648 228.447 206.116 229.05 205.733C229.656 205.35 230.364 205.159 231.175 205.159C231.667 205.159 232.144 205.241 232.607 205.403C233.069 205.566 233.483 205.822 233.851 206.17C234.218 206.519 234.508 206.972 234.72 207.528C234.932 208.081 235.038 208.754 235.038 209.545V210.148H228.101V208.875H233.374C233.374 208.428 233.283 208.032 233.101 207.688C232.919 207.339 232.663 207.064 232.334 206.864C232.008 206.663 231.625 206.562 231.186 206.562C230.709 206.562 230.292 206.68 229.936 206.915C229.584 207.146 229.311 207.449 229.118 207.824C228.929 208.195 228.834 208.598 228.834 209.034V210.028C228.834 210.612 228.936 211.108 229.141 211.517C229.349 211.926 229.639 212.239 230.01 212.455C230.381 212.667 230.815 212.773 231.311 212.773C231.633 212.773 231.927 212.727 232.192 212.636C232.457 212.542 232.686 212.402 232.879 212.216C233.072 212.03 233.22 211.801 233.322 211.528L234.93 211.818C234.802 212.292 234.571 212.706 234.237 213.062C233.908 213.415 233.493 213.689 232.993 213.886C232.497 214.08 231.93 214.176 231.294 214.176ZM243.463 207.403L241.923 207.676C241.859 207.479 241.757 207.292 241.616 207.114C241.48 206.936 241.295 206.79 241.06 206.676C240.825 206.562 240.531 206.506 240.179 206.506C239.698 206.506 239.296 206.614 238.974 206.83C238.652 207.042 238.491 207.316 238.491 207.653C238.491 207.945 238.599 208.18 238.815 208.358C239.031 208.536 239.38 208.682 239.861 208.795L241.247 209.114C242.05 209.299 242.649 209.585 243.043 209.972C243.437 210.358 243.634 210.86 243.634 211.477C243.634 212 243.482 212.466 243.179 212.875C242.88 213.28 242.461 213.598 241.923 213.83C241.389 214.061 240.77 214.176 240.065 214.176C239.088 214.176 238.291 213.968 237.673 213.551C237.056 213.131 236.677 212.534 236.537 211.761L238.179 211.511C238.281 211.939 238.491 212.263 238.81 212.483C239.128 212.699 239.543 212.807 240.054 212.807C240.611 212.807 241.056 212.691 241.389 212.46C241.723 212.225 241.889 211.939 241.889 211.602C241.889 211.33 241.787 211.1 241.582 210.915C241.382 210.729 241.073 210.589 240.656 210.494L239.179 210.17C238.365 209.985 237.762 209.689 237.372 209.284C236.986 208.879 236.793 208.366 236.793 207.744C236.793 207.229 236.937 206.778 237.224 206.392C237.512 206.006 237.91 205.705 238.418 205.489C238.925 205.269 239.507 205.159 240.162 205.159C241.105 205.159 241.848 205.364 242.389 205.773C242.931 206.178 243.289 206.722 243.463 207.403ZM252.041 207.403L250.501 207.676C250.437 207.479 250.335 207.292 250.195 207.114C250.058 206.936 249.873 206.79 249.638 206.676C249.403 206.562 249.109 206.506 248.757 206.506C248.276 206.506 247.875 206.614 247.553 206.83C247.231 207.042 247.07 207.316 247.07 207.653C247.07 207.945 247.178 208.18 247.393 208.358C247.609 208.536 247.958 208.682 248.439 208.795L249.825 209.114C250.628 209.299 251.227 209.585 251.621 209.972C252.015 210.358 252.212 210.86 252.212 211.477C252.212 212 252.06 212.466 251.757 212.875C251.458 213.28 251.039 213.598 250.501 213.83C249.967 214.061 249.348 214.176 248.643 214.176C247.666 214.176 246.869 213.968 246.251 213.551C245.634 213.131 245.255 212.534 245.115 211.761L246.757 211.511C246.859 211.939 247.07 212.263 247.388 212.483C247.706 212.699 248.121 212.807 248.632 212.807C249.189 212.807 249.634 212.691 249.967 212.46C250.301 212.225 250.467 211.939 250.467 211.602C250.467 211.33 250.365 211.1 250.161 210.915C249.96 210.729 249.651 210.589 249.234 210.494L247.757 210.17C246.943 209.985 246.34 209.689 245.95 209.284C245.564 208.879 245.371 208.366 245.371 207.744C245.371 207.229 245.515 206.778 245.803 206.392C246.09 206.006 246.488 205.705 246.996 205.489C247.503 205.269 248.085 205.159 248.74 205.159C249.683 205.159 250.426 205.364 250.967 205.773C251.509 206.178 251.867 206.722 252.041 207.403ZM256.619 214.193C256.066 214.193 255.566 214.091 255.119 213.886C254.672 213.678 254.318 213.377 254.057 212.983C253.799 212.589 253.67 212.106 253.67 211.534C253.67 211.042 253.765 210.636 253.955 210.318C254.144 210 254.4 209.748 254.722 209.562C255.044 209.377 255.403 209.237 255.801 209.142C256.199 209.047 256.604 208.975 257.017 208.926C257.54 208.866 257.964 208.816 258.29 208.778C258.616 208.737 258.852 208.67 259 208.58C259.148 208.489 259.222 208.341 259.222 208.136V208.097C259.222 207.6 259.081 207.216 258.801 206.943C258.525 206.67 258.112 206.534 257.562 206.534C256.991 206.534 256.54 206.661 256.21 206.915C255.884 207.165 255.659 207.443 255.534 207.75L253.938 207.386C254.127 206.856 254.403 206.428 254.767 206.102C255.134 205.773 255.557 205.534 256.034 205.386C256.511 205.235 257.013 205.159 257.54 205.159C257.888 205.159 258.258 205.201 258.648 205.284C259.042 205.364 259.409 205.511 259.75 205.727C260.095 205.943 260.377 206.252 260.597 206.653C260.816 207.051 260.926 207.568 260.926 208.205V214H259.267V212.807H259.199C259.089 213.027 258.924 213.242 258.705 213.455C258.485 213.667 258.203 213.843 257.858 213.983C257.513 214.123 257.1 214.193 256.619 214.193ZM256.989 212.83C257.458 212.83 257.86 212.737 258.193 212.551C258.53 212.366 258.786 212.123 258.96 211.824C259.138 211.521 259.227 211.197 259.227 210.852V209.727C259.167 209.788 259.049 209.845 258.875 209.898C258.705 209.947 258.509 209.991 258.29 210.028C258.07 210.062 257.856 210.095 257.648 210.125C257.439 210.152 257.265 210.174 257.125 210.193C256.795 210.235 256.494 210.305 256.222 210.403C255.953 210.502 255.737 210.644 255.574 210.83C255.415 211.011 255.335 211.254 255.335 211.557C255.335 211.977 255.491 212.295 255.801 212.511C256.112 212.723 256.508 212.83 256.989 212.83ZM266.848 217.455C266.155 217.455 265.558 217.364 265.058 217.182C264.562 217 264.157 216.759 263.842 216.46C263.528 216.161 263.293 215.833 263.138 215.477L264.598 214.875C264.7 215.042 264.837 215.218 265.007 215.403C265.181 215.593 265.416 215.754 265.712 215.886C266.011 216.019 266.395 216.085 266.865 216.085C267.509 216.085 268.041 215.928 268.462 215.614C268.882 215.303 269.092 214.807 269.092 214.125V212.409H268.984C268.882 212.595 268.734 212.801 268.541 213.028C268.352 213.256 268.09 213.453 267.757 213.619C267.424 213.786 266.99 213.869 266.456 213.869C265.767 213.869 265.145 213.708 264.592 213.386C264.043 213.061 263.607 212.581 263.286 211.949C262.967 211.312 262.808 210.53 262.808 209.602C262.808 208.674 262.965 207.879 263.28 207.216C263.598 206.553 264.034 206.045 264.587 205.693C265.14 205.337 265.767 205.159 266.467 205.159C267.009 205.159 267.446 205.25 267.78 205.432C268.113 205.61 268.373 205.818 268.558 206.057C268.748 206.295 268.893 206.506 268.996 206.688H269.121V205.273H270.786V214.193C270.786 214.943 270.611 215.559 270.263 216.04C269.914 216.521 269.443 216.877 268.848 217.108C268.257 217.339 267.59 217.455 266.848 217.455ZM266.831 212.46C267.32 212.46 267.732 212.347 268.07 212.119C268.411 211.888 268.668 211.559 268.842 211.131C269.02 210.699 269.109 210.182 269.109 209.58C269.109 208.992 269.022 208.475 268.848 208.028C268.674 207.581 268.418 207.233 268.081 206.983C267.744 206.729 267.327 206.602 266.831 206.602C266.32 206.602 265.893 206.735 265.553 207C265.212 207.261 264.954 207.617 264.78 208.068C264.609 208.519 264.524 209.023 264.524 209.58C264.524 210.152 264.611 210.653 264.786 211.085C264.96 211.517 265.217 211.854 265.558 212.097C265.903 212.339 266.327 212.46 266.831 212.46ZM276.825 214.176C275.965 214.176 275.225 213.992 274.604 213.625C273.986 213.254 273.509 212.733 273.172 212.062C272.839 211.388 272.672 210.598 272.672 209.693C272.672 208.799 272.839 208.011 273.172 207.33C273.509 206.648 273.979 206.116 274.581 205.733C275.187 205.35 275.895 205.159 276.706 205.159C277.198 205.159 277.676 205.241 278.138 205.403C278.6 205.566 279.015 205.822 279.382 206.17C279.75 206.519 280.039 206.972 280.251 207.528C280.464 208.081 280.57 208.754 280.57 209.545V210.148H273.632V208.875H278.905C278.905 208.428 278.814 208.032 278.632 207.688C278.45 207.339 278.195 207.064 277.865 206.864C277.539 206.663 277.157 206.562 276.717 206.562C276.24 206.562 275.823 206.68 275.467 206.915C275.115 207.146 274.842 207.449 274.649 207.824C274.46 208.195 274.365 208.598 274.365 209.034V210.028C274.365 210.612 274.467 211.108 274.672 211.517C274.88 211.926 275.17 212.239 275.541 212.455C275.912 212.667 276.346 212.773 276.842 212.773C277.164 212.773 277.458 212.727 277.723 212.636C277.988 212.542 278.217 212.402 278.411 212.216C278.604 212.03 278.751 211.801 278.854 211.528L280.462 211.818C280.333 212.292 280.102 212.706 279.768 213.062C279.439 213.415 279.024 213.689 278.524 213.886C278.028 214.08 277.462 214.176 276.825 214.176ZM283.574 214.108C283.263 214.108 282.996 213.998 282.773 213.778C282.549 213.555 282.438 213.286 282.438 212.972C282.438 212.661 282.549 212.396 282.773 212.176C282.996 211.953 283.263 211.841 283.574 211.841C283.884 211.841 284.152 211.953 284.375 212.176C284.598 212.396 284.71 212.661 284.71 212.972C284.71 213.18 284.657 213.371 284.551 213.545C284.449 213.716 284.312 213.852 284.142 213.955C283.972 214.057 283.782 214.108 283.574 214.108Z" fill="#F79009"/>
<path fill-rule="evenodd" clip-rule="evenodd" d="M132.848 213.5L132.858 213.49L125.862 201.49L125.852 201.5C125.682 201.2 125.373 201 125.003 201C124.633 201 124.333 201.2 124.153 201.5L124.143 201.49L117.148 213.49L117.158 213.5C117.068 213.65 117.008 213.81 117.008 214C117.008 214.55 117.458 215 118.007 215H131.998C132.548 215 132.998 214.55 132.998 214C132.998 213.81 132.938 213.65 132.848 213.5ZM126.002 212.99H124.003V210.99H126.002V212.99ZM124.003 209.99H126.002V204.99H124.003V209.99Z" fill="#F79009"/>
<rect x="101.5" y="185.5" width="282" height="47" rx="7.5" stroke="#F79009"/>
<rect x="420.5" y="81.5" width="282" height="47" rx="7.5" fill="#E9F2FE"/>
<path d="M467.034 98.3636V110H465.278V98.3636H467.034ZM471.153 104.818V110H469.455V101.273H471.085V102.693H471.193C471.394 102.231 471.708 101.86 472.136 101.58C472.568 101.299 473.112 101.159 473.767 101.159C474.362 101.159 474.883 101.284 475.33 101.534C475.777 101.78 476.123 102.148 476.369 102.636C476.616 103.125 476.739 103.729 476.739 104.449V110H475.04V104.653C475.04 104.021 474.875 103.527 474.545 103.17C474.216 102.811 473.763 102.631 473.188 102.631C472.794 102.631 472.443 102.716 472.136 102.886C471.833 103.057 471.593 103.307 471.415 103.636C471.241 103.962 471.153 104.356 471.153 104.818ZM483.17 101.273V102.636H478.239V101.273H483.17ZM479.591 110V100.261C479.591 99.7159 479.71 99.2633 479.949 98.9034C480.188 98.5398 480.504 98.2689 480.898 98.0909C481.292 97.9091 481.72 97.8182 482.182 97.8182C482.523 97.8182 482.814 97.8466 483.057 97.9034C483.299 97.9564 483.479 98.0057 483.597 98.0511L483.199 99.4261C483.119 99.4034 483.017 99.3769 482.892 99.3466C482.767 99.3125 482.616 99.2955 482.438 99.2955C482.025 99.2955 481.729 99.3977 481.551 99.6023C481.377 99.8068 481.29 100.102 481.29 100.489V110H479.591ZM488.256 110.176C487.438 110.176 486.723 109.989 486.114 109.614C485.504 109.239 485.03 108.714 484.693 108.04C484.356 107.366 484.188 106.578 484.188 105.676C484.188 104.771 484.356 103.979 484.693 103.301C485.03 102.623 485.504 102.097 486.114 101.722C486.723 101.347 487.438 101.159 488.256 101.159C489.074 101.159 489.788 101.347 490.398 101.722C491.008 102.097 491.481 102.623 491.818 103.301C492.155 103.979 492.324 104.771 492.324 105.676C492.324 106.578 492.155 107.366 491.818 108.04C491.481 108.714 491.008 109.239 490.398 109.614C489.788 109.989 489.074 110.176 488.256 110.176ZM488.261 108.75C488.792 108.75 489.231 108.61 489.58 108.33C489.928 108.049 490.186 107.676 490.352 107.21C490.523 106.744 490.608 106.231 490.608 105.67C490.608 105.114 490.523 104.602 490.352 104.136C490.186 103.667 489.928 103.29 489.58 103.006C489.231 102.722 488.792 102.58 488.261 102.58C487.727 102.58 487.284 102.722 486.932 103.006C486.583 103.29 486.324 103.667 486.153 104.136C485.987 104.602 485.903 105.114 485.903 105.67C485.903 106.231 485.987 106.744 486.153 107.21C486.324 107.676 486.583 108.049 486.932 108.33C487.284 108.61 487.727 108.75 488.261 108.75ZM498.455 110V101.273H500.085V102.693H500.193C500.375 102.212 500.672 101.837 501.085 101.568C501.498 101.295 501.992 101.159 502.568 101.159C503.152 101.159 503.64 101.295 504.034 101.568C504.432 101.841 504.725 102.216 504.915 102.693H505.006C505.214 102.227 505.545 101.856 506 101.58C506.455 101.299 506.996 101.159 507.625 101.159C508.417 101.159 509.062 101.407 509.562 101.903C510.066 102.4 510.318 103.148 510.318 104.148V110H508.619V104.307C508.619 103.716 508.458 103.288 508.136 103.023C507.814 102.758 507.43 102.625 506.983 102.625C506.43 102.625 506 102.795 505.693 103.136C505.386 103.473 505.233 103.907 505.233 104.438V110H503.54V104.199C503.54 103.725 503.392 103.345 503.097 103.057C502.801 102.769 502.417 102.625 501.943 102.625C501.621 102.625 501.324 102.71 501.051 102.881C500.782 103.047 500.564 103.28 500.398 103.58C500.235 103.879 500.153 104.225 500.153 104.619V110H498.455ZM516.357 110.176C515.497 110.176 514.756 109.992 514.135 109.625C513.518 109.254 513.04 108.733 512.703 108.062C512.37 107.388 512.203 106.598 512.203 105.693C512.203 104.799 512.37 104.011 512.703 103.33C513.04 102.648 513.51 102.116 514.112 101.733C514.718 101.35 515.427 101.159 516.237 101.159C516.73 101.159 517.207 101.241 517.669 101.403C518.131 101.566 518.546 101.822 518.913 102.17C519.281 102.519 519.571 102.972 519.783 103.528C519.995 104.081 520.101 104.754 520.101 105.545V106.148H513.163V104.875H518.436C518.436 104.428 518.345 104.032 518.163 103.688C517.982 103.339 517.726 103.064 517.396 102.864C517.071 102.663 516.688 102.562 516.249 102.562C515.771 102.562 515.355 102.68 514.999 102.915C514.646 103.146 514.374 103.449 514.18 103.824C513.991 104.195 513.896 104.598 513.896 105.034V106.028C513.896 106.612 513.999 107.108 514.203 107.517C514.411 107.926 514.701 108.239 515.072 108.455C515.444 108.667 515.877 108.773 516.374 108.773C516.696 108.773 516.989 108.727 517.254 108.636C517.519 108.542 517.749 108.402 517.942 108.216C518.135 108.03 518.283 107.801 518.385 107.528L519.993 107.818C519.864 108.292 519.633 108.706 519.3 109.062C518.97 109.415 518.555 109.689 518.055 109.886C517.559 110.08 516.993 110.176 516.357 110.176ZM528.526 103.403L526.986 103.676C526.921 103.479 526.819 103.292 526.679 103.114C526.543 102.936 526.357 102.79 526.122 102.676C525.887 102.562 525.594 102.506 525.241 102.506C524.76 102.506 524.359 102.614 524.037 102.83C523.715 103.042 523.554 103.316 523.554 103.653C523.554 103.945 523.662 104.18 523.878 104.358C524.094 104.536 524.442 104.682 524.923 104.795L526.31 105.114C527.113 105.299 527.711 105.585 528.105 105.972C528.499 106.358 528.696 106.86 528.696 107.477C528.696 108 528.545 108.466 528.241 108.875C527.942 109.28 527.524 109.598 526.986 109.83C526.452 110.061 525.832 110.176 525.128 110.176C524.151 110.176 523.353 109.968 522.736 109.551C522.118 109.131 521.74 108.534 521.599 107.761L523.241 107.511C523.344 107.939 523.554 108.263 523.872 108.483C524.19 108.699 524.605 108.807 525.116 108.807C525.673 108.807 526.118 108.691 526.452 108.46C526.785 108.225 526.952 107.939 526.952 107.602C526.952 107.33 526.849 107.1 526.645 106.915C526.444 106.729 526.135 106.589 525.719 106.494L524.241 106.17C523.427 105.985 522.825 105.689 522.435 105.284C522.048 104.879 521.855 104.366 521.855 103.744C521.855 103.229 521.999 102.778 522.287 102.392C522.575 102.006 522.973 101.705 523.48 101.489C523.988 101.269 524.569 101.159 525.224 101.159C526.168 101.159 526.91 101.364 527.452 101.773C527.993 102.178 528.351 102.722 528.526 103.403ZM537.104 103.403L535.564 103.676C535.5 103.479 535.397 103.292 535.257 103.114C535.121 102.936 534.935 102.79 534.7 102.676C534.465 102.562 534.172 102.506 533.82 102.506C533.339 102.506 532.937 102.614 532.615 102.83C532.293 103.042 532.132 103.316 532.132 103.653C532.132 103.945 532.24 104.18 532.456 104.358C532.672 104.536 533.02 104.682 533.501 104.795L534.888 105.114C535.691 105.299 536.289 105.585 536.683 105.972C537.077 106.358 537.274 106.86 537.274 107.477C537.274 108 537.123 108.466 536.82 108.875C536.52 109.28 536.102 109.598 535.564 109.83C535.03 110.061 534.411 110.176 533.706 110.176C532.729 110.176 531.931 109.968 531.314 109.551C530.696 109.131 530.318 108.534 530.178 107.761L531.82 107.511C531.922 107.939 532.132 108.263 532.45 108.483C532.768 108.699 533.183 108.807 533.695 108.807C534.251 108.807 534.696 108.691 535.03 108.46C535.363 108.225 535.53 107.939 535.53 107.602C535.53 107.33 535.428 107.1 535.223 106.915C535.022 106.729 534.714 106.589 534.297 106.494L532.82 106.17C532.005 105.985 531.403 105.689 531.013 105.284C530.626 104.879 530.433 104.366 530.433 103.744C530.433 103.229 530.577 102.778 530.865 102.392C531.153 102.006 531.551 101.705 532.058 101.489C532.566 101.269 533.147 101.159 533.803 101.159C534.746 101.159 535.488 101.364 536.03 101.773C536.571 102.178 536.929 102.722 537.104 103.403ZM541.682 110.193C541.129 110.193 540.629 110.091 540.182 109.886C539.735 109.678 539.381 109.377 539.119 108.983C538.862 108.589 538.733 108.106 538.733 107.534C538.733 107.042 538.828 106.636 539.017 106.318C539.206 106 539.462 105.748 539.784 105.562C540.106 105.377 540.466 105.237 540.864 105.142C541.261 105.047 541.667 104.975 542.08 104.926C542.602 104.866 543.027 104.816 543.352 104.778C543.678 104.737 543.915 104.67 544.062 104.58C544.21 104.489 544.284 104.341 544.284 104.136V104.097C544.284 103.6 544.144 103.216 543.864 102.943C543.587 102.67 543.174 102.534 542.625 102.534C542.053 102.534 541.602 102.661 541.273 102.915C540.947 103.165 540.722 103.443 540.597 103.75L539 103.386C539.189 102.856 539.466 102.428 539.83 102.102C540.197 101.773 540.619 101.534 541.097 101.386C541.574 101.235 542.076 101.159 542.602 101.159C542.951 101.159 543.32 101.201 543.71 101.284C544.104 101.364 544.472 101.511 544.812 101.727C545.157 101.943 545.439 102.252 545.659 102.653C545.879 103.051 545.989 103.568 545.989 104.205V110H544.33V108.807H544.261C544.152 109.027 543.987 109.242 543.767 109.455C543.547 109.667 543.265 109.843 542.92 109.983C542.576 110.123 542.163 110.193 541.682 110.193ZM542.051 108.83C542.521 108.83 542.922 108.737 543.256 108.551C543.593 108.366 543.848 108.123 544.023 107.824C544.201 107.521 544.29 107.197 544.29 106.852V105.727C544.229 105.788 544.112 105.845 543.938 105.898C543.767 105.947 543.572 105.991 543.352 106.028C543.133 106.062 542.919 106.095 542.71 106.125C542.502 106.152 542.328 106.174 542.188 106.193C541.858 106.235 541.557 106.305 541.284 106.403C541.015 106.502 540.799 106.644 540.636 106.83C540.477 107.011 540.398 107.254 540.398 107.557C540.398 107.977 540.553 108.295 540.864 108.511C541.174 108.723 541.57 108.83 542.051 108.83ZM551.911 113.455C551.217 113.455 550.621 113.364 550.121 113.182C549.625 113 549.219 112.759 548.905 112.46C548.59 112.161 548.356 111.833 548.2 111.477L549.661 110.875C549.763 111.042 549.899 111.218 550.07 111.403C550.244 111.593 550.479 111.754 550.774 111.886C551.073 112.019 551.458 112.085 551.928 112.085C552.571 112.085 553.104 111.928 553.524 111.614C553.945 111.303 554.155 110.807 554.155 110.125V108.409H554.047C553.945 108.595 553.797 108.801 553.604 109.028C553.414 109.256 553.153 109.453 552.82 109.619C552.486 109.786 552.053 109.869 551.518 109.869C550.829 109.869 550.208 109.708 549.655 109.386C549.106 109.061 548.67 108.581 548.348 107.949C548.03 107.312 547.871 106.53 547.871 105.602C547.871 104.674 548.028 103.879 548.342 103.216C548.661 102.553 549.096 102.045 549.649 101.693C550.202 101.337 550.829 101.159 551.53 101.159C552.071 101.159 552.509 101.25 552.842 101.432C553.176 101.61 553.435 101.818 553.621 102.057C553.81 102.295 553.956 102.506 554.058 102.688H554.183V101.273H555.848V110.193C555.848 110.943 555.674 111.559 555.325 112.04C554.977 112.521 554.505 112.877 553.911 113.108C553.32 113.339 552.653 113.455 551.911 113.455ZM551.893 108.46C552.382 108.46 552.795 108.347 553.132 108.119C553.473 107.888 553.731 107.559 553.905 107.131C554.083 106.699 554.172 106.182 554.172 105.58C554.172 104.992 554.085 104.475 553.911 104.028C553.736 103.581 553.481 103.233 553.143 102.983C552.806 102.729 552.39 102.602 551.893 102.602C551.382 102.602 550.956 102.735 550.615 103C550.274 103.261 550.017 103.617 549.842 104.068C549.672 104.519 549.587 105.023 549.587 105.58C549.587 106.152 549.674 106.653 549.848 107.085C550.022 107.517 550.28 107.854 550.621 108.097C550.965 108.339 551.39 108.46 551.893 108.46ZM561.888 110.176C561.028 110.176 560.287 109.992 559.666 109.625C559.049 109.254 558.571 108.733 558.234 108.062C557.901 107.388 557.734 106.598 557.734 105.693C557.734 104.799 557.901 104.011 558.234 103.33C558.571 102.648 559.041 102.116 559.643 101.733C560.25 101.35 560.958 101.159 561.768 101.159C562.261 101.159 562.738 101.241 563.2 101.403C563.662 101.566 564.077 101.822 564.445 102.17C564.812 102.519 565.102 102.972 565.314 103.528C565.526 104.081 565.632 104.754 565.632 105.545V106.148H558.695V104.875H563.967C563.967 104.428 563.876 104.032 563.695 103.688C563.513 103.339 563.257 103.064 562.928 102.864C562.602 102.663 562.219 102.562 561.78 102.562C561.303 102.562 560.886 102.68 560.53 102.915C560.178 103.146 559.905 103.449 559.712 103.824C559.522 104.195 559.428 104.598 559.428 105.034V106.028C559.428 106.612 559.53 107.108 559.734 107.517C559.943 107.926 560.232 108.239 560.604 108.455C560.975 108.667 561.409 108.773 561.905 108.773C562.227 108.773 562.52 108.727 562.786 108.636C563.051 108.542 563.28 108.402 563.473 108.216C563.666 108.03 563.814 107.801 563.916 107.528L565.524 107.818C565.395 108.292 565.164 108.706 564.831 109.062C564.501 109.415 564.087 109.689 563.587 109.886C563.09 110.08 562.524 110.176 561.888 110.176ZM568.636 110.108C568.326 110.108 568.059 109.998 567.835 109.778C567.612 109.555 567.5 109.286 567.5 108.972C567.5 108.661 567.612 108.396 567.835 108.176C568.059 107.953 568.326 107.841 568.636 107.841C568.947 107.841 569.214 107.953 569.438 108.176C569.661 108.396 569.773 108.661 569.773 108.972C569.773 109.18 569.72 109.371 569.614 109.545C569.511 109.716 569.375 109.852 569.205 109.955C569.034 110.057 568.845 110.108 568.636 110.108Z" fill="#217CF5"/>
<path fill-rule="evenodd" clip-rule="evenodd" d="M444 97C439.58 97 436 100.58 436 105C436 109.42 439.58 113 444 113C448.42 113 452 109.42 452 105C452 100.58 448.42 97 444 97ZM445 100V102H443V100H445ZM442 109V110H446V109H445V103H442V104H443V109H442Z" fill="#217CF5"/>
<rect x="420.5" y="81.5" width="282" height="47" rx="7.5" stroke="#217CF5"/>
<rect x="420.5" y="185.5" width="282" height="47" rx="7.5" fill="#FBEAE9"/>
<path d="M469.045 215H465.278V203.364H469.165C470.305 203.364 471.284 203.597 472.102 204.062C472.92 204.525 473.547 205.189 473.983 206.057C474.422 206.92 474.642 207.956 474.642 209.165C474.642 210.377 474.42 211.419 473.977 212.29C473.538 213.161 472.902 213.831 472.068 214.301C471.235 214.767 470.227 215 469.045 215ZM467.034 213.466H468.949C469.835 213.466 470.572 213.299 471.159 212.966C471.746 212.629 472.186 212.142 472.477 211.506C472.769 210.866 472.915 210.085 472.915 209.165C472.915 208.252 472.769 207.477 472.477 206.841C472.189 206.205 471.759 205.722 471.188 205.392C470.616 205.062 469.905 204.898 469.057 204.898H467.034V213.466ZM479.229 215.193C478.676 215.193 478.176 215.091 477.729 214.886C477.282 214.678 476.928 214.377 476.666 213.983C476.409 213.589 476.28 213.106 476.28 212.534C476.28 212.042 476.375 211.636 476.564 211.318C476.753 211 477.009 210.748 477.331 210.562C477.653 210.377 478.013 210.237 478.411 210.142C478.808 210.047 479.214 209.975 479.626 209.926C480.149 209.866 480.573 209.816 480.899 209.778C481.225 209.737 481.462 209.67 481.609 209.58C481.757 209.489 481.831 209.341 481.831 209.136V209.097C481.831 208.6 481.691 208.216 481.411 207.943C481.134 207.67 480.721 207.534 480.172 207.534C479.6 207.534 479.149 207.661 478.82 207.915C478.494 208.165 478.268 208.443 478.143 208.75L476.547 208.386C476.736 207.856 477.013 207.428 477.376 207.102C477.744 206.773 478.166 206.534 478.643 206.386C479.121 206.235 479.623 206.159 480.149 206.159C480.498 206.159 480.867 206.201 481.257 206.284C481.651 206.364 482.018 206.511 482.359 206.727C482.704 206.943 482.986 207.252 483.206 207.653C483.426 208.051 483.536 208.568 483.536 209.205V215H481.876V213.807H481.808C481.698 214.027 481.534 214.242 481.314 214.455C481.094 214.667 480.812 214.843 480.467 214.983C480.123 215.123 479.71 215.193 479.229 215.193ZM479.598 213.83C480.068 213.83 480.469 213.737 480.803 213.551C481.14 213.366 481.395 213.123 481.57 212.824C481.748 212.521 481.837 212.197 481.837 211.852V210.727C481.776 210.788 481.659 210.845 481.484 210.898C481.314 210.947 481.119 210.991 480.899 211.028C480.679 211.062 480.465 211.095 480.257 211.125C480.049 211.152 479.875 211.174 479.734 211.193C479.405 211.235 479.104 211.305 478.831 211.403C478.562 211.502 478.346 211.644 478.183 211.83C478.024 212.011 477.945 212.254 477.945 212.557C477.945 212.977 478.1 213.295 478.411 213.511C478.721 213.723 479.117 213.83 479.598 213.83ZM487.497 209.818V215H485.798V206.273H487.429V207.693H487.537C487.738 207.231 488.052 206.86 488.48 206.58C488.912 206.299 489.455 206.159 490.111 206.159C490.705 206.159 491.226 206.284 491.673 206.534C492.12 206.78 492.467 207.148 492.713 207.636C492.959 208.125 493.082 208.729 493.082 209.449V215H491.384V209.653C491.384 209.021 491.219 208.527 490.889 208.17C490.56 207.811 490.107 207.631 489.531 207.631C489.137 207.631 488.787 207.716 488.48 207.886C488.177 208.057 487.937 208.307 487.759 208.636C487.584 208.962 487.497 209.356 487.497 209.818ZM499.02 218.455C498.327 218.455 497.73 218.364 497.23 218.182C496.734 218 496.329 217.759 496.014 217.46C495.7 217.161 495.465 216.833 495.31 216.477L496.77 215.875C496.872 216.042 497.009 216.218 497.179 216.403C497.353 216.593 497.588 216.754 497.884 216.886C498.183 217.019 498.567 217.085 499.037 217.085C499.681 217.085 500.213 216.928 500.634 216.614C501.054 216.303 501.264 215.807 501.264 215.125V213.409H501.156C501.054 213.595 500.906 213.801 500.713 214.028C500.524 214.256 500.262 214.453 499.929 214.619C499.596 214.786 499.162 214.869 498.628 214.869C497.938 214.869 497.317 214.708 496.764 214.386C496.215 214.061 495.779 213.581 495.457 212.949C495.139 212.312 494.98 211.53 494.98 210.602C494.98 209.674 495.137 208.879 495.452 208.216C495.77 207.553 496.205 207.045 496.759 206.693C497.312 206.337 497.938 206.159 498.639 206.159C499.181 206.159 499.618 206.25 499.952 206.432C500.285 206.61 500.545 206.818 500.73 207.057C500.92 207.295 501.065 207.506 501.168 207.688H501.293V206.273H502.957V215.193C502.957 215.943 502.783 216.559 502.435 217.04C502.086 217.521 501.615 217.877 501.02 218.108C500.429 218.339 499.762 218.455 499.02 218.455ZM499.003 213.46C499.491 213.46 499.904 213.347 500.241 213.119C500.582 212.888 500.84 212.559 501.014 212.131C501.192 211.699 501.281 211.182 501.281 210.58C501.281 209.992 501.194 209.475 501.02 209.028C500.846 208.581 500.59 208.233 500.253 207.983C499.916 207.729 499.499 207.602 499.003 207.602C498.491 207.602 498.065 207.735 497.724 208C497.384 208.261 497.126 208.617 496.952 209.068C496.781 209.519 496.696 210.023 496.696 210.58C496.696 211.152 496.783 211.653 496.957 212.085C497.132 212.517 497.389 212.854 497.73 213.097C498.075 213.339 498.499 213.46 499.003 213.46ZM508.997 215.176C508.137 215.176 507.397 214.992 506.776 214.625C506.158 214.254 505.681 213.733 505.344 213.062C505.01 212.388 504.844 211.598 504.844 210.693C504.844 209.799 505.01 209.011 505.344 208.33C505.681 207.648 506.151 207.116 506.753 206.733C507.359 206.35 508.067 206.159 508.878 206.159C509.37 206.159 509.848 206.241 510.31 206.403C510.772 206.566 511.187 206.822 511.554 207.17C511.921 207.519 512.211 207.972 512.423 208.528C512.635 209.081 512.741 209.754 512.741 210.545V211.148H505.804V209.875H511.077C511.077 209.428 510.986 209.032 510.804 208.688C510.622 208.339 510.366 208.064 510.037 207.864C509.711 207.663 509.329 207.562 508.889 207.562C508.412 207.562 507.995 207.68 507.639 207.915C507.287 208.146 507.014 208.449 506.821 208.824C506.632 209.195 506.537 209.598 506.537 210.034V211.028C506.537 211.612 506.639 212.108 506.844 212.517C507.052 212.926 507.342 213.239 507.713 213.455C508.084 213.667 508.518 213.773 509.014 213.773C509.336 213.773 509.63 213.727 509.895 213.636C510.16 213.542 510.389 213.402 510.582 213.216C510.776 213.03 510.923 212.801 511.026 212.528L512.634 212.818C512.505 213.292 512.274 213.706 511.94 214.062C511.611 214.415 511.196 214.689 510.696 214.886C510.2 215.08 509.634 215.176 508.997 215.176ZM514.626 215V206.273H516.268V207.659H516.359C516.518 207.189 516.799 206.82 517.2 206.551C517.606 206.278 518.064 206.142 518.575 206.142C518.681 206.142 518.806 206.146 518.95 206.153C519.098 206.161 519.214 206.17 519.297 206.182V207.807C519.229 207.788 519.107 207.767 518.933 207.744C518.759 207.718 518.585 207.705 518.411 207.705C518.009 207.705 517.651 207.79 517.337 207.96C517.026 208.127 516.78 208.36 516.598 208.659C516.416 208.955 516.325 209.292 516.325 209.67V215H514.626ZM525.001 215V206.273H526.632V207.693H526.74C526.922 207.212 527.219 206.837 527.632 206.568C528.045 206.295 528.539 206.159 529.115 206.159C529.698 206.159 530.187 206.295 530.581 206.568C530.979 206.841 531.272 207.216 531.462 207.693H531.553C531.761 207.227 532.092 206.856 532.547 206.58C533.001 206.299 533.543 206.159 534.172 206.159C534.964 206.159 535.609 206.407 536.109 206.903C536.613 207.4 536.865 208.148 536.865 209.148V215H535.166V209.307C535.166 208.716 535.005 208.288 534.683 208.023C534.361 207.758 533.977 207.625 533.53 207.625C532.977 207.625 532.547 207.795 532.24 208.136C531.933 208.473 531.78 208.907 531.78 209.438V215H530.087V209.199C530.087 208.725 529.939 208.345 529.643 208.057C529.348 207.769 528.964 207.625 528.49 207.625C528.168 207.625 527.871 207.71 527.598 207.881C527.329 208.047 527.111 208.28 526.945 208.58C526.782 208.879 526.7 209.225 526.7 209.619V215H525.001ZM542.903 215.176C542.044 215.176 541.303 214.992 540.682 214.625C540.064 214.254 539.587 213.733 539.25 213.062C538.917 212.388 538.75 211.598 538.75 210.693C538.75 209.799 538.917 209.011 539.25 208.33C539.587 207.648 540.057 207.116 540.659 206.733C541.265 206.35 541.973 206.159 542.784 206.159C543.277 206.159 543.754 206.241 544.216 206.403C544.678 206.566 545.093 206.822 545.46 207.17C545.828 207.519 546.117 207.972 546.33 208.528C546.542 209.081 546.648 209.754 546.648 210.545V211.148H539.71V209.875H544.983C544.983 209.428 544.892 209.032 544.71 208.688C544.528 208.339 544.273 208.064 543.943 207.864C543.617 207.663 543.235 207.562 542.795 207.562C542.318 207.562 541.902 207.68 541.545 207.915C541.193 208.146 540.92 208.449 540.727 208.824C540.538 209.195 540.443 209.598 540.443 210.034V211.028C540.443 211.612 540.545 212.108 540.75 212.517C540.958 212.926 541.248 213.239 541.619 213.455C541.991 213.667 542.424 213.773 542.92 213.773C543.242 213.773 543.536 213.727 543.801 213.636C544.066 213.542 544.295 213.402 544.489 213.216C544.682 213.03 544.83 212.801 544.932 212.528L546.54 212.818C546.411 213.292 546.18 213.706 545.847 214.062C545.517 214.415 545.102 214.689 544.602 214.886C544.106 215.08 543.54 215.176 542.903 215.176ZM555.072 208.403L553.533 208.676C553.468 208.479 553.366 208.292 553.226 208.114C553.089 207.936 552.904 207.79 552.669 207.676C552.434 207.562 552.141 207.506 551.788 207.506C551.307 207.506 550.906 207.614 550.584 207.83C550.262 208.042 550.101 208.316 550.101 208.653C550.101 208.945 550.209 209.18 550.425 209.358C550.641 209.536 550.989 209.682 551.47 209.795L552.857 210.114C553.66 210.299 554.258 210.585 554.652 210.972C555.046 211.358 555.243 211.86 555.243 212.477C555.243 213 555.091 213.466 554.788 213.875C554.489 214.28 554.071 214.598 553.533 214.83C552.999 215.061 552.379 215.176 551.675 215.176C550.697 215.176 549.9 214.968 549.283 214.551C548.665 214.131 548.286 213.534 548.146 212.761L549.788 212.511C549.891 212.939 550.101 213.263 550.419 213.483C550.737 213.699 551.152 213.807 551.663 213.807C552.22 213.807 552.665 213.691 552.999 213.46C553.332 213.225 553.499 212.939 553.499 212.602C553.499 212.33 553.396 212.1 553.192 211.915C552.991 211.729 552.682 211.589 552.266 211.494L550.788 211.17C549.974 210.985 549.372 210.689 548.982 210.284C548.595 209.879 548.402 209.366 548.402 208.744C548.402 208.229 548.546 207.778 548.834 207.392C549.122 207.006 549.519 206.705 550.027 206.489C550.535 206.269 551.116 206.159 551.771 206.159C552.714 206.159 553.457 206.364 553.999 206.773C554.54 207.178 554.898 207.722 555.072 208.403ZM563.651 208.403L562.111 208.676C562.046 208.479 561.944 208.292 561.804 208.114C561.668 207.936 561.482 207.79 561.247 207.676C561.012 207.562 560.719 207.506 560.366 207.506C559.885 207.506 559.484 207.614 559.162 207.83C558.84 208.042 558.679 208.316 558.679 208.653C558.679 208.945 558.787 209.18 559.003 209.358C559.219 209.536 559.567 209.682 560.048 209.795L561.435 210.114C562.238 210.299 562.836 210.585 563.23 210.972C563.624 211.358 563.821 211.86 563.821 212.477C563.821 213 563.67 213.466 563.366 213.875C563.067 214.28 562.649 214.598 562.111 214.83C561.577 215.061 560.957 215.176 560.253 215.176C559.276 215.176 558.478 214.968 557.861 214.551C557.243 214.131 556.865 213.534 556.724 212.761L558.366 212.511C558.469 212.939 558.679 213.263 558.997 213.483C559.315 213.699 559.73 213.807 560.241 213.807C560.798 213.807 561.243 213.691 561.577 213.46C561.91 213.225 562.077 212.939 562.077 212.602C562.077 212.33 561.974 212.1 561.77 211.915C561.569 211.729 561.26 211.589 560.844 211.494L559.366 211.17C558.552 210.985 557.95 210.689 557.56 210.284C557.173 209.879 556.98 209.366 556.98 208.744C556.98 208.229 557.124 207.778 557.412 207.392C557.7 207.006 558.098 206.705 558.605 206.489C559.113 206.269 559.694 206.159 560.349 206.159C561.293 206.159 562.035 206.364 562.577 206.773C563.118 207.178 563.476 207.722 563.651 208.403ZM568.229 215.193C567.676 215.193 567.176 215.091 566.729 214.886C566.282 214.678 565.928 214.377 565.666 213.983C565.409 213.589 565.28 213.106 565.28 212.534C565.28 212.042 565.375 211.636 565.564 211.318C565.753 211 566.009 210.748 566.331 210.562C566.653 210.377 567.013 210.237 567.411 210.142C567.808 210.047 568.214 209.975 568.626 209.926C569.149 209.866 569.573 209.816 569.899 209.778C570.225 209.737 570.462 209.67 570.609 209.58C570.757 209.489 570.831 209.341 570.831 209.136V209.097C570.831 208.6 570.691 208.216 570.411 207.943C570.134 207.67 569.721 207.534 569.172 207.534C568.6 207.534 568.149 207.661 567.82 207.915C567.494 208.165 567.268 208.443 567.143 208.75L565.547 208.386C565.736 207.856 566.013 207.428 566.376 207.102C566.744 206.773 567.166 206.534 567.643 206.386C568.121 206.235 568.623 206.159 569.149 206.159C569.498 206.159 569.867 206.201 570.257 206.284C570.651 206.364 571.018 206.511 571.359 206.727C571.704 206.943 571.986 207.252 572.206 207.653C572.426 208.051 572.536 208.568 572.536 209.205V215H570.876V213.807H570.808C570.698 214.027 570.534 214.242 570.314 214.455C570.094 214.667 569.812 214.843 569.467 214.983C569.123 215.123 568.71 215.193 568.229 215.193ZM568.598 213.83C569.068 213.83 569.469 213.737 569.803 213.551C570.14 213.366 570.395 213.123 570.57 212.824C570.748 212.521 570.837 212.197 570.837 211.852V210.727C570.776 210.788 570.659 210.845 570.484 210.898C570.314 210.947 570.119 210.991 569.899 211.028C569.679 211.062 569.465 211.095 569.257 211.125C569.049 211.152 568.875 211.174 568.734 211.193C568.405 211.235 568.104 211.305 567.831 211.403C567.562 211.502 567.346 211.644 567.183 211.83C567.024 212.011 566.945 212.254 566.945 212.557C566.945 212.977 567.1 213.295 567.411 213.511C567.721 213.723 568.117 213.83 568.598 213.83ZM578.457 218.455C577.764 218.455 577.168 218.364 576.668 218.182C576.171 218 575.766 217.759 575.452 217.46C575.137 217.161 574.902 216.833 574.747 216.477L576.207 215.875C576.31 216.042 576.446 216.218 576.616 216.403C576.791 216.593 577.026 216.754 577.321 216.886C577.62 217.019 578.005 217.085 578.474 217.085C579.118 217.085 579.651 216.928 580.071 216.614C580.491 216.303 580.702 215.807 580.702 215.125V213.409H580.594C580.491 213.595 580.344 213.801 580.151 214.028C579.961 214.256 579.7 214.453 579.366 214.619C579.033 214.786 578.599 214.869 578.065 214.869C577.376 214.869 576.755 214.708 576.202 214.386C575.652 214.061 575.217 213.581 574.895 212.949C574.577 212.312 574.418 211.53 574.418 210.602C574.418 209.674 574.575 208.879 574.889 208.216C575.207 207.553 575.643 207.045 576.196 206.693C576.749 206.337 577.376 206.159 578.077 206.159C578.618 206.159 579.056 206.25 579.389 206.432C579.723 206.61 579.982 206.818 580.168 207.057C580.357 207.295 580.503 207.506 580.605 207.688H580.73V206.273H582.395V215.193C582.395 215.943 582.221 216.559 581.872 217.04C581.524 217.521 581.052 217.877 580.457 218.108C579.866 218.339 579.2 218.455 578.457 218.455ZM578.44 213.46C578.929 213.46 579.342 213.347 579.679 213.119C580.02 212.888 580.277 212.559 580.452 212.131C580.63 211.699 580.719 211.182 580.719 210.58C580.719 209.992 580.632 209.475 580.457 209.028C580.283 208.581 580.027 208.233 579.69 207.983C579.353 207.729 578.937 207.602 578.44 207.602C577.929 207.602 577.503 207.735 577.162 208C576.821 208.261 576.563 208.617 576.389 209.068C576.219 209.519 576.134 210.023 576.134 210.58C576.134 211.152 576.221 211.653 576.395 212.085C576.569 212.517 576.827 212.854 577.168 213.097C577.512 213.339 577.937 213.46 578.44 213.46ZM588.435 215.176C587.575 215.176 586.834 214.992 586.213 214.625C585.596 214.254 585.118 213.733 584.781 213.062C584.448 212.388 584.281 211.598 584.281 210.693C584.281 209.799 584.448 209.011 584.781 208.33C585.118 207.648 585.588 207.116 586.19 206.733C586.796 206.35 587.505 206.159 588.315 206.159C588.808 206.159 589.285 206.241 589.747 206.403C590.209 206.566 590.624 206.822 590.991 207.17C591.359 207.519 591.649 207.972 591.861 208.528C592.073 209.081 592.179 209.754 592.179 210.545V211.148H585.241V209.875H590.514C590.514 209.428 590.423 209.032 590.241 208.688C590.06 208.339 589.804 208.064 589.474 207.864C589.149 207.663 588.766 207.562 588.327 207.562C587.849 207.562 587.433 207.68 587.077 207.915C586.724 208.146 586.452 208.449 586.259 208.824C586.069 209.195 585.974 209.598 585.974 210.034V211.028C585.974 211.612 586.077 212.108 586.281 212.517C586.49 212.926 586.779 213.239 587.151 213.455C587.522 213.667 587.955 213.773 588.452 213.773C588.774 213.773 589.067 213.727 589.332 213.636C589.598 213.542 589.827 213.402 590.02 213.216C590.213 213.03 590.361 212.801 590.463 212.528L592.071 212.818C591.942 213.292 591.711 213.706 591.378 214.062C591.048 214.415 590.634 214.689 590.134 214.886C589.637 215.08 589.071 215.176 588.435 215.176ZM595.183 215.108C594.873 215.108 594.606 214.998 594.382 214.778C594.159 214.555 594.047 214.286 594.047 213.972C594.047 213.661 594.159 213.396 594.382 213.176C594.606 212.953 594.873 212.841 595.183 212.841C595.494 212.841 595.761 212.953 595.984 213.176C596.208 213.396 596.32 213.661 596.32 213.972C596.32 214.18 596.267 214.371 596.161 214.545C596.058 214.716 595.922 214.852 595.751 214.955C595.581 215.057 595.392 215.108 595.183 215.108Z" fill="#D92D20"/>
<path fill-rule="evenodd" clip-rule="evenodd" d="M444.003 201.004C439.586 201.004 436.008 204.582 436.008 208.999C436.008 213.416 439.586 216.994 444.003 216.994C448.42 216.994 451.998 213.416 451.998 208.999C451.998 204.582 448.42 201.004 444.003 201.004ZM443.003 213.996V211.997H445.002V213.996H443.003ZM443.003 204.002V210.998H445.002V204.002H443.003Z" fill="#D92D20"/>
<rect x="420.5" y="185.5" width="282" height="47" rx="7.5" stroke="#D92D20"/>
<path d="M106.83 62.4545C106.778 62.0227 106.571 61.6875 106.207 61.4489C105.844 61.2102 105.398 61.0909 104.869 61.0909C104.483 61.0909 104.145 61.1534 103.855 61.2784C103.568 61.4034 103.344 61.5753 103.182 61.794C103.023 62.0128 102.943 62.2614 102.943 62.5398C102.943 62.7727 102.999 62.973 103.109 63.1406C103.223 63.3054 103.368 63.4432 103.544 63.554C103.72 63.6619 103.905 63.7514 104.098 63.8224C104.291 63.8906 104.469 63.946 104.631 63.9886L105.517 64.2273C105.744 64.2869 105.997 64.3693 106.276 64.4744C106.557 64.5795 106.825 64.723 107.081 64.9048C107.339 65.0838 107.553 65.3139 107.72 65.5952C107.888 65.8764 107.972 66.2216 107.972 66.6307C107.972 67.1023 107.848 67.5284 107.601 67.9091C107.357 68.2898 106.999 68.5923 106.527 68.8168C106.058 69.0412 105.489 69.1534 104.818 69.1534C104.193 69.1534 103.652 69.0526 103.195 68.8509C102.74 68.6491 102.382 68.3679 102.121 68.0071C101.862 67.6463 101.716 67.2273 101.682 66.75H102.773C102.801 67.0795 102.912 67.3523 103.105 67.5682C103.301 67.7812 103.548 67.9403 103.847 68.0455C104.148 68.1477 104.472 68.1989 104.818 68.1989C105.222 68.1989 105.584 68.1335 105.905 68.0028C106.226 67.8693 106.48 67.6847 106.668 67.4489C106.855 67.2102 106.949 66.9318 106.949 66.6136C106.949 66.3239 106.868 66.0881 106.706 65.9062C106.544 65.7244 106.331 65.5767 106.067 65.4631C105.803 65.3494 105.517 65.25 105.21 65.1648L104.136 64.858C103.455 64.6619 102.915 64.3821 102.517 64.0185C102.119 63.6548 101.92 63.179 101.92 62.5909C101.92 62.1023 102.053 61.6761 102.317 61.3125C102.584 60.946 102.942 60.6619 103.391 60.4602C103.842 60.2557 104.347 60.1534 104.903 60.1534C105.466 60.1534 105.966 60.2543 106.403 60.456C106.841 60.6548 107.188 60.9276 107.443 61.2741C107.702 61.6207 107.838 62.0142 107.852 62.4545H106.83ZM113.698 66.3239V62.4545H114.703V69H113.698V67.892H113.63C113.476 68.2244 113.238 68.5071 112.914 68.7401C112.59 68.9702 112.181 69.0852 111.686 69.0852C111.277 69.0852 110.914 68.9957 110.596 68.8168C110.277 68.6349 110.027 68.3622 109.846 67.9986C109.664 67.6321 109.573 67.1705 109.573 66.6136V62.4545H110.578V66.5455C110.578 67.0227 110.712 67.4034 110.979 67.6875C111.249 67.9716 111.593 68.1136 112.01 68.1136C112.26 68.1136 112.515 68.0497 112.773 67.9219C113.034 67.794 113.253 67.598 113.429 67.3338C113.608 67.0696 113.698 66.733 113.698 66.3239ZM119.205 69.1364C118.591 69.1364 118.063 68.9915 117.619 68.7017C117.176 68.4119 116.835 68.0128 116.597 67.5043C116.358 66.9957 116.239 66.4148 116.239 65.7614C116.239 65.0966 116.361 64.5099 116.605 64.0014C116.852 63.4901 117.196 63.0909 117.636 62.804C118.08 62.5142 118.597 62.3693 119.188 62.3693C119.648 62.3693 120.062 62.4545 120.432 62.625C120.801 62.7955 121.104 63.0341 121.339 63.3409C121.575 63.6477 121.722 64.0057 121.778 64.4148H120.773C120.696 64.1165 120.526 63.8523 120.261 63.6222C120 63.3892 119.648 63.2727 119.205 63.2727C118.813 63.2727 118.469 63.375 118.173 63.5795C117.881 63.7812 117.652 64.0668 117.487 64.4361C117.325 64.8026 117.244 65.233 117.244 65.7273C117.244 66.233 117.324 66.6733 117.483 67.0483C117.645 67.4233 117.872 67.7145 118.165 67.9219C118.46 68.1293 118.807 68.233 119.205 68.233C119.466 68.233 119.703 68.1875 119.916 68.0966C120.129 68.0057 120.31 67.875 120.457 67.7045C120.605 67.5341 120.71 67.3295 120.773 67.0909H121.778C121.722 67.4773 121.581 67.8253 121.357 68.1349C121.135 68.4418 120.841 68.6861 120.474 68.8679C120.111 69.0469 119.688 69.1364 119.205 69.1364ZM125.908 69.1364C125.294 69.1364 124.766 68.9915 124.322 68.7017C123.879 68.4119 123.538 68.0128 123.3 67.5043C123.061 66.9957 122.942 66.4148 122.942 65.7614C122.942 65.0966 123.064 64.5099 123.308 64.0014C123.555 63.4901 123.899 63.0909 124.339 62.804C124.783 62.5142 125.3 62.3693 125.891 62.3693C126.351 62.3693 126.766 62.4545 127.135 62.625C127.504 62.7955 127.807 63.0341 128.043 63.3409C128.278 63.6477 128.425 64.0057 128.482 64.4148H127.476C127.399 64.1165 127.229 63.8523 126.964 63.6222C126.703 63.3892 126.351 63.2727 125.908 63.2727C125.516 63.2727 125.172 63.375 124.876 63.5795C124.584 63.7812 124.355 64.0668 124.19 64.4361C124.028 64.8026 123.947 65.233 123.947 65.7273C123.947 66.233 124.027 66.6733 124.186 67.0483C124.348 67.4233 124.575 67.7145 124.868 67.9219C125.163 68.1293 125.51 68.233 125.908 68.233C126.169 68.233 126.406 68.1875 126.619 68.0966C126.832 68.0057 127.013 67.875 127.161 67.7045C127.308 67.5341 127.413 67.3295 127.476 67.0909H128.482C128.425 67.4773 128.284 67.8253 128.06 68.1349C127.838 68.4418 127.544 68.6861 127.178 68.8679C126.814 69.0469 126.391 69.1364 125.908 69.1364ZM132.696 69.1364C132.065 69.1364 131.521 68.9972 131.064 68.7188C130.609 68.4375 130.259 68.0455 130.011 67.5426C129.767 67.0369 129.645 66.4489 129.645 65.7784C129.645 65.108 129.767 64.517 130.011 64.0057C130.259 63.4915 130.602 63.0909 131.043 62.804C131.486 62.5142 132.003 62.3693 132.594 62.3693C132.935 62.3693 133.271 62.4261 133.604 62.5398C133.936 62.6534 134.239 62.8381 134.511 63.0938C134.784 63.3466 135.001 63.6818 135.163 64.0994C135.325 64.517 135.406 65.0312 135.406 65.642V66.0682H130.361V65.1989H134.384C134.384 64.8295 134.31 64.5 134.162 64.2102C134.017 63.9205 133.81 63.6918 133.54 63.5241C133.273 63.3565 132.957 63.2727 132.594 63.2727C132.193 63.2727 131.847 63.3722 131.554 63.571C131.264 63.767 131.041 64.0227 130.885 64.3381C130.729 64.6534 130.651 64.9915 130.651 65.3523V65.9318C130.651 66.4261 130.736 66.8452 130.906 67.1889C131.08 67.5298 131.32 67.7898 131.626 67.9688C131.933 68.1449 132.29 68.233 132.696 68.233C132.96 68.233 133.199 68.196 133.412 68.1222C133.628 68.0455 133.814 67.9318 133.97 67.7812C134.126 67.6278 134.247 67.4375 134.332 67.2102L135.304 67.483C135.202 67.8125 135.03 68.1023 134.788 68.3523C134.547 68.5994 134.249 68.7926 133.893 68.9318C133.538 69.0682 133.139 69.1364 132.696 69.1364ZM141.572 63.9205L140.669 64.1761C140.612 64.0256 140.528 63.8793 140.418 63.7372C140.31 63.5923 140.162 63.473 139.974 63.3793C139.787 63.2855 139.547 63.2386 139.254 63.2386C138.854 63.2386 138.52 63.331 138.253 63.5156C137.989 63.6974 137.857 63.929 137.857 64.2102C137.857 64.4602 137.947 64.6577 138.129 64.8026C138.311 64.9474 138.595 65.0682 138.982 65.1648L139.953 65.4034C140.538 65.5455 140.974 65.7628 141.261 66.0554C141.548 66.3452 141.692 66.7187 141.692 67.1761C141.692 67.5511 141.584 67.8864 141.368 68.1818C141.155 68.4773 140.857 68.7102 140.473 68.8807C140.089 69.0511 139.643 69.1364 139.135 69.1364C138.467 69.1364 137.915 68.9915 137.477 68.7017C137.04 68.4119 136.763 67.9886 136.646 67.4318L137.601 67.1932C137.692 67.5455 137.864 67.8097 138.116 67.9858C138.372 68.1619 138.706 68.25 139.118 68.25C139.587 68.25 139.959 68.1506 140.234 67.9517C140.513 67.75 140.652 67.5085 140.652 67.2273C140.652 67 140.572 66.8097 140.413 66.6562C140.254 66.5 140.01 66.3835 139.68 66.3068L138.589 66.0511C137.99 65.9091 137.55 65.6889 137.268 65.3906C136.99 65.0895 136.851 64.7131 136.851 64.2614C136.851 63.892 136.955 63.5653 137.162 63.2812C137.372 62.9972 137.658 62.7741 138.018 62.6122C138.382 62.4503 138.794 62.3693 139.254 62.3693C139.902 62.3693 140.411 62.5114 140.78 62.7955C141.152 63.0795 141.416 63.4545 141.572 63.9205ZM147.842 63.9205L146.939 64.1761C146.882 64.0256 146.798 63.8793 146.687 63.7372C146.579 63.5923 146.431 63.473 146.244 63.3793C146.056 63.2855 145.816 63.2386 145.524 63.2386C145.123 63.2386 144.789 63.331 144.522 63.5156C144.258 63.6974 144.126 63.929 144.126 64.2102C144.126 64.4602 144.217 64.6577 144.399 64.8026C144.581 64.9474 144.865 65.0682 145.251 65.1648L146.223 65.4034C146.808 65.5455 147.244 65.7628 147.531 66.0554C147.818 66.3452 147.961 66.7187 147.961 67.1761C147.961 67.5511 147.853 67.8864 147.637 68.1818C147.424 68.4773 147.126 68.7102 146.743 68.8807C146.359 69.0511 145.913 69.1364 145.404 69.1364C144.737 69.1364 144.184 68.9915 143.747 68.7017C143.309 68.4119 143.032 67.9886 142.916 67.4318L143.87 67.1932C143.961 67.5455 144.133 67.8097 144.386 67.9858C144.642 68.1619 144.975 68.25 145.387 68.25C145.856 68.25 146.228 68.1506 146.504 67.9517C146.782 67.75 146.922 67.5085 146.922 67.2273C146.922 67 146.842 66.8097 146.683 66.6562C146.524 66.5 146.279 66.3835 145.95 66.3068L144.859 66.0511C144.26 65.9091 143.819 65.6889 143.538 65.3906C143.26 65.0895 143.12 64.7131 143.12 64.2614C143.12 63.892 143.224 63.5653 143.431 63.2812C143.642 62.9972 143.927 62.7741 144.288 62.6122C144.652 62.4503 145.064 62.3693 145.524 62.3693C146.172 62.3693 146.68 62.5114 147.049 62.7955C147.422 63.0795 147.686 63.4545 147.842 63.9205Z" fill="black"/>
<path d="M103.642 173L101.256 164.273H102.33L104.153 171.381H104.239L106.097 164.273H107.29L109.148 171.381H109.233L111.057 164.273H112.131L109.744 173H108.653L106.727 166.045H106.659L104.733 173H103.642ZM114.628 173.153C114.213 173.153 113.837 173.075 113.499 172.919C113.161 172.76 112.892 172.531 112.693 172.233C112.494 171.932 112.395 171.568 112.395 171.142C112.395 170.767 112.469 170.463 112.616 170.23C112.764 169.994 112.962 169.81 113.209 169.676C113.456 169.543 113.729 169.443 114.027 169.378C114.328 169.31 114.631 169.256 114.935 169.216C115.332 169.165 115.655 169.126 115.902 169.101C116.152 169.072 116.334 169.026 116.447 168.96C116.564 168.895 116.622 168.781 116.622 168.619V168.585C116.622 168.165 116.507 167.838 116.277 167.605C116.05 167.372 115.705 167.256 115.241 167.256C114.761 167.256 114.385 167.361 114.112 167.571C113.839 167.781 113.648 168.006 113.537 168.244L112.582 167.903C112.753 167.506 112.98 167.196 113.264 166.974C113.551 166.75 113.864 166.594 114.202 166.506C114.543 166.415 114.878 166.369 115.207 166.369C115.418 166.369 115.659 166.395 115.932 166.446C116.207 166.494 116.473 166.595 116.729 166.749C116.987 166.902 117.202 167.134 117.372 167.443C117.543 167.753 117.628 168.168 117.628 168.688V173H116.622V172.114H116.571C116.503 172.256 116.389 172.408 116.23 172.57C116.071 172.732 115.859 172.869 115.595 172.983C115.331 173.097 115.009 173.153 114.628 173.153ZM114.781 172.25C115.179 172.25 115.514 172.172 115.787 172.016C116.063 171.859 116.27 171.658 116.409 171.411C116.551 171.163 116.622 170.903 116.622 170.631V169.71C116.58 169.761 116.486 169.808 116.341 169.851C116.199 169.891 116.034 169.926 115.847 169.957C115.662 169.986 115.482 170.011 115.305 170.034C115.132 170.054 114.991 170.071 114.884 170.085C114.622 170.119 114.378 170.175 114.151 170.251C113.926 170.325 113.744 170.437 113.605 170.588C113.469 170.736 113.401 170.937 113.401 171.193C113.401 171.543 113.53 171.807 113.788 171.986C114.05 172.162 114.381 172.25 114.781 172.25ZM119.463 173V166.455H120.435V167.443H120.503C120.623 167.119 120.838 166.857 121.151 166.655C121.463 166.453 121.816 166.352 122.208 166.352C122.282 166.352 122.374 166.354 122.485 166.357C122.596 166.359 122.679 166.364 122.736 166.369V167.392C122.702 167.384 122.624 167.371 122.502 167.354C122.382 167.334 122.256 167.324 122.123 167.324C121.804 167.324 121.52 167.391 121.27 167.524C121.023 167.655 120.827 167.837 120.682 168.07C120.54 168.3 120.469 168.562 120.469 168.858V173H119.463ZM124.934 169.062V173H123.928V166.455H124.9V167.477H124.985C125.138 167.145 125.371 166.878 125.684 166.676C125.996 166.472 126.4 166.369 126.894 166.369C127.337 166.369 127.725 166.46 128.058 166.642C128.39 166.821 128.648 167.094 128.833 167.46C129.018 167.824 129.11 168.284 129.11 168.841V173H128.104V168.909C128.104 168.395 127.971 167.994 127.704 167.707C127.437 167.418 127.07 167.273 126.604 167.273C126.283 167.273 125.996 167.342 125.744 167.482C125.494 167.621 125.296 167.824 125.151 168.091C125.006 168.358 124.934 168.682 124.934 169.062ZM130.948 173V166.455H131.953V173H130.948ZM131.459 165.364C131.263 165.364 131.094 165.297 130.952 165.163C130.813 165.03 130.743 164.869 130.743 164.682C130.743 164.494 130.813 164.334 130.952 164.2C131.094 164.067 131.263 164 131.459 164C131.655 164 131.823 164.067 131.962 164.2C132.104 164.334 132.175 164.494 132.175 164.682C132.175 164.869 132.104 165.03 131.962 165.163C131.823 165.297 131.655 165.364 131.459 165.364ZM134.801 169.062V173H133.795V166.455H134.767V167.477H134.852C135.006 167.145 135.239 166.878 135.551 166.676C135.864 166.472 136.267 166.369 136.761 166.369C137.205 166.369 137.592 166.46 137.925 166.642C138.257 166.821 138.516 167.094 138.7 167.46C138.885 167.824 138.977 168.284 138.977 168.841V173H137.972V168.909C137.972 168.395 137.838 167.994 137.571 167.707C137.304 167.418 136.938 167.273 136.472 167.273C136.151 167.273 135.864 167.342 135.611 167.482C135.361 167.621 135.163 167.824 135.018 168.091C134.874 168.358 134.801 168.682 134.801 169.062ZM143.457 175.591C142.971 175.591 142.554 175.528 142.204 175.403C141.855 175.281 141.564 175.119 141.331 174.918C141.1 174.719 140.917 174.506 140.781 174.278L141.582 173.716C141.673 173.835 141.788 173.972 141.927 174.125C142.066 174.281 142.257 174.416 142.498 174.53C142.743 174.646 143.062 174.705 143.457 174.705C143.985 174.705 144.422 174.577 144.765 174.321C145.109 174.065 145.281 173.665 145.281 173.119V171.79H145.196C145.122 171.909 145.017 172.057 144.88 172.233C144.747 172.406 144.554 172.561 144.301 172.697C144.051 172.831 143.713 172.898 143.287 172.898C142.758 172.898 142.284 172.773 141.863 172.523C141.446 172.273 141.115 171.909 140.87 171.432C140.629 170.955 140.508 170.375 140.508 169.693C140.508 169.023 140.626 168.439 140.862 167.942C141.098 167.442 141.426 167.055 141.846 166.783C142.267 166.507 142.752 166.369 143.304 166.369C143.73 166.369 144.068 166.44 144.318 166.582C144.571 166.722 144.764 166.881 144.897 167.06C145.034 167.236 145.139 167.381 145.213 167.494H145.315V166.455H146.287V173.188C146.287 173.75 146.159 174.207 145.903 174.56C145.65 174.915 145.309 175.175 144.88 175.339C144.454 175.507 143.98 175.591 143.457 175.591ZM143.423 171.994C143.826 171.994 144.167 171.902 144.446 171.717C144.724 171.533 144.936 171.267 145.081 170.92C145.225 170.574 145.298 170.159 145.298 169.676C145.298 169.205 145.227 168.788 145.085 168.428C144.943 168.067 144.733 167.784 144.454 167.58C144.176 167.375 143.832 167.273 143.423 167.273C142.997 167.273 142.642 167.381 142.358 167.597C142.076 167.812 141.865 168.102 141.723 168.466C141.583 168.83 141.514 169.233 141.514 169.676C141.514 170.131 141.585 170.533 141.727 170.882C141.872 171.229 142.085 171.501 142.366 171.7C142.65 171.896 143.002 171.994 143.423 171.994Z" fill="black"/>
<path d="M422.114 60.2727V69H421.057V60.2727H422.114ZM425.102 65.0625V69H424.096V62.4545H425.068V63.4773H425.153C425.306 63.1449 425.539 62.8778 425.852 62.6761C426.164 62.4716 426.568 62.3693 427.062 62.3693C427.505 62.3693 427.893 62.4602 428.225 62.642C428.558 62.821 428.816 63.0938 429.001 63.4602C429.186 63.8239 429.278 64.2841 429.278 64.8409V69H428.272V64.9091C428.272 64.3949 428.139 63.9943 427.872 63.7074C427.605 63.4176 427.238 63.2727 426.772 63.2727C426.451 63.2727 426.164 63.3423 425.912 63.4815C425.662 63.6207 425.464 63.8239 425.319 64.0909C425.174 64.358 425.102 64.6818 425.102 65.0625ZM434.031 62.4545V63.3068H430.502V62.4545H434.031ZM431.559 69V61.5511C431.559 61.1761 431.647 60.8636 431.823 60.6136C431.999 60.3636 432.228 60.1761 432.509 60.0511C432.79 59.9261 433.087 59.8636 433.4 59.8636C433.647 59.8636 433.849 59.8835 434.005 59.9233C434.161 59.9631 434.278 60 434.354 60.0341L434.065 60.9034C434.013 60.8864 433.942 60.8651 433.852 60.8395C433.763 60.8139 433.647 60.8011 433.502 60.8011C433.17 60.8011 432.93 60.8849 432.782 61.0526C432.637 61.2202 432.565 61.4659 432.565 61.7898V69H431.559ZM437.83 69.1364C437.239 69.1364 436.72 68.9957 436.274 68.7145C435.831 68.4332 435.484 68.0398 435.234 67.5341C434.987 67.0284 434.864 66.4375 434.864 65.7614C434.864 65.0795 434.987 64.4844 435.234 63.9759C435.484 63.4673 435.831 63.0724 436.274 62.7912C436.72 62.5099 437.239 62.3693 437.83 62.3693C438.42 62.3693 438.938 62.5099 439.381 62.7912C439.827 63.0724 440.173 63.4673 440.42 63.9759C440.67 64.4844 440.795 65.0795 440.795 65.7614C440.795 66.4375 440.67 67.0284 440.42 67.5341C440.173 68.0398 439.827 68.4332 439.381 68.7145C438.938 68.9957 438.42 69.1364 437.83 69.1364ZM437.83 68.233C438.278 68.233 438.648 68.1179 438.938 67.8878C439.227 67.6577 439.442 67.3551 439.581 66.9801C439.72 66.6051 439.79 66.1989 439.79 65.7614C439.79 65.3239 439.72 64.9162 439.581 64.5384C439.442 64.1605 439.227 63.8551 438.938 63.6222C438.648 63.3892 438.278 63.2727 437.83 63.2727C437.381 63.2727 437.011 63.3892 436.722 63.6222C436.432 63.8551 436.217 64.1605 436.078 64.5384C435.939 64.9162 435.869 65.3239 435.869 65.7614C435.869 66.1989 435.939 66.6051 436.078 66.9801C436.217 67.3551 436.432 67.6577 436.722 67.8878C437.011 68.1179 437.381 68.233 437.83 68.233Z" fill="black"/>
<path d="M423.75 173H421.057V164.273H423.869C424.716 164.273 425.44 164.447 426.043 164.797C426.645 165.143 427.107 165.642 427.428 166.293C427.749 166.94 427.909 167.716 427.909 168.619C427.909 169.528 427.747 170.311 427.423 170.967C427.099 171.621 426.628 172.124 426.009 172.476C425.389 172.825 424.636 173 423.75 173ZM422.114 172.062H423.682C424.403 172.062 425.001 171.923 425.476 171.645C425.95 171.366 426.304 170.97 426.537 170.456C426.77 169.942 426.886 169.33 426.886 168.619C426.886 167.915 426.771 167.308 426.541 166.8C426.311 166.288 425.967 165.896 425.51 165.624C425.053 165.348 424.483 165.21 423.801 165.21H422.114V172.062ZM431.472 173.153C431.057 173.153 430.68 173.075 430.342 172.919C430.004 172.76 429.736 172.531 429.537 172.233C429.338 171.932 429.239 171.568 429.239 171.142C429.239 170.767 429.313 170.463 429.46 170.23C429.608 169.994 429.805 169.81 430.053 169.676C430.3 169.543 430.572 169.443 430.871 169.378C431.172 169.31 431.474 169.256 431.778 169.216C432.176 169.165 432.499 169.126 432.746 169.101C432.996 169.072 433.178 169.026 433.291 168.96C433.408 168.895 433.466 168.781 433.466 168.619V168.585C433.466 168.165 433.351 167.838 433.121 167.605C432.893 167.372 432.548 167.256 432.085 167.256C431.605 167.256 431.229 167.361 430.956 167.571C430.683 167.781 430.491 168.006 430.381 168.244L429.426 167.903C429.597 167.506 429.824 167.196 430.108 166.974C430.395 166.75 430.707 166.594 431.045 166.506C431.386 166.415 431.722 166.369 432.051 166.369C432.261 166.369 432.503 166.395 432.776 166.446C433.051 166.494 433.317 166.595 433.572 166.749C433.831 166.902 434.045 167.134 434.216 167.443C434.386 167.753 434.472 168.168 434.472 168.688V173H433.466V172.114H433.415C433.347 172.256 433.233 172.408 433.074 172.57C432.915 172.732 432.703 172.869 432.439 172.983C432.175 173.097 431.852 173.153 431.472 173.153ZM431.625 172.25C432.023 172.25 432.358 172.172 432.631 172.016C432.906 171.859 433.114 171.658 433.253 171.411C433.395 171.163 433.466 170.903 433.466 170.631V169.71C433.423 169.761 433.33 169.808 433.185 169.851C433.043 169.891 432.878 169.926 432.69 169.957C432.506 169.986 432.325 170.011 432.149 170.034C431.976 170.054 431.835 170.071 431.727 170.085C431.466 170.119 431.222 170.175 430.994 170.251C430.77 170.325 430.588 170.437 430.449 170.588C430.313 170.736 430.244 170.937 430.244 171.193C430.244 171.543 430.374 171.807 430.632 171.986C430.893 172.162 431.224 172.25 431.625 172.25ZM437.313 169.062V173H436.307V166.455H437.279V167.477H437.364C437.517 167.145 437.75 166.878 438.063 166.676C438.375 166.472 438.779 166.369 439.273 166.369C439.716 166.369 440.104 166.46 440.436 166.642C440.769 166.821 441.027 167.094 441.212 167.46C441.397 167.824 441.489 168.284 441.489 168.841V173H440.483V168.909C440.483 168.395 440.35 167.994 440.083 167.707C439.816 167.418 439.449 167.273 438.983 167.273C438.662 167.273 438.375 167.342 438.123 167.482C437.873 167.621 437.675 167.824 437.53 168.091C437.385 168.358 437.313 168.682 437.313 169.062ZM445.969 175.591C445.483 175.591 445.065 175.528 444.716 175.403C444.366 175.281 444.075 175.119 443.842 174.918C443.612 174.719 443.429 174.506 443.293 174.278L444.094 173.716C444.185 173.835 444.3 173.972 444.439 174.125C444.578 174.281 444.768 174.416 445.01 174.53C445.254 174.646 445.574 174.705 445.969 174.705C446.497 174.705 446.933 174.577 447.277 174.321C447.621 174.065 447.793 173.665 447.793 173.119V171.79H447.707C447.634 171.909 447.528 172.057 447.392 172.233C447.259 172.406 447.065 172.561 446.812 172.697C446.562 172.831 446.224 172.898 445.798 172.898C445.27 172.898 444.795 172.773 444.375 172.523C443.957 172.273 443.626 171.909 443.382 171.432C443.141 170.955 443.02 170.375 443.02 169.693C443.02 169.023 443.138 168.439 443.374 167.942C443.609 167.442 443.938 167.055 444.358 166.783C444.778 166.507 445.264 166.369 445.815 166.369C446.241 166.369 446.58 166.44 446.83 166.582C447.082 166.722 447.276 166.881 447.409 167.06C447.545 167.236 447.651 167.381 447.724 167.494H447.827V166.455H448.798V173.188C448.798 173.75 448.67 174.207 448.415 174.56C448.162 174.915 447.821 175.175 447.392 175.339C446.966 175.507 446.491 175.591 445.969 175.591ZM445.935 171.994C446.338 171.994 446.679 171.902 446.957 171.717C447.236 171.533 447.447 171.267 447.592 170.92C447.737 170.574 447.81 170.159 447.81 169.676C447.81 169.205 447.739 168.788 447.597 168.428C447.455 168.067 447.244 167.784 446.966 167.58C446.688 167.375 446.344 167.273 445.935 167.273C445.509 167.273 445.153 167.381 444.869 167.597C444.588 167.812 444.376 168.102 444.234 168.466C444.095 168.83 444.026 169.233 444.026 169.676C444.026 170.131 444.097 170.533 444.239 170.882C444.384 171.229 444.597 171.501 444.878 171.7C445.162 171.896 445.514 171.994 445.935 171.994ZM453.384 173.136C452.753 173.136 452.209 172.997 451.751 172.719C451.297 172.438 450.946 172.045 450.699 171.543C450.455 171.037 450.332 170.449 450.332 169.778C450.332 169.108 450.455 168.517 450.699 168.006C450.946 167.491 451.29 167.091 451.73 166.804C452.173 166.514 452.69 166.369 453.281 166.369C453.622 166.369 453.959 166.426 454.291 166.54C454.624 166.653 454.926 166.838 455.199 167.094C455.472 167.347 455.689 167.682 455.851 168.099C456.013 168.517 456.094 169.031 456.094 169.642V170.068H451.048V169.199H455.071C455.071 168.83 454.997 168.5 454.849 168.21C454.705 167.92 454.497 167.692 454.227 167.524C453.96 167.357 453.645 167.273 453.281 167.273C452.881 167.273 452.534 167.372 452.241 167.571C451.952 167.767 451.729 168.023 451.572 168.338C451.416 168.653 451.338 168.991 451.338 169.352V169.932C451.338 170.426 451.423 170.845 451.594 171.189C451.767 171.53 452.007 171.79 452.314 171.969C452.621 172.145 452.977 172.233 453.384 172.233C453.648 172.233 453.886 172.196 454.099 172.122C454.315 172.045 454.501 171.932 454.658 171.781C454.814 171.628 454.935 171.437 455.02 171.21L455.991 171.483C455.889 171.812 455.717 172.102 455.476 172.352C455.234 172.599 454.936 172.793 454.581 172.932C454.226 173.068 453.827 173.136 453.384 173.136ZM457.624 173V166.455H458.595V167.443H458.663C458.783 167.119 458.999 166.857 459.311 166.655C459.624 166.453 459.976 166.352 460.368 166.352C460.442 166.352 460.534 166.354 460.645 166.357C460.756 166.359 460.839 166.364 460.896 166.369V167.392C460.862 167.384 460.784 167.371 460.662 167.354C460.543 167.334 460.416 167.324 460.283 167.324C459.964 167.324 459.68 167.391 459.43 167.524C459.183 167.655 458.987 167.837 458.842 168.07C458.7 168.3 458.629 168.562 458.629 168.858V173H457.624Z" fill="black"/>
</svg>
