<svg width="804" height="372" viewBox="0 0 804 372" fill="none" xmlns="http://www.w3.org/2000/svg">
<rect width="804" height="372" fill="#F9FAFB"/>
<path d="M163.959 87V78.2727H167.155C167.774 78.2727 168.287 78.375 168.693 78.5795C169.099 78.7812 169.403 79.0554 169.605 79.402C169.807 79.7457 169.908 80.1335 169.908 80.5653C169.908 80.929 169.841 81.2358 169.707 81.4858C169.574 81.733 169.395 81.9318 169.17 82.0824C168.949 82.2301 168.705 82.3381 168.438 82.4062V82.4915C168.727 82.5057 169.01 82.5994 169.286 82.7727C169.564 82.9432 169.794 83.1861 169.976 83.5014C170.158 83.8168 170.249 84.2003 170.249 84.652C170.249 85.098 170.143 85.4986 169.933 85.8537C169.726 86.206 169.405 86.4858 168.97 86.6932C168.536 86.8977 167.98 87 167.304 87H163.959ZM165.276 85.8707H167.176C167.807 85.8707 168.259 85.7486 168.531 85.5043C168.804 85.2599 168.94 84.9545 168.94 84.5881C168.94 84.3125 168.871 84.0597 168.732 83.8295C168.592 83.5994 168.393 83.4162 168.135 83.2798C167.879 83.1435 167.575 83.0753 167.223 83.0753H165.276V85.8707ZM165.276 82.0483H167.04C167.335 82.0483 167.601 81.9915 167.837 81.8778C168.075 81.7642 168.264 81.6051 168.403 81.4006C168.545 81.1932 168.616 80.9489 168.616 80.6676C168.616 80.3068 168.49 80.0043 168.237 79.7599C167.984 79.5156 167.597 79.3935 167.074 79.3935H165.276V82.0483ZM173.613 87.1449C173.198 87.1449 172.823 87.0682 172.488 86.9148C172.153 86.7585 171.887 86.5327 171.691 86.2372C171.498 85.9418 171.401 85.5795 171.401 85.1506C171.401 84.7812 171.472 84.4773 171.614 84.2386C171.756 84 171.948 83.8111 172.19 83.6719C172.431 83.5327 172.701 83.4276 172.999 83.3565C173.298 83.2855 173.602 83.2315 173.911 83.1946C174.303 83.1491 174.621 83.1122 174.866 83.0838C175.11 83.0526 175.288 83.0028 175.398 82.9347C175.509 82.8665 175.565 82.7557 175.565 82.6023V82.5724C175.565 82.2003 175.46 81.9119 175.249 81.7074C175.042 81.5028 174.732 81.4006 174.32 81.4006C173.891 81.4006 173.553 81.4957 173.306 81.6861C173.062 81.8736 172.893 82.0824 172.799 82.3125L171.602 82.0398C171.744 81.642 171.951 81.321 172.224 81.0767C172.499 80.8295 172.816 80.6506 173.174 80.5398C173.532 80.4261 173.908 80.3693 174.303 80.3693C174.565 80.3693 174.842 80.4006 175.134 80.4631C175.43 80.5227 175.705 80.6335 175.961 80.7955C176.219 80.9574 176.431 81.1889 176.596 81.4901C176.761 81.7884 176.843 82.1761 176.843 82.6534V87H175.599V86.1051H175.548C175.465 86.2699 175.342 86.4318 175.177 86.5909C175.012 86.75 174.8 86.8821 174.542 86.9872C174.283 87.0923 173.974 87.1449 173.613 87.1449ZM173.89 86.1222C174.242 86.1222 174.543 86.0526 174.793 85.9134C175.046 85.7741 175.238 85.5923 175.369 85.3679C175.502 85.1406 175.569 84.8977 175.569 84.6392V83.7955C175.523 83.8409 175.435 83.8835 175.305 83.9233C175.177 83.9602 175.031 83.9929 174.866 84.0213C174.701 84.0469 174.54 84.071 174.384 84.0938C174.228 84.1136 174.097 84.1307 173.992 84.1449C173.745 84.1761 173.519 84.2287 173.315 84.3026C173.113 84.3764 172.951 84.483 172.829 84.6222C172.71 84.7585 172.65 84.9403 172.65 85.1676C172.65 85.483 172.766 85.7216 172.999 85.8835C173.232 86.0426 173.529 86.1222 173.89 86.1222ZM183.445 82.0526L182.29 82.2571C182.242 82.1094 182.165 81.9687 182.06 81.8352C181.958 81.7017 181.819 81.5923 181.642 81.5071C181.466 81.4219 181.246 81.3793 180.982 81.3793C180.621 81.3793 180.32 81.4602 180.078 81.6222C179.837 81.7812 179.716 81.9872 179.716 82.2401C179.716 82.4588 179.797 82.6349 179.959 82.7685C180.121 82.902 180.382 83.0114 180.743 83.0966L181.783 83.3352C182.385 83.4744 182.834 83.6889 183.13 83.9787C183.425 84.2685 183.573 84.6449 183.573 85.108C183.573 85.5 183.459 85.8494 183.232 86.1562C183.007 86.4602 182.694 86.6989 182.29 86.8722C181.89 87.0455 181.425 87.1321 180.897 87.1321C180.164 87.1321 179.566 86.9759 179.103 86.6634C178.64 86.348 178.355 85.9006 178.25 85.321L179.482 85.1335C179.559 85.4545 179.716 85.6974 179.955 85.8622C180.194 86.0241 180.505 86.1051 180.888 86.1051C181.306 86.1051 181.64 86.0185 181.89 85.8452C182.14 85.669 182.265 85.4545 182.265 85.2017C182.265 84.9972 182.188 84.8253 182.034 84.6861C181.884 84.5469 181.652 84.4418 181.34 84.3707L180.232 84.1278C179.621 83.9886 179.169 83.767 178.877 83.4631C178.587 83.1591 178.442 82.7741 178.442 82.3082C178.442 81.9219 178.55 81.5838 178.766 81.294C178.982 81.0043 179.28 80.7784 179.661 80.6165C180.042 80.4517 180.478 80.3693 180.969 80.3693C181.676 80.3693 182.233 80.5227 182.64 80.8295C183.046 81.1335 183.314 81.5412 183.445 82.0526ZM184.974 87V80.4545H186.248V87H184.974ZM185.617 79.4446C185.396 79.4446 185.205 79.3707 185.046 79.223C184.89 79.0724 184.812 78.8935 184.812 78.6861C184.812 78.4759 184.89 78.2969 185.046 78.1491C185.205 77.9986 185.396 77.9233 185.617 77.9233C185.839 77.9233 186.028 77.9986 186.184 78.1491C186.343 78.2969 186.423 78.4759 186.423 78.6861C186.423 78.8935 186.343 79.0724 186.184 79.223C186.028 79.3707 185.839 79.4446 185.617 79.4446ZM190.719 87.1321C190.086 87.1321 189.54 86.9886 189.083 86.7017C188.628 86.4119 188.279 86.0128 188.034 85.5043C187.79 84.9957 187.668 84.4134 187.668 83.7571C187.668 83.0923 187.793 82.5057 188.043 81.9972C188.293 81.4858 188.645 81.0866 189.1 80.7997C189.554 80.5128 190.09 80.3693 190.706 80.3693C191.203 80.3693 191.647 80.4616 192.036 80.6463C192.425 80.8281 192.739 81.0838 192.978 81.4134C193.219 81.7429 193.363 82.1278 193.408 82.5682H192.168C192.1 82.2614 191.944 81.9972 191.699 81.7756C191.458 81.554 191.134 81.4432 190.728 81.4432C190.373 81.4432 190.061 81.5369 189.794 81.7244C189.53 81.9091 189.324 82.1733 189.176 82.517C189.029 82.858 188.955 83.2614 188.955 83.7273C188.955 84.2045 189.027 84.6165 189.172 84.9631C189.317 85.3097 189.522 85.5781 189.786 85.7685C190.053 85.9588 190.367 86.054 190.728 86.054C190.969 86.054 191.188 86.0099 191.384 85.9219C191.583 85.831 191.749 85.7017 191.882 85.5341C192.019 85.3665 192.114 85.1648 192.168 84.929H193.408C193.363 85.3523 193.225 85.7301 192.995 86.0625C192.765 86.3949 192.456 86.6562 192.07 86.8466C191.686 87.0369 191.236 87.1321 190.719 87.1321Z" fill="#707070"/>
<rect x="163.5" y="94.5" width="479" height="35" rx="2.5" fill="white"/>
<path d="M183.753 110.5H182.608C182.54 110.171 182.422 109.881 182.252 109.632C182.086 109.383 181.883 109.174 181.643 109.004C181.406 108.832 181.143 108.703 180.854 108.616C180.564 108.53 180.263 108.487 179.949 108.487C179.376 108.487 178.858 108.632 178.393 108.921C177.931 109.21 177.564 109.637 177.29 110.2C177.019 110.763 176.884 111.454 176.884 112.273C176.884 113.091 177.019 113.782 177.29 114.346C177.564 114.909 177.931 115.335 178.393 115.624C178.858 115.914 179.376 116.058 179.949 116.058C180.263 116.058 180.564 116.015 180.854 115.929C181.143 115.843 181.406 115.715 181.643 115.546C181.883 115.373 182.086 115.163 182.252 114.913C182.422 114.661 182.54 114.372 182.608 114.045H183.753C183.667 114.529 183.51 114.961 183.282 115.343C183.054 115.724 182.771 116.049 182.433 116.317C182.094 116.581 181.714 116.783 181.292 116.922C180.874 117.06 180.426 117.129 179.949 117.129C179.143 117.129 178.425 116.932 177.798 116.538C177.17 116.144 176.676 115.584 176.316 114.858C175.956 114.132 175.776 113.27 175.776 112.273C175.776 111.276 175.956 110.414 176.316 109.688C176.676 108.961 177.17 108.401 177.798 108.007C178.425 107.613 179.143 107.416 179.949 107.416C180.426 107.416 180.874 107.485 181.292 107.624C181.714 107.762 182.094 107.966 182.433 108.233C182.771 108.498 183.054 108.821 183.282 109.203C183.51 109.581 183.667 110.014 183.753 110.5ZM186.545 112.734V117H185.455V107.545H186.545V111.017H186.637C186.803 110.651 187.052 110.36 187.385 110.145C187.72 109.926 188.167 109.817 188.724 109.817C189.207 109.817 189.63 109.914 189.993 110.108C190.356 110.298 190.638 110.592 190.838 110.989C191.041 111.383 191.143 111.885 191.143 112.494V117H190.053V112.568C190.053 112.005 189.907 111.569 189.615 111.262C189.325 110.951 188.924 110.795 188.41 110.795C188.053 110.795 187.733 110.871 187.449 111.022C187.169 111.172 186.948 111.393 186.785 111.682C186.625 111.971 186.545 112.322 186.545 112.734ZM196.017 117.148C195.376 117.148 194.815 116.995 194.331 116.691C193.851 116.386 193.476 115.96 193.205 115.412C192.937 114.864 192.803 114.224 192.803 113.491C192.803 112.753 192.937 112.108 193.205 111.557C193.476 111.006 193.851 110.578 194.331 110.274C194.815 109.969 195.376 109.817 196.017 109.817C196.657 109.817 197.217 109.969 197.697 110.274C198.18 110.578 198.556 111.006 198.823 111.557C199.094 112.108 199.23 112.753 199.23 113.491C199.23 114.224 199.094 114.864 198.823 115.412C198.556 115.96 198.18 116.386 197.697 116.691C197.217 116.995 196.657 117.148 196.017 117.148ZM196.017 116.169C196.503 116.169 196.903 116.044 197.217 115.795C197.531 115.546 197.763 115.218 197.914 114.812C198.065 114.406 198.14 113.965 198.14 113.491C198.14 113.018 198.065 112.576 197.914 112.167C197.763 111.757 197.531 111.426 197.217 111.174C196.903 110.922 196.503 110.795 196.017 110.795C195.53 110.795 195.13 110.922 194.816 111.174C194.502 111.426 194.27 111.757 194.119 112.167C193.968 112.576 193.893 113.018 193.893 113.491C193.893 113.965 193.968 114.406 194.119 114.812C194.27 115.218 194.502 115.546 194.816 115.795C195.13 116.044 195.53 116.169 196.017 116.169ZM203.773 117.148C203.133 117.148 202.572 116.995 202.088 116.691C201.608 116.386 201.233 115.96 200.962 115.412C200.694 114.864 200.56 114.224 200.56 113.491C200.56 112.753 200.694 112.108 200.962 111.557C201.233 111.006 201.608 110.578 202.088 110.274C202.572 109.969 203.133 109.817 203.773 109.817C204.414 109.817 204.974 109.969 205.454 110.274C205.937 110.578 206.312 111.006 206.58 111.557C206.851 112.108 206.986 112.753 206.986 113.491C206.986 114.224 206.851 114.864 206.58 115.412C206.312 115.96 205.937 116.386 205.454 116.691C204.974 116.995 204.414 117.148 203.773 117.148ZM203.773 116.169C204.26 116.169 204.66 116.044 204.974 115.795C205.288 115.546 205.52 115.218 205.671 114.812C205.822 114.406 205.897 113.965 205.897 113.491C205.897 113.018 205.822 112.576 205.671 112.167C205.52 111.757 205.288 111.426 204.974 111.174C204.66 110.922 204.26 110.795 203.773 110.795C203.287 110.795 202.887 110.922 202.573 111.174C202.259 111.426 202.027 111.757 201.876 112.167C201.725 112.576 201.65 113.018 201.65 113.491C201.65 113.965 201.725 114.406 201.876 114.812C202.027 115.218 202.259 115.546 202.573 115.795C202.887 116.044 203.287 116.169 203.773 116.169ZM213.672 111.497L212.694 111.774C212.632 111.611 212.541 111.453 212.421 111.299C212.304 111.142 212.144 111.012 211.941 110.911C211.738 110.809 211.478 110.759 211.161 110.759C210.727 110.759 210.365 110.859 210.076 111.059C209.79 111.256 209.647 111.506 209.647 111.811C209.647 112.082 209.745 112.296 209.942 112.453C210.139 112.61 210.447 112.741 210.865 112.845L211.918 113.104C212.552 113.258 213.024 113.493 213.335 113.81C213.646 114.124 213.801 114.529 213.801 115.024C213.801 115.43 213.685 115.794 213.451 116.114C213.22 116.434 212.897 116.686 212.481 116.871C212.066 117.055 211.583 117.148 211.032 117.148C210.308 117.148 209.71 116.991 209.236 116.677C208.762 116.363 208.462 115.904 208.336 115.301L209.37 115.043C209.468 115.424 209.654 115.71 209.928 115.901C210.205 116.092 210.567 116.188 211.013 116.188C211.521 116.188 211.924 116.08 212.223 115.864C212.524 115.646 212.675 115.384 212.675 115.08C212.675 114.833 212.589 114.627 212.417 114.461C212.244 114.292 211.98 114.165 211.623 114.082L210.441 113.805C209.791 113.652 209.314 113.413 209.01 113.09C208.708 112.764 208.557 112.356 208.557 111.866C208.557 111.466 208.67 111.112 208.894 110.805C209.122 110.497 209.431 110.255 209.822 110.08C210.216 109.904 210.662 109.817 211.161 109.817C211.863 109.817 212.413 109.971 212.814 110.278C213.217 110.586 213.503 110.992 213.672 111.497ZM218.415 117.148C217.731 117.148 217.142 116.997 216.646 116.695C216.154 116.391 215.774 115.966 215.506 115.421C215.241 114.873 215.109 114.236 215.109 113.51C215.109 112.784 215.241 112.143 215.506 111.589C215.774 111.032 216.146 110.598 216.623 110.288C217.103 109.974 217.664 109.817 218.304 109.817C218.673 109.817 219.038 109.878 219.398 110.001C219.758 110.125 220.086 110.325 220.381 110.602C220.677 110.875 220.912 111.239 221.087 111.691C221.263 112.143 221.351 112.701 221.351 113.362V113.824H215.885V112.882H220.243C220.243 112.482 220.163 112.125 220.003 111.811C219.846 111.497 219.621 111.249 219.329 111.068C219.039 110.886 218.698 110.795 218.304 110.795C217.87 110.795 217.494 110.903 217.177 111.119C216.863 111.331 216.622 111.608 216.453 111.95C216.283 112.291 216.199 112.657 216.199 113.048V113.676C216.199 114.212 216.291 114.666 216.476 115.038C216.663 115.407 216.923 115.689 217.256 115.883C217.588 116.074 217.974 116.169 218.415 116.169C218.701 116.169 218.959 116.129 219.19 116.049C219.424 115.966 219.626 115.843 219.795 115.68C219.964 115.513 220.095 115.307 220.187 115.061L221.24 115.357C221.129 115.714 220.943 116.027 220.681 116.298C220.42 116.566 220.096 116.775 219.712 116.926C219.327 117.074 218.895 117.148 218.415 117.148ZM227.366 119.659C227.181 119.659 227.017 119.644 226.872 119.613C226.727 119.585 226.627 119.558 226.572 119.53L226.849 118.57C227.113 118.637 227.347 118.662 227.551 118.643C227.754 118.625 227.934 118.534 228.091 118.371C228.251 118.211 228.397 117.951 228.529 117.591L228.732 117.037L226.11 109.909H227.292L229.249 115.56H229.323L231.281 109.909H232.462L229.453 118.034C229.317 118.4 229.149 118.703 228.949 118.944C228.749 119.187 228.517 119.367 228.252 119.484C227.991 119.601 227.695 119.659 227.366 119.659ZM236.527 117.148C235.887 117.148 235.325 116.995 234.842 116.691C234.362 116.386 233.987 115.96 233.716 115.412C233.448 114.864 233.314 114.224 233.314 113.491C233.314 112.753 233.448 112.108 233.716 111.557C233.987 111.006 234.362 110.578 234.842 110.274C235.325 109.969 235.887 109.817 236.527 109.817C237.167 109.817 237.728 109.969 238.208 110.274C238.691 110.578 239.066 111.006 239.334 111.557C239.605 112.108 239.74 112.753 239.74 113.491C239.74 114.224 239.605 114.864 239.334 115.412C239.066 115.96 238.691 116.386 238.208 116.691C237.728 116.995 237.167 117.148 236.527 117.148ZM236.527 116.169C237.014 116.169 237.414 116.044 237.728 115.795C238.041 115.546 238.274 115.218 238.425 114.812C238.575 114.406 238.651 113.965 238.651 113.491C238.651 113.018 238.575 112.576 238.425 112.167C238.274 111.757 238.041 111.426 237.728 111.174C237.414 110.922 237.014 110.795 236.527 110.795C236.041 110.795 235.641 110.922 235.327 111.174C235.013 111.426 234.781 111.757 234.63 112.167C234.479 112.576 234.404 113.018 234.404 113.491C234.404 113.965 234.479 114.406 234.63 114.812C234.781 115.218 235.013 115.546 235.327 115.795C235.641 116.044 236.041 116.169 236.527 116.169ZM245.872 114.101V109.909H246.962V117H245.872V115.8H245.798C245.632 116.16 245.374 116.466 245.023 116.718C244.672 116.968 244.229 117.092 243.693 117.092C243.25 117.092 242.856 116.995 242.511 116.801C242.167 116.605 241.896 116.309 241.699 115.915C241.502 115.518 241.403 115.018 241.403 114.415V109.909H242.493V114.341C242.493 114.858 242.638 115.27 242.927 115.578C243.219 115.886 243.592 116.04 244.044 116.04C244.315 116.04 244.59 115.971 244.87 115.832C245.154 115.694 245.391 115.481 245.581 115.195C245.775 114.909 245.872 114.544 245.872 114.101ZM248.957 117V109.909H250.01V110.98H250.084C250.213 110.629 250.447 110.345 250.785 110.126C251.124 109.908 251.505 109.798 251.93 109.798C252.01 109.798 252.11 109.8 252.23 109.803C252.35 109.806 252.441 109.811 252.503 109.817V110.925C252.466 110.915 252.381 110.902 252.249 110.883C252.119 110.862 251.982 110.851 251.838 110.851C251.493 110.851 251.185 110.923 250.915 111.068C250.647 111.209 250.434 111.406 250.277 111.659C250.124 111.908 250.047 112.193 250.047 112.513V117H248.957ZM260.608 109.909V110.832H256.786V109.909H260.608ZM257.93 117V108.93C257.93 108.524 258.026 108.186 258.217 107.915C258.407 107.644 258.655 107.441 258.96 107.305C259.265 107.17 259.586 107.102 259.925 107.102C260.192 107.102 260.411 107.124 260.58 107.167C260.75 107.21 260.876 107.25 260.959 107.287L260.645 108.229C260.589 108.21 260.513 108.187 260.414 108.159C260.319 108.132 260.192 108.118 260.036 108.118C259.675 108.118 259.415 108.209 259.255 108.39C259.098 108.572 259.02 108.838 259.02 109.189V117H257.93ZM262.135 117V109.909H263.224V117H262.135ZM262.689 108.727C262.476 108.727 262.293 108.655 262.139 108.51C261.989 108.366 261.913 108.192 261.913 107.989C261.913 107.786 261.989 107.612 262.139 107.467C262.293 107.322 262.476 107.25 262.689 107.25C262.901 107.25 263.083 107.322 263.234 107.467C263.387 107.612 263.464 107.786 263.464 107.989C263.464 108.192 263.387 108.366 263.234 108.51C263.083 108.655 262.901 108.727 262.689 108.727ZM266.309 107.545V117H265.22V107.545H266.309ZM271.278 117.148C270.595 117.148 270.005 116.997 269.51 116.695C269.017 116.391 268.637 115.966 268.369 115.421C268.105 114.873 267.972 114.236 267.972 113.51C267.972 112.784 268.105 112.143 268.369 111.589C268.637 111.032 269.01 110.598 269.487 110.288C269.967 109.974 270.527 109.817 271.167 109.817C271.536 109.817 271.901 109.878 272.261 110.001C272.621 110.125 272.949 110.325 273.244 110.602C273.54 110.875 273.775 111.239 273.951 111.691C274.126 112.143 274.214 112.701 274.214 113.362V113.824H268.748V112.882H273.106C273.106 112.482 273.026 112.125 272.866 111.811C272.709 111.497 272.484 111.249 272.192 111.068C271.903 110.886 271.561 110.795 271.167 110.795C270.733 110.795 270.358 110.903 270.041 111.119C269.727 111.331 269.485 111.608 269.316 111.95C269.147 112.291 269.062 112.657 269.062 113.048V113.676C269.062 114.212 269.154 114.666 269.339 115.038C269.527 115.407 269.787 115.689 270.119 115.883C270.451 116.074 270.838 116.169 271.278 116.169C271.564 116.169 271.823 116.129 272.053 116.049C272.287 115.966 272.489 115.843 272.658 115.68C272.827 115.513 272.958 115.307 273.051 115.061L274.103 115.357C273.992 115.714 273.806 116.027 273.544 116.298C273.283 116.566 272.96 116.775 272.575 116.926C272.19 117.074 271.758 117.148 271.278 117.148ZM276.665 117.074C276.437 117.074 276.242 116.992 276.079 116.829C275.916 116.666 275.834 116.471 275.834 116.243C275.834 116.015 275.916 115.82 276.079 115.657C276.242 115.493 276.437 115.412 276.665 115.412C276.893 115.412 277.088 115.493 277.252 115.657C277.415 115.82 277.496 116.015 277.496 116.243C277.496 116.394 277.458 116.532 277.381 116.658C277.307 116.785 277.207 116.886 277.081 116.963C276.958 117.037 276.819 117.074 276.665 117.074ZM280.245 117.074C280.018 117.074 279.822 116.992 279.659 116.829C279.496 116.666 279.414 116.471 279.414 116.243C279.414 116.015 279.496 115.82 279.659 115.657C279.822 115.493 280.018 115.412 280.245 115.412C280.473 115.412 280.668 115.493 280.832 115.657C280.995 115.82 281.076 116.015 281.076 116.243C281.076 116.394 281.038 116.532 280.961 116.658C280.887 116.785 280.787 116.886 280.661 116.963C280.538 117.037 280.399 117.074 280.245 117.074ZM283.825 117.074C283.598 117.074 283.402 116.992 283.239 116.829C283.076 116.666 282.994 116.471 282.994 116.243C282.994 116.015 283.076 115.82 283.239 115.657C283.402 115.493 283.598 115.412 283.825 115.412C284.053 115.412 284.249 115.493 284.412 115.657C284.575 115.82 284.656 116.015 284.656 116.243C284.656 116.394 284.618 116.532 284.541 116.658C284.467 116.785 284.367 116.886 284.241 116.963C284.118 117.037 283.979 117.074 283.825 117.074Z" fill="#C8C8C8"/>
<path d="M569.753 110.5H568.608C568.54 110.171 568.422 109.881 568.252 109.632C568.086 109.383 567.883 109.174 567.643 109.004C567.406 108.832 567.143 108.703 566.854 108.616C566.564 108.53 566.263 108.487 565.949 108.487C565.376 108.487 564.858 108.632 564.393 108.921C563.931 109.21 563.564 109.637 563.29 110.2C563.019 110.763 562.884 111.454 562.884 112.273C562.884 113.091 563.019 113.782 563.29 114.346C563.564 114.909 563.931 115.335 564.393 115.624C564.858 115.914 565.376 116.058 565.949 116.058C566.263 116.058 566.564 116.015 566.854 115.929C567.143 115.843 567.406 115.715 567.643 115.546C567.883 115.373 568.086 115.163 568.252 114.913C568.422 114.661 568.54 114.372 568.608 114.045H569.753C569.667 114.529 569.51 114.961 569.282 115.343C569.054 115.724 568.771 116.049 568.433 116.317C568.094 116.581 567.714 116.783 567.292 116.922C566.874 117.06 566.426 117.129 565.949 117.129C565.143 117.129 564.425 116.932 563.798 116.538C563.17 116.144 562.676 115.584 562.316 114.858C561.956 114.132 561.776 113.27 561.776 112.273C561.776 111.276 561.956 110.414 562.316 109.688C562.676 108.961 563.17 108.401 563.798 108.007C564.425 107.613 565.143 107.416 565.949 107.416C566.426 107.416 566.874 107.485 567.292 107.624C567.714 107.762 568.094 107.966 568.433 108.233C568.771 108.498 569.054 108.821 569.282 109.203C569.51 109.581 569.667 110.014 569.753 110.5ZM572.545 112.734V117H571.455V107.545H572.545V111.017H572.637C572.803 110.651 573.052 110.36 573.385 110.145C573.72 109.926 574.167 109.817 574.724 109.817C575.207 109.817 575.63 109.914 575.993 110.108C576.356 110.298 576.638 110.592 576.838 110.989C577.041 111.383 577.143 111.885 577.143 112.494V117H576.053V112.568C576.053 112.005 575.907 111.569 575.615 111.262C575.325 110.951 574.924 110.795 574.41 110.795C574.053 110.795 573.733 110.871 573.449 111.022C573.169 111.172 572.948 111.393 572.785 111.682C572.625 111.971 572.545 112.322 572.545 112.734ZM582.017 117.148C581.376 117.148 580.815 116.995 580.331 116.691C579.851 116.386 579.476 115.96 579.205 115.412C578.937 114.864 578.803 114.224 578.803 113.491C578.803 112.753 578.937 112.108 579.205 111.557C579.476 111.006 579.851 110.578 580.331 110.274C580.815 109.969 581.376 109.817 582.017 109.817C582.657 109.817 583.217 109.969 583.697 110.274C584.18 110.578 584.556 111.006 584.823 111.557C585.094 112.108 585.23 112.753 585.23 113.491C585.23 114.224 585.094 114.864 584.823 115.412C584.556 115.96 584.18 116.386 583.697 116.691C583.217 116.995 582.657 117.148 582.017 117.148ZM582.017 116.169C582.503 116.169 582.903 116.044 583.217 115.795C583.531 115.546 583.763 115.218 583.914 114.812C584.065 114.406 584.14 113.965 584.14 113.491C584.14 113.018 584.065 112.576 583.914 112.167C583.763 111.757 583.531 111.426 583.217 111.174C582.903 110.922 582.503 110.795 582.017 110.795C581.53 110.795 581.13 110.922 580.816 111.174C580.502 111.426 580.27 111.757 580.119 112.167C579.968 112.576 579.893 113.018 579.893 113.491C579.893 113.965 579.968 114.406 580.119 114.812C580.27 115.218 580.502 115.546 580.816 115.795C581.13 116.044 581.53 116.169 582.017 116.169ZM589.773 117.148C589.133 117.148 588.572 116.995 588.088 116.691C587.608 116.386 587.233 115.96 586.962 115.412C586.694 114.864 586.56 114.224 586.56 113.491C586.56 112.753 586.694 112.108 586.962 111.557C587.233 111.006 587.608 110.578 588.088 110.274C588.572 109.969 589.133 109.817 589.773 109.817C590.414 109.817 590.974 109.969 591.454 110.274C591.937 110.578 592.312 111.006 592.58 111.557C592.851 112.108 592.986 112.753 592.986 113.491C592.986 114.224 592.851 114.864 592.58 115.412C592.312 115.96 591.937 116.386 591.454 116.691C590.974 116.995 590.414 117.148 589.773 117.148ZM589.773 116.169C590.26 116.169 590.66 116.044 590.974 115.795C591.288 115.546 591.52 115.218 591.671 114.812C591.822 114.406 591.897 113.965 591.897 113.491C591.897 113.018 591.822 112.576 591.671 112.167C591.52 111.757 591.288 111.426 590.974 111.174C590.66 110.922 590.26 110.795 589.773 110.795C589.287 110.795 588.887 110.922 588.573 111.174C588.259 111.426 588.027 111.757 587.876 112.167C587.725 112.576 587.65 113.018 587.65 113.491C587.65 113.965 587.725 114.406 587.876 114.812C588.027 115.218 588.259 115.546 588.573 115.795C588.887 116.044 589.287 116.169 589.773 116.169ZM599.672 111.497L598.694 111.774C598.632 111.611 598.541 111.453 598.421 111.299C598.304 111.142 598.144 111.012 597.941 110.911C597.738 110.809 597.478 110.759 597.161 110.759C596.727 110.759 596.365 110.859 596.076 111.059C595.79 111.256 595.647 111.506 595.647 111.811C595.647 112.082 595.745 112.296 595.942 112.453C596.139 112.61 596.447 112.741 596.865 112.845L597.918 113.104C598.552 113.258 599.024 113.493 599.335 113.81C599.646 114.124 599.801 114.529 599.801 115.024C599.801 115.43 599.685 115.794 599.451 116.114C599.22 116.434 598.897 116.686 598.481 116.871C598.066 117.055 597.583 117.148 597.032 117.148C596.308 117.148 595.71 116.991 595.236 116.677C594.762 116.363 594.462 115.904 594.336 115.301L595.37 115.043C595.468 115.424 595.654 115.71 595.928 115.901C596.205 116.092 596.567 116.188 597.013 116.188C597.521 116.188 597.924 116.08 598.223 115.864C598.524 115.646 598.675 115.384 598.675 115.08C598.675 114.833 598.589 114.627 598.417 114.461C598.244 114.292 597.98 114.165 597.623 114.082L596.441 113.805C595.791 113.652 595.314 113.413 595.01 113.09C594.708 112.764 594.557 112.356 594.557 111.866C594.557 111.466 594.67 111.112 594.894 110.805C595.122 110.497 595.431 110.255 595.822 110.08C596.216 109.904 596.662 109.817 597.161 109.817C597.863 109.817 598.413 109.971 598.814 110.278C599.217 110.586 599.503 110.992 599.672 111.497ZM604.415 117.148C603.731 117.148 603.142 116.997 602.646 116.695C602.154 116.391 601.774 115.966 601.506 115.421C601.241 114.873 601.109 114.236 601.109 113.51C601.109 112.784 601.241 112.143 601.506 111.589C601.774 111.032 602.146 110.598 602.623 110.288C603.103 109.974 603.664 109.817 604.304 109.817C604.673 109.817 605.038 109.878 605.398 110.001C605.758 110.125 606.086 110.325 606.381 110.602C606.677 110.875 606.912 111.239 607.087 111.691C607.263 112.143 607.351 112.701 607.351 113.362V113.824H601.885V112.882H606.243C606.243 112.482 606.163 112.125 606.003 111.811C605.846 111.497 605.621 111.249 605.329 111.068C605.039 110.886 604.698 110.795 604.304 110.795C603.87 110.795 603.494 110.903 603.177 111.119C602.863 111.331 602.622 111.608 602.453 111.95C602.283 112.291 602.199 112.657 602.199 113.048V113.676C602.199 114.212 602.291 114.666 602.476 115.038C602.663 115.407 602.923 115.689 603.256 115.883C603.588 116.074 603.974 116.169 604.415 116.169C604.701 116.169 604.959 116.129 605.19 116.049C605.424 115.966 605.626 115.843 605.795 115.68C605.964 115.513 606.095 115.307 606.187 115.061L607.24 115.357C607.129 115.714 606.943 116.027 606.681 116.298C606.42 116.566 606.096 116.775 605.712 116.926C605.327 117.074 604.895 117.148 604.415 117.148ZM615.822 109.909V110.832H611.999V109.909H615.822ZM613.144 117V108.93C613.144 108.524 613.24 108.186 613.43 107.915C613.621 107.644 613.869 107.441 614.174 107.305C614.478 107.17 614.8 107.102 615.139 107.102C615.406 107.102 615.625 107.124 615.794 107.167C615.963 107.21 616.09 107.25 616.173 107.287L615.859 108.229C615.803 108.21 615.726 108.187 615.628 108.159C615.533 108.132 615.406 108.118 615.249 108.118C614.889 108.118 614.629 108.209 614.469 108.39C614.312 108.572 614.234 108.838 614.234 109.189V117H613.144ZM617.349 117V109.909H618.438V117H617.349ZM617.903 108.727C617.69 108.727 617.507 108.655 617.353 108.51C617.203 108.366 617.127 108.192 617.127 107.989C617.127 107.786 617.203 107.612 617.353 107.467C617.507 107.322 617.69 107.25 617.903 107.25C618.115 107.25 618.297 107.322 618.447 107.467C618.601 107.612 618.678 107.786 618.678 107.989C618.678 108.192 618.601 108.366 618.447 108.51C618.297 108.655 618.115 108.727 617.903 108.727ZM621.523 107.545V117H620.434V107.545H621.523ZM626.492 117.148C625.808 117.148 625.219 116.997 624.724 116.695C624.231 116.391 623.851 115.966 623.583 115.421C623.319 114.873 623.186 114.236 623.186 113.51C623.186 112.784 623.319 112.143 623.583 111.589C623.851 111.032 624.223 110.598 624.7 110.288C625.181 109.974 625.741 109.817 626.381 109.817C626.75 109.817 627.115 109.878 627.475 110.001C627.835 110.125 628.163 110.325 628.458 110.602C628.754 110.875 628.989 111.239 629.165 111.691C629.34 112.143 629.428 112.701 629.428 113.362V113.824H623.962V112.882H628.32C628.32 112.482 628.24 112.125 628.08 111.811C627.923 111.497 627.698 111.249 627.406 111.068C627.116 110.886 626.775 110.795 626.381 110.795C625.947 110.795 625.571 110.903 625.254 111.119C624.941 111.331 624.699 111.608 624.53 111.95C624.36 112.291 624.276 112.657 624.276 113.048V113.676C624.276 114.212 624.368 114.666 624.553 115.038C624.74 115.407 625.001 115.689 625.333 115.883C625.665 116.074 626.052 116.169 626.492 116.169C626.778 116.169 627.036 116.129 627.267 116.049C627.501 115.966 627.703 115.843 627.872 115.68C628.041 115.513 628.172 115.307 628.264 115.061L629.317 115.357C629.206 115.714 629.02 116.027 628.758 116.298C628.497 116.566 628.174 116.775 627.789 116.926C627.404 117.074 626.972 117.148 626.492 117.148Z" fill="#217CF5"/>
<rect x="163.5" y="94.5" width="479" height="35" rx="2.5" stroke="#DDDDDD"/>
<g clip-path="url(#clip0_932_40400)">
<rect x="115" y="112" width="48" height="1" fill="#C54600"/>
<g clip-path="url(#clip1_932_40400)">
<rect x="115" y="100" width="24" height="24" rx="12" fill="#C54600"/>
<path d="M128.183 107.273V116H127.126V108.381H127.075L124.944 109.795V108.722L127.126 107.273H128.183Z" fill="white"/>
</g>
</g>
<g clip-path="url(#clip2_932_40400)">
<rect x="682.273" y="112" width="1" height="51.2727" transform="rotate(90 682.273 112)" fill="#C54600"/>
<g clip-path="url(#clip3_932_40400)">
<rect x="658.273" y="100" width="24" height="24" rx="12" fill="#C54600"/>
<path d="M667.544 116V115.233L670.425 112.08C670.763 111.71 671.041 111.389 671.26 111.116C671.479 110.841 671.641 110.582 671.746 110.341C671.854 110.097 671.908 109.841 671.908 109.574C671.908 109.267 671.834 109.001 671.686 108.777C671.541 108.553 671.342 108.379 671.089 108.257C670.837 108.135 670.553 108.074 670.237 108.074C669.902 108.074 669.609 108.143 669.359 108.283C669.112 108.419 668.92 108.611 668.784 108.858C668.651 109.105 668.584 109.395 668.584 109.727H667.578C667.578 109.216 667.696 108.767 667.932 108.381C668.168 107.994 668.489 107.693 668.895 107.477C669.304 107.261 669.763 107.153 670.271 107.153C670.783 107.153 671.236 107.261 671.631 107.477C672.026 107.693 672.335 107.984 672.56 108.351C672.784 108.717 672.896 109.125 672.896 109.574C672.896 109.895 672.838 110.209 672.722 110.516C672.608 110.82 672.409 111.159 672.125 111.534C671.844 111.906 671.453 112.361 670.953 112.898L668.993 114.994V115.062H673.05V116H667.544Z" fill="white"/>
</g>
</g>
<path d="M80.0568 60V51.2727H85.2898V52.2102H81.1136V55.1591H84.8977V56.0966H81.1136V60H80.0568ZM86.9634 60V53.4545H87.9691V60H86.9634ZM87.4748 52.3636C87.2788 52.3636 87.1097 52.2969 86.9677 52.1634C86.8285 52.0298 86.7589 51.8693 86.7589 51.6818C86.7589 51.4943 86.8285 51.3338 86.9677 51.2003C87.1097 51.0668 87.2788 51 87.4748 51C87.6708 51 87.8384 51.0668 87.9776 51.2003C88.1197 51.3338 88.1907 51.4943 88.1907 51.6818C88.1907 51.8693 88.1197 52.0298 87.9776 52.1634C87.8384 52.2969 87.6708 52.3636 87.4748 52.3636ZM90.8168 51.2727V60H89.8111V51.2727H90.8168ZM95.4031 60.1364C94.7724 60.1364 94.2283 59.9972 93.771 59.7188C93.3164 59.4375 92.9656 59.0455 92.7184 58.5426C92.4741 58.0369 92.3519 57.4489 92.3519 56.7784C92.3519 56.108 92.4741 55.517 92.7184 55.0057C92.9656 54.4915 93.3093 54.0909 93.7496 53.804C94.1928 53.5142 94.7099 53.3693 95.3008 53.3693C95.6417 53.3693 95.9783 53.4261 96.3107 53.5398C96.6431 53.6534 96.9457 53.8381 97.2184 54.0938C97.4911 54.3466 97.7085 54.6818 97.8704 55.0994C98.0323 55.517 98.1133 56.0312 98.1133 56.642V57.0682H93.0678V56.1989H97.0906C97.0906 55.8295 97.0167 55.5 96.869 55.2102C96.7241 54.9205 96.5167 54.6918 96.2468 54.5241C95.9798 54.3565 95.6644 54.2727 95.3008 54.2727C94.9002 54.2727 94.5536 54.3722 94.261 54.571C93.9712 54.767 93.7482 55.0227 93.592 55.3381C93.4357 55.6534 93.3576 55.9915 93.3576 56.3523V56.9318C93.3576 57.4261 93.4428 57.8452 93.6133 58.1889C93.7866 58.5298 94.0266 58.7898 94.3335 58.9688C94.6403 59.1449 94.9968 59.233 95.4031 59.233C95.6673 59.233 95.9059 59.196 96.119 59.1222C96.3349 59.0455 96.521 58.9318 96.6772 58.7812C96.8335 58.6278 96.9542 58.4375 97.0394 58.2102L98.011 58.483C97.9087 58.8125 97.7369 59.1023 97.4954 59.3523C97.2539 59.5994 96.9556 59.7926 96.6005 59.9318C96.2454 60.0682 95.8462 60.1364 95.4031 60.1364ZM108.882 51.2727H109.939V57.0511C109.939 57.6477 109.798 58.1804 109.517 58.6491C109.238 59.1151 108.845 59.483 108.336 59.7528C107.828 60.0199 107.231 60.1534 106.547 60.1534C105.862 60.1534 105.265 60.0199 104.757 59.7528C104.248 59.483 103.853 59.1151 103.572 58.6491C103.294 58.1804 103.154 57.6477 103.154 57.0511V51.2727H104.211V56.9659C104.211 57.392 104.305 57.7713 104.493 58.1037C104.68 58.4332 104.947 58.6932 105.294 58.8835C105.643 59.071 106.061 59.1648 106.547 59.1648C107.032 59.1648 107.45 59.071 107.799 58.8835C108.149 58.6932 108.416 58.4332 108.6 58.1037C108.788 57.7713 108.882 57.392 108.882 56.9659V51.2727ZM111.913 62.4545V53.4545H112.884V54.4943H113.004C113.077 54.3807 113.18 54.2358 113.31 54.0597C113.444 53.8807 113.634 53.7216 113.881 53.5824C114.131 53.4403 114.469 53.3693 114.896 53.3693C115.447 53.3693 115.933 53.5071 116.353 53.7827C116.773 54.0582 117.102 54.4489 117.337 54.9545C117.573 55.4602 117.691 56.0568 117.691 56.7443C117.691 57.4375 117.573 58.0384 117.337 58.5469C117.102 59.0526 116.775 59.4446 116.357 59.723C115.94 59.9986 115.458 60.1364 114.913 60.1364C114.492 60.1364 114.156 60.0668 113.903 59.9276C113.65 59.7855 113.455 59.625 113.319 59.446C113.183 59.2642 113.077 59.1136 113.004 58.9943H112.918V62.4545H111.913ZM112.901 56.7273C112.901 57.2216 112.974 57.6577 113.119 58.0355C113.263 58.4105 113.475 58.7045 113.754 58.9176C114.032 59.1278 114.373 59.233 114.776 59.233C115.197 59.233 115.548 59.1222 115.829 58.9006C116.113 58.6761 116.326 58.375 116.468 57.9972C116.613 57.6165 116.685 57.1932 116.685 56.7273C116.685 56.267 116.614 55.8523 116.472 55.483C116.333 55.1108 116.121 54.8168 115.837 54.6009C115.556 54.3821 115.202 54.2727 114.776 54.2727C114.367 54.2727 114.023 54.3764 113.745 54.5838C113.467 54.7884 113.256 55.0753 113.114 55.4446C112.972 55.8111 112.901 56.2386 112.901 56.7273ZM120.231 51.2727V60H119.225V51.2727H120.231ZM124.732 60.1364C124.141 60.1364 123.623 59.9957 123.176 59.7145C122.733 59.4332 122.387 59.0398 122.137 58.5341C121.89 58.0284 121.766 57.4375 121.766 56.7614C121.766 56.0795 121.89 55.4844 122.137 54.9759C122.387 54.4673 122.733 54.0724 123.176 53.7912C123.623 53.5099 124.141 53.3693 124.732 53.3693C125.323 53.3693 125.84 53.5099 126.283 53.7912C126.729 54.0724 127.076 54.4673 127.323 54.9759C127.573 55.4844 127.698 56.0795 127.698 56.7614C127.698 57.4375 127.573 58.0284 127.323 58.5341C127.076 59.0398 126.729 59.4332 126.283 59.7145C125.84 59.9957 125.323 60.1364 124.732 60.1364ZM124.732 59.233C125.181 59.233 125.55 59.1179 125.84 58.8878C126.13 58.6577 126.344 58.3551 126.483 57.9801C126.623 57.6051 126.692 57.1989 126.692 56.7614C126.692 56.3239 126.623 55.9162 126.483 55.5384C126.344 55.1605 126.13 54.8551 125.84 54.6222C125.55 54.3892 125.181 54.2727 124.732 54.2727C124.283 54.2727 123.914 54.3892 123.624 54.6222C123.334 54.8551 123.12 55.1605 122.98 55.5384C122.841 55.9162 122.772 56.3239 122.772 56.7614C122.772 57.1989 122.841 57.6051 122.98 57.9801C123.12 58.3551 123.334 58.6577 123.624 58.8878C123.914 59.1179 124.283 59.233 124.732 59.233ZM131.159 60.1534C130.744 60.1534 130.368 60.0753 130.03 59.919C129.692 59.7599 129.423 59.5312 129.224 59.233C129.026 58.9318 128.926 58.5682 128.926 58.142C128.926 57.767 129 57.4631 129.148 57.2301C129.295 56.9943 129.493 56.8097 129.74 56.6761C129.987 56.5426 130.26 56.4432 130.558 56.3778C130.859 56.3097 131.162 56.2557 131.466 56.2159C131.864 56.1648 132.186 56.1264 132.433 56.1009C132.683 56.0724 132.865 56.0256 132.979 55.9602C133.095 55.8949 133.153 55.7812 133.153 55.6193V55.5852C133.153 55.1648 133.038 54.8381 132.808 54.6051C132.581 54.3722 132.236 54.2557 131.773 54.2557C131.293 54.2557 130.916 54.3608 130.643 54.571C130.371 54.7812 130.179 55.0057 130.068 55.2443L129.114 54.9034C129.284 54.5057 129.511 54.196 129.795 53.9744C130.082 53.75 130.395 53.5937 130.733 53.5057C131.074 53.4148 131.409 53.3693 131.739 53.3693C131.949 53.3693 132.19 53.3949 132.463 53.446C132.739 53.4943 133.004 53.5952 133.26 53.7486C133.518 53.902 133.733 54.1335 133.903 54.4432C134.074 54.7528 134.159 55.1676 134.159 55.6875V60H133.153V59.1136H133.102C133.034 59.2557 132.92 59.4077 132.761 59.5696C132.602 59.7315 132.391 59.8693 132.126 59.983C131.862 60.0966 131.54 60.1534 131.159 60.1534ZM131.312 59.25C131.71 59.25 132.045 59.1719 132.318 59.0156C132.594 58.8594 132.801 58.6577 132.94 58.4105C133.082 58.1634 133.153 57.9034 133.153 57.6307V56.7102C133.111 56.7614 133.017 56.8082 132.872 56.8509C132.73 56.8906 132.565 56.9261 132.378 56.9574C132.193 56.9858 132.013 57.0114 131.837 57.0341C131.663 57.054 131.523 57.071 131.415 57.0852C131.153 57.1193 130.909 57.1747 130.682 57.2514C130.457 57.3253 130.276 57.4375 130.136 57.5881C130 57.7358 129.932 57.9375 129.932 58.1932C129.932 58.5426 130.061 58.8068 130.32 58.9858C130.581 59.1619 130.912 59.25 131.312 59.25ZM138.466 60.1364C137.921 60.1364 137.439 59.9986 137.022 59.723C136.604 59.4446 136.277 59.0526 136.042 58.5469C135.806 58.0384 135.688 57.4375 135.688 56.7443C135.688 56.0568 135.806 55.4602 136.042 54.9545C136.277 54.4489 136.605 54.0582 137.026 53.7827C137.446 53.5071 137.932 53.3693 138.483 53.3693C138.909 53.3693 139.246 53.4403 139.493 53.5824C139.743 53.7216 139.934 53.8807 140.064 54.0597C140.198 54.2358 140.301 54.3807 140.375 54.4943H140.461V51.2727H141.466V60H140.495V58.9943H140.375C140.301 59.1136 140.196 59.2642 140.06 59.446C139.924 59.625 139.729 59.7855 139.476 59.9276C139.223 60.0668 138.887 60.1364 138.466 60.1364ZM138.603 59.233C139.006 59.233 139.347 59.1278 139.625 58.9176C139.904 58.7045 140.115 58.4105 140.26 58.0355C140.405 57.6577 140.478 57.2216 140.478 56.7273C140.478 56.2386 140.407 55.8111 140.265 55.4446C140.123 55.0753 139.912 54.7884 139.634 54.5838C139.355 54.3764 139.012 54.2727 138.603 54.2727C138.176 54.2727 137.821 54.3821 137.537 54.6009C137.256 54.8168 137.044 55.1108 136.902 55.483C136.763 55.8523 136.694 56.267 136.694 56.7273C136.694 57.1932 136.765 57.6165 136.907 57.9972C137.051 58.375 137.265 58.6761 137.546 58.9006C137.83 59.1222 138.182 59.233 138.603 59.233ZM146.823 60V53.4545H147.828V60H146.823ZM147.334 52.3636C147.138 52.3636 146.969 52.2969 146.827 52.1634C146.688 52.0298 146.618 51.8693 146.618 51.6818C146.618 51.4943 146.688 51.3338 146.827 51.2003C146.969 51.0668 147.138 51 147.334 51C147.53 51 147.698 51.0668 147.837 51.2003C147.979 51.3338 148.05 51.4943 148.05 51.6818C148.05 51.8693 147.979 52.0298 147.837 52.1634C147.698 52.2969 147.53 52.3636 147.334 52.3636ZM150.676 56.0625V60H149.67V53.4545H150.642V54.4773H150.727C150.881 54.1449 151.114 53.8778 151.426 53.6761C151.739 53.4716 152.142 53.3693 152.636 53.3693C153.08 53.3693 153.467 53.4602 153.8 53.642C154.132 53.821 154.391 54.0938 154.575 54.4602C154.76 54.8239 154.852 55.2841 154.852 55.8409V60H153.847V55.9091C153.847 55.3949 153.713 54.9943 153.446 54.7074C153.179 54.4176 152.813 54.2727 152.347 54.2727C152.026 54.2727 151.739 54.3423 151.486 54.4815C151.236 54.6207 151.038 54.8239 150.893 55.0909C150.749 55.358 150.676 55.6818 150.676 56.0625ZM156.69 62.4545V53.4545H157.662V54.4943H157.781C157.855 54.3807 157.957 54.2358 158.088 54.0597C158.221 53.8807 158.412 53.7216 158.659 53.5824C158.909 53.4403 159.247 53.3693 159.673 53.3693C160.224 53.3693 160.71 53.5071 161.13 53.7827C161.551 54.0582 161.879 54.4489 162.115 54.9545C162.35 55.4602 162.468 56.0568 162.468 56.7443C162.468 57.4375 162.35 58.0384 162.115 58.5469C161.879 59.0526 161.552 59.4446 161.135 59.723C160.717 59.9986 160.235 60.1364 159.69 60.1364C159.27 60.1364 158.933 60.0668 158.68 59.9276C158.427 59.7855 158.233 59.625 158.096 59.446C157.96 59.2642 157.855 59.1136 157.781 58.9943H157.696V62.4545H156.69ZM157.679 56.7273C157.679 57.2216 157.751 57.6577 157.896 58.0355C158.041 58.4105 158.252 58.7045 158.531 58.9176C158.809 59.1278 159.15 59.233 159.554 59.233C159.974 59.233 160.325 59.1222 160.606 58.9006C160.89 58.6761 161.103 58.375 161.245 57.9972C161.39 57.6165 161.463 57.1932 161.463 56.7273C161.463 56.267 161.392 55.8523 161.25 55.483C161.11 55.1108 160.899 54.8168 160.615 54.6009C160.333 54.3821 159.98 54.2727 159.554 54.2727C159.145 54.2727 158.801 54.3764 158.522 54.5838C158.244 54.7884 158.034 55.0753 157.892 55.4446C157.75 55.8111 157.679 56.2386 157.679 56.7273ZM168.127 57.3239V53.4545H169.133V60H168.127V58.892H168.059C167.906 59.2244 167.667 59.5071 167.343 59.7401C167.02 59.9702 166.61 60.0852 166.116 60.0852C165.707 60.0852 165.343 59.9957 165.025 59.8168C164.707 59.6349 164.457 59.3622 164.275 58.9986C164.093 58.6321 164.002 58.1705 164.002 57.6136V53.4545H165.008V57.5455C165.008 58.0227 165.142 58.4034 165.409 58.6875C165.679 58.9716 166.022 59.1136 166.44 59.1136C166.69 59.1136 166.944 59.0497 167.203 58.9219C167.464 58.794 167.683 58.598 167.859 58.3338C168.038 58.0696 168.127 57.733 168.127 57.3239ZM173.822 53.4545V54.3068H170.43V53.4545H173.822ZM171.418 51.8864H172.424V58.125C172.424 58.4091 172.465 58.6222 172.548 58.7642C172.633 58.9034 172.741 58.9972 172.871 59.0455C173.005 59.0909 173.146 59.1136 173.293 59.1136C173.404 59.1136 173.495 59.108 173.566 59.0966C173.637 59.0824 173.694 59.071 173.737 59.0625L173.941 59.9659C173.873 59.9915 173.778 60.017 173.656 60.0426C173.533 60.071 173.379 60.0852 173.191 60.0852C172.907 60.0852 172.629 60.0241 172.356 59.902C172.086 59.7798 171.862 59.5938 171.683 59.3438C171.506 59.0938 171.418 58.7784 171.418 58.3977V51.8864Z" fill="black"/>
<path d="M82.75 178H80.0568V169.273H82.8693C83.7159 169.273 84.4403 169.447 85.0426 169.797C85.6449 170.143 86.1065 170.642 86.4276 171.293C86.7486 171.94 86.9091 172.716 86.9091 173.619C86.9091 174.528 86.7472 175.311 86.4233 175.967C86.0994 176.621 85.6278 177.124 85.0085 177.476C84.3892 177.825 83.6364 178 82.75 178ZM81.1136 177.062H82.6818C83.4034 177.062 84.0014 176.923 84.4759 176.645C84.9503 176.366 85.304 175.97 85.5369 175.456C85.7699 174.942 85.8864 174.33 85.8864 173.619C85.8864 172.915 85.7713 172.308 85.5412 171.8C85.3111 171.288 84.9673 170.896 84.5099 170.624C84.0526 170.348 83.483 170.21 82.8011 170.21H81.1136V177.062ZM88.5455 178V171.455H89.517V172.443H89.5852C89.7045 172.119 89.9205 171.857 90.233 171.655C90.5455 171.453 90.8977 171.352 91.2898 171.352C91.3636 171.352 91.456 171.354 91.5668 171.357C91.6776 171.359 91.7614 171.364 91.8182 171.369V172.392C91.7841 172.384 91.706 172.371 91.5838 172.354C91.4645 172.334 91.3381 172.324 91.2045 172.324C90.8864 172.324 90.6023 172.391 90.3523 172.524C90.1051 172.655 89.9091 172.837 89.7642 173.07C89.6222 173.3 89.5511 173.562 89.5511 173.858V178H88.5455ZM94.9364 178.153C94.5217 178.153 94.1452 178.075 93.8072 177.919C93.4691 177.76 93.2006 177.531 93.0018 177.233C92.8029 176.932 92.7035 176.568 92.7035 176.142C92.7035 175.767 92.7773 175.463 92.9251 175.23C93.0728 174.994 93.2702 174.81 93.5174 174.676C93.7646 174.543 94.0373 174.443 94.3356 174.378C94.6367 174.31 94.9393 174.256 95.2433 174.216C95.641 174.165 95.9634 174.126 96.2106 174.101C96.4606 174.072 96.6424 174.026 96.756 173.96C96.8725 173.895 96.9308 173.781 96.9308 173.619V173.585C96.9308 173.165 96.8157 172.838 96.5856 172.605C96.3583 172.372 96.0131 172.256 95.5501 172.256C95.07 172.256 94.6935 172.361 94.4208 172.571C94.1481 172.781 93.9563 173.006 93.8455 173.244L92.891 172.903C93.0614 172.506 93.2887 172.196 93.5728 171.974C93.8597 171.75 94.1722 171.594 94.5103 171.506C94.8512 171.415 95.1864 171.369 95.516 171.369C95.7262 171.369 95.9677 171.395 96.2404 171.446C96.516 171.494 96.7816 171.595 97.0373 171.749C97.2958 171.902 97.5103 172.134 97.6808 172.443C97.8512 172.753 97.9364 173.168 97.9364 173.688V178H96.9308V177.114H96.8796C96.8114 177.256 96.6978 177.408 96.5387 177.57C96.3796 177.732 96.168 177.869 95.9038 177.983C95.6396 178.097 95.3171 178.153 94.9364 178.153ZM95.0898 177.25C95.4876 177.25 95.8228 177.172 96.0955 177.016C96.3711 176.859 96.5785 176.658 96.7177 176.411C96.8597 176.163 96.9308 175.903 96.9308 175.631V174.71C96.8881 174.761 96.7944 174.808 96.6495 174.851C96.5075 174.891 96.3427 174.926 96.1552 174.957C95.9705 174.986 95.7901 175.011 95.614 175.034C95.4407 175.054 95.3001 175.071 95.1921 175.085C94.9308 175.119 94.6864 175.175 94.4592 175.251C94.2347 175.325 94.0529 175.437 93.9137 175.588C93.7773 175.736 93.7092 175.937 93.7092 176.193C93.7092 176.543 93.8384 176.807 94.0969 176.986C94.3583 177.162 94.6893 177.25 95.0898 177.25ZM102.414 180.591C101.928 180.591 101.511 180.528 101.161 180.403C100.812 180.281 100.521 180.119 100.288 179.918C100.058 179.719 99.8743 179.506 99.7379 179.278L100.539 178.716C100.63 178.835 100.745 178.972 100.884 179.125C101.023 179.281 101.214 179.416 101.455 179.53C101.7 179.646 102.019 179.705 102.414 179.705C102.942 179.705 103.379 179.577 103.722 179.321C104.066 179.065 104.238 178.665 104.238 178.119V176.79H104.153C104.079 176.909 103.974 177.057 103.837 177.233C103.704 177.406 103.511 177.561 103.258 177.697C103.008 177.831 102.67 177.898 102.244 177.898C101.715 177.898 101.241 177.773 100.82 177.523C100.403 177.273 100.072 176.909 99.8274 176.432C99.5859 175.955 99.4652 175.375 99.4652 174.693C99.4652 174.023 99.5831 173.439 99.8189 172.942C100.055 172.442 100.383 172.055 100.803 171.783C101.224 171.507 101.71 171.369 102.261 171.369C102.687 171.369 103.025 171.44 103.275 171.582C103.528 171.722 103.721 171.881 103.854 172.06C103.991 172.236 104.096 172.381 104.17 172.494H104.272V171.455H105.244V178.188C105.244 178.75 105.116 179.207 104.86 179.56C104.607 179.915 104.266 180.175 103.837 180.339C103.411 180.507 102.937 180.591 102.414 180.591ZM102.38 176.994C102.783 176.994 103.124 176.902 103.403 176.717C103.681 176.533 103.893 176.267 104.038 175.92C104.183 175.574 104.255 175.159 104.255 174.676C104.255 174.205 104.184 173.788 104.042 173.428C103.9 173.067 103.69 172.784 103.411 172.58C103.133 172.375 102.789 172.273 102.38 172.273C101.954 172.273 101.599 172.381 101.315 172.597C101.033 172.812 100.822 173.102 100.68 173.466C100.54 173.83 100.471 174.233 100.471 174.676C100.471 175.131 100.542 175.533 100.684 175.882C100.829 176.229 101.042 176.501 101.323 176.7C101.607 176.896 101.96 176.994 102.38 176.994ZM112.386 178.153C111.971 178.153 111.594 178.075 111.256 177.919C110.918 177.76 110.65 177.531 110.451 177.233C110.252 176.932 110.153 176.568 110.153 176.142C110.153 175.767 110.227 175.463 110.374 175.23C110.522 174.994 110.719 174.81 110.967 174.676C111.214 174.543 111.487 174.443 111.785 174.378C112.086 174.31 112.388 174.256 112.692 174.216C113.09 174.165 113.413 174.126 113.66 174.101C113.91 174.072 114.092 174.026 114.205 173.96C114.322 173.895 114.38 173.781 114.38 173.619V173.585C114.38 173.165 114.265 172.838 114.035 172.605C113.808 172.372 113.462 172.256 112.999 172.256C112.519 172.256 112.143 172.361 111.87 172.571C111.597 172.781 111.406 173.006 111.295 173.244L110.34 172.903C110.511 172.506 110.738 172.196 111.022 171.974C111.309 171.75 111.621 171.594 111.96 171.506C112.3 171.415 112.636 171.369 112.965 171.369C113.175 171.369 113.417 171.395 113.69 171.446C113.965 171.494 114.231 171.595 114.487 171.749C114.745 171.902 114.96 172.134 115.13 172.443C115.3 172.753 115.386 173.168 115.386 173.688V178H114.38V177.114H114.329C114.261 177.256 114.147 177.408 113.988 177.57C113.829 177.732 113.617 177.869 113.353 177.983C113.089 178.097 112.766 178.153 112.386 178.153ZM112.539 177.25C112.937 177.25 113.272 177.172 113.545 177.016C113.82 176.859 114.028 176.658 114.167 176.411C114.309 176.163 114.38 175.903 114.38 175.631V174.71C114.337 174.761 114.244 174.808 114.099 174.851C113.957 174.891 113.792 174.926 113.604 174.957C113.42 174.986 113.239 175.011 113.063 175.034C112.89 175.054 112.749 175.071 112.641 175.085C112.38 175.119 112.136 175.175 111.908 175.251C111.684 175.325 111.502 175.437 111.363 175.588C111.227 175.736 111.158 175.937 111.158 176.193C111.158 176.543 111.288 176.807 111.546 176.986C111.808 177.162 112.138 177.25 112.539 177.25ZM118.227 174.062V178H117.221V171.455H118.193V172.477H118.278C118.431 172.145 118.664 171.878 118.977 171.676C119.289 171.472 119.693 171.369 120.187 171.369C120.63 171.369 121.018 171.46 121.35 171.642C121.683 171.821 121.941 172.094 122.126 172.46C122.311 172.824 122.403 173.284 122.403 173.841V178H121.397V173.909C121.397 173.395 121.264 172.994 120.997 172.707C120.73 172.418 120.363 172.273 119.897 172.273C119.576 172.273 119.289 172.342 119.037 172.482C118.787 172.621 118.589 172.824 118.444 173.091C118.299 173.358 118.227 173.682 118.227 174.062ZM126.712 178.136C126.167 178.136 125.685 177.999 125.268 177.723C124.85 177.445 124.523 177.053 124.288 176.547C124.052 176.038 123.934 175.438 123.934 174.744C123.934 174.057 124.052 173.46 124.288 172.955C124.523 172.449 124.852 172.058 125.272 171.783C125.692 171.507 126.178 171.369 126.729 171.369C127.156 171.369 127.492 171.44 127.739 171.582C127.989 171.722 128.18 171.881 128.31 172.06C128.444 172.236 128.548 172.381 128.621 172.494H128.707V169.273H129.712V178H128.741V176.994H128.621C128.548 177.114 128.442 177.264 128.306 177.446C128.17 177.625 127.975 177.786 127.722 177.928C127.469 178.067 127.133 178.136 126.712 178.136ZM126.849 177.233C127.252 177.233 127.593 177.128 127.871 176.918C128.15 176.705 128.362 176.411 128.506 176.036C128.651 175.658 128.724 175.222 128.724 174.727C128.724 174.239 128.653 173.811 128.511 173.445C128.369 173.075 128.158 172.788 127.88 172.584C127.602 172.376 127.258 172.273 126.849 172.273C126.423 172.273 126.067 172.382 125.783 172.601C125.502 172.817 125.29 173.111 125.148 173.483C125.009 173.852 124.94 174.267 124.94 174.727C124.94 175.193 125.011 175.616 125.153 175.997C125.298 176.375 125.511 176.676 125.792 176.901C126.076 177.122 126.428 177.233 126.849 177.233ZM137.54 178.136C136.995 178.136 136.513 177.999 136.096 177.723C135.678 177.445 135.352 177.053 135.116 176.547C134.88 176.038 134.762 175.438 134.762 174.744C134.762 174.057 134.88 173.46 135.116 172.955C135.352 172.449 135.68 172.058 136.1 171.783C136.521 171.507 137.006 171.369 137.558 171.369C137.984 171.369 138.32 171.44 138.567 171.582C138.817 171.722 139.008 171.881 139.138 172.06C139.272 172.236 139.376 172.381 139.45 172.494H139.535V169.273H140.54V178H139.569V176.994H139.45C139.376 177.114 139.271 177.264 139.134 177.446C138.998 177.625 138.803 177.786 138.55 177.928C138.298 178.067 137.961 178.136 137.54 178.136ZM137.677 177.233C138.08 177.233 138.421 177.128 138.7 176.918C138.978 176.705 139.19 176.411 139.335 176.036C139.479 175.658 139.552 175.222 139.552 174.727C139.552 174.239 139.481 173.811 139.339 173.445C139.197 173.075 138.987 172.788 138.708 172.584C138.43 172.376 138.086 172.273 137.677 172.273C137.251 172.273 136.896 172.382 136.612 172.601C136.33 172.817 136.119 173.111 135.977 173.483C135.837 173.852 135.768 174.267 135.768 174.727C135.768 175.193 135.839 175.616 135.981 175.997C136.126 176.375 136.339 176.676 136.62 176.901C136.904 177.122 137.256 177.233 137.677 177.233ZM142.522 178V171.455H143.494V172.443H143.562C143.681 172.119 143.897 171.857 144.21 171.655C144.522 171.453 144.874 171.352 145.266 171.352C145.34 171.352 145.433 171.354 145.543 171.357C145.654 171.359 145.738 171.364 145.795 171.369V172.392C145.761 172.384 145.683 172.371 145.56 172.354C145.441 172.334 145.315 172.324 145.181 172.324C144.863 172.324 144.579 172.391 144.329 172.524C144.082 172.655 143.886 172.837 143.741 173.07C143.599 173.3 143.528 173.562 143.528 173.858V178H142.522ZM149.447 178.136C148.856 178.136 148.337 177.996 147.891 177.714C147.448 177.433 147.102 177.04 146.852 176.534C146.604 176.028 146.481 175.437 146.481 174.761C146.481 174.08 146.604 173.484 146.852 172.976C147.102 172.467 147.448 172.072 147.891 171.791C148.337 171.51 148.856 171.369 149.447 171.369C150.038 171.369 150.555 171.51 150.998 171.791C151.444 172.072 151.79 172.467 152.038 172.976C152.288 173.484 152.413 174.08 152.413 174.761C152.413 175.437 152.288 176.028 152.038 176.534C151.79 177.04 151.444 177.433 150.998 177.714C150.555 177.996 150.038 178.136 149.447 178.136ZM149.447 177.233C149.896 177.233 150.265 177.118 150.555 176.888C150.844 176.658 151.059 176.355 151.198 175.98C151.337 175.605 151.407 175.199 151.407 174.761C151.407 174.324 151.337 173.916 151.198 173.538C151.059 173.161 150.844 172.855 150.555 172.622C150.265 172.389 149.896 172.273 149.447 172.273C148.998 172.273 148.629 172.389 148.339 172.622C148.049 172.855 147.835 173.161 147.695 173.538C147.556 173.916 147.487 174.324 147.487 174.761C147.487 175.199 147.556 175.605 147.695 175.98C147.835 176.355 148.049 176.658 148.339 176.888C148.629 177.118 148.998 177.233 149.447 177.233ZM153.948 180.455V171.455H154.919V172.494H155.039C155.113 172.381 155.215 172.236 155.346 172.06C155.479 171.881 155.669 171.722 155.917 171.582C156.167 171.44 156.505 171.369 156.931 171.369C157.482 171.369 157.968 171.507 158.388 171.783C158.809 172.058 159.137 172.449 159.373 172.955C159.608 173.46 159.726 174.057 159.726 174.744C159.726 175.438 159.608 176.038 159.373 176.547C159.137 177.053 158.81 177.445 158.392 177.723C157.975 177.999 157.493 178.136 156.948 178.136C156.527 178.136 156.191 178.067 155.938 177.928C155.685 177.786 155.49 177.625 155.354 177.446C155.218 177.264 155.113 177.114 155.039 176.994H154.953V180.455H153.948ZM154.936 174.727C154.936 175.222 155.009 175.658 155.154 176.036C155.299 176.411 155.51 176.705 155.789 176.918C156.067 177.128 156.408 177.233 156.811 177.233C157.232 177.233 157.583 177.122 157.864 176.901C158.148 176.676 158.361 176.375 158.503 175.997C158.648 175.616 158.721 175.193 158.721 174.727C158.721 174.267 158.65 173.852 158.507 173.483C158.368 173.111 158.157 172.817 157.873 172.601C157.591 172.382 157.238 172.273 156.811 172.273C156.402 172.273 156.059 172.376 155.78 172.584C155.502 172.788 155.292 173.075 155.15 173.445C155.007 173.811 154.936 174.239 154.936 174.727ZM167.55 171.455V172.307H164.022V171.455H167.55ZM165.078 178V170.551C165.078 170.176 165.167 169.864 165.343 169.614C165.519 169.364 165.748 169.176 166.029 169.051C166.31 168.926 166.607 168.864 166.919 168.864C167.167 168.864 167.368 168.884 167.525 168.923C167.681 168.963 167.797 169 167.874 169.034L167.584 169.903C167.533 169.886 167.462 169.865 167.371 169.839C167.283 169.814 167.167 169.801 167.022 169.801C166.689 169.801 166.449 169.885 166.301 170.053C166.157 170.22 166.084 170.466 166.084 170.79V178H165.078ZM168.96 178V171.455H169.965V178H168.96ZM169.471 170.364C169.275 170.364 169.106 170.297 168.964 170.163C168.825 170.03 168.755 169.869 168.755 169.682C168.755 169.494 168.825 169.334 168.964 169.2C169.106 169.067 169.275 169 169.471 169C169.667 169 169.835 169.067 169.974 169.2C170.116 169.334 170.187 169.494 170.187 169.682C170.187 169.869 170.116 170.03 169.974 170.163C169.835 170.297 169.667 170.364 169.471 170.364ZM172.813 169.273V178H171.807V169.273H172.813ZM177.399 178.136C176.768 178.136 176.224 177.997 175.767 177.719C175.312 177.438 174.962 177.045 174.714 176.543C174.47 176.037 174.348 175.449 174.348 174.778C174.348 174.108 174.47 173.517 174.714 173.006C174.962 172.491 175.305 172.091 175.746 171.804C176.189 171.514 176.706 171.369 177.297 171.369C177.638 171.369 177.974 171.426 178.307 171.54C178.639 171.653 178.942 171.838 179.214 172.094C179.487 172.347 179.705 172.682 179.866 173.099C180.028 173.517 180.109 174.031 180.109 174.642V175.068H175.064V174.199H179.087C179.087 173.83 179.013 173.5 178.865 173.21C178.72 172.92 178.513 172.692 178.243 172.524C177.976 172.357 177.661 172.273 177.297 172.273C176.896 172.273 176.55 172.372 176.257 172.571C175.967 172.767 175.744 173.023 175.588 173.338C175.432 173.653 175.354 173.991 175.354 174.352V174.932C175.354 175.426 175.439 175.845 175.609 176.189C175.783 176.53 176.023 176.79 176.33 176.969C176.636 177.145 176.993 177.233 177.399 177.233C177.663 177.233 177.902 177.196 178.115 177.122C178.331 177.045 178.517 176.932 178.673 176.781C178.83 176.628 178.95 176.437 179.036 176.21L180.007 176.483C179.905 176.812 179.733 177.102 179.491 177.352C179.25 177.599 178.952 177.793 178.597 177.932C178.241 178.068 177.842 178.136 177.399 178.136ZM186.276 172.92L185.372 173.176C185.315 173.026 185.232 172.879 185.121 172.737C185.013 172.592 184.865 172.473 184.678 172.379C184.49 172.286 184.25 172.239 183.957 172.239C183.557 172.239 183.223 172.331 182.956 172.516C182.692 172.697 182.56 172.929 182.56 173.21C182.56 173.46 182.651 173.658 182.832 173.803C183.014 173.947 183.298 174.068 183.685 174.165L184.656 174.403C185.241 174.545 185.678 174.763 185.964 175.055C186.251 175.345 186.395 175.719 186.395 176.176C186.395 176.551 186.287 176.886 186.071 177.182C185.858 177.477 185.56 177.71 185.176 177.881C184.793 178.051 184.347 178.136 183.838 178.136C183.17 178.136 182.618 177.991 182.18 177.702C181.743 177.412 181.466 176.989 181.349 176.432L182.304 176.193C182.395 176.545 182.567 176.81 182.82 176.986C183.075 177.162 183.409 177.25 183.821 177.25C184.29 177.25 184.662 177.151 184.938 176.952C185.216 176.75 185.355 176.509 185.355 176.227C185.355 176 185.276 175.81 185.116 175.656C184.957 175.5 184.713 175.384 184.384 175.307L183.293 175.051C182.693 174.909 182.253 174.689 181.972 174.391C181.693 174.089 181.554 173.713 181.554 173.261C181.554 172.892 181.658 172.565 181.865 172.281C182.075 171.997 182.361 171.774 182.722 171.612C183.085 171.45 183.497 171.369 183.957 171.369C184.605 171.369 185.114 171.511 185.483 171.795C185.855 172.08 186.119 172.455 186.276 172.92Z" fill="black"/>
<rect x="79.5" y="193.5" width="639" height="127" rx="2.5" fill="white"/>
<path d="M411 245V250.333C411 251.041 410.719 251.719 410.219 252.219C409.719 252.719 409.041 253 408.333 253H389.667C388.959 253 388.281 252.719 387.781 252.219C387.281 251.719 387 251.041 387 250.333V245M405.667 235.667L399 229M399 229L392.333 235.667M399 229V245" stroke="#9E9E9E" stroke-width="2" stroke-linecap="round" stroke-linejoin="round"/>
<path d="M282.562 284H279.645V274.545H282.692C283.609 274.545 284.394 274.735 285.046 275.113C285.699 275.489 286.199 276.029 286.547 276.734C286.894 277.435 287.068 278.276 287.068 279.254C287.068 280.239 286.893 281.087 286.542 281.798C286.191 282.506 285.68 283.051 285.009 283.432C284.338 283.811 283.523 284 282.562 284ZM280.79 282.984H282.489C283.27 282.984 283.918 282.834 284.432 282.532C284.946 282.23 285.329 281.801 285.582 281.244C285.834 280.687 285.96 280.024 285.96 279.254C285.96 278.491 285.836 277.834 285.586 277.283C285.337 276.729 284.965 276.304 284.469 276.009C283.974 275.71 283.357 275.561 282.618 275.561H280.79V282.984ZM288.841 284V276.909H289.893V277.98H289.967C290.097 277.629 290.33 277.345 290.669 277.126C291.008 276.908 291.389 276.798 291.814 276.798C291.894 276.798 291.994 276.8 292.114 276.803C292.234 276.806 292.325 276.811 292.386 276.817V277.925C292.349 277.915 292.265 277.902 292.132 277.883C292.003 277.862 291.866 277.851 291.722 277.851C291.377 277.851 291.069 277.923 290.798 278.068C290.531 278.209 290.318 278.406 290.161 278.659C290.007 278.908 289.93 279.193 289.93 279.513V284H288.841ZM295.764 284.166C295.315 284.166 294.907 284.082 294.541 283.912C294.175 283.74 293.884 283.492 293.669 283.169C293.453 282.843 293.345 282.449 293.345 281.987C293.345 281.581 293.425 281.252 293.585 280.999C293.746 280.744 293.959 280.544 294.227 280.399C294.495 280.254 294.79 280.147 295.114 280.076C295.44 280.002 295.768 279.944 296.097 279.901C296.528 279.845 296.877 279.804 297.145 279.776C297.416 279.745 297.613 279.694 297.736 279.624C297.862 279.553 297.925 279.43 297.925 279.254V279.217C297.925 278.762 297.8 278.408 297.551 278.156C297.305 277.903 296.931 277.777 296.429 277.777C295.909 277.777 295.501 277.891 295.206 278.119C294.91 278.346 294.703 278.589 294.583 278.848L293.549 278.479C293.733 278.048 293.979 277.712 294.287 277.472C294.598 277.229 294.937 277.06 295.303 276.964C295.672 276.866 296.035 276.817 296.392 276.817C296.62 276.817 296.882 276.844 297.177 276.9C297.476 276.952 297.763 277.061 298.04 277.228C298.32 277.394 298.553 277.645 298.737 277.98C298.922 278.316 299.014 278.765 299.014 279.328V284H297.925V283.04H297.87C297.796 283.194 297.673 283.358 297.5 283.534C297.328 283.709 297.099 283.858 296.812 283.982C296.526 284.105 296.177 284.166 295.764 284.166ZM295.931 283.188C296.362 283.188 296.725 283.103 297.02 282.934C297.319 282.764 297.543 282.546 297.694 282.278C297.848 282.01 297.925 281.729 297.925 281.433V280.436C297.879 280.491 297.777 280.542 297.62 280.588C297.466 280.632 297.288 280.67 297.085 280.704C296.885 280.735 296.689 280.762 296.498 280.787C296.311 280.808 296.158 280.827 296.041 280.842C295.758 280.879 295.494 280.939 295.247 281.022C295.004 281.102 294.807 281.224 294.657 281.387C294.509 281.547 294.435 281.766 294.435 282.043C294.435 282.421 294.575 282.707 294.855 282.901C295.138 283.092 295.497 283.188 295.931 283.188ZM303.865 286.807C303.339 286.807 302.887 286.739 302.508 286.604C302.129 286.471 301.814 286.296 301.562 286.077C301.312 285.862 301.114 285.631 300.966 285.385L301.834 284.776C301.932 284.905 302.057 285.053 302.208 285.219C302.359 285.388 302.565 285.534 302.827 285.657C303.091 285.783 303.437 285.847 303.865 285.847C304.438 285.847 304.91 285.708 305.282 285.431C305.655 285.154 305.841 284.72 305.841 284.129V282.689H305.749C305.669 282.818 305.555 282.978 305.407 283.169C305.262 283.357 305.053 283.525 304.779 283.672C304.508 283.817 304.142 283.889 303.681 283.889C303.108 283.889 302.594 283.754 302.139 283.483C301.686 283.212 301.328 282.818 301.063 282.301C300.801 281.784 300.671 281.156 300.671 280.418C300.671 279.691 300.798 279.059 301.054 278.52C301.309 277.979 301.665 277.56 302.12 277.265C302.576 276.966 303.102 276.817 303.699 276.817C304.161 276.817 304.527 276.894 304.798 277.048C305.072 277.198 305.281 277.371 305.426 277.565C305.573 277.755 305.687 277.912 305.767 278.036H305.878V276.909H306.931V284.203C306.931 284.812 306.792 285.308 306.515 285.69C306.241 286.074 305.872 286.356 305.407 286.534C304.945 286.716 304.432 286.807 303.865 286.807ZM303.828 282.911C304.265 282.911 304.635 282.81 304.936 282.61C305.238 282.41 305.467 282.123 305.624 281.747C305.781 281.372 305.86 280.922 305.86 280.399C305.86 279.888 305.783 279.437 305.629 279.047C305.475 278.656 305.247 278.349 304.945 278.128C304.644 277.906 304.271 277.795 303.828 277.795C303.367 277.795 302.982 277.912 302.674 278.146C302.369 278.38 302.14 278.694 301.986 279.088C301.836 279.482 301.76 279.919 301.76 280.399C301.76 280.892 301.837 281.327 301.991 281.706C302.148 282.081 302.379 282.377 302.683 282.592C302.991 282.804 303.373 282.911 303.828 282.911ZM314.668 284.166C314.218 284.166 313.811 284.082 313.444 283.912C313.078 283.74 312.787 283.492 312.572 283.169C312.356 282.843 312.249 282.449 312.249 281.987C312.249 281.581 312.329 281.252 312.489 280.999C312.649 280.744 312.863 280.544 313.131 280.399C313.398 280.254 313.694 280.147 314.017 280.076C314.343 280.002 314.671 279.944 315 279.901C315.431 279.845 315.78 279.804 316.048 279.776C316.319 279.745 316.516 279.694 316.639 279.624C316.765 279.553 316.828 279.43 316.828 279.254V279.217C316.828 278.762 316.704 278.408 316.454 278.156C316.208 277.903 315.834 277.777 315.333 277.777C314.812 277.777 314.405 277.891 314.109 278.119C313.814 278.346 313.606 278.589 313.486 278.848L312.452 278.479C312.637 278.048 312.883 277.712 313.191 277.472C313.501 277.229 313.84 277.06 314.206 276.964C314.575 276.866 314.939 276.817 315.296 276.817C315.523 276.817 315.785 276.844 316.08 276.9C316.379 276.952 316.667 277.061 316.944 277.228C317.224 277.394 317.456 277.645 317.641 277.98C317.825 278.316 317.918 278.765 317.918 279.328V284H316.828V283.04H316.773C316.699 283.194 316.576 283.358 316.404 283.534C316.231 283.709 316.002 283.858 315.716 283.982C315.43 284.105 315.08 284.166 314.668 284.166ZM314.834 283.188C315.265 283.188 315.628 283.103 315.923 282.934C316.222 282.764 316.447 282.546 316.597 282.278C316.751 282.01 316.828 281.729 316.828 281.433V280.436C316.782 280.491 316.681 280.542 316.524 280.588C316.37 280.632 316.191 280.67 315.988 280.704C315.788 280.735 315.593 280.762 315.402 280.787C315.214 280.808 315.062 280.827 314.945 280.842C314.662 280.879 314.397 280.939 314.151 281.022C313.908 281.102 313.711 281.224 313.56 281.387C313.412 281.547 313.338 281.766 313.338 282.043C313.338 282.421 313.478 282.707 313.758 282.901C314.041 283.092 314.4 283.188 314.834 283.188ZM320.996 279.734V284H319.906V276.909H320.959V278.017H321.051C321.217 277.657 321.47 277.368 321.808 277.149C322.147 276.928 322.584 276.817 323.119 276.817C323.6 276.817 324.02 276.915 324.38 277.112C324.74 277.306 325.02 277.602 325.22 277.999C325.42 278.393 325.52 278.891 325.52 279.494V284H324.43V279.568C324.43 279.011 324.286 278.577 323.997 278.266C323.707 277.952 323.31 277.795 322.805 277.795C322.458 277.795 322.147 277.871 321.873 278.022C321.602 278.172 321.388 278.393 321.231 278.682C321.074 278.971 320.996 279.322 320.996 279.734ZM330.188 284.148C329.597 284.148 329.076 283.998 328.623 283.7C328.171 283.398 327.817 282.974 327.562 282.426C327.306 281.875 327.178 281.224 327.178 280.473C327.178 279.728 327.306 279.082 327.562 278.534C327.817 277.986 328.173 277.563 328.628 277.265C329.084 276.966 329.61 276.817 330.207 276.817C330.669 276.817 331.033 276.894 331.301 277.048C331.572 277.198 331.778 277.371 331.92 277.565C332.064 277.755 332.177 277.912 332.257 278.036H332.349V274.545H333.438V284H332.386V282.911H332.257C332.177 283.04 332.063 283.203 331.915 283.4C331.767 283.594 331.556 283.768 331.282 283.922C331.009 284.072 330.644 284.148 330.188 284.148ZM330.336 283.169C330.773 283.169 331.142 283.055 331.444 282.827C331.746 282.597 331.975 282.278 332.132 281.872C332.289 281.462 332.367 280.99 332.367 280.455C332.367 279.925 332.29 279.462 332.137 279.065C331.983 278.665 331.755 278.354 331.453 278.132C331.152 277.908 330.779 277.795 330.336 277.795C329.874 277.795 329.49 277.914 329.182 278.151C328.877 278.385 328.648 278.703 328.494 279.107C328.343 279.507 328.268 279.956 328.268 280.455C328.268 280.959 328.345 281.418 328.499 281.83C328.656 282.24 328.887 282.566 329.191 282.809C329.499 283.049 329.881 283.169 330.336 283.169ZM341.919 284.148C341.328 284.148 340.806 283.998 340.354 283.7C339.901 283.398 339.548 282.974 339.292 282.426C339.037 281.875 338.909 281.224 338.909 280.473C338.909 279.728 339.037 279.082 339.292 278.534C339.548 277.986 339.903 277.563 340.358 277.265C340.814 276.966 341.34 276.817 341.937 276.817C342.399 276.817 342.764 276.894 343.031 277.048C343.302 277.198 343.508 277.371 343.65 277.565C343.795 277.755 343.907 277.912 343.987 278.036H344.079V274.545H345.169V284H344.116V282.911H343.987C343.907 283.04 343.793 283.203 343.645 283.4C343.498 283.594 343.287 283.768 343.013 283.922C342.739 284.072 342.374 284.148 341.919 284.148ZM342.067 283.169C342.504 283.169 342.873 283.055 343.175 282.827C343.476 282.597 343.705 282.278 343.862 281.872C344.019 281.462 344.098 280.99 344.098 280.455C344.098 279.925 344.021 279.462 343.867 279.065C343.713 278.665 343.485 278.354 343.184 278.132C342.882 277.908 342.51 277.795 342.067 277.795C341.605 277.795 341.22 277.914 340.912 278.151C340.608 278.385 340.378 278.703 340.225 279.107C340.074 279.507 339.998 279.956 339.998 280.455C339.998 280.959 340.075 281.418 340.229 281.83C340.386 282.24 340.617 282.566 340.922 282.809C341.229 283.049 341.611 283.169 342.067 283.169ZM347.316 284V276.909H348.368V277.98H348.442C348.571 277.629 348.805 277.345 349.144 277.126C349.482 276.908 349.864 276.798 350.289 276.798C350.369 276.798 350.469 276.8 350.589 276.803C350.709 276.806 350.799 276.811 350.861 276.817V277.925C350.824 277.915 350.739 277.902 350.607 277.883C350.478 277.862 350.341 277.851 350.196 277.851C349.852 277.851 349.544 277.923 349.273 278.068C349.005 278.209 348.793 278.406 348.636 278.659C348.482 278.908 348.405 279.193 348.405 279.513V284H347.316ZM354.817 284.148C354.177 284.148 353.615 283.995 353.132 283.691C352.652 283.386 352.277 282.96 352.006 282.412C351.738 281.864 351.604 281.224 351.604 280.491C351.604 279.753 351.738 279.108 352.006 278.557C352.277 278.006 352.652 277.578 353.132 277.274C353.615 276.969 354.177 276.817 354.817 276.817C355.457 276.817 356.018 276.969 356.498 277.274C356.981 277.578 357.356 278.006 357.624 278.557C357.895 279.108 358.03 279.753 358.03 280.491C358.03 281.224 357.895 281.864 357.624 282.412C357.356 282.96 356.981 283.386 356.498 283.691C356.018 283.995 355.457 284.148 354.817 284.148ZM354.817 283.169C355.304 283.169 355.704 283.044 356.018 282.795C356.331 282.546 356.564 282.218 356.715 281.812C356.865 281.406 356.941 280.965 356.941 280.491C356.941 280.018 356.865 279.576 356.715 279.167C356.564 278.757 356.331 278.426 356.018 278.174C355.704 277.922 355.304 277.795 354.817 277.795C354.331 277.795 353.931 277.922 353.617 278.174C353.303 278.426 353.071 278.757 352.92 279.167C352.769 279.576 352.694 280.018 352.694 280.491C352.694 280.965 352.769 281.406 352.92 281.812C353.071 282.218 353.303 282.546 353.617 282.795C353.931 283.044 354.331 283.169 354.817 283.169ZM359.693 286.659V276.909H360.746V278.036H360.875C360.955 277.912 361.066 277.755 361.208 277.565C361.352 277.371 361.559 277.198 361.826 277.048C362.097 276.894 362.463 276.817 362.925 276.817C363.522 276.817 364.048 276.966 364.504 277.265C364.959 277.563 365.315 277.986 365.57 278.534C365.826 279.082 365.953 279.728 365.953 280.473C365.953 281.224 365.826 281.875 365.57 282.426C365.315 282.974 364.961 283.398 364.508 283.7C364.056 283.998 363.534 284.148 362.943 284.148C362.488 284.148 362.123 284.072 361.849 283.922C361.575 283.768 361.365 283.594 361.217 283.4C361.069 283.203 360.955 283.04 360.875 282.911H360.783V286.659H359.693ZM360.764 280.455C360.764 280.99 360.843 281.462 361 281.872C361.157 282.278 361.386 282.597 361.688 282.827C361.989 283.055 362.359 283.169 362.796 283.169C363.251 283.169 363.631 283.049 363.936 282.809C364.244 282.566 364.475 282.24 364.628 281.83C364.785 281.418 364.864 280.959 364.864 280.455C364.864 279.956 364.787 279.507 364.633 279.107C364.482 278.703 364.253 278.385 363.945 278.151C363.641 277.914 363.257 277.795 362.796 277.795C362.353 277.795 361.98 277.908 361.679 278.132C361.377 278.354 361.149 278.665 360.995 279.065C360.841 279.462 360.764 279.925 360.764 280.455ZM374.429 276.909V277.832H370.607V276.909H374.429ZM371.752 284V275.93C371.752 275.524 371.847 275.186 372.038 274.915C372.229 274.644 372.476 274.441 372.781 274.305C373.086 274.17 373.407 274.102 373.746 274.102C374.014 274.102 374.232 274.124 374.402 274.167C374.571 274.21 374.697 274.25 374.78 274.287L374.466 275.229C374.411 275.21 374.334 275.187 374.235 275.159C374.14 275.132 374.014 275.118 373.857 275.118C373.497 275.118 373.237 275.209 373.077 275.39C372.92 275.572 372.841 275.838 372.841 276.189V284H371.752ZM375.956 284V276.909H377.046V284H375.956ZM376.51 275.727C376.298 275.727 376.115 275.655 375.961 275.51C375.81 275.366 375.735 275.192 375.735 274.989C375.735 274.786 375.81 274.612 375.961 274.467C376.115 274.322 376.298 274.25 376.51 274.25C376.722 274.25 376.904 274.322 377.055 274.467C377.209 274.612 377.286 274.786 377.286 274.989C377.286 275.192 377.209 275.366 377.055 275.51C376.904 275.655 376.722 275.727 376.51 275.727ZM380.131 274.545V284H379.041V274.545H380.131ZM385.099 284.148C384.416 284.148 383.826 283.997 383.331 283.695C382.839 283.391 382.458 282.966 382.191 282.421C381.926 281.873 381.794 281.236 381.794 280.51C381.794 279.784 381.926 279.143 382.191 278.589C382.458 278.032 382.831 277.598 383.308 277.288C383.788 276.974 384.348 276.817 384.988 276.817C385.358 276.817 385.722 276.878 386.082 277.001C386.442 277.125 386.77 277.325 387.066 277.602C387.361 277.875 387.597 278.239 387.772 278.691C387.947 279.143 388.035 279.701 388.035 280.362V280.824H382.569V279.882H386.927C386.927 279.482 386.847 279.125 386.687 278.811C386.53 278.497 386.306 278.249 386.013 278.068C385.724 277.886 385.382 277.795 384.988 277.795C384.554 277.795 384.179 277.903 383.862 278.119C383.548 278.331 383.306 278.608 383.137 278.95C382.968 279.291 382.883 279.657 382.883 280.048V280.676C382.883 281.212 382.975 281.666 383.16 282.038C383.348 282.407 383.608 282.689 383.94 282.883C384.273 283.074 384.659 283.169 385.099 283.169C385.385 283.169 385.644 283.129 385.875 283.049C386.109 282.966 386.31 282.843 386.479 282.68C386.649 282.513 386.779 282.307 386.872 282.061L387.924 282.357C387.814 282.714 387.627 283.027 387.366 283.298C387.104 283.566 386.781 283.775 386.396 283.926C386.012 284.074 385.579 284.148 385.099 284.148ZM394.715 278.497L393.737 278.774C393.675 278.611 393.584 278.453 393.464 278.299C393.347 278.142 393.187 278.012 392.984 277.911C392.781 277.809 392.521 277.759 392.204 277.759C391.77 277.759 391.408 277.859 391.119 278.059C390.833 278.256 390.69 278.506 390.69 278.811C390.69 279.082 390.788 279.296 390.985 279.453C391.182 279.61 391.49 279.741 391.908 279.845L392.961 280.104C393.595 280.258 394.067 280.493 394.378 280.81C394.689 281.124 394.844 281.529 394.844 282.024C394.844 282.43 394.728 282.794 394.494 283.114C394.263 283.434 393.94 283.686 393.524 283.871C393.109 284.055 392.625 284.148 392.075 284.148C391.351 284.148 390.753 283.991 390.279 283.677C389.805 283.363 389.505 282.904 389.379 282.301L390.413 282.043C390.511 282.424 390.697 282.71 390.971 282.901C391.248 283.092 391.61 283.188 392.056 283.188C392.564 283.188 392.967 283.08 393.266 282.864C393.567 282.646 393.718 282.384 393.718 282.08C393.718 281.833 393.632 281.627 393.46 281.461C393.287 281.292 393.022 281.165 392.665 281.082L391.484 280.805C390.834 280.652 390.357 280.413 390.053 280.09C389.751 279.764 389.6 279.356 389.6 278.866C389.6 278.466 389.712 278.112 389.937 277.805C390.165 277.497 390.474 277.255 390.865 277.08C391.259 276.904 391.705 276.817 392.204 276.817C392.906 276.817 393.456 276.971 393.857 277.278C394.26 277.586 394.546 277.992 394.715 278.497ZM401.23 279.734V284H400.141V274.545H401.23V278.017H401.323C401.489 277.651 401.738 277.36 402.07 277.145C402.406 276.926 402.852 276.817 403.409 276.817C403.892 276.817 404.316 276.914 404.679 277.108C405.042 277.298 405.323 277.592 405.524 277.989C405.727 278.383 405.828 278.885 405.828 279.494V284H404.739V279.568C404.739 279.005 404.593 278.569 404.3 278.262C404.011 277.951 403.609 277.795 403.095 277.795C402.738 277.795 402.418 277.871 402.135 278.022C401.855 278.172 401.633 278.393 401.47 278.682C401.31 278.971 401.23 279.322 401.23 279.734ZM410.794 284.148C410.111 284.148 409.522 283.997 409.026 283.695C408.534 283.391 408.154 282.966 407.886 282.421C407.621 281.873 407.489 281.236 407.489 280.51C407.489 279.784 407.621 279.143 407.886 278.589C408.154 278.032 408.526 277.598 409.003 277.288C409.483 276.974 410.043 276.817 410.684 276.817C411.053 276.817 411.418 276.878 411.778 277.001C412.138 277.125 412.466 277.325 412.761 277.602C413.056 277.875 413.292 278.239 413.467 278.691C413.643 279.143 413.73 279.701 413.73 280.362V280.824H408.265V279.882H412.623C412.623 279.482 412.542 279.125 412.382 278.811C412.225 278.497 412.001 278.249 411.708 278.068C411.419 277.886 411.078 277.795 410.684 277.795C410.25 277.795 409.874 277.903 409.557 278.119C409.243 278.331 409.002 278.608 408.832 278.95C408.663 279.291 408.578 279.657 408.578 280.048V280.676C408.578 281.212 408.671 281.666 408.855 282.038C409.043 282.407 409.303 282.689 409.636 282.883C409.968 283.074 410.354 283.169 410.794 283.169C411.081 283.169 411.339 283.129 411.57 283.049C411.804 282.966 412.005 282.843 412.175 282.68C412.344 282.513 412.475 282.307 412.567 282.061L413.62 282.357C413.509 282.714 413.323 283.027 413.061 283.298C412.799 283.566 412.476 283.775 412.092 283.926C411.707 284.074 411.275 284.148 410.794 284.148ZM415.388 284V276.909H416.44V277.98H416.514C416.643 277.629 416.877 277.345 417.216 277.126C417.554 276.908 417.936 276.798 418.361 276.798C418.441 276.798 418.541 276.8 418.661 276.803C418.781 276.806 418.872 276.811 418.933 276.817V277.925C418.896 277.915 418.812 277.902 418.679 277.883C418.55 277.862 418.413 277.851 418.268 277.851C417.924 277.851 417.616 277.923 417.345 278.068C417.077 278.209 416.865 278.406 416.708 278.659C416.554 278.908 416.477 279.193 416.477 279.513V284H415.388ZM422.982 284.148C422.299 284.148 421.709 283.997 421.214 283.695C420.721 283.391 420.341 282.966 420.074 282.421C419.809 281.873 419.676 281.236 419.676 280.51C419.676 279.784 419.809 279.143 420.074 278.589C420.341 278.032 420.714 277.598 421.191 277.288C421.671 276.974 422.231 276.817 422.871 276.817C423.24 276.817 423.605 276.878 423.965 277.001C424.325 277.125 424.653 277.325 424.949 277.602C425.244 277.875 425.479 278.239 425.655 278.691C425.83 279.143 425.918 279.701 425.918 280.362V280.824H420.452V279.882H424.81C424.81 279.482 424.73 279.125 424.57 278.811C424.413 278.497 424.188 278.249 423.896 278.068C423.607 277.886 423.265 277.795 422.871 277.795C422.437 277.795 422.062 277.903 421.745 278.119C421.431 278.331 421.189 278.608 421.02 278.95C420.851 279.291 420.766 279.657 420.766 280.048V280.676C420.766 281.212 420.858 281.666 421.043 282.038C421.231 282.407 421.491 282.689 421.823 282.883C422.156 283.074 422.542 283.169 422.982 283.169C423.268 283.169 423.527 283.129 423.757 283.049C423.991 282.966 424.193 282.843 424.362 282.68C424.531 282.513 424.662 282.307 424.755 282.061L425.807 282.357C425.696 282.714 425.51 283.027 425.249 283.298C424.987 283.566 424.664 283.775 424.279 283.926C423.894 284.074 423.462 284.148 422.982 284.148ZM434.112 284.148C433.472 284.148 432.91 283.995 432.427 283.691C431.947 283.386 431.572 282.96 431.301 282.412C431.033 281.864 430.899 281.224 430.899 280.491C430.899 279.753 431.033 279.108 431.301 278.557C431.572 278.006 431.947 277.578 432.427 277.274C432.91 276.969 433.472 276.817 434.112 276.817C434.752 276.817 435.313 276.969 435.793 277.274C436.276 277.578 436.651 278.006 436.919 278.557C437.19 279.108 437.325 279.753 437.325 280.491C437.325 281.224 437.19 281.864 436.919 282.412C436.651 282.96 436.276 283.386 435.793 283.691C435.313 283.995 434.752 284.148 434.112 284.148ZM434.112 283.169C434.598 283.169 434.999 283.044 435.312 282.795C435.626 282.546 435.859 282.218 436.01 281.812C436.16 281.406 436.236 280.965 436.236 280.491C436.236 280.018 436.16 279.576 436.01 279.167C435.859 278.757 435.626 278.426 435.312 278.174C434.999 277.922 434.598 277.795 434.112 277.795C433.626 277.795 433.226 277.922 432.912 278.174C432.598 278.426 432.366 278.757 432.215 279.167C432.064 279.576 431.989 280.018 431.989 280.491C431.989 280.965 432.064 281.406 432.215 281.812C432.366 282.218 432.598 282.546 432.912 282.795C433.226 283.044 433.626 283.169 434.112 283.169ZM438.988 284V276.909H440.041V277.98H440.115C440.244 277.629 440.478 277.345 440.816 277.126C441.155 276.908 441.537 276.798 441.961 276.798C442.041 276.798 442.141 276.8 442.261 276.803C442.381 276.806 442.472 276.811 442.534 276.817V277.925C442.497 277.915 442.412 277.902 442.28 277.883C442.151 277.862 442.014 277.851 441.869 277.851C441.524 277.851 441.217 277.923 440.946 278.068C440.678 278.209 440.466 278.406 440.309 278.659C440.155 278.908 440.078 279.193 440.078 279.513V284H438.988Z" fill="#707070"/>
<path d="M455.376 277.62H453.935C453.88 277.312 453.777 277.041 453.626 276.808C453.475 276.574 453.291 276.375 453.072 276.212C452.854 276.049 452.609 275.926 452.338 275.843C452.07 275.76 451.786 275.718 451.484 275.718C450.939 275.718 450.451 275.855 450.021 276.129C449.593 276.403 449.254 276.804 449.005 277.334C448.759 277.863 448.636 278.509 448.636 279.273C448.636 280.042 448.759 280.692 449.005 281.221C449.254 281.75 449.594 282.15 450.025 282.421C450.456 282.692 450.941 282.827 451.479 282.827C451.778 282.827 452.061 282.787 452.329 282.707C452.6 282.624 452.844 282.503 453.063 282.343C453.281 282.183 453.466 281.987 453.617 281.756C453.771 281.522 453.877 281.255 453.935 280.953L455.376 280.958C455.299 281.422 455.15 281.85 454.928 282.241C454.709 282.629 454.428 282.964 454.083 283.248C453.741 283.528 453.351 283.745 452.911 283.898C452.47 284.052 451.99 284.129 451.47 284.129C450.652 284.129 449.922 283.935 449.282 283.548C448.642 283.157 448.137 282.598 447.768 281.872C447.402 281.145 447.218 280.279 447.218 279.273C447.218 278.263 447.403 277.397 447.772 276.674C448.142 275.947 448.646 275.39 449.287 275.002C449.927 274.612 450.655 274.416 451.47 274.416C451.972 274.416 452.44 274.489 452.874 274.633C453.311 274.775 453.703 274.984 454.051 275.261C454.399 275.535 454.686 275.87 454.914 276.267C455.142 276.661 455.296 277.112 455.376 277.62ZM458.352 279.79V284H456.972V274.545H458.334V278.063H458.421C458.588 277.682 458.842 277.378 459.183 277.154C459.525 276.929 459.971 276.817 460.522 276.817C461.008 276.817 461.433 276.917 461.796 277.117C462.162 277.317 462.445 277.615 462.646 278.012C462.849 278.406 462.95 278.899 462.95 279.49V284H461.57V279.656C461.57 279.136 461.436 278.733 461.168 278.446C460.9 278.157 460.528 278.012 460.051 278.012C459.725 278.012 459.432 278.082 459.174 278.22C458.918 278.359 458.717 278.562 458.569 278.83C458.425 279.094 458.352 279.414 458.352 279.79ZM467.779 284.143C467.114 284.143 466.534 283.991 466.039 283.686C465.543 283.381 465.158 282.955 464.884 282.407C464.611 281.859 464.474 281.219 464.474 280.487C464.474 279.751 464.611 279.108 464.884 278.557C465.158 278.006 465.543 277.578 466.039 277.274C466.534 276.969 467.114 276.817 467.779 276.817C468.444 276.817 469.024 276.969 469.519 277.274C470.015 277.578 470.4 278.006 470.674 278.557C470.947 279.108 471.084 279.751 471.084 280.487C471.084 281.219 470.947 281.859 470.674 282.407C470.4 282.955 470.015 283.381 469.519 283.686C469.024 283.991 468.444 284.143 467.779 284.143ZM467.784 282.984C468.215 282.984 468.572 282.871 468.855 282.643C469.138 282.415 469.347 282.112 469.483 281.733C469.621 281.355 469.69 280.938 469.69 280.482C469.69 280.03 469.621 279.614 469.483 279.236C469.347 278.854 469.138 278.548 468.855 278.317C468.572 278.086 468.215 277.971 467.784 277.971C467.35 277.971 466.99 278.086 466.703 278.317C466.42 278.548 466.209 278.854 466.071 279.236C465.936 279.614 465.868 280.03 465.868 280.482C465.868 280.938 465.936 281.355 466.071 281.733C466.209 282.112 466.42 282.415 466.703 282.643C466.99 282.871 467.35 282.984 467.784 282.984ZM475.612 284.143C474.947 284.143 474.367 283.991 473.872 283.686C473.376 283.381 472.991 282.955 472.718 282.407C472.444 281.859 472.307 281.219 472.307 280.487C472.307 279.751 472.444 279.108 472.718 278.557C472.991 278.006 473.376 277.578 473.872 277.274C474.367 276.969 474.947 276.817 475.612 276.817C476.277 276.817 476.857 276.969 477.352 277.274C477.848 277.578 478.233 278.006 478.507 278.557C478.78 279.108 478.917 279.751 478.917 280.487C478.917 281.219 478.78 281.859 478.507 282.407C478.233 282.955 477.848 283.381 477.352 283.686C476.857 283.991 476.277 284.143 475.612 284.143ZM475.617 282.984C476.048 282.984 476.405 282.871 476.688 282.643C476.971 282.415 477.18 282.112 477.316 281.733C477.454 281.355 477.523 280.938 477.523 280.482C477.523 280.03 477.454 279.614 477.316 279.236C477.18 278.854 476.971 278.548 476.688 278.317C476.405 278.086 476.048 277.971 475.617 277.971C475.183 277.971 474.823 278.086 474.536 278.317C474.253 278.548 474.042 278.854 473.904 279.236C473.769 279.614 473.701 280.03 473.701 280.482C473.701 280.938 473.769 281.355 473.904 281.733C474.042 282.112 474.253 282.415 474.536 282.643C474.823 282.871 475.183 282.984 475.617 282.984ZM485.772 278.64L484.521 278.862C484.468 278.702 484.385 278.549 484.271 278.405C484.161 278.26 484.01 278.142 483.819 278.049C483.628 277.957 483.39 277.911 483.103 277.911C482.713 277.911 482.386 277.999 482.125 278.174C481.863 278.346 481.732 278.569 481.732 278.843C481.732 279.08 481.82 279.271 481.995 279.416C482.171 279.56 482.454 279.679 482.845 279.771L483.971 280.03C484.624 280.181 485.11 280.413 485.43 280.727C485.75 281.041 485.91 281.449 485.91 281.95C485.91 282.375 485.787 282.754 485.541 283.086C485.298 283.415 484.958 283.674 484.521 283.862C484.087 284.049 483.584 284.143 483.011 284.143C482.217 284.143 481.569 283.974 481.068 283.635C480.566 283.294 480.258 282.809 480.144 282.181L481.478 281.978C481.562 282.326 481.732 282.589 481.991 282.767C482.249 282.943 482.586 283.031 483.002 283.031C483.454 283.031 483.816 282.937 484.087 282.749C484.358 282.558 484.493 282.326 484.493 282.052C484.493 281.83 484.41 281.644 484.244 281.493C484.081 281.342 483.83 281.229 483.491 281.152L482.291 280.888C481.629 280.738 481.14 280.498 480.823 280.168C480.509 279.839 480.352 279.422 480.352 278.917C480.352 278.499 480.469 278.132 480.703 277.819C480.937 277.505 481.26 277.26 481.672 277.085C482.085 276.906 482.557 276.817 483.09 276.817C483.856 276.817 484.459 276.983 484.899 277.315C485.339 277.645 485.63 278.086 485.772 278.64ZM490.484 284.143C489.785 284.143 489.184 283.994 488.679 283.695C488.177 283.394 487.79 282.971 487.516 282.426C487.245 281.878 487.109 281.236 487.109 280.501C487.109 279.774 487.245 279.134 487.516 278.58C487.79 278.026 488.171 277.594 488.661 277.283C489.153 276.972 489.728 276.817 490.387 276.817C490.787 276.817 491.175 276.883 491.55 277.015C491.926 277.148 492.263 277.355 492.561 277.638C492.86 277.922 493.095 278.289 493.268 278.742C493.44 279.191 493.526 279.737 493.526 280.381V280.87H487.89V279.836H492.174C492.174 279.473 492.1 279.151 491.952 278.871C491.804 278.588 491.597 278.365 491.329 278.202C491.064 278.039 490.753 277.957 490.396 277.957C490.009 277.957 489.67 278.052 489.381 278.243C489.094 278.431 488.873 278.677 488.716 278.982C488.562 279.283 488.485 279.611 488.485 279.965V280.773C488.485 281.247 488.568 281.65 488.734 281.983C488.904 282.315 489.139 282.569 489.441 282.744C489.742 282.917 490.095 283.003 490.498 283.003C490.759 283.003 490.998 282.966 491.213 282.892C491.429 282.815 491.615 282.701 491.772 282.55C491.929 282.4 492.049 282.213 492.132 281.992L493.439 282.227C493.334 282.612 493.146 282.949 492.875 283.238C492.608 283.525 492.271 283.748 491.864 283.908C491.461 284.065 491.001 284.143 490.484 284.143ZM498.609 284V274.545H504.472V275.773H500.036V278.654H504.052V279.877H500.036V284H498.609ZM506.115 284V276.909H507.496V284H506.115ZM506.812 275.815C506.572 275.815 506.366 275.735 506.194 275.575C506.025 275.412 505.94 275.218 505.94 274.993C505.94 274.766 506.025 274.572 506.194 274.412C506.366 274.248 506.572 274.167 506.812 274.167C507.053 274.167 507.257 274.248 507.426 274.412C507.599 274.572 507.685 274.766 507.685 274.993C507.685 275.218 507.599 275.412 507.426 275.575C507.257 275.735 507.053 275.815 506.812 275.815ZM510.733 274.545V284H509.353V274.545H510.733ZM515.646 284.143C514.948 284.143 514.346 283.994 513.841 283.695C513.339 283.394 512.952 282.971 512.678 282.426C512.407 281.878 512.271 281.236 512.271 280.501C512.271 279.774 512.407 279.134 512.678 278.58C512.952 278.026 513.333 277.594 513.823 277.283C514.315 276.972 514.891 276.817 515.549 276.817C515.949 276.817 516.337 276.883 516.713 277.015C517.088 277.148 517.425 277.355 517.724 277.638C518.022 277.922 518.258 278.289 518.43 278.742C518.602 279.191 518.688 279.737 518.688 280.381V280.87H513.052V279.836H517.336C517.336 279.473 517.262 279.151 517.114 278.871C516.966 278.588 516.759 278.365 516.491 278.202C516.226 278.039 515.915 277.957 515.558 277.957C515.171 277.957 514.832 278.052 514.543 278.243C514.257 278.431 514.035 278.677 513.878 278.982C513.724 279.283 513.647 279.611 513.647 279.965V280.773C513.647 281.247 513.73 281.65 513.896 281.983C514.066 282.315 514.301 282.569 514.603 282.744C514.904 282.917 515.257 283.003 515.66 283.003C515.922 283.003 516.16 282.966 516.376 282.892C516.591 282.815 516.777 282.701 516.934 282.55C517.091 282.4 517.211 282.213 517.294 281.992L518.601 282.227C518.496 282.612 518.308 282.949 518.037 283.238C517.77 283.525 517.433 283.748 517.026 283.908C516.623 284.065 516.163 284.143 515.646 284.143Z" fill="#217CF5"/>
<rect x="79.5" y="193.5" width="639" height="127" rx="2.5" stroke="#DDDDDD" stroke-linejoin="round" stroke-dasharray="2 2"/>
<g clip-path="url(#clip4_932_40400)">
<rect x="708" y="272" width="48" height="1" fill="#C54600"/>
<g clip-path="url(#clip5_932_40400)">
<rect x="732" y="260" width="24" height="24" rx="12" fill="#C54600"/>
<path d="M744.032 276.119C743.469 276.119 742.968 276.023 742.528 275.83C742.09 275.636 741.742 275.368 741.484 275.024C741.228 274.678 741.089 274.276 741.066 273.818H742.14C742.163 274.099 742.259 274.342 742.43 274.547C742.6 274.749 742.823 274.905 743.099 275.016C743.374 275.126 743.68 275.182 744.015 275.182C744.39 275.182 744.722 275.116 745.012 274.986C745.302 274.855 745.529 274.673 745.694 274.44C745.859 274.207 745.941 273.938 745.941 273.631C745.941 273.31 745.862 273.027 745.702 272.783C745.543 272.536 745.31 272.342 745.004 272.203C744.697 272.064 744.322 271.994 743.879 271.994H743.18V271.057H743.879C744.225 271.057 744.529 270.994 744.79 270.869C745.055 270.744 745.261 270.568 745.408 270.341C745.559 270.114 745.634 269.847 745.634 269.54C745.634 269.244 745.569 268.987 745.438 268.768C745.308 268.55 745.123 268.379 744.884 268.257C744.648 268.135 744.37 268.074 744.049 268.074C743.748 268.074 743.464 268.129 743.197 268.24C742.933 268.348 742.717 268.506 742.549 268.713C742.381 268.918 742.29 269.165 742.276 269.455H741.254C741.271 268.997 741.408 268.597 741.667 268.253C741.925 267.906 742.263 267.636 742.681 267.443C743.102 267.25 743.563 267.153 744.066 267.153C744.606 267.153 745.069 267.263 745.455 267.482C745.842 267.697 746.138 267.983 746.346 268.338C746.553 268.693 746.657 269.077 746.657 269.489C746.657 269.98 746.528 270.399 746.269 270.746C746.013 271.092 745.665 271.332 745.225 271.466V271.534C745.776 271.625 746.207 271.859 746.516 272.237C746.826 272.612 746.981 273.077 746.981 273.631C746.981 274.105 746.852 274.531 746.593 274.909C746.337 275.284 745.988 275.58 745.545 275.795C745.102 276.011 744.597 276.119 744.032 276.119Z" fill="white"/>
</g>
</g>
<defs>
<clipPath id="clip0_932_40400">
<rect width="48" height="24" fill="white" transform="translate(115 100)"/>
</clipPath>
<clipPath id="clip1_932_40400">
<rect x="115" y="100" width="24" height="24" rx="12" fill="white"/>
</clipPath>
<clipPath id="clip2_932_40400">
<rect width="24" height="51.2727" fill="white" transform="translate(682.273 100) rotate(90)"/>
</clipPath>
<clipPath id="clip3_932_40400">
<rect x="658.273" y="100" width="24" height="24" rx="12" fill="white"/>
</clipPath>
<clipPath id="clip4_932_40400">
<rect width="48" height="24" fill="white" transform="translate(708 260)"/>
</clipPath>
<clipPath id="clip5_932_40400">
<rect x="732" y="260" width="24" height="24" rx="12" fill="white"/>
</clipPath>
</defs>
</svg>
