<svg width="804" height="270" viewBox="0 0 804 270" fill="none" xmlns="http://www.w3.org/2000/svg">
<rect width="804" height="270" fill="#F9FAFB"/>
<rect x="82.5" y="69.5" width="639" height="127" rx="2.5" fill="#E9F2FE"/>
<path d="M414 121V126.333C414 127.041 413.719 127.719 413.219 128.219C412.719 128.719 412.041 129 411.333 129H392.667C391.959 129 391.281 128.719 390.781 128.219C390.281 127.719 390 127.041 390 126.333V121M408.667 111.667L402 105M402 105L395.333 111.667M402 105V121" stroke="#9E9E9E" stroke-width="2" stroke-linecap="round" stroke-linejoin="round"/>
<path d="M285.562 160H282.645V150.545H285.692C286.609 150.545 287.394 150.735 288.046 151.113C288.699 151.489 289.199 152.029 289.547 152.734C289.894 153.435 290.068 154.276 290.068 155.254C290.068 156.239 289.893 157.087 289.542 157.798C289.191 158.506 288.68 159.051 288.009 159.432C287.338 159.811 286.523 160 285.562 160ZM283.79 158.984H285.489C286.27 158.984 286.918 158.834 287.432 158.532C287.946 158.23 288.329 157.801 288.582 157.244C288.834 156.687 288.96 156.024 288.96 155.254C288.96 154.491 288.836 153.834 288.586 153.283C288.337 152.729 287.965 152.304 287.469 152.009C286.974 151.71 286.357 151.561 285.618 151.561H283.79V158.984ZM291.841 160V152.909H292.893V153.98H292.967C293.097 153.629 293.33 153.345 293.669 153.126C294.008 152.908 294.389 152.798 294.814 152.798C294.894 152.798 294.994 152.8 295.114 152.803C295.234 152.806 295.325 152.811 295.386 152.817V153.925C295.349 153.915 295.265 153.902 295.132 153.883C295.003 153.862 294.866 153.851 294.722 153.851C294.377 153.851 294.069 153.923 293.798 154.068C293.531 154.209 293.318 154.406 293.161 154.659C293.007 154.908 292.93 155.193 292.93 155.513V160H291.841ZM298.764 160.166C298.315 160.166 297.907 160.082 297.541 159.912C297.175 159.74 296.884 159.492 296.669 159.169C296.453 158.843 296.345 158.449 296.345 157.987C296.345 157.581 296.425 157.252 296.585 156.999C296.746 156.744 296.959 156.544 297.227 156.399C297.495 156.254 297.79 156.147 298.114 156.076C298.44 156.002 298.768 155.944 299.097 155.901C299.528 155.845 299.877 155.804 300.145 155.776C300.416 155.745 300.613 155.694 300.736 155.624C300.862 155.553 300.925 155.43 300.925 155.254V155.217C300.925 154.762 300.8 154.408 300.551 154.156C300.305 153.903 299.931 153.777 299.429 153.777C298.909 153.777 298.501 153.891 298.206 154.119C297.91 154.346 297.703 154.589 297.583 154.848L296.549 154.479C296.733 154.048 296.979 153.712 297.287 153.472C297.598 153.229 297.937 153.06 298.303 152.964C298.672 152.866 299.035 152.817 299.392 152.817C299.62 152.817 299.882 152.844 300.177 152.9C300.476 152.952 300.763 153.061 301.04 153.228C301.32 153.394 301.553 153.645 301.737 153.98C301.922 154.316 302.014 154.765 302.014 155.328V160H300.925V159.04H300.87C300.796 159.194 300.673 159.358 300.5 159.534C300.328 159.709 300.099 159.858 299.812 159.982C299.526 160.105 299.177 160.166 298.764 160.166ZM298.931 159.188C299.362 159.188 299.725 159.103 300.02 158.934C300.319 158.764 300.543 158.546 300.694 158.278C300.848 158.01 300.925 157.729 300.925 157.433V156.436C300.879 156.491 300.777 156.542 300.62 156.588C300.466 156.632 300.288 156.67 300.085 156.704C299.885 156.735 299.689 156.762 299.498 156.787C299.311 156.808 299.158 156.827 299.041 156.842C298.758 156.879 298.494 156.939 298.247 157.022C298.004 157.102 297.807 157.224 297.657 157.387C297.509 157.547 297.435 157.766 297.435 158.043C297.435 158.421 297.575 158.707 297.855 158.901C298.138 159.092 298.497 159.188 298.931 159.188ZM306.865 162.807C306.339 162.807 305.887 162.739 305.508 162.604C305.129 162.471 304.814 162.296 304.562 162.077C304.312 161.862 304.114 161.631 303.966 161.385L304.834 160.776C304.932 160.905 305.057 161.053 305.208 161.219C305.359 161.388 305.565 161.534 305.827 161.657C306.091 161.783 306.437 161.847 306.865 161.847C307.438 161.847 307.91 161.708 308.282 161.431C308.655 161.154 308.841 160.72 308.841 160.129V158.689H308.749C308.669 158.818 308.555 158.978 308.407 159.169C308.262 159.357 308.053 159.525 307.779 159.672C307.508 159.817 307.142 159.889 306.681 159.889C306.108 159.889 305.594 159.754 305.139 159.483C304.686 159.212 304.328 158.818 304.063 158.301C303.801 157.784 303.671 157.156 303.671 156.418C303.671 155.691 303.798 155.059 304.054 154.52C304.309 153.979 304.665 153.56 305.12 153.265C305.576 152.966 306.102 152.817 306.699 152.817C307.161 152.817 307.527 152.894 307.798 153.048C308.072 153.198 308.281 153.371 308.426 153.565C308.573 153.755 308.687 153.912 308.767 154.036H308.878V152.909H309.931V160.203C309.931 160.812 309.792 161.308 309.515 161.69C309.241 162.074 308.872 162.356 308.407 162.534C307.945 162.716 307.432 162.807 306.865 162.807ZM306.828 158.911C307.265 158.911 307.635 158.81 307.936 158.61C308.238 158.41 308.467 158.123 308.624 157.747C308.781 157.372 308.86 156.922 308.86 156.399C308.86 155.888 308.783 155.437 308.629 155.047C308.475 154.656 308.247 154.349 307.945 154.128C307.644 153.906 307.271 153.795 306.828 153.795C306.367 153.795 305.982 153.912 305.674 154.146C305.369 154.38 305.14 154.694 304.986 155.088C304.836 155.482 304.76 155.919 304.76 156.399C304.76 156.892 304.837 157.327 304.991 157.706C305.148 158.081 305.379 158.377 305.683 158.592C305.991 158.804 306.373 158.911 306.828 158.911ZM317.668 160.166C317.218 160.166 316.811 160.082 316.444 159.912C316.078 159.74 315.787 159.492 315.572 159.169C315.356 158.843 315.249 158.449 315.249 157.987C315.249 157.581 315.329 157.252 315.489 156.999C315.649 156.744 315.863 156.544 316.131 156.399C316.398 156.254 316.694 156.147 317.017 156.076C317.343 156.002 317.671 155.944 318 155.901C318.431 155.845 318.78 155.804 319.048 155.776C319.319 155.745 319.516 155.694 319.639 155.624C319.765 155.553 319.828 155.43 319.828 155.254V155.217C319.828 154.762 319.704 154.408 319.454 154.156C319.208 153.903 318.834 153.777 318.333 153.777C317.812 153.777 317.405 153.891 317.109 154.119C316.814 154.346 316.606 154.589 316.486 154.848L315.452 154.479C315.637 154.048 315.883 153.712 316.191 153.472C316.501 153.229 316.84 153.06 317.206 152.964C317.575 152.866 317.939 152.817 318.296 152.817C318.523 152.817 318.785 152.844 319.08 152.9C319.379 152.952 319.667 153.061 319.944 153.228C320.224 153.394 320.456 153.645 320.641 153.98C320.825 154.316 320.918 154.765 320.918 155.328V160H319.828V159.04H319.773C319.699 159.194 319.576 159.358 319.404 159.534C319.231 159.709 319.002 159.858 318.716 159.982C318.43 160.105 318.08 160.166 317.668 160.166ZM317.834 159.188C318.265 159.188 318.628 159.103 318.923 158.934C319.222 158.764 319.447 158.546 319.597 158.278C319.751 158.01 319.828 157.729 319.828 157.433V156.436C319.782 156.491 319.681 156.542 319.524 156.588C319.37 156.632 319.191 156.67 318.988 156.704C318.788 156.735 318.593 156.762 318.402 156.787C318.214 156.808 318.062 156.827 317.945 156.842C317.662 156.879 317.397 156.939 317.151 157.022C316.908 157.102 316.711 157.224 316.56 157.387C316.412 157.547 316.338 157.766 316.338 158.043C316.338 158.421 316.478 158.707 316.758 158.901C317.041 159.092 317.4 159.188 317.834 159.188ZM323.996 155.734V160H322.906V152.909H323.959V154.017H324.051C324.217 153.657 324.47 153.368 324.808 153.149C325.147 152.928 325.584 152.817 326.119 152.817C326.6 152.817 327.02 152.915 327.38 153.112C327.74 153.306 328.02 153.602 328.22 153.999C328.42 154.393 328.52 154.891 328.52 155.494V160H327.43V155.568C327.43 155.011 327.286 154.577 326.997 154.266C326.707 153.952 326.31 153.795 325.805 153.795C325.458 153.795 325.147 153.871 324.873 154.022C324.602 154.172 324.388 154.393 324.231 154.682C324.074 154.971 323.996 155.322 323.996 155.734ZM333.188 160.148C332.597 160.148 332.076 159.998 331.623 159.7C331.171 159.398 330.817 158.974 330.562 158.426C330.306 157.875 330.178 157.224 330.178 156.473C330.178 155.728 330.306 155.082 330.562 154.534C330.817 153.986 331.173 153.563 331.628 153.265C332.084 152.966 332.61 152.817 333.207 152.817C333.669 152.817 334.033 152.894 334.301 153.048C334.572 153.198 334.778 153.371 334.92 153.565C335.064 153.755 335.177 153.912 335.257 154.036H335.349V150.545H336.438V160H335.386V158.911H335.257C335.177 159.04 335.063 159.203 334.915 159.4C334.767 159.594 334.556 159.768 334.282 159.922C334.009 160.072 333.644 160.148 333.188 160.148ZM333.336 159.169C333.773 159.169 334.142 159.055 334.444 158.827C334.746 158.597 334.975 158.278 335.132 157.872C335.289 157.462 335.367 156.99 335.367 156.455C335.367 155.925 335.29 155.462 335.137 155.065C334.983 154.665 334.755 154.354 334.453 154.132C334.152 153.908 333.779 153.795 333.336 153.795C332.874 153.795 332.49 153.914 332.182 154.151C331.877 154.385 331.648 154.703 331.494 155.107C331.343 155.507 331.268 155.956 331.268 156.455C331.268 156.959 331.345 157.418 331.499 157.83C331.656 158.24 331.887 158.566 332.191 158.809C332.499 159.049 332.881 159.169 333.336 159.169ZM344.919 160.148C344.328 160.148 343.806 159.998 343.354 159.7C342.901 159.398 342.548 158.974 342.292 158.426C342.037 157.875 341.909 157.224 341.909 156.473C341.909 155.728 342.037 155.082 342.292 154.534C342.548 153.986 342.903 153.563 343.358 153.265C343.814 152.966 344.34 152.817 344.937 152.817C345.399 152.817 345.764 152.894 346.031 153.048C346.302 153.198 346.508 153.371 346.65 153.565C346.795 153.755 346.907 153.912 346.987 154.036H347.079V150.545H348.169V160H347.116V158.911H346.987C346.907 159.04 346.793 159.203 346.645 159.4C346.498 159.594 346.287 159.768 346.013 159.922C345.739 160.072 345.374 160.148 344.919 160.148ZM345.067 159.169C345.504 159.169 345.873 159.055 346.175 158.827C346.476 158.597 346.705 158.278 346.862 157.872C347.019 157.462 347.098 156.99 347.098 156.455C347.098 155.925 347.021 155.462 346.867 155.065C346.713 154.665 346.485 154.354 346.184 154.132C345.882 153.908 345.51 153.795 345.067 153.795C344.605 153.795 344.22 153.914 343.912 154.151C343.608 154.385 343.378 154.703 343.225 155.107C343.074 155.507 342.998 155.956 342.998 156.455C342.998 156.959 343.075 157.418 343.229 157.83C343.386 158.24 343.617 158.566 343.922 158.809C344.229 159.049 344.611 159.169 345.067 159.169ZM350.316 160V152.909H351.368V153.98H351.442C351.571 153.629 351.805 153.345 352.144 153.126C352.482 152.908 352.864 152.798 353.289 152.798C353.369 152.798 353.469 152.8 353.589 152.803C353.709 152.806 353.799 152.811 353.861 152.817V153.925C353.824 153.915 353.739 153.902 353.607 153.883C353.478 153.862 353.341 153.851 353.196 153.851C352.852 153.851 352.544 153.923 352.273 154.068C352.005 154.209 351.793 154.406 351.636 154.659C351.482 154.908 351.405 155.193 351.405 155.513V160H350.316ZM357.817 160.148C357.177 160.148 356.615 159.995 356.132 159.691C355.652 159.386 355.277 158.96 355.006 158.412C354.738 157.864 354.604 157.224 354.604 156.491C354.604 155.753 354.738 155.108 355.006 154.557C355.277 154.006 355.652 153.578 356.132 153.274C356.615 152.969 357.177 152.817 357.817 152.817C358.457 152.817 359.018 152.969 359.498 153.274C359.981 153.578 360.356 154.006 360.624 154.557C360.895 155.108 361.03 155.753 361.03 156.491C361.03 157.224 360.895 157.864 360.624 158.412C360.356 158.96 359.981 159.386 359.498 159.691C359.018 159.995 358.457 160.148 357.817 160.148ZM357.817 159.169C358.304 159.169 358.704 159.044 359.018 158.795C359.331 158.546 359.564 158.218 359.715 157.812C359.865 157.406 359.941 156.965 359.941 156.491C359.941 156.018 359.865 155.576 359.715 155.167C359.564 154.757 359.331 154.426 359.018 154.174C358.704 153.922 358.304 153.795 357.817 153.795C357.331 153.795 356.931 153.922 356.617 154.174C356.303 154.426 356.071 154.757 355.92 155.167C355.769 155.576 355.694 156.018 355.694 156.491C355.694 156.965 355.769 157.406 355.92 157.812C356.071 158.218 356.303 158.546 356.617 158.795C356.931 159.044 357.331 159.169 357.817 159.169ZM362.693 162.659V152.909H363.746V154.036H363.875C363.955 153.912 364.066 153.755 364.208 153.565C364.352 153.371 364.559 153.198 364.826 153.048C365.097 152.894 365.463 152.817 365.925 152.817C366.522 152.817 367.048 152.966 367.504 153.265C367.959 153.563 368.315 153.986 368.57 154.534C368.826 155.082 368.953 155.728 368.953 156.473C368.953 157.224 368.826 157.875 368.57 158.426C368.315 158.974 367.961 159.398 367.508 159.7C367.056 159.998 366.534 160.148 365.943 160.148C365.488 160.148 365.123 160.072 364.849 159.922C364.575 159.768 364.365 159.594 364.217 159.4C364.069 159.203 363.955 159.04 363.875 158.911H363.783V162.659H362.693ZM363.764 156.455C363.764 156.99 363.843 157.462 364 157.872C364.157 158.278 364.386 158.597 364.688 158.827C364.989 159.055 365.359 159.169 365.796 159.169C366.251 159.169 366.631 159.049 366.936 158.809C367.244 158.566 367.475 158.24 367.628 157.83C367.785 157.418 367.864 156.959 367.864 156.455C367.864 155.956 367.787 155.507 367.633 155.107C367.482 154.703 367.253 154.385 366.945 154.151C366.641 153.914 366.257 153.795 365.796 153.795C365.353 153.795 364.98 153.908 364.679 154.132C364.377 154.354 364.149 154.665 363.995 155.065C363.841 155.462 363.764 155.925 363.764 156.455ZM377.429 152.909V153.832H373.607V152.909H377.429ZM374.752 160V151.93C374.752 151.524 374.847 151.186 375.038 150.915C375.229 150.644 375.476 150.441 375.781 150.305C376.086 150.17 376.407 150.102 376.746 150.102C377.014 150.102 377.232 150.124 377.402 150.167C377.571 150.21 377.697 150.25 377.78 150.287L377.466 151.229C377.411 151.21 377.334 151.187 377.235 151.159C377.14 151.132 377.014 151.118 376.857 151.118C376.497 151.118 376.237 151.209 376.077 151.39C375.92 151.572 375.841 151.838 375.841 152.189V160H374.752ZM378.956 160V152.909H380.046V160H378.956ZM379.51 151.727C379.298 151.727 379.115 151.655 378.961 151.51C378.81 151.366 378.735 151.192 378.735 150.989C378.735 150.786 378.81 150.612 378.961 150.467C379.115 150.322 379.298 150.25 379.51 150.25C379.722 150.25 379.904 150.322 380.055 150.467C380.209 150.612 380.286 150.786 380.286 150.989C380.286 151.192 380.209 151.366 380.055 151.51C379.904 151.655 379.722 151.727 379.51 151.727ZM383.131 150.545V160H382.041V150.545H383.131ZM388.099 160.148C387.416 160.148 386.826 159.997 386.331 159.695C385.839 159.391 385.458 158.966 385.191 158.421C384.926 157.873 384.794 157.236 384.794 156.51C384.794 155.784 384.926 155.143 385.191 154.589C385.458 154.032 385.831 153.598 386.308 153.288C386.788 152.974 387.348 152.817 387.988 152.817C388.358 152.817 388.722 152.878 389.082 153.001C389.442 153.125 389.77 153.325 390.066 153.602C390.361 153.875 390.597 154.239 390.772 154.691C390.947 155.143 391.035 155.701 391.035 156.362V156.824H385.569V155.882H389.927C389.927 155.482 389.847 155.125 389.687 154.811C389.53 154.497 389.306 154.249 389.013 154.068C388.724 153.886 388.382 153.795 387.988 153.795C387.554 153.795 387.179 153.903 386.862 154.119C386.548 154.331 386.306 154.608 386.137 154.95C385.968 155.291 385.883 155.657 385.883 156.048V156.676C385.883 157.212 385.975 157.666 386.16 158.038C386.348 158.407 386.608 158.689 386.94 158.883C387.273 159.074 387.659 159.169 388.099 159.169C388.385 159.169 388.644 159.129 388.875 159.049C389.109 158.966 389.31 158.843 389.479 158.68C389.649 158.513 389.779 158.307 389.872 158.061L390.924 158.357C390.814 158.714 390.627 159.027 390.366 159.298C390.104 159.566 389.781 159.775 389.396 159.926C389.012 160.074 388.579 160.148 388.099 160.148ZM397.715 154.497L396.737 154.774C396.675 154.611 396.584 154.453 396.464 154.299C396.347 154.142 396.187 154.012 395.984 153.911C395.781 153.809 395.521 153.759 395.204 153.759C394.77 153.759 394.408 153.859 394.119 154.059C393.833 154.256 393.69 154.506 393.69 154.811C393.69 155.082 393.788 155.296 393.985 155.453C394.182 155.61 394.49 155.741 394.908 155.845L395.961 156.104C396.595 156.258 397.067 156.493 397.378 156.81C397.689 157.124 397.844 157.529 397.844 158.024C397.844 158.43 397.728 158.794 397.494 159.114C397.263 159.434 396.94 159.686 396.524 159.871C396.109 160.055 395.625 160.148 395.075 160.148C394.351 160.148 393.753 159.991 393.279 159.677C392.805 159.363 392.505 158.904 392.379 158.301L393.413 158.043C393.511 158.424 393.697 158.71 393.971 158.901C394.248 159.092 394.61 159.188 395.056 159.188C395.564 159.188 395.967 159.08 396.266 158.864C396.567 158.646 396.718 158.384 396.718 158.08C396.718 157.833 396.632 157.627 396.46 157.461C396.287 157.292 396.022 157.165 395.665 157.082L394.484 156.805C393.834 156.652 393.357 156.413 393.053 156.09C392.751 155.764 392.6 155.356 392.6 154.866C392.6 154.466 392.712 154.112 392.937 153.805C393.165 153.497 393.474 153.255 393.865 153.08C394.259 152.904 394.705 152.817 395.204 152.817C395.906 152.817 396.456 152.971 396.857 153.278C397.26 153.586 397.546 153.992 397.715 154.497ZM404.23 155.734V160H403.141V150.545H404.23V154.017H404.323C404.489 153.651 404.738 153.36 405.07 153.145C405.406 152.926 405.852 152.817 406.409 152.817C406.892 152.817 407.316 152.914 407.679 153.108C408.042 153.298 408.323 153.592 408.524 153.989C408.727 154.383 408.828 154.885 408.828 155.494V160H407.739V155.568C407.739 155.005 407.593 154.569 407.3 154.262C407.011 153.951 406.609 153.795 406.095 153.795C405.738 153.795 405.418 153.871 405.135 154.022C404.855 154.172 404.633 154.393 404.47 154.682C404.31 154.971 404.23 155.322 404.23 155.734ZM413.794 160.148C413.111 160.148 412.522 159.997 412.026 159.695C411.534 159.391 411.154 158.966 410.886 158.421C410.621 157.873 410.489 157.236 410.489 156.51C410.489 155.784 410.621 155.143 410.886 154.589C411.154 154.032 411.526 153.598 412.003 153.288C412.483 152.974 413.043 152.817 413.684 152.817C414.053 152.817 414.418 152.878 414.778 153.001C415.138 153.125 415.466 153.325 415.761 153.602C416.056 153.875 416.292 154.239 416.467 154.691C416.643 155.143 416.73 155.701 416.73 156.362V156.824H411.265V155.882H415.623C415.623 155.482 415.542 155.125 415.382 154.811C415.225 154.497 415.001 154.249 414.708 154.068C414.419 153.886 414.078 153.795 413.684 153.795C413.25 153.795 412.874 153.903 412.557 154.119C412.243 154.331 412.002 154.608 411.832 154.95C411.663 155.291 411.578 155.657 411.578 156.048V156.676C411.578 157.212 411.671 157.666 411.855 158.038C412.043 158.407 412.303 158.689 412.636 158.883C412.968 159.074 413.354 159.169 413.794 159.169C414.081 159.169 414.339 159.129 414.57 159.049C414.804 158.966 415.005 158.843 415.175 158.68C415.344 158.513 415.475 158.307 415.567 158.061L416.62 158.357C416.509 158.714 416.323 159.027 416.061 159.298C415.799 159.566 415.476 159.775 415.092 159.926C414.707 160.074 414.275 160.148 413.794 160.148ZM418.388 160V152.909H419.44V153.98H419.514C419.643 153.629 419.877 153.345 420.216 153.126C420.554 152.908 420.936 152.798 421.361 152.798C421.441 152.798 421.541 152.8 421.661 152.803C421.781 152.806 421.872 152.811 421.933 152.817V153.925C421.896 153.915 421.812 153.902 421.679 153.883C421.55 153.862 421.413 153.851 421.268 153.851C420.924 153.851 420.616 153.923 420.345 154.068C420.077 154.209 419.865 154.406 419.708 154.659C419.554 154.908 419.477 155.193 419.477 155.513V160H418.388ZM425.982 160.148C425.299 160.148 424.709 159.997 424.214 159.695C423.721 159.391 423.341 158.966 423.074 158.421C422.809 157.873 422.676 157.236 422.676 156.51C422.676 155.784 422.809 155.143 423.074 154.589C423.341 154.032 423.714 153.598 424.191 153.288C424.671 152.974 425.231 152.817 425.871 152.817C426.24 152.817 426.605 152.878 426.965 153.001C427.325 153.125 427.653 153.325 427.949 153.602C428.244 153.875 428.479 154.239 428.655 154.691C428.83 155.143 428.918 155.701 428.918 156.362V156.824H423.452V155.882H427.81C427.81 155.482 427.73 155.125 427.57 154.811C427.413 154.497 427.188 154.249 426.896 154.068C426.607 153.886 426.265 153.795 425.871 153.795C425.437 153.795 425.062 153.903 424.745 154.119C424.431 154.331 424.189 154.608 424.02 154.95C423.851 155.291 423.766 155.657 423.766 156.048V156.676C423.766 157.212 423.858 157.666 424.043 158.038C424.231 158.407 424.491 158.689 424.823 158.883C425.156 159.074 425.542 159.169 425.982 159.169C426.268 159.169 426.527 159.129 426.757 159.049C426.991 158.966 427.193 158.843 427.362 158.68C427.531 158.513 427.662 158.307 427.755 158.061L428.807 158.357C428.696 158.714 428.51 159.027 428.249 159.298C427.987 159.566 427.664 159.775 427.279 159.926C426.894 160.074 426.462 160.148 425.982 160.148ZM437.112 160.148C436.472 160.148 435.91 159.995 435.427 159.691C434.947 159.386 434.572 158.96 434.301 158.412C434.033 157.864 433.899 157.224 433.899 156.491C433.899 155.753 434.033 155.108 434.301 154.557C434.572 154.006 434.947 153.578 435.427 153.274C435.91 152.969 436.472 152.817 437.112 152.817C437.752 152.817 438.313 152.969 438.793 153.274C439.276 153.578 439.651 154.006 439.919 154.557C440.19 155.108 440.325 155.753 440.325 156.491C440.325 157.224 440.19 157.864 439.919 158.412C439.651 158.96 439.276 159.386 438.793 159.691C438.313 159.995 437.752 160.148 437.112 160.148ZM437.112 159.169C437.598 159.169 437.999 159.044 438.312 158.795C438.626 158.546 438.859 158.218 439.01 157.812C439.16 157.406 439.236 156.965 439.236 156.491C439.236 156.018 439.16 155.576 439.01 155.167C438.859 154.757 438.626 154.426 438.312 154.174C437.999 153.922 437.598 153.795 437.112 153.795C436.626 153.795 436.226 153.922 435.912 154.174C435.598 154.426 435.366 154.757 435.215 155.167C435.064 155.576 434.989 156.018 434.989 156.491C434.989 156.965 435.064 157.406 435.215 157.812C435.366 158.218 435.598 158.546 435.912 158.795C436.226 159.044 436.626 159.169 437.112 159.169ZM441.988 160V152.909H443.041V153.98H443.115C443.244 153.629 443.478 153.345 443.816 153.126C444.155 152.908 444.537 152.798 444.961 152.798C445.041 152.798 445.141 152.8 445.261 152.803C445.381 152.806 445.472 152.811 445.534 152.817V153.925C445.497 153.915 445.412 153.902 445.28 153.883C445.151 153.862 445.014 153.851 444.869 153.851C444.524 153.851 444.217 153.923 443.946 154.068C443.678 154.209 443.466 154.406 443.309 154.659C443.155 154.908 443.078 155.193 443.078 155.513V160H441.988Z" fill="#707070"/>
<path d="M458.376 153.62H456.935C456.88 153.312 456.777 153.041 456.626 152.808C456.475 152.574 456.291 152.375 456.072 152.212C455.854 152.049 455.609 151.926 455.338 151.843C455.07 151.76 454.786 151.718 454.484 151.718C453.939 151.718 453.451 151.855 453.021 152.129C452.593 152.403 452.254 152.804 452.005 153.334C451.759 153.863 451.636 154.509 451.636 155.273C451.636 156.042 451.759 156.692 452.005 157.221C452.254 157.75 452.594 158.15 453.025 158.421C453.456 158.692 453.941 158.827 454.479 158.827C454.778 158.827 455.061 158.787 455.329 158.707C455.6 158.624 455.844 158.503 456.063 158.343C456.281 158.183 456.466 157.987 456.617 157.756C456.771 157.522 456.877 157.255 456.935 156.953L458.376 156.958C458.299 157.422 458.15 157.85 457.928 158.241C457.709 158.629 457.428 158.964 457.083 159.248C456.741 159.528 456.351 159.745 455.911 159.898C455.47 160.052 454.99 160.129 454.47 160.129C453.652 160.129 452.922 159.935 452.282 159.548C451.642 159.157 451.137 158.598 450.768 157.872C450.402 157.145 450.218 156.279 450.218 155.273C450.218 154.263 450.403 153.397 450.772 152.674C451.142 151.947 451.646 151.39 452.287 151.002C452.927 150.612 453.655 150.416 454.47 150.416C454.972 150.416 455.44 150.489 455.874 150.633C456.311 150.775 456.703 150.984 457.051 151.261C457.399 151.535 457.686 151.87 457.914 152.267C458.142 152.661 458.296 153.112 458.376 153.62ZM461.352 155.79V160H459.972V150.545H461.334V154.063H461.421C461.588 153.682 461.842 153.378 462.183 153.154C462.525 152.929 462.971 152.817 463.522 152.817C464.008 152.817 464.433 152.917 464.796 153.117C465.162 153.317 465.445 153.615 465.646 154.012C465.849 154.406 465.95 154.899 465.95 155.49V160H464.57V155.656C464.57 155.136 464.436 154.733 464.168 154.446C463.9 154.157 463.528 154.012 463.051 154.012C462.725 154.012 462.432 154.082 462.174 154.22C461.918 154.359 461.717 154.562 461.569 154.83C461.425 155.094 461.352 155.414 461.352 155.79ZM470.779 160.143C470.114 160.143 469.534 159.991 469.039 159.686C468.543 159.381 468.158 158.955 467.884 158.407C467.611 157.859 467.474 157.219 467.474 156.487C467.474 155.751 467.611 155.108 467.884 154.557C468.158 154.006 468.543 153.578 469.039 153.274C469.534 152.969 470.114 152.817 470.779 152.817C471.444 152.817 472.024 152.969 472.519 153.274C473.015 153.578 473.4 154.006 473.674 154.557C473.947 155.108 474.084 155.751 474.084 156.487C474.084 157.219 473.947 157.859 473.674 158.407C473.4 158.955 473.015 159.381 472.519 159.686C472.024 159.991 471.444 160.143 470.779 160.143ZM470.784 158.984C471.215 158.984 471.572 158.871 471.855 158.643C472.138 158.415 472.347 158.112 472.483 157.733C472.621 157.355 472.69 156.938 472.69 156.482C472.69 156.03 472.621 155.614 472.483 155.236C472.347 154.854 472.138 154.548 471.855 154.317C471.572 154.086 471.215 153.971 470.784 153.971C470.35 153.971 469.99 154.086 469.703 154.317C469.42 154.548 469.209 154.854 469.071 155.236C468.936 155.614 468.868 156.03 468.868 156.482C468.868 156.938 468.936 157.355 469.071 157.733C469.209 158.112 469.42 158.415 469.703 158.643C469.99 158.871 470.35 158.984 470.784 158.984ZM478.612 160.143C477.947 160.143 477.367 159.991 476.872 159.686C476.376 159.381 475.991 158.955 475.718 158.407C475.444 157.859 475.307 157.219 475.307 156.487C475.307 155.751 475.444 155.108 475.718 154.557C475.991 154.006 476.376 153.578 476.872 153.274C477.367 152.969 477.947 152.817 478.612 152.817C479.277 152.817 479.857 152.969 480.352 153.274C480.848 153.578 481.233 154.006 481.507 154.557C481.78 155.108 481.917 155.751 481.917 156.487C481.917 157.219 481.78 157.859 481.507 158.407C481.233 158.955 480.848 159.381 480.352 159.686C479.857 159.991 479.277 160.143 478.612 160.143ZM478.617 158.984C479.048 158.984 479.405 158.871 479.688 158.643C479.971 158.415 480.18 158.112 480.316 157.733C480.454 157.355 480.523 156.938 480.523 156.482C480.523 156.03 480.454 155.614 480.316 155.236C480.18 154.854 479.971 154.548 479.688 154.317C479.405 154.086 479.048 153.971 478.617 153.971C478.183 153.971 477.823 154.086 477.536 154.317C477.253 154.548 477.042 154.854 476.904 155.236C476.769 155.614 476.701 156.03 476.701 156.482C476.701 156.938 476.769 157.355 476.904 157.733C477.042 158.112 477.253 158.415 477.536 158.643C477.823 158.871 478.183 158.984 478.617 158.984ZM488.772 154.64L487.521 154.862C487.468 154.702 487.385 154.549 487.271 154.405C487.161 154.26 487.01 154.142 486.819 154.049C486.628 153.957 486.39 153.911 486.103 153.911C485.713 153.911 485.386 153.999 485.125 154.174C484.863 154.346 484.732 154.569 484.732 154.843C484.732 155.08 484.82 155.271 484.995 155.416C485.171 155.56 485.454 155.679 485.845 155.771L486.971 156.03C487.624 156.181 488.11 156.413 488.43 156.727C488.75 157.041 488.91 157.449 488.91 157.95C488.91 158.375 488.787 158.754 488.541 159.086C488.298 159.415 487.958 159.674 487.521 159.862C487.087 160.049 486.584 160.143 486.011 160.143C485.217 160.143 484.569 159.974 484.068 159.635C483.566 159.294 483.258 158.809 483.144 158.181L484.478 157.978C484.562 158.326 484.732 158.589 484.991 158.767C485.249 158.943 485.586 159.031 486.002 159.031C486.454 159.031 486.816 158.937 487.087 158.749C487.358 158.558 487.493 158.326 487.493 158.052C487.493 157.83 487.41 157.644 487.244 157.493C487.081 157.342 486.83 157.229 486.491 157.152L485.291 156.888C484.629 156.738 484.14 156.498 483.823 156.168C483.509 155.839 483.352 155.422 483.352 154.917C483.352 154.499 483.469 154.132 483.703 153.819C483.937 153.505 484.26 153.26 484.672 153.085C485.085 152.906 485.557 152.817 486.09 152.817C486.856 152.817 487.459 152.983 487.899 153.315C488.339 153.645 488.63 154.086 488.772 154.64ZM493.484 160.143C492.785 160.143 492.184 159.994 491.679 159.695C491.177 159.394 490.79 158.971 490.516 158.426C490.245 157.878 490.109 157.236 490.109 156.501C490.109 155.774 490.245 155.134 490.516 154.58C490.79 154.026 491.171 153.594 491.661 153.283C492.153 152.972 492.728 152.817 493.387 152.817C493.787 152.817 494.175 152.883 494.55 153.015C494.926 153.148 495.263 153.355 495.561 153.638C495.86 153.922 496.095 154.289 496.268 154.742C496.44 155.191 496.526 155.737 496.526 156.381V156.87H490.89V155.836H495.174C495.174 155.473 495.1 155.151 494.952 154.871C494.804 154.588 494.597 154.365 494.329 154.202C494.064 154.039 493.753 153.957 493.396 153.957C493.009 153.957 492.67 154.052 492.381 154.243C492.094 154.431 491.873 154.677 491.716 154.982C491.562 155.283 491.485 155.611 491.485 155.965V156.773C491.485 157.247 491.568 157.65 491.734 157.983C491.904 158.315 492.139 158.569 492.441 158.744C492.742 158.917 493.095 159.003 493.498 159.003C493.759 159.003 493.998 158.966 494.213 158.892C494.429 158.815 494.615 158.701 494.772 158.55C494.929 158.4 495.049 158.213 495.132 157.992L496.439 158.227C496.334 158.612 496.146 158.949 495.875 159.238C495.608 159.525 495.271 159.748 494.864 159.908C494.461 160.065 494.001 160.143 493.484 160.143ZM501.609 160V150.545H507.472V151.773H503.036V154.654H507.052V155.877H503.036V160H501.609ZM509.115 160V152.909H510.496V160H509.115ZM509.812 151.815C509.572 151.815 509.366 151.735 509.194 151.575C509.025 151.412 508.94 151.218 508.94 150.993C508.94 150.766 509.025 150.572 509.194 150.412C509.366 150.248 509.572 150.167 509.812 150.167C510.053 150.167 510.257 150.248 510.426 150.412C510.599 150.572 510.685 150.766 510.685 150.993C510.685 151.218 510.599 151.412 510.426 151.575C510.257 151.735 510.053 151.815 509.812 151.815ZM513.733 150.545V160H512.353V150.545H513.733ZM518.646 160.143C517.948 160.143 517.346 159.994 516.841 159.695C516.339 159.394 515.952 158.971 515.678 158.426C515.407 157.878 515.271 157.236 515.271 156.501C515.271 155.774 515.407 155.134 515.678 154.58C515.952 154.026 516.333 153.594 516.823 153.283C517.315 152.972 517.891 152.817 518.549 152.817C518.949 152.817 519.337 152.883 519.713 153.015C520.088 153.148 520.425 153.355 520.724 153.638C521.022 153.922 521.258 154.289 521.43 154.742C521.602 155.191 521.688 155.737 521.688 156.381V156.87H516.052V155.836H520.336C520.336 155.473 520.262 155.151 520.114 154.871C519.966 154.588 519.759 154.365 519.491 154.202C519.226 154.039 518.915 153.957 518.558 153.957C518.171 153.957 517.832 154.052 517.543 154.243C517.257 154.431 517.035 154.677 516.878 154.982C516.724 155.283 516.647 155.611 516.647 155.965V156.773C516.647 157.247 516.73 157.65 516.896 157.983C517.066 158.315 517.301 158.569 517.603 158.744C517.904 158.917 518.257 159.003 518.66 159.003C518.922 159.003 519.16 158.966 519.376 158.892C519.591 158.815 519.777 158.701 519.934 158.55C520.091 158.4 520.211 158.213 520.294 157.992L521.601 158.227C521.496 158.612 521.308 158.949 521.037 159.238C520.77 159.525 520.433 159.748 520.026 159.908C519.623 160.065 519.163 160.143 518.646 160.143Z" fill="#217CF5"/>
<rect x="82.5" y="69.5" width="639" height="127" rx="2.5" stroke="#A6CBFB" stroke-linejoin="round" stroke-dasharray="2 2"/>
<path d="M88.571 53.2727H89.892V59.0128C89.892 59.6236 89.7486 60.1648 89.4616 60.6364C89.1747 61.1051 88.7713 61.4744 88.2514 61.7443C87.7315 62.0114 87.1222 62.1449 86.4233 62.1449C85.7273 62.1449 85.1193 62.0114 84.5994 61.7443C84.0795 61.4744 83.6761 61.1051 83.3892 60.6364C83.1023 60.1648 82.9588 59.6236 82.9588 59.0128V53.2727H84.2756V58.9062C84.2756 59.3011 84.3622 59.652 84.5355 59.9588C84.7116 60.2656 84.9602 60.5071 85.2812 60.6832C85.6023 60.8565 85.983 60.9432 86.4233 60.9432C86.8665 60.9432 87.2486 60.8565 87.5696 60.6832C87.8935 60.5071 88.1406 60.2656 88.3111 59.9588C88.4844 59.652 88.571 59.3011 88.571 58.9062V53.2727ZM91.7042 64.4545V55.4545H92.9485V56.5156H93.055C93.1289 56.3793 93.2354 56.2216 93.3746 56.0426C93.5138 55.8636 93.707 55.7074 93.9542 55.5739C94.2013 55.4375 94.5281 55.3693 94.9343 55.3693C95.4627 55.3693 95.9343 55.5028 96.3491 55.7699C96.7638 56.0369 97.0891 56.4219 97.3249 56.9247C97.5636 57.4276 97.6829 58.0327 97.6829 58.7401C97.6829 59.4474 97.565 60.054 97.3292 60.5597C97.0934 61.0625 96.7695 61.4503 96.3576 61.723C95.9457 61.9929 95.4755 62.1278 94.9471 62.1278C94.5494 62.1278 94.2241 62.0611 93.9712 61.9276C93.7212 61.794 93.5252 61.6378 93.3832 61.4588C93.2411 61.2798 93.1317 61.1207 93.055 60.9815H92.9783V64.4545H91.7042ZM92.9528 58.7273C92.9528 59.1875 93.0195 59.5909 93.1531 59.9375C93.2866 60.2841 93.4798 60.5554 93.7326 60.7514C93.9854 60.9446 94.2951 61.0412 94.6616 61.0412C95.0423 61.0412 95.3604 60.9403 95.6161 60.7386C95.8718 60.5341 96.065 60.2571 96.1957 59.9077C96.3292 59.5582 96.396 59.1648 96.396 58.7273C96.396 58.2955 96.3306 57.9077 96.1999 57.5639C96.0721 57.2202 95.8789 56.9489 95.6204 56.75C95.3647 56.5511 95.0451 56.4517 94.6616 56.4517C94.2923 56.4517 93.9798 56.5469 93.7241 56.7372C93.4712 56.9276 93.2795 57.1932 93.1488 57.5341C93.0181 57.875 92.9528 58.2727 92.9528 58.7273ZM100.385 53.2727V62H99.1104V53.2727H100.385ZM104.856 62.1321C104.242 62.1321 103.707 61.9915 103.249 61.7102C102.792 61.429 102.437 61.0355 102.184 60.5298C101.931 60.0241 101.805 59.4332 101.805 58.7571C101.805 58.0781 101.931 57.4844 102.184 56.9759C102.437 56.4673 102.792 56.0724 103.249 55.7912C103.707 55.5099 104.242 55.3693 104.856 55.3693C105.469 55.3693 106.005 55.5099 106.462 55.7912C106.92 56.0724 107.275 56.4673 107.528 56.9759C107.781 57.4844 107.907 58.0781 107.907 58.7571C107.907 59.4332 107.781 60.0241 107.528 60.5298C107.275 61.0355 106.92 61.429 106.462 61.7102C106.005 61.9915 105.469 62.1321 104.856 62.1321ZM104.86 61.0625C105.258 61.0625 105.587 60.9574 105.849 60.7472C106.11 60.5369 106.303 60.2571 106.428 59.9077C106.556 59.5582 106.62 59.1733 106.62 58.7528C106.62 58.3352 106.556 57.9517 106.428 57.6023C106.303 57.25 106.11 56.9673 105.849 56.7543C105.587 56.5412 105.258 56.4347 104.86 56.4347C104.46 56.4347 104.127 56.5412 103.863 56.7543C103.602 56.9673 103.407 57.25 103.279 57.6023C103.154 57.9517 103.092 58.3352 103.092 58.7528C103.092 59.1733 103.154 59.5582 103.279 59.9077C103.407 60.2571 103.602 60.5369 103.863 60.7472C104.127 60.9574 104.46 61.0625 104.86 61.0625ZM111.234 62.1449C110.819 62.1449 110.444 62.0682 110.109 61.9148C109.774 61.7585 109.508 61.5327 109.312 61.2372C109.119 60.9418 109.022 60.5795 109.022 60.1506C109.022 59.7812 109.093 59.4773 109.235 59.2386C109.377 59 109.569 58.8111 109.811 58.6719C110.052 58.5327 110.322 58.4276 110.62 58.3565C110.919 58.2855 111.223 58.2315 111.532 58.1946C111.924 58.1491 112.243 58.1122 112.487 58.0838C112.731 58.0526 112.909 58.0028 113.02 57.9347C113.13 57.8665 113.186 57.7557 113.186 57.6023V57.5724C113.186 57.2003 113.081 56.9119 112.87 56.7074C112.663 56.5028 112.353 56.4006 111.941 56.4006C111.512 56.4006 111.174 56.4957 110.927 56.6861C110.683 56.8736 110.514 57.0824 110.42 57.3125L109.223 57.0398C109.365 56.642 109.572 56.321 109.845 56.0767C110.12 55.8295 110.437 55.6506 110.795 55.5398C111.153 55.4261 111.529 55.3693 111.924 55.3693C112.186 55.3693 112.463 55.4006 112.755 55.4631C113.051 55.5227 113.326 55.6335 113.582 55.7955C113.841 55.9574 114.052 56.1889 114.217 56.4901C114.382 56.7884 114.464 57.1761 114.464 57.6534V62H113.22V61.1051H113.169C113.086 61.2699 112.963 61.4318 112.798 61.5909C112.633 61.75 112.422 61.8821 112.163 61.9872C111.904 62.0923 111.595 62.1449 111.234 62.1449ZM111.511 61.1222C111.863 61.1222 112.164 61.0526 112.414 60.9134C112.667 60.7741 112.859 60.5923 112.99 60.3679C113.123 60.1406 113.19 59.8977 113.19 59.6392V58.7955C113.145 58.8409 113.056 58.8835 112.926 58.9233C112.798 58.9602 112.652 58.9929 112.487 59.0213C112.322 59.0469 112.162 59.071 112.005 59.0938C111.849 59.1136 111.718 59.1307 111.613 59.1449C111.366 59.1761 111.14 59.2287 110.936 59.3026C110.734 59.3764 110.572 59.483 110.45 59.6222C110.331 59.7585 110.271 59.9403 110.271 60.1676C110.271 60.483 110.387 60.7216 110.62 60.8835C110.853 61.0426 111.15 61.1222 111.511 61.1222ZM118.612 62.1278C118.083 62.1278 117.612 61.9929 117.197 61.723C116.785 61.4503 116.461 61.0625 116.225 60.5597C115.992 60.054 115.876 59.4474 115.876 58.7401C115.876 58.0327 115.994 57.4276 116.229 56.9247C116.468 56.4219 116.795 56.0369 117.21 55.7699C117.624 55.5028 118.094 55.3693 118.62 55.3693C119.026 55.3693 119.353 55.4375 119.6 55.5739C119.85 55.7074 120.043 55.8636 120.18 56.0426C120.319 56.2216 120.427 56.3793 120.504 56.5156H120.58V53.2727H121.854V62H120.61V60.9815H120.504C120.427 61.1207 120.316 61.2798 120.171 61.4588C120.029 61.6378 119.833 61.794 119.583 61.9276C119.333 62.0611 119.009 62.1278 118.612 62.1278ZM118.893 61.0412C119.259 61.0412 119.569 60.9446 119.822 60.7514C120.077 60.5554 120.271 60.2841 120.401 59.9375C120.535 59.5909 120.602 59.1875 120.602 58.7273C120.602 58.2727 120.536 57.875 120.406 57.5341C120.275 57.1932 120.083 56.9276 119.83 56.7372C119.577 56.5469 119.265 56.4517 118.893 56.4517C118.509 56.4517 118.19 56.5511 117.934 56.75C117.678 56.9489 117.485 57.2202 117.354 57.5639C117.227 57.9077 117.163 58.2955 117.163 58.7273C117.163 59.1648 117.228 59.5582 117.359 59.9077C117.489 60.2571 117.683 60.5341 117.938 60.7386C118.197 60.9403 118.515 61.0412 118.893 61.0412ZM126.951 62V53.2727H132.363V54.4062H128.268V57.0653H131.975V58.1946H128.268V62H126.951ZM133.88 62V55.4545H135.154V62H133.88ZM134.523 54.4446C134.302 54.4446 134.112 54.3707 133.952 54.223C133.796 54.0724 133.718 53.8935 133.718 53.6861C133.718 53.4759 133.796 53.2969 133.952 53.1491C134.112 52.9986 134.302 52.9233 134.523 52.9233C134.745 52.9233 134.934 52.9986 135.09 53.1491C135.249 53.2969 135.329 53.4759 135.329 53.6861C135.329 53.8935 135.249 54.0724 135.09 54.223C134.934 54.3707 134.745 54.4446 134.523 54.4446ZM138.142 53.2727V62H136.868V53.2727H138.142ZM142.678 62.1321C142.033 62.1321 141.477 61.9943 141.011 61.7188C140.548 61.4403 140.19 61.0497 139.938 60.5469C139.688 60.0412 139.562 59.4489 139.562 58.7699C139.562 58.0994 139.688 57.5085 139.938 56.9972C140.19 56.4858 140.543 56.0866 140.994 55.7997C141.449 55.5128 141.98 55.3693 142.588 55.3693C142.957 55.3693 143.315 55.4304 143.662 55.5526C144.009 55.6747 144.32 55.8665 144.595 56.1278C144.871 56.3892 145.088 56.7287 145.247 57.1463C145.406 57.5611 145.486 58.0653 145.486 58.6591V59.1108H140.283V58.1562H144.237C144.237 57.821 144.169 57.5241 144.033 57.2656C143.896 57.0043 143.705 56.7983 143.457 56.6477C143.213 56.4972 142.926 56.4219 142.597 56.4219C142.239 56.4219 141.926 56.5099 141.659 56.6861C141.395 56.8594 141.19 57.0866 141.045 57.3679C140.903 57.6463 140.832 57.9489 140.832 58.2756V59.0213C140.832 59.4588 140.909 59.831 141.062 60.1378C141.219 60.4446 141.436 60.679 141.714 60.8409C141.993 61 142.318 61.0795 142.69 61.0795C142.932 61.0795 143.152 61.0455 143.351 60.9773C143.55 60.9062 143.722 60.8011 143.866 60.6619C144.011 60.5227 144.122 60.3509 144.199 60.1463L145.405 60.3636C145.308 60.7187 145.135 61.0298 144.885 61.2969C144.638 61.5611 144.327 61.767 143.952 61.9148C143.58 62.0597 143.155 62.1321 142.678 62.1321ZM150.446 57.6364C150.446 56.5682 150.587 55.5852 150.868 54.6875C151.149 53.7898 151.56 52.9616 152.099 52.2031H153.267C153.057 52.4844 152.861 52.8295 152.679 53.2386C152.497 53.6477 152.338 54.0966 152.202 54.5852C152.065 55.071 151.959 55.5753 151.882 56.098C151.805 56.6179 151.767 57.1307 151.767 57.6364C151.767 58.3125 151.834 58.9972 151.967 59.6903C152.101 60.3835 152.281 61.027 152.509 61.6207C152.736 62.2145 152.989 62.6989 153.267 63.0739H152.099C151.56 62.3153 151.149 61.4872 150.868 60.5895C150.587 59.6918 150.446 58.7074 150.446 57.6364ZM154.713 62V53.2727H156.029V57.0653H160.38V53.2727H161.701V62H160.38V58.1946H156.029V62H154.713ZM166.274 62.1321C165.66 62.1321 165.125 61.9915 164.667 61.7102C164.21 61.429 163.855 61.0355 163.602 60.5298C163.349 60.0241 163.223 59.4332 163.223 58.7571C163.223 58.0781 163.349 57.4844 163.602 56.9759C163.855 56.4673 164.21 56.0724 164.667 55.7912C165.125 55.5099 165.66 55.3693 166.274 55.3693C166.887 55.3693 167.423 55.5099 167.88 55.7912C168.338 56.0724 168.693 56.4673 168.946 56.9759C169.199 57.4844 169.325 58.0781 169.325 58.7571C169.325 59.4332 169.199 60.0241 168.946 60.5298C168.693 61.0355 168.338 61.429 167.88 61.7102C167.423 61.9915 166.887 62.1321 166.274 62.1321ZM166.278 61.0625C166.676 61.0625 167.005 60.9574 167.267 60.7472C167.528 60.5369 167.721 60.2571 167.846 59.9077C167.974 59.5582 168.038 59.1733 168.038 58.7528C168.038 58.3352 167.974 57.9517 167.846 57.6023C167.721 57.25 167.528 56.9673 167.267 56.7543C167.005 56.5412 166.676 56.4347 166.278 56.4347C165.877 56.4347 165.545 56.5412 165.281 56.7543C165.02 56.9673 164.825 57.25 164.697 57.6023C164.572 57.9517 164.51 58.3352 164.51 58.7528C164.51 59.1733 164.572 59.5582 164.697 59.9077C164.825 60.2571 165.02 60.5369 165.281 60.7472C165.545 60.9574 165.877 61.0625 166.278 61.0625ZM176.124 55.4545L173.75 62H172.387L170.009 55.4545H171.377L173.034 60.4915H173.103L174.756 55.4545H176.124ZM179.92 62.1321C179.275 62.1321 178.719 61.9943 178.254 61.7188C177.79 61.4403 177.433 61.0497 177.18 60.5469C176.93 60.0412 176.805 59.4489 176.805 58.7699C176.805 58.0994 176.93 57.5085 177.18 56.9972C177.433 56.4858 177.785 56.0866 178.237 55.7997C178.691 55.5128 179.222 55.3693 179.83 55.3693C180.2 55.3693 180.558 55.4304 180.904 55.5526C181.251 55.6747 181.562 55.8665 181.837 56.1278C182.113 56.3892 182.33 56.7287 182.489 57.1463C182.648 57.5611 182.728 58.0653 182.728 58.6591V59.1108H177.525V58.1562H181.479C181.479 57.821 181.411 57.5241 181.275 57.2656C181.138 57.0043 180.947 56.7983 180.7 56.6477C180.455 56.4972 180.168 56.4219 179.839 56.4219C179.481 56.4219 179.168 56.5099 178.901 56.6861C178.637 56.8594 178.433 57.0866 178.288 57.3679C178.146 57.6463 178.075 57.9489 178.075 58.2756V59.0213C178.075 59.4588 178.151 59.831 178.305 60.1378C178.461 60.4446 178.678 60.679 178.957 60.8409C179.235 61 179.56 61.0795 179.933 61.0795C180.174 61.0795 180.394 61.0455 180.593 60.9773C180.792 60.9062 180.964 60.8011 181.109 60.6619C181.254 60.5227 181.364 60.3509 181.441 60.1463L182.647 60.3636C182.55 60.7187 182.377 61.0298 182.127 61.2969C181.88 61.5611 181.569 61.767 181.194 61.9148C180.822 62.0597 180.397 62.1321 179.92 62.1321ZM184.142 62V55.4545H185.373V56.4943H185.441C185.561 56.142 185.771 55.8651 186.072 55.6634C186.376 55.4588 186.72 55.3565 187.103 55.3565C187.183 55.3565 187.277 55.3594 187.385 55.3651C187.495 55.3707 187.582 55.3778 187.645 55.3864V56.6051C187.593 56.5909 187.502 56.5753 187.372 56.5582C187.241 56.5384 187.11 56.5284 186.98 56.5284C186.679 56.5284 186.41 56.5923 186.174 56.7202C185.941 56.8452 185.757 57.0199 185.62 57.2443C185.484 57.4659 185.416 57.7187 185.416 58.0028V62H184.142ZM191.197 58.3778C191.197 59.4489 191.057 60.4332 190.776 61.331C190.494 62.2287 190.084 63.0568 189.544 63.8153H188.376C188.587 63.5341 188.783 63.1889 188.964 62.7798C189.146 62.3707 189.305 61.9233 189.442 61.4375C189.578 60.9489 189.685 60.4432 189.761 59.9205C189.838 59.3977 189.876 58.8835 189.876 58.3778C189.876 57.7045 189.81 57.0213 189.676 56.3281C189.543 55.6349 189.362 54.9915 189.135 54.3977C188.908 53.804 188.655 53.3196 188.376 52.9446H189.544C190.084 53.7031 190.494 54.5312 190.776 55.429C191.057 56.3267 191.197 57.3097 191.197 58.3778Z" fill="#707070"/>
<path d="M82.2813 204H83.3906L85.6094 207.734H85.7031L87.9219 204H89.0313L86.1406 208.703V212H85.1719V208.703L82.2813 204ZM91.748 212.125C91.2064 212.125 90.7311 211.996 90.3223 211.738C89.916 211.48 89.5983 211.12 89.3691 210.656C89.1426 210.193 89.0293 209.651 89.0293 209.031C89.0293 208.406 89.1426 207.861 89.3691 207.395C89.5983 206.928 89.916 206.566 90.3223 206.309C90.7311 206.051 91.2064 205.922 91.748 205.922C92.2897 205.922 92.7637 206.051 93.1699 206.309C93.5788 206.566 93.8965 206.928 94.123 207.395C94.3522 207.861 94.4668 208.406 94.4668 209.031C94.4668 209.651 94.3522 210.193 94.123 210.656C93.8965 211.12 93.5788 211.48 93.1699 211.738C92.7637 211.996 92.2897 212.125 91.748 212.125ZM91.748 211.297C92.1595 211.297 92.498 211.191 92.7637 210.98C93.0293 210.77 93.2259 210.492 93.3535 210.148C93.4811 209.805 93.5449 209.432 93.5449 209.031C93.5449 208.63 93.4811 208.257 93.3535 207.91C93.2259 207.564 93.0293 207.284 92.7637 207.07C92.498 206.857 92.1595 206.75 91.748 206.75C91.3366 206.75 90.998 206.857 90.7324 207.07C90.4668 207.284 90.2702 207.564 90.1426 207.91C90.015 208.257 89.9512 208.63 89.9512 209.031C89.9512 209.432 90.015 209.805 90.1426 210.148C90.2702 210.492 90.4668 210.77 90.7324 210.98C90.998 211.191 91.3366 211.297 91.748 211.297ZM99.6553 209.547V206H100.577V212H99.6553V210.984H99.5928C99.4521 211.289 99.2334 211.548 98.9365 211.762C98.6396 211.973 98.2646 212.078 97.8115 212.078C97.4365 212.078 97.1032 211.996 96.8115 211.832C96.5199 211.665 96.2907 211.415 96.124 211.082C95.9574 210.746 95.874 210.323 95.874 209.812V206H96.7959V209.75C96.7959 210.187 96.9183 210.536 97.1631 210.797C97.4105 211.057 97.7256 211.187 98.1084 211.187C98.3376 211.187 98.5706 211.129 98.8076 211.012C99.0472 210.895 99.2477 210.715 99.4092 210.473C99.5732 210.23 99.6553 209.922 99.6553 209.547ZM107.797 212.125C107.234 212.125 106.75 211.992 106.344 211.727C105.938 211.461 105.625 211.095 105.406 210.629C105.188 210.163 105.078 209.63 105.078 209.031C105.078 208.422 105.19 207.884 105.414 207.418C105.641 206.949 105.956 206.583 106.359 206.32C106.766 206.055 107.24 205.922 107.781 205.922C108.203 205.922 108.583 206 108.922 206.156C109.26 206.312 109.538 206.531 109.754 206.812C109.97 207.094 110.104 207.422 110.156 207.797H109.234C109.164 207.523 109.008 207.281 108.766 207.07C108.526 206.857 108.203 206.75 107.797 206.75C107.438 206.75 107.122 206.844 106.852 207.031C106.583 207.216 106.374 207.478 106.223 207.816C106.074 208.152 106 208.547 106 209C106 209.464 106.073 209.867 106.219 210.211C106.367 210.555 106.576 210.822 106.844 211.012C107.115 211.202 107.432 211.297 107.797 211.297C108.036 211.297 108.254 211.255 108.449 211.172C108.645 211.089 108.81 210.969 108.945 210.812C109.081 210.656 109.177 210.469 109.234 210.25H110.156C110.104 210.604 109.975 210.923 109.77 211.207C109.566 211.488 109.297 211.712 108.961 211.879C108.628 212.043 108.24 212.125 107.797 212.125ZM113.27 212.141C112.889 212.141 112.544 212.069 112.234 211.926C111.924 211.78 111.678 211.57 111.496 211.297C111.314 211.021 111.223 210.687 111.223 210.297C111.223 209.953 111.29 209.674 111.426 209.461C111.561 209.245 111.742 209.076 111.969 208.953C112.195 208.831 112.445 208.74 112.719 208.68C112.995 208.617 113.272 208.568 113.551 208.531C113.915 208.484 114.211 208.449 114.438 208.426C114.667 208.4 114.833 208.357 114.938 208.297C115.044 208.237 115.098 208.133 115.098 207.984V207.953C115.098 207.568 114.992 207.268 114.781 207.055C114.573 206.841 114.257 206.734 113.832 206.734C113.392 206.734 113.047 206.831 112.797 207.023C112.547 207.216 112.371 207.422 112.27 207.641L111.395 207.328C111.551 206.964 111.759 206.68 112.02 206.477C112.283 206.271 112.569 206.128 112.879 206.047C113.191 205.964 113.499 205.922 113.801 205.922C113.993 205.922 114.215 205.945 114.465 205.992C114.717 206.036 114.961 206.129 115.195 206.27C115.432 206.41 115.629 206.622 115.785 206.906C115.941 207.19 116.02 207.57 116.02 208.047V212H115.098V211.187H115.051C114.988 211.318 114.884 211.457 114.738 211.605C114.592 211.754 114.398 211.88 114.156 211.984C113.914 212.089 113.618 212.141 113.27 212.141ZM113.41 211.312C113.775 211.312 114.082 211.241 114.332 211.098C114.585 210.954 114.775 210.77 114.902 210.543C115.033 210.316 115.098 210.078 115.098 209.828V208.984C115.059 209.031 114.973 209.074 114.84 209.113C114.71 209.15 114.559 209.182 114.387 209.211C114.217 209.237 114.052 209.26 113.891 209.281C113.732 209.299 113.603 209.315 113.504 209.328C113.264 209.359 113.04 209.41 112.832 209.48C112.626 209.548 112.46 209.651 112.332 209.789C112.207 209.924 112.145 210.109 112.145 210.344C112.145 210.664 112.263 210.906 112.5 211.07C112.74 211.232 113.043 211.312 113.41 211.312ZM118.624 208.391V212H117.702V206H118.593V206.937H118.671C118.812 206.633 119.025 206.388 119.312 206.203C119.598 206.016 119.968 205.922 120.421 205.922C120.827 205.922 121.183 206.005 121.487 206.172C121.792 206.336 122.029 206.586 122.198 206.922C122.368 207.255 122.452 207.677 122.452 208.188V212H121.53V208.25C121.53 207.779 121.408 207.411 121.163 207.148C120.918 206.883 120.582 206.75 120.155 206.75C119.861 206.75 119.598 206.814 119.366 206.941C119.137 207.069 118.956 207.255 118.823 207.5C118.69 207.745 118.624 208.042 118.624 208.391ZM131.012 209.547V206H131.934V212H131.012V210.984H130.949C130.809 211.289 130.59 211.548 130.293 211.762C129.996 211.973 129.621 212.078 129.168 212.078C128.793 212.078 128.46 211.996 128.168 211.832C127.876 211.665 127.647 211.415 127.48 211.082C127.314 210.746 127.23 210.323 127.23 209.812V206H128.152V209.75C128.152 210.187 128.275 210.536 128.52 210.797C128.767 211.057 129.082 211.187 129.465 211.187C129.694 211.187 129.927 211.129 130.164 211.012C130.404 210.895 130.604 210.715 130.766 210.473C130.93 210.23 131.012 209.922 131.012 209.547ZM133.622 214.25V206H134.513V206.953H134.622C134.69 206.849 134.784 206.716 134.903 206.555C135.026 206.391 135.2 206.245 135.427 206.117C135.656 205.987 135.966 205.922 136.356 205.922C136.862 205.922 137.307 206.048 137.692 206.301C138.078 206.553 138.379 206.911 138.595 207.375C138.811 207.839 138.919 208.385 138.919 209.016C138.919 209.651 138.811 210.202 138.595 210.668C138.379 211.132 138.079 211.491 137.696 211.746C137.313 211.999 136.872 212.125 136.372 212.125C135.987 212.125 135.678 212.061 135.446 211.934C135.215 211.803 135.036 211.656 134.911 211.492C134.786 211.326 134.69 211.187 134.622 211.078H134.544V214.25H133.622ZM134.528 209C134.528 209.453 134.595 209.853 134.728 210.199C134.86 210.543 135.054 210.812 135.31 211.008C135.565 211.201 135.877 211.297 136.247 211.297C136.632 211.297 136.954 211.195 137.212 210.992C137.472 210.786 137.668 210.51 137.798 210.164C137.931 209.815 137.997 209.427 137.997 209C137.997 208.578 137.932 208.198 137.802 207.859C137.674 207.518 137.48 207.249 137.22 207.051C136.962 206.85 136.638 206.75 136.247 206.75C135.872 206.75 135.557 206.845 135.302 207.035C135.047 207.223 134.854 207.486 134.724 207.824C134.593 208.16 134.528 208.552 134.528 209ZM141.247 204V212H140.325V204H141.247ZM145.373 212.125C144.831 212.125 144.356 211.996 143.947 211.738C143.541 211.48 143.223 211.12 142.994 210.656C142.768 210.193 142.654 209.651 142.654 209.031C142.654 208.406 142.768 207.861 142.994 207.395C143.223 206.928 143.541 206.566 143.947 206.309C144.356 206.051 144.831 205.922 145.373 205.922C145.915 205.922 146.389 206.051 146.795 206.309C147.204 206.566 147.521 206.928 147.748 207.395C147.977 207.861 148.092 208.406 148.092 209.031C148.092 209.651 147.977 210.193 147.748 210.656C147.521 211.12 147.204 211.48 146.795 211.738C146.389 211.996 145.915 212.125 145.373 212.125ZM145.373 211.297C145.785 211.297 146.123 211.191 146.389 210.98C146.654 210.77 146.851 210.492 146.979 210.148C147.106 209.805 147.17 209.432 147.17 209.031C147.17 208.63 147.106 208.257 146.979 207.91C146.851 207.564 146.654 207.284 146.389 207.07C146.123 206.857 145.785 206.75 145.373 206.75C144.962 206.75 144.623 206.857 144.357 207.07C144.092 207.284 143.895 207.564 143.768 207.91C143.64 208.257 143.576 208.63 143.576 209.031C143.576 209.432 143.64 209.805 143.768 210.148C143.895 210.492 144.092 210.77 144.357 210.98C144.623 211.191 144.962 211.297 145.373 211.297ZM151.265 212.141C150.884 212.141 150.539 212.069 150.229 211.926C149.92 211.78 149.674 211.57 149.491 211.297C149.309 211.021 149.218 210.687 149.218 210.297C149.218 209.953 149.285 209.674 149.421 209.461C149.556 209.245 149.737 209.076 149.964 208.953C150.19 208.831 150.44 208.74 150.714 208.68C150.99 208.617 151.267 208.568 151.546 208.531C151.91 208.484 152.206 208.449 152.433 208.426C152.662 208.4 152.828 208.357 152.933 208.297C153.039 208.237 153.093 208.133 153.093 207.984V207.953C153.093 207.568 152.987 207.268 152.776 207.055C152.568 206.841 152.252 206.734 151.827 206.734C151.387 206.734 151.042 206.831 150.792 207.023C150.542 207.216 150.366 207.422 150.265 207.641L149.39 207.328C149.546 206.964 149.754 206.68 150.015 206.477C150.278 206.271 150.564 206.128 150.874 206.047C151.187 205.964 151.494 205.922 151.796 205.922C151.989 205.922 152.21 205.945 152.46 205.992C152.713 206.036 152.956 206.129 153.19 206.27C153.427 206.41 153.624 206.622 153.78 206.906C153.937 207.19 154.015 207.57 154.015 208.047V212H153.093V211.187H153.046C152.983 211.318 152.879 211.457 152.733 211.605C152.588 211.754 152.394 211.88 152.151 211.984C151.909 212.089 151.614 212.141 151.265 212.141ZM151.405 211.312C151.77 211.312 152.077 211.241 152.327 211.098C152.58 210.954 152.77 210.77 152.897 210.543C153.028 210.316 153.093 210.078 153.093 209.828V208.984C153.054 209.031 152.968 209.074 152.835 209.113C152.705 209.15 152.554 209.182 152.382 209.211C152.213 209.237 152.047 209.26 151.886 209.281C151.727 209.299 151.598 209.315 151.499 209.328C151.259 209.359 151.035 209.41 150.827 209.48C150.621 209.548 150.455 209.651 150.327 209.789C150.202 209.924 150.14 210.109 150.14 210.344C150.14 210.664 150.258 210.906 150.495 211.07C150.735 211.232 151.038 211.312 151.405 211.312ZM157.963 212.125C157.463 212.125 157.021 211.999 156.639 211.746C156.256 211.491 155.956 211.132 155.74 210.668C155.524 210.202 155.416 209.651 155.416 209.016C155.416 208.385 155.524 207.839 155.74 207.375C155.956 206.911 156.257 206.553 156.643 206.301C157.028 206.048 157.473 205.922 157.979 205.922C158.369 205.922 158.678 205.987 158.904 206.117C159.133 206.245 159.308 206.391 159.428 206.555C159.55 206.716 159.645 206.849 159.713 206.953H159.791V204H160.713V212H159.822V211.078H159.713C159.645 211.187 159.549 211.326 159.424 211.492C159.299 211.656 159.12 211.803 158.889 211.934C158.657 212.061 158.348 212.125 157.963 212.125ZM158.088 211.297C158.458 211.297 158.77 211.201 159.025 211.008C159.281 210.812 159.475 210.543 159.607 210.199C159.74 209.853 159.807 209.453 159.807 209C159.807 208.552 159.742 208.16 159.611 207.824C159.481 207.486 159.288 207.223 159.033 207.035C158.778 206.845 158.463 206.75 158.088 206.75C157.697 206.75 157.372 206.85 157.111 207.051C156.854 207.249 156.66 207.518 156.529 207.859C156.402 208.198 156.338 208.578 156.338 209C156.338 209.427 156.403 209.815 156.533 210.164C156.666 210.51 156.861 210.786 157.119 210.992C157.38 211.195 157.702 211.297 158.088 211.297ZM168.42 204V212H167.451V205.016H167.404L165.451 206.312V205.328L167.451 204H168.42ZM176.502 206V206.781H173.268V206H176.502ZM174.236 212V205.172C174.236 204.828 174.317 204.542 174.479 204.312C174.64 204.083 174.85 203.911 175.107 203.797C175.365 203.682 175.637 203.625 175.924 203.625C176.15 203.625 176.335 203.643 176.479 203.68C176.622 203.716 176.729 203.75 176.799 203.781L176.533 204.578C176.486 204.562 176.421 204.543 176.338 204.52C176.257 204.496 176.15 204.484 176.018 204.484C175.713 204.484 175.493 204.561 175.357 204.715C175.225 204.868 175.158 205.094 175.158 205.391V212H174.236ZM177.794 212V206H178.716V212H177.794ZM178.263 205C178.083 205 177.928 204.939 177.798 204.816C177.67 204.694 177.606 204.547 177.606 204.375C177.606 204.203 177.67 204.056 177.798 203.934C177.928 203.811 178.083 203.75 178.263 203.75C178.442 203.75 178.596 203.811 178.724 203.934C178.854 204.056 178.919 204.203 178.919 204.375C178.919 204.547 178.854 204.694 178.724 204.816C178.596 204.939 178.442 205 178.263 205ZM181.326 204V212H180.404V204H181.326ZM185.53 212.125C184.952 212.125 184.453 211.997 184.034 211.742C183.618 211.484 183.296 211.125 183.069 210.664C182.845 210.201 182.733 209.661 182.733 209.047C182.733 208.432 182.845 207.891 183.069 207.422C183.296 206.951 183.611 206.583 184.015 206.32C184.421 206.055 184.895 205.922 185.437 205.922C185.749 205.922 186.058 205.974 186.362 206.078C186.667 206.182 186.944 206.352 187.194 206.586C187.444 206.818 187.644 207.125 187.792 207.508C187.94 207.891 188.015 208.362 188.015 208.922V209.312H183.39V208.516H187.077C187.077 208.177 187.009 207.875 186.874 207.609C186.741 207.344 186.551 207.134 186.304 206.98C186.059 206.827 185.77 206.75 185.437 206.75C185.069 206.75 184.752 206.841 184.483 207.023C184.218 207.203 184.013 207.437 183.87 207.727C183.727 208.016 183.655 208.326 183.655 208.656V209.188C183.655 209.641 183.733 210.025 183.89 210.34C184.049 210.652 184.269 210.891 184.55 211.055C184.831 211.216 185.158 211.297 185.53 211.297C185.772 211.297 185.991 211.263 186.187 211.195C186.384 211.125 186.555 211.021 186.698 210.883C186.841 210.742 186.952 210.568 187.03 210.359L187.921 210.609C187.827 210.911 187.67 211.177 187.448 211.406C187.227 211.633 186.953 211.81 186.628 211.937C186.302 212.063 185.937 212.125 185.53 212.125ZM190.089 212.063C189.896 212.063 189.731 211.993 189.593 211.855C189.455 211.717 189.386 211.552 189.386 211.359C189.386 211.167 189.455 211.001 189.593 210.863C189.731 210.725 189.896 210.656 190.089 210.656C190.282 210.656 190.447 210.725 190.585 210.863C190.723 211.001 190.792 211.167 190.792 211.359C190.792 211.487 190.759 211.604 190.694 211.711C190.632 211.818 190.547 211.904 190.44 211.969C190.336 212.031 190.219 212.063 190.089 212.063ZM195.665 212V204H200.462V204.859H196.634V207.562H200.103V208.422H196.634V212H195.665ZM201.996 212V206H202.918V212H201.996ZM202.465 205C202.285 205 202.13 204.939 202 204.816C201.872 204.694 201.809 204.547 201.809 204.375C201.809 204.203 201.872 204.056 202 203.934C202.13 203.811 202.285 203.75 202.465 203.75C202.645 203.75 202.798 203.811 202.926 203.934C203.056 204.056 203.121 204.203 203.121 204.375C203.121 204.547 203.056 204.694 202.926 204.816C202.798 204.939 202.645 205 202.465 205ZM205.528 204V212H204.606V204H205.528ZM209.732 212.125C209.154 212.125 208.656 211.997 208.236 211.742C207.82 211.484 207.498 211.125 207.271 210.664C207.048 210.201 206.936 209.661 206.936 209.047C206.936 208.432 207.048 207.891 207.271 207.422C207.498 206.951 207.813 206.583 208.217 206.32C208.623 206.055 209.097 205.922 209.639 205.922C209.951 205.922 210.26 205.974 210.564 206.078C210.869 206.182 211.146 206.352 211.396 206.586C211.646 206.818 211.846 207.125 211.994 207.508C212.143 207.891 212.217 208.362 212.217 208.922V209.312H207.592V208.516H211.279C211.279 208.177 211.212 207.875 211.076 207.609C210.943 207.344 210.753 207.134 210.506 206.98C210.261 206.827 209.972 206.75 209.639 206.75C209.271 206.75 208.954 206.841 208.686 207.023C208.42 207.203 208.215 207.437 208.072 207.727C207.929 208.016 207.857 208.326 207.857 208.656V209.188C207.857 209.641 207.936 210.025 208.092 210.34C208.251 210.652 208.471 210.891 208.752 211.055C209.033 211.216 209.36 211.297 209.732 211.297C209.975 211.297 210.193 211.263 210.389 211.195C210.587 211.125 210.757 211.021 210.9 210.883C211.044 210.742 211.154 210.568 211.232 210.359L212.123 210.609C212.029 210.911 211.872 211.177 211.65 211.406C211.429 211.633 211.156 211.81 210.83 211.937C210.505 212.063 210.139 212.125 209.732 212.125ZM219.15 212.125C218.588 212.125 218.104 211.992 217.697 211.727C217.291 211.461 216.979 211.095 216.76 210.629C216.541 210.163 216.432 209.63 216.432 209.031C216.432 208.422 216.544 207.884 216.768 207.418C216.994 206.949 217.309 206.583 217.713 206.32C218.119 206.055 218.593 205.922 219.135 205.922C219.557 205.922 219.937 206 220.275 206.156C220.614 206.312 220.891 206.531 221.107 206.812C221.324 207.094 221.458 207.422 221.51 207.797H220.588C220.518 207.523 220.361 207.281 220.119 207.07C219.88 206.857 219.557 206.75 219.15 206.75C218.791 206.75 218.476 206.844 218.205 207.031C217.937 207.216 217.727 207.478 217.576 207.816C217.428 208.152 217.354 208.547 217.354 209C217.354 209.464 217.426 209.867 217.572 210.211C217.721 210.555 217.929 210.822 218.197 211.012C218.468 211.202 218.786 211.297 219.15 211.297C219.39 211.297 219.607 211.255 219.803 211.172C219.998 211.089 220.163 210.969 220.299 210.812C220.434 210.656 220.531 210.469 220.588 210.25H221.51C221.458 210.604 221.329 210.923 221.123 211.207C220.92 211.488 220.65 211.712 220.314 211.879C219.981 212.043 219.593 212.125 219.15 212.125ZM224.623 212.141C224.243 212.141 223.898 212.069 223.588 211.926C223.278 211.78 223.032 211.57 222.85 211.297C222.667 211.021 222.576 210.687 222.576 210.297C222.576 209.953 222.644 209.674 222.779 209.461C222.915 209.245 223.096 209.076 223.322 208.953C223.549 208.831 223.799 208.74 224.072 208.68C224.348 208.617 224.626 208.568 224.904 208.531C225.269 208.484 225.564 208.449 225.791 208.426C226.02 208.4 226.187 208.357 226.291 208.297C226.398 208.237 226.451 208.133 226.451 207.984V207.953C226.451 207.568 226.346 207.268 226.135 207.055C225.926 206.841 225.61 206.734 225.186 206.734C224.745 206.734 224.4 206.831 224.15 207.023C223.9 207.216 223.725 207.422 223.623 207.641L222.748 207.328C222.904 206.964 223.113 206.68 223.373 206.477C223.636 206.271 223.923 206.128 224.232 206.047C224.545 205.964 224.852 205.922 225.154 205.922C225.347 205.922 225.568 205.945 225.818 205.992C226.071 206.036 226.314 206.129 226.549 206.27C226.786 206.41 226.982 206.622 227.139 206.906C227.295 207.19 227.373 207.57 227.373 208.047V212H226.451V211.187H226.404C226.342 211.318 226.238 211.457 226.092 211.605C225.946 211.754 225.752 211.88 225.51 211.984C225.268 212.089 224.972 212.141 224.623 212.141ZM224.764 211.312C225.128 211.312 225.436 211.241 225.686 211.098C225.938 210.954 226.128 210.77 226.256 210.543C226.386 210.316 226.451 210.078 226.451 209.828V208.984C226.412 209.031 226.326 209.074 226.193 209.113C226.063 209.15 225.912 209.182 225.74 209.211C225.571 209.237 225.406 209.26 225.244 209.281C225.085 209.299 224.956 209.315 224.857 209.328C224.618 209.359 224.394 209.41 224.186 209.48C223.98 209.548 223.813 209.651 223.686 209.789C223.561 209.924 223.498 210.109 223.498 210.344C223.498 210.664 223.617 210.906 223.854 211.07C224.093 211.232 224.396 211.312 224.764 211.312ZM229.978 208.391V212H229.056V206H229.946V206.937H230.024C230.165 206.633 230.379 206.388 230.665 206.203C230.951 206.016 231.321 205.922 231.774 205.922C232.181 205.922 232.536 206.005 232.841 206.172C233.146 206.336 233.382 206.586 233.552 206.922C233.721 207.255 233.806 207.677 233.806 208.188V212H232.884V208.25C232.884 207.779 232.761 207.411 232.517 207.148C232.272 206.883 231.936 206.75 231.509 206.75C231.215 206.75 230.951 206.814 230.72 206.941C230.491 207.069 230.31 207.255 230.177 207.5C230.044 207.745 229.978 208.042 229.978 208.391ZM238.709 212V204H239.631V206.953H239.709C239.777 206.849 239.87 206.716 239.99 206.555C240.113 206.391 240.287 206.245 240.514 206.117C240.743 205.987 241.053 205.922 241.443 205.922C241.949 205.922 242.394 206.048 242.779 206.301C243.165 206.553 243.465 206.911 243.682 207.375C243.898 207.839 244.006 208.385 244.006 209.016C244.006 209.651 243.898 210.202 243.682 210.668C243.465 211.132 243.166 211.491 242.783 211.746C242.4 211.999 241.959 212.125 241.459 212.125C241.074 212.125 240.765 212.061 240.533 211.934C240.301 211.803 240.123 211.656 239.998 211.492C239.873 211.326 239.777 211.187 239.709 211.078H239.6V212H238.709ZM239.615 209C239.615 209.453 239.682 209.853 239.814 210.199C239.947 210.543 240.141 210.812 240.396 211.008C240.652 211.201 240.964 211.297 241.334 211.297C241.719 211.297 242.041 211.195 242.299 210.992C242.559 210.786 242.755 210.51 242.885 210.164C243.018 209.815 243.084 209.427 243.084 209C243.084 208.578 243.019 208.198 242.889 207.859C242.761 207.518 242.567 207.249 242.307 207.051C242.049 206.85 241.725 206.75 241.334 206.75C240.959 206.75 240.644 206.845 240.389 207.035C240.133 207.223 239.941 207.486 239.811 207.824C239.68 208.16 239.615 208.552 239.615 209ZM247.932 212.125C247.354 212.125 246.855 211.997 246.436 211.742C246.019 211.484 245.697 211.125 245.471 210.664C245.247 210.201 245.135 209.661 245.135 209.047C245.135 208.432 245.247 207.891 245.471 207.422C245.697 206.951 246.012 206.583 246.416 206.32C246.822 206.055 247.296 205.922 247.838 205.922C248.15 205.922 248.459 205.974 248.764 206.078C249.068 206.182 249.346 206.352 249.596 206.586C249.846 206.818 250.045 207.125 250.193 207.508C250.342 207.891 250.416 208.362 250.416 208.922V209.312H245.791V208.516H249.479C249.479 208.177 249.411 207.875 249.275 207.609C249.143 207.344 248.952 207.134 248.705 206.98C248.46 206.827 248.171 206.75 247.838 206.75C247.471 206.75 247.153 206.841 246.885 207.023C246.619 207.203 246.415 207.437 246.271 207.727C246.128 208.016 246.057 208.326 246.057 208.656V209.188C246.057 209.641 246.135 210.025 246.291 210.34C246.45 210.652 246.67 210.891 246.951 211.055C247.232 211.216 247.559 211.297 247.932 211.297C248.174 211.297 248.393 211.263 248.588 211.195C248.786 211.125 248.956 211.021 249.1 210.883C249.243 210.742 249.354 210.568 249.432 210.359L250.322 210.609C250.229 210.911 250.071 211.177 249.85 211.406C249.628 211.633 249.355 211.81 249.029 211.937C248.704 212.063 248.338 212.125 247.932 212.125ZM258.693 209.547V206H259.615V212H258.693V210.984H258.631C258.49 211.289 258.271 211.548 257.975 211.762C257.678 211.973 257.303 212.078 256.85 212.078C256.475 212.078 256.141 211.996 255.85 211.832C255.558 211.665 255.329 211.415 255.162 211.082C254.995 210.746 254.912 210.323 254.912 209.812V206H255.834V209.75C255.834 210.187 255.956 210.536 256.201 210.797C256.449 211.057 256.764 211.187 257.146 211.187C257.376 211.187 257.609 211.129 257.846 211.012C258.085 210.895 258.286 210.715 258.447 210.473C258.611 210.23 258.693 209.922 258.693 209.547ZM261.304 214.25V206H262.194V206.953H262.304C262.371 206.849 262.465 206.716 262.585 206.555C262.707 206.391 262.882 206.245 263.108 206.117C263.338 205.987 263.647 205.922 264.038 205.922C264.543 205.922 264.989 206.048 265.374 206.301C265.759 206.553 266.06 206.911 266.276 207.375C266.493 207.839 266.601 208.385 266.601 209.016C266.601 209.651 266.493 210.202 266.276 210.668C266.06 211.132 265.761 211.491 265.378 211.746C264.995 211.999 264.554 212.125 264.054 212.125C263.668 212.125 263.36 212.061 263.128 211.934C262.896 211.803 262.718 211.656 262.593 211.492C262.468 211.326 262.371 211.187 262.304 211.078H262.226V214.25H261.304ZM262.21 209C262.21 209.453 262.276 209.853 262.409 210.199C262.542 210.543 262.736 210.812 262.991 211.008C263.246 211.201 263.559 211.297 263.929 211.297C264.314 211.297 264.636 211.195 264.894 210.992C265.154 210.786 265.349 210.51 265.479 210.164C265.612 209.815 265.679 209.427 265.679 209C265.679 208.578 265.614 208.198 265.483 207.859C265.356 207.518 265.162 207.249 264.901 207.051C264.644 206.85 264.319 206.75 263.929 206.75C263.554 206.75 263.239 206.845 262.983 207.035C262.728 207.223 262.535 207.486 262.405 207.824C262.275 208.16 262.21 208.552 262.21 209ZM273.71 206V206.781H270.601V206H273.71ZM271.507 204.562H272.429V210.281C272.429 210.542 272.466 210.737 272.542 210.867C272.62 210.995 272.719 211.081 272.839 211.125C272.961 211.167 273.09 211.187 273.226 211.187C273.327 211.187 273.41 211.182 273.476 211.172C273.541 211.159 273.593 211.148 273.632 211.141L273.819 211.969C273.757 211.992 273.67 212.016 273.558 212.039C273.446 212.065 273.304 212.078 273.132 212.078C272.871 212.078 272.616 212.022 272.366 211.91C272.119 211.798 271.913 211.628 271.749 211.398C271.588 211.169 271.507 210.88 271.507 210.531V204.562ZM277.47 212.125C276.928 212.125 276.453 211.996 276.044 211.738C275.638 211.48 275.32 211.12 275.091 210.656C274.864 210.193 274.751 209.651 274.751 209.031C274.751 208.406 274.864 207.861 275.091 207.395C275.32 206.928 275.638 206.566 276.044 206.309C276.453 206.051 276.928 205.922 277.47 205.922C278.011 205.922 278.485 206.051 278.892 206.309C279.3 206.566 279.618 206.928 279.845 207.395C280.074 207.861 280.188 208.406 280.188 209.031C280.188 209.651 280.074 210.193 279.845 210.656C279.618 211.12 279.3 211.48 278.892 211.738C278.485 211.996 278.011 212.125 277.47 212.125ZM277.47 211.297C277.881 211.297 278.22 211.191 278.485 210.98C278.751 210.77 278.948 210.492 279.075 210.148C279.203 209.805 279.267 209.432 279.267 209.031C279.267 208.63 279.203 208.257 279.075 207.91C278.948 207.564 278.751 207.284 278.485 207.07C278.22 206.857 277.881 206.75 277.47 206.75C277.058 206.75 276.72 206.857 276.454 207.07C276.188 207.284 275.992 207.564 275.864 207.91C275.737 208.257 275.673 208.63 275.673 209.031C275.673 209.432 275.737 209.805 275.864 210.148C275.992 210.492 276.188 210.77 276.454 210.98C276.72 211.191 277.058 211.297 277.47 211.297ZM287.174 212.109C286.715 212.109 286.303 212.018 285.936 211.836C285.568 211.654 285.274 211.404 285.053 211.086C284.831 210.768 284.71 210.406 284.689 210H285.627C285.663 210.362 285.827 210.661 286.119 210.898C286.413 211.133 286.765 211.25 287.174 211.25C287.502 211.25 287.794 211.173 288.049 211.02C288.307 210.866 288.508 210.655 288.654 210.387C288.803 210.116 288.877 209.81 288.877 209.469C288.877 209.12 288.8 208.809 288.646 208.535C288.495 208.259 288.287 208.042 288.021 207.883C287.756 207.724 287.452 207.643 287.111 207.641C286.867 207.638 286.615 207.676 286.357 207.754C286.1 207.829 285.887 207.927 285.721 208.047L284.814 207.937L285.299 204H289.455V204.859H286.111L285.83 207.219H285.877C286.041 207.089 286.247 206.98 286.494 206.895C286.742 206.809 286.999 206.766 287.268 206.766C287.757 206.766 288.193 206.883 288.576 207.117C288.962 207.349 289.264 207.667 289.482 208.07C289.704 208.474 289.814 208.935 289.814 209.453C289.814 209.964 289.7 210.419 289.471 210.82C289.244 211.219 288.932 211.534 288.533 211.766C288.135 211.995 287.682 212.109 287.174 212.109ZM293.976 212.109C293.387 212.109 292.886 211.949 292.472 211.629C292.058 211.306 291.741 210.839 291.522 210.227C291.304 209.612 291.194 208.87 291.194 208C291.194 207.135 291.304 206.397 291.522 205.785C291.744 205.171 292.062 204.702 292.476 204.379C292.892 204.053 293.392 203.891 293.976 203.891C294.559 203.891 295.058 204.053 295.472 204.379C295.888 204.702 296.206 205.171 296.425 205.785C296.646 206.397 296.757 207.135 296.757 208C296.757 208.87 296.647 209.612 296.429 210.227C296.21 210.839 295.894 211.306 295.479 211.629C295.065 211.949 294.564 212.109 293.976 212.109ZM293.976 211.25C294.559 211.25 295.012 210.969 295.335 210.406C295.658 209.844 295.819 209.042 295.819 208C295.819 207.307 295.745 206.717 295.597 206.23C295.451 205.743 295.24 205.372 294.964 205.117C294.69 204.862 294.361 204.734 293.976 204.734C293.397 204.734 292.946 205.02 292.62 205.59C292.295 206.158 292.132 206.961 292.132 208C292.132 208.693 292.205 209.281 292.351 209.766C292.496 210.25 292.706 210.618 292.979 210.871C293.256 211.124 293.588 211.25 293.976 211.25ZM301.476 204H302.632L305.351 210.641H305.444L308.163 204H309.319V212H308.413V205.922H308.335L305.835 212H304.96L302.46 205.922H302.382V212H301.476V204ZM311.262 212V204H314.059C314.616 204 315.076 204.096 315.438 204.289C315.799 204.479 316.069 204.736 316.246 205.059C316.423 205.379 316.512 205.734 316.512 206.125C316.512 206.469 316.451 206.753 316.328 206.977C316.208 207.201 316.049 207.378 315.852 207.508C315.656 207.638 315.444 207.734 315.215 207.797V207.875C315.46 207.891 315.706 207.977 315.953 208.133C316.201 208.289 316.408 208.513 316.574 208.805C316.741 209.096 316.824 209.453 316.824 209.875C316.824 210.276 316.733 210.637 316.551 210.957C316.368 211.277 316.081 211.531 315.688 211.719C315.294 211.906 314.783 212 314.152 212H311.262ZM312.23 211.141H314.152C314.785 211.141 315.234 211.018 315.5 210.773C315.768 210.526 315.902 210.227 315.902 209.875C315.902 209.604 315.833 209.354 315.695 209.125C315.557 208.893 315.361 208.708 315.105 208.57C314.85 208.43 314.548 208.359 314.199 208.359H312.23V211.141ZM312.23 207.516H314.027C314.319 207.516 314.582 207.458 314.816 207.344C315.053 207.229 315.241 207.068 315.379 206.859C315.52 206.651 315.59 206.406 315.59 206.125C315.59 205.773 315.467 205.475 315.223 205.23C314.978 204.983 314.59 204.859 314.059 204.859H312.23V207.516ZM318.963 212.063C318.77 212.063 318.605 211.993 318.467 211.855C318.329 211.717 318.26 211.552 318.26 211.359C318.26 211.167 318.329 211.001 318.467 210.863C318.605 210.725 318.77 210.656 318.963 210.656C319.156 210.656 319.321 210.725 319.459 210.863C319.597 211.001 319.666 211.167 319.666 211.359C319.666 211.487 319.633 211.604 319.568 211.711C319.506 211.818 319.421 211.904 319.314 211.969C319.21 212.031 319.093 212.063 318.963 212.063Z" fill="#707070"/>
</svg>
