<svg width="804" height="268" viewBox="0 0 804 268" fill="none" xmlns="http://www.w3.org/2000/svg">
<rect width="804" height="268" fill="#F9FAFB"/>
<path d="M221.784 109H218.959V100.273H221.874C222.729 100.273 223.463 100.447 224.077 100.797C224.69 101.143 225.161 101.642 225.487 102.293C225.817 102.94 225.982 103.717 225.982 104.624C225.982 105.533 225.815 106.314 225.483 106.967C225.153 107.621 224.676 108.124 224.051 108.476C223.426 108.825 222.67 109 221.784 109ZM220.276 107.849H221.712C222.376 107.849 222.929 107.724 223.369 107.474C223.81 107.222 224.139 106.857 224.358 106.379C224.577 105.899 224.686 105.314 224.686 104.624C224.686 103.939 224.577 103.358 224.358 102.881C224.142 102.403 223.82 102.041 223.391 101.794C222.962 101.547 222.429 101.423 221.793 101.423H220.276V107.849ZM229.422 109.145C229.007 109.145 228.632 109.068 228.297 108.915C227.961 108.759 227.696 108.533 227.5 108.237C227.306 107.942 227.21 107.58 227.21 107.151C227.21 106.781 227.281 106.477 227.423 106.239C227.565 106 227.757 105.811 227.998 105.672C228.24 105.533 228.51 105.428 228.808 105.357C229.106 105.286 229.41 105.232 229.72 105.195C230.112 105.149 230.43 105.112 230.674 105.084C230.919 105.053 231.096 105.003 231.207 104.935C231.318 104.866 231.373 104.756 231.373 104.602V104.572C231.373 104.2 231.268 103.912 231.058 103.707C230.85 103.503 230.541 103.401 230.129 103.401C229.7 103.401 229.362 103.496 229.115 103.686C228.87 103.874 228.701 104.082 228.608 104.312L227.41 104.04C227.552 103.642 227.76 103.321 228.032 103.077C228.308 102.83 228.625 102.651 228.983 102.54C229.341 102.426 229.717 102.369 230.112 102.369C230.373 102.369 230.65 102.401 230.943 102.463C231.238 102.523 231.514 102.634 231.77 102.795C232.028 102.957 232.24 103.189 232.404 103.49C232.569 103.788 232.652 104.176 232.652 104.653V109H231.407V108.105H231.356C231.274 108.27 231.15 108.432 230.985 108.591C230.821 108.75 230.609 108.882 230.35 108.987C230.092 109.092 229.782 109.145 229.422 109.145ZM229.699 108.122C230.051 108.122 230.352 108.053 230.602 107.913C230.855 107.774 231.047 107.592 231.177 107.368C231.311 107.141 231.377 106.898 231.377 106.639V105.795C231.332 105.841 231.244 105.884 231.113 105.923C230.985 105.96 230.839 105.993 230.674 106.021C230.51 106.047 230.349 106.071 230.193 106.094C230.037 106.114 229.906 106.131 229.801 106.145C229.554 106.176 229.328 106.229 229.123 106.303C228.922 106.376 228.76 106.483 228.637 106.622C228.518 106.759 228.458 106.94 228.458 107.168C228.458 107.483 228.575 107.722 228.808 107.884C229.041 108.043 229.338 108.122 229.699 108.122ZM237.404 102.455V103.477H233.829V102.455H237.404ZM234.788 100.886H236.062V107.078C236.062 107.325 236.099 107.511 236.173 107.636C236.246 107.759 236.342 107.842 236.458 107.888C236.577 107.93 236.707 107.952 236.846 107.952C236.948 107.952 237.038 107.945 237.114 107.93C237.191 107.916 237.251 107.905 237.293 107.896L237.523 108.949C237.45 108.977 237.344 109.006 237.208 109.034C237.072 109.065 236.901 109.082 236.697 109.085C236.362 109.091 236.049 109.031 235.759 108.906C235.469 108.781 235.235 108.588 235.056 108.327C234.877 108.065 234.788 107.737 234.788 107.342V100.886ZM241.564 109.132C240.919 109.132 240.364 108.994 239.898 108.719C239.435 108.44 239.077 108.05 238.824 107.547C238.574 107.041 238.449 106.449 238.449 105.77C238.449 105.099 238.574 104.509 238.824 103.997C239.077 103.486 239.429 103.087 239.881 102.8C240.336 102.513 240.867 102.369 241.475 102.369C241.844 102.369 242.202 102.43 242.549 102.553C242.895 102.675 243.206 102.866 243.482 103.128C243.757 103.389 243.975 103.729 244.134 104.146C244.293 104.561 244.373 105.065 244.373 105.659V106.111H239.169V105.156H243.124C243.124 104.821 243.056 104.524 242.919 104.266C242.783 104.004 242.591 103.798 242.344 103.648C242.1 103.497 241.813 103.422 241.483 103.422C241.125 103.422 240.813 103.51 240.546 103.686C240.282 103.859 240.077 104.087 239.932 104.368C239.79 104.646 239.719 104.949 239.719 105.276V106.021C239.719 106.459 239.796 106.831 239.949 107.138C240.105 107.445 240.323 107.679 240.601 107.841C240.88 108 241.205 108.08 241.577 108.08C241.819 108.08 242.039 108.045 242.238 107.977C242.436 107.906 242.608 107.801 242.753 107.662C242.898 107.523 243.009 107.351 243.086 107.146L244.292 107.364C244.195 107.719 244.022 108.03 243.772 108.297C243.525 108.561 243.213 108.767 242.838 108.915C242.466 109.06 242.042 109.132 241.564 109.132Z" fill="#707070"/>
<rect x="218.5" y="116.5" width="319" height="35" rx="2.5" fill="white"/>
<path d="M234.062 138.5H231.145V129.045H234.192C235.109 129.045 235.894 129.235 236.546 129.613C237.199 129.989 237.699 130.529 238.047 131.234C238.394 131.935 238.568 132.776 238.568 133.754C238.568 134.739 238.393 135.587 238.042 136.298C237.691 137.006 237.18 137.551 236.509 137.932C235.838 138.311 235.023 138.5 234.062 138.5ZM232.29 137.484H233.989C234.77 137.484 235.418 137.334 235.932 137.032C236.446 136.73 236.829 136.301 237.082 135.744C237.334 135.187 237.46 134.524 237.46 133.754C237.46 132.991 237.336 132.334 237.086 131.783C236.837 131.229 236.465 130.804 235.969 130.509C235.474 130.21 234.857 130.061 234.118 130.061H232.29V137.484ZM243.406 138.5H240.489V129.045H243.536C244.453 129.045 245.237 129.235 245.89 129.613C246.542 129.989 247.042 130.529 247.39 131.234C247.738 131.935 247.912 132.776 247.912 133.754C247.912 134.739 247.737 135.587 247.386 136.298C247.035 137.006 246.524 137.551 245.853 137.932C245.182 138.311 244.366 138.5 243.406 138.5ZM241.634 137.484H243.332C244.114 137.484 244.762 137.334 245.276 137.032C245.79 136.73 246.173 136.301 246.425 135.744C246.678 135.187 246.804 134.524 246.804 133.754C246.804 132.991 246.679 132.334 246.43 131.783C246.181 131.229 245.808 130.804 245.313 130.509C244.817 130.21 244.2 130.061 243.462 130.061H241.634V137.484ZM252.506 128.602L249.46 139.922H248.462L251.509 128.602H252.506ZM253.946 129.045H255.312L258.525 136.893H258.636L261.849 129.045H263.216V138.5H262.145V131.317H262.052L259.098 138.5H258.064L255.109 131.317H255.017V138.5H253.946V129.045ZM265.511 129.045H266.878L270.091 136.893H270.201L273.415 129.045H274.781V138.5H273.71V131.317H273.618L270.663 138.5H269.629L266.674 131.317H266.582V138.5H265.511V129.045ZM280.271 128.602L277.224 139.922H276.227L279.274 128.602H280.271ZM280.898 129.045H282.209L284.831 133.459H284.942L287.564 129.045H288.875L285.459 134.604V138.5H284.314V134.604L280.898 129.045ZM289.543 129.045H290.854L293.477 133.459H293.587L296.21 129.045H297.521L294.104 134.604V138.5H292.96V134.604L289.543 129.045ZM298.189 129.045H299.5L302.122 133.459H302.233L304.855 129.045H306.166L302.75 134.604V138.5H301.605V134.604L298.189 129.045ZM306.834 129.045H308.145L310.768 133.459H310.878L313.501 129.045H314.812L311.395 134.604V138.5H310.251V134.604L306.834 129.045Z" fill="#C8C8C8"/>
<path fill-rule="evenodd" clip-rule="evenodd" d="M512.666 124.836C513.126 124.836 513.499 125.209 513.499 125.669V126.503H518.499V125.669C518.499 125.209 518.872 124.836 519.333 124.836C519.793 124.836 520.166 125.209 520.166 125.669V126.504C520.562 126.507 520.909 126.515 521.209 126.539C521.678 126.578 522.108 126.66 522.513 126.866C523.14 127.185 523.65 127.695 523.969 128.323C524.175 128.727 524.258 129.158 524.296 129.626C524.333 130.077 524.333 130.631 524.333 131.302V138.37C524.333 139.041 524.333 139.595 524.296 140.046C524.258 140.514 524.175 140.945 523.969 141.349C523.65 141.976 523.14 142.486 522.513 142.806C522.108 143.012 521.678 143.094 521.209 143.132C520.758 143.169 520.205 143.169 519.534 143.169H512.465C511.794 143.169 511.24 143.169 510.789 143.132C510.321 143.094 509.89 143.012 509.486 142.806C508.859 142.486 508.349 141.976 508.029 141.349C507.823 140.945 507.741 140.514 507.703 140.046C507.666 139.595 507.666 139.041 507.666 138.37V131.302C507.666 130.631 507.666 130.077 507.703 129.626C507.741 129.158 507.823 128.727 508.029 128.323C508.349 127.695 508.859 127.185 509.486 126.866C509.89 126.66 510.321 126.578 510.789 126.539C511.09 126.515 511.436 126.507 511.833 126.504V125.669C511.833 125.209 512.206 124.836 512.666 124.836ZM511.833 128.171C511.461 128.173 511.17 128.181 510.925 128.201C510.56 128.23 510.373 128.285 510.243 128.351C509.929 128.511 509.674 128.766 509.514 129.079C509.448 129.21 509.394 129.396 509.364 129.762C509.333 130.137 509.333 130.622 509.333 131.336V131.503H522.666V131.336C522.666 130.622 522.665 130.137 522.635 129.762C522.605 129.396 522.551 129.21 522.484 129.079C522.325 128.766 522.07 128.511 521.756 128.351C521.626 128.285 521.439 128.23 521.073 128.201C520.829 128.181 520.537 128.173 520.166 128.171V129.003C520.166 129.463 519.793 129.836 519.333 129.836C518.872 129.836 518.499 129.463 518.499 129.003V128.169H513.499V129.003C513.499 129.463 513.126 129.836 512.666 129.836C512.206 129.836 511.833 129.463 511.833 129.003V128.171ZM522.666 133.169H509.333V138.336C509.333 139.05 509.333 139.535 509.364 139.91C509.394 140.275 509.448 140.462 509.514 140.593C509.674 140.906 509.929 141.161 510.243 141.321C510.373 141.387 510.56 141.441 510.925 141.471C511.3 141.502 511.786 141.503 512.499 141.503H519.499C520.213 141.503 520.698 141.502 521.073 141.471C521.439 141.441 521.626 141.387 521.756 141.321C522.07 141.161 522.325 140.906 522.484 140.593C522.551 140.462 522.605 140.275 522.635 139.91C522.665 139.535 522.666 139.05 522.666 138.336V133.169Z" fill="#9E9E9E"/>
<rect x="218.5" y="116.5" width="319" height="35" rx="2.5" stroke="#EFEFEF"/>
<g clip-path="url(#clip0_915_38042)">
<rect x="170" y="124.5" width="48" height="1" fill="#C54600"/>
<g clip-path="url(#clip1_915_38042)">
<rect x="170" y="112.5" width="24" height="24" rx="12" fill="#C54600"/>
<path d="M183.183 119.773V128.5H182.126V120.881H182.075L179.944 122.295V121.222L182.126 119.773H183.183Z" fill="white"/>
</g>
</g>
<g clip-path="url(#clip2_915_38042)">
<rect x="231.666" y="49" width="1" height="51.2727" fill="#C54600"/>
<g clip-path="url(#clip3_915_38042)">
<rect x="219.666" y="49" width="24" height="24" rx="12" fill="#C54600"/>
<path d="M228.937 65V64.233L231.817 61.0795C232.155 60.7102 232.434 60.3892 232.653 60.1165C232.871 59.8409 233.033 59.5824 233.138 59.3409C233.246 59.0966 233.3 58.8409 233.3 58.5739C233.3 58.267 233.226 58.0014 233.079 57.777C232.934 57.5526 232.735 57.3793 232.482 57.2571C232.229 57.1349 231.945 57.0739 231.63 57.0739C231.295 57.0739 231.002 57.1435 230.752 57.2827C230.505 57.419 230.313 57.6108 230.177 57.858C230.043 58.1051 229.976 58.3949 229.976 58.7273H228.971C228.971 58.2159 229.089 57.767 229.324 57.3807C229.56 56.9943 229.881 56.6932 230.287 56.4773C230.697 56.2614 231.155 56.1534 231.664 56.1534C232.175 56.1534 232.628 56.2614 233.023 56.4773C233.418 56.6932 233.728 56.9844 233.952 57.3509C234.177 57.7173 234.289 58.125 234.289 58.5739C234.289 58.8949 234.231 59.2088 234.114 59.5156C234.001 59.8196 233.802 60.1591 233.518 60.5341C233.236 60.9062 232.846 61.3608 232.346 61.8977L230.385 63.9943V64.0625H234.442V65H228.937Z" fill="white"/>
</g>
</g>
<g clip-path="url(#clip4_915_38042)">
<rect x="538" y="134" width="48" height="1" fill="#C54600"/>
<g clip-path="url(#clip5_915_38042)">
<rect x="562" y="122" width="24" height="24" rx="12" fill="#C54600"/>
<path d="M574.032 138.119C573.469 138.119 572.968 138.023 572.528 137.83C572.09 137.636 571.742 137.368 571.484 137.024C571.228 136.678 571.089 136.276 571.066 135.818H572.14C572.163 136.099 572.259 136.342 572.43 136.547C572.6 136.749 572.823 136.905 573.099 137.016C573.374 137.126 573.68 137.182 574.015 137.182C574.39 137.182 574.722 137.116 575.012 136.986C575.302 136.855 575.529 136.673 575.694 136.44C575.859 136.207 575.941 135.938 575.941 135.631C575.941 135.31 575.862 135.027 575.702 134.783C575.543 134.536 575.31 134.342 575.004 134.203C574.697 134.064 574.322 133.994 573.879 133.994H573.18V133.057H573.879C574.225 133.057 574.529 132.994 574.79 132.869C575.055 132.744 575.261 132.568 575.408 132.341C575.559 132.114 575.634 131.847 575.634 131.54C575.634 131.244 575.569 130.987 575.438 130.768C575.308 130.55 575.123 130.379 574.884 130.257C574.648 130.135 574.37 130.074 574.049 130.074C573.748 130.074 573.464 130.129 573.197 130.24C572.933 130.348 572.717 130.506 572.549 130.713C572.381 130.918 572.29 131.165 572.276 131.455H571.254C571.271 130.997 571.408 130.597 571.667 130.253C571.925 129.906 572.263 129.636 572.681 129.443C573.102 129.25 573.563 129.153 574.066 129.153C574.606 129.153 575.069 129.263 575.455 129.482C575.842 129.697 576.138 129.983 576.346 130.338C576.553 130.693 576.657 131.077 576.657 131.489C576.657 131.98 576.528 132.399 576.269 132.746C576.013 133.092 575.665 133.332 575.225 133.466V133.534C575.776 133.625 576.207 133.859 576.516 134.237C576.826 134.612 576.981 135.077 576.981 135.631C576.981 136.105 576.852 136.531 576.593 136.909C576.337 137.284 575.988 137.58 575.545 137.795C575.102 138.011 574.597 138.119 574.032 138.119Z" fill="white"/>
</g>
</g>
<g clip-path="url(#clip6_915_38042)">
<rect x="272.979" y="139.922" width="1" height="60.0781" fill="#C54600"/>
<g clip-path="url(#clip7_915_38042)">
<rect x="260.979" y="176" width="24" height="24" rx="12" fill="#C54600"/>
<path d="M269.828 190.21V189.341L273.663 183.273H274.294V184.619H273.868L270.97 189.205V189.273H276.135V190.21H269.828ZM273.936 192V189.946V189.541V183.273H274.941V192H273.936Z" fill="white"/>
</g>
</g>
<g clip-path="url(#clip8_915_38042)">
<rect x="516" y="144" width="1" height="56" fill="#C54600"/>
<g clip-path="url(#clip9_915_38042)">
<rect x="504" y="176" width="24" height="24" rx="12" fill="#C54600"/>
<path d="M515.98 192.119C515.48 192.119 515.03 192.02 514.629 191.821C514.229 191.622 513.908 191.349 513.666 191.003C513.425 190.656 513.293 190.261 513.27 189.818H514.293C514.333 190.213 514.512 190.54 514.83 190.798C515.151 191.054 515.534 191.182 515.98 191.182C516.338 191.182 516.656 191.098 516.935 190.93C517.216 190.763 517.436 190.533 517.595 190.24C517.757 189.945 517.838 189.611 517.838 189.239C517.838 188.858 517.754 188.518 517.587 188.22C517.422 187.919 517.195 187.682 516.905 187.509C516.615 187.335 516.284 187.247 515.912 187.244C515.645 187.241 515.371 187.283 515.09 187.368C514.808 187.45 514.577 187.557 514.395 187.688L513.406 187.568L513.935 183.273H518.469V184.21H514.821L514.514 186.784H514.566C514.744 186.642 514.969 186.524 515.239 186.43C515.509 186.337 515.79 186.29 516.083 186.29C516.617 186.29 517.093 186.418 517.51 186.673C517.931 186.926 518.26 187.273 518.499 187.713C518.74 188.153 518.861 188.656 518.861 189.222C518.861 189.778 518.736 190.276 518.486 190.713C518.239 191.148 517.898 191.491 517.463 191.744C517.029 191.994 516.534 192.119 515.98 192.119Z" fill="white"/>
</g>
</g>
<defs>
<clipPath id="clip0_915_38042">
<rect width="48" height="24" fill="white" transform="translate(170 112.5)"/>
</clipPath>
<clipPath id="clip1_915_38042">
<rect x="170" y="112.5" width="24" height="24" rx="12" fill="white"/>
</clipPath>
<clipPath id="clip2_915_38042">
<rect width="24" height="51.2727" fill="white" transform="translate(219.666 49)"/>
</clipPath>
<clipPath id="clip3_915_38042">
<rect x="219.666" y="49" width="24" height="24" rx="12" fill="white"/>
</clipPath>
<clipPath id="clip4_915_38042">
<rect width="48" height="24" fill="white" transform="translate(538 122)"/>
</clipPath>
<clipPath id="clip5_915_38042">
<rect x="562" y="122" width="24" height="24" rx="12" fill="white"/>
</clipPath>
<clipPath id="clip6_915_38042">
<rect width="24" height="60.0781" fill="white" transform="translate(260.979 139.922)"/>
</clipPath>
<clipPath id="clip7_915_38042">
<rect x="260.979" y="176" width="24" height="24" rx="12" fill="white"/>
</clipPath>
<clipPath id="clip8_915_38042">
<rect width="24" height="56" fill="white" transform="translate(504 144)"/>
</clipPath>
<clipPath id="clip9_915_38042">
<rect x="504" y="176" width="24" height="24" rx="12" fill="white"/>
</clipPath>
</defs>
</svg>
