<svg width="284" height="268" viewBox="0 0 284 268" fill="none" xmlns="http://www.w3.org/2000/svg">
<rect width="284" height="268" rx="4" fill="white"/>
<path fill-rule="evenodd" clip-rule="evenodd" d="M24.9226 22.4107C25.248 22.7362 25.248 23.2638 24.9226 23.5893L21.3452 27.1667H32.6667C33.1269 27.1667 33.5 27.5398 33.5 28C33.5 28.4602 33.1269 28.8333 32.6667 28.8333H21.3452L24.9226 32.4107C25.248 32.7362 25.248 33.2638 24.9226 33.5893C24.5972 33.9147 24.0695 33.9147 23.7441 33.5893L18.7441 28.5893C18.4186 28.2638 18.4186 27.7362 18.7441 27.4107L23.7441 22.4107C24.0695 22.0853 24.5972 22.0853 24.9226 22.4107Z" fill="#9E9E9E"/>
<path d="M115.767 22.2727H117.59V28.358C117.59 28.9205 117.464 29.4091 117.211 29.8239C116.961 30.2386 116.613 30.5582 116.167 30.7827C115.721 31.0071 115.203 31.1193 114.612 31.1193C114.086 31.1193 113.609 31.027 113.18 30.8423C112.754 30.6548 112.416 30.3707 112.166 29.9901C111.916 29.6065 111.792 29.125 111.795 28.5455H113.632C113.637 28.7756 113.684 28.973 113.772 29.1378C113.863 29.2997 113.987 29.4247 114.143 29.5128C114.302 29.598 114.49 29.6406 114.705 29.6406C114.933 29.6406 115.124 29.5923 115.281 29.4957C115.44 29.3963 115.561 29.2514 115.643 29.0611C115.725 28.8707 115.767 28.6364 115.767 28.358V22.2727ZM123.279 28.2131V24.4545H125.095V31H123.352V29.8111H123.284C123.136 30.1946 122.89 30.5028 122.546 30.7358C122.205 30.9687 121.789 31.0852 121.298 31.0852C120.86 31.0852 120.475 30.9858 120.143 30.7869C119.811 30.5881 119.551 30.3054 119.363 29.9389C119.178 29.5724 119.085 29.1335 119.082 28.6222V24.4545H120.897V28.2983C120.9 28.6847 121.004 28.9901 121.208 29.2145C121.413 29.4389 121.687 29.5511 122.031 29.5511C122.249 29.5511 122.454 29.5014 122.644 29.402C122.835 29.2997 122.988 29.1491 123.105 28.9503C123.224 28.7514 123.282 28.5057 123.279 28.2131ZM128.362 27.2159V31H126.547V24.4545H128.277V25.6094H128.354C128.498 25.2287 128.741 24.9276 129.082 24.706C129.423 24.4815 129.836 24.3693 130.322 24.3693C130.777 24.3693 131.173 24.4688 131.511 24.6676C131.849 24.8665 132.112 25.1506 132.3 25.5199C132.487 25.8864 132.581 26.3239 132.581 26.8324V31H130.765V27.1562C130.768 26.7557 130.666 26.4432 130.459 26.2188C130.251 25.9915 129.966 25.8778 129.602 25.8778C129.358 25.8778 129.142 25.9304 128.954 26.0355C128.77 26.1406 128.625 26.294 128.52 26.4957C128.417 26.6946 128.365 26.9347 128.362 27.2159ZM136.994 31.1278C136.321 31.1278 135.742 30.9915 135.256 30.7188C134.773 30.4432 134.401 30.054 134.139 29.5511C133.878 29.0455 133.747 28.4474 133.747 27.7571C133.747 27.0838 133.878 26.4929 134.139 25.9844C134.401 25.4759 134.769 25.0795 135.243 24.7955C135.72 24.5114 136.28 24.3693 136.922 24.3693C137.354 24.3693 137.756 24.4389 138.128 24.5781C138.503 24.7145 138.83 24.9205 139.108 25.196C139.389 25.4716 139.608 25.8182 139.764 26.2358C139.921 26.6506 139.999 27.1364 139.999 27.6932V28.1918H134.472V27.0668H138.29C138.29 26.8054 138.233 26.5739 138.119 26.3722C138.006 26.1705 137.848 26.0128 137.646 25.8991C137.448 25.7827 137.216 25.7244 136.952 25.7244C136.676 25.7244 136.432 25.7884 136.219 25.9162C136.009 26.0412 135.844 26.2102 135.725 26.4233C135.605 26.6335 135.544 26.8679 135.541 27.1264V28.196C135.541 28.5199 135.601 28.7997 135.72 29.0355C135.843 29.2713 136.014 29.4531 136.236 29.581C136.458 29.7088 136.72 29.7727 137.024 29.7727C137.226 29.7727 137.411 29.7443 137.578 29.6875C137.746 29.6307 137.889 29.5455 138.009 29.4318C138.128 29.3182 138.219 29.179 138.281 29.0142L139.96 29.125C139.875 29.5284 139.7 29.8807 139.436 30.1818C139.175 30.4801 138.837 30.7131 138.422 30.8807C138.01 31.0455 137.534 31.1278 136.994 31.1278ZM143.944 31V29.6705L147.05 26.794C147.314 26.5384 147.536 26.3082 147.715 26.1037C147.897 25.8991 148.035 25.6989 148.128 25.5028C148.222 25.304 148.269 25.0895 148.269 24.8594C148.269 24.6037 148.211 24.3835 148.094 24.1989C147.978 24.0114 147.819 23.8679 147.617 23.7685C147.415 23.6662 147.187 23.6151 146.931 23.6151C146.664 23.6151 146.431 23.669 146.232 23.777C146.033 23.8849 145.88 24.0398 145.772 24.2415C145.664 24.4432 145.61 24.6832 145.61 24.9616H143.858C143.858 24.3906 143.988 23.8949 144.246 23.4744C144.505 23.054 144.867 22.7287 145.333 22.4986C145.799 22.2685 146.336 22.1534 146.944 22.1534C147.569 22.1534 148.113 22.2642 148.576 22.4858C149.042 22.7045 149.404 23.0085 149.662 23.3977C149.921 23.7869 150.05 24.233 150.05 24.7358C150.05 25.0653 149.985 25.3906 149.854 25.7116C149.726 26.0327 149.498 26.3892 149.168 26.7812C148.839 27.1705 148.374 27.6378 147.775 28.1832L146.501 29.4318V29.4915H150.165V31H143.944ZM154.924 31.1918C154.191 31.1889 153.561 31.0085 153.032 30.6506C152.507 30.2926 152.102 29.7741 151.818 29.0952C151.536 28.4162 151.397 27.5994 151.4 26.6449C151.4 25.6932 151.541 24.8821 151.822 24.2116C152.106 23.5412 152.511 23.0312 153.036 22.6818C153.565 22.3295 154.194 22.1534 154.924 22.1534C155.654 22.1534 156.282 22.3295 156.808 22.6818C157.336 23.0341 157.742 23.5455 158.026 24.2159C158.311 24.8835 158.451 25.6932 158.448 26.6449C158.448 27.6023 158.306 28.4205 158.022 29.0994C157.741 29.7784 157.338 30.2969 156.812 30.6548C156.286 31.0128 155.657 31.1918 154.924 31.1918ZM154.924 29.6619C155.424 29.6619 155.823 29.4105 156.122 28.9077C156.42 28.4048 156.568 27.6506 156.565 26.6449C156.565 25.983 156.497 25.4318 156.36 24.9915C156.227 24.5511 156.036 24.2202 155.789 23.9986C155.545 23.777 155.257 23.6662 154.924 23.6662C154.427 23.6662 154.029 23.9148 153.731 24.4119C153.433 24.9091 153.282 25.6534 153.279 26.6449C153.279 27.3153 153.346 27.875 153.48 28.3239C153.616 28.7699 153.808 29.1051 154.055 29.3295C154.302 29.5511 154.592 29.6619 154.924 29.6619ZM159.764 31V29.6705L162.871 26.794C163.135 26.5384 163.356 26.3082 163.535 26.1037C163.717 25.8991 163.855 25.6989 163.949 25.5028C164.042 25.304 164.089 25.0895 164.089 24.8594C164.089 24.6037 164.031 24.3835 163.915 24.1989C163.798 24.0114 163.639 23.8679 163.437 23.7685C163.236 23.6662 163.007 23.6151 162.751 23.6151C162.484 23.6151 162.251 23.669 162.052 23.777C161.854 23.8849 161.7 24.0398 161.592 24.2415C161.484 24.4432 161.43 24.6832 161.43 24.9616H159.679C159.679 24.3906 159.808 23.8949 160.067 23.4744C160.325 23.054 160.687 22.7287 161.153 22.4986C161.619 22.2685 162.156 22.1534 162.764 22.1534C163.389 22.1534 163.933 22.2642 164.396 22.4858C164.862 22.7045 165.224 23.0085 165.483 23.3977C165.741 23.7869 165.871 24.233 165.871 24.7358C165.871 25.0653 165.805 25.3906 165.675 25.7116C165.547 26.0327 165.318 26.3892 164.988 26.7812C164.659 27.1705 164.194 27.6378 163.595 28.1832L162.321 29.4318V29.4915H165.986V31H159.764ZM171.119 22.2727V31H169.274V24.0241H169.223L167.225 25.277V23.6406L169.385 22.2727H171.119Z" fill="#1A1A1A"/>
<path fill-rule="evenodd" clip-rule="evenodd" d="M259.077 22.4107C259.403 22.0853 259.93 22.0853 260.256 22.4107L265.256 27.4107C265.581 27.7362 265.581 28.2638 265.256 28.5893L260.256 33.5893C259.93 33.9147 259.403 33.9147 259.077 33.5893C258.752 33.2638 258.752 32.7362 259.077 32.4107L262.655 28.8333H251.333C250.873 28.8333 250.5 28.4602 250.5 28C250.5 27.5398 250.873 27.1667 251.333 27.1667H262.655L259.077 23.5893C258.752 23.2638 258.752 22.7362 259.077 22.4107Z" fill="#9E9E9E"/>
<g clip-path="url(#clip0_2628_9317)">
<path d="M28.7031 62.5653C28.6577 62.1619 28.4702 61.8494 28.1406 61.6278C27.8111 61.4034 27.3963 61.2912 26.8963 61.2912C26.5384 61.2912 26.2287 61.348 25.9673 61.4616C25.706 61.5724 25.5028 61.7259 25.358 61.9219C25.2159 62.1151 25.1449 62.3352 25.1449 62.5824C25.1449 62.7898 25.1932 62.9687 25.2898 63.1193C25.3892 63.2699 25.5185 63.3963 25.6776 63.4986C25.8395 63.598 26.0128 63.6818 26.1974 63.75C26.3821 63.8153 26.5597 63.8693 26.7301 63.9119L27.5824 64.1335C27.8608 64.2017 28.1463 64.294 28.4389 64.4105C28.7315 64.527 29.0028 64.6804 29.2528 64.8707C29.5028 65.0611 29.7045 65.2969 29.858 65.5781C30.0142 65.8594 30.0923 66.196 30.0923 66.5881C30.0923 67.0824 29.9645 67.5213 29.7088 67.9048C29.456 68.2884 29.0881 68.5909 28.6051 68.8125C28.125 69.0341 27.544 69.1449 26.8622 69.1449C26.2088 69.1449 25.6435 69.0412 25.1662 68.8338C24.6889 68.6264 24.3153 68.3324 24.0455 67.9517C23.7756 67.5682 23.6264 67.1136 23.598 66.5881H24.919C24.9446 66.9034 25.0469 67.1662 25.2259 67.3764C25.4077 67.5838 25.6392 67.7386 25.9205 67.8409C26.2045 67.9403 26.5156 67.9901 26.8537 67.9901C27.2259 67.9901 27.5568 67.9318 27.8466 67.8153C28.1392 67.696 28.3693 67.5312 28.5369 67.321C28.7045 67.108 28.7884 66.8594 28.7884 66.5753C28.7884 66.3168 28.7145 66.1051 28.5668 65.9403C28.4219 65.7756 28.2244 65.6392 27.9744 65.5312C27.7273 65.4233 27.4474 65.3281 27.1349 65.2457L26.1037 64.9645C25.4048 64.7741 24.8509 64.4943 24.4418 64.125C24.0355 63.7557 23.8324 63.267 23.8324 62.6591C23.8324 62.1562 23.9688 61.7173 24.2415 61.3423C24.5142 60.9673 24.8835 60.6761 25.3494 60.4688C25.8153 60.2585 26.3409 60.1534 26.9261 60.1534C27.517 60.1534 28.0384 60.2571 28.4901 60.4645C28.9446 60.6719 29.3026 60.9574 29.5639 61.321C29.8253 61.6818 29.9616 62.0966 29.973 62.5653H28.7031ZM35.7099 66.2855V62.4545H36.9883V69H35.7354V67.8665H35.6673C35.5167 68.2159 35.2752 68.5071 34.9428 68.7401C34.6133 68.9702 34.2028 69.0852 33.7113 69.0852C33.2908 69.0852 32.9187 68.9929 32.5948 68.8082C32.2738 68.6207 32.021 68.3438 31.8363 67.9773C31.6545 67.6108 31.5636 67.1577 31.5636 66.6179V62.4545H32.8377V66.4645C32.8377 66.9105 32.9613 67.2656 33.2085 67.5298C33.4556 67.794 33.7766 67.9261 34.1715 67.9261C34.4102 67.9261 34.6474 67.8665 34.8832 67.7472C35.1218 67.6278 35.3192 67.4474 35.4755 67.206C35.6346 66.9645 35.7127 66.6577 35.7099 66.2855ZM39.9744 65.1136V69H38.7003V62.4545H39.9233V63.5199H40.0043C40.1548 63.1733 40.3906 62.8949 40.7116 62.6847C41.0355 62.4744 41.4432 62.3693 41.9347 62.3693C42.3807 62.3693 42.7713 62.4631 43.1065 62.6506C43.4418 62.8352 43.7017 63.1108 43.8864 63.4773C44.071 63.8437 44.1634 64.2969 44.1634 64.8366V69H42.8892V64.9901C42.8892 64.5156 42.7656 64.1449 42.5185 63.8778C42.2713 63.608 41.9318 63.473 41.5 63.473C41.2045 63.473 40.9418 63.5369 40.7116 63.6648C40.4844 63.7926 40.304 63.9801 40.1705 64.2273C40.0398 64.4716 39.9744 64.767 39.9744 65.1136Z" fill="#707070"/>
<path d="M58.3729 60.2727H59.9709L62.7493 67.0568H62.8516L65.63 60.2727H67.228V69H65.9751V62.6847H65.8942L63.3203 68.9872H62.2805L59.7067 62.6804H59.6257V69H58.3729V60.2727ZM71.7972 69.1321C71.1836 69.1321 70.6481 68.9915 70.1907 68.7102C69.7333 68.429 69.3782 68.0355 69.1254 67.5298C68.8725 67.0241 68.7461 66.4332 68.7461 65.7571C68.7461 65.0781 68.8725 64.4844 69.1254 63.9759C69.3782 63.4673 69.7333 63.0724 70.1907 62.7912C70.6481 62.5099 71.1836 62.3693 71.7972 62.3693C72.4109 62.3693 72.9464 62.5099 73.4038 62.7912C73.8612 63.0724 74.2163 63.4673 74.4691 63.9759C74.7219 64.4844 74.8484 65.0781 74.8484 65.7571C74.8484 66.4332 74.7219 67.0241 74.4691 67.5298C74.2163 68.0355 73.8612 68.429 73.4038 68.7102C72.9464 68.9915 72.4109 69.1321 71.7972 69.1321ZM71.8015 68.0625C72.1992 68.0625 72.5288 67.9574 72.7901 67.7472C73.0515 67.5369 73.2447 67.2571 73.3697 66.9077C73.4975 66.5582 73.5614 66.1733 73.5614 65.7528C73.5614 65.3352 73.4975 64.9517 73.3697 64.6023C73.2447 64.25 73.0515 63.9673 72.7901 63.7543C72.5288 63.5412 72.1992 63.4347 71.8015 63.4347C71.4009 63.4347 71.0685 63.5412 70.8043 63.7543C70.543 63.9673 70.3484 64.25 70.2205 64.6023C70.0955 64.9517 70.033 65.3352 70.033 65.7528C70.033 66.1733 70.0955 66.5582 70.2205 66.9077C70.3484 67.2571 70.543 67.5369 70.8043 67.7472C71.0685 67.9574 71.4009 68.0625 71.8015 68.0625ZM77.5447 65.1136V69H76.2706V62.4545H77.4936V63.5199H77.5746C77.7251 63.1733 77.9609 62.8949 78.282 62.6847C78.6058 62.4744 79.0135 62.3693 79.505 62.3693C79.951 62.3693 80.3416 62.4631 80.6768 62.6506C81.0121 62.8352 81.272 63.1108 81.4567 63.4773C81.6413 63.8437 81.7337 64.2969 81.7337 64.8366V69H80.4595V64.9901C80.4595 64.5156 80.3359 64.1449 80.0888 63.8778C79.8416 63.608 79.5021 63.473 79.0703 63.473C78.7749 63.473 78.5121 63.5369 78.282 63.6648C78.0547 63.7926 77.8743 63.9801 77.7408 64.2273C77.6101 64.4716 77.5447 64.767 77.5447 65.1136Z" fill="#707070"/>
<path d="M95.9757 61.4062V60.2727H102.73V61.4062H100.007V69H98.6944V61.4062H95.9757ZM107.376 66.2855V62.4545H108.654V69H107.401V67.8665H107.333C107.183 68.2159 106.941 68.5071 106.609 68.7401C106.279 68.9702 105.869 69.0852 105.377 69.0852C104.957 69.0852 104.585 68.9929 104.261 68.8082C103.94 68.6207 103.687 68.3438 103.502 67.9773C103.32 67.6108 103.23 67.1577 103.23 66.6179V62.4545H104.504V66.4645C104.504 66.9105 104.627 67.2656 104.874 67.5298C105.122 67.794 105.443 67.9261 105.838 67.9261C106.076 67.9261 106.313 67.8665 106.549 67.7472C106.788 67.6278 106.985 67.4474 107.142 67.206C107.301 66.9645 107.379 66.6577 107.376 66.2855ZM113.187 69.1321C112.542 69.1321 111.987 68.9943 111.521 68.7188C111.058 68.4403 110.7 68.0497 110.447 67.5469C110.197 67.0412 110.072 66.4489 110.072 65.7699C110.072 65.0994 110.197 64.5085 110.447 63.9972C110.7 63.4858 111.052 63.0866 111.504 62.7997C111.959 62.5128 112.49 62.3693 113.098 62.3693C113.467 62.3693 113.825 62.4304 114.172 62.5526C114.518 62.6747 114.829 62.8665 115.105 63.1278C115.381 63.3892 115.598 63.7287 115.757 64.1463C115.916 64.5611 115.996 65.0653 115.996 65.6591V66.1108H110.792V65.1562H114.747C114.747 64.821 114.679 64.5241 114.542 64.2656C114.406 64.0043 114.214 63.7983 113.967 63.6477C113.723 63.4972 113.436 63.4219 113.106 63.4219C112.748 63.4219 112.436 63.5099 112.169 63.6861C111.905 63.8594 111.7 64.0866 111.555 64.3679C111.413 64.6463 111.342 64.9489 111.342 65.2756V66.0213C111.342 66.4588 111.419 66.831 111.572 67.1378C111.729 67.4446 111.946 67.679 112.224 67.8409C112.503 68 112.828 68.0795 113.2 68.0795C113.442 68.0795 113.662 68.0455 113.861 67.9773C114.059 67.9062 114.231 67.8011 114.376 67.6619C114.521 67.5227 114.632 67.3509 114.709 67.1463L115.915 67.3636C115.818 67.7187 115.645 68.0298 115.395 68.2969C115.148 68.5611 114.836 68.767 114.461 68.9148C114.089 69.0597 113.665 69.1321 113.187 69.1321Z" fill="#707070"/>
<path d="M131.847 69L129.427 60.2727H130.812L132.512 67.0312H132.593L134.362 60.2727H135.734L137.502 67.0355H137.583L139.279 60.2727H140.668L138.244 69H136.918L135.082 62.4631H135.013L133.177 69H131.847ZM143.943 69.1321C143.298 69.1321 142.743 68.9943 142.277 68.7188C141.814 68.4403 141.456 68.0497 141.203 67.5469C140.953 67.0412 140.828 66.4489 140.828 65.7699C140.828 65.0994 140.953 64.5085 141.203 63.9972C141.456 63.4858 141.808 63.0866 142.26 62.7997C142.714 62.5128 143.246 62.3693 143.854 62.3693C144.223 62.3693 144.581 62.4304 144.928 62.5526C145.274 62.6747 145.585 62.8665 145.861 63.1278C146.136 63.3892 146.354 63.7287 146.513 64.1463C146.672 64.5611 146.751 65.0653 146.751 65.6591V66.1108H141.548V65.1562H145.503C145.503 64.821 145.435 64.5241 145.298 64.2656C145.162 64.0043 144.97 63.7983 144.723 63.6477C144.479 63.4972 144.192 63.4219 143.862 63.4219C143.504 63.4219 143.192 63.5099 142.925 63.6861C142.661 63.8594 142.456 64.0866 142.311 64.3679C142.169 64.6463 142.098 64.9489 142.098 65.2756V66.0213C142.098 66.4588 142.175 66.831 142.328 67.1378C142.484 67.4446 142.702 67.679 142.98 67.8409C143.259 68 143.584 68.0795 143.956 68.0795C144.197 68.0795 144.418 68.0455 144.616 67.9773C144.815 67.9062 144.987 67.8011 145.132 67.6619C145.277 67.5227 145.388 67.3509 145.464 67.1463L146.67 67.3636C146.574 67.7187 146.401 68.0298 146.151 68.2969C145.903 68.5611 145.592 68.767 145.217 68.9148C144.845 69.0597 144.42 69.1321 143.943 69.1321ZM150.615 69.1278C150.087 69.1278 149.615 68.9929 149.201 68.723C148.789 68.4503 148.465 68.0625 148.229 67.5597C147.996 67.054 147.88 66.4474 147.88 65.7401C147.88 65.0327 147.998 64.4276 148.233 63.9247C148.472 63.4219 148.799 63.0369 149.213 62.7699C149.628 62.5028 150.098 62.3693 150.624 62.3693C151.03 62.3693 151.357 62.4375 151.604 62.5739C151.854 62.7074 152.047 62.8636 152.184 63.0426C152.323 63.2216 152.431 63.3793 152.507 63.5156H152.584V60.2727H153.858V69H152.614V67.9815H152.507C152.431 68.1207 152.32 68.2798 152.175 68.4588C152.033 68.6378 151.837 68.794 151.587 68.9276C151.337 69.0611 151.013 69.1278 150.615 69.1278ZM150.897 68.0412C151.263 68.0412 151.573 67.9446 151.826 67.7514C152.081 67.5554 152.275 67.2841 152.405 66.9375C152.539 66.5909 152.605 66.1875 152.605 65.7273C152.605 65.2727 152.54 64.875 152.409 64.5341C152.279 64.1932 152.087 63.9276 151.834 63.7372C151.581 63.5469 151.269 63.4517 150.897 63.4517C150.513 63.4517 150.194 63.5511 149.938 63.75C149.682 63.9489 149.489 64.2202 149.358 64.5639C149.23 64.9077 149.167 65.2955 149.167 65.7273C149.167 66.1648 149.232 66.5582 149.363 66.9077C149.493 67.2571 149.686 67.5341 149.942 67.7386C150.201 67.9403 150.519 68.0412 150.897 68.0412Z" fill="#707070"/>
<path d="M167.442 61.4062V60.2727H174.197V61.4062H171.474V69H170.161V61.4062H167.442ZM176.861 65.1136V69H175.587V60.2727H176.844V63.5199H176.925C177.078 63.1676 177.313 62.8878 177.628 62.6804C177.944 62.473 178.355 62.3693 178.864 62.3693C179.313 62.3693 179.705 62.4616 180.04 62.6463C180.378 62.831 180.64 63.1065 180.824 63.473C181.012 63.8366 181.105 64.2912 181.105 64.8366V69H179.831V64.9901C179.831 64.5099 179.708 64.1378 179.461 63.8736C179.213 63.6065 178.87 63.473 178.429 63.473C178.128 63.473 177.858 63.5369 177.62 63.6648C177.384 63.7926 177.198 63.9801 177.061 64.2273C176.928 64.4716 176.861 64.767 176.861 65.1136ZM186.952 66.2855V62.4545H188.23V69H186.978V67.8665H186.909C186.759 68.2159 186.517 68.5071 186.185 68.7401C185.855 68.9702 185.445 69.0852 184.953 69.0852C184.533 69.0852 184.161 68.9929 183.837 68.8082C183.516 68.6207 183.263 68.3438 183.078 67.9773C182.897 67.6108 182.806 67.1577 182.806 66.6179V62.4545H184.08V66.4645C184.08 66.9105 184.203 67.2656 184.451 67.5298C184.698 67.794 185.019 67.9261 185.414 67.9261C185.652 67.9261 185.89 67.8665 186.125 67.7472C186.364 67.6278 186.561 67.4474 186.718 67.206C186.877 66.9645 186.955 66.6577 186.952 66.2855Z" fill="#707070"/>
<path d="M207.687 69V60.2727H213.099V61.4062H209.004V64.0653H212.711V65.1946H209.004V69H207.687ZM214.534 69V62.4545H215.766V63.4943H215.834C215.953 63.142 216.164 62.8651 216.465 62.6634C216.769 62.4588 217.112 62.3565 217.496 62.3565C217.575 62.3565 217.669 62.3594 217.777 62.3651C217.888 62.3707 217.975 62.3778 218.037 62.3864V63.6051C217.986 63.5909 217.895 63.5753 217.764 63.5582C217.634 63.5384 217.503 63.5284 217.372 63.5284C217.071 63.5284 216.803 63.5923 216.567 63.7202C216.334 63.8452 216.149 64.0199 216.013 64.2443C215.877 64.4659 215.808 64.7187 215.808 65.0028V69H214.534ZM219.14 69V62.4545H220.414V69H219.14ZM219.783 61.4446C219.562 61.4446 219.371 61.3707 219.212 61.223C219.056 61.0724 218.978 60.8935 218.978 60.6861C218.978 60.4759 219.056 60.2969 219.212 60.1491C219.371 59.9986 219.562 59.9233 219.783 59.9233C220.005 59.9233 220.194 59.9986 220.35 60.1491C220.509 60.2969 220.589 60.4759 220.589 60.6861C220.589 60.8935 220.509 61.0724 220.35 61.223C220.194 61.3707 220.005 61.4446 219.783 61.4446Z" fill="#707070"/>
<path d="M246.209 62.5653C246.164 62.1619 245.976 61.8494 245.646 61.6278C245.317 61.4034 244.902 61.2912 244.402 61.2912C244.044 61.2912 243.735 61.348 243.473 61.4616C243.212 61.5724 243.009 61.7259 242.864 61.9219C242.722 62.1151 242.651 62.3352 242.651 62.5824C242.651 62.7898 242.699 62.9687 242.796 63.1193C242.895 63.2699 243.024 63.3963 243.183 63.4986C243.345 63.598 243.519 63.6818 243.703 63.75C243.888 63.8153 244.066 63.8693 244.236 63.9119L245.088 64.1335C245.367 64.2017 245.652 64.294 245.945 64.4105C246.237 64.527 246.509 64.6804 246.759 64.8707C247.009 65.0611 247.21 65.2969 247.364 65.5781C247.52 65.8594 247.598 66.196 247.598 66.5881C247.598 67.0824 247.47 67.5213 247.215 67.9048C246.962 68.2884 246.594 68.5909 246.111 68.8125C245.631 69.0341 245.05 69.1449 244.368 69.1449C243.715 69.1449 243.149 69.0412 242.672 68.8338C242.195 68.6264 241.821 68.3324 241.551 67.9517C241.281 67.5682 241.132 67.1136 241.104 66.5881H242.425C242.45 66.9034 242.553 67.1662 242.732 67.3764C242.914 67.5838 243.145 67.7386 243.426 67.8409C243.71 67.9403 244.021 67.9901 244.36 67.9901C244.732 67.9901 245.063 67.9318 245.352 67.8153C245.645 67.696 245.875 67.5312 246.043 67.321C246.21 67.108 246.294 66.8594 246.294 66.5753C246.294 66.3168 246.22 66.1051 246.073 65.9403C245.928 65.7756 245.73 65.6392 245.48 65.5312C245.233 65.4233 244.953 65.3281 244.641 65.2457L243.61 64.9645C242.911 64.7741 242.357 64.4943 241.948 64.125C241.541 63.7557 241.338 63.267 241.338 62.6591C241.338 62.1562 241.475 61.7173 241.747 61.3423C242.02 60.9673 242.389 60.6761 242.855 60.4688C243.321 60.2585 243.847 60.1534 244.432 60.1534C245.023 60.1534 245.544 60.2571 245.996 60.4645C246.45 60.6719 246.808 60.9574 247.07 61.321C247.331 61.6818 247.468 62.0966 247.479 62.5653H246.209ZM250.974 69.1449C250.559 69.1449 250.184 69.0682 249.849 68.9148C249.514 68.7585 249.248 68.5327 249.052 68.2372C248.859 67.9418 248.763 67.5795 248.763 67.1506C248.763 66.7812 248.834 66.4773 248.976 66.2386C249.118 66 249.309 65.8111 249.551 65.6719C249.792 65.5327 250.062 65.4276 250.361 65.3565C250.659 65.2855 250.963 65.2315 251.273 65.1946C251.665 65.1491 251.983 65.1122 252.227 65.0838C252.471 65.0526 252.649 65.0028 252.76 64.9347C252.871 64.8665 252.926 64.7557 252.926 64.6023V64.5724C252.926 64.2003 252.821 63.9119 252.611 63.7074C252.403 63.5028 252.094 63.4006 251.682 63.4006C251.253 63.4006 250.915 63.4957 250.667 63.6861C250.423 63.8736 250.254 64.0824 250.16 64.3125L248.963 64.0398C249.105 63.642 249.312 63.321 249.585 63.0767C249.861 62.8295 250.177 62.6506 250.535 62.5398C250.893 62.4261 251.27 62.3693 251.665 62.3693C251.926 62.3693 252.203 62.4006 252.496 62.4631C252.791 62.5227 253.067 62.6335 253.322 62.7955C253.581 62.9574 253.792 63.1889 253.957 63.4901C254.122 63.7884 254.204 64.1761 254.204 64.6534V69H252.96V68.1051H252.909C252.827 68.2699 252.703 68.4318 252.538 68.5909C252.373 68.75 252.162 68.8821 251.903 68.9872C251.645 69.0923 251.335 69.1449 250.974 69.1449ZM251.251 68.1222C251.604 68.1222 251.905 68.0526 252.155 67.9134C252.407 67.7741 252.599 67.5923 252.73 67.3679C252.863 67.1406 252.93 66.8977 252.93 66.6392V65.7955C252.885 65.8409 252.797 65.8835 252.666 65.9233C252.538 65.9602 252.392 65.9929 252.227 66.0213C252.062 66.0469 251.902 66.071 251.746 66.0938C251.589 66.1136 251.459 66.1307 251.354 66.1449C251.106 66.1761 250.881 66.2287 250.676 66.3026C250.474 66.3764 250.312 66.483 250.19 66.6222C250.071 66.7585 250.011 66.9403 250.011 67.1676C250.011 67.483 250.128 67.7216 250.361 67.8835C250.594 68.0426 250.89 68.1222 251.251 68.1222ZM258.957 62.4545V63.4773H255.382V62.4545H258.957ZM256.34 60.8864H257.615V67.0781C257.615 67.3253 257.651 67.5114 257.725 67.6364C257.799 67.7585 257.894 67.8423 258.011 67.8878C258.13 67.9304 258.259 67.9517 258.399 67.9517C258.501 67.9517 258.59 67.9446 258.667 67.9304C258.744 67.9162 258.803 67.9048 258.846 67.8963L259.076 68.9489C259.002 68.9773 258.897 69.0057 258.761 69.0341C258.624 69.0653 258.454 69.0824 258.249 69.0852C257.914 69.0909 257.602 69.0312 257.312 68.9062C257.022 68.7812 256.788 68.5881 256.609 68.3267C256.43 68.0653 256.34 67.7372 256.34 67.3423V60.8864Z" fill="#707070"/>
</g>
<g clip-path="url(#clip1_2628_9317)">
<path d="M35.4425 94.2727V103H33.8615V95.8111H33.8104L31.7692 97.1151V95.6662L33.9382 94.2727H35.4425Z" fill="#1A1A1A"/>
<path d="M67.049 103V101.858L70.0788 98.8878C70.3686 98.5952 70.6101 98.3352 70.8033 98.108C70.9964 97.8807 71.1413 97.6605 71.2379 97.4474C71.3345 97.2344 71.3828 97.0071 71.3828 96.7656C71.3828 96.4901 71.3203 96.2543 71.1953 96.0582C71.0703 95.8594 70.8984 95.706 70.6797 95.598C70.4609 95.4901 70.2124 95.4361 69.9339 95.4361C69.647 95.4361 69.3956 95.4957 69.1797 95.6151C68.9638 95.7315 68.7962 95.8977 68.6768 96.1136C68.5604 96.3295 68.5021 96.5866 68.5021 96.8849H66.9979C66.9979 96.331 67.1243 95.8494 67.3771 95.4403C67.63 95.0312 67.978 94.7145 68.4212 94.4901C68.8672 94.2656 69.3786 94.1534 69.9553 94.1534C70.5405 94.1534 71.0547 94.2628 71.4979 94.4815C71.9411 94.7003 72.2848 95 72.5291 95.3807C72.7763 95.7614 72.8999 96.196 72.8999 96.6847C72.8999 97.0114 72.8374 97.3324 72.7124 97.6477C72.5874 97.9631 72.3672 98.3125 72.0518 98.696C71.7393 99.0795 71.3004 99.544 70.7351 100.089L69.2308 101.619V101.679H73.032V103H67.049Z" fill="#1A1A1A"/>
<path d="M105.999 103.119C105.386 103.119 104.84 103.014 104.363 102.804C103.889 102.594 103.514 102.301 103.238 101.926C102.963 101.551 102.816 101.118 102.799 100.626H104.401C104.416 100.862 104.494 101.068 104.636 101.244C104.778 101.418 104.967 101.553 105.203 101.649C105.438 101.746 105.703 101.794 105.995 101.794C106.308 101.794 106.585 101.74 106.826 101.632C107.068 101.521 107.257 101.368 107.393 101.172C107.529 100.976 107.596 100.75 107.593 100.494C107.596 100.23 107.528 99.9972 107.389 99.7955C107.249 99.5937 107.048 99.4361 106.784 99.3224C106.522 99.2088 106.207 99.152 105.838 99.152H105.066V97.9332H105.838C106.142 97.9332 106.407 97.8807 106.634 97.7756C106.865 97.6705 107.045 97.5227 107.176 97.3324C107.306 97.1392 107.37 96.9162 107.367 96.6634C107.37 96.4162 107.315 96.2017 107.201 96.0199C107.09 95.8352 106.933 95.6918 106.728 95.5895C106.526 95.4872 106.289 95.4361 106.017 95.4361C105.749 95.4361 105.502 95.4844 105.275 95.581C105.048 95.6776 104.865 95.8153 104.725 95.9943C104.586 96.1705 104.512 96.3807 104.504 96.625H102.982C102.994 96.1364 103.134 95.7074 103.404 95.3381C103.677 94.9659 104.041 94.6761 104.495 94.4688C104.95 94.2585 105.46 94.1534 106.025 94.1534C106.607 94.1534 107.113 94.2628 107.542 94.4815C107.974 94.6974 108.308 94.9886 108.544 95.3551C108.779 95.7216 108.897 96.1264 108.897 96.5696C108.9 97.0611 108.755 97.473 108.463 97.8054C108.173 98.1378 107.792 98.3551 107.32 98.4574V98.5256C107.934 98.6108 108.404 98.8381 108.731 99.2074C109.061 99.5739 109.224 100.03 109.221 100.575C109.221 101.064 109.082 101.501 108.803 101.888C108.528 102.271 108.147 102.572 107.661 102.791C107.178 103.01 106.624 103.119 105.999 103.119Z" fill="#1A1A1A"/>
<path d="M138.622 101.381V100.124L142.325 94.2727H143.373V96.0625H142.734L140.241 100.013V100.081H145.41V101.381H138.622ZM142.785 103V100.997L142.802 100.435V94.2727H144.294V103H142.785Z" fill="#1A1A1A"/>
<path d="M178.013 103.119C177.445 103.119 176.936 103.013 176.487 102.8C176.038 102.584 175.682 102.288 175.418 101.913C175.156 101.538 175.017 101.109 175 100.626H176.534C176.563 100.984 176.717 101.277 176.999 101.504C177.28 101.729 177.618 101.841 178.013 101.841C178.322 101.841 178.598 101.77 178.839 101.628C179.081 101.486 179.271 101.288 179.411 101.036C179.55 100.783 179.618 100.494 179.615 100.17C179.618 99.8409 179.548 99.5483 179.406 99.2926C179.264 99.0369 179.07 98.8366 178.822 98.6918C178.575 98.544 178.291 98.4702 177.97 98.4702C177.709 98.4673 177.452 98.5156 177.199 98.6151C176.946 98.7145 176.746 98.8452 176.598 99.0071L175.17 98.7727L175.626 94.2727H180.689V95.5938H176.935L176.683 97.9077H176.734C176.896 97.7173 177.125 97.5597 177.42 97.4347C177.716 97.3068 178.04 97.2429 178.392 97.2429C178.92 97.2429 179.392 97.3679 179.807 97.6179C180.222 97.8651 180.548 98.206 180.787 98.6406C181.026 99.0753 181.145 99.5724 181.145 100.132C181.145 100.709 181.011 101.223 180.744 101.675C180.48 102.124 180.112 102.477 179.641 102.736C179.172 102.991 178.629 103.119 178.013 103.119Z" fill="#1A1A1A"/>
<path d="M214.081 103.119C213.663 103.116 213.256 103.044 212.858 102.902C212.46 102.757 212.102 102.523 211.784 102.199C211.466 101.872 211.213 101.439 211.026 100.899C210.838 100.357 210.746 99.6847 210.749 98.8835C210.749 98.1364 210.828 97.4702 210.987 96.8849C211.146 96.2997 211.375 95.8054 211.673 95.402C211.972 94.9957 212.331 94.6861 212.751 94.473C213.175 94.2599 213.648 94.1534 214.17 94.1534C214.719 94.1534 215.205 94.2614 215.628 94.4773C216.054 94.6932 216.398 94.9886 216.659 95.3636C216.92 95.7358 217.082 96.1562 217.145 96.625H215.589C215.51 96.2898 215.347 96.0227 215.099 95.8239C214.855 95.6222 214.545 95.5213 214.17 95.5213C213.565 95.5213 213.099 95.7841 212.773 96.3097C212.449 96.8352 212.286 97.5568 212.283 98.4744H212.342C212.482 98.2244 212.662 98.0099 212.884 97.831C213.105 97.652 213.355 97.5142 213.634 97.4176C213.915 97.3182 214.212 97.2685 214.524 97.2685C215.036 97.2685 215.494 97.3906 215.901 97.6349C216.31 97.8793 216.634 98.2159 216.872 98.6449C217.111 99.071 217.229 99.5597 217.226 100.111C217.229 100.685 217.098 101.2 216.834 101.658C216.57 102.112 216.202 102.47 215.73 102.732C215.259 102.993 214.709 103.122 214.081 103.119ZM214.072 101.841C214.382 101.841 214.659 101.766 214.903 101.615C215.148 101.464 215.341 101.261 215.483 101.006C215.625 100.75 215.695 100.463 215.692 100.145C215.695 99.8324 215.626 99.5497 215.487 99.2969C215.351 99.044 215.162 98.8437 214.92 98.696C214.679 98.5483 214.403 98.4744 214.094 98.4744C213.864 98.4744 213.649 98.5185 213.45 98.6065C213.251 98.6946 213.078 98.8168 212.93 98.973C212.783 99.1264 212.666 99.3054 212.581 99.5099C212.499 99.7116 212.456 99.9276 212.453 100.158C212.456 100.462 212.527 100.741 212.666 100.997C212.805 101.253 212.997 101.457 213.241 101.611C213.486 101.764 213.763 101.841 214.072 101.841Z" fill="#1A1A1A"/>
<path d="M247.574 103L251.285 95.6534V95.5938H246.977V94.2727H252.922V95.6236L249.214 103H247.574Z" fill="#1A1A1A"/>
</g>
<g clip-path="url(#clip2_2628_9317)">
<path d="M34.0048 137.119C33.3713 137.119 32.8088 137.013 32.3173 136.8C31.8287 136.587 31.4451 136.295 31.1667 135.926C30.8912 135.554 30.7548 135.132 30.7576 134.661C30.7548 134.294 30.8343 133.957 30.9963 133.651C31.1582 133.344 31.377 133.088 31.6525 132.884C31.9309 132.676 32.2406 132.544 32.5815 132.487V132.428C32.1326 132.328 31.769 132.099 31.4906 131.741C31.215 131.381 31.0787 130.964 31.0815 130.493C31.0787 130.044 31.2037 129.643 31.4565 129.291C31.7093 128.939 32.0559 128.662 32.4963 128.46C32.9366 128.256 33.4395 128.153 34.0048 128.153C34.5645 128.153 35.063 128.256 35.5005 128.46C35.9409 128.662 36.2875 128.939 36.5403 129.291C36.796 129.643 36.9238 130.044 36.9238 130.493C36.9238 130.964 36.7832 131.381 36.502 131.741C36.2235 132.099 35.8642 132.328 35.4238 132.428V132.487C35.7647 132.544 36.0716 132.676 36.3443 132.884C36.6199 133.088 36.8386 133.344 37.0005 133.651C37.1653 133.957 37.2477 134.294 37.2477 134.661C37.2477 135.132 37.1085 135.554 36.8301 135.926C36.5517 136.295 36.1681 136.587 35.6795 136.8C35.1937 137.013 34.6355 137.119 34.0048 137.119ZM34.0048 135.901C34.3315 135.901 34.6156 135.845 34.8571 135.734C35.0985 135.621 35.286 135.462 35.4196 135.257C35.5531 135.053 35.6213 134.817 35.6241 134.55C35.6213 134.271 35.5488 134.026 35.4068 133.812C35.2676 133.597 35.0758 133.428 34.8315 133.305C34.59 133.183 34.3145 133.122 34.0048 133.122C33.6923 133.122 33.4139 133.183 33.1696 133.305C32.9252 133.428 32.7321 133.597 32.59 133.812C32.4508 134.026 32.3826 134.271 32.3855 134.55C32.3826 134.817 32.448 135.053 32.5815 135.257C32.715 135.459 32.9025 135.616 33.144 135.73C33.3883 135.844 33.6752 135.901 34.0048 135.901ZM34.0048 131.925C34.2718 131.925 34.5076 131.871 34.7122 131.763C34.9196 131.655 35.0829 131.504 35.2022 131.311C35.3216 131.118 35.3826 130.895 35.3855 130.642C35.3826 130.392 35.323 130.173 35.2065 129.986C35.09 129.795 34.9281 129.649 34.7207 129.547C34.5133 129.442 34.2747 129.389 34.0048 129.389C33.7292 129.389 33.4863 129.442 33.2761 129.547C33.0687 129.649 32.9068 129.795 32.7903 129.986C32.6767 130.173 32.6213 130.392 32.6241 130.642C32.6213 130.895 32.6781 131.118 32.7946 131.311C32.9139 131.501 33.0772 131.652 33.2846 131.763C33.4949 131.871 33.7349 131.925 34.0048 131.925Z" fill="#1A1A1A"/>
<path d="M69.9148 128.153C70.3324 128.156 70.7386 128.23 71.1335 128.375C71.5313 128.517 71.8892 128.75 72.2074 129.074C72.5256 129.395 72.7784 129.825 72.9659 130.365C73.1534 130.905 73.2472 131.572 73.2472 132.368C73.25 133.118 73.1705 133.788 73.0085 134.379C72.8494 134.967 72.6207 135.464 72.3224 135.871C72.0241 136.277 71.6648 136.587 71.2443 136.8C70.8239 137.013 70.3509 137.119 69.8253 137.119C69.2741 137.119 68.7855 137.011 68.3594 136.795C67.9361 136.58 67.5938 136.284 67.3324 135.909C67.071 135.534 66.9105 135.105 66.8509 134.622H68.4062C68.4858 134.969 68.6477 135.244 68.892 135.449C69.1392 135.651 69.4503 135.751 69.8253 135.751C70.4304 135.751 70.8963 135.489 71.223 134.963C71.5497 134.437 71.7131 133.707 71.7131 132.773H71.6534C71.5142 133.023 71.3338 133.239 71.1122 133.42C70.8906 133.599 70.6392 133.737 70.358 133.834C70.0795 133.93 69.7841 133.979 69.4716 133.979C68.9602 133.979 68.5 133.857 68.0909 133.612C67.6847 133.368 67.3622 133.033 67.1236 132.607C66.8878 132.18 66.7685 131.693 66.7656 131.145C66.7656 130.577 66.8963 130.067 67.1577 129.615C67.4219 129.161 67.7898 128.803 68.2614 128.541C68.733 128.277 69.2841 128.148 69.9148 128.153ZM69.919 129.432C69.6122 129.432 69.3352 129.507 69.0881 129.658C68.8438 129.805 68.6506 130.007 68.5085 130.263C68.3693 130.516 68.2997 130.798 68.2997 131.111C68.3026 131.42 68.3722 131.702 68.5085 131.955C68.6477 132.207 68.8366 132.408 69.0753 132.555C69.3168 132.703 69.5923 132.777 69.902 132.777C70.1321 132.777 70.3466 132.733 70.5455 132.645C70.7443 132.557 70.9176 132.435 71.0653 132.278C71.2159 132.119 71.3324 131.939 71.4148 131.737C71.5 131.536 71.5412 131.322 71.5384 131.098C71.5384 130.8 71.4673 130.524 71.3253 130.271C71.1861 130.018 70.9943 129.815 70.75 129.662C70.5085 129.509 70.2315 129.432 69.919 129.432Z" fill="#1A1A1A"/>
<path d="M103.441 128.273V137H101.86V129.811H101.808L99.7672 131.115V129.666L101.936 128.273H103.441ZM108.882 137.166C108.181 137.166 107.578 136.989 107.075 136.634C106.575 136.276 106.191 135.76 105.921 135.087C105.654 134.411 105.52 133.597 105.52 132.645C105.523 131.693 105.658 130.884 105.925 130.216C106.195 129.545 106.58 129.034 107.08 128.682C107.583 128.33 108.183 128.153 108.882 128.153C109.581 128.153 110.182 128.33 110.685 128.682C111.188 129.034 111.573 129.545 111.84 130.216C112.11 130.886 112.244 131.696 112.244 132.645C112.244 133.599 112.11 134.415 111.84 135.091C111.573 135.764 111.188 136.278 110.685 136.634C110.185 136.989 109.584 137.166 108.882 137.166ZM108.882 135.832C109.428 135.832 109.858 135.564 110.173 135.027C110.492 134.487 110.651 133.693 110.651 132.645C110.651 131.952 110.578 131.369 110.433 130.898C110.289 130.426 110.084 130.071 109.82 129.832C109.556 129.591 109.243 129.47 108.882 129.47C108.34 129.47 107.911 129.74 107.595 130.28C107.28 130.817 107.121 131.605 107.118 132.645C107.115 133.341 107.185 133.926 107.327 134.401C107.472 134.875 107.676 135.233 107.941 135.474C108.205 135.713 108.519 135.832 108.882 135.832Z" fill="#1A1A1A"/>
<path d="M140.56 128.273V137H138.979V129.811H138.928L136.886 131.115V129.666L139.055 128.273H140.56ZM146.325 128.273V137H144.744V129.811H144.693L142.652 131.115V129.666L144.821 128.273H146.325Z" fill="#1A1A1A"/>
<path d="M175.716 128.273V137H174.135V129.811H174.084L172.043 131.115V129.666L174.212 128.273H175.716ZM177.932 137V135.858L180.962 132.888C181.251 132.595 181.493 132.335 181.686 132.108C181.879 131.881 182.024 131.661 182.121 131.447C182.217 131.234 182.266 131.007 182.266 130.766C182.266 130.49 182.203 130.254 182.078 130.058C181.953 129.859 181.781 129.706 181.562 129.598C181.344 129.49 181.095 129.436 180.817 129.436C180.53 129.436 180.278 129.496 180.062 129.615C179.847 129.732 179.679 129.898 179.56 130.114C179.443 130.33 179.385 130.587 179.385 130.885H177.881C177.881 130.331 178.007 129.849 178.26 129.44C178.513 129.031 178.861 128.714 179.304 128.49C179.75 128.266 180.261 128.153 180.838 128.153C181.423 128.153 181.938 128.263 182.381 128.482C182.824 128.7 183.168 129 183.412 129.381C183.659 129.761 183.783 130.196 183.783 130.685C183.783 131.011 183.72 131.332 183.595 131.648C183.47 131.963 183.25 132.312 182.935 132.696C182.622 133.08 182.183 133.544 181.618 134.089L180.114 135.619V135.679H183.915V137H177.932Z" fill="#1A1A1A"/>
<path d="M211.534 128.273V137H209.953V129.811H209.902L207.861 131.115V129.666L210.03 128.273H211.534ZM216.882 137.119C216.269 137.119 215.723 137.014 215.246 136.804C214.771 136.594 214.396 136.301 214.121 135.926C213.845 135.551 213.699 135.118 213.682 134.626H215.284C215.298 134.862 215.377 135.068 215.519 135.244C215.661 135.418 215.85 135.553 216.085 135.649C216.321 135.746 216.585 135.794 216.878 135.794C217.191 135.794 217.468 135.74 217.709 135.632C217.95 135.521 218.139 135.368 218.276 135.172C218.412 134.976 218.479 134.75 218.476 134.494C218.479 134.23 218.411 133.997 218.271 133.795C218.132 133.594 217.931 133.436 217.666 133.322C217.405 133.209 217.09 133.152 216.72 133.152H215.949V131.933H216.72C217.024 131.933 217.29 131.881 217.517 131.776C217.747 131.67 217.928 131.523 218.058 131.332C218.189 131.139 218.253 130.916 218.25 130.663C218.253 130.416 218.198 130.202 218.084 130.02C217.973 129.835 217.816 129.692 217.611 129.589C217.409 129.487 217.172 129.436 216.899 129.436C216.632 129.436 216.385 129.484 216.158 129.581C215.931 129.678 215.747 129.815 215.608 129.994C215.469 130.17 215.395 130.381 215.387 130.625H213.865C213.877 130.136 214.017 129.707 214.287 129.338C214.56 128.966 214.923 128.676 215.378 128.469C215.833 128.259 216.343 128.153 216.908 128.153C217.49 128.153 217.996 128.263 218.425 128.482C218.857 128.697 219.191 128.989 219.426 129.355C219.662 129.722 219.78 130.126 219.78 130.57C219.783 131.061 219.638 131.473 219.345 131.805C219.056 132.138 218.675 132.355 218.203 132.457V132.526C218.817 132.611 219.287 132.838 219.614 133.207C219.943 133.574 220.107 134.03 220.104 134.575C220.104 135.064 219.965 135.501 219.686 135.888C219.411 136.271 219.03 136.572 218.544 136.791C218.061 137.01 217.507 137.119 216.882 137.119Z" fill="#1A1A1A"/>
<path d="M247.446 128.273V137H245.865V129.811H245.814L243.773 131.115V129.666L245.942 128.273H247.446ZM249.505 135.381V134.124L253.208 128.273H254.256V130.062H253.617L251.124 134.013V134.081H256.293V135.381H249.505ZM253.668 137V134.997L253.685 134.435V128.273H255.176V137H253.668Z" fill="#1A1A1A"/>
</g>
<g clip-path="url(#clip3_2628_9317)">
<path d="M31.6456 162.273V171H30.0646V163.811H30.0135L27.9723 165.115V163.666L30.1413 162.273H31.6456ZM36.8956 171.119C36.3274 171.119 35.8189 171.013 35.37 170.8C34.9212 170.584 34.5646 170.288 34.3004 169.913C34.0391 169.538 33.8999 169.109 33.8828 168.626H35.4169C35.4453 168.984 35.6001 169.277 35.8814 169.504C36.1626 169.729 36.5007 169.841 36.8956 169.841C37.2053 169.841 37.4808 169.77 37.7223 169.628C37.9638 169.486 38.1541 169.288 38.2933 169.036C38.4325 168.783 38.5007 168.494 38.4979 168.17C38.5007 167.841 38.4311 167.548 38.2891 167.293C38.147 167.037 37.9524 166.837 37.7053 166.692C37.4581 166.544 37.174 166.47 36.853 166.47C36.5916 166.467 36.3345 166.516 36.0817 166.615C35.8288 166.714 35.6286 166.845 35.4808 167.007L34.0533 166.773L34.5092 162.273H39.5717V163.594H35.8175L35.5661 165.908H35.6172C35.7791 165.717 36.0078 165.56 36.3033 165.435C36.5987 165.307 36.9226 165.243 37.2749 165.243C37.8033 165.243 38.2749 165.368 38.6896 165.618C39.1044 165.865 39.4311 166.206 39.6697 166.641C39.9084 167.075 40.0277 167.572 40.0277 168.132C40.0277 168.709 39.8942 169.223 39.6271 169.675C39.3629 170.124 38.995 170.477 38.5234 170.736C38.0547 170.991 37.5121 171.119 36.8956 171.119Z" fill="#1A1A1A"/>
<path d="M67.5518 162.273V171H65.9709V163.811H65.9197L63.8786 165.115V163.666L66.0476 162.273H67.5518ZM72.9638 171.119C72.5462 171.116 72.1385 171.044 71.7408 170.902C71.343 170.757 70.9851 170.523 70.6669 170.199C70.3487 169.872 70.0959 169.439 69.9084 168.899C69.7209 168.357 69.6286 167.685 69.6314 166.884C69.6314 166.136 69.7109 165.47 69.87 164.885C70.0291 164.3 70.2578 163.805 70.5561 163.402C70.8544 162.996 71.2138 162.686 71.6342 162.473C72.0575 162.26 72.5305 162.153 73.0533 162.153C73.6016 162.153 74.0874 162.261 74.5107 162.477C74.9368 162.693 75.2805 162.989 75.5419 163.364C75.8033 163.736 75.9652 164.156 76.0277 164.625H74.4723C74.3928 164.29 74.2294 164.023 73.9822 163.824C73.7379 163.622 73.4283 163.521 73.0533 163.521C72.4482 163.521 71.9822 163.784 71.6555 164.31C71.3317 164.835 71.1683 165.557 71.1655 166.474H71.2251C71.3643 166.224 71.5447 166.01 71.7663 165.831C71.9879 165.652 72.2379 165.514 72.5163 165.418C72.7976 165.318 73.0945 165.268 73.407 165.268C73.9183 165.268 74.3771 165.391 74.7834 165.635C75.1925 165.879 75.5163 166.216 75.755 166.645C75.9936 167.071 76.1115 167.56 76.1087 168.111C76.1115 168.685 75.9808 169.2 75.7166 169.658C75.4524 170.112 75.0845 170.47 74.6129 170.732C74.1413 170.993 73.5916 171.122 72.9638 171.119ZM72.9553 169.841C73.2649 169.841 73.5419 169.766 73.7862 169.615C74.0305 169.464 74.2237 169.261 74.3658 169.006C74.5078 168.75 74.5774 168.463 74.5746 168.145C74.5774 167.832 74.5092 167.55 74.37 167.297C74.2337 167.044 74.0447 166.844 73.8033 166.696C73.5618 166.548 73.2862 166.474 72.9766 166.474C72.7464 166.474 72.532 166.518 72.3331 166.607C72.1342 166.695 71.9609 166.817 71.8132 166.973C71.6655 167.126 71.549 167.305 71.4638 167.51C71.3814 167.712 71.3388 167.928 71.3359 168.158C71.3388 168.462 71.4098 168.741 71.549 168.997C71.6882 169.253 71.88 169.457 72.1243 169.611C72.3686 169.764 72.6456 169.841 72.9553 169.841Z" fill="#1A1A1A"/>
<path d="M103.921 162.273V171H102.34V163.811H102.289L100.248 165.115V163.666L102.417 162.273H103.921ZM106.456 171L110.168 163.653V163.594H105.86V162.273H111.805V163.624L108.097 171H106.456Z" fill="#1A1A1A"/>
<path d="M139.569 162.273V171H137.988V163.811H137.937L135.896 165.115V163.666L138.065 162.273H139.569ZM144.888 171.119C144.254 171.119 143.692 171.013 143.2 170.8C142.711 170.587 142.328 170.295 142.05 169.926C141.774 169.554 141.638 169.132 141.64 168.661C141.638 168.294 141.717 167.957 141.879 167.651C142.041 167.344 142.26 167.088 142.535 166.884C142.814 166.676 143.123 166.544 143.464 166.487V166.428C143.015 166.328 142.652 166.099 142.373 165.741C142.098 165.381 141.961 164.964 141.964 164.493C141.961 164.044 142.086 163.643 142.339 163.291C142.592 162.939 142.939 162.662 143.379 162.46C143.819 162.256 144.322 162.153 144.888 162.153C145.447 162.153 145.946 162.256 146.383 162.46C146.824 162.662 147.17 162.939 147.423 163.291C147.679 163.643 147.807 164.044 147.807 164.493C147.807 164.964 147.666 165.381 147.385 165.741C147.106 166.099 146.747 166.328 146.307 166.428V166.487C146.648 166.544 146.954 166.676 147.227 166.884C147.503 167.088 147.721 167.344 147.883 167.651C148.048 167.957 148.131 168.294 148.131 168.661C148.131 169.132 147.991 169.554 147.713 169.926C147.434 170.295 147.051 170.587 146.562 170.8C146.077 171.013 145.518 171.119 144.888 171.119ZM144.888 169.901C145.214 169.901 145.498 169.845 145.74 169.734C145.981 169.621 146.169 169.462 146.302 169.257C146.436 169.053 146.504 168.817 146.507 168.55C146.504 168.271 146.432 168.026 146.29 167.812C146.15 167.597 145.959 167.428 145.714 167.305C145.473 167.183 145.197 167.122 144.888 167.122C144.575 167.122 144.297 167.183 144.052 167.305C143.808 167.428 143.615 167.597 143.473 167.812C143.334 168.026 143.265 168.271 143.268 168.55C143.265 168.817 143.331 169.053 143.464 169.257C143.598 169.459 143.785 169.616 144.027 169.73C144.271 169.844 144.558 169.901 144.888 169.901ZM144.888 165.925C145.155 165.925 145.39 165.871 145.595 165.763C145.802 165.655 145.966 165.504 146.085 165.311C146.204 165.118 146.265 164.895 146.268 164.642C146.265 164.392 146.206 164.173 146.089 163.986C145.973 163.795 145.811 163.649 145.604 163.547C145.396 163.442 145.157 163.389 144.888 163.389C144.612 163.389 144.369 163.442 144.159 163.547C143.952 163.649 143.79 163.795 143.673 163.986C143.559 164.173 143.504 164.392 143.507 164.642C143.504 164.895 143.561 165.118 143.677 165.311C143.797 165.501 143.96 165.652 144.167 165.763C144.378 165.871 144.618 165.925 144.888 165.925Z" fill="#1A1A1A"/>
<path d="M175.552 162.273V171H173.971V163.811H173.92L171.879 165.115V163.666L174.048 162.273H175.552ZM180.798 162.153C181.215 162.156 181.621 162.23 182.016 162.375C182.414 162.517 182.772 162.75 183.09 163.074C183.408 163.395 183.661 163.825 183.849 164.365C184.036 164.905 184.13 165.572 184.13 166.368C184.133 167.118 184.053 167.788 183.891 168.379C183.732 168.967 183.504 169.464 183.205 169.871C182.907 170.277 182.548 170.587 182.127 170.8C181.707 171.013 181.234 171.119 180.708 171.119C180.157 171.119 179.668 171.011 179.242 170.795C178.819 170.58 178.477 170.284 178.215 169.909C177.954 169.534 177.793 169.105 177.734 168.622H179.289C179.369 168.969 179.531 169.244 179.775 169.449C180.022 169.651 180.333 169.751 180.708 169.751C181.313 169.751 181.779 169.489 182.106 168.963C182.433 168.437 182.596 167.707 182.596 166.773H182.536C182.397 167.023 182.217 167.239 181.995 167.42C181.773 167.599 181.522 167.737 181.241 167.834C180.962 167.93 180.667 167.979 180.354 167.979C179.843 167.979 179.383 167.857 178.974 167.612C178.567 167.368 178.245 167.033 178.006 166.607C177.771 166.18 177.651 165.693 177.648 165.145C177.648 164.577 177.779 164.067 178.04 163.615C178.305 163.161 178.673 162.803 179.144 162.541C179.616 162.277 180.167 162.148 180.798 162.153ZM180.802 163.432C180.495 163.432 180.218 163.507 179.971 163.658C179.727 163.805 179.533 164.007 179.391 164.263C179.252 164.516 179.183 164.798 179.183 165.111C179.185 165.42 179.255 165.702 179.391 165.955C179.531 166.207 179.719 166.408 179.958 166.555C180.2 166.703 180.475 166.777 180.785 166.777C181.015 166.777 181.229 166.733 181.428 166.645C181.627 166.557 181.8 166.435 181.948 166.278C182.099 166.119 182.215 165.939 182.298 165.737C182.383 165.536 182.424 165.322 182.421 165.098C182.421 164.8 182.35 164.524 182.208 164.271C182.069 164.018 181.877 163.815 181.633 163.662C181.391 163.509 181.114 163.432 180.802 163.432Z" fill="#1A1A1A"/>
<path d="M207.047 171V169.858L210.077 166.888C210.367 166.595 210.608 166.335 210.801 166.108C210.994 165.881 211.139 165.661 211.236 165.447C211.333 165.234 211.381 165.007 211.381 164.766C211.381 164.49 211.318 164.254 211.193 164.058C211.068 163.859 210.896 163.706 210.678 163.598C210.459 163.49 210.21 163.436 209.932 163.436C209.645 163.436 209.394 163.496 209.178 163.615C208.962 163.732 208.794 163.898 208.675 164.114C208.558 164.33 208.5 164.587 208.5 164.885H206.996C206.996 164.331 207.122 163.849 207.375 163.44C207.628 163.031 207.976 162.714 208.419 162.49C208.865 162.266 209.377 162.153 209.953 162.153C210.539 162.153 211.053 162.263 211.496 162.482C211.939 162.7 212.283 163 212.527 163.381C212.774 163.761 212.898 164.196 212.898 164.685C212.898 165.011 212.835 165.332 212.71 165.648C212.585 165.963 212.365 166.312 212.05 166.696C211.737 167.08 211.298 167.544 210.733 168.089L209.229 169.619V169.679H213.03V171H207.047ZM217.726 171.166C217.024 171.166 216.422 170.989 215.919 170.634C215.419 170.276 215.034 169.76 214.764 169.087C214.497 168.411 214.364 167.597 214.364 166.645C214.367 165.693 214.502 164.884 214.769 164.216C215.039 163.545 215.423 163.034 215.923 162.682C216.426 162.33 217.027 162.153 217.726 162.153C218.425 162.153 219.026 162.33 219.529 162.682C220.031 163.034 220.416 163.545 220.683 164.216C220.953 164.886 221.088 165.696 221.088 166.645C221.088 167.599 220.953 168.415 220.683 169.091C220.416 169.764 220.031 170.278 219.529 170.634C219.029 170.989 218.428 171.166 217.726 171.166ZM217.726 169.832C218.271 169.832 218.702 169.564 219.017 169.027C219.335 168.487 219.494 167.693 219.494 166.645C219.494 165.952 219.422 165.369 219.277 164.898C219.132 164.426 218.928 164.071 218.664 163.832C218.399 163.591 218.087 163.47 217.726 163.47C217.183 163.47 216.754 163.74 216.439 164.28C216.124 164.817 215.965 165.605 215.962 166.645C215.959 167.341 216.029 167.926 216.171 168.401C216.316 168.875 216.52 169.233 216.784 169.474C217.048 169.713 217.362 169.832 217.726 169.832Z" fill="#1A1A1A"/>
<path d="M244.166 171V169.858L247.196 166.888C247.486 166.595 247.727 166.335 247.92 166.108C248.114 165.881 248.259 165.661 248.355 165.447C248.452 165.234 248.5 165.007 248.5 164.766C248.5 164.49 248.438 164.254 248.312 164.058C248.188 163.859 248.016 163.706 247.797 163.598C247.578 163.49 247.33 163.436 247.051 163.436C246.764 163.436 246.513 163.496 246.297 163.615C246.081 163.732 245.913 163.898 245.794 164.114C245.678 164.33 245.619 164.587 245.619 164.885H244.115C244.115 164.331 244.241 163.849 244.494 163.44C244.747 163.031 245.095 162.714 245.538 162.49C245.984 162.266 246.496 162.153 247.072 162.153C247.658 162.153 248.172 162.263 248.615 162.482C249.058 162.7 249.402 163 249.646 163.381C249.893 163.761 250.017 164.196 250.017 164.685C250.017 165.011 249.955 165.332 249.83 165.648C249.705 165.963 249.484 166.312 249.169 166.696C248.857 167.08 248.418 167.544 247.852 168.089L246.348 169.619V169.679H250.149V171H244.166ZM255.169 162.273V171H253.588V163.811H253.537L251.496 165.115V163.666L253.665 162.273H255.169Z" fill="#1A1A1A"/>
</g>
<g clip-path="url(#clip4_2628_9317)">
<path d="M27.3224 205V203.858L30.3523 200.888C30.642 200.595 30.8835 200.335 31.0767 200.108C31.2699 199.881 31.4148 199.661 31.5114 199.447C31.608 199.234 31.6562 199.007 31.6562 198.766C31.6562 198.49 31.5938 198.254 31.4688 198.058C31.3438 197.859 31.1719 197.706 30.9531 197.598C30.7344 197.49 30.4858 197.436 30.2074 197.436C29.9205 197.436 29.669 197.496 29.4531 197.615C29.2372 197.732 29.0696 197.898 28.9503 198.114C28.8338 198.33 28.7756 198.587 28.7756 198.885H27.2713C27.2713 198.331 27.3977 197.849 27.6506 197.44C27.9034 197.031 28.2514 196.714 28.6946 196.49C29.1406 196.266 29.652 196.153 30.2287 196.153C30.8139 196.153 31.3281 196.263 31.7713 196.482C32.2145 196.7 32.5582 197 32.8026 197.381C33.0497 197.761 33.1733 198.196 33.1733 198.685C33.1733 199.011 33.1108 199.332 32.9858 199.648C32.8608 199.963 32.6406 200.312 32.3253 200.696C32.0128 201.08 31.5739 201.544 31.0085 202.089L29.5043 203.619V203.679H33.3054V205H27.3224ZM34.7756 205V203.858L37.8054 200.888C38.0952 200.595 38.3366 200.335 38.5298 200.108C38.723 199.881 38.8679 199.661 38.9645 199.447C39.0611 199.234 39.1094 199.007 39.1094 198.766C39.1094 198.49 39.0469 198.254 38.9219 198.058C38.7969 197.859 38.625 197.706 38.4062 197.598C38.1875 197.49 37.9389 197.436 37.6605 197.436C37.3736 197.436 37.1222 197.496 36.9062 197.615C36.6903 197.732 36.5227 197.898 36.4034 198.114C36.2869 198.33 36.2287 198.587 36.2287 198.885H34.7244C34.7244 198.331 34.8509 197.849 35.1037 197.44C35.3565 197.031 35.7045 196.714 36.1477 196.49C36.5938 196.266 37.1051 196.153 37.6818 196.153C38.267 196.153 38.7813 196.263 39.2244 196.482C39.6676 196.7 40.0114 197 40.2557 197.381C40.5028 197.761 40.6264 198.196 40.6264 198.685C40.6264 199.011 40.5639 199.332 40.4389 199.648C40.3139 199.963 40.0938 200.312 39.7784 200.696C39.4659 201.08 39.027 201.544 38.4616 202.089L36.9574 203.619V203.679H40.7585V205H34.7756Z" fill="#1A1A1A"/>
<path d="M63.1408 205V203.858L66.1706 200.888C66.4604 200.595 66.7019 200.335 66.8951 200.108C67.0882 199.881 67.2331 199.661 67.3297 199.447C67.4263 199.234 67.4746 199.007 67.4746 198.766C67.4746 198.49 67.4121 198.254 67.2871 198.058C67.1621 197.859 66.9902 197.706 66.7715 197.598C66.5527 197.49 66.3042 197.436 66.0257 197.436C65.7388 197.436 65.4874 197.496 65.2715 197.615C65.0556 197.732 64.888 197.898 64.7686 198.114C64.6522 198.33 64.5939 198.587 64.5939 198.885H63.0897C63.0897 198.331 63.2161 197.849 63.4689 197.44C63.7218 197.031 64.0698 196.714 64.513 196.49C64.959 196.266 65.4703 196.153 66.0471 196.153C66.6323 196.153 67.1465 196.263 67.5897 196.482C68.0328 196.7 68.3766 197 68.6209 197.381C68.8681 197.761 68.9917 198.196 68.9917 198.685C68.9917 199.011 68.9292 199.332 68.8042 199.648C68.6792 199.963 68.459 200.312 68.1436 200.696C67.8311 201.08 67.3922 201.544 66.8269 202.089L65.3226 203.619V203.679H69.1238V205H63.1408ZM73.726 205.119C73.1124 205.119 72.5669 205.014 72.0897 204.804C71.6152 204.594 71.2402 204.301 70.9647 203.926C70.6891 203.551 70.5428 203.118 70.5257 202.626H72.128C72.1422 202.862 72.2203 203.068 72.3624 203.244C72.5044 203.418 72.6934 203.553 72.9292 203.649C73.165 203.746 73.4292 203.794 73.7218 203.794C74.0343 203.794 74.3113 203.74 74.5527 203.632C74.7942 203.521 74.9831 203.368 75.1195 203.172C75.2559 202.976 75.3226 202.75 75.3198 202.494C75.3226 202.23 75.2544 201.997 75.1152 201.795C74.976 201.594 74.7743 201.436 74.5101 201.322C74.2488 201.209 73.9334 201.152 73.5641 201.152H72.7928V199.933H73.5641C73.8681 199.933 74.1337 199.881 74.361 199.776C74.5911 199.67 74.7715 199.523 74.9022 199.332C75.0328 199.139 75.0968 198.916 75.0939 198.663C75.0968 198.416 75.0414 198.202 74.9277 198.02C74.8169 197.835 74.6593 197.692 74.4547 197.589C74.253 197.487 74.0158 197.436 73.7431 197.436C73.476 197.436 73.2289 197.484 73.0016 197.581C72.7743 197.678 72.5911 197.815 72.4519 197.994C72.3127 198.17 72.2388 198.381 72.2303 198.625H70.709C70.7203 198.136 70.861 197.707 71.1309 197.338C71.4036 196.966 71.7672 196.676 72.2218 196.469C72.6763 196.259 73.1863 196.153 73.7516 196.153C74.334 196.153 74.8397 196.263 75.2686 196.482C75.7005 196.697 76.0343 196.989 76.2701 197.355C76.5059 197.722 76.6238 198.126 76.6238 198.57C76.6266 199.061 76.4817 199.473 76.1891 199.805C75.8993 200.138 75.5186 200.355 75.0471 200.457V200.526C75.6607 200.611 76.1309 200.838 76.4576 201.207C76.7871 201.574 76.9505 202.03 76.9476 202.575C76.9476 203.064 76.8084 203.501 76.53 203.888C76.2544 204.271 75.8738 204.572 75.388 204.791C74.905 205.01 74.351 205.119 73.726 205.119Z" fill="#1A1A1A"/>
<path d="M99.1467 205V203.858L102.176 200.888C102.466 200.595 102.708 200.335 102.901 200.108C103.094 199.881 103.239 199.661 103.336 199.447C103.432 199.234 103.48 199.007 103.48 198.766C103.48 198.49 103.418 198.254 103.293 198.058C103.168 197.859 102.996 197.706 102.777 197.598C102.559 197.49 102.31 197.436 102.032 197.436C101.745 197.436 101.493 197.496 101.277 197.615C101.061 197.732 100.894 197.898 100.775 198.114C100.658 198.33 100.6 198.587 100.6 198.885H99.0955C99.0955 198.331 99.2219 197.849 99.4748 197.44C99.7276 197.031 100.076 196.714 100.519 196.49C100.965 196.266 101.476 196.153 102.053 196.153C102.638 196.153 103.152 196.263 103.596 196.482C104.039 196.7 104.382 197 104.627 197.381C104.874 197.761 104.998 198.196 104.998 198.685C104.998 199.011 104.935 199.332 104.81 199.648C104.685 199.963 104.465 200.312 104.15 200.696C103.837 201.08 103.398 201.544 102.833 202.089L101.328 203.619V203.679H105.13V205H99.1467ZM106.255 203.381V202.124L109.958 196.273H111.006V198.062H110.367L107.874 202.013V202.081H113.043V203.381H106.255ZM110.418 205V202.997L110.435 202.435V196.273H111.926V205H110.418Z" fill="#1A1A1A"/>
<rect x="124.5" y="186.5" width="35" height="29" rx="2.5" fill="#217CF5"/>
<rect x="124.5" y="186.5" width="35" height="29" rx="2.5" stroke="#217CF5"/>
<path d="M135.252 205V203.858L138.282 200.888C138.572 200.595 138.813 200.335 139.006 200.108C139.2 199.881 139.344 199.661 139.441 199.447C139.538 199.234 139.586 199.007 139.586 198.766C139.586 198.49 139.523 198.254 139.398 198.058C139.273 197.859 139.102 197.706 138.883 197.598C138.664 197.49 138.415 197.436 138.137 197.436C137.85 197.436 137.599 197.496 137.383 197.615C137.167 197.732 136.999 197.898 136.88 198.114C136.763 198.33 136.705 198.587 136.705 198.885H135.201C135.201 198.331 135.327 197.849 135.58 197.44C135.833 197.031 136.181 196.714 136.624 196.49C137.07 196.266 137.582 196.153 138.158 196.153C138.744 196.153 139.258 196.263 139.701 196.482C140.144 196.7 140.488 197 140.732 197.381C140.979 197.761 141.103 198.196 141.103 198.685C141.103 199.011 141.04 199.332 140.915 199.648C140.79 199.963 140.57 200.312 140.255 200.696C139.942 201.08 139.504 201.544 138.938 202.089L137.434 203.619V203.679H141.235V205H135.252ZM145.739 205.119C145.171 205.119 144.663 205.013 144.214 204.8C143.765 204.584 143.408 204.288 143.144 203.913C142.883 203.538 142.744 203.109 142.727 202.626H144.261C144.289 202.984 144.444 203.277 144.725 203.504C145.006 203.729 145.344 203.841 145.739 203.841C146.049 203.841 146.325 203.77 146.566 203.628C146.808 203.486 146.998 203.288 147.137 203.036C147.276 202.783 147.344 202.494 147.342 202.17C147.344 201.841 147.275 201.548 147.133 201.293C146.991 201.037 146.796 200.837 146.549 200.692C146.302 200.544 146.018 200.47 145.697 200.47C145.435 200.467 145.178 200.516 144.925 200.615C144.673 200.714 144.472 200.845 144.325 201.007L142.897 200.773L143.353 196.273H148.415V197.594H144.661L144.41 199.908H144.461C144.623 199.717 144.852 199.56 145.147 199.435C145.442 199.307 145.766 199.243 146.119 199.243C146.647 199.243 147.119 199.368 147.533 199.618C147.948 199.865 148.275 200.206 148.513 200.641C148.752 201.075 148.871 201.572 148.871 202.132C148.871 202.709 148.738 203.223 148.471 203.675C148.207 204.124 147.839 204.477 147.367 204.736C146.898 204.991 146.356 205.119 145.739 205.119Z" fill="white"/>
<path d="M171.158 205V203.858L174.188 200.888C174.478 200.595 174.719 200.335 174.913 200.108C175.106 199.881 175.251 199.661 175.347 199.447C175.444 199.234 175.492 199.007 175.492 198.766C175.492 198.49 175.43 198.254 175.305 198.058C175.18 197.859 175.008 197.706 174.789 197.598C174.57 197.49 174.322 197.436 174.043 197.436C173.756 197.436 173.505 197.496 173.289 197.615C173.073 197.732 172.906 197.898 172.786 198.114C172.67 198.33 172.612 198.587 172.612 198.885H171.107C171.107 198.331 171.234 197.849 171.487 197.44C171.739 197.031 172.087 196.714 172.531 196.49C172.977 196.266 173.488 196.153 174.065 196.153C174.65 196.153 175.164 196.263 175.607 196.482C176.05 196.7 176.394 197 176.638 197.381C176.886 197.761 177.009 198.196 177.009 198.685C177.009 199.011 176.947 199.332 176.822 199.648C176.697 199.963 176.477 200.312 176.161 200.696C175.849 201.08 175.41 201.544 174.844 202.089L173.34 203.619V203.679H177.141V205H171.158ZM181.808 205.119C181.39 205.116 180.982 205.044 180.585 204.902C180.187 204.757 179.829 204.523 179.511 204.199C179.192 203.872 178.94 203.439 178.752 202.899C178.565 202.357 178.472 201.685 178.475 200.884C178.475 200.136 178.555 199.47 178.714 198.885C178.873 198.3 179.102 197.805 179.4 197.402C179.698 196.996 180.058 196.686 180.478 196.473C180.901 196.26 181.374 196.153 181.897 196.153C182.445 196.153 182.931 196.261 183.354 196.477C183.781 196.693 184.124 196.989 184.386 197.364C184.647 197.736 184.809 198.156 184.871 198.625H183.316C183.237 198.29 183.073 198.023 182.826 197.824C182.582 197.622 182.272 197.521 181.897 197.521C181.292 197.521 180.826 197.784 180.499 198.31C180.175 198.835 180.012 199.557 180.009 200.474H180.069C180.208 200.224 180.388 200.01 180.61 199.831C180.832 199.652 181.082 199.514 181.36 199.418C181.641 199.318 181.938 199.268 182.251 199.268C182.762 199.268 183.221 199.391 183.627 199.635C184.036 199.879 184.36 200.216 184.599 200.645C184.837 201.071 184.955 201.56 184.952 202.111C184.955 202.685 184.825 203.2 184.56 203.658C184.296 204.112 183.928 204.47 183.457 204.732C182.985 204.993 182.435 205.122 181.808 205.119ZM181.799 203.841C182.109 203.841 182.386 203.766 182.63 203.615C182.874 203.464 183.067 203.261 183.21 203.006C183.352 202.75 183.421 202.463 183.418 202.145C183.421 201.832 183.353 201.55 183.214 201.297C183.077 201.044 182.888 200.844 182.647 200.696C182.406 200.548 182.13 200.474 181.82 200.474C181.59 200.474 181.376 200.518 181.177 200.607C180.978 200.695 180.805 200.817 180.657 200.973C180.509 201.126 180.393 201.305 180.308 201.51C180.225 201.712 180.183 201.928 180.18 202.158C180.183 202.462 180.254 202.741 180.393 202.997C180.532 203.253 180.724 203.457 180.968 203.611C181.212 203.764 181.489 203.841 181.799 203.841Z" fill="#1A1A1A"/>
<path d="M207.528 205V203.858L210.557 200.888C210.847 200.595 211.089 200.335 211.282 200.108C211.475 199.881 211.62 199.661 211.716 199.447C211.813 199.234 211.861 199.007 211.861 198.766C211.861 198.49 211.799 198.254 211.674 198.058C211.549 197.859 211.377 197.706 211.158 197.598C210.939 197.49 210.691 197.436 210.412 197.436C210.126 197.436 209.874 197.496 209.658 197.615C209.442 197.732 209.275 197.898 209.155 198.114C209.039 198.33 208.981 198.587 208.981 198.885H207.476C207.476 198.331 207.603 197.849 207.856 197.44C208.108 197.031 208.456 196.714 208.9 196.49C209.346 196.266 209.857 196.153 210.434 196.153C211.019 196.153 211.533 196.263 211.976 196.482C212.42 196.7 212.763 197 213.008 197.381C213.255 197.761 213.378 198.196 213.378 198.685C213.378 199.011 213.316 199.332 213.191 199.648C213.066 199.963 212.846 200.312 212.53 200.696C212.218 201.08 211.779 201.544 211.214 202.089L209.709 203.619V203.679H213.51V205H207.528ZM215.3 205L219.012 197.653V197.594H214.704V196.273H220.648V197.624L216.941 205H215.3Z" fill="#1A1A1A"/>
<path d="M243.176 205V203.858L246.206 200.888C246.496 200.595 246.737 200.335 246.93 200.108C247.123 199.881 247.268 199.661 247.365 199.447C247.461 199.234 247.51 199.007 247.51 198.766C247.51 198.49 247.447 198.254 247.322 198.058C247.197 197.859 247.025 197.706 246.807 197.598C246.588 197.49 246.339 197.436 246.061 197.436C245.774 197.436 245.523 197.496 245.307 197.615C245.091 197.732 244.923 197.898 244.804 198.114C244.687 198.33 244.629 198.587 244.629 198.885H243.125C243.125 198.331 243.251 197.849 243.504 197.44C243.757 197.031 244.105 196.714 244.548 196.49C244.994 196.266 245.506 196.153 246.082 196.153C246.667 196.153 247.182 196.263 247.625 196.482C248.068 196.7 248.412 197 248.656 197.381C248.903 197.761 249.027 198.196 249.027 198.685C249.027 199.011 248.964 199.332 248.839 199.648C248.714 199.963 248.494 200.312 248.179 200.696C247.866 201.08 247.427 201.544 246.862 202.089L245.358 203.619V203.679H249.159V205H243.176ZM253.731 205.119C253.098 205.119 252.535 205.013 252.044 204.8C251.555 204.587 251.172 204.295 250.893 203.926C250.618 203.554 250.481 203.132 250.484 202.661C250.481 202.294 250.561 201.957 250.723 201.651C250.885 201.344 251.104 201.088 251.379 200.884C251.657 200.676 251.967 200.544 252.308 200.487V200.428C251.859 200.328 251.496 200.099 251.217 199.741C250.942 199.381 250.805 198.964 250.808 198.493C250.805 198.044 250.93 197.643 251.183 197.291C251.436 196.939 251.782 196.662 252.223 196.46C252.663 196.256 253.166 196.153 253.731 196.153C254.291 196.153 254.79 196.256 255.227 196.46C255.667 196.662 256.014 196.939 256.267 197.291C256.523 197.643 256.65 198.044 256.65 198.493C256.65 198.964 256.51 199.381 256.229 199.741C255.95 200.099 255.591 200.328 255.15 200.428V200.487C255.491 200.544 255.798 200.676 256.071 200.884C256.346 201.088 256.565 201.344 256.727 201.651C256.892 201.957 256.974 202.294 256.974 202.661C256.974 203.132 256.835 203.554 256.557 203.926C256.278 204.295 255.895 204.587 255.406 204.8C254.92 205.013 254.362 205.119 253.731 205.119ZM253.731 203.901C254.058 203.901 254.342 203.845 254.584 203.734C254.825 203.621 255.013 203.462 255.146 203.257C255.28 203.053 255.348 202.817 255.351 202.55C255.348 202.271 255.275 202.026 255.133 201.812C254.994 201.597 254.802 201.428 254.558 201.305C254.317 201.183 254.041 201.122 253.731 201.122C253.419 201.122 253.14 201.183 252.896 201.305C252.652 201.428 252.459 201.597 252.317 201.812C252.177 202.026 252.109 202.271 252.112 202.55C252.109 202.817 252.175 203.053 252.308 203.257C252.442 203.459 252.629 203.616 252.871 203.73C253.115 203.844 253.402 203.901 253.731 203.901ZM253.731 199.925C253.998 199.925 254.234 199.871 254.439 199.763C254.646 199.655 254.809 199.504 254.929 199.311C255.048 199.118 255.109 198.895 255.112 198.642C255.109 198.392 255.05 198.173 254.933 197.986C254.817 197.795 254.655 197.649 254.447 197.547C254.24 197.442 254.001 197.389 253.731 197.389C253.456 197.389 253.213 197.442 253.003 197.547C252.795 197.649 252.633 197.795 252.517 197.986C252.403 198.173 252.348 198.392 252.351 198.642C252.348 198.895 252.405 199.118 252.521 199.311C252.64 199.501 252.804 199.652 253.011 199.763C253.221 199.871 253.461 199.925 253.731 199.925Z" fill="#1A1A1A"/>
</g>
<g clip-path="url(#clip5_2628_9317)">
<path d="M27.1584 239V237.858L30.1882 234.888C30.478 234.595 30.7195 234.335 30.9126 234.108C31.1058 233.881 31.2507 233.661 31.3473 233.447C31.4439 233.234 31.4922 233.007 31.4922 232.766C31.4922 232.49 31.4297 232.254 31.3047 232.058C31.1797 231.859 31.0078 231.706 30.7891 231.598C30.5703 231.49 30.3217 231.436 30.0433 231.436C29.7564 231.436 29.505 231.496 29.2891 231.615C29.0732 231.732 28.9055 231.898 28.7862 232.114C28.6697 232.33 28.6115 232.587 28.6115 232.885H27.1072C27.1072 232.331 27.2337 231.849 27.4865 231.44C27.7393 231.031 28.0874 230.714 28.5305 230.49C28.9766 230.266 29.4879 230.153 30.0646 230.153C30.6499 230.153 31.1641 230.263 31.6072 230.482C32.0504 230.7 32.3942 231 32.6385 231.381C32.8857 231.761 33.0092 232.196 33.0092 232.685C33.0092 233.011 32.9467 233.332 32.8217 233.648C32.6967 233.963 32.4766 234.312 32.1612 234.696C31.8487 235.08 31.4098 235.544 30.8445 236.089L29.3402 237.619V237.679H33.1413V239H27.1584ZM37.6413 230.153C38.0589 230.156 38.4652 230.23 38.8601 230.375C39.2578 230.517 39.6158 230.75 39.9339 231.074C40.2521 231.395 40.505 231.825 40.6925 232.365C40.88 232.905 40.9737 233.572 40.9737 234.368C40.9766 235.118 40.897 235.788 40.7351 236.379C40.576 236.967 40.3473 237.464 40.049 237.871C39.7507 238.277 39.3913 238.587 38.9709 238.8C38.5504 239.013 38.0774 239.119 37.5518 239.119C37.0007 239.119 36.5121 239.011 36.0859 238.795C35.6626 238.58 35.3203 238.284 35.0589 237.909C34.7976 237.534 34.6371 237.105 34.5774 236.622H36.1328C36.2124 236.969 36.3743 237.244 36.6186 237.449C36.8658 237.651 37.1768 237.751 37.5518 237.751C38.157 237.751 38.6229 237.489 38.9496 236.963C39.2763 236.437 39.4396 235.707 39.4396 234.773H39.38C39.2408 235.023 39.0604 235.239 38.8388 235.42C38.6172 235.599 38.3658 235.737 38.0845 235.834C37.8061 235.93 37.5107 235.979 37.1982 235.979C36.6868 235.979 36.2266 235.857 35.8175 235.612C35.4112 235.368 35.0888 235.033 34.8501 234.607C34.6143 234.18 34.495 233.693 34.4922 233.145C34.4922 232.577 34.6229 232.067 34.8842 231.615C35.1484 231.161 35.5163 230.803 35.9879 230.541C36.4595 230.277 37.0107 230.148 37.6413 230.153ZM37.6456 231.432C37.3388 231.432 37.0618 231.507 36.8146 231.658C36.5703 231.805 36.3771 232.007 36.2351 232.263C36.0959 232.516 36.0263 232.798 36.0263 233.111C36.0291 233.42 36.0987 233.702 36.2351 233.955C36.3743 234.207 36.5632 234.408 36.8018 234.555C37.0433 234.703 37.3189 234.777 37.6286 234.777C37.8587 234.777 38.0732 234.733 38.272 234.645C38.4709 234.557 38.6442 234.435 38.7919 234.278C38.9425 234.119 39.0589 233.939 39.1413 233.737C39.2266 233.536 39.2678 233.322 39.2649 233.098C39.2649 232.8 39.1939 232.524 39.0518 232.271C38.9126 232.018 38.7209 231.815 38.4766 231.662C38.2351 231.509 37.9581 231.432 37.6456 231.432Z" fill="#1A1A1A"/>
<path d="M65.9975 239.119C65.3839 239.119 64.8384 239.014 64.3612 238.804C63.8867 238.594 63.5117 238.301 63.2362 237.926C62.9606 237.551 62.8143 237.118 62.7972 236.626H64.3995C64.4137 236.862 64.4918 237.068 64.6339 237.244C64.7759 237.418 64.9648 237.553 65.2006 237.649C65.4364 237.746 65.7006 237.794 65.9933 237.794C66.3058 237.794 66.5827 237.74 66.8242 237.632C67.0657 237.521 67.2546 237.368 67.391 237.172C67.5273 236.976 67.5941 236.75 67.5913 236.494C67.5941 236.23 67.5259 235.997 67.3867 235.795C67.2475 235.594 67.0458 235.436 66.7816 235.322C66.5202 235.209 66.2049 235.152 65.8356 235.152H65.0643V233.933H65.8356C66.1396 233.933 66.4052 233.881 66.6325 233.776C66.8626 233.67 67.043 233.523 67.1737 233.332C67.3043 233.139 67.3683 232.916 67.3654 232.663C67.3683 232.416 67.3129 232.202 67.1992 232.02C67.0884 231.835 66.9308 231.692 66.7262 231.589C66.5245 231.487 66.2873 231.436 66.0146 231.436C65.7475 231.436 65.5004 231.484 65.2731 231.581C65.0458 231.678 64.8626 231.815 64.7234 231.994C64.5842 232.17 64.5103 232.381 64.5018 232.625H62.9805C62.9918 232.136 63.1325 231.707 63.4023 231.338C63.6751 230.966 64.0387 230.676 64.4933 230.469C64.9478 230.259 65.4577 230.153 66.0231 230.153C66.6055 230.153 67.1112 230.263 67.5401 230.482C67.9719 230.697 68.3058 230.989 68.5415 231.355C68.7773 231.722 68.8952 232.126 68.8952 232.57C68.8981 233.061 68.7532 233.473 68.4606 233.805C68.1708 234.138 67.7901 234.355 67.3185 234.457V234.526C67.9322 234.611 68.4023 234.838 68.729 235.207C69.0586 235.574 69.2219 236.03 69.2191 236.575C69.2191 237.064 69.0799 237.501 68.8015 237.888C68.5259 238.271 68.1452 238.572 67.6594 238.791C67.1765 239.01 66.6225 239.119 65.9975 239.119ZM73.9077 239.166C73.206 239.166 72.6037 238.989 72.1009 238.634C71.6009 238.276 71.2159 237.76 70.946 237.087C70.679 236.411 70.5455 235.597 70.5455 234.645C70.5483 233.693 70.6832 232.884 70.9503 232.216C71.2202 231.545 71.6051 231.034 72.1051 230.682C72.608 230.33 73.2088 230.153 73.9077 230.153C74.6065 230.153 75.2074 230.33 75.7102 230.682C76.2131 231.034 76.598 231.545 76.8651 232.216C77.1349 232.886 77.2699 233.696 77.2699 234.645C77.2699 235.599 77.1349 236.415 76.8651 237.091C76.598 237.764 76.2131 238.278 75.7102 238.634C75.2102 238.989 74.6094 239.166 73.9077 239.166ZM73.9077 237.832C74.4531 237.832 74.8835 237.564 75.1989 237.027C75.517 236.487 75.6761 235.693 75.6761 234.645C75.6761 233.952 75.6037 233.369 75.4588 232.898C75.3139 232.426 75.1094 232.071 74.8452 231.832C74.581 231.591 74.2685 231.47 73.9077 231.47C73.3651 231.47 72.9361 231.74 72.6207 232.28C72.3054 232.817 72.1463 233.605 72.1435 234.645C72.1406 235.341 72.2102 235.926 72.3523 236.401C72.4972 236.875 72.7017 237.233 72.9659 237.474C73.2301 237.713 73.544 237.832 73.9077 237.832Z" fill="#1A1A1A"/>
<path d="M107.442 230.273V239H105.862V231.811H105.81L103.769 233.115V231.666L105.938 230.273H107.442Z" fill="#9E9E9E"/>
<path d="M139.049 239V237.858L142.079 234.888C142.369 234.595 142.61 234.335 142.803 234.108C142.996 233.881 143.141 233.661 143.238 233.447C143.335 233.234 143.383 233.007 143.383 232.766C143.383 232.49 143.32 232.254 143.195 232.058C143.07 231.859 142.898 231.706 142.68 231.598C142.461 231.49 142.212 231.436 141.934 231.436C141.647 231.436 141.396 231.496 141.18 231.615C140.964 231.732 140.796 231.898 140.677 232.114C140.56 232.33 140.502 232.587 140.502 232.885H138.998C138.998 232.331 139.124 231.849 139.377 231.44C139.63 231.031 139.978 230.714 140.421 230.49C140.867 230.266 141.379 230.153 141.955 230.153C142.54 230.153 143.055 230.263 143.498 230.482C143.941 230.7 144.285 231 144.529 231.381C144.776 231.761 144.9 232.196 144.9 232.685C144.9 233.011 144.837 233.332 144.712 233.648C144.587 233.963 144.367 234.312 144.052 234.696C143.739 235.08 143.3 235.544 142.735 236.089L141.231 237.619V237.679H145.032V239H139.049Z" fill="#9E9E9E"/>
<path d="M177.999 239.119C177.386 239.119 176.84 239.014 176.363 238.804C175.889 238.594 175.514 238.301 175.238 237.926C174.963 237.551 174.816 237.118 174.799 236.626H176.401C176.416 236.862 176.494 237.068 176.636 237.244C176.778 237.418 176.967 237.553 177.203 237.649C177.438 237.746 177.703 237.794 177.995 237.794C178.308 237.794 178.585 237.74 178.826 237.632C179.068 237.521 179.257 237.368 179.393 237.172C179.529 236.976 179.596 236.75 179.593 236.494C179.596 236.23 179.528 235.997 179.389 235.795C179.249 235.594 179.048 235.436 178.784 235.322C178.522 235.209 178.207 235.152 177.838 235.152H177.066V233.933H177.838C178.142 233.933 178.407 233.881 178.634 233.776C178.865 233.67 179.045 233.523 179.176 233.332C179.306 233.139 179.37 232.916 179.367 232.663C179.37 232.416 179.315 232.202 179.201 232.02C179.09 231.835 178.933 231.692 178.728 231.589C178.526 231.487 178.289 231.436 178.017 231.436C177.749 231.436 177.502 231.484 177.275 231.581C177.048 231.678 176.865 231.815 176.725 231.994C176.586 232.17 176.512 232.381 176.504 232.625H174.982C174.994 232.136 175.134 231.707 175.404 231.338C175.677 230.966 176.041 230.676 176.495 230.469C176.95 230.259 177.46 230.153 178.025 230.153C178.607 230.153 179.113 230.263 179.542 230.482C179.974 230.697 180.308 230.989 180.544 231.355C180.779 231.722 180.897 232.126 180.897 232.57C180.9 233.061 180.755 233.473 180.463 233.805C180.173 234.138 179.792 234.355 179.32 234.457V234.526C179.934 234.611 180.404 234.838 180.731 235.207C181.061 235.574 181.224 236.03 181.221 236.575C181.221 237.064 181.082 237.501 180.803 237.888C180.528 238.271 180.147 238.572 179.661 238.791C179.178 239.01 178.624 239.119 177.999 239.119Z" fill="#9E9E9E"/>
<path d="M210.622 237.381V236.124L214.325 230.273H215.373V232.062H214.734L212.241 236.013V236.081H217.41V237.381H210.622ZM214.785 239V236.997L214.802 236.435V230.273H216.294V239H214.785Z" fill="#9E9E9E"/>
<path d="M250.013 239.119C249.445 239.119 248.936 239.013 248.487 238.8C248.038 238.584 247.682 238.288 247.418 237.913C247.156 237.538 247.017 237.109 247 236.626H248.534C248.563 236.984 248.717 237.277 248.999 237.504C249.28 237.729 249.618 237.841 250.013 237.841C250.322 237.841 250.598 237.77 250.839 237.628C251.081 237.486 251.271 237.288 251.411 237.036C251.55 236.783 251.618 236.494 251.615 236.17C251.618 235.841 251.548 235.548 251.406 235.293C251.264 235.037 251.07 234.837 250.822 234.692C250.575 234.544 250.291 234.47 249.97 234.47C249.709 234.467 249.452 234.516 249.199 234.615C248.946 234.714 248.746 234.845 248.598 235.007L247.17 234.773L247.626 230.273H252.689V231.594H248.935L248.683 233.908H248.734C248.896 233.717 249.125 233.56 249.42 233.435C249.716 233.307 250.04 233.243 250.392 233.243C250.92 233.243 251.392 233.368 251.807 233.618C252.222 233.865 252.548 234.206 252.787 234.641C253.026 235.075 253.145 235.572 253.145 236.132C253.145 236.709 253.011 237.223 252.744 237.675C252.48 238.124 252.112 238.477 251.641 238.736C251.172 238.991 250.629 239.119 250.013 239.119Z" fill="#9E9E9E"/>
</g>
<defs>
<clipPath id="clip0_2628_9317">
<rect width="252" height="34" fill="white" transform="translate(16 48)"/>
</clipPath>
<clipPath id="clip1_2628_9317">
<rect width="252" height="34" fill="white" transform="translate(16 82)"/>
</clipPath>
<clipPath id="clip2_2628_9317">
<rect width="252" height="34" fill="white" transform="translate(16 116)"/>
</clipPath>
<clipPath id="clip3_2628_9317">
<rect width="252" height="34" fill="white" transform="translate(16 150)"/>
</clipPath>
<clipPath id="clip4_2628_9317">
<rect width="252" height="34" fill="white" transform="translate(16 184)"/>
</clipPath>
<clipPath id="clip5_2628_9317">
<rect width="252" height="34" fill="white" transform="translate(16 218)"/>
</clipPath>
</defs>
</svg>
