<svg width="804" height="162" viewBox="0 0 804 162" fill="none" xmlns="http://www.w3.org/2000/svg">
<rect width="804" height="162" fill="#F9FAFB"/>
<g opacity="0.2">
<path d="M273.784 84H270.959V75.2727H273.874C274.729 75.2727 275.463 75.4474 276.077 75.7969C276.69 76.1435 277.161 76.642 277.487 77.2926C277.817 77.9403 277.982 78.7173 277.982 79.6236C277.982 80.5327 277.815 81.3139 277.483 81.9673C277.153 82.6207 276.676 83.1236 276.051 83.4759C275.426 83.8253 274.67 84 273.784 84ZM272.276 82.8494H273.712C274.376 82.8494 274.929 82.7244 275.369 82.4744C275.81 82.2216 276.139 81.8565 276.358 81.3793C276.577 80.8991 276.686 80.3139 276.686 79.6236C276.686 78.9389 276.577 78.358 276.358 77.8807C276.142 77.4034 275.82 77.0412 275.391 76.794C274.962 76.5469 274.429 76.4233 273.793 76.4233H272.276V82.8494ZM281.422 84.1449C281.007 84.1449 280.632 84.0682 280.297 83.9148C279.961 83.7585 279.696 83.5327 279.5 83.2372C279.306 82.9418 279.21 82.5795 279.21 82.1506C279.21 81.7812 279.281 81.4773 279.423 81.2386C279.565 81 279.757 80.8111 279.998 80.6719C280.24 80.5327 280.51 80.4276 280.808 80.3565C281.106 80.2855 281.41 80.2315 281.72 80.1946C282.112 80.1491 282.43 80.1122 282.674 80.0838C282.919 80.0526 283.096 80.0028 283.207 79.9347C283.318 79.8665 283.373 79.7557 283.373 79.6023V79.5724C283.373 79.2003 283.268 78.9119 283.058 78.7074C282.85 78.5028 282.541 78.4006 282.129 78.4006C281.7 78.4006 281.362 78.4957 281.115 78.6861C280.87 78.8736 280.701 79.0824 280.608 79.3125L279.41 79.0398C279.552 78.642 279.76 78.321 280.032 78.0767C280.308 77.8295 280.625 77.6506 280.983 77.5398C281.341 77.4261 281.717 77.3693 282.112 77.3693C282.373 77.3693 282.65 77.4006 282.943 77.4631C283.238 77.5227 283.514 77.6335 283.77 77.7955C284.028 77.9574 284.24 78.1889 284.404 78.4901C284.569 78.7884 284.652 79.1761 284.652 79.6534V84H283.407V83.1051H283.356C283.274 83.2699 283.15 83.4318 282.985 83.5909C282.821 83.75 282.609 83.8821 282.35 83.9872C282.092 84.0923 281.782 84.1449 281.422 84.1449ZM281.699 83.1222C282.051 83.1222 282.352 83.0526 282.602 82.9134C282.855 82.7741 283.047 82.5923 283.177 82.3679C283.311 82.1406 283.377 81.8977 283.377 81.6392V80.7955C283.332 80.8409 283.244 80.8835 283.113 80.9233C282.985 80.9602 282.839 80.9929 282.674 81.0213C282.51 81.0469 282.349 81.071 282.193 81.0938C282.037 81.1136 281.906 81.1307 281.801 81.1449C281.554 81.1761 281.328 81.2287 281.123 81.3026C280.922 81.3764 280.76 81.483 280.637 81.6222C280.518 81.7585 280.458 81.9403 280.458 82.1676C280.458 82.483 280.575 82.7216 280.808 82.8835C281.041 83.0426 281.338 83.1222 281.699 83.1222ZM289.404 77.4545V78.4773H285.829V77.4545H289.404ZM286.788 75.8864H288.062V82.0781C288.062 82.3253 288.099 82.5114 288.173 82.6364C288.246 82.7585 288.342 82.8423 288.458 82.8878C288.577 82.9304 288.707 82.9517 288.846 82.9517C288.948 82.9517 289.038 82.9446 289.114 82.9304C289.191 82.9162 289.251 82.9048 289.293 82.8963L289.523 83.9489C289.45 83.9773 289.344 84.0057 289.208 84.0341C289.072 84.0653 288.901 84.0824 288.697 84.0852C288.362 84.0909 288.049 84.0312 287.759 83.9062C287.469 83.7812 287.235 83.5881 287.056 83.3267C286.877 83.0653 286.788 82.7372 286.788 82.3423V75.8864ZM293.564 84.1321C292.919 84.1321 292.364 83.9943 291.898 83.7188C291.435 83.4403 291.077 83.0497 290.824 82.5469C290.574 82.0412 290.449 81.4489 290.449 80.7699C290.449 80.0994 290.574 79.5085 290.824 78.9972C291.077 78.4858 291.429 78.0866 291.881 77.7997C292.336 77.5128 292.867 77.3693 293.475 77.3693C293.844 77.3693 294.202 77.4304 294.549 77.5526C294.895 77.6747 295.206 77.8665 295.482 78.1278C295.757 78.3892 295.975 78.7287 296.134 79.1463C296.293 79.5611 296.373 80.0653 296.373 80.6591V81.1108H291.169V80.1562H295.124C295.124 79.821 295.056 79.5241 294.919 79.2656C294.783 79.0043 294.591 78.7983 294.344 78.6477C294.1 78.4972 293.813 78.4219 293.483 78.4219C293.125 78.4219 292.813 78.5099 292.546 78.6861C292.282 78.8594 292.077 79.0866 291.932 79.3679C291.79 79.6463 291.719 79.9489 291.719 80.2756V81.0213C291.719 81.4588 291.796 81.831 291.949 82.1378C292.105 82.4446 292.323 82.679 292.601 82.8409C292.88 83 293.205 83.0795 293.577 83.0795C293.819 83.0795 294.039 83.0455 294.238 82.9773C294.436 82.9062 294.608 82.8011 294.753 82.6619C294.898 82.5227 295.009 82.3509 295.086 82.1463L296.292 82.3636C296.195 82.7187 296.022 83.0298 295.772 83.2969C295.525 83.5611 295.213 83.767 294.838 83.9148C294.466 84.0597 294.042 84.1321 293.564 84.1321Z" fill="#707070"/>
<rect x="270.5" y="91.5" width="319" height="35" rx="2.5" fill="white"/>
<path d="M286.062 113.5H283.145V104.045H286.192C287.109 104.045 287.894 104.235 288.546 104.613C289.199 104.989 289.699 105.529 290.047 106.234C290.394 106.935 290.568 107.776 290.568 108.754C290.568 109.739 290.393 110.587 290.042 111.298C289.691 112.006 289.18 112.551 288.509 112.932C287.838 113.311 287.023 113.5 286.062 113.5ZM284.29 112.484H285.989C286.77 112.484 287.418 112.334 287.932 112.032C288.446 111.73 288.829 111.301 289.082 110.744C289.334 110.187 289.46 109.524 289.46 108.754C289.46 107.991 289.336 107.334 289.086 106.783C288.837 106.229 288.465 105.804 287.969 105.509C287.474 105.21 286.857 105.061 286.118 105.061H284.29V112.484ZM295.406 113.5H292.489V104.045H295.536C296.453 104.045 297.237 104.235 297.89 104.613C298.542 104.989 299.042 105.529 299.39 106.234C299.738 106.935 299.912 107.776 299.912 108.754C299.912 109.739 299.737 110.587 299.386 111.298C299.035 112.006 298.524 112.551 297.853 112.932C297.182 113.311 296.366 113.5 295.406 113.5ZM293.634 112.484H295.332C296.114 112.484 296.762 112.334 297.276 112.032C297.79 111.73 298.173 111.301 298.425 110.744C298.678 110.187 298.804 109.524 298.804 108.754C298.804 107.991 298.679 107.334 298.43 106.783C298.181 106.229 297.808 105.804 297.313 105.509C296.817 105.21 296.2 105.061 295.462 105.061H293.634V112.484ZM304.506 103.602L301.46 114.922H300.462L303.509 103.602H304.506ZM305.946 104.045H307.312L310.525 111.893H310.636L313.849 104.045H315.216V113.5H314.145V106.317H314.052L311.098 113.5H310.064L307.109 106.317H307.017V113.5H305.946V104.045ZM317.511 104.045H318.878L322.091 111.893H322.201L325.415 104.045H326.781V113.5H325.71V106.317H325.618L322.663 113.5H321.629L318.674 106.317H318.582V113.5H317.511V104.045ZM332.271 103.602L329.224 114.922H328.227L331.274 103.602H332.271ZM332.898 104.045H334.209L336.831 108.459H336.942L339.564 104.045H340.875L337.459 109.604V113.5H336.314V109.604L332.898 104.045ZM341.543 104.045H342.854L345.477 108.459H345.587L348.21 104.045H349.521L346.104 109.604V113.5H344.96V109.604L341.543 104.045ZM350.189 104.045H351.5L354.122 108.459H354.233L356.855 104.045H358.166L354.75 109.604V113.5H353.605V109.604L350.189 104.045ZM358.834 104.045H360.145L362.768 108.459H362.878L365.501 104.045H366.812L363.395 109.604V113.5H362.251V109.604L358.834 104.045Z" fill="#C8C8C8"/>
<path fill-rule="evenodd" clip-rule="evenodd" d="M564.666 99.8359C565.126 99.8359 565.499 100.209 565.499 100.669V101.503H570.499V100.669C570.499 100.209 570.872 99.8359 571.333 99.8359C571.793 99.8359 572.166 100.209 572.166 100.669V101.504C572.562 101.507 572.909 101.515 573.209 101.539C573.678 101.578 574.108 101.66 574.513 101.866C575.14 102.185 575.65 102.695 575.969 103.323C576.175 103.727 576.258 104.158 576.296 104.626C576.333 105.077 576.333 105.631 576.333 106.302V113.37C576.333 114.041 576.333 114.595 576.296 115.046C576.258 115.514 576.175 115.945 575.969 116.349C575.65 116.976 575.14 117.486 574.513 117.806C574.108 118.012 573.678 118.094 573.209 118.132C572.758 118.169 572.205 118.169 571.534 118.169H564.465C563.794 118.169 563.24 118.169 562.789 118.132C562.321 118.094 561.89 118.012 561.486 117.806C560.859 117.486 560.349 116.976 560.029 116.349C559.823 115.945 559.741 115.514 559.703 115.046C559.666 114.595 559.666 114.041 559.666 113.37V106.302C559.666 105.631 559.666 105.077 559.703 104.626C559.741 104.158 559.823 103.727 560.029 103.323C560.349 102.695 560.859 102.185 561.486 101.866C561.89 101.66 562.321 101.578 562.789 101.539C563.09 101.515 563.436 101.507 563.833 101.504V100.669C563.833 100.209 564.206 99.8359 564.666 99.8359ZM563.833 103.171C563.461 103.173 563.17 103.181 562.925 103.201C562.56 103.23 562.373 103.285 562.243 103.351C561.929 103.511 561.674 103.766 561.514 104.079C561.448 104.21 561.394 104.396 561.364 104.762C561.333 105.137 561.333 105.622 561.333 106.336V106.503H574.666V106.336C574.666 105.622 574.665 105.137 574.635 104.762C574.605 104.396 574.551 104.21 574.484 104.079C574.325 103.766 574.07 103.511 573.756 103.351C573.626 103.285 573.439 103.23 573.073 103.201C572.829 103.181 572.537 103.173 572.166 103.171V104.003C572.166 104.463 571.793 104.836 571.333 104.836C570.872 104.836 570.499 104.463 570.499 104.003V103.169H565.499V104.003C565.499 104.463 565.126 104.836 564.666 104.836C564.206 104.836 563.833 104.463 563.833 104.003V103.171ZM574.666 108.169H561.333V113.336C561.333 114.05 561.333 114.535 561.364 114.91C561.394 115.275 561.448 115.462 561.514 115.593C561.674 115.906 561.929 116.161 562.243 116.321C562.373 116.387 562.56 116.441 562.925 116.471C563.3 116.502 563.786 116.503 564.499 116.503H571.499C572.213 116.503 572.698 116.502 573.073 116.471C573.439 116.441 573.626 116.387 573.756 116.321C574.07 116.161 574.325 115.906 574.484 115.593C574.551 115.462 574.605 115.275 574.635 114.91C574.665 114.535 574.666 114.05 574.666 113.336V108.169Z" fill="#9E9E9E"/>
<rect x="270.5" y="91.5" width="319" height="35" rx="2.5" stroke="#EFEFEF"/>
</g>
<rect x="270.5" y="91.5" width="319" height="35" rx="2.5" fill="white"/>
<path d="M286.062 113.5H283.145V104.045H286.192C287.109 104.045 287.894 104.235 288.546 104.613C289.199 104.989 289.699 105.529 290.047 106.234C290.394 106.935 290.568 107.776 290.568 108.754C290.568 109.739 290.393 110.587 290.042 111.298C289.691 112.006 289.18 112.551 288.509 112.932C287.838 113.311 287.023 113.5 286.062 113.5ZM284.29 112.484H285.989C286.77 112.484 287.418 112.334 287.932 112.032C288.446 111.73 288.829 111.301 289.082 110.744C289.334 110.187 289.46 109.524 289.46 108.754C289.46 107.991 289.336 107.334 289.086 106.783C288.837 106.229 288.465 105.804 287.969 105.509C287.474 105.21 286.857 105.061 286.118 105.061H284.29V112.484ZM295.406 113.5H292.489V104.045H295.536C296.453 104.045 297.237 104.235 297.89 104.613C298.542 104.989 299.042 105.529 299.39 106.234C299.738 106.935 299.912 107.776 299.912 108.754C299.912 109.739 299.737 110.587 299.386 111.298C299.035 112.006 298.524 112.551 297.853 112.932C297.182 113.311 296.366 113.5 295.406 113.5ZM293.634 112.484H295.332C296.114 112.484 296.762 112.334 297.276 112.032C297.79 111.73 298.173 111.301 298.425 110.744C298.678 110.187 298.804 109.524 298.804 108.754C298.804 107.991 298.679 107.334 298.43 106.783C298.181 106.229 297.808 105.804 297.313 105.509C296.817 105.21 296.2 105.061 295.462 105.061H293.634V112.484ZM304.506 103.602L301.46 114.922H300.462L303.509 103.602H304.506ZM305.946 104.045H307.312L310.525 111.893H310.636L313.849 104.045H315.216V113.5H314.145V106.317H314.052L311.098 113.5H310.064L307.109 106.317H307.017V113.5H305.946V104.045ZM317.511 104.045H318.878L322.091 111.893H322.201L325.415 104.045H326.781V113.5H325.71V106.317H325.618L322.663 113.5H321.629L318.674 106.317H318.582V113.5H317.511V104.045ZM332.271 103.602L329.224 114.922H328.227L331.274 103.602H332.271ZM332.898 104.045H334.209L336.831 108.459H336.942L339.564 104.045H340.875L337.459 109.604V113.5H336.314V109.604L332.898 104.045ZM341.543 104.045H342.854L345.477 108.459H345.587L348.21 104.045H349.521L346.104 109.604V113.5H344.96V109.604L341.543 104.045ZM350.189 104.045H351.5L354.122 108.459H354.233L356.855 104.045H358.166L354.75 109.604V113.5H353.605V109.604L350.189 104.045ZM358.834 104.045H360.145L362.768 108.459H362.878L365.501 104.045H366.812L363.395 109.604V113.5H362.251V109.604L358.834 104.045Z" fill="#C8C8C8"/>
<path fill-rule="evenodd" clip-rule="evenodd" d="M564.666 99.8359C565.126 99.8359 565.499 100.209 565.499 100.669V101.503H570.499V100.669C570.499 100.209 570.872 99.8359 571.333 99.8359C571.793 99.8359 572.166 100.209 572.166 100.669V101.504C572.562 101.507 572.909 101.515 573.209 101.539C573.678 101.578 574.108 101.66 574.513 101.866C575.14 102.185 575.65 102.695 575.969 103.323C576.175 103.727 576.258 104.158 576.296 104.626C576.333 105.077 576.333 105.631 576.333 106.302V113.37C576.333 114.041 576.333 114.595 576.296 115.046C576.258 115.514 576.175 115.945 575.969 116.349C575.65 116.976 575.14 117.486 574.513 117.806C574.108 118.012 573.678 118.094 573.209 118.132C572.758 118.169 572.205 118.169 571.534 118.169H564.465C563.794 118.169 563.24 118.169 562.789 118.132C562.321 118.094 561.89 118.012 561.486 117.806C560.859 117.486 560.349 116.976 560.029 116.349C559.823 115.945 559.741 115.514 559.703 115.046C559.666 114.595 559.666 114.041 559.666 113.37V106.302C559.666 105.631 559.666 105.077 559.703 104.626C559.741 104.158 559.823 103.727 560.029 103.323C560.349 102.695 560.859 102.185 561.486 101.866C561.89 101.66 562.321 101.578 562.789 101.539C563.09 101.515 563.436 101.507 563.833 101.504V100.669C563.833 100.209 564.206 99.8359 564.666 99.8359ZM563.833 103.171C563.461 103.173 563.17 103.181 562.925 103.201C562.56 103.23 562.373 103.285 562.243 103.351C561.929 103.511 561.674 103.766 561.514 104.079C561.448 104.21 561.394 104.396 561.364 104.762C561.333 105.137 561.333 105.622 561.333 106.336V106.503H574.666V106.336C574.666 105.622 574.665 105.137 574.635 104.762C574.605 104.396 574.551 104.21 574.484 104.079C574.325 103.766 574.07 103.511 573.756 103.351C573.626 103.285 573.439 103.23 573.073 103.201C572.829 103.181 572.537 103.173 572.166 103.171V104.003C572.166 104.463 571.793 104.836 571.333 104.836C570.872 104.836 570.499 104.463 570.499 104.003V103.169H565.499V104.003C565.499 104.463 565.126 104.836 564.666 104.836C564.206 104.836 563.833 104.463 563.833 104.003V103.171ZM574.666 108.169H561.333V113.336C561.333 114.05 561.333 114.535 561.364 114.91C561.394 115.275 561.448 115.462 561.514 115.593C561.674 115.906 561.929 116.161 562.243 116.321C562.373 116.387 562.56 116.441 562.925 116.471C563.3 116.502 563.786 116.503 564.499 116.503H571.499C572.213 116.503 572.698 116.502 573.073 116.471C573.439 116.441 573.626 116.387 573.756 116.321C574.07 116.161 574.325 115.906 574.484 115.593C574.551 115.462 574.605 115.275 574.635 114.91C574.665 114.535 574.666 114.05 574.666 113.336V108.169Z" fill="#9E9E9E"/>
<rect x="270.5" y="91.5" width="319" height="35" rx="2.5" stroke="#EFEFEF"/>
<rect x="269.5" y="90.5" width="321" height="37" stroke="#0D69D4"/>
<g clip-path="url(#clip0_915_38076)">
<mask maskUnits="userSpaceOnUse" x="0" y="0" width="0" height="0" fill="black">
<rect fill="white" width="0" height="0"/>
</mask>
<path d="M214.293 42.2929C213.902 42.6834 213.902 43.3166 214.293 43.7071L220.657 50.0711C221.047 50.4616 221.681 50.4616 222.071 50.0711C222.462 49.6805 222.462 49.0474 222.071 48.6569L216.414 43L222.071 37.3431C222.462 36.9526 222.462 36.3195 222.071 35.9289C221.681 35.5384 221.047 35.5384 220.657 35.9289L214.293 42.2929ZM245.707 43.7071C246.098 43.3166 246.098 42.6834 245.707 42.2929L239.343 35.9289C238.953 35.5384 238.319 35.5384 237.929 35.9289C237.538 36.3195 237.538 36.9526 237.929 37.3431L243.586 43L237.929 48.6569C237.538 49.0474 237.538 49.6805 237.929 50.0711C238.319 50.4616 238.953 50.4616 239.343 50.0711L245.707 43.7071ZM215 44H245V42H215V44Z" fill="#6B6B6B" mask="url(#)"/>
</g>
<path fill-rule="evenodd" clip-rule="evenodd" d="M214 35L214 36L214 40.024L214 41.024L214 45.0185L214 46.0185L214 50.014L214 51.014H215H218.989H219.989H224.011H225.011H229H230V50.014V46.0185V45.0185V41.024V40.024V36V35H229H225.011H224.011H219.989H218.989H215H214ZM215 36V40.024H218.989V36H215ZM215 41.024V45.0185H218.989V41.024H215ZM215 46.0185V50.014H218.989V46.0185H215ZM229 46.0185V50.014H225.011V46.0185H229ZM229 41.024V45.0185H225.011V41.024H229ZM229 36V40.024H225.011V36H229ZM224.011 36H219.989V39.9915H224.011V36ZM224.011 46.0225H219.989V50.014H224.011V46.0225Z" fill="#6B6B6B"/>
<g clip-path="url(#clip1_915_38076)">
<line x1="222.25" y1="91.75" x2="222.25" y2="126.25" stroke="#0D69D4" stroke-width="1.5" stroke-linecap="square"/>
<line x1="227.25" y1="91.75" x2="216.75" y2="91.75" stroke="#0D69D4" stroke-width="1.5" stroke-linecap="round"/>
<line x1="216.75" y1="126.25" x2="227.25" y2="126.25" stroke="#0D69D4" stroke-width="1.5" stroke-linecap="round"/>
</g>
<mask maskUnits="userSpaceOnUse" x="0" y="0" width="0" height="0" fill="black">
<rect fill="white" width="0" height="0"/>
</mask>
<path d="M270.22 42.2197C269.927 42.5126 269.927 42.9874 270.22 43.2803L274.993 48.0533C275.286 48.3462 275.76 48.3462 276.053 48.0533C276.346 47.7604 276.346 47.2855 276.053 46.9926L271.811 42.75L276.053 38.5074C276.346 38.2145 276.346 37.7396 276.053 37.4467C275.76 37.1538 275.286 37.1538 274.993 37.4467L270.22 42.2197ZM589.78 43.2803C590.073 42.9874 590.073 42.5126 589.78 42.2197L585.007 37.4467C584.714 37.1538 584.24 37.1538 583.947 37.4467C583.654 37.7396 583.654 38.2145 583.947 38.5074L588.189 42.75L583.947 46.9926C583.654 47.2855 583.654 47.7604 583.947 48.0533C584.24 48.3462 584.714 48.3462 585.007 48.0533L589.78 43.2803ZM270.75 43.5H589.25V42H270.75V43.5Z" fill="#0D69D4" mask="url(#)"/>
<rect x="550" y="91" width="8" height="36" fill="#C54600" fill-opacity="0.3"/>
<line x1="550.5" y1="75" x2="550.5" y2="127" stroke="#C54600"/>
<line x1="557.5" y1="75" x2="557.5" y2="127" stroke="#C54600"/>
<path d="M553.963 71.1193C553.307 71.1193 552.723 71.0128 552.212 70.7997C551.703 70.5838 551.304 70.2898 551.014 69.9176C550.724 69.5455 550.58 69.1236 550.58 68.652C550.58 68.2884 550.662 67.9545 550.827 67.6506C550.994 67.3438 551.222 67.0895 551.509 66.8878C551.795 66.6832 552.116 66.5526 552.472 66.4957V66.4361C552.006 66.3423 551.628 66.1165 551.338 65.7585C551.048 65.3977 550.903 64.9787 550.903 64.5014C550.903 64.0497 551.036 63.6477 551.3 63.2955C551.564 62.9403 551.926 62.6619 552.386 62.4602C552.849 62.2557 553.375 62.1534 553.963 62.1534C554.551 62.1534 555.075 62.2557 555.536 62.4602C555.999 62.6648 556.362 62.9446 556.626 63.2997C556.891 63.652 557.024 64.0526 557.027 64.5014C557.024 64.9815 556.876 65.4006 556.584 65.7585C556.291 66.1165 555.916 66.3423 555.459 66.4361V66.4957C555.808 66.5526 556.125 66.6832 556.409 66.8878C556.696 67.0895 556.923 67.3438 557.091 67.6506C557.261 67.9545 557.348 68.2884 557.351 68.652C557.348 69.1236 557.202 69.5455 556.912 69.9176C556.622 70.2898 556.222 70.5838 555.71 70.7997C555.202 71.0128 554.619 71.1193 553.963 71.1193ZM553.963 69.7642C554.256 69.7642 554.511 69.7116 554.73 69.6065C554.949 69.4986 555.119 69.3509 555.241 69.1634C555.366 68.973 555.429 68.7543 555.429 68.5071C555.429 68.2543 555.365 68.0312 555.237 67.8381C555.109 67.642 554.936 67.4886 554.717 67.3778C554.499 67.2642 554.247 67.2074 553.963 67.2074C553.682 67.2074 553.43 67.2642 553.209 67.3778C552.987 67.4886 552.813 67.642 552.685 67.8381C552.56 68.0312 552.497 68.2543 552.497 68.5071C552.497 68.7543 552.558 68.973 552.68 69.1634C552.803 69.3509 552.974 69.4986 553.196 69.6065C553.418 69.7116 553.673 69.7642 553.963 69.7642ZM553.963 65.8651C554.207 65.8651 554.425 65.8153 554.615 65.7159C554.805 65.6165 554.955 65.4787 555.062 65.3026C555.17 65.1264 555.224 64.9233 555.224 64.6932C555.224 64.4659 555.17 64.267 555.062 64.0966C554.955 63.9233 554.807 63.7884 554.619 63.6918C554.432 63.5923 554.213 63.5426 553.963 63.5426C553.716 63.5426 553.497 63.5923 553.307 63.6918C553.116 63.7884 552.967 63.9233 552.859 64.0966C552.754 64.267 552.702 64.4659 552.702 64.6932C552.702 64.9233 552.756 65.1264 552.864 65.3026C552.972 65.4787 553.121 65.6165 553.311 65.7159C553.501 65.8153 553.719 65.8651 553.963 65.8651Z" fill="#C54600"/>
<mask maskUnits="userSpaceOnUse" x="0" y="0" width="0" height="0" fill="black">
<rect fill="white" width="0" height="0"/>
</mask>
<path d="M282.146 82.1464C281.951 82.3417 281.951 82.6583 282.146 82.8536L285.328 86.0355C285.524 86.2308 285.84 86.2308 286.036 86.0355C286.231 85.8403 286.231 85.5237 286.036 85.3284L283.207 82.5L286.036 79.6716C286.231 79.4763 286.231 79.1597 286.036 78.9645C285.84 78.7692 285.524 78.7692 285.328 78.9645L282.146 82.1464ZM549.854 82.8536C550.049 82.6583 550.049 82.3417 549.854 82.1464L546.672 78.9645C546.476 78.7692 546.16 78.7692 545.964 78.9645C545.769 79.1597 545.769 79.4763 545.964 79.6716L548.793 82.5L545.964 85.3284C545.769 85.5237 545.769 85.8403 545.964 86.0355C546.16 86.2308 546.476 86.2308 546.672 86.0355L549.854 82.8536ZM282.5 83H549.5V82H282.5V83Z" fill="#0D69D4" mask="url(#)"/>
<rect x="282" y="100.5" width="268" height="17" fill="#0D69D4" fill-opacity="0.2"/>
<rect x="558" y="99" width="20" height="20" fill="#0D69D4" fill-opacity="0.2"/>
<rect x="270" y="91" width="12" height="36" fill="#007D00" fill-opacity="0.3"/>
<line x1="270.5" y1="75" x2="270.5" y2="127" stroke="#007D00"/>
<line x1="281.5" y1="75" x2="281.5" y2="127" stroke="#007D00"/>
<path d="M273.504 62.2727V71H271.659V64.0241H271.608L269.609 65.277V63.6406L271.77 62.2727H273.504ZM275.578 71V69.6705L278.685 66.794C278.949 66.5384 279.171 66.3082 279.35 66.1037C279.532 65.8991 279.669 65.6989 279.763 65.5028C279.857 65.304 279.904 65.0895 279.904 64.8594C279.904 64.6037 279.846 64.3835 279.729 64.1989C279.613 64.0114 279.453 63.8679 279.252 63.7685C279.05 63.6662 278.821 63.6151 278.566 63.6151C278.299 63.6151 278.066 63.669 277.867 63.777C277.668 63.8849 277.515 64.0398 277.407 64.2415C277.299 64.4432 277.245 64.6832 277.245 64.9616H275.493C275.493 64.3906 275.623 63.8949 275.881 63.4744C276.14 63.054 276.502 62.7287 276.968 62.4986C277.434 62.2685 277.971 62.1534 278.578 62.1534C279.203 62.1534 279.748 62.2642 280.211 62.4858C280.676 62.7045 281.039 63.0085 281.297 63.3977C281.556 63.7869 281.685 64.233 281.685 64.7358C281.685 65.0653 281.62 65.3906 281.489 65.7116C281.361 66.0327 281.132 66.3892 280.803 66.7812C280.473 67.1705 280.009 67.6378 279.409 68.1832L278.135 69.4318V69.4915H281.8V71H275.578Z" fill="#007D00"/>
<rect x="578" y="91" width="12" height="36" fill="#007D00" fill-opacity="0.3"/>
<line x1="578.5" y1="75" x2="578.5" y2="127" stroke="#007D00"/>
<line x1="589.5" y1="75" x2="589.5" y2="127" stroke="#007D00"/>
<path d="M581.504 62.2727V71H579.659V64.0241H579.608L577.609 65.277V63.6406L579.77 62.2727H581.504ZM583.578 71V69.6705L586.685 66.794C586.949 66.5384 587.171 66.3082 587.35 66.1037C587.532 65.8991 587.669 65.6989 587.763 65.5028C587.857 65.304 587.904 65.0895 587.904 64.8594C587.904 64.6037 587.846 64.3835 587.729 64.1989C587.613 64.0114 587.453 63.8679 587.252 63.7685C587.05 63.6662 586.821 63.6151 586.566 63.6151C586.299 63.6151 586.066 63.669 585.867 63.777C585.668 63.8849 585.515 64.0398 585.407 64.2415C585.299 64.4432 585.245 64.6832 585.245 64.9616H583.493C583.493 64.3906 583.623 63.8949 583.881 63.4744C584.14 63.054 584.502 62.7287 584.968 62.4986C585.434 62.2685 585.971 62.1534 586.578 62.1534C587.203 62.1534 587.748 62.2642 588.211 62.4858C588.676 62.7045 589.039 63.0085 589.297 63.3977C589.556 63.7869 589.685 64.233 589.685 64.7358C589.685 65.0653 589.62 65.3906 589.489 65.7116C589.361 66.0327 589.132 66.3892 588.803 66.7812C588.473 67.1705 588.009 67.6378 587.409 68.1832L586.135 69.4318V69.4915H589.8V71H583.578Z" fill="#007D00"/>
<defs>
<clipPath id="clip0_915_38076">
<rect width="16" height="16" fill="white" transform="translate(230 35)"/>
</clipPath>
<clipPath id="clip1_915_38076">
<rect width="36" height="16" fill="white" transform="matrix(0 1 -1 0 230 91)"/>
</clipPath>
</defs>
</svg>
