<svg width="804" height="382" viewBox="0 0 804 382" fill="none" xmlns="http://www.w3.org/2000/svg">
<rect width="804" height="382" fill="#F9FAFB"/>
<path d="M71.7841 75H68.9588V66.2727H71.8736C72.7287 66.2727 73.4631 66.4474 74.0767 66.7969C74.6903 67.1435 75.1605 67.642 75.4872 68.2926C75.8168 68.9403 75.9815 69.7173 75.9815 70.6236C75.9815 71.5327 75.8153 72.3139 75.483 72.9673C75.1534 73.6207 74.6761 74.1236 74.0511 74.4759C73.4261 74.8253 72.6705 75 71.7841 75ZM70.2756 73.8494H71.7116C72.3764 73.8494 72.929 73.7244 73.3693 73.4744C73.8097 73.2216 74.1392 72.8565 74.358 72.3793C74.5767 71.8991 74.6861 71.3139 74.6861 70.6236C74.6861 69.9389 74.5767 69.358 74.358 68.8807C74.142 68.4034 73.8196 68.0412 73.3906 67.794C72.9616 67.5469 72.429 67.4233 71.7926 67.4233H70.2756V73.8494ZM79.4215 75.1449C79.0067 75.1449 78.6317 75.0682 78.2965 74.9148C77.9613 74.7585 77.6957 74.5327 77.4996 74.2372C77.3065 73.9418 77.2099 73.5795 77.2099 73.1506C77.2099 72.7812 77.2809 72.4773 77.4229 72.2386C77.565 72 77.7567 71.8111 77.9982 71.6719C78.2397 71.5327 78.5096 71.4276 78.8079 71.3565C79.1062 71.2855 79.4102 71.2315 79.7198 71.1946C80.1119 71.1491 80.43 71.1122 80.6744 71.0838C80.9187 71.0526 81.0962 71.0028 81.207 70.9347C81.3178 70.8665 81.3732 70.7557 81.3732 70.6023V70.5724C81.3732 70.2003 81.2681 69.9119 81.0579 69.7074C80.8505 69.5028 80.5408 69.4006 80.1289 69.4006C79.6999 69.4006 79.3619 69.4957 79.1147 69.6861C78.8704 69.8736 78.7013 70.0824 78.6076 70.3125L77.4102 70.0398C77.5522 69.642 77.7596 69.321 78.0323 69.0767C78.3079 68.8295 78.6246 68.6506 78.9826 68.5398C79.3406 68.4261 79.717 68.3693 80.1119 68.3693C80.3732 68.3693 80.6502 68.4006 80.9428 68.4631C81.2383 68.5227 81.5138 68.6335 81.7695 68.7955C82.0281 68.9574 82.2397 69.1889 82.4045 69.4901C82.5692 69.7884 82.6516 70.1761 82.6516 70.6534V75H81.4073V74.1051H81.3562C81.2738 74.2699 81.1502 74.4318 80.9854 74.5909C80.8207 74.75 80.609 74.8821 80.3505 74.9872C80.092 75.0923 79.7823 75.1449 79.4215 75.1449ZM79.6985 74.1222C80.0508 74.1222 80.3519 74.0526 80.6019 73.9134C80.8548 73.7741 81.0465 73.5923 81.1772 73.3679C81.3107 73.1406 81.3775 72.8977 81.3775 72.6392V71.7955C81.332 71.8409 81.244 71.8835 81.1133 71.9233C80.9854 71.9602 80.8391 71.9929 80.6744 72.0213C80.5096 72.0469 80.3491 72.071 80.1928 72.0938C80.0366 72.1136 79.9059 72.1307 79.8008 72.1449C79.5536 72.1761 79.3278 72.2287 79.1232 72.3026C78.9215 72.3764 78.7596 72.483 78.6374 72.6222C78.5181 72.7585 78.4585 72.9403 78.4585 73.1676C78.4585 73.483 78.5749 73.7216 78.8079 73.8835C79.0408 74.0426 79.3377 74.1222 79.6985 74.1222ZM87.4041 68.4545V69.4773H83.8288V68.4545H87.4041ZM84.7876 66.8864H86.0618V73.0781C86.0618 73.3253 86.0987 73.5114 86.1726 73.6364C86.2464 73.7585 86.3416 73.8423 86.4581 73.8878C86.5774 73.9304 86.7067 73.9517 86.8459 73.9517C86.9482 73.9517 87.0376 73.9446 87.1143 73.9304C87.1911 73.9162 87.2507 73.9048 87.2933 73.8963L87.5234 74.9489C87.4496 74.9773 87.3445 75.0057 87.2081 75.0341C87.0717 75.0653 86.9013 75.0824 86.6967 75.0852C86.3615 75.0909 86.049 75.0312 85.7592 74.9062C85.4695 74.7812 85.2351 74.5881 85.0561 74.3267C84.8771 74.0653 84.7876 73.7372 84.7876 73.3423V66.8864ZM91.5643 75.1321C90.9194 75.1321 90.364 74.9943 89.8981 74.7188C89.435 74.4403 89.0771 74.0497 88.8242 73.5469C88.5742 73.0412 88.4492 72.4489 88.4492 71.7699C88.4492 71.0994 88.5742 70.5085 88.8242 69.9972C89.0771 69.4858 89.4293 69.0866 89.881 68.7997C90.3356 68.5128 90.8668 68.3693 91.4748 68.3693C91.8441 68.3693 92.2021 68.4304 92.5487 68.5526C92.8952 68.6747 93.2063 68.8665 93.4819 69.1278C93.7575 69.3892 93.9748 69.7287 94.1339 70.1463C94.293 70.5611 94.3725 71.0653 94.3725 71.6591V72.1108H89.1694V71.1562H93.1239C93.1239 70.821 93.0558 70.5241 92.9194 70.2656C92.783 70.0043 92.5913 69.7983 92.3441 69.6477C92.0998 69.4972 91.8129 69.4219 91.4833 69.4219C91.1254 69.4219 90.8129 69.5099 90.5458 69.6861C90.2816 69.8594 90.0771 70.0866 89.9322 70.3679C89.7901 70.6463 89.7191 70.9489 89.7191 71.2756V72.0213C89.7191 72.4588 89.7958 72.831 89.9492 73.1378C90.1055 73.4446 90.3228 73.679 90.6012 73.8409C90.8796 74 91.2049 74.0795 91.5771 74.0795C91.8185 74.0795 92.0387 74.0455 92.2376 73.9773C92.4364 73.9062 92.6083 73.8011 92.7532 73.6619C92.8981 73.5227 93.0089 73.3509 93.0856 73.1463L94.2915 73.3636C94.195 73.7187 94.0217 74.0298 93.7717 74.2969C93.5245 74.5611 93.2134 74.767 92.8384 74.9148C92.4663 75.0597 92.0415 75.1321 91.5643 75.1321ZM100.867 75.1449C100.452 75.1449 100.077 75.0682 99.7418 74.9148C99.4066 74.7585 99.141 74.5327 98.945 74.2372C98.7518 73.9418 98.6552 73.5795 98.6552 73.1506C98.6552 72.7812 98.7262 72.4773 98.8683 72.2386C99.0103 72 99.2021 71.8111 99.4435 71.6719C99.685 71.5327 99.9549 71.4276 100.253 71.3565C100.551 71.2855 100.855 71.2315 101.165 71.1946C101.557 71.1491 101.875 71.1122 102.12 71.0838C102.364 71.0526 102.542 71.0028 102.652 70.9347C102.763 70.8665 102.819 70.7557 102.819 70.6023V70.5724C102.819 70.2003 102.713 69.9119 102.503 69.7074C102.296 69.5028 101.986 69.4006 101.574 69.4006C101.145 69.4006 100.807 69.4957 100.56 69.6861C100.316 69.8736 100.147 70.0824 100.053 70.3125L98.8555 70.0398C98.9975 69.642 99.2049 69.321 99.4776 69.0767C99.7532 68.8295 100.07 68.6506 100.428 68.5398C100.786 68.4261 101.162 68.3693 101.557 68.3693C101.819 68.3693 102.096 68.4006 102.388 68.4631C102.684 68.5227 102.959 68.6335 103.215 68.7955C103.473 68.9574 103.685 69.1889 103.85 69.4901C104.015 69.7884 104.097 70.1761 104.097 70.6534V75H102.853V74.1051H102.801C102.719 74.2699 102.596 74.4318 102.431 74.5909C102.266 74.75 102.054 74.8821 101.796 74.9872C101.537 75.0923 101.228 75.1449 100.867 75.1449ZM101.144 74.1222C101.496 74.1222 101.797 74.0526 102.047 73.9134C102.3 73.7741 102.492 73.5923 102.623 73.3679C102.756 73.1406 102.823 72.8977 102.823 72.6392V71.7955C102.777 71.8409 102.689 71.8835 102.559 71.9233C102.431 71.9602 102.284 71.9929 102.12 72.0213C101.955 72.0469 101.794 72.071 101.638 72.0938C101.482 72.1136 101.351 72.1307 101.246 72.1449C100.999 72.1761 100.773 72.2287 100.569 72.3026C100.367 72.3764 100.205 72.483 100.083 72.6222C99.9634 72.7585 99.9038 72.9403 99.9038 73.1676C99.9038 73.483 100.02 73.7216 100.253 73.8835C100.486 74.0426 100.783 74.1222 101.144 74.1222ZM107.068 71.1136V75H105.794V68.4545H107.017V69.5199H107.098C107.249 69.1733 107.484 68.8949 107.805 68.6847C108.129 68.4744 108.537 68.3693 109.028 68.3693C109.474 68.3693 109.865 68.4631 110.2 68.6506C110.536 68.8352 110.795 69.1108 110.98 69.4773C111.165 69.8437 111.257 70.2969 111.257 70.8366V75H109.983V70.9901C109.983 70.5156 109.859 70.1449 109.612 69.8778C109.365 69.608 109.026 69.473 108.594 69.473C108.298 69.473 108.036 69.5369 107.805 69.6648C107.578 69.7926 107.398 69.9801 107.264 70.2273C107.134 70.4716 107.068 70.767 107.068 71.1136ZM115.416 75.1278C114.888 75.1278 114.416 74.9929 114.001 74.723C113.589 74.4503 113.266 74.0625 113.03 73.5597C112.797 73.054 112.68 72.4474 112.68 71.7401C112.68 71.0327 112.798 70.4276 113.034 69.9247C113.273 69.4219 113.599 69.0369 114.014 68.7699C114.429 68.5028 114.899 68.3693 115.425 68.3693C115.831 68.3693 116.158 68.4375 116.405 68.5739C116.655 68.7074 116.848 68.8636 116.984 69.0426C117.124 69.2216 117.232 69.3793 117.308 69.5156H117.385V66.2727H118.659V75H117.415V73.9815H117.308C117.232 74.1207 117.121 74.2798 116.976 74.4588C116.834 74.6378 116.638 74.794 116.388 74.9276C116.138 75.0611 115.814 75.1278 115.416 75.1278ZM115.697 74.0412C116.064 74.0412 116.374 73.9446 116.626 73.7514C116.882 73.5554 117.075 73.2841 117.206 72.9375C117.339 72.5909 117.406 72.1875 117.406 71.7273C117.406 71.2727 117.341 70.875 117.21 70.5341C117.08 70.1932 116.888 69.9276 116.635 69.7372C116.382 69.5469 116.07 69.4517 115.697 69.4517C115.314 69.4517 114.994 69.5511 114.739 69.75C114.483 69.9489 114.29 70.2202 114.159 70.5639C114.031 70.9077 113.967 71.2955 113.967 71.7273C113.967 72.1648 114.033 72.5582 114.163 72.9077C114.294 73.2571 114.487 73.5341 114.743 73.7386C115.001 73.9403 115.32 74.0412 115.697 74.0412ZM123.325 67.4062V66.2727H130.08V67.4062H127.357V75H126.044V67.4062H123.325ZM131.47 75V68.4545H132.744V75H131.47ZM132.113 67.4446C131.892 67.4446 131.701 67.3707 131.542 67.223C131.386 67.0724 131.308 66.8935 131.308 66.6861C131.308 66.4759 131.386 66.2969 131.542 66.1491C131.701 65.9986 131.892 65.9233 132.113 65.9233C132.335 65.9233 132.524 65.9986 132.68 66.1491C132.839 66.2969 132.919 66.4759 132.919 66.6861C132.919 66.8935 132.839 67.0724 132.68 67.223C132.524 67.3707 132.335 67.4446 132.113 67.4446ZM134.458 75V68.4545H135.681V69.5199H135.762C135.898 69.1591 136.121 68.8778 136.431 68.6761C136.741 68.4716 137.112 68.3693 137.543 68.3693C137.981 68.3693 138.347 68.4716 138.643 68.6761C138.941 68.8807 139.161 69.1619 139.303 69.5199H139.371C139.528 69.1705 139.776 68.892 140.117 68.6847C140.458 68.4744 140.864 68.3693 141.336 68.3693C141.93 68.3693 142.414 68.5554 142.789 68.9276C143.167 69.2997 143.356 69.8608 143.356 70.6108V75H142.082V70.7301C142.082 70.2869 141.961 69.9659 141.719 69.767C141.478 69.5682 141.19 69.4688 140.854 69.4688C140.44 69.4688 140.117 69.5966 139.887 69.8523C139.657 70.1051 139.542 70.4304 139.542 70.8281V75H138.272V70.6491C138.272 70.294 138.161 70.0085 137.94 69.7926C137.718 69.5767 137.43 69.4688 137.075 69.4688C136.833 69.4688 136.61 69.5327 136.406 69.6605C136.204 69.7855 136.04 69.9602 135.915 70.1847C135.793 70.4091 135.732 70.669 135.732 70.9645V75H134.458ZM147.885 75.1321C147.24 75.1321 146.684 74.9943 146.218 74.7188C145.755 74.4403 145.397 74.0497 145.145 73.5469C144.895 73.0412 144.77 72.4489 144.77 71.7699C144.77 71.0994 144.895 70.5085 145.145 69.9972C145.397 69.4858 145.75 69.0866 146.201 68.7997C146.656 68.5128 147.187 68.3693 147.795 68.3693C148.164 68.3693 148.522 68.4304 148.869 68.5526C149.216 68.6747 149.527 68.8665 149.802 69.1278C150.078 69.3892 150.295 69.7287 150.454 70.1463C150.613 70.5611 150.693 71.0653 150.693 71.6591V72.1108H145.49V71.1562H149.444C149.444 70.821 149.376 70.5241 149.24 70.2656C149.103 70.0043 148.912 69.7983 148.664 69.6477C148.42 69.4972 148.133 69.4219 147.804 69.4219C147.446 69.4219 147.133 69.5099 146.866 69.6861C146.602 69.8594 146.397 70.0866 146.252 70.3679C146.11 70.6463 146.039 70.9489 146.039 71.2756V72.0213C146.039 72.4588 146.116 72.831 146.27 73.1378C146.426 73.4446 146.643 73.679 146.922 73.8409C147.2 74 147.525 74.0795 147.897 74.0795C148.139 74.0795 148.359 74.0455 148.558 73.9773C148.757 73.9062 148.929 73.8011 149.074 73.6619C149.218 73.5227 149.329 73.3509 149.406 73.1463L150.612 73.3636C150.515 73.7187 150.342 74.0298 150.092 74.2969C149.845 74.5611 149.534 74.767 149.159 74.9148C148.787 75.0597 148.362 75.1321 147.885 75.1321Z" fill="#707070"/>
<rect x="68.5" y="82.5" width="319" height="35" rx="2.5" fill="white"/>
<path d="M84.0625 104.5H81.1449V95.0455H84.1918C85.1089 95.0455 85.8937 95.2347 86.5462 95.6133C87.1986 95.9888 87.6987 96.5289 88.0465 97.2337C88.3943 97.9354 88.5682 98.7756 88.5682 99.7543C88.5682 100.739 88.3928 101.587 88.0419 102.298C87.6911 103.006 87.1802 103.551 86.5092 103.932C85.8383 104.311 85.0227 104.5 84.0625 104.5ZM82.2898 103.484H83.9886C84.7704 103.484 85.4182 103.334 85.9322 103.032C86.4461 102.73 86.8293 102.301 87.0817 101.744C87.334 101.187 87.4602 100.524 87.4602 99.7543C87.4602 98.991 87.3356 98.3339 87.0863 97.783C86.837 97.229 86.4646 96.8043 85.9691 96.5089C85.4736 96.2103 84.8565 96.0611 84.1179 96.0611H82.2898V103.484ZM93.4062 104.5H90.4886V95.0455H93.5355C94.4527 95.0455 95.2375 95.2347 95.8899 95.6133C96.5424 95.9888 97.0425 96.5289 97.3903 97.2337C97.738 97.9354 97.9119 98.7756 97.9119 99.7543C97.9119 100.739 97.7365 101.587 97.3857 102.298C97.0348 103.006 96.5239 103.551 95.853 103.932C95.1821 104.311 94.3665 104.5 93.4062 104.5ZM91.6335 103.484H93.3324C94.1141 103.484 94.762 103.334 95.2759 103.032C95.7899 102.73 96.1731 102.301 96.4254 101.744C96.6778 101.187 96.804 100.524 96.804 99.7543C96.804 98.991 96.6793 98.3339 96.43 97.783C96.1808 97.229 95.8084 96.8043 95.3129 96.5089C94.8174 96.2103 94.2003 96.0611 93.4616 96.0611H91.6335V103.484ZM102.506 94.6023L99.4596 105.922H98.4624L101.509 94.6023H102.506ZM103.946 95.0455H105.312L108.525 102.893H108.636L111.849 95.0455H113.216V104.5H112.145V97.3168H112.052L109.098 104.5H108.064L105.109 97.3168H105.017V104.5H103.946V95.0455ZM115.511 95.0455H116.878L120.091 102.893H120.201L123.415 95.0455H124.781V104.5H123.71V97.3168H123.618L120.663 104.5H119.629L116.674 97.3168H116.582V104.5H115.511V95.0455ZM130.271 94.6023L127.224 105.922H126.227L129.274 94.6023H130.271ZM130.898 95.0455H132.209L134.831 99.4588H134.942L137.564 95.0455H138.875L135.459 100.604V104.5H134.314V100.604L130.898 95.0455ZM139.543 95.0455H140.854L143.477 99.4588H143.587L146.21 95.0455H147.521L144.104 100.604V104.5H142.96V100.604L139.543 95.0455ZM148.189 95.0455H149.5L152.122 99.4588H152.233L154.855 95.0455H156.166L152.75 100.604V104.5H151.605V100.604L148.189 95.0455ZM156.834 95.0455H158.145L160.768 99.4588H160.878L163.501 95.0455H164.812L161.395 100.604V104.5H160.251V100.604L156.834 95.0455Z" fill="#C8C8C8"/>
<path d="M186.863 104.629C186.168 104.629 185.575 104.44 185.086 104.061C184.597 103.68 184.223 103.127 183.964 102.404C183.706 101.678 183.576 100.801 183.576 99.7727C183.576 98.7509 183.706 97.8784 183.964 97.1552C184.226 96.4289 184.601 95.8749 185.091 95.4933C185.583 95.1085 186.174 94.9162 186.863 94.9162C187.553 94.9162 188.142 95.1085 188.631 95.4933C189.124 95.8749 189.499 96.4289 189.758 97.1552C190.019 97.8784 190.15 98.7509 190.15 99.7727C190.15 100.801 190.021 101.678 189.762 102.404C189.504 103.127 189.13 103.68 188.641 104.061C188.151 104.44 187.559 104.629 186.863 104.629ZM186.863 103.614C187.553 103.614 188.088 103.281 188.47 102.616C188.851 101.952 189.042 101.004 189.042 99.7727C189.042 98.9541 188.955 98.257 188.779 97.6815C188.607 97.1059 188.357 96.6674 188.031 96.3658C187.708 96.0642 187.319 95.9134 186.863 95.9134C186.18 95.9134 185.646 96.2504 185.261 96.9244C184.877 97.5953 184.684 98.5447 184.684 99.7727C184.684 100.591 184.77 101.287 184.943 101.859C185.115 102.432 185.363 102.867 185.686 103.166C186.012 103.464 186.405 103.614 186.863 103.614ZM194.988 104.629C194.293 104.629 193.7 104.44 193.211 104.061C192.722 103.68 192.348 103.127 192.089 102.404C191.831 101.678 191.701 100.801 191.701 99.7727C191.701 98.7509 191.831 97.8784 192.089 97.1552C192.351 96.4289 192.726 95.8749 193.216 95.4933C193.708 95.1085 194.299 94.9162 194.988 94.9162C195.678 94.9162 196.267 95.1085 196.756 95.4933C197.249 95.8749 197.624 96.4289 197.883 97.1552C198.144 97.8784 198.275 98.7509 198.275 99.7727C198.275 100.801 198.146 101.678 197.887 102.404C197.629 103.127 197.255 103.68 196.766 104.061C196.276 104.44 195.684 104.629 194.988 104.629ZM194.988 103.614C195.678 103.614 196.213 103.281 196.595 102.616C196.976 101.952 197.167 101.004 197.167 99.7727C197.167 98.9541 197.08 98.257 196.904 97.6815C196.732 97.1059 196.482 96.6674 196.156 96.3658C195.833 96.0642 195.444 95.9134 194.988 95.9134C194.305 95.9134 193.771 96.2504 193.386 96.9244C193.002 97.5953 192.809 98.5447 192.809 99.7727C192.809 100.591 192.895 101.287 193.068 101.859C193.24 102.432 193.488 102.867 193.811 103.166C194.137 103.464 194.53 103.614 194.988 103.614ZM200.842 103.29C200.614 103.29 200.419 103.209 200.256 103.046C200.093 102.883 200.011 102.687 200.011 102.46C200.011 102.232 200.093 102.036 200.256 101.873C200.419 101.71 200.614 101.629 200.842 101.629C201.07 101.629 201.265 101.71 201.428 101.873C201.591 102.036 201.673 102.232 201.673 102.46C201.673 102.61 201.634 102.749 201.558 102.875C201.484 103.001 201.384 103.103 201.257 103.18C201.134 103.254 200.996 103.29 200.842 103.29ZM200.842 98.5078C200.614 98.5078 200.419 98.4263 200.256 98.2631C200.093 98.1 200.011 97.9046 200.011 97.6768C200.011 97.4491 200.093 97.2537 200.256 97.0906C200.419 96.9274 200.614 96.8459 200.842 96.8459C201.07 96.8459 201.265 96.9274 201.428 97.0906C201.591 97.2537 201.673 97.4491 201.673 97.6768C201.673 97.8277 201.634 97.9661 201.558 98.0923C201.484 98.2185 201.384 98.3201 201.257 98.397C201.134 98.4709 200.996 98.5078 200.842 98.5078ZM206.693 104.629C205.998 104.629 205.405 104.44 204.916 104.061C204.427 103.68 204.053 103.127 203.794 102.404C203.536 101.678 203.406 100.801 203.406 99.7727C203.406 98.7509 203.536 97.8784 203.794 97.1552C204.056 96.4289 204.431 95.8749 204.921 95.4933C205.413 95.1085 206.004 94.9162 206.693 94.9162C207.383 94.9162 207.972 95.1085 208.461 95.4933C208.954 95.8749 209.329 96.4289 209.588 97.1552C209.849 97.8784 209.98 98.7509 209.98 99.7727C209.98 100.801 209.851 101.678 209.593 102.404C209.334 103.127 208.96 103.68 208.471 104.061C207.981 104.44 207.389 104.629 206.693 104.629ZM206.693 103.614C207.383 103.614 207.918 103.281 208.3 102.616C208.682 101.952 208.872 101.004 208.872 99.7727C208.872 98.9541 208.785 98.257 208.609 97.6815C208.437 97.1059 208.188 96.6674 207.861 96.3658C207.538 96.0642 207.149 95.9134 206.693 95.9134C206.01 95.9134 205.476 96.2504 205.091 96.9244C204.707 97.5953 204.514 98.5447 204.514 99.7727C204.514 100.591 204.601 101.287 204.773 101.859C204.945 102.432 205.193 102.867 205.516 103.166C205.842 103.464 206.235 103.614 206.693 103.614ZM214.818 104.629C214.123 104.629 213.53 104.44 213.041 104.061C212.552 103.68 212.178 103.127 211.919 102.404C211.661 101.678 211.531 100.801 211.531 99.7727C211.531 98.7509 211.661 97.8784 211.919 97.1552C212.181 96.4289 212.556 95.8749 213.046 95.4933C213.538 95.1085 214.129 94.9162 214.818 94.9162C215.508 94.9162 216.097 95.1085 216.586 95.4933C217.079 95.8749 217.454 96.4289 217.713 97.1552C217.974 97.8784 218.105 98.7509 218.105 99.7727C218.105 100.801 217.976 101.678 217.718 102.404C217.459 103.127 217.085 103.68 216.596 104.061C216.106 104.44 215.514 104.629 214.818 104.629ZM214.818 103.614C215.508 103.614 216.043 103.281 216.425 102.616C216.807 101.952 216.997 101.004 216.997 99.7727C216.997 98.9541 216.91 98.257 216.734 97.6815C216.562 97.1059 216.313 96.6674 215.986 96.3658C215.663 96.0642 215.274 95.9134 214.818 95.9134C214.135 95.9134 213.601 96.2504 213.216 96.9244C212.832 97.5953 212.639 98.5447 212.639 99.7727C212.639 100.591 212.726 101.287 212.898 101.859C213.07 102.432 213.318 102.867 213.641 103.166C213.967 103.464 214.36 103.614 214.818 103.614Z" fill="#C8C8C8"/>
<path fill-rule="evenodd" clip-rule="evenodd" d="M330.666 90.8359C331.126 90.8359 331.499 91.209 331.499 91.6693V92.5026H336.499V91.6693C336.499 91.209 336.872 90.8359 337.333 90.8359C337.793 90.8359 338.166 91.209 338.166 91.6693V92.504C338.562 92.5067 338.909 92.5149 339.209 92.5394C339.678 92.5777 340.108 92.6598 340.513 92.8659C341.14 93.1855 341.65 93.6954 341.969 94.3226C342.175 94.7271 342.258 95.1577 342.296 95.6261C342.333 96.0771 342.333 96.6307 342.333 97.3015V104.37C342.333 105.041 342.333 105.595 342.296 106.046C342.258 106.514 342.175 106.945 341.969 107.349C341.65 107.976 341.14 108.486 340.513 108.806C340.108 109.012 339.678 109.094 339.209 109.132C338.758 109.169 338.205 109.169 337.534 109.169H330.465C329.794 109.169 329.24 109.169 328.789 109.132C328.321 109.094 327.89 109.012 327.486 108.806C326.859 108.486 326.349 107.976 326.029 107.349C325.823 106.945 325.741 106.514 325.703 106.046C325.666 105.595 325.666 105.041 325.666 104.37V97.3015C325.666 96.6307 325.666 96.0771 325.703 95.6261C325.741 95.1577 325.823 94.7271 326.029 94.3226C326.349 93.6954 326.859 93.1855 327.486 92.8659C327.89 92.6598 328.321 92.5777 328.789 92.5394C329.09 92.5149 329.436 92.5067 329.833 92.504V91.6693C329.833 91.209 330.206 90.8359 330.666 90.8359ZM329.833 94.1707C329.461 94.1733 329.17 94.1806 328.925 94.2006C328.56 94.2304 328.373 94.2845 328.243 94.3509C327.929 94.5107 327.674 94.7657 327.514 95.0793C327.448 95.2096 327.394 95.3965 327.364 95.7618C327.333 96.1369 327.333 96.6221 327.333 97.3359V97.5026H340.666V97.3359C340.666 96.6221 340.665 96.1369 340.635 95.7618C340.605 95.3965 340.551 95.2096 340.484 95.0793C340.325 94.7657 340.07 94.5107 339.756 94.3509C339.626 94.2845 339.439 94.2304 339.073 94.2006C338.829 94.1806 338.537 94.1733 338.166 94.1707V95.0026C338.166 95.4628 337.793 95.8359 337.333 95.8359C336.872 95.8359 336.499 95.4628 336.499 95.0026V94.1693H331.499V95.0026C331.499 95.4628 331.126 95.8359 330.666 95.8359C330.206 95.8359 329.833 95.4628 329.833 95.0026V94.1707ZM340.666 99.1693H327.333V104.336C327.333 105.05 327.333 105.535 327.364 105.91C327.394 106.275 327.448 106.462 327.514 106.593C327.674 106.906 327.929 107.161 328.243 107.321C328.373 107.387 328.56 107.441 328.925 107.471C329.3 107.502 329.786 107.503 330.499 107.503H337.499C338.213 107.503 338.698 107.502 339.073 107.471C339.439 107.441 339.626 107.387 339.756 107.321C340.07 107.161 340.325 106.906 340.484 106.593C340.551 106.462 340.605 106.275 340.635 105.91C340.665 105.535 340.666 105.05 340.666 104.336V99.1693Z" fill="#9E9E9E"/>
<g clip-path="url(#clip0_915_38831)">
<path fill-rule="evenodd" clip-rule="evenodd" d="M366.001 92.5026C361.859 92.5026 358.501 95.8605 358.501 100.003C358.501 104.145 361.859 107.503 366.001 107.503C370.143 107.503 373.501 104.145 373.501 100.003C373.501 95.8605 370.143 92.5026 366.001 92.5026ZM356.834 100.003C356.834 94.94 360.938 90.8359 366.001 90.8359C371.063 90.8359 375.167 94.94 375.167 100.003C375.167 105.065 371.063 109.169 366.001 109.169C360.938 109.169 356.834 105.065 356.834 100.003ZM366.001 94.1693C366.461 94.1693 366.834 94.5424 366.834 95.0026V99.4876L369.707 100.924C370.118 101.13 370.285 101.63 370.079 102.042C369.874 102.454 369.373 102.62 368.961 102.415L365.628 100.748C365.346 100.607 365.167 100.318 365.167 100.003V95.0026C365.167 94.5424 365.54 94.1693 366.001 94.1693Z" fill="#9E9E9E"/>
</g>
<rect x="68.5" y="82.5" width="319" height="35" rx="2.5" stroke="#EFEFEF"/>
<path d="M419.784 75H416.959V66.2727H419.874C420.729 66.2727 421.463 66.4474 422.077 66.7969C422.69 67.1435 423.161 67.642 423.487 68.2926C423.817 68.9403 423.982 69.7173 423.982 70.6236C423.982 71.5327 423.815 72.3139 423.483 72.9673C423.153 73.6207 422.676 74.1236 422.051 74.4759C421.426 74.8253 420.67 75 419.784 75ZM418.276 73.8494H419.712C420.376 73.8494 420.929 73.7244 421.369 73.4744C421.81 73.2216 422.139 72.8565 422.358 72.3793C422.577 71.8991 422.686 71.3139 422.686 70.6236C422.686 69.9389 422.577 69.358 422.358 68.8807C422.142 68.4034 421.82 68.0412 421.391 67.794C420.962 67.5469 420.429 67.4233 419.793 67.4233H418.276V73.8494ZM427.422 75.1449C427.007 75.1449 426.632 75.0682 426.297 74.9148C425.961 74.7585 425.696 74.5327 425.5 74.2372C425.306 73.9418 425.21 73.5795 425.21 73.1506C425.21 72.7812 425.281 72.4773 425.423 72.2386C425.565 72 425.757 71.8111 425.998 71.6719C426.24 71.5327 426.51 71.4276 426.808 71.3565C427.106 71.2855 427.41 71.2315 427.72 71.1946C428.112 71.1491 428.43 71.1122 428.674 71.0838C428.919 71.0526 429.096 71.0028 429.207 70.9347C429.318 70.8665 429.373 70.7557 429.373 70.6023V70.5724C429.373 70.2003 429.268 69.9119 429.058 69.7074C428.85 69.5028 428.541 69.4006 428.129 69.4006C427.7 69.4006 427.362 69.4957 427.115 69.6861C426.87 69.8736 426.701 70.0824 426.608 70.3125L425.41 70.0398C425.552 69.642 425.76 69.321 426.032 69.0767C426.308 68.8295 426.625 68.6506 426.983 68.5398C427.341 68.4261 427.717 68.3693 428.112 68.3693C428.373 68.3693 428.65 68.4006 428.943 68.4631C429.238 68.5227 429.514 68.6335 429.77 68.7955C430.028 68.9574 430.24 69.1889 430.404 69.4901C430.569 69.7884 430.652 70.1761 430.652 70.6534V75H429.407V74.1051H429.356C429.274 74.2699 429.15 74.4318 428.985 74.5909C428.821 74.75 428.609 74.8821 428.35 74.9872C428.092 75.0923 427.782 75.1449 427.422 75.1449ZM427.699 74.1222C428.051 74.1222 428.352 74.0526 428.602 73.9134C428.855 73.7741 429.047 73.5923 429.177 73.3679C429.311 73.1406 429.377 72.8977 429.377 72.6392V71.7955C429.332 71.8409 429.244 71.8835 429.113 71.9233C428.985 71.9602 428.839 71.9929 428.674 72.0213C428.51 72.0469 428.349 72.071 428.193 72.0938C428.037 72.1136 427.906 72.1307 427.801 72.1449C427.554 72.1761 427.328 72.2287 427.123 72.3026C426.922 72.3764 426.76 72.483 426.637 72.6222C426.518 72.7585 426.458 72.9403 426.458 73.1676C426.458 73.483 426.575 73.7216 426.808 73.8835C427.041 74.0426 427.338 74.1222 427.699 74.1222ZM435.404 68.4545V69.4773H431.829V68.4545H435.404ZM432.788 66.8864H434.062V73.0781C434.062 73.3253 434.099 73.5114 434.173 73.6364C434.246 73.7585 434.342 73.8423 434.458 73.8878C434.577 73.9304 434.707 73.9517 434.846 73.9517C434.948 73.9517 435.038 73.9446 435.114 73.9304C435.191 73.9162 435.251 73.9048 435.293 73.8963L435.523 74.9489C435.45 74.9773 435.344 75.0057 435.208 75.0341C435.072 75.0653 434.901 75.0824 434.697 75.0852C434.362 75.0909 434.049 75.0312 433.759 74.9062C433.469 74.7812 433.235 74.5881 433.056 74.3267C432.877 74.0653 432.788 73.7372 432.788 73.3423V66.8864ZM439.564 75.1321C438.919 75.1321 438.364 74.9943 437.898 74.7188C437.435 74.4403 437.077 74.0497 436.824 73.5469C436.574 73.0412 436.449 72.4489 436.449 71.7699C436.449 71.0994 436.574 70.5085 436.824 69.9972C437.077 69.4858 437.429 69.0866 437.881 68.7997C438.336 68.5128 438.867 68.3693 439.475 68.3693C439.844 68.3693 440.202 68.4304 440.549 68.5526C440.895 68.6747 441.206 68.8665 441.482 69.1278C441.757 69.3892 441.975 69.7287 442.134 70.1463C442.293 70.5611 442.373 71.0653 442.373 71.6591V72.1108H437.169V71.1562H441.124C441.124 70.821 441.056 70.5241 440.919 70.2656C440.783 70.0043 440.591 69.7983 440.344 69.6477C440.1 69.4972 439.813 69.4219 439.483 69.4219C439.125 69.4219 438.813 69.5099 438.546 69.6861C438.282 69.8594 438.077 70.0866 437.932 70.3679C437.79 70.6463 437.719 70.9489 437.719 71.2756V72.0213C437.719 72.4588 437.796 72.831 437.949 73.1378C438.105 73.4446 438.323 73.679 438.601 73.8409C438.88 74 439.205 74.0795 439.577 74.0795C439.819 74.0795 440.039 74.0455 440.238 73.9773C440.436 73.9062 440.608 73.8011 440.753 73.6619C440.898 73.5227 441.009 73.3509 441.086 73.1463L442.292 73.3636C442.195 73.7187 442.022 74.0298 441.772 74.2969C441.525 74.5611 441.213 74.767 440.838 74.9148C440.466 75.0597 440.042 75.1321 439.564 75.1321ZM448.867 75.1449C448.452 75.1449 448.077 75.0682 447.742 74.9148C447.407 74.7585 447.141 74.5327 446.945 74.2372C446.752 73.9418 446.655 73.5795 446.655 73.1506C446.655 72.7812 446.726 72.4773 446.868 72.2386C447.01 72 447.202 71.8111 447.444 71.6719C447.685 71.5327 447.955 71.4276 448.253 71.3565C448.551 71.2855 448.855 71.2315 449.165 71.1946C449.557 71.1491 449.875 71.1122 450.12 71.0838C450.364 71.0526 450.542 71.0028 450.652 70.9347C450.763 70.8665 450.819 70.7557 450.819 70.6023V70.5724C450.819 70.2003 450.713 69.9119 450.503 69.7074C450.296 69.5028 449.986 69.4006 449.574 69.4006C449.145 69.4006 448.807 69.4957 448.56 69.6861C448.316 69.8736 448.147 70.0824 448.053 70.3125L446.855 70.0398C446.998 69.642 447.205 69.321 447.478 69.0767C447.753 68.8295 448.07 68.6506 448.428 68.5398C448.786 68.4261 449.162 68.3693 449.557 68.3693C449.819 68.3693 450.096 68.4006 450.388 68.4631C450.684 68.5227 450.959 68.6335 451.215 68.7955C451.473 68.9574 451.685 69.1889 451.85 69.4901C452.015 69.7884 452.097 70.1761 452.097 70.6534V75H450.853V74.1051H450.801C450.719 74.2699 450.596 74.4318 450.431 74.5909C450.266 74.75 450.054 74.8821 449.796 74.9872C449.537 75.0923 449.228 75.1449 448.867 75.1449ZM449.144 74.1222C449.496 74.1222 449.797 74.0526 450.047 73.9134C450.3 73.7741 450.492 73.5923 450.623 73.3679C450.756 73.1406 450.823 72.8977 450.823 72.6392V71.7955C450.777 71.8409 450.689 71.8835 450.559 71.9233C450.431 71.9602 450.284 71.9929 450.12 72.0213C449.955 72.0469 449.794 72.071 449.638 72.0938C449.482 72.1136 449.351 72.1307 449.246 72.1449C448.999 72.1761 448.773 72.2287 448.569 72.3026C448.367 72.3764 448.205 72.483 448.083 72.6222C447.963 72.7585 447.904 72.9403 447.904 73.1676C447.904 73.483 448.02 73.7216 448.253 73.8835C448.486 74.0426 448.783 74.1222 449.144 74.1222ZM455.068 71.1136V75H453.794V68.4545H455.017V69.5199H455.098C455.249 69.1733 455.484 68.8949 455.805 68.6847C456.129 68.4744 456.537 68.3693 457.028 68.3693C457.474 68.3693 457.865 68.4631 458.2 68.6506C458.536 68.8352 458.795 69.1108 458.98 69.4773C459.165 69.8437 459.257 70.2969 459.257 70.8366V75H457.983V70.9901C457.983 70.5156 457.859 70.1449 457.612 69.8778C457.365 69.608 457.026 69.473 456.594 69.473C456.298 69.473 456.036 69.5369 455.805 69.6648C455.578 69.7926 455.398 69.9801 455.264 70.2273C455.134 70.4716 455.068 70.767 455.068 71.1136ZM463.416 75.1278C462.888 75.1278 462.416 74.9929 462.001 74.723C461.589 74.4503 461.266 74.0625 461.03 73.5597C460.797 73.054 460.68 72.4474 460.68 71.7401C460.68 71.0327 460.798 70.4276 461.034 69.9247C461.273 69.4219 461.599 69.0369 462.014 68.7699C462.429 68.5028 462.899 68.3693 463.425 68.3693C463.831 68.3693 464.158 68.4375 464.405 68.5739C464.655 68.7074 464.848 68.8636 464.984 69.0426C465.124 69.2216 465.232 69.3793 465.308 69.5156H465.385V66.2727H466.659V75H465.415V73.9815H465.308C465.232 74.1207 465.121 74.2798 464.976 74.4588C464.834 74.6378 464.638 74.794 464.388 74.9276C464.138 75.0611 463.814 75.1278 463.416 75.1278ZM463.697 74.0412C464.064 74.0412 464.374 73.9446 464.626 73.7514C464.882 73.5554 465.075 73.2841 465.206 72.9375C465.339 72.5909 465.406 72.1875 465.406 71.7273C465.406 71.2727 465.341 70.875 465.21 70.5341C465.08 70.1932 464.888 69.9276 464.635 69.7372C464.382 69.5469 464.07 69.4517 463.697 69.4517C463.314 69.4517 462.994 69.5511 462.739 69.75C462.483 69.9489 462.29 70.2202 462.159 70.5639C462.031 70.9077 461.967 71.2955 461.967 71.7273C461.967 72.1648 462.033 72.5582 462.163 72.9077C462.294 73.2571 462.487 73.5341 462.743 73.7386C463.001 73.9403 463.32 74.0412 463.697 74.0412ZM471.325 67.4062V66.2727H478.08V67.4062H475.357V75H474.044V67.4062H471.325ZM479.47 75V68.4545H480.744V75H479.47ZM480.113 67.4446C479.892 67.4446 479.701 67.3707 479.542 67.223C479.386 67.0724 479.308 66.8935 479.308 66.6861C479.308 66.4759 479.386 66.2969 479.542 66.1491C479.701 65.9986 479.892 65.9233 480.113 65.9233C480.335 65.9233 480.524 65.9986 480.68 66.1491C480.839 66.2969 480.919 66.4759 480.919 66.6861C480.919 66.8935 480.839 67.0724 480.68 67.223C480.524 67.3707 480.335 67.4446 480.113 67.4446ZM482.458 75V68.4545H483.681V69.5199H483.762C483.898 69.1591 484.121 68.8778 484.431 68.6761C484.741 68.4716 485.112 68.3693 485.543 68.3693C485.981 68.3693 486.347 68.4716 486.643 68.6761C486.941 68.8807 487.161 69.1619 487.303 69.5199H487.371C487.528 69.1705 487.776 68.892 488.117 68.6847C488.458 68.4744 488.864 68.3693 489.336 68.3693C489.93 68.3693 490.414 68.5554 490.789 68.9276C491.167 69.2997 491.356 69.8608 491.356 70.6108V75H490.082V70.7301C490.082 70.2869 489.961 69.9659 489.719 69.767C489.478 69.5682 489.19 69.4688 488.854 69.4688C488.44 69.4688 488.117 69.5966 487.887 69.8523C487.657 70.1051 487.542 70.4304 487.542 70.8281V75H486.272V70.6491C486.272 70.294 486.161 70.0085 485.94 69.7926C485.718 69.5767 485.43 69.4688 485.075 69.4688C484.833 69.4688 484.61 69.5327 484.406 69.6605C484.204 69.7855 484.04 69.9602 483.915 70.1847C483.793 70.4091 483.732 70.669 483.732 70.9645V75H482.458ZM495.885 75.1321C495.24 75.1321 494.684 74.9943 494.218 74.7188C493.755 74.4403 493.397 74.0497 493.145 73.5469C492.895 73.0412 492.77 72.4489 492.77 71.7699C492.77 71.0994 492.895 70.5085 493.145 69.9972C493.397 69.4858 493.75 69.0866 494.201 68.7997C494.656 68.5128 495.187 68.3693 495.795 68.3693C496.164 68.3693 496.522 68.4304 496.869 68.5526C497.216 68.6747 497.527 68.8665 497.802 69.1278C498.078 69.3892 498.295 69.7287 498.454 70.1463C498.613 70.5611 498.693 71.0653 498.693 71.6591V72.1108H493.49V71.1562H497.444C497.444 70.821 497.376 70.5241 497.24 70.2656C497.103 70.0043 496.912 69.7983 496.664 69.6477C496.42 69.4972 496.133 69.4219 495.804 69.4219C495.446 69.4219 495.133 69.5099 494.866 69.6861C494.602 69.8594 494.397 70.0866 494.252 70.3679C494.11 70.6463 494.039 70.9489 494.039 71.2756V72.0213C494.039 72.4588 494.116 72.831 494.27 73.1378C494.426 73.4446 494.643 73.679 494.922 73.8409C495.2 74 495.525 74.0795 495.897 74.0795C496.139 74.0795 496.359 74.0455 496.558 73.9773C496.757 73.9062 496.929 73.8011 497.074 73.6619C497.218 73.5227 497.329 73.3509 497.406 73.1463L498.612 73.3636C498.515 73.7187 498.342 74.0298 498.092 74.2969C497.845 74.5611 497.534 74.767 497.159 74.9148C496.787 75.0597 496.362 75.1321 495.885 75.1321Z" fill="#707070"/>
<rect x="416.5" y="82.5" width="319" height="35" rx="2.5" fill="white"/>
<path d="M432.062 104.5H429.145V95.0455H432.192C433.109 95.0455 433.894 95.2347 434.546 95.6133C435.199 95.9888 435.699 96.5289 436.047 97.2337C436.394 97.9354 436.568 98.7756 436.568 99.7543C436.568 100.739 436.393 101.587 436.042 102.298C435.691 103.006 435.18 103.551 434.509 103.932C433.838 104.311 433.023 104.5 432.062 104.5ZM430.29 103.484H431.989C432.77 103.484 433.418 103.334 433.932 103.032C434.446 102.73 434.829 102.301 435.082 101.744C435.334 101.187 435.46 100.524 435.46 99.7543C435.46 98.991 435.336 98.3339 435.086 97.783C434.837 97.229 434.465 96.8043 433.969 96.5089C433.474 96.2103 432.857 96.0611 432.118 96.0611H430.29V103.484ZM441.406 104.5H438.489V95.0455H441.536C442.453 95.0455 443.237 95.2347 443.89 95.6133C444.542 95.9888 445.042 96.5289 445.39 97.2337C445.738 97.9354 445.912 98.7756 445.912 99.7543C445.912 100.739 445.737 101.587 445.386 102.298C445.035 103.006 444.524 103.551 443.853 103.932C443.182 104.311 442.366 104.5 441.406 104.5ZM439.634 103.484H441.332C442.114 103.484 442.762 103.334 443.276 103.032C443.79 102.73 444.173 102.301 444.425 101.744C444.678 101.187 444.804 100.524 444.804 99.7543C444.804 98.991 444.679 98.3339 444.43 97.783C444.181 97.229 443.808 96.8043 443.313 96.5089C442.817 96.2103 442.2 96.0611 441.462 96.0611H439.634V103.484ZM450.506 94.6023L447.46 105.922H446.462L449.509 94.6023H450.506ZM451.946 95.0455H453.312L456.525 102.893H456.636L459.849 95.0455H461.216V104.5H460.145V97.3168H460.052L457.098 104.5H456.064L453.109 97.3168H453.017V104.5H451.946V95.0455ZM463.511 95.0455H464.878L468.091 102.893H468.201L471.415 95.0455H472.781V104.5H471.71V97.3168H471.618L468.663 104.5H467.629L464.674 97.3168H464.582V104.5H463.511V95.0455ZM478.271 94.6023L475.224 105.922H474.227L477.274 94.6023H478.271ZM478.898 95.0455H480.209L482.831 99.4588H482.942L485.564 95.0455H486.875L483.459 100.604V104.5H482.314V100.604L478.898 95.0455ZM487.543 95.0455H488.854L491.477 99.4588H491.587L494.21 95.0455H495.521L492.104 100.604V104.5H490.96V100.604L487.543 95.0455ZM496.189 95.0455H497.5L500.122 99.4588H500.233L502.855 95.0455H504.166L500.75 100.604V104.5H499.605V100.604L496.189 95.0455ZM504.834 95.0455H506.145L508.768 99.4588H508.878L511.501 95.0455H512.812L509.395 100.604V104.5H508.251V100.604L504.834 95.0455Z" fill="#C8C8C8"/>
<path fill-rule="evenodd" clip-rule="evenodd" d="M678.666 90.8359C679.126 90.8359 679.499 91.209 679.499 91.6693V92.5026H684.499V91.6693C684.499 91.209 684.872 90.8359 685.333 90.8359C685.793 90.8359 686.166 91.209 686.166 91.6693V92.504C686.562 92.5067 686.909 92.5149 687.209 92.5394C687.678 92.5777 688.108 92.6598 688.513 92.8659C689.14 93.1855 689.65 93.6954 689.969 94.3226C690.175 94.7271 690.258 95.1577 690.296 95.6261C690.333 96.0771 690.333 96.6307 690.333 97.3015V104.37C690.333 105.041 690.333 105.595 690.296 106.046C690.258 106.514 690.175 106.945 689.969 107.349C689.65 107.976 689.14 108.486 688.513 108.806C688.108 109.012 687.678 109.094 687.209 109.132C686.758 109.169 686.205 109.169 685.534 109.169H678.465C677.794 109.169 677.24 109.169 676.789 109.132C676.321 109.094 675.89 109.012 675.486 108.806C674.859 108.486 674.349 107.976 674.029 107.349C673.823 106.945 673.741 106.514 673.703 106.046C673.666 105.595 673.666 105.041 673.666 104.37V97.3015C673.666 96.6307 673.666 96.0771 673.703 95.6261C673.741 95.1577 673.823 94.7271 674.029 94.3226C674.349 93.6954 674.859 93.1855 675.486 92.8659C675.89 92.6598 676.321 92.5777 676.789 92.5394C677.09 92.5149 677.436 92.5067 677.833 92.504V91.6693C677.833 91.209 678.206 90.8359 678.666 90.8359ZM677.833 94.1707C677.461 94.1733 677.17 94.1806 676.925 94.2006C676.56 94.2304 676.373 94.2845 676.243 94.3509C675.929 94.5107 675.674 94.7657 675.514 95.0793C675.448 95.2096 675.394 95.3965 675.364 95.7618C675.333 96.1369 675.333 96.6221 675.333 97.3359V97.5026H688.666V97.3359C688.666 96.6221 688.665 96.1369 688.635 95.7618C688.605 95.3965 688.551 95.2096 688.484 95.0793C688.325 94.7657 688.07 94.5107 687.756 94.3509C687.626 94.2845 687.439 94.2304 687.073 94.2006C686.829 94.1806 686.537 94.1733 686.166 94.1707V95.0026C686.166 95.4628 685.793 95.8359 685.333 95.8359C684.872 95.8359 684.499 95.4628 684.499 95.0026V94.1693H679.499V95.0026C679.499 95.4628 679.126 95.8359 678.666 95.8359C678.206 95.8359 677.833 95.4628 677.833 95.0026V94.1707ZM688.666 99.1693H675.333V104.336C675.333 105.05 675.333 105.535 675.364 105.91C675.394 106.275 675.448 106.462 675.514 106.593C675.674 106.906 675.929 107.161 676.243 107.321C676.373 107.387 676.56 107.441 676.925 107.471C677.3 107.502 677.786 107.503 678.499 107.503H685.499C686.213 107.503 686.698 107.502 687.073 107.471C687.439 107.441 687.626 107.387 687.756 107.321C688.07 107.161 688.325 106.906 688.484 106.593C688.551 106.462 688.605 106.275 688.635 105.91C688.665 105.535 688.666 105.05 688.666 104.336V99.1693Z" fill="#9E9E9E"/>
<g clip-path="url(#clip1_915_38831)">
<path fill-rule="evenodd" clip-rule="evenodd" d="M714.001 92.5026C709.859 92.5026 706.501 95.8605 706.501 100.003C706.501 104.145 709.859 107.503 714.001 107.503C718.143 107.503 721.501 104.145 721.501 100.003C721.501 95.8605 718.143 92.5026 714.001 92.5026ZM704.834 100.003C704.834 94.94 708.938 90.8359 714.001 90.8359C719.063 90.8359 723.167 94.94 723.167 100.003C723.167 105.065 719.063 109.169 714.001 109.169C708.938 109.169 704.834 105.065 704.834 100.003ZM714.001 94.1693C714.461 94.1693 714.834 94.5424 714.834 95.0026V99.4876L717.707 100.924C718.118 101.13 718.285 101.63 718.079 102.042C717.874 102.454 717.373 102.62 716.961 102.415L713.628 100.748C713.346 100.607 713.167 100.318 713.167 100.003V95.0026C713.167 94.5424 713.54 94.1693 714.001 94.1693Z" fill="#9E9E9E"/>
</g>
<rect x="416.5" y="82.5" width="319" height="35" rx="2.5" stroke="#EFEFEF"/>
<g filter="url(#filter0_dd_915_38831)">
<g clip-path="url(#clip2_915_38831)">
<rect x="416" y="122" width="320" height="195" rx="3" fill="white"/>
<path d="M432.303 139.545V149H431.158V140.746H431.102L428.794 142.278V141.115L431.158 139.545H432.303ZM435.022 149V148.169L438.142 144.753C438.509 144.353 438.81 144.005 439.047 143.71C439.284 143.411 439.46 143.131 439.574 142.869C439.69 142.605 439.749 142.328 439.749 142.038C439.749 141.706 439.669 141.418 439.509 141.175C439.352 140.932 439.136 140.744 438.863 140.612C438.589 140.48 438.281 140.413 437.939 140.413C437.576 140.413 437.259 140.489 436.988 140.64C436.721 140.787 436.513 140.995 436.365 141.263C436.22 141.531 436.148 141.844 436.148 142.205H435.059C435.059 141.651 435.186 141.164 435.442 140.746C435.697 140.327 436.045 140.001 436.485 139.767C436.928 139.533 437.425 139.416 437.976 139.416C438.53 139.416 439.021 139.533 439.449 139.767C439.877 140.001 440.212 140.316 440.455 140.713C440.698 141.11 440.82 141.552 440.82 142.038C440.82 142.386 440.757 142.726 440.631 143.059C440.508 143.388 440.292 143.756 439.984 144.162C439.68 144.565 439.257 145.058 438.715 145.639L436.591 147.911V147.984H440.986V149H435.022ZM443.705 147.79C443.478 147.79 443.282 147.709 443.119 147.546C442.956 147.383 442.874 147.187 442.874 146.96C442.874 146.732 442.956 146.536 443.119 146.373C443.282 146.21 443.478 146.129 443.705 146.129C443.933 146.129 444.128 146.21 444.292 146.373C444.455 146.536 444.536 146.732 444.536 146.96C444.536 147.11 444.498 147.249 444.421 147.375C444.347 147.501 444.247 147.603 444.121 147.68C443.998 147.754 443.859 147.79 443.705 147.79ZM443.705 143.008C443.478 143.008 443.282 142.926 443.119 142.763C442.956 142.6 442.874 142.405 442.874 142.177C442.874 141.949 442.956 141.754 443.119 141.591C443.282 141.427 443.478 141.346 443.705 141.346C443.933 141.346 444.128 141.427 444.292 141.591C444.455 141.754 444.536 141.949 444.536 142.177C444.536 142.328 444.498 142.466 444.421 142.592C444.347 142.719 444.247 142.82 444.121 142.897C443.998 142.971 443.859 143.008 443.705 143.008ZM449.557 149.129C448.861 149.129 448.269 148.94 447.779 148.561C447.29 148.18 446.916 147.627 446.657 146.904C446.399 146.178 446.27 145.301 446.27 144.273C446.27 143.251 446.399 142.378 446.657 141.655C446.919 140.929 447.295 140.375 447.784 139.993C448.276 139.609 448.867 139.416 449.557 139.416C450.246 139.416 450.835 139.609 451.325 139.993C451.817 140.375 452.193 140.929 452.451 141.655C452.713 142.378 452.844 143.251 452.844 144.273C452.844 145.301 452.714 146.178 452.456 146.904C452.197 147.627 451.823 148.18 451.334 148.561C450.845 148.94 450.252 149.129 449.557 149.129ZM449.557 148.114C450.246 148.114 450.782 147.781 451.163 147.116C451.545 146.452 451.736 145.504 451.736 144.273C451.736 143.454 451.648 142.757 451.472 142.181C451.3 141.606 451.051 141.167 450.725 140.866C450.401 140.564 450.012 140.413 449.557 140.413C448.873 140.413 448.339 140.75 447.955 141.424C447.57 142.095 447.378 143.045 447.378 144.273C447.378 145.091 447.464 145.787 447.636 146.359C447.809 146.932 448.056 147.367 448.379 147.666C448.706 147.964 449.098 148.114 449.557 148.114ZM457.682 149.129C456.986 149.129 456.394 148.94 455.904 148.561C455.415 148.18 455.041 147.627 454.782 146.904C454.524 146.178 454.395 145.301 454.395 144.273C454.395 143.251 454.524 142.378 454.782 141.655C455.044 140.929 455.42 140.375 455.909 139.993C456.401 139.609 456.992 139.416 457.682 139.416C458.371 139.416 458.96 139.609 459.45 139.993C459.942 140.375 460.318 140.929 460.576 141.655C460.838 142.378 460.969 143.251 460.969 144.273C460.969 145.301 460.839 146.178 460.581 146.904C460.322 147.627 459.948 148.18 459.459 148.561C458.97 148.94 458.377 149.129 457.682 149.129ZM457.682 148.114C458.371 148.114 458.907 147.781 459.288 147.116C459.67 146.452 459.861 145.504 459.861 144.273C459.861 143.454 459.773 142.757 459.597 142.181C459.425 141.606 459.176 141.167 458.85 140.866C458.526 140.564 458.137 140.413 457.682 140.413C456.998 140.413 456.464 140.75 456.08 141.424C455.695 142.095 455.503 143.045 455.503 144.273C455.503 145.091 455.589 145.787 455.761 146.359C455.934 146.932 456.181 147.367 456.504 147.666C456.831 147.964 457.223 148.114 457.682 148.114ZM466.933 149H465.733L469.204 139.545H470.386L473.858 149H472.657L469.832 141.041H469.758L466.933 149ZM467.376 145.307H472.214V146.322H467.376V145.307ZM475.33 139.545H476.697L479.91 147.393H480.021L483.234 139.545H484.6V149H483.529V141.817H483.437L480.482 149H479.448L476.494 141.817H476.401V149H475.33V139.545Z" fill="#1A1A1A"/>
<rect width="320" height="40" transform="translate(416 162)" fill="#EFEFEF"/>
<path d="M432.303 177.545V187H431.158V178.746H431.102L428.794 180.278V179.115L431.158 177.545H432.303ZM435.022 187V186.169L438.142 182.753C438.509 182.353 438.81 182.005 439.047 181.71C439.284 181.411 439.46 181.131 439.574 180.869C439.69 180.605 439.749 180.328 439.749 180.038C439.749 179.706 439.669 179.418 439.509 179.175C439.352 178.932 439.136 178.744 438.863 178.612C438.589 178.48 438.281 178.413 437.939 178.413C437.576 178.413 437.259 178.489 436.988 178.64C436.721 178.787 436.513 178.995 436.365 179.263C436.22 179.531 436.148 179.844 436.148 180.205H435.059C435.059 179.651 435.186 179.164 435.442 178.746C435.697 178.327 436.045 178.001 436.485 177.767C436.928 177.533 437.425 177.416 437.976 177.416C438.53 177.416 439.021 177.533 439.449 177.767C439.877 178.001 440.212 178.316 440.455 178.713C440.698 179.11 440.82 179.552 440.82 180.038C440.82 180.386 440.757 180.726 440.631 181.059C440.508 181.388 440.292 181.756 439.984 182.162C439.68 182.565 439.257 183.058 438.715 183.639L436.591 185.911V185.984H440.986V187H435.022ZM443.705 185.79C443.478 185.79 443.282 185.709 443.119 185.546C442.956 185.383 442.874 185.187 442.874 184.96C442.874 184.732 442.956 184.536 443.119 184.373C443.282 184.21 443.478 184.129 443.705 184.129C443.933 184.129 444.128 184.21 444.292 184.373C444.455 184.536 444.536 184.732 444.536 184.96C444.536 185.11 444.498 185.249 444.421 185.375C444.347 185.501 444.247 185.603 444.121 185.68C443.998 185.754 443.859 185.79 443.705 185.79ZM443.705 181.008C443.478 181.008 443.282 180.926 443.119 180.763C442.956 180.6 442.874 180.405 442.874 180.177C442.874 179.949 442.956 179.754 443.119 179.591C443.282 179.427 443.478 179.346 443.705 179.346C443.933 179.346 444.128 179.427 444.292 179.591C444.455 179.754 444.536 179.949 444.536 180.177C444.536 180.328 444.498 180.466 444.421 180.592C444.347 180.719 444.247 180.82 444.121 180.897C443.998 180.971 443.859 181.008 443.705 181.008ZM449.797 177.545V187H448.652V178.746H448.596L446.288 180.278V179.115L448.652 177.545H449.797ZM455.47 187.129C454.929 187.129 454.441 187.022 454.007 186.806C453.573 186.591 453.225 186.295 452.964 185.92C452.702 185.544 452.559 185.116 452.534 184.636H453.642C453.685 185.064 453.879 185.418 454.224 185.698C454.572 185.975 454.987 186.114 455.47 186.114C455.858 186.114 456.203 186.023 456.504 185.841C456.809 185.66 457.048 185.41 457.22 185.093C457.395 184.773 457.483 184.412 457.483 184.009C457.483 183.596 457.392 183.228 457.211 182.905C457.032 182.579 456.786 182.322 456.472 182.134C456.158 181.946 455.8 181.851 455.396 181.848C455.107 181.845 454.81 181.89 454.506 181.982C454.201 182.071 453.95 182.187 453.753 182.328L452.682 182.199L453.254 177.545H458.166V178.561H454.215L453.882 181.349H453.938C454.132 181.196 454.375 181.068 454.667 180.966C454.959 180.865 455.264 180.814 455.581 180.814C456.16 180.814 456.675 180.952 457.128 181.229C457.583 181.503 457.94 181.879 458.199 182.356C458.46 182.833 458.591 183.378 458.591 183.99C458.591 184.593 458.456 185.132 458.185 185.606C457.917 186.077 457.548 186.449 457.077 186.723C456.606 186.994 456.07 187.129 455.47 187.129ZM464.635 187H463.435L466.907 177.545H468.088L471.56 187H470.36L467.534 179.041H467.46L464.635 187ZM465.078 183.307H469.916V184.322H465.078V183.307ZM473.033 177.545H474.399L477.612 185.393H477.723L480.936 177.545H482.302V187H481.231V179.817H481.139L478.185 187H477.15L474.196 179.817H474.104V187H473.033V177.545Z" fill="#1F243D"/>
<path d="M720.667 177L711.501 186.167L707.334 182" stroke="#217CF5" stroke-width="1.5" stroke-linecap="round" stroke-linejoin="round"/>
<path d="M432.303 215.545V225H431.158V216.746H431.102L428.794 218.278V217.115L431.158 215.545H432.303ZM435.022 225V224.169L438.142 220.753C438.509 220.353 438.81 220.005 439.047 219.71C439.284 219.411 439.46 219.131 439.574 218.869C439.69 218.605 439.749 218.328 439.749 218.038C439.749 217.706 439.669 217.418 439.509 217.175C439.352 216.932 439.136 216.744 438.863 216.612C438.589 216.48 438.281 216.413 437.939 216.413C437.576 216.413 437.259 216.489 436.988 216.64C436.721 216.787 436.513 216.995 436.365 217.263C436.22 217.531 436.148 217.844 436.148 218.205H435.059C435.059 217.651 435.186 217.164 435.442 216.746C435.697 216.327 436.045 216.001 436.485 215.767C436.928 215.533 437.425 215.416 437.976 215.416C438.53 215.416 439.021 215.533 439.449 215.767C439.877 216.001 440.212 216.316 440.455 216.713C440.698 217.11 440.82 217.552 440.82 218.038C440.82 218.386 440.757 218.726 440.631 219.059C440.508 219.388 440.292 219.756 439.984 220.162C439.68 220.565 439.257 221.058 438.715 221.639L436.591 223.911V223.984H440.986V225H435.022ZM443.705 223.79C443.478 223.79 443.282 223.709 443.119 223.546C442.956 223.383 442.874 223.187 442.874 222.96C442.874 222.732 442.956 222.536 443.119 222.373C443.282 222.21 443.478 222.129 443.705 222.129C443.933 222.129 444.128 222.21 444.292 222.373C444.455 222.536 444.536 222.732 444.536 222.96C444.536 223.11 444.498 223.249 444.421 223.375C444.347 223.501 444.247 223.603 444.121 223.68C443.998 223.754 443.859 223.79 443.705 223.79ZM443.705 219.008C443.478 219.008 443.282 218.926 443.119 218.763C442.956 218.6 442.874 218.405 442.874 218.177C442.874 217.949 442.956 217.754 443.119 217.591C443.282 217.427 443.478 217.346 443.705 217.346C443.933 217.346 444.128 217.427 444.292 217.591C444.455 217.754 444.536 217.949 444.536 218.177C444.536 218.328 444.498 218.466 444.421 218.592C444.347 218.719 444.247 218.82 444.121 218.897C443.998 218.971 443.859 219.008 443.705 219.008ZM449.667 225.129C449.058 225.129 448.515 225.025 448.038 224.815C447.564 224.606 447.187 224.315 446.907 223.943C446.63 223.567 446.479 223.132 446.454 222.636H447.618C447.642 222.941 447.747 223.204 447.932 223.426C448.116 223.644 448.358 223.814 448.656 223.934C448.955 224.054 449.286 224.114 449.649 224.114C450.055 224.114 450.415 224.043 450.729 223.901C451.043 223.76 451.289 223.563 451.468 223.31C451.646 223.058 451.736 222.766 451.736 222.433C451.736 222.085 451.649 221.779 451.477 221.515C451.305 221.247 451.052 221.038 450.72 220.887C450.388 220.736 449.981 220.661 449.501 220.661H448.744V219.645H449.501C449.877 219.645 450.206 219.577 450.489 219.442C450.775 219.306 450.999 219.116 451.159 218.869C451.322 218.623 451.403 218.334 451.403 218.001C451.403 217.681 451.332 217.403 451.191 217.166C451.049 216.929 450.849 216.744 450.591 216.612C450.335 216.48 450.034 216.413 449.686 216.413C449.36 216.413 449.052 216.473 448.763 216.593C448.476 216.71 448.242 216.881 448.061 217.106C447.879 217.327 447.781 217.595 447.765 217.909H446.657C446.676 217.414 446.825 216.98 447.105 216.607C447.385 216.232 447.752 215.939 448.204 215.73C448.66 215.521 449.16 215.416 449.704 215.416C450.289 215.416 450.791 215.535 451.209 215.772C451.628 216.006 451.95 216.315 452.174 216.7C452.399 217.084 452.511 217.5 452.511 217.946C452.511 218.478 452.371 218.932 452.091 219.308C451.814 219.683 451.437 219.943 450.96 220.088V220.162C451.557 220.26 452.023 220.514 452.359 220.924C452.694 221.33 452.862 221.833 452.862 222.433C452.862 222.947 452.722 223.409 452.442 223.818C452.165 224.224 451.786 224.545 451.306 224.778C450.826 225.012 450.28 225.129 449.667 225.129ZM457.834 225.129C457.138 225.129 456.546 224.94 456.057 224.561C455.567 224.18 455.193 223.627 454.935 222.904C454.676 222.178 454.547 221.301 454.547 220.273C454.547 219.251 454.676 218.378 454.935 217.655C455.196 216.929 455.572 216.375 456.061 215.993C456.554 215.609 457.145 215.416 457.834 215.416C458.523 215.416 459.113 215.609 459.602 215.993C460.095 216.375 460.47 216.929 460.729 217.655C460.99 218.378 461.121 219.251 461.121 220.273C461.121 221.301 460.992 222.178 460.733 222.904C460.475 223.627 460.101 224.18 459.611 224.561C459.122 224.94 458.53 225.129 457.834 225.129ZM457.834 224.114C458.523 224.114 459.059 223.781 459.441 223.116C459.822 222.452 460.013 221.504 460.013 220.273C460.013 219.454 459.925 218.757 459.75 218.181C459.577 217.606 459.328 217.167 459.002 216.866C458.679 216.564 458.289 216.413 457.834 216.413C457.151 216.413 456.617 216.75 456.232 217.424C455.847 218.095 455.655 219.045 455.655 220.273C455.655 221.091 455.741 221.787 455.914 222.359C456.086 222.932 456.334 223.367 456.657 223.666C456.983 223.964 457.375 224.114 457.834 224.114ZM467.085 225H465.885L469.357 215.545H470.539L474.01 225H472.81L469.985 217.041H469.911L467.085 225ZM467.529 221.307H472.367V222.322H467.529V221.307ZM475.483 215.545H476.849L480.062 223.393H480.173L483.386 215.545H484.753V225H483.682V217.817H483.589L480.635 225H479.601L476.646 217.817H476.554V225H475.483V215.545Z" fill="#1A1A1A"/>
<path d="M432.303 251.545V261H431.158V252.746H431.102L428.794 254.278V253.115L431.158 251.545H432.303ZM435.022 261V260.169L438.142 256.753C438.509 256.353 438.81 256.005 439.047 255.71C439.284 255.411 439.46 255.131 439.574 254.869C439.69 254.605 439.749 254.328 439.749 254.038C439.749 253.706 439.669 253.418 439.509 253.175C439.352 252.932 439.136 252.744 438.863 252.612C438.589 252.48 438.281 252.413 437.939 252.413C437.576 252.413 437.259 252.489 436.988 252.64C436.721 252.787 436.513 252.995 436.365 253.263C436.22 253.531 436.148 253.844 436.148 254.205H435.059C435.059 253.651 435.186 253.164 435.442 252.746C435.697 252.327 436.045 252.001 436.485 251.767C436.928 251.533 437.425 251.416 437.976 251.416C438.53 251.416 439.021 251.533 439.449 251.767C439.877 252.001 440.212 252.316 440.455 252.713C440.698 253.11 440.82 253.552 440.82 254.038C440.82 254.386 440.757 254.726 440.631 255.059C440.508 255.388 440.292 255.756 439.984 256.162C439.68 256.565 439.257 257.058 438.715 257.639L436.591 259.911V259.984H440.986V261H435.022ZM443.705 259.79C443.478 259.79 443.282 259.709 443.119 259.546C442.956 259.383 442.874 259.187 442.874 258.96C442.874 258.732 442.956 258.536 443.119 258.373C443.282 258.21 443.478 258.129 443.705 258.129C443.933 258.129 444.128 258.21 444.292 258.373C444.455 258.536 444.536 258.732 444.536 258.96C444.536 259.11 444.498 259.249 444.421 259.375C444.347 259.501 444.247 259.603 444.121 259.68C443.998 259.754 443.859 259.79 443.705 259.79ZM443.705 255.008C443.478 255.008 443.282 254.926 443.119 254.763C442.956 254.6 442.874 254.405 442.874 254.177C442.874 253.949 442.956 253.754 443.119 253.591C443.282 253.427 443.478 253.346 443.705 253.346C443.933 253.346 444.128 253.427 444.292 253.591C444.455 253.754 444.536 253.949 444.536 254.177C444.536 254.328 444.498 254.466 444.421 254.592C444.347 254.719 444.247 254.82 444.121 254.897C443.998 254.971 443.859 255.008 443.705 255.008ZM446.251 259.061V258.119L450.406 251.545H451.089V253.004H450.628L447.488 257.972V258.045H453.084V259.061H446.251ZM450.702 261V258.775V258.336V251.545H451.791V261H450.702ZM457.768 261.129C457.227 261.129 456.739 261.022 456.305 260.806C455.871 260.591 455.523 260.295 455.261 259.92C455 259.544 454.857 259.116 454.832 258.636H455.94C455.983 259.064 456.177 259.418 456.522 259.698C456.87 259.975 457.285 260.114 457.768 260.114C458.156 260.114 458.501 260.023 458.802 259.841C459.107 259.66 459.345 259.41 459.518 259.093C459.693 258.773 459.781 258.412 459.781 258.009C459.781 257.596 459.69 257.228 459.509 256.905C459.33 256.579 459.084 256.322 458.77 256.134C458.456 255.946 458.098 255.851 457.694 255.848C457.405 255.845 457.108 255.89 456.803 255.982C456.499 256.071 456.248 256.187 456.051 256.328L454.98 256.199L455.552 251.545H460.464V252.561H456.513L456.18 255.349H456.236C456.429 255.196 456.673 255.068 456.965 254.966C457.257 254.865 457.562 254.814 457.879 254.814C458.458 254.814 458.973 254.952 459.426 255.229C459.881 255.503 460.238 255.879 460.497 256.356C460.758 256.833 460.889 257.378 460.889 257.99C460.889 258.593 460.754 259.132 460.483 259.606C460.215 260.077 459.846 260.449 459.375 260.723C458.904 260.994 458.368 261.129 457.768 261.129ZM466.933 261H465.733L469.204 251.545H470.386L473.858 261H472.657L469.832 253.041H469.758L466.933 261ZM467.376 257.307H472.214V258.322H467.376V257.307ZM475.33 251.545H476.697L479.91 259.393H480.021L483.234 251.545H484.6V261H483.529V253.817H483.437L480.482 261H479.448L476.494 253.817H476.401V261H475.33V251.545Z" fill="#1A1A1A"/>
<path d="M432.062 297.129C431.367 297.129 430.775 296.94 430.285 296.561C429.796 296.18 429.422 295.627 429.163 294.904C428.905 294.178 428.776 293.301 428.776 292.273C428.776 291.251 428.905 290.378 429.163 289.655C429.425 288.929 429.8 288.375 430.29 287.993C430.782 287.609 431.373 287.416 432.062 287.416C432.752 287.416 433.341 287.609 433.831 287.993C434.323 288.375 434.699 288.929 434.957 289.655C435.219 290.378 435.349 291.251 435.349 292.273C435.349 293.301 435.22 294.178 434.962 294.904C434.703 295.627 434.329 296.18 433.84 296.561C433.35 296.94 432.758 297.129 432.062 297.129ZM432.062 296.114C432.752 296.114 433.287 295.781 433.669 295.116C434.051 294.452 434.241 293.504 434.241 292.273C434.241 291.454 434.154 290.757 433.978 290.181C433.806 289.606 433.557 289.167 433.23 288.866C432.907 288.564 432.518 288.413 432.062 288.413C431.379 288.413 430.845 288.75 430.461 289.424C430.076 290.095 429.884 291.045 429.884 292.273C429.884 293.091 429.97 293.787 430.142 294.359C430.314 294.932 430.562 295.367 430.885 295.666C431.212 295.964 431.604 296.114 432.062 296.114ZM440.428 287.545V297H439.283V288.746H439.227L436.919 290.278V289.115L439.283 287.545H440.428ZM443.959 295.79C443.731 295.79 443.536 295.709 443.373 295.546C443.21 295.383 443.128 295.187 443.128 294.96C443.128 294.732 443.21 294.536 443.373 294.373C443.536 294.21 443.731 294.129 443.959 294.129C444.187 294.129 444.382 294.21 444.545 294.373C444.709 294.536 444.79 294.732 444.79 294.96C444.79 295.11 444.752 295.249 444.675 295.375C444.601 295.501 444.501 295.603 444.375 295.68C444.252 295.754 444.113 295.79 443.959 295.79ZM443.959 291.008C443.731 291.008 443.536 290.926 443.373 290.763C443.21 290.6 443.128 290.405 443.128 290.177C443.128 289.949 443.21 289.754 443.373 289.591C443.536 289.427 443.731 289.346 443.959 289.346C444.187 289.346 444.382 289.427 444.545 289.591C444.709 289.754 444.79 289.949 444.79 290.177C444.79 290.328 444.752 290.466 444.675 290.592C444.601 290.719 444.501 290.82 444.375 290.897C444.252 290.971 444.113 291.008 443.959 291.008ZM449.811 297.129C449.115 297.129 448.523 296.94 448.033 296.561C447.544 296.18 447.17 295.627 446.911 294.904C446.653 294.178 446.524 293.301 446.524 292.273C446.524 291.251 446.653 290.378 446.911 289.655C447.173 288.929 447.548 288.375 448.038 287.993C448.53 287.609 449.121 287.416 449.811 287.416C450.5 287.416 451.089 287.609 451.579 287.993C452.071 288.375 452.447 288.929 452.705 289.655C452.967 290.378 453.097 291.251 453.097 292.273C453.097 293.301 452.968 294.178 452.71 294.904C452.451 295.627 452.077 296.18 451.588 296.561C451.099 296.94 450.506 297.129 449.811 297.129ZM449.811 296.114C450.5 296.114 451.035 295.781 451.417 295.116C451.799 294.452 451.99 293.504 451.99 292.273C451.99 291.454 451.902 290.757 451.726 290.181C451.554 289.606 451.305 289.167 450.979 288.866C450.655 288.564 450.266 288.413 449.811 288.413C449.127 288.413 448.593 288.75 448.209 289.424C447.824 290.095 447.632 291.045 447.632 292.273C447.632 293.091 447.718 293.787 447.89 294.359C448.062 294.932 448.31 295.367 448.633 295.666C448.96 295.964 449.352 296.114 449.811 296.114ZM457.936 297.129C457.24 297.129 456.648 296.94 456.158 296.561C455.669 296.18 455.295 295.627 455.036 294.904C454.778 294.178 454.649 293.301 454.649 292.273C454.649 291.251 454.778 290.378 455.036 289.655C455.298 288.929 455.673 288.375 456.163 287.993C456.655 287.609 457.246 287.416 457.936 287.416C458.625 287.416 459.214 287.609 459.704 287.993C460.196 288.375 460.572 288.929 460.83 289.655C461.092 290.378 461.222 291.251 461.222 292.273C461.222 293.301 461.093 294.178 460.835 294.904C460.576 295.627 460.202 296.18 459.713 296.561C459.224 296.94 458.631 297.129 457.936 297.129ZM457.936 296.114C458.625 296.114 459.16 295.781 459.542 295.116C459.924 294.452 460.115 293.504 460.115 292.273C460.115 291.454 460.027 290.757 459.851 290.181C459.679 289.606 459.43 289.167 459.104 288.866C458.78 288.564 458.391 288.413 457.936 288.413C457.252 288.413 456.718 288.75 456.334 289.424C455.949 290.095 455.757 291.045 455.757 292.273C455.757 293.091 455.843 293.787 456.015 294.359C456.187 294.932 456.435 295.367 456.758 295.666C457.085 295.964 457.477 296.114 457.936 296.114ZM467.187 297H465.987L469.458 287.545H470.64L474.112 297H472.911L470.086 289.041H470.012L467.187 297ZM467.63 293.307H472.468V294.322H467.63V293.307ZM475.584 287.545H476.951L480.164 295.393H480.275L483.488 287.545H484.854V297H483.783V289.817H483.691L480.736 297H479.702L476.748 289.817H476.655V297H475.584V287.545Z" fill="#1A1A1A"/>
</g>
<rect x="416.5" y="122.5" width="319" height="194" rx="2.5" stroke="#EFEFEF"/>
</g>
<path d="M71.75 50H69.0568V41.2727H71.8693C72.7159 41.2727 73.4403 41.4474 74.0426 41.7969C74.6449 42.1435 75.1065 42.642 75.4276 43.2926C75.7486 43.9403 75.9091 44.7159 75.9091 45.6193C75.9091 46.5284 75.7472 47.3111 75.4233 47.9673C75.0994 48.6207 74.6278 49.1236 74.0085 49.4759C73.3892 49.8253 72.6364 50 71.75 50ZM70.1136 49.0625H71.6818C72.4034 49.0625 73.0014 48.9233 73.4759 48.6449C73.9503 48.3665 74.304 47.9702 74.5369 47.456C74.7699 46.9418 74.8864 46.3295 74.8864 45.6193C74.8864 44.9148 74.7713 44.3082 74.5412 43.7997C74.3111 43.2884 73.9673 42.8963 73.5099 42.6236C73.0526 42.348 72.483 42.2102 71.8011 42.2102H70.1136V49.0625ZM80.2898 50.1364C79.6591 50.1364 79.1151 49.9972 78.6577 49.7188C78.2031 49.4375 77.8523 49.0455 77.6051 48.5426C77.3608 48.0369 77.2386 47.4489 77.2386 46.7784C77.2386 46.108 77.3608 45.517 77.6051 45.0057C77.8523 44.4915 78.196 44.0909 78.6364 43.804C79.0795 43.5142 79.5966 43.3693 80.1875 43.3693C80.5284 43.3693 80.8651 43.4261 81.1974 43.5398C81.5298 43.6534 81.8324 43.8381 82.1051 44.0938C82.3778 44.3466 82.5952 44.6818 82.7571 45.0994C82.919 45.517 83 46.0312 83 46.642V47.0682H77.9545V46.1989H81.9773C81.9773 45.8295 81.9034 45.5 81.7557 45.2102C81.6108 44.9205 81.4034 44.6918 81.1335 44.5241C80.8665 44.3565 80.5511 44.2727 80.1875 44.2727C79.7869 44.2727 79.4403 44.3722 79.1477 44.571C78.858 44.767 78.6349 45.0227 78.4787 45.3381C78.3224 45.6534 78.2443 45.9915 78.2443 46.3523V46.9318C78.2443 47.4261 78.3295 47.8452 78.5 48.1889C78.6733 48.5298 78.9134 48.7898 79.2202 48.9688C79.527 49.1449 79.8835 49.233 80.2898 49.233C80.554 49.233 80.7926 49.196 81.0057 49.1222C81.2216 49.0455 81.4077 48.9318 81.5639 48.7812C81.7202 48.6278 81.8409 48.4375 81.9261 48.2102L82.8977 48.483C82.7955 48.8125 82.6236 49.1023 82.3821 49.3523C82.1406 49.5994 81.8423 49.7926 81.4872 49.9318C81.1321 50.0682 80.733 50.1364 80.2898 50.1364ZM87.4446 43.4545V44.3068H83.9162V43.4545H87.4446ZM84.973 50V42.5511C84.973 42.1761 85.0611 41.8636 85.2372 41.6136C85.4134 41.3636 85.642 41.1761 85.9233 41.0511C86.2045 40.9261 86.5014 40.8636 86.8139 40.8636C87.0611 40.8636 87.2628 40.8835 87.419 40.9233C87.5753 40.9631 87.6918 41 87.7685 41.0341L87.4787 41.9034C87.4276 41.8864 87.3565 41.8651 87.2656 41.8395C87.1776 41.8139 87.0611 41.8011 86.9162 41.8011C86.5838 41.8011 86.3438 41.8849 86.196 42.0526C86.0511 42.2202 85.9787 42.4659 85.9787 42.7898V50H84.973ZM90.5927 50.1534C90.1779 50.1534 89.8015 50.0753 89.4634 49.919C89.1254 49.7599 88.8569 49.5312 88.658 49.233C88.4592 48.9318 88.3597 48.5682 88.3597 48.142C88.3597 47.767 88.4336 47.4631 88.5813 47.2301C88.729 46.9943 88.9265 46.8097 89.1737 46.6761C89.4208 46.5426 89.6935 46.4432 89.9918 46.3778C90.293 46.3097 90.5955 46.2557 90.8995 46.2159C91.2972 46.1648 91.6197 46.1264 91.8668 46.1009C92.1168 46.0724 92.2987 46.0256 92.4123 45.9602C92.5288 45.8949 92.587 45.7812 92.587 45.6193V45.5852C92.587 45.1648 92.4719 44.8381 92.2418 44.6051C92.0146 44.3722 91.6694 44.2557 91.2063 44.2557C90.7262 44.2557 90.3498 44.3608 90.0771 44.571C89.8043 44.7812 89.6126 45.0057 89.5018 45.2443L88.5472 44.9034C88.7177 44.5057 88.945 44.196 89.229 43.9744C89.516 43.75 89.8285 43.5937 90.1665 43.5057C90.5075 43.4148 90.8427 43.3693 91.1722 43.3693C91.3825 43.3693 91.6239 43.3949 91.8967 43.446C92.1722 43.4943 92.4379 43.5952 92.6935 43.7486C92.9521 43.902 93.1665 44.1335 93.337 44.4432C93.5075 44.7528 93.5927 45.1676 93.5927 45.6875V50H92.587V49.1136H92.5359C92.4677 49.2557 92.354 49.4077 92.195 49.5696C92.0359 49.7315 91.8242 49.8693 91.56 49.983C91.2958 50.0966 90.9734 50.1534 90.5927 50.1534ZM90.7461 49.25C91.1438 49.25 91.479 49.1719 91.7518 49.0156C92.0273 48.8594 92.2347 48.6577 92.3739 48.4105C92.516 48.1634 92.587 47.9034 92.587 47.6307V46.7102C92.5444 46.7614 92.4506 46.8082 92.3058 46.8509C92.1637 46.8906 91.9989 46.9261 91.8114 46.9574C91.6268 46.9858 91.4464 47.0114 91.2702 47.0341C91.0969 47.054 90.9563 47.071 90.8484 47.0852C90.587 47.1193 90.3427 47.1747 90.1154 47.2514C89.891 47.3253 89.7092 47.4375 89.57 47.5881C89.4336 47.7358 89.3654 47.9375 89.3654 48.1932C89.3654 48.5426 89.4947 48.8068 89.7532 48.9858C90.0146 49.1619 90.3455 49.25 90.7461 49.25ZM99.5533 47.3239V43.4545H100.559V50H99.5533V48.892H99.4851C99.3317 49.2244 99.093 49.5071 98.7692 49.7401C98.4453 49.9702 98.0362 50.0852 97.5419 50.0852C97.1328 50.0852 96.7692 49.9957 96.451 49.8168C96.1328 49.6349 95.8828 49.3622 95.701 48.9986C95.5192 48.6321 95.4283 48.1705 95.4283 47.6136V43.4545H96.4339V47.5455C96.4339 48.0227 96.5675 48.4034 96.8345 48.6875C97.1044 48.9716 97.4482 49.1136 97.8658 49.1136C98.1158 49.1136 98.37 49.0497 98.6286 48.9219C98.8899 48.794 99.1087 48.598 99.2848 48.3338C99.4638 48.0696 99.5533 47.733 99.5533 47.3239ZM103.407 41.2727V50H102.401V41.2727H103.407ZM108.095 43.4545V44.3068H104.703V43.4545H108.095ZM105.692 41.8864H106.697V48.125C106.697 48.4091 106.739 48.6222 106.821 48.7642C106.906 48.9034 107.014 48.9972 107.145 49.0455C107.278 49.0909 107.419 49.1136 107.567 49.1136C107.678 49.1136 107.768 49.108 107.839 49.0966C107.911 49.0824 107.967 49.071 108.01 49.0625L108.214 49.9659C108.146 49.9915 108.051 50.017 107.929 50.0426C107.807 50.071 107.652 50.0852 107.464 50.0852C107.18 50.0852 106.902 50.0241 106.629 49.902C106.359 49.7798 106.135 49.5938 105.956 49.3438C105.78 49.0938 105.692 48.7784 105.692 48.3977V41.8864ZM116.733 45.1676V46.1051H112.915V45.1676H116.733ZM124.707 50H122.014V41.2727H124.826C125.673 41.2727 126.397 41.4474 127 41.7969C127.602 42.1435 128.064 42.642 128.385 43.2926C128.706 43.9403 128.866 44.7159 128.866 45.6193C128.866 46.5284 128.704 47.3111 128.38 47.9673C128.056 48.6207 127.585 49.1236 126.966 49.4759C126.346 49.8253 125.593 50 124.707 50ZM123.071 49.0625H124.639C125.36 49.0625 125.958 48.9233 126.433 48.6449C126.907 48.3665 127.261 47.9702 127.494 47.456C127.727 46.9418 127.843 46.3295 127.843 45.6193C127.843 44.9148 127.728 44.3082 127.498 43.7997C127.268 43.2884 126.924 42.8963 126.467 42.6236C126.01 42.348 125.44 42.2102 124.758 42.2102H123.071V49.0625ZM132.429 50.1534C132.014 50.1534 131.637 50.0753 131.299 49.919C130.961 49.7599 130.693 49.5312 130.494 49.233C130.295 48.9318 130.196 48.5682 130.196 48.142C130.196 47.767 130.27 47.4631 130.417 47.2301C130.565 46.9943 130.762 46.8097 131.01 46.6761C131.257 46.5426 131.529 46.4432 131.828 46.3778C132.129 46.3097 132.431 46.2557 132.735 46.2159C133.133 46.1648 133.456 46.1264 133.703 46.1009C133.953 46.0724 134.135 46.0256 134.248 45.9602C134.365 45.8949 134.423 45.7812 134.423 45.6193V45.5852C134.423 45.1648 134.308 44.8381 134.078 44.6051C133.85 44.3722 133.505 44.2557 133.042 44.2557C132.562 44.2557 132.186 44.3608 131.913 44.571C131.64 44.7812 131.449 45.0057 131.338 45.2443L130.383 44.9034C130.554 44.5057 130.781 44.196 131.065 43.9744C131.352 43.75 131.664 43.5937 132.002 43.5057C132.343 43.4148 132.679 43.3693 133.008 43.3693C133.218 43.3693 133.46 43.3949 133.733 43.446C134.008 43.4943 134.274 43.5952 134.529 43.7486C134.788 43.902 135.002 44.1335 135.173 44.4432C135.343 44.7528 135.429 45.1676 135.429 45.6875V50H134.423V49.1136H134.372C134.304 49.2557 134.19 49.4077 134.031 49.5696C133.872 49.7315 133.66 49.8693 133.396 49.983C133.132 50.0966 132.809 50.1534 132.429 50.1534ZM132.582 49.25C132.98 49.25 133.315 49.1719 133.588 49.0156C133.863 48.8594 134.071 48.6577 134.21 48.4105C134.352 48.1634 134.423 47.9034 134.423 47.6307V46.7102C134.38 46.7614 134.287 46.8082 134.142 46.8509C134 46.8906 133.835 46.9261 133.647 46.9574C133.463 46.9858 133.282 47.0114 133.106 47.0341C132.933 47.054 132.792 47.071 132.684 47.0852C132.423 47.1193 132.179 47.1747 131.951 47.2514C131.727 47.3253 131.545 47.4375 131.406 47.5881C131.27 47.7358 131.201 47.9375 131.201 48.1932C131.201 48.5426 131.331 48.8068 131.589 48.9858C131.85 49.1619 132.181 49.25 132.582 49.25ZM140.111 43.4545V44.3068H136.719V43.4545H140.111ZM137.707 41.8864H138.713V48.125C138.713 48.4091 138.754 48.6222 138.837 48.7642C138.922 48.9034 139.03 48.9972 139.161 49.0455C139.294 49.0909 139.435 49.1136 139.582 49.1136C139.693 49.1136 139.784 49.108 139.855 49.0966C139.926 49.0824 139.983 49.071 140.026 49.0625L140.23 49.9659C140.162 49.9915 140.067 50.017 139.945 50.0426C139.822 50.071 139.668 50.0852 139.48 50.0852C139.196 50.0852 138.918 50.0241 138.645 49.902C138.375 49.7798 138.151 49.5938 137.972 49.3438C137.795 49.0938 137.707 48.7784 137.707 48.3977V41.8864ZM144.298 50.1364C143.667 50.1364 143.123 49.9972 142.665 49.7188C142.211 49.4375 141.86 49.0455 141.613 48.5426C141.369 48.0369 141.246 47.4489 141.246 46.7784C141.246 46.108 141.369 45.517 141.613 45.0057C141.86 44.4915 142.204 44.0909 142.644 43.804C143.087 43.5142 143.604 43.3693 144.195 43.3693C144.536 43.3693 144.873 43.4261 145.205 43.5398C145.538 43.6534 145.84 43.8381 146.113 44.0938C146.386 44.3466 146.603 44.6818 146.765 45.0994C146.927 45.517 147.008 46.0312 147.008 46.642V47.0682H141.962V46.1989H145.985C145.985 45.8295 145.911 45.5 145.763 45.2102C145.619 44.9205 145.411 44.6918 145.141 44.5241C144.874 44.3565 144.559 44.2727 144.195 44.2727C143.795 44.2727 143.448 44.3722 143.156 44.571C142.866 44.767 142.643 45.0227 142.487 45.3381C142.33 45.6534 142.252 45.9915 142.252 46.3523V46.9318C142.252 47.4261 142.337 47.8452 142.508 48.1889C142.681 48.5298 142.921 48.7898 143.228 48.9688C143.535 49.1449 143.891 49.233 144.298 49.233C144.562 49.233 144.8 49.196 145.013 49.1222C145.229 49.0455 145.415 48.9318 145.572 48.7812C145.728 48.6278 145.849 48.4375 145.934 48.2102L146.906 48.483C146.803 48.8125 146.631 49.1023 146.39 49.3523C146.148 49.5994 145.85 49.7926 145.495 49.9318C145.14 50.0682 144.741 50.1364 144.298 50.1364ZM153.839 50.1534C153.424 50.1534 153.048 50.0753 152.71 49.919C152.371 49.7599 152.103 49.5312 151.904 49.233C151.705 48.9318 151.606 48.5682 151.606 48.142C151.606 47.767 151.68 47.4631 151.827 47.2301C151.975 46.9943 152.173 46.8097 152.42 46.6761C152.667 46.5426 152.94 46.4432 153.238 46.3778C153.539 46.3097 153.842 46.2557 154.146 46.2159C154.543 46.1648 154.866 46.1264 155.113 46.1009C155.363 46.0724 155.545 46.0256 155.658 45.9602C155.775 45.8949 155.833 45.7812 155.833 45.6193V45.5852C155.833 45.1648 155.718 44.8381 155.488 44.6051C155.261 44.3722 154.915 44.2557 154.452 44.2557C153.972 44.2557 153.596 44.3608 153.323 44.571C153.05 44.7812 152.859 45.0057 152.748 45.2443L151.793 44.9034C151.964 44.5057 152.191 44.196 152.475 43.9744C152.762 43.75 153.075 43.5937 153.413 43.5057C153.754 43.4148 154.089 43.3693 154.418 43.3693C154.629 43.3693 154.87 43.3949 155.143 43.446C155.418 43.4943 155.684 43.5952 155.94 43.7486C156.198 43.902 156.413 44.1335 156.583 44.4432C156.754 44.7528 156.839 45.1676 156.839 45.6875V50H155.833V49.1136H155.782C155.714 49.2557 155.6 49.4077 155.441 49.5696C155.282 49.7315 155.07 49.8693 154.806 49.983C154.542 50.0966 154.219 50.1534 153.839 50.1534ZM153.992 49.25C154.39 49.25 154.725 49.1719 154.998 49.0156C155.273 48.8594 155.481 48.6577 155.62 48.4105C155.762 48.1634 155.833 47.9034 155.833 47.6307V46.7102C155.79 46.7614 155.697 46.8082 155.552 46.8509C155.41 46.8906 155.245 46.9261 155.058 46.9574C154.873 46.9858 154.692 47.0114 154.516 47.0341C154.343 47.054 154.202 47.071 154.094 47.0852C153.833 47.1193 153.589 47.1747 153.362 47.2514C153.137 47.3253 152.955 47.4375 152.816 47.5881C152.68 47.7358 152.612 47.9375 152.612 48.1932C152.612 48.5426 152.741 48.8068 152.999 48.9858C153.261 49.1619 153.592 49.25 153.992 49.25ZM159.68 46.0625V50H158.674V43.4545H159.646V44.4773H159.731C159.885 44.1449 160.118 43.8778 160.43 43.6761C160.743 43.4716 161.146 43.3693 161.64 43.3693C162.083 43.3693 162.471 43.4602 162.804 43.642C163.136 43.821 163.395 44.0938 163.579 44.4602C163.764 44.8239 163.856 45.2841 163.856 45.8409V50H162.85V45.9091C162.85 45.3949 162.717 44.9943 162.45 44.7074C162.183 44.4176 161.816 44.2727 161.35 44.2727C161.029 44.2727 160.743 44.3423 160.49 44.4815C160.24 44.6207 160.042 44.8239 159.897 45.0909C159.752 45.358 159.68 45.6818 159.68 46.0625ZM168.165 50.1364C167.62 50.1364 167.138 49.9986 166.721 49.723C166.303 49.4446 165.977 49.0526 165.741 48.5469C165.505 48.0384 165.387 47.4375 165.387 46.7443C165.387 46.0568 165.505 45.4602 165.741 44.9545C165.977 44.4489 166.305 44.0582 166.725 43.7827C167.146 43.5071 167.631 43.3693 168.183 43.3693C168.609 43.3693 168.945 43.4403 169.192 43.5824C169.442 43.7216 169.633 43.8807 169.763 44.0597C169.897 44.2358 170.001 44.3807 170.075 44.4943H170.16V41.2727H171.165V50H170.194V48.9943H170.075C170.001 49.1136 169.896 49.2642 169.759 49.446C169.623 49.625 169.428 49.7855 169.175 49.9276C168.923 50.0668 168.586 50.1364 168.165 50.1364ZM168.302 49.233C168.705 49.233 169.046 49.1278 169.325 48.9176C169.603 48.7045 169.815 48.4105 169.96 48.0355C170.104 47.6577 170.177 47.2216 170.177 46.7273C170.177 46.2386 170.106 45.8111 169.964 45.4446C169.822 45.0753 169.612 44.7884 169.333 44.5838C169.055 44.3764 168.711 44.2727 168.302 44.2727C167.876 44.2727 167.521 44.3821 167.237 44.6009C166.955 44.8168 166.744 45.1108 166.602 45.483C166.462 45.8523 166.393 46.267 166.393 46.7273C166.393 47.1932 166.464 47.6165 166.606 47.9972C166.751 48.375 166.964 48.6761 167.245 48.9006C167.529 49.1222 167.881 49.233 168.302 49.233ZM179.369 43.4545V44.3068H175.977V43.4545H179.369ZM176.965 41.8864H177.971V48.125C177.971 48.4091 178.012 48.6222 178.094 48.7642C178.18 48.9034 178.288 48.9972 178.418 49.0455C178.552 49.0909 178.692 49.1136 178.84 49.1136C178.951 49.1136 179.042 49.108 179.113 49.0966C179.184 49.0824 179.241 49.071 179.283 49.0625L179.488 49.9659C179.42 49.9915 179.325 50.017 179.202 50.0426C179.08 50.071 178.925 50.0852 178.738 50.0852C178.454 50.0852 178.175 50.0241 177.903 49.902C177.633 49.7798 177.408 49.5938 177.229 49.3438C177.053 49.0938 176.965 48.7784 176.965 48.3977V41.8864ZM180.881 50V43.4545H181.887V50H180.881ZM181.393 42.3636C181.197 42.3636 181.028 42.2969 180.886 42.1634C180.746 42.0298 180.677 41.8693 180.677 41.6818C180.677 41.4943 180.746 41.3338 180.886 41.2003C181.028 41.0668 181.197 41 181.393 41C181.589 41 181.756 41.0668 181.896 41.2003C182.038 41.3338 182.109 41.4943 182.109 41.6818C182.109 41.8693 182.038 42.0298 181.896 42.1634C181.756 42.2969 181.589 42.3636 181.393 42.3636ZM183.729 50V43.4545H184.701V44.4773H184.786C184.922 44.1278 185.142 43.8565 185.446 43.6634C185.75 43.4673 186.115 43.3693 186.542 43.3693C186.973 43.3693 187.333 43.4673 187.62 43.6634C187.909 43.8565 188.135 44.1278 188.297 44.4773H188.365C188.533 44.1392 188.784 43.8707 189.12 43.6719C189.455 43.4702 189.857 43.3693 190.326 43.3693C190.911 43.3693 191.39 43.5526 191.762 43.919C192.134 44.2827 192.32 44.8494 192.32 45.6193V50H191.314V45.6193C191.314 45.1364 191.182 44.7912 190.918 44.5838C190.654 44.3764 190.343 44.2727 189.985 44.2727C189.525 44.2727 189.168 44.4119 188.915 44.6903C188.662 44.9659 188.536 45.3153 188.536 45.7386V50H187.513V45.517C187.513 45.1449 187.392 44.8452 187.151 44.6179C186.909 44.3878 186.598 44.2727 186.218 44.2727C185.956 44.2727 185.712 44.3423 185.485 44.4815C185.26 44.6207 185.078 44.8139 184.939 45.0611C184.803 45.3054 184.735 45.5881 184.735 45.9091V50H183.729ZM196.903 50.1364C196.272 50.1364 195.728 49.9972 195.271 49.7188C194.816 49.4375 194.466 49.0455 194.218 48.5426C193.974 48.0369 193.852 47.4489 193.852 46.7784C193.852 46.108 193.974 45.517 194.218 45.0057C194.466 44.4915 194.809 44.0909 195.25 43.804C195.693 43.5142 196.21 43.3693 196.801 43.3693C197.142 43.3693 197.478 43.4261 197.811 43.5398C198.143 43.6534 198.446 43.8381 198.718 44.0938C198.991 44.3466 199.208 44.6818 199.37 45.0994C199.532 45.517 199.613 46.0312 199.613 46.642V47.0682H194.568V46.1989H198.591C198.591 45.8295 198.517 45.5 198.369 45.2102C198.224 44.9205 198.017 44.6918 197.747 44.5241C197.48 44.3565 197.164 44.2727 196.801 44.2727C196.4 44.2727 196.054 44.3722 195.761 44.571C195.471 44.767 195.248 45.0227 195.092 45.3381C194.936 45.6534 194.858 45.9915 194.858 46.3523V46.9318C194.858 47.4261 194.943 47.8452 195.113 48.1889C195.287 48.5298 195.527 48.7898 195.833 48.9688C196.14 49.1449 196.497 49.233 196.903 49.233C197.167 49.233 197.406 49.196 197.619 49.1222C197.835 49.0455 198.021 48.9318 198.177 48.7812C198.333 48.6278 198.454 48.4375 198.539 48.2102L199.511 48.483C199.409 48.8125 199.237 49.1023 198.995 49.3523C198.754 49.5994 198.456 49.7926 198.1 49.9318C197.745 50.0682 197.346 50.1364 196.903 50.1364Z" fill="black"/>
<path d="M417.415 50H416.307L419.511 41.2727H420.602L423.807 50H422.699L420.091 42.6534H420.023L417.415 50ZM417.824 46.5909H422.29V47.5284H417.824V46.5909ZM427.689 50.1364C427.075 50.1364 426.547 49.9915 426.104 49.7017C425.661 49.4119 425.32 49.0128 425.081 48.5043C424.842 47.9957 424.723 47.4148 424.723 46.7614C424.723 46.0966 424.845 45.5099 425.089 45.0014C425.337 44.4901 425.68 44.0909 426.121 43.804C426.564 43.5142 427.081 43.3693 427.672 43.3693C428.132 43.3693 428.547 43.4545 428.916 43.625C429.286 43.7955 429.588 44.0341 429.824 44.3409C430.06 44.6477 430.206 45.0057 430.263 45.4148H429.257C429.18 45.1165 429.01 44.8523 428.746 44.6222C428.484 44.3892 428.132 44.2727 427.689 44.2727C427.297 44.2727 426.953 44.375 426.658 44.5795C426.365 44.7812 426.136 45.0668 425.972 45.4361C425.81 45.8026 425.729 46.233 425.729 46.7273C425.729 47.233 425.808 47.6733 425.967 48.0483C426.129 48.4233 426.357 48.7145 426.649 48.9219C426.945 49.1293 427.291 49.233 427.689 49.233C427.95 49.233 428.188 49.1875 428.401 49.0966C428.614 49.0057 428.794 48.875 428.942 48.7045C429.089 48.5341 429.195 48.3295 429.257 48.0909H430.263C430.206 48.4773 430.065 48.8253 429.841 49.1349C429.619 49.4418 429.325 49.6861 428.959 49.8679C428.595 50.0469 428.172 50.1364 427.689 50.1364ZM434.58 43.4545V44.3068H431.188V43.4545H434.58ZM432.176 41.8864H433.182V48.125C433.182 48.4091 433.223 48.6222 433.305 48.7642C433.391 48.9034 433.499 48.9972 433.629 49.0455C433.763 49.0909 433.903 49.1136 434.051 49.1136C434.162 49.1136 434.253 49.108 434.324 49.0966C434.395 49.0824 434.452 49.071 434.494 49.0625L434.699 49.9659C434.631 49.9915 434.536 50.017 434.413 50.0426C434.291 50.071 434.136 50.0852 433.949 50.0852C433.665 50.0852 433.386 50.0241 433.114 49.902C432.844 49.7798 432.619 49.5938 432.44 49.3438C432.264 49.0938 432.176 48.7784 432.176 48.3977V41.8864ZM436.092 50V43.4545H437.098V50H436.092ZM436.604 42.3636C436.408 42.3636 436.239 42.2969 436.097 42.1634C435.957 42.0298 435.888 41.8693 435.888 41.6818C435.888 41.4943 435.957 41.3338 436.097 41.2003C436.239 41.0668 436.408 41 436.604 41C436.8 41 436.967 41.0668 437.107 41.2003C437.249 41.3338 437.32 41.4943 437.32 41.6818C437.32 41.8693 437.249 42.0298 437.107 42.1634C436.967 42.2969 436.8 42.3636 436.604 42.3636ZM444.292 43.4545L441.872 50H440.849L438.429 43.4545H439.52L441.326 48.6705H441.395L443.201 43.4545H444.292ZM448.13 50.1364C447.499 50.1364 446.955 49.9972 446.498 49.7188C446.043 49.4375 445.692 49.0455 445.445 48.5426C445.201 48.0369 445.078 47.4489 445.078 46.7784C445.078 46.108 445.201 45.517 445.445 45.0057C445.692 44.4915 446.036 44.0909 446.476 43.804C446.919 43.5142 447.436 43.3693 448.027 43.3693C448.368 43.3693 448.705 43.4261 449.037 43.5398C449.37 43.6534 449.672 43.8381 449.945 44.0938C450.218 44.3466 450.435 44.6818 450.597 45.0994C450.759 45.517 450.84 46.0312 450.84 46.642V47.0682H445.794V46.1989H449.817C449.817 45.8295 449.743 45.5 449.596 45.2102C449.451 44.9205 449.243 44.6918 448.973 44.5241C448.706 44.3565 448.391 44.2727 448.027 44.2727C447.627 44.2727 447.28 44.3722 446.988 44.571C446.698 44.767 446.475 45.0227 446.319 45.3381C446.162 45.6534 446.084 45.9915 446.084 46.3523V46.9318C446.084 47.4261 446.169 47.8452 446.34 48.1889C446.513 48.5298 446.753 48.7898 447.06 48.9688C447.367 49.1449 447.723 49.233 448.13 49.233C448.394 49.233 448.632 49.196 448.846 49.1222C449.061 49.0455 449.248 48.9318 449.404 48.7812C449.56 48.6278 449.681 48.4375 449.766 48.2102L450.738 48.483C450.635 48.8125 450.463 49.1023 450.222 49.3523C449.98 49.5994 449.682 49.7926 449.327 49.9318C448.972 50.0682 448.573 50.1364 448.13 50.1364Z" fill="black"/>
<defs>
<filter id="filter0_dd_915_38831" x="404" y="122" width="344" height="219" filterUnits="userSpaceOnUse" color-interpolation-filters="sRGB">
<feFlood flood-opacity="0" result="BackgroundImageFix"/>
<feColorMatrix in="SourceAlpha" type="matrix" values="0 0 0 0 0 0 0 0 0 0 0 0 0 0 0 0 0 0 127 0" result="hardAlpha"/>
<feMorphology radius="2" operator="erode" in="SourceAlpha" result="effect1_dropShadow_915_38831"/>
<feOffset dy="4"/>
<feGaussianBlur stdDeviation="3"/>
<feColorMatrix type="matrix" values="0 0 0 0 0.0627451 0 0 0 0 0.0941176 0 0 0 0 0.156863 0 0 0 0.03 0"/>
<feBlend mode="normal" in2="BackgroundImageFix" result="effect1_dropShadow_915_38831"/>
<feColorMatrix in="SourceAlpha" type="matrix" values="0 0 0 0 0 0 0 0 0 0 0 0 0 0 0 0 0 0 127 0" result="hardAlpha"/>
<feMorphology radius="4" operator="erode" in="SourceAlpha" result="effect2_dropShadow_915_38831"/>
<feOffset dy="12"/>
<feGaussianBlur stdDeviation="8"/>
<feColorMatrix type="matrix" values="0 0 0 0 0.0627451 0 0 0 0 0.0941176 0 0 0 0 0.156863 0 0 0 0.08 0"/>
<feBlend mode="normal" in2="effect1_dropShadow_915_38831" result="effect2_dropShadow_915_38831"/>
<feBlend mode="normal" in="SourceGraphic" in2="effect2_dropShadow_915_38831" result="shape"/>
</filter>
<clipPath id="clip0_915_38831">
<rect width="20" height="20" fill="white" transform="translate(356 90)"/>
</clipPath>
<clipPath id="clip1_915_38831">
<rect width="20" height="20" fill="white" transform="translate(704 90)"/>
</clipPath>
<clipPath id="clip2_915_38831">
<rect x="416" y="122" width="320" height="195" rx="3" fill="white"/>
</clipPath>
</defs>
</svg>
