<svg width="804" height="146" viewBox="0 0 804 146" fill="none" xmlns="http://www.w3.org/2000/svg">
<rect width="804.002" height="145.781" fill="#F9FAFB"/>
<rect x="306.057" y="65.4636" width="55.9534" height="15.0742" rx="1.3805" fill="white"/>
<path d="M319.4 73.0066H314.246M314.246 73.0066L316.823 75.5835M314.246 73.0066L316.823 70.4297" stroke="#344054" stroke-width="0.922172" stroke-linecap="round" stroke-linejoin="round"/>
<path d="M326.292 75.5V70.2792H328.056C328.466 70.2792 328.801 70.3531 329.061 70.501C329.323 70.6471 329.516 70.8451 329.642 71.095C329.768 71.3448 329.831 71.6235 329.831 71.9311C329.831 72.2387 329.768 72.5183 329.642 72.7698C329.518 73.0213 329.326 73.2219 329.066 73.3714C328.806 73.5193 328.473 73.5932 328.067 73.5932H326.802V73.0324H328.046C328.327 73.0324 328.552 72.9839 328.722 72.8871C328.892 72.7902 329.015 72.6593 329.091 72.4945C329.17 72.3279 329.209 72.1401 329.209 71.9311C329.209 71.7221 329.17 71.5351 329.091 71.3703C329.015 71.2054 328.891 71.0763 328.719 70.9828C328.548 70.8876 328.32 70.84 328.036 70.84H326.925V75.5H326.292ZM330.768 75.5V71.5844H331.349V72.1758H331.39C331.461 71.9821 331.59 71.8249 331.777 71.7042C331.964 71.5836 332.175 71.5232 332.409 71.5232C332.453 71.5232 332.509 71.5241 332.575 71.5258C332.641 71.5275 332.691 71.53 332.725 71.5334V72.1452C332.705 72.1401 332.658 72.1325 332.585 72.1223C332.514 72.1104 332.438 72.1044 332.358 72.1044C332.168 72.1044 331.998 72.1444 331.848 72.2243C331.701 72.3024 331.583 72.4112 331.497 72.5506C331.412 72.6882 331.369 72.8454 331.369 73.0222V75.5H330.768ZM334.961 75.5816C334.584 75.5816 334.258 75.4983 333.985 75.3318C333.713 75.1635 333.503 74.929 333.355 74.6282C333.209 74.3257 333.136 73.9739 333.136 73.5728C333.136 73.1717 333.209 72.8182 333.355 72.5123C333.503 72.2047 333.708 71.9651 333.972 71.7934C334.237 71.6201 334.546 71.5334 334.9 71.5334C335.104 71.5334 335.305 71.5674 335.504 71.6354C335.703 71.7034 335.884 71.8138 336.047 71.9668C336.21 72.118 336.34 72.3186 336.437 72.5684C336.534 72.8182 336.582 73.1258 336.582 73.4912V73.7461H333.564V73.2261H335.97C335.97 73.0052 335.926 72.808 335.838 72.6347C335.751 72.4613 335.627 72.3245 335.466 72.2243C335.306 72.124 335.117 72.0739 334.9 72.0739C334.66 72.0739 334.453 72.1333 334.278 72.2523C334.104 72.3696 333.971 72.5225 333.878 72.7112C333.784 72.8998 333.737 73.102 333.737 73.3179V73.6646C333.737 73.9603 333.788 74.2109 333.89 74.4166C333.994 74.6205 334.138 74.776 334.321 74.8831C334.505 74.9885 334.718 75.0411 334.961 75.0411C335.119 75.0411 335.262 75.019 335.389 74.9749C335.518 74.929 335.63 74.861 335.723 74.7709C335.817 74.6792 335.889 74.5653 335.94 74.4293L336.521 74.5925C336.46 74.7896 336.357 74.963 336.213 75.1125C336.068 75.2604 335.89 75.3759 335.677 75.4592C335.465 75.5408 335.226 75.5816 334.961 75.5816ZM340.58 71.5844L339.132 75.5H338.52L337.072 71.5844H337.725L338.806 74.7046H338.847L339.927 71.5844H340.58ZM341.374 75.5V71.5844H341.976V75.5H341.374ZM341.68 70.9318C341.563 70.9318 341.462 70.8919 341.377 70.812C341.293 70.7321 341.252 70.6361 341.252 70.5239C341.252 70.4118 341.293 70.3157 341.377 70.2359C341.462 70.156 341.563 70.1161 341.68 70.1161C341.797 70.1161 341.898 70.156 341.981 70.2359C342.066 70.3157 342.108 70.4118 342.108 70.5239C342.108 70.6361 342.066 70.7321 341.981 70.812C341.898 70.8919 341.797 70.9318 341.68 70.9318ZM344.668 75.5816C344.315 75.5816 344.005 75.4975 343.738 75.3292C343.473 75.161 343.265 74.9256 343.116 74.6231C342.968 74.3206 342.894 73.9671 342.894 73.5626C342.894 73.1547 342.968 72.7987 343.116 72.4945C343.265 72.1903 343.473 71.954 343.738 71.7858C344.005 71.6175 344.315 71.5334 344.668 71.5334C345.022 71.5334 345.331 71.6175 345.596 71.7858C345.863 71.954 346.07 72.1903 346.218 72.4945C346.368 72.7987 346.443 73.1547 346.443 73.5626C346.443 73.9671 346.368 74.3206 346.218 74.6231C346.07 74.9256 345.863 75.161 345.596 75.3292C345.331 75.4975 345.022 75.5816 344.668 75.5816ZM344.668 75.0411C344.937 75.0411 345.158 74.9723 345.331 74.8347C345.505 74.697 345.633 74.516 345.716 74.2917C345.799 74.0673 345.841 73.8243 345.841 73.5626C345.841 73.3009 345.799 73.057 345.716 72.831C345.633 72.6049 345.505 72.4222 345.331 72.2829C345.158 72.1435 344.937 72.0739 344.668 72.0739C344.4 72.0739 344.179 72.1435 344.006 72.2829C343.832 72.4222 343.704 72.6049 343.621 72.831C343.537 73.057 343.496 73.3009 343.496 73.5626C343.496 73.8243 343.537 74.0673 343.621 74.2917C343.704 74.516 343.832 74.697 344.006 74.8347C344.179 74.9723 344.4 75.0411 344.668 75.0411ZM349.829 73.8991V71.5844H350.43V75.5H349.829V74.8372H349.788C349.696 75.036 349.553 75.2051 349.36 75.3445C349.166 75.4822 348.921 75.551 348.625 75.551C348.381 75.551 348.163 75.4975 347.973 75.3904C347.782 75.2816 347.633 75.1185 347.524 74.9009C347.415 74.6817 347.361 74.4055 347.361 74.0724V71.5844H347.963V74.0317C347.963 74.3172 348.042 74.5449 348.202 74.7148C348.364 74.8848 348.569 74.9698 348.819 74.9698C348.969 74.9698 349.121 74.9315 349.275 74.855C349.432 74.7786 349.563 74.6613 349.668 74.5033C349.775 74.3452 349.829 74.1438 349.829 73.8991ZM354.306 72.4613L353.765 72.6143C353.731 72.5242 353.681 72.4367 353.615 72.3517C353.55 72.265 353.462 72.1937 353.35 72.1376C353.238 72.0815 353.094 72.0535 352.919 72.0535C352.679 72.0535 352.48 72.1087 352.32 72.2192C352.162 72.3279 352.083 72.4664 352.083 72.6347C352.083 72.7842 352.137 72.9024 352.246 72.989C352.355 73.0757 352.525 73.1479 352.756 73.2057L353.337 73.3485C353.687 73.4334 353.948 73.5634 354.12 73.7385C354.291 73.9118 354.377 74.1353 354.377 74.4089C354.377 74.6333 354.312 74.8338 354.183 75.0106C354.056 75.1873 353.877 75.3267 353.648 75.4286C353.419 75.5306 353.152 75.5816 352.848 75.5816C352.448 75.5816 352.118 75.4949 351.856 75.3216C351.594 75.1482 351.428 74.895 351.359 74.5619L351.93 74.4191C351.984 74.6299 352.087 74.7879 352.238 74.8933C352.391 74.9987 352.591 75.0513 352.837 75.0513C353.118 75.0513 353.34 74.9919 353.505 74.8729C353.672 74.7522 353.755 74.6078 353.755 74.4395C353.755 74.3036 353.707 74.1897 353.612 74.0979C353.517 74.0045 353.371 73.9348 353.174 73.8889L352.521 73.7359C352.163 73.651 351.899 73.5193 351.731 73.3408C351.564 73.1607 351.481 72.9355 351.481 72.6653C351.481 72.4443 351.543 72.2489 351.667 72.079C351.793 71.909 351.964 71.7756 352.18 71.6787C352.397 71.5819 352.644 71.5334 352.919 71.5334C353.306 71.5334 353.611 71.6184 353.832 71.7883C354.054 71.9583 354.212 72.1826 354.306 72.4613Z" fill="#1A1A1A"/>
<rect x="306.057" y="65.4636" width="55.9534" height="15.0742" rx="1.3805" stroke="#D8DEE9" stroke-width="0.552199"/>
<g clip-path="url(#clip0_893_32743)">
<rect x="375.539" y="61.9531" width="22.088" height="22.088" rx="1.6566" fill="#EBF4FF"/>
<path d="M387.256 69.3776V75H386.405V70.2287H386.372L385.027 71.1072V70.2945L386.43 69.3776H387.256Z" fill="#217CF5"/>
</g>
<g clip-path="url(#clip1_893_32743)">
<path d="M407.814 75V74.3851L409.717 72.4139C409.92 72.1998 410.087 72.0122 410.219 71.8511C410.353 71.6882 410.453 71.5336 410.518 71.3872C410.584 71.2408 410.617 71.0852 410.617 70.9205C410.617 70.7338 410.573 70.5727 410.485 70.4373C410.398 70.3 410.278 70.1948 410.126 70.1216C409.974 70.0465 409.803 70.009 409.612 70.009C409.411 70.009 409.235 70.0502 409.085 70.1326C408.935 70.2149 408.82 70.3311 408.739 70.4812C408.659 70.6313 408.619 70.807 408.619 71.0083H407.809C407.809 70.6661 407.887 70.3668 408.045 70.1106C408.202 69.8544 408.418 69.6558 408.693 69.5149C408.967 69.3721 409.279 69.3007 409.629 69.3007C409.982 69.3007 410.293 69.3712 410.562 69.5121C410.833 69.6512 411.045 69.8416 411.196 70.0832C411.348 70.3229 411.424 70.5938 411.424 70.8958C411.424 71.1044 411.385 71.3085 411.306 71.508C411.229 71.7075 411.095 71.9298 410.903 72.1751C410.711 72.4185 410.443 72.7141 410.101 73.0618L408.984 74.2313V74.2725H411.515V75H407.814Z" fill="#707070"/>
</g>
<g clip-path="url(#clip2_893_32743)">
<path d="M432.963 75.0769C432.586 75.0769 432.249 75.0119 431.953 74.882C431.658 74.752 431.425 74.5717 431.253 74.3411C431.083 74.1087 430.991 73.8396 430.978 73.534H431.84C431.851 73.7006 431.907 73.8451 432.008 73.9678C432.11 74.0886 432.244 74.1819 432.409 74.2478C432.573 74.3137 432.756 74.3466 432.958 74.3466C433.179 74.3466 433.375 74.3082 433.545 74.2313C433.717 74.1544 433.852 74.0474 433.949 73.9101C434.046 73.771 434.094 73.6109 434.094 73.4297C434.094 73.2412 434.046 73.0755 433.949 72.9328C433.853 72.7882 433.713 72.6747 433.529 72.5924C433.346 72.51 433.124 72.4688 432.864 72.4688H432.389V71.777H432.864C433.073 71.777 433.256 71.7395 433.413 71.6645C433.573 71.5894 433.697 71.4851 433.787 71.3515C433.876 71.2161 433.921 71.0577 433.921 70.8765C433.921 70.7027 433.882 70.5517 433.803 70.4236C433.726 70.2936 433.616 70.1921 433.474 70.1188C433.333 70.0456 433.166 70.009 432.974 70.009C432.791 70.009 432.62 70.0429 432.461 70.1106C432.303 70.1765 432.175 70.2717 432.076 70.3961C431.978 70.5187 431.924 70.6661 431.917 70.8381H431.096C431.105 70.5343 431.195 70.2671 431.365 70.0365C431.537 69.8059 431.764 69.6256 432.046 69.4957C432.328 69.3657 432.641 69.3007 432.985 69.3007C433.346 69.3007 433.657 69.3712 433.918 69.5121C434.182 69.6512 434.385 69.837 434.528 70.0694C434.672 70.3019 434.744 70.5563 434.742 70.8326C434.744 71.1474 434.656 71.4146 434.478 71.6343C434.303 71.8539 434.069 72.0012 433.776 72.0762V72.1202C434.149 72.1769 434.438 72.3252 434.643 72.5649C434.85 72.8047 434.953 73.1021 434.951 73.4571C434.953 73.7664 434.866 74.0437 434.693 74.289C434.521 74.5342 434.285 74.7273 433.987 74.8682C433.689 75.0073 433.347 75.0769 432.963 75.0769Z" fill="#707070"/>
</g>
<g clip-path="url(#clip3_893_32743)">
<path d="M453.753 75.0522C453.603 75.0522 453.474 74.9991 453.366 74.8929C453.258 74.785 453.204 74.655 453.204 74.5031C453.204 74.353 453.258 74.2249 453.366 74.1188C453.474 74.0108 453.603 73.9568 453.753 73.9568C453.903 73.9568 454.032 74.0108 454.14 74.1188C454.248 74.2249 454.302 74.353 454.302 74.5031C454.302 74.6038 454.276 74.6962 454.225 74.7804C454.176 74.8627 454.11 74.9286 454.027 74.978C453.945 75.0275 453.853 75.0522 453.753 75.0522ZM455.942 75.0522C455.792 75.0522 455.663 74.9991 455.555 74.8929C455.447 74.785 455.393 74.655 455.393 74.5031C455.393 74.353 455.447 74.2249 455.555 74.1188C455.663 74.0108 455.792 73.9568 455.942 73.9568C456.092 73.9568 456.221 74.0108 456.329 74.1188C456.437 74.2249 456.491 74.353 456.491 74.5031C456.491 74.6038 456.466 74.6962 456.414 74.7804C456.365 74.8627 456.299 74.9286 456.217 74.978C456.134 75.0275 456.043 75.0522 455.942 75.0522ZM458.132 75.0522C457.981 75.0522 457.852 74.9991 457.744 74.8929C457.636 74.785 457.582 74.655 457.582 74.5031C457.582 74.353 457.636 74.2249 457.744 74.1188C457.852 74.0108 457.981 73.9568 458.132 73.9568C458.282 73.9568 458.411 74.0108 458.519 74.1188C458.627 74.2249 458.681 74.353 458.681 74.5031C458.681 74.6038 458.655 74.6962 458.604 74.7804C458.554 74.8627 458.488 74.9286 458.406 74.978C458.324 75.0275 458.232 75.0522 458.132 75.0522Z" fill="#707070"/>
</g>
<g clip-path="url(#clip4_893_32743)">
<path d="M479.292 75.0769C478.899 75.0769 478.551 75.0092 478.249 74.8737C477.949 74.7383 477.714 74.5516 477.543 74.3137C477.373 74.0757 477.289 73.8049 477.291 73.5011C477.289 73.2631 477.337 73.0444 477.436 72.8449C477.537 72.6436 477.673 72.4761 477.845 72.3425C478.017 72.2071 478.21 72.1211 478.422 72.0845V72.0515C478.142 71.9838 477.918 71.8337 477.749 71.6013C477.581 71.3689 477.498 71.1017 477.499 70.7997C477.498 70.5123 477.574 70.2561 477.727 70.031C477.883 69.804 478.096 69.6256 478.367 69.4957C478.638 69.3657 478.946 69.3007 479.292 69.3007C479.634 69.3007 479.94 69.3666 480.209 69.4984C480.48 69.6283 480.693 69.8068 480.849 70.0337C481.004 70.2589 481.083 70.5142 481.085 70.7997C481.083 71.1017 480.997 71.3689 480.827 71.6013C480.657 71.8337 480.435 71.9838 480.162 72.0515V72.0845C480.373 72.1211 480.562 72.2071 480.731 72.3425C480.901 72.4761 481.036 72.6436 481.137 72.8449C481.239 73.0444 481.292 73.2631 481.293 73.5011C481.292 73.8049 481.206 74.0757 481.035 74.3137C480.865 74.5516 480.629 74.7383 480.327 74.8737C480.027 75.0092 479.682 75.0769 479.292 75.0769ZM479.292 74.3823C479.525 74.3823 479.726 74.3439 479.896 74.267C480.066 74.1883 480.198 74.0794 480.291 73.9403C480.385 73.7994 480.432 73.6347 480.434 73.4462C480.432 73.2503 480.381 73.0774 480.28 72.9273C480.182 72.7772 480.047 72.6592 479.877 72.5731C479.707 72.4871 479.512 72.4441 479.292 72.4441C479.071 72.4441 478.874 72.4871 478.702 72.5731C478.53 72.6592 478.394 72.7772 478.296 72.9273C478.197 73.0774 478.148 73.2503 478.15 73.4462C478.148 73.6347 478.193 73.7994 478.285 73.9403C478.378 74.0794 478.511 74.1883 478.683 74.267C478.855 74.3439 479.058 74.3823 479.292 74.3823ZM479.292 71.766C479.479 71.766 479.644 71.7285 479.789 71.6535C479.934 71.5784 480.047 71.4741 480.129 71.3405C480.214 71.2069 480.257 71.0504 480.258 70.8711C480.257 70.6954 480.215 70.5416 480.132 70.4098C480.052 70.2781 479.939 70.1765 479.795 70.1051C479.65 70.0319 479.482 69.9953 479.292 69.9953C479.098 69.9953 478.928 70.0319 478.782 70.1051C478.637 70.1765 478.524 70.2781 478.444 70.4098C478.363 70.5416 478.324 70.6954 478.326 70.8711C478.324 71.0504 478.364 71.2069 478.447 71.3405C478.529 71.4741 478.642 71.5784 478.787 71.6535C478.933 71.7285 479.102 71.766 479.292 71.766Z" fill="#707070"/>
</g>
<g clip-path="url(#clip5_893_32743)">
<path d="M502.453 69.3007C502.704 69.3026 502.951 69.3483 503.195 69.438C503.438 69.5277 503.658 69.6741 503.853 69.8773C504.051 70.0804 504.209 70.3549 504.326 70.7008C504.445 71.0449 504.505 71.4732 504.507 71.9857C504.507 72.478 504.457 72.9163 504.359 73.3007C504.26 73.6832 504.118 74.0062 503.933 74.2697C503.75 74.5333 503.528 74.7337 503.266 74.871C503.004 75.0082 502.71 75.0769 502.382 75.0769C502.047 75.0769 501.75 75.011 501.49 74.8792C501.23 74.7474 501.018 74.5653 500.856 74.3329C500.693 74.0986 500.591 73.8296 500.551 73.5258H501.388C501.443 73.7674 501.555 73.9632 501.723 74.1133C501.893 74.2615 502.113 74.3356 502.382 74.3356C502.794 74.3356 503.115 74.1563 503.346 73.7976C503.576 73.437 503.692 72.9337 503.694 72.2876H503.65C503.555 72.445 503.436 72.5805 503.293 72.6939C503.152 72.8074 502.994 72.8953 502.818 72.9575C502.643 73.0197 502.455 73.0508 502.256 73.0508C501.932 73.0508 501.637 72.9712 501.372 72.812C501.106 72.6528 500.895 72.4341 500.738 72.1559C500.58 71.8777 500.501 71.5601 500.501 71.2032C500.501 70.8482 500.582 70.5261 500.743 70.2369C500.906 69.9477 501.133 69.7189 501.424 69.5506C501.717 69.3804 502.06 69.2971 502.453 69.3007ZM502.456 70.0145C502.242 70.0145 502.049 70.0676 501.877 70.1737C501.707 70.2781 501.572 70.4199 501.473 70.5993C501.374 70.7768 501.325 70.9745 501.325 71.1923C501.325 71.4101 501.373 71.6077 501.468 71.7852C501.565 71.9609 501.697 72.101 501.863 72.2053C502.031 72.3078 502.224 72.359 502.44 72.359C502.601 72.359 502.751 72.3279 502.89 72.2657C503.029 72.2034 503.151 72.1174 503.255 72.0076C503.359 71.896 503.441 71.7697 503.499 71.6288C503.558 71.4878 503.587 71.3396 503.587 71.184C503.587 70.9772 503.538 70.785 503.439 70.6075C503.342 70.43 503.208 70.2872 503.038 70.1792C502.868 70.0694 502.674 70.0145 502.456 70.0145Z" fill="#707070"/>
</g>
<g clip-path="url(#clip6_893_32743)">
<path d="M523.908 69.3776V75H523.057V70.2287H523.024L521.679 71.1072V70.2945L523.082 69.3776H523.908ZM527.387 75.0933C526.953 75.0915 526.582 74.9771 526.275 74.7502C525.967 74.5232 525.732 74.1929 525.569 73.7591C525.406 73.3254 525.325 72.8028 525.325 72.1916C525.325 71.5821 525.406 71.0614 525.569 70.6295C525.734 70.1975 525.97 69.8681 526.278 69.6412C526.587 69.4142 526.957 69.3007 527.387 69.3007C527.817 69.3007 528.185 69.4151 528.493 69.6439C528.8 69.8708 529.036 70.2003 529.199 70.6322C529.363 71.0623 529.446 71.5821 529.446 72.1916C529.446 72.8047 529.364 73.3281 529.201 73.7619C529.038 74.1938 528.803 74.5241 528.496 74.7529C528.188 74.9799 527.819 75.0933 527.387 75.0933ZM527.387 74.3603C527.767 74.3603 528.065 74.1746 528.279 73.803C528.495 73.4315 528.603 72.8943 528.603 72.1916C528.603 71.7248 528.553 71.3304 528.455 71.0083C528.358 70.6844 528.218 70.4391 528.035 70.2726C527.853 70.1042 527.637 70.02 527.387 70.02C527.008 70.02 526.71 70.2067 526.494 70.5801C526.278 70.9534 526.17 71.4906 526.168 72.1916C526.168 72.6601 526.216 73.0563 526.313 73.3803C526.412 73.7024 526.552 73.9467 526.733 74.1133C526.914 74.278 527.132 74.3603 527.387 74.3603Z" fill="#707070"/>
</g>
<rect x="550.307" y="65.4636" width="44.1622" height="15.0742" rx="1.3805" fill="white"/>
<path d="M562.534 70.2792V75.5H561.922L559.077 71.4009H559.026V75.5H558.394V70.2792H559.006L561.861 74.3885H561.912V70.2792H562.534ZM565.359 75.5816C564.982 75.5816 564.656 75.4983 564.383 75.3318C564.111 75.1635 563.901 74.929 563.753 74.6282C563.607 74.3257 563.534 73.9739 563.534 73.5728C563.534 73.1717 563.607 72.8182 563.753 72.5123C563.901 72.2047 564.107 71.9651 564.37 71.7934C564.635 71.6201 564.944 71.5334 565.298 71.5334C565.502 71.5334 565.703 71.5674 565.902 71.6354C566.101 71.7034 566.282 71.8138 566.445 71.9668C566.608 72.118 566.738 72.3186 566.835 72.5684C566.932 72.8182 566.98 73.1258 566.98 73.4912V73.7461H563.962V73.2261H566.369C566.369 73.0052 566.324 72.808 566.236 72.6347C566.149 72.4613 566.025 72.3245 565.864 72.2243C565.704 72.124 565.515 72.0739 565.298 72.0739C565.058 72.0739 564.851 72.1333 564.676 72.2523C564.502 72.3696 564.369 72.5225 564.276 72.7112C564.182 72.8998 564.135 73.102 564.135 73.3179V73.6646C564.135 73.9603 564.186 74.2109 564.288 74.4166C564.392 74.6205 564.536 74.776 564.719 74.8831C564.903 74.9885 565.116 75.0411 565.359 75.0411C565.517 75.0411 565.66 75.019 565.787 74.9749C565.916 74.929 566.028 74.861 566.121 74.7709C566.215 74.6792 566.287 74.5653 566.338 74.4293L566.919 74.5925C566.858 74.7896 566.755 74.963 566.611 75.1125C566.466 75.2604 566.288 75.3759 566.075 75.4592C565.863 75.5408 565.624 75.5816 565.359 75.5816ZM568.239 71.5844L569.177 73.1853L570.115 71.5844H570.809L569.544 73.5422L570.809 75.5H570.115L569.177 73.9807L568.239 75.5H567.546L568.79 73.5422L567.546 71.5844H568.239ZM573.37 71.5844V72.0942H571.341V71.5844H573.37ZM571.932 70.6463H572.534V74.3783C572.534 74.5483 572.558 74.6758 572.608 74.7607C572.659 74.844 572.723 74.9001 572.801 74.929C572.881 74.9562 572.965 74.9698 573.054 74.9698C573.12 74.9698 573.174 74.9664 573.217 74.9596C573.259 74.9511 573.293 74.9443 573.319 74.9392L573.441 75.4796C573.401 75.4949 573.344 75.5102 573.271 75.5255C573.197 75.5425 573.105 75.551 572.993 75.551C572.823 75.551 572.656 75.5144 572.493 75.4414C572.332 75.3683 572.197 75.257 572.09 75.1074C571.985 74.9579 571.932 74.7692 571.932 74.5415V70.6463Z" fill="#1A1A1A"/>
<path d="M580.02 73.0066H585.173M585.173 73.0066L582.596 70.4297M585.173 73.0066L582.596 75.5835" stroke="#344054" stroke-width="0.922172" stroke-linecap="round" stroke-linejoin="round"/>
<rect x="550.307" y="65.4636" width="44.1622" height="15.0742" rx="1.3805" stroke="#D8DEE9" stroke-width="0.552199"/>
<path d="M197 55.8803H608V54.7759H197V55.8803Z" fill="#EAECF0" mask="url(#path-1-outside-1_893_32743)"/>
<g clip-path="url(#clip7_893_32743)">
<rect x="272" y="28.7109" width="0.552199" height="25.9534" fill="#C54600"/>
<g clip-path="url(#clip8_893_32743)">
<rect x="265.379" y="28.7109" width="13.2528" height="13.2528" rx="6.62639" fill="#C54600"/>
<path d="M272.658 32.8917V37.7109H272.075V33.5036H272.046L270.87 34.2848V33.6918L272.075 32.8917H272.658Z" fill="white"/>
</g>
</g>
<g clip-path="url(#clip9_893_32743)">
<rect x="334.121" y="28.7109" width="0.552199" height="36.4451" fill="#C54600"/>
<g clip-path="url(#clip10_893_32743)">
<rect x="327.5" y="28.7109" width="13.2528" height="13.2528" rx="6.62639" fill="#C54600"/>
<path d="M332.619 37.7109V37.2874L334.21 35.5461C334.397 35.3421 334.55 35.1649 334.671 35.0143C334.792 34.8621 334.881 34.7193 334.939 34.586C334.999 34.4511 335.029 34.3099 335.029 34.1624C335.029 33.993 334.988 33.8463 334.906 33.7224C334.826 33.5985 334.717 33.5028 334.577 33.4353C334.437 33.3679 334.281 33.3341 334.106 33.3341C333.921 33.3341 333.76 33.3726 333.622 33.4494C333.485 33.5247 333.379 33.6306 333.304 33.7671C333.23 33.9036 333.193 34.0636 333.193 34.2471H332.638C332.638 33.9648 332.703 33.7169 332.833 33.5036C332.964 33.2902 333.141 33.1239 333.365 33.0047C333.591 32.8855 333.844 32.8259 334.125 32.8259C334.408 32.8259 334.658 32.8855 334.876 33.0047C335.094 33.1239 335.265 33.2847 335.389 33.4871C335.513 33.6895 335.575 33.9146 335.575 34.1624C335.575 34.3397 335.543 34.513 335.478 34.6825C335.416 34.8503 335.306 35.0378 335.149 35.2449C334.994 35.4504 334.778 35.7014 334.502 35.9979L333.419 37.1556V37.1933H335.659V37.7109H332.619Z" fill="white"/>
</g>
</g>
<g clip-path="url(#clip11_893_32743)">
<rect x="385.621" y="84" width="0.552199" height="36.9973" fill="#C54600"/>
<g clip-path="url(#clip12_893_32743)">
<rect x="379" y="107.742" width="13.2528" height="13.2528" rx="6.62639" fill="#C54600"/>
<path d="M385.644 116.808C385.333 116.808 385.057 116.755 384.813 116.648C384.572 116.541 384.38 116.393 384.237 116.203C384.096 116.012 384.019 115.79 384.006 115.537H384.599C384.612 115.693 384.665 115.827 384.759 115.94C384.853 116.051 384.977 116.137 385.129 116.199C385.281 116.26 385.45 116.29 385.635 116.29C385.842 116.29 386.025 116.254 386.185 116.182C386.345 116.11 386.471 116.01 386.562 115.881C386.653 115.752 386.698 115.603 386.698 115.434C386.698 115.257 386.654 115.1 386.566 114.966C386.479 114.829 386.35 114.722 386.181 114.646C386.011 114.569 385.804 114.53 385.559 114.53H385.173V114.013H385.559C385.751 114.013 385.919 113.978 386.063 113.909C386.209 113.84 386.323 113.743 386.404 113.617C386.487 113.492 386.529 113.344 386.529 113.175C386.529 113.012 386.493 112.87 386.421 112.749C386.348 112.628 386.246 112.534 386.115 112.467C385.984 112.399 385.831 112.365 385.653 112.365C385.487 112.365 385.33 112.396 385.183 112.457C385.037 112.517 384.918 112.604 384.825 112.718C384.733 112.831 384.682 112.968 384.675 113.128H384.11C384.119 112.875 384.195 112.654 384.338 112.464C384.481 112.273 384.667 112.124 384.898 112.017C385.13 111.91 385.385 111.857 385.663 111.857C385.961 111.857 386.217 111.918 386.43 112.038C386.643 112.158 386.807 112.315 386.922 112.511C387.036 112.707 387.094 112.919 387.094 113.147C387.094 113.418 387.022 113.649 386.879 113.841C386.738 114.032 386.546 114.165 386.303 114.238V114.276C386.607 114.326 386.845 114.456 387.016 114.664C387.187 114.871 387.272 115.128 387.272 115.434C387.272 115.696 387.201 115.931 387.058 116.14C386.917 116.347 386.724 116.51 386.479 116.629C386.235 116.748 385.956 116.808 385.644 116.808Z" fill="white"/>
</g>
</g>
<g clip-path="url(#clip13_893_32743)">
<rect x="572.125" y="28.7109" width="0.552199" height="36.4451" fill="#C54600"/>
<g clip-path="url(#clip14_893_32743)">
<rect x="565.492" y="28.7109" width="13.2528" height="13.2528" rx="6.62639" fill="#C54600"/>
<path d="M572.108 37.7768C571.832 37.7768 571.583 37.7219 571.362 37.6121C571.141 37.5023 570.963 37.3517 570.83 37.1603C570.697 36.9689 570.624 36.7509 570.611 36.5061H571.176C571.198 36.7242 571.297 36.9046 571.472 37.0474C571.65 37.1885 571.861 37.2591 572.108 37.2591C572.305 37.2591 572.481 37.2129 572.635 37.1203C572.79 37.0277 572.912 36.9007 573 36.7391C573.089 36.5759 573.134 36.3916 573.134 36.1861C573.134 35.9759 573.087 35.7884 572.995 35.6237C572.904 35.4574 572.778 35.3264 572.618 35.2307C572.458 35.1351 572.276 35.0864 572.07 35.0849C571.923 35.0833 571.771 35.106 571.616 35.1531C571.461 35.1986 571.333 35.2574 571.232 35.3296L570.686 35.2637L570.978 32.8917H573.482V33.4094H571.468L571.298 34.8307H571.326C571.425 34.7523 571.549 34.6872 571.698 34.6354C571.847 34.5836 572.003 34.5578 572.164 34.5578C572.459 34.5578 572.722 34.6283 572.952 34.7695C573.185 34.9092 573.367 35.1005 573.498 35.3437C573.632 35.5869 573.698 35.8645 573.698 36.1767C573.698 36.4842 573.629 36.7587 573.491 37.0003C573.355 37.2403 573.167 37.4301 572.927 37.5698C572.687 37.7078 572.414 37.7768 572.108 37.7768Z" fill="white"/>
</g>
</g>
<g clip-path="url(#clip15_893_32743)">
<rect x="455.629" y="30" width="0.552199" height="33.1319" fill="#C54600"/>
<g clip-path="url(#clip16_893_32743)">
<rect x="449" y="30" width="13.2528" height="13.2528" rx="6.62639" fill="#C54600"/>
<path d="M453.887 38.0117V37.5317L456.004 34.1808H456.353V34.9244H456.117L454.517 37.4564V37.494H457.369V38.0117H453.887ZM456.155 39V37.8658V37.6422V34.1808H456.71V39H456.155Z" fill="white"/>
</g>
</g>
<defs>
<clipPath id="clip0_893_32743">
<rect x="375.539" y="61.9531" width="22.088" height="22.088" rx="1.6566" fill="white"/>
</clipPath>
<clipPath id="clip1_893_32743">
<rect x="398.73" y="61.9531" width="22.088" height="22.088" rx="4.41759" fill="white"/>
</clipPath>
<clipPath id="clip2_893_32743">
<rect x="421.922" y="61.9531" width="22.088" height="22.088" rx="4.41759" fill="white"/>
</clipPath>
<clipPath id="clip3_893_32743">
<rect x="445.117" y="61.9531" width="22.088" height="22.088" rx="4.41759" fill="white"/>
</clipPath>
<clipPath id="clip4_893_32743">
<rect x="468.309" y="61.9531" width="22.088" height="22.088" rx="4.41759" fill="white"/>
</clipPath>
<clipPath id="clip5_893_32743">
<rect x="491.5" y="61.9531" width="22.088" height="22.088" rx="4.41759" fill="white"/>
</clipPath>
<clipPath id="clip6_893_32743">
<rect x="514.691" y="61.9531" width="22.088" height="22.088" rx="4.41759" fill="white"/>
</clipPath>
<clipPath id="clip7_893_32743">
<rect width="13.2528" height="25.9534" fill="white" transform="translate(265.379 28.7109)"/>
</clipPath>
<clipPath id="clip8_893_32743">
<rect x="265.379" y="28.7109" width="13.2528" height="13.2528" rx="6.62639" fill="white"/>
</clipPath>
<clipPath id="clip9_893_32743">
<rect width="13.2528" height="36.4451" fill="white" transform="translate(327.5 28.7109)"/>
</clipPath>
<clipPath id="clip10_893_32743">
<rect x="327.5" y="28.7109" width="13.2528" height="13.2528" rx="6.62639" fill="white"/>
</clipPath>
<clipPath id="clip11_893_32743">
<rect width="13.2528" height="36.9973" fill="white" transform="translate(379 84)"/>
</clipPath>
<clipPath id="clip12_893_32743">
<rect x="379" y="107.742" width="13.2528" height="13.2528" rx="6.62639" fill="white"/>
</clipPath>
<clipPath id="clip13_893_32743">
<rect width="13.2528" height="36.4451" fill="white" transform="translate(565.492 28.7109)"/>
</clipPath>
<clipPath id="clip14_893_32743">
<rect x="565.492" y="28.7109" width="13.2528" height="13.2528" rx="6.62639" fill="white"/>
</clipPath>
<clipPath id="clip15_893_32743">
<rect width="13.2528" height="33.1319" fill="white" transform="translate(449 30)"/>
</clipPath>
<clipPath id="clip16_893_32743">
<rect x="449" y="30" width="13.2528" height="13.2528" rx="6.62639" fill="white"/>
</clipPath>
</defs>
</svg>
