<svg width="803" height="146" viewBox="0 0 803 146" fill="none" xmlns="http://www.w3.org/2000/svg">
<rect width="803" height="145.599" fill="#F9FAFB"/>
<g opacity="0.2">
<rect x="435.194" y="65.2601" width="55.921" height="15.0666" rx="1.37878" fill="white"/>
<path d="M448.519 72.7925H443.371M443.371 72.7925L445.945 75.3662M443.371 72.7925L445.945 70.2188" stroke="#344054" stroke-width="0.921023" stroke-linecap="round" stroke-linejoin="round"/>
<path d="M455.405 75.2969V70.0826H457.167C457.576 70.0826 457.91 70.1564 458.17 70.3041C458.431 70.4501 458.625 70.6478 458.75 70.8973C458.876 71.1468 458.939 71.4252 458.939 71.7324C458.939 72.0396 458.876 72.3189 458.75 72.5701C458.626 72.8213 458.435 73.0216 458.175 73.1709C457.915 73.3186 457.583 73.3924 457.177 73.3924H455.914V72.8323H457.157C457.437 72.8323 457.661 72.7839 457.831 72.6872C458.001 72.5904 458.124 72.4597 458.2 72.2951C458.278 72.1288 458.318 71.9412 458.318 71.7324C458.318 71.5236 458.278 71.3369 458.2 71.1723C458.124 71.0076 458 70.8787 457.829 70.7853C457.657 70.6902 457.43 70.6427 457.146 70.6427H456.036V75.2969H455.405ZM459.874 75.2969V71.3862H460.455V71.9768H460.496C460.567 71.7833 460.696 71.6263 460.883 71.5058C461.069 71.3853 461.28 71.3251 461.514 71.3251C461.558 71.3251 461.613 71.3259 461.68 71.3276C461.746 71.3293 461.796 71.3318 461.83 71.3352V71.9463C461.809 71.9412 461.763 71.9336 461.69 71.9234C461.618 71.9115 461.543 71.9056 461.463 71.9056C461.273 71.9056 461.103 71.9454 460.954 72.0252C460.806 72.1033 460.689 72.2119 460.603 72.3511C460.518 72.4886 460.475 72.6456 460.475 72.8221V75.2969H459.874ZM464.063 75.3783C463.686 75.3783 463.361 75.2952 463.088 75.1288C462.816 74.9608 462.606 74.7266 462.459 74.4261C462.313 74.124 462.24 73.7726 462.24 73.3721C462.24 72.9715 462.313 72.6184 462.459 72.3129C462.606 72.0057 462.812 71.7664 463.075 71.5949C463.34 71.4218 463.649 71.3352 464.002 71.3352C464.205 71.3352 464.406 71.3692 464.605 71.4371C464.804 71.505 464.984 71.6153 465.147 71.7681C465.31 71.9191 465.44 72.1194 465.537 72.3689C465.634 72.6184 465.682 72.9257 465.682 73.2906V73.5452H462.667V73.0258H465.071C465.071 72.8052 465.027 72.6083 464.938 72.4351C464.852 72.262 464.728 72.1254 464.567 72.0252C464.407 71.9251 464.219 71.875 464.002 71.875C463.762 71.875 463.555 71.9344 463.38 72.0532C463.207 72.1703 463.074 72.3231 462.981 72.5115C462.887 72.6999 462.841 72.9019 462.841 73.1175V73.4637C462.841 73.7591 462.891 74.0094 462.993 74.2148C463.097 74.4185 463.24 74.5738 463.424 74.6807C463.607 74.786 463.82 74.8386 464.063 74.8386C464.221 74.8386 464.363 74.8165 464.49 74.7724C464.619 74.7266 464.731 74.6587 464.824 74.5687C464.917 74.4771 464.989 74.3633 465.04 74.2275L465.621 74.3905C465.56 74.5874 465.457 74.7605 465.313 74.9099C465.168 75.0575 464.99 75.173 464.778 75.2561C464.566 75.3376 464.327 75.3783 464.063 75.3783ZM469.675 71.3862L468.229 75.2969H467.618L466.171 71.3862H466.823L467.903 74.5025H467.943L469.023 71.3862H469.675ZM470.468 75.2969V71.3862H471.069V75.2969H470.468ZM470.773 70.7344C470.656 70.7344 470.555 70.6945 470.47 70.6147C470.387 70.5349 470.346 70.439 470.346 70.327C470.346 70.215 470.387 70.1191 470.47 70.0393C470.555 69.9595 470.656 69.9196 470.773 69.9196C470.89 69.9196 470.991 69.9595 471.074 70.0393C471.159 70.1191 471.201 70.215 471.201 70.327C471.201 70.439 471.159 70.5349 471.074 70.6147C470.991 70.6945 470.89 70.7344 470.773 70.7344ZM473.758 75.3783C473.405 75.3783 473.095 75.2943 472.829 75.1263C472.564 74.9583 472.357 74.7232 472.207 74.421C472.06 74.1189 471.986 73.7659 471.986 73.3619C471.986 72.9545 472.06 72.5989 472.207 72.2951C472.357 71.9913 472.564 71.7553 472.829 71.5873C473.095 71.4193 473.405 71.3352 473.758 71.3352C474.111 71.3352 474.42 71.4193 474.685 71.5873C474.951 71.7553 475.158 71.9913 475.306 72.2951C475.455 72.5989 475.53 72.9545 475.53 73.3619C475.53 73.7659 475.455 74.1189 475.306 74.421C475.158 74.7232 474.951 74.9583 474.685 75.1263C474.42 75.2943 474.111 75.3783 473.758 75.3783ZM473.758 74.8386C474.026 74.8386 474.247 74.7698 474.42 74.6324C474.593 74.4949 474.721 74.3141 474.804 74.0901C474.888 73.866 474.929 73.6233 474.929 73.3619C474.929 73.1005 474.888 72.8569 474.804 72.6312C474.721 72.4054 474.593 72.223 474.42 72.0838C474.247 71.9446 474.026 71.875 473.758 71.875C473.49 71.875 473.269 71.9446 473.096 72.0838C472.923 72.223 472.795 72.4054 472.712 72.6312C472.628 72.8569 472.587 73.1005 472.587 73.3619C472.587 73.6233 472.628 73.866 472.712 74.0901C472.795 74.3141 472.923 74.4949 473.096 74.6324C473.269 74.7698 473.49 74.8386 473.758 74.8386ZM478.912 73.698V71.3862H479.513V75.2969H478.912V74.6349H478.871C478.779 74.8335 478.637 75.0024 478.443 75.1416C478.25 75.2791 478.005 75.3478 477.71 75.3478C477.466 75.3478 477.248 75.2943 477.058 75.1874C476.868 75.0788 476.719 74.9158 476.61 74.6986C476.502 74.4796 476.447 74.2038 476.447 73.8711V71.3862H477.048V73.8304C477.048 74.1155 477.128 74.343 477.287 74.5127C477.449 74.6824 477.654 74.7673 477.904 74.7673C478.053 74.7673 478.205 74.7291 478.359 74.6527C478.515 74.5763 478.646 74.4592 478.751 74.3014C478.858 74.1435 478.912 73.9424 478.912 73.698ZM483.383 72.262L482.844 72.4148C482.81 72.3248 482.759 72.2374 482.693 72.1525C482.629 72.066 482.541 71.9947 482.429 71.9387C482.316 71.8826 482.173 71.8546 481.998 71.8546C481.759 71.8546 481.559 71.9098 481.4 72.0201C481.242 72.1288 481.163 72.2671 481.163 72.4351C481.163 72.5845 481.217 72.7025 481.326 72.789C481.435 72.8756 481.604 72.9477 481.835 73.0054L482.416 73.148C482.765 73.2329 483.026 73.3627 483.197 73.5376C483.369 73.7107 483.455 73.9339 483.455 74.2072C483.455 74.4312 483.39 74.6315 483.261 74.808C483.134 74.9846 482.956 75.1237 482.726 75.2256C482.497 75.3274 482.231 75.3783 481.927 75.3783C481.528 75.3783 481.198 75.2918 480.937 75.1187C480.675 74.9455 480.51 74.6926 480.44 74.3599L481.01 74.2174C481.065 74.4278 481.167 74.5857 481.318 74.6909C481.471 74.7962 481.671 74.8488 481.917 74.8488C482.197 74.8488 482.419 74.7894 482.584 74.6705C482.75 74.55 482.833 74.4058 482.833 74.2377C482.833 74.1019 482.786 73.9882 482.691 73.8966C482.596 73.8032 482.45 73.7336 482.253 73.6878L481.601 73.535C481.243 73.4501 480.98 73.3186 480.812 73.1404C480.645 72.9605 480.562 72.7356 480.562 72.4657C480.562 72.245 480.624 72.0498 480.748 71.8801C480.874 71.7104 481.044 71.5771 481.26 71.4804C481.477 71.3836 481.723 71.3352 481.998 71.3352C482.385 71.3352 482.689 71.4201 482.91 71.5898C483.132 71.7596 483.29 71.9836 483.383 72.262Z" fill="#1A1A1A"/>
<rect x="435.194" y="65.2601" width="55.921" height="15.0666" rx="1.37878" stroke="#D8DEE9" stroke-width="0.551511"/>
<g clip-path="url(#clip0_893_32619)">
<rect x="504.629" y="61.7656" width="22.0604" height="22.0604" rx="1.65453" fill="#EBF4FF"/>
<path d="M516.331 69.1815V74.7969H515.481V70.0315H515.448L514.104 70.9089V70.0973L515.505 69.1815H516.331Z" fill="#217CF5"/>
</g>
<g clip-path="url(#clip1_893_32619)">
<path d="M536.864 74.7969V74.1827L538.764 72.214C538.967 72.0002 539.135 71.8128 539.266 71.6519C539.4 71.4892 539.499 71.3348 539.565 71.1886C539.631 71.0423 539.664 70.8869 539.664 70.7224C539.664 70.536 539.62 70.3751 539.532 70.2399C539.444 70.1028 539.325 69.9977 539.173 69.9245C539.021 69.8496 538.85 69.8121 538.66 69.8121C538.459 69.8121 538.284 69.8533 538.134 69.9355C537.984 70.0178 537.869 70.1338 537.788 70.2837C537.708 70.4336 537.668 70.6091 537.668 70.8102H536.859C536.859 70.4683 536.937 70.1695 537.095 69.9136C537.252 69.6577 537.468 69.4593 537.742 69.3186C538.016 69.176 538.328 69.1047 538.677 69.1047C539.03 69.1047 539.34 69.1751 539.609 69.3158C539.88 69.4548 540.091 69.6449 540.242 69.8862C540.394 70.1256 540.47 70.3961 540.47 70.6978C540.47 70.9061 540.431 71.11 540.352 71.3092C540.275 71.5084 540.141 71.7305 539.949 71.9755C539.757 72.2186 539.49 72.5138 539.148 72.8611L538.032 74.0291V74.0703H540.56V74.7969H536.864Z" fill="#707070"/>
</g>
<g clip-path="url(#clip2_893_32619)">
<path d="M561.983 74.8736C561.607 74.8736 561.271 74.8088 560.974 74.679C560.68 74.5492 560.447 74.3691 560.275 74.1388C560.105 73.9067 560.014 73.638 560.001 73.3327H560.862C560.873 73.499 560.929 73.6435 561.029 73.7659C561.132 73.8866 561.265 73.9798 561.43 74.0456C561.594 74.1114 561.777 74.1443 561.978 74.1443C562.199 74.1443 562.395 74.1059 562.565 74.0291C562.737 73.9524 562.871 73.8454 562.968 73.7083C563.065 73.5694 563.113 73.4095 563.113 73.2285C563.113 73.0402 563.065 72.8748 562.968 72.7322C562.873 72.5878 562.733 72.4745 562.548 72.3922C562.365 72.31 562.144 72.2689 561.885 72.2689H561.41V71.5779H561.885C562.093 71.5779 562.276 71.5404 562.433 71.4655C562.592 71.3905 562.716 71.2863 562.806 71.1529C562.896 71.0176 562.94 70.8595 562.94 70.6786C562.94 70.5049 562.901 70.3541 562.822 70.2261C562.746 70.0964 562.636 69.9949 562.493 69.9218C562.353 69.8487 562.186 69.8121 561.994 69.8121C561.812 69.8121 561.641 69.8459 561.482 69.9136C561.324 69.9794 561.196 70.0744 561.098 70.1987C560.999 70.3212 560.946 70.4683 560.939 70.6402H560.119C560.128 70.3367 560.218 70.0699 560.388 69.8395C560.559 69.6092 560.786 69.4292 561.068 69.2994C561.349 69.1696 561.662 69.1047 562.005 69.1047C562.365 69.1047 562.676 69.1751 562.938 69.3158C563.201 69.4548 563.404 69.6403 563.546 69.8724C563.691 70.1046 563.762 70.3587 563.76 70.6347C563.762 70.9491 563.674 71.216 563.497 71.4353C563.321 71.6547 563.087 71.8018 562.795 71.8768V71.9206C563.168 71.9773 563.457 72.1254 563.661 72.3648C563.868 72.6043 563.97 72.9013 563.969 73.2559C563.97 73.5649 563.884 73.8418 563.711 74.0867C563.539 74.3317 563.304 74.5245 563.006 74.6653C562.708 74.8042 562.367 74.8736 561.983 74.8736Z" fill="#707070"/>
</g>
<g clip-path="url(#clip3_893_32619)">
<path d="M582.744 74.849C582.594 74.849 582.465 74.796 582.357 74.6899C582.249 74.5821 582.195 74.4523 582.195 74.3006C582.195 74.1507 582.249 74.0227 582.357 73.9167C582.465 73.8089 582.594 73.755 582.744 73.755C582.894 73.755 583.022 73.8089 583.13 73.9167C583.238 74.0227 583.292 74.1507 583.292 74.3006C583.292 74.4011 583.266 74.4934 583.215 74.5775C583.166 74.6598 583.1 74.7256 583.018 74.7749C582.936 74.8243 582.844 74.849 582.744 74.849ZM584.93 74.849C584.78 74.849 584.652 74.796 584.544 74.6899C584.436 74.5821 584.382 74.4523 584.382 74.3006C584.382 74.1507 584.436 74.0227 584.544 73.9167C584.652 73.8089 584.78 73.755 584.93 73.755C585.08 73.755 585.209 73.8089 585.317 73.9167C585.425 74.0227 585.479 74.1507 585.479 74.3006C585.479 74.4011 585.453 74.4934 585.402 74.5775C585.353 74.6598 585.287 74.7256 585.204 74.7749C585.122 74.8243 585.031 74.849 584.93 74.849ZM587.117 74.849C586.967 74.849 586.838 74.796 586.73 74.6899C586.622 74.5821 586.569 74.4523 586.569 74.3006C586.569 74.1507 586.622 74.0227 586.73 73.9167C586.838 73.8089 586.967 73.755 587.117 73.755C587.267 73.755 587.396 73.8089 587.504 73.9167C587.611 74.0227 587.665 74.1507 587.665 74.3006C587.665 74.4011 587.64 74.4934 587.589 74.5775C587.539 74.6598 587.473 74.7256 587.391 74.7749C587.309 74.8243 587.217 74.849 587.117 74.849Z" fill="#707070"/>
</g>
<g clip-path="url(#clip4_893_32619)">
<path d="M608.25 74.8736C607.857 74.8736 607.51 74.806 607.208 74.6707C606.908 74.5355 606.673 74.349 606.503 74.1114C606.333 73.8738 606.249 73.6032 606.251 73.2998C606.249 73.0622 606.298 72.8437 606.397 72.6445C606.497 72.4434 606.633 72.2762 606.805 72.1427C606.977 72.0075 607.169 71.9215 607.381 71.885V71.8521C607.101 71.7845 606.877 71.6346 606.709 71.4024C606.541 71.1703 606.458 70.9034 606.46 70.6018C606.458 70.3148 606.534 70.0589 606.687 69.8341C606.843 69.6074 607.055 69.4292 607.326 69.2994C607.597 69.1696 607.905 69.1047 608.25 69.1047C608.592 69.1047 608.897 69.1705 609.166 69.3021C609.436 69.4319 609.649 69.6101 609.805 69.8368C609.96 70.0616 610.039 70.3166 610.04 70.6018C610.039 70.9034 609.953 71.1703 609.783 71.4024C609.613 71.6346 609.392 71.7845 609.119 71.8521V71.885C609.329 71.9215 609.519 72.0075 609.687 72.1427C609.857 72.2762 609.992 72.4434 610.093 72.6445C610.195 72.8437 610.247 73.0622 610.249 73.2998C610.247 73.6032 610.161 73.8738 609.991 74.1114C609.821 74.349 609.585 74.5355 609.284 74.6707C608.984 74.806 608.639 74.8736 608.25 74.8736ZM608.25 74.18C608.482 74.18 608.683 74.1416 608.853 74.0648C609.023 73.9862 609.155 73.8774 609.248 73.7385C609.341 73.5978 609.389 73.4332 609.391 73.245C609.389 73.0494 609.338 72.8766 609.237 72.7268C609.138 72.5769 609.004 72.459 608.834 72.373C608.664 72.2871 608.469 72.2442 608.25 72.2442C608.029 72.2442 607.832 72.2871 607.661 72.373C607.489 72.459 607.353 72.5769 607.255 72.7268C607.156 72.8766 607.108 73.0494 607.109 73.245C607.108 73.4332 607.152 73.5978 607.244 73.7385C607.337 73.8774 607.47 73.9862 607.641 74.0648C607.813 74.1416 608.016 74.18 608.25 74.18ZM608.25 71.5669C608.436 71.5669 608.602 71.5295 608.746 71.4545C608.891 71.3796 609.004 71.2754 609.086 71.1419C609.17 71.0085 609.213 70.8522 609.215 70.6731C609.213 70.4976 609.171 70.3441 609.089 70.2124C609.009 70.0808 608.896 69.9794 608.752 69.9081C608.607 69.835 608.44 69.7984 608.25 69.7984C608.056 69.7984 607.886 69.835 607.74 69.9081C607.596 69.9794 607.483 70.0808 607.403 70.2124C607.322 70.3441 607.283 70.4976 607.285 70.6731C607.283 70.8522 607.323 71.0085 607.406 71.1419C607.488 71.2754 607.601 71.3796 607.746 71.4545C607.892 71.5295 608.06 71.5669 608.25 71.5669Z" fill="#707070"/>
</g>
<g clip-path="url(#clip5_893_32619)">
<path d="M631.384 69.1047C631.634 69.1065 631.881 69.1522 632.124 69.2418C632.367 69.3314 632.587 69.4776 632.782 69.6805C632.98 69.8834 633.137 70.1576 633.254 70.5031C633.373 70.8467 633.433 71.2745 633.435 71.7863C633.435 72.278 633.386 72.7158 633.287 73.0996C633.188 73.4817 633.046 73.8043 632.862 74.0675C632.679 74.3308 632.457 74.5309 632.196 74.668C631.934 74.8051 631.64 74.8736 631.313 74.8736C630.978 74.8736 630.681 74.8078 630.422 74.6762C630.162 74.5446 629.951 74.3627 629.788 74.1306C629.625 73.8966 629.524 73.6279 629.484 73.3245H630.32C630.375 73.5658 630.486 73.7614 630.655 73.9112C630.825 74.0593 631.044 74.1333 631.313 74.1333C631.724 74.1333 632.045 73.9542 632.275 73.5959C632.505 73.2358 632.621 72.7331 632.623 72.0879H632.579C632.484 72.2451 632.366 72.3804 632.223 72.4937C632.082 72.607 631.924 72.6948 631.749 72.7569C631.573 72.8191 631.386 72.8501 631.187 72.8501C630.863 72.8501 630.569 72.7706 630.304 72.6116C630.039 72.4526 629.827 72.2341 629.67 71.9563C629.513 71.6784 629.434 71.3613 629.434 71.0048C629.434 70.6502 629.515 70.3285 629.676 70.0397C629.838 69.7509 630.065 69.5224 630.356 69.3542C630.648 69.1842 630.991 69.1011 631.384 69.1047ZM631.387 69.8176C631.173 69.8176 630.98 69.8706 630.808 69.9766C630.638 70.0808 630.504 70.2225 630.405 70.4016C630.306 70.5789 630.257 70.7764 630.257 70.9939C630.257 71.2114 630.305 71.4088 630.4 71.5861C630.496 71.7616 630.628 71.9014 630.794 72.0056C630.963 72.108 631.155 72.1592 631.37 72.1592C631.531 72.1592 631.681 72.1281 631.82 72.066C631.959 72.0038 632.08 71.9179 632.185 71.8082C632.289 71.6967 632.37 71.5706 632.429 71.4298C632.487 71.2891 632.516 71.141 632.516 70.9857C632.516 70.7791 632.467 70.5872 632.368 70.4099C632.271 70.2325 632.138 70.09 631.968 69.9821C631.798 69.8724 631.604 69.8176 631.387 69.8176Z" fill="#707070"/>
</g>
<g clip-path="url(#clip6_893_32619)">
<path d="M652.811 69.1815V74.7969H651.961V70.0315H651.928L650.585 70.9089V70.0973L651.986 69.1815H652.811ZM656.285 74.8901C655.852 74.8883 655.482 74.774 655.175 74.5474C654.868 74.3207 654.633 73.9908 654.47 73.5575C654.307 73.1243 654.226 72.6025 654.226 71.9919C654.226 71.3832 654.307 70.8632 654.47 70.4318C654.635 70.0004 654.87 69.6714 655.177 69.4447C655.486 69.218 655.856 69.1047 656.285 69.1047C656.715 69.1047 657.083 69.219 657.39 69.4475C657.697 69.6741 657.932 70.0031 658.095 70.4345C658.259 70.8641 658.342 71.3832 658.342 71.9919C658.342 72.6043 658.26 73.1271 658.098 73.5603C657.935 73.9917 657.7 74.3216 657.393 74.5501C657.086 74.7768 656.717 74.8901 656.285 74.8901ZM656.285 74.158C656.665 74.158 656.962 73.9725 657.176 73.6014C657.392 73.2303 657.5 72.6938 657.5 71.9919C657.5 71.5258 657.45 71.1319 657.352 70.8102C657.255 70.4866 657.115 70.2417 656.932 70.0753C656.751 69.9072 656.536 69.8231 656.285 69.8231C655.907 69.8231 655.61 70.0095 655.394 70.3824C655.178 70.7553 655.07 71.2918 655.068 71.9919C655.068 72.4599 655.116 72.8556 655.213 73.1792C655.312 73.5009 655.452 73.7449 655.633 73.9112C655.814 74.0758 656.031 74.158 656.285 74.158Z" fill="#707070"/>
</g>
<rect x="679.182" y="65.2601" width="44.1271" height="15.0666" rx="1.37878" fill="white"/>
<path d="M691.395 70.0826V75.2969H690.784L687.943 71.2028H687.892V75.2969H687.26V70.0826H687.871L690.723 74.1868H690.774V70.0826H691.395ZM694.217 75.3783C693.84 75.3783 693.515 75.2952 693.242 75.1288C692.97 74.9608 692.76 74.7266 692.613 74.4261C692.467 74.124 692.394 73.7726 692.394 73.3721C692.394 72.9715 692.467 72.6184 692.613 72.3129C692.76 72.0057 692.966 71.7664 693.229 71.5949C693.494 71.4218 693.803 71.3352 694.156 71.3352C694.359 71.3352 694.56 71.3692 694.759 71.4371C694.958 71.505 695.138 71.6153 695.301 71.7681C695.464 71.9191 695.594 72.1194 695.691 72.3689C695.788 72.6184 695.836 72.9257 695.836 73.2906V73.5452H692.822V73.0258H695.225C695.225 72.8052 695.181 72.6083 695.093 72.4351C695.006 72.262 694.882 72.1254 694.721 72.0252C694.561 71.9251 694.373 71.875 694.156 71.875C693.916 71.875 693.709 71.9344 693.534 72.0532C693.361 72.1703 693.228 72.3231 693.135 72.5115C693.041 72.6999 692.995 72.9019 692.995 73.1175V73.4637C692.995 73.7591 693.046 74.0094 693.147 74.2148C693.251 74.4185 693.394 74.5738 693.578 74.6807C693.761 74.786 693.974 74.8386 694.217 74.8386C694.375 74.8386 694.517 74.8165 694.644 74.7724C694.773 74.7266 694.885 74.6587 694.978 74.5687C695.071 74.4771 695.143 74.3633 695.194 74.2275L695.775 74.3905C695.714 74.5874 695.611 74.7605 695.467 74.9099C695.323 75.0575 695.144 75.173 694.932 75.2561C694.72 75.3376 694.482 75.3783 694.217 75.3783ZM697.093 71.3862L698.03 72.9851L698.967 71.3862H699.66L698.397 73.3415L699.66 75.2969H698.967L698.03 73.7794L697.093 75.2969H696.401L697.643 73.3415L696.401 71.3862H697.093ZM702.218 71.3862V71.8954H700.191V71.3862H702.218ZM700.782 70.4492H701.383V74.1766C701.383 74.3464 701.407 74.4737 701.456 74.5585C701.507 74.6417 701.572 74.6977 701.65 74.7266C701.73 74.7537 701.814 74.7673 701.902 74.7673C701.968 74.7673 702.022 74.7639 702.065 74.7571C702.107 74.7486 702.141 74.7418 702.167 74.7367L702.289 75.2765C702.248 75.2918 702.191 75.3071 702.118 75.3223C702.045 75.3393 701.953 75.3478 701.841 75.3478C701.671 75.3478 701.505 75.3113 701.342 75.2383C701.181 75.1653 701.046 75.0542 700.94 74.9048C700.834 74.7554 700.782 74.567 700.782 74.3396V70.4492Z" fill="#1A1A1A"/>
<path d="M708.875 72.7925H714.022M714.022 72.7925L711.449 70.2188M714.022 72.7925L711.449 75.3662" stroke="#344054" stroke-width="0.921023" stroke-linecap="round" stroke-linejoin="round"/>
<rect x="679.182" y="65.2601" width="44.1271" height="15.0666" rx="1.37878" stroke="#D8DEE9" stroke-width="0.551511"/>
<path d="M66.1836 55.6999H736.821V54.5969H66.1836V55.6999Z" fill="#EAECF0" mask="url(#path-1-outside-1_893_32619)"/>
</g>
<g opacity="0.2">
<rect x="435.194" y="65.2601" width="55.921" height="15.0666" rx="1.37878" fill="white"/>
<path d="M448.519 72.7925H443.371M443.371 72.7925L445.945 75.3662M443.371 72.7925L445.945 70.2188" stroke="#344054" stroke-width="0.921023" stroke-linecap="round" stroke-linejoin="round"/>
<path d="M455.405 75.2969V70.0826H457.167C457.576 70.0826 457.91 70.1564 458.17 70.3041C458.431 70.4501 458.625 70.6478 458.75 70.8973C458.876 71.1468 458.939 71.4252 458.939 71.7324C458.939 72.0396 458.876 72.3189 458.75 72.5701C458.626 72.8213 458.435 73.0216 458.175 73.1709C457.915 73.3186 457.583 73.3924 457.177 73.3924H455.914V72.8323H457.157C457.437 72.8323 457.661 72.7839 457.831 72.6872C458.001 72.5904 458.124 72.4597 458.2 72.2951C458.278 72.1288 458.318 71.9412 458.318 71.7324C458.318 71.5236 458.278 71.3369 458.2 71.1723C458.124 71.0076 458 70.8787 457.829 70.7853C457.657 70.6902 457.43 70.6427 457.146 70.6427H456.036V75.2969H455.405ZM459.874 75.2969V71.3862H460.455V71.9768H460.496C460.567 71.7833 460.696 71.6263 460.883 71.5058C461.069 71.3853 461.28 71.3251 461.514 71.3251C461.558 71.3251 461.613 71.3259 461.68 71.3276C461.746 71.3293 461.796 71.3318 461.83 71.3352V71.9463C461.809 71.9412 461.763 71.9336 461.69 71.9234C461.618 71.9115 461.543 71.9056 461.463 71.9056C461.273 71.9056 461.103 71.9454 460.954 72.0252C460.806 72.1033 460.689 72.2119 460.603 72.3511C460.518 72.4886 460.475 72.6456 460.475 72.8221V75.2969H459.874ZM464.063 75.3783C463.686 75.3783 463.361 75.2952 463.088 75.1288C462.816 74.9608 462.606 74.7266 462.459 74.4261C462.313 74.124 462.24 73.7726 462.24 73.3721C462.24 72.9715 462.313 72.6184 462.459 72.3129C462.606 72.0057 462.812 71.7664 463.075 71.5949C463.34 71.4218 463.649 71.3352 464.002 71.3352C464.205 71.3352 464.406 71.3692 464.605 71.4371C464.804 71.505 464.984 71.6153 465.147 71.7681C465.31 71.9191 465.44 72.1194 465.537 72.3689C465.634 72.6184 465.682 72.9257 465.682 73.2906V73.5452H462.667V73.0258H465.071C465.071 72.8052 465.027 72.6083 464.938 72.4351C464.852 72.262 464.728 72.1254 464.567 72.0252C464.407 71.9251 464.219 71.875 464.002 71.875C463.762 71.875 463.555 71.9344 463.38 72.0532C463.207 72.1703 463.074 72.3231 462.981 72.5115C462.887 72.6999 462.841 72.9019 462.841 73.1175V73.4637C462.841 73.7591 462.891 74.0094 462.993 74.2148C463.097 74.4185 463.24 74.5738 463.424 74.6807C463.607 74.786 463.82 74.8386 464.063 74.8386C464.221 74.8386 464.363 74.8165 464.49 74.7724C464.619 74.7266 464.731 74.6587 464.824 74.5687C464.917 74.4771 464.989 74.3633 465.04 74.2275L465.621 74.3905C465.56 74.5874 465.457 74.7605 465.313 74.9099C465.168 75.0575 464.99 75.173 464.778 75.2561C464.566 75.3376 464.327 75.3783 464.063 75.3783ZM469.675 71.3862L468.229 75.2969H467.618L466.171 71.3862H466.823L467.903 74.5025H467.943L469.023 71.3862H469.675ZM470.468 75.2969V71.3862H471.069V75.2969H470.468ZM470.773 70.7344C470.656 70.7344 470.555 70.6945 470.47 70.6147C470.387 70.5349 470.346 70.439 470.346 70.327C470.346 70.215 470.387 70.1191 470.47 70.0393C470.555 69.9595 470.656 69.9196 470.773 69.9196C470.89 69.9196 470.991 69.9595 471.074 70.0393C471.159 70.1191 471.201 70.215 471.201 70.327C471.201 70.439 471.159 70.5349 471.074 70.6147C470.991 70.6945 470.89 70.7344 470.773 70.7344ZM473.758 75.3783C473.405 75.3783 473.095 75.2943 472.829 75.1263C472.564 74.9583 472.357 74.7232 472.207 74.421C472.06 74.1189 471.986 73.7659 471.986 73.3619C471.986 72.9545 472.06 72.5989 472.207 72.2951C472.357 71.9913 472.564 71.7553 472.829 71.5873C473.095 71.4193 473.405 71.3352 473.758 71.3352C474.111 71.3352 474.42 71.4193 474.685 71.5873C474.951 71.7553 475.158 71.9913 475.306 72.2951C475.455 72.5989 475.53 72.9545 475.53 73.3619C475.53 73.7659 475.455 74.1189 475.306 74.421C475.158 74.7232 474.951 74.9583 474.685 75.1263C474.42 75.2943 474.111 75.3783 473.758 75.3783ZM473.758 74.8386C474.026 74.8386 474.247 74.7698 474.42 74.6324C474.593 74.4949 474.721 74.3141 474.804 74.0901C474.888 73.866 474.929 73.6233 474.929 73.3619C474.929 73.1005 474.888 72.8569 474.804 72.6312C474.721 72.4054 474.593 72.223 474.42 72.0838C474.247 71.9446 474.026 71.875 473.758 71.875C473.49 71.875 473.269 71.9446 473.096 72.0838C472.923 72.223 472.795 72.4054 472.712 72.6312C472.628 72.8569 472.587 73.1005 472.587 73.3619C472.587 73.6233 472.628 73.866 472.712 74.0901C472.795 74.3141 472.923 74.4949 473.096 74.6324C473.269 74.7698 473.49 74.8386 473.758 74.8386ZM478.912 73.698V71.3862H479.513V75.2969H478.912V74.6349H478.871C478.779 74.8335 478.637 75.0024 478.443 75.1416C478.25 75.2791 478.005 75.3478 477.71 75.3478C477.466 75.3478 477.248 75.2943 477.058 75.1874C476.868 75.0788 476.719 74.9158 476.61 74.6986C476.502 74.4796 476.447 74.2038 476.447 73.8711V71.3862H477.048V73.8304C477.048 74.1155 477.128 74.343 477.287 74.5127C477.449 74.6824 477.654 74.7673 477.904 74.7673C478.053 74.7673 478.205 74.7291 478.359 74.6527C478.515 74.5763 478.646 74.4592 478.751 74.3014C478.858 74.1435 478.912 73.9424 478.912 73.698ZM483.383 72.262L482.844 72.4148C482.81 72.3248 482.759 72.2374 482.693 72.1525C482.629 72.066 482.541 71.9947 482.429 71.9387C482.316 71.8826 482.173 71.8546 481.998 71.8546C481.759 71.8546 481.559 71.9098 481.4 72.0201C481.242 72.1288 481.163 72.2671 481.163 72.4351C481.163 72.5845 481.217 72.7025 481.326 72.789C481.435 72.8756 481.604 72.9477 481.835 73.0054L482.416 73.148C482.765 73.2329 483.026 73.3627 483.197 73.5376C483.369 73.7107 483.455 73.9339 483.455 74.2072C483.455 74.4312 483.39 74.6315 483.261 74.808C483.134 74.9846 482.956 75.1237 482.726 75.2256C482.497 75.3274 482.231 75.3783 481.927 75.3783C481.528 75.3783 481.198 75.2918 480.937 75.1187C480.675 74.9455 480.51 74.6926 480.44 74.3599L481.01 74.2174C481.065 74.4278 481.167 74.5857 481.318 74.6909C481.471 74.7962 481.671 74.8488 481.917 74.8488C482.197 74.8488 482.419 74.7894 482.584 74.6705C482.75 74.55 482.833 74.4058 482.833 74.2377C482.833 74.1019 482.786 73.9882 482.691 73.8966C482.596 73.8032 482.45 73.7336 482.253 73.6878L481.601 73.535C481.243 73.4501 480.98 73.3186 480.812 73.1404C480.645 72.9605 480.562 72.7356 480.562 72.4657C480.562 72.245 480.624 72.0498 480.748 71.8801C480.874 71.7104 481.044 71.5771 481.26 71.4804C481.477 71.3836 481.723 71.3352 481.998 71.3352C482.385 71.3352 482.689 71.4201 482.91 71.5898C483.132 71.7596 483.29 71.9836 483.383 72.262Z" fill="#1A1A1A"/>
<rect x="435.194" y="65.2601" width="55.921" height="15.0666" rx="1.37878" stroke="#D8DEE9" stroke-width="0.551511"/>
<g clip-path="url(#clip7_893_32619)">
<rect x="504.629" y="61.7656" width="22.0604" height="22.0604" rx="1.65453" fill="#EBF4FF"/>
<path d="M516.331 69.1815V74.7969H515.481V70.0315H515.448L514.104 70.9089V70.0973L515.505 69.1815H516.331Z" fill="#217CF5"/>
</g>
<g clip-path="url(#clip8_893_32619)">
<path d="M536.864 74.7969V74.1827L538.764 72.214C538.967 72.0002 539.135 71.8128 539.266 71.6519C539.4 71.4892 539.499 71.3348 539.565 71.1886C539.631 71.0423 539.664 70.8869 539.664 70.7224C539.664 70.536 539.62 70.3751 539.532 70.2399C539.444 70.1028 539.325 69.9977 539.173 69.9245C539.021 69.8496 538.85 69.8121 538.66 69.8121C538.459 69.8121 538.284 69.8533 538.134 69.9355C537.984 70.0178 537.869 70.1338 537.788 70.2837C537.708 70.4336 537.668 70.6091 537.668 70.8102H536.859C536.859 70.4683 536.937 70.1695 537.095 69.9136C537.252 69.6577 537.468 69.4593 537.742 69.3186C538.016 69.176 538.328 69.1047 538.677 69.1047C539.03 69.1047 539.34 69.1751 539.609 69.3158C539.88 69.4548 540.091 69.6449 540.242 69.8862C540.394 70.1256 540.47 70.3961 540.47 70.6978C540.47 70.9061 540.431 71.11 540.352 71.3092C540.275 71.5084 540.141 71.7305 539.949 71.9755C539.757 72.2186 539.49 72.5138 539.148 72.8611L538.032 74.0291V74.0703H540.56V74.7969H536.864Z" fill="#707070"/>
</g>
<g clip-path="url(#clip9_893_32619)">
<path d="M561.983 74.8736C561.607 74.8736 561.271 74.8088 560.974 74.679C560.68 74.5492 560.447 74.3691 560.275 74.1388C560.105 73.9067 560.014 73.638 560.001 73.3327H560.862C560.873 73.499 560.929 73.6435 561.029 73.7659C561.132 73.8866 561.265 73.9798 561.43 74.0456C561.594 74.1114 561.777 74.1443 561.978 74.1443C562.199 74.1443 562.395 74.1059 562.565 74.0291C562.737 73.9524 562.871 73.8454 562.968 73.7083C563.065 73.5694 563.113 73.4095 563.113 73.2285C563.113 73.0402 563.065 72.8748 562.968 72.7322C562.873 72.5878 562.733 72.4745 562.548 72.3922C562.365 72.31 562.144 72.2689 561.885 72.2689H561.41V71.5779H561.885C562.093 71.5779 562.276 71.5404 562.433 71.4655C562.592 71.3905 562.716 71.2863 562.806 71.1529C562.896 71.0176 562.94 70.8595 562.94 70.6786C562.94 70.5049 562.901 70.3541 562.822 70.2261C562.746 70.0964 562.636 69.9949 562.493 69.9218C562.353 69.8487 562.186 69.8121 561.994 69.8121C561.812 69.8121 561.641 69.8459 561.482 69.9136C561.324 69.9794 561.196 70.0744 561.098 70.1987C560.999 70.3212 560.946 70.4683 560.939 70.6402H560.119C560.128 70.3367 560.218 70.0699 560.388 69.8395C560.559 69.6092 560.786 69.4292 561.068 69.2994C561.349 69.1696 561.662 69.1047 562.005 69.1047C562.365 69.1047 562.676 69.1751 562.938 69.3158C563.201 69.4548 563.404 69.6403 563.546 69.8724C563.691 70.1046 563.762 70.3587 563.76 70.6347C563.762 70.9491 563.674 71.216 563.497 71.4353C563.321 71.6547 563.087 71.8018 562.795 71.8768V71.9206C563.168 71.9773 563.457 72.1254 563.661 72.3648C563.868 72.6043 563.97 72.9013 563.969 73.2559C563.97 73.5649 563.884 73.8418 563.711 74.0867C563.539 74.3317 563.304 74.5245 563.006 74.6653C562.708 74.8042 562.367 74.8736 561.983 74.8736Z" fill="#707070"/>
</g>
<g clip-path="url(#clip10_893_32619)">
<path d="M582.744 74.849C582.594 74.849 582.465 74.796 582.357 74.6899C582.249 74.5821 582.195 74.4523 582.195 74.3006C582.195 74.1507 582.249 74.0227 582.357 73.9167C582.465 73.8089 582.594 73.755 582.744 73.755C582.894 73.755 583.022 73.8089 583.13 73.9167C583.238 74.0227 583.292 74.1507 583.292 74.3006C583.292 74.4011 583.266 74.4934 583.215 74.5775C583.166 74.6598 583.1 74.7256 583.018 74.7749C582.936 74.8243 582.844 74.849 582.744 74.849ZM584.93 74.849C584.78 74.849 584.652 74.796 584.544 74.6899C584.436 74.5821 584.382 74.4523 584.382 74.3006C584.382 74.1507 584.436 74.0227 584.544 73.9167C584.652 73.8089 584.78 73.755 584.93 73.755C585.08 73.755 585.209 73.8089 585.317 73.9167C585.425 74.0227 585.479 74.1507 585.479 74.3006C585.479 74.4011 585.453 74.4934 585.402 74.5775C585.353 74.6598 585.287 74.7256 585.204 74.7749C585.122 74.8243 585.031 74.849 584.93 74.849ZM587.117 74.849C586.967 74.849 586.838 74.796 586.73 74.6899C586.622 74.5821 586.569 74.4523 586.569 74.3006C586.569 74.1507 586.622 74.0227 586.73 73.9167C586.838 73.8089 586.967 73.755 587.117 73.755C587.267 73.755 587.396 73.8089 587.504 73.9167C587.611 74.0227 587.665 74.1507 587.665 74.3006C587.665 74.4011 587.64 74.4934 587.589 74.5775C587.539 74.6598 587.473 74.7256 587.391 74.7749C587.309 74.8243 587.217 74.849 587.117 74.849Z" fill="#707070"/>
</g>
<g clip-path="url(#clip11_893_32619)">
<path d="M608.25 74.8736C607.857 74.8736 607.51 74.806 607.208 74.6707C606.908 74.5355 606.673 74.349 606.503 74.1114C606.333 73.8738 606.249 73.6032 606.251 73.2998C606.249 73.0622 606.298 72.8437 606.397 72.6445C606.497 72.4434 606.633 72.2762 606.805 72.1427C606.977 72.0075 607.169 71.9215 607.381 71.885V71.8521C607.101 71.7845 606.877 71.6346 606.709 71.4024C606.541 71.1703 606.458 70.9034 606.46 70.6018C606.458 70.3148 606.534 70.0589 606.687 69.8341C606.843 69.6074 607.055 69.4292 607.326 69.2994C607.597 69.1696 607.905 69.1047 608.25 69.1047C608.592 69.1047 608.897 69.1705 609.166 69.3021C609.436 69.4319 609.649 69.6101 609.805 69.8368C609.96 70.0616 610.039 70.3166 610.04 70.6018C610.039 70.9034 609.953 71.1703 609.783 71.4024C609.613 71.6346 609.392 71.7845 609.119 71.8521V71.885C609.329 71.9215 609.519 72.0075 609.687 72.1427C609.857 72.2762 609.992 72.4434 610.093 72.6445C610.195 72.8437 610.247 73.0622 610.249 73.2998C610.247 73.6032 610.161 73.8738 609.991 74.1114C609.821 74.349 609.585 74.5355 609.284 74.6707C608.984 74.806 608.639 74.8736 608.25 74.8736ZM608.25 74.18C608.482 74.18 608.683 74.1416 608.853 74.0648C609.023 73.9862 609.155 73.8774 609.248 73.7385C609.341 73.5978 609.389 73.4332 609.391 73.245C609.389 73.0494 609.338 72.8766 609.237 72.7268C609.138 72.5769 609.004 72.459 608.834 72.373C608.664 72.2871 608.469 72.2442 608.25 72.2442C608.029 72.2442 607.832 72.2871 607.661 72.373C607.489 72.459 607.353 72.5769 607.255 72.7268C607.156 72.8766 607.108 73.0494 607.109 73.245C607.108 73.4332 607.152 73.5978 607.244 73.7385C607.337 73.8774 607.47 73.9862 607.641 74.0648C607.813 74.1416 608.016 74.18 608.25 74.18ZM608.25 71.5669C608.436 71.5669 608.602 71.5295 608.746 71.4545C608.891 71.3796 609.004 71.2754 609.086 71.1419C609.17 71.0085 609.213 70.8522 609.215 70.6731C609.213 70.4976 609.171 70.3441 609.089 70.2124C609.009 70.0808 608.896 69.9794 608.752 69.9081C608.607 69.835 608.44 69.7984 608.25 69.7984C608.056 69.7984 607.886 69.835 607.74 69.9081C607.596 69.9794 607.483 70.0808 607.403 70.2124C607.322 70.3441 607.283 70.4976 607.285 70.6731C607.283 70.8522 607.323 71.0085 607.406 71.1419C607.488 71.2754 607.601 71.3796 607.746 71.4545C607.892 71.5295 608.06 71.5669 608.25 71.5669Z" fill="#707070"/>
</g>
<g clip-path="url(#clip12_893_32619)">
<path d="M631.384 69.1047C631.634 69.1065 631.881 69.1522 632.124 69.2418C632.367 69.3314 632.587 69.4776 632.782 69.6805C632.98 69.8834 633.137 70.1576 633.254 70.5031C633.373 70.8467 633.433 71.2745 633.435 71.7863C633.435 72.278 633.386 72.7158 633.287 73.0996C633.188 73.4817 633.046 73.8043 632.862 74.0675C632.679 74.3308 632.457 74.5309 632.196 74.668C631.934 74.8051 631.64 74.8736 631.313 74.8736C630.978 74.8736 630.681 74.8078 630.422 74.6762C630.162 74.5446 629.951 74.3627 629.788 74.1306C629.625 73.8966 629.524 73.6279 629.484 73.3245H630.32C630.375 73.5658 630.486 73.7614 630.655 73.9112C630.825 74.0593 631.044 74.1333 631.313 74.1333C631.724 74.1333 632.045 73.9542 632.275 73.5959C632.505 73.2358 632.621 72.7331 632.623 72.0879H632.579C632.484 72.2451 632.366 72.3804 632.223 72.4937C632.082 72.607 631.924 72.6948 631.749 72.7569C631.573 72.8191 631.386 72.8501 631.187 72.8501C630.863 72.8501 630.569 72.7706 630.304 72.6116C630.039 72.4526 629.827 72.2341 629.67 71.9563C629.513 71.6784 629.434 71.3613 629.434 71.0048C629.434 70.6502 629.515 70.3285 629.676 70.0397C629.838 69.7509 630.065 69.5224 630.356 69.3542C630.648 69.1842 630.991 69.1011 631.384 69.1047ZM631.387 69.8176C631.173 69.8176 630.98 69.8706 630.808 69.9766C630.638 70.0808 630.504 70.2225 630.405 70.4016C630.306 70.5789 630.257 70.7764 630.257 70.9939C630.257 71.2114 630.305 71.4088 630.4 71.5861C630.496 71.7616 630.628 71.9014 630.794 72.0056C630.963 72.108 631.155 72.1592 631.37 72.1592C631.531 72.1592 631.681 72.1281 631.82 72.066C631.959 72.0038 632.08 71.9179 632.185 71.8082C632.289 71.6967 632.37 71.5706 632.429 71.4298C632.487 71.2891 632.516 71.141 632.516 70.9857C632.516 70.7791 632.467 70.5872 632.368 70.4099C632.271 70.2325 632.138 70.09 631.968 69.9821C631.798 69.8724 631.604 69.8176 631.387 69.8176Z" fill="#707070"/>
</g>
<g clip-path="url(#clip13_893_32619)">
<path d="M652.811 69.1815V74.7969H651.961V70.0315H651.928L650.585 70.9089V70.0973L651.986 69.1815H652.811ZM656.285 74.8901C655.852 74.8883 655.482 74.774 655.175 74.5474C654.868 74.3207 654.633 73.9908 654.47 73.5575C654.307 73.1243 654.226 72.6025 654.226 71.9919C654.226 71.3832 654.307 70.8632 654.47 70.4318C654.635 70.0004 654.87 69.6714 655.177 69.4447C655.486 69.218 655.856 69.1047 656.285 69.1047C656.715 69.1047 657.083 69.219 657.39 69.4475C657.697 69.6741 657.932 70.0031 658.095 70.4345C658.259 70.8641 658.342 71.3832 658.342 71.9919C658.342 72.6043 658.26 73.1271 658.098 73.5603C657.935 73.9917 657.7 74.3216 657.393 74.5501C657.086 74.7768 656.717 74.8901 656.285 74.8901ZM656.285 74.158C656.665 74.158 656.962 73.9725 657.176 73.6014C657.392 73.2303 657.5 72.6938 657.5 71.9919C657.5 71.5258 657.45 71.1319 657.352 70.8102C657.255 70.4866 657.115 70.2417 656.932 70.0753C656.751 69.9072 656.536 69.8231 656.285 69.8231C655.907 69.8231 655.61 70.0095 655.394 70.3824C655.178 70.7553 655.07 71.2918 655.068 71.9919C655.068 72.4599 655.116 72.8556 655.213 73.1792C655.312 73.5009 655.452 73.7449 655.633 73.9112C655.814 74.0758 656.031 74.158 656.285 74.158Z" fill="#707070"/>
</g>
<rect x="679.182" y="65.2601" width="44.1271" height="15.0666" rx="1.37878" fill="white"/>
<path d="M691.395 70.0826V75.2969H690.784L687.943 71.2028H687.892V75.2969H687.26V70.0826H687.871L690.723 74.1868H690.774V70.0826H691.395ZM694.217 75.3783C693.84 75.3783 693.515 75.2952 693.242 75.1288C692.97 74.9608 692.76 74.7266 692.613 74.4261C692.467 74.124 692.394 73.7726 692.394 73.3721C692.394 72.9715 692.467 72.6184 692.613 72.3129C692.76 72.0057 692.966 71.7664 693.229 71.5949C693.494 71.4218 693.803 71.3352 694.156 71.3352C694.359 71.3352 694.56 71.3692 694.759 71.4371C694.958 71.505 695.138 71.6153 695.301 71.7681C695.464 71.9191 695.594 72.1194 695.691 72.3689C695.788 72.6184 695.836 72.9257 695.836 73.2906V73.5452H692.822V73.0258H695.225C695.225 72.8052 695.181 72.6083 695.093 72.4351C695.006 72.262 694.882 72.1254 694.721 72.0252C694.561 71.9251 694.373 71.875 694.156 71.875C693.916 71.875 693.709 71.9344 693.534 72.0532C693.361 72.1703 693.228 72.3231 693.135 72.5115C693.041 72.6999 692.995 72.9019 692.995 73.1175V73.4637C692.995 73.7591 693.046 74.0094 693.147 74.2148C693.251 74.4185 693.394 74.5738 693.578 74.6807C693.761 74.786 693.974 74.8386 694.217 74.8386C694.375 74.8386 694.517 74.8165 694.644 74.7724C694.773 74.7266 694.885 74.6587 694.978 74.5687C695.071 74.4771 695.143 74.3633 695.194 74.2275L695.775 74.3905C695.714 74.5874 695.611 74.7605 695.467 74.9099C695.323 75.0575 695.144 75.173 694.932 75.2561C694.72 75.3376 694.482 75.3783 694.217 75.3783ZM697.093 71.3862L698.03 72.9851L698.967 71.3862H699.66L698.397 73.3415L699.66 75.2969H698.967L698.03 73.7794L697.093 75.2969H696.401L697.643 73.3415L696.401 71.3862H697.093ZM702.218 71.3862V71.8954H700.191V71.3862H702.218ZM700.782 70.4492H701.383V74.1766C701.383 74.3464 701.407 74.4737 701.456 74.5585C701.507 74.6417 701.572 74.6977 701.65 74.7266C701.73 74.7537 701.814 74.7673 701.902 74.7673C701.968 74.7673 702.022 74.7639 702.065 74.7571C702.107 74.7486 702.141 74.7418 702.167 74.7367L702.289 75.2765C702.248 75.2918 702.191 75.3071 702.118 75.3223C702.045 75.3393 701.953 75.3478 701.841 75.3478C701.671 75.3478 701.505 75.3113 701.342 75.2383C701.181 75.1653 701.046 75.0542 700.94 74.9048C700.834 74.7554 700.782 74.567 700.782 74.3396V70.4492Z" fill="#1A1A1A"/>
<path d="M708.875 72.7925H714.022M714.022 72.7925L711.449 70.2188M714.022 72.7925L711.449 75.3662" stroke="#344054" stroke-width="0.921023" stroke-linecap="round" stroke-linejoin="round"/>
<rect x="679.182" y="65.2601" width="44.1271" height="15.0666" rx="1.37878" stroke="#D8DEE9" stroke-width="0.551511"/>
<path d="M66.1836 55.6999H736.821V54.5969H66.1836V55.6999Z" fill="#EAECF0" mask="url(#path-32-outside-2_893_32619)"/>
</g>
<rect x="65.9078" y="54.8727" width="671.189" height="35.8482" stroke="#0D69D4" stroke-width="0.551511"/>
<g clip-path="url(#clip14_893_32619)">
<mask maskUnits="userSpaceOnUse" x="0" y="0" width="0" height="0" fill="black">
<rect fill="white" width="0" height="0"/>
</mask>
<path d="M35.4584 28.2851C35.243 28.5005 35.243 28.8497 35.4584 29.065L38.9682 32.5748C39.1836 32.7902 39.5328 32.7902 39.7482 32.5748C39.9635 32.3594 39.9635 32.0102 39.7482 31.7949L36.6283 28.6751L39.7482 25.5552C39.9635 25.3399 39.9635 24.9907 39.7482 24.7753C39.5328 24.5599 39.1836 24.5599 38.9682 24.7753L35.4584 28.2851ZM52.7837 29.065C52.9991 28.8497 52.9991 28.5005 52.7837 28.2851L49.2739 24.7753C49.0585 24.5599 48.7093 24.5599 48.4939 24.7753C48.2786 24.9907 48.2786 25.3399 48.4939 25.5552L51.6138 28.6751L48.4939 31.7949C48.2786 32.0102 48.2786 32.3594 48.4939 32.5748C48.7093 32.7902 49.0585 32.7902 49.2739 32.5748L52.7837 29.065ZM35.8484 29.2266H52.3937V28.1235H35.8484V29.2266Z" fill="#6B6B6B" mask="url(#)"/>
</g>
<path fill-rule="evenodd" clip-rule="evenodd" d="M35.2969 24.2656L35.2969 24.8171L35.2969 27.0364L35.2969 27.5879L35.2969 29.7909L35.2969 30.3424L35.2969 32.546L35.2969 33.0975H35.8484H38.0484H38.5999H40.8182H41.3697H43.5695H44.1211V32.546V30.3446L44.1213 27.0185L44.1211 24.8171V24.2656H43.5695H41.3697H40.8182H38.5999H38.0484H35.8484H35.2969ZM35.8484 24.8171V27.0364H38.0484V24.8171H35.8484ZM35.8484 27.5879V29.7909H38.0484V27.5879H35.8484ZM35.8484 30.3424V32.546H38.0484V30.3424H35.8484ZM43.5695 30.3446V32.546H41.3697V30.3446H43.5695ZM43.5695 24.8171V27.0185H41.3697V24.8171H43.5695ZM40.8182 24.8171H38.5999V27.0364H40.8182V27.0185V24.8171ZM40.8182 27.5879H38.5999V29.7909H40.8182V27.5879ZM40.8182 30.3424H38.5999V32.546H40.8182V30.3446V30.3424Z" fill="#6B6B6B"/>
<g clip-path="url(#clip15_893_32619)">
<g clip-path="url(#clip16_893_32619)">
<mask maskUnits="userSpaceOnUse" x="0" y="0" width="0" height="0" fill="black">
<rect fill="white" width="0" height="0"/>
</mask>
<path d="M40.4171 49.754C40.2555 49.5924 39.9936 49.5924 39.8321 49.754L37.1997 52.3863C37.0382 52.5478 37.0382 52.8097 37.1997 52.9713C37.3613 53.1328 37.6232 53.1328 37.7847 52.9713L40.1246 50.6314L42.4644 52.9713C42.626 53.1328 42.8879 53.1328 43.0494 52.9713C43.2109 52.8097 43.2109 52.5478 43.0494 52.3863L40.4171 49.754ZM39.8321 72.3994C39.9936 72.5609 40.2555 72.5609 40.4171 72.3994L43.0494 69.767C43.2109 69.6055 43.2109 69.3436 43.0494 69.1821C42.8879 69.0205 42.626 69.0205 42.4644 69.1821L40.1246 71.5219L37.7847 69.1821C37.6232 69.0205 37.3613 69.0205 37.1997 69.1821C37.0382 69.3436 37.0382 69.6055 37.1997 69.767L39.8321 72.3994ZM39.7109 50.0464V72.1069H40.5382V50.0464H39.7109Z" fill="#0D69D4" mask="url(#)"/>
<mask maskUnits="userSpaceOnUse" x="0" y="0" width="0" height="0" fill="black">
<rect fill="white" width="0" height="0"/>
</mask>
<path d="M40.4171 73.1915C40.2555 73.0299 39.9936 73.0299 39.8321 73.1915L37.1997 75.8238C37.0382 75.9853 37.0382 76.2472 37.1997 76.4088C37.3613 76.5703 37.6232 76.5703 37.7847 76.4088L40.1246 74.0689L42.4644 76.4088C42.626 76.5703 42.8879 76.5703 43.0494 76.4088C43.2109 76.2472 43.2109 75.9853 43.0494 75.8238L40.4171 73.1915ZM39.8321 95.8369C39.9936 95.9984 40.2555 95.9984 40.4171 95.8369L43.0494 93.2045C43.2109 93.043 43.2109 92.7811 43.0494 92.6196C42.8879 92.458 42.626 92.458 42.4644 92.6196L40.1246 94.9594L37.7847 92.6196C37.6232 92.458 37.3613 92.458 37.1997 92.6196C37.0382 92.7811 37.0382 93.043 37.1997 93.2045L39.8321 95.8369ZM39.7109 73.4839V95.5444H40.5382V73.4839H39.7109Z" fill="#0D69D4" mask="url(#)"/>
</g>
</g>
<g clip-path="url(#clip17_893_32619)">
<line x1="66.5972" y1="28.5395" x2="736.407" y2="28.5395" stroke="#0D69D4" stroke-width="0.827267" stroke-linecap="square"/>
<line x1="66.5972" y1="25.7808" x2="66.5972" y2="31.5717" stroke="#0D69D4" stroke-width="0.827267" stroke-linecap="round"/>
<line x1="736.403" y1="31.5707" x2="736.403" y2="25.7799" stroke="#0D69D4" stroke-width="0.827267" stroke-linecap="round"/>
</g>
<rect x="491.395" y="61.7656" width="13.2363" height="22.0604" fill="#C54600" fill-opacity="0.3"/>
<line x1="491.67" y1="46.3281" x2="491.67" y2="90.449" stroke="#C54600" stroke-width="0.551511"/>
<line x1="504.354" y1="46.3281" x2="504.354" y2="90.449" stroke="#C54600" stroke-width="0.551511"/>
<path d="M493.988 43.5V42.7667L495.701 41.1804C495.847 41.0394 495.969 40.9124 496.068 40.7996C496.168 40.6868 496.244 40.5764 496.296 40.4683C496.347 40.3586 496.373 40.2403 496.373 40.1134C496.373 39.9724 496.341 39.8509 496.277 39.7491C496.213 39.6457 496.125 39.5666 496.014 39.5117C495.902 39.4553 495.776 39.4271 495.635 39.4271C495.488 39.4271 495.36 39.4569 495.25 39.5164C495.14 39.576 495.056 39.6614 494.996 39.7726C494.936 39.8838 494.907 40.0162 494.907 40.1698H493.941C493.941 39.8549 494.012 39.5815 494.155 39.3496C494.297 39.1177 494.497 38.9383 494.754 38.8114C495.011 38.6845 495.307 38.621 495.642 38.621C495.987 38.621 496.287 38.6821 496.542 38.8043C496.799 38.925 496.999 39.0926 497.142 39.3073C497.284 39.5219 497.356 39.7679 497.356 40.0452C497.356 40.227 497.32 40.4064 497.247 40.5834C497.177 40.7605 497.051 40.9571 496.869 41.1733C496.687 41.388 496.431 41.6457 496.101 41.9465L495.398 42.6351V42.668H497.419V43.5H493.988ZM497.98 42.6539V41.8525L499.99 38.6868H500.681V39.7961H500.272L499.005 41.8008V41.8384H501.86V42.6539H497.98ZM500.29 43.5V42.4095L500.309 42.0546V38.6868H501.263V43.5H500.29Z" fill="#C54600"/>
<g clip-path="url(#clip18_893_32619)">
<g clip-path="url(#clip19_893_32619)">
<mask maskUnits="userSpaceOnUse" x="0" y="0" width="0" height="0" fill="black">
<rect fill="white" width="0" height="0"/>
</mask>
<path d="M430.257 50.2714C430.149 50.3791 430.149 50.5537 430.257 50.6614L432.011 52.4163C432.119 52.524 432.294 52.524 432.401 52.4163C432.509 52.3086 432.509 52.134 432.401 52.0263L430.842 50.4664L432.401 48.9065C432.509 48.7988 432.509 48.6242 432.401 48.5165C432.294 48.4089 432.119 48.4089 432.011 48.5165L430.257 50.2714ZM463.186 50.6614C463.293 50.5537 463.293 50.3791 463.186 50.2714L461.431 48.5165C461.323 48.4089 461.148 48.4089 461.041 48.5165C460.933 48.6242 460.933 48.7988 461.041 48.9065L462.601 50.4664L461.041 52.0263C460.933 52.134 460.933 52.3086 461.041 52.4163C461.148 52.524 461.323 52.524 461.431 52.4163L463.186 50.6614ZM430.452 50.7422H462.991V50.1907H430.452V50.7422Z" fill="#0D69D4" mask="url(#)"/>
<mask maskUnits="userSpaceOnUse" x="0" y="0" width="0" height="0" fill="black">
<rect fill="white" width="0" height="0"/>
</mask>
<path d="M463.897 50.2714C463.789 50.3791 463.789 50.5537 463.897 50.6614L465.652 52.4163C465.76 52.524 465.934 52.524 466.042 52.4163C466.15 52.3086 466.15 52.134 466.042 52.0263L464.482 50.4664L466.042 48.9065C466.15 48.7988 466.15 48.6242 466.042 48.5165C465.934 48.4089 465.76 48.4089 465.652 48.5165L463.897 50.2714ZM496.826 50.6614C496.934 50.5537 496.934 50.3791 496.826 50.2714L495.071 48.5165C494.964 48.4089 494.789 48.4089 494.681 48.5165C494.574 48.6242 494.574 48.7988 494.681 48.9065L496.241 50.4664L494.681 52.0263C494.574 52.134 494.574 52.3086 494.681 52.4163C494.789 52.524 494.964 52.524 495.071 52.4163L496.826 50.6614ZM464.092 50.7422H496.631V50.1907H464.092V50.7422Z" fill="#0D69D4" mask="url(#)"/>
</g>
</g>
<rect x="435.691" y="65.0781" width="55.7026" height="15.4423" fill="#0D69D4" fill-opacity="0.2"/>
<rect x="665.676" y="61.7656" width="13.2363" height="22.0604" fill="#C54600" fill-opacity="0.3"/>
<line x1="665.952" y1="46.3281" x2="665.952" y2="90.449" stroke="#C54600" stroke-width="0.551511"/>
<line x1="678.635" y1="46.3281" x2="678.635" y2="90.449" stroke="#C54600" stroke-width="0.551511"/>
<path d="M668.269 43.5V42.7667L669.982 41.1804C670.128 41.0394 670.25 40.9124 670.349 40.7996C670.449 40.6868 670.525 40.5764 670.577 40.4683C670.629 40.3586 670.654 40.2403 670.654 40.1134C670.654 39.9724 670.622 39.8509 670.558 39.7491C670.494 39.6457 670.406 39.5666 670.295 39.5117C670.184 39.4553 670.058 39.4271 669.917 39.4271C669.769 39.4271 669.641 39.4569 669.531 39.5164C669.421 39.576 669.337 39.6614 669.277 39.7726C669.218 39.8838 669.188 40.0162 669.188 40.1698H668.222C668.222 39.8549 668.293 39.5815 668.436 39.3496C668.578 39.1177 668.778 38.9383 669.035 38.8114C669.292 38.6845 669.588 38.621 669.924 38.621C670.268 38.621 670.568 38.6821 670.824 38.8043C671.081 38.925 671.28 39.0926 671.423 39.3073C671.566 39.5219 671.637 39.7679 671.637 40.0452C671.637 40.227 671.601 40.4064 671.529 40.5834C671.458 40.7605 671.332 40.9571 671.15 41.1733C670.969 41.388 670.712 41.6457 670.382 41.9465L669.679 42.6351V42.668H671.7V43.5H668.269ZM672.261 42.6539V41.8525L674.271 38.6868H674.962V39.7961H674.553L673.286 41.8008V41.8384H676.142V42.6539H672.261ZM674.572 43.5V42.4095L674.59 42.0546V38.6868H675.545V43.5H674.572Z" fill="#C54600"/>
<g clip-path="url(#clip20_893_32619)">
<g clip-path="url(#clip21_893_32619)">
<mask maskUnits="userSpaceOnUse" x="0" y="0" width="0" height="0" fill="black">
<rect fill="white" width="0" height="0"/>
</mask>
<path d="M499.198 50.2714C499.09 50.3791 499.09 50.5537 499.198 50.6614L500.953 52.4163C501.061 52.524 501.235 52.524 501.343 52.4163C501.451 52.3086 501.451 52.134 501.343 52.0263L499.783 50.4664L501.343 48.9065C501.451 48.7988 501.451 48.6242 501.343 48.5165C501.235 48.4089 501.061 48.4089 500.953 48.5165L499.198 50.2714ZM584.796 50.6614C584.904 50.5537 584.904 50.3791 584.796 50.2714L583.041 48.5165C582.934 48.4089 582.759 48.4089 582.652 48.5165C582.544 48.6242 582.544 48.7988 582.652 48.9065L584.211 50.4664L582.652 52.0263C582.544 52.134 582.544 52.3086 582.652 52.4163C582.759 52.524 582.934 52.524 583.041 52.4163L584.796 50.6614ZM499.393 50.7422H584.601V50.1907H499.393V50.7422Z" fill="#0D69D4" mask="url(#)"/>
<mask maskUnits="userSpaceOnUse" x="0" y="0" width="0" height="0" fill="black">
<rect fill="white" width="0" height="0"/>
</mask>
<path d="M585.51 50.2714C585.403 50.3791 585.403 50.5537 585.51 50.6614L587.265 52.4163C587.373 52.524 587.548 52.524 587.655 52.4163C587.763 52.3086 587.763 52.134 587.655 52.0263L586.095 50.4664L587.655 48.9065C587.763 48.7988 587.763 48.6242 587.655 48.5165C587.548 48.4089 587.373 48.4089 587.265 48.5165L585.51 50.2714ZM671.109 50.6614C671.217 50.5537 671.217 50.3791 671.109 50.2714L669.354 48.5165C669.246 48.4089 669.072 48.4089 668.964 48.5165C668.856 48.6242 668.856 48.7988 668.964 48.9065L670.524 50.4664L668.964 52.0263C668.856 52.134 668.856 52.3086 668.964 52.4163C669.072 52.524 669.246 52.524 669.354 52.4163L671.109 50.6614ZM585.705 50.7422H670.914V50.1907H585.705V50.7422Z" fill="#0D69D4" mask="url(#)"/>
</g>
</g>
<rect x="504.633" y="61.7656" width="161.041" height="22.0604" fill="#0D69D4" fill-opacity="0.2"/>
<g clip-path="url(#clip22_893_32619)">
<g clip-path="url(#clip23_893_32619)">
<mask maskUnits="userSpaceOnUse" x="0" y="0" width="0" height="0" fill="black">
<rect fill="white" width="0" height="0"/>
</mask>
<path d="M673.475 50.2714C673.368 50.3791 673.368 50.5537 673.475 50.6614L675.23 52.4163C675.338 52.524 675.512 52.524 675.62 52.4163C675.728 52.3086 675.728 52.134 675.62 52.0263L674.06 50.4664L675.62 48.9065C675.728 48.7988 675.728 48.6242 675.62 48.5165C675.512 48.4089 675.338 48.4089 675.23 48.5165L673.475 50.2714ZM700.889 50.6614C700.997 50.5537 700.997 50.3791 700.889 50.2714L699.134 48.5165C699.027 48.4089 698.852 48.4089 698.744 48.5165C698.637 48.6242 698.637 48.7988 698.744 48.9065L700.304 50.4664L698.744 52.0263C698.637 52.134 698.637 52.3086 698.744 52.4163C698.852 52.524 699.027 52.524 699.134 52.4163L700.889 50.6614ZM673.67 50.7422H700.694V50.1907H673.67V50.7422Z" fill="#0D69D4" mask="url(#)"/>
<mask maskUnits="userSpaceOnUse" x="0" y="0" width="0" height="0" fill="black">
<rect fill="white" width="0" height="0"/>
</mask>
<path d="M701.604 50.2714C701.497 50.3791 701.497 50.5537 701.604 50.6614L703.359 52.4163C703.467 52.524 703.641 52.524 703.749 52.4163C703.857 52.3086 703.857 52.134 703.749 52.0263L702.189 50.4664L703.749 48.9065C703.857 48.7988 703.857 48.6242 703.749 48.5165C703.641 48.4089 703.467 48.4089 703.359 48.5165L701.604 50.2714ZM729.018 50.6614C729.126 50.5537 729.126 50.3791 729.018 50.2714L727.263 48.5165C727.156 48.4089 726.981 48.4089 726.873 48.5165C726.766 48.6242 726.766 48.7988 726.873 48.9065L728.433 50.4664L726.873 52.0263C726.766 52.134 726.766 52.3086 726.873 52.4163C726.981 52.524 727.156 52.524 727.263 52.4163L729.018 50.6614ZM701.799 50.7422H728.823V50.1907H701.799V50.7422Z" fill="#0D69D4" mask="url(#)"/>
</g>
</g>
<rect x="678.91" y="65.0781" width="44.6724" height="15.4423" fill="#0D69D4" fill-opacity="0.2"/>
<rect x="66.1836" y="55.1484" width="670.637" height="6.61813" fill="#007D00" fill-opacity="0.3"/>
<line x1="57.3555" y1="55.4274" x2="736.817" y2="55.4274" stroke="#007D00" stroke-width="0.551511"/>
<line x1="57.3555" y1="61.4899" x2="736.817" y2="61.4899" stroke="#007D00" stroke-width="0.551511"/>
<path d="M49.9138 55.2337V60.0469H48.8962V56.1996H48.868L47.7658 56.8906V55.9881L48.9573 55.2337H49.9138ZM51.0578 60.0469V59.3136L52.7711 57.7272C52.9168 57.5862 53.039 57.4593 53.1377 57.3465C53.238 57.2337 53.314 57.1232 53.3657 57.0151C53.4174 56.9055 53.4432 56.7872 53.4432 56.6603C53.4432 56.5192 53.4111 56.3978 53.3469 56.296C53.2826 56.1926 53.1949 56.1134 53.0837 56.0586C52.9724 56.0022 52.8463 55.974 52.7053 55.974C52.558 55.974 52.4295 56.0038 52.3198 56.0633C52.2102 56.1228 52.1256 56.2082 52.066 56.3195C52.0065 56.4307 51.9767 56.5631 51.9767 56.7167H51.0108C51.0108 56.4017 51.0821 56.1283 51.2247 55.8964C51.3672 55.6646 51.567 55.4852 51.824 55.3582C52.0809 55.2313 52.377 55.1679 52.7123 55.1679C53.057 55.1679 53.3571 55.229 53.6124 55.3512C53.8694 55.4718 54.0692 55.6395 54.2117 55.8541C54.3543 56.0688 54.4256 56.3148 54.4256 56.5921C54.4256 56.7738 54.3896 56.9532 54.3175 57.1303C54.247 57.3073 54.1209 57.504 53.9391 57.7202C53.7574 57.9348 53.5012 58.1926 53.1706 58.4934L52.4679 59.182V59.2149H54.4891V60.0469H51.0578Z" fill="#007D00"/>
<rect x="66.1836" y="83.8281" width="670.637" height="6.61813" fill="#007D00" fill-opacity="0.3"/>
<line x1="57.3555" y1="84.1071" x2="736.817" y2="84.1071" stroke="#007D00" stroke-width="0.551511"/>
<line x1="57.3555" y1="90.1696" x2="736.817" y2="90.1696" stroke="#007D00" stroke-width="0.551511"/>
<path d="M49.9138 83.9134V88.7266H48.8962V84.8793H48.868L47.7658 85.5703V84.6678L48.9573 83.9134H49.9138ZM51.0578 88.7266V87.9933L52.7711 86.4069C52.9168 86.2659 53.039 86.139 53.1377 86.0262C53.238 85.9134 53.314 85.8029 53.3657 85.6948C53.4174 85.5851 53.4432 85.4669 53.4432 85.3399C53.4432 85.1989 53.4111 85.0775 53.3469 84.9757C53.2826 84.8723 53.1949 84.7931 53.0837 84.7383C52.9724 84.6819 52.8463 84.6537 52.7053 84.6537C52.558 84.6537 52.4295 84.6835 52.3198 84.743C52.2102 84.8025 52.1256 84.8879 52.066 84.9992C52.0065 85.1104 51.9767 85.2428 51.9767 85.3963H51.0108C51.0108 85.0814 51.0821 84.808 51.2247 84.5761C51.3672 84.3442 51.567 84.1648 51.824 84.0379C52.0809 83.911 52.377 83.8476 52.7123 83.8476C53.057 83.8476 53.3571 83.9087 53.6124 84.0309C53.8694 84.1515 54.0692 84.3192 54.2117 84.5338C54.3543 84.7485 54.4256 84.9945 54.4256 85.2718C54.4256 85.4535 54.3896 85.6329 54.3175 85.81C54.247 85.987 54.1209 86.1837 53.9391 86.3999C53.7574 86.6145 53.5012 86.8723 53.1706 87.1731L52.4679 87.8617V87.8946H54.4891V88.7266H51.0578Z" fill="#007D00"/>
<rect x="66.1797" y="61.7656" width="13.2363" height="22.0604" fill="#007D00" fill-opacity="0.3"/>
<line x1="66.4554" y1="46.3281" x2="66.4554" y2="90.449" stroke="#007D00" stroke-width="0.551511"/>
<line x1="79.139" y1="46.3281" x2="79.139" y2="90.449" stroke="#007D00" stroke-width="0.551511"/>
<path d="M68.7729 43.5V42.7667L70.4862 41.1804C70.6319 41.0394 70.7542 40.9124 70.8529 40.7996C70.9531 40.6868 71.0291 40.5764 71.0808 40.4683C71.1325 40.3586 71.1584 40.2403 71.1584 40.1134C71.1584 39.9724 71.1263 39.8509 71.062 39.7491C70.9978 39.6457 70.91 39.5666 70.7988 39.5117C70.6876 39.4553 70.5614 39.4271 70.4204 39.4271C70.2731 39.4271 70.1447 39.4569 70.035 39.5164C69.9253 39.576 69.8407 39.6614 69.7812 39.7726C69.7216 39.8838 69.6919 40.0162 69.6919 40.1698H68.7259C68.7259 39.8549 68.7972 39.5815 68.9398 39.3496C69.0824 39.1177 69.2822 38.9383 69.5391 38.8114C69.7961 38.6845 70.0922 38.621 70.4275 38.621C70.7722 38.621 71.0722 38.6821 71.3276 38.8043C71.5846 38.925 71.7843 39.0926 71.9269 39.3073C72.0695 39.5219 72.1408 39.7679 72.1408 40.0452C72.1408 40.227 72.1047 40.4064 72.0327 40.5834C71.9622 40.7605 71.836 40.9571 71.6543 41.1733C71.4725 41.388 71.2164 41.6457 70.8858 41.9465L70.1831 42.6351V42.668H72.2042V43.5H68.7729ZM72.7653 42.6539V41.8525L74.7747 38.6868H75.4657V39.7961H75.0568L73.79 41.8008V41.8384H76.6455V42.6539H72.7653ZM75.0756 43.5V42.4095L75.0944 42.0546V38.6868H76.0485V43.5H75.0756Z" fill="#007D00"/>
<rect x="723.582" y="61.7656" width="13.2363" height="22.0604" fill="#007D00" fill-opacity="0.3"/>
<line x1="723.858" y1="46.3281" x2="723.858" y2="90.449" stroke="#007D00" stroke-width="0.551511"/>
<line x1="736.541" y1="46.3281" x2="736.541" y2="90.449" stroke="#007D00" stroke-width="0.551511"/>
<path d="M726.175 43.5V42.7667L727.889 41.1804C728.034 41.0394 728.156 40.9124 728.255 40.7996C728.355 40.6868 728.431 40.5764 728.483 40.4683C728.535 40.3586 728.561 40.2403 728.561 40.1134C728.561 39.9724 728.529 39.8509 728.464 39.7491C728.4 39.6457 728.312 39.5666 728.201 39.5117C728.09 39.4553 727.964 39.4271 727.823 39.4271C727.675 39.4271 727.547 39.4569 727.437 39.5164C727.328 39.576 727.243 39.6614 727.184 39.7726C727.124 39.8838 727.094 40.0162 727.094 40.1698H726.128C726.128 39.8549 726.2 39.5815 726.342 39.3496C726.485 39.1177 726.684 38.9383 726.941 38.8114C727.198 38.6845 727.495 38.621 727.83 38.621C728.175 38.621 728.475 38.6821 728.73 38.8043C728.987 38.925 729.187 39.0926 729.329 39.3073C729.472 39.5219 729.543 39.7679 729.543 40.0452C729.543 40.227 729.507 40.4064 729.435 40.5834C729.364 40.7605 729.238 40.9571 729.057 41.1733C728.875 41.388 728.619 41.6457 728.288 41.9465L727.585 42.6351V42.668H729.607V43.5H726.175ZM730.168 42.6539V41.8525L732.177 38.6868H732.868V39.7961H732.459L731.192 41.8008V41.8384H734.048V42.6539H730.168ZM732.478 43.5V42.4095L732.497 42.0546V38.6868H733.451V43.5H732.478Z" fill="#007D00"/>
<defs>
<clipPath id="clip0_893_32619">
<rect x="504.629" y="61.7656" width="22.0604" height="22.0604" rx="1.65453" fill="white"/>
</clipPath>
<clipPath id="clip1_893_32619">
<rect x="527.793" y="61.7656" width="22.0604" height="22.0604" rx="4.41209" fill="white"/>
</clipPath>
<clipPath id="clip2_893_32619">
<rect x="550.957" y="61.7656" width="22.0604" height="22.0604" rx="4.41209" fill="white"/>
</clipPath>
<clipPath id="clip3_893_32619">
<rect x="574.121" y="61.7656" width="22.0604" height="22.0604" rx="4.41209" fill="white"/>
</clipPath>
<clipPath id="clip4_893_32619">
<rect x="597.281" y="61.7656" width="22.0604" height="22.0604" rx="4.41209" fill="white"/>
</clipPath>
<clipPath id="clip5_893_32619">
<rect x="620.445" y="61.7656" width="22.0604" height="22.0604" rx="4.41209" fill="white"/>
</clipPath>
<clipPath id="clip6_893_32619">
<rect x="643.609" y="61.7656" width="22.0604" height="22.0604" rx="4.41209" fill="white"/>
</clipPath>
<clipPath id="clip7_893_32619">
<rect x="504.629" y="61.7656" width="22.0604" height="22.0604" rx="1.65453" fill="white"/>
</clipPath>
<clipPath id="clip8_893_32619">
<rect x="527.793" y="61.7656" width="22.0604" height="22.0604" rx="4.41209" fill="white"/>
</clipPath>
<clipPath id="clip9_893_32619">
<rect x="550.957" y="61.7656" width="22.0604" height="22.0604" rx="4.41209" fill="white"/>
</clipPath>
<clipPath id="clip10_893_32619">
<rect x="574.121" y="61.7656" width="22.0604" height="22.0604" rx="4.41209" fill="white"/>
</clipPath>
<clipPath id="clip11_893_32619">
<rect x="597.281" y="61.7656" width="22.0604" height="22.0604" rx="4.41209" fill="white"/>
</clipPath>
<clipPath id="clip12_893_32619">
<rect x="620.445" y="61.7656" width="22.0604" height="22.0604" rx="4.41209" fill="white"/>
</clipPath>
<clipPath id="clip13_893_32619">
<rect x="643.609" y="61.7656" width="22.0604" height="22.0604" rx="4.41209" fill="white"/>
</clipPath>
<clipPath id="clip14_893_32619">
<rect width="8.82418" height="8.82418" fill="white" transform="translate(44.1211 24.2656)"/>
</clipPath>
<clipPath id="clip15_893_32619">
<rect width="35.2967" height="8.82418" fill="white" transform="matrix(0 1 -1 0 44.1211 55.1484)"/>
</clipPath>
<clipPath id="clip16_893_32619">
<rect width="46.3269" height="8.82418" fill="white" transform="matrix(0 1 -1 0 44.1211 49.6328)"/>
</clipPath>
<clipPath id="clip17_893_32619">
<rect width="670.637" height="8.82418" fill="white" transform="translate(66.1836 24.2656)"/>
</clipPath>
<clipPath id="clip18_893_32619">
<rect width="55.7026" height="8.82418" fill="white" transform="translate(435.691 46.3281)"/>
</clipPath>
<clipPath id="clip19_893_32619">
<rect width="66.7328" height="8.82418" fill="white" transform="translate(430.176 46.3281)"/>
</clipPath>
<clipPath id="clip20_893_32619">
<rect width="161.041" height="8.82418" fill="white" transform="translate(504.633 46.3281)"/>
</clipPath>
<clipPath id="clip21_893_32619">
<rect width="172.071" height="8.82418" fill="white" transform="translate(499.117 46.3281)"/>
</clipPath>
<clipPath id="clip22_893_32619">
<rect width="44.6724" height="8.82418" fill="white" transform="translate(678.91 46.3281)"/>
</clipPath>
<clipPath id="clip23_893_32619">
<rect width="55.7026" height="8.82418" fill="white" transform="translate(673.395 46.3281)"/>
</clipPath>
</defs>
</svg>
