<svg width="804" height="245" viewBox="0 0 804 245" fill="none" xmlns="http://www.w3.org/2000/svg">
<rect width="804" height="245" fill="#F9FAFB"/>
<rect x="435.792" y="65.3542" width="55.9534" height="15.0742" rx="1.3805" fill="white"/>
<path d="M449.134 72.8972H443.98M443.98 72.8972L446.557 75.4742M443.98 72.8972L446.557 70.3203" stroke="#344054" stroke-width="0.922172" stroke-linecap="round" stroke-linejoin="round"/>
<path d="M456.027 75.3906V70.1698H457.791C458.2 70.1698 458.535 70.2438 458.795 70.3916C459.057 70.5378 459.251 70.7358 459.376 70.9856C459.502 71.2354 459.565 71.5141 459.565 71.8217C459.565 72.1293 459.502 72.4089 459.376 72.6604C459.252 72.9119 459.06 73.1125 458.8 73.262C458.54 73.4099 458.207 73.4838 457.801 73.4838H456.537V72.923H457.781C458.061 72.923 458.286 72.8746 458.456 72.7777C458.626 72.6808 458.749 72.55 458.826 72.3851C458.904 72.2186 458.943 72.0308 458.943 71.8217C458.943 71.6127 458.904 71.4257 458.826 71.2609C458.749 71.096 458.625 70.9669 458.454 70.8734C458.282 70.7782 458.054 70.7307 457.77 70.7307H456.659V75.3906H456.027ZM460.502 75.3906V71.475H461.083V72.0664H461.124C461.195 71.8727 461.324 71.7155 461.511 71.5948C461.698 71.4742 461.909 71.4139 462.144 71.4139C462.188 71.4139 462.243 71.4147 462.309 71.4164C462.376 71.4181 462.426 71.4206 462.46 71.424V72.0359C462.439 72.0308 462.393 72.0231 462.319 72.0129C462.248 72.001 462.172 71.9951 462.093 71.9951C461.902 71.9951 461.732 72.035 461.583 72.1149C461.435 72.1931 461.318 72.3018 461.231 72.4412C461.146 72.5788 461.103 72.736 461.103 72.9128V75.3906H460.502ZM464.695 75.4722C464.318 75.4722 463.993 75.3889 463.719 75.2224C463.447 75.0541 463.237 74.8196 463.089 74.5188C462.943 74.2163 462.87 73.8645 462.87 73.4634C462.87 73.0623 462.943 72.7089 463.089 72.4029C463.237 72.0953 463.443 71.8557 463.706 71.6841C463.971 71.5107 464.281 71.424 464.634 71.424C464.838 71.424 465.039 71.458 465.238 71.526C465.437 71.594 465.618 71.7045 465.781 71.8574C465.944 72.0087 466.074 72.2092 466.171 72.459C466.268 72.7089 466.317 73.0165 466.317 73.3818V73.6368H463.298V73.1167H465.705C465.705 72.8958 465.661 72.6987 465.572 72.5253C465.486 72.352 465.362 72.2152 465.2 72.1149C465.04 72.0146 464.852 71.9645 464.634 71.9645C464.395 71.9645 464.187 72.024 464.012 72.1429C463.839 72.2602 463.705 72.4131 463.612 72.6018C463.518 72.7904 463.472 72.9927 463.472 73.2085V73.5552C463.472 73.8509 463.523 74.1016 463.625 74.3072C463.728 74.5111 463.872 74.6666 464.055 74.7737C464.239 74.8791 464.452 74.9318 464.695 74.9318C464.853 74.9318 464.996 74.9097 465.124 74.8655C465.253 74.8196 465.364 74.7516 465.458 74.6615C465.551 74.5698 465.623 74.4559 465.674 74.32L466.255 74.4831C466.194 74.6802 466.091 74.8536 465.947 75.0031C465.803 75.151 465.624 75.2666 465.412 75.3498C465.199 75.4314 464.96 75.4722 464.695 75.4722ZM470.314 71.475L468.866 75.3906H468.255L466.807 71.475H467.459L468.54 74.5953H468.581L469.662 71.475H470.314ZM471.109 75.3906V71.475H471.71V75.3906H471.109ZM471.414 70.8224C471.297 70.8224 471.196 70.7825 471.111 70.7026C471.028 70.6227 470.986 70.5267 470.986 70.4146C470.986 70.3024 471.028 70.2064 471.111 70.1265C471.196 70.0466 471.297 70.0067 471.414 70.0067C471.532 70.0067 471.632 70.0466 471.715 70.1265C471.8 70.2064 471.843 70.3024 471.843 70.4146C471.843 70.5267 471.8 70.6227 471.715 70.7026C471.632 70.7825 471.532 70.8224 471.414 70.8224ZM474.403 75.4722C474.049 75.4722 473.739 75.3881 473.472 75.2198C473.207 75.0516 473 74.8162 472.85 74.5137C472.702 74.2112 472.628 73.8577 472.628 73.4532C472.628 73.0453 472.702 72.6893 472.85 72.3851C473 72.0809 473.207 71.8447 473.472 71.6764C473.739 71.5082 474.049 71.424 474.403 71.424C474.756 71.424 475.066 71.5082 475.331 71.6764C475.597 71.8447 475.805 72.0809 475.953 72.3851C476.102 72.6893 476.177 73.0453 476.177 73.4532C476.177 73.8577 476.102 74.2112 475.953 74.5137C475.805 74.8162 475.597 75.0516 475.331 75.2198C475.066 75.3881 474.756 75.4722 474.403 75.4722ZM474.403 74.9318C474.671 74.9318 474.892 74.8629 475.066 74.7253C475.239 74.5876 475.367 74.4066 475.45 74.1823C475.534 73.958 475.575 73.7149 475.575 73.4532C475.575 73.1915 475.534 72.9476 475.45 72.7216C475.367 72.4956 475.239 72.3129 475.066 72.1735C474.892 72.0342 474.671 71.9645 474.403 71.9645C474.134 71.9645 473.913 72.0342 473.74 72.1735C473.567 72.3129 473.438 72.4956 473.355 72.7216C473.272 72.9476 473.23 73.1915 473.23 73.4532C473.23 73.7149 473.272 73.958 473.355 74.1823C473.438 74.4066 473.567 74.5876 473.74 74.7253C473.913 74.8629 474.134 74.9318 474.403 74.9318ZM479.563 73.7897V71.475H480.165V75.3906H479.563V74.7278H479.522C479.43 74.9267 479.288 75.0958 479.094 75.2351C478.9 75.3728 478.655 75.4416 478.36 75.4416C478.115 75.4416 477.898 75.3881 477.707 75.281C477.517 75.1722 477.367 75.0091 477.259 74.7916C477.15 74.5723 477.095 74.2962 477.095 73.9631V71.475H477.697V73.9223C477.697 74.2078 477.777 74.4355 477.937 74.6055C478.098 74.7754 478.304 74.8604 478.554 74.8604C478.703 74.8604 478.855 74.8222 479.01 74.7457C479.166 74.6692 479.297 74.5519 479.402 74.3939C479.509 74.2358 479.563 74.0344 479.563 73.7897ZM484.04 72.352L483.5 72.5049C483.466 72.4148 483.415 72.3273 483.349 72.2423C483.285 72.1557 483.196 72.0843 483.084 72.0282C482.972 71.9721 482.828 71.9441 482.653 71.9441C482.414 71.9441 482.214 71.9993 482.054 72.1098C481.896 72.2186 481.817 72.3571 481.817 72.5253C481.817 72.6749 481.872 72.793 481.98 72.8796C482.089 72.9663 482.259 73.0385 482.49 73.0963L483.071 73.2391C483.421 73.3241 483.682 73.4541 483.854 73.6291C484.026 73.8025 484.111 74.0259 484.111 74.2996C484.111 74.5239 484.047 74.7244 483.918 74.9012C483.79 75.0779 483.612 75.2173 483.382 75.3192C483.153 75.4212 482.886 75.4722 482.582 75.4722C482.183 75.4722 481.852 75.3855 481.59 75.2122C481.329 75.0388 481.163 74.7856 481.093 74.4525L481.664 74.3098C481.719 74.5205 481.821 74.6785 481.973 74.7839C482.126 74.8893 482.325 74.942 482.572 74.942C482.852 74.942 483.075 74.8825 483.24 74.7635C483.406 74.6429 483.489 74.4984 483.489 74.3302C483.489 74.1942 483.442 74.0803 483.347 73.9886C483.251 73.8951 483.105 73.8254 482.908 73.7795L482.256 73.6266C481.897 73.5416 481.634 73.4099 481.465 73.2314C481.299 73.0513 481.216 72.8261 481.216 72.5559C481.216 72.335 481.278 72.1395 481.402 71.9696C481.527 71.7996 481.698 71.6662 481.914 71.5694C482.132 71.4725 482.378 71.424 482.653 71.424C483.041 71.424 483.345 71.509 483.566 71.679C483.789 71.8489 483.947 72.0732 484.04 72.352Z" fill="#1A1A1A"/>
<rect x="435.792" y="65.3542" width="55.9534" height="15.0742" rx="1.3805" stroke="#D8DEE9" stroke-width="0.552199"/>
<g clip-path="url(#clip0_896_9416)">
<rect x="505.273" y="61.8438" width="22.088" height="22.088" rx="1.6566" fill="#EBF4FF"/>
<path d="M516.99 69.2682V74.8906H516.139V70.1193H516.106L514.761 70.9978V70.1852L516.164 69.2682H516.99Z" fill="#217CF5"/>
</g>
<g clip-path="url(#clip1_896_9416)">
<path d="M537.549 74.8906V74.2757L539.451 72.3045C539.654 72.0904 539.822 71.9028 539.954 71.7418C540.087 71.5789 540.187 71.4242 540.253 71.2778C540.319 71.1314 540.352 70.9758 540.352 70.8111C540.352 70.6244 540.308 70.4634 540.22 70.3279C540.132 70.1907 540.012 70.0854 539.86 70.0122C539.708 69.9372 539.537 69.8997 539.347 69.8997C539.145 69.8997 538.97 69.9408 538.82 70.0232C538.67 70.1056 538.554 70.2218 538.474 70.3718C538.393 70.5219 538.353 70.6976 538.353 70.8989H537.543C537.543 70.5567 537.622 70.2575 537.779 70.0012C537.937 69.745 538.153 69.5464 538.427 69.4055C538.702 69.2627 539.014 69.1914 539.363 69.1914C539.717 69.1914 540.028 69.2618 540.297 69.4028C540.568 69.5419 540.779 69.7322 540.931 69.9738C541.083 70.2135 541.159 70.4844 541.159 70.7864C541.159 70.995 541.119 71.1991 541.041 71.3986C540.964 71.5981 540.829 71.8205 540.637 72.0657C540.445 72.3091 540.178 72.6047 539.835 72.9524L538.718 74.1219V74.1631H541.249V74.8906H537.549Z" fill="#707070"/>
</g>
<g clip-path="url(#clip2_896_9416)">
<path d="M562.697 74.9675C562.32 74.9675 561.984 74.9025 561.687 74.7726C561.393 74.6426 561.159 74.4624 560.987 74.2318C560.817 73.9993 560.725 73.7303 560.713 73.4246H561.575C561.586 73.5912 561.641 73.7358 561.742 73.8584C561.845 73.9792 561.978 74.0725 562.143 74.1384C562.308 74.2043 562.491 74.2372 562.692 74.2372C562.913 74.2372 563.109 74.1988 563.279 74.1219C563.451 74.0451 563.586 73.938 563.683 73.8007C563.78 73.6616 563.829 73.5015 563.829 73.3203C563.829 73.1318 563.78 72.9662 563.683 72.8234C563.588 72.6788 563.448 72.5653 563.263 72.483C563.08 72.4006 562.859 72.3595 562.599 72.3595H562.124V71.6676H562.599C562.807 71.6676 562.99 71.6301 563.148 71.5551C563.307 71.48 563.431 71.3757 563.521 71.2421C563.611 71.1067 563.656 70.9484 563.656 70.7672C563.656 70.5933 563.616 70.4423 563.538 70.3142C563.461 70.1843 563.351 70.0827 563.208 70.0095C563.067 69.9363 562.901 69.8997 562.708 69.8997C562.525 69.8997 562.354 69.9335 562.195 70.0012C562.038 70.0671 561.91 70.1623 561.811 70.2867C561.712 70.4094 561.659 70.5567 561.651 70.7287H560.831C560.84 70.4249 560.929 70.1577 561.1 69.9271C561.272 69.6965 561.499 69.5162 561.781 69.3863C562.062 69.2563 562.375 69.1914 562.719 69.1914C563.08 69.1914 563.391 69.2618 563.653 69.4028C563.916 69.5419 564.12 69.7276 564.262 69.9601C564.407 70.1925 564.478 70.4469 564.476 70.7232C564.478 71.038 564.39 71.3053 564.213 71.5249C564.037 71.7445 563.803 71.8918 563.51 71.9669V72.0108C563.883 72.0675 564.173 72.2158 564.378 72.4555C564.584 72.6953 564.687 72.9927 564.685 73.3478C564.687 73.6571 564.601 73.9343 564.427 74.1796C564.255 74.4248 564.02 74.6179 563.721 74.7589C563.423 74.8979 563.082 74.9675 562.697 74.9675Z" fill="#707070"/>
</g>
<g clip-path="url(#clip3_896_9416)">
<path d="M583.487 74.9428C583.337 74.9428 583.208 74.8897 583.1 74.7836C582.992 74.6756 582.938 74.5456 582.938 74.3937C582.938 74.2436 582.992 74.1155 583.1 74.0094C583.208 73.9014 583.337 73.8474 583.487 73.8474C583.637 73.8474 583.766 73.9014 583.874 74.0094C583.982 74.1155 584.036 74.2436 584.036 74.3937C584.036 74.4944 584.011 74.5868 583.959 74.671C583.91 74.7534 583.844 74.8192 583.762 74.8687C583.679 74.9181 583.588 74.9428 583.487 74.9428ZM585.677 74.9428C585.526 74.9428 585.397 74.8897 585.289 74.7836C585.181 74.6756 585.127 74.5456 585.127 74.3937C585.127 74.2436 585.181 74.1155 585.289 74.0094C585.397 73.9014 585.526 73.8474 585.677 73.8474C585.827 73.8474 585.956 73.9014 586.064 74.0094C586.172 74.1155 586.226 74.2436 586.226 74.3937C586.226 74.4944 586.2 74.5868 586.149 74.671C586.099 74.7534 586.033 74.8192 585.951 74.8687C585.869 74.9181 585.777 74.9428 585.677 74.9428ZM587.866 74.9428C587.716 74.9428 587.587 74.8897 587.479 74.7836C587.371 74.6756 587.317 74.5456 587.317 74.3937C587.317 74.2436 587.371 74.1155 587.479 74.0094C587.587 73.9014 587.716 73.8474 587.866 73.8474C588.016 73.8474 588.145 73.9014 588.253 74.0094C588.361 74.1155 588.415 74.2436 588.415 74.3937C588.415 74.4944 588.389 74.5868 588.338 74.671C588.289 74.7534 588.223 74.8192 588.14 74.8687C588.058 74.9181 587.967 74.9428 587.866 74.9428Z" fill="#707070"/>
</g>
<g clip-path="url(#clip4_896_9416)">
<path d="M609.027 74.9675C608.633 74.9675 608.285 74.8998 607.983 74.7643C607.683 74.6289 607.448 74.4422 607.278 74.2043C607.108 73.9664 607.023 73.6955 607.025 73.3917C607.023 73.1538 607.072 72.9351 607.171 72.7356C607.271 72.5342 607.408 72.3668 607.58 72.2332C607.752 72.0977 607.944 72.0117 608.156 71.9751V71.9422C607.876 71.8744 607.652 71.7244 607.484 71.4919C607.315 71.2595 607.232 70.9923 607.234 70.6903C607.232 70.403 607.308 70.1467 607.462 69.9216C607.617 69.6947 607.83 69.5162 608.101 69.3863C608.372 69.2563 608.681 69.1914 609.027 69.1914C609.369 69.1914 609.674 69.2573 609.943 69.389C610.214 69.519 610.428 69.6974 610.583 69.9244C610.739 70.1495 610.817 70.4048 610.819 70.6903C610.817 70.9923 610.731 71.2595 610.561 71.4919C610.391 71.7244 610.169 71.8744 609.897 71.9422V71.9751C610.107 72.0117 610.297 72.0977 610.465 72.2332C610.635 72.3668 610.771 72.5342 610.871 72.7356C610.974 72.9351 611.026 73.1538 611.028 73.3917C611.026 73.6955 610.94 73.9664 610.77 74.2043C610.6 74.4422 610.363 74.6289 610.061 74.7643C609.761 74.8998 609.416 74.9675 609.027 74.9675ZM609.027 74.2729C609.259 74.2729 609.46 74.2345 609.63 74.1576C609.801 74.0789 609.932 73.97 610.026 73.8309C610.119 73.69 610.167 73.5253 610.169 73.3368C610.167 73.1409 610.115 72.968 610.015 72.8179C609.916 72.6678 609.781 72.5498 609.611 72.4638C609.441 72.3778 609.246 72.3347 609.027 72.3347C608.805 72.3347 608.608 72.3778 608.436 72.4638C608.264 72.5498 608.129 72.6678 608.03 72.8179C607.931 72.968 607.883 73.1409 607.884 73.3368C607.883 73.5253 607.927 73.69 608.019 73.8309C608.112 73.97 608.245 74.0789 608.417 74.1576C608.589 74.2345 608.792 74.2729 609.027 74.2729ZM609.027 71.6567C609.213 71.6567 609.379 71.6191 609.523 71.5441C609.668 71.4691 609.781 71.3647 609.864 71.2311C609.948 71.0975 609.991 70.941 609.993 70.7617C609.991 70.586 609.949 70.4322 609.867 70.3005C609.786 70.1687 609.673 70.0671 609.529 69.9957C609.384 69.9225 609.217 69.8859 609.027 69.8859C608.833 69.8859 608.662 69.9225 608.516 69.9957C608.371 70.0671 608.259 70.1687 608.178 70.3005C608.098 70.4322 608.058 70.586 608.06 70.7617C608.058 70.941 608.099 71.0975 608.181 71.2311C608.263 71.3647 608.377 71.4691 608.521 71.5441C608.668 71.6191 608.836 71.6567 609.027 71.6567Z" fill="#707070"/>
</g>
<g clip-path="url(#clip5_896_9416)">
<path d="M632.188 69.1914C632.438 69.1932 632.686 69.239 632.929 69.3286C633.172 69.4183 633.392 69.5647 633.588 69.7679C633.785 69.971 633.943 70.2456 634.06 70.5915C634.179 70.9356 634.239 71.3638 634.241 71.8763C634.241 72.3686 634.192 72.8069 634.093 73.1913C633.994 73.5738 633.852 73.8968 633.667 74.1604C633.484 74.4239 633.262 74.6243 633 74.7616C632.739 74.8989 632.444 74.9675 632.116 74.9675C631.781 74.9675 631.484 74.9016 631.224 74.7698C630.964 74.6381 630.753 74.456 630.59 74.2235C630.427 73.9892 630.325 73.7202 630.285 73.4164H631.123C631.177 73.658 631.289 73.8538 631.457 74.0039C631.628 74.1521 631.847 74.2263 632.116 74.2263C632.528 74.2263 632.849 74.0469 633.08 73.6882C633.311 73.3276 633.427 72.8243 633.429 72.1783H633.385C633.29 72.3357 633.171 72.4711 633.028 72.5846C632.887 72.698 632.729 72.7859 632.553 72.8481C632.377 72.9103 632.19 72.9415 631.99 72.9415C631.666 72.9415 631.371 72.8618 631.106 72.7026C630.841 72.5434 630.629 72.3247 630.472 72.0465C630.315 71.7683 630.236 71.4508 630.236 71.0939C630.236 70.7388 630.316 70.4167 630.477 70.1275C630.64 69.8383 630.867 69.6096 631.158 69.4412C631.451 69.271 631.794 69.1877 632.188 69.1914ZM632.19 69.9051C631.976 69.9051 631.783 69.9582 631.611 70.0644C631.441 70.1687 631.306 70.3105 631.208 70.4899C631.109 70.6674 631.059 70.8651 631.059 71.0829C631.059 71.3007 631.107 71.4983 631.202 71.6759C631.299 71.8516 631.431 71.9916 631.597 72.0959C631.766 72.1984 631.958 72.2496 632.174 72.2496C632.335 72.2496 632.485 72.2185 632.624 72.1563C632.763 72.0941 632.885 72.0081 632.989 71.8982C633.094 71.7866 633.175 71.6603 633.234 71.5194C633.292 71.3785 633.322 71.2302 633.322 71.0746C633.322 70.8678 633.272 70.6757 633.173 70.4981C633.076 70.3206 632.943 70.1778 632.772 70.0699C632.602 69.9601 632.408 69.9051 632.19 69.9051Z" fill="#707070"/>
</g>
<g clip-path="url(#clip6_896_9416)">
<path d="M653.643 69.2682V74.8906H652.792V70.1193H652.759L651.413 70.9978V70.1852L652.816 69.2682H653.643ZM657.121 74.984C656.687 74.9821 656.317 74.8677 656.009 74.6408C655.702 74.4139 655.466 74.0835 655.304 73.6497C655.141 73.216 655.059 72.6935 655.059 72.0822C655.059 71.4727 655.141 70.952 655.304 70.5201C655.468 70.0882 655.704 69.7587 656.012 69.5318C656.321 69.3048 656.691 69.1914 657.121 69.1914C657.551 69.1914 657.92 69.3058 658.227 69.5345C658.535 69.7615 658.77 70.0909 658.933 70.5228C659.098 70.9529 659.18 71.4727 659.18 72.0822C659.18 72.6953 659.099 73.2187 658.936 73.6525C658.773 74.0844 658.538 74.4148 658.23 74.6435C657.923 74.8705 657.553 74.984 657.121 74.984ZM657.121 74.251C657.502 74.251 657.799 74.0652 658.013 73.6937C658.229 73.3221 658.337 72.785 658.337 72.0822C658.337 71.6155 658.288 71.2211 658.189 70.8989C658.092 70.575 657.952 70.3298 657.769 70.1632C657.588 69.9948 657.372 69.9106 657.121 69.9106C656.742 69.9106 656.445 70.0973 656.229 70.4707C656.013 70.844 655.904 71.3812 655.902 72.0822C655.902 72.5507 655.951 72.9469 656.048 73.2709C656.146 73.593 656.286 73.8373 656.468 74.0039C656.649 74.1686 656.867 74.251 657.121 74.251Z" fill="#707070"/>
</g>
<rect x="680.046" y="65.3542" width="44.1622" height="15.0742" rx="1.3805" fill="white"/>
<path d="M692.272 70.1698V75.3906H691.66L688.815 71.2915H688.764V75.3906H688.132V70.1698H688.744L691.599 74.2792H691.65V70.1698H692.272ZM695.097 75.4722C694.72 75.4722 694.395 75.3889 694.121 75.2224C693.849 75.0541 693.639 74.8196 693.491 74.5188C693.345 74.2163 693.272 73.8645 693.272 73.4634C693.272 73.0623 693.345 72.7089 693.491 72.4029C693.639 72.0953 693.845 71.8557 694.108 71.6841C694.373 71.5107 694.683 71.424 695.036 71.424C695.24 71.424 695.441 71.458 695.64 71.526C695.839 71.594 696.02 71.7045 696.183 71.8574C696.346 72.0087 696.476 72.2092 696.573 72.459C696.67 72.7089 696.719 73.0165 696.719 73.3818V73.6368H693.7V73.1167H696.107C696.107 72.8958 696.063 72.6987 695.974 72.5253C695.888 72.352 695.763 72.2152 695.602 72.1149C695.442 72.0146 695.254 71.9645 695.036 71.9645C694.796 71.9645 694.589 72.024 694.414 72.1429C694.241 72.2602 694.107 72.4131 694.014 72.6018C693.92 72.7904 693.874 72.9927 693.874 73.2085V73.5552C693.874 73.8509 693.925 74.1016 694.027 74.3072C694.13 74.5111 694.274 74.6666 694.457 74.7737C694.641 74.8791 694.854 74.9318 695.097 74.9318C695.255 74.9318 695.398 74.9097 695.526 74.8655C695.655 74.8196 695.766 74.7516 695.86 74.6615C695.953 74.5698 696.025 74.4559 696.076 74.32L696.657 74.4831C696.596 74.6802 696.493 74.8536 696.349 75.0031C696.205 75.151 696.026 75.2666 695.814 75.3498C695.601 75.4314 695.362 75.4722 695.097 75.4722ZM697.977 71.475L698.915 73.0759L699.853 71.475H700.547L699.282 73.4328L700.547 75.3906H699.853L698.915 73.8713L697.977 75.3906H697.284L698.528 73.4328L697.284 71.475H697.977ZM703.108 71.475V71.9849H701.079V71.475H703.108ZM701.67 70.5369H702.272V74.269C702.272 74.4389 702.297 74.5664 702.346 74.6514C702.397 74.7346 702.462 74.7907 702.54 74.8196C702.62 74.8468 702.704 74.8604 702.792 74.8604C702.858 74.8604 702.913 74.857 702.955 74.8502C702.998 74.8417 703.032 74.8349 703.057 74.8298L703.18 75.3702C703.139 75.3855 703.082 75.4008 703.009 75.4161C702.936 75.4331 702.843 75.4416 702.731 75.4416C702.561 75.4416 702.394 75.4051 702.231 75.332C702.07 75.2589 701.936 75.1476 701.828 74.998C701.723 74.8485 701.67 74.6599 701.67 74.4321V70.5369Z" fill="#1A1A1A"/>
<path d="M709.758 72.8972H714.912M714.912 72.8972L712.335 70.3203M714.912 72.8972L712.335 75.4742" stroke="#344054" stroke-width="0.922172" stroke-linecap="round" stroke-linejoin="round"/>
<rect x="680.046" y="65.3542" width="44.1622" height="15.0742" rx="1.3805" stroke="#D8DEE9" stroke-width="0.552199"/>
<path d="M66.2617 55.7709H737.736V54.6666H66.2617V55.7709Z" fill="#EAECF0" mask="url(#path-1-outside-1_896_9416)"/>
<path d="M82.6735 139.017C82.6484 138.794 82.5449 138.622 82.3629 138.499C82.1809 138.375 81.9519 138.314 81.6758 138.314C81.4781 138.314 81.3071 138.345 81.1628 138.408C81.0185 138.469 80.9063 138.554 80.8263 138.662C80.7479 138.768 80.7087 138.89 80.7087 139.027C80.7087 139.141 80.7353 139.24 80.7887 139.323C80.8436 139.406 80.9149 139.476 81.0028 139.532C81.0922 139.587 81.1879 139.634 81.2899 139.671C81.3918 139.707 81.4899 139.737 81.584 139.761L82.0546 139.883C82.2084 139.921 82.366 139.972 82.5276 140.036C82.6892 140.1 82.839 140.185 82.9771 140.29C83.1151 140.395 83.2265 140.525 83.3112 140.681C83.3975 140.836 83.4406 141.022 83.4406 141.238C83.4406 141.511 83.37 141.754 83.2288 141.966C83.0892 142.177 82.8861 142.344 82.6194 142.467C82.3543 142.589 82.0335 142.65 81.657 142.65C81.2962 142.65 80.984 142.593 80.7204 142.479C80.4569 142.364 80.2506 142.202 80.1016 141.991C79.9525 141.78 79.8702 141.529 79.8545 141.238H80.5839C80.5981 141.413 80.6545 141.558 80.7534 141.674C80.8538 141.788 80.9816 141.874 81.1369 141.93C81.2938 141.985 81.4656 142.013 81.6523 142.013C81.8578 142.013 82.0405 141.98 82.2005 141.916C82.3621 141.85 82.4892 141.759 82.5817 141.643C82.6743 141.526 82.7206 141.388 82.7206 141.231C82.7206 141.089 82.6798 140.972 82.5982 140.881C82.5182 140.79 82.4092 140.714 82.2711 140.655C82.1346 140.595 81.9801 140.543 81.8076 140.497L81.2381 140.342C80.8522 140.237 80.5463 140.082 80.3204 139.878C80.0961 139.674 79.9839 139.405 79.9839 139.069C79.9839 138.791 80.0592 138.549 80.2098 138.342C80.3604 138.135 80.5643 137.974 80.8216 137.859C81.0789 137.743 81.3691 137.685 81.6923 137.685C82.0186 137.685 82.3064 137.742 82.5559 137.857C82.8069 137.972 83.0045 138.129 83.1488 138.33C83.2932 138.529 83.3685 138.758 83.3747 139.017H82.6735ZM84.9566 140.424V142.57H84.253V137.751H84.9472V139.544H84.9919C85.0766 139.35 85.2061 139.195 85.3802 139.081C85.5543 138.966 85.7818 138.909 86.0626 138.909C86.3105 138.909 86.5269 138.96 86.7121 139.062C86.8987 139.164 87.0431 139.316 87.145 139.518C87.2486 139.719 87.3003 139.97 87.3003 140.271V142.57H86.5968V140.356C86.5968 140.091 86.5285 139.885 86.392 139.74C86.2556 139.592 86.0657 139.518 85.8226 139.518C85.6563 139.518 85.5073 139.554 85.3755 139.624C85.2453 139.695 85.1425 139.798 85.0672 139.935C84.9935 140.07 84.9566 140.233 84.9566 140.424ZM89.7617 142.643C89.4229 142.643 89.1271 142.566 88.8746 142.41C88.622 142.255 88.4259 142.038 88.2863 141.758C88.1467 141.479 88.0769 141.153 88.0769 140.78C88.0769 140.405 88.1467 140.077 88.2863 139.796C88.4259 139.515 88.622 139.297 88.8746 139.142C89.1271 138.987 89.4229 138.909 89.7617 138.909C90.1006 138.909 90.3963 138.987 90.6488 139.142C90.9014 139.297 91.0975 139.515 91.2371 139.796C91.3767 140.077 91.4465 140.405 91.4465 140.78C91.4465 141.153 91.3767 141.479 91.2371 141.758C91.0975 142.038 90.9014 142.255 90.6488 142.41C90.3963 142.566 90.1006 142.643 89.7617 142.643ZM89.7641 142.053C89.9837 142.053 90.1657 141.995 90.31 141.878C90.4543 141.762 90.561 141.608 90.63 141.415C90.7006 141.222 90.7359 141.009 90.7359 140.777C90.7359 140.547 90.7006 140.335 90.63 140.142C90.561 139.947 90.4543 139.791 90.31 139.674C90.1657 139.556 89.9837 139.497 89.7641 139.497C89.5429 139.497 89.3593 139.556 89.2134 139.674C89.0691 139.791 88.9616 139.947 88.891 140.142C88.822 140.335 88.7875 140.547 88.7875 140.777C88.7875 141.009 88.822 141.222 88.891 141.415C88.9616 141.608 89.0691 141.762 89.2134 141.878C89.3593 141.995 89.5429 142.053 89.7641 142.053ZM92.9055 142.57L91.8419 138.956H92.569L93.2773 141.61H93.3126L94.0232 138.956H94.7503L95.4563 141.598H95.4916L96.1951 138.956H96.9222L95.861 142.57H95.1433L94.4091 139.961H94.355L93.6208 142.57H92.9055ZM97.5899 142.57V138.956H98.2935V142.57H97.5899ZM97.9453 138.398C97.8229 138.398 97.7178 138.357 97.6299 138.276C97.5437 138.193 97.5005 138.094 97.5005 137.979C97.5005 137.863 97.5437 137.764 97.6299 137.683C97.7178 137.6 97.8229 137.558 97.9453 137.558C98.0676 137.558 98.172 137.6 98.2582 137.683C98.3461 137.764 98.39 137.863 98.39 137.979C98.39 138.094 98.3461 138.193 98.2582 138.276C98.172 138.357 98.0676 138.398 97.9453 138.398ZM99.9437 140.424V142.57H99.2401V138.956H99.9154V139.544H99.9601C100.043 139.353 100.173 139.199 100.351 139.083C100.53 138.967 100.755 138.909 101.026 138.909C101.272 138.909 101.488 138.961 101.673 139.064C101.858 139.166 102.002 139.318 102.104 139.521C102.206 139.723 102.257 139.973 102.257 140.271V142.57H101.553V140.356C101.553 140.094 101.485 139.889 101.348 139.742C101.212 139.593 101.025 139.518 100.786 139.518C100.623 139.518 100.478 139.554 100.351 139.624C100.225 139.695 100.126 139.798 100.052 139.935C99.9797 140.07 99.9437 140.233 99.9437 140.424ZM104.716 144.001C104.429 144.001 104.182 143.963 103.975 143.888C103.769 143.813 103.601 143.713 103.471 143.589C103.341 143.465 103.244 143.33 103.179 143.182L103.784 142.933C103.826 143.002 103.883 143.075 103.953 143.152C104.026 143.23 104.123 143.297 104.245 143.352C104.369 143.406 104.528 143.434 104.723 143.434C104.99 143.434 105.21 143.369 105.384 143.239C105.558 143.11 105.645 142.904 105.645 142.622V141.911H105.601C105.558 141.988 105.497 142.074 105.417 142.168C105.339 142.262 105.23 142.344 105.092 142.413C104.954 142.482 104.775 142.516 104.553 142.516C104.268 142.516 104.011 142.45 103.782 142.316C103.554 142.181 103.374 141.983 103.24 141.721C103.109 141.457 103.043 141.133 103.043 140.749C103.043 140.365 103.108 140.035 103.238 139.761C103.37 139.486 103.55 139.276 103.779 139.13C104.008 138.983 104.268 138.909 104.558 138.909C104.782 138.909 104.964 138.947 105.102 139.022C105.24 139.096 105.347 139.182 105.424 139.281C105.503 139.379 105.563 139.467 105.605 139.542H105.657V138.956H106.346V142.65C106.346 142.961 106.274 143.216 106.13 143.415C105.986 143.614 105.79 143.762 105.544 143.857C105.299 143.953 105.023 144.001 104.716 144.001ZM104.709 141.933C104.911 141.933 105.082 141.886 105.222 141.791C105.363 141.696 105.47 141.559 105.542 141.382C105.615 141.203 105.652 140.989 105.652 140.74C105.652 140.496 105.616 140.282 105.544 140.097C105.472 139.912 105.366 139.768 105.226 139.664C105.087 139.559 104.914 139.507 104.709 139.507C104.497 139.507 104.32 139.561 104.179 139.671C104.038 139.78 103.931 139.927 103.859 140.114C103.789 140.3 103.753 140.509 103.753 140.74C103.753 140.976 103.789 141.184 103.862 141.363C103.934 141.542 104.04 141.682 104.182 141.782C104.324 141.882 104.5 141.933 104.709 141.933ZM110.863 137.751V142.57H110.133V138.481H110.105L108.952 139.234V138.537L110.154 137.751H110.863ZM114.305 139.855V140.467H112.169V139.855H114.305ZM116.824 142.636C116.529 142.636 116.264 142.58 116.029 142.467C115.795 142.352 115.609 142.195 115.469 141.996C115.329 141.797 115.255 141.569 115.245 141.314H115.951C115.969 141.521 116.06 141.691 116.227 141.824C116.393 141.958 116.592 142.024 116.824 142.024C117.009 142.024 117.173 141.982 117.316 141.897C117.46 141.811 117.573 141.693 117.655 141.542C117.738 141.391 117.78 141.22 117.78 141.027C117.78 140.831 117.737 140.656 117.653 140.502C117.568 140.348 117.451 140.227 117.302 140.14C117.155 140.052 116.985 140.007 116.794 140.005C116.648 140.005 116.501 140.031 116.354 140.081C116.206 140.131 116.087 140.197 115.996 140.278L115.33 140.18L115.601 137.751H118.25V138.375H116.205L116.053 139.723H116.081C116.175 139.632 116.3 139.556 116.455 139.495C116.612 139.434 116.78 139.403 116.958 139.403C117.252 139.403 117.513 139.473 117.742 139.612C117.973 139.752 118.154 139.943 118.286 140.184C118.419 140.424 118.485 140.7 118.483 141.013C118.485 141.325 118.414 141.603 118.272 141.848C118.13 142.093 117.934 142.286 117.683 142.427C117.434 142.566 117.148 142.636 116.824 142.636ZM122.628 142.643C122.289 142.643 121.994 142.566 121.741 142.41C121.489 142.255 121.293 142.038 121.153 141.758C121.013 141.479 120.943 141.153 120.943 140.78C120.943 140.405 121.013 140.077 121.153 139.796C121.293 139.515 121.489 139.297 121.741 139.142C121.994 138.987 122.289 138.909 122.628 138.909C122.967 138.909 123.263 138.987 123.515 139.142C123.768 139.297 123.964 139.515 124.104 139.796C124.243 140.077 124.313 140.405 124.313 140.78C124.313 141.153 124.243 141.479 124.104 141.758C123.964 142.038 123.768 142.255 123.515 142.41C123.263 142.566 122.967 142.643 122.628 142.643ZM122.631 142.053C122.85 142.053 123.032 141.995 123.177 141.878C123.321 141.762 123.428 141.608 123.497 141.415C123.567 141.222 123.603 141.009 123.603 140.777C123.603 140.547 123.567 140.335 123.497 140.142C123.428 139.947 123.321 139.791 123.177 139.674C123.032 139.556 122.85 139.497 122.631 139.497C122.409 139.497 122.226 139.556 122.08 139.674C121.936 139.791 121.828 139.947 121.758 140.142C121.689 140.335 121.654 140.547 121.654 140.777C121.654 141.009 121.689 141.222 121.758 141.415C121.828 141.608 121.936 141.762 122.08 141.878C122.226 141.995 122.409 142.053 122.631 142.053ZM126.819 138.956V139.521H124.776V138.956H126.819ZM125.336 142.57V138.537C125.336 138.311 125.386 138.124 125.484 137.975C125.583 137.824 125.714 137.712 125.877 137.638C126.041 137.563 126.218 137.525 126.409 137.525C126.55 137.525 126.671 137.537 126.772 137.561C126.872 137.582 126.946 137.603 126.995 137.622L126.83 138.191C126.797 138.182 126.755 138.171 126.703 138.158C126.652 138.144 126.589 138.137 126.515 138.137C126.344 138.137 126.222 138.179 126.148 138.264C126.076 138.349 126.04 138.471 126.04 138.631V142.57H125.336ZM130.917 142.636C130.58 142.636 130.282 142.578 130.023 142.462C129.766 142.346 129.564 142.186 129.418 141.982C129.272 141.778 129.2 141.546 129.202 141.286C129.2 141.082 129.242 140.894 129.326 140.723C129.413 140.551 129.53 140.407 129.677 140.292C129.825 140.176 129.989 140.103 130.171 140.071V140.043C129.931 139.985 129.739 139.856 129.595 139.657C129.45 139.458 129.379 139.229 129.381 138.97C129.379 138.724 129.444 138.504 129.576 138.311C129.709 138.117 129.892 137.964 130.124 137.852C130.356 137.741 130.621 137.685 130.917 137.685C131.211 137.685 131.473 137.742 131.703 137.855C131.935 137.966 132.118 138.119 132.251 138.314C132.385 138.506 132.452 138.725 132.454 138.97C132.452 139.229 132.378 139.458 132.233 139.657C132.087 139.856 131.897 139.985 131.663 140.043V140.071C131.844 140.103 132.006 140.176 132.15 140.292C132.296 140.407 132.412 140.551 132.498 140.723C132.586 140.894 132.631 141.082 132.633 141.286C132.631 141.546 132.557 141.778 132.411 141.982C132.266 142.186 132.063 142.346 131.804 142.462C131.547 142.578 131.251 142.636 130.917 142.636ZM130.917 142.041C131.116 142.041 131.289 142.008 131.435 141.942C131.581 141.875 131.694 141.781 131.774 141.662C131.854 141.541 131.895 141.4 131.896 141.238C131.895 141.071 131.851 140.922 131.764 140.794C131.68 140.665 131.564 140.564 131.418 140.49C131.273 140.416 131.105 140.38 130.917 140.38C130.727 140.38 130.559 140.416 130.411 140.49C130.264 140.564 130.148 140.665 130.063 140.794C129.978 140.922 129.937 141.071 129.938 141.238C129.937 141.4 129.975 141.541 130.054 141.662C130.134 141.781 130.247 141.875 130.395 141.942C130.542 142.008 130.716 142.041 130.917 142.041ZM130.917 139.798C131.077 139.798 131.219 139.766 131.343 139.702C131.467 139.638 131.564 139.548 131.635 139.434C131.707 139.319 131.744 139.185 131.745 139.031C131.744 138.881 131.708 138.749 131.637 138.636C131.568 138.523 131.472 138.436 131.348 138.375C131.224 138.312 131.08 138.281 130.917 138.281C130.751 138.281 130.605 138.312 130.48 138.375C130.356 138.436 130.259 138.523 130.19 138.636C130.121 138.749 130.087 138.881 130.089 139.031C130.087 139.185 130.122 139.319 130.192 139.434C130.263 139.548 130.36 139.638 130.484 139.702C130.61 139.766 130.754 139.798 130.917 139.798ZM133.374 141.629V141.041L135.457 137.751H135.921V138.617H135.626L134.137 140.975V141.013H136.991V141.629H133.374ZM135.659 142.57V141.45L135.664 141.182V137.751H136.353V142.57H135.659Z" fill="#707070"/>
<g filter="url(#filter0_d_896_9416)">
<path d="M510.782 129.323H537.563V150.859H510.782C510.019 150.859 509.401 150.241 509.401 149.478V130.703C509.401 129.941 510.019 129.323 510.782 129.323Z" fill="white"/>
<path d="M526.704 140.088H520.262M520.262 140.088L523.483 143.31M520.262 140.088L523.483 136.867" stroke="#9E9E9E" stroke-width="0.922172" stroke-linecap="round" stroke-linejoin="round"/>
<path d="M510.782 129.323H537.563V150.859H510.782C510.019 150.859 509.401 150.241 509.401 149.478V130.703C509.401 129.941 510.019 129.323 510.782 129.323Z" stroke="#DDDDDD" stroke-width="0.552199"/>
<rect width="22.088" height="23.044" transform="translate(537.84 129.047)" fill="#E9F2FE"/>
<rect x="537.84" y="129.047" width="22.088" height="0.552199" fill="#DDDDDD"/>
<path d="M549.366 137.35V142.57H548.575V138.14H548.545L547.296 138.956V138.201L548.598 137.35H549.366Z" fill="#217CF5"/>
<rect x="537.84" y="151.539" width="22.088" height="0.552199" fill="#DDDDDD"/>
<path d="M559.926 129.047H560.478V151.135H559.926V129.047Z" fill="#DDDDDD"/>
<rect width="22.088" height="23.044" transform="translate(560.48 129.047)" fill="white"/>
<rect x="560.48" y="129.047" width="22.088" height="0.552199" fill="#DDDDDD"/>
<path d="M569.526 142.57V141.999L571.292 140.169C571.481 139.97 571.636 139.796 571.759 139.646C571.883 139.495 571.975 139.352 572.037 139.216C572.098 139.08 572.128 138.935 572.128 138.782C572.128 138.609 572.088 138.459 572.006 138.334C571.924 138.206 571.813 138.108 571.672 138.04C571.531 137.971 571.372 137.936 571.195 137.936C571.008 137.936 570.845 137.974 570.706 138.051C570.567 138.127 570.459 138.235 570.385 138.374C570.31 138.514 570.273 138.677 570.273 138.864H569.521C569.521 138.546 569.594 138.268 569.74 138.03C569.886 137.792 570.086 137.608 570.341 137.477C570.596 137.344 570.886 137.278 571.211 137.278C571.539 137.278 571.828 137.344 572.077 137.474C572.329 137.604 572.525 137.78 572.666 138.005C572.807 138.227 572.878 138.479 572.878 138.759C572.878 138.953 572.841 139.142 572.768 139.328C572.697 139.513 572.572 139.719 572.393 139.947C572.215 140.173 571.967 140.448 571.649 140.771L570.612 141.857V141.895H572.962V142.57H569.526Z" fill="#707070"/>
<rect x="560.48" y="151.539" width="22.088" height="0.552199" fill="#DDDDDD"/>
<path d="M582.566 129.047H583.119V151.135H582.566V129.047Z" fill="#DDDDDD"/>
<rect width="22.088" height="23.044" transform="translate(583.121 129.047)" fill="white"/>
<rect x="583.121" y="129.047" width="22.088" height="0.552199" fill="#DDDDDD"/>
<path d="M593.984 142.642C593.634 142.642 593.321 142.581 593.046 142.461C592.772 142.34 592.555 142.173 592.396 141.959C592.238 141.743 592.153 141.493 592.141 141.209H592.941C592.951 141.364 593.003 141.498 593.097 141.612C593.192 141.724 593.316 141.811 593.469 141.872C593.622 141.933 593.792 141.964 593.979 141.964C594.184 141.964 594.366 141.928 594.524 141.857C594.684 141.785 594.809 141.686 594.899 141.558C594.989 141.429 595.034 141.28 595.034 141.112C595.034 140.937 594.989 140.783 594.899 140.651C594.811 140.516 594.681 140.411 594.509 140.335C594.339 140.258 594.133 140.22 593.892 140.22H593.451V139.578H593.892C594.086 139.578 594.256 139.543 594.402 139.473C594.55 139.403 594.665 139.306 594.749 139.182C594.832 139.057 594.874 138.91 594.874 138.741C594.874 138.58 594.837 138.44 594.764 138.321C594.693 138.2 594.591 138.106 594.458 138.038C594.327 137.97 594.172 137.936 593.994 137.936C593.824 137.936 593.665 137.967 593.517 138.03C593.371 138.091 593.252 138.18 593.16 138.295C593.069 138.409 593.019 138.546 593.013 138.706H592.25C592.259 138.424 592.342 138.175 592.5 137.961C592.66 137.747 592.871 137.58 593.132 137.459C593.394 137.338 593.685 137.278 594.004 137.278C594.339 137.278 594.628 137.344 594.871 137.474C595.116 137.604 595.304 137.776 595.437 137.992C595.571 138.208 595.637 138.444 595.636 138.701C595.637 138.993 595.556 139.241 595.391 139.445C595.228 139.649 595.01 139.786 594.738 139.855V139.896C595.085 139.949 595.354 140.087 595.544 140.309C595.736 140.532 595.831 140.808 595.829 141.138C595.831 141.425 595.751 141.682 595.59 141.91C595.43 142.138 595.212 142.317 594.935 142.448C594.658 142.577 594.341 142.642 593.984 142.642Z" fill="#707070"/>
<rect x="583.121" y="151.539" width="22.088" height="0.552199" fill="#DDDDDD"/>
<path d="M605.207 129.047H605.759V151.135H605.207V129.047Z" fill="#DDDDDD"/>
<rect width="22.088" height="23.044" transform="translate(605.762 129.047)" fill="white"/>
<rect x="605.762" y="129.047" width="22.088" height="0.552199" fill="#DDDDDD"/>
<path d="M614.319 142.619C614.18 142.619 614.06 142.569 613.96 142.471C613.86 142.371 613.809 142.25 613.809 142.109C613.809 141.97 613.86 141.851 613.96 141.752C614.06 141.652 614.18 141.602 614.319 141.602C614.459 141.602 614.578 141.652 614.679 141.752C614.779 141.851 614.829 141.97 614.829 142.109C614.829 142.202 614.805 142.288 614.758 142.366C614.712 142.443 614.651 142.504 614.574 142.55C614.498 142.596 614.413 142.619 614.319 142.619ZM616.352 142.619C616.213 142.619 616.093 142.569 615.993 142.471C615.893 142.371 615.842 142.25 615.842 142.109C615.842 141.97 615.893 141.851 615.993 141.752C616.093 141.652 616.213 141.602 616.352 141.602C616.492 141.602 616.611 141.652 616.712 141.752C616.812 141.851 616.862 141.97 616.862 142.109C616.862 142.202 616.838 142.288 616.791 142.366C616.745 142.443 616.684 142.504 616.607 142.55C616.531 142.596 616.446 142.619 616.352 142.619ZM618.385 142.619C618.246 142.619 618.126 142.569 618.026 142.471C617.926 142.371 617.875 142.25 617.875 142.109C617.875 141.97 617.926 141.851 618.026 141.752C618.126 141.652 618.246 141.602 618.385 141.602C618.525 141.602 618.644 141.652 618.745 141.752C618.845 141.851 618.895 141.97 618.895 142.109C618.895 142.202 618.871 142.288 618.824 142.366C618.778 142.443 618.717 142.504 618.64 142.55C618.564 142.596 618.479 142.619 618.385 142.619Z" fill="#707070"/>
<rect x="605.762" y="151.539" width="22.088" height="0.552199" fill="#DDDDDD"/>
<path d="M627.848 129.047H628.4V151.135H627.848V129.047Z" fill="#DDDDDD"/>
<rect width="22.088" height="23.044" transform="translate(628.398 129.047)" fill="white"/>
<rect x="628.398" y="129.047" width="22.088" height="0.552199" fill="#DDDDDD"/>
<path d="M639.208 142.642C638.842 142.642 638.519 142.579 638.239 142.453C637.96 142.327 637.742 142.154 637.584 141.933C637.426 141.712 637.348 141.461 637.349 141.178C637.348 140.958 637.393 140.754 637.484 140.569C637.578 140.382 637.704 140.227 637.864 140.103C638.024 139.977 638.202 139.897 638.4 139.863V139.832C638.14 139.77 637.931 139.63 637.775 139.414C637.619 139.199 637.541 138.95 637.543 138.67C637.541 138.403 637.612 138.165 637.755 137.956C637.899 137.745 638.097 137.58 638.349 137.459C638.6 137.338 638.886 137.278 639.208 137.278C639.525 137.278 639.809 137.339 640.059 137.462C640.311 137.582 640.509 137.748 640.653 137.959C640.798 138.168 640.871 138.405 640.872 138.67C640.871 138.95 640.791 139.199 640.633 139.414C640.475 139.63 640.269 139.77 640.016 139.832V139.863C640.211 139.897 640.387 139.977 640.543 140.103C640.701 140.227 640.827 140.382 640.921 140.569C641.016 140.754 641.064 140.958 641.066 141.178C641.064 141.461 640.984 141.712 640.826 141.933C640.668 142.154 640.449 142.327 640.169 142.453C639.89 142.579 639.57 142.642 639.208 142.642ZM639.208 141.997C639.423 141.997 639.61 141.961 639.768 141.89C639.927 141.817 640.049 141.715 640.136 141.586C640.222 141.455 640.266 141.303 640.268 141.127C640.266 140.946 640.219 140.785 640.125 140.646C640.034 140.506 639.909 140.397 639.751 140.317C639.593 140.237 639.412 140.197 639.208 140.197C639.002 140.197 638.819 140.237 638.66 140.317C638.5 140.397 638.374 140.506 638.282 140.646C638.191 140.785 638.145 140.946 638.147 141.127C638.145 141.303 638.187 141.455 638.272 141.586C638.359 141.715 638.482 141.817 638.642 141.89C638.801 141.961 638.99 141.997 639.208 141.997ZM639.208 139.567C639.381 139.567 639.535 139.532 639.669 139.463C639.803 139.393 639.909 139.296 639.985 139.172C640.063 139.048 640.103 138.903 640.105 138.736C640.103 138.573 640.064 138.43 639.988 138.308C639.913 138.186 639.808 138.091 639.674 138.025C639.54 137.957 639.384 137.923 639.208 137.923C639.028 137.923 638.869 137.957 638.734 138.025C638.599 138.091 638.495 138.186 638.42 138.308C638.345 138.43 638.309 138.573 638.31 138.736C638.309 138.903 638.346 139.048 638.422 139.172C638.499 139.296 638.604 139.393 638.739 139.463C638.875 139.532 639.031 139.567 639.208 139.567Z" fill="#707070"/>
<rect x="628.398" y="151.539" width="22.088" height="0.552199" fill="#DDDDDD"/>
<path d="M650.488 129.047H651.04V151.135H650.488V129.047Z" fill="#DDDDDD"/>
<rect width="22.088" height="23.044" transform="translate(651.039 129.047)" fill="white"/>
<rect x="651.039" y="129.047" width="22.088" height="0.552199" fill="#DDDDDD"/>
<path d="M661.82 137.278C662.053 137.28 662.282 137.322 662.509 137.406C662.735 137.489 662.938 137.625 663.12 137.813C663.304 138.002 663.45 138.257 663.559 138.578C663.669 138.898 663.725 139.295 663.727 139.771C663.727 140.228 663.681 140.635 663.589 140.992C663.498 141.348 663.366 141.647 663.194 141.892C663.024 142.137 662.818 142.323 662.575 142.45C662.332 142.578 662.058 142.642 661.754 142.642C661.443 142.642 661.167 142.581 660.925 142.458C660.684 142.336 660.488 142.167 660.337 141.951C660.185 141.733 660.091 141.483 660.054 141.201H660.831C660.882 141.426 660.986 141.608 661.142 141.747C661.3 141.885 661.504 141.953 661.754 141.953C662.136 141.953 662.435 141.787 662.649 141.454C662.863 141.119 662.971 140.652 662.972 140.052H662.932C662.843 140.198 662.733 140.324 662.6 140.429C662.469 140.534 662.322 140.616 662.159 140.674C661.996 140.731 661.822 140.76 661.637 140.76C661.336 140.76 661.062 140.686 660.816 140.539C660.569 140.391 660.373 140.188 660.227 139.929C660.081 139.671 660.008 139.376 660.008 139.045C660.008 138.715 660.083 138.416 660.232 138.147C660.383 137.879 660.594 137.666 660.864 137.51C661.136 137.352 661.455 137.275 661.82 137.278ZM661.823 137.941C661.624 137.941 661.445 137.99 661.285 138.089C661.127 138.186 661.002 138.317 660.91 138.484C660.818 138.649 660.773 138.832 660.773 139.035C660.773 139.237 660.817 139.42 660.905 139.585C660.995 139.748 661.118 139.878 661.272 139.975C661.429 140.07 661.607 140.118 661.807 140.118C661.957 140.118 662.096 140.089 662.226 140.031C662.355 139.974 662.468 139.894 662.565 139.792C662.661 139.688 662.737 139.571 662.791 139.44C662.846 139.309 662.873 139.171 662.873 139.027C662.873 138.835 662.827 138.656 662.735 138.492C662.645 138.327 662.521 138.194 662.363 138.094C662.205 137.992 662.025 137.941 661.823 137.941Z" fill="#707070"/>
<rect x="651.039" y="151.539" width="22.088" height="0.552199" fill="#DDDDDD"/>
<path d="M673.129 129.047H673.681V151.135H673.129V129.047Z" fill="#DDDDDD"/>
<rect width="22.088" height="23.044" transform="translate(673.68 129.047)" fill="white"/>
<rect x="673.68" y="129.047" width="22.088" height="0.552199" fill="#DDDDDD"/>
<path d="M682.706 137.35V142.57H681.915V138.14H681.885L680.636 138.956V138.201L681.938 137.35H682.706ZM685.935 142.657C685.533 142.655 685.189 142.549 684.903 142.338C684.618 142.128 684.399 141.821 684.248 141.418C684.097 141.015 684.021 140.53 684.021 139.962C684.021 139.397 684.097 138.913 684.248 138.512C684.401 138.111 684.62 137.805 684.906 137.594C685.193 137.384 685.536 137.278 685.935 137.278C686.335 137.278 686.677 137.384 686.963 137.597C687.248 137.808 687.467 138.113 687.618 138.515C687.771 138.914 687.847 139.397 687.847 139.962C687.847 140.532 687.772 141.018 687.62 141.421C687.469 141.822 687.251 142.128 686.965 142.341C686.68 142.552 686.337 142.657 685.935 142.657ZM685.935 141.976C686.289 141.976 686.565 141.804 686.764 141.459C686.964 141.114 687.065 140.615 687.065 139.962C687.065 139.529 687.019 139.163 686.927 138.864C686.837 138.563 686.707 138.335 686.537 138.181C686.369 138.024 686.168 137.946 685.935 137.946C685.584 137.946 685.307 138.119 685.107 138.466C684.906 138.813 684.805 139.312 684.804 139.962C684.804 140.398 684.849 140.765 684.939 141.066C685.03 141.365 685.16 141.592 685.329 141.747C685.497 141.9 685.699 141.976 685.935 141.976Z" fill="#707070"/>
<rect x="673.68" y="151.539" width="22.088" height="0.552199" fill="#DDDDDD"/>
<path d="M696.046 129.323H722.827C723.59 129.323 724.208 129.941 724.208 130.703V150.39C724.208 151.153 723.59 151.771 722.827 151.771H696.046V129.323Z" fill="white"/>
<path d="M706.906 140.541H713.349M713.349 140.541L710.127 137.32M713.349 140.541L710.127 143.763" stroke="#9E9E9E" stroke-width="0.922172" stroke-linecap="round" stroke-linejoin="round"/>
<path d="M696.046 129.323H722.827C723.59 129.323 724.208 129.941 724.208 130.703V150.39C724.208 151.153 723.59 151.771 722.827 151.771H696.046V129.323Z" stroke="#DDDDDD" stroke-width="0.552199"/>
</g>
<path d="M66.2617 123.451H737.736V122.346H66.2617V123.451Z" fill="#EAECF0" mask="url(#path-32-outside-2_896_9416)"/>
<defs>
<filter id="filter0_d_896_9416" x="508.021" y="128.495" width="217.568" height="25.2557" filterUnits="userSpaceOnUse" color-interpolation-filters="sRGB">
<feFlood flood-opacity="0" result="BackgroundImageFix"/>
<feColorMatrix in="SourceAlpha" type="matrix" values="0 0 0 0 0 0 0 0 0 0 0 0 0 0 0 0 0 0 127 0" result="hardAlpha"/>
<feOffset dy="0.552199"/>
<feGaussianBlur stdDeviation="0.552199"/>
<feColorMatrix type="matrix" values="0 0 0 0 0.0627451 0 0 0 0 0.0941176 0 0 0 0 0.156863 0 0 0 0.05 0"/>
<feBlend mode="normal" in2="BackgroundImageFix" result="effect1_dropShadow_896_9416"/>
<feBlend mode="normal" in="SourceGraphic" in2="effect1_dropShadow_896_9416" result="shape"/>
</filter>
<clipPath id="clip0_896_9416">
<rect x="505.273" y="61.8438" width="22.088" height="22.088" rx="1.6566" fill="white"/>
</clipPath>
<clipPath id="clip1_896_9416">
<rect x="528.465" y="61.8438" width="22.088" height="22.088" rx="4.41759" fill="white"/>
</clipPath>
<clipPath id="clip2_896_9416">
<rect x="551.656" y="61.8438" width="22.088" height="22.088" rx="4.41759" fill="white"/>
</clipPath>
<clipPath id="clip3_896_9416">
<rect x="574.852" y="61.8438" width="22.088" height="22.088" rx="4.41759" fill="white"/>
</clipPath>
<clipPath id="clip4_896_9416">
<rect x="598.043" y="61.8438" width="22.088" height="22.088" rx="4.41759" fill="white"/>
</clipPath>
<clipPath id="clip5_896_9416">
<rect x="621.234" y="61.8438" width="22.088" height="22.088" rx="4.41759" fill="white"/>
</clipPath>
<clipPath id="clip6_896_9416">
<rect x="644.426" y="61.8438" width="22.088" height="22.088" rx="4.41759" fill="white"/>
</clipPath>
</defs>
</svg>
