<svg width="390" height="160" viewBox="0 0 390 160" fill="none" xmlns="http://www.w3.org/2000/svg">
<rect width="390" height="160" rx="8" fill="#4CA154" fill-opacity="0.1"/>
<path d="M28 119C25.4288 119 22.9154 119.762 20.7776 121.191C18.6398 122.619 16.9735 124.65 15.9896 127.025C15.0056 129.401 14.7482 132.014 15.2498 134.536C15.7514 137.058 16.9895 139.374 18.8076 141.192C20.6257 143.01 22.9421 144.249 25.4638 144.75C27.9856 145.252 30.5995 144.994 32.9749 144.01C35.3503 143.026 37.3807 141.36 38.8091 139.222C40.2376 137.085 41 134.571 41 132C40.9964 128.553 39.6256 125.249 37.1884 122.812C34.7512 120.374 31.4467 119.004 28 119ZM33.7075 129.708L26.7075 136.708C26.6146 136.8 26.5043 136.874 26.3829 136.925C26.2615 136.975 26.1314 137.001 26 137.001C25.8686 137.001 25.7385 136.975 25.6171 136.925C25.4957 136.874 25.3854 136.8 25.2925 136.708L22.2925 133.708C22.1049 133.52 21.9994 133.265 21.9994 133C21.9994 132.735 22.1049 132.48 22.2925 132.292C22.4801 132.105 22.7346 131.999 23 131.999C23.2654 131.999 23.5199 132.105 23.7075 132.292L26 134.586L32.2925 128.292C32.3854 128.2 32.4957 128.126 32.6171 128.076C32.7385 128.025 32.8686 127.999 33 127.999C33.1314 127.999 33.2615 128.025 33.3829 128.076C33.5043 128.126 33.6146 128.2 33.7075 128.292C33.8004 128.385 33.8741 128.496 33.9244 128.617C33.9747 128.738 34.0006 128.869 34.0006 129C34.0006 129.131 33.9747 129.262 33.9244 129.383C33.8741 129.504 33.8004 129.615 33.7075 129.708Z" fill="#4CA154"/>
<path d="M120.824 67.1425C120.824 65.296 120.824 64.3727 121.184 63.6674C121.5 63.047 122.004 62.5427 122.624 62.2265C123.33 61.8672 124.253 61.8672 126.1 61.8672H263.897C265.743 61.8672 266.666 61.8672 267.372 62.2265C267.992 62.5427 268.496 63.047 268.813 63.6674C269.172 64.3727 269.172 65.296 269.172 67.1425V92.8599C269.172 94.7064 269.172 95.6297 268.813 96.335C268.496 96.9554 267.992 97.4598 267.372 97.7759C266.666 98.1352 265.743 98.1352 263.897 98.1352H126.1C124.253 98.1352 123.33 98.1352 122.624 97.7759C122.004 97.4598 121.5 96.9554 121.184 96.335C120.824 95.6297 120.824 94.7064 120.824 92.8599V67.1425Z" fill="#217CF5"/>
<path d="M147.201 71.9688C145.611 71.9688 144.057 72.4401 142.736 73.3232C141.414 74.2063 140.384 75.4614 139.776 76.9299C139.168 78.3984 139.008 80.0143 139.318 81.5733C139.629 83.1323 140.394 84.5643 141.518 85.6882C142.642 86.8122 144.074 87.5776 145.633 87.8877C147.192 88.1978 148.808 88.0386 150.276 87.4303C151.745 86.8221 153 85.792 153.883 84.4704C154.766 83.1487 155.237 81.5949 155.237 80.0054C155.235 77.8747 154.388 75.8318 152.881 74.3251C151.374 72.8184 149.332 71.971 147.201 71.9688ZM147.201 86.8057C145.856 86.8057 144.541 86.4069 143.423 85.6596C142.304 84.9124 141.433 83.8504 140.918 82.6078C140.403 81.3652 140.269 79.9979 140.531 78.6788C140.794 77.3596 141.441 76.1479 142.392 75.1969C143.343 74.2459 144.555 73.5982 145.874 73.3358C147.193 73.0734 148.561 73.2081 149.803 73.7228C151.046 74.2375 152.108 75.1091 152.855 76.2274C153.602 77.3457 154.001 78.6605 154.001 80.0054C153.999 81.8083 153.282 83.5368 152.007 84.8117C150.732 86.0865 149.004 86.8036 147.201 86.8057Z" fill="#FCFCFD"/>
<path d="M169.919 78.0452C169.875 77.6362 169.691 77.3177 169.366 77.0898C169.045 76.8619 168.626 76.7479 168.111 76.7479C167.749 76.7479 167.438 76.8025 167.179 76.9118C166.92 77.0211 166.722 77.1694 166.584 77.3567C166.447 77.5441 166.377 77.7579 166.374 77.9984C166.374 78.1982 166.419 78.3715 166.51 78.5182C166.603 78.665 166.73 78.7898 166.889 78.8929C167.048 78.9928 167.225 79.0771 167.418 79.1458C167.612 79.2145 167.807 79.2722 168.004 79.3191L168.903 79.5439C169.265 79.6282 169.613 79.7421 169.947 79.8858C170.284 80.0294 170.586 80.2105 170.851 80.429C171.12 80.6476 171.332 80.9114 171.488 81.2205C171.644 81.5296 171.722 81.8918 171.722 82.3071C171.722 82.8691 171.579 83.3639 171.291 83.7917C171.004 84.2163 170.589 84.5488 170.046 84.7892C169.505 85.0265 168.851 85.1452 168.083 85.1452C167.337 85.1452 166.689 85.0297 166.14 84.7986C165.593 84.5676 165.165 84.2304 164.856 83.787C164.55 83.3436 164.385 82.8035 164.36 82.1666H166.069C166.094 82.5006 166.197 82.7785 166.378 83.0002C166.56 83.2219 166.795 83.3874 167.086 83.4966C167.379 83.6059 167.707 83.6606 168.069 83.6606C168.447 83.6606 168.778 83.6044 169.062 83.492C169.349 83.3764 169.574 83.2172 169.736 83.0142C169.899 82.8082 169.982 82.5678 169.985 82.293C169.982 82.0432 169.908 81.8372 169.765 81.6748C169.621 81.5093 169.419 81.3719 169.16 81.2627C168.904 81.1503 168.605 81.0504 168.261 80.9629L167.17 80.6819C166.38 80.479 165.756 80.1714 165.297 79.7593C164.841 79.344 164.613 78.793 164.613 78.1061C164.613 77.5409 164.766 77.0461 165.072 76.6214C165.381 76.1968 165.801 75.8674 166.332 75.6332C166.862 75.396 167.463 75.2773 168.135 75.2773C168.815 75.2773 169.412 75.396 169.924 75.6332C170.439 75.8674 170.843 76.1937 171.137 76.6121C171.43 77.0273 171.582 77.505 171.591 78.0452H169.919ZM175.06 85.1452C174.604 85.1452 174.194 85.064 173.829 84.9016C173.466 84.7362 173.179 84.4926 172.967 84.171C172.758 83.8495 172.653 83.4529 172.653 82.9815C172.653 82.5756 172.728 82.2399 172.878 81.9745C173.028 81.7091 173.232 81.4968 173.491 81.3376C173.75 81.1784 174.042 81.0582 174.367 80.977C174.695 80.8927 175.034 80.8318 175.383 80.7943C175.805 80.7506 176.147 80.7116 176.409 80.6772C176.671 80.6398 176.862 80.5836 176.98 80.5086C177.102 80.4306 177.163 80.3104 177.163 80.148V80.1199C177.163 79.7671 177.058 79.4939 176.849 79.3003C176.64 79.1068 176.339 79.01 175.945 79.01C175.53 79.01 175.201 79.1005 174.957 79.2816C174.717 79.4627 174.554 79.6766 174.47 79.9232L172.887 79.6984C173.012 79.2613 173.218 78.896 173.505 78.6025C173.793 78.3059 174.144 78.0842 174.559 77.9375C174.974 77.7876 175.433 77.7127 175.936 77.7127C176.283 77.7127 176.628 77.7533 176.971 77.8344C177.314 77.9156 177.628 78.0499 177.912 78.2372C178.197 78.4214 178.424 78.6728 178.596 78.9912C178.771 79.3097 178.858 79.7078 178.858 80.1855V85H177.229V84.0118H177.172C177.069 84.2116 176.924 84.399 176.737 84.5738C176.553 84.7455 176.32 84.8845 176.039 84.9906C175.761 85.0937 175.435 85.1452 175.06 85.1452ZM175.5 83.8994C175.841 83.8994 176.136 83.8323 176.386 83.698C176.635 83.5606 176.827 83.3796 176.962 83.1548C177.099 82.9299 177.168 82.6849 177.168 82.4195V81.5718C177.115 81.6155 177.024 81.6561 176.896 81.6935C176.771 81.731 176.631 81.7638 176.475 81.7919C176.318 81.82 176.164 81.845 176.011 81.8668C175.858 81.8887 175.725 81.9074 175.613 81.923C175.36 81.9574 175.134 82.0136 174.934 82.0916C174.734 82.1697 174.576 82.279 174.461 82.4195C174.345 82.5568 174.287 82.7348 174.287 82.9534C174.287 83.2656 174.401 83.5013 174.629 83.6606C174.857 83.8198 175.148 83.8994 175.5 83.8994ZM186.525 77.8063L183.963 85H182.09L179.528 77.8063H181.336L182.989 83.1501H183.064L184.722 77.8063H186.525ZM190.432 85.1405C189.711 85.1405 189.088 84.9906 188.564 84.6909C188.042 84.388 187.641 83.9603 187.36 83.4077C187.079 82.8519 186.938 82.1978 186.938 81.4453C186.938 80.7053 187.079 80.0559 187.36 79.497C187.644 78.935 188.041 78.4979 188.55 78.1857C189.058 77.8703 189.656 77.7127 190.343 77.7127C190.787 77.7127 191.205 77.7845 191.598 77.9281C191.995 78.0686 192.345 78.2872 192.647 78.5838C192.953 78.8804 193.194 79.2582 193.369 79.7172C193.544 80.173 193.631 80.7163 193.631 81.347V81.8668H187.735V80.7241H192.006C192.003 80.3994 191.932 80.1106 191.795 79.8577C191.658 79.6016 191.466 79.4002 191.219 79.2535C190.976 79.1068 190.691 79.0334 190.367 79.0334C190.02 79.0334 189.716 79.1177 189.453 79.2863C189.191 79.4518 188.987 79.6703 188.84 79.942C188.696 80.2105 188.623 80.5055 188.62 80.8271V81.8247C188.62 82.2431 188.696 82.6021 188.849 82.9018C189.002 83.1985 189.216 83.4264 189.491 83.5856C189.766 83.7417 190.087 83.8198 190.456 83.8198C190.702 83.8198 190.926 83.7854 191.125 83.7168C191.325 83.6449 191.498 83.5403 191.645 83.403C191.792 83.2656 191.903 83.0954 191.978 82.8925L193.561 83.0704C193.461 83.4888 193.27 83.8541 192.989 84.1664C192.711 84.4755 192.356 84.7159 191.922 84.8876C191.488 85.0562 190.991 85.1405 190.432 85.1405ZM206.209 78.6447H204.458C204.408 78.3574 204.316 78.1029 204.181 77.8813C204.047 77.6565 203.88 77.466 203.68 77.3099C203.481 77.1538 203.253 77.0367 202.997 76.9586C202.744 76.8775 202.47 76.8369 202.177 76.8369C201.656 76.8369 201.193 76.968 200.791 77.2303C200.388 77.4894 200.073 77.8703 199.845 78.373C199.617 78.8726 199.503 79.483 199.503 80.2042C199.503 80.938 199.617 81.5562 199.845 82.0588C200.076 82.5584 200.391 82.9362 200.791 83.1922C201.193 83.4451 201.654 83.5716 202.172 83.5716C202.46 83.5716 202.728 83.5341 202.978 83.4592C203.231 83.3811 203.457 83.2672 203.657 83.1173C203.86 82.9674 204.03 82.7832 204.167 82.5646C204.308 82.3461 204.405 82.0963 204.458 81.8153L206.209 81.8247C206.144 82.2805 206.002 82.7083 205.783 83.1079C205.568 83.5076 205.285 83.8604 204.935 84.1664C204.586 84.4692 204.177 84.7065 203.708 84.8782C203.24 85.0468 202.72 85.1311 202.149 85.1311C201.306 85.1311 200.553 84.936 199.891 84.5457C199.23 84.1554 198.708 83.5919 198.327 82.855C197.946 82.1182 197.756 81.2346 197.756 80.2042C197.756 79.1708 197.948 78.2872 198.332 77.5534C198.716 76.8166 199.239 76.253 199.901 75.8627C200.563 75.4725 201.312 75.2773 202.149 75.2773C202.683 75.2773 203.179 75.3522 203.638 75.5021C204.097 75.652 204.506 75.8721 204.865 76.1625C205.224 76.4497 205.519 76.8025 205.75 77.2209C205.985 77.6362 206.138 78.1108 206.209 78.6447ZM209.215 80.785V85H207.52V75.4084H209.177V79.0287H209.262C209.43 78.6228 209.691 78.3028 210.044 78.0686C210.4 77.8313 210.853 77.7127 211.402 77.7127C211.902 77.7127 212.337 77.8173 212.709 78.0265C213.08 78.2356 213.368 78.5416 213.57 78.9444C213.777 79.3472 213.88 79.8389 213.88 80.4197V85H212.184V80.6819C212.184 80.198 212.059 79.8217 211.81 79.5532C211.563 79.2816 211.216 79.1458 210.77 79.1458C210.47 79.1458 210.202 79.2113 209.964 79.3425C209.73 79.4705 209.546 79.6563 209.412 79.8998C209.28 80.1433 209.215 80.4384 209.215 80.785ZM217.472 85.1452C217.016 85.1452 216.605 85.064 216.24 84.9016C215.878 84.7362 215.591 84.4926 215.378 84.171C215.169 83.8495 215.064 83.4529 215.064 82.9815C215.064 82.5756 215.139 82.2399 215.289 81.9745C215.439 81.7091 215.644 81.4968 215.903 81.3376C216.162 81.1784 216.454 81.0582 216.779 80.977C217.106 80.8927 217.445 80.8318 217.795 80.7943C218.216 80.7506 218.558 80.7116 218.821 80.6772C219.083 80.6398 219.273 80.5836 219.392 80.5086C219.514 80.4306 219.575 80.3104 219.575 80.148V80.1199C219.575 79.7671 219.47 79.4939 219.261 79.3003C219.052 79.1068 218.75 79.01 218.357 79.01C217.942 79.01 217.612 79.1005 217.369 79.2816C217.128 79.4627 216.966 79.6766 216.882 79.9232L215.299 79.6984C215.424 79.2613 215.63 78.896 215.917 78.6025C216.204 78.3059 216.555 78.0842 216.971 77.9375C217.386 77.7876 217.845 77.7127 218.347 77.7127C218.694 77.7127 219.039 77.7533 219.383 77.8344C219.726 77.9156 220.04 78.0499 220.324 78.2372C220.608 78.4214 220.836 78.6728 221.008 78.9912C221.182 79.3097 221.27 79.7078 221.27 80.1855V85H219.64V84.0118H219.584C219.481 84.2116 219.336 84.399 219.148 84.5738C218.964 84.7455 218.732 84.8845 218.451 84.9906C218.173 85.0937 217.846 85.1452 217.472 85.1452ZM217.912 83.8994C218.252 83.8994 218.547 83.8323 218.797 83.698C219.047 83.5606 219.239 83.3796 219.373 83.1548C219.511 82.9299 219.579 82.6849 219.579 82.4195V81.5718C219.526 81.6155 219.436 81.6561 219.308 81.6935C219.183 81.731 219.042 81.7638 218.886 81.7919C218.73 81.82 218.575 81.845 218.422 81.8668C218.269 81.8887 218.137 81.9074 218.024 81.923C217.771 81.9574 217.545 82.0136 217.345 82.0916C217.145 82.1697 216.988 82.279 216.872 82.4195C216.757 82.5568 216.699 82.7348 216.699 82.9534C216.699 83.2656 216.813 83.5013 217.041 83.6606C217.269 83.8198 217.559 83.8994 217.912 83.8994ZM224.464 80.785V85H222.769V77.8063H224.389V79.0287H224.473C224.639 78.6259 224.903 78.3059 225.265 78.0686C225.63 77.8313 226.081 77.7127 226.618 77.7127C227.115 77.7127 227.547 77.8188 227.916 78.0311C228.287 78.2435 228.574 78.551 228.777 78.9538C228.983 79.3565 229.085 79.8452 229.082 80.4197V85H227.386V80.6819C227.386 80.2011 227.262 79.8249 227.012 79.5532C226.765 79.2816 226.423 79.1458 225.986 79.1458C225.689 79.1458 225.426 79.2113 225.195 79.3425C224.967 79.4705 224.787 79.6563 224.656 79.8998C224.528 80.1433 224.464 80.4384 224.464 80.785ZM233.728 87.8475C233.119 87.8475 232.596 87.7648 232.159 87.5993C231.722 87.4369 231.37 87.2184 231.105 86.9436C230.84 86.6688 230.655 86.3644 230.552 86.0303L232.079 85.6604C232.148 85.8009 232.248 85.9398 232.379 86.0772C232.51 86.2177 232.686 86.3332 232.908 86.4237C233.133 86.5174 233.415 86.5642 233.756 86.5642C234.237 86.5642 234.635 86.4472 234.95 86.213C235.265 85.9819 235.423 85.601 235.423 85.0703V83.7074H235.339C235.251 83.8822 235.123 84.0618 234.955 84.246C234.789 84.4302 234.569 84.5847 234.294 84.7096C234.023 84.8345 233.681 84.897 233.269 84.897C232.716 84.897 232.215 84.7674 231.765 84.5082C231.319 84.246 230.963 83.8557 230.698 83.3374C230.435 82.816 230.304 82.1634 230.304 81.3798C230.304 80.5898 230.435 79.9232 230.698 79.3799C230.963 78.8336 231.32 78.4199 231.77 78.1389C232.22 77.8547 232.721 77.7127 233.273 77.7127C233.695 77.7127 234.041 77.7845 234.313 77.9281C234.588 78.0686 234.806 78.2388 234.969 78.4386C235.131 78.6353 235.254 78.8211 235.339 78.9959H235.432V77.8063H237.104V85.1171C237.104 85.7322 236.958 86.2411 236.664 86.6439C236.371 87.0466 235.969 87.3479 235.461 87.5478C234.952 87.7476 234.374 87.8475 233.728 87.8475ZM233.742 83.5669C234.101 83.5669 234.407 83.4795 234.66 83.3046C234.913 83.1298 235.105 82.8784 235.236 82.5506C235.367 82.2228 235.432 81.8294 235.432 81.3704C235.432 80.9177 235.367 80.5211 235.236 80.1808C235.108 79.8405 234.917 79.5767 234.664 79.3893C234.415 79.1989 234.107 79.1036 233.742 79.1036C233.364 79.1036 233.049 79.202 232.796 79.3987C232.543 79.5954 232.352 79.8655 232.224 80.2089C232.096 80.5492 232.032 80.9364 232.032 81.3704C232.032 81.8106 232.096 82.1962 232.224 82.5272C232.355 82.855 232.547 83.111 232.8 83.2953C233.056 83.4763 233.37 83.5669 233.742 83.5669ZM241.821 85.1405C241.099 85.1405 240.476 84.9906 239.952 84.6909C239.43 84.388 239.029 83.9603 238.748 83.4077C238.467 82.8519 238.327 82.1978 238.327 81.4453C238.327 80.7053 238.467 80.0559 238.748 79.497C239.032 78.935 239.429 78.4979 239.938 78.1857C240.447 77.8703 241.045 77.7127 241.732 77.7127C242.175 77.7127 242.593 77.7845 242.987 77.9281C243.383 78.0686 243.733 78.2872 244.036 78.5838C244.342 78.8804 244.582 79.2582 244.757 79.7172C244.932 80.173 245.019 80.7163 245.019 81.347V81.8668H239.123V80.7241H243.394C243.391 80.3994 243.321 80.1106 243.183 79.8577C243.046 79.6016 242.854 79.4002 242.607 79.2535C242.364 79.1068 242.08 79.0334 241.755 79.0334C241.408 79.0334 241.104 79.1177 240.842 79.2863C240.579 79.4518 240.375 79.6703 240.228 79.942C240.085 80.2105 240.011 80.5055 240.008 80.8271V81.8247C240.008 82.2431 240.085 82.6021 240.238 82.9018C240.391 83.1985 240.604 83.4264 240.879 83.5856C241.154 83.7417 241.476 83.8198 241.844 83.8198C242.091 83.8198 242.314 83.7854 242.514 83.7168C242.714 83.6449 242.887 83.5403 243.034 83.403C243.18 83.2656 243.291 83.0954 243.366 82.8925L244.949 83.0704C244.849 83.4888 244.659 83.8541 244.378 84.1664C244.1 84.4755 243.744 84.7159 243.31 84.8876C242.876 85.0562 242.379 85.1405 241.821 85.1405ZM251.933 79.7078L250.388 79.8764C250.344 79.7203 250.267 79.5735 250.158 79.4362C250.052 79.2988 249.908 79.1879 249.727 79.1036C249.546 79.0193 249.325 78.9772 249.062 78.9772C248.709 78.9772 248.413 79.0537 248.172 79.2067C247.935 79.3597 247.818 79.5579 247.821 79.8015C247.818 80.0106 247.895 80.1808 248.051 80.3119C248.21 80.4431 248.472 80.5508 248.837 80.6351L250.064 80.8974C250.745 81.0441 251.251 81.2767 251.582 81.5952C251.916 81.9137 252.085 82.3305 252.088 82.8456C252.085 83.2984 251.952 83.698 251.69 84.0446C251.43 84.388 251.07 84.6566 250.608 84.8501C250.146 85.0437 249.615 85.1405 249.015 85.1405C248.135 85.1405 247.426 84.9563 246.889 84.5879C246.352 84.2163 246.032 83.6996 245.929 83.0377L247.582 82.8784C247.657 83.2031 247.816 83.4482 248.06 83.6137C248.304 83.7792 248.62 83.8619 249.011 83.8619C249.413 83.8619 249.737 83.7792 249.98 83.6137C250.227 83.4482 250.35 83.2437 250.35 83.0002C250.35 82.7941 250.271 82.624 250.111 82.4897C249.955 82.3555 249.712 82.2524 249.381 82.1806L248.154 81.923C247.464 81.7794 246.953 81.5374 246.622 81.1971C246.291 80.8537 246.127 80.4197 246.13 79.8951C246.127 79.4518 246.248 79.0677 246.491 78.743C246.738 78.4152 247.08 78.1623 247.517 77.9843C247.957 77.8032 248.464 77.7127 249.039 77.7127C249.882 77.7127 250.545 77.8922 251.029 78.2513C251.516 78.6103 251.818 79.0958 251.933 79.7078Z" fill="#FCFCFD"/>
<rect x="0.5" y="0.5" width="389" height="159" rx="7.5" stroke="#4CA154" stroke-opacity="0.1"/>
</svg>
