<svg width="390" height="160" viewBox="0 0 390 160" fill="none" xmlns="http://www.w3.org/2000/svg">
<rect width="390" height="160" rx="8" fill="#CA3A31" fill-opacity="0.1"/>
<path d="M41.6013 139.511L30.6701 120.528C30.3969 120.062 30.007 119.677 29.5388 119.409C29.0707 119.141 28.5407 119 28.0013 119C27.462 119 26.9319 119.141 26.4638 119.409C25.9957 119.677 25.6058 120.062 25.3326 120.528L14.4013 139.511C14.1385 139.961 14 140.473 14 140.994C14 141.515 14.1385 142.026 14.4013 142.476C14.671 142.944 15.0603 143.332 15.5293 143.6C15.9983 143.868 16.5301 144.006 17.0701 144H38.9326C39.4722 144.005 40.0035 143.867 40.472 143.599C40.9405 143.331 41.3294 142.944 41.5988 142.476C41.8621 142.027 42.001 141.515 42.0014 140.994C42.0019 140.473 41.8638 139.961 41.6013 139.511ZM27.0013 129C27.0013 128.735 27.1067 128.481 27.2942 128.293C27.4818 128.105 27.7361 128 28.0013 128C28.2666 128 28.5209 128.105 28.7084 128.293C28.896 128.481 29.0013 128.735 29.0013 129V134C29.0013 134.265 28.896 134.52 28.7084 134.707C28.5209 134.895 28.2666 135 28.0013 135C27.7361 135 27.4818 134.895 27.2942 134.707C27.1067 134.52 27.0013 134.265 27.0013 134V129ZM28.0013 140C27.7047 140 27.4147 139.912 27.168 139.747C26.9213 139.582 26.7291 139.348 26.6155 139.074C26.502 138.8 26.4723 138.498 26.5302 138.207C26.588 137.916 26.7309 137.649 26.9407 137.439C27.1505 137.23 27.4177 137.087 27.7087 137.029C27.9997 136.971 28.3013 137.001 28.5754 137.114C28.8495 137.228 29.0837 137.42 29.2485 137.667C29.4134 137.913 29.5013 138.203 29.5013 138.5C29.5013 138.898 29.3433 139.279 29.062 139.561C28.7807 139.842 28.3992 140 28.0013 140Z" fill="#CA3A31"/>
<path d="M56.9336 67.1425C56.9336 65.296 56.9336 64.3727 57.293 63.6674C57.6091 63.047 58.1135 62.5427 58.7338 62.2265C59.4391 61.8672 60.3624 61.8672 62.2089 61.8672H327.79C329.637 61.8672 330.56 61.8672 331.265 62.2265C331.886 62.5427 332.39 63.047 332.706 63.6674C333.065 64.3727 333.065 65.296 333.065 67.1425V92.8599C333.065 94.7064 333.065 95.6297 332.706 96.335C332.39 96.9554 331.886 97.4598 331.265 97.7759C330.56 98.1352 329.637 98.1352 327.79 98.1352H62.2089C60.3624 98.1352 59.4391 98.1352 58.7338 97.7759C58.1135 97.4598 57.6091 96.9554 57.293 96.335C56.9336 95.6297 56.9336 94.7064 56.9336 92.8599V67.1425Z" fill="#217CF5"/>
<path d="M69.2046 71.9688C67.6151 71.9688 66.0613 72.4401 64.7397 73.3232C63.4181 74.2063 62.388 75.4614 61.7797 76.9299C61.1715 78.3984 61.0123 80.0143 61.3224 81.5733C61.6325 83.1323 62.3979 84.5643 63.5219 85.6882C64.6458 86.8122 66.0778 87.5776 67.6368 87.8877C69.1957 88.1978 70.8116 88.0386 72.2801 87.4303C73.7487 86.8221 75.0038 85.792 75.8869 84.4704C76.77 83.1487 77.2413 81.5949 77.2413 80.0054C77.2391 77.8747 76.3916 75.8318 74.8849 74.3251C73.3783 72.8184 71.3354 71.971 69.2046 71.9688ZM69.2046 86.8057C67.8597 86.8057 66.5449 86.4069 65.4266 85.6596C64.3083 84.9124 63.4367 83.8504 62.922 82.6078C62.4073 81.3652 62.2727 79.9979 62.535 78.6788C62.7974 77.3596 63.4451 76.1479 64.3961 75.1969C65.3472 74.2459 66.5589 73.5982 67.878 73.3358C69.1971 73.0734 70.5644 73.2081 71.807 73.7228C73.0496 74.2375 74.1116 75.1091 74.8589 76.2274C75.6061 77.3457 76.0049 78.6605 76.0049 80.0054C76.0029 81.8083 75.2857 83.5368 74.0109 84.8117C72.736 86.0865 71.0076 86.8036 69.2046 86.8057Z" fill="#FCFCFD"/>
<path d="M95.1964 78.6447H93.4448C93.3949 78.3574 93.3028 78.1029 93.1685 77.8813C93.0342 77.6565 92.8672 77.466 92.6674 77.3099C92.4675 77.1538 92.2396 77.0367 91.9836 76.9586C91.7307 76.8775 91.4575 76.8369 91.164 76.8369C90.6426 76.8369 90.1805 76.968 89.7777 77.2303C89.375 77.4894 89.0596 77.8703 88.8317 78.373C88.6038 78.8726 88.4898 79.483 88.4898 80.2042C88.4898 80.938 88.6038 81.5562 88.8317 82.0588C89.0627 82.5584 89.3781 82.9362 89.7777 83.1922C90.1805 83.4451 90.641 83.5716 91.1593 83.5716C91.4466 83.5716 91.7151 83.5341 91.9649 83.4592C92.2178 83.3811 92.4441 83.2672 92.644 83.1173C92.8469 82.9674 93.0171 82.7832 93.1544 82.5646C93.2949 82.3461 93.3917 82.0963 93.4448 81.8153L95.1964 81.8247C95.1308 82.2805 94.9888 82.7083 94.7702 83.1079C94.5548 83.5076 94.2722 83.8604 93.9225 84.1664C93.5728 84.4692 93.1638 84.7065 92.6955 84.8782C92.2271 85.0468 91.7073 85.1311 91.1359 85.1311C90.2929 85.1311 89.5404 84.936 88.8785 84.5457C88.2166 84.1554 87.6952 83.5919 87.3143 82.855C86.9334 82.1182 86.7429 81.2346 86.7429 80.2042C86.7429 79.1708 86.9349 78.2872 87.319 77.5534C87.703 76.8166 88.226 76.253 88.8879 75.8627C89.5498 75.4725 90.2991 75.2773 91.1359 75.2773C91.6698 75.2773 92.1663 75.3522 92.6252 75.5021C93.0842 75.652 93.4932 75.8721 93.8523 76.1625C94.2113 76.4497 94.5064 76.8025 94.7374 77.2209C94.9716 77.6362 95.1246 78.1108 95.1964 78.6447ZM98.202 75.4084V85H96.5066V75.4084H98.202ZM99.7393 85V77.8063H101.435V85H99.7393ZM100.592 76.7854C100.323 76.7854 100.092 76.6964 99.8985 76.5184C99.7049 76.3373 99.6081 76.1203 99.6081 75.8674C99.6081 75.6114 99.7049 75.3944 99.8985 75.2164C100.092 75.0353 100.323 74.9448 100.592 74.9448C100.863 74.9448 101.094 75.0353 101.285 75.2164C101.478 75.3944 101.575 75.6114 101.575 75.8674C101.575 76.1203 101.478 76.3373 101.285 76.5184C101.094 76.6964 100.863 76.7854 100.592 76.7854ZM106.11 85.1405C105.392 85.1405 104.775 84.9828 104.26 84.6675C103.748 84.3521 103.353 83.9166 103.075 83.3608C102.8 82.8019 102.663 82.1588 102.663 81.4313C102.663 80.7007 102.803 80.0559 103.084 79.497C103.365 78.935 103.762 78.4979 104.274 78.1857C104.789 77.8703 105.398 77.7127 106.1 77.7127C106.684 77.7127 107.201 77.8204 107.651 78.0358C108.103 78.2481 108.464 78.5494 108.733 78.9397C109.001 79.3269 109.154 79.7796 109.191 80.2979H107.571C107.505 79.9513 107.349 79.6625 107.103 79.4315C106.859 79.1973 106.533 79.0802 106.124 79.0802C105.777 79.0802 105.473 79.1739 105.211 79.3612C104.948 79.5454 104.744 79.8108 104.597 80.1574C104.453 80.504 104.382 80.9192 104.382 81.4032C104.382 81.8934 104.453 82.3149 104.597 82.6677C104.741 83.0174 104.942 83.2874 105.201 83.4779C105.464 83.6652 105.771 83.7589 106.124 83.7589C106.374 83.7589 106.597 83.7121 106.794 83.6184C106.993 83.5216 107.16 83.3827 107.295 83.2016C107.429 83.0205 107.521 82.8004 107.571 82.5412H109.191C109.151 83.0502 109.001 83.5013 108.742 83.8947C108.483 84.285 108.13 84.591 107.683 84.8127C107.237 85.0312 106.712 85.1405 106.11 85.1405ZM111.923 82.7426L111.918 80.696H112.19L114.775 77.8063H116.756L113.576 81.347H113.225L111.923 82.7426ZM110.378 85V75.4084H112.073V85H110.378ZM114.892 85L112.551 81.7263L113.693 80.5321L116.92 85H114.892ZM120.82 85V75.4084H122.558V79.4689H127.002V75.4084H128.745V85H127.002V80.9255H122.558V85H120.82ZM133.538 85.1405C132.817 85.1405 132.194 84.9906 131.669 84.6909C131.148 84.388 130.747 83.9603 130.466 83.4077C130.185 82.8519 130.044 82.1978 130.044 81.4453C130.044 80.7053 130.185 80.0559 130.466 79.497C130.75 78.935 131.146 78.4979 131.655 78.1857C132.164 77.8703 132.762 77.7127 133.449 77.7127C133.892 77.7127 134.311 77.7845 134.704 77.9281C135.101 78.0686 135.45 78.2872 135.753 78.5838C136.059 78.8804 136.3 79.2582 136.474 79.7172C136.649 80.173 136.737 80.7163 136.737 81.347V81.8668H130.84V80.7241H135.112C135.109 80.3994 135.038 80.1106 134.901 79.8577C134.764 79.6016 134.571 79.4002 134.325 79.2535C134.081 79.1068 133.797 79.0334 133.472 79.0334C133.126 79.0334 132.821 79.1177 132.559 79.2863C132.297 79.4518 132.092 79.6703 131.946 79.942C131.802 80.2105 131.729 80.5055 131.726 80.8271V81.8247C131.726 82.2431 131.802 82.6021 131.955 82.9018C132.108 83.1985 132.322 83.4264 132.597 83.5856C132.871 83.7417 133.193 83.8198 133.561 83.8198C133.808 83.8198 134.031 83.7854 134.231 83.7168C134.431 83.6449 134.604 83.5403 134.751 83.403C134.898 83.2656 135.009 83.0954 135.084 82.8925L136.667 83.0704C136.567 83.4888 136.376 83.8541 136.095 84.1664C135.817 84.4755 135.461 84.7159 135.027 84.8876C134.593 85.0562 134.097 85.1405 133.538 85.1405ZM137.965 85V77.8063H139.609V79.0053H139.684C139.815 78.59 140.04 78.27 140.358 78.0452C140.68 77.8173 141.047 77.7033 141.459 77.7033C141.552 77.7033 141.657 77.708 141.773 77.7174C141.891 77.7236 141.99 77.7345 142.068 77.7501V79.3097C141.996 79.2847 141.882 79.2629 141.726 79.2441C141.573 79.2223 141.424 79.2113 141.281 79.2113C140.972 79.2113 140.694 79.2785 140.447 79.4127C140.204 79.5439 140.012 79.7265 139.871 79.9607C139.731 80.1949 139.66 80.4649 139.66 80.7709V85H137.965ZM145.876 85.1405C145.155 85.1405 144.532 84.9906 144.008 84.6909C143.486 84.388 143.085 83.9603 142.804 83.4077C142.523 82.8519 142.383 82.1978 142.383 81.4453C142.383 80.7053 142.523 80.0559 142.804 79.497C143.088 78.935 143.485 78.4979 143.994 78.1857C144.503 77.8703 145.1 77.7127 145.787 77.7127C146.231 77.7127 146.649 77.7845 147.043 77.9281C147.439 78.0686 147.789 78.2872 148.092 78.5838C148.398 78.8804 148.638 79.2582 148.813 79.7172C148.988 80.173 149.075 80.7163 149.075 81.347V81.8668H143.179V80.7241H147.45C147.447 80.3994 147.377 80.1106 147.239 79.8577C147.102 79.6016 146.91 79.4002 146.663 79.2535C146.42 79.1068 146.136 79.0334 145.811 79.0334C145.464 79.0334 145.16 79.1177 144.898 79.2863C144.635 79.4518 144.431 79.6703 144.284 79.942C144.14 80.2105 144.067 80.5055 144.064 80.8271V81.8247C144.064 82.2431 144.14 82.6021 144.293 82.9018C144.446 83.1985 144.66 83.4264 144.935 83.5856C145.21 83.7417 145.531 83.8198 145.9 83.8198C146.146 83.8198 146.37 83.7854 146.57 83.7168C146.769 83.6449 146.943 83.5403 147.089 83.403C147.236 83.2656 147.347 83.0954 147.422 82.8925L149.005 83.0704C148.905 83.4888 148.714 83.8541 148.433 84.1664C148.156 84.4755 147.8 84.7159 147.366 84.8876C146.932 85.0562 146.435 85.1405 145.876 85.1405ZM156.961 77.8063V79.1177H152.825V77.8063H156.961ZM153.846 76.0829H155.542V82.8363C155.542 83.0642 155.576 83.2391 155.645 83.3608C155.717 83.4795 155.81 83.5606 155.926 83.6044C156.041 83.6481 156.169 83.6699 156.31 83.6699C156.416 83.6699 156.513 83.6621 156.6 83.6465C156.691 83.6309 156.759 83.6168 156.806 83.6044L157.092 84.9297C157.001 84.961 156.872 84.9953 156.703 85.0328C156.538 85.0703 156.335 85.0921 156.094 85.0984C155.67 85.1108 155.287 85.0468 154.947 84.9063C154.607 84.7627 154.336 84.541 154.137 84.2413C153.94 83.9416 153.843 83.5669 153.846 83.1173V76.0829ZM161.233 85.1405C160.531 85.1405 159.922 84.9859 159.407 84.6768C158.891 84.3677 158.492 83.9353 158.208 83.3796C157.927 82.8238 157.786 82.1744 157.786 81.4313C157.786 80.6882 157.927 80.0372 158.208 79.4783C158.492 78.9194 158.891 78.4854 159.407 78.1763C159.922 77.8672 160.531 77.7127 161.233 77.7127C161.936 77.7127 162.544 77.8672 163.06 78.1763C163.575 78.4854 163.973 78.9194 164.254 79.4783C164.538 80.0372 164.68 80.6882 164.68 81.4313C164.68 82.1744 164.538 82.8238 164.254 83.3796C163.973 83.9353 163.575 84.3677 163.06 84.6768C162.544 84.9859 161.936 85.1405 161.233 85.1405ZM161.243 83.7823C161.623 83.7823 161.942 83.6777 162.198 83.4685C162.454 83.2562 162.644 82.9721 162.769 82.6162C162.897 82.2602 162.961 81.8637 162.961 81.4266C162.961 80.9863 162.897 80.5883 162.769 80.2323C162.644 79.8733 162.454 79.5876 162.198 79.3753C161.942 79.163 161.623 79.0568 161.243 79.0568C160.852 79.0568 160.528 79.163 160.268 79.3753C160.012 79.5876 159.82 79.8733 159.692 80.2323C159.567 80.5883 159.505 80.9863 159.505 81.4266C159.505 81.8637 159.567 82.2602 159.692 82.6162C159.82 82.9721 160.012 83.2562 160.268 83.4685C160.528 83.6777 160.852 83.7823 161.243 83.7823ZM174.266 78.0452C174.222 77.6362 174.038 77.3177 173.713 77.0898C173.392 76.8619 172.973 76.7479 172.458 76.7479C172.096 76.7479 171.785 76.8025 171.526 76.9118C171.267 77.0211 171.069 77.1694 170.931 77.3567C170.794 77.5441 170.724 77.7579 170.721 77.9984C170.721 78.1982 170.766 78.3715 170.856 78.5182C170.95 78.665 171.076 78.7898 171.236 78.8929C171.395 78.9928 171.571 79.0771 171.765 79.1458C171.958 79.2145 172.154 79.2722 172.35 79.3191L173.25 79.5439C173.612 79.6282 173.96 79.7421 174.294 79.8858C174.631 80.0294 174.932 80.2105 175.198 80.429C175.466 80.6476 175.679 80.9114 175.835 81.2205C175.991 81.5296 176.069 81.8918 176.069 82.3071C176.069 82.8691 175.925 83.3639 175.638 83.7917C175.351 84.2163 174.936 84.5488 174.392 84.7892C173.852 85.0265 173.198 85.1452 172.43 85.1452C171.684 85.1452 171.036 85.0297 170.486 84.7986C169.94 84.5676 169.512 84.2304 169.203 83.787C168.897 83.3436 168.732 82.8035 168.707 82.1666H170.416C170.441 82.5006 170.544 82.7785 170.725 83.0002C170.906 83.2219 171.142 83.3874 171.432 83.4966C171.726 83.6059 172.054 83.6606 172.416 83.6606C172.794 83.6606 173.125 83.6044 173.409 83.492C173.696 83.3764 173.921 83.2172 174.083 83.0142C174.246 82.8082 174.328 82.5678 174.331 82.293C174.328 82.0432 174.255 81.8372 174.111 81.6748C173.968 81.5093 173.766 81.3719 173.507 81.2627C173.251 81.1503 172.951 81.0504 172.608 80.9629L171.517 80.6819C170.727 80.479 170.102 80.1714 169.643 79.7593C169.187 79.344 168.96 78.793 168.96 78.1061C168.96 77.5409 169.113 77.0461 169.419 76.6214C169.728 76.1968 170.148 75.8674 170.678 75.6332C171.209 75.396 171.81 75.2773 172.481 75.2773C173.162 75.2773 173.758 75.396 174.27 75.6332C174.786 75.8674 175.19 76.1937 175.483 76.6121C175.777 77.0273 175.928 77.505 175.938 78.0452H174.266ZM181.922 81.9745V77.8063H183.617V85H181.973V83.7214H181.899C181.736 84.1242 181.469 84.4536 181.098 84.7096C180.729 84.9657 180.275 85.0937 179.735 85.0937C179.263 85.0937 178.847 84.9891 178.484 84.7799C178.125 84.5676 177.844 84.26 177.641 83.8573C177.438 83.4514 177.337 82.9612 177.337 82.3867V77.8063H179.032V82.1244C179.032 82.5803 179.157 82.9424 179.407 83.211C179.657 83.4795 179.985 83.6137 180.391 83.6137C180.64 83.6137 180.882 83.5528 181.116 83.4311C181.351 83.3093 181.543 83.1282 181.692 82.8878C181.845 82.6443 181.922 82.3398 181.922 81.9745ZM185.23 85V75.4084H186.925V78.9959H186.995C187.083 78.8211 187.206 78.6353 187.365 78.4386C187.524 78.2388 187.74 78.0686 188.012 77.9281C188.283 77.7845 188.63 77.7127 189.051 77.7127C189.607 77.7127 190.108 77.8547 190.555 78.1389C191.004 78.4199 191.36 78.8367 191.622 79.3893C191.888 79.9388 192.02 80.6132 192.02 81.4125C192.02 82.2025 191.891 82.8737 191.632 83.4264C191.373 83.979 191.02 84.4005 190.573 84.6909C190.127 84.9813 189.621 85.1265 189.056 85.1265C188.644 85.1265 188.302 85.0578 188.03 84.9204C187.759 84.783 187.54 84.6175 187.375 84.4239C187.212 84.2272 187.086 84.0415 186.995 83.8666H186.897V85H185.23ZM186.892 81.4032C186.892 81.8684 186.958 82.2758 187.089 82.6255C187.223 82.9752 187.415 83.2484 187.665 83.4451C187.918 83.6387 188.224 83.7355 188.583 83.7355C188.958 83.7355 189.271 83.6356 189.524 83.4358C189.777 83.2328 189.968 82.9565 190.096 82.6068C190.227 82.254 190.292 81.8528 190.292 81.4032C190.292 80.9567 190.228 80.5602 190.1 80.2136C189.972 79.867 189.782 79.5954 189.529 79.3987C189.276 79.202 188.961 79.1036 188.583 79.1036C188.221 79.1036 187.913 79.1989 187.66 79.3893C187.407 79.5798 187.215 79.8467 187.084 80.1902C186.956 80.5336 186.892 80.938 186.892 81.4032ZM193.256 85V77.8063H194.876V79.0287H194.96C195.11 78.6166 195.359 78.295 195.705 78.0639C196.052 77.8298 196.465 77.7127 196.946 77.7127C197.433 77.7127 197.844 77.8313 198.178 78.0686C198.515 78.3028 198.752 78.6228 198.89 79.0287H198.965C199.124 78.629 199.393 78.3106 199.77 78.0733C200.151 77.8329 200.602 77.7127 201.124 77.7127C201.786 77.7127 202.326 77.9219 202.744 78.3402C203.163 78.7586 203.372 79.369 203.372 80.1714V85H201.672V80.4337C201.672 79.9872 201.553 79.661 201.316 79.4549C201.079 79.2457 200.788 79.1411 200.445 79.1411C200.036 79.1411 199.716 79.2691 199.485 79.5251C199.257 79.778 199.143 80.1074 199.143 80.5133V85H197.48V80.3635C197.48 79.9919 197.368 79.6953 197.143 79.4736C196.921 79.2519 196.631 79.1411 196.272 79.1411C196.028 79.1411 195.807 79.2035 195.607 79.3284C195.407 79.4502 195.248 79.6235 195.129 79.8483C195.01 80.07 194.951 80.3291 194.951 80.6257V85H193.256ZM204.886 85V77.8063H206.581V85H204.886ZM205.738 76.7854C205.47 76.7854 205.239 76.6964 205.045 76.5184C204.851 76.3373 204.755 76.1203 204.755 75.8674C204.755 75.6114 204.851 75.3944 205.045 75.2164C205.239 75.0353 205.47 74.9448 205.738 74.9448C206.01 74.9448 206.241 75.0353 206.431 75.2164C206.625 75.3944 206.722 75.6114 206.722 75.8674C206.722 76.1203 206.625 76.3373 206.431 76.5184C206.241 76.6964 206.01 76.7854 205.738 76.7854ZM211.711 77.8063V79.1177H207.575V77.8063H211.711ZM208.596 76.0829H210.292V82.8363C210.292 83.0642 210.326 83.2391 210.395 83.3608C210.466 83.4795 210.56 83.5606 210.676 83.6044C210.791 83.6481 210.919 83.6699 211.06 83.6699C211.166 83.6699 211.263 83.6621 211.35 83.6465C211.44 83.6309 211.509 83.6168 211.556 83.6044L211.842 84.9297C211.751 84.961 211.622 84.9953 211.453 85.0328C211.288 85.0703 211.085 85.0921 210.844 85.0984C210.42 85.1108 210.037 85.0468 209.697 84.9063C209.356 84.7627 209.086 84.541 208.886 84.2413C208.69 83.9416 208.593 83.5669 208.596 83.1173V76.0829ZM218.058 85.1452C217.602 85.1452 217.191 85.064 216.826 84.9016C216.464 84.7362 216.177 84.4926 215.964 84.171C215.755 83.8495 215.65 83.4529 215.65 82.9815C215.65 82.5756 215.725 82.2399 215.875 81.9745C216.025 81.7091 216.23 81.4968 216.489 81.3376C216.748 81.1784 217.04 81.0582 217.365 80.977C217.692 80.8927 218.031 80.8318 218.381 80.7943C218.802 80.7506 219.144 80.7116 219.407 80.6772C219.669 80.6398 219.859 80.5836 219.978 80.5086C220.1 80.4306 220.161 80.3104 220.161 80.148V80.1199C220.161 79.7671 220.056 79.4939 219.847 79.3003C219.638 79.1068 219.336 79.01 218.943 79.01C218.528 79.01 218.198 79.1005 217.955 79.2816C217.714 79.4627 217.552 79.6766 217.468 79.9232L215.885 79.6984C216.01 79.2613 216.216 78.896 216.503 78.6025C216.79 78.3059 217.141 78.0842 217.557 77.9375C217.972 77.7876 218.431 77.7127 218.933 77.7127C219.28 77.7127 219.625 77.7533 219.969 77.8344C220.312 77.9156 220.626 78.0499 220.91 78.2372C221.194 78.4214 221.422 78.6728 221.594 78.9912C221.769 79.3097 221.856 79.7078 221.856 80.1855V85H220.226V84.0118H220.17C220.067 84.2116 219.922 84.399 219.734 84.5738C219.55 84.7455 219.318 84.8845 219.037 84.9906C218.759 85.0937 218.432 85.1452 218.058 85.1452ZM218.498 83.8994C218.838 83.8994 219.133 83.8323 219.383 83.698C219.633 83.5606 219.825 83.3796 219.959 83.1548C220.097 82.9299 220.165 82.6849 220.165 82.4195V81.5718C220.112 81.6155 220.022 81.6561 219.894 81.6935C219.769 81.731 219.628 81.7638 219.472 81.7919C219.316 81.82 219.161 81.845 219.008 81.8668C218.855 81.8887 218.723 81.9074 218.61 81.923C218.357 81.9574 218.131 82.0136 217.931 82.0916C217.731 82.1697 217.574 82.279 217.458 82.4195C217.343 82.5568 217.285 82.7348 217.285 82.9534C217.285 83.2656 217.399 83.5013 217.627 83.6606C217.855 83.8198 218.145 83.8994 218.498 83.8994ZM225.05 80.785V85H223.355V77.8063H224.975V79.0287H225.059C225.225 78.6259 225.489 78.3059 225.851 78.0686C226.216 77.8313 226.667 77.7127 227.204 77.7127C227.701 77.7127 228.133 77.8188 228.502 78.0311C228.873 78.2435 229.16 78.551 229.363 78.9538C229.569 79.3565 229.671 79.8452 229.668 80.4197V85H227.972V80.6819C227.972 80.2011 227.848 79.8249 227.598 79.5532C227.351 79.2816 227.009 79.1458 226.572 79.1458C226.275 79.1458 226.012 79.2113 225.781 79.3425C225.553 79.4705 225.373 79.6563 225.242 79.8998C225.114 80.1433 225.05 80.4384 225.05 80.785ZM233.855 85.1265C233.29 85.1265 232.784 84.9813 232.337 84.6909C231.891 84.4005 231.538 83.979 231.279 83.4264C231.02 82.8737 230.89 82.2025 230.89 81.4125C230.89 80.6132 231.021 79.9388 231.284 79.3893C231.549 78.8367 231.906 78.4199 232.356 78.1389C232.806 77.8547 233.307 77.7127 233.859 77.7127C234.281 77.7127 234.628 77.7845 234.899 77.9281C235.171 78.0686 235.386 78.2388 235.545 78.4386C235.705 78.6353 235.828 78.8211 235.915 78.9959H235.986V75.4084H237.686V85H236.018V83.8666H235.915C235.828 84.0415 235.702 84.2272 235.536 84.4239C235.371 84.6175 235.152 84.783 234.88 84.9204C234.609 85.0578 234.267 85.1265 233.855 85.1265ZM234.328 83.7355C234.687 83.7355 234.993 83.6387 235.246 83.4451C235.499 83.2484 235.691 82.9752 235.822 82.6255C235.953 82.2758 236.018 81.8684 236.018 81.4032C236.018 80.938 235.953 80.5336 235.822 80.1902C235.694 79.8467 235.503 79.5798 235.25 79.3893C235.001 79.1989 234.693 79.1036 234.328 79.1036C233.95 79.1036 233.635 79.202 233.382 79.3987C233.129 79.5954 232.938 79.867 232.81 80.2136C232.682 80.5602 232.618 80.9567 232.618 81.4032C232.618 81.8528 232.682 82.254 232.81 82.6068C232.941 82.9565 233.134 83.2328 233.386 83.4358C233.642 83.6356 233.956 83.7355 234.328 83.7355ZM247.639 78.0452C247.595 77.6362 247.411 77.3177 247.086 77.0898C246.765 76.8619 246.346 76.7479 245.831 76.7479C245.469 76.7479 245.158 76.8025 244.899 76.9118C244.64 77.0211 244.442 77.1694 244.305 77.3567C244.167 77.5441 244.097 77.7579 244.094 77.9984C244.094 78.1982 244.139 78.3715 244.23 78.5182C244.323 78.665 244.45 78.7898 244.609 78.8929C244.768 78.9928 244.945 79.0771 245.138 79.1458C245.332 79.2145 245.527 79.2722 245.724 79.3191L246.623 79.5439C246.985 79.6282 247.333 79.7421 247.667 79.8858C248.004 80.0294 248.306 80.2105 248.571 80.429C248.84 80.6476 249.052 80.9114 249.208 81.2205C249.364 81.5296 249.442 81.8918 249.442 82.3071C249.442 82.8691 249.299 83.3639 249.011 83.7917C248.724 84.2163 248.309 84.5488 247.766 84.7892C247.225 85.0265 246.571 85.1452 245.803 85.1452C245.057 85.1452 244.409 85.0297 243.86 84.7986C243.313 84.5676 242.885 84.2304 242.576 83.787C242.27 83.3436 242.105 82.8035 242.08 82.1666H243.789C243.814 82.5006 243.917 82.7785 244.098 83.0002C244.28 83.2219 244.515 83.3874 244.806 83.4966C245.099 83.6059 245.427 83.6606 245.789 83.6606C246.167 83.6606 246.498 83.6044 246.782 83.492C247.069 83.3764 247.294 83.2172 247.456 83.0142C247.619 82.8082 247.702 82.5678 247.705 82.293C247.702 82.0432 247.628 81.8372 247.485 81.6748C247.341 81.5093 247.14 81.3719 246.88 81.2627C246.624 81.1503 246.325 81.0504 245.981 80.9629L244.89 80.6819C244.1 80.479 243.476 80.1714 243.017 79.7593C242.561 79.344 242.333 78.793 242.333 78.1061C242.333 77.5409 242.486 77.0461 242.792 76.6214C243.101 76.1968 243.521 75.8674 244.052 75.6332C244.582 75.396 245.183 75.2773 245.855 75.2773C246.535 75.2773 247.132 75.396 247.644 75.6332C248.159 75.8674 248.563 76.1937 248.857 76.6121C249.15 77.0273 249.302 77.505 249.311 78.0452H247.639ZM252.78 85.1452C252.324 85.1452 251.914 85.064 251.549 84.9016C251.186 84.7362 250.899 84.4926 250.687 84.171C250.478 83.8495 250.373 83.4529 250.373 82.9815C250.373 82.5756 250.448 82.2399 250.598 81.9745C250.748 81.7091 250.952 81.4968 251.211 81.3376C251.47 81.1784 251.762 81.0582 252.087 80.977C252.415 80.8927 252.754 80.8318 253.103 80.7943C253.525 80.7506 253.867 80.7116 254.129 80.6772C254.391 80.6398 254.582 80.5836 254.7 80.5086C254.822 80.4306 254.883 80.3104 254.883 80.148V80.1199C254.883 79.7671 254.779 79.4939 254.569 79.3003C254.36 79.1068 254.059 79.01 253.665 79.01C253.25 79.01 252.921 79.1005 252.677 79.2816C252.437 79.4627 252.274 79.6766 252.19 79.9232L250.607 79.6984C250.732 79.2613 250.938 78.896 251.225 78.6025C251.513 78.3059 251.864 78.0842 252.279 77.9375C252.694 77.7876 253.153 77.7127 253.656 77.7127C254.003 77.7127 254.348 77.7533 254.691 77.8344C255.035 77.9156 255.348 78.0499 255.632 78.2372C255.917 78.4214 256.144 78.6728 256.316 78.9912C256.491 79.3097 256.578 79.7078 256.578 80.1855V85H254.949V84.0118H254.892C254.789 84.2116 254.644 84.399 254.457 84.5738C254.273 84.7455 254.04 84.8845 253.759 84.9906C253.481 85.0937 253.155 85.1452 252.78 85.1452ZM253.221 83.8994C253.561 83.8994 253.856 83.8323 254.106 83.698C254.355 83.5606 254.547 83.3796 254.682 83.1548C254.819 82.9299 254.888 82.6849 254.888 82.4195V81.5718C254.835 81.6155 254.744 81.6561 254.616 81.6935C254.491 81.731 254.351 81.7638 254.195 81.7919C254.039 81.82 253.884 81.845 253.731 81.8668C253.578 81.8887 253.445 81.9074 253.333 81.923C253.08 81.9574 252.854 82.0136 252.654 82.0916C252.454 82.1697 252.296 82.279 252.181 82.4195C252.065 82.5568 252.008 82.7348 252.008 82.9534C252.008 83.2656 252.121 83.5013 252.349 83.6606C252.577 83.8198 252.868 83.8994 253.221 83.8994ZM264.245 77.8063L261.683 85H259.81L257.248 77.8063H259.056L260.709 83.1501H260.784L262.442 77.8063H264.245ZM268.152 85.1405C267.431 85.1405 266.808 84.9906 266.284 84.6909C265.762 84.388 265.361 83.9603 265.08 83.4077C264.799 82.8519 264.658 82.1978 264.658 81.4453C264.658 80.7053 264.799 80.0559 265.08 79.497C265.364 78.935 265.761 78.4979 266.27 78.1857C266.778 77.8703 267.376 77.7127 268.063 77.7127C268.507 77.7127 268.925 77.7845 269.318 77.9281C269.715 78.0686 270.065 78.2872 270.368 78.5838C270.673 78.8804 270.914 79.2582 271.089 79.7172C271.264 80.173 271.351 80.7163 271.351 81.347V81.8668H265.455V80.7241H269.726C269.723 80.3994 269.653 80.1106 269.515 79.8577C269.378 79.6016 269.186 79.4002 268.939 79.2535C268.696 79.1068 268.411 79.0334 268.087 79.0334C267.74 79.0334 267.436 79.1177 267.173 79.2863C266.911 79.4518 266.707 79.6703 266.56 79.942C266.416 80.2105 266.343 80.5055 266.34 80.8271V81.8247C266.34 82.2431 266.416 82.6021 266.569 82.9018C266.722 83.1985 266.936 83.4264 267.211 83.5856C267.486 83.7417 267.807 83.8198 268.176 83.8198C268.422 83.8198 268.646 83.7854 268.845 83.7168C269.045 83.6449 269.219 83.5403 269.365 83.403C269.512 83.2656 269.623 83.0954 269.698 82.8925L271.281 83.0704C271.181 83.4888 270.99 83.8541 270.709 84.1664C270.432 84.4755 270.076 84.7159 269.642 84.8876C269.208 85.0562 268.711 85.1405 268.152 85.1405ZM283.929 78.6447H282.178C282.128 78.3574 282.036 78.1029 281.901 77.8813C281.767 77.6565 281.6 77.466 281.4 77.3099C281.201 77.1538 280.973 77.0367 280.717 76.9586C280.464 76.8775 280.19 76.8369 279.897 76.8369C279.376 76.8369 278.913 76.968 278.511 77.2303C278.108 77.4894 277.793 77.8703 277.565 78.373C277.337 78.8726 277.223 79.483 277.223 80.2042C277.223 80.938 277.337 81.5562 277.565 82.0588C277.796 82.5584 278.111 82.9362 278.511 83.1922C278.913 83.4451 279.374 83.5716 279.892 83.5716C280.18 83.5716 280.448 83.5341 280.698 83.4592C280.951 83.3811 281.177 83.2672 281.377 83.1173C281.58 82.9674 281.75 82.7832 281.887 82.5646C282.028 82.3461 282.125 82.0963 282.178 81.8153L283.929 81.8247C283.864 82.2805 283.722 82.7083 283.503 83.1079C283.288 83.5076 283.005 83.8604 282.655 84.1664C282.306 84.4692 281.897 84.7065 281.428 84.8782C280.96 85.0468 280.44 85.1311 279.869 85.1311C279.026 85.1311 278.273 84.936 277.612 84.5457C276.95 84.1554 276.428 83.5919 276.047 82.855C275.666 82.1182 275.476 81.2346 275.476 80.2042C275.476 79.1708 275.668 78.2872 276.052 77.5534C276.436 76.8166 276.959 76.253 277.621 75.8627C278.283 75.4725 279.032 75.2773 279.869 75.2773C280.403 75.2773 280.899 75.3522 281.358 75.5021C281.817 75.652 282.226 75.8721 282.585 76.1625C282.944 76.4497 283.239 76.8025 283.47 77.2209C283.705 77.6362 283.858 78.1108 283.929 78.6447ZM286.935 80.785V85H285.24V75.4084H286.897V79.0287H286.982C287.15 78.6228 287.411 78.3028 287.764 78.0686C288.12 77.8313 288.573 77.7127 289.122 77.7127C289.622 77.7127 290.057 77.8173 290.429 78.0265C290.8 78.2356 291.088 78.5416 291.29 78.9444C291.497 79.3472 291.6 79.8389 291.6 80.4197V85H289.904V80.6819C289.904 80.198 289.779 79.8217 289.53 79.5532C289.283 79.2816 288.936 79.1458 288.49 79.1458C288.19 79.1458 287.922 79.2113 287.684 79.3425C287.45 79.4705 287.266 79.6563 287.132 79.8998C287 80.1433 286.935 80.4384 286.935 80.785ZM295.192 85.1452C294.736 85.1452 294.325 85.064 293.96 84.9016C293.598 84.7362 293.311 84.4926 293.098 84.171C292.889 83.8495 292.784 83.4529 292.784 82.9815C292.784 82.5756 292.859 82.2399 293.009 81.9745C293.159 81.7091 293.364 81.4968 293.623 81.3376C293.882 81.1784 294.174 81.0582 294.499 80.977C294.826 80.8927 295.165 80.8318 295.515 80.7943C295.936 80.7506 296.278 80.7116 296.541 80.6772C296.803 80.6398 296.993 80.5836 297.112 80.5086C297.234 80.4306 297.295 80.3104 297.295 80.148V80.1199C297.295 79.7671 297.19 79.4939 296.981 79.3003C296.772 79.1068 296.47 79.01 296.077 79.01C295.662 79.01 295.332 79.1005 295.089 79.2816C294.848 79.4627 294.686 79.6766 294.602 79.9232L293.019 79.6984C293.144 79.2613 293.35 78.896 293.637 78.6025C293.924 78.3059 294.275 78.0842 294.691 77.9375C295.106 77.7876 295.565 77.7127 296.068 77.7127C296.414 77.7127 296.759 77.7533 297.103 77.8344C297.446 77.9156 297.76 78.0499 298.044 78.2372C298.328 78.4214 298.556 78.6728 298.728 78.9912C298.903 79.3097 298.99 79.7078 298.99 80.1855V85H297.36V84.0118H297.304C297.201 84.2116 297.056 84.399 296.868 84.5738C296.684 84.7455 296.452 84.8845 296.171 84.9906C295.893 85.0937 295.566 85.1452 295.192 85.1452ZM295.632 83.8994C295.972 83.8994 296.267 83.8323 296.517 83.698C296.767 83.5606 296.959 83.3796 297.093 83.1548C297.231 82.9299 297.299 82.6849 297.299 82.4195V81.5718C297.246 81.6155 297.156 81.6561 297.028 81.6935C296.903 81.731 296.762 81.7638 296.606 81.7919C296.45 81.82 296.295 81.845 296.142 81.8668C295.989 81.8887 295.857 81.9074 295.744 81.923C295.491 81.9574 295.265 82.0136 295.065 82.0916C294.865 82.1697 294.708 82.279 294.592 82.4195C294.477 82.5568 294.419 82.7348 294.419 82.9534C294.419 83.2656 294.533 83.5013 294.761 83.6606C294.989 83.8198 295.279 83.8994 295.632 83.8994ZM302.184 80.785V85H300.489V77.8063H302.109V79.0287H302.193C302.359 78.6259 302.623 78.3059 302.985 78.0686C303.35 77.8313 303.801 77.7127 304.338 77.7127C304.835 77.7127 305.267 77.8188 305.636 78.0311C306.007 78.2435 306.294 78.551 306.497 78.9538C306.703 79.3565 306.805 79.8452 306.802 80.4197V85H305.106V80.6819C305.106 80.2011 304.982 79.8249 304.732 79.5532C304.485 79.2816 304.143 79.1458 303.706 79.1458C303.409 79.1458 303.146 79.2113 302.915 79.3425C302.687 79.4705 302.507 79.6563 302.376 79.8998C302.248 80.1433 302.184 80.4384 302.184 80.785ZM311.448 87.8475C310.839 87.8475 310.316 87.7648 309.879 87.5993C309.442 87.4369 309.09 87.2184 308.825 86.9436C308.56 86.6688 308.375 86.3644 308.272 86.0303L309.799 85.6604C309.868 85.8009 309.968 85.9398 310.099 86.0772C310.23 86.2177 310.406 86.3332 310.628 86.4237C310.853 86.5174 311.135 86.5642 311.476 86.5642C311.957 86.5642 312.355 86.4472 312.67 86.213C312.985 85.9819 313.143 85.601 313.143 85.0703V83.7074H313.059C312.971 83.8822 312.843 84.0618 312.675 84.246C312.509 84.4302 312.289 84.5847 312.014 84.7096C311.743 84.8345 311.401 84.897 310.989 84.897C310.436 84.897 309.935 84.7674 309.485 84.5082C309.039 84.246 308.683 83.8557 308.418 83.3374C308.155 82.816 308.024 82.1634 308.024 81.3798C308.024 80.5898 308.155 79.9232 308.418 79.3799C308.683 78.8336 309.04 78.4199 309.49 78.1389C309.94 77.8547 310.441 77.7127 310.993 77.7127C311.415 77.7127 311.762 77.7845 312.033 77.9281C312.308 78.0686 312.526 78.2388 312.689 78.4386C312.851 78.6353 312.975 78.8211 313.059 78.9959H313.152V77.8063H314.824V85.1171C314.824 85.7322 314.678 86.2411 314.384 86.6439C314.091 87.0466 313.689 87.3479 313.181 87.5478C312.672 87.7476 312.094 87.8475 311.448 87.8475ZM311.462 83.5669C311.821 83.5669 312.127 83.4795 312.38 83.3046C312.633 83.1298 312.825 82.8784 312.956 82.5506C313.087 82.2228 313.152 81.8294 313.152 81.3704C313.152 80.9177 313.087 80.5211 312.956 80.1808C312.828 79.8405 312.637 79.5767 312.384 79.3893C312.135 79.1989 311.827 79.1036 311.462 79.1036C311.084 79.1036 310.769 79.202 310.516 79.3987C310.263 79.5954 310.072 79.8655 309.944 80.2089C309.816 80.5492 309.752 80.9364 309.752 81.3704C309.752 81.8106 309.816 82.1962 309.944 82.5272C310.075 82.855 310.268 83.111 310.52 83.2953C310.776 83.4763 311.09 83.5669 311.462 83.5669ZM319.541 85.1405C318.819 85.1405 318.196 84.9906 317.672 84.6909C317.151 84.388 316.749 83.9603 316.468 83.4077C316.187 82.8519 316.047 82.1978 316.047 81.4453C316.047 80.7053 316.187 80.0559 316.468 79.497C316.752 78.935 317.149 78.4979 317.658 78.1857C318.167 77.8703 318.765 77.7127 319.452 77.7127C319.895 77.7127 320.313 77.7845 320.707 77.9281C321.103 78.0686 321.453 78.2872 321.756 78.5838C322.062 78.8804 322.302 79.2582 322.477 79.7172C322.652 80.173 322.739 80.7163 322.739 81.347V81.8668H316.843V80.7241H321.114C321.111 80.3994 321.041 80.1106 320.903 79.8577C320.766 79.6016 320.574 79.4002 320.327 79.2535C320.084 79.1068 319.8 79.0334 319.475 79.0334C319.128 79.0334 318.824 79.1177 318.562 79.2863C318.3 79.4518 318.095 79.6703 317.948 79.942C317.805 80.2105 317.731 80.5055 317.728 80.8271V81.8247C317.728 82.2431 317.805 82.6021 317.958 82.9018C318.111 83.1985 318.324 83.4264 318.599 83.5856C318.874 83.7417 319.196 83.8198 319.564 83.8198C319.811 83.8198 320.034 83.7854 320.234 83.7168C320.434 83.6449 320.607 83.5403 320.754 83.403C320.9 83.2656 321.011 83.0954 321.086 82.8925L322.669 83.0704C322.569 83.4888 322.379 83.8541 322.098 84.1664C321.82 84.4755 321.464 84.7159 321.03 84.8876C320.596 85.0562 320.099 85.1405 319.541 85.1405ZM329.653 79.7078L328.108 79.8764C328.064 79.7203 327.987 79.5735 327.878 79.4362C327.772 79.2988 327.628 79.1879 327.447 79.1036C327.266 79.0193 327.045 78.9772 326.782 78.9772C326.429 78.9772 326.133 79.0537 325.892 79.2067C325.655 79.3597 325.538 79.5579 325.541 79.8015C325.538 80.0106 325.615 80.1808 325.771 80.3119C325.93 80.4431 326.192 80.5508 326.557 80.6351L327.784 80.8974C328.465 81.0441 328.971 81.2767 329.302 81.5952C329.636 81.9137 329.805 82.3305 329.808 82.8456C329.805 83.2984 329.672 83.698 329.41 84.0446C329.15 84.388 328.79 84.6566 328.328 84.8501C327.866 85.0437 327.335 85.1405 326.735 85.1405C325.855 85.1405 325.146 84.9563 324.609 84.5879C324.072 84.2163 323.752 83.6996 323.649 83.0377L325.302 82.8784C325.377 83.2031 325.536 83.4482 325.78 83.6137C326.024 83.7792 326.34 83.8619 326.731 83.8619C327.134 83.8619 327.457 83.7792 327.7 83.6137C327.947 83.4482 328.07 83.2437 328.07 83.0002C328.07 82.7941 327.991 82.624 327.831 82.4897C327.675 82.3555 327.432 82.2524 327.101 82.1806L325.874 81.923C325.184 81.7794 324.673 81.5374 324.342 81.1971C324.011 80.8537 323.847 80.4197 323.85 79.8951C323.847 79.4518 323.968 79.0677 324.211 78.743C324.458 78.4152 324.8 78.1623 325.237 77.9843C325.677 77.8032 326.184 77.7127 326.759 77.7127C327.602 77.7127 328.265 77.8922 328.749 78.2513C329.236 78.6103 329.538 79.0958 329.653 79.7078Z" fill="#FCFCFD"/>
<rect x="0.5" y="0.5" width="389" height="159" rx="7.5" stroke="#CA3A31" stroke-opacity="0.1"/>
</svg>
