<svg width="390" height="160" viewBox="0 0 390 160" fill="none" xmlns="http://www.w3.org/2000/svg">
<rect width="390" height="160" rx="8" fill="#CA3A31" fill-opacity="0.1"/>
<path d="M41.6013 139.511L30.6701 120.528C30.3969 120.062 30.007 119.677 29.5388 119.409C29.0707 119.141 28.5407 119 28.0013 119C27.462 119 26.9319 119.141 26.4638 119.409C25.9957 119.677 25.6058 120.062 25.3326 120.528L14.4013 139.511C14.1385 139.961 14 140.473 14 140.994C14 141.515 14.1385 142.026 14.4013 142.476C14.671 142.944 15.0603 143.332 15.5293 143.6C15.9983 143.868 16.5301 144.006 17.0701 144H38.9326C39.4722 144.005 40.0035 143.867 40.472 143.599C40.9405 143.331 41.3294 142.944 41.5988 142.476C41.8621 142.027 42.001 141.515 42.0014 140.994C42.0019 140.473 41.8638 139.961 41.6013 139.511ZM27.0013 129C27.0013 128.735 27.1067 128.481 27.2942 128.293C27.4818 128.105 27.7361 128 28.0013 128C28.2666 128 28.5209 128.105 28.7084 128.293C28.896 128.481 29.0013 128.735 29.0013 129V134C29.0013 134.265 28.896 134.52 28.7084 134.707C28.5209 134.895 28.2666 135 28.0013 135C27.7361 135 27.4818 134.895 27.2942 134.707C27.1067 134.52 27.0013 134.265 27.0013 134V129ZM28.0013 140C27.7047 140 27.4147 139.912 27.168 139.747C26.9213 139.582 26.7291 139.348 26.6155 139.074C26.502 138.8 26.4723 138.498 26.5302 138.207C26.588 137.916 26.7309 137.649 26.9407 137.439C27.1505 137.23 27.4177 137.087 27.7087 137.029C27.9997 136.971 28.3013 137.001 28.5754 137.114C28.8495 137.228 29.0837 137.42 29.2485 137.667C29.4134 137.913 29.5013 138.203 29.5013 138.5C29.5013 138.898 29.3433 139.279 29.062 139.561C28.7807 139.842 28.3992 140 28.0013 140Z" fill="#CA3A31"/>
<path d="M73.6797 67.0986C73.6797 65.2455 73.6797 64.319 74.0403 63.6113C74.3575 62.9887 74.8637 62.4825 75.4863 62.1653C76.194 61.8047 77.1205 61.8047 78.9736 61.8047H145.473C147.326 61.8047 148.252 61.8047 148.96 62.1653C149.582 62.4825 150.089 62.9887 150.406 63.6113C150.766 64.319 150.766 65.2455 150.766 67.0986V92.9063C150.766 94.7593 150.766 95.6858 150.406 96.3936C150.089 97.0161 149.582 97.5223 148.96 97.8395C148.252 98.2001 147.326 98.2001 145.473 98.2001H78.9736C77.1205 98.2001 76.194 98.2001 75.4863 97.8395C74.8637 97.5223 74.3575 97.0161 74.0403 96.3936C73.6797 95.6858 73.6797 94.7593 73.6797 92.9063V67.0986Z" fill="#217CF5"/>
<path d="M99.7105 78.6223H97.9528C97.9027 78.3341 97.8103 78.0787 97.6755 77.8563C97.5408 77.6307 97.3732 77.4395 97.1726 77.2829C96.9721 77.1262 96.7434 77.0087 96.4865 76.9304C96.2327 76.8489 95.9585 76.8082 95.664 76.8082C95.1408 76.8082 94.677 76.9398 94.2728 77.203C93.8687 77.463 93.5522 77.8453 93.3235 78.3497C93.0948 78.8511 92.9804 79.4636 92.9804 80.1874C92.9804 80.9237 93.0948 81.5441 93.3235 82.0485C93.5553 82.5498 93.8718 82.9289 94.2728 83.1859C94.677 83.4397 95.1392 83.5666 95.6593 83.5666C95.9476 83.5666 96.217 83.529 96.4677 83.4538C96.7215 83.3754 96.9486 83.2611 97.1491 83.1107C97.3528 82.9603 97.5236 82.7754 97.6614 82.5561C97.8024 82.3368 97.8995 82.0861 97.9528 81.8041L99.7105 81.8135C99.6447 82.271 99.5022 82.7002 99.2829 83.1013C99.0667 83.5023 98.7831 83.8564 98.4322 84.1634C98.0813 84.4674 97.6708 84.7055 97.2008 84.8778C96.7309 85.047 96.2092 85.1316 95.6358 85.1316C94.7898 85.1316 94.0347 84.9358 93.3705 84.5441C92.7062 84.1525 92.183 83.5869 91.8007 82.8475C91.4185 82.108 91.2274 81.2213 91.2274 80.1874C91.2274 79.1503 91.4201 78.2636 91.8054 77.5273C92.1908 76.7878 92.7156 76.2223 93.3799 75.8306C94.0441 75.439 94.7961 75.2432 95.6358 75.2432C96.1716 75.2432 96.6698 75.3184 97.1303 75.4688C97.5909 75.6191 98.0014 75.84 98.3617 76.1314C98.722 76.4197 99.0181 76.7737 99.25 77.1936C99.485 77.6103 99.6385 78.0866 99.7105 78.6223ZM103.103 85.1457C102.645 85.1457 102.233 85.0642 101.867 84.9013C101.503 84.7352 101.215 84.4909 101.002 84.1681C100.792 83.8454 100.687 83.4475 100.687 82.9744C100.687 82.5671 100.762 82.2302 100.913 81.9639C101.063 81.6976 101.268 81.4845 101.528 81.3247C101.788 81.1649 102.081 81.0443 102.407 80.9628C102.736 80.8783 103.076 80.8172 103.427 80.7796C103.85 80.7357 104.193 80.6965 104.456 80.6621C104.719 80.6245 104.911 80.5681 105.03 80.4929C105.152 80.4145 105.213 80.2939 105.213 80.131V80.1028C105.213 79.7487 105.108 79.4746 104.898 79.2803C104.688 79.0861 104.386 78.9889 103.991 78.9889C103.574 78.9889 103.244 79.0798 102.999 79.2615C102.758 79.4432 102.595 79.6579 102.51 79.9054L100.922 79.6798C101.047 79.2411 101.254 78.8746 101.542 78.58C101.831 78.2824 102.183 78.0599 102.6 77.9127C103.016 77.7623 103.477 77.6871 103.982 77.6871C104.329 77.6871 104.676 77.7278 105.02 77.8093C105.365 77.8907 105.68 78.0255 105.965 78.2135C106.25 78.3983 106.479 78.6505 106.651 78.9701C106.826 79.2897 106.914 79.6892 106.914 80.1686V85H105.279V84.0083H105.222C105.119 84.2089 104.973 84.3969 104.785 84.5723C104.6 84.7446 104.367 84.8841 104.085 84.9906C103.806 85.094 103.479 85.1457 103.103 85.1457ZM103.544 83.8955C103.886 83.8955 104.182 83.8282 104.433 83.6934C104.683 83.5556 104.876 83.3739 105.011 83.1483C105.149 82.9227 105.218 82.6767 105.218 82.4104V81.5597C105.164 81.6036 105.073 81.6443 104.945 81.6819C104.82 81.7195 104.679 81.7524 104.522 81.7806C104.365 81.8088 104.21 81.8339 104.057 81.8558C103.903 81.8777 103.77 81.8965 103.657 81.9122C103.403 81.9467 103.176 82.0031 102.976 82.0814C102.775 82.1597 102.617 82.2694 102.501 82.4104C102.385 82.5483 102.327 82.7269 102.327 82.9462C102.327 83.2595 102.442 83.4961 102.67 83.6558C102.899 83.8156 103.19 83.8955 103.544 83.8955ZM110.119 80.7702V85H108.418V77.7811H110.044V79.0077H110.129C110.295 78.6035 110.56 78.2824 110.923 78.0443C111.29 77.8061 111.742 77.6871 112.281 77.6871C112.78 77.6871 113.214 77.7936 113.583 78.0067C113.956 78.2197 114.244 78.5283 114.448 78.9325C114.655 79.3367 114.757 79.8271 114.754 80.4036V85H113.052V80.6668C113.052 80.1842 112.927 79.8067 112.676 79.5341C112.429 79.2615 112.086 79.1252 111.647 79.1252C111.349 79.1252 111.085 79.191 110.853 79.3226C110.624 79.4511 110.444 79.6375 110.312 79.8819C110.184 80.1263 110.119 80.4224 110.119 80.7702ZM119.425 85.141C118.704 85.141 118.086 84.9828 117.569 84.6663C117.055 84.3499 116.659 83.9128 116.38 83.3551C116.104 82.7942 115.966 82.1488 115.966 81.4187C115.966 80.6856 116.107 80.0386 116.389 79.4777C116.671 78.9137 117.069 78.4751 117.583 78.1618C118.1 77.8453 118.711 77.6871 119.416 77.6871C120.002 77.6871 120.52 77.7952 120.971 78.0114C121.426 78.2244 121.788 78.5268 122.057 78.9184C122.326 79.3069 122.48 79.7613 122.518 80.2814H120.891C120.826 79.9336 120.669 79.6438 120.422 79.4119C120.177 79.1769 119.85 79.0594 119.439 79.0594C119.091 79.0594 118.786 79.1534 118.523 79.3414C118.26 79.5263 118.054 79.7926 117.907 80.1404C117.763 80.4882 117.691 80.9049 117.691 81.3905C117.691 81.8824 117.763 82.3054 117.907 82.6595C118.051 83.0104 118.253 83.2814 118.513 83.4726C118.777 83.6605 119.085 83.7545 119.439 83.7545C119.69 83.7545 119.914 83.7075 120.111 83.6136C120.312 83.5164 120.479 83.377 120.614 83.1953C120.749 83.0135 120.841 82.7926 120.891 82.5326H122.518C122.477 83.0433 122.326 83.4961 122.066 83.8908C121.806 84.2825 121.452 84.5895 121.004 84.812C120.556 85.0313 120.03 85.141 119.425 85.141ZM126.904 85.141C126.18 85.141 125.555 84.9906 125.029 84.6898C124.505 84.3859 124.103 83.9566 123.821 83.4021C123.539 82.8443 123.398 82.1879 123.398 81.4328C123.398 80.6903 123.539 80.0386 123.821 79.4777C124.106 78.9137 124.504 78.4751 125.014 78.1618C125.525 77.8453 126.125 77.6871 126.814 77.6871C127.259 77.6871 127.679 77.7591 128.074 77.9033C128.472 78.0443 128.823 78.2636 129.127 78.5612C129.434 78.8589 129.675 79.238 129.851 79.6986C130.026 80.156 130.114 80.7012 130.114 81.3341V81.8558H124.197V80.7091H128.483C128.48 80.3832 128.409 80.0934 128.271 79.8396C128.134 79.5827 127.941 79.3806 127.693 79.2333C127.449 79.0861 127.164 79.0124 126.838 79.0124C126.49 79.0124 126.185 79.097 125.921 79.2662C125.658 79.4323 125.453 79.6516 125.306 79.9242C125.162 80.1936 125.088 80.4897 125.085 80.8125V81.8135C125.085 82.2334 125.162 82.5937 125.315 82.8945C125.469 83.1921 125.683 83.4209 125.959 83.5807C126.235 83.7373 126.558 83.8156 126.927 83.8156C127.175 83.8156 127.399 83.7812 127.599 83.7122C127.8 83.6402 127.974 83.5352 128.121 83.3974C128.268 83.2595 128.379 83.0887 128.455 82.8851L130.043 83.0637C129.943 83.4835 129.752 83.8501 129.47 84.1634C129.191 84.4736 128.834 84.7149 128.398 84.8872C127.963 85.0564 127.465 85.141 126.904 85.141ZM133.048 75.3748V85H131.346V75.3748H133.048Z" fill="#FCFCFD"/>
<path d="M166.766 67.0986C166.766 65.2455 166.766 64.319 167.126 63.6113C167.443 62.9887 167.95 62.4825 168.572 62.1653C169.28 61.8047 170.206 61.8047 172.06 61.8047H311.028C312.881 61.8047 313.807 61.8047 314.515 62.1653C315.138 62.4825 315.644 62.9887 315.961 63.6113C316.322 64.319 316.322 65.2455 316.322 67.0986V92.9063C316.322 94.7593 316.322 95.6858 315.961 96.3936C315.644 97.0161 315.138 97.5223 314.515 97.8395C313.807 98.2001 312.881 98.2001 311.028 98.2001H172.06C170.206 98.2001 169.28 98.2001 168.572 97.8395C167.95 97.5223 167.443 97.0161 167.126 96.3936C166.766 95.6858 166.766 94.7593 166.766 92.9063V67.0986Z" fill="#217CF5"/>
<path d="M193.237 71.9375C191.642 71.9375 190.082 72.4105 188.756 73.2967C187.43 74.1829 186.396 75.4424 185.786 76.9161C185.175 78.3898 185.016 80.0113 185.327 81.5758C185.638 83.1402 186.406 84.5772 187.534 85.7051C188.662 86.833 190.099 87.6011 191.663 87.9123C193.228 88.2235 194.849 88.0638 196.323 87.4534C197.797 86.843 199.056 85.8093 199.942 84.483C200.829 83.1568 201.302 81.5975 201.302 80.0024C201.299 77.8641 200.449 75.8141 198.937 74.3021C197.425 72.7902 195.375 71.9398 193.237 71.9375ZM193.237 86.8265C191.887 86.8265 190.568 86.4263 189.445 85.6765C188.323 84.9266 187.449 83.8608 186.932 82.6139C186.416 81.3669 186.28 79.9948 186.544 78.6711C186.807 77.3473 187.457 76.1314 188.411 75.177C189.366 74.2226 190.582 73.5727 191.905 73.3094C193.229 73.0461 194.601 73.1812 195.848 73.6977C197.095 74.2142 198.161 75.0889 198.911 76.2111C199.661 77.3333 200.061 78.6527 200.061 80.0024C200.059 81.8116 199.339 83.5462 198.06 84.8255C196.781 86.1049 195.046 86.8245 193.237 86.8265Z" fill="#FCFCFD"/>
<path d="M216.374 78.0208C216.331 77.6103 216.146 77.2907 215.82 77.062C215.497 76.8333 215.077 76.7189 214.56 76.7189C214.197 76.7189 213.885 76.7737 213.625 76.8834C213.365 76.9931 213.166 77.1419 213.028 77.3299C212.89 77.5179 212.82 77.7325 212.817 77.9738C212.817 78.1743 212.862 78.3482 212.953 78.4954C213.047 78.6427 213.174 78.768 213.334 78.8714C213.493 78.9717 213.671 79.0563 213.865 79.1252C214.059 79.1941 214.255 79.2521 214.452 79.2991L215.355 79.5247C215.718 79.6093 216.067 79.7237 216.403 79.8678C216.741 80.0119 217.043 80.1936 217.31 80.413C217.579 80.6323 217.792 80.8971 217.949 81.2072C218.106 81.5174 218.184 81.8809 218.184 82.2976C218.184 82.8616 218.04 83.3582 217.752 83.7874C217.463 84.2136 217.047 84.5473 216.501 84.7885C215.959 85.0266 215.303 85.1457 214.532 85.1457C213.783 85.1457 213.133 85.0298 212.582 84.7979C212.033 84.566 211.604 84.2277 211.294 83.7827C210.987 83.3378 210.821 82.7958 210.796 82.1566H212.511C212.536 82.4919 212.64 82.7707 212.821 82.9932C213.003 83.2156 213.24 83.3817 213.531 83.4914C213.826 83.601 214.155 83.6558 214.518 83.6558C214.897 83.6558 215.229 83.5995 215.514 83.4867C215.803 83.3707 216.028 83.2109 216.191 83.0073C216.354 82.8005 216.437 82.5592 216.44 82.2835C216.437 82.0328 216.364 81.8261 216.219 81.6631C216.075 81.4971 215.873 81.3592 215.613 81.2495C215.356 81.1367 215.055 81.0365 214.711 80.9488L213.616 80.6668C212.823 80.4631 212.196 80.1545 211.736 79.7409C211.278 79.3242 211.05 78.7712 211.05 78.0819C211.05 77.5147 211.203 77.0181 211.51 76.592C211.82 76.1659 212.242 75.8353 212.774 75.6003C213.307 75.3622 213.91 75.2432 214.584 75.2432C215.267 75.2432 215.865 75.3622 216.379 75.6003C216.896 75.8353 217.302 76.1628 217.596 76.5826C217.891 76.9993 218.043 77.4787 218.052 78.0208H216.374ZM221.534 85.1457C221.076 85.1457 220.664 85.0642 220.298 84.9013C219.934 84.7352 219.646 84.4909 219.433 84.1681C219.223 83.8454 219.118 83.4475 219.118 82.9744C219.118 82.5671 219.193 82.2302 219.344 81.9639C219.494 81.6976 219.699 81.4845 219.959 81.3247C220.219 81.1649 220.512 81.0443 220.838 80.9628C221.167 80.8783 221.507 80.8172 221.858 80.7796C222.281 80.7357 222.624 80.6965 222.887 80.6621C223.15 80.6245 223.342 80.5681 223.461 80.4929C223.583 80.4145 223.644 80.2939 223.644 80.131V80.1028C223.644 79.7487 223.539 79.4746 223.329 79.2803C223.119 79.0861 222.817 78.9889 222.422 78.9889C222.005 78.9889 221.675 79.0798 221.43 79.2615C221.189 79.4432 221.026 79.6579 220.942 79.9054L219.353 79.6798C219.478 79.2411 219.685 78.8746 219.973 78.58C220.262 78.2824 220.614 78.0599 221.031 77.9127C221.448 77.7623 221.908 77.6871 222.413 77.6871C222.76 77.6871 223.107 77.7278 223.451 77.8093C223.796 77.8907 224.111 78.0255 224.396 78.2135C224.681 78.3983 224.91 78.6505 225.082 78.9701C225.258 79.2897 225.345 79.6892 225.345 80.1686V85H223.71V84.0083H223.653C223.55 84.2089 223.404 84.3969 223.216 84.5723C223.031 84.7446 222.798 84.8841 222.516 84.9906C222.237 85.094 221.91 85.1457 221.534 85.1457ZM221.976 83.8955C222.317 83.8955 222.613 83.8282 222.864 83.6934C223.114 83.5556 223.307 83.3739 223.442 83.1483C223.58 82.9227 223.649 82.6767 223.649 82.4104V81.5597C223.595 81.6036 223.505 81.6443 223.376 81.6819C223.251 81.7195 223.11 81.7524 222.953 81.7806C222.796 81.8088 222.641 81.8339 222.488 81.8558C222.334 81.8777 222.201 81.8965 222.088 81.9122C221.835 81.9467 221.607 82.0031 221.407 82.0814C221.206 82.1597 221.048 82.2694 220.932 82.4104C220.816 82.5483 220.758 82.7269 220.758 82.9462C220.758 83.2595 220.873 83.4961 221.101 83.6558C221.33 83.8156 221.621 83.8955 221.976 83.8955ZM233.039 77.7811L230.468 85H228.588L226.017 77.7811H227.831L229.491 83.1436H229.566L231.229 77.7811H233.039ZM236.96 85.141C236.236 85.141 235.611 84.9906 235.084 84.6898C234.561 84.3859 234.159 83.9566 233.877 83.4021C233.595 82.8443 233.454 82.1879 233.454 81.4328C233.454 80.6903 233.595 80.0386 233.877 79.4777C234.162 78.9137 234.56 78.4751 235.07 78.1618C235.581 77.8453 236.181 77.6871 236.87 77.6871C237.315 77.6871 237.735 77.7591 238.13 77.9033C238.528 78.0443 238.879 78.2636 239.183 78.5612C239.49 78.8589 239.731 79.238 239.907 79.6986C240.082 80.156 240.17 80.7012 240.17 81.3341V81.8558H234.253V80.7091H238.539C238.536 80.3832 238.465 80.0934 238.327 79.8396C238.19 79.5827 237.997 79.3806 237.749 79.2333C237.505 79.0861 237.22 79.0124 236.894 79.0124C236.546 79.0124 236.241 79.097 235.977 79.2662C235.714 79.4323 235.509 79.6516 235.362 79.9242C235.218 80.1936 235.144 80.4897 235.141 80.8125V81.8135C235.141 82.2334 235.218 82.5937 235.371 82.8945C235.525 83.1921 235.739 83.4209 236.015 83.5807C236.291 83.7373 236.613 83.8156 236.983 83.8156C237.231 83.8156 237.455 83.7812 237.655 83.7122C237.856 83.6402 238.03 83.5352 238.177 83.3974C238.324 83.2595 238.435 83.0887 238.511 82.8851L240.099 83.0637C239.999 83.4835 239.808 83.8501 239.526 84.1634C239.247 84.4736 238.89 84.7149 238.454 84.8872C238.019 85.0564 237.521 85.141 236.96 85.141ZM252.792 78.6223H251.035C250.984 78.3341 250.892 78.0787 250.757 77.8563C250.623 77.6307 250.455 77.4395 250.254 77.2829C250.054 77.1262 249.825 77.0087 249.568 76.9304C249.314 76.8489 249.04 76.8082 248.746 76.8082C248.222 76.8082 247.759 76.9398 247.355 77.203C246.95 77.463 246.634 77.8453 246.405 78.3497C246.176 78.8511 246.062 79.4636 246.062 80.1874C246.062 80.9237 246.176 81.5441 246.405 82.0485C246.637 82.5498 246.954 82.9289 247.355 83.1859C247.759 83.4397 248.221 83.5666 248.741 83.5666C249.029 83.5666 249.299 83.529 249.549 83.4538C249.803 83.3754 250.03 83.2611 250.231 83.1107C250.435 82.9603 250.605 82.7754 250.743 82.5561C250.884 82.3368 250.981 82.0861 251.035 81.8041L252.792 81.8135C252.726 82.271 252.584 82.7002 252.365 83.1013C252.148 83.5023 251.865 83.8564 251.514 84.1634C251.163 84.4674 250.753 84.7055 250.283 84.8778C249.813 85.047 249.291 85.1316 248.718 85.1316C247.872 85.1316 247.116 84.9358 246.452 84.5441C245.788 84.1525 245.265 83.5869 244.882 82.8475C244.5 82.108 244.309 81.2213 244.309 80.1874C244.309 79.1503 244.502 78.2636 244.887 77.5273C245.273 76.7878 245.797 76.2223 246.462 75.8306C247.126 75.439 247.878 75.2432 248.718 75.2432C249.253 75.2432 249.751 75.3184 250.212 75.4688C250.673 75.6191 251.083 75.84 251.443 76.1314C251.804 76.4197 252.1 76.7737 252.332 77.1936C252.567 77.6103 252.72 78.0866 252.792 78.6223ZM255.808 80.7702V85H254.107V75.3748H255.771V79.0077H255.855C256.025 78.6004 256.286 78.2792 256.64 78.0443C256.997 77.8061 257.452 77.6871 258.003 77.6871C258.505 77.6871 258.942 77.792 259.314 78.002C259.687 78.2119 259.976 78.5189 260.179 78.9231C260.386 79.3273 260.489 79.8208 260.489 80.4036V85H258.788V80.6668C258.788 80.1811 258.663 79.8036 258.412 79.5341C258.165 79.2615 257.817 79.1252 257.369 79.1252C257.068 79.1252 256.798 79.191 256.56 79.3226C256.325 79.4511 256.14 79.6375 256.006 79.8819C255.874 80.1263 255.808 80.4224 255.808 80.7702ZM264.094 85.1457C263.637 85.1457 263.225 85.0642 262.858 84.9013C262.495 84.7352 262.206 84.4909 261.993 84.1681C261.783 83.8454 261.678 83.4475 261.678 82.9744C261.678 82.5671 261.754 82.2302 261.904 81.9639C262.054 81.6976 262.26 81.4845 262.52 81.3247C262.78 81.1649 263.073 81.0443 263.399 80.9628C263.728 80.8783 264.068 80.8172 264.418 80.7796C264.841 80.7357 265.185 80.6965 265.448 80.6621C265.711 80.6245 265.902 80.5681 266.021 80.4929C266.143 80.4145 266.204 80.2939 266.204 80.131V80.1028C266.204 79.7487 266.099 79.4746 265.889 79.2803C265.68 79.0861 265.377 78.9889 264.982 78.9889C264.566 78.9889 264.235 79.0798 263.991 79.2615C263.75 79.4432 263.587 79.6579 263.502 79.9054L261.913 79.6798C262.039 79.2411 262.246 78.8746 262.534 78.58C262.822 78.2824 263.175 78.0599 263.591 77.9127C264.008 77.7623 264.469 77.6871 264.973 77.6871C265.321 77.6871 265.667 77.7278 266.012 77.8093C266.356 77.8907 266.671 78.0255 266.956 78.2135C267.241 78.3983 267.47 78.6505 267.643 78.9701C267.818 79.2897 267.906 79.6892 267.906 80.1686V85H266.27V84.0083H266.214C266.11 84.2089 265.965 84.3969 265.777 84.5723C265.592 84.7446 265.358 84.8841 265.076 84.9906C264.798 85.094 264.47 85.1457 264.094 85.1457ZM264.536 83.8955C264.877 83.8955 265.174 83.8282 265.424 83.6934C265.675 83.5556 265.868 83.3739 266.002 83.1483C266.14 82.9227 266.209 82.6767 266.209 82.4104V81.5597C266.156 81.6036 266.065 81.6443 265.936 81.6819C265.811 81.7195 265.67 81.7524 265.514 81.7806C265.357 81.8088 265.202 81.8339 265.048 81.8558C264.895 81.8777 264.762 81.8965 264.649 81.9122C264.395 81.9467 264.168 82.0031 263.967 82.0814C263.767 82.1597 263.609 82.2694 263.493 82.4104C263.377 82.5483 263.319 82.7269 263.319 82.9462C263.319 83.2595 263.433 83.4961 263.662 83.6558C263.891 83.8156 264.182 83.8955 264.536 83.8955ZM271.111 80.7702V85H269.41V77.7811H271.036V79.0077H271.12C271.286 78.6035 271.551 78.2824 271.915 78.0443C272.281 77.8061 272.734 77.6871 273.273 77.6871C273.771 77.6871 274.205 77.7936 274.575 78.0067C274.948 78.2197 275.236 78.5283 275.44 78.9325C275.646 79.3367 275.748 79.8271 275.745 80.4036V85H274.044V80.6668C274.044 80.1842 273.918 79.8067 273.668 79.5341C273.42 79.2615 273.077 79.1252 272.638 79.1252C272.341 79.1252 272.076 79.191 271.844 79.3226C271.615 79.4511 271.435 79.6375 271.304 79.8819C271.175 80.1263 271.111 80.4224 271.111 80.7702ZM280.407 87.8575C279.796 87.8575 279.271 87.7745 278.833 87.6084C278.394 87.4455 278.042 87.2262 277.775 86.9504C277.509 86.6747 277.324 86.3692 277.221 86.034L278.753 85.6627C278.822 85.8037 278.922 85.9431 279.054 86.081C279.185 86.222 279.362 86.3379 279.585 86.4287C279.81 86.5227 280.094 86.5697 280.435 86.5697C280.918 86.5697 281.317 86.4522 281.634 86.2173C281.95 85.9854 282.109 85.6031 282.109 85.0705V83.7028H282.024C281.936 83.8783 281.808 84.0585 281.639 84.2433C281.473 84.4282 281.252 84.5833 280.976 84.7086C280.703 84.8339 280.36 84.8966 279.947 84.8966C279.392 84.8966 278.889 84.7666 278.438 84.5065C277.99 84.2433 277.633 83.8517 277.366 83.3316C277.103 82.8083 276.972 82.1535 276.972 81.367C276.972 80.5743 277.103 79.9054 277.366 79.3602C277.633 78.8119 277.992 78.3967 278.443 78.1148C278.894 77.8296 279.397 77.6871 279.951 77.6871C280.374 77.6871 280.722 77.7591 280.995 77.9033C281.27 78.0443 281.49 78.215 281.653 78.4155C281.816 78.6129 281.939 78.7994 282.024 78.9748H282.118V77.7811H283.796V85.1175C283.796 85.7347 283.649 86.2455 283.354 86.6496C283.06 87.0538 282.657 87.3562 282.146 87.5567C281.635 87.7572 281.056 87.8575 280.407 87.8575ZM280.421 83.5619C280.782 83.5619 281.089 83.4741 281.343 83.2987C281.596 83.1232 281.789 82.871 281.921 82.542C282.052 82.213 282.118 81.8182 282.118 81.3576C282.118 80.9033 282.052 80.5054 281.921 80.1639C281.792 79.8224 281.601 79.5576 281.347 79.3696C281.097 79.1785 280.788 79.0829 280.421 79.0829C280.042 79.0829 279.726 79.1816 279.472 79.379C279.218 79.5764 279.027 79.8474 278.899 80.1921C278.77 80.5336 278.706 80.9221 278.706 81.3576C278.706 81.7994 278.77 82.1864 278.899 82.5185C279.03 82.8475 279.223 83.1044 279.477 83.2893C279.734 83.471 280.048 83.5619 280.421 83.5619ZM288.529 85.141C287.805 85.141 287.18 84.9906 286.653 84.6898C286.13 84.3859 285.727 83.9566 285.445 83.4021C285.163 82.8443 285.022 82.1879 285.022 81.4328C285.022 80.6903 285.163 80.0386 285.445 79.4777C285.731 78.9137 286.129 78.4751 286.639 78.1618C287.15 77.8453 287.75 77.6871 288.439 77.6871C288.884 77.6871 289.304 77.7591 289.699 77.9033C290.097 78.0443 290.448 78.2636 290.752 78.5612C291.059 78.8589 291.3 79.238 291.475 79.6986C291.651 80.156 291.739 80.7012 291.739 81.3341V81.8558H285.821V80.7091H290.108C290.105 80.3832 290.034 80.0934 289.896 79.8396C289.758 79.5827 289.566 79.3806 289.318 79.2333C289.074 79.0861 288.789 79.0124 288.463 79.0124C288.115 79.0124 287.809 79.097 287.546 79.2662C287.283 79.4323 287.078 79.6516 286.931 79.9242C286.786 80.1936 286.713 80.4897 286.71 80.8125V81.8135C286.71 82.2334 286.786 82.5937 286.94 82.8945C287.094 83.1921 287.308 83.4209 287.584 83.5807C287.86 83.7373 288.182 83.8156 288.552 83.8156C288.8 83.8156 289.024 83.7812 289.224 83.7122C289.425 83.6402 289.599 83.5352 289.746 83.3974C289.893 83.2595 290.004 83.0887 290.079 82.8851L291.668 83.0637C291.568 83.4835 291.377 83.8501 291.095 84.1634C290.816 84.4736 290.459 84.7149 290.023 84.8872C289.588 85.0564 289.089 85.141 288.529 85.141ZM298.677 79.6892L297.126 79.8584C297.082 79.7017 297.005 79.5545 296.895 79.4166C296.789 79.2787 296.645 79.1675 296.463 79.0829C296.281 78.9983 296.059 78.956 295.796 78.956C295.442 78.956 295.144 79.0328 294.903 79.1863C294.665 79.3398 294.547 79.5388 294.55 79.7832C294.547 79.9931 294.624 80.1639 294.78 80.2955C294.94 80.4271 295.203 80.5352 295.57 80.6198L296.801 80.883C297.484 81.0302 297.992 81.2636 298.324 81.5832C298.659 81.9028 298.829 82.3211 298.832 82.8381C298.829 83.2924 298.695 83.6934 298.432 84.0412C298.172 84.3859 297.81 84.6553 297.347 84.8496C296.883 85.0439 296.35 85.141 295.749 85.141C294.865 85.141 294.154 84.9561 293.615 84.5864C293.076 84.2136 292.755 83.695 292.651 83.0308L294.311 82.871C294.386 83.1968 294.546 83.4428 294.79 83.6089C295.034 83.7749 295.352 83.8579 295.744 83.8579C296.148 83.8579 296.472 83.7749 296.717 83.6089C296.964 83.4428 297.088 83.2376 297.088 82.9932C297.088 82.7864 297.008 82.6156 296.848 82.4809C296.692 82.3462 296.447 82.2428 296.115 82.1707L294.884 81.9122C294.191 81.7681 293.679 81.5253 293.347 81.1837C293.015 80.8391 292.85 80.4036 292.854 79.8772C292.85 79.4323 292.971 79.0469 293.215 78.721C293.463 78.392 293.806 78.1383 294.245 77.9597C294.686 77.7779 295.196 77.6871 295.772 77.6871C296.618 77.6871 297.284 77.8672 297.77 78.2276C298.258 78.5879 298.561 79.0751 298.677 79.6892Z" fill="#FCFCFD"/>
<rect x="0.5" y="0.5" width="389" height="159" rx="7.5" stroke="#CA3A31" stroke-opacity="0.1"/>
</svg>
